<?xml version="1.0" encoding="UTF-8" standalone="no"?>
<!DOCTYPE svg PUBLIC "-//W3C//DTD SVG 1.1//EN"
 "http://www.w3.org/Graphics/SVG/1.1/DTD/svg11.dtd">
<!-- Generated by graphviz version 12.2.1 (0)
 -->
<!-- Title: include/llzk/Analysis/AbstractLatticeValue.h Pages: 1 -->
<svg width="2102pt" height="181pt"
 viewBox="0.00 0.00 2102.38 180.50" xmlns="http://www.w3.org/2000/svg" xmlns:xlink="http://www.w3.org/1999/xlink">
<g id="graph0" class="graph" transform="scale(1 1) rotate(0) translate(4 176.5)">
<title>include/llzk/Analysis/AbstractLatticeValue.h</title>
<!-- Node1 -->
<g id="Node000001" class="node">
<title>Node1</title>
<g id="a_Node000001"><a xlink:title=" ">
<polygon fill="#999999" stroke="#666666" points="1727.38,-172.5 1598.88,-172.5 1598.88,-139 1727.38,-139 1727.38,-172.5"/>
<text text-anchor="start" x="1606.88" y="-159" font-family="Helvetica,sans-Serif" font-size="10.00">include/llzk/Analysis</text>
<text text-anchor="middle" x="1663.12" y="-146.25" font-family="Helvetica,sans-Serif" font-size="10.00">/AbstractLatticeValue.h</text>
</a>
</g>
</g>
<!-- Node2 -->
<g id="Node000002" class="node">
<title>Node2</title>
<g id="a_Node000002"><a xlink:href="Debug_8h.html" target="_top" xlink:title=" ">
<polygon fill="white" stroke="#666666" points="728.62,-96.62 631.62,-96.62 631.62,-75.88 728.62,-75.88 728.62,-96.62"/>
<text text-anchor="middle" x="680.12" y="-83.12" font-family="Helvetica,sans-Serif" font-size="10.00">llzk/Util/Debug.h</text>
</a>
</g>
</g>
<!-- Node1&#45;&gt;Node2 -->
<g id="edge1_Node000001_Node000002" class="edge">
<title>Node1&#45;&gt;Node2</title>
<g id="a_edge1_Node000001_Node000002"><a xlink:title=" ">
<path fill="none" stroke="#63b8ff" d="M1598.63,-150.32C1419,-137.99 914.76,-103.36 740.37,-91.39"/>
<polygon fill="#63b8ff" stroke="#63b8ff" points="740.85,-87.91 730.63,-90.72 740.37,-94.9 740.85,-87.91"/>
</a>
</g>
</g>
<!-- Node12 -->
<g id="Node000012" class="node">
<title>Node12</title>
<g id="a_Node000012"><a xlink:href="ErrorHelper_8h.html" target="_top" xlink:title=" ">
<polygon fill="white" stroke="#666666" points="1473.25,-96.62 1353,-96.62 1353,-75.88 1473.25,-75.88 1473.25,-96.62"/>
<text text-anchor="middle" x="1413.12" y="-83.12" font-family="Helvetica,sans-Serif" font-size="10.00">llzk/Util/ErrorHelper.h</text>
</a>
</g>
</g>
<!-- Node1&#45;&gt;Node12 -->
<g id="edge11_Node000001_Node000012" class="edge">
<title>Node1&#45;&gt;Node12</title>
<g id="a_edge11_Node000001_Node000012"><a xlink:title=" ">
<path fill="none" stroke="#63b8ff" d="M1603.24,-138.58C1559.54,-126.78 1501.1,-111 1460.6,-100.07"/>
<polygon fill="#63b8ff" stroke="#63b8ff" points="1461.71,-96.74 1451.14,-97.51 1459.88,-103.5 1461.71,-96.74"/>
</a>
</g>
</g>
<!-- Node17 -->
<g id="Node000017" class="node">
<title>Node17</title>
<g id="a_Node000017"><a xlink:title=" ">
<polygon fill="#e0e0e0" stroke="#999999" points="1784.38,-27.12 1733.88,-27.12 1733.88,-6.38 1784.38,-6.38 1784.38,-27.12"/>
<text text-anchor="middle" x="1759.12" y="-13.62" font-family="Helvetica,sans-Serif" font-size="10.00">variant</text>
</a>
</g>
</g>
<!-- Node1&#45;&gt;Node17 -->
<g id="edge23_Node000001_Node000017" class="edge">
<title>Node1&#45;&gt;Node17</title>
<g id="a_edge23_Node000001_Node000017"><a xlink:title=" ">
<path fill="none" stroke="#63b8ff" d="M1598.5,-140.9C1548.32,-127.2 1491.69,-103.37 1520.12,-69.5 1579.61,1.34 1636.86,-61.17 1725.12,-33.5 1726.72,-33 1728.33,-32.44 1729.94,-31.85"/>
<polygon fill="#63b8ff" stroke="#63b8ff" points="1731.13,-35.14 1739.01,-28.06 1728.44,-28.68 1731.13,-35.14"/>
</a>
</g>
</g>
<!-- Node18 -->
<g id="Node000018" class="node">
<title>Node18</title>
<g id="a_Node000018"><a xlink:title=" ">
<polygon fill="#e0e0e0" stroke="#999999" points="1658.75,-103 1529.5,-103 1529.5,-69.5 1658.75,-69.5 1658.75,-103"/>
<text text-anchor="start" x="1537.5" y="-89.5" font-family="Helvetica,sans-Serif" font-size="10.00">mlir/Analysis/DataFlow</text>
<text text-anchor="middle" x="1594.12" y="-76.75" font-family="Helvetica,sans-Serif" font-size="10.00">/DeadCodeAnalysis.h</text>
</a>
</g>
</g>
<!-- Node1&#45;&gt;Node18 -->
<g id="edge18_Node000001_Node000018" class="edge">
<title>Node1&#45;&gt;Node18</title>
<g id="a_edge18_Node000001_Node000018"><a xlink:title=" ">
<path fill="none" stroke="#63b8ff" d="M1646.77,-138.75C1638.35,-130.52 1627.91,-120.3 1618.56,-111.15"/>
<polygon fill="#63b8ff" stroke="#63b8ff" points="1621.04,-108.68 1611.44,-104.19 1616.14,-113.69 1621.04,-108.68"/>
</a>
</g>
</g>
<!-- Node19 -->
<g id="Node000019" class="node">
<title>Node19</title>
<g id="a_Node000019"><a xlink:title=" ">
<polygon fill="#e0e0e0" stroke="#999999" points="1789.88,-96.62 1676.38,-96.62 1676.38,-75.88 1789.88,-75.88 1789.88,-96.62"/>
<text text-anchor="middle" x="1733.12" y="-83.12" font-family="Helvetica,sans-Serif" font-size="10.00">mlir/Support/LLVM.h</text>
</a>
</g>
</g>
<!-- Node1&#45;&gt;Node19 -->
<g id="edge19_Node000001_Node000019" class="edge">
<title>Node1&#45;&gt;Node19</title>
<g id="a_edge19_Node000001_Node000019"><a xlink:title=" ">
<path fill="none" stroke="#63b8ff" d="M1679.71,-138.75C1690.31,-128.54 1704.04,-115.3 1714.93,-104.79"/>
<polygon fill="#63b8ff" stroke="#63b8ff" points="1717.08,-107.58 1721.85,-98.12 1712.22,-102.54 1717.08,-107.58"/>
</a>
</g>
</g>
<!-- Node20 -->
<g id="Node000020" class="node">
<title>Node20</title>
<g id="a_Node000020"><a xlink:title=" ">
<polygon fill="#e0e0e0" stroke="#999999" points="1930,-96.62 1808.25,-96.62 1808.25,-75.88 1930,-75.88 1930,-96.62"/>
<text text-anchor="middle" x="1869.12" y="-83.12" font-family="Helvetica,sans-Serif" font-size="10.00">llvm/Support/Debug.h</text>
</a>
</g>
</g>
<!-- Node1&#45;&gt;Node20 -->
<g id="edge20_Node000001_Node000020" class="edge">
<title>Node1&#45;&gt;Node20</title>
<g id="a_edge20_Node000001_Node000020"><a xlink:title=" ">
<path fill="none" stroke="#63b8ff" d="M1712.47,-138.58C1747.86,-126.98 1794.99,-111.54 1828.28,-100.63"/>
<polygon fill="#63b8ff" stroke="#63b8ff" points="1829.15,-104.03 1837.57,-97.59 1826.97,-97.38 1829.15,-104.03"/>
</a>
</g>
</g>
<!-- Node21 -->
<g id="Node000021" class="node">
<title>Node21</title>
<g id="a_Node000021"><a xlink:title=" ">
<polygon fill="#e0e0e0" stroke="#999999" points="2007.88,-96.62 1948.38,-96.62 1948.38,-75.88 2007.88,-75.88 2007.88,-96.62"/>
<text text-anchor="middle" x="1978.12" y="-83.12" font-family="Helvetica,sans-Serif" font-size="10.00">concepts</text>
</a>
</g>
</g>
<!-- Node1&#45;&gt;Node21 -->
<g id="edge21_Node000001_Node000021" class="edge">
<title>Node1&#45;&gt;Node21</title>
<g id="a_edge21_Node000001_Node000021"><a xlink:title=" ">
<path fill="none" stroke="#63b8ff" d="M1727.83,-146.33C1784.31,-138.1 1868.12,-123.77 1939.12,-103 1941.23,-102.38 1943.37,-101.7 1945.52,-100.96"/>
<polygon fill="#63b8ff" stroke="#63b8ff" points="1946.55,-104.32 1954.7,-97.55 1944.11,-97.76 1946.55,-104.32"/>
</a>
</g>
</g>
<!-- Node22 -->
<g id="Node000022" class="node">
<title>Node22</title>
<g id="a_Node000022"><a xlink:title=" ">
<polygon fill="#e0e0e0" stroke="#999999" points="2094.38,-96.62 2025.88,-96.62 2025.88,-75.88 2094.38,-75.88 2094.38,-96.62"/>
<text text-anchor="middle" x="2060.12" y="-83.12" font-family="Helvetica,sans-Serif" font-size="10.00">type_traits</text>
</a>
</g>
</g>
<!-- Node1&#45;&gt;Node22 -->
<g id="edge22_Node000001_Node000022" class="edge">
<title>Node1&#45;&gt;Node22</title>
<g id="a_edge22_Node000001_Node000022"><a xlink:title=" ">
<path fill="none" stroke="#63b8ff" d="M1727.86,-149.32C1799.44,-142.39 1917.78,-128.17 2017.12,-103 2019.89,-102.3 2022.72,-101.49 2025.55,-100.61"/>
<polygon fill="#63b8ff" stroke="#63b8ff" points="2026.51,-103.98 2034.86,-97.45 2024.26,-97.35 2026.51,-103.98"/>
</a>
</g>
</g>
<!-- Node3 -->
<g id="Node000003" class="node">
<title>Node3</title>
<g id="a_Node000003"><a xlink:title=" ">
<polygon fill="#e0e0e0" stroke="#999999" points="108.25,-27.12 0,-27.12 0,-6.38 108.25,-6.38 108.25,-27.12"/>
<text text-anchor="middle" x="54.12" y="-13.62" font-family="Helvetica,sans-Serif" font-size="10.00">mlir/IR/Attributes.h</text>
</a>
</g>
</g>
<!-- Node2&#45;&gt;Node3 -->
<g id="edge2_Node000002_Node000003" class="edge">
<title>Node2&#45;&gt;Node3</title>
<g id="a_edge2_Node000002_Node000003"><a xlink:title=" ">
<path fill="none" stroke="#63b8ff" d="M631.23,-83.28C533.13,-78.77 305.58,-65.52 117.12,-33.5 111.78,-32.59 106.22,-31.47 100.71,-30.24"/>
<polygon fill="#63b8ff" stroke="#63b8ff" points="101.58,-26.85 91.05,-27.97 99.98,-33.67 101.58,-26.85"/>
</a>
</g>
</g>
<!-- Node4 -->
<g id="Node000004" class="node">
<title>Node4</title>
<g id="a_Node000004"><a xlink:title=" ">
<polygon fill="#e0e0e0" stroke="#999999" points="1097.25,-27.12 989,-27.12 989,-6.38 1097.25,-6.38 1097.25,-27.12"/>
<text text-anchor="middle" x="1043.12" y="-13.62" font-family="Helvetica,sans-Serif" font-size="10.00">mlir/IR/Operation.h</text>
</a>
</g>
</g>
<!-- Node2&#45;&gt;Node4 -->
<g id="edge3_Node000002_Node000004" class="edge">
<title>Node2&#45;&gt;Node4</title>
<g id="a_edge3_Node000002_Node000004"><a xlink:title=" ">
<path fill="none" stroke="#63b8ff" d="M728.92,-77.97C788.46,-68.83 892.08,-52.07 980.12,-33.5 984.78,-32.52 989.61,-31.43 994.43,-30.3"/>
<polygon fill="#63b8ff" stroke="#63b8ff" points="995.21,-33.72 1004.11,-27.97 993.57,-26.91 995.21,-33.72"/>
</a>
</g>
</g>
<!-- Node5 -->
<g id="Node000005" class="node">
<title>Node5</title>
<g id="a_Node000005"><a xlink:title=" ">
<polygon fill="#e0e0e0" stroke="#999999" points="248.38,-27.12 125.88,-27.12 125.88,-6.38 248.38,-6.38 248.38,-27.12"/>
<text text-anchor="middle" x="187.12" y="-13.62" font-family="Helvetica,sans-Serif" font-size="10.00">mlir/IR/SymbolTable.h</text>
</a>
</g>
</g>
<!-- Node2&#45;&gt;Node5 -->
<g id="edge4_Node000002_Node000005" class="edge">
<title>Node2&#45;&gt;Node5</title>
<g id="a_edge4_Node000002_Node000005"><a xlink:title=" ">
<path fill="none" stroke="#63b8ff" d="M631.36,-80.88C552.4,-73.44 391.81,-56.83 257.12,-33.5 251.14,-32.46 244.9,-31.25 238.71,-29.97"/>
<polygon fill="#63b8ff" stroke="#63b8ff" points="239.7,-26.6 229.18,-27.92 238.22,-33.44 239.7,-26.6"/>
</a>
</g>
</g>
<!-- Node6 -->
<g id="Node000006" class="node">
<title>Node6</title>
<g id="a_Node000006"><a xlink:title=" ">
<polygon fill="#e0e0e0" stroke="#999999" points="353.75,-27.12 266.5,-27.12 266.5,-6.38 353.75,-6.38 353.75,-27.12"/>
<text text-anchor="middle" x="310.12" y="-13.62" font-family="Helvetica,sans-Serif" font-size="10.00">mlir/IR/Value.h</text>
</a>
</g>
</g>
<!-- Node2&#45;&gt;Node6 -->
<g id="edge5_Node000002_Node000006" class="edge">
<title>Node2&#45;&gt;Node6</title>
<g id="a_edge5_Node000002_Node000006"><a xlink:title=" ">
<path fill="none" stroke="#63b8ff" d="M631.25,-79.35C568.48,-71.3 456.39,-55.34 362.12,-33.5 358.54,-32.67 354.84,-31.73 351.15,-30.72"/>
<polygon fill="#63b8ff" stroke="#63b8ff" points="352.22,-27.39 341.64,-28.01 350.3,-34.12 352.22,-27.39"/>
</a>
</g>
</g>
<!-- Node7 -->
<g id="Node000007" class="node">
<title>Node7</title>
<g id="a_Node000007"><a xlink:title=" ">
<polygon fill="#e0e0e0" stroke="#999999" points="520.88,-33.5 371.38,-33.5 371.38,0 520.88,0 520.88,-33.5"/>
<text text-anchor="start" x="379.38" y="-20" font-family="Helvetica,sans-Serif" font-size="10.00">mlir/Interfaces/MemorySlot</text>
<text text-anchor="middle" x="446.12" y="-7.25" font-family="Helvetica,sans-Serif" font-size="10.00">Interfaces.h</text>
</a>
</g>
</g>
<!-- Node2&#45;&gt;Node7 -->
<g id="edge6_Node000002_Node000007" class="edge">
<title>Node2&#45;&gt;Node7</title>
<g id="a_edge6_Node000002_Node000007"><a xlink:title=" ">
<path fill="none" stroke="#63b8ff" d="M646.1,-75.43C611.47,-65.44 556.85,-49.69 513.44,-37.17"/>
<polygon fill="#63b8ff" stroke="#63b8ff" points="514.41,-33.81 503.84,-34.4 512.47,-40.53 514.41,-33.81"/>
</a>
</g>
</g>
<!-- Node8 -->
<g id="Node000008" class="node">
<title>Node8</title>
<g id="a_Node000008"><a xlink:title=" ">
<polygon fill="#e0e0e0" stroke="#999999" points="663.5,-27.12 538.75,-27.12 538.75,-6.38 663.5,-6.38 663.5,-27.12"/>
<text text-anchor="middle" x="601.12" y="-13.62" font-family="Helvetica,sans-Serif" font-size="10.00">llvm/ADT/DenseMap.h</text>
</a>
</g>
</g>
<!-- Node2&#45;&gt;Node8 -->
<g id="edge7_Node000002_Node000008" class="edge">
<title>Node2&#45;&gt;Node8</title>
<g id="a_edge7_Node000002_Node000008"><a xlink:title=" ">
<path fill="none" stroke="#63b8ff" d="M668.81,-75.58C656.44,-65.01 636.39,-47.88 621.31,-35"/>
<polygon fill="#63b8ff" stroke="#63b8ff" points="623.71,-32.44 613.83,-28.61 619.16,-37.76 623.71,-32.44"/>
</a>
</g>
</g>
<!-- Node9 -->
<g id="Node000009" class="node">
<title>Node9</title>
<g id="a_Node000009"><a xlink:title=" ">
<polygon fill="#e0e0e0" stroke="#999999" points="835.12,-27.12 681.12,-27.12 681.12,-6.38 835.12,-6.38 835.12,-27.12"/>
<text text-anchor="middle" x="758.12" y="-13.62" font-family="Helvetica,sans-Serif" font-size="10.00">llvm/Support/raw_ostream.h</text>
</a>
</g>
</g>
<!-- Node2&#45;&gt;Node9 -->
<g id="edge8_Node000002_Node000009" class="edge">
<title>Node2&#45;&gt;Node9</title>
<g id="a_edge8_Node000002_Node000009"><a xlink:title=" ">
<path fill="none" stroke="#63b8ff" d="M691.3,-75.58C703.51,-65.01 723.31,-47.88 738.2,-35"/>
<polygon fill="#63b8ff" stroke="#63b8ff" points="740.3,-37.8 745.57,-28.61 735.72,-32.51 740.3,-37.8"/>
</a>
</g>
</g>
<!-- Node10 -->
<g id="Node000010" class="node">
<title>Node10</title>
<g id="a_Node000010"><a xlink:title=" ">
<polygon fill="#e0e0e0" stroke="#999999" points="909,-27.12 853.25,-27.12 853.25,-6.38 909,-6.38 909,-27.12"/>
<text text-anchor="middle" x="881.12" y="-13.62" font-family="Helvetica,sans-Serif" font-size="10.00">optional</text>
</a>
</g>
</g>
<!-- Node2&#45;&gt;Node10 -->
<g id="edge9_Node000002_Node000010" class="edge">
<title>Node2&#45;&gt;Node10</title>
<g id="a_edge9_Node000002_Node000010"><a xlink:title=" ">
<path fill="none" stroke="#63b8ff" d="M714.69,-75.4C748.11,-65.63 800.02,-49.8 844.12,-33.5 845.64,-32.94 847.18,-32.35 848.74,-31.75"/>
<polygon fill="#63b8ff" stroke="#63b8ff" points="849.61,-35.17 857.56,-28.17 846.98,-28.69 849.61,-35.17"/>
</a>
</g>
</g>
<!-- Node11 -->
<g id="Node000011" class="node">
<title>Node11</title>
<g id="a_Node000011"><a xlink:title=" ">
<polygon fill="#e0e0e0" stroke="#999999" points="971,-27.12 927.25,-27.12 927.25,-6.38 971,-6.38 971,-27.12"/>
<text text-anchor="middle" x="949.12" y="-13.62" font-family="Helvetica,sans-Serif" font-size="10.00">string</text>
</a>
</g>
</g>
<!-- Node2&#45;&gt;Node11 -->
<g id="edge10_Node000002_Node000011" class="edge">
<title>Node2&#45;&gt;Node11</title>
<g id="a_edge10_Node000002_Node000011"><a xlink:title=" ">
<path fill="none" stroke="#63b8ff" d="M729,-78.38C777.84,-70.65 854.59,-56.12 918.12,-33.5 919.26,-33.09 920.41,-32.66 921.56,-32.19"/>
<polygon fill="#63b8ff" stroke="#63b8ff" points="922.74,-35.51 930.39,-28.18 919.84,-29.13 922.74,-35.51"/>
</a>
</g>
</g>
<!-- Node12&#45;&gt;Node4 -->
<g id="edge13_Node000012_Node000004" class="edge">
<title>Node12&#45;&gt;Node4</title>
<g id="a_edge13_Node000012_Node000004"><a xlink:title=" ">
<path fill="none" stroke="#63b8ff" d="M1352.57,-76.47C1290.46,-67.13 1191.17,-51.27 1106.12,-33.5 1101.28,-32.49 1096.24,-31.36 1091.21,-30.18"/>
<polygon fill="#63b8ff" stroke="#63b8ff" points="1092.34,-26.85 1081.8,-27.91 1090.7,-33.66 1092.34,-26.85"/>
</a>
</g>
</g>
<!-- Node13 -->
<g id="Node000013" class="node">
<title>Node13</title>
<g id="a_Node000013"><a xlink:title=" ">
<polygon fill="#e0e0e0" stroke="#999999" points="1232.75,-27.12 1115.5,-27.12 1115.5,-6.38 1232.75,-6.38 1232.75,-27.12"/>
<text text-anchor="middle" x="1174.12" y="-13.62" font-family="Helvetica,sans-Serif" font-size="10.00">mlir/IR/Diagnostics.h</text>
</a>
</g>
</g>
<!-- Node12&#45;&gt;Node13 -->
<g id="edge12_Node000012_Node000013" class="edge">
<title>Node12&#45;&gt;Node13</title>
<g id="a_edge12_Node000012_Node000013"><a xlink:title=" ">
<path fill="none" stroke="#63b8ff" d="M1378.37,-75.43C1336.51,-63.61 1266.06,-43.72 1219.83,-30.66"/>
<polygon fill="#63b8ff" stroke="#63b8ff" points="1220.95,-27.34 1210.38,-27.99 1219.05,-34.07 1220.95,-27.34"/>
</a>
</g>
</g>
<!-- Node14 -->
<g id="Node000014" class="node">
<title>Node14</title>
<g id="a_Node000014"><a xlink:title=" ">
<polygon fill="#e0e0e0" stroke="#999999" points="1421.75,-27.12 1250.5,-27.12 1250.5,-6.38 1421.75,-6.38 1421.75,-27.12"/>
<text text-anchor="middle" x="1336.12" y="-13.62" font-family="Helvetica,sans-Serif" font-size="10.00">llvm/ADT/STLFunctionalExtras.h</text>
</a>
</g>
</g>
<!-- Node12&#45;&gt;Node14 -->
<g id="edge14_Node000012_Node000014" class="edge">
<title>Node12&#45;&gt;Node14</title>
<g id="a_edge14_Node000012_Node000014"><a xlink:title=" ">
<path fill="none" stroke="#63b8ff" d="M1402.09,-75.58C1390.04,-65.01 1370.49,-47.88 1355.8,-35"/>
<polygon fill="#63b8ff" stroke="#63b8ff" points="1358.35,-32.58 1348.53,-28.62 1353.74,-37.84 1358.35,-32.58"/>
</a>
</g>
</g>
<!-- Node15 -->
<g id="Node000015" class="node">
<title>Node15</title>
<g id="a_Node000015"><a xlink:title=" ">
<polygon fill="#e0e0e0" stroke="#999999" points="1540.5,-27.12 1439.75,-27.12 1439.75,-6.38 1540.5,-6.38 1540.5,-27.12"/>
<text text-anchor="middle" x="1490.12" y="-13.62" font-family="Helvetica,sans-Serif" font-size="10.00">llvm/ADT/Twine.h</text>
</a>
</g>
</g>
<!-- Node12&#45;&gt;Node15 -->
<g id="edge15_Node000012_Node000015" class="edge">
<title>Node12&#45;&gt;Node15</title>
<g id="a_edge15_Node000012_Node000015"><a xlink:title=" ">
<path fill="none" stroke="#63b8ff" d="M1424.16,-75.58C1436.21,-65.01 1455.76,-47.88 1470.45,-35"/>
<polygon fill="#63b8ff" stroke="#63b8ff" points="1472.51,-37.84 1477.72,-28.62 1467.9,-32.58 1472.51,-37.84"/>
</a>
</g>
</g>
<!-- Node16 -->
<g id="Node000016" class="node">
<title>Node16</title>
<g id="a_Node000016"><a xlink:title=" ">
<polygon fill="#e0e0e0" stroke="#999999" points="1715.62,-27.12 1558.62,-27.12 1558.62,-6.38 1715.62,-6.38 1715.62,-27.12"/>
<text text-anchor="middle" x="1637.12" y="-13.62" font-family="Helvetica,sans-Serif" font-size="10.00">llvm/Support/ErrorHandling.h</text>
</a>
</g>
</g>
<!-- Node12&#45;&gt;Node16 -->
<g id="edge16_Node000012_Node000016" class="edge">
<title>Node12&#45;&gt;Node16</title>
<g id="a_edge16_Node000012_Node000016"><a xlink:title=" ">
<path fill="none" stroke="#63b8ff" d="M1445.7,-75.43C1484.76,-63.66 1550.4,-43.88 1593.74,-30.82"/>
<polygon fill="#63b8ff" stroke="#63b8ff" points="1594.5,-34.25 1603.06,-28.01 1592.48,-27.55 1594.5,-34.25"/>
</a>
</g>
</g>
<!-- Node12&#45;&gt;Node17 -->
<g id="edge17_Node000012_Node000017" class="edge">
<title>Node12&#45;&gt;Node17</title>
<g id="a_edge17_Node000012_Node000017"><a xlink:title=" ">
<path fill="none" stroke="#63b8ff" d="M1457.26,-75.41C1467.07,-73.34 1477.43,-71.26 1487.12,-69.5 1592.38,-50.36 1622.67,-64.29 1725.12,-33.5 1726.72,-33.02 1728.34,-32.48 1729.96,-31.89"/>
<polygon fill="#63b8ff" stroke="#63b8ff" points="1731.13,-35.19 1739.04,-28.14 1728.46,-28.72 1731.13,-35.19"/>
</a>
</g>
</g>
</g>
</svg>
