<?xml version="1.0" encoding="UTF-8" standalone="no"?>
<!DOCTYPE svg PUBLIC "-//W3C//DTD SVG 1.1//EN"
 "http://www.w3.org/Graphics/SVG/1.1/DTD/svg11.dtd">
<!-- Generated by graphviz version 12.2.1 (0)
 -->
<!-- Title: lib/Analysis/AnalysisUtil.cpp Pages: 1 -->
<svg width="642pt" height="155pt"
 viewBox="0.00 0.00 641.62 155.00" xmlns="http://www.w3.org/2000/svg" xmlns:xlink="http://www.w3.org/1999/xlink">
<g id="graph0" class="graph" transform="scale(1 1) rotate(0) translate(4 151)">
<title>lib/Analysis/AnalysisUtil.cpp</title>
<!-- Node1 -->
<g id="Node000001" class="node">
<title>Node1</title>
<g id="a_Node000001"><a xlink:title=" ">
<polygon fill="#999999" stroke="#666666" points="435.5,-147 281.5,-147 281.5,-126.25 435.5,-126.25 435.5,-147"/>
<text text-anchor="middle" x="358.5" y="-133.5" font-family="Helvetica,sans-Serif" font-size="10.00">lib/Analysis/AnalysisUtil.cpp</text>
</a>
</g>
</g>
<!-- Node2 -->
<g id="Node000002" class="node">
<title>Node2</title>
<g id="a_Node000002"><a xlink:href="AnalysisUtil_8h.html" target="_top" xlink:title=" ">
<polygon fill="white" stroke="#666666" points="170.5,-83.88 22.5,-83.88 22.5,-63.12 170.5,-63.12 170.5,-83.88"/>
<text text-anchor="middle" x="96.5" y="-70.38" font-family="Helvetica,sans-Serif" font-size="10.00">llzk/Analysis/AnalysisUtil.h</text>
</a>
</g>
</g>
<!-- Node1&#45;&gt;Node2 -->
<g id="edge1_Node000001_Node000002" class="edge">
<title>Node1&#45;&gt;Node2</title>
<g id="a_edge1_Node000001_Node000002"><a xlink:title=" ">
<path fill="none" stroke="#63b8ff" d="M316.41,-125.8C271.05,-115.22 198.76,-98.36 149.55,-86.88"/>
<polygon fill="#63b8ff" stroke="#63b8ff" points="150.5,-83.5 139.96,-84.64 148.91,-90.32 150.5,-83.5"/>
</a>
</g>
</g>
<!-- Node4 -->
<g id="Node000004" class="node">
<title>Node4</title>
<g id="a_Node000004"><a xlink:title=" ">
<polygon fill="#e0e0e0" stroke="#999999" points="360.12,-90.25 188.88,-90.25 188.88,-56.75 360.12,-56.75 360.12,-90.25"/>
<text text-anchor="start" x="196.88" y="-76.75" font-family="Helvetica,sans-Serif" font-size="10.00">mlir/Analysis/DataFlow</text>
<text text-anchor="middle" x="274.5" y="-64" font-family="Helvetica,sans-Serif" font-size="10.00">/ConstantPropagationAnalysis.h</text>
</a>
</g>
</g>
<!-- Node1&#45;&gt;Node4 -->
<g id="edge3_Node000001_Node000004" class="edge">
<title>Node1&#45;&gt;Node4</title>
<g id="a_edge3_Node000001_Node000004"><a xlink:title=" ">
<path fill="none" stroke="#63b8ff" d="M345,-125.8C334.45,-118.13 319.36,-107.14 305.84,-97.31"/>
<polygon fill="#63b8ff" stroke="#63b8ff" points="308.18,-94.68 298.03,-91.63 304.06,-100.34 308.18,-94.68"/>
</a>
</g>
</g>
<!-- Node5 -->
<g id="Node000005" class="node">
<title>Node5</title>
<g id="a_Node000005"><a xlink:title=" ">
<polygon fill="#e0e0e0" stroke="#999999" points="507.12,-90.25 377.88,-90.25 377.88,-56.75 507.12,-56.75 507.12,-90.25"/>
<text text-anchor="start" x="385.88" y="-76.75" font-family="Helvetica,sans-Serif" font-size="10.00">mlir/Analysis/DataFlow</text>
<text text-anchor="middle" x="442.5" y="-64" font-family="Helvetica,sans-Serif" font-size="10.00">/DeadCodeAnalysis.h</text>
</a>
</g>
</g>
<!-- Node1&#45;&gt;Node5 -->
<g id="edge4_Node000001_Node000005" class="edge">
<title>Node1&#45;&gt;Node5</title>
<g id="a_edge4_Node000001_Node000005"><a xlink:title=" ">
<path fill="none" stroke="#63b8ff" d="M372,-125.8C382.55,-118.13 397.64,-107.14 411.16,-97.31"/>
<polygon fill="#63b8ff" stroke="#63b8ff" points="412.94,-100.34 418.97,-91.63 408.82,-94.68 412.94,-100.34"/>
</a>
</g>
</g>
<!-- Node6 -->
<g id="Node000006" class="node">
<title>Node6</title>
<g id="a_Node000006"><a xlink:title=" ">
<polygon fill="#e0e0e0" stroke="#999999" points="633.62,-83.88 525.38,-83.88 525.38,-63.12 633.62,-63.12 633.62,-83.88"/>
<text text-anchor="middle" x="579.5" y="-70.38" font-family="Helvetica,sans-Serif" font-size="10.00">mlir/IR/Operation.h</text>
</a>
</g>
</g>
<!-- Node1&#45;&gt;Node6 -->
<g id="edge5_Node000001_Node000006" class="edge">
<title>Node1&#45;&gt;Node6</title>
<g id="a_edge5_Node000001_Node000006"><a xlink:title=" ">
<path fill="none" stroke="#63b8ff" d="M394.01,-125.8C431.78,-115.36 491.7,-98.78 533.17,-87.31"/>
<polygon fill="#63b8ff" stroke="#63b8ff" points="533.92,-90.74 542.62,-84.7 532.05,-83.99 533.92,-90.74"/>
</a>
</g>
</g>
<!-- Node3 -->
<g id="Node000003" class="node">
<title>Node3</title>
<g id="a_Node000003"><a xlink:title=" ">
<polygon fill="#e0e0e0" stroke="#999999" points="193,-20.75 0,-20.75 0,0 193,0 193,-20.75"/>
<text text-anchor="middle" x="96.5" y="-7.25" font-family="Helvetica,sans-Serif" font-size="10.00">mlir/Analysis/DataFlowFramework.h</text>
</a>
</g>
</g>
<!-- Node2&#45;&gt;Node3 -->
<g id="edge2_Node000002_Node000003" class="edge">
<title>Node2&#45;&gt;Node3</title>
<g id="a_edge2_Node000002_Node000003"><a xlink:title=" ">
<path fill="none" stroke="#63b8ff" d="M96.5,-62.68C96.5,-54.52 96.5,-42.63 96.5,-32.35"/>
<polygon fill="#63b8ff" stroke="#63b8ff" points="100,-32.48 96.5,-22.48 93,-32.48 100,-32.48"/>
</a>
</g>
</g>
</g>
</svg>
