<?xml version="1.0" encoding="UTF-8" standalone="no"?>
<!DOCTYPE svg PUBLIC "-//W3C//DTD SVG 1.1//EN"
 "http://www.w3.org/Graphics/SVG/1.1/DTD/svg11.dtd">
<!-- Generated by graphviz version 12.2.1 (0)
 -->
<!-- Title: include/llzk/Dialect/Array/Util/ArrayTypeHelper.h Pages: 1 -->
<svg width="2417pt" height="250pt"
 viewBox="0.00 0.00 2417.12 250.00" xmlns="http://www.w3.org/2000/svg" xmlns:xlink="http://www.w3.org/1999/xlink">
<g id="graph0" class="graph" transform="scale(1 1) rotate(0) translate(4 246)">
<title>include/llzk/Dialect/Array/Util/ArrayTypeHelper.h</title>
<!-- Node1 -->
<g id="Node000001" class="node">
<title>Node1</title>
<g id="a_Node000001"><a xlink:title=" ">
<polygon fill="#999999" stroke="#666666" points="1876.12,-242 1718.38,-242 1718.38,-208.5 1876.12,-208.5 1876.12,-242"/>
<text text-anchor="start" x="1726.38" y="-228.5" font-family="Helvetica,sans-Serif" font-size="10.00">include/llzk/Dialect</text>
<text text-anchor="middle" x="1797.25" y="-215.75" font-family="Helvetica,sans-Serif" font-size="10.00">/Array/Util/ArrayTypeHelper.h</text>
</a>
</g>
</g>
<!-- Node2 -->
<g id="Node000002" class="node">
<title>Node2</title>
<g id="a_Node000002"><a xlink:href="Array_2IR_2Types_8h.html" target="_top" xlink:title=" ">
<polygon fill="white" stroke="#666666" points="825.25,-172.5 725.25,-172.5 725.25,-139 825.25,-139 825.25,-172.5"/>
<text text-anchor="start" x="733.25" y="-159" font-family="Helvetica,sans-Serif" font-size="10.00">llzk/Dialect/Array</text>
<text text-anchor="middle" x="775.25" y="-146.25" font-family="Helvetica,sans-Serif" font-size="10.00">/IR/Types.h</text>
</a>
</g>
</g>
<!-- Node1&#45;&gt;Node2 -->
<g id="edge1_Node000001_Node000002" class="edge">
<title>Node1&#45;&gt;Node2</title>
<g id="a_edge1_Node000001_Node000002"><a xlink:title=" ">
<path fill="none" stroke="#63b8ff" d="M1717.91,-219.01C1521.13,-206.01 1013.82,-172.51 837.08,-160.83"/>
<polygon fill="#63b8ff" stroke="#63b8ff" points="837.39,-157.35 827.18,-160.18 836.93,-164.33 837.39,-157.35"/>
</a>
</g>
</g>
<!-- Node15 -->
<g id="Node000015" class="node">
<title>Node15</title>
<g id="a_Node000015"><a xlink:href="AttributeHelper_8h.html" target="_top" xlink:title=" ">
<polygon fill="white" stroke="#666666" points="1411.5,-172.5 1301,-172.5 1301,-139 1411.5,-139 1411.5,-172.5"/>
<text text-anchor="start" x="1309" y="-159" font-family="Helvetica,sans-Serif" font-size="10.00">llzk/Dialect/LLZK/IR</text>
<text text-anchor="middle" x="1356.25" y="-146.25" font-family="Helvetica,sans-Serif" font-size="10.00">/AttributeHelper.h</text>
</a>
</g>
</g>
<!-- Node1&#45;&gt;Node15 -->
<g id="edge14_Node000001_Node000015" class="edge">
<title>Node1&#45;&gt;Node15</title>
<g id="a_edge14_Node000001_Node000015"><a xlink:title=" ">
<path fill="none" stroke="#63b8ff" d="M1718.15,-215.84C1644.14,-207.41 1530.32,-193.03 1422.74,-172.86"/>
<polygon fill="#63b8ff" stroke="#63b8ff" points="1423.64,-169.47 1413.16,-171.05 1422.33,-176.35 1423.64,-169.47"/>
</a>
</g>
</g>
<!-- Node22 -->
<g id="Node000022" class="node">
<title>Node22</title>
<g id="a_Node000022"><a xlink:title=" ">
<polygon fill="#e0e0e0" stroke="#999999" points="1537.38,-166.12 1429.12,-166.12 1429.12,-145.38 1537.38,-145.38 1537.38,-166.12"/>
<text text-anchor="middle" x="1483.25" y="-152.62" font-family="Helvetica,sans-Serif" font-size="10.00">mlir/IR/Attributes.h</text>
</a>
</g>
</g>
<!-- Node1&#45;&gt;Node22 -->
<g id="edge21_Node000001_Node000022" class="edge">
<title>Node1&#45;&gt;Node22</title>
<g id="a_edge21_Node000001_Node000022"><a xlink:title=" ">
<path fill="none" stroke="#63b8ff" d="M1717.93,-208.78C1668.46,-198.91 1603.51,-185.55 1546.25,-172.5 1541.74,-171.47 1537.05,-170.37 1532.36,-169.24"/>
<polygon fill="#63b8ff" stroke="#63b8ff" points="1533.52,-165.92 1522.97,-166.94 1531.86,-172.72 1533.52,-165.92"/>
</a>
</g>
</g>
<!-- Node23 -->
<g id="Node000023" class="node">
<title>Node23</title>
<g id="a_Node000023"><a xlink:title=" ">
<polygon fill="#e0e0e0" stroke="#999999" points="1655.25,-166.12 1555.25,-166.12 1555.25,-145.38 1655.25,-145.38 1655.25,-166.12"/>
<text text-anchor="middle" x="1605.25" y="-152.62" font-family="Helvetica,sans-Serif" font-size="10.00">mlir/IR/Builders.h</text>
</a>
</g>
</g>
<!-- Node1&#45;&gt;Node23 -->
<g id="edge22_Node000001_Node000023" class="edge">
<title>Node1&#45;&gt;Node23</title>
<g id="a_edge22_Node000001_Node000023"><a xlink:title=" ">
<path fill="none" stroke="#63b8ff" d="M1751.26,-208.08C1718.56,-196.58 1675.11,-181.31 1644.13,-170.42"/>
<polygon fill="#63b8ff" stroke="#63b8ff" points="1645.35,-167.14 1634.75,-167.12 1643.02,-173.74 1645.35,-167.14"/>
</a>
</g>
</g>
<!-- Node24 -->
<g id="Node000024" class="node">
<title>Node24</title>
<g id="a_Node000024"><a xlink:title=" ">
<polygon fill="#e0e0e0" stroke="#999999" points="1793,-166.12 1673.5,-166.12 1673.5,-145.38 1793,-145.38 1793,-166.12"/>
<text text-anchor="middle" x="1733.25" y="-152.62" font-family="Helvetica,sans-Serif" font-size="10.00">mlir/IR/BuiltinTypes.h</text>
</a>
</g>
</g>
<!-- Node1&#45;&gt;Node24 -->
<g id="edge23_Node000001_Node000024" class="edge">
<title>Node1&#45;&gt;Node24</title>
<g id="a_edge23_Node000001_Node000024"><a xlink:title=" ">
<path fill="none" stroke="#63b8ff" d="M1782.08,-208.25C1772.59,-198.24 1760.34,-185.32 1750.48,-174.92"/>
<polygon fill="#63b8ff" stroke="#63b8ff" points="1753.02,-172.52 1743.6,-167.67 1747.94,-177.34 1753.02,-172.52"/>
</a>
</g>
</g>
<!-- Node25 -->
<g id="Node000025" class="node">
<title>Node25</title>
<g id="a_Node000025"><a xlink:title=" ">
<polygon fill="#e0e0e0" stroke="#999999" points="1913,-166.12 1811.5,-166.12 1811.5,-145.38 1913,-145.38 1913,-166.12"/>
<text text-anchor="middle" x="1862.25" y="-152.62" font-family="Helvetica,sans-Serif" font-size="10.00">mlir/IR/Location.h</text>
</a>
</g>
</g>
<!-- Node1&#45;&gt;Node25 -->
<g id="edge24_Node000001_Node000025" class="edge">
<title>Node1&#45;&gt;Node25</title>
<g id="a_edge24_Node000001_Node000025"><a xlink:title=" ">
<path fill="none" stroke="#63b8ff" d="M1812.65,-208.25C1822.39,-198.14 1834.99,-185.06 1845.05,-174.61"/>
<polygon fill="#63b8ff" stroke="#63b8ff" points="1847.33,-177.29 1851.74,-167.66 1842.28,-172.44 1847.33,-177.29"/>
</a>
</g>
</g>
<!-- Node26 -->
<g id="Node000026" class="node">
<title>Node26</title>
<g id="a_Node000026"><a xlink:title=" ">
<polygon fill="#e0e0e0" stroke="#999999" points="2053.5,-166.12 1931,-166.12 1931,-145.38 2053.5,-145.38 2053.5,-166.12"/>
<text text-anchor="middle" x="1992.25" y="-152.62" font-family="Helvetica,sans-Serif" font-size="10.00">mlir/IR/MLIRContext.h</text>
</a>
</g>
</g>
<!-- Node1&#45;&gt;Node26 -->
<g id="edge25_Node000001_Node000026" class="edge">
<title>Node1&#45;&gt;Node26</title>
<g id="a_edge25_Node000001_Node000026"><a xlink:title=" ">
<path fill="none" stroke="#63b8ff" d="M1843.96,-208.08C1877.32,-196.53 1921.69,-181.18 1953.18,-170.28"/>
<polygon fill="#63b8ff" stroke="#63b8ff" points="1954,-173.69 1962.31,-167.11 1951.71,-167.08 1954,-173.69"/>
</a>
</g>
</g>
<!-- Node27 -->
<g id="Node000027" class="node">
<title>Node27</title>
<g id="a_Node000027"><a xlink:title=" ">
<polygon fill="#e0e0e0" stroke="#999999" points="2186.75,-166.12 2071.75,-166.12 2071.75,-145.38 2186.75,-145.38 2186.75,-166.12"/>
<text text-anchor="middle" x="2129.25" y="-152.62" font-family="Helvetica,sans-Serif" font-size="10.00">llvm/ADT/ArrayRef.h</text>
</a>
</g>
</g>
<!-- Node1&#45;&gt;Node27 -->
<g id="edge26_Node000001_Node000027" class="edge">
<title>Node1&#45;&gt;Node27</title>
<g id="a_edge26_Node000001_Node000027"><a xlink:title=" ">
<path fill="none" stroke="#63b8ff" d="M1876.55,-209.58C1929.29,-199.62 2000.04,-185.88 2062.25,-172.5 2067.18,-171.44 2072.31,-170.3 2077.43,-169.14"/>
<polygon fill="#63b8ff" stroke="#63b8ff" points="2078.12,-172.57 2087.09,-166.92 2076.55,-165.75 2078.12,-172.57"/>
</a>
</g>
</g>
<!-- Node28 -->
<g id="Node000028" class="node">
<title>Node28</title>
<g id="a_Node000028"><a xlink:title=" ">
<polygon fill="#e0e0e0" stroke="#999999" points="2335.62,-166.12 2204.88,-166.12 2204.88,-145.38 2335.62,-145.38 2335.62,-166.12"/>
<text text-anchor="middle" x="2270.25" y="-152.62" font-family="Helvetica,sans-Serif" font-size="10.00">llvm/ADT/SmallVector.h</text>
</a>
</g>
</g>
<!-- Node1&#45;&gt;Node28 -->
<g id="edge27_Node000001_Node000028" class="edge">
<title>Node1&#45;&gt;Node28</title>
<g id="a_edge27_Node000001_Node000028"><a xlink:title=" ">
<path fill="none" stroke="#63b8ff" d="M1876.27,-215.91C1956.97,-206.94 2085.74,-191.39 2196.25,-172.5 2202.64,-171.41 2209.31,-170.15 2215.92,-168.84"/>
<polygon fill="#63b8ff" stroke="#63b8ff" points="2216.35,-172.32 2225.45,-166.89 2214.95,-165.46 2216.35,-172.32"/>
</a>
</g>
</g>
<!-- Node29 -->
<g id="Node000029" class="node">
<title>Node29</title>
<g id="a_Node000029"><a xlink:title=" ">
<polygon fill="#e0e0e0" stroke="#999999" points="2409.12,-166.12 2353.38,-166.12 2353.38,-145.38 2409.12,-145.38 2409.12,-166.12"/>
<text text-anchor="middle" x="2381.25" y="-152.62" font-family="Helvetica,sans-Serif" font-size="10.00">optional</text>
</a>
</g>
</g>
<!-- Node1&#45;&gt;Node29 -->
<g id="edge28_Node000001_Node000029" class="edge">
<title>Node1&#45;&gt;Node29</title>
<g id="a_edge28_Node000001_Node000029"><a xlink:title=" ">
<path fill="none" stroke="#63b8ff" d="M1876.44,-224.34C1984,-222.76 2181.52,-213.77 2344.25,-172.5 2346.38,-171.96 2348.55,-171.31 2350.71,-170.6"/>
<polygon fill="#63b8ff" stroke="#63b8ff" points="2351.77,-173.94 2359.87,-167.11 2349.28,-167.4 2351.77,-173.94"/>
</a>
</g>
</g>
<!-- Node3 -->
<g id="Node000003" class="node">
<title>Node3</title>
<g id="a_Node000003"><a xlink:href="Array_2IR_2Dialect_8h.html" target="_top" xlink:title=" ">
<polygon fill="white" stroke="#666666" points="228.25,-103 128.25,-103 128.25,-69.5 228.25,-69.5 228.25,-103"/>
<text text-anchor="start" x="136.25" y="-89.5" font-family="Helvetica,sans-Serif" font-size="10.00">llzk/Dialect/Array</text>
<text text-anchor="middle" x="178.25" y="-76.75" font-family="Helvetica,sans-Serif" font-size="10.00">/IR/Dialect.h</text>
</a>
</g>
</g>
<!-- Node2&#45;&gt;Node3 -->
<g id="edge2_Node000002_Node000003" class="edge">
<title>Node2&#45;&gt;Node3</title>
<g id="a_edge2_Node000002_Node000003"><a xlink:title=" ">
<path fill="none" stroke="#63b8ff" d="M724.86,-149.05C615.91,-136.73 358.66,-107.65 240.09,-94.24"/>
<polygon fill="#63b8ff" stroke="#63b8ff" points="240.54,-90.77 230.22,-93.13 239.76,-97.73 240.54,-90.77"/>
</a>
</g>
</g>
<!-- Node6 -->
<g id="Node000006" class="node">
<title>Node6</title>
<g id="a_Node000006"><a xlink:href="ErrorHelper_8h.html" target="_top" xlink:title=" ">
<polygon fill="white" stroke="#666666" points="682.38,-96.62 562.12,-96.62 562.12,-75.88 682.38,-75.88 682.38,-96.62"/>
<text text-anchor="middle" x="622.25" y="-83.12" font-family="Helvetica,sans-Serif" font-size="10.00">llzk/Util/ErrorHelper.h</text>
</a>
</g>
</g>
<!-- Node2&#45;&gt;Node6 -->
<g id="edge5_Node000002_Node000006" class="edge">
<title>Node2&#45;&gt;Node6</title>
<g id="a_edge5_Node000002_Node000006"><a xlink:title=" ">
<path fill="none" stroke="#63b8ff" d="M738.6,-138.58C713.04,-127.3 679.23,-112.39 654.65,-101.54"/>
<polygon fill="#63b8ff" stroke="#63b8ff" points="656.34,-98.47 645.78,-97.63 653.52,-104.87 656.34,-98.47"/>
</a>
</g>
</g>
<!-- Node13 -->
<g id="Node000013" class="node">
<title>Node13</title>
<g id="a_Node000013"><a xlink:title=" ">
<polygon fill="#e0e0e0" stroke="#999999" points="850,-103 700.5,-103 700.5,-69.5 850,-69.5 850,-103"/>
<text text-anchor="start" x="708.5" y="-89.5" font-family="Helvetica,sans-Serif" font-size="10.00">mlir/Interfaces/MemorySlot</text>
<text text-anchor="middle" x="775.25" y="-76.75" font-family="Helvetica,sans-Serif" font-size="10.00">Interfaces.h</text>
</a>
</g>
</g>
<!-- Node2&#45;&gt;Node13 -->
<g id="edge12_Node000002_Node000013" class="edge">
<title>Node2&#45;&gt;Node13</title>
<g id="a_edge12_Node000002_Node000013"><a xlink:title=" ">
<path fill="none" stroke="#63b8ff" d="M775.25,-138.75C775.25,-131.52 775.25,-122.78 775.25,-114.56"/>
<polygon fill="#63b8ff" stroke="#63b8ff" points="778.75,-114.65 775.25,-104.65 771.75,-114.65 778.75,-114.65"/>
</a>
</g>
</g>
<!-- Node14 -->
<g id="Node000014" class="node">
<title>Node14</title>
<g id="a_Node000014"><a xlink:href="Array_2IR_2Types_8h_8inc.html" target="_top" xlink:title=" ">
<polygon fill="white" stroke="#666666" points="968.25,-103 868.25,-103 868.25,-69.5 968.25,-69.5 968.25,-103"/>
<text text-anchor="start" x="876.25" y="-89.5" font-family="Helvetica,sans-Serif" font-size="10.00">llzk/Dialect/Array</text>
<text text-anchor="middle" x="918.25" y="-76.75" font-family="Helvetica,sans-Serif" font-size="10.00">/IR/Types.h.inc</text>
</a>
</g>
</g>
<!-- Node2&#45;&gt;Node14 -->
<g id="edge13_Node000002_Node000014" class="edge">
<title>Node2&#45;&gt;Node14</title>
<g id="a_edge13_Node000002_Node000014"><a xlink:title=" ">
<path fill="none" stroke="#63b8ff" d="M809.5,-138.58C828.87,-129.44 853.3,-117.91 874.09,-108.09"/>
<polygon fill="#63b8ff" stroke="#63b8ff" points="875.36,-111.37 882.91,-103.93 872.37,-105.04 875.36,-111.37"/>
</a>
</g>
</g>
<!-- Node4 -->
<g id="Node000004" class="node">
<title>Node4</title>
<g id="a_Node000004"><a xlink:title=" ">
<polygon fill="#e0e0e0" stroke="#999999" points="110.5,-27.12 0,-27.12 0,-6.38 110.5,-6.38 110.5,-27.12"/>
<text text-anchor="middle" x="55.25" y="-13.62" font-family="Helvetica,sans-Serif" font-size="10.00">mlir/IR/BuiltinOps.h</text>
</a>
</g>
</g>
<!-- Node3&#45;&gt;Node4 -->
<g id="edge3_Node000003_Node000004" class="edge">
<title>Node3&#45;&gt;Node4</title>
<g id="a_edge3_Node000003_Node000004"><a xlink:title=" ">
<path fill="none" stroke="#63b8ff" d="M148.79,-69.08C128.79,-58.11 102.51,-43.69 82.91,-32.93"/>
<polygon fill="#63b8ff" stroke="#63b8ff" points="84.83,-29.99 74.38,-28.25 81.46,-36.13 84.83,-29.99"/>
</a>
</g>
</g>
<!-- Node5 -->
<g id="Node000005" class="node">
<title>Node5</title>
<g id="a_Node000005"><a xlink:href="Array_2IR_2Dialect_8h_8inc.html" target="_top" xlink:title=" ">
<polygon fill="white" stroke="#666666" points="228.25,-33.5 128.25,-33.5 128.25,0 228.25,0 228.25,-33.5"/>
<text text-anchor="start" x="136.25" y="-20" font-family="Helvetica,sans-Serif" font-size="10.00">llzk/Dialect/Array</text>
<text text-anchor="middle" x="178.25" y="-7.25" font-family="Helvetica,sans-Serif" font-size="10.00">/IR/Dialect.h.inc</text>
</a>
</g>
</g>
<!-- Node3&#45;&gt;Node5 -->
<g id="edge4_Node000003_Node000005" class="edge">
<title>Node3&#45;&gt;Node5</title>
<g id="a_edge4_Node000003_Node000005"><a xlink:title=" ">
<path fill="none" stroke="#63b8ff" d="M178.25,-69.25C178.25,-62.02 178.25,-53.28 178.25,-45.06"/>
<polygon fill="#63b8ff" stroke="#63b8ff" points="181.75,-45.15 178.25,-35.15 174.75,-45.15 181.75,-45.15"/>
</a>
</g>
</g>
<!-- Node7 -->
<g id="Node000007" class="node">
<title>Node7</title>
<g id="a_Node000007"><a xlink:title=" ">
<polygon fill="#e0e0e0" stroke="#999999" points="363.88,-27.12 246.62,-27.12 246.62,-6.38 363.88,-6.38 363.88,-27.12"/>
<text text-anchor="middle" x="305.25" y="-13.62" font-family="Helvetica,sans-Serif" font-size="10.00">mlir/IR/Diagnostics.h</text>
</a>
</g>
</g>
<!-- Node6&#45;&gt;Node7 -->
<g id="edge6_Node000006_Node000007" class="edge">
<title>Node6&#45;&gt;Node7</title>
<g id="a_edge6_Node000006_Node000007"><a xlink:title=" ">
<path fill="none" stroke="#63b8ff" d="M573.51,-75.46C523.27,-65.29 442.68,-48.75 373.25,-33.5 368.32,-32.42 363.2,-31.27 358.08,-30.11"/>
<polygon fill="#63b8ff" stroke="#63b8ff" points="358.94,-26.72 348.41,-27.9 357.38,-33.54 358.94,-26.72"/>
</a>
</g>
</g>
<!-- Node8 -->
<g id="Node000008" class="node">
<title>Node8</title>
<g id="a_Node000008"><a xlink:title=" ">
<polygon fill="#e0e0e0" stroke="#999999" points="490.38,-27.12 382.12,-27.12 382.12,-6.38 490.38,-6.38 490.38,-27.12"/>
<text text-anchor="middle" x="436.25" y="-13.62" font-family="Helvetica,sans-Serif" font-size="10.00">mlir/IR/Operation.h</text>
</a>
</g>
</g>
<!-- Node6&#45;&gt;Node8 -->
<g id="edge7_Node000006_Node000008" class="edge">
<title>Node6&#45;&gt;Node8</title>
<g id="a_edge7_Node000006_Node000008"><a xlink:title=" ">
<path fill="none" stroke="#63b8ff" d="M595.2,-75.43C563.25,-63.84 509.88,-44.47 473.9,-31.41"/>
<polygon fill="#63b8ff" stroke="#63b8ff" points="475.35,-28.21 464.75,-28.09 472.96,-34.79 475.35,-28.21"/>
</a>
</g>
</g>
<!-- Node9 -->
<g id="Node000009" class="node">
<title>Node9</title>
<g id="a_Node000009"><a xlink:title=" ">
<polygon fill="#e0e0e0" stroke="#999999" points="679.88,-27.12 508.62,-27.12 508.62,-6.38 679.88,-6.38 679.88,-27.12"/>
<text text-anchor="middle" x="594.25" y="-13.62" font-family="Helvetica,sans-Serif" font-size="10.00">llvm/ADT/STLFunctionalExtras.h</text>
</a>
</g>
</g>
<!-- Node6&#45;&gt;Node9 -->
<g id="edge8_Node000006_Node000009" class="edge">
<title>Node6&#45;&gt;Node9</title>
<g id="a_edge8_Node000006_Node000009"><a xlink:title=" ">
<path fill="none" stroke="#63b8ff" d="M618.24,-75.58C614.16,-65.75 607.73,-50.25 602.55,-37.77"/>
<polygon fill="#63b8ff" stroke="#63b8ff" points="605.9,-36.7 598.83,-28.8 599.43,-39.38 605.9,-36.7"/>
</a>
</g>
</g>
<!-- Node10 -->
<g id="Node000010" class="node">
<title>Node10</title>
<g id="a_Node000010"><a xlink:title=" ">
<polygon fill="#e0e0e0" stroke="#999999" points="798.62,-27.12 697.88,-27.12 697.88,-6.38 798.62,-6.38 798.62,-27.12"/>
<text text-anchor="middle" x="748.25" y="-13.62" font-family="Helvetica,sans-Serif" font-size="10.00">llvm/ADT/Twine.h</text>
</a>
</g>
</g>
<!-- Node6&#45;&gt;Node10 -->
<g id="edge9_Node000006_Node000010" class="edge">
<title>Node6&#45;&gt;Node10</title>
<g id="a_edge9_Node000006_Node000010"><a xlink:title=" ">
<path fill="none" stroke="#63b8ff" d="M640.57,-75.43C661.38,-64.29 695.59,-45.96 719.86,-32.96"/>
<polygon fill="#63b8ff" stroke="#63b8ff" points="721.41,-36.1 728.57,-28.29 718.1,-29.93 721.41,-36.1"/>
</a>
</g>
</g>
<!-- Node11 -->
<g id="Node000011" class="node">
<title>Node11</title>
<g id="a_Node000011"><a xlink:title=" ">
<polygon fill="#e0e0e0" stroke="#999999" points="973.75,-27.12 816.75,-27.12 816.75,-6.38 973.75,-6.38 973.75,-27.12"/>
<text text-anchor="middle" x="895.25" y="-13.62" font-family="Helvetica,sans-Serif" font-size="10.00">llvm/Support/ErrorHandling.h</text>
</a>
</g>
</g>
<!-- Node6&#45;&gt;Node11 -->
<g id="edge10_Node000006_Node000011" class="edge">
<title>Node6&#45;&gt;Node11</title>
<g id="a_edge10_Node000006_Node000011"><a xlink:title=" ">
<path fill="none" stroke="#63b8ff" d="M661.95,-75.43C710.17,-63.51 791.59,-43.38 844.37,-30.33"/>
<polygon fill="#63b8ff" stroke="#63b8ff" points="845.17,-33.74 854.04,-27.94 843.49,-26.94 845.17,-33.74"/>
</a>
</g>
</g>
<!-- Node12 -->
<g id="Node000012" class="node">
<title>Node12</title>
<g id="a_Node000012"><a xlink:title=" ">
<polygon fill="#e0e0e0" stroke="#999999" points="1042.5,-27.12 992,-27.12 992,-6.38 1042.5,-6.38 1042.5,-27.12"/>
<text text-anchor="middle" x="1017.25" y="-13.62" font-family="Helvetica,sans-Serif" font-size="10.00">variant</text>
</a>
</g>
</g>
<!-- Node6&#45;&gt;Node12 -->
<g id="edge11_Node000006_Node000012" class="edge">
<title>Node6&#45;&gt;Node12</title>
<g id="a_edge11_Node000006_Node000012"><a xlink:title=" ">
<path fill="none" stroke="#63b8ff" d="M662.24,-75.4C671.72,-73.26 681.81,-71.15 691.25,-69.5 820.05,-46.92 857.52,-69.41 983.25,-33.5 985.06,-32.98 986.89,-32.38 988.72,-31.73"/>
<polygon fill="#63b8ff" stroke="#63b8ff" points="989.64,-35.13 997.55,-28.07 986.97,-28.66 989.64,-35.13"/>
</a>
</g>
</g>
<!-- Node16 -->
<g id="Node000016" class="node">
<title>Node16</title>
<g id="a_Node000016"><a xlink:href="StreamHelper_8h.html" target="_top" xlink:title=" ">
<polygon fill="white" stroke="#666666" points="1174.38,-96.62 1042.12,-96.62 1042.12,-75.88 1174.38,-75.88 1174.38,-96.62"/>
<text text-anchor="middle" x="1108.25" y="-83.12" font-family="Helvetica,sans-Serif" font-size="10.00">llzk/Util/StreamHelper.h</text>
</a>
</g>
</g>
<!-- Node15&#45;&gt;Node16 -->
<g id="edge15_Node000015_Node000016" class="edge">
<title>Node15&#45;&gt;Node16</title>
<g id="a_edge15_Node000015_Node000016"><a xlink:title=" ">
<path fill="none" stroke="#63b8ff" d="M1300.59,-139.6C1256.77,-127.67 1196.38,-111.24 1155.03,-99.98"/>
<polygon fill="#63b8ff" stroke="#63b8ff" points="1156.19,-96.67 1145.63,-97.42 1154.36,-103.43 1156.19,-96.67"/>
</a>
</g>
</g>
<!-- Node18 -->
<g id="Node000018" class="node">
<title>Node18</title>
<g id="a_Node000018"><a xlink:title=" ">
<polygon fill="#e0e0e0" stroke="#999999" points="1365.62,-96.62 1192.88,-96.62 1192.88,-75.88 1365.62,-75.88 1365.62,-96.62"/>
<text text-anchor="middle" x="1279.25" y="-83.12" font-family="Helvetica,sans-Serif" font-size="10.00">mlir/IR/DialectImplementation.h</text>
</a>
</g>
</g>
<!-- Node15&#45;&gt;Node18 -->
<g id="edge17_Node000015_Node000018" class="edge">
<title>Node15&#45;&gt;Node18</title>
<g id="a_edge17_Node000015_Node000018"><a xlink:title=" ">
<path fill="none" stroke="#63b8ff" d="M1338,-138.75C1326.24,-128.44 1310.94,-115.03 1298.91,-104.48"/>
<polygon fill="#63b8ff" stroke="#63b8ff" points="1301.42,-102.03 1291.59,-98.07 1296.8,-107.29 1301.42,-102.03"/>
</a>
</g>
</g>
<!-- Node19 -->
<g id="Node000019" class="node">
<title>Node19</title>
<g id="a_Node000019"><a xlink:title=" ">
<polygon fill="#e0e0e0" stroke="#999999" points="1482.5,-96.62 1384,-96.62 1384,-75.88 1482.5,-75.88 1482.5,-96.62"/>
<text text-anchor="middle" x="1433.25" y="-83.12" font-family="Helvetica,sans-Serif" font-size="10.00">llvm/ADT/APInt.h</text>
</a>
</g>
</g>
<!-- Node15&#45;&gt;Node19 -->
<g id="edge18_Node000015_Node000019" class="edge">
<title>Node15&#45;&gt;Node19</title>
<g id="a_edge18_Node000015_Node000019"><a xlink:title=" ">
<path fill="none" stroke="#63b8ff" d="M1374.5,-138.75C1386.26,-128.44 1401.56,-115.03 1413.59,-104.48"/>
<polygon fill="#63b8ff" stroke="#63b8ff" points="1415.7,-107.29 1420.91,-98.07 1411.08,-102.03 1415.7,-107.29"/>
</a>
</g>
</g>
<!-- Node20 -->
<g id="Node000020" class="node">
<title>Node20</title>
<g id="a_Node000020"><a xlink:title=" ">
<polygon fill="#e0e0e0" stroke="#999999" points="1613.62,-96.62 1500.88,-96.62 1500.88,-75.88 1613.62,-75.88 1613.62,-96.62"/>
<text text-anchor="middle" x="1557.25" y="-83.12" font-family="Helvetica,sans-Serif" font-size="10.00">llvm/ADT/Hashing.h</text>
</a>
</g>
</g>
<!-- Node15&#45;&gt;Node20 -->
<g id="edge19_Node000015_Node000020" class="edge">
<title>Node15&#45;&gt;Node20</title>
<g id="a_edge19_Node000015_Node000020"><a xlink:title=" ">
<path fill="none" stroke="#63b8ff" d="M1404.39,-138.58C1438.78,-127.03 1484.52,-111.68 1516.97,-100.78"/>
<polygon fill="#63b8ff" stroke="#63b8ff" points="1518.06,-104.1 1526.43,-97.6 1515.83,-97.47 1518.06,-104.1"/>
</a>
</g>
</g>
<!-- Node21 -->
<g id="Node000021" class="node">
<title>Node21</title>
<g id="a_Node000021"><a xlink:title=" ">
<polygon fill="#e0e0e0" stroke="#999999" points="1676.5,-96.62 1632,-96.62 1632,-75.88 1676.5,-75.88 1676.5,-96.62"/>
<text text-anchor="middle" x="1654.25" y="-83.12" font-family="Helvetica,sans-Serif" font-size="10.00">utility</text>
</a>
</g>
</g>
<!-- Node15&#45;&gt;Node21 -->
<g id="edge20_Node000015_Node000021" class="edge">
<title>Node15&#45;&gt;Node21</title>
<g id="a_edge20_Node000015_Node000021"><a xlink:title=" ">
<path fill="none" stroke="#63b8ff" d="M1411.7,-140.87C1414.59,-140.22 1417.45,-139.59 1420.25,-139 1509.46,-120.09 1535.6,-131.42 1622.25,-103 1623.61,-102.56 1624.98,-102.06 1626.35,-101.53"/>
<polygon fill="#63b8ff" stroke="#63b8ff" points="1627.55,-104.83 1635.3,-97.6 1624.73,-98.42 1627.55,-104.83"/>
</a>
</g>
</g>
<!-- Node17 -->
<g id="Node000017" class="node">
<title>Node17</title>
<g id="a_Node000017"><a xlink:title=" ">
<polygon fill="#e0e0e0" stroke="#999999" points="1214.25,-27.12 1060.25,-27.12 1060.25,-6.38 1214.25,-6.38 1214.25,-27.12"/>
<text text-anchor="middle" x="1137.25" y="-13.62" font-family="Helvetica,sans-Serif" font-size="10.00">llvm/Support/raw_ostream.h</text>
</a>
</g>
</g>
<!-- Node16&#45;&gt;Node17 -->
<g id="edge16_Node000016_Node000017" class="edge">
<title>Node16&#45;&gt;Node17</title>
<g id="a_edge16_Node000016_Node000017"><a xlink:title=" ">
<path fill="none" stroke="#63b8ff" d="M1112.4,-75.58C1116.63,-65.75 1123.29,-50.25 1128.65,-37.77"/>
<polygon fill="#63b8ff" stroke="#63b8ff" points="1131.77,-39.36 1132.51,-28.79 1125.34,-36.6 1131.77,-39.36"/>
</a>
</g>
</g>
</g>
</svg>
