<?xml version="1.0" encoding="UTF-8" standalone="no"?>
<!DOCTYPE svg PUBLIC "-//W3C//DTD SVG 1.1//EN"
 "http://www.w3.org/Graphics/SVG/1.1/DTD/svg11.dtd">
<!-- Generated by graphviz version 12.2.1 (0)
 -->
<!-- Title: build/include/llzk/Dialect/Array/IR/OpInterfaces.h.inc Pages: 1 -->
<svg width="2403pt" height="332pt"
 viewBox="0.00 0.00 2402.88 332.25" xmlns="http://www.w3.org/2000/svg" xmlns:xlink="http://www.w3.org/1999/xlink">
<g id="graph0" class="graph" transform="scale(1 1) rotate(0) translate(4 328.25)">
<title>build/include/llzk/Dialect/Array/IR/OpInterfaces.h.inc</title>
<!-- Node1 -->
<g id="Node000001" class="node">
<title>Node1</title>
<g id="a_Node000001"><a xlink:title=" ">
<polygon fill="#999999" stroke="#666666" points="1387.5,-324.25 1200.5,-324.25 1200.5,-290.75 1387.5,-290.75 1387.5,-324.25"/>
<text text-anchor="start" x="1208.5" y="-310.75" font-family="Helvetica,sans-Serif" font-size="10.00">build/include/llzk</text>
<text text-anchor="middle" x="1294" y="-298" font-family="Helvetica,sans-Serif" font-size="10.00">/Dialect/Array/IR/OpInterfaces.h.inc</text>
</a>
</g>
</g>
<!-- Node2 -->
<g id="Node000002" class="node">
<title>Node2</title>
<g id="a_Node000002"><a xlink:href="Array_2IR_2Ops_8h.html" target="_top" xlink:title=" ">
<polygon fill="white" stroke="#666666" points="1348.5,-254.75 1239.5,-254.75 1239.5,-221.25 1348.5,-221.25 1348.5,-254.75"/>
<text text-anchor="start" x="1247.5" y="-241.25" font-family="Helvetica,sans-Serif" font-size="10.00">include/llzk/Dialect</text>
<text text-anchor="middle" x="1294" y="-228.5" font-family="Helvetica,sans-Serif" font-size="10.00">/Array/IR/Ops.h</text>
</a>
</g>
</g>
<!-- Node1&#45;&gt;Node2 -->
<g id="edge1_Node000001_Node000002" class="edge">
<title>Node1&#45;&gt;Node2</title>
<g id="a_edge1_Node000001_Node000002"><a xlink:title=" ">
<path fill="none" stroke="#63b8ff" d="M1294,-279.06C1294,-270.84 1294,-262.09 1294,-254.88"/>
<polygon fill="#63b8ff" stroke="#63b8ff" points="1290.5,-278.99 1294,-288.99 1297.5,-278.99 1290.5,-278.99"/>
</a>
</g>
</g>
<!-- Node3 -->
<g id="Node000003" class="node">
<title>Node3</title>
<g id="a_Node000003"><a xlink:href="ConstraintDependencyGraph_8h.html" target="_top" xlink:title=" ">
<polygon fill="white" stroke="#666666" points="530.12,-185.25 361.88,-185.25 361.88,-151.75 530.12,-151.75 530.12,-185.25"/>
<text text-anchor="start" x="369.88" y="-171.75" font-family="Helvetica,sans-Serif" font-size="10.00">include/llzk/Analysis</text>
<text text-anchor="middle" x="446" y="-159" font-family="Helvetica,sans-Serif" font-size="10.00">/ConstraintDependencyGraph.h</text>
</a>
</g>
</g>
<!-- Node2&#45;&gt;Node3 -->
<g id="edge2_Node000002_Node000003" class="edge">
<title>Node2&#45;&gt;Node3</title>
<g id="a_edge2_Node000002_Node000003"><a xlink:title=" ">
<path fill="none" stroke="#63b8ff" d="M1227.54,-231.71C1074.89,-219.56 699.35,-189.67 530.57,-176.23"/>
<polygon fill="#63b8ff" stroke="#63b8ff" points="1227.26,-235.2 1237.5,-232.5 1227.81,-228.22 1227.26,-235.2"/>
</a>
</g>
</g>
<!-- Node4 -->
<g id="Node000004" class="node">
<title>Node4</title>
<g id="a_Node000004"><a xlink:href="IntervalAnalysis_8h.html" target="_top" xlink:title=" ">
<polygon fill="white" stroke="#666666" points="134.88,-109.38 19.12,-109.38 19.12,-75.88 134.88,-75.88 134.88,-109.38"/>
<text text-anchor="start" x="27.12" y="-95.88" font-family="Helvetica,sans-Serif" font-size="10.00">include/llzk/Analysis</text>
<text text-anchor="middle" x="77" y="-83.12" font-family="Helvetica,sans-Serif" font-size="10.00">/IntervalAnalysis.h</text>
</a>
</g>
</g>
<!-- Node2&#45;&gt;Node4 -->
<g id="edge9_Node000002_Node000004" class="edge">
<title>Node2&#45;&gt;Node4</title>
<g id="a_edge9_Node000002_Node000004"><a xlink:title=" ">
<path fill="none" stroke="#63b8ff" d="M1227.85,-235.64C1042.57,-231.48 521.09,-217.18 353,-185.25 265.45,-168.62 167.43,-131.37 114.99,-109.83"/>
<polygon fill="#63b8ff" stroke="#63b8ff" points="1227.71,-239.14 1237.79,-235.86 1227.87,-232.14 1227.71,-239.14"/>
</a>
</g>
</g>
<!-- Node5 -->
<g id="Node000005" class="node">
<title>Node5</title>
<g id="a_Node000005"><a xlink:href="IntervalAnalysis_8cpp.html" target="_top" xlink:title=" ">
<polygon fill="white" stroke="#666666" points="600.12,-27.12 425.88,-27.12 425.88,-6.38 600.12,-6.38 600.12,-27.12"/>
<text text-anchor="middle" x="513" y="-13.62" font-family="Helvetica,sans-Serif" font-size="10.00">lib/Analysis/IntervalAnalysis.cpp</text>
</a>
</g>
</g>
<!-- Node2&#45;&gt;Node5 -->
<g id="edge11_Node000002_Node000005" class="edge">
<title>Node2&#45;&gt;Node5</title>
<g id="a_edge11_Node000002_Node000005"><a xlink:title=" ">
<path fill="none" stroke="#63b8ff" d="M1227.66,-234.23C1097.8,-228.24 819.73,-212.39 786,-185.25 743.81,-151.31 788.16,-105.82 748,-69.5 726.04,-49.64 656.35,-35.91 598.52,-27.61"/>
<polygon fill="#63b8ff" stroke="#63b8ff" points="1227.34,-237.72 1237.49,-234.68 1227.66,-230.73 1227.34,-237.72"/>
</a>
</g>
</g>
<!-- Node7 -->
<g id="Node000007" class="node">
<title>Node7</title>
<g id="a_Node000007"><a xlink:href="ConstraintDependencyGraph_8cpp.html" target="_top" xlink:title=" ">
<polygon fill="white" stroke="#666666" points="739.12,-109.38 552.88,-109.38 552.88,-75.88 739.12,-75.88 739.12,-109.38"/>
<text text-anchor="start" x="560.88" y="-95.88" font-family="Helvetica,sans-Serif" font-size="10.00">lib/Analysis/ConstraintDependency</text>
<text text-anchor="middle" x="646" y="-83.12" font-family="Helvetica,sans-Serif" font-size="10.00">Graph.cpp</text>
</a>
</g>
</g>
<!-- Node2&#45;&gt;Node7 -->
<g id="edge10_Node000002_Node000007" class="edge">
<title>Node2&#45;&gt;Node7</title>
<g id="a_edge10_Node000002_Node000007"><a xlink:title=" ">
<path fill="none" stroke="#63b8ff" d="M1227.95,-235.63C1103,-232.24 837,-220.94 753,-185.25 713.16,-168.32 677.26,-131 658.9,-109.58"/>
<polygon fill="#63b8ff" stroke="#63b8ff" points="1227.63,-239.13 1237.72,-235.89 1227.82,-232.13 1227.63,-239.13"/>
</a>
</g>
</g>
<!-- Node10 -->
<g id="Node000010" class="node">
<title>Node10</title>
<g id="a_Node000010"><a xlink:href="SourceRef_8cpp.html" target="_top" xlink:title=" ">
<polygon fill="white" stroke="#666666" points="939.12,-178.88 794.88,-178.88 794.88,-158.12 939.12,-158.12 939.12,-178.88"/>
<text text-anchor="middle" x="867" y="-165.38" font-family="Helvetica,sans-Serif" font-size="10.00">lib/Analysis/SourceRef.cpp</text>
</a>
</g>
</g>
<!-- Node2&#45;&gt;Node10 -->
<g id="edge12_Node000002_Node000010" class="edge">
<title>Node2&#45;&gt;Node10</title>
<g id="a_edge12_Node000002_Node000010"><a xlink:title=" ">
<path fill="none" stroke="#63b8ff" d="M1228.01,-227.92C1158.48,-218.16 1045.84,-201.81 949,-185.25 938.43,-183.44 927.11,-181.36 916.37,-179.32"/>
<polygon fill="#63b8ff" stroke="#63b8ff" points="1227.33,-231.36 1237.72,-229.28 1228.3,-224.43 1227.33,-231.36"/>
</a>
</g>
</g>
<!-- Node11 -->
<g id="Node000011" class="node">
<title>Node11</title>
<g id="a_Node000011"><a xlink:href="Array_8cpp.html" target="_top" xlink:title=" ">
<polygon fill="white" stroke="#666666" points="1096.5,-178.88 957.5,-178.88 957.5,-158.12 1096.5,-158.12 1096.5,-178.88"/>
<text text-anchor="middle" x="1027" y="-165.38" font-family="Helvetica,sans-Serif" font-size="10.00">lib/CAPI/Dialect/Array.cpp</text>
</a>
</g>
</g>
<!-- Node2&#45;&gt;Node11 -->
<g id="edge13_Node000002_Node000011" class="edge">
<title>Node2&#45;&gt;Node11</title>
<g id="a_edge13_Node000002_Node000011"><a xlink:title=" ">
<path fill="none" stroke="#63b8ff" d="M1228.1,-220.34C1177.17,-207.46 1108.42,-190.08 1065.93,-179.34"/>
<polygon fill="#63b8ff" stroke="#63b8ff" points="1226.98,-223.67 1237.53,-222.72 1228.7,-216.88 1226.98,-223.67"/>
</a>
</g>
</g>
<!-- Node12 -->
<g id="Node000012" class="node">
<title>Node12</title>
<g id="a_Node000012"><a xlink:href="Array_2IR_2Dialect_8cpp.html" target="_top" xlink:title=" ">
<polygon fill="white" stroke="#666666" points="1221.75,-185.25 1114.25,-185.25 1114.25,-151.75 1221.75,-151.75 1221.75,-185.25"/>
<text text-anchor="start" x="1122.25" y="-171.75" font-family="Helvetica,sans-Serif" font-size="10.00">lib/Dialect/Array/IR</text>
<text text-anchor="middle" x="1168" y="-159" font-family="Helvetica,sans-Serif" font-size="10.00">/Dialect.cpp</text>
</a>
</g>
</g>
<!-- Node2&#45;&gt;Node12 -->
<g id="edge14_Node000002_Node000012" class="edge">
<title>Node2&#45;&gt;Node12</title>
<g id="a_edge14_Node000002_Node000012"><a xlink:title=" ">
<path fill="none" stroke="#63b8ff" d="M1253.82,-215.47C1235.69,-205.76 1214.65,-194.49 1197.93,-185.54"/>
<polygon fill="#63b8ff" stroke="#63b8ff" points="1252.02,-218.48 1262.49,-220.12 1255.32,-212.31 1252.02,-218.48"/>
</a>
</g>
</g>
<!-- Node13 -->
<g id="Node000013" class="node">
<title>Node13</title>
<g id="a_Node000013"><a xlink:href="Array_2IR_2Ops_8cpp.html" target="_top" xlink:title=" ">
<polygon fill="white" stroke="#666666" points="1347.75,-185.25 1240.25,-185.25 1240.25,-151.75 1347.75,-151.75 1347.75,-185.25"/>
<text text-anchor="start" x="1248.25" y="-171.75" font-family="Helvetica,sans-Serif" font-size="10.00">lib/Dialect/Array/IR</text>
<text text-anchor="middle" x="1294" y="-159" font-family="Helvetica,sans-Serif" font-size="10.00">/Ops.cpp</text>
</a>
</g>
</g>
<!-- Node2&#45;&gt;Node13 -->
<g id="edge15_Node000002_Node000013" class="edge">
<title>Node2&#45;&gt;Node13</title>
<g id="a_edge15_Node000002_Node000013"><a xlink:title=" ">
<path fill="none" stroke="#63b8ff" d="M1294,-209.56C1294,-201.34 1294,-192.59 1294,-185.38"/>
<polygon fill="#63b8ff" stroke="#63b8ff" points="1290.5,-209.49 1294,-219.49 1297.5,-209.49 1290.5,-209.49"/>
</a>
</g>
</g>
<!-- Node14 -->
<g id="Node000014" class="node">
<title>Node14</title>
<g id="a_Node000014"><a xlink:href="Array_2IR_2Types_8cpp.html" target="_top" xlink:title=" ">
<polygon fill="white" stroke="#666666" points="1473.75,-185.25 1366.25,-185.25 1366.25,-151.75 1473.75,-151.75 1473.75,-185.25"/>
<text text-anchor="start" x="1374.25" y="-171.75" font-family="Helvetica,sans-Serif" font-size="10.00">lib/Dialect/Array/IR</text>
<text text-anchor="middle" x="1420" y="-159" font-family="Helvetica,sans-Serif" font-size="10.00">/Types.cpp</text>
</a>
</g>
</g>
<!-- Node2&#45;&gt;Node14 -->
<g id="edge16_Node000002_Node000014" class="edge">
<title>Node2&#45;&gt;Node14</title>
<g id="a_edge16_Node000002_Node000014"><a xlink:title=" ">
<path fill="none" stroke="#63b8ff" d="M1334.18,-215.47C1352.31,-205.76 1373.35,-194.49 1390.07,-185.54"/>
<polygon fill="#63b8ff" stroke="#63b8ff" points="1332.68,-212.31 1325.51,-220.12 1335.98,-218.48 1332.68,-212.31"/>
</a>
</g>
</g>
<!-- Node15 -->
<g id="Node000015" class="node">
<title>Node15</title>
<g id="a_Node000015"><a xlink:href="ArrayToScalarPass_8cpp.html" target="_top" xlink:title="This file implements the &#45;llzk&#45;array&#45;to&#45;scalar pass.">
<polygon fill="white" stroke="#666666" points="1643.88,-185.25 1492.12,-185.25 1492.12,-151.75 1643.88,-151.75 1643.88,-185.25"/>
<text text-anchor="start" x="1500.12" y="-171.75" font-family="Helvetica,sans-Serif" font-size="10.00">lib/Dialect/Array/Transforms</text>
<text text-anchor="middle" x="1568" y="-159" font-family="Helvetica,sans-Serif" font-size="10.00">/ArrayToScalarPass.cpp</text>
</a>
</g>
</g>
<!-- Node2&#45;&gt;Node15 -->
<g id="edge17_Node000002_Node000015" class="edge">
<title>Node2&#45;&gt;Node15</title>
<g id="a_edge17_Node000002_Node000015"><a xlink:title=" ">
<path fill="none" stroke="#63b8ff" d="M1359.74,-220.81C1402.87,-210.18 1459.05,-196.34 1502.19,-185.71"/>
<polygon fill="#63b8ff" stroke="#63b8ff" points="1359.13,-217.35 1350.26,-223.14 1360.81,-224.15 1359.13,-217.35"/>
</a>
</g>
</g>
<!-- Node16 -->
<g id="Node000016" class="node">
<title>Node16</title>
<g id="a_Node000016"><a xlink:href="FlatteningPass_8cpp.html" target="_top" xlink:title="This file implements the &#45;llzk&#45;flatten pass.">
<polygon fill="white" stroke="#666666" points="1703.75,-109.38 1536.25,-109.38 1536.25,-75.88 1703.75,-75.88 1703.75,-109.38"/>
<text text-anchor="start" x="1544.25" y="-95.88" font-family="Helvetica,sans-Serif" font-size="10.00">lib/Dialect/Polymorphic</text>
<text text-anchor="middle" x="1620" y="-83.12" font-family="Helvetica,sans-Serif" font-size="10.00">/Transforms/FlatteningPass.cpp</text>
</a>
</g>
</g>
<!-- Node2&#45;&gt;Node16 -->
<g id="edge18_Node000002_Node000016" class="edge">
<title>Node2&#45;&gt;Node16</title>
<g id="a_edge18_Node000002_Node000016"><a xlink:title=" ">
<path fill="none" stroke="#63b8ff" d="M1359.96,-237.36C1453.06,-236.29 1615.85,-228.14 1653,-185.25 1672.04,-163.27 1650.6,-129.46 1634.48,-109.65"/>
<polygon fill="#63b8ff" stroke="#63b8ff" points="1360.17,-233.85 1350.2,-237.44 1360.23,-240.85 1360.17,-233.85"/>
</a>
</g>
</g>
<!-- Node17 -->
<g id="Node000017" class="node">
<title>Node17</title>
<g id="a_Node000017"><a xlink:href="SharedImpl_8h.html" target="_top" xlink:title="Common private implementation for poly dialect passes.">
<polygon fill="white" stroke="#666666" points="1840.25,-185.25 1699.75,-185.25 1699.75,-151.75 1840.25,-151.75 1840.25,-185.25"/>
<text text-anchor="start" x="1707.75" y="-171.75" font-family="Helvetica,sans-Serif" font-size="10.00">lib/Dialect/Polymorphic</text>
<text text-anchor="middle" x="1770" y="-159" font-family="Helvetica,sans-Serif" font-size="10.00">/Transforms/SharedImpl.h</text>
</a>
</g>
</g>
<!-- Node2&#45;&gt;Node17 -->
<g id="edge19_Node000002_Node000017" class="edge">
<title>Node2&#45;&gt;Node17</title>
<g id="a_edge19_Node000002_Node000017"><a xlink:title=" ">
<path fill="none" stroke="#63b8ff" d="M1360.1,-229.38C1438.15,-220.13 1571.8,-203.48 1686,-185.25 1690.4,-184.55 1694.91,-183.79 1699.47,-183.01"/>
<polygon fill="#63b8ff" stroke="#63b8ff" points="1360.02,-225.87 1350.5,-230.51 1360.84,-232.82 1360.02,-225.87"/>
</a>
</g>
</g>
<!-- Node20 -->
<g id="Node000020" class="node">
<title>Node20</title>
<g id="a_Node000020"><a xlink:href="LLZKPolyLoweringPass_8cpp.html" target="_top" xlink:title="This file implements the &#45;llzk&#45;poly&#45;lowering pass.">
<polygon fill="white" stroke="#666666" points="2035.62,-185.25 1858.38,-185.25 1858.38,-151.75 2035.62,-151.75 2035.62,-185.25"/>
<text text-anchor="start" x="1866.38" y="-171.75" font-family="Helvetica,sans-Serif" font-size="10.00">lib/Transforms/LLZKPolyLowering</text>
<text text-anchor="middle" x="1947" y="-159" font-family="Helvetica,sans-Serif" font-size="10.00">Pass.cpp</text>
</a>
</g>
</g>
<!-- Node2&#45;&gt;Node20 -->
<g id="edge23_Node000002_Node000020" class="edge">
<title>Node2&#45;&gt;Node20</title>
<g id="a_edge23_Node000002_Node000020"><a xlink:title=" ">
<path fill="none" stroke="#63b8ff" d="M1360.15,-232.26C1464.34,-224.47 1672.95,-207.58 1849,-185.25 1851.99,-184.87 1855.03,-184.47 1858.1,-184.05"/>
<polygon fill="#63b8ff" stroke="#63b8ff" points="1360.1,-228.75 1350.39,-232.98 1360.62,-235.73 1360.1,-228.75"/>
</a>
</g>
</g>
<!-- Node21 -->
<g id="Node000021" class="node">
<title>Node21</title>
<g id="a_Node000021"><a xlink:href="LLZKRedundantReadAndWriteEliminationPass_8cpp.html" target="_top" xlink:title="This file implements the &#45;llzk&#45;duplicate&#45;read&#45;write&#45;elim pass.">
<polygon fill="white" stroke="#666666" points="2236.62,-185.25 2053.38,-185.25 2053.38,-151.75 2236.62,-151.75 2236.62,-185.25"/>
<text text-anchor="start" x="2061.38" y="-171.75" font-family="Helvetica,sans-Serif" font-size="10.00">lib/Transforms/LLZKRedundant</text>
<text text-anchor="middle" x="2145" y="-159" font-family="Helvetica,sans-Serif" font-size="10.00">ReadAndWriteEliminationPass.cpp</text>
</a>
</g>
</g>
<!-- Node2&#45;&gt;Node21 -->
<g id="edge24_Node000002_Node000021" class="edge">
<title>Node2&#45;&gt;Node21</title>
<g id="a_edge24_Node000002_Node000021"><a xlink:title=" ">
<path fill="none" stroke="#63b8ff" d="M1360.2,-234.39C1491.25,-228.78 1792.88,-213.74 2045,-185.25 2047.62,-184.95 2050.28,-184.64 2052.95,-184.31"/>
<polygon fill="#63b8ff" stroke="#63b8ff" points="1360.16,-230.88 1350.31,-234.8 1360.45,-237.88 1360.16,-230.88"/>
</a>
</g>
</g>
<!-- Node22 -->
<g id="Node000022" class="node">
<title>Node22</title>
<g id="a_Node000022"><a xlink:href="SymbolHelper_8cpp.html" target="_top" xlink:title="This file contains the implementations for symbol helper functions.">
<polygon fill="white" stroke="#666666" points="2394.88,-178.88 2255.12,-178.88 2255.12,-158.12 2394.88,-158.12 2394.88,-178.88"/>
<text text-anchor="middle" x="2325" y="-165.38" font-family="Helvetica,sans-Serif" font-size="10.00">lib/Util/SymbolHelper.cpp</text>
</a>
</g>
</g>
<!-- Node2&#45;&gt;Node22 -->
<g id="edge25_Node000002_Node000022" class="edge">
<title>Node2&#45;&gt;Node22</title>
<g id="a_edge25_Node000002_Node000022"><a xlink:title=" ">
<path fill="none" stroke="#63b8ff" d="M1360.17,-236.64C1515.47,-235.09 1915.17,-227 2246,-185.25 2257.52,-183.8 2269.87,-181.63 2281.31,-179.37"/>
<polygon fill="#63b8ff" stroke="#63b8ff" points="1360.46,-233.14 1350.49,-236.73 1360.52,-240.14 1360.46,-233.14"/>
</a>
</g>
</g>
<!-- Node3&#45;&gt;Node4 -->
<g id="edge3_Node000003_Node000004" class="edge">
<title>Node3&#45;&gt;Node4</title>
<g id="a_edge3_Node000003_Node000004"><a xlink:title=" ">
<path fill="none" stroke="#63b8ff" d="M350.34,-154.84C290.57,-146.01 212.25,-132.77 144,-115.75 137.11,-114.03 129.9,-111.96 122.87,-109.77"/>
<polygon fill="#63b8ff" stroke="#63b8ff" points="349.76,-158.29 360.16,-156.27 350.77,-151.36 349.76,-158.29"/>
</a>
</g>
</g>
<!-- Node3&#45;&gt;Node7 -->
<g id="edge6_Node000003_Node000007" class="edge">
<title>Node3&#45;&gt;Node7</title>
<g id="a_edge6_Node000003_Node000007"><a xlink:title=" ">
<path fill="none" stroke="#63b8ff" d="M500.41,-147.4C532.38,-135.59 572.27,-120.86 602.21,-109.8"/>
<polygon fill="#63b8ff" stroke="#63b8ff" points="499.48,-144.02 491.31,-150.76 501.9,-150.58 499.48,-144.02"/>
</a>
</g>
</g>
<!-- Node8 -->
<g id="Node000008" class="node">
<title>Node8</title>
<g id="a_Node000008"><a xlink:href="ConstraintDependencyGraphPass_8cpp.html" target="_top" xlink:title="This file implements the &#45;llzk&#45;print&#45;constraint&#45;dependency&#45;graphs pass.">
<polygon fill="white" stroke="#666666" points="339.12,-109.38 152.88,-109.38 152.88,-75.88 339.12,-75.88 339.12,-109.38"/>
<text text-anchor="start" x="160.88" y="-95.88" font-family="Helvetica,sans-Serif" font-size="10.00">lib/Analysis/ConstraintDependency</text>
<text text-anchor="middle" x="246" y="-83.12" font-family="Helvetica,sans-Serif" font-size="10.00">GraphPass.cpp</text>
</a>
</g>
</g>
<!-- Node3&#45;&gt;Node8 -->
<g id="edge7_Node000003_Node000008" class="edge">
<title>Node3&#45;&gt;Node8</title>
<g id="a_edge7_Node000003_Node000008"><a xlink:title=" ">
<path fill="none" stroke="#63b8ff" d="M391.59,-147.4C359.62,-135.59 319.73,-120.86 289.79,-109.8"/>
<polygon fill="#63b8ff" stroke="#63b8ff" points="390.1,-150.58 400.69,-150.76 392.52,-144.02 390.1,-150.58"/>
</a>
</g>
</g>
<!-- Node9 -->
<g id="Node000009" class="node">
<title>Node9</title>
<g id="a_Node000009"><a xlink:href="SourceRefLattice_8cpp.html" target="_top" xlink:title=" ">
<polygon fill="white" stroke="#666666" points="535,-103 357,-103 357,-82.25 535,-82.25 535,-103"/>
<text text-anchor="middle" x="446" y="-89.5" font-family="Helvetica,sans-Serif" font-size="10.00">lib/Analysis/SourceRefLattice.cpp</text>
</a>
</g>
</g>
<!-- Node3&#45;&gt;Node9 -->
<g id="edge8_Node000003_Node000009" class="edge">
<title>Node3&#45;&gt;Node9</title>
<g id="a_edge8_Node000003_Node000009"><a xlink:title=" ">
<path fill="none" stroke="#63b8ff" d="M446,-140.2C446,-127.17 446,-112.43 446,-103.08"/>
<polygon fill="#63b8ff" stroke="#63b8ff" points="442.5,-139.96 446,-149.96 449.5,-139.96 442.5,-139.96"/>
</a>
</g>
</g>
<!-- Node4&#45;&gt;Node5 -->
<g id="edge4_Node000004_Node000005" class="edge">
<title>Node4&#45;&gt;Node5</title>
<g id="a_edge4_Node000004_Node000005"><a xlink:title=" ">
<path fill="none" stroke="#63b8ff" d="M133.27,-72.24C136.88,-71.25 140.48,-70.32 144,-69.5 239.13,-47.31 350.42,-33.29 425.7,-25.53"/>
<polygon fill="#63b8ff" stroke="#63b8ff" points="132.53,-68.81 123.91,-74.98 134.49,-75.53 132.53,-68.81"/>
</a>
</g>
</g>
<!-- Node6 -->
<g id="Node000006" class="node">
<title>Node6</title>
<g id="a_Node000006"><a xlink:href="IntervalAnalysisPass_8cpp.html" target="_top" xlink:title="This file implements the &#45;llzk&#45;print&#45;interval&#45;analysis pass.">
<polygon fill="white" stroke="#666666" points="154,-33.5 0,-33.5 0,0 154,0 154,-33.5"/>
<text text-anchor="start" x="8" y="-20" font-family="Helvetica,sans-Serif" font-size="10.00">lib/Analysis/IntervalAnalysis</text>
<text text-anchor="middle" x="77" y="-7.25" font-family="Helvetica,sans-Serif" font-size="10.00">Pass.cpp</text>
</a>
</g>
</g>
<!-- Node4&#45;&gt;Node6 -->
<g id="edge5_Node000004_Node000006" class="edge">
<title>Node4&#45;&gt;Node6</title>
<g id="a_edge5_Node000004_Node000006"><a xlink:title=" ">
<path fill="none" stroke="#63b8ff" d="M77,-64.24C77,-53.97 77,-42.65 77,-33.75"/>
<polygon fill="#63b8ff" stroke="#63b8ff" points="73.5,-64.08 77,-74.08 80.5,-64.08 73.5,-64.08"/>
</a>
</g>
</g>
<!-- Node17&#45;&gt;Node16 -->
<g id="edge21_Node000017_Node000016" class="edge">
<title>Node17&#45;&gt;Node16</title>
<g id="a_edge21_Node000017_Node000016"><a xlink:title=" ">
<path fill="none" stroke="#63b8ff" d="M1726.99,-146.32C1703.4,-134.7 1674.61,-120.52 1652.84,-109.8"/>
<polygon fill="#63b8ff" stroke="#63b8ff" points="1725.21,-149.34 1735.72,-150.62 1728.3,-143.06 1725.21,-149.34"/>
</a>
</g>
</g>
<!-- Node18 -->
<g id="Node000018" class="node">
<title>Node18</title>
<g id="a_Node000018"><a xlink:href="EmptyParamListRemovalPass_8cpp.html" target="_top" xlink:title="This file implements the &#45;llzk&#45;drop&#45;empty&#45;params pass.">
<polygon fill="white" stroke="#666666" points="1920.5,-115.75 1721.5,-115.75 1721.5,-69.5 1920.5,-69.5 1920.5,-115.75"/>
<text text-anchor="start" x="1729.5" y="-102.25" font-family="Helvetica,sans-Serif" font-size="10.00">lib/Dialect/Polymorphic</text>
<text text-anchor="start" x="1729.5" y="-89.5" font-family="Helvetica,sans-Serif" font-size="10.00">/Transforms/EmptyParamListRemoval</text>
<text text-anchor="middle" x="1821" y="-76.75" font-family="Helvetica,sans-Serif" font-size="10.00">Pass.cpp</text>
</a>
</g>
</g>
<!-- Node17&#45;&gt;Node18 -->
<g id="edge20_Node000017_Node000018" class="edge">
<title>Node17&#45;&gt;Node18</title>
<g id="a_edge20_Node000017_Node000018"><a xlink:title=" ">
<path fill="none" stroke="#63b8ff" d="M1787.55,-142.08C1793.38,-133.63 1799.84,-124.28 1805.51,-116.07"/>
<polygon fill="#63b8ff" stroke="#63b8ff" points="1784.73,-140.01 1781.93,-150.22 1790.49,-143.98 1784.73,-140.01"/>
</a>
</g>
</g>
<!-- Node19 -->
<g id="Node000019" class="node">
<title>Node19</title>
<g id="a_Node000019"><a xlink:href="SharedImpl_8cpp.html" target="_top" xlink:title=" ">
<polygon fill="white" stroke="#666666" points="2089.88,-109.38 1938.12,-109.38 1938.12,-75.88 2089.88,-75.88 2089.88,-109.38"/>
<text text-anchor="start" x="1946.12" y="-95.88" font-family="Helvetica,sans-Serif" font-size="10.00">lib/Dialect/Polymorphic</text>
<text text-anchor="middle" x="2014" y="-83.12" font-family="Helvetica,sans-Serif" font-size="10.00">/Transforms/SharedImpl.cpp</text>
</a>
</g>
</g>
<!-- Node17&#45;&gt;Node19 -->
<g id="edge22_Node000017_Node000019" class="edge">
<title>Node17&#45;&gt;Node19</title>
<g id="a_edge22_Node000017_Node000019"><a xlink:title=" ">
<path fill="none" stroke="#63b8ff" d="M1834.35,-148.02C1873.69,-136.11 1923.42,-121.05 1960.58,-109.8"/>
<polygon fill="#63b8ff" stroke="#63b8ff" points="1833.55,-144.6 1825,-150.85 1835.58,-151.3 1833.55,-144.6"/>
</a>
</g>
</g>
</g>
</svg>
