<?xml version="1.0" encoding="UTF-8" standalone="no"?>
<!DOCTYPE svg PUBLIC "-//W3C//DTD SVG 1.1//EN"
 "http://www.w3.org/Graphics/SVG/1.1/DTD/svg11.dtd">
<!-- Generated by graphviz version 12.2.1 (0)
 -->
<!-- Title: include/llzk/Dialect/Array/IR/Ops.h Pages: 1 -->
<svg width="2577pt" height="307pt"
 viewBox="0.00 0.00 2577.25 306.75" xmlns="http://www.w3.org/2000/svg" xmlns:xlink="http://www.w3.org/1999/xlink">
<g id="graph0" class="graph" transform="scale(1 1) rotate(0) translate(4 302.75)">
<title>include/llzk/Dialect/Array/IR/Ops.h</title>
<!-- Node1 -->
<g id="Node000001" class="node">
<title>Node1</title>
<g id="a_Node000001"><a xlink:title=" ">
<polygon fill="#999999" stroke="#666666" points="2099.75,-298.75 1990.75,-298.75 1990.75,-265.25 2099.75,-265.25 2099.75,-298.75"/>
<text text-anchor="start" x="1998.75" y="-285.25" font-family="Helvetica,sans-Serif" font-size="10.00">include/llzk/Dialect</text>
<text text-anchor="middle" x="2045.25" y="-272.5" font-family="Helvetica,sans-Serif" font-size="10.00">/Array/IR/Ops.h</text>
</a>
</g>
</g>
<!-- Node2 -->
<g id="Node000002" class="node">
<title>Node2</title>
<g id="a_Node000002"><a xlink:href="Array_2IR_2Dialect_8h.html" target="_top" xlink:title=" ">
<polygon fill="white" stroke="#666666" points="234.25,-159.75 134.25,-159.75 134.25,-126.25 234.25,-126.25 234.25,-159.75"/>
<text text-anchor="start" x="142.25" y="-146.25" font-family="Helvetica,sans-Serif" font-size="10.00">llzk/Dialect/Array</text>
<text text-anchor="middle" x="184.25" y="-133.5" font-family="Helvetica,sans-Serif" font-size="10.00">/IR/Dialect.h</text>
</a>
</g>
</g>
<!-- Node1&#45;&gt;Node2 -->
<g id="edge1_Node000001_Node000002" class="edge">
<title>Node1&#45;&gt;Node2</title>
<g id="a_edge1_Node000001_Node000002"><a xlink:title=" ">
<path fill="none" stroke="#63b8ff" d="M1990.35,-280.44C1721.59,-277.56 551.17,-263.14 392.25,-229.25 330.98,-216.18 264.76,-185.98 223.9,-165.27"/>
<polygon fill="#63b8ff" stroke="#63b8ff" points="225.66,-162.25 215.17,-160.79 222.46,-168.47 225.66,-162.25"/>
</a>
</g>
</g>
<!-- Node5 -->
<g id="Node000005" class="node">
<title>Node5</title>
<g id="a_Node000005"><a xlink:href="Array_2IR_2Types_8h.html" target="_top" xlink:title=" ">
<polygon fill="white" stroke="#666666" points="501.25,-229.25 401.25,-229.25 401.25,-195.75 501.25,-195.75 501.25,-229.25"/>
<text text-anchor="start" x="409.25" y="-215.75" font-family="Helvetica,sans-Serif" font-size="10.00">llzk/Dialect/Array</text>
<text text-anchor="middle" x="451.25" y="-203" font-family="Helvetica,sans-Serif" font-size="10.00">/IR/Types.h</text>
</a>
</g>
</g>
<!-- Node1&#45;&gt;Node5 -->
<g id="edge4_Node000001_Node000005" class="edge">
<title>Node1&#45;&gt;Node5</title>
<g id="a_edge4_Node000001_Node000005"><a xlink:title=" ">
<path fill="none" stroke="#63b8ff" d="M1990.38,-278.68C1747.36,-268.39 768.69,-226.94 512.75,-216.1"/>
<polygon fill="#63b8ff" stroke="#63b8ff" points="513.12,-212.62 502.98,-215.69 512.82,-219.61 513.12,-212.62"/>
</a>
</g>
</g>
<!-- Node15 -->
<g id="Node000015" class="node">
<title>Node15</title>
<g id="a_Node000015"><a xlink:href="OpHelpers_8h.html" target="_top" xlink:title=" ">
<polygon fill="white" stroke="#666666" points="1391,-229.25 1283.5,-229.25 1283.5,-195.75 1391,-195.75 1391,-229.25"/>
<text text-anchor="start" x="1291.5" y="-215.75" font-family="Helvetica,sans-Serif" font-size="10.00">llzk/Dialect/Shared</text>
<text text-anchor="middle" x="1337.25" y="-203" font-family="Helvetica,sans-Serif" font-size="10.00">/OpHelpers.h</text>
</a>
</g>
</g>
<!-- Node1&#45;&gt;Node15 -->
<g id="edge15_Node000001_Node000015" class="edge">
<title>Node1&#45;&gt;Node15</title>
<g id="a_edge15_Node000001_Node000015"><a xlink:title=" ">
<path fill="none" stroke="#63b8ff" d="M1990.28,-275.76C1861.51,-263.48 1540.76,-232.9 1402.44,-219.71"/>
<polygon fill="#63b8ff" stroke="#63b8ff" points="1403,-216.25 1392.72,-218.79 1402.34,-223.22 1403,-216.25"/>
</a>
</g>
</g>
<!-- Node30 -->
<g id="Node000030" class="node">
<title>Node30</title>
<g id="a_Node000030"><a xlink:href="TypeHelper_8h.html" target="_top" xlink:title=" ">
<polygon fill="white" stroke="#666666" points="1964,-153.38 1844.5,-153.38 1844.5,-132.62 1964,-132.62 1964,-153.38"/>
<text text-anchor="middle" x="1904.25" y="-139.88" font-family="Helvetica,sans-Serif" font-size="10.00">llzk/Util/TypeHelper.h</text>
</a>
</g>
</g>
<!-- Node1&#45;&gt;Node30 -->
<g id="edge52_Node000001_Node000030" class="edge">
<title>Node1&#45;&gt;Node30</title>
<g id="a_edge52_Node000001_Node000030"><a xlink:title=" ">
<path fill="none" stroke="#63b8ff" d="M2011.85,-264.78C1995.43,-255.77 1976.05,-243.51 1961.25,-229.25 1941.18,-209.92 1924.35,-182.36 1914.29,-163.86"/>
<polygon fill="#63b8ff" stroke="#63b8ff" points="1917.39,-162.23 1909.64,-155 1911.19,-165.48 1917.39,-162.23"/>
</a>
</g>
</g>
<!-- Node38 -->
<g id="Node000038" class="node">
<title>Node38</title>
<g id="a_Node000038"><a xlink:href="DiscardableAllocationOpInterfaces_8h.html" target="_top" xlink:title=" ">
<polygon fill="white" stroke="#666666" points="2120.75,-229.25 1969.75,-229.25 1969.75,-195.75 2120.75,-195.75 2120.75,-229.25"/>
<text text-anchor="start" x="1977.75" y="-215.75" font-family="Helvetica,sans-Serif" font-size="10.00">llzk/Transforms/Discardable</text>
<text text-anchor="middle" x="2045.25" y="-203" font-family="Helvetica,sans-Serif" font-size="10.00">AllocationOpInterfaces.h</text>
</a>
</g>
</g>
<!-- Node1&#45;&gt;Node38 -->
<g id="edge48_Node000001_Node000038" class="edge">
<title>Node1&#45;&gt;Node38</title>
<g id="a_edge48_Node000001_Node000038"><a xlink:title=" ">
<path fill="none" stroke="#63b8ff" d="M2045.25,-265C2045.25,-257.77 2045.25,-249.03 2045.25,-240.81"/>
<polygon fill="#63b8ff" stroke="#63b8ff" points="2048.75,-240.9 2045.25,-230.9 2041.75,-240.9 2048.75,-240.9"/>
</a>
</g>
</g>
<!-- Node40 -->
<g id="Node000040" class="node">
<title>Node40</title>
<g id="a_Node000040"><a xlink:title=" ">
<polygon fill="#e0e0e0" stroke="#999999" points="2456.75,-159.75 2317.75,-159.75 2317.75,-126.25 2456.75,-126.25 2456.75,-159.75"/>
<text text-anchor="start" x="2325.75" y="-146.25" font-family="Helvetica,sans-Serif" font-size="10.00">mlir/Interfaces/SideEffect</text>
<text text-anchor="middle" x="2387.25" y="-133.5" font-family="Helvetica,sans-Serif" font-size="10.00">Interfaces.h</text>
</a>
</g>
</g>
<!-- Node1&#45;&gt;Node40 -->
<g id="edge54_Node000001_Node000040" class="edge">
<title>Node1&#45;&gt;Node40</title>
<g id="a_edge54_Node000001_Node000040"><a xlink:title=" ">
<path fill="none" stroke="#63b8ff" d="M2074.39,-264.96C2091.19,-255.3 2112.44,-242.36 2130.25,-229.25 2148.38,-215.9 2148.25,-206.09 2168.25,-195.75 2180.8,-189.26 2249.05,-173.59 2306.07,-161.18"/>
<polygon fill="#63b8ff" stroke="#63b8ff" points="2306.79,-164.61 2315.82,-159.07 2305.31,-157.77 2306.79,-164.61"/>
</a>
</g>
</g>
<!-- Node42 -->
<g id="Node000042" class="node">
<title>Node42</title>
<g id="a_Node000042"><a xlink:title=" ">
<polygon fill="#e0e0e0" stroke="#999999" points="2312.88,-229.25 2177.62,-229.25 2177.62,-195.75 2312.88,-195.75 2312.88,-229.25"/>
<text text-anchor="start" x="2185.62" y="-215.75" font-family="Helvetica,sans-Serif" font-size="10.00">mlir/Interfaces/InferType</text>
<text text-anchor="middle" x="2245.25" y="-203" font-family="Helvetica,sans-Serif" font-size="10.00">OpInterface.h</text>
</a>
</g>
</g>
<!-- Node1&#45;&gt;Node42 -->
<g id="edge53_Node000001_Node000042" class="edge">
<title>Node1&#45;&gt;Node42</title>
<g id="a_edge53_Node000001_Node000042"><a xlink:title=" ">
<path fill="none" stroke="#63b8ff" d="M2093.15,-264.83C2121.25,-255.35 2156.96,-243.3 2186.72,-233.25"/>
<polygon fill="#63b8ff" stroke="#63b8ff" points="2187.6,-236.65 2195.96,-230.14 2185.36,-230.02 2187.6,-236.65"/>
</a>
</g>
</g>
<!-- Node43 -->
<g id="Node000043" class="node">
<title>Node43</title>
<g id="a_Node000043"><a xlink:href="Array_2IR_2OpInterfaces_8h_8inc.html" target="_top" xlink:title=" ">
<polygon fill="white" stroke="#666666" points="2451.38,-229.25 2331.12,-229.25 2331.12,-195.75 2451.38,-195.75 2451.38,-229.25"/>
<text text-anchor="start" x="2339.12" y="-215.75" font-family="Helvetica,sans-Serif" font-size="10.00">llzk/Dialect/Array</text>
<text text-anchor="middle" x="2391.25" y="-203" font-family="Helvetica,sans-Serif" font-size="10.00">/IR/OpInterfaces.h.inc</text>
</a>
</g>
</g>
<!-- Node1&#45;&gt;Node43 -->
<g id="edge55_Node000001_Node000043" class="edge">
<title>Node1&#45;&gt;Node43</title>
<g id="a_edge55_Node000001_Node000043"><a xlink:title=" ">
<path fill="none" stroke="#63b8ff" d="M2100.04,-271.43C2153.55,-261.93 2237.58,-246.62 2319.43,-229.79"/>
<polygon fill="#63b8ff" stroke="#63b8ff" points="2320.13,-233.22 2329.22,-227.77 2318.71,-226.37 2320.13,-233.22"/>
</a>
</g>
</g>
<!-- Node44 -->
<g id="Node000044" class="node">
<title>Node44</title>
<g id="a_Node000044"><a xlink:href="Array_2IR_2Ops_8h_8inc.html" target="_top" xlink:title=" ">
<polygon fill="white" stroke="#666666" points="2569.25,-229.25 2469.25,-229.25 2469.25,-195.75 2569.25,-195.75 2569.25,-229.25"/>
<text text-anchor="start" x="2477.25" y="-215.75" font-family="Helvetica,sans-Serif" font-size="10.00">llzk/Dialect/Array</text>
<text text-anchor="middle" x="2519.25" y="-203" font-family="Helvetica,sans-Serif" font-size="10.00">/IR/Ops.h.inc</text>
</a>
</g>
</g>
<!-- Node1&#45;&gt;Node44 -->
<g id="edge56_Node000001_Node000044" class="edge">
<title>Node1&#45;&gt;Node44</title>
<g id="a_edge56_Node000001_Node000044"><a xlink:title=" ">
<path fill="none" stroke="#63b8ff" d="M2100.01,-276.58C2177.58,-269.78 2324.04,-255.02 2457.59,-229.61"/>
<polygon fill="#63b8ff" stroke="#63b8ff" points="2458.18,-233.07 2467.34,-227.73 2456.86,-226.19 2458.18,-233.07"/>
</a>
</g>
</g>
<!-- Node3 -->
<g id="Node000003" class="node">
<title>Node3</title>
<g id="a_Node000003"><a xlink:title=" ">
<polygon fill="#e0e0e0" stroke="#999999" points="110.5,-83.88 0,-83.88 0,-63.12 110.5,-63.12 110.5,-83.88"/>
<text text-anchor="middle" x="55.25" y="-70.38" font-family="Helvetica,sans-Serif" font-size="10.00">mlir/IR/BuiltinOps.h</text>
</a>
</g>
</g>
<!-- Node2&#45;&gt;Node3 -->
<g id="edge2_Node000002_Node000003" class="edge">
<title>Node2&#45;&gt;Node3</title>
<g id="a_edge2_Node000002_Node000003"><a xlink:title=" ">
<path fill="none" stroke="#63b8ff" d="M153.35,-125.83C132.28,-114.81 104.57,-100.3 83.97,-89.53"/>
<polygon fill="#63b8ff" stroke="#63b8ff" points="85.75,-86.51 75.26,-84.97 82.5,-92.71 85.75,-86.51"/>
</a>
</g>
</g>
<!-- Node4 -->
<g id="Node000004" class="node">
<title>Node4</title>
<g id="a_Node000004"><a xlink:href="Array_2IR_2Dialect_8h_8inc.html" target="_top" xlink:title=" ">
<polygon fill="white" stroke="#666666" points="228.25,-90.25 128.25,-90.25 128.25,-56.75 228.25,-56.75 228.25,-90.25"/>
<text text-anchor="start" x="136.25" y="-76.75" font-family="Helvetica,sans-Serif" font-size="10.00">llzk/Dialect/Array</text>
<text text-anchor="middle" x="178.25" y="-64" font-family="Helvetica,sans-Serif" font-size="10.00">/IR/Dialect.h.inc</text>
</a>
</g>
</g>
<!-- Node2&#45;&gt;Node4 -->
<g id="edge3_Node000002_Node000004" class="edge">
<title>Node2&#45;&gt;Node4</title>
<g id="a_edge3_Node000002_Node000004"><a xlink:title=" ">
<path fill="none" stroke="#63b8ff" d="M182.83,-126C182.19,-118.77 181.41,-110.03 180.68,-101.81"/>
<polygon fill="#63b8ff" stroke="#63b8ff" points="184.17,-101.54 179.8,-91.89 177.19,-102.16 184.17,-101.54"/>
</a>
</g>
</g>
<!-- Node5&#45;&gt;Node2 -->
<g id="edge5_Node000005_Node000002" class="edge">
<title>Node5&#45;&gt;Node2</title>
<g id="a_edge5_Node000005_Node000002"><a xlink:title=" ">
<path fill="none" stroke="#63b8ff" d="M401.03,-198.8C356.98,-187.67 292.78,-171.44 245.68,-159.53"/>
<polygon fill="#63b8ff" stroke="#63b8ff" points="246.72,-156.18 236.17,-157.12 245,-162.97 246.72,-156.18"/>
</a>
</g>
</g>
<!-- Node6 -->
<g id="Node000006" class="node">
<title>Node6</title>
<g id="a_Node000006"><a xlink:href="ErrorHelper_8h.html" target="_top" xlink:title=" ">
<polygon fill="white" stroke="#666666" points="824.38,-83.88 704.12,-83.88 704.12,-63.12 824.38,-63.12 824.38,-83.88"/>
<text text-anchor="middle" x="764.25" y="-70.38" font-family="Helvetica,sans-Serif" font-size="10.00">llzk/Util/ErrorHelper.h</text>
</a>
</g>
</g>
<!-- Node5&#45;&gt;Node6 -->
<g id="edge6_Node000005_Node000006" class="edge">
<title>Node5&#45;&gt;Node6</title>
<g id="a_edge6_Node000005_Node000006"><a xlink:title=" ">
<path fill="none" stroke="#63b8ff" d="M501.49,-205.86C545.94,-199.37 611.58,-186.01 663.25,-159.75 696.98,-142.61 729.16,-112.18 747.79,-92.7"/>
<polygon fill="#63b8ff" stroke="#63b8ff" points="750.28,-95.16 754.55,-85.46 745.16,-90.38 750.28,-95.16"/>
</a>
</g>
</g>
<!-- Node13 -->
<g id="Node000013" class="node">
<title>Node13</title>
<g id="a_Node000013"><a xlink:title=" ">
<polygon fill="#e0e0e0" stroke="#999999" points="526,-159.75 376.5,-159.75 376.5,-126.25 526,-126.25 526,-159.75"/>
<text text-anchor="start" x="384.5" y="-146.25" font-family="Helvetica,sans-Serif" font-size="10.00">mlir/Interfaces/MemorySlot</text>
<text text-anchor="middle" x="451.25" y="-133.5" font-family="Helvetica,sans-Serif" font-size="10.00">Interfaces.h</text>
</a>
</g>
</g>
<!-- Node5&#45;&gt;Node13 -->
<g id="edge13_Node000005_Node000013" class="edge">
<title>Node5&#45;&gt;Node13</title>
<g id="a_edge13_Node000005_Node000013"><a xlink:title=" ">
<path fill="none" stroke="#63b8ff" d="M451.25,-195.5C451.25,-188.27 451.25,-179.53 451.25,-171.31"/>
<polygon fill="#63b8ff" stroke="#63b8ff" points="454.75,-171.4 451.25,-161.4 447.75,-171.4 454.75,-171.4"/>
</a>
</g>
</g>
<!-- Node14 -->
<g id="Node000014" class="node">
<title>Node14</title>
<g id="a_Node000014"><a xlink:href="Array_2IR_2Types_8h_8inc.html" target="_top" xlink:title=" ">
<polygon fill="white" stroke="#666666" points="358.25,-159.75 258.25,-159.75 258.25,-126.25 358.25,-126.25 358.25,-159.75"/>
<text text-anchor="start" x="266.25" y="-146.25" font-family="Helvetica,sans-Serif" font-size="10.00">llzk/Dialect/Array</text>
<text text-anchor="middle" x="308.25" y="-133.5" font-family="Helvetica,sans-Serif" font-size="10.00">/IR/Types.h.inc</text>
</a>
</g>
</g>
<!-- Node5&#45;&gt;Node14 -->
<g id="edge14_Node000005_Node000014" class="edge">
<title>Node5&#45;&gt;Node14</title>
<g id="a_edge14_Node000005_Node000014"><a xlink:title=" ">
<path fill="none" stroke="#63b8ff" d="M417,-195.33C397.63,-186.19 373.2,-174.66 352.41,-164.84"/>
<polygon fill="#63b8ff" stroke="#63b8ff" points="354.13,-161.79 343.59,-160.68 351.14,-168.12 354.13,-161.79"/>
</a>
</g>
</g>
<!-- Node7 -->
<g id="Node000007" class="node">
<title>Node7</title>
<g id="a_Node000007"><a xlink:title=" ">
<polygon fill="#e0e0e0" stroke="#999999" points="690.88,-20.75 573.62,-20.75 573.62,0 690.88,0 690.88,-20.75"/>
<text text-anchor="middle" x="632.25" y="-7.25" font-family="Helvetica,sans-Serif" font-size="10.00">mlir/IR/Diagnostics.h</text>
</a>
</g>
</g>
<!-- Node6&#45;&gt;Node7 -->
<g id="edge7_Node000006_Node000007" class="edge">
<title>Node6&#45;&gt;Node7</title>
<g id="a_edge7_Node000006_Node000007"><a xlink:title=" ">
<path fill="none" stroke="#63b8ff" d="M743.04,-62.68C721.58,-52.74 688.17,-37.27 663.64,-25.91"/>
<polygon fill="#63b8ff" stroke="#63b8ff" points="665.32,-22.83 654.78,-21.81 662.38,-29.19 665.32,-22.83"/>
</a>
</g>
</g>
<!-- Node8 -->
<g id="Node000008" class="node">
<title>Node8</title>
<g id="a_Node000008"><a xlink:title=" ">
<polygon fill="#e0e0e0" stroke="#999999" points="1264.38,-20.75 1156.12,-20.75 1156.12,0 1264.38,0 1264.38,-20.75"/>
<text text-anchor="middle" x="1210.25" y="-7.25" font-family="Helvetica,sans-Serif" font-size="10.00">mlir/IR/Operation.h</text>
</a>
</g>
</g>
<!-- Node6&#45;&gt;Node8 -->
<g id="edge8_Node000006_Node000008" class="edge">
<title>Node6&#45;&gt;Node8</title>
<g id="a_edge8_Node000006_Node000008"><a xlink:title=" ">
<path fill="none" stroke="#63b8ff" d="M804.45,-62.68C814.17,-60.52 824.55,-58.39 834.25,-56.75 968.67,-33.96 1006.45,-38.78 1144.21,-21.1"/>
<polygon fill="#63b8ff" stroke="#63b8ff" points="1144.66,-24.57 1154.13,-19.81 1143.76,-17.63 1144.66,-24.57"/>
</a>
</g>
</g>
<!-- Node9 -->
<g id="Node000009" class="node">
<title>Node9</title>
<g id="a_Node000009"><a xlink:title=" ">
<polygon fill="#e0e0e0" stroke="#999999" points="879.88,-20.75 708.62,-20.75 708.62,0 879.88,0 879.88,-20.75"/>
<text text-anchor="middle" x="794.25" y="-7.25" font-family="Helvetica,sans-Serif" font-size="10.00">llvm/ADT/STLFunctionalExtras.h</text>
</a>
</g>
</g>
<!-- Node6&#45;&gt;Node9 -->
<g id="edge9_Node000006_Node000009" class="edge">
<title>Node6&#45;&gt;Node9</title>
<g id="a_edge9_Node000006_Node000009"><a xlink:title=" ">
<path fill="none" stroke="#63b8ff" d="M769.07,-62.68C773.25,-54.16 779.43,-41.58 784.62,-31.01"/>
<polygon fill="#63b8ff" stroke="#63b8ff" points="787.61,-32.85 788.87,-22.33 781.33,-29.76 787.61,-32.85"/>
</a>
</g>
</g>
<!-- Node10 -->
<g id="Node000010" class="node">
<title>Node10</title>
<g id="a_Node000010"><a xlink:title=" ">
<polygon fill="#e0e0e0" stroke="#999999" points="998.62,-20.75 897.88,-20.75 897.88,0 998.62,0 998.62,-20.75"/>
<text text-anchor="middle" x="948.25" y="-7.25" font-family="Helvetica,sans-Serif" font-size="10.00">llvm/ADT/Twine.h</text>
</a>
</g>
</g>
<!-- Node6&#45;&gt;Node10 -->
<g id="edge10_Node000006_Node000010" class="edge">
<title>Node6&#45;&gt;Node10</title>
<g id="a_edge10_Node000006_Node000010"><a xlink:title=" ">
<path fill="none" stroke="#63b8ff" d="M793.81,-62.68C824.8,-52.39 873.67,-36.15 908.12,-24.71"/>
<polygon fill="#63b8ff" stroke="#63b8ff" points="908.94,-28.12 917.32,-21.65 906.73,-21.48 908.94,-28.12"/>
</a>
</g>
</g>
<!-- Node11 -->
<g id="Node000011" class="node">
<title>Node11</title>
<g id="a_Node000011"><a xlink:title=" ">
<polygon fill="#e0e0e0" stroke="#999999" points="486.75,-20.75 329.75,-20.75 329.75,0 486.75,0 486.75,-20.75"/>
<text text-anchor="middle" x="408.25" y="-7.25" font-family="Helvetica,sans-Serif" font-size="10.00">llvm/Support/ErrorHandling.h</text>
</a>
</g>
</g>
<!-- Node6&#45;&gt;Node11 -->
<g id="edge11_Node000006_Node000011" class="edge">
<title>Node6&#45;&gt;Node11</title>
<g id="a_edge11_Node000006_Node000011"><a xlink:title=" ">
<path fill="none" stroke="#63b8ff" d="M722.51,-62.65C713.23,-60.59 703.43,-58.51 694.25,-56.75 625.51,-43.58 546.95,-31.31 489.58,-22.86"/>
<polygon fill="#63b8ff" stroke="#63b8ff" points="490.3,-19.43 479.9,-21.45 489.29,-26.36 490.3,-19.43"/>
</a>
</g>
</g>
<!-- Node12 -->
<g id="Node000012" class="node">
<title>Node12</title>
<g id="a_Node000012"><a xlink:title=" ">
<polygon fill="#e0e0e0" stroke="#999999" points="555.5,-20.75 505,-20.75 505,0 555.5,0 555.5,-20.75"/>
<text text-anchor="middle" x="530.25" y="-7.25" font-family="Helvetica,sans-Serif" font-size="10.00">variant</text>
</a>
</g>
</g>
<!-- Node6&#45;&gt;Node12 -->
<g id="edge12_Node000006_Node000012" class="edge">
<title>Node6&#45;&gt;Node12</title>
<g id="a_edge12_Node000006_Node000012"><a xlink:title=" ">
<path fill="none" stroke="#63b8ff" d="M725.49,-62.66C687.44,-52.97 627.49,-37.57 566.79,-21.4"/>
<polygon fill="#63b8ff" stroke="#63b8ff" points="567.88,-18.07 557.32,-18.87 566.08,-24.83 567.88,-18.07"/>
</a>
</g>
</g>
<!-- Node15&#45;&gt;Node6 -->
<g id="edge32_Node000015_Node000006" class="edge">
<title>Node15&#45;&gt;Node6</title>
<g id="a_edge32_Node000015_Node000006"><a xlink:title=" ">
<path fill="none" stroke="#63b8ff" d="M1283.39,-207.65C1233.18,-202.3 1157.36,-189.62 1098.25,-159.75 1078.16,-149.6 1080.62,-135.85 1060.25,-126.25 968.24,-82.9 934.14,-109.42 834.25,-90.25 828.66,-89.18 822.83,-87.98 817.03,-86.75"/>
<polygon fill="#63b8ff" stroke="#63b8ff" points="817.98,-83.37 807.47,-84.67 816.49,-90.21 817.98,-83.37"/>
</a>
</g>
</g>
<!-- Node15&#45;&gt;Node8 -->
<g id="edge43_Node000015_Node000008" class="edge">
<title>Node15&#45;&gt;Node8</title>
<g id="a_edge43_Node000015_Node000008"><a xlink:title=" ">
<path fill="none" stroke="#63b8ff" d="M1331.17,-195.56C1325.11,-176.67 1318.84,-145.34 1335.25,-126.25 1404.7,-45.45 1502.8,-171.05 1572.25,-90.25 1581.96,-78.96 1582.1,-67.91 1572.25,-56.75 1553,-34.94 1374.93,-21.06 1275.92,-14.97"/>
<polygon fill="#63b8ff" stroke="#63b8ff" points="1276.24,-11.48 1266.05,-14.37 1275.82,-18.47 1276.24,-11.48"/>
</a>
</g>
</g>
<!-- Node16 -->
<g id="Node000016" class="node">
<title>Node16</title>
<g id="a_Node000016"><a xlink:href="AttributeHelper_8h.html" target="_top" xlink:title=" ">
<polygon fill="white" stroke="#666666" points="654.5,-159.75 544,-159.75 544,-126.25 654.5,-126.25 654.5,-159.75"/>
<text text-anchor="start" x="552" y="-146.25" font-family="Helvetica,sans-Serif" font-size="10.00">llzk/Dialect/LLZK/IR</text>
<text text-anchor="middle" x="599.25" y="-133.5" font-family="Helvetica,sans-Serif" font-size="10.00">/AttributeHelper.h</text>
</a>
</g>
</g>
<!-- Node15&#45;&gt;Node16 -->
<g id="edge16_Node000015_Node000016" class="edge">
<title>Node15&#45;&gt;Node16</title>
<g id="a_edge16_Node000015_Node000016"><a xlink:title=" ">
<path fill="none" stroke="#63b8ff" d="M1283.28,-206.56C1151.04,-194.47 811.1,-163.38 666.24,-150.13"/>
<polygon fill="#63b8ff" stroke="#63b8ff" points="666.7,-146.65 656.42,-149.23 666.06,-153.63 666.7,-146.65"/>
</a>
</g>
</g>
<!-- Node21 -->
<g id="Node000021" class="node">
<title>Node21</title>
<g id="a_Node000021"><a xlink:href="AffineHelper_8h.html" target="_top" xlink:title=" ">
<polygon fill="white" stroke="#666666" points="1233,-153.38 1107.5,-153.38 1107.5,-132.62 1233,-132.62 1233,-153.38"/>
<text text-anchor="middle" x="1170.25" y="-139.88" font-family="Helvetica,sans-Serif" font-size="10.00">llzk/Util/AffineHelper.h</text>
</a>
</g>
</g>
<!-- Node15&#45;&gt;Node21 -->
<g id="edge21_Node000015_Node000021" class="edge">
<title>Node15&#45;&gt;Node21</title>
<g id="a_edge21_Node000015_Node000021"><a xlink:title=" ">
<path fill="none" stroke="#63b8ff" d="M1297.25,-195.33C1269.09,-183.95 1231.78,-168.87 1204.89,-158"/>
<polygon fill="#63b8ff" stroke="#63b8ff" points="1206.41,-154.84 1195.83,-154.34 1203.79,-161.33 1206.41,-154.84"/>
</a>
</g>
</g>
<!-- Node26 -->
<g id="Node000026" class="node">
<title>Node26</title>
<g id="a_Node000026"><a xlink:title=" ">
<polygon fill="#e0e0e0" stroke="#999999" points="1563.12,-83.88 1411.38,-83.88 1411.38,-63.12 1563.12,-63.12 1563.12,-83.88"/>
<text text-anchor="middle" x="1487.25" y="-70.38" font-family="Helvetica,sans-Serif" font-size="10.00">mlir/IR/OpImplementation.h</text>
</a>
</g>
</g>
<!-- Node15&#45;&gt;Node26 -->
<g id="edge42_Node000015_Node000026" class="edge">
<title>Node15&#45;&gt;Node26</title>
<g id="a_edge42_Node000015_Node000026"><a xlink:title=" ">
<path fill="none" stroke="#63b8ff" d="M1315.56,-195.41C1294.38,-177.73 1267.71,-148.85 1285.25,-126.25 1293.98,-115 1368.35,-98.02 1424.33,-86.61"/>
<polygon fill="#63b8ff" stroke="#63b8ff" points="1425.02,-90.04 1434.13,-84.63 1423.63,-83.18 1425.02,-90.04"/>
</a>
</g>
</g>
<!-- Node29 -->
<g id="Node000029" class="node">
<title>Node29</title>
<g id="a_Node000029"><a xlink:href="llzk_2Util_2Constants_8h.html" target="_top" xlink:title=" ">
<polygon fill="white" stroke="#666666" points="1479.38,-153.38 1365.12,-153.38 1365.12,-132.62 1479.38,-132.62 1479.38,-153.38"/>
<text text-anchor="middle" x="1422.25" y="-139.88" font-family="Helvetica,sans-Serif" font-size="10.00">llzk/Util/Constants.h</text>
</a>
</g>
</g>
<!-- Node15&#45;&gt;Node29 -->
<g id="edge31_Node000015_Node000029" class="edge">
<title>Node15&#45;&gt;Node29</title>
<g id="a_edge31_Node000015_Node000029"><a xlink:title=" ">
<path fill="none" stroke="#63b8ff" d="M1357.39,-195.5C1370.51,-185.09 1387.6,-171.52 1400.94,-160.92"/>
<polygon fill="#63b8ff" stroke="#63b8ff" points="1403.04,-163.72 1408.7,-154.76 1398.69,-158.24 1403.04,-163.72"/>
</a>
</g>
</g>
<!-- Node15&#45;&gt;Node30 -->
<g id="edge33_Node000015_Node000030" class="edge">
<title>Node15&#45;&gt;Node30</title>
<g id="a_edge33_Node000015_Node000030"><a xlink:title=" ">
<path fill="none" stroke="#63b8ff" d="M1391.48,-207.68C1482.52,-200.85 1671.72,-184.87 1830.25,-159.75 1836.82,-158.71 1843.68,-157.47 1850.46,-156.14"/>
<polygon fill="#63b8ff" stroke="#63b8ff" points="1851.15,-159.57 1860.26,-154.15 1849.76,-152.71 1851.15,-159.57"/>
</a>
</g>
</g>
<!-- Node31 -->
<g id="Node000031" class="node">
<title>Node31</title>
<g id="a_Node000031"><a xlink:title=" ">
<polygon fill="#e0e0e0" stroke="#999999" points="1877.5,-83.88 1755,-83.88 1755,-63.12 1877.5,-63.12 1877.5,-83.88"/>
<text text-anchor="middle" x="1816.25" y="-70.38" font-family="Helvetica,sans-Serif" font-size="10.00">mlir/IR/SymbolTable.h</text>
</a>
</g>
</g>
<!-- Node15&#45;&gt;Node31 -->
<g id="edge44_Node000015_Node000031" class="edge">
<title>Node15&#45;&gt;Node31</title>
<g id="a_edge44_Node000015_Node000031"><a xlink:title=" ">
<path fill="none" stroke="#63b8ff" d="M1391.09,-208.92C1506.04,-202.92 1767.5,-186.47 1797.25,-159.75 1815.02,-143.79 1818.12,-115.2 1817.87,-95.56"/>
<polygon fill="#63b8ff" stroke="#63b8ff" points="1821.37,-95.51 1817.41,-85.68 1814.38,-95.84 1821.37,-95.51"/>
</a>
</g>
</g>
<!-- Node34 -->
<g id="Node000034" class="node">
<title>Node34</title>
<g id="a_Node000034"><a xlink:title=" ">
<polygon fill="#e0e0e0" stroke="#999999" points="1736.88,-83.88 1619.62,-83.88 1619.62,-63.12 1736.88,-63.12 1736.88,-83.88"/>
<text text-anchor="middle" x="1678.25" y="-70.38" font-family="Helvetica,sans-Serif" font-size="10.00">llvm/ADT/StringRef.h</text>
</a>
</g>
</g>
<!-- Node15&#45;&gt;Node34 -->
<g id="edge47_Node000015_Node000034" class="edge">
<title>Node15&#45;&gt;Node34</title>
<g id="a_edge47_Node000015_Node000034"><a xlink:title=" ">
<path fill="none" stroke="#63b8ff" d="M1335.85,-195.38C1335.14,-175.99 1337.23,-143.88 1356.25,-126.25 1397.25,-88.24 1550.23,-100.15 1605.25,-90.25 1611.31,-89.16 1617.64,-87.93 1623.92,-86.65"/>
<polygon fill="#63b8ff" stroke="#63b8ff" points="1624.56,-90.1 1633.63,-84.63 1623.13,-83.24 1624.56,-90.1"/>
</a>
</g>
</g>
<!-- Node35 -->
<g id="Node000035" class="node">
<title>Node35</title>
<g id="a_Node000035"><a xlink:title=" ">
<polygon fill="#e0e0e0" stroke="#999999" points="1617,-153.38 1497.5,-153.38 1497.5,-132.62 1617,-132.62 1617,-153.38"/>
<text text-anchor="middle" x="1557.25" y="-139.88" font-family="Helvetica,sans-Serif" font-size="10.00">mlir/IR/BuiltinTypes.h</text>
</a>
</g>
</g>
<!-- Node15&#45;&gt;Node35 -->
<g id="edge41_Node000015_Node000035" class="edge">
<title>Node15&#45;&gt;Node35</title>
<g id="a_edge41_Node000015_Node000035"><a xlink:title=" ">
<path fill="none" stroke="#63b8ff" d="M1389.95,-195.33C1427.91,-183.68 1478.52,-168.16 1514.09,-157.24"/>
<polygon fill="#63b8ff" stroke="#63b8ff" points="1515.1,-160.59 1523.64,-154.31 1513.05,-153.9 1515.1,-160.59"/>
</a>
</g>
</g>
<!-- Node36 -->
<g id="Node000036" class="node">
<title>Node36</title>
<g id="a_Node000036"><a xlink:title=" ">
<polygon fill="#e0e0e0" stroke="#999999" points="1787.88,-153.38 1634.62,-153.38 1634.62,-132.62 1787.88,-132.62 1787.88,-153.38"/>
<text text-anchor="middle" x="1711.25" y="-139.88" font-family="Helvetica,sans-Serif" font-size="10.00">mlir/Support/LogicalResult.h</text>
</a>
</g>
</g>
<!-- Node15&#45;&gt;Node36 -->
<g id="edge45_Node000015_Node000036" class="edge">
<title>Node15&#45;&gt;Node36</title>
<g id="a_edge45_Node000015_Node000036"><a xlink:title=" ">
<path fill="none" stroke="#63b8ff" d="M1391.33,-201.92C1449.41,-191.6 1544.39,-174.66 1626.25,-159.75 1633.13,-158.5 1640.32,-157.18 1647.48,-155.86"/>
<polygon fill="#63b8ff" stroke="#63b8ff" points="1647.97,-159.33 1657.17,-154.07 1646.7,-152.44 1647.97,-159.33"/>
</a>
</g>
</g>
<!-- Node37 -->
<g id="Node000037" class="node">
<title>Node37</title>
<g id="a_Node000037"><a xlink:title=" ">
<polygon fill="#e0e0e0" stroke="#999999" points="1050.88,-153.38 921.62,-153.38 921.62,-132.62 1050.88,-132.62 1050.88,-153.38"/>
<text text-anchor="middle" x="986.25" y="-139.88" font-family="Helvetica,sans-Serif" font-size="10.00">llvm/ADT/SmallString.h</text>
</a>
</g>
</g>
<!-- Node15&#45;&gt;Node37 -->
<g id="edge46_Node000015_Node000037" class="edge">
<title>Node15&#45;&gt;Node37</title>
<g id="a_edge46_Node000015_Node000037"><a xlink:title=" ">
<path fill="none" stroke="#63b8ff" d="M1283.04,-201.33C1228.12,-190.99 1140.74,-174.46 1065.25,-159.75 1059.01,-158.53 1052.49,-157.25 1045.99,-155.97"/>
<polygon fill="#63b8ff" stroke="#63b8ff" points="1047.1,-152.62 1036.61,-154.11 1045.73,-159.49 1047.1,-152.62"/>
</a>
</g>
</g>
<!-- Node17 -->
<g id="Node000017" class="node">
<title>Node17</title>
<g id="a_Node000017"><a xlink:href="StreamHelper_8h.html" target="_top" xlink:title=" ">
<polygon fill="white" stroke="#666666" points="494.38,-83.88 362.12,-83.88 362.12,-63.12 494.38,-63.12 494.38,-83.88"/>
<text text-anchor="middle" x="428.25" y="-70.38" font-family="Helvetica,sans-Serif" font-size="10.00">llzk/Util/StreamHelper.h</text>
</a>
</g>
</g>
<!-- Node16&#45;&gt;Node17 -->
<g id="edge17_Node000016_Node000017" class="edge">
<title>Node16&#45;&gt;Node17</title>
<g id="a_edge17_Node000016_Node000017"><a xlink:title=" ">
<path fill="none" stroke="#63b8ff" d="M558.29,-125.83C529.33,-114.4 490.91,-99.24 463.36,-88.36"/>
<polygon fill="#63b8ff" stroke="#63b8ff" points="465,-85.24 454.41,-84.83 462.43,-91.75 465,-85.24"/>
</a>
</g>
</g>
<!-- Node19 -->
<g id="Node000019" class="node">
<title>Node19</title>
<g id="a_Node000019"><a xlink:title=" ">
<polygon fill="#e0e0e0" stroke="#999999" points="685.62,-83.88 512.88,-83.88 512.88,-63.12 685.62,-63.12 685.62,-83.88"/>
<text text-anchor="middle" x="599.25" y="-70.38" font-family="Helvetica,sans-Serif" font-size="10.00">mlir/IR/DialectImplementation.h</text>
</a>
</g>
</g>
<!-- Node16&#45;&gt;Node19 -->
<g id="edge19_Node000016_Node000019" class="edge">
<title>Node16&#45;&gt;Node19</title>
<g id="a_edge19_Node000016_Node000019"><a xlink:title=" ">
<path fill="none" stroke="#63b8ff" d="M599.25,-126C599.25,-116.9 599.25,-105.39 599.25,-95.57"/>
<polygon fill="#63b8ff" stroke="#63b8ff" points="602.75,-95.84 599.25,-85.84 595.75,-95.84 602.75,-95.84"/>
</a>
</g>
</g>
<!-- Node20 -->
<g id="Node000020" class="node">
<title>Node20</title>
<g id="a_Node000020"><a xlink:title=" ">
<polygon fill="#e0e0e0" stroke="#999999" points="344.5,-83.88 246,-83.88 246,-63.12 344.5,-63.12 344.5,-83.88"/>
<text text-anchor="middle" x="295.25" y="-70.38" font-family="Helvetica,sans-Serif" font-size="10.00">llvm/ADT/APInt.h</text>
</a>
</g>
</g>
<!-- Node16&#45;&gt;Node20 -->
<g id="edge20_Node000016_Node000020" class="edge">
<title>Node16&#45;&gt;Node20</title>
<g id="a_edge20_Node000016_Node000020"><a xlink:title=" ">
<path fill="none" stroke="#63b8ff" d="M543.78,-128.18C540.9,-127.52 538.04,-126.87 535.25,-126.25 454.75,-108.39 433.53,-109.07 353.25,-90.25 349.2,-89.3 345.01,-88.27 340.82,-87.2"/>
<polygon fill="#63b8ff" stroke="#63b8ff" points="341.83,-83.84 331.27,-84.69 340.06,-90.61 341.83,-83.84"/>
</a>
</g>
</g>
<!-- Node18 -->
<g id="Node000018" class="node">
<title>Node18</title>
<g id="a_Node000018"><a xlink:title=" ">
<polygon fill="#e0e0e0" stroke="#999999" points="311.25,-20.75 157.25,-20.75 157.25,0 311.25,0 311.25,-20.75"/>
<text text-anchor="middle" x="234.25" y="-7.25" font-family="Helvetica,sans-Serif" font-size="10.00">llvm/Support/raw_ostream.h</text>
</a>
</g>
</g>
<!-- Node17&#45;&gt;Node18 -->
<g id="edge18_Node000017_Node000018" class="edge">
<title>Node17&#45;&gt;Node18</title>
<g id="a_edge18_Node000017_Node000018"><a xlink:title=" ">
<path fill="none" stroke="#63b8ff" d="M397.08,-62.68C364.27,-52.34 312.44,-36.01 276.09,-24.56"/>
<polygon fill="#63b8ff" stroke="#63b8ff" points="277.38,-21.29 266.79,-21.63 275.27,-27.97 277.38,-21.29"/>
</a>
</g>
</g>
<!-- Node21&#45;&gt;Node8 -->
<g id="edge28_Node000021_Node000008" class="edge">
<title>Node21&#45;&gt;Node8</title>
<g id="a_edge28_Node000021_Node000008"><a xlink:title=" ">
<path fill="none" stroke="#63b8ff" d="M1163.5,-132.31C1153.02,-115.98 1135.32,-82.24 1148.25,-56.75 1154.64,-44.15 1166.37,-34.2 1177.91,-26.88"/>
<polygon fill="#63b8ff" stroke="#63b8ff" points="1179.66,-29.91 1186.56,-21.87 1176.16,-23.85 1179.66,-29.91"/>
</a>
</g>
</g>
<!-- Node22 -->
<g id="Node000022" class="node">
<title>Node22</title>
<g id="a_Node000022"><a xlink:href="Compare_8h.html" target="_top" xlink:title=" ">
<polygon fill="white" stroke="#666666" points="1101.12,-83.88 991.38,-83.88 991.38,-63.12 1101.12,-63.12 1101.12,-83.88"/>
<text text-anchor="middle" x="1046.25" y="-70.38" font-family="Helvetica,sans-Serif" font-size="10.00">llzk/Util/Compare.h</text>
</a>
</g>
</g>
<!-- Node21&#45;&gt;Node22 -->
<g id="edge22_Node000021_Node000022" class="edge">
<title>Node21&#45;&gt;Node22</title>
<g id="a_edge22_Node000021_Node000022"><a xlink:title=" ">
<path fill="none" stroke="#63b8ff" d="M1152.22,-132.18C1131.74,-121.04 1098.08,-102.71 1074.19,-89.71"/>
<polygon fill="#63b8ff" stroke="#63b8ff" points="1076.09,-86.76 1065.63,-85.05 1072.74,-92.91 1076.09,-86.76"/>
</a>
</g>
</g>
<!-- Node25 -->
<g id="Node000025" class="node">
<title>Node25</title>
<g id="a_Node000025"><a xlink:title=" ">
<polygon fill="#e0e0e0" stroke="#999999" points="1257.25,-83.88 1157.25,-83.88 1157.25,-63.12 1257.25,-63.12 1257.25,-83.88"/>
<text text-anchor="middle" x="1207.25" y="-70.38" font-family="Helvetica,sans-Serif" font-size="10.00">mlir/IR/Builders.h</text>
</a>
</g>
</g>
<!-- Node21&#45;&gt;Node25 -->
<g id="edge26_Node000021_Node000025" class="edge">
<title>Node21&#45;&gt;Node25</title>
<g id="a_edge26_Node000021_Node000025"><a xlink:title=" ">
<path fill="none" stroke="#63b8ff" d="M1175.55,-132.33C1180.99,-122.4 1189.61,-106.68 1196.49,-94.14"/>
<polygon fill="#63b8ff" stroke="#63b8ff" points="1199.49,-95.93 1201.23,-85.48 1193.36,-92.57 1199.49,-95.93"/>
</a>
</g>
</g>
<!-- Node21&#45;&gt;Node26 -->
<g id="edge27_Node000021_Node000026" class="edge">
<title>Node21&#45;&gt;Node26</title>
<g id="a_edge27_Node000021_Node000026"><a xlink:title=" ">
<path fill="none" stroke="#63b8ff" d="M1216.34,-132.18C1272.92,-120.14 1368.87,-99.71 1430.09,-86.67"/>
<polygon fill="#63b8ff" stroke="#63b8ff" points="1430.57,-90.15 1439.62,-84.64 1429.11,-83.3 1430.57,-90.15"/>
</a>
</g>
</g>
<!-- Node27 -->
<g id="Node000027" class="node">
<title>Node27</title>
<g id="a_Node000027"><a xlink:title=" ">
<polygon fill="#e0e0e0" stroke="#999999" points="1393.25,-83.88 1275.25,-83.88 1275.25,-63.12 1393.25,-63.12 1393.25,-83.88"/>
<text text-anchor="middle" x="1334.25" y="-70.38" font-family="Helvetica,sans-Serif" font-size="10.00">mlir/IR/ValueRange.h</text>
</a>
</g>
</g>
<!-- Node21&#45;&gt;Node27 -->
<g id="edge29_Node000021_Node000027" class="edge">
<title>Node21&#45;&gt;Node27</title>
<g id="a_edge29_Node000021_Node000027"><a xlink:title=" ">
<path fill="none" stroke="#63b8ff" d="M1194.1,-132.18C1221.91,-120.74 1268.12,-101.72 1299.82,-88.67"/>
<polygon fill="#63b8ff" stroke="#63b8ff" points="1301.06,-91.95 1308.97,-84.9 1298.4,-85.47 1301.06,-91.95"/>
</a>
</g>
</g>
<!-- Node28 -->
<g id="Node000028" class="node">
<title>Node28</title>
<g id="a_Node000028"><a xlink:title=" ">
<polygon fill="#e0e0e0" stroke="#999999" points="973.62,-83.88 842.88,-83.88 842.88,-63.12 973.62,-63.12 973.62,-83.88"/>
<text text-anchor="middle" x="908.25" y="-70.38" font-family="Helvetica,sans-Serif" font-size="10.00">llvm/ADT/SmallVector.h</text>
</a>
</g>
</g>
<!-- Node21&#45;&gt;Node28 -->
<g id="edge30_Node000021_Node000028" class="edge">
<title>Node21&#45;&gt;Node28</title>
<g id="a_edge30_Node000021_Node000028"><a xlink:title=" ">
<path fill="none" stroke="#63b8ff" d="M1132.15,-132.18C1085.97,-120.29 1008.06,-100.21 957.39,-87.16"/>
<polygon fill="#63b8ff" stroke="#63b8ff" points="958.42,-83.81 947.86,-84.7 956.67,-90.59 958.42,-83.81"/>
</a>
</g>
</g>
<!-- Node22&#45;&gt;Node8 -->
<g id="edge23_Node000022_Node000008" class="edge">
<title>Node22&#45;&gt;Node8</title>
<g id="a_edge23_Node000022_Node000008"><a xlink:title=" ">
<path fill="none" stroke="#63b8ff" d="M1072.6,-62.68C1099.86,-52.52 1142.65,-36.57 1173.28,-25.15"/>
<polygon fill="#63b8ff" stroke="#63b8ff" points="1174.4,-28.47 1182.55,-21.7 1171.96,-21.91 1174.4,-28.47"/>
</a>
</g>
</g>
<!-- Node23 -->
<g id="Node000023" class="node">
<title>Node23</title>
<g id="a_Node000023"><a xlink:title=" ">
<polygon fill="#e0e0e0" stroke="#999999" points="1076,-20.75 1016.5,-20.75 1016.5,0 1076,0 1076,-20.75"/>
<text text-anchor="middle" x="1046.25" y="-7.25" font-family="Helvetica,sans-Serif" font-size="10.00">concepts</text>
</a>
</g>
</g>
<!-- Node22&#45;&gt;Node23 -->
<g id="edge24_Node000022_Node000023" class="edge">
<title>Node22&#45;&gt;Node23</title>
<g id="a_edge24_Node000022_Node000023"><a xlink:title=" ">
<path fill="none" stroke="#63b8ff" d="M1046.25,-62.68C1046.25,-54.52 1046.25,-42.63 1046.25,-32.35"/>
<polygon fill="#63b8ff" stroke="#63b8ff" points="1049.75,-32.48 1046.25,-22.48 1042.75,-32.48 1049.75,-32.48"/>
</a>
</g>
</g>
<!-- Node24 -->
<g id="Node000024" class="node">
<title>Node24</title>
<g id="a_Node000024"><a xlink:title=" ">
<polygon fill="#e0e0e0" stroke="#999999" points="1138.5,-20.75 1094,-20.75 1094,0 1138.5,0 1138.5,-20.75"/>
<text text-anchor="middle" x="1116.25" y="-7.25" font-family="Helvetica,sans-Serif" font-size="10.00">utility</text>
</a>
</g>
</g>
<!-- Node22&#45;&gt;Node24 -->
<g id="edge25_Node000022_Node000024" class="edge">
<title>Node22&#45;&gt;Node24</title>
<g id="a_edge25_Node000022_Node000024"><a xlink:title=" ">
<path fill="none" stroke="#63b8ff" d="M1057.5,-62.68C1068.07,-53.45 1084.12,-39.43 1096.77,-28.38"/>
<polygon fill="#63b8ff" stroke="#63b8ff" points="1098.89,-31.18 1104.12,-21.97 1094.29,-25.91 1098.89,-31.18"/>
</a>
</g>
</g>
<!-- Node30&#45;&gt;Node6 -->
<g id="edge34_Node000030_Node000006" class="edge">
<title>Node30&#45;&gt;Node6</title>
<g id="a_edge34_Node000030_Node000006"><a xlink:title=" ">
<path fill="none" stroke="#63b8ff" d="M1845.24,-132.14C1829.67,-129.86 1812.86,-127.69 1797.25,-126.25 1370.75,-87.01 1258.97,-145.49 834.25,-90.25 827.44,-89.36 820.32,-88.13 813.34,-86.74"/>
<polygon fill="#63b8ff" stroke="#63b8ff" points="814.16,-83.34 803.65,-84.68 812.7,-90.18 814.16,-83.34"/>
</a>
</g>
</g>
<!-- Node30&#45;&gt;Node8 -->
<g id="edge36_Node000030_Node000008" class="edge">
<title>Node30&#45;&gt;Node8</title>
<g id="a_edge36_Node000030_Node000008"><a xlink:title=" ">
<path fill="none" stroke="#63b8ff" d="M1905.55,-132.25C1907.34,-114.22 1908.18,-75.79 1886.25,-56.75 1840.84,-17.34 1436.73,-11.94 1275.88,-11.36"/>
<polygon fill="#63b8ff" stroke="#63b8ff" points="1276.25,-7.86 1266.24,-11.33 1276.23,-14.86 1276.25,-7.86"/>
</a>
</g>
</g>
<!-- Node30&#45;&gt;Node26 -->
<g id="edge35_Node000030_Node000026" class="edge">
<title>Node30&#45;&gt;Node26</title>
<g id="a_edge35_Node000030_Node000026"><a xlink:title=" ">
<path fill="none" stroke="#63b8ff" d="M1844.06,-132.26C1768.66,-120.05 1639.62,-99.16 1559.13,-86.13"/>
<polygon fill="#63b8ff" stroke="#63b8ff" points="1560.02,-82.73 1549.59,-84.59 1558.91,-89.64 1560.02,-82.73"/>
</a>
</g>
</g>
<!-- Node30&#45;&gt;Node31 -->
<g id="edge37_Node000030_Node000031" class="edge">
<title>Node30&#45;&gt;Node31</title>
<g id="a_edge37_Node000030_Node000031"><a xlink:title=" ">
<path fill="none" stroke="#63b8ff" d="M1891.64,-132.33C1877.61,-121.56 1854.68,-103.98 1837.79,-91.02"/>
<polygon fill="#63b8ff" stroke="#63b8ff" points="1840.39,-88.6 1830.32,-85.29 1836.13,-94.16 1840.39,-88.6"/>
</a>
</g>
</g>
<!-- Node32 -->
<g id="Node000032" class="node">
<title>Node32</title>
<g id="a_Node000032"><a xlink:title=" ">
<polygon fill="#e0e0e0" stroke="#999999" points="2048.75,-83.88 1933.75,-83.88 1933.75,-63.12 2048.75,-63.12 2048.75,-83.88"/>
<text text-anchor="middle" x="1991.25" y="-70.38" font-family="Helvetica,sans-Serif" font-size="10.00">llvm/ADT/ArrayRef.h</text>
</a>
</g>
</g>
<!-- Node30&#45;&gt;Node32 -->
<g id="edge38_Node000030_Node000032" class="edge">
<title>Node30&#45;&gt;Node32</title>
<g id="a_edge38_Node000030_Node000032"><a xlink:title=" ">
<path fill="none" stroke="#63b8ff" d="M1916.71,-132.33C1930.46,-121.66 1952.84,-104.3 1969.49,-91.38"/>
<polygon fill="#63b8ff" stroke="#63b8ff" points="1971.57,-94.2 1977.33,-85.3 1967.28,-88.67 1971.57,-94.2"/>
</a>
</g>
</g>
<!-- Node33 -->
<g id="Node000033" class="node">
<title>Node33</title>
<g id="a_Node000033"><a xlink:title=" ">
<polygon fill="#e0e0e0" stroke="#999999" points="2191.62,-83.88 2066.88,-83.88 2066.88,-63.12 2191.62,-63.12 2191.62,-83.88"/>
<text text-anchor="middle" x="2129.25" y="-70.38" font-family="Helvetica,sans-Serif" font-size="10.00">llvm/ADT/DenseMap.h</text>
</a>
</g>
</g>
<!-- Node30&#45;&gt;Node33 -->
<g id="edge39_Node000030_Node000033" class="edge">
<title>Node30&#45;&gt;Node33</title>
<g id="a_edge39_Node000030_Node000033"><a xlink:title=" ">
<path fill="none" stroke="#63b8ff" d="M1936.97,-132.18C1976.21,-120.41 2042.14,-100.63 2085.67,-87.57"/>
<polygon fill="#63b8ff" stroke="#63b8ff" points="2086.47,-90.99 2095.04,-84.76 2084.46,-84.28 2086.47,-90.99"/>
</a>
</g>
</g>
<!-- Node30&#45;&gt;Node34 -->
<g id="edge40_Node000030_Node000034" class="edge">
<title>Node30&#45;&gt;Node34</title>
<g id="a_edge40_Node000030_Node000034"><a xlink:title=" ">
<path fill="none" stroke="#63b8ff" d="M1871.39,-132.18C1831.97,-120.41 1765.75,-100.63 1722.03,-87.57"/>
<polygon fill="#63b8ff" stroke="#63b8ff" points="1723.19,-84.27 1712.6,-84.76 1721.18,-90.98 1723.19,-84.27"/>
</a>
</g>
</g>
<!-- Node39 -->
<g id="Node000039" class="node">
<title>Node39</title>
<g id="a_Node000039"><a xlink:title=" ">
<polygon fill="#e0e0e0" stroke="#999999" points="2299.5,-159.75 2153,-159.75 2153,-126.25 2299.5,-126.25 2299.5,-159.75"/>
<text text-anchor="start" x="2161" y="-146.25" font-family="Helvetica,sans-Serif" font-size="10.00">mlir/Interfaces/DataLayout</text>
<text text-anchor="middle" x="2226.25" y="-133.5" font-family="Helvetica,sans-Serif" font-size="10.00">Interfaces.h</text>
</a>
</g>
</g>
<!-- Node38&#45;&gt;Node39 -->
<g id="edge49_Node000038_Node000039" class="edge">
<title>Node38&#45;&gt;Node39</title>
<g id="a_edge49_Node000038_Node000039"><a xlink:title=" ">
<path fill="none" stroke="#63b8ff" d="M2088.6,-195.33C2113.7,-185.97 2145.5,-174.11 2172.22,-164.15"/>
<polygon fill="#63b8ff" stroke="#63b8ff" points="2173.37,-167.46 2181.52,-160.68 2170.93,-160.9 2173.37,-167.46"/>
</a>
</g>
</g>
<!-- Node38&#45;&gt;Node40 -->
<g id="edge50_Node000038_Node000040" class="edge">
<title>Node38&#45;&gt;Node40</title>
<g id="a_edge50_Node000038_Node000040"><a xlink:title=" ">
<path fill="none" stroke="#63b8ff" d="M2121.22,-196.6C2171.08,-186.81 2238.04,-173.65 2306.47,-160.1"/>
<polygon fill="#63b8ff" stroke="#63b8ff" points="2306.85,-163.59 2315.98,-158.22 2305.49,-156.73 2306.85,-163.59"/>
</a>
</g>
</g>
<!-- Node41 -->
<g id="Node000041" class="node">
<title>Node41</title>
<g id="a_Node000041"><a xlink:href="DiscardableAllocationOpInterfaces_8h_8inc.html" target="_top" xlink:title=" ">
<polygon fill="white" stroke="#666666" points="2134.88,-159.75 1981.62,-159.75 1981.62,-126.25 2134.88,-126.25 2134.88,-159.75"/>
<text text-anchor="start" x="1989.62" y="-146.25" font-family="Helvetica,sans-Serif" font-size="10.00">llzk/Transforms/Discardable</text>
<text text-anchor="middle" x="2058.25" y="-133.5" font-family="Helvetica,sans-Serif" font-size="10.00">AllocationOpInterfaces.h.inc</text>
</a>
</g>
</g>
<!-- Node38&#45;&gt;Node41 -->
<g id="edge51_Node000038_Node000041" class="edge">
<title>Node38&#45;&gt;Node41</title>
<g id="a_edge51_Node000038_Node000041"><a xlink:title=" ">
<path fill="none" stroke="#63b8ff" d="M2048.33,-195.5C2049.74,-188.19 2051.45,-179.32 2053.05,-171.02"/>
<polygon fill="#63b8ff" stroke="#63b8ff" points="2056.45,-171.85 2054.91,-161.37 2049.58,-170.53 2056.45,-171.85"/>
</a>
</g>
</g>
</g>
</svg>
