<?xml version="1.0" encoding="UTF-8" standalone="no"?>
<!DOCTYPE svg PUBLIC "-//W3C//DTD SVG 1.1//EN"
 "http://www.w3.org/Graphics/SVG/1.1/DTD/svg11.dtd">
<!-- Generated by graphviz version 12.2.1 (0)
 -->
<!-- Title: include/llzk&#45;c/Dialect/Array.h Pages: 1 -->
<svg width="570pt" height="237pt"
 viewBox="0.00 0.00 570.31 237.25" xmlns="http://www.w3.org/2000/svg" xmlns:xlink="http://www.w3.org/1999/xlink">
<g id="graph0" class="graph" transform="scale(1 1) rotate(0) translate(4 233.25)">
<title>include/llzk&#45;c/Dialect/Array.h</title>
<!-- Node1 -->
<g id="Node000001" class="node">
<title>Node1</title>
<g id="a_Node000001"><a xlink:title=" ">
<polygon fill="#999999" stroke="#666666" points="310.56,-229.25 192.56,-229.25 192.56,-195.75 310.56,-195.75 310.56,-229.25"/>
<text text-anchor="start" x="200.56" y="-215.75" font-family="Helvetica,sans-Serif" font-size="10.00">include/llzk&#45;c/Dialect</text>
<text text-anchor="middle" x="251.56" y="-203" font-family="Helvetica,sans-Serif" font-size="10.00">/Array.h</text>
</a>
</g>
</g>
<!-- Node2 -->
<g id="Node000002" class="node">
<title>Node2</title>
<g id="a_Node000002"><a xlink:href="llzk-c_2Support_8h.html" target="_top" xlink:title=" ">
<polygon fill="white" stroke="#666666" points="356.43,-147 264.68,-147 264.68,-126.25 356.43,-126.25 356.43,-147"/>
<text text-anchor="middle" x="310.56" y="-133.5" font-family="Helvetica,sans-Serif" font-size="10.00">llzk&#45;c/Support.h</text>
</a>
</g>
</g>
<!-- Node1&#45;&gt;Node2 -->
<g id="edge1_Node000001_Node000002" class="edge">
<title>Node1&#45;&gt;Node2</title>
<g id="a_edge1_Node000001_Node000002"><a xlink:title=" ">
<path fill="none" stroke="#63b8ff" d="M264.36,-195.47C273.67,-183.82 286.28,-168.03 295.97,-155.89"/>
<polygon fill="#63b8ff" stroke="#63b8ff" points="298.55,-158.26 302.06,-148.26 293.08,-153.89 298.55,-158.26"/>
</a>
</g>
</g>
<!-- Node4 -->
<g id="Node000004" class="node">
<title>Node4</title>
<g id="a_Node000004"><a xlink:title=" ">
<polygon fill="#e0e0e0" stroke="#999999" points="154.68,-20.75 88.43,-20.75 88.43,0 154.68,0 154.68,-20.75"/>
<text text-anchor="middle" x="121.56" y="-7.25" font-family="Helvetica,sans-Serif" font-size="10.00">mlir&#45;c/IR.h</text>
</a>
</g>
</g>
<!-- Node1&#45;&gt;Node4 -->
<g id="edge8_Node000001_Node000004" class="edge">
<title>Node1&#45;&gt;Node4</title>
<g id="a_edge8_Node000001_Node000004"><a xlink:title=" ">
<path fill="none" stroke="#63b8ff" d="M192.28,-207.14C128.44,-201.06 32.98,-187.5 10.56,-159.75 -27.54,-112.61 50.55,-54.5 94.45,-27.09"/>
<polygon fill="#63b8ff" stroke="#63b8ff" points="96.26,-30.09 102.98,-21.9 92.62,-24.11 96.26,-30.09"/>
</a>
</g>
</g>
<!-- Node6 -->
<g id="Node000006" class="node">
<title>Node6</title>
<g id="a_Node000006"><a xlink:title=" ">
<polygon fill="#e0e0e0" stroke="#999999" points="398.93,-77.5 346.18,-77.5 346.18,-56.75 398.93,-56.75 398.93,-77.5"/>
<text text-anchor="middle" x="372.56" y="-64" font-family="Helvetica,sans-Serif" font-size="10.00">stdint.h</text>
</a>
</g>
</g>
<!-- Node1&#45;&gt;Node6 -->
<g id="edge9_Node000001_Node000006" class="edge">
<title>Node1&#45;&gt;Node6</title>
<g id="a_edge9_Node000001_Node000006"><a xlink:title=" ">
<path fill="none" stroke="#63b8ff" d="M310.99,-197.91C331.56,-190.17 352.66,-178.18 365.56,-159.75 380.03,-139.06 379.28,-108.94 376.6,-88.95"/>
<polygon fill="#63b8ff" stroke="#63b8ff" points="380.08,-88.53 375,-79.23 373.18,-89.67 380.08,-88.53"/>
</a>
</g>
</g>
<!-- Node7 -->
<g id="Node000007" class="node">
<title>Node7</title>
<g id="a_Node000007"><a xlink:href="Array_2IR_2Ops_8capi_8h_8inc.html" target="_top" xlink:title=" ">
<polygon fill="white" stroke="#666666" points="119.56,-153.38 19.56,-153.38 19.56,-119.88 119.56,-119.88 119.56,-153.38"/>
<text text-anchor="start" x="27.56" y="-139.88" font-family="Helvetica,sans-Serif" font-size="10.00">llzk/Dialect/Array</text>
<text text-anchor="middle" x="69.56" y="-127.12" font-family="Helvetica,sans-Serif" font-size="10.00">/IR/Ops.capi.h.inc</text>
</a>
</g>
</g>
<!-- Node1&#45;&gt;Node7 -->
<g id="edge10_Node000001_Node000007" class="edge">
<title>Node1&#45;&gt;Node7</title>
<g id="a_edge10_Node000001_Node000007"><a xlink:title=" ">
<path fill="none" stroke="#63b8ff" d="M211.62,-195.29C184.59,-184.32 148.68,-169.74 119.73,-157.99"/>
<polygon fill="#63b8ff" stroke="#63b8ff" points="121.39,-154.89 110.81,-154.37 118.76,-161.37 121.39,-154.89"/>
</a>
</g>
</g>
<!-- Node8 -->
<g id="Node000008" class="node">
<title>Node8</title>
<g id="a_Node000008"><a xlink:href="Array_2IR_2Types_8capi_8h_8inc.html" target="_top" xlink:title=" ">
<polygon fill="white" stroke="#666666" points="247.06,-153.38 138.06,-153.38 138.06,-119.88 247.06,-119.88 247.06,-153.38"/>
<text text-anchor="start" x="146.06" y="-139.88" font-family="Helvetica,sans-Serif" font-size="10.00">llzk/Dialect/Array</text>
<text text-anchor="middle" x="192.56" y="-127.12" font-family="Helvetica,sans-Serif" font-size="10.00">/IR/Types.capi.h.inc</text>
</a>
</g>
</g>
<!-- Node1&#45;&gt;Node8 -->
<g id="edge13_Node000001_Node000008" class="edge">
<title>Node1&#45;&gt;Node8</title>
<g id="a_edge13_Node000001_Node000008"><a xlink:title=" ">
<path fill="none" stroke="#63b8ff" d="M238.75,-195.47C231.02,-185.79 221.01,-173.25 212.28,-162.33"/>
<polygon fill="#63b8ff" stroke="#63b8ff" points="215.25,-160.44 206.28,-154.81 209.78,-164.8 215.25,-160.44"/>
</a>
</g>
</g>
<!-- Node9 -->
<g id="Node000009" class="node">
<title>Node9</title>
<g id="a_Node000009"><a xlink:href="Array_2Transforms_2TransformationPasses_8capi_8h_8inc.html" target="_top" xlink:title=" ">
<polygon fill="white" stroke="#666666" points="562.31,-159.75 412.81,-159.75 412.81,-113.5 562.31,-113.5 562.31,-159.75"/>
<text text-anchor="start" x="420.81" y="-146.25" font-family="Helvetica,sans-Serif" font-size="10.00">llzk/Dialect/Array</text>
<text text-anchor="start" x="420.81" y="-133.5" font-family="Helvetica,sans-Serif" font-size="10.00">/Transforms/Transformation</text>
<text text-anchor="middle" x="487.56" y="-120.75" font-family="Helvetica,sans-Serif" font-size="10.00">Passes.capi.h.inc</text>
</a>
</g>
</g>
<!-- Node1&#45;&gt;Node9 -->
<g id="edge16_Node000001_Node000009" class="edge">
<title>Node1&#45;&gt;Node9</title>
<g id="a_edge16_Node000001_Node000009"><a xlink:title=" ">
<path fill="none" stroke="#63b8ff" d="M303.35,-195.29C332.98,-186.01 370.84,-174.16 404.52,-163.62"/>
<polygon fill="#63b8ff" stroke="#63b8ff" points="405.36,-167.02 413.85,-160.7 403.27,-160.34 405.36,-167.02"/>
</a>
</g>
</g>
<!-- Node3 -->
<g id="Node000003" class="node">
<title>Node3</title>
<g id="a_Node000003"><a xlink:href="llzk-c_2Builder_8h.html" target="_top" xlink:title=" ">
<polygon fill="white" stroke="#666666" points="237.56,-77.5 149.56,-77.5 149.56,-56.75 237.56,-56.75 237.56,-77.5"/>
<text text-anchor="middle" x="193.56" y="-64" font-family="Helvetica,sans-Serif" font-size="10.00">llzk&#45;c/Builder.h</text>
</a>
</g>
</g>
<!-- Node2&#45;&gt;Node3 -->
<g id="edge2_Node000002_Node000003" class="edge">
<title>Node2&#45;&gt;Node3</title>
<g id="a_edge2_Node000002_Node000003"><a xlink:title=" ">
<path fill="none" stroke="#63b8ff" d="M293.54,-125.81C274.39,-114.76 243.03,-96.66 220.53,-83.69"/>
<polygon fill="#63b8ff" stroke="#63b8ff" points="222.31,-80.67 211.9,-78.71 218.81,-86.74 222.31,-80.67"/>
</a>
</g>
</g>
<!-- Node2&#45;&gt;Node4 -->
<g id="edge5_Node000002_Node000004" class="edge">
<title>Node2&#45;&gt;Node4</title>
<g id="a_edge5_Node000002_Node000004"><a xlink:title=" ">
<path fill="none" stroke="#63b8ff" d="M305.13,-125.96C295.42,-109.5 273.56,-75.98 246.56,-56.75 222.5,-39.62 191.28,-28.28 166.05,-21.22"/>
<polygon fill="#63b8ff" stroke="#63b8ff" points="166.96,-17.84 156.4,-18.66 165.17,-24.61 166.96,-17.84"/>
</a>
</g>
</g>
<!-- Node5 -->
<g id="Node000005" class="node">
<title>Node5</title>
<g id="a_Node000005"><a xlink:title=" ">
<polygon fill="#e0e0e0" stroke="#999999" points="310.56,-20.75 216.56,-20.75 216.56,0 310.56,0 310.56,-20.75"/>
<text text-anchor="middle" x="263.56" y="-7.25" font-family="Helvetica,sans-Serif" font-size="10.00">mlir&#45;c/Support.h</text>
</a>
</g>
</g>
<!-- Node2&#45;&gt;Node5 -->
<g id="edge6_Node000002_Node000005" class="edge">
<title>Node2&#45;&gt;Node5</title>
<g id="a_edge6_Node000002_Node000005"><a xlink:title=" ">
<path fill="none" stroke="#63b8ff" d="M306.87,-125.88C299.22,-105.64 281.47,-58.73 271.23,-31.65"/>
<polygon fill="#63b8ff" stroke="#63b8ff" points="274.58,-30.61 267.76,-22.5 268.03,-33.09 274.58,-30.61"/>
</a>
</g>
</g>
<!-- Node2&#45;&gt;Node6 -->
<g id="edge7_Node000002_Node000006" class="edge">
<title>Node2&#45;&gt;Node6</title>
<g id="a_edge7_Node000002_Node000006"><a xlink:title=" ">
<path fill="none" stroke="#63b8ff" d="M319.44,-125.95C328.92,-115.63 344.17,-99.03 355.9,-86.26"/>
<polygon fill="#63b8ff" stroke="#63b8ff" points="358.48,-88.63 362.67,-78.89 353.32,-83.89 358.48,-88.63"/>
</a>
</g>
</g>
<!-- Node3&#45;&gt;Node4 -->
<g id="edge3_Node000003_Node000004" class="edge">
<title>Node3&#45;&gt;Node4</title>
<g id="a_edge3_Node000003_Node000004"><a xlink:title=" ">
<path fill="none" stroke="#63b8ff" d="M180.68,-56.34C170.34,-48.47 155.59,-37.25 143.4,-27.99"/>
<polygon fill="#63b8ff" stroke="#63b8ff" points="145.6,-25.26 135.52,-21.99 141.36,-30.83 145.6,-25.26"/>
</a>
</g>
</g>
<!-- Node3&#45;&gt;Node5 -->
<g id="edge4_Node000003_Node000005" class="edge">
<title>Node3&#45;&gt;Node5</title>
<g id="a_edge4_Node000003_Node000005"><a xlink:title=" ">
<path fill="none" stroke="#63b8ff" d="M206.07,-56.34C216.13,-48.47 230.47,-37.25 242.32,-27.99"/>
<polygon fill="#63b8ff" stroke="#63b8ff" points="244.24,-30.93 249.96,-22.01 239.93,-25.41 244.24,-30.93"/>
</a>
</g>
</g>
<!-- Node7&#45;&gt;Node3 -->
<g id="edge11_Node000007_Node000003" class="edge">
<title>Node7&#45;&gt;Node3</title>
<g id="a_edge11_Node000007_Node000003"><a xlink:title=" ">
<path fill="none" stroke="#63b8ff" d="M99.26,-119.46C119.42,-108.48 145.91,-94.06 165.68,-83.3"/>
<polygon fill="#63b8ff" stroke="#63b8ff" points="167.17,-86.47 174.28,-78.62 163.82,-80.33 167.17,-86.47"/>
</a>
</g>
</g>
<!-- Node7&#45;&gt;Node4 -->
<g id="edge12_Node000007_Node000004" class="edge">
<title>Node7&#45;&gt;Node4</title>
<g id="a_edge12_Node000007_Node000004"><a xlink:title=" ">
<path fill="none" stroke="#63b8ff" d="M76.36,-119.38C85.77,-96.88 102.78,-56.24 113.03,-31.74"/>
<polygon fill="#63b8ff" stroke="#63b8ff" points="116.25,-33.13 116.88,-22.56 109.79,-30.43 116.25,-33.13"/>
</a>
</g>
</g>
<!-- Node8&#45;&gt;Node3 -->
<g id="edge14_Node000008_Node000003" class="edge">
<title>Node8&#45;&gt;Node3</title>
<g id="a_edge14_Node000008_Node000003"><a xlink:title=" ">
<path fill="none" stroke="#63b8ff" d="M192.79,-119.63C192.93,-110.53 193.1,-99.02 193.24,-89.19"/>
<polygon fill="#63b8ff" stroke="#63b8ff" points="196.74,-89.51 193.39,-79.46 189.74,-89.41 196.74,-89.51"/>
</a>
</g>
</g>
<!-- Node8&#45;&gt;Node4 -->
<g id="edge15_Node000008_Node000004" class="edge">
<title>Node8&#45;&gt;Node4</title>
<g id="a_edge15_Node000008_Node000004"><a xlink:title=" ">
<path fill="none" stroke="#63b8ff" d="M174.36,-119.42C163.17,-108.56 149.33,-93.38 140.56,-77.5 132.68,-63.25 127.81,-45.43 124.97,-31.89"/>
<polygon fill="#63b8ff" stroke="#63b8ff" points="128.47,-31.54 123.19,-22.36 121.59,-32.83 128.47,-31.54"/>
</a>
</g>
</g>
<!-- Node10 -->
<g id="Node000010" class="node">
<title>Node10</title>
<g id="a_Node000010"><a xlink:title=" ">
<polygon fill="#e0e0e0" stroke="#999999" points="526.68,-77.5 448.43,-77.5 448.43,-56.75 526.68,-56.75 526.68,-77.5"/>
<text text-anchor="middle" x="487.56" y="-64" font-family="Helvetica,sans-Serif" font-size="10.00">mlir&#45;c/Pass.h</text>
</a>
</g>
</g>
<!-- Node9&#45;&gt;Node10 -->
<g id="edge17_Node000009_Node000010" class="edge">
<title>Node9&#45;&gt;Node10</title>
<g id="a_edge17_Node000009_Node000010"><a xlink:title=" ">
<path fill="none" stroke="#63b8ff" d="M487.56,-113.15C487.56,-105.48 487.56,-96.94 487.56,-89.38"/>
<polygon fill="#63b8ff" stroke="#63b8ff" points="491.06,-89.4 487.56,-79.4 484.06,-89.4 491.06,-89.4"/>
</a>
</g>
</g>
</g>
</svg>
