<?xml version="1.0" encoding="UTF-8" standalone="no"?>
<!DOCTYPE svg PUBLIC "-//W3C//DTD SVG 1.1//EN"
 "http://www.w3.org/Graphics/SVG/1.1/DTD/svg11.dtd">
<!-- Generated by graphviz version 12.2.1 (0)
 -->
<!-- Title: build/include/llzk/Dialect/Array/IR/OpInterfaces.h.inc Pages: 1 -->
<svg width="3302pt" height="332pt"
 viewBox="0.00 0.00 3302.38 332.25" xmlns="http://www.w3.org/2000/svg" xmlns:xlink="http://www.w3.org/1999/xlink">
<g id="graph0" class="graph" transform="scale(1 1) rotate(0) translate(4 328.25)">
<title>build/include/llzk/Dialect/Array/IR/OpInterfaces.h.inc</title>
<!-- Node1 -->
<g id="Node000001" class="node">
<title>Node1</title>
<g id="a_Node000001"><a xlink:title=" ">
<polygon fill="#999999" stroke="#666666" points="1530.62,-324.25 1343.62,-324.25 1343.62,-290.75 1530.62,-290.75 1530.62,-324.25"/>
<text text-anchor="start" x="1351.62" y="-310.75" font-family="Helvetica,sans-Serif" font-size="10.00">build/include/llzk</text>
<text text-anchor="middle" x="1437.12" y="-298" font-family="Helvetica,sans-Serif" font-size="10.00">/Dialect/Array/IR/OpInterfaces.h.inc</text>
</a>
</g>
</g>
<!-- Node2 -->
<g id="Node000002" class="node">
<title>Node2</title>
<g id="a_Node000002"><a xlink:href="Array_2IR_2Ops_8h.html" target="_top" xlink:title=" ">
<polygon fill="white" stroke="#666666" points="1491.62,-254.75 1382.62,-254.75 1382.62,-221.25 1491.62,-221.25 1491.62,-254.75"/>
<text text-anchor="start" x="1390.62" y="-241.25" font-family="Helvetica,sans-Serif" font-size="10.00">include/llzk/Dialect</text>
<text text-anchor="middle" x="1437.12" y="-228.5" font-family="Helvetica,sans-Serif" font-size="10.00">/Array/IR/Ops.h</text>
</a>
</g>
</g>
<!-- Node1&#45;&gt;Node2 -->
<g id="edge1_Node000001_Node000002" class="edge">
<title>Node1&#45;&gt;Node2</title>
<g id="a_edge1_Node000001_Node000002"><a xlink:title=" ">
<path fill="none" stroke="#63b8ff" d="M1437.12,-279.06C1437.12,-270.84 1437.12,-262.09 1437.12,-254.88"/>
<polygon fill="#63b8ff" stroke="#63b8ff" points="1433.63,-278.99 1437.13,-288.99 1440.63,-278.99 1433.63,-278.99"/>
</a>
</g>
</g>
<!-- Node3 -->
<g id="Node000003" class="node">
<title>Node3</title>
<g id="a_Node000003"><a xlink:href="ConstraintDependencyGraph_8h.html" target="_top" xlink:title=" ">
<polygon fill="white" stroke="#666666" points="711.25,-185.25 543,-185.25 543,-151.75 711.25,-151.75 711.25,-185.25"/>
<text text-anchor="start" x="551" y="-171.75" font-family="Helvetica,sans-Serif" font-size="10.00">include/llzk/Analysis</text>
<text text-anchor="middle" x="627.12" y="-159" font-family="Helvetica,sans-Serif" font-size="10.00">/ConstraintDependencyGraph.h</text>
</a>
</g>
</g>
<!-- Node2&#45;&gt;Node3 -->
<g id="edge2_Node000002_Node000003" class="edge">
<title>Node2&#45;&gt;Node3</title>
<g id="a_edge2_Node000002_Node000003"><a xlink:title=" ">
<path fill="none" stroke="#63b8ff" d="M1370.97,-231.49C1224.66,-219.29 873.74,-190.05 711.73,-176.55"/>
<polygon fill="#63b8ff" stroke="#63b8ff" points="1370.64,-234.97 1380.9,-232.31 1371.22,-228 1370.64,-234.97"/>
</a>
</g>
</g>
<!-- Node4 -->
<g id="Node000004" class="node">
<title>Node4</title>
<g id="a_Node000004"><a xlink:href="IntervalAnalysis_8h.html" target="_top" xlink:title=" ">
<polygon fill="white" stroke="#666666" points="231,-115.75 115.25,-115.75 115.25,-82.25 231,-82.25 231,-115.75"/>
<text text-anchor="start" x="123.25" y="-102.25" font-family="Helvetica,sans-Serif" font-size="10.00">include/llzk/Analysis</text>
<text text-anchor="middle" x="173.12" y="-89.5" font-family="Helvetica,sans-Serif" font-size="10.00">/IntervalAnalysis.h</text>
</a>
</g>
</g>
<!-- Node2&#45;&gt;Node4 -->
<g id="edge10_Node000002_Node000004" class="edge">
<title>Node2&#45;&gt;Node4</title>
<g id="a_edge10_Node000002_Node000004"><a xlink:title=" ">
<path fill="none" stroke="#63b8ff" d="M1370.91,-235.81C1177.87,-231.98 617.97,-218.26 438.12,-185.25 355.65,-170.11 263.25,-136.34 212.26,-116.14"/>
<polygon fill="#63b8ff" stroke="#63b8ff" points="1370.69,-239.3 1380.76,-236 1370.83,-232.31 1370.69,-239.3"/>
</a>
</g>
</g>
<!-- Node5 -->
<g id="Node000005" class="node">
<title>Node5</title>
<g id="a_Node000005"><a xlink:href="IntervalAnalysis_8cpp.html" target="_top" xlink:title=" ">
<polygon fill="white" stroke="#666666" points="174.25,-33.5 0,-33.5 0,-12.75 174.25,-12.75 174.25,-33.5"/>
<text text-anchor="middle" x="87.12" y="-20" font-family="Helvetica,sans-Serif" font-size="10.00">lib/Analysis/IntervalAnalysis.cpp</text>
</a>
</g>
</g>
<!-- Node2&#45;&gt;Node5 -->
<g id="edge21_Node000002_Node000005" class="edge">
<title>Node2&#45;&gt;Node5</title>
<g id="a_edge21_Node000002_Node000005"><a xlink:title=" ">
<path fill="none" stroke="#63b8ff" d="M1370.71,-236.42C1160.99,-234.21 514.56,-224.3 309.12,-185.25 215.44,-167.44 169.2,-187.27 106.12,-115.75 85.39,-92.23 85.12,-52.1 86.24,-33.77"/>
<polygon fill="#63b8ff" stroke="#63b8ff" points="1370.59,-239.92 1380.62,-236.52 1370.66,-232.92 1370.59,-239.92"/>
</a>
</g>
</g>
<!-- Node7 -->
<g id="Node000007" class="node">
<title>Node7</title>
<g id="a_Node000007"><a xlink:href="ConstraintDependencyGraph_8cpp.html" target="_top" xlink:title=" ">
<polygon fill="white" stroke="#666666" points="435.25,-115.75 249,-115.75 249,-82.25 435.25,-82.25 435.25,-115.75"/>
<text text-anchor="start" x="257" y="-102.25" font-family="Helvetica,sans-Serif" font-size="10.00">lib/Analysis/ConstraintDependency</text>
<text text-anchor="middle" x="342.12" y="-89.5" font-family="Helvetica,sans-Serif" font-size="10.00">Graph.cpp</text>
</a>
</g>
</g>
<!-- Node2&#45;&gt;Node7 -->
<g id="edge20_Node000002_Node000007" class="edge">
<title>Node2&#45;&gt;Node7</title>
<g id="a_edge20_Node000002_Node000007"><a xlink:title=" ">
<path fill="none" stroke="#63b8ff" d="M1371,-236.28C1190.62,-233.84 692.98,-223.71 534.12,-185.25 472.62,-170.36 406.3,-136.49 369.93,-116.21"/>
<polygon fill="#63b8ff" stroke="#63b8ff" points="1370.85,-239.78 1380.9,-236.41 1370.95,-232.78 1370.85,-239.78"/>
</a>
</g>
</g>
<!-- Node9 -->
<g id="Node000009" class="node">
<title>Node9</title>
<g id="a_Node000009"><a xlink:href="SourceRefLattice_8cpp.html" target="_top" xlink:title=" ">
<polygon fill="white" stroke="#666666" points="957.12,-109.38 779.12,-109.38 779.12,-88.62 957.12,-88.62 957.12,-109.38"/>
<text text-anchor="middle" x="868.12" y="-95.88" font-family="Helvetica,sans-Serif" font-size="10.00">lib/Analysis/SourceRefLattice.cpp</text>
</a>
</g>
</g>
<!-- Node2&#45;&gt;Node9 -->
<g id="edge23_Node000002_Node000009" class="edge">
<title>Node2&#45;&gt;Node9</title>
<g id="a_edge23_Node000002_Node000009"><a xlink:title=" ">
<path fill="none" stroke="#63b8ff" d="M1371.03,-234.32C1260.08,-229.04 1041.61,-215.13 971.12,-185.25 929.88,-167.76 892.28,-128.19 876.27,-109.77"/>
<polygon fill="#63b8ff" stroke="#63b8ff" points="1370.73,-237.81 1380.88,-234.77 1371.06,-230.81 1370.73,-237.81"/>
</a>
</g>
</g>
<!-- Node11 -->
<g id="Node000011" class="node">
<title>Node11</title>
<g id="a_Node000011"><a xlink:href="TypeConversionPatterns_8h.html" target="_top" xlink:title="Reusable MLIR dialect conversion functions for LLZK StructType replacement.">
<polygon fill="white" stroke="#666666" points="1309,-185.25 1127.25,-185.25 1127.25,-151.75 1309,-151.75 1309,-185.25"/>
<text text-anchor="start" x="1135.25" y="-171.75" font-family="Helvetica,sans-Serif" font-size="10.00">include/llzk/Dialect</text>
<text text-anchor="middle" x="1218.12" y="-159" font-family="Helvetica,sans-Serif" font-size="10.00">/Shared/TypeConversionPatterns.h</text>
</a>
</g>
</g>
<!-- Node2&#45;&gt;Node11 -->
<g id="edge11_Node000002_Node000011" class="edge">
<title>Node2&#45;&gt;Node11</title>
<g id="a_edge11_Node000002_Node000011"><a xlink:title=" ">
<path fill="none" stroke="#63b8ff" d="M1373.84,-217.49C1341.08,-207.4 1301.56,-195.22 1270.53,-185.65"/>
<polygon fill="#63b8ff" stroke="#63b8ff" points="1372.64,-220.79 1383.22,-220.39 1374.7,-214.1 1372.64,-220.79"/>
</a>
</g>
</g>
<!-- Node12 -->
<g id="Node000012" class="node">
<title>Node12</title>
<g id="a_Node000012"><a xlink:href="SharedImpl_8h.html" target="_top" xlink:title="Common private implementation for poly dialect passes.">
<polygon fill="white" stroke="#666666" points="1191.38,-115.75 1050.88,-115.75 1050.88,-82.25 1191.38,-82.25 1191.38,-115.75"/>
<text text-anchor="start" x="1058.88" y="-102.25" font-family="Helvetica,sans-Serif" font-size="10.00">lib/Dialect/Polymorphic</text>
<text text-anchor="middle" x="1121.12" y="-89.5" font-family="Helvetica,sans-Serif" font-size="10.00">/Transforms/SharedImpl.h</text>
</a>
</g>
</g>
<!-- Node2&#45;&gt;Node12 -->
<g id="edge31_Node000002_Node000012" class="edge">
<title>Node2&#45;&gt;Node12</title>
<g id="a_edge31_Node000002_Node000012"><a xlink:title=" ">
<path fill="none" stroke="#63b8ff" d="M1371.06,-237.13C1279.54,-235.75 1121.33,-227.16 1085.12,-185.25 1067.48,-164.82 1088.5,-134.49 1105.03,-116.05"/>
<polygon fill="#63b8ff" stroke="#63b8ff" points="1370.87,-240.63 1380.91,-237.25 1370.95,-233.63 1370.87,-240.63"/>
</a>
</g>
</g>
<!-- Node14 -->
<g id="Node000014" class="node">
<title>Node14</title>
<g id="a_Node000014"><a xlink:href="FlatteningPass_8cpp.html" target="_top" xlink:title="This file implements the &#45;llzk&#45;flatten pass.">
<polygon fill="white" stroke="#666666" points="848.88,-39.88 681.38,-39.88 681.38,-6.38 848.88,-6.38 848.88,-39.88"/>
<text text-anchor="start" x="689.38" y="-26.38" font-family="Helvetica,sans-Serif" font-size="10.00">lib/Dialect/Polymorphic</text>
<text text-anchor="middle" x="765.12" y="-13.62" font-family="Helvetica,sans-Serif" font-size="10.00">/Transforms/FlatteningPass.cpp</text>
</a>
</g>
</g>
<!-- Node2&#45;&gt;Node14 -->
<g id="edge30_Node000002_Node000014" class="edge">
<title>Node2&#45;&gt;Node14</title>
<g id="a_edge30_Node000002_Node000014"><a xlink:title=" ">
<path fill="none" stroke="#63b8ff" d="M1371.06,-235.04C1271.78,-231.02 1089.87,-219.14 1035.12,-185.25 988.27,-156.25 1010.61,-114.76 966.12,-82.25 954.78,-73.96 883.7,-54.45 829.25,-40.32"/>
<polygon fill="#63b8ff" stroke="#63b8ff" points="1370.82,-238.54 1380.94,-235.43 1371.09,-231.54 1370.82,-238.54"/>
</a>
</g>
</g>
<!-- Node16 -->
<g id="Node000016" class="node">
<title>Node16</title>
<g id="a_Node000016"><a xlink:href="TypeVarInferencePass_8cpp.html" target="_top" xlink:title="This file implements the &#45;llzk&#45;infer&#45;tvar pass.">
<polygon fill="white" stroke="#666666" points="1027.12,-46.25 867.12,-46.25 867.12,0 1027.12,0 1027.12,-46.25"/>
<text text-anchor="start" x="875.12" y="-32.75" font-family="Helvetica,sans-Serif" font-size="10.00">lib/Dialect/Polymorphic</text>
<text text-anchor="start" x="875.12" y="-20" font-family="Helvetica,sans-Serif" font-size="10.00">/Transforms/TypeVarInference</text>
<text text-anchor="middle" x="947.12" y="-7.25" font-family="Helvetica,sans-Serif" font-size="10.00">Pass.cpp</text>
</a>
</g>
</g>
<!-- Node2&#45;&gt;Node16 -->
<g id="edge32_Node000002_Node000016" class="edge">
<title>Node2&#45;&gt;Node16</title>
<g id="a_edge32_Node000002_Node000016"><a xlink:title=" ">
<path fill="none" stroke="#63b8ff" d="M1371.02,-233.71C1280.28,-228.16 1122.84,-214.55 1074.12,-185.25 1025.6,-156.06 1034.71,-126.3 999.12,-82.25 989.34,-70.14 977.85,-57.18 968.17,-46.58"/>
<polygon fill="#63b8ff" stroke="#63b8ff" points="1370.58,-237.19 1380.77,-234.28 1370.99,-230.2 1370.58,-237.19"/>
</a>
</g>
</g>
<!-- Node17 -->
<g id="Node000017" class="node">
<title>Node17</title>
<g id="a_Node000017"><a xlink:href="WildcardArraySpecializationPass_8cpp.html" target="_top" xlink:title="This file implements the &#45;llzk&#45;specialize&#45;wildcard&#45;arrays pass.">
<polygon fill="white" stroke="#666666" points="1642.75,-46.25 1429.5,-46.25 1429.5,0 1642.75,0 1642.75,-46.25"/>
<text text-anchor="start" x="1437.5" y="-32.75" font-family="Helvetica,sans-Serif" font-size="10.00">lib/Dialect/Polymorphic</text>
<text text-anchor="start" x="1437.5" y="-20" font-family="Helvetica,sans-Serif" font-size="10.00">/Transforms/WildcardArraySpecialization</text>
<text text-anchor="middle" x="1536.12" y="-7.25" font-family="Helvetica,sans-Serif" font-size="10.00">Pass.cpp</text>
</a>
</g>
</g>
<!-- Node2&#45;&gt;Node17 -->
<g id="edge33_Node000002_Node000017" class="edge">
<title>Node2&#45;&gt;Node17</title>
<g id="a_edge33_Node000002_Node000017"><a xlink:title=" ">
<path fill="none" stroke="#63b8ff" d="M1370.76,-235.95C1286.98,-233.07 1149.9,-222.59 1118.12,-185.25 1108.48,-173.91 1109.98,-164.22 1118.12,-151.75 1139.89,-118.43 1165.94,-136.14 1200.12,-115.75 1220.93,-103.34 1221.09,-92.32 1243.12,-82.25 1247.55,-80.23 1347.38,-60.62 1429.3,-44.73"/>
<polygon fill="#63b8ff" stroke="#63b8ff" points="1370.6,-239.45 1380.7,-236.27 1370.82,-232.45 1370.6,-239.45"/>
</a>
</g>
</g>
<!-- Node18 -->
<g id="Node000018" class="node">
<title>Node18</title>
<g id="a_Node000018"><a xlink:href="Struct_2IR_2Dialect_8cpp.html" target="_top" xlink:title=" ">
<polygon fill="white" stroke="#666666" points="1384.62,-115.75 1287.62,-115.75 1287.62,-82.25 1384.62,-82.25 1384.62,-115.75"/>
<text text-anchor="start" x="1295.62" y="-102.25" font-family="Helvetica,sans-Serif" font-size="10.00">lib/Dialect/Struct</text>
<text text-anchor="middle" x="1336.12" y="-89.5" font-family="Helvetica,sans-Serif" font-size="10.00">/IR/Dialect.cpp</text>
</a>
</g>
</g>
<!-- Node2&#45;&gt;Node18 -->
<g id="edge34_Node000002_Node000018" class="edge">
<title>Node2&#45;&gt;Node18</title>
<g id="a_edge34_Node000002_Node000018"><a xlink:title=" ">
<path fill="none" stroke="#63b8ff" d="M1389.38,-214.97C1376.94,-207.18 1364.65,-197.28 1356.12,-185.25 1341.45,-164.53 1337.41,-134.57 1336.37,-116.24"/>
<polygon fill="#63b8ff" stroke="#63b8ff" points="1387.62,-217.99 1398.02,-220.01 1391.15,-211.95 1387.62,-217.99"/>
</a>
</g>
</g>
<!-- Node19 -->
<g id="Node000019" class="node">
<title>Node19</title>
<g id="a_Node000019"><a xlink:href="SourceRef_8cpp.html" target="_top" xlink:title=" ">
<polygon fill="white" stroke="#666666" points="1509.25,-178.88 1365,-178.88 1365,-158.12 1509.25,-158.12 1509.25,-178.88"/>
<text text-anchor="middle" x="1437.12" y="-165.38" font-family="Helvetica,sans-Serif" font-size="10.00">lib/Analysis/SourceRef.cpp</text>
</a>
</g>
</g>
<!-- Node2&#45;&gt;Node19 -->
<g id="edge22_Node000002_Node000019" class="edge">
<title>Node2&#45;&gt;Node19</title>
<g id="a_edge22_Node000002_Node000019"><a xlink:title=" ">
<path fill="none" stroke="#63b8ff" d="M1437.12,-209.53C1437.12,-198.83 1437.12,-187.26 1437.12,-179.32"/>
<polygon fill="#63b8ff" stroke="#63b8ff" points="1433.63,-209.49 1437.13,-219.49 1440.63,-209.49 1433.63,-209.49"/>
</a>
</g>
</g>
<!-- Node20 -->
<g id="Node000020" class="node">
<title>Node20</title>
<g id="a_Node000020"><a xlink:href="Array_8cpp.html" target="_top" xlink:title=" ">
<polygon fill="white" stroke="#666666" points="1666.62,-178.88 1527.62,-178.88 1527.62,-158.12 1666.62,-158.12 1666.62,-178.88"/>
<text text-anchor="middle" x="1597.12" y="-165.38" font-family="Helvetica,sans-Serif" font-size="10.00">lib/CAPI/Dialect/Array.cpp</text>
</a>
</g>
</g>
<!-- Node2&#45;&gt;Node20 -->
<g id="edge24_Node000002_Node000020" class="edge">
<title>Node2&#45;&gt;Node20</title>
<g id="a_edge24_Node000002_Node000020"><a xlink:title=" ">
<path fill="none" stroke="#63b8ff" d="M1485.89,-216.43C1515.15,-204.08 1551.01,-188.95 1573.96,-179.27"/>
<polygon fill="#63b8ff" stroke="#63b8ff" points="1484.7,-213.13 1476.84,-220.24 1487.42,-219.58 1484.7,-213.13"/>
</a>
</g>
</g>
<!-- Node21 -->
<g id="Node000021" class="node">
<title>Node21</title>
<g id="a_Node000021"><a xlink:href="Array_2IR_2Dialect_8cpp.html" target="_top" xlink:title=" ">
<polygon fill="white" stroke="#666666" points="1791.88,-185.25 1684.38,-185.25 1684.38,-151.75 1791.88,-151.75 1791.88,-185.25"/>
<text text-anchor="start" x="1692.38" y="-171.75" font-family="Helvetica,sans-Serif" font-size="10.00">lib/Dialect/Array/IR</text>
<text text-anchor="middle" x="1738.12" y="-159" font-family="Helvetica,sans-Serif" font-size="10.00">/Dialect.cpp</text>
</a>
</g>
</g>
<!-- Node2&#45;&gt;Node21 -->
<g id="edge25_Node000002_Node000021" class="edge">
<title>Node2&#45;&gt;Node21</title>
<g id="a_edge25_Node000002_Node000021"><a xlink:title=" ">
<path fill="none" stroke="#63b8ff" d="M1503.02,-223.39C1551.1,-213.3 1617.78,-198.97 1676.12,-185.25 1678.72,-184.64 1681.37,-184.01 1684.05,-183.36"/>
<polygon fill="#63b8ff" stroke="#63b8ff" points="1502.38,-219.95 1493.31,-225.42 1503.82,-226.8 1502.38,-219.95"/>
</a>
</g>
</g>
<!-- Node22 -->
<g id="Node000022" class="node">
<title>Node22</title>
<g id="a_Node000022"><a xlink:href="Array_2IR_2Ops_8cpp.html" target="_top" xlink:title=" ">
<polygon fill="white" stroke="#666666" points="1917.88,-185.25 1810.38,-185.25 1810.38,-151.75 1917.88,-151.75 1917.88,-185.25"/>
<text text-anchor="start" x="1818.38" y="-171.75" font-family="Helvetica,sans-Serif" font-size="10.00">lib/Dialect/Array/IR</text>
<text text-anchor="middle" x="1864.12" y="-159" font-family="Helvetica,sans-Serif" font-size="10.00">/Ops.cpp</text>
</a>
</g>
</g>
<!-- Node2&#45;&gt;Node22 -->
<g id="edge26_Node000002_Node000022" class="edge">
<title>Node2&#45;&gt;Node22</title>
<g id="a_edge26_Node000002_Node000022"><a xlink:title=" ">
<path fill="none" stroke="#63b8ff" d="M1503.32,-229.68C1576.54,-221.1 1697.81,-205.45 1801.12,-185.25 1804,-184.69 1806.94,-184.08 1809.91,-183.43"/>
<polygon fill="#63b8ff" stroke="#63b8ff" points="1503.03,-226.19 1493.5,-230.82 1503.84,-233.15 1503.03,-226.19"/>
</a>
</g>
</g>
<!-- Node23 -->
<g id="Node000023" class="node">
<title>Node23</title>
<g id="a_Node000023"><a xlink:href="Array_2IR_2Types_8cpp.html" target="_top" xlink:title=" ">
<polygon fill="white" stroke="#666666" points="2043.88,-185.25 1936.38,-185.25 1936.38,-151.75 2043.88,-151.75 2043.88,-185.25"/>
<text text-anchor="start" x="1944.38" y="-171.75" font-family="Helvetica,sans-Serif" font-size="10.00">lib/Dialect/Array/IR</text>
<text text-anchor="middle" x="1990.12" y="-159" font-family="Helvetica,sans-Serif" font-size="10.00">/Types.cpp</text>
</a>
</g>
</g>
<!-- Node2&#45;&gt;Node23 -->
<g id="edge27_Node000002_Node000023" class="edge">
<title>Node2&#45;&gt;Node23</title>
<g id="a_edge27_Node000002_Node000023"><a xlink:title=" ">
<path fill="none" stroke="#63b8ff" d="M1503.23,-232.96C1597.75,-226.52 1776.72,-211.86 1927.12,-185.25 1930.01,-184.74 1932.96,-184.17 1935.93,-183.56"/>
<polygon fill="#63b8ff" stroke="#63b8ff" points="1503.11,-229.46 1493.37,-233.62 1503.58,-236.45 1503.11,-229.46"/>
</a>
</g>
</g>
<!-- Node24 -->
<g id="Node000024" class="node">
<title>Node24</title>
<g id="a_Node000024"><a xlink:href="ArrayToScalarPass_8cpp.html" target="_top" xlink:title="This file implements the &#45;llzk&#45;array&#45;to&#45;scalar pass.">
<polygon fill="white" stroke="#666666" points="2214,-185.25 2062.25,-185.25 2062.25,-151.75 2214,-151.75 2214,-185.25"/>
<text text-anchor="start" x="2070.25" y="-171.75" font-family="Helvetica,sans-Serif" font-size="10.00">lib/Dialect/Array/Transforms</text>
<text text-anchor="middle" x="2138.12" y="-159" font-family="Helvetica,sans-Serif" font-size="10.00">/ArrayToScalarPass.cpp</text>
</a>
</g>
</g>
<!-- Node2&#45;&gt;Node24 -->
<g id="edge28_Node000002_Node000024" class="edge">
<title>Node2&#45;&gt;Node24</title>
<g id="a_edge28_Node000002_Node000024"><a xlink:title=" ">
<path fill="none" stroke="#63b8ff" d="M1503.33,-233.6C1616.41,-227.32 1853.88,-212.01 2053.12,-185.25 2056.1,-184.85 2059.13,-184.42 2062.19,-183.96"/>
<polygon fill="#63b8ff" stroke="#63b8ff" points="1503.43,-230.09 1493.64,-234.14 1503.81,-237.08 1503.43,-230.09"/>
</a>
</g>
</g>
<!-- Node25 -->
<g id="Node000025" class="node">
<title>Node25</title>
<g id="a_Node000025"><a xlink:href="LowerBoolQuantifiersPass_8cpp.html" target="_top" xlink:title="This file implements the &#45;llzk&#45;lower&#45;bool&#45;quantifiers pass.">
<polygon fill="white" stroke="#666666" points="2397.75,-185.25 2232.5,-185.25 2232.5,-151.75 2397.75,-151.75 2397.75,-185.25"/>
<text text-anchor="start" x="2240.5" y="-171.75" font-family="Helvetica,sans-Serif" font-size="10.00">lib/Dialect/Bool/Transforms</text>
<text text-anchor="middle" x="2315.12" y="-159" font-family="Helvetica,sans-Serif" font-size="10.00">/LowerBoolQuantifiersPass.cpp</text>
</a>
</g>
</g>
<!-- Node2&#45;&gt;Node25 -->
<g id="edge29_Node000002_Node000025" class="edge">
<title>Node2&#45;&gt;Node25</title>
<g id="a_edge29_Node000002_Node000025"><a xlink:title=" ">
<path fill="none" stroke="#63b8ff" d="M1503.48,-234.96C1639.08,-230.27 1957.55,-216.64 2223.12,-185.25 2226.18,-184.89 2229.29,-184.49 2232.43,-184.07"/>
<polygon fill="#63b8ff" stroke="#63b8ff" points="1503.48,-231.45 1493.61,-235.29 1503.72,-238.45 1503.48,-231.45"/>
</a>
</g>
</g>
<!-- Node26 -->
<g id="Node000026" class="node">
<title>Node26</title>
<g id="a_Node000026"><a xlink:href="LLZKPolyLoweringPass_8cpp.html" target="_top" xlink:title="This file implements the &#45;llzk&#45;poly&#45;lowering pass.">
<polygon fill="white" stroke="#666666" points="2592.75,-185.25 2415.5,-185.25 2415.5,-151.75 2592.75,-151.75 2592.75,-185.25"/>
<text text-anchor="start" x="2423.5" y="-171.75" font-family="Helvetica,sans-Serif" font-size="10.00">lib/Transforms/LLZKPolyLowering</text>
<text text-anchor="middle" x="2504.12" y="-159" font-family="Helvetica,sans-Serif" font-size="10.00">Pass.cpp</text>
</a>
</g>
</g>
<!-- Node2&#45;&gt;Node26 -->
<g id="edge35_Node000002_Node000026" class="edge">
<title>Node2&#45;&gt;Node26</title>
<g id="a_edge35_Node000002_Node000026"><a xlink:title=" ">
<path fill="none" stroke="#63b8ff" d="M1503.31,-235.92C1660.51,-232.83 2068.51,-221.67 2407.12,-185.25 2409.75,-184.97 2412.42,-184.66 2415.11,-184.34"/>
<polygon fill="#63b8ff" stroke="#63b8ff" points="1503.43,-232.42 1493.5,-236.11 1503.56,-239.42 1503.43,-232.42"/>
</a>
</g>
</g>
<!-- Node27 -->
<g id="Node000027" class="node">
<title>Node27</title>
<g id="a_Node000027"><a xlink:href="LLZKRedundantReadAndWriteEliminationPass_8cpp.html" target="_top" xlink:title="This file implements the &#45;llzk&#45;duplicate&#45;read&#45;write&#45;elim pass.">
<polygon fill="white" stroke="#666666" points="2793.75,-185.25 2610.5,-185.25 2610.5,-151.75 2793.75,-151.75 2793.75,-185.25"/>
<text text-anchor="start" x="2618.5" y="-171.75" font-family="Helvetica,sans-Serif" font-size="10.00">lib/Transforms/LLZKRedundant</text>
<text text-anchor="middle" x="2702.12" y="-159" font-family="Helvetica,sans-Serif" font-size="10.00">ReadAndWriteEliminationPass.cpp</text>
</a>
</g>
</g>
<!-- Node2&#45;&gt;Node27 -->
<g id="edge36_Node000002_Node000027" class="edge">
<title>Node2&#45;&gt;Node27</title>
<g id="a_edge36_Node000002_Node000027"><a xlink:title=" ">
<path fill="none" stroke="#63b8ff" d="M1503.38,-236.65C1681.51,-235.14 2185.44,-227.19 2602.12,-185.25 2604.75,-184.99 2607.41,-184.7 2610.09,-184.39"/>
<polygon fill="#63b8ff" stroke="#63b8ff" points="1503.36,-233.15 1493.39,-236.73 1503.41,-240.15 1503.36,-233.15"/>
</a>
</g>
</g>
<!-- Node28 -->
<g id="Node000028" class="node">
<title>Node28</title>
<g id="a_Node000028"><a xlink:href="SymbolHelper_8cpp.html" target="_top" xlink:title="This file contains the implementations for symbol helper functions.">
<polygon fill="white" stroke="#666666" points="2952,-178.88 2812.25,-178.88 2812.25,-158.12 2952,-158.12 2952,-178.88"/>
<text text-anchor="middle" x="2882.12" y="-165.38" font-family="Helvetica,sans-Serif" font-size="10.00">lib/Util/SymbolHelper.cpp</text>
</a>
</g>
</g>
<!-- Node2&#45;&gt;Node28 -->
<g id="edge37_Node000002_Node000028" class="edge">
<title>Node2&#45;&gt;Node28</title>
<g id="a_edge37_Node000002_Node000028"><a xlink:title=" ">
<path fill="none" stroke="#63b8ff" d="M1502.92,-235.89C1739.54,-231.7 2546.74,-215.47 2803.12,-185.25 2814.93,-183.86 2827.61,-181.65 2839.27,-179.33"/>
<polygon fill="#63b8ff" stroke="#63b8ff" points="1503.21,-232.39 1493.28,-236.06 1503.34,-239.39 1503.21,-232.39"/>
</a>
</g>
</g>
<!-- Node29 -->
<g id="Node000029" class="node">
<title>Node29</title>
<g id="a_Node000029"><a xlink:href="Interpreter_8cpp.html" target="_top" xlink:title=" ">
<polygon fill="white" stroke="#666666" points="3141.75,-178.88 2970.5,-178.88 2970.5,-158.12 3141.75,-158.12 3141.75,-178.88"/>
<text text-anchor="middle" x="3056.12" y="-165.38" font-family="Helvetica,sans-Serif" font-size="10.00">tools/llzk&#45;witgen/Interpreter.cpp</text>
</a>
</g>
</g>
<!-- Node2&#45;&gt;Node29 -->
<g id="edge38_Node000002_Node000029" class="edge">
<title>Node2&#45;&gt;Node29</title>
<g id="a_edge38_Node000002_Node000029"><a xlink:title=" ">
<path fill="none" stroke="#63b8ff" d="M1503.17,-235.9C1757.24,-231.51 2671.84,-214.02 2961.12,-185.25 2975.27,-183.84 2990.49,-181.64 3004.52,-179.31"/>
<polygon fill="#63b8ff" stroke="#63b8ff" points="1503.38,-232.4 1493.44,-236.07 1503.5,-239.4 1503.38,-232.4"/>
</a>
</g>
</g>
<!-- Node30 -->
<g id="Node000030" class="node">
<title>Node30</title>
<g id="a_Node000030"><a xlink:href="WitgenLowering_8cpp.html" target="_top" xlink:title=" ">
<polygon fill="white" stroke="#666666" points="3294.38,-185.25 3159.88,-185.25 3159.88,-151.75 3294.38,-151.75 3294.38,-185.25"/>
<text text-anchor="start" x="3167.88" y="-171.75" font-family="Helvetica,sans-Serif" font-size="10.00">tools/llzk&#45;witgen/Witgen</text>
<text text-anchor="middle" x="3227.12" y="-159" font-family="Helvetica,sans-Serif" font-size="10.00">Lowering.cpp</text>
</a>
</g>
</g>
<!-- Node2&#45;&gt;Node30 -->
<g id="edge39_Node000002_Node000030" class="edge">
<title>Node2&#45;&gt;Node30</title>
<g id="a_edge39_Node000002_Node000030"><a xlink:title=" ">
<path fill="none" stroke="#63b8ff" d="M1503.12,-236.54C1776.75,-234.42 2823.22,-223.88 3151.12,-185.25 3153.94,-184.92 3156.8,-184.54 3159.68,-184.11"/>
<polygon fill="#63b8ff" stroke="#63b8ff" points="1503.29,-233.04 1493.32,-236.62 1503.35,-240.04 1503.29,-233.04"/>
</a>
</g>
</g>
<!-- Node3&#45;&gt;Node4 -->
<g id="edge3_Node000003_Node000004" class="edge">
<title>Node3&#45;&gt;Node4</title>
<g id="a_edge3_Node000003_Node000004"><a xlink:title=" ">
<path fill="none" stroke="#63b8ff" d="M531.25,-157.33C452.68,-148.35 338.77,-133.9 240.12,-115.75 237.19,-115.21 234.18,-114.62 231.16,-114.01"/>
<polygon fill="#63b8ff" stroke="#63b8ff" points="530.74,-160.79 541.07,-158.44 531.53,-153.84 530.74,-160.79"/>
</a>
</g>
</g>
<!-- Node3&#45;&gt;Node7 -->
<g id="edge6_Node000003_Node000007" class="edge">
<title>Node3&#45;&gt;Node7</title>
<g id="a_edge6_Node000003_Node000007"><a xlink:title=" ">
<path fill="none" stroke="#63b8ff" d="M547.81,-148.72C504.6,-138.48 451.67,-125.95 410.33,-116.15"/>
<polygon fill="#63b8ff" stroke="#63b8ff" points="546.85,-152.08 557.39,-150.98 548.46,-145.27 546.85,-152.08"/>
</a>
</g>
</g>
<!-- Node8 -->
<g id="Node000008" class="node">
<title>Node8</title>
<g id="a_Node000008"><a xlink:href="ConstraintDependencyGraphPass_8cpp.html" target="_top" xlink:title="This file implements the &#45;llzk&#45;print&#45;constraint&#45;dependency&#45;graphs pass.">
<polygon fill="white" stroke="#666666" points="639.25,-115.75 453,-115.75 453,-82.25 639.25,-82.25 639.25,-115.75"/>
<text text-anchor="start" x="461" y="-102.25" font-family="Helvetica,sans-Serif" font-size="10.00">lib/Analysis/ConstraintDependency</text>
<text text-anchor="middle" x="546.12" y="-89.5" font-family="Helvetica,sans-Serif" font-size="10.00">GraphPass.cpp</text>
</a>
</g>
</g>
<!-- Node3&#45;&gt;Node8 -->
<g id="edge7_Node000003_Node000008" class="edge">
<title>Node3&#45;&gt;Node8</title>
<g id="a_edge7_Node000003_Node000008"><a xlink:title=" ">
<path fill="none" stroke="#63b8ff" d="M599.36,-144.36C588.2,-135.06 575.6,-124.56 565.46,-116.12"/>
<polygon fill="#63b8ff" stroke="#63b8ff" points="596.84,-146.82 606.77,-150.53 601.32,-141.44 596.84,-146.82"/>
</a>
</g>
</g>
<!-- Node3&#45;&gt;Node9 -->
<g id="edge8_Node000003_Node000009" class="edge">
<title>Node3&#45;&gt;Node9</title>
<g id="a_edge8_Node000003_Node000009"><a xlink:title=" ">
<path fill="none" stroke="#63b8ff" d="M695.66,-148.3C740.41,-135.77 797,-119.92 832.89,-109.87"/>
<polygon fill="#63b8ff" stroke="#63b8ff" points="694.99,-144.86 686.31,-150.92 696.88,-151.6 694.99,-144.86"/>
</a>
</g>
</g>
<!-- Node10 -->
<g id="Node000010" class="node">
<title>Node10</title>
<g id="a_Node000010"><a xlink:href="Verif_2IR_2Ops_8cpp.html" target="_top" xlink:title=" ">
<polygon fill="white" stroke="#666666" points="761,-115.75 657.25,-115.75 657.25,-82.25 761,-82.25 761,-115.75"/>
<text text-anchor="start" x="665.25" y="-102.25" font-family="Helvetica,sans-Serif" font-size="10.00">lib/Dialect/Verif/IR</text>
<text text-anchor="middle" x="709.12" y="-89.5" font-family="Helvetica,sans-Serif" font-size="10.00">/Ops.cpp</text>
</a>
</g>
</g>
<!-- Node3&#45;&gt;Node10 -->
<g id="edge9_Node000003_Node000010" class="edge">
<title>Node3&#45;&gt;Node10</title>
<g id="a_edge9_Node000003_Node000010"><a xlink:title=" ">
<path fill="none" stroke="#63b8ff" d="M655.23,-144.36C666.53,-135.06 679.28,-124.56 689.55,-116.12"/>
<polygon fill="#63b8ff" stroke="#63b8ff" points="653.22,-141.48 647.73,-150.54 657.67,-146.89 653.22,-141.48"/>
</a>
</g>
</g>
<!-- Node4&#45;&gt;Node5 -->
<g id="edge4_Node000004_Node000005" class="edge">
<title>Node4&#45;&gt;Node5</title>
<g id="a_edge4_Node000004_Node000005"><a xlink:title=" ">
<path fill="none" stroke="#63b8ff" d="M145.91,-74.62C129.74,-60.73 110.12,-43.88 98.13,-33.58"/>
<polygon fill="#63b8ff" stroke="#63b8ff" points="143.45,-77.12 153.32,-80.98 148.01,-71.81 143.45,-77.12"/>
</a>
</g>
</g>
<!-- Node6 -->
<g id="Node000006" class="node">
<title>Node6</title>
<g id="a_Node000006"><a xlink:href="IntervalAnalysisPass_8cpp.html" target="_top" xlink:title="This file implements the &#45;llzk&#45;print&#45;interval&#45;analysis pass.">
<polygon fill="white" stroke="#666666" points="346.12,-39.88 192.12,-39.88 192.12,-6.38 346.12,-6.38 346.12,-39.88"/>
<text text-anchor="start" x="200.12" y="-26.38" font-family="Helvetica,sans-Serif" font-size="10.00">lib/Analysis/IntervalAnalysis</text>
<text text-anchor="middle" x="269.12" y="-13.62" font-family="Helvetica,sans-Serif" font-size="10.00">Pass.cpp</text>
</a>
</g>
</g>
<!-- Node4&#45;&gt;Node6 -->
<g id="edge5_Node000004_Node000006" class="edge">
<title>Node4&#45;&gt;Node6</title>
<g id="a_edge5_Node000004_Node000006"><a xlink:title=" ">
<path fill="none" stroke="#63b8ff" d="M202.74,-75.21C217.5,-63.85 235.01,-50.38 248.34,-40.12"/>
<polygon fill="#63b8ff" stroke="#63b8ff" points="200.95,-72.17 195.16,-81.05 205.21,-77.72 200.95,-72.17"/>
</a>
</g>
</g>
<!-- Node11&#45;&gt;Node12 -->
<g id="edge12_Node000011_Node000012" class="edge">
<title>Node11&#45;&gt;Node12</title>
<g id="a_edge12_Node000011_Node000012"><a xlink:title=" ">
<path fill="none" stroke="#63b8ff" d="M1186.06,-145.19C1172.41,-135.69 1156.78,-124.81 1144.28,-116.12"/>
<polygon fill="#63b8ff" stroke="#63b8ff" points="1183.69,-147.8 1193.9,-150.64 1187.69,-142.05 1183.69,-147.8"/>
</a>
</g>
</g>
<!-- Node11&#45;&gt;Node17 -->
<g id="edge18_Node000011_Node000017" class="edge">
<title>Node11&#45;&gt;Node17</title>
<g id="a_edge18_Node000011_Node000017"><a xlink:title=" ">
<path fill="none" stroke="#63b8ff" d="M1230.3,-141.33C1240.62,-122.06 1257.22,-96.79 1279.12,-82.25 1292.15,-73.6 1364.6,-57.61 1429.26,-44.58"/>
<polygon fill="#63b8ff" stroke="#63b8ff" points="1227.19,-139.73 1225.78,-150.23 1233.43,-142.9 1227.19,-139.73"/>
</a>
</g>
</g>
<!-- Node11&#45;&gt;Node18 -->
<g id="edge19_Node000011_Node000018" class="edge">
<title>Node11&#45;&gt;Node18</title>
<g id="a_edge19_Node000011_Node000018"><a xlink:title=" ">
<path fill="none" stroke="#63b8ff" d="M1255.99,-145.84C1272.92,-136.16 1292.51,-124.95 1308.09,-116.04"/>
<polygon fill="#63b8ff" stroke="#63b8ff" points="1254.65,-142.58 1247.7,-150.58 1258.12,-148.65 1254.65,-142.58"/>
</a>
</g>
</g>
<!-- Node13 -->
<g id="Node000013" class="node">
<title>Node13</title>
<g id="a_Node000013"><a xlink:href="EmptyTemplateRemovalPass_8cpp.html" target="_top" xlink:title="This file implements the &#45;llzk&#45;drop&#45;empty&#45;templates pass.">
<polygon fill="white" stroke="#666666" points="1411.12,-46.25 1215.12,-46.25 1215.12,0 1411.12,0 1411.12,-46.25"/>
<text text-anchor="start" x="1223.12" y="-32.75" font-family="Helvetica,sans-Serif" font-size="10.00">lib/Dialect/Polymorphic</text>
<text text-anchor="start" x="1223.12" y="-20" font-family="Helvetica,sans-Serif" font-size="10.00">/Transforms/EmptyTemplateRemoval</text>
<text text-anchor="middle" x="1313.12" y="-7.25" font-family="Helvetica,sans-Serif" font-size="10.00">Pass.cpp</text>
</a>
</g>
</g>
<!-- Node12&#45;&gt;Node13 -->
<g id="edge13_Node000012_Node000013" class="edge">
<title>Node12&#45;&gt;Node13</title>
<g id="a_edge13_Node000012_Node000013"><a xlink:title=" ">
<path fill="none" stroke="#63b8ff" d="M1173.97,-77.67C1198.89,-68.08 1228.71,-56.61 1254.34,-46.74"/>
<polygon fill="#63b8ff" stroke="#63b8ff" points="1172.75,-74.39 1164.67,-81.24 1175.26,-80.92 1172.75,-74.39"/>
</a>
</g>
</g>
<!-- Node12&#45;&gt;Node14 -->
<g id="edge14_Node000012_Node000014" class="edge">
<title>Node12&#45;&gt;Node14</title>
<g id="a_edge14_Node000012_Node000014"><a xlink:title=" ">
<path fill="none" stroke="#63b8ff" d="M1039.48,-82.79C987.46,-72.89 918.71,-59.41 858.12,-46.25 849.61,-44.4 840.68,-42.38 831.85,-40.33"/>
<polygon fill="#63b8ff" stroke="#63b8ff" points="1038.68,-86.2 1049.16,-84.63 1039.99,-79.32 1038.68,-86.2"/>
</a>
</g>
</g>
<!-- Node15 -->
<g id="Node000015" class="node">
<title>Node15</title>
<g id="a_Node000015"><a xlink:href="SharedImpl_8cpp.html" target="_top" xlink:title=" ">
<polygon fill="white" stroke="#666666" points="1197,-39.88 1045.25,-39.88 1045.25,-6.38 1197,-6.38 1197,-39.88"/>
<text text-anchor="start" x="1053.25" y="-26.38" font-family="Helvetica,sans-Serif" font-size="10.00">lib/Dialect/Polymorphic</text>
<text text-anchor="middle" x="1121.12" y="-13.62" font-family="Helvetica,sans-Serif" font-size="10.00">/Transforms/SharedImpl.cpp</text>
</a>
</g>
</g>
<!-- Node12&#45;&gt;Node15 -->
<g id="edge15_Node000012_Node000015" class="edge">
<title>Node12&#45;&gt;Node15</title>
<g id="a_edge15_Node000012_Node000015"><a xlink:title=" ">
<path fill="none" stroke="#63b8ff" d="M1121.12,-70.61C1121.12,-60.35 1121.12,-49.02 1121.12,-40.12"/>
<polygon fill="#63b8ff" stroke="#63b8ff" points="1117.63,-70.46 1121.13,-80.46 1124.63,-70.46 1117.63,-70.46"/>
</a>
</g>
</g>
<!-- Node12&#45;&gt;Node16 -->
<g id="edge16_Node000012_Node000016" class="edge">
<title>Node12&#45;&gt;Node16</title>
<g id="a_edge16_Node000012_Node000016"><a xlink:title=" ">
<path fill="none" stroke="#63b8ff" d="M1072.62,-77.41C1050.17,-67.87 1023.42,-56.52 1000.4,-46.74"/>
<polygon fill="#63b8ff" stroke="#63b8ff" points="1070.97,-80.51 1081.55,-81.2 1073.71,-74.07 1070.97,-80.51"/>
</a>
</g>
</g>
<!-- Node12&#45;&gt;Node17 -->
<g id="edge17_Node000012_Node000017" class="edge">
<title>Node12&#45;&gt;Node17</title>
<g id="a_edge17_Node000012_Node000017"><a xlink:title=" ">
<path fill="none" stroke="#63b8ff" d="M1202.65,-82.69C1203.48,-82.54 1204.3,-82.4 1205.12,-82.25 1300.52,-65.32 1324.76,-63.33 1420.12,-46.25 1423.05,-45.73 1426.02,-45.19 1429.01,-44.65"/>
<polygon fill="#63b8ff" stroke="#63b8ff" points="1202.4,-79.18 1193.18,-84.4 1203.64,-86.07 1202.4,-79.18"/>
</a>
</g>
</g>
</g>
</svg>
