<?xml version="1.0" encoding="UTF-8" standalone="no"?>
<!DOCTYPE svg PUBLIC "-//W3C//DTD SVG 1.1//EN"
 "http://www.w3.org/Graphics/SVG/1.1/DTD/svg11.dtd">
<!-- Generated by graphviz version 12.2.1 (0)
 -->
<!-- Title: lib/Dialect/Array/IR/Types.cpp Pages: 1 -->
<svg width="2362pt" height="389pt"
 viewBox="0.00 0.00 2362.38 389.00" xmlns="http://www.w3.org/2000/svg" xmlns:xlink="http://www.w3.org/1999/xlink">
<g id="graph0" class="graph" transform="scale(1 1) rotate(0) translate(4 385)">
<title>lib/Dialect/Array/IR/Types.cpp</title>
<!-- Node1 -->
<g id="Node000001" class="node">
<title>Node1</title>
<g id="a_Node000001"><a xlink:title=" ">
<polygon fill="#999999" stroke="#666666" points="1528.38,-381 1420.88,-381 1420.88,-347.5 1528.38,-347.5 1528.38,-381"/>
<text text-anchor="start" x="1428.88" y="-367.5" font-family="Helvetica,sans-Serif" font-size="10.00">lib/Dialect/Array/IR</text>
<text text-anchor="middle" x="1474.62" y="-354.75" font-family="Helvetica,sans-Serif" font-size="10.00">/Types.cpp</text>
</a>
</g>
</g>
<!-- Node2 -->
<g id="Node000002" class="node">
<title>Node2</title>
<g id="a_Node000002"><a xlink:href="Array_2IR_2Types_8h.html" target="_top" xlink:title=" ">
<polygon fill="white" stroke="#666666" points="2079.62,-172.5 1979.62,-172.5 1979.62,-139 2079.62,-139 2079.62,-172.5"/>
<text text-anchor="start" x="1987.62" y="-159" font-family="Helvetica,sans-Serif" font-size="10.00">llzk/Dialect/Array</text>
<text text-anchor="middle" x="2029.62" y="-146.25" font-family="Helvetica,sans-Serif" font-size="10.00">/IR/Types.h</text>
</a>
</g>
</g>
<!-- Node1&#45;&gt;Node2 -->
<g id="edge1_Node000001_Node000002" class="edge">
<title>Node1&#45;&gt;Node2</title>
<g id="a_edge1_Node000001_Node000002"><a xlink:title=" ">
<path fill="none" stroke="#63b8ff" d="M1528.69,-357.2C1647.75,-342.89 1927.54,-303.44 1997.62,-242 2014.38,-227.31 2022.39,-202.96 2026.2,-184.03"/>
<polygon fill="#63b8ff" stroke="#63b8ff" points="2029.62,-184.75 2027.85,-174.3 2022.72,-183.57 2029.62,-184.75"/>
</a>
</g>
</g>
<!-- Node15 -->
<g id="Node000015" class="node">
<title>Node15</title>
<g id="a_Node000015"><a xlink:href="Array_2IR_2Ops_8h.html" target="_top" xlink:title=" ">
<polygon fill="white" stroke="#666666" points="902.62,-311.5 802.62,-311.5 802.62,-278 902.62,-278 902.62,-311.5"/>
<text text-anchor="start" x="810.62" y="-298" font-family="Helvetica,sans-Serif" font-size="10.00">llzk/Dialect/Array</text>
<text text-anchor="middle" x="852.62" y="-285.25" font-family="Helvetica,sans-Serif" font-size="10.00">/IR/Ops.h</text>
</a>
</g>
</g>
<!-- Node1&#45;&gt;Node15 -->
<g id="edge14_Node000001_Node000015" class="edge">
<title>Node1&#45;&gt;Node15</title>
<g id="a_edge14_Node000001_Node000015"><a xlink:title=" ">
<path fill="none" stroke="#63b8ff" d="M1420.51,-357.38C1305.27,-344.87 1036.19,-315.67 914.43,-302.46"/>
<polygon fill="#63b8ff" stroke="#63b8ff" points="914.94,-298.99 904.62,-301.39 914.18,-305.95 914.94,-298.99"/>
</a>
</g>
</g>
<!-- Node31 -->
<g id="Node000031" class="node">
<title>Node31</title>
<g id="a_Node000031"><a xlink:href="TypeHelper_8h.html" target="_top" xlink:title=" ">
<polygon fill="white" stroke="#666666" points="335.38,-166.12 215.88,-166.12 215.88,-145.38 335.38,-145.38 335.38,-166.12"/>
<text text-anchor="middle" x="275.62" y="-152.62" font-family="Helvetica,sans-Serif" font-size="10.00">llzk/Util/TypeHelper.h</text>
</a>
</g>
</g>
<!-- Node1&#45;&gt;Node31 -->
<g id="edge65_Node000001_Node000031" class="edge">
<title>Node1&#45;&gt;Node31</title>
<g id="a_edge65_Node000001_Node000031"><a xlink:title=" ">
<path fill="none" stroke="#63b8ff" d="M1420.48,-361.58C1227.08,-354.94 571.92,-326.56 382.62,-242 346.52,-225.87 312.12,-194.66 292.48,-174.81"/>
<polygon fill="#63b8ff" stroke="#63b8ff" points="295.05,-172.44 285.59,-167.67 290.01,-177.3 295.05,-172.44"/>
</a>
</g>
</g>
<!-- Node42 -->
<g id="Node000042" class="node">
<title>Node42</title>
<g id="a_Node000042"><a xlink:href="ArrayTypeHelper_8h.html" target="_top" xlink:title=" ">
<polygon fill="white" stroke="#666666" points="1538.88,-242 1410.38,-242 1410.38,-208.5 1538.88,-208.5 1538.88,-242"/>
<text text-anchor="start" x="1418.38" y="-228.5" font-family="Helvetica,sans-Serif" font-size="10.00">llzk/Dialect/Array</text>
<text text-anchor="middle" x="1474.62" y="-215.75" font-family="Helvetica,sans-Serif" font-size="10.00">/Util/ArrayTypeHelper.h</text>
</a>
</g>
</g>
<!-- Node1&#45;&gt;Node42 -->
<g id="edge54_Node000001_Node000042" class="edge">
<title>Node1&#45;&gt;Node42</title>
<g id="a_edge54_Node000001_Node000042"><a xlink:title=" ">
<path fill="none" stroke="#63b8ff" d="M1474.62,-347.27C1474.62,-324.27 1474.62,-281.54 1474.62,-253.5"/>
<polygon fill="#63b8ff" stroke="#63b8ff" points="1478.13,-253.65 1474.63,-243.65 1471.13,-253.65 1478.13,-253.65"/>
</a>
</g>
</g>
<!-- Node47 -->
<g id="Node000047" class="node">
<title>Node47</title>
<g id="a_Node000047"><a xlink:title=" ">
<polygon fill="#e0e0e0" stroke="#999999" points="2219.12,-305.12 2056.12,-305.12 2056.12,-284.38 2219.12,-284.38 2219.12,-305.12"/>
<text text-anchor="middle" x="2137.62" y="-291.62" font-family="Helvetica,sans-Serif" font-size="10.00">mlir/IR/BuiltinTypeInterfaces.h</text>
</a>
</g>
</g>
<!-- Node1&#45;&gt;Node47 -->
<g id="edge66_Node000001_Node000047" class="edge">
<title>Node1&#45;&gt;Node47</title>
<g id="a_edge66_Node000001_Node000047"><a xlink:title=" ">
<path fill="none" stroke="#63b8ff" d="M1528.71,-359.61C1629.73,-352.52 1853.85,-335.44 2041.62,-311.5 2051.02,-310.3 2060.9,-308.87 2070.61,-307.37"/>
<polygon fill="#63b8ff" stroke="#63b8ff" points="2071.06,-310.85 2080.39,-305.82 2069.96,-303.93 2071.06,-310.85"/>
</a>
</g>
</g>
<!-- Node3 -->
<g id="Node000003" class="node">
<title>Node3</title>
<g id="a_Node000003"><a xlink:href="Array_2IR_2Dialect_8h.html" target="_top" xlink:title=" ">
<polygon fill="white" stroke="#666666" points="2068.62,-103 1968.62,-103 1968.62,-69.5 2068.62,-69.5 2068.62,-103"/>
<text text-anchor="start" x="1976.62" y="-89.5" font-family="Helvetica,sans-Serif" font-size="10.00">llzk/Dialect/Array</text>
<text text-anchor="middle" x="2018.62" y="-76.75" font-family="Helvetica,sans-Serif" font-size="10.00">/IR/Dialect.h</text>
</a>
</g>
</g>
<!-- Node2&#45;&gt;Node3 -->
<g id="edge2_Node000002_Node000003" class="edge">
<title>Node2&#45;&gt;Node3</title>
<g id="a_edge2_Node000002_Node000003"><a xlink:title=" ">
<path fill="none" stroke="#63b8ff" d="M2027.02,-138.75C2025.83,-131.44 2024.38,-122.57 2023.03,-114.27"/>
<polygon fill="#63b8ff" stroke="#63b8ff" points="2026.52,-113.93 2021.46,-104.63 2019.61,-115.06 2026.52,-113.93"/>
</a>
</g>
</g>
<!-- Node6 -->
<g id="Node000006" class="node">
<title>Node6</title>
<g id="a_Node000006"><a xlink:href="ErrorHelper_8h.html" target="_top" xlink:title=" ">
<polygon fill="white" stroke="#666666" points="1487.75,-96.62 1367.5,-96.62 1367.5,-75.88 1487.75,-75.88 1487.75,-96.62"/>
<text text-anchor="middle" x="1427.62" y="-83.12" font-family="Helvetica,sans-Serif" font-size="10.00">llzk/Util/ErrorHelper.h</text>
</a>
</g>
</g>
<!-- Node2&#45;&gt;Node6 -->
<g id="edge5_Node000002_Node000006" class="edge">
<title>Node2&#45;&gt;Node6</title>
<g id="a_edge5_Node000002_Node000006"><a xlink:title=" ">
<path fill="none" stroke="#63b8ff" d="M1979.14,-145.78C1964.2,-143.34 1947.78,-140.85 1932.62,-139 1740.07,-115.44 1689.38,-132.36 1497.62,-103 1491.16,-102.01 1484.4,-100.76 1477.73,-99.41"/>
<polygon fill="#63b8ff" stroke="#63b8ff" points="1478.68,-96.03 1468.17,-97.36 1477.21,-102.87 1478.68,-96.03"/>
</a>
</g>
</g>
<!-- Node13 -->
<g id="Node000013" class="node">
<title>Node13</title>
<g id="a_Node000013"><a xlink:title=" ">
<polygon fill="#e0e0e0" stroke="#999999" points="2354.38,-103 2204.88,-103 2204.88,-69.5 2354.38,-69.5 2354.38,-103"/>
<text text-anchor="start" x="2212.88" y="-89.5" font-family="Helvetica,sans-Serif" font-size="10.00">mlir/Interfaces/MemorySlot</text>
<text text-anchor="middle" x="2279.62" y="-76.75" font-family="Helvetica,sans-Serif" font-size="10.00">Interfaces.h</text>
</a>
</g>
</g>
<!-- Node2&#45;&gt;Node13 -->
<g id="edge12_Node000002_Node000013" class="edge">
<title>Node2&#45;&gt;Node13</title>
<g id="a_edge12_Node000002_Node000013"><a xlink:title=" ">
<path fill="none" stroke="#63b8ff" d="M2079.92,-141.17C2116.88,-131.19 2167.61,-117.49 2208.69,-106.4"/>
<polygon fill="#63b8ff" stroke="#63b8ff" points="2209.52,-109.8 2218.26,-103.82 2207.7,-103.05 2209.52,-109.8"/>
</a>
</g>
</g>
<!-- Node14 -->
<g id="Node000014" class="node">
<title>Node14</title>
<g id="a_Node000014"><a xlink:href="Array_2IR_2Types_8h_8inc.html" target="_top" xlink:title=" ">
<polygon fill="white" stroke="#666666" points="2186.62,-103 2086.62,-103 2086.62,-69.5 2186.62,-69.5 2186.62,-103"/>
<text text-anchor="start" x="2094.62" y="-89.5" font-family="Helvetica,sans-Serif" font-size="10.00">llzk/Dialect/Array</text>
<text text-anchor="middle" x="2136.62" y="-76.75" font-family="Helvetica,sans-Serif" font-size="10.00">/IR/Types.h.inc</text>
</a>
</g>
</g>
<!-- Node2&#45;&gt;Node14 -->
<g id="edge13_Node000002_Node000014" class="edge">
<title>Node2&#45;&gt;Node14</title>
<g id="a_edge13_Node000002_Node000014"><a xlink:title=" ">
<path fill="none" stroke="#63b8ff" d="M2055.25,-138.58C2069.15,-129.82 2086.53,-118.85 2101.65,-109.31"/>
<polygon fill="#63b8ff" stroke="#63b8ff" points="2103.33,-112.39 2109.92,-104.09 2099.6,-106.47 2103.33,-112.39"/>
</a>
</g>
</g>
<!-- Node4 -->
<g id="Node000004" class="node">
<title>Node4</title>
<g id="a_Node000004"><a xlink:title=" ">
<polygon fill="#e0e0e0" stroke="#999999" points="2077.88,-27.12 1967.38,-27.12 1967.38,-6.38 2077.88,-6.38 2077.88,-27.12"/>
<text text-anchor="middle" x="2022.62" y="-13.62" font-family="Helvetica,sans-Serif" font-size="10.00">mlir/IR/BuiltinOps.h</text>
</a>
</g>
</g>
<!-- Node3&#45;&gt;Node4 -->
<g id="edge3_Node000003_Node000004" class="edge">
<title>Node3&#45;&gt;Node4</title>
<g id="a_edge3_Node000003_Node000004"><a xlink:title=" ">
<path fill="none" stroke="#63b8ff" d="M2019.57,-69.25C2020.11,-60.15 2020.79,-48.64 2021.38,-38.82"/>
<polygon fill="#63b8ff" stroke="#63b8ff" points="2024.86,-39.27 2021.95,-29.08 2017.87,-38.86 2024.86,-39.27"/>
</a>
</g>
</g>
<!-- Node5 -->
<g id="Node000005" class="node">
<title>Node5</title>
<g id="a_Node000005"><a xlink:href="Array_2IR_2Dialect_8h_8inc.html" target="_top" xlink:title=" ">
<polygon fill="white" stroke="#666666" points="2195.62,-33.5 2095.62,-33.5 2095.62,0 2195.62,0 2195.62,-33.5"/>
<text text-anchor="start" x="2103.62" y="-20" font-family="Helvetica,sans-Serif" font-size="10.00">llzk/Dialect/Array</text>
<text text-anchor="middle" x="2145.62" y="-7.25" font-family="Helvetica,sans-Serif" font-size="10.00">/IR/Dialect.h.inc</text>
</a>
</g>
</g>
<!-- Node3&#45;&gt;Node5 -->
<g id="edge4_Node000003_Node000005" class="edge">
<title>Node3&#45;&gt;Node5</title>
<g id="a_edge4_Node000003_Node000005"><a xlink:title=" ">
<path fill="none" stroke="#63b8ff" d="M2049.04,-69.08C2065.93,-60.11 2087.15,-48.83 2105.39,-39.13"/>
<polygon fill="#63b8ff" stroke="#63b8ff" points="2106.93,-42.28 2114.12,-34.5 2103.64,-36.1 2106.93,-42.28"/>
</a>
</g>
</g>
<!-- Node7 -->
<g id="Node000007" class="node">
<title>Node7</title>
<g id="a_Node000007"><a xlink:title=" ">
<polygon fill="#e0e0e0" stroke="#999999" points="1588.25,-27.12 1471,-27.12 1471,-6.38 1588.25,-6.38 1588.25,-27.12"/>
<text text-anchor="middle" x="1529.62" y="-13.62" font-family="Helvetica,sans-Serif" font-size="10.00">mlir/IR/Diagnostics.h</text>
</a>
</g>
</g>
<!-- Node6&#45;&gt;Node7 -->
<g id="edge6_Node000006_Node000007" class="edge">
<title>Node6&#45;&gt;Node7</title>
<g id="a_edge6_Node000006_Node000007"><a xlink:title=" ">
<path fill="none" stroke="#63b8ff" d="M1442.24,-75.58C1458.66,-64.71 1485.57,-46.9 1505.2,-33.91"/>
<polygon fill="#63b8ff" stroke="#63b8ff" points="1507.04,-36.9 1513.44,-28.46 1503.17,-31.06 1507.04,-36.9"/>
</a>
</g>
</g>
<!-- Node8 -->
<g id="Node000008" class="node">
<title>Node8</title>
<g id="a_Node000008"><a xlink:title=" ">
<polygon fill="#e0e0e0" stroke="#999999" points="1088.75,-27.12 980.5,-27.12 980.5,-6.38 1088.75,-6.38 1088.75,-27.12"/>
<text text-anchor="middle" x="1034.62" y="-13.62" font-family="Helvetica,sans-Serif" font-size="10.00">mlir/IR/Operation.h</text>
</a>
</g>
</g>
<!-- Node6&#45;&gt;Node8 -->
<g id="edge7_Node000006_Node000008" class="edge">
<title>Node6&#45;&gt;Node8</title>
<g id="a_edge7_Node000006_Node000008"><a xlink:title=" ">
<path fill="none" stroke="#63b8ff" d="M1386.65,-75.44C1377.15,-73.33 1367.06,-71.22 1357.62,-69.5 1243.72,-48.78 1213.36,-55.16 1099.62,-33.5 1094.34,-32.49 1088.84,-31.34 1083.38,-30.12"/>
<polygon fill="#63b8ff" stroke="#63b8ff" points="1084.3,-26.74 1073.77,-27.89 1082.72,-33.56 1084.3,-26.74"/>
</a>
</g>
</g>
<!-- Node9 -->
<g id="Node000009" class="node">
<title>Node9</title>
<g id="a_Node000009"><a xlink:title=" ">
<polygon fill="#e0e0e0" stroke="#999999" points="1777.25,-27.12 1606,-27.12 1606,-6.38 1777.25,-6.38 1777.25,-27.12"/>
<text text-anchor="middle" x="1691.62" y="-13.62" font-family="Helvetica,sans-Serif" font-size="10.00">llvm/ADT/STLFunctionalExtras.h</text>
</a>
</g>
</g>
<!-- Node6&#45;&gt;Node9 -->
<g id="edge8_Node000006_Node000009" class="edge">
<title>Node6&#45;&gt;Node9</title>
<g id="a_edge8_Node000006_Node000009"><a xlink:title=" ">
<path fill="none" stroke="#63b8ff" d="M1466.01,-75.43C1512.55,-63.54 1591.06,-43.46 1642.11,-30.41"/>
<polygon fill="#63b8ff" stroke="#63b8ff" points="1642.9,-33.82 1651.72,-27.95 1641.17,-27.04 1642.9,-33.82"/>
</a>
</g>
</g>
<!-- Node10 -->
<g id="Node000010" class="node">
<title>Node10</title>
<g id="a_Node000010"><a xlink:title=" ">
<polygon fill="#e0e0e0" stroke="#999999" points="1209,-27.12 1108.25,-27.12 1108.25,-6.38 1209,-6.38 1209,-27.12"/>
<text text-anchor="middle" x="1158.62" y="-13.62" font-family="Helvetica,sans-Serif" font-size="10.00">llvm/ADT/Twine.h</text>
</a>
</g>
</g>
<!-- Node6&#45;&gt;Node10 -->
<g id="edge9_Node000006_Node000010" class="edge">
<title>Node6&#45;&gt;Node10</title>
<g id="a_edge9_Node000006_Node000010"><a xlink:title=" ">
<path fill="none" stroke="#63b8ff" d="M1386.92,-75.46C1344.57,-65.23 1276.36,-48.58 1217.62,-33.5 1213.87,-32.54 1209.97,-31.52 1206.07,-30.5"/>
<polygon fill="#63b8ff" stroke="#63b8ff" points="1207.13,-27.16 1196.57,-27.99 1205.34,-33.93 1207.13,-27.16"/>
</a>
</g>
</g>
<!-- Node11 -->
<g id="Node000011" class="node">
<title>Node11</title>
<g id="a_Node000011"><a xlink:title=" ">
<polygon fill="#e0e0e0" stroke="#999999" points="1384.12,-27.12 1227.12,-27.12 1227.12,-6.38 1384.12,-6.38 1384.12,-27.12"/>
<text text-anchor="middle" x="1305.62" y="-13.62" font-family="Helvetica,sans-Serif" font-size="10.00">llvm/Support/ErrorHandling.h</text>
</a>
</g>
</g>
<!-- Node6&#45;&gt;Node11 -->
<g id="edge10_Node000006_Node000011" class="edge">
<title>Node6&#45;&gt;Node11</title>
<g id="a_edge10_Node000006_Node000011"><a xlink:title=" ">
<path fill="none" stroke="#63b8ff" d="M1409.89,-75.43C1389.83,-64.34 1356.91,-46.13 1333.43,-33.13"/>
<polygon fill="#63b8ff" stroke="#63b8ff" points="1335.16,-30.09 1324.71,-28.31 1331.77,-36.21 1335.16,-30.09"/>
</a>
</g>
</g>
<!-- Node12 -->
<g id="Node000012" class="node">
<title>Node12</title>
<g id="a_Node000012"><a xlink:title=" ">
<polygon fill="#e0e0e0" stroke="#999999" points="1452.88,-27.12 1402.38,-27.12 1402.38,-6.38 1452.88,-6.38 1452.88,-27.12"/>
<text text-anchor="middle" x="1427.62" y="-13.62" font-family="Helvetica,sans-Serif" font-size="10.00">variant</text>
</a>
</g>
</g>
<!-- Node6&#45;&gt;Node12 -->
<g id="edge11_Node000006_Node000012" class="edge">
<title>Node6&#45;&gt;Node12</title>
<g id="a_edge11_Node000006_Node000012"><a xlink:title=" ">
<path fill="none" stroke="#63b8ff" d="M1427.62,-75.58C1427.62,-65.96 1427.62,-50.88 1427.62,-38.54"/>
<polygon fill="#63b8ff" stroke="#63b8ff" points="1431.13,-38.92 1427.63,-28.92 1424.13,-38.92 1431.13,-38.92"/>
</a>
</g>
</g>
<!-- Node15&#45;&gt;Node2 -->
<g id="edge16_Node000015_Node000002" class="edge">
<title>Node15&#45;&gt;Node2</title>
<g id="a_edge16_Node000015_Node000002"><a xlink:title=" ">
<path fill="none" stroke="#63b8ff" d="M903.01,-293.91C1107.74,-294.24 1871,-292.07 1965.62,-242 1989.75,-229.23 2007.32,-202.88 2017.88,-182.83"/>
<polygon fill="#63b8ff" stroke="#63b8ff" points="2020.9,-184.62 2022.22,-174.11 2014.63,-181.5 2020.9,-184.62"/>
</a>
</g>
</g>
<!-- Node15&#45;&gt;Node3 -->
<g id="edge15_Node000015_Node000003" class="edge">
<title>Node15&#45;&gt;Node3</title>
<g id="a_edge15_Node000015_Node000003"><a xlink:title=" ">
<path fill="none" stroke="#63b8ff" d="M902.94,-292.85C1090.78,-288.75 1749.56,-267.76 1932.62,-172.5 1940.18,-168.57 1972.65,-135.44 1995.45,-111.66"/>
<polygon fill="#63b8ff" stroke="#63b8ff" points="1997.92,-114.14 2002.3,-104.49 1992.86,-109.3 1997.92,-114.14"/>
</a>
</g>
</g>
<!-- Node16 -->
<g id="Node000016" class="node">
<title>Node16</title>
<g id="a_Node000016"><a xlink:href="OpHelpers_8h.html" target="_top" xlink:title=" ">
<polygon fill="white" stroke="#666666" points="947.38,-242 839.88,-242 839.88,-208.5 947.38,-208.5 947.38,-242"/>
<text text-anchor="start" x="847.88" y="-228.5" font-family="Helvetica,sans-Serif" font-size="10.00">llzk/Dialect/Shared</text>
<text text-anchor="middle" x="893.62" y="-215.75" font-family="Helvetica,sans-Serif" font-size="10.00">/OpHelpers.h</text>
</a>
</g>
</g>
<!-- Node15&#45;&gt;Node16 -->
<g id="edge17_Node000015_Node000016" class="edge">
<title>Node15&#45;&gt;Node16</title>
<g id="a_edge17_Node000015_Node000016"><a xlink:title=" ">
<path fill="none" stroke="#63b8ff" d="M862.34,-277.75C867.04,-270.02 872.79,-260.55 878.08,-251.84"/>
<polygon fill="#63b8ff" stroke="#63b8ff" points="880.99,-253.79 883.19,-243.43 875.01,-250.16 880.99,-253.79"/>
</a>
</g>
</g>
<!-- Node15&#45;&gt;Node31 -->
<g id="edge50_Node000015_Node000031" class="edge">
<title>Node15&#45;&gt;Node31</title>
<g id="a_edge50_Node000015_Node000031"><a xlink:title=" ">
<path fill="none" stroke="#63b8ff" d="M846.37,-277.57C837.66,-257.5 819.82,-224.02 792.62,-208.5 705.7,-158.87 442.54,-187.84 343.62,-172.5 337.49,-171.55 331.08,-170.35 324.76,-169.03"/>
<polygon fill="#63b8ff" stroke="#63b8ff" points="325.55,-165.62 315.03,-166.9 324.05,-172.46 325.55,-165.62"/>
</a>
</g>
</g>
<!-- Node39 -->
<g id="Node000039" class="node">
<title>Node39</title>
<g id="a_Node000039"><a xlink:title=" ">
<polygon fill="#e0e0e0" stroke="#999999" points="783.25,-242 648,-242 648,-208.5 783.25,-208.5 783.25,-242"/>
<text text-anchor="start" x="656" y="-228.5" font-family="Helvetica,sans-Serif" font-size="10.00">mlir/Interfaces/InferType</text>
<text text-anchor="middle" x="715.62" y="-215.75" font-family="Helvetica,sans-Serif" font-size="10.00">OpInterface.h</text>
</a>
</g>
</g>
<!-- Node15&#45;&gt;Node39 -->
<g id="edge51_Node000015_Node000039" class="edge">
<title>Node15&#45;&gt;Node39</title>
<g id="a_edge51_Node000015_Node000039"><a xlink:title=" ">
<path fill="none" stroke="#63b8ff" d="M819.81,-277.58C801.42,-268.52 778.28,-257.12 758.48,-247.36"/>
<polygon fill="#63b8ff" stroke="#63b8ff" points="760.05,-244.24 749.53,-242.95 756.95,-250.51 760.05,-244.24"/>
</a>
</g>
</g>
<!-- Node40 -->
<g id="Node000040" class="node">
<title>Node40</title>
<g id="a_Node000040"><a xlink:href="Array_2IR_2OpInterfaces_8h_8inc.html" target="_top" xlink:title=" ">
<polygon fill="white" stroke="#666666" points="511.75,-242 391.5,-242 391.5,-208.5 511.75,-208.5 511.75,-242"/>
<text text-anchor="start" x="399.5" y="-228.5" font-family="Helvetica,sans-Serif" font-size="10.00">llzk/Dialect/Array</text>
<text text-anchor="middle" x="451.62" y="-215.75" font-family="Helvetica,sans-Serif" font-size="10.00">/IR/OpInterfaces.h.inc</text>
</a>
</g>
</g>
<!-- Node15&#45;&gt;Node40 -->
<g id="edge52_Node000015_Node000040" class="edge">
<title>Node15&#45;&gt;Node40</title>
<g id="a_edge52_Node000015_Node000040"><a xlink:title=" ">
<path fill="none" stroke="#63b8ff" d="M802.38,-287.03C739.41,-278.37 627.97,-262.22 523.25,-242.43"/>
<polygon fill="#63b8ff" stroke="#63b8ff" points="524.12,-239.04 513.64,-240.6 522.81,-245.91 524.12,-239.04"/>
</a>
</g>
</g>
<!-- Node41 -->
<g id="Node000041" class="node">
<title>Node41</title>
<g id="a_Node000041"><a xlink:href="Array_2IR_2Ops_8h_8inc.html" target="_top" xlink:title=" ">
<polygon fill="white" stroke="#666666" points="629.62,-242 529.62,-242 529.62,-208.5 629.62,-208.5 629.62,-242"/>
<text text-anchor="start" x="537.62" y="-228.5" font-family="Helvetica,sans-Serif" font-size="10.00">llzk/Dialect/Array</text>
<text text-anchor="middle" x="579.62" y="-215.75" font-family="Helvetica,sans-Serif" font-size="10.00">/IR/Ops.h.inc</text>
</a>
</g>
</g>
<!-- Node15&#45;&gt;Node41 -->
<g id="edge53_Node000015_Node000041" class="edge">
<title>Node15&#45;&gt;Node41</title>
<g id="a_edge53_Node000015_Node000041"><a xlink:title=" ">
<path fill="none" stroke="#63b8ff" d="M802.38,-281.95C761.42,-272.26 701.79,-257.96 640.81,-242.53"/>
<polygon fill="#63b8ff" stroke="#63b8ff" points="641.84,-239.18 631.28,-240.11 640.11,-245.96 641.84,-239.18"/>
</a>
</g>
</g>
<!-- Node16&#45;&gt;Node6 -->
<g id="edge34_Node000016_Node000006" class="edge">
<title>Node16&#45;&gt;Node6</title>
<g id="a_edge34_Node000016_Node000006"><a xlink:title=" ">
<path fill="none" stroke="#63b8ff" d="M947.7,-215.74C987.58,-208.07 1042.37,-194.53 1086.62,-172.5 1108.31,-161.7 1107.4,-148.64 1129.62,-139 1223.74,-98.18 1256.86,-122.27 1357.62,-103 1363.22,-101.93 1369.04,-100.74 1374.84,-99.51"/>
<polygon fill="#63b8ff" stroke="#63b8ff" points="1375.38,-102.97 1384.41,-97.43 1373.9,-96.13 1375.38,-102.97"/>
</a>
</g>
</g>
<!-- Node16&#45;&gt;Node8 -->
<g id="edge45_Node000016_Node000008" class="edge">
<title>Node16&#45;&gt;Node8</title>
<g id="a_edge45_Node000016_Node000008"><a xlink:title=" ">
<path fill="none" stroke="#63b8ff" d="M947.6,-222.36C983.98,-217.93 1029.58,-205.55 1053.62,-172.5 1082.98,-132.15 1060.2,-69.66 1045.15,-37.84"/>
<polygon fill="#63b8ff" stroke="#63b8ff" points="1048.33,-36.36 1040.74,-28.96 1042.06,-39.48 1048.33,-36.36"/>
</a>
</g>
</g>
<!-- Node17 -->
<g id="Node000017" class="node">
<title>Node17</title>
<g id="a_Node000017"><a xlink:href="AttributeHelper_8h.html" target="_top" xlink:title=" ">
<polygon fill="white" stroke="#666666" points="1462.88,-172.5 1352.38,-172.5 1352.38,-139 1462.88,-139 1462.88,-172.5"/>
<text text-anchor="start" x="1360.38" y="-159" font-family="Helvetica,sans-Serif" font-size="10.00">llzk/Dialect/LLZK/IR</text>
<text text-anchor="middle" x="1407.62" y="-146.25" font-family="Helvetica,sans-Serif" font-size="10.00">/AttributeHelper.h</text>
</a>
</g>
</g>
<!-- Node16&#45;&gt;Node17 -->
<g id="edge18_Node000016_Node000017" class="edge">
<title>Node16&#45;&gt;Node17</title>
<g id="a_edge18_Node000016_Node000017"><a xlink:title=" ">
<path fill="none" stroke="#63b8ff" d="M947.66,-217.15C1042.31,-204.72 1237.82,-179.05 1340.8,-165.53"/>
<polygon fill="#63b8ff" stroke="#63b8ff" points="1341.03,-169.03 1350.49,-164.25 1340.11,-162.09 1341.03,-169.03"/>
</a>
</g>
</g>
<!-- Node22 -->
<g id="Node000022" class="node">
<title>Node22</title>
<g id="a_Node000022"><a xlink:href="AffineHelper_8h.html" target="_top" xlink:title=" ">
<polygon fill="white" stroke="#666666" points="1044.38,-166.12 918.88,-166.12 918.88,-145.38 1044.38,-145.38 1044.38,-166.12"/>
<text text-anchor="middle" x="981.62" y="-152.62" font-family="Helvetica,sans-Serif" font-size="10.00">llzk/Util/AffineHelper.h</text>
</a>
</g>
</g>
<!-- Node16&#45;&gt;Node22 -->
<g id="edge23_Node000016_Node000022" class="edge">
<title>Node16&#45;&gt;Node22</title>
<g id="a_edge23_Node000016_Node000022"><a xlink:title=" ">
<path fill="none" stroke="#63b8ff" d="M914.48,-208.25C928.19,-197.74 946.09,-184.01 959.96,-173.37"/>
<polygon fill="#63b8ff" stroke="#63b8ff" points="961.81,-176.36 967.62,-167.49 957.55,-170.8 961.81,-176.36"/>
</a>
</g>
</g>
<!-- Node27 -->
<g id="Node000027" class="node">
<title>Node27</title>
<g id="a_Node000027"><a xlink:title=" ">
<polygon fill="#e0e0e0" stroke="#999999" points="570.5,-96.62 418.75,-96.62 418.75,-75.88 570.5,-75.88 570.5,-96.62"/>
<text text-anchor="middle" x="494.62" y="-83.12" font-family="Helvetica,sans-Serif" font-size="10.00">mlir/IR/OpImplementation.h</text>
</a>
</g>
</g>
<!-- Node16&#45;&gt;Node27 -->
<g id="edge44_Node000016_Node000027" class="edge">
<title>Node16&#45;&gt;Node27</title>
<g id="a_edge44_Node000016_Node000027"><a xlink:title=" ">
<path fill="none" stroke="#63b8ff" d="M839.53,-211.26C834.83,-210.28 830.15,-209.34 825.62,-208.5 711.78,-187.42 669.19,-228.07 567.62,-172.5 539.79,-157.27 517.83,-126.92 505.53,-106.85"/>
<polygon fill="#63b8ff" stroke="#63b8ff" points="508.55,-105.09 500.48,-98.22 502.51,-108.62 508.55,-105.09"/>
</a>
</g>
</g>
<!-- Node30 -->
<g id="Node000030" class="node">
<title>Node30</title>
<g id="a_Node000030"><a xlink:href="llzk_2Util_2Constants_8h.html" target="_top" xlink:title=" ">
<polygon fill="white" stroke="#666666" points="690.75,-166.12 576.5,-166.12 576.5,-145.38 690.75,-145.38 690.75,-166.12"/>
<text text-anchor="middle" x="633.62" y="-152.62" font-family="Helvetica,sans-Serif" font-size="10.00">llzk/Util/Constants.h</text>
</a>
</g>
</g>
<!-- Node16&#45;&gt;Node30 -->
<g id="edge33_Node000016_Node000030" class="edge">
<title>Node16&#45;&gt;Node30</title>
<g id="a_edge33_Node000016_Node000030"><a xlink:title=" ">
<path fill="none" stroke="#63b8ff" d="M839.44,-210.18C793.06,-198.14 726.91,-180.97 682.22,-169.37"/>
<polygon fill="#63b8ff" stroke="#63b8ff" points="683.37,-166.05 672.81,-166.92 681.61,-172.82 683.37,-166.05"/>
</a>
</g>
</g>
<!-- Node16&#45;&gt;Node31 -->
<g id="edge35_Node000016_Node000031" class="edge">
<title>Node16&#45;&gt;Node31</title>
<g id="a_edge35_Node000016_Node000031"><a xlink:title=" ">
<path fill="none" stroke="#63b8ff" d="M839.58,-210.95C834.88,-210.03 830.18,-209.19 825.62,-208.5 613.25,-176.17 556,-204.83 343.62,-172.5 337.49,-171.57 331.08,-170.37 324.76,-169.07"/>
<polygon fill="#63b8ff" stroke="#63b8ff" points="325.54,-165.65 315.03,-166.94 324.05,-172.49 325.54,-165.65"/>
</a>
</g>
</g>
<!-- Node32 -->
<g id="Node000032" class="node">
<title>Node32</title>
<g id="a_Node000032"><a xlink:title=" ">
<polygon fill="#e0e0e0" stroke="#999999" points="400.88,-96.62 278.38,-96.62 278.38,-75.88 400.88,-75.88 400.88,-96.62"/>
<text text-anchor="middle" x="339.62" y="-83.12" font-family="Helvetica,sans-Serif" font-size="10.00">mlir/IR/SymbolTable.h</text>
</a>
</g>
</g>
<!-- Node16&#45;&gt;Node32 -->
<g id="edge46_Node000016_Node000032" class="edge">
<title>Node16&#45;&gt;Node32</title>
<g id="a_edge46_Node000016_Node000032"><a xlink:title=" ">
<path fill="none" stroke="#63b8ff" d="M839.54,-211.17C834.85,-210.2 830.16,-209.3 825.62,-208.5 693.79,-185.37 647.63,-229.71 526.62,-172.5 507.16,-163.3 510.03,-150.18 491.62,-139 462.15,-121.1 425.67,-108.42 395.84,-100.09"/>
<polygon fill="#63b8ff" stroke="#63b8ff" points="396.79,-96.72 386.22,-97.5 394.97,-103.48 396.79,-96.72"/>
</a>
</g>
</g>
<!-- Node35 -->
<g id="Node000035" class="node">
<title>Node35</title>
<g id="a_Node000035"><a xlink:title=" ">
<polygon fill="#e0e0e0" stroke="#999999" points="117.25,-96.62 0,-96.62 0,-75.88 117.25,-75.88 117.25,-96.62"/>
<text text-anchor="middle" x="58.62" y="-83.12" font-family="Helvetica,sans-Serif" font-size="10.00">llvm/ADT/StringRef.h</text>
</a>
</g>
</g>
<!-- Node16&#45;&gt;Node35 -->
<g id="edge49_Node000016_Node000035" class="edge">
<title>Node16&#45;&gt;Node35</title>
<g id="a_edge49_Node000016_Node000035"><a xlink:title=" ">
<path fill="none" stroke="#63b8ff" d="M839.5,-214.86C824.37,-212.49 807.89,-210.16 792.62,-208.5 662.92,-194.43 331.57,-210.05 206.62,-172.5 157.56,-157.75 107.31,-124.08 79.82,-103.74"/>
<polygon fill="#63b8ff" stroke="#63b8ff" points="82.07,-101.05 71.98,-97.83 77.85,-106.64 82.07,-101.05"/>
</a>
</g>
</g>
<!-- Node36 -->
<g id="Node000036" class="node">
<title>Node36</title>
<g id="a_Node000036"><a xlink:title=" ">
<polygon fill="#e0e0e0" stroke="#999999" points="1258.38,-166.12 1138.88,-166.12 1138.88,-145.38 1258.38,-145.38 1258.38,-166.12"/>
<text text-anchor="middle" x="1198.62" y="-152.62" font-family="Helvetica,sans-Serif" font-size="10.00">mlir/IR/BuiltinTypes.h</text>
</a>
</g>
</g>
<!-- Node16&#45;&gt;Node36 -->
<g id="edge43_Node000016_Node000036" class="edge">
<title>Node16&#45;&gt;Node36</title>
<g id="a_edge43_Node000016_Node000036"><a xlink:title=" ">
<path fill="none" stroke="#63b8ff" d="M947.8,-212.26C1002.89,-200.07 1087.83,-181.27 1143.32,-168.99"/>
<polygon fill="#63b8ff" stroke="#63b8ff" points="1143.87,-172.45 1152.87,-166.88 1142.35,-165.62 1143.87,-172.45"/>
</a>
</g>
</g>
<!-- Node37 -->
<g id="Node000037" class="node">
<title>Node37</title>
<g id="a_Node000037"><a xlink:title=" ">
<polygon fill="#e0e0e0" stroke="#999999" points="862.25,-166.12 709,-166.12 709,-145.38 862.25,-145.38 862.25,-166.12"/>
<text text-anchor="middle" x="785.62" y="-152.62" font-family="Helvetica,sans-Serif" font-size="10.00">mlir/Support/LogicalResult.h</text>
</a>
</g>
</g>
<!-- Node16&#45;&gt;Node37 -->
<g id="edge47_Node000016_Node000037" class="edge">
<title>Node16&#45;&gt;Node37</title>
<g id="a_edge47_Node000016_Node000037"><a xlink:title=" ">
<path fill="none" stroke="#63b8ff" d="M867.76,-208.08C850.44,-197.26 827.76,-183.09 810.63,-172.38"/>
<polygon fill="#63b8ff" stroke="#63b8ff" points="812.88,-169.66 802.54,-167.32 809.17,-175.59 812.88,-169.66"/>
</a>
</g>
</g>
<!-- Node38 -->
<g id="Node000038" class="node">
<title>Node38</title>
<g id="a_Node000038"><a xlink:title=" ">
<polygon fill="#e0e0e0" stroke="#999999" points="482.25,-166.12 353,-166.12 353,-145.38 482.25,-145.38 482.25,-166.12"/>
<text text-anchor="middle" x="417.62" y="-152.62" font-family="Helvetica,sans-Serif" font-size="10.00">llvm/ADT/SmallString.h</text>
</a>
</g>
</g>
<!-- Node16&#45;&gt;Node38 -->
<g id="edge48_Node000016_Node000038" class="edge">
<title>Node16&#45;&gt;Node38</title>
<g id="a_edge48_Node000016_Node000038"><a xlink:title=" ">
<path fill="none" stroke="#63b8ff" d="M839.55,-211.12C834.86,-210.16 830.16,-209.27 825.62,-208.5 680.61,-183.86 642,-194.9 496.62,-172.5 489.47,-171.4 481.97,-170.1 474.57,-168.72"/>
<polygon fill="#63b8ff" stroke="#63b8ff" points="475.42,-165.32 464.94,-166.88 474.11,-172.2 475.42,-165.32"/>
</a>
</g>
</g>
<!-- Node18 -->
<g id="Node000018" class="node">
<title>Node18</title>
<g id="a_Node000018"><a xlink:href="StreamHelper_8h.html" target="_top" xlink:title=" ">
<polygon fill="white" stroke="#666666" points="1945.75,-96.62 1813.5,-96.62 1813.5,-75.88 1945.75,-75.88 1945.75,-96.62"/>
<text text-anchor="middle" x="1879.62" y="-83.12" font-family="Helvetica,sans-Serif" font-size="10.00">llzk/Util/StreamHelper.h</text>
</a>
</g>
</g>
<!-- Node17&#45;&gt;Node18 -->
<g id="edge19_Node000017_Node000018" class="edge">
<title>Node17&#45;&gt;Node18</title>
<g id="a_edge19_Node000017_Node000018"><a xlink:title=" ">
<path fill="none" stroke="#63b8ff" d="M1463.19,-140.78C1466.38,-140.14 1469.54,-139.54 1472.62,-139 1618.83,-113.47 1658.04,-126.28 1804.62,-103 1811.36,-101.93 1818.4,-100.66 1825.35,-99.31"/>
<polygon fill="#63b8ff" stroke="#63b8ff" points="1825.93,-102.76 1835.05,-97.36 1824.55,-95.9 1825.93,-102.76"/>
</a>
</g>
</g>
<!-- Node20 -->
<g id="Node000020" class="node">
<title>Node20</title>
<g id="a_Node000020"><a xlink:title=" ">
<polygon fill="#e0e0e0" stroke="#999999" points="1679,-96.62 1506.25,-96.62 1506.25,-75.88 1679,-75.88 1679,-96.62"/>
<text text-anchor="middle" x="1592.62" y="-83.12" font-family="Helvetica,sans-Serif" font-size="10.00">mlir/IR/DialectImplementation.h</text>
</a>
</g>
</g>
<!-- Node17&#45;&gt;Node20 -->
<g id="edge21_Node000017_Node000020" class="edge">
<title>Node17&#45;&gt;Node20</title>
<g id="a_edge21_Node000017_Node000020"><a xlink:title=" ">
<path fill="none" stroke="#63b8ff" d="M1451.94,-138.58C1483.31,-127.13 1524.95,-111.94 1554.77,-101.06"/>
<polygon fill="#63b8ff" stroke="#63b8ff" points="1555.96,-104.35 1564.15,-97.64 1553.56,-97.78 1555.96,-104.35"/>
</a>
</g>
</g>
<!-- Node21 -->
<g id="Node000021" class="node">
<title>Node21</title>
<g id="a_Node000021"><a xlink:title=" ">
<polygon fill="#e0e0e0" stroke="#999999" points="1795.88,-96.62 1697.38,-96.62 1697.38,-75.88 1795.88,-75.88 1795.88,-96.62"/>
<text text-anchor="middle" x="1746.62" y="-83.12" font-family="Helvetica,sans-Serif" font-size="10.00">llvm/ADT/APInt.h</text>
</a>
</g>
</g>
<!-- Node17&#45;&gt;Node21 -->
<g id="edge22_Node000017_Node000021" class="edge">
<title>Node17&#45;&gt;Node21</title>
<g id="a_edge22_Node000017_Node000021"><a xlink:title=" ">
<path fill="none" stroke="#63b8ff" d="M1463.24,-141C1466.41,-140.3 1469.55,-139.63 1472.62,-139 1567.54,-119.58 1592.94,-123.52 1687.62,-103 1691.99,-102.05 1696.51,-100.99 1701.03,-99.88"/>
<polygon fill="#63b8ff" stroke="#63b8ff" points="1701.84,-103.29 1710.66,-97.42 1700.11,-96.5 1701.84,-103.29"/>
</a>
</g>
</g>
<!-- Node19 -->
<g id="Node000019" class="node">
<title>Node19</title>
<g id="a_Node000019"><a xlink:title=" ">
<polygon fill="#e0e0e0" stroke="#999999" points="1949.62,-27.12 1795.62,-27.12 1795.62,-6.38 1949.62,-6.38 1949.62,-27.12"/>
<text text-anchor="middle" x="1872.62" y="-13.62" font-family="Helvetica,sans-Serif" font-size="10.00">llvm/Support/raw_ostream.h</text>
</a>
</g>
</g>
<!-- Node18&#45;&gt;Node19 -->
<g id="edge20_Node000018_Node000019" class="edge">
<title>Node18&#45;&gt;Node19</title>
<g id="a_edge20_Node000018_Node000019"><a xlink:title=" ">
<path fill="none" stroke="#63b8ff" d="M1878.62,-75.58C1877.62,-65.96 1876.06,-50.88 1874.78,-38.54"/>
<polygon fill="#63b8ff" stroke="#63b8ff" points="1878.3,-38.49 1873.78,-28.91 1871.33,-39.22 1878.3,-38.49"/>
</a>
</g>
</g>
<!-- Node22&#45;&gt;Node8 -->
<g id="edge30_Node000022_Node000008" class="edge">
<title>Node22&#45;&gt;Node8</title>
<g id="a_edge30_Node000022_Node000008"><a xlink:title=" ">
<path fill="none" stroke="#63b8ff" d="M989.56,-145.06C997.32,-135.1 1008.92,-118.84 1015.62,-103 1024.47,-82.1 1029.47,-56.5 1032.09,-38.84"/>
<polygon fill="#63b8ff" stroke="#63b8ff" points="1035.54,-39.44 1033.4,-29.06 1028.6,-38.51 1035.54,-39.44"/>
</a>
</g>
</g>
<!-- Node23 -->
<g id="Node000023" class="node">
<title>Node23</title>
<g id="a_Node000023"><a xlink:href="Compare_8h.html" target="_top" xlink:title=" ">
<polygon fill="white" stroke="#666666" points="698.5,-96.62 588.75,-96.62 588.75,-75.88 698.5,-75.88 698.5,-96.62"/>
<text text-anchor="middle" x="643.62" y="-83.12" font-family="Helvetica,sans-Serif" font-size="10.00">llzk/Util/Compare.h</text>
</a>
</g>
</g>
<!-- Node22&#45;&gt;Node23 -->
<g id="edge24_Node000022_Node000023" class="edge">
<title>Node22&#45;&gt;Node23</title>
<g id="a_edge24_Node000022_Node000023"><a xlink:title=" ">
<path fill="none" stroke="#63b8ff" d="M932.48,-144.93C871.9,-132.84 768.99,-112.29 703.76,-99.26"/>
<polygon fill="#63b8ff" stroke="#63b8ff" points="704.81,-95.9 694.32,-97.37 703.44,-102.76 704.81,-95.9"/>
</a>
</g>
</g>
<!-- Node26 -->
<g id="Node000026" class="node">
<title>Node26</title>
<g id="a_Node000026"><a xlink:title=" ">
<polygon fill="#e0e0e0" stroke="#999999" points="1200.62,-96.62 1100.62,-96.62 1100.62,-75.88 1200.62,-75.88 1200.62,-96.62"/>
<text text-anchor="middle" x="1150.62" y="-83.12" font-family="Helvetica,sans-Serif" font-size="10.00">mlir/IR/Builders.h</text>
</a>
</g>
</g>
<!-- Node22&#45;&gt;Node26 -->
<g id="edge28_Node000022_Node000026" class="edge">
<title>Node22&#45;&gt;Node26</title>
<g id="a_edge28_Node000022_Node000026"><a xlink:title=" ">
<path fill="none" stroke="#63b8ff" d="M1006.2,-144.93C1034.99,-133.44 1082.89,-114.3 1115.57,-101.25"/>
<polygon fill="#63b8ff" stroke="#63b8ff" points="1116.63,-104.6 1124.62,-97.64 1114.03,-98.1 1116.63,-104.6"/>
</a>
</g>
</g>
<!-- Node22&#45;&gt;Node27 -->
<g id="edge29_Node000022_Node000027" class="edge">
<title>Node22&#45;&gt;Node27</title>
<g id="a_edge29_Node000022_Node000027"><a xlink:title=" ">
<path fill="none" stroke="#63b8ff" d="M918.54,-145.5C903.2,-143.31 886.83,-141.03 871.62,-139 742.01,-121.73 708.86,-122.92 579.62,-103 571.96,-101.82 563.93,-100.47 555.99,-99.08"/>
<polygon fill="#63b8ff" stroke="#63b8ff" points="556.83,-95.67 546.37,-97.35 555.59,-102.56 556.83,-95.67"/>
</a>
</g>
</g>
<!-- Node28 -->
<g id="Node000028" class="node">
<title>Node28</title>
<g id="a_Node000028"><a xlink:title=" ">
<polygon fill="#e0e0e0" stroke="#999999" points="1006.62,-96.62 888.62,-96.62 888.62,-75.88 1006.62,-75.88 1006.62,-96.62"/>
<text text-anchor="middle" x="947.62" y="-83.12" font-family="Helvetica,sans-Serif" font-size="10.00">mlir/IR/ValueRange.h</text>
</a>
</g>
</g>
<!-- Node22&#45;&gt;Node28 -->
<g id="edge31_Node000022_Node000028" class="edge">
<title>Node22&#45;&gt;Node28</title>
<g id="a_edge31_Node000022_Node000028"><a xlink:title=" ">
<path fill="none" stroke="#63b8ff" d="M976.75,-145.08C971.75,-135.15 963.84,-119.43 957.52,-106.89"/>
<polygon fill="#63b8ff" stroke="#63b8ff" points="960.79,-105.61 953.17,-98.25 954.54,-108.76 960.79,-105.61"/>
</a>
</g>
</g>
<!-- Node29 -->
<g id="Node000029" class="node">
<title>Node29</title>
<g id="a_Node000029"><a xlink:title=" ">
<polygon fill="#e0e0e0" stroke="#999999" points="1349,-96.62 1218.25,-96.62 1218.25,-75.88 1349,-75.88 1349,-96.62"/>
<text text-anchor="middle" x="1283.62" y="-83.12" font-family="Helvetica,sans-Serif" font-size="10.00">llvm/ADT/SmallVector.h</text>
</a>
</g>
</g>
<!-- Node22&#45;&gt;Node29 -->
<g id="edge32_Node000022_Node000029" class="edge">
<title>Node22&#45;&gt;Node29</title>
<g id="a_edge32_Node000022_Node000029"><a xlink:title=" ">
<path fill="none" stroke="#63b8ff" d="M1025.54,-144.93C1079.22,-132.94 1170.09,-112.63 1228.44,-99.58"/>
<polygon fill="#63b8ff" stroke="#63b8ff" points="1229.19,-103 1238.18,-97.41 1227.66,-96.17 1229.19,-103"/>
</a>
</g>
</g>
<!-- Node23&#45;&gt;Node8 -->
<g id="edge25_Node000023_Node000008" class="edge">
<title>Node23&#45;&gt;Node8</title>
<g id="a_edge25_Node000023_Node000008"><a xlink:title=" ">
<path fill="none" stroke="#63b8ff" d="M684.76,-75.4C693.91,-73.34 703.58,-71.26 712.62,-69.5 800.84,-52.36 903.45,-36.58 968.69,-27.06"/>
<polygon fill="#63b8ff" stroke="#63b8ff" points="969.13,-30.54 978.53,-25.64 968.13,-23.61 969.13,-30.54"/>
</a>
</g>
</g>
<!-- Node24 -->
<g id="Node000024" class="node">
<title>Node24</title>
<g id="a_Node000024"><a xlink:title=" ">
<polygon fill="#e0e0e0" stroke="#999999" points="708.38,-27.12 648.88,-27.12 648.88,-6.38 708.38,-6.38 708.38,-27.12"/>
<text text-anchor="middle" x="678.62" y="-13.62" font-family="Helvetica,sans-Serif" font-size="10.00">concepts</text>
</a>
</g>
</g>
<!-- Node23&#45;&gt;Node24 -->
<g id="edge26_Node000023_Node000024" class="edge">
<title>Node23&#45;&gt;Node24</title>
<g id="a_edge26_Node000023_Node000024"><a xlink:title=" ">
<path fill="none" stroke="#63b8ff" d="M648.64,-75.58C653.79,-65.65 661.94,-49.93 668.44,-37.39"/>
<polygon fill="#63b8ff" stroke="#63b8ff" points="671.43,-39.24 672.92,-28.75 665.21,-36.01 671.43,-39.24"/>
</a>
</g>
</g>
<!-- Node25 -->
<g id="Node000025" class="node">
<title>Node25</title>
<g id="a_Node000025"><a xlink:title=" ">
<polygon fill="#e0e0e0" stroke="#999999" points="630.88,-27.12 586.38,-27.12 586.38,-6.38 630.88,-6.38 630.88,-27.12"/>
<text text-anchor="middle" x="608.62" y="-13.62" font-family="Helvetica,sans-Serif" font-size="10.00">utility</text>
</a>
</g>
</g>
<!-- Node23&#45;&gt;Node25 -->
<g id="edge27_Node000023_Node000025" class="edge">
<title>Node23&#45;&gt;Node25</title>
<g id="a_edge27_Node000023_Node000025"><a xlink:title=" ">
<path fill="none" stroke="#63b8ff" d="M638.61,-75.58C633.46,-65.65 625.31,-49.93 618.81,-37.39"/>
<polygon fill="#63b8ff" stroke="#63b8ff" points="622.04,-36.01 614.33,-28.75 615.82,-39.24 622.04,-36.01"/>
</a>
</g>
</g>
<!-- Node31&#45;&gt;Node6 -->
<g id="edge36_Node000031_Node000006" class="edge">
<title>Node31&#45;&gt;Node6</title>
<g id="a_edge36_Node000031_Node000006"><a xlink:title=" ">
<path fill="none" stroke="#63b8ff" d="M312.09,-144.95C322.23,-142.59 333.29,-140.37 343.62,-139 790.68,-79.85 910.39,-160.74 1357.62,-103 1364.6,-102.1 1371.9,-100.83 1379.04,-99.4"/>
<polygon fill="#63b8ff" stroke="#63b8ff" points="1379.54,-102.87 1388.59,-97.36 1378.08,-96.03 1379.54,-102.87"/>
</a>
</g>
</g>
<!-- Node31&#45;&gt;Node8 -->
<g id="edge38_Node000031_Node000008" class="edge">
<title>Node31&#45;&gt;Node8</title>
<g id="a_edge38_Node000031_Node000008"><a xlink:title=" ">
<path fill="none" stroke="#63b8ff" d="M314.29,-144.88C323.83,-142.7 334.06,-140.57 343.62,-139 504.03,-112.6 558.57,-167.88 707.62,-103 728.27,-94.01 725.35,-79.29 745.62,-69.5 816.88,-35.09 908,-23.38 968.68,-19.5"/>
<polygon fill="#63b8ff" stroke="#63b8ff" points="968.73,-23 978.51,-18.93 968.32,-16.01 968.73,-23"/>
</a>
</g>
</g>
<!-- Node31&#45;&gt;Node27 -->
<g id="edge37_Node000031_Node000027" class="edge">
<title>Node31&#45;&gt;Node27</title>
<g id="a_edge37_Node000031_Node000027"><a xlink:title=" ">
<path fill="none" stroke="#63b8ff" d="M307.47,-144.93C345.58,-133.19 409.56,-113.47 451.93,-100.41"/>
<polygon fill="#63b8ff" stroke="#63b8ff" points="452.77,-103.81 461.3,-97.52 450.71,-97.12 452.77,-103.81"/>
</a>
</g>
</g>
<!-- Node31&#45;&gt;Node32 -->
<g id="edge39_Node000031_Node000032" class="edge">
<title>Node31&#45;&gt;Node32</title>
<g id="a_edge39_Node000031_Node000032"><a xlink:title=" ">
<path fill="none" stroke="#63b8ff" d="M284.79,-145.08C294.68,-134.65 310.63,-117.83 322.78,-105.01"/>
<polygon fill="#63b8ff" stroke="#63b8ff" points="325.09,-107.67 329.43,-98 320.01,-102.85 325.09,-107.67"/>
</a>
</g>
</g>
<!-- Node33 -->
<g id="Node000033" class="node">
<title>Node33</title>
<g id="a_Node000033"><a xlink:title=" ">
<polygon fill="#e0e0e0" stroke="#999999" points="870.12,-96.62 755.12,-96.62 755.12,-75.88 870.12,-75.88 870.12,-96.62"/>
<text text-anchor="middle" x="812.62" y="-83.12" font-family="Helvetica,sans-Serif" font-size="10.00">llvm/ADT/ArrayRef.h</text>
</a>
</g>
</g>
<!-- Node31&#45;&gt;Node33 -->
<g id="edge40_Node000031_Node000033" class="edge">
<title>Node31&#45;&gt;Node33</title>
<g id="a_edge40_Node000031_Node000033"><a xlink:title=" ">
<path fill="none" stroke="#63b8ff" d="M313.92,-144.91C323.57,-142.7 333.93,-140.55 343.62,-139 518.56,-110.95 565.52,-129.98 740.62,-103 747.19,-101.99 754.05,-100.74 760.82,-99.39"/>
<polygon fill="#63b8ff" stroke="#63b8ff" points="761.49,-102.83 770.57,-97.36 760.06,-95.97 761.49,-102.83"/>
</a>
</g>
</g>
<!-- Node34 -->
<g id="Node000034" class="node">
<title>Node34</title>
<g id="a_Node000034"><a xlink:title=" ">
<polygon fill="#e0e0e0" stroke="#999999" points="260,-96.62 135.25,-96.62 135.25,-75.88 260,-75.88 260,-96.62"/>
<text text-anchor="middle" x="197.62" y="-83.12" font-family="Helvetica,sans-Serif" font-size="10.00">llvm/ADT/DenseMap.h</text>
</a>
</g>
</g>
<!-- Node31&#45;&gt;Node34 -->
<g id="edge41_Node000031_Node000034" class="edge">
<title>Node31&#45;&gt;Node34</title>
<g id="a_edge41_Node000031_Node000034"><a xlink:title=" ">
<path fill="none" stroke="#63b8ff" d="M264.45,-145.08C252.24,-134.51 232.44,-117.38 217.55,-104.5"/>
<polygon fill="#63b8ff" stroke="#63b8ff" points="220.03,-102.01 210.18,-98.11 215.45,-107.3 220.03,-102.01"/>
</a>
</g>
</g>
<!-- Node31&#45;&gt;Node35 -->
<g id="edge42_Node000031_Node000035" class="edge">
<title>Node31&#45;&gt;Node35</title>
<g id="a_edge42_Node000031_Node000035"><a xlink:title=" ">
<path fill="none" stroke="#63b8ff" d="M244.07,-144.93C206.38,-133.21 143.18,-113.55 101.19,-100.49"/>
<polygon fill="#63b8ff" stroke="#63b8ff" points="102.25,-97.15 91.66,-97.53 100.17,-103.84 102.25,-97.15"/>
</a>
</g>
</g>
<!-- Node42&#45;&gt;Node2 -->
<g id="edge55_Node000042_Node000002" class="edge">
<title>Node42&#45;&gt;Node2</title>
<g id="a_edge55_Node000042_Node000002"><a xlink:title=" ">
<path fill="none" stroke="#63b8ff" d="M1539.22,-217.95C1628.02,-209.06 1792.71,-191.75 1932.62,-172.5 1944.15,-170.91 1956.42,-169.05 1968.22,-167.18"/>
<polygon fill="#63b8ff" stroke="#63b8ff" points="1968.54,-170.68 1977.86,-165.63 1967.43,-163.76 1968.54,-170.68"/>
</a>
</g>
</g>
<!-- Node42&#45;&gt;Node17 -->
<g id="edge56_Node000042_Node000017" class="edge">
<title>Node42&#45;&gt;Node17</title>
<g id="a_edge56_Node000042_Node000017"><a xlink:title=" ">
<path fill="none" stroke="#63b8ff" d="M1458.75,-208.25C1450.57,-200.02 1440.43,-189.8 1431.35,-180.65"/>
<polygon fill="#63b8ff" stroke="#63b8ff" points="1433.98,-178.34 1424.46,-173.71 1429.02,-183.27 1433.98,-178.34"/>
</a>
</g>
</g>
<!-- Node42&#45;&gt;Node26 -->
<g id="edge58_Node000042_Node000026" class="edge">
<title>Node42&#45;&gt;Node26</title>
<g id="a_edge58_Node000042_Node000026"><a xlink:title=" ">
<path fill="none" stroke="#63b8ff" d="M1410.07,-210.27C1378.35,-201.9 1340.26,-189.52 1308.62,-172.5 1287.9,-161.35 1287.68,-151.31 1267.62,-139 1242.63,-123.65 1212.28,-110.36 1188.76,-101.1"/>
<polygon fill="#63b8ff" stroke="#63b8ff" points="1190.14,-97.88 1179.55,-97.55 1187.63,-104.41 1190.14,-97.88"/>
</a>
</g>
</g>
<!-- Node42&#45;&gt;Node29 -->
<g id="edge63_Node000042_Node000029" class="edge">
<title>Node42&#45;&gt;Node29</title>
<g id="a_edge63_Node000042_Node000029"><a xlink:title=" ">
<path fill="none" stroke="#63b8ff" d="M1412.72,-208.05C1389.46,-199.94 1363.8,-188.38 1343.62,-172.5 1321.04,-154.72 1303.38,-126.19 1293.23,-107.09"/>
<polygon fill="#63b8ff" stroke="#63b8ff" points="1296.49,-105.76 1288.83,-98.44 1290.25,-108.94 1296.49,-105.76"/>
</a>
</g>
</g>
<!-- Node42&#45;&gt;Node33 -->
<g id="edge62_Node000042_Node000033" class="edge">
<title>Node42&#45;&gt;Node33</title>
<g id="a_edge62_Node000042_Node000033"><a xlink:title=" ">
<path fill="none" stroke="#63b8ff" d="M1410.18,-223.34C1281.65,-220.72 998.16,-210.66 909.62,-172.5 888.95,-163.59 888.53,-153.87 871.62,-139 858.38,-127.36 843.45,-114.26 831.93,-104.16"/>
<polygon fill="#63b8ff" stroke="#63b8ff" points="834.47,-101.74 824.64,-97.78 829.86,-107 834.47,-101.74"/>
</a>
</g>
</g>
<!-- Node42&#45;&gt;Node36 -->
<g id="edge59_Node000042_Node000036" class="edge">
<title>Node42&#45;&gt;Node36</title>
<g id="a_edge59_Node000042_Node000036"><a xlink:title=" ">
<path fill="none" stroke="#63b8ff" d="M1409.92,-208.42C1361.15,-196.5 1295.18,-180.37 1250.01,-169.32"/>
<polygon fill="#63b8ff" stroke="#63b8ff" points="1251.01,-165.96 1240.46,-166.98 1249.35,-172.76 1251.01,-165.96"/>
</a>
</g>
</g>
<!-- Node43 -->
<g id="Node000043" class="node">
<title>Node43</title>
<g id="a_Node000043"><a xlink:title=" ">
<polygon fill="#e0e0e0" stroke="#999999" points="1803.75,-166.12 1695.5,-166.12 1695.5,-145.38 1803.75,-145.38 1803.75,-166.12"/>
<text text-anchor="middle" x="1749.62" y="-152.62" font-family="Helvetica,sans-Serif" font-size="10.00">mlir/IR/Attributes.h</text>
</a>
</g>
</g>
<!-- Node42&#45;&gt;Node43 -->
<g id="edge57_Node000042_Node000043" class="edge">
<title>Node42&#45;&gt;Node43</title>
<g id="a_edge57_Node000042_Node000043"><a xlink:title=" ">
<path fill="none" stroke="#63b8ff" d="M1539.13,-208.6C1581.15,-198.39 1637.16,-184.72 1686.62,-172.5 1690.7,-171.49 1694.91,-170.45 1699.15,-169.4"/>
<polygon fill="#63b8ff" stroke="#63b8ff" points="1699.99,-172.79 1708.84,-166.98 1698.3,-166 1699.99,-172.79"/>
</a>
</g>
</g>
<!-- Node44 -->
<g id="Node000044" class="node">
<title>Node44</title>
<g id="a_Node000044"><a xlink:title=" ">
<polygon fill="#e0e0e0" stroke="#999999" points="1923.38,-166.12 1821.88,-166.12 1821.88,-145.38 1923.38,-145.38 1923.38,-166.12"/>
<text text-anchor="middle" x="1872.62" y="-152.62" font-family="Helvetica,sans-Serif" font-size="10.00">mlir/IR/Location.h</text>
</a>
</g>
</g>
<!-- Node42&#45;&gt;Node44 -->
<g id="edge60_Node000042_Node000044" class="edge">
<title>Node42&#45;&gt;Node44</title>
<g id="a_edge60_Node000042_Node000044"><a xlink:title=" ">
<path fill="none" stroke="#63b8ff" d="M1539.15,-216.42C1607.44,-207.65 1718.16,-192.07 1812.62,-172.5 1817.19,-171.55 1821.93,-170.48 1826.65,-169.34"/>
<polygon fill="#63b8ff" stroke="#63b8ff" points="1827.23,-172.8 1836.09,-166.98 1825.54,-166.01 1827.23,-172.8"/>
</a>
</g>
</g>
<!-- Node45 -->
<g id="Node000045" class="node">
<title>Node45</title>
<g id="a_Node000045"><a xlink:title=" ">
<polygon fill="#e0e0e0" stroke="#999999" points="1603.88,-166.12 1481.38,-166.12 1481.38,-145.38 1603.88,-145.38 1603.88,-166.12"/>
<text text-anchor="middle" x="1542.62" y="-152.62" font-family="Helvetica,sans-Serif" font-size="10.00">mlir/IR/MLIRContext.h</text>
</a>
</g>
</g>
<!-- Node42&#45;&gt;Node45 -->
<g id="edge61_Node000042_Node000045" class="edge">
<title>Node42&#45;&gt;Node45</title>
<g id="a_edge61_Node000042_Node000045"><a xlink:title=" ">
<path fill="none" stroke="#63b8ff" d="M1490.74,-208.25C1500.93,-198.14 1514.11,-185.06 1524.64,-174.61"/>
<polygon fill="#63b8ff" stroke="#63b8ff" points="1527.02,-177.17 1531.66,-167.64 1522.09,-172.2 1527.02,-177.17"/>
</a>
</g>
</g>
<!-- Node46 -->
<g id="Node000046" class="node">
<title>Node46</title>
<g id="a_Node000046"><a xlink:title=" ">
<polygon fill="#e0e0e0" stroke="#999999" points="1677.5,-166.12 1621.75,-166.12 1621.75,-145.38 1677.5,-145.38 1677.5,-166.12"/>
<text text-anchor="middle" x="1649.62" y="-152.62" font-family="Helvetica,sans-Serif" font-size="10.00">optional</text>
</a>
</g>
</g>
<!-- Node42&#45;&gt;Node46 -->
<g id="edge64_Node000042_Node000046" class="edge">
<title>Node42&#45;&gt;Node46</title>
<g id="a_edge64_Node000042_Node000046"><a xlink:title=" ">
<path fill="none" stroke="#63b8ff" d="M1519.25,-208.08C1546.37,-198.11 1581.62,-184.9 1612.62,-172.5 1613.94,-171.97 1615.27,-171.43 1616.62,-170.88"/>
<polygon fill="#63b8ff" stroke="#63b8ff" points="1617.71,-174.22 1625.59,-167.15 1615.02,-167.76 1617.71,-174.22"/>
</a>
</g>
</g>
</g>
</svg>
