<?xml version="1.0" encoding="UTF-8" standalone="no"?>
<!DOCTYPE svg PUBLIC "-//W3C//DTD SVG 1.1//EN"
 "http://www.w3.org/Graphics/SVG/1.1/DTD/svg11.dtd">
<!-- Generated by graphviz version 12.2.1 (0)
 -->
<!-- Title: include/llzk/Dialect/Array/IR/Types.h Pages: 1 -->
<svg width="1051pt" height="181pt"
 viewBox="0.00 0.00 1050.50 180.50" xmlns="http://www.w3.org/2000/svg" xmlns:xlink="http://www.w3.org/1999/xlink">
<g id="graph0" class="graph" transform="scale(1 1) rotate(0) translate(4 176.5)">
<title>include/llzk/Dialect/Array/IR/Types.h</title>
<!-- Node1 -->
<g id="Node000001" class="node">
<title>Node1</title>
<g id="a_Node000001"><a xlink:title=" ">
<polygon fill="#999999" stroke="#666666" points="724.75,-172.5 615.75,-172.5 615.75,-139 724.75,-139 724.75,-172.5"/>
<text text-anchor="start" x="623.75" y="-159" font-family="Helvetica,sans-Serif" font-size="10.00">include/llzk/Dialect</text>
<text text-anchor="middle" x="670.25" y="-146.25" font-family="Helvetica,sans-Serif" font-size="10.00">/Array/IR/Types.h</text>
</a>
</g>
</g>
<!-- Node2 -->
<g id="Node000002" class="node">
<title>Node2</title>
<g id="a_Node000002"><a xlink:href="Array_2IR_2Dialect_8h.html" target="_top" xlink:title=" ">
<polygon fill="white" stroke="#666666" points="228.25,-103 128.25,-103 128.25,-69.5 228.25,-69.5 228.25,-103"/>
<text text-anchor="start" x="136.25" y="-89.5" font-family="Helvetica,sans-Serif" font-size="10.00">llzk/Dialect/Array</text>
<text text-anchor="middle" x="178.25" y="-76.75" font-family="Helvetica,sans-Serif" font-size="10.00">/IR/Dialect.h</text>
</a>
</g>
</g>
<!-- Node1&#45;&gt;Node2 -->
<g id="edge1_Node000001_Node000002" class="edge">
<title>Node1&#45;&gt;Node2</title>
<g id="a_edge1_Node000001_Node000002"><a xlink:title=" ">
<path fill="none" stroke="#63b8ff" d="M615.72,-147.27C523.4,-134.6 336.92,-109.02 239.96,-95.72"/>
<polygon fill="#63b8ff" stroke="#63b8ff" points="240.47,-92.25 230.09,-94.36 239.52,-99.19 240.47,-92.25"/>
</a>
</g>
</g>
<!-- Node5 -->
<g id="Node000005" class="node">
<title>Node5</title>
<g id="a_Node000005"><a xlink:href="ErrorHelper_8h.html" target="_top" xlink:title=" ">
<polygon fill="white" stroke="#666666" points="654.38,-96.62 534.12,-96.62 534.12,-75.88 654.38,-75.88 654.38,-96.62"/>
<text text-anchor="middle" x="594.25" y="-83.12" font-family="Helvetica,sans-Serif" font-size="10.00">llzk/Util/ErrorHelper.h</text>
</a>
</g>
</g>
<!-- Node1&#45;&gt;Node5 -->
<g id="edge4_Node000001_Node000005" class="edge">
<title>Node1&#45;&gt;Node5</title>
<g id="a_edge4_Node000001_Node000005"><a xlink:title=" ">
<path fill="none" stroke="#63b8ff" d="M652.24,-138.75C640.63,-128.44 625.53,-115.03 613.65,-104.48"/>
<polygon fill="#63b8ff" stroke="#63b8ff" points="616.24,-102.1 606.44,-98.08 611.59,-107.33 616.24,-102.1"/>
</a>
</g>
</g>
<!-- Node12 -->
<g id="Node000012" class="node">
<title>Node12</title>
<g id="a_Node000012"><a xlink:title=" ">
<polygon fill="#e0e0e0" stroke="#999999" points="822,-103 672.5,-103 672.5,-69.5 822,-69.5 822,-103"/>
<text text-anchor="start" x="680.5" y="-89.5" font-family="Helvetica,sans-Serif" font-size="10.00">mlir/Interfaces/MemorySlot</text>
<text text-anchor="middle" x="747.25" y="-76.75" font-family="Helvetica,sans-Serif" font-size="10.00">Interfaces.h</text>
</a>
</g>
</g>
<!-- Node1&#45;&gt;Node12 -->
<g id="edge11_Node000001_Node000012" class="edge">
<title>Node1&#45;&gt;Node12</title>
<g id="a_edge11_Node000001_Node000012"><a xlink:title=" ">
<path fill="none" stroke="#63b8ff" d="M688.5,-138.75C698.02,-130.41 709.85,-120.04 720.39,-110.8"/>
<polygon fill="#63b8ff" stroke="#63b8ff" points="722.52,-113.59 727.73,-104.36 717.9,-108.32 722.52,-113.59"/>
</a>
</g>
</g>
<!-- Node13 -->
<g id="Node000013" class="node">
<title>Node13</title>
<g id="a_Node000013"><a xlink:href="Array_2IR_2Types_8h_8inc.html" target="_top" xlink:title=" ">
<polygon fill="white" stroke="#666666" points="940.25,-103 840.25,-103 840.25,-69.5 940.25,-69.5 940.25,-103"/>
<text text-anchor="start" x="848.25" y="-89.5" font-family="Helvetica,sans-Serif" font-size="10.00">llzk/Dialect/Array</text>
<text text-anchor="middle" x="890.25" y="-76.75" font-family="Helvetica,sans-Serif" font-size="10.00">/IR/Types.h.inc</text>
</a>
</g>
</g>
<!-- Node1&#45;&gt;Node13 -->
<g id="edge12_Node000001_Node000013" class="edge">
<title>Node1&#45;&gt;Node13</title>
<g id="a_edge12_Node000001_Node000013"><a xlink:title=" ">
<path fill="none" stroke="#63b8ff" d="M722.95,-138.58C754.81,-128.81 795.57,-116.3 828.89,-106.08"/>
<polygon fill="#63b8ff" stroke="#63b8ff" points="829.9,-109.43 838.43,-103.15 827.84,-102.74 829.9,-109.43"/>
</a>
</g>
</g>
<!-- Node3 -->
<g id="Node000003" class="node">
<title>Node3</title>
<g id="a_Node000003"><a xlink:title=" ">
<polygon fill="#e0e0e0" stroke="#999999" points="110.5,-27.12 0,-27.12 0,-6.38 110.5,-6.38 110.5,-27.12"/>
<text text-anchor="middle" x="55.25" y="-13.62" font-family="Helvetica,sans-Serif" font-size="10.00">mlir/IR/BuiltinOps.h</text>
</a>
</g>
</g>
<!-- Node2&#45;&gt;Node3 -->
<g id="edge2_Node000002_Node000003" class="edge">
<title>Node2&#45;&gt;Node3</title>
<g id="a_edge2_Node000002_Node000003"><a xlink:title=" ">
<path fill="none" stroke="#63b8ff" d="M148.79,-69.08C128.79,-58.11 102.51,-43.69 82.91,-32.93"/>
<polygon fill="#63b8ff" stroke="#63b8ff" points="84.83,-29.99 74.38,-28.25 81.46,-36.13 84.83,-29.99"/>
</a>
</g>
</g>
<!-- Node4 -->
<g id="Node000004" class="node">
<title>Node4</title>
<g id="a_Node000004"><a xlink:href="Array_2IR_2Dialect_8h_8inc.html" target="_top" xlink:title=" ">
<polygon fill="white" stroke="#666666" points="228.25,-33.5 128.25,-33.5 128.25,0 228.25,0 228.25,-33.5"/>
<text text-anchor="start" x="136.25" y="-20" font-family="Helvetica,sans-Serif" font-size="10.00">llzk/Dialect/Array</text>
<text text-anchor="middle" x="178.25" y="-7.25" font-family="Helvetica,sans-Serif" font-size="10.00">/IR/Dialect.h.inc</text>
</a>
</g>
</g>
<!-- Node2&#45;&gt;Node4 -->
<g id="edge3_Node000002_Node000004" class="edge">
<title>Node2&#45;&gt;Node4</title>
<g id="a_edge3_Node000002_Node000004"><a xlink:title=" ">
<path fill="none" stroke="#63b8ff" d="M178.25,-69.25C178.25,-62.02 178.25,-53.28 178.25,-45.06"/>
<polygon fill="#63b8ff" stroke="#63b8ff" points="181.75,-45.15 178.25,-35.15 174.75,-45.15 181.75,-45.15"/>
</a>
</g>
</g>
<!-- Node6 -->
<g id="Node000006" class="node">
<title>Node6</title>
<g id="a_Node000006"><a xlink:title=" ">
<polygon fill="#e0e0e0" stroke="#999999" points="363.88,-27.12 246.62,-27.12 246.62,-6.38 363.88,-6.38 363.88,-27.12"/>
<text text-anchor="middle" x="305.25" y="-13.62" font-family="Helvetica,sans-Serif" font-size="10.00">mlir/IR/Diagnostics.h</text>
</a>
</g>
</g>
<!-- Node5&#45;&gt;Node6 -->
<g id="edge5_Node000005_Node000006" class="edge">
<title>Node5&#45;&gt;Node6</title>
<g id="a_edge5_Node000005_Node000006"><a xlink:title=" ">
<path fill="none" stroke="#63b8ff" d="M552.23,-75.43C500.97,-63.46 414.26,-43.21 358.41,-30.17"/>
<polygon fill="#63b8ff" stroke="#63b8ff" points="359.33,-26.79 348.8,-27.92 357.74,-33.6 359.33,-26.79"/>
</a>
</g>
</g>
<!-- Node7 -->
<g id="Node000007" class="node">
<title>Node7</title>
<g id="a_Node000007"><a xlink:title=" ">
<polygon fill="#e0e0e0" stroke="#999999" points="490.38,-27.12 382.12,-27.12 382.12,-6.38 490.38,-6.38 490.38,-27.12"/>
<text text-anchor="middle" x="436.25" y="-13.62" font-family="Helvetica,sans-Serif" font-size="10.00">mlir/IR/Operation.h</text>
</a>
</g>
</g>
<!-- Node5&#45;&gt;Node7 -->
<g id="edge6_Node000005_Node000007" class="edge">
<title>Node5&#45;&gt;Node7</title>
<g id="a_edge6_Node000005_Node000007"><a xlink:title=" ">
<path fill="none" stroke="#63b8ff" d="M571.28,-75.43C544.6,-64.04 500.35,-45.14 469.82,-32.09"/>
<polygon fill="#63b8ff" stroke="#63b8ff" points="471.22,-28.88 460.64,-28.17 468.47,-35.32 471.22,-28.88"/>
</a>
</g>
</g>
<!-- Node8 -->
<g id="Node000008" class="node">
<title>Node8</title>
<g id="a_Node000008"><a xlink:title=" ">
<polygon fill="#e0e0e0" stroke="#999999" points="679.88,-27.12 508.62,-27.12 508.62,-6.38 679.88,-6.38 679.88,-27.12"/>
<text text-anchor="middle" x="594.25" y="-13.62" font-family="Helvetica,sans-Serif" font-size="10.00">llvm/ADT/STLFunctionalExtras.h</text>
</a>
</g>
</g>
<!-- Node5&#45;&gt;Node8 -->
<g id="edge7_Node000005_Node000008" class="edge">
<title>Node5&#45;&gt;Node8</title>
<g id="a_edge7_Node000005_Node000008"><a xlink:title=" ">
<path fill="none" stroke="#63b8ff" d="M594.25,-75.58C594.25,-65.96 594.25,-50.88 594.25,-38.54"/>
<polygon fill="#63b8ff" stroke="#63b8ff" points="597.75,-38.92 594.25,-28.92 590.75,-38.92 597.75,-38.92"/>
</a>
</g>
</g>
<!-- Node9 -->
<g id="Node000009" class="node">
<title>Node9</title>
<g id="a_Node000009"><a xlink:title=" ">
<polygon fill="#e0e0e0" stroke="#999999" points="798.62,-27.12 697.88,-27.12 697.88,-6.38 798.62,-6.38 798.62,-27.12"/>
<text text-anchor="middle" x="748.25" y="-13.62" font-family="Helvetica,sans-Serif" font-size="10.00">llvm/ADT/Twine.h</text>
</a>
</g>
</g>
<!-- Node5&#45;&gt;Node9 -->
<g id="edge8_Node000005_Node000009" class="edge">
<title>Node5&#45;&gt;Node9</title>
<g id="a_edge8_Node000005_Node000009"><a xlink:title=" ">
<path fill="none" stroke="#63b8ff" d="M616.64,-75.43C642.65,-64.04 685.77,-45.14 715.53,-32.09"/>
<polygon fill="#63b8ff" stroke="#63b8ff" points="716.69,-35.4 724.44,-28.18 713.88,-28.99 716.69,-35.4"/>
</a>
</g>
</g>
<!-- Node10 -->
<g id="Node000010" class="node">
<title>Node10</title>
<g id="a_Node000010"><a xlink:title=" ">
<polygon fill="#e0e0e0" stroke="#999999" points="973.75,-27.12 816.75,-27.12 816.75,-6.38 973.75,-6.38 973.75,-27.12"/>
<text text-anchor="middle" x="895.25" y="-13.62" font-family="Helvetica,sans-Serif" font-size="10.00">llvm/Support/ErrorHandling.h</text>
</a>
</g>
</g>
<!-- Node5&#45;&gt;Node10 -->
<g id="edge9_Node000005_Node000010" class="edge">
<title>Node5&#45;&gt;Node10</title>
<g id="a_edge9_Node000005_Node000010"><a xlink:title=" ">
<path fill="none" stroke="#63b8ff" d="M637.31,-75.39C645.9,-73.43 654.86,-71.39 663.25,-69.5 723.5,-55.9 792.59,-40.52 839.6,-30.08"/>
<polygon fill="#63b8ff" stroke="#63b8ff" points="840.28,-33.52 849.28,-27.93 838.76,-26.68 840.28,-33.52"/>
</a>
</g>
</g>
<!-- Node11 -->
<g id="Node000011" class="node">
<title>Node11</title>
<g id="a_Node000011"><a xlink:title=" ">
<polygon fill="#e0e0e0" stroke="#999999" points="1042.5,-27.12 992,-27.12 992,-6.38 1042.5,-6.38 1042.5,-27.12"/>
<text text-anchor="middle" x="1017.25" y="-13.62" font-family="Helvetica,sans-Serif" font-size="10.00">variant</text>
</a>
</g>
</g>
<!-- Node5&#45;&gt;Node11 -->
<g id="edge10_Node000005_Node000011" class="edge">
<title>Node5&#45;&gt;Node11</title>
<g id="a_edge10_Node000005_Node000011"><a xlink:title=" ">
<path fill="none" stroke="#63b8ff" d="M633.87,-75.4C643.45,-73.25 653.68,-71.13 663.25,-69.5 804.35,-45.54 845.43,-72.08 983.25,-33.5 985.06,-32.99 986.89,-32.4 988.72,-31.75"/>
<polygon fill="#63b8ff" stroke="#63b8ff" points="989.64,-35.15 997.56,-28.11 986.98,-28.68 989.64,-35.15"/>
</a>
</g>
</g>
</g>
</svg>
