<?xml version="1.0" encoding="UTF-8" standalone="no"?>
<!DOCTYPE svg PUBLIC "-//W3C//DTD SVG 1.1//EN"
 "http://www.w3.org/Graphics/SVG/1.1/DTD/svg11.dtd">
<!-- Generated by graphviz version 12.2.1 (0)
 -->
<!-- Title: include/llzk/Dialect/Array/Util/ArrayTypeHelper.h Pages: 1 -->
<svg width="920pt" height="124pt"
 viewBox="0.00 0.00 920.12 123.75" xmlns="http://www.w3.org/2000/svg" xmlns:xlink="http://www.w3.org/1999/xlink">
<g id="graph0" class="graph" transform="scale(1 1) rotate(0) translate(4 119.75)">
<title>include/llzk/Dialect/Array/Util/ArrayTypeHelper.h</title>
<!-- Node1 -->
<g id="Node000001" class="node">
<title>Node1</title>
<g id="a_Node000001"><a xlink:title=" ">
<polygon fill="#999999" stroke="#666666" points="525,-115.75 367.25,-115.75 367.25,-82.25 525,-82.25 525,-115.75"/>
<text text-anchor="start" x="375.25" y="-102.25" font-family="Helvetica,sans-Serif" font-size="10.00">include/llzk/Dialect</text>
<text text-anchor="middle" x="446.12" y="-89.5" font-family="Helvetica,sans-Serif" font-size="10.00">/Array/Util/ArrayTypeHelper.h</text>
</a>
</g>
</g>
<!-- Node2 -->
<g id="Node000002" class="node">
<title>Node2</title>
<g id="a_Node000002"><a xlink:href="IntervalAnalysis_8cpp.html" target="_top" xlink:title=" ">
<polygon fill="white" stroke="#666666" points="174.25,-33.5 0,-33.5 0,-12.75 174.25,-12.75 174.25,-33.5"/>
<text text-anchor="middle" x="87.12" y="-20" font-family="Helvetica,sans-Serif" font-size="10.00">lib/Analysis/IntervalAnalysis.cpp</text>
</a>
</g>
</g>
<!-- Node1&#45;&gt;Node2 -->
<g id="edge1_Node000001_Node000002" class="edge">
<title>Node1&#45;&gt;Node2</title>
<g id="a_edge1_Node000001_Node000002"><a xlink:title=" ">
<path fill="none" stroke="#63b8ff" d="M355.59,-80.93C304.81,-71.17 240.35,-58.47 183.12,-46.25 165.06,-42.39 145.15,-37.85 128.17,-33.89"/>
<polygon fill="#63b8ff" stroke="#63b8ff" points="354.9,-84.36 365.38,-82.81 356.22,-77.49 354.9,-84.36"/>
</a>
</g>
</g>
<!-- Node3 -->
<g id="Node000003" class="node">
<title>Node3</title>
<g id="a_Node000003"><a xlink:href="Array_2IR_2Ops_8cpp.html" target="_top" xlink:title=" ">
<polygon fill="white" stroke="#666666" points="299.88,-39.88 192.38,-39.88 192.38,-6.38 299.88,-6.38 299.88,-39.88"/>
<text text-anchor="start" x="200.38" y="-26.38" font-family="Helvetica,sans-Serif" font-size="10.00">lib/Dialect/Array/IR</text>
<text text-anchor="middle" x="246.12" y="-13.62" font-family="Helvetica,sans-Serif" font-size="10.00">/Ops.cpp</text>
</a>
</g>
</g>
<!-- Node1&#45;&gt;Node3 -->
<g id="edge2_Node000001_Node000003" class="edge">
<title>Node1&#45;&gt;Node3</title>
<g id="a_edge2_Node000001_Node000003"><a xlink:title=" ">
<path fill="none" stroke="#63b8ff" d="M391.72,-77.9C359.74,-66.09 319.85,-51.36 289.91,-40.3"/>
<polygon fill="#63b8ff" stroke="#63b8ff" points="390.22,-81.08 400.81,-81.26 392.65,-74.52 390.22,-81.08"/>
</a>
</g>
</g>
<!-- Node4 -->
<g id="Node000004" class="node">
<title>Node4</title>
<g id="a_Node000004"><a xlink:href="Array_2IR_2Types_8cpp.html" target="_top" xlink:title=" ">
<polygon fill="white" stroke="#666666" points="425.88,-39.88 318.38,-39.88 318.38,-6.38 425.88,-6.38 425.88,-39.88"/>
<text text-anchor="start" x="326.38" y="-26.38" font-family="Helvetica,sans-Serif" font-size="10.00">lib/Dialect/Array/IR</text>
<text text-anchor="middle" x="372.12" y="-13.62" font-family="Helvetica,sans-Serif" font-size="10.00">/Types.cpp</text>
</a>
</g>
</g>
<!-- Node1&#45;&gt;Node4 -->
<g id="edge3_Node000001_Node000004" class="edge">
<title>Node1&#45;&gt;Node4</title>
<g id="a_edge3_Node000001_Node000004"><a xlink:title=" ">
<path fill="none" stroke="#63b8ff" d="M422,-73.92C410.9,-62.84 398.04,-49.99 388.15,-40.12"/>
<polygon fill="#63b8ff" stroke="#63b8ff" points="419.45,-76.31 429,-80.9 424.39,-71.36 419.45,-76.31"/>
</a>
</g>
</g>
<!-- Node5 -->
<g id="Node000005" class="node">
<title>Node5</title>
<g id="a_Node000005"><a xlink:href="ArrayToScalarPass_8cpp.html" target="_top" xlink:title="This file implements the &#45;llzk&#45;array&#45;to&#45;scalar pass.">
<polygon fill="white" stroke="#666666" points="596,-39.88 444.25,-39.88 444.25,-6.38 596,-6.38 596,-39.88"/>
<text text-anchor="start" x="452.25" y="-26.38" font-family="Helvetica,sans-Serif" font-size="10.00">lib/Dialect/Array/Transforms</text>
<text text-anchor="middle" x="520.12" y="-13.62" font-family="Helvetica,sans-Serif" font-size="10.00">/ArrayToScalarPass.cpp</text>
</a>
</g>
</g>
<!-- Node1&#45;&gt;Node5 -->
<g id="edge4_Node000001_Node000005" class="edge">
<title>Node1&#45;&gt;Node5</title>
<g id="a_edge4_Node000001_Node000005"><a xlink:title=" ">
<path fill="none" stroke="#63b8ff" d="M470.25,-73.92C481.35,-62.84 494.21,-49.99 504.1,-40.12"/>
<polygon fill="#63b8ff" stroke="#63b8ff" points="467.86,-71.36 463.25,-80.9 472.8,-76.31 467.86,-71.36"/>
</a>
</g>
</g>
<!-- Node6 -->
<g id="Node000006" class="node">
<title>Node6</title>
<g id="a_Node000006"><a xlink:href="ArrayTypeHelper_8cpp.html" target="_top" xlink:title="This file contains the implementation for array type helpers.">
<polygon fill="white" stroke="#666666" points="733.88,-39.88 614.38,-39.88 614.38,-6.38 733.88,-6.38 733.88,-39.88"/>
<text text-anchor="start" x="622.38" y="-26.38" font-family="Helvetica,sans-Serif" font-size="10.00">lib/Dialect/Array/Util</text>
<text text-anchor="middle" x="674.12" y="-13.62" font-family="Helvetica,sans-Serif" font-size="10.00">/ArrayTypeHelper.cpp</text>
</a>
</g>
</g>
<!-- Node1&#45;&gt;Node6 -->
<g id="edge5_Node000001_Node000006" class="edge">
<title>Node1&#45;&gt;Node6</title>
<g id="a_edge5_Node000001_Node000006"><a xlink:title=" ">
<path fill="none" stroke="#63b8ff" d="M506.73,-78.36C543.41,-66.48 589.63,-51.5 624.21,-40.3"/>
<polygon fill="#63b8ff" stroke="#63b8ff" points="506.03,-74.91 497.6,-81.32 508.19,-81.57 506.03,-74.91"/>
</a>
</g>
</g>
<!-- Node7 -->
<g id="Node000007" class="node">
<title>Node7</title>
<g id="a_Node000007"><a xlink:href="TypeVarInferencePass_8cpp.html" target="_top" xlink:title="This file implements the &#45;llzk&#45;infer&#45;tvar pass.">
<polygon fill="white" stroke="#666666" points="912.12,-46.25 752.12,-46.25 752.12,0 912.12,0 912.12,-46.25"/>
<text text-anchor="start" x="760.12" y="-32.75" font-family="Helvetica,sans-Serif" font-size="10.00">lib/Dialect/Polymorphic</text>
<text text-anchor="start" x="760.12" y="-20" font-family="Helvetica,sans-Serif" font-size="10.00">/Transforms/TypeVarInference</text>
<text text-anchor="middle" x="832.12" y="-7.25" font-family="Helvetica,sans-Serif" font-size="10.00">Pass.cpp</text>
</a>
</g>
</g>
<!-- Node1&#45;&gt;Node7 -->
<g id="edge6_Node000001_Node000007" class="edge">
<title>Node1&#45;&gt;Node7</title>
<g id="a_edge6_Node000001_Node000007"><a xlink:title=" ">
<path fill="none" stroke="#63b8ff" d="M536.37,-83.99C595.4,-74.4 674.09,-60.83 743.12,-46.25 745.93,-45.66 748.78,-45.04 751.65,-44.4"/>
<polygon fill="#63b8ff" stroke="#63b8ff" points="536.02,-80.5 526.7,-85.55 537.13,-87.41 536.02,-80.5"/>
</a>
</g>
</g>
</g>
</svg>
