<?xml version="1.0" encoding="UTF-8" standalone="no"?>
<!DOCTYPE svg PUBLIC "-//W3C//DTD SVG 1.1//EN"
 "http://www.w3.org/Graphics/SVG/1.1/DTD/svg11.dtd">
<!-- Generated by graphviz version 12.2.1 (0)
 -->
<!-- Title: tools/llzk&#45;tblgen/AttrCAPITestGen.cpp Pages: 1 -->
<svg width="1499pt" height="237pt"
 viewBox="0.00 0.00 1499.00 237.25" xmlns="http://www.w3.org/2000/svg" xmlns:xlink="http://www.w3.org/1999/xlink">
<g id="graph0" class="graph" transform="scale(1 1) rotate(0) translate(4 233.25)">
<title>tools/llzk&#45;tblgen/AttrCAPITestGen.cpp</title>
<!-- Node1 -->
<g id="Node000001" class="node">
<title>Node1</title>
<g id="a_Node000001"><a xlink:title=" ">
<polygon fill="#999999" stroke="#666666" points="998.88,-229.25 841.12,-229.25 841.12,-195.75 998.88,-195.75 998.88,-229.25"/>
<text text-anchor="start" x="849.12" y="-215.75" font-family="Helvetica,sans-Serif" font-size="10.00">tools/llzk&#45;tblgen/AttrCAPITest</text>
<text text-anchor="middle" x="920" y="-203" font-family="Helvetica,sans-Serif" font-size="10.00">Gen.cpp</text>
</a>
</g>
</g>
<!-- Node2 -->
<g id="Node000002" class="node">
<title>Node2</title>
<g id="a_Node000002"><a xlink:href="CommonAttrOrTypeCAPITestGen_8h.html" target="_top" xlink:title="This file provides common utilities for generating C API link tests for attributes and types.">
<polygon fill="white" stroke="#666666" points="679,-159.75 525,-159.75 525,-126.25 679,-126.25 679,-159.75"/>
<text text-anchor="start" x="533" y="-146.25" font-family="Helvetica,sans-Serif" font-size="10.00">CommonAttrOrTypeCAPITest</text>
<text text-anchor="middle" x="602" y="-133.5" font-family="Helvetica,sans-Serif" font-size="10.00">Gen.h</text>
</a>
</g>
</g>
<!-- Node1&#45;&gt;Node2 -->
<g id="edge1_Node000001_Node000002" class="edge">
<title>Node1&#45;&gt;Node2</title>
<g id="a_edge1_Node000001_Node000002"><a xlink:title=" ">
<path fill="none" stroke="#63b8ff" d="M843.83,-195.33C797.38,-185.47 737.84,-172.83 689.46,-162.57"/>
<polygon fill="#63b8ff" stroke="#63b8ff" points="690.36,-159.18 679.85,-160.53 688.91,-166.03 690.36,-159.18"/>
</a>
</g>
</g>
<!-- Node3 -->
<g id="Node000003" class="node">
<title>Node3</title>
<g id="a_Node000003"><a xlink:href="CommonCAPIGen_8h.html" target="_top" xlink:title=" ">
<polygon fill="white" stroke="#666666" points="468.62,-83.88 357.38,-83.88 357.38,-63.12 468.62,-63.12 468.62,-83.88"/>
<text text-anchor="middle" x="413" y="-70.38" font-family="Helvetica,sans-Serif" font-size="10.00">CommonCAPIGen.h</text>
</a>
</g>
</g>
<!-- Node1&#45;&gt;Node3 -->
<g id="edge16_Node000001_Node000003" class="edge">
<title>Node1&#45;&gt;Node3</title>
<g id="a_edge16_Node000001_Node000003"><a xlink:title=" ">
<path fill="none" stroke="#63b8ff" d="M840.87,-206.6C740.23,-199.47 572.68,-184.34 516,-159.75 480.36,-144.29 447.3,-112.6 428.67,-92.52"/>
<polygon fill="#63b8ff" stroke="#63b8ff" points="431.49,-90.41 422.19,-85.33 426.29,-95.1 431.49,-90.41"/>
</a>
</g>
</g>
<!-- Node4 -->
<g id="Node000004" class="node">
<title>Node4</title>
<g id="a_Node000004"><a xlink:title=" ">
<polygon fill="#e0e0e0" stroke="#999999" points="130,-20.75 0,-20.75 0,0 130,0 130,-20.75"/>
<text text-anchor="middle" x="65" y="-7.25" font-family="Helvetica,sans-Serif" font-size="10.00">mlir/TableGen/Dialect.h</text>
</a>
</g>
</g>
<!-- Node1&#45;&gt;Node4 -->
<g id="edge18_Node000001_Node000004" class="edge">
<title>Node1&#45;&gt;Node4</title>
<g id="a_edge18_Node000001_Node000004"><a xlink:title=" ">
<path fill="none" stroke="#63b8ff" d="M840.68,-208.31C707.7,-200.68 433.31,-175.11 219,-90.25 172.53,-71.85 121.41,-44.05 91.32,-26.84"/>
<polygon fill="#63b8ff" stroke="#63b8ff" points="93.32,-23.95 82.9,-21.98 89.82,-30.01 93.32,-23.95"/>
</a>
</g>
</g>
<!-- Node5 -->
<g id="Node000005" class="node">
<title>Node5</title>
<g id="a_Node000005"><a xlink:title=" ">
<polygon fill="#e0e0e0" stroke="#999999" points="706.12,-20.75 573.88,-20.75 573.88,0 706.12,0 706.12,-20.75"/>
<text text-anchor="middle" x="640" y="-7.25" font-family="Helvetica,sans-Serif" font-size="10.00">llvm/ADT/StringExtras.h</text>
</a>
</g>
</g>
<!-- Node1&#45;&gt;Node5 -->
<g id="edge20_Node000001_Node000005" class="edge">
<title>Node1&#45;&gt;Node5</title>
<g id="a_edge20_Node000001_Node000005"><a xlink:title=" ">
<path fill="none" stroke="#63b8ff" d="M921.23,-195.64C922.72,-164.21 921.19,-93.82 882,-56.75 869.96,-45.36 783.76,-31.13 717.62,-21.67"/>
<polygon fill="#63b8ff" stroke="#63b8ff" points="718.26,-18.22 707.86,-20.29 717.28,-25.15 718.26,-18.22"/>
</a>
</g>
</g>
<!-- Node8 -->
<g id="Node000008" class="node">
<title>Node8</title>
<g id="a_Node000008"><a xlink:title=" ">
<polygon fill="#e0e0e0" stroke="#999999" points="885.38,-20.75 724.62,-20.75 724.62,0 885.38,0 885.38,-20.75"/>
<text text-anchor="middle" x="805" y="-7.25" font-family="Helvetica,sans-Serif" font-size="10.00">llvm/Support/CommandLine.h</text>
</a>
</g>
</g>
<!-- Node1&#45;&gt;Node8 -->
<g id="edge21_Node000001_Node000008" class="edge">
<title>Node1&#45;&gt;Node8</title>
<g id="a_edge21_Node000001_Node000008"><a xlink:title=" ">
<path fill="none" stroke="#63b8ff" d="M924.73,-195.27C932.51,-165.01 944.39,-99.17 915,-56.75 904.62,-41.77 888.34,-31.73 871.45,-25"/>
<polygon fill="#63b8ff" stroke="#63b8ff" points="872.93,-21.81 862.33,-21.73 870.57,-28.4 872.93,-21.81"/>
</a>
</g>
</g>
<!-- Node9 -->
<g id="Node000009" class="node">
<title>Node9</title>
<g id="a_Node000009"><a xlink:title=" ">
<polygon fill="#e0e0e0" stroke="#999999" points="1066.88,-20.75 903.12,-20.75 903.12,0 1066.88,0 1066.88,-20.75"/>
<text text-anchor="middle" x="985" y="-7.25" font-family="Helvetica,sans-Serif" font-size="10.00">llvm/Support/FormatVariadic.h</text>
</a>
</g>
</g>
<!-- Node1&#45;&gt;Node9 -->
<g id="edge22_Node000001_Node000009" class="edge">
<title>Node1&#45;&gt;Node9</title>
<g id="a_edge22_Node000001_Node000009"><a xlink:title=" ">
<path fill="none" stroke="#63b8ff" d="M932.29,-195.54C939.31,-185.71 947.73,-172.56 953,-159.75 970.81,-116.44 979.31,-61.76 982.85,-32.37"/>
<polygon fill="#63b8ff" stroke="#63b8ff" points="986.31,-32.93 983.94,-22.6 979.35,-32.15 986.31,-32.93"/>
</a>
</g>
</g>
<!-- Node12 -->
<g id="Node000012" class="node">
<title>Node12</title>
<g id="a_Node000012"><a xlink:title=" ">
<polygon fill="#e0e0e0" stroke="#999999" points="873.12,-90.25 734.88,-90.25 734.88,-56.75 873.12,-56.75 873.12,-90.25"/>
<text text-anchor="start" x="742.88" y="-76.75" font-family="Helvetica,sans-Serif" font-size="10.00">mlir/TableGen/AttrOrType</text>
<text text-anchor="middle" x="804" y="-64" font-family="Helvetica,sans-Serif" font-size="10.00">Def.h</text>
</a>
</g>
</g>
<!-- Node1&#45;&gt;Node12 -->
<g id="edge17_Node000001_Node000012" class="edge">
<title>Node1&#45;&gt;Node12</title>
<g id="a_edge17_Node000001_Node000012"><a xlink:title=" ">
<path fill="none" stroke="#63b8ff" d="M906.47,-195.52C886.38,-171.8 848.53,-127.09 824.88,-99.16"/>
<polygon fill="#63b8ff" stroke="#63b8ff" points="827.56,-96.91 818.43,-91.54 822.22,-101.43 827.56,-96.91"/>
</a>
</g>
</g>
<!-- Node14 -->
<g id="Node000014" class="node">
<title>Node14</title>
<g id="a_Node000014"><a xlink:title=" ">
<polygon fill="#e0e0e0" stroke="#999999" points="1138.88,-153.38 1005.12,-153.38 1005.12,-132.62 1138.88,-132.62 1138.88,-153.38"/>
<text text-anchor="middle" x="1072" y="-139.88" font-family="Helvetica,sans-Serif" font-size="10.00">mlir/TableGen/GenInfo.h</text>
</a>
</g>
</g>
<!-- Node1&#45;&gt;Node14 -->
<g id="edge19_Node000001_Node000014" class="edge">
<title>Node1&#45;&gt;Node14</title>
<g id="a_edge19_Node000001_Node000014"><a xlink:title=" ">
<path fill="none" stroke="#63b8ff" d="M956.41,-195.33C981.69,-184.1 1015.09,-169.27 1039.48,-158.44"/>
<polygon fill="#63b8ff" stroke="#63b8ff" points="1040.89,-161.64 1048.61,-154.39 1038.05,-155.25 1040.89,-161.64"/>
</a>
</g>
</g>
<!-- Node15 -->
<g id="Node000015" class="node">
<title>Node15</title>
<g id="a_Node000015"><a xlink:title=" ">
<polygon fill="#e0e0e0" stroke="#999999" points="1288.75,-153.38 1157.25,-153.38 1157.25,-132.62 1288.75,-132.62 1288.75,-153.38"/>
<text text-anchor="middle" x="1223" y="-139.88" font-family="Helvetica,sans-Serif" font-size="10.00">llvm/TableGen/Record.h</text>
</a>
</g>
</g>
<!-- Node1&#45;&gt;Node15 -->
<g id="edge23_Node000001_Node000015" class="edge">
<title>Node1&#45;&gt;Node15</title>
<g id="a_edge23_Node000001_Node000015"><a xlink:title=" ">
<path fill="none" stroke="#63b8ff" d="M992.58,-195.33C1046.34,-183.36 1118.5,-167.28 1167.65,-156.33"/>
<polygon fill="#63b8ff" stroke="#63b8ff" points="1168.22,-159.79 1177.22,-154.2 1166.7,-152.96 1168.22,-159.79"/>
</a>
</g>
</g>
<!-- Node16 -->
<g id="Node000016" class="node">
<title>Node16</title>
<g id="a_Node000016"><a xlink:title=" ">
<polygon fill="#e0e0e0" stroke="#999999" points="1491,-153.38 1307,-153.38 1307,-132.62 1491,-132.62 1491,-153.38"/>
<text text-anchor="middle" x="1399" y="-139.88" font-family="Helvetica,sans-Serif" font-size="10.00">llvm/TableGen/TableGenBackend.h</text>
</a>
</g>
</g>
<!-- Node1&#45;&gt;Node16 -->
<g id="edge24_Node000001_Node000016" class="edge">
<title>Node1&#45;&gt;Node16</title>
<g id="a_edge24_Node000001_Node000016"><a xlink:title=" ">
<path fill="none" stroke="#63b8ff" d="M999.34,-201.08C1075.87,-190.92 1194.94,-174.84 1298,-159.75 1306.99,-158.43 1316.42,-157.01 1325.76,-155.59"/>
<polygon fill="#63b8ff" stroke="#63b8ff" points="1326.22,-159.06 1335.57,-154.07 1325.16,-152.14 1326.22,-159.06"/>
</a>
</g>
</g>
<!-- Node2&#45;&gt;Node3 -->
<g id="edge2_Node000002_Node000003" class="edge">
<title>Node2&#45;&gt;Node3</title>
<g id="a_edge2_Node000002_Node000003"><a xlink:title=" ">
<path fill="none" stroke="#63b8ff" d="M556.73,-125.83C524.54,-114.33 481.77,-99.06 451.27,-88.17"/>
<polygon fill="#63b8ff" stroke="#63b8ff" points="452.65,-84.95 442.06,-84.88 450.3,-91.54 452.65,-84.95"/>
</a>
</g>
</g>
<!-- Node2&#45;&gt;Node4 -->
<g id="edge12_Node000002_Node000004" class="edge">
<title>Node2&#45;&gt;Node4</title>
<g id="a_edge12_Node000002_Node000004"><a xlink:title=" ">
<path fill="none" stroke="#63b8ff" d="M524.71,-127.73C474.22,-118.04 406.96,-104.45 348,-90.25 262.41,-69.63 163.58,-40.96 108.28,-24.47"/>
<polygon fill="#63b8ff" stroke="#63b8ff" points="109.52,-21.19 98.94,-21.67 107.51,-27.89 109.52,-21.19"/>
</a>
</g>
</g>
<!-- Node2&#45;&gt;Node5 -->
<g id="edge13_Node000002_Node000005" class="edge">
<title>Node2&#45;&gt;Node5</title>
<g id="a_edge13_Node000002_Node000005"><a xlink:title=" ">
<path fill="none" stroke="#63b8ff" d="M556.93,-125.85C541.09,-117.75 525,-106.18 516,-90.25 508.67,-77.29 507.47,-68.95 516,-56.75 527.14,-40.81 544.52,-30.45 562.78,-23.72"/>
<polygon fill="#63b8ff" stroke="#63b8ff" points="563.74,-27.09 572.15,-20.64 561.56,-20.44 563.74,-27.09"/>
</a>
</g>
</g>
<!-- Node2&#45;&gt;Node9 -->
<g id="edge14_Node000002_Node000009" class="edge">
<title>Node2&#45;&gt;Node9</title>
<g id="a_edge14_Node000002_Node000009"><a xlink:title=" ">
<path fill="none" stroke="#63b8ff" d="M631.9,-125.78C648.84,-116.16 670.15,-103.33 688,-90.25 706.16,-76.95 705.71,-66.5 726,-56.75 754.81,-42.91 829.6,-30.63 891.44,-22.35"/>
<polygon fill="#63b8ff" stroke="#63b8ff" points="891.87,-25.82 901.33,-21.05 890.96,-18.88 891.87,-25.82"/>
</a>
</g>
</g>
<!-- Node2&#45;&gt;Node12 -->
<g id="edge11_Node000002_Node000012" class="edge">
<title>Node2&#45;&gt;Node12</title>
<g id="a_edge11_Node000002_Node000012"><a xlink:title=" ">
<path fill="none" stroke="#63b8ff" d="M650.38,-125.83C678.76,-116.35 714.83,-104.3 744.89,-94.25"/>
<polygon fill="#63b8ff" stroke="#63b8ff" points="745.85,-97.62 754.23,-91.13 743.63,-90.98 745.85,-97.62"/>
</a>
</g>
</g>
<!-- Node13 -->
<g id="Node000013" class="node">
<title>Node13</title>
<g id="a_Node000013"><a xlink:title=" ">
<polygon fill="#e0e0e0" stroke="#999999" points="679,-83.88 525,-83.88 525,-63.12 679,-63.12 679,-83.88"/>
<text text-anchor="middle" x="602" y="-70.38" font-family="Helvetica,sans-Serif" font-size="10.00">llvm/Support/raw_ostream.h</text>
</a>
</g>
</g>
<!-- Node2&#45;&gt;Node13 -->
<g id="edge15_Node000002_Node000013" class="edge">
<title>Node2&#45;&gt;Node13</title>
<g id="a_edge15_Node000002_Node000013"><a xlink:title=" ">
<path fill="none" stroke="#63b8ff" d="M602,-126C602,-116.9 602,-105.39 602,-95.57"/>
<polygon fill="#63b8ff" stroke="#63b8ff" points="605.5,-95.84 602,-85.84 598.5,-95.84 605.5,-95.84"/>
</a>
</g>
</g>
<!-- Node3&#45;&gt;Node4 -->
<g id="edge3_Node000003_Node000004" class="edge">
<title>Node3&#45;&gt;Node4</title>
<g id="a_edge3_Node000003_Node000004"><a xlink:title=" ">
<path fill="none" stroke="#63b8ff" d="M357.09,-62.68C295.79,-51.91 197.47,-34.64 132.07,-23.16"/>
<polygon fill="#63b8ff" stroke="#63b8ff" points="133.01,-19.77 122.55,-21.48 131.8,-26.66 133.01,-19.77"/>
</a>
</g>
</g>
<!-- Node3&#45;&gt;Node5 -->
<g id="edge4_Node000003_Node000005" class="edge">
<title>Node3&#45;&gt;Node5</title>
<g id="a_edge4_Node000003_Node000005"><a xlink:title=" ">
<path fill="none" stroke="#63b8ff" d="M449.47,-62.68C488.36,-52.21 550.08,-35.59 592.69,-24.12"/>
<polygon fill="#63b8ff" stroke="#63b8ff" points="593.41,-27.54 602.16,-21.56 591.59,-20.79 593.41,-27.54"/>
</a>
</g>
</g>
<!-- Node6 -->
<g id="Node000006" class="node">
<title>Node6</title>
<g id="a_Node000006"><a xlink:title=" ">
<polygon fill="#e0e0e0" stroke="#999999" points="327.62,-20.75 210.38,-20.75 210.38,0 327.62,0 327.62,-20.75"/>
<text text-anchor="middle" x="269" y="-7.25" font-family="Helvetica,sans-Serif" font-size="10.00">llvm/ADT/StringRef.h</text>
</a>
</g>
</g>
<!-- Node3&#45;&gt;Node6 -->
<g id="edge5_Node000003_Node000006" class="edge">
<title>Node3&#45;&gt;Node6</title>
<g id="a_edge5_Node000003_Node000006"><a xlink:title=" ">
<path fill="none" stroke="#63b8ff" d="M389.86,-62.68C366.25,-52.65 329.35,-36.99 302.53,-25.61"/>
<polygon fill="#63b8ff" stroke="#63b8ff" points="304.04,-22.45 293.47,-21.76 301.31,-28.89 304.04,-22.45"/>
</a>
</g>
</g>
<!-- Node7 -->
<g id="Node000007" class="node">
<title>Node7</title>
<g id="a_Node000007"><a xlink:title=" ">
<polygon fill="#e0e0e0" stroke="#999999" points="479.88,-20.75 346.12,-20.75 346.12,0 479.88,0 479.88,-20.75"/>
<text text-anchor="middle" x="413" y="-7.25" font-family="Helvetica,sans-Serif" font-size="10.00">llvm/ADT/StringSwitch.h</text>
</a>
</g>
</g>
<!-- Node3&#45;&gt;Node7 -->
<g id="edge6_Node000003_Node000007" class="edge">
<title>Node3&#45;&gt;Node7</title>
<g id="a_edge6_Node000003_Node000007"><a xlink:title=" ">
<path fill="none" stroke="#63b8ff" d="M413,-62.68C413,-54.52 413,-42.63 413,-32.35"/>
<polygon fill="#63b8ff" stroke="#63b8ff" points="416.5,-32.48 413,-22.48 409.5,-32.48 416.5,-32.48"/>
</a>
</g>
</g>
<!-- Node3&#45;&gt;Node8 -->
<g id="edge7_Node000003_Node000008" class="edge">
<title>Node3&#45;&gt;Node8</title>
<g id="a_edge7_Node000003_Node000008"><a xlink:title=" ">
<path fill="none" stroke="#63b8ff" d="M468.75,-63.81C537.55,-53.08 654.77,-34.8 731.04,-22.91"/>
<polygon fill="#63b8ff" stroke="#63b8ff" points="731.15,-26.43 740.49,-21.43 730.07,-19.52 731.15,-26.43"/>
</a>
</g>
</g>
<!-- Node3&#45;&gt;Node9 -->
<g id="edge8_Node000003_Node000009" class="edge">
<title>Node3&#45;&gt;Node9</title>
<g id="a_edge8_Node000003_Node000009"><a xlink:title=" ">
<path fill="none" stroke="#63b8ff" d="M469.05,-63.34C484.26,-61.01 500.74,-58.64 516,-56.75 679.8,-36.44 724.13,-37.35 891.21,-21.01"/>
<polygon fill="#63b8ff" stroke="#63b8ff" points="891.55,-24.5 901.16,-20.03 890.86,-17.53 891.55,-24.5"/>
</a>
</g>
</g>
<!-- Node10 -->
<g id="Node000010" class="node">
<title>Node10</title>
<g id="a_Node000010"><a xlink:title=" ">
<polygon fill="#e0e0e0" stroke="#999999" points="555.62,-20.75 498.38,-20.75 498.38,0 555.62,0 555.62,-20.75"/>
<text text-anchor="middle" x="527" y="-7.25" font-family="Helvetica,sans-Serif" font-size="10.00">memory</text>
</a>
</g>
</g>
<!-- Node3&#45;&gt;Node10 -->
<g id="edge9_Node000003_Node000010" class="edge">
<title>Node3&#45;&gt;Node10</title>
<g id="a_edge9_Node000003_Node000010"><a xlink:title=" ">
<path fill="none" stroke="#63b8ff" d="M431.32,-62.68C449.52,-52.92 477.68,-37.82 498.74,-26.53"/>
<polygon fill="#63b8ff" stroke="#63b8ff" points="500.24,-29.7 507.4,-21.89 496.93,-23.53 500.24,-29.7"/>
</a>
</g>
</g>
<!-- Node11 -->
<g id="Node000011" class="node">
<title>Node11</title>
<g id="a_Node000011"><a xlink:title=" ">
<polygon fill="#e0e0e0" stroke="#999999" points="191.88,-20.75 148.12,-20.75 148.12,0 191.88,0 191.88,-20.75"/>
<text text-anchor="middle" x="170" y="-7.25" font-family="Helvetica,sans-Serif" font-size="10.00">string</text>
</a>
</g>
</g>
<!-- Node3&#45;&gt;Node11 -->
<g id="edge10_Node000003_Node000011" class="edge">
<title>Node3&#45;&gt;Node11</title>
<g id="a_edge10_Node000003_Node000011"><a xlink:title=" ">
<path fill="none" stroke="#63b8ff" d="M369.78,-62.68C329.17,-53.28 266.44,-38.36 203.27,-21.27"/>
<polygon fill="#63b8ff" stroke="#63b8ff" points="204.34,-17.93 193.77,-18.68 202.5,-24.68 204.34,-17.93"/>
</a>
</g>
</g>
</g>
</svg>
