<?xml version="1.0" encoding="UTF-8" standalone="no"?>
<!DOCTYPE svg PUBLIC "-//W3C//DTD SVG 1.1//EN"
 "http://www.w3.org/Graphics/SVG/1.1/DTD/svg11.dtd">
<!-- Generated by graphviz version 12.2.1 (0)
 -->
<!-- Title: lib/Dialect/LLZK/IR/AttributeHelper.cpp Pages: 1 -->
<svg width="1357pt" height="225pt"
 viewBox="0.00 0.00 1356.62 224.50" xmlns="http://www.w3.org/2000/svg" xmlns:xlink="http://www.w3.org/1999/xlink">
<g id="graph0" class="graph" transform="scale(1 1) rotate(0) translate(4 220.5)">
<title>lib/Dialect/LLZK/IR/AttributeHelper.cpp</title>
<!-- Node1 -->
<g id="Node000001" class="node">
<title>Node1</title>
<g id="a_Node000001"><a xlink:title=" ">
<polygon fill="#999999" stroke="#666666" points="540.75,-216.5 427.25,-216.5 427.25,-183 540.75,-183 540.75,-216.5"/>
<text text-anchor="start" x="435.25" y="-203" font-family="Helvetica,sans-Serif" font-size="10.00">lib/Dialect/LLZK/IR</text>
<text text-anchor="middle" x="484" y="-190.25" font-family="Helvetica,sans-Serif" font-size="10.00">/AttributeHelper.cpp</text>
</a>
</g>
</g>
<!-- Node2 -->
<g id="Node000002" class="node">
<title>Node2</title>
<g id="a_Node000002"><a xlink:href="AttributeHelper_8h.html" target="_top" xlink:title=" ">
<polygon fill="white" stroke="#666666" points="380.25,-147 269.75,-147 269.75,-113.5 380.25,-113.5 380.25,-147"/>
<text text-anchor="start" x="277.75" y="-133.5" font-family="Helvetica,sans-Serif" font-size="10.00">llzk/Dialect/LLZK/IR</text>
<text text-anchor="middle" x="325" y="-120.75" font-family="Helvetica,sans-Serif" font-size="10.00">/AttributeHelper.h</text>
</a>
</g>
</g>
<!-- Node1&#45;&gt;Node2 -->
<g id="edge1_Node000001_Node000002" class="edge">
<title>Node1&#45;&gt;Node2</title>
<g id="a_edge1_Node000001_Node000002"><a xlink:title=" ">
<path fill="none" stroke="#63b8ff" d="M445.92,-182.58C424.17,-173.35 396.68,-161.68 373.41,-151.8"/>
<polygon fill="#63b8ff" stroke="#63b8ff" points="375.01,-148.68 364.44,-147.99 372.28,-155.12 375.01,-148.68"/>
</a>
</g>
</g>
<!-- Node7 -->
<g id="Node000007" class="node">
<title>Node7</title>
<g id="a_Node000007"><a xlink:href="TypeHelper_8h.html" target="_top" xlink:title=" ">
<polygon fill="white" stroke="#666666" points="857.75,-140.62 738.25,-140.62 738.25,-119.88 857.75,-119.88 857.75,-140.62"/>
<text text-anchor="middle" x="798" y="-127.12" font-family="Helvetica,sans-Serif" font-size="10.00">llzk/Util/TypeHelper.h</text>
</a>
</g>
</g>
<!-- Node1&#45;&gt;Node7 -->
<g id="edge6_Node000001_Node000007" class="edge">
<title>Node1&#45;&gt;Node7</title>
<g id="a_edge6_Node000001_Node000007"><a xlink:title=" ">
<path fill="none" stroke="#63b8ff" d="M541.23,-186.45C598.11,-174.22 684.83,-155.58 741.46,-143.4"/>
<polygon fill="#63b8ff" stroke="#63b8ff" points="741.85,-146.9 750.89,-141.38 740.38,-140.06 741.85,-146.9"/>
</a>
</g>
</g>
<!-- Node3 -->
<g id="Node000003" class="node">
<title>Node3</title>
<g id="a_Node000003"><a xlink:href="StreamHelper_8h.html" target="_top" xlink:title=" ">
<polygon fill="white" stroke="#666666" points="143.12,-77.5 10.88,-77.5 10.88,-56.75 143.12,-56.75 143.12,-77.5"/>
<text text-anchor="middle" x="77" y="-64" font-family="Helvetica,sans-Serif" font-size="10.00">llzk/Util/StreamHelper.h</text>
</a>
</g>
</g>
<!-- Node2&#45;&gt;Node3 -->
<g id="edge2_Node000002_Node000003" class="edge">
<title>Node2&#45;&gt;Node3</title>
<g id="a_edge2_Node000002_Node000003"><a xlink:title=" ">
<path fill="none" stroke="#63b8ff" d="M269.34,-115.53C227.05,-105.11 169.33,-90.88 128.18,-80.74"/>
<polygon fill="#63b8ff" stroke="#63b8ff" points="129.06,-77.35 118.51,-78.36 127.38,-84.15 129.06,-77.35"/>
</a>
</g>
</g>
<!-- Node5 -->
<g id="Node000005" class="node">
<title>Node5</title>
<g id="a_Node000005"><a xlink:title=" ">
<polygon fill="#e0e0e0" stroke="#999999" points="334.38,-77.5 161.62,-77.5 161.62,-56.75 334.38,-56.75 334.38,-77.5"/>
<text text-anchor="middle" x="248" y="-64" font-family="Helvetica,sans-Serif" font-size="10.00">mlir/IR/DialectImplementation.h</text>
</a>
</g>
</g>
<!-- Node2&#45;&gt;Node5 -->
<g id="edge4_Node000002_Node000005" class="edge">
<title>Node2&#45;&gt;Node5</title>
<g id="a_edge4_Node000002_Node000005"><a xlink:title=" ">
<path fill="none" stroke="#63b8ff" d="M304.77,-113.19C293.88,-104.55 280.45,-93.88 269.39,-85.1"/>
<polygon fill="#63b8ff" stroke="#63b8ff" points="271.59,-82.38 261.58,-78.91 267.24,-87.87 271.59,-82.38"/>
</a>
</g>
</g>
<!-- Node6 -->
<g id="Node000006" class="node">
<title>Node6</title>
<g id="a_Node000006"><a xlink:title=" ">
<polygon fill="#e0e0e0" stroke="#999999" points="451.25,-77.5 352.75,-77.5 352.75,-56.75 451.25,-56.75 451.25,-77.5"/>
<text text-anchor="middle" x="402" y="-64" font-family="Helvetica,sans-Serif" font-size="10.00">llvm/ADT/APInt.h</text>
</a>
</g>
</g>
<!-- Node2&#45;&gt;Node6 -->
<g id="edge5_Node000002_Node000006" class="edge">
<title>Node2&#45;&gt;Node6</title>
<g id="a_edge5_Node000002_Node000006"><a xlink:title=" ">
<path fill="none" stroke="#63b8ff" d="M345.23,-113.19C356.12,-104.55 369.55,-93.88 380.61,-85.1"/>
<polygon fill="#63b8ff" stroke="#63b8ff" points="382.76,-87.87 388.42,-78.91 378.41,-82.38 382.76,-87.87"/>
</a>
</g>
</g>
<!-- Node4 -->
<g id="Node000004" class="node">
<title>Node4</title>
<g id="a_Node000004"><a xlink:title=" ">
<polygon fill="#e0e0e0" stroke="#999999" points="154,-20.75 0,-20.75 0,0 154,0 154,-20.75"/>
<text text-anchor="middle" x="77" y="-7.25" font-family="Helvetica,sans-Serif" font-size="10.00">llvm/Support/raw_ostream.h</text>
</a>
</g>
</g>
<!-- Node3&#45;&gt;Node4 -->
<g id="edge3_Node000003_Node000004" class="edge">
<title>Node3&#45;&gt;Node4</title>
<g id="a_edge3_Node000003_Node000004"><a xlink:title=" ">
<path fill="none" stroke="#63b8ff" d="M77,-56.34C77,-49.72 77,-40.72 77,-32.52"/>
<polygon fill="#63b8ff" stroke="#63b8ff" points="80.5,-32.59 77,-22.59 73.5,-32.59 80.5,-32.59"/>
</a>
</g>
</g>
<!-- Node8 -->
<g id="Node000008" class="node">
<title>Node8</title>
<g id="a_Node000008"><a xlink:href="ErrorHelper_8h.html" target="_top" xlink:title=" ">
<polygon fill="white" stroke="#666666" points="627.12,-77.5 506.88,-77.5 506.88,-56.75 627.12,-56.75 627.12,-77.5"/>
<text text-anchor="middle" x="567" y="-64" font-family="Helvetica,sans-Serif" font-size="10.00">llzk/Util/ErrorHelper.h</text>
</a>
</g>
</g>
<!-- Node7&#45;&gt;Node8 -->
<g id="edge7_Node000007_Node000008" class="edge">
<title>Node7&#45;&gt;Node8</title>
<g id="a_edge7_Node000007_Node000008"><a xlink:title=" ">
<path fill="none" stroke="#63b8ff" d="M760.89,-119.43C721.31,-108.96 658.5,-92.34 615.15,-80.87"/>
<polygon fill="#63b8ff" stroke="#63b8ff" points="616.05,-77.48 605.49,-78.31 614.26,-84.25 616.05,-77.48"/>
</a>
</g>
</g>
<!-- Node10 -->
<g id="Node000010" class="node">
<title>Node10</title>
<g id="a_Node000010"><a xlink:title=" ">
<polygon fill="#e0e0e0" stroke="#999999" points="328.12,-20.75 219.88,-20.75 219.88,0 328.12,0 328.12,-20.75"/>
<text text-anchor="middle" x="274" y="-7.25" font-family="Helvetica,sans-Serif" font-size="10.00">mlir/IR/Operation.h</text>
</a>
</g>
</g>
<!-- Node7&#45;&gt;Node10 -->
<g id="edge15_Node000007_Node000010" class="edge">
<title>Node7&#45;&gt;Node10</title>
<g id="a_edge15_Node000007_Node000010"><a xlink:title=" ">
<path fill="none" stroke="#63b8ff" d="M737.92,-124.73C676.29,-118.75 578.35,-105.5 498,-77.5 479.83,-71.17 477.94,-63.7 460,-56.75 421.1,-41.68 375.63,-30.48 339.39,-22.98"/>
<polygon fill="#63b8ff" stroke="#63b8ff" points="340.43,-19.62 329.94,-21.07 339.04,-26.48 340.43,-19.62"/>
</a>
</g>
</g>
<!-- Node15 -->
<g id="Node000015" class="node">
<title>Node15</title>
<g id="a_Node000015"><a xlink:title=" ">
<polygon fill="#e0e0e0" stroke="#999999" points="796.88,-77.5 645.12,-77.5 645.12,-56.75 796.88,-56.75 796.88,-77.5"/>
<text text-anchor="middle" x="721" y="-64" font-family="Helvetica,sans-Serif" font-size="10.00">mlir/IR/OpImplementation.h</text>
</a>
</g>
</g>
<!-- Node7&#45;&gt;Node15 -->
<g id="edge14_Node000007_Node000015" class="edge">
<title>Node7&#45;&gt;Node15</title>
<g id="a_edge14_Node000007_Node000015"><a xlink:title=" ">
<path fill="none" stroke="#63b8ff" d="M785.63,-119.43C773.95,-110.16 756.21,-96.08 742.27,-85.01"/>
<polygon fill="#63b8ff" stroke="#63b8ff" points="744.53,-82.34 734.53,-78.86 740.18,-87.82 744.53,-82.34"/>
</a>
</g>
</g>
<!-- Node16 -->
<g id="Node000016" class="node">
<title>Node16</title>
<g id="a_Node000016"><a xlink:title=" ">
<polygon fill="#e0e0e0" stroke="#999999" points="937.25,-77.5 814.75,-77.5 814.75,-56.75 937.25,-56.75 937.25,-77.5"/>
<text text-anchor="middle" x="876" y="-64" font-family="Helvetica,sans-Serif" font-size="10.00">mlir/IR/SymbolTable.h</text>
</a>
</g>
</g>
<!-- Node7&#45;&gt;Node16 -->
<g id="edge16_Node000007_Node000016" class="edge">
<title>Node7&#45;&gt;Node16</title>
<g id="a_edge16_Node000007_Node000016"><a xlink:title=" ">
<path fill="none" stroke="#63b8ff" d="M810.53,-119.43C822.36,-110.16 840.33,-96.08 854.46,-85.01"/>
<polygon fill="#63b8ff" stroke="#63b8ff" points="856.6,-87.78 862.31,-78.86 852.28,-82.27 856.6,-87.78"/>
</a>
</g>
</g>
<!-- Node17 -->
<g id="Node000017" class="node">
<title>Node17</title>
<g id="a_Node000017"><a xlink:title=" ">
<polygon fill="#e0e0e0" stroke="#999999" points="1070.5,-77.5 955.5,-77.5 955.5,-56.75 1070.5,-56.75 1070.5,-77.5"/>
<text text-anchor="middle" x="1013" y="-64" font-family="Helvetica,sans-Serif" font-size="10.00">llvm/ADT/ArrayRef.h</text>
</a>
</g>
</g>
<!-- Node7&#45;&gt;Node17 -->
<g id="edge17_Node000007_Node000017" class="edge">
<title>Node7&#45;&gt;Node17</title>
<g id="a_edge17_Node000007_Node000017"><a xlink:title=" ">
<path fill="none" stroke="#63b8ff" d="M832.54,-119.43C869.22,-109 927.34,-92.48 967.67,-81.01"/>
<polygon fill="#63b8ff" stroke="#63b8ff" points="968.42,-84.44 977.09,-78.34 966.51,-77.7 968.42,-84.44"/>
</a>
</g>
</g>
<!-- Node18 -->
<g id="Node000018" class="node">
<title>Node18</title>
<g id="a_Node000018"><a xlink:title=" ">
<polygon fill="#e0e0e0" stroke="#999999" points="1213.38,-77.5 1088.62,-77.5 1088.62,-56.75 1213.38,-56.75 1213.38,-77.5"/>
<text text-anchor="middle" x="1151" y="-64" font-family="Helvetica,sans-Serif" font-size="10.00">llvm/ADT/DenseMap.h</text>
</a>
</g>
</g>
<!-- Node7&#45;&gt;Node18 -->
<g id="edge18_Node000007_Node000018" class="edge">
<title>Node7&#45;&gt;Node18</title>
<g id="a_edge18_Node000007_Node000018"><a xlink:title=" ">
<path fill="none" stroke="#63b8ff" d="M854.72,-119.43C916.89,-108.66 1016.63,-91.39 1082.97,-79.91"/>
<polygon fill="#63b8ff" stroke="#63b8ff" points="1083.39,-83.39 1092.64,-78.23 1082.19,-76.49 1083.39,-83.39"/>
</a>
</g>
</g>
<!-- Node19 -->
<g id="Node000019" class="node">
<title>Node19</title>
<g id="a_Node000019"><a xlink:title=" ">
<polygon fill="#e0e0e0" stroke="#999999" points="1348.62,-77.5 1231.38,-77.5 1231.38,-56.75 1348.62,-56.75 1348.62,-77.5"/>
<text text-anchor="middle" x="1290" y="-64" font-family="Helvetica,sans-Serif" font-size="10.00">llvm/ADT/StringRef.h</text>
</a>
</g>
</g>
<!-- Node7&#45;&gt;Node19 -->
<g id="edge19_Node000007_Node000019" class="edge">
<title>Node7&#45;&gt;Node19</title>
<g id="a_edge19_Node000007_Node000019"><a xlink:title=" ">
<path fill="none" stroke="#63b8ff" d="M858.07,-122.22C938.02,-112.79 1084.12,-95.33 1219.63,-77.79"/>
<polygon fill="#63b8ff" stroke="#63b8ff" points="1220.07,-81.26 1229.53,-76.51 1219.17,-74.32 1220.07,-81.26"/>
</a>
</g>
</g>
<!-- Node9 -->
<g id="Node000009" class="node">
<title>Node9</title>
<g id="a_Node000009"><a xlink:title=" ">
<polygon fill="#e0e0e0" stroke="#999999" points="463.62,-20.75 346.38,-20.75 346.38,0 463.62,0 463.62,-20.75"/>
<text text-anchor="middle" x="405" y="-7.25" font-family="Helvetica,sans-Serif" font-size="10.00">mlir/IR/Diagnostics.h</text>
</a>
</g>
</g>
<!-- Node8&#45;&gt;Node9 -->
<g id="edge8_Node000008_Node000009" class="edge">
<title>Node8&#45;&gt;Node9</title>
<g id="a_edge8_Node000008_Node000009"><a xlink:title=" ">
<path fill="none" stroke="#63b8ff" d="M538.04,-56.34C511.97,-47.53 473.44,-34.5 444.54,-24.74"/>
<polygon fill="#63b8ff" stroke="#63b8ff" points="446.01,-21.54 435.42,-21.66 443.77,-28.17 446.01,-21.54"/>
</a>
</g>
</g>
<!-- Node8&#45;&gt;Node10 -->
<g id="edge9_Node000008_Node000010" class="edge">
<title>Node8&#45;&gt;Node10</title>
<g id="a_edge9_Node000008_Node000010"><a xlink:title=" ">
<path fill="none" stroke="#63b8ff" d="M514.28,-56.27C464.85,-47.04 390.86,-33.21 338.05,-23.34"/>
<polygon fill="#63b8ff" stroke="#63b8ff" points="338.75,-19.91 328.28,-21.52 337.47,-26.79 338.75,-19.91"/>
</a>
</g>
</g>
<!-- Node11 -->
<g id="Node000011" class="node">
<title>Node11</title>
<g id="a_Node000011"><a xlink:title=" ">
<polygon fill="#e0e0e0" stroke="#999999" points="652.62,-20.75 481.38,-20.75 481.38,0 652.62,0 652.62,-20.75"/>
<text text-anchor="middle" x="567" y="-7.25" font-family="Helvetica,sans-Serif" font-size="10.00">llvm/ADT/STLFunctionalExtras.h</text>
</a>
</g>
</g>
<!-- Node8&#45;&gt;Node11 -->
<g id="edge10_Node000008_Node000011" class="edge">
<title>Node8&#45;&gt;Node11</title>
<g id="a_edge10_Node000008_Node000011"><a xlink:title=" ">
<path fill="none" stroke="#63b8ff" d="M567,-56.34C567,-49.72 567,-40.72 567,-32.52"/>
<polygon fill="#63b8ff" stroke="#63b8ff" points="570.5,-32.59 567,-22.59 563.5,-32.59 570.5,-32.59"/>
</a>
</g>
</g>
<!-- Node12 -->
<g id="Node000012" class="node">
<title>Node12</title>
<g id="a_Node000012"><a xlink:title=" ">
<polygon fill="#e0e0e0" stroke="#999999" points="771.38,-20.75 670.62,-20.75 670.62,0 771.38,0 771.38,-20.75"/>
<text text-anchor="middle" x="721" y="-7.25" font-family="Helvetica,sans-Serif" font-size="10.00">llvm/ADT/Twine.h</text>
</a>
</g>
</g>
<!-- Node8&#45;&gt;Node12 -->
<g id="edge11_Node000008_Node000012" class="edge">
<title>Node8&#45;&gt;Node12</title>
<g id="a_edge11_Node000008_Node000012"><a xlink:title=" ">
<path fill="none" stroke="#63b8ff" d="M594.53,-56.34C619.09,-47.61 655.3,-34.73 682.68,-25"/>
<polygon fill="#63b8ff" stroke="#63b8ff" points="683.77,-28.33 692.02,-21.68 681.43,-21.73 683.77,-28.33"/>
</a>
</g>
</g>
<!-- Node13 -->
<g id="Node000013" class="node">
<title>Node13</title>
<g id="a_Node000013"><a xlink:title=" ">
<polygon fill="#e0e0e0" stroke="#999999" points="946.5,-20.75 789.5,-20.75 789.5,0 946.5,0 946.5,-20.75"/>
<text text-anchor="middle" x="868" y="-7.25" font-family="Helvetica,sans-Serif" font-size="10.00">llvm/Support/ErrorHandling.h</text>
</a>
</g>
</g>
<!-- Node8&#45;&gt;Node13 -->
<g id="edge12_Node000008_Node000013" class="edge">
<title>Node8&#45;&gt;Node13</title>
<g id="a_edge12_Node000008_Node000013"><a xlink:title=" ">
<path fill="none" stroke="#63b8ff" d="M621.16,-56.27C672.04,-47.02 748.27,-33.15 802.54,-23.28"/>
<polygon fill="#63b8ff" stroke="#63b8ff" points="803.07,-26.74 812.28,-21.51 801.81,-19.86 803.07,-26.74"/>
</a>
</g>
</g>
<!-- Node14 -->
<g id="Node000014" class="node">
<title>Node14</title>
<g id="a_Node000014"><a xlink:title=" ">
<polygon fill="#e0e0e0" stroke="#999999" points="1015.25,-20.75 964.75,-20.75 964.75,0 1015.25,0 1015.25,-20.75"/>
<text text-anchor="middle" x="990" y="-7.25" font-family="Helvetica,sans-Serif" font-size="10.00">variant</text>
</a>
</g>
</g>
<!-- Node8&#45;&gt;Node14 -->
<g id="edge13_Node000008_Node000014" class="edge">
<title>Node8&#45;&gt;Node14</title>
<g id="a_edge13_Node000008_Node000014"><a xlink:title=" ">
<path fill="none" stroke="#63b8ff" d="M627.57,-57.81C630.42,-57.45 633.24,-57.09 636,-56.75 774.42,-39.56 813.5,-47.43 953.34,-21.01"/>
<polygon fill="#63b8ff" stroke="#63b8ff" points="953.83,-24.48 963,-19.16 952.52,-17.6 953.83,-24.48"/>
</a>
</g>
</g>
</g>
</svg>
