<?xml version="1.0" encoding="UTF-8" standalone="no"?>
<!DOCTYPE svg PUBLIC "-//W3C//DTD SVG 1.1//EN"
 "http://www.w3.org/Graphics/SVG/1.1/DTD/svg11.dtd">
<!-- Generated by graphviz version 12.2.1 (0)
 -->
<!-- Title: include/llzk/Dialect/Bool/IR/Ops.h Pages: 1 -->
<svg width="2682pt" height="376pt"
 viewBox="0.00 0.00 2681.88 376.25" xmlns="http://www.w3.org/2000/svg" xmlns:xlink="http://www.w3.org/1999/xlink">
<g id="graph0" class="graph" transform="scale(1 1) rotate(0) translate(4 372.25)">
<title>include/llzk/Dialect/Bool/IR/Ops.h</title>
<!-- Node1 -->
<g id="Node000001" class="node">
<title>Node1</title>
<g id="a_Node000001"><a xlink:title=" ">
<polygon fill="#999999" stroke="#666666" points="2181.25,-368.25 2072.25,-368.25 2072.25,-334.75 2181.25,-334.75 2181.25,-368.25"/>
<text text-anchor="start" x="2080.25" y="-354.75" font-family="Helvetica,sans-Serif" font-size="10.00">include/llzk/Dialect</text>
<text text-anchor="middle" x="2126.75" y="-342" font-family="Helvetica,sans-Serif" font-size="10.00">/Bool/IR/Ops.h</text>
</a>
</g>
</g>
<!-- Node2 -->
<g id="Node000002" class="node">
<title>Node2</title>
<g id="a_Node000002"><a xlink:href="Array_2IR_2Types_8h.html" target="_top" xlink:title=" ">
<polygon fill="white" stroke="#666666" points="1893.75,-298.75 1793.75,-298.75 1793.75,-265.25 1893.75,-265.25 1893.75,-298.75"/>
<text text-anchor="start" x="1801.75" y="-285.25" font-family="Helvetica,sans-Serif" font-size="10.00">llzk/Dialect/Array</text>
<text text-anchor="middle" x="1843.75" y="-272.5" font-family="Helvetica,sans-Serif" font-size="10.00">/IR/Types.h</text>
</a>
</g>
</g>
<!-- Node1&#45;&gt;Node2 -->
<g id="edge1_Node000001_Node000002" class="edge">
<title>Node1&#45;&gt;Node2</title>
<g id="a_edge1_Node000001_Node000002"><a xlink:title=" ">
<path fill="none" stroke="#63b8ff" d="M2071.85,-337.41C2024.03,-326 1954.77,-309.48 1905.13,-297.64"/>
<polygon fill="#63b8ff" stroke="#63b8ff" points="1906.23,-294.31 1895.69,-295.39 1904.61,-301.11 1906.23,-294.31"/>
</a>
</g>
</g>
<!-- Node15 -->
<g id="Node000015" class="node">
<title>Node15</title>
<g id="a_Node000015"><a xlink:href="Bool_2IR_2Attrs_8h.html" target="_top" xlink:title=" ">
<polygon fill="white" stroke="#666666" points="2137.88,-229.25 2029.62,-229.25 2029.62,-195.75 2137.88,-195.75 2137.88,-229.25"/>
<text text-anchor="start" x="2037.62" y="-215.75" font-family="Helvetica,sans-Serif" font-size="10.00">llzk/Dialect/Bool/IR</text>
<text text-anchor="middle" x="2083.75" y="-203" font-family="Helvetica,sans-Serif" font-size="10.00">/Attrs.h</text>
</a>
</g>
</g>
<!-- Node1&#45;&gt;Node15 -->
<g id="edge14_Node000001_Node000015" class="edge">
<title>Node1&#45;&gt;Node15</title>
<g id="a_edge14_Node000001_Node000015"><a xlink:title=" ">
<path fill="none" stroke="#63b8ff" d="M2118.7,-334.5C2113.87,-324.43 2107.89,-311.05 2103.75,-298.75 2097.36,-279.73 2092.24,-257.67 2088.78,-240.75"/>
<polygon fill="#63b8ff" stroke="#63b8ff" points="2092.22,-240.08 2086.86,-230.95 2085.35,-241.43 2092.22,-240.08"/>
</a>
</g>
</g>
<!-- Node23 -->
<g id="Node000023" class="node">
<title>Node23</title>
<g id="a_Node000023"><a xlink:href="Bool_2IR_2Dialect_8h.html" target="_top" xlink:title=" ">
<polygon fill="white" stroke="#666666" points="1369.88,-298.75 1261.62,-298.75 1261.62,-265.25 1369.88,-265.25 1369.88,-298.75"/>
<text text-anchor="start" x="1269.62" y="-285.25" font-family="Helvetica,sans-Serif" font-size="10.00">llzk/Dialect/Bool/IR</text>
<text text-anchor="middle" x="1315.75" y="-272.5" font-family="Helvetica,sans-Serif" font-size="10.00">/Dialect.h</text>
</a>
</g>
</g>
<!-- Node1&#45;&gt;Node23 -->
<g id="edge23_Node000001_Node000023" class="edge">
<title>Node1&#45;&gt;Node23</title>
<g id="a_edge23_Node000001_Node000023"><a xlink:title=" ">
<path fill="none" stroke="#63b8ff" d="M2072.1,-347.42C1955.3,-340.61 1672.77,-322.94 1436.75,-298.75 1418.77,-296.91 1399.34,-294.54 1381.42,-292.21"/>
<polygon fill="#63b8ff" stroke="#63b8ff" points="1382.06,-288.77 1371.69,-290.93 1381.14,-295.71 1382.06,-288.77"/>
</a>
</g>
</g>
<!-- Node25 -->
<g id="Node000025" class="node">
<title>Node25</title>
<g id="a_Node000025"><a xlink:href="Felt_2IR_2Types_8h.html" target="_top" xlink:title=" ">
<polygon fill="white" stroke="#666666" points="1550,-298.75 1445.5,-298.75 1445.5,-265.25 1550,-265.25 1550,-298.75"/>
<text text-anchor="start" x="1453.5" y="-285.25" font-family="Helvetica,sans-Serif" font-size="10.00">llzk/Dialect/Felt/IR</text>
<text text-anchor="middle" x="1497.75" y="-272.5" font-family="Helvetica,sans-Serif" font-size="10.00">/Types.h</text>
</a>
</g>
</g>
<!-- Node1&#45;&gt;Node25 -->
<g id="edge26_Node000001_Node000025" class="edge">
<title>Node1&#45;&gt;Node25</title>
<g id="a_edge26_Node000001_Node000025"><a xlink:title=" ">
<path fill="none" stroke="#63b8ff" d="M2071.76,-344.6C1955.36,-332.11 1684.66,-303.06 1561.19,-289.81"/>
<polygon fill="#63b8ff" stroke="#63b8ff" points="1561.88,-286.36 1551.57,-288.78 1561.14,-293.32 1561.88,-286.36"/>
</a>
</g>
</g>
<!-- Node50 -->
<g id="Node000050" class="node">
<title>Node50</title>
<g id="a_Node000050"><a xlink:href="OpTraits_8h.html" target="_top" xlink:title=" ">
<polygon fill="white" stroke="#666666" points="2227.25,-298.75 2112.25,-298.75 2112.25,-265.25 2227.25,-265.25 2227.25,-298.75"/>
<text text-anchor="start" x="2120.25" y="-285.25" font-family="Helvetica,sans-Serif" font-size="10.00">llzk/Dialect/Function</text>
<text text-anchor="middle" x="2169.75" y="-272.5" font-family="Helvetica,sans-Serif" font-size="10.00">/IR/OpTraits.h</text>
</a>
</g>
</g>
<!-- Node1&#45;&gt;Node50 -->
<g id="edge52_Node000001_Node000050" class="edge">
<title>Node1&#45;&gt;Node50</title>
<g id="a_edge52_Node000001_Node000050"><a xlink:title=" ">
<path fill="none" stroke="#63b8ff" d="M2136.94,-334.5C2141.92,-326.69 2148.03,-317.09 2153.63,-308.31"/>
<polygon fill="#63b8ff" stroke="#63b8ff" points="2156.4,-310.47 2158.82,-300.16 2150.49,-306.71 2156.4,-310.47"/>
</a>
</g>
</g>
<!-- Node53 -->
<g id="Node000053" class="node">
<title>Node53</title>
<g id="a_Node000053"><a xlink:title=" ">
<polygon fill="#e0e0e0" stroke="#999999" points="2394.12,-298.75 2245.38,-298.75 2245.38,-265.25 2394.12,-265.25 2394.12,-298.75"/>
<text text-anchor="start" x="2253.38" y="-285.25" font-family="Helvetica,sans-Serif" font-size="10.00">mlir/Interfaces/ControlFlow</text>
<text text-anchor="middle" x="2319.75" y="-272.5" font-family="Helvetica,sans-Serif" font-size="10.00">Interfaces.h</text>
</a>
</g>
</g>
<!-- Node1&#45;&gt;Node53 -->
<g id="edge56_Node000001_Node000053" class="edge">
<title>Node1&#45;&gt;Node53</title>
<g id="a_edge56_Node000001_Node000053"><a xlink:title=" ">
<path fill="none" stroke="#63b8ff" d="M2172.98,-334.33C2199.97,-324.89 2234.25,-312.9 2262.89,-302.89"/>
<polygon fill="#63b8ff" stroke="#63b8ff" points="2263.85,-306.26 2272.14,-299.65 2261.54,-299.65 2263.85,-306.26"/>
</a>
</g>
</g>
<!-- Node54 -->
<g id="Node000054" class="node">
<title>Node54</title>
<g id="a_Node000054"><a xlink:title=" ">
<polygon fill="#e0e0e0" stroke="#999999" points="2547.38,-298.75 2412.12,-298.75 2412.12,-265.25 2547.38,-265.25 2547.38,-298.75"/>
<text text-anchor="start" x="2420.12" y="-285.25" font-family="Helvetica,sans-Serif" font-size="10.00">mlir/Interfaces/InferType</text>
<text text-anchor="middle" x="2479.75" y="-272.5" font-family="Helvetica,sans-Serif" font-size="10.00">OpInterface.h</text>
</a>
</g>
</g>
<!-- Node1&#45;&gt;Node54 -->
<g id="edge57_Node000001_Node000054" class="edge">
<title>Node1&#45;&gt;Node54</title>
<g id="a_edge57_Node000001_Node000054"><a xlink:title=" ">
<path fill="none" stroke="#63b8ff" d="M2181.52,-340.5C2234.86,-330.71 2318.51,-315.18 2400.69,-299.14"/>
<polygon fill="#63b8ff" stroke="#63b8ff" points="2401.12,-302.62 2410.26,-297.26 2399.77,-295.75 2401.12,-302.62"/>
</a>
</g>
</g>
<!-- Node55 -->
<g id="Node000055" class="node">
<title>Node55</title>
<g id="a_Node000055"><a xlink:href="Bool_2IR_2Ops_8h_8inc.html" target="_top" xlink:title=" ">
<polygon fill="white" stroke="#666666" points="2673.88,-298.75 2565.62,-298.75 2565.62,-265.25 2673.88,-265.25 2673.88,-298.75"/>
<text text-anchor="start" x="2573.62" y="-285.25" font-family="Helvetica,sans-Serif" font-size="10.00">llzk/Dialect/Bool/IR</text>
<text text-anchor="middle" x="2619.75" y="-272.5" font-family="Helvetica,sans-Serif" font-size="10.00">/Ops.h.inc</text>
</a>
</g>
</g>
<!-- Node1&#45;&gt;Node55 -->
<g id="edge58_Node000001_Node000055" class="edge">
<title>Node1&#45;&gt;Node55</title>
<g id="a_edge58_Node000001_Node000055"><a xlink:title=" ">
<path fill="none" stroke="#63b8ff" d="M2181.72,-346.1C2261.65,-339.23 2414.75,-324.22 2553.93,-299.14"/>
<polygon fill="#63b8ff" stroke="#63b8ff" points="2554.51,-302.59 2563.72,-297.35 2553.25,-295.71 2554.51,-302.59"/>
</a>
</g>
</g>
<!-- Node3 -->
<g id="Node000003" class="node">
<title>Node3</title>
<g id="a_Node000003"><a xlink:href="Array_2IR_2Dialect_8h.html" target="_top" xlink:title=" ">
<polygon fill="white" stroke="#666666" points="2011.75,-229.25 1911.75,-229.25 1911.75,-195.75 2011.75,-195.75 2011.75,-229.25"/>
<text text-anchor="start" x="1919.75" y="-215.75" font-family="Helvetica,sans-Serif" font-size="10.00">llzk/Dialect/Array</text>
<text text-anchor="middle" x="1961.75" y="-203" font-family="Helvetica,sans-Serif" font-size="10.00">/IR/Dialect.h</text>
</a>
</g>
</g>
<!-- Node2&#45;&gt;Node3 -->
<g id="edge2_Node000002_Node000003" class="edge">
<title>Node2&#45;&gt;Node3</title>
<g id="a_edge2_Node000002_Node000003"><a xlink:title=" ">
<path fill="none" stroke="#63b8ff" d="M1872.01,-264.83C1887.63,-255.9 1907.23,-244.69 1924.13,-235.02"/>
<polygon fill="#63b8ff" stroke="#63b8ff" points="1925.46,-238.29 1932.4,-230.29 1921.98,-232.21 1925.46,-238.29"/>
</a>
</g>
</g>
<!-- Node6 -->
<g id="Node000006" class="node">
<title>Node6</title>
<g id="a_Node000006"><a xlink:href="ErrorHelper_8h.html" target="_top" xlink:title=" ">
<polygon fill="white" stroke="#666666" points="1535.88,-153.38 1415.62,-153.38 1415.62,-132.62 1535.88,-132.62 1535.88,-153.38"/>
<text text-anchor="middle" x="1475.75" y="-139.88" font-family="Helvetica,sans-Serif" font-size="10.00">llzk/Util/ErrorHelper.h</text>
</a>
</g>
</g>
<!-- Node2&#45;&gt;Node6 -->
<g id="edge5_Node000002_Node000006" class="edge">
<title>Node2&#45;&gt;Node6</title>
<g id="a_edge5_Node000002_Node000006"><a xlink:title=" ">
<path fill="none" stroke="#63b8ff" d="M1793.26,-280.32C1707.16,-278.1 1537.13,-268.68 1494.75,-229.25 1477.26,-212.98 1474.1,-184.46 1474.26,-164.93"/>
<polygon fill="#63b8ff" stroke="#63b8ff" points="1477.75,-165.25 1474.66,-155.11 1470.75,-164.96 1477.75,-165.25"/>
</a>
</g>
</g>
<!-- Node13 -->
<g id="Node000013" class="node">
<title>Node13</title>
<g id="a_Node000013"><a xlink:title=" ">
<polygon fill="#e0e0e0" stroke="#999999" points="1775.5,-229.25 1626,-229.25 1626,-195.75 1775.5,-195.75 1775.5,-229.25"/>
<text text-anchor="start" x="1634" y="-215.75" font-family="Helvetica,sans-Serif" font-size="10.00">mlir/Interfaces/MemorySlot</text>
<text text-anchor="middle" x="1700.75" y="-203" font-family="Helvetica,sans-Serif" font-size="10.00">Interfaces.h</text>
</a>
</g>
</g>
<!-- Node2&#45;&gt;Node13 -->
<g id="edge12_Node000002_Node000013" class="edge">
<title>Node2&#45;&gt;Node13</title>
<g id="a_edge12_Node000002_Node000013"><a xlink:title=" ">
<path fill="none" stroke="#63b8ff" d="M1809.5,-264.83C1790.13,-255.69 1765.7,-244.16 1744.91,-234.34"/>
<polygon fill="#63b8ff" stroke="#63b8ff" points="1746.63,-231.29 1736.09,-230.18 1743.64,-237.62 1746.63,-231.29"/>
</a>
</g>
</g>
<!-- Node14 -->
<g id="Node000014" class="node">
<title>Node14</title>
<g id="a_Node000014"><a xlink:href="Array_2IR_2Types_8h_8inc.html" target="_top" xlink:title=" ">
<polygon fill="white" stroke="#666666" points="1893.75,-229.25 1793.75,-229.25 1793.75,-195.75 1893.75,-195.75 1893.75,-229.25"/>
<text text-anchor="start" x="1801.75" y="-215.75" font-family="Helvetica,sans-Serif" font-size="10.00">llzk/Dialect/Array</text>
<text text-anchor="middle" x="1843.75" y="-203" font-family="Helvetica,sans-Serif" font-size="10.00">/IR/Types.h.inc</text>
</a>
</g>
</g>
<!-- Node2&#45;&gt;Node14 -->
<g id="edge13_Node000002_Node000014" class="edge">
<title>Node2&#45;&gt;Node14</title>
<g id="a_edge13_Node000002_Node000014"><a xlink:title=" ">
<path fill="none" stroke="#63b8ff" d="M1843.75,-265C1843.75,-257.77 1843.75,-249.03 1843.75,-240.81"/>
<polygon fill="#63b8ff" stroke="#63b8ff" points="1847.25,-240.9 1843.75,-230.9 1840.25,-240.9 1847.25,-240.9"/>
</a>
</g>
</g>
<!-- Node4 -->
<g id="Node000004" class="node">
<title>Node4</title>
<g id="a_Node000004"><a xlink:title=" ">
<polygon fill="#e0e0e0" stroke="#999999" points="1664,-153.38 1553.5,-153.38 1553.5,-132.62 1664,-132.62 1664,-153.38"/>
<text text-anchor="middle" x="1608.75" y="-139.88" font-family="Helvetica,sans-Serif" font-size="10.00">mlir/IR/BuiltinOps.h</text>
</a>
</g>
</g>
<!-- Node3&#45;&gt;Node4 -->
<g id="edge3_Node000003_Node000004" class="edge">
<title>Node3&#45;&gt;Node4</title>
<g id="a_edge3_Node000003_Node000004"><a xlink:title=" ">
<path fill="none" stroke="#63b8ff" d="M1911.3,-197.66C1908.42,-196.98 1905.55,-196.34 1902.75,-195.75 1801.95,-174.43 1774.79,-179.9 1673.75,-159.75 1668.61,-158.73 1663.27,-157.57 1657.94,-156.37"/>
<polygon fill="#63b8ff" stroke="#63b8ff" points="1659.14,-153.05 1648.6,-154.19 1657.55,-159.87 1659.14,-153.05"/>
</a>
</g>
</g>
<!-- Node5 -->
<g id="Node000005" class="node">
<title>Node5</title>
<g id="a_Node000005"><a xlink:href="Array_2IR_2Dialect_8h_8inc.html" target="_top" xlink:title=" ">
<polygon fill="white" stroke="#666666" points="2011.75,-159.75 1911.75,-159.75 1911.75,-126.25 2011.75,-126.25 2011.75,-159.75"/>
<text text-anchor="start" x="1919.75" y="-146.25" font-family="Helvetica,sans-Serif" font-size="10.00">llzk/Dialect/Array</text>
<text text-anchor="middle" x="1961.75" y="-133.5" font-family="Helvetica,sans-Serif" font-size="10.00">/IR/Dialect.h.inc</text>
</a>
</g>
</g>
<!-- Node3&#45;&gt;Node5 -->
<g id="edge4_Node000003_Node000005" class="edge">
<title>Node3&#45;&gt;Node5</title>
<g id="a_edge4_Node000003_Node000005"><a xlink:title=" ">
<path fill="none" stroke="#63b8ff" d="M1961.75,-195.5C1961.75,-188.27 1961.75,-179.53 1961.75,-171.31"/>
<polygon fill="#63b8ff" stroke="#63b8ff" points="1965.25,-171.4 1961.75,-161.4 1958.25,-171.4 1965.25,-171.4"/>
</a>
</g>
</g>
<!-- Node7 -->
<g id="Node000007" class="node">
<title>Node7</title>
<g id="a_Node000007"><a xlink:title=" ">
<polygon fill="#e0e0e0" stroke="#999999" points="1988.38,-83.88 1871.12,-83.88 1871.12,-63.12 1988.38,-63.12 1988.38,-83.88"/>
<text text-anchor="middle" x="1929.75" y="-70.38" font-family="Helvetica,sans-Serif" font-size="10.00">mlir/IR/Diagnostics.h</text>
</a>
</g>
</g>
<!-- Node6&#45;&gt;Node7 -->
<g id="edge6_Node000006_Node000007" class="edge">
<title>Node6&#45;&gt;Node7</title>
<g id="a_edge6_Node000006_Node000007"><a xlink:title=" ">
<path fill="none" stroke="#63b8ff" d="M1515.37,-132.17C1524.95,-130.02 1535.18,-127.89 1544.75,-126.25 1682.33,-102.68 1719.03,-113 1856.75,-90.25 1863.14,-89.19 1869.82,-87.95 1876.43,-86.63"/>
<polygon fill="#63b8ff" stroke="#63b8ff" points="1876.85,-90.12 1885.94,-84.67 1875.44,-83.26 1876.85,-90.12"/>
</a>
</g>
</g>
<!-- Node8 -->
<g id="Node000008" class="node">
<title>Node8</title>
<g id="a_Node000008"><a xlink:title=" ">
<polygon fill="#e0e0e0" stroke="#999999" points="1896.88,-20.75 1788.62,-20.75 1788.62,0 1896.88,0 1896.88,-20.75"/>
<text text-anchor="middle" x="1842.75" y="-7.25" font-family="Helvetica,sans-Serif" font-size="10.00">mlir/IR/Operation.h</text>
</a>
</g>
</g>
<!-- Node6&#45;&gt;Node8 -->
<g id="edge7_Node000006_Node000008" class="edge">
<title>Node6&#45;&gt;Node8</title>
<g id="a_edge7_Node000006_Node000008"><a xlink:title=" ">
<path fill="none" stroke="#63b8ff" d="M1515.75,-132.18C1525.22,-130.05 1535.31,-127.93 1544.75,-126.25 1606.29,-115.28 1777.22,-132 1823.75,-90.25 1839.77,-75.87 1843.43,-50.55 1843.79,-32.48"/>
<polygon fill="#63b8ff" stroke="#63b8ff" points="1847.29,-32.56 1843.62,-22.61 1840.29,-32.67 1847.29,-32.56"/>
</a>
</g>
</g>
<!-- Node9 -->
<g id="Node000009" class="node">
<title>Node9</title>
<g id="a_Node000009"><a xlink:title=" ">
<polygon fill="#e0e0e0" stroke="#999999" points="1452.38,-83.88 1281.12,-83.88 1281.12,-63.12 1452.38,-63.12 1452.38,-83.88"/>
<text text-anchor="middle" x="1366.75" y="-70.38" font-family="Helvetica,sans-Serif" font-size="10.00">llvm/ADT/STLFunctionalExtras.h</text>
</a>
</g>
</g>
<!-- Node6&#45;&gt;Node9 -->
<g id="edge8_Node000006_Node000009" class="edge">
<title>Node6&#45;&gt;Node9</title>
<g id="a_edge8_Node000006_Node000009"><a xlink:title=" ">
<path fill="none" stroke="#63b8ff" d="M1460.13,-132.33C1442.43,-121.36 1413.3,-103.32 1392.28,-90.31"/>
<polygon fill="#63b8ff" stroke="#63b8ff" points="1394.32,-87.46 1383.98,-85.17 1390.64,-93.41 1394.32,-87.46"/>
</a>
</g>
</g>
<!-- Node10 -->
<g id="Node000010" class="node">
<title>Node10</title>
<g id="a_Node000010"><a xlink:title=" ">
<polygon fill="#e0e0e0" stroke="#999999" points="1571.12,-83.88 1470.38,-83.88 1470.38,-63.12 1571.12,-63.12 1571.12,-83.88"/>
<text text-anchor="middle" x="1520.75" y="-70.38" font-family="Helvetica,sans-Serif" font-size="10.00">llvm/ADT/Twine.h</text>
</a>
</g>
</g>
<!-- Node6&#45;&gt;Node10 -->
<g id="edge9_Node000006_Node000010" class="edge">
<title>Node6&#45;&gt;Node10</title>
<g id="a_edge9_Node000006_Node000010"><a xlink:title=" ">
<path fill="none" stroke="#63b8ff" d="M1482.2,-132.33C1488.95,-122.2 1499.72,-106.05 1508.16,-93.38"/>
<polygon fill="#63b8ff" stroke="#63b8ff" points="1510.84,-95.67 1513.47,-85.41 1505.02,-91.79 1510.84,-95.67"/>
</a>
</g>
</g>
<!-- Node11 -->
<g id="Node000011" class="node">
<title>Node11</title>
<g id="a_Node000011"><a xlink:title=" ">
<polygon fill="#e0e0e0" stroke="#999999" points="1746.25,-83.88 1589.25,-83.88 1589.25,-63.12 1746.25,-63.12 1746.25,-83.88"/>
<text text-anchor="middle" x="1667.75" y="-70.38" font-family="Helvetica,sans-Serif" font-size="10.00">llvm/Support/ErrorHandling.h</text>
</a>
</g>
</g>
<!-- Node6&#45;&gt;Node11 -->
<g id="edge10_Node000006_Node000011" class="edge">
<title>Node6&#45;&gt;Node11</title>
<g id="a_edge10_Node000006_Node000011"><a xlink:title=" ">
<path fill="none" stroke="#63b8ff" d="M1503.67,-132.18C1536.8,-120.54 1592.22,-101.05 1629.37,-87.99"/>
<polygon fill="#63b8ff" stroke="#63b8ff" points="1630.1,-91.45 1638.37,-84.83 1627.78,-84.84 1630.1,-91.45"/>
</a>
</g>
</g>
<!-- Node12 -->
<g id="Node000012" class="node">
<title>Node12</title>
<g id="a_Node000012"><a xlink:title=" ">
<polygon fill="#e0e0e0" stroke="#999999" points="1815,-83.88 1764.5,-83.88 1764.5,-63.12 1815,-63.12 1815,-83.88"/>
<text text-anchor="middle" x="1789.75" y="-70.38" font-family="Helvetica,sans-Serif" font-size="10.00">variant</text>
</a>
</g>
</g>
<!-- Node6&#45;&gt;Node12 -->
<g id="edge11_Node000006_Node000012" class="edge">
<title>Node6&#45;&gt;Node12</title>
<g id="a_edge11_Node000006_Node000012"><a xlink:title=" ">
<path fill="none" stroke="#63b8ff" d="M1517.27,-132.13C1526.31,-130.09 1535.83,-128.03 1544.75,-126.25 1638.05,-107.66 1664.91,-118.49 1755.75,-90.25 1757.34,-89.76 1758.96,-89.2 1760.57,-88.61"/>
<polygon fill="#63b8ff" stroke="#63b8ff" points="1761.76,-91.9 1769.64,-84.82 1759.07,-85.44 1761.76,-91.9"/>
</a>
</g>
</g>
<!-- Node16 -->
<g id="Node000016" class="node">
<title>Node16</title>
<g id="a_Node000016"><a xlink:href="Bool_2IR_2Enums_8h.html" target="_top" xlink:title=" ">
<polygon fill="white" stroke="#666666" points="2137.88,-159.75 2029.62,-159.75 2029.62,-126.25 2137.88,-126.25 2137.88,-159.75"/>
<text text-anchor="start" x="2037.62" y="-146.25" font-family="Helvetica,sans-Serif" font-size="10.00">llzk/Dialect/Bool/IR</text>
<text text-anchor="middle" x="2083.75" y="-133.5" font-family="Helvetica,sans-Serif" font-size="10.00">/Enums.h</text>
</a>
</g>
</g>
<!-- Node15&#45;&gt;Node16 -->
<g id="edge15_Node000015_Node000016" class="edge">
<title>Node15&#45;&gt;Node16</title>
<g id="a_edge15_Node000015_Node000016"><a xlink:title=" ">
<path fill="none" stroke="#63b8ff" d="M2083.75,-195.5C2083.75,-188.27 2083.75,-179.53 2083.75,-171.31"/>
<polygon fill="#63b8ff" stroke="#63b8ff" points="2087.25,-171.4 2083.75,-161.4 2080.25,-171.4 2087.25,-171.4"/>
</a>
</g>
</g>
<!-- Node21 -->
<g id="Node000021" class="node">
<title>Node21</title>
<g id="a_Node000021"><a xlink:title=" ">
<polygon fill="#e0e0e0" stroke="#999999" points="2263.88,-153.38 2155.62,-153.38 2155.62,-132.62 2263.88,-132.62 2263.88,-153.38"/>
<text text-anchor="middle" x="2209.75" y="-139.88" font-family="Helvetica,sans-Serif" font-size="10.00">mlir/IR/Attributes.h</text>
</a>
</g>
</g>
<!-- Node15&#45;&gt;Node21 -->
<g id="edge21_Node000015_Node000021" class="edge">
<title>Node15&#45;&gt;Node21</title>
<g id="a_edge21_Node000015_Node000021"><a xlink:title=" ">
<path fill="none" stroke="#63b8ff" d="M2113.93,-195.33C2134.42,-184.36 2161.33,-169.94 2181.42,-159.18"/>
<polygon fill="#63b8ff" stroke="#63b8ff" points="2183.01,-162.29 2190.18,-154.49 2179.71,-156.12 2183.01,-162.29"/>
</a>
</g>
</g>
<!-- Node22 -->
<g id="Node000022" class="node">
<title>Node22</title>
<g id="a_Node000022"><a xlink:href="Bool_2IR_2Attrs_8h_8inc.html" target="_top" xlink:title=" ">
<polygon fill="white" stroke="#666666" points="2389.88,-159.75 2281.62,-159.75 2281.62,-126.25 2389.88,-126.25 2389.88,-159.75"/>
<text text-anchor="start" x="2289.62" y="-146.25" font-family="Helvetica,sans-Serif" font-size="10.00">llzk/Dialect/Bool/IR</text>
<text text-anchor="middle" x="2335.75" y="-133.5" font-family="Helvetica,sans-Serif" font-size="10.00">/Attrs.h.inc</text>
</a>
</g>
</g>
<!-- Node15&#45;&gt;Node22 -->
<g id="edge22_Node000015_Node000022" class="edge">
<title>Node15&#45;&gt;Node22</title>
<g id="a_edge22_Node000015_Node000022"><a xlink:title=" ">
<path fill="none" stroke="#63b8ff" d="M2138.12,-196.94C2176.95,-186.53 2229.38,-172.49 2270.48,-161.48"/>
<polygon fill="#63b8ff" stroke="#63b8ff" points="2271.26,-164.9 2280.02,-158.93 2269.45,-158.14 2271.26,-164.9"/>
</a>
</g>
</g>
<!-- Node16&#45;&gt;Node7 -->
<g id="edge16_Node000016_Node000007" class="edge">
<title>Node16&#45;&gt;Node7</title>
<g id="a_edge16_Node000016_Node000007"><a xlink:title=" ">
<path fill="none" stroke="#63b8ff" d="M2046.86,-125.83C2021.13,-114.55 1987.1,-99.64 1962.36,-88.79"/>
<polygon fill="#63b8ff" stroke="#63b8ff" points="1963.99,-85.69 1953.43,-84.88 1961.18,-92.1 1963.99,-85.69"/>
</a>
</g>
</g>
<!-- Node17 -->
<g id="Node000017" class="node">
<title>Node17</title>
<g id="a_Node000017"><a xlink:title=" ">
<polygon fill="#e0e0e0" stroke="#999999" points="2448.5,-83.88 2305,-83.88 2305,-63.12 2448.5,-63.12 2448.5,-83.88"/>
<text text-anchor="middle" x="2376.75" y="-70.38" font-family="Helvetica,sans-Serif" font-size="10.00">llvm/ADT/DenseMapInfo.h</text>
</a>
</g>
</g>
<!-- Node16&#45;&gt;Node17 -->
<g id="edge17_Node000016_Node000017" class="edge">
<title>Node16&#45;&gt;Node17</title>
<g id="a_edge17_Node000016_Node000017"><a xlink:title=" ">
<path fill="none" stroke="#63b8ff" d="M2138.37,-128.26C2141.2,-127.58 2144.01,-126.9 2146.75,-126.25 2205.98,-112.19 2274.02,-96.99 2320.65,-86.73"/>
<polygon fill="#63b8ff" stroke="#63b8ff" points="2321.23,-90.19 2330.25,-84.63 2319.73,-83.35 2321.23,-90.19"/>
</a>
</g>
</g>
<!-- Node18 -->
<g id="Node000018" class="node">
<title>Node18</title>
<g id="a_Node000018"><a xlink:title=" ">
<polygon fill="#e0e0e0" stroke="#999999" points="1263.38,-83.88 1146.12,-83.88 1146.12,-63.12 1263.38,-63.12 1263.38,-83.88"/>
<text text-anchor="middle" x="1204.75" y="-70.38" font-family="Helvetica,sans-Serif" font-size="10.00">llvm/ADT/StringRef.h</text>
</a>
</g>
</g>
<!-- Node16&#45;&gt;Node18 -->
<g id="edge18_Node000016_Node000018" class="edge">
<title>Node16&#45;&gt;Node18</title>
<g id="a_edge18_Node000016_Node000018"><a xlink:title=" ">
<path fill="none" stroke="#63b8ff" d="M2029.25,-127.68C2026.38,-127.14 2023.54,-126.66 2020.75,-126.25 1691.05,-77.6 1601.79,-136.58 1271.75,-90.25 1265.31,-89.35 1258.57,-88.11 1251.96,-86.73"/>
<polygon fill="#63b8ff" stroke="#63b8ff" points="1253.03,-83.39 1242.51,-84.63 1251.51,-90.22 1253.03,-83.39"/>
</a>
</g>
</g>
<!-- Node19 -->
<g id="Node000019" class="node">
<title>Node19</title>
<g id="a_Node000019"><a xlink:title=" ">
<polygon fill="#e0e0e0" stroke="#999999" points="2160.75,-83.88 2006.75,-83.88 2006.75,-63.12 2160.75,-63.12 2160.75,-83.88"/>
<text text-anchor="middle" x="2083.75" y="-70.38" font-family="Helvetica,sans-Serif" font-size="10.00">llvm/Support/raw_ostream.h</text>
</a>
</g>
</g>
<!-- Node16&#45;&gt;Node19 -->
<g id="edge19_Node000016_Node000019" class="edge">
<title>Node16&#45;&gt;Node19</title>
<g id="a_edge19_Node000016_Node000019"><a xlink:title=" ">
<path fill="none" stroke="#63b8ff" d="M2083.75,-126C2083.75,-116.9 2083.75,-105.39 2083.75,-95.57"/>
<polygon fill="#63b8ff" stroke="#63b8ff" points="2087.25,-95.84 2083.75,-85.84 2080.25,-95.84 2087.25,-95.84"/>
</a>
</g>
</g>
<!-- Node20 -->
<g id="Node000020" class="node">
<title>Node20</title>
<g id="a_Node000020"><a xlink:href="Bool_2IR_2Enums_8h_8inc.html" target="_top" xlink:title=" ">
<polygon fill="white" stroke="#666666" points="2286.88,-90.25 2178.62,-90.25 2178.62,-56.75 2286.88,-56.75 2286.88,-90.25"/>
<text text-anchor="start" x="2186.62" y="-76.75" font-family="Helvetica,sans-Serif" font-size="10.00">llzk/Dialect/Bool/IR</text>
<text text-anchor="middle" x="2232.75" y="-64" font-family="Helvetica,sans-Serif" font-size="10.00">/Enums.h.inc</text>
</a>
</g>
</g>
<!-- Node16&#45;&gt;Node20 -->
<g id="edge20_Node000016_Node000020" class="edge">
<title>Node16&#45;&gt;Node20</title>
<g id="a_edge20_Node000016_Node000020"><a xlink:title=" ">
<path fill="none" stroke="#63b8ff" d="M2119.44,-125.83C2139.64,-116.68 2165.12,-105.14 2186.8,-95.32"/>
<polygon fill="#63b8ff" stroke="#63b8ff" points="2188.05,-98.59 2195.72,-91.28 2185.16,-92.22 2188.05,-98.59"/>
</a>
</g>
</g>
<!-- Node23&#45;&gt;Node4 -->
<g id="edge24_Node000023_Node000004" class="edge">
<title>Node23&#45;&gt;Node4</title>
<g id="a_edge24_Node000023_Node000004"><a xlink:title=" ">
<path fill="none" stroke="#63b8ff" d="M1314.43,-264.96C1313.8,-245.66 1315.97,-213.63 1334.75,-195.75 1403.35,-130.47 1452.05,-179.08 1544.75,-159.75 1549.61,-158.74 1554.65,-157.62 1559.69,-156.45"/>
<polygon fill="#63b8ff" stroke="#63b8ff" points="1560.22,-159.92 1569.14,-154.21 1558.6,-153.11 1560.22,-159.92"/>
</a>
</g>
</g>
<!-- Node24 -->
<g id="Node000024" class="node">
<title>Node24</title>
<g id="a_Node000024"><a xlink:href="Bool_2IR_2Dialect_8h_8inc.html" target="_top" xlink:title=" ">
<polygon fill="white" stroke="#666666" points="856.88,-229.25 748.62,-229.25 748.62,-195.75 856.88,-195.75 856.88,-229.25"/>
<text text-anchor="start" x="756.62" y="-215.75" font-family="Helvetica,sans-Serif" font-size="10.00">llzk/Dialect/Bool/IR</text>
<text text-anchor="middle" x="802.75" y="-203" font-family="Helvetica,sans-Serif" font-size="10.00">/Dialect.h.inc</text>
</a>
</g>
</g>
<!-- Node23&#45;&gt;Node24 -->
<g id="edge25_Node000023_Node000024" class="edge">
<title>Node23&#45;&gt;Node24</title>
<g id="a_edge25_Node000023_Node000024"><a xlink:title=" ">
<path fill="none" stroke="#63b8ff" d="M1261.17,-276.95C1178.4,-270.32 1016.06,-255.4 868.19,-229.35"/>
<polygon fill="#63b8ff" stroke="#63b8ff" points="869.07,-225.95 858.61,-227.64 867.84,-232.84 869.07,-225.95"/>
</a>
</g>
</g>
<!-- Node26 -->
<g id="Node000026" class="node">
<title>Node26</title>
<g id="a_Node000026"><a xlink:href="Felt_2IR_2Dialect_8h.html" target="_top" xlink:title=" ">
<polygon fill="white" stroke="#666666" points="1608,-229.25 1503.5,-229.25 1503.5,-195.75 1608,-195.75 1608,-229.25"/>
<text text-anchor="start" x="1511.5" y="-215.75" font-family="Helvetica,sans-Serif" font-size="10.00">llzk/Dialect/Felt/IR</text>
<text text-anchor="middle" x="1555.75" y="-203" font-family="Helvetica,sans-Serif" font-size="10.00">/Dialect.h</text>
</a>
</g>
</g>
<!-- Node25&#45;&gt;Node26 -->
<g id="edge27_Node000025_Node000026" class="edge">
<title>Node25&#45;&gt;Node26</title>
<g id="a_edge27_Node000025_Node000026"><a xlink:title=" ">
<path fill="none" stroke="#63b8ff" d="M1511.5,-265C1518.43,-256.93 1526.99,-246.97 1534.73,-237.96"/>
<polygon fill="#63b8ff" stroke="#63b8ff" points="1537.25,-240.4 1541.12,-230.53 1531.95,-235.83 1537.25,-240.4"/>
</a>
</g>
</g>
<!-- Node28 -->
<g id="Node000028" class="node">
<title>Node28</title>
<g id="a_Node000028"><a xlink:href="Field_8h.html" target="_top" xlink:title=" ">
<polygon fill="white" stroke="#666666" points="964.12,-222.88 875.38,-222.88 875.38,-202.12 964.12,-202.12 964.12,-222.88"/>
<text text-anchor="middle" x="919.75" y="-209.38" font-family="Helvetica,sans-Serif" font-size="10.00">llzk/Util/Field.h</text>
</a>
</g>
</g>
<!-- Node25&#45;&gt;Node28 -->
<g id="edge30_Node000025_Node000028" class="edge">
<title>Node25&#45;&gt;Node28</title>
<g id="a_edge30_Node000025_Node000028"><a xlink:title=" ">
<path fill="none" stroke="#63b8ff" d="M1445.06,-273.8C1424.39,-271.04 1400.47,-267.91 1378.75,-265.25 1233.59,-247.46 1062.32,-228.76 975.8,-219.47"/>
<polygon fill="#63b8ff" stroke="#63b8ff" points="976.24,-215.99 965.92,-218.41 975.49,-222.95 976.24,-215.99"/>
</a>
</g>
</g>
<!-- Node49 -->
<g id="Node000049" class="node">
<title>Node49</title>
<g id="a_Node000049"><a xlink:href="Felt_2IR_2Types_8h_8inc.html" target="_top" xlink:title=" ">
<polygon fill="white" stroke="#666666" points="1448,-229.25 1343.5,-229.25 1343.5,-195.75 1448,-195.75 1448,-229.25"/>
<text text-anchor="start" x="1351.5" y="-215.75" font-family="Helvetica,sans-Serif" font-size="10.00">llzk/Dialect/Felt/IR</text>
<text text-anchor="middle" x="1395.75" y="-203" font-family="Helvetica,sans-Serif" font-size="10.00">/Types.h.inc</text>
</a>
</g>
</g>
<!-- Node25&#45;&gt;Node49 -->
<g id="edge51_Node000025_Node000049" class="edge">
<title>Node25&#45;&gt;Node49</title>
<g id="a_edge51_Node000025_Node000049"><a xlink:title=" ">
<path fill="none" stroke="#63b8ff" d="M1473.32,-264.83C1460.2,-256.15 1443.82,-245.31 1429.5,-235.84"/>
<polygon fill="#63b8ff" stroke="#63b8ff" points="1431.52,-232.97 1421.24,-230.37 1427.65,-238.81 1431.52,-232.97"/>
</a>
</g>
</g>
<!-- Node26&#45;&gt;Node4 -->
<g id="edge28_Node000026_Node000004" class="edge">
<title>Node26&#45;&gt;Node4</title>
<g id="a_edge28_Node000026_Node000004"><a xlink:title=" ">
<path fill="none" stroke="#63b8ff" d="M1568.31,-195.5C1576.01,-185.69 1585.91,-173.09 1593.98,-162.8"/>
<polygon fill="#63b8ff" stroke="#63b8ff" points="1596.68,-165.04 1600.1,-155.01 1591.17,-160.72 1596.68,-165.04"/>
</a>
</g>
</g>
<!-- Node27 -->
<g id="Node000027" class="node">
<title>Node27</title>
<g id="a_Node000027"><a xlink:href="Felt_2IR_2Dialect_8h_8inc.html" target="_top" xlink:title=" ">
<polygon fill="white" stroke="#666666" points="1787,-159.75 1682.5,-159.75 1682.5,-126.25 1787,-126.25 1787,-159.75"/>
<text text-anchor="start" x="1690.5" y="-146.25" font-family="Helvetica,sans-Serif" font-size="10.00">llzk/Dialect/Felt/IR</text>
<text text-anchor="middle" x="1734.75" y="-133.5" font-family="Helvetica,sans-Serif" font-size="10.00">/Dialect.h.inc</text>
</a>
</g>
</g>
<!-- Node26&#45;&gt;Node27 -->
<g id="edge29_Node000026_Node000027" class="edge">
<title>Node26&#45;&gt;Node27</title>
<g id="a_edge29_Node000026_Node000027"><a xlink:title=" ">
<path fill="none" stroke="#63b8ff" d="M1598.62,-195.33C1623.44,-185.97 1654.89,-174.11 1681.31,-164.15"/>
<polygon fill="#63b8ff" stroke="#63b8ff" points="1682.38,-167.49 1690.5,-160.69 1679.91,-160.94 1682.38,-167.49"/>
</a>
</g>
</g>
<!-- Node28&#45;&gt;Node4 -->
<g id="edge41_Node000028_Node000004" class="edge">
<title>Node28&#45;&gt;Node4</title>
<g id="a_edge41_Node000028_Node000004"><a xlink:title=" ">
<path fill="none" stroke="#63b8ff" d="M964.38,-210.23C1067.3,-206.79 1329.04,-194.99 1544.75,-159.75 1550.39,-158.83 1556.27,-157.67 1562.08,-156.39"/>
<polygon fill="#63b8ff" stroke="#63b8ff" points="1562.65,-159.85 1571.6,-154.18 1561.07,-153.03 1562.65,-159.85"/>
</a>
</g>
</g>
<!-- Node28&#45;&gt;Node6 -->
<g id="edge39_Node000028_Node000006" class="edge">
<title>Node28&#45;&gt;Node6</title>
<g id="a_edge39_Node000028_Node000006"><a xlink:title=" ">
<path fill="none" stroke="#63b8ff" d="M964.31,-206.09C1060.32,-194.43 1287.44,-166.86 1404,-152.71"/>
<polygon fill="#63b8ff" stroke="#63b8ff" points="1404.26,-156.2 1413.77,-151.52 1403.42,-149.26 1404.26,-156.2"/>
</a>
</g>
</g>
<!-- Node29 -->
<g id="Node000029" class="node">
<title>Node29</title>
<g id="a_Node000029"><a xlink:href="DynamicAPIntHelper_8h.html" target="_top" xlink:title="This file implements helper methods for constructing DynamicAPInts.">
<polygon fill="#fff0f0" stroke="red" points="1139.75,-153.38 973.75,-153.38 973.75,-132.62 1139.75,-132.62 1139.75,-153.38"/>
<text text-anchor="middle" x="1056.75" y="-139.88" font-family="Helvetica,sans-Serif" font-size="10.00">llzk/Util/DynamicAPIntHelper.h</text>
</a>
</g>
</g>
<!-- Node28&#45;&gt;Node29 -->
<g id="edge31_Node000028_Node000029" class="edge">
<title>Node28&#45;&gt;Node29</title>
<g id="a_edge31_Node000028_Node000029"><a xlink:title=" ">
<path fill="none" stroke="#63b8ff" d="M939.67,-201.68C962.5,-190.44 1000.16,-171.88 1026.59,-158.86"/>
<polygon fill="#63b8ff" stroke="#63b8ff" points="1028.02,-162.06 1035.45,-154.5 1024.93,-155.78 1028.02,-162.06"/>
</a>
</g>
</g>
<!-- Node35 -->
<g id="Node000035" class="node">
<title>Node35</title>
<g id="a_Node000035"><a xlink:title=" ">
<polygon fill="#e0e0e0" stroke="#999999" points="1127.75,-83.88 985.75,-83.88 985.75,-63.12 1127.75,-63.12 1127.75,-83.88"/>
<text text-anchor="middle" x="1056.75" y="-70.38" font-family="Helvetica,sans-Serif" font-size="10.00">llvm/ADT/DynamicAPInt.h</text>
</a>
</g>
</g>
<!-- Node28&#45;&gt;Node35 -->
<g id="edge44_Node000028_Node000035" class="edge">
<title>Node28&#45;&gt;Node35</title>
<g id="a_edge44_Node000028_Node000035"><a xlink:title=" ">
<path fill="none" stroke="#63b8ff" d="M964.52,-207.88C1024.52,-202 1126.13,-188.05 1148.75,-159.75 1158.05,-148.12 1156.27,-139.1 1148.75,-126.25 1138.51,-108.74 1119.93,-96.7 1102.14,-88.67"/>
<polygon fill="#63b8ff" stroke="#63b8ff" points="1103.51,-85.45 1092.93,-84.87 1100.84,-91.92 1103.51,-85.45"/>
</a>
</g>
</g>
<!-- Node40 -->
<g id="Node000040" class="node">
<title>Node40</title>
<g id="a_Node000040"><a xlink:title=" ">
<polygon fill="#e0e0e0" stroke="#999999" points="1335.62,-153.38 1195.88,-153.38 1195.88,-132.62 1335.62,-132.62 1335.62,-153.38"/>
<text text-anchor="middle" x="1265.75" y="-139.88" font-family="Helvetica,sans-Serif" font-size="10.00">mlir/IR/BuiltinAttributes.h</text>
</a>
</g>
</g>
<!-- Node28&#45;&gt;Node40 -->
<g id="edge40_Node000028_Node000040" class="edge">
<title>Node28&#45;&gt;Node40</title>
<g id="a_edge40_Node000028_Node000040"><a xlink:title=" ">
<path fill="none" stroke="#63b8ff" d="M964.28,-202.81C1025.31,-190.91 1135.21,-169.47 1204.11,-156.02"/>
<polygon fill="#63b8ff" stroke="#63b8ff" points="1204.6,-159.5 1213.74,-154.15 1203.26,-152.63 1204.6,-159.5"/>
</a>
</g>
</g>
<!-- Node41 -->
<g id="Node000041" class="node">
<title>Node41</title>
<g id="a_Node000041"><a xlink:title=" ">
<polygon fill="#e0e0e0" stroke="#999999" points="113.5,-153.38 0,-153.38 0,-132.62 113.5,-132.62 113.5,-153.38"/>
<text text-anchor="middle" x="56.75" y="-139.88" font-family="Helvetica,sans-Serif" font-size="10.00">mlir/Support/LLVM.h</text>
</a>
</g>
</g>
<!-- Node28&#45;&gt;Node41 -->
<g id="edge42_Node000028_Node000041" class="edge">
<title>Node28&#45;&gt;Node41</title>
<g id="a_edge42_Node000028_Node000041"><a xlink:title=" ">
<path fill="none" stroke="#63b8ff" d="M890.61,-201.64C882.64,-199.32 873.94,-197.12 865.75,-195.75 539.69,-141.09 450.06,-206.32 122.75,-159.75 116.4,-158.85 109.76,-157.61 103.25,-156.24"/>
<polygon fill="#63b8ff" stroke="#63b8ff" points="104.49,-152.93 93.96,-154.14 102.95,-159.75 104.49,-152.93"/>
</a>
</g>
</g>
<!-- Node42 -->
<g id="Node000042" class="node">
<title>Node42</title>
<g id="a_Node000042"><a xlink:title=" ">
<polygon fill="#e0e0e0" stroke="#999999" points="256.12,-153.38 131.38,-153.38 131.38,-132.62 256.12,-132.62 256.12,-153.38"/>
<text text-anchor="middle" x="193.75" y="-139.88" font-family="Helvetica,sans-Serif" font-size="10.00">llvm/ADT/DenseMap.h</text>
</a>
</g>
</g>
<!-- Node28&#45;&gt;Node42 -->
<g id="edge43_Node000028_Node000042" class="edge">
<title>Node28&#45;&gt;Node42</title>
<g id="a_edge43_Node000028_Node000042"><a xlink:title=" ">
<path fill="none" stroke="#63b8ff" d="M890.6,-201.71C882.63,-199.38 873.93,-197.17 865.75,-195.75 602.54,-150.06 530.37,-196.4 265.75,-159.75 258.93,-158.81 251.79,-157.56 244.78,-156.19"/>
<polygon fill="#63b8ff" stroke="#63b8ff" points="245.52,-152.77 235.02,-154.17 244.1,-159.62 245.52,-152.77"/>
</a>
</g>
</g>
<!-- Node43 -->
<g id="Node000043" class="node">
<title>Node43</title>
<g id="a_Node000043"><a xlink:title=" ">
<polygon fill="#e0e0e0" stroke="#999999" points="391,-153.38 274.5,-153.38 274.5,-132.62 391,-132.62 391,-153.38"/>
<text text-anchor="middle" x="332.75" y="-139.88" font-family="Helvetica,sans-Serif" font-size="10.00">llvm/ADT/SmallSet.h</text>
</a>
</g>
</g>
<!-- Node28&#45;&gt;Node43 -->
<g id="edge45_Node000028_Node000043" class="edge">
<title>Node28&#45;&gt;Node43</title>
<g id="a_edge45_Node000028_Node000043"><a xlink:title=" ">
<path fill="none" stroke="#63b8ff" d="M890.02,-201.64C882.2,-199.37 873.72,-197.2 865.75,-195.75 661.39,-158.47 605.02,-191.61 399.75,-159.75 393.7,-158.81 387.38,-157.62 381.16,-156.31"/>
<polygon fill="#63b8ff" stroke="#63b8ff" points="382.11,-152.93 371.59,-154.18 380.59,-159.77 382.11,-152.93"/>
</a>
</g>
</g>
<!-- Node44 -->
<g id="Node000044" class="node">
<title>Node44</title>
<g id="a_Node000044"><a xlink:title=" ">
<polygon fill="#e0e0e0" stroke="#999999" points="564.5,-153.38 409,-153.38 409,-132.62 564.5,-132.62 564.5,-153.38"/>
<text text-anchor="middle" x="486.75" y="-139.88" font-family="Helvetica,sans-Serif" font-size="10.00">llvm/Support/LogicalResult.h</text>
</a>
</g>
</g>
<!-- Node28&#45;&gt;Node44 -->
<g id="edge46_Node000028_Node000044" class="edge">
<title>Node28&#45;&gt;Node44</title>
<g id="a_edge46_Node000028_Node000044"><a xlink:title=" ">
<path fill="none" stroke="#63b8ff" d="M889.12,-201.64C881.54,-199.46 873.4,-197.33 865.75,-195.75 737.68,-169.36 703.02,-179.4 573.75,-159.75 565.82,-158.54 557.5,-157.17 549.29,-155.76"/>
<polygon fill="#63b8ff" stroke="#63b8ff" points="550.14,-152.35 539.68,-154.07 548.93,-159.25 550.14,-152.35"/>
</a>
</g>
</g>
<!-- Node45 -->
<g id="Node000045" class="node">
<title>Node45</title>
<g id="a_Node000045"><a xlink:title=" ">
<polygon fill="#e0e0e0" stroke="#999999" points="708.88,-153.38 582.62,-153.38 582.62,-132.62 708.88,-132.62 708.88,-153.38"/>
<text text-anchor="middle" x="645.75" y="-139.88" font-family="Helvetica,sans-Serif" font-size="10.00">llvm/Support/SMTAPI.h</text>
</a>
</g>
</g>
<!-- Node28&#45;&gt;Node45 -->
<g id="edge47_Node000028_Node000045" class="edge">
<title>Node28&#45;&gt;Node45</title>
<g id="a_edge47_Node000028_Node000045"><a xlink:title=" ">
<path fill="none" stroke="#63b8ff" d="M886.99,-201.64C880,-199.63 872.64,-197.56 865.75,-195.75 810.25,-181.14 746.35,-166.33 701.77,-156.32"/>
<polygon fill="#63b8ff" stroke="#63b8ff" points="702.59,-152.92 692.06,-154.15 701.06,-159.75 702.59,-152.92"/>
</a>
</g>
</g>
<!-- Node46 -->
<g id="Node000046" class="node">
<title>Node46</title>
<g id="a_Node000046"><a xlink:title=" ">
<polygon fill="#e0e0e0" stroke="#999999" points="792.12,-153.38 727.38,-153.38 727.38,-132.62 792.12,-132.62 792.12,-153.38"/>
<text text-anchor="middle" x="759.75" y="-139.88" font-family="Helvetica,sans-Serif" font-size="10.00">functional</text>
</a>
</g>
</g>
<!-- Node28&#45;&gt;Node46 -->
<g id="edge48_Node000028_Node000046" class="edge">
<title>Node28&#45;&gt;Node46</title>
<g id="a_edge48_Node000028_Node000046"><a xlink:title=" ">
<path fill="none" stroke="#63b8ff" d="M896.48,-201.68C869.35,-190.24 824.27,-171.22 793.34,-158.17"/>
<polygon fill="#63b8ff" stroke="#63b8ff" points="795.01,-155.08 784.44,-154.42 792.29,-161.53 795.01,-155.08"/>
</a>
</g>
</g>
<!-- Node47 -->
<g id="Node000047" class="node">
<title>Node47</title>
<g id="a_Node000047"><a xlink:title=" ">
<polygon fill="#e0e0e0" stroke="#999999" points="865.62,-153.38 809.88,-153.38 809.88,-132.62 865.62,-132.62 865.62,-153.38"/>
<text text-anchor="middle" x="837.75" y="-139.88" font-family="Helvetica,sans-Serif" font-size="10.00">optional</text>
</a>
</g>
</g>
<!-- Node28&#45;&gt;Node47 -->
<g id="edge49_Node000028_Node000047" class="edge">
<title>Node28&#45;&gt;Node47</title>
<g id="a_edge49_Node000028_Node000047"><a xlink:title=" ">
<path fill="none" stroke="#63b8ff" d="M908,-201.83C895.04,-191.16 873.96,-173.8 858.26,-160.88"/>
<polygon fill="#63b8ff" stroke="#63b8ff" points="860.86,-158.49 850.91,-154.83 856.41,-163.89 860.86,-158.49"/>
</a>
</g>
</g>
<!-- Node48 -->
<g id="Node000048" class="node">
<title>Node48</title>
<g id="a_Node000048"><a xlink:title=" ">
<polygon fill="#e0e0e0" stroke="#999999" points="955.88,-153.38 883.62,-153.38 883.62,-132.62 955.88,-132.62 955.88,-153.38"/>
<text text-anchor="middle" x="919.75" y="-139.88" font-family="Helvetica,sans-Serif" font-size="10.00">string_view</text>
</a>
</g>
</g>
<!-- Node28&#45;&gt;Node48 -->
<g id="edge50_Node000028_Node000048" class="edge">
<title>Node28&#45;&gt;Node48</title>
<g id="a_edge50_Node000028_Node000048"><a xlink:title=" ">
<path fill="none" stroke="#63b8ff" d="M919.75,-201.83C919.75,-192.21 919.75,-177.13 919.75,-164.79"/>
<polygon fill="#63b8ff" stroke="#63b8ff" points="923.25,-165.17 919.75,-155.17 916.25,-165.17 923.25,-165.17"/>
</a>
</g>
</g>
<!-- Node29&#45;&gt;Node18 -->
<g id="edge38_Node000029_Node000018" class="edge">
<title>Node29&#45;&gt;Node18</title>
<g id="a_edge38_Node000029_Node000018"><a xlink:title=" ">
<path fill="none" stroke="#63b8ff" d="M1078.27,-132.18C1103.15,-120.84 1144.34,-102.05 1172.93,-89.01"/>
<polygon fill="#63b8ff" stroke="#63b8ff" points="1174.18,-92.29 1181.83,-84.95 1171.28,-85.92 1174.18,-92.29"/>
</a>
</g>
</g>
<!-- Node30 -->
<g id="Node000030" class="node">
<title>Node30</title>
<g id="a_Node000030"><a xlink:href="Compare_8h.html" target="_top" xlink:title=" ">
<polygon fill="#fff0f0" stroke="red" points="728.62,-83.88 618.88,-83.88 618.88,-63.12 728.62,-63.12 728.62,-83.88"/>
<text text-anchor="middle" x="673.75" y="-70.38" font-family="Helvetica,sans-Serif" font-size="10.00">llzk/Util/Compare.h</text>
</a>
</g>
</g>
<!-- Node29&#45;&gt;Node30 -->
<g id="edge32_Node000029_Node000030" class="edge">
<title>Node29&#45;&gt;Node30</title>
<g id="a_edge32_Node000029_Node000030"><a xlink:title=" ">
<path fill="none" stroke="#63b8ff" d="M999.84,-132.14C988.23,-130.17 976.1,-128.12 964.75,-126.25 863.96,-109.63 837.88,-110.47 737.75,-90.25 732.82,-89.25 727.7,-88.14 722.6,-86.97"/>
<polygon fill="#63b8ff" stroke="#63b8ff" points="723.54,-83.6 713.01,-84.7 721.94,-90.41 723.54,-83.6"/>
</a>
</g>
</g>
<!-- Node33 -->
<g id="Node000033" class="node">
<title>Node33</title>
<g id="a_Node000033"><a xlink:title=" ">
<polygon fill="#e0e0e0" stroke="#999999" points="845,-83.88 746.5,-83.88 746.5,-63.12 845,-63.12 845,-83.88"/>
<text text-anchor="middle" x="795.75" y="-70.38" font-family="Helvetica,sans-Serif" font-size="10.00">llvm/ADT/APInt.h</text>
</a>
</g>
</g>
<!-- Node29&#45;&gt;Node33 -->
<g id="edge34_Node000029_Node000033" class="edge">
<title>Node29&#45;&gt;Node33</title>
<g id="a_edge34_Node000029_Node000033"><a xlink:title=" ">
<path fill="none" stroke="#63b8ff" d="M1018,-132.19C977.31,-121.87 911.49,-105.09 854.75,-90.25 851,-89.27 847.11,-88.24 843.2,-87.21"/>
<polygon fill="#63b8ff" stroke="#63b8ff" points="844.27,-83.87 833.71,-84.69 842.47,-90.64 844.27,-83.87"/>
</a>
</g>
</g>
<!-- Node34 -->
<g id="Node000034" class="node">
<title>Node34</title>
<g id="a_Node000034"><a xlink:title=" ">
<polygon fill="#e0e0e0" stroke="#999999" points="968,-83.88 863.5,-83.88 863.5,-63.12 968,-63.12 968,-83.88"/>
<text text-anchor="middle" x="915.75" y="-70.38" font-family="Helvetica,sans-Serif" font-size="10.00">llvm/ADT/APSInt.h</text>
</a>
</g>
</g>
<!-- Node29&#45;&gt;Node34 -->
<g id="edge35_Node000029_Node000034" class="edge">
<title>Node29&#45;&gt;Node34</title>
<g id="a_edge35_Node000029_Node000034"><a xlink:title=" ">
<path fill="none" stroke="#63b8ff" d="M1036.25,-132.18C1012.65,-120.89 973.65,-102.22 946.43,-89.19"/>
<polygon fill="#63b8ff" stroke="#63b8ff" points="948.17,-86.14 937.64,-84.98 945.15,-92.46 948.17,-86.14"/>
</a>
</g>
</g>
<!-- Node29&#45;&gt;Node35 -->
<g id="edge36_Node000029_Node000035" class="edge">
<title>Node29&#45;&gt;Node35</title>
<g id="a_edge36_Node000029_Node000035"><a xlink:title=" ">
<path fill="none" stroke="#63b8ff" d="M1056.75,-132.33C1056.75,-122.71 1056.75,-107.63 1056.75,-95.29"/>
<polygon fill="#63b8ff" stroke="#63b8ff" points="1060.25,-95.67 1056.75,-85.67 1053.25,-95.67 1060.25,-95.67"/>
</a>
</g>
</g>
<!-- Node36 -->
<g id="Node000036" class="node">
<title>Node36</title>
<g id="a_Node000036"><a xlink:title=" ">
<polygon fill="#e0e0e0" stroke="#999999" points="600.38,-83.88 435.12,-83.88 435.12,-63.12 600.38,-63.12 600.38,-83.88"/>
<text text-anchor="middle" x="517.75" y="-70.38" font-family="Helvetica,sans-Serif" font-size="10.00">llvm/ADT/SlowDynamicAPInt.h</text>
</a>
</g>
</g>
<!-- Node29&#45;&gt;Node36 -->
<g id="edge37_Node000029_Node000036" class="edge">
<title>Node29&#45;&gt;Node36</title>
<g id="a_edge37_Node000029_Node000036"><a xlink:title=" ">
<path fill="none" stroke="#63b8ff" d="M1002.85,-132.14C990.36,-130.03 977.11,-127.93 964.75,-126.25 807.61,-104.86 766.89,-111.64 609.75,-90.25 601.06,-89.07 591.93,-87.68 582.93,-86.23"/>
<polygon fill="#63b8ff" stroke="#63b8ff" points="583.58,-82.79 573.15,-84.61 582.44,-89.69 583.58,-82.79"/>
</a>
</g>
</g>
<!-- Node30&#45;&gt;Node8 -->
<g id="edge33_Node000030_Node000008" class="edge">
<title>Node30&#45;&gt;Node8</title>
<g id="a_edge33_Node000030_Node000008"><a xlink:title=" ">
<path fill="none" stroke="#63b8ff" d="M708.38,-62.64C717.83,-60.31 728.12,-58.12 737.75,-56.75 940.29,-27.97 1571.3,-15.66 1777.11,-12.35"/>
<polygon fill="#63b8ff" stroke="#63b8ff" points="1776.87,-15.85 1786.81,-12.19 1776.75,-8.85 1776.87,-15.85"/>
</a>
</g>
</g>
<!-- Node50&#45;&gt;Node8 -->
<g id="edge54_Node000050_Node000008" class="edge">
<title>Node50&#45;&gt;Node8</title>
<g id="a_edge54_Node000050_Node000008"><a xlink:title=" ">
<path fill="none" stroke="#63b8ff" d="M2227.44,-267.17C2230.58,-266.5 2233.7,-265.86 2236.75,-265.25 2285.55,-255.55 2425.52,-267.16 2457.75,-229.25 2507.41,-170.84 2509.93,-112.92 2457.75,-56.75 2420.98,-17.16 2059.79,-11.79 1908.69,-11.29"/>
<polygon fill="#63b8ff" stroke="#63b8ff" points="1908.84,-7.79 1898.83,-11.27 1908.82,-14.79 1908.84,-7.79"/>
</a>
</g>
</g>
<!-- Node51 -->
<g id="Node000051" class="node">
<title>Node51</title>
<g id="a_Node000051"><a xlink:title=" ">
<polygon fill="#e0e0e0" stroke="#999999" points="2277.25,-222.88 2156.25,-222.88 2156.25,-202.12 2277.25,-202.12 2277.25,-222.88"/>
<text text-anchor="middle" x="2216.75" y="-209.38" font-family="Helvetica,sans-Serif" font-size="10.00">mlir/IR/OpDefinition.h</text>
</a>
</g>
</g>
<!-- Node50&#45;&gt;Node51 -->
<g id="edge53_Node000050_Node000051" class="edge">
<title>Node50&#45;&gt;Node51</title>
<g id="a_edge53_Node000050_Node000051"><a xlink:title=" ">
<path fill="none" stroke="#63b8ff" d="M2180.89,-265C2187.65,-255.3 2196.31,-242.85 2203.43,-232.62"/>
<polygon fill="#63b8ff" stroke="#63b8ff" points="2206.2,-234.77 2209.05,-224.56 2200.46,-230.77 2206.2,-234.77"/>
</a>
</g>
</g>
<!-- Node52 -->
<g id="Node000052" class="node">
<title>Node52</title>
<g id="a_Node000052"><a xlink:title=" ">
<polygon fill="#e0e0e0" stroke="#999999" points="2448.38,-222.88 2295.12,-222.88 2295.12,-202.12 2448.38,-202.12 2448.38,-222.88"/>
<text text-anchor="middle" x="2371.75" y="-209.38" font-family="Helvetica,sans-Serif" font-size="10.00">mlir/Support/LogicalResult.h</text>
</a>
</g>
</g>
<!-- Node50&#45;&gt;Node52 -->
<g id="edge55_Node000050_Node000052" class="edge">
<title>Node50&#45;&gt;Node52</title>
<g id="a_edge55_Node000050_Node000052"><a xlink:title=" ">
<path fill="none" stroke="#63b8ff" d="M2218.13,-264.83C2252.84,-253.23 2299.06,-237.79 2331.7,-226.88"/>
<polygon fill="#63b8ff" stroke="#63b8ff" points="2332.4,-230.34 2340.78,-223.85 2330.19,-223.7 2332.4,-230.34"/>
</a>
</g>
</g>
</g>
</svg>
