<?xml version="1.0" encoding="UTF-8" standalone="no"?>
<!DOCTYPE svg PUBLIC "-//W3C//DTD SVG 1.1//EN"
 "http://www.w3.org/Graphics/SVG/1.1/DTD/svg11.dtd">
<!-- Generated by graphviz version 12.2.1 (0)
 -->
<!-- Title: lib/Dialect/Bool/IR/Dialect.cpp Pages: 1 -->
<svg width="2147pt" height="389pt"
 viewBox="0.00 0.00 2147.25 389.00" xmlns="http://www.w3.org/2000/svg" xmlns:xlink="http://www.w3.org/1999/xlink">
<g id="graph0" class="graph" transform="scale(1 1) rotate(0) translate(4 385)">
<title>lib/Dialect/Bool/IR/Dialect.cpp</title>
<!-- Node1 -->
<g id="Node000001" class="node">
<title>Node1</title>
<g id="a_Node000001"><a xlink:title=" ">
<polygon fill="#999999" stroke="#666666" points="1283.12,-381 1180.12,-381 1180.12,-347.5 1283.12,-347.5 1283.12,-381"/>
<text text-anchor="start" x="1188.12" y="-367.5" font-family="Helvetica,sans-Serif" font-size="10.00">lib/Dialect/Bool/IR</text>
<text text-anchor="middle" x="1231.62" y="-354.75" font-family="Helvetica,sans-Serif" font-size="10.00">/Dialect.cpp</text>
</a>
</g>
</g>
<!-- Node2 -->
<g id="Node000002" class="node">
<title>Node2</title>
<g id="a_Node000002"><a xlink:href="Bool_2IR_2Dialect_8h.html" target="_top" xlink:title=" ">
<polygon fill="white" stroke="#666666" points="654.75,-242 546.5,-242 546.5,-208.5 654.75,-208.5 654.75,-242"/>
<text text-anchor="start" x="554.5" y="-228.5" font-family="Helvetica,sans-Serif" font-size="10.00">llzk/Dialect/Bool/IR</text>
<text text-anchor="middle" x="600.62" y="-215.75" font-family="Helvetica,sans-Serif" font-size="10.00">/Dialect.h</text>
</a>
</g>
</g>
<!-- Node1&#45;&gt;Node2 -->
<g id="edge1_Node000001_Node000002" class="edge">
<title>Node1&#45;&gt;Node2</title>
<g id="a_edge1_Node000001_Node000002"><a xlink:title=" ">
<path fill="none" stroke="#63b8ff" d="M1179.93,-359.92C1104.34,-354.27 959.57,-340.46 839.62,-311.5 771.69,-295.1 696.17,-266.28 648.56,-246.74"/>
<polygon fill="#63b8ff" stroke="#63b8ff" points="649.93,-243.52 639.35,-242.93 647.25,-249.99 649.93,-243.52"/>
</a>
</g>
</g>
<!-- Node5 -->
<g id="Node000005" class="node">
<title>Node5</title>
<g id="a_Node000005"><a xlink:href="Bool_2IR_2Ops_8h.html" target="_top" xlink:title=" ">
<polygon fill="white" stroke="#666666" points="998.75,-311.5 890.5,-311.5 890.5,-278 998.75,-278 998.75,-311.5"/>
<text text-anchor="start" x="898.5" y="-298" font-family="Helvetica,sans-Serif" font-size="10.00">llzk/Dialect/Bool/IR</text>
<text text-anchor="middle" x="944.62" y="-285.25" font-family="Helvetica,sans-Serif" font-size="10.00">/Ops.h</text>
</a>
</g>
</g>
<!-- Node1&#45;&gt;Node5 -->
<g id="edge4_Node000001_Node000005" class="edge">
<title>Node1&#45;&gt;Node5</title>
<g id="a_edge4_Node000001_Node000005"><a xlink:title=" ">
<path fill="none" stroke="#63b8ff" d="M1179.96,-351.59C1137.01,-341.83 1073.97,-327.37 1010.3,-312.12"/>
<polygon fill="#63b8ff" stroke="#63b8ff" points="1011.26,-308.75 1000.72,-309.82 1009.62,-315.56 1011.26,-308.75"/>
</a>
</g>
</g>
<!-- Node15 -->
<g id="Node000015" class="node">
<title>Node15</title>
<g id="a_Node000015"><a xlink:href="Felt_2IR_2Types_8h.html" target="_top" xlink:title=" ">
<polygon fill="white" stroke="#666666" points="858.88,-242 754.38,-242 754.38,-208.5 858.88,-208.5 858.88,-242"/>
<text text-anchor="start" x="762.38" y="-228.5" font-family="Helvetica,sans-Serif" font-size="10.00">llzk/Dialect/Felt/IR</text>
<text text-anchor="middle" x="806.62" y="-215.75" font-family="Helvetica,sans-Serif" font-size="10.00">/Types.h</text>
</a>
</g>
</g>
<!-- Node1&#45;&gt;Node15 -->
<g id="edge48_Node000001_Node000015" class="edge">
<title>Node1&#45;&gt;Node15</title>
<g id="a_edge48_Node000001_Node000015"><a xlink:title=" ">
<path fill="none" stroke="#63b8ff" d="M1179.71,-359.95C1095.14,-353.86 932.01,-338.9 881.62,-311.5 856.11,-297.63 835.13,-271.49 821.9,-251.8"/>
<polygon fill="#63b8ff" stroke="#63b8ff" points="824.89,-249.97 816.54,-243.46 819.01,-253.76 824.89,-249.97"/>
</a>
</g>
</g>
<!-- Node42 -->
<g id="Node000042" class="node">
<title>Node42</title>
<g id="a_Node000042"><a xlink:href="Versioning_8h.html" target="_top" xlink:title=" ">
<polygon fill="white" stroke="#666666" points="1126.88,-311.5 1016.38,-311.5 1016.38,-278 1126.88,-278 1126.88,-311.5"/>
<text text-anchor="start" x="1024.38" y="-298" font-family="Helvetica,sans-Serif" font-size="10.00">llzk/Dialect/LLZK/IR</text>
<text text-anchor="middle" x="1071.62" y="-285.25" font-family="Helvetica,sans-Serif" font-size="10.00">/Versioning.h</text>
</a>
</g>
</g>
<!-- Node1&#45;&gt;Node42 -->
<g id="edge49_Node000001_Node000042" class="edge">
<title>Node1&#45;&gt;Node42</title>
<g id="a_edge49_Node000001_Node000042"><a xlink:title=" ">
<path fill="none" stroke="#63b8ff" d="M1193.3,-347.08C1171.41,-337.85 1143.75,-326.18 1120.34,-316.3"/>
<polygon fill="#63b8ff" stroke="#63b8ff" points="1121.88,-313.15 1111.31,-312.49 1119.16,-319.6 1121.88,-313.15"/>
</a>
</g>
</g>
<!-- Node44 -->
<g id="Node000044" class="node">
<title>Node44</title>
<g id="a_Node000044"><a xlink:title=" ">
<polygon fill="#e0e0e0" stroke="#999999" points="1318,-305.12 1145.25,-305.12 1145.25,-284.38 1318,-284.38 1318,-305.12"/>
<text text-anchor="middle" x="1231.62" y="-291.62" font-family="Helvetica,sans-Serif" font-size="10.00">mlir/IR/DialectImplementation.h</text>
</a>
</g>
</g>
<!-- Node1&#45;&gt;Node44 -->
<g id="edge51_Node000001_Node000044" class="edge">
<title>Node1&#45;&gt;Node44</title>
<g id="a_edge51_Node000001_Node000044"><a xlink:title=" ">
<path fill="none" stroke="#63b8ff" d="M1231.62,-347.25C1231.62,-338.15 1231.62,-326.64 1231.62,-316.82"/>
<polygon fill="#63b8ff" stroke="#63b8ff" points="1235.13,-317.09 1231.63,-307.09 1228.13,-317.09 1235.13,-317.09"/>
</a>
</g>
</g>
<!-- Node45 -->
<g id="Node000045" class="node">
<title>Node45</title>
<g id="a_Node000045"><a xlink:title=" ">
<polygon fill="#e0e0e0" stroke="#999999" points="1463.5,-305.12 1335.75,-305.12 1335.75,-284.38 1463.5,-284.38 1463.5,-305.12"/>
<text text-anchor="middle" x="1399.62" y="-291.62" font-family="Helvetica,sans-Serif" font-size="10.00">llvm/ADT/TypeSwitch.h</text>
</a>
</g>
</g>
<!-- Node1&#45;&gt;Node45 -->
<g id="edge52_Node000001_Node000045" class="edge">
<title>Node1&#45;&gt;Node45</title>
<g id="a_edge52_Node000001_Node000045"><a xlink:title=" ">
<path fill="none" stroke="#63b8ff" d="M1271.87,-347.08C1300.19,-335.7 1337.73,-320.62 1364.77,-309.75"/>
<polygon fill="#63b8ff" stroke="#63b8ff" points="1365.93,-313.06 1373.9,-306.09 1363.32,-306.57 1365.93,-313.06"/>
</a>
</g>
</g>
<!-- Node46 -->
<g id="Node000046" class="node">
<title>Node46</title>
<g id="a_Node000046"><a xlink:href="Bool_2IR_2Dialect_8cpp_8inc.html" target="_top" xlink:title=" ">
<polygon fill="white" stroke="#666666" points="1589.75,-311.5 1481.5,-311.5 1481.5,-278 1589.75,-278 1589.75,-311.5"/>
<text text-anchor="start" x="1489.5" y="-298" font-family="Helvetica,sans-Serif" font-size="10.00">llzk/Dialect/Bool/IR</text>
<text text-anchor="middle" x="1535.62" y="-285.25" font-family="Helvetica,sans-Serif" font-size="10.00">/Dialect.cpp.inc</text>
</a>
</g>
</g>
<!-- Node1&#45;&gt;Node46 -->
<g id="edge53_Node000001_Node000046" class="edge">
<title>Node1&#45;&gt;Node46</title>
<g id="a_edge53_Node000001_Node000046"><a xlink:title=" ">
<path fill="none" stroke="#63b8ff" d="M1283.45,-352.64C1329.85,-343.03 1400.02,-328.21 1469.82,-312.11"/>
<polygon fill="#63b8ff" stroke="#63b8ff" points="1470.59,-315.53 1479.54,-309.86 1469.01,-308.71 1470.59,-315.53"/>
</a>
</g>
</g>
<!-- Node47 -->
<g id="Node000047" class="node">
<title>Node47</title>
<g id="a_Node000047"><a xlink:href="Bool_2IR_2Attrs_8cpp_8inc.html" target="_top" xlink:title=" ">
<polygon fill="white" stroke="#666666" points="1715.75,-311.5 1607.5,-311.5 1607.5,-278 1715.75,-278 1715.75,-311.5"/>
<text text-anchor="start" x="1615.5" y="-298" font-family="Helvetica,sans-Serif" font-size="10.00">llzk/Dialect/Bool/IR</text>
<text text-anchor="middle" x="1661.62" y="-285.25" font-family="Helvetica,sans-Serif" font-size="10.00">/Attrs.cpp.inc</text>
</a>
</g>
</g>
<!-- Node1&#45;&gt;Node47 -->
<g id="edge54_Node000001_Node000047" class="edge">
<title>Node1&#45;&gt;Node47</title>
<g id="a_edge54_Node000001_Node000047"><a xlink:title=" ">
<path fill="none" stroke="#63b8ff" d="M1283.57,-357.66C1352.71,-349.85 1478.95,-334.25 1595.79,-311.94"/>
<polygon fill="#63b8ff" stroke="#63b8ff" points="1596.43,-315.38 1605.58,-310.05 1595.1,-308.51 1596.43,-315.38"/>
</a>
</g>
</g>
<!-- Node48 -->
<g id="Node000048" class="node">
<title>Node48</title>
<g id="a_Node000048"><a xlink:href="Bool_2IR_2Ops_8cpp_8inc.html" target="_top" xlink:title=" ">
<polygon fill="white" stroke="#666666" points="1841.75,-311.5 1733.5,-311.5 1733.5,-278 1841.75,-278 1841.75,-311.5"/>
<text text-anchor="start" x="1741.5" y="-298" font-family="Helvetica,sans-Serif" font-size="10.00">llzk/Dialect/Bool/IR</text>
<text text-anchor="middle" x="1787.62" y="-285.25" font-family="Helvetica,sans-Serif" font-size="10.00">/Ops.cpp.inc</text>
</a>
</g>
</g>
<!-- Node1&#45;&gt;Node48 -->
<g id="edge55_Node000001_Node000048" class="edge">
<title>Node1&#45;&gt;Node48</title>
<g id="a_edge55_Node000001_Node000048"><a xlink:title=" ">
<path fill="none" stroke="#63b8ff" d="M1283.41,-360.21C1371.66,-354.52 1556.9,-340.3 1722.23,-311.78"/>
<polygon fill="#63b8ff" stroke="#63b8ff" points="1722.35,-315.31 1731.6,-310.14 1721.15,-308.42 1722.35,-315.31"/>
</a>
</g>
</g>
<!-- Node3 -->
<g id="Node000003" class="node">
<title>Node3</title>
<g id="a_Node000003"><a xlink:title=" ">
<polygon fill="#e0e0e0" stroke="#999999" points="361.88,-96.62 251.38,-96.62 251.38,-75.88 361.88,-75.88 361.88,-96.62"/>
<text text-anchor="middle" x="306.62" y="-83.12" font-family="Helvetica,sans-Serif" font-size="10.00">mlir/IR/BuiltinOps.h</text>
</a>
</g>
</g>
<!-- Node2&#45;&gt;Node3 -->
<g id="edge2_Node000002_Node000003" class="edge">
<title>Node2&#45;&gt;Node3</title>
<g id="a_edge2_Node000002_Node000003"><a xlink:title=" ">
<path fill="none" stroke="#63b8ff" d="M553.21,-208.01C530.14,-199.12 502.52,-186.96 479.62,-172.5 460.59,-160.48 460.89,-150.66 441.62,-139 413.98,-122.26 379.99,-109.27 353.03,-100.49"/>
<polygon fill="#63b8ff" stroke="#63b8ff" points="354.36,-97.24 343.77,-97.56 352.25,-103.91 354.36,-97.24"/>
</a>
</g>
</g>
<!-- Node4 -->
<g id="Node000004" class="node">
<title>Node4</title>
<g id="a_Node000004"><a xlink:href="Bool_2IR_2Dialect_8h_8inc.html" target="_top" xlink:title=" ">
<polygon fill="white" stroke="#666666" points="432.75,-172.5 324.5,-172.5 324.5,-139 432.75,-139 432.75,-172.5"/>
<text text-anchor="start" x="332.5" y="-159" font-family="Helvetica,sans-Serif" font-size="10.00">llzk/Dialect/Bool/IR</text>
<text text-anchor="middle" x="378.62" y="-146.25" font-family="Helvetica,sans-Serif" font-size="10.00">/Dialect.h.inc</text>
</a>
</g>
</g>
<!-- Node2&#45;&gt;Node4 -->
<g id="edge3_Node000002_Node000004" class="edge">
<title>Node2&#45;&gt;Node4</title>
<g id="a_edge3_Node000002_Node000004"><a xlink:title=" ">
<path fill="none" stroke="#63b8ff" d="M547.45,-208.08C515.99,-198.52 475.93,-186.33 442.72,-176.24"/>
<polygon fill="#63b8ff" stroke="#63b8ff" points="443.78,-172.9 433.2,-173.34 441.75,-179.6 443.78,-172.9"/>
</a>
</g>
</g>
<!-- Node5&#45;&gt;Node2 -->
<g id="edge14_Node000005_Node000002" class="edge">
<title>Node5&#45;&gt;Node2</title>
<g id="a_edge14_Node000005_Node000002"><a xlink:title=" ">
<path fill="none" stroke="#63b8ff" d="M890.12,-283.05C829.32,-271.12 730.99,-251.83 666.08,-239.09"/>
<polygon fill="#63b8ff" stroke="#63b8ff" points="667.13,-235.73 656.65,-237.24 665.79,-242.6 667.13,-235.73"/>
</a>
</g>
</g>
<!-- Node6 -->
<g id="Node000006" class="node">
<title>Node6</title>
<g id="a_Node000006"><a xlink:href="Bool_2IR_2Attrs_8h.html" target="_top" xlink:title=" ">
<polygon fill="white" stroke="#666666" points="1727.75,-172.5 1619.5,-172.5 1619.5,-139 1727.75,-139 1727.75,-172.5"/>
<text text-anchor="start" x="1627.5" y="-159" font-family="Helvetica,sans-Serif" font-size="10.00">llzk/Dialect/Bool/IR</text>
<text text-anchor="middle" x="1673.62" y="-146.25" font-family="Helvetica,sans-Serif" font-size="10.00">/Attrs.h</text>
</a>
</g>
</g>
<!-- Node5&#45;&gt;Node6 -->
<g id="edge5_Node000005_Node000006" class="edge">
<title>Node5&#45;&gt;Node6</title>
<g id="a_edge5_Node000005_Node000006"><a xlink:title=" ">
<path fill="none" stroke="#63b8ff" d="M999.21,-279.87C1002.05,-279.22 1004.87,-278.59 1007.62,-278 1226.31,-230.81 1488.02,-186.76 1607.85,-167.27"/>
<polygon fill="#63b8ff" stroke="#63b8ff" points="1608.2,-170.76 1617.51,-165.7 1607.08,-163.85 1608.2,-170.76"/>
</a>
</g>
</g>
<!-- Node5&#45;&gt;Node15 -->
<g id="edge15_Node000005_Node000015" class="edge">
<title>Node5&#45;&gt;Node15</title>
<g id="a_edge15_Node000005_Node000015"><a xlink:title=" ">
<path fill="none" stroke="#63b8ff" d="M911.57,-277.58C892.97,-268.48 869.52,-257.02 849.52,-247.23"/>
<polygon fill="#63b8ff" stroke="#63b8ff" points="851.29,-244.2 840.77,-242.95 848.21,-250.49 851.29,-244.2"/>
</a>
</g>
</g>
<!-- Node37 -->
<g id="Node000037" class="node">
<title>Node37</title>
<g id="a_Node000037"><a xlink:href="OpTraits_8h.html" target="_top" xlink:title=" ">
<polygon fill="white" stroke="#666666" points="1876.12,-242 1761.12,-242 1761.12,-208.5 1876.12,-208.5 1876.12,-242"/>
<text text-anchor="start" x="1769.12" y="-228.5" font-family="Helvetica,sans-Serif" font-size="10.00">llzk/Dialect/Function</text>
<text text-anchor="middle" x="1818.62" y="-215.75" font-family="Helvetica,sans-Serif" font-size="10.00">/IR/OpTraits.h</text>
</a>
</g>
</g>
<!-- Node5&#45;&gt;Node37 -->
<g id="edge42_Node000005_Node000037" class="edge">
<title>Node5&#45;&gt;Node37</title>
<g id="a_edge42_Node000005_Node000037"><a xlink:title=" ">
<path fill="none" stroke="#63b8ff" d="M999.14,-279.48C1002,-278.93 1004.84,-278.43 1007.62,-278 1149.79,-255.88 1580.21,-236.16 1749.33,-229.05"/>
<polygon fill="#63b8ff" stroke="#63b8ff" points="1749.45,-232.55 1759.3,-228.64 1749.16,-225.56 1749.45,-232.55"/>
</a>
</g>
</g>
<!-- Node40 -->
<g id="Node000040" class="node">
<title>Node40</title>
<g id="a_Node000040"><a xlink:title=" ">
<polygon fill="#e0e0e0" stroke="#999999" points="1012.25,-242 877,-242 877,-208.5 1012.25,-208.5 1012.25,-242"/>
<text text-anchor="start" x="885" y="-228.5" font-family="Helvetica,sans-Serif" font-size="10.00">mlir/Interfaces/InferType</text>
<text text-anchor="middle" x="944.62" y="-215.75" font-family="Helvetica,sans-Serif" font-size="10.00">OpInterface.h</text>
</a>
</g>
</g>
<!-- Node5&#45;&gt;Node40 -->
<g id="edge46_Node000005_Node000040" class="edge">
<title>Node5&#45;&gt;Node40</title>
<g id="a_edge46_Node000005_Node000040"><a xlink:title=" ">
<path fill="none" stroke="#63b8ff" d="M944.62,-277.75C944.62,-270.52 944.62,-261.78 944.62,-253.56"/>
<polygon fill="#63b8ff" stroke="#63b8ff" points="948.13,-253.65 944.63,-243.65 941.13,-253.65 948.13,-253.65"/>
</a>
</g>
</g>
<!-- Node41 -->
<g id="Node000041" class="node">
<title>Node41</title>
<g id="a_Node000041"><a xlink:href="Bool_2IR_2Ops_8h_8inc.html" target="_top" xlink:title=" ">
<polygon fill="white" stroke="#666666" points="1138.75,-242 1030.5,-242 1030.5,-208.5 1138.75,-208.5 1138.75,-242"/>
<text text-anchor="start" x="1038.5" y="-228.5" font-family="Helvetica,sans-Serif" font-size="10.00">llzk/Dialect/Bool/IR</text>
<text text-anchor="middle" x="1084.62" y="-215.75" font-family="Helvetica,sans-Serif" font-size="10.00">/Ops.h.inc</text>
</a>
</g>
</g>
<!-- Node5&#45;&gt;Node41 -->
<g id="edge47_Node000005_Node000041" class="edge">
<title>Node5&#45;&gt;Node41</title>
<g id="a_edge47_Node000005_Node000041"><a xlink:title=" ">
<path fill="none" stroke="#63b8ff" d="M978.16,-277.58C997.03,-268.48 1020.82,-257.02 1041.11,-247.23"/>
<polygon fill="#63b8ff" stroke="#63b8ff" points="1042.51,-250.44 1050,-242.94 1039.47,-244.13 1042.51,-250.44"/>
</a>
</g>
</g>
<!-- Node7 -->
<g id="Node000007" class="node">
<title>Node7</title>
<g id="a_Node000007"><a xlink:href="Enums_8h.html" target="_top" xlink:title=" ">
<polygon fill="white" stroke="#666666" points="1954.75,-103 1846.5,-103 1846.5,-69.5 1954.75,-69.5 1954.75,-103"/>
<text text-anchor="start" x="1854.5" y="-89.5" font-family="Helvetica,sans-Serif" font-size="10.00">llzk/Dialect/Bool/IR</text>
<text text-anchor="middle" x="1900.62" y="-76.75" font-family="Helvetica,sans-Serif" font-size="10.00">/Enums.h</text>
</a>
</g>
</g>
<!-- Node6&#45;&gt;Node7 -->
<g id="edge6_Node000006_Node000007" class="edge">
<title>Node6&#45;&gt;Node7</title>
<g id="a_edge6_Node000006_Node000007"><a xlink:title=" ">
<path fill="none" stroke="#63b8ff" d="M1728,-138.58C1760.31,-128.97 1801.49,-116.73 1835.52,-106.61"/>
<polygon fill="#63b8ff" stroke="#63b8ff" points="1836.27,-110.04 1844.85,-103.83 1834.27,-103.33 1836.27,-110.04"/>
</a>
</g>
</g>
<!-- Node13 -->
<g id="Node000013" class="node">
<title>Node13</title>
<g id="a_Node000013"><a xlink:title=" ">
<polygon fill="#e0e0e0" stroke="#999999" points="1664.75,-96.62 1556.5,-96.62 1556.5,-75.88 1664.75,-75.88 1664.75,-96.62"/>
<text text-anchor="middle" x="1610.62" y="-83.12" font-family="Helvetica,sans-Serif" font-size="10.00">mlir/IR/Attributes.h</text>
</a>
</g>
</g>
<!-- Node6&#45;&gt;Node13 -->
<g id="edge12_Node000006_Node000013" class="edge">
<title>Node6&#45;&gt;Node13</title>
<g id="a_edge12_Node000006_Node000013"><a xlink:title=" ">
<path fill="none" stroke="#63b8ff" d="M1658.69,-138.75C1649.35,-128.74 1637.29,-115.82 1627.59,-105.42"/>
<polygon fill="#63b8ff" stroke="#63b8ff" points="1630.21,-103.1 1620.82,-98.18 1625.09,-107.88 1630.21,-103.1"/>
</a>
</g>
</g>
<!-- Node14 -->
<g id="Node000014" class="node">
<title>Node14</title>
<g id="a_Node000014"><a xlink:href="Bool_2IR_2Attrs_8h_8inc.html" target="_top" xlink:title=" ">
<polygon fill="white" stroke="#666666" points="1790.75,-103 1682.5,-103 1682.5,-69.5 1790.75,-69.5 1790.75,-103"/>
<text text-anchor="start" x="1690.5" y="-89.5" font-family="Helvetica,sans-Serif" font-size="10.00">llzk/Dialect/Bool/IR</text>
<text text-anchor="middle" x="1736.62" y="-76.75" font-family="Helvetica,sans-Serif" font-size="10.00">/Attrs.h.inc</text>
</a>
</g>
</g>
<!-- Node6&#45;&gt;Node14 -->
<g id="edge13_Node000006_Node000014" class="edge">
<title>Node6&#45;&gt;Node14</title>
<g id="a_edge13_Node000006_Node000014"><a xlink:title=" ">
<path fill="none" stroke="#63b8ff" d="M1688.56,-138.75C1696.17,-130.6 1705.58,-120.51 1714.05,-111.43"/>
<polygon fill="#63b8ff" stroke="#63b8ff" points="1716.5,-113.94 1720.77,-104.24 1711.39,-109.16 1716.5,-113.94"/>
</a>
</g>
</g>
<!-- Node8 -->
<g id="Node000008" class="node">
<title>Node8</title>
<g id="a_Node000008"><a xlink:title=" ">
<polygon fill="#e0e0e0" stroke="#999999" points="1620.25,-27.12 1503,-27.12 1503,-6.38 1620.25,-6.38 1620.25,-27.12"/>
<text text-anchor="middle" x="1561.62" y="-13.62" font-family="Helvetica,sans-Serif" font-size="10.00">mlir/IR/Diagnostics.h</text>
</a>
</g>
</g>
<!-- Node7&#45;&gt;Node8 -->
<g id="edge7_Node000007_Node000008" class="edge">
<title>Node7&#45;&gt;Node8</title>
<g id="a_edge7_Node000007_Node000008"><a xlink:title=" ">
<path fill="none" stroke="#63b8ff" d="M1846.11,-72.43C1841.55,-71.41 1837.01,-70.43 1832.62,-69.5 1762.8,-54.75 1682.46,-39.64 1627.5,-29.59"/>
<polygon fill="#63b8ff" stroke="#63b8ff" points="1628.46,-26.21 1618,-27.86 1627.21,-33.09 1628.46,-26.21"/>
</a>
</g>
</g>
<!-- Node9 -->
<g id="Node000009" class="node">
<title>Node9</title>
<g id="a_Node000009"><a xlink:title=" ">
<polygon fill="#e0e0e0" stroke="#999999" points="2116.38,-27.12 1972.88,-27.12 1972.88,-6.38 2116.38,-6.38 2116.38,-27.12"/>
<text text-anchor="middle" x="2044.62" y="-13.62" font-family="Helvetica,sans-Serif" font-size="10.00">llvm/ADT/DenseMapInfo.h</text>
</a>
</g>
</g>
<!-- Node7&#45;&gt;Node9 -->
<g id="edge8_Node000007_Node000009" class="edge">
<title>Node7&#45;&gt;Node9</title>
<g id="a_edge8_Node000007_Node000009"><a xlink:title=" ">
<path fill="none" stroke="#63b8ff" d="M1935.12,-69.08C1958.96,-57.9 1990.43,-43.15 2013.51,-32.34"/>
<polygon fill="#63b8ff" stroke="#63b8ff" points="2014.84,-35.58 2022.41,-28.16 2011.87,-29.24 2014.84,-35.58"/>
</a>
</g>
</g>
<!-- Node10 -->
<g id="Node000010" class="node">
<title>Node10</title>
<g id="a_Node000010"><a xlink:title=" ">
<polygon fill="#e0e0e0" stroke="#999999" points="875.25,-27.12 758,-27.12 758,-6.38 875.25,-6.38 875.25,-27.12"/>
<text text-anchor="middle" x="816.62" y="-13.62" font-family="Helvetica,sans-Serif" font-size="10.00">llvm/ADT/StringRef.h</text>
</a>
</g>
</g>
<!-- Node7&#45;&gt;Node10 -->
<g id="edge9_Node000007_Node000010" class="edge">
<title>Node7&#45;&gt;Node10</title>
<g id="a_edge9_Node000007_Node000010"><a xlink:title=" ">
<path fill="none" stroke="#63b8ff" d="M1846.26,-75.59C1831.2,-73.24 1814.82,-70.98 1799.62,-69.5 1394.11,-30.05 1287.34,-88.37 883.62,-33.5 877.18,-32.62 870.44,-31.41 863.83,-30.04"/>
<polygon fill="#63b8ff" stroke="#63b8ff" points="864.9,-26.69 854.38,-27.94 863.38,-33.52 864.9,-26.69"/>
</a>
</g>
</g>
<!-- Node11 -->
<g id="Node000011" class="node">
<title>Node11</title>
<g id="a_Node000011"><a xlink:title=" ">
<polygon fill="#e0e0e0" stroke="#999999" points="1828.62,-27.12 1674.62,-27.12 1674.62,-6.38 1828.62,-6.38 1828.62,-27.12"/>
<text text-anchor="middle" x="1751.62" y="-13.62" font-family="Helvetica,sans-Serif" font-size="10.00">llvm/Support/raw_ostream.h</text>
</a>
</g>
</g>
<!-- Node7&#45;&gt;Node11 -->
<g id="edge10_Node000007_Node000011" class="edge">
<title>Node7&#45;&gt;Node11</title>
<g id="a_edge10_Node000007_Node000011"><a xlink:title=" ">
<path fill="none" stroke="#63b8ff" d="M1864.94,-69.08C1840.15,-57.85 1807.41,-43.02 1783.5,-32.19"/>
<polygon fill="#63b8ff" stroke="#63b8ff" points="1785.13,-29.08 1774.57,-28.15 1782.24,-35.46 1785.13,-29.08"/>
</a>
</g>
</g>
<!-- Node12 -->
<g id="Node000012" class="node">
<title>Node12</title>
<g id="a_Node000012"><a xlink:href="Enums_8h_8inc.html" target="_top" xlink:title=" ">
<polygon fill="white" stroke="#666666" points="1954.75,-33.5 1846.5,-33.5 1846.5,0 1954.75,0 1954.75,-33.5"/>
<text text-anchor="start" x="1854.5" y="-20" font-family="Helvetica,sans-Serif" font-size="10.00">llzk/Dialect/Bool/IR</text>
<text text-anchor="middle" x="1900.62" y="-7.25" font-family="Helvetica,sans-Serif" font-size="10.00">/Enums.h.inc</text>
</a>
</g>
</g>
<!-- Node7&#45;&gt;Node12 -->
<g id="edge11_Node000007_Node000012" class="edge">
<title>Node7&#45;&gt;Node12</title>
<g id="a_edge11_Node000007_Node000012"><a xlink:title=" ">
<path fill="none" stroke="#63b8ff" d="M1900.62,-69.25C1900.62,-62.02 1900.62,-53.28 1900.62,-45.06"/>
<polygon fill="#63b8ff" stroke="#63b8ff" points="1904.13,-45.15 1900.63,-35.15 1897.13,-45.15 1904.13,-45.15"/>
</a>
</g>
</g>
<!-- Node16 -->
<g id="Node000016" class="node">
<title>Node16</title>
<g id="a_Node000016"><a xlink:href="Felt_2IR_2Dialect_8h.html" target="_top" xlink:title=" ">
<polygon fill="white" stroke="#666666" points="592.88,-172.5 488.38,-172.5 488.38,-139 592.88,-139 592.88,-172.5"/>
<text text-anchor="start" x="496.38" y="-159" font-family="Helvetica,sans-Serif" font-size="10.00">llzk/Dialect/Felt/IR</text>
<text text-anchor="middle" x="540.62" y="-146.25" font-family="Helvetica,sans-Serif" font-size="10.00">/Dialect.h</text>
</a>
</g>
</g>
<!-- Node15&#45;&gt;Node16 -->
<g id="edge16_Node000015_Node000016" class="edge">
<title>Node15&#45;&gt;Node16</title>
<g id="a_edge16_Node000015_Node000016"><a xlink:title=" ">
<path fill="none" stroke="#63b8ff" d="M754.07,-210.91C710.99,-199.98 649.87,-184.47 604.07,-172.85"/>
<polygon fill="#63b8ff" stroke="#63b8ff" points="605.09,-169.5 594.54,-170.43 603.37,-176.28 605.09,-169.5"/>
</a>
</g>
</g>
<!-- Node18 -->
<g id="Node000018" class="node">
<title>Node18</title>
<g id="a_Node000018"><a xlink:href="Field_8h.html" target="_top" xlink:title=" ">
<polygon fill="white" stroke="#666666" points="909,-166.12 820.25,-166.12 820.25,-145.38 909,-145.38 909,-166.12"/>
<text text-anchor="middle" x="864.62" y="-152.62" font-family="Helvetica,sans-Serif" font-size="10.00">llzk/Util/Field.h</text>
</a>
</g>
</g>
<!-- Node15&#45;&gt;Node18 -->
<g id="edge19_Node000015_Node000018" class="edge">
<title>Node15&#45;&gt;Node18</title>
<g id="a_edge19_Node000015_Node000018"><a xlink:title=" ">
<path fill="none" stroke="#63b8ff" d="M820.37,-208.25C828.89,-198.34 839.85,-185.58 848.74,-175.24"/>
<polygon fill="#63b8ff" stroke="#63b8ff" points="851.34,-177.59 855.2,-167.72 846.03,-173.02 851.34,-177.59"/>
</a>
</g>
</g>
<!-- Node36 -->
<g id="Node000036" class="node">
<title>Node36</title>
<g id="a_Node000036"><a xlink:href="Felt_2IR_2Types_8h_8inc.html" target="_top" xlink:title=" ">
<polygon fill="white" stroke="#666666" points="801.88,-172.5 697.38,-172.5 697.38,-139 801.88,-139 801.88,-172.5"/>
<text text-anchor="start" x="705.38" y="-159" font-family="Helvetica,sans-Serif" font-size="10.00">llzk/Dialect/Felt/IR</text>
<text text-anchor="middle" x="749.62" y="-146.25" font-family="Helvetica,sans-Serif" font-size="10.00">/Types.h.inc</text>
</a>
</g>
</g>
<!-- Node15&#45;&gt;Node36 -->
<g id="edge41_Node000015_Node000036" class="edge">
<title>Node15&#45;&gt;Node36</title>
<g id="a_edge41_Node000015_Node000036"><a xlink:title=" ">
<path fill="none" stroke="#63b8ff" d="M793.12,-208.25C786.3,-200.18 777.89,-190.22 770.28,-181.21"/>
<polygon fill="#63b8ff" stroke="#63b8ff" points="773.14,-179.17 764.01,-173.79 767.79,-183.69 773.14,-179.17"/>
</a>
</g>
</g>
<!-- Node16&#45;&gt;Node3 -->
<g id="edge17_Node000016_Node000003" class="edge">
<title>Node16&#45;&gt;Node3</title>
<g id="a_edge17_Node000016_Node000003"><a xlink:title=" ">
<path fill="none" stroke="#63b8ff" d="M488.11,-139.6C447.03,-127.75 390.51,-111.45 351.52,-100.2"/>
<polygon fill="#63b8ff" stroke="#63b8ff" points="352.55,-96.85 341.97,-97.44 350.61,-103.58 352.55,-96.85"/>
</a>
</g>
</g>
<!-- Node17 -->
<g id="Node000017" class="node">
<title>Node17</title>
<g id="a_Node000017"><a xlink:href="Felt_2IR_2Dialect_8h_8inc.html" target="_top" xlink:title=" ">
<polygon fill="white" stroke="#666666" points="232.88,-103 128.38,-103 128.38,-69.5 232.88,-69.5 232.88,-103"/>
<text text-anchor="start" x="136.38" y="-89.5" font-family="Helvetica,sans-Serif" font-size="10.00">llzk/Dialect/Felt/IR</text>
<text text-anchor="middle" x="180.62" y="-76.75" font-family="Helvetica,sans-Serif" font-size="10.00">/Dialect.h.inc</text>
</a>
</g>
</g>
<!-- Node16&#45;&gt;Node17 -->
<g id="edge18_Node000016_Node000017" class="edge">
<title>Node16&#45;&gt;Node17</title>
<g id="a_edge18_Node000016_Node000017"><a xlink:title=" ">
<path fill="none" stroke="#63b8ff" d="M488.13,-146.13C420.14,-134.89 304.19,-115.43 244.49,-103.26"/>
<polygon fill="#63b8ff" stroke="#63b8ff" points="245.31,-99.86 234.81,-101.24 243.88,-106.71 245.31,-99.86"/>
</a>
</g>
</g>
<!-- Node18&#45;&gt;Node3 -->
<g id="edge33_Node000018_Node000003" class="edge">
<title>Node18&#45;&gt;Node3</title>
<g id="a_edge33_Node000018_Node000003"><a xlink:title=" ">
<path fill="none" stroke="#63b8ff" d="M834.89,-144.91C827.07,-142.65 818.6,-140.47 810.62,-139 617.68,-103.35 564.28,-134.54 370.62,-103 364.98,-102.08 359.1,-100.92 353.3,-99.65"/>
<polygon fill="#63b8ff" stroke="#63b8ff" points="354.3,-96.29 343.77,-97.44 352.72,-103.11 354.3,-96.29"/>
</a>
</g>
</g>
<!-- Node19 -->
<g id="Node000019" class="node">
<title>Node19</title>
<g id="a_Node000019"><a xlink:href="DynamicAPIntHelper_8h.html" target="_top" xlink:title="This file implements helper methods for constructing DynamicAPInts.">
<polygon fill="white" stroke="#666666" points="545.62,-96.62 379.62,-96.62 379.62,-75.88 545.62,-75.88 545.62,-96.62"/>
<text text-anchor="middle" x="462.62" y="-83.12" font-family="Helvetica,sans-Serif" font-size="10.00">llzk/Util/DynamicAPIntHelper.h</text>
</a>
</g>
</g>
<!-- Node18&#45;&gt;Node19 -->
<g id="edge20_Node000018_Node000019" class="edge">
<title>Node18&#45;&gt;Node19</title>
<g id="a_edge20_Node000018_Node000019"><a xlink:title=" ">
<path fill="none" stroke="#63b8ff" d="M833.69,-144.91C826.19,-142.76 818.17,-140.63 810.62,-139 700.48,-115.16 671.03,-120.03 559.62,-103 551.09,-101.69 542.13,-100.29 533.26,-98.88"/>
<polygon fill="#63b8ff" stroke="#63b8ff" points="534.03,-95.45 523.6,-97.33 532.92,-102.37 534.03,-95.45"/>
</a>
</g>
</g>
<!-- Node22 -->
<g id="Node000022" class="node">
<title>Node22</title>
<g id="a_Node000022"><a xlink:title=" ">
<polygon fill="#e0e0e0" stroke="#999999" points="564.62,-27.12 422.62,-27.12 422.62,-6.38 564.62,-6.38 564.62,-27.12"/>
<text text-anchor="middle" x="493.62" y="-13.62" font-family="Helvetica,sans-Serif" font-size="10.00">llvm/ADT/DynamicAPInt.h</text>
</a>
</g>
</g>
<!-- Node18&#45;&gt;Node22 -->
<g id="edge36_Node000018_Node000022" class="edge">
<title>Node18&#45;&gt;Node22</title>
<g id="a_edge36_Node000018_Node000022"><a xlink:title=" ">
<path fill="none" stroke="#63b8ff" d="M833.38,-144.95C825.97,-142.81 818.05,-140.69 810.62,-139 714.87,-117.21 681.34,-145.1 592.62,-103 572.28,-93.35 571.65,-84.23 554.62,-69.5 541.2,-57.89 525.97,-44.97 514.09,-34.94"/>
<polygon fill="#63b8ff" stroke="#63b8ff" points="516.44,-32.35 506.53,-28.58 511.93,-37.7 516.44,-32.35"/>
</a>
</g>
</g>
<!-- Node24 -->
<g id="Node000024" class="node">
<title>Node24</title>
<g id="a_Node000024"><a xlink:href="ErrorHelper_8h.html" target="_top" xlink:title=" ">
<polygon fill="white" stroke="#666666" points="721.75,-96.62 601.5,-96.62 601.5,-75.88 721.75,-75.88 721.75,-96.62"/>
<text text-anchor="middle" x="661.62" y="-83.12" font-family="Helvetica,sans-Serif" font-size="10.00">llzk/Util/ErrorHelper.h</text>
</a>
</g>
</g>
<!-- Node18&#45;&gt;Node24 -->
<g id="edge26_Node000018_Node000024" class="edge">
<title>Node18&#45;&gt;Node24</title>
<g id="a_edge26_Node000018_Node000024"><a xlink:title=" ">
<path fill="none" stroke="#63b8ff" d="M835.11,-144.93C800,-133.26 741.23,-113.72 701.95,-100.66"/>
<polygon fill="#63b8ff" stroke="#63b8ff" points="703.21,-97.39 692.61,-97.55 701,-104.03 703.21,-97.39"/>
</a>
</g>
</g>
<!-- Node30 -->
<g id="Node000030" class="node">
<title>Node30</title>
<g id="a_Node000030"><a xlink:title=" ">
<polygon fill="#e0e0e0" stroke="#999999" points="853.38,-96.62 739.88,-96.62 739.88,-75.88 853.38,-75.88 853.38,-96.62"/>
<text text-anchor="middle" x="796.62" y="-83.12" font-family="Helvetica,sans-Serif" font-size="10.00">mlir/Support/LLVM.h</text>
</a>
</g>
</g>
<!-- Node18&#45;&gt;Node30 -->
<g id="edge34_Node000018_Node000030" class="edge">
<title>Node18&#45;&gt;Node30</title>
<g id="a_edge34_Node000018_Node000030"><a xlink:title=" ">
<path fill="none" stroke="#63b8ff" d="M854.88,-145.08C844.38,-134.65 827.43,-117.83 814.52,-105.01"/>
<polygon fill="#63b8ff" stroke="#63b8ff" points="816.99,-102.53 807.42,-97.97 812.06,-107.5 816.99,-102.53"/>
</a>
</g>
</g>
<!-- Node31 -->
<g id="Node000031" class="node">
<title>Node31</title>
<g id="a_Node000031"><a xlink:title=" ">
<polygon fill="#e0e0e0" stroke="#999999" points="996,-96.62 871.25,-96.62 871.25,-75.88 996,-75.88 996,-96.62"/>
<text text-anchor="middle" x="933.62" y="-83.12" font-family="Helvetica,sans-Serif" font-size="10.00">llvm/ADT/DenseMap.h</text>
</a>
</g>
</g>
<!-- Node18&#45;&gt;Node31 -->
<g id="edge35_Node000018_Node000031" class="edge">
<title>Node18&#45;&gt;Node31</title>
<g id="a_edge35_Node000018_Node000031"><a xlink:title=" ">
<path fill="none" stroke="#63b8ff" d="M874.51,-145.08C885.27,-134.55 902.7,-117.51 915.85,-104.64"/>
<polygon fill="#63b8ff" stroke="#63b8ff" points="917.97,-107.46 922.68,-97.96 913.08,-102.45 917.97,-107.46"/>
</a>
</g>
</g>
<!-- Node32 -->
<g id="Node000032" class="node">
<title>Node32</title>
<g id="a_Node000032"><a xlink:title=" ">
<polygon fill="#e0e0e0" stroke="#999999" points="1130.88,-96.62 1014.38,-96.62 1014.38,-75.88 1130.88,-75.88 1130.88,-96.62"/>
<text text-anchor="middle" x="1072.62" y="-83.12" font-family="Helvetica,sans-Serif" font-size="10.00">llvm/ADT/SmallSet.h</text>
</a>
</g>
</g>
<!-- Node18&#45;&gt;Node32 -->
<g id="edge37_Node000018_Node000032" class="edge">
<title>Node18&#45;&gt;Node32</title>
<g id="a_edge37_Node000018_Node000032"><a xlink:title=" ">
<path fill="none" stroke="#63b8ff" d="M894.87,-144.93C930.92,-133.24 991.32,-113.64 1031.56,-100.58"/>
<polygon fill="#63b8ff" stroke="#63b8ff" points="1032.47,-103.96 1040.9,-97.54 1030.31,-97.3 1032.47,-103.96"/>
</a>
</g>
</g>
<!-- Node33 -->
<g id="Node000033" class="node">
<title>Node33</title>
<g id="a_Node000033"><a xlink:title=" ">
<polygon fill="#e0e0e0" stroke="#999999" points="1304.38,-96.62 1148.88,-96.62 1148.88,-75.88 1304.38,-75.88 1304.38,-96.62"/>
<text text-anchor="middle" x="1226.62" y="-83.12" font-family="Helvetica,sans-Serif" font-size="10.00">llvm/Support/LogicalResult.h</text>
</a>
</g>
</g>
<!-- Node18&#45;&gt;Node33 -->
<g id="edge38_Node000018_Node000033" class="edge">
<title>Node18&#45;&gt;Node33</title>
<g id="a_edge38_Node000018_Node000033"><a xlink:title=" ">
<path fill="none" stroke="#63b8ff" d="M909.38,-146.41C972.94,-134.55 1089.72,-112.78 1162.48,-99.21"/>
<polygon fill="#63b8ff" stroke="#63b8ff" points="1163.09,-102.66 1172.28,-97.38 1161.81,-95.78 1163.09,-102.66"/>
</a>
</g>
</g>
<!-- Node34 -->
<g id="Node000034" class="node">
<title>Node34</title>
<g id="a_Node000034"><a xlink:title=" ">
<polygon fill="#e0e0e0" stroke="#999999" points="1448.75,-96.62 1322.5,-96.62 1322.5,-75.88 1448.75,-75.88 1448.75,-96.62"/>
<text text-anchor="middle" x="1385.62" y="-83.12" font-family="Helvetica,sans-Serif" font-size="10.00">llvm/Support/SMTAPI.h</text>
</a>
</g>
</g>
<!-- Node18&#45;&gt;Node34 -->
<g id="edge39_Node000018_Node000034" class="edge">
<title>Node18&#45;&gt;Node34</title>
<g id="a_edge39_Node000018_Node000034"><a xlink:title=" ">
<path fill="none" stroke="#63b8ff" d="M909.44,-151.09C990.47,-144.14 1166.56,-127.5 1313.62,-103 1320.01,-101.94 1326.69,-100.68 1333.29,-99.34"/>
<polygon fill="#63b8ff" stroke="#63b8ff" points="1333.71,-102.83 1342.78,-97.35 1332.28,-95.98 1333.71,-102.83"/>
</a>
</g>
</g>
<!-- Node35 -->
<g id="Node000035" class="node">
<title>Node35</title>
<g id="a_Node000035"><a xlink:title=" ">
<polygon fill="#e0e0e0" stroke="#999999" points="1538.75,-96.62 1466.5,-96.62 1466.5,-75.88 1538.75,-75.88 1538.75,-96.62"/>
<text text-anchor="middle" x="1502.62" y="-83.12" font-family="Helvetica,sans-Serif" font-size="10.00">string_view</text>
</a>
</g>
</g>
<!-- Node18&#45;&gt;Node35 -->
<g id="edge40_Node000018_Node000035" class="edge">
<title>Node18&#45;&gt;Node35</title>
<g id="a_edge40_Node000018_Node000035"><a xlink:title=" ">
<path fill="none" stroke="#63b8ff" d="M909.45,-154.63C1009.14,-153.55 1256.32,-146.3 1457.62,-103 1460.81,-102.31 1464.08,-101.47 1467.34,-100.52"/>
<polygon fill="#63b8ff" stroke="#63b8ff" points="1468.29,-103.89 1476.74,-97.51 1466.15,-97.23 1468.29,-103.89"/>
</a>
</g>
</g>
<!-- Node19&#45;&gt;Node10 -->
<g id="edge25_Node000019_Node000010" class="edge">
<title>Node19&#45;&gt;Node10</title>
<g id="a_edge25_Node000019_Node000010"><a xlink:title=" ">
<path fill="none" stroke="#63b8ff" d="M521.94,-75.38C579.9,-65.54 670.54,-49.6 748.62,-33.5 753.84,-32.42 759.27,-31.25 764.68,-30.05"/>
<polygon fill="#63b8ff" stroke="#63b8ff" points="765.24,-33.52 774.23,-27.9 763.7,-26.69 765.24,-33.52"/>
</a>
</g>
</g>
<!-- Node20 -->
<g id="Node000020" class="node">
<title>Node20</title>
<g id="a_Node000020"><a xlink:title=" ">
<polygon fill="#e0e0e0" stroke="#999999" points="281.88,-27.12 183.38,-27.12 183.38,-6.38 281.88,-6.38 281.88,-27.12"/>
<text text-anchor="middle" x="232.62" y="-13.62" font-family="Helvetica,sans-Serif" font-size="10.00">llvm/ADT/APInt.h</text>
</a>
</g>
</g>
<!-- Node19&#45;&gt;Node20 -->
<g id="edge21_Node000019_Node000020" class="edge">
<title>Node19&#45;&gt;Node20</title>
<g id="a_edge21_Node000019_Node000020"><a xlink:title=" ">
<path fill="none" stroke="#63b8ff" d="M429.18,-75.43C388.98,-63.64 321.39,-43.8 276.89,-30.74"/>
<polygon fill="#63b8ff" stroke="#63b8ff" points="278.14,-27.46 267.56,-28 276.17,-34.18 278.14,-27.46"/>
</a>
</g>
</g>
<!-- Node21 -->
<g id="Node000021" class="node">
<title>Node21</title>
<g id="a_Node000021"><a xlink:title=" ">
<polygon fill="#e0e0e0" stroke="#999999" points="404.88,-27.12 300.38,-27.12 300.38,-6.38 404.88,-6.38 404.88,-27.12"/>
<text text-anchor="middle" x="352.62" y="-13.62" font-family="Helvetica,sans-Serif" font-size="10.00">llvm/ADT/APSInt.h</text>
</a>
</g>
</g>
<!-- Node19&#45;&gt;Node21 -->
<g id="edge22_Node000019_Node000021" class="edge">
<title>Node19&#45;&gt;Node21</title>
<g id="a_edge22_Node000019_Node000021"><a xlink:title=" ">
<path fill="none" stroke="#63b8ff" d="M446.86,-75.58C429,-64.61 399.6,-46.57 378.38,-33.56"/>
<polygon fill="#63b8ff" stroke="#63b8ff" points="380.36,-30.66 370,-28.41 376.7,-36.63 380.36,-30.66"/>
</a>
</g>
</g>
<!-- Node19&#45;&gt;Node22 -->
<g id="edge23_Node000019_Node000022" class="edge">
<title>Node19&#45;&gt;Node22</title>
<g id="a_edge23_Node000019_Node000022"><a xlink:title=" ">
<path fill="none" stroke="#63b8ff" d="M467.07,-75.58C471.58,-65.75 478.7,-50.25 484.43,-37.77"/>
<polygon fill="#63b8ff" stroke="#63b8ff" points="487.57,-39.33 488.56,-28.78 481.21,-36.41 487.57,-39.33"/>
</a>
</g>
</g>
<!-- Node23 -->
<g id="Node000023" class="node">
<title>Node23</title>
<g id="a_Node000023"><a xlink:title=" ">
<polygon fill="#e0e0e0" stroke="#999999" points="165.25,-27.12 0,-27.12 0,-6.38 165.25,-6.38 165.25,-27.12"/>
<text text-anchor="middle" x="82.62" y="-13.62" font-family="Helvetica,sans-Serif" font-size="10.00">llvm/ADT/SlowDynamicAPInt.h</text>
</a>
</g>
</g>
<!-- Node19&#45;&gt;Node23 -->
<g id="edge24_Node000019_Node000023" class="edge">
<title>Node19&#45;&gt;Node23</title>
<g id="a_edge24_Node000019_Node000023"><a xlink:title=" ">
<path fill="none" stroke="#63b8ff" d="M407.37,-75.43C338.84,-63.26 222.13,-42.53 148.87,-29.52"/>
<polygon fill="#63b8ff" stroke="#63b8ff" points="149.9,-26.14 139.44,-27.84 148.67,-33.04 149.9,-26.14"/>
</a>
</g>
</g>
<!-- Node24&#45;&gt;Node8 -->
<g id="edge27_Node000024_Node000008" class="edge">
<title>Node24&#45;&gt;Node8</title>
<g id="a_edge27_Node000024_Node000008"><a xlink:title=" ">
<path fill="none" stroke="#63b8ff" d="M699.37,-75.4C709.46,-73.11 720.4,-70.92 730.62,-69.5 1035.66,-27.07 1115.7,-58.85 1422.62,-33.5 1444.99,-31.65 1469.32,-29.09 1491.28,-26.56"/>
<polygon fill="#63b8ff" stroke="#63b8ff" points="1491.49,-30.06 1501.02,-25.43 1490.68,-23.11 1491.49,-30.06"/>
</a>
</g>
</g>
<!-- Node25 -->
<g id="Node000025" class="node">
<title>Node25</title>
<g id="a_Node000025"><a xlink:title=" ">
<polygon fill="#e0e0e0" stroke="#999999" points="1413.75,-27.12 1305.5,-27.12 1305.5,-6.38 1413.75,-6.38 1413.75,-27.12"/>
<text text-anchor="middle" x="1359.62" y="-13.62" font-family="Helvetica,sans-Serif" font-size="10.00">mlir/IR/Operation.h</text>
</a>
</g>
</g>
<!-- Node24&#45;&gt;Node25 -->
<g id="edge28_Node000024_Node000025" class="edge">
<title>Node24&#45;&gt;Node25</title>
<g id="a_edge28_Node000024_Node000025"><a xlink:title=" ">
<path fill="none" stroke="#63b8ff" d="M699.75,-75.43C709.73,-73.16 720.54,-70.98 730.62,-69.5 964.21,-35.12 1026.03,-60.07 1260.62,-33.5 1271.34,-32.29 1282.67,-30.74 1293.69,-29.09"/>
<polygon fill="#63b8ff" stroke="#63b8ff" points="1294.17,-32.55 1303.52,-27.57 1293.11,-25.63 1294.17,-32.55"/>
</a>
</g>
</g>
<!-- Node26 -->
<g id="Node000026" class="node">
<title>Node26</title>
<g id="a_Node000026"><a xlink:title=" ">
<polygon fill="#e0e0e0" stroke="#999999" points="1064.25,-27.12 893,-27.12 893,-6.38 1064.25,-6.38 1064.25,-27.12"/>
<text text-anchor="middle" x="978.62" y="-13.62" font-family="Helvetica,sans-Serif" font-size="10.00">llvm/ADT/STLFunctionalExtras.h</text>
</a>
</g>
</g>
<!-- Node24&#45;&gt;Node26 -->
<g id="edge29_Node000024_Node000026" class="edge">
<title>Node24&#45;&gt;Node26</title>
<g id="a_edge29_Node000024_Node000026"><a xlink:title=" ">
<path fill="none" stroke="#63b8ff" d="M704.29,-75.38C713,-73.4 722.1,-71.36 730.62,-69.5 794.94,-55.45 868.83,-40.14 919.11,-29.84"/>
<polygon fill="#63b8ff" stroke="#63b8ff" points="919.52,-33.33 928.61,-27.9 918.12,-26.47 919.52,-33.33"/>
</a>
</g>
</g>
<!-- Node27 -->
<g id="Node000027" class="node">
<title>Node27</title>
<g id="a_Node000027"><a xlink:title=" ">
<polygon fill="#e0e0e0" stroke="#999999" points="1183,-27.12 1082.25,-27.12 1082.25,-6.38 1183,-6.38 1183,-27.12"/>
<text text-anchor="middle" x="1132.62" y="-13.62" font-family="Helvetica,sans-Serif" font-size="10.00">llvm/ADT/Twine.h</text>
</a>
</g>
</g>
<!-- Node24&#45;&gt;Node27 -->
<g id="edge30_Node000024_Node000027" class="edge">
<title>Node24&#45;&gt;Node27</title>
<g id="a_edge30_Node000024_Node000027"><a xlink:title=" ">
<path fill="none" stroke="#63b8ff" d="M700.87,-75.44C710.55,-73.25 720.93,-71.11 730.62,-69.5 881.84,-44.4 922.89,-61.35 1073.62,-33.5 1078.51,-32.6 1083.58,-31.5 1088.6,-30.31"/>
<polygon fill="#63b8ff" stroke="#63b8ff" points="1089.13,-33.78 1097.98,-27.95 1087.43,-26.99 1089.13,-33.78"/>
</a>
</g>
</g>
<!-- Node28 -->
<g id="Node000028" class="node">
<title>Node28</title>
<g id="a_Node000028"><a xlink:title=" ">
<polygon fill="#e0e0e0" stroke="#999999" points="740.12,-27.12 583.12,-27.12 583.12,-6.38 740.12,-6.38 740.12,-27.12"/>
<text text-anchor="middle" x="661.62" y="-13.62" font-family="Helvetica,sans-Serif" font-size="10.00">llvm/Support/ErrorHandling.h</text>
</a>
</g>
</g>
<!-- Node24&#45;&gt;Node28 -->
<g id="edge31_Node000024_Node000028" class="edge">
<title>Node24&#45;&gt;Node28</title>
<g id="a_edge31_Node000024_Node000028"><a xlink:title=" ">
<path fill="none" stroke="#63b8ff" d="M661.62,-75.58C661.62,-65.96 661.62,-50.88 661.62,-38.54"/>
<polygon fill="#63b8ff" stroke="#63b8ff" points="665.13,-38.92 661.63,-28.92 658.13,-38.92 665.13,-38.92"/>
</a>
</g>
</g>
<!-- Node29 -->
<g id="Node000029" class="node">
<title>Node29</title>
<g id="a_Node000029"><a xlink:title=" ">
<polygon fill="#e0e0e0" stroke="#999999" points="1251.88,-27.12 1201.38,-27.12 1201.38,-6.38 1251.88,-6.38 1251.88,-27.12"/>
<text text-anchor="middle" x="1226.62" y="-13.62" font-family="Helvetica,sans-Serif" font-size="10.00">variant</text>
</a>
</g>
</g>
<!-- Node24&#45;&gt;Node29 -->
<g id="edge32_Node000024_Node000029" class="edge">
<title>Node24&#45;&gt;Node29</title>
<g id="a_edge32_Node000024_Node000029"><a xlink:title=" ">
<path fill="none" stroke="#63b8ff" d="M700.12,-75.42C710.01,-73.18 720.66,-71.02 730.62,-69.5 933.79,-38.55 992.52,-84.42 1191.62,-33.5 1193.62,-32.99 1195.64,-32.37 1197.66,-31.68"/>
<polygon fill="#63b8ff" stroke="#63b8ff" points="1198.77,-35.01 1206.76,-28.05 1196.18,-28.51 1198.77,-35.01"/>
</a>
</g>
</g>
<!-- Node37&#45;&gt;Node25 -->
<g id="edge44_Node000037_Node000025" class="edge">
<title>Node37&#45;&gt;Node25</title>
<g id="a_edge44_Node000037_Node000025"><a xlink:title=" ">
<path fill="none" stroke="#63b8ff" d="M1822.28,-208.42C1828.48,-177.03 1837.04,-106.73 1799.62,-69.5 1799.62,-69.5 1547.72,-39.87 1425.11,-25.45"/>
<polygon fill="#63b8ff" stroke="#63b8ff" points="1425.86,-22.02 1415.52,-24.32 1425.04,-28.97 1425.86,-22.02"/>
</a>
</g>
</g>
<!-- Node38 -->
<g id="Node000038" class="node">
<title>Node38</title>
<g id="a_Node000038"><a xlink:title=" ">
<polygon fill="#e0e0e0" stroke="#999999" points="1968.12,-166.12 1847.12,-166.12 1847.12,-145.38 1968.12,-145.38 1968.12,-166.12"/>
<text text-anchor="middle" x="1907.62" y="-152.62" font-family="Helvetica,sans-Serif" font-size="10.00">mlir/IR/OpDefinition.h</text>
</a>
</g>
</g>
<!-- Node37&#45;&gt;Node38 -->
<g id="edge43_Node000037_Node000038" class="edge">
<title>Node37&#45;&gt;Node38</title>
<g id="a_edge43_Node000037_Node000038"><a xlink:title=" ">
<path fill="none" stroke="#63b8ff" d="M1839.72,-208.25C1853.58,-197.74 1871.69,-184.01 1885.72,-173.37"/>
<polygon fill="#63b8ff" stroke="#63b8ff" points="1887.62,-176.32 1893.47,-167.49 1883.39,-170.74 1887.62,-176.32"/>
</a>
</g>
</g>
<!-- Node39 -->
<g id="Node000039" class="node">
<title>Node39</title>
<g id="a_Node000039"><a xlink:title=" ">
<polygon fill="#e0e0e0" stroke="#999999" points="2139.25,-166.12 1986,-166.12 1986,-145.38 2139.25,-145.38 2139.25,-166.12"/>
<text text-anchor="middle" x="2062.62" y="-152.62" font-family="Helvetica,sans-Serif" font-size="10.00">mlir/Support/LogicalResult.h</text>
</a>
</g>
</g>
<!-- Node37&#45;&gt;Node39 -->
<g id="edge45_Node000037_Node000039" class="edge">
<title>Node37&#45;&gt;Node39</title>
<g id="a_edge45_Node000037_Node000039"><a xlink:title=" ">
<path fill="none" stroke="#63b8ff" d="M1876.45,-208.25C1919.12,-196.45 1976.45,-180.59 2016.16,-169.6"/>
<polygon fill="#63b8ff" stroke="#63b8ff" points="2016.96,-173.02 2025.66,-166.98 2015.09,-166.27 2016.96,-173.02"/>
</a>
</g>
</g>
<!-- Node43 -->
<g id="Node000043" class="node">
<title>Node43</title>
<g id="a_Node000043"><a xlink:title=" ">
<polygon fill="#e0e0e0" stroke="#999999" points="2114.62,-235.62 1894.62,-235.62 1894.62,-214.88 2114.62,-214.88 2114.62,-235.62"/>
<text text-anchor="middle" x="2004.62" y="-222.12" font-family="Helvetica,sans-Serif" font-size="10.00">mlir/Bytecode/BytecodeImplementation.h</text>
</a>
</g>
</g>
<!-- Node42&#45;&gt;Node43 -->
<g id="edge50_Node000042_Node000043" class="edge">
<title>Node42&#45;&gt;Node43</title>
<g id="a_edge50_Node000042_Node000043"><a xlink:title=" ">
<path fill="none" stroke="#63b8ff" d="M1127.16,-279.56C1130.35,-278.97 1133.52,-278.45 1136.62,-278 1466.5,-230.54 1553.69,-271.89 1885.62,-242 1898.84,-240.81 1912.84,-239.24 1926.43,-237.55"/>
<polygon fill="#63b8ff" stroke="#63b8ff" points="1926.73,-241.04 1936.21,-236.3 1925.84,-234.09 1926.73,-241.04"/>
</a>
</g>
</g>
</g>
</svg>
