<?xml version="1.0" encoding="UTF-8" standalone="no"?>
<!DOCTYPE svg PUBLIC "-//W3C//DTD SVG 1.1//EN"
 "http://www.w3.org/Graphics/SVG/1.1/DTD/svg11.dtd">
<!-- Generated by graphviz version 12.2.1 (0)
 -->
<!-- Title: include/llzk/Dialect/Bool/IR/Ops.h Pages: 1 -->
<svg width="2604pt" height="376pt"
 viewBox="0.00 0.00 2603.75 376.25" xmlns="http://www.w3.org/2000/svg" xmlns:xlink="http://www.w3.org/1999/xlink">
<g id="graph0" class="graph" transform="scale(1 1) rotate(0) translate(4 372.25)">
<title>include/llzk/Dialect/Bool/IR/Ops.h</title>
<!-- Node1 -->
<g id="Node000001" class="node">
<title>Node1</title>
<g id="a_Node000001"><a xlink:title=" ">
<polygon fill="#999999" stroke="#666666" points="1458.62,-368.25 1349.62,-368.25 1349.62,-334.75 1458.62,-334.75 1458.62,-368.25"/>
<text text-anchor="start" x="1357.62" y="-354.75" font-family="Helvetica,sans-Serif" font-size="10.00">include/llzk/Dialect</text>
<text text-anchor="middle" x="1404.12" y="-342" font-family="Helvetica,sans-Serif" font-size="10.00">/Bool/IR/Ops.h</text>
</a>
</g>
</g>
<!-- Node2 -->
<g id="Node000002" class="node">
<title>Node2</title>
<g id="a_Node000002"><a xlink:href="Bool_2IR_2Attrs_8h.html" target="_top" xlink:title=" ">
<polygon fill="white" stroke="#666666" points="441.25,-229.25 333,-229.25 333,-195.75 441.25,-195.75 441.25,-229.25"/>
<text text-anchor="start" x="341" y="-215.75" font-family="Helvetica,sans-Serif" font-size="10.00">llzk/Dialect/Bool/IR</text>
<text text-anchor="middle" x="387.12" y="-203" font-family="Helvetica,sans-Serif" font-size="10.00">/Attrs.h</text>
</a>
</g>
</g>
<!-- Node1&#45;&gt;Node2 -->
<g id="edge1_Node000001_Node000002" class="edge">
<title>Node1&#45;&gt;Node2</title>
<g id="a_edge1_Node000001_Node000002"><a xlink:title=" ">
<path fill="none" stroke="#63b8ff" d="M1349.13,-349.62C1232.33,-347.03 951.24,-337.01 719.12,-298.75 623.6,-283 515.4,-252.84 449.22,-232.94"/>
<polygon fill="#63b8ff" stroke="#63b8ff" points="450.6,-229.71 440.01,-230.16 448.57,-236.41 450.6,-229.71"/>
</a>
</g>
</g>
<!-- Node11 -->
<g id="Node000011" class="node">
<title>Node11</title>
<g id="a_Node000011"><a xlink:href="Bool_2IR_2Dialect_8h.html" target="_top" xlink:title=" ">
<polygon fill="white" stroke="#666666" points="836.25,-298.75 728,-298.75 728,-265.25 836.25,-265.25 836.25,-298.75"/>
<text text-anchor="start" x="736" y="-285.25" font-family="Helvetica,sans-Serif" font-size="10.00">llzk/Dialect/Bool/IR</text>
<text text-anchor="middle" x="782.12" y="-272.5" font-family="Helvetica,sans-Serif" font-size="10.00">/Dialect.h</text>
</a>
</g>
</g>
<!-- Node1&#45;&gt;Node11 -->
<g id="edge10_Node000001_Node000011" class="edge">
<title>Node1&#45;&gt;Node11</title>
<g id="a_edge10_Node000001_Node000011"><a xlink:title=" ">
<path fill="none" stroke="#63b8ff" d="M1349.2,-344.54C1234.62,-332.1 970.55,-303.45 847.48,-290.09"/>
<polygon fill="#63b8ff" stroke="#63b8ff" points="848.2,-286.65 837.88,-289.05 847.44,-293.61 848.2,-286.65"/>
</a>
</g>
</g>
<!-- Node14 -->
<g id="Node000014" class="node">
<title>Node14</title>
<g id="a_Node000014"><a xlink:href="Felt_2IR_2Types_8h.html" target="_top" xlink:title=" ">
<polygon fill="white" stroke="#666666" points="1392.38,-298.75 1287.88,-298.75 1287.88,-265.25 1392.38,-265.25 1392.38,-298.75"/>
<text text-anchor="start" x="1295.88" y="-285.25" font-family="Helvetica,sans-Serif" font-size="10.00">llzk/Dialect/Felt/IR</text>
<text text-anchor="middle" x="1340.12" y="-272.5" font-family="Helvetica,sans-Serif" font-size="10.00">/Types.h</text>
</a>
</g>
</g>
<!-- Node1&#45;&gt;Node14 -->
<g id="edge13_Node000001_Node000014" class="edge">
<title>Node1&#45;&gt;Node14</title>
<g id="a_edge13_Node000001_Node000014"><a xlink:title=" ">
<path fill="none" stroke="#63b8ff" d="M1388.96,-334.5C1381.23,-326.35 1371.66,-316.26 1363.05,-307.18"/>
<polygon fill="#63b8ff" stroke="#63b8ff" points="1365.64,-304.83 1356.22,-299.98 1360.57,-309.64 1365.64,-304.83"/>
</a>
</g>
</g>
<!-- Node45 -->
<g id="Node000045" class="node">
<title>Node45</title>
<g id="a_Node000045"><a xlink:href="OpTraits_8h.html" target="_top" xlink:title=" ">
<polygon fill="white" stroke="#666666" points="1957.62,-298.75 1842.62,-298.75 1842.62,-265.25 1957.62,-265.25 1957.62,-298.75"/>
<text text-anchor="start" x="1850.62" y="-285.25" font-family="Helvetica,sans-Serif" font-size="10.00">llzk/Dialect/Function</text>
<text text-anchor="middle" x="1900.12" y="-272.5" font-family="Helvetica,sans-Serif" font-size="10.00">/IR/OpTraits.h</text>
</a>
</g>
</g>
<!-- Node1&#45;&gt;Node45 -->
<g id="edge50_Node000001_Node000045" class="edge">
<title>Node1&#45;&gt;Node45</title>
<g id="a_edge50_Node000001_Node000045"><a xlink:title=" ">
<path fill="none" stroke="#63b8ff" d="M1459.1,-343.02C1550.05,-330.64 1731.66,-305.93 1831.1,-292.39"/>
<polygon fill="#63b8ff" stroke="#63b8ff" points="1831.29,-295.9 1840.72,-291.08 1830.34,-288.96 1831.29,-295.9"/>
</a>
</g>
</g>
<!-- Node48 -->
<g id="Node000048" class="node">
<title>Node48</title>
<g id="a_Node000048"><a xlink:title=" ">
<polygon fill="#e0e0e0" stroke="#999999" points="2110.75,-298.75 1975.5,-298.75 1975.5,-265.25 2110.75,-265.25 2110.75,-298.75"/>
<text text-anchor="start" x="1983.5" y="-285.25" font-family="Helvetica,sans-Serif" font-size="10.00">mlir/Interfaces/InferType</text>
<text text-anchor="middle" x="2043.12" y="-272.5" font-family="Helvetica,sans-Serif" font-size="10.00">OpInterface.h</text>
</a>
</g>
</g>
<!-- Node1&#45;&gt;Node48 -->
<g id="edge54_Node000001_Node000048" class="edge">
<title>Node1&#45;&gt;Node48</title>
<g id="a_edge54_Node000001_Node000048"><a xlink:title=" ">
<path fill="none" stroke="#63b8ff" d="M1459.11,-347.51C1558.17,-341.67 1773.32,-326.95 1963.88,-299.14"/>
<polygon fill="#63b8ff" stroke="#63b8ff" points="1964.36,-302.61 1973.74,-297.68 1963.34,-295.68 1964.36,-302.61"/>
</a>
</g>
</g>
<!-- Node49 -->
<g id="Node000049" class="node">
<title>Node49</title>
<g id="a_Node000049"><a xlink:href="Bool_2IR_2Ops_8h_8inc.html" target="_top" xlink:title=" ">
<polygon fill="white" stroke="#666666" points="2237.25,-298.75 2129,-298.75 2129,-265.25 2237.25,-265.25 2237.25,-298.75"/>
<text text-anchor="start" x="2137" y="-285.25" font-family="Helvetica,sans-Serif" font-size="10.00">llzk/Dialect/Bool/IR</text>
<text text-anchor="middle" x="2183.12" y="-272.5" font-family="Helvetica,sans-Serif" font-size="10.00">/Ops.h.inc</text>
</a>
</g>
</g>
<!-- Node1&#45;&gt;Node49 -->
<g id="edge55_Node000001_Node000049" class="edge">
<title>Node1&#45;&gt;Node49</title>
<g id="a_edge55_Node000001_Node000049"><a xlink:title=" ">
<path fill="none" stroke="#63b8ff" d="M1458.84,-349.76C1577.4,-347.47 1866.89,-338.14 2117.46,-299.01"/>
<polygon fill="#63b8ff" stroke="#63b8ff" points="2117.78,-302.5 2127.11,-297.48 2116.69,-295.59 2117.78,-302.5"/>
</a>
</g>
</g>
<!-- Node3 -->
<g id="Node000003" class="node">
<title>Node3</title>
<g id="a_Node000003"><a xlink:href="Bool_2IR_2Enums_8h.html" target="_top" xlink:title=" ">
<polygon fill="white" stroke="#666666" points="252.25,-159.75 144,-159.75 144,-126.25 252.25,-126.25 252.25,-159.75"/>
<text text-anchor="start" x="152" y="-146.25" font-family="Helvetica,sans-Serif" font-size="10.00">llzk/Dialect/Bool/IR</text>
<text text-anchor="middle" x="198.12" y="-133.5" font-family="Helvetica,sans-Serif" font-size="10.00">/Enums.h</text>
</a>
</g>
</g>
<!-- Node2&#45;&gt;Node3 -->
<g id="edge2_Node000002_Node000003" class="edge">
<title>Node2&#45;&gt;Node3</title>
<g id="a_edge2_Node000002_Node000003"><a xlink:title=" ">
<path fill="none" stroke="#63b8ff" d="M341.85,-195.33C315.54,-185.93 282.15,-174.01 254.18,-164.02"/>
<polygon fill="#63b8ff" stroke="#63b8ff" points="255.37,-160.73 244.78,-160.66 253.02,-167.32 255.37,-160.73"/>
</a>
</g>
</g>
<!-- Node9 -->
<g id="Node000009" class="node">
<title>Node9</title>
<g id="a_Node000009"><a xlink:title=" ">
<polygon fill="#e0e0e0" stroke="#999999" points="378.25,-153.38 270,-153.38 270,-132.62 378.25,-132.62 378.25,-153.38"/>
<text text-anchor="middle" x="324.12" y="-139.88" font-family="Helvetica,sans-Serif" font-size="10.00">mlir/IR/Attributes.h</text>
</a>
</g>
</g>
<!-- Node2&#45;&gt;Node9 -->
<g id="edge8_Node000002_Node000009" class="edge">
<title>Node2&#45;&gt;Node9</title>
<g id="a_edge8_Node000002_Node000009"><a xlink:title=" ">
<path fill="none" stroke="#63b8ff" d="M372.19,-195.5C362.85,-185.49 350.79,-172.57 341.09,-162.17"/>
<polygon fill="#63b8ff" stroke="#63b8ff" points="343.71,-159.85 334.32,-154.93 338.59,-164.63 343.71,-159.85"/>
</a>
</g>
</g>
<!-- Node10 -->
<g id="Node000010" class="node">
<title>Node10</title>
<g id="a_Node000010"><a xlink:href="Bool_2IR_2Attrs_8h_8inc.html" target="_top" xlink:title=" ">
<polygon fill="white" stroke="#666666" points="504.25,-159.75 396,-159.75 396,-126.25 504.25,-126.25 504.25,-159.75"/>
<text text-anchor="start" x="404" y="-146.25" font-family="Helvetica,sans-Serif" font-size="10.00">llzk/Dialect/Bool/IR</text>
<text text-anchor="middle" x="450.12" y="-133.5" font-family="Helvetica,sans-Serif" font-size="10.00">/Attrs.h.inc</text>
</a>
</g>
</g>
<!-- Node2&#45;&gt;Node10 -->
<g id="edge9_Node000002_Node000010" class="edge">
<title>Node2&#45;&gt;Node10</title>
<g id="a_edge9_Node000002_Node000010"><a xlink:title=" ">
<path fill="none" stroke="#63b8ff" d="M402.06,-195.5C409.67,-187.35 419.08,-177.26 427.55,-168.18"/>
<polygon fill="#63b8ff" stroke="#63b8ff" points="430,-170.69 434.27,-160.99 424.89,-165.91 430,-170.69"/>
</a>
</g>
</g>
<!-- Node4 -->
<g id="Node000004" class="node">
<title>Node4</title>
<g id="a_Node000004"><a xlink:title=" ">
<polygon fill="#e0e0e0" stroke="#999999" points="585.75,-83.88 468.5,-83.88 468.5,-63.12 585.75,-63.12 585.75,-83.88"/>
<text text-anchor="middle" x="527.12" y="-70.38" font-family="Helvetica,sans-Serif" font-size="10.00">mlir/IR/Diagnostics.h</text>
</a>
</g>
</g>
<!-- Node3&#45;&gt;Node4 -->
<g id="edge3_Node000003_Node000004" class="edge">
<title>Node3&#45;&gt;Node4</title>
<g id="a_edge3_Node000003_Node000004"><a xlink:title=" ">
<path fill="none" stroke="#63b8ff" d="M252.72,-128.15C255.56,-127.49 258.37,-126.85 261.12,-126.25 345.07,-107.82 366.82,-106.97 451.12,-90.25 456.99,-89.09 463.11,-87.85 469.21,-86.61"/>
<polygon fill="#63b8ff" stroke="#63b8ff" points="469.55,-90.11 478.64,-84.68 468.14,-83.26 469.55,-90.11"/>
</a>
</g>
</g>
<!-- Node5 -->
<g id="Node000005" class="node">
<title>Node5</title>
<g id="a_Node000005"><a xlink:title=" ">
<polygon fill="#e0e0e0" stroke="#999999" points="269.88,-83.88 126.38,-83.88 126.38,-63.12 269.88,-63.12 269.88,-83.88"/>
<text text-anchor="middle" x="198.12" y="-70.38" font-family="Helvetica,sans-Serif" font-size="10.00">llvm/ADT/DenseMapInfo.h</text>
</a>
</g>
</g>
<!-- Node3&#45;&gt;Node5 -->
<g id="edge4_Node000003_Node000005" class="edge">
<title>Node3&#45;&gt;Node5</title>
<g id="a_edge4_Node000003_Node000005"><a xlink:title=" ">
<path fill="none" stroke="#63b8ff" d="M198.12,-126C198.12,-116.9 198.12,-105.39 198.12,-95.57"/>
<polygon fill="#63b8ff" stroke="#63b8ff" points="201.63,-95.84 198.13,-85.84 194.63,-95.84 201.63,-95.84"/>
</a>
</g>
</g>
<!-- Node6 -->
<g id="Node000006" class="node">
<title>Node6</title>
<g id="a_Node000006"><a xlink:title=" ">
<polygon fill="#e0e0e0" stroke="#999999" points="735.75,-83.88 618.5,-83.88 618.5,-63.12 735.75,-63.12 735.75,-83.88"/>
<text text-anchor="middle" x="677.12" y="-70.38" font-family="Helvetica,sans-Serif" font-size="10.00">llvm/ADT/StringRef.h</text>
</a>
</g>
</g>
<!-- Node3&#45;&gt;Node6 -->
<g id="edge5_Node000003_Node000006" class="edge">
<title>Node3&#45;&gt;Node6</title>
<g id="a_edge5_Node000003_Node000006"><a xlink:title=" ">
<path fill="none" stroke="#63b8ff" d="M252.66,-127.88C255.52,-127.29 258.35,-126.74 261.12,-126.25 408.12,-100.08 447.47,-112.35 595.12,-90.25 602.64,-89.13 610.51,-87.8 618.28,-86.41"/>
<polygon fill="#63b8ff" stroke="#63b8ff" points="618.86,-89.86 628.05,-84.6 617.58,-82.98 618.86,-89.86"/>
</a>
</g>
</g>
<!-- Node7 -->
<g id="Node000007" class="node">
<title>Node7</title>
<g id="a_Node000007"><a xlink:title=" ">
<polygon fill="#e0e0e0" stroke="#999999" points="442.12,-83.88 288.12,-83.88 288.12,-63.12 442.12,-63.12 442.12,-83.88"/>
<text text-anchor="middle" x="365.12" y="-70.38" font-family="Helvetica,sans-Serif" font-size="10.00">llvm/Support/raw_ostream.h</text>
</a>
</g>
</g>
<!-- Node3&#45;&gt;Node7 -->
<g id="edge6_Node000003_Node000007" class="edge">
<title>Node3&#45;&gt;Node7</title>
<g id="a_edge6_Node000003_Node000007"><a xlink:title=" ">
<path fill="none" stroke="#63b8ff" d="M238.13,-125.83C266.28,-114.45 303.6,-99.37 330.48,-88.5"/>
<polygon fill="#63b8ff" stroke="#63b8ff" points="331.59,-91.83 339.55,-84.84 328.96,-85.34 331.59,-91.83"/>
</a>
</g>
</g>
<!-- Node8 -->
<g id="Node000008" class="node">
<title>Node8</title>
<g id="a_Node000008"><a xlink:href="Bool_2IR_2Enums_8h_8inc.html" target="_top" xlink:title=" ">
<polygon fill="white" stroke="#666666" points="108.25,-90.25 0,-90.25 0,-56.75 108.25,-56.75 108.25,-90.25"/>
<text text-anchor="start" x="8" y="-76.75" font-family="Helvetica,sans-Serif" font-size="10.00">llzk/Dialect/Bool/IR</text>
<text text-anchor="middle" x="54.12" y="-64" font-family="Helvetica,sans-Serif" font-size="10.00">/Enums.h.inc</text>
</a>
</g>
</g>
<!-- Node3&#45;&gt;Node8 -->
<g id="edge7_Node000003_Node000008" class="edge">
<title>Node3&#45;&gt;Node8</title>
<g id="a_edge7_Node000003_Node000008"><a xlink:title=" ">
<path fill="none" stroke="#63b8ff" d="M163.63,-125.83C144.13,-116.69 119.53,-105.16 98.59,-95.34"/>
<polygon fill="#63b8ff" stroke="#63b8ff" points="100.25,-92.25 89.71,-91.18 97.27,-98.59 100.25,-92.25"/>
</a>
</g>
</g>
<!-- Node12 -->
<g id="Node000012" class="node">
<title>Node12</title>
<g id="a_Node000012"><a xlink:title=" ">
<polygon fill="#e0e0e0" stroke="#999999" points="755.38,-153.38 644.88,-153.38 644.88,-132.62 755.38,-132.62 755.38,-153.38"/>
<text text-anchor="middle" x="700.12" y="-139.88" font-family="Helvetica,sans-Serif" font-size="10.00">mlir/IR/BuiltinOps.h</text>
</a>
</g>
</g>
<!-- Node11&#45;&gt;Node12 -->
<g id="edge11_Node000011_Node000012" class="edge">
<title>Node11&#45;&gt;Node12</title>
<g id="a_edge11_Node000011_Node000012"><a xlink:title=" ">
<path fill="none" stroke="#63b8ff" d="M755.21,-264.95C742.42,-255.99 728.02,-243.72 719.12,-229.25 707.05,-209.61 702.62,-183.24 701.01,-165.05"/>
<polygon fill="#63b8ff" stroke="#63b8ff" points="704.51,-164.97 700.37,-155.22 697.52,-165.42 704.51,-164.97"/>
</a>
</g>
</g>
<!-- Node13 -->
<g id="Node000013" class="node">
<title>Node13</title>
<g id="a_Node000013"><a xlink:href="Bool_2IR_2Dialect_8h_8inc.html" target="_top" xlink:title=" ">
<polygon fill="white" stroke="#666666" points="836.25,-229.25 728,-229.25 728,-195.75 836.25,-195.75 836.25,-229.25"/>
<text text-anchor="start" x="736" y="-215.75" font-family="Helvetica,sans-Serif" font-size="10.00">llzk/Dialect/Bool/IR</text>
<text text-anchor="middle" x="782.12" y="-203" font-family="Helvetica,sans-Serif" font-size="10.00">/Dialect.h.inc</text>
</a>
</g>
</g>
<!-- Node11&#45;&gt;Node13 -->
<g id="edge12_Node000011_Node000013" class="edge">
<title>Node11&#45;&gt;Node13</title>
<g id="a_edge12_Node000011_Node000013"><a xlink:title=" ">
<path fill="none" stroke="#63b8ff" d="M782.12,-265C782.12,-257.77 782.12,-249.03 782.12,-240.81"/>
<polygon fill="#63b8ff" stroke="#63b8ff" points="785.63,-240.9 782.13,-230.9 778.63,-240.9 785.63,-240.9"/>
</a>
</g>
</g>
<!-- Node15 -->
<g id="Node000015" class="node">
<title>Node15</title>
<g id="a_Node000015"><a xlink:href="Felt_2IR_2Dialect_8h.html" target="_top" xlink:title=" ">
<polygon fill="white" stroke="#666666" points="958.38,-229.25 853.88,-229.25 853.88,-195.75 958.38,-195.75 958.38,-229.25"/>
<text text-anchor="start" x="861.88" y="-215.75" font-family="Helvetica,sans-Serif" font-size="10.00">llzk/Dialect/Felt/IR</text>
<text text-anchor="middle" x="906.12" y="-203" font-family="Helvetica,sans-Serif" font-size="10.00">/Dialect.h</text>
</a>
</g>
</g>
<!-- Node14&#45;&gt;Node15 -->
<g id="edge14_Node000014_Node000015" class="edge">
<title>Node14&#45;&gt;Node15</title>
<g id="a_edge14_Node000014_Node000015"><a xlink:title=" ">
<path fill="none" stroke="#63b8ff" d="M1287.77,-272.86C1207.94,-260.44 1055.99,-236.81 969.85,-223.41"/>
<polygon fill="#63b8ff" stroke="#63b8ff" points="970.58,-219.98 960.16,-221.9 969.5,-226.9 970.58,-219.98"/>
</a>
</g>
</g>
<!-- Node17 -->
<g id="Node000017" class="node">
<title>Node17</title>
<g id="a_Node000017"><a xlink:href="Field_8h.html" target="_top" xlink:title=" ">
<polygon fill="white" stroke="#666666" points="1442.5,-222.88 1353.75,-222.88 1353.75,-202.12 1442.5,-202.12 1442.5,-222.88"/>
<text text-anchor="middle" x="1398.12" y="-209.38" font-family="Helvetica,sans-Serif" font-size="10.00">llzk/Util/Field.h</text>
</a>
</g>
</g>
<!-- Node14&#45;&gt;Node17 -->
<g id="edge17_Node000014_Node000017" class="edge">
<title>Node14&#45;&gt;Node17</title>
<g id="a_edge17_Node000014_Node000017"><a xlink:title=" ">
<path fill="none" stroke="#63b8ff" d="M1353.87,-265C1362.39,-255.09 1373.35,-242.33 1382.24,-231.99"/>
<polygon fill="#63b8ff" stroke="#63b8ff" points="1384.84,-234.34 1388.7,-224.47 1379.53,-229.77 1384.84,-234.34"/>
</a>
</g>
</g>
<!-- Node44 -->
<g id="Node000044" class="node">
<title>Node44</title>
<g id="a_Node000044"><a xlink:href="Felt_2IR_2Types_8h_8inc.html" target="_top" xlink:title=" ">
<polygon fill="white" stroke="#666666" points="1335.38,-229.25 1230.88,-229.25 1230.88,-195.75 1335.38,-195.75 1335.38,-229.25"/>
<text text-anchor="start" x="1238.88" y="-215.75" font-family="Helvetica,sans-Serif" font-size="10.00">llzk/Dialect/Felt/IR</text>
<text text-anchor="middle" x="1283.12" y="-203" font-family="Helvetica,sans-Serif" font-size="10.00">/Types.h.inc</text>
</a>
</g>
</g>
<!-- Node14&#45;&gt;Node44 -->
<g id="edge49_Node000014_Node000044" class="edge">
<title>Node14&#45;&gt;Node44</title>
<g id="a_edge49_Node000014_Node000044"><a xlink:title=" ">
<path fill="none" stroke="#63b8ff" d="M1326.62,-265C1319.8,-256.93 1311.39,-246.97 1303.78,-237.96"/>
<polygon fill="#63b8ff" stroke="#63b8ff" points="1306.64,-235.92 1297.51,-230.54 1301.29,-240.44 1306.64,-235.92"/>
</a>
</g>
</g>
<!-- Node15&#45;&gt;Node12 -->
<g id="edge15_Node000015_Node000012" class="edge">
<title>Node15&#45;&gt;Node12</title>
<g id="a_edge15_Node000015_Node000012"><a xlink:title=" ">
<path fill="none" stroke="#63b8ff" d="M856.78,-195.33C821.39,-183.73 774.26,-168.29 740.97,-157.38"/>
<polygon fill="#63b8ff" stroke="#63b8ff" points="742.28,-154.13 731.68,-154.34 740.1,-160.78 742.28,-154.13"/>
</a>
</g>
</g>
<!-- Node16 -->
<g id="Node000016" class="node">
<title>Node16</title>
<g id="a_Node000016"><a xlink:href="Felt_2IR_2Dialect_8h_8inc.html" target="_top" xlink:title=" ">
<polygon fill="white" stroke="#666666" points="626.38,-159.75 521.88,-159.75 521.88,-126.25 626.38,-126.25 626.38,-159.75"/>
<text text-anchor="start" x="529.88" y="-146.25" font-family="Helvetica,sans-Serif" font-size="10.00">llzk/Dialect/Felt/IR</text>
<text text-anchor="middle" x="574.12" y="-133.5" font-family="Helvetica,sans-Serif" font-size="10.00">/Dialect.h.inc</text>
</a>
</g>
</g>
<!-- Node15&#45;&gt;Node16 -->
<g id="edge16_Node000015_Node000016" class="edge">
<title>Node15&#45;&gt;Node16</title>
<g id="a_edge16_Node000015_Node000016"><a xlink:title=" ">
<path fill="none" stroke="#63b8ff" d="M853.62,-197.65C850.75,-196.99 847.91,-196.35 845.12,-195.75 756.39,-176.69 730.24,-179.15 637.81,-160"/>
<polygon fill="#63b8ff" stroke="#63b8ff" points="638.81,-156.63 628.31,-158 637.37,-163.48 638.81,-156.63"/>
</a>
</g>
</g>
<!-- Node17&#45;&gt;Node12 -->
<g id="edge39_Node000017_Node000012" class="edge">
<title>Node17&#45;&gt;Node12</title>
<g id="a_edge39_Node000017_Node000012"><a xlink:title=" ">
<path fill="none" stroke="#63b8ff" d="M1368.69,-201.64C1360.8,-199.34 1352.21,-197.16 1344.12,-195.75 1089.7,-151.32 1019.43,-198.77 764.12,-159.75 758.19,-158.84 751.99,-157.64 745.9,-156.31"/>
<polygon fill="#63b8ff" stroke="#63b8ff" points="747.11,-153 736.58,-154.15 745.53,-159.82 747.11,-153"/>
</a>
</g>
</g>
<!-- Node18 -->
<g id="Node000018" class="node">
<title>Node18</title>
<g id="a_Node000018"><a xlink:href="DynamicAPIntHelper_8h.html" target="_top" xlink:title="This file implements helper methods for constructing DynamicAPInts.">
<polygon fill="white" stroke="#666666" points="1642.12,-153.38 1476.12,-153.38 1476.12,-132.62 1642.12,-132.62 1642.12,-153.38"/>
<text text-anchor="middle" x="1559.12" y="-139.88" font-family="Helvetica,sans-Serif" font-size="10.00">llzk/Util/DynamicAPIntHelper.h</text>
</a>
</g>
</g>
<!-- Node17&#45;&gt;Node18 -->
<g id="edge18_Node000017_Node000018" class="edge">
<title>Node17&#45;&gt;Node18</title>
<g id="a_edge18_Node000017_Node000018"><a xlink:title=" ">
<path fill="none" stroke="#63b8ff" d="M1421.54,-201.68C1448.84,-190.24 1494.2,-171.22 1525.32,-158.17"/>
<polygon fill="#63b8ff" stroke="#63b8ff" points="1526.42,-161.51 1534.29,-154.41 1523.71,-155.05 1526.42,-161.51"/>
</a>
</g>
</g>
<!-- Node25 -->
<g id="Node000025" class="node">
<title>Node25</title>
<g id="a_Node000025"><a xlink:title=" ">
<polygon fill="#e0e0e0" stroke="#999999" points="2247.12,-83.88 2105.12,-83.88 2105.12,-63.12 2247.12,-63.12 2247.12,-83.88"/>
<text text-anchor="middle" x="2176.12" y="-70.38" font-family="Helvetica,sans-Serif" font-size="10.00">llvm/ADT/DynamicAPInt.h</text>
</a>
</g>
</g>
<!-- Node17&#45;&gt;Node25 -->
<g id="edge42_Node000017_Node000025" class="edge">
<title>Node17&#45;&gt;Node25</title>
<g id="a_edge42_Node000017_Node000025"><a xlink:title=" ">
<path fill="none" stroke="#63b8ff" d="M1442.89,-210.35C1610.3,-205.85 2191.4,-188.22 2218.12,-159.75 2236.63,-140.04 2214.23,-110.62 2195.71,-92.01"/>
<polygon fill="#63b8ff" stroke="#63b8ff" points="2198.38,-89.72 2188.73,-85.34 2193.54,-94.78 2198.38,-89.72"/>
</a>
</g>
</g>
<!-- Node30 -->
<g id="Node000030" class="node">
<title>Node30</title>
<g id="a_Node000030"><a xlink:href="ErrorHelper_8h.html" target="_top" xlink:title=" ">
<polygon fill="white" stroke="#666666" points="1458.25,-153.38 1338,-153.38 1338,-132.62 1458.25,-132.62 1458.25,-153.38"/>
<text text-anchor="middle" x="1398.12" y="-139.88" font-family="Helvetica,sans-Serif" font-size="10.00">llzk/Util/ErrorHelper.h</text>
</a>
</g>
</g>
<!-- Node17&#45;&gt;Node30 -->
<g id="edge31_Node000017_Node000030" class="edge">
<title>Node17&#45;&gt;Node30</title>
<g id="a_edge31_Node000017_Node000030"><a xlink:title=" ">
<path fill="none" stroke="#63b8ff" d="M1398.12,-201.83C1398.12,-192.21 1398.12,-177.13 1398.12,-164.79"/>
<polygon fill="#63b8ff" stroke="#63b8ff" points="1401.63,-165.17 1398.13,-155.17 1394.63,-165.17 1401.63,-165.17"/>
</a>
</g>
</g>
<!-- Node35 -->
<g id="Node000035" class="node">
<title>Node35</title>
<g id="a_Node000035"><a xlink:title=" ">
<polygon fill="#e0e0e0" stroke="#999999" points="1800,-153.38 1660.25,-153.38 1660.25,-132.62 1800,-132.62 1800,-153.38"/>
<text text-anchor="middle" x="1730.12" y="-139.88" font-family="Helvetica,sans-Serif" font-size="10.00">mlir/IR/BuiltinAttributes.h</text>
</a>
</g>
</g>
<!-- Node17&#45;&gt;Node35 -->
<g id="edge38_Node000017_Node000035" class="edge">
<title>Node17&#45;&gt;Node35</title>
<g id="a_edge38_Node000017_Node000035"><a xlink:title=" ">
<path fill="none" stroke="#63b8ff" d="M1442.9,-202.4C1501.8,-190.42 1605.45,-169.35 1670.82,-156.06"/>
<polygon fill="#63b8ff" stroke="#63b8ff" points="1671.18,-159.56 1680.28,-154.13 1669.78,-152.7 1671.18,-159.56"/>
</a>
</g>
</g>
<!-- Node36 -->
<g id="Node000036" class="node">
<title>Node36</title>
<g id="a_Node000036"><a xlink:title=" ">
<polygon fill="#e0e0e0" stroke="#999999" points="1931.88,-153.38 1818.38,-153.38 1818.38,-132.62 1931.88,-132.62 1931.88,-153.38"/>
<text text-anchor="middle" x="1875.12" y="-139.88" font-family="Helvetica,sans-Serif" font-size="10.00">mlir/Support/LLVM.h</text>
</a>
</g>
</g>
<!-- Node17&#45;&gt;Node36 -->
<g id="edge40_Node000017_Node000036" class="edge">
<title>Node17&#45;&gt;Node36</title>
<g id="a_edge40_Node000017_Node000036"><a xlink:title=" ">
<path fill="none" stroke="#63b8ff" d="M1442.77,-207.49C1518.49,-200.32 1676.81,-183.79 1809.12,-159.75 1814.63,-158.75 1820.37,-157.58 1826.07,-156.33"/>
<polygon fill="#63b8ff" stroke="#63b8ff" points="1826.43,-159.84 1835.41,-154.21 1824.88,-153.01 1826.43,-159.84"/>
</a>
</g>
</g>
<!-- Node37 -->
<g id="Node000037" class="node">
<title>Node37</title>
<g id="a_Node000037"><a xlink:title=" ">
<polygon fill="#e0e0e0" stroke="#999999" points="2074.5,-153.38 1949.75,-153.38 1949.75,-132.62 2074.5,-132.62 2074.5,-153.38"/>
<text text-anchor="middle" x="2012.12" y="-139.88" font-family="Helvetica,sans-Serif" font-size="10.00">llvm/ADT/DenseMap.h</text>
</a>
</g>
</g>
<!-- Node17&#45;&gt;Node37 -->
<g id="edge41_Node000017_Node000037" class="edge">
<title>Node17&#45;&gt;Node37</title>
<g id="a_edge41_Node000017_Node000037"><a xlink:title=" ">
<path fill="none" stroke="#63b8ff" d="M1442.7,-209.12C1535.76,-203.74 1757.32,-188.78 1941.12,-159.75 1947.52,-158.74 1954.19,-157.5 1960.79,-156.17"/>
<polygon fill="#63b8ff" stroke="#63b8ff" points="1961.2,-159.66 1970.26,-154.17 1959.75,-152.81 1961.2,-159.66"/>
</a>
</g>
</g>
<!-- Node38 -->
<g id="Node000038" class="node">
<title>Node38</title>
<g id="a_Node000038"><a xlink:title=" ">
<polygon fill="#e0e0e0" stroke="#999999" points="2209.38,-153.38 2092.88,-153.38 2092.88,-132.62 2209.38,-132.62 2209.38,-153.38"/>
<text text-anchor="middle" x="2151.12" y="-139.88" font-family="Helvetica,sans-Serif" font-size="10.00">llvm/ADT/SmallSet.h</text>
</a>
</g>
</g>
<!-- Node17&#45;&gt;Node38 -->
<g id="edge43_Node000017_Node000038" class="edge">
<title>Node17&#45;&gt;Node38</title>
<g id="a_edge43_Node000017_Node000038"><a xlink:title=" ">
<path fill="none" stroke="#63b8ff" d="M1442.87,-210.47C1552.58,-207.45 1843.5,-196.33 2083.12,-159.75 2089.26,-158.81 2095.67,-157.62 2101.99,-156.31"/>
<polygon fill="#63b8ff" stroke="#63b8ff" points="2102.7,-159.74 2111.72,-154.18 2101.2,-152.9 2102.7,-159.74"/>
</a>
</g>
</g>
<!-- Node39 -->
<g id="Node000039" class="node">
<title>Node39</title>
<g id="a_Node000039"><a xlink:title=" ">
<polygon fill="#e0e0e0" stroke="#999999" points="928.88,-153.38 773.38,-153.38 773.38,-132.62 928.88,-132.62 928.88,-153.38"/>
<text text-anchor="middle" x="851.12" y="-139.88" font-family="Helvetica,sans-Serif" font-size="10.00">llvm/Support/LogicalResult.h</text>
</a>
</g>
</g>
<!-- Node17&#45;&gt;Node39 -->
<g id="edge44_Node000017_Node000039" class="edge">
<title>Node17&#45;&gt;Node39</title>
<g id="a_edge44_Node000017_Node000039"><a xlink:title=" ">
<path fill="none" stroke="#63b8ff" d="M1368.39,-201.7C1360.57,-199.43 1352.09,-197.25 1344.12,-195.75 1166.1,-162.23 1117.66,-183.91 938.12,-159.75 929.77,-158.63 920.99,-157.26 912.36,-155.8"/>
<polygon fill="#63b8ff" stroke="#63b8ff" points="913.09,-152.38 902.64,-154.12 911.89,-159.28 913.09,-152.38"/>
</a>
</g>
</g>
<!-- Node40 -->
<g id="Node000040" class="node">
<title>Node40</title>
<g id="a_Node000040"><a xlink:title=" ">
<polygon fill="#e0e0e0" stroke="#999999" points="1073.25,-153.38 947,-153.38 947,-132.62 1073.25,-132.62 1073.25,-153.38"/>
<text text-anchor="middle" x="1010.12" y="-139.88" font-family="Helvetica,sans-Serif" font-size="10.00">llvm/Support/SMTAPI.h</text>
</a>
</g>
</g>
<!-- Node17&#45;&gt;Node40 -->
<g id="edge45_Node000017_Node000040" class="edge">
<title>Node17&#45;&gt;Node40</title>
<g id="a_edge45_Node000017_Node000040"><a xlink:title=" ">
<path fill="none" stroke="#63b8ff" d="M1367.2,-201.63C1359.7,-199.48 1351.67,-197.36 1344.12,-195.75 1229.61,-171.29 1198.44,-180.11 1083.12,-159.75 1077.06,-158.68 1070.73,-157.46 1064.45,-156.19"/>
<polygon fill="#63b8ff" stroke="#63b8ff" points="1065.24,-152.78 1054.73,-154.18 1063.81,-159.64 1065.24,-152.78"/>
</a>
</g>
</g>
<!-- Node41 -->
<g id="Node000041" class="node">
<title>Node41</title>
<g id="a_Node000041"><a xlink:title=" ">
<polygon fill="#e0e0e0" stroke="#999999" points="1156.5,-153.38 1091.75,-153.38 1091.75,-132.62 1156.5,-132.62 1156.5,-153.38"/>
<text text-anchor="middle" x="1124.12" y="-139.88" font-family="Helvetica,sans-Serif" font-size="10.00">functional</text>
</a>
</g>
</g>
<!-- Node17&#45;&gt;Node41 -->
<g id="edge46_Node000017_Node000041" class="edge">
<title>Node17&#45;&gt;Node41</title>
<g id="a_edge46_Node000017_Node000041"><a xlink:title=" ">
<path fill="none" stroke="#63b8ff" d="M1365.98,-201.64C1358.82,-199.58 1351.24,-197.5 1344.12,-195.75 1265.32,-176.37 1243.05,-182.38 1165.12,-159.75 1162.89,-159.1 1160.61,-158.39 1158.33,-157.63"/>
<polygon fill="#63b8ff" stroke="#63b8ff" points="1159.76,-154.42 1149.17,-154.36 1157.41,-161.01 1159.76,-154.42"/>
</a>
</g>
</g>
<!-- Node42 -->
<g id="Node000042" class="node">
<title>Node42</title>
<g id="a_Node000042"><a xlink:title=" ">
<polygon fill="#e0e0e0" stroke="#999999" points="1230,-153.38 1174.25,-153.38 1174.25,-132.62 1230,-132.62 1230,-153.38"/>
<text text-anchor="middle" x="1202.12" y="-139.88" font-family="Helvetica,sans-Serif" font-size="10.00">optional</text>
</a>
</g>
</g>
<!-- Node17&#45;&gt;Node42 -->
<g id="edge47_Node000017_Node000042" class="edge">
<title>Node17&#45;&gt;Node42</title>
<g id="a_edge47_Node000017_Node000042"><a xlink:title=" ">
<path fill="none" stroke="#63b8ff" d="M1364.94,-201.63C1332.57,-191.79 1282.07,-175.85 1239.12,-159.75 1237.61,-159.18 1236.07,-158.59 1234.52,-157.98"/>
<polygon fill="#63b8ff" stroke="#63b8ff" points="1236.28,-154.92 1225.7,-154.39 1233.64,-161.4 1236.28,-154.92"/>
</a>
</g>
</g>
<!-- Node43 -->
<g id="Node000043" class="node">
<title>Node43</title>
<g id="a_Node000043"><a xlink:title=" ">
<polygon fill="#e0e0e0" stroke="#999999" points="1320.25,-153.38 1248,-153.38 1248,-132.62 1320.25,-132.62 1320.25,-153.38"/>
<text text-anchor="middle" x="1284.12" y="-139.88" font-family="Helvetica,sans-Serif" font-size="10.00">string_view</text>
</a>
</g>
</g>
<!-- Node17&#45;&gt;Node43 -->
<g id="edge48_Node000017_Node000043" class="edge">
<title>Node17&#45;&gt;Node43</title>
<g id="a_edge48_Node000017_Node000043"><a xlink:title=" ">
<path fill="none" stroke="#63b8ff" d="M1381.79,-201.83C1363.19,-190.81 1332.53,-172.66 1310.52,-159.63"/>
<polygon fill="#63b8ff" stroke="#63b8ff" points="1312.49,-156.73 1302.1,-154.64 1308.92,-162.75 1312.49,-156.73"/>
</a>
</g>
</g>
<!-- Node18&#45;&gt;Node6 -->
<g id="edge27_Node000018_Node000006" class="edge">
<title>Node18&#45;&gt;Node6</title>
<g id="a_edge27_Node000018_Node000006"><a xlink:title=" ">
<path fill="none" stroke="#63b8ff" d="M1508.18,-132.16C1494.86,-129.9 1480.49,-127.73 1467.12,-126.25 1150.87,-91.34 1067.68,-131.07 752.12,-90.25 744.68,-89.29 736.87,-87.98 729.22,-86.53"/>
<polygon fill="#63b8ff" stroke="#63b8ff" points="730.17,-83.15 719.67,-84.63 728.8,-90.02 730.17,-83.15"/>
</a>
</g>
</g>
<!-- Node19 -->
<g id="Node000019" class="node">
<title>Node19</title>
<g id="a_Node000019"><a xlink:href="Compare_8h.html" target="_top" xlink:title=" ">
<polygon fill="white" stroke="#666666" points="1781,-83.88 1671.25,-83.88 1671.25,-63.12 1781,-63.12 1781,-83.88"/>
<text text-anchor="middle" x="1726.12" y="-70.38" font-family="Helvetica,sans-Serif" font-size="10.00">llzk/Util/Compare.h</text>
</a>
</g>
</g>
<!-- Node18&#45;&gt;Node19 -->
<g id="edge19_Node000018_Node000019" class="edge">
<title>Node18&#45;&gt;Node19</title>
<g id="a_edge19_Node000018_Node000019"><a xlink:title=" ">
<path fill="none" stroke="#63b8ff" d="M1583.41,-132.18C1611.85,-120.69 1659.19,-101.55 1691.49,-88.5"/>
<polygon fill="#63b8ff" stroke="#63b8ff" points="1692.45,-91.89 1700.41,-84.89 1689.83,-85.4 1692.45,-91.89"/>
</a>
</g>
</g>
<!-- Node23 -->
<g id="Node000023" class="node">
<title>Node23</title>
<g id="a_Node000023"><a xlink:title=" ">
<polygon fill="#e0e0e0" stroke="#999999" points="1964.38,-83.88 1865.88,-83.88 1865.88,-63.12 1964.38,-63.12 1964.38,-83.88"/>
<text text-anchor="middle" x="1915.12" y="-70.38" font-family="Helvetica,sans-Serif" font-size="10.00">llvm/ADT/APInt.h</text>
</a>
</g>
</g>
<!-- Node18&#45;&gt;Node23 -->
<g id="edge23_Node000018_Node000023" class="edge">
<title>Node18&#45;&gt;Node23</title>
<g id="a_edge23_Node000018_Node000023"><a xlink:title=" ">
<path fill="none" stroke="#63b8ff" d="M1616.51,-132.18C1699.76,-117.9 1845.46,-92.84 1857.12,-90.25 1861.36,-89.31 1865.75,-88.26 1870.13,-87.16"/>
<polygon fill="#63b8ff" stroke="#63b8ff" points="1870.64,-90.64 1879.44,-84.74 1868.88,-83.87 1870.64,-90.64"/>
</a>
</g>
</g>
<!-- Node24 -->
<g id="Node000024" class="node">
<title>Node24</title>
<g id="a_Node000024"><a xlink:title=" ">
<polygon fill="#e0e0e0" stroke="#999999" points="2087.38,-83.88 1982.88,-83.88 1982.88,-63.12 2087.38,-63.12 2087.38,-83.88"/>
<text text-anchor="middle" x="2035.12" y="-70.38" font-family="Helvetica,sans-Serif" font-size="10.00">llvm/ADT/APSInt.h</text>
</a>
</g>
</g>
<!-- Node18&#45;&gt;Node24 -->
<g id="edge24_Node000018_Node000024" class="edge">
<title>Node18&#45;&gt;Node24</title>
<g id="a_edge24_Node000018_Node000024"><a xlink:title=" ">
<path fill="none" stroke="#63b8ff" d="M1613.53,-132.15C1625.87,-130.06 1638.93,-127.97 1651.12,-126.25 1793.71,-106.09 1831.45,-116.04 1973.12,-90.25 1978.31,-89.31 1983.71,-88.17 1989.06,-86.94"/>
<polygon fill="#63b8ff" stroke="#63b8ff" points="1989.52,-90.43 1998.43,-84.69 1987.89,-83.63 1989.52,-90.43"/>
</a>
</g>
</g>
<!-- Node18&#45;&gt;Node25 -->
<g id="edge25_Node000018_Node000025" class="edge">
<title>Node18&#45;&gt;Node25</title>
<g id="a_edge25_Node000018_Node000025"><a xlink:title=" ">
<path fill="none" stroke="#63b8ff" d="M1611.55,-132.2C1624.45,-130.01 1638.26,-127.87 1651.12,-126.25 1848,-101.48 1899.58,-117.46 2096.12,-90.25 2103.84,-89.18 2111.94,-87.84 2119.9,-86.4"/>
<polygon fill="#63b8ff" stroke="#63b8ff" points="2120.34,-89.88 2129.52,-84.59 2119.04,-83 2120.34,-89.88"/>
</a>
</g>
</g>
<!-- Node26 -->
<g id="Node000026" class="node">
<title>Node26</title>
<g id="a_Node000026"><a xlink:title=" ">
<polygon fill="#e0e0e0" stroke="#999999" points="1515.75,-83.88 1350.5,-83.88 1350.5,-63.12 1515.75,-63.12 1515.75,-83.88"/>
<text text-anchor="middle" x="1433.12" y="-70.38" font-family="Helvetica,sans-Serif" font-size="10.00">llvm/ADT/SlowDynamicAPInt.h</text>
</a>
</g>
</g>
<!-- Node18&#45;&gt;Node26 -->
<g id="edge26_Node000018_Node000026" class="edge">
<title>Node18&#45;&gt;Node26</title>
<g id="a_edge26_Node000018_Node000026"><a xlink:title=" ">
<path fill="none" stroke="#63b8ff" d="M1540.8,-132.18C1519.99,-121.04 1485.79,-102.71 1461.52,-89.71"/>
<polygon fill="#63b8ff" stroke="#63b8ff" points="1463.27,-86.68 1452.8,-85.04 1459.96,-92.85 1463.27,-86.68"/>
</a>
</g>
</g>
<!-- Node27 -->
<g id="Node000027" class="node">
<title>Node27</title>
<g id="a_Node000027"><a xlink:title=" ">
<polygon fill="#e0e0e0" stroke="#999999" points="1582.62,-83.88 1533.62,-83.88 1533.62,-63.12 1582.62,-63.12 1582.62,-83.88"/>
<text text-anchor="middle" x="1558.12" y="-70.38" font-family="Helvetica,sans-Serif" font-size="10.00">climits</text>
</a>
</g>
</g>
<!-- Node18&#45;&gt;Node27 -->
<g id="edge28_Node000018_Node000027" class="edge">
<title>Node18&#45;&gt;Node27</title>
<g id="a_edge28_Node000018_Node000027"><a xlink:title=" ">
<path fill="none" stroke="#63b8ff" d="M1558.98,-132.33C1558.84,-122.71 1558.62,-107.63 1558.43,-95.29"/>
<polygon fill="#63b8ff" stroke="#63b8ff" points="1561.94,-95.61 1558.29,-85.67 1554.94,-95.72 1561.94,-95.61"/>
</a>
</g>
</g>
<!-- Node28 -->
<g id="Node000028" class="node">
<title>Node28</title>
<g id="a_Node000028"><a xlink:title=" ">
<polygon fill="#e0e0e0" stroke="#999999" points="1653.12,-83.88 1601.12,-83.88 1601.12,-63.12 1653.12,-63.12 1653.12,-83.88"/>
<text text-anchor="middle" x="1627.12" y="-70.38" font-family="Helvetica,sans-Serif" font-size="10.00">cstddef</text>
</a>
</g>
</g>
<!-- Node18&#45;&gt;Node28 -->
<g id="edge29_Node000018_Node000028" class="edge">
<title>Node18&#45;&gt;Node28</title>
<g id="a_edge29_Node000018_Node000028"><a xlink:title=" ">
<path fill="none" stroke="#63b8ff" d="M1568.87,-132.33C1579.37,-121.9 1596.32,-105.08 1609.23,-92.26"/>
<polygon fill="#63b8ff" stroke="#63b8ff" points="1611.69,-94.75 1616.33,-85.22 1606.76,-89.78 1611.69,-94.75"/>
</a>
</g>
</g>
<!-- Node29 -->
<g id="Node000029" class="node">
<title>Node29</title>
<g id="a_Node000029"><a xlink:title=" ">
<polygon fill="#e0e0e0" stroke="#999999" points="1847.62,-83.88 1798.62,-83.88 1798.62,-63.12 1847.62,-63.12 1847.62,-83.88"/>
<text text-anchor="middle" x="1823.12" y="-70.38" font-family="Helvetica,sans-Serif" font-size="10.00">cstdint</text>
</a>
</g>
</g>
<!-- Node18&#45;&gt;Node29 -->
<g id="edge30_Node000018_Node000029" class="edge">
<title>Node18&#45;&gt;Node29</title>
<g id="a_edge30_Node000018_Node000029"><a xlink:title=" ">
<path fill="none" stroke="#63b8ff" d="M1609.15,-132.17C1666.61,-120.63 1757.21,-101.63 1790.12,-90.25 1791.47,-89.78 1792.84,-89.28 1794.21,-88.74"/>
<polygon fill="#63b8ff" stroke="#63b8ff" points="1795.41,-92.04 1803.2,-84.85 1792.63,-85.61 1795.41,-92.04"/>
</a>
</g>
</g>
<!-- Node20 -->
<g id="Node000020" class="node">
<title>Node20</title>
<g id="a_Node000020"><a xlink:title=" ">
<polygon fill="#e0e0e0" stroke="#999999" points="1874.25,-20.75 1766,-20.75 1766,0 1874.25,0 1874.25,-20.75"/>
<text text-anchor="middle" x="1820.12" y="-7.25" font-family="Helvetica,sans-Serif" font-size="10.00">mlir/IR/Operation.h</text>
</a>
</g>
</g>
<!-- Node19&#45;&gt;Node20 -->
<g id="edge20_Node000019_Node000020" class="edge">
<title>Node19&#45;&gt;Node20</title>
<g id="a_edge20_Node000019_Node000020"><a xlink:title=" ">
<path fill="none" stroke="#63b8ff" d="M1741.23,-62.68C1755.89,-53.14 1778.4,-38.51 1795.63,-27.31"/>
<polygon fill="#63b8ff" stroke="#63b8ff" points="1797.32,-30.38 1803.79,-22 1793.5,-24.51 1797.32,-30.38"/>
</a>
</g>
</g>
<!-- Node21 -->
<g id="Node000021" class="node">
<title>Node21</title>
<g id="a_Node000021"><a xlink:title=" ">
<polygon fill="#e0e0e0" stroke="#999999" points="1685.88,-20.75 1626.38,-20.75 1626.38,0 1685.88,0 1685.88,-20.75"/>
<text text-anchor="middle" x="1656.12" y="-7.25" font-family="Helvetica,sans-Serif" font-size="10.00">concepts</text>
</a>
</g>
</g>
<!-- Node19&#45;&gt;Node21 -->
<g id="edge21_Node000019_Node000021" class="edge">
<title>Node19&#45;&gt;Node21</title>
<g id="a_edge21_Node000019_Node000021"><a xlink:title=" ">
<path fill="none" stroke="#63b8ff" d="M1714.88,-62.68C1704.3,-53.45 1688.25,-39.43 1675.6,-28.38"/>
<polygon fill="#63b8ff" stroke="#63b8ff" points="1678.09,-25.91 1668.25,-21.97 1673.48,-31.18 1678.09,-25.91"/>
</a>
</g>
</g>
<!-- Node22 -->
<g id="Node000022" class="node">
<title>Node22</title>
<g id="a_Node000022"><a xlink:title=" ">
<polygon fill="#e0e0e0" stroke="#999999" points="1748.38,-20.75 1703.88,-20.75 1703.88,0 1748.38,0 1748.38,-20.75"/>
<text text-anchor="middle" x="1726.12" y="-7.25" font-family="Helvetica,sans-Serif" font-size="10.00">utility</text>
</a>
</g>
</g>
<!-- Node19&#45;&gt;Node22 -->
<g id="edge22_Node000019_Node000022" class="edge">
<title>Node19&#45;&gt;Node22</title>
<g id="a_edge22_Node000019_Node000022"><a xlink:title=" ">
<path fill="none" stroke="#63b8ff" d="M1726.12,-62.68C1726.12,-54.52 1726.12,-42.63 1726.12,-32.35"/>
<polygon fill="#63b8ff" stroke="#63b8ff" points="1729.63,-32.48 1726.13,-22.48 1722.63,-32.48 1729.63,-32.48"/>
</a>
</g>
</g>
<!-- Node30&#45;&gt;Node4 -->
<g id="edge32_Node000030_Node000004" class="edge">
<title>Node30&#45;&gt;Node4</title>
<g id="a_edge32_Node000030_Node000004"><a xlink:title=" ">
<path fill="none" stroke="#63b8ff" d="M1360.38,-132.14C1350.29,-129.84 1339.35,-127.66 1329.12,-126.25 1011.74,-82.43 927.23,-128.56 609.12,-90.25 600.72,-89.24 591.88,-87.87 583.24,-86.36"/>
<polygon fill="#63b8ff" stroke="#63b8ff" points="584.02,-82.94 573.55,-84.58 582.75,-89.82 584.02,-82.94"/>
</a>
</g>
</g>
<!-- Node30&#45;&gt;Node20 -->
<g id="edge33_Node000030_Node000020" class="edge">
<title>Node30&#45;&gt;Node20</title>
<g id="a_edge33_Node000030_Node000020"><a xlink:title=" ">
<path fill="none" stroke="#63b8ff" d="M1355.83,-132.18C1347.01,-130.18 1337.77,-128.12 1329.12,-126.25 1246.51,-108.42 1094.17,-118.26 1152.12,-56.75 1196.41,-9.75 1650.55,-26.19 1754.21,-20.64"/>
<polygon fill="#63b8ff" stroke="#63b8ff" points="1754.3,-24.14 1764.02,-19.91 1753.79,-17.16 1754.3,-24.14"/>
</a>
</g>
</g>
<!-- Node31 -->
<g id="Node000031" class="node">
<title>Node31</title>
<g id="a_Node000031"><a xlink:title=" ">
<polygon fill="#e0e0e0" stroke="#999999" points="1332.75,-83.88 1161.5,-83.88 1161.5,-63.12 1332.75,-63.12 1332.75,-83.88"/>
<text text-anchor="middle" x="1247.12" y="-70.38" font-family="Helvetica,sans-Serif" font-size="10.00">llvm/ADT/STLFunctionalExtras.h</text>
</a>
</g>
</g>
<!-- Node30&#45;&gt;Node31 -->
<g id="edge34_Node000030_Node000031" class="edge">
<title>Node30&#45;&gt;Node31</title>
<g id="a_edge34_Node000030_Node000031"><a xlink:title=" ">
<path fill="none" stroke="#63b8ff" d="M1376.17,-132.18C1350.78,-120.84 1308.76,-102.05 1279.59,-89.01"/>
<polygon fill="#63b8ff" stroke="#63b8ff" points="1281.05,-85.83 1270.49,-84.94 1278.19,-92.22 1281.05,-85.83"/>
</a>
</g>
</g>
<!-- Node32 -->
<g id="Node000032" class="node">
<title>Node32</title>
<g id="a_Node000032"><a xlink:title=" ">
<polygon fill="#e0e0e0" stroke="#999999" points="861.5,-83.88 760.75,-83.88 760.75,-63.12 861.5,-63.12 861.5,-83.88"/>
<text text-anchor="middle" x="811.12" y="-70.38" font-family="Helvetica,sans-Serif" font-size="10.00">llvm/ADT/Twine.h</text>
</a>
</g>
</g>
<!-- Node30&#45;&gt;Node32 -->
<g id="edge35_Node000030_Node000032" class="edge">
<title>Node30&#45;&gt;Node32</title>
<g id="a_edge35_Node000030_Node000032"><a xlink:title=" ">
<path fill="none" stroke="#63b8ff" d="M1359.63,-132.17C1349.74,-129.93 1339.09,-127.77 1329.12,-126.25 1126.84,-95.4 1071.82,-124.78 870.12,-90.25 865.11,-89.39 859.9,-88.3 854.75,-87.1"/>
<polygon fill="#63b8ff" stroke="#63b8ff" points="855.68,-83.72 845.13,-84.69 853.98,-90.51 855.68,-83.72"/>
</a>
</g>
</g>
<!-- Node33 -->
<g id="Node000033" class="node">
<title>Node33</title>
<g id="a_Node000033"><a xlink:title=" ">
<polygon fill="#e0e0e0" stroke="#999999" points="1036.62,-83.88 879.62,-83.88 879.62,-63.12 1036.62,-63.12 1036.62,-83.88"/>
<text text-anchor="middle" x="958.12" y="-70.38" font-family="Helvetica,sans-Serif" font-size="10.00">llvm/Support/ErrorHandling.h</text>
</a>
</g>
</g>
<!-- Node30&#45;&gt;Node33 -->
<g id="edge36_Node000030_Node000033" class="edge">
<title>Node30&#45;&gt;Node33</title>
<g id="a_edge36_Node000030_Node000033"><a xlink:title=" ">
<path fill="none" stroke="#63b8ff" d="M1358.13,-132.17C1348.65,-130.04 1338.56,-127.92 1329.12,-126.25 1204.28,-104.12 1171.46,-109.43 1046.12,-90.25 1038.21,-89.04 1029.92,-87.68 1021.72,-86.28"/>
<polygon fill="#63b8ff" stroke="#63b8ff" points="1022.58,-82.87 1012.13,-84.61 1021.38,-89.77 1022.58,-82.87"/>
</a>
</g>
</g>
<!-- Node34 -->
<g id="Node000034" class="node">
<title>Node34</title>
<g id="a_Node000034"><a xlink:title=" ">
<polygon fill="#e0e0e0" stroke="#999999" points="1105.38,-83.88 1054.88,-83.88 1054.88,-63.12 1105.38,-63.12 1105.38,-83.88"/>
<text text-anchor="middle" x="1080.12" y="-70.38" font-family="Helvetica,sans-Serif" font-size="10.00">variant</text>
</a>
</g>
</g>
<!-- Node30&#45;&gt;Node34 -->
<g id="edge37_Node000030_Node000034" class="edge">
<title>Node30&#45;&gt;Node34</title>
<g id="a_edge37_Node000030_Node000034"><a xlink:title=" ">
<path fill="none" stroke="#63b8ff" d="M1356.61,-132.14C1347.57,-130.1 1338.04,-128.03 1329.12,-126.25 1236.26,-107.71 1210.22,-116.13 1119.12,-90.25 1117.02,-89.65 1114.87,-88.98 1112.72,-88.25"/>
<polygon fill="#63b8ff" stroke="#63b8ff" points="1114.12,-85.04 1103.53,-84.86 1111.7,-91.61 1114.12,-85.04"/>
</a>
</g>
</g>
<!-- Node45&#45;&gt;Node20 -->
<g id="edge52_Node000045_Node000020" class="edge">
<title>Node45&#45;&gt;Node20</title>
<g id="a_edge52_Node000045_Node000020"><a xlink:title=" ">
<path fill="none" stroke="#63b8ff" d="M1957.86,-266.8C2043,-244.77 2196.36,-200.66 2235.12,-159.75 2267.26,-125.84 2287.4,-91.45 2256.12,-56.75 2231.81,-29.77 2001.33,-17.8 1885.66,-13.45"/>
<polygon fill="#63b8ff" stroke="#63b8ff" points="1886.14,-9.97 1876.02,-13.1 1885.88,-16.96 1886.14,-9.97"/>
</a>
</g>
</g>
<!-- Node46 -->
<g id="Node000046" class="node">
<title>Node46</title>
<g id="a_Node000046"><a xlink:title=" ">
<polygon fill="#e0e0e0" stroke="#999999" points="2424.62,-222.88 2303.62,-222.88 2303.62,-202.12 2424.62,-202.12 2424.62,-222.88"/>
<text text-anchor="middle" x="2364.12" y="-209.38" font-family="Helvetica,sans-Serif" font-size="10.00">mlir/IR/OpDefinition.h</text>
</a>
</g>
</g>
<!-- Node45&#45;&gt;Node46 -->
<g id="edge51_Node000045_Node000046" class="edge">
<title>Node45&#45;&gt;Node46</title>
<g id="a_edge51_Node000045_Node000046"><a xlink:title=" ">
<path fill="none" stroke="#63b8ff" d="M1957.99,-266.77C1960.73,-266.22 1963.46,-265.72 1966.12,-265.25 2108.42,-240.44 2146.5,-252.12 2289.12,-229.25 2295.85,-228.17 2302.88,-226.89 2309.83,-225.54"/>
<polygon fill="#63b8ff" stroke="#63b8ff" points="2310.03,-229.07 2319.15,-223.67 2308.65,-222.21 2310.03,-229.07"/>
</a>
</g>
</g>
<!-- Node47 -->
<g id="Node000047" class="node">
<title>Node47</title>
<g id="a_Node000047"><a xlink:title=" ">
<polygon fill="#e0e0e0" stroke="#999999" points="2595.75,-222.88 2442.5,-222.88 2442.5,-202.12 2595.75,-202.12 2595.75,-222.88"/>
<text text-anchor="middle" x="2519.12" y="-209.38" font-family="Helvetica,sans-Serif" font-size="10.00">mlir/Support/LogicalResult.h</text>
</a>
</g>
</g>
<!-- Node45&#45;&gt;Node47 -->
<g id="edge53_Node000045_Node000047" class="edge">
<title>Node45&#45;&gt;Node47</title>
<g id="a_edge53_Node000045_Node000047"><a xlink:title=" ">
<path fill="none" stroke="#63b8ff" d="M1957.97,-266.65C1960.72,-266.14 1963.45,-265.67 1966.12,-265.25 2172.22,-232.94 2227.27,-256.29 2434.12,-229.25 2442.51,-228.15 2451.31,-226.78 2459.95,-225.3"/>
<polygon fill="#63b8ff" stroke="#63b8ff" points="2460.44,-228.77 2469.68,-223.57 2459.22,-221.87 2460.44,-228.77"/>
</a>
</g>
</g>
</g>
</svg>
