<?xml version="1.0" encoding="UTF-8" standalone="no"?>
<!DOCTYPE svg PUBLIC "-//W3C//DTD SVG 1.1//EN"
 "http://www.w3.org/Graphics/SVG/1.1/DTD/svg11.dtd">
<!-- Generated by graphviz version 12.2.1 (0)
 -->
<!-- Title: include/llzk/Dialect/Bool/IR/Dialect.h Pages: 1 -->
<svg width="4862pt" height="276pt"
 viewBox="0.00 0.00 4861.88 275.50" xmlns="http://www.w3.org/2000/svg" xmlns:xlink="http://www.w3.org/1999/xlink">
<g id="graph0" class="graph" transform="scale(1 1) rotate(0) translate(4 271.5)">
<title>include/llzk/Dialect/Bool/IR/Dialect.h</title>
<!-- Node1 -->
<g id="Node000001" class="node">
<title>Node1</title>
<g id="a_Node000001"><a xlink:title=" ">
<polygon fill="#999999" stroke="#666666" points="2226.62,-267.5 2117.62,-267.5 2117.62,-234 2226.62,-234 2226.62,-267.5"/>
<text text-anchor="start" x="2125.62" y="-254" font-family="Helvetica,sans-Serif" font-size="10.00">include/llzk/Dialect</text>
<text text-anchor="middle" x="2172.12" y="-241.25" font-family="Helvetica,sans-Serif" font-size="10.00">/Bool/IR/Dialect.h</text>
</a>
</g>
</g>
<!-- Node2 -->
<g id="Node000002" class="node">
<title>Node2</title>
<g id="a_Node000002"><a xlink:href="Bool_2IR_2Ops_8h.html" target="_top" xlink:title=" ">
<polygon fill="white" stroke="#666666" points="489.62,-198 380.62,-198 380.62,-164.5 489.62,-164.5 489.62,-198"/>
<text text-anchor="start" x="388.62" y="-184.5" font-family="Helvetica,sans-Serif" font-size="10.00">include/llzk/Dialect</text>
<text text-anchor="middle" x="435.12" y="-171.75" font-family="Helvetica,sans-Serif" font-size="10.00">/Bool/IR/Ops.h</text>
</a>
</g>
</g>
<!-- Node1&#45;&gt;Node2 -->
<g id="edge1_Node000001_Node000002" class="edge">
<title>Node1&#45;&gt;Node2</title>
<g id="a_edge1_Node000001_Node000002"><a xlink:title=" ">
<path fill="none" stroke="#63b8ff" d="M2106.13,-247.19C1827.08,-236.34 746.54,-194.35 489.99,-184.38"/>
<polygon fill="#63b8ff" stroke="#63b8ff" points="2105.63,-250.67 2115.76,-247.56 2105.9,-243.67 2105.63,-250.67"/>
</a>
</g>
</g>
<!-- Node6 -->
<g id="Node000006" class="node">
<title>Node6</title>
<g id="a_Node000006"><a xlink:href="Bool_8cpp.html" target="_top" xlink:title=" ">
<polygon fill="white" stroke="#666666" points="193.12,-115.75 57.12,-115.75 57.12,-95 193.12,-95 193.12,-115.75"/>
<text text-anchor="middle" x="125.12" y="-102.25" font-family="Helvetica,sans-Serif" font-size="10.00">lib/CAPI/Dialect/Bool.cpp</text>
</a>
</g>
</g>
<!-- Node1&#45;&gt;Node6 -->
<g id="edge49_Node000001_Node000006" class="edge">
<title>Node1&#45;&gt;Node6</title>
<g id="a_edge49_Node000001_Node000006"><a xlink:title=" ">
<path fill="none" stroke="#63b8ff" d="M2106.32,-249.13C1802.6,-246.12 543.71,-231.66 371.12,-198 283.23,-180.86 185.33,-136.05 144.57,-116.14"/>
<polygon fill="#63b8ff" stroke="#63b8ff" points="2106.01,-252.63 2116.04,-249.23 2106.08,-245.63 2106.01,-252.63"/>
</a>
</g>
</g>
<!-- Node7 -->
<g id="Node000007" class="node">
<title>Node7</title>
<g id="a_Node000007"><a xlink:href="Bool_2IR_2Dialect_8cpp.html" target="_top" xlink:title=" ">
<polygon fill="white" stroke="#666666" points="791.62,-122.12 688.62,-122.12 688.62,-88.62 791.62,-88.62 791.62,-122.12"/>
<text text-anchor="start" x="696.62" y="-108.62" font-family="Helvetica,sans-Serif" font-size="10.00">lib/Dialect/Bool/IR</text>
<text text-anchor="middle" x="740.12" y="-95.88" font-family="Helvetica,sans-Serif" font-size="10.00">/Dialect.cpp</text>
</a>
</g>
</g>
<!-- Node1&#45;&gt;Node7 -->
<g id="edge50_Node000001_Node000007" class="edge">
<title>Node1&#45;&gt;Node7</title>
<g id="a_edge50_Node000001_Node000007"><a xlink:title=" ">
<path fill="none" stroke="#63b8ff" d="M2106.13,-243.14C1861.71,-218.67 1010.88,-133.48 791.86,-111.55"/>
<polygon fill="#63b8ff" stroke="#63b8ff" points="2105.5,-246.6 2115.8,-244.11 2106.2,-239.63 2105.5,-246.6"/>
</a>
</g>
</g>
<!-- Node10 -->
<g id="Node000010" class="node">
<title>Node10</title>
<g id="a_Node000010"><a xlink:href="PassBase_8h.html" target="_top" xlink:title=" ">
<polygon fill="white" stroke="#666666" points="2249.12,-191.62 2095.12,-191.62 2095.12,-170.88 2249.12,-170.88 2249.12,-191.62"/>
<text text-anchor="middle" x="2172.12" y="-178.12" font-family="Helvetica,sans-Serif" font-size="10.00">include/llzk/Pass/PassBase.h</text>
</a>
</g>
</g>
<!-- Node1&#45;&gt;Node10 -->
<g id="edge10_Node000001_Node000010" class="edge">
<title>Node1&#45;&gt;Node10</title>
<g id="a_edge10_Node000001_Node000010"><a xlink:title=" ">
<path fill="none" stroke="#63b8ff" d="M2172.12,-222.28C2172.12,-211.58 2172.12,-200.01 2172.12,-192.07"/>
<polygon fill="#63b8ff" stroke="#63b8ff" points="2168.63,-222.24 2172.13,-232.24 2175.63,-222.24 2168.63,-222.24"/>
</a>
</g>
</g>
<!-- Node30 -->
<g id="Node000030" class="node">
<title>Node30</title>
<g id="a_Node000030"><a xlink:href="Dialect_2InitDialects_8cpp.html" target="_top" xlink:title=" ">
<polygon fill="white" stroke="#666666" points="4370.25,-33.5 4226,-33.5 4226,-12.75 4370.25,-12.75 4370.25,-33.5"/>
<text text-anchor="middle" x="4298.12" y="-20" font-family="Helvetica,sans-Serif" font-size="10.00">lib/Dialect/InitDialects.cpp</text>
</a>
</g>
</g>
<!-- Node1&#45;&gt;Node30 -->
<g id="edge51_Node000001_Node000030" class="edge">
<title>Node1&#45;&gt;Node30</title>
<g id="a_edge51_Node000001_Node000030"><a xlink:title=" ">
<path fill="none" stroke="#63b8ff" d="M2238.26,-249.9C2475.02,-249.51 3278.31,-239.82 3505.12,-128.5 3530.32,-116.13 3522.7,-94.15 3548.12,-82.25 3682.97,-19.13 4070.15,-70 4217.12,-46.25 4234.25,-43.48 4252.96,-38.51 4268.07,-33.97"/>
<polygon fill="#63b8ff" stroke="#63b8ff" points="2238.27,-246.4 2228.27,-249.91 2238.28,-253.4 2238.27,-246.4"/>
</a>
</g>
</g>
<!-- Node34 -->
<g id="Node000034" class="node">
<title>Node34</title>
<g id="a_Node000034"><a xlink:href="LLZKInliningExtensions_8cpp.html" target="_top" xlink:title=" ">
<polygon fill="white" stroke="#666666" points="4536.12,-39.88 4388.12,-39.88 4388.12,-6.38 4536.12,-6.38 4536.12,-39.88"/>
<text text-anchor="start" x="4396.12" y="-26.38" font-family="Helvetica,sans-Serif" font-size="10.00">lib/Transforms/LLZKInlining</text>
<text text-anchor="middle" x="4462.12" y="-13.62" font-family="Helvetica,sans-Serif" font-size="10.00">Extensions.cpp</text>
</a>
</g>
</g>
<!-- Node1&#45;&gt;Node34 -->
<g id="edge53_Node000001_Node000034" class="edge">
<title>Node1&#45;&gt;Node34</title>
<g id="a_edge53_Node000001_Node000034"><a xlink:title=" ">
<path fill="none" stroke="#63b8ff" d="M2238.41,-249.06C2415.5,-246.73 2914.25,-236.93 3327.12,-198 3385.91,-192.46 4321.27,-58.09 4379.12,-46.25 4387.45,-44.55 4396.19,-42.5 4404.73,-40.36"/>
<polygon fill="#63b8ff" stroke="#63b8ff" points="2238.43,-245.56 2228.48,-249.19 2238.52,-252.56 2238.43,-245.56"/>
</a>
</g>
</g>
<!-- Node42 -->
<g id="Node000042" class="node">
<title>Node42</title>
<g id="a_Node000042"><a xlink:href="SharedImpl_8cpp.html" target="_top" xlink:title=" ">
<polygon fill="white" stroke="#666666" points="3742,-198 3590.25,-198 3590.25,-164.5 3742,-164.5 3742,-198"/>
<text text-anchor="start" x="3598.25" y="-184.5" font-family="Helvetica,sans-Serif" font-size="10.00">lib/Dialect/Polymorphic</text>
<text text-anchor="middle" x="3666.12" y="-171.75" font-family="Helvetica,sans-Serif" font-size="10.00">/Transforms/SharedImpl.cpp</text>
</a>
</g>
</g>
<!-- Node1&#45;&gt;Node42 -->
<g id="edge52_Node000001_Node000042" class="edge">
<title>Node1&#45;&gt;Node42</title>
<g id="a_edge52_Node000001_Node000042"><a xlink:title=" ">
<path fill="none" stroke="#63b8ff" d="M2238.5,-248.51C2480.04,-243.79 3311.81,-225.87 3576.12,-198 3580.7,-197.52 3585.39,-196.94 3590.12,-196.3"/>
<polygon fill="#63b8ff" stroke="#63b8ff" points="2238.56,-245 2228.63,-248.7 2238.69,-252 2238.56,-245"/>
</a>
</g>
</g>
<!-- Node3 -->
<g id="Node000003" class="node">
<title>Node3</title>
<g id="a_Node000003"><a xlink:href="IntervalAnalysis_8h.html" target="_top" xlink:title=" ">
<polygon fill="white" stroke="#666666" points="327,-122.12 211.25,-122.12 211.25,-88.62 327,-88.62 327,-122.12"/>
<text text-anchor="start" x="219.25" y="-108.62" font-family="Helvetica,sans-Serif" font-size="10.00">include/llzk/Analysis</text>
<text text-anchor="middle" x="269.12" y="-95.88" font-family="Helvetica,sans-Serif" font-size="10.00">/IntervalAnalysis.h</text>
</a>
</g>
</g>
<!-- Node2&#45;&gt;Node3 -->
<g id="edge2_Node000002_Node000003" class="edge">
<title>Node2&#45;&gt;Node3</title>
<g id="a_edge2_Node000002_Node000003"><a xlink:title=" ">
<path fill="none" stroke="#63b8ff" d="M388.23,-159.38C361.99,-147.7 329.78,-133.37 305.47,-122.55"/>
<polygon fill="#63b8ff" stroke="#63b8ff" points="386.75,-162.55 397.31,-163.42 389.6,-156.16 386.75,-162.55"/>
</a>
</g>
</g>
<!-- Node5 -->
<g id="Node000005" class="node">
<title>Node5</title>
<g id="a_Node000005"><a xlink:href="IntervalAnalysisPass_8cpp.html" target="_top" xlink:title="This file implements the &#45;llzk&#45;print&#45;interval&#45;analysis pass.">
<polygon fill="white" stroke="#666666" points="346.12,-39.88 192.12,-39.88 192.12,-6.38 346.12,-6.38 346.12,-39.88"/>
<text text-anchor="start" x="200.12" y="-26.38" font-family="Helvetica,sans-Serif" font-size="10.00">lib/Analysis/IntervalAnalysis</text>
<text text-anchor="middle" x="269.12" y="-13.62" font-family="Helvetica,sans-Serif" font-size="10.00">Pass.cpp</text>
</a>
</g>
</g>
<!-- Node2&#45;&gt;Node5 -->
<g id="edge5_Node000002_Node000005" class="edge">
<title>Node2&#45;&gt;Node5</title>
<g id="a_edge5_Node000002_Node000005"><a xlink:title=" ">
<path fill="none" stroke="#63b8ff" d="M405.56,-156.99C395.25,-148.41 383.85,-138.37 374.12,-128.5 355.46,-109.54 354.68,-101.31 336.12,-82.25 321.41,-67.13 303.26,-51.55 289.56,-40.33"/>
<polygon fill="#63b8ff" stroke="#63b8ff" points="403.13,-159.52 413.09,-163.15 407.57,-154.11 403.13,-159.52"/>
</a>
</g>
</g>
<!-- Node2&#45;&gt;Node6 -->
<g id="edge6_Node000002_Node000006" class="edge">
<title>Node2&#45;&gt;Node6</title>
<g id="a_edge6_Node000002_Node000006"><a xlink:title=" ">
<path fill="none" stroke="#63b8ff" d="M369.09,-166.71C322.3,-156.84 258.14,-142.75 202.12,-128.5 187.43,-124.76 171.29,-120.2 157.6,-116.18"/>
<polygon fill="#63b8ff" stroke="#63b8ff" points="368.3,-170.12 378.81,-168.75 369.74,-163.27 368.3,-170.12"/>
</a>
</g>
</g>
<!-- Node2&#45;&gt;Node7 -->
<g id="edge7_Node000002_Node000007" class="edge">
<title>Node2&#45;&gt;Node7</title>
<g id="a_edge7_Node000002_Node000007"><a xlink:title=" ">
<path fill="none" stroke="#63b8ff" d="M500.9,-164.32C556.99,-150.73 636.53,-131.47 688.23,-118.94"/>
<polygon fill="#63b8ff" stroke="#63b8ff" points="500.37,-160.85 491.48,-166.6 502.02,-167.65 500.37,-160.85"/>
</a>
</g>
</g>
<!-- Node8 -->
<g id="Node000008" class="node">
<title>Node8</title>
<g id="a_Node000008"><a xlink:href="Bool_2IR_2Ops_8cpp.html" target="_top" xlink:title=" ">
<polygon fill="white" stroke="#666666" points="486.62,-122.12 383.62,-122.12 383.62,-88.62 486.62,-88.62 486.62,-122.12"/>
<text text-anchor="start" x="391.62" y="-108.62" font-family="Helvetica,sans-Serif" font-size="10.00">lib/Dialect/Bool/IR</text>
<text text-anchor="middle" x="435.12" y="-95.88" font-family="Helvetica,sans-Serif" font-size="10.00">/Ops.cpp</text>
</a>
</g>
</g>
<!-- Node2&#45;&gt;Node8 -->
<g id="edge8_Node000002_Node000008" class="edge">
<title>Node2&#45;&gt;Node8</title>
<g id="a_edge8_Node000002_Node000008"><a xlink:title=" ">
<path fill="none" stroke="#63b8ff" d="M435.12,-152.86C435.12,-142.6 435.12,-131.27 435.12,-122.37"/>
<polygon fill="#63b8ff" stroke="#63b8ff" points="431.63,-152.71 435.13,-162.71 438.63,-152.71 431.63,-152.71"/>
</a>
</g>
</g>
<!-- Node9 -->
<g id="Node000009" class="node">
<title>Node9</title>
<g id="a_Node000009"><a xlink:href="LLZKRedundantOperationEliminationPass_8cpp.html" target="_top" xlink:title="This file implements the &#45;llzk&#45;duplicate&#45;op&#45;elim pass.">
<polygon fill="white" stroke="#666666" points="528.38,-39.88 363.88,-39.88 363.88,-6.38 528.38,-6.38 528.38,-39.88"/>
<text text-anchor="start" x="371.88" y="-26.38" font-family="Helvetica,sans-Serif" font-size="10.00">lib/Transforms/LLZKRedundant</text>
<text text-anchor="middle" x="446.12" y="-13.62" font-family="Helvetica,sans-Serif" font-size="10.00">OperationEliminationPass.cpp</text>
</a>
</g>
</g>
<!-- Node2&#45;&gt;Node9 -->
<g id="edge9_Node000002_Node000009" class="edge">
<title>Node2&#45;&gt;Node9</title>
<g id="a_edge9_Node000002_Node000009"><a xlink:title=" ">
<path fill="none" stroke="#63b8ff" d="M471.77,-157.24C481.14,-149.37 490,-139.68 495.12,-128.5 503.69,-109.81 502.18,-101.56 495.12,-82.25 489.15,-65.89 476.31,-50.94 465.27,-40.31"/>
<polygon fill="#63b8ff" stroke="#63b8ff" points="469.71,-154.4 463.94,-163.29 473.99,-159.94 469.71,-154.4"/>
</a>
</g>
</g>
<!-- Node4 -->
<g id="Node000004" class="node">
<title>Node4</title>
<g id="a_Node000004"><a xlink:href="IntervalAnalysis_8cpp.html" target="_top" xlink:title=" ">
<polygon fill="white" stroke="#666666" points="174.25,-33.5 0,-33.5 0,-12.75 174.25,-12.75 174.25,-33.5"/>
<text text-anchor="middle" x="87.12" y="-20" font-family="Helvetica,sans-Serif" font-size="10.00">lib/Analysis/IntervalAnalysis.cpp</text>
</a>
</g>
</g>
<!-- Node3&#45;&gt;Node4 -->
<g id="edge3_Node000003_Node000004" class="edge">
<title>Node3&#45;&gt;Node4</title>
<g id="a_edge3_Node000003_Node000004"><a xlink:title=" ">
<path fill="none" stroke="#63b8ff" d="M221.94,-83.57C185.64,-67.57 137.14,-46.18 109.3,-33.9"/>
<polygon fill="#63b8ff" stroke="#63b8ff" points="220.35,-86.69 230.91,-87.52 223.17,-80.29 220.35,-86.69"/>
</a>
</g>
</g>
<!-- Node3&#45;&gt;Node5 -->
<g id="edge4_Node000003_Node000005" class="edge">
<title>Node3&#45;&gt;Node5</title>
<g id="a_edge4_Node000003_Node000005"><a xlink:title=" ">
<path fill="none" stroke="#63b8ff" d="M269.12,-76.75C269.12,-64.61 269.12,-50.78 269.12,-40.34"/>
<polygon fill="#63b8ff" stroke="#63b8ff" points="265.63,-76.62 269.13,-86.62 272.63,-76.62 265.63,-76.62"/>
</a>
</g>
</g>
<!-- Node11 -->
<g id="Node000011" class="node">
<title>Node11</title>
<g id="a_Node000011"><a xlink:href="AnalysisPasses_8h.html" target="_top" xlink:title=" ">
<polygon fill="white" stroke="#666666" points="1150,-122.12 1034.25,-122.12 1034.25,-88.62 1150,-88.62 1150,-122.12"/>
<text text-anchor="start" x="1042.25" y="-108.62" font-family="Helvetica,sans-Serif" font-size="10.00">include/llzk/Analysis</text>
<text text-anchor="middle" x="1092.12" y="-95.88" font-family="Helvetica,sans-Serif" font-size="10.00">/AnalysisPasses.h</text>
</a>
</g>
</g>
<!-- Node10&#45;&gt;Node11 -->
<g id="edge11_Node000010_Node000011" class="edge">
<title>Node10&#45;&gt;Node11</title>
<g id="a_edge11_Node000010_Node000011"><a xlink:title=" ">
<path fill="none" stroke="#63b8ff" d="M2083.41,-174.18C1869.34,-159.54 1328.98,-122.58 1150.41,-110.36"/>
<polygon fill="#63b8ff" stroke="#63b8ff" points="2083.16,-177.67 2093.38,-174.86 2083.64,-170.69 2083.16,-177.67"/>
</a>
</g>
</g>
<!-- Node18 -->
<g id="Node000018" class="node">
<title>Node18</title>
<g id="a_Node000018"><a xlink:href="Array_2Transforms_2TransformationPasses_8h.html" target="_top" xlink:title=" ">
<polygon fill="white" stroke="#666666" points="1882.5,-128.5 1703.75,-128.5 1703.75,-82.25 1882.5,-82.25 1882.5,-128.5"/>
<text text-anchor="start" x="1711.75" y="-115" font-family="Helvetica,sans-Serif" font-size="10.00">include/llzk/Dialect</text>
<text text-anchor="start" x="1711.75" y="-102.25" font-family="Helvetica,sans-Serif" font-size="10.00">/Array/Transforms/Transformation</text>
<text text-anchor="middle" x="1793.12" y="-89.5" font-family="Helvetica,sans-Serif" font-size="10.00">Passes.h</text>
</a>
</g>
</g>
<!-- Node10&#45;&gt;Node18 -->
<g id="edge19_Node000010_Node000018" class="edge">
<title>Node10&#45;&gt;Node18</title>
<g id="a_edge19_Node000010_Node000018"><a xlink:title=" ">
<path fill="none" stroke="#63b8ff" d="M2110.68,-168.27C2048.97,-156.24 1953.19,-137.58 1882.95,-123.88"/>
<polygon fill="#63b8ff" stroke="#63b8ff" points="2109.83,-171.67 2120.31,-170.15 2111.17,-164.8 2109.83,-171.67"/>
</a>
</g>
</g>
<!-- Node21 -->
<g id="Node000021" class="node">
<title>Node21</title>
<g id="a_Node000021"><a xlink:href="InlineIncludesPass_8h.html" target="_top" xlink:title=" ">
<polygon fill="white" stroke="#666666" points="2150,-128.5 1968.25,-128.5 1968.25,-82.25 2150,-82.25 2150,-128.5"/>
<text text-anchor="start" x="1976.25" y="-115" font-family="Helvetica,sans-Serif" font-size="10.00">include/llzk/Dialect</text>
<text text-anchor="start" x="1976.25" y="-102.25" font-family="Helvetica,sans-Serif" font-size="10.00">/Include/Transforms/InlineIncludes</text>
<text text-anchor="middle" x="2059.12" y="-89.5" font-family="Helvetica,sans-Serif" font-size="10.00">Pass.h</text>
</a>
</g>
</g>
<!-- Node10&#45;&gt;Node21 -->
<g id="edge23_Node000010_Node000021" class="edge">
<title>Node10&#45;&gt;Node21</title>
<g id="a_edge23_Node000010_Node000021"><a xlink:title=" ">
<path fill="none" stroke="#63b8ff" d="M2147.74,-164.31C2131.86,-153.93 2110.93,-140.24 2093.39,-128.77"/>
<polygon fill="#63b8ff" stroke="#63b8ff" points="2145.8,-167.22 2156.09,-169.76 2149.63,-161.36 2145.8,-167.22"/>
</a>
</g>
</g>
<!-- Node24 -->
<g id="Node000024" class="node">
<title>Node24</title>
<g id="a_Node000024"><a xlink:href="Polymorphic_2Transforms_2TransformationPasses_8h.html" target="_top" xlink:title=" ">
<polygon fill="white" stroke="#666666" points="2353.5,-128.5 2216.75,-128.5 2216.75,-82.25 2353.5,-82.25 2353.5,-128.5"/>
<text text-anchor="start" x="2224.75" y="-115" font-family="Helvetica,sans-Serif" font-size="10.00">include/llzk/Dialect</text>
<text text-anchor="start" x="2224.75" y="-102.25" font-family="Helvetica,sans-Serif" font-size="10.00">/Polymorphic/Transforms</text>
<text text-anchor="middle" x="2285.12" y="-89.5" font-family="Helvetica,sans-Serif" font-size="10.00">/TransformationPasses.h</text>
</a>
</g>
</g>
<!-- Node10&#45;&gt;Node24 -->
<g id="edge27_Node000010_Node000024" class="edge">
<title>Node10&#45;&gt;Node24</title>
<g id="a_edge27_Node000010_Node000024"><a xlink:title=" ">
<path fill="none" stroke="#63b8ff" d="M2196.51,-164.31C2212.39,-153.93 2233.32,-140.24 2250.86,-128.77"/>
<polygon fill="#63b8ff" stroke="#63b8ff" points="2194.62,-161.36 2188.16,-169.76 2198.45,-167.22 2194.62,-161.36"/>
</a>
</g>
</g>
<!-- Node28 -->
<g id="Node000028" class="node">
<title>Node28</title>
<g id="a_Node000028"><a xlink:href="LLZKTransformationPasses_8h.html" target="_top" xlink:title=" ">
<polygon fill="white" stroke="#666666" points="3344,-122.12 3186.25,-122.12 3186.25,-88.62 3344,-88.62 3344,-122.12"/>
<text text-anchor="start" x="3194.25" y="-108.62" font-family="Helvetica,sans-Serif" font-size="10.00">include/llzk/Transforms</text>
<text text-anchor="middle" x="3265.12" y="-95.88" font-family="Helvetica,sans-Serif" font-size="10.00">/LLZKTransformationPasses.h</text>
</a>
</g>
</g>
<!-- Node10&#45;&gt;Node28 -->
<g id="edge32_Node000010_Node000028" class="edge">
<title>Node10&#45;&gt;Node28</title>
<g id="a_edge32_Node000010_Node000028"><a xlink:title=" ">
<path fill="none" stroke="#63b8ff" d="M2260.9,-174.25C2469.32,-160.16 2987.26,-125.16 3185.87,-111.73"/>
<polygon fill="#63b8ff" stroke="#63b8ff" points="2260.67,-170.76 2250.93,-174.92 2261.14,-177.74 2260.67,-170.76"/>
</a>
</g>
</g>
<!-- Node39 -->
<g id="Node000039" class="node">
<title>Node39</title>
<g id="a_Node000039"><a xlink:href="LLZKValidationPasses_8h.html" target="_top" xlink:title=" ">
<polygon fill="white" stroke="#666666" points="3496,-122.12 3362.25,-122.12 3362.25,-88.62 3496,-88.62 3496,-122.12"/>
<text text-anchor="start" x="3370.25" y="-108.62" font-family="Helvetica,sans-Serif" font-size="10.00">include/llzk/Validators</text>
<text text-anchor="middle" x="3429.12" y="-95.88" font-family="Helvetica,sans-Serif" font-size="10.00">/LLZKValidationPasses.h</text>
</a>
</g>
</g>
<!-- Node10&#45;&gt;Node39 -->
<g id="edge45_Node000010_Node000039" class="edge">
<title>Node10&#45;&gt;Node39</title>
<g id="a_edge45_Node000010_Node000039"><a xlink:title=" ">
<path fill="none" stroke="#63b8ff" d="M2260.69,-179.11C2497.76,-175.63 3143.06,-163.16 3353.12,-128.5 3361.94,-127.05 3371.18,-124.9 3380.05,-122.52"/>
<polygon fill="#63b8ff" stroke="#63b8ff" points="2260.83,-175.61 2250.89,-179.26 2260.93,-182.61 2260.83,-175.61"/>
</a>
</g>
</g>
<!-- Node11&#45;&gt;Node5 -->
<g id="edge14_Node000011_Node000005" class="edge">
<title>Node11&#45;&gt;Node5</title>
<g id="a_edge14_Node000011_Node000005"><a xlink:title=" ">
<path fill="none" stroke="#63b8ff" d="M1022.5,-99.04C841.95,-85.2 371.48,-48.98 355.12,-46.25 345.7,-44.68 335.79,-42.57 326.19,-40.28"/>
<polygon fill="#63b8ff" stroke="#63b8ff" points="1022.22,-102.53 1032.46,-99.81 1022.76,-95.55 1022.22,-102.53"/>
</a>
</g>
</g>
<!-- Node12 -->
<g id="Node000012" class="node">
<title>Node12</title>
<g id="a_Node000012"><a xlink:href="CallGraphPasses_8cpp.html" target="_top" xlink:title="This file implements the &#45;llzk&#45;print&#45;call&#45;graph and &#45;llzk&#45;print&#45;call&#45;graph&#45;sccs passes.">
<polygon fill="white" stroke="#666666" points="723.38,-33.5 546.88,-33.5 546.88,-12.75 723.38,-12.75 723.38,-33.5"/>
<text text-anchor="middle" x="635.12" y="-20" font-family="Helvetica,sans-Serif" font-size="10.00">lib/Analysis/CallGraphPasses.cpp</text>
</a>
</g>
</g>
<!-- Node11&#45;&gt;Node12 -->
<g id="edge12_Node000011_Node000012" class="edge">
<title>Node11&#45;&gt;Node12</title>
<g id="a_edge12_Node000011_Node000012"><a xlink:title=" ">
<path fill="none" stroke="#63b8ff" d="M1022.66,-94.51C949.99,-83.88 832.7,-65.82 732.12,-46.25 713.47,-42.62 692.94,-38.03 675.59,-33.96"/>
<polygon fill="#63b8ff" stroke="#63b8ff" points="1022.04,-97.96 1032.44,-95.94 1023.05,-91.03 1022.04,-97.96"/>
</a>
</g>
</g>
<!-- Node13 -->
<g id="Node000013" class="node">
<title>Node13</title>
<g id="a_Node000013"><a xlink:href="ConstraintDependencyGraphPass_8cpp.html" target="_top" xlink:title="This file implements the &#45;llzk&#45;print&#45;constraint&#45;dependency&#45;graphs pass.">
<polygon fill="white" stroke="#666666" points="927.25,-39.88 741,-39.88 741,-6.38 927.25,-6.38 927.25,-39.88"/>
<text text-anchor="start" x="749" y="-26.38" font-family="Helvetica,sans-Serif" font-size="10.00">lib/Analysis/ConstraintDependency</text>
<text text-anchor="middle" x="834.12" y="-13.62" font-family="Helvetica,sans-Serif" font-size="10.00">GraphPass.cpp</text>
</a>
</g>
</g>
<!-- Node11&#45;&gt;Node13 -->
<g id="edge13_Node000011_Node000013" class="edge">
<title>Node11&#45;&gt;Node13</title>
<g id="a_edge13_Node000011_Node000013"><a xlink:title=" ">
<path fill="none" stroke="#63b8ff" d="M1029.09,-84.77C985.25,-71.13 927.5,-53.17 886.26,-40.34"/>
<polygon fill="#63b8ff" stroke="#63b8ff" points="1027.88,-88.06 1038.47,-87.69 1029.96,-81.37 1027.88,-88.06"/>
</a>
</g>
</g>
<!-- Node14 -->
<g id="Node000014" class="node">
<title>Node14</title>
<g id="a_Node000014"><a xlink:href="PredecessorAnalysisPass_8cpp.html" target="_top" xlink:title="This file implements the &#45;llzk&#45;print&#45;predecessors pass.">
<polygon fill="white" stroke="#666666" points="1079.38,-39.88 944.88,-39.88 944.88,-6.38 1079.38,-6.38 1079.38,-39.88"/>
<text text-anchor="start" x="952.88" y="-26.38" font-family="Helvetica,sans-Serif" font-size="10.00">lib/Analysis/Predecessor</text>
<text text-anchor="middle" x="1012.12" y="-13.62" font-family="Helvetica,sans-Serif" font-size="10.00">AnalysisPass.cpp</text>
</a>
</g>
</g>
<!-- Node11&#45;&gt;Node14 -->
<g id="edge15_Node000011_Node000014" class="edge">
<title>Node11&#45;&gt;Node14</title>
<g id="a_edge15_Node000011_Node000014"><a xlink:title=" ">
<path fill="none" stroke="#63b8ff" d="M1067.94,-80.12C1055.1,-67.24 1039.67,-51.76 1028.29,-40.34"/>
<polygon fill="#63b8ff" stroke="#63b8ff" points="1065.33,-82.45 1074.87,-87.06 1070.29,-77.51 1065.33,-82.45"/>
</a>
</g>
</g>
<!-- Node15 -->
<g id="Node000015" class="node">
<title>Node15</title>
<g id="a_Node000015"><a xlink:href="SymbolDefTreePass_8cpp.html" target="_top" xlink:title="This file implements the &#45;llzk&#45;print&#45;symbol&#45;def&#45;tree pass.">
<polygon fill="white" stroke="#666666" points="1246.88,-39.88 1097.38,-39.88 1097.38,-6.38 1246.88,-6.38 1246.88,-39.88"/>
<text text-anchor="start" x="1105.38" y="-26.38" font-family="Helvetica,sans-Serif" font-size="10.00">lib/Analysis/SymbolDefTree</text>
<text text-anchor="middle" x="1172.12" y="-13.62" font-family="Helvetica,sans-Serif" font-size="10.00">Pass.cpp</text>
</a>
</g>
</g>
<!-- Node11&#45;&gt;Node15 -->
<g id="edge16_Node000011_Node000015" class="edge">
<title>Node11&#45;&gt;Node15</title>
<g id="a_edge16_Node000011_Node000015"><a xlink:title=" ">
<path fill="none" stroke="#63b8ff" d="M1116.31,-80.12C1129.15,-67.24 1144.58,-51.76 1155.96,-40.34"/>
<polygon fill="#63b8ff" stroke="#63b8ff" points="1113.96,-77.51 1109.38,-87.06 1118.92,-82.45 1113.96,-77.51"/>
</a>
</g>
</g>
<!-- Node16 -->
<g id="Node000016" class="node">
<title>Node16</title>
<g id="a_Node000016"><a xlink:href="SymbolUseGraphPass_8cpp.html" target="_top" xlink:title="This file implements the &#45;llzk&#45;print&#45;symbol&#45;use&#45;graph pass.">
<polygon fill="white" stroke="#666666" points="1425.12,-39.88 1265.12,-39.88 1265.12,-6.38 1425.12,-6.38 1425.12,-39.88"/>
<text text-anchor="start" x="1273.12" y="-26.38" font-family="Helvetica,sans-Serif" font-size="10.00">lib/Analysis/SymbolUseGraph</text>
<text text-anchor="middle" x="1345.12" y="-13.62" font-family="Helvetica,sans-Serif" font-size="10.00">Pass.cpp</text>
</a>
</g>
</g>
<!-- Node11&#45;&gt;Node16 -->
<g id="edge17_Node000011_Node000016" class="edge">
<title>Node11&#45;&gt;Node16</title>
<g id="a_edge17_Node000011_Node000016"><a xlink:title=" ">
<path fill="none" stroke="#63b8ff" d="M1154.21,-84.68C1197.17,-71.05 1253.64,-53.14 1294,-40.34"/>
<polygon fill="#63b8ff" stroke="#63b8ff" points="1153.24,-81.32 1144.77,-87.68 1155.36,-87.99 1153.24,-81.32"/>
</a>
</g>
</g>
<!-- Node17 -->
<g id="Node000017" class="node">
<title>Node17</title>
<g id="a_Node000017"><a xlink:href="llzk-opt_8cpp.html" target="_top" xlink:title="This file implements a version of the mlir&#45;opt tool configured for use on LLZK files.">
<polygon fill="white" stroke="#666666" points="2200.12,-39.88 2100.12,-39.88 2100.12,-6.38 2200.12,-6.38 2200.12,-39.88"/>
<text text-anchor="start" x="2108.12" y="-26.38" font-family="Helvetica,sans-Serif" font-size="10.00">tools/llzk&#45;opt/llzk</text>
<text text-anchor="middle" x="2150.12" y="-13.62" font-family="Helvetica,sans-Serif" font-size="10.00">&#45;opt.cpp</text>
</a>
</g>
</g>
<!-- Node11&#45;&gt;Node17 -->
<g id="edge18_Node000011_Node000017" class="edge">
<title>Node11&#45;&gt;Node17</title>
<g id="a_edge18_Node000011_Node000017"><a xlink:title=" ">
<path fill="none" stroke="#63b8ff" d="M1161.5,-101.55C1373.03,-92.75 2000.89,-65.34 2091.12,-46.25 2097.97,-44.8 2105.09,-42.69 2111.9,-40.35"/>
<polygon fill="#63b8ff" stroke="#63b8ff" points="1161.61,-98.04 1151.77,-101.95 1161.9,-105.03 1161.61,-98.04"/>
</a>
</g>
</g>
<!-- Node18&#45;&gt;Node17 -->
<g id="edge22_Node000018_Node000017" class="edge">
<title>Node18&#45;&gt;Node17</title>
<g id="a_edge22_Node000018_Node000017"><a xlink:title=" ">
<path fill="none" stroke="#63b8ff" d="M1893.75,-89.03C1951.98,-79.09 2026.32,-64.58 2091.12,-46.25 2097.13,-44.55 2103.38,-42.51 2109.47,-40.37"/>
<polygon fill="#63b8ff" stroke="#63b8ff" points="1893.48,-85.53 1884.2,-90.65 1894.64,-92.43 1893.48,-85.53"/>
</a>
</g>
</g>
<!-- Node19 -->
<g id="Node000019" class="node">
<title>Node19</title>
<g id="a_Node000019"><a xlink:href="Array_8cpp.html" target="_top" xlink:title=" ">
<polygon fill="white" stroke="#666666" points="1582.62,-33.5 1443.62,-33.5 1443.62,-12.75 1582.62,-12.75 1582.62,-33.5"/>
<text text-anchor="middle" x="1513.12" y="-20" font-family="Helvetica,sans-Serif" font-size="10.00">lib/CAPI/Dialect/Array.cpp</text>
</a>
</g>
</g>
<!-- Node18&#45;&gt;Node19 -->
<g id="edge20_Node000018_Node000019" class="edge">
<title>Node18&#45;&gt;Node19</title>
<g id="a_edge20_Node000018_Node000019"><a xlink:title=" ">
<path fill="none" stroke="#63b8ff" d="M1703.57,-78.71C1650.4,-63.47 1586.02,-45.02 1547.38,-33.94"/>
<polygon fill="#63b8ff" stroke="#63b8ff" points="1702.35,-82 1712.93,-81.39 1704.28,-75.27 1702.35,-82"/>
</a>
</g>
</g>
<!-- Node20 -->
<g id="Node000020" class="node">
<title>Node20</title>
<g id="a_Node000020"><a xlink:href="ArrayToScalarPass_8cpp.html" target="_top" xlink:title="This file implements the &#45;llzk&#45;array&#45;to&#45;scalar pass.">
<polygon fill="white" stroke="#666666" points="1752,-39.88 1600.25,-39.88 1600.25,-6.38 1752,-6.38 1752,-39.88"/>
<text text-anchor="start" x="1608.25" y="-26.38" font-family="Helvetica,sans-Serif" font-size="10.00">lib/Dialect/Array/Transforms</text>
<text text-anchor="middle" x="1676.12" y="-13.62" font-family="Helvetica,sans-Serif" font-size="10.00">/ArrayToScalarPass.cpp</text>
</a>
</g>
</g>
<!-- Node18&#45;&gt;Node20 -->
<g id="edge21_Node000018_Node000020" class="edge">
<title>Node18&#45;&gt;Node20</title>
<g id="a_edge21_Node000018_Node000020"><a xlink:title=" ">
<path fill="none" stroke="#63b8ff" d="M1750.86,-75.39C1733.56,-63.52 1714.2,-50.24 1699.52,-40.17"/>
<polygon fill="#63b8ff" stroke="#63b8ff" points="1748.75,-78.18 1758.97,-80.95 1752.71,-72.41 1748.75,-78.18"/>
</a>
</g>
</g>
<!-- Node21&#45;&gt;Node17 -->
<g id="edge26_Node000021_Node000017" class="edge">
<title>Node21&#45;&gt;Node17</title>
<g id="a_edge26_Node000021_Node000017"><a xlink:title=" ">
<path fill="none" stroke="#63b8ff" d="M2092.89,-74.6C2106.08,-62.97 2120.68,-50.09 2131.83,-40.25"/>
<polygon fill="#63b8ff" stroke="#63b8ff" points="2090.79,-71.78 2085.61,-81.02 2095.42,-77.03 2090.79,-71.78"/>
</a>
</g>
</g>
<!-- Node22 -->
<g id="Node000022" class="node">
<title>Node22</title>
<g id="a_Node000022"><a xlink:href="Include_8cpp.html" target="_top" xlink:title=" ">
<polygon fill="white" stroke="#666666" points="1919.88,-33.5 1770.38,-33.5 1770.38,-12.75 1919.88,-12.75 1919.88,-33.5"/>
<text text-anchor="middle" x="1845.12" y="-20" font-family="Helvetica,sans-Serif" font-size="10.00">lib/CAPI/Dialect/Include.cpp</text>
</a>
</g>
</g>
<!-- Node21&#45;&gt;Node22 -->
<g id="edge24_Node000021_Node000022" class="edge">
<title>Node21&#45;&gt;Node22</title>
<g id="a_edge24_Node000021_Node000022"><a xlink:title=" ">
<path fill="none" stroke="#63b8ff" d="M1988.38,-77.84C1948.2,-62.78 1900.28,-44.81 1871.31,-33.94"/>
<polygon fill="#63b8ff" stroke="#63b8ff" points="1986.94,-81.04 1997.53,-81.28 1989.39,-74.49 1986.94,-81.04"/>
</a>
</g>
</g>
<!-- Node23 -->
<g id="Node000023" class="node">
<title>Node23</title>
<g id="a_Node000023"><a xlink:href="InlineIncludesPass_8cpp.html" target="_top" xlink:title="This file implements the &#45;llzk&#45;inline&#45;includes pass.">
<polygon fill="white" stroke="#666666" points="2081.88,-46.25 1938.38,-46.25 1938.38,0 2081.88,0 2081.88,-46.25"/>
<text text-anchor="start" x="1946.38" y="-32.75" font-family="Helvetica,sans-Serif" font-size="10.00">lib/Dialect/Include</text>
<text text-anchor="start" x="1946.38" y="-20" font-family="Helvetica,sans-Serif" font-size="10.00">/Transforms/InlineIncludes</text>
<text text-anchor="middle" x="2010.12" y="-7.25" font-family="Helvetica,sans-Serif" font-size="10.00">Pass.cpp</text>
</a>
</g>
</g>
<!-- Node21&#45;&gt;Node23 -->
<g id="edge25_Node000021_Node000023" class="edge">
<title>Node21&#45;&gt;Node23</title>
<g id="a_edge25_Node000021_Node000023"><a xlink:title=" ">
<path fill="none" stroke="#63b8ff" d="M2039.52,-72.27C2034.28,-63.69 2028.72,-54.59 2023.87,-46.64"/>
<polygon fill="#63b8ff" stroke="#63b8ff" points="2036.49,-74.02 2044.69,-80.73 2042.46,-70.37 2036.49,-74.02"/>
</a>
</g>
</g>
<!-- Node24&#45;&gt;Node17 -->
<g id="edge31_Node000024_Node000017" class="edge">
<title>Node24&#45;&gt;Node17</title>
<g id="a_edge31_Node000024_Node000017"><a xlink:title=" ">
<path fill="none" stroke="#63b8ff" d="M2237.47,-76.05C2217.23,-64.01 2194.37,-50.43 2177.12,-40.17"/>
<polygon fill="#63b8ff" stroke="#63b8ff" points="2235.48,-78.93 2245.86,-81.03 2239.05,-72.92 2235.48,-78.93"/>
</a>
</g>
</g>
<!-- Node25 -->
<g id="Node000025" class="node">
<title>Node25</title>
<g id="a_Node000025"><a xlink:href="Poly_8cpp.html" target="_top" xlink:title=" ">
<polygon fill="white" stroke="#666666" points="2352,-33.5 2218.25,-33.5 2218.25,-12.75 2352,-12.75 2352,-33.5"/>
<text text-anchor="middle" x="2285.12" y="-20" font-family="Helvetica,sans-Serif" font-size="10.00">lib/CAPI/Dialect/Poly.cpp</text>
</a>
</g>
</g>
<!-- Node24&#45;&gt;Node25 -->
<g id="edge28_Node000024_Node000025" class="edge">
<title>Node24&#45;&gt;Node25</title>
<g id="a_edge28_Node000024_Node000025"><a xlink:title=" ">
<path fill="none" stroke="#63b8ff" d="M2285.12,-70.75C2285.12,-57.46 2285.12,-43.2 2285.12,-34"/>
<polygon fill="#63b8ff" stroke="#63b8ff" points="2281.63,-70.51 2285.13,-80.51 2288.63,-70.51 2281.63,-70.51"/>
</a>
</g>
</g>
<!-- Node26 -->
<g id="Node000026" class="node">
<title>Node26</title>
<g id="a_Node000026"><a xlink:href="EmptyParamListRemovalPass_8cpp.html" target="_top" xlink:title="This file implements the &#45;llzk&#45;drop&#45;empty&#45;params pass.">
<polygon fill="white" stroke="#666666" points="2568.62,-46.25 2369.62,-46.25 2369.62,0 2568.62,0 2568.62,-46.25"/>
<text text-anchor="start" x="2377.62" y="-32.75" font-family="Helvetica,sans-Serif" font-size="10.00">lib/Dialect/Polymorphic</text>
<text text-anchor="start" x="2377.62" y="-20" font-family="Helvetica,sans-Serif" font-size="10.00">/Transforms/EmptyParamListRemoval</text>
<text text-anchor="middle" x="2469.12" y="-7.25" font-family="Helvetica,sans-Serif" font-size="10.00">Pass.cpp</text>
</a>
</g>
</g>
<!-- Node24&#45;&gt;Node26 -->
<g id="edge29_Node000024_Node000026" class="edge">
<title>Node24&#45;&gt;Node26</title>
<g id="a_edge29_Node000024_Node000026"><a xlink:title=" ">
<path fill="none" stroke="#63b8ff" d="M2347.15,-77.32C2370,-67.36 2395.61,-56.19 2417.45,-46.66"/>
<polygon fill="#63b8ff" stroke="#63b8ff" points="2346.02,-74 2338.26,-81.2 2348.82,-80.41 2346.02,-74"/>
</a>
</g>
</g>
<!-- Node27 -->
<g id="Node000027" class="node">
<title>Node27</title>
<g id="a_Node000027"><a xlink:href="FlatteningPass_8cpp.html" target="_top" xlink:title="This file implements the &#45;llzk&#45;flatten pass.">
<polygon fill="white" stroke="#666666" points="2753.88,-39.88 2586.38,-39.88 2586.38,-6.38 2753.88,-6.38 2753.88,-39.88"/>
<text text-anchor="start" x="2594.38" y="-26.38" font-family="Helvetica,sans-Serif" font-size="10.00">lib/Dialect/Polymorphic</text>
<text text-anchor="middle" x="2670.12" y="-13.62" font-family="Helvetica,sans-Serif" font-size="10.00">/Transforms/FlatteningPass.cpp</text>
</a>
</g>
</g>
<!-- Node24&#45;&gt;Node27 -->
<g id="edge30_Node000024_Node000027" class="edge">
<title>Node24&#45;&gt;Node27</title>
<g id="a_edge30_Node000024_Node000027"><a xlink:title=" ">
<path fill="none" stroke="#63b8ff" d="M2365.07,-89.41C2424.08,-78.15 2506.27,-62.01 2578.12,-46.25 2586.63,-44.38 2595.56,-42.34 2604.36,-40.28"/>
<polygon fill="#63b8ff" stroke="#63b8ff" points="2364.62,-85.94 2355.45,-91.25 2365.93,-92.81 2364.62,-85.94"/>
</a>
</g>
</g>
<!-- Node28&#45;&gt;Node9 -->
<g id="edge40_Node000028_Node000009" class="edge">
<title>Node28&#45;&gt;Node9</title>
<g id="a_edge40_Node000028_Node000009"><a xlink:title=" ">
<path fill="none" stroke="#63b8ff" d="M3174.63,-102.02C3012.01,-97.81 2659.53,-88.83 2362.12,-82.25 1956.81,-73.28 940.23,-97.95 538.12,-46.25 527.37,-44.87 516.05,-42.73 505.16,-40.31"/>
<polygon fill="#63b8ff" stroke="#63b8ff" points="3174.41,-105.51 3184.5,-102.27 3174.59,-98.51 3174.41,-105.51"/>
</a>
</g>
</g>
<!-- Node28&#45;&gt;Node17 -->
<g id="edge44_Node000028_Node000017" class="edge">
<title>Node28&#45;&gt;Node17</title>
<g id="a_edge44_Node000028_Node000017"><a xlink:title=" ">
<path fill="none" stroke="#63b8ff" d="M3174.65,-102.91C2953.9,-98.78 2392.37,-84.71 2209.12,-46.25 2202.27,-44.81 2195.16,-42.71 2188.34,-40.37"/>
<polygon fill="#63b8ff" stroke="#63b8ff" points="3174.28,-106.41 3184.34,-103.09 3174.41,-99.41 3174.28,-106.41"/>
</a>
</g>
</g>
<!-- Node29 -->
<g id="Node000029" class="node">
<title>Node29</title>
<g id="a_Node000029"><a xlink:href="Transforms_8cpp.html" target="_top" xlink:title=" ">
<polygon fill="white" stroke="#666666" points="2902.5,-33.5 2771.75,-33.5 2771.75,-12.75 2902.5,-12.75 2902.5,-33.5"/>
<text text-anchor="middle" x="2837.12" y="-20" font-family="Helvetica,sans-Serif" font-size="10.00">lib/CAPI/Transforms.cpp</text>
</a>
</g>
</g>
<!-- Node28&#45;&gt;Node29 -->
<g id="edge33_Node000028_Node000029" class="edge">
<title>Node28&#45;&gt;Node29</title>
<g id="a_edge33_Node000028_Node000029"><a xlink:title=" ">
<path fill="none" stroke="#63b8ff" d="M3174.56,-92.76C3102.66,-82.75 2999.84,-66.71 2911.12,-46.25 2896.36,-42.85 2880.21,-38.14 2866.78,-33.94"/>
<polygon fill="#63b8ff" stroke="#63b8ff" points="3173.94,-96.2 3184.32,-94.1 3174.9,-89.27 3173.94,-96.2"/>
</a>
</g>
</g>
<!-- Node28&#45;&gt;Node30 -->
<g id="edge34_Node000028_Node000030" class="edge">
<title>Node28&#45;&gt;Node30</title>
<g id="a_edge34_Node000028_Node000030"><a xlink:title=" ">
<path fill="none" stroke="#63b8ff" d="M3333.55,-85.73C3340.13,-84.37 3346.73,-83.18 3353.12,-82.25 3733.48,-27.11 3837.35,-105.26 4217.12,-46.25 4234.41,-43.56 4253.29,-38.53 4268.47,-33.95"/>
<polygon fill="#63b8ff" stroke="#63b8ff" points="3333.03,-82.26 3324.02,-87.82 3334.53,-89.1 3333.03,-82.26"/>
</a>
</g>
</g>
<!-- Node31 -->
<g id="Node000031" class="node">
<title>Node31</title>
<g id="a_Node000031"><a xlink:href="LLZKComputeConstrainToProductPass_8cpp.html" target="_top" xlink:title="This file implements the &#45;llzk&#45;product&#45;program pass.">
<polygon fill="white" stroke="#666666" points="3075.88,-39.88 2920.38,-39.88 2920.38,-6.38 3075.88,-6.38 3075.88,-39.88"/>
<text text-anchor="start" x="2928.38" y="-26.38" font-family="Helvetica,sans-Serif" font-size="10.00">lib/Transforms/LLZKCompute</text>
<text text-anchor="middle" x="2998.12" y="-13.62" font-family="Helvetica,sans-Serif" font-size="10.00">ConstrainToProductPass.cpp</text>
</a>
</g>
</g>
<!-- Node28&#45;&gt;Node31 -->
<g id="edge35_Node000028_Node000031" class="edge">
<title>Node28&#45;&gt;Node31</title>
<g id="a_edge35_Node000028_Node000031"><a xlink:title=" ">
<path fill="none" stroke="#63b8ff" d="M3200.18,-84.85C3154.77,-71.21 3094.85,-53.2 3052.08,-40.34"/>
<polygon fill="#63b8ff" stroke="#63b8ff" points="3199.06,-88.17 3209.64,-87.7 3201.07,-81.47 3199.06,-88.17"/>
</a>
</g>
</g>
<!-- Node32 -->
<g id="Node000032" class="node">
<title>Node32</title>
<g id="a_Node000032"><a xlink:href="LLZKFuseProductLoopsPass_8cpp.html" target="_top" xlink:title="This file implements the &#45;llzk&#45;fuse&#45;product&#45;loops pass.">
<polygon fill="white" stroke="#666666" points="3264.75,-39.88 3093.5,-39.88 3093.5,-6.38 3264.75,-6.38 3264.75,-39.88"/>
<text text-anchor="start" x="3101.5" y="-26.38" font-family="Helvetica,sans-Serif" font-size="10.00">lib/Transforms/LLZKFuseProduct</text>
<text text-anchor="middle" x="3179.12" y="-13.62" font-family="Helvetica,sans-Serif" font-size="10.00">LoopsPass.cpp</text>
</a>
</g>
</g>
<!-- Node28&#45;&gt;Node32 -->
<g id="edge36_Node000028_Node000032" class="edge">
<title>Node28&#45;&gt;Node32</title>
<g id="a_edge36_Node000028_Node000032"><a xlink:title=" ">
<path fill="none" stroke="#63b8ff" d="M3239.52,-80.48C3225.64,-67.53 3208.85,-51.86 3196.5,-40.34"/>
<polygon fill="#63b8ff" stroke="#63b8ff" points="3236.92,-82.84 3246.62,-87.1 3241.69,-77.72 3236.92,-82.84"/>
</a>
</g>
</g>
<!-- Node33 -->
<g id="Node000033" class="node">
<title>Node33</title>
<g id="a_Node000033"><a xlink:href="LLZKInlineStructsPass_8cpp.html" target="_top" xlink:title="This file implements the &#45;llzk&#45;inline&#45;structs pass.">
<polygon fill="white" stroke="#666666" points="3421.62,-39.88 3282.62,-39.88 3282.62,-6.38 3421.62,-6.38 3421.62,-39.88"/>
<text text-anchor="start" x="3290.62" y="-26.38" font-family="Helvetica,sans-Serif" font-size="10.00">lib/Transforms/LLZKInline</text>
<text text-anchor="middle" x="3352.12" y="-13.62" font-family="Helvetica,sans-Serif" font-size="10.00">StructsPass.cpp</text>
</a>
</g>
</g>
<!-- Node28&#45;&gt;Node33 -->
<g id="edge37_Node000028_Node000033" class="edge">
<title>Node28&#45;&gt;Node33</title>
<g id="a_edge37_Node000028_Node000033"><a xlink:title=" ">
<path fill="none" stroke="#63b8ff" d="M3291.03,-80.48C3305.07,-67.53 3322.05,-51.86 3334.55,-40.34"/>
<polygon fill="#63b8ff" stroke="#63b8ff" points="3288.82,-77.76 3283.84,-87.11 3293.57,-82.9 3288.82,-77.76"/>
</a>
</g>
</g>
<!-- Node28&#45;&gt;Node34 -->
<g id="edge38_Node000028_Node000034" class="edge">
<title>Node28&#45;&gt;Node34</title>
<g id="a_edge38_Node000028_Node000034"><a xlink:title=" ">
<path fill="none" stroke="#63b8ff" d="M3333.24,-85.75C3339.92,-84.38 3346.63,-83.17 3353.12,-82.25 3804.9,-18.27 3927.82,-113.44 4379.12,-46.25 4388.71,-44.82 4398.78,-42.69 4408.47,-40.31"/>
<polygon fill="#63b8ff" stroke="#63b8ff" points="3332.55,-82.32 3323.53,-87.88 3334.05,-89.15 3332.55,-82.32"/>
</a>
</g>
</g>
<!-- Node35 -->
<g id="Node000035" class="node">
<title>Node35</title>
<g id="a_Node000035"><a xlink:href="LLZKPolyLoweringPass_8cpp.html" target="_top" xlink:title="This file implements the &#45;llzk&#45;poly&#45;lowering pass.">
<polygon fill="white" stroke="#666666" points="3616.75,-39.88 3439.5,-39.88 3439.5,-6.38 3616.75,-6.38 3616.75,-39.88"/>
<text text-anchor="start" x="3447.5" y="-26.38" font-family="Helvetica,sans-Serif" font-size="10.00">lib/Transforms/LLZKPolyLowering</text>
<text text-anchor="middle" x="3528.12" y="-13.62" font-family="Helvetica,sans-Serif" font-size="10.00">Pass.cpp</text>
</a>
</g>
</g>
<!-- Node28&#45;&gt;Node35 -->
<g id="edge39_Node000028_Node000035" class="edge">
<title>Node28&#45;&gt;Node35</title>
<g id="a_edge39_Node000028_Node000035"><a xlink:title=" ">
<path fill="none" stroke="#63b8ff" d="M3329.1,-84.85C3373.82,-71.21 3432.85,-53.2 3474.98,-40.34"/>
<polygon fill="#63b8ff" stroke="#63b8ff" points="3328.34,-81.43 3319.79,-87.69 3330.38,-88.12 3328.34,-81.43"/>
</a>
</g>
</g>
<!-- Node36 -->
<g id="Node000036" class="node">
<title>Node36</title>
<g id="a_Node000036"><a xlink:href="LLZKRedundantReadAndWriteEliminationPass_8cpp.html" target="_top" xlink:title="This file implements the &#45;llzk&#45;duplicate&#45;read&#45;write&#45;elim pass.">
<polygon fill="white" stroke="#666666" points="3817.75,-39.88 3634.5,-39.88 3634.5,-6.38 3817.75,-6.38 3817.75,-39.88"/>
<text text-anchor="start" x="3642.5" y="-26.38" font-family="Helvetica,sans-Serif" font-size="10.00">lib/Transforms/LLZKRedundant</text>
<text text-anchor="middle" x="3726.12" y="-13.62" font-family="Helvetica,sans-Serif" font-size="10.00">ReadAndWriteEliminationPass.cpp</text>
</a>
</g>
</g>
<!-- Node28&#45;&gt;Node36 -->
<g id="edge41_Node000028_Node000036" class="edge">
<title>Node28&#45;&gt;Node36</title>
<g id="a_edge41_Node000028_Node000036"><a xlink:title=" ">
<path fill="none" stroke="#63b8ff" d="M3336.37,-85.73C3342.02,-84.47 3347.66,-83.29 3353.12,-82.25 3473.34,-59.29 3505.6,-67.49 3626.12,-46.25 3635.93,-44.52 3646.23,-42.49 3656.34,-40.37"/>
<polygon fill="#63b8ff" stroke="#63b8ff" points="3335.95,-82.23 3326.99,-87.88 3337.52,-89.05 3335.95,-82.23"/>
</a>
</g>
</g>
<!-- Node37 -->
<g id="Node000037" class="node">
<title>Node37</title>
<g id="a_Node000037"><a xlink:href="LLZKTransformationPassPipelines_8cpp.html" target="_top" xlink:title="This file implements logic for registering several pass pipelines.">
<polygon fill="white" stroke="#666666" points="4020.5,-39.88 3835.75,-39.88 3835.75,-6.38 4020.5,-6.38 4020.5,-39.88"/>
<text text-anchor="start" x="3843.75" y="-26.38" font-family="Helvetica,sans-Serif" font-size="10.00">lib/Transforms/LLZKTransformation</text>
<text text-anchor="middle" x="3928.12" y="-13.62" font-family="Helvetica,sans-Serif" font-size="10.00">PassPipelines.cpp</text>
</a>
</g>
</g>
<!-- Node28&#45;&gt;Node37 -->
<g id="edge42_Node000028_Node000037" class="edge">
<title>Node28&#45;&gt;Node37</title>
<g id="a_edge42_Node000028_Node000037"><a xlink:title=" ">
<path fill="none" stroke="#63b8ff" d="M3334.67,-85.73C3340.88,-84.42 3347.1,-83.23 3353.12,-82.25 3561.66,-48.37 3618.09,-76.93 3827.12,-46.25 3837.87,-44.67 3849.18,-42.61 3860.18,-40.37"/>
<polygon fill="#63b8ff" stroke="#63b8ff" points="3334.01,-82.29 3325.01,-87.88 3335.53,-89.13 3334.01,-82.29"/>
</a>
</g>
</g>
<!-- Node38 -->
<g id="Node000038" class="node">
<title>Node38</title>
<g id="a_Node000038"><a xlink:href="LLZKUnusedDeclarationEliminationPass_8cpp.html" target="_top" xlink:title="This file implements the &#45;llzk&#45;unused&#45;declaration&#45;elim pass.">
<polygon fill="white" stroke="#666666" points="4208,-39.88 4038.25,-39.88 4038.25,-6.38 4208,-6.38 4208,-39.88"/>
<text text-anchor="start" x="4046.25" y="-26.38" font-family="Helvetica,sans-Serif" font-size="10.00">lib/Transforms/LLZKUnused</text>
<text text-anchor="middle" x="4123.12" y="-13.62" font-family="Helvetica,sans-Serif" font-size="10.00">DeclarationEliminationPass.cpp</text>
</a>
</g>
</g>
<!-- Node28&#45;&gt;Node38 -->
<g id="edge43_Node000028_Node000038" class="edge">
<title>Node28&#45;&gt;Node38</title>
<g id="a_edge43_Node000028_Node000038"><a xlink:title=" ">
<path fill="none" stroke="#63b8ff" d="M3333.87,-85.75C3340.35,-84.4 3346.84,-83.2 3353.12,-82.25 3650.63,-37.36 3731.29,-88.89 4029.12,-46.25 4039.58,-44.75 4050.58,-42.65 4061.23,-40.34"/>
<polygon fill="#63b8ff" stroke="#63b8ff" points="3333.52,-82.24 3324.5,-87.81 3335.02,-89.08 3333.52,-82.24"/>
</a>
</g>
</g>
<!-- Node39&#45;&gt;Node17 -->
<g id="edge48_Node000039_Node000017" class="edge">
<title>Node39&#45;&gt;Node17</title>
<g id="a_edge48_Node000039_Node000017"><a xlink:title=" ">
<path fill="none" stroke="#63b8ff" d="M3369.12,-85.41C3363.75,-84.16 3358.36,-83.08 3353.12,-82.25 3101.92,-42.39 2458.65,-95.56 2209.12,-46.25 2202.04,-44.85 2194.69,-42.7 2187.68,-40.28"/>
<polygon fill="#63b8ff" stroke="#63b8ff" points="3368.05,-88.75 3378.6,-87.78 3369.75,-81.95 3368.05,-88.75"/>
</a>
</g>
</g>
<!-- Node40 -->
<g id="Node000040" class="node">
<title>Node40</title>
<g id="a_Node000040"><a xlink:href="Validators_8cpp.html" target="_top" xlink:title=" ">
<polygon fill="white" stroke="#666666" points="4679.88,-33.5 4554.38,-33.5 4554.38,-12.75 4679.88,-12.75 4679.88,-33.5"/>
<text text-anchor="middle" x="4617.12" y="-20" font-family="Helvetica,sans-Serif" font-size="10.00">lib/CAPI/Validators.cpp</text>
</a>
</g>
</g>
<!-- Node39&#45;&gt;Node40 -->
<g id="edge46_Node000039_Node000040" class="edge">
<title>Node39&#45;&gt;Node40</title>
<g id="a_edge46_Node000039_Node000040"><a xlink:title=" ">
<path fill="none" stroke="#63b8ff" d="M3507.55,-102.8C3727.2,-97.98 4345.35,-81.59 4545.12,-46.25 4560.58,-43.52 4577.36,-38.48 4590.84,-33.91"/>
<polygon fill="#63b8ff" stroke="#63b8ff" points="3507.59,-99.3 3497.67,-103.01 3507.74,-106.29 3507.59,-99.3"/>
</a>
</g>
</g>
<!-- Node41 -->
<g id="Node000041" class="node">
<title>Node41</title>
<g id="a_Node000041"><a xlink:href="LLZKValidationPasses_8cpp.html" target="_top" xlink:title="This file contains the implementation for the &#45;llzk&#45;validate&#45;member&#45;writes pass.">
<polygon fill="white" stroke="#666666" points="4853.88,-39.88 4698.38,-39.88 4698.38,-6.38 4853.88,-6.38 4853.88,-39.88"/>
<text text-anchor="start" x="4706.38" y="-26.38" font-family="Helvetica,sans-Serif" font-size="10.00">lib/Validators/LLZKValidation</text>
<text text-anchor="middle" x="4776.12" y="-13.62" font-family="Helvetica,sans-Serif" font-size="10.00">Passes.cpp</text>
</a>
</g>
</g>
<!-- Node39&#45;&gt;Node41 -->
<g id="edge47_Node000039_Node000041" class="edge">
<title>Node39&#45;&gt;Node41</title>
<g id="a_edge47_Node000039_Node000041"><a xlink:title=" ">
<path fill="none" stroke="#63b8ff" d="M3507.55,-102.84C3745.92,-97.85 4459.5,-80.38 4689.12,-46.25 4698.99,-44.78 4709.36,-42.67 4719.37,-40.32"/>
<polygon fill="#63b8ff" stroke="#63b8ff" points="3507.67,-99.34 3497.74,-103.04 3507.81,-106.34 3507.67,-99.34"/>
</a>
</g>
</g>
</g>
</svg>
