<?xml version="1.0" encoding="UTF-8" standalone="no"?>
<!DOCTYPE svg PUBLIC "-//W3C//DTD SVG 1.1//EN"
 "http://www.w3.org/Graphics/SVG/1.1/DTD/svg11.dtd">
<!-- Generated by graphviz version 12.2.1 (0)
 -->
<!-- Title: build/include/llzk/Dialect/Bool/IR/Ops.h.inc Pages: 1 -->
<svg width="1365pt" height="250pt"
 viewBox="0.00 0.00 1365.38 250.00" xmlns="http://www.w3.org/2000/svg" xmlns:xlink="http://www.w3.org/1999/xlink">
<g id="graph0" class="graph" transform="scale(1 1) rotate(0) translate(4 246)">
<title>build/include/llzk/Dialect/Bool/IR/Ops.h.inc</title>
<!-- Node1 -->
<g id="Node000001" class="node">
<title>Node1</title>
<g id="a_Node000001"><a xlink:title=" ">
<polygon fill="#999999" stroke="#666666" points="693.62,-242 554.62,-242 554.62,-208.5 693.62,-208.5 693.62,-242"/>
<text text-anchor="start" x="562.62" y="-228.5" font-family="Helvetica,sans-Serif" font-size="10.00">build/include/llzk</text>
<text text-anchor="middle" x="624.12" y="-215.75" font-family="Helvetica,sans-Serif" font-size="10.00">/Dialect/Bool/IR/Ops.h.inc</text>
</a>
</g>
</g>
<!-- Node2 -->
<g id="Node000002" class="node">
<title>Node2</title>
<g id="a_Node000002"><a xlink:href="Bool_2IR_2Ops_8h.html" target="_top" xlink:title=" ">
<polygon fill="white" stroke="#666666" points="678.62,-172.5 569.62,-172.5 569.62,-139 678.62,-139 678.62,-172.5"/>
<text text-anchor="start" x="577.62" y="-159" font-family="Helvetica,sans-Serif" font-size="10.00">include/llzk/Dialect</text>
<text text-anchor="middle" x="624.12" y="-146.25" font-family="Helvetica,sans-Serif" font-size="10.00">/Bool/IR/Ops.h</text>
</a>
</g>
</g>
<!-- Node1&#45;&gt;Node2 -->
<g id="edge1_Node000001_Node000002" class="edge">
<title>Node1&#45;&gt;Node2</title>
<g id="a_edge1_Node000001_Node000002"><a xlink:title=" ">
<path fill="none" stroke="#63b8ff" d="M624.12,-196.81C624.12,-188.59 624.12,-179.84 624.12,-172.63"/>
<polygon fill="#63b8ff" stroke="#63b8ff" points="620.63,-196.74 624.13,-206.74 627.63,-196.74 620.63,-196.74"/>
</a>
</g>
</g>
<!-- Node3 -->
<g id="Node000003" class="node">
<title>Node3</title>
<g id="a_Node000003"><a xlink:href="IntervalAnalysis_8h.html" target="_top" xlink:title=" ">
<polygon fill="white" stroke="#666666" points="241,-103 125.25,-103 125.25,-69.5 241,-69.5 241,-103"/>
<text text-anchor="start" x="133.25" y="-89.5" font-family="Helvetica,sans-Serif" font-size="10.00">include/llzk/Analysis</text>
<text text-anchor="middle" x="183.12" y="-76.75" font-family="Helvetica,sans-Serif" font-size="10.00">/IntervalAnalysis.h</text>
</a>
</g>
</g>
<!-- Node2&#45;&gt;Node3 -->
<g id="edge2_Node000002_Node000003" class="edge">
<title>Node2&#45;&gt;Node3</title>
<g id="a_edge2_Node000002_Node000003"><a xlink:title=" ">
<path fill="none" stroke="#63b8ff" d="M558.22,-147.04C484.21,-138.03 360.66,-121.92 255.12,-103 250.59,-102.19 245.91,-101.29 241.21,-100.35"/>
<polygon fill="#63b8ff" stroke="#63b8ff" points="557.36,-150.46 567.71,-148.19 558.2,-143.51 557.36,-150.46"/>
</a>
</g>
</g>
<!-- Node5 -->
<g id="Node000005" class="node">
<title>Node5</title>
<g id="a_Node000005"><a xlink:href="IntervalAnalysisPass_8cpp.html" target="_top" xlink:title="This file implements the &#45;llzk&#45;print&#45;interval&#45;analysis pass.">
<polygon fill="white" stroke="#666666" points="346.12,-33.5 192.12,-33.5 192.12,0 346.12,0 346.12,-33.5"/>
<text text-anchor="start" x="200.12" y="-20" font-family="Helvetica,sans-Serif" font-size="10.00">lib/Analysis/IntervalAnalysis</text>
<text text-anchor="middle" x="269.12" y="-7.25" font-family="Helvetica,sans-Serif" font-size="10.00">Pass.cpp</text>
</a>
</g>
</g>
<!-- Node2&#45;&gt;Node5 -->
<g id="edge5_Node000002_Node000005" class="edge">
<title>Node2&#45;&gt;Node5</title>
<g id="a_edge5_Node000002_Node000005"><a xlink:title=" ">
<path fill="none" stroke="#63b8ff" d="M558.15,-153.18C471.58,-149.71 326.17,-138.6 288.12,-103 269.19,-85.28 267.07,-53.2 267.76,-33.84"/>
<polygon fill="#63b8ff" stroke="#63b8ff" points="557.8,-156.67 567.93,-153.54 558.06,-149.67 557.8,-156.67"/>
</a>
</g>
</g>
<!-- Node6 -->
<g id="Node000006" class="node">
<title>Node6</title>
<g id="a_Node000006"><a xlink:href="Bool_8cpp.html" target="_top" xlink:title=" ">
<polygon fill="white" stroke="#666666" points="433.12,-96.62 297.12,-96.62 297.12,-75.88 433.12,-75.88 433.12,-96.62"/>
<text text-anchor="middle" x="365.12" y="-83.12" font-family="Helvetica,sans-Serif" font-size="10.00">lib/CAPI/Dialect/Bool.cpp</text>
</a>
</g>
</g>
<!-- Node2&#45;&gt;Node6 -->
<g id="edge6_Node000002_Node000006" class="edge">
<title>Node2&#45;&gt;Node6</title>
<g id="a_edge6_Node000002_Node000006"><a xlink:title=" ">
<path fill="none" stroke="#63b8ff" d="M558.33,-137.6C509.09,-124.77 443.5,-107.68 402.81,-97.07"/>
<polygon fill="#63b8ff" stroke="#63b8ff" points="557.17,-140.92 567.73,-140.05 558.94,-134.14 557.17,-140.92"/>
</a>
</g>
</g>
<!-- Node7 -->
<g id="Node000007" class="node">
<title>Node7</title>
<g id="a_Node000007"><a xlink:href="Bool_2IR_2Dialect_8cpp.html" target="_top" xlink:title=" ">
<polygon fill="white" stroke="#666666" points="554.62,-103 451.62,-103 451.62,-69.5 554.62,-69.5 554.62,-103"/>
<text text-anchor="start" x="459.62" y="-89.5" font-family="Helvetica,sans-Serif" font-size="10.00">lib/Dialect/Bool/IR</text>
<text text-anchor="middle" x="503.12" y="-76.75" font-family="Helvetica,sans-Serif" font-size="10.00">/Dialect.cpp</text>
</a>
</g>
</g>
<!-- Node2&#45;&gt;Node7 -->
<g id="edge7_Node000002_Node000007" class="edge">
<title>Node2&#45;&gt;Node7</title>
<g id="a_edge7_Node000002_Node000007"><a xlink:title=" ">
<path fill="none" stroke="#63b8ff" d="M585.29,-133.09C567.94,-123.41 547.84,-112.2 531.87,-103.29"/>
<polygon fill="#63b8ff" stroke="#63b8ff" points="583.38,-136.03 593.82,-137.84 586.79,-129.92 583.38,-136.03"/>
</a>
</g>
</g>
<!-- Node8 -->
<g id="Node000008" class="node">
<title>Node8</title>
<g id="a_Node000008"><a xlink:href="Bool_2IR_2Ops_8cpp.html" target="_top" xlink:title=" ">
<polygon fill="white" stroke="#666666" points="675.62,-103 572.62,-103 572.62,-69.5 675.62,-69.5 675.62,-103"/>
<text text-anchor="start" x="580.62" y="-89.5" font-family="Helvetica,sans-Serif" font-size="10.00">lib/Dialect/Bool/IR</text>
<text text-anchor="middle" x="624.12" y="-76.75" font-family="Helvetica,sans-Serif" font-size="10.00">/Ops.cpp</text>
</a>
</g>
</g>
<!-- Node2&#45;&gt;Node8 -->
<g id="edge8_Node000002_Node000008" class="edge">
<title>Node2&#45;&gt;Node8</title>
<g id="a_edge8_Node000002_Node000008"><a xlink:title=" ">
<path fill="none" stroke="#63b8ff" d="M624.12,-127.31C624.12,-119.09 624.12,-110.34 624.12,-103.13"/>
<polygon fill="#63b8ff" stroke="#63b8ff" points="620.63,-127.24 624.13,-137.24 627.63,-127.24 620.63,-127.24"/>
</a>
</g>
</g>
<!-- Node9 -->
<g id="Node000009" class="node">
<title>Node9</title>
<g id="a_Node000009"><a xlink:href="LLZKRedundantOperationEliminationPass_8cpp.html" target="_top" xlink:title="This file implements the &#45;llzk&#45;duplicate&#45;op&#45;elim pass.">
<polygon fill="white" stroke="#666666" points="858.38,-103 693.88,-103 693.88,-69.5 858.38,-69.5 858.38,-103"/>
<text text-anchor="start" x="701.88" y="-89.5" font-family="Helvetica,sans-Serif" font-size="10.00">lib/Transforms/LLZKRedundant</text>
<text text-anchor="middle" x="776.12" y="-76.75" font-family="Helvetica,sans-Serif" font-size="10.00">OperationEliminationPass.cpp</text>
</a>
</g>
</g>
<!-- Node2&#45;&gt;Node9 -->
<g id="edge9_Node000002_Node000009" class="edge">
<title>Node2&#45;&gt;Node9</title>
<g id="a_edge9_Node000002_Node000009"><a xlink:title=" ">
<path fill="none" stroke="#63b8ff" d="M671.04,-133.92C693.16,-124.09 719.15,-112.55 739.75,-103.4"/>
<polygon fill="#63b8ff" stroke="#63b8ff" points="669.63,-130.71 661.92,-137.97 672.48,-137.11 669.63,-130.71"/>
</a>
</g>
</g>
<!-- Node10 -->
<g id="Node000010" class="node">
<title>Node10</title>
<g id="a_Node000010"><a xlink:href="LLZKWhileToForPass_8cpp.html" target="_top" xlink:title="This file identifies scf.while loops that can be converted to scf.for loops and performs the conversi...">
<polygon fill="white" stroke="#666666" points="1015.62,-103 876.62,-103 876.62,-69.5 1015.62,-69.5 1015.62,-103"/>
<text text-anchor="start" x="884.62" y="-89.5" font-family="Helvetica,sans-Serif" font-size="10.00">lib/Transforms/LLZKWhile</text>
<text text-anchor="middle" x="946.12" y="-76.75" font-family="Helvetica,sans-Serif" font-size="10.00">ToForPass.cpp</text>
</a>
</g>
</g>
<!-- Node2&#45;&gt;Node10 -->
<g id="edge10_Node000002_Node000010" class="edge">
<title>Node2&#45;&gt;Node10</title>
<g id="a_edge10_Node000002_Node000010"><a xlink:title=" ">
<path fill="none" stroke="#63b8ff" d="M690.32,-140.87C744.52,-129.51 820.99,-113.48 876.18,-101.91"/>
<polygon fill="#63b8ff" stroke="#63b8ff" points="689.66,-137.44 680.59,-142.91 691.1,-144.29 689.66,-137.44"/>
</a>
</g>
</g>
<!-- Node11 -->
<g id="Node000011" class="node">
<title>Node11</title>
<g id="a_Node000011"><a xlink:href="Interpreter_8cpp.html" target="_top" xlink:title=" ">
<polygon fill="white" stroke="#666666" points="1204.75,-96.62 1033.5,-96.62 1033.5,-75.88 1204.75,-75.88 1204.75,-96.62"/>
<text text-anchor="middle" x="1119.12" y="-83.12" font-family="Helvetica,sans-Serif" font-size="10.00">tools/llzk&#45;witgen/Interpreter.cpp</text>
</a>
</g>
</g>
<!-- Node2&#45;&gt;Node11 -->
<g id="edge11_Node000002_Node000011" class="edge">
<title>Node2&#45;&gt;Node11</title>
<g id="a_edge11_Node000002_Node000011"><a xlink:title=" ">
<path fill="none" stroke="#63b8ff" d="M690.34,-146.98C769.93,-137.46 907.49,-120.44 1025.12,-103 1037.24,-101.2 1050.2,-99.13 1062.51,-97.09"/>
<polygon fill="#63b8ff" stroke="#63b8ff" points="690.04,-143.49 680.53,-148.15 690.87,-150.44 690.04,-143.49"/>
</a>
</g>
</g>
<!-- Node12 -->
<g id="Node000012" class="node">
<title>Node12</title>
<g id="a_Node000012"><a xlink:href="WitgenLowering_8cpp.html" target="_top" xlink:title=" ">
<polygon fill="white" stroke="#666666" points="1357.38,-103 1222.88,-103 1222.88,-69.5 1357.38,-69.5 1357.38,-103"/>
<text text-anchor="start" x="1230.88" y="-89.5" font-family="Helvetica,sans-Serif" font-size="10.00">tools/llzk&#45;witgen/Witgen</text>
<text text-anchor="middle" x="1290.12" y="-76.75" font-family="Helvetica,sans-Serif" font-size="10.00">Lowering.cpp</text>
</a>
</g>
</g>
<!-- Node2&#45;&gt;Node12 -->
<g id="edge12_Node000002_Node000012" class="edge">
<title>Node2&#45;&gt;Node12</title>
<g id="a_edge12_Node000002_Node000012"><a xlink:title=" ">
<path fill="none" stroke="#63b8ff" d="M690.04,-151.49C799.38,-145.51 1024.99,-130.8 1214.12,-103 1216.92,-102.59 1219.78,-102.14 1222.65,-101.66"/>
<polygon fill="#63b8ff" stroke="#63b8ff" points="690.18,-147.98 680.38,-152.01 690.56,-154.96 690.18,-147.98"/>
</a>
</g>
</g>
<!-- Node4 -->
<g id="Node000004" class="node">
<title>Node4</title>
<g id="a_Node000004"><a xlink:href="IntervalAnalysis_8cpp.html" target="_top" xlink:title=" ">
<polygon fill="white" stroke="#666666" points="174.25,-27.12 0,-27.12 0,-6.38 174.25,-6.38 174.25,-27.12"/>
<text text-anchor="middle" x="87.12" y="-13.62" font-family="Helvetica,sans-Serif" font-size="10.00">lib/Analysis/IntervalAnalysis.cpp</text>
</a>
</g>
</g>
<!-- Node3&#45;&gt;Node4 -->
<g id="edge3_Node000003_Node000004" class="edge">
<title>Node3&#45;&gt;Node4</title>
<g id="a_edge3_Node000003_Node000004"><a xlink:title=" ">
<path fill="none" stroke="#63b8ff" d="M151.3,-62.87C134.29,-50.91 114.2,-36.79 101.09,-27.57"/>
<polygon fill="#63b8ff" stroke="#63b8ff" points="148.94,-65.49 159.14,-68.38 152.97,-59.77 148.94,-65.49"/>
</a>
</g>
</g>
<!-- Node3&#45;&gt;Node5 -->
<g id="edge4_Node000003_Node000005" class="edge">
<title>Node3&#45;&gt;Node5</title>
<g id="a_edge4_Node000003_Node000005"><a xlink:title=" ">
<path fill="none" stroke="#63b8ff" d="M212.25,-62.39C224.19,-53.02 237.72,-42.4 248.59,-33.87"/>
<polygon fill="#63b8ff" stroke="#63b8ff" points="210.4,-59.39 204.7,-68.32 214.72,-64.9 210.4,-59.39"/>
</a>
</g>
</g>
</g>
</svg>
