<?xml version="1.0" encoding="UTF-8" standalone="no"?>
<!DOCTYPE svg PUBLIC "-//W3C//DTD SVG 1.1//EN"
 "http://www.w3.org/Graphics/SVG/1.1/DTD/svg11.dtd">
<!-- Generated by graphviz version 12.2.1 (0)
 -->
<!-- Title: build/include/llzk/Dialect/Bool/IR/Enums.h.inc Pages: 1 -->
<svg width="1423pt" height="389pt"
 viewBox="0.00 0.00 1423.25 389.00" xmlns="http://www.w3.org/2000/svg" xmlns:xlink="http://www.w3.org/1999/xlink">
<g id="graph0" class="graph" transform="scale(1 1) rotate(0) translate(4 385)">
<title>build/include/llzk/Dialect/Bool/IR/Enums.h.inc</title>
<!-- Node1 -->
<g id="Node000001" class="node">
<title>Node1</title>
<g id="a_Node000001"><a xlink:title=" ">
<polygon fill="#999999" stroke="#666666" points="421.62,-381 268.38,-381 268.38,-347.5 421.62,-347.5 421.62,-381"/>
<text text-anchor="start" x="276.38" y="-367.5" font-family="Helvetica,sans-Serif" font-size="10.00">build/include/llzk</text>
<text text-anchor="middle" x="345" y="-354.75" font-family="Helvetica,sans-Serif" font-size="10.00">/Dialect/Bool/IR/Enums.h.inc</text>
</a>
</g>
</g>
<!-- Node2 -->
<g id="Node000002" class="node">
<title>Node2</title>
<g id="a_Node000002"><a xlink:href="Bool_2IR_2Enums_8h.html" target="_top" xlink:title=" ">
<polygon fill="white" stroke="#666666" points="399.5,-311.5 290.5,-311.5 290.5,-278 399.5,-278 399.5,-311.5"/>
<text text-anchor="start" x="298.5" y="-298" font-family="Helvetica,sans-Serif" font-size="10.00">include/llzk/Dialect</text>
<text text-anchor="middle" x="345" y="-285.25" font-family="Helvetica,sans-Serif" font-size="10.00">/Bool/IR/Enums.h</text>
</a>
</g>
</g>
<!-- Node1&#45;&gt;Node2 -->
<g id="edge1_Node000001_Node000002" class="edge">
<title>Node1&#45;&gt;Node2</title>
<g id="a_edge1_Node000001_Node000002"><a xlink:title=" ">
<path fill="none" stroke="#63b8ff" d="M345,-335.81C345,-327.59 345,-318.84 345,-311.63"/>
<polygon fill="#63b8ff" stroke="#63b8ff" points="341.5,-335.74 345,-345.74 348.5,-335.74 341.5,-335.74"/>
</a>
</g>
</g>
<!-- Node3 -->
<g id="Node000003" class="node">
<title>Node3</title>
<g id="a_Node000003"><a xlink:href="Bool_2IR_2Attrs_8h.html" target="_top" xlink:title=" ">
<polygon fill="white" stroke="#666666" points="337.5,-242 228.5,-242 228.5,-208.5 337.5,-208.5 337.5,-242"/>
<text text-anchor="start" x="236.5" y="-228.5" font-family="Helvetica,sans-Serif" font-size="10.00">include/llzk/Dialect</text>
<text text-anchor="middle" x="283" y="-215.75" font-family="Helvetica,sans-Serif" font-size="10.00">/Bool/IR/Attrs.h</text>
</a>
</g>
</g>
<!-- Node2&#45;&gt;Node3 -->
<g id="edge2_Node000002_Node000003" class="edge">
<title>Node2&#45;&gt;Node3</title>
<g id="a_edge2_Node000002_Node000003"><a xlink:title=" ">
<path fill="none" stroke="#63b8ff" d="M322.67,-269.44C314.32,-260.35 305.06,-250.27 297.59,-242.13"/>
<polygon fill="#63b8ff" stroke="#63b8ff" points="319.94,-271.64 329.28,-276.64 325.1,-266.91 319.94,-271.64"/>
</a>
</g>
</g>
<!-- Node16 -->
<g id="Node000016" class="node">
<title>Node16</title>
<g id="a_Node000016"><a xlink:href="Bool_2IR_2Enums_8cpp.html" target="_top" xlink:title=" ">
<polygon fill="white" stroke="#666666" points="458.5,-242 355.5,-242 355.5,-208.5 458.5,-208.5 458.5,-242"/>
<text text-anchor="start" x="363.5" y="-228.5" font-family="Helvetica,sans-Serif" font-size="10.00">lib/Dialect/Bool/IR</text>
<text text-anchor="middle" x="407" y="-215.75" font-family="Helvetica,sans-Serif" font-size="10.00">/Enums.cpp</text>
</a>
</g>
</g>
<!-- Node2&#45;&gt;Node16 -->
<g id="edge17_Node000002_Node000016" class="edge">
<title>Node2&#45;&gt;Node16</title>
<g id="a_edge17_Node000002_Node000016"><a xlink:title=" ">
<path fill="none" stroke="#63b8ff" d="M367.33,-269.44C375.68,-260.35 384.94,-250.27 392.41,-242.13"/>
<polygon fill="#63b8ff" stroke="#63b8ff" points="364.9,-266.91 360.72,-276.64 370.06,-271.64 364.9,-266.91"/>
</a>
</g>
</g>
<!-- Node4 -->
<g id="Node000004" class="node">
<title>Node4</title>
<g id="a_Node000004"><a xlink:href="Bool_2IR_2Ops_8h.html" target="_top" xlink:title=" ">
<polygon fill="white" stroke="#666666" points="553.5,-172.5 444.5,-172.5 444.5,-139 553.5,-139 553.5,-172.5"/>
<text text-anchor="start" x="452.5" y="-159" font-family="Helvetica,sans-Serif" font-size="10.00">include/llzk/Dialect</text>
<text text-anchor="middle" x="499" y="-146.25" font-family="Helvetica,sans-Serif" font-size="10.00">/Bool/IR/Ops.h</text>
</a>
</g>
</g>
<!-- Node3&#45;&gt;Node4 -->
<g id="edge3_Node000003_Node000004" class="edge">
<title>Node3&#45;&gt;Node4</title>
<g id="a_edge3_Node000003_Node000004"><a xlink:title=" ">
<path fill="none" stroke="#63b8ff" d="M345.42,-204.74C377.73,-194.65 416.71,-182.47 447.31,-172.9"/>
<polygon fill="#63b8ff" stroke="#63b8ff" points="344.68,-201.31 336.18,-207.63 346.77,-207.99 344.68,-201.31"/>
</a>
</g>
</g>
<!-- Node8 -->
<g id="Node000008" class="node">
<title>Node8</title>
<g id="a_Node000008"><a xlink:href="Bool_8cpp.html" target="_top" xlink:title=" ">
<polygon fill="white" stroke="#666666" points="136,-96.62 0,-96.62 0,-75.88 136,-75.88 136,-96.62"/>
<text text-anchor="middle" x="68" y="-83.12" font-family="Helvetica,sans-Serif" font-size="10.00">lib/CAPI/Dialect/Bool.cpp</text>
</a>
</g>
</g>
<!-- Node3&#45;&gt;Node8 -->
<g id="edge16_Node000003_Node000008" class="edge">
<title>Node3&#45;&gt;Node8</title>
<g id="a_edge16_Node000003_Node000008"><a xlink:title=" ">
<path fill="none" stroke="#63b8ff" d="M248.35,-202.17C200.83,-171.89 117.44,-118.76 83.27,-96.98"/>
<polygon fill="#63b8ff" stroke="#63b8ff" points="246.33,-205.03 256.64,-207.45 250.09,-199.13 246.33,-205.03"/>
</a>
</g>
</g>
<!-- Node5 -->
<g id="Node000005" class="node">
<title>Node5</title>
<g id="a_Node000005"><a xlink:href="IntervalAnalysis_8h.html" target="_top" xlink:title=" ">
<polygon fill="white" stroke="#666666" points="269.88,-103 154.12,-103 154.12,-69.5 269.88,-69.5 269.88,-103"/>
<text text-anchor="start" x="162.12" y="-89.5" font-family="Helvetica,sans-Serif" font-size="10.00">include/llzk/Analysis</text>
<text text-anchor="middle" x="212" y="-76.75" font-family="Helvetica,sans-Serif" font-size="10.00">/IntervalAnalysis.h</text>
</a>
</g>
</g>
<!-- Node4&#45;&gt;Node5 -->
<g id="edge4_Node000004_Node000005" class="edge">
<title>Node4&#45;&gt;Node5</title>
<g id="a_edge4_Node000004_Node000005"><a xlink:title=" ">
<path fill="none" stroke="#63b8ff" d="M432.86,-139.19C383.74,-127.64 317.38,-112.04 270.26,-100.95"/>
<polygon fill="#63b8ff" stroke="#63b8ff" points="431.99,-142.59 442.53,-141.47 433.6,-135.77 431.99,-142.59"/>
</a>
</g>
</g>
<!-- Node7 -->
<g id="Node000007" class="node">
<title>Node7</title>
<g id="a_Node000007"><a xlink:href="IntervalAnalysisPass_8cpp.html" target="_top" xlink:title="This file implements the &#45;llzk&#45;print&#45;interval&#45;analysis pass.">
<polygon fill="white" stroke="#666666" points="375,-33.5 221,-33.5 221,0 375,0 375,-33.5"/>
<text text-anchor="start" x="229" y="-20" font-family="Helvetica,sans-Serif" font-size="10.00">lib/Analysis/IntervalAnalysis</text>
<text text-anchor="middle" x="298" y="-7.25" font-family="Helvetica,sans-Serif" font-size="10.00">Pass.cpp</text>
</a>
</g>
</g>
<!-- Node4&#45;&gt;Node7 -->
<g id="edge7_Node000004_Node000007" class="edge">
<title>Node4&#45;&gt;Node7</title>
<g id="a_edge7_Node000004_Node000007"><a xlink:title=" ">
<path fill="none" stroke="#63b8ff" d="M432.86,-151.96C394.29,-146.83 347.55,-134.01 318,-103 300.17,-84.29 297.2,-52.84 297.22,-33.81"/>
<polygon fill="#63b8ff" stroke="#63b8ff" points="432.18,-155.4 442.52,-153.09 433,-148.45 432.18,-155.4"/>
</a>
</g>
</g>
<!-- Node4&#45;&gt;Node8 -->
<g id="edge8_Node000004_Node000008" class="edge">
<title>Node4&#45;&gt;Node8</title>
<g id="a_edge8_Node000004_Node000008"><a xlink:title=" ">
<path fill="none" stroke="#63b8ff" d="M433.24,-146.27C362.03,-136.82 245.18,-120.55 145,-103 134.92,-101.23 124.14,-99.15 113.93,-97.09"/>
<polygon fill="#63b8ff" stroke="#63b8ff" points="432.39,-149.69 442.77,-147.53 433.31,-142.75 432.39,-149.69"/>
</a>
</g>
</g>
<!-- Node9 -->
<g id="Node000009" class="node">
<title>Node9</title>
<g id="a_Node000009"><a xlink:href="Bool_2IR_2Dialect_8cpp.html" target="_top" xlink:title=" ">
<polygon fill="white" stroke="#666666" points="429.5,-103 326.5,-103 326.5,-69.5 429.5,-69.5 429.5,-103"/>
<text text-anchor="start" x="334.5" y="-89.5" font-family="Helvetica,sans-Serif" font-size="10.00">lib/Dialect/Bool/IR</text>
<text text-anchor="middle" x="378" y="-76.75" font-family="Helvetica,sans-Serif" font-size="10.00">/Dialect.cpp</text>
</a>
</g>
</g>
<!-- Node4&#45;&gt;Node9 -->
<g id="edge9_Node000004_Node000009" class="edge">
<title>Node4&#45;&gt;Node9</title>
<g id="a_edge9_Node000004_Node000009"><a xlink:title=" ">
<path fill="none" stroke="#63b8ff" d="M460.17,-133.09C442.81,-123.41 422.72,-112.2 406.75,-103.29"/>
<polygon fill="#63b8ff" stroke="#63b8ff" points="458.26,-136.03 468.7,-137.84 461.67,-129.92 458.26,-136.03"/>
</a>
</g>
</g>
<!-- Node10 -->
<g id="Node000010" class="node">
<title>Node10</title>
<g id="a_Node000010"><a xlink:href="Bool_2IR_2Ops_8cpp.html" target="_top" xlink:title=" ">
<polygon fill="white" stroke="#666666" points="550.5,-103 447.5,-103 447.5,-69.5 550.5,-69.5 550.5,-103"/>
<text text-anchor="start" x="455.5" y="-89.5" font-family="Helvetica,sans-Serif" font-size="10.00">lib/Dialect/Bool/IR</text>
<text text-anchor="middle" x="499" y="-76.75" font-family="Helvetica,sans-Serif" font-size="10.00">/Ops.cpp</text>
</a>
</g>
</g>
<!-- Node4&#45;&gt;Node10 -->
<g id="edge10_Node000004_Node000010" class="edge">
<title>Node4&#45;&gt;Node10</title>
<g id="a_edge10_Node000004_Node000010"><a xlink:title=" ">
<path fill="none" stroke="#63b8ff" d="M499,-127.31C499,-119.09 499,-110.34 499,-103.13"/>
<polygon fill="#63b8ff" stroke="#63b8ff" points="495.5,-127.24 499,-137.24 502.5,-127.24 495.5,-127.24"/>
</a>
</g>
</g>
<!-- Node11 -->
<g id="Node000011" class="node">
<title>Node11</title>
<g id="a_Node000011"><a xlink:href="LowerBoolQuantifiersPass_8cpp.html" target="_top" xlink:title="This file implements the &#45;llzk&#45;lower&#45;bool&#45;quantifiers pass.">
<polygon fill="white" stroke="#666666" points="733.62,-103 568.38,-103 568.38,-69.5 733.62,-69.5 733.62,-103"/>
<text text-anchor="start" x="576.38" y="-89.5" font-family="Helvetica,sans-Serif" font-size="10.00">lib/Dialect/Bool/Transforms</text>
<text text-anchor="middle" x="651" y="-76.75" font-family="Helvetica,sans-Serif" font-size="10.00">/LowerBoolQuantifiersPass.cpp</text>
</a>
</g>
</g>
<!-- Node4&#45;&gt;Node11 -->
<g id="edge11_Node000004_Node000011" class="edge">
<title>Node4&#45;&gt;Node11</title>
<g id="a_edge11_Node000004_Node000011"><a xlink:title=" ">
<path fill="none" stroke="#63b8ff" d="M545.92,-133.92C568.04,-124.09 594.03,-112.55 614.63,-103.4"/>
<polygon fill="#63b8ff" stroke="#63b8ff" points="544.51,-130.71 536.79,-137.97 547.35,-137.11 544.51,-130.71"/>
</a>
</g>
</g>
<!-- Node12 -->
<g id="Node000012" class="node">
<title>Node12</title>
<g id="a_Node000012"><a xlink:href="LLZKRedundantOperationEliminationPass_8cpp.html" target="_top" xlink:title="This file implements the &#45;llzk&#45;duplicate&#45;op&#45;elim pass.">
<polygon fill="white" stroke="#666666" points="916.25,-103 751.75,-103 751.75,-69.5 916.25,-69.5 916.25,-103"/>
<text text-anchor="start" x="759.75" y="-89.5" font-family="Helvetica,sans-Serif" font-size="10.00">lib/Transforms/LLZKRedundant</text>
<text text-anchor="middle" x="834" y="-76.75" font-family="Helvetica,sans-Serif" font-size="10.00">OperationEliminationPass.cpp</text>
</a>
</g>
</g>
<!-- Node4&#45;&gt;Node12 -->
<g id="edge12_Node000004_Node000012" class="edge">
<title>Node4&#45;&gt;Node12</title>
<g id="a_edge12_Node000004_Node000012"><a xlink:title=" ">
<path fill="none" stroke="#63b8ff" d="M565.13,-141.42C619.25,-130.52 696,-115.06 753.65,-103.44"/>
<polygon fill="#63b8ff" stroke="#63b8ff" points="564.54,-137.97 555.43,-143.38 565.92,-144.84 564.54,-137.97"/>
</a>
</g>
</g>
<!-- Node13 -->
<g id="Node000013" class="node">
<title>Node13</title>
<g id="a_Node000013"><a xlink:href="LLZKWhileToForPass_8cpp.html" target="_top" xlink:title="This file identifies scf.while loops that can be converted to scf.for loops and performs the conversi...">
<polygon fill="white" stroke="#666666" points="1073.5,-103 934.5,-103 934.5,-69.5 1073.5,-69.5 1073.5,-103"/>
<text text-anchor="start" x="942.5" y="-89.5" font-family="Helvetica,sans-Serif" font-size="10.00">lib/Transforms/LLZKWhile</text>
<text text-anchor="middle" x="1004" y="-76.75" font-family="Helvetica,sans-Serif" font-size="10.00">ToForPass.cpp</text>
</a>
</g>
</g>
<!-- Node4&#45;&gt;Node13 -->
<g id="edge13_Node000004_Node000013" class="edge">
<title>Node4&#45;&gt;Node13</title>
<g id="a_edge13_Node000004_Node000013"><a xlink:title=" ">
<path fill="none" stroke="#63b8ff" d="M565.4,-148.26C649.4,-139.69 798.36,-123.29 925,-103 928.04,-102.51 931.14,-101.99 934.26,-101.45"/>
<polygon fill="#63b8ff" stroke="#63b8ff" points="565.1,-144.77 555.5,-149.26 565.8,-151.74 565.1,-144.77"/>
</a>
</g>
</g>
<!-- Node14 -->
<g id="Node000014" class="node">
<title>Node14</title>
<g id="a_Node000014"><a xlink:href="Interpreter_8cpp.html" target="_top" xlink:title=" ">
<polygon fill="white" stroke="#666666" points="1262.62,-96.62 1091.38,-96.62 1091.38,-75.88 1262.62,-75.88 1262.62,-96.62"/>
<text text-anchor="middle" x="1177" y="-83.12" font-family="Helvetica,sans-Serif" font-size="10.00">tools/llzk&#45;witgen/Interpreter.cpp</text>
</a>
</g>
</g>
<!-- Node4&#45;&gt;Node14 -->
<g id="edge14_Node000004_Node000014" class="edge">
<title>Node4&#45;&gt;Node14</title>
<g id="a_edge14_Node000004_Node000014"><a xlink:title=" ">
<path fill="none" stroke="#63b8ff" d="M565.3,-150.56C673.81,-143.32 895.96,-126.92 1083,-103 1095.97,-101.34 1109.88,-99.21 1122.93,-97.05"/>
<polygon fill="#63b8ff" stroke="#63b8ff" points="565.16,-147.06 555.41,-151.21 565.62,-154.04 565.16,-147.06"/>
</a>
</g>
</g>
<!-- Node15 -->
<g id="Node000015" class="node">
<title>Node15</title>
<g id="a_Node000015"><a xlink:href="WitgenLowering_8cpp.html" target="_top" xlink:title=" ">
<polygon fill="white" stroke="#666666" points="1415.25,-103 1280.75,-103 1280.75,-69.5 1415.25,-69.5 1415.25,-103"/>
<text text-anchor="start" x="1288.75" y="-89.5" font-family="Helvetica,sans-Serif" font-size="10.00">tools/llzk&#45;witgen/Witgen</text>
<text text-anchor="middle" x="1348" y="-76.75" font-family="Helvetica,sans-Serif" font-size="10.00">Lowering.cpp</text>
</a>
</g>
</g>
<!-- Node4&#45;&gt;Node15 -->
<g id="edge15_Node000004_Node000015" class="edge">
<title>Node4&#45;&gt;Node15</title>
<g id="a_edge15_Node000004_Node000015"><a xlink:title=" ">
<path fill="none" stroke="#63b8ff" d="M564.85,-153.39C698.66,-149.96 1011.72,-138.51 1272,-103 1274.8,-102.62 1277.66,-102.19 1280.54,-101.73"/>
<polygon fill="#63b8ff" stroke="#63b8ff" points="565.04,-149.89 555.13,-153.63 565.21,-156.88 565.04,-149.89"/>
</a>
</g>
</g>
<!-- Node6 -->
<g id="Node000006" class="node">
<title>Node6</title>
<g id="a_Node000006"><a xlink:href="IntervalAnalysis_8cpp.html" target="_top" xlink:title=" ">
<polygon fill="white" stroke="#666666" points="203.12,-27.12 28.88,-27.12 28.88,-6.38 203.12,-6.38 203.12,-27.12"/>
<text text-anchor="middle" x="116" y="-13.62" font-family="Helvetica,sans-Serif" font-size="10.00">lib/Analysis/IntervalAnalysis.cpp</text>
</a>
</g>
</g>
<!-- Node5&#45;&gt;Node6 -->
<g id="edge5_Node000005_Node000006" class="edge">
<title>Node5&#45;&gt;Node6</title>
<g id="a_edge5_Node000005_Node000006"><a xlink:title=" ">
<path fill="none" stroke="#63b8ff" d="M180.18,-62.87C163.16,-50.91 143.08,-36.79 129.97,-27.57"/>
<polygon fill="#63b8ff" stroke="#63b8ff" points="177.82,-65.49 188.01,-68.38 181.84,-59.77 177.82,-65.49"/>
</a>
</g>
</g>
<!-- Node5&#45;&gt;Node7 -->
<g id="edge6_Node000005_Node000007" class="edge">
<title>Node5&#45;&gt;Node7</title>
<g id="a_edge6_Node000005_Node000007"><a xlink:title=" ">
<path fill="none" stroke="#63b8ff" d="M241.13,-62.39C253.06,-53.02 266.6,-42.4 277.47,-33.87"/>
<polygon fill="#63b8ff" stroke="#63b8ff" points="239.28,-59.39 233.57,-68.32 243.6,-64.9 239.28,-59.39"/>
</a>
</g>
</g>
</g>
</svg>
