<?xml version="1.0" encoding="UTF-8" standalone="no"?>
<!DOCTYPE svg PUBLIC "-//W3C//DTD SVG 1.1//EN"
 "http://www.w3.org/Graphics/SVG/1.1/DTD/svg11.dtd">
<!-- Generated by graphviz version 12.2.1 (0)
 -->
<!-- Title: build/include/llzk/Dialect/Bool/IR/Attrs.capi.h.inc Pages: 1 -->
<svg width="200pt" height="155pt"
 viewBox="0.00 0.00 200.38 155.00" xmlns="http://www.w3.org/2000/svg" xmlns:xlink="http://www.w3.org/1999/xlink">
<g id="graph0" class="graph" transform="scale(1 1) rotate(0) translate(4 151)">
<title>build/include/llzk/Dialect/Bool/IR/Attrs.capi.h.inc</title>
<!-- Node1 -->
<g id="Node000001" class="node">
<title>Node1</title>
<g id="a_Node000001"><a xlink:title=" ">
<polygon fill="#999999" stroke="#666666" points="166.75,-147 0,-147 0,-113.5 166.75,-113.5 166.75,-147"/>
<text text-anchor="start" x="8" y="-133.5" font-family="Helvetica,sans-Serif" font-size="10.00">build/include/llzk</text>
<text text-anchor="middle" x="83.38" y="-120.75" font-family="Helvetica,sans-Serif" font-size="10.00">/Dialect/Bool/IR/Attrs.capi.h.inc</text>
</a>
</g>
</g>
<!-- Node2 -->
<g id="Node000002" class="node">
<title>Node2</title>
<g id="a_Node000002"><a xlink:href="llzk-c_2Builder_8h.html" target="_top" xlink:title=" ">
<polygon fill="white" stroke="#666666" points="163.38,-77.5 75.38,-77.5 75.38,-56.75 163.38,-56.75 163.38,-77.5"/>
<text text-anchor="middle" x="119.38" y="-64" font-family="Helvetica,sans-Serif" font-size="10.00">llzk&#45;c/Builder.h</text>
</a>
</g>
</g>
<!-- Node1&#45;&gt;Node2 -->
<g id="edge1_Node000001_Node000002" class="edge">
<title>Node1&#45;&gt;Node2</title>
<g id="a_edge1_Node000001_Node000002"><a xlink:title=" ">
<path fill="none" stroke="#63b8ff" d="M92.83,-113.19C97.41,-105.42 102.95,-96.02 107.78,-87.82"/>
<polygon fill="#63b8ff" stroke="#63b8ff" points="110.75,-89.66 112.81,-79.27 104.72,-86.11 110.75,-89.66"/>
</a>
</g>
</g>
<!-- Node3 -->
<g id="Node000003" class="node">
<title>Node3</title>
<g id="a_Node000003"><a xlink:title=" ">
<polygon fill="#e0e0e0" stroke="#999999" points="80.5,-20.75 14.25,-20.75 14.25,0 80.5,0 80.5,-20.75"/>
<text text-anchor="middle" x="47.38" y="-7.25" font-family="Helvetica,sans-Serif" font-size="10.00">mlir&#45;c/IR.h</text>
</a>
</g>
</g>
<!-- Node1&#45;&gt;Node3 -->
<g id="edge4_Node000001_Node000003" class="edge">
<title>Node1&#45;&gt;Node3</title>
<g id="a_edge4_Node000001_Node000003"><a xlink:title=" ">
<path fill="none" stroke="#63b8ff" d="M78.01,-113.44C74.59,-103.22 70.1,-89.61 66.38,-77.5 61.69,-62.27 56.73,-44.96 53.05,-31.88"/>
<polygon fill="#63b8ff" stroke="#63b8ff" points="56.43,-30.98 50.38,-22.28 49.69,-32.86 56.43,-30.98"/>
</a>
</g>
</g>
<!-- Node2&#45;&gt;Node3 -->
<g id="edge2_Node000002_Node000003" class="edge">
<title>Node2&#45;&gt;Node3</title>
<g id="a_edge2_Node000002_Node000003"><a xlink:title=" ">
<path fill="none" stroke="#63b8ff" d="M106.5,-56.34C96.16,-48.47 81.41,-37.25 69.22,-27.99"/>
<polygon fill="#63b8ff" stroke="#63b8ff" points="71.42,-25.26 61.34,-21.99 67.18,-30.83 71.42,-25.26"/>
</a>
</g>
</g>
<!-- Node4 -->
<g id="Node000004" class="node">
<title>Node4</title>
<g id="a_Node000004"><a xlink:title=" ">
<polygon fill="#e0e0e0" stroke="#999999" points="192.38,-20.75 98.38,-20.75 98.38,0 192.38,0 192.38,-20.75"/>
<text text-anchor="middle" x="145.38" y="-7.25" font-family="Helvetica,sans-Serif" font-size="10.00">mlir&#45;c/Support.h</text>
</a>
</g>
</g>
<!-- Node2&#45;&gt;Node4 -->
<g id="edge3_Node000002_Node000004" class="edge">
<title>Node2&#45;&gt;Node4</title>
<g id="a_edge3_Node000002_Node000004"><a xlink:title=" ">
<path fill="none" stroke="#63b8ff" d="M124.02,-56.34C127.31,-49.41 131.84,-39.87 135.88,-31.36"/>
<polygon fill="#63b8ff" stroke="#63b8ff" points="138.99,-32.98 140.12,-22.45 132.67,-29.98 138.99,-32.98"/>
</a>
</g>
</g>
</g>
</svg>
