<?xml version="1.0" encoding="UTF-8" standalone="no"?>
<!DOCTYPE svg PUBLIC "-//W3C//DTD SVG 1.1//EN"
 "http://www.w3.org/Graphics/SVG/1.1/DTD/svg11.dtd">
<!-- Generated by graphviz version 12.2.1 (0)
 -->
<!-- Title: lib/CAPI/InitDialects.cpp Pages: 1 -->
<svg width="529pt" height="142pt"
 viewBox="0.00 0.00 529.38 142.25" xmlns="http://www.w3.org/2000/svg" xmlns:xlink="http://www.w3.org/1999/xlink">
<g id="graph0" class="graph" transform="scale(1 1) rotate(0) translate(4 138.25)">
<title>lib/CAPI/InitDialects.cpp</title>
<!-- Node1 -->
<g id="Node000001" class="node">
<title>Node1</title>
<g id="a_Node000001"><a xlink:title=" ">
<polygon fill="#999999" stroke="#666666" points="360.25,-134.25 228,-134.25 228,-113.5 360.25,-113.5 360.25,-134.25"/>
<text text-anchor="middle" x="294.12" y="-120.75" font-family="Helvetica,sans-Serif" font-size="10.00">lib/CAPI/InitDialects.cpp</text>
</a>
</g>
</g>
<!-- Node2 -->
<g id="Node000002" class="node">
<title>Node2</title>
<g id="a_Node000002"><a xlink:href="llzk_2Dialect_2InitDialects_8h.html" target="_top" xlink:title="This file defines llzk::registerAllDialects.">
<polygon fill="white" stroke="#666666" points="138.25,-77.5 0,-77.5 0,-56.75 138.25,-56.75 138.25,-77.5"/>
<text text-anchor="middle" x="69.12" y="-64" font-family="Helvetica,sans-Serif" font-size="10.00">llzk/Dialect/InitDialects.h</text>
</a>
</g>
</g>
<!-- Node1&#45;&gt;Node2 -->
<g id="edge1_Node000001_Node000002" class="edge">
<title>Node1&#45;&gt;Node2</title>
<g id="a_edge1_Node000001_Node000002"><a xlink:title=" ">
<path fill="none" stroke="#63b8ff" d="M253.64,-113.02C216.4,-103.96 161,-90.48 120.63,-80.66"/>
<polygon fill="#63b8ff" stroke="#63b8ff" points="121.68,-77.31 111.13,-78.35 120.02,-84.11 121.68,-77.31"/>
</a>
</g>
</g>
<!-- Node3 -->
<g id="Node000003" class="node">
<title>Node3</title>
<g id="a_Node000003"><a xlink:href="llzk-c_2InitDialects_8h.html" target="_top" xlink:title=" ">
<polygon fill="white" stroke="#666666" points="266,-77.5 156.25,-77.5 156.25,-56.75 266,-56.75 266,-77.5"/>
<text text-anchor="middle" x="211.12" y="-64" font-family="Helvetica,sans-Serif" font-size="10.00">llzk&#45;c/InitDialects.h</text>
</a>
</g>
</g>
<!-- Node1&#45;&gt;Node3 -->
<g id="edge2_Node000001_Node000003" class="edge">
<title>Node1&#45;&gt;Node3</title>
<g id="a_edge2_Node000001_Node000003"><a xlink:title=" ">
<path fill="none" stroke="#63b8ff" d="M279.29,-113.09C267.01,-104.99 249.34,-93.33 235.07,-83.92"/>
<polygon fill="#63b8ff" stroke="#63b8ff" points="237.37,-81.25 227.1,-78.66 233.52,-87.09 237.37,-81.25"/>
</a>
</g>
</g>
<!-- Node4 -->
<g id="Node000004" class="node">
<title>Node4</title>
<g id="a_Node000004"><a xlink:title=" ">
<polygon fill="#e0e0e0" stroke="#999999" points="285.25,-20.75 219,-20.75 219,0 285.25,0 285.25,-20.75"/>
<text text-anchor="middle" x="252.12" y="-7.25" font-family="Helvetica,sans-Serif" font-size="10.00">mlir&#45;c/IR.h</text>
</a>
</g>
</g>
<!-- Node1&#45;&gt;Node4 -->
<g id="edge6_Node000001_Node000004" class="edge">
<title>Node1&#45;&gt;Node4</title>
<g id="a_edge6_Node000001_Node000004"><a xlink:title=" ">
<path fill="none" stroke="#63b8ff" d="M291.97,-113.27C288.91,-100.23 282.81,-76.32 275.12,-56.75 271.74,-48.15 267.28,-38.99 263.19,-31.18"/>
<polygon fill="#63b8ff" stroke="#63b8ff" points="266.36,-29.68 258.52,-22.55 260.2,-33.01 266.36,-29.68"/>
</a>
</g>
</g>
<!-- Node5 -->
<g id="Node000005" class="node">
<title>Node5</title>
<g id="a_Node000005"><a xlink:title=" ">
<polygon fill="#e0e0e0" stroke="#999999" points="404.5,-77.5 321.75,-77.5 321.75,-56.75 404.5,-56.75 404.5,-77.5"/>
<text text-anchor="middle" x="363.12" y="-64" font-family="Helvetica,sans-Serif" font-size="10.00">mlir/CAPI/IR.h</text>
</a>
</g>
</g>
<!-- Node1&#45;&gt;Node5 -->
<g id="edge4_Node000001_Node000005" class="edge">
<title>Node1&#45;&gt;Node5</title>
<g id="a_edge4_Node000001_Node000005"><a xlink:title=" ">
<path fill="none" stroke="#63b8ff" d="M306.46,-113.09C316.37,-105.22 330.51,-94 342.19,-84.74"/>
<polygon fill="#63b8ff" stroke="#63b8ff" points="344.05,-87.73 349.71,-78.77 339.7,-82.24 344.05,-87.73"/>
</a>
</g>
</g>
<!-- Node6 -->
<g id="Node000006" class="node">
<title>Node6</title>
<g id="a_Node000006"><a xlink:title=" ">
<polygon fill="#e0e0e0" stroke="#999999" points="521.38,-77.5 422.88,-77.5 422.88,-56.75 521.38,-56.75 521.38,-77.5"/>
<text text-anchor="middle" x="472.12" y="-64" font-family="Helvetica,sans-Serif" font-size="10.00">mlir/CAPI/Wrap.h</text>
</a>
</g>
</g>
<!-- Node1&#45;&gt;Node6 -->
<g id="edge5_Node000001_Node000006" class="edge">
<title>Node1&#45;&gt;Node6</title>
<g id="a_edge5_Node000001_Node000006"><a xlink:title=" ">
<path fill="none" stroke="#63b8ff" d="M325.95,-113.09C354.84,-104.2 397.68,-91.02 429.52,-81.23"/>
<polygon fill="#63b8ff" stroke="#63b8ff" points="430.3,-84.65 438.83,-78.37 428.24,-77.96 430.3,-84.65"/>
</a>
</g>
</g>
<!-- Node3&#45;&gt;Node4 -->
<g id="edge3_Node000003_Node000004" class="edge">
<title>Node3&#45;&gt;Node4</title>
<g id="a_edge3_Node000003_Node000004"><a xlink:title=" ">
<path fill="none" stroke="#63b8ff" d="M218.45,-56.34C223.88,-49.1 231.43,-39.01 238.01,-30.22"/>
<polygon fill="#63b8ff" stroke="#63b8ff" points="240.76,-32.39 243.95,-22.29 235.16,-28.2 240.76,-32.39"/>
</a>
</g>
</g>
</g>
</svg>
