<?xml version="1.0" encoding="UTF-8" standalone="no"?>
<!DOCTYPE svg PUBLIC "-//W3C//DTD SVG 1.1//EN"
 "http://www.w3.org/Graphics/SVG/1.1/DTD/svg11.dtd">
<!-- Generated by graphviz version 12.2.1 (0)
 -->
<!-- Title: build/include/llzk/Dialect/Cast/IR/Dialect.h.inc Pages: 1 -->
<svg width="1230pt" height="320pt"
 viewBox="0.00 0.00 1230.00 319.50" xmlns="http://www.w3.org/2000/svg" xmlns:xlink="http://www.w3.org/1999/xlink">
<g id="graph0" class="graph" transform="scale(1 1) rotate(0) translate(4 315.5)">
<title>build/include/llzk/Dialect/Cast/IR/Dialect.h.inc</title>
<!-- Node1 -->
<g id="Node000001" class="node">
<title>Node1</title>
<g id="a_Node000001"><a xlink:title=" ">
<polygon fill="#999999" stroke="#666666" points="622.38,-311.5 467.62,-311.5 467.62,-278 622.38,-278 622.38,-311.5"/>
<text text-anchor="start" x="475.62" y="-298" font-family="Helvetica,sans-Serif" font-size="10.00">build/include/llzk</text>
<text text-anchor="middle" x="545" y="-285.25" font-family="Helvetica,sans-Serif" font-size="10.00">/Dialect/Cast/IR/Dialect.h.inc</text>
</a>
</g>
</g>
<!-- Node2 -->
<g id="Node000002" class="node">
<title>Node2</title>
<g id="a_Node000002"><a xlink:href="Cast_2IR_2Dialect_8h.html" target="_top" xlink:title=" ">
<polygon fill="white" stroke="#666666" points="599.5,-242 490.5,-242 490.5,-208.5 599.5,-208.5 599.5,-242"/>
<text text-anchor="start" x="498.5" y="-228.5" font-family="Helvetica,sans-Serif" font-size="10.00">include/llzk/Dialect</text>
<text text-anchor="middle" x="545" y="-215.75" font-family="Helvetica,sans-Serif" font-size="10.00">/Cast/IR/Dialect.h</text>
</a>
</g>
</g>
<!-- Node1&#45;&gt;Node2 -->
<g id="edge1_Node000001_Node000002" class="edge">
<title>Node1&#45;&gt;Node2</title>
<g id="a_edge1_Node000001_Node000002"><a xlink:title=" ">
<path fill="none" stroke="#63b8ff" d="M545,-266.31C545,-258.09 545,-249.34 545,-242.13"/>
<polygon fill="#63b8ff" stroke="#63b8ff" points="541.5,-266.24 545,-276.24 548.5,-266.24 541.5,-266.24"/>
</a>
</g>
</g>
<!-- Node3 -->
<g id="Node000003" class="node">
<title>Node3</title>
<g id="a_Node000003"><a xlink:href="Cast_2IR_2Ops_8h.html" target="_top" xlink:title=" ">
<polygon fill="white" stroke="#666666" points="329.5,-172.5 220.5,-172.5 220.5,-139 329.5,-139 329.5,-172.5"/>
<text text-anchor="start" x="228.5" y="-159" font-family="Helvetica,sans-Serif" font-size="10.00">include/llzk/Dialect</text>
<text text-anchor="middle" x="275" y="-146.25" font-family="Helvetica,sans-Serif" font-size="10.00">/Cast/IR/Ops.h</text>
</a>
</g>
</g>
<!-- Node2&#45;&gt;Node3 -->
<g id="edge2_Node000002_Node000003" class="edge">
<title>Node2&#45;&gt;Node3</title>
<g id="a_edge2_Node000002_Node000003"><a xlink:title=" ">
<path fill="none" stroke="#63b8ff" d="M479.03,-207.76C433.27,-196.32 373.03,-181.26 329.89,-170.47"/>
<polygon fill="#63b8ff" stroke="#63b8ff" points="478.02,-211.11 488.57,-210.14 479.72,-204.32 478.02,-211.11"/>
</a>
</g>
</g>
<!-- Node7 -->
<g id="Node000007" class="node">
<title>Node7</title>
<g id="a_Node000007"><a xlink:href="Cast_8cpp.html" target="_top" xlink:title=" ">
<polygon fill="white" stroke="#666666" points="136,-96.62 0,-96.62 0,-75.88 136,-75.88 136,-96.62"/>
<text text-anchor="middle" x="68" y="-83.12" font-family="Helvetica,sans-Serif" font-size="10.00">lib/CAPI/Dialect/Cast.cpp</text>
</a>
</g>
</g>
<!-- Node2&#45;&gt;Node7 -->
<g id="edge9_Node000002_Node000007" class="edge">
<title>Node2&#45;&gt;Node7</title>
<g id="a_edge9_Node000002_Node000007"><a xlink:title=" ">
<path fill="none" stroke="#63b8ff" d="M478.62,-221.33C410.07,-216.63 300.89,-204.38 212,-172.5 159.49,-153.67 104.75,-115.13 80.66,-97.04"/>
<polygon fill="#63b8ff" stroke="#63b8ff" points="478.38,-224.82 488.58,-221.98 478.83,-217.84 478.38,-224.82"/>
</a>
</g>
</g>
<!-- Node8 -->
<g id="Node000008" class="node">
<title>Node8</title>
<g id="a_Node000008"><a xlink:href="Cast_2IR_2Dialect_8cpp.html" target="_top" xlink:title=" ">
<polygon fill="white" stroke="#666666" points="511.5,-103 408.5,-103 408.5,-69.5 511.5,-69.5 511.5,-103"/>
<text text-anchor="start" x="416.5" y="-89.5" font-family="Helvetica,sans-Serif" font-size="10.00">lib/Dialect/Cast/IR</text>
<text text-anchor="middle" x="460" y="-76.75" font-family="Helvetica,sans-Serif" font-size="10.00">/Dialect.cpp</text>
</a>
</g>
</g>
<!-- Node2&#45;&gt;Node8 -->
<g id="edge11_Node000002_Node000008" class="edge">
<title>Node2&#45;&gt;Node8</title>
<g id="a_edge11_Node000002_Node000008"><a xlink:title=" ">
<path fill="none" stroke="#63b8ff" d="M478.99,-222.03C442.66,-217 400.33,-204.1 377,-172.5 368.16,-160.52 369.78,-152.02 377,-139 385.82,-123.11 401.76,-111.47 417.34,-103.29"/>
<polygon fill="#63b8ff" stroke="#63b8ff" points="478.19,-225.46 488.54,-223.16 479.02,-218.51 478.19,-225.46"/>
</a>
</g>
</g>
<!-- Node10 -->
<g id="Node000010" class="node">
<title>Node10</title>
<g id="a_Node000010"><a xlink:href="ArrayToScalarPass_8cpp.html" target="_top" xlink:title="This file implements the &#45;llzk&#45;array&#45;to&#45;scalar pass.">
<polygon fill="white" stroke="#666666" points="537.88,-172.5 386.12,-172.5 386.12,-139 537.88,-139 537.88,-172.5"/>
<text text-anchor="start" x="394.12" y="-159" font-family="Helvetica,sans-Serif" font-size="10.00">lib/Dialect/Array/Transforms</text>
<text text-anchor="middle" x="462" y="-146.25" font-family="Helvetica,sans-Serif" font-size="10.00">/ArrayToScalarPass.cpp</text>
</a>
</g>
</g>
<!-- Node2&#45;&gt;Node10 -->
<g id="edge10_Node000002_Node000010" class="edge">
<title>Node2&#45;&gt;Node10</title>
<g id="a_edge10_Node000002_Node000010"><a xlink:title=" ">
<path fill="none" stroke="#63b8ff" d="M516.55,-201.11C505.11,-191.81 492.2,-181.31 481.82,-172.87"/>
<polygon fill="#63b8ff" stroke="#63b8ff" points="514.19,-203.7 524.16,-207.3 518.61,-198.27 514.19,-203.7"/>
</a>
</g>
</g>
<!-- Node11 -->
<g id="Node000011" class="node">
<title>Node11</title>
<g id="a_Node000011"><a xlink:href="Dialect_2InitDialects_8cpp.html" target="_top" xlink:title=" ">
<polygon fill="white" stroke="#666666" points="700.12,-166.12 555.88,-166.12 555.88,-145.38 700.12,-145.38 700.12,-166.12"/>
<text text-anchor="middle" x="628" y="-152.62" font-family="Helvetica,sans-Serif" font-size="10.00">lib/Dialect/InitDialects.cpp</text>
</a>
</g>
</g>
<!-- Node2&#45;&gt;Node11 -->
<g id="edge12_Node000002_Node000011" class="edge">
<title>Node2&#45;&gt;Node11</title>
<g id="a_edge12_Node000002_Node000011"><a xlink:title=" ">
<path fill="none" stroke="#63b8ff" d="M573.33,-201.21C587.86,-189.39 604.8,-175.62 615.92,-166.57"/>
<polygon fill="#63b8ff" stroke="#63b8ff" points="571.39,-198.27 565.84,-207.3 575.81,-203.7 571.39,-198.27"/>
</a>
</g>
</g>
<!-- Node12 -->
<g id="Node000012" class="node">
<title>Node12</title>
<g id="a_Node000012"><a xlink:href="FlatteningPass_8cpp.html" target="_top" xlink:title="This file implements the &#45;llzk&#45;flatten pass.">
<polygon fill="white" stroke="#666666" points="885.75,-172.5 718.25,-172.5 718.25,-139 885.75,-139 885.75,-172.5"/>
<text text-anchor="start" x="726.25" y="-159" font-family="Helvetica,sans-Serif" font-size="10.00">lib/Dialect/Polymorphic</text>
<text text-anchor="middle" x="802" y="-146.25" font-family="Helvetica,sans-Serif" font-size="10.00">/Transforms/FlatteningPass.cpp</text>
</a>
</g>
</g>
<!-- Node2&#45;&gt;Node12 -->
<g id="edge13_Node000002_Node000012" class="edge">
<title>Node2&#45;&gt;Node12</title>
<g id="a_edge13_Node000002_Node000012"><a xlink:title=" ">
<path fill="none" stroke="#63b8ff" d="M610.78,-206.97C650.72,-196.48 701.37,-183.18 740.51,-172.9"/>
<polygon fill="#63b8ff" stroke="#63b8ff" points="610.06,-203.54 601.28,-209.47 611.84,-210.31 610.06,-203.54"/>
</a>
</g>
</g>
<!-- Node13 -->
<g id="Node000013" class="node">
<title>Node13</title>
<g id="a_Node000013"><a xlink:href="SharedImpl_8cpp.html" target="_top" xlink:title=" ">
<polygon fill="white" stroke="#666666" points="1055.88,-172.5 904.12,-172.5 904.12,-139 1055.88,-139 1055.88,-172.5"/>
<text text-anchor="start" x="912.12" y="-159" font-family="Helvetica,sans-Serif" font-size="10.00">lib/Dialect/Polymorphic</text>
<text text-anchor="middle" x="980" y="-146.25" font-family="Helvetica,sans-Serif" font-size="10.00">/Transforms/SharedImpl.cpp</text>
</a>
</g>
</g>
<!-- Node2&#45;&gt;Node13 -->
<g id="edge14_Node000002_Node000013" class="edge">
<title>Node2&#45;&gt;Node13</title>
<g id="a_edge14_Node000002_Node000013"><a xlink:title=" ">
<path fill="none" stroke="#63b8ff" d="M611.31,-215.18C681.78,-205.37 796.42,-188.91 895,-172.5 897.96,-172.01 900.98,-171.49 904.02,-170.97"/>
<polygon fill="#63b8ff" stroke="#63b8ff" points="610.88,-211.7 601.46,-216.55 611.85,-218.64 610.88,-211.7"/>
</a>
</g>
</g>
<!-- Node14 -->
<g id="Node000014" class="node">
<title>Node14</title>
<g id="a_Node000014"><a xlink:href="LLZKInliningExtensions_8cpp.html" target="_top" xlink:title=" ">
<polygon fill="white" stroke="#666666" points="1222,-172.5 1074,-172.5 1074,-139 1222,-139 1222,-172.5"/>
<text text-anchor="start" x="1082" y="-159" font-family="Helvetica,sans-Serif" font-size="10.00">lib/Transforms/LLZKInlining</text>
<text text-anchor="middle" x="1148" y="-146.25" font-family="Helvetica,sans-Serif" font-size="10.00">Extensions.cpp</text>
</a>
</g>
</g>
<!-- Node2&#45;&gt;Node14 -->
<g id="edge15_Node000002_Node000014" class="edge">
<title>Node2&#45;&gt;Node14</title>
<g id="a_edge15_Node000002_Node000014"><a xlink:title=" ">
<path fill="none" stroke="#63b8ff" d="M611.16,-219.55C710.17,-212.09 902.62,-195.94 1065,-172.5 1067.9,-172.08 1070.86,-171.63 1073.84,-171.16"/>
<polygon fill="#63b8ff" stroke="#63b8ff" points="611.07,-216.05 601.35,-220.28 611.59,-223.03 611.07,-216.05"/>
</a>
</g>
</g>
<!-- Node4 -->
<g id="Node000004" class="node">
<title>Node4</title>
<g id="a_Node000004"><a xlink:href="IntervalAnalysis_8h.html" target="_top" xlink:title=" ">
<polygon fill="white" stroke="#666666" points="269.88,-103 154.12,-103 154.12,-69.5 269.88,-69.5 269.88,-103"/>
<text text-anchor="start" x="162.12" y="-89.5" font-family="Helvetica,sans-Serif" font-size="10.00">include/llzk/Analysis</text>
<text text-anchor="middle" x="212" y="-76.75" font-family="Helvetica,sans-Serif" font-size="10.00">/IntervalAnalysis.h</text>
</a>
</g>
</g>
<!-- Node3&#45;&gt;Node4 -->
<g id="edge3_Node000003_Node000004" class="edge">
<title>Node3&#45;&gt;Node4</title>
<g id="a_edge3_Node000003_Node000004"><a xlink:title=" ">
<path fill="none" stroke="#63b8ff" d="M252.31,-130.44C243.83,-121.35 234.42,-111.27 226.82,-103.13"/>
<polygon fill="#63b8ff" stroke="#63b8ff" points="249.66,-132.72 259.04,-137.65 254.77,-127.95 249.66,-132.72"/>
</a>
</g>
</g>
<!-- Node3&#45;&gt;Node7 -->
<g id="edge6_Node000003_Node000007" class="edge">
<title>Node3&#45;&gt;Node7</title>
<g id="a_edge6_Node000003_Node000007"><a xlink:title=" ">
<path fill="none" stroke="#63b8ff" d="M214.91,-135.16C176.67,-122.69 128.77,-107.07 98.27,-97.12"/>
<polygon fill="#63b8ff" stroke="#63b8ff" points="213.39,-138.34 223.98,-138.11 215.56,-131.69 213.39,-138.34"/>
</a>
</g>
</g>
<!-- Node3&#45;&gt;Node8 -->
<g id="edge7_Node000003_Node000008" class="edge">
<title>Node3&#45;&gt;Node8</title>
<g id="a_edge7_Node000003_Node000008"><a xlink:title=" ">
<path fill="none" stroke="#63b8ff" d="M329.91,-134.72C357.29,-124.72 389.97,-112.8 415.73,-103.4"/>
<polygon fill="#63b8ff" stroke="#63b8ff" points="328.93,-131.35 320.73,-138.06 331.33,-137.92 328.93,-131.35"/>
</a>
</g>
</g>
<!-- Node9 -->
<g id="Node000009" class="node">
<title>Node9</title>
<g id="a_Node000009"><a xlink:href="Cast_2IR_2Ops_8cpp.html" target="_top" xlink:title=" ">
<polygon fill="white" stroke="#666666" points="390.5,-103 287.5,-103 287.5,-69.5 390.5,-69.5 390.5,-103"/>
<text text-anchor="start" x="295.5" y="-89.5" font-family="Helvetica,sans-Serif" font-size="10.00">lib/Dialect/Cast/IR</text>
<text text-anchor="middle" x="339" y="-76.75" font-family="Helvetica,sans-Serif" font-size="10.00">/Ops.cpp</text>
</a>
</g>
</g>
<!-- Node3&#45;&gt;Node9 -->
<g id="edge8_Node000003_Node000009" class="edge">
<title>Node3&#45;&gt;Node9</title>
<g id="a_edge8_Node000003_Node000009"><a xlink:title=" ">
<path fill="none" stroke="#63b8ff" d="M298.05,-130.44C306.67,-121.35 316.23,-111.27 323.94,-103.13"/>
<polygon fill="#63b8ff" stroke="#63b8ff" points="295.55,-127.99 291.21,-137.66 300.63,-132.81 295.55,-127.99"/>
</a>
</g>
</g>
<!-- Node5 -->
<g id="Node000005" class="node">
<title>Node5</title>
<g id="a_Node000005"><a xlink:href="IntervalAnalysis_8cpp.html" target="_top" xlink:title=" ">
<polygon fill="white" stroke="#666666" points="208.12,-27.12 33.88,-27.12 33.88,-6.38 208.12,-6.38 208.12,-27.12"/>
<text text-anchor="middle" x="121" y="-13.62" font-family="Helvetica,sans-Serif" font-size="10.00">lib/Analysis/IntervalAnalysis.cpp</text>
</a>
</g>
</g>
<!-- Node4&#45;&gt;Node5 -->
<g id="edge4_Node000004_Node000005" class="edge">
<title>Node4&#45;&gt;Node5</title>
<g id="a_edge4_Node000004_Node000005"><a xlink:title=" ">
<path fill="none" stroke="#63b8ff" d="M181.39,-62.54C165.35,-50.65 146.55,-36.7 134.24,-27.57"/>
<polygon fill="#63b8ff" stroke="#63b8ff" points="179.1,-65.21 189.22,-68.35 183.27,-59.58 179.1,-65.21"/>
</a>
</g>
</g>
<!-- Node6 -->
<g id="Node000006" class="node">
<title>Node6</title>
<g id="a_Node000006"><a xlink:href="IntervalAnalysisPass_8cpp.html" target="_top" xlink:title="This file implements the &#45;llzk&#45;print&#45;interval&#45;analysis pass.">
<polygon fill="white" stroke="#666666" points="380,-33.5 226,-33.5 226,0 380,0 380,-33.5"/>
<text text-anchor="start" x="234" y="-20" font-family="Helvetica,sans-Serif" font-size="10.00">lib/Analysis/IntervalAnalysis</text>
<text text-anchor="middle" x="303" y="-7.25" font-family="Helvetica,sans-Serif" font-size="10.00">Pass.cpp</text>
</a>
</g>
</g>
<!-- Node4&#45;&gt;Node6 -->
<g id="edge5_Node000004_Node000006" class="edge">
<title>Node4&#45;&gt;Node6</title>
<g id="a_edge5_Node000004_Node000006"><a xlink:title=" ">
<path fill="none" stroke="#63b8ff" d="M242.45,-62.66C255.17,-53.23 269.66,-42.48 281.27,-33.87"/>
<polygon fill="#63b8ff" stroke="#63b8ff" points="240.73,-59.58 234.78,-68.35 244.9,-65.21 240.73,-59.58"/>
</a>
</g>
</g>
</g>
</svg>
