<?xml version="1.0" encoding="UTF-8" standalone="no"?>
<!DOCTYPE svg PUBLIC "-//W3C//DTD SVG 1.1//EN"
 "http://www.w3.org/Graphics/SVG/1.1/DTD/svg11.dtd">
<!-- Generated by graphviz version 12.2.1 (0)
 -->
<!-- Title: include/llzk/Dialect/Cast/IR/Ops.h Pages: 1 -->
<svg width="1139pt" height="181pt"
 viewBox="0.00 0.00 1139.38 180.50" xmlns="http://www.w3.org/2000/svg" xmlns:xlink="http://www.w3.org/1999/xlink">
<g id="graph0" class="graph" transform="scale(1 1) rotate(0) translate(4 176.5)">
<title>include/llzk/Dialect/Cast/IR/Ops.h</title>
<!-- Node1 -->
<g id="Node000001" class="node">
<title>Node1</title>
<g id="a_Node000001"><a xlink:title=" ">
<polygon fill="#999999" stroke="#666666" points="635.62,-172.5 526.62,-172.5 526.62,-139 635.62,-139 635.62,-172.5"/>
<text text-anchor="start" x="534.62" y="-159" font-family="Helvetica,sans-Serif" font-size="10.00">include/llzk/Dialect</text>
<text text-anchor="middle" x="581.12" y="-146.25" font-family="Helvetica,sans-Serif" font-size="10.00">/Cast/IR/Ops.h</text>
</a>
</g>
</g>
<!-- Node2 -->
<g id="Node000002" class="node">
<title>Node2</title>
<g id="a_Node000002"><a xlink:href="IntervalAnalysis_8h.html" target="_top" xlink:title=" ">
<polygon fill="white" stroke="#666666" points="236,-103 120.25,-103 120.25,-69.5 236,-69.5 236,-103"/>
<text text-anchor="start" x="128.25" y="-89.5" font-family="Helvetica,sans-Serif" font-size="10.00">include/llzk/Analysis</text>
<text text-anchor="middle" x="178.12" y="-76.75" font-family="Helvetica,sans-Serif" font-size="10.00">/IntervalAnalysis.h</text>
</a>
</g>
</g>
<!-- Node1&#45;&gt;Node2 -->
<g id="edge1_Node000001_Node000002" class="edge">
<title>Node1&#45;&gt;Node2</title>
<g id="a_edge1_Node000001_Node000002"><a xlink:title=" ">
<path fill="none" stroke="#63b8ff" d="M514.82,-146.09C446.85,-136.86 338.23,-121.09 245.12,-103 242.19,-102.43 239.19,-101.82 236.17,-101.19"/>
<polygon fill="#63b8ff" stroke="#63b8ff" points="514.31,-149.56 524.69,-147.43 515.25,-142.62 514.31,-149.56"/>
</a>
</g>
</g>
<!-- Node5 -->
<g id="Node000005" class="node">
<title>Node5</title>
<g id="a_Node000005"><a xlink:href="Cast_8cpp.html" target="_top" xlink:title=" ">
<polygon fill="white" stroke="#666666" points="390.12,-96.62 254.12,-96.62 254.12,-75.88 390.12,-75.88 390.12,-96.62"/>
<text text-anchor="middle" x="322.12" y="-83.12" font-family="Helvetica,sans-Serif" font-size="10.00">lib/CAPI/Dialect/Cast.cpp</text>
</a>
</g>
</g>
<!-- Node1&#45;&gt;Node5 -->
<g id="edge4_Node000001_Node000005" class="edge">
<title>Node1&#45;&gt;Node5</title>
<g id="a_edge4_Node000001_Node000005"><a xlink:title=" ">
<path fill="none" stroke="#63b8ff" d="M515.33,-137.6C466.09,-124.77 400.5,-107.68 359.81,-97.07"/>
<polygon fill="#63b8ff" stroke="#63b8ff" points="514.17,-140.92 524.73,-140.05 515.94,-134.14 514.17,-140.92"/>
</a>
</g>
</g>
<!-- Node6 -->
<g id="Node000006" class="node">
<title>Node6</title>
<g id="a_Node000006"><a xlink:href="Cast_2IR_2Dialect_8cpp.html" target="_top" xlink:title=" ">
<polygon fill="white" stroke="#666666" points="511.62,-103 408.62,-103 408.62,-69.5 511.62,-69.5 511.62,-103"/>
<text text-anchor="start" x="416.62" y="-89.5" font-family="Helvetica,sans-Serif" font-size="10.00">lib/Dialect/Cast/IR</text>
<text text-anchor="middle" x="460.12" y="-76.75" font-family="Helvetica,sans-Serif" font-size="10.00">/Dialect.cpp</text>
</a>
</g>
</g>
<!-- Node1&#45;&gt;Node6 -->
<g id="edge5_Node000001_Node000006" class="edge">
<title>Node1&#45;&gt;Node6</title>
<g id="a_edge5_Node000001_Node000006"><a xlink:title=" ">
<path fill="none" stroke="#63b8ff" d="M542.29,-133.09C524.94,-123.41 504.84,-112.2 488.87,-103.29"/>
<polygon fill="#63b8ff" stroke="#63b8ff" points="540.38,-136.03 550.82,-137.84 543.79,-129.92 540.38,-136.03"/>
</a>
</g>
</g>
<!-- Node7 -->
<g id="Node000007" class="node">
<title>Node7</title>
<g id="a_Node000007"><a xlink:href="Cast_2IR_2Ops_8cpp.html" target="_top" xlink:title=" ">
<polygon fill="white" stroke="#666666" points="632.62,-103 529.62,-103 529.62,-69.5 632.62,-69.5 632.62,-103"/>
<text text-anchor="start" x="537.62" y="-89.5" font-family="Helvetica,sans-Serif" font-size="10.00">lib/Dialect/Cast/IR</text>
<text text-anchor="middle" x="581.12" y="-76.75" font-family="Helvetica,sans-Serif" font-size="10.00">/Ops.cpp</text>
</a>
</g>
</g>
<!-- Node1&#45;&gt;Node7 -->
<g id="edge6_Node000001_Node000007" class="edge">
<title>Node1&#45;&gt;Node7</title>
<g id="a_edge6_Node000001_Node000007"><a xlink:title=" ">
<path fill="none" stroke="#63b8ff" d="M581.12,-127.31C581.12,-119.09 581.12,-110.34 581.12,-103.13"/>
<polygon fill="#63b8ff" stroke="#63b8ff" points="577.63,-127.24 581.13,-137.24 584.63,-127.24 577.63,-127.24"/>
</a>
</g>
</g>
<!-- Node8 -->
<g id="Node000008" class="node">
<title>Node8</title>
<g id="a_Node000008"><a xlink:href="LLZKWhileToForPass_8cpp.html" target="_top" xlink:title="This file identifies scf.while loops that can be converted to scf.for loops and performs the conversi...">
<polygon fill="white" stroke="#666666" points="789.62,-103 650.62,-103 650.62,-69.5 789.62,-69.5 789.62,-103"/>
<text text-anchor="start" x="658.62" y="-89.5" font-family="Helvetica,sans-Serif" font-size="10.00">lib/Transforms/LLZKWhile</text>
<text text-anchor="middle" x="720.12" y="-76.75" font-family="Helvetica,sans-Serif" font-size="10.00">ToForPass.cpp</text>
</a>
</g>
</g>
<!-- Node1&#45;&gt;Node8 -->
<g id="edge7_Node000001_Node000008" class="edge">
<title>Node1&#45;&gt;Node8</title>
<g id="a_edge7_Node000001_Node000008"><a xlink:title=" ">
<path fill="none" stroke="#63b8ff" d="M624.62,-133.63C644.8,-123.83 668.41,-112.36 687.1,-103.29"/>
<polygon fill="#63b8ff" stroke="#63b8ff" points="623.25,-130.4 615.78,-137.92 626.3,-136.7 623.25,-130.4"/>
</a>
</g>
</g>
<!-- Node9 -->
<g id="Node000009" class="node">
<title>Node9</title>
<g id="a_Node000009"><a xlink:href="Interpreter_8cpp.html" target="_top" xlink:title=" ">
<polygon fill="white" stroke="#666666" points="978.75,-96.62 807.5,-96.62 807.5,-75.88 978.75,-75.88 978.75,-96.62"/>
<text text-anchor="middle" x="893.12" y="-83.12" font-family="Helvetica,sans-Serif" font-size="10.00">tools/llzk&#45;witgen/Interpreter.cpp</text>
</a>
</g>
</g>
<!-- Node1&#45;&gt;Node9 -->
<g id="edge8_Node000001_Node000009" class="edge">
<title>Node1&#45;&gt;Node9</title>
<g id="a_edge8_Node000001_Node000009"><a xlink:title=" ">
<path fill="none" stroke="#63b8ff" d="M646.75,-140.55C707,-127.52 794.72,-108.54 847.62,-97.1"/>
<polygon fill="#63b8ff" stroke="#63b8ff" points="646.34,-137.06 637.31,-142.6 647.82,-143.9 646.34,-137.06"/>
</a>
</g>
</g>
<!-- Node10 -->
<g id="Node000010" class="node">
<title>Node10</title>
<g id="a_Node000010"><a xlink:href="WitgenLowering_8cpp.html" target="_top" xlink:title=" ">
<polygon fill="white" stroke="#666666" points="1131.38,-103 996.88,-103 996.88,-69.5 1131.38,-69.5 1131.38,-103"/>
<text text-anchor="start" x="1004.88" y="-89.5" font-family="Helvetica,sans-Serif" font-size="10.00">tools/llzk&#45;witgen/Witgen</text>
<text text-anchor="middle" x="1064.12" y="-76.75" font-family="Helvetica,sans-Serif" font-size="10.00">Lowering.cpp</text>
</a>
</g>
</g>
<!-- Node1&#45;&gt;Node10 -->
<g id="edge9_Node000001_Node000010" class="edge">
<title>Node1&#45;&gt;Node10</title>
<g id="a_edge9_Node000001_Node000010"><a xlink:title=" ">
<path fill="none" stroke="#63b8ff" d="M646.94,-147.98C727.61,-139.31 868.35,-122.99 988.12,-103 990.92,-102.53 993.76,-102.04 996.63,-101.52"/>
<polygon fill="#63b8ff" stroke="#63b8ff" points="647.04,-144.45 637.47,-148.99 647.78,-151.41 647.04,-144.45"/>
</a>
</g>
</g>
<!-- Node3 -->
<g id="Node000003" class="node">
<title>Node3</title>
<g id="a_Node000003"><a xlink:href="IntervalAnalysis_8cpp.html" target="_top" xlink:title=" ">
<polygon fill="white" stroke="#666666" points="174.25,-27.12 0,-27.12 0,-6.38 174.25,-6.38 174.25,-27.12"/>
<text text-anchor="middle" x="87.12" y="-13.62" font-family="Helvetica,sans-Serif" font-size="10.00">lib/Analysis/IntervalAnalysis.cpp</text>
</a>
</g>
</g>
<!-- Node2&#45;&gt;Node3 -->
<g id="edge2_Node000002_Node000003" class="edge">
<title>Node2&#45;&gt;Node3</title>
<g id="a_edge2_Node000002_Node000003"><a xlink:title=" ">
<path fill="none" stroke="#63b8ff" d="M147.51,-62.54C131.48,-50.65 112.68,-36.7 100.37,-27.57"/>
<polygon fill="#63b8ff" stroke="#63b8ff" points="145.23,-65.21 155.34,-68.35 149.4,-59.58 145.23,-65.21"/>
</a>
</g>
</g>
<!-- Node4 -->
<g id="Node000004" class="node">
<title>Node4</title>
<g id="a_Node000004"><a xlink:href="IntervalAnalysisPass_8cpp.html" target="_top" xlink:title="This file implements the &#45;llzk&#45;print&#45;interval&#45;analysis pass.">
<polygon fill="white" stroke="#666666" points="346.12,-33.5 192.12,-33.5 192.12,0 346.12,0 346.12,-33.5"/>
<text text-anchor="start" x="200.12" y="-20" font-family="Helvetica,sans-Serif" font-size="10.00">lib/Analysis/IntervalAnalysis</text>
<text text-anchor="middle" x="269.12" y="-7.25" font-family="Helvetica,sans-Serif" font-size="10.00">Pass.cpp</text>
</a>
</g>
</g>
<!-- Node2&#45;&gt;Node4 -->
<g id="edge3_Node000002_Node000004" class="edge">
<title>Node2&#45;&gt;Node4</title>
<g id="a_edge3_Node000002_Node000004"><a xlink:title=" ">
<path fill="none" stroke="#63b8ff" d="M208.57,-62.66C221.29,-53.23 235.78,-42.48 247.4,-33.87"/>
<polygon fill="#63b8ff" stroke="#63b8ff" points="206.85,-59.58 200.91,-68.35 211.02,-65.21 206.85,-59.58"/>
</a>
</g>
</g>
</g>
</svg>
