<?xml version="1.0" encoding="UTF-8" standalone="no"?>
<!DOCTYPE svg PUBLIC "-//W3C//DTD SVG 1.1//EN"
 "http://www.w3.org/Graphics/SVG/1.1/DTD/svg11.dtd">
<!-- Generated by graphviz version 12.2.1 (0)
 -->
<!-- Title: include/llzk/Dialect/Cast/IR/Dialect.h Pages: 1 -->
<svg width="1060pt" height="250pt"
 viewBox="0.00 0.00 1060.00 250.00" xmlns="http://www.w3.org/2000/svg" xmlns:xlink="http://www.w3.org/1999/xlink">
<g id="graph0" class="graph" transform="scale(1 1) rotate(0) translate(4 246)">
<title>include/llzk/Dialect/Cast/IR/Dialect.h</title>
<!-- Node1 -->
<g id="Node000001" class="node">
<title>Node1</title>
<g id="a_Node000001"><a xlink:title=" ">
<polygon fill="#999999" stroke="#666666" points="512.5,-242 403.5,-242 403.5,-208.5 512.5,-208.5 512.5,-242"/>
<text text-anchor="start" x="411.5" y="-228.5" font-family="Helvetica,sans-Serif" font-size="10.00">include/llzk/Dialect</text>
<text text-anchor="middle" x="458" y="-215.75" font-family="Helvetica,sans-Serif" font-size="10.00">/Cast/IR/Dialect.h</text>
</a>
</g>
</g>
<!-- Node2 -->
<g id="Node000002" class="node">
<title>Node2</title>
<g id="a_Node000002"><a xlink:href="Cast_2IR_2Ops_8h.html" target="_top" xlink:title=" ">
<polygon fill="white" stroke="#666666" points="329.5,-172.5 220.5,-172.5 220.5,-139 329.5,-139 329.5,-172.5"/>
<text text-anchor="start" x="228.5" y="-159" font-family="Helvetica,sans-Serif" font-size="10.00">include/llzk/Dialect</text>
<text text-anchor="middle" x="275" y="-146.25" font-family="Helvetica,sans-Serif" font-size="10.00">/Cast/IR/Ops.h</text>
</a>
</g>
</g>
<!-- Node1&#45;&gt;Node2 -->
<g id="edge1_Node000001_Node000002" class="edge">
<title>Node1&#45;&gt;Node2</title>
<g id="a_edge1_Node000001_Node000002"><a xlink:title=" ">
<path fill="none" stroke="#63b8ff" d="M403.68,-204.22C376.6,-194.22 344.27,-182.3 318.79,-172.9"/>
<polygon fill="#63b8ff" stroke="#63b8ff" points="402.15,-207.38 412.75,-207.56 404.58,-200.81 402.15,-207.38"/>
</a>
</g>
</g>
<!-- Node6 -->
<g id="Node000006" class="node">
<title>Node6</title>
<g id="a_Node000006"><a xlink:href="Cast_8cpp.html" target="_top" xlink:title=" ">
<polygon fill="white" stroke="#666666" points="136,-96.62 0,-96.62 0,-75.88 136,-75.88 136,-96.62"/>
<text text-anchor="middle" x="68" y="-83.12" font-family="Helvetica,sans-Serif" font-size="10.00">lib/CAPI/Dialect/Cast.cpp</text>
</a>
</g>
</g>
<!-- Node1&#45;&gt;Node6 -->
<g id="edge8_Node000001_Node000006" class="edge">
<title>Node1&#45;&gt;Node6</title>
<g id="a_edge8_Node000001_Node000006"><a xlink:title=" ">
<path fill="none" stroke="#63b8ff" d="M392.17,-216.37C341.64,-208.91 270.8,-195.37 212,-172.5 160.28,-152.39 105.58,-114.83 81.13,-97.06"/>
<polygon fill="#63b8ff" stroke="#63b8ff" points="391.38,-219.79 401.77,-217.74 392.37,-212.86 391.38,-219.79"/>
</a>
</g>
</g>
<!-- Node7 -->
<g id="Node000007" class="node">
<title>Node7</title>
<g id="a_Node000007"><a xlink:href="Cast_2IR_2Dialect_8cpp.html" target="_top" xlink:title=" ">
<polygon fill="white" stroke="#666666" points="511.5,-103 408.5,-103 408.5,-69.5 511.5,-69.5 511.5,-103"/>
<text text-anchor="start" x="416.5" y="-89.5" font-family="Helvetica,sans-Serif" font-size="10.00">lib/Dialect/Cast/IR</text>
<text text-anchor="middle" x="460" y="-76.75" font-family="Helvetica,sans-Serif" font-size="10.00">/Dialect.cpp</text>
</a>
</g>
</g>
<!-- Node1&#45;&gt;Node7 -->
<g id="edge9_Node000001_Node000007" class="edge">
<title>Node1&#45;&gt;Node7</title>
<g id="a_edge9_Node000001_Node000007"><a xlink:title=" ">
<path fill="none" stroke="#63b8ff" d="M407.07,-202.54C395.09,-194.88 383.83,-184.97 377,-172.5 369.85,-159.44 369.78,-152.02 377,-139 385.82,-123.11 401.76,-111.47 417.34,-103.29"/>
<polygon fill="#63b8ff" stroke="#63b8ff" points="405.06,-205.42 415.46,-207.44 408.6,-199.37 405.06,-205.42"/>
</a>
</g>
</g>
<!-- Node9 -->
<g id="Node000009" class="node">
<title>Node9</title>
<g id="a_Node000009"><a xlink:href="Dialect_2InitDialects_8cpp.html" target="_top" xlink:title=" ">
<polygon fill="white" stroke="#666666" points="530.12,-166.12 385.88,-166.12 385.88,-145.38 530.12,-145.38 530.12,-166.12"/>
<text text-anchor="middle" x="458" y="-152.62" font-family="Helvetica,sans-Serif" font-size="10.00">lib/Dialect/InitDialects.cpp</text>
</a>
</g>
</g>
<!-- Node1&#45;&gt;Node9 -->
<g id="edge10_Node000001_Node000009" class="edge">
<title>Node1&#45;&gt;Node9</title>
<g id="a_edge10_Node000001_Node000009"><a xlink:title=" ">
<path fill="none" stroke="#63b8ff" d="M458,-196.78C458,-186.08 458,-174.51 458,-166.57"/>
<polygon fill="#63b8ff" stroke="#63b8ff" points="454.5,-196.74 458,-206.74 461.5,-196.74 454.5,-196.74"/>
</a>
</g>
</g>
<!-- Node10 -->
<g id="Node000010" class="node">
<title>Node10</title>
<g id="a_Node000010"><a xlink:href="FlatteningPass_8cpp.html" target="_top" xlink:title="This file implements the &#45;llzk&#45;flatten pass.">
<polygon fill="white" stroke="#666666" points="715.75,-172.5 548.25,-172.5 548.25,-139 715.75,-139 715.75,-172.5"/>
<text text-anchor="start" x="556.25" y="-159" font-family="Helvetica,sans-Serif" font-size="10.00">lib/Dialect/Polymorphic</text>
<text text-anchor="middle" x="632" y="-146.25" font-family="Helvetica,sans-Serif" font-size="10.00">/Transforms/FlatteningPass.cpp</text>
</a>
</g>
</g>
<!-- Node1&#45;&gt;Node10 -->
<g id="edge11_Node000001_Node000010" class="edge">
<title>Node1&#45;&gt;Node10</title>
<g id="a_edge11_Node000001_Node000010"><a xlink:title=" ">
<path fill="none" stroke="#63b8ff" d="M510.33,-203.95C535.94,-194.01 566.35,-182.22 590.36,-172.9"/>
<polygon fill="#63b8ff" stroke="#63b8ff" points="509.15,-200.65 501.09,-207.53 511.68,-207.18 509.15,-200.65"/>
</a>
</g>
</g>
<!-- Node11 -->
<g id="Node000011" class="node">
<title>Node11</title>
<g id="a_Node000011"><a xlink:href="SharedImpl_8cpp.html" target="_top" xlink:title=" ">
<polygon fill="white" stroke="#666666" points="885.88,-172.5 734.12,-172.5 734.12,-139 885.88,-139 885.88,-172.5"/>
<text text-anchor="start" x="742.12" y="-159" font-family="Helvetica,sans-Serif" font-size="10.00">lib/Dialect/Polymorphic</text>
<text text-anchor="middle" x="810" y="-146.25" font-family="Helvetica,sans-Serif" font-size="10.00">/Transforms/SharedImpl.cpp</text>
</a>
</g>
</g>
<!-- Node1&#45;&gt;Node11 -->
<g id="edge12_Node000001_Node000011" class="edge">
<title>Node1&#45;&gt;Node11</title>
<g id="a_edge12_Node000001_Node000011"><a xlink:title=" ">
<path fill="none" stroke="#63b8ff" d="M524.16,-211.56C583.76,-200.13 671.34,-183.34 733.84,-171.35"/>
<polygon fill="#63b8ff" stroke="#63b8ff" points="523.65,-208.1 514.49,-213.42 524.97,-214.97 523.65,-208.1"/>
</a>
</g>
</g>
<!-- Node12 -->
<g id="Node000012" class="node">
<title>Node12</title>
<g id="a_Node000012"><a xlink:href="LLZKInliningExtensions_8cpp.html" target="_top" xlink:title=" ">
<polygon fill="white" stroke="#666666" points="1052,-172.5 904,-172.5 904,-139 1052,-139 1052,-172.5"/>
<text text-anchor="start" x="912" y="-159" font-family="Helvetica,sans-Serif" font-size="10.00">lib/Transforms/LLZKInlining</text>
<text text-anchor="middle" x="978" y="-146.25" font-family="Helvetica,sans-Serif" font-size="10.00">Extensions.cpp</text>
</a>
</g>
</g>
<!-- Node1&#45;&gt;Node12 -->
<g id="edge13_Node000001_Node000012" class="edge">
<title>Node1&#45;&gt;Node12</title>
<g id="a_edge13_Node000001_Node000012"><a xlink:title=" ">
<path fill="none" stroke="#63b8ff" d="M524.05,-217.88C609.79,-209.27 763.97,-192.66 895,-172.5 897.9,-172.05 900.85,-171.58 903.83,-171.09"/>
<polygon fill="#63b8ff" stroke="#63b8ff" points="523.78,-214.39 514.17,-218.86 524.47,-221.35 523.78,-214.39"/>
</a>
</g>
</g>
<!-- Node3 -->
<g id="Node000003" class="node">
<title>Node3</title>
<g id="a_Node000003"><a xlink:href="IntervalAnalysis_8h.html" target="_top" xlink:title=" ">
<polygon fill="white" stroke="#666666" points="269.88,-103 154.12,-103 154.12,-69.5 269.88,-69.5 269.88,-103"/>
<text text-anchor="start" x="162.12" y="-89.5" font-family="Helvetica,sans-Serif" font-size="10.00">include/llzk/Analysis</text>
<text text-anchor="middle" x="212" y="-76.75" font-family="Helvetica,sans-Serif" font-size="10.00">/IntervalAnalysis.h</text>
</a>
</g>
</g>
<!-- Node2&#45;&gt;Node3 -->
<g id="edge2_Node000002_Node000003" class="edge">
<title>Node2&#45;&gt;Node3</title>
<g id="a_edge2_Node000002_Node000003"><a xlink:title=" ">
<path fill="none" stroke="#63b8ff" d="M252.31,-130.44C243.83,-121.35 234.42,-111.27 226.82,-103.13"/>
<polygon fill="#63b8ff" stroke="#63b8ff" points="249.66,-132.72 259.04,-137.65 254.77,-127.95 249.66,-132.72"/>
</a>
</g>
</g>
<!-- Node2&#45;&gt;Node6 -->
<g id="edge5_Node000002_Node000006" class="edge">
<title>Node2&#45;&gt;Node6</title>
<g id="a_edge5_Node000002_Node000006"><a xlink:title=" ">
<path fill="none" stroke="#63b8ff" d="M214.91,-135.16C176.67,-122.69 128.77,-107.07 98.27,-97.12"/>
<polygon fill="#63b8ff" stroke="#63b8ff" points="213.39,-138.34 223.98,-138.11 215.56,-131.69 213.39,-138.34"/>
</a>
</g>
</g>
<!-- Node2&#45;&gt;Node7 -->
<g id="edge6_Node000002_Node000007" class="edge">
<title>Node2&#45;&gt;Node7</title>
<g id="a_edge6_Node000002_Node000007"><a xlink:title=" ">
<path fill="none" stroke="#63b8ff" d="M329.91,-134.72C357.29,-124.72 389.97,-112.8 415.73,-103.4"/>
<polygon fill="#63b8ff" stroke="#63b8ff" points="328.93,-131.35 320.73,-138.06 331.33,-137.92 328.93,-131.35"/>
</a>
</g>
</g>
<!-- Node8 -->
<g id="Node000008" class="node">
<title>Node8</title>
<g id="a_Node000008"><a xlink:href="Cast_2IR_2Ops_8cpp.html" target="_top" xlink:title=" ">
<polygon fill="white" stroke="#666666" points="390.5,-103 287.5,-103 287.5,-69.5 390.5,-69.5 390.5,-103"/>
<text text-anchor="start" x="295.5" y="-89.5" font-family="Helvetica,sans-Serif" font-size="10.00">lib/Dialect/Cast/IR</text>
<text text-anchor="middle" x="339" y="-76.75" font-family="Helvetica,sans-Serif" font-size="10.00">/Ops.cpp</text>
</a>
</g>
</g>
<!-- Node2&#45;&gt;Node8 -->
<g id="edge7_Node000002_Node000008" class="edge">
<title>Node2&#45;&gt;Node8</title>
<g id="a_edge7_Node000002_Node000008"><a xlink:title=" ">
<path fill="none" stroke="#63b8ff" d="M298.05,-130.44C306.67,-121.35 316.23,-111.27 323.94,-103.13"/>
<polygon fill="#63b8ff" stroke="#63b8ff" points="295.55,-127.99 291.21,-137.66 300.63,-132.81 295.55,-127.99"/>
</a>
</g>
</g>
<!-- Node4 -->
<g id="Node000004" class="node">
<title>Node4</title>
<g id="a_Node000004"><a xlink:href="IntervalAnalysis_8cpp.html" target="_top" xlink:title=" ">
<polygon fill="white" stroke="#666666" points="208.12,-27.12 33.88,-27.12 33.88,-6.38 208.12,-6.38 208.12,-27.12"/>
<text text-anchor="middle" x="121" y="-13.62" font-family="Helvetica,sans-Serif" font-size="10.00">lib/Analysis/IntervalAnalysis.cpp</text>
</a>
</g>
</g>
<!-- Node3&#45;&gt;Node4 -->
<g id="edge3_Node000003_Node000004" class="edge">
<title>Node3&#45;&gt;Node4</title>
<g id="a_edge3_Node000003_Node000004"><a xlink:title=" ">
<path fill="none" stroke="#63b8ff" d="M181.39,-62.54C165.35,-50.65 146.55,-36.7 134.24,-27.57"/>
<polygon fill="#63b8ff" stroke="#63b8ff" points="179.1,-65.21 189.22,-68.35 183.27,-59.58 179.1,-65.21"/>
</a>
</g>
</g>
<!-- Node5 -->
<g id="Node000005" class="node">
<title>Node5</title>
<g id="a_Node000005"><a xlink:href="IntervalAnalysisPass_8cpp.html" target="_top" xlink:title="This file implements the &#45;llzk&#45;print&#45;interval&#45;analysis pass.">
<polygon fill="white" stroke="#666666" points="380,-33.5 226,-33.5 226,0 380,0 380,-33.5"/>
<text text-anchor="start" x="234" y="-20" font-family="Helvetica,sans-Serif" font-size="10.00">lib/Analysis/IntervalAnalysis</text>
<text text-anchor="middle" x="303" y="-7.25" font-family="Helvetica,sans-Serif" font-size="10.00">Pass.cpp</text>
</a>
</g>
</g>
<!-- Node3&#45;&gt;Node5 -->
<g id="edge4_Node000003_Node000005" class="edge">
<title>Node3&#45;&gt;Node5</title>
<g id="a_edge4_Node000003_Node000005"><a xlink:title=" ">
<path fill="none" stroke="#63b8ff" d="M242.45,-62.66C255.17,-53.23 269.66,-42.48 281.27,-33.87"/>
<polygon fill="#63b8ff" stroke="#63b8ff" points="240.73,-59.58 234.78,-68.35 244.9,-65.21 240.73,-59.58"/>
</a>
</g>
</g>
</g>
</svg>
