<?xml version="1.0" encoding="UTF-8" standalone="no"?>
<!DOCTYPE svg PUBLIC "-//W3C//DTD SVG 1.1//EN"
 "http://www.w3.org/Graphics/SVG/1.1/DTD/svg11.dtd">
<!-- Generated by graphviz version 12.2.1 (0)
 -->
<!-- Title: build/include/llzk/Dialect/Cast/IR/Enums.h.inc Pages: 1 -->
<svg width="1251pt" height="402pt"
 viewBox="0.00 0.00 1250.50 401.75" xmlns="http://www.w3.org/2000/svg" xmlns:xlink="http://www.w3.org/1999/xlink">
<g id="graph0" class="graph" transform="scale(1 1) rotate(0) translate(4 397.75)">
<title>build/include/llzk/Dialect/Cast/IR/Enums.h.inc</title>
<!-- Node1 -->
<g id="Node000001" class="node">
<title>Node1</title>
<g id="a_Node000001"><a xlink:title=" ">
<polygon fill="#999999" stroke="#666666" points="972.62,-393.75 819.38,-393.75 819.38,-360.25 972.62,-360.25 972.62,-393.75"/>
<text text-anchor="start" x="827.38" y="-380.25" font-family="Helvetica,sans-Serif" font-size="10.00">build/include/llzk</text>
<text text-anchor="middle" x="896" y="-367.5" font-family="Helvetica,sans-Serif" font-size="10.00">/Dialect/Cast/IR/Enums.h.inc</text>
</a>
</g>
</g>
<!-- Node2 -->
<g id="Node000002" class="node">
<title>Node2</title>
<g id="a_Node000002"><a xlink:href="Cast_2IR_2Enums_8h.html" target="_top" xlink:title=" ">
<polygon fill="white" stroke="#666666" points="950.5,-324.25 841.5,-324.25 841.5,-290.75 950.5,-290.75 950.5,-324.25"/>
<text text-anchor="start" x="849.5" y="-310.75" font-family="Helvetica,sans-Serif" font-size="10.00">include/llzk/Dialect</text>
<text text-anchor="middle" x="896" y="-298" font-family="Helvetica,sans-Serif" font-size="10.00">/Cast/IR/Enums.h</text>
</a>
</g>
</g>
<!-- Node1&#45;&gt;Node2 -->
<g id="edge1_Node000001_Node000002" class="edge">
<title>Node1&#45;&gt;Node2</title>
<g id="a_edge1_Node000001_Node000002"><a xlink:title=" ">
<path fill="none" stroke="#63b8ff" d="M896,-348.56C896,-340.34 896,-331.59 896,-324.38"/>
<polygon fill="#63b8ff" stroke="#63b8ff" points="892.5,-348.49 896,-358.49 899.5,-348.49 892.5,-348.49"/>
</a>
</g>
</g>
<!-- Node3 -->
<g id="Node000003" class="node">
<title>Node3</title>
<g id="a_Node000003"><a xlink:href="Cast_2IR_2Attrs_8h.html" target="_top" xlink:title=" ">
<polygon fill="white" stroke="#666666" points="416.5,-254.75 307.5,-254.75 307.5,-221.25 416.5,-221.25 416.5,-254.75"/>
<text text-anchor="start" x="315.5" y="-241.25" font-family="Helvetica,sans-Serif" font-size="10.00">include/llzk/Dialect</text>
<text text-anchor="middle" x="362" y="-228.5" font-family="Helvetica,sans-Serif" font-size="10.00">/Cast/IR/Attrs.h</text>
</a>
</g>
</g>
<!-- Node2&#45;&gt;Node3 -->
<g id="edge2_Node000002_Node000003" class="edge">
<title>Node2&#45;&gt;Node3</title>
<g id="a_edge2_Node000002_Node000003"><a xlink:title=" ">
<path fill="none" stroke="#63b8ff" d="M830.14,-298.18C723.73,-284.72 515.94,-258.46 416.96,-245.95"/>
<polygon fill="#63b8ff" stroke="#63b8ff" points="829.5,-301.62 839.86,-299.4 830.38,-294.68 829.5,-301.62"/>
</a>
</g>
</g>
<!-- Node10 -->
<g id="Node000010" class="node">
<title>Node10</title>
<g id="a_Node000010"><a xlink:href="Cast_2IR_2Ops_8cpp.html" target="_top" xlink:title=" ">
<polygon fill="white" stroke="#666666" points="1242.5,-109.38 1139.5,-109.38 1139.5,-75.88 1242.5,-75.88 1242.5,-109.38"/>
<text text-anchor="start" x="1147.5" y="-95.88" font-family="Helvetica,sans-Serif" font-size="10.00">lib/Dialect/Cast/IR</text>
<text text-anchor="middle" x="1191" y="-83.12" font-family="Helvetica,sans-Serif" font-size="10.00">/Ops.cpp</text>
</a>
</g>
</g>
<!-- Node2&#45;&gt;Node10 -->
<g id="edge17_Node000002_Node000010" class="edge">
<title>Node2&#45;&gt;Node10</title>
<g id="a_edge17_Node000002_Node000010"><a xlink:title=" ">
<path fill="none" stroke="#63b8ff" d="M896.39,-279.22C897.98,-261.01 902.76,-237.52 916,-221.25 931.97,-201.63 1079.05,-139.5 1151.3,-109.78"/>
<polygon fill="#63b8ff" stroke="#63b8ff" points="892.9,-278.86 895.83,-289.05 899.89,-279.26 892.9,-278.86"/>
</a>
</g>
</g>
<!-- Node15 -->
<g id="Node000015" class="node">
<title>Node15</title>
<g id="a_Node000015"><a xlink:href="Cast_2IR_2Enums_8cpp.html" target="_top" xlink:title=" ">
<polygon fill="white" stroke="#666666" points="1027.5,-254.75 924.5,-254.75 924.5,-221.25 1027.5,-221.25 1027.5,-254.75"/>
<text text-anchor="start" x="932.5" y="-241.25" font-family="Helvetica,sans-Serif" font-size="10.00">lib/Dialect/Cast/IR</text>
<text text-anchor="middle" x="976" y="-228.5" font-family="Helvetica,sans-Serif" font-size="10.00">/Enums.cpp</text>
</a>
</g>
</g>
<!-- Node2&#45;&gt;Node15 -->
<g id="edge16_Node000002_Node000015" class="edge">
<title>Node2&#45;&gt;Node15</title>
<g id="a_edge16_Node000002_Node000015"><a xlink:title=" ">
<path fill="none" stroke="#63b8ff" d="M923.75,-283.09C934.69,-273.85 946.99,-263.48 956.9,-255.12"/>
<polygon fill="#63b8ff" stroke="#63b8ff" points="921.5,-280.4 916.12,-289.53 926.02,-285.75 921.5,-280.4"/>
</a>
</g>
</g>
<!-- Node4 -->
<g id="Node000004" class="node">
<title>Node4</title>
<g id="a_Node000004"><a xlink:href="Cast_2IR_2Ops_8h.html" target="_top" xlink:title=" ">
<polygon fill="white" stroke="#666666" points="572.5,-185.25 463.5,-185.25 463.5,-151.75 572.5,-151.75 572.5,-185.25"/>
<text text-anchor="start" x="471.5" y="-171.75" font-family="Helvetica,sans-Serif" font-size="10.00">include/llzk/Dialect</text>
<text text-anchor="middle" x="518" y="-159" font-family="Helvetica,sans-Serif" font-size="10.00">/Cast/IR/Ops.h</text>
</a>
</g>
</g>
<!-- Node3&#45;&gt;Node4 -->
<g id="edge3_Node000003_Node000004" class="edge">
<title>Node3&#45;&gt;Node4</title>
<g id="a_edge3_Node000003_Node000004"><a xlink:title=" ">
<path fill="none" stroke="#63b8ff" d="M409.84,-216.3C432.61,-206.45 459.43,-194.84 480.67,-185.65"/>
<polygon fill="#63b8ff" stroke="#63b8ff" points="408.54,-213.05 400.75,-220.23 411.32,-219.47 408.54,-213.05"/>
</a>
</g>
</g>
<!-- Node8 -->
<g id="Node000008" class="node">
<title>Node8</title>
<g id="a_Node000008"><a xlink:href="Cast_8cpp.html" target="_top" xlink:title=" ">
<polygon fill="white" stroke="#666666" points="136,-103 0,-103 0,-82.25 136,-82.25 136,-103"/>
<text text-anchor="middle" x="68" y="-89.5" font-family="Helvetica,sans-Serif" font-size="10.00">lib/CAPI/Dialect/Cast.cpp</text>
</a>
</g>
</g>
<!-- Node3&#45;&gt;Node8 -->
<g id="edge14_Node000003_Node000008" class="edge">
<title>Node3&#45;&gt;Node8</title>
<g id="a_edge14_Node000003_Node000008"><a xlink:title=" ">
<path fill="none" stroke="#63b8ff" d="M318.58,-215.83C253.96,-184.31 135.06,-126.33 87.96,-103.36"/>
<polygon fill="#63b8ff" stroke="#63b8ff" points="316.96,-218.93 327.49,-220.17 320.03,-212.64 316.96,-218.93"/>
</a>
</g>
</g>
<!-- Node9 -->
<g id="Node000009" class="node">
<title>Node9</title>
<g id="a_Node000009"><a xlink:href="Cast_2IR_2Dialect_8cpp.html" target="_top" xlink:title=" ">
<polygon fill="white" stroke="#666666" points="257.5,-109.38 154.5,-109.38 154.5,-75.88 257.5,-75.88 257.5,-109.38"/>
<text text-anchor="start" x="162.5" y="-95.88" font-family="Helvetica,sans-Serif" font-size="10.00">lib/Dialect/Cast/IR</text>
<text text-anchor="middle" x="206" y="-83.12" font-family="Helvetica,sans-Serif" font-size="10.00">/Dialect.cpp</text>
</a>
</g>
</g>
<!-- Node3&#45;&gt;Node9 -->
<g id="edge15_Node000003_Node000009" class="edge">
<title>Node3&#45;&gt;Node9</title>
<g id="a_edge15_Node000003_Node000009"><a xlink:title=" ">
<path fill="none" stroke="#63b8ff" d="M336,-213.1C304.02,-183.71 250.63,-134.64 223.29,-109.52"/>
<polygon fill="#63b8ff" stroke="#63b8ff" points="333.56,-215.62 343.29,-219.81 338.3,-210.46 333.56,-215.62"/>
</a>
</g>
</g>
<!-- Node5 -->
<g id="Node000005" class="node">
<title>Node5</title>
<g id="a_Node000005"><a xlink:href="IntervalAnalysis_8h.html" target="_top" xlink:title=" ">
<polygon fill="white" stroke="#666666" points="889.88,-109.38 774.12,-109.38 774.12,-75.88 889.88,-75.88 889.88,-109.38"/>
<text text-anchor="start" x="782.12" y="-95.88" font-family="Helvetica,sans-Serif" font-size="10.00">include/llzk/Analysis</text>
<text text-anchor="middle" x="832" y="-83.12" font-family="Helvetica,sans-Serif" font-size="10.00">/IntervalAnalysis.h</text>
</a>
</g>
</g>
<!-- Node4&#45;&gt;Node5 -->
<g id="edge4_Node000004_Node000005" class="edge">
<title>Node4&#45;&gt;Node5</title>
<g id="a_edge4_Node000004_Node000005"><a xlink:title=" ">
<path fill="none" stroke="#63b8ff" d="M584.17,-155.73C634.19,-146.33 704.36,-132.06 765,-115.75 771.62,-113.97 778.56,-111.91 785.35,-109.77"/>
<polygon fill="#63b8ff" stroke="#63b8ff" points="583.55,-152.29 574.36,-157.56 584.83,-159.17 583.55,-152.29"/>
</a>
</g>
</g>
<!-- Node4&#45;&gt;Node8 -->
<g id="edge7_Node000004_Node000008" class="edge">
<title>Node4&#45;&gt;Node8</title>
<g id="a_edge7_Node000004_Node000008"><a xlink:title=" ">
<path fill="none" stroke="#63b8ff" d="M452.09,-161.22C377.17,-153.41 251.46,-138.31 145,-115.75 129.49,-112.46 112.52,-107.72 98.47,-103.46"/>
<polygon fill="#63b8ff" stroke="#63b8ff" points="451.41,-164.66 461.71,-162.2 452.12,-157.7 451.41,-164.66"/>
</a>
</g>
</g>
<!-- Node4&#45;&gt;Node9 -->
<g id="edge8_Node000004_Node000009" class="edge">
<title>Node4&#45;&gt;Node9</title>
<g id="a_edge8_Node000004_Node000009"><a xlink:title=" ">
<path fill="none" stroke="#63b8ff" d="M452.11,-156.78C400.88,-147.77 328.29,-133.52 266,-115.75 259.91,-114.01 253.56,-111.95 247.37,-109.8"/>
<polygon fill="#63b8ff" stroke="#63b8ff" points="451.41,-160.21 461.86,-158.47 452.61,-153.31 451.41,-160.21"/>
</a>
</g>
</g>
<!-- Node4&#45;&gt;Node10 -->
<g id="edge9_Node000004_Node000010" class="edge">
<title>Node4&#45;&gt;Node10</title>
<g id="a_edge9_Node000004_Node000010"><a xlink:title=" ">
<path fill="none" stroke="#63b8ff" d="M584.29,-164.16C720.63,-156.92 1028.3,-138.58 1131,-115.75 1137.83,-114.23 1144.93,-112.12 1151.75,-109.8"/>
<polygon fill="#63b8ff" stroke="#63b8ff" points="584.13,-160.66 574.33,-164.68 584.5,-167.65 584.13,-160.66"/>
</a>
</g>
</g>
<!-- Node11 -->
<g id="Node000011" class="node">
<title>Node11</title>
<g id="a_Node000011"><a xlink:href="WildcardArraySpecializationPass_8cpp.html" target="_top" xlink:title="This file implements the &#45;llzk&#45;specialize&#45;wildcard&#45;arrays pass.">
<polygon fill="white" stroke="#666666" points="1121.62,-115.75 908.38,-115.75 908.38,-69.5 1121.62,-69.5 1121.62,-115.75"/>
<text text-anchor="start" x="916.38" y="-102.25" font-family="Helvetica,sans-Serif" font-size="10.00">lib/Dialect/Polymorphic</text>
<text text-anchor="start" x="916.38" y="-89.5" font-family="Helvetica,sans-Serif" font-size="10.00">/Transforms/WildcardArraySpecialization</text>
<text text-anchor="middle" x="1015" y="-76.75" font-family="Helvetica,sans-Serif" font-size="10.00">Pass.cpp</text>
</a>
</g>
</g>
<!-- Node4&#45;&gt;Node11 -->
<g id="edge10_Node000004_Node000011" class="edge">
<title>Node4&#45;&gt;Node11</title>
<g id="a_edge10_Node000004_Node000011"><a xlink:title=" ">
<path fill="none" stroke="#63b8ff" d="M584.01,-159.62C660.1,-150.29 788.87,-133.72 899,-115.75 901.93,-115.27 904.91,-114.78 907.91,-114.27"/>
<polygon fill="#63b8ff" stroke="#63b8ff" points="583.72,-156.13 574.21,-160.82 584.57,-163.08 583.72,-156.13"/>
</a>
</g>
</g>
<!-- Node12 -->
<g id="Node000012" class="node">
<title>Node12</title>
<g id="a_Node000012"><a xlink:href="LLZKWhileToForPass_8cpp.html" target="_top" xlink:title="This file identifies scf.while loops that can be converted to scf.for loops and performs the conversi...">
<polygon fill="white" stroke="#666666" points="414.5,-109.38 275.5,-109.38 275.5,-75.88 414.5,-75.88 414.5,-109.38"/>
<text text-anchor="start" x="283.5" y="-95.88" font-family="Helvetica,sans-Serif" font-size="10.00">lib/Transforms/LLZKWhile</text>
<text text-anchor="middle" x="345" y="-83.12" font-family="Helvetica,sans-Serif" font-size="10.00">ToForPass.cpp</text>
</a>
</g>
</g>
<!-- Node4&#45;&gt;Node12 -->
<g id="edge11_Node000004_Node000012" class="edge">
<title>Node4&#45;&gt;Node12</title>
<g id="a_edge11_Node000004_Node000012"><a xlink:title=" ">
<path fill="none" stroke="#63b8ff" d="M469.49,-146.78C442.08,-135.08 408.32,-120.66 382.88,-109.8"/>
<polygon fill="#63b8ff" stroke="#63b8ff" points="468.07,-149.99 478.64,-150.69 470.82,-143.55 468.07,-149.99"/>
</a>
</g>
</g>
<!-- Node13 -->
<g id="Node000013" class="node">
<title>Node13</title>
<g id="a_Node000013"><a xlink:href="Interpreter_8cpp.html" target="_top" xlink:title=" ">
<polygon fill="white" stroke="#666666" points="603.62,-103 432.38,-103 432.38,-82.25 603.62,-82.25 603.62,-103"/>
<text text-anchor="middle" x="518" y="-89.5" font-family="Helvetica,sans-Serif" font-size="10.00">tools/llzk&#45;witgen/Interpreter.cpp</text>
</a>
</g>
</g>
<!-- Node4&#45;&gt;Node13 -->
<g id="edge12_Node000004_Node000013" class="edge">
<title>Node4&#45;&gt;Node13</title>
<g id="a_edge12_Node000004_Node000013"><a xlink:title=" ">
<path fill="none" stroke="#63b8ff" d="M518,-140.2C518,-127.17 518,-112.43 518,-103.08"/>
<polygon fill="#63b8ff" stroke="#63b8ff" points="514.5,-139.96 518,-149.96 521.5,-139.96 514.5,-139.96"/>
</a>
</g>
</g>
<!-- Node14 -->
<g id="Node000014" class="node">
<title>Node14</title>
<g id="a_Node000014"><a xlink:href="WitgenLowering_8cpp.html" target="_top" xlink:title=" ">
<polygon fill="white" stroke="#666666" points="756.25,-109.38 621.75,-109.38 621.75,-75.88 756.25,-75.88 756.25,-109.38"/>
<text text-anchor="start" x="629.75" y="-95.88" font-family="Helvetica,sans-Serif" font-size="10.00">tools/llzk&#45;witgen/Witgen</text>
<text text-anchor="middle" x="689" y="-83.12" font-family="Helvetica,sans-Serif" font-size="10.00">Lowering.cpp</text>
</a>
</g>
</g>
<!-- Node4&#45;&gt;Node14 -->
<g id="edge13_Node000004_Node000014" class="edge">
<title>Node4&#45;&gt;Node14</title>
<g id="a_edge13_Node000004_Node000014"><a xlink:title=" ">
<path fill="none" stroke="#63b8ff" d="M565.95,-146.78C593.04,-135.08 626.41,-120.66 651.56,-109.8"/>
<polygon fill="#63b8ff" stroke="#63b8ff" points="564.71,-143.51 556.92,-150.69 567.48,-149.93 564.71,-143.51"/>
</a>
</g>
</g>
<!-- Node6 -->
<g id="Node000006" class="node">
<title>Node6</title>
<g id="a_Node000006"><a xlink:href="IntervalAnalysis_8cpp.html" target="_top" xlink:title=" ">
<polygon fill="white" stroke="#666666" points="828.12,-27.12 653.88,-27.12 653.88,-6.38 828.12,-6.38 828.12,-27.12"/>
<text text-anchor="middle" x="741" y="-13.62" font-family="Helvetica,sans-Serif" font-size="10.00">lib/Analysis/IntervalAnalysis.cpp</text>
</a>
</g>
</g>
<!-- Node5&#45;&gt;Node6 -->
<g id="edge5_Node000005_Node000006" class="edge">
<title>Node5&#45;&gt;Node6</title>
<g id="a_edge5_Node000005_Node000006"><a xlink:title=" ">
<path fill="none" stroke="#63b8ff" d="M803.73,-68.67C786.64,-54.8 765.75,-37.84 752.91,-27.42"/>
<polygon fill="#63b8ff" stroke="#63b8ff" points="801.11,-71.06 811.08,-74.64 805.52,-65.62 801.11,-71.06"/>
</a>
</g>
</g>
<!-- Node7 -->
<g id="Node000007" class="node">
<title>Node7</title>
<g id="a_Node000007"><a xlink:href="IntervalAnalysisPass_8cpp.html" target="_top" xlink:title="This file implements the &#45;llzk&#45;print&#45;interval&#45;analysis pass.">
<polygon fill="white" stroke="#666666" points="1000,-33.5 846,-33.5 846,0 1000,0 1000,-33.5"/>
<text text-anchor="start" x="854" y="-20" font-family="Helvetica,sans-Serif" font-size="10.00">lib/Analysis/IntervalAnalysis</text>
<text text-anchor="middle" x="923" y="-7.25" font-family="Helvetica,sans-Serif" font-size="10.00">Pass.cpp</text>
</a>
</g>
</g>
<!-- Node5&#45;&gt;Node7 -->
<g id="edge6_Node000005_Node000007" class="edge">
<title>Node5&#45;&gt;Node7</title>
<g id="a_edge6_Node000005_Node000007"><a xlink:title=" ">
<path fill="none" stroke="#63b8ff" d="M860.47,-68.52C874.38,-57.22 890.78,-43.91 903.29,-33.75"/>
<polygon fill="#63b8ff" stroke="#63b8ff" points="858.48,-65.62 852.92,-74.64 862.89,-71.06 858.48,-65.62"/>
</a>
</g>
</g>
</g>
</svg>
