<?xml version="1.0" encoding="UTF-8" standalone="no"?>
<!DOCTYPE svg PUBLIC "-//W3C//DTD SVG 1.1//EN"
 "http://www.w3.org/Graphics/SVG/1.1/DTD/svg11.dtd">
<!-- Generated by graphviz version 12.2.1 (0)
 -->
<!-- Title: llzk::smt::detail::BoolConstantOpGenericAdaptorBase Pages: 1 -->
<svg width="581pt" height="170pt"
 viewBox="0.00 0.00 581.00 169.88" xmlns="http://www.w3.org/2000/svg" xmlns:xlink="http://www.w3.org/1999/xlink">
<g id="graph0" class="graph" transform="scale(1 1) rotate(0) translate(4 165.88)">
<title>llzk::smt::detail::BoolConstantOpGenericAdaptorBase</title>
<!-- Node1 -->
<g id="Node000001" class="node">
<title>Node1</title>
<g id="a_Node000001"><a xlink:title=" ">
<polygon fill="#999999" stroke="#666666" points="194.5,-91.5 0,-91.5 0,-58 194.5,-58 194.5,-91.5"/>
<text text-anchor="start" x="8" y="-78" font-family="Helvetica,sans-Serif" font-size="10.00">llzk::smt::detail::</text>
<text text-anchor="middle" x="97.25" y="-65.25" font-family="Helvetica,sans-Serif" font-size="10.00">BoolConstantOpGenericAdaptorBase</text>
</a>
</g>
</g>
<!-- Node2 -->
<g id="Node000002" class="node">
<title>Node2</title>
<g id="a_Node000002"><a xlink:href="classllzk_1_1smt_1_1BoolConstantOpGenericAdaptor.html" target="_top" xlink:title=" ">
<polygon fill="white" stroke="#666666" points="394.25,-161.88 230.5,-161.88 230.5,-115.62 394.25,-115.62 394.25,-161.88"/>
<text text-anchor="start" x="238.5" y="-148.38" font-family="Helvetica,sans-Serif" font-size="10.00">llzk::smt::BoolConstantOp</text>
<text text-anchor="start" x="238.5" y="-135.62" font-family="Helvetica,sans-Serif" font-size="10.00">GenericAdaptor&lt;::llvm::</text>
<text text-anchor="middle" x="312.38" y="-122.88" font-family="Helvetica,sans-Serif" font-size="10.00">ArrayRef&lt;::mlir::Attribute &gt; &gt;</text>
</a>
</g>
</g>
<!-- Node1&#45;&gt;Node2 -->
<g id="edge1_Node000001_Node000002" class="edge">
<title>Node1&#45;&gt;Node2</title>
<g id="a_edge1_Node000001_Node000002"><a xlink:title=" ">
<path fill="none" stroke="#63b8ff" d="M166.5,-95.24C187.69,-101.61 211.23,-108.68 233.06,-115.23"/>
<polygon fill="#63b8ff" stroke="#63b8ff" points="167.68,-91.94 157.09,-92.42 165.66,-98.65 167.68,-91.94"/>
</a>
</g>
</g>
<!-- Node3 -->
<g id="Node000003" class="node">
<title>Node3</title>
<g id="a_Node000003"><a xlink:href="classllzk_1_1smt_1_1BoolConstantOpGenericAdaptor.html" target="_top" xlink:title=" ">
<polygon fill="white" stroke="#666666" points="383.75,-97.88 241,-97.88 241,-51.62 383.75,-51.62 383.75,-97.88"/>
<text text-anchor="start" x="249" y="-84.38" font-family="Helvetica,sans-Serif" font-size="10.00">llzk::smt::BoolConstantOp</text>
<text text-anchor="start" x="249" y="-71.62" font-family="Helvetica,sans-Serif" font-size="10.00">GenericAdaptor&lt;::mlir::</text>
<text text-anchor="middle" x="312.38" y="-58.88" font-family="Helvetica,sans-Serif" font-size="10.00">ValueRange &gt;</text>
</a>
</g>
</g>
<!-- Node1&#45;&gt;Node3 -->
<g id="edge2_Node000001_Node000003" class="edge">
<title>Node1&#45;&gt;Node3</title>
<g id="a_edge2_Node000001_Node000003"><a xlink:title=" ">
<path fill="none" stroke="#63b8ff" d="M206.07,-74.75C217.8,-74.75 229.51,-74.75 240.63,-74.75"/>
<polygon fill="#63b8ff" stroke="#63b8ff" points="206.35,-71.25 196.35,-74.75 206.35,-78.25 206.35,-71.25"/>
</a>
</g>
</g>
<!-- Node5 -->
<g id="Node000005" class="node">
<title>Node5</title>
<g id="a_Node000005"><a xlink:href="classllzk_1_1smt_1_1BoolConstantOpGenericAdaptor.html" target="_top" xlink:title=" ">
<polygon fill="white" stroke="#666666" points="387.88,-33.5 236.88,-33.5 236.88,0 387.88,0 387.88,-33.5"/>
<text text-anchor="start" x="244.88" y="-20" font-family="Helvetica,sans-Serif" font-size="10.00">llzk::smt::BoolConstantOp</text>
<text text-anchor="middle" x="312.38" y="-7.25" font-family="Helvetica,sans-Serif" font-size="10.00">GenericAdaptor&lt; RangeT &gt;</text>
</a>
</g>
</g>
<!-- Node1&#45;&gt;Node5 -->
<g id="edge4_Node000001_Node000005" class="edge">
<title>Node1&#45;&gt;Node5</title>
<g id="a_edge4_Node000001_Node000005"><a xlink:title=" ">
<path fill="none" stroke="#63b8ff" d="M172.41,-54.57C197.14,-47.84 224.44,-40.41 248.25,-33.93"/>
<polygon fill="#63b8ff" stroke="#63b8ff" points="171.81,-51.1 163.08,-57.11 173.65,-57.86 171.81,-51.1"/>
</a>
</g>
</g>
<!-- Node4 -->
<g id="Node000004" class="node">
<title>Node4</title>
<g id="a_Node000004"><a xlink:href="classllzk_1_1smt_1_1BoolConstantOpAdaptor.html" target="_top" xlink:title=" ">
<polygon fill="white" stroke="#666666" points="573,-91.5 430.25,-91.5 430.25,-58 573,-58 573,-91.5"/>
<text text-anchor="start" x="438.25" y="-78" font-family="Helvetica,sans-Serif" font-size="10.00">llzk::smt::BoolConstantOp</text>
<text text-anchor="middle" x="501.62" y="-65.25" font-family="Helvetica,sans-Serif" font-size="10.00">Adaptor</text>
</a>
</g>
</g>
<!-- Node3&#45;&gt;Node4 -->
<g id="edge3_Node000003_Node000004" class="edge">
<title>Node3&#45;&gt;Node4</title>
<g id="a_edge3_Node000003_Node000004"><a xlink:title=" ">
<path fill="none" stroke="#63b8ff" d="M395.56,-74.75C407.06,-74.75 418.79,-74.75 430.04,-74.75"/>
<polygon fill="#63b8ff" stroke="#63b8ff" points="395.68,-71.25 385.68,-74.75 395.68,-78.25 395.68,-71.25"/>
</a>
</g>
</g>
</g>
</svg>
