<?xml version="1.0" encoding="UTF-8" standalone="no"?>
<!DOCTYPE svg PUBLIC "-//W3C//DTD SVG 1.1//EN"
 "http://www.w3.org/Graphics/SVG/1.1/DTD/svg11.dtd">
<!-- Generated by graphviz version 12.2.1 (0)
 -->
<!-- Title: llzk::boolean::detail::OrBoolOpGenericAdaptorBase Pages: 1 -->
<svg width="586pt" height="158pt"
 viewBox="0.00 0.00 585.50 157.88" xmlns="http://www.w3.org/2000/svg" xmlns:xlink="http://www.w3.org/1999/xlink">
<g id="graph0" class="graph" transform="scale(1 1) rotate(0) translate(4 153.88)">
<title>llzk::boolean::detail::OrBoolOpGenericAdaptorBase</title>
<!-- Node1 -->
<g id="Node000001" class="node">
<title>Node1</title>
<g id="a_Node000001"><a xlink:title=" ">
<polygon fill="#999999" stroke="#666666" points="168.25,-85.5 0,-85.5 0,-52 168.25,-52 168.25,-85.5"/>
<text text-anchor="start" x="8" y="-72" font-family="Helvetica,sans-Serif" font-size="10.00">llzk::boolean::detail</text>
<text text-anchor="middle" x="84.12" y="-59.25" font-family="Helvetica,sans-Serif" font-size="10.00">::OrBoolOpGenericAdaptorBase</text>
</a>
</g>
</g>
<!-- Node2 -->
<g id="Node000002" class="node">
<title>Node2</title>
<g id="a_Node000002"><a xlink:href="classllzk_1_1boolean_1_1OrBoolOpGenericAdaptor.html" target="_top" xlink:title=" ">
<polygon fill="white" stroke="#666666" points="372.5,-149.88 204.25,-149.88 204.25,-103.62 372.5,-103.62 372.5,-149.88"/>
<text text-anchor="start" x="212.25" y="-136.38" font-family="Helvetica,sans-Serif" font-size="10.00">llzk::boolean::OrBoolOpGeneric</text>
<text text-anchor="start" x="212.25" y="-123.62" font-family="Helvetica,sans-Serif" font-size="10.00">Adaptor&lt;::llvm::ArrayRef</text>
<text text-anchor="middle" x="288.38" y="-110.88" font-family="Helvetica,sans-Serif" font-size="10.00">&lt;::mlir::Attribute &gt; &gt;</text>
</a>
</g>
</g>
<!-- Node1&#45;&gt;Node2 -->
<g id="edge1_Node000001_Node000002" class="edge">
<title>Node1&#45;&gt;Node2</title>
<g id="a_edge1_Node000001_Node000002"><a xlink:title=" ">
<path fill="none" stroke="#63b8ff" d="M156.02,-89.08C171.85,-93.62 188.76,-98.47 205.01,-103.13"/>
<polygon fill="#63b8ff" stroke="#63b8ff" points="157.29,-85.8 146.71,-86.41 155.36,-92.53 157.29,-85.8"/>
</a>
</g>
</g>
<!-- Node3 -->
<g id="Node000003" class="node">
<title>Node3</title>
<g id="a_Node000003"><a xlink:href="classllzk_1_1boolean_1_1OrBoolOpGenericAdaptor.html" target="_top" xlink:title=" ">
<polygon fill="white" stroke="#666666" points="372.5,-85.5 204.25,-85.5 204.25,-52 372.5,-52 372.5,-85.5"/>
<text text-anchor="start" x="212.25" y="-72" font-family="Helvetica,sans-Serif" font-size="10.00">llzk::boolean::OrBoolOpGeneric</text>
<text text-anchor="middle" x="288.38" y="-59.25" font-family="Helvetica,sans-Serif" font-size="10.00">Adaptor&lt;::mlir::ValueRange &gt;</text>
</a>
</g>
</g>
<!-- Node1&#45;&gt;Node3 -->
<g id="edge2_Node000001_Node000003" class="edge">
<title>Node1&#45;&gt;Node3</title>
<g id="a_edge2_Node000001_Node000003"><a xlink:title=" ">
<path fill="none" stroke="#63b8ff" d="M179.82,-68.75C187.83,-68.75 195.89,-68.75 203.81,-68.75"/>
<polygon fill="#63b8ff" stroke="#63b8ff" points="180.07,-65.25 170.07,-68.75 180.07,-72.25 180.07,-65.25"/>
</a>
</g>
</g>
<!-- Node5 -->
<g id="Node000005" class="node">
<title>Node5</title>
<g id="a_Node000005"><a xlink:href="classllzk_1_1boolean_1_1OrBoolOpGenericAdaptor.html" target="_top" xlink:title=" ">
<polygon fill="white" stroke="#666666" points="372.5,-33.5 204.25,-33.5 204.25,0 372.5,0 372.5,-33.5"/>
<text text-anchor="start" x="212.25" y="-20" font-family="Helvetica,sans-Serif" font-size="10.00">llzk::boolean::OrBoolOpGeneric</text>
<text text-anchor="middle" x="288.38" y="-7.25" font-family="Helvetica,sans-Serif" font-size="10.00">Adaptor&lt; RangeT &gt;</text>
</a>
</g>
</g>
<!-- Node1&#45;&gt;Node5 -->
<g id="edge4_Node000001_Node000005" class="edge">
<title>Node1&#45;&gt;Node5</title>
<g id="a_edge4_Node000001_Node000005"><a xlink:title=" ">
<path fill="none" stroke="#63b8ff" d="M163.17,-48.68C182.09,-43.82 202.14,-38.66 220.49,-33.95"/>
<polygon fill="#63b8ff" stroke="#63b8ff" points="162.47,-45.25 153.66,-51.13 164.21,-52.03 162.47,-45.25"/>
</a>
</g>
</g>
<!-- Node4 -->
<g id="Node000004" class="node">
<title>Node4</title>
<g id="a_Node000004"><a xlink:href="classllzk_1_1boolean_1_1OrBoolOpAdaptor.html" target="_top" xlink:title=" ">
<polygon fill="white" stroke="#666666" points="577.5,-79.12 408.5,-79.12 408.5,-58.38 577.5,-58.38 577.5,-79.12"/>
<text text-anchor="middle" x="493" y="-65.62" font-family="Helvetica,sans-Serif" font-size="10.00">llzk::boolean::OrBoolOpAdaptor</text>
</a>
</g>
</g>
<!-- Node3&#45;&gt;Node4 -->
<g id="edge3_Node000003_Node000004" class="edge">
<title>Node3&#45;&gt;Node4</title>
<g id="a_edge3_Node000003_Node000004"><a xlink:title=" ">
<path fill="none" stroke="#63b8ff" d="M384.25,-68.75C392.27,-68.75 400.35,-68.75 408.28,-68.75"/>
<polygon fill="#63b8ff" stroke="#63b8ff" points="384.47,-65.25 374.47,-68.75 384.47,-72.25 384.47,-65.25"/>
</a>
</g>
</g>
</g>
</svg>
