<?xml version="1.0" encoding="UTF-8" standalone="no"?>
<!DOCTYPE svg PUBLIC "-//W3C//DTD SVG 1.1//EN"
 "http://www.w3.org/Graphics/SVG/1.1/DTD/svg11.dtd">
<!-- Generated by graphviz version 12.2.1 (0)
 -->
<!-- Title: llzk::smt::DeclareFunOpAdaptor Pages: 1 -->
<svg width="192pt" height="168pt"
 viewBox="0.00 0.00 192.00 167.75" xmlns="http://www.w3.org/2000/svg" xmlns:xlink="http://www.w3.org/1999/xlink">
<g id="graph0" class="graph" transform="scale(1 1) rotate(0) translate(4 163.75)">
<title>llzk::smt::DeclareFunOpAdaptor</title>
<!-- Node1 -->
<g id="Node000001" class="node">
<title>Node1</title>
<g id="a_Node000001"><a xlink:title=" ">
<polygon fill="#999999" stroke="#666666" points="177.25,-20.75 6.75,-20.75 6.75,0 177.25,0 177.25,-20.75"/>
<text text-anchor="middle" x="92" y="-7.25" font-family="Helvetica,sans-Serif" font-size="10.00">llzk::smt::DeclareFunOpAdaptor</text>
</a>
</g>
</g>
<!-- Node2 -->
<g id="Node000002" class="node">
<title>Node2</title>
<g id="a_Node000002"><a xlink:href="classllzk_1_1smt_1_1DeclareFunOpGenericAdaptor.html" target="_top" xlink:title=" ">
<polygon fill="white" stroke="#666666" points="176.88,-90.25 7.12,-90.25 7.12,-56.75 176.88,-56.75 176.88,-90.25"/>
<text text-anchor="start" x="15.12" y="-76.75" font-family="Helvetica,sans-Serif" font-size="10.00">llzk::smt::DeclareFunOpGeneric</text>
<text text-anchor="middle" x="92" y="-64" font-family="Helvetica,sans-Serif" font-size="10.00">Adaptor&lt;::mlir::ValueRange &gt;</text>
</a>
</g>
</g>
<!-- Node2&#45;&gt;Node1 -->
<g id="edge1_Node000001_Node000002" class="edge">
<title>Node2&#45;&gt;Node1</title>
<g id="a_edge1_Node000001_Node000002"><a xlink:title=" ">
<path fill="none" stroke="#63b8ff" d="M92,-44.94C92,-36.46 92,-27.67 92,-21.22"/>
<polygon fill="#63b8ff" stroke="#63b8ff" points="88.5,-44.93 92,-54.93 95.5,-44.93 88.5,-44.93"/>
</a>
</g>
</g>
<!-- Node3 -->
<g id="Node000003" class="node">
<title>Node3</title>
<g id="a_Node000003"><a xlink:href="classllzk_1_1smt_1_1detail_1_1DeclareFunOpGenericAdaptorBase.html" target="_top" xlink:title=" ">
<polygon fill="white" stroke="#666666" points="184,-159.75 0,-159.75 0,-126.25 184,-126.25 184,-159.75"/>
<text text-anchor="start" x="8" y="-146.25" font-family="Helvetica,sans-Serif" font-size="10.00">llzk::smt::detail::</text>
<text text-anchor="middle" x="92" y="-133.5" font-family="Helvetica,sans-Serif" font-size="10.00">DeclareFunOpGenericAdaptorBase</text>
</a>
</g>
</g>
<!-- Node3&#45;&gt;Node2 -->
<g id="edge2_Node000002_Node000003" class="edge">
<title>Node3&#45;&gt;Node2</title>
<g id="a_edge2_Node000002_Node000003"><a xlink:title=" ">
<path fill="none" stroke="#63b8ff" d="M92,-114.56C92,-106.34 92,-97.59 92,-90.38"/>
<polygon fill="#63b8ff" stroke="#63b8ff" points="88.5,-114.49 92,-124.49 95.5,-114.49 88.5,-114.49"/>
</a>
</g>
</g>
</g>
</svg>
