<?xml version="1.0" encoding="UTF-8" standalone="no"?>
<!DOCTYPE svg PUBLIC "-//W3C//DTD SVG 1.1//EN"
 "http://www.w3.org/Graphics/SVG/1.1/DTD/svg11.dtd">
<!-- Generated by graphviz version 12.2.1 (0)
 -->
<!-- Title: llzk::string::detail::LitStringOpGenericAdaptorBase Pages: 1 -->
<svg width="547pt" height="170pt"
 viewBox="0.00 0.00 546.50 169.88" xmlns="http://www.w3.org/2000/svg" xmlns:xlink="http://www.w3.org/1999/xlink">
<g id="graph0" class="graph" transform="scale(1 1) rotate(0) translate(4 165.88)">
<title>llzk::string::detail::LitStringOpGenericAdaptorBase</title>
<!-- Node1 -->
<g id="Node000001" class="node">
<title>Node1</title>
<g id="a_Node000001"><a xlink:title=" ">
<polygon fill="#999999" stroke="#666666" points="175.75,-91.5 0,-91.5 0,-58 175.75,-58 175.75,-91.5"/>
<text text-anchor="start" x="8" y="-78" font-family="Helvetica,sans-Serif" font-size="10.00">llzk::string::detail</text>
<text text-anchor="middle" x="87.88" y="-65.25" font-family="Helvetica,sans-Serif" font-size="10.00">::LitStringOpGenericAdaptorBase</text>
</a>
</g>
</g>
<!-- Node2 -->
<g id="Node000002" class="node">
<title>Node2</title>
<g id="a_Node000002"><a xlink:href="classllzk_1_1string_1_1LitStringOpGenericAdaptor.html" target="_top" xlink:title=" ">
<polygon fill="white" stroke="#666666" points="375.5,-161.88 211.75,-161.88 211.75,-115.62 375.5,-115.62 375.5,-161.88"/>
<text text-anchor="start" x="219.75" y="-148.38" font-family="Helvetica,sans-Serif" font-size="10.00">llzk::string::LitStringOp</text>
<text text-anchor="start" x="219.75" y="-135.62" font-family="Helvetica,sans-Serif" font-size="10.00">GenericAdaptor&lt;::llvm::</text>
<text text-anchor="middle" x="293.62" y="-122.88" font-family="Helvetica,sans-Serif" font-size="10.00">ArrayRef&lt;::mlir::Attribute &gt; &gt;</text>
</a>
</g>
</g>
<!-- Node1&#45;&gt;Node2 -->
<g id="edge1_Node000001_Node000002" class="edge">
<title>Node1&#45;&gt;Node2</title>
<g id="a_edge1_Node000001_Node000002"><a xlink:title=" ">
<path fill="none" stroke="#63b8ff" d="M154.68,-95.42C174.8,-101.74 197.07,-108.74 217.75,-115.23"/>
<polygon fill="#63b8ff" stroke="#63b8ff" points="155.78,-92.1 145.19,-92.44 153.68,-98.77 155.78,-92.1"/>
</a>
</g>
</g>
<!-- Node3 -->
<g id="Node000003" class="node">
<title>Node3</title>
<g id="a_Node000003"><a xlink:href="classllzk_1_1string_1_1LitStringOpGenericAdaptor.html" target="_top" xlink:title=" ">
<polygon fill="white" stroke="#666666" points="359.38,-97.88 227.88,-97.88 227.88,-51.62 359.38,-51.62 359.38,-97.88"/>
<text text-anchor="start" x="235.88" y="-84.38" font-family="Helvetica,sans-Serif" font-size="10.00">llzk::string::LitStringOp</text>
<text text-anchor="start" x="235.88" y="-71.62" font-family="Helvetica,sans-Serif" font-size="10.00">GenericAdaptor&lt;::mlir::</text>
<text text-anchor="middle" x="293.62" y="-58.88" font-family="Helvetica,sans-Serif" font-size="10.00">ValueRange &gt;</text>
</a>
</g>
</g>
<!-- Node1&#45;&gt;Node3 -->
<g id="edge2_Node000001_Node000003" class="edge">
<title>Node1&#45;&gt;Node3</title>
<g id="a_edge2_Node000001_Node000003"><a xlink:title=" ">
<path fill="none" stroke="#63b8ff" d="M187.5,-74.75C201.03,-74.75 214.65,-74.75 227.38,-74.75"/>
<polygon fill="#63b8ff" stroke="#63b8ff" points="187.68,-71.25 177.68,-74.75 187.68,-78.25 187.68,-71.25"/>
</a>
</g>
</g>
<!-- Node5 -->
<g id="Node000005" class="node">
<title>Node5</title>
<g id="a_Node000005"><a xlink:href="classllzk_1_1string_1_1LitStringOpGenericAdaptor.html" target="_top" xlink:title=" ">
<polygon fill="white" stroke="#666666" points="369.12,-33.5 218.12,-33.5 218.12,0 369.12,0 369.12,-33.5"/>
<text text-anchor="start" x="226.12" y="-20" font-family="Helvetica,sans-Serif" font-size="10.00">llzk::string::LitStringOp</text>
<text text-anchor="middle" x="293.62" y="-7.25" font-family="Helvetica,sans-Serif" font-size="10.00">GenericAdaptor&lt; RangeT &gt;</text>
</a>
</g>
</g>
<!-- Node1&#45;&gt;Node5 -->
<g id="edge4_Node000001_Node000005" class="edge">
<title>Node1&#45;&gt;Node5</title>
<g id="a_edge4_Node000001_Node000005"><a xlink:title=" ">
<path fill="none" stroke="#63b8ff" d="M160.41,-54.39C183.88,-47.71 209.72,-40.35 232.28,-33.93"/>
<polygon fill="#63b8ff" stroke="#63b8ff" points="159.57,-50.99 150.91,-57.09 161.49,-57.72 159.57,-50.99"/>
</a>
</g>
</g>
<!-- Node4 -->
<g id="Node000004" class="node">
<title>Node4</title>
<g id="a_Node000004"><a xlink:href="classllzk_1_1string_1_1LitStringOpAdaptor.html" target="_top" xlink:title=" ">
<polygon fill="white" stroke="#666666" points="538.5,-91.5 411.5,-91.5 411.5,-58 538.5,-58 538.5,-91.5"/>
<text text-anchor="start" x="419.5" y="-78" font-family="Helvetica,sans-Serif" font-size="10.00">llzk::string::LitStringOp</text>
<text text-anchor="middle" x="475" y="-65.25" font-family="Helvetica,sans-Serif" font-size="10.00">Adaptor</text>
</a>
</g>
</g>
<!-- Node3&#45;&gt;Node4 -->
<g id="edge3_Node000003_Node000004" class="edge">
<title>Node3&#45;&gt;Node4</title>
<g id="a_edge3_Node000003_Node000004"><a xlink:title=" ">
<path fill="none" stroke="#63b8ff" d="M370.78,-74.75C384.19,-74.75 398.01,-74.75 411.01,-74.75"/>
<polygon fill="#63b8ff" stroke="#63b8ff" points="371.15,-71.25 361.15,-74.75 371.15,-78.25 371.15,-71.25"/>
</a>
</g>
</g>
</g>
</svg>
