<?xml version="1.0" encoding="UTF-8" standalone="no"?>
<!DOCTYPE svg PUBLIC "-//W3C//DTD SVG 1.1//EN"
 "http://www.w3.org/Graphics/SVG/1.1/DTD/svg11.dtd">
<!-- Generated by graphviz version 12.2.1 (0)
 -->
<!-- Title: llvm::cl::parser&lt; llzk::NestedPassOptions&lt; CreatePass &gt; &gt; Pages: 1 -->
<svg width="212pt" height="206pt"
 viewBox="0.00 0.00 211.50 206.00" xmlns="http://www.w3.org/2000/svg" xmlns:xlink="http://www.w3.org/1999/xlink">
<g id="graph0" class="graph" transform="scale(1 1) rotate(0) translate(4 202)">
<title>llvm::cl::parser&lt; llzk::NestedPassOptions&lt; CreatePass &gt; &gt;</title>
<!-- Node1 -->
<g id="Node000001" class="node">
<title>Node1</title>
<g id="a_Node000001"><a xlink:title="Parser for textual options that are validated by a constituent MLIR pass.">
<polygon fill="#999999" stroke="#666666" points="203.5,-33.5 0,-33.5 0,0 203.5,0 203.5,-33.5"/>
<text text-anchor="start" x="8" y="-20" font-family="Helvetica,sans-Serif" font-size="10.00">llvm::cl::parser&lt; llzk</text>
<text text-anchor="middle" x="101.75" y="-7.25" font-family="Helvetica,sans-Serif" font-size="10.00">::NestedPassOptions&lt; CreatePass &gt; &gt;</text>
</a>
</g>
</g>
<!-- Node2 -->
<g id="Node000002" class="node">
<title>Node2</title>
<g id="a_Node000002"><a xlink:href="classllvm_1_1cl_1_1NestedOptionsParserBase.html" target="_top" xlink:title=" ">
<polygon fill="white" stroke="#666666" points="185.88,-115.75 17.62,-115.75 17.62,-69.5 185.88,-69.5 185.88,-115.75"/>
<text text-anchor="start" x="25.62" y="-102.25" font-family="Helvetica,sans-Serif" font-size="10.00">llvm::cl::NestedOptionsParser</text>
<text text-anchor="start" x="25.62" y="-89.5" font-family="Helvetica,sans-Serif" font-size="10.00">Base&lt; llzk::NestedPassOptions</text>
<text text-anchor="middle" x="101.75" y="-76.75" font-family="Helvetica,sans-Serif" font-size="10.00">&lt; CreatePass &gt; &gt;</text>
</a>
</g>
</g>
<!-- Node2&#45;&gt;Node1 -->
<g id="edge1_Node000001_Node000002" class="edge">
<title>Node2&#45;&gt;Node1</title>
<g id="a_edge1_Node000001_Node000002"><a xlink:title=" ">
<path fill="none" stroke="#63b8ff" d="M101.75,-57.64C101.75,-49.35 101.75,-40.86 101.75,-33.85"/>
<polygon fill="#63b8ff" stroke="#63b8ff" points="98.25,-57.55 101.75,-67.55 105.25,-57.55 98.25,-57.55"/>
</a>
</g>
</g>
<!-- Node3 -->
<g id="Node000003" class="node">
<title>Node3</title>
<g id="a_Node000003"><a xlink:title=" ">
<polygon fill="white" stroke="#666666" points="159.62,-198 43.88,-198 43.88,-151.75 159.62,-151.75 159.62,-198"/>
<text text-anchor="start" x="51.88" y="-184.5" font-family="Helvetica,sans-Serif" font-size="10.00">basic_parser&lt; llzk</text>
<text text-anchor="start" x="51.88" y="-171.75" font-family="Helvetica,sans-Serif" font-size="10.00">::NestedPassOptions</text>
<text text-anchor="middle" x="101.75" y="-159" font-family="Helvetica,sans-Serif" font-size="10.00">&lt; CreatePass &gt; &gt;</text>
</a>
</g>
</g>
<!-- Node3&#45;&gt;Node2 -->
<g id="edge2_Node000002_Node000003" class="edge">
<title>Node3&#45;&gt;Node2</title>
<g id="a_edge2_Node000002_Node000003"><a xlink:title=" ">
<path fill="none" stroke="#63b8ff" d="M101.75,-140.09C101.75,-132 101.75,-123.57 101.75,-116.14"/>
<polygon fill="#63b8ff" stroke="#63b8ff" points="98.25,-140.01 101.75,-150.01 105.25,-140.01 98.25,-140.01"/>
</a>
</g>
</g>
</g>
</svg>
