<?xml version="1.0" encoding="UTF-8" standalone="no"?>
<!DOCTYPE svg PUBLIC "-//W3C//DTD SVG 1.1//EN"
 "http://www.w3.org/Graphics/SVG/1.1/DTD/svg11.dtd">
<!-- Generated by graphviz version 12.2.1 (0)
 -->
<!-- Title: llzk::verif::DecreasesOpAdaptor Pages: 1 -->
<svg width="194pt" height="193pt"
 viewBox="0.00 0.00 194.25 193.25" xmlns="http://www.w3.org/2000/svg" xmlns:xlink="http://www.w3.org/1999/xlink">
<g id="graph0" class="graph" transform="scale(1 1) rotate(0) translate(4 189.25)">
<title>llzk::verif::DecreasesOpAdaptor</title>
<!-- Node1 -->
<g id="Node000001" class="node">
<title>Node1</title>
<g id="a_Node000001"><a xlink:title=" ">
<polygon fill="#999999" stroke="#666666" points="158.88,-33.5 27.38,-33.5 27.38,0 158.88,0 158.88,-33.5"/>
<text text-anchor="start" x="35.38" y="-20" font-family="Helvetica,sans-Serif" font-size="10.00">llzk::verif::DecreasesOp</text>
<text text-anchor="middle" x="93.12" y="-7.25" font-family="Helvetica,sans-Serif" font-size="10.00">Adaptor</text>
</a>
</g>
</g>
<!-- Node2 -->
<g id="Node000002" class="node">
<title>Node2</title>
<g id="a_Node000002"><a xlink:href="classllzk_1_1verif_1_1DecreasesOpGenericAdaptor.html" target="_top" xlink:title=" ">
<polygon fill="white" stroke="#666666" points="158.88,-115.75 27.38,-115.75 27.38,-69.5 158.88,-69.5 158.88,-115.75"/>
<text text-anchor="start" x="35.38" y="-102.25" font-family="Helvetica,sans-Serif" font-size="10.00">llzk::verif::DecreasesOp</text>
<text text-anchor="start" x="35.38" y="-89.5" font-family="Helvetica,sans-Serif" font-size="10.00">GenericAdaptor&lt;::mlir</text>
<text text-anchor="middle" x="93.12" y="-76.75" font-family="Helvetica,sans-Serif" font-size="10.00">::ValueRange &gt;</text>
</a>
</g>
</g>
<!-- Node2&#45;&gt;Node1 -->
<g id="edge1_Node000001_Node000002" class="edge">
<title>Node2&#45;&gt;Node1</title>
<g id="a_edge1_Node000001_Node000002"><a xlink:title=" ">
<path fill="none" stroke="#63b8ff" d="M93.12,-57.64C93.12,-49.35 93.12,-40.86 93.12,-33.85"/>
<polygon fill="#63b8ff" stroke="#63b8ff" points="89.63,-57.55 93.13,-67.55 96.63,-57.55 89.63,-57.55"/>
</a>
</g>
</g>
<!-- Node3 -->
<g id="Node000003" class="node">
<title>Node3</title>
<g id="a_Node000003"><a xlink:href="classllzk_1_1verif_1_1detail_1_1DecreasesOpGenericAdaptorBase.html" target="_top" xlink:title=" ">
<polygon fill="white" stroke="#666666" points="186.25,-185.25 0,-185.25 0,-151.75 186.25,-151.75 186.25,-185.25"/>
<text text-anchor="start" x="8" y="-171.75" font-family="Helvetica,sans-Serif" font-size="10.00">llzk::verif::detail</text>
<text text-anchor="middle" x="93.12" y="-159" font-family="Helvetica,sans-Serif" font-size="10.00">::DecreasesOpGenericAdaptorBase</text>
</a>
</g>
</g>
<!-- Node3&#45;&gt;Node2 -->
<g id="edge2_Node000002_Node000003" class="edge">
<title>Node3&#45;&gt;Node2</title>
<g id="a_edge2_Node000002_Node000003"><a xlink:title=" ">
<path fill="none" stroke="#63b8ff" d="M93.12,-140.14C93.12,-132.21 93.12,-123.66 93.12,-116.07"/>
<polygon fill="#63b8ff" stroke="#63b8ff" points="89.63,-139.96 93.13,-149.96 96.63,-139.96 89.63,-139.96"/>
</a>
</g>
</g>
</g>
</svg>
