<?xml version="1.0" encoding="UTF-8" standalone="no"?>
<!DOCTYPE svg PUBLIC "-//W3C//DTD SVG 1.1//EN"
 "http://www.w3.org/Graphics/SVG/1.1/DTD/svg11.dtd">
<!-- Generated by graphviz version 12.2.1 (0)
 -->
<!-- Title: llzk::component::MemberReadOpAdaptor Pages: 1 -->
<svg width="209pt" height="296pt"
 viewBox="0.00 0.00 208.50 296.25" xmlns="http://www.w3.org/2000/svg" xmlns:xlink="http://www.w3.org/1999/xlink">
<g id="graph0" class="graph" transform="scale(1 1) rotate(0) translate(4 292.25)">
<title>llzk::component::MemberReadOpAdaptor</title>
<!-- Node1 -->
<g id="Node000001" class="node">
<title>Node1</title>
<g id="a_Node000001"><a xlink:title=" ">
<polygon fill="#999999" stroke="#666666" points="182.88,-33.5 17.62,-33.5 17.62,0 182.88,0 182.88,-33.5"/>
<text text-anchor="start" x="25.62" y="-20" font-family="Helvetica,sans-Serif" font-size="10.00">llzk::component::MemberRead</text>
<text text-anchor="middle" x="100.25" y="-7.25" font-family="Helvetica,sans-Serif" font-size="10.00">OpAdaptor</text>
</a>
</g>
</g>
<!-- Node2 -->
<g id="Node000002" class="node">
<title>Node2</title>
<g id="a_Node000002"><a xlink:href="classllzk_1_1component_1_1MemberReadOpGenericAdaptor.html" target="_top" xlink:title=" ">
<polygon fill="white" stroke="#666666" points="182.88,-116.75 17.62,-116.75 17.62,-70.5 182.88,-70.5 182.88,-116.75"/>
<text text-anchor="start" x="25.62" y="-103.25" font-family="Helvetica,sans-Serif" font-size="10.00">llzk::component::MemberRead</text>
<text text-anchor="start" x="25.62" y="-90.5" font-family="Helvetica,sans-Serif" font-size="10.00">OpGenericAdaptor&lt;::mlir</text>
<text text-anchor="middle" x="100.25" y="-77.75" font-family="Helvetica,sans-Serif" font-size="10.00">::ValueRange &gt;</text>
</a>
</g>
</g>
<!-- Node2&#45;&gt;Node1 -->
<g id="edge1_Node000001_Node000002" class="edge">
<title>Node2&#45;&gt;Node1</title>
<g id="a_edge1_Node000001_Node000002"><a xlink:title=" ">
<path fill="none" stroke="#63b8ff" d="M100.25,-58.67C100.25,-49.99 100.25,-41.07 100.25,-33.78"/>
<polygon fill="#63b8ff" stroke="#63b8ff" points="96.75,-58.65 100.25,-68.65 103.75,-58.65 96.75,-58.65"/>
</a>
</g>
</g>
<!-- Node3 -->
<g id="Node000003" class="node">
<title>Node3</title>
<g id="a_Node000003"><a xlink:href="classllzk_1_1component_1_1detail_1_1MemberReadOpGenericAdaptorBase.html" target="_top" xlink:title=" ">
<polygon fill="white" stroke="#666666" points="200.5,-187.25 0,-187.25 0,-153.75 200.5,-153.75 200.5,-187.25"/>
<text text-anchor="start" x="8" y="-173.75" font-family="Helvetica,sans-Serif" font-size="10.00">llzk::component::detail</text>
<text text-anchor="middle" x="100.25" y="-161" font-family="Helvetica,sans-Serif" font-size="10.00">::MemberReadOpGenericAdaptorBase</text>
</a>
</g>
</g>
<!-- Node3&#45;&gt;Node2 -->
<g id="edge2_Node000002_Node000003" class="edge">
<title>Node3&#45;&gt;Node2</title>
<g id="a_edge2_Node000002_Node000003"><a xlink:title=" ">
<path fill="none" stroke="#63b8ff" d="M100.25,-141.95C100.25,-133.77 100.25,-124.91 100.25,-117.09"/>
<polygon fill="#63b8ff" stroke="#63b8ff" points="96.75,-141.74 100.25,-151.74 103.75,-141.74 96.75,-141.74"/>
</a>
</g>
</g>
<!-- Node4 -->
<g id="Node000004" class="node">
<title>Node4</title>
<g id="a_Node000004"><a xlink:href="structllzk_1_1component_1_1detail_1_1MemberReadOpGenericAdaptorBase_1_1Properties.html" target="_top" xlink:title=" ">
<polygon fill="white" stroke="#666666" points="188.5,-288.25 12,-288.25 12,-242 188.5,-242 188.5,-288.25"/>
<text text-anchor="start" x="20" y="-274.75" font-family="Helvetica,sans-Serif" font-size="10.00">llzk::component::detail</text>
<text text-anchor="start" x="20" y="-262" font-family="Helvetica,sans-Serif" font-size="10.00">::MemberReadOpGenericAdaptor</text>
<text text-anchor="middle" x="100.25" y="-249.25" font-family="Helvetica,sans-Serif" font-size="10.00">Base::Properties</text>
</a>
</g>
</g>
<!-- Node4&#45;&gt;Node3 -->
<g id="edge3_Node000003_Node000004" class="edge">
<title>Node4&#45;&gt;Node3</title>
<g id="a_edge3_Node000003_Node000004"><a xlink:title=" ">
<path fill="none" stroke="#9a32cd" stroke-dasharray="5,2" d="M100.25,-230.49C100.25,-215.87 100.25,-199.43 100.25,-187.62"/>
<polygon fill="#9a32cd" stroke="#9a32cd" points="96.75,-230.19 100.25,-240.19 103.75,-230.19 96.75,-230.19"/>
</a>
</g>
<text text-anchor="start" x="103.25" y="-211.5" font-family="Helvetica,sans-Serif" font-size="10.00" fill="grey">properties</text>
</g>
</g>
</svg>
