<?xml version="1.0" encoding="UTF-8" standalone="no"?>
<!DOCTYPE svg PUBLIC "-//W3C//DTD SVG 1.1//EN"
 "http://www.w3.org/Graphics/SVG/1.1/DTD/svg11.dtd">
<!-- Generated by graphviz version 12.2.1 (0)
 -->
<!-- Title: llzk::felt::detail::ShlFeltOpGenericAdaptorBase Pages: 1 -->
<svg width="558pt" height="158pt"
 viewBox="0.00 0.00 557.75 157.88" xmlns="http://www.w3.org/2000/svg" xmlns:xlink="http://www.w3.org/1999/xlink">
<g id="graph0" class="graph" transform="scale(1 1) rotate(0) translate(4 153.88)">
<title>llzk::felt::detail::ShlFeltOpGenericAdaptorBase</title>
<!-- Node1 -->
<g id="Node000001" class="node">
<title>Node1</title>
<g id="a_Node000001"><a xlink:title=" ">
<polygon fill="#999999" stroke="#666666" points="168.25,-85.5 0,-85.5 0,-52 168.25,-52 168.25,-85.5"/>
<text text-anchor="start" x="8" y="-72" font-family="Helvetica,sans-Serif" font-size="10.00">llzk::felt::detail</text>
<text text-anchor="middle" x="84.12" y="-59.25" font-family="Helvetica,sans-Serif" font-size="10.00">::ShlFeltOpGenericAdaptorBase</text>
</a>
</g>
</g>
<!-- Node2 -->
<g id="Node000002" class="node">
<title>Node2</title>
<g id="a_Node000002"><a xlink:href="classllzk_1_1felt_1_1ShlFeltOpGenericAdaptor.html" target="_top" xlink:title=" ">
<polygon fill="white" stroke="#666666" points="358.62,-149.88 212.88,-149.88 212.88,-103.62 358.62,-103.62 358.62,-149.88"/>
<text text-anchor="start" x="220.88" y="-136.38" font-family="Helvetica,sans-Serif" font-size="10.00">llzk::felt::ShlFeltOpGeneric</text>
<text text-anchor="start" x="220.88" y="-123.62" font-family="Helvetica,sans-Serif" font-size="10.00">Adaptor&lt;::llvm::ArrayRef</text>
<text text-anchor="middle" x="285.75" y="-110.88" font-family="Helvetica,sans-Serif" font-size="10.00">&lt;::mlir::Attribute &gt; &gt;</text>
</a>
</g>
</g>
<!-- Node1&#45;&gt;Node2 -->
<g id="edge1_Node000001_Node000002" class="edge">
<title>Node1&#45;&gt;Node2</title>
<g id="a_edge1_Node000001_Node000002"><a xlink:title=" ">
<path fill="none" stroke="#63b8ff" d="M155.48,-89.19C173.98,-94.57 193.97,-100.37 212.56,-105.78"/>
<polygon fill="#63b8ff" stroke="#63b8ff" points="156.51,-85.85 145.93,-86.42 154.56,-92.57 156.51,-85.85"/>
</a>
</g>
</g>
<!-- Node3 -->
<g id="Node000003" class="node">
<title>Node3</title>
<g id="a_Node000003"><a xlink:href="classllzk_1_1felt_1_1ShlFeltOpGenericAdaptor.html" target="_top" xlink:title=" ">
<polygon fill="white" stroke="#666666" points="367.25,-85.5 204.25,-85.5 204.25,-52 367.25,-52 367.25,-85.5"/>
<text text-anchor="start" x="212.25" y="-72" font-family="Helvetica,sans-Serif" font-size="10.00">llzk::felt::ShlFeltOpGeneric</text>
<text text-anchor="middle" x="285.75" y="-59.25" font-family="Helvetica,sans-Serif" font-size="10.00">Adaptor&lt;::mlir::ValueRange &gt;</text>
</a>
</g>
</g>
<!-- Node1&#45;&gt;Node3 -->
<g id="edge2_Node000001_Node000003" class="edge">
<title>Node1&#45;&gt;Node3</title>
<g id="a_edge2_Node000001_Node000003"><a xlink:title=" ">
<path fill="none" stroke="#63b8ff" d="M179.89,-68.75C187.89,-68.75 195.94,-68.75 203.82,-68.75"/>
<polygon fill="#63b8ff" stroke="#63b8ff" points="180.14,-65.25 170.14,-68.75 180.14,-72.25 180.14,-65.25"/>
</a>
</g>
</g>
<!-- Node5 -->
<g id="Node000005" class="node">
<title>Node5</title>
<g id="a_Node000005"><a xlink:href="classllzk_1_1felt_1_1ShlFeltOpGenericAdaptor.html" target="_top" xlink:title=" ">
<polygon fill="white" stroke="#666666" points="358.62,-33.5 212.88,-33.5 212.88,0 358.62,0 358.62,-33.5"/>
<text text-anchor="start" x="220.88" y="-20" font-family="Helvetica,sans-Serif" font-size="10.00">llzk::felt::ShlFeltOpGeneric</text>
<text text-anchor="middle" x="285.75" y="-7.25" font-family="Helvetica,sans-Serif" font-size="10.00">Adaptor&lt; RangeT &gt;</text>
</a>
</g>
</g>
<!-- Node1&#45;&gt;Node5 -->
<g id="edge4_Node000001_Node000005" class="edge">
<title>Node1&#45;&gt;Node5</title>
<g id="a_edge4_Node000001_Node000005"><a xlink:title=" ">
<path fill="none" stroke="#63b8ff" d="M162.42,-48.61C181.02,-43.77 200.71,-38.64 218.73,-33.95"/>
<polygon fill="#63b8ff" stroke="#63b8ff" points="161.58,-45.22 152.78,-51.13 163.34,-51.99 161.58,-45.22"/>
</a>
</g>
</g>
<!-- Node4 -->
<g id="Node000004" class="node">
<title>Node4</title>
<g id="a_Node000004"><a xlink:href="classllzk_1_1felt_1_1ShlFeltOpAdaptor.html" target="_top" xlink:title=" ">
<polygon fill="white" stroke="#666666" points="549.75,-79.12 403.25,-79.12 403.25,-58.38 549.75,-58.38 549.75,-79.12"/>
<text text-anchor="middle" x="476.5" y="-65.62" font-family="Helvetica,sans-Serif" font-size="10.00">llzk::felt::ShlFeltOpAdaptor</text>
</a>
</g>
</g>
<!-- Node3&#45;&gt;Node4 -->
<g id="edge3_Node000003_Node000004" class="edge">
<title>Node3&#45;&gt;Node4</title>
<g id="a_edge3_Node000003_Node000004"><a xlink:title=" ">
<path fill="none" stroke="#63b8ff" d="M378.93,-68.75C386.96,-68.75 395.01,-68.75 402.85,-68.75"/>
<polygon fill="#63b8ff" stroke="#63b8ff" points="379.13,-65.25 369.13,-68.75 379.13,-72.25 379.13,-65.25"/>
</a>
</g>
</g>
</g>
</svg>
