<?xml version="1.0" encoding="UTF-8" standalone="no"?>
<!DOCTYPE svg PUBLIC "-//W3C//DTD SVG 1.1//EN"
 "http://www.w3.org/Graphics/SVG/1.1/DTD/svg11.dtd">
<!-- Generated by graphviz version 12.2.1 (0)
 -->
<!-- Title: llvm::cl::parser&lt; llzk::NestedPipelineOptions&lt; PipelineOptionsT &gt; &gt; Pages: 1 -->
<svg width="532pt" height="54pt"
 viewBox="0.00 0.00 531.50 54.25" xmlns="http://www.w3.org/2000/svg" xmlns:xlink="http://www.w3.org/1999/xlink">
<g id="graph0" class="graph" transform="scale(1 1) rotate(0) translate(4 50.25)">
<title>llvm::cl::parser&lt; llzk::NestedPipelineOptions&lt; PipelineOptionsT &gt; &gt;</title>
<!-- Node1 -->
<g id="Node000001" class="node">
<title>Node1</title>
<g id="a_Node000001"><a xlink:title="Parser for textual options that are validated by a constituent MLIR pipeline.">
<polygon fill="#999999" stroke="#666666" points="523.5,-46.25 390.5,-46.25 390.5,0 523.5,0 523.5,-46.25"/>
<text text-anchor="start" x="398.5" y="-32.75" font-family="Helvetica,sans-Serif" font-size="10.00">llvm::cl::parser&lt; llzk</text>
<text text-anchor="start" x="398.5" y="-20" font-family="Helvetica,sans-Serif" font-size="10.00">::NestedPipelineOptions</text>
<text text-anchor="middle" x="457" y="-7.25" font-family="Helvetica,sans-Serif" font-size="10.00">&lt; PipelineOptionsT &gt; &gt;</text>
</a>
</g>
</g>
<!-- Node2 -->
<g id="Node000002" class="node">
<title>Node2</title>
<g id="a_Node000002"><a xlink:href="classllvm_1_1cl_1_1NestedOptionsParserBase.html" target="_top" xlink:title=" ">
<polygon fill="white" stroke="#666666" points="354.5,-46.25 169,-46.25 169,0 354.5,0 354.5,-46.25"/>
<text text-anchor="start" x="177" y="-32.75" font-family="Helvetica,sans-Serif" font-size="10.00">llvm::cl::NestedOptionsParser</text>
<text text-anchor="start" x="177" y="-20" font-family="Helvetica,sans-Serif" font-size="10.00">Base&lt; llzk::NestedPipelineOptions</text>
<text text-anchor="middle" x="261.75" y="-7.25" font-family="Helvetica,sans-Serif" font-size="10.00">&lt; PipelineOptionsT &gt; &gt;</text>
</a>
</g>
</g>
<!-- Node2&#45;&gt;Node1 -->
<g id="edge1_Node000001_Node000002" class="edge">
<title>Node2&#45;&gt;Node1</title>
<g id="a_edge1_Node000001_Node000002"><a xlink:title=" ">
<path fill="none" stroke="#63b8ff" d="M366.34,-23.12C374.46,-23.12 382.51,-23.12 390.26,-23.12"/>
<polygon fill="#63b8ff" stroke="#63b8ff" points="366.36,-19.63 356.36,-23.13 366.36,-26.63 366.36,-19.63"/>
</a>
</g>
</g>
<!-- Node3 -->
<g id="Node000003" class="node">
<title>Node3</title>
<g id="a_Node000003"><a xlink:title=" ">
<polygon fill="white" stroke="#666666" points="133,-46.25 0,-46.25 0,0 133,0 133,-46.25"/>
<text text-anchor="start" x="8" y="-32.75" font-family="Helvetica,sans-Serif" font-size="10.00">basic_parser&lt; llzk</text>
<text text-anchor="start" x="8" y="-20" font-family="Helvetica,sans-Serif" font-size="10.00">::NestedPipelineOptions</text>
<text text-anchor="middle" x="66.5" y="-7.25" font-family="Helvetica,sans-Serif" font-size="10.00">&lt; PipelineOptionsT &gt; &gt;</text>
</a>
</g>
</g>
<!-- Node3&#45;&gt;Node2 -->
<g id="edge2_Node000002_Node000003" class="edge">
<title>Node3&#45;&gt;Node2</title>
<g id="a_edge2_Node000002_Node000003"><a xlink:title=" ">
<path fill="none" stroke="#63b8ff" d="M144.84,-23.12C152.7,-23.12 160.75,-23.12 168.75,-23.12"/>
<polygon fill="#63b8ff" stroke="#63b8ff" points="144.98,-19.63 134.98,-23.13 144.98,-26.63 144.98,-19.63"/>
</a>
</g>
</g>
</g>
</svg>
