<?xml version="1.0" encoding="UTF-8" standalone="no"?>
<!DOCTYPE svg PUBLIC "-//W3C//DTD SVG 1.1//EN"
 "http://www.w3.org/Graphics/SVG/1.1/DTD/svg11.dtd">
<!-- Generated by graphviz version 12.2.1 (0)
 -->
<!-- Title: llzk::polymorphic::ApplyMapOpAdaptor Pages: 1 -->
<svg width="220pt" height="296pt"
 viewBox="0.00 0.00 219.75 296.25" xmlns="http://www.w3.org/2000/svg" xmlns:xlink="http://www.w3.org/1999/xlink">
<g id="graph0" class="graph" transform="scale(1 1) rotate(0) translate(4 292.25)">
<title>llzk::polymorphic::ApplyMapOpAdaptor</title>
<!-- Node1 -->
<g id="Node000001" class="node">
<title>Node1</title>
<g id="a_Node000001"><a xlink:title=" ">
<polygon fill="#999999" stroke="#666666" points="164.12,-33.5 47.62,-33.5 47.62,0 164.12,0 164.12,-33.5"/>
<text text-anchor="start" x="55.62" y="-20" font-family="Helvetica,sans-Serif" font-size="10.00">llzk::polymorphic::</text>
<text text-anchor="middle" x="105.88" y="-7.25" font-family="Helvetica,sans-Serif" font-size="10.00">ApplyMapOpAdaptor</text>
</a>
</g>
</g>
<!-- Node2 -->
<g id="Node000002" class="node">
<title>Node2</title>
<g id="a_Node000002"><a xlink:href="classllzk_1_1polymorphic_1_1ApplyMapOpGenericAdaptor.html" target="_top" xlink:title=" ">
<polygon fill="white" stroke="#666666" points="182.88,-116.75 28.88,-116.75 28.88,-70.5 182.88,-70.5 182.88,-116.75"/>
<text text-anchor="start" x="36.88" y="-103.25" font-family="Helvetica,sans-Serif" font-size="10.00">llzk::polymorphic::</text>
<text text-anchor="start" x="36.88" y="-90.5" font-family="Helvetica,sans-Serif" font-size="10.00">ApplyMapOpGenericAdaptor</text>
<text text-anchor="middle" x="105.88" y="-77.75" font-family="Helvetica,sans-Serif" font-size="10.00">&lt;::mlir::ValueRange &gt;</text>
</a>
</g>
</g>
<!-- Node2&#45;&gt;Node1 -->
<g id="edge1_Node000001_Node000002" class="edge">
<title>Node2&#45;&gt;Node1</title>
<g id="a_edge1_Node000001_Node000002"><a xlink:title=" ">
<path fill="none" stroke="#63b8ff" d="M105.88,-58.67C105.88,-49.99 105.88,-41.07 105.88,-33.78"/>
<polygon fill="#63b8ff" stroke="#63b8ff" points="102.38,-58.65 105.88,-68.65 109.38,-58.65 102.38,-58.65"/>
</a>
</g>
</g>
<!-- Node3 -->
<g id="Node000003" class="node">
<title>Node3</title>
<g id="a_Node000003"><a xlink:href="classllzk_1_1polymorphic_1_1detail_1_1ApplyMapOpGenericAdaptorBase.html" target="_top" xlink:title=" ">
<polygon fill="white" stroke="#666666" points="211.75,-187.25 0,-187.25 0,-153.75 211.75,-153.75 211.75,-187.25"/>
<text text-anchor="start" x="8" y="-173.75" font-family="Helvetica,sans-Serif" font-size="10.00">llzk::polymorphic::</text>
<text text-anchor="middle" x="105.88" y="-161" font-family="Helvetica,sans-Serif" font-size="10.00">detail::ApplyMapOpGenericAdaptorBase</text>
</a>
</g>
</g>
<!-- Node3&#45;&gt;Node2 -->
<g id="edge2_Node000002_Node000003" class="edge">
<title>Node3&#45;&gt;Node2</title>
<g id="a_edge2_Node000002_Node000003"><a xlink:title=" ">
<path fill="none" stroke="#63b8ff" d="M105.88,-141.95C105.88,-133.77 105.88,-124.91 105.88,-117.09"/>
<polygon fill="#63b8ff" stroke="#63b8ff" points="102.38,-141.74 105.88,-151.74 109.38,-141.74 102.38,-141.74"/>
</a>
</g>
</g>
<!-- Node4 -->
<g id="Node000004" class="node">
<title>Node4</title>
<g id="a_Node000004"><a xlink:href="structllzk_1_1polymorphic_1_1detail_1_1ApplyMapOpGenericAdaptorBase_1_1Properties.html" target="_top" xlink:title=" ">
<polygon fill="white" stroke="#666666" points="199.75,-288.25 12,-288.25 12,-242 199.75,-242 199.75,-288.25"/>
<text text-anchor="start" x="20" y="-274.75" font-family="Helvetica,sans-Serif" font-size="10.00">llzk::polymorphic::</text>
<text text-anchor="start" x="20" y="-262" font-family="Helvetica,sans-Serif" font-size="10.00">detail::ApplyMapOpGenericAdaptor</text>
<text text-anchor="middle" x="105.88" y="-249.25" font-family="Helvetica,sans-Serif" font-size="10.00">Base::Properties</text>
</a>
</g>
</g>
<!-- Node4&#45;&gt;Node3 -->
<g id="edge3_Node000003_Node000004" class="edge">
<title>Node4&#45;&gt;Node3</title>
<g id="a_edge3_Node000003_Node000004"><a xlink:title=" ">
<path fill="none" stroke="#9a32cd" stroke-dasharray="5,2" d="M105.88,-230.49C105.88,-215.87 105.88,-199.43 105.88,-187.62"/>
<polygon fill="#9a32cd" stroke="#9a32cd" points="102.38,-230.19 105.88,-240.19 109.38,-230.19 102.38,-230.19"/>
</a>
</g>
<text text-anchor="start" x="108.88" y="-211.5" font-family="Helvetica,sans-Serif" font-size="10.00" fill="grey">properties</text>
</g>
</g>
</svg>
