<?xml version="1.0" encoding="UTF-8" standalone="no"?>
<!DOCTYPE svg PUBLIC "-//W3C//DTD SVG 1.1//EN"
 "http://www.w3.org/Graphics/SVG/1.1/DTD/svg11.dtd">
<!-- Generated by graphviz version 12.2.1 (0)
 -->
<!-- Title: llzk::array::detail::InsertArrayOpGenericAdaptorBase Pages: 1 -->
<svg width="563pt" height="170pt"
 viewBox="0.00 0.00 563.00 169.88" xmlns="http://www.w3.org/2000/svg" xmlns:xlink="http://www.w3.org/1999/xlink">
<g id="graph0" class="graph" transform="scale(1 1) rotate(0) translate(4 165.88)">
<title>llzk::array::detail::InsertArrayOpGenericAdaptorBase</title>
<!-- Node1 -->
<g id="Node000001" class="node">
<title>Node1</title>
<g id="a_Node000001"><a xlink:title=" ">
<polygon fill="#999999" stroke="#666666" points="189.25,-91.5 0,-91.5 0,-58 189.25,-58 189.25,-91.5"/>
<text text-anchor="start" x="8" y="-78" font-family="Helvetica,sans-Serif" font-size="10.00">llzk::array::detail</text>
<text text-anchor="middle" x="94.62" y="-65.25" font-family="Helvetica,sans-Serif" font-size="10.00">::InsertArrayOpGenericAdaptorBase</text>
</a>
</g>
</g>
<!-- Node2 -->
<g id="Node000002" class="node">
<title>Node2</title>
<g id="a_Node000002"><a xlink:href="classllzk_1_1array_1_1InsertArrayOpGenericAdaptor.html" target="_top" xlink:title=" ">
<polygon fill="white" stroke="#666666" points="395,-161.88 225.25,-161.88 225.25,-115.62 395,-115.62 395,-161.88"/>
<text text-anchor="start" x="233.25" y="-148.38" font-family="Helvetica,sans-Serif" font-size="10.00">llzk::array::InsertArray</text>
<text text-anchor="start" x="233.25" y="-135.62" font-family="Helvetica,sans-Serif" font-size="10.00">OpGenericAdaptor&lt;::llvm</text>
<text text-anchor="middle" x="310.12" y="-122.88" font-family="Helvetica,sans-Serif" font-size="10.00">::ArrayRef&lt;::mlir::Attribute &gt; &gt;</text>
</a>
</g>
</g>
<!-- Node1&#45;&gt;Node2 -->
<g id="edge1_Node000001_Node000002" class="edge">
<title>Node1&#45;&gt;Node2</title>
<g id="a_edge1_Node000001_Node000002"><a xlink:title=" ">
<path fill="none" stroke="#63b8ff" d="M163.99,-95.24C185.23,-101.61 208.8,-108.68 230.67,-115.23"/>
<polygon fill="#63b8ff" stroke="#63b8ff" points="165.15,-91.94 154.57,-92.42 163.14,-98.64 165.15,-91.94"/>
</a>
</g>
</g>
<!-- Node3 -->
<g id="Node000003" class="node">
<title>Node3</title>
<g id="a_Node000003"><a xlink:href="classllzk_1_1array_1_1InsertArrayOpGenericAdaptor.html" target="_top" xlink:title=" ">
<polygon fill="white" stroke="#666666" points="379.62,-97.88 240.62,-97.88 240.62,-51.62 379.62,-51.62 379.62,-97.88"/>
<text text-anchor="start" x="248.62" y="-84.38" font-family="Helvetica,sans-Serif" font-size="10.00">llzk::array::InsertArray</text>
<text text-anchor="start" x="248.62" y="-71.62" font-family="Helvetica,sans-Serif" font-size="10.00">OpGenericAdaptor&lt;::mlir</text>
<text text-anchor="middle" x="310.12" y="-58.88" font-family="Helvetica,sans-Serif" font-size="10.00">::ValueRange &gt;</text>
</a>
</g>
</g>
<!-- Node1&#45;&gt;Node3 -->
<g id="edge2_Node000001_Node000003" class="edge">
<title>Node1&#45;&gt;Node3</title>
<g id="a_edge2_Node000001_Node000003"><a xlink:title=" ">
<path fill="none" stroke="#63b8ff" d="M200.78,-74.75C214.15,-74.75 227.56,-74.75 240.15,-74.75"/>
<polygon fill="#63b8ff" stroke="#63b8ff" points="201.09,-71.25 191.09,-74.75 201.09,-78.25 201.09,-71.25"/>
</a>
</g>
</g>
<!-- Node5 -->
<g id="Node000005" class="node">
<title>Node5</title>
<g id="a_Node000005"><a xlink:href="classllzk_1_1array_1_1InsertArrayOpGenericAdaptor.html" target="_top" xlink:title=" ">
<polygon fill="white" stroke="#666666" points="392.38,-33.5 227.88,-33.5 227.88,0 392.38,0 392.38,-33.5"/>
<text text-anchor="start" x="235.88" y="-20" font-family="Helvetica,sans-Serif" font-size="10.00">llzk::array::InsertArray</text>
<text text-anchor="middle" x="310.12" y="-7.25" font-family="Helvetica,sans-Serif" font-size="10.00">OpGenericAdaptor&lt; RangeT &gt;</text>
</a>
</g>
</g>
<!-- Node1&#45;&gt;Node5 -->
<g id="edge4_Node000001_Node000005" class="edge">
<title>Node1&#45;&gt;Node5</title>
<g id="a_edge4_Node000001_Node000005"><a xlink:title=" ">
<path fill="none" stroke="#63b8ff" d="M169.91,-54.57C194.69,-47.84 222.04,-40.41 245.89,-33.93"/>
<polygon fill="#63b8ff" stroke="#63b8ff" points="169.3,-51.11 160.56,-57.11 171.13,-57.86 169.3,-51.11"/>
</a>
</g>
</g>
<!-- Node4 -->
<g id="Node000004" class="node">
<title>Node4</title>
<g id="a_Node000004"><a xlink:href="classllzk_1_1array_1_1InsertArrayOpAdaptor.html" target="_top" xlink:title=" ">
<polygon fill="white" stroke="#666666" points="555,-91.5 431,-91.5 431,-58 555,-58 555,-91.5"/>
<text text-anchor="start" x="439" y="-78" font-family="Helvetica,sans-Serif" font-size="10.00">llzk::array::InsertArray</text>
<text text-anchor="middle" x="493" y="-65.25" font-family="Helvetica,sans-Serif" font-size="10.00">OpAdaptor</text>
</a>
</g>
</g>
<!-- Node3&#45;&gt;Node4 -->
<g id="edge3_Node000003_Node000004" class="edge">
<title>Node3&#45;&gt;Node4</title>
<g id="a_edge3_Node000003_Node000004"><a xlink:title=" ">
<path fill="none" stroke="#63b8ff" d="M391.49,-74.75C404.65,-74.75 418.1,-74.75 430.7,-74.75"/>
<polygon fill="#63b8ff" stroke="#63b8ff" points="391.54,-71.25 381.54,-74.75 391.54,-78.25 391.54,-71.25"/>
</a>
</g>
</g>
</g>
</svg>
