<?xml version="1.0" encoding="UTF-8" standalone="no"?>
<!DOCTYPE svg PUBLIC "-//W3C//DTD SVG 1.1//EN"
 "http://www.w3.org/Graphics/SVG/1.1/DTD/svg11.dtd">
<!-- Generated by graphviz version 12.2.1 (0)
 -->
<!-- Title: llzk::polymorphic::TemplateExprOpAdaptor Pages: 1 -->
<svg width="180pt" height="206pt"
 viewBox="0.00 0.00 180.00 206.00" xmlns="http://www.w3.org/2000/svg" xmlns:xlink="http://www.w3.org/1999/xlink">
<g id="graph0" class="graph" transform="scale(1 1) rotate(0) translate(4 202)">
<title>llzk::polymorphic::TemplateExprOpAdaptor</title>
<!-- Node1 -->
<g id="Node000001" class="node">
<title>Node1</title>
<g id="a_Node000001"><a xlink:title=" ">
<polygon fill="#999999" stroke="#666666" points="153.25,-33.5 18.75,-33.5 18.75,0 153.25,0 153.25,-33.5"/>
<text text-anchor="start" x="26.75" y="-20" font-family="Helvetica,sans-Serif" font-size="10.00">llzk::polymorphic::</text>
<text text-anchor="middle" x="86" y="-7.25" font-family="Helvetica,sans-Serif" font-size="10.00">TemplateExprOpAdaptor</text>
</a>
</g>
</g>
<!-- Node2 -->
<g id="Node000002" class="node">
<title>Node2</title>
<g id="a_Node000002"><a xlink:href="classllzk_1_1polymorphic_1_1TemplateExprOpGenericAdaptor.html" target="_top" xlink:title=" ">
<polygon fill="white" stroke="#666666" points="172,-115.75 0,-115.75 0,-69.5 172,-69.5 172,-115.75"/>
<text text-anchor="start" x="8" y="-102.25" font-family="Helvetica,sans-Serif" font-size="10.00">llzk::polymorphic::</text>
<text text-anchor="start" x="8" y="-89.5" font-family="Helvetica,sans-Serif" font-size="10.00">TemplateExprOpGenericAdaptor</text>
<text text-anchor="middle" x="86" y="-76.75" font-family="Helvetica,sans-Serif" font-size="10.00">&lt;::mlir::ValueRange &gt;</text>
</a>
</g>
</g>
<!-- Node2&#45;&gt;Node1 -->
<g id="edge1_Node000001_Node000002" class="edge">
<title>Node2&#45;&gt;Node1</title>
<g id="a_edge1_Node000001_Node000002"><a xlink:title=" ">
<path fill="none" stroke="#63b8ff" d="M86,-57.64C86,-49.35 86,-40.86 86,-33.85"/>
<polygon fill="#63b8ff" stroke="#63b8ff" points="82.5,-57.55 86,-67.55 89.5,-57.55 82.5,-57.55"/>
</a>
</g>
</g>
<!-- Node3 -->
<g id="Node000003" class="node">
<title>Node3</title>
<g id="a_Node000003"><a xlink:href="classllzk_1_1polymorphic_1_1detail_1_1TemplateExprOpGenericAdaptorBase.html" target="_top" xlink:title=" ">
<polygon fill="white" stroke="#666666" points="169.75,-198 2.25,-198 2.25,-151.75 169.75,-151.75 169.75,-198"/>
<text text-anchor="start" x="10.25" y="-184.5" font-family="Helvetica,sans-Serif" font-size="10.00">llzk::polymorphic::</text>
<text text-anchor="start" x="10.25" y="-171.75" font-family="Helvetica,sans-Serif" font-size="10.00">detail::TemplateExprOpGeneric</text>
<text text-anchor="middle" x="86" y="-159" font-family="Helvetica,sans-Serif" font-size="10.00">AdaptorBase</text>
</a>
</g>
</g>
<!-- Node3&#45;&gt;Node2 -->
<g id="edge2_Node000002_Node000003" class="edge">
<title>Node3&#45;&gt;Node2</title>
<g id="a_edge2_Node000002_Node000003"><a xlink:title=" ">
<path fill="none" stroke="#63b8ff" d="M86,-140.09C86,-132 86,-123.57 86,-116.14"/>
<polygon fill="#63b8ff" stroke="#63b8ff" points="82.5,-140.01 86,-150.01 89.5,-140.01 82.5,-140.01"/>
</a>
</g>
</g>
</g>
</svg>
