<?xml version="1.0" encoding="UTF-8" standalone="no"?>
<!DOCTYPE svg PUBLIC "-//W3C//DTD SVG 1.1//EN"
 "http://www.w3.org/Graphics/SVG/1.1/DTD/svg11.dtd">
<!-- Generated by graphviz version 12.2.1 (0)
 -->
<!-- Title: llzk::felt::InvFeltOpAdaptor Pages: 1 -->
<svg width="176pt" height="168pt"
 viewBox="0.00 0.00 176.25 167.75" xmlns="http://www.w3.org/2000/svg" xmlns:xlink="http://www.w3.org/1999/xlink">
<g id="graph0" class="graph" transform="scale(1 1) rotate(0) translate(4 163.75)">
<title>llzk::felt::InvFeltOpAdaptor</title>
<!-- Node1 -->
<g id="Node000001" class="node">
<title>Node1</title>
<g id="a_Node000001"><a xlink:title=" ">
<polygon fill="#999999" stroke="#666666" points="157.38,-20.75 10.88,-20.75 10.88,0 157.38,0 157.38,-20.75"/>
<text text-anchor="middle" x="84.12" y="-7.25" font-family="Helvetica,sans-Serif" font-size="10.00">llzk::felt::InvFeltOpAdaptor</text>
</a>
</g>
</g>
<!-- Node2 -->
<g id="Node000002" class="node">
<title>Node2</title>
<g id="a_Node000002"><a xlink:href="classllzk_1_1felt_1_1InvFeltOpGenericAdaptor.html" target="_top" xlink:title=" ">
<polygon fill="white" stroke="#666666" points="165.62,-90.25 2.62,-90.25 2.62,-56.75 165.62,-56.75 165.62,-90.25"/>
<text text-anchor="start" x="10.62" y="-76.75" font-family="Helvetica,sans-Serif" font-size="10.00">llzk::felt::InvFeltOpGeneric</text>
<text text-anchor="middle" x="84.12" y="-64" font-family="Helvetica,sans-Serif" font-size="10.00">Adaptor&lt;::mlir::ValueRange &gt;</text>
</a>
</g>
</g>
<!-- Node2&#45;&gt;Node1 -->
<g id="edge1_Node000001_Node000002" class="edge">
<title>Node2&#45;&gt;Node1</title>
<g id="a_edge1_Node000001_Node000002"><a xlink:title=" ">
<path fill="none" stroke="#63b8ff" d="M84.12,-44.94C84.12,-36.46 84.12,-27.67 84.12,-21.22"/>
<polygon fill="#63b8ff" stroke="#63b8ff" points="80.63,-44.93 84.13,-54.93 87.63,-44.93 80.63,-44.93"/>
</a>
</g>
</g>
<!-- Node3 -->
<g id="Node000003" class="node">
<title>Node3</title>
<g id="a_Node000003"><a xlink:href="classllzk_1_1felt_1_1detail_1_1InvFeltOpGenericAdaptorBase.html" target="_top" xlink:title=" ">
<polygon fill="white" stroke="#666666" points="168.25,-159.75 0,-159.75 0,-126.25 168.25,-126.25 168.25,-159.75"/>
<text text-anchor="start" x="8" y="-146.25" font-family="Helvetica,sans-Serif" font-size="10.00">llzk::felt::detail</text>
<text text-anchor="middle" x="84.12" y="-133.5" font-family="Helvetica,sans-Serif" font-size="10.00">::InvFeltOpGenericAdaptorBase</text>
</a>
</g>
</g>
<!-- Node3&#45;&gt;Node2 -->
<g id="edge2_Node000002_Node000003" class="edge">
<title>Node3&#45;&gt;Node2</title>
<g id="a_edge2_Node000002_Node000003"><a xlink:title=" ">
<path fill="none" stroke="#63b8ff" d="M84.12,-114.56C84.12,-106.34 84.12,-97.59 84.12,-90.38"/>
<polygon fill="#63b8ff" stroke="#63b8ff" points="80.63,-114.49 84.13,-124.49 87.63,-114.49 80.63,-114.49"/>
</a>
</g>
</g>
</g>
</svg>
