<?xml version="1.0" encoding="UTF-8" standalone="no"?>
<!DOCTYPE svg PUBLIC "-//W3C//DTD SVG 1.1//EN"
 "http://www.w3.org/Graphics/SVG/1.1/DTD/svg11.dtd">
<!-- Generated by graphviz version 12.2.1 (0)
 -->
<!-- Title: llzk::verif::detail::InvariantOpGenericAdaptorBase Pages: 1 -->
<svg width="553pt" height="170pt"
 viewBox="0.00 0.00 552.50 169.88" xmlns="http://www.w3.org/2000/svg" xmlns:xlink="http://www.w3.org/1999/xlink">
<g id="graph0" class="graph" transform="scale(1 1) rotate(0) translate(4 165.88)">
<title>llzk::verif::detail::InvariantOpGenericAdaptorBase</title>
<!-- Node1 -->
<g id="Node000001" class="node">
<title>Node1</title>
<g id="a_Node000001"><a xlink:title=" ">
<polygon fill="#999999" stroke="#666666" points="178.75,-91.5 0,-91.5 0,-58 178.75,-58 178.75,-91.5"/>
<text text-anchor="start" x="8" y="-78" font-family="Helvetica,sans-Serif" font-size="10.00">llzk::verif::detail</text>
<text text-anchor="middle" x="89.38" y="-65.25" font-family="Helvetica,sans-Serif" font-size="10.00">::InvariantOpGenericAdaptorBase</text>
</a>
</g>
</g>
<!-- Node2 -->
<g id="Node000002" class="node">
<title>Node2</title>
<g id="a_Node000002"><a xlink:href="classllzk_1_1verif_1_1InvariantOpGenericAdaptor.html" target="_top" xlink:title=" ">
<polygon fill="white" stroke="#666666" points="384.5,-161.88 214.75,-161.88 214.75,-115.62 384.5,-115.62 384.5,-161.88"/>
<text text-anchor="start" x="222.75" y="-148.38" font-family="Helvetica,sans-Serif" font-size="10.00">llzk::verif::InvariantOp</text>
<text text-anchor="start" x="222.75" y="-135.62" font-family="Helvetica,sans-Serif" font-size="10.00">GenericAdaptor&lt;::llvm</text>
<text text-anchor="middle" x="299.62" y="-122.88" font-family="Helvetica,sans-Serif" font-size="10.00">::ArrayRef&lt;::mlir::Attribute &gt; &gt;</text>
</a>
</g>
</g>
<!-- Node1&#45;&gt;Node2 -->
<g id="edge1_Node000001_Node000002" class="edge">
<title>Node1&#45;&gt;Node2</title>
<g id="a_edge1_Node000001_Node000002"><a xlink:title=" ">
<path fill="none" stroke="#63b8ff" d="M157.34,-95.33C177.98,-101.67 200.87,-108.71 222.1,-115.23"/>
<polygon fill="#63b8ff" stroke="#63b8ff" points="158.49,-92.02 147.9,-92.43 156.43,-98.71 158.49,-92.02"/>
</a>
</g>
</g>
<!-- Node3 -->
<g id="Node000003" class="node">
<title>Node3</title>
<g id="a_Node000003"><a xlink:href="classllzk_1_1verif_1_1InvariantOpGenericAdaptor.html" target="_top" xlink:title=" ">
<polygon fill="white" stroke="#666666" points="362.38,-97.88 236.88,-97.88 236.88,-51.62 362.38,-51.62 362.38,-97.88"/>
<text text-anchor="start" x="244.88" y="-84.38" font-family="Helvetica,sans-Serif" font-size="10.00">llzk::verif::InvariantOp</text>
<text text-anchor="start" x="244.88" y="-71.62" font-family="Helvetica,sans-Serif" font-size="10.00">GenericAdaptor&lt;::mlir</text>
<text text-anchor="middle" x="299.62" y="-58.88" font-family="Helvetica,sans-Serif" font-size="10.00">::ValueRange &gt;</text>
</a>
</g>
</g>
<!-- Node1&#45;&gt;Node3 -->
<g id="edge2_Node000001_Node000003" class="edge">
<title>Node1&#45;&gt;Node3</title>
<g id="a_edge2_Node000001_Node000003"><a xlink:title=" ">
<path fill="none" stroke="#63b8ff" d="M190.41,-74.75C206.14,-74.75 222,-74.75 236.55,-74.75"/>
<polygon fill="#63b8ff" stroke="#63b8ff" points="190.51,-71.25 180.51,-74.75 190.51,-78.25 190.51,-71.25"/>
</a>
</g>
</g>
<!-- Node5 -->
<g id="Node000005" class="node">
<title>Node5</title>
<g id="a_Node000005"><a xlink:href="classllzk_1_1verif_1_1InvariantOpGenericAdaptor.html" target="_top" xlink:title=" ">
<polygon fill="white" stroke="#666666" points="375.12,-33.5 224.12,-33.5 224.12,0 375.12,0 375.12,-33.5"/>
<text text-anchor="start" x="232.12" y="-20" font-family="Helvetica,sans-Serif" font-size="10.00">llzk::verif::InvariantOp</text>
<text text-anchor="middle" x="299.62" y="-7.25" font-family="Helvetica,sans-Serif" font-size="10.00">GenericAdaptor&lt; RangeT &gt;</text>
</a>
</g>
</g>
<!-- Node1&#45;&gt;Node5 -->
<g id="edge4_Node000001_Node000005" class="edge">
<title>Node1&#45;&gt;Node5</title>
<g id="a_edge4_Node000001_Node000005"><a xlink:title=" ">
<path fill="none" stroke="#63b8ff" d="M163.16,-54.48C187.24,-47.77 213.78,-40.38 236.95,-33.93"/>
<polygon fill="#63b8ff" stroke="#63b8ff" points="162.45,-51.04 153.75,-57.1 164.32,-57.79 162.45,-51.04"/>
</a>
</g>
</g>
<!-- Node4 -->
<g id="Node000004" class="node">
<title>Node4</title>
<g id="a_Node000004"><a xlink:href="classllzk_1_1verif_1_1InvariantOpAdaptor.html" target="_top" xlink:title=" ">
<polygon fill="white" stroke="#666666" points="544.5,-91.5 420.5,-91.5 420.5,-58 544.5,-58 544.5,-91.5"/>
<text text-anchor="start" x="428.5" y="-78" font-family="Helvetica,sans-Serif" font-size="10.00">llzk::verif::InvariantOp</text>
<text text-anchor="middle" x="482.5" y="-65.25" font-family="Helvetica,sans-Serif" font-size="10.00">Adaptor</text>
</a>
</g>
</g>
<!-- Node3&#45;&gt;Node4 -->
<g id="edge3_Node000003_Node000004" class="edge">
<title>Node3&#45;&gt;Node4</title>
<g id="a_edge3_Node000003_Node000004"><a xlink:title=" ">
<path fill="none" stroke="#63b8ff" d="M374.33,-74.75C389.52,-74.75 405.36,-74.75 420.06,-74.75"/>
<polygon fill="#63b8ff" stroke="#63b8ff" points="374.39,-71.25 364.39,-74.75 374.39,-78.25 374.39,-71.25"/>
</a>
</g>
</g>
</g>
</svg>
