<?xml version="1.0" encoding="UTF-8" standalone="no"?>
<!DOCTYPE svg PUBLIC "-//W3C//DTD SVG 1.1//EN"
 "http://www.w3.org/Graphics/SVG/1.1/DTD/svg11.dtd">
<!-- Generated by graphviz version 12.2.1 (0)
 -->
<!-- Title: llzk::felt::detail::NegFeltOpGenericAdaptorBase Pages: 1 -->
<svg width="567pt" height="158pt"
 viewBox="0.00 0.00 566.75 157.88" xmlns="http://www.w3.org/2000/svg" xmlns:xlink="http://www.w3.org/1999/xlink">
<g id="graph0" class="graph" transform="scale(1 1) rotate(0) translate(4 153.88)">
<title>llzk::felt::detail::NegFeltOpGenericAdaptorBase</title>
<!-- Node1 -->
<g id="Node000001" class="node">
<title>Node1</title>
<g id="a_Node000001"><a xlink:title=" ">
<polygon fill="#999999" stroke="#666666" points="172.75,-85.5 0,-85.5 0,-52 172.75,-52 172.75,-85.5"/>
<text text-anchor="start" x="8" y="-72" font-family="Helvetica,sans-Serif" font-size="10.00">llzk::felt::detail</text>
<text text-anchor="middle" x="86.38" y="-59.25" font-family="Helvetica,sans-Serif" font-size="10.00">::NegFeltOpGenericAdaptorBase</text>
</a>
</g>
</g>
<!-- Node2 -->
<g id="Node000002" class="node">
<title>Node2</title>
<g id="a_Node000002"><a xlink:href="classllzk_1_1felt_1_1NegFeltOpGenericAdaptor.html" target="_top" xlink:title=" ">
<polygon fill="white" stroke="#666666" points="365.38,-149.88 215.12,-149.88 215.12,-103.62 365.38,-103.62 365.38,-149.88"/>
<text text-anchor="start" x="223.12" y="-136.38" font-family="Helvetica,sans-Serif" font-size="10.00">llzk::felt::NegFeltOpGeneric</text>
<text text-anchor="start" x="223.12" y="-123.62" font-family="Helvetica,sans-Serif" font-size="10.00">Adaptor&lt;::llvm::ArrayRef</text>
<text text-anchor="middle" x="290.25" y="-110.88" font-family="Helvetica,sans-Serif" font-size="10.00">&lt;::mlir::Attribute &gt; &gt;</text>
</a>
</g>
</g>
<!-- Node1&#45;&gt;Node2 -->
<g id="edge1_Node000001_Node000002" class="edge">
<title>Node1&#45;&gt;Node2</title>
<g id="a_edge1_Node000001_Node000002"><a xlink:title=" ">
<path fill="none" stroke="#63b8ff" d="M158.28,-89.12C176.57,-94.38 196.32,-100.05 214.79,-105.36"/>
<polygon fill="#63b8ff" stroke="#63b8ff" points="159.43,-85.81 148.85,-86.41 157.5,-92.54 159.43,-85.81"/>
</a>
</g>
</g>
<!-- Node3 -->
<g id="Node000003" class="node">
<title>Node3</title>
<g id="a_Node000003"><a xlink:href="classllzk_1_1felt_1_1NegFeltOpGenericAdaptor.html" target="_top" xlink:title=" ">
<polygon fill="white" stroke="#666666" points="371.75,-85.5 208.75,-85.5 208.75,-52 371.75,-52 371.75,-85.5"/>
<text text-anchor="start" x="216.75" y="-72" font-family="Helvetica,sans-Serif" font-size="10.00">llzk::felt::NegFeltOpGeneric</text>
<text text-anchor="middle" x="290.25" y="-59.25" font-family="Helvetica,sans-Serif" font-size="10.00">Adaptor&lt;::mlir::ValueRange &gt;</text>
</a>
</g>
</g>
<!-- Node1&#45;&gt;Node3 -->
<g id="edge2_Node000001_Node000003" class="edge">
<title>Node1&#45;&gt;Node3</title>
<g id="a_edge2_Node000001_Node000003"><a xlink:title=" ">
<path fill="none" stroke="#63b8ff" d="M184.31,-68.75C192.35,-68.75 200.42,-68.75 208.32,-68.75"/>
<polygon fill="#63b8ff" stroke="#63b8ff" points="184.5,-65.25 174.5,-68.75 184.5,-72.25 184.5,-65.25"/>
</a>
</g>
</g>
<!-- Node5 -->
<g id="Node000005" class="node">
<title>Node5</title>
<g id="a_Node000005"><a xlink:href="classllzk_1_1felt_1_1NegFeltOpGenericAdaptor.html" target="_top" xlink:title=" ">
<polygon fill="white" stroke="#666666" points="365.38,-33.5 215.12,-33.5 215.12,0 365.38,0 365.38,-33.5"/>
<text text-anchor="start" x="223.12" y="-20" font-family="Helvetica,sans-Serif" font-size="10.00">llzk::felt::NegFeltOpGeneric</text>
<text text-anchor="middle" x="290.25" y="-7.25" font-family="Helvetica,sans-Serif" font-size="10.00">Adaptor&lt; RangeT &gt;</text>
</a>
</g>
</g>
<!-- Node1&#45;&gt;Node5 -->
<g id="edge4_Node000001_Node000005" class="edge">
<title>Node1&#45;&gt;Node5</title>
<g id="a_edge4_Node000001_Node000005"><a xlink:title=" ">
<path fill="none" stroke="#63b8ff" d="M165.28,-48.68C184.16,-43.82 204.18,-38.66 222.49,-33.95"/>
<polygon fill="#63b8ff" stroke="#63b8ff" points="164.59,-45.25 155.78,-51.13 166.34,-52.02 164.59,-45.25"/>
</a>
</g>
</g>
<!-- Node4 -->
<g id="Node000004" class="node">
<title>Node4</title>
<g id="a_Node000004"><a xlink:href="classllzk_1_1felt_1_1NegFeltOpAdaptor.html" target="_top" xlink:title=" ">
<polygon fill="white" stroke="#666666" points="558.75,-79.12 407.75,-79.12 407.75,-58.38 558.75,-58.38 558.75,-79.12"/>
<text text-anchor="middle" x="483.25" y="-65.62" font-family="Helvetica,sans-Serif" font-size="10.00">llzk::felt::NegFeltOpAdaptor</text>
</a>
</g>
</g>
<!-- Node3&#45;&gt;Node4 -->
<g id="edge3_Node000003_Node000004" class="edge">
<title>Node3&#45;&gt;Node4</title>
<g id="a_edge3_Node000003_Node000004"><a xlink:title=" ">
<path fill="none" stroke="#63b8ff" d="M383.3,-68.75C391.33,-68.75 399.41,-68.75 407.28,-68.75"/>
<polygon fill="#63b8ff" stroke="#63b8ff" points="383.49,-65.25 373.49,-68.75 383.49,-72.25 383.49,-65.25"/>
</a>
</g>
</g>
</g>
</svg>
