<?xml version="1.0" encoding="UTF-8" standalone="no"?>
<!DOCTYPE svg PUBLIC "-//W3C//DTD SVG 1.1//EN"
 "http://www.w3.org/Graphics/SVG/1.1/DTD/svg11.dtd">
<!-- Generated by graphviz version 12.2.1 (0)
 -->
<!-- Title: llzk::CallGraphSCCsPrinterPass Pages: 1 -->
<svg width="186pt" height="181pt"
 viewBox="0.00 0.00 186.00 180.50" xmlns="http://www.w3.org/2000/svg" xmlns:xlink="http://www.w3.org/1999/xlink">
<g id="graph0" class="graph" transform="scale(1 1) rotate(0) translate(4 176.5)">
<title>llzk::CallGraphSCCsPrinterPass</title>
<!-- Node1 -->
<g id="Node000001" class="node">
<title>Node1</title>
<g id="a_Node000001"><a xlink:title=" ">
<polygon fill="#999999" stroke="#666666" points="172,-20.75 6,-20.75 6,0 172,0 172,-20.75"/>
<text text-anchor="middle" x="89" y="-7.25" font-family="Helvetica,sans-Serif" font-size="10.00">llzk::CallGraphSCCsPrinterPass</text>
</a>
</g>
</g>
<!-- Node2 -->
<g id="Node000002" class="node">
<title>Node2</title>
<g id="a_Node000002"><a xlink:href="classllzk_1_1impl_1_1CallGraphSCCsPrinterPassBase.html" target="_top" xlink:title=" ">
<polygon fill="white" stroke="#666666" points="178,-103 0,-103 0,-56.75 178,-56.75 178,-103"/>
<text text-anchor="start" x="8" y="-89.5" font-family="Helvetica,sans-Serif" font-size="10.00">llzk::impl::CallGraphSCCs</text>
<text text-anchor="start" x="8" y="-76.75" font-family="Helvetica,sans-Serif" font-size="10.00">PrinterPassBase&lt; CallGraphSCCs</text>
<text text-anchor="middle" x="89" y="-64" font-family="Helvetica,sans-Serif" font-size="10.00">PrinterPass &gt;</text>
</a>
</g>
</g>
<!-- Node2&#45;&gt;Node1 -->
<g id="edge1_Node000001_Node000002" class="edge">
<title>Node2&#45;&gt;Node1</title>
<g id="a_edge1_Node000001_Node000002"><a xlink:title=" ">
<path fill="none" stroke="#63b8ff" d="M89,-45.07C89,-36.3 89,-27.53 89,-21.14"/>
<polygon fill="#63b8ff" stroke="#63b8ff" points="85.5,-44.88 89,-54.88 92.5,-44.88 85.5,-44.88"/>
</a>
</g>
</g>
<!-- Node3 -->
<g id="Node000003" class="node">
<title>Node3</title>
<g id="a_Node000003"><a xlink:title=" ">
<polygon fill="white" stroke="#666666" points="147.25,-172.5 30.75,-172.5 30.75,-139 147.25,-139 147.25,-172.5"/>
<text text-anchor="start" x="38.75" y="-159" font-family="Helvetica,sans-Serif" font-size="10.00">mlir::OperationPass</text>
<text text-anchor="middle" x="89" y="-146.25" font-family="Helvetica,sans-Serif" font-size="10.00">&lt;::mlir::ModuleOp &gt;</text>
</a>
</g>
</g>
<!-- Node3&#45;&gt;Node2 -->
<g id="edge2_Node000002_Node000003" class="edge">
<title>Node3&#45;&gt;Node2</title>
<g id="a_edge2_Node000002_Node000003"><a xlink:title=" ">
<path fill="none" stroke="#63b8ff" d="M89,-127.39C89,-119.46 89,-110.91 89,-103.32"/>
<polygon fill="#63b8ff" stroke="#63b8ff" points="85.5,-127.21 89,-137.21 92.5,-127.21 85.5,-127.21"/>
</a>
</g>
</g>
</g>
</svg>
