<?xml version="1.0" encoding="UTF-8" standalone="no"?>
<!DOCTYPE svg PUBLIC "-//W3C//DTD SVG 1.1//EN"
 "http://www.w3.org/Graphics/SVG/1.1/DTD/svg11.dtd">
<!-- Generated by graphviz version 12.2.1 (0)
 -->
<!-- Title: llzk::component::MemberWriteOpAdaptor Pages: 1 -->
<svg width="210pt" height="193pt"
 viewBox="0.00 0.00 210.00 193.25" xmlns="http://www.w3.org/2000/svg" xmlns:xlink="http://www.w3.org/1999/xlink">
<g id="graph0" class="graph" transform="scale(1 1) rotate(0) translate(4 189.25)">
<title>llzk::component::MemberWriteOpAdaptor</title>
<!-- Node1 -->
<g id="Node000001" class="node">
<title>Node1</title>
<g id="a_Node000001"><a xlink:title=" ">
<polygon fill="#999999" stroke="#666666" points="184.38,-33.5 17.62,-33.5 17.62,0 184.38,0 184.38,-33.5"/>
<text text-anchor="start" x="25.62" y="-20" font-family="Helvetica,sans-Serif" font-size="10.00">llzk::component::MemberWrite</text>
<text text-anchor="middle" x="101" y="-7.25" font-family="Helvetica,sans-Serif" font-size="10.00">OpAdaptor</text>
</a>
</g>
</g>
<!-- Node2 -->
<g id="Node000002" class="node">
<title>Node2</title>
<g id="a_Node000002"><a xlink:href="classllzk_1_1component_1_1MemberWriteOpGenericAdaptor.html" target="_top" xlink:title=" ">
<polygon fill="white" stroke="#666666" points="184.38,-115.75 17.62,-115.75 17.62,-69.5 184.38,-69.5 184.38,-115.75"/>
<text text-anchor="start" x="25.62" y="-102.25" font-family="Helvetica,sans-Serif" font-size="10.00">llzk::component::MemberWrite</text>
<text text-anchor="start" x="25.62" y="-89.5" font-family="Helvetica,sans-Serif" font-size="10.00">OpGenericAdaptor&lt;::mlir</text>
<text text-anchor="middle" x="101" y="-76.75" font-family="Helvetica,sans-Serif" font-size="10.00">::ValueRange &gt;</text>
</a>
</g>
</g>
<!-- Node2&#45;&gt;Node1 -->
<g id="edge1_Node000001_Node000002" class="edge">
<title>Node2&#45;&gt;Node1</title>
<g id="a_edge1_Node000001_Node000002"><a xlink:title=" ">
<path fill="none" stroke="#63b8ff" d="M101,-57.64C101,-49.35 101,-40.86 101,-33.85"/>
<polygon fill="#63b8ff" stroke="#63b8ff" points="97.5,-57.55 101,-67.55 104.5,-57.55 97.5,-57.55"/>
</a>
</g>
</g>
<!-- Node3 -->
<g id="Node000003" class="node">
<title>Node3</title>
<g id="a_Node000003"><a xlink:href="classllzk_1_1component_1_1detail_1_1MemberWriteOpGenericAdaptorBase.html" target="_top" xlink:title=" ">
<polygon fill="white" stroke="#666666" points="202,-185.25 0,-185.25 0,-151.75 202,-151.75 202,-185.25"/>
<text text-anchor="start" x="8" y="-171.75" font-family="Helvetica,sans-Serif" font-size="10.00">llzk::component::detail</text>
<text text-anchor="middle" x="101" y="-159" font-family="Helvetica,sans-Serif" font-size="10.00">::MemberWriteOpGenericAdaptorBase</text>
</a>
</g>
</g>
<!-- Node3&#45;&gt;Node2 -->
<g id="edge2_Node000002_Node000003" class="edge">
<title>Node3&#45;&gt;Node2</title>
<g id="a_edge2_Node000002_Node000003"><a xlink:title=" ">
<path fill="none" stroke="#63b8ff" d="M101,-140.14C101,-132.21 101,-123.66 101,-116.07"/>
<polygon fill="#63b8ff" stroke="#63b8ff" points="97.5,-139.96 101,-149.96 104.5,-139.96 97.5,-139.96"/>
</a>
</g>
</g>
</g>
</svg>
