<?xml version="1.0" encoding="UTF-8" standalone="no"?>
<!DOCTYPE svg PUBLIC "-//W3C//DTD SVG 1.1//EN"
 "http://www.w3.org/Graphics/SVG/1.1/DTD/svg11.dtd">
<!-- Generated by graphviz version 12.2.1 (0)
 -->
<!-- Title: llzk::verif::detail::EnsureConstrainOpGenericAdaptorBase Pages: 1 -->
<svg width="549pt" height="170pt"
 viewBox="0.00 0.00 548.75 169.88" xmlns="http://www.w3.org/2000/svg" xmlns:xlink="http://www.w3.org/1999/xlink">
<g id="graph0" class="graph" transform="scale(1 1) rotate(0) translate(4 165.88)">
<title>llzk::verif::detail::EnsureConstrainOpGenericAdaptorBase</title>
<!-- Node1 -->
<g id="Node000001" class="node">
<title>Node1</title>
<g id="a_Node000001"><a xlink:title=" ">
<polygon fill="#999999" stroke="#666666" points="152.5,-97.88 0,-97.88 0,-51.62 152.5,-51.62 152.5,-97.88"/>
<text text-anchor="start" x="8" y="-84.38" font-family="Helvetica,sans-Serif" font-size="10.00">llzk::verif::detail</text>
<text text-anchor="start" x="8" y="-71.62" font-family="Helvetica,sans-Serif" font-size="10.00">::EnsureConstrainOpGeneric</text>
<text text-anchor="middle" x="76.25" y="-58.88" font-family="Helvetica,sans-Serif" font-size="10.00">AdaptorBase</text>
</a>
</g>
</g>
<!-- Node2 -->
<g id="Node000002" class="node">
<title>Node2</title>
<g id="a_Node000002"><a xlink:href="classllzk_1_1verif_1_1EnsureConstrainOpGenericAdaptor.html" target="_top" xlink:title=" ">
<polygon fill="white" stroke="#666666" points="358.25,-161.88 188.5,-161.88 188.5,-115.62 358.25,-115.62 358.25,-161.88"/>
<text text-anchor="start" x="196.5" y="-148.38" font-family="Helvetica,sans-Serif" font-size="10.00">llzk::verif::EnsureConstrain</text>
<text text-anchor="start" x="196.5" y="-135.62" font-family="Helvetica,sans-Serif" font-size="10.00">OpGenericAdaptor&lt;::llvm</text>
<text text-anchor="middle" x="273.38" y="-122.88" font-family="Helvetica,sans-Serif" font-size="10.00">::ArrayRef&lt;::mlir::Attribute &gt; &gt;</text>
</a>
</g>
</g>
<!-- Node1&#45;&gt;Node2 -->
<g id="edge1_Node000001_Node000002" class="edge">
<title>Node1&#45;&gt;Node2</title>
<g id="a_edge1_Node000001_Node000002"><a xlink:title=" ">
<path fill="none" stroke="#63b8ff" d="M159.79,-101.82C173.28,-106.25 187.16,-110.8 200.37,-115.13"/>
<polygon fill="#63b8ff" stroke="#63b8ff" points="161.11,-98.57 150.51,-98.78 158.93,-105.22 161.11,-98.57"/>
</a>
</g>
</g>
<!-- Node3 -->
<g id="Node000003" class="node">
<title>Node3</title>
<g id="a_Node000003"><a xlink:href="classllzk_1_1verif_1_1EnsureConstrainOpGenericAdaptor.html" target="_top" xlink:title=" ">
<polygon fill="white" stroke="#666666" points="346.62,-97.88 200.12,-97.88 200.12,-51.62 346.62,-51.62 346.62,-97.88"/>
<text text-anchor="start" x="208.12" y="-84.38" font-family="Helvetica,sans-Serif" font-size="10.00">llzk::verif::EnsureConstrain</text>
<text text-anchor="start" x="208.12" y="-71.62" font-family="Helvetica,sans-Serif" font-size="10.00">OpGenericAdaptor&lt;::mlir</text>
<text text-anchor="middle" x="273.38" y="-58.88" font-family="Helvetica,sans-Serif" font-size="10.00">::ValueRange &gt;</text>
</a>
</g>
</g>
<!-- Node1&#45;&gt;Node3 -->
<g id="edge2_Node000001_Node000003" class="edge">
<title>Node1&#45;&gt;Node3</title>
<g id="a_edge2_Node000001_Node000003"><a xlink:title=" ">
<path fill="none" stroke="#63b8ff" d="M164.29,-74.75C176.19,-74.75 188.3,-74.75 199.9,-74.75"/>
<polygon fill="#63b8ff" stroke="#63b8ff" points="164.48,-71.25 154.48,-74.75 164.48,-78.25 164.48,-71.25"/>
</a>
</g>
</g>
<!-- Node5 -->
<g id="Node000005" class="node">
<title>Node5</title>
<g id="a_Node000005"><a xlink:href="classllzk_1_1verif_1_1EnsureConstrainOpGenericAdaptor.html" target="_top" xlink:title=" ">
<polygon fill="white" stroke="#666666" points="355.62,-33.5 191.12,-33.5 191.12,0 355.62,0 355.62,-33.5"/>
<text text-anchor="start" x="199.12" y="-20" font-family="Helvetica,sans-Serif" font-size="10.00">llzk::verif::EnsureConstrain</text>
<text text-anchor="middle" x="273.38" y="-7.25" font-family="Helvetica,sans-Serif" font-size="10.00">OpGenericAdaptor&lt; RangeT &gt;</text>
</a>
</g>
</g>
<!-- Node1&#45;&gt;Node5 -->
<g id="edge4_Node000001_Node000005" class="edge">
<title>Node1&#45;&gt;Node5</title>
<g id="a_edge4_Node000001_Node000005"><a xlink:title=" ">
<path fill="none" stroke="#63b8ff" d="M163.62,-49.08C180.85,-43.95 198.56,-38.69 214.55,-33.94"/>
<polygon fill="#63b8ff" stroke="#63b8ff" points="163.01,-45.61 154.42,-51.81 165,-52.32 163.01,-45.61"/>
</a>
</g>
</g>
<!-- Node4 -->
<g id="Node000004" class="node">
<title>Node4</title>
<g id="a_Node000004"><a xlink:href="classllzk_1_1verif_1_1EnsureConstrainOpAdaptor.html" target="_top" xlink:title=" ">
<polygon fill="white" stroke="#666666" points="540.75,-91.5 394.25,-91.5 394.25,-58 540.75,-58 540.75,-91.5"/>
<text text-anchor="start" x="402.25" y="-78" font-family="Helvetica,sans-Serif" font-size="10.00">llzk::verif::EnsureConstrain</text>
<text text-anchor="middle" x="467.5" y="-65.25" font-family="Helvetica,sans-Serif" font-size="10.00">OpAdaptor</text>
</a>
</g>
</g>
<!-- Node3&#45;&gt;Node4 -->
<g id="edge3_Node000003_Node000004" class="edge">
<title>Node3&#45;&gt;Node4</title>
<g id="a_edge3_Node000003_Node000004"><a xlink:title=" ">
<path fill="none" stroke="#63b8ff" d="M358.25,-74.75C370.08,-74.75 382.16,-74.75 393.76,-74.75"/>
<polygon fill="#63b8ff" stroke="#63b8ff" points="358.52,-71.25 348.52,-74.75 358.52,-78.25 358.52,-71.25"/>
</a>
</g>
</g>
</g>
</svg>
