<?xml version="1.0" encoding="UTF-8" standalone="no"?>
<!DOCTYPE svg PUBLIC "-//W3C//DTD SVG 1.1//EN"
 "http://www.w3.org/Graphics/SVG/1.1/DTD/svg11.dtd">
<!-- Generated by graphviz version 12.2.1 (0)
 -->
<!-- Title: llzk::smt::OrOpAdaptor Pages: 1 -->
<svg width="173pt" height="168pt"
 viewBox="0.00 0.00 172.50 167.75" xmlns="http://www.w3.org/2000/svg" xmlns:xlink="http://www.w3.org/1999/xlink">
<g id="graph0" class="graph" transform="scale(1 1) rotate(0) translate(4 163.75)">
<title>llzk::smt::OrOpAdaptor</title>
<!-- Node1 -->
<g id="Node000001" class="node">
<title>Node1</title>
<g id="a_Node000001"><a xlink:title=" ">
<polygon fill="#999999" stroke="#666666" points="145.75,-20.75 18.75,-20.75 18.75,0 145.75,0 145.75,-20.75"/>
<text text-anchor="middle" x="82.25" y="-7.25" font-family="Helvetica,sans-Serif" font-size="10.00">llzk::smt::OrOpAdaptor</text>
</a>
</g>
</g>
<!-- Node2 -->
<g id="Node000002" class="node">
<title>Node2</title>
<g id="a_Node000002"><a xlink:href="classllzk_1_1smt_1_1OrOpGenericAdaptor.html" target="_top" xlink:title=" ">
<polygon fill="white" stroke="#666666" points="164.5,-90.25 0,-90.25 0,-56.75 164.5,-56.75 164.5,-90.25"/>
<text text-anchor="start" x="8" y="-76.75" font-family="Helvetica,sans-Serif" font-size="10.00">llzk::smt::OrOpGenericAdaptor</text>
<text text-anchor="middle" x="82.25" y="-64" font-family="Helvetica,sans-Serif" font-size="10.00">&lt;::mlir::ValueRange &gt;</text>
</a>
</g>
</g>
<!-- Node2&#45;&gt;Node1 -->
<g id="edge1_Node000001_Node000002" class="edge">
<title>Node2&#45;&gt;Node1</title>
<g id="a_edge1_Node000001_Node000002"><a xlink:title=" ">
<path fill="none" stroke="#63b8ff" d="M82.25,-44.94C82.25,-36.46 82.25,-27.67 82.25,-21.22"/>
<polygon fill="#63b8ff" stroke="#63b8ff" points="78.75,-44.93 82.25,-54.93 85.75,-44.93 78.75,-44.93"/>
</a>
</g>
</g>
<!-- Node3 -->
<g id="Node000003" class="node">
<title>Node3</title>
<g id="a_Node000003"><a xlink:href="classllzk_1_1smt_1_1detail_1_1OrOpGenericAdaptorBase.html" target="_top" xlink:title=" ">
<polygon fill="white" stroke="#666666" points="152.5,-159.75 12,-159.75 12,-126.25 152.5,-126.25 152.5,-159.75"/>
<text text-anchor="start" x="20" y="-146.25" font-family="Helvetica,sans-Serif" font-size="10.00">llzk::smt::detail::</text>
<text text-anchor="middle" x="82.25" y="-133.5" font-family="Helvetica,sans-Serif" font-size="10.00">OrOpGenericAdaptorBase</text>
</a>
</g>
</g>
<!-- Node3&#45;&gt;Node2 -->
<g id="edge2_Node000002_Node000003" class="edge">
<title>Node3&#45;&gt;Node2</title>
<g id="a_edge2_Node000002_Node000003"><a xlink:title=" ">
<path fill="none" stroke="#63b8ff" d="M82.25,-114.56C82.25,-106.34 82.25,-97.59 82.25,-90.38"/>
<polygon fill="#63b8ff" stroke="#63b8ff" points="78.75,-114.49 82.25,-124.49 85.75,-114.49 78.75,-114.49"/>
</a>
</g>
</g>
</g>
</svg>
