<?xml version="1.0" encoding="UTF-8" standalone="no"?>
<!DOCTYPE svg PUBLIC "-//W3C//DTD SVG 1.1//EN"
 "http://www.w3.org/Graphics/SVG/1.1/DTD/svg11.dtd">
<!-- Generated by graphviz version 12.2.1 (0)
 -->
<!-- Title: llzk::detail::NonDetOpGenericAdaptorBase Pages: 1 -->
<svg width="534pt" height="158pt"
 viewBox="0.00 0.00 533.75 157.88" xmlns="http://www.w3.org/2000/svg" xmlns:xlink="http://www.w3.org/1999/xlink">
<g id="graph0" class="graph" transform="scale(1 1) rotate(0) translate(4 153.88)">
<title>llzk::detail::NonDetOpGenericAdaptorBase</title>
<!-- Node1 -->
<g id="Node000001" class="node">
<title>Node1</title>
<g id="a_Node000001"><a xlink:title=" ">
<polygon fill="#999999" stroke="#666666" points="160.75,-85.5 0,-85.5 0,-52 160.75,-52 160.75,-85.5"/>
<text text-anchor="start" x="8" y="-72" font-family="Helvetica,sans-Serif" font-size="10.00">llzk::detail::NonDetOpGeneric</text>
<text text-anchor="middle" x="80.38" y="-59.25" font-family="Helvetica,sans-Serif" font-size="10.00">AdaptorBase</text>
</a>
</g>
</g>
<!-- Node2 -->
<g id="Node000002" class="node">
<title>Node2</title>
<g id="a_Node000002"><a xlink:href="classllzk_1_1NonDetOpGenericAdaptor.html" target="_top" xlink:title=" ">
<polygon fill="white" stroke="#666666" points="362,-149.88 196.75,-149.88 196.75,-103.62 362,-103.62 362,-149.88"/>
<text text-anchor="start" x="204.75" y="-136.38" font-family="Helvetica,sans-Serif" font-size="10.00">llzk::NonDetOpGenericAdaptor</text>
<text text-anchor="start" x="204.75" y="-123.62" font-family="Helvetica,sans-Serif" font-size="10.00">&lt;::llvm::ArrayRef&lt;::mlir</text>
<text text-anchor="middle" x="279.38" y="-110.88" font-family="Helvetica,sans-Serif" font-size="10.00">::Attribute &gt; &gt;</text>
</a>
</g>
</g>
<!-- Node1&#45;&gt;Node2 -->
<g id="edge1_Node000001_Node000002" class="edge">
<title>Node1&#45;&gt;Node2</title>
<g id="a_edge1_Node000001_Node000002"><a xlink:title=" ">
<path fill="none" stroke="#63b8ff" d="M150.88,-89.21C166.16,-93.71 182.48,-98.52 198.15,-103.13"/>
<polygon fill="#63b8ff" stroke="#63b8ff" points="151.98,-85.89 141.4,-86.42 150,-92.6 151.98,-85.89"/>
</a>
</g>
</g>
<!-- Node3 -->
<g id="Node000003" class="node">
<title>Node3</title>
<g id="a_Node000003"><a xlink:href="classllzk_1_1NonDetOpGenericAdaptor.html" target="_top" xlink:title=" ">
<polygon fill="white" stroke="#666666" points="362,-85.5 196.75,-85.5 196.75,-52 362,-52 362,-85.5"/>
<text text-anchor="start" x="204.75" y="-72" font-family="Helvetica,sans-Serif" font-size="10.00">llzk::NonDetOpGenericAdaptor</text>
<text text-anchor="middle" x="279.38" y="-59.25" font-family="Helvetica,sans-Serif" font-size="10.00">&lt;::mlir::ValueRange &gt;</text>
</a>
</g>
</g>
<!-- Node1&#45;&gt;Node3 -->
<g id="edge2_Node000001_Node000003" class="edge">
<title>Node1&#45;&gt;Node3</title>
<g id="a_edge2_Node000001_Node000003"><a xlink:title=" ">
<path fill="none" stroke="#63b8ff" d="M172.48,-68.75C180.49,-68.75 188.57,-68.75 196.49,-68.75"/>
<polygon fill="#63b8ff" stroke="#63b8ff" points="172.73,-65.25 162.73,-68.75 172.73,-72.25 172.73,-65.25"/>
</a>
</g>
</g>
<!-- Node5 -->
<g id="Node000005" class="node">
<title>Node5</title>
<g id="a_Node000005"><a xlink:href="classllzk_1_1NonDetOpGenericAdaptor.html" target="_top" xlink:title=" ">
<polygon fill="white" stroke="#666666" points="362,-33.5 196.75,-33.5 196.75,0 362,0 362,-33.5"/>
<text text-anchor="start" x="204.75" y="-20" font-family="Helvetica,sans-Serif" font-size="10.00">llzk::NonDetOpGenericAdaptor</text>
<text text-anchor="middle" x="279.38" y="-7.25" font-family="Helvetica,sans-Serif" font-size="10.00">&lt; RangeT &gt;</text>
</a>
</g>
</g>
<!-- Node1&#45;&gt;Node5 -->
<g id="edge4_Node000001_Node000005" class="edge">
<title>Node1&#45;&gt;Node5</title>
<g id="a_edge4_Node000001_Node000005"><a xlink:title=" ">
<path fill="none" stroke="#63b8ff" d="M157.66,-48.61C176.01,-43.77 195.44,-38.64 213.23,-33.95"/>
<polygon fill="#63b8ff" stroke="#63b8ff" points="156.94,-45.18 148.16,-51.12 158.73,-51.95 156.94,-45.18"/>
</a>
</g>
</g>
<!-- Node4 -->
<g id="Node000004" class="node">
<title>Node4</title>
<g id="a_Node000004"><a xlink:href="classllzk_1_1NonDetOpAdaptor.html" target="_top" xlink:title=" ">
<polygon fill="white" stroke="#666666" points="525.75,-79.12 398,-79.12 398,-58.38 525.75,-58.38 525.75,-79.12"/>
<text text-anchor="middle" x="461.88" y="-65.62" font-family="Helvetica,sans-Serif" font-size="10.00">llzk::NonDetOpAdaptor</text>
</a>
</g>
</g>
<!-- Node3&#45;&gt;Node4 -->
<g id="edge3_Node000003_Node000004" class="edge">
<title>Node3&#45;&gt;Node4</title>
<g id="a_edge3_Node000003_Node000004"><a xlink:title=" ">
<path fill="none" stroke="#63b8ff" d="M373.83,-68.75C381.9,-68.75 389.93,-68.75 397.67,-68.75"/>
<polygon fill="#63b8ff" stroke="#63b8ff" points="373.95,-65.25 363.95,-68.75 373.95,-72.25 373.95,-65.25"/>
</a>
</g>
</g>
</g>
</svg>
