<?xml version="1.0" encoding="UTF-8" standalone="no"?>
<!DOCTYPE svg PUBLIC "-//W3C//DTD SVG 1.1//EN"
 "http://www.w3.org/Graphics/SVG/1.1/DTD/svg11.dtd">
<!-- Generated by graphviz version 12.2.1 (0)
 -->
<!-- Title: llzk::felt::SignedIntDivFeltOpAdaptor Pages: 1 -->
<svg width="161pt" height="206pt"
 viewBox="0.00 0.00 161.25 206.00" xmlns="http://www.w3.org/2000/svg" xmlns:xlink="http://www.w3.org/1999/xlink">
<g id="graph0" class="graph" transform="scale(1 1) rotate(0) translate(4 202)">
<title>llzk::felt::SignedIntDivFeltOpAdaptor</title>
<!-- Node1 -->
<g id="Node000001" class="node">
<title>Node1</title>
<g id="a_Node000001"><a xlink:title=" ">
<polygon fill="#999999" stroke="#666666" points="138.62,-33.5 14.62,-33.5 14.62,0 138.62,0 138.62,-33.5"/>
<text text-anchor="start" x="22.62" y="-20" font-family="Helvetica,sans-Serif" font-size="10.00">llzk::felt::SignedIntDiv</text>
<text text-anchor="middle" x="76.62" y="-7.25" font-family="Helvetica,sans-Serif" font-size="10.00">FeltOpAdaptor</text>
</a>
</g>
</g>
<!-- Node2 -->
<g id="Node000002" class="node">
<title>Node2</title>
<g id="a_Node000002"><a xlink:href="classllzk_1_1felt_1_1SignedIntDivFeltOpGenericAdaptor.html" target="_top" xlink:title=" ">
<polygon fill="white" stroke="#666666" points="142.38,-115.75 10.88,-115.75 10.88,-69.5 142.38,-69.5 142.38,-115.75"/>
<text text-anchor="start" x="18.88" y="-102.25" font-family="Helvetica,sans-Serif" font-size="10.00">llzk::felt::SignedIntDiv</text>
<text text-anchor="start" x="18.88" y="-89.5" font-family="Helvetica,sans-Serif" font-size="10.00">FeltOpGenericAdaptor&lt;</text>
<text text-anchor="middle" x="76.62" y="-76.75" font-family="Helvetica,sans-Serif" font-size="10.00">::mlir::ValueRange &gt;</text>
</a>
</g>
</g>
<!-- Node2&#45;&gt;Node1 -->
<g id="edge1_Node000001_Node000002" class="edge">
<title>Node2&#45;&gt;Node1</title>
<g id="a_edge1_Node000001_Node000002"><a xlink:title=" ">
<path fill="none" stroke="#63b8ff" d="M76.62,-57.64C76.62,-49.35 76.62,-40.86 76.62,-33.85"/>
<polygon fill="#63b8ff" stroke="#63b8ff" points="73.13,-57.55 76.63,-67.55 80.13,-57.55 73.13,-57.55"/>
</a>
</g>
</g>
<!-- Node3 -->
<g id="Node000003" class="node">
<title>Node3</title>
<g id="a_Node000003"><a xlink:href="classllzk_1_1felt_1_1detail_1_1SignedIntDivFeltOpGenericAdaptorBase.html" target="_top" xlink:title=" ">
<polygon fill="white" stroke="#666666" points="153.25,-198 0,-198 0,-151.75 153.25,-151.75 153.25,-198"/>
<text text-anchor="start" x="8" y="-184.5" font-family="Helvetica,sans-Serif" font-size="10.00">llzk::felt::detail</text>
<text text-anchor="start" x="8" y="-171.75" font-family="Helvetica,sans-Serif" font-size="10.00">::SignedIntDivFeltOpGeneric</text>
<text text-anchor="middle" x="76.62" y="-159" font-family="Helvetica,sans-Serif" font-size="10.00">AdaptorBase</text>
</a>
</g>
</g>
<!-- Node3&#45;&gt;Node2 -->
<g id="edge2_Node000002_Node000003" class="edge">
<title>Node3&#45;&gt;Node2</title>
<g id="a_edge2_Node000002_Node000003"><a xlink:title=" ">
<path fill="none" stroke="#63b8ff" d="M76.62,-140.09C76.62,-132 76.62,-123.57 76.62,-116.14"/>
<polygon fill="#63b8ff" stroke="#63b8ff" points="73.13,-140.01 76.63,-150.01 80.13,-140.01 73.13,-140.01"/>
</a>
</g>
</g>
</g>
</svg>
