<?xml version="1.0" encoding="UTF-8" standalone="no"?>
<!DOCTYPE svg PUBLIC "-//W3C//DTD SVG 1.1//EN"
 "http://www.w3.org/Graphics/SVG/1.1/DTD/svg11.dtd">
<!-- Generated by graphviz version 12.2.1 (0)
 -->
<!-- Title: llzk::smt::AndOpAdaptor Pages: 1 -->
<svg width="180pt" height="168pt"
 viewBox="0.00 0.00 180.00 167.75" xmlns="http://www.w3.org/2000/svg" xmlns:xlink="http://www.w3.org/1999/xlink">
<g id="graph0" class="graph" transform="scale(1 1) rotate(0) translate(4 163.75)">
<title>llzk::smt::AndOpAdaptor</title>
<!-- Node1 -->
<g id="Node000001" class="node">
<title>Node1</title>
<g id="a_Node000001"><a xlink:title=" ">
<polygon fill="#999999" stroke="#666666" points="153.25,-20.75 18.75,-20.75 18.75,0 153.25,0 153.25,-20.75"/>
<text text-anchor="middle" x="86" y="-7.25" font-family="Helvetica,sans-Serif" font-size="10.00">llzk::smt::AndOpAdaptor</text>
</a>
</g>
</g>
<!-- Node2 -->
<g id="Node000002" class="node">
<title>Node2</title>
<g id="a_Node000002"><a xlink:href="classllzk_1_1smt_1_1AndOpGenericAdaptor.html" target="_top" xlink:title=" ">
<polygon fill="white" stroke="#666666" points="172,-90.25 0,-90.25 0,-56.75 172,-56.75 172,-90.25"/>
<text text-anchor="start" x="8" y="-76.75" font-family="Helvetica,sans-Serif" font-size="10.00">llzk::smt::AndOpGenericAdaptor</text>
<text text-anchor="middle" x="86" y="-64" font-family="Helvetica,sans-Serif" font-size="10.00">&lt;::mlir::ValueRange &gt;</text>
</a>
</g>
</g>
<!-- Node2&#45;&gt;Node1 -->
<g id="edge1_Node000001_Node000002" class="edge">
<title>Node2&#45;&gt;Node1</title>
<g id="a_edge1_Node000001_Node000002"><a xlink:title=" ">
<path fill="none" stroke="#63b8ff" d="M86,-44.94C86,-36.46 86,-27.67 86,-21.22"/>
<polygon fill="#63b8ff" stroke="#63b8ff" points="82.5,-44.93 86,-54.93 89.5,-44.93 82.5,-44.93"/>
</a>
</g>
</g>
<!-- Node3 -->
<g id="Node000003" class="node">
<title>Node3</title>
<g id="a_Node000003"><a xlink:href="classllzk_1_1smt_1_1detail_1_1AndOpGenericAdaptorBase.html" target="_top" xlink:title=" ">
<polygon fill="white" stroke="#666666" points="160,-159.75 12,-159.75 12,-126.25 160,-126.25 160,-159.75"/>
<text text-anchor="start" x="20" y="-146.25" font-family="Helvetica,sans-Serif" font-size="10.00">llzk::smt::detail::</text>
<text text-anchor="middle" x="86" y="-133.5" font-family="Helvetica,sans-Serif" font-size="10.00">AndOpGenericAdaptorBase</text>
</a>
</g>
</g>
<!-- Node3&#45;&gt;Node2 -->
<g id="edge2_Node000002_Node000003" class="edge">
<title>Node3&#45;&gt;Node2</title>
<g id="a_edge2_Node000002_Node000003"><a xlink:title=" ">
<path fill="none" stroke="#63b8ff" d="M86,-114.56C86,-106.34 86,-97.59 86,-90.38"/>
<polygon fill="#63b8ff" stroke="#63b8ff" points="82.5,-114.49 86,-124.49 89.5,-114.49 82.5,-114.49"/>
</a>
</g>
</g>
</g>
</svg>
