<?xml version="1.0" encoding="UTF-8" standalone="no"?>
<!DOCTYPE svg PUBLIC "-//W3C//DTD SVG 1.1//EN"
 "http://www.w3.org/Graphics/SVG/1.1/DTD/svg11.dtd">
<!-- Generated by graphviz version 12.2.1 (0)
 -->
<!-- Title: llzk::polymorphic::TemplateOpGenericAdaptor&lt; RangeT &gt; Pages: 1 -->
<svg width="216pt" height="226pt"
 viewBox="0.00 0.00 216.00 225.75" xmlns="http://www.w3.org/2000/svg" xmlns:xlink="http://www.w3.org/1999/xlink">
<g id="graph0" class="graph" transform="scale(1 1) rotate(0) translate(4 221.75)">
<title>llzk::polymorphic::TemplateOpGenericAdaptor&lt; RangeT &gt;</title>
<!-- Node1 -->
<g id="Node000001" class="node">
<title>Node1</title>
<g id="a_Node000001"><a xlink:title=" ">
<polygon fill="#999999" stroke="#666666" points="179.12,-46.25 28.88,-46.25 28.88,0 179.12,0 179.12,-46.25"/>
<text text-anchor="start" x="36.88" y="-32.75" font-family="Helvetica,sans-Serif" font-size="10.00">llzk::polymorphic::</text>
<text text-anchor="start" x="36.88" y="-20" font-family="Helvetica,sans-Serif" font-size="10.00">TemplateOpGenericAdaptor</text>
<text text-anchor="middle" x="104" y="-7.25" font-family="Helvetica,sans-Serif" font-size="10.00">&lt; RangeT &gt;</text>
</a>
</g>
</g>
<!-- Node2 -->
<g id="Node000002" class="node">
<title>Node2</title>
<g id="a_Node000002"><a xlink:href="classllzk_1_1polymorphic_1_1detail_1_1TemplateOpGenericAdaptorBase.html" target="_top" xlink:title=" ">
<polygon fill="white" stroke="#666666" points="208,-116.75 0,-116.75 0,-83.25 208,-83.25 208,-116.75"/>
<text text-anchor="start" x="8" y="-103.25" font-family="Helvetica,sans-Serif" font-size="10.00">llzk::polymorphic::</text>
<text text-anchor="middle" x="104" y="-90.5" font-family="Helvetica,sans-Serif" font-size="10.00">detail::TemplateOpGenericAdaptorBase</text>
</a>
</g>
</g>
<!-- Node2&#45;&gt;Node1 -->
<g id="edge1_Node000001_Node000002" class="edge">
<title>Node2&#45;&gt;Node1</title>
<g id="a_edge1_Node000001_Node000002"><a xlink:title=" ">
<path fill="none" stroke="#63b8ff" d="M104,-71.45C104,-63.27 104,-54.41 104,-46.59"/>
<polygon fill="#63b8ff" stroke="#63b8ff" points="100.5,-71.24 104,-81.24 107.5,-71.24 100.5,-71.24"/>
</a>
</g>
</g>
<!-- Node3 -->
<g id="Node000003" class="node">
<title>Node3</title>
<g id="a_Node000003"><a xlink:href="structllzk_1_1polymorphic_1_1detail_1_1TemplateOpGenericAdaptorBase_1_1Properties.html" target="_top" xlink:title=" ">
<polygon fill="white" stroke="#666666" points="196,-217.75 12,-217.75 12,-171.5 196,-171.5 196,-217.75"/>
<text text-anchor="start" x="20" y="-204.25" font-family="Helvetica,sans-Serif" font-size="10.00">llzk::polymorphic::</text>
<text text-anchor="start" x="20" y="-191.5" font-family="Helvetica,sans-Serif" font-size="10.00">detail::TemplateOpGenericAdaptor</text>
<text text-anchor="middle" x="104" y="-178.75" font-family="Helvetica,sans-Serif" font-size="10.00">Base::Properties</text>
</a>
</g>
</g>
<!-- Node3&#45;&gt;Node2 -->
<g id="edge2_Node000002_Node000003" class="edge">
<title>Node3&#45;&gt;Node2</title>
<g id="a_edge2_Node000002_Node000003"><a xlink:title=" ">
<path fill="none" stroke="#9a32cd" stroke-dasharray="5,2" d="M104,-159.99C104,-145.37 104,-128.93 104,-117.12"/>
<polygon fill="#9a32cd" stroke="#9a32cd" points="100.5,-159.69 104,-169.69 107.5,-159.69 100.5,-159.69"/>
</a>
</g>
<text text-anchor="start" x="107" y="-141" font-family="Helvetica,sans-Serif" font-size="10.00" fill="grey">properties</text>
</g>
</g>
</svg>
