<?xml version="1.0" encoding="UTF-8" standalone="no"?>
<!DOCTYPE svg PUBLIC "-//W3C//DTD SVG 1.1//EN"
 "http://www.w3.org/Graphics/SVG/1.1/DTD/svg11.dtd">
<!-- Generated by graphviz version 12.2.1 (0)
 -->
<!-- Title: llzk::constrain::detail::EmitEqualityOpGenericAdaptorBase Pages: 1 -->
<svg width="595pt" height="170pt"
 viewBox="0.00 0.00 594.50 169.88" xmlns="http://www.w3.org/2000/svg" xmlns:xlink="http://www.w3.org/1999/xlink">
<g id="graph0" class="graph" transform="scale(1 1) rotate(0) translate(4 165.88)">
<title>llzk::constrain::detail::EmitEqualityOpGenericAdaptorBase</title>
<!-- Node1 -->
<g id="Node000001" class="node">
<title>Node1</title>
<g id="a_Node000001"><a xlink:title=" ">
<polygon fill="#999999" stroke="#666666" points="197.5,-91.5 0,-91.5 0,-58 197.5,-58 197.5,-91.5"/>
<text text-anchor="start" x="8" y="-78" font-family="Helvetica,sans-Serif" font-size="10.00">llzk::constrain::detail</text>
<text text-anchor="middle" x="98.75" y="-65.25" font-family="Helvetica,sans-Serif" font-size="10.00">::EmitEqualityOpGenericAdaptorBase</text>
</a>
</g>
</g>
<!-- Node2 -->
<g id="Node000002" class="node">
<title>Node2</title>
<g id="a_Node000002"><a xlink:href="classllzk_1_1constrain_1_1EmitEqualityOpGenericAdaptor.html" target="_top" xlink:title=" ">
<polygon fill="white" stroke="#666666" points="397.62,-161.88 233.88,-161.88 233.88,-115.62 397.62,-115.62 397.62,-161.88"/>
<text text-anchor="start" x="241.88" y="-148.38" font-family="Helvetica,sans-Serif" font-size="10.00">llzk::constrain::EmitEquality</text>
<text text-anchor="start" x="241.88" y="-135.62" font-family="Helvetica,sans-Serif" font-size="10.00">OpGenericAdaptor&lt;::llvm::</text>
<text text-anchor="middle" x="315.75" y="-122.88" font-family="Helvetica,sans-Serif" font-size="10.00">ArrayRef&lt;::mlir::Attribute &gt; &gt;</text>
</a>
</g>
</g>
<!-- Node1&#45;&gt;Node2 -->
<g id="edge1_Node000001_Node000002" class="edge">
<title>Node1&#45;&gt;Node2</title>
<g id="a_edge1_Node000001_Node000002"><a xlink:title=" ">
<path fill="none" stroke="#63b8ff" d="M168.6,-95.24C189.98,-101.61 213.72,-108.68 235.74,-115.23"/>
<polygon fill="#63b8ff" stroke="#63b8ff" points="169.68,-91.92 159.1,-92.42 167.69,-98.62 169.68,-91.92"/>
</a>
</g>
</g>
<!-- Node3 -->
<g id="Node000003" class="node">
<title>Node3</title>
<g id="a_Node000003"><a xlink:href="classllzk_1_1constrain_1_1EmitEqualityOpGenericAdaptor.html" target="_top" xlink:title=" ">
<polygon fill="white" stroke="#666666" points="392,-97.88 239.5,-97.88 239.5,-51.62 392,-51.62 392,-97.88"/>
<text text-anchor="start" x="247.5" y="-84.38" font-family="Helvetica,sans-Serif" font-size="10.00">llzk::constrain::EmitEquality</text>
<text text-anchor="start" x="247.5" y="-71.62" font-family="Helvetica,sans-Serif" font-size="10.00">OpGenericAdaptor&lt;::mlir::</text>
<text text-anchor="middle" x="315.75" y="-58.88" font-family="Helvetica,sans-Serif" font-size="10.00">ValueRange &gt;</text>
</a>
</g>
</g>
<!-- Node1&#45;&gt;Node3 -->
<g id="edge2_Node000001_Node000003" class="edge">
<title>Node1&#45;&gt;Node3</title>
<g id="a_edge2_Node000001_Node000003"><a xlink:title=" ">
<path fill="none" stroke="#63b8ff" d="M209.2,-74.75C219.29,-74.75 229.36,-74.75 239.05,-74.75"/>
<polygon fill="#63b8ff" stroke="#63b8ff" points="209.33,-71.25 199.33,-74.75 209.33,-78.25 209.33,-71.25"/>
</a>
</g>
</g>
<!-- Node5 -->
<g id="Node000005" class="node">
<title>Node5</title>
<g id="a_Node000005"><a xlink:href="classllzk_1_1constrain_1_1EmitEqualityOpGenericAdaptor.html" target="_top" xlink:title=" ">
<polygon fill="white" stroke="#666666" points="398,-33.5 233.5,-33.5 233.5,0 398,0 398,-33.5"/>
<text text-anchor="start" x="241.5" y="-20" font-family="Helvetica,sans-Serif" font-size="10.00">llzk::constrain::EmitEquality</text>
<text text-anchor="middle" x="315.75" y="-7.25" font-family="Helvetica,sans-Serif" font-size="10.00">OpGenericAdaptor&lt; RangeT &gt;</text>
</a>
</g>
</g>
<!-- Node1&#45;&gt;Node5 -->
<g id="edge4_Node000001_Node000005" class="edge">
<title>Node1&#45;&gt;Node5</title>
<g id="a_edge4_Node000001_Node000005"><a xlink:title=" ">
<path fill="none" stroke="#63b8ff" d="M174.56,-54.57C199.51,-47.84 227.05,-40.41 251.07,-33.93"/>
<polygon fill="#63b8ff" stroke="#63b8ff" points="173.88,-51.13 165.14,-57.11 175.7,-57.89 173.88,-51.13"/>
</a>
</g>
</g>
<!-- Node4 -->
<g id="Node000004" class="node">
<title>Node4</title>
<g id="a_Node000004"><a xlink:href="classllzk_1_1constrain_1_1EmitEqualityOpAdaptor.html" target="_top" xlink:title=" ">
<polygon fill="white" stroke="#666666" points="586.5,-91.5 434,-91.5 434,-58 586.5,-58 586.5,-91.5"/>
<text text-anchor="start" x="442" y="-78" font-family="Helvetica,sans-Serif" font-size="10.00">llzk::constrain::EmitEquality</text>
<text text-anchor="middle" x="510.25" y="-65.25" font-family="Helvetica,sans-Serif" font-size="10.00">OpAdaptor</text>
</a>
</g>
</g>
<!-- Node3&#45;&gt;Node4 -->
<g id="edge3_Node000003_Node000004" class="edge">
<title>Node3&#45;&gt;Node4</title>
<g id="a_edge3_Node000003_Node000004"><a xlink:title=" ">
<path fill="none" stroke="#63b8ff" d="M403.53,-74.75C413.57,-74.75 423.75,-74.75 433.62,-74.75"/>
<polygon fill="#63b8ff" stroke="#63b8ff" points="403.79,-71.25 393.79,-74.75 403.79,-78.25 403.79,-71.25"/>
</a>
</g>
</g>
</g>
</svg>
