<?xml version="1.0" encoding="UTF-8" standalone="no"?>
<!DOCTYPE svg PUBLIC "-//W3C//DTD SVG 1.1//EN"
 "http://www.w3.org/Graphics/SVG/1.1/DTD/svg11.dtd">
<!-- Generated by graphviz version 12.2.1 (0)
 -->
<!-- Title: llzk::pod::NewPodOpAdaptor Pages: 1 -->
<svg width="177pt" height="271pt"
 viewBox="0.00 0.00 177.00 270.75" xmlns="http://www.w3.org/2000/svg" xmlns:xlink="http://www.w3.org/1999/xlink">
<g id="graph0" class="graph" transform="scale(1 1) rotate(0) translate(4 266.75)">
<title>llzk::pod::NewPodOpAdaptor</title>
<!-- Node1 -->
<g id="Node000001" class="node">
<title>Node1</title>
<g id="a_Node000001"><a xlink:title=" ">
<polygon fill="#999999" stroke="#666666" points="161.88,-20.75 7.12,-20.75 7.12,0 161.88,0 161.88,-20.75"/>
<text text-anchor="middle" x="84.5" y="-7.25" font-family="Helvetica,sans-Serif" font-size="10.00">llzk::pod::NewPodOpAdaptor</text>
</a>
</g>
</g>
<!-- Node2 -->
<g id="Node000002" class="node">
<title>Node2</title>
<g id="a_Node000002"><a xlink:href="classllzk_1_1pod_1_1NewPodOpGenericAdaptor.html" target="_top" xlink:title=" ">
<polygon fill="white" stroke="#666666" points="166,-91.25 3,-91.25 3,-57.75 166,-57.75 166,-91.25"/>
<text text-anchor="start" x="11" y="-77.75" font-family="Helvetica,sans-Serif" font-size="10.00">llzk::pod::NewPodOpGeneric</text>
<text text-anchor="middle" x="84.5" y="-65" font-family="Helvetica,sans-Serif" font-size="10.00">Adaptor&lt;::mlir::ValueRange &gt;</text>
</a>
</g>
</g>
<!-- Node2&#45;&gt;Node1 -->
<g id="edge1_Node000001_Node000002" class="edge">
<title>Node2&#45;&gt;Node1</title>
<g id="a_edge1_Node000001_Node000002"><a xlink:title=" ">
<path fill="none" stroke="#63b8ff" d="M84.5,-46.23C84.5,-37.27 84.5,-27.89 84.5,-21.12"/>
<polygon fill="#63b8ff" stroke="#63b8ff" points="81,-45.99 84.5,-55.99 88,-45.99 81,-45.99"/>
</a>
</g>
</g>
<!-- Node3 -->
<g id="Node000003" class="node">
<title>Node3</title>
<g id="a_Node000003"><a xlink:href="classllzk_1_1pod_1_1detail_1_1NewPodOpGenericAdaptorBase.html" target="_top" xlink:title=" ">
<polygon fill="white" stroke="#666666" points="169,-161.75 0,-161.75 0,-128.25 169,-128.25 169,-161.75"/>
<text text-anchor="start" x="8" y="-148.25" font-family="Helvetica,sans-Serif" font-size="10.00">llzk::pod::detail::</text>
<text text-anchor="middle" x="84.5" y="-135.5" font-family="Helvetica,sans-Serif" font-size="10.00">NewPodOpGenericAdaptorBase</text>
</a>
</g>
</g>
<!-- Node3&#45;&gt;Node2 -->
<g id="edge2_Node000002_Node000003" class="edge">
<title>Node3&#45;&gt;Node2</title>
<g id="a_edge2_Node000002_Node000003"><a xlink:title=" ">
<path fill="none" stroke="#63b8ff" d="M84.5,-116.45C84.5,-108.02 84.5,-99.02 84.5,-91.62"/>
<polygon fill="#63b8ff" stroke="#63b8ff" points="81,-116.25 84.5,-126.25 88,-116.25 81,-116.25"/>
</a>
</g>
</g>
<!-- Node4 -->
<g id="Node000004" class="node">
<title>Node4</title>
<g id="a_Node000004"><a xlink:href="structllzk_1_1pod_1_1detail_1_1NewPodOpGenericAdaptorBase_1_1Properties.html" target="_top" xlink:title=" ">
<polygon fill="white" stroke="#666666" points="169,-262.75 0,-262.75 0,-216.5 169,-216.5 169,-262.75"/>
<text text-anchor="start" x="8" y="-249.25" font-family="Helvetica,sans-Serif" font-size="10.00">llzk::pod::detail::</text>
<text text-anchor="start" x="8" y="-236.5" font-family="Helvetica,sans-Serif" font-size="10.00">NewPodOpGenericAdaptorBase</text>
<text text-anchor="middle" x="84.5" y="-223.75" font-family="Helvetica,sans-Serif" font-size="10.00">::Properties</text>
</a>
</g>
</g>
<!-- Node4&#45;&gt;Node3 -->
<g id="edge3_Node000003_Node000004" class="edge">
<title>Node4&#45;&gt;Node3</title>
<g id="a_edge3_Node000003_Node000004"><a xlink:title=" ">
<path fill="none" stroke="#9a32cd" stroke-dasharray="5,2" d="M84.5,-204.99C84.5,-190.37 84.5,-173.93 84.5,-162.12"/>
<polygon fill="#9a32cd" stroke="#9a32cd" points="81,-204.69 84.5,-214.69 88,-204.69 81,-204.69"/>
</a>
</g>
<text text-anchor="start" x="87.5" y="-186" font-family="Helvetica,sans-Serif" font-size="10.00" fill="grey">properties</text>
</g>
</g>
</svg>
