<?xml version="1.0" encoding="UTF-8" standalone="no"?>
<!DOCTYPE svg PUBLIC "-//W3C//DTD SVG 1.1//EN"
 "http://www.w3.org/Graphics/SVG/1.1/DTD/svg11.dtd">
<!-- Generated by graphviz version 12.2.1 (0)
 -->
<!-- Title: llzk::function::FuncDefOpAdaptor Pages: 1 -->
<svg width="183pt" height="193pt"
 viewBox="0.00 0.00 183.00 193.25" xmlns="http://www.w3.org/2000/svg" xmlns:xlink="http://www.w3.org/1999/xlink">
<g id="graph0" class="graph" transform="scale(1 1) rotate(0) translate(4 189.25)">
<title>llzk::function::FuncDefOpAdaptor</title>
<!-- Node1 -->
<g id="Node000001" class="node">
<title>Node1</title>
<g id="a_Node000001"><a xlink:title=" ">
<polygon fill="#999999" stroke="#666666" points="156.62,-33.5 18.38,-33.5 18.38,0 156.62,0 156.62,-33.5"/>
<text text-anchor="start" x="26.38" y="-20" font-family="Helvetica,sans-Serif" font-size="10.00">llzk::function::FuncDefOp</text>
<text text-anchor="middle" x="87.5" y="-7.25" font-family="Helvetica,sans-Serif" font-size="10.00">Adaptor</text>
</a>
</g>
</g>
<!-- Node2 -->
<g id="Node000002" class="node">
<title>Node2</title>
<g id="a_Node000002"><a xlink:href="classllzk_1_1function_1_1FuncDefOpGenericAdaptor.html" target="_top" xlink:title=" ">
<polygon fill="white" stroke="#666666" points="156.62,-115.75 18.38,-115.75 18.38,-69.5 156.62,-69.5 156.62,-115.75"/>
<text text-anchor="start" x="26.38" y="-102.25" font-family="Helvetica,sans-Serif" font-size="10.00">llzk::function::FuncDefOp</text>
<text text-anchor="start" x="26.38" y="-89.5" font-family="Helvetica,sans-Serif" font-size="10.00">GenericAdaptor&lt;::mlir::</text>
<text text-anchor="middle" x="87.5" y="-76.75" font-family="Helvetica,sans-Serif" font-size="10.00">ValueRange &gt;</text>
</a>
</g>
</g>
<!-- Node2&#45;&gt;Node1 -->
<g id="edge1_Node000001_Node000002" class="edge">
<title>Node2&#45;&gt;Node1</title>
<g id="a_edge1_Node000001_Node000002"><a xlink:title=" ">
<path fill="none" stroke="#63b8ff" d="M87.5,-57.64C87.5,-49.35 87.5,-40.86 87.5,-33.85"/>
<polygon fill="#63b8ff" stroke="#63b8ff" points="84,-57.55 87.5,-67.55 91,-57.55 84,-57.55"/>
</a>
</g>
</g>
<!-- Node3 -->
<g id="Node000003" class="node">
<title>Node3</title>
<g id="a_Node000003"><a xlink:href="classllzk_1_1function_1_1detail_1_1FuncDefOpGenericAdaptorBase.html" target="_top" xlink:title=" ">
<polygon fill="white" stroke="#666666" points="175,-185.25 0,-185.25 0,-151.75 175,-151.75 175,-185.25"/>
<text text-anchor="start" x="8" y="-171.75" font-family="Helvetica,sans-Serif" font-size="10.00">llzk::function::detail</text>
<text text-anchor="middle" x="87.5" y="-159" font-family="Helvetica,sans-Serif" font-size="10.00">::FuncDefOpGenericAdaptorBase</text>
</a>
</g>
</g>
<!-- Node3&#45;&gt;Node2 -->
<g id="edge2_Node000002_Node000003" class="edge">
<title>Node3&#45;&gt;Node2</title>
<g id="a_edge2_Node000002_Node000003"><a xlink:title=" ">
<path fill="none" stroke="#63b8ff" d="M87.5,-140.14C87.5,-132.21 87.5,-123.66 87.5,-116.07"/>
<polygon fill="#63b8ff" stroke="#63b8ff" points="84,-139.96 87.5,-149.96 91,-139.96 84,-139.96"/>
</a>
</g>
</g>
</g>
</svg>
