<?xml version="1.0" encoding="UTF-8" standalone="no"?>
<!DOCTYPE svg PUBLIC "-//W3C//DTD SVG 1.1//EN"
 "http://www.w3.org/Graphics/SVG/1.1/DTD/svg11.dtd">
<!-- Generated by graphviz version 12.2.1 (0)
 -->
<!-- Title: llzk::verif::detail::RequireComputeOpGenericAdaptorBase Pages: 1 -->
<svg width="616pt" height="170pt"
 viewBox="0.00 0.00 615.50 169.88" xmlns="http://www.w3.org/2000/svg" xmlns:xlink="http://www.w3.org/1999/xlink">
<g id="graph0" class="graph" transform="scale(1 1) rotate(0) translate(4 165.88)">
<title>llzk::verif::detail::RequireComputeOpGenericAdaptorBase</title>
<!-- Node1 -->
<g id="Node000001" class="node">
<title>Node1</title>
<g id="a_Node000001"><a xlink:title=" ">
<polygon fill="#999999" stroke="#666666" points="217,-91.5 0,-91.5 0,-58 217,-58 217,-91.5"/>
<text text-anchor="start" x="8" y="-78" font-family="Helvetica,sans-Serif" font-size="10.00">llzk::verif::detail</text>
<text text-anchor="middle" x="108.5" y="-65.25" font-family="Helvetica,sans-Serif" font-size="10.00">::RequireComputeOpGenericAdaptorBase</text>
</a>
</g>
</g>
<!-- Node2 -->
<g id="Node000002" class="node">
<title>Node2</title>
<g id="a_Node000002"><a xlink:href="classllzk_1_1verif_1_1RequireComputeOpGenericAdaptor.html" target="_top" xlink:title=" ">
<polygon fill="white" stroke="#666666" points="422.75,-161.88 253,-161.88 253,-115.62 422.75,-115.62 422.75,-161.88"/>
<text text-anchor="start" x="261" y="-148.38" font-family="Helvetica,sans-Serif" font-size="10.00">llzk::verif::RequireCompute</text>
<text text-anchor="start" x="261" y="-135.62" font-family="Helvetica,sans-Serif" font-size="10.00">OpGenericAdaptor&lt;::llvm</text>
<text text-anchor="middle" x="337.88" y="-122.88" font-family="Helvetica,sans-Serif" font-size="10.00">::ArrayRef&lt;::mlir::Attribute &gt; &gt;</text>
</a>
</g>
</g>
<!-- Node1&#45;&gt;Node2 -->
<g id="edge1_Node000001_Node000002" class="edge">
<title>Node1&#45;&gt;Node2</title>
<g id="a_edge1_Node000001_Node000002"><a xlink:title=" ">
<path fill="none" stroke="#63b8ff" d="M181.69,-95.07C204.46,-101.48 229.82,-108.62 253.32,-115.23"/>
<polygon fill="#63b8ff" stroke="#63b8ff" points="182.76,-91.74 172.19,-92.4 180.87,-98.47 182.76,-91.74"/>
</a>
</g>
</g>
<!-- Node3 -->
<g id="Node000003" class="node">
<title>Node3</title>
<g id="a_Node000003"><a xlink:href="classllzk_1_1verif_1_1RequireComputeOpGenericAdaptor.html" target="_top" xlink:title=" ">
<polygon fill="white" stroke="#666666" points="412.25,-97.88 263.5,-97.88 263.5,-51.62 412.25,-51.62 412.25,-97.88"/>
<text text-anchor="start" x="271.5" y="-84.38" font-family="Helvetica,sans-Serif" font-size="10.00">llzk::verif::RequireCompute</text>
<text text-anchor="start" x="271.5" y="-71.62" font-family="Helvetica,sans-Serif" font-size="10.00">OpGenericAdaptor&lt;::mlir</text>
<text text-anchor="middle" x="337.88" y="-58.88" font-family="Helvetica,sans-Serif" font-size="10.00">::ValueRange &gt;</text>
</a>
</g>
</g>
<!-- Node1&#45;&gt;Node3 -->
<g id="edge2_Node000001_Node000003" class="edge">
<title>Node1&#45;&gt;Node3</title>
<g id="a_edge2_Node000001_Node000003"><a xlink:title=" ">
<path fill="none" stroke="#63b8ff" d="M228.55,-74.75C240.38,-74.75 252.13,-74.75 263.3,-74.75"/>
<polygon fill="#63b8ff" stroke="#63b8ff" points="228.71,-71.25 218.71,-74.75 228.71,-78.25 228.71,-71.25"/>
</a>
</g>
</g>
<!-- Node5 -->
<g id="Node000005" class="node">
<title>Node5</title>
<g id="a_Node000005"><a xlink:href="classllzk_1_1verif_1_1RequireComputeOpGenericAdaptor.html" target="_top" xlink:title=" ">
<polygon fill="white" stroke="#666666" points="420.12,-33.5 255.62,-33.5 255.62,0 420.12,0 420.12,-33.5"/>
<text text-anchor="start" x="263.62" y="-20" font-family="Helvetica,sans-Serif" font-size="10.00">llzk::verif::RequireCompute</text>
<text text-anchor="middle" x="337.88" y="-7.25" font-family="Helvetica,sans-Serif" font-size="10.00">OpGenericAdaptor&lt; RangeT &gt;</text>
</a>
</g>
</g>
<!-- Node1&#45;&gt;Node5 -->
<g id="edge4_Node000001_Node000005" class="edge">
<title>Node1&#45;&gt;Node5</title>
<g id="a_edge4_Node000001_Node000005"><a xlink:title=" ">
<path fill="none" stroke="#63b8ff" d="M187.91,-54.75C214.48,-47.97 243.9,-40.47 269.53,-33.93"/>
<polygon fill="#63b8ff" stroke="#63b8ff" points="187.4,-51.27 178.57,-57.13 189.13,-58.05 187.4,-51.27"/>
</a>
</g>
</g>
<!-- Node4 -->
<g id="Node000004" class="node">
<title>Node4</title>
<g id="a_Node000004"><a xlink:href="classllzk_1_1verif_1_1RequireComputeOpAdaptor.html" target="_top" xlink:title=" ">
<polygon fill="white" stroke="#666666" points="607.5,-91.5 458.75,-91.5 458.75,-58 607.5,-58 607.5,-91.5"/>
<text text-anchor="start" x="466.75" y="-78" font-family="Helvetica,sans-Serif" font-size="10.00">llzk::verif::RequireCompute</text>
<text text-anchor="middle" x="533.12" y="-65.25" font-family="Helvetica,sans-Serif" font-size="10.00">OpAdaptor</text>
</a>
</g>
</g>
<!-- Node3&#45;&gt;Node4 -->
<g id="edge3_Node000003_Node000004" class="edge">
<title>Node3&#45;&gt;Node4</title>
<g id="a_edge3_Node000003_Node000004"><a xlink:title=" ">
<path fill="none" stroke="#63b8ff" d="M423.89,-74.75C435.39,-74.75 447.12,-74.75 458.4,-74.75"/>
<polygon fill="#63b8ff" stroke="#63b8ff" points="424,-71.25 414,-74.75 424,-78.25 424,-71.25"/>
</a>
</g>
</g>
</g>
</svg>
