<?xml version="1.0" encoding="UTF-8" standalone="no"?>
<!DOCTYPE svg PUBLIC "-//W3C//DTD SVG 1.1//EN"
 "http://www.w3.org/Graphics/SVG/1.1/DTD/svg11.dtd">
<!-- Generated by graphviz version 12.2.1 (0)
 -->
<!-- Title: llzk::smt::BoolConstantOpAdaptor Pages: 1 -->
<svg width="203pt" height="193pt"
 viewBox="0.00 0.00 202.50 193.25" xmlns="http://www.w3.org/2000/svg" xmlns:xlink="http://www.w3.org/1999/xlink">
<g id="graph0" class="graph" transform="scale(1 1) rotate(0) translate(4 189.25)">
<title>llzk::smt::BoolConstantOpAdaptor</title>
<!-- Node1 -->
<g id="Node000001" class="node">
<title>Node1</title>
<g id="a_Node000001"><a xlink:title=" ">
<polygon fill="#999999" stroke="#666666" points="168.62,-33.5 25.88,-33.5 25.88,0 168.62,0 168.62,-33.5"/>
<text text-anchor="start" x="33.88" y="-20" font-family="Helvetica,sans-Serif" font-size="10.00">llzk::smt::BoolConstantOp</text>
<text text-anchor="middle" x="97.25" y="-7.25" font-family="Helvetica,sans-Serif" font-size="10.00">Adaptor</text>
</a>
</g>
</g>
<!-- Node2 -->
<g id="Node000002" class="node">
<title>Node2</title>
<g id="a_Node000002"><a xlink:href="classllzk_1_1smt_1_1BoolConstantOpGenericAdaptor.html" target="_top" xlink:title=" ">
<polygon fill="white" stroke="#666666" points="168.62,-115.75 25.88,-115.75 25.88,-69.5 168.62,-69.5 168.62,-115.75"/>
<text text-anchor="start" x="33.88" y="-102.25" font-family="Helvetica,sans-Serif" font-size="10.00">llzk::smt::BoolConstantOp</text>
<text text-anchor="start" x="33.88" y="-89.5" font-family="Helvetica,sans-Serif" font-size="10.00">GenericAdaptor&lt;::mlir::</text>
<text text-anchor="middle" x="97.25" y="-76.75" font-family="Helvetica,sans-Serif" font-size="10.00">ValueRange &gt;</text>
</a>
</g>
</g>
<!-- Node2&#45;&gt;Node1 -->
<g id="edge1_Node000001_Node000002" class="edge">
<title>Node2&#45;&gt;Node1</title>
<g id="a_edge1_Node000001_Node000002"><a xlink:title=" ">
<path fill="none" stroke="#63b8ff" d="M97.25,-57.64C97.25,-49.35 97.25,-40.86 97.25,-33.85"/>
<polygon fill="#63b8ff" stroke="#63b8ff" points="93.75,-57.55 97.25,-67.55 100.75,-57.55 93.75,-57.55"/>
</a>
</g>
</g>
<!-- Node3 -->
<g id="Node000003" class="node">
<title>Node3</title>
<g id="a_Node000003"><a xlink:href="classllzk_1_1smt_1_1detail_1_1BoolConstantOpGenericAdaptorBase.html" target="_top" xlink:title=" ">
<polygon fill="white" stroke="#666666" points="194.5,-185.25 0,-185.25 0,-151.75 194.5,-151.75 194.5,-185.25"/>
<text text-anchor="start" x="8" y="-171.75" font-family="Helvetica,sans-Serif" font-size="10.00">llzk::smt::detail::</text>
<text text-anchor="middle" x="97.25" y="-159" font-family="Helvetica,sans-Serif" font-size="10.00">BoolConstantOpGenericAdaptorBase</text>
</a>
</g>
</g>
<!-- Node3&#45;&gt;Node2 -->
<g id="edge2_Node000002_Node000003" class="edge">
<title>Node3&#45;&gt;Node2</title>
<g id="a_edge2_Node000002_Node000003"><a xlink:title=" ">
<path fill="none" stroke="#63b8ff" d="M97.25,-140.14C97.25,-132.21 97.25,-123.66 97.25,-116.07"/>
<polygon fill="#63b8ff" stroke="#63b8ff" points="93.75,-139.96 97.25,-149.96 100.75,-139.96 93.75,-139.96"/>
</a>
</g>
</g>
</g>
</svg>
