<?xml version="1.0" encoding="UTF-8" standalone="no"?>
<!DOCTYPE svg PUBLIC "-//W3C//DTD SVG 1.1//EN"
 "http://www.w3.org/Graphics/SVG/1.1/DTD/svg11.dtd">
<!-- Generated by graphviz version 12.2.1 (0)
 -->
<!-- Title: llzk::verif::InvariantOpAdaptor Pages: 1 -->
<svg width="187pt" height="296pt"
 viewBox="0.00 0.00 186.75 296.25" xmlns="http://www.w3.org/2000/svg" xmlns:xlink="http://www.w3.org/1999/xlink">
<g id="graph0" class="graph" transform="scale(1 1) rotate(0) translate(4 292.25)">
<title>llzk::verif::InvariantOpAdaptor</title>
<!-- Node1 -->
<g id="Node000001" class="node">
<title>Node1</title>
<g id="a_Node000001"><a xlink:title=" ">
<polygon fill="#999999" stroke="#666666" points="151.38,-33.5 27.38,-33.5 27.38,0 151.38,0 151.38,-33.5"/>
<text text-anchor="start" x="35.38" y="-20" font-family="Helvetica,sans-Serif" font-size="10.00">llzk::verif::InvariantOp</text>
<text text-anchor="middle" x="89.38" y="-7.25" font-family="Helvetica,sans-Serif" font-size="10.00">Adaptor</text>
</a>
</g>
</g>
<!-- Node2 -->
<g id="Node000002" class="node">
<title>Node2</title>
<g id="a_Node000002"><a xlink:href="classllzk_1_1verif_1_1InvariantOpGenericAdaptor.html" target="_top" xlink:title=" ">
<polygon fill="white" stroke="#666666" points="152.12,-116.75 26.62,-116.75 26.62,-70.5 152.12,-70.5 152.12,-116.75"/>
<text text-anchor="start" x="34.62" y="-103.25" font-family="Helvetica,sans-Serif" font-size="10.00">llzk::verif::InvariantOp</text>
<text text-anchor="start" x="34.62" y="-90.5" font-family="Helvetica,sans-Serif" font-size="10.00">GenericAdaptor&lt;::mlir</text>
<text text-anchor="middle" x="89.38" y="-77.75" font-family="Helvetica,sans-Serif" font-size="10.00">::ValueRange &gt;</text>
</a>
</g>
</g>
<!-- Node2&#45;&gt;Node1 -->
<g id="edge1_Node000001_Node000002" class="edge">
<title>Node2&#45;&gt;Node1</title>
<g id="a_edge1_Node000001_Node000002"><a xlink:title=" ">
<path fill="none" stroke="#63b8ff" d="M89.38,-58.67C89.38,-49.99 89.38,-41.07 89.38,-33.78"/>
<polygon fill="#63b8ff" stroke="#63b8ff" points="85.88,-58.65 89.38,-68.65 92.88,-58.65 85.88,-58.65"/>
</a>
</g>
</g>
<!-- Node3 -->
<g id="Node000003" class="node">
<title>Node3</title>
<g id="a_Node000003"><a xlink:href="classllzk_1_1verif_1_1detail_1_1InvariantOpGenericAdaptorBase.html" target="_top" xlink:title=" ">
<polygon fill="white" stroke="#666666" points="178.75,-187.25 0,-187.25 0,-153.75 178.75,-153.75 178.75,-187.25"/>
<text text-anchor="start" x="8" y="-173.75" font-family="Helvetica,sans-Serif" font-size="10.00">llzk::verif::detail</text>
<text text-anchor="middle" x="89.38" y="-161" font-family="Helvetica,sans-Serif" font-size="10.00">::InvariantOpGenericAdaptorBase</text>
</a>
</g>
</g>
<!-- Node3&#45;&gt;Node2 -->
<g id="edge2_Node000002_Node000003" class="edge">
<title>Node3&#45;&gt;Node2</title>
<g id="a_edge2_Node000002_Node000003"><a xlink:title=" ">
<path fill="none" stroke="#63b8ff" d="M89.38,-141.95C89.38,-133.77 89.38,-124.91 89.38,-117.09"/>
<polygon fill="#63b8ff" stroke="#63b8ff" points="85.88,-141.74 89.38,-151.74 92.88,-141.74 85.88,-141.74"/>
</a>
</g>
</g>
<!-- Node4 -->
<g id="Node000004" class="node">
<title>Node4</title>
<g id="a_Node000004"><a xlink:href="structllzk_1_1verif_1_1detail_1_1InvariantOpGenericAdaptorBase_1_1Properties.html" target="_top" xlink:title=" ">
<polygon fill="white" stroke="#666666" points="166.75,-288.25 12,-288.25 12,-242 166.75,-242 166.75,-288.25"/>
<text text-anchor="start" x="20" y="-274.75" font-family="Helvetica,sans-Serif" font-size="10.00">llzk::verif::detail</text>
<text text-anchor="start" x="20" y="-262" font-family="Helvetica,sans-Serif" font-size="10.00">::InvariantOpGenericAdaptor</text>
<text text-anchor="middle" x="89.38" y="-249.25" font-family="Helvetica,sans-Serif" font-size="10.00">Base::Properties</text>
</a>
</g>
</g>
<!-- Node4&#45;&gt;Node3 -->
<g id="edge3_Node000003_Node000004" class="edge">
<title>Node4&#45;&gt;Node3</title>
<g id="a_edge3_Node000003_Node000004"><a xlink:title=" ">
<path fill="none" stroke="#9a32cd" stroke-dasharray="5,2" d="M89.38,-230.49C89.38,-215.87 89.38,-199.43 89.38,-187.62"/>
<polygon fill="#9a32cd" stroke="#9a32cd" points="85.88,-230.19 89.38,-240.19 92.88,-230.19 85.88,-230.19"/>
</a>
</g>
<text text-anchor="start" x="92.38" y="-211.5" font-family="Helvetica,sans-Serif" font-size="10.00" fill="grey">properties</text>
</g>
</g>
</svg>
