<?xml version="1.0" encoding="UTF-8" standalone="no"?>
<!DOCTYPE svg PUBLIC "-//W3C//DTD SVG 1.1//EN"
 "http://www.w3.org/Graphics/SVG/1.1/DTD/svg11.dtd">
<!-- Generated by graphviz version 12.2.1 (0)
 -->
<!-- Title: llzk::FuseProductLoopsPass Pages: 1 -->
<svg width="202pt" height="168pt"
 viewBox="0.00 0.00 201.75 167.75" xmlns="http://www.w3.org/2000/svg" xmlns:xlink="http://www.w3.org/1999/xlink">
<g id="graph0" class="graph" transform="scale(1 1) rotate(0) translate(4 163.75)">
<title>llzk::FuseProductLoopsPass</title>
<!-- Node1 -->
<g id="Node000001" class="node">
<title>Node1</title>
<g id="a_Node000001"><a xlink:title=" ">
<polygon fill="#999999" stroke="#666666" points="171.25,-20.75 22.5,-20.75 22.5,0 171.25,0 171.25,-20.75"/>
<text text-anchor="middle" x="96.88" y="-7.25" font-family="Helvetica,sans-Serif" font-size="10.00">llzk::FuseProductLoopsPass</text>
</a>
</g>
</g>
<!-- Node2 -->
<g id="Node000002" class="node">
<title>Node2</title>
<g id="a_Node000002"><a xlink:href="classllzk_1_1impl_1_1FuseProductLoopsPassBase.html" target="_top" xlink:title=" ">
<polygon fill="white" stroke="#666666" points="193.75,-90.25 0,-90.25 0,-56.75 193.75,-56.75 193.75,-90.25"/>
<text text-anchor="start" x="8" y="-76.75" font-family="Helvetica,sans-Serif" font-size="10.00">llzk::impl::FuseProductLoops</text>
<text text-anchor="middle" x="96.88" y="-64" font-family="Helvetica,sans-Serif" font-size="10.00">PassBase&lt; FuseProductLoopsPass &gt;</text>
</a>
</g>
</g>
<!-- Node2&#45;&gt;Node1 -->
<g id="edge1_Node000001_Node000002" class="edge">
<title>Node2&#45;&gt;Node1</title>
<g id="a_edge1_Node000001_Node000002"><a xlink:title=" ">
<path fill="none" stroke="#63b8ff" d="M96.88,-44.94C96.88,-36.46 96.88,-27.67 96.88,-21.22"/>
<polygon fill="#63b8ff" stroke="#63b8ff" points="93.38,-44.93 96.88,-54.93 100.38,-44.93 93.38,-44.93"/>
</a>
</g>
</g>
<!-- Node3 -->
<g id="Node000003" class="node">
<title>Node3</title>
<g id="a_Node000003"><a xlink:title=" ">
<polygon fill="white" stroke="#666666" points="155.12,-159.75 38.62,-159.75 38.62,-126.25 155.12,-126.25 155.12,-159.75"/>
<text text-anchor="start" x="46.62" y="-146.25" font-family="Helvetica,sans-Serif" font-size="10.00">mlir::OperationPass</text>
<text text-anchor="middle" x="96.88" y="-133.5" font-family="Helvetica,sans-Serif" font-size="10.00">&lt;::mlir::ModuleOp &gt;</text>
</a>
</g>
</g>
<!-- Node3&#45;&gt;Node2 -->
<g id="edge2_Node000002_Node000003" class="edge">
<title>Node3&#45;&gt;Node2</title>
<g id="a_edge2_Node000002_Node000003"><a xlink:title=" ">
<path fill="none" stroke="#63b8ff" d="M96.88,-114.56C96.88,-106.34 96.88,-97.59 96.88,-90.38"/>
<polygon fill="#63b8ff" stroke="#63b8ff" points="93.38,-114.49 96.88,-124.49 100.38,-114.49 93.38,-114.49"/>
</a>
</g>
</g>
</g>
</svg>
