<?xml version="1.0" encoding="UTF-8" standalone="no"?>
<!DOCTYPE svg PUBLIC "-//W3C//DTD SVG 1.1//EN"
 "http://www.w3.org/Graphics/SVG/1.1/DTD/svg11.dtd">
<!-- Generated by graphviz version 12.2.1 (0)
 -->
<!-- Title: llzk::polymorphic::ConstReadOpAdaptor Pages: 1 -->
<svg width="166pt" height="309pt"
 viewBox="0.00 0.00 165.75 309.00" xmlns="http://www.w3.org/2000/svg" xmlns:xlink="http://www.w3.org/1999/xlink">
<g id="graph0" class="graph" transform="scale(1 1) rotate(0) translate(4 305)">
<title>llzk::polymorphic::ConstReadOpAdaptor</title>
<!-- Node1 -->
<g id="Node000001" class="node">
<title>Node1</title>
<g id="a_Node000001"><a xlink:title=" ">
<polygon fill="#999999" stroke="#666666" points="139,-33.5 18.75,-33.5 18.75,0 139,0 139,-33.5"/>
<text text-anchor="start" x="26.75" y="-20" font-family="Helvetica,sans-Serif" font-size="10.00">llzk::polymorphic::</text>
<text text-anchor="middle" x="78.88" y="-7.25" font-family="Helvetica,sans-Serif" font-size="10.00">ConstReadOpAdaptor</text>
</a>
</g>
</g>
<!-- Node2 -->
<g id="Node000002" class="node">
<title>Node2</title>
<g id="a_Node000002"><a xlink:href="classllzk_1_1polymorphic_1_1ConstReadOpGenericAdaptor.html" target="_top" xlink:title=" ">
<polygon fill="white" stroke="#666666" points="157.75,-116.75 0,-116.75 0,-70.5 157.75,-70.5 157.75,-116.75"/>
<text text-anchor="start" x="8" y="-103.25" font-family="Helvetica,sans-Serif" font-size="10.00">llzk::polymorphic::</text>
<text text-anchor="start" x="8" y="-90.5" font-family="Helvetica,sans-Serif" font-size="10.00">ConstReadOpGenericAdaptor</text>
<text text-anchor="middle" x="78.88" y="-77.75" font-family="Helvetica,sans-Serif" font-size="10.00">&lt;::mlir::ValueRange &gt;</text>
</a>
</g>
</g>
<!-- Node2&#45;&gt;Node1 -->
<g id="edge1_Node000001_Node000002" class="edge">
<title>Node2&#45;&gt;Node1</title>
<g id="a_edge1_Node000001_Node000002"><a xlink:title=" ">
<path fill="none" stroke="#63b8ff" d="M78.88,-58.67C78.88,-49.99 78.88,-41.07 78.88,-33.78"/>
<polygon fill="#63b8ff" stroke="#63b8ff" points="75.38,-58.65 78.88,-68.65 82.38,-58.65 75.38,-58.65"/>
</a>
</g>
</g>
<!-- Node3 -->
<g id="Node000003" class="node">
<title>Node3</title>
<g id="a_Node000003"><a xlink:href="classllzk_1_1polymorphic_1_1detail_1_1ConstReadOpGenericAdaptorBase.html" target="_top" xlink:title=" ">
<polygon fill="white" stroke="#666666" points="155.5,-200 2.25,-200 2.25,-153.75 155.5,-153.75 155.5,-200"/>
<text text-anchor="start" x="10.25" y="-186.5" font-family="Helvetica,sans-Serif" font-size="10.00">llzk::polymorphic::</text>
<text text-anchor="start" x="10.25" y="-173.75" font-family="Helvetica,sans-Serif" font-size="10.00">detail::ConstReadOpGeneric</text>
<text text-anchor="middle" x="78.88" y="-161" font-family="Helvetica,sans-Serif" font-size="10.00">AdaptorBase</text>
</a>
</g>
</g>
<!-- Node3&#45;&gt;Node2 -->
<g id="edge2_Node000002_Node000003" class="edge">
<title>Node3&#45;&gt;Node2</title>
<g id="a_edge2_Node000002_Node000003"><a xlink:title=" ">
<path fill="none" stroke="#63b8ff" d="M78.88,-142.45C78.88,-133.9 78.88,-124.92 78.88,-117.08"/>
<polygon fill="#63b8ff" stroke="#63b8ff" points="75.38,-142.16 78.88,-152.16 82.38,-142.16 75.38,-142.16"/>
</a>
</g>
</g>
<!-- Node4 -->
<g id="Node000004" class="node">
<title>Node4</title>
<g id="a_Node000004"><a xlink:href="structllzk_1_1polymorphic_1_1detail_1_1ConstReadOpGenericAdaptorBase_1_1Properties.html" target="_top" xlink:title=" ">
<polygon fill="white" stroke="#666666" points="155.5,-301 2.25,-301 2.25,-254.75 155.5,-254.75 155.5,-301"/>
<text text-anchor="start" x="10.25" y="-287.5" font-family="Helvetica,sans-Serif" font-size="10.00">llzk::polymorphic::</text>
<text text-anchor="start" x="10.25" y="-274.75" font-family="Helvetica,sans-Serif" font-size="10.00">detail::ConstReadOpGeneric</text>
<text text-anchor="middle" x="78.88" y="-262" font-family="Helvetica,sans-Serif" font-size="10.00">AdaptorBase::Properties</text>
</a>
</g>
</g>
<!-- Node4&#45;&gt;Node3 -->
<g id="edge3_Node000003_Node000004" class="edge">
<title>Node4&#45;&gt;Node3</title>
<g id="a_edge3_Node000003_Node000004"><a xlink:title=" ">
<path fill="none" stroke="#9a32cd" stroke-dasharray="5,2" d="M78.88,-243.09C78.88,-228.95 78.88,-212.89 78.88,-200.25"/>
<polygon fill="#9a32cd" stroke="#9a32cd" points="75.38,-242.9 78.88,-252.9 82.38,-242.9 75.38,-242.9"/>
</a>
</g>
<text text-anchor="start" x="81.88" y="-224.25" font-family="Helvetica,sans-Serif" font-size="10.00" fill="grey">properties</text>
</g>
</g>
</svg>
