<?xml version="1.0" encoding="UTF-8" standalone="no"?>
<!DOCTYPE svg PUBLIC "-//W3C//DTD SVG 1.1//EN"
 "http://www.w3.org/Graphics/SVG/1.1/DTD/svg11.dtd">
<!-- Generated by graphviz version 12.2.1 (0)
 -->
<!-- Title: llzk::smt::ExtractOpAdaptor Pages: 1 -->
<svg width="172pt" height="271pt"
 viewBox="0.00 0.00 171.75 270.75" xmlns="http://www.w3.org/2000/svg" xmlns:xlink="http://www.w3.org/1999/xlink">
<g id="graph0" class="graph" transform="scale(1 1) rotate(0) translate(4 266.75)">
<title>llzk::smt::ExtractOpAdaptor</title>
<!-- Node1 -->
<g id="Node000001" class="node">
<title>Node1</title>
<g id="a_Node000001"><a xlink:title=" ">
<polygon fill="#999999" stroke="#666666" points="157,-20.75 6.75,-20.75 6.75,0 157,0 157,-20.75"/>
<text text-anchor="middle" x="81.88" y="-7.25" font-family="Helvetica,sans-Serif" font-size="10.00">llzk::smt::ExtractOpAdaptor</text>
</a>
</g>
</g>
<!-- Node2 -->
<g id="Node000002" class="node">
<title>Node2</title>
<g id="a_Node000002"><a xlink:href="classllzk_1_1smt_1_1ExtractOpGenericAdaptor.html" target="_top" xlink:title=" ">
<polygon fill="white" stroke="#666666" points="163.38,-91.25 0.38,-91.25 0.38,-57.75 163.38,-57.75 163.38,-91.25"/>
<text text-anchor="start" x="8.38" y="-77.75" font-family="Helvetica,sans-Serif" font-size="10.00">llzk::smt::ExtractOpGeneric</text>
<text text-anchor="middle" x="81.88" y="-65" font-family="Helvetica,sans-Serif" font-size="10.00">Adaptor&lt;::mlir::ValueRange &gt;</text>
</a>
</g>
</g>
<!-- Node2&#45;&gt;Node1 -->
<g id="edge1_Node000001_Node000002" class="edge">
<title>Node2&#45;&gt;Node1</title>
<g id="a_edge1_Node000001_Node000002"><a xlink:title=" ">
<path fill="none" stroke="#63b8ff" d="M81.88,-46.23C81.88,-37.27 81.88,-27.89 81.88,-21.12"/>
<polygon fill="#63b8ff" stroke="#63b8ff" points="78.38,-45.99 81.88,-55.99 85.38,-45.99 78.38,-45.99"/>
</a>
</g>
</g>
<!-- Node3 -->
<g id="Node000003" class="node">
<title>Node3</title>
<g id="a_Node000003"><a xlink:href="classllzk_1_1smt_1_1detail_1_1ExtractOpGenericAdaptorBase.html" target="_top" xlink:title=" ">
<polygon fill="white" stroke="#666666" points="163.75,-161.75 0,-161.75 0,-128.25 163.75,-128.25 163.75,-161.75"/>
<text text-anchor="start" x="8" y="-148.25" font-family="Helvetica,sans-Serif" font-size="10.00">llzk::smt::detail::</text>
<text text-anchor="middle" x="81.88" y="-135.5" font-family="Helvetica,sans-Serif" font-size="10.00">ExtractOpGenericAdaptorBase</text>
</a>
</g>
</g>
<!-- Node3&#45;&gt;Node2 -->
<g id="edge2_Node000002_Node000003" class="edge">
<title>Node3&#45;&gt;Node2</title>
<g id="a_edge2_Node000002_Node000003"><a xlink:title=" ">
<path fill="none" stroke="#63b8ff" d="M81.88,-116.45C81.88,-108.02 81.88,-99.02 81.88,-91.62"/>
<polygon fill="#63b8ff" stroke="#63b8ff" points="78.38,-116.25 81.88,-126.25 85.38,-116.25 78.38,-116.25"/>
</a>
</g>
</g>
<!-- Node4 -->
<g id="Node000004" class="node">
<title>Node4</title>
<g id="a_Node000004"><a xlink:href="structllzk_1_1smt_1_1detail_1_1ExtractOpGenericAdaptorBase_1_1Properties.html" target="_top" xlink:title=" ">
<polygon fill="white" stroke="#666666" points="163.75,-262.75 0,-262.75 0,-216.5 163.75,-216.5 163.75,-262.75"/>
<text text-anchor="start" x="8" y="-249.25" font-family="Helvetica,sans-Serif" font-size="10.00">llzk::smt::detail::</text>
<text text-anchor="start" x="8" y="-236.5" font-family="Helvetica,sans-Serif" font-size="10.00">ExtractOpGenericAdaptorBase</text>
<text text-anchor="middle" x="81.88" y="-223.75" font-family="Helvetica,sans-Serif" font-size="10.00">::Properties</text>
</a>
</g>
</g>
<!-- Node4&#45;&gt;Node3 -->
<g id="edge3_Node000003_Node000004" class="edge">
<title>Node4&#45;&gt;Node3</title>
<g id="a_edge3_Node000003_Node000004"><a xlink:title=" ">
<path fill="none" stroke="#9a32cd" stroke-dasharray="5,2" d="M81.88,-204.99C81.88,-190.37 81.88,-173.93 81.88,-162.12"/>
<polygon fill="#9a32cd" stroke="#9a32cd" points="78.38,-204.69 81.88,-214.69 85.38,-204.69 78.38,-204.69"/>
</a>
</g>
<text text-anchor="start" x="84.88" y="-186" font-family="Helvetica,sans-Serif" font-size="10.00" fill="grey">properties</text>
</g>
</g>
</svg>
