<?xml version="1.0" encoding="UTF-8" standalone="no"?>
<!DOCTYPE svg PUBLIC "-//W3C//DTD SVG 1.1//EN"
 "http://www.w3.org/Graphics/SVG/1.1/DTD/svg11.dtd">
<!-- Generated by graphviz version 12.2.1 (0)
 -->
<!-- Title: llzk::boolean::detail::AndBoolOpGenericAdaptorBase Pages: 1 -->
<svg width="564pt" height="170pt"
 viewBox="0.00 0.00 563.75 169.88" xmlns="http://www.w3.org/2000/svg" xmlns:xlink="http://www.w3.org/1999/xlink">
<g id="graph0" class="graph" transform="scale(1 1) rotate(0) translate(4 165.88)">
<title>llzk::boolean::detail::AndBoolOpGenericAdaptorBase</title>
<!-- Node1 -->
<g id="Node000001" class="node">
<title>Node1</title>
<g id="a_Node000001"><a xlink:title=" ">
<polygon fill="#999999" stroke="#666666" points="175.75,-91.5 0,-91.5 0,-58 175.75,-58 175.75,-91.5"/>
<text text-anchor="start" x="8" y="-78" font-family="Helvetica,sans-Serif" font-size="10.00">llzk::boolean::detail</text>
<text text-anchor="middle" x="87.88" y="-65.25" font-family="Helvetica,sans-Serif" font-size="10.00">::AndBoolOpGenericAdaptorBase</text>
</a>
</g>
</g>
<!-- Node2 -->
<g id="Node000002" class="node">
<title>Node2</title>
<g id="a_Node000002"><a xlink:href="classllzk_1_1boolean_1_1AndBoolOpGenericAdaptor.html" target="_top" xlink:title=" ">
<polygon fill="white" stroke="#666666" points="381.5,-161.88 211.75,-161.88 211.75,-115.62 381.5,-115.62 381.5,-161.88"/>
<text text-anchor="start" x="219.75" y="-148.38" font-family="Helvetica,sans-Serif" font-size="10.00">llzk::boolean::AndBoolOp</text>
<text text-anchor="start" x="219.75" y="-135.62" font-family="Helvetica,sans-Serif" font-size="10.00">GenericAdaptor&lt;::llvm</text>
<text text-anchor="middle" x="296.62" y="-122.88" font-family="Helvetica,sans-Serif" font-size="10.00">::ArrayRef&lt;::mlir::Attribute &gt; &gt;</text>
</a>
</g>
</g>
<!-- Node1&#45;&gt;Node2 -->
<g id="edge1_Node000001_Node000002" class="edge">
<title>Node1&#45;&gt;Node2</title>
<g id="a_edge1_Node000001_Node000002"><a xlink:title=" ">
<path fill="none" stroke="#63b8ff" d="M155.36,-95.33C175.85,-101.67 198.57,-108.71 219.65,-115.23"/>
<polygon fill="#63b8ff" stroke="#63b8ff" points="156.59,-92.05 146,-92.43 154.52,-98.73 156.59,-92.05"/>
</a>
</g>
</g>
<!-- Node3 -->
<g id="Node000003" class="node">
<title>Node3</title>
<g id="a_Node000003"><a xlink:href="classllzk_1_1boolean_1_1AndBoolOpGenericAdaptor.html" target="_top" xlink:title=" ">
<polygon fill="white" stroke="#666666" points="365.75,-97.88 227.5,-97.88 227.5,-51.62 365.75,-51.62 365.75,-97.88"/>
<text text-anchor="start" x="235.5" y="-84.38" font-family="Helvetica,sans-Serif" font-size="10.00">llzk::boolean::AndBoolOp</text>
<text text-anchor="start" x="235.5" y="-71.62" font-family="Helvetica,sans-Serif" font-size="10.00">GenericAdaptor&lt;::mlir</text>
<text text-anchor="middle" x="296.62" y="-58.88" font-family="Helvetica,sans-Serif" font-size="10.00">::ValueRange &gt;</text>
</a>
</g>
</g>
<!-- Node1&#45;&gt;Node3 -->
<g id="edge2_Node000001_Node000003" class="edge">
<title>Node1&#45;&gt;Node3</title>
<g id="a_edge2_Node000001_Node000003"><a xlink:title=" ">
<path fill="none" stroke="#63b8ff" d="M187.25,-74.75C200.75,-74.75 214.36,-74.75 227.17,-74.75"/>
<polygon fill="#63b8ff" stroke="#63b8ff" points="187.47,-71.25 177.47,-74.75 187.47,-78.25 187.47,-71.25"/>
</a>
</g>
</g>
<!-- Node5 -->
<g id="Node000005" class="node">
<title>Node5</title>
<g id="a_Node000005"><a xlink:href="classllzk_1_1boolean_1_1AndBoolOpGenericAdaptor.html" target="_top" xlink:title=" ">
<polygon fill="white" stroke="#666666" points="372.12,-33.5 221.12,-33.5 221.12,0 372.12,0 372.12,-33.5"/>
<text text-anchor="start" x="229.12" y="-20" font-family="Helvetica,sans-Serif" font-size="10.00">llzk::boolean::AndBoolOp</text>
<text text-anchor="middle" x="296.62" y="-7.25" font-family="Helvetica,sans-Serif" font-size="10.00">GenericAdaptor&lt; RangeT &gt;</text>
</a>
</g>
</g>
<!-- Node1&#45;&gt;Node5 -->
<g id="edge4_Node000001_Node000005" class="edge">
<title>Node1&#45;&gt;Node5</title>
<g id="a_edge4_Node000001_Node000005"><a xlink:title=" ">
<path fill="none" stroke="#63b8ff" d="M161.14,-54.48C185.04,-47.77 211.39,-40.38 234.39,-33.93"/>
<polygon fill="#63b8ff" stroke="#63b8ff" points="160.49,-51.03 151.8,-57.1 162.38,-57.77 160.49,-51.03"/>
</a>
</g>
</g>
<!-- Node4 -->
<g id="Node000004" class="node">
<title>Node4</title>
<g id="a_Node000004"><a xlink:href="classllzk_1_1boolean_1_1AndBoolOpAdaptor.html" target="_top" xlink:title=" ">
<polygon fill="white" stroke="#666666" points="555.75,-91.5 417.5,-91.5 417.5,-58 555.75,-58 555.75,-91.5"/>
<text text-anchor="start" x="425.5" y="-78" font-family="Helvetica,sans-Serif" font-size="10.00">llzk::boolean::AndBoolOp</text>
<text text-anchor="middle" x="486.62" y="-65.25" font-family="Helvetica,sans-Serif" font-size="10.00">Adaptor</text>
</a>
</g>
</g>
<!-- Node3&#45;&gt;Node4 -->
<g id="edge3_Node000003_Node000004" class="edge">
<title>Node3&#45;&gt;Node4</title>
<g id="a_edge3_Node000003_Node000004"><a xlink:title=" ">
<path fill="none" stroke="#63b8ff" d="M377.53,-74.75C390.75,-74.75 404.36,-74.75 417.27,-74.75"/>
<polygon fill="#63b8ff" stroke="#63b8ff" points="377.54,-71.25 367.54,-74.75 377.54,-78.25 377.54,-71.25"/>
</a>
</g>
</g>
</g>
</svg>
