<?xml version="1.0" encoding="UTF-8" standalone="no"?>
<!DOCTYPE svg PUBLIC "-//W3C//DTD SVG 1.1//EN"
 "http://www.w3.org/Graphics/SVG/1.1/DTD/svg11.dtd">
<!-- Generated by graphviz version 12.2.1 (0)
 -->
<!-- Title: llzk::function::FuncDefOpGenericAdaptor&lt; RangeT &gt; Pages: 1 -->
<svg width="183pt" height="213pt"
 viewBox="0.00 0.00 183.00 213.00" xmlns="http://www.w3.org/2000/svg" xmlns:xlink="http://www.w3.org/1999/xlink">
<g id="graph0" class="graph" transform="scale(1 1) rotate(0) translate(4 209)">
<title>llzk::function::FuncDefOpGenericAdaptor&lt; RangeT &gt;</title>
<!-- Node1 -->
<g id="Node000001" class="node">
<title>Node1</title>
<g id="a_Node000001"><a xlink:title=" ">
<polygon fill="#999999" stroke="#666666" points="163,-33.5 12,-33.5 12,0 163,0 163,-33.5"/>
<text text-anchor="start" x="20" y="-20" font-family="Helvetica,sans-Serif" font-size="10.00">llzk::function::FuncDefOp</text>
<text text-anchor="middle" x="87.5" y="-7.25" font-family="Helvetica,sans-Serif" font-size="10.00">GenericAdaptor&lt; RangeT &gt;</text>
</a>
</g>
</g>
<!-- Node2 -->
<g id="Node000002" class="node">
<title>Node2</title>
<g id="a_Node000002"><a xlink:href="classllzk_1_1function_1_1detail_1_1FuncDefOpGenericAdaptorBase.html" target="_top" xlink:title=" ">
<polygon fill="white" stroke="#666666" points="175,-104 0,-104 0,-70.5 175,-70.5 175,-104"/>
<text text-anchor="start" x="8" y="-90.5" font-family="Helvetica,sans-Serif" font-size="10.00">llzk::function::detail</text>
<text text-anchor="middle" x="87.5" y="-77.75" font-family="Helvetica,sans-Serif" font-size="10.00">::FuncDefOpGenericAdaptorBase</text>
</a>
</g>
</g>
<!-- Node2&#45;&gt;Node1 -->
<g id="edge1_Node000001_Node000002" class="edge">
<title>Node2&#45;&gt;Node1</title>
<g id="a_edge1_Node000001_Node000002"><a xlink:title=" ">
<path fill="none" stroke="#63b8ff" d="M87.5,-58.7C87.5,-50.27 87.5,-41.27 87.5,-33.87"/>
<polygon fill="#63b8ff" stroke="#63b8ff" points="84,-58.5 87.5,-68.5 91,-58.5 84,-58.5"/>
</a>
</g>
</g>
<!-- Node3 -->
<g id="Node000003" class="node">
<title>Node3</title>
<g id="a_Node000003"><a xlink:href="structllzk_1_1function_1_1detail_1_1FuncDefOpGenericAdaptorBase_1_1Properties.html" target="_top" xlink:title=" ">
<polygon fill="white" stroke="#666666" points="175,-205 0,-205 0,-158.75 175,-158.75 175,-205"/>
<text text-anchor="start" x="8" y="-191.5" font-family="Helvetica,sans-Serif" font-size="10.00">llzk::function::detail</text>
<text text-anchor="start" x="8" y="-178.75" font-family="Helvetica,sans-Serif" font-size="10.00">::FuncDefOpGenericAdaptorBase</text>
<text text-anchor="middle" x="87.5" y="-166" font-family="Helvetica,sans-Serif" font-size="10.00">::Properties</text>
</a>
</g>
</g>
<!-- Node3&#45;&gt;Node2 -->
<g id="edge2_Node000002_Node000003" class="edge">
<title>Node3&#45;&gt;Node2</title>
<g id="a_edge2_Node000002_Node000003"><a xlink:title=" ">
<path fill="none" stroke="#9a32cd" stroke-dasharray="5,2" d="M87.5,-147.24C87.5,-132.62 87.5,-116.18 87.5,-104.37"/>
<polygon fill="#9a32cd" stroke="#9a32cd" points="84,-146.94 87.5,-156.94 91,-146.94 84,-146.94"/>
</a>
</g>
<text text-anchor="start" x="90.5" y="-128.25" font-family="Helvetica,sans-Serif" font-size="10.00" fill="grey">properties</text>
</g>
</g>
</svg>
