<?xml version="1.0" encoding="UTF-8" standalone="no"?>
<!DOCTYPE svg PUBLIC "-//W3C//DTD SVG 1.1//EN"
 "http://www.w3.org/Graphics/SVG/1.1/DTD/svg11.dtd">
<!-- Generated by graphviz version 12.2.1 (0)
 -->
<!-- Title: build/include/llzk/Config/Config.h Pages: 1 -->
<svg width="2075pt" height="181pt"
 viewBox="0.00 0.00 2075.38 180.50" xmlns="http://www.w3.org/2000/svg" xmlns:xlink="http://www.w3.org/1999/xlink">
<g id="graph0" class="graph" transform="scale(1 1) rotate(0) translate(4 176.5)">
<title>build/include/llzk/Config/Config.h</title>
<!-- Node1 -->
<g id="Node000001" class="node">
<title>Node1</title>
<g id="a_Node000001"><a xlink:title=" ">
<polygon fill="#999999" stroke="#666666" points="1746.62,-172.5 1648.12,-172.5 1648.12,-139 1746.62,-139 1746.62,-172.5"/>
<text text-anchor="start" x="1656.12" y="-159" font-family="Helvetica,sans-Serif" font-size="10.00">build/include/llzk</text>
<text text-anchor="middle" x="1697.38" y="-146.25" font-family="Helvetica,sans-Serif" font-size="10.00">/Config/Config.h</text>
</a>
</g>
</g>
<!-- Node2 -->
<g id="Node000002" class="node">
<title>Node2</title>
<g id="a_Node000002"><a xlink:href="LLZKTransformationPasses_8h.html" target="_top" xlink:title=" ">
<polygon fill="white" stroke="#666666" points="1165.25,-103 1007.5,-103 1007.5,-69.5 1165.25,-69.5 1165.25,-103"/>
<text text-anchor="start" x="1015.5" y="-89.5" font-family="Helvetica,sans-Serif" font-size="10.00">include/llzk/Transforms</text>
<text text-anchor="middle" x="1086.38" y="-76.75" font-family="Helvetica,sans-Serif" font-size="10.00">/LLZKTransformationPasses.h</text>
</a>
</g>
</g>
<!-- Node1&#45;&gt;Node2 -->
<g id="edge1_Node000001_Node000002" class="edge">
<title>Node1&#45;&gt;Node2</title>
<g id="a_edge1_Node000001_Node000002"><a xlink:title=" ">
<path fill="none" stroke="#63b8ff" d="M1636.29,-148C1524.94,-135.7 1289.09,-109.64 1165.57,-96"/>
<polygon fill="#63b8ff" stroke="#63b8ff" points="1635.81,-151.47 1646.13,-149.09 1636.57,-144.51 1635.81,-151.47"/>
</a>
</g>
</g>
<!-- Node14 -->
<g id="Node000014" class="node">
<title>Node14</title>
<g id="a_Node000014"><a xlink:href="llzk-opt_8cpp.html" target="_top" xlink:title="This file implements a version of the mlir&#45;opt tool configured for use on LLZK files.">
<polygon fill="white" stroke="#666666" points="2067.38,-33.5 1967.38,-33.5 1967.38,0 2067.38,0 2067.38,-33.5"/>
<text text-anchor="start" x="1975.38" y="-20" font-family="Helvetica,sans-Serif" font-size="10.00">tools/llzk&#45;opt/llzk</text>
<text text-anchor="middle" x="2017.38" y="-7.25" font-family="Helvetica,sans-Serif" font-size="10.00">&#45;opt.cpp</text>
</a>
</g>
</g>
<!-- Node1&#45;&gt;Node14 -->
<g id="edge17_Node000001_Node000014" class="edge">
<title>Node1&#45;&gt;Node14</title>
<g id="a_edge17_Node000001_Node000014"><a xlink:title=" ">
<path fill="none" stroke="#63b8ff" d="M1652.24,-132.7C1641.12,-124.94 1630.62,-115.08 1624.38,-103 1617.54,-89.77 1614.43,-80.58 1624.38,-69.5 1674.25,-13.96 1884.98,-47.17 1958.38,-33.5 1961.19,-32.98 1964.07,-32.39 1966.96,-31.75"/>
<polygon fill="#63b8ff" stroke="#63b8ff" points="1650.07,-135.46 1660.38,-137.9 1653.84,-129.57 1650.07,-135.46"/>
</a>
</g>
</g>
<!-- Node15 -->
<g id="Node000015" class="node">
<title>Node15</title>
<g id="a_Node000015"><a xlink:href="PCL_8cpp.html" target="_top" xlink:title=" ">
<polygon fill="white" stroke="#666666" points="1761.25,-96.62 1633.5,-96.62 1633.5,-75.88 1761.25,-75.88 1761.25,-96.62"/>
<text text-anchor="middle" x="1697.38" y="-83.12" font-family="Helvetica,sans-Serif" font-size="10.00">lib/CAPI/Target/PCL.cpp</text>
</a>
</g>
</g>
<!-- Node1&#45;&gt;Node15 -->
<g id="edge14_Node000001_Node000015" class="edge">
<title>Node1&#45;&gt;Node15</title>
<g id="a_edge14_Node000001_Node000015"><a xlink:title=" ">
<path fill="none" stroke="#63b8ff" d="M1697.38,-127.28C1697.38,-116.58 1697.38,-105.01 1697.38,-97.07"/>
<polygon fill="#63b8ff" stroke="#63b8ff" points="1693.88,-127.24 1697.38,-137.24 1700.88,-127.24 1693.88,-127.24"/>
</a>
</g>
</g>
<!-- Node16 -->
<g id="Node000016" class="node">
<title>Node16</title>
<g id="a_Node000016"><a xlink:href="LLZK_2IR_2Dialect_8cpp.html" target="_top" xlink:title=" ">
<polygon fill="white" stroke="#666666" points="1885,-103 1779.75,-103 1779.75,-69.5 1885,-69.5 1885,-103"/>
<text text-anchor="start" x="1787.75" y="-89.5" font-family="Helvetica,sans-Serif" font-size="10.00">lib/Dialect/LLZK/IR</text>
<text text-anchor="middle" x="1832.38" y="-76.75" font-family="Helvetica,sans-Serif" font-size="10.00">/Dialect.cpp</text>
</a>
</g>
</g>
<!-- Node1&#45;&gt;Node16 -->
<g id="edge15_Node000001_Node000016" class="edge">
<title>Node1&#45;&gt;Node16</title>
<g id="a_edge15_Node000001_Node000016"><a xlink:title=" ">
<path fill="none" stroke="#63b8ff" d="M1739.89,-133.49C1759.43,-123.72 1782.23,-112.32 1800.3,-103.29"/>
<polygon fill="#63b8ff" stroke="#63b8ff" points="1738.44,-130.3 1731.06,-137.91 1741.57,-136.56 1738.44,-130.3"/>
</a>
</g>
</g>
<!-- Node17 -->
<g id="Node000017" class="node">
<title>Node17</title>
<g id="a_Node000017"><a xlink:href="Versioning_8cpp.html" target="_top" xlink:title=" ">
<polygon fill="white" stroke="#666666" points="2008,-103 1902.75,-103 1902.75,-69.5 2008,-69.5 2008,-103"/>
<text text-anchor="start" x="1910.75" y="-89.5" font-family="Helvetica,sans-Serif" font-size="10.00">lib/Dialect/LLZK/IR</text>
<text text-anchor="middle" x="1955.38" y="-76.75" font-family="Helvetica,sans-Serif" font-size="10.00">/Versioning.cpp</text>
</a>
</g>
</g>
<!-- Node1&#45;&gt;Node17 -->
<g id="edge16_Node000001_Node000017" class="edge">
<title>Node1&#45;&gt;Node17</title>
<g id="a_edge16_Node000001_Node000017"><a xlink:title=" ">
<path fill="none" stroke="#63b8ff" d="M1758.23,-138.83C1802.12,-127.35 1860.78,-112 1902.68,-101.04"/>
<polygon fill="#63b8ff" stroke="#63b8ff" points="1757.37,-135.44 1748.58,-141.35 1759.14,-142.21 1757.37,-135.44"/>
</a>
</g>
</g>
<!-- Node3 -->
<g id="Node000003" class="node">
<title>Node3</title>
<g id="a_Node000003"><a xlink:href="Transforms_8cpp.html" target="_top" xlink:title=" ">
<polygon fill="white" stroke="#666666" points="130.75,-27.12 0,-27.12 0,-6.38 130.75,-6.38 130.75,-27.12"/>
<text text-anchor="middle" x="65.38" y="-13.62" font-family="Helvetica,sans-Serif" font-size="10.00">lib/CAPI/Transforms.cpp</text>
</a>
</g>
</g>
<!-- Node2&#45;&gt;Node3 -->
<g id="edge2_Node000002_Node000003" class="edge">
<title>Node2&#45;&gt;Node3</title>
<g id="a_edge2_Node000002_Node000003"><a xlink:title=" ">
<path fill="none" stroke="#63b8ff" d="M995.89,-84.87C827,-83.16 452.63,-74.58 140.38,-33.5 129.29,-32.04 117.41,-29.85 106.44,-27.55"/>
<polygon fill="#63b8ff" stroke="#63b8ff" points="995.65,-88.37 1005.69,-84.97 995.72,-81.37 995.65,-88.37"/>
</a>
</g>
</g>
<!-- Node4 -->
<g id="Node000004" class="node">
<title>Node4</title>
<g id="a_Node000004"><a xlink:href="Dialect_2InitDialects_8cpp.html" target="_top" xlink:title=" ">
<polygon fill="white" stroke="#666666" points="293.5,-27.12 149.25,-27.12 149.25,-6.38 293.5,-6.38 293.5,-27.12"/>
<text text-anchor="middle" x="221.38" y="-13.62" font-family="Helvetica,sans-Serif" font-size="10.00">lib/Dialect/InitDialects.cpp</text>
</a>
</g>
</g>
<!-- Node2&#45;&gt;Node4 -->
<g id="edge3_Node000002_Node000004" class="edge">
<title>Node2&#45;&gt;Node4</title>
<g id="a_edge3_Node000002_Node000004"><a xlink:title=" ">
<path fill="none" stroke="#63b8ff" d="M995.92,-82.98C849.62,-78.49 552.21,-65.9 302.38,-33.5 290.73,-31.99 278.23,-29.83 266.62,-27.59"/>
<polygon fill="#63b8ff" stroke="#63b8ff" points="995.43,-86.47 1005.53,-83.27 995.64,-79.47 995.43,-86.47"/>
</a>
</g>
</g>
<!-- Node5 -->
<g id="Node000005" class="node">
<title>Node5</title>
<g id="a_Node000005"><a xlink:href="LLZKComputeConstrainToProductPass_8cpp.html" target="_top" xlink:title="This file implements the &#45;llzk&#45;product&#45;program pass.">
<polygon fill="white" stroke="#666666" points="467.12,-33.5 311.62,-33.5 311.62,0 467.12,0 467.12,-33.5"/>
<text text-anchor="start" x="319.62" y="-20" font-family="Helvetica,sans-Serif" font-size="10.00">lib/Transforms/LLZKCompute</text>
<text text-anchor="middle" x="389.38" y="-7.25" font-family="Helvetica,sans-Serif" font-size="10.00">ConstrainToProductPass.cpp</text>
</a>
</g>
</g>
<!-- Node2&#45;&gt;Node5 -->
<g id="edge4_Node000002_Node000005" class="edge">
<title>Node2&#45;&gt;Node5</title>
<g id="a_edge4_Node000002_Node000005"><a xlink:title=" ">
<path fill="none" stroke="#63b8ff" d="M995.75,-80.32C876.19,-73.19 659.37,-58.08 475.38,-33.5 472.82,-33.16 470.22,-32.79 467.6,-32.41"/>
<polygon fill="#63b8ff" stroke="#63b8ff" points="995.32,-83.8 1005.51,-80.9 995.73,-76.81 995.32,-83.8"/>
</a>
</g>
</g>
<!-- Node6 -->
<g id="Node000006" class="node">
<title>Node6</title>
<g id="a_Node000006"><a xlink:href="LLZKFuseProductLoopsPass_8cpp.html" target="_top" xlink:title="This file implements the &#45;llzk&#45;fuse&#45;product&#45;loops pass.">
<polygon fill="white" stroke="#666666" points="656,-33.5 484.75,-33.5 484.75,0 656,0 656,-33.5"/>
<text text-anchor="start" x="492.75" y="-20" font-family="Helvetica,sans-Serif" font-size="10.00">lib/Transforms/LLZKFuseProduct</text>
<text text-anchor="middle" x="570.38" y="-7.25" font-family="Helvetica,sans-Serif" font-size="10.00">LoopsPass.cpp</text>
</a>
</g>
</g>
<!-- Node2&#45;&gt;Node6 -->
<g id="edge5_Node000002_Node000006" class="edge">
<title>Node2&#45;&gt;Node6</title>
<g id="a_edge5_Node000002_Node000006"><a xlink:title=" ">
<path fill="none" stroke="#63b8ff" d="M996.06,-75.34C910.51,-65.67 778.5,-50.05 664.38,-33.5 661.75,-33.12 659.1,-32.73 656.41,-32.32"/>
<polygon fill="#63b8ff" stroke="#63b8ff" points="995.46,-78.79 1005.79,-76.43 996.24,-71.84 995.46,-78.79"/>
</a>
</g>
</g>
<!-- Node7 -->
<g id="Node000007" class="node">
<title>Node7</title>
<g id="a_Node000007"><a xlink:href="LLZKInlineStructsPass_8cpp.html" target="_top" xlink:title="This file implements the &#45;llzk&#45;inline&#45;structs pass.">
<polygon fill="white" stroke="#666666" points="812.88,-33.5 673.88,-33.5 673.88,0 812.88,0 812.88,-33.5"/>
<text text-anchor="start" x="681.88" y="-20" font-family="Helvetica,sans-Serif" font-size="10.00">lib/Transforms/LLZKInline</text>
<text text-anchor="middle" x="743.38" y="-7.25" font-family="Helvetica,sans-Serif" font-size="10.00">StructsPass.cpp</text>
</a>
</g>
</g>
<!-- Node2&#45;&gt;Node7 -->
<g id="edge6_Node000002_Node000007" class="edge">
<title>Node2&#45;&gt;Node7</title>
<g id="a_edge6_Node000002_Node000007"><a xlink:title=" ">
<path fill="none" stroke="#63b8ff" d="M996.23,-67.65C945.21,-57.68 880.22,-44.93 822.38,-33.5 819.36,-32.9 816.27,-32.29 813.16,-31.68"/>
<polygon fill="#63b8ff" stroke="#63b8ff" points="995.26,-71.03 1005.74,-69.51 996.6,-64.16 995.26,-71.03"/>
</a>
</g>
</g>
<!-- Node8 -->
<g id="Node000008" class="node">
<title>Node8</title>
<g id="a_Node000008"><a xlink:href="LLZKInliningExtensions_8cpp.html" target="_top" xlink:title=" ">
<polygon fill="white" stroke="#666666" points="979.38,-33.5 831.38,-33.5 831.38,0 979.38,0 979.38,-33.5"/>
<text text-anchor="start" x="839.38" y="-20" font-family="Helvetica,sans-Serif" font-size="10.00">lib/Transforms/LLZKInlining</text>
<text text-anchor="middle" x="905.38" y="-7.25" font-family="Helvetica,sans-Serif" font-size="10.00">Extensions.cpp</text>
</a>
</g>
</g>
<!-- Node2&#45;&gt;Node8 -->
<g id="edge7_Node000002_Node000008" class="edge">
<title>Node2&#45;&gt;Node8</title>
<g id="a_edge7_Node000002_Node000008"><a xlink:title=" ">
<path fill="none" stroke="#63b8ff" d="M1032.3,-65.08C1005.58,-55.12 973.78,-43.26 948.69,-33.9"/>
<polygon fill="#63b8ff" stroke="#63b8ff" points="1031.01,-68.34 1041.6,-68.55 1033.46,-61.78 1031.01,-68.34"/>
</a>
</g>
</g>
<!-- Node9 -->
<g id="Node000009" class="node">
<title>Node9</title>
<g id="a_Node000009"><a xlink:href="LLZKPolyLoweringPass_8cpp.html" target="_top" xlink:title="This file implements the &#45;llzk&#45;poly&#45;lowering pass.">
<polygon fill="white" stroke="#666666" points="1175,-33.5 997.75,-33.5 997.75,0 1175,0 1175,-33.5"/>
<text text-anchor="start" x="1005.75" y="-20" font-family="Helvetica,sans-Serif" font-size="10.00">lib/Transforms/LLZKPolyLowering</text>
<text text-anchor="middle" x="1086.38" y="-7.25" font-family="Helvetica,sans-Serif" font-size="10.00">Pass.cpp</text>
</a>
</g>
</g>
<!-- Node2&#45;&gt;Node9 -->
<g id="edge8_Node000002_Node000009" class="edge">
<title>Node2&#45;&gt;Node9</title>
<g id="a_edge8_Node000002_Node000009"><a xlink:title=" ">
<path fill="none" stroke="#63b8ff" d="M1086.38,-57.81C1086.38,-49.59 1086.38,-40.84 1086.38,-33.63"/>
<polygon fill="#63b8ff" stroke="#63b8ff" points="1082.88,-57.74 1086.38,-67.74 1089.88,-57.74 1082.88,-57.74"/>
</a>
</g>
</g>
<!-- Node10 -->
<g id="Node000010" class="node">
<title>Node10</title>
<g id="a_Node000010"><a xlink:href="LLZKRedundantOperationEliminationPass_8cpp.html" target="_top" xlink:title="This file implements the &#45;llzk&#45;duplicate&#45;op&#45;elim pass.">
<polygon fill="white" stroke="#666666" points="1357.62,-33.5 1193.12,-33.5 1193.12,0 1357.62,0 1357.62,-33.5"/>
<text text-anchor="start" x="1201.12" y="-20" font-family="Helvetica,sans-Serif" font-size="10.00">lib/Transforms/LLZKRedundant</text>
<text text-anchor="middle" x="1275.38" y="-7.25" font-family="Helvetica,sans-Serif" font-size="10.00">OperationEliminationPass.cpp</text>
</a>
</g>
</g>
<!-- Node2&#45;&gt;Node10 -->
<g id="edge9_Node000002_Node000010" class="edge">
<title>Node2&#45;&gt;Node10</title>
<g id="a_edge9_Node000002_Node000010"><a xlink:title=" ">
<path fill="none" stroke="#63b8ff" d="M1142.47,-65.22C1170.45,-55.22 1203.83,-43.3 1230.15,-33.9"/>
<polygon fill="#63b8ff" stroke="#63b8ff" points="1141.31,-61.91 1133.07,-68.57 1143.67,-68.51 1141.31,-61.91"/>
</a>
</g>
</g>
<!-- Node11 -->
<g id="Node000011" class="node">
<title>Node11</title>
<g id="a_Node000011"><a xlink:href="LLZKRedundantReadAndWriteEliminationPass_8cpp.html" target="_top" xlink:title="This file implements the &#45;llzk&#45;duplicate&#45;read&#45;write&#45;elim pass.">
<polygon fill="white" stroke="#666666" points="1559,-33.5 1375.75,-33.5 1375.75,0 1559,0 1559,-33.5"/>
<text text-anchor="start" x="1383.75" y="-20" font-family="Helvetica,sans-Serif" font-size="10.00">lib/Transforms/LLZKRedundant</text>
<text text-anchor="middle" x="1467.38" y="-7.25" font-family="Helvetica,sans-Serif" font-size="10.00">ReadAndWriteEliminationPass.cpp</text>
</a>
</g>
</g>
<!-- Node2&#45;&gt;Node11 -->
<g id="edge10_Node000002_Node000011" class="edge">
<title>Node2&#45;&gt;Node11</title>
<g id="a_edge10_Node000002_Node000011"><a xlink:title=" ">
<path fill="none" stroke="#63b8ff" d="M1176.32,-69.31C1236.46,-58.66 1315.33,-44.69 1375.8,-33.97"/>
<polygon fill="#63b8ff" stroke="#63b8ff" points="1176.04,-65.81 1166.81,-71 1177.27,-72.7 1176.04,-65.81"/>
</a>
</g>
</g>
<!-- Node12 -->
<g id="Node000012" class="node">
<title>Node12</title>
<g id="a_Node000012"><a xlink:href="LLZKTransformationPassPipelines_8cpp.html" target="_top" xlink:title="This file implements logic for registering several pass pipelines.">
<polygon fill="white" stroke="#666666" points="1761.75,-33.5 1577,-33.5 1577,0 1761.75,0 1761.75,-33.5"/>
<text text-anchor="start" x="1585" y="-20" font-family="Helvetica,sans-Serif" font-size="10.00">lib/Transforms/LLZKTransformation</text>
<text text-anchor="middle" x="1669.38" y="-7.25" font-family="Helvetica,sans-Serif" font-size="10.00">PassPipelines.cpp</text>
</a>
</g>
</g>
<!-- Node2&#45;&gt;Node12 -->
<g id="edge11_Node000002_Node000012" class="edge">
<title>Node2&#45;&gt;Node12</title>
<g id="a_edge11_Node000002_Node000012"><a xlink:title=" ">
<path fill="none" stroke="#63b8ff" d="M1176.63,-76.86C1273.59,-67.54 1432.13,-51.43 1568.38,-33.5 1571.1,-33.14 1573.87,-32.77 1576.66,-32.38"/>
<polygon fill="#63b8ff" stroke="#63b8ff" points="1176.54,-73.35 1166.92,-77.79 1177.21,-80.32 1176.54,-73.35"/>
</a>
</g>
</g>
<!-- Node13 -->
<g id="Node000013" class="node">
<title>Node13</title>
<g id="a_Node000013"><a xlink:href="LLZKUnusedDeclarationEliminationPass_8cpp.html" target="_top" xlink:title="This file implements the &#45;llzk&#45;unused&#45;declaration&#45;elim pass.">
<polygon fill="white" stroke="#666666" points="1949.25,-33.5 1779.5,-33.5 1779.5,0 1949.25,0 1949.25,-33.5"/>
<text text-anchor="start" x="1787.5" y="-20" font-family="Helvetica,sans-Serif" font-size="10.00">lib/Transforms/LLZKUnused</text>
<text text-anchor="middle" x="1864.38" y="-7.25" font-family="Helvetica,sans-Serif" font-size="10.00">DeclarationEliminationPass.cpp</text>
</a>
</g>
</g>
<!-- Node2&#45;&gt;Node13 -->
<g id="edge12_Node000002_Node000013" class="edge">
<title>Node2&#45;&gt;Node13</title>
<g id="a_edge12_Node000002_Node000013"><a xlink:title=" ">
<path fill="none" stroke="#63b8ff" d="M1176.75,-81.02C1307.89,-74.3 1558.43,-59.22 1770.38,-33.5 1773.25,-33.15 1776.17,-32.78 1779.12,-32.38"/>
<polygon fill="#63b8ff" stroke="#63b8ff" points="1176.92,-77.51 1167.11,-81.51 1177.27,-84.5 1176.92,-77.51"/>
</a>
</g>
</g>
<!-- Node2&#45;&gt;Node14 -->
<g id="edge13_Node000002_Node000014" class="edge">
<title>Node2&#45;&gt;Node14</title>
<g id="a_edge13_Node000002_Node000014"><a xlink:title=" ">
<path fill="none" stroke="#63b8ff" d="M1176.97,-82.19C1368.68,-75.34 1810.01,-57.45 1958.38,-33.5 1961.2,-33.04 1964.09,-32.51 1966.99,-31.92"/>
<polygon fill="#63b8ff" stroke="#63b8ff" points="1176.91,-78.69 1167.05,-82.54 1177.16,-85.69 1176.91,-78.69"/>
</a>
</g>
</g>
</g>
</svg>
