<?xml version="1.0" encoding="UTF-8" standalone="no"?>
<!DOCTYPE svg PUBLIC "-//W3C//DTD SVG 1.1//EN"
 "http://www.w3.org/Graphics/SVG/1.1/DTD/svg11.dtd">
<!-- Generated by graphviz version 12.2.1 (0)
 -->
<!-- Title: build/include/llzk/Config/Config.h Pages: 1 -->
<svg width="3634pt" height="250pt"
 viewBox="0.00 0.00 3634.12 250.00" xmlns="http://www.w3.org/2000/svg" xmlns:xlink="http://www.w3.org/1999/xlink">
<g id="graph0" class="graph" transform="scale(1 1) rotate(0) translate(4 246)">
<title>build/include/llzk/Config/Config.h</title>
<!-- Node1 -->
<g id="Node000001" class="node">
<title>Node1</title>
<g id="a_Node000001"><a xlink:title=" ">
<polygon fill="#999999" stroke="#666666" points="3306.62,-242 3208.12,-242 3208.12,-208.5 3306.62,-208.5 3306.62,-242"/>
<text text-anchor="start" x="3216.12" y="-228.5" font-family="Helvetica,sans-Serif" font-size="10.00">build/include/llzk</text>
<text text-anchor="middle" x="3257.38" y="-215.75" font-family="Helvetica,sans-Serif" font-size="10.00">/Config/Config.h</text>
</a>
</g>
</g>
<!-- Node2 -->
<g id="Node000002" class="node">
<title>Node2</title>
<g id="a_Node000002"><a xlink:href="LLZKTransformationPasses_8h.html" target="_top" xlink:title=" ">
<polygon fill="white" stroke="#666666" points="1596.25,-172.5 1438.5,-172.5 1438.5,-139 1596.25,-139 1596.25,-172.5"/>
<text text-anchor="start" x="1446.5" y="-159" font-family="Helvetica,sans-Serif" font-size="10.00">include/llzk/Transforms</text>
<text text-anchor="middle" x="1517.38" y="-146.25" font-family="Helvetica,sans-Serif" font-size="10.00">/LLZKTransformationPasses.h</text>
</a>
</g>
</g>
<!-- Node1&#45;&gt;Node2 -->
<g id="edge1_Node000001_Node000002" class="edge">
<title>Node1&#45;&gt;Node2</title>
<g id="a_edge1_Node000001_Node000002"><a xlink:title=" ">
<path fill="none" stroke="#63b8ff" d="M3196.42,-221.89C2933.06,-211.67 1892.93,-171.32 1596.57,-159.82"/>
<polygon fill="#63b8ff" stroke="#63b8ff" points="3196,-225.37 3206.13,-222.26 3196.27,-218.38 3196,-225.37"/>
</a>
</g>
</g>
<!-- Node5 -->
<g id="Node000005" class="node">
<title>Node5</title>
<g id="a_Node000005"><a xlink:href="llzk-opt_8cpp.html" target="_top" xlink:title="This file implements a version of the mlir&#45;opt tool configured for use on LLZK files.">
<polygon fill="white" stroke="#666666" points="302.38,-33.5 202.38,-33.5 202.38,0 302.38,0 302.38,-33.5"/>
<text text-anchor="start" x="210.38" y="-20" font-family="Helvetica,sans-Serif" font-size="10.00">tools/llzk&#45;opt/llzk</text>
<text text-anchor="middle" x="252.38" y="-7.25" font-family="Helvetica,sans-Serif" font-size="10.00">&#45;opt.cpp</text>
</a>
</g>
</g>
<!-- Node1&#45;&gt;Node5 -->
<g id="edge25_Node000001_Node000005" class="edge">
<title>Node1&#45;&gt;Node5</title>
<g id="a_edge25_Node000001_Node000005"><a xlink:title=" ">
<path fill="none" stroke="#63b8ff" d="M3196.64,-213.83C3169.37,-206.38 3138.63,-193.76 3117.38,-172.5 3082.88,-137.99 3119.15,-97.76 3079.38,-69.5 3020.48,-27.65 677.58,-19 302.72,-17.89"/>
<polygon fill="#63b8ff" stroke="#63b8ff" points="3195.65,-217.19 3206.21,-216.25 3197.37,-210.4 3195.65,-217.19"/>
</a>
</g>
</g>
<!-- Node22 -->
<g id="Node000022" class="node">
<title>Node22</title>
<g id="a_Node000022"><a xlink:href="PCL_8cpp.html" target="_top" xlink:title=" ">
<polygon fill="white" stroke="#666666" points="3254.25,-166.12 3126.5,-166.12 3126.5,-145.38 3254.25,-145.38 3254.25,-166.12"/>
<text text-anchor="middle" x="3190.38" y="-152.62" font-family="Helvetica,sans-Serif" font-size="10.00">lib/CAPI/Target/PCL.cpp</text>
</a>
</g>
</g>
<!-- Node1&#45;&gt;Node22 -->
<g id="edge22_Node000001_Node000022" class="edge">
<title>Node1&#45;&gt;Node22</title>
<g id="a_edge22_Node000001_Node000022"><a xlink:title=" ">
<path fill="none" stroke="#63b8ff" d="M3233.5,-200.2C3222,-188.61 3208.85,-175.36 3200.12,-166.57"/>
<polygon fill="#63b8ff" stroke="#63b8ff" points="3230.9,-202.55 3240.43,-207.18 3235.87,-197.62 3230.9,-202.55"/>
</a>
</g>
</g>
<!-- Node23 -->
<g id="Node000023" class="node">
<title>Node23</title>
<g id="a_Node000023"><a xlink:href="LLZK_2IR_2Dialect_8cpp.html" target="_top" xlink:title=" ">
<polygon fill="white" stroke="#666666" points="3378,-172.5 3272.75,-172.5 3272.75,-139 3378,-139 3378,-172.5"/>
<text text-anchor="start" x="3280.75" y="-159" font-family="Helvetica,sans-Serif" font-size="10.00">lib/Dialect/LLZK/IR</text>
<text text-anchor="middle" x="3325.38" y="-146.25" font-family="Helvetica,sans-Serif" font-size="10.00">/Dialect.cpp</text>
</a>
</g>
</g>
<!-- Node1&#45;&gt;Node23 -->
<g id="edge23_Node000001_Node000023" class="edge">
<title>Node1&#45;&gt;Node23</title>
<g id="a_edge23_Node000001_Node000023"><a xlink:title=" ">
<path fill="none" stroke="#63b8ff" d="M3281.58,-200.22C3290.81,-191.06 3301.09,-180.85 3309.38,-172.63"/>
<polygon fill="#63b8ff" stroke="#63b8ff" points="3279.2,-197.66 3274.56,-207.19 3284.13,-202.63 3279.2,-197.66"/>
</a>
</g>
</g>
<!-- Node24 -->
<g id="Node000024" class="node">
<title>Node24</title>
<g id="a_Node000024"><a xlink:href="Versioning_8cpp.html" target="_top" xlink:title=" ">
<polygon fill="white" stroke="#666666" points="3501,-172.5 3395.75,-172.5 3395.75,-139 3501,-139 3501,-172.5"/>
<text text-anchor="start" x="3403.75" y="-159" font-family="Helvetica,sans-Serif" font-size="10.00">lib/Dialect/LLZK/IR</text>
<text text-anchor="middle" x="3448.38" y="-146.25" font-family="Helvetica,sans-Serif" font-size="10.00">/Versioning.cpp</text>
</a>
</g>
</g>
<!-- Node1&#45;&gt;Node24 -->
<g id="edge24_Node000001_Node000024" class="edge">
<title>Node1&#45;&gt;Node24</title>
<g id="a_edge24_Node000001_Node000024"><a xlink:title=" ">
<path fill="none" stroke="#63b8ff" d="M3313.69,-204.35C3342.04,-194.33 3375.96,-182.34 3402.67,-172.9"/>
<polygon fill="#63b8ff" stroke="#63b8ff" points="3312.81,-200.95 3304.55,-207.58 3315.15,-207.55 3312.81,-200.95"/>
</a>
</g>
</g>
<!-- Node25 -->
<g id="Node000025" class="node">
<title>Node25</title>
<g id="a_Node000025"><a xlink:href="llzk-translate_8cpp.html" target="_top" xlink:title="This file implements a version of the mlir&#45;translate tool configured for use on LLZK files.">
<polygon fill="white" stroke="#666666" points="3626.12,-172.5 3518.62,-172.5 3518.62,-139 3626.12,-139 3626.12,-172.5"/>
<text text-anchor="start" x="3526.62" y="-159" font-family="Helvetica,sans-Serif" font-size="10.00">tools/llzk&#45;translate</text>
<text text-anchor="middle" x="3572.38" y="-146.25" font-family="Helvetica,sans-Serif" font-size="10.00">/llzk&#45;translate.cpp</text>
</a>
</g>
</g>
<!-- Node1&#45;&gt;Node25 -->
<g id="edge26_Node000001_Node000025" class="edge">
<title>Node1&#45;&gt;Node25</title>
<g id="a_edge26_Node000001_Node000025"><a xlink:title=" ">
<path fill="none" stroke="#63b8ff" d="M3318.2,-212.64C3369.55,-202.64 3444.96,-187.49 3510.38,-172.5 3512.97,-171.9 3515.63,-171.28 3518.31,-170.64"/>
<polygon fill="#63b8ff" stroke="#63b8ff" points="3317.61,-209.19 3308.46,-214.53 3318.94,-216.06 3317.61,-209.19"/>
</a>
</g>
</g>
<!-- Node3 -->
<g id="Node000003" class="node">
<title>Node3</title>
<g id="a_Node000003"><a xlink:href="LLZKTransformationPassPipelines_8h.html" target="_top" xlink:title=" ">
<polygon fill="white" stroke="#666666" points="205.75,-103 15,-103 15,-69.5 205.75,-69.5 205.75,-103"/>
<text text-anchor="start" x="23" y="-89.5" font-family="Helvetica,sans-Serif" font-size="10.00">include/llzk/Transforms</text>
<text text-anchor="middle" x="110.38" y="-76.75" font-family="Helvetica,sans-Serif" font-size="10.00">/LLZKTransformationPassPipelines.h</text>
</a>
</g>
</g>
<!-- Node2&#45;&gt;Node3 -->
<g id="edge2_Node000002_Node000003" class="edge">
<title>Node2&#45;&gt;Node3</title>
<g id="a_edge2_Node000002_Node000003"><a xlink:title=" ">
<path fill="none" stroke="#63b8ff" d="M1426.83,-154.36C1215.12,-152.76 671.44,-144.56 219.38,-103 215,-102.6 210.52,-102.14 206.01,-101.64"/>
<polygon fill="#63b8ff" stroke="#63b8ff" points="1426.63,-157.86 1436.66,-154.44 1426.68,-150.86 1426.63,-157.86"/>
</a>
</g>
</g>
<!-- Node2&#45;&gt;Node5 -->
<g id="edge20_Node000002_Node000005" class="edge">
<title>Node2&#45;&gt;Node5</title>
<g id="a_edge20_Node000002_Node000005"><a xlink:title=" ">
<path fill="none" stroke="#63b8ff" d="M1426.9,-154.44C1144.06,-153.03 292.96,-145.28 252.38,-103 234.85,-84.74 240.74,-52.84 246.58,-33.67"/>
<polygon fill="#63b8ff" stroke="#63b8ff" points="1426.8,-157.94 1436.81,-154.49 1426.83,-150.94 1426.8,-157.94"/>
</a>
</g>
</g>
<!-- Node6 -->
<g id="Node000006" class="node">
<title>Node6</title>
<g id="a_Node000006"><a xlink:href="Transforms_8cpp.html" target="_top" xlink:title=" ">
<polygon fill="white" stroke="#666666" points="391.75,-96.62 261,-96.62 261,-75.88 391.75,-75.88 391.75,-96.62"/>
<text text-anchor="middle" x="326.38" y="-83.12" font-family="Helvetica,sans-Serif" font-size="10.00">lib/CAPI/Transforms.cpp</text>
</a>
</g>
</g>
<!-- Node2&#45;&gt;Node6 -->
<g id="edge5_Node000002_Node000006" class="edge">
<title>Node2&#45;&gt;Node6</title>
<g id="a_edge5_Node000002_Node000006"><a xlink:title=" ">
<path fill="none" stroke="#63b8ff" d="M1426.75,-155.55C1236,-156.14 779.4,-151.78 400.38,-103 389.43,-101.59 377.7,-99.41 366.88,-97.12"/>
<polygon fill="#63b8ff" stroke="#63b8ff" points="1426.6,-159.05 1436.59,-155.51 1426.58,-152.05 1426.6,-159.05"/>
</a>
</g>
</g>
<!-- Node7 -->
<g id="Node000007" class="node">
<title>Node7</title>
<g id="a_Node000007"><a xlink:href="ArrayToScalarPass_8cpp.html" target="_top" xlink:title="This file implements the &#45;llzk&#45;array&#45;to&#45;scalar pass.">
<polygon fill="white" stroke="#666666" points="561.25,-103 409.5,-103 409.5,-69.5 561.25,-69.5 561.25,-103"/>
<text text-anchor="start" x="417.5" y="-89.5" font-family="Helvetica,sans-Serif" font-size="10.00">lib/Dialect/Array/Transforms</text>
<text text-anchor="middle" x="485.38" y="-76.75" font-family="Helvetica,sans-Serif" font-size="10.00">/ArrayToScalarPass.cpp</text>
</a>
</g>
</g>
<!-- Node2&#45;&gt;Node7 -->
<g id="edge6_Node000002_Node000007" class="edge">
<title>Node2&#45;&gt;Node7</title>
<g id="a_edge6_Node000002_Node000007"><a xlink:title=" ">
<path fill="none" stroke="#63b8ff" d="M1426.88,-153.67C1257.96,-150.8 883.42,-140.4 570.38,-103 567.39,-102.64 564.36,-102.25 561.3,-101.82"/>
<polygon fill="#63b8ff" stroke="#63b8ff" points="1426.63,-157.17 1436.68,-153.83 1426.74,-150.17 1426.63,-157.17"/>
</a>
</g>
</g>
<!-- Node8 -->
<g id="Node000008" class="node">
<title>Node8</title>
<g id="a_Node000008"><a xlink:href="Dialect_2InitDialects_8cpp.html" target="_top" xlink:title=" ">
<polygon fill="white" stroke="#666666" points="723.5,-96.62 579.25,-96.62 579.25,-75.88 723.5,-75.88 723.5,-96.62"/>
<text text-anchor="middle" x="651.38" y="-83.12" font-family="Helvetica,sans-Serif" font-size="10.00">lib/Dialect/InitDialects.cpp</text>
</a>
</g>
</g>
<!-- Node2&#45;&gt;Node8 -->
<g id="edge7_Node000002_Node000008" class="edge">
<title>Node2&#45;&gt;Node8</title>
<g id="a_edge7_Node000002_Node000008"><a xlink:title=" ">
<path fill="none" stroke="#63b8ff" d="M1427.09,-152.5C1280.71,-148.02 982.69,-135.46 732.38,-103 720.73,-101.49 708.23,-99.33 696.62,-97.09"/>
<polygon fill="#63b8ff" stroke="#63b8ff" points="1426.61,-155.99 1436.71,-152.79 1426.82,-148.99 1426.61,-155.99"/>
</a>
</g>
</g>
<!-- Node9 -->
<g id="Node000009" class="node">
<title>Node9</title>
<g id="a_Node000009"><a xlink:href="PodToScalarPass_8cpp.html" target="_top" xlink:title="This file implements the &#45;llzk&#45;pod&#45;to&#45;scalar pass.">
<polygon fill="white" stroke="#666666" points="887.62,-103 741.12,-103 741.12,-69.5 887.62,-69.5 887.62,-103"/>
<text text-anchor="start" x="749.12" y="-89.5" font-family="Helvetica,sans-Serif" font-size="10.00">lib/Dialect/POD/Transforms</text>
<text text-anchor="middle" x="814.38" y="-76.75" font-family="Helvetica,sans-Serif" font-size="10.00">/PodToScalarPass.cpp</text>
</a>
</g>
</g>
<!-- Node2&#45;&gt;Node9 -->
<g id="edge8_Node000002_Node000009" class="edge">
<title>Node2&#45;&gt;Node9</title>
<g id="a_edge8_Node000002_Node000009"><a xlink:title=" ">
<path fill="none" stroke="#63b8ff" d="M1426.75,-150.23C1305.52,-143.5 1084.05,-128.77 896.38,-103 893.65,-102.63 890.87,-102.22 888.07,-101.79"/>
<polygon fill="#63b8ff" stroke="#63b8ff" points="1426.48,-153.72 1436.65,-150.78 1426.86,-146.73 1426.48,-153.72"/>
</a>
</g>
</g>
<!-- Node10 -->
<g id="Node000010" class="node">
<title>Node10</title>
<g id="a_Node000010"><a xlink:href="FlatteningPass_8cpp.html" target="_top" xlink:title="This file implements the &#45;llzk&#45;flatten pass.">
<polygon fill="white" stroke="#666666" points="1073.12,-103 905.62,-103 905.62,-69.5 1073.12,-69.5 1073.12,-103"/>
<text text-anchor="start" x="913.62" y="-89.5" font-family="Helvetica,sans-Serif" font-size="10.00">lib/Dialect/Polymorphic</text>
<text text-anchor="middle" x="989.38" y="-76.75" font-family="Helvetica,sans-Serif" font-size="10.00">/Transforms/FlatteningPass.cpp</text>
</a>
</g>
</g>
<!-- Node2&#45;&gt;Node10 -->
<g id="edge9_Node000002_Node000010" class="edge">
<title>Node2&#45;&gt;Node10</title>
<g id="a_edge9_Node000002_Node000010"><a xlink:title=" ">
<path fill="none" stroke="#63b8ff" d="M1426.95,-145.31C1338.84,-135.8 1201.18,-120.12 1082.38,-103 1079.46,-102.58 1076.49,-102.14 1073.5,-101.69"/>
<polygon fill="#63b8ff" stroke="#63b8ff" points="1426.42,-148.77 1436.74,-146.36 1427.17,-141.81 1426.42,-148.77"/>
</a>
</g>
</g>
<!-- Node11 -->
<g id="Node000011" class="node">
<title>Node11</title>
<g id="a_Node000011"><a xlink:href="LLZKComputeConstrainToProductPass_8cpp.html" target="_top" xlink:title="This file implements the &#45;llzk&#45;product&#45;program pass.">
<polygon fill="white" stroke="#666666" points="1247.12,-103 1091.62,-103 1091.62,-69.5 1247.12,-69.5 1247.12,-103"/>
<text text-anchor="start" x="1099.62" y="-89.5" font-family="Helvetica,sans-Serif" font-size="10.00">lib/Transforms/LLZKCompute</text>
<text text-anchor="middle" x="1169.38" y="-76.75" font-family="Helvetica,sans-Serif" font-size="10.00">ConstrainToProductPass.cpp</text>
</a>
</g>
</g>
<!-- Node2&#45;&gt;Node11 -->
<g id="edge10_Node000002_Node000011" class="edge">
<title>Node2&#45;&gt;Node11</title>
<g id="a_edge10_Node000002_Node000011"><a xlink:title=" ">
<path fill="none" stroke="#63b8ff" d="M1427.12,-137.24C1371.43,-126.44 1300.7,-112.72 1247.43,-102.39"/>
<polygon fill="#63b8ff" stroke="#63b8ff" points="1426.44,-140.68 1436.92,-139.14 1427.77,-133.8 1426.44,-140.68"/>
</a>
</g>
</g>
<!-- Node12 -->
<g id="Node000012" class="node">
<title>Node12</title>
<g id="a_Node000012"><a xlink:href="LLZKEnforceNoOverwritePass_8cpp.html" target="_top" xlink:title="This file implements the &#45;llzk&#45;enforce&#45;no&#45;overwrite pass.">
<polygon fill="white" stroke="#666666" points="1413.75,-103 1265,-103 1265,-69.5 1413.75,-69.5 1413.75,-103"/>
<text text-anchor="start" x="1273" y="-89.5" font-family="Helvetica,sans-Serif" font-size="10.00">lib/Transforms/LLZKEnforce</text>
<text text-anchor="middle" x="1339.38" y="-76.75" font-family="Helvetica,sans-Serif" font-size="10.00">NoOverwritePass.cpp</text>
</a>
</g>
</g>
<!-- Node2&#45;&gt;Node12 -->
<g id="edge11_Node000002_Node000012" class="edge">
<title>Node2&#45;&gt;Node12</title>
<g id="a_edge11_Node000002_Node000012"><a xlink:title=" ">
<path fill="none" stroke="#63b8ff" d="M1464.19,-134.58C1437.92,-124.62 1406.64,-112.76 1381.97,-103.4"/>
<polygon fill="#63b8ff" stroke="#63b8ff" points="1462.73,-137.77 1473.32,-138.05 1465.22,-131.23 1462.73,-137.77"/>
</a>
</g>
</g>
<!-- Node13 -->
<g id="Node000013" class="node">
<title>Node13</title>
<g id="a_Node000013"><a xlink:href="LLZKFuseProductLoopsPass_8cpp.html" target="_top" xlink:title="This file implements the &#45;llzk&#45;fuse&#45;product&#45;loops pass.">
<polygon fill="white" stroke="#666666" points="1603,-103 1431.75,-103 1431.75,-69.5 1603,-69.5 1603,-103"/>
<text text-anchor="start" x="1439.75" y="-89.5" font-family="Helvetica,sans-Serif" font-size="10.00">lib/Transforms/LLZKFuseProduct</text>
<text text-anchor="middle" x="1517.38" y="-76.75" font-family="Helvetica,sans-Serif" font-size="10.00">LoopsPass.cpp</text>
</a>
</g>
</g>
<!-- Node2&#45;&gt;Node13 -->
<g id="edge12_Node000002_Node000013" class="edge">
<title>Node2&#45;&gt;Node13</title>
<g id="a_edge12_Node000002_Node000013"><a xlink:title=" ">
<path fill="none" stroke="#63b8ff" d="M1517.38,-127.31C1517.38,-119.09 1517.38,-110.34 1517.38,-103.13"/>
<polygon fill="#63b8ff" stroke="#63b8ff" points="1513.88,-127.24 1517.38,-137.24 1520.88,-127.24 1513.88,-127.24"/>
</a>
</g>
</g>
<!-- Node14 -->
<g id="Node000014" class="node">
<title>Node14</title>
<g id="a_Node000014"><a xlink:href="LLZKInliningExtensions_8cpp.html" target="_top" xlink:title=" ">
<polygon fill="white" stroke="#666666" points="1769.38,-103 1621.38,-103 1621.38,-69.5 1769.38,-69.5 1769.38,-103"/>
<text text-anchor="start" x="1629.38" y="-89.5" font-family="Helvetica,sans-Serif" font-size="10.00">lib/Transforms/LLZKInlining</text>
<text text-anchor="middle" x="1695.38" y="-76.75" font-family="Helvetica,sans-Serif" font-size="10.00">Extensions.cpp</text>
</a>
</g>
</g>
<!-- Node2&#45;&gt;Node14 -->
<g id="edge13_Node000002_Node000014" class="edge">
<title>Node2&#45;&gt;Node14</title>
<g id="a_edge13_Node000002_Node000014"><a xlink:title=" ">
<path fill="none" stroke="#63b8ff" d="M1570.56,-134.58C1596.83,-124.62 1628.11,-112.76 1652.78,-103.4"/>
<polygon fill="#63b8ff" stroke="#63b8ff" points="1569.53,-131.23 1561.43,-138.05 1572.02,-137.77 1569.53,-131.23"/>
</a>
</g>
</g>
<!-- Node15 -->
<g id="Node000015" class="node">
<title>Node15</title>
<g id="a_Node000015"><a xlink:href="LLZKPolyLoweringPass_8cpp.html" target="_top" xlink:title="This file implements the &#45;llzk&#45;poly&#45;lowering pass.">
<polygon fill="white" stroke="#666666" points="1965,-103 1787.75,-103 1787.75,-69.5 1965,-69.5 1965,-103"/>
<text text-anchor="start" x="1795.75" y="-89.5" font-family="Helvetica,sans-Serif" font-size="10.00">lib/Transforms/LLZKPolyLowering</text>
<text text-anchor="middle" x="1876.38" y="-76.75" font-family="Helvetica,sans-Serif" font-size="10.00">Pass.cpp</text>
</a>
</g>
</g>
<!-- Node2&#45;&gt;Node15 -->
<g id="edge14_Node000002_Node000015" class="edge">
<title>Node2&#45;&gt;Node15</title>
<g id="a_edge14_Node000002_Node000015"><a xlink:title=" ">
<path fill="none" stroke="#63b8ff" d="M1607.57,-137.79C1663.5,-127.27 1734.95,-113.84 1790.13,-103.47"/>
<polygon fill="#63b8ff" stroke="#63b8ff" points="1607.27,-134.29 1598.09,-139.57 1608.57,-141.17 1607.27,-134.29"/>
</a>
</g>
</g>
<!-- Node16 -->
<g id="Node000016" class="node">
<title>Node16</title>
<g id="a_Node000016"><a xlink:href="LLZKRedundantOperationEliminationPass_8cpp.html" target="_top" xlink:title="This file implements the &#45;llzk&#45;duplicate&#45;op&#45;elim pass.">
<polygon fill="white" stroke="#666666" points="2147.62,-103 1983.12,-103 1983.12,-69.5 2147.62,-69.5 2147.62,-103"/>
<text text-anchor="start" x="1991.12" y="-89.5" font-family="Helvetica,sans-Serif" font-size="10.00">lib/Transforms/LLZKRedundant</text>
<text text-anchor="middle" x="2065.38" y="-76.75" font-family="Helvetica,sans-Serif" font-size="10.00">OperationEliminationPass.cpp</text>
</a>
</g>
</g>
<!-- Node2&#45;&gt;Node16 -->
<g id="edge15_Node000002_Node000016" class="edge">
<title>Node2&#45;&gt;Node16</title>
<g id="a_edge15_Node000002_Node000016"><a xlink:title=" ">
<path fill="none" stroke="#63b8ff" d="M1607.66,-146.1C1699.99,-136.89 1847.47,-121.15 1974.38,-103 1977.23,-102.59 1980.14,-102.16 1983.07,-101.72"/>
<polygon fill="#63b8ff" stroke="#63b8ff" points="1607.51,-142.6 1597.91,-147.07 1608.21,-149.57 1607.51,-142.6"/>
</a>
</g>
</g>
<!-- Node17 -->
<g id="Node000017" class="node">
<title>Node17</title>
<g id="a_Node000017"><a xlink:href="LLZKRedundantReadAndWriteEliminationPass_8cpp.html" target="_top" xlink:title="This file implements the &#45;llzk&#45;duplicate&#45;read&#45;write&#45;elim pass.">
<polygon fill="white" stroke="#666666" points="2349,-103 2165.75,-103 2165.75,-69.5 2349,-69.5 2349,-103"/>
<text text-anchor="start" x="2173.75" y="-89.5" font-family="Helvetica,sans-Serif" font-size="10.00">lib/Transforms/LLZKRedundant</text>
<text text-anchor="middle" x="2257.38" y="-76.75" font-family="Helvetica,sans-Serif" font-size="10.00">ReadAndWriteEliminationPass.cpp</text>
</a>
</g>
</g>
<!-- Node2&#45;&gt;Node17 -->
<g id="edge16_Node000002_Node000017" class="edge">
<title>Node2&#45;&gt;Node17</title>
<g id="a_edge16_Node000002_Node000017"><a xlink:title=" ">
<path fill="none" stroke="#63b8ff" d="M1607.55,-149.55C1731.49,-141.93 1961.3,-126.08 2156.38,-103 2159.37,-102.65 2162.41,-102.27 2165.49,-101.87"/>
<polygon fill="#63b8ff" stroke="#63b8ff" points="1607.54,-146.05 1597.77,-150.15 1607.97,-153.03 1607.54,-146.05"/>
</a>
</g>
</g>
<!-- Node18 -->
<g id="Node000018" class="node">
<title>Node18</title>
<g id="a_Node000018"><a xlink:href="LLZKRemoveUnusedDiscardableAllocationsPass_8cpp.html" target="_top" xlink:title="This file implements the &#45;llzk&#45;remove&#45;unused&#45;discardable&#45;allocations pass.">
<polygon fill="white" stroke="#666666" points="2573.62,-103 2367.12,-103 2367.12,-69.5 2573.62,-69.5 2573.62,-103"/>
<text text-anchor="start" x="2375.12" y="-89.5" font-family="Helvetica,sans-Serif" font-size="10.00">lib/Transforms/LLZKRemove</text>
<text text-anchor="middle" x="2470.38" y="-76.75" font-family="Helvetica,sans-Serif" font-size="10.00">UnusedDiscardableAllocationsPass.cpp</text>
</a>
</g>
</g>
<!-- Node2&#45;&gt;Node18 -->
<g id="edge17_Node000002_Node000018" class="edge">
<title>Node2&#45;&gt;Node18</title>
<g id="a_edge17_Node000002_Node000018"><a xlink:title=" ">
<path fill="none" stroke="#63b8ff" d="M1607.94,-151.5C1762.26,-145.45 2085.93,-130.5 2358.38,-103 2361.11,-102.72 2363.88,-102.43 2366.68,-102.12"/>
<polygon fill="#63b8ff" stroke="#63b8ff" points="1608.05,-148 1598.19,-151.88 1608.32,-154.99 1608.05,-148"/>
</a>
</g>
</g>
<!-- Node19 -->
<g id="Node000019" class="node">
<title>Node19</title>
<g id="a_Node000019"><a xlink:href="LLZKUnusedDeclarationEliminationPass_8cpp.html" target="_top" xlink:title="This file implements the &#45;llzk&#45;unused&#45;declaration&#45;elim pass.">
<polygon fill="white" stroke="#666666" points="2761.25,-103 2591.5,-103 2591.5,-69.5 2761.25,-69.5 2761.25,-103"/>
<text text-anchor="start" x="2599.5" y="-89.5" font-family="Helvetica,sans-Serif" font-size="10.00">lib/Transforms/LLZKUnused</text>
<text text-anchor="middle" x="2676.38" y="-76.75" font-family="Helvetica,sans-Serif" font-size="10.00">DeclarationEliminationPass.cpp</text>
</a>
</g>
</g>
<!-- Node2&#45;&gt;Node19 -->
<g id="edge18_Node000002_Node000019" class="edge">
<title>Node2&#45;&gt;Node19</title>
<g id="a_edge18_Node000002_Node000019"><a xlink:title=" ">
<path fill="none" stroke="#63b8ff" d="M1607.95,-153.93C1792.04,-151.48 2222.91,-141.71 2582.38,-103 2585.25,-102.69 2588.18,-102.35 2591.13,-101.98"/>
<polygon fill="#63b8ff" stroke="#63b8ff" points="1607.92,-150.43 1597.96,-154.06 1608.01,-157.43 1607.92,-150.43"/>
</a>
</g>
</g>
<!-- Node20 -->
<g id="Node000020" class="node">
<title>Node20</title>
<g id="a_Node000020"><a xlink:href="LLZKWhileToForPass_8cpp.html" target="_top" xlink:title="This file identifies scf.while loops that can be converted to scf.for loops and performs the conversi...">
<polygon fill="white" stroke="#666666" points="2917.88,-103 2778.88,-103 2778.88,-69.5 2917.88,-69.5 2917.88,-103"/>
<text text-anchor="start" x="2786.88" y="-89.5" font-family="Helvetica,sans-Serif" font-size="10.00">lib/Transforms/LLZKWhile</text>
<text text-anchor="middle" x="2848.38" y="-76.75" font-family="Helvetica,sans-Serif" font-size="10.00">ToForPass.cpp</text>
</a>
</g>
</g>
<!-- Node2&#45;&gt;Node20 -->
<g id="edge19_Node000002_Node000020" class="edge">
<title>Node2&#45;&gt;Node20</title>
<g id="a_edge19_Node000002_Node000020"><a xlink:title=" ">
<path fill="none" stroke="#63b8ff" d="M1608.16,-152.86C1856.8,-147.4 2545.24,-130.21 2770.38,-103 2773.12,-102.67 2775.91,-102.29 2778.72,-101.88"/>
<polygon fill="#63b8ff" stroke="#63b8ff" points="1608.09,-149.37 1598.17,-153.08 1608.24,-156.36 1608.09,-149.37"/>
</a>
</g>
</g>
<!-- Node21 -->
<g id="Node000021" class="node">
<title>Node21</title>
<g id="a_Node000021"><a xlink:href="WitgenLowering_8cpp.html" target="_top" xlink:title=" ">
<polygon fill="white" stroke="#666666" points="3070.62,-103 2936.12,-103 2936.12,-69.5 3070.62,-69.5 3070.62,-103"/>
<text text-anchor="start" x="2944.12" y="-89.5" font-family="Helvetica,sans-Serif" font-size="10.00">tools/llzk&#45;witgen/Witgen</text>
<text text-anchor="middle" x="3003.38" y="-76.75" font-family="Helvetica,sans-Serif" font-size="10.00">Lowering.cpp</text>
</a>
</g>
</g>
<!-- Node2&#45;&gt;Node21 -->
<g id="edge21_Node000002_Node000021" class="edge">
<title>Node2&#45;&gt;Node21</title>
<g id="a_edge21_Node000002_Node000021"><a xlink:title=" ">
<path fill="none" stroke="#63b8ff" d="M1607.68,-153.42C1876.77,-149.13 2670.41,-134.12 2927.38,-103 2930.18,-102.66 2933.04,-102.27 2935.93,-101.84"/>
<polygon fill="#63b8ff" stroke="#63b8ff" points="1607.87,-149.91 1597.92,-153.57 1607.98,-156.91 1607.87,-149.91"/>
</a>
</g>
</g>
<!-- Node4 -->
<g id="Node000004" class="node">
<title>Node4</title>
<g id="a_Node000004"><a xlink:href="LLZKTransformationPassPipelines_8cpp.html" target="_top" xlink:title="This file implements logic for registering several pass pipelines.">
<polygon fill="white" stroke="#666666" points="184.75,-33.5 0,-33.5 0,0 184.75,0 184.75,-33.5"/>
<text text-anchor="start" x="8" y="-20" font-family="Helvetica,sans-Serif" font-size="10.00">lib/Transforms/LLZKTransformation</text>
<text text-anchor="middle" x="92.38" y="-7.25" font-family="Helvetica,sans-Serif" font-size="10.00">PassPipelines.cpp</text>
</a>
</g>
</g>
<!-- Node3&#45;&gt;Node4 -->
<g id="edge3_Node000003_Node000004" class="edge">
<title>Node3&#45;&gt;Node4</title>
<g id="a_edge3_Node000003_Node000004"><a xlink:title=" ">
<path fill="none" stroke="#63b8ff" d="M103.21,-58.39C100.97,-50 98.58,-41.01 96.61,-33.63"/>
<polygon fill="#63b8ff" stroke="#63b8ff" points="99.76,-59.03 105.72,-67.79 106.52,-57.23 99.76,-59.03"/>
</a>
</g>
</g>
<!-- Node3&#45;&gt;Node5 -->
<g id="edge4_Node000003_Node000005" class="edge">
<title>Node3&#45;&gt;Node5</title>
<g id="a_edge4_Node000003_Node000005"><a xlink:title=" ">
<path fill="none" stroke="#63b8ff" d="M154.52,-64.26C175.21,-54.43 199.46,-42.91 218.64,-33.79"/>
<polygon fill="#63b8ff" stroke="#63b8ff" points="153.28,-60.98 145.75,-68.43 156.29,-67.3 153.28,-60.98"/>
</a>
</g>
</g>
</g>
</svg>
