<?xml version="1.0" encoding="UTF-8" standalone="no"?>
<!DOCTYPE svg PUBLIC "-//W3C//DTD SVG 1.1//EN"
 "http://www.w3.org/Graphics/SVG/1.1/DTD/svg11.dtd">
<!-- Generated by graphviz version 12.2.1 (0)
 -->
<!-- Title: lib/CAPI/Dialect/Constrain.cpp Pages: 1 -->
<svg width="2394pt" height="307pt"
 viewBox="0.00 0.00 2394.27 306.75" xmlns="http://www.w3.org/2000/svg" xmlns:xlink="http://www.w3.org/1999/xlink">
<g id="graph0" class="graph" transform="scale(1 1) rotate(0) translate(4 302.75)">
<title>lib/CAPI/Dialect/Constrain.cpp</title>
<!-- Node1 -->
<g id="Node000001" class="node">
<title>Node1</title>
<g id="a_Node000001"><a xlink:title=" ">
<polygon fill="#999999" stroke="#666666" points="1460.02,-298.75 1299.27,-298.75 1299.27,-278 1460.02,-278 1460.02,-298.75"/>
<text text-anchor="middle" x="1379.65" y="-285.25" font-family="Helvetica,sans-Serif" font-size="10.00">lib/CAPI/Dialect/Constrain.cpp</text>
</a>
</g>
</g>
<!-- Node2 -->
<g id="Node000002" class="node">
<title>Node2</title>
<g id="a_Node000002"><a xlink:href="Constrain_8h.html" target="_top" xlink:title=" ">
<polygon fill="white" stroke="#666666" points="142.77,-235.62 4.52,-235.62 4.52,-214.88 142.77,-214.88 142.77,-235.62"/>
<text text-anchor="middle" x="73.65" y="-222.12" font-family="Helvetica,sans-Serif" font-size="10.00">llzk&#45;c/Dialect/Constrain.h</text>
</a>
</g>
</g>
<!-- Node1&#45;&gt;Node2 -->
<g id="edge1_Node000001_Node000002" class="edge">
<title>Node1&#45;&gt;Node2</title>
<g id="a_edge1_Node000001_Node000002"><a xlink:title=" ">
<path fill="none" stroke="#63b8ff" d="M1298.94,-283.6C1065,-272.65 388.4,-240.98 154.4,-230.03"/>
<polygon fill="#63b8ff" stroke="#63b8ff" points="154.6,-226.54 144.45,-229.56 154.27,-233.53 154.6,-226.54"/>
</a>
</g>
</g>
<!-- Node7 -->
<g id="Node000007" class="node">
<title>Node7</title>
<g id="a_Node000007"><a xlink:href="llzk_2CAPI_2Support_8h.html" target="_top" xlink:title=" ">
<polygon fill="white" stroke="#666666" points="825.77,-235.62 717.52,-235.62 717.52,-214.88 825.77,-214.88 825.77,-235.62"/>
<text text-anchor="middle" x="771.65" y="-222.12" font-family="Helvetica,sans-Serif" font-size="10.00">llzk/CAPI/Support.h</text>
</a>
</g>
</g>
<!-- Node1&#45;&gt;Node7 -->
<g id="edge8_Node000001_Node000007" class="edge">
<title>Node1&#45;&gt;Node7</title>
<g id="a_edge8_Node000001_Node000007"><a xlink:title=" ">
<path fill="none" stroke="#63b8ff" d="M1298.91,-279.26C1177.27,-267.03 949.34,-244.11 837.27,-232.85"/>
<polygon fill="#63b8ff" stroke="#63b8ff" points="837.95,-229.4 827.65,-231.88 837.25,-236.36 837.95,-229.4"/>
</a>
</g>
</g>
<!-- Node20 -->
<g id="Node000020" class="node">
<title>Node20</title>
<g id="a_Node000020"><a xlink:href="Constrain_2IR_2Dialect_8h.html" target="_top" xlink:title=" ">
<polygon fill="white" stroke="#666666" points="1303.77,-172.5 1183.52,-172.5 1183.52,-139 1303.77,-139 1303.77,-172.5"/>
<text text-anchor="start" x="1191.52" y="-159" font-family="Helvetica,sans-Serif" font-size="10.00">llzk/Dialect/Constrain</text>
<text text-anchor="middle" x="1243.65" y="-146.25" font-family="Helvetica,sans-Serif" font-size="10.00">/IR/Dialect.h</text>
</a>
</g>
</g>
<!-- Node1&#45;&gt;Node20 -->
<g id="edge25_Node000001_Node000020" class="edge">
<title>Node1&#45;&gt;Node20</title>
<g id="a_edge25_Node000001_Node000020"><a xlink:title=" ">
<path fill="none" stroke="#63b8ff" d="M1369.42,-277.56C1348.08,-257.06 1298.26,-209.21 1268.12,-180.26"/>
<polygon fill="#63b8ff" stroke="#63b8ff" points="1270.91,-178.09 1261.28,-173.68 1266.06,-183.13 1270.91,-178.09"/>
</a>
</g>
</g>
<!-- Node23 -->
<g id="Node000023" class="node">
<title>Node23</title>
<g id="a_Node000023"><a xlink:href="Constrain_2IR_2Ops_8h.html" target="_top" xlink:title=" ">
<polygon fill="white" stroke="#666666" points="1534.77,-242 1414.52,-242 1414.52,-208.5 1534.77,-208.5 1534.77,-242"/>
<text text-anchor="start" x="1422.52" y="-228.5" font-family="Helvetica,sans-Serif" font-size="10.00">llzk/Dialect/Constrain</text>
<text text-anchor="middle" x="1474.65" y="-215.75" font-family="Helvetica,sans-Serif" font-size="10.00">/IR/Ops.h</text>
</a>
</g>
</g>
<!-- Node1&#45;&gt;Node23 -->
<g id="edge28_Node000001_Node000023" class="edge">
<title>Node1&#45;&gt;Node23</title>
<g id="a_edge28_Node000001_Node000023"><a xlink:title=" ">
<path fill="none" stroke="#63b8ff" d="M1394.91,-277.55C1407.07,-269.73 1424.57,-258.47 1440.08,-248.49"/>
<polygon fill="#63b8ff" stroke="#63b8ff" points="1441.62,-251.66 1448.14,-243.3 1437.84,-245.77 1441.62,-251.66"/>
</a>
</g>
</g>
<!-- Node43 -->
<g id="Node000043" class="node">
<title>Node43</title>
<g id="a_Node000043"><a xlink:title=" ">
<polygon fill="#e0e0e0" stroke="#999999" points="1684.77,-235.62 1552.52,-235.62 1552.52,-214.88 1684.77,-214.88 1684.77,-235.62"/>
<text text-anchor="middle" x="1618.65" y="-222.12" font-family="Helvetica,sans-Serif" font-size="10.00">mlir/CAPI/Registration.h</text>
</a>
</g>
</g>
<!-- Node1&#45;&gt;Node43 -->
<g id="edge53_Node000001_Node000043" class="edge">
<title>Node1&#45;&gt;Node43</title>
<g id="a_edge53_Node000001_Node000043"><a xlink:title=" ">
<path fill="none" stroke="#63b8ff" d="M1418.05,-277.55C1459.16,-267.04 1524.53,-250.32 1569.4,-238.84"/>
<polygon fill="#63b8ff" stroke="#63b8ff" points="1570.05,-242.29 1578.88,-236.42 1568.32,-235.51 1570.05,-242.29"/>
</a>
</g>
</g>
<!-- Node44 -->
<g id="Node000044" class="node">
<title>Node44</title>
<g id="a_Node000044"><a xlink:href="Constrain_2IR_2Ops_8capi_8cpp_8inc.html" target="_top" xlink:title=" ">
<polygon fill="white" stroke="#666666" points="2089.77,-242 1969.52,-242 1969.52,-208.5 2089.77,-208.5 2089.77,-242"/>
<text text-anchor="start" x="1977.52" y="-228.5" font-family="Helvetica,sans-Serif" font-size="10.00">llzk/Dialect/Constrain</text>
<text text-anchor="middle" x="2029.65" y="-215.75" font-family="Helvetica,sans-Serif" font-size="10.00">/IR/Ops.capi.cpp.inc</text>
</a>
</g>
</g>
<!-- Node1&#45;&gt;Node44 -->
<g id="edge54_Node000001_Node000044" class="edge">
<title>Node1&#45;&gt;Node44</title>
<g id="a_edge54_Node000001_Node000044"><a xlink:title=" ">
<path fill="none" stroke="#63b8ff" d="M1460.33,-279.79C1588.29,-267.75 1835.75,-244.48 1957.89,-233"/>
<polygon fill="#63b8ff" stroke="#63b8ff" points="1958.17,-236.49 1967.8,-232.07 1957.52,-229.52 1958.17,-236.49"/>
</a>
</g>
</g>
<!-- Node3 -->
<g id="Node000003" class="node">
<title>Node3</title>
<g id="a_Node000003"><a xlink:title=" ">
<polygon fill="#e0e0e0" stroke="#999999" points="144.77,-27.12 78.52,-27.12 78.52,-6.38 144.77,-6.38 144.77,-27.12"/>
<text text-anchor="middle" x="111.65" y="-13.62" font-family="Helvetica,sans-Serif" font-size="10.00">mlir&#45;c/IR.h</text>
</a>
</g>
</g>
<!-- Node2&#45;&gt;Node3 -->
<g id="edge2_Node000002_Node000003" class="edge">
<title>Node2&#45;&gt;Node3</title>
<g id="a_edge2_Node000002_Node000003"><a xlink:title=" ">
<path fill="none" stroke="#63b8ff" d="M51.45,-214.45C35.2,-205.94 14.36,-191.92 4.65,-172.5 -2.01,-159.18 -0.62,-152.93 4.65,-139 21.54,-94.33 63.23,-55.49 89.3,-34.45"/>
<polygon fill="#63b8ff" stroke="#63b8ff" points="91.22,-37.39 96.93,-28.46 86.9,-31.88 91.22,-37.39"/>
</a>
</g>
</g>
<!-- Node4 -->
<g id="Node000004" class="node">
<title>Node4</title>
<g id="a_Node000004"><a xlink:href="Constrain_2IR_2Ops_8capi_8h_8inc.html" target="_top" xlink:title=" ">
<polygon fill="white" stroke="#666666" points="133.77,-172.5 13.52,-172.5 13.52,-139 133.77,-139 133.77,-172.5"/>
<text text-anchor="start" x="21.52" y="-159" font-family="Helvetica,sans-Serif" font-size="10.00">llzk/Dialect/Constrain</text>
<text text-anchor="middle" x="73.65" y="-146.25" font-family="Helvetica,sans-Serif" font-size="10.00">/IR/Ops.capi.h.inc</text>
</a>
</g>
</g>
<!-- Node2&#45;&gt;Node4 -->
<g id="edge3_Node000002_Node000004" class="edge">
<title>Node2&#45;&gt;Node4</title>
<g id="a_edge3_Node000002_Node000004"><a xlink:title=" ">
<path fill="none" stroke="#63b8ff" d="M73.65,-214.58C73.65,-206.69 73.65,-195.13 73.65,-184.41"/>
<polygon fill="#63b8ff" stroke="#63b8ff" points="77.15,-184.43 73.65,-174.43 70.15,-184.43 77.15,-184.43"/>
</a>
</g>
</g>
<!-- Node4&#45;&gt;Node3 -->
<g id="edge7_Node000004_Node000003" class="edge">
<title>Node4&#45;&gt;Node3</title>
<g id="a_edge7_Node000004_Node000003"><a xlink:title=" ">
<path fill="none" stroke="#63b8ff" d="M78.08,-138.77C84.97,-113.92 98.26,-66.02 105.88,-38.52"/>
<polygon fill="#63b8ff" stroke="#63b8ff" points="109.24,-39.51 108.54,-28.94 102.5,-37.64 109.24,-39.51"/>
</a>
</g>
</g>
<!-- Node5 -->
<g id="Node000005" class="node">
<title>Node5</title>
<g id="a_Node000005"><a xlink:href="llzk-c_2Builder_8h.html" target="_top" xlink:title=" ">
<polygon fill="white" stroke="#666666" points="227.65,-96.62 139.65,-96.62 139.65,-75.88 227.65,-75.88 227.65,-96.62"/>
<text text-anchor="middle" x="183.65" y="-83.12" font-family="Helvetica,sans-Serif" font-size="10.00">llzk&#45;c/Builder.h</text>
</a>
</g>
</g>
<!-- Node4&#45;&gt;Node5 -->
<g id="edge4_Node000004_Node000005" class="edge">
<title>Node4&#45;&gt;Node5</title>
<g id="a_edge4_Node000004_Node000005"><a xlink:title=" ">
<path fill="none" stroke="#63b8ff" d="M99.99,-138.58C117.63,-127.76 140.73,-113.59 158.18,-102.88"/>
<polygon fill="#63b8ff" stroke="#63b8ff" points="159.74,-106.03 166.43,-97.81 156.08,-100.06 159.74,-106.03"/>
</a>
</g>
</g>
<!-- Node5&#45;&gt;Node3 -->
<g id="edge5_Node000005_Node000003" class="edge">
<title>Node5&#45;&gt;Node3</title>
<g id="a_edge5_Node000005_Node000003"><a xlink:title=" ">
<path fill="none" stroke="#63b8ff" d="M173.33,-75.58C162.1,-65.05 143.92,-48.01 130.2,-35.14"/>
<polygon fill="#63b8ff" stroke="#63b8ff" points="132.74,-32.72 123.05,-28.44 127.95,-37.83 132.74,-32.72"/>
</a>
</g>
</g>
<!-- Node6 -->
<g id="Node000006" class="node">
<title>Node6</title>
<g id="a_Node000006"><a xlink:title=" ">
<polygon fill="#e0e0e0" stroke="#999999" points="298.65,-27.12 204.65,-27.12 204.65,-6.38 298.65,-6.38 298.65,-27.12"/>
<text text-anchor="middle" x="251.65" y="-13.62" font-family="Helvetica,sans-Serif" font-size="10.00">mlir&#45;c/Support.h</text>
</a>
</g>
</g>
<!-- Node5&#45;&gt;Node6 -->
<g id="edge6_Node000005_Node000006" class="edge">
<title>Node5&#45;&gt;Node6</title>
<g id="a_edge6_Node000005_Node000006"><a xlink:title=" ">
<path fill="none" stroke="#63b8ff" d="M193.39,-75.58C203.89,-65.15 220.84,-48.33 233.75,-35.51"/>
<polygon fill="#63b8ff" stroke="#63b8ff" points="236.22,-38 240.85,-28.47 231.28,-33.03 236.22,-38"/>
</a>
</g>
</g>
<!-- Node7&#45;&gt;Node3 -->
<g id="edge21_Node000007_Node000003" class="edge">
<title>Node7&#45;&gt;Node3</title>
<g id="a_edge21_Node000007_Node000003"><a xlink:title=" ">
<path fill="none" stroke="#63b8ff" d="M717.14,-222.21C599.63,-217.29 326.03,-202.85 238.65,-172.5 184.73,-153.77 163.3,-149.81 130.65,-103 117.39,-83.99 113.19,-57.3 111.96,-38.87"/>
<polygon fill="#63b8ff" stroke="#63b8ff" points="115.45,-38.75 111.56,-28.89 108.46,-39.03 115.45,-38.75"/>
</a>
</g>
</g>
<!-- Node8 -->
<g id="Node000008" class="node">
<title>Node8</title>
<g id="a_Node000008"><a xlink:href="llzk-c_2Support_8h.html" target="_top" xlink:title=" ">
<polygon fill="white" stroke="#666666" points="339.52,-166.12 247.77,-166.12 247.77,-145.38 339.52,-145.38 339.52,-166.12"/>
<text text-anchor="middle" x="293.65" y="-152.62" font-family="Helvetica,sans-Serif" font-size="10.00">llzk&#45;c/Support.h</text>
</a>
</g>
</g>
<!-- Node7&#45;&gt;Node8 -->
<g id="edge9_Node000007_Node000008" class="edge">
<title>Node7&#45;&gt;Node8</title>
<g id="a_edge9_Node000007_Node000008"><a xlink:title=" ">
<path fill="none" stroke="#63b8ff" d="M717.28,-216.57C626.26,-203.72 443.88,-177.97 350.94,-164.84"/>
<polygon fill="#63b8ff" stroke="#63b8ff" points="351.68,-161.41 341.29,-163.48 350.7,-168.34 351.68,-161.41"/>
</a>
</g>
</g>
<!-- Node10 -->
<g id="Node000010" class="node">
<title>Node10</title>
<g id="a_Node000010"><a xlink:href="AttributeHelper_8h.html" target="_top" xlink:title=" ">
<polygon fill="white" stroke="#666666" points="711.9,-172.5 601.4,-172.5 601.4,-139 711.9,-139 711.9,-172.5"/>
<text text-anchor="start" x="609.4" y="-159" font-family="Helvetica,sans-Serif" font-size="10.00">llzk/Dialect/LLZK/IR</text>
<text text-anchor="middle" x="656.65" y="-146.25" font-family="Helvetica,sans-Serif" font-size="10.00">/AttributeHelper.h</text>
</a>
</g>
</g>
<!-- Node7&#45;&gt;Node10 -->
<g id="edge14_Node000007_Node000010" class="edge">
<title>Node7&#45;&gt;Node10</title>
<g id="a_edge14_Node000007_Node000010"><a xlink:title=" ">
<path fill="none" stroke="#63b8ff" d="M755.17,-214.58C739.26,-205.24 714.62,-190.78 693.96,-178.65"/>
<polygon fill="#63b8ff" stroke="#63b8ff" points="695.89,-175.73 685.5,-173.69 692.35,-181.77 695.89,-175.73"/>
</a>
</g>
</g>
<!-- Node17 -->
<g id="Node000017" class="node">
<title>Node17</title>
<g id="a_Node000017"><a xlink:title=" ">
<polygon fill="#e0e0e0" stroke="#999999" points="813.02,-166.12 730.27,-166.12 730.27,-145.38 813.02,-145.38 813.02,-166.12"/>
<text text-anchor="middle" x="771.65" y="-152.62" font-family="Helvetica,sans-Serif" font-size="10.00">mlir/CAPI/IR.h</text>
</a>
</g>
</g>
<!-- Node7&#45;&gt;Node17 -->
<g id="edge22_Node000007_Node000017" class="edge">
<title>Node7&#45;&gt;Node17</title>
<g id="a_edge22_Node000007_Node000017"><a xlink:title=" ">
<path fill="none" stroke="#63b8ff" d="M771.65,-214.58C771.65,-204.96 771.65,-189.88 771.65,-177.54"/>
<polygon fill="#63b8ff" stroke="#63b8ff" points="775.15,-177.92 771.65,-167.92 768.15,-177.92 775.15,-177.92"/>
</a>
</g>
</g>
<!-- Node18 -->
<g id="Node000018" class="node">
<title>Node18</title>
<g id="a_Node000018"><a xlink:title=" ">
<polygon fill="#e0e0e0" stroke="#999999" points="976.52,-166.12 830.77,-166.12 830.77,-145.38 976.52,-145.38 976.52,-166.12"/>
<text text-anchor="middle" x="903.65" y="-152.62" font-family="Helvetica,sans-Serif" font-size="10.00">mlir/IR/OperationSupport.h</text>
</a>
</g>
</g>
<!-- Node7&#45;&gt;Node18 -->
<g id="edge23_Node000007_Node000018" class="edge">
<title>Node7&#45;&gt;Node18</title>
<g id="a_edge23_Node000007_Node000018"><a xlink:title=" ">
<path fill="none" stroke="#63b8ff" d="M790.84,-214.43C812.74,-203.24 848.8,-184.8 874.25,-171.78"/>
<polygon fill="#63b8ff" stroke="#63b8ff" points="875.77,-174.94 883.08,-167.27 872.58,-168.7 875.77,-174.94"/>
</a>
</g>
</g>
<!-- Node19 -->
<g id="Node000019" class="node">
<title>Node19</title>
<g id="a_Node000019"><a xlink:title=" ">
<polygon fill="#e0e0e0" stroke="#999999" points="1112.65,-166.12 994.65,-166.12 994.65,-145.38 1112.65,-145.38 1112.65,-166.12"/>
<text text-anchor="middle" x="1053.65" y="-152.62" font-family="Helvetica,sans-Serif" font-size="10.00">mlir/IR/ValueRange.h</text>
</a>
</g>
</g>
<!-- Node7&#45;&gt;Node19 -->
<g id="edge24_Node000007_Node000019" class="edge">
<title>Node7&#45;&gt;Node19</title>
<g id="a_edge24_Node000007_Node000019"><a xlink:title=" ">
<path fill="none" stroke="#63b8ff" d="M812.65,-214.43C862.57,-202.49 946.93,-182.29 1001.44,-169.25"/>
<polygon fill="#63b8ff" stroke="#63b8ff" points="1002.21,-172.66 1011.12,-166.93 1000.58,-165.85 1002.21,-172.66"/>
</a>
</g>
</g>
<!-- Node8&#45;&gt;Node3 -->
<g id="edge11_Node000008_Node000003" class="edge">
<title>Node8&#45;&gt;Node3</title>
<g id="a_edge11_Node000008_Node000003"><a xlink:title=" ">
<path fill="none" stroke="#63b8ff" d="M289.45,-144.95C281.53,-127.52 262.8,-90.95 236.65,-69.5 213.23,-50.3 181.7,-37.31 156.16,-29.15"/>
<polygon fill="#63b8ff" stroke="#63b8ff" points="157.3,-25.84 146.71,-26.28 155.27,-32.53 157.3,-25.84"/>
</a>
</g>
</g>
<!-- Node8&#45;&gt;Node5 -->
<g id="edge10_Node000008_Node000005" class="edge">
<title>Node8&#45;&gt;Node5</title>
<g id="a_edge10_Node000008_Node000005"><a xlink:title=" ">
<path fill="none" stroke="#63b8ff" d="M277.89,-145.08C260.02,-134.11 230.62,-116.07 209.41,-103.06"/>
<polygon fill="#63b8ff" stroke="#63b8ff" points="211.38,-100.16 201.02,-97.91 207.72,-106.13 211.38,-100.16"/>
</a>
</g>
</g>
<!-- Node8&#45;&gt;Node6 -->
<g id="edge12_Node000008_Node000006" class="edge">
<title>Node8&#45;&gt;Node6</title>
<g id="a_edge12_Node000008_Node000006"><a xlink:title=" ">
<path fill="none" stroke="#63b8ff" d="M291.1,-144.98C286.91,-129.07 278.18,-96.64 269.65,-69.5 266.4,-59.16 262.48,-47.78 259.12,-38.33"/>
<polygon fill="#63b8ff" stroke="#63b8ff" points="262.46,-37.26 255.79,-29.04 255.87,-39.63 262.46,-37.26"/>
</a>
</g>
</g>
<!-- Node9 -->
<g id="Node000009" class="node">
<title>Node9</title>
<g id="a_Node000009"><a xlink:title=" ">
<polygon fill="#e0e0e0" stroke="#999999" points="374.02,-96.62 321.27,-96.62 321.27,-75.88 374.02,-75.88 374.02,-96.62"/>
<text text-anchor="middle" x="347.65" y="-83.12" font-family="Helvetica,sans-Serif" font-size="10.00">stdint.h</text>
</a>
</g>
</g>
<!-- Node8&#45;&gt;Node9 -->
<g id="edge13_Node000008_Node000009" class="edge">
<title>Node8&#45;&gt;Node9</title>
<g id="a_edge13_Node000008_Node000009"><a xlink:title=" ">
<path fill="none" stroke="#63b8ff" d="M301.38,-145.08C309.56,-134.85 322.67,-118.48 332.84,-105.75"/>
<polygon fill="#63b8ff" stroke="#63b8ff" points="335.46,-108.08 338.98,-98.09 330,-103.71 335.46,-108.08"/>
</a>
</g>
</g>
<!-- Node11 -->
<g id="Node000011" class="node">
<title>Node11</title>
<g id="a_Node000011"><a xlink:href="StreamHelper_8h.html" target="_top" xlink:title=" ">
<polygon fill="white" stroke="#666666" points="524.77,-96.62 392.52,-96.62 392.52,-75.88 524.77,-75.88 524.77,-96.62"/>
<text text-anchor="middle" x="458.65" y="-83.12" font-family="Helvetica,sans-Serif" font-size="10.00">llzk/Util/StreamHelper.h</text>
</a>
</g>
</g>
<!-- Node10&#45;&gt;Node11 -->
<g id="edge15_Node000010_Node000011" class="edge">
<title>Node10&#45;&gt;Node11</title>
<g id="a_edge15_Node000010_Node000011"><a xlink:title=" ">
<path fill="none" stroke="#63b8ff" d="M609.22,-138.58C575.35,-127.03 530.29,-111.68 498.32,-100.78"/>
<polygon fill="#63b8ff" stroke="#63b8ff" points="499.62,-97.52 489.03,-97.61 497.36,-104.15 499.62,-97.52"/>
</a>
</g>
</g>
<!-- Node13 -->
<g id="Node000013" class="node">
<title>Node13</title>
<g id="a_Node000013"><a xlink:title=" ">
<polygon fill="#e0e0e0" stroke="#999999" points="716.02,-96.62 543.27,-96.62 543.27,-75.88 716.02,-75.88 716.02,-96.62"/>
<text text-anchor="middle" x="629.65" y="-83.12" font-family="Helvetica,sans-Serif" font-size="10.00">mlir/IR/DialectImplementation.h</text>
</a>
</g>
</g>
<!-- Node10&#45;&gt;Node13 -->
<g id="edge17_Node000010_Node000013" class="edge">
<title>Node10&#45;&gt;Node13</title>
<g id="a_edge17_Node000010_Node000013"><a xlink:title=" ">
<path fill="none" stroke="#63b8ff" d="M650.25,-138.75C646.53,-129.45 641.8,-117.63 637.81,-107.66"/>
<polygon fill="#63b8ff" stroke="#63b8ff" points="641.1,-106.46 634.14,-98.48 634.6,-109.06 641.1,-106.46"/>
</a>
</g>
</g>
<!-- Node14 -->
<g id="Node000014" class="node">
<title>Node14</title>
<g id="a_Node000014"><a xlink:title=" ">
<polygon fill="#e0e0e0" stroke="#999999" points="832.9,-96.62 734.4,-96.62 734.4,-75.88 832.9,-75.88 832.9,-96.62"/>
<text text-anchor="middle" x="783.65" y="-83.12" font-family="Helvetica,sans-Serif" font-size="10.00">llvm/ADT/APInt.h</text>
</a>
</g>
</g>
<!-- Node10&#45;&gt;Node14 -->
<g id="edge18_Node000010_Node000014" class="edge">
<title>Node10&#45;&gt;Node14</title>
<g id="a_edge18_Node000010_Node000014"><a xlink:title=" ">
<path fill="none" stroke="#63b8ff" d="M687.07,-138.58C707.81,-127.56 735.09,-113.05 755.37,-102.28"/>
<polygon fill="#63b8ff" stroke="#63b8ff" points="756.74,-105.52 763.93,-97.73 753.45,-99.33 756.74,-105.52"/>
</a>
</g>
</g>
<!-- Node15 -->
<g id="Node000015" class="node">
<title>Node15</title>
<g id="a_Node000015"><a xlink:title=" ">
<polygon fill="#e0e0e0" stroke="#999999" points="964.02,-96.62 851.27,-96.62 851.27,-75.88 964.02,-75.88 964.02,-96.62"/>
<text text-anchor="middle" x="907.65" y="-83.12" font-family="Helvetica,sans-Serif" font-size="10.00">llvm/ADT/Hashing.h</text>
</a>
</g>
</g>
<!-- Node10&#45;&gt;Node15 -->
<g id="edge19_Node000010_Node000015" class="edge">
<title>Node10&#45;&gt;Node15</title>
<g id="a_edge19_Node000010_Node000015"><a xlink:title=" ">
<path fill="none" stroke="#63b8ff" d="M712.35,-139.77C756.67,-127.85 818.02,-111.35 860.06,-100.05"/>
<polygon fill="#63b8ff" stroke="#63b8ff" points="860.9,-103.45 869.65,-97.47 859.08,-96.69 860.9,-103.45"/>
</a>
</g>
</g>
<!-- Node16 -->
<g id="Node000016" class="node">
<title>Node16</title>
<g id="a_Node000016"><a xlink:title=" ">
<polygon fill="#e0e0e0" stroke="#999999" points="1026.9,-96.62 982.4,-96.62 982.4,-75.88 1026.9,-75.88 1026.9,-96.62"/>
<text text-anchor="middle" x="1004.65" y="-83.12" font-family="Helvetica,sans-Serif" font-size="10.00">utility</text>
</a>
</g>
</g>
<!-- Node10&#45;&gt;Node16 -->
<g id="edge20_Node000010_Node000016" class="edge">
<title>Node10&#45;&gt;Node16</title>
<g id="a_edge20_Node000010_Node000016"><a xlink:title=" ">
<path fill="none" stroke="#63b8ff" d="M712.24,-140.91C715.42,-140.23 718.57,-139.59 721.65,-139 832.31,-117.71 864.98,-136.3 972.65,-103 974.01,-102.58 975.39,-102.1 976.77,-101.59"/>
<polygon fill="#63b8ff" stroke="#63b8ff" points="977.94,-104.9 985.73,-97.71 975.16,-98.47 977.94,-104.9"/>
</a>
</g>
</g>
<!-- Node12 -->
<g id="Node000012" class="node">
<title>Node12</title>
<g id="a_Node000012"><a xlink:title=" ">
<polygon fill="#e0e0e0" stroke="#999999" points="535.65,-27.12 381.65,-27.12 381.65,-6.38 535.65,-6.38 535.65,-27.12"/>
<text text-anchor="middle" x="458.65" y="-13.62" font-family="Helvetica,sans-Serif" font-size="10.00">llvm/Support/raw_ostream.h</text>
</a>
</g>
</g>
<!-- Node11&#45;&gt;Node12 -->
<g id="edge16_Node000011_Node000012" class="edge">
<title>Node11&#45;&gt;Node12</title>
<g id="a_edge16_Node000011_Node000012"><a xlink:title=" ">
<path fill="none" stroke="#63b8ff" d="M458.65,-75.58C458.65,-65.96 458.65,-50.88 458.65,-38.54"/>
<polygon fill="#63b8ff" stroke="#63b8ff" points="462.15,-38.92 458.65,-28.92 455.15,-38.92 462.15,-38.92"/>
</a>
</g>
</g>
<!-- Node21 -->
<g id="Node000021" class="node">
<title>Node21</title>
<g id="a_Node000021"><a xlink:title=" ">
<polygon fill="#e0e0e0" stroke="#999999" points="1041.9,-27.12 931.4,-27.12 931.4,-6.38 1041.9,-6.38 1041.9,-27.12"/>
<text text-anchor="middle" x="986.65" y="-13.62" font-family="Helvetica,sans-Serif" font-size="10.00">mlir/IR/BuiltinOps.h</text>
</a>
</g>
</g>
<!-- Node20&#45;&gt;Node21 -->
<g id="edge26_Node000020_Node000021" class="edge">
<title>Node20&#45;&gt;Node21</title>
<g id="a_edge26_Node000020_Node000021"><a xlink:title=" ">
<path fill="none" stroke="#63b8ff" d="M1183.32,-143.8C1149.45,-135.88 1107.34,-122.99 1073.65,-103 1065.58,-98.22 1026.94,-59.15 1003.95,-35.59"/>
<polygon fill="#63b8ff" stroke="#63b8ff" points="1006.55,-33.24 997.06,-28.51 1001.53,-38.12 1006.55,-33.24"/>
</a>
</g>
</g>
<!-- Node22 -->
<g id="Node000022" class="node">
<title>Node22</title>
<g id="a_Node000022"><a xlink:href="Constrain_2IR_2Dialect_8h_8inc.html" target="_top" xlink:title=" ">
<polygon fill="white" stroke="#666666" points="1202.77,-103 1082.52,-103 1082.52,-69.5 1202.77,-69.5 1202.77,-103"/>
<text text-anchor="start" x="1090.52" y="-89.5" font-family="Helvetica,sans-Serif" font-size="10.00">llzk/Dialect/Constrain</text>
<text text-anchor="middle" x="1142.65" y="-76.75" font-family="Helvetica,sans-Serif" font-size="10.00">/IR/Dialect.h.inc</text>
</a>
</g>
</g>
<!-- Node20&#45;&gt;Node22 -->
<g id="edge27_Node000020_Node000022" class="edge">
<title>Node20&#45;&gt;Node22</title>
<g id="a_edge27_Node000020_Node000022"><a xlink:title=" ">
<path fill="none" stroke="#63b8ff" d="M1219.45,-138.58C1206.46,-129.9 1190.25,-119.06 1176.07,-109.59"/>
<polygon fill="#63b8ff" stroke="#63b8ff" points="1178.16,-106.77 1167.9,-104.13 1174.27,-112.59 1178.16,-106.77"/>
</a>
</g>
</g>
<!-- Node23&#45;&gt;Node20 -->
<g id="edge42_Node000023_Node000020" class="edge">
<title>Node23&#45;&gt;Node20</title>
<g id="a_edge42_Node000023_Node000020"><a xlink:title=" ">
<path fill="none" stroke="#63b8ff" d="M1419.32,-208.08C1386.44,-198.47 1344.53,-186.23 1309.89,-176.11"/>
<polygon fill="#63b8ff" stroke="#63b8ff" points="1310.96,-172.77 1300.38,-173.33 1308.99,-179.49 1310.96,-172.77"/>
</a>
</g>
</g>
<!-- Node24 -->
<g id="Node000024" class="node">
<title>Node24</title>
<g id="a_Node000024"><a xlink:href="Array_2IR_2Types_8h.html" target="_top" xlink:title=" ">
<polygon fill="white" stroke="#666666" points="1524.65,-172.5 1424.65,-172.5 1424.65,-139 1524.65,-139 1524.65,-172.5"/>
<text text-anchor="start" x="1432.65" y="-159" font-family="Helvetica,sans-Serif" font-size="10.00">llzk/Dialect/Array</text>
<text text-anchor="middle" x="1474.65" y="-146.25" font-family="Helvetica,sans-Serif" font-size="10.00">/IR/Types.h</text>
</a>
</g>
</g>
<!-- Node23&#45;&gt;Node24 -->
<g id="edge29_Node000023_Node000024" class="edge">
<title>Node23&#45;&gt;Node24</title>
<g id="a_edge29_Node000023_Node000024"><a xlink:title=" ">
<path fill="none" stroke="#63b8ff" d="M1474.65,-208.25C1474.65,-201.02 1474.65,-192.28 1474.65,-184.06"/>
<polygon fill="#63b8ff" stroke="#63b8ff" points="1478.15,-184.15 1474.65,-174.15 1471.15,-184.15 1478.15,-184.15"/>
</a>
</g>
</g>
<!-- Node36 -->
<g id="Node000036" class="node">
<title>Node36</title>
<g id="a_Node000036"><a xlink:href="Constrain_2IR_2OpInterfaces_8h.html" target="_top" xlink:title=" ">
<polygon fill="white" stroke="#666666" points="1909.77,-172.5 1789.52,-172.5 1789.52,-139 1909.77,-139 1909.77,-172.5"/>
<text text-anchor="start" x="1797.52" y="-159" font-family="Helvetica,sans-Serif" font-size="10.00">llzk/Dialect/Constrain</text>
<text text-anchor="middle" x="1849.65" y="-146.25" font-family="Helvetica,sans-Serif" font-size="10.00">/IR/OpInterfaces.h</text>
</a>
</g>
</g>
<!-- Node23&#45;&gt;Node36 -->
<g id="edge43_Node000023_Node000036" class="edge">
<title>Node23&#45;&gt;Node36</title>
<g id="a_edge43_Node000023_Node000036"><a xlink:title=" ">
<path fill="none" stroke="#63b8ff" d="M1535.19,-210.23C1538.04,-209.63 1540.87,-209.05 1543.65,-208.5 1623.5,-192.65 1715.69,-177.48 1777.83,-167.71"/>
<polygon fill="#63b8ff" stroke="#63b8ff" points="1778.24,-171.19 1787.58,-166.19 1777.16,-164.27 1778.24,-171.19"/>
</a>
</g>
</g>
<!-- Node40 -->
<g id="Node000040" class="node">
<title>Node40</title>
<g id="a_Node000040"><a xlink:href="OpTraits_8h.html" target="_top" xlink:title=" ">
<polygon fill="white" stroke="#666666" points="2108.15,-172.5 1993.15,-172.5 1993.15,-139 2108.15,-139 2108.15,-172.5"/>
<text text-anchor="start" x="2001.15" y="-159" font-family="Helvetica,sans-Serif" font-size="10.00">llzk/Dialect/Function</text>
<text text-anchor="middle" x="2050.65" y="-146.25" font-family="Helvetica,sans-Serif" font-size="10.00">/IR/OpTraits.h</text>
</a>
</g>
</g>
<!-- Node23&#45;&gt;Node40 -->
<g id="edge48_Node000023_Node000040" class="edge">
<title>Node23&#45;&gt;Node40</title>
<g id="a_edge48_Node000023_Node000040"><a xlink:title=" ">
<path fill="none" stroke="#63b8ff" d="M1535.14,-209.98C1538.01,-209.45 1540.86,-208.95 1543.65,-208.5 1708.94,-181.81 1752.17,-190.42 1918.65,-172.5 1939.07,-170.3 1961.26,-167.73 1981.5,-165.3"/>
<polygon fill="#63b8ff" stroke="#63b8ff" points="1981.84,-168.79 1991.35,-164.12 1981,-161.84 1981.84,-168.79"/>
</a>
</g>
</g>
<!-- Node42 -->
<g id="Node000042" class="node">
<title>Node42</title>
<g id="a_Node000042"><a xlink:href="Constrain_2IR_2Ops_8h_8inc.html" target="_top" xlink:title=" ">
<polygon fill="white" stroke="#666666" points="2246.77,-172.5 2126.52,-172.5 2126.52,-139 2246.77,-139 2246.77,-172.5"/>
<text text-anchor="start" x="2134.52" y="-159" font-family="Helvetica,sans-Serif" font-size="10.00">llzk/Dialect/Constrain</text>
<text text-anchor="middle" x="2186.65" y="-146.25" font-family="Helvetica,sans-Serif" font-size="10.00">/IR/Ops.h.inc</text>
</a>
</g>
</g>
<!-- Node23&#45;&gt;Node42 -->
<g id="edge52_Node000023_Node000042" class="edge">
<title>Node23&#45;&gt;Node42</title>
<g id="a_edge52_Node000023_Node000042"><a xlink:title=" ">
<path fill="none" stroke="#63b8ff" d="M1535.12,-209.86C1538,-209.36 1540.85,-208.9 1543.65,-208.5 1792.92,-172.47 1862.63,-207.99 2114.8,-172.76"/>
<polygon fill="#63b8ff" stroke="#63b8ff" points="2115.26,-176.23 2124.67,-171.35 2114.28,-169.29 2115.26,-176.23"/>
</a>
</g>
</g>
<!-- Node25 -->
<g id="Node000025" class="node">
<title>Node25</title>
<g id="a_Node000025"><a xlink:href="Array_2IR_2Dialect_8h.html" target="_top" xlink:title=" ">
<polygon fill="white" stroke="#666666" points="1320.65,-103 1220.65,-103 1220.65,-69.5 1320.65,-69.5 1320.65,-103"/>
<text text-anchor="start" x="1228.65" y="-89.5" font-family="Helvetica,sans-Serif" font-size="10.00">llzk/Dialect/Array</text>
<text text-anchor="middle" x="1270.65" y="-76.75" font-family="Helvetica,sans-Serif" font-size="10.00">/IR/Dialect.h</text>
</a>
</g>
</g>
<!-- Node24&#45;&gt;Node25 -->
<g id="edge30_Node000024_Node000025" class="edge">
<title>Node24&#45;&gt;Node25</title>
<g id="a_edge30_Node000024_Node000025"><a xlink:title=" ">
<path fill="none" stroke="#63b8ff" d="M1425.78,-138.58C1397.12,-129.1 1360.7,-117.05 1330.35,-107"/>
<polygon fill="#63b8ff" stroke="#63b8ff" points="1331.49,-103.7 1320.9,-103.88 1329.29,-110.34 1331.49,-103.7"/>
</a>
</g>
</g>
<!-- Node27 -->
<g id="Node000027" class="node">
<title>Node27</title>
<g id="a_Node000027"><a xlink:href="ErrorHelper_8h.html" target="_top" xlink:title=" ">
<polygon fill="white" stroke="#666666" points="1458.77,-96.62 1338.52,-96.62 1338.52,-75.88 1458.77,-75.88 1458.77,-96.62"/>
<text text-anchor="middle" x="1398.65" y="-83.12" font-family="Helvetica,sans-Serif" font-size="10.00">llzk/Util/ErrorHelper.h</text>
</a>
</g>
</g>
<!-- Node24&#45;&gt;Node27 -->
<g id="edge33_Node000024_Node000027" class="edge">
<title>Node24&#45;&gt;Node27</title>
<g id="a_edge33_Node000024_Node000027"><a xlink:title=" ">
<path fill="none" stroke="#63b8ff" d="M1456.63,-138.75C1445.02,-128.44 1429.93,-115.03 1418.05,-104.48"/>
<polygon fill="#63b8ff" stroke="#63b8ff" points="1420.64,-102.1 1410.84,-98.08 1415.99,-107.33 1420.64,-102.1"/>
</a>
</g>
</g>
<!-- Node34 -->
<g id="Node000034" class="node">
<title>Node34</title>
<g id="a_Node000034"><a xlink:title=" ">
<polygon fill="#e0e0e0" stroke="#999999" points="1626.4,-103 1476.9,-103 1476.9,-69.5 1626.4,-69.5 1626.4,-103"/>
<text text-anchor="start" x="1484.9" y="-89.5" font-family="Helvetica,sans-Serif" font-size="10.00">mlir/Interfaces/MemorySlot</text>
<text text-anchor="middle" x="1551.65" y="-76.75" font-family="Helvetica,sans-Serif" font-size="10.00">Interfaces.h</text>
</a>
</g>
</g>
<!-- Node24&#45;&gt;Node34 -->
<g id="edge40_Node000024_Node000034" class="edge">
<title>Node24&#45;&gt;Node34</title>
<g id="a_edge40_Node000024_Node000034"><a xlink:title=" ">
<path fill="none" stroke="#63b8ff" d="M1492.89,-138.75C1502.41,-130.41 1514.24,-120.04 1524.79,-110.8"/>
<polygon fill="#63b8ff" stroke="#63b8ff" points="1526.91,-113.59 1532.12,-104.36 1522.3,-108.32 1526.91,-113.59"/>
</a>
</g>
</g>
<!-- Node35 -->
<g id="Node000035" class="node">
<title>Node35</title>
<g id="a_Node000035"><a xlink:href="Array_2IR_2Types_8h_8inc.html" target="_top" xlink:title=" ">
<polygon fill="white" stroke="#666666" points="1744.65,-103 1644.65,-103 1644.65,-69.5 1744.65,-69.5 1744.65,-103"/>
<text text-anchor="start" x="1652.65" y="-89.5" font-family="Helvetica,sans-Serif" font-size="10.00">llzk/Dialect/Array</text>
<text text-anchor="middle" x="1694.65" y="-76.75" font-family="Helvetica,sans-Serif" font-size="10.00">/IR/Types.h.inc</text>
</a>
</g>
</g>
<!-- Node24&#45;&gt;Node35 -->
<g id="edge41_Node000024_Node000035" class="edge">
<title>Node24&#45;&gt;Node35</title>
<g id="a_edge41_Node000024_Node000035"><a xlink:title=" ">
<path fill="none" stroke="#63b8ff" d="M1525.12,-139.26C1557.4,-129.36 1599.47,-116.45 1633.62,-105.97"/>
<polygon fill="#63b8ff" stroke="#63b8ff" points="1634.43,-109.39 1642.96,-103.11 1632.37,-102.7 1634.43,-109.39"/>
</a>
</g>
</g>
<!-- Node25&#45;&gt;Node21 -->
<g id="edge31_Node000025_Node000021" class="edge">
<title>Node25&#45;&gt;Node21</title>
<g id="a_edge31_Node000025_Node000021"><a xlink:title=" ">
<path fill="none" stroke="#63b8ff" d="M1220.15,-71.62C1217.28,-70.89 1214.43,-70.18 1211.65,-69.5 1140.43,-52.04 1122.03,-50.26 1050.65,-33.5 1046.13,-32.44 1041.45,-31.32 1036.76,-30.19"/>
<polygon fill="#63b8ff" stroke="#63b8ff" points="1037.89,-26.86 1027.35,-27.9 1036.24,-33.67 1037.89,-26.86"/>
</a>
</g>
</g>
<!-- Node26 -->
<g id="Node000026" class="node">
<title>Node26</title>
<g id="a_Node000026"><a xlink:href="Array_2IR_2Dialect_8h_8inc.html" target="_top" xlink:title=" ">
<polygon fill="white" stroke="#666666" points="1159.65,-33.5 1059.65,-33.5 1059.65,0 1159.65,0 1159.65,-33.5"/>
<text text-anchor="start" x="1067.65" y="-20" font-family="Helvetica,sans-Serif" font-size="10.00">llzk/Dialect/Array</text>
<text text-anchor="middle" x="1109.65" y="-7.25" font-family="Helvetica,sans-Serif" font-size="10.00">/IR/Dialect.h.inc</text>
</a>
</g>
</g>
<!-- Node25&#45;&gt;Node26 -->
<g id="edge32_Node000025_Node000026" class="edge">
<title>Node25&#45;&gt;Node26</title>
<g id="a_edge32_Node000025_Node000026"><a xlink:title=" ">
<path fill="none" stroke="#63b8ff" d="M1232.08,-69.08C1210.06,-59.85 1182.22,-48.18 1158.66,-38.3"/>
<polygon fill="#63b8ff" stroke="#63b8ff" points="1160.14,-35.13 1149.57,-34.49 1157.44,-41.58 1160.14,-35.13"/>
</a>
</g>
</g>
<!-- Node28 -->
<g id="Node000028" class="node">
<title>Node28</title>
<g id="a_Node000028"><a xlink:title=" ">
<polygon fill="#e0e0e0" stroke="#999999" points="1295.27,-27.12 1178.02,-27.12 1178.02,-6.38 1295.27,-6.38 1295.27,-27.12"/>
<text text-anchor="middle" x="1236.65" y="-13.62" font-family="Helvetica,sans-Serif" font-size="10.00">mlir/IR/Diagnostics.h</text>
</a>
</g>
</g>
<!-- Node27&#45;&gt;Node28 -->
<g id="edge34_Node000027_Node000028" class="edge">
<title>Node27&#45;&gt;Node28</title>
<g id="a_edge34_Node000027_Node000028"><a xlink:title=" ">
<path fill="none" stroke="#63b8ff" d="M1375.09,-75.43C1347.61,-63.99 1301.97,-44.97 1270.66,-31.92"/>
<polygon fill="#63b8ff" stroke="#63b8ff" points="1272.2,-28.77 1261.63,-28.16 1269.51,-35.24 1272.2,-28.77"/>
</a>
</g>
</g>
<!-- Node29 -->
<g id="Node000029" class="node">
<title>Node29</title>
<g id="a_Node000029"><a xlink:title=" ">
<polygon fill="#e0e0e0" stroke="#999999" points="1972.77,-27.12 1864.52,-27.12 1864.52,-6.38 1972.77,-6.38 1972.77,-27.12"/>
<text text-anchor="middle" x="1918.65" y="-13.62" font-family="Helvetica,sans-Serif" font-size="10.00">mlir/IR/Operation.h</text>
</a>
</g>
</g>
<!-- Node27&#45;&gt;Node29 -->
<g id="edge35_Node000027_Node000029" class="edge">
<title>Node27&#45;&gt;Node29</title>
<g id="a_edge35_Node000027_Node000029"><a xlink:title=" ">
<path fill="none" stroke="#63b8ff" d="M1437.52,-75.43C1447.3,-73.22 1457.82,-71.07 1467.65,-69.5 1638.66,-42.17 1684.92,-62.59 1855.65,-33.5 1860.99,-32.59 1866.55,-31.46 1872.06,-30.24"/>
<polygon fill="#63b8ff" stroke="#63b8ff" points="1872.79,-33.66 1881.72,-27.96 1871.19,-26.85 1872.79,-33.66"/>
</a>
</g>
</g>
<!-- Node30 -->
<g id="Node000030" class="node">
<title>Node30</title>
<g id="a_Node000030"><a xlink:title=" ">
<polygon fill="#e0e0e0" stroke="#999999" points="1484.27,-27.12 1313.02,-27.12 1313.02,-6.38 1484.27,-6.38 1484.27,-27.12"/>
<text text-anchor="middle" x="1398.65" y="-13.62" font-family="Helvetica,sans-Serif" font-size="10.00">llvm/ADT/STLFunctionalExtras.h</text>
</a>
</g>
</g>
<!-- Node27&#45;&gt;Node30 -->
<g id="edge36_Node000027_Node000030" class="edge">
<title>Node27&#45;&gt;Node30</title>
<g id="a_edge36_Node000027_Node000030"><a xlink:title=" ">
<path fill="none" stroke="#63b8ff" d="M1398.65,-75.58C1398.65,-65.96 1398.65,-50.88 1398.65,-38.54"/>
<polygon fill="#63b8ff" stroke="#63b8ff" points="1402.15,-38.92 1398.65,-28.92 1395.15,-38.92 1402.15,-38.92"/>
</a>
</g>
</g>
<!-- Node31 -->
<g id="Node000031" class="node">
<title>Node31</title>
<g id="a_Node000031"><a xlink:title=" ">
<polygon fill="#e0e0e0" stroke="#999999" points="1603.02,-27.12 1502.27,-27.12 1502.27,-6.38 1603.02,-6.38 1603.02,-27.12"/>
<text text-anchor="middle" x="1552.65" y="-13.62" font-family="Helvetica,sans-Serif" font-size="10.00">llvm/ADT/Twine.h</text>
</a>
</g>
</g>
<!-- Node27&#45;&gt;Node31 -->
<g id="edge37_Node000027_Node000031" class="edge">
<title>Node27&#45;&gt;Node31</title>
<g id="a_edge37_Node000027_Node000031"><a xlink:title=" ">
<path fill="none" stroke="#63b8ff" d="M1421.04,-75.43C1447.04,-64.04 1490.17,-45.14 1519.92,-32.09"/>
<polygon fill="#63b8ff" stroke="#63b8ff" points="1521.09,-35.4 1528.84,-28.18 1518.28,-28.99 1521.09,-35.4"/>
</a>
</g>
</g>
<!-- Node32 -->
<g id="Node000032" class="node">
<title>Node32</title>
<g id="a_Node000032"><a xlink:title=" ">
<polygon fill="#e0e0e0" stroke="#999999" points="1778.15,-27.12 1621.15,-27.12 1621.15,-6.38 1778.15,-6.38 1778.15,-27.12"/>
<text text-anchor="middle" x="1699.65" y="-13.62" font-family="Helvetica,sans-Serif" font-size="10.00">llvm/Support/ErrorHandling.h</text>
</a>
</g>
</g>
<!-- Node27&#45;&gt;Node32 -->
<g id="edge38_Node000027_Node000032" class="edge">
<title>Node27&#45;&gt;Node32</title>
<g id="a_edge38_Node000027_Node000032"><a xlink:title=" ">
<path fill="none" stroke="#63b8ff" d="M1441.7,-75.39C1450.29,-73.43 1459.26,-71.39 1467.65,-69.5 1527.89,-55.9 1596.99,-40.52 1644,-30.08"/>
<polygon fill="#63b8ff" stroke="#63b8ff" points="1644.67,-33.52 1653.68,-27.93 1643.16,-26.68 1644.67,-33.52"/>
</a>
</g>
</g>
<!-- Node33 -->
<g id="Node000033" class="node">
<title>Node33</title>
<g id="a_Node000033"><a xlink:title=" ">
<polygon fill="#e0e0e0" stroke="#999999" points="1846.9,-27.12 1796.4,-27.12 1796.4,-6.38 1846.9,-6.38 1846.9,-27.12"/>
<text text-anchor="middle" x="1821.65" y="-13.62" font-family="Helvetica,sans-Serif" font-size="10.00">variant</text>
</a>
</g>
</g>
<!-- Node27&#45;&gt;Node33 -->
<g id="edge39_Node000027_Node000033" class="edge">
<title>Node27&#45;&gt;Node33</title>
<g id="a_edge39_Node000027_Node000033"><a xlink:title=" ">
<path fill="none" stroke="#63b8ff" d="M1438.26,-75.4C1447.84,-73.25 1458.08,-71.13 1467.65,-69.5 1608.74,-45.54 1649.82,-72.08 1787.65,-33.5 1789.45,-32.99 1791.29,-32.4 1793.12,-31.75"/>
<polygon fill="#63b8ff" stroke="#63b8ff" points="1794.04,-35.15 1801.95,-28.11 1791.37,-28.68 1794.04,-35.15"/>
</a>
</g>
</g>
<!-- Node36&#45;&gt;Node29 -->
<g id="edge45_Node000036_Node000029" class="edge">
<title>Node36&#45;&gt;Node29</title>
<g id="a_edge45_Node000036_Node000029"><a xlink:title=" ">
<path fill="none" stroke="#63b8ff" d="M1823.68,-138.65C1811.85,-129.75 1799.09,-117.54 1792.65,-103 1786.62,-89.39 1784.36,-81.87 1792.65,-69.5 1802.04,-55.49 1840.1,-41.02 1871.96,-30.96"/>
<polygon fill="#63b8ff" stroke="#63b8ff" points="1872.93,-34.32 1881.46,-28.03 1870.87,-27.63 1872.93,-34.32"/>
</a>
</g>
</g>
<!-- Node37 -->
<g id="Node000037" class="node">
<title>Node37</title>
<g id="a_Node000037"><a xlink:title=" ">
<polygon fill="#e0e0e0" stroke="#999999" points="2176.15,-96.62 2055.15,-96.62 2055.15,-75.88 2176.15,-75.88 2176.15,-96.62"/>
<text text-anchor="middle" x="2115.65" y="-83.12" font-family="Helvetica,sans-Serif" font-size="10.00">mlir/IR/OpDefinition.h</text>
</a>
</g>
</g>
<!-- Node36&#45;&gt;Node37 -->
<g id="edge44_Node000036_Node000037" class="edge">
<title>Node36&#45;&gt;Node37</title>
<g id="a_edge44_Node000036_Node000037"><a xlink:title=" ">
<path fill="none" stroke="#63b8ff" d="M1910.01,-139.43C1957.1,-127.48 2021.73,-111.08 2065.89,-99.88"/>
<polygon fill="#63b8ff" stroke="#63b8ff" points="2066.63,-103.3 2075.46,-97.45 2064.91,-96.51 2066.63,-103.3"/>
</a>
</g>
</g>
<!-- Node38 -->
<g id="Node000038" class="node">
<title>Node38</title>
<g id="a_Node000038"><a xlink:title=" ">
<polygon fill="#e0e0e0" stroke="#999999" points="1898.15,-96.62 1801.15,-96.62 1801.15,-75.88 1898.15,-75.88 1898.15,-96.62"/>
<text text-anchor="middle" x="1849.65" y="-83.12" font-family="Helvetica,sans-Serif" font-size="10.00">mlir/IR/Visitors.h</text>
</a>
</g>
</g>
<!-- Node36&#45;&gt;Node38 -->
<g id="edge46_Node000036_Node000038" class="edge">
<title>Node36&#45;&gt;Node38</title>
<g id="a_edge46_Node000036_Node000038"><a xlink:title=" ">
<path fill="none" stroke="#63b8ff" d="M1849.65,-138.75C1849.65,-129.65 1849.65,-118.14 1849.65,-108.32"/>
<polygon fill="#63b8ff" stroke="#63b8ff" points="1853.15,-108.59 1849.65,-98.59 1846.15,-108.59 1853.15,-108.59"/>
</a>
</g>
</g>
<!-- Node39 -->
<g id="Node000039" class="node">
<title>Node39</title>
<g id="a_Node000039"><a xlink:href="Constrain_2IR_2OpInterfaces_8h_8inc.html" target="_top" xlink:title=" ">
<polygon fill="white" stroke="#666666" points="2036.77,-103 1916.52,-103 1916.52,-69.5 2036.77,-69.5 2036.77,-103"/>
<text text-anchor="start" x="1924.52" y="-89.5" font-family="Helvetica,sans-Serif" font-size="10.00">llzk/Dialect/Constrain</text>
<text text-anchor="middle" x="1976.65" y="-76.75" font-family="Helvetica,sans-Serif" font-size="10.00">/IR/OpInterfaces.h.inc</text>
</a>
</g>
</g>
<!-- Node36&#45;&gt;Node39 -->
<g id="edge47_Node000036_Node000039" class="edge">
<title>Node36&#45;&gt;Node39</title>
<g id="a_edge47_Node000036_Node000039"><a xlink:title=" ">
<path fill="none" stroke="#63b8ff" d="M1880.07,-138.58C1896.95,-129.61 1918.17,-118.33 1936.41,-108.63"/>
<polygon fill="#63b8ff" stroke="#63b8ff" points="1937.95,-111.78 1945.14,-104 1934.66,-105.6 1937.95,-111.78"/>
</a>
</g>
</g>
<!-- Node40&#45;&gt;Node29 -->
<g id="edge50_Node000040_Node000029" class="edge">
<title>Node40&#45;&gt;Node29</title>
<g id="a_edge50_Node000040_Node000029"><a xlink:title=" ">
<path fill="none" stroke="#63b8ff" d="M2108.48,-141.29C2156.65,-127.37 2213.25,-102.97 2185.65,-69.5 2160.64,-39.18 2055.24,-26.41 1984.58,-21.19"/>
<polygon fill="#63b8ff" stroke="#63b8ff" points="1984.86,-17.7 1974.64,-20.49 1984.37,-24.68 1984.86,-17.7"/>
</a>
</g>
</g>
<!-- Node40&#45;&gt;Node37 -->
<g id="edge49_Node000040_Node000037" class="edge">
<title>Node40&#45;&gt;Node37</title>
<g id="a_edge49_Node000040_Node000037"><a xlink:title=" ">
<path fill="none" stroke="#63b8ff" d="M2066.05,-138.75C2075.79,-128.64 2088.39,-115.56 2098.45,-105.11"/>
<polygon fill="#63b8ff" stroke="#63b8ff" points="2100.72,-107.79 2105.14,-98.16 2095.68,-102.94 2100.72,-107.79"/>
</a>
</g>
</g>
<!-- Node41 -->
<g id="Node000041" class="node">
<title>Node41</title>
<g id="a_Node000041"><a xlink:title=" ">
<polygon fill="#e0e0e0" stroke="#999999" points="2386.27,-96.62 2233.02,-96.62 2233.02,-75.88 2386.27,-75.88 2386.27,-96.62"/>
<text text-anchor="middle" x="2309.65" y="-83.12" font-family="Helvetica,sans-Serif" font-size="10.00">mlir/Support/LogicalResult.h</text>
</a>
</g>
</g>
<!-- Node40&#45;&gt;Node41 -->
<g id="edge51_Node000040_Node000041" class="edge">
<title>Node40&#45;&gt;Node41</title>
<g id="a_edge51_Node000040_Node000041"><a xlink:title=" ">
<path fill="none" stroke="#63b8ff" d="M2108.45,-139.69C2154.3,-127.74 2217.65,-111.23 2260.94,-99.94"/>
<polygon fill="#63b8ff" stroke="#63b8ff" points="2261.78,-103.34 2270.58,-97.43 2260.02,-96.57 2261.78,-103.34"/>
</a>
</g>
</g>
<!-- Node45 -->
<g id="Node000045" class="node">
<title>Node45</title>
<g id="a_Node000045"><a xlink:title=" ">
<polygon fill="#e0e0e0" stroke="#999999" points="2308.52,-166.12 2264.77,-166.12 2264.77,-145.38 2308.52,-145.38 2308.52,-166.12"/>
<text text-anchor="middle" x="2286.65" y="-152.62" font-family="Helvetica,sans-Serif" font-size="10.00">limits</text>
</a>
</g>
</g>
<!-- Node44&#45;&gt;Node45 -->
<g id="edge55_Node000044_Node000045" class="edge">
<title>Node44&#45;&gt;Node45</title>
<g id="a_edge55_Node000044_Node000045"><a xlink:title=" ">
<path fill="none" stroke="#63b8ff" d="M2089.8,-214.63C2136,-206.25 2200.96,-192.31 2255.65,-172.5 2256.78,-172.09 2257.93,-171.65 2259.08,-171.18"/>
<polygon fill="#63b8ff" stroke="#63b8ff" points="2260.26,-174.49 2267.9,-167.14 2257.35,-168.12 2260.26,-174.49"/>
</a>
</g>
</g>
</g>
</svg>
