<?xml version="1.0" encoding="UTF-8" standalone="no"?>
<!DOCTYPE svg PUBLIC "-//W3C//DTD SVG 1.1//EN"
 "http://www.w3.org/Graphics/SVG/1.1/DTD/svg11.dtd">
<!-- Generated by graphviz version 12.2.1 (0)
 -->
<!-- Title: lib/CAPI/Dialect/Constrain.cpp Pages: 1 -->
<svg width="2208pt" height="307pt"
 viewBox="0.00 0.00 2208.35 306.75" xmlns="http://www.w3.org/2000/svg" xmlns:xlink="http://www.w3.org/1999/xlink">
<g id="graph0" class="graph" transform="scale(1 1) rotate(0) translate(4 302.75)">
<title>lib/CAPI/Dialect/Constrain.cpp</title>
<!-- Node1 -->
<g id="Node000001" class="node">
<title>Node1</title>
<g id="a_Node000001"><a xlink:title=" ">
<polygon fill="#999999" stroke="#666666" points="1159.1,-298.75 998.35,-298.75 998.35,-278 1159.1,-278 1159.1,-298.75"/>
<text text-anchor="middle" x="1078.72" y="-285.25" font-family="Helvetica,sans-Serif" font-size="10.00">lib/CAPI/Dialect/Constrain.cpp</text>
</a>
</g>
</g>
<!-- Node2 -->
<g id="Node000002" class="node">
<title>Node2</title>
<g id="a_Node000002"><a xlink:href="Constrain_8h.html" target="_top" xlink:title=" ">
<polygon fill="white" stroke="#666666" points="142.85,-235.62 4.6,-235.62 4.6,-214.88 142.85,-214.88 142.85,-235.62"/>
<text text-anchor="middle" x="73.72" y="-222.12" font-family="Helvetica,sans-Serif" font-size="10.00">llzk&#45;c/Dialect/Constrain.h</text>
</a>
</g>
</g>
<!-- Node1&#45;&gt;Node2 -->
<g id="edge1_Node000001_Node000002" class="edge">
<title>Node1&#45;&gt;Node2</title>
<g id="a_edge1_Node000001_Node000002"><a xlink:title=" ">
<path fill="none" stroke="#63b8ff" d="M998.18,-282.48C809.98,-271.03 343.11,-242.63 154.59,-231.17"/>
<polygon fill="#63b8ff" stroke="#63b8ff" points="154.83,-227.68 144.64,-230.56 154.4,-234.66 154.83,-227.68"/>
</a>
</g>
</g>
<!-- Node7 -->
<g id="Node000007" class="node">
<title>Node7</title>
<g id="a_Node000007"><a xlink:href="llzk_2CAPI_2Support_8h.html" target="_top" xlink:title=" ">
<polygon fill="white" stroke="#666666" points="526.85,-235.62 418.6,-235.62 418.6,-214.88 526.85,-214.88 526.85,-235.62"/>
<text text-anchor="middle" x="472.72" y="-222.12" font-family="Helvetica,sans-Serif" font-size="10.00">llzk/CAPI/Support.h</text>
</a>
</g>
</g>
<!-- Node1&#45;&gt;Node7 -->
<g id="edge8_Node000001_Node000007" class="edge">
<title>Node1&#45;&gt;Node7</title>
<g id="a_edge8_Node000001_Node000007"><a xlink:title=" ">
<path fill="none" stroke="#63b8ff" d="M997.94,-279.23C876.71,-267 650.09,-244.14 538.4,-232.87"/>
<polygon fill="#63b8ff" stroke="#63b8ff" points="538.78,-229.4 528.48,-231.87 538.08,-236.36 538.78,-229.4"/>
</a>
</g>
</g>
<!-- Node18 -->
<g id="Node000018" class="node">
<title>Node18</title>
<g id="a_Node000018"><a xlink:href="Constrain_2IR_2Dialect_8h.html" target="_top" xlink:title=" ">
<polygon fill="white" stroke="#666666" points="1042.85,-172.5 922.6,-172.5 922.6,-139 1042.85,-139 1042.85,-172.5"/>
<text text-anchor="start" x="930.6" y="-159" font-family="Helvetica,sans-Serif" font-size="10.00">llzk/Dialect/Constrain</text>
<text text-anchor="middle" x="982.72" y="-146.25" font-family="Helvetica,sans-Serif" font-size="10.00">/IR/Dialect.h</text>
</a>
</g>
</g>
<!-- Node1&#45;&gt;Node18 -->
<g id="edge23_Node000001_Node000018" class="edge">
<title>Node1&#45;&gt;Node18</title>
<g id="a_edge23_Node000001_Node000018"><a xlink:title=" ">
<path fill="none" stroke="#63b8ff" d="M1071.51,-277.56C1056.7,-257.41 1022.47,-210.84 1001.1,-181.76"/>
<polygon fill="#63b8ff" stroke="#63b8ff" points="1004.04,-179.84 995.29,-173.85 998.4,-183.98 1004.04,-179.84"/>
</a>
</g>
</g>
<!-- Node21 -->
<g id="Node000021" class="node">
<title>Node21</title>
<g id="a_Node000021"><a xlink:href="Constrain_2IR_2Ops_8h.html" target="_top" xlink:title=" ">
<polygon fill="white" stroke="#666666" points="1286.85,-242 1166.6,-242 1166.6,-208.5 1286.85,-208.5 1286.85,-242"/>
<text text-anchor="start" x="1174.6" y="-228.5" font-family="Helvetica,sans-Serif" font-size="10.00">llzk/Dialect/Constrain</text>
<text text-anchor="middle" x="1226.72" y="-215.75" font-family="Helvetica,sans-Serif" font-size="10.00">/IR/Ops.h</text>
</a>
</g>
</g>
<!-- Node1&#45;&gt;Node21 -->
<g id="edge26_Node000001_Node000021" class="edge">
<title>Node1&#45;&gt;Node21</title>
<g id="a_edge26_Node000001_Node000021"><a xlink:title=" ">
<path fill="none" stroke="#63b8ff" d="M1102.5,-277.55C1122.52,-269.29 1151.83,-257.18 1176.94,-246.81"/>
<polygon fill="#63b8ff" stroke="#63b8ff" points="1178.11,-250.12 1186.01,-243.06 1175.44,-243.65 1178.11,-250.12"/>
</a>
</g>
</g>
<!-- Node41 -->
<g id="Node000041" class="node">
<title>Node41</title>
<g id="a_Node000041"><a xlink:title=" ">
<polygon fill="#e0e0e0" stroke="#999999" points="1436.85,-235.62 1304.6,-235.62 1304.6,-214.88 1436.85,-214.88 1436.85,-235.62"/>
<text text-anchor="middle" x="1370.72" y="-222.12" font-family="Helvetica,sans-Serif" font-size="10.00">mlir/CAPI/Registration.h</text>
</a>
</g>
</g>
<!-- Node1&#45;&gt;Node41 -->
<g id="edge51_Node000001_Node000041" class="edge">
<title>Node1&#45;&gt;Node41</title>
<g id="a_edge51_Node000001_Node000041"><a xlink:title=" ">
<path fill="none" stroke="#63b8ff" d="M1125.71,-277.56C1169.67,-268.38 1237.15,-254.27 1295.72,-242 1301.28,-240.84 1307.06,-239.62 1312.85,-238.41"/>
<polygon fill="#63b8ff" stroke="#63b8ff" points="1313.37,-241.88 1322.43,-236.4 1311.93,-235.03 1313.37,-241.88"/>
</a>
</g>
</g>
<!-- Node42 -->
<g id="Node000042" class="node">
<title>Node42</title>
<g id="a_Node000042"><a xlink:href="Constrain_2IR_2Ops_8capi_8cpp_8inc.html" target="_top" xlink:title=" ">
<polygon fill="white" stroke="#666666" points="1574.85,-242 1454.6,-242 1454.6,-208.5 1574.85,-208.5 1574.85,-242"/>
<text text-anchor="start" x="1462.6" y="-228.5" font-family="Helvetica,sans-Serif" font-size="10.00">llzk/Dialect/Constrain</text>
<text text-anchor="middle" x="1514.72" y="-215.75" font-family="Helvetica,sans-Serif" font-size="10.00">/IR/Ops.capi.cpp.inc</text>
</a>
</g>
</g>
<!-- Node1&#45;&gt;Node42 -->
<g id="edge52_Node000001_Node000042" class="edge">
<title>Node1&#45;&gt;Node42</title>
<g id="a_edge52_Node000001_Node000042"><a xlink:title=" ">
<path fill="none" stroke="#63b8ff" d="M1159.25,-279.79C1231.22,-272.47 1339.75,-260.11 1442.95,-242.39"/>
<polygon fill="#63b8ff" stroke="#63b8ff" points="1443.47,-245.85 1452.72,-240.69 1442.27,-238.95 1443.47,-245.85"/>
</a>
</g>
</g>
<!-- Node3 -->
<g id="Node000003" class="node">
<title>Node3</title>
<g id="a_Node000003"><a xlink:title=" ">
<polygon fill="#e0e0e0" stroke="#999999" points="154.85,-27.12 88.6,-27.12 88.6,-6.38 154.85,-6.38 154.85,-27.12"/>
<text text-anchor="middle" x="121.72" y="-13.62" font-family="Helvetica,sans-Serif" font-size="10.00">mlir&#45;c/IR.h</text>
</a>
</g>
</g>
<!-- Node2&#45;&gt;Node3 -->
<g id="edge2_Node000002_Node000003" class="edge">
<title>Node2&#45;&gt;Node3</title>
<g id="a_edge2_Node000002_Node000003"><a xlink:title=" ">
<path fill="none" stroke="#63b8ff" d="M51.53,-214.45C35.28,-205.94 14.43,-191.92 4.72,-172.5 -1.94,-159.18 -0.85,-152.81 4.72,-139 23.34,-92.9 68.81,-54.57 97.27,-34.01"/>
<polygon fill="#63b8ff" stroke="#63b8ff" points="99.14,-36.97 105.31,-28.36 95.12,-31.24 99.14,-36.97"/>
</a>
</g>
</g>
<!-- Node4 -->
<g id="Node000004" class="node">
<title>Node4</title>
<g id="a_Node000004"><a xlink:href="Constrain_2IR_2Ops_8capi_8h_8inc.html" target="_top" xlink:title=" ">
<polygon fill="white" stroke="#666666" points="133.85,-172.5 13.6,-172.5 13.6,-139 133.85,-139 133.85,-172.5"/>
<text text-anchor="start" x="21.6" y="-159" font-family="Helvetica,sans-Serif" font-size="10.00">llzk/Dialect/Constrain</text>
<text text-anchor="middle" x="73.72" y="-146.25" font-family="Helvetica,sans-Serif" font-size="10.00">/IR/Ops.capi.h.inc</text>
</a>
</g>
</g>
<!-- Node2&#45;&gt;Node4 -->
<g id="edge3_Node000002_Node000004" class="edge">
<title>Node2&#45;&gt;Node4</title>
<g id="a_edge3_Node000002_Node000004"><a xlink:title=" ">
<path fill="none" stroke="#63b8ff" d="M73.72,-214.58C73.72,-206.69 73.72,-195.13 73.72,-184.41"/>
<polygon fill="#63b8ff" stroke="#63b8ff" points="77.22,-184.43 73.72,-174.43 70.22,-184.43 77.22,-184.43"/>
</a>
</g>
</g>
<!-- Node4&#45;&gt;Node3 -->
<g id="edge7_Node000004_Node000003" class="edge">
<title>Node4&#45;&gt;Node3</title>
<g id="a_edge7_Node000004_Node000003"><a xlink:title=" ">
<path fill="none" stroke="#63b8ff" d="M79.32,-138.77C88.07,-113.8 104.96,-65.59 114.58,-38.15"/>
<polygon fill="#63b8ff" stroke="#63b8ff" points="117.81,-39.5 117.81,-28.91 111.2,-37.19 117.81,-39.5"/>
</a>
</g>
</g>
<!-- Node5 -->
<g id="Node000005" class="node">
<title>Node5</title>
<g id="a_Node000005"><a xlink:href="llzk-c_2Builder_8h.html" target="_top" xlink:title=" ">
<polygon fill="white" stroke="#666666" points="275.72,-96.62 187.72,-96.62 187.72,-75.88 275.72,-75.88 275.72,-96.62"/>
<text text-anchor="middle" x="231.72" y="-83.12" font-family="Helvetica,sans-Serif" font-size="10.00">llzk&#45;c/Builder.h</text>
</a>
</g>
</g>
<!-- Node4&#45;&gt;Node5 -->
<g id="edge4_Node000004_Node000005" class="edge">
<title>Node4&#45;&gt;Node5</title>
<g id="a_edge4_Node000004_Node000005"><a xlink:title=" ">
<path fill="none" stroke="#63b8ff" d="M111.57,-138.58C137.97,-127.3 172.88,-112.39 198.27,-101.54"/>
<polygon fill="#63b8ff" stroke="#63b8ff" points="199.64,-104.76 207.46,-97.62 196.89,-98.33 199.64,-104.76"/>
</a>
</g>
</g>
<!-- Node5&#45;&gt;Node3 -->
<g id="edge5_Node000005_Node000003" class="edge">
<title>Node5&#45;&gt;Node3</title>
<g id="a_edge5_Node000005_Node000003"><a xlink:title=" ">
<path fill="none" stroke="#63b8ff" d="M215.96,-75.58C198.09,-64.61 168.7,-46.57 147.48,-33.56"/>
<polygon fill="#63b8ff" stroke="#63b8ff" points="149.46,-30.66 139.1,-28.41 145.79,-36.63 149.46,-30.66"/>
</a>
</g>
</g>
<!-- Node6 -->
<g id="Node000006" class="node">
<title>Node6</title>
<g id="a_Node000006"><a xlink:title=" ">
<polygon fill="#e0e0e0" stroke="#999999" points="349.72,-27.12 255.72,-27.12 255.72,-6.38 349.72,-6.38 349.72,-27.12"/>
<text text-anchor="middle" x="302.72" y="-13.62" font-family="Helvetica,sans-Serif" font-size="10.00">mlir&#45;c/Support.h</text>
</a>
</g>
</g>
<!-- Node5&#45;&gt;Node6 -->
<g id="edge6_Node000005_Node000006" class="edge">
<title>Node5&#45;&gt;Node6</title>
<g id="a_edge6_Node000005_Node000006"><a xlink:title=" ">
<path fill="none" stroke="#63b8ff" d="M241.9,-75.58C252.97,-65.05 270.9,-48.01 284.43,-35.14"/>
<polygon fill="#63b8ff" stroke="#63b8ff" points="286.64,-37.87 291.47,-28.45 281.81,-32.8 286.64,-37.87"/>
</a>
</g>
</g>
<!-- Node7&#45;&gt;Node3 -->
<g id="edge19_Node000007_Node000003" class="edge">
<title>Node7&#45;&gt;Node3</title>
<g id="a_edge19_Node000007_Node000003"><a xlink:title=" ">
<path fill="none" stroke="#63b8ff" d="M418.24,-220.71C344.15,-214.88 216.71,-200.97 180.72,-172.5 138.74,-139.28 126.61,-72.51 123.13,-38.57"/>
<polygon fill="#63b8ff" stroke="#63b8ff" points="126.63,-38.49 122.3,-28.82 119.66,-39.08 126.63,-38.49"/>
</a>
</g>
</g>
<!-- Node8 -->
<g id="Node000008" class="node">
<title>Node8</title>
<g id="a_Node000008"><a xlink:href="llzk-c_2Support_8h.html" target="_top" xlink:title=" ">
<polygon fill="white" stroke="#666666" points="281.6,-166.12 189.85,-166.12 189.85,-145.38 281.6,-145.38 281.6,-166.12"/>
<text text-anchor="middle" x="235.72" y="-152.62" font-family="Helvetica,sans-Serif" font-size="10.00">llzk&#45;c/Support.h</text>
</a>
</g>
</g>
<!-- Node7&#45;&gt;Node8 -->
<g id="edge9_Node000007_Node000008" class="edge">
<title>Node7&#45;&gt;Node8</title>
<g id="a_edge9_Node000007_Node000008"><a xlink:title=" ">
<path fill="none" stroke="#63b8ff" d="M438.17,-214.44C401.55,-204.05 342.05,-187.15 290.72,-172.5 287.59,-171.61 284.35,-170.68 281.1,-169.75"/>
<polygon fill="#63b8ff" stroke="#63b8ff" points="282.08,-166.39 271.5,-167.01 280.15,-173.12 282.08,-166.39"/>
</a>
</g>
</g>
<!-- Node10 -->
<g id="Node000010" class="node">
<title>Node10</title>
<g id="a_Node000010"><a xlink:href="AttributeHelper_8h.html" target="_top" xlink:title=" ">
<polygon fill="white" stroke="#666666" points="809.97,-172.5 699.47,-172.5 699.47,-139 809.97,-139 809.97,-172.5"/>
<text text-anchor="start" x="707.47" y="-159" font-family="Helvetica,sans-Serif" font-size="10.00">llzk/Dialect/LLZK/IR</text>
<text text-anchor="middle" x="754.72" y="-146.25" font-family="Helvetica,sans-Serif" font-size="10.00">/AttributeHelper.h</text>
</a>
</g>
</g>
<!-- Node7&#45;&gt;Node10 -->
<g id="edge14_Node000007_Node000010" class="edge">
<title>Node7&#45;&gt;Node10</title>
<g id="a_edge14_Node000007_Node000010"><a xlink:title=" ">
<path fill="none" stroke="#63b8ff" d="M514.54,-214.43C556.13,-204.64 622.06,-189.06 688.18,-173.1"/>
<polygon fill="#63b8ff" stroke="#63b8ff" points="688.86,-176.54 697.76,-170.79 687.21,-169.74 688.86,-176.54"/>
</a>
</g>
</g>
<!-- Node15 -->
<g id="Node000015" class="node">
<title>Node15</title>
<g id="a_Node000015"><a xlink:title=" ">
<polygon fill="#e0e0e0" stroke="#999999" points="382.1,-166.12 299.35,-166.12 299.35,-145.38 382.1,-145.38 382.1,-166.12"/>
<text text-anchor="middle" x="340.72" y="-152.62" font-family="Helvetica,sans-Serif" font-size="10.00">mlir/CAPI/IR.h</text>
</a>
</g>
</g>
<!-- Node7&#45;&gt;Node15 -->
<g id="edge20_Node000007_Node000015" class="edge">
<title>Node7&#45;&gt;Node15</title>
<g id="a_edge20_Node000007_Node000015"><a xlink:title=" ">
<path fill="none" stroke="#63b8ff" d="M453.53,-214.43C431.63,-203.24 395.57,-184.8 370.12,-171.78"/>
<polygon fill="#63b8ff" stroke="#63b8ff" points="371.78,-168.7 361.29,-167.27 368.6,-174.94 371.78,-168.7"/>
</a>
</g>
</g>
<!-- Node16 -->
<g id="Node000016" class="node">
<title>Node16</title>
<g id="a_Node000016"><a xlink:title=" ">
<polygon fill="#e0e0e0" stroke="#999999" points="545.6,-166.12 399.85,-166.12 399.85,-145.38 545.6,-145.38 545.6,-166.12"/>
<text text-anchor="middle" x="472.72" y="-152.62" font-family="Helvetica,sans-Serif" font-size="10.00">mlir/IR/OperationSupport.h</text>
</a>
</g>
</g>
<!-- Node7&#45;&gt;Node16 -->
<g id="edge21_Node000007_Node000016" class="edge">
<title>Node7&#45;&gt;Node16</title>
<g id="a_edge21_Node000007_Node000016"><a xlink:title=" ">
<path fill="none" stroke="#63b8ff" d="M472.72,-214.58C472.72,-204.96 472.72,-189.88 472.72,-177.54"/>
<polygon fill="#63b8ff" stroke="#63b8ff" points="476.22,-177.92 472.72,-167.92 469.22,-177.92 476.22,-177.92"/>
</a>
</g>
</g>
<!-- Node17 -->
<g id="Node000017" class="node">
<title>Node17</title>
<g id="a_Node000017"><a xlink:title=" ">
<polygon fill="#e0e0e0" stroke="#999999" points="681.72,-166.12 563.72,-166.12 563.72,-145.38 681.72,-145.38 681.72,-166.12"/>
<text text-anchor="middle" x="622.72" y="-152.62" font-family="Helvetica,sans-Serif" font-size="10.00">mlir/IR/ValueRange.h</text>
</a>
</g>
</g>
<!-- Node7&#45;&gt;Node17 -->
<g id="edge22_Node000007_Node000017" class="edge">
<title>Node7&#45;&gt;Node17</title>
<g id="a_edge22_Node000007_Node000017"><a xlink:title=" ">
<path fill="none" stroke="#63b8ff" d="M494.53,-214.43C519.75,-203.09 561.5,-184.3 590.47,-171.26"/>
<polygon fill="#63b8ff" stroke="#63b8ff" points="591.82,-174.49 599.51,-167.2 588.95,-168.11 591.82,-174.49"/>
</a>
</g>
</g>
<!-- Node8&#45;&gt;Node3 -->
<g id="edge11_Node000008_Node000003" class="edge">
<title>Node8&#45;&gt;Node3</title>
<g id="a_edge11_Node000008_Node000003"><a xlink:title=" ">
<path fill="none" stroke="#63b8ff" d="M223.58,-145.21C211.46,-135.36 192.69,-119.2 178.72,-103 160.72,-82.12 143.64,-55.3 132.95,-37.38"/>
<polygon fill="#63b8ff" stroke="#63b8ff" points="136.01,-35.67 127.94,-28.8 129.97,-39.2 136.01,-35.67"/>
</a>
</g>
</g>
<!-- Node8&#45;&gt;Node5 -->
<g id="edge10_Node000008_Node000005" class="edge">
<title>Node8&#45;&gt;Node5</title>
<g id="a_edge10_Node000008_Node000005"><a xlink:title=" ">
<path fill="none" stroke="#63b8ff" d="M235.15,-145.08C234.58,-135.46 233.69,-120.38 232.95,-108.04"/>
<polygon fill="#63b8ff" stroke="#63b8ff" points="236.47,-108.19 232.38,-98.41 229.48,-108.6 236.47,-108.19"/>
</a>
</g>
</g>
<!-- Node8&#45;&gt;Node6 -->
<g id="edge12_Node000008_Node000006" class="edge">
<title>Node8&#45;&gt;Node6</title>
<g id="a_edge12_Node000008_Node000006"><a xlink:title=" ">
<path fill="none" stroke="#63b8ff" d="M268.62,-144.93C300.28,-134.72 344.78,-118.17 354.72,-103 369.97,-79.74 345.69,-52.15 325.43,-34.8"/>
<polygon fill="#63b8ff" stroke="#63b8ff" points="327.71,-32.14 317.74,-28.55 323.29,-37.57 327.71,-32.14"/>
</a>
</g>
</g>
<!-- Node9 -->
<g id="Node000009" class="node">
<title>Node9</title>
<g id="a_Node000009"><a xlink:title=" ">
<polygon fill="#e0e0e0" stroke="#999999" points="346.1,-96.62 293.35,-96.62 293.35,-75.88 346.1,-75.88 346.1,-96.62"/>
<text text-anchor="middle" x="319.72" y="-83.12" font-family="Helvetica,sans-Serif" font-size="10.00">stdint.h</text>
</a>
</g>
</g>
<!-- Node8&#45;&gt;Node9 -->
<g id="edge13_Node000008_Node000009" class="edge">
<title>Node8&#45;&gt;Node9</title>
<g id="a_edge13_Node000008_Node000009"><a xlink:title=" ">
<path fill="none" stroke="#63b8ff" d="M247.76,-145.08C261.03,-134.41 282.63,-117.05 298.71,-104.13"/>
<polygon fill="#63b8ff" stroke="#63b8ff" points="300.65,-107.06 306.26,-98.07 296.27,-101.61 300.65,-107.06"/>
</a>
</g>
</g>
<!-- Node11 -->
<g id="Node000011" class="node">
<title>Node11</title>
<g id="a_Node000011"><a xlink:href="StreamHelper_8h.html" target="_top" xlink:title=" ">
<polygon fill="white" stroke="#666666" points="840.85,-96.62 708.6,-96.62 708.6,-75.88 840.85,-75.88 840.85,-96.62"/>
<text text-anchor="middle" x="774.72" y="-83.12" font-family="Helvetica,sans-Serif" font-size="10.00">llzk/Util/StreamHelper.h</text>
</a>
</g>
</g>
<!-- Node10&#45;&gt;Node11 -->
<g id="edge15_Node000010_Node000011" class="edge">
<title>Node10&#45;&gt;Node11</title>
<g id="a_edge15_Node000010_Node000011"><a xlink:title=" ">
<path fill="none" stroke="#63b8ff" d="M759.46,-138.75C762.19,-129.55 765.64,-117.89 768.58,-107.99"/>
<polygon fill="#63b8ff" stroke="#63b8ff" points="771.9,-109.11 771.38,-98.52 765.19,-107.12 771.9,-109.11"/>
</a>
</g>
</g>
<!-- Node13 -->
<g id="Node000013" class="node">
<title>Node13</title>
<g id="a_Node000013"><a xlink:title=" ">
<polygon fill="#e0e0e0" stroke="#999999" points="574.1,-96.62 401.35,-96.62 401.35,-75.88 574.1,-75.88 574.1,-96.62"/>
<text text-anchor="middle" x="487.72" y="-83.12" font-family="Helvetica,sans-Serif" font-size="10.00">mlir/IR/DialectImplementation.h</text>
</a>
</g>
</g>
<!-- Node10&#45;&gt;Node13 -->
<g id="edge17_Node000010_Node000013" class="edge">
<title>Node10&#45;&gt;Node13</title>
<g id="a_edge17_Node000010_Node000013"><a xlink:title=" ">
<path fill="none" stroke="#63b8ff" d="M699.08,-140.68C651.35,-128.62 583.23,-111.39 537.34,-99.79"/>
<polygon fill="#63b8ff" stroke="#63b8ff" points="538.48,-96.47 527.93,-97.41 536.77,-103.26 538.48,-96.47"/>
</a>
</g>
</g>
<!-- Node14 -->
<g id="Node000014" class="node">
<title>Node14</title>
<g id="a_Node000014"><a xlink:title=" ">
<polygon fill="#e0e0e0" stroke="#999999" points="690.97,-96.62 592.47,-96.62 592.47,-75.88 690.97,-75.88 690.97,-96.62"/>
<text text-anchor="middle" x="641.72" y="-83.12" font-family="Helvetica,sans-Serif" font-size="10.00">llvm/ADT/APInt.h</text>
</a>
</g>
</g>
<!-- Node10&#45;&gt;Node14 -->
<g id="edge18_Node000010_Node000014" class="edge">
<title>Node10&#45;&gt;Node14</title>
<g id="a_edge18_Node000010_Node000014"><a xlink:title=" ">
<path fill="none" stroke="#63b8ff" d="M727.66,-138.58C709.54,-127.76 685.81,-113.59 667.88,-102.88"/>
<polygon fill="#63b8ff" stroke="#63b8ff" points="669.76,-99.92 659.38,-97.8 666.17,-105.93 669.76,-99.92"/>
</a>
</g>
</g>
<!-- Node12 -->
<g id="Node000012" class="node">
<title>Node12</title>
<g id="a_Node000012"><a xlink:title=" ">
<polygon fill="#e0e0e0" stroke="#999999" points="851.72,-27.12 697.72,-27.12 697.72,-6.38 851.72,-6.38 851.72,-27.12"/>
<text text-anchor="middle" x="774.72" y="-13.62" font-family="Helvetica,sans-Serif" font-size="10.00">llvm/Support/raw_ostream.h</text>
</a>
</g>
</g>
<!-- Node11&#45;&gt;Node12 -->
<g id="edge16_Node000011_Node000012" class="edge">
<title>Node11&#45;&gt;Node12</title>
<g id="a_edge16_Node000011_Node000012"><a xlink:title=" ">
<path fill="none" stroke="#63b8ff" d="M774.72,-75.58C774.72,-65.96 774.72,-50.88 774.72,-38.54"/>
<polygon fill="#63b8ff" stroke="#63b8ff" points="778.22,-38.92 774.72,-28.92 771.22,-38.92 778.22,-38.92"/>
</a>
</g>
</g>
<!-- Node19 -->
<g id="Node000019" class="node">
<title>Node19</title>
<g id="a_Node000019"><a xlink:title=" ">
<polygon fill="#e0e0e0" stroke="#999999" points="1026.97,-27.12 916.47,-27.12 916.47,-6.38 1026.97,-6.38 1026.97,-27.12"/>
<text text-anchor="middle" x="971.72" y="-13.62" font-family="Helvetica,sans-Serif" font-size="10.00">mlir/IR/BuiltinOps.h</text>
</a>
</g>
</g>
<!-- Node18&#45;&gt;Node19 -->
<g id="edge24_Node000018_Node000019" class="edge">
<title>Node18&#45;&gt;Node19</title>
<g id="a_edge24_Node000018_Node000019"><a xlink:title=" ">
<path fill="none" stroke="#63b8ff" d="M930.57,-138.51C913.91,-130.58 897.31,-119.15 887.72,-103 880.12,-90.2 880.46,-82.5 887.72,-69.5 897.2,-52.53 914.77,-40.44 931.41,-32.24"/>
<polygon fill="#63b8ff" stroke="#63b8ff" points="932.53,-35.57 940.18,-28.25 929.63,-29.2 932.53,-35.57"/>
</a>
</g>
</g>
<!-- Node20 -->
<g id="Node000020" class="node">
<title>Node20</title>
<g id="a_Node000020"><a xlink:href="Constrain_2IR_2Dialect_8h_8inc.html" target="_top" xlink:title=" ">
<polygon fill="white" stroke="#666666" points="1016.85,-103 896.6,-103 896.6,-69.5 1016.85,-69.5 1016.85,-103"/>
<text text-anchor="start" x="904.6" y="-89.5" font-family="Helvetica,sans-Serif" font-size="10.00">llzk/Dialect/Constrain</text>
<text text-anchor="middle" x="956.72" y="-76.75" font-family="Helvetica,sans-Serif" font-size="10.00">/IR/Dialect.h.inc</text>
</a>
</g>
</g>
<!-- Node18&#45;&gt;Node20 -->
<g id="edge25_Node000018_Node000020" class="edge">
<title>Node18&#45;&gt;Node20</title>
<g id="a_edge25_Node000018_Node000020"><a xlink:title=" ">
<path fill="none" stroke="#63b8ff" d="M976.56,-138.75C973.68,-131.27 970.17,-122.16 966.91,-113.7"/>
<polygon fill="#63b8ff" stroke="#63b8ff" points="970.24,-112.62 963.38,-104.54 963.71,-115.13 970.24,-112.62"/>
</a>
</g>
</g>
<!-- Node21&#45;&gt;Node18 -->
<g id="edge40_Node000021_Node000018" class="edge">
<title>Node21&#45;&gt;Node18</title>
<g id="a_edge40_Node000021_Node000018"><a xlink:title=" ">
<path fill="none" stroke="#63b8ff" d="M1168.28,-208.08C1133.25,-198.39 1088.52,-186.02 1051.75,-175.85"/>
<polygon fill="#63b8ff" stroke="#63b8ff" points="1053.14,-172.6 1042.57,-173.31 1051.28,-179.35 1053.14,-172.6"/>
</a>
</g>
</g>
<!-- Node22 -->
<g id="Node000022" class="node">
<title>Node22</title>
<g id="a_Node000022"><a xlink:href="Array_2IR_2Types_8h.html" target="_top" xlink:title=" ">
<polygon fill="white" stroke="#666666" points="1302.72,-172.5 1202.72,-172.5 1202.72,-139 1302.72,-139 1302.72,-172.5"/>
<text text-anchor="start" x="1210.72" y="-159" font-family="Helvetica,sans-Serif" font-size="10.00">llzk/Dialect/Array</text>
<text text-anchor="middle" x="1252.72" y="-146.25" font-family="Helvetica,sans-Serif" font-size="10.00">/IR/Types.h</text>
</a>
</g>
</g>
<!-- Node21&#45;&gt;Node22 -->
<g id="edge27_Node000021_Node000022" class="edge">
<title>Node21&#45;&gt;Node22</title>
<g id="a_edge27_Node000021_Node000022"><a xlink:title=" ">
<path fill="none" stroke="#63b8ff" d="M1232.88,-208.25C1235.77,-200.77 1239.27,-191.66 1242.54,-183.2"/>
<polygon fill="#63b8ff" stroke="#63b8ff" points="1245.73,-184.63 1246.06,-174.04 1239.2,-182.12 1245.73,-184.63"/>
</a>
</g>
</g>
<!-- Node34 -->
<g id="Node000034" class="node">
<title>Node34</title>
<g id="a_Node000034"><a xlink:href="Constrain_2IR_2OpInterfaces_8h.html" target="_top" xlink:title=" ">
<polygon fill="white" stroke="#666666" points="1722.85,-172.5 1602.6,-172.5 1602.6,-139 1722.85,-139 1722.85,-172.5"/>
<text text-anchor="start" x="1610.6" y="-159" font-family="Helvetica,sans-Serif" font-size="10.00">llzk/Dialect/Constrain</text>
<text text-anchor="middle" x="1662.72" y="-146.25" font-family="Helvetica,sans-Serif" font-size="10.00">/IR/OpInterfaces.h</text>
</a>
</g>
</g>
<!-- Node21&#45;&gt;Node34 -->
<g id="edge41_Node000021_Node000034" class="edge">
<title>Node21&#45;&gt;Node34</title>
<g id="a_edge41_Node000021_Node000034"><a xlink:title=" ">
<path fill="none" stroke="#63b8ff" d="M1287.25,-210.13C1290.11,-209.56 1292.94,-209.01 1295.72,-208.5 1397.9,-189.67 1517.18,-174.01 1591.34,-165.01"/>
<polygon fill="#63b8ff" stroke="#63b8ff" points="1591.39,-168.53 1600.89,-163.85 1590.55,-161.58 1591.39,-168.53"/>
</a>
</g>
</g>
<!-- Node38 -->
<g id="Node000038" class="node">
<title>Node38</title>
<g id="a_Node000038"><a xlink:href="OpTraits_8h.html" target="_top" xlink:title=" ">
<polygon fill="white" stroke="#666666" points="2031.22,-172.5 1916.22,-172.5 1916.22,-139 2031.22,-139 2031.22,-172.5"/>
<text text-anchor="start" x="1924.22" y="-159" font-family="Helvetica,sans-Serif" font-size="10.00">llzk/Dialect/Function</text>
<text text-anchor="middle" x="1973.72" y="-146.25" font-family="Helvetica,sans-Serif" font-size="10.00">/IR/OpTraits.h</text>
</a>
</g>
</g>
<!-- Node21&#45;&gt;Node38 -->
<g id="edge46_Node000021_Node000038" class="edge">
<title>Node21&#45;&gt;Node38</title>
<g id="a_edge46_Node000021_Node000038"><a xlink:title=" ">
<path fill="none" stroke="#63b8ff" d="M1287.2,-209.86C1290.07,-209.36 1292.93,-208.9 1295.72,-208.5 1548.71,-171.94 1615.56,-199.66 1869.72,-172.5 1881.08,-171.29 1893.09,-169.73 1904.76,-168.06"/>
<polygon fill="#63b8ff" stroke="#63b8ff" points="1904.92,-171.57 1914.31,-166.66 1903.91,-164.65 1904.92,-171.57"/>
</a>
</g>
</g>
<!-- Node40 -->
<g id="Node000040" class="node">
<title>Node40</title>
<g id="a_Node000040"><a xlink:href="Constrain_2IR_2Ops_8h_8inc.html" target="_top" xlink:title=" ">
<polygon fill="white" stroke="#666666" points="1860.85,-172.5 1740.6,-172.5 1740.6,-139 1860.85,-139 1860.85,-172.5"/>
<text text-anchor="start" x="1748.6" y="-159" font-family="Helvetica,sans-Serif" font-size="10.00">llzk/Dialect/Constrain</text>
<text text-anchor="middle" x="1800.72" y="-146.25" font-family="Helvetica,sans-Serif" font-size="10.00">/IR/Ops.h.inc</text>
</a>
</g>
</g>
<!-- Node21&#45;&gt;Node40 -->
<g id="edge50_Node000021_Node000040" class="edge">
<title>Node21&#45;&gt;Node40</title>
<g id="a_edge50_Node000021_Node000040"><a xlink:title=" ">
<path fill="none" stroke="#63b8ff" d="M1287.21,-209.93C1290.08,-209.41 1292.93,-208.93 1295.72,-208.5 1484.22,-179.36 1537.55,-201.34 1728.93,-172.79"/>
<polygon fill="#63b8ff" stroke="#63b8ff" points="1729.38,-176.26 1738.74,-171.3 1728.33,-169.34 1729.38,-176.26"/>
</a>
</g>
</g>
<!-- Node23 -->
<g id="Node000023" class="node">
<title>Node23</title>
<g id="a_Node000023"><a xlink:href="Array_2IR_2Dialect_8h.html" target="_top" xlink:title=" ">
<polygon fill="white" stroke="#666666" points="1420.72,-103 1320.72,-103 1320.72,-69.5 1420.72,-69.5 1420.72,-103"/>
<text text-anchor="start" x="1328.72" y="-89.5" font-family="Helvetica,sans-Serif" font-size="10.00">llzk/Dialect/Array</text>
<text text-anchor="middle" x="1370.72" y="-76.75" font-family="Helvetica,sans-Serif" font-size="10.00">/IR/Dialect.h</text>
</a>
</g>
</g>
<!-- Node22&#45;&gt;Node23 -->
<g id="edge28_Node000022_Node000023" class="edge">
<title>Node22&#45;&gt;Node23</title>
<g id="a_edge28_Node000022_Node000023"><a xlink:title=" ">
<path fill="none" stroke="#63b8ff" d="M1280.99,-138.58C1296.6,-129.65 1316.21,-118.44 1333.1,-108.77"/>
<polygon fill="#63b8ff" stroke="#63b8ff" points="1334.43,-112.04 1341.38,-104.04 1330.96,-105.96 1334.43,-112.04"/>
</a>
</g>
</g>
<!-- Node25 -->
<g id="Node000025" class="node">
<title>Node25</title>
<g id="a_Node000025"><a xlink:href="ErrorHelper_8h.html" target="_top" xlink:title=" ">
<polygon fill="white" stroke="#666666" points="1558.85,-96.62 1438.6,-96.62 1438.6,-75.88 1558.85,-75.88 1558.85,-96.62"/>
<text text-anchor="middle" x="1498.72" y="-83.12" font-family="Helvetica,sans-Serif" font-size="10.00">llzk/Util/ErrorHelper.h</text>
</a>
</g>
</g>
<!-- Node22&#45;&gt;Node25 -->
<g id="edge31_Node000022_Node000025" class="edge">
<title>Node22&#45;&gt;Node25</title>
<g id="a_edge31_Node000022_Node000025"><a xlink:title=" ">
<path fill="none" stroke="#63b8ff" d="M1303.1,-140.93C1346.71,-128.96 1409.31,-111.78 1451.86,-100.11"/>
<polygon fill="#63b8ff" stroke="#63b8ff" points="1452.58,-103.54 1461.3,-97.52 1450.73,-96.79 1452.58,-103.54"/>
</a>
</g>
</g>
<!-- Node32 -->
<g id="Node000032" class="node">
<title>Node32</title>
<g id="a_Node000032"><a xlink:title=" ">
<polygon fill="#e0e0e0" stroke="#999999" points="1184.47,-103 1034.97,-103 1034.97,-69.5 1184.47,-69.5 1184.47,-103"/>
<text text-anchor="start" x="1042.97" y="-89.5" font-family="Helvetica,sans-Serif" font-size="10.00">mlir/Interfaces/MemorySlot</text>
<text text-anchor="middle" x="1109.72" y="-76.75" font-family="Helvetica,sans-Serif" font-size="10.00">Interfaces.h</text>
</a>
</g>
</g>
<!-- Node22&#45;&gt;Node32 -->
<g id="edge38_Node000022_Node000032" class="edge">
<title>Node22&#45;&gt;Node32</title>
<g id="a_edge38_Node000022_Node000032"><a xlink:title=" ">
<path fill="none" stroke="#63b8ff" d="M1218.47,-138.58C1199.1,-129.44 1174.68,-117.91 1153.88,-108.09"/>
<polygon fill="#63b8ff" stroke="#63b8ff" points="1155.6,-105.04 1145.06,-103.93 1152.61,-111.37 1155.6,-105.04"/>
</a>
</g>
</g>
<!-- Node33 -->
<g id="Node000033" class="node">
<title>Node33</title>
<g id="a_Node000033"><a xlink:href="Array_2IR_2Types_8h_8inc.html" target="_top" xlink:title=" ">
<polygon fill="white" stroke="#666666" points="1302.72,-103 1202.72,-103 1202.72,-69.5 1302.72,-69.5 1302.72,-103"/>
<text text-anchor="start" x="1210.72" y="-89.5" font-family="Helvetica,sans-Serif" font-size="10.00">llzk/Dialect/Array</text>
<text text-anchor="middle" x="1252.72" y="-76.75" font-family="Helvetica,sans-Serif" font-size="10.00">/IR/Types.h.inc</text>
</a>
</g>
</g>
<!-- Node22&#45;&gt;Node33 -->
<g id="edge39_Node000022_Node000033" class="edge">
<title>Node22&#45;&gt;Node33</title>
<g id="a_edge39_Node000022_Node000033"><a xlink:title=" ">
<path fill="none" stroke="#63b8ff" d="M1252.72,-138.75C1252.72,-131.52 1252.72,-122.78 1252.72,-114.56"/>
<polygon fill="#63b8ff" stroke="#63b8ff" points="1256.22,-114.65 1252.72,-104.65 1249.22,-114.65 1256.22,-114.65"/>
</a>
</g>
</g>
<!-- Node23&#45;&gt;Node19 -->
<g id="edge29_Node000023_Node000019" class="edge">
<title>Node23&#45;&gt;Node19</title>
<g id="a_edge29_Node000023_Node000019"><a xlink:title=" ">
<path fill="none" stroke="#63b8ff" d="M1320.28,-71.39C1317.39,-70.72 1314.52,-70.09 1311.72,-69.5 1285.59,-64.04 1130.02,-40.95 1038.63,-27.53"/>
<polygon fill="#63b8ff" stroke="#63b8ff" points="1039.17,-24.07 1028.77,-26.08 1038.15,-31 1039.17,-24.07"/>
</a>
</g>
</g>
<!-- Node24 -->
<g id="Node000024" class="node">
<title>Node24</title>
<g id="a_Node000024"><a xlink:href="Array_2IR_2Dialect_8h_8inc.html" target="_top" xlink:title=" ">
<polygon fill="white" stroke="#666666" points="1191.72,-33.5 1091.72,-33.5 1091.72,0 1191.72,0 1191.72,-33.5"/>
<text text-anchor="start" x="1099.72" y="-20" font-family="Helvetica,sans-Serif" font-size="10.00">llzk/Dialect/Array</text>
<text text-anchor="middle" x="1141.72" y="-7.25" font-family="Helvetica,sans-Serif" font-size="10.00">/IR/Dialect.h.inc</text>
</a>
</g>
</g>
<!-- Node23&#45;&gt;Node24 -->
<g id="edge30_Node000023_Node000024" class="edge">
<title>Node23&#45;&gt;Node24</title>
<g id="a_edge30_Node000023_Node000024"><a xlink:title=" ">
<path fill="none" stroke="#63b8ff" d="M1320.47,-70.44C1285.72,-60.19 1239.29,-46.51 1202.47,-35.65"/>
<polygon fill="#63b8ff" stroke="#63b8ff" points="1203.89,-32.43 1193.31,-32.96 1201.91,-39.14 1203.89,-32.43"/>
</a>
</g>
</g>
<!-- Node26 -->
<g id="Node000026" class="node">
<title>Node26</title>
<g id="a_Node000026"><a xlink:title=" ">
<polygon fill="#e0e0e0" stroke="#999999" points="1395.35,-27.12 1278.1,-27.12 1278.1,-6.38 1395.35,-6.38 1395.35,-27.12"/>
<text text-anchor="middle" x="1336.72" y="-13.62" font-family="Helvetica,sans-Serif" font-size="10.00">mlir/IR/Diagnostics.h</text>
</a>
</g>
</g>
<!-- Node25&#45;&gt;Node26 -->
<g id="edge32_Node000025_Node000026" class="edge">
<title>Node25&#45;&gt;Node26</title>
<g id="a_edge32_Node000025_Node000026"><a xlink:title=" ">
<path fill="none" stroke="#63b8ff" d="M1475.17,-75.43C1447.69,-63.99 1402.05,-44.97 1370.73,-31.92"/>
<polygon fill="#63b8ff" stroke="#63b8ff" points="1372.28,-28.77 1361.7,-28.16 1369.59,-35.24 1372.28,-28.77"/>
</a>
</g>
</g>
<!-- Node27 -->
<g id="Node000027" class="node">
<title>Node27</title>
<g id="a_Node000027"><a xlink:title=" ">
<polygon fill="#e0e0e0" stroke="#999999" points="2004.85,-27.12 1896.6,-27.12 1896.6,-6.38 2004.85,-6.38 2004.85,-27.12"/>
<text text-anchor="middle" x="1950.72" y="-13.62" font-family="Helvetica,sans-Serif" font-size="10.00">mlir/IR/Operation.h</text>
</a>
</g>
</g>
<!-- Node25&#45;&gt;Node27 -->
<g id="edge33_Node000025_Node000027" class="edge">
<title>Node25&#45;&gt;Node27</title>
<g id="a_edge33_Node000025_Node000027"><a xlink:title=" ">
<path fill="none" stroke="#63b8ff" d="M1538.92,-75.42C1548.64,-73.26 1559.02,-71.13 1568.72,-69.5 1709.42,-45.81 1747.32,-58.86 1887.72,-33.5 1892.99,-32.55 1898.48,-31.41 1903.91,-30.18"/>
<polygon fill="#63b8ff" stroke="#63b8ff" points="1904.52,-33.63 1913.45,-27.92 1902.91,-26.82 1904.52,-33.63"/>
</a>
</g>
</g>
<!-- Node28 -->
<g id="Node000028" class="node">
<title>Node28</title>
<g id="a_Node000028"><a xlink:title=" ">
<polygon fill="#e0e0e0" stroke="#999999" points="1584.35,-27.12 1413.1,-27.12 1413.1,-6.38 1584.35,-6.38 1584.35,-27.12"/>
<text text-anchor="middle" x="1498.72" y="-13.62" font-family="Helvetica,sans-Serif" font-size="10.00">llvm/ADT/STLFunctionalExtras.h</text>
</a>
</g>
</g>
<!-- Node25&#45;&gt;Node28 -->
<g id="edge34_Node000025_Node000028" class="edge">
<title>Node25&#45;&gt;Node28</title>
<g id="a_edge34_Node000025_Node000028"><a xlink:title=" ">
<path fill="none" stroke="#63b8ff" d="M1498.72,-75.58C1498.72,-65.96 1498.72,-50.88 1498.72,-38.54"/>
<polygon fill="#63b8ff" stroke="#63b8ff" points="1502.22,-38.92 1498.72,-28.92 1495.22,-38.92 1502.22,-38.92"/>
</a>
</g>
</g>
<!-- Node29 -->
<g id="Node000029" class="node">
<title>Node29</title>
<g id="a_Node000029"><a xlink:title=" ">
<polygon fill="#e0e0e0" stroke="#999999" points="1703.1,-27.12 1602.35,-27.12 1602.35,-6.38 1703.1,-6.38 1703.1,-27.12"/>
<text text-anchor="middle" x="1652.72" y="-13.62" font-family="Helvetica,sans-Serif" font-size="10.00">llvm/ADT/Twine.h</text>
</a>
</g>
</g>
<!-- Node25&#45;&gt;Node29 -->
<g id="edge35_Node000025_Node000029" class="edge">
<title>Node25&#45;&gt;Node29</title>
<g id="a_edge35_Node000025_Node000029"><a xlink:title=" ">
<path fill="none" stroke="#63b8ff" d="M1521.12,-75.43C1547.12,-64.04 1590.24,-45.14 1620,-32.09"/>
<polygon fill="#63b8ff" stroke="#63b8ff" points="1621.16,-35.4 1628.92,-28.18 1618.35,-28.99 1621.16,-35.4"/>
</a>
</g>
</g>
<!-- Node30 -->
<g id="Node000030" class="node">
<title>Node30</title>
<g id="a_Node000030"><a xlink:title=" ">
<polygon fill="#e0e0e0" stroke="#999999" points="1878.22,-27.12 1721.22,-27.12 1721.22,-6.38 1878.22,-6.38 1878.22,-27.12"/>
<text text-anchor="middle" x="1799.72" y="-13.62" font-family="Helvetica,sans-Serif" font-size="10.00">llvm/Support/ErrorHandling.h</text>
</a>
</g>
</g>
<!-- Node25&#45;&gt;Node30 -->
<g id="edge36_Node000025_Node000030" class="edge">
<title>Node25&#45;&gt;Node30</title>
<g id="a_edge36_Node000025_Node000030"><a xlink:title=" ">
<path fill="none" stroke="#63b8ff" d="M1542.41,-75.41C1551.13,-73.45 1560.22,-71.41 1568.72,-69.5 1628.92,-55.98 1697.95,-40.52 1744.76,-30.05"/>
<polygon fill="#63b8ff" stroke="#63b8ff" points="1745.39,-33.49 1754.39,-27.89 1743.87,-26.66 1745.39,-33.49"/>
</a>
</g>
</g>
<!-- Node31 -->
<g id="Node000031" class="node">
<title>Node31</title>
<g id="a_Node000031"><a xlink:title=" ">
<polygon fill="#e0e0e0" stroke="#999999" points="1259.97,-27.12 1209.47,-27.12 1209.47,-6.38 1259.97,-6.38 1259.97,-27.12"/>
<text text-anchor="middle" x="1234.72" y="-13.62" font-family="Helvetica,sans-Serif" font-size="10.00">variant</text>
</a>
</g>
</g>
<!-- Node25&#45;&gt;Node31 -->
<g id="edge37_Node000025_Node000031" class="edge">
<title>Node25&#45;&gt;Node31</title>
<g id="a_edge37_Node000025_Node000031"><a xlink:title=" ">
<path fill="none" stroke="#63b8ff" d="M1455.67,-75.39C1447.07,-73.43 1438.11,-71.4 1429.72,-69.5 1358.2,-53.34 1338.16,-57.04 1268.72,-33.5 1267.18,-32.98 1265.62,-32.41 1264.05,-31.8"/>
<polygon fill="#63b8ff" stroke="#63b8ff" points="1265.81,-28.75 1255.24,-28.07 1263.08,-35.19 1265.81,-28.75"/>
</a>
</g>
</g>
<!-- Node34&#45;&gt;Node27 -->
<g id="edge43_Node000034_Node000027" class="edge">
<title>Node34&#45;&gt;Node27</title>
<g id="a_edge43_Node000034_Node000027"><a xlink:title=" ">
<path fill="none" stroke="#63b8ff" d="M1723.19,-141.12C1753.91,-132.72 1791.1,-120.21 1821.72,-103 1841.64,-91.8 1842.07,-82.7 1860.72,-69.5 1880.16,-55.75 1903.49,-42.41 1921.53,-32.72"/>
<polygon fill="#63b8ff" stroke="#63b8ff" points="1922.93,-35.94 1930.14,-28.17 1919.66,-29.75 1922.93,-35.94"/>
</a>
</g>
</g>
<!-- Node35 -->
<g id="Node000035" class="node">
<title>Node35</title>
<g id="a_Node000035"><a xlink:title=" ">
<polygon fill="#e0e0e0" stroke="#999999" points="1990.22,-96.62 1869.22,-96.62 1869.22,-75.88 1990.22,-75.88 1990.22,-96.62"/>
<text text-anchor="middle" x="1929.72" y="-83.12" font-family="Helvetica,sans-Serif" font-size="10.00">mlir/IR/OpDefinition.h</text>
</a>
</g>
</g>
<!-- Node34&#45;&gt;Node35 -->
<g id="edge42_Node000034_Node000035" class="edge">
<title>Node34&#45;&gt;Node35</title>
<g id="a_edge42_Node000034_Node000035"><a xlink:title=" ">
<path fill="none" stroke="#63b8ff" d="M1723.31,-139.43C1770.58,-127.48 1835.45,-111.08 1879.78,-99.88"/>
<polygon fill="#63b8ff" stroke="#63b8ff" points="1880.55,-103.29 1889.39,-97.45 1878.84,-96.5 1880.55,-103.29"/>
</a>
</g>
</g>
<!-- Node36 -->
<g id="Node000036" class="node">
<title>Node36</title>
<g id="a_Node000036"><a xlink:title=" ">
<polygon fill="#e0e0e0" stroke="#999999" points="1674.22,-96.62 1577.22,-96.62 1577.22,-75.88 1674.22,-75.88 1674.22,-96.62"/>
<text text-anchor="middle" x="1625.72" y="-83.12" font-family="Helvetica,sans-Serif" font-size="10.00">mlir/IR/Visitors.h</text>
</a>
</g>
</g>
<!-- Node34&#45;&gt;Node36 -->
<g id="edge44_Node000034_Node000036" class="edge">
<title>Node34&#45;&gt;Node36</title>
<g id="a_edge44_Node000034_Node000036"><a xlink:title=" ">
<path fill="none" stroke="#63b8ff" d="M1653.95,-138.75C1648.74,-129.25 1642.09,-117.12 1636.56,-107.02"/>
<polygon fill="#63b8ff" stroke="#63b8ff" points="1639.71,-105.49 1631.83,-98.4 1633.57,-108.85 1639.71,-105.49"/>
</a>
</g>
</g>
<!-- Node37 -->
<g id="Node000037" class="node">
<title>Node37</title>
<g id="a_Node000037"><a xlink:href="Constrain_2IR_2OpInterfaces_8h_8inc.html" target="_top" xlink:title=" ">
<polygon fill="white" stroke="#666666" points="1812.85,-103 1692.6,-103 1692.6,-69.5 1812.85,-69.5 1812.85,-103"/>
<text text-anchor="start" x="1700.6" y="-89.5" font-family="Helvetica,sans-Serif" font-size="10.00">llzk/Dialect/Constrain</text>
<text text-anchor="middle" x="1752.72" y="-76.75" font-family="Helvetica,sans-Serif" font-size="10.00">/IR/OpInterfaces.h.inc</text>
</a>
</g>
</g>
<!-- Node34&#45;&gt;Node37 -->
<g id="edge45_Node000034_Node000037" class="edge">
<title>Node34&#45;&gt;Node37</title>
<g id="a_edge45_Node000034_Node000037"><a xlink:title=" ">
<path fill="none" stroke="#63b8ff" d="M1684.05,-138.75C1695.4,-130.24 1709.56,-119.62 1722.07,-110.24"/>
<polygon fill="#63b8ff" stroke="#63b8ff" points="1724.12,-113.07 1730.02,-104.27 1719.92,-107.47 1724.12,-113.07"/>
</a>
</g>
</g>
<!-- Node38&#45;&gt;Node27 -->
<g id="edge48_Node000038_Node000027" class="edge">
<title>Node38&#45;&gt;Node27</title>
<g id="a_edge48_Node000038_Node000027"><a xlink:title=" ">
<path fill="none" stroke="#63b8ff" d="M1985.02,-138.77C1995.8,-121.43 2009.11,-93.07 1999.72,-69.5 1994.27,-55.81 1983.28,-43.66 1973.09,-34.57"/>
<polygon fill="#63b8ff" stroke="#63b8ff" points="1975.59,-32.1 1965.67,-28.39 1971.11,-37.48 1975.59,-32.1"/>
</a>
</g>
</g>
<!-- Node38&#45;&gt;Node35 -->
<g id="edge47_Node000038_Node000035" class="edge">
<title>Node38&#45;&gt;Node35</title>
<g id="a_edge47_Node000038_Node000035"><a xlink:title=" ">
<path fill="none" stroke="#63b8ff" d="M1963.3,-138.75C1957.03,-129.15 1949.02,-116.86 1942.4,-106.69"/>
<polygon fill="#63b8ff" stroke="#63b8ff" points="1945.34,-104.81 1936.95,-98.34 1939.48,-108.63 1945.34,-104.81"/>
</a>
</g>
</g>
<!-- Node39 -->
<g id="Node000039" class="node">
<title>Node39</title>
<g id="a_Node000039"><a xlink:title=" ">
<polygon fill="#e0e0e0" stroke="#999999" points="2200.35,-96.62 2047.1,-96.62 2047.1,-75.88 2200.35,-75.88 2200.35,-96.62"/>
<text text-anchor="middle" x="2123.72" y="-83.12" font-family="Helvetica,sans-Serif" font-size="10.00">mlir/Support/LogicalResult.h</text>
</a>
</g>
</g>
<!-- Node38&#45;&gt;Node39 -->
<g id="edge49_Node000038_Node000039" class="edge">
<title>Node38&#45;&gt;Node39</title>
<g id="a_edge49_Node000038_Node000039"><a xlink:title=" ">
<path fill="none" stroke="#63b8ff" d="M2009.65,-138.58C2034.61,-127.35 2067.56,-112.52 2091.64,-101.69"/>
<polygon fill="#63b8ff" stroke="#63b8ff" points="2092.95,-104.94 2100.63,-97.64 2090.07,-98.55 2092.95,-104.94"/>
</a>
</g>
</g>
</g>
</svg>
