<?xml version="1.0" encoding="UTF-8" standalone="no"?>
<!DOCTYPE svg PUBLIC "-//W3C//DTD SVG 1.1//EN"
 "http://www.w3.org/Graphics/SVG/1.1/DTD/svg11.dtd">
<!-- Generated by graphviz version 12.2.1 (0)
 -->
<!-- Title: build/include/llzk/Dialect/Constrain/IR/OpInterfaces.h.inc Pages: 1 -->
<svg width="1992pt" height="415pt"
 viewBox="0.00 0.00 1992.38 414.50" xmlns="http://www.w3.org/2000/svg" xmlns:xlink="http://www.w3.org/1999/xlink">
<g id="graph0" class="graph" transform="scale(1 1) rotate(0) translate(4 410.5)">
<title>build/include/llzk/Dialect/Constrain/IR/OpInterfaces.h.inc</title>
<!-- Node1 -->
<g id="Node000001" class="node">
<title>Node1</title>
<g id="a_Node000001"><a xlink:title=" ">
<polygon fill="#999999" stroke="#666666" points="950,-406.5 834.25,-406.5 834.25,-360.25 950,-360.25 950,-406.5"/>
<text text-anchor="start" x="842.25" y="-393" font-family="Helvetica,sans-Serif" font-size="10.00">build/include/llzk</text>
<text text-anchor="start" x="842.25" y="-380.25" font-family="Helvetica,sans-Serif" font-size="10.00">/Dialect/Constrain/IR</text>
<text text-anchor="middle" x="892.12" y="-367.5" font-family="Helvetica,sans-Serif" font-size="10.00">/OpInterfaces.h.inc</text>
</a>
</g>
</g>
<!-- Node2 -->
<g id="Node000002" class="node">
<title>Node2</title>
<g id="a_Node000002"><a xlink:href="Constrain_2IR_2OpInterfaces_8h.html" target="_top" xlink:title=" ">
<polygon fill="white" stroke="#666666" points="968.38,-324.25 815.88,-324.25 815.88,-290.75 968.38,-290.75 968.38,-324.25"/>
<text text-anchor="start" x="823.88" y="-310.75" font-family="Helvetica,sans-Serif" font-size="10.00">include/llzk/Dialect</text>
<text text-anchor="middle" x="892.12" y="-298" font-family="Helvetica,sans-Serif" font-size="10.00">/Constrain/IR/OpInterfaces.h</text>
</a>
</g>
</g>
<!-- Node1&#45;&gt;Node2 -->
<g id="edge1_Node000001_Node000002" class="edge">
<title>Node1&#45;&gt;Node2</title>
<g id="a_edge1_Node000001_Node000002"><a xlink:title=" ">
<path fill="none" stroke="#63b8ff" d="M892.12,-348.39C892.12,-340.1 892.12,-331.61 892.12,-324.6"/>
<polygon fill="#63b8ff" stroke="#63b8ff" points="888.63,-348.3 892.13,-358.3 895.63,-348.3 888.63,-348.3"/>
</a>
</g>
</g>
<!-- Node3 -->
<g id="Node000003" class="node">
<title>Node3</title>
<g id="a_Node000003"><a xlink:href="Constrain_2IR_2Ops_8h.html" target="_top" xlink:title=" ">
<polygon fill="white" stroke="#666666" points="946.62,-254.75 837.62,-254.75 837.62,-221.25 946.62,-221.25 946.62,-254.75"/>
<text text-anchor="start" x="845.62" y="-241.25" font-family="Helvetica,sans-Serif" font-size="10.00">include/llzk/Dialect</text>
<text text-anchor="middle" x="892.12" y="-228.5" font-family="Helvetica,sans-Serif" font-size="10.00">/Constrain/IR/Ops.h</text>
</a>
</g>
</g>
<!-- Node2&#45;&gt;Node3 -->
<g id="edge2_Node000002_Node000003" class="edge">
<title>Node2&#45;&gt;Node3</title>
<g id="a_edge2_Node000002_Node000003"><a xlink:title=" ">
<path fill="none" stroke="#63b8ff" d="M892.12,-279.06C892.12,-270.84 892.12,-262.09 892.12,-254.88"/>
<polygon fill="#63b8ff" stroke="#63b8ff" points="888.63,-278.99 892.13,-288.99 895.63,-278.99 888.63,-278.99"/>
</a>
</g>
</g>
<!-- Node4 -->
<g id="Node000004" class="node">
<title>Node4</title>
<g id="a_Node000004"><a xlink:href="IntervalAnalysis_8h.html" target="_top" xlink:title=" ">
<polygon fill="white" stroke="#666666" points="327,-185.25 211.25,-185.25 211.25,-151.75 327,-151.75 327,-185.25"/>
<text text-anchor="start" x="219.25" y="-171.75" font-family="Helvetica,sans-Serif" font-size="10.00">include/llzk/Analysis</text>
<text text-anchor="middle" x="269.12" y="-159" font-family="Helvetica,sans-Serif" font-size="10.00">/IntervalAnalysis.h</text>
</a>
</g>
</g>
<!-- Node3&#45;&gt;Node4 -->
<g id="edge3_Node000003_Node000004" class="edge">
<title>Node3&#45;&gt;Node4</title>
<g id="a_edge3_Node000003_Node000004"><a xlink:title=" ">
<path fill="none" stroke="#63b8ff" d="M826.14,-232.28C725.1,-224.68 526.07,-208.21 358.12,-185.25 348.18,-183.89 337.64,-182.23 327.43,-180.49"/>
<polygon fill="#63b8ff" stroke="#63b8ff" points="825.64,-235.75 835.87,-233.01 826.16,-228.77 825.64,-235.75"/>
</a>
</g>
</g>
<!-- Node7 -->
<g id="Node000007" class="node">
<title>Node7</title>
<g id="a_Node000007"><a xlink:href="TypeConversionPatterns_8h.html" target="_top" xlink:title="Reusable MLIR dialect conversion functions for LLZK StructType replacement.">
<polygon fill="white" stroke="#666666" points="582,-185.25 400.25,-185.25 400.25,-151.75 582,-151.75 582,-185.25"/>
<text text-anchor="start" x="408.25" y="-171.75" font-family="Helvetica,sans-Serif" font-size="10.00">include/llzk/Dialect</text>
<text text-anchor="middle" x="491.12" y="-159" font-family="Helvetica,sans-Serif" font-size="10.00">/Shared/TypeConversionPatterns.h</text>
</a>
</g>
</g>
<!-- Node3&#45;&gt;Node7 -->
<g id="edge6_Node000003_Node000007" class="edge">
<title>Node3&#45;&gt;Node7</title>
<g id="a_edge6_Node000003_Node000007"><a xlink:title=" ">
<path fill="none" stroke="#63b8ff" d="M826.05,-225.88C759.55,-214.68 656.48,-197.33 582.24,-184.84"/>
<polygon fill="#63b8ff" stroke="#63b8ff" points="825.27,-229.3 835.72,-227.5 826.44,-222.39 825.27,-229.3"/>
</a>
</g>
</g>
<!-- Node8 -->
<g id="Node000008" class="node">
<title>Node8</title>
<g id="a_Node000008"><a xlink:href="SharedImpl_8h.html" target="_top" xlink:title="Common private implementation for poly dialect passes.">
<polygon fill="white" stroke="#666666" points="504.38,-115.75 363.88,-115.75 363.88,-82.25 504.38,-82.25 504.38,-115.75"/>
<text text-anchor="start" x="371.88" y="-102.25" font-family="Helvetica,sans-Serif" font-size="10.00">lib/Dialect/Polymorphic</text>
<text text-anchor="middle" x="434.12" y="-89.5" font-family="Helvetica,sans-Serif" font-size="10.00">/Transforms/SharedImpl.h</text>
</a>
</g>
</g>
<!-- Node3&#45;&gt;Node8 -->
<g id="edge21_Node000003_Node000008" class="edge">
<title>Node3&#45;&gt;Node8</title>
<g id="a_edge21_Node000003_Node000008"><a xlink:title=" ">
<path fill="none" stroke="#63b8ff" d="M825.91,-235C696.42,-230.41 419.73,-216.96 391.12,-185.25 372.47,-164.57 396.82,-134.32 415.76,-115.96"/>
<polygon fill="#63b8ff" stroke="#63b8ff" points="825.6,-238.49 835.71,-235.34 825.84,-231.5 825.6,-238.49"/>
</a>
</g>
</g>
<!-- Node10 -->
<g id="Node000010" class="node">
<title>Node10</title>
<g id="a_Node000010"><a xlink:href="FlatteningPass_8cpp.html" target="_top" xlink:title="This file implements the &#45;llzk&#45;flatten pass.">
<polygon fill="white" stroke="#666666" points="722.88,-39.88 555.38,-39.88 555.38,-6.38 722.88,-6.38 722.88,-39.88"/>
<text text-anchor="start" x="563.38" y="-26.38" font-family="Helvetica,sans-Serif" font-size="10.00">lib/Dialect/Polymorphic</text>
<text text-anchor="middle" x="639.12" y="-13.62" font-family="Helvetica,sans-Serif" font-size="10.00">/Transforms/FlatteningPass.cpp</text>
</a>
</g>
</g>
<!-- Node3&#45;&gt;Node10 -->
<g id="edge20_Node000003_Node000010" class="edge">
<title>Node3&#45;&gt;Node10</title>
<g id="a_edge20_Node000003_Node000010"><a xlink:title=" ">
<path fill="none" stroke="#63b8ff" d="M825.9,-229.88C767.57,-222.22 688.64,-207.96 667.12,-185.25 629.05,-145.06 632.73,-72.61 636.65,-40.36"/>
<polygon fill="#63b8ff" stroke="#63b8ff" points="825.4,-233.35 835.76,-231.14 826.29,-226.4 825.4,-233.35"/>
</a>
</g>
</g>
<!-- Node12 -->
<g id="Node000012" class="node">
<title>Node12</title>
<g id="a_Node000012"><a xlink:href="Struct_2IR_2Dialect_8cpp.html" target="_top" xlink:title=" ">
<polygon fill="white" stroke="#666666" points="619.62,-115.75 522.62,-115.75 522.62,-82.25 619.62,-82.25 619.62,-115.75"/>
<text text-anchor="start" x="530.62" y="-102.25" font-family="Helvetica,sans-Serif" font-size="10.00">lib/Dialect/Struct</text>
<text text-anchor="middle" x="571.12" y="-89.5" font-family="Helvetica,sans-Serif" font-size="10.00">/IR/Dialect.cpp</text>
</a>
</g>
</g>
<!-- Node3&#45;&gt;Node12 -->
<g id="edge22_Node000003_Node000012" class="edge">
<title>Node3&#45;&gt;Node12</title>
<g id="a_edge22_Node000003_Node000012"><a xlink:title=" ">
<path fill="none" stroke="#63b8ff" d="M825.88,-236.64C770.67,-233.47 691.99,-222.03 634.12,-185.25 607.41,-168.27 588.15,-135.62 578.39,-116.03"/>
<polygon fill="#63b8ff" stroke="#63b8ff" points="825.62,-240.13 835.78,-237.12 825.96,-233.14 825.62,-240.13"/>
</a>
</g>
</g>
<!-- Node13 -->
<g id="Node000013" class="node">
<title>Node13</title>
<g id="a_Node000013"><a xlink:href="LLZKLoweringUtils_8h.html" target="_top" xlink:title=" ">
<polygon fill="white" stroke="#666666" points="804.38,-185.25 675.88,-185.25 675.88,-151.75 804.38,-151.75 804.38,-185.25"/>
<text text-anchor="start" x="683.88" y="-171.75" font-family="Helvetica,sans-Serif" font-size="10.00">include/llzk/Transforms</text>
<text text-anchor="middle" x="740.12" y="-159" font-family="Helvetica,sans-Serif" font-size="10.00">/LLZKLoweringUtils.h</text>
</a>
</g>
</g>
<!-- Node3&#45;&gt;Node13 -->
<g id="edge12_Node000003_Node000013" class="edge">
<title>Node3&#45;&gt;Node13</title>
<g id="a_edge12_Node000003_Node000013"><a xlink:title=" ">
<path fill="none" stroke="#63b8ff" d="M845.21,-216.17C823.09,-206.34 797.1,-194.8 776.5,-185.65"/>
<polygon fill="#63b8ff" stroke="#63b8ff" points="843.77,-219.36 854.33,-220.22 846.62,-212.96 843.77,-219.36"/>
</a>
</g>
</g>
<!-- Node16 -->
<g id="Node000016" class="node">
<title>Node16</title>
<g id="a_Node000016"><a xlink:href="LLZKPolyLoweringPass_8cpp.html" target="_top" xlink:title="This file implements the &#45;llzk&#45;poly&#45;lowering pass.">
<polygon fill="white" stroke="#666666" points="1189.75,-115.75 1012.5,-115.75 1012.5,-82.25 1189.75,-82.25 1189.75,-115.75"/>
<text text-anchor="start" x="1020.5" y="-102.25" font-family="Helvetica,sans-Serif" font-size="10.00">lib/Transforms/LLZKPolyLowering</text>
<text text-anchor="middle" x="1101.12" y="-89.5" font-family="Helvetica,sans-Serif" font-size="10.00">Pass.cpp</text>
</a>
</g>
</g>
<!-- Node3&#45;&gt;Node16 -->
<g id="edge24_Node000003_Node000016" class="edge">
<title>Node3&#45;&gt;Node16</title>
<g id="a_edge24_Node000003_Node000016"><a xlink:title=" ">
<path fill="none" stroke="#63b8ff" d="M866.71,-212.67C850.93,-194.6 836.24,-170.03 851.12,-151.75 856.41,-145.26 942.44,-128.42 1012.12,-115.7"/>
<polygon fill="#63b8ff" stroke="#63b8ff" points="864.02,-214.92 873.39,-219.86 869.15,-210.15 864.02,-214.92"/>
</a>
</g>
</g>
<!-- Node17 -->
<g id="Node000017" class="node">
<title>Node17</title>
<g id="a_Node000017"><a xlink:href="ConstraintDependencyGraph_8cpp.html" target="_top" xlink:title=" ">
<polygon fill="white" stroke="#666666" points="1046.25,-185.25 860,-185.25 860,-151.75 1046.25,-151.75 1046.25,-185.25"/>
<text text-anchor="start" x="868" y="-171.75" font-family="Helvetica,sans-Serif" font-size="10.00">lib/Analysis/ConstraintDependency</text>
<text text-anchor="middle" x="953.12" y="-159" font-family="Helvetica,sans-Serif" font-size="10.00">Graph.cpp</text>
</a>
</g>
</g>
<!-- Node3&#45;&gt;Node17 -->
<g id="edge16_Node000003_Node000017" class="edge">
<title>Node3&#45;&gt;Node17</title>
<g id="a_edge16_Node000003_Node000017"><a xlink:title=" ">
<path fill="none" stroke="#63b8ff" d="M914.09,-212.69C922.31,-203.6 931.42,-193.52 938.77,-185.38"/>
<polygon fill="#63b8ff" stroke="#63b8ff" points="911.7,-210.11 907.6,-219.88 916.9,-214.81 911.7,-210.11"/>
</a>
</g>
</g>
<!-- Node18 -->
<g id="Node000018" class="node">
<title>Node18</title>
<g id="a_Node000018"><a xlink:href="Constrain_8cpp.html" target="_top" xlink:title=" ">
<polygon fill="white" stroke="#666666" points="1225.5,-178.88 1064.75,-178.88 1064.75,-158.12 1225.5,-158.12 1225.5,-178.88"/>
<text text-anchor="middle" x="1145.12" y="-165.38" font-family="Helvetica,sans-Serif" font-size="10.00">lib/CAPI/Dialect/Constrain.cpp</text>
</a>
</g>
</g>
<!-- Node3&#45;&gt;Node18 -->
<g id="edge17_Node000003_Node000018" class="edge">
<title>Node3&#45;&gt;Node18</title>
<g id="a_edge17_Node000003_Node000018"><a xlink:title=" ">
<path fill="none" stroke="#63b8ff" d="M957.92,-219.45C1005.83,-206.66 1068.97,-189.82 1108.3,-179.32"/>
<polygon fill="#63b8ff" stroke="#63b8ff" points="957.24,-216 948.48,-221.96 959.05,-222.77 957.24,-216"/>
</a>
</g>
</g>
<!-- Node19 -->
<g id="Node000019" class="node">
<title>Node19</title>
<g id="a_Node000019"><a xlink:href="Constrain_2IR_2Dialect_8cpp.html" target="_top" xlink:title=" ">
<polygon fill="white" stroke="#666666" points="1358.62,-185.25 1243.62,-185.25 1243.62,-151.75 1358.62,-151.75 1358.62,-185.25"/>
<text text-anchor="start" x="1251.62" y="-171.75" font-family="Helvetica,sans-Serif" font-size="10.00">lib/Dialect/Constrain</text>
<text text-anchor="middle" x="1301.12" y="-159" font-family="Helvetica,sans-Serif" font-size="10.00">/IR/Dialect.cpp</text>
</a>
</g>
</g>
<!-- Node3&#45;&gt;Node19 -->
<g id="edge18_Node000003_Node000019" class="edge">
<title>Node3&#45;&gt;Node19</title>
<g id="a_edge18_Node000003_Node000019"><a xlink:title=" ">
<path fill="none" stroke="#63b8ff" d="M957.98,-228.64C1027.05,-219.5 1138.61,-203.67 1234.12,-185.25 1237.18,-184.66 1240.3,-184.03 1243.44,-183.37"/>
<polygon fill="#63b8ff" stroke="#63b8ff" points="957.81,-225.13 948.35,-229.91 958.72,-232.07 957.81,-225.13"/>
</a>
</g>
</g>
<!-- Node20 -->
<g id="Node000020" class="node">
<title>Node20</title>
<g id="a_Node000020"><a xlink:href="Constrain_2IR_2Ops_8cpp.html" target="_top" xlink:title=" ">
<polygon fill="white" stroke="#666666" points="1491.62,-185.25 1376.62,-185.25 1376.62,-151.75 1491.62,-151.75 1491.62,-185.25"/>
<text text-anchor="start" x="1384.62" y="-171.75" font-family="Helvetica,sans-Serif" font-size="10.00">lib/Dialect/Constrain</text>
<text text-anchor="middle" x="1434.12" y="-159" font-family="Helvetica,sans-Serif" font-size="10.00">/IR/Ops.cpp</text>
</a>
</g>
</g>
<!-- Node3&#45;&gt;Node20 -->
<g id="edge19_Node000003_Node000020" class="edge">
<title>Node3&#45;&gt;Node20</title>
<g id="a_edge19_Node000003_Node000020"><a xlink:title=" ">
<path fill="none" stroke="#63b8ff" d="M958.45,-232.44C1050.76,-225.5 1223,-210.35 1368.12,-185.25 1370.79,-184.79 1373.52,-184.28 1376.26,-183.74"/>
<polygon fill="#63b8ff" stroke="#63b8ff" points="958.27,-228.94 948.56,-233.18 958.79,-235.93 958.27,-228.94"/>
</a>
</g>
</g>
<!-- Node21 -->
<g id="Node000021" class="node">
<title>Node21</title>
<g id="a_Node000021"><a xlink:href="LLZKInlineStructsPass_8cpp.html" target="_top" xlink:title="This file implements the &#45;llzk&#45;inline&#45;structs pass.">
<polygon fill="white" stroke="#666666" points="1648.62,-185.25 1509.62,-185.25 1509.62,-151.75 1648.62,-151.75 1648.62,-185.25"/>
<text text-anchor="start" x="1517.62" y="-171.75" font-family="Helvetica,sans-Serif" font-size="10.00">lib/Transforms/LLZKInline</text>
<text text-anchor="middle" x="1579.12" y="-159" font-family="Helvetica,sans-Serif" font-size="10.00">StructsPass.cpp</text>
</a>
</g>
</g>
<!-- Node3&#45;&gt;Node21 -->
<g id="edge23_Node000003_Node000021" class="edge">
<title>Node3&#45;&gt;Node21</title>
<g id="a_edge23_Node000003_Node000021"><a xlink:title=" ">
<path fill="none" stroke="#63b8ff" d="M958.4,-233.86C1070.57,-227.98 1304.82,-213.32 1501.12,-185.25 1503.86,-184.86 1506.64,-184.43 1509.45,-183.98"/>
<polygon fill="#63b8ff" stroke="#63b8ff" points="958.27,-230.36 948.46,-234.37 958.63,-237.35 958.27,-230.36"/>
</a>
</g>
</g>
<!-- Node22 -->
<g id="Node000022" class="node">
<title>Node22</title>
<g id="a_Node000022"><a xlink:href="LLZKRedundantOperationEliminationPass_8cpp.html" target="_top" xlink:title="This file implements the &#45;llzk&#45;duplicate&#45;op&#45;elim pass.">
<polygon fill="white" stroke="#666666" points="1831.38,-185.25 1666.88,-185.25 1666.88,-151.75 1831.38,-151.75 1831.38,-185.25"/>
<text text-anchor="start" x="1674.88" y="-171.75" font-family="Helvetica,sans-Serif" font-size="10.00">lib/Transforms/LLZKRedundant</text>
<text text-anchor="middle" x="1749.12" y="-159" font-family="Helvetica,sans-Serif" font-size="10.00">OperationEliminationPass.cpp</text>
</a>
</g>
</g>
<!-- Node3&#45;&gt;Node22 -->
<g id="edge25_Node000003_Node000022" class="edge">
<title>Node3&#45;&gt;Node22</title>
<g id="a_edge25_Node000003_Node000022"><a xlink:title=" ">
<path fill="none" stroke="#63b8ff" d="M958.28,-234.85C1091.26,-230.01 1400.3,-216.19 1658.12,-185.25 1660.99,-184.91 1663.9,-184.53 1666.84,-184.14"/>
<polygon fill="#63b8ff" stroke="#63b8ff" points="958.49,-231.34 948.62,-235.19 958.74,-238.33 958.49,-231.34"/>
</a>
</g>
</g>
<!-- Node23 -->
<g id="Node000023" class="node">
<title>Node23</title>
<g id="a_Node000023"><a xlink:href="WitgenLowering_8cpp.html" target="_top" xlink:title=" ">
<polygon fill="white" stroke="#666666" points="1984.38,-185.25 1849.88,-185.25 1849.88,-151.75 1984.38,-151.75 1984.38,-185.25"/>
<text text-anchor="start" x="1857.88" y="-171.75" font-family="Helvetica,sans-Serif" font-size="10.00">tools/llzk&#45;witgen/Witgen</text>
<text text-anchor="middle" x="1917.12" y="-159" font-family="Helvetica,sans-Serif" font-size="10.00">Lowering.cpp</text>
</a>
</g>
</g>
<!-- Node3&#45;&gt;Node23 -->
<g id="edge26_Node000003_Node000023" class="edge">
<title>Node3&#45;&gt;Node23</title>
<g id="a_edge26_Node000003_Node000023"><a xlink:title=" ">
<path fill="none" stroke="#63b8ff" d="M958.04,-236.73C1112.71,-235.38 1510.79,-227.69 1840.12,-185.25 1843.24,-184.85 1846.41,-184.39 1849.61,-183.89"/>
<polygon fill="#63b8ff" stroke="#63b8ff" points="958.37,-233.23 948.4,-236.81 958.43,-240.23 958.37,-233.23"/>
</a>
</g>
</g>
<!-- Node5 -->
<g id="Node000005" class="node">
<title>Node5</title>
<g id="a_Node000005"><a xlink:href="IntervalAnalysis_8cpp.html" target="_top" xlink:title=" ">
<polygon fill="white" stroke="#666666" points="174.25,-109.38 0,-109.38 0,-88.62 174.25,-88.62 174.25,-109.38"/>
<text text-anchor="middle" x="87.12" y="-95.88" font-family="Helvetica,sans-Serif" font-size="10.00">lib/Analysis/IntervalAnalysis.cpp</text>
</a>
</g>
</g>
<!-- Node4&#45;&gt;Node5 -->
<g id="edge4_Node000004_Node000005" class="edge">
<title>Node4&#45;&gt;Node5</title>
<g id="a_edge4_Node000004_Node000005"><a xlink:title=" ">
<path fill="none" stroke="#63b8ff" d="M215,-147.42C181.59,-135.04 140.21,-119.69 113.74,-109.87"/>
<polygon fill="#63b8ff" stroke="#63b8ff" points="213.52,-150.61 224.11,-150.81 215.95,-144.05 213.52,-150.61"/>
</a>
</g>
</g>
<!-- Node6 -->
<g id="Node000006" class="node">
<title>Node6</title>
<g id="a_Node000006"><a xlink:href="IntervalAnalysisPass_8cpp.html" target="_top" xlink:title="This file implements the &#45;llzk&#45;print&#45;interval&#45;analysis pass.">
<polygon fill="white" stroke="#666666" points="346.12,-115.75 192.12,-115.75 192.12,-82.25 346.12,-82.25 346.12,-115.75"/>
<text text-anchor="start" x="200.12" y="-102.25" font-family="Helvetica,sans-Serif" font-size="10.00">lib/Analysis/IntervalAnalysis</text>
<text text-anchor="middle" x="269.12" y="-89.5" font-family="Helvetica,sans-Serif" font-size="10.00">Pass.cpp</text>
</a>
</g>
</g>
<!-- Node4&#45;&gt;Node6 -->
<g id="edge5_Node000004_Node000006" class="edge">
<title>Node4&#45;&gt;Node6</title>
<g id="a_edge5_Node000004_Node000006"><a xlink:title=" ">
<path fill="none" stroke="#63b8ff" d="M269.12,-140.06C269.12,-131.84 269.12,-123.09 269.12,-115.88"/>
<polygon fill="#63b8ff" stroke="#63b8ff" points="265.63,-139.99 269.13,-149.99 272.63,-139.99 265.63,-139.99"/>
</a>
</g>
</g>
<!-- Node7&#45;&gt;Node8 -->
<g id="edge7_Node000007_Node000008" class="edge">
<title>Node7&#45;&gt;Node8</title>
<g id="a_edge7_Node000007_Node000008"><a xlink:title=" ">
<path fill="none" stroke="#63b8ff" d="M470.36,-142.91C462.75,-133.89 454.34,-123.93 447.54,-115.88"/>
<polygon fill="#63b8ff" stroke="#63b8ff" points="467.51,-144.96 476.64,-150.35 472.86,-140.45 467.51,-144.96"/>
</a>
</g>
</g>
<!-- Node7&#45;&gt;Node12 -->
<g id="edge11_Node000007_Node000012" class="edge">
<title>Node7&#45;&gt;Node12</title>
<g id="a_edge11_Node000007_Node000012"><a xlink:title=" ">
<path fill="none" stroke="#63b8ff" d="M518.87,-144.09C529.82,-134.85 542.11,-124.48 552.02,-116.12"/>
<polygon fill="#63b8ff" stroke="#63b8ff" points="516.63,-141.4 511.24,-150.53 521.14,-146.75 516.63,-141.4"/>
</a>
</g>
</g>
<!-- Node9 -->
<g id="Node000009" class="node">
<title>Node9</title>
<g id="a_Node000009"><a xlink:href="EmptyTemplateRemovalPass_8cpp.html" target="_top" xlink:title="This file implements the &#45;llzk&#45;drop&#45;empty&#45;templates pass.">
<polygon fill="white" stroke="#666666" points="349.12,-46.25 153.12,-46.25 153.12,0 349.12,0 349.12,-46.25"/>
<text text-anchor="start" x="161.12" y="-32.75" font-family="Helvetica,sans-Serif" font-size="10.00">lib/Dialect/Polymorphic</text>
<text text-anchor="start" x="161.12" y="-20" font-family="Helvetica,sans-Serif" font-size="10.00">/Transforms/EmptyTemplateRemoval</text>
<text text-anchor="middle" x="251.12" y="-7.25" font-family="Helvetica,sans-Serif" font-size="10.00">Pass.cpp</text>
</a>
</g>
</g>
<!-- Node8&#45;&gt;Node9 -->
<g id="edge8_Node000008_Node000009" class="edge">
<title>Node8&#45;&gt;Node9</title>
<g id="a_edge8_Node000008_Node000009"><a xlink:title=" ">
<path fill="none" stroke="#63b8ff" d="M383.44,-77.54C359.75,-67.98 331.48,-56.56 307.16,-46.74"/>
<polygon fill="#63b8ff" stroke="#63b8ff" points="381.98,-80.72 392.56,-81.22 384.6,-74.23 381.98,-80.72"/>
</a>
</g>
</g>
<!-- Node8&#45;&gt;Node10 -->
<g id="edge9_Node000008_Node000010" class="edge">
<title>Node8&#45;&gt;Node10</title>
<g id="a_edge9_Node000008_Node000010"><a xlink:title=" ">
<path fill="none" stroke="#63b8ff" d="M489.89,-77.9C522.67,-66.09 563.56,-51.36 594.24,-40.3"/>
<polygon fill="#63b8ff" stroke="#63b8ff" points="488.76,-74.59 480.54,-81.27 491.13,-81.18 488.76,-74.59"/>
</a>
</g>
</g>
<!-- Node11 -->
<g id="Node000011" class="node">
<title>Node11</title>
<g id="a_Node000011"><a xlink:href="SharedImpl_8cpp.html" target="_top" xlink:title=" ">
<polygon fill="white" stroke="#666666" points="519,-39.88 367.25,-39.88 367.25,-6.38 519,-6.38 519,-39.88"/>
<text text-anchor="start" x="375.25" y="-26.38" font-family="Helvetica,sans-Serif" font-size="10.00">lib/Dialect/Polymorphic</text>
<text text-anchor="middle" x="443.12" y="-13.62" font-family="Helvetica,sans-Serif" font-size="10.00">/Transforms/SharedImpl.cpp</text>
</a>
</g>
</g>
<!-- Node8&#45;&gt;Node11 -->
<g id="edge10_Node000008_Node000011" class="edge">
<title>Node8&#45;&gt;Node11</title>
<g id="a_edge10_Node000008_Node000011"><a xlink:title=" ">
<path fill="none" stroke="#63b8ff" d="M437.46,-70.61C438.71,-60.35 440.09,-49.02 441.18,-40.12"/>
<polygon fill="#63b8ff" stroke="#63b8ff" points="434,-70.12 436.26,-80.47 440.94,-70.96 434,-70.12"/>
</a>
</g>
</g>
<!-- Node14 -->
<g id="Node000014" class="node">
<title>Node14</title>
<g id="a_Node000014"><a xlink:href="SourceRef_8cpp.html" target="_top" xlink:title=" ">
<polygon fill="white" stroke="#666666" points="820.25,-109.38 676,-109.38 676,-88.62 820.25,-88.62 820.25,-109.38"/>
<text text-anchor="middle" x="748.12" y="-95.88" font-family="Helvetica,sans-Serif" font-size="10.00">lib/Analysis/SourceRef.cpp</text>
</a>
</g>
</g>
<!-- Node13&#45;&gt;Node14 -->
<g id="edge13_Node000013_Node000014" class="edge">
<title>Node13&#45;&gt;Node14</title>
<g id="a_edge13_Node000013_Node000014"><a xlink:title=" ">
<path fill="none" stroke="#63b8ff" d="M743.34,-140.38C744.62,-129.58 746.01,-117.85 746.96,-109.82"/>
<polygon fill="#63b8ff" stroke="#63b8ff" points="739.9,-139.66 742.2,-150 746.85,-140.48 739.9,-139.66"/>
</a>
</g>
</g>
<!-- Node15 -->
<g id="Node000015" class="node">
<title>Node15</title>
<g id="a_Node000015"><a xlink:href="LLZKLoweringUtils_8cpp.html" target="_top" xlink:title=" ">
<polygon fill="white" stroke="#666666" points="994.25,-115.75 838,-115.75 838,-82.25 994.25,-82.25 994.25,-115.75"/>
<text text-anchor="start" x="846" y="-102.25" font-family="Helvetica,sans-Serif" font-size="10.00">lib/Transforms/LLZKLowering</text>
<text text-anchor="middle" x="916.12" y="-89.5" font-family="Helvetica,sans-Serif" font-size="10.00">Utils.cpp</text>
</a>
</g>
</g>
<!-- Node13&#45;&gt;Node15 -->
<g id="edge14_Node000013_Node000015" class="edge">
<title>Node13&#45;&gt;Node15</title>
<g id="a_edge14_Node000013_Node000015"><a xlink:title=" ">
<path fill="none" stroke="#63b8ff" d="M792.71,-147.33C818.69,-137.37 849.61,-125.51 874.01,-116.15"/>
<polygon fill="#63b8ff" stroke="#63b8ff" points="791.78,-143.94 783.69,-150.79 794.28,-150.48 791.78,-143.94"/>
</a>
</g>
</g>
<!-- Node13&#45;&gt;Node16 -->
<g id="edge15_Node000013_Node000016" class="edge">
<title>Node13&#45;&gt;Node16</title>
<g id="a_edge15_Node000013_Node000016"><a xlink:title=" ">
<path fill="none" stroke="#63b8ff" d="M816.08,-152.14C816.77,-152.01 817.45,-151.88 818.12,-151.75 882.99,-139.27 956.36,-125.87 1012.14,-115.84"/>
<polygon fill="#63b8ff" stroke="#63b8ff" points="815.43,-148.7 806.29,-154.06 816.77,-155.57 815.43,-148.7"/>
</a>
</g>
</g>
</g>
</svg>
