<?xml version="1.0" encoding="UTF-8" standalone="no"?>
<!DOCTYPE svg PUBLIC "-//W3C//DTD SVG 1.1//EN"
 "http://www.w3.org/Graphics/SVG/1.1/DTD/svg11.dtd">
<!-- Generated by graphviz version 12.2.1 (0)
 -->
<!-- Title: include/llzk/Analysis/ConstraintDependencyGraph.h Pages: 1 -->
<svg width="848pt" height="181pt"
 viewBox="0.00 0.00 848.12 180.50" xmlns="http://www.w3.org/2000/svg" xmlns:xlink="http://www.w3.org/1999/xlink">
<g id="graph0" class="graph" transform="scale(1 1) rotate(0) translate(4 176.5)">
<title>include/llzk/Analysis/ConstraintDependencyGraph.h</title>
<!-- Node1 -->
<g id="Node000001" class="node">
<title>Node1</title>
<g id="a_Node000001"><a xlink:title=" ">
<polygon fill="#999999" stroke="#666666" points="533.25,-172.5 365,-172.5 365,-139 533.25,-139 533.25,-172.5"/>
<text text-anchor="start" x="373" y="-159" font-family="Helvetica,sans-Serif" font-size="10.00">include/llzk/Analysis</text>
<text text-anchor="middle" x="449.12" y="-146.25" font-family="Helvetica,sans-Serif" font-size="10.00">/ConstraintDependencyGraph.h</text>
</a>
</g>
</g>
<!-- Node2 -->
<g id="Node000002" class="node">
<title>Node2</title>
<g id="a_Node000002"><a xlink:href="IntervalAnalysis_8h.html" target="_top" xlink:title=" ">
<polygon fill="white" stroke="#666666" points="236,-103 120.25,-103 120.25,-69.5 236,-69.5 236,-103"/>
<text text-anchor="start" x="128.25" y="-89.5" font-family="Helvetica,sans-Serif" font-size="10.00">include/llzk/Analysis</text>
<text text-anchor="middle" x="178.12" y="-76.75" font-family="Helvetica,sans-Serif" font-size="10.00">/IntervalAnalysis.h</text>
</a>
</g>
</g>
<!-- Node1&#45;&gt;Node2 -->
<g id="edge1_Node000001_Node000002" class="edge">
<title>Node1&#45;&gt;Node2</title>
<g id="a_edge1_Node000001_Node000002"><a xlink:title=" ">
<path fill="none" stroke="#63b8ff" d="M373.12,-135.82C329.68,-125 276.06,-111.64 236.05,-101.68"/>
<polygon fill="#63b8ff" stroke="#63b8ff" points="372.2,-139.2 382.75,-138.22 373.89,-132.4 372.2,-139.2"/>
</a>
</g>
</g>
<!-- Node5 -->
<g id="Node000005" class="node">
<title>Node5</title>
<g id="a_Node000005"><a xlink:href="ConstraintDependencyGraph_8cpp.html" target="_top" xlink:title=" ">
<polygon fill="white" stroke="#666666" points="440.25,-103 254,-103 254,-69.5 440.25,-69.5 440.25,-103"/>
<text text-anchor="start" x="262" y="-89.5" font-family="Helvetica,sans-Serif" font-size="10.00">lib/Analysis/ConstraintDependency</text>
<text text-anchor="middle" x="347.12" y="-76.75" font-family="Helvetica,sans-Serif" font-size="10.00">Graph.cpp</text>
</a>
</g>
</g>
<!-- Node1&#45;&gt;Node5 -->
<g id="edge4_Node000001_Node000005" class="edge">
<title>Node1&#45;&gt;Node5</title>
<g id="a_edge4_Node000001_Node000005"><a xlink:title=" ">
<path fill="none" stroke="#63b8ff" d="M415.16,-132.27C400.81,-122.78 384.44,-111.95 371.36,-103.29"/>
<polygon fill="#63b8ff" stroke="#63b8ff" points="413.16,-135.15 423.43,-137.75 417.02,-129.31 413.16,-135.15"/>
</a>
</g>
</g>
<!-- Node6 -->
<g id="Node000006" class="node">
<title>Node6</title>
<g id="a_Node000006"><a xlink:href="ConstraintDependencyGraphPass_8cpp.html" target="_top" xlink:title="This file implements the &#45;llzk&#45;print&#45;constraint&#45;dependency&#45;graphs pass.">
<polygon fill="white" stroke="#666666" points="644.25,-103 458,-103 458,-69.5 644.25,-69.5 644.25,-103"/>
<text text-anchor="start" x="466" y="-89.5" font-family="Helvetica,sans-Serif" font-size="10.00">lib/Analysis/ConstraintDependency</text>
<text text-anchor="middle" x="551.12" y="-76.75" font-family="Helvetica,sans-Serif" font-size="10.00">GraphPass.cpp</text>
</a>
</g>
</g>
<!-- Node1&#45;&gt;Node6 -->
<g id="edge5_Node000001_Node000006" class="edge">
<title>Node1&#45;&gt;Node6</title>
<g id="a_edge5_Node000001_Node000006"><a xlink:title=" ">
<path fill="none" stroke="#63b8ff" d="M483.09,-132.27C497.44,-122.78 513.81,-111.95 526.89,-103.29"/>
<polygon fill="#63b8ff" stroke="#63b8ff" points="481.23,-129.31 474.82,-137.75 485.09,-135.15 481.23,-129.31"/>
</a>
</g>
</g>
<!-- Node7 -->
<g id="Node000007" class="node">
<title>Node7</title>
<g id="a_Node000007"><a xlink:href="SourceRefLattice_8cpp.html" target="_top" xlink:title=" ">
<polygon fill="white" stroke="#666666" points="840.12,-96.62 662.12,-96.62 662.12,-75.88 840.12,-75.88 840.12,-96.62"/>
<text text-anchor="middle" x="751.12" y="-83.12" font-family="Helvetica,sans-Serif" font-size="10.00">lib/Analysis/SourceRefLattice.cpp</text>
</a>
</g>
</g>
<!-- Node1&#45;&gt;Node7 -->
<g id="edge6_Node000001_Node000007" class="edge">
<title>Node1&#45;&gt;Node7</title>
<g id="a_edge6_Node000001_Node000007"><a xlink:title=" ">
<path fill="none" stroke="#63b8ff" d="M532.53,-136.11C588.99,-123.49 661.33,-107.32 706.97,-97.12"/>
<polygon fill="#63b8ff" stroke="#63b8ff" points="531.93,-132.65 522.94,-138.25 533.46,-139.49 531.93,-132.65"/>
</a>
</g>
</g>
<!-- Node3 -->
<g id="Node000003" class="node">
<title>Node3</title>
<g id="a_Node000003"><a xlink:href="IntervalAnalysis_8cpp.html" target="_top" xlink:title=" ">
<polygon fill="white" stroke="#666666" points="174.25,-27.12 0,-27.12 0,-6.38 174.25,-6.38 174.25,-27.12"/>
<text text-anchor="middle" x="87.12" y="-13.62" font-family="Helvetica,sans-Serif" font-size="10.00">lib/Analysis/IntervalAnalysis.cpp</text>
</a>
</g>
</g>
<!-- Node2&#45;&gt;Node3 -->
<g id="edge2_Node000002_Node000003" class="edge">
<title>Node2&#45;&gt;Node3</title>
<g id="a_edge2_Node000002_Node000003"><a xlink:title=" ">
<path fill="none" stroke="#63b8ff" d="M147.51,-62.54C131.48,-50.65 112.68,-36.7 100.37,-27.57"/>
<polygon fill="#63b8ff" stroke="#63b8ff" points="145.23,-65.21 155.34,-68.35 149.4,-59.58 145.23,-65.21"/>
</a>
</g>
</g>
<!-- Node4 -->
<g id="Node000004" class="node">
<title>Node4</title>
<g id="a_Node000004"><a xlink:href="IntervalAnalysisPass_8cpp.html" target="_top" xlink:title="This file implements the &#45;llzk&#45;print&#45;interval&#45;analysis pass.">
<polygon fill="white" stroke="#666666" points="346.12,-33.5 192.12,-33.5 192.12,0 346.12,0 346.12,-33.5"/>
<text text-anchor="start" x="200.12" y="-20" font-family="Helvetica,sans-Serif" font-size="10.00">lib/Analysis/IntervalAnalysis</text>
<text text-anchor="middle" x="269.12" y="-7.25" font-family="Helvetica,sans-Serif" font-size="10.00">Pass.cpp</text>
</a>
</g>
</g>
<!-- Node2&#45;&gt;Node4 -->
<g id="edge3_Node000002_Node000004" class="edge">
<title>Node2&#45;&gt;Node4</title>
<g id="a_edge3_Node000002_Node000004"><a xlink:title=" ">
<path fill="none" stroke="#63b8ff" d="M208.57,-62.66C221.29,-53.23 235.78,-42.48 247.4,-33.87"/>
<polygon fill="#63b8ff" stroke="#63b8ff" points="206.85,-59.58 200.91,-68.35 211.02,-65.21 206.85,-59.58"/>
</a>
</g>
</g>
</g>
</svg>
