<?xml version="1.0" encoding="UTF-8" standalone="no"?>
<!DOCTYPE svg PUBLIC "-//W3C//DTD SVG 1.1//EN"
 "http://www.w3.org/Graphics/SVG/1.1/DTD/svg11.dtd">
<!-- Generated by graphviz version 12.2.1 (0)
 -->
<!-- Title: include/llzk/Dialect/Constrain/IR/OpInterfaces.h Pages: 1 -->
<svg width="2038pt" height="332pt"
 viewBox="0.00 0.00 2038.38 332.25" xmlns="http://www.w3.org/2000/svg" xmlns:xlink="http://www.w3.org/1999/xlink">
<g id="graph0" class="graph" transform="scale(1 1) rotate(0) translate(4 328.25)">
<title>include/llzk/Dialect/Constrain/IR/OpInterfaces.h</title>
<!-- Node1 -->
<g id="Node000001" class="node">
<title>Node1</title>
<g id="a_Node000001"><a xlink:title=" ">
<polygon fill="#999999" stroke="#666666" points="1014.38,-324.25 861.88,-324.25 861.88,-290.75 1014.38,-290.75 1014.38,-324.25"/>
<text text-anchor="start" x="869.88" y="-310.75" font-family="Helvetica,sans-Serif" font-size="10.00">include/llzk/Dialect</text>
<text text-anchor="middle" x="938.12" y="-298" font-family="Helvetica,sans-Serif" font-size="10.00">/Constrain/IR/OpInterfaces.h</text>
</a>
</g>
</g>
<!-- Node2 -->
<g id="Node000002" class="node">
<title>Node2</title>
<g id="a_Node000002"><a xlink:href="Constrain_2IR_2Ops_8h.html" target="_top" xlink:title=" ">
<polygon fill="white" stroke="#666666" points="992.62,-254.75 883.62,-254.75 883.62,-221.25 992.62,-221.25 992.62,-254.75"/>
<text text-anchor="start" x="891.62" y="-241.25" font-family="Helvetica,sans-Serif" font-size="10.00">include/llzk/Dialect</text>
<text text-anchor="middle" x="938.12" y="-228.5" font-family="Helvetica,sans-Serif" font-size="10.00">/Constrain/IR/Ops.h</text>
</a>
</g>
</g>
<!-- Node1&#45;&gt;Node2 -->
<g id="edge1_Node000001_Node000002" class="edge">
<title>Node1&#45;&gt;Node2</title>
<g id="a_edge1_Node000001_Node000002"><a xlink:title=" ">
<path fill="none" stroke="#63b8ff" d="M938.12,-279.06C938.12,-270.84 938.12,-262.09 938.12,-254.88"/>
<polygon fill="#63b8ff" stroke="#63b8ff" points="934.63,-278.99 938.13,-288.99 941.63,-278.99 934.63,-278.99"/>
</a>
</g>
</g>
<!-- Node3 -->
<g id="Node000003" class="node">
<title>Node3</title>
<g id="a_Node000003"><a xlink:href="IntervalAnalysis_8h.html" target="_top" xlink:title=" ">
<polygon fill="white" stroke="#666666" points="327,-185.25 211.25,-185.25 211.25,-151.75 327,-151.75 327,-185.25"/>
<text text-anchor="start" x="219.25" y="-171.75" font-family="Helvetica,sans-Serif" font-size="10.00">include/llzk/Analysis</text>
<text text-anchor="middle" x="269.12" y="-159" font-family="Helvetica,sans-Serif" font-size="10.00">/IntervalAnalysis.h</text>
</a>
</g>
</g>
<!-- Node2&#45;&gt;Node3 -->
<g id="edge2_Node000002_Node000003" class="edge">
<title>Node2&#45;&gt;Node3</title>
<g id="a_edge2_Node000002_Node000003"><a xlink:title=" ">
<path fill="none" stroke="#63b8ff" d="M872.07,-232.86C764.5,-225.71 544.94,-209.48 360.12,-185.25 349.47,-183.85 338.16,-182.11 327.27,-180.3"/>
<polygon fill="#63b8ff" stroke="#63b8ff" points="871.65,-236.34 881.86,-233.5 872.11,-229.35 871.65,-236.34"/>
</a>
</g>
</g>
<!-- Node6 -->
<g id="Node000006" class="node">
<title>Node6</title>
<g id="a_Node000006"><a xlink:href="TypeConversionPatterns_8h.html" target="_top" xlink:title="Reusable MLIR dialect conversion functions for LLZK StructType replacement.">
<polygon fill="white" stroke="#666666" points="666,-185.25 484.25,-185.25 484.25,-151.75 666,-151.75 666,-185.25"/>
<text text-anchor="start" x="492.25" y="-171.75" font-family="Helvetica,sans-Serif" font-size="10.00">include/llzk/Dialect</text>
<text text-anchor="middle" x="575.12" y="-159" font-family="Helvetica,sans-Serif" font-size="10.00">/Shared/TypeConversionPatterns.h</text>
</a>
</g>
</g>
<!-- Node2&#45;&gt;Node6 -->
<g id="edge5_Node000002_Node000006" class="edge">
<title>Node2&#45;&gt;Node6</title>
<g id="a_edge5_Node000002_Node000006"><a xlink:title=" ">
<path fill="none" stroke="#63b8ff" d="M872.38,-224.78C813.61,-213.85 727.05,-197.75 662.47,-185.74"/>
<polygon fill="#63b8ff" stroke="#63b8ff" points="871.43,-228.16 881.9,-226.54 872.71,-221.28 871.43,-228.16"/>
</a>
</g>
</g>
<!-- Node7 -->
<g id="Node000007" class="node">
<title>Node7</title>
<g id="a_Node000007"><a xlink:href="SharedImpl_8h.html" target="_top" xlink:title="Common private implementation for poly dialect passes.">
<polygon fill="white" stroke="#666666" points="542.38,-115.75 401.88,-115.75 401.88,-82.25 542.38,-82.25 542.38,-115.75"/>
<text text-anchor="start" x="409.88" y="-102.25" font-family="Helvetica,sans-Serif" font-size="10.00">lib/Dialect/Polymorphic</text>
<text text-anchor="middle" x="472.12" y="-89.5" font-family="Helvetica,sans-Serif" font-size="10.00">/Transforms/SharedImpl.h</text>
</a>
</g>
</g>
<!-- Node2&#45;&gt;Node7 -->
<g id="edge22_Node000002_Node000007" class="edge">
<title>Node2&#45;&gt;Node7</title>
<g id="a_edge22_Node000002_Node000007"><a xlink:title=" ">
<path fill="none" stroke="#63b8ff" d="M872.21,-234.32C750.77,-228.72 501.62,-213.84 475.12,-185.25 458.01,-166.78 462.31,-135.25 467.12,-116.15"/>
<polygon fill="#63b8ff" stroke="#63b8ff" points="871.89,-237.81 882.04,-234.77 872.21,-230.82 871.89,-237.81"/>
</a>
</g>
</g>
<!-- Node9 -->
<g id="Node000009" class="node">
<title>Node9</title>
<g id="a_Node000009"><a xlink:href="FlatteningPass_8cpp.html" target="_top" xlink:title="This file implements the &#45;llzk&#45;flatten pass.">
<polygon fill="white" stroke="#666666" points="259.88,-39.88 92.38,-39.88 92.38,-6.38 259.88,-6.38 259.88,-39.88"/>
<text text-anchor="start" x="100.38" y="-26.38" font-family="Helvetica,sans-Serif" font-size="10.00">lib/Dialect/Polymorphic</text>
<text text-anchor="middle" x="176.12" y="-13.62" font-family="Helvetica,sans-Serif" font-size="10.00">/Transforms/FlatteningPass.cpp</text>
</a>
</g>
</g>
<!-- Node2&#45;&gt;Node9 -->
<g id="edge21_Node000002_Node000009" class="edge">
<title>Node2&#45;&gt;Node9</title>
<g id="a_edge21_Node000002_Node000009"><a xlink:title=" ">
<path fill="none" stroke="#63b8ff" d="M871.99,-235.22C758.17,-231.26 530.6,-219.26 459.12,-185.25 400.38,-157.3 410.68,-116.1 355.12,-82.25 334.83,-69.88 279.78,-52.8 236.04,-40.35"/>
<polygon fill="#63b8ff" stroke="#63b8ff" points="871.68,-238.71 881.79,-235.54 871.91,-231.71 871.68,-238.71"/>
</a>
</g>
</g>
<!-- Node12 -->
<g id="Node000012" class="node">
<title>Node12</title>
<g id="a_Node000012"><a xlink:href="Struct_2IR_2Dialect_8cpp.html" target="_top" xlink:title=" ">
<polygon fill="white" stroke="#666666" points="695.62,-115.75 598.62,-115.75 598.62,-82.25 695.62,-82.25 695.62,-115.75"/>
<text text-anchor="start" x="606.62" y="-102.25" font-family="Helvetica,sans-Serif" font-size="10.00">lib/Dialect/Struct</text>
<text text-anchor="middle" x="647.12" y="-89.5" font-family="Helvetica,sans-Serif" font-size="10.00">/IR/Dialect.cpp</text>
</a>
</g>
</g>
<!-- Node2&#45;&gt;Node12 -->
<g id="edge23_Node000002_Node000012" class="edge">
<title>Node2&#45;&gt;Node12</title>
<g id="a_edge23_Node000002_Node000012"><a xlink:title=" ">
<path fill="none" stroke="#63b8ff" d="M871.88,-233.53C824.47,-228.37 760.85,-215.78 713.12,-185.25 686,-167.9 665.53,-135.38 655.02,-115.91"/>
<polygon fill="#63b8ff" stroke="#63b8ff" points="871.45,-237 881.75,-234.51 872.14,-230.04 871.45,-237"/>
</a>
</g>
</g>
<!-- Node13 -->
<g id="Node000013" class="node">
<title>Node13</title>
<g id="a_Node000013"><a xlink:href="LLZKLoweringUtils_8h.html" target="_top" xlink:title=" ">
<polygon fill="white" stroke="#666666" points="850.38,-185.25 721.88,-185.25 721.88,-151.75 850.38,-151.75 850.38,-185.25"/>
<text text-anchor="start" x="729.88" y="-171.75" font-family="Helvetica,sans-Serif" font-size="10.00">include/llzk/Transforms</text>
<text text-anchor="middle" x="786.12" y="-159" font-family="Helvetica,sans-Serif" font-size="10.00">/LLZKLoweringUtils.h</text>
</a>
</g>
</g>
<!-- Node2&#45;&gt;Node13 -->
<g id="edge13_Node000002_Node000013" class="edge">
<title>Node2&#45;&gt;Node13</title>
<g id="a_edge13_Node000002_Node000013"><a xlink:title=" ">
<path fill="none" stroke="#63b8ff" d="M891.21,-216.17C869.09,-206.34 843.1,-194.8 822.5,-185.65"/>
<polygon fill="#63b8ff" stroke="#63b8ff" points="889.77,-219.36 900.33,-220.22 892.62,-212.96 889.77,-219.36"/>
</a>
</g>
</g>
<!-- Node16 -->
<g id="Node000016" class="node">
<title>Node16</title>
<g id="a_Node000016"><a xlink:href="LLZKPolyLoweringPass_8cpp.html" target="_top" xlink:title="This file implements the &#45;llzk&#45;poly&#45;lowering pass.">
<polygon fill="white" stroke="#666666" points="1227.75,-115.75 1050.5,-115.75 1050.5,-82.25 1227.75,-82.25 1227.75,-115.75"/>
<text text-anchor="start" x="1058.5" y="-102.25" font-family="Helvetica,sans-Serif" font-size="10.00">lib/Transforms/LLZKPolyLowering</text>
<text text-anchor="middle" x="1139.12" y="-89.5" font-family="Helvetica,sans-Serif" font-size="10.00">Pass.cpp</text>
</a>
</g>
</g>
<!-- Node2&#45;&gt;Node16 -->
<g id="edge25_Node000002_Node000016" class="edge">
<title>Node2&#45;&gt;Node16</title>
<g id="a_edge25_Node000002_Node000016"><a xlink:title=" ">
<path fill="none" stroke="#63b8ff" d="M912.75,-212.7C896.99,-194.65 882.3,-170.08 897.12,-151.75 902.17,-145.52 983.58,-128.96 1050.61,-116.24"/>
<polygon fill="#63b8ff" stroke="#63b8ff" points="910.05,-214.94 919.42,-219.88 915.17,-210.17 910.05,-214.94"/>
</a>
</g>
</g>
<!-- Node17 -->
<g id="Node000017" class="node">
<title>Node17</title>
<g id="a_Node000017"><a xlink:href="ConstraintDependencyGraph_8cpp.html" target="_top" xlink:title=" ">
<polygon fill="white" stroke="#666666" points="1092.25,-185.25 906,-185.25 906,-151.75 1092.25,-151.75 1092.25,-185.25"/>
<text text-anchor="start" x="914" y="-171.75" font-family="Helvetica,sans-Serif" font-size="10.00">lib/Analysis/ConstraintDependency</text>
<text text-anchor="middle" x="999.12" y="-159" font-family="Helvetica,sans-Serif" font-size="10.00">Graph.cpp</text>
</a>
</g>
</g>
<!-- Node2&#45;&gt;Node17 -->
<g id="edge17_Node000002_Node000017" class="edge">
<title>Node2&#45;&gt;Node17</title>
<g id="a_edge17_Node000002_Node000017"><a xlink:title=" ">
<path fill="none" stroke="#63b8ff" d="M960.09,-212.69C968.31,-203.6 977.42,-193.52 984.77,-185.38"/>
<polygon fill="#63b8ff" stroke="#63b8ff" points="957.7,-210.11 953.6,-219.88 962.9,-214.81 957.7,-210.11"/>
</a>
</g>
</g>
<!-- Node18 -->
<g id="Node000018" class="node">
<title>Node18</title>
<g id="a_Node000018"><a xlink:href="Constrain_8cpp.html" target="_top" xlink:title=" ">
<polygon fill="white" stroke="#666666" points="1271.5,-178.88 1110.75,-178.88 1110.75,-158.12 1271.5,-158.12 1271.5,-178.88"/>
<text text-anchor="middle" x="1191.12" y="-165.38" font-family="Helvetica,sans-Serif" font-size="10.00">lib/CAPI/Dialect/Constrain.cpp</text>
</a>
</g>
</g>
<!-- Node2&#45;&gt;Node18 -->
<g id="edge18_Node000002_Node000018" class="edge">
<title>Node2&#45;&gt;Node18</title>
<g id="a_edge18_Node000002_Node000018"><a xlink:title=" ">
<path fill="none" stroke="#63b8ff" d="M1003.92,-219.45C1051.83,-206.66 1114.97,-189.82 1154.3,-179.32"/>
<polygon fill="#63b8ff" stroke="#63b8ff" points="1003.24,-216 994.48,-221.96 1005.05,-222.77 1003.24,-216"/>
</a>
</g>
</g>
<!-- Node19 -->
<g id="Node000019" class="node">
<title>Node19</title>
<g id="a_Node000019"><a xlink:href="Constrain_2IR_2Dialect_8cpp.html" target="_top" xlink:title=" ">
<polygon fill="white" stroke="#666666" points="1404.62,-185.25 1289.62,-185.25 1289.62,-151.75 1404.62,-151.75 1404.62,-185.25"/>
<text text-anchor="start" x="1297.62" y="-171.75" font-family="Helvetica,sans-Serif" font-size="10.00">lib/Dialect/Constrain</text>
<text text-anchor="middle" x="1347.12" y="-159" font-family="Helvetica,sans-Serif" font-size="10.00">/IR/Dialect.cpp</text>
</a>
</g>
</g>
<!-- Node2&#45;&gt;Node19 -->
<g id="edge19_Node000002_Node000019" class="edge">
<title>Node2&#45;&gt;Node19</title>
<g id="a_edge19_Node000002_Node000019"><a xlink:title=" ">
<path fill="none" stroke="#63b8ff" d="M1003.98,-228.64C1073.05,-219.5 1184.61,-203.67 1280.12,-185.25 1283.18,-184.66 1286.3,-184.03 1289.44,-183.37"/>
<polygon fill="#63b8ff" stroke="#63b8ff" points="1003.81,-225.13 994.35,-229.91 1004.72,-232.07 1003.81,-225.13"/>
</a>
</g>
</g>
<!-- Node20 -->
<g id="Node000020" class="node">
<title>Node20</title>
<g id="a_Node000020"><a xlink:href="Constrain_2IR_2Ops_8cpp.html" target="_top" xlink:title=" ">
<polygon fill="white" stroke="#666666" points="1537.62,-185.25 1422.62,-185.25 1422.62,-151.75 1537.62,-151.75 1537.62,-185.25"/>
<text text-anchor="start" x="1430.62" y="-171.75" font-family="Helvetica,sans-Serif" font-size="10.00">lib/Dialect/Constrain</text>
<text text-anchor="middle" x="1480.12" y="-159" font-family="Helvetica,sans-Serif" font-size="10.00">/IR/Ops.cpp</text>
</a>
</g>
</g>
<!-- Node2&#45;&gt;Node20 -->
<g id="edge20_Node000002_Node000020" class="edge">
<title>Node2&#45;&gt;Node20</title>
<g id="a_edge20_Node000002_Node000020"><a xlink:title=" ">
<path fill="none" stroke="#63b8ff" d="M1004.45,-232.44C1096.76,-225.5 1269,-210.35 1414.12,-185.25 1416.79,-184.79 1419.52,-184.28 1422.26,-183.74"/>
<polygon fill="#63b8ff" stroke="#63b8ff" points="1004.27,-228.94 994.56,-233.18 1004.79,-235.93 1004.27,-228.94"/>
</a>
</g>
</g>
<!-- Node21 -->
<g id="Node000021" class="node">
<title>Node21</title>
<g id="a_Node000021"><a xlink:href="LLZKInlineStructsPass_8cpp.html" target="_top" xlink:title="This file implements the &#45;llzk&#45;inline&#45;structs pass.">
<polygon fill="white" stroke="#666666" points="1694.62,-185.25 1555.62,-185.25 1555.62,-151.75 1694.62,-151.75 1694.62,-185.25"/>
<text text-anchor="start" x="1563.62" y="-171.75" font-family="Helvetica,sans-Serif" font-size="10.00">lib/Transforms/LLZKInline</text>
<text text-anchor="middle" x="1625.12" y="-159" font-family="Helvetica,sans-Serif" font-size="10.00">StructsPass.cpp</text>
</a>
</g>
</g>
<!-- Node2&#45;&gt;Node21 -->
<g id="edge24_Node000002_Node000021" class="edge">
<title>Node2&#45;&gt;Node21</title>
<g id="a_edge24_Node000002_Node000021"><a xlink:title=" ">
<path fill="none" stroke="#63b8ff" d="M1004.4,-233.86C1116.57,-227.98 1350.82,-213.32 1547.12,-185.25 1549.86,-184.86 1552.64,-184.43 1555.45,-183.98"/>
<polygon fill="#63b8ff" stroke="#63b8ff" points="1004.27,-230.36 994.46,-234.37 1004.63,-237.35 1004.27,-230.36"/>
</a>
</g>
</g>
<!-- Node22 -->
<g id="Node000022" class="node">
<title>Node22</title>
<g id="a_Node000022"><a xlink:href="LLZKRedundantOperationEliminationPass_8cpp.html" target="_top" xlink:title="This file implements the &#45;llzk&#45;duplicate&#45;op&#45;elim pass.">
<polygon fill="white" stroke="#666666" points="1877.38,-185.25 1712.88,-185.25 1712.88,-151.75 1877.38,-151.75 1877.38,-185.25"/>
<text text-anchor="start" x="1720.88" y="-171.75" font-family="Helvetica,sans-Serif" font-size="10.00">lib/Transforms/LLZKRedundant</text>
<text text-anchor="middle" x="1795.12" y="-159" font-family="Helvetica,sans-Serif" font-size="10.00">OperationEliminationPass.cpp</text>
</a>
</g>
</g>
<!-- Node2&#45;&gt;Node22 -->
<g id="edge26_Node000002_Node000022" class="edge">
<title>Node2&#45;&gt;Node22</title>
<g id="a_edge26_Node000002_Node000022"><a xlink:title=" ">
<path fill="none" stroke="#63b8ff" d="M1004.28,-234.85C1137.26,-230.01 1446.3,-216.19 1704.12,-185.25 1706.99,-184.91 1709.9,-184.53 1712.84,-184.14"/>
<polygon fill="#63b8ff" stroke="#63b8ff" points="1004.49,-231.34 994.62,-235.19 1004.74,-238.33 1004.49,-231.34"/>
</a>
</g>
</g>
<!-- Node23 -->
<g id="Node000023" class="node">
<title>Node23</title>
<g id="a_Node000023"><a xlink:href="WitgenLowering_8cpp.html" target="_top" xlink:title=" ">
<polygon fill="white" stroke="#666666" points="2030.38,-185.25 1895.88,-185.25 1895.88,-151.75 2030.38,-151.75 2030.38,-185.25"/>
<text text-anchor="start" x="1903.88" y="-171.75" font-family="Helvetica,sans-Serif" font-size="10.00">tools/llzk&#45;witgen/Witgen</text>
<text text-anchor="middle" x="1963.12" y="-159" font-family="Helvetica,sans-Serif" font-size="10.00">Lowering.cpp</text>
</a>
</g>
</g>
<!-- Node2&#45;&gt;Node23 -->
<g id="edge27_Node000002_Node000023" class="edge">
<title>Node2&#45;&gt;Node23</title>
<g id="a_edge27_Node000002_Node000023"><a xlink:title=" ">
<path fill="none" stroke="#63b8ff" d="M1004.04,-236.73C1158.71,-235.38 1556.79,-227.69 1886.12,-185.25 1889.24,-184.85 1892.41,-184.39 1895.61,-183.89"/>
<polygon fill="#63b8ff" stroke="#63b8ff" points="1004.37,-233.23 994.4,-236.81 1004.43,-240.23 1004.37,-233.23"/>
</a>
</g>
</g>
<!-- Node4 -->
<g id="Node000004" class="node">
<title>Node4</title>
<g id="a_Node000004"><a xlink:href="IntervalAnalysis_8cpp.html" target="_top" xlink:title=" ">
<polygon fill="white" stroke="#666666" points="174.25,-109.38 0,-109.38 0,-88.62 174.25,-88.62 174.25,-109.38"/>
<text text-anchor="middle" x="87.12" y="-95.88" font-family="Helvetica,sans-Serif" font-size="10.00">lib/Analysis/IntervalAnalysis.cpp</text>
</a>
</g>
</g>
<!-- Node3&#45;&gt;Node4 -->
<g id="edge3_Node000003_Node000004" class="edge">
<title>Node3&#45;&gt;Node4</title>
<g id="a_edge3_Node000003_Node000004"><a xlink:title=" ">
<path fill="none" stroke="#63b8ff" d="M215,-147.42C181.59,-135.04 140.21,-119.69 113.74,-109.87"/>
<polygon fill="#63b8ff" stroke="#63b8ff" points="213.52,-150.61 224.11,-150.81 215.95,-144.05 213.52,-150.61"/>
</a>
</g>
</g>
<!-- Node5 -->
<g id="Node000005" class="node">
<title>Node5</title>
<g id="a_Node000005"><a xlink:href="IntervalAnalysisPass_8cpp.html" target="_top" xlink:title="This file implements the &#45;llzk&#45;print&#45;interval&#45;analysis pass.">
<polygon fill="white" stroke="#666666" points="346.12,-115.75 192.12,-115.75 192.12,-82.25 346.12,-82.25 346.12,-115.75"/>
<text text-anchor="start" x="200.12" y="-102.25" font-family="Helvetica,sans-Serif" font-size="10.00">lib/Analysis/IntervalAnalysis</text>
<text text-anchor="middle" x="269.12" y="-89.5" font-family="Helvetica,sans-Serif" font-size="10.00">Pass.cpp</text>
</a>
</g>
</g>
<!-- Node3&#45;&gt;Node5 -->
<g id="edge4_Node000003_Node000005" class="edge">
<title>Node3&#45;&gt;Node5</title>
<g id="a_edge4_Node000003_Node000005"><a xlink:title=" ">
<path fill="none" stroke="#63b8ff" d="M269.12,-140.06C269.12,-131.84 269.12,-123.09 269.12,-115.88"/>
<polygon fill="#63b8ff" stroke="#63b8ff" points="265.63,-139.99 269.13,-149.99 272.63,-139.99 265.63,-139.99"/>
</a>
</g>
</g>
<!-- Node6&#45;&gt;Node7 -->
<g id="edge6_Node000006_Node000007" class="edge">
<title>Node6&#45;&gt;Node7</title>
<g id="a_edge6_Node000006_Node000007"><a xlink:title=" ">
<path fill="none" stroke="#63b8ff" d="M541.24,-145.29C526.66,-135.74 509.94,-124.78 496.59,-116.04"/>
<polygon fill="#63b8ff" stroke="#63b8ff" points="538.91,-147.95 549.19,-150.5 542.74,-142.09 538.91,-147.95"/>
</a>
</g>
</g>
<!-- Node11 -->
<g id="Node000011" class="node">
<title>Node11</title>
<g id="a_Node000011"><a xlink:href="WildcardArraySpecializationPass_8cpp.html" target="_top" xlink:title="This file implements the &#45;llzk&#45;specialize&#45;wildcard&#45;arrays pass.">
<polygon fill="white" stroke="#666666" points="875.75,-46.25 662.5,-46.25 662.5,0 875.75,0 875.75,-46.25"/>
<text text-anchor="start" x="670.5" y="-32.75" font-family="Helvetica,sans-Serif" font-size="10.00">lib/Dialect/Polymorphic</text>
<text text-anchor="start" x="670.5" y="-20" font-family="Helvetica,sans-Serif" font-size="10.00">/Transforms/WildcardArraySpecialization</text>
<text text-anchor="middle" x="769.12" y="-7.25" font-family="Helvetica,sans-Serif" font-size="10.00">Pass.cpp</text>
</a>
</g>
</g>
<!-- Node6&#45;&gt;Node11 -->
<g id="edge11_Node000006_Node000011" class="edge">
<title>Node6&#45;&gt;Node11</title>
<g id="a_edge11_Node000006_Node000011"><a xlink:title=" ">
<path fill="none" stroke="#63b8ff" d="M573.08,-139.83C573.23,-121.44 576.52,-97.9 590.12,-82.25 601.65,-68.99 635.05,-56.62 669.94,-46.73"/>
<polygon fill="#63b8ff" stroke="#63b8ff" points="569.58,-139.88 573.33,-149.78 576.57,-139.7 569.58,-139.88"/>
</a>
</g>
</g>
<!-- Node6&#45;&gt;Node12 -->
<g id="edge12_Node000006_Node000012" class="edge">
<title>Node6&#45;&gt;Node12</title>
<g id="a_edge12_Node000006_Node000012"><a xlink:title=" ">
<path fill="none" stroke="#63b8ff" d="M600.46,-143.75C610.31,-134.52 621.33,-124.19 630.18,-115.88"/>
<polygon fill="#63b8ff" stroke="#63b8ff" points="598.19,-141.08 593.29,-150.47 602.98,-146.18 598.19,-141.08"/>
</a>
</g>
</g>
<!-- Node8 -->
<g id="Node000008" class="node">
<title>Node8</title>
<g id="a_Node000008"><a xlink:href="EmptyTemplateRemovalPass_8cpp.html" target="_top" xlink:title="This file implements the &#45;llzk&#45;drop&#45;empty&#45;templates pass.">
<polygon fill="white" stroke="#666666" points="474.12,-46.25 278.12,-46.25 278.12,0 474.12,0 474.12,-46.25"/>
<text text-anchor="start" x="286.12" y="-32.75" font-family="Helvetica,sans-Serif" font-size="10.00">lib/Dialect/Polymorphic</text>
<text text-anchor="start" x="286.12" y="-20" font-family="Helvetica,sans-Serif" font-size="10.00">/Transforms/EmptyTemplateRemoval</text>
<text text-anchor="middle" x="376.12" y="-7.25" font-family="Helvetica,sans-Serif" font-size="10.00">Pass.cpp</text>
</a>
</g>
</g>
<!-- Node7&#45;&gt;Node8 -->
<g id="edge7_Node000007_Node000008" class="edge">
<title>Node7&#45;&gt;Node8</title>
<g id="a_edge7_Node000007_Node000008"><a xlink:title=" ">
<path fill="none" stroke="#63b8ff" d="M442.28,-75.03C430.5,-65.97 417,-55.58 405.29,-46.57"/>
<polygon fill="#63b8ff" stroke="#63b8ff" points="440.04,-77.72 450.09,-81.05 444.3,-72.17 440.04,-77.72"/>
</a>
</g>
</g>
<!-- Node7&#45;&gt;Node9 -->
<g id="edge8_Node000007_Node000009" class="edge">
<title>Node7&#45;&gt;Node9</title>
<g id="a_edge8_Node000007_Node000009"><a xlink:title=" ">
<path fill="none" stroke="#63b8ff" d="M396.21,-79.05C348.25,-67.08 286.92,-51.78 241.19,-40.36"/>
<polygon fill="#63b8ff" stroke="#63b8ff" points="395.15,-82.4 405.7,-81.42 396.84,-75.6 395.15,-82.4"/>
</a>
</g>
</g>
<!-- Node10 -->
<g id="Node000010" class="node">
<title>Node10</title>
<g id="a_Node000010"><a xlink:href="SharedImpl_8cpp.html" target="_top" xlink:title=" ">
<polygon fill="white" stroke="#666666" points="644,-39.88 492.25,-39.88 492.25,-6.38 644,-6.38 644,-39.88"/>
<text text-anchor="start" x="500.25" y="-26.38" font-family="Helvetica,sans-Serif" font-size="10.00">lib/Dialect/Polymorphic</text>
<text text-anchor="middle" x="568.12" y="-13.62" font-family="Helvetica,sans-Serif" font-size="10.00">/Transforms/SharedImpl.cpp</text>
</a>
</g>
</g>
<!-- Node7&#45;&gt;Node10 -->
<g id="edge9_Node000007_Node000010" class="edge">
<title>Node7&#45;&gt;Node10</title>
<g id="a_edge9_Node000007_Node000010"><a xlink:title=" ">
<path fill="none" stroke="#63b8ff" d="M501.74,-75.21C516.5,-63.85 534.01,-50.38 547.34,-40.12"/>
<polygon fill="#63b8ff" stroke="#63b8ff" points="499.95,-72.17 494.16,-81.05 504.21,-77.72 499.95,-72.17"/>
</a>
</g>
</g>
<!-- Node7&#45;&gt;Node11 -->
<g id="edge10_Node000007_Node000011" class="edge">
<title>Node7&#45;&gt;Node11</title>
<g id="a_edge10_Node000007_Node000011"><a xlink:title=" ">
<path fill="none" stroke="#63b8ff" d="M548.22,-79.07C587.85,-69.21 636.59,-57.09 678.19,-46.74"/>
<polygon fill="#63b8ff" stroke="#63b8ff" points="547.63,-75.61 538.77,-81.42 549.32,-82.41 547.63,-75.61"/>
</a>
</g>
</g>
<!-- Node14 -->
<g id="Node000014" class="node">
<title>Node14</title>
<g id="a_Node000014"><a xlink:href="SourceRef_8cpp.html" target="_top" xlink:title=" ">
<polygon fill="white" stroke="#666666" points="858.25,-109.38 714,-109.38 714,-88.62 858.25,-88.62 858.25,-109.38"/>
<text text-anchor="middle" x="786.12" y="-95.88" font-family="Helvetica,sans-Serif" font-size="10.00">lib/Analysis/SourceRef.cpp</text>
</a>
</g>
</g>
<!-- Node13&#45;&gt;Node14 -->
<g id="edge14_Node000013_Node000014" class="edge">
<title>Node13&#45;&gt;Node14</title>
<g id="a_edge14_Node000013_Node000014"><a xlink:title=" ">
<path fill="none" stroke="#63b8ff" d="M786.12,-140.03C786.12,-129.33 786.12,-117.76 786.12,-109.82"/>
<polygon fill="#63b8ff" stroke="#63b8ff" points="782.63,-139.99 786.13,-149.99 789.63,-139.99 782.63,-139.99"/>
</a>
</g>
</g>
<!-- Node15 -->
<g id="Node000015" class="node">
<title>Node15</title>
<g id="a_Node000015"><a xlink:href="LLZKLoweringUtils_8cpp.html" target="_top" xlink:title=" ">
<polygon fill="white" stroke="#666666" points="1032.25,-115.75 876,-115.75 876,-82.25 1032.25,-82.25 1032.25,-115.75"/>
<text text-anchor="start" x="884" y="-102.25" font-family="Helvetica,sans-Serif" font-size="10.00">lib/Transforms/LLZKLowering</text>
<text text-anchor="middle" x="954.12" y="-89.5" font-family="Helvetica,sans-Serif" font-size="10.00">Utils.cpp</text>
</a>
</g>
</g>
<!-- Node13&#45;&gt;Node15 -->
<g id="edge15_Node000013_Node000015" class="edge">
<title>Node13&#45;&gt;Node15</title>
<g id="a_edge15_Node000013_Node000015"><a xlink:title=" ">
<path fill="none" stroke="#63b8ff" d="M836.98,-147.07C861.64,-137.16 890.84,-125.43 913.92,-116.15"/>
<polygon fill="#63b8ff" stroke="#63b8ff" points="835.74,-143.79 827.77,-150.77 838.35,-150.29 835.74,-143.79"/>
</a>
</g>
</g>
<!-- Node13&#45;&gt;Node16 -->
<g id="edge16_Node000013_Node000016" class="edge">
<title>Node13&#45;&gt;Node16</title>
<g id="a_edge16_Node000013_Node000016"><a xlink:title=" ">
<path fill="none" stroke="#63b8ff" d="M862.08,-152.15C862.77,-152.02 863.45,-151.88 864.12,-151.75 926.71,-139.54 997.4,-126.25 1051.44,-116.19"/>
<polygon fill="#63b8ff" stroke="#63b8ff" points="861.43,-148.71 852.29,-154.08 862.78,-155.58 861.43,-148.71"/>
</a>
</g>
</g>
</g>
</svg>
