<?xml version="1.0" encoding="UTF-8" standalone="no"?>
<!DOCTYPE svg PUBLIC "-//W3C//DTD SVG 1.1//EN"
 "http://www.w3.org/Graphics/SVG/1.1/DTD/svg11.dtd">
<!-- Generated by graphviz version 12.2.1 (0)
 -->
<!-- Title: include/llzk/Dialect/Constrain/IR/Dialect.h Pages: 1 -->
<svg width="256pt" height="111pt"
 viewBox="0.00 0.00 256.38 111.00" xmlns="http://www.w3.org/2000/svg" xmlns:xlink="http://www.w3.org/1999/xlink">
<g id="graph0" class="graph" transform="scale(1 1) rotate(0) translate(4 107)">
<title>include/llzk/Dialect/Constrain/IR/Dialect.h</title>
<!-- Node1 -->
<g id="Node000001" class="node">
<title>Node1</title>
<g id="a_Node000001"><a xlink:title=" ">
<polygon fill="#999999" stroke="#666666" points="183.62,-103 58.88,-103 58.88,-69.5 183.62,-69.5 183.62,-103"/>
<text text-anchor="start" x="66.88" y="-89.5" font-family="Helvetica,sans-Serif" font-size="10.00">include/llzk/Dialect</text>
<text text-anchor="middle" x="121.25" y="-76.75" font-family="Helvetica,sans-Serif" font-size="10.00">/Constrain/IR/Dialect.h</text>
</a>
</g>
</g>
<!-- Node2 -->
<g id="Node000002" class="node">
<title>Node2</title>
<g id="a_Node000002"><a xlink:title=" ">
<polygon fill="#e0e0e0" stroke="#999999" points="110.5,-27.12 0,-27.12 0,-6.38 110.5,-6.38 110.5,-27.12"/>
<text text-anchor="middle" x="55.25" y="-13.62" font-family="Helvetica,sans-Serif" font-size="10.00">mlir/IR/BuiltinOps.h</text>
</a>
</g>
</g>
<!-- Node1&#45;&gt;Node2 -->
<g id="edge1_Node000001_Node000002" class="edge">
<title>Node1&#45;&gt;Node2</title>
<g id="a_edge1_Node000001_Node000002"><a xlink:title=" ">
<path fill="none" stroke="#63b8ff" d="M105.61,-69.25C95.72,-59.14 82.93,-46.06 72.71,-35.61"/>
<polygon fill="#63b8ff" stroke="#63b8ff" points="75.41,-33.36 65.91,-28.65 70.4,-38.25 75.41,-33.36"/>
</a>
</g>
</g>
<!-- Node3 -->
<g id="Node000003" class="node">
<title>Node3</title>
<g id="a_Node000003"><a xlink:href="Constrain_2IR_2Dialect_8h_8inc.html" target="_top" xlink:title=" ">
<polygon fill="white" stroke="#666666" points="248.38,-33.5 128.12,-33.5 128.12,0 248.38,0 248.38,-33.5"/>
<text text-anchor="start" x="136.12" y="-20" font-family="Helvetica,sans-Serif" font-size="10.00">llzk/Dialect/Constrain</text>
<text text-anchor="middle" x="188.25" y="-7.25" font-family="Helvetica,sans-Serif" font-size="10.00">/IR/Dialect.h.inc</text>
</a>
</g>
</g>
<!-- Node1&#45;&gt;Node3 -->
<g id="edge2_Node000001_Node000003" class="edge">
<title>Node1&#45;&gt;Node3</title>
<g id="a_edge2_Node000001_Node000003"><a xlink:title=" ">
<path fill="none" stroke="#63b8ff" d="M137.13,-69.25C145.31,-61.02 155.44,-50.8 164.52,-41.65"/>
<polygon fill="#63b8ff" stroke="#63b8ff" points="166.86,-44.27 171.42,-34.71 161.89,-39.34 166.86,-44.27"/>
</a>
</g>
</g>
</g>
</svg>
