<?xml version="1.0" encoding="UTF-8" standalone="no"?>
<!DOCTYPE svg PUBLIC "-//W3C//DTD SVG 1.1//EN"
 "http://www.w3.org/Graphics/SVG/1.1/DTD/svg11.dtd">
<!-- Generated by graphviz version 12.2.1 (0)
 -->
<!-- Title: tools/llzk&#45;tblgen/DialectCAPITestGen.cpp Pages: 1 -->
<svg width="1284pt" height="155pt"
 viewBox="0.00 0.00 1283.62 155.00" xmlns="http://www.w3.org/2000/svg" xmlns:xlink="http://www.w3.org/1999/xlink">
<g id="graph0" class="graph" transform="scale(1 1) rotate(0) translate(4 151)">
<title>tools/llzk&#45;tblgen/DialectCAPITestGen.cpp</title>
<!-- Node1 -->
<g id="Node000001" class="node">
<title>Node1</title>
<g id="a_Node000001"><a xlink:title=" ">
<polygon fill="#999999" stroke="#666666" points="746.12,-147 613.88,-147 613.88,-113.5 746.12,-113.5 746.12,-147"/>
<text text-anchor="start" x="621.88" y="-133.5" font-family="Helvetica,sans-Serif" font-size="10.00">tools/llzk&#45;tblgen/Dialect</text>
<text text-anchor="middle" x="680" y="-120.75" font-family="Helvetica,sans-Serif" font-size="10.00">CAPITestGen.cpp</text>
</a>
</g>
</g>
<!-- Node2 -->
<g id="Node000002" class="node">
<title>Node2</title>
<g id="a_Node000002"><a xlink:href="CommonCAPIGen_8h.html" target="_top" xlink:title=" ">
<polygon fill="white" stroke="#666666" points="613.62,-77.5 502.38,-77.5 502.38,-56.75 613.62,-56.75 613.62,-77.5"/>
<text text-anchor="middle" x="558" y="-64" font-family="Helvetica,sans-Serif" font-size="10.00">CommonCAPIGen.h</text>
</a>
</g>
</g>
<!-- Node1&#45;&gt;Node2 -->
<g id="edge1_Node000001_Node000002" class="edge">
<title>Node1&#45;&gt;Node2</title>
<g id="a_edge1_Node000001_Node000002"><a xlink:title=" ">
<path fill="none" stroke="#63b8ff" d="M647.63,-113.03C629.07,-103.73 605.93,-92.14 587.82,-83.06"/>
<polygon fill="#63b8ff" stroke="#63b8ff" points="589.4,-79.94 578.89,-78.59 586.27,-86.2 589.4,-79.94"/>
</a>
</g>
</g>
<!-- Node3 -->
<g id="Node000003" class="node">
<title>Node3</title>
<g id="a_Node000003"><a xlink:title=" ">
<polygon fill="#e0e0e0" stroke="#999999" points="130,-20.75 0,-20.75 0,0 130,0 130,-20.75"/>
<text text-anchor="middle" x="65" y="-7.25" font-family="Helvetica,sans-Serif" font-size="10.00">mlir/TableGen/Dialect.h</text>
</a>
</g>
</g>
<!-- Node1&#45;&gt;Node3 -->
<g id="edge10_Node000001_Node000003" class="edge">
<title>Node1&#45;&gt;Node3</title>
<g id="a_edge10_Node000001_Node000003"><a xlink:title=" ">
<path fill="none" stroke="#63b8ff" d="M613.44,-117.12C556.89,-106.76 473.58,-91.37 401,-77.5 304.54,-59.06 192.66,-36.89 125.42,-23.47"/>
<polygon fill="#63b8ff" stroke="#63b8ff" points="126.19,-20.06 115.7,-21.53 124.82,-26.92 126.19,-20.06"/>
</a>
</g>
</g>
<!-- Node4 -->
<g id="Node000004" class="node">
<title>Node4</title>
<g id="a_Node000004"><a xlink:title=" ">
<polygon fill="#e0e0e0" stroke="#999999" points="280.12,-20.75 147.88,-20.75 147.88,0 280.12,0 280.12,-20.75"/>
<text text-anchor="middle" x="214" y="-7.25" font-family="Helvetica,sans-Serif" font-size="10.00">llvm/ADT/StringExtras.h</text>
</a>
</g>
</g>
<!-- Node1&#45;&gt;Node4 -->
<g id="edge12_Node000001_Node000004" class="edge">
<title>Node1&#45;&gt;Node4</title>
<g id="a_edge12_Node000001_Node000004"><a xlink:title=" ">
<path fill="none" stroke="#63b8ff" d="M616.18,-113.11C522.31,-89.36 348.95,-45.51 263.81,-23.98"/>
<polygon fill="#63b8ff" stroke="#63b8ff" points="264.92,-20.64 254.36,-21.58 263.2,-27.43 264.92,-20.64"/>
</a>
</g>
</g>
<!-- Node7 -->
<g id="Node000007" class="node">
<title>Node7</title>
<g id="a_Node000007"><a xlink:title=" ">
<polygon fill="#e0e0e0" stroke="#999999" points="884.38,-20.75 723.62,-20.75 723.62,0 884.38,0 884.38,-20.75"/>
<text text-anchor="middle" x="804" y="-7.25" font-family="Helvetica,sans-Serif" font-size="10.00">llvm/Support/CommandLine.h</text>
</a>
</g>
</g>
<!-- Node1&#45;&gt;Node7 -->
<g id="edge13_Node000001_Node000007" class="edge">
<title>Node1&#45;&gt;Node7</title>
<g id="a_edge13_Node000001_Node000007"><a xlink:title=" ">
<path fill="none" stroke="#63b8ff" d="M670.35,-113.02C662.34,-97.23 654.05,-73.26 666,-56.75 677.37,-41.04 694.37,-30.67 712.58,-23.86"/>
<polygon fill="#63b8ff" stroke="#63b8ff" points="713.6,-27.21 721.97,-20.72 711.38,-20.57 713.6,-27.21"/>
</a>
</g>
</g>
<!-- Node8 -->
<g id="Node000008" class="node">
<title>Node8</title>
<g id="a_Node000008"><a xlink:title=" ">
<polygon fill="#e0e0e0" stroke="#999999" points="1065.88,-20.75 902.12,-20.75 902.12,0 1065.88,0 1065.88,-20.75"/>
<text text-anchor="middle" x="984" y="-7.25" font-family="Helvetica,sans-Serif" font-size="10.00">llvm/Support/FormatVariadic.h</text>
</a>
</g>
</g>
<!-- Node1&#45;&gt;Node8 -->
<g id="edge14_Node000001_Node000008" class="edge">
<title>Node1&#45;&gt;Node8</title>
<g id="a_edge14_Node000001_Node000008"><a xlink:title=" ">
<path fill="none" stroke="#63b8ff" d="M679.48,-113.14C679.88,-96.49 683.28,-70.99 699,-56.75 713.27,-43.82 813.12,-30.06 890.66,-21.13"/>
<polygon fill="#63b8ff" stroke="#63b8ff" points="890.88,-24.63 900.42,-20.02 890.09,-17.67 890.88,-24.63"/>
</a>
</g>
</g>
<!-- Node11 -->
<g id="Node000011" class="node">
<title>Node11</title>
<g id="a_Node000011"><a xlink:title=" ">
<polygon fill="#e0e0e0" stroke="#999999" points="841.88,-77.5 708.12,-77.5 708.12,-56.75 841.88,-56.75 841.88,-77.5"/>
<text text-anchor="middle" x="775" y="-64" font-family="Helvetica,sans-Serif" font-size="10.00">mlir/TableGen/GenInfo.h</text>
</a>
</g>
</g>
<!-- Node1&#45;&gt;Node11 -->
<g id="edge11_Node000001_Node000011" class="edge">
<title>Node1&#45;&gt;Node11</title>
<g id="a_edge11_Node000001_Node000011"><a xlink:title=" ">
<path fill="none" stroke="#63b8ff" d="M704.96,-113.19C718.94,-104.2 736.31,-93.02 750.25,-84.05"/>
<polygon fill="#63b8ff" stroke="#63b8ff" points="751.92,-87.14 758.43,-78.79 748.13,-81.25 751.92,-87.14"/>
</a>
</g>
</g>
<!-- Node12 -->
<g id="Node000012" class="node">
<title>Node12</title>
<g id="a_Node000012"><a xlink:title=" ">
<polygon fill="#e0e0e0" stroke="#999999" points="991.75,-77.5 860.25,-77.5 860.25,-56.75 991.75,-56.75 991.75,-77.5"/>
<text text-anchor="middle" x="926" y="-64" font-family="Helvetica,sans-Serif" font-size="10.00">llvm/TableGen/Record.h</text>
</a>
</g>
</g>
<!-- Node1&#45;&gt;Node12 -->
<g id="edge15_Node000001_Node000012" class="edge">
<title>Node1&#45;&gt;Node12</title>
<g id="a_edge15_Node000001_Node000012"><a xlink:title=" ">
<path fill="none" stroke="#63b8ff" d="M745.28,-113.03C786.22,-102.86 838.19,-89.94 875.88,-80.58"/>
<polygon fill="#63b8ff" stroke="#63b8ff" points="876.27,-84.09 885.13,-78.28 874.58,-77.29 876.27,-84.09"/>
</a>
</g>
</g>
<!-- Node13 -->
<g id="Node000013" class="node">
<title>Node13</title>
<g id="a_Node000013"><a xlink:title=" ">
<polygon fill="#e0e0e0" stroke="#999999" points="1194,-77.5 1010,-77.5 1010,-56.75 1194,-56.75 1194,-77.5"/>
<text text-anchor="middle" x="1102" y="-64" font-family="Helvetica,sans-Serif" font-size="10.00">llvm/TableGen/TableGenBackend.h</text>
</a>
</g>
</g>
<!-- Node1&#45;&gt;Node13 -->
<g id="edge16_Node000001_Node000013" class="edge">
<title>Node1&#45;&gt;Node13</title>
<g id="a_edge16_Node000001_Node000013"><a xlink:title=" ">
<path fill="none" stroke="#63b8ff" d="M746.4,-119.63C821.33,-108.78 943.14,-91.14 1022.92,-79.58"/>
<polygon fill="#63b8ff" stroke="#63b8ff" points="1023,-83.11 1032.39,-78.21 1021.99,-76.18 1023,-83.11"/>
</a>
</g>
</g>
<!-- Node14 -->
<g id="Node000014" class="node">
<title>Node14</title>
<g id="a_Node000014"><a xlink:title=" ">
<polygon fill="#e0e0e0" stroke="#999999" points="1275.62,-77.5 1212.38,-77.5 1212.38,-56.75 1275.62,-56.75 1275.62,-77.5"/>
<text text-anchor="middle" x="1244" y="-64" font-family="Helvetica,sans-Serif" font-size="10.00">algorithm</text>
</a>
</g>
</g>
<!-- Node1&#45;&gt;Node14 -->
<g id="edge17_Node000001_Node000014" class="edge">
<title>Node1&#45;&gt;Node14</title>
<g id="a_edge17_Node000001_Node000014"><a xlink:title=" ">
<path fill="none" stroke="#63b8ff" d="M746.4,-125.37C843.91,-119.09 1031.72,-104.72 1201.16,-77.6"/>
<polygon fill="#63b8ff" stroke="#63b8ff" points="1201.49,-81.09 1210.8,-76.03 1200.37,-74.18 1201.49,-81.09"/>
</a>
</g>
</g>
<!-- Node2&#45;&gt;Node3 -->
<g id="edge2_Node000002_Node000003" class="edge">
<title>Node2&#45;&gt;Node3</title>
<g id="a_edge2_Node000002_Node000003"><a xlink:title=" ">
<path fill="none" stroke="#63b8ff" d="M502.05,-60.39C423.87,-52.31 277.2,-36.88 141.76,-21.06"/>
<polygon fill="#63b8ff" stroke="#63b8ff" points="142.2,-17.59 131.87,-19.9 141.39,-24.54 142.2,-17.59"/>
</a>
</g>
</g>
<!-- Node2&#45;&gt;Node4 -->
<g id="edge3_Node000002_Node000004" class="edge">
<title>Node2&#45;&gt;Node4</title>
<g id="a_edge3_Node000002_Node000004"><a xlink:title=" ">
<path fill="none" stroke="#63b8ff" d="M501.96,-57.21C443.42,-47.89 351.31,-33.23 287.08,-23.01"/>
<polygon fill="#63b8ff" stroke="#63b8ff" points="287.75,-19.57 277.32,-21.45 286.65,-26.48 287.75,-19.57"/>
</a>
</g>
</g>
<!-- Node5 -->
<g id="Node000005" class="node">
<title>Node5</title>
<g id="a_Node000005"><a xlink:title=" ">
<polygon fill="#e0e0e0" stroke="#999999" points="415.62,-20.75 298.38,-20.75 298.38,0 415.62,0 415.62,-20.75"/>
<text text-anchor="middle" x="357" y="-7.25" font-family="Helvetica,sans-Serif" font-size="10.00">llvm/ADT/StringRef.h</text>
</a>
</g>
</g>
<!-- Node2&#45;&gt;Node5 -->
<g id="edge4_Node000002_Node000005" class="edge">
<title>Node2&#45;&gt;Node5</title>
<g id="a_edge4_Node000002_Node000005"><a xlink:title=" ">
<path fill="none" stroke="#63b8ff" d="M522.07,-56.34C489.01,-47.33 439.8,-33.93 403.71,-24.1"/>
<polygon fill="#63b8ff" stroke="#63b8ff" points="404.99,-20.82 394.42,-21.57 403.15,-27.57 404.99,-20.82"/>
</a>
</g>
</g>
<!-- Node6 -->
<g id="Node000006" class="node">
<title>Node6</title>
<g id="a_Node000006"><a xlink:title=" ">
<polygon fill="#e0e0e0" stroke="#999999" points="567.88,-20.75 434.12,-20.75 434.12,0 567.88,0 567.88,-20.75"/>
<text text-anchor="middle" x="501" y="-7.25" font-family="Helvetica,sans-Serif" font-size="10.00">llvm/ADT/StringSwitch.h</text>
</a>
</g>
</g>
<!-- Node2&#45;&gt;Node6 -->
<g id="edge5_Node000002_Node000006" class="edge">
<title>Node2&#45;&gt;Node6</title>
<g id="a_edge5_Node000002_Node000006"><a xlink:title=" ">
<path fill="none" stroke="#63b8ff" d="M547.81,-56.34C539.87,-48.71 528.63,-37.92 519.16,-28.82"/>
<polygon fill="#63b8ff" stroke="#63b8ff" points="521.83,-26.53 512.19,-22.13 516.98,-31.58 521.83,-26.53"/>
</a>
</g>
</g>
<!-- Node2&#45;&gt;Node7 -->
<g id="edge6_Node000002_Node000007" class="edge">
<title>Node2&#45;&gt;Node7</title>
<g id="a_edge6_Node000002_Node000007"><a xlink:title=" ">
<path fill="none" stroke="#63b8ff" d="M602.26,-56.27C643.24,-47.15 704.33,-33.56 748.54,-23.72"/>
<polygon fill="#63b8ff" stroke="#63b8ff" points="749.2,-27.16 758.2,-21.57 747.68,-20.32 749.2,-27.16"/>
</a>
</g>
</g>
<!-- Node2&#45;&gt;Node8 -->
<g id="edge7_Node000002_Node000008" class="edge">
<title>Node2&#45;&gt;Node8</title>
<g id="a_edge7_Node000002_Node000008"><a xlink:title=" ">
<path fill="none" stroke="#63b8ff" d="M613.69,-58.97C685.57,-49.73 811.44,-33.55 896.24,-22.65"/>
<polygon fill="#63b8ff" stroke="#63b8ff" points="896.43,-26.16 905.9,-21.41 895.54,-19.22 896.43,-26.16"/>
</a>
</g>
</g>
<!-- Node9 -->
<g id="Node000009" class="node">
<title>Node9</title>
<g id="a_Node000009"><a xlink:title=" ">
<polygon fill="#e0e0e0" stroke="#999999" points="643.62,-20.75 586.38,-20.75 586.38,0 643.62,0 643.62,-20.75"/>
<text text-anchor="middle" x="615" y="-7.25" font-family="Helvetica,sans-Serif" font-size="10.00">memory</text>
</a>
</g>
</g>
<!-- Node2&#45;&gt;Node9 -->
<g id="edge8_Node000002_Node000009" class="edge">
<title>Node2&#45;&gt;Node9</title>
<g id="a_edge8_Node000002_Node000009"><a xlink:title=" ">
<path fill="none" stroke="#63b8ff" d="M568.19,-56.34C576.13,-48.71 587.37,-37.92 596.84,-28.82"/>
<polygon fill="#63b8ff" stroke="#63b8ff" points="599.02,-31.58 603.81,-22.13 594.17,-26.53 599.02,-31.58"/>
</a>
</g>
</g>
<!-- Node10 -->
<g id="Node000010" class="node">
<title>Node10</title>
<g id="a_Node000010"><a xlink:title=" ">
<polygon fill="#e0e0e0" stroke="#999999" points="705.88,-20.75 662.12,-20.75 662.12,0 705.88,0 705.88,-20.75"/>
<text text-anchor="middle" x="684" y="-7.25" font-family="Helvetica,sans-Serif" font-size="10.00">string</text>
</a>
</g>
</g>
<!-- Node2&#45;&gt;Node10 -->
<g id="edge9_Node000002_Node000010" class="edge">
<title>Node2&#45;&gt;Node10</title>
<g id="a_edge9_Node000002_Node000010"><a xlink:title=" ">
<path fill="none" stroke="#63b8ff" d="M580.53,-56.34C600.24,-47.77 629.11,-35.23 651.35,-25.56"/>
<polygon fill="#63b8ff" stroke="#63b8ff" points="652.5,-28.88 660.28,-21.68 649.71,-22.46 652.5,-28.88"/>
</a>
</g>
</g>
</g>
</svg>
