<?xml version="1.0" encoding="UTF-8" standalone="no"?>
<!DOCTYPE svg PUBLIC "-//W3C//DTD SVG 1.1//EN"
 "http://www.w3.org/Graphics/SVG/1.1/DTD/svg11.dtd">
<!-- Generated by graphviz version 12.2.1 (0)
 -->
<!-- Title: build/include/llzk/Dialect Pages: 1 -->
<svg width="954pt" height="131pt"
 viewBox="0.00 0.00 954.00 131.38" xmlns="http://www.w3.org/2000/svg" xmlns:xlink="http://www.w3.org/1999/xlink">
<g id="graph0" class="graph" transform="scale(1 1) rotate(0) translate(4 127.38)">
<title>build/include/llzk/Dialect</title>
<g id="clust1" class="cluster">
<title>clusterdir_6c0d0ddf22739aa3410ca194a6ed8d73</title>
<g id="a_clust1"><a xlink:href="dir_6c0d0ddf22739aa3410ca194a6ed8d73.html" target="_top" xlink:title="llzk">
<polygon fill="#edf0f7" stroke="#7f7f7f" stroke-dasharray="5,2" points="8,-41.88 8,-115.38 938,-115.38 938,-41.88 8,-41.88"/>
<text text-anchor="middle" x="473" y="-101.88" font-family="Helvetica,sans-Serif" font-size="10.00">llzk</text>
</a>
</g>
</g>
<g id="clust2" class="cluster">
<title>clusterdir_c58a88d8069372690b48eabd02275d52</title>
<g id="a_clust2"><a xlink:href="dir_c58a88d8069372690b48eabd02275d52.html" target="_top">
<polygon fill="#edf0f7" stroke="#404040" stroke-width="2" points="16,-49.88 16,-86.63 930,-86.63 930,-49.88 16,-49.88"/>
</a>
</g>
</g>
<!-- dir_c58a88d8069372690b48eabd02275d52 -->
<g id="node1" class="node">
<title>dir_c58a88d8069372690b48eabd02275d52</title>
<text text-anchor="middle" x="49" y="-65.13" font-family="Helvetica,sans-Serif" font-size="10.00">Dialect</text>
</g>
<!-- dir_7e2804bcc10ad74e4cdf72f15229a980 -->
<g id="node2" class="node">
<title>dir_7e2804bcc10ad74e4cdf72f15229a980</title>
<g id="a_node2"><a xlink:href="dir_7e2804bcc10ad74e4cdf72f15229a980.html" target="_top" xlink:title="Array">
<polygon fill="#a2b4d6" stroke="#404040" points="134.12,-78.63 91.88,-78.63 91.88,-57.88 134.12,-57.88 134.12,-78.63"/>
<text text-anchor="middle" x="113" y="-65.13" font-family="Helvetica,sans-Serif" font-size="10.00">Array</text>
</a>
</g>
</g>
<!-- dir_d44c64559bbebec7f509842c48db8b23 -->
<g id="node15" class="node">
<title>dir_d44c64559bbebec7f509842c48db8b23</title>
<g id="a_node15"><a xlink:href="dir_d44c64559bbebec7f509842c48db8b23.html" target="_top" xlink:title="include">
<polygon fill="#edf0f7" stroke="red" points="520.62,-21.88 469.38,-21.88 469.38,-1.13 520.62,-1.13 520.62,-21.88"/>
<text text-anchor="middle" x="495" y="-8.38" font-family="Helvetica,sans-Serif" font-size="10.00">include</text>
</a>
</g>
</g>
<!-- dir_7e2804bcc10ad74e4cdf72f15229a980&#45;&gt;dir_d44c64559bbebec7f509842c48db8b23 -->
<g id="edge1" class="edge">
<title>dir_7e2804bcc10ad74e4cdf72f15229a980&#45;&gt;dir_d44c64559bbebec7f509842c48db8b23</title>
<g id="a_edge1"><a xlink:href="dir_000003_000040.html" target="_top">
<path fill="none" stroke="#63b8ff" d="M121.44,-57.58C126.96,-51.96 134.68,-45.32 143,-41.88 199.11,-18.64 379.13,-13.77 457.72,-12.76"/>
<polygon fill="#63b8ff" stroke="#63b8ff" points="457.51,-16.26 467.47,-12.65 457.43,-9.27 457.51,-16.26"/>
</a>
</g>
<g id="a_edge1&#45;headlabel"><a xlink:href="dir_000003_000040.html" target="_top" xlink:title="2">
<text text-anchor="middle" x="455.46" y="-16" font-family="Helvetica,sans-Serif" font-size="10.00" fill="#63b8ff">2</text>
</a>
</g>
</g>
<!-- dir_f6927357d7d44edfb0d5107d0237e395 -->
<g id="node3" class="node">
<title>dir_f6927357d7d44edfb0d5107d0237e395</title>
<g id="a_node3"><a xlink:href="dir_f6927357d7d44edfb0d5107d0237e395.html" target="_top" xlink:title="Bool">
<polygon fill="#a2b4d6" stroke="#404040" points="189.88,-78.63 152.12,-78.63 152.12,-57.88 189.88,-57.88 189.88,-78.63"/>
<text text-anchor="middle" x="171" y="-65.13" font-family="Helvetica,sans-Serif" font-size="10.00">Bool</text>
</a>
</g>
</g>
<!-- dir_f6927357d7d44edfb0d5107d0237e395&#45;&gt;dir_d44c64559bbebec7f509842c48db8b23 -->
<g id="edge2" class="edge">
<title>dir_f6927357d7d44edfb0d5107d0237e395&#45;&gt;dir_d44c64559bbebec7f509842c48db8b23</title>
<g id="a_edge2"><a xlink:href="dir_000007_000040.html" target="_top">
<path fill="none" stroke="#63b8ff" d="M178.77,-57.63C183.89,-52.02 191.08,-45.39 199,-41.88 244.51,-21.68 389.42,-15.24 458.15,-13.29"/>
<polygon fill="#63b8ff" stroke="#63b8ff" points="457.87,-16.8 467.77,-13.04 457.68,-9.81 457.87,-16.8"/>
</a>
</g>
<g id="a_edge2&#45;headlabel"><a xlink:href="dir_000007_000040.html" target="_top" xlink:title="3">
<text text-anchor="middle" x="455.86" y="-16.57" font-family="Helvetica,sans-Serif" font-size="10.00" fill="#63b8ff">3</text>
</a>
</g>
</g>
<!-- dir_6784d54b0dc26f7d225767aaf216e83c -->
<g id="node4" class="node">
<title>dir_6784d54b0dc26f7d225767aaf216e83c</title>
<g id="a_node4"><a xlink:href="dir_6784d54b0dc26f7d225767aaf216e83c.html" target="_top" xlink:title="Cast">
<polygon fill="#a2b4d6" stroke="#404040" points="245.88,-78.63 208.12,-78.63 208.12,-57.88 245.88,-57.88 245.88,-78.63"/>
<text text-anchor="middle" x="227" y="-65.13" font-family="Helvetica,sans-Serif" font-size="10.00">Cast</text>
</a>
</g>
</g>
<!-- dir_6784d54b0dc26f7d225767aaf216e83c&#45;&gt;dir_d44c64559bbebec7f509842c48db8b23 -->
<g id="edge3" class="edge">
<title>dir_6784d54b0dc26f7d225767aaf216e83c&#45;&gt;dir_d44c64559bbebec7f509842c48db8b23</title>
<g id="a_edge3"><a xlink:href="dir_000013_000040.html" target="_top">
<path fill="none" stroke="#63b8ff" d="M235.04,-57.44C240.15,-51.91 247.24,-45.42 255,-41.88 290.27,-25.74 399.65,-17.6 457.79,-14.31"/>
<polygon fill="#63b8ff" stroke="#63b8ff" points="457.73,-17.82 467.52,-13.78 457.35,-10.83 457.73,-17.82"/>
</a>
</g>
<g id="a_edge3&#45;headlabel"><a xlink:href="dir_000013_000040.html" target="_top" xlink:title="1">
<text text-anchor="middle" x="455.8" y="-17.64" font-family="Helvetica,sans-Serif" font-size="10.00" fill="#63b8ff">1</text>
</a>
</g>
</g>
<!-- dir_2fb0deeec98c66c2321c89d296cf4044 -->
<g id="node5" class="node">
<title>dir_2fb0deeec98c66c2321c89d296cf4044</title>
<g id="a_node5"><a xlink:href="dir_2fb0deeec98c66c2321c89d296cf4044.html" target="_top" xlink:title="Constrain">
<polygon fill="#a2b4d6" stroke="#404040" points="326.25,-78.63 263.75,-78.63 263.75,-57.88 326.25,-57.88 326.25,-78.63"/>
<text text-anchor="middle" x="295" y="-65.13" font-family="Helvetica,sans-Serif" font-size="10.00">Constrain</text>
</a>
</g>
</g>
<!-- dir_2fb0deeec98c66c2321c89d296cf4044&#45;&gt;dir_d44c64559bbebec7f509842c48db8b23 -->
<g id="edge4" class="edge">
<title>dir_2fb0deeec98c66c2321c89d296cf4044&#45;&gt;dir_d44c64559bbebec7f509842c48db8b23</title>
<g id="a_edge4"><a xlink:href="dir_000017_000040.html" target="_top">
<path fill="none" stroke="#63b8ff" d="M307.65,-57.44C315.2,-52.06 325.2,-45.72 335,-41.88 375.16,-26.14 424.36,-18.72 457.51,-15.3"/>
<polygon fill="#63b8ff" stroke="#63b8ff" points="457.82,-18.79 467.44,-14.36 457.16,-11.82 457.82,-18.79"/>
</a>
</g>
<g id="a_edge4&#45;headlabel"><a xlink:href="dir_000017_000040.html" target="_top" xlink:title="1">
<text text-anchor="middle" x="456.02" y="-18.69" font-family="Helvetica,sans-Serif" font-size="10.00" fill="#63b8ff">1</text>
</a>
</g>
</g>
<!-- dir_f525f3dba9a7ae1591a7aca7556eba45 -->
<g id="node6" class="node">
<title>dir_f525f3dba9a7ae1591a7aca7556eba45</title>
<g id="a_node6"><a xlink:href="dir_f525f3dba9a7ae1591a7aca7556eba45.html" target="_top" xlink:title="Felt">
<polygon fill="#a2b4d6" stroke="#404040" points="378,-78.63 344,-78.63 344,-57.88 378,-57.88 378,-78.63"/>
<text text-anchor="middle" x="361" y="-65.13" font-family="Helvetica,sans-Serif" font-size="10.00">Felt</text>
</a>
</g>
</g>
<!-- dir_f525f3dba9a7ae1591a7aca7556eba45&#45;&gt;dir_d44c64559bbebec7f509842c48db8b23 -->
<g id="edge5" class="edge">
<title>dir_f525f3dba9a7ae1591a7aca7556eba45&#45;&gt;dir_d44c64559bbebec7f509842c48db8b23</title>
<g id="a_edge5"><a xlink:href="dir_000027_000040.html" target="_top">
<path fill="none" stroke="#63b8ff" d="M368.74,-57.57C373.49,-52.23 379.99,-45.88 387,-41.88 408.88,-29.37 436.31,-21.99 458.05,-17.76"/>
<polygon fill="#63b8ff" stroke="#63b8ff" points="458.44,-21.25 467.66,-16.04 457.2,-14.36 458.44,-21.25"/>
</a>
</g>
<g id="a_edge5&#45;headlabel"><a xlink:href="dir_000027_000040.html" target="_top" xlink:title="3">
<text text-anchor="middle" x="456.89" y="-21.28" font-family="Helvetica,sans-Serif" font-size="10.00" fill="#63b8ff">3</text>
</a>
</g>
</g>
<!-- dir_efa1308536135b3baa6e905f7a83b3e7 -->
<g id="node7" class="node">
<title>dir_efa1308536135b3baa6e905f7a83b3e7</title>
<g id="a_node7"><a xlink:href="dir_efa1308536135b3baa6e905f7a83b3e7.html" target="_top" xlink:title="Function">
<polygon fill="#a2b4d6" stroke="#404040" points="453.62,-78.63 396.38,-78.63 396.38,-57.88 453.62,-57.88 453.62,-78.63"/>
<text text-anchor="middle" x="425" y="-65.13" font-family="Helvetica,sans-Serif" font-size="10.00">Function</text>
</a>
</g>
</g>
<!-- dir_efa1308536135b3baa6e905f7a83b3e7&#45;&gt;dir_d44c64559bbebec7f509842c48db8b23 -->
<g id="edge6" class="edge">
<title>dir_efa1308536135b3baa6e905f7a83b3e7&#45;&gt;dir_d44c64559bbebec7f509842c48db8b23</title>
<g id="a_edge6"><a xlink:href="dir_000030_000040.html" target="_top">
<path fill="none" stroke="#63b8ff" d="M437.51,-57.46C447.57,-49.6 461.91,-38.38 473.76,-29.11"/>
<polygon fill="#63b8ff" stroke="#63b8ff" points="475.68,-32.05 481.4,-23.14 471.37,-26.54 475.68,-32.05"/>
</a>
</g>
<g id="a_edge6&#45;headlabel"><a xlink:href="dir_000030_000040.html" target="_top" xlink:title="2">
<text text-anchor="middle" x="475.79" y="-32.45" font-family="Helvetica,sans-Serif" font-size="10.00" fill="#63b8ff">2</text>
</a>
</g>
</g>
<!-- dir_1e5b4eebdaf2bb2c3355e29510ce7a58 -->
<g id="node8" class="node">
<title>dir_1e5b4eebdaf2bb2c3355e29510ce7a58</title>
<g id="a_node8"><a xlink:href="dir_1e5b4eebdaf2bb2c3355e29510ce7a58.html" target="_top" xlink:title="Global">
<polygon fill="#a2b4d6" stroke="#404040" points="518.75,-78.63 471.25,-78.63 471.25,-57.88 518.75,-57.88 518.75,-78.63"/>
<text text-anchor="middle" x="495" y="-65.13" font-family="Helvetica,sans-Serif" font-size="10.00">Global</text>
</a>
</g>
</g>
<!-- dir_1e5b4eebdaf2bb2c3355e29510ce7a58&#45;&gt;dir_d44c64559bbebec7f509842c48db8b23 -->
<g id="edge7" class="edge">
<title>dir_1e5b4eebdaf2bb2c3355e29510ce7a58&#45;&gt;dir_d44c64559bbebec7f509842c48db8b23</title>
<g id="a_edge7"><a xlink:href="dir_000033_000040.html" target="_top">
<path fill="none" stroke="#63b8ff" d="M495,-57.46C495,-50.84 495,-41.85 495,-33.64"/>
<polygon fill="#63b8ff" stroke="#63b8ff" points="498.5,-33.72 495,-23.72 491.5,-33.72 498.5,-33.72"/>
</a>
</g>
<g id="a_edge7&#45;headlabel"><a xlink:href="dir_000033_000040.html" target="_top" xlink:title="1">
<text text-anchor="middle" x="501.34" y="-32.67" font-family="Helvetica,sans-Serif" font-size="10.00" fill="#63b8ff">1</text>
</a>
</g>
</g>
<!-- dir_7ffa7d2298bc408bd49e79287d86cc12 -->
<g id="node9" class="node">
<title>dir_7ffa7d2298bc408bd49e79287d86cc12</title>
<g id="a_node9"><a xlink:href="dir_7ffa7d2298bc408bd49e79287d86cc12.html" target="_top" xlink:title="Include">
<polygon fill="#a2b4d6" stroke="#404040" points="587.62,-78.63 536.38,-78.63 536.38,-57.88 587.62,-57.88 587.62,-78.63"/>
<text text-anchor="middle" x="562" y="-65.13" font-family="Helvetica,sans-Serif" font-size="10.00">Include</text>
</a>
</g>
</g>
<!-- dir_7ffa7d2298bc408bd49e79287d86cc12&#45;&gt;dir_d44c64559bbebec7f509842c48db8b23 -->
<g id="edge8" class="edge">
<title>dir_7ffa7d2298bc408bd49e79287d86cc12&#45;&gt;dir_d44c64559bbebec7f509842c48db8b23</title>
<g id="a_edge8"><a xlink:href="dir_000036_000040.html" target="_top">
<path fill="none" stroke="#63b8ff" d="M550.02,-57.46C540.49,-49.68 526.94,-38.6 515.67,-29.39"/>
<polygon fill="#63b8ff" stroke="#63b8ff" points="518,-26.78 508.05,-23.16 513.58,-32.2 518,-26.78"/>
</a>
</g>
<g id="a_edge8&#45;headlabel"><a xlink:href="dir_000036_000040.html" target="_top" xlink:title="1">
<text text-anchor="middle" x="521.41" y="-22.77" font-family="Helvetica,sans-Serif" font-size="10.00" fill="#63b8ff">1</text>
</a>
</g>
</g>
<!-- dir_ab47e255c3567e409be62448ab8ecc9f -->
<g id="node10" class="node">
<title>dir_ab47e255c3567e409be62448ab8ecc9f</title>
<g id="a_node10"><a xlink:href="dir_ab47e255c3567e409be62448ab8ecc9f.html" target="_top" xlink:title="LLZK">
<polygon fill="#a2b4d6" stroke="#404040" points="646,-78.63 606,-78.63 606,-57.88 646,-57.88 646,-78.63"/>
<text text-anchor="middle" x="626" y="-65.13" font-family="Helvetica,sans-Serif" font-size="10.00">LLZK</text>
</a>
</g>
</g>
<!-- dir_ab47e255c3567e409be62448ab8ecc9f&#45;&gt;dir_d44c64559bbebec7f509842c48db8b23 -->
<g id="edge9" class="edge">
<title>dir_ab47e255c3567e409be62448ab8ecc9f&#45;&gt;dir_d44c64559bbebec7f509842c48db8b23</title>
<g id="a_edge9"><a xlink:href="dir_000082_000040.html" target="_top">
<path fill="none" stroke="#63b8ff" d="M616.88,-57.39C611.54,-52.12 604.4,-45.91 597,-41.88 576.85,-30.88 552.16,-23.63 532.12,-19.08"/>
<polygon fill="#63b8ff" stroke="#63b8ff" points="532.92,-15.67 522.41,-17.03 531.47,-22.52 532.92,-15.67"/>
</a>
</g>
<g id="a_edge9&#45;headlabel"><a xlink:href="dir_000082_000040.html" target="_top" xlink:title="2">
<text text-anchor="middle" x="535.54" y="-10.2" font-family="Helvetica,sans-Serif" font-size="10.00" fill="#63b8ff">2</text>
</a>
</g>
</g>
<!-- dir_a4ecb6207c3d43e1ad8263ab0f1e1e92 -->
<g id="node11" class="node">
<title>dir_a4ecb6207c3d43e1ad8263ab0f1e1e92</title>
<g id="a_node11"><a xlink:href="dir_a4ecb6207c3d43e1ad8263ab0f1e1e92.html" target="_top" xlink:title="POD">
<polygon fill="#a2b4d6" stroke="#404040" points="701.5,-78.63 664.5,-78.63 664.5,-57.88 701.5,-57.88 701.5,-78.63"/>
<text text-anchor="middle" x="683" y="-65.13" font-family="Helvetica,sans-Serif" font-size="10.00">POD</text>
</a>
</g>
</g>
<!-- dir_a4ecb6207c3d43e1ad8263ab0f1e1e92&#45;&gt;dir_d44c64559bbebec7f509842c48db8b23 -->
<g id="edge10" class="edge">
<title>dir_a4ecb6207c3d43e1ad8263ab0f1e1e92&#45;&gt;dir_d44c64559bbebec7f509842c48db8b23</title>
<g id="a_edge10"><a xlink:href="dir_000092_000040.html" target="_top">
<path fill="none" stroke="#63b8ff" d="M675.12,-57.86C669.97,-52.34 662.76,-45.71 655,-41.88 615.93,-22.57 565.83,-15.87 532.19,-13.59"/>
<polygon fill="#63b8ff" stroke="#63b8ff" points="532.72,-10.11 522.53,-13.04 532.32,-17.1 532.72,-10.11"/>
</a>
</g>
<g id="a_edge10&#45;headlabel"><a xlink:href="dir_000092_000040.html" target="_top" xlink:title="3">
<text text-anchor="middle" x="534.95" y="-4.27" font-family="Helvetica,sans-Serif" font-size="10.00" fill="#63b8ff">3</text>
</a>
</g>
</g>
<!-- dir_d33650c8adf61c13b39878fa74c71151 -->
<g id="node12" class="node">
<title>dir_d33650c8adf61c13b39878fa74c71151</title>
<g id="a_node12"><a xlink:href="dir_d33650c8adf61c13b39878fa74c71151.html" target="_top" xlink:title="Polymorphic">
<polygon fill="#a2b4d6" stroke="#404040" points="796.38,-78.63 719.62,-78.63 719.62,-57.88 796.38,-57.88 796.38,-78.63"/>
<text text-anchor="middle" x="758" y="-65.13" font-family="Helvetica,sans-Serif" font-size="10.00">Polymorphic</text>
</a>
</g>
</g>
<!-- dir_d33650c8adf61c13b39878fa74c71151&#45;&gt;dir_d44c64559bbebec7f509842c48db8b23 -->
<g id="edge11" class="edge">
<title>dir_d33650c8adf61c13b39878fa74c71151&#45;&gt;dir_d44c64559bbebec7f509842c48db8b23</title>
<g id="a_edge11"><a xlink:href="dir_000095_000040.html" target="_top">
<path fill="none" stroke="#63b8ff" d="M743.38,-57.58C734.4,-52.1 722.46,-45.61 711,-41.88 650.35,-22.11 575.93,-15.64 532.17,-13.52"/>
<polygon fill="#63b8ff" stroke="#63b8ff" points="532.59,-10.04 522.45,-13.11 532.29,-17.03 532.59,-10.04"/>
</a>
</g>
<g id="a_edge11&#45;headlabel"><a xlink:href="dir_000095_000040.html" target="_top" xlink:title="2">
<text text-anchor="middle" x="534.79" y="-4.16" font-family="Helvetica,sans-Serif" font-size="10.00" fill="#63b8ff">2</text>
</a>
</g>
</g>
<!-- dir_2e22e9dcb40222794ec2520e848db258 -->
<g id="node13" class="node">
<title>dir_2e22e9dcb40222794ec2520e848db258</title>
<g id="a_node13"><a xlink:href="dir_2e22e9dcb40222794ec2520e848db258.html" target="_top" xlink:title="String">
<polygon fill="#a2b4d6" stroke="#404040" points="859.25,-78.63 814.75,-78.63 814.75,-57.88 859.25,-57.88 859.25,-78.63"/>
<text text-anchor="middle" x="837" y="-65.13" font-family="Helvetica,sans-Serif" font-size="10.00">String</text>
</a>
</g>
</g>
<!-- dir_2e22e9dcb40222794ec2520e848db258&#45;&gt;dir_d44c64559bbebec7f509842c48db8b23 -->
<g id="edge12" class="edge">
<title>dir_2e22e9dcb40222794ec2520e848db258&#45;&gt;dir_d44c64559bbebec7f509842c48db8b23</title>
<g id="a_edge12"><a xlink:href="dir_000101_000040.html" target="_top">
<path fill="none" stroke="#63b8ff" d="M827.86,-57.62C821.92,-52.01 813.68,-45.37 805,-41.88 756.3,-22.29 603.11,-15.51 531.97,-13.38"/>
<polygon fill="#63b8ff" stroke="#63b8ff" points="532.49,-9.9 522.4,-13.11 532.3,-16.9 532.49,-9.9"/>
</a>
</g>
<g id="a_edge12&#45;headlabel"><a xlink:href="dir_000101_000040.html" target="_top" xlink:title="2">
<text text-anchor="middle" x="534.66" y="-3.99" font-family="Helvetica,sans-Serif" font-size="10.00" fill="#63b8ff">2</text>
</a>
</g>
</g>
<!-- dir_bf1c9d5f0a4fbcc96c8bd057e52371fc -->
<g id="node14" class="node">
<title>dir_bf1c9d5f0a4fbcc96c8bd057e52371fc</title>
<g id="a_node14"><a xlink:href="dir_bf1c9d5f0a4fbcc96c8bd057e52371fc.html" target="_top" xlink:title="Struct">
<polygon fill="#a2b4d6" stroke="#404040" points="922.25,-78.63 877.75,-78.63 877.75,-57.88 922.25,-57.88 922.25,-78.63"/>
<text text-anchor="middle" x="900" y="-65.13" font-family="Helvetica,sans-Serif" font-size="10.00">Struct</text>
</a>
</g>
</g>
<!-- dir_bf1c9d5f0a4fbcc96c8bd057e52371fc&#45;&gt;dir_d44c64559bbebec7f509842c48db8b23 -->
<g id="edge13" class="edge">
<title>dir_bf1c9d5f0a4fbcc96c8bd057e52371fc&#45;&gt;dir_d44c64559bbebec7f509842c48db8b23</title>
<g id="a_edge13"><a xlink:href="dir_000104_000040.html" target="_top">
<path fill="none" stroke="#63b8ff" d="M890.88,-57.57C884.95,-51.94 876.71,-45.3 868,-41.88 807.63,-18.15 614.45,-13.56 532.41,-12.69"/>
<polygon fill="#63b8ff" stroke="#63b8ff" points="532.46,-9.2 522.43,-12.6 532.4,-16.2 532.46,-9.2"/>
</a>
</g>
<g id="a_edge13&#45;headlabel"><a xlink:href="dir_000104_000040.html" target="_top" xlink:title="2">
<text text-anchor="middle" x="534.57" y="-3.25" font-family="Helvetica,sans-Serif" font-size="10.00" fill="#63b8ff">2</text>
</a>
</g>
</g>
</g>
</svg>
