<?xml version="1.0" encoding="UTF-8" standalone="no"?>
<!DOCTYPE svg PUBLIC "-//W3C//DTD SVG 1.1//EN"
 "http://www.w3.org/Graphics/SVG/1.1/DTD/svg11.dtd">
<!-- Generated by graphviz version 12.2.1 (0)
 -->
<!-- Title: include/llzk/Dialect Pages: 1 -->
<svg width="703pt" height="430pt"
 viewBox="0.00 0.00 703.02 430.00" xmlns="http://www.w3.org/2000/svg" xmlns:xlink="http://www.w3.org/1999/xlink">
<g id="graph0" class="graph" transform="scale(1 1) rotate(0) translate(4 426)">
<title>include/llzk/Dialect</title>
<g id="clust1" class="cluster">
<title>clusterdir_5804947f485dbfa35f1b2a5b6cdecd1f</title>
<g id="a_clust1"><a xlink:href="dir_5804947f485dbfa35f1b2a5b6cdecd1f.html" target="_top" xlink:title="llzk">
<polygon fill="#edf0f7" stroke="#7f7f7f" stroke-dasharray="5,2" points="8,-8 8,-414 409,-414 409,-8 8,-8"/>
<text text-anchor="middle" x="208.5" y="-400.5" font-family="Helvetica,sans-Serif" font-size="10.00">llzk</text>
</a>
</g>
</g>
<g id="clust2" class="cluster">
<title>clusterdir_961f7ef292a3987e3723514feaf3f181</title>
<g id="a_clust2"><a xlink:href="dir_961f7ef292a3987e3723514feaf3f181.html" target="_top">
<polygon fill="#edf0f7" stroke="#404040" stroke-width="2" points="16,-64.75 16,-385.25 355,-385.25 355,-64.75 16,-64.75"/>
</a>
</g>
</g>
<!-- dir_7093d9bec9e6df023c20339d9b6c0d59 -->
<g id="node1" class="node">
<title>dir_7093d9bec9e6df023c20339d9b6c0d59</title>
<g id="a_node1"><a xlink:href="dir_7093d9bec9e6df023c20339d9b6c0d59.html" target="_top" xlink:title="Util">
<polygon fill="#a2b4d6" stroke="#404040" points="121.62,-36.75 88.38,-36.75 88.38,-16 121.62,-16 121.62,-36.75"/>
<text text-anchor="middle" x="105" y="-23.25" font-family="Helvetica,sans-Serif" font-size="10.00">Util</text>
</a>
</g>
</g>
<!-- dir_459833b041acece43aa610615f5ca5a8 -->
<g id="node2" class="node">
<title>dir_459833b041acece43aa610615f5ca5a8</title>
<g id="a_node2"><a xlink:href="dir_459833b041acece43aa610615f5ca5a8.html" target="_top" xlink:title="Pass">
<polygon fill="#a2b4d6" stroke="#404040" points="400.88,-263.75 363.12,-263.75 363.12,-243 400.88,-243 400.88,-263.75"/>
<text text-anchor="middle" x="382" y="-250.25" font-family="Helvetica,sans-Serif" font-size="10.00">Pass</text>
</a>
</g>
</g>
<!-- dir_961f7ef292a3987e3723514feaf3f181 -->
<g id="node3" class="node">
<title>dir_961f7ef292a3987e3723514feaf3f181</title>
<text text-anchor="middle" x="49" y="-363.75" font-family="Helvetica,sans-Serif" font-size="10.00">Dialect</text>
</g>
<!-- dir_b57964f09af826cfffee4b0782785e82 -->
<g id="node4" class="node">
<title>dir_b57964f09af826cfffee4b0782785e82</title>
<g id="a_node4"><a xlink:href="dir_b57964f09af826cfffee4b0782785e82.html" target="_top" xlink:title="Array">
<polygon fill="#a2b4d6" stroke="#404040" points="66.12,-320.5 23.88,-320.5 23.88,-299.75 66.12,-299.75 66.12,-320.5"/>
<text text-anchor="middle" x="45" y="-307" font-family="Helvetica,sans-Serif" font-size="10.00">Array</text>
</a>
</g>
</g>
<!-- dir_b57964f09af826cfffee4b0782785e82&#45;&gt;dir_7093d9bec9e6df023c20339d9b6c0d59 -->
<g id="edge3" class="edge">
<title>dir_b57964f09af826cfffee4b0782785e82&#45;&gt;dir_7093d9bec9e6df023c20339d9b6c0d59</title>
<g id="a_edge3"><a xlink:href="dir_000004_000125.html" target="_top">
<path fill="none" stroke="#63b8ff" d="M45,-299.28C45,-279.85 45,-235.18 45,-197.62 45,-197.62 45,-197.62 45,-138.88 45,-104.38 50.25,-94.32 68,-64.75 72.36,-57.49 78.41,-50.59 84.36,-44.73"/>
<polygon fill="#63b8ff" stroke="#63b8ff" points="86.68,-47.36 91.68,-38.01 81.95,-42.2 86.68,-47.36"/>
</a>
</g>
<g id="a_edge3&#45;headlabel"><a xlink:href="dir_000004_000125.html" target="_top" xlink:title="2">
<text text-anchor="middle" x="87.07" y="-47.73" font-family="Helvetica,sans-Serif" font-size="10.00" fill="#63b8ff">2</text>
</a>
</g>
</g>
<!-- dir_b57964f09af826cfffee4b0782785e82&#45;&gt;dir_459833b041acece43aa610615f5ca5a8 -->
<g id="edge4" class="edge">
<title>dir_b57964f09af826cfffee4b0782785e82&#45;&gt;dir_459833b041acece43aa610615f5ca5a8</title>
<g id="a_edge4"><a xlink:href="dir_000004_000091.html" target="_top">
<path fill="none" stroke="#63b8ff" d="M66.3,-304.98C75.43,-303.27 86.22,-301.32 96,-299.75 208.74,-281.68 242.85,-293.44 351.67,-265.53"/>
<polygon fill="#63b8ff" stroke="#63b8ff" points="352.55,-268.92 361.33,-263 350.77,-262.15 352.55,-268.92"/>
</a>
</g>
<g id="a_edge4&#45;headlabel"><a xlink:href="dir_000004_000091.html" target="_top" xlink:title="1">
<text text-anchor="middle" x="351.26" y="-269.07" font-family="Helvetica,sans-Serif" font-size="10.00" fill="#63b8ff">1</text>
</a>
</g>
</g>
<!-- dir_ab86c770cc1b90d5a9908a326f6abfa8 -->
<g id="node12" class="node">
<title>dir_ab86c770cc1b90d5a9908a326f6abfa8</title>
<g id="a_node12"><a xlink:href="dir_ab86c770cc1b90d5a9908a326f6abfa8.html" target="_top" xlink:title="LLZK">
<polygon fill="#a2b4d6" stroke="#404040" points="185,-93.5 145,-93.5 145,-72.75 185,-72.75 185,-93.5"/>
<text text-anchor="middle" x="165" y="-80" font-family="Helvetica,sans-Serif" font-size="10.00">LLZK</text>
</a>
</g>
</g>
<!-- dir_b57964f09af826cfffee4b0782785e82&#45;&gt;dir_ab86c770cc1b90d5a9908a326f6abfa8 -->
<g id="edge5" class="edge">
<title>dir_b57964f09af826cfffee4b0782785e82&#45;&gt;dir_ab86c770cc1b90d5a9908a326f6abfa8</title>
<g id="a_edge5"><a xlink:href="dir_000004_000083.html" target="_top">
<path fill="none" stroke="#63b8ff" d="M48.21,-299.44C53.02,-285.88 63.04,-260.9 77,-243 92.33,-223.34 107.35,-228.47 120,-207 137.81,-176.77 121.74,-161.98 135,-129.5 138.77,-120.26 144.54,-110.92 150.02,-103.13"/>
<polygon fill="#63b8ff" stroke="#63b8ff" points="152.8,-105.26 155.95,-95.14 147.18,-101.08 152.8,-105.26"/>
</a>
</g>
<g id="a_edge5&#45;headlabel"><a xlink:href="dir_000004_000083.html" target="_top" xlink:title="1">
<text text-anchor="middle" x="153.84" y="-105.49" font-family="Helvetica,sans-Serif" font-size="10.00" fill="#63b8ff">1</text>
</a>
</g>
</g>
<!-- dir_b9e6121c35254505209e91f4816784f6 -->
<g id="node15" class="node">
<title>dir_b9e6121c35254505209e91f4816784f6</title>
<g id="a_node15"><a xlink:href="dir_b9e6121c35254505209e91f4816784f6.html" target="_top" xlink:title="Shared">
<polygon fill="#a2b4d6" stroke="#404040" points="135.88,-263.75 86.12,-263.75 86.12,-243 135.88,-243 135.88,-263.75"/>
<text text-anchor="middle" x="111" y="-250.25" font-family="Helvetica,sans-Serif" font-size="10.00">Shared</text>
</a>
</g>
</g>
<!-- dir_b57964f09af826cfffee4b0782785e82&#45;&gt;dir_b9e6121c35254505209e91f4816784f6 -->
<g id="edge2" class="edge">
<title>dir_b57964f09af826cfffee4b0782785e82&#45;&gt;dir_b9e6121c35254505209e91f4816784f6</title>
<g id="a_edge2"><a xlink:href="dir_000004_000099.html" target="_top">
<path fill="none" stroke="#63b8ff" d="M56.8,-299.34C66.18,-291.55 79.54,-280.47 90.64,-271.26"/>
<polygon fill="#63b8ff" stroke="#63b8ff" points="92.68,-274.12 98.14,-265.04 88.21,-268.74 92.68,-274.12"/>
</a>
</g>
<g id="a_edge2&#45;headlabel"><a xlink:href="dir_000004_000099.html" target="_top" xlink:title="1">
<text text-anchor="middle" x="92.89" y="-274.51" font-family="Helvetica,sans-Serif" font-size="10.00" fill="#63b8ff">1</text>
</a>
</g>
</g>
<!-- dir_4fef79e7177ba769987a8da36c892c5f -->
<g id="node18" class="node">
<title>dir_4fef79e7177ba769987a8da36c892c5f</title>
<g id="a_node18"><a xlink:href="dir_4fef79e7177ba769987a8da36c892c5f.html" target="_top" xlink:title="build">
<polygon fill="#edf0f7" stroke="red" points="487,-93.5 447,-93.5 447,-72.75 487,-72.75 487,-93.5"/>
<text text-anchor="middle" x="467" y="-80" font-family="Helvetica,sans-Serif" font-size="10.00">build</text>
</a>
</g>
</g>
<!-- dir_b57964f09af826cfffee4b0782785e82&#45;&gt;dir_4fef79e7177ba769987a8da36c892c5f -->
<g id="edge1" class="edge">
<title>dir_b57964f09af826cfffee4b0782785e82&#45;&gt;dir_4fef79e7177ba769987a8da36c892c5f</title>
<g id="a_edge1"><a xlink:href="dir_000004_000010.html" target="_top">
<path fill="none" stroke="#63b8ff" d="M66.29,-304.87C75.41,-303.14 86.2,-301.2 96,-299.75 166.13,-289.33 358.59,-309.2 413,-263.75 460.72,-223.89 467.3,-143.55 467.56,-105.3"/>
<polygon fill="#63b8ff" stroke="#63b8ff" points="471.06,-105.34 467.46,-95.38 464.06,-105.41 471.06,-105.34"/>
</a>
</g>
<g id="a_edge1&#45;headlabel"><a xlink:href="dir_000004_000010.html" target="_top" xlink:title="5">
<text text-anchor="middle" x="473.92" y="-104.27" font-family="Helvetica,sans-Serif" font-size="10.00" fill="#63b8ff">5</text>
</a>
</g>
</g>
<!-- dir_453eac0fb7f5516c1dbeff549366479a -->
<g id="node5" class="node">
<title>dir_453eac0fb7f5516c1dbeff549366479a</title>
<g id="a_node5"><a xlink:href="dir_453eac0fb7f5516c1dbeff549366479a.html" target="_top" xlink:title="Bool">
<polygon fill="#a2b4d6" stroke="#404040" points="252.88,-320.5 215.12,-320.5 215.12,-299.75 252.88,-299.75 252.88,-320.5"/>
<text text-anchor="middle" x="234" y="-307" font-family="Helvetica,sans-Serif" font-size="10.00">Bool</text>
</a>
</g>
</g>
<!-- dir_2148bc142ca0808e18c26f0611e99d79 -->
<g id="node8" class="node">
<title>dir_2148bc142ca0808e18c26f0611e99d79</title>
<g id="a_node8"><a xlink:href="dir_2148bc142ca0808e18c26f0611e99d79.html" target="_top" xlink:title="Felt">
<polygon fill="#a2b4d6" stroke="#404040" points="228,-263.75 194,-263.75 194,-243 228,-243 228,-263.75"/>
<text text-anchor="middle" x="211" y="-250.25" font-family="Helvetica,sans-Serif" font-size="10.00">Felt</text>
</a>
</g>
</g>
<!-- dir_453eac0fb7f5516c1dbeff549366479a&#45;&gt;dir_2148bc142ca0808e18c26f0611e99d79 -->
<g id="edge7" class="edge">
<title>dir_453eac0fb7f5516c1dbeff549366479a&#45;&gt;dir_2148bc142ca0808e18c26f0611e99d79</title>
<g id="a_edge7"><a xlink:href="dir_000008_000028.html" target="_top">
<path fill="none" stroke="#63b8ff" d="M229.89,-299.34C227.01,-292.49 223.06,-283.09 219.52,-274.65"/>
<polygon fill="#63b8ff" stroke="#63b8ff" points="222.76,-273.34 215.66,-265.47 216.31,-276.05 222.76,-273.34"/>
</a>
</g>
<g id="a_edge7&#45;headlabel"><a xlink:href="dir_000008_000028.html" target="_top" xlink:title="1">
<text text-anchor="middle" x="226.19" y="-271.03" font-family="Helvetica,sans-Serif" font-size="10.00" fill="#63b8ff">1</text>
</a>
</g>
</g>
<!-- dir_a2a2a66feccb98b434158531e2b48a1c -->
<g id="node9" class="node">
<title>dir_a2a2a66feccb98b434158531e2b48a1c</title>
<g id="a_node9"><a xlink:href="dir_a2a2a66feccb98b434158531e2b48a1c.html" target="_top" xlink:title="Function">
<polygon fill="#a2b4d6" stroke="#404040" points="221.62,-207 164.38,-207 164.38,-186.25 221.62,-186.25 221.62,-207"/>
<text text-anchor="middle" x="193" y="-193.5" font-family="Helvetica,sans-Serif" font-size="10.00">Function</text>
</a>
</g>
</g>
<!-- dir_453eac0fb7f5516c1dbeff549366479a&#45;&gt;dir_a2a2a66feccb98b434158531e2b48a1c -->
<g id="edge8" class="edge">
<title>dir_453eac0fb7f5516c1dbeff549366479a&#45;&gt;dir_a2a2a66feccb98b434158531e2b48a1c</title>
<g id="a_edge8"><a xlink:href="dir_000008_000031.html" target="_top">
<path fill="none" stroke="#63b8ff" d="M253.03,-301.66C278.75,-290.43 319.61,-267.82 303,-243 287.53,-219.88 257.89,-208.53 233.28,-202.96"/>
<polygon fill="#63b8ff" stroke="#63b8ff" points="234.01,-199.54 223.52,-201.02 232.65,-206.4 234.01,-199.54"/>
</a>
</g>
<g id="a_edge8&#45;headlabel"><a xlink:href="dir_000008_000031.html" target="_top" xlink:title="1">
<text text-anchor="middle" x="236.61" y="-194.03" font-family="Helvetica,sans-Serif" font-size="10.00" fill="#63b8ff">1</text>
</a>
</g>
</g>
<!-- dir_453eac0fb7f5516c1dbeff549366479a&#45;&gt;dir_4fef79e7177ba769987a8da36c892c5f -->
<g id="edge6" class="edge">
<title>dir_453eac0fb7f5516c1dbeff549366479a&#45;&gt;dir_4fef79e7177ba769987a8da36c892c5f</title>
<g id="a_edge6"><a xlink:href="dir_000008_000010.html" target="_top">
<path fill="none" stroke="#63b8ff" d="M253.15,-302.2C256.09,-301.28 259.11,-300.43 262,-299.75 318.14,-286.54 481.16,-307.26 519,-263.75 558.16,-218.73 543.69,-183.82 519,-129.5 513.66,-117.76 503.63,-107.88 493.78,-100.36"/>
<polygon fill="#63b8ff" stroke="#63b8ff" points="496,-97.64 485.8,-94.76 491.98,-103.37 496,-97.64"/>
</a>
</g>
<g id="a_edge6&#45;headlabel"><a xlink:href="dir_000008_000010.html" target="_top" xlink:title="4">
<text text-anchor="middle" x="499.33" y="-93.38" font-family="Helvetica,sans-Serif" font-size="10.00" fill="#63b8ff">4</text>
</a>
</g>
</g>
<!-- dir_21552e93769c0cfe1662f9cbaf5bc6dc -->
<g id="node6" class="node">
<title>dir_21552e93769c0cfe1662f9cbaf5bc6dc</title>
<g id="a_node6"><a xlink:href="dir_21552e93769c0cfe1662f9cbaf5bc6dc.html" target="_top" xlink:title="Cast">
<polygon fill="#a2b4d6" stroke="#404040" points="196.88,-320.5 159.12,-320.5 159.12,-299.75 196.88,-299.75 196.88,-320.5"/>
<text text-anchor="middle" x="178" y="-307" font-family="Helvetica,sans-Serif" font-size="10.00">Cast</text>
</a>
</g>
</g>
<!-- dir_21552e93769c0cfe1662f9cbaf5bc6dc&#45;&gt;dir_2148bc142ca0808e18c26f0611e99d79 -->
<g id="edge10" class="edge">
<title>dir_21552e93769c0cfe1662f9cbaf5bc6dc&#45;&gt;dir_2148bc142ca0808e18c26f0611e99d79</title>
<g id="a_edge10"><a xlink:href="dir_000014_000028.html" target="_top">
<path fill="none" stroke="#63b8ff" d="M183.9,-299.34C188.17,-292.25 194.08,-282.44 199.3,-273.79"/>
<polygon fill="#63b8ff" stroke="#63b8ff" points="202.21,-275.75 204.37,-265.37 196.21,-272.13 202.21,-275.75"/>
</a>
</g>
<g id="a_edge10&#45;headlabel"><a xlink:href="dir_000014_000028.html" target="_top" xlink:title="1">
<text text-anchor="middle" x="203.56" y="-275.87" font-family="Helvetica,sans-Serif" font-size="10.00" fill="#63b8ff">1</text>
</a>
</g>
</g>
<!-- dir_21552e93769c0cfe1662f9cbaf5bc6dc&#45;&gt;dir_a2a2a66feccb98b434158531e2b48a1c -->
<g id="edge11" class="edge">
<title>dir_21552e93769c0cfe1662f9cbaf5bc6dc&#45;&gt;dir_a2a2a66feccb98b434158531e2b48a1c</title>
<g id="a_edge11"><a xlink:href="dir_000014_000031.html" target="_top">
<path fill="none" stroke="#63b8ff" d="M178.79,-299.68C179.92,-286.83 182.16,-263.12 185,-243 186.13,-234.99 187.61,-226.22 189,-218.55"/>
<polygon fill="#63b8ff" stroke="#63b8ff" points="192.42,-219.29 190.81,-208.82 185.54,-218.01 192.42,-219.29"/>
</a>
</g>
<g id="a_edge11&#45;headlabel"><a xlink:href="dir_000014_000031.html" target="_top" xlink:title="1">
<text text-anchor="middle" x="194.83" y="-218.73" font-family="Helvetica,sans-Serif" font-size="10.00" fill="#63b8ff">1</text>
</a>
</g>
</g>
<!-- dir_21552e93769c0cfe1662f9cbaf5bc6dc&#45;&gt;dir_4fef79e7177ba769987a8da36c892c5f -->
<g id="edge9" class="edge">
<title>dir_21552e93769c0cfe1662f9cbaf5bc6dc&#45;&gt;dir_4fef79e7177ba769987a8da36c892c5f</title>
<g id="a_edge9"><a xlink:href="dir_000014_000010.html" target="_top">
<path fill="none" stroke="#63b8ff" d="M197.14,-302.17C200.08,-301.26 203.1,-300.42 206,-299.75 266.06,-285.9 440.35,-310.07 481,-263.75 520.47,-218.78 493.13,-140.72 476.79,-104.13"/>
<polygon fill="#63b8ff" stroke="#63b8ff" points="480.02,-102.76 472.62,-95.17 473.67,-105.72 480.02,-102.76"/>
</a>
</g>
<g id="a_edge9&#45;headlabel"><a xlink:href="dir_000014_000010.html" target="_top" xlink:title="2">
<text text-anchor="middle" x="483.47" y="-100.32" font-family="Helvetica,sans-Serif" font-size="10.00" fill="#63b8ff">2</text>
</a>
</g>
</g>
<!-- dir_f38c3fa6151289ed96db329754eda5d7 -->
<g id="node7" class="node">
<title>dir_f38c3fa6151289ed96db329754eda5d7</title>
<g id="a_node7"><a xlink:href="dir_f38c3fa6151289ed96db329754eda5d7.html" target="_top" xlink:title="Constrain">
<polygon fill="#a2b4d6" stroke="#404040" points="155.25,-377.25 92.75,-377.25 92.75,-356.5 155.25,-356.5 155.25,-377.25"/>
<text text-anchor="middle" x="124" y="-363.75" font-family="Helvetica,sans-Serif" font-size="10.00">Constrain</text>
</a>
</g>
</g>
<!-- dir_f38c3fa6151289ed96db329754eda5d7&#45;&gt;dir_b57964f09af826cfffee4b0782785e82 -->
<g id="edge13" class="edge">
<title>dir_f38c3fa6151289ed96db329754eda5d7&#45;&gt;dir_b57964f09af826cfffee4b0782785e82</title>
<g id="a_edge13"><a xlink:href="dir_000018_000004.html" target="_top">
<path fill="none" stroke="#63b8ff" d="M109.88,-356.09C98.31,-348.07 81.7,-336.56 68.18,-327.19"/>
<polygon fill="#63b8ff" stroke="#63b8ff" points="70.46,-324.51 60.25,-321.69 66.47,-330.26 70.46,-324.51"/>
</a>
</g>
<g id="a_edge13&#45;headlabel"><a xlink:href="dir_000018_000004.html" target="_top" xlink:title="1">
<text text-anchor="middle" x="73.79" y="-320.24" font-family="Helvetica,sans-Serif" font-size="10.00" fill="#63b8ff">1</text>
</a>
</g>
</g>
<!-- dir_f38c3fa6151289ed96db329754eda5d7&#45;&gt;dir_a2a2a66feccb98b434158531e2b48a1c -->
<g id="edge14" class="edge">
<title>dir_f38c3fa6151289ed96db329754eda5d7&#45;&gt;dir_a2a2a66feccb98b434158531e2b48a1c</title>
<g id="a_edge14"><a xlink:href="dir_000018_000031.html" target="_top">
<path fill="none" stroke="#63b8ff" d="M114.6,-356.27C103.04,-343.24 86.09,-319.33 96,-299.75 108.2,-275.64 125.95,-282.91 145,-263.75 159.19,-249.48 172.39,-230.72 181.34,-216.83"/>
<polygon fill="#63b8ff" stroke="#63b8ff" points="184.16,-218.93 186.5,-208.6 178.23,-215.21 184.16,-218.93"/>
</a>
</g>
<g id="a_edge14&#45;headlabel"><a xlink:href="dir_000018_000031.html" target="_top" xlink:title="1">
<text text-anchor="middle" x="185.46" y="-219.07" font-family="Helvetica,sans-Serif" font-size="10.00" fill="#63b8ff">1</text>
</a>
</g>
</g>
<!-- dir_f38c3fa6151289ed96db329754eda5d7&#45;&gt;dir_4fef79e7177ba769987a8da36c892c5f -->
<g id="edge12" class="edge">
<title>dir_f38c3fa6151289ed96db329754eda5d7&#45;&gt;dir_4fef79e7177ba769987a8da36c892c5f</title>
<g id="a_edge12"><a xlink:href="dir_000018_000010.html" target="_top">
<path fill="none" stroke="#63b8ff" d="M155.72,-362.14C264.97,-348.83 619,-302.05 619,-254.38 619,-254.38 619,-254.38 619,-195.62 619,-136.31 542.83,-105.1 498.33,-91.93"/>
<polygon fill="#63b8ff" stroke="#63b8ff" points="499.53,-88.63 488.96,-89.3 497.64,-95.37 499.53,-88.63"/>
</a>
</g>
<g id="a_edge12&#45;headlabel"><a xlink:href="dir_000018_000010.html" target="_top" xlink:title="3">
<text text-anchor="middle" x="502.3" y="-83.33" font-family="Helvetica,sans-Serif" font-size="10.00" fill="#63b8ff">3</text>
</a>
</g>
</g>
<!-- dir_2148bc142ca0808e18c26f0611e99d79&#45;&gt;dir_7093d9bec9e6df023c20339d9b6c0d59 -->
<g id="edge17" class="edge">
<title>dir_2148bc142ca0808e18c26f0611e99d79&#45;&gt;dir_7093d9bec9e6df023c20339d9b6c0d59</title>
<g id="a_edge17"><a xlink:href="dir_000028_000125.html" target="_top">
<path fill="none" stroke="#63b8ff" d="M193.83,-251.08C168.32,-248.12 121.12,-238.46 100,-207 67.03,-157.9 85.63,-83.02 97.5,-47.47"/>
<polygon fill="#63b8ff" stroke="#63b8ff" points="100.66,-49.03 100.69,-38.44 94.06,-46.7 100.66,-49.03"/>
</a>
</g>
<g id="a_edge17&#45;headlabel"><a xlink:href="dir_000028_000125.html" target="_top" xlink:title="1">
<text text-anchor="middle" x="102.65" y="-48.81" font-family="Helvetica,sans-Serif" font-size="10.00" fill="#63b8ff">1</text>
</a>
</g>
</g>
<!-- dir_2148bc142ca0808e18c26f0611e99d79&#45;&gt;dir_a2a2a66feccb98b434158531e2b48a1c -->
<g id="edge16" class="edge">
<title>dir_2148bc142ca0808e18c26f0611e99d79&#45;&gt;dir_a2a2a66feccb98b434158531e2b48a1c</title>
<g id="a_edge16"><a xlink:href="dir_000028_000031.html" target="_top">
<path fill="none" stroke="#63b8ff" d="M207.78,-242.59C205.56,-235.81 202.51,-226.55 199.76,-218.19"/>
<polygon fill="#63b8ff" stroke="#63b8ff" points="203.11,-217.17 196.66,-208.77 196.46,-219.36 203.11,-217.17"/>
</a>
</g>
<g id="a_edge16&#45;headlabel"><a xlink:href="dir_000028_000031.html" target="_top" xlink:title="1">
<text text-anchor="middle" x="206.46" y="-215.14" font-family="Helvetica,sans-Serif" font-size="10.00" fill="#63b8ff">1</text>
</a>
</g>
</g>
<!-- dir_2148bc142ca0808e18c26f0611e99d79&#45;&gt;dir_4fef79e7177ba769987a8da36c892c5f -->
<g id="edge15" class="edge">
<title>dir_2148bc142ca0808e18c26f0611e99d79&#45;&gt;dir_4fef79e7177ba769987a8da36c892c5f</title>
<g id="a_edge15"><a xlink:href="dir_000028_000010.html" target="_top">
<path fill="none" stroke="#63b8ff" d="M224.81,-242.52C254.72,-221.28 327.87,-169.84 391,-129.5 407.05,-119.25 425.37,-108.29 440,-99.71"/>
<polygon fill="#63b8ff" stroke="#63b8ff" points="441.73,-102.75 448.61,-94.69 438.21,-96.7 441.73,-102.75"/>
</a>
</g>
<g id="a_edge15&#45;headlabel"><a xlink:href="dir_000028_000010.html" target="_top" xlink:title="5">
<text text-anchor="middle" x="441.36" y="-103.12" font-family="Helvetica,sans-Serif" font-size="10.00" fill="#63b8ff">5</text>
</a>
</g>
</g>
<!-- dir_a2a2a66feccb98b434158531e2b48a1c&#45;&gt;dir_7093d9bec9e6df023c20339d9b6c0d59 -->
<g id="edge21" class="edge">
<title>dir_a2a2a66feccb98b434158531e2b48a1c&#45;&gt;dir_7093d9bec9e6df023c20339d9b6c0d59</title>
<g id="a_edge21"><a xlink:href="dir_000031_000125.html" target="_top">
<path fill="none" stroke="#63b8ff" d="M196.51,-185.98C204.31,-162.7 220.41,-102.56 194,-64.75 180.12,-44.88 153.52,-35.53 133,-31.16"/>
<polygon fill="#63b8ff" stroke="#63b8ff" points="133.72,-27.73 123.25,-29.39 132.47,-34.62 133.72,-27.73"/>
</a>
</g>
<g id="a_edge21&#45;headlabel"><a xlink:href="dir_000031_000125.html" target="_top" xlink:title="2">
<text text-anchor="middle" x="136.27" y="-22.19" font-family="Helvetica,sans-Serif" font-size="10.00" fill="#63b8ff">2</text>
</a>
</g>
</g>
<!-- dir_a2a2a66feccb98b434158531e2b48a1c&#45;&gt;dir_b9e6121c35254505209e91f4816784f6 -->
<g id="edge19" class="edge">
<title>dir_a2a2a66feccb98b434158531e2b48a1c&#45;&gt;dir_b9e6121c35254505209e91f4816784f6</title>
<g id="a_edge19"><a xlink:href="dir_000031_000099.html" target="_top">
<path fill="none" stroke="#63b8ff" d="M183.77,-207.33C173.14,-215.48 155.76,-227.28 140.56,-236.76"/>
<polygon fill="#63b8ff" stroke="#63b8ff" points="138.99,-233.61 132.27,-241.8 142.63,-239.59 138.99,-233.61"/>
</a>
</g>
<g id="a_edge19&#45;headlabel"><a xlink:href="dir_000031_000099.html" target="_top" xlink:title="1">
<text text-anchor="middle" x="139.29" y="-226.98" font-family="Helvetica,sans-Serif" font-size="10.00" fill="#63b8ff">1</text>
</a>
</g>
</g>
<!-- dir_3f79f5f4c17a11caedb64e36351476ed -->
<g id="node17" class="node">
<title>dir_3f79f5f4c17a11caedb64e36351476ed</title>
<g id="a_node17"><a xlink:href="dir_3f79f5f4c17a11caedb64e36351476ed.html" target="_top" xlink:title="Struct">
<polygon fill="#a2b4d6" stroke="#404040" points="188.25,-150.25 143.75,-150.25 143.75,-129.5 188.25,-129.5 188.25,-150.25"/>
<text text-anchor="middle" x="166" y="-136.75" font-family="Helvetica,sans-Serif" font-size="10.00">Struct</text>
</a>
</g>
</g>
<!-- dir_a2a2a66feccb98b434158531e2b48a1c&#45;&gt;dir_3f79f5f4c17a11caedb64e36351476ed -->
<g id="edge20" class="edge">
<title>dir_a2a2a66feccb98b434158531e2b48a1c&#45;&gt;dir_3f79f5f4c17a11caedb64e36351476ed</title>
<g id="a_edge20"><a xlink:href="dir_000031_000105.html" target="_top">
<path fill="none" stroke="#63b8ff" d="M182.86,-185.84C178.16,-178.99 173.11,-169.59 169.46,-161.15"/>
<polygon fill="#63b8ff" stroke="#63b8ff" points="172.81,-160.13 166.02,-152 166.26,-162.59 172.81,-160.13"/>
</a>
</g>
<g id="a_edge20&#45;headlabel"><a xlink:href="dir_000031_000105.html" target="_top" xlink:title="1">
<text text-anchor="middle" x="176.2" y="-157.95" font-family="Helvetica,sans-Serif" font-size="10.00" fill="#63b8ff">1</text>
</a>
</g>
</g>
<!-- dir_a2a2a66feccb98b434158531e2b48a1c&#45;&gt;dir_4fef79e7177ba769987a8da36c892c5f -->
<g id="edge18" class="edge">
<title>dir_a2a2a66feccb98b434158531e2b48a1c&#45;&gt;dir_4fef79e7177ba769987a8da36c892c5f</title>
<g id="a_edge18"><a xlink:href="dir_000031_000010.html" target="_top">
<path fill="none" stroke="#63b8ff" d="M207.43,-185.89C228.82,-171.81 270.55,-145.71 309,-129.5 351.39,-111.63 403.05,-98.27 435.49,-90.83"/>
<polygon fill="#63b8ff" stroke="#63b8ff" points="436.05,-94.29 445.04,-88.69 434.52,-87.46 436.05,-94.29"/>
</a>
</g>
<g id="a_edge18&#45;headlabel"><a xlink:href="dir_000031_000010.html" target="_top" xlink:title="3">
<text text-anchor="middle" x="434.64" y="-94.39" font-family="Helvetica,sans-Serif" font-size="10.00" fill="#63b8ff">3</text>
</a>
</g>
</g>
<!-- dir_89f7804ef5f027346da5933205091d05 -->
<g id="node10" class="node">
<title>dir_89f7804ef5f027346da5933205091d05</title>
<g id="a_node10"><a xlink:href="dir_89f7804ef5f027346da5933205091d05.html" target="_top" xlink:title="Global">
<polygon fill="#a2b4d6" stroke="#404040" points="293.75,-263.75 246.25,-263.75 246.25,-243 293.75,-243 293.75,-263.75"/>
<text text-anchor="middle" x="270" y="-250.25" font-family="Helvetica,sans-Serif" font-size="10.00">Global</text>
</a>
</g>
</g>
<!-- dir_89f7804ef5f027346da5933205091d05&#45;&gt;dir_7093d9bec9e6df023c20339d9b6c0d59 -->
<g id="edge24" class="edge">
<title>dir_89f7804ef5f027346da5933205091d05&#45;&gt;dir_7093d9bec9e6df023c20339d9b6c0d59</title>
<g id="a_edge24"><a xlink:href="dir_000034_000125.html" target="_top">
<path fill="none" stroke="#63b8ff" d="M245.89,-245.45C216.15,-236.48 167.92,-220.41 155,-207 112.4,-162.8 105.48,-85.51 104.75,-48.42"/>
<polygon fill="#63b8ff" stroke="#63b8ff" points="108.25,-48.59 104.71,-38.6 101.25,-48.62 108.25,-48.59"/>
</a>
</g>
<g id="a_edge24&#45;headlabel"><a xlink:href="dir_000034_000125.html" target="_top" xlink:title="1">
<text text-anchor="middle" x="111.1" y="-47.53" font-family="Helvetica,sans-Serif" font-size="10.00" fill="#63b8ff">1</text>
</a>
</g>
</g>
<!-- dir_89f7804ef5f027346da5933205091d05&#45;&gt;dir_a2a2a66feccb98b434158531e2b48a1c -->
<g id="edge23" class="edge">
<title>dir_89f7804ef5f027346da5933205091d05&#45;&gt;dir_a2a2a66feccb98b434158531e2b48a1c</title>
<g id="a_edge23"><a xlink:href="dir_000034_000031.html" target="_top">
<path fill="none" stroke="#63b8ff" d="M256.23,-242.59C245.07,-234.65 229.08,-223.28 215.98,-213.96"/>
<polygon fill="#63b8ff" stroke="#63b8ff" points="218.06,-211.15 207.88,-208.21 214,-216.85 218.06,-211.15"/>
</a>
</g>
<g id="a_edge23&#45;headlabel"><a xlink:href="dir_000034_000031.html" target="_top" xlink:title="1">
<text text-anchor="middle" x="221.4" y="-206.91" font-family="Helvetica,sans-Serif" font-size="10.00" fill="#63b8ff">1</text>
</a>
</g>
</g>
<!-- dir_89f7804ef5f027346da5933205091d05&#45;&gt;dir_4fef79e7177ba769987a8da36c892c5f -->
<g id="edge22" class="edge">
<title>dir_89f7804ef5f027346da5933205091d05&#45;&gt;dir_4fef79e7177ba769987a8da36c892c5f</title>
<g id="a_edge22"><a xlink:href="dir_000034_000010.html" target="_top">
<path fill="none" stroke="#63b8ff" d="M286.3,-242.54C300.25,-233.85 320.62,-220.48 337,-207 374.73,-175.94 379.24,-162.8 415,-129.5 425.37,-119.85 437.25,-109.43 447.03,-101.02"/>
<polygon fill="#63b8ff" stroke="#63b8ff" points="449.17,-103.79 454.51,-94.64 444.63,-98.47 449.17,-103.79"/>
</a>
</g>
<g id="a_edge22&#45;headlabel"><a xlink:href="dir_000034_000010.html" target="_top" xlink:title="3">
<text text-anchor="middle" x="449.43" y="-104.18" font-family="Helvetica,sans-Serif" font-size="10.00" fill="#63b8ff">3</text>
</a>
</g>
</g>
<!-- dir_320ed45e53e1983f926a8351355dbd89 -->
<g id="node11" class="node">
<title>dir_320ed45e53e1983f926a8351355dbd89</title>
<g id="a_node11"><a xlink:href="dir_320ed45e53e1983f926a8351355dbd89.html" target="_top" xlink:title="Include">
<polygon fill="#a2b4d6" stroke="#404040" points="284.62,-377.25 233.38,-377.25 233.38,-356.5 284.62,-356.5 284.62,-377.25"/>
<text text-anchor="middle" x="259" y="-363.75" font-family="Helvetica,sans-Serif" font-size="10.00">Include</text>
</a>
</g>
</g>
<!-- dir_320ed45e53e1983f926a8351355dbd89&#45;&gt;dir_459833b041acece43aa610615f5ca5a8 -->
<g id="edge27" class="edge">
<title>dir_320ed45e53e1983f926a8351355dbd89&#45;&gt;dir_459833b041acece43aa610615f5ca5a8</title>
<g id="a_edge27"><a xlink:href="dir_000037_000091.html" target="_top">
<path fill="none" stroke="#63b8ff" d="M284.93,-356.27C310.03,-346.54 345.76,-331.41 356,-320.5 367.76,-307.98 374.41,-289.52 378.04,-275.29"/>
<polygon fill="#63b8ff" stroke="#63b8ff" points="381.44,-276.12 380.18,-265.6 374.61,-274.61 381.44,-276.12"/>
</a>
</g>
<g id="a_edge27&#45;headlabel"><a xlink:href="dir_000037_000091.html" target="_top" xlink:title="1">
<text text-anchor="middle" x="383.77" y="-275.63" font-family="Helvetica,sans-Serif" font-size="10.00" fill="#63b8ff">1</text>
</a>
</g>
</g>
<!-- dir_c9ffcee501422a82310fdc6fcd6a1257 -->
<g id="node14" class="node">
<title>dir_c9ffcee501422a82310fdc6fcd6a1257</title>
<g id="a_node14"><a xlink:href="dir_c9ffcee501422a82310fdc6fcd6a1257.html" target="_top" xlink:title="Polymorphic">
<polygon fill="#a2b4d6" stroke="#404040" points="347.38,-320.5 270.62,-320.5 270.62,-299.75 347.38,-299.75 347.38,-320.5"/>
<text text-anchor="middle" x="309" y="-307" font-family="Helvetica,sans-Serif" font-size="10.00">Polymorphic</text>
</a>
</g>
</g>
<!-- dir_320ed45e53e1983f926a8351355dbd89&#45;&gt;dir_c9ffcee501422a82310fdc6fcd6a1257 -->
<g id="edge26" class="edge">
<title>dir_320ed45e53e1983f926a8351355dbd89&#45;&gt;dir_c9ffcee501422a82310fdc6fcd6a1257</title>
<g id="a_edge26"><a xlink:href="dir_000037_000096.html" target="_top">
<path fill="none" stroke="#63b8ff" d="M267.94,-356.09C274.76,-348.61 284.36,-338.11 292.56,-329.13"/>
<polygon fill="#63b8ff" stroke="#63b8ff" points="294.96,-331.69 299.12,-321.95 289.79,-326.97 294.96,-331.69"/>
</a>
</g>
<g id="a_edge26&#45;headlabel"><a xlink:href="dir_000037_000096.html" target="_top" xlink:title="1">
<text text-anchor="middle" x="295.65" y="-332.02" font-family="Helvetica,sans-Serif" font-size="10.00" fill="#63b8ff">1</text>
</a>
</g>
</g>
<!-- dir_320ed45e53e1983f926a8351355dbd89&#45;&gt;dir_4fef79e7177ba769987a8da36c892c5f -->
<g id="edge25" class="edge">
<title>dir_320ed45e53e1983f926a8351355dbd89&#45;&gt;dir_4fef79e7177ba769987a8da36c892c5f</title>
<g id="a_edge25"><a xlink:href="dir_000037_000010.html" target="_top">
<path fill="none" stroke="#63b8ff" d="M284.89,-358.46C287.95,-357.73 291.03,-357.05 294,-356.5 368.48,-342.66 573.35,-367.2 633,-320.5 657.62,-301.23 657,-285.64 657,-254.38 657,-254.38 657,-254.38 657,-195.62 657,-164.36 655.99,-150.69 633,-129.5 595.83,-95.24 535.29,-86.45 498.5,-84.42"/>
<polygon fill="#63b8ff" stroke="#63b8ff" points="499.09,-80.94 488.96,-84.04 498.81,-87.94 499.09,-80.94"/>
</a>
</g>
<g id="a_edge25&#45;headlabel"><a xlink:href="dir_000037_000010.html" target="_top" xlink:title="3">
<text text-anchor="middle" x="501.29" y="-75.06" font-family="Helvetica,sans-Serif" font-size="10.00" fill="#63b8ff">3</text>
</a>
</g>
</g>
<!-- dir_ab86c770cc1b90d5a9908a326f6abfa8&#45;&gt;dir_7093d9bec9e6df023c20339d9b6c0d59 -->
<g id="edge29" class="edge">
<title>dir_ab86c770cc1b90d5a9908a326f6abfa8&#45;&gt;dir_7093d9bec9e6df023c20339d9b6c0d59</title>
<g id="a_edge29"><a xlink:href="dir_000083_000125.html" target="_top">
<path fill="none" stroke="#63b8ff" d="M154.27,-72.34C145.91,-64.71 134.09,-53.92 124.12,-44.82"/>
<polygon fill="#63b8ff" stroke="#63b8ff" points="126.5,-42.25 116.75,-38.1 121.78,-47.42 126.5,-42.25"/>
</a>
</g>
<g id="a_edge29&#45;headlabel"><a xlink:href="dir_000083_000125.html" target="_top" xlink:title="1">
<text text-anchor="middle" x="129.95" y="-38.43" font-family="Helvetica,sans-Serif" font-size="10.00" fill="#63b8ff">1</text>
</a>
</g>
</g>
<!-- dir_ab86c770cc1b90d5a9908a326f6abfa8&#45;&gt;dir_4fef79e7177ba769987a8da36c892c5f -->
<g id="edge28" class="edge">
<title>dir_ab86c770cc1b90d5a9908a326f6abfa8&#45;&gt;dir_4fef79e7177ba769987a8da36c892c5f</title>
<g id="a_edge28"><a xlink:href="dir_000083_000010.html" target="_top">
<path fill="none" stroke="#63b8ff" d="M185.35,-83.12C268.62,-83.12 351.89,-83.12 435.16,-83.12"/>
<polygon fill="#63b8ff" stroke="#63b8ff" points="435.13,-86.63 445.13,-83.13 435.13,-79.63 435.13,-86.63"/>
</a>
</g>
<g id="a_edge28&#45;headlabel"><a xlink:href="dir_000083_000010.html" target="_top" xlink:title="3">
<text text-anchor="middle" x="433.05" y="-86.34" font-family="Helvetica,sans-Serif" font-size="10.00" fill="#63b8ff">3</text>
</a>
</g>
</g>
<!-- dir_b32245508e9ba2415c96893d377a675c -->
<g id="node13" class="node">
<title>dir_b32245508e9ba2415c96893d377a675c</title>
<g id="a_node13"><a xlink:href="dir_b32245508e9ba2415c96893d377a675c.html" target="_top" xlink:title="POD">
<polygon fill="#a2b4d6" stroke="#404040" points="141.5,-320.5 104.5,-320.5 104.5,-299.75 141.5,-299.75 141.5,-320.5"/>
<text text-anchor="middle" x="123" y="-307" font-family="Helvetica,sans-Serif" font-size="10.00">POD</text>
</a>
</g>
</g>
<!-- dir_b32245508e9ba2415c96893d377a675c&#45;&gt;dir_b9e6121c35254505209e91f4816784f6 -->
<g id="edge31" class="edge">
<title>dir_b32245508e9ba2415c96893d377a675c&#45;&gt;dir_b9e6121c35254505209e91f4816784f6</title>
<g id="a_edge31"><a xlink:href="dir_000093_000099.html" target="_top">
<path fill="none" stroke="#63b8ff" d="M120.85,-299.34C119.39,-292.64 117.39,-283.51 115.57,-275.23"/>
<polygon fill="#63b8ff" stroke="#63b8ff" points="119.01,-274.58 113.45,-265.56 112.17,-276.07 119.01,-274.58"/>
</a>
</g>
<g id="a_edge31&#45;headlabel"><a xlink:href="dir_000093_000099.html" target="_top" xlink:title="1">
<text text-anchor="middle" x="122.23" y="-272.88" font-family="Helvetica,sans-Serif" font-size="10.00" fill="#63b8ff">1</text>
</a>
</g>
</g>
<!-- dir_b32245508e9ba2415c96893d377a675c&#45;&gt;dir_4fef79e7177ba769987a8da36c892c5f -->
<g id="edge30" class="edge">
<title>dir_b32245508e9ba2415c96893d377a675c&#45;&gt;dir_4fef79e7177ba769987a8da36c892c5f</title>
<g id="a_edge30"><a xlink:href="dir_000093_000010.html" target="_top">
<path fill="none" stroke="#63b8ff" d="M141.73,-302.05C144.48,-301.18 147.29,-300.38 150,-299.75 213.9,-284.91 396.37,-309.89 443,-263.75 485.8,-221.4 478.02,-141.99 471.37,-104.59"/>
<polygon fill="#63b8ff" stroke="#63b8ff" points="474.87,-104.27 469.52,-95.12 468,-105.61 474.87,-104.27"/>
</a>
</g>
<g id="a_edge30&#45;headlabel"><a xlink:href="dir_000093_000010.html" target="_top" xlink:title="4">
<text text-anchor="middle" x="478.05" y="-102.64" font-family="Helvetica,sans-Serif" font-size="10.00" fill="#63b8ff">4</text>
</a>
</g>
</g>
<!-- dir_c9ffcee501422a82310fdc6fcd6a1257&#45;&gt;dir_459833b041acece43aa610615f5ca5a8 -->
<g id="edge33" class="edge">
<title>dir_c9ffcee501422a82310fdc6fcd6a1257&#45;&gt;dir_459833b041acece43aa610615f5ca5a8</title>
<g id="a_edge33"><a xlink:href="dir_000096_000091.html" target="_top">
<path fill="none" stroke="#63b8ff" d="M322.05,-299.34C332.64,-291.4 347.79,-280.03 360.22,-270.71"/>
<polygon fill="#63b8ff" stroke="#63b8ff" points="361.95,-273.79 367.85,-264.99 357.75,-268.19 361.95,-273.79"/>
</a>
</g>
<g id="a_edge33&#45;headlabel"><a xlink:href="dir_000096_000091.html" target="_top" xlink:title="1">
<text text-anchor="middle" x="361.99" y="-274.18" font-family="Helvetica,sans-Serif" font-size="10.00" fill="#63b8ff">1</text>
</a>
</g>
</g>
<!-- dir_c9ffcee501422a82310fdc6fcd6a1257&#45;&gt;dir_4fef79e7177ba769987a8da36c892c5f -->
<g id="edge32" class="edge">
<title>dir_c9ffcee501422a82310fdc6fcd6a1257&#45;&gt;dir_4fef79e7177ba769987a8da36c892c5f</title>
<g id="a_edge32"><a xlink:href="dir_000096_000010.html" target="_top">
<path fill="none" stroke="#63b8ff" d="M347.63,-307.86C410.54,-304.91 530.79,-295.18 557,-263.75 595.21,-217.92 588.28,-180.31 557,-129.5 544.23,-108.76 518.73,-97.15 498.12,-90.89"/>
<polygon fill="#63b8ff" stroke="#63b8ff" points="499.32,-87.59 488.75,-88.33 497.48,-94.34 499.32,-87.59"/>
</a>
</g>
<g id="a_edge32&#45;headlabel"><a xlink:href="dir_000096_000010.html" target="_top" xlink:title="5">
<text text-anchor="middle" x="502.08" y="-82.27" font-family="Helvetica,sans-Serif" font-size="10.00" fill="#63b8ff">5</text>
</a>
</g>
</g>
<!-- dir_b9e6121c35254505209e91f4816784f6&#45;&gt;dir_7093d9bec9e6df023c20339d9b6c0d59 -->
<g id="edge34" class="edge">
<title>dir_b9e6121c35254505209e91f4816784f6&#45;&gt;dir_7093d9bec9e6df023c20339d9b6c0d59</title>
<g id="a_edge34"><a xlink:href="dir_000099_000125.html" target="_top">
<path fill="none" stroke="#63b8ff" d="M101.63,-242.51C94.14,-233.9 84.22,-220.67 80,-207 61.34,-146.6 61.63,-125.25 80,-64.75 81.98,-58.21 85.53,-51.78 89.34,-46.14"/>
<polygon fill="#63b8ff" stroke="#63b8ff" points="92.09,-48.31 95.3,-38.21 86.5,-44.11 92.09,-48.31"/>
</a>
</g>
<g id="a_edge34&#45;headlabel"><a xlink:href="dir_000099_000125.html" target="_top" xlink:title="2">
<text text-anchor="middle" x="93.11" y="-48.55" font-family="Helvetica,sans-Serif" font-size="10.00" fill="#63b8ff">2</text>
</a>
</g>
</g>
<!-- dir_b9e6121c35254505209e91f4816784f6&#45;&gt;dir_a2a2a66feccb98b434158531e2b48a1c -->
<g id="edge35" class="edge">
<title>dir_b9e6121c35254505209e91f4816784f6&#45;&gt;dir_a2a2a66feccb98b434158531e2b48a1c</title>
<g id="a_edge35"><a xlink:href="dir_000099_000031.html" target="_top">
<path fill="none" stroke="#63b8ff" d="M120.34,-242.59C131.01,-234.41 148.41,-222.61 163.6,-213.15"/>
<polygon fill="#63b8ff" stroke="#63b8ff" points="165.15,-216.3 171.87,-208.11 161.51,-210.32 165.15,-216.3"/>
</a>
</g>
<g id="a_edge35&#45;headlabel"><a xlink:href="dir_000099_000031.html" target="_top" xlink:title="1">
<text text-anchor="middle" x="164.85" y="-216.68" font-family="Helvetica,sans-Serif" font-size="10.00" fill="#63b8ff">1</text>
</a>
</g>
</g>
<!-- dir_aeb111a66559cddca48532b3374d72a2 -->
<g id="node16" class="node">
<title>dir_aeb111a66559cddca48532b3374d72a2</title>
<g id="a_node16"><a xlink:href="dir_aeb111a66559cddca48532b3374d72a2.html" target="_top" xlink:title="String">
<polygon fill="#a2b4d6" stroke="#404040" points="347.25,-377.25 302.75,-377.25 302.75,-356.5 347.25,-356.5 347.25,-377.25"/>
<text text-anchor="middle" x="325" y="-363.75" font-family="Helvetica,sans-Serif" font-size="10.00">String</text>
</a>
</g>
</g>
<!-- dir_aeb111a66559cddca48532b3374d72a2&#45;&gt;dir_4fef79e7177ba769987a8da36c892c5f -->
<g id="edge36" class="edge">
<title>dir_aeb111a66559cddca48532b3374d72a2&#45;&gt;dir_4fef79e7177ba769987a8da36c892c5f</title>
<g id="a_edge36"><a xlink:href="dir_000102_000010.html" target="_top">
<path fill="none" stroke="#63b8ff" d="M347.71,-365.88C416.5,-365.44 620.92,-360.71 671,-320.5 695.38,-300.93 695,-285.64 695,-254.38 695,-254.38 695,-254.38 695,-195.62 695,-164.36 694.49,-150.13 671,-129.5 645.64,-107.22 549.36,-93.36 498.66,-87.44"/>
<polygon fill="#63b8ff" stroke="#63b8ff" points="499.24,-83.99 488.91,-86.35 498.46,-90.94 499.24,-83.99"/>
</a>
</g>
<g id="a_edge36&#45;headlabel"><a xlink:href="dir_000102_000010.html" target="_top" xlink:title="3">
<text text-anchor="middle" x="501.63" y="-78.27" font-family="Helvetica,sans-Serif" font-size="10.00" fill="#63b8ff">3</text>
</a>
</g>
</g>
<!-- dir_3f79f5f4c17a11caedb64e36351476ed&#45;&gt;dir_7093d9bec9e6df023c20339d9b6c0d59 -->
<g id="edge38" class="edge">
<title>dir_3f79f5f4c17a11caedb64e36351476ed&#45;&gt;dir_7093d9bec9e6df023c20339d9b6c0d59</title>
<g id="a_edge38"><a xlink:href="dir_000105_000125.html" target="_top">
<path fill="none" stroke="#63b8ff" d="M158.9,-129.05C152.53,-120.03 143.12,-106.18 136,-93.5 127.56,-78.45 119.33,-60.71 113.47,-47.39"/>
<polygon fill="#63b8ff" stroke="#63b8ff" points="116.77,-46.19 109.59,-38.4 110.34,-48.97 116.77,-46.19"/>
</a>
</g>
<g id="a_edge38&#45;headlabel"><a xlink:href="dir_000105_000125.html" target="_top" xlink:title="2">
<text text-anchor="middle" x="120.2" y="-43.86" font-family="Helvetica,sans-Serif" font-size="10.00" fill="#63b8ff">2</text>
</a>
</g>
</g>
<!-- dir_3f79f5f4c17a11caedb64e36351476ed&#45;&gt;dir_a2a2a66feccb98b434158531e2b48a1c -->
<g id="edge39" class="edge">
<title>dir_3f79f5f4c17a11caedb64e36351476ed&#45;&gt;dir_a2a2a66feccb98b434158531e2b48a1c</title>
<g id="a_edge39"><a xlink:href="dir_000105_000031.html" target="_top">
<path fill="none" stroke="#63b8ff" d="M176.08,-150.58C180.78,-157.41 185.83,-166.8 189.5,-175.24"/>
<polygon fill="#63b8ff" stroke="#63b8ff" points="186.16,-176.3 192.96,-184.42 192.71,-173.83 186.16,-176.3"/>
</a>
</g>
<g id="a_edge39&#45;headlabel"><a xlink:href="dir_000105_000031.html" target="_top" xlink:title="1">
<text text-anchor="middle" x="182.76" y="-172.22" font-family="Helvetica,sans-Serif" font-size="10.00" fill="#63b8ff">1</text>
</a>
</g>
</g>
<!-- dir_3f79f5f4c17a11caedb64e36351476ed&#45;&gt;dir_ab86c770cc1b90d5a9908a326f6abfa8 -->
<g id="edge40" class="edge">
<title>dir_3f79f5f4c17a11caedb64e36351476ed&#45;&gt;dir_ab86c770cc1b90d5a9908a326f6abfa8</title>
<g id="a_edge40"><a xlink:href="dir_000105_000083.html" target="_top">
<path fill="none" stroke="#63b8ff" d="M165.82,-129.09C165.7,-122.47 165.54,-113.47 165.39,-105.27"/>
<polygon fill="#63b8ff" stroke="#63b8ff" points="168.89,-105.28 165.2,-95.34 161.89,-105.4 168.89,-105.28"/>
</a>
</g>
<g id="a_edge40&#45;headlabel"><a xlink:href="dir_000105_000083.html" target="_top" xlink:title="1">
<text text-anchor="middle" x="171.76" y="-104.18" font-family="Helvetica,sans-Serif" font-size="10.00" fill="#63b8ff">1</text>
</a>
</g>
</g>
<!-- dir_3f79f5f4c17a11caedb64e36351476ed&#45;&gt;dir_b9e6121c35254505209e91f4816784f6 -->
<g id="edge41" class="edge">
<title>dir_3f79f5f4c17a11caedb64e36351476ed&#45;&gt;dir_b9e6121c35254505209e91f4816784f6</title>
<g id="a_edge41"><a xlink:href="dir_000105_000099.html" target="_top">
<path fill="none" stroke="#63b8ff" d="M161.17,-150.68C152.13,-169 132.51,-208.77 120.66,-232.79"/>
<polygon fill="#63b8ff" stroke="#63b8ff" points="117.64,-230.99 116.36,-241.51 123.92,-234.09 117.64,-230.99"/>
</a>
</g>
<g id="a_edge41&#45;headlabel"><a xlink:href="dir_000105_000099.html" target="_top" xlink:title="1">
<text text-anchor="middle" x="116.02" y="-224.75" font-family="Helvetica,sans-Serif" font-size="10.00" fill="#63b8ff">1</text>
</a>
</g>
</g>
<!-- dir_3f79f5f4c17a11caedb64e36351476ed&#45;&gt;dir_4fef79e7177ba769987a8da36c892c5f -->
<g id="edge37" class="edge">
<title>dir_3f79f5f4c17a11caedb64e36351476ed&#45;&gt;dir_4fef79e7177ba769987a8da36c892c5f</title>
<g id="a_edge37"><a xlink:href="dir_000105_000010.html" target="_top">
<path fill="none" stroke="#63b8ff" d="M188.62,-134.76C241.69,-125.11 374.27,-100.99 435.32,-89.89"/>
<polygon fill="#63b8ff" stroke="#63b8ff" points="435.83,-93.35 445.04,-88.12 434.58,-86.47 435.83,-93.35"/>
</a>
</g>
<g id="a_edge37&#45;headlabel"><a xlink:href="dir_000105_000010.html" target="_top" xlink:title="6">
<text text-anchor="middle" x="434.29" y="-93.39" font-family="Helvetica,sans-Serif" font-size="10.00" fill="#63b8ff">6</text>
</a>
</g>
</g>
</g>
</svg>
