<?xml version="1.0" encoding="UTF-8" standalone="no"?>
<!DOCTYPE svg PUBLIC "-//W3C//DTD SVG 1.1//EN"
 "http://www.w3.org/Graphics/SVG/1.1/DTD/svg11.dtd">
<!-- Generated by graphviz version 12.2.1 (0)
 -->
<!-- Title: include/llzk/Dialect/Verif Pages: 1 -->
<svg width="354pt" height="146pt"
 viewBox="0.00 0.00 353.62 146.25" xmlns="http://www.w3.org/2000/svg" xmlns:xlink="http://www.w3.org/1999/xlink">
<g id="graph0" class="graph" transform="scale(1 1) rotate(0) translate(4 142.25)">
<title>include/llzk/Dialect/Verif</title>
<g id="clust1" class="cluster">
<title>clusterdir_961f7ef292a3987e3723514feaf3f181</title>
<g id="a_clust1"><a xlink:href="dir_961f7ef292a3987e3723514feaf3f181.html" target="_top" xlink:title="Dialect">
<polygon fill="#edf0f7" stroke="#7f7f7f" stroke-dasharray="5,2" points="8,-8 8,-130.25 244,-130.25 244,-8 8,-8"/>
<text text-anchor="middle" x="126" y="-116.75" font-family="Helvetica,sans-Serif" font-size="10.00">Dialect</text>
</a>
</g>
</g>
<g id="clust2" class="cluster">
<title>clusterdir_28997e874da7ccb52a024cd4ed9f7446</title>
<g id="a_clust2"><a xlink:href="dir_28997e874da7ccb52a024cd4ed9f7446.html" target="_top">
<polygon fill="#edf0f7" stroke="#404040" stroke-width="2" points="119,-64.75 119,-101.5 220,-101.5 220,-64.75 119,-64.75"/>
</a>
</g>
</g>
<!-- dir_a2a2a66feccb98b434158531e2b48a1c -->
<g id="node1" class="node">
<title>dir_a2a2a66feccb98b434158531e2b48a1c</title>
<g id="a_node1"><a xlink:href="dir_a2a2a66feccb98b434158531e2b48a1c.html" target="_top" xlink:title="Function">
<polygon fill="#a2b4d6" stroke="red" points="73.62,-36.75 16.37,-36.75 16.37,-16 73.62,-16 73.62,-36.75"/>
<text text-anchor="middle" x="45" y="-23.25" font-family="Helvetica,sans-Serif" font-size="10.00">Function</text>
</a>
</g>
</g>
<!-- dir_b9e6121c35254505209e91f4816784f6 -->
<g id="node2" class="node">
<title>dir_b9e6121c35254505209e91f4816784f6</title>
<g id="a_node2"><a xlink:href="dir_b9e6121c35254505209e91f4816784f6.html" target="_top" xlink:title="Shared">
<polygon fill="#a2b4d6" stroke="#404040" points="141.88,-36.75 92.12,-36.75 92.12,-16 141.88,-16 141.88,-36.75"/>
<text text-anchor="middle" x="117" y="-23.25" font-family="Helvetica,sans-Serif" font-size="10.00">Shared</text>
</a>
</g>
</g>
<!-- dir_c9ffcee501422a82310fdc6fcd6a1257 -->
<g id="node3" class="node">
<title>dir_c9ffcee501422a82310fdc6fcd6a1257</title>
<g id="a_node3"><a xlink:href="dir_c9ffcee501422a82310fdc6fcd6a1257.html" target="_top" xlink:title="Polymorphic">
<polygon fill="#a2b4d6" stroke="red" points="236.38,-36.75 159.62,-36.75 159.62,-16 236.38,-16 236.38,-36.75"/>
<text text-anchor="middle" x="198" y="-23.25" font-family="Helvetica,sans-Serif" font-size="10.00">Polymorphic</text>
</a>
</g>
</g>
<!-- dir_28997e874da7ccb52a024cd4ed9f7446 -->
<g id="node4" class="node">
<title>dir_28997e874da7ccb52a024cd4ed9f7446</title>
<text text-anchor="middle" x="146" y="-80" font-family="Helvetica,sans-Serif" font-size="10.00">Verif</text>
</g>
<!-- dir_26e1be785b551eb8c229f81e256f8c59 -->
<g id="node5" class="node">
<title>dir_26e1be785b551eb8c229f81e256f8c59</title>
<g id="a_node5"><a xlink:href="dir_26e1be785b551eb8c229f81e256f8c59.html" target="_top" xlink:title="IR">
<polygon fill="#a2b4d6" stroke="#404040" points="212.4,-93.5 183.6,-93.5 183.6,-72.75 212.4,-72.75 212.4,-93.5"/>
<text text-anchor="middle" x="198" y="-80" font-family="Helvetica,sans-Serif" font-size="10.00">IR</text>
</a>
</g>
</g>
<!-- dir_26e1be785b551eb8c229f81e256f8c59&#45;&gt;dir_a2a2a66feccb98b434158531e2b48a1c -->
<g id="edge3" class="edge">
<title>dir_26e1be785b551eb8c229f81e256f8c59&#45;&gt;dir_a2a2a66feccb98b434158531e2b48a1c</title>
<g id="a_edge3"><a xlink:href="dir_000073_000031.html" target="_top">
<path fill="none" stroke="#63b8ff" d="M186.31,-72.43C182.55,-69.65 178.25,-66.83 174,-64.75 158.26,-57.06 116.54,-45.52 84.77,-37.3"/>
<polygon fill="#63b8ff" stroke="#63b8ff" points="86.03,-34.01 75.48,-34.92 84.3,-40.79 86.03,-34.01"/>
</a>
</g>
<g id="a_edge3&#45;headlabel"><a xlink:href="dir_000073_000031.html" target="_top" xlink:title="1">
<text text-anchor="middle" x="88.75" y="-28.65" font-family="Helvetica,sans-Serif" font-size="10.00" fill="#63b8ff">1</text>
</a>
</g>
</g>
<!-- dir_26e1be785b551eb8c229f81e256f8c59&#45;&gt;dir_b9e6121c35254505209e91f4816784f6 -->
<g id="edge4" class="edge">
<title>dir_26e1be785b551eb8c229f81e256f8c59&#45;&gt;dir_b9e6121c35254505209e91f4816784f6</title>
<g id="a_edge4"><a xlink:href="dir_000073_000111.html" target="_top">
<path fill="none" stroke="#63b8ff" d="M184.87,-72.46C181.36,-69.92 177.56,-67.2 174,-64.75 163.48,-57.5 151.69,-49.71 141.57,-43.13"/>
<polygon fill="#63b8ff" stroke="#63b8ff" points="143.7,-40.34 133.4,-37.85 139.89,-46.22 143.7,-40.34"/>
</a>
</g>
<g id="a_edge4&#45;headlabel"><a xlink:href="dir_000073_000111.html" target="_top" xlink:title="1">
<text text-anchor="middle" x="146.99" y="-35.96" font-family="Helvetica,sans-Serif" font-size="10.00" fill="#63b8ff">1</text>
</a>
</g>
</g>
<!-- dir_26e1be785b551eb8c229f81e256f8c59&#45;&gt;dir_c9ffcee501422a82310fdc6fcd6a1257 -->
<g id="edge5" class="edge">
<title>dir_26e1be785b551eb8c229f81e256f8c59&#45;&gt;dir_c9ffcee501422a82310fdc6fcd6a1257</title>
<g id="a_edge5"><a xlink:href="dir_000073_000105.html" target="_top">
<path fill="none" stroke="#63b8ff" d="M198,-72.34C198,-65.72 198,-56.72 198,-48.52"/>
<polygon fill="#63b8ff" stroke="#63b8ff" points="201.5,-48.59 198,-38.59 194.5,-48.59 201.5,-48.59"/>
</a>
</g>
<g id="a_edge5&#45;headlabel"><a xlink:href="dir_000073_000105.html" target="_top" xlink:title="1">
<text text-anchor="middle" x="204.34" y="-47.55" font-family="Helvetica,sans-Serif" font-size="10.00" fill="#63b8ff">1</text>
</a>
</g>
</g>
<!-- dir_4fef79e7177ba769987a8da36c892c5f -->
<g id="node6" class="node">
<title>dir_4fef79e7177ba769987a8da36c892c5f</title>
<g id="a_node6"><a xlink:href="dir_4fef79e7177ba769987a8da36c892c5f.html" target="_top" xlink:title="build">
<polygon fill="#edf0f7" stroke="red" points="294,-36.75 254,-36.75 254,-16 294,-16 294,-36.75"/>
<text text-anchor="middle" x="274" y="-23.25" font-family="Helvetica,sans-Serif" font-size="10.00">build</text>
</a>
</g>
</g>
<!-- dir_26e1be785b551eb8c229f81e256f8c59&#45;&gt;dir_4fef79e7177ba769987a8da36c892c5f -->
<g id="edge1" class="edge">
<title>dir_26e1be785b551eb8c229f81e256f8c59&#45;&gt;dir_4fef79e7177ba769987a8da36c892c5f</title>
<g id="a_edge1"><a xlink:href="dir_000073_000010.html" target="_top">
<path fill="none" stroke="#63b8ff" d="M211.59,-72.34C222.61,-64.4 238.39,-53.03 251.32,-43.71"/>
<polygon fill="#63b8ff" stroke="#63b8ff" points="253.23,-46.65 259.3,-37.96 249.14,-40.97 253.23,-46.65"/>
</a>
</g>
<g id="a_edge1&#45;headlabel"><a xlink:href="dir_000073_000010.html" target="_top" xlink:title="3">
<text text-anchor="middle" x="253.21" y="-47.04" font-family="Helvetica,sans-Serif" font-size="10.00" fill="#63b8ff">3</text>
</a>
</g>
</g>
<!-- dir_7093d9bec9e6df023c20339d9b6c0d59 -->
<g id="node7" class="node">
<title>dir_7093d9bec9e6df023c20339d9b6c0d59</title>
<g id="a_node7"><a xlink:href="dir_7093d9bec9e6df023c20339d9b6c0d59.html" target="_top" xlink:title="Util">
<polygon fill="#edf0f7" stroke="#7f7f7f" points="345.62,-36.75 312.38,-36.75 312.38,-16 345.62,-16 345.62,-36.75"/>
<text text-anchor="middle" x="329" y="-23.25" font-family="Helvetica,sans-Serif" font-size="10.00">Util</text>
</a>
</g>
</g>
<!-- dir_26e1be785b551eb8c229f81e256f8c59&#45;&gt;dir_7093d9bec9e6df023c20339d9b6c0d59 -->
<g id="edge2" class="edge">
<title>dir_26e1be785b551eb8c229f81e256f8c59&#45;&gt;dir_7093d9bec9e6df023c20339d9b6c0d59</title>
<g id="a_edge2"><a xlink:href="dir_000073_000140.html" target="_top">
<path fill="none" stroke="#63b8ff" d="M212.77,-75.95C234.3,-66.95 274.65,-50.09 301.68,-38.79"/>
<polygon fill="#63b8ff" stroke="#63b8ff" points="302.74,-42.14 310.61,-35.06 300.04,-35.69 302.74,-42.14"/>
</a>
</g>
<g id="a_edge2&#45;headlabel"><a xlink:href="dir_000073_000140.html" target="_top" xlink:title="1">
<text text-anchor="middle" x="301.91" y="-42.44" font-family="Helvetica,sans-Serif" font-size="10.00" fill="#63b8ff">1</text>
</a>
</g>
</g>
</g>
</svg>
