<?xml version="1.0" encoding="UTF-8" standalone="no"?>
<!DOCTYPE svg PUBLIC "-//W3C//DTD SVG 1.1//EN"
 "http://www.w3.org/Graphics/SVG/1.1/DTD/svg11.dtd">
<!-- Generated by graphviz version 12.2.1 (0)
 -->
<!-- Title: include/llzk Pages: 1 -->
<svg width="378pt" height="268pt"
 viewBox="0.00 0.00 378.00 267.75" xmlns="http://www.w3.org/2000/svg" xmlns:xlink="http://www.w3.org/1999/xlink">
<g id="graph0" class="graph" transform="scale(1 1) rotate(0) translate(4 263.75)">
<title>include/llzk</title>
<g id="clust1" class="cluster">
<title>clusterdir_d44c64559bbebec7f509842c48db8b23</title>
<g id="a_clust1"><a xlink:href="dir_d44c64559bbebec7f509842c48db8b23.html" target="_top" xlink:title="include">
<polygon fill="#edf0f7" stroke="#404040" stroke-dasharray="5,2" points="8,-8 8,-251.75 322,-251.75 322,-8 8,-8"/>
<text text-anchor="middle" x="165" y="-238.25" font-family="Helvetica,sans-Serif" font-size="10.00">include</text>
</a>
</g>
</g>
<g id="clust2" class="cluster">
<title>clusterdir_5804947f485dbfa35f1b2a5b6cdecd1f</title>
<g id="a_clust2"><a xlink:href="dir_5804947f485dbfa35f1b2a5b6cdecd1f.html" target="_top">
<polygon fill="#edf0f7" stroke="#404040" stroke-width="2" points="16,-16 16,-223 264,-223 264,-16 16,-16"/>
</a>
</g>
</g>
<!-- dir_eb82103dcc149a6c60866abd7bb0bab0 -->
<g id="node1" class="node">
<title>dir_eb82103dcc149a6c60866abd7bb0bab0</title>
<g id="a_node1"><a xlink:href="dir_eb82103dcc149a6c60866abd7bb0bab0.html" target="_top" xlink:title="llzk&#45;c">
<polygon fill="#a2b4d6" stroke="red" points="314.12,-158.25 271.88,-158.25 271.88,-137.5 314.12,-137.5 314.12,-158.25"/>
<text text-anchor="middle" x="293" y="-144.75" font-family="Helvetica,sans-Serif" font-size="10.00">llzk&#45;c</text>
</a>
</g>
</g>
<!-- dir_5804947f485dbfa35f1b2a5b6cdecd1f -->
<g id="node2" class="node">
<title>dir_5804947f485dbfa35f1b2a5b6cdecd1f</title>
<text text-anchor="middle" x="49" y="-201.5" font-family="Helvetica,sans-Serif" font-size="10.00">llzk</text>
</g>
<!-- dir_65cd0a6beb1707f32c23cd7936ccf072 -->
<g id="node3" class="node">
<title>dir_65cd0a6beb1707f32c23cd7936ccf072</title>
<g id="a_node3"><a xlink:href="dir_65cd0a6beb1707f32c23cd7936ccf072.html" target="_top" xlink:title="Analysis">
<polygon fill="#a2b4d6" stroke="#404040" points="147.62,-215 90.38,-215 90.38,-194.25 147.62,-194.25 147.62,-215"/>
<text text-anchor="middle" x="119" y="-201.5" font-family="Helvetica,sans-Serif" font-size="10.00">Analysis</text>
</a>
</g>
</g>
<!-- dir_961f7ef292a3987e3723514feaf3f181 -->
<g id="node5" class="node">
<title>dir_961f7ef292a3987e3723514feaf3f181</title>
<g id="a_node5"><a xlink:href="dir_961f7ef292a3987e3723514feaf3f181.html" target="_top" xlink:title="Dialect">
<polygon fill="#a2b4d6" stroke="#404040" points="193.25,-158.25 142.75,-158.25 142.75,-137.5 193.25,-137.5 193.25,-158.25"/>
<text text-anchor="middle" x="168" y="-144.75" font-family="Helvetica,sans-Serif" font-size="10.00">Dialect</text>
</a>
</g>
</g>
<!-- dir_65cd0a6beb1707f32c23cd7936ccf072&#45;&gt;dir_961f7ef292a3987e3723514feaf3f181 -->
<g id="edge4" class="edge">
<title>dir_65cd0a6beb1707f32c23cd7936ccf072&#45;&gt;dir_961f7ef292a3987e3723514feaf3f181</title>
<g id="a_edge4"><a xlink:href="dir_000001_000022.html" target="_top">
<path fill="none" stroke="#63b8ff" d="M127.76,-193.84C134.45,-186.36 143.85,-175.86 151.89,-166.88"/>
<polygon fill="#63b8ff" stroke="#63b8ff" points="154.25,-169.49 158.31,-159.71 149.03,-164.82 154.25,-169.49"/>
</a>
</g>
<g id="a_edge4&#45;headlabel"><a xlink:href="dir_000001_000022.html" target="_top" xlink:title="20">
<text text-anchor="middle" x="154.97" y="-169.81" font-family="Helvetica,sans-Serif" font-size="10.00" fill="#63b8ff">20</text>
</a>
</g>
</g>
<!-- dir_459833b041acece43aa610615f5ca5a8 -->
<g id="node6" class="node">
<title>dir_459833b041acece43aa610615f5ca5a8</title>
<g id="a_node6"><a xlink:href="dir_459833b041acece43aa610615f5ca5a8.html" target="_top" xlink:title="Pass">
<polygon fill="#a2b4d6" stroke="#404040" points="191.88,-44.75 154.12,-44.75 154.12,-24 191.88,-24 191.88,-44.75"/>
<text text-anchor="middle" x="173" y="-31.25" font-family="Helvetica,sans-Serif" font-size="10.00">Pass</text>
</a>
</g>
</g>
<!-- dir_65cd0a6beb1707f32c23cd7936ccf072&#45;&gt;dir_459833b041acece43aa610615f5ca5a8 -->
<g id="edge1" class="edge">
<title>dir_65cd0a6beb1707f32c23cd7936ccf072&#45;&gt;dir_459833b041acece43aa610615f5ca5a8</title>
<g id="a_edge1"><a xlink:href="dir_000001_000100.html" target="_top">
<path fill="none" stroke="#63b8ff" d="M110.1,-194.04C91.18,-172.45 50.6,-118.94 75,-80.75 89.79,-57.61 119.73,-46.09 142.65,-40.48"/>
<polygon fill="#63b8ff" stroke="#63b8ff" points="143.37,-43.9 152.4,-38.37 141.89,-37.06 143.37,-43.9"/>
</a>
</g>
<g id="a_edge1&#45;headlabel"><a xlink:href="dir_000001_000100.html" target="_top" xlink:title="1">
<text text-anchor="middle" x="141.93" y="-43.99" font-family="Helvetica,sans-Serif" font-size="10.00" fill="#63b8ff">1</text>
</a>
</g>
</g>
<!-- dir_7093d9bec9e6df023c20339d9b6c0d59 -->
<g id="node8" class="node">
<title>dir_7093d9bec9e6df023c20339d9b6c0d59</title>
<g id="a_node8"><a xlink:href="dir_7093d9bec9e6df023c20339d9b6c0d59.html" target="_top" xlink:title="Util">
<polygon fill="#a2b4d6" stroke="#404040" points="81.62,-44.75 48.38,-44.75 48.38,-24 81.62,-24 81.62,-44.75"/>
<text text-anchor="middle" x="65" y="-31.25" font-family="Helvetica,sans-Serif" font-size="10.00">Util</text>
</a>
</g>
</g>
<!-- dir_65cd0a6beb1707f32c23cd7936ccf072&#45;&gt;dir_7093d9bec9e6df023c20339d9b6c0d59 -->
<g id="edge3" class="edge">
<title>dir_65cd0a6beb1707f32c23cd7936ccf072&#45;&gt;dir_7093d9bec9e6df023c20339d9b6c0d59</title>
<g id="a_edge3"><a xlink:href="dir_000001_000144.html" target="_top">
<path fill="none" stroke="#63b8ff" d="M103.83,-194.07C92.46,-186.01 77.58,-173.38 70,-158.25 53.63,-125.59 56.91,-81.7 60.88,-56.18"/>
<polygon fill="#63b8ff" stroke="#63b8ff" points="64.31,-56.91 62.6,-46.45 57.42,-55.69 64.31,-56.91"/>
</a>
</g>
<g id="a_edge3&#45;headlabel"><a xlink:href="dir_000001_000144.html" target="_top" xlink:title="13">
<text text-anchor="middle" x="66.74" y="-56.33" font-family="Helvetica,sans-Serif" font-size="10.00" fill="#63b8ff">13</text>
</a>
</g>
</g>
<!-- dir_4fef79e7177ba769987a8da36c892c5f -->
<g id="node10" class="node">
<title>dir_4fef79e7177ba769987a8da36c892c5f</title>
<g id="a_node10"><a xlink:href="dir_4fef79e7177ba769987a8da36c892c5f.html" target="_top" xlink:title="build">
<polygon fill="#edf0f7" stroke="red" points="370,-44.75 330,-44.75 330,-24 370,-24 370,-44.75"/>
<text text-anchor="middle" x="350" y="-31.25" font-family="Helvetica,sans-Serif" font-size="10.00">build</text>
</a>
</g>
</g>
<!-- dir_65cd0a6beb1707f32c23cd7936ccf072&#45;&gt;dir_4fef79e7177ba769987a8da36c892c5f -->
<g id="edge2" class="edge">
<title>dir_65cd0a6beb1707f32c23cd7936ccf072&#45;&gt;dir_4fef79e7177ba769987a8da36c892c5f</title>
<g id="a_edge2"><a xlink:href="dir_000001_000010.html" target="_top">
<path fill="none" stroke="#63b8ff" d="M147.77,-199.11C201.66,-190.39 313.56,-170.98 326,-158.25 352.62,-131.01 354.04,-83.48 352.29,-56.21"/>
<polygon fill="#63b8ff" stroke="#63b8ff" points="355.79,-56.1 351.44,-46.44 348.82,-56.71 355.79,-56.1"/>
</a>
</g>
<g id="a_edge2&#45;headlabel"><a xlink:href="dir_000001_000010.html" target="_top" xlink:title="2">
<text text-anchor="middle" x="358.8" y="-54.8" font-family="Helvetica,sans-Serif" font-size="10.00" fill="#63b8ff">2</text>
</a>
</g>
</g>
<!-- dir_21f7a74b6c5f1eb2415984ada0252316 -->
<g id="node4" class="node">
<title>dir_21f7a74b6c5f1eb2415984ada0252316</title>
<g id="a_node4"><a xlink:href="dir_21f7a74b6c5f1eb2415984ada0252316.html" target="_top" xlink:title="CAPI">
<polygon fill="#a2b4d6" stroke="#404040" points="230.25,-215 191.75,-215 191.75,-194.25 230.25,-194.25 230.25,-215"/>
<text text-anchor="middle" x="211" y="-201.5" font-family="Helvetica,sans-Serif" font-size="10.00">CAPI</text>
</a>
</g>
</g>
<!-- dir_21f7a74b6c5f1eb2415984ada0252316&#45;&gt;dir_eb82103dcc149a6c60866abd7bb0bab0 -->
<g id="edge6" class="edge">
<title>dir_21f7a74b6c5f1eb2415984ada0252316&#45;&gt;dir_eb82103dcc149a6c60866abd7bb0bab0</title>
<g id="a_edge6"><a xlink:href="dir_000011_000095.html" target="_top">
<path fill="none" stroke="#63b8ff" d="M225.66,-193.84C237.67,-185.82 254.91,-174.31 268.94,-164.94"/>
<polygon fill="#63b8ff" stroke="#63b8ff" points="270.84,-167.88 277.21,-159.42 266.95,-162.06 270.84,-167.88"/>
</a>
</g>
<g id="a_edge6&#45;headlabel"><a xlink:href="dir_000011_000095.html" target="_top" xlink:title="2">
<text text-anchor="middle" x="270.68" y="-168.27" font-family="Helvetica,sans-Serif" font-size="10.00" fill="#63b8ff">2</text>
</a>
</g>
</g>
<!-- dir_21f7a74b6c5f1eb2415984ada0252316&#45;&gt;dir_961f7ef292a3987e3723514feaf3f181 -->
<g id="edge5" class="edge">
<title>dir_21f7a74b6c5f1eb2415984ada0252316&#45;&gt;dir_961f7ef292a3987e3723514feaf3f181</title>
<g id="a_edge5"><a xlink:href="dir_000011_000022.html" target="_top">
<path fill="none" stroke="#63b8ff" d="M203.31,-193.84C197.56,-186.52 189.53,-176.29 182.58,-167.44"/>
<polygon fill="#63b8ff" stroke="#63b8ff" points="185.49,-165.47 176.56,-159.77 179.98,-169.8 185.49,-165.47"/>
</a>
</g>
<g id="a_edge5&#45;headlabel"><a xlink:href="dir_000011_000022.html" target="_top" xlink:title="1">
<text text-anchor="middle" x="189" y="-162.23" font-family="Helvetica,sans-Serif" font-size="10.00" fill="#63b8ff">1</text>
</a>
</g>
</g>
<!-- dir_961f7ef292a3987e3723514feaf3f181&#45;&gt;dir_459833b041acece43aa610615f5ca5a8 -->
<g id="edge10" class="edge">
<title>dir_961f7ef292a3987e3723514feaf3f181&#45;&gt;dir_459833b041acece43aa610615f5ca5a8</title>
<g id="a_edge10"><a xlink:href="dir_000022_000100.html" target="_top">
<path fill="none" stroke="#63b8ff" d="M164.45,-137.37C162.12,-119.52 163.38,-80.61 166.65,-56.34"/>
<polygon fill="#63b8ff" stroke="#63b8ff" points="170.07,-57.11 168.28,-46.67 163.17,-55.95 170.07,-57.11"/>
</a>
</g>
<g id="a_edge10&#45;headlabel"><a xlink:href="dir_000022_000100.html" target="_top" xlink:title="4">
<text text-anchor="middle" x="172.52" y="-56.51" font-family="Helvetica,sans-Serif" font-size="10.00" fill="#63b8ff">4</text>
</a>
</g>
</g>
<!-- dir_8c19de2196b4b9037b2ef87455b6f2bd -->
<g id="node7" class="node">
<title>dir_8c19de2196b4b9037b2ef87455b6f2bd</title>
<g id="a_node7"><a xlink:href="dir_8c19de2196b4b9037b2ef87455b6f2bd.html" target="_top" xlink:title="Transforms">
<polygon fill="#a2b4d6" stroke="#404040" points="154,-101.5 84,-101.5 84,-80.75 154,-80.75 154,-101.5"/>
<text text-anchor="middle" x="119" y="-88" font-family="Helvetica,sans-Serif" font-size="10.00">Transforms</text>
</a>
</g>
</g>
<!-- dir_961f7ef292a3987e3723514feaf3f181&#45;&gt;dir_8c19de2196b4b9037b2ef87455b6f2bd -->
<g id="edge8" class="edge">
<title>dir_961f7ef292a3987e3723514feaf3f181&#45;&gt;dir_8c19de2196b4b9037b2ef87455b6f2bd</title>
<g id="a_edge8"><a xlink:href="dir_000022_000135.html" target="_top">
<path fill="none" stroke="#63b8ff" d="M153.92,-137.09C145.97,-129.77 136.44,-119.54 129.19,-110.69"/>
<polygon fill="#63b8ff" stroke="#63b8ff" points="132.17,-108.83 123.31,-103.03 126.62,-113.09 132.17,-108.83"/>
</a>
</g>
<g id="a_edge8&#45;headlabel"><a xlink:href="dir_000022_000135.html" target="_top" xlink:title="1">
<text text-anchor="middle" x="135.69" y="-105.63" font-family="Helvetica,sans-Serif" font-size="10.00" fill="#63b8ff">1</text>
</a>
</g>
</g>
<!-- dir_961f7ef292a3987e3723514feaf3f181&#45;&gt;dir_7093d9bec9e6df023c20339d9b6c0d59 -->
<g id="edge9" class="edge">
<title>dir_961f7ef292a3987e3723514feaf3f181&#45;&gt;dir_7093d9bec9e6df023c20339d9b6c0d59</title>
<g id="a_edge9"><a xlink:href="dir_000022_000144.html" target="_top">
<path fill="none" stroke="#63b8ff" d="M142.43,-141.39C120.92,-135.38 91.16,-123.51 75,-101.5 65.53,-88.6 63.36,-70.43 63.37,-56.4"/>
<polygon fill="#63b8ff" stroke="#63b8ff" points="66.86,-56.59 63.79,-46.46 59.87,-56.3 66.86,-56.59"/>
</a>
</g>
<g id="a_edge9&#45;headlabel"><a xlink:href="dir_000022_000144.html" target="_top" xlink:title="14">
<text text-anchor="middle" x="69.61" y="-55.67" font-family="Helvetica,sans-Serif" font-size="10.00" fill="#63b8ff">14</text>
</a>
</g>
</g>
<!-- dir_961f7ef292a3987e3723514feaf3f181&#45;&gt;dir_4fef79e7177ba769987a8da36c892c5f -->
<g id="edge7" class="edge">
<title>dir_961f7ef292a3987e3723514feaf3f181&#45;&gt;dir_4fef79e7177ba769987a8da36c892c5f</title>
<g id="a_edge7"><a xlink:href="dir_000022_000010.html" target="_top">
<path fill="none" stroke="#63b8ff" d="M192.7,-137.13C212.78,-128.79 241.53,-115.87 265,-101.5 288.95,-86.84 314.05,-66.62 330.71,-52.41"/>
<polygon fill="#63b8ff" stroke="#63b8ff" points="332.62,-55.39 337.9,-46.2 328.04,-50.1 332.62,-55.39"/>
</a>
</g>
<g id="a_edge7&#45;headlabel"><a xlink:href="dir_000022_000010.html" target="_top" xlink:title="64">
<text text-anchor="middle" x="332.91" y="-55.77" font-family="Helvetica,sans-Serif" font-size="10.00" fill="#63b8ff">64</text>
</a>
</g>
</g>
<!-- dir_459833b041acece43aa610615f5ca5a8&#45;&gt;dir_961f7ef292a3987e3723514feaf3f181 -->
<g id="edge11" class="edge">
<title>dir_459833b041acece43aa610615f5ca5a8&#45;&gt;dir_961f7ef292a3987e3723514feaf3f181</title>
<g id="a_edge11"><a xlink:href="dir_000100_000022.html" target="_top">
<path fill="none" stroke="#63b8ff" d="M176.59,-45.18C178.88,-63.25 177.58,-102.2 174.3,-126.3"/>
<polygon fill="#63b8ff" stroke="#63b8ff" points="170.9,-125.43 172.66,-135.88 177.8,-126.61 170.9,-125.43"/>
</a>
</g>
<g id="a_edge11&#45;headlabel"><a xlink:href="dir_000100_000022.html" target="_top" xlink:title="11">
<text text-anchor="middle" x="168.45" y="-119.78" font-family="Helvetica,sans-Serif" font-size="10.00" fill="#63b8ff">11</text>
</a>
</g>
</g>
<!-- dir_8c19de2196b4b9037b2ef87455b6f2bd&#45;&gt;dir_65cd0a6beb1707f32c23cd7936ccf072 -->
<g id="edge14" class="edge">
<title>dir_8c19de2196b4b9037b2ef87455b6f2bd&#45;&gt;dir_65cd0a6beb1707f32c23cd7936ccf072</title>
<g id="a_edge14"><a xlink:href="dir_000135_000001.html" target="_top">
<path fill="none" stroke="#63b8ff" d="M119,-101.93C119,-119.92 119,-158.59 119,-182.72"/>
<polygon fill="#63b8ff" stroke="#63b8ff" points="115.5,-182.6 119,-192.61 122.5,-182.61 115.5,-182.6"/>
</a>
</g>
<g id="a_edge14&#45;headlabel"><a xlink:href="dir_000135_000001.html" target="_top" xlink:title="1">
<text text-anchor="middle" x="112.66" y="-177.4" font-family="Helvetica,sans-Serif" font-size="10.00" fill="#63b8ff">1</text>
</a>
</g>
</g>
<!-- dir_8c19de2196b4b9037b2ef87455b6f2bd&#45;&gt;dir_961f7ef292a3987e3723514feaf3f181 -->
<g id="edge16" class="edge">
<title>dir_8c19de2196b4b9037b2ef87455b6f2bd&#45;&gt;dir_961f7ef292a3987e3723514feaf3f181</title>
<g id="a_edge16"><a xlink:href="dir_000135_000022.html" target="_top">
<path fill="none" stroke="#63b8ff" d="M132.98,-101.83C140.93,-109.12 150.46,-119.34 157.73,-128.21"/>
<polygon fill="#63b8ff" stroke="#63b8ff" points="154.76,-130.09 163.63,-135.89 160.31,-125.83 154.76,-130.09"/>
</a>
</g>
<g id="a_edge16&#45;headlabel"><a xlink:href="dir_000135_000022.html" target="_top" xlink:title="8">
<text text-anchor="middle" x="151.24" y="-127.05" font-family="Helvetica,sans-Serif" font-size="10.00" fill="#63b8ff">8</text>
</a>
</g>
</g>
<!-- dir_8c19de2196b4b9037b2ef87455b6f2bd&#45;&gt;dir_459833b041acece43aa610615f5ca5a8 -->
<g id="edge12" class="edge">
<title>dir_8c19de2196b4b9037b2ef87455b6f2bd&#45;&gt;dir_459833b041acece43aa610615f5ca5a8</title>
<g id="a_edge12"><a xlink:href="dir_000135_000100.html" target="_top">
<path fill="none" stroke="#63b8ff" d="M128.65,-80.34C136.1,-72.78 146.61,-62.14 155.52,-53.1"/>
<polygon fill="#63b8ff" stroke="#63b8ff" points="157.84,-55.73 162.37,-46.16 152.85,-50.82 157.84,-55.73"/>
</a>
</g>
<g id="a_edge12&#45;headlabel"><a xlink:href="dir_000135_000100.html" target="_top" xlink:title="1">
<text text-anchor="middle" x="158.4" y="-56.08" font-family="Helvetica,sans-Serif" font-size="10.00" fill="#63b8ff">1</text>
</a>
</g>
</g>
<!-- dir_8c19de2196b4b9037b2ef87455b6f2bd&#45;&gt;dir_7093d9bec9e6df023c20339d9b6c0d59 -->
<g id="edge15" class="edge">
<title>dir_8c19de2196b4b9037b2ef87455b6f2bd&#45;&gt;dir_7093d9bec9e6df023c20339d9b6c0d59</title>
<g id="a_edge15"><a xlink:href="dir_000135_000144.html" target="_top">
<path fill="none" stroke="#63b8ff" d="M109.35,-80.34C101.9,-72.78 91.39,-62.14 82.48,-53.1"/>
<polygon fill="#63b8ff" stroke="#63b8ff" points="85.15,-50.82 75.63,-46.16 80.16,-55.73 85.15,-50.82"/>
</a>
</g>
<g id="a_edge15&#45;headlabel"><a xlink:href="dir_000135_000144.html" target="_top" xlink:title="2">
<text text-anchor="middle" x="88.63" y="-47.18" font-family="Helvetica,sans-Serif" font-size="10.00" fill="#63b8ff">2</text>
</a>
</g>
</g>
<!-- dir_8c19de2196b4b9037b2ef87455b6f2bd&#45;&gt;dir_4fef79e7177ba769987a8da36c892c5f -->
<g id="edge13" class="edge">
<title>dir_8c19de2196b4b9037b2ef87455b6f2bd&#45;&gt;dir_4fef79e7177ba769987a8da36c892c5f</title>
<g id="a_edge13"><a xlink:href="dir_000135_000010.html" target="_top">
<path fill="none" stroke="#63b8ff" d="M154.34,-81.75C199.16,-71.13 275.77,-52.97 318.62,-42.81"/>
<polygon fill="#63b8ff" stroke="#63b8ff" points="319.36,-46.23 328.29,-40.52 317.75,-39.42 319.36,-46.23"/>
</a>
</g>
<g id="a_edge13&#45;headlabel"><a xlink:href="dir_000135_000010.html" target="_top" xlink:title="3">
<text text-anchor="middle" x="317.99" y="-46.35" font-family="Helvetica,sans-Serif" font-size="10.00" fill="#63b8ff">3</text>
</a>
</g>
</g>
<!-- dir_006f948be47a2a3cfc802ecb2004dee0 -->
<g id="node9" class="node">
<title>dir_006f948be47a2a3cfc802ecb2004dee0</title>
<g id="a_node9"><a xlink:href="dir_006f948be47a2a3cfc802ecb2004dee0.html" target="_top" xlink:title="Validators">
<polygon fill="#a2b4d6" stroke="#404040" points="256.38,-101.5 191.62,-101.5 191.62,-80.75 256.38,-80.75 256.38,-101.5"/>
<text text-anchor="middle" x="224" y="-88" font-family="Helvetica,sans-Serif" font-size="10.00">Validators</text>
</a>
</g>
</g>
<!-- dir_006f948be47a2a3cfc802ecb2004dee0&#45;&gt;dir_459833b041acece43aa610615f5ca5a8 -->
<g id="edge17" class="edge">
<title>dir_006f948be47a2a3cfc802ecb2004dee0&#45;&gt;dir_459833b041acece43aa610615f5ca5a8</title>
<g id="a_edge17"><a xlink:href="dir_000150_000100.html" target="_top">
<path fill="none" stroke="#63b8ff" d="M214.88,-80.34C207.92,-72.86 198.13,-62.36 189.77,-53.38"/>
<polygon fill="#63b8ff" stroke="#63b8ff" points="192.45,-51.12 183.07,-46.19 187.33,-55.89 192.45,-51.12"/>
</a>
</g>
<g id="a_edge17&#45;headlabel"><a xlink:href="dir_000150_000100.html" target="_top" xlink:title="1">
<text text-anchor="middle" x="195.94" y="-47.58" font-family="Helvetica,sans-Serif" font-size="10.00" fill="#63b8ff">1</text>
</a>
</g>
</g>
<!-- dir_006f948be47a2a3cfc802ecb2004dee0&#45;&gt;dir_4fef79e7177ba769987a8da36c892c5f -->
<g id="edge18" class="edge">
<title>dir_006f948be47a2a3cfc802ecb2004dee0&#45;&gt;dir_4fef79e7177ba769987a8da36c892c5f</title>
<g id="a_edge18"><a xlink:href="dir_000150_000010.html" target="_top">
<path fill="none" stroke="#63b8ff" d="M246.53,-80.34C266.84,-71.51 296.9,-58.45 319.39,-48.67"/>
<polygon fill="#63b8ff" stroke="#63b8ff" points="320.58,-51.97 328.36,-44.78 317.79,-45.55 320.58,-51.97"/>
</a>
</g>
<g id="a_edge18&#45;headlabel"><a xlink:href="dir_000150_000010.html" target="_top" xlink:title="1">
<text text-anchor="middle" x="319.81" y="-52.28" font-family="Helvetica,sans-Serif" font-size="10.00" fill="#63b8ff">1</text>
</a>
</g>
</g>
</g>
</svg>
