<?xml version="1.0" encoding="UTF-8" standalone="no"?>
<!DOCTYPE svg PUBLIC "-//W3C//DTD SVG 1.1//EN"
 "http://www.w3.org/Graphics/SVG/1.1/DTD/svg11.dtd">
<!-- Generated by graphviz version 12.2.1 (0)
 -->
<!-- Title: lib/Dialect Pages: 1 -->
<svg width="1079pt" height="132pt"
 viewBox="0.00 0.00 1079.00 131.62" xmlns="http://www.w3.org/2000/svg" xmlns:xlink="http://www.w3.org/1999/xlink">
<g id="graph0" class="graph" transform="scale(1 1) rotate(0) translate(4 127.62)">
<title>lib/Dialect</title>
<g id="clust1" class="cluster">
<title>clusterdir_97aefd0d527b934f1d99a682da8fe6a9</title>
<g id="a_clust1"><a xlink:href="dir_97aefd0d527b934f1d99a682da8fe6a9.html" target="_top" xlink:title="lib">
<polygon fill="#edf0f7" stroke="#404040" stroke-dasharray="5,2" points="8,-42.12 8,-115.62 1063,-115.62 1063,-42.12 8,-42.12"/>
<text text-anchor="middle" x="535.5" y="-102.12" font-family="Helvetica,sans-Serif" font-size="10.00">lib</text>
</a>
</g>
</g>
<g id="clust2" class="cluster">
<title>clusterdir_1a25ec519b6c1121408b67cc33ce3f15</title>
<g id="a_clust2"><a xlink:href="dir_1a25ec519b6c1121408b67cc33ce3f15.html" target="_top">
<polygon fill="#edf0f7" stroke="#404040" stroke-width="2" points="16,-50.12 16,-86.87 1055,-86.87 1055,-50.12 16,-50.12"/>
</a>
</g>
</g>
<!-- dir_1a25ec519b6c1121408b67cc33ce3f15 -->
<g id="node1" class="node">
<title>dir_1a25ec519b6c1121408b67cc33ce3f15</title>
<text text-anchor="middle" x="49" y="-65.37" font-family="Helvetica,sans-Serif" font-size="10.00">Dialect</text>
</g>
<!-- dir_d44c64559bbebec7f509842c48db8b23 -->
<g id="node17" class="node">
<title>dir_d44c64559bbebec7f509842c48db8b23</title>
<g id="a_node17"><a xlink:href="dir_d44c64559bbebec7f509842c48db8b23.html" target="_top" xlink:title="include">
<polygon fill="#edf0f7" stroke="red" points="554.62,-22.12 503.38,-22.12 503.38,-1.37 554.62,-1.37 554.62,-22.12"/>
<text text-anchor="middle" x="529" y="-8.62" font-family="Helvetica,sans-Serif" font-size="10.00">include</text>
</a>
</g>
</g>
<!-- dir_1a25ec519b6c1121408b67cc33ce3f15&#45;&gt;dir_d44c64559bbebec7f509842c48db8b23 -->
<g id="edge1" class="edge">
<title>dir_1a25ec519b6c1121408b67cc33ce3f15&#45;&gt;dir_d44c64559bbebec7f509842c48db8b23</title>
<g id="a_edge1"><a xlink:href="dir_000024_000040.html" target="_top">
<path fill="none" stroke="#63b8ff" d="M58.21,-58.28C64.59,-52.54 73.6,-45.59 83,-42.12 157.54,-14.62 398.2,-12.32 491.53,-12.5"/>
<polygon fill="#63b8ff" stroke="#63b8ff" points="491.4,-16 501.41,-12.53 491.42,-9 491.4,-16"/>
</a>
</g>
<g id="a_edge1&#45;headlabel"><a xlink:href="dir_000024_000040.html" target="_top" xlink:title="246">
<text text-anchor="middle" x="489.31" y="-15.71" font-family="Helvetica,sans-Serif" font-size="10.00" fill="#63b8ff">246</text>
</a>
</g>
</g>
<!-- dir_bd2062b8c4ad1f43d1e921ef361eb9b3 -->
<g id="node2" class="node">
<title>dir_bd2062b8c4ad1f43d1e921ef361eb9b3</title>
<g id="a_node2"><a xlink:href="dir_bd2062b8c4ad1f43d1e921ef361eb9b3.html" target="_top" xlink:title="Array">
<polygon fill="#a2b4d6" stroke="#404040" points="202.12,-78.87 159.88,-78.87 159.88,-58.12 202.12,-58.12 202.12,-78.87"/>
<text text-anchor="middle" x="181" y="-65.37" font-family="Helvetica,sans-Serif" font-size="10.00">Array</text>
</a>
</g>
</g>
<!-- dir_bd2062b8c4ad1f43d1e921ef361eb9b3&#45;&gt;dir_d44c64559bbebec7f509842c48db8b23 -->
<g id="edge2" class="edge">
<title>dir_bd2062b8c4ad1f43d1e921ef361eb9b3&#45;&gt;dir_d44c64559bbebec7f509842c48db8b23</title>
<g id="a_edge2"><a xlink:href="dir_000005_000040.html" target="_top">
<path fill="none" stroke="#63b8ff" d="M189.45,-57.86C194.98,-52.24 202.7,-45.61 211,-42.12 260.76,-21.25 418.72,-15.14 491.55,-13.41"/>
<polygon fill="#63b8ff" stroke="#63b8ff" points="491.46,-16.91 501.38,-13.19 491.3,-9.91 491.46,-16.91"/>
</a>
</g>
<g id="a_edge2&#45;headlabel"><a xlink:href="dir_000005_000040.html" target="_top" xlink:title="26">
<text text-anchor="middle" x="489.44" y="-16.67" font-family="Helvetica,sans-Serif" font-size="10.00" fill="#63b8ff">26</text>
</a>
</g>
</g>
<!-- dir_4fef79e7177ba769987a8da36c892c5f -->
<g id="node18" class="node">
<title>dir_4fef79e7177ba769987a8da36c892c5f</title>
<g id="a_node18"><a xlink:href="dir_4fef79e7177ba769987a8da36c892c5f.html" target="_top" xlink:title="build">
<polygon fill="#edf0f7" stroke="red" points="616,-22.12 576,-22.12 576,-1.37 616,-1.37 616,-22.12"/>
<text text-anchor="middle" x="596" y="-8.62" font-family="Helvetica,sans-Serif" font-size="10.00">build</text>
</a>
</g>
</g>
<!-- dir_bd2062b8c4ad1f43d1e921ef361eb9b3&#45;&gt;dir_4fef79e7177ba769987a8da36c892c5f -->
<g id="edge3" class="edge">
<title>dir_bd2062b8c4ad1f43d1e921ef361eb9b3&#45;&gt;dir_4fef79e7177ba769987a8da36c892c5f</title>
<g id="a_edge3"><a xlink:href="dir_000005_000010.html" target="_top">
<path fill="none" stroke="#63b8ff" d="M189.41,-57.75C194.92,-52.1 202.64,-45.46 211,-42.12 283.98,-13.03 486.57,-35.48 564,-22.12 564.12,-22.1 564.24,-22.08 564.35,-22.06"/>
<polygon fill="#63b8ff" stroke="#63b8ff" points="565.07,-25.49 574.03,-19.84 563.5,-18.67 565.07,-25.49"/>
</a>
</g>
<g id="a_edge3&#45;headlabel"><a xlink:href="dir_000005_000010.html" target="_top" xlink:title="6">
<text text-anchor="middle" x="563.67" y="-25.6" font-family="Helvetica,sans-Serif" font-size="10.00" fill="#63b8ff">6</text>
</a>
</g>
</g>
<!-- dir_4dbf26eca751fbd2e4173c3c5908866b -->
<g id="node3" class="node">
<title>dir_4dbf26eca751fbd2e4173c3c5908866b</title>
<g id="a_node3"><a xlink:href="dir_4dbf26eca751fbd2e4173c3c5908866b.html" target="_top" xlink:title="Bool">
<polygon fill="#a2b4d6" stroke="#404040" points="257.88,-78.87 220.12,-78.87 220.12,-58.12 257.88,-58.12 257.88,-78.87"/>
<text text-anchor="middle" x="239" y="-65.37" font-family="Helvetica,sans-Serif" font-size="10.00">Bool</text>
</a>
</g>
</g>
<!-- dir_4dbf26eca751fbd2e4173c3c5908866b&#45;&gt;dir_d44c64559bbebec7f509842c48db8b23 -->
<g id="edge4" class="edge">
<title>dir_4dbf26eca751fbd2e4173c3c5908866b&#45;&gt;dir_d44c64559bbebec7f509842c48db8b23</title>
<g id="a_edge4"><a xlink:href="dir_000009_000040.html" target="_top">
<path fill="none" stroke="#63b8ff" d="M247.02,-57.66C252.13,-52.12 259.23,-45.63 267,-42.12 306.29,-24.39 429.6,-16.85 492.02,-14.1"/>
<polygon fill="#63b8ff" stroke="#63b8ff" points="491.94,-17.61 501.78,-13.69 491.64,-10.62 491.94,-17.61"/>
</a>
</g>
<g id="a_edge4&#45;headlabel"><a xlink:href="dir_000009_000040.html" target="_top" xlink:title="9">
<text text-anchor="middle" x="489.98" y="-17.41" font-family="Helvetica,sans-Serif" font-size="10.00" fill="#63b8ff">9</text>
</a>
</g>
</g>
<!-- dir_4dbf26eca751fbd2e4173c3c5908866b&#45;&gt;dir_4fef79e7177ba769987a8da36c892c5f -->
<g id="edge5" class="edge">
<title>dir_4dbf26eca751fbd2e4173c3c5908866b&#45;&gt;dir_4fef79e7177ba769987a8da36c892c5f</title>
<g id="a_edge5"><a xlink:href="dir_000009_000010.html" target="_top">
<path fill="none" stroke="#63b8ff" d="M246.73,-57.79C251.83,-52.15 259.03,-45.51 267,-42.12 327.88,-16.26 498.87,-33.71 564,-22.12 564.12,-22.1 564.24,-22.08 564.35,-22.06"/>
<polygon fill="#63b8ff" stroke="#63b8ff" points="565.08,-25.48 574.03,-19.81 563.49,-18.67 565.08,-25.48"/>
</a>
</g>
<g id="a_edge5&#45;headlabel"><a xlink:href="dir_000009_000010.html" target="_top" xlink:title="5">
<text text-anchor="middle" x="563.69" y="-25.6" font-family="Helvetica,sans-Serif" font-size="10.00" fill="#63b8ff">5</text>
</a>
</g>
</g>
<!-- dir_0505d867013fed46ab4974dca6496acd -->
<g id="node4" class="node">
<title>dir_0505d867013fed46ab4974dca6496acd</title>
<g id="a_node4"><a xlink:href="dir_0505d867013fed46ab4974dca6496acd.html" target="_top" xlink:title="Cast">
<polygon fill="#a2b4d6" stroke="#404040" points="313.88,-78.87 276.12,-78.87 276.12,-58.12 313.88,-58.12 313.88,-78.87"/>
<text text-anchor="middle" x="295" y="-65.37" font-family="Helvetica,sans-Serif" font-size="10.00">Cast</text>
</a>
</g>
</g>
<!-- dir_0505d867013fed46ab4974dca6496acd&#45;&gt;dir_d44c64559bbebec7f509842c48db8b23 -->
<g id="edge6" class="edge">
<title>dir_0505d867013fed46ab4974dca6496acd&#45;&gt;dir_d44c64559bbebec7f509842c48db8b23</title>
<g id="a_edge6"><a xlink:href="dir_000015_000040.html" target="_top">
<path fill="none" stroke="#63b8ff" d="M303.06,-57.74C308.18,-52.24 315.28,-45.75 323,-42.12 352.2,-28.41 440.91,-19.54 491.89,-15.42"/>
<polygon fill="#63b8ff" stroke="#63b8ff" points="491.87,-18.93 501.56,-14.66 491.32,-11.96 491.87,-18.93"/>
</a>
</g>
<g id="a_edge6&#45;headlabel"><a xlink:href="dir_000015_000040.html" target="_top" xlink:title="6">
<text text-anchor="middle" x="490.02" y="-18.8" font-family="Helvetica,sans-Serif" font-size="10.00" fill="#63b8ff">6</text>
</a>
</g>
</g>
<!-- dir_0505d867013fed46ab4974dca6496acd&#45;&gt;dir_4fef79e7177ba769987a8da36c892c5f -->
<g id="edge7" class="edge">
<title>dir_0505d867013fed46ab4974dca6496acd&#45;&gt;dir_4fef79e7177ba769987a8da36c892c5f</title>
<g id="a_edge7"><a xlink:href="dir_000015_000010.html" target="_top">
<path fill="none" stroke="#63b8ff" d="M302.75,-57.83C307.86,-52.21 315.06,-45.57 323,-42.12 421.59,0.67 458.33,-41.78 564,-22.12 564.24,-22.08 564.48,-22.03 564.73,-21.99"/>
<polygon fill="#63b8ff" stroke="#63b8ff" points="565.45,-25.41 574.36,-19.68 563.82,-18.6 565.45,-25.41"/>
</a>
</g>
<g id="a_edge7&#45;headlabel"><a xlink:href="dir_000015_000010.html" target="_top" xlink:title="3">
<text text-anchor="middle" x="564.09" y="-25.53" font-family="Helvetica,sans-Serif" font-size="10.00" fill="#63b8ff">3</text>
</a>
</g>
</g>
<!-- dir_de74d209c7b6d8175fe41883c961ccd5 -->
<g id="node5" class="node">
<title>dir_de74d209c7b6d8175fe41883c961ccd5</title>
<g id="a_node5"><a xlink:href="dir_de74d209c7b6d8175fe41883c961ccd5.html" target="_top" xlink:title="Constrain">
<polygon fill="#a2b4d6" stroke="#404040" points="394.25,-78.87 331.75,-78.87 331.75,-58.12 394.25,-58.12 394.25,-78.87"/>
<text text-anchor="middle" x="363" y="-65.37" font-family="Helvetica,sans-Serif" font-size="10.00">Constrain</text>
</a>
</g>
</g>
<!-- dir_de74d209c7b6d8175fe41883c961ccd5&#45;&gt;dir_d44c64559bbebec7f509842c48db8b23 -->
<g id="edge8" class="edge">
<title>dir_de74d209c7b6d8175fe41883c961ccd5&#45;&gt;dir_d44c64559bbebec7f509842c48db8b23</title>
<g id="a_edge8"><a xlink:href="dir_000019_000040.html" target="_top">
<path fill="none" stroke="#63b8ff" d="M375.72,-57.87C383.29,-52.54 393.29,-46.2 403,-42.12 431.74,-30.07 466.34,-22.45 492,-18"/>
<polygon fill="#63b8ff" stroke="#63b8ff" points="492.32,-21.5 501.62,-16.42 491.19,-14.59 492.32,-21.5"/>
</a>
</g>
<g id="a_edge8&#45;headlabel"><a xlink:href="dir_000019_000040.html" target="_top" xlink:title="9">
<text text-anchor="middle" x="490.73" y="-21.51" font-family="Helvetica,sans-Serif" font-size="10.00" fill="#63b8ff">9</text>
</a>
</g>
</g>
<!-- dir_de74d209c7b6d8175fe41883c961ccd5&#45;&gt;dir_4fef79e7177ba769987a8da36c892c5f -->
<g id="edge9" class="edge">
<title>dir_de74d209c7b6d8175fe41883c961ccd5&#45;&gt;dir_4fef79e7177ba769987a8da36c892c5f</title>
<g id="a_edge9"><a xlink:href="dir_000019_000010.html" target="_top">
<path fill="none" stroke="#63b8ff" d="M375.22,-57.73C382.78,-52.22 392.94,-45.73 403,-42.12 470.87,-17.77 493.39,-36.75 564,-22.12 564.24,-22.07 564.48,-22.02 564.73,-21.97"/>
<polygon fill="#63b8ff" stroke="#63b8ff" points="565.49,-25.39 574.34,-19.57 563.79,-18.6 565.49,-25.39"/>
</a>
</g>
<g id="a_edge9&#45;headlabel"><a xlink:href="dir_000019_000010.html" target="_top" xlink:title="3">
<text text-anchor="middle" x="564.16" y="-25.52" font-family="Helvetica,sans-Serif" font-size="10.00" fill="#63b8ff">3</text>
</a>
</g>
</g>
<!-- dir_fbb5839660df89f0c7872b7fe52b5d6c -->
<g id="node6" class="node">
<title>dir_fbb5839660df89f0c7872b7fe52b5d6c</title>
<g id="a_node6"><a xlink:href="dir_fbb5839660df89f0c7872b7fe52b5d6c.html" target="_top" xlink:title="Felt">
<polygon fill="#a2b4d6" stroke="#404040" points="446,-78.87 412,-78.87 412,-58.12 446,-58.12 446,-78.87"/>
<text text-anchor="middle" x="429" y="-65.37" font-family="Helvetica,sans-Serif" font-size="10.00">Felt</text>
</a>
</g>
</g>
<!-- dir_fbb5839660df89f0c7872b7fe52b5d6c&#45;&gt;dir_d44c64559bbebec7f509842c48db8b23 -->
<g id="edge10" class="edge">
<title>dir_fbb5839660df89f0c7872b7fe52b5d6c&#45;&gt;dir_d44c64559bbebec7f509842c48db8b23</title>
<g id="a_edge10"><a xlink:href="dir_000029_000040.html" target="_top">
<path fill="none" stroke="#63b8ff" d="M437.15,-57.86C441.93,-52.66 448.33,-46.45 455,-42.12 466.48,-34.68 480.15,-28.59 492.59,-23.94"/>
<polygon fill="#63b8ff" stroke="#63b8ff" points="493.44,-27.35 501.7,-20.72 491.11,-20.75 493.44,-27.35"/>
</a>
</g>
<g id="a_edge10&#45;headlabel"><a xlink:href="dir_000029_000040.html" target="_top" xlink:title="14">
<text text-anchor="middle" x="492.43" y="-27.6" font-family="Helvetica,sans-Serif" font-size="10.00" fill="#63b8ff">14</text>
</a>
</g>
</g>
<!-- dir_fbb5839660df89f0c7872b7fe52b5d6c&#45;&gt;dir_4fef79e7177ba769987a8da36c892c5f -->
<g id="edge11" class="edge">
<title>dir_fbb5839660df89f0c7872b7fe52b5d6c&#45;&gt;dir_4fef79e7177ba769987a8da36c892c5f</title>
<g id="a_edge11"><a xlink:href="dir_000029_000010.html" target="_top">
<path fill="none" stroke="#63b8ff" d="M436.19,-58.1C440.92,-52.58 447.6,-45.95 455,-42.12 498.75,-19.5 516.08,-33.51 564,-22.12 564.24,-22.07 564.48,-22.01 564.72,-21.95"/>
<polygon fill="#63b8ff" stroke="#63b8ff" points="565.54,-25.35 574.31,-19.41 563.74,-18.59 565.54,-25.35"/>
</a>
</g>
<g id="a_edge11&#45;headlabel"><a xlink:href="dir_000029_000010.html" target="_top" xlink:title="6">
<text text-anchor="middle" x="564.26" y="-25.51" font-family="Helvetica,sans-Serif" font-size="10.00" fill="#63b8ff">6</text>
</a>
</g>
</g>
<!-- dir_4a8940de4e1d9e046cff05088174c6f2 -->
<g id="node7" class="node">
<title>dir_4a8940de4e1d9e046cff05088174c6f2</title>
<g id="a_node7"><a xlink:href="dir_4a8940de4e1d9e046cff05088174c6f2.html" target="_top" xlink:title="Function">
<polygon fill="#a2b4d6" stroke="#404040" points="521.62,-78.87 464.38,-78.87 464.38,-58.12 521.62,-58.12 521.62,-78.87"/>
<text text-anchor="middle" x="493" y="-65.37" font-family="Helvetica,sans-Serif" font-size="10.00">Function</text>
</a>
</g>
</g>
<!-- dir_4a8940de4e1d9e046cff05088174c6f2&#45;&gt;dir_d44c64559bbebec7f509842c48db8b23 -->
<g id="edge12" class="edge">
<title>dir_4a8940de4e1d9e046cff05088174c6f2&#45;&gt;dir_d44c64559bbebec7f509842c48db8b23</title>
<g id="a_edge12"><a xlink:href="dir_000032_000040.html" target="_top">
<path fill="none" stroke="#63b8ff" d="M499.44,-57.71C504.15,-50.55 510.69,-40.6 516.42,-31.88"/>
<polygon fill="#63b8ff" stroke="#63b8ff" points="519.22,-34 521.79,-23.72 513.37,-30.15 519.22,-34"/>
</a>
</g>
<g id="a_edge12&#45;headlabel"><a xlink:href="dir_000032_000040.html" target="_top" xlink:title="23">
<text text-anchor="middle" x="520.45" y="-34.17" font-family="Helvetica,sans-Serif" font-size="10.00" fill="#63b8ff">23</text>
</a>
</g>
</g>
<!-- dir_4a8940de4e1d9e046cff05088174c6f2&#45;&gt;dir_4fef79e7177ba769987a8da36c892c5f -->
<g id="edge13" class="edge">
<title>dir_4a8940de4e1d9e046cff05088174c6f2&#45;&gt;dir_4fef79e7177ba769987a8da36c892c5f</title>
<g id="a_edge13"><a xlink:href="dir_000032_000010.html" target="_top">
<path fill="none" stroke="#63b8ff" d="M505.98,-57.73C512.91,-52.74 521.71,-46.76 530,-42.12 541.2,-35.86 553.99,-29.91 565.31,-25.03"/>
<polygon fill="#63b8ff" stroke="#63b8ff" points="566.35,-28.38 574.21,-21.28 563.64,-21.93 566.35,-28.38"/>
</a>
</g>
<g id="a_edge13&#45;headlabel"><a xlink:href="dir_000032_000010.html" target="_top" xlink:title="4">
<text text-anchor="middle" x="565.54" y="-28.68" font-family="Helvetica,sans-Serif" font-size="10.00" fill="#63b8ff">4</text>
</a>
</g>
</g>
<!-- dir_fb315d91a34cbf3080d3279b2d582048 -->
<g id="node8" class="node">
<title>dir_fb315d91a34cbf3080d3279b2d582048</title>
<g id="a_node8"><a xlink:href="dir_fb315d91a34cbf3080d3279b2d582048.html" target="_top" xlink:title="Global">
<polygon fill="#a2b4d6" stroke="#404040" points="586.75,-78.87 539.25,-78.87 539.25,-58.12 586.75,-58.12 586.75,-78.87"/>
<text text-anchor="middle" x="563" y="-65.37" font-family="Helvetica,sans-Serif" font-size="10.00">Global</text>
</a>
</g>
</g>
<!-- dir_fb315d91a34cbf3080d3279b2d582048&#45;&gt;dir_d44c64559bbebec7f509842c48db8b23 -->
<g id="edge14" class="edge">
<title>dir_fb315d91a34cbf3080d3279b2d582048&#45;&gt;dir_d44c64559bbebec7f509842c48db8b23</title>
<g id="a_edge14"><a xlink:href="dir_000035_000040.html" target="_top">
<path fill="none" stroke="#63b8ff" d="M556.92,-57.71C552.52,-50.63 546.43,-40.82 541.06,-32.17"/>
<polygon fill="#63b8ff" stroke="#63b8ff" points="544.07,-30.39 535.82,-23.74 538.13,-34.08 544.07,-30.39"/>
</a>
</g>
<g id="a_edge14&#45;headlabel"><a xlink:href="dir_000035_000040.html" target="_top" xlink:title="10">
<text text-anchor="middle" x="547.58" y="-27.53" font-family="Helvetica,sans-Serif" font-size="10.00" fill="#63b8ff">10</text>
</a>
</g>
</g>
<!-- dir_fb315d91a34cbf3080d3279b2d582048&#45;&gt;dir_4fef79e7177ba769987a8da36c892c5f -->
<g id="edge15" class="edge">
<title>dir_fb315d91a34cbf3080d3279b2d582048&#45;&gt;dir_4fef79e7177ba769987a8da36c892c5f</title>
<g id="a_edge15"><a xlink:href="dir_000035_000010.html" target="_top">
<path fill="none" stroke="#63b8ff" d="M568.9,-57.71C573.17,-50.63 579.08,-40.82 584.3,-32.17"/>
<polygon fill="#63b8ff" stroke="#63b8ff" points="587.21,-34.12 589.37,-23.75 581.21,-30.51 587.21,-34.12"/>
</a>
</g>
<g id="a_edge15&#45;headlabel"><a xlink:href="dir_000035_000010.html" target="_top" xlink:title="4">
<text text-anchor="middle" x="588.56" y="-34.24" font-family="Helvetica,sans-Serif" font-size="10.00" fill="#63b8ff">4</text>
</a>
</g>
</g>
<!-- dir_3ce307b37744c07b966eaee77d2f4223 -->
<g id="node9" class="node">
<title>dir_3ce307b37744c07b966eaee77d2f4223</title>
<g id="a_node9"><a xlink:href="dir_3ce307b37744c07b966eaee77d2f4223.html" target="_top" xlink:title="Include">
<polygon fill="#a2b4d6" stroke="#404040" points="655.62,-78.87 604.38,-78.87 604.38,-58.12 655.62,-58.12 655.62,-78.87"/>
<text text-anchor="middle" x="630" y="-65.37" font-family="Helvetica,sans-Serif" font-size="10.00">Include</text>
</a>
</g>
</g>
<!-- dir_3ce307b37744c07b966eaee77d2f4223&#45;&gt;dir_d44c64559bbebec7f509842c48db8b23 -->
<g id="edge16" class="edge">
<title>dir_3ce307b37744c07b966eaee77d2f4223&#45;&gt;dir_d44c64559bbebec7f509842c48db8b23</title>
<g id="a_edge16"><a xlink:href="dir_000038_000040.html" target="_top">
<path fill="none" stroke="#63b8ff" d="M618.19,-57.64C611.85,-52.62 603.77,-46.64 596,-42.12 586.31,-36.48 575.33,-31.23 565.1,-26.78"/>
<polygon fill="#63b8ff" stroke="#63b8ff" points="566.77,-23.69 556.2,-23.04 564.06,-30.14 566.77,-23.69"/>
</a>
</g>
<g id="a_edge16&#45;headlabel"><a xlink:href="dir_000038_000040.html" target="_top" xlink:title="12">
<text text-anchor="middle" x="569.79" y="-18.76" font-family="Helvetica,sans-Serif" font-size="10.00" fill="#63b8ff">12</text>
</a>
</g>
</g>
<!-- dir_3ce307b37744c07b966eaee77d2f4223&#45;&gt;dir_4fef79e7177ba769987a8da36c892c5f -->
<g id="edge17" class="edge">
<title>dir_3ce307b37744c07b966eaee77d2f4223&#45;&gt;dir_4fef79e7177ba769987a8da36c892c5f</title>
<g id="a_edge17"><a xlink:href="dir_000038_000010.html" target="_top">
<path fill="none" stroke="#63b8ff" d="M623.92,-57.71C619.52,-50.63 613.43,-40.82 608.06,-32.17"/>
<polygon fill="#63b8ff" stroke="#63b8ff" points="611.07,-30.39 602.82,-23.74 605.13,-34.08 611.07,-30.39"/>
</a>
</g>
<g id="a_edge17&#45;headlabel"><a xlink:href="dir_000038_000010.html" target="_top" xlink:title="4">
<text text-anchor="middle" x="614.58" y="-27.53" font-family="Helvetica,sans-Serif" font-size="10.00" fill="#63b8ff">4</text>
</a>
</g>
</g>
<!-- dir_4d10f4490b960d2e71e500e5b338ad63 -->
<g id="node10" class="node">
<title>dir_4d10f4490b960d2e71e500e5b338ad63</title>
<g id="a_node10"><a xlink:href="dir_4d10f4490b960d2e71e500e5b338ad63.html" target="_top" xlink:title="LLZK">
<polygon fill="#a2b4d6" stroke="#404040" points="714,-78.87 674,-78.87 674,-58.12 714,-58.12 714,-78.87"/>
<text text-anchor="middle" x="694" y="-65.37" font-family="Helvetica,sans-Serif" font-size="10.00">LLZK</text>
</a>
</g>
</g>
<!-- dir_4d10f4490b960d2e71e500e5b338ad63&#45;&gt;dir_d44c64559bbebec7f509842c48db8b23 -->
<g id="edge19" class="edge">
<title>dir_4d10f4490b960d2e71e500e5b338ad63&#45;&gt;dir_d44c64559bbebec7f509842c48db8b23</title>
<g id="a_edge19"><a xlink:href="dir_000087_000040.html" target="_top">
<path fill="none" stroke="#63b8ff" d="M685.25,-57.66C679.92,-52.27 672.67,-45.93 665,-42.12 625.17,-22.39 610.37,-31.89 567,-22.12 566.63,-22.04 566.25,-21.95 565.88,-21.87"/>
<polygon fill="#63b8ff" stroke="#63b8ff" points="566.73,-18.47 556.2,-19.59 565.13,-25.29 566.73,-18.47"/>
</a>
</g>
<g id="a_edge19&#45;headlabel"><a xlink:href="dir_000087_000040.html" target="_top" xlink:title="12">
<text text-anchor="middle" x="569.41" y="-13.06" font-family="Helvetica,sans-Serif" font-size="10.00" fill="#63b8ff">12</text>
</a>
</g>
</g>
<!-- dir_4d10f4490b960d2e71e500e5b338ad63&#45;&gt;dir_4fef79e7177ba769987a8da36c892c5f -->
<g id="edge18" class="edge">
<title>dir_4d10f4490b960d2e71e500e5b338ad63&#45;&gt;dir_4fef79e7177ba769987a8da36c892c5f</title>
<g id="a_edge18"><a xlink:href="dir_000087_000010.html" target="_top">
<path fill="none" stroke="#63b8ff" d="M684.42,-57.73C679.05,-52.63 672.03,-46.53 665,-42.12 653.27,-34.76 639.36,-28.44 627.12,-23.57"/>
<polygon fill="#63b8ff" stroke="#63b8ff" points="628.47,-20.34 617.87,-20.05 625.98,-26.88 628.47,-20.34"/>
</a>
</g>
<g id="a_edge18&#45;headlabel"><a xlink:href="dir_000087_000010.html" target="_top" xlink:title="6">
<text text-anchor="middle" x="631.42" y="-15.3" font-family="Helvetica,sans-Serif" font-size="10.00" fill="#63b8ff">6</text>
</a>
</g>
</g>
<!-- dir_1af0ae7a8f4fcaffe5681d325dc74e64 -->
<g id="node11" class="node">
<title>dir_1af0ae7a8f4fcaffe5681d325dc74e64</title>
<g id="a_node11"><a xlink:href="dir_1af0ae7a8f4fcaffe5681d325dc74e64.html" target="_top" xlink:title="POD">
<polygon fill="#a2b4d6" stroke="#404040" points="769.5,-78.87 732.5,-78.87 732.5,-58.12 769.5,-58.12 769.5,-78.87"/>
<text text-anchor="middle" x="751" y="-65.37" font-family="Helvetica,sans-Serif" font-size="10.00">POD</text>
</a>
</g>
</g>
<!-- dir_1af0ae7a8f4fcaffe5681d325dc74e64&#45;&gt;dir_d44c64559bbebec7f509842c48db8b23 -->
<g id="edge21" class="edge">
<title>dir_1af0ae7a8f4fcaffe5681d325dc74e64&#45;&gt;dir_d44c64559bbebec7f509842c48db8b23</title>
<g id="a_edge21"><a xlink:href="dir_000097_000040.html" target="_top">
<path fill="none" stroke="#63b8ff" d="M742.96,-57.7C737.84,-52.18 730.75,-45.69 723,-42.12 659.52,-12.86 635.71,-34.96 567,-22.12 566.76,-22.08 566.51,-22.03 566.27,-21.99"/>
<polygon fill="#63b8ff" stroke="#63b8ff" points="567.07,-18.58 556.56,-19.91 565.61,-25.42 567.07,-18.58"/>
</a>
</g>
<g id="a_edge21&#45;headlabel"><a xlink:href="dir_000097_000040.html" target="_top" xlink:title="12">
<text text-anchor="middle" x="569.7" y="-13.11" font-family="Helvetica,sans-Serif" font-size="10.00" fill="#63b8ff">12</text>
</a>
</g>
</g>
<!-- dir_1af0ae7a8f4fcaffe5681d325dc74e64&#45;&gt;dir_4fef79e7177ba769987a8da36c892c5f -->
<g id="edge20" class="edge">
<title>dir_1af0ae7a8f4fcaffe5681d325dc74e64&#45;&gt;dir_4fef79e7177ba769987a8da36c892c5f</title>
<g id="a_edge20"><a xlink:href="dir_000097_000010.html" target="_top">
<path fill="none" stroke="#63b8ff" d="M742.58,-57.73C737.44,-52.36 730.44,-46.01 723,-42.12 692.91,-26.39 654.47,-19.01 627.81,-15.6"/>
<polygon fill="#63b8ff" stroke="#63b8ff" points="628.29,-12.13 617.96,-14.46 627.49,-19.08 628.29,-12.13"/>
</a>
</g>
<g id="a_edge20&#45;headlabel"><a xlink:href="dir_000097_000010.html" target="_top" xlink:title="5">
<text text-anchor="middle" x="630.68" y="-6.42" font-family="Helvetica,sans-Serif" font-size="10.00" fill="#63b8ff">5</text>
</a>
</g>
</g>
<!-- dir_85c338a369c289f6d40b1416a55396c6 -->
<g id="node12" class="node">
<title>dir_85c338a369c289f6d40b1416a55396c6</title>
<g id="a_node12"><a xlink:href="dir_85c338a369c289f6d40b1416a55396c6.html" target="_top" xlink:title="Polymorphic">
<polygon fill="#a2b4d6" stroke="#404040" points="864.38,-78.87 787.62,-78.87 787.62,-58.12 864.38,-58.12 864.38,-78.87"/>
<text text-anchor="middle" x="826" y="-65.37" font-family="Helvetica,sans-Serif" font-size="10.00">Polymorphic</text>
</a>
</g>
</g>
<!-- dir_85c338a369c289f6d40b1416a55396c6&#45;&gt;dir_d44c64559bbebec7f509842c48db8b23 -->
<g id="edge23" class="edge">
<title>dir_85c338a369c289f6d40b1416a55396c6&#45;&gt;dir_d44c64559bbebec7f509842c48db8b23</title>
<g id="a_edge23"><a xlink:href="dir_000100_000040.html" target="_top">
<path fill="none" stroke="#63b8ff" d="M811.43,-57.65C802.48,-52.11 790.54,-45.62 779,-42.12 688.44,-14.65 660.31,-37.95 567,-22.12 566.76,-22.08 566.51,-22.04 566.27,-22"/>
<polygon fill="#63b8ff" stroke="#63b8ff" points="567.04,-18.58 556.54,-20.02 565.64,-25.44 567.04,-18.58"/>
</a>
</g>
<g id="a_edge23&#45;headlabel"><a xlink:href="dir_000100_000040.html" target="_top" xlink:title="57">
<text text-anchor="middle" x="569.64" y="-13.09" font-family="Helvetica,sans-Serif" font-size="10.00" fill="#63b8ff">57</text>
</a>
</g>
</g>
<!-- dir_85c338a369c289f6d40b1416a55396c6&#45;&gt;dir_4fef79e7177ba769987a8da36c892c5f -->
<g id="edge22" class="edge">
<title>dir_85c338a369c289f6d40b1416a55396c6&#45;&gt;dir_4fef79e7177ba769987a8da36c892c5f</title>
<g id="a_edge22"><a xlink:href="dir_000100_000010.html" target="_top">
<path fill="none" stroke="#63b8ff" d="M810.93,-57.67C801.99,-52.28 790.24,-45.94 779,-42.12 727.58,-24.68 664.44,-17.47 627.37,-14.58"/>
<polygon fill="#63b8ff" stroke="#63b8ff" points="628.03,-11.12 617.81,-13.89 627.53,-18.1 628.03,-11.12"/>
</a>
</g>
<g id="a_edge22&#45;headlabel"><a xlink:href="dir_000100_000010.html" target="_top" xlink:title="8">
<text text-anchor="middle" x="630.31" y="-5.31" font-family="Helvetica,sans-Serif" font-size="10.00" fill="#63b8ff">8</text>
</a>
</g>
</g>
<!-- dir_956c2c713c108544d376c74d33f5d381 -->
<g id="node13" class="node">
<title>dir_956c2c713c108544d376c74d33f5d381</title>
<g id="a_node13"><a xlink:href="dir_956c2c713c108544d376c74d33f5d381.html" target="_top" xlink:title="RAM">
<polygon fill="#a2b4d6" stroke="#404040" points="921.25,-78.87 882.75,-78.87 882.75,-58.12 921.25,-58.12 921.25,-78.87"/>
<text text-anchor="middle" x="902" y="-65.37" font-family="Helvetica,sans-Serif" font-size="10.00">RAM</text>
</a>
</g>
</g>
<!-- dir_956c2c713c108544d376c74d33f5d381&#45;&gt;dir_d44c64559bbebec7f509842c48db8b23 -->
<g id="edge25" class="edge">
<title>dir_956c2c713c108544d376c74d33f5d381&#45;&gt;dir_d44c64559bbebec7f509842c48db8b23</title>
<g id="a_edge25"><a xlink:href="dir_000104_000040.html" target="_top">
<path fill="none" stroke="#63b8ff" d="M893.92,-57.78C888.62,-52.14 881.16,-45.5 873,-42.12 810.03,-16.09 634.34,-32.55 567,-22.12 566.76,-22.09 566.51,-22.05 566.27,-22.01"/>
<polygon fill="#63b8ff" stroke="#63b8ff" points="567.01,-18.59 556.53,-20.11 565.67,-25.46 567.01,-18.59"/>
</a>
</g>
<g id="a_edge25&#45;headlabel"><a xlink:href="dir_000104_000040.html" target="_top" xlink:title="5">
<text text-anchor="middle" x="569.6" y="-13.07" font-family="Helvetica,sans-Serif" font-size="10.00" fill="#63b8ff">5</text>
</a>
</g>
</g>
<!-- dir_956c2c713c108544d376c74d33f5d381&#45;&gt;dir_4fef79e7177ba769987a8da36c892c5f -->
<g id="edge24" class="edge">
<title>dir_956c2c713c108544d376c74d33f5d381&#45;&gt;dir_4fef79e7177ba769987a8da36c892c5f</title>
<g id="a_edge24"><a xlink:href="dir_000104_000010.html" target="_top">
<path fill="none" stroke="#63b8ff" d="M893.63,-57.64C888.32,-52.1 880.97,-45.61 873,-42.12 829.61,-23.15 690.45,-16.01 627.48,-13.71"/>
<polygon fill="#63b8ff" stroke="#63b8ff" points="627.93,-10.22 617.81,-13.37 627.69,-17.22 627.93,-10.22"/>
</a>
</g>
<g id="a_edge24&#45;headlabel"><a xlink:href="dir_000104_000010.html" target="_top" xlink:title="3">
<text text-anchor="middle" x="630.11" y="-4.33" font-family="Helvetica,sans-Serif" font-size="10.00" fill="#63b8ff">3</text>
</a>
</g>
</g>
<!-- dir_f16d4d7e899fbab47b4b7b1d6d737e7f -->
<g id="node14" class="node">
<title>dir_f16d4d7e899fbab47b4b7b1d6d737e7f</title>
<g id="a_node14"><a xlink:href="dir_f16d4d7e899fbab47b4b7b1d6d737e7f.html" target="_top" xlink:title="Shared">
<polygon fill="#a2b4d6" stroke="#404040" points="141.88,-78.87 92.12,-78.87 92.12,-58.12 141.88,-58.12 141.88,-78.87"/>
<text text-anchor="middle" x="117" y="-65.37" font-family="Helvetica,sans-Serif" font-size="10.00">Shared</text>
</a>
</g>
</g>
<!-- dir_f16d4d7e899fbab47b4b7b1d6d737e7f&#45;&gt;dir_d44c64559bbebec7f509842c48db8b23 -->
<g id="edge26" class="edge">
<title>dir_f16d4d7e899fbab47b4b7b1d6d737e7f&#45;&gt;dir_d44c64559bbebec7f509842c48db8b23</title>
<g id="a_edge26"><a xlink:href="dir_000106_000040.html" target="_top">
<path fill="none" stroke="#63b8ff" d="M126.8,-57.81C133.14,-52.18 141.9,-45.54 151,-42.12 212.67,-18.96 408.98,-14.06 491.69,-13.03"/>
<polygon fill="#63b8ff" stroke="#63b8ff" points="491.57,-16.53 501.53,-12.92 491.49,-9.53 491.57,-16.53"/>
</a>
</g>
<g id="a_edge26&#45;headlabel"><a xlink:href="dir_000106_000040.html" target="_top" xlink:title="2">
<text text-anchor="middle" x="489.52" y="-16.26" font-family="Helvetica,sans-Serif" font-size="10.00" fill="#63b8ff">2</text>
</a>
</g>
</g>
<!-- dir_7cd65e7901416fd0d2f87c71ddc27dff -->
<g id="node15" class="node">
<title>dir_7cd65e7901416fd0d2f87c71ddc27dff</title>
<g id="a_node15"><a xlink:href="dir_7cd65e7901416fd0d2f87c71ddc27dff.html" target="_top" xlink:title="String">
<polygon fill="#a2b4d6" stroke="#404040" points="984.25,-78.87 939.75,-78.87 939.75,-58.12 984.25,-58.12 984.25,-78.87"/>
<text text-anchor="middle" x="962" y="-65.37" font-family="Helvetica,sans-Serif" font-size="10.00">String</text>
</a>
</g>
</g>
<!-- dir_7cd65e7901416fd0d2f87c71ddc27dff&#45;&gt;dir_d44c64559bbebec7f509842c48db8b23 -->
<g id="edge28" class="edge">
<title>dir_7cd65e7901416fd0d2f87c71ddc27dff&#45;&gt;dir_d44c64559bbebec7f509842c48db8b23</title>
<g id="a_edge28"><a xlink:href="dir_000109_000040.html" target="_top">
<path fill="none" stroke="#63b8ff" d="M952.91,-57.74C946.98,-52.09 938.75,-45.44 930,-42.12 854.47,-13.46 646.9,-34.07 567,-22.12 566.76,-22.09 566.51,-22.05 566.27,-22.01"/>
<polygon fill="#63b8ff" stroke="#63b8ff" points="567,-18.59 556.52,-20.14 565.68,-25.46 567,-18.59"/>
</a>
</g>
<g id="a_edge28&#45;headlabel"><a xlink:href="dir_000109_000040.html" target="_top" xlink:title="5">
<text text-anchor="middle" x="569.58" y="-13.07" font-family="Helvetica,sans-Serif" font-size="10.00" fill="#63b8ff">5</text>
</a>
</g>
</g>
<!-- dir_7cd65e7901416fd0d2f87c71ddc27dff&#45;&gt;dir_4fef79e7177ba769987a8da36c892c5f -->
<g id="edge27" class="edge">
<title>dir_7cd65e7901416fd0d2f87c71ddc27dff&#45;&gt;dir_4fef79e7177ba769987a8da36c892c5f</title>
<g id="a_edge27"><a xlink:href="dir_000109_000010.html" target="_top">
<path fill="none" stroke="#63b8ff" d="M952.87,-57.84C946.93,-52.23 938.69,-45.59 930,-42.12 875.56,-20.44 700.13,-14.69 627.72,-13.23"/>
<polygon fill="#63b8ff" stroke="#63b8ff" points="627.81,-9.73 617.74,-13.04 627.68,-16.73 627.81,-9.73"/>
</a>
</g>
<g id="a_edge27&#45;headlabel"><a xlink:href="dir_000109_000010.html" target="_top" xlink:title="4">
<text text-anchor="middle" x="629.94" y="-3.8" font-family="Helvetica,sans-Serif" font-size="10.00" fill="#63b8ff">4</text>
</a>
</g>
</g>
<!-- dir_f63655cd686fcee5469c99e34fd78084 -->
<g id="node16" class="node">
<title>dir_f63655cd686fcee5469c99e34fd78084</title>
<g id="a_node16"><a xlink:href="dir_f63655cd686fcee5469c99e34fd78084.html" target="_top" xlink:title="Struct">
<polygon fill="#a2b4d6" stroke="#404040" points="1047.25,-78.87 1002.75,-78.87 1002.75,-58.12 1047.25,-58.12 1047.25,-78.87"/>
<text text-anchor="middle" x="1025" y="-65.37" font-family="Helvetica,sans-Serif" font-size="10.00">Struct</text>
</a>
</g>
</g>
<!-- dir_f63655cd686fcee5469c99e34fd78084&#45;&gt;dir_d44c64559bbebec7f509842c48db8b23 -->
<g id="edge30" class="edge">
<title>dir_f63655cd686fcee5469c99e34fd78084&#45;&gt;dir_d44c64559bbebec7f509842c48db8b23</title>
<g id="a_edge30"><a xlink:href="dir_000112_000040.html" target="_top">
<path fill="none" stroke="#63b8ff" d="M1015.92,-57.72C1010,-52.05 1001.76,-45.41 993,-42.12 904.26,-8.86 660.78,-35.76 567,-22.12 566.76,-22.09 566.51,-22.05 566.27,-22.01"/>
<polygon fill="#63b8ff" stroke="#63b8ff" points="567,-18.59 556.52,-20.16 565.69,-25.47 567,-18.59"/>
</a>
</g>
<g id="a_edge30&#45;headlabel"><a xlink:href="dir_000112_000040.html" target="_top" xlink:title="28">
<text text-anchor="middle" x="569.57" y="-13.07" font-family="Helvetica,sans-Serif" font-size="10.00" fill="#63b8ff">28</text>
</a>
</g>
</g>
<!-- dir_f63655cd686fcee5469c99e34fd78084&#45;&gt;dir_4fef79e7177ba769987a8da36c892c5f -->
<g id="edge29" class="edge">
<title>dir_f63655cd686fcee5469c99e34fd78084&#45;&gt;dir_4fef79e7177ba769987a8da36c892c5f</title>
<g id="a_edge29"><a xlink:href="dir_000112_000010.html" target="_top">
<path fill="none" stroke="#63b8ff" d="M1015.89,-57.8C1009.95,-52.17 1001.72,-45.53 993,-42.12 926.64,-16.22 709.74,-12.99 627.76,-12.71"/>
<polygon fill="#63b8ff" stroke="#63b8ff" points="627.98,-9.21 617.97,-12.69 627.97,-16.21 627.98,-9.21"/>
</a>
</g>
<g id="a_edge29&#45;headlabel"><a xlink:href="dir_000112_000010.html" target="_top" xlink:title="5">
<text text-anchor="middle" x="630.07" y="-3.25" font-family="Helvetica,sans-Serif" font-size="10.00" fill="#63b8ff">5</text>
</a>
</g>
</g>
</g>
</svg>
