<?xml version="1.0" encoding="UTF-8" standalone="no"?>
<!DOCTYPE svg PUBLIC "-//W3C//DTD SVG 1.1//EN"
 "http://www.w3.org/Graphics/SVG/1.1/DTD/svg11.dtd">
<!-- Generated by graphviz version 12.2.1 (0)
 -->
<!-- Title: include/llzk/Dialect/Array Pages: 1 -->
<svg width="378pt" height="203pt"
 viewBox="0.00 0.00 378.00 203.00" xmlns="http://www.w3.org/2000/svg" xmlns:xlink="http://www.w3.org/1999/xlink">
<g id="graph0" class="graph" transform="scale(1 1) rotate(0) translate(4 199)">
<title>include/llzk/Dialect/Array</title>
<g id="clust1" class="cluster">
<title>clusterdir_961f7ef292a3987e3723514feaf3f181</title>
<g id="a_clust1"><a xlink:href="dir_961f7ef292a3987e3723514feaf3f181.html" target="_top" xlink:title="Dialect">
<polygon fill="#edf0f7" stroke="#7f7f7f" stroke-dasharray="5,2" points="8,-8 8,-187 270,-187 270,-8 8,-8"/>
<text text-anchor="middle" x="139" y="-173.5" font-family="Helvetica,sans-Serif" font-size="10.00">Dialect</text>
</a>
</g>
</g>
<g id="clust2" class="cluster">
<title>clusterdir_b57964f09af826cfffee4b0782785e82</title>
<g id="a_clust2"><a xlink:href="dir_b57964f09af826cfffee4b0782785e82.html" target="_top">
<polygon fill="#edf0f7" stroke="#404040" stroke-width="2" points="16,-64.75 16,-158.25 214,-158.25 214,-64.75 16,-64.75"/>
</a>
</g>
</g>
<!-- dir_b9e6121c35254505209e91f4816784f6 -->
<g id="node1" class="node">
<title>dir_b9e6121c35254505209e91f4816784f6</title>
<g id="a_node1"><a xlink:href="dir_b9e6121c35254505209e91f4816784f6.html" target="_top" xlink:title="Shared">
<polygon fill="#a2b4d6" stroke="#404040" points="214.88,-36.75 165.12,-36.75 165.12,-16 214.88,-16 214.88,-36.75"/>
<text text-anchor="middle" x="190" y="-23.25" font-family="Helvetica,sans-Serif" font-size="10.00">Shared</text>
</a>
</g>
</g>
<!-- dir_ab86c770cc1b90d5a9908a326f6abfa8 -->
<g id="node2" class="node">
<title>dir_ab86c770cc1b90d5a9908a326f6abfa8</title>
<g id="a_node2"><a xlink:href="dir_ab86c770cc1b90d5a9908a326f6abfa8.html" target="_top" xlink:title="LLZK">
<polygon fill="#a2b4d6" stroke="red" points="262,-93.5 222,-93.5 222,-72.75 262,-72.75 262,-93.5"/>
<text text-anchor="middle" x="242" y="-80" font-family="Helvetica,sans-Serif" font-size="10.00">LLZK</text>
</a>
</g>
</g>
<!-- dir_b57964f09af826cfffee4b0782785e82 -->
<g id="node3" class="node">
<title>dir_b57964f09af826cfffee4b0782785e82</title>
<text text-anchor="middle" x="45" y="-136.75" font-family="Helvetica,sans-Serif" font-size="10.00">Array</text>
</g>
<!-- dir_3d1ebd1b0eacfcfa371ae694602b6eea -->
<g id="node4" class="node">
<title>dir_3d1ebd1b0eacfcfa371ae694602b6eea</title>
<g id="a_node4"><a xlink:href="dir_3d1ebd1b0eacfcfa371ae694602b6eea.html" target="_top" xlink:title="IR">
<polygon fill="#a2b4d6" stroke="#404040" points="204.4,-93.5 175.6,-93.5 175.6,-72.75 204.4,-72.75 204.4,-93.5"/>
<text text-anchor="middle" x="190" y="-80" font-family="Helvetica,sans-Serif" font-size="10.00">IR</text>
</a>
</g>
</g>
<!-- dir_3d1ebd1b0eacfcfa371ae694602b6eea&#45;&gt;dir_b9e6121c35254505209e91f4816784f6 -->
<g id="edge3" class="edge">
<title>dir_3d1ebd1b0eacfcfa371ae694602b6eea&#45;&gt;dir_b9e6121c35254505209e91f4816784f6</title>
<g id="a_edge3"><a xlink:href="dir_000055_000099.html" target="_top">
<path fill="none" stroke="#63b8ff" d="M190,-72.34C190,-65.72 190,-56.72 190,-48.52"/>
<polygon fill="#63b8ff" stroke="#63b8ff" points="193.5,-48.59 190,-38.59 186.5,-48.59 193.5,-48.59"/>
</a>
</g>
<g id="a_edge3&#45;headlabel"><a xlink:href="dir_000055_000099.html" target="_top" xlink:title="1">
<text text-anchor="middle" x="196.34" y="-47.55" font-family="Helvetica,sans-Serif" font-size="10.00" fill="#63b8ff">1</text>
</a>
</g>
</g>
<!-- dir_4fef79e7177ba769987a8da36c892c5f -->
<g id="node7" class="node">
<title>dir_4fef79e7177ba769987a8da36c892c5f</title>
<g id="a_node7"><a xlink:href="dir_4fef79e7177ba769987a8da36c892c5f.html" target="_top" xlink:title="build">
<polygon fill="#edf0f7" stroke="red" points="370,-36.75 330,-36.75 330,-16 370,-16 370,-36.75"/>
<text text-anchor="middle" x="350" y="-23.25" font-family="Helvetica,sans-Serif" font-size="10.00">build</text>
</a>
</g>
</g>
<!-- dir_3d1ebd1b0eacfcfa371ae694602b6eea&#45;&gt;dir_4fef79e7177ba769987a8da36c892c5f -->
<g id="edge1" class="edge">
<title>dir_3d1ebd1b0eacfcfa371ae694602b6eea&#45;&gt;dir_4fef79e7177ba769987a8da36c892c5f</title>
<g id="a_edge1"><a xlink:href="dir_000055_000010.html" target="_top">
<path fill="none" stroke="#63b8ff" d="M198.39,-72.25C201.2,-69.47 204.5,-66.68 208,-64.75 250.36,-41.32 268.81,-49.64 318.94,-37.03"/>
<polygon fill="#63b8ff" stroke="#63b8ff" points="319.57,-40.49 328.31,-34.51 317.75,-33.73 319.57,-40.49"/>
</a>
</g>
<g id="a_edge1&#45;headlabel"><a xlink:href="dir_000055_000010.html" target="_top" xlink:title="4">
<text text-anchor="middle" x="318.3" y="-40.65" font-family="Helvetica,sans-Serif" font-size="10.00" fill="#63b8ff">4</text>
</a>
</g>
</g>
<!-- dir_7093d9bec9e6df023c20339d9b6c0d59 -->
<g id="node8" class="node">
<title>dir_7093d9bec9e6df023c20339d9b6c0d59</title>
<g id="a_node8"><a xlink:href="dir_7093d9bec9e6df023c20339d9b6c0d59.html" target="_top" xlink:title="Util">
<polygon fill="#edf0f7" stroke="#7f7f7f" points="311.62,-36.75 278.38,-36.75 278.38,-16 311.62,-16 311.62,-36.75"/>
<text text-anchor="middle" x="295" y="-23.25" font-family="Helvetica,sans-Serif" font-size="10.00">Util</text>
</a>
</g>
</g>
<!-- dir_3d1ebd1b0eacfcfa371ae694602b6eea&#45;&gt;dir_7093d9bec9e6df023c20339d9b6c0d59 -->
<g id="edge2" class="edge">
<title>dir_3d1ebd1b0eacfcfa371ae694602b6eea&#45;&gt;dir_7093d9bec9e6df023c20339d9b6c0d59</title>
<g id="a_edge2"><a xlink:href="dir_000055_000125.html" target="_top">
<path fill="none" stroke="#63b8ff" d="M198.59,-72.58C201.41,-69.82 204.67,-66.95 208,-64.75 231.56,-49.16 242.26,-49.2 267.57,-39.31"/>
<polygon fill="#63b8ff" stroke="#63b8ff" points="268.75,-42.61 276.65,-35.55 266.07,-36.14 268.75,-42.61"/>
</a>
</g>
<g id="a_edge2&#45;headlabel"><a xlink:href="dir_000055_000125.html" target="_top" xlink:title="2">
<text text-anchor="middle" x="267.91" y="-42.9" font-family="Helvetica,sans-Serif" font-size="10.00" fill="#63b8ff">2</text>
</a>
</g>
</g>
<!-- dir_58dbe0ab2bddf8311469efdbbe11a037 -->
<g id="node5" class="node">
<title>dir_58dbe0ab2bddf8311469efdbbe11a037</title>
<g id="a_node5"><a xlink:href="dir_58dbe0ab2bddf8311469efdbbe11a037.html" target="_top" xlink:title="Transforms">
<polygon fill="#a2b4d6" stroke="#404040" points="206,-150.25 136,-150.25 136,-129.5 206,-129.5 206,-150.25"/>
<text text-anchor="middle" x="171" y="-136.75" font-family="Helvetica,sans-Serif" font-size="10.00">Transforms</text>
</a>
</g>
</g>
<!-- dir_58dbe0ab2bddf8311469efdbbe11a037&#45;&gt;dir_4fef79e7177ba769987a8da36c892c5f -->
<g id="edge5" class="edge">
<title>dir_58dbe0ab2bddf8311469efdbbe11a037&#45;&gt;dir_4fef79e7177ba769987a8da36c892c5f</title>
<g id="a_edge5"><a xlink:href="dir_000115_000010.html" target="_top">
<path fill="none" stroke="#63b8ff" d="M199.25,-129.08C220.62,-121.05 250.24,-108.58 274,-93.5 280.14,-89.6 310.4,-62.84 330.84,-44.58"/>
<polygon fill="#63b8ff" stroke="#63b8ff" points="332.91,-47.42 338.03,-38.14 328.24,-42.21 332.91,-47.42"/>
</a>
</g>
<g id="a_edge5&#45;headlabel"><a xlink:href="dir_000115_000010.html" target="_top" xlink:title="1">
<text text-anchor="middle" x="333.25" y="-47.8" font-family="Helvetica,sans-Serif" font-size="10.00" fill="#63b8ff">1</text>
</a>
</g>
</g>
<!-- dir_459833b041acece43aa610615f5ca5a8 -->
<g id="node9" class="node">
<title>dir_459833b041acece43aa610615f5ca5a8</title>
<g id="a_node9"><a xlink:href="dir_459833b041acece43aa610615f5ca5a8.html" target="_top" xlink:title="Pass">
<polygon fill="#edf0f7" stroke="#7f7f7f" points="355.88,-93.5 318.12,-93.5 318.12,-72.75 355.88,-72.75 355.88,-93.5"/>
<text text-anchor="middle" x="337" y="-80" font-family="Helvetica,sans-Serif" font-size="10.00">Pass</text>
</a>
</g>
</g>
<!-- dir_58dbe0ab2bddf8311469efdbbe11a037&#45;&gt;dir_459833b041acece43aa610615f5ca5a8 -->
<g id="edge4" class="edge">
<title>dir_58dbe0ab2bddf8311469efdbbe11a037&#45;&gt;dir_459833b041acece43aa610615f5ca5a8</title>
<g id="a_edge4"><a xlink:href="dir_000115_000091.html" target="_top">
<path fill="none" stroke="#63b8ff" d="M200.68,-129.09C230.78,-119.16 277.1,-103.88 307.23,-93.94"/>
<polygon fill="#63b8ff" stroke="#63b8ff" points="308.08,-97.35 316.48,-90.89 305.89,-90.7 308.08,-97.35"/>
</a>
</g>
<g id="a_edge4&#45;headlabel"><a xlink:href="dir_000115_000091.html" target="_top" xlink:title="1">
<text text-anchor="middle" x="307" y="-97.57" font-family="Helvetica,sans-Serif" font-size="10.00" fill="#63b8ff">1</text>
</a>
</g>
</g>
<!-- dir_d8b7245be51b87a010bd3a4e7efe394a -->
<g id="node6" class="node">
<title>dir_d8b7245be51b87a010bd3a4e7efe394a</title>
<g id="a_node6"><a xlink:href="dir_d8b7245be51b87a010bd3a4e7efe394a.html" target="_top" xlink:title="Util">
<polygon fill="#a2b4d6" stroke="#404040" points="117.62,-150.25 84.38,-150.25 84.38,-129.5 117.62,-129.5 117.62,-150.25"/>
<text text-anchor="middle" x="101" y="-136.75" font-family="Helvetica,sans-Serif" font-size="10.00">Util</text>
</a>
</g>
</g>
<!-- dir_d8b7245be51b87a010bd3a4e7efe394a&#45;&gt;dir_ab86c770cc1b90d5a9908a326f6abfa8 -->
<g id="edge7" class="edge">
<title>dir_d8b7245be51b87a010bd3a4e7efe394a&#45;&gt;dir_ab86c770cc1b90d5a9908a326f6abfa8</title>
<g id="a_edge7"><a xlink:href="dir_000123_000083.html" target="_top">
<path fill="none" stroke="#63b8ff" d="M118.06,-132.28C138.79,-124.25 175.14,-110.17 210.99,-96.23"/>
<polygon fill="#63b8ff" stroke="#63b8ff" points="212.12,-99.54 220.17,-92.66 209.58,-93.02 212.12,-99.54"/>
</a>
</g>
<g id="a_edge7&#45;headlabel"><a xlink:href="dir_000123_000083.html" target="_top" xlink:title="1">
<text text-anchor="middle" x="211.21" y="-99.82" font-family="Helvetica,sans-Serif" font-size="10.00" fill="#63b8ff">1</text>
</a>
</g>
</g>
<!-- dir_d8b7245be51b87a010bd3a4e7efe394a&#45;&gt;dir_3d1ebd1b0eacfcfa371ae694602b6eea -->
<g id="edge6" class="edge">
<title>dir_d8b7245be51b87a010bd3a4e7efe394a&#45;&gt;dir_3d1ebd1b0eacfcfa371ae694602b6eea</title>
<g id="a_edge6"><a xlink:href="dir_000123_000055.html" target="_top">
<path fill="none" stroke="#63b8ff" d="M116.91,-129.09C130.45,-120.76 150.1,-108.67 165.62,-99.12"/>
<polygon fill="#63b8ff" stroke="#63b8ff" points="167.14,-102.3 173.83,-94.08 163.47,-96.33 167.14,-102.3"/>
</a>
</g>
<g id="a_edge6&#45;headlabel"><a xlink:href="dir_000123_000055.html" target="_top" xlink:title="1">
<text text-anchor="middle" x="166.86" y="-102.68" font-family="Helvetica,sans-Serif" font-size="10.00" fill="#63b8ff">1</text>
</a>
</g>
</g>
</g>
</svg>
