<?xml version="1.0" encoding="UTF-8" standalone="no"?>
<!DOCTYPE svg PUBLIC "-//W3C//DTD SVG 1.1//EN"
 "http://www.w3.org/Graphics/SVG/1.1/DTD/svg11.dtd">
<!-- Generated by graphviz version 12.2.1 (0)
 -->
<!-- Title: include/llzk/Dialect/Shared/DiscardableAllocationOpInterfaces.h Pages: 1 -->
<svg width="3183pt" height="345pt"
 viewBox="0.00 0.00 3183.25 345.00" xmlns="http://www.w3.org/2000/svg" xmlns:xlink="http://www.w3.org/1999/xlink">
<g id="graph0" class="graph" transform="scale(1 1) rotate(0) translate(4 341)">
<title>include/llzk/Dialect/Shared/DiscardableAllocationOpInterfaces.h</title>
<!-- Node1 -->
<g id="Node000001" class="node">
<title>Node1</title>
<g id="a_Node000001"><a xlink:title=" ">
<polygon fill="#999999" stroke="#666666" points="2679.25,-337 2517,-337 2517,-290.75 2679.25,-290.75 2679.25,-337"/>
<text text-anchor="start" x="2525" y="-323.5" font-family="Helvetica,sans-Serif" font-size="10.00">include/llzk/Dialect</text>
<text text-anchor="start" x="2525" y="-310.75" font-family="Helvetica,sans-Serif" font-size="10.00">/Shared/DiscardableAllocation</text>
<text text-anchor="middle" x="2598.12" y="-298" font-family="Helvetica,sans-Serif" font-size="10.00">OpInterfaces.h</text>
</a>
</g>
</g>
<!-- Node2 -->
<g id="Node000002" class="node">
<title>Node2</title>
<g id="a_Node000002"><a xlink:href="Array_2IR_2Ops_8h.html" target="_top" xlink:title=" ">
<polygon fill="white" stroke="#666666" points="1088.62,-254.75 979.62,-254.75 979.62,-221.25 1088.62,-221.25 1088.62,-254.75"/>
<text text-anchor="start" x="987.62" y="-241.25" font-family="Helvetica,sans-Serif" font-size="10.00">include/llzk/Dialect</text>
<text text-anchor="middle" x="1034.12" y="-228.5" font-family="Helvetica,sans-Serif" font-size="10.00">/Array/IR/Ops.h</text>
</a>
</g>
</g>
<!-- Node1&#45;&gt;Node2 -->
<g id="edge1_Node000001_Node000002" class="edge">
<title>Node1&#45;&gt;Node2</title>
<g id="a_edge1_Node000001_Node000002"><a xlink:title=" ">
<path fill="none" stroke="#63b8ff" d="M2505.13,-308.48C2213,-294.68 1319.49,-252.48 1088.89,-241.59"/>
<polygon fill="#63b8ff" stroke="#63b8ff" points="2504.85,-311.97 2515,-308.95 2505.18,-304.98 2504.85,-311.97"/>
</a>
</g>
</g>
<!-- Node29 -->
<g id="Node000029" class="node">
<title>Node29</title>
<g id="a_Node000029"><a xlink:href="POD_2IR_2Ops_8h.html" target="_top" xlink:title=" ">
<polygon fill="white" stroke="#666666" points="2564.62,-254.75 2455.62,-254.75 2455.62,-221.25 2564.62,-221.25 2564.62,-254.75"/>
<text text-anchor="start" x="2463.62" y="-241.25" font-family="Helvetica,sans-Serif" font-size="10.00">include/llzk/Dialect</text>
<text text-anchor="middle" x="2510.12" y="-228.5" font-family="Helvetica,sans-Serif" font-size="10.00">/POD/IR/Ops.h</text>
</a>
</g>
</g>
<!-- Node1&#45;&gt;Node29 -->
<g id="edge37_Node000001_Node000029" class="edge">
<title>Node1&#45;&gt;Node29</title>
<g id="a_edge37_Node000001_Node000029"><a xlink:title=" ">
<path fill="none" stroke="#63b8ff" d="M2562.73,-283.16C2551.31,-273.58 2539.09,-263.32 2529.31,-255.1"/>
<polygon fill="#63b8ff" stroke="#63b8ff" points="2560.18,-285.59 2570.08,-289.34 2564.68,-280.23 2560.18,-285.59"/>
</a>
</g>
</g>
<!-- Node35 -->
<g id="Node000035" class="node">
<title>Node35</title>
<g id="a_Node000035"><a xlink:href="DiscardableAllocationOpInterfaces_8cpp.html" target="_top" xlink:title=" ">
<polygon fill="white" stroke="#666666" points="2791.12,-254.75 2583.12,-254.75 2583.12,-221.25 2791.12,-221.25 2791.12,-254.75"/>
<text text-anchor="start" x="2591.12" y="-241.25" font-family="Helvetica,sans-Serif" font-size="10.00">lib/Dialect/Shared</text>
<text text-anchor="middle" x="2687.12" y="-228.5" font-family="Helvetica,sans-Serif" font-size="10.00">/DiscardableAllocationOpInterfaces.cpp</text>
</a>
</g>
</g>
<!-- Node1&#45;&gt;Node35 -->
<g id="edge46_Node000001_Node000035" class="edge">
<title>Node1&#45;&gt;Node35</title>
<g id="a_edge46_Node000001_Node000035"><a xlink:title=" ">
<path fill="none" stroke="#63b8ff" d="M2633.93,-283.16C2645.47,-273.58 2657.83,-263.32 2667.72,-255.1"/>
<polygon fill="#63b8ff" stroke="#63b8ff" points="2631.94,-280.26 2626.48,-289.34 2636.41,-285.65 2631.94,-280.26"/>
</a>
</g>
</g>
<!-- Node36 -->
<g id="Node000036" class="node">
<title>Node36</title>
<g id="a_Node000036"><a xlink:href="LLZKRemoveUnusedDiscardableAllocationsPass_8cpp.html" target="_top" xlink:title="This file implements the &#45;llzk&#45;remove&#45;unused&#45;discardable&#45;allocations pass.">
<polygon fill="white" stroke="#666666" points="3015.38,-254.75 2808.88,-254.75 2808.88,-221.25 3015.38,-221.25 3015.38,-254.75"/>
<text text-anchor="start" x="2816.88" y="-241.25" font-family="Helvetica,sans-Serif" font-size="10.00">lib/Transforms/LLZKRemove</text>
<text text-anchor="middle" x="2912.12" y="-228.5" font-family="Helvetica,sans-Serif" font-size="10.00">UnusedDiscardableAllocationsPass.cpp</text>
</a>
</g>
</g>
<!-- Node1&#45;&gt;Node36 -->
<g id="edge47_Node000001_Node000036" class="edge">
<title>Node1&#45;&gt;Node36</title>
<g id="a_edge47_Node000001_Node000036"><a xlink:title=" ">
<path fill="none" stroke="#63b8ff" d="M2690.31,-291.19C2739.2,-279.68 2798.27,-265.79 2843.16,-255.23"/>
<polygon fill="#63b8ff" stroke="#63b8ff" points="2689.8,-287.71 2680.87,-293.41 2691.41,-294.52 2689.8,-287.71"/>
</a>
</g>
</g>
<!-- Node3 -->
<g id="Node000003" class="node">
<title>Node3</title>
<g id="a_Node000003"><a xlink:href="ConstraintDependencyGraph_8h.html" target="_top" xlink:title=" ">
<polygon fill="white" stroke="#666666" points="766.25,-185.25 598,-185.25 598,-151.75 766.25,-151.75 766.25,-185.25"/>
<text text-anchor="start" x="606" y="-171.75" font-family="Helvetica,sans-Serif" font-size="10.00">include/llzk/Analysis</text>
<text text-anchor="middle" x="682.12" y="-159" font-family="Helvetica,sans-Serif" font-size="10.00">/ConstraintDependencyGraph.h</text>
</a>
</g>
</g>
<!-- Node2&#45;&gt;Node3 -->
<g id="edge2_Node000002_Node000003" class="edge">
<title>Node2&#45;&gt;Node3</title>
<g id="a_edge2_Node000002_Node000003"><a xlink:title=" ">
<path fill="none" stroke="#63b8ff" d="M968.08,-224.33C911.06,-213.4 828.36,-197.54 766.55,-185.69"/>
<polygon fill="#63b8ff" stroke="#63b8ff" points="967.16,-227.72 977.64,-226.17 968.48,-220.85 967.16,-227.72"/>
</a>
</g>
</g>
<!-- Node4 -->
<g id="Node000004" class="node">
<title>Node4</title>
<g id="a_Node000004"><a xlink:href="IntervalAnalysis_8h.html" target="_top" xlink:title=" ">
<polygon fill="white" stroke="#666666" points="842,-115.75 726.25,-115.75 726.25,-82.25 842,-82.25 842,-115.75"/>
<text text-anchor="start" x="734.25" y="-102.25" font-family="Helvetica,sans-Serif" font-size="10.00">include/llzk/Analysis</text>
<text text-anchor="middle" x="784.12" y="-89.5" font-family="Helvetica,sans-Serif" font-size="10.00">/IntervalAnalysis.h</text>
</a>
</g>
</g>
<!-- Node2&#45;&gt;Node4 -->
<g id="edge10_Node000002_Node000004" class="edge">
<title>Node2&#45;&gt;Node4</title>
<g id="a_edge10_Node000002_Node000004"><a xlink:title=" ">
<path fill="none" stroke="#63b8ff" d="M968.09,-227.35C932.76,-219.92 889.73,-207.08 856.12,-185.25 828.35,-167.2 805.55,-135.23 793.48,-115.98"/>
<polygon fill="#63b8ff" stroke="#63b8ff" points="967.3,-230.76 977.79,-229.28 968.66,-223.89 967.3,-230.76"/>
</a>
</g>
</g>
<!-- Node5 -->
<g id="Node000005" class="node">
<title>Node5</title>
<g id="a_Node000005"><a xlink:href="IntervalAnalysis_8cpp.html" target="_top" xlink:title=" ">
<polygon fill="white" stroke="#666666" points="957.25,-33.5 783,-33.5 783,-12.75 957.25,-12.75 957.25,-33.5"/>
<text text-anchor="middle" x="870.12" y="-20" font-family="Helvetica,sans-Serif" font-size="10.00">lib/Analysis/IntervalAnalysis.cpp</text>
</a>
</g>
</g>
<!-- Node2&#45;&gt;Node5 -->
<g id="edge20_Node000002_Node000005" class="edge">
<title>Node2&#45;&gt;Node5</title>
<g id="a_edge20_Node000002_Node000005"><a xlink:title=" ">
<path fill="none" stroke="#63b8ff" d="M988.89,-215.38C975.23,-207.31 961,-197.16 950.12,-185.25 906.33,-137.27 880.89,-60.89 872.89,-33.93"/>
<polygon fill="#63b8ff" stroke="#63b8ff" points="986.92,-218.29 997.35,-220.15 990.36,-212.19 986.92,-218.29"/>
</a>
</g>
</g>
<!-- Node7 -->
<g id="Node000007" class="node">
<title>Node7</title>
<g id="a_Node000007"><a xlink:href="ConstraintDependencyGraph_8cpp.html" target="_top" xlink:title=" ">
<polygon fill="white" stroke="#666666" points="186.25,-115.75 0,-115.75 0,-82.25 186.25,-82.25 186.25,-115.75"/>
<text text-anchor="start" x="8" y="-102.25" font-family="Helvetica,sans-Serif" font-size="10.00">lib/Analysis/ConstraintDependency</text>
<text text-anchor="middle" x="93.12" y="-89.5" font-family="Helvetica,sans-Serif" font-size="10.00">Graph.cpp</text>
</a>
</g>
</g>
<!-- Node2&#45;&gt;Node7 -->
<g id="edge19_Node000002_Node000007" class="edge">
<title>Node2&#45;&gt;Node7</title>
<g id="a_edge19_Node000002_Node000007"><a xlink:title=" ">
<path fill="none" stroke="#63b8ff" d="M968.11,-234.15C861.18,-228.74 655.36,-214.76 589.12,-185.25 568.56,-176.09 571.76,-160.76 551.12,-151.75 405.38,-88.12 352.87,-135.89 195.12,-115.75 192.28,-115.39 189.39,-115.01 186.48,-114.62"/>
<polygon fill="#63b8ff" stroke="#63b8ff" points="967.72,-237.64 977.88,-234.63 968.07,-230.64 967.72,-237.64"/>
</a>
</g>
</g>
<!-- Node9 -->
<g id="Node000009" class="node">
<title>Node9</title>
<g id="a_Node000009"><a xlink:href="SourceRefLattice_8cpp.html" target="_top" xlink:title=" ">
<polygon fill="white" stroke="#666666" points="708.12,-109.38 530.12,-109.38 530.12,-88.62 708.12,-88.62 708.12,-109.38"/>
<text text-anchor="middle" x="619.12" y="-95.88" font-family="Helvetica,sans-Serif" font-size="10.00">lib/Analysis/SourceRefLattice.cpp</text>
</a>
</g>
</g>
<!-- Node2&#45;&gt;Node9 -->
<g id="edge22_Node000002_Node000009" class="edge">
<title>Node2&#45;&gt;Node9</title>
<g id="a_edge22_Node000002_Node000009"><a xlink:title=" ">
<path fill="none" stroke="#63b8ff" d="M968.09,-229.24C923.43,-222.13 864.08,-208.96 816.12,-185.25 795.03,-174.82 795.75,-163.09 775.12,-151.75 739.37,-132.09 694.88,-118.25 662.58,-109.86"/>
<polygon fill="#63b8ff" stroke="#63b8ff" points="967.49,-232.69 977.9,-230.73 968.54,-225.77 967.49,-232.69"/>
</a>
</g>
</g>
<!-- Node11 -->
<g id="Node000011" class="node">
<title>Node11</title>
<g id="a_Node000011"><a xlink:href="TypeConversionPatterns_8h.html" target="_top" xlink:title="Reusable MLIR dialect conversion functions for LLZK StructType replacement.">
<polygon fill="white" stroke="#666666" points="2061,-185.25 1879.25,-185.25 1879.25,-151.75 2061,-151.75 2061,-185.25"/>
<text text-anchor="start" x="1887.25" y="-171.75" font-family="Helvetica,sans-Serif" font-size="10.00">include/llzk/Dialect</text>
<text text-anchor="middle" x="1970.12" y="-159" font-family="Helvetica,sans-Serif" font-size="10.00">/Shared/TypeConversionPatterns.h</text>
</a>
</g>
</g>
<!-- Node2&#45;&gt;Node11 -->
<g id="edge11_Node000002_Node000011" class="edge">
<title>Node2&#45;&gt;Node11</title>
<g id="a_edge11_Node000002_Node000011"><a xlink:title=" ">
<path fill="none" stroke="#63b8ff" d="M1100.52,-235.02C1242.24,-230.33 1584.71,-216.49 1870.12,-185.25 1873.01,-184.93 1875.93,-184.59 1878.89,-184.23"/>
<polygon fill="#63b8ff" stroke="#63b8ff" points="1100.45,-231.52 1090.57,-235.34 1100.67,-238.52 1100.45,-231.52"/>
</a>
</g>
</g>
<!-- Node12 -->
<g id="Node000012" class="node">
<title>Node12</title>
<g id="a_Node000012"><a xlink:href="SharedImpl_8h.html" target="_top" xlink:title="Common private implementation for poly dialect passes.">
<polygon fill="white" stroke="#666666" points="1598.38,-115.75 1457.88,-115.75 1457.88,-82.25 1598.38,-82.25 1598.38,-115.75"/>
<text text-anchor="start" x="1465.88" y="-102.25" font-family="Helvetica,sans-Serif" font-size="10.00">lib/Dialect/Polymorphic</text>
<text text-anchor="middle" x="1528.12" y="-89.5" font-family="Helvetica,sans-Serif" font-size="10.00">/Transforms/SharedImpl.h</text>
</a>
</g>
</g>
<!-- Node2&#45;&gt;Node12 -->
<g id="edge29_Node000002_Node000012" class="edge">
<title>Node2&#45;&gt;Node12</title>
<g id="a_edge29_Node000002_Node000012"><a xlink:title=" ">
<path fill="none" stroke="#63b8ff" d="M998.59,-214.25C975.19,-196.52 951.96,-171.67 970.12,-151.75 1002.36,-116.38 1314.65,-104.81 1457.47,-101.35"/>
<polygon fill="#63b8ff" stroke="#63b8ff" points="996.43,-217 1006.59,-220.01 1000.52,-211.33 996.43,-217"/>
</a>
</g>
</g>
<!-- Node14 -->
<g id="Node000014" class="node">
<title>Node14</title>
<g id="a_Node000014"><a xlink:href="FlatteningPass_8cpp.html" target="_top" xlink:title="This file implements the &#45;llzk&#45;flatten pass.">
<polygon fill="white" stroke="#666666" points="1277.88,-39.88 1110.38,-39.88 1110.38,-6.38 1277.88,-6.38 1277.88,-39.88"/>
<text text-anchor="start" x="1118.38" y="-26.38" font-family="Helvetica,sans-Serif" font-size="10.00">lib/Dialect/Polymorphic</text>
<text text-anchor="middle" x="1194.12" y="-13.62" font-family="Helvetica,sans-Serif" font-size="10.00">/Transforms/FlatteningPass.cpp</text>
</a>
</g>
</g>
<!-- Node2&#45;&gt;Node14 -->
<g id="edge28_Node000002_Node000014" class="edge">
<title>Node2&#45;&gt;Node14</title>
<g id="a_edge28_Node000002_Node000014"><a xlink:title=" ">
<path fill="none" stroke="#63b8ff" d="M987.48,-214.98C976.16,-207.25 965.5,-197.4 959.12,-185.25 952.2,-172.07 951.51,-164.55 959.12,-151.75 995.08,-91.3 1070.79,-57.7 1126.6,-40.34"/>
<polygon fill="#63b8ff" stroke="#63b8ff" points="985.44,-217.83 995.77,-220.16 989.15,-211.89 985.44,-217.83"/>
</a>
</g>
</g>
<!-- Node16 -->
<g id="Node000016" class="node">
<title>Node16</title>
<g id="a_Node000016"><a xlink:href="WildcardArraySpecializationPass_8cpp.html" target="_top" xlink:title="This file implements the &#45;llzk&#45;specialize&#45;wildcard&#45;arrays pass.">
<polygon fill="white" stroke="#666666" points="2076.75,-46.25 1863.5,-46.25 1863.5,0 2076.75,0 2076.75,-46.25"/>
<text text-anchor="start" x="1871.5" y="-32.75" font-family="Helvetica,sans-Serif" font-size="10.00">lib/Dialect/Polymorphic</text>
<text text-anchor="start" x="1871.5" y="-20" font-family="Helvetica,sans-Serif" font-size="10.00">/Transforms/WildcardArraySpecialization</text>
<text text-anchor="middle" x="1970.12" y="-7.25" font-family="Helvetica,sans-Serif" font-size="10.00">Pass.cpp</text>
</a>
</g>
</g>
<!-- Node2&#45;&gt;Node16 -->
<g id="edge30_Node000002_Node000016" class="edge">
<title>Node2&#45;&gt;Node16</title>
<g id="a_edge30_Node000002_Node000016"><a xlink:title=" ">
<path fill="none" stroke="#63b8ff" d="M1100.37,-236.17C1323.67,-233.07 2036.65,-220.44 2070.12,-185.25 2111.08,-142.19 2044.57,-79.75 2001.78,-46.67"/>
<polygon fill="#63b8ff" stroke="#63b8ff" points="1100.33,-232.67 1090.38,-236.31 1100.43,-239.67 1100.33,-232.67"/>
</a>
</g>
</g>
<!-- Node17 -->
<g id="Node000017" class="node">
<title>Node17</title>
<g id="a_Node000017"><a xlink:href="Struct_2IR_2Dialect_8cpp.html" target="_top" xlink:title=" ">
<polygon fill="white" stroke="#666666" points="1865.62,-115.75 1768.62,-115.75 1768.62,-82.25 1865.62,-82.25 1865.62,-115.75"/>
<text text-anchor="start" x="1776.62" y="-102.25" font-family="Helvetica,sans-Serif" font-size="10.00">lib/Dialect/Struct</text>
<text text-anchor="middle" x="1817.12" y="-89.5" font-family="Helvetica,sans-Serif" font-size="10.00">/IR/Dialect.cpp</text>
</a>
</g>
</g>
<!-- Node2&#45;&gt;Node17 -->
<g id="edge31_Node000002_Node000017" class="edge">
<title>Node2&#45;&gt;Node17</title>
<g id="a_edge31_Node000002_Node000017"><a xlink:title=" ">
<path fill="none" stroke="#63b8ff" d="M1012.56,-211.77C999.31,-193.14 987.58,-168.25 1003.12,-151.75 1049.23,-102.82 1540.05,-120.26 1607.12,-115.75 1662.39,-112.03 1725.79,-107.2 1768.34,-103.87"/>
<polygon fill="#63b8ff" stroke="#63b8ff" points="1009.73,-213.83 1018.58,-219.66 1015.3,-209.59 1009.73,-213.83"/>
</a>
</g>
</g>
<!-- Node18 -->
<g id="Node000018" class="node">
<title>Node18</title>
<g id="a_Node000018"><a xlink:href="SourceRef_8cpp.html" target="_top" xlink:title=" ">
<polygon fill="white" stroke="#666666" points="1156.25,-178.88 1012,-178.88 1012,-158.12 1156.25,-158.12 1156.25,-178.88"/>
<text text-anchor="middle" x="1084.12" y="-165.38" font-family="Helvetica,sans-Serif" font-size="10.00">lib/Analysis/SourceRef.cpp</text>
</a>
</g>
</g>
<!-- Node2&#45;&gt;Node18 -->
<g id="edge21_Node000002_Node000018" class="edge">
<title>Node2&#45;&gt;Node18</title>
<g id="a_edge21_Node000002_Node000018"><a xlink:title=" ">
<path fill="none" stroke="#63b8ff" d="M1052.69,-211.93C1061.09,-200.6 1070.53,-187.86 1076.85,-179.32"/>
<polygon fill="#63b8ff" stroke="#63b8ff" points="1050.02,-209.67 1046.88,-219.79 1055.64,-213.83 1050.02,-209.67"/>
</a>
</g>
</g>
<!-- Node19 -->
<g id="Node000019" class="node">
<title>Node19</title>
<g id="a_Node000019"><a xlink:href="Array_8cpp.html" target="_top" xlink:title=" ">
<polygon fill="white" stroke="#666666" points="1313.62,-178.88 1174.62,-178.88 1174.62,-158.12 1313.62,-158.12 1313.62,-178.88"/>
<text text-anchor="middle" x="1244.12" y="-165.38" font-family="Helvetica,sans-Serif" font-size="10.00">lib/CAPI/Dialect/Array.cpp</text>
</a>
</g>
</g>
<!-- Node2&#45;&gt;Node19 -->
<g id="edge23_Node000002_Node000019" class="edge">
<title>Node2&#45;&gt;Node19</title>
<g id="a_edge23_Node000002_Node000019"><a xlink:title=" ">
<path fill="none" stroke="#63b8ff" d="M1095.09,-217.41C1133.88,-204.94 1182.48,-189.32 1213.42,-179.37"/>
<polygon fill="#63b8ff" stroke="#63b8ff" points="1094.32,-213.98 1085.87,-220.37 1096.46,-220.64 1094.32,-213.98"/>
</a>
</g>
</g>
<!-- Node20 -->
<g id="Node000020" class="node">
<title>Node20</title>
<g id="a_Node000020"><a xlink:href="Array_2IR_2Dialect_8cpp.html" target="_top" xlink:title=" ">
<polygon fill="white" stroke="#666666" points="1438.88,-185.25 1331.38,-185.25 1331.38,-151.75 1438.88,-151.75 1438.88,-185.25"/>
<text text-anchor="start" x="1339.38" y="-171.75" font-family="Helvetica,sans-Serif" font-size="10.00">lib/Dialect/Array/IR</text>
<text text-anchor="middle" x="1385.12" y="-159" font-family="Helvetica,sans-Serif" font-size="10.00">/Dialect.cpp</text>
</a>
</g>
</g>
<!-- Node2&#45;&gt;Node20 -->
<g id="edge24_Node000002_Node000020" class="edge">
<title>Node2&#45;&gt;Node20</title>
<g id="a_edge24_Node000002_Node000020"><a xlink:title=" ">
<path fill="none" stroke="#63b8ff" d="M1100.32,-226.4C1158.86,-216.73 1246.46,-201.49 1322.12,-185.25 1324.99,-184.63 1327.92,-183.98 1330.88,-183.31"/>
<polygon fill="#63b8ff" stroke="#63b8ff" points="1099.81,-222.94 1090.51,-228.02 1100.94,-229.85 1099.81,-222.94"/>
</a>
</g>
</g>
<!-- Node21 -->
<g id="Node000021" class="node">
<title>Node21</title>
<g id="a_Node000021"><a xlink:href="Array_2IR_2Ops_8cpp.html" target="_top" xlink:title=" ">
<polygon fill="white" stroke="#666666" points="1564.88,-185.25 1457.38,-185.25 1457.38,-151.75 1564.88,-151.75 1564.88,-185.25"/>
<text text-anchor="start" x="1465.38" y="-171.75" font-family="Helvetica,sans-Serif" font-size="10.00">lib/Dialect/Array/IR</text>
<text text-anchor="middle" x="1511.12" y="-159" font-family="Helvetica,sans-Serif" font-size="10.00">/Ops.cpp</text>
</a>
</g>
</g>
<!-- Node2&#45;&gt;Node21 -->
<g id="edge25_Node000002_Node000021" class="edge">
<title>Node2&#45;&gt;Node21</title>
<g id="a_edge25_Node000002_Node000021"><a xlink:title=" ">
<path fill="none" stroke="#63b8ff" d="M1100.44,-231.2C1182.51,-223.45 1326.35,-208 1448.12,-185.25 1451.01,-184.71 1453.95,-184.12 1456.92,-183.49"/>
<polygon fill="#63b8ff" stroke="#63b8ff" points="1100.17,-227.71 1090.54,-232.12 1100.82,-234.68 1100.17,-227.71"/>
</a>
</g>
</g>
<!-- Node22 -->
<g id="Node000022" class="node">
<title>Node22</title>
<g id="a_Node000022"><a xlink:href="Array_2IR_2Types_8cpp.html" target="_top" xlink:title=" ">
<polygon fill="white" stroke="#666666" points="1690.88,-185.25 1583.38,-185.25 1583.38,-151.75 1690.88,-151.75 1690.88,-185.25"/>
<text text-anchor="start" x="1591.38" y="-171.75" font-family="Helvetica,sans-Serif" font-size="10.00">lib/Dialect/Array/IR</text>
<text text-anchor="middle" x="1637.12" y="-159" font-family="Helvetica,sans-Serif" font-size="10.00">/Types.cpp</text>
</a>
</g>
</g>
<!-- Node2&#45;&gt;Node22 -->
<g id="edge26_Node000002_Node000022" class="edge">
<title>Node2&#45;&gt;Node22</title>
<g id="a_edge26_Node000002_Node000022"><a xlink:title=" ">
<path fill="none" stroke="#63b8ff" d="M1100.27,-233.85C1202.49,-228.27 1404.76,-214.37 1574.12,-185.25 1577.01,-184.75 1579.97,-184.2 1582.94,-183.59"/>
<polygon fill="#63b8ff" stroke="#63b8ff" points="1100.21,-230.35 1090.41,-234.38 1100.59,-237.34 1100.21,-230.35"/>
</a>
</g>
</g>
<!-- Node23 -->
<g id="Node000023" class="node">
<title>Node23</title>
<g id="a_Node000023"><a xlink:href="ArrayToScalarPass_8cpp.html" target="_top" xlink:title="This file implements the &#45;llzk&#45;array&#45;to&#45;scalar pass.">
<polygon fill="white" stroke="#666666" points="1861,-185.25 1709.25,-185.25 1709.25,-151.75 1861,-151.75 1861,-185.25"/>
<text text-anchor="start" x="1717.25" y="-171.75" font-family="Helvetica,sans-Serif" font-size="10.00">lib/Dialect/Array/Transforms</text>
<text text-anchor="middle" x="1785.12" y="-159" font-family="Helvetica,sans-Serif" font-size="10.00">/ArrayToScalarPass.cpp</text>
</a>
</g>
</g>
<!-- Node2&#45;&gt;Node23 -->
<g id="edge27_Node000002_Node000023" class="edge">
<title>Node2&#45;&gt;Node23</title>
<g id="a_edge27_Node000002_Node000023"><a xlink:title=" ">
<path fill="none" stroke="#63b8ff" d="M1099.86,-234.2C1219.62,-228.58 1481.23,-213.95 1700.12,-185.25 1703.1,-184.86 1706.13,-184.43 1709.19,-183.98"/>
<polygon fill="#63b8ff" stroke="#63b8ff" points="1100.05,-230.69 1090.23,-234.64 1100.38,-237.68 1100.05,-230.69"/>
</a>
</g>
</g>
<!-- Node24 -->
<g id="Node000024" class="node">
<title>Node24</title>
<g id="a_Node000024"><a xlink:href="LLZKPolyLoweringPass_8cpp.html" target="_top" xlink:title="This file implements the &#45;llzk&#45;poly&#45;lowering pass.">
<polygon fill="white" stroke="#666666" points="182.75,-185.25 5.5,-185.25 5.5,-151.75 182.75,-151.75 182.75,-185.25"/>
<text text-anchor="start" x="13.5" y="-171.75" font-family="Helvetica,sans-Serif" font-size="10.00">lib/Transforms/LLZKPolyLowering</text>
<text text-anchor="middle" x="94.12" y="-159" font-family="Helvetica,sans-Serif" font-size="10.00">Pass.cpp</text>
</a>
</g>
</g>
<!-- Node2&#45;&gt;Node24 -->
<g id="edge32_Node000002_Node000024" class="edge">
<title>Node2&#45;&gt;Node24</title>
<g id="a_edge32_Node000002_Node000024"><a xlink:title=" ">
<path fill="none" stroke="#63b8ff" d="M968.11,-235.19C825.77,-230.78 479.5,-217.43 191.12,-185.25 188.5,-184.96 185.83,-184.64 183.14,-184.31"/>
<polygon fill="#63b8ff" stroke="#63b8ff" points="967.61,-238.67 977.71,-235.48 967.82,-231.68 967.61,-238.67"/>
</a>
</g>
</g>
<!-- Node25 -->
<g id="Node000025" class="node">
<title>Node25</title>
<g id="a_Node000025"><a xlink:href="LLZKRedundantReadAndWriteEliminationPass_8cpp.html" target="_top" xlink:title="This file implements the &#45;llzk&#45;duplicate&#45;read&#45;write&#45;elim pass.">
<polygon fill="white" stroke="#666666" points="383.75,-185.25 200.5,-185.25 200.5,-151.75 383.75,-151.75 383.75,-185.25"/>
<text text-anchor="start" x="208.5" y="-171.75" font-family="Helvetica,sans-Serif" font-size="10.00">lib/Transforms/LLZKRedundant</text>
<text text-anchor="middle" x="292.12" y="-159" font-family="Helvetica,sans-Serif" font-size="10.00">ReadAndWriteEliminationPass.cpp</text>
</a>
</g>
</g>
<!-- Node2&#45;&gt;Node25 -->
<g id="edge33_Node000002_Node000025" class="edge">
<title>Node2&#45;&gt;Node25</title>
<g id="a_edge33_Node000002_Node000025"><a xlink:title=" ">
<path fill="none" stroke="#63b8ff" d="M968.37,-233.31C852.09,-226.41 602.63,-210.01 393.12,-185.25 390.13,-184.9 387.09,-184.52 384.01,-184.13"/>
<polygon fill="#63b8ff" stroke="#63b8ff" points="967.84,-236.78 978.03,-233.87 968.25,-229.79 967.84,-236.78"/>
</a>
</g>
</g>
<!-- Node26 -->
<g id="Node000026" class="node">
<title>Node26</title>
<g id="a_Node000026"><a xlink:href="SymbolHelper_8cpp.html" target="_top" xlink:title="This file contains the implementations for symbol helper functions.">
<polygon fill="white" stroke="#666666" points="542,-178.88 402.25,-178.88 402.25,-158.12 542,-158.12 542,-178.88"/>
<text text-anchor="middle" x="472.12" y="-165.38" font-family="Helvetica,sans-Serif" font-size="10.00">lib/Util/SymbolHelper.cpp</text>
</a>
</g>
</g>
<!-- Node2&#45;&gt;Node26 -->
<g id="edge34_Node000002_Node000026" class="edge">
<title>Node2&#45;&gt;Node26</title>
<g id="a_edge34_Node000002_Node000026"><a xlink:title=" ">
<path fill="none" stroke="#63b8ff" d="M968.06,-231.48C875.64,-223.38 702.62,-206.88 556.12,-185.25 544.68,-183.56 532.41,-181.44 520.88,-179.3"/>
<polygon fill="#63b8ff" stroke="#63b8ff" points="967.7,-234.96 977.96,-232.34 968.3,-227.99 967.7,-234.96"/>
</a>
</g>
</g>
<!-- Node27 -->
<g id="Node000027" class="node">
<title>Node27</title>
<g id="a_Node000027"><a xlink:href="Interpreter_8cpp.html" target="_top" xlink:title=" ">
<polygon fill="white" stroke="#666666" points="2288.75,-178.88 2117.5,-178.88 2117.5,-158.12 2288.75,-158.12 2288.75,-178.88"/>
<text text-anchor="middle" x="2203.12" y="-165.38" font-family="Helvetica,sans-Serif" font-size="10.00">tools/llzk&#45;witgen/Interpreter.cpp</text>
</a>
</g>
</g>
<!-- Node2&#45;&gt;Node27 -->
<g id="edge35_Node000002_Node000027" class="edge">
<title>Node2&#45;&gt;Node27</title>
<g id="a_edge35_Node000002_Node000027"><a xlink:title=" ">
<path fill="none" stroke="#63b8ff" d="M1100.44,-236.27C1268.57,-233.89 1725.01,-224.06 2103.12,-185.25 2117.55,-183.77 2133.06,-181.61 2147.46,-179.36"/>
<polygon fill="#63b8ff" stroke="#63b8ff" points="1100.54,-232.77 1090.59,-236.41 1100.64,-239.77 1100.54,-232.77"/>
</a>
</g>
</g>
<!-- Node28 -->
<g id="Node000028" class="node">
<title>Node28</title>
<g id="a_Node000028"><a xlink:href="WitgenLowering_8cpp.html" target="_top" xlink:title=" ">
<polygon fill="white" stroke="#666666" points="2441.38,-185.25 2306.88,-185.25 2306.88,-151.75 2441.38,-151.75 2441.38,-185.25"/>
<text text-anchor="start" x="2314.88" y="-171.75" font-family="Helvetica,sans-Serif" font-size="10.00">tools/llzk&#45;witgen/Witgen</text>
<text text-anchor="middle" x="2374.12" y="-159" font-family="Helvetica,sans-Serif" font-size="10.00">Lowering.cpp</text>
</a>
</g>
</g>
<!-- Node2&#45;&gt;Node28 -->
<g id="edge36_Node000002_Node000028" class="edge">
<title>Node2&#45;&gt;Node28</title>
<g id="a_edge36_Node000002_Node000028"><a xlink:title=" ">
<path fill="none" stroke="#63b8ff" d="M1100.22,-235.72C1325.57,-231.14 2062.85,-214.25 2298.12,-185.25 2300.93,-184.9 2303.79,-184.51 2306.68,-184.07"/>
<polygon fill="#63b8ff" stroke="#63b8ff" points="1100.37,-232.22 1090.45,-235.92 1100.52,-239.22 1100.37,-232.22"/>
</a>
</g>
</g>
<!-- Node3&#45;&gt;Node4 -->
<g id="edge3_Node000003_Node000004" class="edge">
<title>Node3&#45;&gt;Node4</title>
<g id="a_edge3_Node000003_Node000004"><a xlink:title=" ">
<path fill="none" stroke="#63b8ff" d="M716.09,-145.02C730.44,-135.53 746.81,-124.7 759.89,-116.04"/>
<polygon fill="#63b8ff" stroke="#63b8ff" points="714.23,-142.06 707.82,-150.5 718.09,-147.9 714.23,-142.06"/>
</a>
</g>
</g>
<!-- Node3&#45;&gt;Node7 -->
<g id="edge6_Node000003_Node000007" class="edge">
<title>Node3&#45;&gt;Node7</title>
<g id="a_edge6_Node000003_Node000007"><a xlink:title=" ">
<path fill="none" stroke="#63b8ff" d="M586.64,-152.07C585.8,-151.96 584.96,-151.86 584.12,-151.75 411.87,-129.96 367.45,-137.01 195.12,-115.75 192.28,-115.4 189.39,-115.03 186.48,-114.65"/>
<polygon fill="#63b8ff" stroke="#63b8ff" points="585.84,-155.5 596.22,-153.36 586.77,-148.56 585.84,-155.5"/>
</a>
</g>
</g>
<!-- Node8 -->
<g id="Node000008" class="node">
<title>Node8</title>
<g id="a_Node000008"><a xlink:href="ConstraintDependencyGraphPass_8cpp.html" target="_top" xlink:title="This file implements the &#45;llzk&#45;print&#45;constraint&#45;dependency&#45;graphs pass.">
<polygon fill="white" stroke="#666666" points="390.25,-115.75 204,-115.75 204,-82.25 390.25,-82.25 390.25,-115.75"/>
<text text-anchor="start" x="212" y="-102.25" font-family="Helvetica,sans-Serif" font-size="10.00">lib/Analysis/ConstraintDependency</text>
<text text-anchor="middle" x="297.12" y="-89.5" font-family="Helvetica,sans-Serif" font-size="10.00">GraphPass.cpp</text>
</a>
</g>
</g>
<!-- Node3&#45;&gt;Node8 -->
<g id="edge7_Node000003_Node000008" class="edge">
<title>Node3&#45;&gt;Node8</title>
<g id="a_edge7_Node000003_Node000008"><a xlink:title=" ">
<path fill="none" stroke="#63b8ff" d="M586.6,-150.75C526.41,-140.2 449.08,-126.64 389.5,-116.2"/>
<polygon fill="#63b8ff" stroke="#63b8ff" points="585.69,-154.15 596.14,-152.43 586.9,-147.25 585.69,-154.15"/>
</a>
</g>
</g>
<!-- Node3&#45;&gt;Node9 -->
<g id="edge8_Node000003_Node000009" class="edge">
<title>Node3&#45;&gt;Node9</title>
<g id="a_edge8_Node000003_Node000009"><a xlink:title=" ">
<path fill="none" stroke="#63b8ff" d="M659.36,-143.11C648.63,-131.61 636.42,-118.53 628.29,-109.82"/>
<polygon fill="#63b8ff" stroke="#63b8ff" points="656.78,-145.47 666.16,-150.4 661.9,-140.7 656.78,-145.47"/>
</a>
</g>
</g>
<!-- Node10 -->
<g id="Node000010" class="node">
<title>Node10</title>
<g id="a_Node000010"><a xlink:href="Verif_2IR_2Ops_8cpp.html" target="_top" xlink:title=" ">
<polygon fill="white" stroke="#666666" points="512,-115.75 408.25,-115.75 408.25,-82.25 512,-82.25 512,-115.75"/>
<text text-anchor="start" x="416.25" y="-102.25" font-family="Helvetica,sans-Serif" font-size="10.00">lib/Dialect/Verif/IR</text>
<text text-anchor="middle" x="460.12" y="-89.5" font-family="Helvetica,sans-Serif" font-size="10.00">/Ops.cpp</text>
</a>
</g>
</g>
<!-- Node3&#45;&gt;Node10 -->
<g id="edge9_Node000003_Node000010" class="edge">
<title>Node3&#45;&gt;Node10</title>
<g id="a_edge9_Node000003_Node000010"><a xlink:title=" ">
<path fill="none" stroke="#63b8ff" d="M618.33,-148.1C584.78,-137.9 544.16,-125.55 512.48,-115.92"/>
<polygon fill="#63b8ff" stroke="#63b8ff" points="616.92,-151.33 627.5,-150.89 618.95,-144.63 616.92,-151.33"/>
</a>
</g>
</g>
<!-- Node4&#45;&gt;Node5 -->
<g id="edge4_Node000004_Node000005" class="edge">
<title>Node4&#45;&gt;Node5</title>
<g id="a_edge4_Node000004_Node000005"><a xlink:title=" ">
<path fill="none" stroke="#63b8ff" d="M811.34,-74.62C827.51,-60.73 847.13,-43.88 859.12,-33.58"/>
<polygon fill="#63b8ff" stroke="#63b8ff" points="809.24,-71.81 803.93,-80.98 813.8,-77.12 809.24,-71.81"/>
</a>
</g>
</g>
<!-- Node6 -->
<g id="Node000006" class="node">
<title>Node6</title>
<g id="a_Node000006"><a xlink:href="IntervalAnalysisPass_8cpp.html" target="_top" xlink:title="This file implements the &#45;llzk&#45;print&#45;interval&#45;analysis pass.">
<polygon fill="white" stroke="#666666" points="765.12,-39.88 611.12,-39.88 611.12,-6.38 765.12,-6.38 765.12,-39.88"/>
<text text-anchor="start" x="619.12" y="-26.38" font-family="Helvetica,sans-Serif" font-size="10.00">lib/Analysis/IntervalAnalysis</text>
<text text-anchor="middle" x="688.12" y="-13.62" font-family="Helvetica,sans-Serif" font-size="10.00">Pass.cpp</text>
</a>
</g>
</g>
<!-- Node4&#45;&gt;Node6 -->
<g id="edge5_Node000004_Node000006" class="edge">
<title>Node4&#45;&gt;Node6</title>
<g id="a_edge5_Node000004_Node000006"><a xlink:title=" ">
<path fill="none" stroke="#63b8ff" d="M754.51,-75.21C739.75,-63.85 722.24,-50.38 708.91,-40.12"/>
<polygon fill="#63b8ff" stroke="#63b8ff" points="752.04,-77.72 762.09,-81.05 756.3,-72.17 752.04,-77.72"/>
</a>
</g>
</g>
<!-- Node11&#45;&gt;Node12 -->
<g id="edge12_Node000011_Node000012" class="edge">
<title>Node11&#45;&gt;Node12</title>
<g id="a_edge12_Node000011_Node000012"><a xlink:title=" ">
<path fill="none" stroke="#63b8ff" d="M1867.7,-151.38C1768.42,-136.07 1665.22,-120.53 1598.56,-110.53"/>
<polygon fill="#63b8ff" stroke="#63b8ff" points="1866.93,-154.8 1877.35,-152.87 1868,-147.88 1866.93,-154.8"/>
</a>
</g>
</g>
<!-- Node11&#45;&gt;Node16 -->
<g id="edge17_Node000011_Node000016" class="edge">
<title>Node11&#45;&gt;Node16</title>
<g id="a_edge17_Node000011_Node000016"><a xlink:title=" ">
<path fill="none" stroke="#63b8ff" d="M1970.12,-139.93C1970.12,-112.78 1970.12,-71.8 1970.12,-46.57"/>
<polygon fill="#63b8ff" stroke="#63b8ff" points="1966.63,-139.82 1970.13,-149.82 1973.63,-139.82 1966.63,-139.82"/>
</a>
</g>
</g>
<!-- Node11&#45;&gt;Node17 -->
<g id="edge18_Node000011_Node000017" class="edge">
<title>Node11&#45;&gt;Node17</title>
<g id="a_edge18_Node000011_Node000017"><a xlink:title=" ">
<path fill="none" stroke="#63b8ff" d="M1923.2,-146.8C1900.87,-136.95 1874.57,-125.34 1853.74,-116.15"/>
<polygon fill="#63b8ff" stroke="#63b8ff" points="1921.53,-149.89 1932.09,-150.72 1924.36,-143.48 1921.53,-149.89"/>
</a>
</g>
</g>
<!-- Node13 -->
<g id="Node000013" class="node">
<title>Node13</title>
<g id="a_Node000013"><a xlink:href="EmptyTemplateRemovalPass_8cpp.html" target="_top" xlink:title="This file implements the &#45;llzk&#45;drop&#45;empty&#45;templates pass.">
<polygon fill="white" stroke="#666666" points="1530.12,-46.25 1334.12,-46.25 1334.12,0 1530.12,0 1530.12,-46.25"/>
<text text-anchor="start" x="1342.12" y="-32.75" font-family="Helvetica,sans-Serif" font-size="10.00">lib/Dialect/Polymorphic</text>
<text text-anchor="start" x="1342.12" y="-20" font-family="Helvetica,sans-Serif" font-size="10.00">/Transforms/EmptyTemplateRemoval</text>
<text text-anchor="middle" x="1432.12" y="-7.25" font-family="Helvetica,sans-Serif" font-size="10.00">Pass.cpp</text>
</a>
</g>
</g>
<!-- Node12&#45;&gt;Node13 -->
<g id="edge13_Node000012_Node000013" class="edge">
<title>Node12&#45;&gt;Node13</title>
<g id="a_edge13_Node000012_Node000013"><a xlink:title=" ">
<path fill="none" stroke="#63b8ff" d="M1498.28,-75.03C1486.5,-65.97 1473,-55.58 1461.29,-46.57"/>
<polygon fill="#63b8ff" stroke="#63b8ff" points="1496.04,-77.72 1506.09,-81.05 1500.3,-72.17 1496.04,-77.72"/>
</a>
</g>
</g>
<!-- Node12&#45;&gt;Node14 -->
<g id="edge14_Node000012_Node000014" class="edge">
<title>Node12&#45;&gt;Node14</title>
<g id="a_edge14_Node000012_Node000014"><a xlink:title=" ">
<path fill="none" stroke="#63b8ff" d="M1446.63,-79.98C1391.86,-67.86 1320.3,-52.03 1267.34,-40.32"/>
<polygon fill="#63b8ff" stroke="#63b8ff" points="1445.7,-83.35 1456.22,-82.1 1447.21,-76.52 1445.7,-83.35"/>
</a>
</g>
</g>
<!-- Node15 -->
<g id="Node000015" class="node">
<title>Node15</title>
<g id="a_Node000015"><a xlink:href="SharedImpl_8cpp.html" target="_top" xlink:title=" ">
<polygon fill="white" stroke="#666666" points="1700,-39.88 1548.25,-39.88 1548.25,-6.38 1700,-6.38 1700,-39.88"/>
<text text-anchor="start" x="1556.25" y="-26.38" font-family="Helvetica,sans-Serif" font-size="10.00">lib/Dialect/Polymorphic</text>
<text text-anchor="middle" x="1624.12" y="-13.62" font-family="Helvetica,sans-Serif" font-size="10.00">/Transforms/SharedImpl.cpp</text>
</a>
</g>
</g>
<!-- Node12&#45;&gt;Node15 -->
<g id="edge15_Node000012_Node000015" class="edge">
<title>Node12&#45;&gt;Node15</title>
<g id="a_edge15_Node000012_Node000015"><a xlink:title=" ">
<path fill="none" stroke="#63b8ff" d="M1557.74,-75.21C1572.5,-63.85 1590.01,-50.38 1603.34,-40.12"/>
<polygon fill="#63b8ff" stroke="#63b8ff" points="1555.95,-72.17 1550.16,-81.05 1560.21,-77.72 1555.95,-72.17"/>
</a>
</g>
</g>
<!-- Node12&#45;&gt;Node16 -->
<g id="edge16_Node000012_Node000016" class="edge">
<title>Node12&#45;&gt;Node16</title>
<g id="a_edge16_Node000012_Node000016"><a xlink:title=" ">
<path fill="none" stroke="#63b8ff" d="M1609.81,-84.35C1681.15,-72.42 1785.19,-55.04 1863.15,-42"/>
<polygon fill="#63b8ff" stroke="#63b8ff" points="1609.43,-80.86 1600.14,-85.96 1610.58,-87.77 1609.43,-80.86"/>
</a>
</g>
</g>
<!-- Node29&#45;&gt;Node11 -->
<g id="edge38_Node000029_Node000011" class="edge">
<title>Node29&#45;&gt;Node11</title>
<g id="a_edge38_Node000029_Node000011"><a xlink:title=" ">
<path fill="none" stroke="#63b8ff" d="M2444.09,-228.75C2348.12,-216.75 2169.75,-194.45 2061.31,-180.9"/>
<polygon fill="#63b8ff" stroke="#63b8ff" points="2443.52,-232.2 2453.87,-229.97 2444.38,-225.26 2443.52,-232.2"/>
</a>
</g>
</g>
<!-- Node29&#45;&gt;Node27 -->
<g id="edge44_Node000029_Node000027" class="edge">
<title>Node29&#45;&gt;Node27</title>
<g id="a_edge44_Node000029_Node000027"><a xlink:title=" ">
<path fill="none" stroke="#63b8ff" d="M2444.1,-222.48C2384.74,-209.43 2299.17,-190.62 2247.58,-179.27"/>
<polygon fill="#63b8ff" stroke="#63b8ff" points="2443.24,-225.88 2453.76,-224.61 2444.75,-219.04 2443.24,-225.88"/>
</a>
</g>
</g>
<!-- Node29&#45;&gt;Node28 -->
<g id="edge45_Node000029_Node000028" class="edge">
<title>Node29&#45;&gt;Node28</title>
<g id="a_edge45_Node000029_Node000028"><a xlink:title=" ">
<path fill="none" stroke="#63b8ff" d="M2467.3,-215.74C2447.61,-205.97 2424.64,-194.57 2406.43,-185.54"/>
<polygon fill="#63b8ff" stroke="#63b8ff" points="2465.68,-218.85 2476.19,-220.16 2468.79,-212.58 2465.68,-218.85"/>
</a>
</g>
</g>
<!-- Node30 -->
<g id="Node000030" class="node">
<title>Node30</title>
<g id="a_Node000030"><a xlink:href="POD_8cpp.html" target="_top" xlink:title=" ">
<polygon fill="white" stroke="#666666" points="3054.75,-178.88 2919.5,-178.88 2919.5,-158.12 3054.75,-158.12 3054.75,-178.88"/>
<text text-anchor="middle" x="2987.12" y="-165.38" font-family="Helvetica,sans-Serif" font-size="10.00">lib/CAPI/Dialect/POD.cpp</text>
</a>
</g>
</g>
<!-- Node29&#45;&gt;Node30 -->
<g id="edge39_Node000029_Node000030" class="edge">
<title>Node29&#45;&gt;Node30</title>
<g id="a_edge39_Node000029_Node000030"><a xlink:title=" ">
<path fill="none" stroke="#63b8ff" d="M2576.14,-221.06C2724.05,-195.86 2765.34,-207.76 2910.12,-185.25 2920.78,-183.59 2932.19,-181.46 2942.87,-179.3"/>
<polygon fill="#63b8ff" stroke="#63b8ff" points="2575.58,-217.61 2566.33,-222.76 2576.78,-224.5 2575.58,-217.61"/>
</a>
</g>
</g>
<!-- Node31 -->
<g id="Node000031" class="node">
<title>Node31</title>
<g id="a_Node000031"><a xlink:href="POD_2IR_2Dialect_8cpp.html" target="_top" xlink:title=" ">
<polygon fill="white" stroke="#666666" points="3175.25,-185.25 3073,-185.25 3073,-151.75 3175.25,-151.75 3175.25,-185.25"/>
<text text-anchor="start" x="3081" y="-171.75" font-family="Helvetica,sans-Serif" font-size="10.00">lib/Dialect/POD/IR</text>
<text text-anchor="middle" x="3124.12" y="-159" font-family="Helvetica,sans-Serif" font-size="10.00">/Dialect.cpp</text>
</a>
</g>
</g>
<!-- Node29&#45;&gt;Node31 -->
<g id="edge40_Node000029_Node000031" class="edge">
<title>Node29&#45;&gt;Node31</title>
<g id="a_edge40_Node000029_Node000031"><a xlink:title=" ">
<path fill="none" stroke="#63b8ff" d="M2575.88,-221.17C2791.79,-188.15 2852.3,-220.53 3064.12,-185.25 3066.89,-184.79 3069.71,-184.26 3072.54,-183.68"/>
<polygon fill="#63b8ff" stroke="#63b8ff" points="2575.65,-217.67 2566.31,-222.67 2576.73,-224.58 2575.65,-217.67"/>
</a>
</g>
</g>
<!-- Node32 -->
<g id="Node000032" class="node">
<title>Node32</title>
<g id="a_Node000032"><a xlink:href="POD_2IR_2Ops_8cpp.html" target="_top" xlink:title=" ">
<polygon fill="white" stroke="#666666" points="2561.25,-185.25 2459,-185.25 2459,-151.75 2561.25,-151.75 2561.25,-185.25"/>
<text text-anchor="start" x="2467" y="-171.75" font-family="Helvetica,sans-Serif" font-size="10.00">lib/Dialect/POD/IR</text>
<text text-anchor="middle" x="2510.12" y="-159" font-family="Helvetica,sans-Serif" font-size="10.00">/Ops.cpp</text>
</a>
</g>
</g>
<!-- Node29&#45;&gt;Node32 -->
<g id="edge41_Node000029_Node000032" class="edge">
<title>Node29&#45;&gt;Node32</title>
<g id="a_edge41_Node000029_Node000032"><a xlink:title=" ">
<path fill="none" stroke="#63b8ff" d="M2510.12,-209.56C2510.12,-201.34 2510.12,-192.59 2510.12,-185.38"/>
<polygon fill="#63b8ff" stroke="#63b8ff" points="2506.63,-209.49 2510.13,-219.49 2513.63,-209.49 2506.63,-209.49"/>
</a>
</g>
</g>
<!-- Node33 -->
<g id="Node000033" class="node">
<title>Node33</title>
<g id="a_Node000033"><a xlink:href="PodToScalarPass_8cpp.html" target="_top" xlink:title="This file implements the &#45;llzk&#45;pod&#45;to&#45;scalar pass.">
<polygon fill="white" stroke="#666666" points="2725.38,-185.25 2578.88,-185.25 2578.88,-151.75 2725.38,-151.75 2725.38,-185.25"/>
<text text-anchor="start" x="2586.88" y="-171.75" font-family="Helvetica,sans-Serif" font-size="10.00">lib/Dialect/POD/Transforms</text>
<text text-anchor="middle" x="2652.12" y="-159" font-family="Helvetica,sans-Serif" font-size="10.00">/PodToScalarPass.cpp</text>
</a>
</g>
</g>
<!-- Node29&#45;&gt;Node33 -->
<g id="edge42_Node000029_Node000033" class="edge">
<title>Node29&#45;&gt;Node33</title>
<g id="a_edge42_Node000029_Node000033"><a xlink:title=" ">
<path fill="none" stroke="#63b8ff" d="M2554.27,-216.01C2574.96,-206.18 2599.21,-194.66 2618.39,-185.54"/>
<polygon fill="#63b8ff" stroke="#63b8ff" points="2553.03,-212.73 2545.5,-220.18 2556.04,-219.05 2553.03,-212.73"/>
</a>
</g>
</g>
<!-- Node34 -->
<g id="Node000034" class="node">
<title>Node34</title>
<g id="a_Node000034"><a xlink:href="SymbolTableLLZK_8cpp.html" target="_top" xlink:title="This is a selection of code from mlir/lib/IR/SymbolTable.cpp to support a modified version of walkSym...">
<polygon fill="white" stroke="#666666" points="2901,-178.88 2743.25,-178.88 2743.25,-158.12 2901,-158.12 2901,-178.88"/>
<text text-anchor="middle" x="2822.12" y="-165.38" font-family="Helvetica,sans-Serif" font-size="10.00">lib/Util/SymbolTableLLZK.cpp</text>
</a>
</g>
</g>
<!-- Node29&#45;&gt;Node34 -->
<g id="edge43_Node000029_Node000034" class="edge">
<title>Node29&#45;&gt;Node34</title>
<g id="a_edge43_Node000029_Node000034"><a xlink:title=" ">
<path fill="none" stroke="#63b8ff" d="M2575.86,-220.9C2650.16,-204.14 2724.82,-188.87 2772.61,-179.29"/>
<polygon fill="#63b8ff" stroke="#63b8ff" points="2575.36,-217.42 2566.38,-223.05 2576.91,-224.25 2575.36,-217.42"/>
</a>
</g>
</g>
</g>
</svg>
