<?xml version="1.0" encoding="UTF-8" standalone="no"?>
<!DOCTYPE svg PUBLIC "-//W3C//DTD SVG 1.1//EN"
 "http://www.w3.org/Graphics/SVG/1.1/DTD/svg11.dtd">
<!-- Generated by graphviz version 12.2.1 (0)
 -->
<!-- Title: lib/Transforms/DiscardableAllocationOpInterfaces.cpp Pages: 1 -->
<svg width="501pt" height="181pt"
 viewBox="0.00 0.00 500.50 180.50" xmlns="http://www.w3.org/2000/svg" xmlns:xlink="http://www.w3.org/1999/xlink">
<g id="graph0" class="graph" transform="scale(1 1) rotate(0) translate(4 176.5)">
<title>lib/Transforms/DiscardableAllocationOpInterfaces.cpp</title>
<!-- Node1 -->
<g id="Node000001" class="node">
<title>Node1</title>
<g id="a_Node000001"><a xlink:title=" ">
<polygon fill="#999999" stroke="#666666" points="395.88,-172.5 248.62,-172.5 248.62,-139 395.88,-139 395.88,-172.5"/>
<text text-anchor="start" x="256.62" y="-159" font-family="Helvetica,sans-Serif" font-size="10.00">lib/Transforms/Discardable</text>
<text text-anchor="middle" x="322.25" y="-146.25" font-family="Helvetica,sans-Serif" font-size="10.00">AllocationOpInterfaces.cpp</text>
</a>
</g>
</g>
<!-- Node2 -->
<g id="Node000002" class="node">
<title>Node2</title>
<g id="a_Node000002"><a xlink:href="DiscardableAllocationOpInterfaces_8h.html" target="_top" xlink:title=" ">
<polygon fill="white" stroke="#666666" points="309.75,-103 158.75,-103 158.75,-69.5 309.75,-69.5 309.75,-103"/>
<text text-anchor="start" x="166.75" y="-89.5" font-family="Helvetica,sans-Serif" font-size="10.00">llzk/Transforms/Discardable</text>
<text text-anchor="middle" x="234.25" y="-76.75" font-family="Helvetica,sans-Serif" font-size="10.00">AllocationOpInterfaces.h</text>
</a>
</g>
</g>
<!-- Node1&#45;&gt;Node2 -->
<g id="edge1_Node000001_Node000002" class="edge">
<title>Node1&#45;&gt;Node2</title>
<g id="a_edge1_Node000001_Node000002"><a xlink:title=" ">
<path fill="none" stroke="#63b8ff" d="M301.4,-138.75C290.3,-130.24 276.45,-119.62 264.22,-110.24"/>
<polygon fill="#63b8ff" stroke="#63b8ff" points="266.53,-107.6 256.46,-104.29 262.27,-113.15 266.53,-107.6"/>
</a>
</g>
</g>
<!-- Node6 -->
<g id="Node000006" class="node">
<title>Node6</title>
<g id="a_Node000006"><a xlink:href="DiscardableAllocationOpInterfaces_8cpp_8inc.html" target="_top" xlink:title=" ">
<polygon fill="white" stroke="#666666" points="492.5,-103 328,-103 328,-69.5 492.5,-69.5 492.5,-103"/>
<text text-anchor="start" x="336" y="-89.5" font-family="Helvetica,sans-Serif" font-size="10.00">llzk/Transforms/Discardable</text>
<text text-anchor="middle" x="410.25" y="-76.75" font-family="Helvetica,sans-Serif" font-size="10.00">AllocationOpInterfaces.cpp.inc</text>
</a>
</g>
</g>
<!-- Node1&#45;&gt;Node6 -->
<g id="edge5_Node000001_Node000006" class="edge">
<title>Node1&#45;&gt;Node6</title>
<g id="a_edge5_Node000001_Node000006"><a xlink:title=" ">
<path fill="none" stroke="#63b8ff" d="M343.1,-138.75C354.2,-130.24 368.05,-119.62 380.28,-110.24"/>
<polygon fill="#63b8ff" stroke="#63b8ff" points="382.23,-113.15 388.04,-104.29 377.97,-107.6 382.23,-113.15"/>
</a>
</g>
</g>
<!-- Node3 -->
<g id="Node000003" class="node">
<title>Node3</title>
<g id="a_Node000003"><a xlink:title=" ">
<polygon fill="#e0e0e0" stroke="#999999" points="146.5,-33.5 0,-33.5 0,0 146.5,0 146.5,-33.5"/>
<text text-anchor="start" x="8" y="-20" font-family="Helvetica,sans-Serif" font-size="10.00">mlir/Interfaces/DataLayout</text>
<text text-anchor="middle" x="73.25" y="-7.25" font-family="Helvetica,sans-Serif" font-size="10.00">Interfaces.h</text>
</a>
</g>
</g>
<!-- Node2&#45;&gt;Node3 -->
<g id="edge2_Node000002_Node000003" class="edge">
<title>Node2&#45;&gt;Node3</title>
<g id="a_edge2_Node000002_Node000003"><a xlink:title=" ">
<path fill="none" stroke="#63b8ff" d="M195.69,-69.08C173.66,-59.85 145.83,-48.18 122.27,-38.3"/>
<polygon fill="#63b8ff" stroke="#63b8ff" points="123.75,-35.13 113.17,-34.49 121.04,-41.58 123.75,-35.13"/>
</a>
</g>
</g>
<!-- Node4 -->
<g id="Node000004" class="node">
<title>Node4</title>
<g id="a_Node000004"><a xlink:title=" ">
<polygon fill="#e0e0e0" stroke="#999999" points="303.75,-33.5 164.75,-33.5 164.75,0 303.75,0 303.75,-33.5"/>
<text text-anchor="start" x="172.75" y="-20" font-family="Helvetica,sans-Serif" font-size="10.00">mlir/Interfaces/SideEffect</text>
<text text-anchor="middle" x="234.25" y="-7.25" font-family="Helvetica,sans-Serif" font-size="10.00">Interfaces.h</text>
</a>
</g>
</g>
<!-- Node2&#45;&gt;Node4 -->
<g id="edge3_Node000002_Node000004" class="edge">
<title>Node2&#45;&gt;Node4</title>
<g id="a_edge3_Node000002_Node000004"><a xlink:title=" ">
<path fill="none" stroke="#63b8ff" d="M234.25,-69.25C234.25,-62.02 234.25,-53.28 234.25,-45.06"/>
<polygon fill="#63b8ff" stroke="#63b8ff" points="237.75,-45.15 234.25,-35.15 230.75,-45.15 237.75,-45.15"/>
</a>
</g>
</g>
<!-- Node5 -->
<g id="Node000005" class="node">
<title>Node5</title>
<g id="a_Node000005"><a xlink:href="DiscardableAllocationOpInterfaces_8h_8inc.html" target="_top" xlink:title=" ">
<polygon fill="white" stroke="#666666" points="474.88,-33.5 321.62,-33.5 321.62,0 474.88,0 474.88,-33.5"/>
<text text-anchor="start" x="329.62" y="-20" font-family="Helvetica,sans-Serif" font-size="10.00">llzk/Transforms/Discardable</text>
<text text-anchor="middle" x="398.25" y="-7.25" font-family="Helvetica,sans-Serif" font-size="10.00">AllocationOpInterfaces.h.inc</text>
</a>
</g>
</g>
<!-- Node2&#45;&gt;Node5 -->
<g id="edge4_Node000002_Node000005" class="edge">
<title>Node2&#45;&gt;Node5</title>
<g id="a_edge4_Node000002_Node000005"><a xlink:title=" ">
<path fill="none" stroke="#63b8ff" d="M273.53,-69.08C296.07,-59.81 324.57,-48.07 348.64,-38.17"/>
<polygon fill="#63b8ff" stroke="#63b8ff" points="349.69,-41.52 357.6,-34.48 347.03,-35.05 349.69,-41.52"/>
</a>
</g>
</g>
</g>
</svg>
