<?xml version="1.0" encoding="UTF-8" standalone="no"?>
<!DOCTYPE svg PUBLIC "-//W3C//DTD SVG 1.1//EN"
 "http://www.w3.org/Graphics/SVG/1.1/DTD/svg11.dtd">
<!-- Generated by graphviz version 12.2.1 (0)
 -->
<!-- Title: tools/llzk&#45;tblgen/EnumCAPITestGen.cpp Pages: 1 -->
<svg width="1075pt" height="155pt"
 viewBox="0.00 0.00 1074.75 155.00" xmlns="http://www.w3.org/2000/svg" xmlns:xlink="http://www.w3.org/1999/xlink">
<g id="graph0" class="graph" transform="scale(1 1) rotate(0) translate(4 151)">
<title>tools/llzk&#45;tblgen/EnumCAPITestGen.cpp</title>
<!-- Node1 -->
<g id="Node000001" class="node">
<title>Node1</title>
<g id="a_Node000001"><a xlink:title=" ">
<polygon fill="#999999" stroke="#666666" points="475.88,-147 308.38,-147 308.38,-113.5 475.88,-113.5 475.88,-147"/>
<text text-anchor="start" x="316.38" y="-133.5" font-family="Helvetica,sans-Serif" font-size="10.00">tools/llzk&#45;tblgen/EnumCAPITest</text>
<text text-anchor="middle" x="392.12" y="-120.75" font-family="Helvetica,sans-Serif" font-size="10.00">Gen.cpp</text>
</a>
</g>
</g>
<!-- Node2 -->
<g id="Node000002" class="node">
<title>Node2</title>
<g id="a_Node000002"><a xlink:title=" ">
<polygon fill="#e0e0e0" stroke="#999999" points="155.25,-77.5 17,-77.5 17,-56.75 155.25,-56.75 155.25,-77.5"/>
<text text-anchor="middle" x="86.12" y="-64" font-family="Helvetica,sans-Serif" font-size="10.00">mlir/TableGen/Attribute.h</text>
</a>
</g>
</g>
<!-- Node1&#45;&gt;Node2 -->
<g id="edge1_Node000001_Node000002" class="edge">
<title>Node1&#45;&gt;Node2</title>
<g id="a_edge1_Node000001_Node000002"><a xlink:title=" ">
<path fill="none" stroke="#63b8ff" d="M310.93,-113.03C259.24,-102.71 193.41,-89.56 146.37,-80.16"/>
<polygon fill="#63b8ff" stroke="#63b8ff" points="147.11,-76.74 136.62,-78.21 145.74,-83.6 147.11,-76.74"/>
</a>
</g>
</g>
<!-- Node3 -->
<g id="Node000003" class="node">
<title>Node3</title>
<g id="a_Node000003"><a xlink:title=" ">
<polygon fill="#e0e0e0" stroke="#999999" points="307,-77.5 173.25,-77.5 173.25,-56.75 307,-56.75 307,-77.5"/>
<text text-anchor="middle" x="240.12" y="-64" font-family="Helvetica,sans-Serif" font-size="10.00">mlir/TableGen/GenInfo.h</text>
</a>
</g>
</g>
<!-- Node1&#45;&gt;Node3 -->
<g id="edge2_Node000001_Node000003" class="edge">
<title>Node1&#45;&gt;Node3</title>
<g id="a_edge2_Node000001_Node000003"><a xlink:title=" ">
<path fill="none" stroke="#63b8ff" d="M351.79,-113.03C327.91,-103.43 297.94,-91.38 275.07,-82.18"/>
<polygon fill="#63b8ff" stroke="#63b8ff" points="276.46,-78.96 265.87,-78.48 273.85,-85.46 276.46,-78.96"/>
</a>
</g>
</g>
<!-- Node4 -->
<g id="Node000004" class="node">
<title>Node4</title>
<g id="a_Node000004"><a xlink:title=" ">
<polygon fill="#e0e0e0" stroke="#999999" points="132.25,-20.75 0,-20.75 0,0 132.25,0 132.25,-20.75"/>
<text text-anchor="middle" x="66.12" y="-7.25" font-family="Helvetica,sans-Serif" font-size="10.00">llvm/ADT/StringExtras.h</text>
</a>
</g>
</g>
<!-- Node1&#45;&gt;Node4 -->
<g id="edge3_Node000001_Node000004" class="edge">
<title>Node1&#45;&gt;Node4</title>
<g id="a_edge3_Node000001_Node000004"><a xlink:title=" ">
<path fill="none" stroke="#63b8ff" d="M380.06,-113.14C366.47,-96.25 342.78,-70.31 316.12,-56.75 300.69,-48.9 210.15,-33.61 142.44,-22.96"/>
<polygon fill="#63b8ff" stroke="#63b8ff" points="143.27,-19.55 132.85,-21.46 142.19,-26.46 143.27,-19.55"/>
</a>
</g>
</g>
<!-- Node5 -->
<g id="Node000005" class="node">
<title>Node5</title>
<g id="a_Node000005"><a xlink:title=" ">
<polygon fill="#e0e0e0" stroke="#999999" points="311.5,-20.75 150.75,-20.75 150.75,0 311.5,0 311.5,-20.75"/>
<text text-anchor="middle" x="231.12" y="-7.25" font-family="Helvetica,sans-Serif" font-size="10.00">llvm/Support/CommandLine.h</text>
</a>
</g>
</g>
<!-- Node1&#45;&gt;Node5 -->
<g id="edge4_Node000001_Node000005" class="edge">
<title>Node1&#45;&gt;Node5</title>
<g id="a_edge4_Node000001_Node000005"><a xlink:title=" ">
<path fill="none" stroke="#63b8ff" d="M386.32,-113.29C379.65,-97.02 367.24,-72.05 349.12,-56.75 331.49,-41.86 308.43,-31.54 287.38,-24.56"/>
<polygon fill="#63b8ff" stroke="#63b8ff" points="288.62,-21.28 278.04,-21.65 286.55,-27.97 288.62,-21.28"/>
</a>
</g>
</g>
<!-- Node6 -->
<g id="Node000006" class="node">
<title>Node6</title>
<g id="a_Node000006"><a xlink:title=" ">
<polygon fill="#e0e0e0" stroke="#999999" points="493,-20.75 329.25,-20.75 329.25,0 493,0 493,-20.75"/>
<text text-anchor="middle" x="411.12" y="-7.25" font-family="Helvetica,sans-Serif" font-size="10.00">llvm/Support/FormatVariadic.h</text>
</a>
</g>
</g>
<!-- Node1&#45;&gt;Node6 -->
<g id="edge5_Node000001_Node000006" class="edge">
<title>Node1&#45;&gt;Node6</title>
<g id="a_edge5_Node000001_Node000006"><a xlink:title=" ">
<path fill="none" stroke="#63b8ff" d="M394.69,-113.35C398.05,-92.46 403.98,-55.71 407.72,-32.5"/>
<polygon fill="#63b8ff" stroke="#63b8ff" points="411.17,-33.11 409.3,-22.68 404.26,-31.99 411.17,-33.11"/>
</a>
</g>
</g>
<!-- Node7 -->
<g id="Node000007" class="node">
<title>Node7</title>
<g id="a_Node000007"><a xlink:title=" ">
<polygon fill="#e0e0e0" stroke="#999999" points="699.88,-77.5 568.38,-77.5 568.38,-56.75 699.88,-56.75 699.88,-77.5"/>
<text text-anchor="middle" x="634.12" y="-64" font-family="Helvetica,sans-Serif" font-size="10.00">llvm/TableGen/Record.h</text>
</a>
</g>
</g>
<!-- Node1&#45;&gt;Node7 -->
<g id="edge6_Node000001_Node000007" class="edge">
<title>Node1&#45;&gt;Node7</title>
<g id="a_edge6_Node000001_Node000007"><a xlink:title=" ">
<path fill="none" stroke="#63b8ff" d="M456.34,-113.03C496.44,-102.9 547.3,-90.05 584.34,-80.7"/>
<polygon fill="#63b8ff" stroke="#63b8ff" points="585.06,-84.13 593.9,-78.29 583.35,-77.34 585.06,-84.13"/>
</a>
</g>
</g>
<!-- Node8 -->
<g id="Node000008" class="node">
<title>Node8</title>
<g id="a_Node000008"><a xlink:title=" ">
<polygon fill="#e0e0e0" stroke="#999999" points="902.12,-77.5 718.12,-77.5 718.12,-56.75 902.12,-56.75 902.12,-77.5"/>
<text text-anchor="middle" x="810.12" y="-64" font-family="Helvetica,sans-Serif" font-size="10.00">llvm/TableGen/TableGenBackend.h</text>
</a>
</g>
</g>
<!-- Node1&#45;&gt;Node8 -->
<g id="edge7_Node000001_Node000008" class="edge">
<title>Node1&#45;&gt;Node8</title>
<g id="a_edge7_Node000001_Node000008"><a xlink:title=" ">
<path fill="none" stroke="#63b8ff" d="M476.21,-116.95C550.66,-106.07 658.52,-90.29 731.33,-79.65"/>
<polygon fill="#63b8ff" stroke="#63b8ff" points="731.82,-83.11 741.21,-78.2 730.81,-76.19 731.82,-83.11"/>
</a>
</g>
</g>
<!-- Node9 -->
<g id="Node000009" class="node">
<title>Node9</title>
<g id="a_Node000009"><a xlink:href="CommonCAPIGen_8h.html" target="_top" xlink:title=" ">
<polygon fill="white" stroke="#666666" points="550.75,-77.5 439.5,-77.5 439.5,-56.75 550.75,-56.75 550.75,-77.5"/>
<text text-anchor="middle" x="495.12" y="-64" font-family="Helvetica,sans-Serif" font-size="10.00">CommonCAPIGen.h</text>
</a>
</g>
</g>
<!-- Node1&#45;&gt;Node9 -->
<g id="edge8_Node000001_Node000009" class="edge">
<title>Node1&#45;&gt;Node9</title>
<g id="a_edge8_Node000001_Node000009"><a xlink:title=" ">
<path fill="none" stroke="#63b8ff" d="M419.46,-113.03C434.76,-103.95 453.74,-92.68 468.87,-83.71"/>
<polygon fill="#63b8ff" stroke="#63b8ff" points="470.51,-86.8 477.33,-78.69 466.94,-80.78 470.51,-86.8"/>
</a>
</g>
</g>
<!-- Node9&#45;&gt;Node4 -->
<g id="edge10_Node000009_Node000004" class="edge">
<title>Node9&#45;&gt;Node4</title>
<g id="a_edge10_Node000009_Node000004"><a xlink:title=" ">
<path fill="none" stroke="#63b8ff" d="M439.04,-58.97C363.51,-49.33 228.76,-32.13 143.59,-21.26"/>
<polygon fill="#63b8ff" stroke="#63b8ff" points="144.3,-17.82 133.93,-20.03 143.41,-24.77 144.3,-17.82"/>
</a>
</g>
</g>
<!-- Node9&#45;&gt;Node5 -->
<g id="edge13_Node000009_Node000005" class="edge">
<title>Node9&#45;&gt;Node5</title>
<g id="a_edge13_Node000009_Node000005"><a xlink:title=" ">
<path fill="none" stroke="#63b8ff" d="M447.62,-56.27C403.37,-47.1 337.26,-33.39 289.74,-23.53"/>
<polygon fill="#63b8ff" stroke="#63b8ff" points="290.68,-20.15 280.17,-21.55 289.25,-27 290.68,-20.15"/>
</a>
</g>
</g>
<!-- Node9&#45;&gt;Node6 -->
<g id="edge14_Node000009_Node000006" class="edge">
<title>Node9&#45;&gt;Node6</title>
<g id="a_edge14_Node000009_Node000006"><a xlink:title=" ">
<path fill="none" stroke="#63b8ff" d="M480.11,-56.34C467.68,-48.24 449.8,-36.58 435.35,-27.17"/>
<polygon fill="#63b8ff" stroke="#63b8ff" points="437.57,-24.43 427.28,-21.9 433.75,-30.3 437.57,-24.43"/>
</a>
</g>
</g>
<!-- Node10 -->
<g id="Node000010" class="node">
<title>Node10</title>
<g id="a_Node000010"><a xlink:title=" ">
<polygon fill="#e0e0e0" stroke="#999999" points="703.12,-20.75 573.12,-20.75 573.12,0 703.12,0 703.12,-20.75"/>
<text text-anchor="middle" x="638.12" y="-7.25" font-family="Helvetica,sans-Serif" font-size="10.00">mlir/TableGen/Dialect.h</text>
</a>
</g>
</g>
<!-- Node9&#45;&gt;Node10 -->
<g id="edge9_Node000009_Node000010" class="edge">
<title>Node9&#45;&gt;Node10</title>
<g id="a_edge9_Node000009_Node000010"><a xlink:title=" ">
<path fill="none" stroke="#63b8ff" d="M520.69,-56.34C543.36,-47.66 576.72,-34.88 602.1,-25.17"/>
<polygon fill="#63b8ff" stroke="#63b8ff" points="603.28,-28.46 611.37,-21.62 600.78,-21.93 603.28,-28.46"/>
</a>
</g>
</g>
<!-- Node11 -->
<g id="Node000011" class="node">
<title>Node11</title>
<g id="a_Node000011"><a xlink:title=" ">
<polygon fill="#e0e0e0" stroke="#999999" points="838.75,-20.75 721.5,-20.75 721.5,0 838.75,0 838.75,-20.75"/>
<text text-anchor="middle" x="780.12" y="-7.25" font-family="Helvetica,sans-Serif" font-size="10.00">llvm/ADT/StringRef.h</text>
</a>
</g>
</g>
<!-- Node9&#45;&gt;Node11 -->
<g id="edge11_Node000009_Node000011" class="edge">
<title>Node9&#45;&gt;Node11</title>
<g id="a_edge11_Node000009_Node000011"><a xlink:title=" ">
<path fill="none" stroke="#63b8ff" d="M546.41,-56.27C594.38,-47.06 666.15,-33.27 717.5,-23.41"/>
<polygon fill="#63b8ff" stroke="#63b8ff" points="718.13,-26.85 727.29,-21.53 716.81,-19.97 718.13,-26.85"/>
</a>
</g>
</g>
<!-- Node12 -->
<g id="Node000012" class="node">
<title>Node12</title>
<g id="a_Node000012"><a xlink:title=" ">
<polygon fill="#e0e0e0" stroke="#999999" points="991,-20.75 857.25,-20.75 857.25,0 991,0 991,-20.75"/>
<text text-anchor="middle" x="924.12" y="-7.25" font-family="Helvetica,sans-Serif" font-size="10.00">llvm/ADT/StringSwitch.h</text>
</a>
</g>
</g>
<!-- Node9&#45;&gt;Node12 -->
<g id="edge12_Node000009_Node000012" class="edge">
<title>Node9&#45;&gt;Node12</title>
<g id="a_edge12_Node000009_Node000012"><a xlink:title=" ">
<path fill="none" stroke="#63b8ff" d="M550.96,-57.87C553.72,-57.49 556.45,-57.11 559.12,-56.75 573.13,-54.85 742.46,-33.86 845.49,-21.11"/>
<polygon fill="#63b8ff" stroke="#63b8ff" points="845.79,-24.6 855.29,-19.89 844.93,-17.65 845.79,-24.6"/>
</a>
</g>
</g>
<!-- Node13 -->
<g id="Node000013" class="node">
<title>Node13</title>
<g id="a_Node000013"><a xlink:title=" ">
<polygon fill="#e0e0e0" stroke="#999999" points="1066.75,-20.75 1009.5,-20.75 1009.5,0 1066.75,0 1066.75,-20.75"/>
<text text-anchor="middle" x="1038.12" y="-7.25" font-family="Helvetica,sans-Serif" font-size="10.00">memory</text>
</a>
</g>
</g>
<!-- Node9&#45;&gt;Node13 -->
<g id="edge15_Node000009_Node000013" class="edge">
<title>Node9&#45;&gt;Node13</title>
<g id="a_edge15_Node000009_Node000013"><a xlink:title=" ">
<path fill="none" stroke="#63b8ff" d="M550.95,-57.73C553.71,-57.39 556.45,-57.06 559.12,-56.75 750.89,-34.9 804.08,-51.75 998.02,-20.83"/>
<polygon fill="#63b8ff" stroke="#63b8ff" points="998.37,-24.32 1007.68,-19.27 997.25,-17.41 998.37,-24.32"/>
</a>
</g>
</g>
<!-- Node14 -->
<g id="Node000014" class="node">
<title>Node14</title>
<g id="a_Node000014"><a xlink:title=" ">
<polygon fill="#e0e0e0" stroke="#999999" points="555,-20.75 511.25,-20.75 511.25,0 555,0 555,-20.75"/>
<text text-anchor="middle" x="533.12" y="-7.25" font-family="Helvetica,sans-Serif" font-size="10.00">string</text>
</a>
</g>
</g>
<!-- Node9&#45;&gt;Node14 -->
<g id="edge16_Node000009_Node000014" class="edge">
<title>Node9&#45;&gt;Node14</title>
<g id="a_edge16_Node000009_Node000014"><a xlink:title=" ">
<path fill="none" stroke="#63b8ff" d="M501.92,-56.34C506.89,-49.17 513.79,-39.23 519.85,-30.51"/>
<polygon fill="#63b8ff" stroke="#63b8ff" points="522.7,-32.53 525.53,-22.32 516.95,-28.54 522.7,-32.53"/>
</a>
</g>
</g>
</g>
</svg>
