<?xml version="1.0" encoding="UTF-8" standalone="no"?>
<!DOCTYPE svg PUBLIC "-//W3C//DTD SVG 1.1//EN"
 "http://www.w3.org/Graphics/SVG/1.1/DTD/svg11.dtd">
<!-- Generated by graphviz version 12.2.1 (0)
 -->
<!-- Title: tools/llzk&#45;witgen/Errors.h Pages: 1 -->
<svg width="1160pt" height="168pt"
 viewBox="0.00 0.00 1159.88 167.75" xmlns="http://www.w3.org/2000/svg" xmlns:xlink="http://www.w3.org/1999/xlink">
<g id="graph0" class="graph" transform="scale(1 1) rotate(0) translate(4 163.75)">
<title>tools/llzk&#45;witgen/Errors.h</title>
<!-- Node1 -->
<g id="Node000001" class="node">
<title>Node1</title>
<g id="a_Node000001"><a xlink:title=" ">
<polygon fill="#999999" stroke="#666666" points="652.38,-159.75 514.88,-159.75 514.88,-139 652.38,-139 652.38,-159.75"/>
<text text-anchor="middle" x="583.62" y="-146.25" font-family="Helvetica,sans-Serif" font-size="10.00">tools/llzk&#45;witgen/Errors.h</text>
</a>
</g>
</g>
<!-- Node2 -->
<g id="Node000002" class="node">
<title>Node2</title>
<g id="a_Node000002"><a xlink:href="ExecutionEngineBackend_8cpp.html" target="_top" xlink:title=" ">
<polygon fill="white" stroke="#666666" points="147.25,-33.5 0,-33.5 0,0 147.25,0 147.25,-33.5"/>
<text text-anchor="start" x="8" y="-20" font-family="Helvetica,sans-Serif" font-size="10.00">tools/llzk&#45;witgen/Execution</text>
<text text-anchor="middle" x="73.62" y="-7.25" font-family="Helvetica,sans-Serif" font-size="10.00">EngineBackend.cpp</text>
</a>
</g>
</g>
<!-- Node1&#45;&gt;Node2 -->
<g id="edge1_Node000001_Node000002" class="edge">
<title>Node1&#45;&gt;Node2</title>
<g id="a_edge1_Node000001_Node000002"><a xlink:title=" ">
<path fill="none" stroke="#63b8ff" d="M526.25,-136.08C486.18,-127.32 431.5,-115.01 383.62,-103 294.43,-80.63 191.65,-51.74 129.71,-34"/>
<polygon fill="#63b8ff" stroke="#63b8ff" points="525.42,-139.48 535.93,-138.19 526.91,-132.64 525.42,-139.48"/>
</a>
</g>
</g>
<!-- Node3 -->
<g id="Node000003" class="node">
<title>Node3</title>
<g id="a_Node000003"><a xlink:href="Interpreter_8cpp.html" target="_top" xlink:title=" ">
<polygon fill="white" stroke="#666666" points="336.25,-27.12 165,-27.12 165,-6.38 336.25,-6.38 336.25,-27.12"/>
<text text-anchor="middle" x="250.62" y="-13.62" font-family="Helvetica,sans-Serif" font-size="10.00">tools/llzk&#45;witgen/Interpreter.cpp</text>
</a>
</g>
</g>
<!-- Node1&#45;&gt;Node3 -->
<g id="edge2_Node000001_Node000003" class="edge">
<title>Node1&#45;&gt;Node3</title>
<g id="a_edge2_Node000001_Node000003"><a xlink:title=" ">
<path fill="none" stroke="#63b8ff" d="M548.02,-134.41C480.18,-107.8 333.93,-50.43 275.49,-27.5"/>
<polygon fill="#63b8ff" stroke="#63b8ff" points="546.6,-137.61 557.19,-138 549.16,-131.09 546.6,-137.61"/>
</a>
</g>
</g>
<!-- Node4 -->
<g id="Node000004" class="node">
<title>Node4</title>
<g id="a_Node000004"><a xlink:href="JSON_8cpp.html" target="_top" xlink:title=" ">
<polygon fill="white" stroke="#666666" points="498.75,-27.12 354.5,-27.12 354.5,-6.38 498.75,-6.38 498.75,-27.12"/>
<text text-anchor="middle" x="426.62" y="-13.62" font-family="Helvetica,sans-Serif" font-size="10.00">tools/llzk&#45;witgen/JSON.cpp</text>
</a>
</g>
</g>
<!-- Node1&#45;&gt;Node4 -->
<g id="edge3_Node000001_Node000004" class="edge">
<title>Node1&#45;&gt;Node4</title>
<g id="a_edge3_Node000001_Node000004"><a xlink:title=" ">
<path fill="none" stroke="#63b8ff" d="M553.93,-133.13C539.36,-125.05 521.92,-114.43 507.62,-103 477.65,-79.03 448.02,-44.29 434.39,-27.53"/>
<polygon fill="#63b8ff" stroke="#63b8ff" points="552.15,-136.15 562.61,-137.83 555.48,-129.99 552.15,-136.15"/>
</a>
</g>
</g>
<!-- Node5 -->
<g id="Node000005" class="node">
<title>Node5</title>
<g id="a_Node000005"><a xlink:href="ValueModel_8cpp.html" target="_top" xlink:title=" ">
<polygon fill="white" stroke="#666666" points="846.25,-27.12 669,-27.12 669,-6.38 846.25,-6.38 846.25,-27.12"/>
<text text-anchor="middle" x="757.62" y="-13.62" font-family="Helvetica,sans-Serif" font-size="10.00">tools/llzk&#45;witgen/ValueModel.cpp</text>
</a>
</g>
</g>
<!-- Node1&#45;&gt;Node5 -->
<g id="edge4_Node000001_Node000005" class="edge">
<title>Node1&#45;&gt;Node5</title>
<g id="a_edge4_Node000001_Node000005"><a xlink:title=" ">
<path fill="none" stroke="#63b8ff" d="M611.99,-133.04C626.62,-124.73 644.51,-113.96 659.62,-103 693.77,-78.26 730.32,-44.17 747.55,-27.6"/>
<polygon fill="#63b8ff" stroke="#63b8ff" points="610.36,-129.94 603.33,-137.87 613.77,-136.05 610.36,-129.94"/>
</a>
</g>
</g>
<!-- Node6 -->
<g id="Node000006" class="node">
<title>Node6</title>
<g id="a_Node000006"><a xlink:href="WitgenDriver_8cpp.html" target="_top" xlink:title=" ">
<polygon fill="white" stroke="#666666" points="998.88,-33.5 864.38,-33.5 864.38,0 998.88,0 998.88,-33.5"/>
<text text-anchor="start" x="872.38" y="-20" font-family="Helvetica,sans-Serif" font-size="10.00">tools/llzk&#45;witgen/Witgen</text>
<text text-anchor="middle" x="931.62" y="-7.25" font-family="Helvetica,sans-Serif" font-size="10.00">Driver.cpp</text>
</a>
</g>
</g>
<!-- Node1&#45;&gt;Node6 -->
<g id="edge5_Node000001_Node000006" class="edge">
<title>Node1&#45;&gt;Node6</title>
<g id="a_edge5_Node000001_Node000006"><a xlink:title=" ">
<path fill="none" stroke="#63b8ff" d="M620.3,-134.61C685.05,-110.31 819.31,-59.91 888.44,-33.96"/>
<polygon fill="#63b8ff" stroke="#63b8ff" points="619.33,-131.23 611.2,-138.03 621.79,-137.79 619.33,-131.23"/>
</a>
</g>
</g>
<!-- Node7 -->
<g id="Node000007" class="node">
<title>Node7</title>
<g id="a_Node000007"><a xlink:href="WitgenUtils_8cpp.html" target="_top" xlink:title=" ">
<polygon fill="white" stroke="#666666" points="1151.88,-33.5 1017.38,-33.5 1017.38,0 1151.88,0 1151.88,-33.5"/>
<text text-anchor="start" x="1025.38" y="-20" font-family="Helvetica,sans-Serif" font-size="10.00">tools/llzk&#45;witgen/Witgen</text>
<text text-anchor="middle" x="1084.62" y="-7.25" font-family="Helvetica,sans-Serif" font-size="10.00">Utils.cpp</text>
</a>
</g>
</g>
<!-- Node1&#45;&gt;Node7 -->
<g id="edge6_Node000001_Node000007" class="edge">
<title>Node1&#45;&gt;Node7</title>
<g id="a_edge6_Node000001_Node000007"><a xlink:title=" ">
<path fill="none" stroke="#63b8ff" d="M633.63,-135.75C669.32,-126.71 718.45,-114.2 761.62,-103 853.13,-79.26 959.06,-51.19 1023.94,-33.93"/>
<polygon fill="#63b8ff" stroke="#63b8ff" points="632.84,-132.34 624.01,-138.18 634.56,-139.12 632.84,-132.34"/>
</a>
</g>
</g>
<!-- Node8 -->
<g id="Node000008" class="node">
<title>Node8</title>
<g id="a_Node000008"><a xlink:href="WitgenUtils_8h.html" target="_top" xlink:title=" ">
<polygon fill="white" stroke="#666666" points="650.88,-103 516.38,-103 516.38,-69.5 650.88,-69.5 650.88,-103"/>
<text text-anchor="start" x="524.38" y="-89.5" font-family="Helvetica,sans-Serif" font-size="10.00">tools/llzk&#45;witgen/Witgen</text>
<text text-anchor="middle" x="583.62" y="-76.75" font-family="Helvetica,sans-Serif" font-size="10.00">Utils.h</text>
</a>
</g>
</g>
<!-- Node1&#45;&gt;Node8 -->
<g id="edge7_Node000001_Node000008" class="edge">
<title>Node1&#45;&gt;Node8</title>
<g id="a_edge7_Node000001_Node000008"><a xlink:title=" ">
<path fill="none" stroke="#63b8ff" d="M583.62,-127.09C583.62,-119.35 583.62,-110.72 583.62,-103.48"/>
<polygon fill="#63b8ff" stroke="#63b8ff" points="580.13,-127.04 583.63,-137.04 587.13,-127.04 580.13,-127.04"/>
</a>
</g>
</g>
<!-- Node8&#45;&gt;Node2 -->
<g id="edge8_Node000008_Node000002" class="edge">
<title>Node8&#45;&gt;Node2</title>
<g id="a_edge8_Node000008_Node000002"><a xlink:title=" ">
<path fill="none" stroke="#63b8ff" d="M504.72,-77.37C418.67,-68.39 277,-52.47 155.62,-33.5 152.9,-33.07 150.13,-32.63 147.34,-32.16"/>
<polygon fill="#63b8ff" stroke="#63b8ff" points="504.15,-80.83 514.46,-78.38 504.88,-73.87 504.15,-80.83"/>
</a>
</g>
</g>
<!-- Node8&#45;&gt;Node3 -->
<g id="edge9_Node000008_Node000003" class="edge">
<title>Node8&#45;&gt;Node3</title>
<g id="a_edge9_Node000008_Node000003"><a xlink:title=" ">
<path fill="none" stroke="#63b8ff" d="M505.02,-69.32C441.23,-56.39 353.3,-38.56 299.29,-27.62"/>
<polygon fill="#63b8ff" stroke="#63b8ff" points="504.26,-72.73 514.75,-71.29 505.65,-65.87 504.26,-72.73"/>
</a>
</g>
</g>
<!-- Node8&#45;&gt;Node4 -->
<g id="edge10_Node000008_Node000004" class="edge">
<title>Node8&#45;&gt;Node4</title>
<g id="a_edge10_Node000008_Node000004"><a xlink:title=" ">
<path fill="none" stroke="#63b8ff" d="M535.77,-64.68C507.07,-52.33 471.87,-37.2 449.35,-27.52"/>
<polygon fill="#63b8ff" stroke="#63b8ff" points="534.06,-67.75 544.63,-68.48 536.82,-61.32 534.06,-67.75"/>
</a>
</g>
</g>
<!-- Node8&#45;&gt;Node5 -->
<g id="edge11_Node000008_Node000005" class="edge">
<title>Node8&#45;&gt;Node5</title>
<g id="a_edge11_Node000008_Node000005"><a xlink:title=" ">
<path fill="none" stroke="#63b8ff" d="M635.79,-65.01C667.65,-52.65 706.98,-37.4 732.18,-27.62"/>
<polygon fill="#63b8ff" stroke="#63b8ff" points="634.77,-61.65 626.71,-68.53 637.3,-68.18 634.77,-61.65"/>
</a>
</g>
</g>
<!-- Node8&#45;&gt;Node6 -->
<g id="edge12_Node000008_Node000006" class="edge">
<title>Node8&#45;&gt;Node6</title>
<g id="a_edge12_Node000008_Node000006"><a xlink:title=" ">
<path fill="none" stroke="#63b8ff" d="M662.6,-70.58C716.92,-60.4 790.7,-46.4 855.62,-33.5 858.4,-32.95 861.23,-32.38 864.09,-31.81"/>
<polygon fill="#63b8ff" stroke="#63b8ff" points="661.98,-67.13 652.8,-72.41 663.27,-74.01 661.98,-67.13"/>
</a>
</g>
</g>
<!-- Node8&#45;&gt;Node7 -->
<g id="edge14_Node000008_Node000007" class="edge">
<title>Node8&#45;&gt;Node7</title>
<g id="a_edge14_Node000008_Node000007"><a xlink:title=" ">
<path fill="none" stroke="#63b8ff" d="M662.47,-77.54C747.81,-68.75 887.79,-53.04 1007.62,-33.5 1010.72,-33 1013.88,-32.45 1017.08,-31.89"/>
<polygon fill="#63b8ff" stroke="#63b8ff" points="662.15,-74.05 652.56,-78.55 662.86,-81.02 662.15,-74.05"/>
</a>
</g>
</g>
<!-- Node9 -->
<g id="Node000009" class="node">
<title>Node9</title>
<g id="a_Node000009"><a xlink:href="WitgenLowering_8cpp.html" target="_top" xlink:title=" ">
<polygon fill="white" stroke="#666666" points="650.88,-33.5 516.38,-33.5 516.38,0 650.88,0 650.88,-33.5"/>
<text text-anchor="start" x="524.38" y="-20" font-family="Helvetica,sans-Serif" font-size="10.00">tools/llzk&#45;witgen/Witgen</text>
<text text-anchor="middle" x="583.62" y="-7.25" font-family="Helvetica,sans-Serif" font-size="10.00">Lowering.cpp</text>
</a>
</g>
</g>
<!-- Node8&#45;&gt;Node9 -->
<g id="edge13_Node000008_Node000009" class="edge">
<title>Node8&#45;&gt;Node9</title>
<g id="a_edge13_Node000008_Node000009"><a xlink:title=" ">
<path fill="none" stroke="#63b8ff" d="M583.62,-57.81C583.62,-49.59 583.62,-40.84 583.62,-33.63"/>
<polygon fill="#63b8ff" stroke="#63b8ff" points="580.13,-57.74 583.63,-67.74 587.13,-57.74 580.13,-57.74"/>
</a>
</g>
</g>
</g>
</svg>
