<?xml version="1.0" encoding="UTF-8" standalone="no"?>
<!DOCTYPE svg PUBLIC "-//W3C//DTD SVG 1.1//EN"
 "http://www.w3.org/Graphics/SVG/1.1/DTD/svg11.dtd">
<!-- Generated by graphviz version 12.2.1 (0)
 -->
<!-- Title: tools/llzk&#45;witgen/Errors.h Pages: 1 -->
<svg width="240pt" height="86pt"
 viewBox="0.00 0.00 239.75 85.50" xmlns="http://www.w3.org/2000/svg" xmlns:xlink="http://www.w3.org/1999/xlink">
<g id="graph0" class="graph" transform="scale(1 1) rotate(0) translate(4 81.5)">
<title>tools/llzk&#45;witgen/Errors.h</title>
<!-- Node1 -->
<g id="Node000001" class="node">
<title>Node1</title>
<g id="a_Node000001"><a xlink:title=" ">
<polygon fill="#999999" stroke="#666666" points="181.12,-77.5 43.62,-77.5 43.62,-56.75 181.12,-56.75 181.12,-77.5"/>
<text text-anchor="middle" x="112.38" y="-64" font-family="Helvetica,sans-Serif" font-size="10.00">tools/llzk&#45;witgen/Errors.h</text>
</a>
</g>
</g>
<!-- Node2 -->
<g id="Node000002" class="node">
<title>Node2</title>
<g id="a_Node000002"><a xlink:title=" ">
<polygon fill="#e0e0e0" stroke="#999999" points="100.75,-20.75 0,-20.75 0,0 100.75,0 100.75,-20.75"/>
<text text-anchor="middle" x="50.38" y="-7.25" font-family="Helvetica,sans-Serif" font-size="10.00">llvm/ADT/Twine.h</text>
</a>
</g>
</g>
<!-- Node1&#45;&gt;Node2 -->
<g id="edge1_Node000001_Node000002" class="edge">
<title>Node1&#45;&gt;Node2</title>
<g id="a_edge1_Node000001_Node000002"><a xlink:title=" ">
<path fill="none" stroke="#63b8ff" d="M101.29,-56.34C92.56,-48.63 80.18,-37.7 69.81,-28.54"/>
<polygon fill="#63b8ff" stroke="#63b8ff" points="72.31,-26.08 62.5,-22.08 67.68,-31.32 72.31,-26.08"/>
</a>
</g>
</g>
<!-- Node3 -->
<g id="Node000003" class="node">
<title>Node3</title>
<g id="a_Node000003"><a xlink:title=" ">
<polygon fill="#e0e0e0" stroke="#999999" points="231.75,-20.75 119,-20.75 119,0 231.75,0 231.75,-20.75"/>
<text text-anchor="middle" x="175.38" y="-7.25" font-family="Helvetica,sans-Serif" font-size="10.00">llvm/Support/Error.h</text>
</a>
</g>
</g>
<!-- Node1&#45;&gt;Node3 -->
<g id="edge2_Node000001_Node000003" class="edge">
<title>Node1&#45;&gt;Node3</title>
<g id="a_edge2_Node000001_Node000003"><a xlink:title=" ">
<path fill="none" stroke="#63b8ff" d="M123.64,-56.34C132.51,-48.63 145.09,-37.7 155.62,-28.54"/>
<polygon fill="#63b8ff" stroke="#63b8ff" points="157.81,-31.27 163.07,-22.07 153.22,-25.99 157.81,-31.27"/>
</a>
</g>
</g>
</g>
</svg>
