<?xml version="1.0" encoding="UTF-8" standalone="no"?>
<!DOCTYPE svg PUBLIC "-//W3C//DTD SVG 1.1//EN"
 "http://www.w3.org/Graphics/SVG/1.1/DTD/svg11.dtd">
<!-- Generated by graphviz version 12.2.1 (0)
 -->
<!-- Title: tools/llzk&#45;witgen/Errors.h Pages: 1 -->
<svg width="1008pt" height="98pt"
 viewBox="0.00 0.00 1007.88 98.25" xmlns="http://www.w3.org/2000/svg" xmlns:xlink="http://www.w3.org/1999/xlink">
<g id="graph0" class="graph" transform="scale(1 1) rotate(0) translate(4 94.25)">
<title>tools/llzk&#45;witgen/Errors.h</title>
<!-- Node1 -->
<g id="Node000001" class="node">
<title>Node1</title>
<g id="a_Node000001"><a xlink:title=" ">
<polygon fill="#999999" stroke="#666666" points="584.38,-90.25 446.88,-90.25 446.88,-69.5 584.38,-69.5 584.38,-90.25"/>
<text text-anchor="middle" x="515.62" y="-76.75" font-family="Helvetica,sans-Serif" font-size="10.00">tools/llzk&#45;witgen/Errors.h</text>
</a>
</g>
</g>
<!-- Node2 -->
<g id="Node000002" class="node">
<title>Node2</title>
<g id="a_Node000002"><a xlink:href="ExecutionEngineBackend_8cpp.html" target="_top" xlink:title=" ">
<polygon fill="white" stroke="#666666" points="147.25,-33.5 0,-33.5 0,0 147.25,0 147.25,-33.5"/>
<text text-anchor="start" x="8" y="-20" font-family="Helvetica,sans-Serif" font-size="10.00">tools/llzk&#45;witgen/Execution</text>
<text text-anchor="middle" x="73.62" y="-7.25" font-family="Helvetica,sans-Serif" font-size="10.00">EngineBackend.cpp</text>
</a>
</g>
</g>
<!-- Node1&#45;&gt;Node2 -->
<g id="edge1_Node000001_Node000002" class="edge">
<title>Node1&#45;&gt;Node2</title>
<g id="a_edge1_Node000001_Node000002"><a xlink:title=" ">
<path fill="none" stroke="#63b8ff" d="M435.02,-70.22C361.92,-62.01 251.29,-48.7 155.62,-33.5 152.9,-33.07 150.14,-32.61 147.34,-32.14"/>
<polygon fill="#63b8ff" stroke="#63b8ff" points="434.59,-73.69 444.92,-71.32 435.37,-66.74 434.59,-73.69"/>
</a>
</g>
</g>
<!-- Node3 -->
<g id="Node000003" class="node">
<title>Node3</title>
<g id="a_Node000003"><a xlink:href="Interpreter_8cpp.html" target="_top" xlink:title=" ">
<polygon fill="white" stroke="#666666" points="336.25,-27.12 165,-27.12 165,-6.38 336.25,-6.38 336.25,-27.12"/>
<text text-anchor="middle" x="250.62" y="-13.62" font-family="Helvetica,sans-Serif" font-size="10.00">tools/llzk&#45;witgen/Interpreter.cpp</text>
</a>
</g>
</g>
<!-- Node1&#45;&gt;Node3 -->
<g id="edge2_Node000001_Node000003" class="edge">
<title>Node1&#45;&gt;Node3</title>
<g id="a_edge2_Node000001_Node000003"><a xlink:title=" ">
<path fill="none" stroke="#63b8ff" d="M461.86,-66.47C412.04,-54.98 338.93,-38.12 293.1,-27.55"/>
<polygon fill="#63b8ff" stroke="#63b8ff" points="461.04,-69.88 471.57,-68.71 462.62,-63.06 461.04,-69.88"/>
</a>
</g>
</g>
<!-- Node4 -->
<g id="Node000004" class="node">
<title>Node4</title>
<g id="a_Node000004"><a xlink:href="JSON_8cpp.html" target="_top" xlink:title=" ">
<polygon fill="white" stroke="#666666" points="498.75,-27.12 354.5,-27.12 354.5,-6.38 498.75,-6.38 498.75,-27.12"/>
<text text-anchor="middle" x="426.62" y="-13.62" font-family="Helvetica,sans-Serif" font-size="10.00">tools/llzk&#45;witgen/JSON.cpp</text>
</a>
</g>
</g>
<!-- Node1&#45;&gt;Node4 -->
<g id="edge3_Node000001_Node000004" class="edge">
<title>Node1&#45;&gt;Node4</title>
<g id="a_edge3_Node000001_Node000004"><a xlink:title=" ">
<path fill="none" stroke="#63b8ff" d="M491.93,-62.6C475.67,-51.43 454.63,-36.98 440.89,-27.55"/>
<polygon fill="#63b8ff" stroke="#63b8ff" points="489.85,-65.42 500.08,-68.2 493.82,-59.65 489.85,-65.42"/>
</a>
</g>
</g>
<!-- Node5 -->
<g id="Node000005" class="node">
<title>Node5</title>
<g id="a_Node000005"><a xlink:href="ValueModel_8cpp.html" target="_top" xlink:title=" ">
<polygon fill="white" stroke="#666666" points="694.25,-27.12 517,-27.12 517,-6.38 694.25,-6.38 694.25,-27.12"/>
<text text-anchor="middle" x="605.62" y="-13.62" font-family="Helvetica,sans-Serif" font-size="10.00">tools/llzk&#45;witgen/ValueModel.cpp</text>
</a>
</g>
</g>
<!-- Node1&#45;&gt;Node5 -->
<g id="edge4_Node000001_Node000005" class="edge">
<title>Node1&#45;&gt;Node5</title>
<g id="a_edge4_Node000001_Node000005"><a xlink:title=" ">
<path fill="none" stroke="#63b8ff" d="M539.59,-62.6C556.03,-51.43 577.31,-36.98 591.2,-27.55"/>
<polygon fill="#63b8ff" stroke="#63b8ff" points="537.64,-59.69 531.34,-68.2 541.58,-65.48 537.64,-59.69"/>
</a>
</g>
</g>
<!-- Node6 -->
<g id="Node000006" class="node">
<title>Node6</title>
<g id="a_Node000006"><a xlink:href="WitgenDriver_8cpp.html" target="_top" xlink:title=" ">
<polygon fill="white" stroke="#666666" points="846.88,-33.5 712.38,-33.5 712.38,0 846.88,0 846.88,-33.5"/>
<text text-anchor="start" x="720.38" y="-20" font-family="Helvetica,sans-Serif" font-size="10.00">tools/llzk&#45;witgen/Witgen</text>
<text text-anchor="middle" x="779.62" y="-7.25" font-family="Helvetica,sans-Serif" font-size="10.00">Driver.cpp</text>
</a>
</g>
</g>
<!-- Node1&#45;&gt;Node6 -->
<g id="edge5_Node000001_Node000006" class="edge">
<title>Node1&#45;&gt;Node6</title>
<g id="a_edge5_Node000001_Node000006"><a xlink:title=" ">
<path fill="none" stroke="#63b8ff" d="M569.22,-66.47C610.46,-56.92 667.7,-43.66 712.07,-33.39"/>
<polygon fill="#63b8ff" stroke="#63b8ff" points="568.47,-63.05 559.52,-68.71 570.05,-69.87 568.47,-63.05"/>
</a>
</g>
</g>
<!-- Node7 -->
<g id="Node000007" class="node">
<title>Node7</title>
<g id="a_Node000007"><a xlink:href="WitgenUtils_8cpp.html" target="_top" xlink:title=" ">
<polygon fill="white" stroke="#666666" points="999.88,-33.5 865.38,-33.5 865.38,0 999.88,0 999.88,-33.5"/>
<text text-anchor="start" x="873.38" y="-20" font-family="Helvetica,sans-Serif" font-size="10.00">tools/llzk&#45;witgen/Witgen</text>
<text text-anchor="middle" x="932.62" y="-7.25" font-family="Helvetica,sans-Serif" font-size="10.00">Utils.cpp</text>
</a>
</g>
</g>
<!-- Node1&#45;&gt;Node7 -->
<g id="edge6_Node000001_Node000007" class="edge">
<title>Node1&#45;&gt;Node7</title>
<g id="a_edge6_Node000001_Node000007"><a xlink:title=" ">
<path fill="none" stroke="#63b8ff" d="M596.08,-69.73C665.12,-61.5 767.18,-48.43 855.62,-33.5 858.72,-32.98 861.88,-32.42 865.07,-31.84"/>
<polygon fill="#63b8ff" stroke="#63b8ff" points="595.88,-66.23 586.36,-70.88 596.71,-73.18 595.88,-66.23"/>
</a>
</g>
</g>
</g>
</svg>
