<?xml version="1.0" encoding="UTF-8" standalone="no"?>
<!DOCTYPE svg PUBLIC "-//W3C//DTD SVG 1.1//EN"
 "http://www.w3.org/Graphics/SVG/1.1/DTD/svg11.dtd">
<!-- Generated by graphviz version 12.2.1 (0)
 -->
<!-- Title: lib/Dialect/Felt/IR/Ops.cpp Pages: 1 -->
<svg width="2574pt" height="446pt"
 viewBox="0.00 0.00 2573.50 445.75" xmlns="http://www.w3.org/2000/svg" xmlns:xlink="http://www.w3.org/1999/xlink">
<g id="graph0" class="graph" transform="scale(1 1) rotate(0) translate(4 441.75)">
<title>lib/Dialect/Felt/IR/Ops.cpp</title>
<!-- Node1 -->
<g id="Node000001" class="node">
<title>Node1</title>
<g id="a_Node000001"><a xlink:title=" ">
<polygon fill="#999999" stroke="#666666" points="2031.88,-437.75 1932.62,-437.75 1932.62,-404.25 2031.88,-404.25 2031.88,-437.75"/>
<text text-anchor="start" x="1940.62" y="-424.25" font-family="Helvetica,sans-Serif" font-size="10.00">lib/Dialect/Felt/IR</text>
<text text-anchor="middle" x="1982.25" y="-411.5" font-family="Helvetica,sans-Serif" font-size="10.00">/Ops.cpp</text>
</a>
</g>
</g>
<!-- Node2 -->
<g id="Node000002" class="node">
<title>Node2</title>
<g id="a_Node000002"><a xlink:href="Felt_2IR_2Ops_8h.html" target="_top" xlink:title=" ">
<polygon fill="white" stroke="#666666" points="1447.5,-368.25 1343,-368.25 1343,-334.75 1447.5,-334.75 1447.5,-368.25"/>
<text text-anchor="start" x="1351" y="-354.75" font-family="Helvetica,sans-Serif" font-size="10.00">llzk/Dialect/Felt/IR</text>
<text text-anchor="middle" x="1395.25" y="-342" font-family="Helvetica,sans-Serif" font-size="10.00">/Ops.h</text>
</a>
</g>
</g>
<!-- Node1&#45;&gt;Node2 -->
<g id="edge1_Node000001_Node000002" class="edge">
<title>Node1&#45;&gt;Node2</title>
<g id="a_edge1_Node000001_Node000002"><a xlink:title=" ">
<path fill="none" stroke="#63b8ff" d="M1932.2,-414.24C1825.68,-402 1576.67,-373.36 1459,-359.83"/>
<polygon fill="#63b8ff" stroke="#63b8ff" points="1459.53,-356.37 1449.19,-358.7 1458.73,-363.32 1459.53,-356.37"/>
</a>
</g>
</g>
<!-- Node8 -->
<g id="Node000008" class="node">
<title>Node8</title>
<g id="a_Node000008"><a xlink:href="Field_8h.html" target="_top" xlink:title=" ">
<polygon fill="white" stroke="#666666" points="987.62,-153.38 898.88,-153.38 898.88,-132.62 987.62,-132.62 987.62,-153.38"/>
<text text-anchor="middle" x="943.25" y="-139.88" font-family="Helvetica,sans-Serif" font-size="10.00">llzk/Util/Field.h</text>
</a>
</g>
</g>
<!-- Node1&#45;&gt;Node8 -->
<g id="edge49_Node000001_Node000008" class="edge">
<title>Node1&#45;&gt;Node8</title>
<g id="a_edge49_Node000001_Node000008"><a xlink:title=" ">
<path fill="none" stroke="#63b8ff" d="M1932.29,-420.45C1727.22,-421.08 954.52,-411.21 819.25,-229.25 810.37,-217.3 810.99,-208.14 819.25,-195.75 834.57,-172.75 862.27,-159.96 887.61,-152.85"/>
<polygon fill="#63b8ff" stroke="#63b8ff" points="888.35,-156.27 897.18,-150.42 886.63,-149.48 888.35,-156.27"/>
</a>
</g>
</g>
<!-- Node9 -->
<g id="Node000009" class="node">
<title>Node9</title>
<g id="a_Node000009"><a xlink:href="DynamicAPIntHelper_8h.html" target="_top" xlink:title="This file implements helper methods for constructing DynamicAPInts.">
<polygon fill="white" stroke="#666666" points="331.25,-83.88 165.25,-83.88 165.25,-63.12 331.25,-63.12 331.25,-83.88"/>
<text text-anchor="middle" x="248.25" y="-70.38" font-family="Helvetica,sans-Serif" font-size="10.00">llzk/Util/DynamicAPIntHelper.h</text>
</a>
</g>
</g>
<!-- Node1&#45;&gt;Node9 -->
<g id="edge48_Node000001_Node000009" class="edge">
<title>Node1&#45;&gt;Node9</title>
<g id="a_edge48_Node000001_Node000009"><a xlink:title=" ">
<path fill="none" stroke="#63b8ff" d="M1932.28,-419.21C1790.05,-416.54 1370.97,-405.82 1025.25,-368.25 792.42,-342.95 505.25,-517.2 505.25,-283 505.25,-283 505.25,-283 505.25,-211.5 505.25,-163.65 364.75,-111.66 291.52,-87.81"/>
<polygon fill="#63b8ff" stroke="#63b8ff" points="292.83,-84.56 282.24,-84.83 290.69,-91.22 292.83,-84.56"/>
</a>
</g>
</g>
<!-- Node12 -->
<g id="Node000012" class="node">
<title>Node12</title>
<g id="a_Node000012"><a xlink:title=" ">
<polygon fill="#e0e0e0" stroke="#999999" points="264.25,-20.75 122.25,-20.75 122.25,0 264.25,0 264.25,-20.75"/>
<text text-anchor="middle" x="193.25" y="-7.25" font-family="Helvetica,sans-Serif" font-size="10.00">llvm/ADT/DynamicAPInt.h</text>
</a>
</g>
</g>
<!-- Node1&#45;&gt;Node12 -->
<g id="edge59_Node000001_Node000012" class="edge">
<title>Node1&#45;&gt;Node12</title>
<g id="a_edge59_Node000001_Node000012"><a xlink:title=" ">
<path fill="none" stroke="#63b8ff" d="M1932.28,-419.52C1708.06,-417.17 793.42,-405.46 509.25,-368.25 341.07,-346.23 137.25,-452.62 137.25,-283 137.25,-283 137.25,-283 137.25,-142 137.25,-103.18 139.31,-91.68 156.25,-56.75 161.03,-46.89 168.35,-37.29 175.22,-29.47"/>
<polygon fill="#63b8ff" stroke="#63b8ff" points="177.62,-32.03 181.86,-22.32 172.49,-27.26 177.62,-32.03"/>
</a>
</g>
</g>
<!-- Node41 -->
<g id="Node000041" class="node">
<title>Node41</title>
<g id="a_Node000041"><a xlink:href="Polymorphic_2IR_2Types_8h.html" target="_top" xlink:title=" ">
<polygon fill="white" stroke="#666666" points="2002.5,-368.25 1868,-368.25 1868,-334.75 2002.5,-334.75 2002.5,-368.25"/>
<text text-anchor="start" x="1876" y="-354.75" font-family="Helvetica,sans-Serif" font-size="10.00">llzk/Dialect/Polymorphic</text>
<text text-anchor="middle" x="1935.25" y="-342" font-family="Helvetica,sans-Serif" font-size="10.00">/IR/Types.h</text>
</a>
</g>
</g>
<!-- Node1&#45;&gt;Node41 -->
<g id="edge43_Node000001_Node000041" class="edge">
<title>Node1&#45;&gt;Node41</title>
<g id="a_edge43_Node000001_Node000041"><a xlink:title=" ">
<path fill="none" stroke="#63b8ff" d="M1971.11,-404C1965.67,-396.19 1958.99,-386.59 1952.87,-377.81"/>
<polygon fill="#63b8ff" stroke="#63b8ff" points="1955.76,-375.83 1947.17,-369.62 1950.02,-379.83 1955.76,-375.83"/>
</a>
</g>
</g>
<!-- Node45 -->
<g id="Node000045" class="node">
<title>Node45</title>
<g id="a_Node000045"><a xlink:href="TypeHelper_8h.html" target="_top" xlink:title=" ">
<polygon fill="white" stroke="#666666" points="2143,-153.38 2023.5,-153.38 2023.5,-132.62 2143,-132.62 2143,-153.38"/>
<text text-anchor="middle" x="2083.25" y="-139.88" font-family="Helvetica,sans-Serif" font-size="10.00">llzk/Util/TypeHelper.h</text>
</a>
</g>
</g>
<!-- Node1&#45;&gt;Node45 -->
<g id="edge50_Node000001_Node000045" class="edge">
<title>Node1&#45;&gt;Node45</title>
<g id="a_edge50_Node000001_Node000045"><a xlink:title=" ">
<path fill="none" stroke="#63b8ff" d="M1993.64,-403.99C2006.43,-386.39 2028.18,-357.57 2049.25,-334.75 2065.26,-317.42 2078.79,-320.36 2088.25,-298.75 2107.77,-254.17 2097.18,-195.24 2089.3,-164.56"/>
<polygon fill="#63b8ff" stroke="#63b8ff" points="2092.72,-163.77 2086.69,-155.06 2085.97,-165.63 2092.72,-163.77"/>
</a>
</g>
</g>
<!-- Node49 -->
<g id="Node000049" class="node">
<title>Node49</title>
<g id="a_Node000049"><a xlink:title=" ">
<polygon fill="#e0e0e0" stroke="#999999" points="2158.25,-361.88 2058.25,-361.88 2058.25,-341.12 2158.25,-341.12 2158.25,-361.88"/>
<text text-anchor="middle" x="2108.25" y="-348.38" font-family="Helvetica,sans-Serif" font-size="10.00">mlir/IR/Builders.h</text>
</a>
</g>
</g>
<!-- Node1&#45;&gt;Node49 -->
<g id="edge58_Node000001_Node000049" class="edge">
<title>Node1&#45;&gt;Node49</title>
<g id="a_edge58_Node000001_Node000049"><a xlink:title=" ">
<path fill="none" stroke="#63b8ff" d="M2012.43,-403.83C2032.92,-392.86 2059.83,-378.44 2079.92,-367.68"/>
<polygon fill="#63b8ff" stroke="#63b8ff" points="2081.51,-370.79 2088.68,-362.99 2078.21,-364.62 2081.51,-370.79"/>
</a>
</g>
</g>
<!-- Node50 -->
<g id="Node000050" class="node">
<title>Node50</title>
<g id="a_Node000050"><a xlink:title=" ">
<polygon fill="#e0e0e0" stroke="#999999" points="2305.88,-361.88 2176.62,-361.88 2176.62,-341.12 2305.88,-341.12 2305.88,-361.88"/>
<text text-anchor="middle" x="2241.25" y="-348.38" font-family="Helvetica,sans-Serif" font-size="10.00">llvm/ADT/SmallString.h</text>
</a>
</g>
</g>
<!-- Node1&#45;&gt;Node50 -->
<g id="edge60_Node000001_Node000050" class="edge">
<title>Node1&#45;&gt;Node50</title>
<g id="a_edge60_Node000001_Node000050"><a xlink:title=" ">
<path fill="none" stroke="#63b8ff" d="M2032.19,-406.99C2078.4,-394.94 2146.67,-377.15 2192.5,-365.2"/>
<polygon fill="#63b8ff" stroke="#63b8ff" points="2193.38,-368.59 2202.18,-362.68 2191.62,-361.82 2193.38,-368.59"/>
</a>
</g>
</g>
<!-- Node51 -->
<g id="Node000051" class="node">
<title>Node51</title>
<g id="a_Node000051"><a xlink:href="Felt_2IR_2OpInterfaces_8cpp_8inc.html" target="_top" xlink:title=" ">
<polygon fill="white" stroke="#666666" points="2442.62,-368.25 2323.88,-368.25 2323.88,-334.75 2442.62,-334.75 2442.62,-368.25"/>
<text text-anchor="start" x="2331.88" y="-354.75" font-family="Helvetica,sans-Serif" font-size="10.00">llzk/Dialect/Felt/IR</text>
<text text-anchor="middle" x="2383.25" y="-342" font-family="Helvetica,sans-Serif" font-size="10.00">/OpInterfaces.cpp.inc</text>
</a>
</g>
</g>
<!-- Node1&#45;&gt;Node51 -->
<g id="edge61_Node000001_Node000051" class="edge">
<title>Node1&#45;&gt;Node51</title>
<g id="a_edge61_Node000001_Node000051"><a xlink:title=" ">
<path fill="none" stroke="#63b8ff" d="M2032.09,-413.42C2095.15,-404.83 2207.3,-388.72 2312.46,-368.72"/>
<polygon fill="#63b8ff" stroke="#63b8ff" points="2312.95,-372.19 2322.11,-366.86 2311.63,-365.31 2312.95,-372.19"/>
</a>
</g>
</g>
<!-- Node52 -->
<g id="Node000052" class="node">
<title>Node52</title>
<g id="a_Node000052"><a xlink:href="Felt_2IR_2Ops_8cpp_8inc.html" target="_top" xlink:title=" ">
<polygon fill="white" stroke="#666666" points="2565.5,-368.25 2461,-368.25 2461,-334.75 2565.5,-334.75 2565.5,-368.25"/>
<text text-anchor="start" x="2469" y="-354.75" font-family="Helvetica,sans-Serif" font-size="10.00">llzk/Dialect/Felt/IR</text>
<text text-anchor="middle" x="2513.25" y="-342" font-family="Helvetica,sans-Serif" font-size="10.00">/Ops.cpp.inc</text>
</a>
</g>
</g>
<!-- Node1&#45;&gt;Node52 -->
<g id="edge62_Node000001_Node000052" class="edge">
<title>Node1&#45;&gt;Node52</title>
<g id="a_edge62_Node000001_Node000052"><a xlink:title=" ">
<path fill="none" stroke="#63b8ff" d="M2032.21,-416.78C2116.28,-410.85 2291.45,-396.38 2449.26,-368.44"/>
<polygon fill="#63b8ff" stroke="#63b8ff" points="2449.88,-371.89 2459.1,-366.67 2448.64,-365 2449.88,-371.89"/>
</a>
</g>
</g>
<!-- Node3 -->
<g id="Node000003" class="node">
<title>Node3</title>
<g id="a_Node000003"><a xlink:href="Felt_2IR_2Attrs_8h.html" target="_top" xlink:title=" ">
<polygon fill="white" stroke="#666666" points="1163.5,-298.75 1059,-298.75 1059,-265.25 1163.5,-265.25 1163.5,-298.75"/>
<text text-anchor="start" x="1067" y="-285.25" font-family="Helvetica,sans-Serif" font-size="10.00">llzk/Dialect/Felt/IR</text>
<text text-anchor="middle" x="1111.25" y="-272.5" font-family="Helvetica,sans-Serif" font-size="10.00">/Attrs.h</text>
</a>
</g>
</g>
<!-- Node2&#45;&gt;Node3 -->
<g id="edge2_Node000002_Node000003" class="edge">
<title>Node2&#45;&gt;Node3</title>
<g id="a_edge2_Node000002_Node000003"><a xlink:title=" ">
<path fill="none" stroke="#63b8ff" d="M1342.7,-338.56C1300.14,-328.82 1238.33,-314.51 1175,-299.15"/>
<polygon fill="#63b8ff" stroke="#63b8ff" points="1176.01,-295.8 1165.47,-296.83 1174.36,-302.6 1176.01,-295.8"/>
</a>
</g>
</g>
<!-- Node4 -->
<g id="Node000004" class="node">
<title>Node4</title>
<g id="a_Node000004"><a xlink:href="Felt_2IR_2Types_8h.html" target="_top" xlink:title=" ">
<polygon fill="white" stroke="#666666" points="1324.5,-229.25 1220,-229.25 1220,-195.75 1324.5,-195.75 1324.5,-229.25"/>
<text text-anchor="start" x="1228" y="-215.75" font-family="Helvetica,sans-Serif" font-size="10.00">llzk/Dialect/Felt/IR</text>
<text text-anchor="middle" x="1272.25" y="-203" font-family="Helvetica,sans-Serif" font-size="10.00">/Types.h</text>
</a>
</g>
</g>
<!-- Node2&#45;&gt;Node4 -->
<g id="edge35_Node000002_Node000004" class="edge">
<title>Node2&#45;&gt;Node4</title>
<g id="a_edge35_Node000002_Node000004"><a xlink:title=" ">
<path fill="none" stroke="#63b8ff" d="M1375.73,-334.28C1364.34,-324.45 1349.96,-311.41 1338.25,-298.75 1320.56,-279.62 1302.59,-256.08 1289.88,-238.59"/>
<polygon fill="#63b8ff" stroke="#63b8ff" points="1292.95,-236.87 1284.28,-230.79 1287.27,-240.95 1292.95,-236.87"/>
</a>
</g>
</g>
<!-- Node5 -->
<g id="Node000005" class="node">
<title>Node5</title>
<g id="a_Node000005"><a xlink:href="Felt_2IR_2Dialect_8h.html" target="_top" xlink:title=" ">
<polygon fill="white" stroke="#666666" points="1465.5,-159.75 1361,-159.75 1361,-126.25 1465.5,-126.25 1465.5,-159.75"/>
<text text-anchor="start" x="1369" y="-146.25" font-family="Helvetica,sans-Serif" font-size="10.00">llzk/Dialect/Felt/IR</text>
<text text-anchor="middle" x="1413.25" y="-133.5" font-family="Helvetica,sans-Serif" font-size="10.00">/Dialect.h</text>
</a>
</g>
</g>
<!-- Node2&#45;&gt;Node5 -->
<g id="edge34_Node000002_Node000005" class="edge">
<title>Node2&#45;&gt;Node5</title>
<g id="a_edge34_Node000002_Node000005"><a xlink:title=" ">
<path fill="none" stroke="#63b8ff" d="M1385.95,-334.32C1380.79,-324.4 1374.9,-311.25 1372.25,-298.75 1362.75,-253.97 1357.2,-238.98 1372.25,-195.75 1375.7,-185.84 1381.93,-176.4 1388.5,-168.36"/>
<polygon fill="#63b8ff" stroke="#63b8ff" points="1390.95,-170.88 1394.94,-161.06 1385.7,-166.25 1390.95,-170.88"/>
</a>
</g>
</g>
<!-- Node35 -->
<g id="Node000035" class="node">
<title>Node35</title>
<g id="a_Node000035"><a xlink:href="OpTraits_8h.html" target="_top" xlink:title=" ">
<polygon fill="white" stroke="#666666" points="1495.75,-298.75 1380.75,-298.75 1380.75,-265.25 1495.75,-265.25 1495.75,-298.75"/>
<text text-anchor="start" x="1388.75" y="-285.25" font-family="Helvetica,sans-Serif" font-size="10.00">llzk/Dialect/Function</text>
<text text-anchor="middle" x="1438.25" y="-272.5" font-family="Helvetica,sans-Serif" font-size="10.00">/IR/OpTraits.h</text>
</a>
</g>
</g>
<!-- Node2&#45;&gt;Node35 -->
<g id="edge36_Node000002_Node000035" class="edge">
<title>Node2&#45;&gt;Node35</title>
<g id="a_edge36_Node000002_Node000035"><a xlink:title=" ">
<path fill="none" stroke="#63b8ff" d="M1405.44,-334.5C1410.42,-326.69 1416.53,-317.09 1422.13,-308.31"/>
<polygon fill="#63b8ff" stroke="#63b8ff" points="1424.9,-310.47 1427.32,-300.16 1418.99,-306.71 1424.9,-310.47"/>
</a>
</g>
</g>
<!-- Node38 -->
<g id="Node000038" class="node">
<title>Node38</title>
<g id="a_Node000038"><a xlink:title=" ">
<polygon fill="#e0e0e0" stroke="#999999" points="1648.88,-298.75 1513.62,-298.75 1513.62,-265.25 1648.88,-265.25 1648.88,-298.75"/>
<text text-anchor="start" x="1521.62" y="-285.25" font-family="Helvetica,sans-Serif" font-size="10.00">mlir/Interfaces/InferType</text>
<text text-anchor="middle" x="1581.25" y="-272.5" font-family="Helvetica,sans-Serif" font-size="10.00">OpInterface.h</text>
</a>
</g>
</g>
<!-- Node2&#45;&gt;Node38 -->
<g id="edge40_Node000002_Node000038" class="edge">
<title>Node2&#45;&gt;Node38</title>
<g id="a_edge40_Node000002_Node000038"><a xlink:title=" ">
<path fill="none" stroke="#63b8ff" d="M1439.8,-334.33C1465.7,-324.93 1498.56,-313.01 1526.09,-303.02"/>
<polygon fill="#63b8ff" stroke="#63b8ff" points="1527.11,-306.37 1535.32,-299.67 1524.72,-299.79 1527.11,-306.37"/>
</a>
</g>
</g>
<!-- Node39 -->
<g id="Node000039" class="node">
<title>Node39</title>
<g id="a_Node000039"><a xlink:href="Felt_2IR_2OpInterfaces_8h_8inc.html" target="_top" xlink:title=" ">
<polygon fill="white" stroke="#666666" points="1774,-298.75 1666.5,-298.75 1666.5,-265.25 1774,-265.25 1774,-298.75"/>
<text text-anchor="start" x="1674.5" y="-285.25" font-family="Helvetica,sans-Serif" font-size="10.00">llzk/Dialect/Felt/IR</text>
<text text-anchor="middle" x="1720.25" y="-272.5" font-family="Helvetica,sans-Serif" font-size="10.00">/OpInterfaces.h.inc</text>
</a>
</g>
</g>
<!-- Node2&#45;&gt;Node39 -->
<g id="edge41_Node000002_Node000039" class="edge">
<title>Node2&#45;&gt;Node39</title>
<g id="a_edge41_Node000002_Node000039"><a xlink:title=" ">
<path fill="none" stroke="#63b8ff" d="M1447.82,-341.03C1498.65,-331.67 1578.08,-316.55 1655.31,-299.36"/>
<polygon fill="#63b8ff" stroke="#63b8ff" points="1655.72,-302.85 1664.71,-297.25 1654.19,-296.02 1655.72,-302.85"/>
</a>
</g>
</g>
<!-- Node40 -->
<g id="Node000040" class="node">
<title>Node40</title>
<g id="a_Node000040"><a xlink:href="Felt_2IR_2Ops_8h_8inc.html" target="_top" xlink:title=" ">
<polygon fill="white" stroke="#666666" points="1286.5,-298.75 1182,-298.75 1182,-265.25 1286.5,-265.25 1286.5,-298.75"/>
<text text-anchor="start" x="1190" y="-285.25" font-family="Helvetica,sans-Serif" font-size="10.00">llzk/Dialect/Felt/IR</text>
<text text-anchor="middle" x="1234.25" y="-272.5" font-family="Helvetica,sans-Serif" font-size="10.00">/Ops.h.inc</text>
</a>
</g>
</g>
<!-- Node2&#45;&gt;Node40 -->
<g id="edge42_Node000002_Node000040" class="edge">
<title>Node2&#45;&gt;Node40</title>
<g id="a_edge42_Node000002_Node000040"><a xlink:title=" ">
<path fill="none" stroke="#63b8ff" d="M1356.69,-334.33C1334.66,-325.1 1306.83,-313.43 1283.27,-303.55"/>
<polygon fill="#63b8ff" stroke="#63b8ff" points="1284.75,-300.38 1274.17,-299.74 1282.04,-306.83 1284.75,-300.38"/>
</a>
</g>
</g>
<!-- Node3&#45;&gt;Node4 -->
<g id="edge3_Node000003_Node000004" class="edge">
<title>Node3&#45;&gt;Node4</title>
<g id="a_edge3_Node000003_Node000004"><a xlink:title=" ">
<path fill="none" stroke="#63b8ff" d="M1149.81,-264.83C1171.84,-255.6 1199.67,-243.93 1223.23,-234.05"/>
<polygon fill="#63b8ff" stroke="#63b8ff" points="1224.46,-237.33 1232.33,-230.24 1221.75,-230.88 1224.46,-237.33"/>
</a>
</g>
</g>
<!-- Node32 -->
<g id="Node000032" class="node">
<title>Node32</title>
<g id="a_Node000032"><a xlink:title=" ">
<polygon fill="#e0e0e0" stroke="#999999" points="1202.38,-222.88 1094.12,-222.88 1094.12,-202.12 1202.38,-202.12 1202.38,-222.88"/>
<text text-anchor="middle" x="1148.25" y="-209.38" font-family="Helvetica,sans-Serif" font-size="10.00">mlir/IR/Attributes.h</text>
</a>
</g>
</g>
<!-- Node3&#45;&gt;Node32 -->
<g id="edge31_Node000003_Node000032" class="edge">
<title>Node3&#45;&gt;Node32</title>
<g id="a_edge31_Node000003_Node000032"><a xlink:title=" ">
<path fill="none" stroke="#63b8ff" d="M1120.02,-265C1125.23,-255.5 1131.88,-243.37 1137.42,-233.27"/>
<polygon fill="#63b8ff" stroke="#63b8ff" points="1140.4,-235.1 1142.14,-224.65 1134.26,-231.74 1140.4,-235.1"/>
</a>
</g>
</g>
<!-- Node33 -->
<g id="Node000033" class="node">
<title>Node33</title>
<g id="a_Node000033"><a xlink:title=" ">
<polygon fill="#e0e0e0" stroke="#999999" points="954,-229.25 828.5,-229.25 828.5,-195.75 954,-195.75 954,-229.25"/>
<text text-anchor="start" x="836.5" y="-215.75" font-family="Helvetica,sans-Serif" font-size="10.00">mlir/IR/BuiltinAttribute</text>
<text text-anchor="middle" x="891.25" y="-203" font-family="Helvetica,sans-Serif" font-size="10.00">Interfaces.h</text>
</a>
</g>
</g>
<!-- Node3&#45;&gt;Node33 -->
<g id="edge32_Node000003_Node000033" class="edge">
<title>Node3&#45;&gt;Node33</title>
<g id="a_edge32_Node000003_Node000033"><a xlink:title=" ">
<path fill="none" stroke="#63b8ff" d="M1058.55,-264.83C1027.38,-255.27 987.67,-243.08 954.77,-232.99"/>
<polygon fill="#63b8ff" stroke="#63b8ff" points="955.93,-229.68 945.34,-230.1 953.88,-236.38 955.93,-229.68"/>
</a>
</g>
</g>
<!-- Node34 -->
<g id="Node000034" class="node">
<title>Node34</title>
<g id="a_Node000034"><a xlink:href="Felt_2IR_2Attrs_8h_8inc.html" target="_top" xlink:title=" ">
<polygon fill="white" stroke="#666666" points="1076.5,-229.25 972,-229.25 972,-195.75 1076.5,-195.75 1076.5,-229.25"/>
<text text-anchor="start" x="980" y="-215.75" font-family="Helvetica,sans-Serif" font-size="10.00">llzk/Dialect/Felt/IR</text>
<text text-anchor="middle" x="1024.25" y="-203" font-family="Helvetica,sans-Serif" font-size="10.00">/Attrs.h.inc</text>
</a>
</g>
</g>
<!-- Node3&#45;&gt;Node34 -->
<g id="edge33_Node000003_Node000034" class="edge">
<title>Node3&#45;&gt;Node34</title>
<g id="a_edge33_Node000003_Node000034"><a xlink:title=" ">
<path fill="none" stroke="#63b8ff" d="M1090.63,-265C1079.66,-256.49 1065.97,-245.87 1053.88,-236.49"/>
<polygon fill="#63b8ff" stroke="#63b8ff" points="1056.26,-233.91 1046.22,-230.54 1051.97,-239.44 1056.26,-233.91"/>
</a>
</g>
</g>
<!-- Node4&#45;&gt;Node5 -->
<g id="edge4_Node000004_Node000005" class="edge">
<title>Node4&#45;&gt;Node5</title>
<g id="a_edge4_Node000004_Node000005"><a xlink:title=" ">
<path fill="none" stroke="#63b8ff" d="M1306.02,-195.33C1325.03,-186.23 1348.99,-174.77 1369.43,-164.98"/>
<polygon fill="#63b8ff" stroke="#63b8ff" points="1370.88,-168.16 1378.39,-160.69 1367.86,-161.85 1370.88,-168.16"/>
</a>
</g>
</g>
<!-- Node4&#45;&gt;Node8 -->
<g id="edge7_Node000004_Node000008" class="edge">
<title>Node4&#45;&gt;Node8</title>
<g id="a_edge7_Node000004_Node000008"><a xlink:title=" ">
<path fill="none" stroke="#63b8ff" d="M1219.73,-197.72C1216.86,-197.04 1214.02,-196.38 1211.25,-195.75 1138.31,-179.31 1053.48,-163.48 999.12,-153.75"/>
<polygon fill="#63b8ff" stroke="#63b8ff" points="999.95,-150.34 989.49,-152.03 998.72,-157.23 999.95,-150.34"/>
</a>
</g>
</g>
<!-- Node31 -->
<g id="Node000031" class="node">
<title>Node31</title>
<g id="a_Node000031"><a xlink:href="Felt_2IR_2Types_8h_8inc.html" target="_top" xlink:title=" ">
<polygon fill="white" stroke="#666666" points="1324.5,-159.75 1220,-159.75 1220,-126.25 1324.5,-126.25 1324.5,-159.75"/>
<text text-anchor="start" x="1228" y="-146.25" font-family="Helvetica,sans-Serif" font-size="10.00">llzk/Dialect/Felt/IR</text>
<text text-anchor="middle" x="1272.25" y="-133.5" font-family="Helvetica,sans-Serif" font-size="10.00">/Types.h.inc</text>
</a>
</g>
</g>
<!-- Node4&#45;&gt;Node31 -->
<g id="edge30_Node000004_Node000031" class="edge">
<title>Node4&#45;&gt;Node31</title>
<g id="a_edge30_Node000004_Node000031"><a xlink:title=" ">
<path fill="none" stroke="#63b8ff" d="M1272.25,-195.5C1272.25,-188.27 1272.25,-179.53 1272.25,-171.31"/>
<polygon fill="#63b8ff" stroke="#63b8ff" points="1275.75,-171.4 1272.25,-161.4 1268.75,-171.4 1275.75,-171.4"/>
</a>
</g>
</g>
<!-- Node6 -->
<g id="Node000006" class="node">
<title>Node6</title>
<g id="a_Node000006"><a xlink:title=" ">
<polygon fill="#e0e0e0" stroke="#999999" points="1485.5,-83.88 1375,-83.88 1375,-63.12 1485.5,-63.12 1485.5,-83.88"/>
<text text-anchor="middle" x="1430.25" y="-70.38" font-family="Helvetica,sans-Serif" font-size="10.00">mlir/IR/BuiltinOps.h</text>
</a>
</g>
</g>
<!-- Node5&#45;&gt;Node6 -->
<g id="edge5_Node000005_Node000006" class="edge">
<title>Node5&#45;&gt;Node6</title>
<g id="a_edge5_Node000005_Node000006"><a xlink:title=" ">
<path fill="none" stroke="#63b8ff" d="M1417.28,-126C1419.6,-116.8 1422.53,-105.14 1425.03,-95.24"/>
<polygon fill="#63b8ff" stroke="#63b8ff" points="1428.36,-96.34 1427.41,-85.79 1421.57,-94.63 1428.36,-96.34"/>
</a>
</g>
</g>
<!-- Node7 -->
<g id="Node000007" class="node">
<title>Node7</title>
<g id="a_Node000007"><a xlink:href="Felt_2IR_2Dialect_8h_8inc.html" target="_top" xlink:title=" ">
<polygon fill="white" stroke="#666666" points="1889.5,-90.25 1785,-90.25 1785,-56.75 1889.5,-56.75 1889.5,-90.25"/>
<text text-anchor="start" x="1793" y="-76.75" font-family="Helvetica,sans-Serif" font-size="10.00">llzk/Dialect/Felt/IR</text>
<text text-anchor="middle" x="1837.25" y="-64" font-family="Helvetica,sans-Serif" font-size="10.00">/Dialect.h.inc</text>
</a>
</g>
</g>
<!-- Node5&#45;&gt;Node7 -->
<g id="edge6_Node000005_Node000007" class="edge">
<title>Node5&#45;&gt;Node7</title>
<g id="a_edge6_Node000005_Node000007"><a xlink:title=" ">
<path fill="none" stroke="#63b8ff" d="M1465.86,-136.36C1534.53,-128.58 1658.63,-113.14 1773.66,-90.65"/>
<polygon fill="#63b8ff" stroke="#63b8ff" points="1774.15,-94.12 1783.28,-88.74 1772.79,-87.25 1774.15,-94.12"/>
</a>
</g>
</g>
<!-- Node8&#45;&gt;Node6 -->
<g id="edge20_Node000008_Node000006" class="edge">
<title>Node8&#45;&gt;Node6</title>
<g id="a_edge20_Node000008_Node000006"><a xlink:title=" ">
<path fill="none" stroke="#63b8ff" d="M987.97,-138.3C1065.44,-131.5 1229.44,-115.36 1366.25,-90.25 1371.53,-89.28 1377.02,-88.14 1382.47,-86.92"/>
<polygon fill="#63b8ff" stroke="#63b8ff" points="1383.11,-90.36 1392.05,-84.68 1381.52,-83.55 1383.11,-90.36"/>
</a>
</g>
</g>
<!-- Node8&#45;&gt;Node9 -->
<g id="edge8_Node000008_Node000009" class="edge">
<title>Node8&#45;&gt;Node9</title>
<g id="a_edge8_Node000008_Node000009"><a xlink:title=" ">
<path fill="none" stroke="#63b8ff" d="M898.48,-139.45C798.23,-133.45 548.17,-116.92 340.25,-90.25 331.22,-89.09 321.73,-87.68 312.41,-86.19"/>
<polygon fill="#63b8ff" stroke="#63b8ff" points="313.09,-82.76 302.66,-84.59 311.96,-89.66 313.09,-82.76"/>
</a>
</g>
</g>
<!-- Node8&#45;&gt;Node12 -->
<g id="edge23_Node000008_Node000012" class="edge">
<title>Node8&#45;&gt;Node12</title>
<g id="a_edge23_Node000008_Node000012"><a xlink:title=" ">
<path fill="none" stroke="#63b8ff" d="M960.52,-132.31C987.59,-115.98 1034.53,-82.24 1010.25,-56.75 983.33,-28.49 376.56,-24.48 275.58,-20.55"/>
<polygon fill="#63b8ff" stroke="#63b8ff" points="276.01,-17.07 265.84,-20.04 275.64,-24.06 276.01,-17.07"/>
</a>
</g>
</g>
<!-- Node15 -->
<g id="Node000015" class="node">
<title>Node15</title>
<g id="a_Node000015"><a xlink:href="ErrorHelper_8h.html" target="_top" xlink:title=" ">
<polygon fill="#fff0f0" stroke="red" points="1767.38,-83.88 1647.12,-83.88 1647.12,-63.12 1767.38,-63.12 1767.38,-83.88"/>
<text text-anchor="middle" x="1707.25" y="-70.38" font-family="Helvetica,sans-Serif" font-size="10.00">llzk/Util/ErrorHelper.h</text>
</a>
</g>
</g>
<!-- Node8&#45;&gt;Node15 -->
<g id="edge14_Node000008_Node000015" class="edge">
<title>Node8&#45;&gt;Node15</title>
<g id="a_edge14_Node000008_Node000015"><a xlink:title=" ">
<path fill="none" stroke="#63b8ff" d="M987.88,-139.53C1120.54,-132.06 1511.03,-109.05 1637.25,-90.25 1643.72,-89.29 1650.49,-88.05 1657.15,-86.71"/>
<polygon fill="#63b8ff" stroke="#63b8ff" points="1657.67,-90.17 1666.72,-84.67 1656.21,-83.33 1657.67,-90.17"/>
</a>
</g>
</g>
<!-- Node22 -->
<g id="Node000022" class="node">
<title>Node22</title>
<g id="a_Node000022"><a xlink:title=" ">
<polygon fill="#e0e0e0" stroke="#999999" points="735.12,-83.88 595.38,-83.88 595.38,-63.12 735.12,-63.12 735.12,-83.88"/>
<text text-anchor="middle" x="665.25" y="-70.38" font-family="Helvetica,sans-Serif" font-size="10.00">mlir/IR/BuiltinAttributes.h</text>
</a>
</g>
</g>
<!-- Node8&#45;&gt;Node22 -->
<g id="edge19_Node000008_Node000022" class="edge">
<title>Node8&#45;&gt;Node22</title>
<g id="a_edge19_Node000008_Node000022"><a xlink:title=" ">
<path fill="none" stroke="#63b8ff" d="M902.83,-132.18C853.62,-120.24 770.46,-100.04 716.72,-87"/>
<polygon fill="#63b8ff" stroke="#63b8ff" points="717.74,-83.64 707.19,-84.68 716.08,-90.44 717.74,-83.64"/>
</a>
</g>
</g>
<!-- Node23 -->
<g id="Node000023" class="node">
<title>Node23</title>
<g id="a_Node000023"><a xlink:title=" ">
<polygon fill="#e0e0e0" stroke="#999999" points="867,-83.88 753.5,-83.88 753.5,-63.12 867,-63.12 867,-83.88"/>
<text text-anchor="middle" x="810.25" y="-70.38" font-family="Helvetica,sans-Serif" font-size="10.00">mlir/Support/LLVM.h</text>
</a>
</g>
</g>
<!-- Node8&#45;&gt;Node23 -->
<g id="edge21_Node000008_Node000023" class="edge">
<title>Node8&#45;&gt;Node23</title>
<g id="a_edge21_Node000008_Node000023"><a xlink:title=" ">
<path fill="none" stroke="#63b8ff" d="M923.91,-132.18C901.85,-120.99 865.51,-102.55 839.87,-89.53"/>
<polygon fill="#63b8ff" stroke="#63b8ff" points="841.46,-86.42 830.96,-85.01 838.3,-92.66 841.46,-86.42"/>
</a>
</g>
</g>
<!-- Node24 -->
<g id="Node000024" class="node">
<title>Node24</title>
<g id="a_Node000024"><a xlink:title=" ">
<polygon fill="#e0e0e0" stroke="#999999" points="1628.62,-83.88 1503.88,-83.88 1503.88,-63.12 1628.62,-63.12 1628.62,-83.88"/>
<text text-anchor="middle" x="1566.25" y="-70.38" font-family="Helvetica,sans-Serif" font-size="10.00">llvm/ADT/DenseMap.h</text>
</a>
</g>
</g>
<!-- Node8&#45;&gt;Node24 -->
<g id="edge22_Node000008_Node000024" class="edge">
<title>Node8&#45;&gt;Node24</title>
<g id="a_edge22_Node000008_Node000024"><a xlink:title=" ">
<path fill="none" stroke="#63b8ff" d="M988.12,-139.64C1082.33,-134.28 1307.46,-119.34 1494.25,-90.25 1500.73,-89.24 1507.5,-88 1514.19,-86.67"/>
<polygon fill="#63b8ff" stroke="#63b8ff" points="1514.73,-90.13 1523.81,-84.67 1513.31,-83.28 1514.73,-90.13"/>
</a>
</g>
</g>
<!-- Node25 -->
<g id="Node000025" class="node">
<title>Node25</title>
<g id="a_Node000025"><a xlink:title=" ">
<polygon fill="#e0e0e0" stroke="#999999" points="1001.5,-83.88 885,-83.88 885,-63.12 1001.5,-63.12 1001.5,-83.88"/>
<text text-anchor="middle" x="943.25" y="-70.38" font-family="Helvetica,sans-Serif" font-size="10.00">llvm/ADT/SmallSet.h</text>
</a>
</g>
</g>
<!-- Node8&#45;&gt;Node25 -->
<g id="edge24_Node000008_Node000025" class="edge">
<title>Node8&#45;&gt;Node25</title>
<g id="a_edge24_Node000008_Node000025"><a xlink:title=" ">
<path fill="none" stroke="#63b8ff" d="M943.25,-132.33C943.25,-122.71 943.25,-107.63 943.25,-95.29"/>
<polygon fill="#63b8ff" stroke="#63b8ff" points="946.75,-95.67 943.25,-85.67 939.75,-95.67 946.75,-95.67"/>
</a>
</g>
</g>
<!-- Node26 -->
<g id="Node000026" class="node">
<title>Node26</title>
<g id="a_Node000026"><a xlink:title=" ">
<polygon fill="#e0e0e0" stroke="#999999" points="1213,-83.88 1057.5,-83.88 1057.5,-63.12 1213,-63.12 1213,-83.88"/>
<text text-anchor="middle" x="1135.25" y="-70.38" font-family="Helvetica,sans-Serif" font-size="10.00">llvm/Support/LogicalResult.h</text>
</a>
</g>
</g>
<!-- Node8&#45;&gt;Node26 -->
<g id="edge25_Node000008_Node000026" class="edge">
<title>Node8&#45;&gt;Node26</title>
<g id="a_edge25_Node000008_Node000026"><a xlink:title=" ">
<path fill="none" stroke="#63b8ff" d="M971.17,-132.18C1004.3,-120.54 1059.72,-101.05 1096.87,-87.99"/>
<polygon fill="#63b8ff" stroke="#63b8ff" points="1097.6,-91.45 1105.87,-84.83 1095.28,-84.84 1097.6,-91.45"/>
</a>
</g>
</g>
<!-- Node27 -->
<g id="Node000027" class="node">
<title>Node27</title>
<g id="a_Node000027"><a xlink:title=" ">
<polygon fill="#e0e0e0" stroke="#999999" points="1357.38,-83.88 1231.12,-83.88 1231.12,-63.12 1357.38,-63.12 1357.38,-83.88"/>
<text text-anchor="middle" x="1294.25" y="-70.38" font-family="Helvetica,sans-Serif" font-size="10.00">llvm/Support/SMTAPI.h</text>
</a>
</g>
</g>
<!-- Node8&#45;&gt;Node27 -->
<g id="edge26_Node000008_Node000027" class="edge">
<title>Node8&#45;&gt;Node27</title>
<g id="a_edge26_Node000008_Node000027"><a xlink:title=" ">
<path fill="none" stroke="#63b8ff" d="M987.79,-134.19C1042.93,-124.42 1139.68,-106.93 1222.25,-90.25 1227.83,-89.12 1233.64,-87.91 1239.44,-86.68"/>
<polygon fill="#63b8ff" stroke="#63b8ff" points="1239.99,-90.14 1249.03,-84.62 1238.52,-83.3 1239.99,-90.14"/>
</a>
</g>
</g>
<!-- Node28 -->
<g id="Node000028" class="node">
<title>Node28</title>
<g id="a_Node000028"><a xlink:title=" ">
<polygon fill="#e0e0e0" stroke="#999999" points="413.62,-83.88 348.88,-83.88 348.88,-63.12 413.62,-63.12 413.62,-83.88"/>
<text text-anchor="middle" x="381.25" y="-70.38" font-family="Helvetica,sans-Serif" font-size="10.00">functional</text>
</a>
</g>
</g>
<!-- Node8&#45;&gt;Node28 -->
<g id="edge27_Node000008_Node000028" class="edge">
<title>Node8&#45;&gt;Node28</title>
<g id="a_edge27_Node000008_Node000028"><a xlink:title=" ">
<path fill="none" stroke="#63b8ff" d="M898.68,-141.57C807.82,-139.81 595.16,-131.26 422.25,-90.25 419.62,-89.63 416.93,-88.87 414.26,-88.04"/>
<polygon fill="#63b8ff" stroke="#63b8ff" points="415.49,-84.76 404.89,-84.77 413.18,-91.37 415.49,-84.76"/>
</a>
</g>
</g>
<!-- Node29 -->
<g id="Node000029" class="node">
<title>Node29</title>
<g id="a_Node000029"><a xlink:title=" ">
<polygon fill="#e0e0e0" stroke="#999999" points="487.12,-83.88 431.38,-83.88 431.38,-63.12 487.12,-63.12 487.12,-83.88"/>
<text text-anchor="middle" x="459.25" y="-70.38" font-family="Helvetica,sans-Serif" font-size="10.00">optional</text>
</a>
</g>
</g>
<!-- Node8&#45;&gt;Node29 -->
<g id="edge28_Node000008_Node000029" class="edge">
<title>Node8&#45;&gt;Node29</title>
<g id="a_edge28_Node000008_Node000029"><a xlink:title=" ">
<path fill="none" stroke="#63b8ff" d="M898.69,-141.05C817.39,-138.4 640.12,-128.34 496.25,-90.25 494.12,-89.69 491.96,-89.02 489.8,-88.29"/>
<polygon fill="#63b8ff" stroke="#63b8ff" points="491.24,-85.1 480.65,-84.78 488.73,-91.63 491.24,-85.1"/>
</a>
</g>
</g>
<!-- Node30 -->
<g id="Node000030" class="node">
<title>Node30</title>
<g id="a_Node000030"><a xlink:title=" ">
<polygon fill="#e0e0e0" stroke="#999999" points="577.38,-83.88 505.12,-83.88 505.12,-63.12 577.38,-63.12 577.38,-83.88"/>
<text text-anchor="middle" x="541.25" y="-70.38" font-family="Helvetica,sans-Serif" font-size="10.00">string_view</text>
</a>
</g>
</g>
<!-- Node8&#45;&gt;Node30 -->
<g id="edge29_Node000008_Node000030" class="edge">
<title>Node8&#45;&gt;Node30</title>
<g id="a_edge29_Node000008_Node000030"><a xlink:title=" ">
<path fill="none" stroke="#63b8ff" d="M898.48,-138.3C830.32,-132.05 696.8,-117.34 586.25,-90.25 583.34,-89.54 580.34,-88.71 577.36,-87.81"/>
<polygon fill="#63b8ff" stroke="#63b8ff" points="578.73,-84.58 568.13,-84.83 576.57,-91.24 578.73,-84.58"/>
</a>
</g>
</g>
<!-- Node10 -->
<g id="Node000010" class="node">
<title>Node10</title>
<g id="a_Node000010"><a xlink:title=" ">
<polygon fill="#e0e0e0" stroke="#999999" points="564.5,-20.75 466,-20.75 466,0 564.5,0 564.5,-20.75"/>
<text text-anchor="middle" x="515.25" y="-7.25" font-family="Helvetica,sans-Serif" font-size="10.00">llvm/ADT/APInt.h</text>
</a>
</g>
</g>
<!-- Node9&#45;&gt;Node10 -->
<g id="edge9_Node000009_Node000010" class="edge">
<title>Node9&#45;&gt;Node10</title>
<g id="a_edge9_Node000009_Node000010"><a xlink:title=" ">
<path fill="none" stroke="#63b8ff" d="M291.15,-62.68C337.47,-52.07 411.35,-35.16 461.51,-23.68"/>
<polygon fill="#63b8ff" stroke="#63b8ff" points="462.02,-27.15 470.98,-21.51 460.45,-20.33 462.02,-27.15"/>
</a>
</g>
</g>
<!-- Node11 -->
<g id="Node000011" class="node">
<title>Node11</title>
<g id="a_Node000011"><a xlink:title=" ">
<polygon fill="#e0e0e0" stroke="#999999" points="104.5,-20.75 0,-20.75 0,0 104.5,0 104.5,-20.75"/>
<text text-anchor="middle" x="52.25" y="-7.25" font-family="Helvetica,sans-Serif" font-size="10.00">llvm/ADT/APSInt.h</text>
</a>
</g>
</g>
<!-- Node9&#45;&gt;Node11 -->
<g id="edge10_Node000009_Node000011" class="edge">
<title>Node9&#45;&gt;Node11</title>
<g id="a_edge10_Node000009_Node000011"><a xlink:title=" ">
<path fill="none" stroke="#63b8ff" d="M216.76,-62.68C183.61,-52.34 131.25,-36.01 94.52,-24.56"/>
<polygon fill="#63b8ff" stroke="#63b8ff" points="95.7,-21.26 85.11,-21.62 93.61,-27.94 95.7,-21.26"/>
</a>
</g>
</g>
<!-- Node9&#45;&gt;Node12 -->
<g id="edge11_Node000009_Node000012" class="edge">
<title>Node9&#45;&gt;Node12</title>
<g id="a_edge11_Node000009_Node000012"><a xlink:title=" ">
<path fill="none" stroke="#63b8ff" d="M239.41,-62.68C231.35,-53.72 219.23,-40.24 209.43,-29.35"/>
<polygon fill="#63b8ff" stroke="#63b8ff" points="212.19,-27.19 202.9,-22.1 206.98,-31.87 212.19,-27.19"/>
</a>
</g>
</g>
<!-- Node13 -->
<g id="Node000013" class="node">
<title>Node13</title>
<g id="a_Node000013"><a xlink:title=" ">
<polygon fill="#e0e0e0" stroke="#999999" points="447.88,-20.75 282.62,-20.75 282.62,0 447.88,0 447.88,-20.75"/>
<text text-anchor="middle" x="365.25" y="-7.25" font-family="Helvetica,sans-Serif" font-size="10.00">llvm/ADT/SlowDynamicAPInt.h</text>
</a>
</g>
</g>
<!-- Node9&#45;&gt;Node13 -->
<g id="edge12_Node000009_Node000013" class="edge">
<title>Node9&#45;&gt;Node13</title>
<g id="a_edge12_Node000009_Node000013"><a xlink:title=" ">
<path fill="none" stroke="#63b8ff" d="M267.05,-62.68C285.81,-52.88 314.89,-37.68 336.54,-26.37"/>
<polygon fill="#63b8ff" stroke="#63b8ff" points="337.91,-29.6 345.16,-21.87 334.67,-23.4 337.91,-29.6"/>
</a>
</g>
</g>
<!-- Node14 -->
<g id="Node000014" class="node">
<title>Node14</title>
<g id="a_Node000014"><a xlink:title=" ">
<polygon fill="#e0e0e0" stroke="#999999" points="1933.88,-20.75 1816.62,-20.75 1816.62,0 1933.88,0 1933.88,-20.75"/>
<text text-anchor="middle" x="1875.25" y="-7.25" font-family="Helvetica,sans-Serif" font-size="10.00">llvm/ADT/StringRef.h</text>
</a>
</g>
</g>
<!-- Node9&#45;&gt;Node14 -->
<g id="edge13_Node000009_Node000014" class="edge">
<title>Node9&#45;&gt;Node14</title>
<g id="a_edge13_Node000009_Node000014"><a xlink:title=" ">
<path fill="none" stroke="#63b8ff" d="M297.73,-62.67C311.45,-60.32 326.38,-58.1 340.25,-56.75 985.73,6.09 1155.28,-72.48 1805.27,-20.8"/>
<polygon fill="#63b8ff" stroke="#63b8ff" points="1805.13,-24.32 1814.81,-20.03 1804.57,-17.35 1805.13,-24.32"/>
</a>
</g>
</g>
<!-- Node16 -->
<g id="Node000016" class="node">
<title>Node16</title>
<g id="a_Node000016"><a xlink:title=" ">
<polygon fill="#e0e0e0" stroke="#999999" points="1490.88,-20.75 1373.62,-20.75 1373.62,0 1490.88,0 1490.88,-20.75"/>
<text text-anchor="middle" x="1432.25" y="-7.25" font-family="Helvetica,sans-Serif" font-size="10.00">mlir/IR/Diagnostics.h</text>
</a>
</g>
</g>
<!-- Node15&#45;&gt;Node16 -->
<g id="edge15_Node000015_Node000016" class="edge">
<title>Node15&#45;&gt;Node16</title>
<g id="a_edge15_Node000015_Node000016"><a xlink:title=" ">
<path fill="none" stroke="#63b8ff" d="M1663.57,-62.65C1654.85,-60.69 1645.76,-58.65 1637.25,-56.75 1586.85,-45.5 1529.44,-32.81 1488.23,-23.71"/>
<polygon fill="#63b8ff" stroke="#63b8ff" points="1489.05,-20.31 1478.53,-21.57 1487.54,-27.14 1489.05,-20.31"/>
</a>
</g>
</g>
<!-- Node17 -->
<g id="Node000017" class="node">
<title>Node17</title>
<g id="a_Node000017"><a xlink:title=" ">
<polygon fill="#e0e0e0" stroke="#999999" points="2060.38,-20.75 1952.12,-20.75 1952.12,0 2060.38,0 2060.38,-20.75"/>
<text text-anchor="middle" x="2006.25" y="-7.25" font-family="Helvetica,sans-Serif" font-size="10.00">mlir/IR/Operation.h</text>
</a>
</g>
</g>
<!-- Node15&#45;&gt;Node17 -->
<g id="edge16_Node000015_Node000017" class="edge">
<title>Node15&#45;&gt;Node17</title>
<g id="a_edge16_Node000015_Node000017"><a xlink:title=" ">
<path fill="none" stroke="#63b8ff" d="M1749.54,-62.64C1758.35,-60.64 1767.6,-58.59 1776.25,-56.75 1832.52,-44.78 1896.77,-32.2 1943.03,-23.32"/>
<polygon fill="#63b8ff" stroke="#63b8ff" points="1943.44,-26.81 1952.61,-21.49 1942.13,-19.93 1943.44,-26.81"/>
</a>
</g>
</g>
<!-- Node18 -->
<g id="Node000018" class="node">
<title>Node18</title>
<g id="a_Node000018"><a xlink:title=" ">
<polygon fill="#e0e0e0" stroke="#999999" points="1679.88,-20.75 1508.62,-20.75 1508.62,0 1679.88,0 1679.88,-20.75"/>
<text text-anchor="middle" x="1594.25" y="-7.25" font-family="Helvetica,sans-Serif" font-size="10.00">llvm/ADT/STLFunctionalExtras.h</text>
</a>
</g>
</g>
<!-- Node15&#45;&gt;Node18 -->
<g id="edge17_Node000015_Node000018" class="edge">
<title>Node15&#45;&gt;Node18</title>
<g id="a_edge17_Node000015_Node000018"><a xlink:title=" ">
<path fill="none" stroke="#63b8ff" d="M1689.09,-62.68C1671.06,-52.92 1643.14,-37.82 1622.26,-26.53"/>
<polygon fill="#63b8ff" stroke="#63b8ff" points="1624.15,-23.57 1613.69,-21.89 1620.82,-29.73 1624.15,-23.57"/>
</a>
</g>
</g>
<!-- Node19 -->
<g id="Node000019" class="node">
<title>Node19</title>
<g id="a_Node000019"><a xlink:title=" ">
<polygon fill="#e0e0e0" stroke="#999999" points="1798.62,-20.75 1697.88,-20.75 1697.88,0 1798.62,0 1798.62,-20.75"/>
<text text-anchor="middle" x="1748.25" y="-7.25" font-family="Helvetica,sans-Serif" font-size="10.00">llvm/ADT/Twine.h</text>
</a>
</g>
</g>
<!-- Node15&#45;&gt;Node19 -->
<g id="edge18_Node000015_Node000019" class="edge">
<title>Node15&#45;&gt;Node19</title>
<g id="a_edge18_Node000015_Node000019"><a xlink:title=" ">
<path fill="none" stroke="#63b8ff" d="M1713.84,-62.68C1719.67,-53.98 1728.35,-41.05 1735.53,-30.34"/>
<polygon fill="#63b8ff" stroke="#63b8ff" points="1738.31,-32.48 1740.97,-22.23 1732.49,-28.58 1738.31,-32.48"/>
</a>
</g>
</g>
<!-- Node35&#45;&gt;Node17 -->
<g id="edge38_Node000035_Node000017" class="edge">
<title>Node35&#45;&gt;Node17</title>
<g id="a_edge38_Node000035_Node000017"><a xlink:title=" ">
<path fill="none" stroke="#63b8ff" d="M1496.17,-267.06C1498.9,-266.44 1501.6,-265.83 1504.25,-265.25 1583.07,-247.88 1607.47,-259.61 1682.25,-229.25 1788.02,-186.3 1804.11,-154.83 1898.25,-90.25 1928.63,-69.41 1962.85,-44.09 1984.47,-27.86"/>
<polygon fill="#63b8ff" stroke="#63b8ff" points="1986.37,-30.82 1992.25,-22.01 1982.16,-25.23 1986.37,-30.82"/>
</a>
</g>
</g>
<!-- Node36 -->
<g id="Node000036" class="node">
<title>Node36</title>
<g id="a_Node000036"><a xlink:title=" ">
<polygon fill="#e0e0e0" stroke="#999999" points="1501.75,-222.88 1380.75,-222.88 1380.75,-202.12 1501.75,-202.12 1501.75,-222.88"/>
<text text-anchor="middle" x="1441.25" y="-209.38" font-family="Helvetica,sans-Serif" font-size="10.00">mlir/IR/OpDefinition.h</text>
</a>
</g>
</g>
<!-- Node35&#45;&gt;Node36 -->
<g id="edge37_Node000035_Node000036" class="edge">
<title>Node35&#45;&gt;Node36</title>
<g id="a_edge37_Node000035_Node000036"><a xlink:title=" ">
<path fill="none" stroke="#63b8ff" d="M1438.96,-265C1439.37,-255.9 1439.88,-244.39 1440.31,-234.57"/>
<polygon fill="#63b8ff" stroke="#63b8ff" points="1443.8,-234.98 1440.75,-224.83 1436.81,-234.67 1443.8,-234.98"/>
</a>
</g>
</g>
<!-- Node37 -->
<g id="Node000037" class="node">
<title>Node37</title>
<g id="a_Node000037"><a xlink:title=" ">
<polygon fill="#e0e0e0" stroke="#999999" points="1672.88,-222.88 1519.62,-222.88 1519.62,-202.12 1672.88,-202.12 1672.88,-222.88"/>
<text text-anchor="middle" x="1596.25" y="-209.38" font-family="Helvetica,sans-Serif" font-size="10.00">mlir/Support/LogicalResult.h</text>
</a>
</g>
</g>
<!-- Node35&#45;&gt;Node37 -->
<g id="edge39_Node000035_Node000037" class="edge">
<title>Node35&#45;&gt;Node37</title>
<g id="a_edge39_Node000035_Node000037"><a xlink:title=" ">
<path fill="none" stroke="#63b8ff" d="M1476.09,-264.83C1502.5,-253.55 1537.41,-238.64 1562.79,-227.79"/>
<polygon fill="#63b8ff" stroke="#63b8ff" points="1564.17,-231.01 1571.99,-223.87 1561.42,-224.58 1564.17,-231.01"/>
</a>
</g>
</g>
<!-- Node42 -->
<g id="Node000042" class="node">
<title>Node42</title>
<g id="a_Node000042"><a xlink:href="Polymorphic_2IR_2Dialect_8h.html" target="_top" xlink:title=" ">
<polygon fill="white" stroke="#666666" points="2079.5,-298.75 1945,-298.75 1945,-265.25 2079.5,-265.25 2079.5,-298.75"/>
<text text-anchor="start" x="1953" y="-285.25" font-family="Helvetica,sans-Serif" font-size="10.00">llzk/Dialect/Polymorphic</text>
<text text-anchor="middle" x="2012.25" y="-272.5" font-family="Helvetica,sans-Serif" font-size="10.00">/IR/Dialect.h</text>
</a>
</g>
</g>
<!-- Node41&#45;&gt;Node42 -->
<g id="edge44_Node000041_Node000042" class="edge">
<title>Node41&#45;&gt;Node42</title>
<g id="a_edge44_Node000041_Node000042"><a xlink:title=" ">
<path fill="none" stroke="#63b8ff" d="M1953.5,-334.5C1963.02,-326.16 1974.85,-315.79 1985.39,-306.55"/>
<polygon fill="#63b8ff" stroke="#63b8ff" points="1987.52,-309.34 1992.73,-300.11 1982.9,-304.07 1987.52,-309.34"/>
</a>
</g>
</g>
<!-- Node44 -->
<g id="Node000044" class="node">
<title>Node44</title>
<g id="a_Node000044"><a xlink:href="Polymorphic_2IR_2Types_8h_8inc.html" target="_top" xlink:title=" ">
<polygon fill="white" stroke="#666666" points="1926.5,-298.75 1792,-298.75 1792,-265.25 1926.5,-265.25 1926.5,-298.75"/>
<text text-anchor="start" x="1800" y="-285.25" font-family="Helvetica,sans-Serif" font-size="10.00">llzk/Dialect/Polymorphic</text>
<text text-anchor="middle" x="1859.25" y="-272.5" font-family="Helvetica,sans-Serif" font-size="10.00">/IR/Types.h.inc</text>
</a>
</g>
</g>
<!-- Node41&#45;&gt;Node44 -->
<g id="edge47_Node000041_Node000044" class="edge">
<title>Node41&#45;&gt;Node44</title>
<g id="a_edge47_Node000041_Node000044"><a xlink:title=" ">
<path fill="none" stroke="#63b8ff" d="M1917.24,-334.5C1907.84,-326.16 1896.17,-315.79 1885.76,-306.55"/>
<polygon fill="#63b8ff" stroke="#63b8ff" points="1888.33,-304.14 1878.53,-300.12 1883.68,-309.38 1888.33,-304.14"/>
</a>
</g>
</g>
<!-- Node42&#45;&gt;Node6 -->
<g id="edge45_Node000042_Node000006" class="edge">
<title>Node42&#45;&gt;Node6</title>
<g id="a_edge45_Node000042_Node000006"><a xlink:title=" ">
<path fill="none" stroke="#63b8ff" d="M1966.58,-264.8C1855.39,-225.34 1572.16,-124.85 1468.77,-88.17"/>
<polygon fill="#63b8ff" stroke="#63b8ff" points="1469.94,-84.87 1459.35,-84.82 1467.6,-91.47 1469.94,-84.87"/>
</a>
</g>
</g>
<!-- Node43 -->
<g id="Node000043" class="node">
<title>Node43</title>
<g id="a_Node000043"><a xlink:href="Polymorphic_2IR_2Dialect_8h_8inc.html" target="_top" xlink:title=" ">
<polygon fill="white" stroke="#666666" points="2079.5,-229.25 1945,-229.25 1945,-195.75 2079.5,-195.75 2079.5,-229.25"/>
<text text-anchor="start" x="1953" y="-215.75" font-family="Helvetica,sans-Serif" font-size="10.00">llzk/Dialect/Polymorphic</text>
<text text-anchor="middle" x="2012.25" y="-203" font-family="Helvetica,sans-Serif" font-size="10.00">/IR/Dialect.h.inc</text>
</a>
</g>
</g>
<!-- Node42&#45;&gt;Node43 -->
<g id="edge46_Node000042_Node000043" class="edge">
<title>Node42&#45;&gt;Node43</title>
<g id="a_edge46_Node000042_Node000043"><a xlink:title=" ">
<path fill="none" stroke="#63b8ff" d="M2012.25,-265C2012.25,-257.77 2012.25,-249.03 2012.25,-240.81"/>
<polygon fill="#63b8ff" stroke="#63b8ff" points="2015.75,-240.9 2012.25,-230.9 2008.75,-240.9 2015.75,-240.9"/>
</a>
</g>
</g>
<!-- Node45&#45;&gt;Node14 -->
<g id="edge57_Node000045_Node000014" class="edge">
<title>Node45&#45;&gt;Node14</title>
<g id="a_edge57_Node000045_Node000014"><a xlink:title=" ">
<path fill="none" stroke="#63b8ff" d="M2058.6,-132.22C2035.94,-122.79 2001.79,-107.44 1974.25,-90.25 1944.61,-71.75 1913.6,-45.81 1894.36,-28.8"/>
<polygon fill="#63b8ff" stroke="#63b8ff" points="1896.83,-26.31 1887.04,-22.25 1892.16,-31.53 1896.83,-26.31"/>
</a>
</g>
</g>
<!-- Node45&#45;&gt;Node15 -->
<g id="edge51_Node000045_Node000015" class="edge">
<title>Node45&#45;&gt;Node15</title>
<g id="a_edge51_Node000045_Node000015"><a xlink:title=" ">
<path fill="none" stroke="#63b8ff" d="M2023.06,-132.9C1961.03,-123.28 1861.61,-107.17 1776.25,-90.25 1770.74,-89.16 1765,-87.95 1759.29,-86.71"/>
<polygon fill="#63b8ff" stroke="#63b8ff" points="1760.39,-83.37 1749.87,-84.63 1758.88,-90.21 1760.39,-83.37"/>
</a>
</g>
</g>
<!-- Node45&#45;&gt;Node17 -->
<g id="edge53_Node000045_Node000017" class="edge">
<title>Node45&#45;&gt;Node17</title>
<g id="a_edge53_Node000045_Node000017"><a xlink:title=" ">
<path fill="none" stroke="#63b8ff" d="M2143.38,-141.7C2230.05,-139.84 2383.54,-130.74 2418.25,-90.25 2427.94,-78.95 2428.19,-67.84 2418.25,-56.75 2395.58,-31.45 2182.22,-18.79 2071.8,-13.88"/>
<polygon fill="#63b8ff" stroke="#63b8ff" points="2072.13,-10.39 2061.99,-13.46 2071.82,-17.39 2072.13,-10.39"/>
</a>
</g>
</g>
<!-- Node45&#45;&gt;Node24 -->
<g id="edge56_Node000045_Node000024" class="edge">
<title>Node45&#45;&gt;Node24</title>
<g id="a_edge56_Node000045_Node000024"><a xlink:title=" ">
<path fill="none" stroke="#63b8ff" d="M2023.07,-135.75C1919.3,-124.86 1710.84,-102.38 1638.25,-90.25 1631.94,-89.2 1625.36,-87.95 1618.84,-86.64"/>
<polygon fill="#63b8ff" stroke="#63b8ff" points="1619.98,-83.3 1609.47,-84.68 1618.55,-90.15 1619.98,-83.3"/>
</a>
</g>
</g>
<!-- Node46 -->
<g id="Node000046" class="node">
<title>Node46</title>
<g id="a_Node000046"><a xlink:title=" ">
<polygon fill="#e0e0e0" stroke="#999999" points="2135.12,-83.88 1983.38,-83.88 1983.38,-63.12 2135.12,-63.12 2135.12,-83.88"/>
<text text-anchor="middle" x="2059.25" y="-70.38" font-family="Helvetica,sans-Serif" font-size="10.00">mlir/IR/OpImplementation.h</text>
</a>
</g>
</g>
<!-- Node45&#45;&gt;Node46 -->
<g id="edge52_Node000045_Node000046" class="edge">
<title>Node45&#45;&gt;Node46</title>
<g id="a_edge52_Node000045_Node000046"><a xlink:title=" ">
<path fill="none" stroke="#63b8ff" d="M2079.81,-132.33C2076.35,-122.6 2070.92,-107.32 2066.5,-94.9"/>
<polygon fill="#63b8ff" stroke="#63b8ff" points="2069.84,-93.83 2063.19,-85.58 2063.24,-96.17 2069.84,-93.83"/>
</a>
</g>
</g>
<!-- Node47 -->
<g id="Node000047" class="node">
<title>Node47</title>
<g id="a_Node000047"><a xlink:title=" ">
<polygon fill="#e0e0e0" stroke="#999999" points="2275.5,-83.88 2153,-83.88 2153,-63.12 2275.5,-63.12 2275.5,-83.88"/>
<text text-anchor="middle" x="2214.25" y="-70.38" font-family="Helvetica,sans-Serif" font-size="10.00">mlir/IR/SymbolTable.h</text>
</a>
</g>
</g>
<!-- Node45&#45;&gt;Node47 -->
<g id="edge54_Node000045_Node000047" class="edge">
<title>Node45&#45;&gt;Node47</title>
<g id="a_edge54_Node000045_Node000047"><a xlink:title=" ">
<path fill="none" stroke="#63b8ff" d="M2102.3,-132.18C2124.03,-120.99 2159.82,-102.55 2185.07,-89.53"/>
<polygon fill="#63b8ff" stroke="#63b8ff" points="2186.55,-92.71 2193.83,-85.02 2183.34,-86.49 2186.55,-92.71"/>
</a>
</g>
</g>
<!-- Node48 -->
<g id="Node000048" class="node">
<title>Node48</title>
<g id="a_Node000048"><a xlink:title=" ">
<polygon fill="#e0e0e0" stroke="#999999" points="2408.75,-83.88 2293.75,-83.88 2293.75,-63.12 2408.75,-63.12 2408.75,-83.88"/>
<text text-anchor="middle" x="2351.25" y="-70.38" font-family="Helvetica,sans-Serif" font-size="10.00">llvm/ADT/ArrayRef.h</text>
</a>
</g>
</g>
<!-- Node45&#45;&gt;Node48 -->
<g id="edge55_Node000045_Node000048" class="edge">
<title>Node45&#45;&gt;Node48</title>
<g id="a_edge55_Node000045_Node000048"><a xlink:title=" ">
<path fill="none" stroke="#63b8ff" d="M2122.22,-132.18C2169.56,-120.26 2249.49,-100.13 2301.31,-87.08"/>
<polygon fill="#63b8ff" stroke="#63b8ff" points="2301.92,-90.53 2310.77,-84.7 2300.21,-83.75 2301.92,-90.53"/>
</a>
</g>
</g>
</g>
</svg>
