<?xml version="1.0" encoding="UTF-8" standalone="no"?>
<!DOCTYPE svg PUBLIC "-//W3C//DTD SVG 1.1//EN"
 "http://www.w3.org/Graphics/SVG/1.1/DTD/svg11.dtd">
<!-- Generated by graphviz version 12.2.1 (0)
 -->
<!-- Title: include/llzk/Dialect/Felt/IR/Ops.h Pages: 1 -->
<svg width="2580pt" height="389pt"
 viewBox="0.00 0.00 2580.38 389.00" xmlns="http://www.w3.org/2000/svg" xmlns:xlink="http://www.w3.org/1999/xlink">
<g id="graph0" class="graph" transform="scale(1 1) rotate(0) translate(4 385)">
<title>include/llzk/Dialect/Felt/IR/Ops.h</title>
<!-- Node1 -->
<g id="Node000001" class="node">
<title>Node1</title>
<g id="a_Node000001"><a xlink:title=" ">
<polygon fill="#999999" stroke="#666666" points="1357.62,-381 1248.62,-381 1248.62,-347.5 1357.62,-347.5 1357.62,-381"/>
<text text-anchor="start" x="1256.62" y="-367.5" font-family="Helvetica,sans-Serif" font-size="10.00">include/llzk/Dialect</text>
<text text-anchor="middle" x="1303.12" y="-354.75" font-family="Helvetica,sans-Serif" font-size="10.00">/Felt/IR/Ops.h</text>
</a>
</g>
</g>
<!-- Node2 -->
<g id="Node000002" class="node">
<title>Node2</title>
<g id="a_Node000002"><a xlink:href="IntervalAnalysis_8h.html" target="_top" xlink:title=" ">
<polygon fill="white" stroke="#666666" points="231,-103 115.25,-103 115.25,-69.5 231,-69.5 231,-103"/>
<text text-anchor="start" x="123.25" y="-89.5" font-family="Helvetica,sans-Serif" font-size="10.00">include/llzk/Analysis</text>
<text text-anchor="middle" x="173.12" y="-76.75" font-family="Helvetica,sans-Serif" font-size="10.00">/IntervalAnalysis.h</text>
</a>
</g>
</g>
<!-- Node1&#45;&gt;Node2 -->
<g id="edge1_Node000001_Node000002" class="edge">
<title>Node1&#45;&gt;Node2</title>
<g id="a_edge1_Node000001_Node000002"><a xlink:title=" ">
<path fill="none" stroke="#63b8ff" d="M1236.85,-361.73C1046.77,-357.02 508.69,-341.2 435.12,-311.5 319.92,-264.99 219.34,-146.55 185.37,-103.34"/>
<polygon fill="#63b8ff" stroke="#63b8ff" points="1236.72,-365.22 1246.81,-361.97 1236.9,-358.23 1236.72,-365.22"/>
</a>
</g>
</g>
<!-- Node5 -->
<g id="Node000005" class="node">
<title>Node5</title>
<g id="a_Node000005"><a xlink:href="Matchers_8h.html" target="_top" xlink:title=" ">
<polygon fill="white" stroke="#666666" points="190,-172.5 74.25,-172.5 74.25,-139 190,-139 190,-172.5"/>
<text text-anchor="start" x="82.25" y="-159" font-family="Helvetica,sans-Serif" font-size="10.00">include/llzk/Analysis</text>
<text text-anchor="middle" x="132.12" y="-146.25" font-family="Helvetica,sans-Serif" font-size="10.00">/Matchers.h</text>
</a>
</g>
</g>
<!-- Node1&#45;&gt;Node5 -->
<g id="edge4_Node000001_Node000005" class="edge">
<title>Node1&#45;&gt;Node5</title>
<g id="a_edge4_Node000001_Node000005"><a xlink:title=" ">
<path fill="none" stroke="#63b8ff" d="M1237.25,-362.02C1006.62,-357.48 247.14,-340.37 204.12,-311.5 155.9,-279.13 139.32,-205.62 134.19,-172.93"/>
<polygon fill="#63b8ff" stroke="#63b8ff" points="1236.89,-365.51 1246.96,-362.21 1237.03,-358.52 1236.89,-365.51"/>
</a>
</g>
</g>
<!-- Node6 -->
<g id="Node000006" class="node">
<title>Node6</title>
<g id="a_Node000006"><a xlink:href="SourceRef_8h.html" target="_top" xlink:title=" ">
<polygon fill="white" stroke="#666666" points="560,-311.5 444.25,-311.5 444.25,-278 560,-278 560,-311.5"/>
<text text-anchor="start" x="452.25" y="-298" font-family="Helvetica,sans-Serif" font-size="10.00">include/llzk/Analysis</text>
<text text-anchor="middle" x="502.12" y="-285.25" font-family="Helvetica,sans-Serif" font-size="10.00">/SourceRef.h</text>
</a>
</g>
</g>
<!-- Node1&#45;&gt;Node6 -->
<g id="edge6_Node000001_Node000006" class="edge">
<title>Node1&#45;&gt;Node6</title>
<g id="a_edge6_Node000001_Node000006"><a xlink:title=" ">
<path fill="none" stroke="#63b8ff" d="M1237.31,-357.7C1084.13,-344.8 705.71,-312.91 560.32,-300.65"/>
<polygon fill="#63b8ff" stroke="#63b8ff" points="1236.62,-361.16 1246.88,-358.51 1237.21,-354.18 1236.62,-361.16"/>
</a>
</g>
</g>
<!-- Node10 -->
<g id="Node000010" class="node">
<title>Node10</title>
<g id="a_Node000010"><a xlink:href="SourceRefLattice_8cpp.html" target="_top" xlink:title=" ">
<polygon fill="white" stroke="#666666" points="957.12,-96.62 779.12,-96.62 779.12,-75.88 957.12,-75.88 957.12,-96.62"/>
<text text-anchor="middle" x="868.12" y="-83.12" font-family="Helvetica,sans-Serif" font-size="10.00">lib/Analysis/SourceRefLattice.cpp</text>
</a>
</g>
</g>
<!-- Node1&#45;&gt;Node10 -->
<g id="edge23_Node000001_Node000010" class="edge">
<title>Node1&#45;&gt;Node10</title>
<g id="a_edge23_Node000001_Node000010"><a xlink:title=" ">
<path fill="none" stroke="#63b8ff" d="M1237.04,-361.71C1101.06,-357.86 800.04,-345.55 769.12,-311.5 707.34,-243.44 820.3,-130.58 857.1,-96.98"/>
<polygon fill="#63b8ff" stroke="#63b8ff" points="1236.9,-365.21 1246.99,-361.99 1237.09,-358.21 1236.9,-365.21"/>
</a>
</g>
</g>
<!-- Node14 -->
<g id="Node000014" class="node">
<title>Node14</title>
<g id="a_Node000014"><a xlink:href="LLZKLoweringUtils_8h.html" target="_top" xlink:title=" ">
<polygon fill="white" stroke="#666666" points="906.38,-311.5 777.88,-311.5 777.88,-278 906.38,-278 906.38,-311.5"/>
<text text-anchor="start" x="785.88" y="-298" font-family="Helvetica,sans-Serif" font-size="10.00">include/llzk/Transforms</text>
<text text-anchor="middle" x="842.12" y="-285.25" font-family="Helvetica,sans-Serif" font-size="10.00">/LLZKLoweringUtils.h</text>
</a>
</g>
</g>
<!-- Node1&#45;&gt;Node14 -->
<g id="edge19_Node000001_Node000014" class="edge">
<title>Node1&#45;&gt;Node14</title>
<g id="a_edge19_Node000001_Node000014"><a xlink:title=" ">
<path fill="none" stroke="#63b8ff" d="M1237.29,-356.09C1159.9,-347.31 1027.75,-331.13 915.12,-311.5 912.32,-311.01 909.45,-310.49 906.56,-309.94"/>
<polygon fill="#63b8ff" stroke="#63b8ff" points="1236.46,-359.52 1246.79,-357.17 1237.25,-352.57 1236.46,-359.52"/>
</a>
</g>
</g>
<!-- Node17 -->
<g id="Node000017" class="node">
<title>Node17</title>
<g id="a_Node000017"><a xlink:href="Felt_8cpp.html" target="_top" xlink:title=" ">
<polygon fill="white" stroke="#666666" points="1056.25,-305.12 924,-305.12 924,-284.38 1056.25,-284.38 1056.25,-305.12"/>
<text text-anchor="middle" x="990.12" y="-291.62" font-family="Helvetica,sans-Serif" font-size="10.00">lib/CAPI/Dialect/Felt.cpp</text>
</a>
</g>
</g>
<!-- Node1&#45;&gt;Node17 -->
<g id="edge24_Node000001_Node000017" class="edge">
<title>Node1&#45;&gt;Node17</title>
<g id="a_edge24_Node000001_Node000017"><a xlink:title=" ">
<path fill="none" stroke="#63b8ff" d="M1237.29,-349.05C1176.84,-336.02 1088.84,-317.04 1035.78,-305.6"/>
<polygon fill="#63b8ff" stroke="#63b8ff" points="1236.25,-352.41 1246.77,-351.1 1237.73,-345.57 1236.25,-352.41"/>
</a>
</g>
</g>
<!-- Node18 -->
<g id="Node000018" class="node">
<title>Node18</title>
<g id="a_Node000018"><a xlink:href="Cast_2IR_2Ops_8cpp.html" target="_top" xlink:title=" ">
<polygon fill="white" stroke="#666666" points="1177.62,-311.5 1074.62,-311.5 1074.62,-278 1177.62,-278 1177.62,-311.5"/>
<text text-anchor="start" x="1082.62" y="-298" font-family="Helvetica,sans-Serif" font-size="10.00">lib/Dialect/Cast/IR</text>
<text text-anchor="middle" x="1126.12" y="-285.25" font-family="Helvetica,sans-Serif" font-size="10.00">/Ops.cpp</text>
</a>
</g>
</g>
<!-- Node1&#45;&gt;Node18 -->
<g id="edge25_Node000001_Node000018" class="edge">
<title>Node1&#45;&gt;Node18</title>
<g id="a_edge25_Node000001_Node000018"><a xlink:title=" ">
<path fill="none" stroke="#63b8ff" d="M1250.24,-343.08C1224.11,-333.12 1193.01,-321.26 1168.48,-311.9"/>
<polygon fill="#63b8ff" stroke="#63b8ff" points="1248.72,-346.25 1259.31,-346.54 1251.22,-339.71 1248.72,-346.25"/>
</a>
</g>
</g>
<!-- Node19 -->
<g id="Node000019" class="node">
<title>Node19</title>
<g id="a_Node000019"><a xlink:href="Felt_2IR_2Dialect_8cpp.html" target="_top" xlink:title=" ">
<polygon fill="white" stroke="#666666" points="1294.75,-311.5 1195.5,-311.5 1195.5,-278 1294.75,-278 1294.75,-311.5"/>
<text text-anchor="start" x="1203.5" y="-298" font-family="Helvetica,sans-Serif" font-size="10.00">lib/Dialect/Felt/IR</text>
<text text-anchor="middle" x="1245.12" y="-285.25" font-family="Helvetica,sans-Serif" font-size="10.00">/Dialect.cpp</text>
</a>
</g>
</g>
<!-- Node1&#45;&gt;Node19 -->
<g id="edge26_Node000001_Node000019" class="edge">
<title>Node1&#45;&gt;Node19</title>
<g id="a_edge26_Node000001_Node000019"><a xlink:title=" ">
<path fill="none" stroke="#63b8ff" d="M1281.99,-338.66C1274.25,-329.64 1265.69,-319.68 1258.77,-311.63"/>
<polygon fill="#63b8ff" stroke="#63b8ff" points="1279.22,-340.8 1288.39,-346.11 1284.53,-336.24 1279.22,-340.8"/>
</a>
</g>
</g>
<!-- Node20 -->
<g id="Node000020" class="node">
<title>Node20</title>
<g id="a_Node000020"><a xlink:href="Felt_2IR_2Ops_8cpp.html" target="_top" xlink:title=" ">
<polygon fill="white" stroke="#666666" points="1411.75,-311.5 1312.5,-311.5 1312.5,-278 1411.75,-278 1411.75,-311.5"/>
<text text-anchor="start" x="1320.5" y="-298" font-family="Helvetica,sans-Serif" font-size="10.00">lib/Dialect/Felt/IR</text>
<text text-anchor="middle" x="1362.12" y="-285.25" font-family="Helvetica,sans-Serif" font-size="10.00">/Ops.cpp</text>
</a>
</g>
</g>
<!-- Node1&#45;&gt;Node20 -->
<g id="edge27_Node000001_Node000020" class="edge">
<title>Node1&#45;&gt;Node20</title>
<g id="a_edge27_Node000001_Node000020"><a xlink:title=" ">
<path fill="none" stroke="#63b8ff" d="M1324.62,-338.66C1332.5,-329.64 1341.21,-319.68 1348.24,-311.63"/>
<polygon fill="#63b8ff" stroke="#63b8ff" points="1322.05,-336.28 1318.1,-346.11 1327.32,-340.89 1322.05,-336.28"/>
</a>
</g>
</g>
<!-- Node21 -->
<g id="Node000021" class="node">
<title>Node21</title>
<g id="a_Node000021"><a xlink:href="Global_2IR_2Ops_8cpp.html" target="_top" xlink:title=" ">
<polygon fill="white" stroke="#666666" points="1530.12,-311.5 1430.12,-311.5 1430.12,-278 1530.12,-278 1530.12,-311.5"/>
<text text-anchor="start" x="1438.12" y="-298" font-family="Helvetica,sans-Serif" font-size="10.00">lib/Dialect/Global</text>
<text text-anchor="middle" x="1480.12" y="-285.25" font-family="Helvetica,sans-Serif" font-size="10.00">/IR/Ops.cpp</text>
</a>
</g>
</g>
<!-- Node1&#45;&gt;Node21 -->
<g id="edge28_Node000001_Node000021" class="edge">
<title>Node1&#45;&gt;Node21</title>
<g id="a_edge28_Node000001_Node000021"><a xlink:title=" ">
<path fill="none" stroke="#63b8ff" d="M1356.01,-343.08C1382.14,-333.12 1413.24,-321.26 1437.77,-311.9"/>
<polygon fill="#63b8ff" stroke="#63b8ff" points="1355.03,-339.71 1346.94,-346.54 1357.53,-346.25 1355.03,-339.71"/>
</a>
</g>
</g>
<!-- Node22 -->
<g id="Node000022" class="node">
<title>Node22</title>
<g id="a_Node000022"><a xlink:href="FlatteningPass_8cpp.html" target="_top" xlink:title="This file implements the &#45;llzk&#45;flatten pass.">
<polygon fill="white" stroke="#666666" points="1715.88,-311.5 1548.38,-311.5 1548.38,-278 1715.88,-278 1715.88,-311.5"/>
<text text-anchor="start" x="1556.38" y="-298" font-family="Helvetica,sans-Serif" font-size="10.00">lib/Dialect/Polymorphic</text>
<text text-anchor="middle" x="1632.12" y="-285.25" font-family="Helvetica,sans-Serif" font-size="10.00">/Transforms/FlatteningPass.cpp</text>
</a>
</g>
</g>
<!-- Node1&#45;&gt;Node22 -->
<g id="edge29_Node000001_Node000022" class="edge">
<title>Node1&#45;&gt;Node22</title>
<g id="a_edge29_Node000001_Node000022"><a xlink:title=" ">
<path fill="none" stroke="#63b8ff" d="M1368.79,-349.78C1421.82,-338.9 1496.62,-323.55 1552.96,-311.99"/>
<polygon fill="#63b8ff" stroke="#63b8ff" points="1368.4,-346.29 1359.3,-351.72 1369.8,-353.14 1368.4,-346.29"/>
</a>
</g>
</g>
<!-- Node23 -->
<g id="Node000023" class="node">
<title>Node23</title>
<g id="a_Node000023"><a xlink:href="LLZKInlineStructsPass_8cpp.html" target="_top" xlink:title="This file implements the &#45;llzk&#45;inline&#45;structs pass.">
<polygon fill="white" stroke="#666666" points="1872.62,-311.5 1733.62,-311.5 1733.62,-278 1872.62,-278 1872.62,-311.5"/>
<text text-anchor="start" x="1741.62" y="-298" font-family="Helvetica,sans-Serif" font-size="10.00">lib/Transforms/LLZKInline</text>
<text text-anchor="middle" x="1803.12" y="-285.25" font-family="Helvetica,sans-Serif" font-size="10.00">StructsPass.cpp</text>
</a>
</g>
</g>
<!-- Node1&#45;&gt;Node23 -->
<g id="edge30_Node000001_Node000023" class="edge">
<title>Node1&#45;&gt;Node23</title>
<g id="a_edge30_Node000001_Node000023"><a xlink:title=" ">
<path fill="none" stroke="#63b8ff" d="M1369.26,-356.74C1452.53,-348.17 1599.86,-331.8 1725.12,-311.5 1727.85,-311.06 1730.63,-310.59 1733.43,-310.1"/>
<polygon fill="#63b8ff" stroke="#63b8ff" points="1369.04,-353.24 1359.45,-357.74 1369.75,-360.2 1369.04,-353.24"/>
</a>
</g>
</g>
<!-- Node24 -->
<g id="Node000024" class="node">
<title>Node24</title>
<g id="a_Node000024"><a xlink:href="LLZKRedundantReadAndWriteEliminationPass_8cpp.html" target="_top" xlink:title="This file implements the &#45;llzk&#45;duplicate&#45;read&#45;write&#45;elim pass.">
<polygon fill="white" stroke="#666666" points="2073.75,-311.5 1890.5,-311.5 1890.5,-278 2073.75,-278 2073.75,-311.5"/>
<text text-anchor="start" x="1898.5" y="-298" font-family="Helvetica,sans-Serif" font-size="10.00">lib/Transforms/LLZKRedundant</text>
<text text-anchor="middle" x="1982.12" y="-285.25" font-family="Helvetica,sans-Serif" font-size="10.00">ReadAndWriteEliminationPass.cpp</text>
</a>
</g>
</g>
<!-- Node1&#45;&gt;Node24 -->
<g id="edge31_Node000001_Node000024" class="edge">
<title>Node1&#45;&gt;Node24</title>
<g id="a_edge31_Node000001_Node000024"><a xlink:title=" ">
<path fill="none" stroke="#63b8ff" d="M1369.26,-358.79C1476.95,-351.2 1696.81,-334.35 1882.12,-311.5 1884.74,-311.18 1887.39,-310.84 1890.07,-310.49"/>
<polygon fill="#63b8ff" stroke="#63b8ff" points="1369.18,-355.29 1359.45,-359.48 1369.67,-362.27 1369.18,-355.29"/>
</a>
</g>
</g>
<!-- Node25 -->
<g id="Node000025" class="node">
<title>Node25</title>
<g id="a_Node000025"><a xlink:href="LLZKWhileToForPass_8cpp.html" target="_top" xlink:title="This file identifies scf.while loops that can be converted to scf.for loops and performs the conversi...">
<polygon fill="white" stroke="#666666" points="2230.62,-311.5 2091.62,-311.5 2091.62,-278 2230.62,-278 2230.62,-311.5"/>
<text text-anchor="start" x="2099.62" y="-298" font-family="Helvetica,sans-Serif" font-size="10.00">lib/Transforms/LLZKWhile</text>
<text text-anchor="middle" x="2161.12" y="-285.25" font-family="Helvetica,sans-Serif" font-size="10.00">ToForPass.cpp</text>
</a>
</g>
</g>
<!-- Node1&#45;&gt;Node25 -->
<g id="edge32_Node000001_Node000025" class="edge">
<title>Node1&#45;&gt;Node25</title>
<g id="a_edge32_Node000001_Node000025"><a xlink:title=" ">
<path fill="none" stroke="#63b8ff" d="M1369.06,-361.83C1503.77,-358.28 1820.07,-346.63 2083.12,-311.5 2085.86,-311.13 2088.65,-310.73 2091.46,-310.29"/>
<polygon fill="#63b8ff" stroke="#63b8ff" points="1369.17,-358.33 1359.26,-362.08 1369.35,-365.33 1369.17,-358.33"/>
</a>
</g>
</g>
<!-- Node26 -->
<g id="Node000026" class="node">
<title>Node26</title>
<g id="a_Node000026"><a xlink:href="Interpreter_8cpp.html" target="_top" xlink:title=" ">
<polygon fill="white" stroke="#666666" points="2419.75,-305.12 2248.5,-305.12 2248.5,-284.38 2419.75,-284.38 2419.75,-305.12"/>
<text text-anchor="middle" x="2334.12" y="-291.62" font-family="Helvetica,sans-Serif" font-size="10.00">tools/llzk&#45;witgen/Interpreter.cpp</text>
</a>
</g>
</g>
<!-- Node1&#45;&gt;Node26 -->
<g id="edge33_Node000001_Node000026" class="edge">
<title>Node1&#45;&gt;Node26</title>
<g id="a_edge33_Node000001_Node000026"><a xlink:title=" ">
<path fill="none" stroke="#63b8ff" d="M1369.01,-362.12C1522.28,-358.94 1914.5,-347.66 2240.12,-311.5 2253.61,-310 2268.1,-307.85 2281.57,-305.61"/>
<polygon fill="#63b8ff" stroke="#63b8ff" points="1369.4,-358.61 1359.47,-362.31 1369.54,-365.61 1369.4,-358.61"/>
</a>
</g>
</g>
<!-- Node27 -->
<g id="Node000027" class="node">
<title>Node27</title>
<g id="a_Node000027"><a xlink:href="WitgenLowering_8cpp.html" target="_top" xlink:title=" ">
<polygon fill="white" stroke="#666666" points="2572.38,-311.5 2437.88,-311.5 2437.88,-278 2572.38,-278 2572.38,-311.5"/>
<text text-anchor="start" x="2445.88" y="-298" font-family="Helvetica,sans-Serif" font-size="10.00">tools/llzk&#45;witgen/Witgen</text>
<text text-anchor="middle" x="2505.12" y="-285.25" font-family="Helvetica,sans-Serif" font-size="10.00">Lowering.cpp</text>
</a>
</g>
</g>
<!-- Node1&#45;&gt;Node27 -->
<g id="edge34_Node000001_Node000027" class="edge">
<title>Node1&#45;&gt;Node27</title>
<g id="a_edge34_Node000001_Node000027"><a xlink:title=" ">
<path fill="none" stroke="#63b8ff" d="M1369.13,-363.86C1543.21,-364.67 2028.92,-361.84 2429.12,-311.5 2431.93,-311.15 2434.79,-310.75 2437.67,-310.31"/>
<polygon fill="#63b8ff" stroke="#63b8ff" points="1369.41,-360.36 1359.39,-363.8 1369.37,-367.36 1369.41,-360.36"/>
</a>
</g>
</g>
<!-- Node3 -->
<g id="Node000003" class="node">
<title>Node3</title>
<g id="a_Node000003"><a xlink:href="IntervalAnalysis_8cpp.html" target="_top" xlink:title=" ">
<polygon fill="white" stroke="#666666" points="174.25,-27.12 0,-27.12 0,-6.38 174.25,-6.38 174.25,-27.12"/>
<text text-anchor="middle" x="87.12" y="-13.62" font-family="Helvetica,sans-Serif" font-size="10.00">lib/Analysis/IntervalAnalysis.cpp</text>
</a>
</g>
</g>
<!-- Node2&#45;&gt;Node3 -->
<g id="edge2_Node000002_Node000003" class="edge">
<title>Node2&#45;&gt;Node3</title>
<g id="a_edge2_Node000002_Node000003"><a xlink:title=" ">
<path fill="none" stroke="#63b8ff" d="M143.77,-62.21C128.71,-50.39 111.17,-36.62 99.64,-27.57"/>
<polygon fill="#63b8ff" stroke="#63b8ff" points="141.53,-64.9 151.55,-68.32 145.85,-59.39 141.53,-64.9"/>
</a>
</g>
</g>
<!-- Node4 -->
<g id="Node000004" class="node">
<title>Node4</title>
<g id="a_Node000004"><a xlink:href="IntervalAnalysisPass_8cpp.html" target="_top" xlink:title="This file implements the &#45;llzk&#45;print&#45;interval&#45;analysis pass.">
<polygon fill="white" stroke="#666666" points="346.12,-33.5 192.12,-33.5 192.12,0 346.12,0 346.12,-33.5"/>
<text text-anchor="start" x="200.12" y="-20" font-family="Helvetica,sans-Serif" font-size="10.00">lib/Analysis/IntervalAnalysis</text>
<text text-anchor="middle" x="269.12" y="-7.25" font-family="Helvetica,sans-Serif" font-size="10.00">Pass.cpp</text>
</a>
</g>
</g>
<!-- Node2&#45;&gt;Node4 -->
<g id="edge3_Node000002_Node000004" class="edge">
<title>Node2&#45;&gt;Node4</title>
<g id="a_edge3_Node000002_Node000004"><a xlink:title=" ">
<path fill="none" stroke="#63b8ff" d="M205.25,-62.66C218.67,-53.23 233.95,-42.48 246.2,-33.87"/>
<polygon fill="#63b8ff" stroke="#63b8ff" points="203.28,-59.77 197.11,-68.38 207.31,-65.49 203.28,-59.77"/>
</a>
</g>
</g>
<!-- Node5&#45;&gt;Node3 -->
<g id="edge5_Node000005_Node000003" class="edge">
<title>Node5&#45;&gt;Node3</title>
<g id="a_edge5_Node000005_Node000003"><a xlink:title=" ">
<path fill="none" stroke="#63b8ff" d="M117.58,-128.92C113.44,-120.8 109.22,-111.69 106.12,-103 96.65,-76.43 90.92,-43.47 88.49,-27.43"/>
<polygon fill="#63b8ff" stroke="#63b8ff" points="114.38,-130.36 122.16,-137.55 120.57,-127.08 114.38,-130.36"/>
</a>
</g>
</g>
<!-- Node7 -->
<g id="Node000007" class="node">
<title>Node7</title>
<g id="a_Node000007"><a xlink:href="ConstraintDependencyGraph_8h.html" target="_top" xlink:title=" ">
<polygon fill="white" stroke="#666666" points="548.25,-172.5 380,-172.5 380,-139 548.25,-139 548.25,-172.5"/>
<text text-anchor="start" x="388" y="-159" font-family="Helvetica,sans-Serif" font-size="10.00">include/llzk/Analysis</text>
<text text-anchor="middle" x="464.12" y="-146.25" font-family="Helvetica,sans-Serif" font-size="10.00">/ConstraintDependencyGraph.h</text>
</a>
</g>
</g>
<!-- Node6&#45;&gt;Node7 -->
<g id="edge7_Node000006_Node000007" class="edge">
<title>Node6&#45;&gt;Node7</title>
<g id="a_edge7_Node000006_Node000007"><a xlink:title=" ">
<path fill="none" stroke="#63b8ff" d="M460.55,-270.95C450.37,-263.19 440.78,-253.51 435.12,-242 423.82,-218.99 438.9,-190.47 451.2,-172.95"/>
<polygon fill="#63b8ff" stroke="#63b8ff" points="458.53,-273.81 468.73,-276.66 462.53,-268.07 458.53,-273.81"/>
</a>
</g>
</g>
<!-- Node11 -->
<g id="Node000011" class="node">
<title>Node11</title>
<g id="a_Node000011"><a xlink:href="Verif_2IR_2Ops_8cpp.html" target="_top" xlink:title=" ">
<polygon fill="white" stroke="#666666" points="353,-103 249.25,-103 249.25,-69.5 353,-69.5 353,-103"/>
<text text-anchor="start" x="257.25" y="-89.5" font-family="Helvetica,sans-Serif" font-size="10.00">lib/Dialect/Verif/IR</text>
<text text-anchor="middle" x="301.12" y="-76.75" font-family="Helvetica,sans-Serif" font-size="10.00">/Ops.cpp</text>
</a>
</g>
</g>
<!-- Node6&#45;&gt;Node11 -->
<g id="edge18_Node000006_Node000011" class="edge">
<title>Node6&#45;&gt;Node11</title>
<g id="a_edge18_Node000006_Node000011"><a xlink:title=" ">
<path fill="none" stroke="#63b8ff" d="M465.31,-271.38C452.62,-262.9 438.7,-252.69 427.12,-242 378.51,-197.1 332.3,-133.06 311.97,-103.43"/>
<polygon fill="#63b8ff" stroke="#63b8ff" points="463.16,-274.15 473.45,-276.68 466.98,-268.29 463.16,-274.15"/>
</a>
</g>
</g>
<!-- Node12 -->
<g id="Node000012" class="node">
<title>Node12</title>
<g id="a_Node000012"><a xlink:href="SourceRefLattice_8h.html" target="_top" xlink:title=" ">
<polygon fill="white" stroke="#666666" points="560,-242 444.25,-242 444.25,-208.5 560,-208.5 560,-242"/>
<text text-anchor="start" x="452.25" y="-228.5" font-family="Helvetica,sans-Serif" font-size="10.00">include/llzk/Analysis</text>
<text text-anchor="middle" x="502.12" y="-215.75" font-family="Helvetica,sans-Serif" font-size="10.00">/SourceRefLattice.h</text>
</a>
</g>
</g>
<!-- Node6&#45;&gt;Node12 -->
<g id="edge13_Node000006_Node000012" class="edge">
<title>Node6&#45;&gt;Node12</title>
<g id="a_edge13_Node000006_Node000012"><a xlink:title=" ">
<path fill="none" stroke="#63b8ff" d="M502.12,-266.31C502.12,-258.09 502.12,-249.34 502.12,-242.13"/>
<polygon fill="#63b8ff" stroke="#63b8ff" points="498.63,-266.24 502.13,-276.24 505.63,-266.24 498.63,-266.24"/>
</a>
</g>
</g>
<!-- Node13 -->
<g id="Node000013" class="node">
<title>Node13</title>
<g id="a_Node000013"><a xlink:href="SourceRef_8cpp.html" target="_top" xlink:title=" ">
<polygon fill="white" stroke="#666666" points="722.25,-235.62 578,-235.62 578,-214.88 722.25,-214.88 722.25,-235.62"/>
<text text-anchor="middle" x="650.12" y="-222.12" font-family="Helvetica,sans-Serif" font-size="10.00">lib/Analysis/SourceRef.cpp</text>
</a>
</g>
</g>
<!-- Node6&#45;&gt;Node13 -->
<g id="edge17_Node000006_Node000013" class="edge">
<title>Node6&#45;&gt;Node13</title>
<g id="a_edge17_Node000006_Node000013"><a xlink:title=" ">
<path fill="none" stroke="#63b8ff" d="M547.95,-272.85C574.88,-260.57 607.66,-245.62 628.7,-236.02"/>
<polygon fill="#63b8ff" stroke="#63b8ff" points="546.6,-269.62 538.95,-276.95 549.5,-275.99 546.6,-269.62"/>
</a>
</g>
</g>
<!-- Node7&#45;&gt;Node2 -->
<g id="edge8_Node000007_Node000002" class="edge">
<title>Node7&#45;&gt;Node2</title>
<g id="a_edge8_Node000007_Node000002"><a xlink:title=" ">
<path fill="none" stroke="#63b8ff" d="M382.37,-135.94C339.92,-126.16 287.23,-113.98 240.12,-103 237.22,-102.32 234.24,-101.63 231.23,-100.92"/>
<polygon fill="#63b8ff" stroke="#63b8ff" points="381.48,-139.33 392.01,-138.16 383.06,-132.51 381.48,-139.33"/>
</a>
</g>
</g>
<!-- Node8 -->
<g id="Node000008" class="node">
<title>Node8</title>
<g id="a_Node000008"><a xlink:href="ConstraintDependencyGraph_8cpp.html" target="_top" xlink:title=" ">
<polygon fill="white" stroke="#666666" points="761.25,-103 575,-103 575,-69.5 761.25,-69.5 761.25,-103"/>
<text text-anchor="start" x="583" y="-89.5" font-family="Helvetica,sans-Serif" font-size="10.00">lib/Analysis/ConstraintDependency</text>
<text text-anchor="middle" x="668.12" y="-76.75" font-family="Helvetica,sans-Serif" font-size="10.00">Graph.cpp</text>
</a>
</g>
</g>
<!-- Node7&#45;&gt;Node8 -->
<g id="edge9_Node000007_Node000008" class="edge">
<title>Node7&#45;&gt;Node8</title>
<g id="a_edge9_Node000007_Node000008"><a xlink:title=" ">
<path fill="none" stroke="#63b8ff" d="M523.87,-134.98C554.23,-124.94 590.66,-112.88 619.31,-103.4"/>
<polygon fill="#63b8ff" stroke="#63b8ff" points="522.82,-131.64 514.43,-138.11 525.02,-138.29 522.82,-131.64"/>
</a>
</g>
</g>
<!-- Node9 -->
<g id="Node000009" class="node">
<title>Node9</title>
<g id="a_Node000009"><a xlink:href="ConstraintDependencyGraphPass_8cpp.html" target="_top" xlink:title="This file implements the &#45;llzk&#45;print&#45;constraint&#45;dependency&#45;graphs pass.">
<polygon fill="white" stroke="#666666" points="557.25,-103 371,-103 371,-69.5 557.25,-69.5 557.25,-103"/>
<text text-anchor="start" x="379" y="-89.5" font-family="Helvetica,sans-Serif" font-size="10.00">lib/Analysis/ConstraintDependency</text>
<text text-anchor="middle" x="464.12" y="-76.75" font-family="Helvetica,sans-Serif" font-size="10.00">GraphPass.cpp</text>
</a>
</g>
</g>
<!-- Node7&#45;&gt;Node9 -->
<g id="edge10_Node000007_Node000009" class="edge">
<title>Node7&#45;&gt;Node9</title>
<g id="a_edge10_Node000007_Node000009"><a xlink:title=" ">
<path fill="none" stroke="#63b8ff" d="M464.12,-127.31C464.12,-119.09 464.12,-110.34 464.12,-103.13"/>
<polygon fill="#63b8ff" stroke="#63b8ff" points="460.63,-127.24 464.13,-137.24 467.63,-127.24 460.63,-127.24"/>
</a>
</g>
</g>
<!-- Node7&#45;&gt;Node10 -->
<g id="edge11_Node000007_Node000010" class="edge">
<title>Node7&#45;&gt;Node10</title>
<g id="a_edge11_Node000007_Node000010"><a xlink:title=" ">
<path fill="none" stroke="#63b8ff" d="M559.53,-138.81C636.97,-125.87 743.71,-108.04 809.2,-97.09"/>
<polygon fill="#63b8ff" stroke="#63b8ff" points="559.1,-135.33 549.82,-140.43 560.26,-142.24 559.1,-135.33"/>
</a>
</g>
</g>
<!-- Node7&#45;&gt;Node11 -->
<g id="edge12_Node000007_Node000011" class="edge">
<title>Node7&#45;&gt;Node11</title>
<g id="a_edge12_Node000007_Node000011"><a xlink:title=" ">
<path fill="none" stroke="#63b8ff" d="M414.46,-134.18C390.6,-124.3 362.42,-112.63 340.13,-103.4"/>
<polygon fill="#63b8ff" stroke="#63b8ff" points="413.11,-137.41 423.68,-138 415.78,-130.94 413.11,-137.41"/>
</a>
</g>
</g>
<!-- Node12&#45;&gt;Node7 -->
<g id="edge14_Node000012_Node000007" class="edge">
<title>Node12&#45;&gt;Node7</title>
<g id="a_edge14_Node000012_Node000007"><a xlink:title=" ">
<path fill="none" stroke="#63b8ff" d="M487.48,-198.24C482.62,-189.61 477.36,-180.26 473.07,-172.63"/>
<polygon fill="#63b8ff" stroke="#63b8ff" points="484.42,-199.94 492.38,-206.93 490.52,-196.5 484.42,-199.94"/>
</a>
</g>
</g>
<!-- Node12&#45;&gt;Node8 -->
<g id="edge15_Node000012_Node000008" class="edge">
<title>Node12&#45;&gt;Node8</title>
<g id="a_edge15_Node000012_Node000008"><a xlink:title=" ">
<path fill="none" stroke="#63b8ff" d="M530.37,-200.94C564.03,-173.16 619.39,-127.47 648.62,-103.34"/>
<polygon fill="#63b8ff" stroke="#63b8ff" points="528.14,-198.24 522.66,-207.3 532.6,-203.64 528.14,-198.24"/>
</a>
</g>
</g>
<!-- Node12&#45;&gt;Node10 -->
<g id="edge16_Node000012_Node000010" class="edge">
<title>Node12&#45;&gt;Node10</title>
<g id="a_edge16_Node000012_Node000010"><a xlink:title=" ">
<path fill="none" stroke="#63b8ff" d="M555.51,-204.27C635.32,-174.39 782.69,-119.23 842.2,-96.96"/>
<polygon fill="#63b8ff" stroke="#63b8ff" points="554.74,-200.82 546.6,-207.6 557.2,-207.37 554.74,-200.82"/>
</a>
</g>
</g>
<!-- Node14&#45;&gt;Node13 -->
<g id="edge20_Node000014_Node000013" class="edge">
<title>Node14&#45;&gt;Node13</title>
<g id="a_edge20_Node000014_Node000013"><a xlink:title=" ">
<path fill="none" stroke="#63b8ff" d="M785.48,-273.84C750.16,-261.42 706.25,-245.98 678.2,-236.12"/>
<polygon fill="#63b8ff" stroke="#63b8ff" points="784.11,-277.07 794.71,-277.08 786.44,-270.46 784.11,-277.07"/>
</a>
</g>
</g>
<!-- Node15 -->
<g id="Node000015" class="node">
<title>Node15</title>
<g id="a_Node000015"><a xlink:href="LLZKLoweringUtils_8cpp.html" target="_top" xlink:title=" ">
<polygon fill="white" stroke="#666666" points="1130.25,-242 974,-242 974,-208.5 1130.25,-208.5 1130.25,-242"/>
<text text-anchor="start" x="982" y="-228.5" font-family="Helvetica,sans-Serif" font-size="10.00">lib/Transforms/LLZKLowering</text>
<text text-anchor="middle" x="1052.12" y="-215.75" font-family="Helvetica,sans-Serif" font-size="10.00">Utils.cpp</text>
</a>
</g>
</g>
<!-- Node14&#45;&gt;Node15 -->
<g id="edge21_Node000014_Node000015" class="edge">
<title>Node14&#45;&gt;Node15</title>
<g id="a_edge21_Node000014_Node000015"><a xlink:title=" ">
<path fill="none" stroke="#63b8ff" d="M903.22,-274.11C934.55,-264.04 972.25,-251.92 1001.87,-242.4"/>
<polygon fill="#63b8ff" stroke="#63b8ff" points="902.32,-270.73 893.87,-277.12 904.46,-277.39 902.32,-270.73"/>
</a>
</g>
</g>
<!-- Node16 -->
<g id="Node000016" class="node">
<title>Node16</title>
<g id="a_Node000016"><a xlink:href="LLZKPolyLoweringPass_8cpp.html" target="_top" xlink:title="This file implements the &#45;llzk&#45;poly&#45;lowering pass.">
<polygon fill="white" stroke="#666666" points="955.75,-242 778.5,-242 778.5,-208.5 955.75,-208.5 955.75,-242"/>
<text text-anchor="start" x="786.5" y="-228.5" font-family="Helvetica,sans-Serif" font-size="10.00">lib/Transforms/LLZKPolyLowering</text>
<text text-anchor="middle" x="867.12" y="-215.75" font-family="Helvetica,sans-Serif" font-size="10.00">Pass.cpp</text>
</a>
</g>
</g>
<!-- Node14&#45;&gt;Node16 -->
<g id="edge22_Node000014_Node000016" class="edge">
<title>Node14&#45;&gt;Node16</title>
<g id="a_edge22_Node000014_Node000016"><a xlink:title=" ">
<path fill="none" stroke="#63b8ff" d="M851.97,-267.17C855.11,-258.7 858.48,-249.6 861.24,-242.13"/>
<polygon fill="#63b8ff" stroke="#63b8ff" points="848.77,-265.74 848.58,-276.33 855.33,-268.17 848.77,-265.74"/>
</a>
</g>
</g>
</g>
</svg>
