<?xml version="1.0" encoding="UTF-8" standalone="no"?>
<!DOCTYPE svg PUBLIC "-//W3C//DTD SVG 1.1//EN"
 "http://www.w3.org/Graphics/SVG/1.1/DTD/svg11.dtd">
<!-- Generated by graphviz version 12.2.1 (0)
 -->
<!-- Title: build/include/llzk/Dialect/Felt/IR/OpInterfaces.h.inc Pages: 1 -->
<svg width="2809pt" height="459pt"
 viewBox="0.00 0.00 2809.38 458.50" xmlns="http://www.w3.org/2000/svg" xmlns:xlink="http://www.w3.org/1999/xlink">
<g id="graph0" class="graph" transform="scale(1 1) rotate(0) translate(4 454.5)">
<title>build/include/llzk/Dialect/Felt/IR/OpInterfaces.h.inc</title>
<!-- Node1 -->
<g id="Node000001" class="node">
<title>Node1</title>
<g id="a_Node000001"><a xlink:title=" ">
<polygon fill="#999999" stroke="#666666" points="1451.5,-450.5 1272.75,-450.5 1272.75,-417 1451.5,-417 1451.5,-450.5"/>
<text text-anchor="start" x="1280.75" y="-437" font-family="Helvetica,sans-Serif" font-size="10.00">build/include/llzk</text>
<text text-anchor="middle" x="1362.12" y="-424.25" font-family="Helvetica,sans-Serif" font-size="10.00">/Dialect/Felt/IR/OpInterfaces.h.inc</text>
</a>
</g>
</g>
<!-- Node2 -->
<g id="Node000002" class="node">
<title>Node2</title>
<g id="a_Node000002"><a xlink:href="Felt_2IR_2Ops_8h.html" target="_top" xlink:title=" ">
<polygon fill="white" stroke="#666666" points="1416.62,-381 1307.62,-381 1307.62,-347.5 1416.62,-347.5 1416.62,-381"/>
<text text-anchor="start" x="1315.62" y="-367.5" font-family="Helvetica,sans-Serif" font-size="10.00">include/llzk/Dialect</text>
<text text-anchor="middle" x="1362.12" y="-354.75" font-family="Helvetica,sans-Serif" font-size="10.00">/Felt/IR/Ops.h</text>
</a>
</g>
</g>
<!-- Node1&#45;&gt;Node2 -->
<g id="edge1_Node000001_Node000002" class="edge">
<title>Node1&#45;&gt;Node2</title>
<g id="a_edge1_Node000001_Node000002"><a xlink:title=" ">
<path fill="none" stroke="#63b8ff" d="M1362.12,-405.31C1362.12,-397.09 1362.12,-388.34 1362.12,-381.13"/>
<polygon fill="#63b8ff" stroke="#63b8ff" points="1358.63,-405.24 1362.13,-415.24 1365.63,-405.24 1358.63,-405.24"/>
</a>
</g>
</g>
<!-- Node3 -->
<g id="Node000003" class="node">
<title>Node3</title>
<g id="a_Node000003"><a xlink:href="IntervalAnalysis_8h.html" target="_top" xlink:title=" ">
<polygon fill="white" stroke="#666666" points="231,-103 115.25,-103 115.25,-69.5 231,-69.5 231,-103"/>
<text text-anchor="start" x="123.25" y="-89.5" font-family="Helvetica,sans-Serif" font-size="10.00">include/llzk/Analysis</text>
<text text-anchor="middle" x="173.12" y="-76.75" font-family="Helvetica,sans-Serif" font-size="10.00">/IntervalAnalysis.h</text>
</a>
</g>
</g>
<!-- Node2&#45;&gt;Node3 -->
<g id="edge2_Node000002_Node000003" class="edge">
<title>Node2&#45;&gt;Node3</title>
<g id="a_edge2_Node000002_Node000003"><a xlink:title=" ">
<path fill="none" stroke="#63b8ff" d="M1295.8,-362C1096.9,-357.9 514.32,-343.3 435.12,-311.5 319.84,-265.21 219.31,-146.63 185.36,-103.36"/>
<polygon fill="#63b8ff" stroke="#63b8ff" points="1295.64,-365.5 1305.7,-362.2 1295.78,-358.5 1295.64,-365.5"/>
</a>
</g>
</g>
<!-- Node6 -->
<g id="Node000006" class="node">
<title>Node6</title>
<g id="a_Node000006"><a xlink:href="Matchers_8h.html" target="_top" xlink:title=" ">
<polygon fill="white" stroke="#666666" points="190,-172.5 74.25,-172.5 74.25,-139 190,-139 190,-172.5"/>
<text text-anchor="start" x="82.25" y="-159" font-family="Helvetica,sans-Serif" font-size="10.00">include/llzk/Analysis</text>
<text text-anchor="middle" x="132.12" y="-146.25" font-family="Helvetica,sans-Serif" font-size="10.00">/Matchers.h</text>
</a>
</g>
</g>
<!-- Node2&#45;&gt;Node6 -->
<g id="edge5_Node000002_Node000006" class="edge">
<title>Node2&#45;&gt;Node6</title>
<g id="a_edge5_Node000002_Node000006"><a xlink:title=" ">
<path fill="none" stroke="#63b8ff" d="M1295.94,-362.18C1056.87,-358.07 249.68,-342 204.12,-311.5 155.86,-279.19 139.3,-205.64 134.18,-172.94"/>
<polygon fill="#63b8ff" stroke="#63b8ff" points="1295.65,-365.68 1305.71,-362.35 1295.77,-358.68 1295.65,-365.68"/>
</a>
</g>
</g>
<!-- Node7 -->
<g id="Node000007" class="node">
<title>Node7</title>
<g id="a_Node000007"><a xlink:href="SourceRef_8h.html" target="_top" xlink:title=" ">
<polygon fill="white" stroke="#666666" points="560,-311.5 444.25,-311.5 444.25,-278 560,-278 560,-311.5"/>
<text text-anchor="start" x="452.25" y="-298" font-family="Helvetica,sans-Serif" font-size="10.00">include/llzk/Analysis</text>
<text text-anchor="middle" x="502.12" y="-285.25" font-family="Helvetica,sans-Serif" font-size="10.00">/SourceRef.h</text>
</a>
</g>
</g>
<!-- Node2&#45;&gt;Node7 -->
<g id="edge7_Node000002_Node000007" class="edge">
<title>Node2&#45;&gt;Node7</title>
<g id="a_edge7_Node000002_Node000007"><a xlink:title=" ">
<path fill="none" stroke="#63b8ff" d="M1296.08,-358.07C1133.29,-345.29 714.88,-312.45 560.49,-300.33"/>
<polygon fill="#63b8ff" stroke="#63b8ff" points="1295.6,-361.54 1305.84,-358.83 1296.14,-354.56 1295.6,-361.54"/>
</a>
</g>
</g>
<!-- Node11 -->
<g id="Node000011" class="node">
<title>Node11</title>
<g id="a_Node000011"><a xlink:href="SourceRefLattice_8cpp.html" target="_top" xlink:title=" ">
<polygon fill="white" stroke="#666666" points="957.12,-96.62 779.12,-96.62 779.12,-75.88 957.12,-75.88 957.12,-96.62"/>
<text text-anchor="middle" x="868.12" y="-83.12" font-family="Helvetica,sans-Serif" font-size="10.00">lib/Analysis/SourceRefLattice.cpp</text>
</a>
</g>
</g>
<!-- Node2&#45;&gt;Node11 -->
<g id="edge24_Node000002_Node000011" class="edge">
<title>Node2&#45;&gt;Node11</title>
<g id="a_edge24_Node000002_Node000011"><a xlink:title=" ">
<path fill="none" stroke="#63b8ff" d="M1296.12,-362.4C1148.98,-359.83 804.17,-349.74 769.12,-311.5 707.01,-243.73 820.19,-130.68 857.08,-97"/>
<polygon fill="#63b8ff" stroke="#63b8ff" points="1295.64,-365.89 1305.7,-362.56 1295.76,-358.9 1295.64,-365.89"/>
</a>
</g>
</g>
<!-- Node15 -->
<g id="Node000015" class="node">
<title>Node15</title>
<g id="a_Node000015"><a xlink:href="LLZKLoweringUtils_8h.html" target="_top" xlink:title=" ">
<polygon fill="white" stroke="#666666" points="906.38,-311.5 777.88,-311.5 777.88,-278 906.38,-278 906.38,-311.5"/>
<text text-anchor="start" x="785.88" y="-298" font-family="Helvetica,sans-Serif" font-size="10.00">include/llzk/Transforms</text>
<text text-anchor="middle" x="842.12" y="-285.25" font-family="Helvetica,sans-Serif" font-size="10.00">/LLZKLoweringUtils.h</text>
</a>
</g>
</g>
<!-- Node2&#45;&gt;Node15 -->
<g id="edge20_Node000002_Node000015" class="edge">
<title>Node2&#45;&gt;Node15</title>
<g id="a_edge20_Node000002_Node000015"><a xlink:title=" ">
<path fill="none" stroke="#63b8ff" d="M1295.83,-357.61C1208.31,-349.69 1049.56,-333.73 915.12,-311.5 912.31,-311.03 909.44,-310.53 906.55,-310"/>
<polygon fill="#63b8ff" stroke="#63b8ff" points="1295.4,-361.08 1305.67,-358.49 1296.02,-354.11 1295.4,-361.08"/>
</a>
</g>
</g>
<!-- Node18 -->
<g id="Node000018" class="node">
<title>Node18</title>
<g id="a_Node000018"><a xlink:href="Felt_8cpp.html" target="_top" xlink:title=" ">
<polygon fill="white" stroke="#666666" points="1056.25,-305.12 924,-305.12 924,-284.38 1056.25,-284.38 1056.25,-305.12"/>
<text text-anchor="middle" x="990.12" y="-291.62" font-family="Helvetica,sans-Serif" font-size="10.00">lib/CAPI/Dialect/Felt.cpp</text>
</a>
</g>
</g>
<!-- Node2&#45;&gt;Node18 -->
<g id="edge25_Node000002_Node000018" class="edge">
<title>Node2&#45;&gt;Node18</title>
<g id="a_edge25_Node000002_Node000018"><a xlink:title=" ">
<path fill="none" stroke="#63b8ff" d="M1295.99,-352.3C1235.93,-342.2 1144.95,-326.56 1066.12,-311.5 1056.46,-309.65 1046.13,-307.58 1036.3,-305.56"/>
<polygon fill="#63b8ff" stroke="#63b8ff" points="1295.27,-355.72 1305.71,-353.93 1296.43,-348.82 1295.27,-355.72"/>
</a>
</g>
</g>
<!-- Node19 -->
<g id="Node000019" class="node">
<title>Node19</title>
<g id="a_Node000019"><a xlink:href="Cast_2IR_2Ops_8cpp.html" target="_top" xlink:title=" ">
<polygon fill="white" stroke="#666666" points="1177.62,-311.5 1074.62,-311.5 1074.62,-278 1177.62,-278 1177.62,-311.5"/>
<text text-anchor="start" x="1082.62" y="-298" font-family="Helvetica,sans-Serif" font-size="10.00">lib/Dialect/Cast/IR</text>
<text text-anchor="middle" x="1126.12" y="-285.25" font-family="Helvetica,sans-Serif" font-size="10.00">/Ops.cpp</text>
</a>
</g>
</g>
<!-- Node2&#45;&gt;Node19 -->
<g id="edge26_Node000002_Node000019" class="edge">
<title>Node2&#45;&gt;Node19</title>
<g id="a_edge26_Node000002_Node000019"><a xlink:title=" ">
<path fill="none" stroke="#63b8ff" d="M1296.56,-344.5C1259.04,-333.77 1212.64,-320.49 1177.73,-310.51"/>
<polygon fill="#63b8ff" stroke="#63b8ff" points="1295.36,-347.79 1305.93,-347.18 1297.28,-341.06 1295.36,-347.79"/>
</a>
</g>
</g>
<!-- Node20 -->
<g id="Node000020" class="node">
<title>Node20</title>
<g id="a_Node000020"><a xlink:href="Felt_2IR_2Dialect_8cpp.html" target="_top" xlink:title=" ">
<polygon fill="white" stroke="#666666" points="1294.75,-311.5 1195.5,-311.5 1195.5,-278 1294.75,-278 1294.75,-311.5"/>
<text text-anchor="start" x="1203.5" y="-298" font-family="Helvetica,sans-Serif" font-size="10.00">lib/Dialect/Felt/IR</text>
<text text-anchor="middle" x="1245.12" y="-285.25" font-family="Helvetica,sans-Serif" font-size="10.00">/Dialect.cpp</text>
</a>
</g>
</g>
<!-- Node2&#45;&gt;Node20 -->
<g id="edge27_Node000002_Node000020" class="edge">
<title>Node2&#45;&gt;Node20</title>
<g id="a_edge27_Node000002_Node000020"><a xlink:title=" ">
<path fill="none" stroke="#63b8ff" d="M1324.58,-341.59C1307.8,-331.91 1288.37,-320.7 1272.92,-311.79"/>
<polygon fill="#63b8ff" stroke="#63b8ff" points="1322.38,-344.36 1332.79,-346.33 1325.88,-338.3 1322.38,-344.36"/>
</a>
</g>
</g>
<!-- Node21 -->
<g id="Node000021" class="node">
<title>Node21</title>
<g id="a_Node000021"><a xlink:href="Felt_2IR_2Ops_8cpp.html" target="_top" xlink:title=" ">
<polygon fill="white" stroke="#666666" points="1411.75,-311.5 1312.5,-311.5 1312.5,-278 1411.75,-278 1411.75,-311.5"/>
<text text-anchor="start" x="1320.5" y="-298" font-family="Helvetica,sans-Serif" font-size="10.00">lib/Dialect/Felt/IR</text>
<text text-anchor="middle" x="1362.12" y="-285.25" font-family="Helvetica,sans-Serif" font-size="10.00">/Ops.cpp</text>
</a>
</g>
</g>
<!-- Node2&#45;&gt;Node21 -->
<g id="edge28_Node000002_Node000021" class="edge">
<title>Node2&#45;&gt;Node21</title>
<g id="a_edge28_Node000002_Node000021"><a xlink:title=" ">
<path fill="none" stroke="#63b8ff" d="M1362.12,-335.81C1362.12,-327.59 1362.12,-318.84 1362.12,-311.63"/>
<polygon fill="#63b8ff" stroke="#63b8ff" points="1358.63,-335.74 1362.13,-345.74 1365.63,-335.74 1358.63,-335.74"/>
</a>
</g>
</g>
<!-- Node22 -->
<g id="Node000022" class="node">
<title>Node22</title>
<g id="a_Node000022"><a xlink:href="Global_2IR_2Ops_8cpp.html" target="_top" xlink:title=" ">
<polygon fill="white" stroke="#666666" points="1530.12,-311.5 1430.12,-311.5 1430.12,-278 1530.12,-278 1530.12,-311.5"/>
<text text-anchor="start" x="1438.12" y="-298" font-family="Helvetica,sans-Serif" font-size="10.00">lib/Dialect/Global</text>
<text text-anchor="middle" x="1480.12" y="-285.25" font-family="Helvetica,sans-Serif" font-size="10.00">/IR/Ops.cpp</text>
</a>
</g>
</g>
<!-- Node2&#45;&gt;Node22 -->
<g id="edge29_Node000002_Node000022" class="edge">
<title>Node2&#45;&gt;Node22</title>
<g id="a_edge29_Node000002_Node000022"><a xlink:title=" ">
<path fill="none" stroke="#63b8ff" d="M1399.99,-341.59C1416.92,-331.91 1436.51,-320.7 1452.09,-311.79"/>
<polygon fill="#63b8ff" stroke="#63b8ff" points="1398.65,-338.33 1391.7,-346.33 1402.12,-344.4 1398.65,-338.33"/>
</a>
</g>
</g>
<!-- Node23 -->
<g id="Node000023" class="node">
<title>Node23</title>
<g id="a_Node000023"><a xlink:href="FlatteningPass_8cpp.html" target="_top" xlink:title="This file implements the &#45;llzk&#45;flatten pass.">
<polygon fill="white" stroke="#666666" points="1715.88,-311.5 1548.38,-311.5 1548.38,-278 1715.88,-278 1715.88,-311.5"/>
<text text-anchor="start" x="1556.38" y="-298" font-family="Helvetica,sans-Serif" font-size="10.00">lib/Dialect/Polymorphic</text>
<text text-anchor="middle" x="1632.12" y="-285.25" font-family="Helvetica,sans-Serif" font-size="10.00">/Transforms/FlatteningPass.cpp</text>
</a>
</g>
</g>
<!-- Node2&#45;&gt;Node23 -->
<g id="edge30_Node000002_Node000023" class="edge">
<title>Node2&#45;&gt;Node23</title>
<g id="a_edge30_Node000002_Node000023"><a xlink:title=" ">
<path fill="none" stroke="#63b8ff" d="M1428.12,-346.75C1470.45,-336.17 1525.15,-322.49 1567.25,-311.97"/>
<polygon fill="#63b8ff" stroke="#63b8ff" points="1427.41,-343.32 1418.56,-349.14 1429.11,-350.11 1427.41,-343.32"/>
</a>
</g>
</g>
<!-- Node24 -->
<g id="Node000024" class="node">
<title>Node24</title>
<g id="a_Node000024"><a xlink:href="InlineStructsPass_8cpp.html" target="_top" xlink:title="This file implements the &#45;llzk&#45;inline&#45;structs pass.">
<polygon fill="white" stroke="#666666" points="1912.5,-311.5 1733.75,-311.5 1733.75,-278 1912.5,-278 1912.5,-311.5"/>
<text text-anchor="start" x="1741.75" y="-298" font-family="Helvetica,sans-Serif" font-size="10.00">lib/Dialect/Struct</text>
<text text-anchor="middle" x="1823.12" y="-285.25" font-family="Helvetica,sans-Serif" font-size="10.00">/Transforms/InlineStructsPass.cpp</text>
</a>
</g>
</g>
<!-- Node2&#45;&gt;Node24 -->
<g id="edge31_Node000002_Node000024" class="edge">
<title>Node2&#45;&gt;Node24</title>
<g id="a_edge31_Node000002_Node000024"><a xlink:title=" ">
<path fill="none" stroke="#63b8ff" d="M1428.16,-354.19C1500.95,-344.13 1621.47,-327.22 1725.12,-311.5 1727.85,-311.09 1730.62,-310.66 1733.41,-310.23"/>
<polygon fill="#63b8ff" stroke="#63b8ff" points="1427.83,-350.71 1418.4,-355.54 1428.79,-357.64 1427.83,-350.71"/>
</a>
</g>
</g>
<!-- Node25 -->
<g id="Node000025" class="node">
<title>Node25</title>
<g id="a_Node000025"><a xlink:href="LLZKFuseProductLoopsPass_8cpp.html" target="_top" xlink:title="This file implements the &#45;llzk&#45;fuse&#45;product&#45;loops pass.">
<polygon fill="white" stroke="#666666" points="2101.75,-311.5 1930.5,-311.5 1930.5,-278 2101.75,-278 2101.75,-311.5"/>
<text text-anchor="start" x="1938.5" y="-298" font-family="Helvetica,sans-Serif" font-size="10.00">lib/Transforms/LLZKFuseProduct</text>
<text text-anchor="middle" x="2016.12" y="-285.25" font-family="Helvetica,sans-Serif" font-size="10.00">LoopsPass.cpp</text>
</a>
</g>
</g>
<!-- Node2&#45;&gt;Node25 -->
<g id="edge32_Node000002_Node000025" class="edge">
<title>Node2&#45;&gt;Node25</title>
<g id="a_edge32_Node000002_Node000025"><a xlink:title=" ">
<path fill="none" stroke="#63b8ff" d="M1428.35,-358.67C1533.18,-351.07 1743.64,-334.4 1921.12,-311.5 1924.11,-311.11 1927.14,-310.71 1930.21,-310.28"/>
<polygon fill="#63b8ff" stroke="#63b8ff" points="1428.25,-355.17 1418.53,-359.38 1428.75,-362.15 1428.25,-355.17"/>
</a>
</g>
</g>
<!-- Node26 -->
<g id="Node000026" class="node">
<title>Node26</title>
<g id="a_Node000026"><a xlink:href="LLZKRedundantReadAndWriteEliminationPass_8cpp.html" target="_top" xlink:title="This file implements the &#45;llzk&#45;duplicate&#45;read&#45;write&#45;elim pass.">
<polygon fill="white" stroke="#666666" points="2302.75,-311.5 2119.5,-311.5 2119.5,-278 2302.75,-278 2302.75,-311.5"/>
<text text-anchor="start" x="2127.5" y="-298" font-family="Helvetica,sans-Serif" font-size="10.00">lib/Transforms/LLZKRedundant</text>
<text text-anchor="middle" x="2211.12" y="-285.25" font-family="Helvetica,sans-Serif" font-size="10.00">ReadAndWriteEliminationPass.cpp</text>
</a>
</g>
</g>
<!-- Node2&#45;&gt;Node26 -->
<g id="edge33_Node000002_Node000026" class="edge">
<title>Node2&#45;&gt;Node26</title>
<g id="a_edge33_Node000002_Node000026"><a xlink:title=" ">
<path fill="none" stroke="#63b8ff" d="M1428.14,-360.63C1558.85,-355 1859.68,-339.93 2111.12,-311.5 2113.74,-311.2 2116.4,-310.89 2119.08,-310.56"/>
<polygon fill="#63b8ff" stroke="#63b8ff" points="1428.14,-357.12 1418.29,-361.05 1428.43,-364.12 1428.14,-357.12"/>
</a>
</g>
</g>
<!-- Node27 -->
<g id="Node000027" class="node">
<title>Node27</title>
<g id="a_Node000027"><a xlink:href="LLZKWhileToForPass_8cpp.html" target="_top" xlink:title="This file identifies scf.while loops that can be converted to scf.for loops and performs the conversi...">
<polygon fill="white" stroke="#666666" points="2459.62,-311.5 2320.62,-311.5 2320.62,-278 2459.62,-278 2459.62,-311.5"/>
<text text-anchor="start" x="2328.62" y="-298" font-family="Helvetica,sans-Serif" font-size="10.00">lib/Transforms/LLZKWhile</text>
<text text-anchor="middle" x="2390.12" y="-285.25" font-family="Helvetica,sans-Serif" font-size="10.00">ToForPass.cpp</text>
</a>
</g>
</g>
<!-- Node2&#45;&gt;Node27 -->
<g id="edge34_Node000002_Node000027" class="edge">
<title>Node2&#45;&gt;Node27</title>
<g id="a_edge34_Node000002_Node000027"><a xlink:title=" ">
<path fill="none" stroke="#63b8ff" d="M1428.17,-362.94C1583.15,-361.48 1982.04,-353.59 2312.12,-311.5 2314.87,-311.15 2317.65,-310.76 2320.47,-310.34"/>
<polygon fill="#63b8ff" stroke="#63b8ff" points="1428.48,-359.43 1418.51,-363.02 1428.54,-366.43 1428.48,-359.43"/>
</a>
</g>
</g>
<!-- Node28 -->
<g id="Node000028" class="node">
<title>Node28</title>
<g id="a_Node000028"><a xlink:href="Interpreter_8cpp.html" target="_top" xlink:title=" ">
<polygon fill="white" stroke="#666666" points="2648.75,-305.12 2477.5,-305.12 2477.5,-284.38 2648.75,-284.38 2648.75,-305.12"/>
<text text-anchor="middle" x="2563.12" y="-291.62" font-family="Helvetica,sans-Serif" font-size="10.00">tools/llzk&#45;witgen/Interpreter.cpp</text>
</a>
</g>
</g>
<!-- Node2&#45;&gt;Node28 -->
<g id="edge35_Node000002_Node000028" class="edge">
<title>Node2&#45;&gt;Node28</title>
<g id="a_edge35_Node000002_Node000028"><a xlink:title=" ">
<path fill="none" stroke="#63b8ff" d="M1428.4,-362.9C1600.56,-361.41 2075.93,-353.48 2469.12,-311.5 2482.78,-310.04 2497.46,-307.87 2511.07,-305.61"/>
<polygon fill="#63b8ff" stroke="#63b8ff" points="1428.5,-359.4 1418.53,-362.98 1428.56,-366.4 1428.5,-359.4"/>
</a>
</g>
</g>
<!-- Node29 -->
<g id="Node000029" class="node">
<title>Node29</title>
<g id="a_Node000029"><a xlink:href="WitgenLowering_8cpp.html" target="_top" xlink:title=" ">
<polygon fill="white" stroke="#666666" points="2801.38,-311.5 2666.88,-311.5 2666.88,-278 2801.38,-278 2801.38,-311.5"/>
<text text-anchor="start" x="2674.88" y="-298" font-family="Helvetica,sans-Serif" font-size="10.00">tools/llzk&#45;witgen/Witgen</text>
<text text-anchor="middle" x="2734.12" y="-285.25" font-family="Helvetica,sans-Serif" font-size="10.00">Lowering.cpp</text>
</a>
</g>
</g>
<!-- Node2&#45;&gt;Node29 -->
<g id="edge36_Node000002_Node000029" class="edge">
<title>Node2&#45;&gt;Node29</title>
<g id="a_edge36_Node000002_Node000029"><a xlink:title=" ">
<path fill="none" stroke="#63b8ff" d="M1428.32,-362.05C1657.51,-357.66 2416.34,-341.18 2658.12,-311.5 2660.93,-311.16 2663.79,-310.76 2666.68,-310.33"/>
<polygon fill="#63b8ff" stroke="#63b8ff" points="1428.3,-358.55 1418.37,-362.24 1428.43,-365.55 1428.3,-358.55"/>
</a>
</g>
</g>
<!-- Node4 -->
<g id="Node000004" class="node">
<title>Node4</title>
<g id="a_Node000004"><a xlink:href="IntervalAnalysis_8cpp.html" target="_top" xlink:title=" ">
<polygon fill="white" stroke="#666666" points="174.25,-27.12 0,-27.12 0,-6.38 174.25,-6.38 174.25,-27.12"/>
<text text-anchor="middle" x="87.12" y="-13.62" font-family="Helvetica,sans-Serif" font-size="10.00">lib/Analysis/IntervalAnalysis.cpp</text>
</a>
</g>
</g>
<!-- Node3&#45;&gt;Node4 -->
<g id="edge3_Node000003_Node000004" class="edge">
<title>Node3&#45;&gt;Node4</title>
<g id="a_edge3_Node000003_Node000004"><a xlink:title=" ">
<path fill="none" stroke="#63b8ff" d="M143.77,-62.21C128.71,-50.39 111.17,-36.62 99.64,-27.57"/>
<polygon fill="#63b8ff" stroke="#63b8ff" points="141.53,-64.9 151.55,-68.32 145.85,-59.39 141.53,-64.9"/>
</a>
</g>
</g>
<!-- Node5 -->
<g id="Node000005" class="node">
<title>Node5</title>
<g id="a_Node000005"><a xlink:href="IntervalAnalysisPass_8cpp.html" target="_top" xlink:title="This file implements the &#45;llzk&#45;print&#45;interval&#45;analysis pass.">
<polygon fill="white" stroke="#666666" points="346.12,-33.5 192.12,-33.5 192.12,0 346.12,0 346.12,-33.5"/>
<text text-anchor="start" x="200.12" y="-20" font-family="Helvetica,sans-Serif" font-size="10.00">lib/Analysis/IntervalAnalysis</text>
<text text-anchor="middle" x="269.12" y="-7.25" font-family="Helvetica,sans-Serif" font-size="10.00">Pass.cpp</text>
</a>
</g>
</g>
<!-- Node3&#45;&gt;Node5 -->
<g id="edge4_Node000003_Node000005" class="edge">
<title>Node3&#45;&gt;Node5</title>
<g id="a_edge4_Node000003_Node000005"><a xlink:title=" ">
<path fill="none" stroke="#63b8ff" d="M205.25,-62.66C218.67,-53.23 233.95,-42.48 246.2,-33.87"/>
<polygon fill="#63b8ff" stroke="#63b8ff" points="203.28,-59.77 197.11,-68.38 207.31,-65.49 203.28,-59.77"/>
</a>
</g>
</g>
<!-- Node6&#45;&gt;Node4 -->
<g id="edge6_Node000006_Node000004" class="edge">
<title>Node6&#45;&gt;Node4</title>
<g id="a_edge6_Node000006_Node000004"><a xlink:title=" ">
<path fill="none" stroke="#63b8ff" d="M117.58,-128.92C113.44,-120.8 109.22,-111.69 106.12,-103 96.65,-76.43 90.92,-43.47 88.49,-27.43"/>
<polygon fill="#63b8ff" stroke="#63b8ff" points="114.38,-130.36 122.16,-137.55 120.57,-127.08 114.38,-130.36"/>
</a>
</g>
</g>
<!-- Node8 -->
<g id="Node000008" class="node">
<title>Node8</title>
<g id="a_Node000008"><a xlink:href="ConstraintDependencyGraph_8h.html" target="_top" xlink:title=" ">
<polygon fill="white" stroke="#666666" points="548.25,-172.5 380,-172.5 380,-139 548.25,-139 548.25,-172.5"/>
<text text-anchor="start" x="388" y="-159" font-family="Helvetica,sans-Serif" font-size="10.00">include/llzk/Analysis</text>
<text text-anchor="middle" x="464.12" y="-146.25" font-family="Helvetica,sans-Serif" font-size="10.00">/ConstraintDependencyGraph.h</text>
</a>
</g>
</g>
<!-- Node7&#45;&gt;Node8 -->
<g id="edge8_Node000007_Node000008" class="edge">
<title>Node7&#45;&gt;Node8</title>
<g id="a_edge8_Node000007_Node000008"><a xlink:title=" ">
<path fill="none" stroke="#63b8ff" d="M460.55,-270.95C450.37,-263.19 440.78,-253.51 435.12,-242 423.82,-218.99 438.9,-190.47 451.2,-172.95"/>
<polygon fill="#63b8ff" stroke="#63b8ff" points="458.53,-273.81 468.73,-276.66 462.53,-268.07 458.53,-273.81"/>
</a>
</g>
</g>
<!-- Node12 -->
<g id="Node000012" class="node">
<title>Node12</title>
<g id="a_Node000012"><a xlink:href="Verif_2IR_2Ops_8cpp.html" target="_top" xlink:title=" ">
<polygon fill="white" stroke="#666666" points="353,-103 249.25,-103 249.25,-69.5 353,-69.5 353,-103"/>
<text text-anchor="start" x="257.25" y="-89.5" font-family="Helvetica,sans-Serif" font-size="10.00">lib/Dialect/Verif/IR</text>
<text text-anchor="middle" x="301.12" y="-76.75" font-family="Helvetica,sans-Serif" font-size="10.00">/Ops.cpp</text>
</a>
</g>
</g>
<!-- Node7&#45;&gt;Node12 -->
<g id="edge19_Node000007_Node000012" class="edge">
<title>Node7&#45;&gt;Node12</title>
<g id="a_edge19_Node000007_Node000012"><a xlink:title=" ">
<path fill="none" stroke="#63b8ff" d="M465.31,-271.38C452.62,-262.9 438.7,-252.69 427.12,-242 378.51,-197.1 332.3,-133.06 311.97,-103.43"/>
<polygon fill="#63b8ff" stroke="#63b8ff" points="463.16,-274.15 473.45,-276.68 466.98,-268.29 463.16,-274.15"/>
</a>
</g>
</g>
<!-- Node13 -->
<g id="Node000013" class="node">
<title>Node13</title>
<g id="a_Node000013"><a xlink:href="SourceRefLattice_8h.html" target="_top" xlink:title=" ">
<polygon fill="white" stroke="#666666" points="560,-242 444.25,-242 444.25,-208.5 560,-208.5 560,-242"/>
<text text-anchor="start" x="452.25" y="-228.5" font-family="Helvetica,sans-Serif" font-size="10.00">include/llzk/Analysis</text>
<text text-anchor="middle" x="502.12" y="-215.75" font-family="Helvetica,sans-Serif" font-size="10.00">/SourceRefLattice.h</text>
</a>
</g>
</g>
<!-- Node7&#45;&gt;Node13 -->
<g id="edge14_Node000007_Node000013" class="edge">
<title>Node7&#45;&gt;Node13</title>
<g id="a_edge14_Node000007_Node000013"><a xlink:title=" ">
<path fill="none" stroke="#63b8ff" d="M502.12,-266.31C502.12,-258.09 502.12,-249.34 502.12,-242.13"/>
<polygon fill="#63b8ff" stroke="#63b8ff" points="498.63,-266.24 502.13,-276.24 505.63,-266.24 498.63,-266.24"/>
</a>
</g>
</g>
<!-- Node14 -->
<g id="Node000014" class="node">
<title>Node14</title>
<g id="a_Node000014"><a xlink:href="SourceRef_8cpp.html" target="_top" xlink:title=" ">
<polygon fill="white" stroke="#666666" points="722.25,-235.62 578,-235.62 578,-214.88 722.25,-214.88 722.25,-235.62"/>
<text text-anchor="middle" x="650.12" y="-222.12" font-family="Helvetica,sans-Serif" font-size="10.00">lib/Analysis/SourceRef.cpp</text>
</a>
</g>
</g>
<!-- Node7&#45;&gt;Node14 -->
<g id="edge18_Node000007_Node000014" class="edge">
<title>Node7&#45;&gt;Node14</title>
<g id="a_edge18_Node000007_Node000014"><a xlink:title=" ">
<path fill="none" stroke="#63b8ff" d="M547.95,-272.85C574.88,-260.57 607.66,-245.62 628.7,-236.02"/>
<polygon fill="#63b8ff" stroke="#63b8ff" points="546.6,-269.62 538.95,-276.95 549.5,-275.99 546.6,-269.62"/>
</a>
</g>
</g>
<!-- Node8&#45;&gt;Node3 -->
<g id="edge9_Node000008_Node000003" class="edge">
<title>Node8&#45;&gt;Node3</title>
<g id="a_edge9_Node000008_Node000003"><a xlink:title=" ">
<path fill="none" stroke="#63b8ff" d="M382.37,-135.94C339.92,-126.16 287.23,-113.98 240.12,-103 237.22,-102.32 234.24,-101.63 231.23,-100.92"/>
<polygon fill="#63b8ff" stroke="#63b8ff" points="381.48,-139.33 392.01,-138.16 383.06,-132.51 381.48,-139.33"/>
</a>
</g>
</g>
<!-- Node9 -->
<g id="Node000009" class="node">
<title>Node9</title>
<g id="a_Node000009"><a xlink:href="ConstraintDependencyGraph_8cpp.html" target="_top" xlink:title=" ">
<polygon fill="white" stroke="#666666" points="761.25,-103 575,-103 575,-69.5 761.25,-69.5 761.25,-103"/>
<text text-anchor="start" x="583" y="-89.5" font-family="Helvetica,sans-Serif" font-size="10.00">lib/Analysis/ConstraintDependency</text>
<text text-anchor="middle" x="668.12" y="-76.75" font-family="Helvetica,sans-Serif" font-size="10.00">Graph.cpp</text>
</a>
</g>
</g>
<!-- Node8&#45;&gt;Node9 -->
<g id="edge10_Node000008_Node000009" class="edge">
<title>Node8&#45;&gt;Node9</title>
<g id="a_edge10_Node000008_Node000009"><a xlink:title=" ">
<path fill="none" stroke="#63b8ff" d="M523.87,-134.98C554.23,-124.94 590.66,-112.88 619.31,-103.4"/>
<polygon fill="#63b8ff" stroke="#63b8ff" points="522.82,-131.64 514.43,-138.11 525.02,-138.29 522.82,-131.64"/>
</a>
</g>
</g>
<!-- Node10 -->
<g id="Node000010" class="node">
<title>Node10</title>
<g id="a_Node000010"><a xlink:href="ConstraintDependencyGraphPass_8cpp.html" target="_top" xlink:title="This file implements the &#45;llzk&#45;print&#45;constraint&#45;dependency&#45;graphs pass.">
<polygon fill="white" stroke="#666666" points="557.25,-103 371,-103 371,-69.5 557.25,-69.5 557.25,-103"/>
<text text-anchor="start" x="379" y="-89.5" font-family="Helvetica,sans-Serif" font-size="10.00">lib/Analysis/ConstraintDependency</text>
<text text-anchor="middle" x="464.12" y="-76.75" font-family="Helvetica,sans-Serif" font-size="10.00">GraphPass.cpp</text>
</a>
</g>
</g>
<!-- Node8&#45;&gt;Node10 -->
<g id="edge11_Node000008_Node000010" class="edge">
<title>Node8&#45;&gt;Node10</title>
<g id="a_edge11_Node000008_Node000010"><a xlink:title=" ">
<path fill="none" stroke="#63b8ff" d="M464.12,-127.31C464.12,-119.09 464.12,-110.34 464.12,-103.13"/>
<polygon fill="#63b8ff" stroke="#63b8ff" points="460.63,-127.24 464.13,-137.24 467.63,-127.24 460.63,-127.24"/>
</a>
</g>
</g>
<!-- Node8&#45;&gt;Node11 -->
<g id="edge12_Node000008_Node000011" class="edge">
<title>Node8&#45;&gt;Node11</title>
<g id="a_edge12_Node000008_Node000011"><a xlink:title=" ">
<path fill="none" stroke="#63b8ff" d="M559.53,-138.81C636.97,-125.87 743.71,-108.04 809.2,-97.09"/>
<polygon fill="#63b8ff" stroke="#63b8ff" points="559.1,-135.33 549.82,-140.43 560.26,-142.24 559.1,-135.33"/>
</a>
</g>
</g>
<!-- Node8&#45;&gt;Node12 -->
<g id="edge13_Node000008_Node000012" class="edge">
<title>Node8&#45;&gt;Node12</title>
<g id="a_edge13_Node000008_Node000012"><a xlink:title=" ">
<path fill="none" stroke="#63b8ff" d="M414.46,-134.18C390.6,-124.3 362.42,-112.63 340.13,-103.4"/>
<polygon fill="#63b8ff" stroke="#63b8ff" points="413.11,-137.41 423.68,-138 415.78,-130.94 413.11,-137.41"/>
</a>
</g>
</g>
<!-- Node13&#45;&gt;Node8 -->
<g id="edge15_Node000013_Node000008" class="edge">
<title>Node13&#45;&gt;Node8</title>
<g id="a_edge15_Node000013_Node000008"><a xlink:title=" ">
<path fill="none" stroke="#63b8ff" d="M487.48,-198.24C482.62,-189.61 477.36,-180.26 473.07,-172.63"/>
<polygon fill="#63b8ff" stroke="#63b8ff" points="484.42,-199.94 492.38,-206.93 490.52,-196.5 484.42,-199.94"/>
</a>
</g>
</g>
<!-- Node13&#45;&gt;Node9 -->
<g id="edge16_Node000013_Node000009" class="edge">
<title>Node13&#45;&gt;Node9</title>
<g id="a_edge16_Node000013_Node000009"><a xlink:title=" ">
<path fill="none" stroke="#63b8ff" d="M530.37,-200.94C564.03,-173.16 619.39,-127.47 648.62,-103.34"/>
<polygon fill="#63b8ff" stroke="#63b8ff" points="528.14,-198.24 522.66,-207.3 532.6,-203.64 528.14,-198.24"/>
</a>
</g>
</g>
<!-- Node13&#45;&gt;Node11 -->
<g id="edge17_Node000013_Node000011" class="edge">
<title>Node13&#45;&gt;Node11</title>
<g id="a_edge17_Node000013_Node000011"><a xlink:title=" ">
<path fill="none" stroke="#63b8ff" d="M555.51,-204.27C635.32,-174.39 782.69,-119.23 842.2,-96.96"/>
<polygon fill="#63b8ff" stroke="#63b8ff" points="554.74,-200.82 546.6,-207.6 557.2,-207.37 554.74,-200.82"/>
</a>
</g>
</g>
<!-- Node15&#45;&gt;Node14 -->
<g id="edge21_Node000015_Node000014" class="edge">
<title>Node15&#45;&gt;Node14</title>
<g id="a_edge21_Node000015_Node000014"><a xlink:title=" ">
<path fill="none" stroke="#63b8ff" d="M785.48,-273.84C750.16,-261.42 706.25,-245.98 678.2,-236.12"/>
<polygon fill="#63b8ff" stroke="#63b8ff" points="784.11,-277.07 794.71,-277.08 786.44,-270.46 784.11,-277.07"/>
</a>
</g>
</g>
<!-- Node16 -->
<g id="Node000016" class="node">
<title>Node16</title>
<g id="a_Node000016"><a xlink:href="LLZKLoweringUtils_8cpp.html" target="_top" xlink:title=" ">
<polygon fill="white" stroke="#666666" points="1130.25,-242 974,-242 974,-208.5 1130.25,-208.5 1130.25,-242"/>
<text text-anchor="start" x="982" y="-228.5" font-family="Helvetica,sans-Serif" font-size="10.00">lib/Transforms/LLZKLowering</text>
<text text-anchor="middle" x="1052.12" y="-215.75" font-family="Helvetica,sans-Serif" font-size="10.00">Utils.cpp</text>
</a>
</g>
</g>
<!-- Node15&#45;&gt;Node16 -->
<g id="edge22_Node000015_Node000016" class="edge">
<title>Node15&#45;&gt;Node16</title>
<g id="a_edge22_Node000015_Node000016"><a xlink:title=" ">
<path fill="none" stroke="#63b8ff" d="M903.22,-274.11C934.55,-264.04 972.25,-251.92 1001.87,-242.4"/>
<polygon fill="#63b8ff" stroke="#63b8ff" points="902.32,-270.73 893.87,-277.12 904.46,-277.39 902.32,-270.73"/>
</a>
</g>
</g>
<!-- Node17 -->
<g id="Node000017" class="node">
<title>Node17</title>
<g id="a_Node000017"><a xlink:href="LLZKPolyLoweringPass_8cpp.html" target="_top" xlink:title="This file implements the &#45;llzk&#45;poly&#45;lowering pass.">
<polygon fill="white" stroke="#666666" points="955.75,-242 778.5,-242 778.5,-208.5 955.75,-208.5 955.75,-242"/>
<text text-anchor="start" x="786.5" y="-228.5" font-family="Helvetica,sans-Serif" font-size="10.00">lib/Transforms/LLZKPolyLowering</text>
<text text-anchor="middle" x="867.12" y="-215.75" font-family="Helvetica,sans-Serif" font-size="10.00">Pass.cpp</text>
</a>
</g>
</g>
<!-- Node15&#45;&gt;Node17 -->
<g id="edge23_Node000015_Node000017" class="edge">
<title>Node15&#45;&gt;Node17</title>
<g id="a_edge23_Node000015_Node000017"><a xlink:title=" ">
<path fill="none" stroke="#63b8ff" d="M851.97,-267.17C855.11,-258.7 858.48,-249.6 861.24,-242.13"/>
<polygon fill="#63b8ff" stroke="#63b8ff" points="848.77,-265.74 848.58,-276.33 855.33,-268.17 848.77,-265.74"/>
</a>
</g>
</g>
</g>
</svg>
