<?xml version="1.0" encoding="UTF-8" standalone="no"?>
<!DOCTYPE svg PUBLIC "-//W3C//DTD SVG 1.1//EN"
 "http://www.w3.org/Graphics/SVG/1.1/DTD/svg11.dtd">
<!-- Generated by graphviz version 12.2.1 (0)
 -->
<!-- Title: include/llzk/Dialect/Felt/IR/Types.h Pages: 1 -->
<svg width="2488pt" height="528pt"
 viewBox="0.00 0.00 2487.90 528.00" xmlns="http://www.w3.org/2000/svg" xmlns:xlink="http://www.w3.org/1999/xlink">
<g id="graph0" class="graph" transform="scale(1 1) rotate(0) translate(4 524)">
<title>include/llzk/Dialect/Felt/IR/Types.h</title>
<!-- Node1 -->
<g id="Node000001" class="node">
<title>Node1</title>
<g id="a_Node000001"><a xlink:title=" ">
<polygon fill="#999999" stroke="#666666" points="1551.9,-520 1442.9,-520 1442.9,-486.5 1551.9,-486.5 1551.9,-520"/>
<text text-anchor="start" x="1450.9" y="-506.5" font-family="Helvetica,sans-Serif" font-size="10.00">include/llzk/Dialect</text>
<text text-anchor="middle" x="1497.4" y="-493.75" font-family="Helvetica,sans-Serif" font-size="10.00">/Felt/IR/Types.h</text>
</a>
</g>
</g>
<!-- Node2 -->
<g id="Node000002" class="node">
<title>Node2</title>
<g id="a_Node000002"><a xlink:href="Bool_2IR_2Ops_8h.html" target="_top" xlink:title=" ">
<polygon fill="white" stroke="#666666" points="1998.9,-450.5 1889.9,-450.5 1889.9,-417 1998.9,-417 1998.9,-450.5"/>
<text text-anchor="start" x="1897.9" y="-437" font-family="Helvetica,sans-Serif" font-size="10.00">include/llzk/Dialect</text>
<text text-anchor="middle" x="1944.4" y="-424.25" font-family="Helvetica,sans-Serif" font-size="10.00">/Bool/IR/Ops.h</text>
</a>
</g>
</g>
<!-- Node1&#45;&gt;Node2 -->
<g id="edge1_Node000001_Node000002" class="edge">
<title>Node1&#45;&gt;Node2</title>
<g id="a_edge1_Node000001_Node000002"><a xlink:title=" ">
<path fill="none" stroke="#63b8ff" d="M1563.45,-492.28C1651.87,-478.92 1807.14,-455.48 1889.49,-443.04"/>
<polygon fill="#63b8ff" stroke="#63b8ff" points="1563.08,-488.79 1553.71,-493.75 1564.12,-495.71 1563.08,-488.79"/>
</a>
</g>
</g>
<!-- Node7 -->
<g id="Node000007" class="node">
<title>Node7</title>
<g id="a_Node000007"><a xlink:href="Bool_2IR_2Dialect_8cpp.html" target="_top" xlink:title=" ">
<polygon fill="white" stroke="#666666" points="2479.9,-381 2376.9,-381 2376.9,-347.5 2479.9,-347.5 2479.9,-381"/>
<text text-anchor="start" x="2384.9" y="-367.5" font-family="Helvetica,sans-Serif" font-size="10.00">lib/Dialect/Bool/IR</text>
<text text-anchor="middle" x="2428.4" y="-354.75" font-family="Helvetica,sans-Serif" font-size="10.00">/Dialect.cpp</text>
</a>
</g>
</g>
<!-- Node1&#45;&gt;Node7 -->
<g id="edge51_Node000001_Node000007" class="edge">
<title>Node1&#45;&gt;Node7</title>
<g id="a_edge51_Node000001_Node000007"><a xlink:title=" ">
<path fill="none" stroke="#63b8ff" d="M1563.34,-500.56C1682.85,-496.68 1930.13,-484.68 2008.4,-450.5 2029.04,-441.49 2025.83,-426.14 2046.4,-417 2175.59,-359.62 2223.18,-405.45 2362.4,-381 2367.04,-380.18 2371.85,-379.24 2376.65,-378.23"/>
<polygon fill="#63b8ff" stroke="#63b8ff" points="1563.58,-497.05 1553.7,-500.86 1563.8,-504.05 1563.58,-497.05"/>
</a>
</g>
</g>
<!-- Node10 -->
<g id="Node000010" class="node">
<title>Node10</title>
<g id="a_Node000010"><a xlink:href="Cast_2IR_2Ops_8h.html" target="_top" xlink:title=" ">
<polygon fill="white" stroke="#666666" points="1668.9,-450.5 1559.9,-450.5 1559.9,-417 1668.9,-417 1668.9,-450.5"/>
<text text-anchor="start" x="1567.9" y="-437" font-family="Helvetica,sans-Serif" font-size="10.00">include/llzk/Dialect</text>
<text text-anchor="middle" x="1614.4" y="-424.25" font-family="Helvetica,sans-Serif" font-size="10.00">/Cast/IR/Ops.h</text>
</a>
</g>
</g>
<!-- Node1&#45;&gt;Node10 -->
<g id="edge10_Node000001_Node000010" class="edge">
<title>Node1&#45;&gt;Node10</title>
<g id="a_edge10_Node000001_Node000010"><a xlink:title=" ">
<path fill="none" stroke="#63b8ff" d="M1534.95,-480.59C1551.73,-470.91 1571.16,-459.7 1586.61,-450.79"/>
<polygon fill="#63b8ff" stroke="#63b8ff" points="1533.65,-477.3 1526.74,-485.33 1537.15,-483.36 1533.65,-477.3"/>
</a>
</g>
</g>
<!-- Node14 -->
<g id="Node000014" class="node">
<title>Node14</title>
<g id="a_Node000014"><a xlink:href="Felt_2IR_2Attrs_8h.html" target="_top" xlink:title=" ">
<polygon fill="white" stroke="#666666" points="1166.9,-450.5 1057.9,-450.5 1057.9,-417 1166.9,-417 1166.9,-450.5"/>
<text text-anchor="start" x="1065.9" y="-437" font-family="Helvetica,sans-Serif" font-size="10.00">include/llzk/Dialect</text>
<text text-anchor="middle" x="1112.4" y="-424.25" font-family="Helvetica,sans-Serif" font-size="10.00">/Felt/IR/Attrs.h</text>
</a>
</g>
</g>
<!-- Node1&#45;&gt;Node14 -->
<g id="edge15_Node000001_Node000014" class="edge">
<title>Node1&#45;&gt;Node14</title>
<g id="a_edge15_Node000001_Node000014"><a xlink:title=" ">
<path fill="none" stroke="#63b8ff" d="M1431.3,-491.93C1368.64,-481.98 1271.95,-466.15 1188.4,-450.5 1181.52,-449.21 1174.29,-447.79 1167.15,-446.36"/>
<polygon fill="#63b8ff" stroke="#63b8ff" points="1430.67,-495.38 1441.09,-493.49 1431.77,-488.46 1430.67,-495.38"/>
</a>
</g>
</g>
<!-- Node15 -->
<g id="Node000015" class="node">
<title>Node15</title>
<g id="a_Node000015"><a xlink:href="Felt_2IR_2Ops_8h.html" target="_top" xlink:title=" ">
<polygon fill="white" stroke="#666666" points="847.9,-381 738.9,-381 738.9,-347.5 847.9,-347.5 847.9,-381"/>
<text text-anchor="start" x="746.9" y="-367.5" font-family="Helvetica,sans-Serif" font-size="10.00">include/llzk/Dialect</text>
<text text-anchor="middle" x="793.4" y="-354.75" font-family="Helvetica,sans-Serif" font-size="10.00">/Felt/IR/Ops.h</text>
</a>
</g>
</g>
<!-- Node1&#45;&gt;Node15 -->
<g id="edge49_Node000001_Node000015" class="edge">
<title>Node1&#45;&gt;Node15</title>
<g id="a_edge49_Node000001_Node000015"><a xlink:title=" ">
<path fill="none" stroke="#63b8ff" d="M1431.13,-499.79C1278.56,-493.72 911.79,-476.58 862.4,-450.5 833.27,-435.12 812,-401.59 801.27,-381.47"/>
<polygon fill="#63b8ff" stroke="#63b8ff" points="1430.96,-503.29 1441.09,-500.19 1431.24,-496.3 1430.96,-503.29"/>
</a>
</g>
</g>
<!-- Node27 -->
<g id="Node000027" class="node">
<title>Node27</title>
<g id="a_Node000027"><a xlink:href="Felt_8cpp.html" target="_top" xlink:title=" ">
<polygon fill="white" stroke="#666666" points="1312.53,-305.12 1180.28,-305.12 1180.28,-284.38 1312.53,-284.38 1312.53,-305.12"/>
<text text-anchor="middle" x="1246.4" y="-291.62" font-family="Helvetica,sans-Serif" font-size="10.00">lib/CAPI/Dialect/Felt.cpp</text>
</a>
</g>
</g>
<!-- Node1&#45;&gt;Node27 -->
<g id="edge50_Node000001_Node000027" class="edge">
<title>Node1&#45;&gt;Node27</title>
<g id="a_edge50_Node000001_Node000027"><a xlink:title=" ">
<path fill="none" stroke="#63b8ff" d="M1431.17,-502.43C1342.1,-500.92 1179.75,-492.01 1048.4,-450.5 986.68,-430.99 953.5,-436.63 920.4,-381 878.21,-310.07 1024.61,-335.82 1166.4,-311.5 1176.87,-309.71 1188.07,-307.61 1198.67,-305.55"/>
<polygon fill="#63b8ff" stroke="#63b8ff" points="1430.89,-505.92 1440.94,-502.56 1430.98,-498.92 1430.89,-505.92"/>
</a>
</g>
</g>
<!-- Node28 -->
<g id="Node000028" class="node">
<title>Node28</title>
<g id="a_Node000028"><a xlink:href="Felt_2IR_2Dialect_8cpp.html" target="_top" xlink:title=" ">
<polygon fill="white" stroke="#666666" points="1430.03,-311.5 1330.78,-311.5 1330.78,-278 1430.03,-278 1430.03,-311.5"/>
<text text-anchor="start" x="1338.78" y="-298" font-family="Helvetica,sans-Serif" font-size="10.00">lib/Dialect/Felt/IR</text>
<text text-anchor="middle" x="1380.4" y="-285.25" font-family="Helvetica,sans-Serif" font-size="10.00">/Dialect.cpp</text>
</a>
</g>
</g>
<!-- Node1&#45;&gt;Node28 -->
<g id="edge52_Node000001_Node000028" class="edge">
<title>Node1&#45;&gt;Node28</title>
<g id="a_edge52_Node000001_Node000028"><a xlink:title=" ">
<path fill="none" stroke="#63b8ff" d="M1472.27,-478.24C1449.79,-455.35 1417.65,-418.83 1399.4,-381 1388.53,-358.47 1383.78,-329.57 1381.78,-311.87"/>
<polygon fill="#63b8ff" stroke="#63b8ff" points="1469.74,-480.67 1479.29,-485.26 1474.69,-475.72 1469.74,-480.67"/>
</a>
</g>
</g>
<!-- Node35 -->
<g id="Node000035" class="node">
<title>Node35</title>
<g id="a_Node000035"><a xlink:href="Function_2IR_2Ops_8cpp.html" target="_top" xlink:title=" ">
<polygon fill="white" stroke="#666666" points="1208.28,-381 1098.53,-381 1098.53,-347.5 1208.28,-347.5 1208.28,-381"/>
<text text-anchor="start" x="1106.53" y="-367.5" font-family="Helvetica,sans-Serif" font-size="10.00">lib/Dialect/Function</text>
<text text-anchor="middle" x="1153.4" y="-354.75" font-family="Helvetica,sans-Serif" font-size="10.00">/IR/Ops.cpp</text>
</a>
</g>
</g>
<!-- Node1&#45;&gt;Node35 -->
<g id="edge53_Node000001_Node000035" class="edge">
<title>Node1&#45;&gt;Node35</title>
<g id="a_edge53_Node000001_Node000035"><a xlink:title=" ">
<path fill="none" stroke="#63b8ff" d="M1431.69,-484.9C1399.79,-475.81 1361.16,-463.81 1327.4,-450.5 1274.98,-429.83 1216.67,-399.72 1182.62,-381.36"/>
<polygon fill="#63b8ff" stroke="#63b8ff" points="1430.64,-488.24 1441.21,-487.58 1432.53,-481.51 1430.64,-488.24"/>
</a>
</g>
</g>
<!-- Node36 -->
<g id="Node000036" class="node">
<title>Node36</title>
<g id="a_Node000036"><a xlink:href="TypeHelper_8cpp.html" target="_top" xlink:title=" ">
<polygon fill="white" stroke="#666666" points="1352.15,-374.62 1226.65,-374.62 1226.65,-353.88 1352.15,-353.88 1352.15,-374.62"/>
<text text-anchor="middle" x="1289.4" y="-361.12" font-family="Helvetica,sans-Serif" font-size="10.00">lib/Util/TypeHelper.cpp</text>
</a>
</g>
</g>
<!-- Node1&#45;&gt;Node36 -->
<g id="edge57_Node000001_Node000036" class="edge">
<title>Node1&#45;&gt;Node36</title>
<g id="a_edge57_Node000001_Node000036"><a xlink:title=" ">
<path fill="none" stroke="#63b8ff" d="M1432.07,-483.15C1410.1,-475.03 1386.18,-464.21 1366.4,-450.5 1335.26,-428.91 1307.93,-392.41 1295.91,-375.02"/>
<polygon fill="#63b8ff" stroke="#63b8ff" points="1430.65,-486.36 1441.24,-486.41 1432.99,-479.76 1430.65,-486.36"/>
</a>
</g>
</g>
<!-- Node37 -->
<g id="Node000037" class="node">
<title>Node37</title>
<g id="a_Node000037"><a xlink:href="LLZK_2IR_2Dialect_8cpp.html" target="_top" xlink:title=" ">
<polygon fill="white" stroke="#666666" points="2161.03,-450.5 2055.78,-450.5 2055.78,-417 2161.03,-417 2161.03,-450.5"/>
<text text-anchor="start" x="2063.78" y="-437" font-family="Helvetica,sans-Serif" font-size="10.00">lib/Dialect/LLZK/IR</text>
<text text-anchor="middle" x="2108.4" y="-424.25" font-family="Helvetica,sans-Serif" font-size="10.00">/Dialect.cpp</text>
</a>
</g>
</g>
<!-- Node1&#45;&gt;Node37 -->
<g id="edge54_Node000001_Node000037" class="edge">
<title>Node1&#45;&gt;Node37</title>
<g id="a_edge54_Node000001_Node000037"><a xlink:title=" ">
<path fill="none" stroke="#63b8ff" d="M1563.58,-498.86C1666.37,-492.95 1870.36,-478.61 2041.4,-450.5 2046,-449.74 2050.75,-448.85 2055.51,-447.89"/>
<polygon fill="#63b8ff" stroke="#63b8ff" points="1563.45,-495.37 1553.67,-499.43 1563.85,-502.36 1563.45,-495.37"/>
</a>
</g>
</g>
<!-- Node38 -->
<g id="Node000038" class="node">
<title>Node38</title>
<g id="a_Node000038"><a xlink:href="Struct_2IR_2Ops_8cpp.html" target="_top" xlink:title=" ">
<polygon fill="white" stroke="#666666" points="2275.9,-450.5 2178.9,-450.5 2178.9,-417 2275.9,-417 2275.9,-450.5"/>
<text text-anchor="start" x="2186.9" y="-437" font-family="Helvetica,sans-Serif" font-size="10.00">lib/Dialect/Struct</text>
<text text-anchor="middle" x="2227.4" y="-424.25" font-family="Helvetica,sans-Serif" font-size="10.00">/IR/Ops.cpp</text>
</a>
</g>
</g>
<!-- Node1&#45;&gt;Node38 -->
<g id="edge55_Node000001_Node000038" class="edge">
<title>Node1&#45;&gt;Node38</title>
<g id="a_edge55_Node000001_Node000038"><a xlink:title=" ">
<path fill="none" stroke="#63b8ff" d="M1563.65,-501.38C1684.92,-498.85 1950.39,-488.98 2170.4,-450.5 2173.03,-450.04 2175.72,-449.51 2178.41,-448.93"/>
<polygon fill="#63b8ff" stroke="#63b8ff" points="1563.81,-497.87 1553.88,-501.57 1563.95,-504.87 1563.81,-497.87"/>
</a>
</g>
</g>
<!-- Node39 -->
<g id="Node000039" class="node">
<title>Node39</title>
<g id="a_Node000039"><a xlink:href="Field_8cpp.html" target="_top" xlink:title=" ">
<polygon fill="white" stroke="#666666" points="2388.78,-444.12 2294.03,-444.12 2294.03,-423.38 2388.78,-423.38 2388.78,-444.12"/>
<text text-anchor="middle" x="2341.4" y="-430.62" font-family="Helvetica,sans-Serif" font-size="10.00">lib/Util/Field.cpp</text>
</a>
</g>
</g>
<!-- Node1&#45;&gt;Node39 -->
<g id="edge56_Node000001_Node000039" class="edge">
<title>Node1&#45;&gt;Node39</title>
<g id="a_edge56_Node000001_Node000039"><a xlink:title=" ">
<path fill="none" stroke="#63b8ff" d="M1563.76,-502.54C1700.02,-502.12 2020.83,-495.88 2285.4,-450.5 2293.76,-449.07 2302.67,-446.88 2310.86,-444.58"/>
<polygon fill="#63b8ff" stroke="#63b8ff" points="1563.82,-499.04 1553.83,-502.56 1563.84,-506.04 1563.82,-499.04"/>
</a>
</g>
</g>
<!-- Node3 -->
<g id="Node000003" class="node">
<title>Node3</title>
<g id="a_Node000003"><a xlink:href="IntervalAnalysis_8h.html" target="_top" xlink:title=" ">
<polygon fill="white" stroke="#666666" points="1701.28,-103 1585.53,-103 1585.53,-69.5 1701.28,-69.5 1701.28,-103"/>
<text text-anchor="start" x="1593.53" y="-89.5" font-family="Helvetica,sans-Serif" font-size="10.00">include/llzk/Analysis</text>
<text text-anchor="middle" x="1643.4" y="-76.75" font-family="Helvetica,sans-Serif" font-size="10.00">/IntervalAnalysis.h</text>
</a>
</g>
</g>
<!-- Node2&#45;&gt;Node3 -->
<g id="edge2_Node000002_Node000003" class="edge">
<title>Node2&#45;&gt;Node3</title>
<g id="a_edge2_Node000002_Node000003"><a xlink:title=" ">
<path fill="none" stroke="#63b8ff" d="M2010.47,-416.26C2085.09,-406.63 2246.27,-422.06 2291.4,-381 2320.12,-354.88 2310.4,-334.57 2310.4,-295.75 2310.4,-295.75 2310.4,-295.75 2310.4,-224.25 2310.4,-100.49 1864.24,-87.53 1701.72,-86.91"/>
<polygon fill="#63b8ff" stroke="#63b8ff" points="2010.09,-412.78 2000.76,-417.8 2011.19,-419.69 2010.09,-412.78"/>
</a>
</g>
</g>
<!-- Node5 -->
<g id="Node000005" class="node">
<title>Node5</title>
<g id="a_Node000005"><a xlink:href="IntervalAnalysisPass_8cpp.html" target="_top" xlink:title="This file implements the &#45;llzk&#45;print&#45;interval&#45;analysis pass.">
<polygon fill="white" stroke="#666666" points="1847.4,-33.5 1693.4,-33.5 1693.4,0 1847.4,0 1847.4,-33.5"/>
<text text-anchor="start" x="1701.4" y="-20" font-family="Helvetica,sans-Serif" font-size="10.00">lib/Analysis/IntervalAnalysis</text>
<text text-anchor="middle" x="1770.4" y="-7.25" font-family="Helvetica,sans-Serif" font-size="10.00">Pass.cpp</text>
</a>
</g>
</g>
<!-- Node2&#45;&gt;Node5 -->
<g id="edge5_Node000002_Node000005" class="edge">
<title>Node2&#45;&gt;Node5</title>
<g id="a_edge5_Node000002_Node000005"><a xlink:title=" ">
<path fill="none" stroke="#63b8ff" d="M2010.33,-416.27C2090.07,-405.82 2262.95,-421.57 2315.4,-381 2347.54,-356.14 2348.4,-336.38 2348.4,-295.75 2348.4,-295.75 2348.4,-295.75 2348.4,-154.75 2348.4,-53.04 2005.25,-26.73 1847.76,-20.01"/>
<polygon fill="#63b8ff" stroke="#63b8ff" points="2010.09,-412.77 2000.76,-417.78 2011.18,-419.68 2010.09,-412.77"/>
</a>
</g>
</g>
<!-- Node6 -->
<g id="Node000006" class="node">
<title>Node6</title>
<g id="a_Node000006"><a xlink:href="Bool_8cpp.html" target="_top" xlink:title=" ">
<polygon fill="white" stroke="#666666" points="2100.4,-374.62 1964.4,-374.62 1964.4,-353.88 2100.4,-353.88 2100.4,-374.62"/>
<text text-anchor="middle" x="2032.4" y="-361.12" font-family="Helvetica,sans-Serif" font-size="10.00">lib/CAPI/Dialect/Bool.cpp</text>
</a>
</g>
</g>
<!-- Node2&#45;&gt;Node6 -->
<g id="edge6_Node000002_Node000006" class="edge">
<title>Node2&#45;&gt;Node6</title>
<g id="a_edge6_Node000002_Node000006"><a xlink:title=" ">
<path fill="none" stroke="#63b8ff" d="M1974.01,-410.04C1989.51,-398.15 2007.69,-384.2 2019.6,-375.07"/>
<polygon fill="#63b8ff" stroke="#63b8ff" points="1972.26,-406.97 1966.46,-415.83 1976.52,-412.52 1972.26,-406.97"/>
</a>
</g>
</g>
<!-- Node2&#45;&gt;Node7 -->
<g id="edge7_Node000002_Node000007" class="edge">
<title>Node2&#45;&gt;Node7</title>
<g id="a_edge7_Node000002_Node000007"><a xlink:title=" ">
<path fill="none" stroke="#63b8ff" d="M2010.36,-417.52C2011.38,-417.34 2012.4,-417.17 2013.4,-417 2167.26,-391.6 2208.68,-407.15 2362.4,-381 2367.05,-380.21 2371.85,-379.28 2376.65,-378.28"/>
<polygon fill="#63b8ff" stroke="#63b8ff" points="2009.94,-414.03 2000.76,-419.31 2011.23,-420.91 2009.94,-414.03"/>
</a>
</g>
</g>
<!-- Node8 -->
<g id="Node000008" class="node">
<title>Node8</title>
<g id="a_Node000008"><a xlink:href="Bool_2IR_2Ops_8cpp.html" target="_top" xlink:title=" ">
<polygon fill="white" stroke="#666666" points="1907.9,-381 1804.9,-381 1804.9,-347.5 1907.9,-347.5 1907.9,-381"/>
<text text-anchor="start" x="1812.9" y="-367.5" font-family="Helvetica,sans-Serif" font-size="10.00">lib/Dialect/Bool/IR</text>
<text text-anchor="middle" x="1856.4" y="-354.75" font-family="Helvetica,sans-Serif" font-size="10.00">/Ops.cpp</text>
</a>
</g>
</g>
<!-- Node2&#45;&gt;Node8 -->
<g id="edge8_Node000002_Node000008" class="edge">
<title>Node2&#45;&gt;Node8</title>
<g id="a_edge8_Node000002_Node000008"><a xlink:title=" ">
<path fill="none" stroke="#63b8ff" d="M1914.6,-409.89C1902.38,-400.52 1888.54,-389.9 1877.41,-381.37"/>
<polygon fill="#63b8ff" stroke="#63b8ff" points="1912.28,-412.52 1922.35,-415.83 1916.54,-406.97 1912.28,-412.52"/>
</a>
</g>
</g>
<!-- Node9 -->
<g id="Node000009" class="node">
<title>Node9</title>
<g id="a_Node000009"><a xlink:href="LLZKRedundantOperationEliminationPass_8cpp.html" target="_top" xlink:title="This file implements the &#45;llzk&#45;duplicate&#45;op&#45;elim pass.">
<polygon fill="white" stroke="#666666" points="2282.65,-381 2118.15,-381 2118.15,-347.5 2282.65,-347.5 2282.65,-381"/>
<text text-anchor="start" x="2126.15" y="-367.5" font-family="Helvetica,sans-Serif" font-size="10.00">lib/Transforms/LLZKRedundant</text>
<text text-anchor="middle" x="2200.4" y="-354.75" font-family="Helvetica,sans-Serif" font-size="10.00">OperationEliminationPass.cpp</text>
</a>
</g>
</g>
<!-- Node2&#45;&gt;Node9 -->
<g id="edge9_Node000002_Node000009" class="edge">
<title>Node2&#45;&gt;Node9</title>
<g id="a_edge9_Node000002_Node000009"><a xlink:title=" ">
<path fill="none" stroke="#63b8ff" d="M2010.2,-415.4C2049.84,-404.95 2099.99,-391.73 2138.84,-381.48"/>
<polygon fill="#63b8ff" stroke="#63b8ff" points="2009.56,-411.95 2000.79,-417.88 2011.35,-418.72 2009.56,-411.95"/>
</a>
</g>
</g>
<!-- Node4 -->
<g id="Node000004" class="node">
<title>Node4</title>
<g id="a_Node000004"><a xlink:href="IntervalAnalysis_8cpp.html" target="_top" xlink:title=" ">
<polygon fill="white" stroke="#666666" points="1602.53,-27.12 1428.28,-27.12 1428.28,-6.38 1602.53,-6.38 1602.53,-27.12"/>
<text text-anchor="middle" x="1515.4" y="-13.62" font-family="Helvetica,sans-Serif" font-size="10.00">lib/Analysis/IntervalAnalysis.cpp</text>
</a>
</g>
</g>
<!-- Node3&#45;&gt;Node4 -->
<g id="edge3_Node000003_Node000004" class="edge">
<title>Node3&#45;&gt;Node4</title>
<g id="a_edge3_Node000003_Node000004"><a xlink:title=" ">
<path fill="none" stroke="#63b8ff" d="M1602.84,-63.86C1579.73,-51.67 1551.89,-36.99 1533.93,-27.52"/>
<polygon fill="#63b8ff" stroke="#63b8ff" points="1600.93,-66.81 1611.41,-68.38 1604.19,-60.62 1600.93,-66.81"/>
</a>
</g>
</g>
<!-- Node3&#45;&gt;Node5 -->
<g id="edge4_Node000003_Node000005" class="edge">
<title>Node3&#45;&gt;Node5</title>
<g id="a_edge4_Node000003_Node000005"><a xlink:title=" ">
<path fill="none" stroke="#63b8ff" d="M1683.91,-63.72C1702.18,-54.01 1723.39,-42.74 1740.23,-33.79"/>
<polygon fill="#63b8ff" stroke="#63b8ff" points="1682.35,-60.59 1675.16,-68.37 1685.63,-66.77 1682.35,-60.59"/>
</a>
</g>
</g>
<!-- Node10&#45;&gt;Node3 -->
<g id="edge11_Node000010_Node000003" class="edge">
<title>Node10&#45;&gt;Node3</title>
<g id="a_edge11_Node000010_Node000003"><a xlink:title=" ">
<path fill="none" stroke="#63b8ff" d="M1680.39,-429.89C1759.09,-425.09 1884.19,-412.59 1917.4,-381 1945.53,-354.25 1936.4,-334.57 1936.4,-295.75 1936.4,-295.75 1936.4,-295.75 1936.4,-224.25 1936.4,-121.63 1787.09,-95.71 1701.64,-89.28"/>
<polygon fill="#63b8ff" stroke="#63b8ff" points="1680.43,-426.38 1670.65,-430.46 1680.83,-433.37 1680.43,-426.38"/>
</a>
</g>
</g>
<!-- Node11 -->
<g id="Node000011" class="node">
<title>Node11</title>
<g id="a_Node000011"><a xlink:href="Cast_8cpp.html" target="_top" xlink:title=" ">
<polygon fill="white" stroke="#666666" points="1544.4,-374.62 1408.4,-374.62 1408.4,-353.88 1544.4,-353.88 1544.4,-374.62"/>
<text text-anchor="middle" x="1476.4" y="-361.12" font-family="Helvetica,sans-Serif" font-size="10.00">lib/CAPI/Dialect/Cast.cpp</text>
</a>
</g>
</g>
<!-- Node10&#45;&gt;Node11 -->
<g id="edge12_Node000010_Node000011" class="edge">
<title>Node10&#45;&gt;Node11</title>
<g id="a_edge12_Node000010_Node000011"><a xlink:title=" ">
<path fill="none" stroke="#63b8ff" d="M1571.01,-411.52C1546.03,-399.31 1515.83,-384.53 1496.38,-375.02"/>
<polygon fill="#63b8ff" stroke="#63b8ff" points="1569.47,-414.67 1579.99,-415.92 1572.54,-408.38 1569.47,-414.67"/>
</a>
</g>
</g>
<!-- Node12 -->
<g id="Node000012" class="node">
<title>Node12</title>
<g id="a_Node000012"><a xlink:href="Cast_2IR_2Dialect_8cpp.html" target="_top" xlink:title=" ">
<polygon fill="white" stroke="#666666" points="1665.9,-381 1562.9,-381 1562.9,-347.5 1665.9,-347.5 1665.9,-381"/>
<text text-anchor="start" x="1570.9" y="-367.5" font-family="Helvetica,sans-Serif" font-size="10.00">lib/Dialect/Cast/IR</text>
<text text-anchor="middle" x="1614.4" y="-354.75" font-family="Helvetica,sans-Serif" font-size="10.00">/Dialect.cpp</text>
</a>
</g>
</g>
<!-- Node10&#45;&gt;Node12 -->
<g id="edge13_Node000010_Node000012" class="edge">
<title>Node10&#45;&gt;Node12</title>
<g id="a_edge13_Node000010_Node000012"><a xlink:title=" ">
<path fill="none" stroke="#63b8ff" d="M1614.4,-405.31C1614.4,-397.09 1614.4,-388.34 1614.4,-381.13"/>
<polygon fill="#63b8ff" stroke="#63b8ff" points="1610.9,-405.24 1614.4,-415.24 1617.9,-405.24 1610.9,-405.24"/>
</a>
</g>
</g>
<!-- Node13 -->
<g id="Node000013" class="node">
<title>Node13</title>
<g id="a_Node000013"><a xlink:href="Cast_2IR_2Ops_8cpp.html" target="_top" xlink:title=" ">
<polygon fill="white" stroke="#666666" points="1786.9,-381 1683.9,-381 1683.9,-347.5 1786.9,-347.5 1786.9,-381"/>
<text text-anchor="start" x="1691.9" y="-367.5" font-family="Helvetica,sans-Serif" font-size="10.00">lib/Dialect/Cast/IR</text>
<text text-anchor="middle" x="1735.4" y="-354.75" font-family="Helvetica,sans-Serif" font-size="10.00">/Ops.cpp</text>
</a>
</g>
</g>
<!-- Node10&#45;&gt;Node13 -->
<g id="edge14_Node000010_Node000013" class="edge">
<title>Node10&#45;&gt;Node13</title>
<g id="a_edge14_Node000010_Node000013"><a xlink:title=" ">
<path fill="none" stroke="#63b8ff" d="M1653.23,-411.09C1670.59,-401.41 1690.68,-390.2 1706.66,-381.29"/>
<polygon fill="#63b8ff" stroke="#63b8ff" points="1651.74,-407.92 1644.71,-415.84 1655.15,-414.03 1651.74,-407.92"/>
</a>
</g>
</g>
<!-- Node14&#45;&gt;Node8 -->
<g id="edge44_Node000014_Node000008" class="edge">
<title>Node14&#45;&gt;Node8</title>
<g id="a_edge44_Node000014_Node000008"><a xlink:title=" ">
<path fill="none" stroke="#63b8ff" d="M1178.75,-431.71C1301.49,-428.92 1571.97,-418.63 1796.4,-381 1799.06,-380.55 1801.77,-380.05 1804.49,-379.49"/>
<polygon fill="#63b8ff" stroke="#63b8ff" points="1178.77,-428.21 1168.85,-431.93 1178.92,-435.21 1178.77,-428.21"/>
</a>
</g>
</g>
<!-- Node14&#45;&gt;Node15 -->
<g id="edge16_Node000014_Node000015" class="edge">
<title>Node14&#45;&gt;Node15</title>
<g id="a_edge16_Node000014_Node000015"><a xlink:title=" ">
<path fill="none" stroke="#63b8ff" d="M1046.58,-418.82C988.01,-406.43 903.33,-388.51 848.33,-376.87"/>
<polygon fill="#63b8ff" stroke="#63b8ff" points="1045.58,-422.19 1056.08,-420.83 1047.03,-415.34 1045.58,-422.19"/>
</a>
</g>
</g>
<!-- Node14&#45;&gt;Node27 -->
<g id="edge43_Node000014_Node000027" class="edge">
<title>Node14&#45;&gt;Node27</title>
<g id="a_edge43_Node000014_Node000027"><a xlink:title=" ">
<path fill="none" stroke="#63b8ff" d="M1046.56,-424.43C981.44,-413.56 896.45,-390.61 933.4,-347.5 967.5,-307.73 1114.8,-320.56 1166.4,-311.5 1176.72,-309.69 1187.76,-307.61 1198.24,-305.57"/>
<polygon fill="#63b8ff" stroke="#63b8ff" points="1045.72,-427.84 1056.15,-425.96 1046.82,-420.92 1045.72,-427.84"/>
</a>
</g>
</g>
<!-- Node14&#45;&gt;Node28 -->
<g id="edge46_Node000014_Node000028" class="edge">
<title>Node14&#45;&gt;Node28</title>
<g id="a_edge46_Node000014_Node000028"><a xlink:title=" ">
<path fill="none" stroke="#63b8ff" d="M1094.49,-407.16C1083.94,-388.66 1075.18,-364.1 1089.4,-347.5 1123.35,-307.88 1270.35,-322.24 1321.4,-311.5 1324.31,-310.89 1327.28,-310.22 1330.28,-309.52"/>
<polygon fill="#63b8ff" stroke="#63b8ff" points="1091.37,-408.77 1099.6,-415.43 1097.32,-405.09 1091.37,-408.77"/>
</a>
</g>
</g>
<!-- Node34 -->
<g id="Node000034" class="node">
<title>Node34</title>
<g id="a_Node000034"><a xlink:href="Felt_2IR_2Attrs_8cpp.html" target="_top" xlink:title=" ">
<polygon fill="white" stroke="#666666" points="1042.03,-381 942.78,-381 942.78,-347.5 1042.03,-347.5 1042.03,-381"/>
<text text-anchor="start" x="950.78" y="-367.5" font-family="Helvetica,sans-Serif" font-size="10.00">lib/Dialect/Felt/IR</text>
<text text-anchor="middle" x="992.4" y="-354.75" font-family="Helvetica,sans-Serif" font-size="10.00">/Attrs.cpp</text>
</a>
</g>
</g>
<!-- Node14&#45;&gt;Node34 -->
<g id="edge45_Node000014_Node000034" class="edge">
<title>Node14&#45;&gt;Node34</title>
<g id="a_edge45_Node000014_Node000034"><a xlink:title=" ">
<path fill="none" stroke="#63b8ff" d="M1073.89,-411.09C1056.68,-401.41 1036.75,-390.2 1020.91,-381.29"/>
<polygon fill="#63b8ff" stroke="#63b8ff" points="1071.91,-413.99 1082.34,-415.84 1075.34,-407.89 1071.91,-413.99"/>
</a>
</g>
</g>
<!-- Node14&#45;&gt;Node35 -->
<g id="edge47_Node000014_Node000035" class="edge">
<title>Node14&#45;&gt;Node35</title>
<g id="a_edge47_Node000014_Node000035"><a xlink:title=" ">
<path fill="none" stroke="#63b8ff" d="M1128.03,-407.03C1133.32,-398.32 1139.07,-388.85 1143.76,-381.13"/>
<polygon fill="#63b8ff" stroke="#63b8ff" points="1125.11,-405.1 1122.91,-415.46 1131.09,-408.73 1125.11,-405.1"/>
</a>
</g>
</g>
<!-- Node14&#45;&gt;Node36 -->
<g id="edge48_Node000014_Node000036" class="edge">
<title>Node14&#45;&gt;Node36</title>
<g id="a_edge48_Node000014_Node000036"><a xlink:title=" ">
<path fill="none" stroke="#63b8ff" d="M1165.47,-412.51C1197.88,-400.15 1237.89,-384.9 1263.52,-375.12"/>
<polygon fill="#63b8ff" stroke="#63b8ff" points="1164.31,-409.21 1156.21,-416.04 1166.8,-415.75 1164.31,-409.21"/>
</a>
</g>
</g>
<!-- Node15&#45;&gt;Node3 -->
<g id="edge17_Node000015_Node000003" class="edge">
<title>Node15&#45;&gt;Node3</title>
<g id="a_edge17_Node000015_Node000003"><a xlink:title=" ">
<path fill="none" stroke="#63b8ff" d="M859.55,-354.24C947.76,-341.99 1095.62,-320.58 1119.4,-311.5 1145.09,-301.69 1146.99,-290.65 1171.4,-278 1320.3,-200.83 1507.78,-133.26 1594.85,-103.46"/>
<polygon fill="#63b8ff" stroke="#63b8ff" points="859.23,-350.75 849.81,-355.59 860.19,-357.68 859.23,-350.75"/>
</a>
</g>
</g>
<!-- Node16 -->
<g id="Node000016" class="node">
<title>Node16</title>
<g id="a_Node000016"><a xlink:href="Matchers_8h.html" target="_top" xlink:title=" ">
<polygon fill="white" stroke="#666666" points="1172.28,-172.5 1056.53,-172.5 1056.53,-139 1172.28,-139 1172.28,-172.5"/>
<text text-anchor="start" x="1064.53" y="-159" font-family="Helvetica,sans-Serif" font-size="10.00">include/llzk/Analysis</text>
<text text-anchor="middle" x="1114.4" y="-146.25" font-family="Helvetica,sans-Serif" font-size="10.00">/Matchers.h</text>
</a>
</g>
</g>
<!-- Node15&#45;&gt;Node16 -->
<g id="edge18_Node000015_Node000016" class="edge">
<title>Node15&#45;&gt;Node16</title>
<g id="a_edge18_Node000015_Node000016"><a xlink:title=" ">
<path fill="none" stroke="#63b8ff" d="M859.54,-353.95C945.94,-341.51 1087.28,-320.02 1095.4,-311.5 1131.64,-273.5 1123.87,-204.22 1117.98,-172.9"/>
<polygon fill="#63b8ff" stroke="#63b8ff" points="859.15,-350.47 849.75,-355.36 860.14,-357.4 859.15,-350.47"/>
</a>
</g>
</g>
<!-- Node17 -->
<g id="Node000017" class="node">
<title>Node17</title>
<g id="a_Node000017"><a xlink:href="SourceRef_8h.html" target="_top" xlink:title=" ">
<polygon fill="white" stroke="#666666" points="1086.28,-311.5 970.53,-311.5 970.53,-278 1086.28,-278 1086.28,-311.5"/>
<text text-anchor="start" x="978.53" y="-298" font-family="Helvetica,sans-Serif" font-size="10.00">include/llzk/Analysis</text>
<text text-anchor="middle" x="1028.4" y="-285.25" font-family="Helvetica,sans-Serif" font-size="10.00">/SourceRef.h</text>
</a>
</g>
</g>
<!-- Node15&#45;&gt;Node17 -->
<g id="edge20_Node000015_Node000017" class="edge">
<title>Node15&#45;&gt;Node17</title>
<g id="a_edge20_Node000015_Node000017"><a xlink:title=" ">
<path fill="none" stroke="#63b8ff" d="M858.95,-344.42C894.45,-334.23 937.88,-321.75 971.88,-311.99"/>
<polygon fill="#63b8ff" stroke="#63b8ff" points="858.3,-340.97 849.66,-347.09 860.24,-347.69 858.3,-340.97"/>
</a>
</g>
</g>
<!-- Node21 -->
<g id="Node000021" class="node">
<title>Node21</title>
<g id="a_Node000021"><a xlink:href="SourceRefLattice_8cpp.html" target="_top" xlink:title=" ">
<polygon fill="white" stroke="#666666" points="768.4,-96.62 590.4,-96.62 590.4,-75.88 768.4,-75.88 768.4,-96.62"/>
<text text-anchor="middle" x="679.4" y="-83.12" font-family="Helvetica,sans-Serif" font-size="10.00">lib/Analysis/SourceRefLattice.cpp</text>
</a>
</g>
</g>
<!-- Node15&#45;&gt;Node21 -->
<g id="edge35_Node000015_Node000021" class="edge">
<title>Node15&#45;&gt;Node21</title>
<g id="a_edge35_Node000015_Node000021"><a xlink:title=" ">
<path fill="none" stroke="#63b8ff" d="M727.29,-363.51C551.86,-363.53 84.55,-359.09 35.4,-311.5 -138.42,-143.19 375.75,-100.69 590.19,-90.4"/>
<polygon fill="#63b8ff" stroke="#63b8ff" points="727.16,-367.01 737.15,-363.5 727.15,-360.01 727.16,-367.01"/>
</a>
</g>
</g>
<!-- Node24 -->
<g id="Node000024" class="node">
<title>Node24</title>
<g id="a_Node000024"><a xlink:href="LLZKLoweringUtils_8h.html" target="_top" xlink:title=" ">
<polygon fill="white" stroke="#666666" points="172.65,-311.5 44.15,-311.5 44.15,-278 172.65,-278 172.65,-311.5"/>
<text text-anchor="start" x="52.15" y="-298" font-family="Helvetica,sans-Serif" font-size="10.00">include/llzk/Transforms</text>
<text text-anchor="middle" x="108.4" y="-285.25" font-family="Helvetica,sans-Serif" font-size="10.00">/LLZKLoweringUtils.h</text>
</a>
</g>
</g>
<!-- Node15&#45;&gt;Node24 -->
<g id="edge31_Node000015_Node000024" class="edge">
<title>Node15&#45;&gt;Node24</title>
<g id="a_edge31_Node000015_Node000024"><a xlink:title=" ">
<path fill="none" stroke="#63b8ff" d="M727.2,-360.44C614.58,-355.03 378.74,-341.01 181.4,-311.5 178.58,-311.08 175.71,-310.61 172.81,-310.11"/>
<polygon fill="#63b8ff" stroke="#63b8ff" points="727.02,-363.93 737.17,-360.91 727.35,-356.94 727.02,-363.93"/>
</a>
</g>
</g>
<!-- Node15&#45;&gt;Node27 -->
<g id="edge36_Node000015_Node000027" class="edge">
<title>Node15&#45;&gt;Node27</title>
<g id="a_edge36_Node000015_Node000027"><a xlink:title=" ">
<path fill="none" stroke="#63b8ff" d="M859.36,-348.04C860.38,-347.85 861.4,-347.67 862.4,-347.5 996.47,-324.33 1032,-332.66 1166.4,-311.5 1177.17,-309.81 1188.7,-307.7 1199.55,-305.6"/>
<polygon fill="#63b8ff" stroke="#63b8ff" points="858.93,-344.56 849.77,-349.88 860.25,-351.43 858.93,-344.56"/>
</a>
</g>
</g>
<!-- Node15&#45;&gt;Node28 -->
<g id="edge37_Node000015_Node000028" class="edge">
<title>Node15&#45;&gt;Node28</title>
<g id="a_edge37_Node000015_Node000028"><a xlink:title=" ">
<path fill="none" stroke="#63b8ff" d="M859.42,-355.55C882.78,-352.9 909.25,-349.98 933.4,-347.5 1105.68,-329.82 1150.91,-341.94 1321.4,-311.5 1324.33,-310.98 1327.31,-310.38 1330.32,-309.73"/>
<polygon fill="#63b8ff" stroke="#63b8ff" points="859.27,-352.05 849.73,-356.66 860.07,-359 859.27,-352.05"/>
</a>
</g>
</g>
<!-- Node29 -->
<g id="Node000029" class="node">
<title>Node29</title>
<g id="a_Node000029"><a xlink:href="Felt_2IR_2Ops_8cpp.html" target="_top" xlink:title=" ">
<polygon fill="white" stroke="#666666" points="290.03,-311.5 190.78,-311.5 190.78,-278 290.03,-278 290.03,-311.5"/>
<text text-anchor="start" x="198.78" y="-298" font-family="Helvetica,sans-Serif" font-size="10.00">lib/Dialect/Felt/IR</text>
<text text-anchor="middle" x="240.4" y="-285.25" font-family="Helvetica,sans-Serif" font-size="10.00">/Ops.cpp</text>
</a>
</g>
</g>
<!-- Node15&#45;&gt;Node29 -->
<g id="edge38_Node000015_Node000029" class="edge">
<title>Node15&#45;&gt;Node29</title>
<g id="a_edge38_Node000015_Node000029"><a xlink:title=" ">
<path fill="none" stroke="#63b8ff" d="M727.08,-359.61C631.82,-353.63 451.02,-339.5 299.4,-311.5 296.48,-310.96 293.5,-310.35 290.49,-309.69"/>
<polygon fill="#63b8ff" stroke="#63b8ff" points="726.84,-363.1 737.03,-360.22 727.27,-356.11 726.84,-363.1"/>
</a>
</g>
</g>
<!-- Node30 -->
<g id="Node000030" class="node">
<title>Node30</title>
<g id="a_Node000030"><a xlink:href="Global_2IR_2Ops_8cpp.html" target="_top" xlink:title=" ">
<polygon fill="white" stroke="#666666" points="408.4,-311.5 308.4,-311.5 308.4,-278 408.4,-278 408.4,-311.5"/>
<text text-anchor="start" x="316.4" y="-298" font-family="Helvetica,sans-Serif" font-size="10.00">lib/Dialect/Global</text>
<text text-anchor="middle" x="358.4" y="-285.25" font-family="Helvetica,sans-Serif" font-size="10.00">/IR/Ops.cpp</text>
</a>
</g>
</g>
<!-- Node15&#45;&gt;Node30 -->
<g id="edge39_Node000015_Node000030" class="edge">
<title>Node15&#45;&gt;Node30</title>
<g id="a_edge39_Node000015_Node000030"><a xlink:title=" ">
<path fill="none" stroke="#63b8ff" d="M727.36,-356.67C651.95,-348.58 525.08,-333.19 417.4,-311.5 414.6,-310.93 411.73,-310.31 408.84,-309.65"/>
<polygon fill="#63b8ff" stroke="#63b8ff" points="726.74,-360.12 737.06,-357.7 727.48,-353.16 726.74,-360.12"/>
</a>
</g>
</g>
<!-- Node31 -->
<g id="Node000031" class="node">
<title>Node31</title>
<g id="a_Node000031"><a xlink:href="FlatteningPass_8cpp.html" target="_top" xlink:title="This file implements the &#45;llzk&#45;flatten pass.">
<polygon fill="white" stroke="#666666" points="594.15,-311.5 426.65,-311.5 426.65,-278 594.15,-278 594.15,-311.5"/>
<text text-anchor="start" x="434.65" y="-298" font-family="Helvetica,sans-Serif" font-size="10.00">lib/Dialect/Polymorphic</text>
<text text-anchor="middle" x="510.4" y="-285.25" font-family="Helvetica,sans-Serif" font-size="10.00">/Transforms/FlatteningPass.cpp</text>
</a>
</g>
</g>
<!-- Node15&#45;&gt;Node31 -->
<g id="edge40_Node000015_Node000031" class="edge">
<title>Node15&#45;&gt;Node31</title>
<g id="a_edge40_Node000015_Node000031"><a xlink:title=" ">
<path fill="none" stroke="#63b8ff" d="M727.44,-347.52C682.66,-336.84 623.6,-322.75 578.4,-311.97"/>
<polygon fill="#63b8ff" stroke="#63b8ff" points="726.49,-350.89 737.03,-349.8 728.11,-344.08 726.49,-350.89"/>
</a>
</g>
</g>
<!-- Node32 -->
<g id="Node000032" class="node">
<title>Node32</title>
<g id="a_Node000032"><a xlink:href="LLZKInlineStructsPass_8cpp.html" target="_top" xlink:title="This file implements the &#45;llzk&#45;inline&#45;structs pass.">
<polygon fill="white" stroke="#666666" points="750.9,-311.5 611.9,-311.5 611.9,-278 750.9,-278 750.9,-311.5"/>
<text text-anchor="start" x="619.9" y="-298" font-family="Helvetica,sans-Serif" font-size="10.00">lib/Transforms/LLZKInline</text>
<text text-anchor="middle" x="681.4" y="-285.25" font-family="Helvetica,sans-Serif" font-size="10.00">StructsPass.cpp</text>
</a>
</g>
</g>
<!-- Node15&#45;&gt;Node32 -->
<g id="edge41_Node000015_Node000032" class="edge">
<title>Node15&#45;&gt;Node32</title>
<g id="a_edge41_Node000015_Node000032"><a xlink:title=" ">
<path fill="none" stroke="#63b8ff" d="M757.01,-341.32C741.05,-331.7 722.66,-320.61 708.01,-311.79"/>
<polygon fill="#63b8ff" stroke="#63b8ff" points="754.91,-344.14 765.28,-346.3 758.52,-338.14 754.91,-344.14"/>
</a>
</g>
</g>
<!-- Node33 -->
<g id="Node000033" class="node">
<title>Node33</title>
<g id="a_Node000033"><a xlink:href="LLZKRedundantReadAndWriteEliminationPass_8cpp.html" target="_top" xlink:title="This file implements the &#45;llzk&#45;duplicate&#45;read&#45;write&#45;elim pass.">
<polygon fill="white" stroke="#666666" points="952.03,-311.5 768.78,-311.5 768.78,-278 952.03,-278 952.03,-311.5"/>
<text text-anchor="start" x="776.78" y="-298" font-family="Helvetica,sans-Serif" font-size="10.00">lib/Transforms/LLZKRedundant</text>
<text text-anchor="middle" x="860.4" y="-285.25" font-family="Helvetica,sans-Serif" font-size="10.00">ReadAndWriteEliminationPass.cpp</text>
</a>
</g>
</g>
<!-- Node15&#45;&gt;Node33 -->
<g id="edge42_Node000015_Node000033" class="edge">
<title>Node15&#45;&gt;Node33</title>
<g id="a_edge42_Node000015_Node000033"><a xlink:title=" ">
<path fill="none" stroke="#63b8ff" d="M817.25,-339.22C826.35,-330.06 836.48,-319.85 844.64,-311.63"/>
<polygon fill="#63b8ff" stroke="#63b8ff" points="814.91,-336.62 810.35,-346.18 819.88,-341.55 814.91,-336.62"/>
</a>
</g>
</g>
<!-- Node16&#45;&gt;Node4 -->
<g id="edge19_Node000016_Node000004" class="edge">
<title>Node16&#45;&gt;Node4</title>
<g id="a_edge19_Node000016_Node000004"><a xlink:title=" ">
<path fill="none" stroke="#63b8ff" d="M1172.35,-134.95C1259.54,-105.16 1421.24,-49.92 1486.74,-27.54"/>
<polygon fill="#63b8ff" stroke="#63b8ff" points="1171.35,-131.6 1163.01,-138.14 1173.61,-138.22 1171.35,-131.6"/>
</a>
</g>
</g>
<!-- Node18 -->
<g id="Node000018" class="node">
<title>Node18</title>
<g id="a_Node000018"><a xlink:href="ConstraintDependencyGraph_8h.html" target="_top" xlink:title=" ">
<polygon fill="white" stroke="#666666" points="1038.53,-172.5 870.28,-172.5 870.28,-139 1038.53,-139 1038.53,-172.5"/>
<text text-anchor="start" x="878.28" y="-159" font-family="Helvetica,sans-Serif" font-size="10.00">include/llzk/Analysis</text>
<text text-anchor="middle" x="954.4" y="-146.25" font-family="Helvetica,sans-Serif" font-size="10.00">/ConstraintDependencyGraph.h</text>
</a>
</g>
</g>
<!-- Node17&#45;&gt;Node18 -->
<g id="edge21_Node000017_Node000018" class="edge">
<title>Node17&#45;&gt;Node18</title>
<g id="a_edge21_Node000017_Node000018"><a xlink:title=" ">
<path fill="none" stroke="#63b8ff" d="M1014.42,-267.87C999.28,-239.83 975.59,-195.98 962.98,-172.63"/>
<polygon fill="#63b8ff" stroke="#63b8ff" points="1011.22,-269.3 1019.05,-276.43 1017.38,-265.97 1011.22,-269.3"/>
</a>
</g>
</g>
<!-- Node22 -->
<g id="Node000022" class="node">
<title>Node22</title>
<g id="a_Node000022"><a xlink:href="SourceRefLattice_8h.html" target="_top" xlink:title=" ">
<polygon fill="white" stroke="#666666" points="932.28,-242 816.53,-242 816.53,-208.5 932.28,-208.5 932.28,-242"/>
<text text-anchor="start" x="824.53" y="-228.5" font-family="Helvetica,sans-Serif" font-size="10.00">include/llzk/Analysis</text>
<text text-anchor="middle" x="874.4" y="-215.75" font-family="Helvetica,sans-Serif" font-size="10.00">/SourceRefLattice.h</text>
</a>
</g>
</g>
<!-- Node17&#45;&gt;Node22 -->
<g id="edge26_Node000017_Node000022" class="edge">
<title>Node17&#45;&gt;Node22</title>
<g id="a_edge26_Node000017_Node000022"><a xlink:title=" ">
<path fill="none" stroke="#63b8ff" d="M981.18,-273.05C958.7,-263.2 932.22,-251.59 911.26,-242.4"/>
<polygon fill="#63b8ff" stroke="#63b8ff" points="979.57,-276.17 990.13,-276.97 982.38,-269.75 979.57,-276.17"/>
</a>
</g>
</g>
<!-- Node23 -->
<g id="Node000023" class="node">
<title>Node23</title>
<g id="a_Node000023"><a xlink:href="SourceRef_8cpp.html" target="_top" xlink:title=" ">
<polygon fill="white" stroke="#666666" points="663.53,-235.62 519.28,-235.62 519.28,-214.88 663.53,-214.88 663.53,-235.62"/>
<text text-anchor="middle" x="591.4" y="-222.12" font-family="Helvetica,sans-Serif" font-size="10.00">lib/Analysis/SourceRef.cpp</text>
</a>
</g>
</g>
<!-- Node17&#45;&gt;Node23 -->
<g id="edge30_Node000017_Node000023" class="edge">
<title>Node17&#45;&gt;Node23</title>
<g id="a_edge30_Node000017_Node000023"><a xlink:title=" ">
<path fill="none" stroke="#63b8ff" d="M959.21,-277.69C850.67,-257.74 736.02,-242.94 663.69,-234.37"/>
<polygon fill="#63b8ff" stroke="#63b8ff" points="958.41,-281.1 968.88,-279.49 959.69,-274.22 958.41,-281.1"/>
</a>
</g>
</g>
<!-- Node18&#45;&gt;Node3 -->
<g id="edge22_Node000018_Node000003" class="edge">
<title>Node18&#45;&gt;Node3</title>
<g id="a_edge22_Node000018_Node000003"><a xlink:title=" ">
<path fill="none" stroke="#63b8ff" d="M1050.14,-138.71C1252.35,-113.28 1480.41,-97.34 1585.28,-90.72"/>
<polygon fill="#63b8ff" stroke="#63b8ff" points="1049.99,-135.2 1040.51,-139.93 1050.87,-142.14 1049.99,-135.2"/>
</a>
</g>
</g>
<!-- Node19 -->
<g id="Node000019" class="node">
<title>Node19</title>
<g id="a_Node000019"><a xlink:href="ConstraintDependencyGraph_8cpp.html" target="_top" xlink:title=" ">
<polygon fill="white" stroke="#666666" points="972.53,-103 786.28,-103 786.28,-69.5 972.53,-69.5 972.53,-103"/>
<text text-anchor="start" x="794.28" y="-89.5" font-family="Helvetica,sans-Serif" font-size="10.00">lib/Analysis/ConstraintDependency</text>
<text text-anchor="middle" x="879.4" y="-76.75" font-family="Helvetica,sans-Serif" font-size="10.00">Graph.cpp</text>
</a>
</g>
</g>
<!-- Node18&#45;&gt;Node19 -->
<g id="edge23_Node000018_Node000019" class="edge">
<title>Node18&#45;&gt;Node19</title>
<g id="a_edge23_Node000018_Node000019"><a xlink:title=" ">
<path fill="none" stroke="#63b8ff" d="M928.08,-131.06C917.9,-121.9 906.51,-111.65 897.31,-103.37"/>
<polygon fill="#63b8ff" stroke="#63b8ff" points="925.73,-133.65 935.5,-137.74 930.41,-128.45 925.73,-133.65"/>
</a>
</g>
</g>
<!-- Node20 -->
<g id="Node000020" class="node">
<title>Node20</title>
<g id="a_Node000020"><a xlink:href="ConstraintDependencyGraphPass_8cpp.html" target="_top" xlink:title="This file implements the &#45;llzk&#45;print&#45;constraint&#45;dependency&#45;graphs pass.">
<polygon fill="white" stroke="#666666" points="1176.53,-103 990.28,-103 990.28,-69.5 1176.53,-69.5 1176.53,-103"/>
<text text-anchor="start" x="998.28" y="-89.5" font-family="Helvetica,sans-Serif" font-size="10.00">lib/Analysis/ConstraintDependency</text>
<text text-anchor="middle" x="1083.4" y="-76.75" font-family="Helvetica,sans-Serif" font-size="10.00">GraphPass.cpp</text>
</a>
</g>
</g>
<!-- Node18&#45;&gt;Node20 -->
<g id="edge24_Node000018_Node000020" class="edge">
<title>Node18&#45;&gt;Node20</title>
<g id="a_edge24_Node000018_Node000020"><a xlink:title=" ">
<path fill="none" stroke="#63b8ff" d="M995.28,-133.36C1013.9,-123.62 1035.57,-112.28 1052.76,-103.29"/>
<polygon fill="#63b8ff" stroke="#63b8ff" points="993.88,-130.14 986.64,-137.88 997.13,-136.35 993.88,-130.14"/>
</a>
</g>
</g>
<!-- Node18&#45;&gt;Node21 -->
<g id="edge25_Node000018_Node000021" class="edge">
<title>Node18&#45;&gt;Node21</title>
<g id="a_edge25_Node000018_Node000021"><a xlink:title=" ">
<path fill="none" stroke="#63b8ff" d="M877.49,-135.87C826.22,-123.29 760.91,-107.26 719.61,-97.12"/>
<polygon fill="#63b8ff" stroke="#63b8ff" points="876.52,-139.24 887.06,-138.22 878.19,-132.44 876.52,-139.24"/>
</a>
</g>
</g>
<!-- Node22&#45;&gt;Node18 -->
<g id="edge27_Node000022_Node000018" class="edge">
<title>Node22&#45;&gt;Node18</title>
<g id="a_edge27_Node000022_Node000018"><a xlink:title=" ">
<path fill="none" stroke="#63b8ff" d="M902.15,-200.84C913.09,-191.6 925.39,-181.23 935.3,-172.87"/>
<polygon fill="#63b8ff" stroke="#63b8ff" points="899.9,-198.15 894.52,-207.28 904.42,-203.5 899.9,-198.15"/>
</a>
</g>
</g>
<!-- Node22&#45;&gt;Node19 -->
<g id="edge28_Node000022_Node000019" class="edge">
<title>Node22&#45;&gt;Node19</title>
<g id="a_edge28_Node000022_Node000019"><a xlink:title=" ">
<path fill="none" stroke="#63b8ff" d="M865.93,-197.5C861.69,-180.69 858.1,-158.55 861.4,-139 863.49,-126.62 868.22,-113.25 872.3,-103.2"/>
<polygon fill="#63b8ff" stroke="#63b8ff" points="862.45,-198.04 868.49,-206.74 869.19,-196.17 862.45,-198.04"/>
</a>
</g>
</g>
<!-- Node22&#45;&gt;Node21 -->
<g id="edge29_Node000022_Node000021" class="edge">
<title>Node22&#45;&gt;Node21</title>
<g id="a_edge29_Node000022_Node000021"><a xlink:title=" ">
<path fill="none" stroke="#63b8ff" d="M842.43,-201.79C799.25,-171.45 724.12,-118.67 693.25,-96.98"/>
<polygon fill="#63b8ff" stroke="#63b8ff" points="840.22,-204.51 850.41,-207.4 844.24,-198.78 840.22,-204.51"/>
</a>
</g>
</g>
<!-- Node24&#45;&gt;Node23 -->
<g id="edge32_Node000024_Node000023" class="edge">
<title>Node24&#45;&gt;Node23</title>
<g id="a_edge32_Node000024_Node000023"><a xlink:title=" ">
<path fill="none" stroke="#63b8ff" d="M183.95,-277.65C307.01,-257.01 439.16,-241.85 518.91,-233.47"/>
<polygon fill="#63b8ff" stroke="#63b8ff" points="183.6,-274.16 174.32,-279.28 184.77,-281.06 183.6,-274.16"/>
</a>
</g>
</g>
<!-- Node25 -->
<g id="Node000025" class="node">
<title>Node25</title>
<g id="a_Node000025"><a xlink:href="LLZKLoweringUtils_8cpp.html" target="_top" xlink:title=" ">
<polygon fill="white" stroke="#666666" points="193.53,-242 37.28,-242 37.28,-208.5 193.53,-208.5 193.53,-242"/>
<text text-anchor="start" x="45.28" y="-228.5" font-family="Helvetica,sans-Serif" font-size="10.00">lib/Transforms/LLZKLowering</text>
<text text-anchor="middle" x="115.4" y="-215.75" font-family="Helvetica,sans-Serif" font-size="10.00">Utils.cpp</text>
</a>
</g>
</g>
<!-- Node24&#45;&gt;Node25 -->
<g id="edge33_Node000024_Node000025" class="edge">
<title>Node24&#45;&gt;Node25</title>
<g id="a_edge33_Node000024_Node000025"><a xlink:title=" ">
<path fill="none" stroke="#63b8ff" d="M111.25,-266.31C112.1,-258.09 113.01,-249.34 113.76,-242.13"/>
<polygon fill="#63b8ff" stroke="#63b8ff" points="107.77,-265.94 110.22,-276.25 114.73,-266.66 107.77,-265.94"/>
</a>
</g>
</g>
<!-- Node26 -->
<g id="Node000026" class="node">
<title>Node26</title>
<g id="a_Node000026"><a xlink:href="LLZKPolyLoweringPass_8cpp.html" target="_top" xlink:title="This file implements the &#45;llzk&#45;poly&#45;lowering pass.">
<polygon fill="white" stroke="#666666" points="389.03,-242 211.78,-242 211.78,-208.5 389.03,-208.5 389.03,-242"/>
<text text-anchor="start" x="219.78" y="-228.5" font-family="Helvetica,sans-Serif" font-size="10.00">lib/Transforms/LLZKPolyLowering</text>
<text text-anchor="middle" x="300.4" y="-215.75" font-family="Helvetica,sans-Serif" font-size="10.00">Pass.cpp</text>
</a>
</g>
</g>
<!-- Node24&#45;&gt;Node26 -->
<g id="edge34_Node000024_Node000026" class="edge">
<title>Node24&#45;&gt;Node26</title>
<g id="a_edge34_Node000024_Node000026"><a xlink:title=" ">
<path fill="none" stroke="#63b8ff" d="M165.01,-273.85C193.51,-263.83 227.61,-251.84 254.46,-242.4"/>
<polygon fill="#63b8ff" stroke="#63b8ff" points="164.09,-270.46 155.82,-277.08 166.41,-277.07 164.09,-270.46"/>
</a>
</g>
</g>
</g>
</svg>
