<?xml version="1.0" encoding="UTF-8" standalone="no"?>
<!DOCTYPE svg PUBLIC "-//W3C//DTD SVG 1.1//EN"
 "http://www.w3.org/Graphics/SVG/1.1/DTD/svg11.dtd">
<!-- Generated by graphviz version 12.2.1 (0)
 -->
<!-- Title: include/llzk/Dialect/Felt/IR/Attrs.h Pages: 1 -->
<svg width="2051pt" height="459pt"
 viewBox="0.00 0.00 2050.75 458.50" xmlns="http://www.w3.org/2000/svg" xmlns:xlink="http://www.w3.org/1999/xlink">
<g id="graph0" class="graph" transform="scale(1 1) rotate(0) translate(4 454.5)">
<title>include/llzk/Dialect/Felt/IR/Attrs.h</title>
<!-- Node1 -->
<g id="Node000001" class="node">
<title>Node1</title>
<g id="a_Node000001"><a xlink:title=" ">
<polygon fill="#999999" stroke="#666666" points="791.62,-450.5 682.62,-450.5 682.62,-417 791.62,-417 791.62,-450.5"/>
<text text-anchor="start" x="690.62" y="-437" font-family="Helvetica,sans-Serif" font-size="10.00">include/llzk/Dialect</text>
<text text-anchor="middle" x="737.12" y="-424.25" font-family="Helvetica,sans-Serif" font-size="10.00">/Felt/IR/Attrs.h</text>
</a>
</g>
</g>
<!-- Node2 -->
<g id="Node000002" class="node">
<title>Node2</title>
<g id="a_Node000002"><a xlink:href="Felt_2IR_2Ops_8h.html" target="_top" xlink:title=" ">
<polygon fill="white" stroke="#666666" points="729.62,-381 620.62,-381 620.62,-347.5 729.62,-347.5 729.62,-381"/>
<text text-anchor="start" x="628.62" y="-367.5" font-family="Helvetica,sans-Serif" font-size="10.00">include/llzk/Dialect</text>
<text text-anchor="middle" x="675.12" y="-354.75" font-family="Helvetica,sans-Serif" font-size="10.00">/Felt/IR/Ops.h</text>
</a>
</g>
</g>
<!-- Node1&#45;&gt;Node2 -->
<g id="edge1_Node000001_Node000002" class="edge">
<title>Node1&#45;&gt;Node2</title>
<g id="a_edge1_Node000001_Node000002"><a xlink:title=" ">
<path fill="none" stroke="#63b8ff" d="M714.8,-408.44C706.45,-399.35 697.19,-389.27 689.71,-381.13"/>
<polygon fill="#63b8ff" stroke="#63b8ff" points="712.07,-410.64 721.41,-415.64 717.22,-405.91 712.07,-410.64"/>
</a>
</g>
</g>
<!-- Node17 -->
<g id="Node000017" class="node">
<title>Node17</title>
<g id="a_Node000017"><a xlink:href="Felt_8cpp.html" target="_top" xlink:title=" ">
<polygon fill="white" stroke="#666666" points="132.25,-305.12 0,-305.12 0,-284.38 132.25,-284.38 132.25,-305.12"/>
<text text-anchor="middle" x="66.12" y="-291.62" font-family="Helvetica,sans-Serif" font-size="10.00">lib/CAPI/Dialect/Felt.cpp</text>
</a>
</g>
</g>
<!-- Node1&#45;&gt;Node17 -->
<g id="edge34_Node000001_Node000017" class="edge">
<title>Node1&#45;&gt;Node17</title>
<g id="a_edge34_Node000001_Node000017"><a xlink:title=" ">
<path fill="none" stroke="#63b8ff" d="M671.11,-426.74C595.09,-419.12 466.7,-404.13 358.12,-381 259.73,-360.04 146.08,-323.07 94.37,-305.52"/>
<polygon fill="#63b8ff" stroke="#63b8ff" points="670.6,-430.2 680.89,-427.7 671.28,-423.24 670.6,-430.2"/>
</a>
</g>
</g>
<!-- Node18 -->
<g id="Node000018" class="node">
<title>Node18</title>
<g id="a_Node000018"><a xlink:href="Cast_2IR_2Ops_8cpp.html" target="_top" xlink:title=" ">
<polygon fill="white" stroke="#666666" points="253.62,-311.5 150.62,-311.5 150.62,-278 253.62,-278 253.62,-311.5"/>
<text text-anchor="start" x="158.62" y="-298" font-family="Helvetica,sans-Serif" font-size="10.00">lib/Dialect/Cast/IR</text>
<text text-anchor="middle" x="202.12" y="-285.25" font-family="Helvetica,sans-Serif" font-size="10.00">/Ops.cpp</text>
</a>
</g>
</g>
<!-- Node1&#45;&gt;Node18 -->
<g id="edge36_Node000001_Node000018" class="edge">
<title>Node1&#45;&gt;Node18</title>
<g id="a_edge36_Node000001_Node000018"><a xlink:title=" ">
<path fill="none" stroke="#63b8ff" d="M670.98,-421.63C617.95,-412.24 541.82,-397.68 476.12,-381 395.25,-360.46 302.9,-330.3 248.72,-311.91"/>
<polygon fill="#63b8ff" stroke="#63b8ff" points="670.31,-425.07 680.77,-423.35 671.53,-418.18 670.31,-425.07"/>
</a>
</g>
</g>
<!-- Node19 -->
<g id="Node000019" class="node">
<title>Node19</title>
<g id="a_Node000019"><a xlink:href="Felt_2IR_2Dialect_8cpp.html" target="_top" xlink:title=" ">
<polygon fill="white" stroke="#666666" points="370.75,-311.5 271.5,-311.5 271.5,-278 370.75,-278 370.75,-311.5"/>
<text text-anchor="start" x="279.5" y="-298" font-family="Helvetica,sans-Serif" font-size="10.00">lib/Dialect/Felt/IR</text>
<text text-anchor="middle" x="321.12" y="-285.25" font-family="Helvetica,sans-Serif" font-size="10.00">/Dialect.cpp</text>
</a>
</g>
</g>
<!-- Node1&#45;&gt;Node19 -->
<g id="edge38_Node000001_Node000019" class="edge">
<title>Node1&#45;&gt;Node19</title>
<g id="a_edge38_Node000001_Node000019"><a xlink:title=" ">
<path fill="none" stroke="#63b8ff" d="M677.45,-413.1C594.75,-385.86 446.86,-337.16 370.2,-311.91"/>
<polygon fill="#63b8ff" stroke="#63b8ff" points="676.15,-416.35 686.74,-416.16 678.34,-409.71 676.15,-416.35"/>
</a>
</g>
</g>
<!-- Node28 -->
<g id="Node000028" class="node">
<title>Node28</title>
<g id="a_Node000028"><a xlink:href="Bool_2IR_2Ops_8cpp.html" target="_top" xlink:title=" ">
<polygon fill="white" stroke="#666666" points="850.62,-381 747.62,-381 747.62,-347.5 850.62,-347.5 850.62,-381"/>
<text text-anchor="start" x="755.62" y="-367.5" font-family="Helvetica,sans-Serif" font-size="10.00">lib/Dialect/Bool/IR</text>
<text text-anchor="middle" x="799.12" y="-354.75" font-family="Helvetica,sans-Serif" font-size="10.00">/Ops.cpp</text>
</a>
</g>
</g>
<!-- Node1&#45;&gt;Node28 -->
<g id="edge35_Node000001_Node000028" class="edge">
<title>Node1&#45;&gt;Node28</title>
<g id="a_edge35_Node000001_Node000028"><a xlink:title=" ">
<path fill="none" stroke="#63b8ff" d="M759.45,-408.44C767.8,-399.35 777.06,-389.27 784.54,-381.13"/>
<polygon fill="#63b8ff" stroke="#63b8ff" points="757.03,-405.91 752.84,-415.64 762.18,-410.64 757.03,-405.91"/>
</a>
</g>
</g>
<!-- Node29 -->
<g id="Node000029" class="node">
<title>Node29</title>
<g id="a_Node000029"><a xlink:href="Felt_2IR_2Attrs_8cpp.html" target="_top" xlink:title=" ">
<polygon fill="white" stroke="#666666" points="967.75,-381 868.5,-381 868.5,-347.5 967.75,-347.5 967.75,-381"/>
<text text-anchor="start" x="876.5" y="-367.5" font-family="Helvetica,sans-Serif" font-size="10.00">lib/Dialect/Felt/IR</text>
<text text-anchor="middle" x="918.12" y="-354.75" font-family="Helvetica,sans-Serif" font-size="10.00">/Attrs.cpp</text>
</a>
</g>
</g>
<!-- Node1&#45;&gt;Node29 -->
<g id="edge37_Node000001_Node000029" class="edge">
<title>Node1&#45;&gt;Node29</title>
<g id="a_edge37_Node000001_Node000029"><a xlink:title=" ">
<path fill="none" stroke="#63b8ff" d="M791.2,-412.58C817.92,-402.62 849.72,-390.76 874.81,-381.4"/>
<polygon fill="#63b8ff" stroke="#63b8ff" points="790.04,-409.28 781.9,-416.05 792.49,-415.84 790.04,-409.28"/>
</a>
</g>
</g>
<!-- Node30 -->
<g id="Node000030" class="node">
<title>Node30</title>
<g id="a_Node000030"><a xlink:href="Function_2IR_2Ops_8cpp.html" target="_top" xlink:title=" ">
<polygon fill="white" stroke="#666666" points="1096,-381 986.25,-381 986.25,-347.5 1096,-347.5 1096,-381"/>
<text text-anchor="start" x="994.25" y="-367.5" font-family="Helvetica,sans-Serif" font-size="10.00">lib/Dialect/Function</text>
<text text-anchor="middle" x="1041.12" y="-354.75" font-family="Helvetica,sans-Serif" font-size="10.00">/IR/Ops.cpp</text>
</a>
</g>
</g>
<!-- Node1&#45;&gt;Node30 -->
<g id="edge39_Node000001_Node000030" class="edge">
<title>Node1&#45;&gt;Node30</title>
<g id="a_edge39_Node000001_Node000030"><a xlink:title=" ">
<path fill="none" stroke="#63b8ff" d="M803.27,-419.03C851.53,-408.88 918.49,-394.53 977.12,-381 980.02,-380.33 982.99,-379.64 985.99,-378.93"/>
<polygon fill="#63b8ff" stroke="#63b8ff" points="802.58,-415.59 793.52,-421.07 804.02,-422.44 802.58,-415.59"/>
</a>
</g>
</g>
<!-- Node31 -->
<g id="Node000031" class="node">
<title>Node31</title>
<g id="a_Node000031"><a xlink:href="TypeHelper_8cpp.html" target="_top" xlink:title=" ">
<polygon fill="white" stroke="#666666" points="1239.88,-374.62 1114.38,-374.62 1114.38,-353.88 1239.88,-353.88 1239.88,-374.62"/>
<text text-anchor="middle" x="1177.12" y="-361.12" font-family="Helvetica,sans-Serif" font-size="10.00">lib/Util/TypeHelper.cpp</text>
</a>
</g>
</g>
<!-- Node1&#45;&gt;Node31 -->
<g id="edge40_Node000001_Node000031" class="edge">
<title>Node1&#45;&gt;Node31</title>
<g id="a_edge40_Node000001_Node000031"><a xlink:title=" ">
<path fill="none" stroke="#63b8ff" d="M803.31,-424.97C877.16,-415.94 1000.09,-399.85 1105.12,-381 1114.7,-379.28 1124.93,-377.2 1134.59,-375.11"/>
<polygon fill="#63b8ff" stroke="#63b8ff" points="802.89,-421.5 793.39,-426.18 803.74,-428.45 802.89,-421.5"/>
</a>
</g>
</g>
<!-- Node3 -->
<g id="Node000003" class="node">
<title>Node3</title>
<g id="a_Node000003"><a xlink:href="IntervalAnalysis_8h.html" target="_top" xlink:title=" ">
<polygon fill="white" stroke="#666666" points="1189,-103 1073.25,-103 1073.25,-69.5 1189,-69.5 1189,-103"/>
<text text-anchor="start" x="1081.25" y="-89.5" font-family="Helvetica,sans-Serif" font-size="10.00">include/llzk/Analysis</text>
<text text-anchor="middle" x="1131.12" y="-76.75" font-family="Helvetica,sans-Serif" font-size="10.00">/IntervalAnalysis.h</text>
</a>
</g>
</g>
<!-- Node2&#45;&gt;Node3 -->
<g id="edge2_Node000002_Node000003" class="edge">
<title>Node2&#45;&gt;Node3</title>
<g id="a_edge2_Node000002_Node000003"><a xlink:title=" ">
<path fill="none" stroke="#63b8ff" d="M709.85,-340.65C721,-332.34 732.85,-322.3 742.12,-311.5 776.2,-271.8 759.37,-242.51 799.12,-208.5 841.26,-172.45 989.4,-126.86 1072.85,-103.17"/>
<polygon fill="#63b8ff" stroke="#63b8ff" points="708.04,-337.64 701.96,-346.31 712.12,-343.33 708.04,-337.64"/>
</a>
</g>
</g>
<!-- Node6 -->
<g id="Node000006" class="node">
<title>Node6</title>
<g id="a_Node000006"><a xlink:href="Matchers_8h.html" target="_top" xlink:title=" ">
<polygon fill="white" stroke="#666666" points="521,-172.5 405.25,-172.5 405.25,-139 521,-139 521,-172.5"/>
<text text-anchor="start" x="413.25" y="-159" font-family="Helvetica,sans-Serif" font-size="10.00">include/llzk/Analysis</text>
<text text-anchor="middle" x="463.12" y="-146.25" font-family="Helvetica,sans-Serif" font-size="10.00">/Matchers.h</text>
</a>
</g>
</g>
<!-- Node2&#45;&gt;Node6 -->
<g id="edge5_Node000002_Node000006" class="edge">
<title>Node2&#45;&gt;Node6</title>
<g id="a_edge5_Node000002_Node000006"><a xlink:title=" ">
<path fill="none" stroke="#63b8ff" d="M623.46,-342.24C606.99,-334.1 589.35,-323.75 575.12,-311.5 526.62,-269.73 487.59,-202.99 471.32,-172.66"/>
<polygon fill="#63b8ff" stroke="#63b8ff" points="621.63,-345.24 632.16,-346.37 624.63,-338.92 621.63,-345.24"/>
</a>
</g>
</g>
<!-- Node7 -->
<g id="Node000007" class="node">
<title>Node7</title>
<g id="a_Node000007"><a xlink:href="SourceRef_8h.html" target="_top" xlink:title=" ">
<polygon fill="white" stroke="#666666" points="733,-311.5 617.25,-311.5 617.25,-278 733,-278 733,-311.5"/>
<text text-anchor="start" x="625.25" y="-298" font-family="Helvetica,sans-Serif" font-size="10.00">include/llzk/Analysis</text>
<text text-anchor="middle" x="675.12" y="-285.25" font-family="Helvetica,sans-Serif" font-size="10.00">/SourceRef.h</text>
</a>
</g>
</g>
<!-- Node2&#45;&gt;Node7 -->
<g id="edge7_Node000002_Node000007" class="edge">
<title>Node2&#45;&gt;Node7</title>
<g id="a_edge7_Node000002_Node000007"><a xlink:title=" ">
<path fill="none" stroke="#63b8ff" d="M675.12,-335.81C675.12,-327.59 675.12,-318.84 675.12,-311.63"/>
<polygon fill="#63b8ff" stroke="#63b8ff" points="671.63,-335.74 675.13,-345.74 678.63,-335.74 671.63,-335.74"/>
</a>
</g>
</g>
<!-- Node11 -->
<g id="Node000011" class="node">
<title>Node11</title>
<g id="a_Node000011"><a xlink:href="SourceRefLattice_8cpp.html" target="_top" xlink:title=" ">
<polygon fill="white" stroke="#666666" points="647.12,-96.62 469.12,-96.62 469.12,-75.88 647.12,-75.88 647.12,-96.62"/>
<text text-anchor="middle" x="558.12" y="-83.12" font-family="Helvetica,sans-Serif" font-size="10.00">lib/Analysis/SourceRefLattice.cpp</text>
</a>
</g>
</g>
<!-- Node2&#45;&gt;Node11 -->
<g id="edge22_Node000002_Node000011" class="edge">
<title>Node2&#45;&gt;Node11</title>
<g id="a_edge22_Node000002_Node000011"><a xlink:title=" ">
<path fill="none" stroke="#63b8ff" d="M637.14,-340.59C626.43,-332.59 615.65,-322.74 608.12,-311.5 560.19,-239.91 557.55,-129.48 557.89,-96.72"/>
<polygon fill="#63b8ff" stroke="#63b8ff" points="635.03,-343.38 645.22,-346.27 639.05,-337.65 635.03,-343.38"/>
</a>
</g>
</g>
<!-- Node14 -->
<g id="Node000014" class="node">
<title>Node14</title>
<g id="a_Node000014"><a xlink:href="LLZKLoweringUtils_8h.html" target="_top" xlink:title=" ">
<polygon fill="white" stroke="#666666" points="917.38,-311.5 788.88,-311.5 788.88,-278 917.38,-278 917.38,-311.5"/>
<text text-anchor="start" x="796.88" y="-298" font-family="Helvetica,sans-Serif" font-size="10.00">include/llzk/Transforms</text>
<text text-anchor="middle" x="853.12" y="-285.25" font-family="Helvetica,sans-Serif" font-size="10.00">/LLZKLoweringUtils.h</text>
</a>
</g>
</g>
<!-- Node2&#45;&gt;Node14 -->
<g id="edge18_Node000002_Node000014" class="edge">
<title>Node2&#45;&gt;Node14</title>
<g id="a_edge18_Node000002_Node000014"><a xlink:title=" ">
<path fill="none" stroke="#63b8ff" d="M728.31,-343.08C754.58,-333.12 785.86,-321.26 810.53,-311.9"/>
<polygon fill="#63b8ff" stroke="#63b8ff" points="727.28,-339.73 719.18,-346.55 729.77,-346.27 727.28,-339.73"/>
</a>
</g>
</g>
<!-- Node2&#45;&gt;Node17 -->
<g id="edge23_Node000002_Node000017" class="edge">
<title>Node2&#45;&gt;Node17</title>
<g id="a_edge23_Node000002_Node000017"><a xlink:title=" ">
<path fill="none" stroke="#63b8ff" d="M609.04,-359.2C507.87,-352.47 308.68,-337.13 141.12,-311.5 130.6,-309.89 119.33,-307.75 108.81,-305.56"/>
<polygon fill="#63b8ff" stroke="#63b8ff" points="608.58,-362.68 618.79,-359.84 609.04,-355.69 608.58,-362.68"/>
</a>
</g>
</g>
<!-- Node2&#45;&gt;Node18 -->
<g id="edge24_Node000002_Node000018" class="edge">
<title>Node2&#45;&gt;Node18</title>
<g id="a_edge24_Node000002_Node000018"><a xlink:title=" ">
<path fill="none" stroke="#63b8ff" d="M608.93,-357.67C527.01,-350.15 383.47,-334.92 262.12,-311.5 259.48,-310.99 256.78,-310.43 254.06,-309.83"/>
<polygon fill="#63b8ff" stroke="#63b8ff" points="608.53,-361.15 618.81,-358.57 609.16,-354.18 608.53,-361.15"/>
</a>
</g>
</g>
<!-- Node2&#45;&gt;Node19 -->
<g id="edge25_Node000002_Node000019" class="edge">
<title>Node2&#45;&gt;Node19</title>
<g id="a_edge25_Node000002_Node000019"><a xlink:title=" ">
<path fill="none" stroke="#63b8ff" d="M609,-353.34C549,-343.95 458.23,-328.74 380.12,-311.5 377.12,-310.84 374.04,-310.12 370.94,-309.38"/>
<polygon fill="#63b8ff" stroke="#63b8ff" points="608.29,-356.77 618.71,-354.85 609.36,-349.86 608.29,-356.77"/>
</a>
</g>
</g>
<!-- Node20 -->
<g id="Node000020" class="node">
<title>Node20</title>
<g id="a_Node000020"><a xlink:href="Felt_2IR_2Ops_8cpp.html" target="_top" xlink:title=" ">
<polygon fill="white" stroke="#666666" points="1034.75,-311.5 935.5,-311.5 935.5,-278 1034.75,-278 1034.75,-311.5"/>
<text text-anchor="start" x="943.5" y="-298" font-family="Helvetica,sans-Serif" font-size="10.00">lib/Dialect/Felt/IR</text>
<text text-anchor="middle" x="985.12" y="-285.25" font-family="Helvetica,sans-Serif" font-size="10.00">/Ops.cpp</text>
</a>
</g>
</g>
<!-- Node2&#45;&gt;Node20 -->
<g id="edge26_Node000002_Node000020" class="edge">
<title>Node2&#45;&gt;Node20</title>
<g id="a_edge26_Node000002_Node000020"><a xlink:title=" ">
<path fill="none" stroke="#63b8ff" d="M741.11,-347.14C823.74,-329.43 847.1,-329.63 926.12,-311.5 929.12,-310.81 932.2,-310.08 935.29,-309.32"/>
<polygon fill="#63b8ff" stroke="#63b8ff" points="740.4,-343.71 731.37,-349.26 741.89,-350.55 740.4,-343.71"/>
</a>
</g>
</g>
<!-- Node21 -->
<g id="Node000021" class="node">
<title>Node21</title>
<g id="a_Node000021"><a xlink:href="Global_2IR_2Ops_8cpp.html" target="_top" xlink:title=" ">
<polygon fill="white" stroke="#666666" points="1153.12,-311.5 1053.12,-311.5 1053.12,-278 1153.12,-278 1153.12,-311.5"/>
<text text-anchor="start" x="1061.12" y="-298" font-family="Helvetica,sans-Serif" font-size="10.00">lib/Dialect/Global</text>
<text text-anchor="middle" x="1103.12" y="-285.25" font-family="Helvetica,sans-Serif" font-size="10.00">/IR/Ops.cpp</text>
</a>
</g>
</g>
<!-- Node2&#45;&gt;Node21 -->
<g id="edge27_Node000002_Node000021" class="edge">
<title>Node2&#45;&gt;Node21</title>
<g id="a_edge27_Node000002_Node000021"><a xlink:title=" ">
<path fill="none" stroke="#63b8ff" d="M740.98,-347.32C875.43,-323.86 913.6,-336.49 1044.12,-311.5 1046.94,-310.96 1049.81,-310.36 1052.7,-309.72"/>
<polygon fill="#63b8ff" stroke="#63b8ff" points="740.56,-343.84 731.33,-349.05 741.79,-350.74 740.56,-343.84"/>
</a>
</g>
</g>
<!-- Node22 -->
<g id="Node000022" class="node">
<title>Node22</title>
<g id="a_Node000022"><a xlink:href="FlatteningPass_8cpp.html" target="_top" xlink:title="This file implements the &#45;llzk&#45;flatten pass.">
<polygon fill="white" stroke="#666666" points="1338.88,-311.5 1171.38,-311.5 1171.38,-278 1338.88,-278 1338.88,-311.5"/>
<text text-anchor="start" x="1179.38" y="-298" font-family="Helvetica,sans-Serif" font-size="10.00">lib/Dialect/Polymorphic</text>
<text text-anchor="middle" x="1255.12" y="-285.25" font-family="Helvetica,sans-Serif" font-size="10.00">/Transforms/FlatteningPass.cpp</text>
</a>
</g>
</g>
<!-- Node2&#45;&gt;Node22 -->
<g id="edge28_Node000002_Node000022" class="edge">
<title>Node2&#45;&gt;Node22</title>
<g id="a_edge28_Node000002_Node000022"><a xlink:title=" ">
<path fill="none" stroke="#63b8ff" d="M741.11,-347.36C927.29,-317.57 978.6,-334.81 1162.12,-311.5 1165.05,-311.13 1168.02,-310.73 1171.02,-310.31"/>
<polygon fill="#63b8ff" stroke="#63b8ff" points="740.62,-343.89 731.32,-348.95 741.75,-350.8 740.62,-343.89"/>
</a>
</g>
</g>
<!-- Node23 -->
<g id="Node000023" class="node">
<title>Node23</title>
<g id="a_Node000023"><a xlink:href="LLZKInlineStructsPass_8cpp.html" target="_top" xlink:title="This file implements the &#45;llzk&#45;inline&#45;structs pass.">
<polygon fill="white" stroke="#666666" points="1495.62,-311.5 1356.62,-311.5 1356.62,-278 1495.62,-278 1495.62,-311.5"/>
<text text-anchor="start" x="1364.62" y="-298" font-family="Helvetica,sans-Serif" font-size="10.00">lib/Transforms/LLZKInline</text>
<text text-anchor="middle" x="1426.12" y="-285.25" font-family="Helvetica,sans-Serif" font-size="10.00">StructsPass.cpp</text>
</a>
</g>
</g>
<!-- Node2&#45;&gt;Node23 -->
<g id="edge29_Node000002_Node000023" class="edge">
<title>Node2&#45;&gt;Node23</title>
<g id="a_edge29_Node000002_Node000023"><a xlink:title=" ">
<path fill="none" stroke="#63b8ff" d="M741.07,-347.41C1009.22,-308 1082.92,-345.94 1348.12,-311.5 1350.86,-311.14 1353.65,-310.75 1356.46,-310.32"/>
<polygon fill="#63b8ff" stroke="#63b8ff" points="740.68,-343.93 731.3,-348.87 741.71,-350.86 740.68,-343.93"/>
</a>
</g>
</g>
<!-- Node24 -->
<g id="Node000024" class="node">
<title>Node24</title>
<g id="a_Node000024"><a xlink:href="LLZKRedundantReadAndWriteEliminationPass_8cpp.html" target="_top" xlink:title="This file implements the &#45;llzk&#45;duplicate&#45;read&#45;write&#45;elim pass.">
<polygon fill="white" stroke="#666666" points="1696.75,-311.5 1513.5,-311.5 1513.5,-278 1696.75,-278 1696.75,-311.5"/>
<text text-anchor="start" x="1521.5" y="-298" font-family="Helvetica,sans-Serif" font-size="10.00">lib/Transforms/LLZKRedundant</text>
<text text-anchor="middle" x="1605.12" y="-285.25" font-family="Helvetica,sans-Serif" font-size="10.00">ReadAndWriteEliminationPass.cpp</text>
</a>
</g>
</g>
<!-- Node2&#45;&gt;Node24 -->
<g id="edge30_Node000002_Node000024" class="edge">
<title>Node2&#45;&gt;Node24</title>
<g id="a_edge30_Node000002_Node000024"><a xlink:title=" ">
<path fill="none" stroke="#63b8ff" d="M740.88,-347.46C1078.37,-299.56 1169.7,-345.69 1505.12,-311.5 1507.75,-311.23 1510.41,-310.94 1513.09,-310.63"/>
<polygon fill="#63b8ff" stroke="#63b8ff" points="740.7,-343.95 731.3,-348.84 741.69,-350.88 740.7,-343.95"/>
</a>
</g>
</g>
<!-- Node25 -->
<g id="Node000025" class="node">
<title>Node25</title>
<g id="a_Node000025"><a xlink:href="LLZKWhileToForPass_8cpp.html" target="_top" xlink:title="This file identifies scf.while loops that can be converted to scf.for loops and performs the conversi...">
<polygon fill="white" stroke="#666666" points="1853.62,-311.5 1714.62,-311.5 1714.62,-278 1853.62,-278 1853.62,-311.5"/>
<text text-anchor="start" x="1722.62" y="-298" font-family="Helvetica,sans-Serif" font-size="10.00">lib/Transforms/LLZKWhile</text>
<text text-anchor="middle" x="1784.12" y="-285.25" font-family="Helvetica,sans-Serif" font-size="10.00">ToForPass.cpp</text>
</a>
</g>
</g>
<!-- Node2&#45;&gt;Node25 -->
<g id="edge31_Node000002_Node000025" class="edge">
<title>Node2&#45;&gt;Node25</title>
<g id="a_edge31_Node000002_Node000025"><a xlink:title=" ">
<path fill="none" stroke="#63b8ff" d="M741.2,-347.44C1167.07,-289.1 1282.81,-361.78 1706.12,-311.5 1708.87,-311.17 1711.66,-310.8 1714.47,-310.4"/>
<polygon fill="#63b8ff" stroke="#63b8ff" points="740.72,-343.97 731.29,-348.81 741.68,-350.9 740.72,-343.97"/>
</a>
</g>
</g>
<!-- Node26 -->
<g id="Node000026" class="node">
<title>Node26</title>
<g id="a_Node000026"><a xlink:href="Interpreter_8cpp.html" target="_top" xlink:title=" ">
<polygon fill="white" stroke="#666666" points="2042.75,-305.12 1871.5,-305.12 1871.5,-284.38 2042.75,-284.38 2042.75,-305.12"/>
<text text-anchor="middle" x="1957.12" y="-291.62" font-family="Helvetica,sans-Serif" font-size="10.00">tools/llzk&#45;witgen/Interpreter.cpp</text>
</a>
</g>
</g>
<!-- Node2&#45;&gt;Node26 -->
<g id="edge32_Node000002_Node000026" class="edge">
<title>Node2&#45;&gt;Node26</title>
<g id="a_edge32_Node000002_Node000026"><a xlink:title=" ">
<path fill="none" stroke="#63b8ff" d="M741.18,-347.44C1236.29,-280.64 1369.53,-360.53 1863.12,-311.5 1877.12,-310.11 1892.19,-307.91 1906.07,-305.58"/>
<polygon fill="#63b8ff" stroke="#63b8ff" points="740.73,-343.97 731.29,-348.79 741.67,-350.91 740.73,-343.97"/>
</a>
</g>
</g>
<!-- Node27 -->
<g id="Node000027" class="node">
<title>Node27</title>
<g id="a_Node000027"><a xlink:href="WitgenLowering_8cpp.html" target="_top" xlink:title=" ">
<polygon fill="white" stroke="#666666" points="523.38,-311.5 388.88,-311.5 388.88,-278 523.38,-278 523.38,-311.5"/>
<text text-anchor="start" x="396.88" y="-298" font-family="Helvetica,sans-Serif" font-size="10.00">tools/llzk&#45;witgen/Witgen</text>
<text text-anchor="middle" x="456.12" y="-285.25" font-family="Helvetica,sans-Serif" font-size="10.00">Lowering.cpp</text>
</a>
</g>
</g>
<!-- Node2&#45;&gt;Node27 -->
<g id="edge33_Node000002_Node000027" class="edge">
<title>Node2&#45;&gt;Node27</title>
<g id="a_edge33_Node000002_Node000027"><a xlink:title=" ">
<path fill="none" stroke="#63b8ff" d="M611.84,-343.74C579.08,-333.65 539.56,-321.47 508.53,-311.9"/>
<polygon fill="#63b8ff" stroke="#63b8ff" points="610.64,-347.04 621.22,-346.64 612.7,-340.35 610.64,-347.04"/>
</a>
</g>
</g>
<!-- Node4 -->
<g id="Node000004" class="node">
<title>Node4</title>
<g id="a_Node000004"><a xlink:href="IntervalAnalysis_8cpp.html" target="_top" xlink:title=" ">
<polygon fill="white" stroke="#666666" points="782.25,-27.12 608,-27.12 608,-6.38 782.25,-6.38 782.25,-27.12"/>
<text text-anchor="middle" x="695.12" y="-13.62" font-family="Helvetica,sans-Serif" font-size="10.00">lib/Analysis/IntervalAnalysis.cpp</text>
</a>
</g>
</g>
<!-- Node3&#45;&gt;Node4 -->
<g id="edge3_Node000003_Node000004" class="edge">
<title>Node3&#45;&gt;Node4</title>
<g id="a_edge3_Node000003_Node000004"><a xlink:title=" ">
<path fill="none" stroke="#63b8ff" d="M1061.98,-69.2C960.17,-50.46 853.98,-36.38 781.6,-27.61"/>
<polygon fill="#63b8ff" stroke="#63b8ff" points="1061.13,-72.6 1071.6,-70.99 1062.41,-65.72 1061.13,-72.6"/>
</a>
</g>
</g>
<!-- Node5 -->
<g id="Node000005" class="node">
<title>Node5</title>
<g id="a_Node000005"><a xlink:href="IntervalAnalysisPass_8cpp.html" target="_top" xlink:title="This file implements the &#45;llzk&#45;print&#45;interval&#45;analysis pass.">
<polygon fill="white" stroke="#666666" points="1208.12,-33.5 1054.12,-33.5 1054.12,0 1208.12,0 1208.12,-33.5"/>
<text text-anchor="start" x="1062.12" y="-20" font-family="Helvetica,sans-Serif" font-size="10.00">lib/Analysis/IntervalAnalysis</text>
<text text-anchor="middle" x="1131.12" y="-7.25" font-family="Helvetica,sans-Serif" font-size="10.00">Pass.cpp</text>
</a>
</g>
</g>
<!-- Node3&#45;&gt;Node5 -->
<g id="edge4_Node000003_Node000005" class="edge">
<title>Node3&#45;&gt;Node5</title>
<g id="a_edge4_Node000003_Node000005"><a xlink:title=" ">
<path fill="none" stroke="#63b8ff" d="M1131.12,-57.81C1131.12,-49.59 1131.12,-40.84 1131.12,-33.63"/>
<polygon fill="#63b8ff" stroke="#63b8ff" points="1127.63,-57.74 1131.13,-67.74 1134.63,-57.74 1127.63,-57.74"/>
</a>
</g>
</g>
<!-- Node6&#45;&gt;Node4 -->
<g id="edge6_Node000006_Node000004" class="edge">
<title>Node6&#45;&gt;Node4</title>
<g id="a_edge6_Node000006_Node000004"><a xlink:title=" ">
<path fill="none" stroke="#63b8ff" d="M453.77,-127.78C449.23,-109.4 447.2,-85.58 460.12,-69.5 478.67,-46.42 548.73,-33.03 607.57,-25.68"/>
<polygon fill="#63b8ff" stroke="#63b8ff" points="450.35,-128.56 456.47,-137.21 457.08,-126.63 450.35,-128.56"/>
</a>
</g>
</g>
<!-- Node8 -->
<g id="Node000008" class="node">
<title>Node8</title>
<g id="a_Node000008"><a xlink:href="ConstraintDependencyGraph_8h.html" target="_top" xlink:title=" ">
<polygon fill="white" stroke="#666666" points="842.25,-172.5 674,-172.5 674,-139 842.25,-139 842.25,-172.5"/>
<text text-anchor="start" x="682" y="-159" font-family="Helvetica,sans-Serif" font-size="10.00">include/llzk/Analysis</text>
<text text-anchor="middle" x="758.12" y="-146.25" font-family="Helvetica,sans-Serif" font-size="10.00">/ConstraintDependencyGraph.h</text>
</a>
</g>
</g>
<!-- Node7&#45;&gt;Node8 -->
<g id="edge8_Node000007_Node000008" class="edge">
<title>Node7&#45;&gt;Node8</title>
<g id="a_edge8_Node000007_Node000008"><a xlink:title=" ">
<path fill="none" stroke="#63b8ff" d="M700.76,-269.73C708.63,-261.46 716.86,-251.81 723.12,-242 737.34,-219.76 747.77,-190.77 753.39,-172.98"/>
<polygon fill="#63b8ff" stroke="#63b8ff" points="698.4,-267.14 693.85,-276.71 703.38,-272.06 698.4,-267.14"/>
</a>
</g>
</g>
<!-- Node12 -->
<g id="Node000012" class="node">
<title>Node12</title>
<g id="a_Node000012"><a xlink:href="SourceRefLattice_8h.html" target="_top" xlink:title=" ">
<polygon fill="white" stroke="#666666" points="714,-242 598.25,-242 598.25,-208.5 714,-208.5 714,-242"/>
<text text-anchor="start" x="606.25" y="-228.5" font-family="Helvetica,sans-Serif" font-size="10.00">include/llzk/Analysis</text>
<text text-anchor="middle" x="656.12" y="-215.75" font-family="Helvetica,sans-Serif" font-size="10.00">/SourceRefLattice.h</text>
</a>
</g>
</g>
<!-- Node7&#45;&gt;Node12 -->
<g id="edge13_Node000007_Node000012" class="edge">
<title>Node7&#45;&gt;Node12</title>
<g id="a_edge13_Node000007_Node000012"><a xlink:title=" ">
<path fill="none" stroke="#63b8ff" d="M667.56,-266.89C665.2,-258.5 662.67,-249.51 660.6,-242.13"/>
<polygon fill="#63b8ff" stroke="#63b8ff" points="664.13,-267.62 670.21,-276.3 670.87,-265.72 664.13,-267.62"/>
</a>
</g>
</g>
<!-- Node13 -->
<g id="Node000013" class="node">
<title>Node13</title>
<g id="a_Node000013"><a xlink:href="SourceRef_8cpp.html" target="_top" xlink:title=" ">
<polygon fill="white" stroke="#666666" points="952.25,-235.62 808,-235.62 808,-214.88 952.25,-214.88 952.25,-235.62"/>
<text text-anchor="middle" x="880.12" y="-222.12" font-family="Helvetica,sans-Serif" font-size="10.00">lib/Analysis/SourceRef.cpp</text>
</a>
</g>
</g>
<!-- Node7&#45;&gt;Node13 -->
<g id="edge17_Node000007_Node000013" class="edge">
<title>Node7&#45;&gt;Node13</title>
<g id="a_edge17_Node000007_Node000013"><a xlink:title=" ">
<path fill="none" stroke="#63b8ff" d="M735.12,-274C772.91,-261.55 820.07,-246.02 850.15,-236.12"/>
<polygon fill="#63b8ff" stroke="#63b8ff" points="734.07,-270.66 725.67,-277.11 736.26,-277.31 734.07,-270.66"/>
</a>
</g>
</g>
<!-- Node8&#45;&gt;Node3 -->
<g id="edge9_Node000008_Node000003" class="edge">
<title>Node8&#45;&gt;Node3</title>
<g id="a_edge9_Node000008_Node000003"><a xlink:title=" ">
<path fill="none" stroke="#63b8ff" d="M853.76,-139.26C928.07,-127.09 1024.88,-110.92 1064.12,-103 1067.05,-102.41 1070.05,-101.78 1073.07,-101.13"/>
<polygon fill="#63b8ff" stroke="#63b8ff" points="853.3,-135.78 844,-140.85 854.43,-142.69 853.3,-135.78"/>
</a>
</g>
</g>
<!-- Node9 -->
<g id="Node000009" class="node">
<title>Node9</title>
<g id="a_Node000009"><a xlink:href="ConstraintDependencyGraph_8cpp.html" target="_top" xlink:title=" ">
<polygon fill="white" stroke="#666666" points="851.25,-103 665,-103 665,-69.5 851.25,-69.5 851.25,-103"/>
<text text-anchor="start" x="673" y="-89.5" font-family="Helvetica,sans-Serif" font-size="10.00">lib/Analysis/ConstraintDependency</text>
<text text-anchor="middle" x="758.12" y="-76.75" font-family="Helvetica,sans-Serif" font-size="10.00">Graph.cpp</text>
</a>
</g>
</g>
<!-- Node8&#45;&gt;Node9 -->
<g id="edge10_Node000008_Node000009" class="edge">
<title>Node8&#45;&gt;Node9</title>
<g id="a_edge10_Node000008_Node000009"><a xlink:title=" ">
<path fill="none" stroke="#63b8ff" d="M758.12,-127.31C758.12,-119.09 758.12,-110.34 758.12,-103.13"/>
<polygon fill="#63b8ff" stroke="#63b8ff" points="754.63,-127.24 758.13,-137.24 761.63,-127.24 754.63,-127.24"/>
</a>
</g>
</g>
<!-- Node10 -->
<g id="Node000010" class="node">
<title>Node10</title>
<g id="a_Node000010"><a xlink:href="ConstraintDependencyGraphPass_8cpp.html" target="_top" xlink:title="This file implements the &#45;llzk&#45;print&#45;constraint&#45;dependency&#45;graphs pass.">
<polygon fill="white" stroke="#666666" points="1055.25,-103 869,-103 869,-69.5 1055.25,-69.5 1055.25,-103"/>
<text text-anchor="start" x="877" y="-89.5" font-family="Helvetica,sans-Serif" font-size="10.00">lib/Analysis/ConstraintDependency</text>
<text text-anchor="middle" x="962.12" y="-76.75" font-family="Helvetica,sans-Serif" font-size="10.00">GraphPass.cpp</text>
</a>
</g>
</g>
<!-- Node8&#45;&gt;Node10 -->
<g id="edge11_Node000008_Node000010" class="edge">
<title>Node8&#45;&gt;Node10</title>
<g id="a_edge11_Node000008_Node000010"><a xlink:title=" ">
<path fill="none" stroke="#63b8ff" d="M817.87,-134.98C848.23,-124.94 884.66,-112.88 913.31,-103.4"/>
<polygon fill="#63b8ff" stroke="#63b8ff" points="816.82,-131.64 808.43,-138.11 819.02,-138.29 816.82,-131.64"/>
</a>
</g>
</g>
<!-- Node8&#45;&gt;Node11 -->
<g id="edge12_Node000008_Node000011" class="edge">
<title>Node8&#45;&gt;Node11</title>
<g id="a_edge12_Node000008_Node000011"><a xlink:title=" ">
<path fill="none" stroke="#63b8ff" d="M699.59,-135C662.72,-122.55 616.71,-107.02 587.37,-97.12"/>
<polygon fill="#63b8ff" stroke="#63b8ff" points="698.19,-138.22 708.79,-138.1 700.43,-131.58 698.19,-138.22"/>
</a>
</g>
</g>
<!-- Node12&#45;&gt;Node8 -->
<g id="edge14_Node000012_Node000008" class="edge">
<title>Node12&#45;&gt;Node8</title>
<g id="a_edge14_Node000012_Node000008"><a xlink:title=" ">
<path fill="none" stroke="#63b8ff" d="M690.09,-201.77C704.44,-192.28 720.81,-181.45 733.89,-172.79"/>
<polygon fill="#63b8ff" stroke="#63b8ff" points="688.23,-198.81 681.82,-207.25 692.09,-204.65 688.23,-198.81"/>
</a>
</g>
</g>
<!-- Node12&#45;&gt;Node9 -->
<g id="edge15_Node000012_Node000009" class="edge">
<title>Node12&#45;&gt;Node9</title>
<g id="a_edge15_Node000012_Node000009"><a xlink:title=" ">
<path fill="none" stroke="#63b8ff" d="M652.84,-196.62C652.13,-178.78 653.99,-155.85 665.12,-139 675.72,-122.97 693.06,-111.42 709.91,-103.36"/>
<polygon fill="#63b8ff" stroke="#63b8ff" points="649.34,-196.79 653.55,-206.51 656.33,-196.29 649.34,-196.79"/>
</a>
</g>
</g>
<!-- Node12&#45;&gt;Node11 -->
<g id="edge16_Node000012_Node000011" class="edge">
<title>Node12&#45;&gt;Node11</title>
<g id="a_edge16_Node000012_Node000011"><a xlink:title=" ">
<path fill="none" stroke="#63b8ff" d="M638.1,-199.06C616.15,-168.37 580.14,-118.03 565.08,-96.98"/>
<polygon fill="#63b8ff" stroke="#63b8ff" points="635.15,-200.94 643.81,-207.04 640.84,-196.87 635.15,-200.94"/>
</a>
</g>
</g>
<!-- Node14&#45;&gt;Node13 -->
<g id="edge19_Node000014_Node000013" class="edge">
<title>Node14&#45;&gt;Node13</title>
<g id="a_edge19_Node000014_Node000013"><a xlink:title=" ">
<path fill="none" stroke="#63b8ff" d="M863.7,-267.32C868.09,-256.33 872.92,-244.27 876.2,-236.07"/>
<polygon fill="#63b8ff" stroke="#63b8ff" points="860.55,-265.76 860.09,-276.35 867.05,-268.36 860.55,-265.76"/>
</a>
</g>
</g>
<!-- Node15 -->
<g id="Node000015" class="node">
<title>Node15</title>
<g id="a_Node000015"><a xlink:href="LLZKLoweringUtils_8cpp.html" target="_top" xlink:title=" ">
<polygon fill="white" stroke="#666666" points="1322.25,-242 1166,-242 1166,-208.5 1322.25,-208.5 1322.25,-242"/>
<text text-anchor="start" x="1174" y="-228.5" font-family="Helvetica,sans-Serif" font-size="10.00">lib/Transforms/LLZKLowering</text>
<text text-anchor="middle" x="1244.12" y="-215.75" font-family="Helvetica,sans-Serif" font-size="10.00">Utils.cpp</text>
</a>
</g>
</g>
<!-- Node14&#45;&gt;Node15 -->
<g id="edge20_Node000014_Node000015" class="edge">
<title>Node14&#45;&gt;Node15</title>
<g id="a_edge20_Node000014_Node000015"><a xlink:title=" ">
<path fill="none" stroke="#63b8ff" d="M928.63,-277.59C1030.18,-259.03 1058.16,-258.67 1157.12,-242 1160,-241.52 1162.93,-241.02 1165.89,-240.51"/>
<polygon fill="#63b8ff" stroke="#63b8ff" points="928.26,-274.1 919.06,-279.36 929.53,-280.99 928.26,-274.1"/>
</a>
</g>
</g>
<!-- Node16 -->
<g id="Node000016" class="node">
<title>Node16</title>
<g id="a_Node000016"><a xlink:href="LLZKPolyLoweringPass_8cpp.html" target="_top" xlink:title="This file implements the &#45;llzk&#45;poly&#45;lowering pass.">
<polygon fill="white" stroke="#666666" points="1147.75,-242 970.5,-242 970.5,-208.5 1147.75,-208.5 1147.75,-242"/>
<text text-anchor="start" x="978.5" y="-228.5" font-family="Helvetica,sans-Serif" font-size="10.00">lib/Transforms/LLZKPolyLowering</text>
<text text-anchor="middle" x="1059.12" y="-215.75" font-family="Helvetica,sans-Serif" font-size="10.00">Pass.cpp</text>
</a>
</g>
</g>
<!-- Node14&#45;&gt;Node16 -->
<g id="edge21_Node000014_Node000016" class="edge">
<title>Node14&#45;&gt;Node16</title>
<g id="a_edge21_Node000014_Node000016"><a xlink:title=" ">
<path fill="none" stroke="#63b8ff" d="M913.06,-274.11C943.79,-264.04 980.77,-251.92 1009.83,-242.4"/>
<polygon fill="#63b8ff" stroke="#63b8ff" points="912.32,-270.67 903.91,-277.11 914.5,-277.32 912.32,-270.67"/>
</a>
</g>
</g>
</g>
</svg>
