<?xml version="1.0" encoding="UTF-8" standalone="no"?>
<!DOCTYPE svg PUBLIC "-//W3C//DTD SVG 1.1//EN"
 "http://www.w3.org/Graphics/SVG/1.1/DTD/svg11.dtd">
<!-- Generated by graphviz version 12.2.1 (0)
 -->
<!-- Title: include/llzk/Dialect/Felt/IR/Ops.h Pages: 1 -->
<svg width="2516pt" height="389pt"
 viewBox="0.00 0.00 2516.25 389.00" xmlns="http://www.w3.org/2000/svg" xmlns:xlink="http://www.w3.org/1999/xlink">
<g id="graph0" class="graph" transform="scale(1 1) rotate(0) translate(4 385)">
<title>include/llzk/Dialect/Felt/IR/Ops.h</title>
<!-- Node1 -->
<g id="Node000001" class="node">
<title>Node1</title>
<g id="a_Node000001"><a xlink:title=" ">
<polygon fill="#999999" stroke="#666666" points="1293.5,-381 1184.5,-381 1184.5,-347.5 1293.5,-347.5 1293.5,-381"/>
<text text-anchor="start" x="1192.5" y="-367.5" font-family="Helvetica,sans-Serif" font-size="10.00">include/llzk/Dialect</text>
<text text-anchor="middle" x="1239" y="-354.75" font-family="Helvetica,sans-Serif" font-size="10.00">/Felt/IR/Ops.h</text>
</a>
</g>
</g>
<!-- Node2 -->
<g id="Node000002" class="node">
<title>Node2</title>
<g id="a_Node000002"><a xlink:href="IntervalAnalysis_8h.html" target="_top" xlink:title=" ">
<polygon fill="white" stroke="#666666" points="134.88,-103 19.12,-103 19.12,-69.5 134.88,-69.5 134.88,-103"/>
<text text-anchor="start" x="27.12" y="-89.5" font-family="Helvetica,sans-Serif" font-size="10.00">include/llzk/Analysis</text>
<text text-anchor="middle" x="77" y="-76.75" font-family="Helvetica,sans-Serif" font-size="10.00">/IntervalAnalysis.h</text>
</a>
</g>
</g>
<!-- Node1&#45;&gt;Node2 -->
<g id="edge1_Node000001_Node000002" class="edge">
<title>Node1&#45;&gt;Node2</title>
<g id="a_edge1_Node000001_Node000002"><a xlink:title=" ">
<path fill="none" stroke="#63b8ff" d="M1172.87,-362.2C1015.28,-359.13 621.3,-347.94 495,-311.5 330.82,-264.12 158.17,-146.22 98.65,-103.25"/>
<polygon fill="#63b8ff" stroke="#63b8ff" points="1172.68,-365.7 1182.74,-362.39 1172.81,-358.7 1172.68,-365.7"/>
</a>
</g>
</g>
<!-- Node5 -->
<g id="Node000005" class="node">
<title>Node5</title>
<g id="a_Node000005"><a xlink:href="Matchers_8h.html" target="_top" xlink:title=" ">
<polygon fill="white" stroke="#666666" points="807.88,-172.5 692.12,-172.5 692.12,-139 807.88,-139 807.88,-172.5"/>
<text text-anchor="start" x="700.12" y="-159" font-family="Helvetica,sans-Serif" font-size="10.00">include/llzk/Analysis</text>
<text text-anchor="middle" x="750" y="-146.25" font-family="Helvetica,sans-Serif" font-size="10.00">/Matchers.h</text>
</a>
</g>
</g>
<!-- Node1&#45;&gt;Node5 -->
<g id="edge4_Node000001_Node000005" class="edge">
<title>Node1&#45;&gt;Node5</title>
<g id="a_edge4_Node000001_Node000005"><a xlink:title=" ">
<path fill="none" stroke="#63b8ff" d="M1172.92,-361.71C1036.94,-357.86 735.91,-345.55 705,-311.5 674.23,-277.6 688.96,-251.38 705,-208.5 710.17,-194.67 720.89,-182.1 730.57,-172.81"/>
<polygon fill="#63b8ff" stroke="#63b8ff" points="1172.77,-365.21 1182.86,-361.99 1172.96,-358.21 1172.77,-365.21"/>
</a>
</g>
</g>
<!-- Node6 -->
<g id="Node000006" class="node">
<title>Node6</title>
<g id="a_Node000006"><a xlink:href="SourceRef_8h.html" target="_top" xlink:title=" ">
<polygon fill="white" stroke="#666666" points="619.88,-311.5 504.12,-311.5 504.12,-278 619.88,-278 619.88,-311.5"/>
<text text-anchor="start" x="512.12" y="-298" font-family="Helvetica,sans-Serif" font-size="10.00">include/llzk/Analysis</text>
<text text-anchor="middle" x="562" y="-285.25" font-family="Helvetica,sans-Serif" font-size="10.00">/SourceRef.h</text>
</a>
</g>
</g>
<!-- Node1&#45;&gt;Node6 -->
<g id="edge6_Node000001_Node000006" class="edge">
<title>Node1&#45;&gt;Node6</title>
<g id="a_edge6_Node000001_Node000006"><a xlink:title=" ">
<path fill="none" stroke="#63b8ff" d="M1172.68,-360.4C1061,-354.98 828.54,-340.97 634,-311.5 629.45,-310.81 624.75,-310 620.04,-309.12"/>
<polygon fill="#63b8ff" stroke="#63b8ff" points="1172.41,-363.89 1182.56,-360.87 1172.74,-356.9 1172.41,-363.89"/>
</a>
</g>
</g>
<!-- Node10 -->
<g id="Node000010" class="node">
<title>Node10</title>
<g id="a_Node000010"><a xlink:href="SourceRefLattice_8cpp.html" target="_top" xlink:title=" ">
<polygon fill="white" stroke="#666666" points="739,-96.62 561,-96.62 561,-75.88 739,-75.88 739,-96.62"/>
<text text-anchor="middle" x="650" y="-83.12" font-family="Helvetica,sans-Serif" font-size="10.00">lib/Analysis/SourceRefLattice.cpp</text>
</a>
</g>
</g>
<!-- Node1&#45;&gt;Node10 -->
<g id="edge21_Node000001_Node000010" class="edge">
<title>Node1&#45;&gt;Node10</title>
<g id="a_edge21_Node000001_Node000010"><a xlink:title=" ">
<path fill="none" stroke="#63b8ff" d="M1172.7,-361.58C1033.12,-357.41 718.91,-344.45 684,-311.5 621.58,-252.57 640.81,-131.39 647.9,-96.71"/>
<polygon fill="#63b8ff" stroke="#63b8ff" points="1172.44,-365.07 1182.53,-361.86 1172.64,-358.07 1172.44,-365.07"/>
</a>
</g>
</g>
<!-- Node13 -->
<g id="Node000013" class="node">
<title>Node13</title>
<g id="a_Node000013"><a xlink:href="LLZKLoweringUtils_8h.html" target="_top" xlink:title=" ">
<polygon fill="white" stroke="#666666" points="842.25,-311.5 713.75,-311.5 713.75,-278 842.25,-278 842.25,-311.5"/>
<text text-anchor="start" x="721.75" y="-298" font-family="Helvetica,sans-Serif" font-size="10.00">include/llzk/Transforms</text>
<text text-anchor="middle" x="778" y="-285.25" font-family="Helvetica,sans-Serif" font-size="10.00">/LLZKLoweringUtils.h</text>
</a>
</g>
</g>
<!-- Node1&#45;&gt;Node13 -->
<g id="edge17_Node000001_Node000013" class="edge">
<title>Node1&#45;&gt;Node13</title>
<g id="a_edge17_Node000001_Node000013"><a xlink:title=" ">
<path fill="none" stroke="#63b8ff" d="M1173.16,-356.09C1095.78,-347.31 963.63,-331.13 851,-311.5 848.19,-311.01 845.32,-310.49 842.43,-309.94"/>
<polygon fill="#63b8ff" stroke="#63b8ff" points="1172.34,-359.52 1182.67,-357.17 1173.12,-352.57 1172.34,-359.52"/>
</a>
</g>
</g>
<!-- Node16 -->
<g id="Node000016" class="node">
<title>Node16</title>
<g id="a_Node000016"><a xlink:href="Felt_8cpp.html" target="_top" xlink:title=" ">
<polygon fill="white" stroke="#666666" points="992.12,-305.12 859.88,-305.12 859.88,-284.38 992.12,-284.38 992.12,-305.12"/>
<text text-anchor="middle" x="926" y="-291.62" font-family="Helvetica,sans-Serif" font-size="10.00">lib/CAPI/Dialect/Felt.cpp</text>
</a>
</g>
</g>
<!-- Node1&#45;&gt;Node16 -->
<g id="edge22_Node000001_Node000016" class="edge">
<title>Node1&#45;&gt;Node16</title>
<g id="a_edge22_Node000001_Node000016"><a xlink:title=" ">
<path fill="none" stroke="#63b8ff" d="M1173.17,-349.05C1112.72,-336.02 1024.72,-317.04 971.65,-305.6"/>
<polygon fill="#63b8ff" stroke="#63b8ff" points="1172.13,-352.41 1182.64,-351.1 1173.6,-345.57 1172.13,-352.41"/>
</a>
</g>
</g>
<!-- Node17 -->
<g id="Node000017" class="node">
<title>Node17</title>
<g id="a_Node000017"><a xlink:href="Cast_2IR_2Ops_8cpp.html" target="_top" xlink:title=" ">
<polygon fill="white" stroke="#666666" points="1113.5,-311.5 1010.5,-311.5 1010.5,-278 1113.5,-278 1113.5,-311.5"/>
<text text-anchor="start" x="1018.5" y="-298" font-family="Helvetica,sans-Serif" font-size="10.00">lib/Dialect/Cast/IR</text>
<text text-anchor="middle" x="1062" y="-285.25" font-family="Helvetica,sans-Serif" font-size="10.00">/Ops.cpp</text>
</a>
</g>
</g>
<!-- Node1&#45;&gt;Node17 -->
<g id="edge23_Node000001_Node000017" class="edge">
<title>Node1&#45;&gt;Node17</title>
<g id="a_edge23_Node000001_Node000017"><a xlink:title=" ">
<path fill="none" stroke="#63b8ff" d="M1186.12,-343.08C1159.99,-333.12 1128.89,-321.26 1104.36,-311.9"/>
<polygon fill="#63b8ff" stroke="#63b8ff" points="1184.6,-346.25 1195.19,-346.54 1187.09,-339.71 1184.6,-346.25"/>
</a>
</g>
</g>
<!-- Node18 -->
<g id="Node000018" class="node">
<title>Node18</title>
<g id="a_Node000018"><a xlink:href="Felt_2IR_2Dialect_8cpp.html" target="_top" xlink:title=" ">
<polygon fill="white" stroke="#666666" points="1230.62,-311.5 1131.38,-311.5 1131.38,-278 1230.62,-278 1230.62,-311.5"/>
<text text-anchor="start" x="1139.38" y="-298" font-family="Helvetica,sans-Serif" font-size="10.00">lib/Dialect/Felt/IR</text>
<text text-anchor="middle" x="1181" y="-285.25" font-family="Helvetica,sans-Serif" font-size="10.00">/Dialect.cpp</text>
</a>
</g>
</g>
<!-- Node1&#45;&gt;Node18 -->
<g id="edge24_Node000001_Node000018" class="edge">
<title>Node1&#45;&gt;Node18</title>
<g id="a_edge24_Node000001_Node000018"><a xlink:title=" ">
<path fill="none" stroke="#63b8ff" d="M1217.87,-338.66C1210.12,-329.64 1201.57,-319.68 1194.65,-311.63"/>
<polygon fill="#63b8ff" stroke="#63b8ff" points="1215.1,-340.8 1224.27,-346.11 1220.41,-336.24 1215.1,-340.8"/>
</a>
</g>
</g>
<!-- Node19 -->
<g id="Node000019" class="node">
<title>Node19</title>
<g id="a_Node000019"><a xlink:href="Felt_2IR_2Ops_8cpp.html" target="_top" xlink:title=" ">
<polygon fill="white" stroke="#666666" points="1347.62,-311.5 1248.38,-311.5 1248.38,-278 1347.62,-278 1347.62,-311.5"/>
<text text-anchor="start" x="1256.38" y="-298" font-family="Helvetica,sans-Serif" font-size="10.00">lib/Dialect/Felt/IR</text>
<text text-anchor="middle" x="1298" y="-285.25" font-family="Helvetica,sans-Serif" font-size="10.00">/Ops.cpp</text>
</a>
</g>
</g>
<!-- Node1&#45;&gt;Node19 -->
<g id="edge25_Node000001_Node000019" class="edge">
<title>Node1&#45;&gt;Node19</title>
<g id="a_edge25_Node000001_Node000019"><a xlink:title=" ">
<path fill="none" stroke="#63b8ff" d="M1260.5,-338.66C1268.38,-329.64 1277.08,-319.68 1284.12,-311.63"/>
<polygon fill="#63b8ff" stroke="#63b8ff" points="1257.92,-336.28 1253.98,-346.11 1263.19,-340.89 1257.92,-336.28"/>
</a>
</g>
</g>
<!-- Node20 -->
<g id="Node000020" class="node">
<title>Node20</title>
<g id="a_Node000020"><a xlink:href="Global_2IR_2Ops_8cpp.html" target="_top" xlink:title=" ">
<polygon fill="white" stroke="#666666" points="1466,-311.5 1366,-311.5 1366,-278 1466,-278 1466,-311.5"/>
<text text-anchor="start" x="1374" y="-298" font-family="Helvetica,sans-Serif" font-size="10.00">lib/Dialect/Global</text>
<text text-anchor="middle" x="1416" y="-285.25" font-family="Helvetica,sans-Serif" font-size="10.00">/IR/Ops.cpp</text>
</a>
</g>
</g>
<!-- Node1&#45;&gt;Node20 -->
<g id="edge26_Node000001_Node000020" class="edge">
<title>Node1&#45;&gt;Node20</title>
<g id="a_edge26_Node000001_Node000020"><a xlink:title=" ">
<path fill="none" stroke="#63b8ff" d="M1291.88,-343.08C1318.01,-333.12 1349.11,-321.26 1373.64,-311.9"/>
<polygon fill="#63b8ff" stroke="#63b8ff" points="1290.91,-339.71 1282.81,-346.54 1293.4,-346.25 1290.91,-339.71"/>
</a>
</g>
</g>
<!-- Node21 -->
<g id="Node000021" class="node">
<title>Node21</title>
<g id="a_Node000021"><a xlink:href="FlatteningPass_8cpp.html" target="_top" xlink:title="This file implements the &#45;llzk&#45;flatten pass.">
<polygon fill="white" stroke="#666666" points="1651.75,-311.5 1484.25,-311.5 1484.25,-278 1651.75,-278 1651.75,-311.5"/>
<text text-anchor="start" x="1492.25" y="-298" font-family="Helvetica,sans-Serif" font-size="10.00">lib/Dialect/Polymorphic</text>
<text text-anchor="middle" x="1568" y="-285.25" font-family="Helvetica,sans-Serif" font-size="10.00">/Transforms/FlatteningPass.cpp</text>
</a>
</g>
</g>
<!-- Node1&#45;&gt;Node21 -->
<g id="edge27_Node000001_Node000021" class="edge">
<title>Node1&#45;&gt;Node21</title>
<g id="a_edge27_Node000001_Node000021"><a xlink:title=" ">
<path fill="none" stroke="#63b8ff" d="M1304.67,-349.78C1357.69,-338.9 1432.49,-323.55 1488.83,-311.99"/>
<polygon fill="#63b8ff" stroke="#63b8ff" points="1304.27,-346.29 1295.18,-351.72 1305.68,-353.14 1304.27,-346.29"/>
</a>
</g>
</g>
<!-- Node22 -->
<g id="Node000022" class="node">
<title>Node22</title>
<g id="a_Node000022"><a xlink:href="LLZKInlineStructsPass_8cpp.html" target="_top" xlink:title="This file implements the &#45;llzk&#45;inline&#45;structs pass.">
<polygon fill="white" stroke="#666666" points="1808.5,-311.5 1669.5,-311.5 1669.5,-278 1808.5,-278 1808.5,-311.5"/>
<text text-anchor="start" x="1677.5" y="-298" font-family="Helvetica,sans-Serif" font-size="10.00">lib/Transforms/LLZKInline</text>
<text text-anchor="middle" x="1739" y="-285.25" font-family="Helvetica,sans-Serif" font-size="10.00">StructsPass.cpp</text>
</a>
</g>
</g>
<!-- Node1&#45;&gt;Node22 -->
<g id="edge28_Node000001_Node000022" class="edge">
<title>Node1&#45;&gt;Node22</title>
<g id="a_edge28_Node000001_Node000022"><a xlink:title=" ">
<path fill="none" stroke="#63b8ff" d="M1305.13,-356.74C1388.41,-348.17 1535.74,-331.8 1661,-311.5 1663.73,-311.06 1666.5,-310.59 1669.31,-310.1"/>
<polygon fill="#63b8ff" stroke="#63b8ff" points="1304.92,-353.24 1295.32,-357.74 1305.63,-360.2 1304.92,-353.24"/>
</a>
</g>
</g>
<!-- Node23 -->
<g id="Node000023" class="node">
<title>Node23</title>
<g id="a_Node000023"><a xlink:href="LLZKRedundantReadAndWriteEliminationPass_8cpp.html" target="_top" xlink:title="This file implements the &#45;llzk&#45;duplicate&#45;read&#45;write&#45;elim pass.">
<polygon fill="white" stroke="#666666" points="2009.62,-311.5 1826.38,-311.5 1826.38,-278 2009.62,-278 2009.62,-311.5"/>
<text text-anchor="start" x="1834.38" y="-298" font-family="Helvetica,sans-Serif" font-size="10.00">lib/Transforms/LLZKRedundant</text>
<text text-anchor="middle" x="1918" y="-285.25" font-family="Helvetica,sans-Serif" font-size="10.00">ReadAndWriteEliminationPass.cpp</text>
</a>
</g>
</g>
<!-- Node1&#45;&gt;Node23 -->
<g id="edge29_Node000001_Node000023" class="edge">
<title>Node1&#45;&gt;Node23</title>
<g id="a_edge29_Node000001_Node000023"><a xlink:title=" ">
<path fill="none" stroke="#63b8ff" d="M1305.13,-358.79C1412.82,-351.2 1632.69,-334.35 1818,-311.5 1820.62,-311.18 1823.27,-310.84 1825.95,-310.49"/>
<polygon fill="#63b8ff" stroke="#63b8ff" points="1305.05,-355.29 1295.32,-359.48 1305.54,-362.27 1305.05,-355.29"/>
</a>
</g>
</g>
<!-- Node24 -->
<g id="Node000024" class="node">
<title>Node24</title>
<g id="a_Node000024"><a xlink:href="LLZKWhileToForPass_8cpp.html" target="_top" xlink:title="This file identifies scf.while loops that can be converted to scf.for loops and performs the conversi...">
<polygon fill="white" stroke="#666666" points="2166.5,-311.5 2027.5,-311.5 2027.5,-278 2166.5,-278 2166.5,-311.5"/>
<text text-anchor="start" x="2035.5" y="-298" font-family="Helvetica,sans-Serif" font-size="10.00">lib/Transforms/LLZKWhile</text>
<text text-anchor="middle" x="2097" y="-285.25" font-family="Helvetica,sans-Serif" font-size="10.00">ToForPass.cpp</text>
</a>
</g>
</g>
<!-- Node1&#45;&gt;Node24 -->
<g id="edge30_Node000001_Node000024" class="edge">
<title>Node1&#45;&gt;Node24</title>
<g id="a_edge30_Node000001_Node000024"><a xlink:title=" ">
<path fill="none" stroke="#63b8ff" d="M1304.93,-361.83C1439.64,-358.28 1755.94,-346.63 2019,-311.5 2021.74,-311.13 2024.53,-310.73 2027.34,-310.29"/>
<polygon fill="#63b8ff" stroke="#63b8ff" points="1305.04,-358.33 1295.13,-362.08 1305.22,-365.33 1305.04,-358.33"/>
</a>
</g>
</g>
<!-- Node25 -->
<g id="Node000025" class="node">
<title>Node25</title>
<g id="a_Node000025"><a xlink:href="Interpreter_8cpp.html" target="_top" xlink:title=" ">
<polygon fill="white" stroke="#666666" points="2355.62,-305.12 2184.38,-305.12 2184.38,-284.38 2355.62,-284.38 2355.62,-305.12"/>
<text text-anchor="middle" x="2270" y="-291.62" font-family="Helvetica,sans-Serif" font-size="10.00">tools/llzk&#45;witgen/Interpreter.cpp</text>
</a>
</g>
</g>
<!-- Node1&#45;&gt;Node25 -->
<g id="edge31_Node000001_Node000025" class="edge">
<title>Node1&#45;&gt;Node25</title>
<g id="a_edge31_Node000001_Node000025"><a xlink:title=" ">
<path fill="none" stroke="#63b8ff" d="M1304.88,-362.12C1458.15,-358.94 1850.38,-347.66 2176,-311.5 2189.49,-310 2203.98,-307.85 2217.44,-305.61"/>
<polygon fill="#63b8ff" stroke="#63b8ff" points="1305.27,-358.61 1295.34,-362.31 1305.41,-365.61 1305.27,-358.61"/>
</a>
</g>
</g>
<!-- Node26 -->
<g id="Node000026" class="node">
<title>Node26</title>
<g id="a_Node000026"><a xlink:href="WitgenLowering_8cpp.html" target="_top" xlink:title=" ">
<polygon fill="white" stroke="#666666" points="2508.25,-311.5 2373.75,-311.5 2373.75,-278 2508.25,-278 2508.25,-311.5"/>
<text text-anchor="start" x="2381.75" y="-298" font-family="Helvetica,sans-Serif" font-size="10.00">tools/llzk&#45;witgen/Witgen</text>
<text text-anchor="middle" x="2441" y="-285.25" font-family="Helvetica,sans-Serif" font-size="10.00">Lowering.cpp</text>
</a>
</g>
</g>
<!-- Node1&#45;&gt;Node26 -->
<g id="edge32_Node000001_Node000026" class="edge">
<title>Node1&#45;&gt;Node26</title>
<g id="a_edge32_Node000001_Node000026"><a xlink:title=" ">
<path fill="none" stroke="#63b8ff" d="M1305.01,-363.86C1479.09,-364.67 1964.79,-361.84 2365,-311.5 2367.81,-311.15 2370.67,-310.75 2373.55,-310.31"/>
<polygon fill="#63b8ff" stroke="#63b8ff" points="1305.28,-360.36 1295.26,-363.8 1305.24,-367.36 1305.28,-360.36"/>
</a>
</g>
</g>
<!-- Node3 -->
<g id="Node000003" class="node">
<title>Node3</title>
<g id="a_Node000003"><a xlink:href="IntervalAnalysis_8cpp.html" target="_top" xlink:title=" ">
<polygon fill="white" stroke="#666666" points="600.12,-27.12 425.88,-27.12 425.88,-6.38 600.12,-6.38 600.12,-27.12"/>
<text text-anchor="middle" x="513" y="-13.62" font-family="Helvetica,sans-Serif" font-size="10.00">lib/Analysis/IntervalAnalysis.cpp</text>
</a>
</g>
</g>
<!-- Node2&#45;&gt;Node3 -->
<g id="edge2_Node000002_Node000003" class="edge">
<title>Node2&#45;&gt;Node3</title>
<g id="a_edge2_Node000002_Node000003"><a xlink:title=" ">
<path fill="none" stroke="#63b8ff" d="M146.15,-69.2C247.95,-50.46 354.15,-36.38 426.52,-27.61"/>
<polygon fill="#63b8ff" stroke="#63b8ff" points="145.71,-65.72 136.52,-70.99 147,-72.6 145.71,-65.72"/>
</a>
</g>
</g>
<!-- Node4 -->
<g id="Node000004" class="node">
<title>Node4</title>
<g id="a_Node000004"><a xlink:href="IntervalAnalysisPass_8cpp.html" target="_top" xlink:title="This file implements the &#45;llzk&#45;print&#45;interval&#45;analysis pass.">
<polygon fill="white" stroke="#666666" points="154,-33.5 0,-33.5 0,0 154,0 154,-33.5"/>
<text text-anchor="start" x="8" y="-20" font-family="Helvetica,sans-Serif" font-size="10.00">lib/Analysis/IntervalAnalysis</text>
<text text-anchor="middle" x="77" y="-7.25" font-family="Helvetica,sans-Serif" font-size="10.00">Pass.cpp</text>
</a>
</g>
</g>
<!-- Node2&#45;&gt;Node4 -->
<g id="edge3_Node000002_Node000004" class="edge">
<title>Node2&#45;&gt;Node4</title>
<g id="a_edge3_Node000002_Node000004"><a xlink:title=" ">
<path fill="none" stroke="#63b8ff" d="M77,-57.81C77,-49.59 77,-40.84 77,-33.63"/>
<polygon fill="#63b8ff" stroke="#63b8ff" points="73.5,-57.74 77,-67.74 80.5,-57.74 73.5,-57.74"/>
</a>
</g>
</g>
<!-- Node5&#45;&gt;Node3 -->
<g id="edge5_Node000005_Node000003" class="edge">
<title>Node5&#45;&gt;Node3</title>
<g id="a_edge5_Node000005_Node000003"><a xlink:title=" ">
<path fill="none" stroke="#63b8ff" d="M757.35,-127.42C760.55,-109.03 761.04,-85.35 748,-69.5 729.18,-46.64 659.15,-33.23 600.4,-25.81"/>
<polygon fill="#63b8ff" stroke="#63b8ff" points="753.94,-126.61 755.29,-137.12 760.79,-128.06 753.94,-126.61"/>
</a>
</g>
</g>
<!-- Node7 -->
<g id="Node000007" class="node">
<title>Node7</title>
<g id="a_Node000007"><a xlink:href="ConstraintDependencyGraph_8h.html" target="_top" xlink:title=" ">
<polygon fill="white" stroke="#666666" points="534.12,-172.5 365.88,-172.5 365.88,-139 534.12,-139 534.12,-172.5"/>
<text text-anchor="start" x="373.88" y="-159" font-family="Helvetica,sans-Serif" font-size="10.00">include/llzk/Analysis</text>
<text text-anchor="middle" x="450" y="-146.25" font-family="Helvetica,sans-Serif" font-size="10.00">/ConstraintDependencyGraph.h</text>
</a>
</g>
</g>
<!-- Node6&#45;&gt;Node7 -->
<g id="edge7_Node000006_Node000007" class="edge">
<title>Node6&#45;&gt;Node7</title>
<g id="a_edge7_Node000006_Node000007"><a xlink:title=" ">
<path fill="none" stroke="#63b8ff" d="M526.88,-271.05C515.8,-262.79 504.09,-252.81 495,-242 477.01,-220.61 463.34,-190.85 456.01,-172.74"/>
<polygon fill="#63b8ff" stroke="#63b8ff" points="524.56,-273.7 534.73,-276.68 528.64,-268.01 524.56,-273.7"/>
</a>
</g>
</g>
<!-- Node11 -->
<g id="Node000011" class="node">
<title>Node11</title>
<g id="a_Node000011"><a xlink:href="SourceRefLattice_8h.html" target="_top" xlink:title=" ">
<polygon fill="white" stroke="#666666" points="619.88,-242 504.12,-242 504.12,-208.5 619.88,-208.5 619.88,-242"/>
<text text-anchor="start" x="512.12" y="-228.5" font-family="Helvetica,sans-Serif" font-size="10.00">include/llzk/Analysis</text>
<text text-anchor="middle" x="562" y="-215.75" font-family="Helvetica,sans-Serif" font-size="10.00">/SourceRefLattice.h</text>
</a>
</g>
</g>
<!-- Node6&#45;&gt;Node11 -->
<g id="edge12_Node000006_Node000011" class="edge">
<title>Node6&#45;&gt;Node11</title>
<g id="a_edge12_Node000006_Node000011"><a xlink:title=" ">
<path fill="none" stroke="#63b8ff" d="M562,-266.31C562,-258.09 562,-249.34 562,-242.13"/>
<polygon fill="#63b8ff" stroke="#63b8ff" points="558.5,-266.24 562,-276.24 565.5,-266.24 558.5,-266.24"/>
</a>
</g>
</g>
<!-- Node12 -->
<g id="Node000012" class="node">
<title>Node12</title>
<g id="a_Node000012"><a xlink:href="SourceRef_8cpp.html" target="_top" xlink:title=" ">
<polygon fill="white" stroke="#666666" points="858.12,-235.62 713.88,-235.62 713.88,-214.88 858.12,-214.88 858.12,-235.62"/>
<text text-anchor="middle" x="786" y="-222.12" font-family="Helvetica,sans-Serif" font-size="10.00">lib/Analysis/SourceRef.cpp</text>
</a>
</g>
</g>
<!-- Node6&#45;&gt;Node12 -->
<g id="edge16_Node000006_Node000012" class="edge">
<title>Node6&#45;&gt;Node12</title>
<g id="a_edge16_Node000006_Node000012"><a xlink:title=" ">
<path fill="none" stroke="#63b8ff" d="M626.49,-274.32C667.96,-261.82 720.1,-246.11 753.25,-236.12"/>
<polygon fill="#63b8ff" stroke="#63b8ff" points="625.67,-270.91 617.1,-277.15 627.69,-277.61 625.67,-270.91"/>
</a>
</g>
</g>
<!-- Node7&#45;&gt;Node2 -->
<g id="edge8_Node000007_Node000002" class="edge">
<title>Node7&#45;&gt;Node2</title>
<g id="a_edge8_Node000007_Node000002"><a xlink:title=" ">
<path fill="none" stroke="#63b8ff" d="M354.57,-140.21C294.06,-130.59 214.23,-117.18 144,-103 141.07,-102.41 138.08,-101.78 135.06,-101.13"/>
<polygon fill="#63b8ff" stroke="#63b8ff" points="353.72,-143.61 364.14,-141.72 354.81,-136.7 353.72,-143.61"/>
</a>
</g>
</g>
<!-- Node8 -->
<g id="Node000008" class="node">
<title>Node8</title>
<g id="a_Node000008"><a xlink:href="ConstraintDependencyGraph_8cpp.html" target="_top" xlink:title=" ">
<polygon fill="white" stroke="#666666" points="543.12,-103 356.88,-103 356.88,-69.5 543.12,-69.5 543.12,-103"/>
<text text-anchor="start" x="364.88" y="-89.5" font-family="Helvetica,sans-Serif" font-size="10.00">lib/Analysis/ConstraintDependency</text>
<text text-anchor="middle" x="450" y="-76.75" font-family="Helvetica,sans-Serif" font-size="10.00">Graph.cpp</text>
</a>
</g>
</g>
<!-- Node7&#45;&gt;Node8 -->
<g id="edge9_Node000007_Node000008" class="edge">
<title>Node7&#45;&gt;Node8</title>
<g id="a_edge9_Node000007_Node000008"><a xlink:title=" ">
<path fill="none" stroke="#63b8ff" d="M450,-127.31C450,-119.09 450,-110.34 450,-103.13"/>
<polygon fill="#63b8ff" stroke="#63b8ff" points="446.5,-127.24 450,-137.24 453.5,-127.24 446.5,-127.24"/>
</a>
</g>
</g>
<!-- Node9 -->
<g id="Node000009" class="node">
<title>Node9</title>
<g id="a_Node000009"><a xlink:href="ConstraintDependencyGraphPass_8cpp.html" target="_top" xlink:title="This file implements the &#45;llzk&#45;print&#45;constraint&#45;dependency&#45;graphs pass.">
<polygon fill="white" stroke="#666666" points="339.12,-103 152.88,-103 152.88,-69.5 339.12,-69.5 339.12,-103"/>
<text text-anchor="start" x="160.88" y="-89.5" font-family="Helvetica,sans-Serif" font-size="10.00">lib/Analysis/ConstraintDependency</text>
<text text-anchor="middle" x="246" y="-76.75" font-family="Helvetica,sans-Serif" font-size="10.00">GraphPass.cpp</text>
</a>
</g>
</g>
<!-- Node7&#45;&gt;Node9 -->
<g id="edge10_Node000007_Node000009" class="edge">
<title>Node7&#45;&gt;Node9</title>
<g id="a_edge10_Node000007_Node000009"><a xlink:title=" ">
<path fill="none" stroke="#63b8ff" d="M390.25,-134.98C359.89,-124.94 323.47,-112.88 294.82,-103.4"/>
<polygon fill="#63b8ff" stroke="#63b8ff" points="389.11,-138.29 399.7,-138.11 391.31,-131.64 389.11,-138.29"/>
</a>
</g>
</g>
<!-- Node7&#45;&gt;Node10 -->
<g id="edge11_Node000007_Node000010" class="edge">
<title>Node7&#45;&gt;Node10</title>
<g id="a_edge11_Node000007_Node000010"><a xlink:title=" ">
<path fill="none" stroke="#63b8ff" d="M508.53,-135C545.4,-122.55 591.41,-107.02 620.76,-97.12"/>
<polygon fill="#63b8ff" stroke="#63b8ff" points="507.69,-131.58 499.34,-138.1 509.93,-138.22 507.69,-131.58"/>
</a>
</g>
</g>
<!-- Node11&#45;&gt;Node7 -->
<g id="edge13_Node000011_Node000007" class="edge">
<title>Node11&#45;&gt;Node7</title>
<g id="a_edge13_Node000011_Node000007"><a xlink:title=" ">
<path fill="none" stroke="#63b8ff" d="M525.61,-202.32C509.65,-192.7 491.26,-181.61 476.61,-172.79"/>
<polygon fill="#63b8ff" stroke="#63b8ff" points="523.51,-205.14 533.88,-207.3 527.12,-199.14 523.51,-205.14"/>
</a>
</g>
</g>
<!-- Node11&#45;&gt;Node8 -->
<g id="edge14_Node000011_Node000008" class="edge">
<title>Node11&#45;&gt;Node8</title>
<g id="a_edge14_Node000011_Node000008"><a xlink:title=" ">
<path fill="none" stroke="#63b8ff" d="M561.54,-196.71C559.96,-178.72 555.38,-155.59 543,-139 531.17,-123.16 512.99,-111.52 495.82,-103.33"/>
<polygon fill="#63b8ff" stroke="#63b8ff" points="558.04,-196.9 562.12,-206.68 565.03,-196.49 558.04,-196.9"/>
</a>
</g>
</g>
<!-- Node11&#45;&gt;Node10 -->
<g id="edge15_Node000011_Node000010" class="edge">
<title>Node11&#45;&gt;Node10</title>
<g id="a_edge15_Node000011_Node000010"><a xlink:title=" ">
<path fill="none" stroke="#63b8ff" d="M578.44,-198.66C598.17,-167.93 630.29,-117.94 643.75,-96.98"/>
<polygon fill="#63b8ff" stroke="#63b8ff" points="575.54,-196.69 573.08,-206.99 581.43,-200.47 575.54,-196.69"/>
</a>
</g>
</g>
<!-- Node13&#45;&gt;Node12 -->
<g id="edge18_Node000013_Node000012" class="edge">
<title>Node13&#45;&gt;Node12</title>
<g id="a_edge18_Node000013_Node000012"><a xlink:title=" ">
<path fill="none" stroke="#63b8ff" d="M781.21,-266.63C782.49,-255.83 783.89,-244.1 784.84,-236.07"/>
<polygon fill="#63b8ff" stroke="#63b8ff" points="777.78,-265.91 780.07,-276.25 784.73,-266.73 777.78,-265.91"/>
</a>
</g>
</g>
<!-- Node14 -->
<g id="Node000014" class="node">
<title>Node14</title>
<g id="a_Node000014"><a xlink:href="LLZKLoweringUtils_8cpp.html" target="_top" xlink:title=" ">
<polygon fill="white" stroke="#666666" points="1032.12,-242 875.88,-242 875.88,-208.5 1032.12,-208.5 1032.12,-242"/>
<text text-anchor="start" x="883.88" y="-228.5" font-family="Helvetica,sans-Serif" font-size="10.00">lib/Transforms/LLZKLowering</text>
<text text-anchor="middle" x="954" y="-215.75" font-family="Helvetica,sans-Serif" font-size="10.00">Utils.cpp</text>
</a>
</g>
</g>
<!-- Node13&#45;&gt;Node14 -->
<g id="edge19_Node000013_Node000014" class="edge">
<title>Node13&#45;&gt;Node14</title>
<g id="a_edge19_Node000013_Node000014"><a xlink:title=" ">
<path fill="none" stroke="#63b8ff" d="M830.58,-273.58C856.56,-263.62 887.49,-251.76 911.88,-242.4"/>
<polygon fill="#63b8ff" stroke="#63b8ff" points="829.65,-270.19 821.57,-277.04 832.16,-276.73 829.65,-270.19"/>
</a>
</g>
</g>
<!-- Node15 -->
<g id="Node000015" class="node">
<title>Node15</title>
<g id="a_Node000015"><a xlink:href="LLZKPolyLoweringPass_8cpp.html" target="_top" xlink:title="This file implements the &#45;llzk&#45;poly&#45;lowering pass.">
<polygon fill="white" stroke="#666666" points="1227.62,-242 1050.38,-242 1050.38,-208.5 1227.62,-208.5 1227.62,-242"/>
<text text-anchor="start" x="1058.38" y="-228.5" font-family="Helvetica,sans-Serif" font-size="10.00">lib/Transforms/LLZKPolyLowering</text>
<text text-anchor="middle" x="1139" y="-215.75" font-family="Helvetica,sans-Serif" font-size="10.00">Pass.cpp</text>
</a>
</g>
</g>
<!-- Node13&#45;&gt;Node15 -->
<g id="edge20_Node000013_Node000015" class="edge">
<title>Node13&#45;&gt;Node15</title>
<g id="a_edge20_Node000013_Node000015"><a xlink:title=" ">
<path fill="none" stroke="#63b8ff" d="M853.46,-277.55C924.86,-263.54 995.78,-250.86 1049.98,-241.42"/>
<polygon fill="#63b8ff" stroke="#63b8ff" points="853.08,-274.05 843.95,-279.42 854.43,-280.92 853.08,-274.05"/>
</a>
</g>
</g>
</g>
</svg>
