<?xml version="1.0" encoding="UTF-8" standalone="no"?>
<!DOCTYPE svg PUBLIC "-//W3C//DTD SVG 1.1//EN"
 "http://www.w3.org/Graphics/SVG/1.1/DTD/svg11.dtd">
<!-- Generated by graphviz version 12.2.1 (0)
 -->
<!-- Title: build/include/llzk/Dialect/Felt/IR/Attrs.capi.h.inc Pages: 1 -->
<svg width="199pt" height="155pt"
 viewBox="0.00 0.00 198.50 155.00" xmlns="http://www.w3.org/2000/svg" xmlns:xlink="http://www.w3.org/1999/xlink">
<g id="graph0" class="graph" transform="scale(1 1) rotate(0) translate(4 151)">
<title>build/include/llzk/Dialect/Felt/IR/Attrs.capi.h.inc</title>
<!-- Node1 -->
<g id="Node000001" class="node">
<title>Node1</title>
<g id="a_Node000001"><a xlink:title=" ">
<polygon fill="#999999" stroke="#666666" points="163,-147 0,-147 0,-113.5 163,-113.5 163,-147"/>
<text text-anchor="start" x="8" y="-133.5" font-family="Helvetica,sans-Serif" font-size="10.00">build/include/llzk</text>
<text text-anchor="middle" x="81.5" y="-120.75" font-family="Helvetica,sans-Serif" font-size="10.00">/Dialect/Felt/IR/Attrs.capi.h.inc</text>
</a>
</g>
</g>
<!-- Node2 -->
<g id="Node000002" class="node">
<title>Node2</title>
<g id="a_Node000002"><a xlink:href="llzk-c_2Builder_8h.html" target="_top" xlink:title=" ">
<polygon fill="white" stroke="#666666" points="161.5,-77.5 73.5,-77.5 73.5,-56.75 161.5,-56.75 161.5,-77.5"/>
<text text-anchor="middle" x="117.5" y="-64" font-family="Helvetica,sans-Serif" font-size="10.00">llzk&#45;c/Builder.h</text>
</a>
</g>
</g>
<!-- Node1&#45;&gt;Node2 -->
<g id="edge1_Node000001_Node000002" class="edge">
<title>Node1&#45;&gt;Node2</title>
<g id="a_edge1_Node000001_Node000002"><a xlink:title=" ">
<path fill="none" stroke="#63b8ff" d="M90.96,-113.19C95.54,-105.42 101.07,-96.02 105.9,-87.82"/>
<polygon fill="#63b8ff" stroke="#63b8ff" points="108.88,-89.66 110.94,-79.27 102.84,-86.11 108.88,-89.66"/>
</a>
</g>
</g>
<!-- Node3 -->
<g id="Node000003" class="node">
<title>Node3</title>
<g id="a_Node000003"><a xlink:title=" ">
<polygon fill="#e0e0e0" stroke="#999999" points="78.62,-20.75 12.38,-20.75 12.38,0 78.62,0 78.62,-20.75"/>
<text text-anchor="middle" x="45.5" y="-7.25" font-family="Helvetica,sans-Serif" font-size="10.00">mlir&#45;c/IR.h</text>
</a>
</g>
</g>
<!-- Node1&#45;&gt;Node3 -->
<g id="edge4_Node000001_Node000003" class="edge">
<title>Node1&#45;&gt;Node3</title>
<g id="a_edge4_Node000001_Node000003"><a xlink:title=" ">
<path fill="none" stroke="#63b8ff" d="M76.14,-113.44C72.71,-103.22 68.23,-89.61 64.5,-77.5 59.81,-62.27 54.85,-44.96 51.18,-31.88"/>
<polygon fill="#63b8ff" stroke="#63b8ff" points="54.56,-30.98 48.5,-22.28 47.82,-32.86 54.56,-30.98"/>
</a>
</g>
</g>
<!-- Node2&#45;&gt;Node3 -->
<g id="edge2_Node000002_Node000003" class="edge">
<title>Node2&#45;&gt;Node3</title>
<g id="a_edge2_Node000002_Node000003"><a xlink:title=" ">
<path fill="none" stroke="#63b8ff" d="M104.63,-56.34C94.29,-48.47 79.53,-37.25 67.35,-27.99"/>
<polygon fill="#63b8ff" stroke="#63b8ff" points="69.54,-25.26 59.47,-21.99 65.31,-30.83 69.54,-25.26"/>
</a>
</g>
</g>
<!-- Node4 -->
<g id="Node000004" class="node">
<title>Node4</title>
<g id="a_Node000004"><a xlink:title=" ">
<polygon fill="#e0e0e0" stroke="#999999" points="190.5,-20.75 96.5,-20.75 96.5,0 190.5,0 190.5,-20.75"/>
<text text-anchor="middle" x="143.5" y="-7.25" font-family="Helvetica,sans-Serif" font-size="10.00">mlir&#45;c/Support.h</text>
</a>
</g>
</g>
<!-- Node2&#45;&gt;Node4 -->
<g id="edge3_Node000002_Node000004" class="edge">
<title>Node2&#45;&gt;Node4</title>
<g id="a_edge3_Node000002_Node000004"><a xlink:title=" ">
<path fill="none" stroke="#63b8ff" d="M122.15,-56.34C125.44,-49.41 129.97,-39.87 134.01,-31.36"/>
<polygon fill="#63b8ff" stroke="#63b8ff" points="137.11,-32.98 138.24,-22.45 130.79,-29.98 137.11,-32.98"/>
</a>
</g>
</g>
</g>
</svg>
