<?xml version="1.0" encoding="UTF-8" standalone="no"?>
<!DOCTYPE svg PUBLIC "-//W3C//DTD SVG 1.1//EN"
 "http://www.w3.org/Graphics/SVG/1.1/DTD/svg11.dtd">
<!-- Generated by graphviz version 12.2.1 (0)
 -->
<!-- Title: lib/Dialect/Felt/IR/Attrs.cpp Pages: 1 -->
<svg width="1687pt" height="307pt"
 viewBox="0.00 0.00 1687.38 306.75" xmlns="http://www.w3.org/2000/svg" xmlns:xlink="http://www.w3.org/1999/xlink">
<g id="graph0" class="graph" transform="scale(1 1) rotate(0) translate(4 302.75)">
<title>lib/Dialect/Felt/IR/Attrs.cpp</title>
<!-- Node1 -->
<g id="Node000001" class="node">
<title>Node1</title>
<g id="a_Node000001"><a xlink:title=" ">
<polygon fill="#999999" stroke="#666666" points="588.88,-298.75 489.62,-298.75 489.62,-265.25 588.88,-265.25 588.88,-298.75"/>
<text text-anchor="start" x="497.62" y="-285.25" font-family="Helvetica,sans-Serif" font-size="10.00">lib/Dialect/Felt/IR</text>
<text text-anchor="middle" x="539.25" y="-272.5" font-family="Helvetica,sans-Serif" font-size="10.00">/Attrs.cpp</text>
</a>
</g>
</g>
<!-- Node2 -->
<g id="Node000002" class="node">
<title>Node2</title>
<g id="a_Node000002"><a xlink:href="Felt_2IR_2Attrs_8h.html" target="_top" xlink:title=" ">
<polygon fill="white" stroke="#666666" points="530.5,-229.25 426,-229.25 426,-195.75 530.5,-195.75 530.5,-229.25"/>
<text text-anchor="start" x="434" y="-215.75" font-family="Helvetica,sans-Serif" font-size="10.00">llzk/Dialect/Felt/IR</text>
<text text-anchor="middle" x="478.25" y="-203" font-family="Helvetica,sans-Serif" font-size="10.00">/Attrs.h</text>
</a>
</g>
</g>
<!-- Node1&#45;&gt;Node2 -->
<g id="edge1_Node000001_Node000002" class="edge">
<title>Node1&#45;&gt;Node2</title>
<g id="a_edge1_Node000001_Node000002"><a xlink:title=" ">
<path fill="none" stroke="#63b8ff" d="M524.79,-265C517.42,-256.85 508.31,-246.76 500.1,-237.68"/>
<polygon fill="#63b8ff" stroke="#63b8ff" points="502.92,-235.58 493.62,-230.5 497.73,-240.27 502.92,-235.58"/>
</a>
</g>
</g>
<!-- Node6 -->
<g id="Node000006" class="node">
<title>Node6</title>
<g id="a_Node000006"><a xlink:href="Felt_2IR_2Types_8h.html" target="_top" xlink:title=" ">
<polygon fill="white" stroke="#666666" points="719.5,-229.25 615,-229.25 615,-195.75 719.5,-195.75 719.5,-229.25"/>
<text text-anchor="start" x="623" y="-215.75" font-family="Helvetica,sans-Serif" font-size="10.00">llzk/Dialect/Felt/IR</text>
<text text-anchor="middle" x="667.25" y="-203" font-family="Helvetica,sans-Serif" font-size="10.00">/Types.h</text>
</a>
</g>
</g>
<!-- Node1&#45;&gt;Node6 -->
<g id="edge5_Node000001_Node000006" class="edge">
<title>Node1&#45;&gt;Node6</title>
<g id="a_edge5_Node000001_Node000006"><a xlink:title=" ">
<path fill="none" stroke="#63b8ff" d="M569.91,-264.83C586.93,-255.86 608.31,-244.58 626.7,-234.88"/>
<polygon fill="#63b8ff" stroke="#63b8ff" points="628.29,-238 635.5,-230.24 625.02,-231.81 628.29,-238"/>
</a>
</g>
</g>
<!-- Node3 -->
<g id="Node000003" class="node">
<title>Node3</title>
<g id="a_Node000003"><a xlink:title=" ">
<polygon fill="#e0e0e0" stroke="#999999" points="297.38,-153.38 189.12,-153.38 189.12,-132.62 297.38,-132.62 297.38,-153.38"/>
<text text-anchor="middle" x="243.25" y="-139.88" font-family="Helvetica,sans-Serif" font-size="10.00">mlir/IR/Attributes.h</text>
</a>
</g>
</g>
<!-- Node2&#45;&gt;Node3 -->
<g id="edge2_Node000002_Node000003" class="edge">
<title>Node2&#45;&gt;Node3</title>
<g id="a_edge2_Node000002_Node000003"><a xlink:title=" ">
<path fill="none" stroke="#63b8ff" d="M425.51,-196.35C384.25,-184.5 327.5,-168.2 288.33,-156.95"/>
<polygon fill="#63b8ff" stroke="#63b8ff" points="289.32,-153.59 278.74,-154.19 287.38,-160.32 289.32,-153.59"/>
</a>
</g>
</g>
<!-- Node4 -->
<g id="Node000004" class="node">
<title>Node4</title>
<g id="a_Node000004"><a xlink:title=" ">
<polygon fill="#e0e0e0" stroke="#999999" points="441,-159.75 315.5,-159.75 315.5,-126.25 441,-126.25 441,-159.75"/>
<text text-anchor="start" x="323.5" y="-146.25" font-family="Helvetica,sans-Serif" font-size="10.00">mlir/IR/BuiltinAttribute</text>
<text text-anchor="middle" x="378.25" y="-133.5" font-family="Helvetica,sans-Serif" font-size="10.00">Interfaces.h</text>
</a>
</g>
</g>
<!-- Node2&#45;&gt;Node4 -->
<g id="edge3_Node000002_Node000004" class="edge">
<title>Node2&#45;&gt;Node4</title>
<g id="a_edge3_Node000002_Node000004"><a xlink:title=" ">
<path fill="none" stroke="#63b8ff" d="M454.3,-195.33C441.43,-186.65 425.38,-175.81 411.34,-166.34"/>
<polygon fill="#63b8ff" stroke="#63b8ff" points="413.51,-163.58 403.26,-160.88 409.59,-169.38 413.51,-163.58"/>
</a>
</g>
</g>
<!-- Node5 -->
<g id="Node000005" class="node">
<title>Node5</title>
<g id="a_Node000005"><a xlink:href="Felt_2IR_2Attrs_8h_8inc.html" target="_top" xlink:title=" ">
<polygon fill="white" stroke="#666666" points="563.5,-159.75 459,-159.75 459,-126.25 563.5,-126.25 563.5,-159.75"/>
<text text-anchor="start" x="467" y="-146.25" font-family="Helvetica,sans-Serif" font-size="10.00">llzk/Dialect/Felt/IR</text>
<text text-anchor="middle" x="511.25" y="-133.5" font-family="Helvetica,sans-Serif" font-size="10.00">/Attrs.h.inc</text>
</a>
</g>
</g>
<!-- Node2&#45;&gt;Node5 -->
<g id="edge4_Node000002_Node000005" class="edge">
<title>Node2&#45;&gt;Node5</title>
<g id="a_edge4_Node000002_Node000005"><a xlink:title=" ">
<path fill="none" stroke="#63b8ff" d="M486.07,-195.5C489.77,-187.94 494.28,-178.71 498.46,-170.16"/>
<polygon fill="#63b8ff" stroke="#63b8ff" points="501.57,-171.76 502.82,-161.24 495.28,-168.69 501.57,-171.76"/>
</a>
</g>
</g>
<!-- Node7 -->
<g id="Node000007" class="node">
<title>Node7</title>
<g id="a_Node000007"><a xlink:href="Felt_2IR_2Dialect_8h.html" target="_top" xlink:title=" ">
<polygon fill="white" stroke="#666666" points="686.5,-159.75 582,-159.75 582,-126.25 686.5,-126.25 686.5,-159.75"/>
<text text-anchor="start" x="590" y="-146.25" font-family="Helvetica,sans-Serif" font-size="10.00">llzk/Dialect/Felt/IR</text>
<text text-anchor="middle" x="634.25" y="-133.5" font-family="Helvetica,sans-Serif" font-size="10.00">/Dialect.h</text>
</a>
</g>
</g>
<!-- Node6&#45;&gt;Node7 -->
<g id="edge6_Node000006_Node000007" class="edge">
<title>Node6&#45;&gt;Node7</title>
<g id="a_edge6_Node000006_Node000007"><a xlink:title=" ">
<path fill="none" stroke="#63b8ff" d="M659.43,-195.5C655.73,-187.94 651.22,-178.71 647.04,-170.16"/>
<polygon fill="#63b8ff" stroke="#63b8ff" points="650.22,-168.69 642.68,-161.24 643.93,-171.76 650.22,-168.69"/>
</a>
</g>
</g>
<!-- Node10 -->
<g id="Node000010" class="node">
<title>Node10</title>
<g id="a_Node000010"><a xlink:href="Field_8h.html" target="_top" xlink:title=" ">
<polygon fill="white" stroke="#666666" points="913.62,-153.38 824.88,-153.38 824.88,-132.62 913.62,-132.62 913.62,-153.38"/>
<text text-anchor="middle" x="869.25" y="-139.88" font-family="Helvetica,sans-Serif" font-size="10.00">llzk/Util/Field.h</text>
</a>
</g>
</g>
<!-- Node6&#45;&gt;Node10 -->
<g id="edge9_Node000006_Node000010" class="edge">
<title>Node6&#45;&gt;Node10</title>
<g id="a_edge9_Node000006_Node000010"><a xlink:title=" ">
<path fill="none" stroke="#63b8ff" d="M715.63,-195.33C750.34,-183.73 796.56,-168.29 829.2,-157.38"/>
<polygon fill="#63b8ff" stroke="#63b8ff" points="829.9,-160.84 838.28,-154.35 827.69,-154.2 829.9,-160.84"/>
</a>
</g>
</g>
<!-- Node30 -->
<g id="Node000030" class="node">
<title>Node30</title>
<g id="a_Node000030"><a xlink:href="Felt_2IR_2Types_8h_8inc.html" target="_top" xlink:title=" ">
<polygon fill="white" stroke="#666666" points="1036.5,-159.75 932,-159.75 932,-126.25 1036.5,-126.25 1036.5,-159.75"/>
<text text-anchor="start" x="940" y="-146.25" font-family="Helvetica,sans-Serif" font-size="10.00">llzk/Dialect/Felt/IR</text>
<text text-anchor="middle" x="984.25" y="-133.5" font-family="Helvetica,sans-Serif" font-size="10.00">/Types.h.inc</text>
</a>
</g>
</g>
<!-- Node6&#45;&gt;Node30 -->
<g id="edge31_Node000006_Node000030" class="edge">
<title>Node6&#45;&gt;Node30</title>
<g id="a_edge31_Node000006_Node000030"><a xlink:title=" ">
<path fill="none" stroke="#63b8ff" d="M719.67,-201.63C768.91,-192.19 844.91,-177.18 920.4,-160.11"/>
<polygon fill="#63b8ff" stroke="#63b8ff" points="921.08,-163.55 930.05,-157.91 919.52,-156.72 921.08,-163.55"/>
</a>
</g>
</g>
<!-- Node8 -->
<g id="Node000008" class="node">
<title>Node8</title>
<g id="a_Node000008"><a xlink:title=" ">
<polygon fill="#e0e0e0" stroke="#999999" points="502.5,-83.88 392,-83.88 392,-63.12 502.5,-63.12 502.5,-83.88"/>
<text text-anchor="middle" x="447.25" y="-70.38" font-family="Helvetica,sans-Serif" font-size="10.00">mlir/IR/BuiltinOps.h</text>
</a>
</g>
</g>
<!-- Node7&#45;&gt;Node8 -->
<g id="edge7_Node000007_Node000008" class="edge">
<title>Node7&#45;&gt;Node8</title>
<g id="a_edge7_Node000007_Node000008"><a xlink:title=" ">
<path fill="none" stroke="#63b8ff" d="M589.46,-125.83C557.61,-114.33 515.29,-99.06 485.12,-88.17"/>
<polygon fill="#63b8ff" stroke="#63b8ff" points="486.61,-84.99 476.02,-84.88 484.23,-91.57 486.61,-84.99"/>
</a>
</g>
</g>
<!-- Node9 -->
<g id="Node000009" class="node">
<title>Node9</title>
<g id="a_Node000009"><a xlink:href="Felt_2IR_2Dialect_8h_8inc.html" target="_top" xlink:title=" ">
<polygon fill="white" stroke="#666666" points="373.5,-90.25 269,-90.25 269,-56.75 373.5,-56.75 373.5,-90.25"/>
<text text-anchor="start" x="277" y="-76.75" font-family="Helvetica,sans-Serif" font-size="10.00">llzk/Dialect/Felt/IR</text>
<text text-anchor="middle" x="321.25" y="-64" font-family="Helvetica,sans-Serif" font-size="10.00">/Dialect.h.inc</text>
</a>
</g>
</g>
<!-- Node7&#45;&gt;Node9 -->
<g id="edge8_Node000007_Node000009" class="edge">
<title>Node7&#45;&gt;Node9</title>
<g id="a_edge8_Node000007_Node000009"><a xlink:title=" ">
<path fill="none" stroke="#63b8ff" d="M581.54,-128.38C578.4,-127.64 575.29,-126.92 572.25,-126.25 492.2,-108.47 468.64,-108.73 385.03,-90.56"/>
<polygon fill="#63b8ff" stroke="#63b8ff" points="385.96,-87.18 375.44,-88.45 384.46,-94.02 385.96,-87.18"/>
</a>
</g>
</g>
<!-- Node10&#45;&gt;Node8 -->
<g id="edge23_Node000010_Node000008" class="edge">
<title>Node10&#45;&gt;Node8</title>
<g id="a_edge23_Node000010_Node000008"><a xlink:title=" ">
<path fill="none" stroke="#63b8ff" d="M824.64,-136.97C756.68,-129 623.28,-112.08 511.25,-90.25 506.25,-89.28 501.05,-88.16 495.88,-86.99"/>
<polygon fill="#63b8ff" stroke="#63b8ff" points="496.69,-83.59 486.15,-84.71 495.09,-90.4 496.69,-83.59"/>
</a>
</g>
</g>
<!-- Node11 -->
<g id="Node000011" class="node">
<title>Node11</title>
<g id="a_Node000011"><a xlink:href="DynamicAPIntHelper_8h.html" target="_top" xlink:title="This file implements helper methods for constructing DynamicAPInts.">
<polygon fill="white" stroke="#666666" points="686.25,-83.88 520.25,-83.88 520.25,-63.12 686.25,-63.12 686.25,-83.88"/>
<text text-anchor="middle" x="603.25" y="-70.38" font-family="Helvetica,sans-Serif" font-size="10.00">llzk/Util/DynamicAPIntHelper.h</text>
</a>
</g>
</g>
<!-- Node10&#45;&gt;Node11 -->
<g id="edge10_Node000010_Node000011" class="edge">
<title>Node10&#45;&gt;Node11</title>
<g id="a_edge10_Node000010_Node000011"><a xlink:title=" ">
<path fill="none" stroke="#63b8ff" d="M830.57,-132.18C783.59,-120.26 704.25,-100.13 652.82,-87.08"/>
<polygon fill="#63b8ff" stroke="#63b8ff" points="654,-83.77 643.44,-84.7 652.27,-90.55 654,-83.77"/>
</a>
</g>
</g>
<!-- Node14 -->
<g id="Node000014" class="node">
<title>Node14</title>
<g id="a_Node000014"><a xlink:title=" ">
<polygon fill="#e0e0e0" stroke="#999999" points="700.25,-20.75 558.25,-20.75 558.25,0 700.25,0 700.25,-20.75"/>
<text text-anchor="middle" x="629.25" y="-7.25" font-family="Helvetica,sans-Serif" font-size="10.00">llvm/ADT/DynamicAPInt.h</text>
</a>
</g>
</g>
<!-- Node10&#45;&gt;Node14 -->
<g id="edge26_Node000010_Node000014" class="edge">
<title>Node10&#45;&gt;Node14</title>
<g id="a_edge26_Node000010_Node000014"><a xlink:title=" ">
<path fill="none" stroke="#63b8ff" d="M833.28,-132.19C804.89,-123.56 764.94,-109.38 733.25,-90.25 713.97,-78.62 713,-70.6 695.25,-56.75 682.01,-46.43 666.58,-35.75 653.97,-27.35"/>
<polygon fill="#63b8ff" stroke="#63b8ff" points="656.1,-24.56 645.82,-21.98 652.25,-30.4 656.1,-24.56"/>
</a>
</g>
</g>
<!-- Node17 -->
<g id="Node000017" class="node">
<title>Node17</title>
<g id="a_Node000017"><a xlink:href="ErrorHelper_8h.html" target="_top" xlink:title=" ">
<polygon fill="white" stroke="#666666" points="862.38,-83.88 742.12,-83.88 742.12,-63.12 862.38,-63.12 862.38,-83.88"/>
<text text-anchor="middle" x="802.25" y="-70.38" font-family="Helvetica,sans-Serif" font-size="10.00">llzk/Util/ErrorHelper.h</text>
</a>
</g>
</g>
<!-- Node10&#45;&gt;Node17 -->
<g id="edge16_Node000010_Node000017" class="edge">
<title>Node10&#45;&gt;Node17</title>
<g id="a_edge16_Node000010_Node000017"><a xlink:title=" ">
<path fill="none" stroke="#63b8ff" d="M859.65,-132.33C849.3,-121.9 832.6,-105.08 819.88,-92.26"/>
<polygon fill="#63b8ff" stroke="#63b8ff" points="822.43,-89.86 812.9,-85.23 817.46,-94.79 822.43,-89.86"/>
</a>
</g>
</g>
<!-- Node24 -->
<g id="Node000024" class="node">
<title>Node24</title>
<g id="a_Node000024"><a xlink:title=" ">
<polygon fill="#e0e0e0" stroke="#999999" points="994,-83.88 880.5,-83.88 880.5,-63.12 994,-63.12 994,-83.88"/>
<text text-anchor="middle" x="937.25" y="-70.38" font-family="Helvetica,sans-Serif" font-size="10.00">mlir/Support/LLVM.h</text>
</a>
</g>
</g>
<!-- Node10&#45;&gt;Node24 -->
<g id="edge24_Node000010_Node000024" class="edge">
<title>Node10&#45;&gt;Node24</title>
<g id="a_edge24_Node000010_Node000024"><a xlink:title=" ">
<path fill="none" stroke="#63b8ff" d="M878.99,-132.33C889.5,-121.9 906.44,-105.08 919.36,-92.26"/>
<polygon fill="#63b8ff" stroke="#63b8ff" points="921.82,-94.75 926.45,-85.22 916.89,-89.78 921.82,-94.75"/>
</a>
</g>
</g>
<!-- Node25 -->
<g id="Node000025" class="node">
<title>Node25</title>
<g id="a_Node000025"><a xlink:title=" ">
<polygon fill="#e0e0e0" stroke="#999999" points="1136.62,-83.88 1011.88,-83.88 1011.88,-63.12 1136.62,-63.12 1136.62,-83.88"/>
<text text-anchor="middle" x="1074.25" y="-70.38" font-family="Helvetica,sans-Serif" font-size="10.00">llvm/ADT/DenseMap.h</text>
</a>
</g>
</g>
<!-- Node10&#45;&gt;Node25 -->
<g id="edge25_Node000010_Node000025" class="edge">
<title>Node10&#45;&gt;Node25</title>
<g id="a_edge25_Node000010_Node000025"><a xlink:title=" ">
<path fill="none" stroke="#63b8ff" d="M899.06,-132.18C934.51,-120.51 993.86,-100.97 1033.53,-87.91"/>
<polygon fill="#63b8ff" stroke="#63b8ff" points="1034.56,-91.25 1042.97,-84.8 1032.37,-84.6 1034.56,-91.25"/>
</a>
</g>
</g>
<!-- Node26 -->
<g id="Node000026" class="node">
<title>Node26</title>
<g id="a_Node000026"><a xlink:title=" ">
<polygon fill="#e0e0e0" stroke="#999999" points="1271.5,-83.88 1155,-83.88 1155,-63.12 1271.5,-63.12 1271.5,-83.88"/>
<text text-anchor="middle" x="1213.25" y="-70.38" font-family="Helvetica,sans-Serif" font-size="10.00">llvm/ADT/SmallSet.h</text>
</a>
</g>
</g>
<!-- Node10&#45;&gt;Node26 -->
<g id="edge27_Node000010_Node000026" class="edge">
<title>Node10&#45;&gt;Node26</title>
<g id="a_edge27_Node000010_Node000026"><a xlink:title=" ">
<path fill="none" stroke="#63b8ff" d="M900.49,-132.18C907.9,-130.05 915.82,-127.93 923.25,-126.25 1020.75,-104.21 1047.17,-109.54 1145.25,-90.25 1150.54,-89.21 1156.06,-88.05 1161.55,-86.85"/>
<polygon fill="#63b8ff" stroke="#63b8ff" points="1162.24,-90.29 1171.24,-84.69 1160.71,-83.45 1162.24,-90.29"/>
</a>
</g>
</g>
<!-- Node27 -->
<g id="Node000027" class="node">
<title>Node27</title>
<g id="a_Node000027"><a xlink:title=" ">
<polygon fill="#e0e0e0" stroke="#999999" points="1445,-83.88 1289.5,-83.88 1289.5,-63.12 1445,-63.12 1445,-83.88"/>
<text text-anchor="middle" x="1367.25" y="-70.38" font-family="Helvetica,sans-Serif" font-size="10.00">llvm/Support/LogicalResult.h</text>
</a>
</g>
</g>
<!-- Node10&#45;&gt;Node27 -->
<g id="edge28_Node000010_Node000027" class="edge">
<title>Node10&#45;&gt;Node27</title>
<g id="a_edge28_Node000010_Node000027"><a xlink:title=" ">
<path fill="none" stroke="#63b8ff" d="M899.28,-132.18C907.02,-129.94 915.39,-127.78 923.25,-126.25 1079.79,-95.8 1122.33,-112.47 1280.25,-90.25 1288.49,-89.09 1297.15,-87.71 1305.67,-86.27"/>
<polygon fill="#63b8ff" stroke="#63b8ff" points="1306.01,-89.76 1315.26,-84.59 1304.81,-82.86 1306.01,-89.76"/>
</a>
</g>
</g>
<!-- Node28 -->
<g id="Node000028" class="node">
<title>Node28</title>
<g id="a_Node000028"><a xlink:title=" ">
<polygon fill="#e0e0e0" stroke="#999999" points="1589.38,-83.88 1463.12,-83.88 1463.12,-63.12 1589.38,-63.12 1589.38,-83.88"/>
<text text-anchor="middle" x="1526.25" y="-70.38" font-family="Helvetica,sans-Serif" font-size="10.00">llvm/Support/SMTAPI.h</text>
</a>
</g>
</g>
<!-- Node10&#45;&gt;Node28 -->
<g id="edge29_Node000010_Node000028" class="edge">
<title>Node10&#45;&gt;Node28</title>
<g id="a_edge29_Node000010_Node000028"><a xlink:title=" ">
<path fill="none" stroke="#63b8ff" d="M898.69,-132.17C906.58,-129.87 915.17,-127.68 923.25,-126.25 1156.15,-84.89 1220.07,-123.62 1454.25,-90.25 1461.07,-89.28 1468.2,-88.02 1475.22,-86.64"/>
<polygon fill="#63b8ff" stroke="#63b8ff" points="1475.89,-90.07 1484.97,-84.61 1474.47,-83.22 1475.89,-90.07"/>
</a>
</g>
</g>
<!-- Node29 -->
<g id="Node000029" class="node">
<title>Node29</title>
<g id="a_Node000029"><a xlink:title=" ">
<polygon fill="#e0e0e0" stroke="#999999" points="1679.38,-83.88 1607.12,-83.88 1607.12,-63.12 1679.38,-63.12 1679.38,-83.88"/>
<text text-anchor="middle" x="1643.25" y="-70.38" font-family="Helvetica,sans-Serif" font-size="10.00">string_view</text>
</a>
</g>
</g>
<!-- Node10&#45;&gt;Node29 -->
<g id="edge30_Node000010_Node000029" class="edge">
<title>Node10&#45;&gt;Node29</title>
<g id="a_edge30_Node000010_Node000029"><a xlink:title=" ">
<path fill="none" stroke="#63b8ff" d="M898.39,-132.17C906.36,-129.85 915.07,-127.64 923.25,-126.25 1219.42,-75.86 1303.52,-148.46 1598.25,-90.25 1601.63,-89.58 1605.11,-88.71 1608.55,-87.73"/>
<polygon fill="#63b8ff" stroke="#63b8ff" points="1609.41,-91.13 1617.87,-84.75 1607.28,-84.46 1609.41,-91.13"/>
</a>
</g>
</g>
<!-- Node12 -->
<g id="Node000012" class="node">
<title>Node12</title>
<g id="a_Node000012"><a xlink:title=" ">
<polygon fill="#e0e0e0" stroke="#999999" points="98.5,-20.75 0,-20.75 0,0 98.5,0 98.5,-20.75"/>
<text text-anchor="middle" x="49.25" y="-7.25" font-family="Helvetica,sans-Serif" font-size="10.00">llvm/ADT/APInt.h</text>
</a>
</g>
</g>
<!-- Node11&#45;&gt;Node12 -->
<g id="edge11_Node000011_Node000012" class="edge">
<title>Node11&#45;&gt;Node12</title>
<g id="a_edge11_Node000011_Node000012"><a xlink:title=" ">
<path fill="none" stroke="#63b8ff" d="M550.33,-62.69C537.57,-60.53 523.94,-58.4 511.25,-56.75 336.58,-34.03 288.66,-42.5 110.17,-20.9"/>
<polygon fill="#63b8ff" stroke="#63b8ff" points="110.64,-17.43 100.29,-19.68 109.79,-24.38 110.64,-17.43"/>
</a>
</g>
</g>
<!-- Node13 -->
<g id="Node000013" class="node">
<title>Node13</title>
<g id="a_Node000013"><a xlink:title=" ">
<polygon fill="#e0e0e0" stroke="#999999" points="221.5,-20.75 117,-20.75 117,0 221.5,0 221.5,-20.75"/>
<text text-anchor="middle" x="169.25" y="-7.25" font-family="Helvetica,sans-Serif" font-size="10.00">llvm/ADT/APSInt.h</text>
</a>
</g>
</g>
<!-- Node11&#45;&gt;Node13 -->
<g id="edge12_Node000011_Node000013" class="edge">
<title>Node11&#45;&gt;Node13</title>
<g id="a_edge12_Node000011_Node000013"><a xlink:title=" ">
<path fill="none" stroke="#63b8ff" d="M547.85,-62.63C535.8,-60.59 523.11,-58.52 511.25,-56.75 390.25,-38.65 356.8,-38.32 232.88,-21.09"/>
<polygon fill="#63b8ff" stroke="#63b8ff" points="233.7,-17.67 223.31,-19.75 232.73,-24.6 233.7,-17.67"/>
</a>
</g>
</g>
<!-- Node11&#45;&gt;Node14 -->
<g id="edge13_Node000011_Node000014" class="edge">
<title>Node11&#45;&gt;Node14</title>
<g id="a_edge13_Node000011_Node000014"><a xlink:title=" ">
<path fill="none" stroke="#63b8ff" d="M607.43,-62.68C611.01,-54.25 616.29,-41.84 620.76,-31.34"/>
<polygon fill="#63b8ff" stroke="#63b8ff" points="623.88,-32.93 624.58,-22.36 617.44,-30.19 623.88,-32.93"/>
</a>
</g>
</g>
<!-- Node15 -->
<g id="Node000015" class="node">
<title>Node15</title>
<g id="a_Node000015"><a xlink:title=" ">
<polygon fill="#e0e0e0" stroke="#999999" points="404.88,-20.75 239.62,-20.75 239.62,0 404.88,0 404.88,-20.75"/>
<text text-anchor="middle" x="322.25" y="-7.25" font-family="Helvetica,sans-Serif" font-size="10.00">llvm/ADT/SlowDynamicAPInt.h</text>
</a>
</g>
</g>
<!-- Node11&#45;&gt;Node15 -->
<g id="edge14_Node000011_Node000015" class="edge">
<title>Node11&#45;&gt;Node15</title>
<g id="a_edge14_Node000011_Node000015"><a xlink:title=" ">
<path fill="none" stroke="#63b8ff" d="M558.1,-62.68C509.25,-52.05 431.27,-35.09 378.48,-23.61"/>
<polygon fill="#63b8ff" stroke="#63b8ff" points="379.28,-20.2 368.76,-21.49 377.79,-27.04 379.28,-20.2"/>
</a>
</g>
</g>
<!-- Node16 -->
<g id="Node000016" class="node">
<title>Node16</title>
<g id="a_Node000016"><a xlink:title=" ">
<polygon fill="#e0e0e0" stroke="#999999" points="539.88,-20.75 422.62,-20.75 422.62,0 539.88,0 539.88,-20.75"/>
<text text-anchor="middle" x="481.25" y="-7.25" font-family="Helvetica,sans-Serif" font-size="10.00">llvm/ADT/StringRef.h</text>
</a>
</g>
</g>
<!-- Node11&#45;&gt;Node16 -->
<g id="edge15_Node000011_Node000016" class="edge">
<title>Node11&#45;&gt;Node16</title>
<g id="a_edge15_Node000011_Node000016"><a xlink:title=" ">
<path fill="none" stroke="#63b8ff" d="M583.65,-62.68C563.99,-52.83 533.48,-37.55 510.88,-26.22"/>
<polygon fill="#63b8ff" stroke="#63b8ff" points="512.66,-23.2 502.16,-21.85 509.53,-29.46 512.66,-23.2"/>
</a>
</g>
</g>
<!-- Node18 -->
<g id="Node000018" class="node">
<title>Node18</title>
<g id="a_Node000018"><a xlink:title=" ">
<polygon fill="#e0e0e0" stroke="#999999" points="835.88,-20.75 718.62,-20.75 718.62,0 835.88,0 835.88,-20.75"/>
<text text-anchor="middle" x="777.25" y="-7.25" font-family="Helvetica,sans-Serif" font-size="10.00">mlir/IR/Diagnostics.h</text>
</a>
</g>
</g>
<!-- Node17&#45;&gt;Node18 -->
<g id="edge17_Node000017_Node000018" class="edge">
<title>Node17&#45;&gt;Node18</title>
<g id="a_edge17_Node000017_Node000018"><a xlink:title=" ">
<path fill="none" stroke="#63b8ff" d="M798.23,-62.68C794.79,-54.25 789.71,-41.84 785.42,-31.34"/>
<polygon fill="#63b8ff" stroke="#63b8ff" points="788.77,-30.3 781.75,-22.37 782.29,-32.95 788.77,-30.3"/>
</a>
</g>
</g>
<!-- Node19 -->
<g id="Node000019" class="node">
<title>Node19</title>
<g id="a_Node000019"><a xlink:title=" ">
<polygon fill="#e0e0e0" stroke="#999999" points="962.38,-20.75 854.12,-20.75 854.12,0 962.38,0 962.38,-20.75"/>
<text text-anchor="middle" x="908.25" y="-7.25" font-family="Helvetica,sans-Serif" font-size="10.00">mlir/IR/Operation.h</text>
</a>
</g>
</g>
<!-- Node17&#45;&gt;Node19 -->
<g id="edge18_Node000017_Node000019" class="edge">
<title>Node17&#45;&gt;Node19</title>
<g id="a_edge18_Node000017_Node000019"><a xlink:title=" ">
<path fill="none" stroke="#63b8ff" d="M819.28,-62.68C836.05,-53.01 861.91,-38.1 881.44,-26.84"/>
<polygon fill="#63b8ff" stroke="#63b8ff" points="883.04,-29.96 889.95,-21.93 879.54,-23.89 883.04,-29.96"/>
</a>
</g>
</g>
<!-- Node20 -->
<g id="Node000020" class="node">
<title>Node20</title>
<g id="a_Node000020"><a xlink:title=" ">
<polygon fill="#e0e0e0" stroke="#999999" points="1151.88,-20.75 980.62,-20.75 980.62,0 1151.88,0 1151.88,-20.75"/>
<text text-anchor="middle" x="1066.25" y="-7.25" font-family="Helvetica,sans-Serif" font-size="10.00">llvm/ADT/STLFunctionalExtras.h</text>
</a>
</g>
</g>
<!-- Node17&#45;&gt;Node20 -->
<g id="edge19_Node000017_Node000020" class="edge">
<title>Node17&#45;&gt;Node20</title>
<g id="a_edge19_Node000017_Node000020"><a xlink:title=" ">
<path fill="none" stroke="#63b8ff" d="M844.67,-62.68C890.37,-52.1 963.21,-35.23 1012.8,-23.75"/>
<polygon fill="#63b8ff" stroke="#63b8ff" points="1013.51,-27.18 1022.46,-21.51 1011.93,-20.36 1013.51,-27.18"/>
</a>
</g>
</g>
<!-- Node21 -->
<g id="Node000021" class="node">
<title>Node21</title>
<g id="a_Node000021"><a xlink:title=" ">
<polygon fill="#e0e0e0" stroke="#999999" points="1270.62,-20.75 1169.88,-20.75 1169.88,0 1270.62,0 1270.62,-20.75"/>
<text text-anchor="middle" x="1220.25" y="-7.25" font-family="Helvetica,sans-Serif" font-size="10.00">llvm/ADT/Twine.h</text>
</a>
</g>
</g>
<!-- Node17&#45;&gt;Node21 -->
<g id="edge20_Node000017_Node000021" class="edge">
<title>Node17&#45;&gt;Node21</title>
<g id="a_edge20_Node000017_Node000021"><a xlink:title=" ">
<path fill="none" stroke="#63b8ff" d="M842.25,-62.65C851.72,-60.52 861.81,-58.41 871.25,-56.75 995.55,-34.91 1030.68,-38.7 1158.04,-21.15"/>
<polygon fill="#63b8ff" stroke="#63b8ff" points="1158.5,-24.62 1167.92,-19.77 1157.53,-17.69 1158.5,-24.62"/>
</a>
</g>
</g>
<!-- Node22 -->
<g id="Node000022" class="node">
<title>Node22</title>
<g id="a_Node000022"><a xlink:title=" ">
<polygon fill="#e0e0e0" stroke="#999999" points="1445.75,-20.75 1288.75,-20.75 1288.75,0 1445.75,0 1445.75,-20.75"/>
<text text-anchor="middle" x="1367.25" y="-7.25" font-family="Helvetica,sans-Serif" font-size="10.00">llvm/Support/ErrorHandling.h</text>
</a>
</g>
</g>
<!-- Node17&#45;&gt;Node22 -->
<g id="edge21_Node000017_Node000022" class="edge">
<title>Node17&#45;&gt;Node22</title>
<g id="a_edge21_Node000017_Node000022"><a xlink:title=" ">
<path fill="none" stroke="#63b8ff" d="M841.12,-62.65C850.9,-60.44 861.42,-58.3 871.25,-56.75 1047.47,-29 1096.13,-38.01 1277.3,-20.91"/>
<polygon fill="#63b8ff" stroke="#63b8ff" points="1277.45,-24.41 1287.07,-19.97 1276.78,-17.44 1277.45,-24.41"/>
</a>
</g>
</g>
<!-- Node23 -->
<g id="Node000023" class="node">
<title>Node23</title>
<g id="a_Node000023"><a xlink:title=" ">
<polygon fill="#e0e0e0" stroke="#999999" points="1514.5,-20.75 1464,-20.75 1464,0 1514.5,0 1514.5,-20.75"/>
<text text-anchor="middle" x="1489.25" y="-7.25" font-family="Helvetica,sans-Serif" font-size="10.00">variant</text>
</a>
</g>
</g>
<!-- Node17&#45;&gt;Node23 -->
<g id="edge22_Node000017_Node000023" class="edge">
<title>Node17&#45;&gt;Node23</title>
<g id="a_edge22_Node000017_Node000023"><a xlink:title=" ">
<path fill="none" stroke="#63b8ff" d="M840.36,-62.63C850.35,-60.37 861.16,-58.2 871.25,-56.75 1125,-20.22 1196.72,-62.32 1452.62,-20.85"/>
<polygon fill="#63b8ff" stroke="#63b8ff" points="1452.97,-24.34 1462.26,-19.26 1451.83,-17.44 1452.97,-24.34"/>
</a>
</g>
</g>
</g>
</svg>
