<?xml version="1.0" encoding="UTF-8" standalone="no"?>
<!DOCTYPE svg PUBLIC "-//W3C//DTD SVG 1.1//EN"
 "http://www.w3.org/Graphics/SVG/1.1/DTD/svg11.dtd">
<!-- Generated by graphviz version 12.2.1 (0)
 -->
<!-- Title: include/llzk/Dialect/Felt/IR/Attrs.h Pages: 1 -->
<svg width="2590pt" height="459pt"
 viewBox="0.00 0.00 2589.88 458.50" xmlns="http://www.w3.org/2000/svg" xmlns:xlink="http://www.w3.org/1999/xlink">
<g id="graph0" class="graph" transform="scale(1 1) rotate(0) translate(4 454.5)">
<title>include/llzk/Dialect/Felt/IR/Attrs.h</title>
<!-- Node1 -->
<g id="Node000001" class="node">
<title>Node1</title>
<g id="a_Node000001"><a xlink:title=" ">
<polygon fill="#999999" stroke="#666666" points="2115.62,-450.5 2006.62,-450.5 2006.62,-417 2115.62,-417 2115.62,-450.5"/>
<text text-anchor="start" x="2014.62" y="-437" font-family="Helvetica,sans-Serif" font-size="10.00">include/llzk/Dialect</text>
<text text-anchor="middle" x="2061.12" y="-424.25" font-family="Helvetica,sans-Serif" font-size="10.00">/Felt/IR/Attrs.h</text>
</a>
</g>
</g>
<!-- Node2 -->
<g id="Node000002" class="node">
<title>Node2</title>
<g id="a_Node000002"><a xlink:href="Felt_2IR_2Ops_8h.html" target="_top" xlink:title=" ">
<polygon fill="white" stroke="#666666" points="922.62,-381 813.62,-381 813.62,-347.5 922.62,-347.5 922.62,-381"/>
<text text-anchor="start" x="821.62" y="-367.5" font-family="Helvetica,sans-Serif" font-size="10.00">include/llzk/Dialect</text>
<text text-anchor="middle" x="868.12" y="-354.75" font-family="Helvetica,sans-Serif" font-size="10.00">/Felt/IR/Ops.h</text>
</a>
</g>
</g>
<!-- Node1&#45;&gt;Node2 -->
<g id="edge1_Node000001_Node000002" class="edge">
<title>Node1&#45;&gt;Node2</title>
<g id="a_edge1_Node000001_Node000002"><a xlink:title=" ">
<path fill="none" stroke="#63b8ff" d="M1995.11,-429.01C1782.63,-416.99 1118.98,-379.44 923.09,-368.36"/>
<polygon fill="#63b8ff" stroke="#63b8ff" points="1994.68,-432.5 2004.86,-429.57 1995.07,-425.51 1994.68,-432.5"/>
</a>
</g>
</g>
<!-- Node12 -->
<g id="Node000012" class="node">
<title>Node12</title>
<g id="a_Node000012"><a xlink:href="Verif_2IR_2Ops_8cpp.html" target="_top" xlink:title=" ">
<polygon fill="white" stroke="#666666" points="1148,-103 1044.25,-103 1044.25,-69.5 1148,-69.5 1148,-103"/>
<text text-anchor="start" x="1052.25" y="-89.5" font-family="Helvetica,sans-Serif" font-size="10.00">lib/Dialect/Verif/IR</text>
<text text-anchor="middle" x="1096.12" y="-76.75" font-family="Helvetica,sans-Serif" font-size="10.00">/Ops.cpp</text>
</a>
</g>
</g>
<!-- Node1&#45;&gt;Node12 -->
<g id="edge42_Node000001_Node000012" class="edge">
<title>Node1&#45;&gt;Node12</title>
<g id="a_edge42_Node000001_Node000012"><a xlink:title=" ">
<path fill="none" stroke="#63b8ff" d="M2068.47,-405.89C2076.01,-371.81 2082.78,-313.23 2052.12,-278 1931.81,-139.7 1330.58,-98.87 1148.48,-89.58"/>
<polygon fill="#63b8ff" stroke="#63b8ff" points="2065.12,-404.83 2066.18,-415.38 2071.93,-406.47 2065.12,-404.83"/>
</a>
</g>
</g>
<!-- Node18 -->
<g id="Node000018" class="node">
<title>Node18</title>
<g id="a_Node000018"><a xlink:href="Felt_8cpp.html" target="_top" xlink:title=" ">
<polygon fill="white" stroke="#666666" points="132.25,-305.12 0,-305.12 0,-284.38 132.25,-284.38 132.25,-305.12"/>
<text text-anchor="middle" x="66.12" y="-291.62" font-family="Helvetica,sans-Serif" font-size="10.00">lib/CAPI/Dialect/Felt.cpp</text>
</a>
</g>
</g>
<!-- Node1&#45;&gt;Node18 -->
<g id="edge36_Node000001_Node000018" class="edge">
<title>Node1&#45;&gt;Node18</title>
<g id="a_edge36_Node000001_Node000018"><a xlink:title=" ">
<path fill="none" stroke="#63b8ff" d="M1995.3,-432.13C1734.74,-429.44 775.03,-417.24 473.12,-381 334.61,-364.37 173.29,-324.27 102.53,-305.61"/>
<polygon fill="#63b8ff" stroke="#63b8ff" points="1994.91,-435.63 2004.94,-432.23 1994.98,-428.63 1994.91,-435.63"/>
</a>
</g>
</g>
<!-- Node19 -->
<g id="Node000019" class="node">
<title>Node19</title>
<g id="a_Node000019"><a xlink:href="Cast_2IR_2Ops_8cpp.html" target="_top" xlink:title=" ">
<polygon fill="white" stroke="#666666" points="253.62,-311.5 150.62,-311.5 150.62,-278 253.62,-278 253.62,-311.5"/>
<text text-anchor="start" x="158.62" y="-298" font-family="Helvetica,sans-Serif" font-size="10.00">lib/Dialect/Cast/IR</text>
<text text-anchor="middle" x="202.12" y="-285.25" font-family="Helvetica,sans-Serif" font-size="10.00">/Ops.cpp</text>
</a>
</g>
</g>
<!-- Node1&#45;&gt;Node19 -->
<g id="edge38_Node000001_Node000019" class="edge">
<title>Node1&#45;&gt;Node19</title>
<g id="a_edge38_Node000001_Node000019"><a xlink:title=" ">
<path fill="none" stroke="#63b8ff" d="M1994.91,-432.04C1807.66,-429.61 1258.45,-419.46 804.12,-381 562.57,-360.55 501.17,-357.34 263.12,-311.5 260.12,-310.92 257.04,-310.28 253.94,-309.6"/>
<polygon fill="#63b8ff" stroke="#63b8ff" points="1994.63,-435.54 2004.68,-432.17 1994.72,-428.54 1994.63,-435.54"/>
</a>
</g>
</g>
<!-- Node20 -->
<g id="Node000020" class="node">
<title>Node20</title>
<g id="a_Node000020"><a xlink:href="Felt_2IR_2Dialect_8cpp.html" target="_top" xlink:title=" ">
<polygon fill="white" stroke="#666666" points="2042.75,-311.5 1943.5,-311.5 1943.5,-278 2042.75,-278 2042.75,-311.5"/>
<text text-anchor="start" x="1951.5" y="-298" font-family="Helvetica,sans-Serif" font-size="10.00">lib/Dialect/Felt/IR</text>
<text text-anchor="middle" x="1993.12" y="-285.25" font-family="Helvetica,sans-Serif" font-size="10.00">/Dialect.cpp</text>
</a>
</g>
</g>
<!-- Node1&#45;&gt;Node20 -->
<g id="edge40_Node000001_Node000020" class="edge">
<title>Node1&#45;&gt;Node20</title>
<g id="a_edge40_Node000001_Node000020"><a xlink:title=" ">
<path fill="none" stroke="#63b8ff" d="M2048.09,-406.5C2034.17,-378.44 2012.55,-334.88 2001.01,-311.63"/>
<polygon fill="#63b8ff" stroke="#63b8ff" points="2044.94,-408.01 2052.52,-415.41 2051.21,-404.9 2044.94,-408.01"/>
</a>
</g>
</g>
<!-- Node29 -->
<g id="Node000029" class="node">
<title>Node29</title>
<g id="a_Node000029"><a xlink:href="Bool_2IR_2Ops_8cpp.html" target="_top" xlink:title=" ">
<polygon fill="white" stroke="#666666" points="2192.62,-381 2089.62,-381 2089.62,-347.5 2192.62,-347.5 2192.62,-381"/>
<text text-anchor="start" x="2097.62" y="-367.5" font-family="Helvetica,sans-Serif" font-size="10.00">lib/Dialect/Bool/IR</text>
<text text-anchor="middle" x="2141.12" y="-354.75" font-family="Helvetica,sans-Serif" font-size="10.00">/Ops.cpp</text>
</a>
</g>
</g>
<!-- Node1&#45;&gt;Node29 -->
<g id="edge37_Node000001_Node000029" class="edge">
<title>Node1&#45;&gt;Node29</title>
<g id="a_edge37_Node000001_Node000029"><a xlink:title=" ">
<path fill="none" stroke="#63b8ff" d="M2088.87,-409.34C2099.82,-400.1 2112.11,-389.73 2122.02,-381.37"/>
<polygon fill="#63b8ff" stroke="#63b8ff" points="2086.63,-406.65 2081.24,-415.78 2091.14,-412 2086.63,-406.65"/>
</a>
</g>
</g>
<!-- Node30 -->
<g id="Node000030" class="node">
<title>Node30</title>
<g id="a_Node000030"><a xlink:href="Felt_2IR_2Attrs_8cpp.html" target="_top" xlink:title=" ">
<polygon fill="white" stroke="#666666" points="2309.75,-381 2210.5,-381 2210.5,-347.5 2309.75,-347.5 2309.75,-381"/>
<text text-anchor="start" x="2218.5" y="-367.5" font-family="Helvetica,sans-Serif" font-size="10.00">lib/Dialect/Felt/IR</text>
<text text-anchor="middle" x="2260.12" y="-354.75" font-family="Helvetica,sans-Serif" font-size="10.00">/Attrs.cpp</text>
</a>
</g>
</g>
<!-- Node1&#45;&gt;Node30 -->
<g id="edge39_Node000001_Node000030" class="edge">
<title>Node1&#45;&gt;Node30</title>
<g id="a_edge39_Node000001_Node000030"><a xlink:title=" ">
<path fill="none" stroke="#63b8ff" d="M2119.41,-412.98C2149.02,-402.94 2184.55,-390.88 2212.5,-381.4"/>
<polygon fill="#63b8ff" stroke="#63b8ff" points="2118.57,-409.57 2110.22,-416.1 2120.82,-416.2 2118.57,-409.57"/>
</a>
</g>
</g>
<!-- Node31 -->
<g id="Node000031" class="node">
<title>Node31</title>
<g id="a_Node000031"><a xlink:href="Function_2IR_2Ops_8cpp.html" target="_top" xlink:title=" ">
<polygon fill="white" stroke="#666666" points="2438,-381 2328.25,-381 2328.25,-347.5 2438,-347.5 2438,-381"/>
<text text-anchor="start" x="2336.25" y="-367.5" font-family="Helvetica,sans-Serif" font-size="10.00">lib/Dialect/Function</text>
<text text-anchor="middle" x="2383.12" y="-354.75" font-family="Helvetica,sans-Serif" font-size="10.00">/IR/Ops.cpp</text>
</a>
</g>
</g>
<!-- Node1&#45;&gt;Node31 -->
<g id="edge41_Node000001_Node000031" class="edge">
<title>Node1&#45;&gt;Node31</title>
<g id="a_edge41_Node000001_Node000031"><a xlink:title=" ">
<path fill="none" stroke="#63b8ff" d="M2127,-420.35C2179.23,-410.33 2254.01,-395.53 2319.12,-381 2322.03,-380.35 2325,-379.67 2328,-378.98"/>
<polygon fill="#63b8ff" stroke="#63b8ff" points="2126.53,-416.88 2117.37,-422.2 2127.85,-423.75 2126.53,-416.88"/>
</a>
</g>
</g>
<!-- Node32 -->
<g id="Node000032" class="node">
<title>Node32</title>
<g id="a_Node000032"><a xlink:href="TypeHelper_8cpp.html" target="_top" xlink:title=" ">
<polygon fill="white" stroke="#666666" points="2581.88,-374.62 2456.38,-374.62 2456.38,-353.88 2581.88,-353.88 2581.88,-374.62"/>
<text text-anchor="middle" x="2519.12" y="-361.12" font-family="Helvetica,sans-Serif" font-size="10.00">lib/Util/TypeHelper.cpp</text>
</a>
</g>
</g>
<!-- Node1&#45;&gt;Node32 -->
<g id="edge43_Node000001_Node000032" class="edge">
<title>Node1&#45;&gt;Node32</title>
<g id="a_edge43_Node000001_Node000032"><a xlink:title=" ">
<path fill="none" stroke="#63b8ff" d="M2127.43,-425.54C2204.53,-416.76 2335.49,-400.66 2447.12,-381 2456.83,-379.29 2467.21,-377.19 2476.98,-375.08"/>
<polygon fill="#63b8ff" stroke="#63b8ff" points="2127.04,-422.06 2117.5,-426.66 2127.83,-429.01 2127.04,-422.06"/>
</a>
</g>
</g>
<!-- Node3 -->
<g id="Node000003" class="node">
<title>Node3</title>
<g id="a_Node000003"><a xlink:href="IntervalAnalysis_8h.html" target="_top" xlink:title=" ">
<polygon fill="white" stroke="#666666" points="422,-103 306.25,-103 306.25,-69.5 422,-69.5 422,-103"/>
<text text-anchor="start" x="314.25" y="-89.5" font-family="Helvetica,sans-Serif" font-size="10.00">include/llzk/Analysis</text>
<text text-anchor="middle" x="364.12" y="-76.75" font-family="Helvetica,sans-Serif" font-size="10.00">/IntervalAnalysis.h</text>
</a>
</g>
</g>
<!-- Node2&#45;&gt;Node3 -->
<g id="edge2_Node000002_Node000003" class="edge">
<title>Node2&#45;&gt;Node3</title>
<g id="a_edge2_Node000002_Node000003"><a xlink:title=" ">
<path fill="none" stroke="#63b8ff" d="M802.26,-356.97C704.8,-347.2 531.03,-327.79 507.12,-311.5 434.26,-261.84 460.08,-210.96 409.12,-139 400.18,-126.37 388.72,-113.22 379.6,-103.34"/>
<polygon fill="#63b8ff" stroke="#63b8ff" points="801.67,-360.43 811.96,-357.93 802.36,-353.46 801.67,-360.43"/>
</a>
</g>
</g>
<!-- Node6 -->
<g id="Node000006" class="node">
<title>Node6</title>
<g id="a_Node000006"><a xlink:href="Matchers_8h.html" target="_top" xlink:title=" ">
<polygon fill="white" stroke="#666666" points="400,-172.5 284.25,-172.5 284.25,-139 400,-139 400,-172.5"/>
<text text-anchor="start" x="292.25" y="-159" font-family="Helvetica,sans-Serif" font-size="10.00">include/llzk/Analysis</text>
<text text-anchor="middle" x="342.12" y="-146.25" font-family="Helvetica,sans-Serif" font-size="10.00">/Matchers.h</text>
</a>
</g>
</g>
<!-- Node2&#45;&gt;Node6 -->
<g id="edge5_Node000002_Node000006" class="edge">
<title>Node2&#45;&gt;Node6</title>
<g id="a_edge5_Node000002_Node000006"><a xlink:title=" ">
<path fill="none" stroke="#63b8ff" d="M801.88,-357.74C693.45,-348.29 487.19,-328.39 458.12,-311.5 401.23,-278.43 363.46,-205.29 348.88,-172.82"/>
<polygon fill="#63b8ff" stroke="#63b8ff" points="801.55,-361.22 811.82,-358.6 802.16,-354.25 801.55,-361.22"/>
</a>
</g>
</g>
<!-- Node7 -->
<g id="Node000007" class="node">
<title>Node7</title>
<g id="a_Node000007"><a xlink:href="SourceRef_8h.html" target="_top" xlink:title=" ">
<polygon fill="white" stroke="#666666" points="654,-311.5 538.25,-311.5 538.25,-278 654,-278 654,-311.5"/>
<text text-anchor="start" x="546.25" y="-298" font-family="Helvetica,sans-Serif" font-size="10.00">include/llzk/Analysis</text>
<text text-anchor="middle" x="596.12" y="-285.25" font-family="Helvetica,sans-Serif" font-size="10.00">/SourceRef.h</text>
</a>
</g>
</g>
<!-- Node2&#45;&gt;Node7 -->
<g id="edge7_Node000002_Node000007" class="edge">
<title>Node2&#45;&gt;Node7</title>
<g id="a_edge7_Node000002_Node000007"><a xlink:title=" ">
<path fill="none" stroke="#63b8ff" d="M802.52,-346.97C757.23,-335.73 697.57,-320.92 654.04,-310.12"/>
<polygon fill="#63b8ff" stroke="#63b8ff" points="801.39,-350.3 811.94,-349.31 803.08,-343.5 801.39,-350.3"/>
</a>
</g>
</g>
<!-- Node11 -->
<g id="Node000011" class="node">
<title>Node11</title>
<g id="a_Node000011"><a xlink:href="SourceRefLattice_8cpp.html" target="_top" xlink:title=" ">
<polygon fill="white" stroke="#666666" points="618.12,-96.62 440.12,-96.62 440.12,-75.88 618.12,-75.88 618.12,-96.62"/>
<text text-anchor="middle" x="529.12" y="-83.12" font-family="Helvetica,sans-Serif" font-size="10.00">lib/Analysis/SourceRefLattice.cpp</text>
</a>
</g>
</g>
<!-- Node2&#45;&gt;Node11 -->
<g id="edge24_Node000002_Node000011" class="edge">
<title>Node2&#45;&gt;Node11</title>
<g id="a_edge24_Node000002_Node000011"><a xlink:title=" ">
<path fill="none" stroke="#63b8ff" d="M801.96,-357.75C708.36,-349.29 546.65,-331.9 529.12,-311.5 474.08,-247.41 512.35,-130.84 525.29,-96.82"/>
<polygon fill="#63b8ff" stroke="#63b8ff" points="801.52,-361.22 811.79,-358.63 802.14,-354.25 801.52,-361.22"/>
</a>
</g>
</g>
<!-- Node15 -->
<g id="Node000015" class="node">
<title>Node15</title>
<g id="a_Node000015"><a xlink:href="LLZKLoweringUtils_8h.html" target="_top" xlink:title=" ">
<polygon fill="white" stroke="#666666" points="800.38,-311.5 671.88,-311.5 671.88,-278 800.38,-278 800.38,-311.5"/>
<text text-anchor="start" x="679.88" y="-298" font-family="Helvetica,sans-Serif" font-size="10.00">include/llzk/Transforms</text>
<text text-anchor="middle" x="736.12" y="-285.25" font-family="Helvetica,sans-Serif" font-size="10.00">/LLZKLoweringUtils.h</text>
</a>
</g>
</g>
<!-- Node2&#45;&gt;Node15 -->
<g id="edge20_Node000002_Node000015" class="edge">
<title>Node2&#45;&gt;Node15</title>
<g id="a_edge20_Node000002_Node000015"><a xlink:title=" ">
<path fill="none" stroke="#63b8ff" d="M826.29,-341.86C807.24,-332.12 785.07,-320.78 767.48,-311.79"/>
<polygon fill="#63b8ff" stroke="#63b8ff" points="824.66,-344.96 835.16,-346.39 827.85,-338.72 824.66,-344.96"/>
</a>
</g>
</g>
<!-- Node2&#45;&gt;Node18 -->
<g id="edge25_Node000002_Node000018" class="edge">
<title>Node2&#45;&gt;Node18</title>
<g id="a_edge25_Node000002_Node000018"><a xlink:title=" ">
<path fill="none" stroke="#63b8ff" d="M801.99,-361.55C673.88,-357.59 383.19,-345.37 141.12,-311.5 130.32,-309.99 118.74,-307.83 108,-305.59"/>
<polygon fill="#63b8ff" stroke="#63b8ff" points="801.52,-365.04 811.63,-361.84 801.74,-358.04 801.52,-365.04"/>
</a>
</g>
</g>
<!-- Node2&#45;&gt;Node19 -->
<g id="edge26_Node000002_Node000019" class="edge">
<title>Node2&#45;&gt;Node19</title>
<g id="a_edge26_Node000002_Node000019"><a xlink:title=" ">
<path fill="none" stroke="#63b8ff" d="M801.86,-358.99C667.1,-350.09 365.23,-328.92 263.12,-311.5 260.11,-310.98 257.02,-310.39 253.91,-309.75"/>
<polygon fill="#63b8ff" stroke="#63b8ff" points="801.49,-362.47 811.7,-359.64 801.95,-355.49 801.49,-362.47"/>
</a>
</g>
</g>
<!-- Node2&#45;&gt;Node20 -->
<g id="edge27_Node000002_Node000020" class="edge">
<title>Node2&#45;&gt;Node20</title>
<g id="a_edge27_Node000002_Node000020"><a xlink:title=" ">
<path fill="none" stroke="#63b8ff" d="M934.27,-361.92C1135.89,-357.56 1740.83,-342.22 1935.12,-311.5 1937.8,-311.08 1940.54,-310.58 1943.29,-310.02"/>
<polygon fill="#63b8ff" stroke="#63b8ff" points="934.42,-358.41 924.5,-362.13 934.57,-365.41 934.42,-358.41"/>
</a>
</g>
</g>
<!-- Node21 -->
<g id="Node000021" class="node">
<title>Node21</title>
<g id="a_Node000021"><a xlink:href="Felt_2IR_2Ops_8cpp.html" target="_top" xlink:title=" ">
<polygon fill="white" stroke="#666666" points="917.75,-311.5 818.5,-311.5 818.5,-278 917.75,-278 917.75,-311.5"/>
<text text-anchor="start" x="826.5" y="-298" font-family="Helvetica,sans-Serif" font-size="10.00">lib/Dialect/Felt/IR</text>
<text text-anchor="middle" x="868.12" y="-285.25" font-family="Helvetica,sans-Serif" font-size="10.00">/Ops.cpp</text>
</a>
</g>
</g>
<!-- Node2&#45;&gt;Node21 -->
<g id="edge28_Node000002_Node000021" class="edge">
<title>Node2&#45;&gt;Node21</title>
<g id="a_edge28_Node000002_Node000021"><a xlink:title=" ">
<path fill="none" stroke="#63b8ff" d="M868.12,-335.81C868.12,-327.59 868.12,-318.84 868.12,-311.63"/>
<polygon fill="#63b8ff" stroke="#63b8ff" points="864.63,-335.74 868.13,-345.74 871.63,-335.74 864.63,-335.74"/>
</a>
</g>
</g>
<!-- Node22 -->
<g id="Node000022" class="node">
<title>Node22</title>
<g id="a_Node000022"><a xlink:href="Global_2IR_2Ops_8cpp.html" target="_top" xlink:title=" ">
<polygon fill="white" stroke="#666666" points="1036.12,-311.5 936.12,-311.5 936.12,-278 1036.12,-278 1036.12,-311.5"/>
<text text-anchor="start" x="944.12" y="-298" font-family="Helvetica,sans-Serif" font-size="10.00">lib/Dialect/Global</text>
<text text-anchor="middle" x="986.12" y="-285.25" font-family="Helvetica,sans-Serif" font-size="10.00">/IR/Ops.cpp</text>
</a>
</g>
</g>
<!-- Node2&#45;&gt;Node22 -->
<g id="edge29_Node000002_Node000022" class="edge">
<title>Node2&#45;&gt;Node22</title>
<g id="a_edge29_Node000002_Node000022"><a xlink:title=" ">
<path fill="none" stroke="#63b8ff" d="M905.99,-341.59C922.92,-331.91 942.51,-320.7 958.09,-311.79"/>
<polygon fill="#63b8ff" stroke="#63b8ff" points="904.65,-338.33 897.7,-346.33 908.12,-344.4 904.65,-338.33"/>
</a>
</g>
</g>
<!-- Node23 -->
<g id="Node000023" class="node">
<title>Node23</title>
<g id="a_Node000023"><a xlink:href="FlatteningPass_8cpp.html" target="_top" xlink:title="This file implements the &#45;llzk&#45;flatten pass.">
<polygon fill="white" stroke="#666666" points="1221.88,-311.5 1054.38,-311.5 1054.38,-278 1221.88,-278 1221.88,-311.5"/>
<text text-anchor="start" x="1062.38" y="-298" font-family="Helvetica,sans-Serif" font-size="10.00">lib/Dialect/Polymorphic</text>
<text text-anchor="middle" x="1138.12" y="-285.25" font-family="Helvetica,sans-Serif" font-size="10.00">/Transforms/FlatteningPass.cpp</text>
</a>
</g>
</g>
<!-- Node2&#45;&gt;Node23 -->
<g id="edge30_Node000002_Node000023" class="edge">
<title>Node2&#45;&gt;Node23</title>
<g id="a_edge30_Node000002_Node000023"><a xlink:title=" ">
<path fill="none" stroke="#63b8ff" d="M934.12,-346.75C976.45,-336.17 1031.15,-322.49 1073.25,-311.97"/>
<polygon fill="#63b8ff" stroke="#63b8ff" points="933.41,-343.32 924.56,-349.14 935.11,-350.11 933.41,-343.32"/>
</a>
</g>
</g>
<!-- Node24 -->
<g id="Node000024" class="node">
<title>Node24</title>
<g id="a_Node000024"><a xlink:href="LLZKInlineStructsPass_8cpp.html" target="_top" xlink:title="This file implements the &#45;llzk&#45;inline&#45;structs pass.">
<polygon fill="white" stroke="#666666" points="1378.62,-311.5 1239.62,-311.5 1239.62,-278 1378.62,-278 1378.62,-311.5"/>
<text text-anchor="start" x="1247.62" y="-298" font-family="Helvetica,sans-Serif" font-size="10.00">lib/Transforms/LLZKInline</text>
<text text-anchor="middle" x="1309.12" y="-285.25" font-family="Helvetica,sans-Serif" font-size="10.00">StructsPass.cpp</text>
</a>
</g>
</g>
<!-- Node2&#45;&gt;Node24 -->
<g id="edge31_Node000002_Node000024" class="edge">
<title>Node2&#45;&gt;Node24</title>
<g id="a_edge31_Node000002_Node000024"><a xlink:title=" ">
<path fill="none" stroke="#63b8ff" d="M934.29,-354.98C1007.19,-345.6 1127.81,-329.28 1231.12,-311.5 1233.85,-311.03 1236.62,-310.54 1239.42,-310.03"/>
<polygon fill="#63b8ff" stroke="#63b8ff" points="933.99,-351.49 924.51,-356.23 934.88,-358.44 933.99,-351.49"/>
</a>
</g>
</g>
<!-- Node25 -->
<g id="Node000025" class="node">
<title>Node25</title>
<g id="a_Node000025"><a xlink:href="LLZKRedundantReadAndWriteEliminationPass_8cpp.html" target="_top" xlink:title="This file implements the &#45;llzk&#45;duplicate&#45;read&#45;write&#45;elim pass.">
<polygon fill="white" stroke="#666666" points="1579.75,-311.5 1396.5,-311.5 1396.5,-278 1579.75,-278 1579.75,-311.5"/>
<text text-anchor="start" x="1404.5" y="-298" font-family="Helvetica,sans-Serif" font-size="10.00">lib/Transforms/LLZKRedundant</text>
<text text-anchor="middle" x="1488.12" y="-285.25" font-family="Helvetica,sans-Serif" font-size="10.00">ReadAndWriteEliminationPass.cpp</text>
</a>
</g>
</g>
<!-- Node2&#45;&gt;Node25 -->
<g id="edge32_Node000002_Node000025" class="edge">
<title>Node2&#45;&gt;Node25</title>
<g id="a_edge32_Node000002_Node000025"><a xlink:title=" ">
<path fill="none" stroke="#63b8ff" d="M934.06,-357.85C1032.76,-349.51 1224.69,-332.25 1387.12,-311.5 1390.12,-311.12 1393.16,-310.72 1396.23,-310.3"/>
<polygon fill="#63b8ff" stroke="#63b8ff" points="933.96,-354.35 924.29,-358.67 934.55,-361.32 933.96,-354.35"/>
</a>
</g>
</g>
<!-- Node26 -->
<g id="Node000026" class="node">
<title>Node26</title>
<g id="a_Node000026"><a xlink:href="LLZKWhileToForPass_8cpp.html" target="_top" xlink:title="This file identifies scf.while loops that can be converted to scf.for loops and performs the conversi...">
<polygon fill="white" stroke="#666666" points="1736.62,-311.5 1597.62,-311.5 1597.62,-278 1736.62,-278 1736.62,-311.5"/>
<text text-anchor="start" x="1605.62" y="-298" font-family="Helvetica,sans-Serif" font-size="10.00">lib/Transforms/LLZKWhile</text>
<text text-anchor="middle" x="1667.12" y="-285.25" font-family="Helvetica,sans-Serif" font-size="10.00">ToForPass.cpp</text>
</a>
</g>
</g>
<!-- Node2&#45;&gt;Node26 -->
<g id="edge33_Node000002_Node000026" class="edge">
<title>Node2&#45;&gt;Node26</title>
<g id="a_edge33_Node000002_Node000026"><a xlink:title=" ">
<path fill="none" stroke="#63b8ff" d="M934.56,-361.31C1062,-356.98 1349.47,-344.16 1589.12,-311.5 1591.86,-311.13 1594.65,-310.72 1597.46,-310.28"/>
<polygon fill="#63b8ff" stroke="#63b8ff" points="934.48,-357.81 924.61,-361.65 934.72,-364.81 934.48,-357.81"/>
</a>
</g>
</g>
<!-- Node27 -->
<g id="Node000027" class="node">
<title>Node27</title>
<g id="a_Node000027"><a xlink:href="Interpreter_8cpp.html" target="_top" xlink:title=" ">
<polygon fill="white" stroke="#666666" points="1925.75,-305.12 1754.5,-305.12 1754.5,-284.38 1925.75,-284.38 1925.75,-305.12"/>
<text text-anchor="middle" x="1840.12" y="-291.62" font-family="Helvetica,sans-Serif" font-size="10.00">tools/llzk&#45;witgen/Interpreter.cpp</text>
</a>
</g>
</g>
<!-- Node2&#45;&gt;Node27 -->
<g id="edge34_Node000002_Node000027" class="edge">
<title>Node2&#45;&gt;Node27</title>
<g id="a_edge34_Node000002_Node000027"><a xlink:title=" ">
<path fill="none" stroke="#63b8ff" d="M934.45,-361.77C1081.17,-357.95 1444.2,-345.59 1746.12,-311.5 1759.61,-309.98 1774.1,-307.81 1787.57,-305.58"/>
<polygon fill="#63b8ff" stroke="#63b8ff" points="934.43,-358.27 924.52,-362.02 934.61,-365.26 934.43,-358.27"/>
</a>
</g>
</g>
<!-- Node28 -->
<g id="Node000028" class="node">
<title>Node28</title>
<g id="a_Node000028"><a xlink:href="WitgenLowering_8cpp.html" target="_top" xlink:title=" ">
<polygon fill="white" stroke="#666666" points="406.38,-311.5 271.88,-311.5 271.88,-278 406.38,-278 406.38,-311.5"/>
<text text-anchor="start" x="279.88" y="-298" font-family="Helvetica,sans-Serif" font-size="10.00">tools/llzk&#45;witgen/Witgen</text>
<text text-anchor="middle" x="339.12" y="-285.25" font-family="Helvetica,sans-Serif" font-size="10.00">Lowering.cpp</text>
</a>
</g>
</g>
<!-- Node2&#45;&gt;Node28 -->
<g id="edge35_Node000002_Node000028" class="edge">
<title>Node2&#45;&gt;Node28</title>
<g id="a_edge35_Node000002_Node000028"><a xlink:title=" ">
<path fill="none" stroke="#63b8ff" d="M802.11,-357.23C714.54,-348.88 555.27,-332.41 420.12,-311.5 415.74,-310.82 411.22,-310.08 406.68,-309.29"/>
<polygon fill="#63b8ff" stroke="#63b8ff" points="801.67,-360.7 811.96,-358.16 802.33,-353.74 801.67,-360.7"/>
</a>
</g>
</g>
<!-- Node4 -->
<g id="Node000004" class="node">
<title>Node4</title>
<g id="a_Node000004"><a xlink:href="IntervalAnalysis_8cpp.html" target="_top" xlink:title=" ">
<polygon fill="white" stroke="#666666" points="365.25,-27.12 191,-27.12 191,-6.38 365.25,-6.38 365.25,-27.12"/>
<text text-anchor="middle" x="278.12" y="-13.62" font-family="Helvetica,sans-Serif" font-size="10.00">lib/Analysis/IntervalAnalysis.cpp</text>
</a>
</g>
</g>
<!-- Node3&#45;&gt;Node4 -->
<g id="edge3_Node000003_Node000004" class="edge">
<title>Node3&#45;&gt;Node4</title>
<g id="a_edge3_Node000003_Node000004"><a xlink:title=" ">
<path fill="none" stroke="#63b8ff" d="M334.77,-62.21C319.71,-50.39 302.17,-36.62 290.64,-27.57"/>
<polygon fill="#63b8ff" stroke="#63b8ff" points="332.53,-64.9 342.55,-68.32 336.85,-59.39 332.53,-64.9"/>
</a>
</g>
</g>
<!-- Node5 -->
<g id="Node000005" class="node">
<title>Node5</title>
<g id="a_Node000005"><a xlink:href="IntervalAnalysisPass_8cpp.html" target="_top" xlink:title="This file implements the &#45;llzk&#45;print&#45;interval&#45;analysis pass.">
<polygon fill="white" stroke="#666666" points="537.12,-33.5 383.12,-33.5 383.12,0 537.12,0 537.12,-33.5"/>
<text text-anchor="start" x="391.12" y="-20" font-family="Helvetica,sans-Serif" font-size="10.00">lib/Analysis/IntervalAnalysis</text>
<text text-anchor="middle" x="460.12" y="-7.25" font-family="Helvetica,sans-Serif" font-size="10.00">Pass.cpp</text>
</a>
</g>
</g>
<!-- Node3&#45;&gt;Node5 -->
<g id="edge4_Node000003_Node000005" class="edge">
<title>Node3&#45;&gt;Node5</title>
<g id="a_edge4_Node000003_Node000005"><a xlink:title=" ">
<path fill="none" stroke="#63b8ff" d="M396.25,-62.66C409.67,-53.23 424.95,-42.48 437.2,-33.87"/>
<polygon fill="#63b8ff" stroke="#63b8ff" points="394.28,-59.77 388.11,-68.38 398.31,-65.49 394.28,-59.77"/>
</a>
</g>
</g>
<!-- Node6&#45;&gt;Node4 -->
<g id="edge6_Node000006_Node000004" class="edge">
<title>Node6&#45;&gt;Node4</title>
<g id="a_edge6_Node000006_Node000004"><a xlink:title=" ">
<path fill="none" stroke="#63b8ff" d="M316.59,-130.43C309.34,-122.32 302.09,-112.83 297.12,-103 284.35,-77.69 280.1,-43.87 278.74,-27.47"/>
<polygon fill="#63b8ff" stroke="#63b8ff" points="313.88,-132.66 323.29,-137.53 318.97,-127.85 313.88,-132.66"/>
</a>
</g>
</g>
<!-- Node8 -->
<g id="Node000008" class="node">
<title>Node8</title>
<g id="a_Node000008"><a xlink:href="ConstraintDependencyGraph_8h.html" target="_top" xlink:title=" ">
<polygon fill="white" stroke="#666666" points="782.25,-172.5 614,-172.5 614,-139 782.25,-139 782.25,-172.5"/>
<text text-anchor="start" x="622" y="-159" font-family="Helvetica,sans-Serif" font-size="10.00">include/llzk/Analysis</text>
<text text-anchor="middle" x="698.12" y="-146.25" font-family="Helvetica,sans-Serif" font-size="10.00">/ConstraintDependencyGraph.h</text>
</a>
</g>
</g>
<!-- Node7&#45;&gt;Node8 -->
<g id="edge8_Node000007_Node000008" class="edge">
<title>Node7&#45;&gt;Node8</title>
<g id="a_edge8_Node000007_Node000008"><a xlink:title=" ">
<path fill="none" stroke="#63b8ff" d="M632.74,-270.9C643.59,-262.8 654.79,-252.94 663.12,-242 679.32,-220.75 689.28,-190.95 694.25,-172.79"/>
<polygon fill="#63b8ff" stroke="#63b8ff" points="630.73,-268.03 624.61,-276.68 634.79,-273.74 630.73,-268.03"/>
</a>
</g>
</g>
<!-- Node7&#45;&gt;Node12 -->
<g id="edge19_Node000007_Node000012" class="edge">
<title>Node7&#45;&gt;Node12</title>
<g id="a_edge19_Node000007_Node000012"><a xlink:title=" ">
<path fill="none" stroke="#63b8ff" d="M634.66,-272.06C650.67,-262.93 669.38,-252.1 686.12,-242 709.99,-227.61 713.98,-220.51 739.12,-208.5 843.08,-158.85 972.84,-120.16 1043.78,-100.83"/>
<polygon fill="#63b8ff" stroke="#63b8ff" points="633.36,-268.77 626.4,-276.76 636.82,-274.86 633.36,-268.77"/>
</a>
</g>
</g>
<!-- Node13 -->
<g id="Node000013" class="node">
<title>Node13</title>
<g id="a_Node000013"><a xlink:href="SourceRefLattice_8h.html" target="_top" xlink:title=" ">
<polygon fill="white" stroke="#666666" points="654,-242 538.25,-242 538.25,-208.5 654,-208.5 654,-242"/>
<text text-anchor="start" x="546.25" y="-228.5" font-family="Helvetica,sans-Serif" font-size="10.00">include/llzk/Analysis</text>
<text text-anchor="middle" x="596.12" y="-215.75" font-family="Helvetica,sans-Serif" font-size="10.00">/SourceRefLattice.h</text>
</a>
</g>
</g>
<!-- Node7&#45;&gt;Node13 -->
<g id="edge14_Node000007_Node000013" class="edge">
<title>Node7&#45;&gt;Node13</title>
<g id="a_edge14_Node000007_Node000013"><a xlink:title=" ">
<path fill="none" stroke="#63b8ff" d="M596.12,-266.31C596.12,-258.09 596.12,-249.34 596.12,-242.13"/>
<polygon fill="#63b8ff" stroke="#63b8ff" points="592.63,-266.24 596.13,-276.24 599.63,-266.24 592.63,-266.24"/>
</a>
</g>
</g>
<!-- Node14 -->
<g id="Node000014" class="node">
<title>Node14</title>
<g id="a_Node000014"><a xlink:href="SourceRef_8cpp.html" target="_top" xlink:title=" ">
<polygon fill="white" stroke="#666666" points="892.25,-235.62 748,-235.62 748,-214.88 892.25,-214.88 892.25,-235.62"/>
<text text-anchor="middle" x="820.12" y="-222.12" font-family="Helvetica,sans-Serif" font-size="10.00">lib/Analysis/SourceRef.cpp</text>
</a>
</g>
</g>
<!-- Node7&#45;&gt;Node14 -->
<g id="edge18_Node000007_Node000014" class="edge">
<title>Node7&#45;&gt;Node14</title>
<g id="a_edge18_Node000007_Node000014"><a xlink:title=" ">
<path fill="none" stroke="#63b8ff" d="M660.62,-274.32C702.09,-261.82 754.23,-246.11 787.37,-236.12"/>
<polygon fill="#63b8ff" stroke="#63b8ff" points="659.79,-270.91 651.23,-277.15 661.81,-277.61 659.79,-270.91"/>
</a>
</g>
</g>
<!-- Node8&#45;&gt;Node3 -->
<g id="edge9_Node000008_Node000003" class="edge">
<title>Node8&#45;&gt;Node3</title>
<g id="a_edge9_Node000008_Node000003"><a xlink:title=" ">
<path fill="none" stroke="#63b8ff" d="M602.76,-137.21C551.74,-127.59 487.9,-115.17 431.12,-103 428.2,-102.37 425.21,-101.72 422.2,-101.05"/>
<polygon fill="#63b8ff" stroke="#63b8ff" points="601.81,-140.59 612.29,-139 603.11,-133.71 601.81,-140.59"/>
</a>
</g>
</g>
<!-- Node9 -->
<g id="Node000009" class="node">
<title>Node9</title>
<g id="a_Node000009"><a xlink:href="ConstraintDependencyGraph_8cpp.html" target="_top" xlink:title=" ">
<polygon fill="white" stroke="#666666" points="822.25,-103 636,-103 636,-69.5 822.25,-69.5 822.25,-103"/>
<text text-anchor="start" x="644" y="-89.5" font-family="Helvetica,sans-Serif" font-size="10.00">lib/Analysis/ConstraintDependency</text>
<text text-anchor="middle" x="729.12" y="-76.75" font-family="Helvetica,sans-Serif" font-size="10.00">Graph.cpp</text>
</a>
</g>
</g>
<!-- Node8&#45;&gt;Node9 -->
<g id="edge10_Node000008_Node000009" class="edge">
<title>Node8&#45;&gt;Node9</title>
<g id="a_edge10_Node000008_Node000009"><a xlink:title=" ">
<path fill="none" stroke="#63b8ff" d="M710.2,-128.46C714.13,-119.91 718.36,-110.68 721.83,-103.13"/>
<polygon fill="#63b8ff" stroke="#63b8ff" points="707.1,-126.83 706.1,-137.38 713.46,-129.75 707.1,-126.83"/>
</a>
</g>
</g>
<!-- Node10 -->
<g id="Node000010" class="node">
<title>Node10</title>
<g id="a_Node000010"><a xlink:href="ConstraintDependencyGraphPass_8cpp.html" target="_top" xlink:title="This file implements the &#45;llzk&#45;print&#45;constraint&#45;dependency&#45;graphs pass.">
<polygon fill="white" stroke="#666666" points="1026.25,-103 840,-103 840,-69.5 1026.25,-69.5 1026.25,-103"/>
<text text-anchor="start" x="848" y="-89.5" font-family="Helvetica,sans-Serif" font-size="10.00">lib/Analysis/ConstraintDependency</text>
<text text-anchor="middle" x="933.12" y="-76.75" font-family="Helvetica,sans-Serif" font-size="10.00">GraphPass.cpp</text>
</a>
</g>
</g>
<!-- Node8&#45;&gt;Node10 -->
<g id="edge11_Node000008_Node000010" class="edge">
<title>Node8&#45;&gt;Node10</title>
<g id="a_edge11_Node000008_Node000010"><a xlink:title=" ">
<path fill="none" stroke="#63b8ff" d="M765.12,-135.51C800.45,-125.36 843.3,-113.05 876.89,-103.4"/>
<polygon fill="#63b8ff" stroke="#63b8ff" points="764.51,-132.04 755.87,-138.16 766.45,-138.77 764.51,-132.04"/>
</a>
</g>
</g>
<!-- Node8&#45;&gt;Node11 -->
<g id="edge12_Node000008_Node000011" class="edge">
<title>Node8&#45;&gt;Node11</title>
<g id="a_edge12_Node000008_Node000011"><a xlink:title=" ">
<path fill="none" stroke="#63b8ff" d="M647.02,-134.34C616.05,-121.97 577.94,-106.75 553.59,-97.02"/>
<polygon fill="#63b8ff" stroke="#63b8ff" points="645.65,-137.56 656.24,-138.02 648.25,-131.06 645.65,-137.56"/>
</a>
</g>
</g>
<!-- Node8&#45;&gt;Node12 -->
<g id="edge13_Node000008_Node000012" class="edge">
<title>Node8&#45;&gt;Node12</title>
<g id="a_edge13_Node000008_Node000012"><a xlink:title=" ">
<path fill="none" stroke="#63b8ff" d="M793.62,-139.39C794.46,-139.26 795.29,-139.13 796.12,-139 902.27,-122.48 929.87,-124.46 1035.12,-103 1038.02,-102.41 1040.98,-101.77 1043.96,-101.1"/>
<polygon fill="#63b8ff" stroke="#63b8ff" points="793.41,-135.88 784.07,-140.89 794.49,-142.8 793.41,-135.88"/>
</a>
</g>
</g>
<!-- Node13&#45;&gt;Node8 -->
<g id="edge15_Node000013_Node000008" class="edge">
<title>Node13&#45;&gt;Node8</title>
<g id="a_edge15_Node000013_Node000008"><a xlink:title=" ">
<path fill="none" stroke="#63b8ff" d="M630.09,-201.77C644.44,-192.28 660.81,-181.45 673.89,-172.79"/>
<polygon fill="#63b8ff" stroke="#63b8ff" points="628.23,-198.81 621.82,-207.25 632.09,-204.65 628.23,-198.81"/>
</a>
</g>
</g>
<!-- Node13&#45;&gt;Node9 -->
<g id="edge16_Node000013_Node000009" class="edge">
<title>Node13&#45;&gt;Node9</title>
<g id="a_edge16_Node000013_Node000009"><a xlink:title=" ">
<path fill="none" stroke="#63b8ff" d="M592.26,-196.77C591.22,-178.67 592.93,-155.37 605.12,-139 617.46,-122.44 636.08,-111.15 655.18,-103.46"/>
<polygon fill="#63b8ff" stroke="#63b8ff" points="588.76,-196.92 593.15,-206.56 595.73,-196.28 588.76,-196.92"/>
</a>
</g>
</g>
<!-- Node13&#45;&gt;Node11 -->
<g id="edge17_Node000013_Node000011" class="edge">
<title>Node13&#45;&gt;Node11</title>
<g id="a_edge17_Node000013_Node000011"><a xlink:title=" ">
<path fill="none" stroke="#63b8ff" d="M583.41,-198.25C568.37,-167.5 544.09,-117.85 533.88,-96.98"/>
<polygon fill="#63b8ff" stroke="#63b8ff" points="580.11,-199.46 587.64,-206.91 586.39,-196.39 580.11,-199.46"/>
</a>
</g>
</g>
<!-- Node15&#45;&gt;Node14 -->
<g id="edge21_Node000015_Node000014" class="edge">
<title>Node15&#45;&gt;Node14</title>
<g id="a_edge21_Node000015_Node000014"><a xlink:title=" ">
<path fill="none" stroke="#63b8ff" d="M764.8,-270.71C779.51,-258.89 796.64,-245.12 807.9,-236.07"/>
<polygon fill="#63b8ff" stroke="#63b8ff" points="762.81,-267.81 757.21,-276.81 767.2,-273.27 762.81,-267.81"/>
</a>
</g>
</g>
<!-- Node16 -->
<g id="Node000016" class="node">
<title>Node16</title>
<g id="a_Node000016"><a xlink:href="LLZKLoweringUtils_8cpp.html" target="_top" xlink:title=" ">
<polygon fill="white" stroke="#666666" points="1262.25,-242 1106,-242 1106,-208.5 1262.25,-208.5 1262.25,-242"/>
<text text-anchor="start" x="1114" y="-228.5" font-family="Helvetica,sans-Serif" font-size="10.00">lib/Transforms/LLZKLowering</text>
<text text-anchor="middle" x="1184.12" y="-215.75" font-family="Helvetica,sans-Serif" font-size="10.00">Utils.cpp</text>
</a>
</g>
</g>
<!-- Node15&#45;&gt;Node16 -->
<g id="edge22_Node000015_Node000016" class="edge">
<title>Node15&#45;&gt;Node16</title>
<g id="a_edge22_Node000015_Node000016"><a xlink:title=" ">
<path fill="none" stroke="#63b8ff" d="M811.84,-277.63C938.26,-256.65 973.22,-260.94 1097.12,-242 1100.01,-241.56 1102.94,-241.1 1105.9,-240.62"/>
<polygon fill="#63b8ff" stroke="#63b8ff" points="811.32,-274.17 802.04,-279.28 812.49,-281.07 811.32,-274.17"/>
</a>
</g>
</g>
<!-- Node17 -->
<g id="Node000017" class="node">
<title>Node17</title>
<g id="a_Node000017"><a xlink:href="LLZKPolyLoweringPass_8cpp.html" target="_top" xlink:title="This file implements the &#45;llzk&#45;poly&#45;lowering pass.">
<polygon fill="white" stroke="#666666" points="1087.75,-242 910.5,-242 910.5,-208.5 1087.75,-208.5 1087.75,-242"/>
<text text-anchor="start" x="918.5" y="-228.5" font-family="Helvetica,sans-Serif" font-size="10.00">lib/Transforms/LLZKPolyLowering</text>
<text text-anchor="middle" x="999.12" y="-215.75" font-family="Helvetica,sans-Serif" font-size="10.00">Pass.cpp</text>
</a>
</g>
</g>
<!-- Node15&#45;&gt;Node17 -->
<g id="edge23_Node000015_Node000017" class="edge">
<title>Node15&#45;&gt;Node17</title>
<g id="a_edge23_Node000015_Node000017"><a xlink:title=" ">
<path fill="none" stroke="#63b8ff" d="M810.08,-274.77C849.81,-264.57 898.28,-252.13 936.19,-242.4"/>
<polygon fill="#63b8ff" stroke="#63b8ff" points="809.4,-271.33 800.59,-277.21 811.14,-278.11 809.4,-271.33"/>
</a>
</g>
</g>
</g>
</svg>
