<?xml version="1.0" encoding="UTF-8" standalone="no"?>
<!DOCTYPE svg PUBLIC "-//W3C//DTD SVG 1.1//EN"
 "http://www.w3.org/Graphics/SVG/1.1/DTD/svg11.dtd">
<!-- Generated by graphviz version 12.2.1 (0)
 -->
<!-- Title: include/llzk/Dialect/Felt/IR/Types.h Pages: 1 -->
<svg width="1723pt" height="237pt"
 viewBox="0.00 0.00 1723.38 237.25" xmlns="http://www.w3.org/2000/svg" xmlns:xlink="http://www.w3.org/1999/xlink">
<g id="graph0" class="graph" transform="scale(1 1) rotate(0) translate(4 233.25)">
<title>include/llzk/Dialect/Felt/IR/Types.h</title>
<!-- Node1 -->
<g id="Node000001" class="node">
<title>Node1</title>
<g id="a_Node000001"><a xlink:title=" ">
<polygon fill="#999999" stroke="#666666" points="1027.75,-229.25 918.75,-229.25 918.75,-195.75 1027.75,-195.75 1027.75,-229.25"/>
<text text-anchor="start" x="926.75" y="-215.75" font-family="Helvetica,sans-Serif" font-size="10.00">include/llzk/Dialect</text>
<text text-anchor="middle" x="973.25" y="-203" font-family="Helvetica,sans-Serif" font-size="10.00">/Felt/IR/Types.h</text>
</a>
</g>
</g>
<!-- Node2 -->
<g id="Node000002" class="node">
<title>Node2</title>
<g id="a_Node000002"><a xlink:href="Felt_2IR_2Dialect_8h.html" target="_top" xlink:title=" ">
<polygon fill="white" stroke="#666666" points="463.5,-159.75 359,-159.75 359,-126.25 463.5,-126.25 463.5,-159.75"/>
<text text-anchor="start" x="367" y="-146.25" font-family="Helvetica,sans-Serif" font-size="10.00">llzk/Dialect/Felt/IR</text>
<text text-anchor="middle" x="411.25" y="-133.5" font-family="Helvetica,sans-Serif" font-size="10.00">/Dialect.h</text>
</a>
</g>
</g>
<!-- Node1&#45;&gt;Node2 -->
<g id="edge1_Node000001_Node000002" class="edge">
<title>Node1&#45;&gt;Node2</title>
<g id="a_edge1_Node000001_Node000002"><a xlink:title=" ">
<path fill="none" stroke="#63b8ff" d="M918.34,-204.9C813.77,-192.35 586.58,-165.06 475.29,-151.69"/>
<polygon fill="#63b8ff" stroke="#63b8ff" points="475.77,-148.22 465.42,-150.51 474.93,-155.17 475.77,-148.22"/>
</a>
</g>
</g>
<!-- Node5 -->
<g id="Node000005" class="node">
<title>Node5</title>
<g id="a_Node000005"><a xlink:href="Field_8h.html" target="_top" xlink:title=" ">
<polygon fill="white" stroke="#666666" points="1017.62,-153.38 928.88,-153.38 928.88,-132.62 1017.62,-132.62 1017.62,-153.38"/>
<text text-anchor="middle" x="973.25" y="-139.88" font-family="Helvetica,sans-Serif" font-size="10.00">llzk/Util/Field.h</text>
</a>
</g>
</g>
<!-- Node1&#45;&gt;Node5 -->
<g id="edge4_Node000001_Node000005" class="edge">
<title>Node1&#45;&gt;Node5</title>
<g id="a_edge4_Node000001_Node000005"><a xlink:title=" ">
<path fill="none" stroke="#63b8ff" d="M973.25,-195.5C973.25,-186.4 973.25,-174.89 973.25,-165.07"/>
<polygon fill="#63b8ff" stroke="#63b8ff" points="976.75,-165.34 973.25,-155.34 969.75,-165.34 976.75,-165.34"/>
</a>
</g>
</g>
<!-- Node25 -->
<g id="Node000025" class="node">
<title>Node25</title>
<g id="a_Node000025"><a xlink:href="Felt_2IR_2Types_8h_8inc.html" target="_top" xlink:title=" ">
<polygon fill="white" stroke="#666666" points="1140.5,-159.75 1036,-159.75 1036,-126.25 1140.5,-126.25 1140.5,-159.75"/>
<text text-anchor="start" x="1044" y="-146.25" font-family="Helvetica,sans-Serif" font-size="10.00">llzk/Dialect/Felt/IR</text>
<text text-anchor="middle" x="1088.25" y="-133.5" font-family="Helvetica,sans-Serif" font-size="10.00">/Types.h.inc</text>
</a>
</g>
</g>
<!-- Node1&#45;&gt;Node25 -->
<g id="edge26_Node000001_Node000025" class="edge">
<title>Node1&#45;&gt;Node25</title>
<g id="a_edge26_Node000001_Node000025"><a xlink:title=" ">
<path fill="none" stroke="#63b8ff" d="M1000.8,-195.33C1015.87,-186.48 1034.76,-175.39 1051.13,-165.79"/>
<polygon fill="#63b8ff" stroke="#63b8ff" points="1052.77,-168.88 1059.62,-160.8 1049.23,-162.85 1052.77,-168.88"/>
</a>
</g>
</g>
<!-- Node3 -->
<g id="Node000003" class="node">
<title>Node3</title>
<g id="a_Node000003"><a xlink:title=" ">
<polygon fill="#e0e0e0" stroke="#999999" points="466.5,-83.88 356,-83.88 356,-63.12 466.5,-63.12 466.5,-83.88"/>
<text text-anchor="middle" x="411.25" y="-70.38" font-family="Helvetica,sans-Serif" font-size="10.00">mlir/IR/BuiltinOps.h</text>
</a>
</g>
</g>
<!-- Node2&#45;&gt;Node3 -->
<g id="edge2_Node000002_Node000003" class="edge">
<title>Node2&#45;&gt;Node3</title>
<g id="a_edge2_Node000002_Node000003"><a xlink:title=" ">
<path fill="none" stroke="#63b8ff" d="M411.25,-126C411.25,-116.9 411.25,-105.39 411.25,-95.57"/>
<polygon fill="#63b8ff" stroke="#63b8ff" points="414.75,-95.84 411.25,-85.84 407.75,-95.84 414.75,-95.84"/>
</a>
</g>
</g>
<!-- Node4 -->
<g id="Node000004" class="node">
<title>Node4</title>
<g id="a_Node000004"><a xlink:href="Felt_2IR_2Dialect_8h_8inc.html" target="_top" xlink:title=" ">
<polygon fill="white" stroke="#666666" points="337.5,-90.25 233,-90.25 233,-56.75 337.5,-56.75 337.5,-90.25"/>
<text text-anchor="start" x="241" y="-76.75" font-family="Helvetica,sans-Serif" font-size="10.00">llzk/Dialect/Felt/IR</text>
<text text-anchor="middle" x="285.25" y="-64" font-family="Helvetica,sans-Serif" font-size="10.00">/Dialect.h.inc</text>
</a>
</g>
</g>
<!-- Node2&#45;&gt;Node4 -->
<g id="edge3_Node000002_Node000004" class="edge">
<title>Node2&#45;&gt;Node4</title>
<g id="a_edge3_Node000002_Node000004"><a xlink:title=" ">
<path fill="none" stroke="#63b8ff" d="M381.07,-125.83C364.32,-116.86 343.27,-105.58 325.17,-95.88"/>
<polygon fill="#63b8ff" stroke="#63b8ff" points="326.99,-92.89 316.52,-91.25 323.68,-99.06 326.99,-92.89"/>
</a>
</g>
</g>
<!-- Node5&#45;&gt;Node3 -->
<g id="edge18_Node000005_Node000003" class="edge">
<title>Node5&#45;&gt;Node3</title>
<g id="a_edge18_Node000005_Node000003"><a xlink:title=" ">
<path fill="none" stroke="#63b8ff" d="M928.66,-139.43C841.2,-133.94 641.17,-119.14 475.25,-90.25 469.9,-89.32 464.32,-88.19 458.8,-86.97"/>
<polygon fill="#63b8ff" stroke="#63b8ff" points="459.63,-83.57 449.09,-84.71 458.04,-90.39 459.63,-83.57"/>
</a>
</g>
</g>
<!-- Node6 -->
<g id="Node000006" class="node">
<title>Node6</title>
<g id="a_Node000006"><a xlink:href="DynamicAPIntHelper_8h.html" target="_top" xlink:title="This file implements helper methods for constructing DynamicAPInts.">
<polygon fill="white" stroke="#666666" points="650.25,-83.88 484.25,-83.88 484.25,-63.12 650.25,-63.12 650.25,-83.88"/>
<text text-anchor="middle" x="567.25" y="-70.38" font-family="Helvetica,sans-Serif" font-size="10.00">llzk/Util/DynamicAPIntHelper.h</text>
</a>
</g>
</g>
<!-- Node5&#45;&gt;Node6 -->
<g id="edge5_Node000005_Node000006" class="edge">
<title>Node5&#45;&gt;Node6</title>
<g id="a_edge5_Node000005_Node000006"><a xlink:title=" ">
<path fill="none" stroke="#63b8ff" d="M928.64,-134.58C858.33,-122.89 721.16,-100.09 637.52,-86.18"/>
<polygon fill="#63b8ff" stroke="#63b8ff" points="638.27,-82.76 627.83,-84.57 637.12,-89.66 638.27,-82.76"/>
</a>
</g>
</g>
<!-- Node9 -->
<g id="Node000009" class="node">
<title>Node9</title>
<g id="a_Node000009"><a xlink:title=" ">
<polygon fill="#e0e0e0" stroke="#999999" points="700.25,-20.75 558.25,-20.75 558.25,0 700.25,0 700.25,-20.75"/>
<text text-anchor="middle" x="629.25" y="-7.25" font-family="Helvetica,sans-Serif" font-size="10.00">llvm/ADT/DynamicAPInt.h</text>
</a>
</g>
</g>
<!-- Node5&#45;&gt;Node9 -->
<g id="edge21_Node000005_Node000009" class="edge">
<title>Node5&#45;&gt;Node9</title>
<g id="a_edge21_Node000005_Node000009"><a xlink:title=" ">
<path fill="none" stroke="#63b8ff" d="M928.41,-134.18C886.35,-126.02 822.17,-111.43 769.25,-90.25 726.07,-72.97 679.76,-44.75 652.71,-27.16"/>
<polygon fill="#63b8ff" stroke="#63b8ff" points="654.87,-24.4 644.59,-21.82 651.02,-30.24 654.87,-24.4"/>
</a>
</g>
</g>
<!-- Node12 -->
<g id="Node000012" class="node">
<title>Node12</title>
<g id="a_Node000012"><a xlink:href="ErrorHelper_8h.html" target="_top" xlink:title=" ">
<polygon fill="white" stroke="#666666" points="898.38,-83.88 778.12,-83.88 778.12,-63.12 898.38,-63.12 898.38,-83.88"/>
<text text-anchor="middle" x="838.25" y="-70.38" font-family="Helvetica,sans-Serif" font-size="10.00">llzk/Util/ErrorHelper.h</text>
</a>
</g>
</g>
<!-- Node5&#45;&gt;Node12 -->
<g id="edge11_Node000005_Node000012" class="edge">
<title>Node5&#45;&gt;Node12</title>
<g id="a_edge11_Node000005_Node000012"><a xlink:title=" ">
<path fill="none" stroke="#63b8ff" d="M953.62,-132.18C931.12,-120.94 894.01,-102.38 867.97,-89.36"/>
<polygon fill="#63b8ff" stroke="#63b8ff" points="869.77,-86.35 859.26,-85 866.64,-92.61 869.77,-86.35"/>
</a>
</g>
</g>
<!-- Node19 -->
<g id="Node000019" class="node">
<title>Node19</title>
<g id="a_Node000019"><a xlink:title=" ">
<polygon fill="#e0e0e0" stroke="#999999" points="1030,-83.88 916.5,-83.88 916.5,-63.12 1030,-63.12 1030,-83.88"/>
<text text-anchor="middle" x="973.25" y="-70.38" font-family="Helvetica,sans-Serif" font-size="10.00">mlir/Support/LLVM.h</text>
</a>
</g>
</g>
<!-- Node5&#45;&gt;Node19 -->
<g id="edge19_Node000005_Node000019" class="edge">
<title>Node5&#45;&gt;Node19</title>
<g id="a_edge19_Node000005_Node000019"><a xlink:title=" ">
<path fill="none" stroke="#63b8ff" d="M973.25,-132.33C973.25,-122.71 973.25,-107.63 973.25,-95.29"/>
<polygon fill="#63b8ff" stroke="#63b8ff" points="976.75,-95.67 973.25,-85.67 969.75,-95.67 976.75,-95.67"/>
</a>
</g>
</g>
<!-- Node20 -->
<g id="Node000020" class="node">
<title>Node20</title>
<g id="a_Node000020"><a xlink:title=" ">
<polygon fill="#e0e0e0" stroke="#999999" points="1172.62,-83.88 1047.88,-83.88 1047.88,-63.12 1172.62,-63.12 1172.62,-83.88"/>
<text text-anchor="middle" x="1110.25" y="-70.38" font-family="Helvetica,sans-Serif" font-size="10.00">llvm/ADT/DenseMap.h</text>
</a>
</g>
</g>
<!-- Node5&#45;&gt;Node20 -->
<g id="edge20_Node000005_Node000020" class="edge">
<title>Node5&#45;&gt;Node20</title>
<g id="a_edge20_Node000005_Node000020"><a xlink:title=" ">
<path fill="none" stroke="#63b8ff" d="M993.17,-132.18C1016,-120.94 1053.66,-102.38 1080.09,-89.36"/>
<polygon fill="#63b8ff" stroke="#63b8ff" points="1081.52,-92.56 1088.95,-85 1078.43,-86.28 1081.52,-92.56"/>
</a>
</g>
</g>
<!-- Node21 -->
<g id="Node000021" class="node">
<title>Node21</title>
<g id="a_Node000021"><a xlink:title=" ">
<polygon fill="#e0e0e0" stroke="#999999" points="1307.5,-83.88 1191,-83.88 1191,-63.12 1307.5,-63.12 1307.5,-83.88"/>
<text text-anchor="middle" x="1249.25" y="-70.38" font-family="Helvetica,sans-Serif" font-size="10.00">llvm/ADT/SmallSet.h</text>
</a>
</g>
</g>
<!-- Node5&#45;&gt;Node21 -->
<g id="edge22_Node000005_Node000021" class="edge">
<title>Node5&#45;&gt;Node21</title>
<g id="a_edge22_Node000005_Node000021"><a xlink:title=" ">
<path fill="none" stroke="#63b8ff" d="M1006.01,-132.13C1013,-130.12 1020.35,-128.06 1027.25,-126.25 1035.48,-124.09 1132.78,-101.49 1195.81,-86.88"/>
<polygon fill="#63b8ff" stroke="#63b8ff" points="1196.34,-90.35 1205.29,-84.68 1194.76,-83.53 1196.34,-90.35"/>
</a>
</g>
</g>
<!-- Node22 -->
<g id="Node000022" class="node">
<title>Node22</title>
<g id="a_Node000022"><a xlink:title=" ">
<polygon fill="#e0e0e0" stroke="#999999" points="1481,-83.88 1325.5,-83.88 1325.5,-63.12 1481,-63.12 1481,-83.88"/>
<text text-anchor="middle" x="1403.25" y="-70.38" font-family="Helvetica,sans-Serif" font-size="10.00">llvm/Support/LogicalResult.h</text>
</a>
</g>
</g>
<!-- Node5&#45;&gt;Node22 -->
<g id="edge23_Node000005_Node000022" class="edge">
<title>Node5&#45;&gt;Node22</title>
<g id="a_edge23_Node000005_Node000022"><a xlink:title=" ">
<path fill="none" stroke="#63b8ff" d="M1003.88,-132.15C1011.46,-129.96 1019.6,-127.83 1027.25,-126.25 1154.01,-100.05 1188.3,-109.79 1316.25,-90.25 1324.18,-89.04 1332.49,-87.67 1340.71,-86.25"/>
<polygon fill="#63b8ff" stroke="#63b8ff" points="1341.07,-89.74 1350.31,-84.56 1339.86,-82.85 1341.07,-89.74"/>
</a>
</g>
</g>
<!-- Node23 -->
<g id="Node000023" class="node">
<title>Node23</title>
<g id="a_Node000023"><a xlink:title=" ">
<polygon fill="#e0e0e0" stroke="#999999" points="1625.38,-83.88 1499.12,-83.88 1499.12,-63.12 1625.38,-63.12 1625.38,-83.88"/>
<text text-anchor="middle" x="1562.25" y="-70.38" font-family="Helvetica,sans-Serif" font-size="10.00">llvm/Support/SMTAPI.h</text>
</a>
</g>
</g>
<!-- Node5&#45;&gt;Node23 -->
<g id="edge24_Node000005_Node000023" class="edge">
<title>Node5&#45;&gt;Node23</title>
<g id="a_edge24_Node000005_Node000023"><a xlink:title=" ">
<path fill="none" stroke="#63b8ff" d="M1002.98,-132.14C1010.8,-129.87 1019.28,-127.71 1027.25,-126.25 1230.29,-89.16 1286.06,-120.37 1490.25,-90.25 1496.98,-89.26 1504.02,-88 1510.95,-86.62"/>
<polygon fill="#63b8ff" stroke="#63b8ff" points="1511.5,-90.08 1520.58,-84.62 1510.08,-83.23 1511.5,-90.08"/>
</a>
</g>
</g>
<!-- Node24 -->
<g id="Node000024" class="node">
<title>Node24</title>
<g id="a_Node000024"><a xlink:title=" ">
<polygon fill="#e0e0e0" stroke="#999999" points="1715.38,-83.88 1643.12,-83.88 1643.12,-63.12 1715.38,-63.12 1715.38,-83.88"/>
<text text-anchor="middle" x="1679.25" y="-70.38" font-family="Helvetica,sans-Serif" font-size="10.00">string_view</text>
</a>
</g>
</g>
<!-- Node5&#45;&gt;Node24 -->
<g id="edge25_Node000005_Node000024" class="edge">
<title>Node5&#45;&gt;Node24</title>
<g id="a_edge25_Node000005_Node000024"><a xlink:title=" ">
<path fill="none" stroke="#63b8ff" d="M1002.4,-132.2C1010.37,-129.88 1019.07,-127.67 1027.25,-126.25 1293.54,-80.12 1369.28,-143.4 1634.25,-90.25 1637.63,-89.57 1641.1,-88.7 1644.55,-87.71"/>
<polygon fill="#63b8ff" stroke="#63b8ff" points="1645.41,-91.11 1653.87,-84.72 1643.27,-84.44 1645.41,-91.11"/>
</a>
</g>
</g>
<!-- Node7 -->
<g id="Node000007" class="node">
<title>Node7</title>
<g id="a_Node000007"><a xlink:title=" ">
<polygon fill="#e0e0e0" stroke="#999999" points="98.5,-20.75 0,-20.75 0,0 98.5,0 98.5,-20.75"/>
<text text-anchor="middle" x="49.25" y="-7.25" font-family="Helvetica,sans-Serif" font-size="10.00">llvm/ADT/APInt.h</text>
</a>
</g>
</g>
<!-- Node6&#45;&gt;Node7 -->
<g id="edge6_Node000006_Node000007" class="edge">
<title>Node6&#45;&gt;Node7</title>
<g id="a_edge6_Node000006_Node000007"><a xlink:title=" ">
<path fill="none" stroke="#63b8ff" d="M513.84,-62.69C501.21,-60.55 487.78,-58.43 475.25,-56.75 316.47,-35.4 272.76,-41.33 110.19,-20.92"/>
<polygon fill="#63b8ff" stroke="#63b8ff" points="110.66,-17.45 100.29,-19.66 109.77,-24.39 110.66,-17.45"/>
</a>
</g>
</g>
<!-- Node8 -->
<g id="Node000008" class="node">
<title>Node8</title>
<g id="a_Node000008"><a xlink:title=" ">
<polygon fill="#e0e0e0" stroke="#999999" points="221.5,-20.75 117,-20.75 117,0 221.5,0 221.5,-20.75"/>
<text text-anchor="middle" x="169.25" y="-7.25" font-family="Helvetica,sans-Serif" font-size="10.00">llvm/ADT/APSInt.h</text>
</a>
</g>
</g>
<!-- Node6&#45;&gt;Node8 -->
<g id="edge7_Node000006_Node000008" class="edge">
<title>Node6&#45;&gt;Node8</title>
<g id="a_edge7_Node000006_Node000008"><a xlink:title=" ">
<path fill="none" stroke="#63b8ff" d="M510.85,-62.63C499.09,-60.63 486.77,-58.58 475.25,-56.75 370.06,-40.02 340.94,-37.28 232.88,-21.13"/>
<polygon fill="#63b8ff" stroke="#63b8ff" points="233.72,-17.72 223.32,-19.7 232.69,-24.64 233.72,-17.72"/>
</a>
</g>
</g>
<!-- Node6&#45;&gt;Node9 -->
<g id="edge8_Node000006_Node000009" class="edge">
<title>Node6&#45;&gt;Node9</title>
<g id="a_edge8_Node000006_Node000009"><a xlink:title=" ">
<path fill="none" stroke="#63b8ff" d="M577.21,-62.68C586.39,-53.63 600.24,-39.97 611.34,-29.03"/>
<polygon fill="#63b8ff" stroke="#63b8ff" points="613.78,-31.55 618.44,-22.03 608.86,-26.56 613.78,-31.55"/>
</a>
</g>
</g>
<!-- Node10 -->
<g id="Node000010" class="node">
<title>Node10</title>
<g id="a_Node000010"><a xlink:title=" ">
<polygon fill="#e0e0e0" stroke="#999999" points="404.88,-20.75 239.62,-20.75 239.62,0 404.88,0 404.88,-20.75"/>
<text text-anchor="middle" x="322.25" y="-7.25" font-family="Helvetica,sans-Serif" font-size="10.00">llvm/ADT/SlowDynamicAPInt.h</text>
</a>
</g>
</g>
<!-- Node6&#45;&gt;Node10 -->
<g id="edge9_Node000006_Node000010" class="edge">
<title>Node6&#45;&gt;Node10</title>
<g id="a_edge9_Node000006_Node000010"><a xlink:title=" ">
<path fill="none" stroke="#63b8ff" d="M527.89,-62.68C485.65,-52.14 418.45,-35.37 372.44,-23.9"/>
<polygon fill="#63b8ff" stroke="#63b8ff" points="373.53,-20.56 362.98,-21.54 371.84,-27.35 373.53,-20.56"/>
</a>
</g>
</g>
<!-- Node11 -->
<g id="Node000011" class="node">
<title>Node11</title>
<g id="a_Node000011"><a xlink:title=" ">
<polygon fill="#e0e0e0" stroke="#999999" points="539.88,-20.75 422.62,-20.75 422.62,0 539.88,0 539.88,-20.75"/>
<text text-anchor="middle" x="481.25" y="-7.25" font-family="Helvetica,sans-Serif" font-size="10.00">llvm/ADT/StringRef.h</text>
</a>
</g>
</g>
<!-- Node6&#45;&gt;Node11 -->
<g id="edge10_Node000006_Node000011" class="edge">
<title>Node6&#45;&gt;Node11</title>
<g id="a_edge10_Node000006_Node000011"><a xlink:title=" ">
<path fill="none" stroke="#63b8ff" d="M553.43,-62.68C540.14,-53.23 519.81,-38.78 504.11,-27.62"/>
<polygon fill="#63b8ff" stroke="#63b8ff" points="506.45,-24.99 496.27,-22.05 502.39,-30.69 506.45,-24.99"/>
</a>
</g>
</g>
<!-- Node13 -->
<g id="Node000013" class="node">
<title>Node13</title>
<g id="a_Node000013"><a xlink:title=" ">
<polygon fill="#e0e0e0" stroke="#999999" points="835.88,-20.75 718.62,-20.75 718.62,0 835.88,0 835.88,-20.75"/>
<text text-anchor="middle" x="777.25" y="-7.25" font-family="Helvetica,sans-Serif" font-size="10.00">mlir/IR/Diagnostics.h</text>
</a>
</g>
</g>
<!-- Node12&#45;&gt;Node13 -->
<g id="edge12_Node000012_Node000013" class="edge">
<title>Node12&#45;&gt;Node13</title>
<g id="a_edge12_Node000012_Node000013"><a xlink:title=" ">
<path fill="none" stroke="#63b8ff" d="M828.45,-62.68C819.41,-53.63 805.79,-39.97 794.87,-29.03"/>
<polygon fill="#63b8ff" stroke="#63b8ff" points="797.44,-26.65 787.89,-22.04 792.48,-31.59 797.44,-26.65"/>
</a>
</g>
</g>
<!-- Node14 -->
<g id="Node000014" class="node">
<title>Node14</title>
<g id="a_Node000014"><a xlink:title=" ">
<polygon fill="#e0e0e0" stroke="#999999" points="962.38,-20.75 854.12,-20.75 854.12,0 962.38,0 962.38,-20.75"/>
<text text-anchor="middle" x="908.25" y="-7.25" font-family="Helvetica,sans-Serif" font-size="10.00">mlir/IR/Operation.h</text>
</a>
</g>
</g>
<!-- Node12&#45;&gt;Node14 -->
<g id="edge13_Node000012_Node000014" class="edge">
<title>Node12&#45;&gt;Node14</title>
<g id="a_edge13_Node000012_Node000014"><a xlink:title=" ">
<path fill="none" stroke="#63b8ff" d="M849.5,-62.68C860.07,-53.45 876.12,-39.43 888.77,-28.38"/>
<polygon fill="#63b8ff" stroke="#63b8ff" points="890.89,-31.18 896.12,-21.97 886.29,-25.91 890.89,-31.18"/>
</a>
</g>
</g>
<!-- Node15 -->
<g id="Node000015" class="node">
<title>Node15</title>
<g id="a_Node000015"><a xlink:title=" ">
<polygon fill="#e0e0e0" stroke="#999999" points="1151.88,-20.75 980.62,-20.75 980.62,0 1151.88,0 1151.88,-20.75"/>
<text text-anchor="middle" x="1066.25" y="-7.25" font-family="Helvetica,sans-Serif" font-size="10.00">llvm/ADT/STLFunctionalExtras.h</text>
</a>
</g>
</g>
<!-- Node12&#45;&gt;Node15 -->
<g id="edge14_Node000012_Node000015" class="edge">
<title>Node12&#45;&gt;Node15</title>
<g id="a_edge14_Node000012_Node000015"><a xlink:title=" ">
<path fill="none" stroke="#63b8ff" d="M874.88,-62.68C913.94,-52.21 975.94,-35.59 1018.73,-24.12"/>
<polygon fill="#63b8ff" stroke="#63b8ff" points="1019.49,-27.53 1028.25,-21.56 1017.68,-20.77 1019.49,-27.53"/>
</a>
</g>
</g>
<!-- Node16 -->
<g id="Node000016" class="node">
<title>Node16</title>
<g id="a_Node000016"><a xlink:title=" ">
<polygon fill="#e0e0e0" stroke="#999999" points="1270.62,-20.75 1169.88,-20.75 1169.88,0 1270.62,0 1270.62,-20.75"/>
<text text-anchor="middle" x="1220.25" y="-7.25" font-family="Helvetica,sans-Serif" font-size="10.00">llvm/ADT/Twine.h</text>
</a>
</g>
</g>
<!-- Node12&#45;&gt;Node16 -->
<g id="edge15_Node000012_Node000016" class="edge">
<title>Node12&#45;&gt;Node16</title>
<g id="a_edge15_Node000012_Node000016"><a xlink:title=" ">
<path fill="none" stroke="#63b8ff" d="M878.63,-62.69C888,-60.58 897.95,-58.47 907.25,-56.75 1015.87,-36.69 1046.6,-37.62 1158.34,-21.16"/>
<polygon fill="#63b8ff" stroke="#63b8ff" points="1158.54,-24.67 1167.91,-19.73 1157.51,-17.74 1158.54,-24.67"/>
</a>
</g>
</g>
<!-- Node17 -->
<g id="Node000017" class="node">
<title>Node17</title>
<g id="a_Node000017"><a xlink:title=" ">
<polygon fill="#e0e0e0" stroke="#999999" points="1445.75,-20.75 1288.75,-20.75 1288.75,0 1445.75,0 1445.75,-20.75"/>
<text text-anchor="middle" x="1367.25" y="-7.25" font-family="Helvetica,sans-Serif" font-size="10.00">llvm/Support/ErrorHandling.h</text>
</a>
</g>
</g>
<!-- Node12&#45;&gt;Node17 -->
<g id="edge16_Node000012_Node000017" class="edge">
<title>Node12&#45;&gt;Node17</title>
<g id="a_edge16_Node000012_Node000017"><a xlink:title=" ">
<path fill="none" stroke="#63b8ff" d="M877.49,-62.63C887.17,-60.45 897.55,-58.32 907.25,-56.75 1067.7,-30.78 1112.1,-37.25 1277.5,-20.91"/>
<polygon fill="#63b8ff" stroke="#63b8ff" points="1277.46,-24.43 1287.07,-19.95 1276.77,-17.46 1277.46,-24.43"/>
</a>
</g>
</g>
<!-- Node18 -->
<g id="Node000018" class="node">
<title>Node18</title>
<g id="a_Node000018"><a xlink:title=" ">
<polygon fill="#e0e0e0" stroke="#999999" points="1514.5,-20.75 1464,-20.75 1464,0 1514.5,0 1514.5,-20.75"/>
<text text-anchor="middle" x="1489.25" y="-7.25" font-family="Helvetica,sans-Serif" font-size="10.00">variant</text>
</a>
</g>
</g>
<!-- Node12&#45;&gt;Node18 -->
<g id="edge17_Node000012_Node000018" class="edge">
<title>Node12&#45;&gt;Node18</title>
<g id="a_edge17_Node000012_Node000018"><a xlink:title=" ">
<path fill="none" stroke="#63b8ff" d="M876.37,-62.66C886.36,-60.4 897.16,-58.22 907.25,-56.75 1145.11,-22.01 1212.55,-60.21 1452.57,-20.87"/>
<polygon fill="#63b8ff" stroke="#63b8ff" points="1452.98,-24.35 1462.26,-19.25 1451.82,-17.45 1452.98,-24.35"/>
</a>
</g>
</g>
</g>
</svg>
