<?xml version="1.0" encoding="UTF-8" standalone="no"?>
<!DOCTYPE svg PUBLIC "-//W3C//DTD SVG 1.1//EN"
 "http://www.w3.org/Graphics/SVG/1.1/DTD/svg11.dtd">
<!-- Generated by graphviz version 12.2.1 (0)
 -->
<!-- Title: build/include/llzk/Dialect/Felt/IR/Types.capi.h.inc Pages: 1 -->
<svg width="201pt" height="155pt"
 viewBox="0.00 0.00 200.75 155.00" xmlns="http://www.w3.org/2000/svg" xmlns:xlink="http://www.w3.org/1999/xlink">
<g id="graph0" class="graph" transform="scale(1 1) rotate(0) translate(4 151)">
<title>build/include/llzk/Dialect/Felt/IR/Types.capi.h.inc</title>
<!-- Node1 -->
<g id="Node000001" class="node">
<title>Node1</title>
<g id="a_Node000001"><a xlink:title=" ">
<polygon fill="#999999" stroke="#666666" points="167.5,-147 0,-147 0,-113.5 167.5,-113.5 167.5,-147"/>
<text text-anchor="start" x="8" y="-133.5" font-family="Helvetica,sans-Serif" font-size="10.00">build/include/llzk</text>
<text text-anchor="middle" x="83.75" y="-120.75" font-family="Helvetica,sans-Serif" font-size="10.00">/Dialect/Felt/IR/Types.capi.h.inc</text>
</a>
</g>
</g>
<!-- Node2 -->
<g id="Node000002" class="node">
<title>Node2</title>
<g id="a_Node000002"><a xlink:href="llzk-c_2Builder_8h.html" target="_top" xlink:title=" ">
<polygon fill="white" stroke="#666666" points="163.75,-77.5 75.75,-77.5 75.75,-56.75 163.75,-56.75 163.75,-77.5"/>
<text text-anchor="middle" x="119.75" y="-64" font-family="Helvetica,sans-Serif" font-size="10.00">llzk&#45;c/Builder.h</text>
</a>
</g>
</g>
<!-- Node1&#45;&gt;Node2 -->
<g id="edge1_Node000001_Node000002" class="edge">
<title>Node1&#45;&gt;Node2</title>
<g id="a_edge1_Node000001_Node000002"><a xlink:title=" ">
<path fill="none" stroke="#63b8ff" d="M93.21,-113.19C97.79,-105.42 103.32,-96.02 108.15,-87.82"/>
<polygon fill="#63b8ff" stroke="#63b8ff" points="111.13,-89.66 113.19,-79.27 105.09,-86.11 111.13,-89.66"/>
</a>
</g>
</g>
<!-- Node3 -->
<g id="Node000003" class="node">
<title>Node3</title>
<g id="a_Node000003"><a xlink:title=" ">
<polygon fill="#e0e0e0" stroke="#999999" points="80.88,-20.75 14.62,-20.75 14.62,0 80.88,0 80.88,-20.75"/>
<text text-anchor="middle" x="47.75" y="-7.25" font-family="Helvetica,sans-Serif" font-size="10.00">mlir&#45;c/IR.h</text>
</a>
</g>
</g>
<!-- Node1&#45;&gt;Node3 -->
<g id="edge4_Node000001_Node000003" class="edge">
<title>Node1&#45;&gt;Node3</title>
<g id="a_edge4_Node000001_Node000003"><a xlink:title=" ">
<path fill="none" stroke="#63b8ff" d="M78.39,-113.44C74.96,-103.22 70.48,-89.61 66.75,-77.5 62.06,-62.27 57.1,-44.96 53.43,-31.88"/>
<polygon fill="#63b8ff" stroke="#63b8ff" points="56.81,-30.98 50.75,-22.28 50.07,-32.86 56.81,-30.98"/>
</a>
</g>
</g>
<!-- Node2&#45;&gt;Node3 -->
<g id="edge2_Node000002_Node000003" class="edge">
<title>Node2&#45;&gt;Node3</title>
<g id="a_edge2_Node000002_Node000003"><a xlink:title=" ">
<path fill="none" stroke="#63b8ff" d="M106.88,-56.34C96.54,-48.47 81.78,-37.25 69.6,-27.99"/>
<polygon fill="#63b8ff" stroke="#63b8ff" points="71.79,-25.26 61.72,-21.99 67.56,-30.83 71.79,-25.26"/>
</a>
</g>
</g>
<!-- Node4 -->
<g id="Node000004" class="node">
<title>Node4</title>
<g id="a_Node000004"><a xlink:title=" ">
<polygon fill="#e0e0e0" stroke="#999999" points="192.75,-20.75 98.75,-20.75 98.75,0 192.75,0 192.75,-20.75"/>
<text text-anchor="middle" x="145.75" y="-7.25" font-family="Helvetica,sans-Serif" font-size="10.00">mlir&#45;c/Support.h</text>
</a>
</g>
</g>
<!-- Node2&#45;&gt;Node4 -->
<g id="edge3_Node000002_Node000004" class="edge">
<title>Node2&#45;&gt;Node4</title>
<g id="a_edge3_Node000002_Node000004"><a xlink:title=" ">
<path fill="none" stroke="#63b8ff" d="M124.4,-56.34C127.69,-49.41 132.22,-39.87 136.26,-31.36"/>
<polygon fill="#63b8ff" stroke="#63b8ff" points="139.36,-32.98 140.49,-22.45 133.04,-29.98 139.36,-32.98"/>
</a>
</g>
</g>
</g>
</svg>
