<?xml version="1.0" encoding="UTF-8" standalone="no"?>
<!DOCTYPE svg PUBLIC "-//W3C//DTD SVG 1.1//EN"
 "http://www.w3.org/Graphics/SVG/1.1/DTD/svg11.dtd">
<!-- Generated by graphviz version 12.2.1 (0)
 -->
<!-- Title: lib/Dialect/Felt/IR/Dialect.cpp Pages: 1 -->
<svg width="1886pt" height="376pt"
 viewBox="0.00 0.00 1885.50 376.25" xmlns="http://www.w3.org/2000/svg" xmlns:xlink="http://www.w3.org/1999/xlink">
<g id="graph0" class="graph" transform="scale(1 1) rotate(0) translate(4 372.25)">
<title>lib/Dialect/Felt/IR/Dialect.cpp</title>
<!-- Node1 -->
<g id="Node000001" class="node">
<title>Node1</title>
<g id="a_Node000001"><a xlink:title=" ">
<polygon fill="#999999" stroke="#666666" points="1111.88,-368.25 1012.62,-368.25 1012.62,-334.75 1111.88,-334.75 1111.88,-368.25"/>
<text text-anchor="start" x="1020.62" y="-354.75" font-family="Helvetica,sans-Serif" font-size="10.00">lib/Dialect/Felt/IR</text>
<text text-anchor="middle" x="1062.25" y="-342" font-family="Helvetica,sans-Serif" font-size="10.00">/Dialect.cpp</text>
</a>
</g>
</g>
<!-- Node2 -->
<g id="Node000002" class="node">
<title>Node2</title>
<g id="a_Node000002"><a xlink:href="Felt_2IR_2Attrs_8h.html" target="_top" xlink:title=" ">
<polygon fill="white" stroke="#666666" points="693.5,-229.25 589,-229.25 589,-195.75 693.5,-195.75 693.5,-229.25"/>
<text text-anchor="start" x="597" y="-215.75" font-family="Helvetica,sans-Serif" font-size="10.00">llzk/Dialect/Felt/IR</text>
<text text-anchor="middle" x="641.25" y="-203" font-family="Helvetica,sans-Serif" font-size="10.00">/Attrs.h</text>
</a>
</g>
</g>
<!-- Node1&#45;&gt;Node2 -->
<g id="edge1_Node000001_Node000002" class="edge">
<title>Node1&#45;&gt;Node2</title>
<g id="a_edge1_Node000001_Node000002"><a xlink:title=" ">
<path fill="none" stroke="#63b8ff" d="M1012.42,-346.71C931.21,-339.9 774.46,-323.91 725.25,-298.75 697.74,-284.69 673.86,-258.21 658.66,-238.47"/>
<polygon fill="#63b8ff" stroke="#63b8ff" points="661.6,-236.56 652.82,-230.63 655.98,-240.74 661.6,-236.56"/>
</a>
</g>
</g>
<!-- Node6 -->
<g id="Node000006" class="node">
<title>Node6</title>
<g id="a_Node000006"><a xlink:href="Felt_2IR_2Dialect_8h.html" target="_top" xlink:title=" ">
<polygon fill="white" stroke="#666666" points="1115.5,-159.75 1011,-159.75 1011,-126.25 1115.5,-126.25 1115.5,-159.75"/>
<text text-anchor="start" x="1019" y="-146.25" font-family="Helvetica,sans-Serif" font-size="10.00">llzk/Dialect/Felt/IR</text>
<text text-anchor="middle" x="1063.25" y="-133.5" font-family="Helvetica,sans-Serif" font-size="10.00">/Dialect.h</text>
</a>
</g>
</g>
<!-- Node1&#45;&gt;Node6 -->
<g id="edge5_Node000001_Node000006" class="edge">
<title>Node1&#45;&gt;Node6</title>
<g id="a_edge5_Node000001_Node000006"><a xlink:title=" ">
<path fill="none" stroke="#63b8ff" d="M1018.48,-334.34C999.4,-325.8 977.69,-313.91 961.25,-298.75 924.79,-265.11 889.67,-236.3 918.25,-195.75 936.68,-169.6 969.58,-156.59 999.39,-150.15"/>
<polygon fill="#63b8ff" stroke="#63b8ff" points="999.98,-153.6 1009.14,-148.27 998.66,-146.72 999.98,-153.6"/>
</a>
</g>
</g>
<!-- Node9 -->
<g id="Node000009" class="node">
<title>Node9</title>
<g id="a_Node000009"><a xlink:href="Felt_2IR_2Ops_8h.html" target="_top" xlink:title=" ">
<polygon fill="white" stroke="#666666" points="1074.5,-298.75 970,-298.75 970,-265.25 1074.5,-265.25 1074.5,-298.75"/>
<text text-anchor="start" x="978" y="-285.25" font-family="Helvetica,sans-Serif" font-size="10.00">llzk/Dialect/Felt/IR</text>
<text text-anchor="middle" x="1022.25" y="-272.5" font-family="Helvetica,sans-Serif" font-size="10.00">/Ops.h</text>
</a>
</g>
</g>
<!-- Node1&#45;&gt;Node9 -->
<g id="edge8_Node000001_Node000009" class="edge">
<title>Node1&#45;&gt;Node9</title>
<g id="a_edge8_Node000001_Node000009"><a xlink:title=" ">
<path fill="none" stroke="#63b8ff" d="M1052.77,-334.5C1048.19,-326.77 1042.57,-317.3 1037.42,-308.59"/>
<polygon fill="#63b8ff" stroke="#63b8ff" points="1040.54,-307 1032.43,-300.18 1034.52,-310.57 1040.54,-307"/>
</a>
</g>
</g>
<!-- Node10 -->
<g id="Node000010" class="node">
<title>Node10</title>
<g id="a_Node000010"><a xlink:href="Felt_2IR_2Types_8h.html" target="_top" xlink:title=" ">
<polygon fill="white" stroke="#666666" points="871.5,-229.25 767,-229.25 767,-195.75 871.5,-195.75 871.5,-229.25"/>
<text text-anchor="start" x="775" y="-215.75" font-family="Helvetica,sans-Serif" font-size="10.00">llzk/Dialect/Felt/IR</text>
<text text-anchor="middle" x="819.25" y="-203" font-family="Helvetica,sans-Serif" font-size="10.00">/Types.h</text>
</a>
</g>
</g>
<!-- Node1&#45;&gt;Node10 -->
<g id="edge43_Node000001_Node000010" class="edge">
<title>Node1&#45;&gt;Node10</title>
<g id="a_edge43_Node000001_Node000010"><a xlink:title=" ">
<path fill="none" stroke="#63b8ff" d="M1012.13,-344.36C974.59,-337.84 923.35,-324.71 885.25,-298.75 862.93,-283.54 844.81,-258.4 833.24,-239.35"/>
<polygon fill="#63b8ff" stroke="#63b8ff" points="836.32,-237.68 828.26,-230.8 830.27,-241.2 836.32,-237.68"/>
</a>
</g>
</g>
<!-- Node11 -->
<g id="Node000011" class="node">
<title>Node11</title>
<g id="a_Node000011"><a xlink:href="Field_8h.html" target="_top" xlink:title=" ">
<polygon fill="white" stroke="#666666" points="800.62,-153.38 711.88,-153.38 711.88,-132.62 800.62,-132.62 800.62,-153.38"/>
<text text-anchor="middle" x="756.25" y="-139.88" font-family="Helvetica,sans-Serif" font-size="10.00">llzk/Util/Field.h</text>
</a>
</g>
</g>
<!-- Node1&#45;&gt;Node11 -->
<g id="edge52_Node000001_Node000011" class="edge">
<title>Node1&#45;&gt;Node11</title>
<g id="a_edge52_Node000001_Node000011"><a xlink:title=" ">
<path fill="none" stroke="#63b8ff" d="M1012.41,-344.64C967.49,-337.95 900.5,-324.45 847.25,-298.75 802.05,-276.94 780.78,-274.09 758.25,-229.25 748.2,-209.25 749.32,-183.13 751.93,-165.1"/>
<polygon fill="#63b8ff" stroke="#63b8ff" points="755.36,-165.79 753.64,-155.34 748.47,-164.59 755.36,-165.79"/>
</a>
</g>
</g>
<!-- Node18 -->
<g id="Node000018" class="node">
<title>Node18</title>
<g id="a_Node000018"><a xlink:href="ErrorHelper_8h.html" target="_top" xlink:title=" ">
<polygon fill="white" stroke="#666666" points="1444.38,-83.88 1324.12,-83.88 1324.12,-63.12 1444.38,-63.12 1444.38,-83.88"/>
<text text-anchor="middle" x="1384.25" y="-70.38" font-family="Helvetica,sans-Serif" font-size="10.00">llzk/Util/ErrorHelper.h</text>
</a>
</g>
</g>
<!-- Node1&#45;&gt;Node18 -->
<g id="edge51_Node000001_Node000018" class="edge">
<title>Node1&#45;&gt;Node18</title>
<g id="a_edge51_Node000001_Node000018"><a xlink:title=" ">
<path fill="none" stroke="#63b8ff" d="M1068.37,-334.4C1076.9,-314.41 1094.4,-281.02 1121.25,-265.25 1192.48,-223.4 1435.74,-290.43 1491.25,-229.25 1533.2,-183.02 1452.88,-119.57 1409.47,-90.38"/>
<polygon fill="#63b8ff" stroke="#63b8ff" points="1411.62,-87.6 1401.34,-85.03 1407.78,-93.45 1411.62,-87.6"/>
</a>
</g>
</g>
<!-- Node38 -->
<g id="Node000038" class="node">
<title>Node38</title>
<g id="a_Node000038"><a xlink:href="AttributeHelper_8h.html" target="_top" xlink:title=" ">
<polygon fill="white" stroke="#666666" points="398.5,-298.75 288,-298.75 288,-265.25 398.5,-265.25 398.5,-298.75"/>
<text text-anchor="start" x="296" y="-285.25" font-family="Helvetica,sans-Serif" font-size="10.00">llzk/Dialect/LLZK/IR</text>
<text text-anchor="middle" x="343.25" y="-272.5" font-family="Helvetica,sans-Serif" font-size="10.00">/AttributeHelper.h</text>
</a>
</g>
</g>
<!-- Node1&#45;&gt;Node38 -->
<g id="edge44_Node000001_Node000038" class="edge">
<title>Node1&#45;&gt;Node38</title>
<g id="a_edge44_Node000001_Node000038"><a xlink:title=" ">
<path fill="none" stroke="#63b8ff" d="M1012.26,-345.81C885.76,-333.93 552.83,-302.68 409.95,-289.26"/>
<polygon fill="#63b8ff" stroke="#63b8ff" points="410.55,-285.8 400.27,-288.35 409.9,-292.77 410.55,-285.8"/>
</a>
</g>
</g>
<!-- Node41 -->
<g id="Node000041" class="node">
<title>Node41</title>
<g id="a_Node000041"><a xlink:title=" ">
<polygon fill="#e0e0e0" stroke="#999999" points="526.62,-222.88 353.88,-222.88 353.88,-202.12 526.62,-202.12 526.62,-222.88"/>
<text text-anchor="middle" x="440.25" y="-209.38" font-family="Helvetica,sans-Serif" font-size="10.00">mlir/IR/DialectImplementation.h</text>
</a>
</g>
</g>
<!-- Node1&#45;&gt;Node41 -->
<g id="edge53_Node000001_Node000041" class="edge">
<title>Node1&#45;&gt;Node41</title>
<g id="a_edge53_Node000001_Node000041"><a xlink:title=" ">
<path fill="none" stroke="#63b8ff" d="M1012.19,-347.03C938.62,-341.2 797.32,-327.15 680.25,-298.75 604.43,-280.36 519.11,-246.82 473.41,-227.75"/>
<polygon fill="#63b8ff" stroke="#63b8ff" points="474.91,-224.59 464.33,-223.93 472.19,-231.04 474.91,-224.59"/>
</a>
</g>
</g>
<!-- Node42 -->
<g id="Node000042" class="node">
<title>Node42</title>
<g id="a_Node000042"><a xlink:href="Versioning_8h.html" target="_top" xlink:title=" ">
<polygon fill="white" stroke="#666666" points="1240.5,-298.75 1130,-298.75 1130,-265.25 1240.5,-265.25 1240.5,-298.75"/>
<text text-anchor="start" x="1138" y="-285.25" font-family="Helvetica,sans-Serif" font-size="10.00">llzk/Dialect/LLZK/IR</text>
<text text-anchor="middle" x="1185.25" y="-272.5" font-family="Helvetica,sans-Serif" font-size="10.00">/Versioning.h</text>
</a>
</g>
</g>
<!-- Node1&#45;&gt;Node42 -->
<g id="edge49_Node000001_Node000042" class="edge">
<title>Node1&#45;&gt;Node42</title>
<g id="a_edge49_Node000001_Node000042"><a xlink:title=" ">
<path fill="none" stroke="#63b8ff" d="M1091.71,-334.33C1107.99,-325.4 1128.42,-314.19 1146.04,-304.52"/>
<polygon fill="#63b8ff" stroke="#63b8ff" points="1147.62,-307.64 1154.7,-299.76 1144.25,-301.51 1147.62,-307.64"/>
</a>
</g>
</g>
<!-- Node44 -->
<g id="Node000044" class="node">
<title>Node44</title>
<g id="a_Node000044"><a xlink:title=" ">
<polygon fill="#e0e0e0" stroke="#999999" points="1386.12,-292.38 1258.38,-292.38 1258.38,-271.62 1386.12,-271.62 1386.12,-292.38"/>
<text text-anchor="middle" x="1322.25" y="-278.88" font-family="Helvetica,sans-Serif" font-size="10.00">llvm/ADT/TypeSwitch.h</text>
</a>
</g>
</g>
<!-- Node1&#45;&gt;Node44 -->
<g id="edge54_Node000001_Node000044" class="edge">
<title>Node1&#45;&gt;Node44</title>
<g id="a_edge54_Node000001_Node000044"><a xlink:title=" ">
<path fill="none" stroke="#63b8ff" d="M1112.07,-337.57C1158.52,-325.51 1227.38,-307.63 1273.49,-295.66"/>
<polygon fill="#63b8ff" stroke="#63b8ff" points="1274.14,-299.11 1282.94,-293.21 1272.38,-292.33 1274.14,-299.11"/>
</a>
</g>
</g>
<!-- Node45 -->
<g id="Node000045" class="node">
<title>Node45</title>
<g id="a_Node000045"><a xlink:href="Felt_2IR_2Dialect_8cpp_8inc.html" target="_top" xlink:title=" ">
<polygon fill="white" stroke="#666666" points="1508.5,-298.75 1404,-298.75 1404,-265.25 1508.5,-265.25 1508.5,-298.75"/>
<text text-anchor="start" x="1412" y="-285.25" font-family="Helvetica,sans-Serif" font-size="10.00">llzk/Dialect/Felt/IR</text>
<text text-anchor="middle" x="1456.25" y="-272.5" font-family="Helvetica,sans-Serif" font-size="10.00">/Dialect.cpp.inc</text>
</a>
</g>
</g>
<!-- Node1&#45;&gt;Node45 -->
<g id="edge55_Node000001_Node000045" class="edge">
<title>Node1&#45;&gt;Node45</title>
<g id="a_edge55_Node000001_Node000045"><a xlink:title=" ">
<path fill="none" stroke="#63b8ff" d="M1112.17,-344.3C1175.31,-336.12 1287.54,-320.44 1392.63,-299.18"/>
<polygon fill="#63b8ff" stroke="#63b8ff" points="1393.18,-302.64 1402.27,-297.21 1391.77,-295.78 1393.18,-302.64"/>
</a>
</g>
</g>
<!-- Node46 -->
<g id="Node000046" class="node">
<title>Node46</title>
<g id="a_Node000046"><a xlink:href="Felt_2IR_2Types_8cpp_8inc.html" target="_top" xlink:title=" ">
<polygon fill="white" stroke="#666666" points="1631.5,-298.75 1527,-298.75 1527,-265.25 1631.5,-265.25 1631.5,-298.75"/>
<text text-anchor="start" x="1535" y="-285.25" font-family="Helvetica,sans-Serif" font-size="10.00">llzk/Dialect/Felt/IR</text>
<text text-anchor="middle" x="1579.25" y="-272.5" font-family="Helvetica,sans-Serif" font-size="10.00">/Types.cpp.inc</text>
</a>
</g>
</g>
<!-- Node1&#45;&gt;Node46 -->
<g id="edge56_Node000001_Node000046" class="edge">
<title>Node1&#45;&gt;Node46</title>
<g id="a_edge56_Node000001_Node000046"><a xlink:title=" ">
<path fill="none" stroke="#63b8ff" d="M1112.06,-347.06C1194.14,-340.9 1363.05,-326.19 1515.64,-298.88"/>
<polygon fill="#63b8ff" stroke="#63b8ff" points="1515.89,-302.39 1525.1,-297.16 1514.64,-295.51 1515.89,-302.39"/>
</a>
</g>
</g>
<!-- Node47 -->
<g id="Node000047" class="node">
<title>Node47</title>
<g id="a_Node000047"><a xlink:href="Felt_2IR_2Attrs_8cpp_8inc.html" target="_top" xlink:title=" ">
<polygon fill="white" stroke="#666666" points="1754.5,-298.75 1650,-298.75 1650,-265.25 1754.5,-265.25 1754.5,-298.75"/>
<text text-anchor="start" x="1658" y="-285.25" font-family="Helvetica,sans-Serif" font-size="10.00">llzk/Dialect/Felt/IR</text>
<text text-anchor="middle" x="1702.25" y="-272.5" font-family="Helvetica,sans-Serif" font-size="10.00">/Attrs.cpp.inc</text>
</a>
</g>
</g>
<!-- Node1&#45;&gt;Node47 -->
<g id="edge57_Node000001_Node000047" class="edge">
<title>Node1&#45;&gt;Node47</title>
<g id="a_edge57_Node000001_Node000047"><a xlink:title=" ">
<path fill="none" stroke="#63b8ff" d="M1112.08,-348.72C1210.73,-344.6 1437.95,-332.27 1638.28,-298.9"/>
<polygon fill="#63b8ff" stroke="#63b8ff" points="1638.84,-302.35 1648.11,-297.23 1637.67,-295.45 1638.84,-302.35"/>
</a>
</g>
</g>
<!-- Node48 -->
<g id="Node000048" class="node">
<title>Node48</title>
<g id="a_Node000048"><a xlink:href="Felt_2IR_2Ops_8cpp_8inc.html" target="_top" xlink:title=" ">
<polygon fill="white" stroke="#666666" points="1877.5,-298.75 1773,-298.75 1773,-265.25 1877.5,-265.25 1877.5,-298.75"/>
<text text-anchor="start" x="1781" y="-285.25" font-family="Helvetica,sans-Serif" font-size="10.00">llzk/Dialect/Felt/IR</text>
<text text-anchor="middle" x="1825.25" y="-272.5" font-family="Helvetica,sans-Serif" font-size="10.00">/Ops.cpp.inc</text>
</a>
</g>
</g>
<!-- Node1&#45;&gt;Node48 -->
<g id="edge58_Node000001_Node000048" class="edge">
<title>Node1&#45;&gt;Node48</title>
<g id="a_edge58_Node000001_Node000048"><a xlink:title=" ">
<path fill="none" stroke="#63b8ff" d="M1112.32,-349.8C1226.11,-347.58 1512.88,-338.35 1761.55,-298.82"/>
<polygon fill="#63b8ff" stroke="#63b8ff" points="1761.81,-302.33 1771.12,-297.28 1760.69,-295.41 1761.81,-302.33"/>
</a>
</g>
</g>
<!-- Node3 -->
<g id="Node000003" class="node">
<title>Node3</title>
<g id="a_Node000003"><a xlink:title=" ">
<polygon fill="#e0e0e0" stroke="#999999" points="427.38,-153.38 319.12,-153.38 319.12,-132.62 427.38,-132.62 427.38,-153.38"/>
<text text-anchor="middle" x="373.25" y="-139.88" font-family="Helvetica,sans-Serif" font-size="10.00">mlir/IR/Attributes.h</text>
</a>
</g>
</g>
<!-- Node2&#45;&gt;Node3 -->
<g id="edge2_Node000002_Node000003" class="edge">
<title>Node2&#45;&gt;Node3</title>
<g id="a_edge2_Node000002_Node000003"><a xlink:title=" ">
<path fill="none" stroke="#63b8ff" d="M588.62,-198.24C540.74,-186.19 470.55,-168.51 423.44,-156.64"/>
<polygon fill="#63b8ff" stroke="#63b8ff" points="424.31,-153.25 413.76,-154.2 422.6,-160.04 424.31,-153.25"/>
</a>
</g>
</g>
<!-- Node4 -->
<g id="Node000004" class="node">
<title>Node4</title>
<g id="a_Node000004"><a xlink:title=" ">
<polygon fill="#e0e0e0" stroke="#999999" points="571,-159.75 445.5,-159.75 445.5,-126.25 571,-126.25 571,-159.75"/>
<text text-anchor="start" x="453.5" y="-146.25" font-family="Helvetica,sans-Serif" font-size="10.00">mlir/IR/BuiltinAttribute</text>
<text text-anchor="middle" x="508.25" y="-133.5" font-family="Helvetica,sans-Serif" font-size="10.00">Interfaces.h</text>
</a>
</g>
</g>
<!-- Node2&#45;&gt;Node4 -->
<g id="edge3_Node000002_Node000004" class="edge">
<title>Node2&#45;&gt;Node4</title>
<g id="a_edge3_Node000002_Node000004"><a xlink:title=" ">
<path fill="none" stroke="#63b8ff" d="M609.39,-195.33C591.54,-186.27 569.08,-174.87 549.85,-165.11"/>
<polygon fill="#63b8ff" stroke="#63b8ff" points="551.7,-162.13 541.2,-160.72 548.53,-168.37 551.7,-162.13"/>
</a>
</g>
</g>
<!-- Node5 -->
<g id="Node000005" class="node">
<title>Node5</title>
<g id="a_Node000005"><a xlink:href="Felt_2IR_2Attrs_8h_8inc.html" target="_top" xlink:title=" ">
<polygon fill="white" stroke="#666666" points="693.5,-159.75 589,-159.75 589,-126.25 693.5,-126.25 693.5,-159.75"/>
<text text-anchor="start" x="597" y="-146.25" font-family="Helvetica,sans-Serif" font-size="10.00">llzk/Dialect/Felt/IR</text>
<text text-anchor="middle" x="641.25" y="-133.5" font-family="Helvetica,sans-Serif" font-size="10.00">/Attrs.h.inc</text>
</a>
</g>
</g>
<!-- Node2&#45;&gt;Node5 -->
<g id="edge4_Node000002_Node000005" class="edge">
<title>Node2&#45;&gt;Node5</title>
<g id="a_edge4_Node000002_Node000005"><a xlink:title=" ">
<path fill="none" stroke="#63b8ff" d="M641.25,-195.5C641.25,-188.27 641.25,-179.53 641.25,-171.31"/>
<polygon fill="#63b8ff" stroke="#63b8ff" points="644.75,-171.4 641.25,-161.4 637.75,-171.4 644.75,-171.4"/>
</a>
</g>
</g>
<!-- Node7 -->
<g id="Node000007" class="node">
<title>Node7</title>
<g id="a_Node000007"><a xlink:title=" ">
<polygon fill="#e0e0e0" stroke="#999999" points="1183.5,-83.88 1073,-83.88 1073,-63.12 1183.5,-63.12 1183.5,-83.88"/>
<text text-anchor="middle" x="1128.25" y="-70.38" font-family="Helvetica,sans-Serif" font-size="10.00">mlir/IR/BuiltinOps.h</text>
</a>
</g>
</g>
<!-- Node6&#45;&gt;Node7 -->
<g id="edge6_Node000006_Node000007" class="edge">
<title>Node6&#45;&gt;Node7</title>
<g id="a_edge6_Node000006_Node000007"><a xlink:title=" ">
<path fill="none" stroke="#63b8ff" d="M1078.65,-126C1088.39,-115.89 1100.99,-102.81 1111.05,-92.36"/>
<polygon fill="#63b8ff" stroke="#63b8ff" points="1113.33,-95.04 1117.74,-85.41 1108.28,-90.19 1113.33,-95.04"/>
</a>
</g>
</g>
<!-- Node8 -->
<g id="Node000008" class="node">
<title>Node8</title>
<g id="a_Node000008"><a xlink:href="Felt_2IR_2Dialect_8h_8inc.html" target="_top" xlink:title=" ">
<polygon fill="white" stroke="#666666" points="1306.5,-90.25 1202,-90.25 1202,-56.75 1306.5,-56.75 1306.5,-90.25"/>
<text text-anchor="start" x="1210" y="-76.75" font-family="Helvetica,sans-Serif" font-size="10.00">llzk/Dialect/Felt/IR</text>
<text text-anchor="middle" x="1254.25" y="-64" font-family="Helvetica,sans-Serif" font-size="10.00">/Dialect.h.inc</text>
</a>
</g>
</g>
<!-- Node6&#45;&gt;Node8 -->
<g id="edge7_Node000006_Node000008" class="edge">
<title>Node6&#45;&gt;Node8</title>
<g id="a_edge7_Node000006_Node000008"><a xlink:title=" ">
<path fill="none" stroke="#63b8ff" d="M1109,-125.83C1135.72,-116.39 1169.64,-104.4 1197.98,-94.39"/>
<polygon fill="#63b8ff" stroke="#63b8ff" points="1198.85,-97.79 1207.12,-91.16 1196.52,-91.19 1198.85,-97.79"/>
</a>
</g>
</g>
<!-- Node9&#45;&gt;Node2 -->
<g id="edge9_Node000009_Node000002" class="edge">
<title>Node9&#45;&gt;Node2</title>
<g id="a_edge9_Node000009_Node000002"><a xlink:title=" ">
<path fill="none" stroke="#63b8ff" d="M969.67,-271.69C900.55,-259.44 779.21,-237.94 704.95,-224.79"/>
<polygon fill="#63b8ff" stroke="#63b8ff" points="705.85,-221.39 695.39,-223.09 704.62,-228.28 705.85,-221.39"/>
</a>
</g>
</g>
<!-- Node9&#45;&gt;Node6 -->
<g id="edge10_Node000009_Node000006" class="edge">
<title>Node9&#45;&gt;Node6</title>
<g id="a_edge10_Node000009_Node000006"><a xlink:title=" ">
<path fill="none" stroke="#63b8ff" d="M1029.96,-264.97C1034.59,-254.9 1040.31,-241.52 1044.25,-229.25 1050.37,-210.2 1055.23,-188.13 1058.5,-171.23"/>
<polygon fill="#63b8ff" stroke="#63b8ff" points="1061.93,-171.9 1060.32,-161.43 1055.05,-170.62 1061.93,-171.9"/>
</a>
</g>
</g>
<!-- Node9&#45;&gt;Node10 -->
<g id="edge11_Node000009_Node000010" class="edge">
<title>Node9&#45;&gt;Node10</title>
<g id="a_edge11_Node000009_Node000010"><a xlink:title=" ">
<path fill="none" stroke="#63b8ff" d="M973.63,-264.83C945.11,-255.35 908.86,-243.3 878.66,-233.25"/>
<polygon fill="#63b8ff" stroke="#63b8ff" points="879.86,-229.96 869.26,-230.13 877.65,-236.61 879.86,-229.96"/>
</a>
</g>
</g>
<!-- Node32 -->
<g id="Node000032" class="node">
<title>Node32</title>
<g id="a_Node000032"><a xlink:href="OpTraits_8h.html" target="_top" xlink:title=" ">
<polygon fill="white" stroke="#666666" points="1481.75,-229.25 1366.75,-229.25 1366.75,-195.75 1481.75,-195.75 1481.75,-229.25"/>
<text text-anchor="start" x="1374.75" y="-215.75" font-family="Helvetica,sans-Serif" font-size="10.00">llzk/Dialect/Function</text>
<text text-anchor="middle" x="1424.25" y="-203" font-family="Helvetica,sans-Serif" font-size="10.00">/IR/OpTraits.h</text>
</a>
</g>
</g>
<!-- Node9&#45;&gt;Node32 -->
<g id="edge36_Node000009_Node000032" class="edge">
<title>Node9&#45;&gt;Node32</title>
<g id="a_edge36_Node000009_Node000032"><a xlink:title=" ">
<path fill="none" stroke="#63b8ff" d="M1074.74,-267.96C1079.3,-266.99 1083.85,-266.07 1088.25,-265.25 1203.68,-243.84 1237.2,-250.86 1355.08,-229.73"/>
<polygon fill="#63b8ff" stroke="#63b8ff" points="1355.68,-233.18 1364.88,-227.94 1354.42,-226.29 1355.68,-233.18"/>
</a>
</g>
</g>
<!-- Node35 -->
<g id="Node000035" class="node">
<title>Node35</title>
<g id="a_Node000035"><a xlink:title=" ">
<polygon fill="#e0e0e0" stroke="#999999" points="1348.88,-229.25 1213.62,-229.25 1213.62,-195.75 1348.88,-195.75 1348.88,-229.25"/>
<text text-anchor="start" x="1221.62" y="-215.75" font-family="Helvetica,sans-Serif" font-size="10.00">mlir/Interfaces/InferType</text>
<text text-anchor="middle" x="1281.25" y="-203" font-family="Helvetica,sans-Serif" font-size="10.00">OpInterface.h</text>
</a>
</g>
</g>
<!-- Node9&#45;&gt;Node35 -->
<g id="edge40_Node000009_Node000035" class="edge">
<title>Node9&#45;&gt;Node35</title>
<g id="a_edge40_Node000009_Node000035"><a xlink:title=" ">
<path fill="none" stroke="#63b8ff" d="M1074.97,-267.26C1113.26,-257.28 1165.56,-243.65 1207.92,-232.61"/>
<polygon fill="#63b8ff" stroke="#63b8ff" points="1208.76,-236.01 1217.56,-230.1 1207,-229.23 1208.76,-236.01"/>
</a>
</g>
</g>
<!-- Node36 -->
<g id="Node000036" class="node">
<title>Node36</title>
<g id="a_Node000036"><a xlink:href="Felt_2IR_2OpInterfaces_8h_8inc.html" target="_top" xlink:title=" ">
<polygon fill="white" stroke="#666666" points="1035,-229.25 927.5,-229.25 927.5,-195.75 1035,-195.75 1035,-229.25"/>
<text text-anchor="start" x="935.5" y="-215.75" font-family="Helvetica,sans-Serif" font-size="10.00">llzk/Dialect/Felt/IR</text>
<text text-anchor="middle" x="981.25" y="-203" font-family="Helvetica,sans-Serif" font-size="10.00">/OpInterfaces.h.inc</text>
</a>
</g>
</g>
<!-- Node9&#45;&gt;Node36 -->
<g id="edge41_Node000009_Node000036" class="edge">
<title>Node9&#45;&gt;Node36</title>
<g id="a_edge41_Node000009_Node000036"><a xlink:title=" ">
<path fill="none" stroke="#63b8ff" d="M1012.53,-265C1007.84,-257.27 1002.08,-247.8 996.8,-239.09"/>
<polygon fill="#63b8ff" stroke="#63b8ff" points="999.87,-237.41 991.68,-230.68 993.88,-241.04 999.87,-237.41"/>
</a>
</g>
</g>
<!-- Node37 -->
<g id="Node000037" class="node">
<title>Node37</title>
<g id="a_Node000037"><a xlink:href="Felt_2IR_2Ops_8h_8inc.html" target="_top" xlink:title=" ">
<polygon fill="white" stroke="#666666" points="1195.5,-229.25 1091,-229.25 1091,-195.75 1195.5,-195.75 1195.5,-229.25"/>
<text text-anchor="start" x="1099" y="-215.75" font-family="Helvetica,sans-Serif" font-size="10.00">llzk/Dialect/Felt/IR</text>
<text text-anchor="middle" x="1143.25" y="-203" font-family="Helvetica,sans-Serif" font-size="10.00">/Ops.h.inc</text>
</a>
</g>
</g>
<!-- Node9&#45;&gt;Node37 -->
<g id="edge42_Node000009_Node000037" class="edge">
<title>Node9&#45;&gt;Node37</title>
<g id="a_edge42_Node000009_Node000037"><a xlink:title=" ">
<path fill="none" stroke="#63b8ff" d="M1051.23,-264.83C1067.25,-255.9 1087.35,-244.69 1104.67,-235.02"/>
<polygon fill="#63b8ff" stroke="#63b8ff" points="1106.15,-238.2 1113.18,-230.27 1102.74,-232.09 1106.15,-238.2"/>
</a>
</g>
</g>
<!-- Node10&#45;&gt;Node6 -->
<g id="edge12_Node000010_Node000006" class="edge">
<title>Node10&#45;&gt;Node6</title>
<g id="a_edge12_Node000010_Node000006"><a xlink:title=" ">
<path fill="none" stroke="#63b8ff" d="M871.89,-196.94C909.41,-186.56 960.04,-172.55 999.8,-161.55"/>
<polygon fill="#63b8ff" stroke="#63b8ff" points="1000.54,-164.98 1009.24,-158.94 998.67,-158.23 1000.54,-164.98"/>
</a>
</g>
</g>
<!-- Node10&#45;&gt;Node11 -->
<g id="edge13_Node000010_Node000011" class="edge">
<title>Node10&#45;&gt;Node11</title>
<g id="a_edge13_Node000010_Node000011"><a xlink:title=" ">
<path fill="none" stroke="#63b8ff" d="M804.32,-195.5C794.98,-185.49 782.91,-172.57 773.21,-162.17"/>
<polygon fill="#63b8ff" stroke="#63b8ff" points="775.83,-159.85 766.45,-154.93 770.71,-164.63 775.83,-159.85"/>
</a>
</g>
</g>
<!-- Node31 -->
<g id="Node000031" class="node">
<title>Node31</title>
<g id="a_Node000031"><a xlink:href="Felt_2IR_2Types_8h_8inc.html" target="_top" xlink:title=" ">
<polygon fill="white" stroke="#666666" points="923.5,-159.75 819,-159.75 819,-126.25 923.5,-126.25 923.5,-159.75"/>
<text text-anchor="start" x="827" y="-146.25" font-family="Helvetica,sans-Serif" font-size="10.00">llzk/Dialect/Felt/IR</text>
<text text-anchor="middle" x="871.25" y="-133.5" font-family="Helvetica,sans-Serif" font-size="10.00">/Types.h.inc</text>
</a>
</g>
</g>
<!-- Node10&#45;&gt;Node31 -->
<g id="edge35_Node000010_Node000031" class="edge">
<title>Node10&#45;&gt;Node31</title>
<g id="a_edge35_Node000010_Node000031"><a xlink:title=" ">
<path fill="none" stroke="#63b8ff" d="M831.57,-195.5C837.73,-187.52 845.31,-177.68 852.19,-168.75"/>
<polygon fill="#63b8ff" stroke="#63b8ff" points="854.76,-171.14 858.09,-161.08 849.22,-166.87 854.76,-171.14"/>
</a>
</g>
</g>
<!-- Node11&#45;&gt;Node7 -->
<g id="edge27_Node000011_Node000007" class="edge">
<title>Node11&#45;&gt;Node7</title>
<g id="a_edge27_Node000011_Node000007"><a xlink:title=" ">
<path fill="none" stroke="#63b8ff" d="M787.18,-132.16C794.68,-130 802.71,-127.88 810.25,-126.25 921.27,-102.29 951.71,-111.65 1063.25,-90.25 1068.46,-89.25 1073.89,-88.1 1079.28,-86.9"/>
<polygon fill="#63b8ff" stroke="#63b8ff" points="1079.81,-90.37 1088.76,-84.7 1078.23,-83.55 1079.81,-90.37"/>
</a>
</g>
</g>
<!-- Node12 -->
<g id="Node000012" class="node">
<title>Node12</title>
<g id="a_Node000012"><a xlink:href="DynamicAPIntHelper_8h.html" target="_top" xlink:title="This file implements helper methods for constructing DynamicAPInts.">
<polygon fill="white" stroke="#666666" points="607.25,-83.88 441.25,-83.88 441.25,-63.12 607.25,-63.12 607.25,-83.88"/>
<text text-anchor="middle" x="524.25" y="-70.38" font-family="Helvetica,sans-Serif" font-size="10.00">llzk/Util/DynamicAPIntHelper.h</text>
</a>
</g>
</g>
<!-- Node11&#45;&gt;Node12 -->
<g id="edge14_Node000011_Node000012" class="edge">
<title>Node11&#45;&gt;Node12</title>
<g id="a_edge14_Node000011_Node000012"><a xlink:title=" ">
<path fill="none" stroke="#63b8ff" d="M722.55,-132.17C715.82,-130.2 708.81,-128.16 702.25,-126.25 656.75,-113 604.69,-97.87 568.68,-87.41"/>
<polygon fill="#63b8ff" stroke="#63b8ff" points="570.08,-84.17 559.5,-84.74 568.13,-90.89 570.08,-84.17"/>
</a>
</g>
</g>
<!-- Node15 -->
<g id="Node000015" class="node">
<title>Node15</title>
<g id="a_Node000015"><a xlink:title=" ">
<polygon fill="#e0e0e0" stroke="#999999" points="743.25,-20.75 601.25,-20.75 601.25,0 743.25,0 743.25,-20.75"/>
<text text-anchor="middle" x="672.25" y="-7.25" font-family="Helvetica,sans-Serif" font-size="10.00">llvm/ADT/DynamicAPInt.h</text>
</a>
</g>
</g>
<!-- Node11&#45;&gt;Node15 -->
<g id="edge30_Node000011_Node000015" class="edge">
<title>Node11&#45;&gt;Node15</title>
<g id="a_edge30_Node000011_Node000015"><a xlink:title=" ">
<path fill="none" stroke="#63b8ff" d="M729.5,-132.13C702.23,-121.46 662.77,-104.13 654.25,-90.25 643.04,-71.99 651.58,-47.48 660.32,-30.65"/>
<polygon fill="#63b8ff" stroke="#63b8ff" points="663.24,-32.59 665.14,-22.16 657.16,-29.13 663.24,-32.59"/>
</a>
</g>
</g>
<!-- Node11&#45;&gt;Node18 -->
<g id="edge20_Node000011_Node000018" class="edge">
<title>Node11&#45;&gt;Node18</title>
<g id="a_edge20_Node000011_Node000018"><a xlink:title=" ">
<path fill="none" stroke="#63b8ff" d="M785.69,-132.19C793.59,-129.89 802.18,-127.7 810.25,-126.25 1031.73,-86.52 1092.69,-123.38 1315.25,-90.25 1321.71,-89.29 1328.47,-88.05 1335.11,-86.68"/>
<polygon fill="#63b8ff" stroke="#63b8ff" points="1335.61,-90.15 1344.65,-84.62 1334.13,-83.31 1335.61,-90.15"/>
</a>
</g>
</g>
<!-- Node25 -->
<g id="Node000025" class="node">
<title>Node25</title>
<g id="a_Node000025"><a xlink:title=" ">
<polygon fill="#e0e0e0" stroke="#999999" points="777,-83.88 663.5,-83.88 663.5,-63.12 777,-63.12 777,-83.88"/>
<text text-anchor="middle" x="720.25" y="-70.38" font-family="Helvetica,sans-Serif" font-size="10.00">mlir/Support/LLVM.h</text>
</a>
</g>
</g>
<!-- Node11&#45;&gt;Node25 -->
<g id="edge28_Node000011_Node000025" class="edge">
<title>Node11&#45;&gt;Node25</title>
<g id="a_edge28_Node000011_Node000025"><a xlink:title=" ">
<path fill="none" stroke="#63b8ff" d="M751.09,-132.33C745.8,-122.4 737.41,-106.68 730.72,-94.14"/>
<polygon fill="#63b8ff" stroke="#63b8ff" points="733.9,-92.67 726.11,-85.49 727.73,-95.96 733.9,-92.67"/>
</a>
</g>
</g>
<!-- Node26 -->
<g id="Node000026" class="node">
<title>Node26</title>
<g id="a_Node000026"><a xlink:title=" ">
<polygon fill="#e0e0e0" stroke="#999999" points="919.62,-83.88 794.88,-83.88 794.88,-63.12 919.62,-63.12 919.62,-83.88"/>
<text text-anchor="middle" x="857.25" y="-70.38" font-family="Helvetica,sans-Serif" font-size="10.00">llvm/ADT/DenseMap.h</text>
</a>
</g>
</g>
<!-- Node11&#45;&gt;Node26 -->
<g id="edge29_Node000011_Node000026" class="edge">
<title>Node11&#45;&gt;Node26</title>
<g id="a_edge29_Node000011_Node000026"><a xlink:title=" ">
<path fill="none" stroke="#63b8ff" d="M770.72,-132.33C786.98,-121.46 813.63,-103.65 833.07,-90.66"/>
<polygon fill="#63b8ff" stroke="#63b8ff" points="834.85,-93.68 841.22,-85.21 830.96,-87.86 834.85,-93.68"/>
</a>
</g>
</g>
<!-- Node27 -->
<g id="Node000027" class="node">
<title>Node27</title>
<g id="a_Node000027"><a xlink:title=" ">
<polygon fill="#e0e0e0" stroke="#999999" points="1054.5,-83.88 938,-83.88 938,-63.12 1054.5,-63.12 1054.5,-83.88"/>
<text text-anchor="middle" x="996.25" y="-70.38" font-family="Helvetica,sans-Serif" font-size="10.00">llvm/ADT/SmallSet.h</text>
</a>
</g>
</g>
<!-- Node11&#45;&gt;Node27 -->
<g id="edge31_Node000011_Node000027" class="edge">
<title>Node11&#45;&gt;Node27</title>
<g id="a_edge31_Node000011_Node000027"><a xlink:title=" ">
<path fill="none" stroke="#63b8ff" d="M789.65,-132.19C796.46,-130.21 803.58,-128.15 810.25,-126.25 857.78,-112.71 912.26,-97.6 949.92,-87.22"/>
<polygon fill="#63b8ff" stroke="#63b8ff" points="950.38,-90.72 959.1,-84.69 948.53,-83.97 950.38,-90.72"/>
</a>
</g>
</g>
<!-- Node28 -->
<g id="Node000028" class="node">
<title>Node28</title>
<g id="a_Node000028"><a xlink:title=" ">
<polygon fill="#e0e0e0" stroke="#999999" points="189,-83.88 33.5,-83.88 33.5,-63.12 189,-63.12 189,-83.88"/>
<text text-anchor="middle" x="111.25" y="-70.38" font-family="Helvetica,sans-Serif" font-size="10.00">llvm/Support/LogicalResult.h</text>
</a>
</g>
</g>
<!-- Node11&#45;&gt;Node28 -->
<g id="edge32_Node000011_Node000028" class="edge">
<title>Node11&#45;&gt;Node28</title>
<g id="a_edge32_Node000011_Node000028"><a xlink:title=" ">
<path fill="none" stroke="#63b8ff" d="M726.81,-132.19C718.91,-129.89 710.32,-127.7 702.25,-126.25 481.21,-86.59 421.06,-118.29 198.25,-90.25 189.58,-89.16 180.46,-87.77 171.52,-86.28"/>
<polygon fill="#63b8ff" stroke="#63b8ff" points="172.28,-82.86 161.83,-84.6 171.09,-89.76 172.28,-82.86"/>
</a>
</g>
</g>
<!-- Node29 -->
<g id="Node000029" class="node">
<title>Node29</title>
<g id="a_Node000029"><a xlink:title=" ">
<polygon fill="#e0e0e0" stroke="#999999" points="333.38,-83.88 207.12,-83.88 207.12,-63.12 333.38,-63.12 333.38,-83.88"/>
<text text-anchor="middle" x="270.25" y="-70.38" font-family="Helvetica,sans-Serif" font-size="10.00">llvm/Support/SMTAPI.h</text>
</a>
</g>
</g>
<!-- Node11&#45;&gt;Node29 -->
<g id="edge33_Node000011_Node000029" class="edge">
<title>Node11&#45;&gt;Node29</title>
<g id="a_edge33_Node000011_Node000029"><a xlink:title=" ">
<path fill="none" stroke="#63b8ff" d="M726.22,-132.18C718.48,-129.94 710.11,-127.78 702.25,-126.25 544.4,-95.61 501.06,-115.47 342.25,-90.25 335.77,-89.22 329,-87.97 322.32,-86.63"/>
<polygon fill="#63b8ff" stroke="#63b8ff" points="323.2,-83.24 312.7,-84.63 321.77,-90.1 323.2,-83.24"/>
</a>
</g>
</g>
<!-- Node30 -->
<g id="Node000030" class="node">
<title>Node30</title>
<g id="a_Node000030"><a xlink:title=" ">
<polygon fill="#e0e0e0" stroke="#999999" points="423.38,-83.88 351.12,-83.88 351.12,-63.12 423.38,-63.12 423.38,-83.88"/>
<text text-anchor="middle" x="387.25" y="-70.38" font-family="Helvetica,sans-Serif" font-size="10.00">string_view</text>
</a>
</g>
</g>
<!-- Node11&#45;&gt;Node30 -->
<g id="edge34_Node000011_Node000030" class="edge">
<title>Node11&#45;&gt;Node30</title>
<g id="a_edge34_Node000011_Node000030"><a xlink:title=" ">
<path fill="none" stroke="#63b8ff" d="M725.61,-132.19C718.03,-130.01 709.89,-127.86 702.25,-126.25 583.8,-101.23 550,-118.39 432.25,-90.25 429.26,-89.54 426.19,-88.7 423.12,-87.78"/>
<polygon fill="#63b8ff" stroke="#63b8ff" points="424.24,-84.47 413.65,-84.72 422.08,-91.13 424.24,-84.47"/>
</a>
</g>
</g>
<!-- Node13 -->
<g id="Node000013" class="node">
<title>Node13</title>
<g id="a_Node000013"><a xlink:title=" ">
<polygon fill="#e0e0e0" stroke="#999999" points="98.5,-20.75 0,-20.75 0,0 98.5,0 98.5,-20.75"/>
<text text-anchor="middle" x="49.25" y="-7.25" font-family="Helvetica,sans-Serif" font-size="10.00">llvm/ADT/APInt.h</text>
</a>
</g>
</g>
<!-- Node12&#45;&gt;Node13 -->
<g id="edge15_Node000012_Node000013" class="edge">
<title>Node12&#45;&gt;Node13</title>
<g id="a_edge15_Node000012_Node000013"><a xlink:title=" ">
<path fill="none" stroke="#63b8ff" d="M469.84,-62.71C457.5,-60.62 444.44,-58.51 432.25,-56.75 318.79,-40.33 185.78,-25.58 110.12,-17.61"/>
<polygon fill="#63b8ff" stroke="#63b8ff" points="110.75,-14.15 100.44,-16.59 110.02,-21.11 110.75,-14.15"/>
</a>
</g>
</g>
<!-- Node14 -->
<g id="Node000014" class="node">
<title>Node14</title>
<g id="a_Node000014"><a xlink:title=" ">
<polygon fill="#e0e0e0" stroke="#999999" points="264.5,-20.75 160,-20.75 160,0 264.5,0 264.5,-20.75"/>
<text text-anchor="middle" x="212.25" y="-7.25" font-family="Helvetica,sans-Serif" font-size="10.00">llvm/ADT/APSInt.h</text>
</a>
</g>
</g>
<!-- Node12&#45;&gt;Node14 -->
<g id="edge16_Node000012_Node000014" class="edge">
<title>Node12&#45;&gt;Node14</title>
<g id="a_edge16_Node000012_Node000014"><a xlink:title=" ">
<path fill="none" stroke="#63b8ff" d="M474.12,-62.68C419.51,-51.98 332.11,-34.86 273.47,-23.37"/>
<polygon fill="#63b8ff" stroke="#63b8ff" points="274.48,-20 264,-21.51 273.14,-26.87 274.48,-20"/>
</a>
</g>
</g>
<!-- Node12&#45;&gt;Node15 -->
<g id="edge17_Node000012_Node000015" class="edge">
<title>Node12&#45;&gt;Node15</title>
<g id="a_edge17_Node000012_Node000015"><a xlink:title=" ">
<path fill="none" stroke="#63b8ff" d="M548.03,-62.68C572.41,-52.61 610.56,-36.85 638.16,-25.46"/>
<polygon fill="#63b8ff" stroke="#63b8ff" points="639.22,-28.8 647.13,-21.75 636.55,-22.33 639.22,-28.8"/>
</a>
</g>
</g>
<!-- Node16 -->
<g id="Node000016" class="node">
<title>Node16</title>
<g id="a_Node000016"><a xlink:title=" ">
<polygon fill="#e0e0e0" stroke="#999999" points="447.88,-20.75 282.62,-20.75 282.62,0 447.88,0 447.88,-20.75"/>
<text text-anchor="middle" x="365.25" y="-7.25" font-family="Helvetica,sans-Serif" font-size="10.00">llvm/ADT/SlowDynamicAPInt.h</text>
</a>
</g>
</g>
<!-- Node12&#45;&gt;Node16 -->
<g id="edge18_Node000012_Node000016" class="edge">
<title>Node12&#45;&gt;Node16</title>
<g id="a_edge18_Node000012_Node000016"><a xlink:title=" ">
<path fill="none" stroke="#63b8ff" d="M498.7,-62.68C472.28,-52.52 430.79,-36.57 401.09,-25.15"/>
<polygon fill="#63b8ff" stroke="#63b8ff" points="402.74,-22.04 392.15,-21.71 400.22,-28.57 402.74,-22.04"/>
</a>
</g>
</g>
<!-- Node17 -->
<g id="Node000017" class="node">
<title>Node17</title>
<g id="a_Node000017"><a xlink:title=" ">
<polygon fill="#e0e0e0" stroke="#999999" points="582.88,-20.75 465.62,-20.75 465.62,0 582.88,0 582.88,-20.75"/>
<text text-anchor="middle" x="524.25" y="-7.25" font-family="Helvetica,sans-Serif" font-size="10.00">llvm/ADT/StringRef.h</text>
</a>
</g>
</g>
<!-- Node12&#45;&gt;Node17 -->
<g id="edge19_Node000012_Node000017" class="edge">
<title>Node12&#45;&gt;Node17</title>
<g id="a_edge19_Node000012_Node000017"><a xlink:title=" ">
<path fill="none" stroke="#63b8ff" d="M524.25,-62.68C524.25,-54.52 524.25,-42.63 524.25,-32.35"/>
<polygon fill="#63b8ff" stroke="#63b8ff" points="527.75,-32.48 524.25,-22.48 520.75,-32.48 527.75,-32.48"/>
</a>
</g>
</g>
<!-- Node19 -->
<g id="Node000019" class="node">
<title>Node19</title>
<g id="a_Node000019"><a xlink:title=" ">
<polygon fill="#e0e0e0" stroke="#999999" points="1544.88,-20.75 1427.62,-20.75 1427.62,0 1544.88,0 1544.88,-20.75"/>
<text text-anchor="middle" x="1486.25" y="-7.25" font-family="Helvetica,sans-Serif" font-size="10.00">mlir/IR/Diagnostics.h</text>
</a>
</g>
</g>
<!-- Node18&#45;&gt;Node19 -->
<g id="edge21_Node000018_Node000019" class="edge">
<title>Node18&#45;&gt;Node19</title>
<g id="a_edge21_Node000018_Node000019"><a xlink:title=" ">
<path fill="none" stroke="#63b8ff" d="M1400.64,-62.68C1416.7,-53.05 1441.43,-38.23 1460.19,-26.99"/>
<polygon fill="#63b8ff" stroke="#63b8ff" points="1461.83,-30.09 1468.6,-21.95 1458.23,-24.09 1461.83,-30.09"/>
</a>
</g>
</g>
<!-- Node20 -->
<g id="Node000020" class="node">
<title>Node20</title>
<g id="a_Node000020"><a xlink:title=" ">
<polygon fill="#e0e0e0" stroke="#999999" points="1671.38,-20.75 1563.12,-20.75 1563.12,0 1671.38,0 1671.38,-20.75"/>
<text text-anchor="middle" x="1617.25" y="-7.25" font-family="Helvetica,sans-Serif" font-size="10.00">mlir/IR/Operation.h</text>
</a>
</g>
</g>
<!-- Node18&#45;&gt;Node20 -->
<g id="edge22_Node000018_Node000020" class="edge">
<title>Node18&#45;&gt;Node20</title>
<g id="a_edge22_Node000018_Node000020"><a xlink:title=" ">
<path fill="none" stroke="#63b8ff" d="M1421.69,-62.68C1461.68,-52.19 1525.23,-35.52 1568.96,-24.04"/>
<polygon fill="#63b8ff" stroke="#63b8ff" points="1569.66,-27.48 1578.44,-21.56 1567.88,-20.71 1569.66,-27.48"/>
</a>
</g>
</g>
<!-- Node21 -->
<g id="Node000021" class="node">
<title>Node21</title>
<g id="a_Node000021"><a xlink:title=" ">
<polygon fill="#e0e0e0" stroke="#999999" points="1046.88,-20.75 875.62,-20.75 875.62,0 1046.88,0 1046.88,-20.75"/>
<text text-anchor="middle" x="961.25" y="-7.25" font-family="Helvetica,sans-Serif" font-size="10.00">llvm/ADT/STLFunctionalExtras.h</text>
</a>
</g>
</g>
<!-- Node18&#45;&gt;Node21 -->
<g id="edge23_Node000018_Node000021" class="edge">
<title>Node18&#45;&gt;Node21</title>
<g id="a_edge23_Node000018_Node000021"><a xlink:title=" ">
<path fill="none" stroke="#63b8ff" d="M1344.25,-62.68C1334.78,-60.55 1324.69,-58.43 1315.25,-56.75 1228.82,-41.38 1129.64,-29.13 1058.29,-21.25"/>
<polygon fill="#63b8ff" stroke="#63b8ff" points="1058.91,-17.79 1048.59,-20.19 1058.15,-24.75 1058.91,-17.79"/>
</a>
</g>
</g>
<!-- Node22 -->
<g id="Node000022" class="node">
<title>Node22</title>
<g id="a_Node000022"><a xlink:title=" ">
<polygon fill="#e0e0e0" stroke="#999999" points="1165.62,-20.75 1064.88,-20.75 1064.88,0 1165.62,0 1165.62,-20.75"/>
<text text-anchor="middle" x="1115.25" y="-7.25" font-family="Helvetica,sans-Serif" font-size="10.00">llvm/ADT/Twine.h</text>
</a>
</g>
</g>
<!-- Node18&#45;&gt;Node22 -->
<g id="edge24_Node000018_Node000022" class="edge">
<title>Node18&#45;&gt;Node22</title>
<g id="a_edge24_Node000018_Node000022"><a xlink:title=" ">
<path fill="none" stroke="#63b8ff" d="M1341.19,-62.66C1332.6,-60.7 1323.64,-58.66 1315.25,-56.75 1266.01,-45.54 1209.94,-32.83 1169.72,-23.71"/>
<polygon fill="#63b8ff" stroke="#63b8ff" points="1170.56,-20.31 1160.04,-21.52 1169.01,-27.14 1170.56,-20.31"/>
</a>
</g>
</g>
<!-- Node23 -->
<g id="Node000023" class="node">
<title>Node23</title>
<g id="a_Node000023"><a xlink:title=" ">
<polygon fill="#e0e0e0" stroke="#999999" points="1340.75,-20.75 1183.75,-20.75 1183.75,0 1340.75,0 1340.75,-20.75"/>
<text text-anchor="middle" x="1262.25" y="-7.25" font-family="Helvetica,sans-Serif" font-size="10.00">llvm/Support/ErrorHandling.h</text>
</a>
</g>
</g>
<!-- Node18&#45;&gt;Node23 -->
<g id="edge25_Node000018_Node000023" class="edge">
<title>Node18&#45;&gt;Node23</title>
<g id="a_edge25_Node000018_Node000023"><a xlink:title=" ">
<path fill="none" stroke="#63b8ff" d="M1364.65,-62.68C1344.99,-52.83 1314.48,-37.55 1291.88,-26.22"/>
<polygon fill="#63b8ff" stroke="#63b8ff" points="1293.66,-23.2 1283.16,-21.85 1290.53,-29.46 1293.66,-23.2"/>
</a>
</g>
</g>
<!-- Node24 -->
<g id="Node000024" class="node">
<title>Node24</title>
<g id="a_Node000024"><a xlink:title=" ">
<polygon fill="#e0e0e0" stroke="#999999" points="1409.5,-20.75 1359,-20.75 1359,0 1409.5,0 1409.5,-20.75"/>
<text text-anchor="middle" x="1384.25" y="-7.25" font-family="Helvetica,sans-Serif" font-size="10.00">variant</text>
</a>
</g>
</g>
<!-- Node18&#45;&gt;Node24 -->
<g id="edge26_Node000018_Node000024" class="edge">
<title>Node18&#45;&gt;Node24</title>
<g id="a_edge26_Node000018_Node000024"><a xlink:title=" ">
<path fill="none" stroke="#63b8ff" d="M1384.25,-62.68C1384.25,-54.52 1384.25,-42.63 1384.25,-32.35"/>
<polygon fill="#63b8ff" stroke="#63b8ff" points="1387.75,-32.48 1384.25,-22.48 1380.75,-32.48 1387.75,-32.48"/>
</a>
</g>
</g>
<!-- Node32&#45;&gt;Node20 -->
<g id="edge38_Node000032_Node000020" class="edge">
<title>Node32&#45;&gt;Node20</title>
<g id="a_edge38_Node000032_Node000020"><a xlink:title=" ">
<path fill="none" stroke="#63b8ff" d="M1439.72,-195.46C1475.33,-158.54 1562.89,-67.75 1600.08,-29.17"/>
<polygon fill="#63b8ff" stroke="#63b8ff" points="1602.53,-31.68 1606.96,-22.05 1597.5,-26.82 1602.53,-31.68"/>
</a>
</g>
</g>
<!-- Node33 -->
<g id="Node000033" class="node">
<title>Node33</title>
<g id="a_Node000033"><a xlink:title=" ">
<polygon fill="#e0e0e0" stroke="#999999" points="1272.75,-153.38 1151.75,-153.38 1151.75,-132.62 1272.75,-132.62 1272.75,-153.38"/>
<text text-anchor="middle" x="1212.25" y="-139.88" font-family="Helvetica,sans-Serif" font-size="10.00">mlir/IR/OpDefinition.h</text>
</a>
</g>
</g>
<!-- Node32&#45;&gt;Node33 -->
<g id="edge37_Node000032_Node000033" class="edge">
<title>Node32&#45;&gt;Node33</title>
<g id="a_edge37_Node000032_Node000033"><a xlink:title=" ">
<path fill="none" stroke="#63b8ff" d="M1373.47,-195.33C1336.88,-183.68 1288.12,-168.16 1253.84,-157.24"/>
<polygon fill="#63b8ff" stroke="#63b8ff" points="1255.28,-154.03 1244.69,-154.33 1253.16,-160.7 1255.28,-154.03"/>
</a>
</g>
</g>
<!-- Node34 -->
<g id="Node000034" class="node">
<title>Node34</title>
<g id="a_Node000034"><a xlink:title=" ">
<polygon fill="#e0e0e0" stroke="#999999" points="1443.88,-153.38 1290.62,-153.38 1290.62,-132.62 1443.88,-132.62 1443.88,-153.38"/>
<text text-anchor="middle" x="1367.25" y="-139.88" font-family="Helvetica,sans-Serif" font-size="10.00">mlir/Support/LogicalResult.h</text>
</a>
</g>
</g>
<!-- Node32&#45;&gt;Node34 -->
<g id="edge39_Node000032_Node000034" class="edge">
<title>Node32&#45;&gt;Node34</title>
<g id="a_edge39_Node000032_Node000034"><a xlink:title=" ">
<path fill="none" stroke="#63b8ff" d="M1410.74,-195.5C1402.37,-185.59 1391.59,-172.83 1382.86,-162.49"/>
<polygon fill="#63b8ff" stroke="#63b8ff" points="1385.65,-160.36 1376.52,-154.98 1380.3,-164.88 1385.65,-160.36"/>
</a>
</g>
</g>
<!-- Node38&#45;&gt;Node13 -->
<g id="edge48_Node000038_Node000013" class="edge">
<title>Node38&#45;&gt;Node13</title>
<g id="a_edge48_Node000038_Node000013"><a xlink:title=" ">
<path fill="none" stroke="#63b8ff" d="M287.54,-271.12C252.5,-263.29 207.28,-250.11 171.25,-229.25 93.44,-184.19 59.82,-172.83 24.25,-90.25 15.72,-70.44 25.79,-46.74 35.58,-30.53"/>
<polygon fill="#63b8ff" stroke="#63b8ff" points="38.4,-32.62 40.95,-22.33 32.54,-28.78 38.4,-32.62"/>
</a>
</g>
</g>
<!-- Node39 -->
<g id="Node000039" class="node">
<title>Node39</title>
<g id="a_Node000039"><a xlink:href="StreamHelper_8h.html" target="_top" xlink:title=" ">
<polygon fill="white" stroke="#666666" points="312.38,-222.88 180.12,-222.88 180.12,-202.12 312.38,-202.12 312.38,-222.88"/>
<text text-anchor="middle" x="246.25" y="-209.38" font-family="Helvetica,sans-Serif" font-size="10.00">llzk/Util/StreamHelper.h</text>
</a>
</g>
</g>
<!-- Node38&#45;&gt;Node39 -->
<g id="edge45_Node000038_Node000039" class="edge">
<title>Node38&#45;&gt;Node39</title>
<g id="a_edge45_Node000038_Node000039"><a xlink:title=" ">
<path fill="none" stroke="#63b8ff" d="M320.26,-265C305,-254.39 285.04,-240.49 269.69,-229.81"/>
<polygon fill="#63b8ff" stroke="#63b8ff" points="271.81,-227.03 261.61,-224.19 267.82,-232.77 271.81,-227.03"/>
</a>
</g>
</g>
<!-- Node38&#45;&gt;Node41 -->
<g id="edge47_Node000038_Node000041" class="edge">
<title>Node38&#45;&gt;Node41</title>
<g id="a_edge47_Node000038_Node000041"><a xlink:title=" ">
<path fill="none" stroke="#63b8ff" d="M366.24,-265C381.5,-254.39 401.46,-240.49 416.81,-229.81"/>
<polygon fill="#63b8ff" stroke="#63b8ff" points="418.68,-232.77 424.89,-224.19 414.69,-227.03 418.68,-232.77"/>
</a>
</g>
</g>
<!-- Node40 -->
<g id="Node000040" class="node">
<title>Node40</title>
<g id="a_Node000040"><a xlink:title=" ">
<polygon fill="#e0e0e0" stroke="#999999" points="301.25,-153.38 147.25,-153.38 147.25,-132.62 301.25,-132.62 301.25,-153.38"/>
<text text-anchor="middle" x="224.25" y="-139.88" font-family="Helvetica,sans-Serif" font-size="10.00">llvm/Support/raw_ostream.h</text>
</a>
</g>
</g>
<!-- Node39&#45;&gt;Node40 -->
<g id="edge46_Node000039_Node000040" class="edge">
<title>Node39&#45;&gt;Node40</title>
<g id="a_edge46_Node000039_Node000040"><a xlink:title=" ">
<path fill="none" stroke="#63b8ff" d="M243.1,-201.83C239.93,-192.1 234.95,-176.82 230.9,-164.4"/>
<polygon fill="#63b8ff" stroke="#63b8ff" points="234.29,-163.52 227.87,-155.09 227.64,-165.68 234.29,-163.52"/>
</a>
</g>
</g>
<!-- Node43 -->
<g id="Node000043" class="node">
<title>Node43</title>
<g id="a_Node000043"><a xlink:title=" ">
<polygon fill="#e0e0e0" stroke="#999999" points="1758.25,-222.88 1538.25,-222.88 1538.25,-202.12 1758.25,-202.12 1758.25,-222.88"/>
<text text-anchor="middle" x="1648.25" y="-209.38" font-family="Helvetica,sans-Serif" font-size="10.00">mlir/Bytecode/BytecodeImplementation.h</text>
</a>
</g>
</g>
<!-- Node42&#45;&gt;Node43 -->
<g id="edge50_Node000042_Node000043" class="edge">
<title>Node42&#45;&gt;Node43</title>
<g id="a_edge50_Node000042_Node000043"><a xlink:title=" ">
<path fill="none" stroke="#63b8ff" d="M1240.67,-266.96C1243.57,-266.35 1246.44,-265.78 1249.25,-265.25 1256.85,-263.83 1444.89,-239.61 1560.08,-224.81"/>
<polygon fill="#63b8ff" stroke="#63b8ff" points="1560.36,-228.3 1569.83,-223.56 1559.47,-221.36 1560.36,-228.3"/>
</a>
</g>
</g>
</g>
</svg>
