<?xml version="1.0" encoding="UTF-8" standalone="no"?>
<!DOCTYPE svg PUBLIC "-//W3C//DTD SVG 1.1//EN"
 "http://www.w3.org/Graphics/SVG/1.1/DTD/svg11.dtd">
<!-- Generated by graphviz version 12.2.1 (0)
 -->
<!-- Title: include/llzk/Util/Field.h Pages: 1 -->
<svg width="2744pt" height="515pt"
 viewBox="0.00 0.00 2743.62 515.25" xmlns="http://www.w3.org/2000/svg" xmlns:xlink="http://www.w3.org/1999/xlink">
<g id="graph0" class="graph" transform="scale(1 1) rotate(0) translate(4 511.25)">
<title>include/llzk/Util/Field.h</title>
<!-- Node1 -->
<g id="Node000001" class="node">
<title>Node1</title>
<g id="a_Node000001"><a xlink:title=" ">
<polygon fill="#999999" stroke="#666666" points="1183.5,-507.25 1056.5,-507.25 1056.5,-486.5 1183.5,-486.5 1183.5,-507.25"/>
<text text-anchor="middle" x="1120" y="-493.75" font-family="Helvetica,sans-Serif" font-size="10.00">include/llzk/Util/Field.h</text>
</a>
</g>
</g>
<!-- Node2 -->
<g id="Node000002" class="node">
<title>Node2</title>
<g id="a_Node000002"><a xlink:href="IntervalAnalysis_8h.html" target="_top" xlink:title=" ">
<polygon fill="white" stroke="#666666" points="803.88,-103 688.12,-103 688.12,-69.5 803.88,-69.5 803.88,-103"/>
<text text-anchor="start" x="696.12" y="-89.5" font-family="Helvetica,sans-Serif" font-size="10.00">include/llzk/Analysis</text>
<text text-anchor="middle" x="746" y="-76.75" font-family="Helvetica,sans-Serif" font-size="10.00">/IntervalAnalysis.h</text>
</a>
</g>
</g>
<!-- Node1&#45;&gt;Node2 -->
<g id="edge1_Node000001_Node000002" class="edge">
<title>Node1&#45;&gt;Node2</title>
<g id="a_edge1_Node000001_Node000002"><a xlink:title=" ">
<path fill="none" stroke="#63b8ff" d="M1044.82,-494.69C828.33,-490.97 213.47,-478.08 127,-450.5 62.23,-429.84 0,-433.23 0,-365.25 0,-365.25 0,-365.25 0,-224.25 0,-116.06 122.63,-163.53 228,-139 391.73,-100.89 590.99,-90.84 687.72,-88.19"/>
<polygon fill="#63b8ff" stroke="#63b8ff" points="1044.48,-498.19 1054.54,-494.86 1044.6,-491.19 1044.48,-498.19"/>
</a>
</g>
</g>
<!-- Node5 -->
<g id="Node000005" class="node">
<title>Node5</title>
<g id="a_Node000005"><a xlink:href="Intervals_8h.html" target="_top" xlink:title=" ">
<polygon fill="white" stroke="#666666" points="251.88,-450.5 136.12,-450.5 136.12,-417 251.88,-417 251.88,-450.5"/>
<text text-anchor="start" x="144.12" y="-437" font-family="Helvetica,sans-Serif" font-size="10.00">include/llzk/Analysis</text>
<text text-anchor="middle" x="194" y="-424.25" font-family="Helvetica,sans-Serif" font-size="10.00">/Intervals.h</text>
</a>
</g>
</g>
<!-- Node1&#45;&gt;Node5 -->
<g id="edge4_Node000001_Node000005" class="edge">
<title>Node1&#45;&gt;Node5</title>
<g id="a_edge4_Node000001_Node000005"><a xlink:title=" ">
<path fill="none" stroke="#63b8ff" d="M1044.92,-490.92C865.27,-479.06 413.65,-449.25 252.37,-438.6"/>
<polygon fill="#63b8ff" stroke="#63b8ff" points="1044.63,-494.41 1054.84,-491.57 1045.09,-487.42 1044.63,-494.41"/>
</a>
</g>
</g>
<!-- Node7 -->
<g id="Node000007" class="node">
<title>Node7</title>
<g id="a_Node000007"><a xlink:href="Felt_2IR_2Types_8h.html" target="_top" xlink:title=" ">
<polygon fill="white" stroke="#666666" points="1174.5,-450.5 1065.5,-450.5 1065.5,-417 1174.5,-417 1174.5,-450.5"/>
<text text-anchor="start" x="1073.5" y="-437" font-family="Helvetica,sans-Serif" font-size="10.00">include/llzk/Dialect</text>
<text text-anchor="middle" x="1120" y="-424.25" font-family="Helvetica,sans-Serif" font-size="10.00">/Felt/IR/Types.h</text>
</a>
</g>
</g>
<!-- Node1&#45;&gt;Node7 -->
<g id="edge7_Node000001_Node000007" class="edge">
<title>Node1&#45;&gt;Node7</title>
<g id="a_edge7_Node000001_Node000007"><a xlink:title=" ">
<path fill="none" stroke="#63b8ff" d="M1120,-474.59C1120,-466.85 1120,-458.22 1120,-450.98"/>
<polygon fill="#63b8ff" stroke="#63b8ff" points="1116.5,-474.54 1120,-484.54 1123.5,-474.54 1116.5,-474.54"/>
</a>
</g>
</g>
<!-- Node30 -->
<g id="Node000030" class="node">
<title>Node30</title>
<g id="a_Node000030"><a xlink:href="Felt_2IR_2Dialect_8cpp.html" target="_top" xlink:title=" ">
<polygon fill="white" stroke="#666666" points="2735.62,-311.5 2636.38,-311.5 2636.38,-278 2735.62,-278 2735.62,-311.5"/>
<text text-anchor="start" x="2644.38" y="-298" font-family="Helvetica,sans-Serif" font-size="10.00">lib/Dialect/Felt/IR</text>
<text text-anchor="middle" x="2686" y="-285.25" font-family="Helvetica,sans-Serif" font-size="10.00">/Dialect.cpp</text>
</a>
</g>
</g>
<!-- Node1&#45;&gt;Node30 -->
<g id="edge55_Node000001_Node000030" class="edge">
<title>Node1&#45;&gt;Node30</title>
<g id="a_edge55_Node000001_Node000030"><a xlink:title=" ">
<path fill="none" stroke="#63b8ff" d="M1195.19,-490.24C1293.46,-482.6 1470.85,-467.91 1622,-450.5 2064.27,-399.56 2175.78,-390.01 2614,-311.5 2621.18,-310.21 2628.73,-308.72 2636.13,-307.17"/>
<polygon fill="#63b8ff" stroke="#63b8ff" points="1195.1,-486.73 1185.4,-490.99 1195.64,-493.71 1195.1,-486.73"/>
</a>
</g>
</g>
<!-- Node39 -->
<g id="Node000039" class="node">
<title>Node39</title>
<g id="a_Node000039"><a xlink:href="Field_8cpp.html" target="_top" xlink:title=" ">
<polygon fill="white" stroke="#666666" points="2035.38,-374.62 1940.62,-374.62 1940.62,-353.88 2035.38,-353.88 2035.38,-374.62"/>
<text text-anchor="middle" x="1988" y="-361.12" font-family="Helvetica,sans-Serif" font-size="10.00">lib/Util/Field.cpp</text>
</a>
</g>
</g>
<!-- Node1&#45;&gt;Node39 -->
<g id="edge56_Node000001_Node000039" class="edge">
<title>Node1&#45;&gt;Node39</title>
<g id="a_edge56_Node000001_Node000039"><a xlink:title=" ">
<path fill="none" stroke="#63b8ff" d="M1195.21,-488C1338.45,-472.38 1659.97,-434.31 1927,-381 1935.37,-379.33 1944.3,-377.22 1952.67,-375.08"/>
<polygon fill="#63b8ff" stroke="#63b8ff" points="1195.03,-484.5 1185.47,-489.06 1195.79,-491.46 1195.03,-484.5"/>
</a>
</g>
</g>
<!-- Node3 -->
<g id="Node000003" class="node">
<title>Node3</title>
<g id="a_Node000003"><a xlink:href="IntervalAnalysis_8cpp.html" target="_top" xlink:title=" ">
<polygon fill="white" stroke="#666666" points="924.12,-27.12 749.88,-27.12 749.88,-6.38 924.12,-6.38 924.12,-27.12"/>
<text text-anchor="middle" x="837" y="-13.62" font-family="Helvetica,sans-Serif" font-size="10.00">lib/Analysis/IntervalAnalysis.cpp</text>
</a>
</g>
</g>
<!-- Node2&#45;&gt;Node3 -->
<g id="edge2_Node000002_Node000003" class="edge">
<title>Node2&#45;&gt;Node3</title>
<g id="a_edge2_Node000002_Node000003"><a xlink:title=" ">
<path fill="none" stroke="#63b8ff" d="M776.61,-62.54C792.65,-50.65 811.45,-36.7 823.76,-27.57"/>
<polygon fill="#63b8ff" stroke="#63b8ff" points="774.73,-59.58 768.78,-68.35 778.9,-65.21 774.73,-59.58"/>
</a>
</g>
</g>
<!-- Node4 -->
<g id="Node000004" class="node">
<title>Node4</title>
<g id="a_Node000004"><a xlink:href="IntervalAnalysisPass_8cpp.html" target="_top" xlink:title="This file implements the &#45;llzk&#45;print&#45;interval&#45;analysis pass.">
<polygon fill="white" stroke="#666666" points="450,-33.5 296,-33.5 296,0 450,0 450,-33.5"/>
<text text-anchor="start" x="304" y="-20" font-family="Helvetica,sans-Serif" font-size="10.00">lib/Analysis/IntervalAnalysis</text>
<text text-anchor="middle" x="373" y="-7.25" font-family="Helvetica,sans-Serif" font-size="10.00">Pass.cpp</text>
</a>
</g>
</g>
<!-- Node2&#45;&gt;Node4 -->
<g id="edge3_Node000002_Node000004" class="edge">
<title>Node2&#45;&gt;Node4</title>
<g id="a_edge3_Node000002_Node000004"><a xlink:title=" ">
<path fill="none" stroke="#63b8ff" d="M676.49,-72.67C612.24,-61.04 516.91,-43.79 450.29,-31.74"/>
<polygon fill="#63b8ff" stroke="#63b8ff" points="675.77,-76.1 686.23,-74.43 677.01,-69.21 675.77,-76.1"/>
</a>
</g>
</g>
<!-- Node5&#45;&gt;Node2 -->
<g id="edge5_Node000005_Node000002" class="edge">
<title>Node5&#45;&gt;Node2</title>
<g id="a_edge5_Node000005_Node000002"><a xlink:title=" ">
<path fill="none" stroke="#63b8ff" d="M194,-405.23C194,-377.57 194,-333.7 194,-295.75 194,-295.75 194,-295.75 194,-224.25 194,-123.35 545.82,-96.24 687.71,-89.41"/>
<polygon fill="#63b8ff" stroke="#63b8ff" points="190.5,-405.21 194,-415.21 197.5,-405.21 190.5,-405.21"/>
</a>
</g>
</g>
<!-- Node6 -->
<g id="Node000006" class="node">
<title>Node6</title>
<g id="a_Node000006"><a xlink:href="Intervals_8cpp.html" target="_top" xlink:title=" ">
<polygon fill="white" stroke="#666666" points="166.12,-374.62 27.88,-374.62 27.88,-353.88 166.12,-353.88 166.12,-374.62"/>
<text text-anchor="middle" x="97" y="-361.12" font-family="Helvetica,sans-Serif" font-size="10.00">lib/Analysis/Intervals.cpp</text>
</a>
</g>
</g>
<!-- Node5&#45;&gt;Node6 -->
<g id="edge6_Node000005_Node000006" class="edge">
<title>Node5&#45;&gt;Node6</title>
<g id="a_edge6_Node000005_Node000006"><a xlink:title=" ">
<path fill="none" stroke="#63b8ff" d="M161.85,-410.37C144.65,-398.41 124.36,-384.29 111.11,-375.07"/>
<polygon fill="#63b8ff" stroke="#63b8ff" points="159.56,-413.05 169.77,-415.89 163.56,-407.3 159.56,-413.05"/>
</a>
</g>
</g>
<!-- Node8 -->
<g id="Node000008" class="node">
<title>Node8</title>
<g id="a_Node000008"><a xlink:href="Bool_2IR_2Ops_8h.html" target="_top" xlink:title=" ">
<polygon fill="white" stroke="#666666" points="602.5,-381 493.5,-381 493.5,-347.5 602.5,-347.5 602.5,-381"/>
<text text-anchor="start" x="501.5" y="-367.5" font-family="Helvetica,sans-Serif" font-size="10.00">include/llzk/Dialect</text>
<text text-anchor="middle" x="548" y="-354.75" font-family="Helvetica,sans-Serif" font-size="10.00">/Bool/IR/Ops.h</text>
</a>
</g>
</g>
<!-- Node7&#45;&gt;Node8 -->
<g id="edge8_Node000007_Node000008" class="edge">
<title>Node7&#45;&gt;Node8</title>
<g id="a_edge8_Node000007_Node000008"><a xlink:title=" ">
<path fill="none" stroke="#63b8ff" d="M1053.74,-425.88C964.29,-416.47 799.97,-398.71 660,-381 641.4,-378.65 621.09,-375.86 602.93,-373.28"/>
<polygon fill="#63b8ff" stroke="#63b8ff" points="1053.25,-429.35 1063.56,-426.91 1053.98,-422.38 1053.25,-429.35"/>
</a>
</g>
</g>
<!-- Node10 -->
<g id="Node000010" class="node">
<title>Node10</title>
<g id="a_Node000010"><a xlink:href="Bool_2IR_2Dialect_8cpp.html" target="_top" xlink:title=" ">
<polygon fill="white" stroke="#666666" points="858.5,-311.5 755.5,-311.5 755.5,-278 858.5,-278 858.5,-311.5"/>
<text text-anchor="start" x="763.5" y="-298" font-family="Helvetica,sans-Serif" font-size="10.00">lib/Dialect/Bool/IR</text>
<text text-anchor="middle" x="807" y="-285.25" font-family="Helvetica,sans-Serif" font-size="10.00">/Dialect.cpp</text>
</a>
</g>
</g>
<!-- Node7&#45;&gt;Node10 -->
<g id="edge48_Node000007_Node000010" class="edge">
<title>Node7&#45;&gt;Node10</title>
<g id="a_edge48_Node000007_Node000010"><a xlink:title=" ">
<path fill="none" stroke="#63b8ff" d="M1053.7,-429.47C939.71,-423.15 716.49,-407.51 693,-381 683.13,-369.86 684.94,-360.02 693,-347.5 700.77,-335.44 730.84,-322.06 758.14,-311.92"/>
<polygon fill="#63b8ff" stroke="#63b8ff" points="1053.36,-432.96 1063.54,-430.01 1053.74,-425.97 1053.36,-432.96"/>
</a>
</g>
</g>
<!-- Node13 -->
<g id="Node000013" class="node">
<title>Node13</title>
<g id="a_Node000013"><a xlink:href="Cast_2IR_2Ops_8h.html" target="_top" xlink:title=" ">
<polygon fill="white" stroke="#666666" points="1309.5,-381 1200.5,-381 1200.5,-347.5 1309.5,-347.5 1309.5,-381"/>
<text text-anchor="start" x="1208.5" y="-367.5" font-family="Helvetica,sans-Serif" font-size="10.00">include/llzk/Dialect</text>
<text text-anchor="middle" x="1255" y="-354.75" font-family="Helvetica,sans-Serif" font-size="10.00">/Cast/IR/Ops.h</text>
</a>
</g>
</g>
<!-- Node7&#45;&gt;Node13 -->
<g id="edge15_Node000007_Node000013" class="edge">
<title>Node7&#45;&gt;Node13</title>
<g id="a_edge15_Node000007_Node000013"><a xlink:title=" ">
<path fill="none" stroke="#63b8ff" d="M1162.51,-411.49C1182.06,-401.72 1204.86,-390.32 1222.93,-381.29"/>
<polygon fill="#63b8ff" stroke="#63b8ff" points="1161.07,-408.3 1153.69,-415.91 1164.2,-414.56 1161.07,-408.3"/>
</a>
</g>
</g>
<!-- Node17 -->
<g id="Node000017" class="node">
<title>Node17</title>
<g id="a_Node000017"><a xlink:href="Felt_2IR_2Ops_8h.html" target="_top" xlink:title=" ">
<polygon fill="white" stroke="#666666" points="1884.5,-381 1775.5,-381 1775.5,-347.5 1884.5,-347.5 1884.5,-381"/>
<text text-anchor="start" x="1783.5" y="-367.5" font-family="Helvetica,sans-Serif" font-size="10.00">include/llzk/Dialect</text>
<text text-anchor="middle" x="1830" y="-354.75" font-family="Helvetica,sans-Serif" font-size="10.00">/Felt/IR/Ops.h</text>
</a>
</g>
</g>
<!-- Node7&#45;&gt;Node17 -->
<g id="edge20_Node000007_Node000017" class="edge">
<title>Node7&#45;&gt;Node17</title>
<g id="a_edge20_Node000007_Node000017"><a xlink:title=" ">
<path fill="none" stroke="#63b8ff" d="M1186.14,-426.46C1325.43,-413.22 1646.74,-382.67 1775.34,-370.45"/>
<polygon fill="#63b8ff" stroke="#63b8ff" points="1185.96,-422.96 1176.33,-427.39 1186.62,-429.93 1185.96,-422.96"/>
</a>
</g>
</g>
<!-- Node29 -->
<g id="Node000029" class="node">
<title>Node29</title>
<g id="a_Node000029"><a xlink:href="Felt_8cpp.html" target="_top" xlink:title=" ">
<polygon fill="white" stroke="#666666" points="1444.12,-305.12 1311.88,-305.12 1311.88,-284.38 1444.12,-284.38 1444.12,-305.12"/>
<text text-anchor="middle" x="1378" y="-291.62" font-family="Helvetica,sans-Serif" font-size="10.00">lib/CAPI/Dialect/Felt.cpp</text>
</a>
</g>
</g>
<!-- Node7&#45;&gt;Node29 -->
<g id="edge47_Node000007_Node000029" class="edge">
<title>Node7&#45;&gt;Node29</title>
<g id="a_edge47_Node000007_Node000029"><a xlink:title=" ">
<path fill="none" stroke="#63b8ff" d="M1186.3,-427.29C1227.53,-421.19 1279.95,-408.29 1319,-381 1347.33,-361.21 1366.35,-323.15 1374.09,-305.36"/>
<polygon fill="#63b8ff" stroke="#63b8ff" points="1185.92,-423.81 1176.49,-428.63 1186.87,-430.74 1185.92,-423.81"/>
</a>
</g>
</g>
<!-- Node7&#45;&gt;Node30 -->
<g id="edge50_Node000007_Node000030" class="edge">
<title>Node7&#45;&gt;Node30</title>
<g id="a_edge50_Node000007_Node000030"><a xlink:title=" ">
<path fill="none" stroke="#63b8ff" d="M1186.27,-429.48C1367.76,-420.38 1861.57,-394.51 1894,-381 1914.78,-372.34 1911.15,-356 1932,-347.5 2074.17,-289.5 2470.11,-333.95 2622,-311.5 2626.64,-310.81 2631.44,-309.94 2636.22,-308.97"/>
<polygon fill="#63b8ff" stroke="#63b8ff" points="1186.1,-425.99 1176.28,-429.98 1186.45,-432.98 1186.1,-425.99"/>
</a>
</g>
</g>
<!-- Node36 -->
<g id="Node000036" class="node">
<title>Node36</title>
<g id="a_Node000036"><a xlink:href="Felt_2IR_2Attrs_8cpp.html" target="_top" xlink:title=" ">
<polygon fill="white" stroke="#666666" points="801.62,-381 702.38,-381 702.38,-347.5 801.62,-347.5 801.62,-381"/>
<text text-anchor="start" x="710.38" y="-367.5" font-family="Helvetica,sans-Serif" font-size="10.00">lib/Dialect/Felt/IR</text>
<text text-anchor="middle" x="752" y="-354.75" font-family="Helvetica,sans-Serif" font-size="10.00">/Attrs.cpp</text>
</a>
</g>
</g>
<!-- Node7&#45;&gt;Node36 -->
<g id="edge49_Node000007_Node000036" class="edge">
<title>Node7&#45;&gt;Node36</title>
<g id="a_edge49_Node000007_Node000036"><a xlink:title=" ">
<path fill="none" stroke="#63b8ff" d="M1053.73,-423.64C990.71,-414.52 893.43,-399.24 810,-381 807.35,-380.42 804.64,-379.8 801.91,-379.14"/>
<polygon fill="#63b8ff" stroke="#63b8ff" points="1053.19,-427.1 1063.59,-425.06 1054.19,-420.17 1053.19,-427.1"/>
</a>
</g>
</g>
<!-- Node37 -->
<g id="Node000037" class="node">
<title>Node37</title>
<g id="a_Node000037"><a xlink:href="LLZK_2IR_2Dialect_8cpp.html" target="_top" xlink:title=" ">
<polygon fill="white" stroke="#666666" points="924.62,-381 819.38,-381 819.38,-347.5 924.62,-347.5 924.62,-381"/>
<text text-anchor="start" x="827.38" y="-367.5" font-family="Helvetica,sans-Serif" font-size="10.00">lib/Dialect/LLZK/IR</text>
<text text-anchor="middle" x="872" y="-354.75" font-family="Helvetica,sans-Serif" font-size="10.00">/Dialect.cpp</text>
</a>
</g>
</g>
<!-- Node7&#45;&gt;Node37 -->
<g id="edge51_Node000007_Node000037" class="edge">
<title>Node7&#45;&gt;Node37</title>
<g id="a_edge51_Node000007_Node000037"><a xlink:title=" ">
<path fill="none" stroke="#63b8ff" d="M1054.17,-414.83C1013.75,-403.83 962.67,-389.93 924.89,-379.65"/>
<polygon fill="#63b8ff" stroke="#63b8ff" points="1053.24,-418.21 1063.81,-417.46 1055.08,-411.45 1053.24,-418.21"/>
</a>
</g>
</g>
<!-- Node38 -->
<g id="Node000038" class="node">
<title>Node38</title>
<g id="a_Node000038"><a xlink:href="Struct_2IR_2Ops_8cpp.html" target="_top" xlink:title=" ">
<polygon fill="white" stroke="#666666" points="1039.5,-381 942.5,-381 942.5,-347.5 1039.5,-347.5 1039.5,-381"/>
<text text-anchor="start" x="950.5" y="-367.5" font-family="Helvetica,sans-Serif" font-size="10.00">lib/Dialect/Struct</text>
<text text-anchor="middle" x="991" y="-354.75" font-family="Helvetica,sans-Serif" font-size="10.00">/IR/Ops.cpp</text>
</a>
</g>
</g>
<!-- Node7&#45;&gt;Node38 -->
<g id="edge52_Node000007_Node000038" class="edge">
<title>Node7&#45;&gt;Node38</title>
<g id="a_edge52_Node000007_Node000038"><a xlink:title=" ">
<path fill="none" stroke="#63b8ff" d="M1079.12,-411.36C1060.5,-401.62 1038.84,-390.28 1021.65,-381.29"/>
<polygon fill="#63b8ff" stroke="#63b8ff" points="1077.28,-414.35 1087.76,-415.88 1080.52,-408.14 1077.28,-414.35"/>
</a>
</g>
</g>
<!-- Node7&#45;&gt;Node39 -->
<g id="edge53_Node000007_Node000039" class="edge">
<title>Node7&#45;&gt;Node39</title>
<g id="a_edge53_Node000007_Node000039"><a xlink:title=" ">
<path fill="none" stroke="#63b8ff" d="M1186.01,-430.12C1352.21,-423.26 1784.79,-403.71 1927,-381 1936.07,-379.55 1945.76,-377.36 1954.68,-375.06"/>
<polygon fill="#63b8ff" stroke="#63b8ff" points="1186.34,-426.61 1176.5,-430.52 1186.63,-433.6 1186.34,-426.61"/>
</a>
</g>
</g>
<!-- Node40 -->
<g id="Node000040" class="node">
<title>Node40</title>
<g id="a_Node000040"><a xlink:href="TypeHelper_8cpp.html" target="_top" xlink:title=" ">
<polygon fill="white" stroke="#666666" points="1182.75,-374.62 1057.25,-374.62 1057.25,-353.88 1182.75,-353.88 1182.75,-374.62"/>
<text text-anchor="middle" x="1120" y="-361.12" font-family="Helvetica,sans-Serif" font-size="10.00">lib/Util/TypeHelper.cpp</text>
</a>
</g>
</g>
<!-- Node7&#45;&gt;Node40 -->
<g id="edge54_Node000007_Node000040" class="edge">
<title>Node7&#45;&gt;Node40</title>
<g id="a_edge54_Node000007_Node000040"><a xlink:title=" ">
<path fill="none" stroke="#63b8ff" d="M1120,-405.28C1120,-394.58 1120,-383.01 1120,-375.07"/>
<polygon fill="#63b8ff" stroke="#63b8ff" points="1116.5,-405.24 1120,-415.24 1123.5,-405.24 1116.5,-405.24"/>
</a>
</g>
</g>
<!-- Node8&#45;&gt;Node2 -->
<g id="edge9_Node000008_Node000002" class="edge">
<title>Node8&#45;&gt;Node2</title>
<g id="a_edge9_Node000008_Node000002"><a xlink:title=" ">
<path fill="none" stroke="#63b8ff" d="M481.75,-363.94C390.26,-362.36 241.55,-349.22 289,-278 379.33,-142.41 586.34,-103.04 687.79,-91.73"/>
<polygon fill="#63b8ff" stroke="#63b8ff" points="481.6,-367.44 491.64,-364.06 481.69,-360.44 481.6,-367.44"/>
</a>
</g>
</g>
<!-- Node8&#45;&gt;Node4 -->
<g id="edge10_Node000008_Node000004" class="edge">
<title>Node8&#45;&gt;Node4</title>
<g id="a_edge10_Node000008_Node000004"><a xlink:title=" ">
<path fill="none" stroke="#63b8ff" d="M481.75,-357.31C411.96,-349.91 307.84,-335.26 276,-311.5 241.83,-286 232,-268.89 232,-226.25 232,-226.25 232,-226.25 232,-154.75 232,-96.56 294.54,-55.11 336.32,-33.91"/>
<polygon fill="#63b8ff" stroke="#63b8ff" points="481.26,-360.78 491.56,-358.33 481.98,-353.82 481.26,-360.78"/>
</a>
</g>
</g>
<!-- Node9 -->
<g id="Node000009" class="node">
<title>Node9</title>
<g id="a_Node000009"><a xlink:href="Bool_8cpp.html" target="_top" xlink:title=" ">
<polygon fill="white" stroke="#666666" points="616,-305.12 480,-305.12 480,-284.38 616,-284.38 616,-305.12"/>
<text text-anchor="middle" x="548" y="-291.62" font-family="Helvetica,sans-Serif" font-size="10.00">lib/CAPI/Dialect/Bool.cpp</text>
</a>
</g>
</g>
<!-- Node8&#45;&gt;Node9 -->
<g id="edge11_Node000008_Node000009" class="edge">
<title>Node8&#45;&gt;Node9</title>
<g id="a_edge11_Node000008_Node000009"><a xlink:title=" ">
<path fill="none" stroke="#63b8ff" d="M548,-335.78C548,-325.08 548,-313.51 548,-305.57"/>
<polygon fill="#63b8ff" stroke="#63b8ff" points="544.5,-335.74 548,-345.74 551.5,-335.74 544.5,-335.74"/>
</a>
</g>
</g>
<!-- Node8&#45;&gt;Node10 -->
<g id="edge12_Node000008_Node000010" class="edge">
<title>Node8&#45;&gt;Node10</title>
<g id="a_edge12_Node000008_Node000010"><a xlink:title=" ">
<path fill="none" stroke="#63b8ff" d="M614.04,-346.12C652.78,-336.06 702.68,-323.08 747,-311.5 749.71,-310.79 752.49,-310.07 755.29,-309.33"/>
<polygon fill="#63b8ff" stroke="#63b8ff" points="613.18,-342.72 604.38,-348.63 614.94,-349.5 613.18,-342.72"/>
</a>
</g>
</g>
<!-- Node11 -->
<g id="Node000011" class="node">
<title>Node11</title>
<g id="a_Node000011"><a xlink:href="Bool_2IR_2Ops_8cpp.html" target="_top" xlink:title=" ">
<polygon fill="white" stroke="#666666" points="737.5,-311.5 634.5,-311.5 634.5,-278 737.5,-278 737.5,-311.5"/>
<text text-anchor="start" x="642.5" y="-298" font-family="Helvetica,sans-Serif" font-size="10.00">lib/Dialect/Bool/IR</text>
<text text-anchor="middle" x="686" y="-285.25" font-family="Helvetica,sans-Serif" font-size="10.00">/Ops.cpp</text>
</a>
</g>
</g>
<!-- Node8&#45;&gt;Node11 -->
<g id="edge13_Node000008_Node000011" class="edge">
<title>Node8&#45;&gt;Node11</title>
<g id="a_edge13_Node000008_Node000011"><a xlink:title=" ">
<path fill="none" stroke="#63b8ff" d="M591.18,-342.13C611.22,-332.33 634.66,-320.86 653.22,-311.79"/>
<polygon fill="#63b8ff" stroke="#63b8ff" points="589.86,-338.88 582.41,-346.42 592.93,-345.17 589.86,-338.88"/>
</a>
</g>
</g>
<!-- Node12 -->
<g id="Node000012" class="node">
<title>Node12</title>
<g id="a_Node000012"><a xlink:href="LLZKRedundantOperationEliminationPass_8cpp.html" target="_top" xlink:title="This file implements the &#45;llzk&#45;duplicate&#45;op&#45;elim pass.">
<polygon fill="white" stroke="#666666" points="462.25,-311.5 297.75,-311.5 297.75,-278 462.25,-278 462.25,-311.5"/>
<text text-anchor="start" x="305.75" y="-298" font-family="Helvetica,sans-Serif" font-size="10.00">lib/Transforms/LLZKRedundant</text>
<text text-anchor="middle" x="380" y="-285.25" font-family="Helvetica,sans-Serif" font-size="10.00">OperationEliminationPass.cpp</text>
</a>
</g>
</g>
<!-- Node8&#45;&gt;Node12 -->
<g id="edge14_Node000008_Node000012" class="edge">
<title>Node8&#45;&gt;Node12</title>
<g id="a_edge14_Node000008_Node000012"><a xlink:title=" ">
<path fill="none" stroke="#63b8ff" d="M497.14,-342.82C472.48,-332.91 443.28,-321.18 420.2,-311.9"/>
<polygon fill="#63b8ff" stroke="#63b8ff" points="495.77,-346.04 506.36,-346.52 498.38,-339.54 495.77,-346.04"/>
</a>
</g>
</g>
<!-- Node13&#45;&gt;Node2 -->
<g id="edge16_Node000013_Node000002" class="edge">
<title>Node13&#45;&gt;Node2</title>
<g id="a_edge16_Node000013_Node000002"><a xlink:title=" ">
<path fill="none" stroke="#63b8ff" d="M1188.92,-347.16C1063.19,-326.84 1012.89,-375.3 906,-311.5 862.68,-285.64 782.07,-150.07 755.08,-103.2"/>
<polygon fill="#63b8ff" stroke="#63b8ff" points="1188.17,-350.58 1198.62,-348.86 1189.37,-343.69 1188.17,-350.58"/>
</a>
</g>
</g>
<!-- Node14 -->
<g id="Node000014" class="node">
<title>Node14</title>
<g id="a_Node000014"><a xlink:href="Cast_8cpp.html" target="_top" xlink:title=" ">
<polygon fill="white" stroke="#666666" points="1051,-305.12 915,-305.12 915,-284.38 1051,-284.38 1051,-305.12"/>
<text text-anchor="middle" x="983" y="-291.62" font-family="Helvetica,sans-Serif" font-size="10.00">lib/CAPI/Dialect/Cast.cpp</text>
</a>
</g>
</g>
<!-- Node13&#45;&gt;Node14 -->
<g id="edge17_Node000013_Node000014" class="edge">
<title>Node13&#45;&gt;Node14</title>
<g id="a_edge17_Node000013_Node000014"><a xlink:title=" ">
<path fill="none" stroke="#63b8ff" d="M1189.03,-346.76C1125.66,-331.01 1062.43,-315.37 1022.68,-305.55"/>
<polygon fill="#63b8ff" stroke="#63b8ff" points="1188.01,-350.12 1198.56,-349.13 1189.7,-343.32 1188.01,-350.12"/>
</a>
</g>
</g>
<!-- Node15 -->
<g id="Node000015" class="node">
<title>Node15</title>
<g id="a_Node000015"><a xlink:href="Cast_2IR_2Dialect_8cpp.html" target="_top" xlink:title=" ">
<polygon fill="white" stroke="#666666" points="1172.5,-311.5 1069.5,-311.5 1069.5,-278 1172.5,-278 1172.5,-311.5"/>
<text text-anchor="start" x="1077.5" y="-298" font-family="Helvetica,sans-Serif" font-size="10.00">lib/Dialect/Cast/IR</text>
<text text-anchor="middle" x="1121" y="-285.25" font-family="Helvetica,sans-Serif" font-size="10.00">/Dialect.cpp</text>
</a>
</g>
</g>
<!-- Node13&#45;&gt;Node15 -->
<g id="edge18_Node000013_Node000015" class="edge">
<title>Node13&#45;&gt;Node15</title>
<g id="a_edge18_Node000013_Node000015"><a xlink:title=" ">
<path fill="none" stroke="#63b8ff" d="M1212.8,-341.99C1193.4,-332.22 1170.77,-320.82 1152.83,-311.79"/>
<polygon fill="#63b8ff" stroke="#63b8ff" points="1211.05,-345.03 1221.55,-346.4 1214.2,-338.78 1211.05,-345.03"/>
</a>
</g>
</g>
<!-- Node16 -->
<g id="Node000016" class="node">
<title>Node16</title>
<g id="a_Node000016"><a xlink:href="Cast_2IR_2Ops_8cpp.html" target="_top" xlink:title=" ">
<polygon fill="white" stroke="#666666" points="1293.5,-311.5 1190.5,-311.5 1190.5,-278 1293.5,-278 1293.5,-311.5"/>
<text text-anchor="start" x="1198.5" y="-298" font-family="Helvetica,sans-Serif" font-size="10.00">lib/Dialect/Cast/IR</text>
<text text-anchor="middle" x="1242" y="-285.25" font-family="Helvetica,sans-Serif" font-size="10.00">/Ops.cpp</text>
</a>
</g>
</g>
<!-- Node13&#45;&gt;Node16 -->
<g id="edge19_Node000013_Node000016" class="edge">
<title>Node13&#45;&gt;Node16</title>
<g id="a_edge19_Node000013_Node000016"><a xlink:title=" ">
<path fill="none" stroke="#63b8ff" d="M1249.77,-336.1C1248.17,-327.79 1246.46,-318.93 1245.06,-311.63"/>
<polygon fill="#63b8ff" stroke="#63b8ff" points="1246.3,-336.61 1251.63,-345.77 1253.18,-335.29 1246.3,-336.61"/>
</a>
</g>
</g>
<!-- Node17&#45;&gt;Node2 -->
<g id="edge21_Node000017_Node000002" class="edge">
<title>Node17&#45;&gt;Node2</title>
<g id="a_edge21_Node000017_Node000002"><a xlink:title=" ">
<path fill="none" stroke="#63b8ff" d="M1763.78,-357.6C1679.21,-349.63 1538.19,-333.54 1491,-311.5 1470.6,-301.97 1472.83,-288.66 1453,-278 1231.26,-158.86 929.59,-109.91 804.28,-93.84"/>
<polygon fill="#63b8ff" stroke="#63b8ff" points="1763.28,-361.07 1773.56,-358.51 1763.92,-354.1 1763.28,-361.07"/>
</a>
</g>
</g>
<!-- Node18 -->
<g id="Node000018" class="node">
<title>Node18</title>
<g id="a_Node000018"><a xlink:href="Matchers_8h.html" target="_top" xlink:title=" ">
<polygon fill="white" stroke="#666666" points="2713.88,-172.5 2598.12,-172.5 2598.12,-139 2713.88,-139 2713.88,-172.5"/>
<text text-anchor="start" x="2606.12" y="-159" font-family="Helvetica,sans-Serif" font-size="10.00">include/llzk/Analysis</text>
<text text-anchor="middle" x="2656" y="-146.25" font-family="Helvetica,sans-Serif" font-size="10.00">/Matchers.h</text>
</a>
</g>
</g>
<!-- Node17&#45;&gt;Node18 -->
<g id="edge22_Node000017_Node000018" class="edge">
<title>Node17&#45;&gt;Node18</title>
<g id="a_edge22_Node000017_Node000018"><a xlink:title=" ">
<path fill="none" stroke="#63b8ff" d="M1896.15,-347.05C2007.76,-337 2522.43,-353.04 2584,-311.5 2632.14,-279.02 2648.77,-205.56 2653.92,-172.91"/>
<polygon fill="#63b8ff" stroke="#63b8ff" points="1895.87,-343.56 1886.34,-348.2 1896.68,-350.51 1895.87,-343.56"/>
</a>
</g>
</g>
<!-- Node19 -->
<g id="Node000019" class="node">
<title>Node19</title>
<g id="a_Node000019"><a xlink:href="SourceRef_8h.html" target="_top" xlink:title=" ">
<polygon fill="white" stroke="#666666" points="1615.88,-311.5 1500.12,-311.5 1500.12,-278 1615.88,-278 1615.88,-311.5"/>
<text text-anchor="start" x="1508.12" y="-298" font-family="Helvetica,sans-Serif" font-size="10.00">include/llzk/Analysis</text>
<text text-anchor="middle" x="1558" y="-285.25" font-family="Helvetica,sans-Serif" font-size="10.00">/SourceRef.h</text>
</a>
</g>
</g>
<!-- Node17&#45;&gt;Node19 -->
<g id="edge24_Node000017_Node000019" class="edge">
<title>Node17&#45;&gt;Node19</title>
<g id="a_edge24_Node000017_Node000019"><a xlink:title=" ">
<path fill="none" stroke="#63b8ff" d="M1764.39,-346.97C1719.11,-335.73 1659.44,-320.92 1615.92,-310.12"/>
<polygon fill="#63b8ff" stroke="#63b8ff" points="1763.27,-350.3 1773.81,-349.31 1764.95,-343.5 1763.27,-350.3"/>
</a>
</g>
</g>
<!-- Node23 -->
<g id="Node000023" class="node">
<title>Node23</title>
<g id="a_Node000023"><a xlink:href="SourceRefLattice_8cpp.html" target="_top" xlink:title=" ">
<polygon fill="white" stroke="#666666" points="1891,-96.62 1713,-96.62 1713,-75.88 1891,-75.88 1891,-96.62"/>
<text text-anchor="middle" x="1802" y="-83.12" font-family="Helvetica,sans-Serif" font-size="10.00">lib/Analysis/SourceRefLattice.cpp</text>
</a>
</g>
</g>
<!-- Node17&#45;&gt;Node23 -->
<g id="edge39_Node000017_Node000023" class="edge">
<title>Node17&#45;&gt;Node23</title>
<g id="a_edge39_Node000017_Node000023"><a xlink:title=" ">
<path fill="none" stroke="#63b8ff" d="M1896.01,-347.12C2003.93,-338.23 2502.4,-362.82 2551,-311.5 2561.24,-300.69 2560.14,-289.76 2551,-278 2507.28,-221.75 2020.62,-127.55 1856.03,-97.08"/>
<polygon fill="#63b8ff" stroke="#63b8ff" points="1895.89,-343.61 1886.34,-348.21 1896.67,-350.57 1895.89,-343.61"/>
</a>
</g>
</g>
<!-- Node26 -->
<g id="Node000026" class="node">
<title>Node26</title>
<g id="a_Node000026"><a xlink:href="LLZKLoweringUtils_8h.html" target="_top" xlink:title=" ">
<polygon fill="white" stroke="#666666" points="1762.25,-311.5 1633.75,-311.5 1633.75,-278 1762.25,-278 1762.25,-311.5"/>
<text text-anchor="start" x="1641.75" y="-298" font-family="Helvetica,sans-Serif" font-size="10.00">include/llzk/Transforms</text>
<text text-anchor="middle" x="1698" y="-285.25" font-family="Helvetica,sans-Serif" font-size="10.00">/LLZKLoweringUtils.h</text>
</a>
</g>
</g>
<!-- Node17&#45;&gt;Node26 -->
<g id="edge35_Node000017_Node000026" class="edge">
<title>Node17&#45;&gt;Node26</title>
<g id="a_edge35_Node000017_Node000026"><a xlink:title=" ">
<path fill="none" stroke="#63b8ff" d="M1788.17,-341.86C1769.12,-332.12 1746.95,-320.78 1729.36,-311.79"/>
<polygon fill="#63b8ff" stroke="#63b8ff" points="1786.54,-344.96 1797.04,-346.39 1789.73,-338.72 1786.54,-344.96"/>
</a>
</g>
</g>
<!-- Node17&#45;&gt;Node29 -->
<g id="edge40_Node000017_Node000029" class="edge">
<title>Node17&#45;&gt;Node29</title>
<g id="a_edge40_Node000017_Node000029"><a xlink:title=" ">
<path fill="none" stroke="#63b8ff" d="M1763.95,-355.2C1689.44,-345.85 1564.73,-329.42 1458,-311.5 1447.53,-309.74 1436.33,-307.66 1425.72,-305.6"/>
<polygon fill="#63b8ff" stroke="#63b8ff" points="1763.16,-358.63 1773.51,-356.39 1764.03,-351.68 1763.16,-358.63"/>
</a>
</g>
</g>
<!-- Node17&#45;&gt;Node30 -->
<g id="edge41_Node000017_Node000030" class="edge">
<title>Node17&#45;&gt;Node30</title>
<g id="a_edge41_Node000017_Node000030"><a xlink:title=" ">
<path fill="none" stroke="#63b8ff" d="M1895.95,-347.94C1896.97,-347.79 1897.99,-347.64 1899,-347.5 2217.71,-303.53 2303.67,-358.15 2622,-311.5 2626.64,-310.82 2631.44,-309.95 2636.22,-308.98"/>
<polygon fill="#63b8ff" stroke="#63b8ff" points="1895.59,-344.45 1886.32,-349.57 1896.76,-351.35 1895.59,-344.45"/>
</a>
</g>
</g>
<!-- Node31 -->
<g id="Node000031" class="node">
<title>Node31</title>
<g id="a_Node000031"><a xlink:href="Felt_2IR_2Ops_8cpp.html" target="_top" xlink:title=" ">
<polygon fill="white" stroke="#666666" points="1879.62,-311.5 1780.38,-311.5 1780.38,-278 1879.62,-278 1879.62,-311.5"/>
<text text-anchor="start" x="1788.38" y="-298" font-family="Helvetica,sans-Serif" font-size="10.00">lib/Dialect/Felt/IR</text>
<text text-anchor="middle" x="1830" y="-285.25" font-family="Helvetica,sans-Serif" font-size="10.00">/Ops.cpp</text>
</a>
</g>
</g>
<!-- Node17&#45;&gt;Node31 -->
<g id="edge42_Node000017_Node000031" class="edge">
<title>Node17&#45;&gt;Node31</title>
<g id="a_edge42_Node000017_Node000031"><a xlink:title=" ">
<path fill="none" stroke="#63b8ff" d="M1830,-335.81C1830,-327.59 1830,-318.84 1830,-311.63"/>
<polygon fill="#63b8ff" stroke="#63b8ff" points="1826.5,-335.74 1830,-345.74 1833.5,-335.74 1826.5,-335.74"/>
</a>
</g>
</g>
<!-- Node32 -->
<g id="Node000032" class="node">
<title>Node32</title>
<g id="a_Node000032"><a xlink:href="Global_2IR_2Ops_8cpp.html" target="_top" xlink:title=" ">
<polygon fill="white" stroke="#666666" points="1998,-311.5 1898,-311.5 1898,-278 1998,-278 1998,-311.5"/>
<text text-anchor="start" x="1906" y="-298" font-family="Helvetica,sans-Serif" font-size="10.00">lib/Dialect/Global</text>
<text text-anchor="middle" x="1948" y="-285.25" font-family="Helvetica,sans-Serif" font-size="10.00">/IR/Ops.cpp</text>
</a>
</g>
</g>
<!-- Node17&#45;&gt;Node32 -->
<g id="edge43_Node000017_Node000032" class="edge">
<title>Node17&#45;&gt;Node32</title>
<g id="a_edge43_Node000017_Node000032"><a xlink:title=" ">
<path fill="none" stroke="#63b8ff" d="M1867.87,-341.59C1884.79,-331.91 1904.39,-320.7 1919.97,-311.79"/>
<polygon fill="#63b8ff" stroke="#63b8ff" points="1866.52,-338.33 1859.58,-346.33 1870,-344.4 1866.52,-338.33"/>
</a>
</g>
</g>
<!-- Node33 -->
<g id="Node000033" class="node">
<title>Node33</title>
<g id="a_Node000033"><a xlink:href="FlatteningPass_8cpp.html" target="_top" xlink:title="This file implements the &#45;llzk&#45;flatten pass.">
<polygon fill="white" stroke="#666666" points="2183.75,-311.5 2016.25,-311.5 2016.25,-278 2183.75,-278 2183.75,-311.5"/>
<text text-anchor="start" x="2024.25" y="-298" font-family="Helvetica,sans-Serif" font-size="10.00">lib/Dialect/Polymorphic</text>
<text text-anchor="middle" x="2100" y="-285.25" font-family="Helvetica,sans-Serif" font-size="10.00">/Transforms/FlatteningPass.cpp</text>
</a>
</g>
</g>
<!-- Node17&#45;&gt;Node33 -->
<g id="edge44_Node000017_Node000033" class="edge">
<title>Node17&#45;&gt;Node33</title>
<g id="a_edge44_Node000017_Node000033"><a xlink:title=" ">
<path fill="none" stroke="#63b8ff" d="M1896,-346.75C1938.32,-336.17 1993.02,-322.49 2035.13,-311.97"/>
<polygon fill="#63b8ff" stroke="#63b8ff" points="1895.28,-343.32 1886.43,-349.14 1896.98,-350.11 1895.28,-343.32"/>
</a>
</g>
</g>
<!-- Node34 -->
<g id="Node000034" class="node">
<title>Node34</title>
<g id="a_Node000034"><a xlink:href="LLZKInlineStructsPass_8cpp.html" target="_top" xlink:title="This file implements the &#45;llzk&#45;inline&#45;structs pass.">
<polygon fill="white" stroke="#666666" points="2340.5,-311.5 2201.5,-311.5 2201.5,-278 2340.5,-278 2340.5,-311.5"/>
<text text-anchor="start" x="2209.5" y="-298" font-family="Helvetica,sans-Serif" font-size="10.00">lib/Transforms/LLZKInline</text>
<text text-anchor="middle" x="2271" y="-285.25" font-family="Helvetica,sans-Serif" font-size="10.00">StructsPass.cpp</text>
</a>
</g>
</g>
<!-- Node17&#45;&gt;Node34 -->
<g id="edge45_Node000017_Node000034" class="edge">
<title>Node17&#45;&gt;Node34</title>
<g id="a_edge45_Node000017_Node000034"><a xlink:title=" ">
<path fill="none" stroke="#63b8ff" d="M1895.96,-348.04C1896.98,-347.86 1897.99,-347.68 1899,-347.5 2028.67,-324.82 2063.05,-332.54 2193,-311.5 2195.73,-311.06 2198.5,-310.59 2201.31,-310.1"/>
<polygon fill="#63b8ff" stroke="#63b8ff" points="1895.52,-344.56 1886.37,-349.9 1896.85,-351.43 1895.52,-344.56"/>
</a>
</g>
</g>
<!-- Node35 -->
<g id="Node000035" class="node">
<title>Node35</title>
<g id="a_Node000035"><a xlink:href="LLZKRedundantReadAndWriteEliminationPass_8cpp.html" target="_top" xlink:title="This file implements the &#45;llzk&#45;duplicate&#45;read&#45;write&#45;elim pass.">
<polygon fill="white" stroke="#666666" points="2541.62,-311.5 2358.38,-311.5 2358.38,-278 2541.62,-278 2541.62,-311.5"/>
<text text-anchor="start" x="2366.38" y="-298" font-family="Helvetica,sans-Serif" font-size="10.00">lib/Transforms/LLZKRedundant</text>
<text text-anchor="middle" x="2450" y="-285.25" font-family="Helvetica,sans-Serif" font-size="10.00">ReadAndWriteEliminationPass.cpp</text>
</a>
</g>
</g>
<!-- Node17&#45;&gt;Node35 -->
<g id="edge46_Node000017_Node000035" class="edge">
<title>Node17&#45;&gt;Node35</title>
<g id="a_edge46_Node000017_Node000035"><a xlink:title=" ">
<path fill="none" stroke="#63b8ff" d="M1895.95,-347.98C1896.97,-347.82 1897.99,-347.65 1899,-347.5 2097.76,-317.05 2150.31,-335.16 2350,-311.5 2352.62,-311.19 2355.27,-310.86 2357.95,-310.52"/>
<polygon fill="#63b8ff" stroke="#63b8ff" points="1895.56,-344.5 1886.34,-349.71 1896.8,-351.39 1895.56,-344.5"/>
</a>
</g>
</g>
<!-- Node18&#45;&gt;Node3 -->
<g id="edge23_Node000018_Node000003" class="edge">
<title>Node18&#45;&gt;Node3</title>
<g id="a_edge23_Node000018_Node000003"><a xlink:title=" ">
<path fill="none" stroke="#63b8ff" d="M2587,-139.49C2586,-139.32 2585,-139.16 2584,-139 2282.26,-90.83 2204.71,-92.38 1900,-69.5 1538.41,-42.35 1106.51,-26.41 924.6,-20.45"/>
<polygon fill="#63b8ff" stroke="#63b8ff" points="2586,-142.87 2596.46,-141.19 2587.24,-135.98 2586,-142.87"/>
</a>
</g>
</g>
<!-- Node20 -->
<g id="Node000020" class="node">
<title>Node20</title>
<g id="a_Node000020"><a xlink:href="ConstraintDependencyGraph_8h.html" target="_top" xlink:title=" ">
<polygon fill="white" stroke="#666666" points="1630.12,-172.5 1461.88,-172.5 1461.88,-139 1630.12,-139 1630.12,-172.5"/>
<text text-anchor="start" x="1469.88" y="-159" font-family="Helvetica,sans-Serif" font-size="10.00">include/llzk/Analysis</text>
<text text-anchor="middle" x="1546" y="-146.25" font-family="Helvetica,sans-Serif" font-size="10.00">/ConstraintDependencyGraph.h</text>
</a>
</g>
</g>
<!-- Node19&#45;&gt;Node20 -->
<g id="edge25_Node000019_Node000020" class="edge">
<title>Node19&#45;&gt;Node20</title>
<g id="a_edge25_Node000019_Node000020"><a xlink:title=" ">
<path fill="none" stroke="#63b8ff" d="M1516.42,-270.95C1506.24,-263.19 1496.66,-253.51 1491,-242 1484.44,-228.64 1485.09,-222.17 1491,-208.5 1497.24,-194.06 1509.72,-181.78 1521.21,-172.82"/>
<polygon fill="#63b8ff" stroke="#63b8ff" points="1514.4,-273.81 1524.6,-276.66 1518.41,-268.07 1514.4,-273.81"/>
</a>
</g>
</g>
<!-- Node24 -->
<g id="Node000024" class="node">
<title>Node24</title>
<g id="a_Node000024"><a xlink:href="SourceRefLattice_8h.html" target="_top" xlink:title=" ">
<polygon fill="white" stroke="#666666" points="1615.88,-242 1500.12,-242 1500.12,-208.5 1615.88,-208.5 1615.88,-242"/>
<text text-anchor="start" x="1508.12" y="-228.5" font-family="Helvetica,sans-Serif" font-size="10.00">include/llzk/Analysis</text>
<text text-anchor="middle" x="1558" y="-215.75" font-family="Helvetica,sans-Serif" font-size="10.00">/SourceRefLattice.h</text>
</a>
</g>
</g>
<!-- Node19&#45;&gt;Node24 -->
<g id="edge30_Node000019_Node000024" class="edge">
<title>Node19&#45;&gt;Node24</title>
<g id="a_edge30_Node000019_Node000024"><a xlink:title=" ">
<path fill="none" stroke="#63b8ff" d="M1558,-266.31C1558,-258.09 1558,-249.34 1558,-242.13"/>
<polygon fill="#63b8ff" stroke="#63b8ff" points="1554.5,-266.24 1558,-276.24 1561.5,-266.24 1554.5,-266.24"/>
</a>
</g>
</g>
<!-- Node25 -->
<g id="Node000025" class="node">
<title>Node25</title>
<g id="a_Node000025"><a xlink:href="SourceRef_8cpp.html" target="_top" xlink:title=" ">
<polygon fill="white" stroke="#666666" points="1778.12,-235.62 1633.88,-235.62 1633.88,-214.88 1778.12,-214.88 1778.12,-235.62"/>
<text text-anchor="middle" x="1706" y="-222.12" font-family="Helvetica,sans-Serif" font-size="10.00">lib/Analysis/SourceRef.cpp</text>
</a>
</g>
</g>
<!-- Node19&#45;&gt;Node25 -->
<g id="edge34_Node000019_Node000025" class="edge">
<title>Node19&#45;&gt;Node25</title>
<g id="a_edge34_Node000019_Node000025"><a xlink:title=" ">
<path fill="none" stroke="#63b8ff" d="M1603.82,-272.85C1630.75,-260.57 1663.53,-245.62 1684.58,-236.02"/>
<polygon fill="#63b8ff" stroke="#63b8ff" points="1602.47,-269.62 1594.83,-276.95 1605.38,-275.99 1602.47,-269.62"/>
</a>
</g>
</g>
<!-- Node20&#45;&gt;Node2 -->
<g id="edge26_Node000020_Node000002" class="edge">
<title>Node20&#45;&gt;Node2</title>
<g id="a_edge26_Node000020_Node000002"><a xlink:title=" ">
<path fill="none" stroke="#63b8ff" d="M1450.51,-139.3C1449.67,-139.2 1448.83,-139.1 1448,-139 1209.8,-111.13 924.26,-95.58 803.94,-89.84"/>
<polygon fill="#63b8ff" stroke="#63b8ff" points="1449.74,-142.73 1460.1,-140.52 1450.63,-135.78 1449.74,-142.73"/>
</a>
</g>
</g>
<!-- Node21 -->
<g id="Node000021" class="node">
<title>Node21</title>
<g id="a_Node000021"><a xlink:href="ConstraintDependencyGraph_8cpp.html" target="_top" xlink:title=" ">
<polygon fill="white" stroke="#666666" points="1695.12,-103 1508.88,-103 1508.88,-69.5 1695.12,-69.5 1695.12,-103"/>
<text text-anchor="start" x="1516.88" y="-89.5" font-family="Helvetica,sans-Serif" font-size="10.00">lib/Analysis/ConstraintDependency</text>
<text text-anchor="middle" x="1602" y="-76.75" font-family="Helvetica,sans-Serif" font-size="10.00">Graph.cpp</text>
</a>
</g>
</g>
<!-- Node20&#45;&gt;Node21 -->
<g id="edge27_Node000020_Node000021" class="edge">
<title>Node20&#45;&gt;Node21</title>
<g id="a_edge27_Node000020_Node000021"><a xlink:title=" ">
<path fill="none" stroke="#63b8ff" d="M1566.4,-130.16C1573.88,-121.14 1582.14,-111.18 1588.82,-103.13"/>
<polygon fill="#63b8ff" stroke="#63b8ff" points="1563.93,-127.66 1560.24,-137.59 1569.32,-132.13 1563.93,-127.66"/>
</a>
</g>
</g>
<!-- Node22 -->
<g id="Node000022" class="node">
<title>Node22</title>
<g id="a_Node000022"><a xlink:href="ConstraintDependencyGraphPass_8cpp.html" target="_top" xlink:title="This file implements the &#45;llzk&#45;print&#45;constraint&#45;dependency&#45;graphs pass.">
<polygon fill="white" stroke="#666666" points="1491.12,-103 1304.88,-103 1304.88,-69.5 1491.12,-69.5 1491.12,-103"/>
<text text-anchor="start" x="1312.88" y="-89.5" font-family="Helvetica,sans-Serif" font-size="10.00">lib/Analysis/ConstraintDependency</text>
<text text-anchor="middle" x="1398" y="-76.75" font-family="Helvetica,sans-Serif" font-size="10.00">GraphPass.cpp</text>
</a>
</g>
</g>
<!-- Node20&#45;&gt;Node22 -->
<g id="edge28_Node000020_Node000022" class="edge">
<title>Node20&#45;&gt;Node22</title>
<g id="a_edge28_Node000020_Node000022"><a xlink:title=" ">
<path fill="none" stroke="#63b8ff" d="M1500.32,-133.92C1478.78,-124.09 1453.47,-112.55 1433.42,-103.4"/>
<polygon fill="#63b8ff" stroke="#63b8ff" points="1498.62,-136.99 1509.17,-137.95 1501.53,-130.62 1498.62,-136.99"/>
</a>
</g>
</g>
<!-- Node20&#45;&gt;Node23 -->
<g id="edge29_Node000020_Node000023" class="edge">
<title>Node20&#45;&gt;Node23</title>
<g id="a_edge29_Node000020_Node000023"><a xlink:title=" ">
<path fill="none" stroke="#63b8ff" d="M1618.2,-135.71C1665.83,-123.15 1726.28,-107.21 1764.57,-97.12"/>
<polygon fill="#63b8ff" stroke="#63b8ff" points="1617.56,-132.26 1608.78,-138.2 1619.34,-139.03 1617.56,-132.26"/>
</a>
</g>
</g>
<!-- Node24&#45;&gt;Node20 -->
<g id="edge31_Node000024_Node000020" class="edge">
<title>Node24&#45;&gt;Node20</title>
<g id="a_edge31_Node000024_Node000020"><a xlink:title=" ">
<path fill="none" stroke="#63b8ff" d="M1553.17,-197.1C1551.7,-188.79 1550.12,-179.93 1548.82,-172.63"/>
<polygon fill="#63b8ff" stroke="#63b8ff" points="1549.69,-197.53 1554.89,-206.76 1556.59,-196.3 1549.69,-197.53"/>
</a>
</g>
</g>
<!-- Node24&#45;&gt;Node21 -->
<g id="edge32_Node000024_Node000021" class="edge">
<title>Node24&#45;&gt;Node21</title>
<g id="a_edge32_Node000024_Node000021"><a xlink:title=" ">
<path fill="none" stroke="#63b8ff" d="M1608.93,-202.54C1620.91,-194.88 1632.17,-184.97 1639,-172.5 1651.71,-149.29 1632.95,-120.83 1617.83,-103.38"/>
<polygon fill="#63b8ff" stroke="#63b8ff" points="1607.4,-199.37 1600.54,-207.44 1610.94,-205.42 1607.4,-199.37"/>
</a>
</g>
</g>
<!-- Node24&#45;&gt;Node23 -->
<g id="edge33_Node000024_Node000023" class="edge">
<title>Node24&#45;&gt;Node23</title>
<g id="a_edge33_Node000024_Node000023"><a xlink:title=" ">
<path fill="none" stroke="#63b8ff" d="M1598.6,-203C1616.04,-193.77 1636.6,-182.74 1655,-172.5 1702.95,-145.82 1758.82,-112.9 1785.79,-96.9"/>
<polygon fill="#63b8ff" stroke="#63b8ff" points="1597.28,-199.74 1590.07,-207.5 1600.55,-205.93 1597.28,-199.74"/>
</a>
</g>
</g>
<!-- Node26&#45;&gt;Node25 -->
<g id="edge36_Node000026_Node000025" class="edge">
<title>Node26&#45;&gt;Node25</title>
<g id="a_edge36_Node000026_Node000025"><a xlink:title=" ">
<path fill="none" stroke="#63b8ff" d="M1701.21,-266.63C1702.49,-255.83 1703.89,-244.1 1704.84,-236.07"/>
<polygon fill="#63b8ff" stroke="#63b8ff" points="1697.78,-265.91 1700.07,-276.25 1704.73,-266.73 1697.78,-265.91"/>
</a>
</g>
</g>
<!-- Node27 -->
<g id="Node000027" class="node">
<title>Node27</title>
<g id="a_Node000027"><a xlink:href="LLZKLoweringUtils_8cpp.html" target="_top" xlink:title=" ">
<polygon fill="white" stroke="#666666" points="2148.12,-242 1991.88,-242 1991.88,-208.5 2148.12,-208.5 2148.12,-242"/>
<text text-anchor="start" x="1999.88" y="-228.5" font-family="Helvetica,sans-Serif" font-size="10.00">lib/Transforms/LLZKLowering</text>
<text text-anchor="middle" x="2070" y="-215.75" font-family="Helvetica,sans-Serif" font-size="10.00">Utils.cpp</text>
</a>
</g>
</g>
<!-- Node26&#45;&gt;Node27 -->
<g id="edge37_Node000026_Node000027" class="edge">
<title>Node26&#45;&gt;Node27</title>
<g id="a_edge37_Node000026_Node000027"><a xlink:title=" ">
<path fill="none" stroke="#63b8ff" d="M1773.54,-277.56C1866.72,-259.79 1892.36,-257.9 1983,-242 1985.87,-241.5 1988.8,-240.98 1991.75,-240.46"/>
<polygon fill="#63b8ff" stroke="#63b8ff" points="1773.1,-274.08 1763.94,-279.4 1774.42,-280.95 1773.1,-274.08"/>
</a>
</g>
</g>
<!-- Node28 -->
<g id="Node000028" class="node">
<title>Node28</title>
<g id="a_Node000028"><a xlink:href="LLZKPolyLoweringPass_8cpp.html" target="_top" xlink:title="This file implements the &#45;llzk&#45;poly&#45;lowering pass.">
<polygon fill="white" stroke="#666666" points="1973.62,-242 1796.38,-242 1796.38,-208.5 1973.62,-208.5 1973.62,-242"/>
<text text-anchor="start" x="1804.38" y="-228.5" font-family="Helvetica,sans-Serif" font-size="10.00">lib/Transforms/LLZKPolyLowering</text>
<text text-anchor="middle" x="1885" y="-215.75" font-family="Helvetica,sans-Serif" font-size="10.00">Pass.cpp</text>
</a>
</g>
</g>
<!-- Node26&#45;&gt;Node28 -->
<g id="edge38_Node000026_Node000028" class="edge">
<title>Node26&#45;&gt;Node28</title>
<g id="a_edge38_Node000026_Node000028"><a xlink:title=" ">
<path fill="none" stroke="#63b8ff" d="M1753.5,-273.72C1781.18,-263.72 1814.22,-251.8 1840.25,-242.4"/>
<polygon fill="#63b8ff" stroke="#63b8ff" points="1752.43,-270.38 1744.21,-277.07 1754.81,-276.97 1752.43,-270.38"/>
</a>
</g>
</g>
</g>
</svg>
