<?xml version="1.0" encoding="UTF-8" standalone="no"?>
<!DOCTYPE svg PUBLIC "-//W3C//DTD SVG 1.1//EN"
 "http://www.w3.org/Graphics/SVG/1.1/DTD/svg11.dtd">
<!-- Generated by graphviz version 12.2.1 (0)
 -->
<!-- Title: include/llzk/Dialect/Verif/Util/ForbiddenPreconditionInfluence.h Pages: 1 -->
<svg width="322pt" height="124pt"
 viewBox="0.00 0.00 322.00 123.75" xmlns="http://www.w3.org/2000/svg" xmlns:xlink="http://www.w3.org/1999/xlink">
<g id="graph0" class="graph" transform="scale(1 1) rotate(0) translate(4 119.75)">
<title>include/llzk/Dialect/Verif/Util/ForbiddenPreconditionInfluence.h</title>
<!-- Node1 -->
<g id="Node000001" class="node">
<title>Node1</title>
<g id="a_Node000001"><a xlink:title="This file contains an analysis and utilities for determining if a verif precondition is dependent,...">
<polygon fill="#999999" stroke="#666666" points="221.62,-115.75 48.12,-115.75 48.12,-69.5 221.62,-69.5 221.62,-115.75"/>
<text text-anchor="start" x="56.12" y="-102.25" font-family="Helvetica,sans-Serif" font-size="10.00">include/llzk/Dialect</text>
<text text-anchor="start" x="56.12" y="-89.5" font-family="Helvetica,sans-Serif" font-size="10.00">/Verif/Util/ForbiddenPrecondition</text>
<text text-anchor="middle" x="134.88" y="-76.75" font-family="Helvetica,sans-Serif" font-size="10.00">Influence.h</text>
</a>
</g>
</g>
<!-- Node2 -->
<g id="Node000002" class="node">
<title>Node2</title>
<g id="a_Node000002"><a xlink:href="Verif_2IR_2Ops_8cpp.html" target="_top" xlink:title=" ">
<polygon fill="white" stroke="#666666" points="103.75,-33.5 0,-33.5 0,0 103.75,0 103.75,-33.5"/>
<text text-anchor="start" x="8" y="-20" font-family="Helvetica,sans-Serif" font-size="10.00">lib/Dialect/Verif/IR</text>
<text text-anchor="middle" x="51.88" y="-7.25" font-family="Helvetica,sans-Serif" font-size="10.00">/Ops.cpp</text>
</a>
</g>
</g>
<!-- Node1&#45;&gt;Node2 -->
<g id="edge1_Node000001_Node000002" class="edge">
<title>Node1&#45;&gt;Node2</title>
<g id="a_edge1_Node000001_Node000002"><a xlink:title=" ">
<path fill="none" stroke="#63b8ff" d="M101.17,-61.63C90.5,-52.12 79.11,-41.99 69.97,-33.85"/>
<polygon fill="#63b8ff" stroke="#63b8ff" points="98.59,-64.02 108.39,-68.05 103.25,-58.79 98.59,-64.02"/>
</a>
</g>
</g>
<!-- Node3 -->
<g id="Node000003" class="node">
<title>Node3</title>
<g id="a_Node000003"><a xlink:href="ForbiddenPreconditionInfluence_8cpp.html" target="_top" xlink:title=" ">
<polygon fill="white" stroke="#666666" points="314,-33.5 121.75,-33.5 121.75,0 314,0 314,-33.5"/>
<text text-anchor="start" x="129.75" y="-20" font-family="Helvetica,sans-Serif" font-size="10.00">lib/Dialect/Verif/Util</text>
<text text-anchor="middle" x="217.88" y="-7.25" font-family="Helvetica,sans-Serif" font-size="10.00">/ForbiddenPreconditionInfluence.cpp</text>
</a>
</g>
</g>
<!-- Node1&#45;&gt;Node3 -->
<g id="edge2_Node000001_Node000003" class="edge">
<title>Node1&#45;&gt;Node3</title>
<g id="a_edge2_Node000001_Node000003"><a xlink:title=" ">
<path fill="none" stroke="#63b8ff" d="M168.58,-61.63C179.25,-52.12 190.64,-41.99 199.78,-33.85"/>
<polygon fill="#63b8ff" stroke="#63b8ff" points="166.5,-58.79 161.36,-68.05 171.16,-64.02 166.5,-58.79"/>
</a>
</g>
</g>
</g>
</svg>
