<?xml version="1.0" encoding="UTF-8" standalone="no"?>
<!DOCTYPE svg PUBLIC "-//W3C//DTD SVG 1.1//EN"
 "http://www.w3.org/Graphics/SVG/1.1/DTD/svg11.dtd">
<!-- Generated by graphviz version 12.2.1 (0)
 -->
<!-- Title: build/include/llzk/Dialect/Function/IR/Dialect.h.inc Pages: 1 -->
<svg width="4838pt" height="358pt"
 viewBox="0.00 0.00 4838.00 357.75" xmlns="http://www.w3.org/2000/svg" xmlns:xlink="http://www.w3.org/1999/xlink">
<g id="graph0" class="graph" transform="scale(1 1) rotate(0) translate(4 353.75)">
<title>build/include/llzk/Dialect/Function/IR/Dialect.h.inc</title>
<!-- Node1 -->
<g id="Node000001" class="node">
<title>Node1</title>
<g id="a_Node000001"><a xlink:title=" ">
<polygon fill="#999999" stroke="#666666" points="4422.5,-349.75 4312,-349.75 4312,-303.5 4422.5,-303.5 4422.5,-349.75"/>
<text text-anchor="start" x="4320" y="-336.25" font-family="Helvetica,sans-Serif" font-size="10.00">build/include/llzk</text>
<text text-anchor="start" x="4320" y="-323.5" font-family="Helvetica,sans-Serif" font-size="10.00">/Dialect/Function/IR</text>
<text text-anchor="middle" x="4367.25" y="-310.75" font-family="Helvetica,sans-Serif" font-size="10.00">/Dialect.h.inc</text>
</a>
</g>
</g>
<!-- Node2 -->
<g id="Node000002" class="node">
<title>Node2</title>
<g id="a_Node000002"><a xlink:href="Function_2IR_2Dialect_8h.html" target="_top" xlink:title=" ">
<polygon fill="white" stroke="#666666" points="4427,-267.5 4307.5,-267.5 4307.5,-234 4427,-234 4427,-267.5"/>
<text text-anchor="start" x="4315.5" y="-254" font-family="Helvetica,sans-Serif" font-size="10.00">include/llzk/Dialect</text>
<text text-anchor="middle" x="4367.25" y="-241.25" font-family="Helvetica,sans-Serif" font-size="10.00">/Function/IR/Dialect.h</text>
</a>
</g>
</g>
<!-- Node1&#45;&gt;Node2 -->
<g id="edge1_Node000001_Node000002" class="edge">
<title>Node1&#45;&gt;Node2</title>
<g id="a_edge1_Node000001_Node000002"><a xlink:title=" ">
<path fill="none" stroke="#63b8ff" d="M4367.25,-291.64C4367.25,-283.35 4367.25,-274.86 4367.25,-267.85"/>
<polygon fill="#63b8ff" stroke="#63b8ff" points="4363.75,-291.55 4367.25,-301.55 4370.75,-291.55 4363.75,-291.55"/>
</a>
</g>
</g>
<!-- Node3 -->
<g id="Node000003" class="node">
<title>Node3</title>
<g id="a_Node000003"><a xlink:href="PassBase_8h.html" target="_top" xlink:title=" ">
<polygon fill="white" stroke="#666666" points="2079.25,-191.62 1925.25,-191.62 1925.25,-170.88 2079.25,-170.88 2079.25,-191.62"/>
<text text-anchor="middle" x="2002.25" y="-178.12" font-family="Helvetica,sans-Serif" font-size="10.00">include/llzk/Pass/PassBase.h</text>
</a>
</g>
</g>
<!-- Node2&#45;&gt;Node3 -->
<g id="edge2_Node000002_Node000003" class="edge">
<title>Node2&#45;&gt;Node3</title>
<g id="a_edge2_Node000002_Node000003"><a xlink:title=" ">
<path fill="none" stroke="#63b8ff" d="M4295.62,-247.71C3948.11,-237.79 2439.8,-194.74 2079.68,-184.46"/>
<polygon fill="#63b8ff" stroke="#63b8ff" points="4295.4,-251.2 4305.5,-247.99 4295.6,-244.2 4295.4,-251.2"/>
</a>
</g>
</g>
<!-- Node24 -->
<g id="Node000024" class="node">
<title>Node24</title>
<g id="a_Node000024"><a xlink:href="Dialect_2InitDialects_8cpp.html" target="_top" xlink:title=" ">
<polygon fill="white" stroke="#666666" points="4512.38,-33.5 4368.12,-33.5 4368.12,-12.75 4512.38,-12.75 4512.38,-33.5"/>
<text text-anchor="middle" x="4440.25" y="-20" font-family="Helvetica,sans-Serif" font-size="10.00">lib/Dialect/InitDialects.cpp</text>
</a>
</g>
</g>
<!-- Node2&#45;&gt;Node24 -->
<g id="edge44_Node000002_Node000024" class="edge">
<title>Node2&#45;&gt;Node24</title>
<g id="a_edge44_Node000002_Node000024"><a xlink:title=" ">
<path fill="none" stroke="#63b8ff" d="M4311.94,-228.35C4299.33,-220.74 4287.52,-210.78 4280.25,-198 4272.89,-185.06 4274.11,-178.06 4280.25,-164.5 4309.52,-99.87 4384.89,-53.22 4420.74,-33.94"/>
<polygon fill="#63b8ff" stroke="#63b8ff" points="4309.9,-231.22 4320.35,-232.99 4313.28,-225.09 4309.9,-231.22"/>
</a>
</g>
</g>
<!-- Node38 -->
<g id="Node000038" class="node">
<title>Node38</title>
<g id="a_Node000038"><a xlink:href="Function_8cpp.html" target="_top" xlink:title=" ">
<polygon fill="white" stroke="#666666" points="4445,-191.62 4289.5,-191.62 4289.5,-170.88 4445,-170.88 4445,-191.62"/>
<text text-anchor="middle" x="4367.25" y="-178.12" font-family="Helvetica,sans-Serif" font-size="10.00">lib/CAPI/Dialect/Function.cpp</text>
</a>
</g>
</g>
<!-- Node2&#45;&gt;Node38 -->
<g id="edge42_Node000002_Node000038" class="edge">
<title>Node2&#45;&gt;Node38</title>
<g id="a_edge42_Node000002_Node000038"><a xlink:title=" ">
<path fill="none" stroke="#63b8ff" d="M4367.25,-222.28C4367.25,-211.58 4367.25,-200.01 4367.25,-192.07"/>
<polygon fill="#63b8ff" stroke="#63b8ff" points="4363.75,-222.24 4367.25,-232.24 4370.75,-222.24 4363.75,-222.24"/>
</a>
</g>
</g>
<!-- Node39 -->
<g id="Node000039" class="node">
<title>Node39</title>
<g id="a_Node000039"><a xlink:href="Function_2IR_2Dialect_8cpp.html" target="_top" xlink:title=" ">
<polygon fill="white" stroke="#666666" points="4573.12,-198 4463.38,-198 4463.38,-164.5 4573.12,-164.5 4573.12,-198"/>
<text text-anchor="start" x="4471.38" y="-184.5" font-family="Helvetica,sans-Serif" font-size="10.00">lib/Dialect/Function</text>
<text text-anchor="middle" x="4518.25" y="-171.75" font-family="Helvetica,sans-Serif" font-size="10.00">/IR/Dialect.cpp</text>
</a>
</g>
</g>
<!-- Node2&#45;&gt;Node39 -->
<g id="edge43_Node000002_Node000039" class="edge">
<title>Node2&#45;&gt;Node39</title>
<g id="a_edge43_Node000002_Node000039"><a xlink:title=" ">
<path fill="none" stroke="#63b8ff" d="M4413.86,-228.92C4435.83,-219.09 4461.65,-207.55 4482.12,-198.4"/>
<polygon fill="#63b8ff" stroke="#63b8ff" points="4412.5,-225.69 4404.8,-232.96 4415.36,-232.08 4412.5,-225.69"/>
</a>
</g>
</g>
<!-- Node40 -->
<g id="Node000040" class="node">
<title>Node40</title>
<g id="a_Node000040"><a xlink:href="SharedImpl_8cpp.html" target="_top" xlink:title=" ">
<polygon fill="white" stroke="#666666" points="4743.12,-198 4591.38,-198 4591.38,-164.5 4743.12,-164.5 4743.12,-198"/>
<text text-anchor="start" x="4599.38" y="-184.5" font-family="Helvetica,sans-Serif" font-size="10.00">lib/Dialect/Polymorphic</text>
<text text-anchor="middle" x="4667.25" y="-171.75" font-family="Helvetica,sans-Serif" font-size="10.00">/Transforms/SharedImpl.cpp</text>
</a>
</g>
</g>
<!-- Node2&#45;&gt;Node40 -->
<g id="edge45_Node000002_Node000040" class="edge">
<title>Node2&#45;&gt;Node40</title>
<g id="a_edge45_Node000002_Node000040"><a xlink:title=" ">
<path fill="none" stroke="#63b8ff" d="M4438.33,-233.76C4485.66,-223.11 4547.66,-209.16 4595.2,-198.46"/>
<polygon fill="#63b8ff" stroke="#63b8ff" points="4437.7,-230.31 4428.72,-235.92 4439.24,-237.14 4437.7,-230.31"/>
</a>
</g>
</g>
<!-- Node4 -->
<g id="Node000004" class="node">
<title>Node4</title>
<g id="a_Node000004"><a xlink:href="AnalysisPasses_8h.html" target="_top" xlink:title=" ">
<polygon fill="white" stroke="#666666" points="775.12,-122.12 659.38,-122.12 659.38,-88.62 775.12,-88.62 775.12,-122.12"/>
<text text-anchor="start" x="667.38" y="-108.62" font-family="Helvetica,sans-Serif" font-size="10.00">include/llzk/Analysis</text>
<text text-anchor="middle" x="717.25" y="-95.88" font-family="Helvetica,sans-Serif" font-size="10.00">/AnalysisPasses.h</text>
</a>
</g>
</g>
<!-- Node3&#45;&gt;Node4 -->
<g id="edge3_Node000003_Node000004" class="edge">
<title>Node3&#45;&gt;Node4</title>
<g id="a_edge3_Node000003_Node000004"><a xlink:title=" ">
<path fill="none" stroke="#63b8ff" d="M1913.36,-175.14C1666.92,-160.97 979.71,-121.46 775.31,-109.71"/>
<polygon fill="#63b8ff" stroke="#63b8ff" points="1913.07,-178.63 1923.25,-175.71 1913.47,-171.64 1913.07,-178.63"/>
</a>
</g>
</g>
<!-- Node12 -->
<g id="Node000012" class="node">
<title>Node12</title>
<g id="a_Node000012"><a xlink:href="Array_2Transforms_2TransformationPasses_8h.html" target="_top" xlink:title=" ">
<polygon fill="white" stroke="#666666" points="1507.62,-128.5 1328.88,-128.5 1328.88,-82.25 1507.62,-82.25 1507.62,-128.5"/>
<text text-anchor="start" x="1336.88" y="-115" font-family="Helvetica,sans-Serif" font-size="10.00">include/llzk/Dialect</text>
<text text-anchor="start" x="1336.88" y="-102.25" font-family="Helvetica,sans-Serif" font-size="10.00">/Array/Transforms/Transformation</text>
<text text-anchor="middle" x="1418.25" y="-89.5" font-family="Helvetica,sans-Serif" font-size="10.00">Passes.h</text>
</a>
</g>
</g>
<!-- Node3&#45;&gt;Node12 -->
<g id="edge11_Node000003_Node000012" class="edge">
<title>Node3&#45;&gt;Node12</title>
<g id="a_edge11_Node000003_Node000012"><a xlink:title=" ">
<path fill="none" stroke="#63b8ff" d="M1913.43,-169.5C1828.79,-159.19 1697.79,-143.09 1584.25,-128.5 1559.45,-125.31 1532.58,-121.77 1507.83,-118.47"/>
<polygon fill="#63b8ff" stroke="#63b8ff" points="1912.95,-172.96 1923.3,-170.7 1913.79,-166.02 1912.95,-172.96"/>
</a>
</g>
</g>
<!-- Node15 -->
<g id="Node000015" class="node">
<title>Node15</title>
<g id="a_Node000015"><a xlink:href="InlineIncludesPass_8h.html" target="_top" xlink:title=" ">
<polygon fill="white" stroke="#666666" points="1775.12,-128.5 1593.38,-128.5 1593.38,-82.25 1775.12,-82.25 1775.12,-128.5"/>
<text text-anchor="start" x="1601.38" y="-115" font-family="Helvetica,sans-Serif" font-size="10.00">include/llzk/Dialect</text>
<text text-anchor="start" x="1601.38" y="-102.25" font-family="Helvetica,sans-Serif" font-size="10.00">/Include/Transforms/InlineIncludes</text>
<text text-anchor="middle" x="1684.25" y="-89.5" font-family="Helvetica,sans-Serif" font-size="10.00">Pass.h</text>
</a>
</g>
</g>
<!-- Node3&#45;&gt;Node15 -->
<g id="edge15_Node000003_Node000015" class="edge">
<title>Node3&#45;&gt;Node15</title>
<g id="a_edge15_Node000003_Node000015"><a xlink:title=" ">
<path fill="none" stroke="#63b8ff" d="M1949.1,-167.9C1901.79,-156.91 1831.56,-140.6 1775.3,-127.53"/>
<polygon fill="#63b8ff" stroke="#63b8ff" points="1948.02,-171.24 1958.55,-170.1 1949.6,-164.43 1948.02,-171.24"/>
</a>
</g>
</g>
<!-- Node18 -->
<g id="Node000018" class="node">
<title>Node18</title>
<g id="a_Node000018"><a xlink:href="Polymorphic_2Transforms_2TransformationPasses_8h.html" target="_top" xlink:title=" ">
<polygon fill="white" stroke="#666666" points="2070.62,-128.5 1933.88,-128.5 1933.88,-82.25 2070.62,-82.25 2070.62,-128.5"/>
<text text-anchor="start" x="1941.88" y="-115" font-family="Helvetica,sans-Serif" font-size="10.00">include/llzk/Dialect</text>
<text text-anchor="start" x="1941.88" y="-102.25" font-family="Helvetica,sans-Serif" font-size="10.00">/Polymorphic/Transforms</text>
<text text-anchor="middle" x="2002.25" y="-89.5" font-family="Helvetica,sans-Serif" font-size="10.00">/TransformationPasses.h</text>
</a>
</g>
</g>
<!-- Node3&#45;&gt;Node18 -->
<g id="edge19_Node000003_Node000018" class="edge">
<title>Node3&#45;&gt;Node18</title>
<g id="a_edge19_Node000003_Node000018"><a xlink:title=" ">
<path fill="none" stroke="#63b8ff" d="M2002.25,-159.35C2002.25,-149.81 2002.25,-138.49 2002.25,-128.77"/>
<polygon fill="#63b8ff" stroke="#63b8ff" points="1998.75,-159.08 2002.25,-169.08 2005.75,-159.08 1998.75,-159.08"/>
</a>
</g>
</g>
<!-- Node22 -->
<g id="Node000022" class="node">
<title>Node22</title>
<g id="a_Node000022"><a xlink:href="LLZKTransformationPasses_8h.html" target="_top" xlink:title=" ">
<polygon fill="white" stroke="#666666" points="3304.12,-122.12 3146.38,-122.12 3146.38,-88.62 3304.12,-88.62 3304.12,-122.12"/>
<text text-anchor="start" x="3154.38" y="-108.62" font-family="Helvetica,sans-Serif" font-size="10.00">include/llzk/Transforms</text>
<text text-anchor="middle" x="3225.25" y="-95.88" font-family="Helvetica,sans-Serif" font-size="10.00">/LLZKTransformationPasses.h</text>
</a>
</g>
</g>
<!-- Node3&#45;&gt;Node22 -->
<g id="edge24_Node000003_Node000022" class="edge">
<title>Node3&#45;&gt;Node22</title>
<g id="a_edge24_Node000003_Node000022"><a xlink:title=" ">
<path fill="none" stroke="#63b8ff" d="M2090.95,-174.89C2319.95,-161.06 2928.24,-124.32 3146.18,-111.15"/>
<polygon fill="#63b8ff" stroke="#63b8ff" points="2090.96,-171.38 2081.19,-175.48 2091.39,-178.37 2090.96,-171.38"/>
</a>
</g>
</g>
<!-- Node35 -->
<g id="Node000035" class="node">
<title>Node35</title>
<g id="a_Node000035"><a xlink:href="LLZKValidationPasses_8h.html" target="_top" xlink:title=" ">
<polygon fill="white" stroke="#666666" points="3974.12,-122.12 3840.38,-122.12 3840.38,-88.62 3974.12,-88.62 3974.12,-122.12"/>
<text text-anchor="start" x="3848.38" y="-108.62" font-family="Helvetica,sans-Serif" font-size="10.00">include/llzk/Validators</text>
<text text-anchor="middle" x="3907.25" y="-95.88" font-family="Helvetica,sans-Serif" font-size="10.00">/LLZKValidationPasses.h</text>
</a>
</g>
</g>
<!-- Node3&#45;&gt;Node35 -->
<g id="edge38_Node000003_Node000035" class="edge">
<title>Node3&#45;&gt;Node35</title>
<g id="a_edge38_Node000003_Node000035"><a xlink:title=" ">
<path fill="none" stroke="#63b8ff" d="M2090.87,-176.81C2417.67,-164.14 3551.3,-120.18 3839.96,-108.98"/>
<polygon fill="#63b8ff" stroke="#63b8ff" points="2090.95,-173.31 2081.1,-177.19 2091.23,-180.3 2090.95,-173.31"/>
</a>
</g>
</g>
<!-- Node5 -->
<g id="Node000005" class="node">
<title>Node5</title>
<g id="a_Node000005"><a xlink:href="CallGraphPasses_8cpp.html" target="_top" xlink:title="This file implements the &#45;llzk&#45;print&#45;call&#45;graph and &#45;llzk&#45;print&#45;call&#45;graph&#45;sccs passes.">
<polygon fill="white" stroke="#666666" points="176.5,-33.5 0,-33.5 0,-12.75 176.5,-12.75 176.5,-33.5"/>
<text text-anchor="middle" x="88.25" y="-20" font-family="Helvetica,sans-Serif" font-size="10.00">lib/Analysis/CallGraphPasses.cpp</text>
</a>
</g>
</g>
<!-- Node4&#45;&gt;Node5 -->
<g id="edge4_Node000004_Node000005" class="edge">
<title>Node4&#45;&gt;Node5</title>
<g id="a_edge4_Node000004_Node000005"><a xlink:title=" ">
<path fill="none" stroke="#63b8ff" d="M647.73,-99.35C545.79,-91.41 350.01,-73.95 185.25,-46.25 165.83,-42.99 144.47,-38.24 126.75,-33.98"/>
<polygon fill="#63b8ff" stroke="#63b8ff" points="647.34,-102.83 657.58,-100.11 647.88,-95.86 647.34,-102.83"/>
</a>
</g>
</g>
<!-- Node6 -->
<g id="Node000006" class="node">
<title>Node6</title>
<g id="a_Node000006"><a xlink:href="ConstraintDependencyGraphPass_8cpp.html" target="_top" xlink:title="This file implements the &#45;llzk&#45;print&#45;constraint&#45;dependency&#45;graphs pass.">
<polygon fill="white" stroke="#666666" points="380.38,-39.88 194.12,-39.88 194.12,-6.38 380.38,-6.38 380.38,-39.88"/>
<text text-anchor="start" x="202.12" y="-26.38" font-family="Helvetica,sans-Serif" font-size="10.00">lib/Analysis/ConstraintDependency</text>
<text text-anchor="middle" x="287.25" y="-13.62" font-family="Helvetica,sans-Serif" font-size="10.00">GraphPass.cpp</text>
</a>
</g>
</g>
<!-- Node4&#45;&gt;Node6 -->
<g id="edge5_Node000004_Node000006" class="edge">
<title>Node4&#45;&gt;Node6</title>
<g id="a_edge5_Node000004_Node000006"><a xlink:title=" ">
<path fill="none" stroke="#63b8ff" d="M647.9,-92.88C581.41,-81.67 478.29,-63.79 389.25,-46.25 379.92,-44.41 370.12,-42.4 360.45,-40.35"/>
<polygon fill="#63b8ff" stroke="#63b8ff" points="647.13,-96.3 657.57,-94.5 648.29,-89.39 647.13,-96.3"/>
</a>
</g>
</g>
<!-- Node7 -->
<g id="Node000007" class="node">
<title>Node7</title>
<g id="a_Node000007"><a xlink:href="IntervalAnalysisPass_8cpp.html" target="_top" xlink:title="This file implements the &#45;llzk&#45;print&#45;interval&#45;analysis pass.">
<polygon fill="white" stroke="#666666" points="552.25,-39.88 398.25,-39.88 398.25,-6.38 552.25,-6.38 552.25,-39.88"/>
<text text-anchor="start" x="406.25" y="-26.38" font-family="Helvetica,sans-Serif" font-size="10.00">lib/Analysis/IntervalAnalysis</text>
<text text-anchor="middle" x="475.25" y="-13.62" font-family="Helvetica,sans-Serif" font-size="10.00">Pass.cpp</text>
</a>
</g>
</g>
<!-- Node4&#45;&gt;Node7 -->
<g id="edge6_Node000004_Node000007" class="edge">
<title>Node4&#45;&gt;Node7</title>
<g id="a_edge6_Node000004_Node000007"><a xlink:title=" ">
<path fill="none" stroke="#63b8ff" d="M657.6,-84.59C616.54,-70.98 562.67,-53.12 524.15,-40.34"/>
<polygon fill="#63b8ff" stroke="#63b8ff" points="656.25,-87.83 666.84,-87.66 658.45,-81.19 656.25,-87.83"/>
</a>
</g>
</g>
<!-- Node8 -->
<g id="Node000008" class="node">
<title>Node8</title>
<g id="a_Node000008"><a xlink:href="PredecessorAnalysisPass_8cpp.html" target="_top" xlink:title="This file implements the &#45;llzk&#45;print&#45;predecessors pass.">
<polygon fill="white" stroke="#666666" points="704.5,-39.88 570,-39.88 570,-6.38 704.5,-6.38 704.5,-39.88"/>
<text text-anchor="start" x="578" y="-26.38" font-family="Helvetica,sans-Serif" font-size="10.00">lib/Analysis/Predecessor</text>
<text text-anchor="middle" x="637.25" y="-13.62" font-family="Helvetica,sans-Serif" font-size="10.00">AnalysisPass.cpp</text>
</a>
</g>
</g>
<!-- Node4&#45;&gt;Node8 -->
<g id="edge7_Node000004_Node000008" class="edge">
<title>Node4&#45;&gt;Node8</title>
<g id="a_edge7_Node000004_Node000008"><a xlink:title=" ">
<path fill="none" stroke="#63b8ff" d="M693.07,-80.12C680.23,-67.24 664.8,-51.76 653.42,-40.34"/>
<polygon fill="#63b8ff" stroke="#63b8ff" points="690.45,-82.45 699.99,-87.06 695.41,-77.51 690.45,-82.45"/>
</a>
</g>
</g>
<!-- Node9 -->
<g id="Node000009" class="node">
<title>Node9</title>
<g id="a_Node000009"><a xlink:href="SymbolDefTreePass_8cpp.html" target="_top" xlink:title="This file implements the &#45;llzk&#45;print&#45;symbol&#45;def&#45;tree pass.">
<polygon fill="white" stroke="#666666" points="872,-39.88 722.5,-39.88 722.5,-6.38 872,-6.38 872,-39.88"/>
<text text-anchor="start" x="730.5" y="-26.38" font-family="Helvetica,sans-Serif" font-size="10.00">lib/Analysis/SymbolDefTree</text>
<text text-anchor="middle" x="797.25" y="-13.62" font-family="Helvetica,sans-Serif" font-size="10.00">Pass.cpp</text>
</a>
</g>
</g>
<!-- Node4&#45;&gt;Node9 -->
<g id="edge8_Node000004_Node000009" class="edge">
<title>Node4&#45;&gt;Node9</title>
<g id="a_edge8_Node000004_Node000009"><a xlink:title=" ">
<path fill="none" stroke="#63b8ff" d="M741.43,-80.12C754.27,-67.24 769.7,-51.76 781.08,-40.34"/>
<polygon fill="#63b8ff" stroke="#63b8ff" points="739.09,-77.51 734.51,-87.06 744.05,-82.45 739.09,-77.51"/>
</a>
</g>
</g>
<!-- Node10 -->
<g id="Node000010" class="node">
<title>Node10</title>
<g id="a_Node000010"><a xlink:href="SymbolUseGraphPass_8cpp.html" target="_top" xlink:title="This file implements the &#45;llzk&#45;print&#45;symbol&#45;use&#45;graph pass.">
<polygon fill="white" stroke="#666666" points="1050.25,-39.88 890.25,-39.88 890.25,-6.38 1050.25,-6.38 1050.25,-39.88"/>
<text text-anchor="start" x="898.25" y="-26.38" font-family="Helvetica,sans-Serif" font-size="10.00">lib/Analysis/SymbolUseGraph</text>
<text text-anchor="middle" x="970.25" y="-13.62" font-family="Helvetica,sans-Serif" font-size="10.00">Pass.cpp</text>
</a>
</g>
</g>
<!-- Node4&#45;&gt;Node10 -->
<g id="edge9_Node000004_Node000010" class="edge">
<title>Node4&#45;&gt;Node10</title>
<g id="a_edge9_Node000004_Node000010"><a xlink:title=" ">
<path fill="none" stroke="#63b8ff" d="M779.34,-84.68C822.3,-71.05 878.77,-53.14 919.13,-40.34"/>
<polygon fill="#63b8ff" stroke="#63b8ff" points="778.36,-81.32 769.89,-87.68 780.48,-87.99 778.36,-81.32"/>
</a>
</g>
</g>
<!-- Node11 -->
<g id="Node000011" class="node">
<title>Node11</title>
<g id="a_Node000011"><a xlink:href="llzk-opt_8cpp.html" target="_top" xlink:title="This file implements a version of the mlir&#45;opt tool configured for use on LLZK files.">
<polygon fill="white" stroke="#666666" points="1825.25,-39.88 1725.25,-39.88 1725.25,-6.38 1825.25,-6.38 1825.25,-39.88"/>
<text text-anchor="start" x="1733.25" y="-26.38" font-family="Helvetica,sans-Serif" font-size="10.00">tools/llzk&#45;opt/llzk</text>
<text text-anchor="middle" x="1775.25" y="-13.62" font-family="Helvetica,sans-Serif" font-size="10.00">&#45;opt.cpp</text>
</a>
</g>
</g>
<!-- Node4&#45;&gt;Node11 -->
<g id="edge10_Node000004_Node000011" class="edge">
<title>Node4&#45;&gt;Node11</title>
<g id="a_edge10_Node000004_Node000011"><a xlink:title=" ">
<path fill="none" stroke="#63b8ff" d="M786.63,-101.55C998.15,-92.75 1626.02,-65.34 1716.25,-46.25 1723.1,-44.8 1730.21,-42.69 1737.03,-40.35"/>
<polygon fill="#63b8ff" stroke="#63b8ff" points="786.74,-98.04 776.89,-101.95 787.03,-105.03 786.74,-98.04"/>
</a>
</g>
</g>
<!-- Node12&#45;&gt;Node11 -->
<g id="edge14_Node000012_Node000011" class="edge">
<title>Node12&#45;&gt;Node11</title>
<g id="a_edge14_Node000012_Node000011"><a xlink:title=" ">
<path fill="none" stroke="#63b8ff" d="M1518.88,-89.03C1577.1,-79.09 1651.45,-64.58 1716.25,-46.25 1722.25,-44.55 1728.5,-42.51 1734.6,-40.37"/>
<polygon fill="#63b8ff" stroke="#63b8ff" points="1518.6,-85.53 1509.32,-90.65 1519.76,-92.43 1518.6,-85.53"/>
</a>
</g>
</g>
<!-- Node13 -->
<g id="Node000013" class="node">
<title>Node13</title>
<g id="a_Node000013"><a xlink:href="Array_8cpp.html" target="_top" xlink:title=" ">
<polygon fill="white" stroke="#666666" points="1207.75,-33.5 1068.75,-33.5 1068.75,-12.75 1207.75,-12.75 1207.75,-33.5"/>
<text text-anchor="middle" x="1138.25" y="-20" font-family="Helvetica,sans-Serif" font-size="10.00">lib/CAPI/Dialect/Array.cpp</text>
</a>
</g>
</g>
<!-- Node12&#45;&gt;Node13 -->
<g id="edge12_Node000012_Node000013" class="edge">
<title>Node12&#45;&gt;Node13</title>
<g id="a_edge12_Node000012_Node000013"><a xlink:title=" ">
<path fill="none" stroke="#63b8ff" d="M1328.69,-78.71C1275.52,-63.47 1211.15,-45.02 1172.51,-33.94"/>
<polygon fill="#63b8ff" stroke="#63b8ff" points="1327.48,-82 1338.05,-81.39 1329.41,-75.27 1327.48,-82"/>
</a>
</g>
</g>
<!-- Node14 -->
<g id="Node000014" class="node">
<title>Node14</title>
<g id="a_Node000014"><a xlink:href="ArrayToScalarPass_8cpp.html" target="_top" xlink:title="This file implements the &#45;llzk&#45;array&#45;to&#45;scalar pass.">
<polygon fill="white" stroke="#666666" points="1377.12,-39.88 1225.38,-39.88 1225.38,-6.38 1377.12,-6.38 1377.12,-39.88"/>
<text text-anchor="start" x="1233.38" y="-26.38" font-family="Helvetica,sans-Serif" font-size="10.00">lib/Dialect/Array/Transforms</text>
<text text-anchor="middle" x="1301.25" y="-13.62" font-family="Helvetica,sans-Serif" font-size="10.00">/ArrayToScalarPass.cpp</text>
</a>
</g>
</g>
<!-- Node12&#45;&gt;Node14 -->
<g id="edge13_Node000012_Node000014" class="edge">
<title>Node12&#45;&gt;Node14</title>
<g id="a_edge13_Node000012_Node000014"><a xlink:title=" ">
<path fill="none" stroke="#63b8ff" d="M1375.99,-75.39C1358.69,-63.52 1339.32,-50.24 1324.64,-40.17"/>
<polygon fill="#63b8ff" stroke="#63b8ff" points="1373.87,-78.18 1384.1,-80.95 1377.83,-72.41 1373.87,-78.18"/>
</a>
</g>
</g>
<!-- Node15&#45;&gt;Node11 -->
<g id="edge18_Node000015_Node000011" class="edge">
<title>Node15&#45;&gt;Node11</title>
<g id="a_edge18_Node000015_Node000011"><a xlink:title=" ">
<path fill="none" stroke="#63b8ff" d="M1718.01,-74.6C1731.2,-62.97 1745.81,-50.09 1756.96,-40.25"/>
<polygon fill="#63b8ff" stroke="#63b8ff" points="1715.92,-71.78 1710.73,-81.02 1720.55,-77.03 1715.92,-71.78"/>
</a>
</g>
</g>
<!-- Node16 -->
<g id="Node000016" class="node">
<title>Node16</title>
<g id="a_Node000016"><a xlink:href="Include_8cpp.html" target="_top" xlink:title=" ">
<polygon fill="white" stroke="#666666" points="1545,-33.5 1395.5,-33.5 1395.5,-12.75 1545,-12.75 1545,-33.5"/>
<text text-anchor="middle" x="1470.25" y="-20" font-family="Helvetica,sans-Serif" font-size="10.00">lib/CAPI/Dialect/Include.cpp</text>
</a>
</g>
</g>
<!-- Node15&#45;&gt;Node16 -->
<g id="edge16_Node000015_Node000016" class="edge">
<title>Node15&#45;&gt;Node16</title>
<g id="a_edge16_Node000015_Node000016"><a xlink:title=" ">
<path fill="none" stroke="#63b8ff" d="M1613.5,-77.84C1573.32,-62.78 1525.41,-44.81 1496.43,-33.94"/>
<polygon fill="#63b8ff" stroke="#63b8ff" points="1612.06,-81.04 1622.65,-81.28 1614.52,-74.49 1612.06,-81.04"/>
</a>
</g>
</g>
<!-- Node17 -->
<g id="Node000017" class="node">
<title>Node17</title>
<g id="a_Node000017"><a xlink:href="InlineIncludesPass_8cpp.html" target="_top" xlink:title="This file implements the &#45;llzk&#45;inline&#45;includes pass.">
<polygon fill="white" stroke="#666666" points="1707,-46.25 1563.5,-46.25 1563.5,0 1707,0 1707,-46.25"/>
<text text-anchor="start" x="1571.5" y="-32.75" font-family="Helvetica,sans-Serif" font-size="10.00">lib/Dialect/Include</text>
<text text-anchor="start" x="1571.5" y="-20" font-family="Helvetica,sans-Serif" font-size="10.00">/Transforms/InlineIncludes</text>
<text text-anchor="middle" x="1635.25" y="-7.25" font-family="Helvetica,sans-Serif" font-size="10.00">Pass.cpp</text>
</a>
</g>
</g>
<!-- Node15&#45;&gt;Node17 -->
<g id="edge17_Node000015_Node000017" class="edge">
<title>Node15&#45;&gt;Node17</title>
<g id="a_edge17_Node000015_Node000017"><a xlink:title=" ">
<path fill="none" stroke="#63b8ff" d="M1664.65,-72.27C1659.41,-63.69 1653.85,-54.59 1649,-46.64"/>
<polygon fill="#63b8ff" stroke="#63b8ff" points="1661.61,-74.02 1669.81,-80.73 1667.59,-70.37 1661.61,-74.02"/>
</a>
</g>
</g>
<!-- Node18&#45;&gt;Node11 -->
<g id="edge23_Node000018_Node000011" class="edge">
<title>Node18&#45;&gt;Node11</title>
<g id="a_edge23_Node000018_Node000011"><a xlink:title=" ">
<path fill="none" stroke="#63b8ff" d="M1925.14,-78.16C1896.53,-68.31 1863.86,-56.92 1834.25,-46.25 1829,-44.36 1823.5,-42.34 1818.06,-40.33"/>
<polygon fill="#63b8ff" stroke="#63b8ff" points="1923.86,-81.42 1934.45,-81.36 1926.13,-74.8 1923.86,-81.42"/>
</a>
</g>
</g>
<!-- Node19 -->
<g id="Node000019" class="node">
<title>Node19</title>
<g id="a_Node000019"><a xlink:href="Poly_8cpp.html" target="_top" xlink:title=" ">
<polygon fill="white" stroke="#666666" points="1977.12,-33.5 1843.38,-33.5 1843.38,-12.75 1977.12,-12.75 1977.12,-33.5"/>
<text text-anchor="middle" x="1910.25" y="-20" font-family="Helvetica,sans-Serif" font-size="10.00">lib/CAPI/Dialect/Poly.cpp</text>
</a>
</g>
</g>
<!-- Node18&#45;&gt;Node19 -->
<g id="edge20_Node000018_Node000019" class="edge">
<title>Node18&#45;&gt;Node19</title>
<g id="a_edge20_Node000018_Node000019"><a xlink:title=" ">
<path fill="none" stroke="#63b8ff" d="M1968.27,-74.74C1951.83,-60.4 1933.18,-44.13 1921.57,-34"/>
<polygon fill="#63b8ff" stroke="#63b8ff" points="1965.65,-77.09 1975.48,-81.03 1970.25,-71.81 1965.65,-77.09"/>
</a>
</g>
</g>
<!-- Node20 -->
<g id="Node000020" class="node">
<title>Node20</title>
<g id="a_Node000020"><a xlink:href="EmptyParamListRemovalPass_8cpp.html" target="_top" xlink:title="This file implements the &#45;llzk&#45;drop&#45;empty&#45;params pass.">
<polygon fill="white" stroke="#666666" points="2193.75,-46.25 1994.75,-46.25 1994.75,0 2193.75,0 2193.75,-46.25"/>
<text text-anchor="start" x="2002.75" y="-32.75" font-family="Helvetica,sans-Serif" font-size="10.00">lib/Dialect/Polymorphic</text>
<text text-anchor="start" x="2002.75" y="-20" font-family="Helvetica,sans-Serif" font-size="10.00">/Transforms/EmptyParamListRemoval</text>
<text text-anchor="middle" x="2094.25" y="-7.25" font-family="Helvetica,sans-Serif" font-size="10.00">Pass.cpp</text>
</a>
</g>
</g>
<!-- Node18&#45;&gt;Node20 -->
<g id="edge21_Node000018_Node000020" class="edge">
<title>Node18&#45;&gt;Node20</title>
<g id="a_edge21_Node000018_Node000020"><a xlink:title=" ">
<path fill="none" stroke="#63b8ff" d="M2036.5,-74.5C2047.07,-65.28 2058.54,-55.28 2068.44,-46.64"/>
<polygon fill="#63b8ff" stroke="#63b8ff" points="2034.25,-71.81 2029.02,-81.03 2038.85,-77.09 2034.25,-71.81"/>
</a>
</g>
</g>
<!-- Node21 -->
<g id="Node000021" class="node">
<title>Node21</title>
<g id="a_Node000021"><a xlink:href="FlatteningPass_8cpp.html" target="_top" xlink:title="This file implements the &#45;llzk&#45;flatten pass.">
<polygon fill="white" stroke="#666666" points="2379,-39.88 2211.5,-39.88 2211.5,-6.38 2379,-6.38 2379,-39.88"/>
<text text-anchor="start" x="2219.5" y="-26.38" font-family="Helvetica,sans-Serif" font-size="10.00">lib/Dialect/Polymorphic</text>
<text text-anchor="middle" x="2295.25" y="-13.62" font-family="Helvetica,sans-Serif" font-size="10.00">/Transforms/FlatteningPass.cpp</text>
</a>
</g>
</g>
<!-- Node18&#45;&gt;Node21 -->
<g id="edge22_Node000018_Node000021" class="edge">
<title>Node18&#45;&gt;Node21</title>
<g id="a_edge22_Node000018_Node000021"><a xlink:title=" ">
<path fill="none" stroke="#63b8ff" d="M2081.78,-82.59C2130.57,-69.23 2191.97,-52.41 2236.39,-40.25"/>
<polygon fill="#63b8ff" stroke="#63b8ff" points="2081.13,-79.14 2072.41,-85.16 2082.97,-85.89 2081.13,-79.14"/>
</a>
</g>
</g>
<!-- Node22&#45;&gt;Node11 -->
<g id="edge37_Node000022_Node000011" class="edge">
<title>Node22&#45;&gt;Node11</title>
<g id="a_edge37_Node000022_Node000011"><a xlink:title=" ">
<path fill="none" stroke="#63b8ff" d="M3134.94,-104.32C2867.75,-103.58 2084.26,-97 1834.25,-46.25 1827.28,-44.84 1820.05,-42.71 1813.13,-40.33"/>
<polygon fill="#63b8ff" stroke="#63b8ff" points="3134.6,-107.82 3144.61,-104.35 3134.62,-100.82 3134.6,-107.82"/>
</a>
</g>
</g>
<!-- Node23 -->
<g id="Node000023" class="node">
<title>Node23</title>
<g id="a_Node000023"><a xlink:href="Transforms_8cpp.html" target="_top" xlink:title=" ">
<polygon fill="white" stroke="#666666" points="2527.62,-33.5 2396.88,-33.5 2396.88,-12.75 2527.62,-12.75 2527.62,-33.5"/>
<text text-anchor="middle" x="2462.25" y="-20" font-family="Helvetica,sans-Serif" font-size="10.00">lib/CAPI/Transforms.cpp</text>
</a>
</g>
</g>
<!-- Node22&#45;&gt;Node23 -->
<g id="edge25_Node000022_Node000023" class="edge">
<title>Node22&#45;&gt;Node23</title>
<g id="a_edge25_Node000022_Node000023"><a xlink:title=" ">
<path fill="none" stroke="#63b8ff" d="M3134.73,-102.67C3002.26,-98.85 2748.26,-86.44 2536.25,-46.25 2520.7,-43.3 2503.77,-38.37 2490.02,-33.91"/>
<polygon fill="#63b8ff" stroke="#63b8ff" points="3134.4,-106.17 3144.49,-102.94 3134.59,-99.17 3134.4,-106.17"/>
</a>
</g>
</g>
<!-- Node22&#45;&gt;Node24 -->
<g id="edge26_Node000022_Node000024" class="edge">
<title>Node22&#45;&gt;Node24</title>
<g id="a_edge26_Node000022_Node000024"><a xlink:title=" ">
<path fill="none" stroke="#63b8ff" d="M3315.47,-100.87C3565.83,-90.99 4257.53,-62.55 4359.25,-46.25 4376.38,-43.5 4395.09,-38.53 4410.2,-33.99"/>
<polygon fill="#63b8ff" stroke="#63b8ff" points="3315.61,-97.36 3305.75,-101.25 3315.88,-104.36 3315.61,-97.36"/>
</a>
</g>
</g>
<!-- Node25 -->
<g id="Node000025" class="node">
<title>Node25</title>
<g id="a_Node000025"><a xlink:href="LLZKComputeConstrainToProductPass_8cpp.html" target="_top" xlink:title="This file implements the &#45;llzk&#45;product&#45;program pass.">
<polygon fill="white" stroke="#666666" points="2701,-39.88 2545.5,-39.88 2545.5,-6.38 2701,-6.38 2701,-39.88"/>
<text text-anchor="start" x="2553.5" y="-26.38" font-family="Helvetica,sans-Serif" font-size="10.00">lib/Transforms/LLZKCompute</text>
<text text-anchor="middle" x="2623.25" y="-13.62" font-family="Helvetica,sans-Serif" font-size="10.00">ConstrainToProductPass.cpp</text>
</a>
</g>
</g>
<!-- Node22&#45;&gt;Node25 -->
<g id="edge27_Node000022_Node000025" class="edge">
<title>Node22&#45;&gt;Node25</title>
<g id="a_edge27_Node000022_Node000025"><a xlink:title=" ">
<path fill="none" stroke="#63b8ff" d="M3134.93,-97.94C3031.66,-89.71 2857.84,-73.22 2710.25,-46.25 2701.2,-44.6 2691.71,-42.53 2682.45,-40.33"/>
<polygon fill="#63b8ff" stroke="#63b8ff" points="3134.48,-101.42 3144.73,-98.71 3135.03,-94.44 3134.48,-101.42"/>
</a>
</g>
</g>
<!-- Node26 -->
<g id="Node000026" class="node">
<title>Node26</title>
<g id="a_Node000026"><a xlink:href="LLZKEnforceNoOverwritePass_8cpp.html" target="_top" xlink:title="This file implements the &#45;llzk&#45;enforce&#45;no&#45;overwrite pass.">
<polygon fill="white" stroke="#666666" points="2867.62,-39.88 2718.88,-39.88 2718.88,-6.38 2867.62,-6.38 2867.62,-39.88"/>
<text text-anchor="start" x="2726.88" y="-26.38" font-family="Helvetica,sans-Serif" font-size="10.00">lib/Transforms/LLZKEnforce</text>
<text text-anchor="middle" x="2793.25" y="-13.62" font-family="Helvetica,sans-Serif" font-size="10.00">NoOverwritePass.cpp</text>
</a>
</g>
</g>
<!-- Node22&#45;&gt;Node26 -->
<g id="edge28_Node000022_Node000026" class="edge">
<title>Node22&#45;&gt;Node26</title>
<g id="a_edge28_Node000022_Node000026"><a xlink:title=" ">
<path fill="none" stroke="#63b8ff" d="M3135.09,-91.78C3064.36,-81.31 2963.59,-65.12 2876.25,-46.25 2868.09,-44.49 2859.52,-42.44 2851.13,-40.31"/>
<polygon fill="#63b8ff" stroke="#63b8ff" points="3134.28,-95.2 3144.68,-93.19 3135.3,-88.27 3134.28,-95.2"/>
</a>
</g>
</g>
<!-- Node27 -->
<g id="Node000027" class="node">
<title>Node27</title>
<g id="a_Node000027"><a xlink:href="LLZKFuseProductLoopsPass_8cpp.html" target="_top" xlink:title="This file implements the &#45;llzk&#45;fuse&#45;product&#45;loops pass.">
<polygon fill="white" stroke="#666666" points="3056.88,-39.88 2885.62,-39.88 2885.62,-6.38 3056.88,-6.38 3056.88,-39.88"/>
<text text-anchor="start" x="2893.62" y="-26.38" font-family="Helvetica,sans-Serif" font-size="10.00">lib/Transforms/LLZKFuseProduct</text>
<text text-anchor="middle" x="2971.25" y="-13.62" font-family="Helvetica,sans-Serif" font-size="10.00">LoopsPass.cpp</text>
</a>
</g>
</g>
<!-- Node22&#45;&gt;Node27 -->
<g id="edge29_Node000022_Node000027" class="edge">
<title>Node22&#45;&gt;Node27</title>
<g id="a_edge29_Node000022_Node000027"><a xlink:title=" ">
<path fill="none" stroke="#63b8ff" d="M3162.92,-84.68C3119.79,-71.05 3063.09,-53.14 3022.57,-40.34"/>
<polygon fill="#63b8ff" stroke="#63b8ff" points="3161.82,-88 3172.41,-87.68 3163.93,-81.33 3161.82,-88"/>
</a>
</g>
</g>
<!-- Node28 -->
<g id="Node000028" class="node">
<title>Node28</title>
<g id="a_Node000028"><a xlink:href="LLZKInlineStructsPass_8cpp.html" target="_top" xlink:title="This file implements the &#45;llzk&#45;inline&#45;structs pass.">
<polygon fill="white" stroke="#666666" points="3213.75,-39.88 3074.75,-39.88 3074.75,-6.38 3213.75,-6.38 3213.75,-39.88"/>
<text text-anchor="start" x="3082.75" y="-26.38" font-family="Helvetica,sans-Serif" font-size="10.00">lib/Transforms/LLZKInline</text>
<text text-anchor="middle" x="3144.25" y="-13.62" font-family="Helvetica,sans-Serif" font-size="10.00">StructsPass.cpp</text>
</a>
</g>
</g>
<!-- Node22&#45;&gt;Node28 -->
<g id="edge30_Node000022_Node000028" class="edge">
<title>Node22&#45;&gt;Node28</title>
<g id="a_edge30_Node000022_Node000028"><a xlink:title=" ">
<path fill="none" stroke="#63b8ff" d="M3200.76,-80.12C3187.76,-67.24 3172.14,-51.76 3160.62,-40.34"/>
<polygon fill="#63b8ff" stroke="#63b8ff" points="3198.22,-82.52 3207.78,-87.07 3203.14,-77.55 3198.22,-82.52"/>
</a>
</g>
</g>
<!-- Node29 -->
<g id="Node000029" class="node">
<title>Node29</title>
<g id="a_Node000029"><a xlink:href="LLZKInliningExtensions_8cpp.html" target="_top" xlink:title=" ">
<polygon fill="white" stroke="#666666" points="3380.25,-39.88 3232.25,-39.88 3232.25,-6.38 3380.25,-6.38 3380.25,-39.88"/>
<text text-anchor="start" x="3240.25" y="-26.38" font-family="Helvetica,sans-Serif" font-size="10.00">lib/Transforms/LLZKInlining</text>
<text text-anchor="middle" x="3306.25" y="-13.62" font-family="Helvetica,sans-Serif" font-size="10.00">Extensions.cpp</text>
</a>
</g>
</g>
<!-- Node22&#45;&gt;Node29 -->
<g id="edge31_Node000022_Node000029" class="edge">
<title>Node22&#45;&gt;Node29</title>
<g id="a_edge31_Node000022_Node000029"><a xlink:title=" ">
<path fill="none" stroke="#63b8ff" d="M3249.74,-80.12C3262.74,-67.24 3278.36,-51.76 3289.88,-40.34"/>
<polygon fill="#63b8ff" stroke="#63b8ff" points="3247.36,-77.55 3242.72,-87.07 3252.28,-82.52 3247.36,-77.55"/>
</a>
</g>
</g>
<!-- Node30 -->
<g id="Node000030" class="node">
<title>Node30</title>
<g id="a_Node000030"><a xlink:href="LLZKPolyLoweringPass_8cpp.html" target="_top" xlink:title="This file implements the &#45;llzk&#45;poly&#45;lowering pass.">
<polygon fill="white" stroke="#666666" points="3575.88,-39.88 3398.62,-39.88 3398.62,-6.38 3575.88,-6.38 3575.88,-39.88"/>
<text text-anchor="start" x="3406.62" y="-26.38" font-family="Helvetica,sans-Serif" font-size="10.00">lib/Transforms/LLZKPolyLowering</text>
<text text-anchor="middle" x="3487.25" y="-13.62" font-family="Helvetica,sans-Serif" font-size="10.00">Pass.cpp</text>
</a>
</g>
</g>
<!-- Node22&#45;&gt;Node30 -->
<g id="edge32_Node000022_Node000030" class="edge">
<title>Node22&#45;&gt;Node30</title>
<g id="a_edge32_Node000022_Node000030"><a xlink:title=" ">
<path fill="none" stroke="#63b8ff" d="M3289.27,-84.77C3333.78,-71.13 3392.43,-53.17 3434.31,-40.34"/>
<polygon fill="#63b8ff" stroke="#63b8ff" points="3288.25,-81.42 3279.72,-87.69 3290.3,-88.11 3288.25,-81.42"/>
</a>
</g>
</g>
<!-- Node31 -->
<g id="Node000031" class="node">
<title>Node31</title>
<g id="a_Node000031"><a xlink:href="LLZKRedundantOperationEliminationPass_8cpp.html" target="_top" xlink:title="This file implements the &#45;llzk&#45;duplicate&#45;op&#45;elim pass.">
<polygon fill="white" stroke="#666666" points="3758.5,-39.88 3594,-39.88 3594,-6.38 3758.5,-6.38 3758.5,-39.88"/>
<text text-anchor="start" x="3602" y="-26.38" font-family="Helvetica,sans-Serif" font-size="10.00">lib/Transforms/LLZKRedundant</text>
<text text-anchor="middle" x="3676.25" y="-13.62" font-family="Helvetica,sans-Serif" font-size="10.00">OperationEliminationPass.cpp</text>
</a>
</g>
</g>
<!-- Node22&#45;&gt;Node31 -->
<g id="edge33_Node000022_Node000031" class="edge">
<title>Node22&#45;&gt;Node31</title>
<g id="a_edge33_Node000022_Node000031"><a xlink:title=" ">
<path fill="none" stroke="#63b8ff" d="M3315.56,-91.8C3388.59,-81.15 3493.91,-64.7 3585.25,-46.25 3594.02,-44.48 3603.21,-42.45 3612.26,-40.35"/>
<polygon fill="#63b8ff" stroke="#63b8ff" points="3315.47,-88.28 3306.08,-93.17 3316.48,-95.2 3315.47,-88.28"/>
</a>
</g>
</g>
<!-- Node32 -->
<g id="Node000032" class="node">
<title>Node32</title>
<g id="a_Node000032"><a xlink:href="LLZKRedundantReadAndWriteEliminationPass_8cpp.html" target="_top" xlink:title="This file implements the &#45;llzk&#45;duplicate&#45;read&#45;write&#45;elim pass.">
<polygon fill="white" stroke="#666666" points="3959.88,-39.88 3776.62,-39.88 3776.62,-6.38 3959.88,-6.38 3959.88,-39.88"/>
<text text-anchor="start" x="3784.62" y="-26.38" font-family="Helvetica,sans-Serif" font-size="10.00">lib/Transforms/LLZKRedundant</text>
<text text-anchor="middle" x="3868.25" y="-13.62" font-family="Helvetica,sans-Serif" font-size="10.00">ReadAndWriteEliminationPass.cpp</text>
</a>
</g>
</g>
<!-- Node22&#45;&gt;Node32 -->
<g id="edge34_Node000022_Node000032" class="edge">
<title>Node22&#45;&gt;Node32</title>
<g id="a_edge34_Node000022_Node000032"><a xlink:title=" ">
<path fill="none" stroke="#63b8ff" d="M3315.76,-97.7C3423.71,-89.04 3609.37,-71.93 3767.25,-46.25 3777.53,-44.58 3788.33,-42.53 3798.9,-40.36"/>
<polygon fill="#63b8ff" stroke="#63b8ff" points="3315.8,-94.18 3306.11,-98.47 3316.36,-101.16 3315.8,-94.18"/>
</a>
</g>
</g>
<!-- Node33 -->
<g id="Node000033" class="node">
<title>Node33</title>
<g id="a_Node000033"><a xlink:href="LLZKTransformationPassPipelines_8cpp.html" target="_top" xlink:title="This file implements logic for registering several pass pipelines.">
<polygon fill="white" stroke="#666666" points="4162.62,-39.88 3977.88,-39.88 3977.88,-6.38 4162.62,-6.38 4162.62,-39.88"/>
<text text-anchor="start" x="3985.88" y="-26.38" font-family="Helvetica,sans-Serif" font-size="10.00">lib/Transforms/LLZKTransformation</text>
<text text-anchor="middle" x="4070.25" y="-13.62" font-family="Helvetica,sans-Serif" font-size="10.00">PassPipelines.cpp</text>
</a>
</g>
</g>
<!-- Node22&#45;&gt;Node33 -->
<g id="edge35_Node000022_Node000033" class="edge">
<title>Node22&#45;&gt;Node33</title>
<g id="a_edge35_Node000022_Node000033"><a xlink:title=" ">
<path fill="none" stroke="#63b8ff" d="M3315.49,-101.33C3455.91,-95.7 3734.96,-80.9 3969.25,-46.25 3979.99,-44.66 3991.3,-42.59 4002.3,-40.35"/>
<polygon fill="#63b8ff" stroke="#63b8ff" points="3315.75,-97.82 3305.9,-101.71 3316.03,-104.81 3315.75,-97.82"/>
</a>
</g>
</g>
<!-- Node34 -->
<g id="Node000034" class="node">
<title>Node34</title>
<g id="a_Node000034"><a xlink:href="LLZKUnusedDeclarationEliminationPass_8cpp.html" target="_top" xlink:title="This file implements the &#45;llzk&#45;unused&#45;declaration&#45;elim pass.">
<polygon fill="white" stroke="#666666" points="4350.12,-39.88 4180.38,-39.88 4180.38,-6.38 4350.12,-6.38 4350.12,-39.88"/>
<text text-anchor="start" x="4188.38" y="-26.38" font-family="Helvetica,sans-Serif" font-size="10.00">lib/Transforms/LLZKUnused</text>
<text text-anchor="middle" x="4265.25" y="-13.62" font-family="Helvetica,sans-Serif" font-size="10.00">DeclarationEliminationPass.cpp</text>
</a>
</g>
</g>
<!-- Node22&#45;&gt;Node34 -->
<g id="edge36_Node000022_Node000034" class="edge">
<title>Node22&#45;&gt;Node34</title>
<g id="a_edge36_Node000022_Node000034"><a xlink:title=" ">
<path fill="none" stroke="#63b8ff" d="M3315.72,-100.78C3519.21,-92.37 4007.89,-70.32 4171.25,-46.25 4181.62,-44.72 4192.52,-42.62 4203.09,-40.32"/>
<polygon fill="#63b8ff" stroke="#63b8ff" points="3315.85,-97.27 3306,-101.18 3316.14,-104.27 3315.85,-97.27"/>
</a>
</g>
</g>
<!-- Node35&#45;&gt;Node11 -->
<g id="edge41_Node000035_Node000011" class="edge">
<title>Node35&#45;&gt;Node11</title>
<g id="a_edge41_Node000035_Node000011"><a xlink:title=" ">
<path fill="none" stroke="#63b8ff" d="M3828.66,-101.12C3714.97,-96.5 3497.99,-87.94 3313.25,-82.25 3148.95,-77.19 1995.63,-77.55 1834.25,-46.25 1827.16,-44.88 1819.81,-42.74 1812.79,-40.32"/>
<polygon fill="#63b8ff" stroke="#63b8ff" points="3828.36,-104.62 3838.49,-101.53 3828.64,-97.62 3828.36,-104.62"/>
</a>
</g>
</g>
<!-- Node36 -->
<g id="Node000036" class="node">
<title>Node36</title>
<g id="a_Node000036"><a xlink:href="Validators_8cpp.html" target="_top" xlink:title=" ">
<polygon fill="white" stroke="#666666" points="4656,-33.5 4530.5,-33.5 4530.5,-12.75 4656,-12.75 4656,-33.5"/>
<text text-anchor="middle" x="4593.25" y="-20" font-family="Helvetica,sans-Serif" font-size="10.00">lib/CAPI/Validators.cpp</text>
</a>
</g>
</g>
<!-- Node35&#45;&gt;Node36 -->
<g id="edge39_Node000035_Node000036" class="edge">
<title>Node35&#45;&gt;Node36</title>
<g id="a_edge39_Node000035_Node000036"><a xlink:title=" ">
<path fill="none" stroke="#63b8ff" d="M3985.58,-102.06C4103.01,-97.45 4331.19,-84.04 4521.25,-46.25 4536.26,-43.27 4552.59,-38.39 4565.89,-33.97"/>
<polygon fill="#63b8ff" stroke="#63b8ff" points="3985.59,-98.56 3975.73,-102.44 3985.86,-105.55 3985.59,-98.56"/>
</a>
</g>
</g>
<!-- Node37 -->
<g id="Node000037" class="node">
<title>Node37</title>
<g id="a_Node000037"><a xlink:href="LLZKValidationPasses_8cpp.html" target="_top" xlink:title="This file contains the implementation for the &#45;llzk&#45;validate&#45;member&#45;writes pass.">
<polygon fill="white" stroke="#666666" points="4830,-39.88 4674.5,-39.88 4674.5,-6.38 4830,-6.38 4830,-39.88"/>
<text text-anchor="start" x="4682.5" y="-26.38" font-family="Helvetica,sans-Serif" font-size="10.00">lib/Validators/LLZKValidation</text>
<text text-anchor="middle" x="4752.25" y="-13.62" font-family="Helvetica,sans-Serif" font-size="10.00">Passes.cpp</text>
</a>
</g>
</g>
<!-- Node35&#45;&gt;Node37 -->
<g id="edge40_Node000035_Node000037" class="edge">
<title>Node35&#45;&gt;Node37</title>
<g id="a_edge40_Node000035_Node000037"><a xlink:title=" ">
<path fill="none" stroke="#63b8ff" d="M3985.65,-102.81C4123.82,-99.07 4419.34,-86.64 4665.25,-46.25 4674.78,-44.68 4684.8,-42.58 4694.51,-40.29"/>
<polygon fill="#63b8ff" stroke="#63b8ff" points="3985.8,-99.31 3975.89,-103.07 3985.98,-106.3 3985.8,-99.31"/>
</a>
</g>
</g>
</g>
</svg>
