<?xml version="1.0" encoding="UTF-8" standalone="no"?>
<!DOCTYPE svg PUBLIC "-//W3C//DTD SVG 1.1//EN"
 "http://www.w3.org/Graphics/SVG/1.1/DTD/svg11.dtd">
<!-- Generated by graphviz version 12.2.1 (0)
 -->
<!-- Title: include/llzk/Dialect/Function/IR/Attrs.h Pages: 1 -->
<svg width="250pt" height="111pt"
 viewBox="0.00 0.00 249.62 111.00" xmlns="http://www.w3.org/2000/svg" xmlns:xlink="http://www.w3.org/1999/xlink">
<g id="graph0" class="graph" transform="scale(1 1) rotate(0) translate(4 107)">
<title>include/llzk/Dialect/Function/IR/Attrs.h</title>
<!-- Node1 -->
<g id="Node000001" class="node">
<title>Node1</title>
<g id="a_Node000001"><a xlink:title=" ">
<polygon fill="#999999" stroke="#666666" points="173.62,-103 64.62,-103 64.62,-69.5 173.62,-69.5 173.62,-103"/>
<text text-anchor="start" x="72.62" y="-89.5" font-family="Helvetica,sans-Serif" font-size="10.00">include/llzk/Dialect</text>
<text text-anchor="middle" x="119.12" y="-76.75" font-family="Helvetica,sans-Serif" font-size="10.00">/Function/IR/Attrs.h</text>
</a>
</g>
</g>
<!-- Node2 -->
<g id="Node000002" class="node">
<title>Node2</title>
<g id="a_Node000002"><a xlink:title=" ">
<polygon fill="#e0e0e0" stroke="#999999" points="108.25,-27.12 0,-27.12 0,-6.38 108.25,-6.38 108.25,-27.12"/>
<text text-anchor="middle" x="54.12" y="-13.62" font-family="Helvetica,sans-Serif" font-size="10.00">mlir/IR/Attributes.h</text>
</a>
</g>
</g>
<!-- Node1&#45;&gt;Node2 -->
<g id="edge1_Node000001_Node000002" class="edge">
<title>Node1&#45;&gt;Node2</title>
<g id="a_edge1_Node000001_Node000002"><a xlink:title=" ">
<path fill="none" stroke="#63b8ff" d="M103.72,-69.25C93.98,-59.14 81.38,-46.06 71.32,-35.61"/>
<polygon fill="#63b8ff" stroke="#63b8ff" points="74.09,-33.44 64.63,-28.66 69.05,-38.29 74.09,-33.44"/>
</a>
</g>
</g>
<!-- Node3 -->
<g id="Node000003" class="node">
<title>Node3</title>
<g id="a_Node000003"><a xlink:href="Function_2IR_2Attrs_8h_8inc.html" target="_top" xlink:title=" ">
<polygon fill="white" stroke="#666666" points="241.62,-33.5 126.62,-33.5 126.62,0 241.62,0 241.62,-33.5"/>
<text text-anchor="start" x="134.62" y="-20" font-family="Helvetica,sans-Serif" font-size="10.00">llzk/Dialect/Function</text>
<text text-anchor="middle" x="184.12" y="-7.25" font-family="Helvetica,sans-Serif" font-size="10.00">/IR/Attrs.h.inc</text>
</a>
</g>
</g>
<!-- Node1&#45;&gt;Node3 -->
<g id="edge2_Node000001_Node000003" class="edge">
<title>Node1&#45;&gt;Node3</title>
<g id="a_edge2_Node000001_Node000003"><a xlink:title=" ">
<path fill="none" stroke="#63b8ff" d="M134.53,-69.25C142.46,-61.02 152.29,-50.8 161.11,-41.65"/>
<polygon fill="#63b8ff" stroke="#63b8ff" points="163.37,-44.35 167.78,-34.72 158.32,-39.5 163.37,-44.35"/>
</a>
</g>
</g>
</g>
</svg>
