<?xml version="1.0" encoding="UTF-8" standalone="no"?>
<!DOCTYPE svg PUBLIC "-//W3C//DTD SVG 1.1//EN"
 "http://www.w3.org/Graphics/SVG/1.1/DTD/svg11.dtd">
<!-- Generated by graphviz version 12.2.1 (0)
 -->
<!-- Title: build/include/llzk/Dialect/Global/IR/Ops.capi.h.inc Pages: 1 -->
<svg width="203pt" height="155pt"
 viewBox="0.00 0.00 203.00 155.00" xmlns="http://www.w3.org/2000/svg" xmlns:xlink="http://www.w3.org/1999/xlink">
<g id="graph0" class="graph" transform="scale(1 1) rotate(0) translate(4 151)">
<title>build/include/llzk/Dialect/Global/IR/Ops.capi.h.inc</title>
<!-- Node1 -->
<g id="Node000001" class="node">
<title>Node1</title>
<g id="a_Node000001"><a xlink:title=" ">
<polygon fill="#999999" stroke="#666666" points="172,-147 0,-147 0,-113.5 172,-113.5 172,-147"/>
<text text-anchor="start" x="8" y="-133.5" font-family="Helvetica,sans-Serif" font-size="10.00">build/include/llzk</text>
<text text-anchor="middle" x="86" y="-120.75" font-family="Helvetica,sans-Serif" font-size="10.00">/Dialect/Global/IR/Ops.capi.h.inc</text>
</a>
</g>
</g>
<!-- Node2 -->
<g id="Node000002" class="node">
<title>Node2</title>
<g id="a_Node000002"><a xlink:href="llzk-c_2Builder_8h.html" target="_top" xlink:title=" ">
<polygon fill="white" stroke="#666666" points="166,-77.5 78,-77.5 78,-56.75 166,-56.75 166,-77.5"/>
<text text-anchor="middle" x="122" y="-64" font-family="Helvetica,sans-Serif" font-size="10.00">llzk&#45;c/Builder.h</text>
</a>
</g>
</g>
<!-- Node1&#45;&gt;Node2 -->
<g id="edge1_Node000001_Node000002" class="edge">
<title>Node1&#45;&gt;Node2</title>
<g id="a_edge1_Node000001_Node000002"><a xlink:title=" ">
<path fill="none" stroke="#63b8ff" d="M95.46,-113.19C100.04,-105.42 105.57,-96.02 110.4,-87.82"/>
<polygon fill="#63b8ff" stroke="#63b8ff" points="113.38,-89.66 115.44,-79.27 107.34,-86.11 113.38,-89.66"/>
</a>
</g>
</g>
<!-- Node3 -->
<g id="Node000003" class="node">
<title>Node3</title>
<g id="a_Node000003"><a xlink:title=" ">
<polygon fill="#e0e0e0" stroke="#999999" points="83.12,-20.75 16.88,-20.75 16.88,0 83.12,0 83.12,-20.75"/>
<text text-anchor="middle" x="50" y="-7.25" font-family="Helvetica,sans-Serif" font-size="10.00">mlir&#45;c/IR.h</text>
</a>
</g>
</g>
<!-- Node1&#45;&gt;Node3 -->
<g id="edge4_Node000001_Node000003" class="edge">
<title>Node1&#45;&gt;Node3</title>
<g id="a_edge4_Node000001_Node000003"><a xlink:title=" ">
<path fill="none" stroke="#63b8ff" d="M80.64,-113.44C77.21,-103.22 72.73,-89.61 69,-77.5 64.31,-62.27 59.35,-44.96 55.68,-31.88"/>
<polygon fill="#63b8ff" stroke="#63b8ff" points="59.06,-30.98 53,-22.28 52.32,-32.86 59.06,-30.98"/>
</a>
</g>
</g>
<!-- Node2&#45;&gt;Node3 -->
<g id="edge2_Node000002_Node000003" class="edge">
<title>Node2&#45;&gt;Node3</title>
<g id="a_edge2_Node000002_Node000003"><a xlink:title=" ">
<path fill="none" stroke="#63b8ff" d="M109.13,-56.34C98.79,-48.47 84.03,-37.25 71.85,-27.99"/>
<polygon fill="#63b8ff" stroke="#63b8ff" points="74.04,-25.26 63.97,-21.99 69.81,-30.83 74.04,-25.26"/>
</a>
</g>
</g>
<!-- Node4 -->
<g id="Node000004" class="node">
<title>Node4</title>
<g id="a_Node000004"><a xlink:title=" ">
<polygon fill="#e0e0e0" stroke="#999999" points="195,-20.75 101,-20.75 101,0 195,0 195,-20.75"/>
<text text-anchor="middle" x="148" y="-7.25" font-family="Helvetica,sans-Serif" font-size="10.00">mlir&#45;c/Support.h</text>
</a>
</g>
</g>
<!-- Node2&#45;&gt;Node4 -->
<g id="edge3_Node000002_Node000004" class="edge">
<title>Node2&#45;&gt;Node4</title>
<g id="a_edge3_Node000002_Node000004"><a xlink:title=" ">
<path fill="none" stroke="#63b8ff" d="M126.65,-56.34C129.94,-49.41 134.47,-39.87 138.51,-31.36"/>
<polygon fill="#63b8ff" stroke="#63b8ff" points="141.61,-32.98 142.74,-22.45 135.29,-29.98 141.61,-32.98"/>
</a>
</g>
</g>
</g>
</svg>
