<?xml version="1.0" encoding="UTF-8" standalone="no"?>
<!DOCTYPE svg PUBLIC "-//W3C//DTD SVG 1.1//EN"
 "http://www.w3.org/Graphics/SVG/1.1/DTD/svg11.dtd">
<!-- Generated by graphviz version 12.2.1 (0)
 -->
<!-- Title: build/include/llzk/Dialect/Global/IR/Ops.h.inc Pages: 1 -->
<svg width="1631pt" height="332pt"
 viewBox="0.00 0.00 1630.88 332.25" xmlns="http://www.w3.org/2000/svg" xmlns:xlink="http://www.w3.org/1999/xlink">
<g id="graph0" class="graph" transform="scale(1 1) rotate(0) translate(4 328.25)">
<title>build/include/llzk/Dialect/Global/IR/Ops.h.inc</title>
<!-- Node1 -->
<g id="Node000001" class="node">
<title>Node1</title>
<g id="a_Node000001"><a xlink:title=" ">
<polygon fill="#999999" stroke="#666666" points="951.38,-324.25 802.62,-324.25 802.62,-290.75 951.38,-290.75 951.38,-324.25"/>
<text text-anchor="start" x="810.62" y="-310.75" font-family="Helvetica,sans-Serif" font-size="10.00">build/include/llzk</text>
<text text-anchor="middle" x="877" y="-298" font-family="Helvetica,sans-Serif" font-size="10.00">/Dialect/Global/IR/Ops.h.inc</text>
</a>
</g>
</g>
<!-- Node2 -->
<g id="Node000002" class="node">
<title>Node2</title>
<g id="a_Node000002"><a xlink:href="Global_2IR_2Ops_8h.html" target="_top" xlink:title=" ">
<polygon fill="white" stroke="#666666" points="931.5,-254.75 822.5,-254.75 822.5,-221.25 931.5,-221.25 931.5,-254.75"/>
<text text-anchor="start" x="830.5" y="-241.25" font-family="Helvetica,sans-Serif" font-size="10.00">include/llzk/Dialect</text>
<text text-anchor="middle" x="877" y="-228.5" font-family="Helvetica,sans-Serif" font-size="10.00">/Global/IR/Ops.h</text>
</a>
</g>
</g>
<!-- Node1&#45;&gt;Node2 -->
<g id="edge1_Node000001_Node000002" class="edge">
<title>Node1&#45;&gt;Node2</title>
<g id="a_edge1_Node000001_Node000002"><a xlink:title=" ">
<path fill="none" stroke="#63b8ff" d="M877,-279.06C877,-270.84 877,-262.09 877,-254.88"/>
<polygon fill="#63b8ff" stroke="#63b8ff" points="873.5,-278.99 877,-288.99 880.5,-278.99 873.5,-278.99"/>
</a>
</g>
</g>
<!-- Node3 -->
<g id="Node000003" class="node">
<title>Node3</title>
<g id="a_Node000003"><a xlink:href="IntervalAnalysis_8h.html" target="_top" xlink:title=" ">
<polygon fill="white" stroke="#666666" points="368.88,-185.25 253.12,-185.25 253.12,-151.75 368.88,-151.75 368.88,-185.25"/>
<text text-anchor="start" x="261.12" y="-171.75" font-family="Helvetica,sans-Serif" font-size="10.00">include/llzk/Analysis</text>
<text text-anchor="middle" x="311" y="-159" font-family="Helvetica,sans-Serif" font-size="10.00">/IntervalAnalysis.h</text>
</a>
</g>
</g>
<!-- Node2&#45;&gt;Node3 -->
<g id="edge2_Node000002_Node000003" class="edge">
<title>Node2&#45;&gt;Node3</title>
<g id="a_edge2_Node000002_Node000003"><a xlink:title=" ">
<path fill="none" stroke="#63b8ff" d="M810.79,-229.1C699.13,-215.79 475.19,-189.08 369.19,-176.44"/>
<polygon fill="#63b8ff" stroke="#63b8ff" points="810.37,-232.58 820.71,-230.29 811.2,-225.63 810.37,-232.58"/>
</a>
</g>
</g>
<!-- Node6 -->
<g id="Node000006" class="node">
<title>Node6</title>
<g id="a_Node000006"><a xlink:href="TypeConversionPatterns_8h.html" target="_top" xlink:title="Reusable MLIR dialect conversion functions for LLZK StructType replacement.">
<polygon fill="white" stroke="#666666" points="677.88,-185.25 496.12,-185.25 496.12,-151.75 677.88,-151.75 677.88,-185.25"/>
<text text-anchor="start" x="504.12" y="-171.75" font-family="Helvetica,sans-Serif" font-size="10.00">include/llzk/Dialect</text>
<text text-anchor="middle" x="587" y="-159" font-family="Helvetica,sans-Serif" font-size="10.00">/Shared/TypeConversionPatterns.h</text>
</a>
</g>
</g>
<!-- Node2&#45;&gt;Node6 -->
<g id="edge5_Node000002_Node000006" class="edge">
<title>Node2&#45;&gt;Node6</title>
<g id="a_edge5_Node000002_Node000006"><a xlink:title=" ">
<path fill="none" stroke="#63b8ff" d="M811.05,-221.65C765.02,-210.93 703.66,-196.65 656.8,-185.75"/>
<polygon fill="#63b8ff" stroke="#63b8ff" points="810.11,-225.02 820.64,-223.88 811.69,-218.21 810.11,-225.02"/>
</a>
</g>
</g>
<!-- Node7 -->
<g id="Node000007" class="node">
<title>Node7</title>
<g id="a_Node000007"><a xlink:href="SharedImpl_8h.html" target="_top" xlink:title="Common private implementation for poly dialect passes.">
<polygon fill="white" stroke="#666666" points="546.25,-115.75 405.75,-115.75 405.75,-82.25 546.25,-82.25 546.25,-115.75"/>
<text text-anchor="start" x="413.75" y="-102.25" font-family="Helvetica,sans-Serif" font-size="10.00">lib/Dialect/Polymorphic</text>
<text text-anchor="middle" x="476" y="-89.5" font-family="Helvetica,sans-Serif" font-size="10.00">/Transforms/SharedImpl.h</text>
</a>
</g>
</g>
<!-- Node2&#45;&gt;Node7 -->
<g id="edge17_Node000002_Node000007" class="edge">
<title>Node2&#45;&gt;Node7</title>
<g id="a_edge17_Node000002_Node000007"><a xlink:title=" ">
<path fill="none" stroke="#63b8ff" d="M810.72,-237.58C711.46,-236.94 531.11,-229.52 487,-185.25 468.99,-167.17 470.13,-135.21 472.88,-115.98"/>
<polygon fill="#63b8ff" stroke="#63b8ff" points="810.58,-241.07 820.6,-237.61 810.61,-234.07 810.58,-241.07"/>
</a>
</g>
</g>
<!-- Node12 -->
<g id="Node000012" class="node">
<title>Node12</title>
<g id="a_Node000012"><a xlink:href="Struct_2IR_2Dialect_8cpp.html" target="_top" xlink:title=" ">
<polygon fill="white" stroke="#666666" points="746.5,-115.75 649.5,-115.75 649.5,-82.25 746.5,-82.25 746.5,-115.75"/>
<text text-anchor="start" x="657.5" y="-102.25" font-family="Helvetica,sans-Serif" font-size="10.00">lib/Dialect/Struct</text>
<text text-anchor="middle" x="698" y="-89.5" font-family="Helvetica,sans-Serif" font-size="10.00">/IR/Dialect.cpp</text>
</a>
</g>
</g>
<!-- Node2&#45;&gt;Node12 -->
<g id="edge18_Node000002_Node000012" class="edge">
<title>Node2&#45;&gt;Node12</title>
<g id="a_edge18_Node000002_Node000012"><a xlink:title=" ">
<path fill="none" stroke="#63b8ff" d="M811.1,-228.34C781.3,-221.28 747.74,-208.48 725,-185.25 706.54,-166.39 700.69,-134.98 698.84,-116.01"/>
<polygon fill="#63b8ff" stroke="#63b8ff" points="810.32,-231.75 820.83,-230.45 811.8,-224.91 810.32,-231.75"/>
</a>
</g>
</g>
<!-- Node13 -->
<g id="Node000013" class="node">
<title>Node13</title>
<g id="a_Node000013"><a xlink:href="Global_8cpp.html" target="_top" xlink:title=" ">
<polygon fill="white" stroke="#666666" points="879.88,-178.88 734.12,-178.88 734.12,-158.12 879.88,-158.12 879.88,-178.88"/>
<text text-anchor="middle" x="807" y="-165.38" font-family="Helvetica,sans-Serif" font-size="10.00">lib/CAPI/Dialect/Global.cpp</text>
</a>
</g>
</g>
<!-- Node2&#45;&gt;Node13 -->
<g id="edge13_Node000002_Node000013" class="edge">
<title>Node2&#45;&gt;Node13</title>
<g id="a_edge13_Node000002_Node000013"><a xlink:title=" ">
<path fill="none" stroke="#63b8ff" d="M852.41,-213.29C840.31,-201.62 826.39,-188.2 817.19,-179.32"/>
<polygon fill="#63b8ff" stroke="#63b8ff" points="849.69,-215.53 859.32,-219.95 854.55,-210.49 849.69,-215.53"/>
</a>
</g>
</g>
<!-- Node14 -->
<g id="Node000014" class="node">
<title>Node14</title>
<g id="a_Node000014"><a xlink:href="Global_2IR_2Dialect_8cpp.html" target="_top" xlink:title=" ">
<polygon fill="white" stroke="#666666" points="998,-185.25 898,-185.25 898,-151.75 998,-151.75 998,-185.25"/>
<text text-anchor="start" x="906" y="-171.75" font-family="Helvetica,sans-Serif" font-size="10.00">lib/Dialect/Global</text>
<text text-anchor="middle" x="948" y="-159" font-family="Helvetica,sans-Serif" font-size="10.00">/IR/Dialect.cpp</text>
</a>
</g>
</g>
<!-- Node2&#45;&gt;Node14 -->
<g id="edge14_Node000002_Node000014" class="edge">
<title>Node2&#45;&gt;Node14</title>
<g id="a_edge14_Node000002_Node000014"><a xlink:title=" ">
<path fill="none" stroke="#63b8ff" d="M901.98,-213.25C911.69,-204.02 922.56,-193.69 931.29,-185.38"/>
<polygon fill="#63b8ff" stroke="#63b8ff" points="899.76,-210.53 894.92,-219.96 904.58,-215.61 899.76,-210.53"/>
</a>
</g>
</g>
<!-- Node15 -->
<g id="Node000015" class="node">
<title>Node15</title>
<g id="a_Node000015"><a xlink:href="Global_2IR_2Ops_8cpp.html" target="_top" xlink:title=" ">
<polygon fill="white" stroke="#666666" points="1116,-185.25 1016,-185.25 1016,-151.75 1116,-151.75 1116,-185.25"/>
<text text-anchor="start" x="1024" y="-171.75" font-family="Helvetica,sans-Serif" font-size="10.00">lib/Dialect/Global</text>
<text text-anchor="middle" x="1066" y="-159" font-family="Helvetica,sans-Serif" font-size="10.00">/IR/Ops.cpp</text>
</a>
</g>
</g>
<!-- Node2&#45;&gt;Node15 -->
<g id="edge15_Node000002_Node000015" class="edge">
<title>Node2&#45;&gt;Node15</title>
<g id="a_edge15_Node000002_Node000015"><a xlink:title=" ">
<path fill="none" stroke="#63b8ff" d="M933.1,-216.97C961.07,-206.97 994.46,-195.05 1020.77,-185.65"/>
<polygon fill="#63b8ff" stroke="#63b8ff" points="931.94,-213.66 923.7,-220.32 934.29,-220.26 931.94,-213.66"/>
</a>
</g>
</g>
<!-- Node16 -->
<g id="Node000016" class="node">
<title>Node16</title>
<g id="a_Node000016"><a xlink:href="Polymorphic_2IR_2Ops_8cpp.html" target="_top" xlink:title=" ">
<polygon fill="white" stroke="#666666" points="1263.62,-185.25 1134.38,-185.25 1134.38,-151.75 1263.62,-151.75 1263.62,-185.25"/>
<text text-anchor="start" x="1142.38" y="-171.75" font-family="Helvetica,sans-Serif" font-size="10.00">lib/Dialect/Polymorphic</text>
<text text-anchor="middle" x="1199" y="-159" font-family="Helvetica,sans-Serif" font-size="10.00">/IR/Ops.cpp</text>
</a>
</g>
</g>
<!-- Node2&#45;&gt;Node16 -->
<g id="edge16_Node000002_Node000016" class="edge">
<title>Node2&#45;&gt;Node16</title>
<g id="a_edge16_Node000002_Node000016"><a xlink:title=" ">
<path fill="none" stroke="#63b8ff" d="M942.66,-223.37C992.66,-212.98 1063.18,-198.28 1125,-185.25 1127.96,-184.63 1130.98,-183.99 1134.03,-183.34"/>
<polygon fill="#63b8ff" stroke="#63b8ff" points="942.24,-219.88 933.17,-225.35 943.67,-226.74 942.24,-219.88"/>
</a>
</g>
</g>
<!-- Node17 -->
<g id="Node000017" class="node">
<title>Node17</title>
<g id="a_Node000017"><a xlink:href="LLZKRedundantReadAndWriteEliminationPass_8cpp.html" target="_top" xlink:title="This file implements the &#45;llzk&#45;duplicate&#45;read&#45;write&#45;elim pass.">
<polygon fill="white" stroke="#666666" points="1464.62,-185.25 1281.38,-185.25 1281.38,-151.75 1464.62,-151.75 1464.62,-185.25"/>
<text text-anchor="start" x="1289.38" y="-171.75" font-family="Helvetica,sans-Serif" font-size="10.00">lib/Transforms/LLZKRedundant</text>
<text text-anchor="middle" x="1373" y="-159" font-family="Helvetica,sans-Serif" font-size="10.00">ReadAndWriteEliminationPass.cpp</text>
</a>
</g>
</g>
<!-- Node2&#45;&gt;Node17 -->
<g id="edge19_Node000002_Node000017" class="edge">
<title>Node2&#45;&gt;Node17</title>
<g id="a_edge19_Node000002_Node000017"><a xlink:title=" ">
<path fill="none" stroke="#63b8ff" d="M943.02,-228.91C1021.69,-219.15 1157.06,-201.95 1273,-185.25 1275.61,-184.87 1278.26,-184.49 1280.93,-184.09"/>
<polygon fill="#63b8ff" stroke="#63b8ff" points="942.83,-225.41 933.33,-230.11 943.69,-232.35 942.83,-225.41"/>
</a>
</g>
</g>
<!-- Node18 -->
<g id="Node000018" class="node">
<title>Node18</title>
<g id="a_Node000018"><a xlink:href="SymbolHelper_8cpp.html" target="_top" xlink:title="This file contains the implementations for symbol helper functions.">
<polygon fill="white" stroke="#666666" points="1622.88,-178.88 1483.12,-178.88 1483.12,-158.12 1622.88,-158.12 1622.88,-178.88"/>
<text text-anchor="middle" x="1553" y="-165.38" font-family="Helvetica,sans-Serif" font-size="10.00">lib/Util/SymbolHelper.cpp</text>
</a>
</g>
</g>
<!-- Node2&#45;&gt;Node18 -->
<g id="edge20_Node000002_Node000018" class="edge">
<title>Node2&#45;&gt;Node18</title>
<g id="a_edge20_Node000002_Node000018"><a xlink:title=" ">
<path fill="none" stroke="#63b8ff" d="M943.24,-233.65C1053.69,-227.53 1282.27,-212.59 1474,-185.25 1485.08,-183.67 1496.94,-181.54 1508.03,-179.36"/>
<polygon fill="#63b8ff" stroke="#63b8ff" points="943.27,-230.14 933.48,-234.18 943.65,-237.13 943.27,-230.14"/>
</a>
</g>
</g>
<!-- Node4 -->
<g id="Node000004" class="node">
<title>Node4</title>
<g id="a_Node000004"><a xlink:href="IntervalAnalysis_8cpp.html" target="_top" xlink:title=" ">
<polygon fill="white" stroke="#666666" points="216.12,-109.38 41.88,-109.38 41.88,-88.62 216.12,-88.62 216.12,-109.38"/>
<text text-anchor="middle" x="129" y="-95.88" font-family="Helvetica,sans-Serif" font-size="10.00">lib/Analysis/IntervalAnalysis.cpp</text>
</a>
</g>
</g>
<!-- Node3&#45;&gt;Node4 -->
<g id="edge3_Node000003_Node000004" class="edge">
<title>Node3&#45;&gt;Node4</title>
<g id="a_edge3_Node000003_Node000004"><a xlink:title=" ">
<path fill="none" stroke="#63b8ff" d="M256.87,-147.42C223.47,-135.04 182.08,-119.69 155.61,-109.87"/>
<polygon fill="#63b8ff" stroke="#63b8ff" points="255.39,-150.61 265.99,-150.81 257.83,-144.05 255.39,-150.61"/>
</a>
</g>
</g>
<!-- Node5 -->
<g id="Node000005" class="node">
<title>Node5</title>
<g id="a_Node000005"><a xlink:href="IntervalAnalysisPass_8cpp.html" target="_top" xlink:title="This file implements the &#45;llzk&#45;print&#45;interval&#45;analysis pass.">
<polygon fill="white" stroke="#666666" points="388,-115.75 234,-115.75 234,-82.25 388,-82.25 388,-115.75"/>
<text text-anchor="start" x="242" y="-102.25" font-family="Helvetica,sans-Serif" font-size="10.00">lib/Analysis/IntervalAnalysis</text>
<text text-anchor="middle" x="311" y="-89.5" font-family="Helvetica,sans-Serif" font-size="10.00">Pass.cpp</text>
</a>
</g>
</g>
<!-- Node3&#45;&gt;Node5 -->
<g id="edge4_Node000003_Node000005" class="edge">
<title>Node3&#45;&gt;Node5</title>
<g id="a_edge4_Node000003_Node000005"><a xlink:title=" ">
<path fill="none" stroke="#63b8ff" d="M311,-140.06C311,-131.84 311,-123.09 311,-115.88"/>
<polygon fill="#63b8ff" stroke="#63b8ff" points="307.5,-139.99 311,-149.99 314.5,-139.99 307.5,-139.99"/>
</a>
</g>
</g>
<!-- Node6&#45;&gt;Node7 -->
<g id="edge6_Node000006_Node000007" class="edge">
<title>Node6&#45;&gt;Node7</title>
<g id="a_edge6_Node000006_Node000007"><a xlink:title=" ">
<path fill="none" stroke="#63b8ff" d="M550.93,-145.57C535.11,-135.95 516.89,-124.86 502.37,-116.04"/>
<polygon fill="#63b8ff" stroke="#63b8ff" points="548.76,-148.34 559.12,-150.55 552.39,-142.36 548.76,-148.34"/>
</a>
</g>
</g>
<!-- Node11 -->
<g id="Node000011" class="node">
<title>Node11</title>
<g id="a_Node000011"><a xlink:href="WildcardArraySpecializationPass_8cpp.html" target="_top" xlink:title="This file implements the &#45;llzk&#45;specialize&#45;wildcard&#45;arrays pass.">
<polygon fill="white" stroke="#666666" points="783.62,-46.25 570.38,-46.25 570.38,0 783.62,0 783.62,-46.25"/>
<text text-anchor="start" x="578.38" y="-32.75" font-family="Helvetica,sans-Serif" font-size="10.00">lib/Dialect/Polymorphic</text>
<text text-anchor="start" x="578.38" y="-20" font-family="Helvetica,sans-Serif" font-size="10.00">/Transforms/WildcardArraySpecialization</text>
<text text-anchor="middle" x="677" y="-7.25" font-family="Helvetica,sans-Serif" font-size="10.00">Pass.cpp</text>
</a>
</g>
</g>
<!-- Node6&#45;&gt;Node11 -->
<g id="edge11_Node000006_Node000011" class="edge">
<title>Node6&#45;&gt;Node11</title>
<g id="a_edge11_Node000006_Node000011"><a xlink:title=" ">
<path fill="none" stroke="#63b8ff" d="M603.17,-141.75C620.19,-114.63 646.71,-72.37 662.91,-46.57"/>
<polygon fill="#63b8ff" stroke="#63b8ff" points="600.31,-139.72 597.95,-150.05 606.23,-143.44 600.31,-139.72"/>
</a>
</g>
</g>
<!-- Node6&#45;&gt;Node12 -->
<g id="edge12_Node000006_Node000012" class="edge">
<title>Node6&#45;&gt;Node12</title>
<g id="a_edge12_Node000006_Node000012"><a xlink:title=" ">
<path fill="none" stroke="#63b8ff" d="M623.07,-145.57C638.89,-135.95 657.11,-124.86 671.63,-116.04"/>
<polygon fill="#63b8ff" stroke="#63b8ff" points="621.61,-142.36 614.88,-150.55 625.24,-148.34 621.61,-142.36"/>
</a>
</g>
</g>
<!-- Node8 -->
<g id="Node000008" class="node">
<title>Node8</title>
<g id="a_Node000008"><a xlink:href="EmptyTemplateRemovalPass_8cpp.html" target="_top" xlink:title="This file implements the &#45;llzk&#45;drop&#45;empty&#45;templates pass.">
<polygon fill="white" stroke="#666666" points="196,-46.25 0,-46.25 0,0 196,0 196,-46.25"/>
<text text-anchor="start" x="8" y="-32.75" font-family="Helvetica,sans-Serif" font-size="10.00">lib/Dialect/Polymorphic</text>
<text text-anchor="start" x="8" y="-20" font-family="Helvetica,sans-Serif" font-size="10.00">/Transforms/EmptyTemplateRemoval</text>
<text text-anchor="middle" x="98" y="-7.25" font-family="Helvetica,sans-Serif" font-size="10.00">Pass.cpp</text>
</a>
</g>
</g>
<!-- Node7&#45;&gt;Node8 -->
<g id="edge7_Node000007_Node000008" class="edge">
<title>Node7&#45;&gt;Node8</title>
<g id="a_edge7_Node000007_Node000008"><a xlink:title=" ">
<path fill="none" stroke="#63b8ff" d="M394.21,-81.72C309.88,-65.52 286.69,-62.35 205,-46.25 202.12,-45.68 199.19,-45.1 196.23,-44.51"/>
<polygon fill="#63b8ff" stroke="#63b8ff" points="393.4,-85.13 403.89,-83.59 394.73,-78.26 393.4,-85.13"/>
</a>
</g>
</g>
<!-- Node9 -->
<g id="Node000009" class="node">
<title>Node9</title>
<g id="a_Node000009"><a xlink:href="FlatteningPass_8cpp.html" target="_top" xlink:title="This file implements the &#45;llzk&#45;flatten pass.">
<polygon fill="white" stroke="#666666" points="381.75,-39.88 214.25,-39.88 214.25,-6.38 381.75,-6.38 381.75,-39.88"/>
<text text-anchor="start" x="222.25" y="-26.38" font-family="Helvetica,sans-Serif" font-size="10.00">lib/Dialect/Polymorphic</text>
<text text-anchor="middle" x="298" y="-13.62" font-family="Helvetica,sans-Serif" font-size="10.00">/Transforms/FlatteningPass.cpp</text>
</a>
</g>
</g>
<!-- Node7&#45;&gt;Node9 -->
<g id="edge8_Node000007_Node000009" class="edge">
<title>Node7&#45;&gt;Node9</title>
<g id="a_edge8_Node000007_Node000009"><a xlink:title=" ">
<path fill="none" stroke="#63b8ff" d="M426.46,-77.44C398.19,-65.71 363.27,-51.21 336.97,-40.3"/>
<polygon fill="#63b8ff" stroke="#63b8ff" points="424.96,-80.61 435.54,-81.21 427.64,-74.14 424.96,-80.61"/>
</a>
</g>
</g>
<!-- Node10 -->
<g id="Node000010" class="node">
<title>Node10</title>
<g id="a_Node000010"><a xlink:href="SharedImpl_8cpp.html" target="_top" xlink:title=" ">
<polygon fill="white" stroke="#666666" points="551.88,-39.88 400.12,-39.88 400.12,-6.38 551.88,-6.38 551.88,-39.88"/>
<text text-anchor="start" x="408.12" y="-26.38" font-family="Helvetica,sans-Serif" font-size="10.00">lib/Dialect/Polymorphic</text>
<text text-anchor="middle" x="476" y="-13.62" font-family="Helvetica,sans-Serif" font-size="10.00">/Transforms/SharedImpl.cpp</text>
</a>
</g>
</g>
<!-- Node7&#45;&gt;Node10 -->
<g id="edge9_Node000007_Node000010" class="edge">
<title>Node7&#45;&gt;Node10</title>
<g id="a_edge9_Node000007_Node000010"><a xlink:title=" ">
<path fill="none" stroke="#63b8ff" d="M476,-70.61C476,-60.35 476,-49.02 476,-40.12"/>
<polygon fill="#63b8ff" stroke="#63b8ff" points="472.5,-70.46 476,-80.46 479.5,-70.46 472.5,-70.46"/>
</a>
</g>
</g>
<!-- Node7&#45;&gt;Node11 -->
<g id="edge10_Node000007_Node000011" class="edge">
<title>Node7&#45;&gt;Node11</title>
<g id="a_edge10_Node000007_Node000011"><a xlink:title=" ">
<path fill="none" stroke="#63b8ff" d="M530.62,-77.92C556.85,-68.28 588.39,-56.69 615.46,-46.74"/>
<polygon fill="#63b8ff" stroke="#63b8ff" points="529.71,-74.53 521.53,-81.27 532.12,-81.1 529.71,-74.53"/>
</a>
</g>
</g>
</g>
</svg>
