<?xml version="1.0" encoding="UTF-8" standalone="no"?>
<!DOCTYPE svg PUBLIC "-//W3C//DTD SVG 1.1//EN"
 "http://www.w3.org/Graphics/SVG/1.1/DTD/svg11.dtd">
<!-- Generated by graphviz version 12.2.1 (0)
 -->
<!-- Title: build/include/llzk/Dialect/Include/IR/Ops.h.inc Pages: 1 -->
<svg width="869pt" height="206pt"
 viewBox="0.00 0.00 869.12 206.00" xmlns="http://www.w3.org/2000/svg" xmlns:xlink="http://www.w3.org/1999/xlink">
<g id="graph0" class="graph" transform="scale(1 1) rotate(0) translate(4 202)">
<title>build/include/llzk/Dialect/Include/IR/Ops.h.inc</title>
<!-- Node1 -->
<g id="Node000001" class="node">
<title>Node1</title>
<g id="a_Node000001"><a xlink:title=" ">
<polygon fill="#999999" stroke="#666666" points="465,-198 360.5,-198 360.5,-151.75 465,-151.75 465,-198"/>
<text text-anchor="start" x="368.5" y="-184.5" font-family="Helvetica,sans-Serif" font-size="10.00">build/include/llzk</text>
<text text-anchor="start" x="368.5" y="-171.75" font-family="Helvetica,sans-Serif" font-size="10.00">/Dialect/Include/IR</text>
<text text-anchor="middle" x="412.75" y="-159" font-family="Helvetica,sans-Serif" font-size="10.00">/Ops.h.inc</text>
</a>
</g>
</g>
<!-- Node2 -->
<g id="Node000002" class="node">
<title>Node2</title>
<g id="a_Node000002"><a xlink:href="Include_2IR_2Ops_8h.html" target="_top" xlink:title=" ">
<polygon fill="white" stroke="#666666" points="467.25,-115.75 358.25,-115.75 358.25,-82.25 467.25,-82.25 467.25,-115.75"/>
<text text-anchor="start" x="366.25" y="-102.25" font-family="Helvetica,sans-Serif" font-size="10.00">include/llzk/Dialect</text>
<text text-anchor="middle" x="412.75" y="-89.5" font-family="Helvetica,sans-Serif" font-size="10.00">/Include/IR/Ops.h</text>
</a>
</g>
</g>
<!-- Node1&#45;&gt;Node2 -->
<g id="edge1_Node000001_Node000002" class="edge">
<title>Node1&#45;&gt;Node2</title>
<g id="a_edge1_Node000001_Node000002"><a xlink:title=" ">
<path fill="none" stroke="#63b8ff" d="M412.75,-139.89C412.75,-131.6 412.75,-123.11 412.75,-116.1"/>
<polygon fill="#63b8ff" stroke="#63b8ff" points="409.25,-139.8 412.75,-149.8 416.25,-139.8 409.25,-139.8"/>
</a>
</g>
</g>
<!-- Node3 -->
<g id="Node000003" class="node">
<title>Node3</title>
<g id="a_Node000003"><a xlink:href="Include_8cpp.html" target="_top" xlink:title=" ">
<polygon fill="white" stroke="#666666" points="149.5,-33.5 0,-33.5 0,-12.75 149.5,-12.75 149.5,-33.5"/>
<text text-anchor="middle" x="74.75" y="-20" font-family="Helvetica,sans-Serif" font-size="10.00">lib/CAPI/Dialect/Include.cpp</text>
</a>
</g>
</g>
<!-- Node2&#45;&gt;Node3 -->
<g id="edge2_Node000002_Node000003" class="edge">
<title>Node2&#45;&gt;Node3</title>
<g id="a_edge2_Node000002_Node000003"><a xlink:title=" ">
<path fill="none" stroke="#63b8ff" d="M346.78,-85.62C295.38,-75.72 222.31,-61.08 158.75,-46.25 142.74,-42.51 125.14,-37.95 110.2,-33.94"/>
<polygon fill="#63b8ff" stroke="#63b8ff" points="346.09,-89.05 356.57,-87.5 347.41,-82.18 346.09,-89.05"/>
</a>
</g>
</g>
<!-- Node4 -->
<g id="Node000004" class="node">
<title>Node4</title>
<g id="a_Node000004"><a xlink:href="Include_2IR_2Dialect_8cpp.html" target="_top" xlink:title=" ">
<polygon fill="white" stroke="#666666" points="271.62,-39.88 167.88,-39.88 167.88,-6.38 271.62,-6.38 271.62,-39.88"/>
<text text-anchor="start" x="175.88" y="-26.38" font-family="Helvetica,sans-Serif" font-size="10.00">lib/Dialect/Include</text>
<text text-anchor="middle" x="219.75" y="-13.62" font-family="Helvetica,sans-Serif" font-size="10.00">/IR/Dialect.cpp</text>
</a>
</g>
</g>
<!-- Node2&#45;&gt;Node4 -->
<g id="edge3_Node000002_Node000004" class="edge">
<title>Node2&#45;&gt;Node4</title>
<g id="a_edge3_Node000002_Node000004"><a xlink:title=" ">
<path fill="none" stroke="#63b8ff" d="M359.85,-77.75C329.06,-65.96 290.77,-51.31 262.01,-40.3"/>
<polygon fill="#63b8ff" stroke="#63b8ff" points="358.39,-80.94 368.98,-81.25 360.89,-74.4 358.39,-80.94"/>
</a>
</g>
</g>
<!-- Node5 -->
<g id="Node000005" class="node">
<title>Node5</title>
<g id="a_Node000005"><a xlink:href="Include_2IR_2Ops_8cpp.html" target="_top" xlink:title=" ">
<polygon fill="white" stroke="#666666" points="393.62,-39.88 289.88,-39.88 289.88,-6.38 393.62,-6.38 393.62,-39.88"/>
<text text-anchor="start" x="297.88" y="-26.38" font-family="Helvetica,sans-Serif" font-size="10.00">lib/Dialect/Include</text>
<text text-anchor="middle" x="341.75" y="-13.62" font-family="Helvetica,sans-Serif" font-size="10.00">/IR/Ops.cpp</text>
</a>
</g>
</g>
<!-- Node2&#45;&gt;Node5 -->
<g id="edge4_Node000002_Node000005" class="edge">
<title>Node2&#45;&gt;Node5</title>
<g id="a_edge4_Node000002_Node000005"><a xlink:title=" ">
<path fill="none" stroke="#63b8ff" d="M389.61,-73.92C378.96,-62.84 366.61,-49.99 357.13,-40.12"/>
<polygon fill="#63b8ff" stroke="#63b8ff" points="386.84,-76.09 396.3,-80.88 391.89,-71.24 386.84,-76.09"/>
</a>
</g>
</g>
<!-- Node6 -->
<g id="Node000006" class="node">
<title>Node6</title>
<g id="a_Node000006"><a xlink:href="InlineIncludesPass_8cpp.html" target="_top" xlink:title="This file implements the &#45;llzk&#45;inline&#45;includes pass.">
<polygon fill="white" stroke="#666666" points="555.5,-46.25 412,-46.25 412,0 555.5,0 555.5,-46.25"/>
<text text-anchor="start" x="420" y="-32.75" font-family="Helvetica,sans-Serif" font-size="10.00">lib/Dialect/Include</text>
<text text-anchor="start" x="420" y="-20" font-family="Helvetica,sans-Serif" font-size="10.00">/Transforms/InlineIncludes</text>
<text text-anchor="middle" x="483.75" y="-7.25" font-family="Helvetica,sans-Serif" font-size="10.00">Pass.cpp</text>
</a>
</g>
</g>
<!-- Node2&#45;&gt;Node6 -->
<g id="edge5_Node000002_Node000006" class="edge">
<title>Node2&#45;&gt;Node6</title>
<g id="a_edge5_Node000002_Node000006"><a xlink:title=" ">
<path fill="none" stroke="#63b8ff" d="M436.13,-73.68C444.52,-64.94 453.94,-55.14 462.18,-46.57"/>
<polygon fill="#63b8ff" stroke="#63b8ff" points="433.61,-71.24 429.2,-80.88 438.66,-76.09 433.61,-71.24"/>
</a>
</g>
</g>
<!-- Node7 -->
<g id="Node000007" class="node">
<title>Node7</title>
<g id="a_Node000007"><a xlink:href="IncludeHelper_8cpp.html" target="_top" xlink:title="This file contains the implementation for file include helpers.">
<polygon fill="white" stroke="#666666" points="699.88,-39.88 573.62,-39.88 573.62,-6.38 699.88,-6.38 699.88,-39.88"/>
<text text-anchor="start" x="581.62" y="-26.38" font-family="Helvetica,sans-Serif" font-size="10.00">lib/Dialect/Include</text>
<text text-anchor="middle" x="636.75" y="-13.62" font-family="Helvetica,sans-Serif" font-size="10.00">/Util/IncludeHelper.cpp</text>
</a>
</g>
</g>
<!-- Node2&#45;&gt;Node7 -->
<g id="edge6_Node000002_Node000007" class="edge">
<title>Node2&#45;&gt;Node7</title>
<g id="a_edge6_Node000002_Node000007"><a xlink:title=" ">
<path fill="none" stroke="#63b8ff" d="M472.75,-78.21C508.72,-66.35 553.89,-51.45 587.71,-40.3"/>
<polygon fill="#63b8ff" stroke="#63b8ff" points="471.75,-74.86 463.35,-81.31 473.94,-81.51 471.75,-74.86"/>
</a>
</g>
</g>
<!-- Node8 -->
<g id="Node000008" class="node">
<title>Node8</title>
<g id="a_Node000008"><a xlink:href="SymbolLookup_8cpp.html" target="_top" xlink:title="This file contains the implementations for symbol lookup helper functions.">
<polygon fill="white" stroke="#666666" points="861.12,-33.5 718.38,-33.5 718.38,-12.75 861.12,-12.75 861.12,-33.5"/>
<text text-anchor="middle" x="789.75" y="-20" font-family="Helvetica,sans-Serif" font-size="10.00">lib/Util/SymbolLookup.cpp</text>
</a>
</g>
</g>
<!-- Node2&#45;&gt;Node8 -->
<g id="edge7_Node000002_Node000008" class="edge">
<title>Node2&#45;&gt;Node8</title>
<g id="a_edge7_Node000002_Node000008"><a xlink:title=" ">
<path fill="none" stroke="#63b8ff" d="M478.85,-88.26C539.07,-78.95 630.31,-63.78 708.75,-46.25 724.54,-42.72 741.87,-38.09 756.43,-33.98"/>
<polygon fill="#63b8ff" stroke="#63b8ff" points="478.46,-84.78 469.1,-89.75 479.52,-91.7 478.46,-84.78"/>
</a>
</g>
</g>
</g>
</svg>
