<?xml version="1.0" encoding="UTF-8" standalone="no"?>
<!DOCTYPE svg PUBLIC "-//W3C//DTD SVG 1.1//EN"
 "http://www.w3.org/Graphics/SVG/1.1/DTD/svg11.dtd">
<!-- Generated by graphviz version 12.2.1 (0)
 -->
<!-- Title: build/include/llzk/Dialect/Include/IR/Dialect.h.inc Pages: 1 -->
<svg width="4835pt" height="358pt"
 viewBox="0.00 0.00 4834.62 357.75" xmlns="http://www.w3.org/2000/svg" xmlns:xlink="http://www.w3.org/1999/xlink">
<g id="graph0" class="graph" transform="scale(1 1) rotate(0) translate(4 353.75)">
<title>build/include/llzk/Dialect/Include/IR/Dialect.h.inc</title>
<!-- Node1 -->
<g id="Node000001" class="node">
<title>Node1</title>
<g id="a_Node000001"><a xlink:title=" ">
<polygon fill="#999999" stroke="#666666" points="3658.12,-349.75 3553.62,-349.75 3553.62,-303.5 3658.12,-303.5 3658.12,-349.75"/>
<text text-anchor="start" x="3561.62" y="-336.25" font-family="Helvetica,sans-Serif" font-size="10.00">build/include/llzk</text>
<text text-anchor="start" x="3561.62" y="-323.5" font-family="Helvetica,sans-Serif" font-size="10.00">/Dialect/Include/IR</text>
<text text-anchor="middle" x="3605.88" y="-310.75" font-family="Helvetica,sans-Serif" font-size="10.00">/Dialect.h.inc</text>
</a>
</g>
</g>
<!-- Node2 -->
<g id="Node000002" class="node">
<title>Node2</title>
<g id="a_Node000002"><a xlink:href="Include_2IR_2Dialect_8h.html" target="_top" xlink:title=" ">
<polygon fill="white" stroke="#666666" points="3662.62,-267.5 3549.12,-267.5 3549.12,-234 3662.62,-234 3662.62,-267.5"/>
<text text-anchor="start" x="3557.12" y="-254" font-family="Helvetica,sans-Serif" font-size="10.00">include/llzk/Dialect</text>
<text text-anchor="middle" x="3605.88" y="-241.25" font-family="Helvetica,sans-Serif" font-size="10.00">/Include/IR/Dialect.h</text>
</a>
</g>
</g>
<!-- Node1&#45;&gt;Node2 -->
<g id="edge1_Node000001_Node000002" class="edge">
<title>Node1&#45;&gt;Node2</title>
<g id="a_edge1_Node000001_Node000002"><a xlink:title=" ">
<path fill="none" stroke="#63b8ff" d="M3605.88,-291.64C3605.88,-283.35 3605.88,-274.86 3605.88,-267.85"/>
<polygon fill="#63b8ff" stroke="#63b8ff" points="3602.38,-291.55 3605.88,-301.55 3609.38,-291.55 3602.38,-291.55"/>
</a>
</g>
</g>
<!-- Node3 -->
<g id="Node000003" class="node">
<title>Node3</title>
<g id="a_Node000003"><a xlink:href="Include_2IR_2Ops_8h.html" target="_top" xlink:title=" ">
<polygon fill="white" stroke="#666666" points="4245.38,-198 4136.38,-198 4136.38,-164.5 4245.38,-164.5 4245.38,-198"/>
<text text-anchor="start" x="4144.38" y="-184.5" font-family="Helvetica,sans-Serif" font-size="10.00">include/llzk/Dialect</text>
<text text-anchor="middle" x="4190.88" y="-171.75" font-family="Helvetica,sans-Serif" font-size="10.00">/Include/IR/Ops.h</text>
</a>
</g>
</g>
<!-- Node2&#45;&gt;Node3 -->
<g id="edge2_Node000002_Node000003" class="edge">
<title>Node2&#45;&gt;Node3</title>
<g id="a_edge2_Node000002_Node000003"><a xlink:title=" ">
<path fill="none" stroke="#63b8ff" d="M3674.35,-244.22C3770.37,-236.1 3950.38,-219.56 4102.88,-198 4113.63,-196.48 4125.09,-194.61 4136.05,-192.7"/>
<polygon fill="#63b8ff" stroke="#63b8ff" points="3674.24,-240.72 3664.57,-245.04 3674.83,-247.69 3674.24,-240.72"/>
</a>
</g>
</g>
<!-- Node4 -->
<g id="Node000004" class="node">
<title>Node4</title>
<g id="a_Node000004"><a xlink:href="Include_8cpp.html" target="_top" xlink:title=" ">
<polygon fill="white" stroke="#666666" points="4664.62,-33.5 4515.12,-33.5 4515.12,-12.75 4664.62,-12.75 4664.62,-33.5"/>
<text text-anchor="middle" x="4589.88" y="-20" font-family="Helvetica,sans-Serif" font-size="10.00">lib/CAPI/Dialect/Include.cpp</text>
</a>
</g>
</g>
<!-- Node2&#45;&gt;Node4 -->
<g id="edge49_Node000002_Node000004" class="edge">
<title>Node2&#45;&gt;Node4</title>
<g id="a_edge49_Node000002_Node000004"><a xlink:title=" ">
<path fill="none" stroke="#63b8ff" d="M3674.3,-241.05C3757.43,-227.85 3899.14,-196.68 4000.88,-128.5 4022.98,-113.69 4015.28,-94.53 4038.88,-82.25 4131.2,-34.19 4403.24,-63.58 4505.88,-46.25 4523.42,-43.29 4542.64,-38.36 4558.26,-33.9"/>
<polygon fill="#63b8ff" stroke="#63b8ff" points="3673.82,-237.58 3664.47,-242.56 3674.89,-244.5 3673.82,-237.58"/>
</a>
</g>
</g>
<!-- Node5 -->
<g id="Node000005" class="node">
<title>Node5</title>
<g id="a_Node000005"><a xlink:href="Include_2IR_2Dialect_8cpp.html" target="_top" xlink:title=" ">
<polygon fill="white" stroke="#666666" points="4151.75,-122.12 4048,-122.12 4048,-88.62 4151.75,-88.62 4151.75,-122.12"/>
<text text-anchor="start" x="4056" y="-108.62" font-family="Helvetica,sans-Serif" font-size="10.00">lib/Dialect/Include</text>
<text text-anchor="middle" x="4099.88" y="-95.88" font-family="Helvetica,sans-Serif" font-size="10.00">/IR/Dialect.cpp</text>
</a>
</g>
</g>
<!-- Node2&#45;&gt;Node5 -->
<g id="edge51_Node000002_Node000005" class="edge">
<title>Node2&#45;&gt;Node5</title>
<g id="a_edge51_Node000002_Node000005"><a xlink:title=" ">
<path fill="none" stroke="#63b8ff" d="M3674.16,-248.09C3779.21,-244.44 3974.55,-233.03 4033.88,-198 4063.58,-180.45 4083.64,-143.73 4093.27,-122.49"/>
<polygon fill="#63b8ff" stroke="#63b8ff" points="3674.13,-244.59 3664.25,-248.42 3674.36,-251.58 3674.13,-244.59"/>
</a>
</g>
</g>
<!-- Node10 -->
<g id="Node000010" class="node">
<title>Node10</title>
<g id="a_Node000010"><a xlink:href="PassBase_8h.html" target="_top" xlink:title=" ">
<polygon fill="white" stroke="#666666" points="3268.88,-191.62 3114.88,-191.62 3114.88,-170.88 3268.88,-170.88 3268.88,-191.62"/>
<text text-anchor="middle" x="3191.88" y="-178.12" font-family="Helvetica,sans-Serif" font-size="10.00">include/llzk/Pass/PassBase.h</text>
</a>
</g>
</g>
<!-- Node2&#45;&gt;Node10 -->
<g id="edge9_Node000002_Node000010" class="edge">
<title>Node2&#45;&gt;Node10</title>
<g id="a_edge9_Node000002_Node000010"><a xlink:title=" ">
<path fill="none" stroke="#63b8ff" d="M3537.39,-238.58C3457.86,-225.62 3327.93,-204.43 3252.11,-192.07"/>
<polygon fill="#63b8ff" stroke="#63b8ff" points="3536.82,-242.04 3547.25,-240.19 3537.94,-235.13 3536.82,-242.04"/>
</a>
</g>
</g>
<!-- Node21 -->
<g id="Node000021" class="node">
<title>Node21</title>
<g id="a_Node000021"><a xlink:href="ArrayToScalarPass_8cpp.html" target="_top" xlink:title="This file implements the &#45;llzk&#45;array&#45;to&#45;scalar pass.">
<polygon fill="white" stroke="#666666" points="2835.75,-39.88 2684,-39.88 2684,-6.38 2835.75,-6.38 2835.75,-39.88"/>
<text text-anchor="start" x="2692" y="-26.38" font-family="Helvetica,sans-Serif" font-size="10.00">lib/Dialect/Array/Transforms</text>
<text text-anchor="middle" x="2759.88" y="-13.62" font-family="Helvetica,sans-Serif" font-size="10.00">/ArrayToScalarPass.cpp</text>
</a>
</g>
</g>
<!-- Node2&#45;&gt;Node21 -->
<g id="edge50_Node000002_Node000021" class="edge">
<title>Node2&#45;&gt;Node21</title>
<g id="a_edge50_Node000002_Node000021"><a xlink:title=" ">
<path fill="none" stroke="#63b8ff" d="M3537.24,-247.31C3440.2,-242.82 3257.79,-230.49 3105.88,-198 3009.32,-177.35 2982.08,-174.81 2894.88,-128.5 2848.04,-103.63 2800.7,-62.51 2776.46,-40.02"/>
<polygon fill="#63b8ff" stroke="#63b8ff" points="3536.98,-250.8 3547.13,-247.76 3537.29,-243.81 3536.98,-250.8"/>
</a>
</g>
</g>
<!-- Node29 -->
<g id="Node000029" class="node">
<title>Node29</title>
<g id="a_Node000029"><a xlink:href="Dialect_2InitDialects_8cpp.html" target="_top" xlink:title=" ">
<polygon fill="white" stroke="#666666" points="2500,-33.5 2355.75,-33.5 2355.75,-12.75 2500,-12.75 2500,-33.5"/>
<text text-anchor="middle" x="2427.88" y="-20" font-family="Helvetica,sans-Serif" font-size="10.00">lib/Dialect/InitDialects.cpp</text>
</a>
</g>
</g>
<!-- Node2&#45;&gt;Node29 -->
<g id="edge52_Node000002_Node000029" class="edge">
<title>Node2&#45;&gt;Node29</title>
<g id="a_edge52_Node000002_Node000029"><a xlink:title=" ">
<path fill="none" stroke="#63b8ff" d="M3537.22,-247.64C3378.98,-242.36 2992.52,-226.83 2865.88,-198 2695.96,-159.31 2505.58,-64.63 2446.41,-33.92"/>
<polygon fill="#63b8ff" stroke="#63b8ff" points="3537.04,-251.14 3547.15,-247.97 3537.27,-244.14 3537.04,-251.14"/>
</a>
</g>
</g>
<!-- Node34 -->
<g id="Node000034" class="node">
<title>Node34</title>
<g id="a_Node000034"><a xlink:href="LLZKInliningExtensions_8cpp.html" target="_top" xlink:title=" ">
<polygon fill="white" stroke="#666666" points="2665.88,-39.88 2517.88,-39.88 2517.88,-6.38 2665.88,-6.38 2665.88,-39.88"/>
<text text-anchor="start" x="2525.88" y="-26.38" font-family="Helvetica,sans-Serif" font-size="10.00">lib/Transforms/LLZKInlining</text>
<text text-anchor="middle" x="2591.88" y="-13.62" font-family="Helvetica,sans-Serif" font-size="10.00">Extensions.cpp</text>
</a>
</g>
</g>
<!-- Node2&#45;&gt;Node34 -->
<g id="edge54_Node000002_Node000034" class="edge">
<title>Node2&#45;&gt;Node34</title>
<g id="a_edge54_Node000002_Node000034"><a xlink:title=" ">
<path fill="none" stroke="#63b8ff" d="M3537.79,-247.21C3396.47,-241.45 3075.65,-225.7 2969.88,-198 2830.12,-161.4 2678.02,-75.86 2618.16,-40.19"/>
<polygon fill="#63b8ff" stroke="#63b8ff" points="3537.23,-250.69 3547.36,-247.6 3537.51,-243.7 3537.23,-250.69"/>
</a>
</g>
</g>
<!-- Node43 -->
<g id="Node000043" class="node">
<title>Node43</title>
<g id="a_Node000043"><a xlink:href="SharedImpl_8cpp.html" target="_top" xlink:title=" ">
<polygon fill="white" stroke="#666666" points="4414.75,-198 4263,-198 4263,-164.5 4414.75,-164.5 4414.75,-198"/>
<text text-anchor="start" x="4271" y="-184.5" font-family="Helvetica,sans-Serif" font-size="10.00">lib/Dialect/Polymorphic</text>
<text text-anchor="middle" x="4338.88" y="-171.75" font-family="Helvetica,sans-Serif" font-size="10.00">/Transforms/SharedImpl.cpp</text>
</a>
</g>
</g>
<!-- Node2&#45;&gt;Node43 -->
<g id="edge53_Node000002_Node000043" class="edge">
<title>Node2&#45;&gt;Node43</title>
<g id="a_edge53_Node000002_Node000043"><a xlink:title=" ">
<path fill="none" stroke="#63b8ff" d="M3674.36,-246.68C3792.99,-240.82 4044.25,-226.06 4254.88,-198 4257.52,-197.65 4260.21,-197.27 4262.93,-196.86"/>
<polygon fill="#63b8ff" stroke="#63b8ff" points="3674.28,-243.17 3664.46,-247.16 3674.62,-250.17 3674.28,-243.17"/>
</a>
</g>
</g>
<!-- Node3&#45;&gt;Node4 -->
<g id="edge3_Node000003_Node000004" class="edge">
<title>Node3&#45;&gt;Node4</title>
<g id="a_edge3_Node000003_Node000004"><a xlink:title=" ">
<path fill="none" stroke="#63b8ff" d="M4184.66,-152.94C4181.4,-130.89 4181.17,-100.59 4198.88,-82.25 4246.58,-32.83 4438.38,-59.03 4505.88,-46.25 4522.92,-43.02 4541.6,-38.23 4557.01,-33.93"/>
<polygon fill="#63b8ff" stroke="#63b8ff" points="4181.21,-153.51 4186.43,-162.73 4188.1,-152.27 4181.21,-153.51"/>
</a>
</g>
</g>
<!-- Node3&#45;&gt;Node5 -->
<g id="edge4_Node000003_Node000005" class="edge">
<title>Node3&#45;&gt;Node5</title>
<g id="a_edge4_Node000003_Node000005"><a xlink:title=" ">
<path fill="none" stroke="#63b8ff" d="M4162.41,-157.14C4148.49,-145.85 4132.1,-132.53 4119.58,-122.37"/>
<polygon fill="#63b8ff" stroke="#63b8ff" points="4159.98,-159.68 4169.95,-163.27 4164.4,-154.25 4159.98,-159.68"/>
</a>
</g>
</g>
<!-- Node6 -->
<g id="Node000006" class="node">
<title>Node6</title>
<g id="a_Node000006"><a xlink:href="Include_2IR_2Ops_8cpp.html" target="_top" xlink:title=" ">
<polygon fill="white" stroke="#666666" points="4311.75,-122.12 4208,-122.12 4208,-88.62 4311.75,-88.62 4311.75,-122.12"/>
<text text-anchor="start" x="4216" y="-108.62" font-family="Helvetica,sans-Serif" font-size="10.00">lib/Dialect/Include</text>
<text text-anchor="middle" x="4259.88" y="-95.88" font-family="Helvetica,sans-Serif" font-size="10.00">/IR/Ops.cpp</text>
</a>
</g>
</g>
<!-- Node3&#45;&gt;Node6 -->
<g id="edge5_Node000003_Node000006" class="edge">
<title>Node3&#45;&gt;Node6</title>
<g id="a_edge5_Node000003_Node000006"><a xlink:title=" ">
<path fill="none" stroke="#63b8ff" d="M4213.67,-155.84C4223.95,-144.84 4235.81,-132.14 4244.93,-122.37"/>
<polygon fill="#63b8ff" stroke="#63b8ff" points="4211.15,-153.42 4206.88,-163.11 4216.26,-158.2 4211.15,-153.42"/>
</a>
</g>
</g>
<!-- Node7 -->
<g id="Node000007" class="node">
<title>Node7</title>
<g id="a_Node000007"><a xlink:href="InlineIncludesPass_8cpp.html" target="_top" xlink:title="This file implements the &#45;llzk&#45;inline&#45;includes pass.">
<polygon fill="white" stroke="#666666" points="4826.62,-46.25 4683.12,-46.25 4683.12,0 4826.62,0 4826.62,-46.25"/>
<text text-anchor="start" x="4691.12" y="-32.75" font-family="Helvetica,sans-Serif" font-size="10.00">lib/Dialect/Include</text>
<text text-anchor="start" x="4691.12" y="-20" font-family="Helvetica,sans-Serif" font-size="10.00">/Transforms/InlineIncludes</text>
<text text-anchor="middle" x="4754.88" y="-7.25" font-family="Helvetica,sans-Serif" font-size="10.00">Pass.cpp</text>
</a>
</g>
</g>
<!-- Node3&#45;&gt;Node7 -->
<g id="edge6_Node000003_Node000007" class="edge">
<title>Node3&#45;&gt;Node7</title>
<g id="a_edge6_Node000003_Node000007"><a xlink:title=" ">
<path fill="none" stroke="#63b8ff" d="M4256.66,-164.22C4419.96,-138.59 4475.44,-190.05 4625.88,-128.5 4670.4,-110.28 4711.73,-71.42 4735.09,-46.59"/>
<polygon fill="#63b8ff" stroke="#63b8ff" points="4256.54,-160.69 4247.24,-165.78 4257.68,-167.6 4256.54,-160.69"/>
</a>
</g>
</g>
<!-- Node8 -->
<g id="Node000008" class="node">
<title>Node8</title>
<g id="a_Node000008"><a xlink:href="IncludeHelper_8cpp.html" target="_top" xlink:title="This file contains the implementation for file include helpers.">
<polygon fill="white" stroke="#666666" points="4456,-122.12 4329.75,-122.12 4329.75,-88.62 4456,-88.62 4456,-122.12"/>
<text text-anchor="start" x="4337.75" y="-108.62" font-family="Helvetica,sans-Serif" font-size="10.00">lib/Dialect/Include</text>
<text text-anchor="middle" x="4392.88" y="-95.88" font-family="Helvetica,sans-Serif" font-size="10.00">/Util/IncludeHelper.cpp</text>
</a>
</g>
</g>
<!-- Node3&#45;&gt;Node8 -->
<g id="edge7_Node000003_Node000008" class="edge">
<title>Node3&#45;&gt;Node8</title>
<g id="a_edge7_Node000003_Node000008"><a xlink:title=" ">
<path fill="none" stroke="#63b8ff" d="M4245.83,-160.15C4278.12,-148.34 4318.41,-133.61 4348.65,-122.55"/>
<polygon fill="#63b8ff" stroke="#63b8ff" points="4244.82,-156.8 4236.63,-163.52 4247.22,-163.37 4244.82,-156.8"/>
</a>
</g>
</g>
<!-- Node9 -->
<g id="Node000009" class="node">
<title>Node9</title>
<g id="a_Node000009"><a xlink:href="SymbolLookup_8cpp.html" target="_top" xlink:title="This file contains the implementations for symbol lookup helper functions.">
<polygon fill="white" stroke="#666666" points="4617.25,-115.75 4474.5,-115.75 4474.5,-95 4617.25,-95 4617.25,-115.75"/>
<text text-anchor="middle" x="4545.88" y="-102.25" font-family="Helvetica,sans-Serif" font-size="10.00">lib/Util/SymbolLookup.cpp</text>
</a>
</g>
</g>
<!-- Node3&#45;&gt;Node9 -->
<g id="edge8_Node000003_Node000009" class="edge">
<title>Node3&#45;&gt;Node9</title>
<g id="a_edge8_Node000003_Node000009"><a xlink:title=" ">
<path fill="none" stroke="#63b8ff" d="M4257.03,-163.93C4348.98,-145.23 4375.53,-148.28 4464.88,-128.5 4480.82,-124.97 4498.31,-120.3 4512.95,-116.15"/>
<polygon fill="#63b8ff" stroke="#63b8ff" points="4256.36,-160.5 4247.28,-165.95 4257.78,-167.35 4256.36,-160.5"/>
</a>
</g>
</g>
<!-- Node11 -->
<g id="Node000011" class="node">
<title>Node11</title>
<g id="a_Node000011"><a xlink:href="AnalysisPasses_8h.html" target="_top" xlink:title=" ">
<polygon fill="white" stroke="#666666" points="3791.75,-122.12 3676,-122.12 3676,-88.62 3791.75,-88.62 3791.75,-122.12"/>
<text text-anchor="start" x="3684" y="-108.62" font-family="Helvetica,sans-Serif" font-size="10.00">include/llzk/Analysis</text>
<text text-anchor="middle" x="3733.88" y="-95.88" font-family="Helvetica,sans-Serif" font-size="10.00">/AnalysisPasses.h</text>
</a>
</g>
</g>
<!-- Node10&#45;&gt;Node11 -->
<g id="edge10_Node000010_Node000011" class="edge">
<title>Node10&#45;&gt;Node11</title>
<g id="a_edge10_Node000010_Node000011"><a xlink:title=" ">
<path fill="none" stroke="#63b8ff" d="M3275.26,-168.88C3386.17,-153.77 3579.42,-127.43 3675.78,-114.29"/>
<polygon fill="#63b8ff" stroke="#63b8ff" points="3275.06,-165.38 3265.63,-170.2 3276.01,-172.31 3275.06,-165.38"/>
</a>
</g>
</g>
<!-- Node19 -->
<g id="Node000019" class="node">
<title>Node19</title>
<g id="a_Node000019"><a xlink:href="Array_2Transforms_2TransformationPasses_8h.html" target="_top" xlink:title=" ">
<polygon fill="white" stroke="#666666" points="3082.25,-128.5 2903.5,-128.5 2903.5,-82.25 3082.25,-82.25 3082.25,-128.5"/>
<text text-anchor="start" x="2911.5" y="-115" font-family="Helvetica,sans-Serif" font-size="10.00">include/llzk/Dialect</text>
<text text-anchor="start" x="2911.5" y="-102.25" font-family="Helvetica,sans-Serif" font-size="10.00">/Array/Transforms/Transformation</text>
<text text-anchor="middle" x="2992.88" y="-89.5" font-family="Helvetica,sans-Serif" font-size="10.00">Passes.h</text>
</a>
</g>
</g>
<!-- Node10&#45;&gt;Node19 -->
<g id="edge18_Node000010_Node000019" class="edge">
<title>Node10&#45;&gt;Node19</title>
<g id="a_edge18_Node000010_Node000019"><a xlink:title=" ">
<path fill="none" stroke="#63b8ff" d="M3154.8,-166.49C3126.46,-155.97 3086.78,-141.24 3053.79,-128.99"/>
<polygon fill="#63b8ff" stroke="#63b8ff" points="3153.44,-169.71 3164.03,-169.91 3155.87,-163.15 3153.44,-169.71"/>
</a>
</g>
</g>
<!-- Node22 -->
<g id="Node000022" class="node">
<title>Node22</title>
<g id="a_Node000022"><a xlink:href="InlineIncludesPass_8h.html" target="_top" xlink:title=" ">
<polygon fill="white" stroke="#666666" points="3991.75,-128.5 3810,-128.5 3810,-82.25 3991.75,-82.25 3991.75,-128.5"/>
<text text-anchor="start" x="3818" y="-115" font-family="Helvetica,sans-Serif" font-size="10.00">include/llzk/Dialect</text>
<text text-anchor="start" x="3818" y="-102.25" font-family="Helvetica,sans-Serif" font-size="10.00">/Include/Transforms/InlineIncludes</text>
<text text-anchor="middle" x="3900.88" y="-89.5" font-family="Helvetica,sans-Serif" font-size="10.00">Pass.h</text>
</a>
</g>
</g>
<!-- Node10&#45;&gt;Node22 -->
<g id="edge22_Node000010_Node000022" class="edge">
<title>Node10&#45;&gt;Node22</title>
<g id="a_edge22_Node000010_Node000022"><a xlink:title=" ">
<path fill="none" stroke="#63b8ff" d="M3280.37,-176.42C3399.27,-170.44 3616.94,-156.54 3800.88,-128.5 3803.78,-128.06 3806.72,-127.58 3809.68,-127.08"/>
<polygon fill="#63b8ff" stroke="#63b8ff" points="3280.5,-172.91 3270.68,-176.9 3280.84,-179.91 3280.5,-172.91"/>
</a>
</g>
</g>
<!-- Node23 -->
<g id="Node000023" class="node">
<title>Node23</title>
<g id="a_Node000023"><a xlink:href="Polymorphic_2Transforms_2TransformationPasses_8h.html" target="_top" xlink:title=" ">
<polygon fill="white" stroke="#666666" points="518.25,-128.5 381.5,-128.5 381.5,-82.25 518.25,-82.25 518.25,-128.5"/>
<text text-anchor="start" x="389.5" y="-115" font-family="Helvetica,sans-Serif" font-size="10.00">include/llzk/Dialect</text>
<text text-anchor="start" x="389.5" y="-102.25" font-family="Helvetica,sans-Serif" font-size="10.00">/Polymorphic/Transforms</text>
<text text-anchor="middle" x="449.88" y="-89.5" font-family="Helvetica,sans-Serif" font-size="10.00">/TransformationPasses.h</text>
</a>
</g>
</g>
<!-- Node10&#45;&gt;Node23 -->
<g id="edge26_Node000010_Node000023" class="edge">
<title>Node10&#45;&gt;Node23</title>
<g id="a_edge26_Node000010_Node000023"><a xlink:title=" ">
<path fill="none" stroke="#63b8ff" d="M3103.13,-177.86C2682.33,-166.52 892.79,-118.31 518.63,-108.23"/>
<polygon fill="#63b8ff" stroke="#63b8ff" points="3102.99,-181.36 3113.08,-178.13 3103.18,-174.36 3102.99,-181.36"/>
</a>
</g>
</g>
<!-- Node27 -->
<g id="Node000027" class="node">
<title>Node27</title>
<g id="a_Node000027"><a xlink:href="LLZKTransformationPasses_8h.html" target="_top" xlink:title=" ">
<polygon fill="white" stroke="#666666" points="1855.75,-122.12 1698,-122.12 1698,-88.62 1855.75,-88.62 1855.75,-122.12"/>
<text text-anchor="start" x="1706" y="-108.62" font-family="Helvetica,sans-Serif" font-size="10.00">include/llzk/Transforms</text>
<text text-anchor="middle" x="1776.88" y="-95.88" font-family="Helvetica,sans-Serif" font-size="10.00">/LLZKTransformationPasses.h</text>
</a>
</g>
</g>
<!-- Node10&#45;&gt;Node27 -->
<g id="edge31_Node000010_Node000027" class="edge">
<title>Node10&#45;&gt;Node27</title>
<g id="a_edge31_Node000010_Node000027"><a xlink:title=" ">
<path fill="none" stroke="#63b8ff" d="M3103.4,-175.63C2846.18,-162.2 2101.34,-123.31 1856.16,-110.51"/>
<polygon fill="#63b8ff" stroke="#63b8ff" points="3102.86,-179.11 3113.03,-176.13 3103.23,-172.12 3102.86,-179.11"/>
</a>
</g>
</g>
<!-- Node40 -->
<g id="Node000040" class="node">
<title>Node40</title>
<g id="a_Node000040"><a xlink:href="LLZKValidationPasses_8h.html" target="_top" xlink:title=" ">
<polygon fill="white" stroke="#666666" points="3258.75,-122.12 3125,-122.12 3125,-88.62 3258.75,-88.62 3258.75,-122.12"/>
<text text-anchor="start" x="3133" y="-108.62" font-family="Helvetica,sans-Serif" font-size="10.00">include/llzk/Validators</text>
<text text-anchor="middle" x="3191.88" y="-95.88" font-family="Helvetica,sans-Serif" font-size="10.00">/LLZKValidationPasses.h</text>
</a>
</g>
</g>
<!-- Node10&#45;&gt;Node40 -->
<g id="edge45_Node000010_Node000040" class="edge">
<title>Node10&#45;&gt;Node40</title>
<g id="a_edge45_Node000010_Node000040"><a xlink:title=" ">
<path fill="none" stroke="#63b8ff" d="M3191.88,-159.26C3191.88,-147.6 3191.88,-133.31 3191.88,-122.53"/>
<polygon fill="#63b8ff" stroke="#63b8ff" points="3188.38,-159.08 3191.88,-169.08 3195.38,-159.08 3188.38,-159.08"/>
</a>
</g>
</g>
<!-- Node12 -->
<g id="Node000012" class="node">
<title>Node12</title>
<g id="a_Node000012"><a xlink:href="CallGraphPasses_8cpp.html" target="_top" xlink:title="This file implements the &#45;llzk&#45;print&#45;call&#45;graph and &#45;llzk&#45;print&#45;call&#45;graph&#45;sccs passes.">
<polygon fill="white" stroke="#666666" points="3623.12,-33.5 3446.62,-33.5 3446.62,-12.75 3623.12,-12.75 3623.12,-33.5"/>
<text text-anchor="middle" x="3534.88" y="-20" font-family="Helvetica,sans-Serif" font-size="10.00">lib/Analysis/CallGraphPasses.cpp</text>
</a>
</g>
</g>
<!-- Node11&#45;&gt;Node12 -->
<g id="edge11_Node000011_Node000012" class="edge">
<title>Node11&#45;&gt;Node12</title>
<g id="a_edge11_Node000011_Node000012"><a xlink:title=" ">
<path fill="none" stroke="#63b8ff" d="M3683.04,-83.88C3643.28,-67.84 3589.76,-46.26 3559.12,-33.9"/>
<polygon fill="#63b8ff" stroke="#63b8ff" points="3681.62,-87.08 3692.2,-87.57 3684.24,-80.58 3681.62,-87.08"/>
</a>
</g>
</g>
<!-- Node13 -->
<g id="Node000013" class="node">
<title>Node13</title>
<g id="a_Node000013"><a xlink:href="ConstraintDependencyGraphPass_8cpp.html" target="_top" xlink:title="This file implements the &#45;llzk&#45;print&#45;constraint&#45;dependency&#45;graphs pass.">
<polygon fill="white" stroke="#666666" points="3827,-39.88 3640.75,-39.88 3640.75,-6.38 3827,-6.38 3827,-39.88"/>
<text text-anchor="start" x="3648.75" y="-26.38" font-family="Helvetica,sans-Serif" font-size="10.00">lib/Analysis/ConstraintDependency</text>
<text text-anchor="middle" x="3733.88" y="-13.62" font-family="Helvetica,sans-Serif" font-size="10.00">GraphPass.cpp</text>
</a>
</g>
</g>
<!-- Node11&#45;&gt;Node13 -->
<g id="edge12_Node000011_Node000013" class="edge">
<title>Node11&#45;&gt;Node13</title>
<g id="a_edge12_Node000011_Node000013"><a xlink:title=" ">
<path fill="none" stroke="#63b8ff" d="M3733.88,-76.75C3733.88,-64.61 3733.88,-50.78 3733.88,-40.34"/>
<polygon fill="#63b8ff" stroke="#63b8ff" points="3730.38,-76.62 3733.88,-86.62 3737.38,-76.62 3730.38,-76.62"/>
</a>
</g>
</g>
<!-- Node14 -->
<g id="Node000014" class="node">
<title>Node14</title>
<g id="a_Node000014"><a xlink:href="IntervalAnalysisPass_8cpp.html" target="_top" xlink:title="This file implements the &#45;llzk&#45;print&#45;interval&#45;analysis pass.">
<polygon fill="white" stroke="#666666" points="3998.88,-39.88 3844.88,-39.88 3844.88,-6.38 3998.88,-6.38 3998.88,-39.88"/>
<text text-anchor="start" x="3852.88" y="-26.38" font-family="Helvetica,sans-Serif" font-size="10.00">lib/Analysis/IntervalAnalysis</text>
<text text-anchor="middle" x="3921.88" y="-13.62" font-family="Helvetica,sans-Serif" font-size="10.00">Pass.cpp</text>
</a>
</g>
</g>
<!-- Node11&#45;&gt;Node14 -->
<g id="edge13_Node000011_Node000014" class="edge">
<title>Node11&#45;&gt;Node14</title>
<g id="a_edge13_Node000011_Node000014"><a xlink:title=" ">
<path fill="none" stroke="#63b8ff" d="M3782.27,-83.72C3813.89,-70.22 3854.6,-52.84 3883.89,-40.34"/>
<polygon fill="#63b8ff" stroke="#63b8ff" points="3781.13,-80.4 3773.31,-87.54 3783.88,-86.83 3781.13,-80.4"/>
</a>
</g>
</g>
<!-- Node15 -->
<g id="Node000015" class="node">
<title>Node15</title>
<g id="a_Node000015"><a xlink:href="PredecessorAnalysisPass_8cpp.html" target="_top" xlink:title="This file implements the &#45;llzk&#45;print&#45;predecessors pass.">
<polygon fill="white" stroke="#666666" points="4151.12,-39.88 4016.62,-39.88 4016.62,-6.38 4151.12,-6.38 4151.12,-39.88"/>
<text text-anchor="start" x="4024.62" y="-26.38" font-family="Helvetica,sans-Serif" font-size="10.00">lib/Analysis/Predecessor</text>
<text text-anchor="middle" x="4083.88" y="-13.62" font-family="Helvetica,sans-Serif" font-size="10.00">AnalysisPass.cpp</text>
</a>
</g>
</g>
<!-- Node11&#45;&gt;Node15 -->
<g id="edge14_Node000011_Node000015" class="edge">
<title>Node11&#45;&gt;Node15</title>
<g id="a_edge14_Node000011_Node000015"><a xlink:title=" ">
<path fill="none" stroke="#63b8ff" d="M3790.87,-84.93C3794.24,-83.97 3797.59,-83.07 3800.88,-82.25 3891.45,-59.55 3916.91,-67.33 4007.88,-46.25 4015.37,-44.51 4023.23,-42.48 4030.92,-40.36"/>
<polygon fill="#63b8ff" stroke="#63b8ff" points="3790.15,-81.49 3781.56,-87.7 3792.15,-88.2 3790.15,-81.49"/>
</a>
</g>
</g>
<!-- Node16 -->
<g id="Node000016" class="node">
<title>Node16</title>
<g id="a_Node000016"><a xlink:href="SymbolDefTreePass_8cpp.html" target="_top" xlink:title="This file implements the &#45;llzk&#45;print&#45;symbol&#45;def&#45;tree pass.">
<polygon fill="white" stroke="#666666" points="4318.62,-39.88 4169.12,-39.88 4169.12,-6.38 4318.62,-6.38 4318.62,-39.88"/>
<text text-anchor="start" x="4177.12" y="-26.38" font-family="Helvetica,sans-Serif" font-size="10.00">lib/Analysis/SymbolDefTree</text>
<text text-anchor="middle" x="4243.88" y="-13.62" font-family="Helvetica,sans-Serif" font-size="10.00">Pass.cpp</text>
</a>
</g>
</g>
<!-- Node11&#45;&gt;Node16 -->
<g id="edge15_Node000011_Node000016" class="edge">
<title>Node11&#45;&gt;Node16</title>
<g id="a_edge15_Node000011_Node000016"><a xlink:title=" ">
<path fill="none" stroke="#63b8ff" d="M3789.2,-85.07C3793.13,-84.02 3797.04,-83.06 3800.88,-82.25 3957.73,-48.91 4002.07,-74.76 4159.88,-46.25 4168.78,-44.64 4178.12,-42.57 4187.21,-40.34"/>
<polygon fill="#63b8ff" stroke="#63b8ff" points="3788.29,-81.69 3779.64,-87.82 3790.22,-88.42 3788.29,-81.69"/>
</a>
</g>
</g>
<!-- Node17 -->
<g id="Node000017" class="node">
<title>Node17</title>
<g id="a_Node000017"><a xlink:href="SymbolUseGraphPass_8cpp.html" target="_top" xlink:title="This file implements the &#45;llzk&#45;print&#45;symbol&#45;use&#45;graph pass.">
<polygon fill="white" stroke="#666666" points="4496.88,-39.88 4336.88,-39.88 4336.88,-6.38 4496.88,-6.38 4496.88,-39.88"/>
<text text-anchor="start" x="4344.88" y="-26.38" font-family="Helvetica,sans-Serif" font-size="10.00">lib/Analysis/SymbolUseGraph</text>
<text text-anchor="middle" x="4416.88" y="-13.62" font-family="Helvetica,sans-Serif" font-size="10.00">Pass.cpp</text>
</a>
</g>
</g>
<!-- Node11&#45;&gt;Node17 -->
<g id="edge16_Node000011_Node000017" class="edge">
<title>Node11&#45;&gt;Node17</title>
<g id="a_edge16_Node000011_Node000017"><a xlink:title=" ">
<path fill="none" stroke="#63b8ff" d="M3788.62,-85.07C3792.74,-84 3796.85,-83.04 3800.88,-82.25 4031.26,-37.09 4095.96,-82.71 4327.88,-46.25 4337.63,-44.72 4347.88,-42.63 4357.81,-40.34"/>
<polygon fill="#63b8ff" stroke="#63b8ff" points="3787.91,-81.64 3779.24,-87.73 3789.82,-88.37 3787.91,-81.64"/>
</a>
</g>
</g>
<!-- Node18 -->
<g id="Node000018" class="node">
<title>Node18</title>
<g id="a_Node000018"><a xlink:href="llzk-opt_8cpp.html" target="_top" xlink:title="This file implements a version of the mlir&#45;opt tool configured for use on LLZK files.">
<polygon fill="white" stroke="#666666" points="3110.88,-39.88 3010.88,-39.88 3010.88,-6.38 3110.88,-6.38 3110.88,-39.88"/>
<text text-anchor="start" x="3018.88" y="-26.38" font-family="Helvetica,sans-Serif" font-size="10.00">tools/llzk&#45;opt/llzk</text>
<text text-anchor="middle" x="3060.88" y="-13.62" font-family="Helvetica,sans-Serif" font-size="10.00">&#45;opt.cpp</text>
</a>
</g>
</g>
<!-- Node11&#45;&gt;Node18 -->
<g id="edge17_Node000011_Node000018" class="edge">
<title>Node11&#45;&gt;Node18</title>
<g id="a_edge17_Node000011_Node000018"><a xlink:title=" ">
<path fill="none" stroke="#63b8ff" d="M3664.54,-103.74C3549.79,-101.39 3313.8,-90.96 3119.88,-46.25 3113.27,-44.73 3106.4,-42.64 3099.78,-40.36"/>
<polygon fill="#63b8ff" stroke="#63b8ff" points="3664.35,-107.24 3674.41,-103.93 3664.48,-100.24 3664.35,-107.24"/>
</a>
</g>
</g>
<!-- Node19&#45;&gt;Node18 -->
<g id="edge21_Node000019_Node000018" class="edge">
<title>Node19&#45;&gt;Node18</title>
<g id="a_edge21_Node000019_Node000018"><a xlink:title=" ">
<path fill="none" stroke="#63b8ff" d="M3019.23,-73.27C3028.79,-61.99 3039.19,-49.72 3047.21,-40.25"/>
<polygon fill="#63b8ff" stroke="#63b8ff" points="3016.59,-70.97 3012.8,-80.87 3021.93,-75.5 3016.59,-70.97"/>
</a>
</g>
</g>
<!-- Node20 -->
<g id="Node000020" class="node">
<title>Node20</title>
<g id="a_Node000020"><a xlink:href="Array_8cpp.html" target="_top" xlink:title=" ">
<polygon fill="white" stroke="#666666" points="2992.38,-33.5 2853.38,-33.5 2853.38,-12.75 2992.38,-12.75 2992.38,-33.5"/>
<text text-anchor="middle" x="2922.88" y="-20" font-family="Helvetica,sans-Serif" font-size="10.00">lib/CAPI/Dialect/Array.cpp</text>
</a>
</g>
</g>
<!-- Node19&#45;&gt;Node20 -->
<g id="edge19_Node000019_Node000020" class="edge">
<title>Node19&#45;&gt;Node20</title>
<g id="a_edge19_Node000019_Node000020"><a xlink:title=" ">
<path fill="none" stroke="#63b8ff" d="M2965.99,-73.55C2953.74,-59.5 2940.08,-43.85 2931.49,-34"/>
<polygon fill="#63b8ff" stroke="#63b8ff" points="2963.17,-75.65 2972.38,-80.88 2968.45,-71.04 2963.17,-75.65"/>
</a>
</g>
</g>
<!-- Node19&#45;&gt;Node21 -->
<g id="edge20_Node000019_Node000021" class="edge">
<title>Node19&#45;&gt;Node21</title>
<g id="a_edge20_Node000019_Node000021"><a xlink:title=" ">
<path fill="none" stroke="#63b8ff" d="M2916.81,-78.18C2880.55,-65.69 2838.33,-51.15 2806.82,-40.3"/>
<polygon fill="#63b8ff" stroke="#63b8ff" points="2915.33,-81.37 2925.92,-81.31 2917.61,-74.75 2915.33,-81.37"/>
</a>
</g>
</g>
<!-- Node22&#45;&gt;Node4 -->
<g id="edge23_Node000022_Node000004" class="edge">
<title>Node22&#45;&gt;Node4</title>
<g id="a_edge23_Node000022_Node000004"><a xlink:title=" ">
<path fill="none" stroke="#63b8ff" d="M4003.32,-82.62C4004.18,-82.49 4005.03,-82.37 4005.88,-82.25 4226.5,-51.21 4286.09,-82.78 4505.88,-46.25 4523.43,-43.33 4542.65,-38.4 4558.27,-33.94"/>
<polygon fill="#63b8ff" stroke="#63b8ff" points="4002.92,-79.14 3993.58,-84.14 4004,-86.05 4002.92,-79.14"/>
</a>
</g>
</g>
<!-- Node22&#45;&gt;Node7 -->
<g id="edge24_Node000022_Node000007" class="edge">
<title>Node22&#45;&gt;Node7</title>
<g id="a_edge24_Node000022_Node000007"><a xlink:title=" ">
<path fill="none" stroke="#63b8ff" d="M4003.03,-86.8C4015.09,-85.08 4027.24,-83.51 4038.88,-82.25 4319.91,-51.84 4394.88,-91.74 4673.88,-46.25 4676.9,-45.76 4679.97,-45.2 4683.06,-44.58"/>
<polygon fill="#63b8ff" stroke="#63b8ff" points="4002.89,-83.28 3993.5,-88.2 4003.9,-90.21 4002.89,-83.28"/>
</a>
</g>
</g>
<!-- Node22&#45;&gt;Node18 -->
<g id="edge25_Node000022_Node000018" class="edge">
<title>Node22&#45;&gt;Node18</title>
<g id="a_edge25_Node000022_Node000018"><a xlink:title=" ">
<path fill="none" stroke="#63b8ff" d="M3798.48,-82.06C3498.47,-42.99 3412.95,-107.43 3119.88,-46.25 3112.91,-44.8 3105.68,-42.66 3098.77,-40.27"/>
<polygon fill="#63b8ff" stroke="#63b8ff" points="3797.83,-85.5 3808.2,-83.35 3798.75,-78.56 3797.83,-85.5"/>
</a>
</g>
</g>
<!-- Node23&#45;&gt;Node18 -->
<g id="edge30_Node000023_Node000018" class="edge">
<title>Node23&#45;&gt;Node18</title>
<g id="a_edge30_Node000023_Node000018"><a xlink:title=" ">
<path fill="none" stroke="#63b8ff" d="M529.82,-102.91C955.5,-95.09 2938.73,-58.07 3000.88,-46.25 3008.07,-44.88 3015.55,-42.75 3022.68,-40.33"/>
<polygon fill="#63b8ff" stroke="#63b8ff" points="530.02,-99.41 520.09,-103.09 530.15,-106.41 530.02,-99.41"/>
</a>
</g>
</g>
<!-- Node24 -->
<g id="Node000024" class="node">
<title>Node24</title>
<g id="a_Node000024"><a xlink:href="Poly_8cpp.html" target="_top" xlink:title=" ">
<polygon fill="white" stroke="#666666" points="133.75,-33.5 0,-33.5 0,-12.75 133.75,-12.75 133.75,-33.5"/>
<text text-anchor="middle" x="66.88" y="-20" font-family="Helvetica,sans-Serif" font-size="10.00">lib/CAPI/Dialect/Poly.cpp</text>
</a>
</g>
</g>
<!-- Node23&#45;&gt;Node24 -->
<g id="edge27_Node000023_Node000024" class="edge">
<title>Node23&#45;&gt;Node24</title>
<g id="a_edge27_Node000023_Node000024"><a xlink:title=" ">
<path fill="none" stroke="#63b8ff" d="M369.89,-91.4C307.67,-80.79 219.35,-64.58 142.88,-46.25 128.04,-42.7 111.78,-38.06 98.12,-33.96"/>
<polygon fill="#63b8ff" stroke="#63b8ff" points="369.25,-94.84 379.7,-93.06 370.42,-87.94 369.25,-94.84"/>
</a>
</g>
</g>
<!-- Node25 -->
<g id="Node000025" class="node">
<title>Node25</title>
<g id="a_Node000025"><a xlink:href="EmptyTemplateRemovalPass_8cpp.html" target="_top" xlink:title="This file implements the &#45;llzk&#45;drop&#45;empty&#45;templates pass.">
<polygon fill="white" stroke="#666666" points="347.88,-46.25 151.88,-46.25 151.88,0 347.88,0 347.88,-46.25"/>
<text text-anchor="start" x="159.88" y="-32.75" font-family="Helvetica,sans-Serif" font-size="10.00">lib/Dialect/Polymorphic</text>
<text text-anchor="start" x="159.88" y="-20" font-family="Helvetica,sans-Serif" font-size="10.00">/Transforms/EmptyTemplateRemoval</text>
<text text-anchor="middle" x="249.88" y="-7.25" font-family="Helvetica,sans-Serif" font-size="10.00">Pass.cpp</text>
</a>
</g>
</g>
<!-- Node23&#45;&gt;Node25 -->
<g id="edge28_Node000023_Node000025" class="edge">
<title>Node23&#45;&gt;Node25</title>
<g id="a_edge28_Node000023_Node000025"><a xlink:title=" ">
<path fill="none" stroke="#63b8ff" d="M383.13,-77.59C358.13,-67.56 329.99,-56.27 306.04,-46.66"/>
<polygon fill="#63b8ff" stroke="#63b8ff" points="381.64,-80.77 392.23,-81.24 384.25,-74.27 381.64,-80.77"/>
</a>
</g>
</g>
<!-- Node26 -->
<g id="Node000026" class="node">
<title>Node26</title>
<g id="a_Node000026"><a xlink:href="FlatteningPass_8cpp.html" target="_top" xlink:title="This file implements the &#45;llzk&#45;flatten pass.">
<polygon fill="white" stroke="#666666" points="533.62,-39.88 366.12,-39.88 366.12,-6.38 533.62,-6.38 533.62,-39.88"/>
<text text-anchor="start" x="374.12" y="-26.38" font-family="Helvetica,sans-Serif" font-size="10.00">lib/Dialect/Polymorphic</text>
<text text-anchor="middle" x="449.88" y="-13.62" font-family="Helvetica,sans-Serif" font-size="10.00">/Transforms/FlatteningPass.cpp</text>
</a>
</g>
</g>
<!-- Node23&#45;&gt;Node26 -->
<g id="edge29_Node000023_Node000026" class="edge">
<title>Node23&#45;&gt;Node26</title>
<g id="a_edge29_Node000023_Node000026"><a xlink:title=" ">
<path fill="none" stroke="#63b8ff" d="M449.88,-70.57C449.88,-60.07 449.88,-48.97 449.88,-40.25"/>
<polygon fill="#63b8ff" stroke="#63b8ff" points="446.38,-70.51 449.88,-80.51 453.38,-70.51 446.38,-70.51"/>
</a>
</g>
</g>
<!-- Node27&#45;&gt;Node18 -->
<g id="edge44_Node000027_Node000018" class="edge">
<title>Node27&#45;&gt;Node18</title>
<g id="a_edge44_Node000027_Node000018"><a xlink:title=" ">
<path fill="none" stroke="#63b8ff" d="M1867.58,-103.65C2112.66,-101.12 2784.23,-90.25 3000.88,-46.25 3007.95,-44.81 3015.3,-42.68 3022.33,-40.3"/>
<polygon fill="#63b8ff" stroke="#63b8ff" points="1867.71,-100.15 1857.75,-103.75 1867.78,-107.15 1867.71,-100.15"/>
</a>
</g>
</g>
<!-- Node28 -->
<g id="Node000028" class="node">
<title>Node28</title>
<g id="a_Node000028"><a xlink:href="Transforms_8cpp.html" target="_top" xlink:title=" ">
<polygon fill="white" stroke="#666666" points="1072.25,-33.5 941.5,-33.5 941.5,-12.75 1072.25,-12.75 1072.25,-33.5"/>
<text text-anchor="middle" x="1006.88" y="-20" font-family="Helvetica,sans-Serif" font-size="10.00">lib/CAPI/Transforms.cpp</text>
</a>
</g>
</g>
<!-- Node27&#45;&gt;Node28 -->
<g id="edge32_Node000027_Node000028" class="edge">
<title>Node27&#45;&gt;Node28</title>
<g id="a_edge32_Node000027_Node000028"><a xlink:title=" ">
<path fill="none" stroke="#63b8ff" d="M1686.25,-102.78C1552.66,-99.09 1295.48,-86.84 1080.88,-46.25 1065.33,-43.31 1048.39,-38.38 1034.65,-33.92"/>
<polygon fill="#63b8ff" stroke="#63b8ff" points="1686.01,-106.27 1696.1,-103.04 1686.2,-99.28 1686.01,-106.27"/>
</a>
</g>
</g>
<!-- Node27&#45;&gt;Node29 -->
<g id="edge33_Node000027_Node000029" class="edge">
<title>Node27&#45;&gt;Node29</title>
<g id="a_edge33_Node000027_Node000029"><a xlink:title=" ">
<path fill="none" stroke="#63b8ff" d="M1867.16,-99.78C1980.1,-92.98 2179.06,-77.5 2346.88,-46.25 2363.5,-43.15 2381.69,-38.32 2396.61,-33.96"/>
<polygon fill="#63b8ff" stroke="#63b8ff" points="1867.12,-96.28 1857.34,-100.36 1867.53,-103.26 1867.12,-96.28"/>
</a>
</g>
</g>
<!-- Node30 -->
<g id="Node000030" class="node">
<title>Node30</title>
<g id="a_Node000030"><a xlink:href="LLZKComputeConstrainToProductPass_8cpp.html" target="_top" xlink:title="This file implements the &#45;llzk&#45;product&#45;program pass.">
<polygon fill="white" stroke="#666666" points="1245.62,-39.88 1090.12,-39.88 1090.12,-6.38 1245.62,-6.38 1245.62,-39.88"/>
<text text-anchor="start" x="1098.12" y="-26.38" font-family="Helvetica,sans-Serif" font-size="10.00">lib/Transforms/LLZKCompute</text>
<text text-anchor="middle" x="1167.88" y="-13.62" font-family="Helvetica,sans-Serif" font-size="10.00">ConstrainToProductPass.cpp</text>
</a>
</g>
</g>
<!-- Node27&#45;&gt;Node30 -->
<g id="edge34_Node000027_Node000030" class="edge">
<title>Node27&#45;&gt;Node30</title>
<g id="a_edge34_Node000027_Node000030"><a xlink:title=" ">
<path fill="none" stroke="#63b8ff" d="M1686.23,-98.1C1581.67,-89.98 1404.9,-73.54 1254.88,-46.25 1245.83,-44.6 1236.33,-42.54 1227.07,-40.34"/>
<polygon fill="#63b8ff" stroke="#63b8ff" points="1685.93,-101.59 1696.17,-98.86 1686.46,-94.61 1685.93,-101.59"/>
</a>
</g>
</g>
<!-- Node31 -->
<g id="Node000031" class="node">
<title>Node31</title>
<g id="a_Node000031"><a xlink:href="LLZKEnforceNoOverwritePass_8cpp.html" target="_top" xlink:title="This file implements the &#45;llzk&#45;enforce&#45;no&#45;overwrite pass.">
<polygon fill="white" stroke="#666666" points="1412.25,-39.88 1263.5,-39.88 1263.5,-6.38 1412.25,-6.38 1412.25,-39.88"/>
<text text-anchor="start" x="1271.5" y="-26.38" font-family="Helvetica,sans-Serif" font-size="10.00">lib/Transforms/LLZKEnforce</text>
<text text-anchor="middle" x="1337.88" y="-13.62" font-family="Helvetica,sans-Serif" font-size="10.00">NoOverwritePass.cpp</text>
</a>
</g>
</g>
<!-- Node27&#45;&gt;Node31 -->
<g id="edge35_Node000027_Node000031" class="edge">
<title>Node27&#45;&gt;Node31</title>
<g id="a_edge35_Node000027_Node000031"><a xlink:title=" ">
<path fill="none" stroke="#63b8ff" d="M1686.31,-92.11C1614.08,-81.72 1510.53,-65.47 1420.88,-46.25 1412.71,-44.5 1404.14,-42.46 1395.75,-40.33"/>
<polygon fill="#63b8ff" stroke="#63b8ff" points="1685.73,-95.56 1696.13,-93.51 1686.72,-88.63 1685.73,-95.56"/>
</a>
</g>
</g>
<!-- Node32 -->
<g id="Node000032" class="node">
<title>Node32</title>
<g id="a_Node000032"><a xlink:href="LLZKFuseProductLoopsPass_8cpp.html" target="_top" xlink:title="This file implements the &#45;llzk&#45;fuse&#45;product&#45;loops pass.">
<polygon fill="white" stroke="#666666" points="1601.5,-39.88 1430.25,-39.88 1430.25,-6.38 1601.5,-6.38 1601.5,-39.88"/>
<text text-anchor="start" x="1438.25" y="-26.38" font-family="Helvetica,sans-Serif" font-size="10.00">lib/Transforms/LLZKFuseProduct</text>
<text text-anchor="middle" x="1515.88" y="-13.62" font-family="Helvetica,sans-Serif" font-size="10.00">LoopsPass.cpp</text>
</a>
</g>
</g>
<!-- Node27&#45;&gt;Node32 -->
<g id="edge36_Node000027_Node000032" class="edge">
<title>Node27&#45;&gt;Node32</title>
<g id="a_edge36_Node000027_Node000032"><a xlink:title=" ">
<path fill="none" stroke="#63b8ff" d="M1713.1,-84.77C1668.75,-71.13 1610.34,-53.17 1568.61,-40.34"/>
<polygon fill="#63b8ff" stroke="#63b8ff" points="1712.02,-88.1 1722.61,-87.69 1714.08,-81.41 1712.02,-88.1"/>
</a>
</g>
</g>
<!-- Node33 -->
<g id="Node000033" class="node">
<title>Node33</title>
<g id="a_Node000033"><a xlink:href="LLZKInlineStructsPass_8cpp.html" target="_top" xlink:title="This file implements the &#45;llzk&#45;inline&#45;structs pass.">
<polygon fill="white" stroke="#666666" points="1758.38,-39.88 1619.38,-39.88 1619.38,-6.38 1758.38,-6.38 1758.38,-39.88"/>
<text text-anchor="start" x="1627.38" y="-26.38" font-family="Helvetica,sans-Serif" font-size="10.00">lib/Transforms/LLZKInline</text>
<text text-anchor="middle" x="1688.88" y="-13.62" font-family="Helvetica,sans-Serif" font-size="10.00">StructsPass.cpp</text>
</a>
</g>
</g>
<!-- Node27&#45;&gt;Node33 -->
<g id="edge37_Node000027_Node000033" class="edge">
<title>Node27&#45;&gt;Node33</title>
<g id="a_edge37_Node000027_Node000033"><a xlink:title=" ">
<path fill="none" stroke="#63b8ff" d="M1750.68,-80.48C1736.47,-67.53 1719.29,-51.86 1706.66,-40.34"/>
<polygon fill="#63b8ff" stroke="#63b8ff" points="1748.2,-82.96 1757.95,-87.12 1752.92,-77.79 1748.2,-82.96"/>
</a>
</g>
</g>
<!-- Node27&#45;&gt;Node34 -->
<g id="edge38_Node000027_Node000034" class="edge">
<title>Node27&#45;&gt;Node34</title>
<g id="a_edge38_Node000027_Node000034"><a xlink:title=" ">
<path fill="none" stroke="#63b8ff" d="M1867.39,-102.45C2006.3,-98.32 2280.03,-85.5 2508.88,-46.25 2517.99,-44.69 2527.56,-42.58 2536.82,-40.29"/>
<polygon fill="#63b8ff" stroke="#63b8ff" points="1867.4,-98.95 1857.51,-102.74 1867.6,-105.95 1867.4,-98.95"/>
</a>
</g>
</g>
<!-- Node35 -->
<g id="Node000035" class="node">
<title>Node35</title>
<g id="a_Node000035"><a xlink:href="LLZKPolyLoweringPass_8cpp.html" target="_top" xlink:title="This file implements the &#45;llzk&#45;poly&#45;lowering pass.">
<polygon fill="white" stroke="#666666" points="1953.5,-39.88 1776.25,-39.88 1776.25,-6.38 1953.5,-6.38 1953.5,-39.88"/>
<text text-anchor="start" x="1784.25" y="-26.38" font-family="Helvetica,sans-Serif" font-size="10.00">lib/Transforms/LLZKPolyLowering</text>
<text text-anchor="middle" x="1864.88" y="-13.62" font-family="Helvetica,sans-Serif" font-size="10.00">Pass.cpp</text>
</a>
</g>
</g>
<!-- Node27&#45;&gt;Node35 -->
<g id="edge39_Node000027_Node000035" class="edge">
<title>Node27&#45;&gt;Node35</title>
<g id="a_edge39_Node000027_Node000035"><a xlink:title=" ">
<path fill="none" stroke="#63b8ff" d="M1803.07,-80.48C1817.28,-67.53 1834.46,-51.86 1847.09,-40.34"/>
<polygon fill="#63b8ff" stroke="#63b8ff" points="1800.83,-77.79 1795.8,-87.12 1805.55,-82.96 1800.83,-77.79"/>
</a>
</g>
</g>
<!-- Node36 -->
<g id="Node000036" class="node">
<title>Node36</title>
<g id="a_Node000036"><a xlink:href="LLZKRedundantOperationEliminationPass_8cpp.html" target="_top" xlink:title="This file implements the &#45;llzk&#45;duplicate&#45;op&#45;elim pass.">
<polygon fill="white" stroke="#666666" points="2136.12,-39.88 1971.62,-39.88 1971.62,-6.38 2136.12,-6.38 2136.12,-39.88"/>
<text text-anchor="start" x="1979.62" y="-26.38" font-family="Helvetica,sans-Serif" font-size="10.00">lib/Transforms/LLZKRedundant</text>
<text text-anchor="middle" x="2053.88" y="-13.62" font-family="Helvetica,sans-Serif" font-size="10.00">OperationEliminationPass.cpp</text>
</a>
</g>
</g>
<!-- Node27&#45;&gt;Node36 -->
<g id="edge40_Node000027_Node000036" class="edge">
<title>Node27&#45;&gt;Node36</title>
<g id="a_edge40_Node000027_Node000036"><a xlink:title=" ">
<path fill="none" stroke="#63b8ff" d="M1843.96,-84.94C1891.1,-71.28 1953.43,-53.22 1997.9,-40.34"/>
<polygon fill="#63b8ff" stroke="#63b8ff" points="1843.01,-81.57 1834.38,-87.71 1844.96,-88.29 1843.01,-81.57"/>
</a>
</g>
</g>
<!-- Node37 -->
<g id="Node000037" class="node">
<title>Node37</title>
<g id="a_Node000037"><a xlink:href="LLZKRedundantReadAndWriteEliminationPass_8cpp.html" target="_top" xlink:title="This file implements the &#45;llzk&#45;duplicate&#45;read&#45;write&#45;elim pass.">
<polygon fill="white" stroke="#666666" points="2337.5,-39.88 2154.25,-39.88 2154.25,-6.38 2337.5,-6.38 2337.5,-39.88"/>
<text text-anchor="start" x="2162.25" y="-26.38" font-family="Helvetica,sans-Serif" font-size="10.00">lib/Transforms/LLZKRedundant</text>
<text text-anchor="middle" x="2245.88" y="-13.62" font-family="Helvetica,sans-Serif" font-size="10.00">ReadAndWriteEliminationPass.cpp</text>
</a>
</g>
</g>
<!-- Node27&#45;&gt;Node37 -->
<g id="edge41_Node000027_Node000037" class="edge">
<title>Node27&#45;&gt;Node37</title>
<g id="a_edge41_Node000027_Node000037"><a xlink:title=" ">
<path fill="none" stroke="#63b8ff" d="M1867.29,-91.61C1941.94,-80.71 2050.56,-64.01 2144.88,-46.25 2154.4,-44.46 2164.4,-42.43 2174.25,-40.36"/>
<polygon fill="#63b8ff" stroke="#63b8ff" points="1866.96,-88.12 1857.57,-93.03 1867.97,-95.05 1866.96,-88.12"/>
</a>
</g>
</g>
<!-- Node38 -->
<g id="Node000038" class="node">
<title>Node38</title>
<g id="a_Node000038"><a xlink:href="LLZKTransformationPassPipelines_8cpp.html" target="_top" xlink:title="This file implements logic for registering several pass pipelines.">
<polygon fill="white" stroke="#666666" points="736.25,-39.88 551.5,-39.88 551.5,-6.38 736.25,-6.38 736.25,-39.88"/>
<text text-anchor="start" x="559.5" y="-26.38" font-family="Helvetica,sans-Serif" font-size="10.00">lib/Transforms/LLZKTransformation</text>
<text text-anchor="middle" x="643.88" y="-13.62" font-family="Helvetica,sans-Serif" font-size="10.00">PassPipelines.cpp</text>
</a>
</g>
</g>
<!-- Node27&#45;&gt;Node38 -->
<g id="edge42_Node000027_Node000038" class="edge">
<title>Node27&#45;&gt;Node38</title>
<g id="a_edge42_Node000027_Node000038"><a xlink:title=" ">
<path fill="none" stroke="#63b8ff" d="M1686.56,-104.11C1506.55,-102.53 1090.6,-93.55 744.88,-46.25 733.76,-44.73 722.05,-42.63 710.7,-40.33"/>
<polygon fill="#63b8ff" stroke="#63b8ff" points="1686.27,-107.61 1696.3,-104.19 1686.33,-100.61 1686.27,-107.61"/>
</a>
</g>
</g>
<!-- Node39 -->
<g id="Node000039" class="node">
<title>Node39</title>
<g id="a_Node000039"><a xlink:href="LLZKUnusedDeclarationEliminationPass_8cpp.html" target="_top" xlink:title="This file implements the &#45;llzk&#45;unused&#45;declaration&#45;elim pass.">
<polygon fill="white" stroke="#666666" points="923.75,-39.88 754,-39.88 754,-6.38 923.75,-6.38 923.75,-39.88"/>
<text text-anchor="start" x="762" y="-26.38" font-family="Helvetica,sans-Serif" font-size="10.00">lib/Transforms/LLZKUnused</text>
<text text-anchor="middle" x="838.88" y="-13.62" font-family="Helvetica,sans-Serif" font-size="10.00">DeclarationEliminationPass.cpp</text>
</a>
</g>
</g>
<!-- Node27&#45;&gt;Node39 -->
<g id="edge43_Node000027_Node000039" class="edge">
<title>Node27&#45;&gt;Node39</title>
<g id="a_edge43_Node000027_Node000039"><a xlink:title=" ">
<path fill="none" stroke="#63b8ff" d="M1686.25,-102.95C1531.13,-99.44 1205.08,-87.38 932.88,-46.25 922.68,-44.71 911.96,-42.63 901.55,-40.37"/>
<polygon fill="#63b8ff" stroke="#63b8ff" points="1685.99,-106.45 1696.06,-103.17 1686.14,-99.45 1685.99,-106.45"/>
</a>
</g>
</g>
<!-- Node40&#45;&gt;Node18 -->
<g id="edge48_Node000040_Node000018" class="edge">
<title>Node40&#45;&gt;Node18</title>
<g id="a_edge48_Node000040_Node000018"><a xlink:title=" ">
<path fill="none" stroke="#63b8ff" d="M3155.83,-82.3C3134.16,-69.02 3107.04,-52.41 3087.35,-40.34"/>
<polygon fill="#63b8ff" stroke="#63b8ff" points="3153.72,-85.11 3164.07,-87.34 3157.38,-79.14 3153.72,-85.11"/>
</a>
</g>
</g>
<!-- Node41 -->
<g id="Node000041" class="node">
<title>Node41</title>
<g id="a_Node000041"><a xlink:href="Validators_8cpp.html" target="_top" xlink:title=" ">
<polygon fill="white" stroke="#666666" points="3254.62,-33.5 3129.12,-33.5 3129.12,-12.75 3254.62,-12.75 3254.62,-33.5"/>
<text text-anchor="middle" x="3191.88" y="-20" font-family="Helvetica,sans-Serif" font-size="10.00">lib/CAPI/Validators.cpp</text>
</a>
</g>
</g>
<!-- Node40&#45;&gt;Node41 -->
<g id="edge46_Node000040_Node000041" class="edge">
<title>Node40&#45;&gt;Node41</title>
<g id="a_edge46_Node000040_Node000041"><a xlink:title=" ">
<path fill="none" stroke="#63b8ff" d="M3191.88,-76.9C3191.88,-61.96 3191.88,-44.41 3191.88,-33.79"/>
<polygon fill="#63b8ff" stroke="#63b8ff" points="3188.38,-76.62 3191.88,-86.62 3195.38,-76.62 3188.38,-76.62"/>
</a>
</g>
</g>
<!-- Node42 -->
<g id="Node000042" class="node">
<title>Node42</title>
<g id="a_Node000042"><a xlink:href="LLZKValidationPasses_8cpp.html" target="_top" xlink:title="This file contains the implementation for the &#45;llzk&#45;validate&#45;member&#45;writes pass.">
<polygon fill="white" stroke="#666666" points="3428.62,-39.88 3273.12,-39.88 3273.12,-6.38 3428.62,-6.38 3428.62,-39.88"/>
<text text-anchor="start" x="3281.12" y="-26.38" font-family="Helvetica,sans-Serif" font-size="10.00">lib/Validators/LLZKValidation</text>
<text text-anchor="middle" x="3350.88" y="-13.62" font-family="Helvetica,sans-Serif" font-size="10.00">Passes.cpp</text>
</a>
</g>
</g>
<!-- Node40&#45;&gt;Node42 -->
<g id="edge47_Node000040_Node000042" class="edge">
<title>Node40&#45;&gt;Node42</title>
<g id="a_edge47_Node000040_Node000042"><a xlink:title=" ">
<path fill="none" stroke="#63b8ff" d="M3234.2,-83.01C3260.74,-69.62 3294.41,-52.63 3318.75,-40.34"/>
<polygon fill="#63b8ff" stroke="#63b8ff" points="3232.75,-79.82 3225.4,-87.45 3235.91,-86.07 3232.75,-79.82"/>
</a>
</g>
</g>
</g>
</svg>
