<?xml version="1.0" encoding="UTF-8" standalone="no"?>
<!DOCTYPE svg PUBLIC "-//W3C//DTD SVG 1.1//EN"
 "http://www.w3.org/Graphics/SVG/1.1/DTD/svg11.dtd">
<!-- Generated by graphviz version 12.2.1 (0)
 -->
<!-- Title: include/llzk/Dialect/Include/IR/Ops.h Pages: 1 -->
<svg width="309pt" height="181pt"
 viewBox="0.00 0.00 308.75 180.50" xmlns="http://www.w3.org/2000/svg" xmlns:xlink="http://www.w3.org/1999/xlink">
<g id="graph0" class="graph" transform="scale(1 1) rotate(0) translate(4 176.5)">
<title>include/llzk/Dialect/Include/IR/Ops.h</title>
<!-- Node1 -->
<g id="Node000001" class="node">
<title>Node1</title>
<g id="a_Node000001"><a xlink:title=" ">
<polygon fill="#999999" stroke="#666666" points="236.75,-172.5 127.75,-172.5 127.75,-139 236.75,-139 236.75,-172.5"/>
<text text-anchor="start" x="135.75" y="-159" font-family="Helvetica,sans-Serif" font-size="10.00">include/llzk/Dialect</text>
<text text-anchor="middle" x="182.25" y="-146.25" font-family="Helvetica,sans-Serif" font-size="10.00">/Include/IR/Ops.h</text>
</a>
</g>
</g>
<!-- Node2 -->
<g id="Node000002" class="node">
<title>Node2</title>
<g id="a_Node000002"><a xlink:href="Include_2IR_2Dialect_8h.html" target="_top" xlink:title=" ">
<polygon fill="white" stroke="#666666" points="173.75,-103 64.75,-103 64.75,-69.5 173.75,-69.5 173.75,-103"/>
<text text-anchor="start" x="72.75" y="-89.5" font-family="Helvetica,sans-Serif" font-size="10.00">llzk/Dialect/Include</text>
<text text-anchor="middle" x="119.25" y="-76.75" font-family="Helvetica,sans-Serif" font-size="10.00">/IR/Dialect.h</text>
</a>
</g>
</g>
<!-- Node1&#45;&gt;Node2 -->
<g id="edge1_Node000001_Node000002" class="edge">
<title>Node1&#45;&gt;Node2</title>
<g id="a_edge1_Node000001_Node000002"><a xlink:title=" ">
<path fill="none" stroke="#63b8ff" d="M167.32,-138.75C159.71,-130.6 150.29,-120.51 141.82,-111.43"/>
<polygon fill="#63b8ff" stroke="#63b8ff" points="144.49,-109.16 135.11,-104.24 139.37,-113.94 144.49,-109.16"/>
</a>
</g>
</g>
<!-- Node5 -->
<g id="Node000005" class="node">
<title>Node5</title>
<g id="a_Node000005"><a xlink:href="Include_2IR_2Ops_8h_8inc.html" target="_top" xlink:title=" ">
<polygon fill="white" stroke="#666666" points="300.75,-103 191.75,-103 191.75,-69.5 300.75,-69.5 300.75,-103"/>
<text text-anchor="start" x="199.75" y="-89.5" font-family="Helvetica,sans-Serif" font-size="10.00">llzk/Dialect/Include</text>
<text text-anchor="middle" x="246.25" y="-76.75" font-family="Helvetica,sans-Serif" font-size="10.00">/IR/Ops.h.inc</text>
</a>
</g>
</g>
<!-- Node1&#45;&gt;Node5 -->
<g id="edge4_Node000001_Node000005" class="edge">
<title>Node1&#45;&gt;Node5</title>
<g id="a_edge4_Node000001_Node000005"><a xlink:title=" ">
<path fill="none" stroke="#63b8ff" d="M197.42,-138.75C205.15,-130.6 214.71,-120.51 223.32,-111.43"/>
<polygon fill="#63b8ff" stroke="#63b8ff" points="225.81,-113.89 230.15,-104.23 220.73,-109.08 225.81,-113.89"/>
</a>
</g>
</g>
<!-- Node3 -->
<g id="Node000003" class="node">
<title>Node3</title>
<g id="a_Node000003"><a xlink:title=" ">
<polygon fill="#e0e0e0" stroke="#999999" points="110.5,-27.12 0,-27.12 0,-6.38 110.5,-6.38 110.5,-27.12"/>
<text text-anchor="middle" x="55.25" y="-13.62" font-family="Helvetica,sans-Serif" font-size="10.00">mlir/IR/BuiltinOps.h</text>
</a>
</g>
</g>
<!-- Node2&#45;&gt;Node3 -->
<g id="edge2_Node000002_Node000003" class="edge">
<title>Node2&#45;&gt;Node3</title>
<g id="a_edge2_Node000002_Node000003"><a xlink:title=" ">
<path fill="none" stroke="#63b8ff" d="M104.08,-69.25C94.59,-59.24 82.34,-46.32 72.48,-35.92"/>
<polygon fill="#63b8ff" stroke="#63b8ff" points="75.02,-33.52 65.6,-28.67 69.94,-38.34 75.02,-33.52"/>
</a>
</g>
</g>
<!-- Node4 -->
<g id="Node000004" class="node">
<title>Node4</title>
<g id="a_Node000004"><a xlink:href="Include_2IR_2Dialect_8h_8inc.html" target="_top" xlink:title=" ">
<polygon fill="white" stroke="#666666" points="237.75,-33.5 128.75,-33.5 128.75,0 237.75,0 237.75,-33.5"/>
<text text-anchor="start" x="136.75" y="-20" font-family="Helvetica,sans-Serif" font-size="10.00">llzk/Dialect/Include</text>
<text text-anchor="middle" x="183.25" y="-7.25" font-family="Helvetica,sans-Serif" font-size="10.00">/IR/Dialect.h.inc</text>
</a>
</g>
</g>
<!-- Node2&#45;&gt;Node4 -->
<g id="edge3_Node000002_Node000004" class="edge">
<title>Node2&#45;&gt;Node4</title>
<g id="a_edge3_Node000002_Node000004"><a xlink:title=" ">
<path fill="none" stroke="#63b8ff" d="M134.42,-69.25C142.15,-61.1 151.71,-51.01 160.32,-41.93"/>
<polygon fill="#63b8ff" stroke="#63b8ff" points="162.81,-44.39 167.15,-34.73 157.73,-39.58 162.81,-44.39"/>
</a>
</g>
</g>
</g>
</svg>
