<?xml version="1.0" encoding="UTF-8" standalone="no"?>
<!DOCTYPE svg PUBLIC "-//W3C//DTD SVG 1.1//EN"
 "http://www.w3.org/Graphics/SVG/1.1/DTD/svg11.dtd">
<!-- Generated by graphviz version 12.2.1 (0)
 -->
<!-- Title: lib/Dialect/Include/Util/IncludeHelper.cpp Pages: 1 -->
<svg width="2514pt" height="250pt"
 viewBox="0.00 0.00 2513.50 250.00" xmlns="http://www.w3.org/2000/svg" xmlns:xlink="http://www.w3.org/1999/xlink">
<g id="graph0" class="graph" transform="scale(1 1) rotate(0) translate(4 246)">
<title>lib/Dialect/Include/Util/IncludeHelper.cpp</title>
<!-- Node1 -->
<g id="Node000001" class="node">
<title>Node1</title>
<g id="a_Node000001"><a xlink:title="This file contains the implementation for file include helpers.">
<polygon fill="#999999" stroke="#666666" points="1560.25,-242 1434,-242 1434,-208.5 1560.25,-208.5 1560.25,-242"/>
<text text-anchor="start" x="1442" y="-228.5" font-family="Helvetica,sans-Serif" font-size="10.00">lib/Dialect/Include</text>
<text text-anchor="middle" x="1497.12" y="-215.75" font-family="Helvetica,sans-Serif" font-size="10.00">/Util/IncludeHelper.cpp</text>
</a>
</g>
</g>
<!-- Node2 -->
<g id="Node000002" class="node">
<title>Node2</title>
<g id="a_Node000002"><a xlink:href="IncludeHelper_8h.html" target="_top" xlink:title=" ">
<polygon fill="white" stroke="#666666" points="524.62,-172.5 409.62,-172.5 409.62,-139 524.62,-139 524.62,-172.5"/>
<text text-anchor="start" x="417.62" y="-159" font-family="Helvetica,sans-Serif" font-size="10.00">llzk/Dialect/Include</text>
<text text-anchor="middle" x="467.12" y="-146.25" font-family="Helvetica,sans-Serif" font-size="10.00">/Util/IncludeHelper.h</text>
</a>
</g>
</g>
<!-- Node1&#45;&gt;Node2 -->
<g id="edge1_Node000001_Node000002" class="edge">
<title>Node1&#45;&gt;Node2</title>
<g id="a_edge1_Node000001_Node000002"><a xlink:title=" ">
<path fill="none" stroke="#63b8ff" d="M1433.73,-220.48C1296.25,-212.24 960.39,-191.84 679.12,-172.5 631.33,-169.21 577.51,-165.21 536.05,-162.06"/>
<polygon fill="#63b8ff" stroke="#63b8ff" points="536.45,-158.58 526.21,-161.31 535.91,-165.56 536.45,-158.58"/>
</a>
</g>
</g>
<!-- Node4 -->
<g id="Node000004" class="node">
<title>Node4</title>
<g id="a_Node000004"><a xlink:title=" ">
<polygon fill="#e0e0e0" stroke="#999999" points="126.25,-27.12 0,-27.12 0,-6.38 126.25,-6.38 126.25,-27.12"/>
<text text-anchor="middle" x="63.12" y="-13.62" font-family="Helvetica,sans-Serif" font-size="10.00">mlir/IR/OwningOpRef.h</text>
</a>
</g>
</g>
<!-- Node1&#45;&gt;Node4 -->
<g id="edge37_Node000001_Node000004" class="edge">
<title>Node1&#45;&gt;Node4</title>
<g id="a_edge37_Node000001_Node000004"><a xlink:title=" ">
<path fill="none" stroke="#63b8ff" d="M1433.76,-224.69C1264.99,-225.11 790.79,-221.46 400.12,-172.5 247.52,-153.37 158.35,-222.17 61.12,-103 46.47,-85.04 50.49,-57.15 55.83,-38.2"/>
<polygon fill="#63b8ff" stroke="#63b8ff" points="59.08,-39.51 58.79,-28.92 52.41,-37.38 59.08,-39.51"/>
</a>
</g>
</g>
<!-- Node6 -->
<g id="Node000006" class="node">
<title>Node6</title>
<g id="a_Node000006"><a xlink:title=" ">
<polygon fill="#e0e0e0" stroke="#999999" points="690.75,-96.62 537.5,-96.62 537.5,-75.88 690.75,-75.88 690.75,-96.62"/>
<text text-anchor="middle" x="614.12" y="-83.12" font-family="Helvetica,sans-Serif" font-size="10.00">mlir/Support/LogicalResult.h</text>
</a>
</g>
</g>
<!-- Node1&#45;&gt;Node6 -->
<g id="edge40_Node000001_Node000006" class="edge">
<title>Node1&#45;&gt;Node6</title>
<g id="a_edge40_Node000001_Node000006"><a xlink:title=" ">
<path fill="none" stroke="#63b8ff" d="M1433.93,-223.34C1322.75,-220.76 1085.38,-210.8 889.12,-172.5 801.37,-155.37 701.99,-120.56 650.07,-101.14"/>
<polygon fill="#63b8ff" stroke="#63b8ff" points="651.44,-97.91 640.85,-97.66 648.97,-104.46 651.44,-97.91"/>
</a>
</g>
</g>
<!-- Node9 -->
<g id="Node000009" class="node">
<title>Node9</title>
<g id="a_Node000009"><a xlink:title=" ">
<polygon fill="#e0e0e0" stroke="#999999" points="849.75,-96.62 708.5,-96.62 708.5,-75.88 849.75,-75.88 849.75,-96.62"/>
<text text-anchor="middle" x="779.12" y="-83.12" font-family="Helvetica,sans-Serif" font-size="10.00">llvm/Support/SourceMgr.h</text>
</a>
</g>
</g>
<!-- Node1&#45;&gt;Node9 -->
<g id="edge43_Node000001_Node000009" class="edge">
<title>Node1&#45;&gt;Node9</title>
<g id="a_edge43_Node000001_Node000009"><a xlink:title=" ">
<path fill="none" stroke="#63b8ff" d="M1433.58,-223.69C1335.93,-221.51 1143.75,-212.04 986.12,-172.5 919.79,-155.86 846.85,-121.82 807.73,-102.16"/>
<polygon fill="#63b8ff" stroke="#63b8ff" points="809.47,-99.12 798.97,-97.71 806.3,-105.36 809.47,-99.12"/>
</a>
</g>
</g>
<!-- Node10 -->
<g id="Node000010" class="node">
<title>Node10</title>
<g id="a_Node000010"><a xlink:href="Include_2IR_2Ops_8h.html" target="_top" xlink:title=" ">
<polygon fill="white" stroke="#666666" points="1103.62,-172.5 994.62,-172.5 994.62,-139 1103.62,-139 1103.62,-172.5"/>
<text text-anchor="start" x="1002.62" y="-159" font-family="Helvetica,sans-Serif" font-size="10.00">llzk/Dialect/Include</text>
<text text-anchor="middle" x="1049.12" y="-146.25" font-family="Helvetica,sans-Serif" font-size="10.00">/IR/Ops.h</text>
</a>
</g>
</g>
<!-- Node1&#45;&gt;Node10 -->
<g id="edge9_Node000001_Node000010" class="edge">
<title>Node1&#45;&gt;Node10</title>
<g id="a_edge9_Node000001_Node000010"><a xlink:title=" ">
<path fill="none" stroke="#63b8ff" d="M1433.89,-214.72C1349.52,-202.01 1200.84,-179.61 1115.11,-166.69"/>
<polygon fill="#63b8ff" stroke="#63b8ff" points="1115.86,-163.26 1105.45,-165.24 1114.81,-170.19 1115.86,-163.26"/>
</a>
</g>
</g>
<!-- Node14 -->
<g id="Node000014" class="node">
<title>Node14</title>
<g id="a_Node000014"><a xlink:href="ErrorHelper_8h.html" target="_top" xlink:title=" ">
<polygon fill="white" stroke="#666666" points="1412.25,-166.12 1292,-166.12 1292,-145.38 1412.25,-145.38 1412.25,-166.12"/>
<text text-anchor="middle" x="1352.12" y="-152.62" font-family="Helvetica,sans-Serif" font-size="10.00">llzk/Util/ErrorHelper.h</text>
</a>
</g>
</g>
<!-- Node1&#45;&gt;Node14 -->
<g id="edge14_Node000001_Node000014" class="edge">
<title>Node1&#45;&gt;Node14</title>
<g id="a_edge14_Node000001_Node000014"><a xlink:title=" ">
<path fill="none" stroke="#63b8ff" d="M1462.39,-208.08C1438.38,-196.9 1406.7,-182.15 1383.46,-171.34"/>
<polygon fill="#63b8ff" stroke="#63b8ff" points="1385.03,-168.21 1374.49,-167.16 1382.08,-174.55 1385.03,-168.21"/>
</a>
</g>
</g>
<!-- Node15 -->
<g id="Node000015" class="node">
<title>Node15</title>
<g id="a_Node000015"><a xlink:title=" ">
<polygon fill="#e0e0e0" stroke="#999999" points="1238.75,-96.62 1121.5,-96.62 1121.5,-75.88 1238.75,-75.88 1238.75,-96.62"/>
<text text-anchor="middle" x="1180.12" y="-83.12" font-family="Helvetica,sans-Serif" font-size="10.00">mlir/IR/Diagnostics.h</text>
</a>
</g>
</g>
<!-- Node1&#45;&gt;Node15 -->
<g id="edge35_Node000001_Node000015" class="edge">
<title>Node1&#45;&gt;Node15</title>
<g id="a_edge35_Node000001_Node000015"><a xlink:title=" ">
<path fill="none" stroke="#63b8ff" d="M1433.65,-216.61C1389.64,-209.51 1330.63,-196.29 1283.12,-172.5 1248.75,-155.28 1215.74,-124.66 1196.72,-105.18"/>
<polygon fill="#63b8ff" stroke="#63b8ff" points="1199.49,-103.02 1190.05,-98.2 1194.43,-107.85 1199.49,-103.02"/>
</a>
</g>
</g>
<!-- Node21 -->
<g id="Node000021" class="node">
<title>Node21</title>
<g id="a_Node000021"><a xlink:href="SymbolHelper_8h.html" target="_top" xlink:title=" ">
<polygon fill="white" stroke="#666666" points="1564,-166.12 1430.25,-166.12 1430.25,-145.38 1564,-145.38 1564,-166.12"/>
<text text-anchor="middle" x="1497.12" y="-152.62" font-family="Helvetica,sans-Serif" font-size="10.00">llzk/Util/SymbolHelper.h</text>
</a>
</g>
</g>
<!-- Node1&#45;&gt;Node21 -->
<g id="edge21_Node000001_Node000021" class="edge">
<title>Node1&#45;&gt;Node21</title>
<g id="a_edge21_Node000001_Node000021"><a xlink:title=" ">
<path fill="none" stroke="#63b8ff" d="M1497.12,-208.25C1497.12,-199.15 1497.12,-187.64 1497.12,-177.82"/>
<polygon fill="#63b8ff" stroke="#63b8ff" points="1500.63,-178.09 1497.13,-168.09 1493.63,-178.09 1500.63,-178.09"/>
</a>
</g>
</g>
<!-- Node30 -->
<g id="Node000030" class="node">
<title>Node30</title>
<g id="a_Node000030"><a xlink:title=" ">
<polygon fill="#e0e0e0" stroke="#999999" points="1689.88,-166.12 1582.38,-166.12 1582.38,-145.38 1689.88,-145.38 1689.88,-166.12"/>
<text text-anchor="middle" x="1636.12" y="-152.62" font-family="Helvetica,sans-Serif" font-size="10.00">mlir/IR/AsmState.h</text>
</a>
</g>
</g>
<!-- Node1&#45;&gt;Node30 -->
<g id="edge34_Node000001_Node000030" class="edge">
<title>Node1&#45;&gt;Node30</title>
<g id="a_edge34_Node000001_Node000030"><a xlink:title=" ">
<path fill="none" stroke="#63b8ff" d="M1530.42,-208.08C1553.33,-196.95 1583.54,-182.29 1605.79,-171.48"/>
<polygon fill="#63b8ff" stroke="#63b8ff" points="1607.18,-174.7 1614.64,-167.18 1604.12,-168.4 1607.18,-174.7"/>
</a>
</g>
</g>
<!-- Node31 -->
<g id="Node000031" class="node">
<title>Node31</title>
<g id="a_Node000031"><a xlink:title=" ">
<polygon fill="#e0e0e0" stroke="#999999" points="1830.38,-166.12 1707.88,-166.12 1707.88,-145.38 1830.38,-145.38 1830.38,-166.12"/>
<text text-anchor="middle" x="1769.12" y="-152.62" font-family="Helvetica,sans-Serif" font-size="10.00">mlir/IR/MLIRContext.h</text>
</a>
</g>
</g>
<!-- Node1&#45;&gt;Node31 -->
<g id="edge36_Node000001_Node000031" class="edge">
<title>Node1&#45;&gt;Node31</title>
<g id="a_edge36_Node000001_Node000031"><a xlink:title=" ">
<path fill="none" stroke="#63b8ff" d="M1560.55,-208.51C1608.64,-196.58 1673.85,-180.39 1718.48,-169.32"/>
<polygon fill="#63b8ff" stroke="#63b8ff" points="1719.31,-172.72 1728.17,-166.91 1717.62,-165.93 1719.31,-172.72"/>
</a>
</g>
</g>
<!-- Node32 -->
<g id="Node000032" class="node">
<title>Node32</title>
<g id="a_Node000032"><a xlink:title=" ">
<polygon fill="#e0e0e0" stroke="#999999" points="1973.5,-166.12 1848.75,-166.12 1848.75,-145.38 1973.5,-145.38 1973.5,-166.12"/>
<text text-anchor="middle" x="1911.12" y="-152.62" font-family="Helvetica,sans-Serif" font-size="10.00">mlir/IR/PatternMatch.h</text>
</a>
</g>
</g>
<!-- Node1&#45;&gt;Node32 -->
<g id="edge38_Node000001_Node000032" class="edge">
<title>Node1&#45;&gt;Node32</title>
<g id="a_edge38_Node000001_Node000032"><a xlink:title=" ">
<path fill="none" stroke="#63b8ff" d="M1560.68,-215.9C1629.51,-206.55 1742.43,-190.37 1839.12,-172.5 1845.02,-171.41 1851.18,-170.19 1857.29,-168.93"/>
<polygon fill="#63b8ff" stroke="#63b8ff" points="1857.66,-172.43 1866.71,-166.93 1856.21,-165.58 1857.66,-172.43"/>
</a>
</g>
</g>
<!-- Node33 -->
<g id="Node000033" class="node">
<title>Node33</title>
<g id="a_Node000033"><a xlink:title=" ">
<polygon fill="#e0e0e0" stroke="#999999" points="2101,-166.12 1991.25,-166.12 1991.25,-145.38 2101,-145.38 2101,-166.12"/>
<text text-anchor="middle" x="2046.12" y="-152.62" font-family="Helvetica,sans-Serif" font-size="10.00">mlir/Parser/Parser.h</text>
</a>
</g>
</g>
<!-- Node1&#45;&gt;Node33 -->
<g id="edge39_Node000001_Node000033" class="edge">
<title>Node1&#45;&gt;Node33</title>
<g id="a_edge39_Node000001_Node000033"><a xlink:title=" ">
<path fill="none" stroke="#63b8ff" d="M1560.67,-220.22C1653.71,-213.69 1832.21,-198.82 1982.12,-172.5 1987.48,-171.56 1993.05,-170.43 1998.57,-169.2"/>
<polygon fill="#63b8ff" stroke="#63b8ff" points="1999.33,-172.62 2008.28,-166.95 1997.75,-165.8 1999.33,-172.62"/>
</a>
</g>
</g>
<!-- Node34 -->
<g id="Node000034" class="node">
<title>Node34</title>
<g id="a_Node000034"><a xlink:title=" ">
<polygon fill="#e0e0e0" stroke="#999999" points="2245.62,-166.12 2118.62,-166.12 2118.62,-145.38 2245.62,-145.38 2245.62,-166.12"/>
<text text-anchor="middle" x="2182.12" y="-152.62" font-family="Helvetica,sans-Serif" font-size="10.00">llvm/Support/Casting.h</text>
</a>
</g>
</g>
<!-- Node1&#45;&gt;Node34 -->
<g id="edge41_Node000001_Node000034" class="edge">
<title>Node1&#45;&gt;Node34</title>
<g id="a_edge41_Node000001_Node000034"><a xlink:title=" ">
<path fill="none" stroke="#63b8ff" d="M1560.54,-221.64C1672.16,-216.44 1910.79,-202.58 2110.12,-172.5 2116.69,-171.51 2123.55,-170.27 2130.32,-168.93"/>
<polygon fill="#63b8ff" stroke="#63b8ff" points="2130.99,-172.37 2140.07,-166.91 2129.57,-165.51 2130.99,-172.37"/>
</a>
</g>
</g>
<!-- Node35 -->
<g id="Node000035" class="node">
<title>Node35</title>
<g id="a_Node000035"><a xlink:title=" ">
<polygon fill="#e0e0e0" stroke="#999999" points="2422.75,-166.12 2263.5,-166.12 2263.5,-145.38 2422.75,-145.38 2422.75,-166.12"/>
<text text-anchor="middle" x="2343.12" y="-152.62" font-family="Helvetica,sans-Serif" font-size="10.00">llvm/Support/MemoryBuffer.h</text>
</a>
</g>
</g>
<!-- Node1&#45;&gt;Node35 -->
<g id="edge42_Node000001_Node000035" class="edge">
<title>Node1&#45;&gt;Node35</title>
<g id="a_edge42_Node000001_Node000035"><a xlink:title=" ">
<path fill="none" stroke="#63b8ff" d="M1560.74,-222.25C1691.31,-217.62 1998.86,-204.08 2255.12,-172.5 2263.9,-171.42 2273.12,-170.04 2282.16,-168.55"/>
<polygon fill="#63b8ff" stroke="#63b8ff" points="2282.71,-172 2291.98,-166.87 2281.53,-165.1 2282.71,-172"/>
</a>
</g>
</g>
<!-- Node36 -->
<g id="Node000036" class="node">
<title>Node36</title>
<g id="a_Node000036"><a xlink:title=" ">
<polygon fill="#e0e0e0" stroke="#999999" points="2505.5,-166.12 2440.75,-166.12 2440.75,-145.38 2505.5,-145.38 2505.5,-166.12"/>
<text text-anchor="middle" x="2473.12" y="-152.62" font-family="Helvetica,sans-Serif" font-size="10.00">functional</text>
</a>
</g>
</g>
<!-- Node1&#45;&gt;Node36 -->
<g id="edge44_Node000001_Node000036" class="edge">
<title>Node1&#45;&gt;Node36</title>
<g id="a_edge44_Node000001_Node000036"><a xlink:title=" ">
<path fill="none" stroke="#63b8ff" d="M1560.67,-223.3C1742.97,-220.17 2265.21,-208.26 2432.12,-172.5 2434.93,-171.9 2437.8,-171.13 2440.65,-170.27"/>
<polygon fill="#63b8ff" stroke="#63b8ff" points="2441.65,-173.62 2449.95,-167.04 2439.36,-167.01 2441.65,-173.62"/>
</a>
</g>
</g>
<!-- Node3 -->
<g id="Node000003" class="node">
<title>Node3</title>
<g id="a_Node000003"><a xlink:title=" ">
<polygon fill="#e0e0e0" stroke="#999999" points="1041.38,-27.12 930.88,-27.12 930.88,-6.38 1041.38,-6.38 1041.38,-27.12"/>
<text text-anchor="middle" x="986.12" y="-13.62" font-family="Helvetica,sans-Serif" font-size="10.00">mlir/IR/BuiltinOps.h</text>
</a>
</g>
</g>
<!-- Node2&#45;&gt;Node3 -->
<g id="edge2_Node000002_Node000003" class="edge">
<title>Node2&#45;&gt;Node3</title>
<g id="a_edge2_Node000002_Node000003"><a xlink:title=" ">
<path fill="none" stroke="#63b8ff" d="M473.59,-138.61C482.55,-118.58 500.81,-85.16 528.12,-69.5 604.41,-25.78 835.42,-48.05 922.12,-33.5 927.7,-32.57 933.5,-31.41 939.23,-30.14"/>
<polygon fill="#63b8ff" stroke="#63b8ff" points="939.68,-33.63 948.63,-27.96 938.1,-26.81 939.68,-33.63"/>
</a>
</g>
</g>
<!-- Node2&#45;&gt;Node4 -->
<g id="edge3_Node000002_Node000004" class="edge">
<title>Node2&#45;&gt;Node4</title>
<g id="a_edge3_Node000002_Node000004"><a xlink:title=" ">
<path fill="none" stroke="#63b8ff" d="M409.19,-154.8C313.58,-153.64 128.71,-145.75 82.12,-103 64.53,-86.85 61.39,-58.3 61.58,-38.73"/>
<polygon fill="#63b8ff" stroke="#63b8ff" points="65.07,-39.03 62.01,-28.89 58.08,-38.73 65.07,-39.03"/>
</a>
</g>
</g>
<!-- Node5 -->
<g id="Node000005" class="node">
<title>Node5</title>
<g id="a_Node000005"><a xlink:title=" ">
<polygon fill="#e0e0e0" stroke="#999999" points="204.88,-96.62 91.38,-96.62 91.38,-75.88 204.88,-75.88 204.88,-96.62"/>
<text text-anchor="middle" x="148.12" y="-83.12" font-family="Helvetica,sans-Serif" font-size="10.00">mlir/Support/LLVM.h</text>
</a>
</g>
</g>
<!-- Node2&#45;&gt;Node5 -->
<g id="edge4_Node000002_Node000005" class="edge">
<title>Node2&#45;&gt;Node5</title>
<g id="a_edge4_Node000002_Node000005"><a xlink:title=" ">
<path fill="none" stroke="#63b8ff" d="M409.24,-143.59C357.68,-133.49 280.22,-117.96 213.12,-103 208.34,-101.93 203.37,-100.79 198.4,-99.63"/>
<polygon fill="#63b8ff" stroke="#63b8ff" points="199.61,-96.32 189.07,-97.41 197.99,-103.13 199.61,-96.32"/>
</a>
</g>
</g>
<!-- Node2&#45;&gt;Node6 -->
<g id="edge5_Node000002_Node000006" class="edge">
<title>Node2&#45;&gt;Node6</title>
<g id="a_edge5_Node000002_Node000006"><a xlink:title=" ">
<path fill="none" stroke="#63b8ff" d="M502.34,-138.58C526.79,-127.35 559.09,-112.52 582.68,-101.69"/>
<polygon fill="#63b8ff" stroke="#63b8ff" points="583.84,-105.01 591.47,-97.65 580.92,-98.65 583.84,-105.01"/>
</a>
</g>
</g>
<!-- Node7 -->
<g id="Node000007" class="node">
<title>Node7</title>
<g id="a_Node000007"><a xlink:title=" ">
<polygon fill="#e0e0e0" stroke="#999999" points="351.75,-96.62 222.5,-96.62 222.5,-75.88 351.75,-75.88 351.75,-96.62"/>
<text text-anchor="middle" x="287.12" y="-83.12" font-family="Helvetica,sans-Serif" font-size="10.00">llvm/ADT/SmallString.h</text>
</a>
</g>
</g>
<!-- Node2&#45;&gt;Node7 -->
<g id="edge6_Node000002_Node000007" class="edge">
<title>Node2&#45;&gt;Node7</title>
<g id="a_edge6_Node000002_Node000007"><a xlink:title=" ">
<path fill="none" stroke="#63b8ff" d="M424.01,-138.58C393.48,-127.13 352.97,-111.94 323.96,-101.06"/>
<polygon fill="#63b8ff" stroke="#63b8ff" points="325.45,-97.89 314.86,-97.65 323,-104.44 325.45,-97.89"/>
</a>
</g>
</g>
<!-- Node8 -->
<g id="Node000008" class="node">
<title>Node8</title>
<g id="a_Node000008"><a xlink:title=" ">
<polygon fill="#e0e0e0" stroke="#999999" points="480.75,-96.62 369.5,-96.62 369.5,-75.88 480.75,-75.88 480.75,-96.62"/>
<text text-anchor="middle" x="425.12" y="-83.12" font-family="Helvetica,sans-Serif" font-size="10.00">llvm/Support/Path.h</text>
</a>
</g>
</g>
<!-- Node2&#45;&gt;Node8 -->
<g id="edge7_Node000002_Node000008" class="edge">
<title>Node2&#45;&gt;Node8</title>
<g id="a_edge7_Node000002_Node000008"><a xlink:title=" ">
<path fill="none" stroke="#63b8ff" d="M457.17,-138.75C451.19,-129.15 443.55,-116.86 437.22,-106.69"/>
<polygon fill="#63b8ff" stroke="#63b8ff" points="440.29,-105 432.04,-98.36 434.35,-108.7 440.29,-105"/>
</a>
</g>
</g>
<!-- Node2&#45;&gt;Node9 -->
<g id="edge8_Node000002_Node000009" class="edge">
<title>Node2&#45;&gt;Node9</title>
<g id="a_edge8_Node000002_Node000009"><a xlink:title=" ">
<path fill="none" stroke="#63b8ff" d="M525.08,-142.21C581.46,-130.01 666.59,-111.6 722.51,-99.5"/>
<polygon fill="#63b8ff" stroke="#63b8ff" points="723.12,-102.95 732.16,-97.41 721.64,-96.11 723.12,-102.95"/>
</a>
</g>
</g>
<!-- Node11 -->
<g id="Node000011" class="node">
<title>Node11</title>
<g id="a_Node000011"><a xlink:href="Include_2IR_2Dialect_8h.html" target="_top" xlink:title=" ">
<polygon fill="white" stroke="#666666" points="976.62,-103 867.62,-103 867.62,-69.5 976.62,-69.5 976.62,-103"/>
<text text-anchor="start" x="875.62" y="-89.5" font-family="Helvetica,sans-Serif" font-size="10.00">llzk/Dialect/Include</text>
<text text-anchor="middle" x="922.12" y="-76.75" font-family="Helvetica,sans-Serif" font-size="10.00">/IR/Dialect.h</text>
</a>
</g>
</g>
<!-- Node10&#45;&gt;Node11 -->
<g id="edge10_Node000010_Node000011" class="edge">
<title>Node10&#45;&gt;Node11</title>
<g id="a_edge10_Node000010_Node000011"><a xlink:title=" ">
<path fill="none" stroke="#63b8ff" d="M1018.71,-138.58C1001.82,-129.61 980.6,-118.33 962.36,-108.63"/>
<polygon fill="#63b8ff" stroke="#63b8ff" points="964.11,-105.6 953.63,-104 960.82,-111.78 964.11,-105.6"/>
</a>
</g>
</g>
<!-- Node13 -->
<g id="Node000013" class="node">
<title>Node13</title>
<g id="a_Node000013"><a xlink:href="Include_2IR_2Ops_8h_8inc.html" target="_top" xlink:title=" ">
<polygon fill="white" stroke="#666666" points="1103.62,-103 994.62,-103 994.62,-69.5 1103.62,-69.5 1103.62,-103"/>
<text text-anchor="start" x="1002.62" y="-89.5" font-family="Helvetica,sans-Serif" font-size="10.00">llzk/Dialect/Include</text>
<text text-anchor="middle" x="1049.12" y="-76.75" font-family="Helvetica,sans-Serif" font-size="10.00">/IR/Ops.h.inc</text>
</a>
</g>
</g>
<!-- Node10&#45;&gt;Node13 -->
<g id="edge13_Node000010_Node000013" class="edge">
<title>Node10&#45;&gt;Node13</title>
<g id="a_edge13_Node000010_Node000013"><a xlink:title=" ">
<path fill="none" stroke="#63b8ff" d="M1049.12,-138.75C1049.12,-131.52 1049.12,-122.78 1049.12,-114.56"/>
<polygon fill="#63b8ff" stroke="#63b8ff" points="1052.63,-114.65 1049.13,-104.65 1045.63,-114.65 1052.63,-114.65"/>
</a>
</g>
</g>
<!-- Node11&#45;&gt;Node3 -->
<g id="edge11_Node000011_Node000003" class="edge">
<title>Node11&#45;&gt;Node3</title>
<g id="a_edge11_Node000011_Node000003"><a xlink:title=" ">
<path fill="none" stroke="#63b8ff" d="M937.29,-69.25C946.78,-59.24 959.04,-46.32 968.9,-35.92"/>
<polygon fill="#63b8ff" stroke="#63b8ff" points="971.43,-38.34 975.77,-28.67 966.35,-33.52 971.43,-38.34"/>
</a>
</g>
</g>
<!-- Node12 -->
<g id="Node000012" class="node">
<title>Node12</title>
<g id="a_Node000012"><a xlink:href="Include_2IR_2Dialect_8h_8inc.html" target="_top" xlink:title=" ">
<polygon fill="white" stroke="#666666" points="912.62,-33.5 803.62,-33.5 803.62,0 912.62,0 912.62,-33.5"/>
<text text-anchor="start" x="811.62" y="-20" font-family="Helvetica,sans-Serif" font-size="10.00">llzk/Dialect/Include</text>
<text text-anchor="middle" x="858.12" y="-7.25" font-family="Helvetica,sans-Serif" font-size="10.00">/IR/Dialect.h.inc</text>
</a>
</g>
</g>
<!-- Node11&#45;&gt;Node12 -->
<g id="edge12_Node000011_Node000012" class="edge">
<title>Node11&#45;&gt;Node12</title>
<g id="a_edge12_Node000011_Node000012"><a xlink:title=" ">
<path fill="none" stroke="#63b8ff" d="M906.96,-69.25C899.23,-61.1 889.66,-51.01 881.05,-41.93"/>
<polygon fill="#63b8ff" stroke="#63b8ff" points="883.64,-39.58 874.22,-34.73 878.57,-44.39 883.64,-39.58"/>
</a>
</g>
</g>
<!-- Node14&#45;&gt;Node15 -->
<g id="edge15_Node000014_Node000015" class="edge">
<title>Node14&#45;&gt;Node15</title>
<g id="a_edge15_Node000014_Node000015"><a xlink:title=" ">
<path fill="none" stroke="#63b8ff" d="M1327.11,-144.93C1297.82,-133.44 1249.06,-114.3 1215.8,-101.25"/>
<polygon fill="#63b8ff" stroke="#63b8ff" points="1217.16,-98.02 1206.57,-97.63 1214.6,-104.54 1217.16,-98.02"/>
</a>
</g>
</g>
<!-- Node16 -->
<g id="Node000016" class="node">
<title>Node16</title>
<g id="a_Node000016"><a xlink:title=" ">
<polygon fill="#e0e0e0" stroke="#999999" points="1516.25,-27.12 1408,-27.12 1408,-6.38 1516.25,-6.38 1516.25,-27.12"/>
<text text-anchor="middle" x="1462.12" y="-13.62" font-family="Helvetica,sans-Serif" font-size="10.00">mlir/IR/Operation.h</text>
</a>
</g>
</g>
<!-- Node14&#45;&gt;Node16 -->
<g id="edge16_Node000014_Node000016" class="edge">
<title>Node14&#45;&gt;Node16</title>
<g id="a_edge16_Node000014_Node000016"><a xlink:title=" ">
<path fill="none" stroke="#63b8ff" d="M1331.19,-144.88C1315.59,-136.26 1295.43,-122.12 1286.12,-103 1279.61,-89.61 1277.2,-81.42 1286.12,-69.5 1299.67,-51.4 1352.32,-37.46 1396.54,-28.63"/>
<polygon fill="#63b8ff" stroke="#63b8ff" points="1396.93,-32.12 1406.08,-26.79 1395.6,-25.25 1396.93,-32.12"/>
</a>
</g>
</g>
<!-- Node17 -->
<g id="Node000017" class="node">
<title>Node17</title>
<g id="a_Node000017"><a xlink:title=" ">
<polygon fill="#e0e0e0" stroke="#999999" points="1466.75,-96.62 1295.5,-96.62 1295.5,-75.88 1466.75,-75.88 1466.75,-96.62"/>
<text text-anchor="middle" x="1381.12" y="-83.12" font-family="Helvetica,sans-Serif" font-size="10.00">llvm/ADT/STLFunctionalExtras.h</text>
</a>
</g>
</g>
<!-- Node14&#45;&gt;Node17 -->
<g id="edge17_Node000014_Node000017" class="edge">
<title>Node14&#45;&gt;Node17</title>
<g id="a_edge17_Node000014_Node000017"><a xlink:title=" ">
<path fill="none" stroke="#63b8ff" d="M1356.28,-145.08C1360.5,-135.25 1367.16,-119.75 1372.52,-107.27"/>
<polygon fill="#63b8ff" stroke="#63b8ff" points="1375.65,-108.86 1376.38,-98.29 1369.22,-106.1 1375.65,-108.86"/>
</a>
</g>
</g>
<!-- Node18 -->
<g id="Node000018" class="node">
<title>Node18</title>
<g id="a_Node000018"><a xlink:title=" ">
<polygon fill="#e0e0e0" stroke="#999999" points="1585.5,-96.62 1484.75,-96.62 1484.75,-75.88 1585.5,-75.88 1585.5,-96.62"/>
<text text-anchor="middle" x="1535.12" y="-83.12" font-family="Helvetica,sans-Serif" font-size="10.00">llvm/ADT/Twine.h</text>
</a>
</g>
</g>
<!-- Node14&#45;&gt;Node18 -->
<g id="edge18_Node000014_Node000018" class="edge">
<title>Node14&#45;&gt;Node18</title>
<g id="a_edge18_Node000014_Node000018"><a xlink:title=" ">
<path fill="none" stroke="#63b8ff" d="M1378.73,-144.93C1410.18,-133.34 1462.68,-113.97 1498.09,-100.91"/>
<polygon fill="#63b8ff" stroke="#63b8ff" points="1498.89,-104.35 1507.06,-97.6 1496.47,-97.78 1498.89,-104.35"/>
</a>
</g>
</g>
<!-- Node19 -->
<g id="Node000019" class="node">
<title>Node19</title>
<g id="a_Node000019"><a xlink:title=" ">
<polygon fill="#e0e0e0" stroke="#999999" points="1760.62,-96.62 1603.62,-96.62 1603.62,-75.88 1760.62,-75.88 1760.62,-96.62"/>
<text text-anchor="middle" x="1682.12" y="-83.12" font-family="Helvetica,sans-Serif" font-size="10.00">llvm/Support/ErrorHandling.h</text>
</a>
</g>
</g>
<!-- Node14&#45;&gt;Node19 -->
<g id="edge19_Node000014_Node000019" class="edge">
<title>Node14&#45;&gt;Node19</title>
<g id="a_edge19_Node000014_Node000019"><a xlink:title=" ">
<path fill="none" stroke="#63b8ff" d="M1394.41,-144.9C1403.23,-142.9 1412.47,-140.84 1421.12,-139 1488.47,-124.64 1565.88,-109.46 1618.8,-99.28"/>
<polygon fill="#63b8ff" stroke="#63b8ff" points="1619.39,-102.73 1628.55,-97.41 1618.07,-95.85 1619.39,-102.73"/>
</a>
</g>
</g>
<!-- Node20 -->
<g id="Node000020" class="node">
<title>Node20</title>
<g id="a_Node000020"><a xlink:title=" ">
<polygon fill="#e0e0e0" stroke="#999999" points="1779.38,-27.12 1728.88,-27.12 1728.88,-6.38 1779.38,-6.38 1779.38,-27.12"/>
<text text-anchor="middle" x="1754.12" y="-13.62" font-family="Helvetica,sans-Serif" font-size="10.00">variant</text>
</a>
</g>
</g>
<!-- Node14&#45;&gt;Node20 -->
<g id="edge20_Node000014_Node000020" class="edge">
<title>Node14&#45;&gt;Node20</title>
<g id="a_edge20_Node000014_Node000020"><a xlink:title=" ">
<path fill="none" stroke="#63b8ff" d="M1391.37,-144.92C1401.05,-142.74 1411.43,-140.6 1421.12,-139 1498.05,-126.3 1717.9,-160.89 1770.12,-103 1786.15,-85.24 1776.13,-56.7 1766.22,-37.6"/>
<polygon fill="#63b8ff" stroke="#63b8ff" points="1769.28,-35.91 1761.33,-28.91 1763.18,-39.34 1769.28,-35.91"/>
</a>
</g>
</g>
<!-- Node22 -->
<g id="Node000022" class="node">
<title>Node22</title>
<g id="a_Node000022"><a xlink:href="SymbolLookup_8h.html" target="_top" xlink:title="This file defines methods symbol lookup across LLZK operations and included files.">
<polygon fill="white" stroke="#666666" points="1953.5,-96.62 1816.75,-96.62 1816.75,-75.88 1953.5,-75.88 1953.5,-96.62"/>
<text text-anchor="middle" x="1885.12" y="-83.12" font-family="Helvetica,sans-Serif" font-size="10.00">llzk/Util/SymbolLookup.h</text>
</a>
</g>
</g>
<!-- Node21&#45;&gt;Node22 -->
<g id="edge22_Node000021_Node000022" class="edge">
<title>Node21&#45;&gt;Node22</title>
<g id="a_edge22_Node000021_Node000022"><a xlink:title=" ">
<path fill="none" stroke="#63b8ff" d="M1542.87,-144.89C1552.83,-142.85 1563.31,-140.78 1573.12,-139 1674.92,-120.5 1701.19,-120.76 1803.12,-103 1809.97,-101.81 1817.12,-100.51 1824.23,-99.19"/>
<polygon fill="#63b8ff" stroke="#63b8ff" points="1824.64,-102.67 1833.82,-97.38 1823.35,-95.79 1824.64,-102.67"/>
</a>
</g>
</g>
<!-- Node27 -->
<g id="Node000027" class="node">
<title>Node27</title>
<g id="a_Node000027"><a xlink:title=" ">
<polygon fill="#e0e0e0" stroke="#999999" points="2138.5,-96.62 1971.75,-96.62 1971.75,-75.88 2138.5,-75.88 2138.5,-96.62"/>
<text text-anchor="middle" x="2055.12" y="-83.12" font-family="Helvetica,sans-Serif" font-size="10.00">mlir/Interfaces/CallInterfaces.h</text>
</a>
</g>
</g>
<!-- Node21&#45;&gt;Node27 -->
<g id="edge31_Node000021_Node000027" class="edge">
<title>Node21&#45;&gt;Node27</title>
<g id="a_edge31_Node000021_Node000027"><a xlink:title=" ">
<path fill="none" stroke="#63b8ff" d="M1540.38,-144.91C1551.04,-142.73 1562.46,-140.59 1573.12,-139 1744.85,-113.34 1789.96,-125.51 1962.12,-103 1971.13,-101.82 1980.6,-100.42 1989.9,-98.94"/>
<polygon fill="#63b8ff" stroke="#63b8ff" points="1990.33,-102.41 1999.64,-97.35 1989.21,-95.5 1990.33,-102.41"/>
</a>
</g>
</g>
<!-- Node28 -->
<g id="Node000028" class="node">
<title>Node28</title>
<g id="a_Node000028"><a xlink:title=" ">
<polygon fill="#e0e0e0" stroke="#999999" points="2212,-96.62 2156.25,-96.62 2156.25,-75.88 2212,-75.88 2212,-96.62"/>
<text text-anchor="middle" x="2184.12" y="-83.12" font-family="Helvetica,sans-Serif" font-size="10.00">optional</text>
</a>
</g>
</g>
<!-- Node21&#45;&gt;Node28 -->
<g id="edge32_Node000021_Node000028" class="edge">
<title>Node21&#45;&gt;Node28</title>
<g id="a_edge32_Node000021_Node000028"><a xlink:title=" ">
<path fill="none" stroke="#63b8ff" d="M1539.15,-144.93C1550.15,-142.67 1562.04,-140.49 1573.12,-139 1826.46,-104.98 1898.39,-161.91 2147.12,-103 2149.41,-102.46 2151.73,-101.79 2154.04,-101.03"/>
<polygon fill="#63b8ff" stroke="#63b8ff" points="2155.05,-104.39 2163.16,-97.57 2152.57,-97.85 2155.05,-104.39"/>
</a>
</g>
</g>
<!-- Node29 -->
<g id="Node000029" class="node">
<title>Node29</title>
<g id="a_Node000029"><a xlink:title=" ">
<polygon fill="#e0e0e0" stroke="#999999" points="2278.62,-96.62 2229.62,-96.62 2229.62,-75.88 2278.62,-75.88 2278.62,-96.62"/>
<text text-anchor="middle" x="2254.12" y="-83.12" font-family="Helvetica,sans-Serif" font-size="10.00">ranges</text>
</a>
</g>
</g>
<!-- Node21&#45;&gt;Node29 -->
<g id="edge33_Node000021_Node000029" class="edge">
<title>Node21&#45;&gt;Node29</title>
<g id="a_edge33_Node000021_Node000029"><a xlink:title=" ">
<path fill="none" stroke="#63b8ff" d="M1539.14,-144.88C1550.15,-142.61 1562.04,-140.45 1573.12,-139 1859.14,-101.63 1941.68,-174.47 2221.12,-103 2222.94,-102.53 2224.78,-101.97 2226.61,-101.33"/>
<polygon fill="#63b8ff" stroke="#63b8ff" points="2227.52,-104.74 2235.4,-97.66 2224.82,-98.28 2227.52,-104.74"/>
</a>
</g>
</g>
<!-- Node22&#45;&gt;Node3 -->
<g id="edge24_Node000022_Node000003" class="edge">
<title>Node22&#45;&gt;Node3</title>
<g id="a_edge24_Node000022_Node000003"><a xlink:title=" ">
<path fill="none" stroke="#63b8ff" d="M1818.93,-75.38C1802.98,-73.22 1785.96,-71.11 1770.12,-69.5 1505.4,-42.67 1188.91,-26.68 1053.24,-20.59"/>
<polygon fill="#63b8ff" stroke="#63b8ff" points="1053.5,-17.1 1043.36,-20.15 1053.19,-24.09 1053.5,-17.1"/>
</a>
</g>
</g>
<!-- Node22&#45;&gt;Node4 -->
<g id="edge26_Node000022_Node000004" class="edge">
<title>Node22&#45;&gt;Node4</title>
<g id="a_edge26_Node000022_Node000004"><a xlink:title=" ">
<path fill="none" stroke="#63b8ff" d="M1821.99,-75.38C1805.17,-73.09 1786.99,-70.91 1770.12,-69.5 1606.31,-55.84 445.25,-27.01 137.72,-19.55"/>
<polygon fill="#63b8ff" stroke="#63b8ff" points="137.88,-16.05 127.8,-19.3 137.71,-23.05 137.88,-16.05"/>
</a>
</g>
</g>
<!-- Node22&#45;&gt;Node16 -->
<g id="edge25_Node000022_Node000016" class="edge">
<title>Node22&#45;&gt;Node16</title>
<g id="a_edge25_Node000022_Node000016"><a xlink:title=" ">
<path fill="none" stroke="#63b8ff" d="M1823.62,-75.43C1744.72,-62.85 1608.46,-41.1 1527.67,-28.21"/>
<polygon fill="#63b8ff" stroke="#63b8ff" points="1528.57,-24.81 1518.14,-26.69 1527.47,-31.72 1528.57,-24.81"/>
</a>
</g>
</g>
<!-- Node22&#45;&gt;Node20 -->
<g id="edge29_Node000022_Node000020" class="edge">
<title>Node22&#45;&gt;Node20</title>
<g id="a_edge29_Node000022_Node000020"><a xlink:title=" ">
<path fill="none" stroke="#63b8ff" d="M1866.08,-75.43C1844.34,-64.24 1808.56,-45.8 1783.3,-32.78"/>
<polygon fill="#63b8ff" stroke="#63b8ff" points="1785.03,-29.74 1774.54,-28.27 1781.83,-35.96 1785.03,-29.74"/>
</a>
</g>
</g>
<!-- Node23 -->
<g id="Node000023" class="node">
<title>Node23</title>
<g id="a_Node000023"><a xlink:href="llzk_2Util_2Constants_8h.html" target="_top" xlink:title=" ">
<polygon fill="white" stroke="#666666" points="1977.25,-27.12 1863,-27.12 1863,-6.38 1977.25,-6.38 1977.25,-27.12"/>
<text text-anchor="middle" x="1920.12" y="-13.62" font-family="Helvetica,sans-Serif" font-size="10.00">llzk/Util/Constants.h</text>
</a>
</g>
</g>
<!-- Node22&#45;&gt;Node23 -->
<g id="edge23_Node000022_Node000023" class="edge">
<title>Node22&#45;&gt;Node23</title>
<g id="a_edge23_Node000022_Node000023"><a xlink:title=" ">
<path fill="none" stroke="#63b8ff" d="M1890.14,-75.58C1895.29,-65.65 1903.44,-49.93 1909.94,-37.39"/>
<polygon fill="#63b8ff" stroke="#63b8ff" points="1912.93,-39.24 1914.42,-28.75 1906.71,-36.01 1912.93,-39.24"/>
</a>
</g>
</g>
<!-- Node24 -->
<g id="Node000024" class="node">
<title>Node24</title>
<g id="a_Node000024"><a xlink:title=" ">
<polygon fill="#e0e0e0" stroke="#999999" points="2110.62,-27.12 1995.62,-27.12 1995.62,-6.38 2110.62,-6.38 2110.62,-27.12"/>
<text text-anchor="middle" x="2053.12" y="-13.62" font-family="Helvetica,sans-Serif" font-size="10.00">llvm/ADT/ArrayRef.h</text>
</a>
</g>
</g>
<!-- Node22&#45;&gt;Node24 -->
<g id="edge27_Node000022_Node000024" class="edge">
<title>Node22&#45;&gt;Node24</title>
<g id="a_edge27_Node000022_Node000024"><a xlink:title=" ">
<path fill="none" stroke="#63b8ff" d="M1909.55,-75.43C1938.17,-63.94 1985.79,-44.8 2018.28,-31.75"/>
<polygon fill="#63b8ff" stroke="#63b8ff" points="2019.29,-35.12 2027.26,-28.14 2016.68,-28.62 2019.29,-35.12"/>
</a>
</g>
</g>
<!-- Node25 -->
<g id="Node000025" class="node">
<title>Node25</title>
<g id="a_Node000025"><a xlink:title=" ">
<polygon fill="#e0e0e0" stroke="#999999" points="2245.75,-27.12 2128.5,-27.12 2128.5,-6.38 2245.75,-6.38 2245.75,-27.12"/>
<text text-anchor="middle" x="2187.12" y="-13.62" font-family="Helvetica,sans-Serif" font-size="10.00">llvm/ADT/StringRef.h</text>
</a>
</g>
</g>
<!-- Node22&#45;&gt;Node25 -->
<g id="edge28_Node000022_Node000025" class="edge">
<title>Node22&#45;&gt;Node25</title>
<g id="a_edge28_Node000022_Node000025"><a xlink:title=" ">
<path fill="none" stroke="#63b8ff" d="M1930.66,-75.42C1978.03,-65.15 2054.34,-48.47 2120.12,-33.5 2124.91,-32.41 2129.88,-31.27 2134.86,-30.11"/>
<polygon fill="#63b8ff" stroke="#63b8ff" points="2135.27,-33.61 2144.21,-27.93 2133.68,-26.79 2135.27,-33.61"/>
</a>
</g>
</g>
<!-- Node26 -->
<g id="Node000026" class="node">
<title>Node26</title>
<g id="a_Node000026"><a xlink:title=" ">
<polygon fill="#e0e0e0" stroke="#999999" points="1844.5,-27.12 1797.75,-27.12 1797.75,-6.38 1844.5,-6.38 1844.5,-27.12"/>
<text text-anchor="middle" x="1821.12" y="-13.62" font-family="Helvetica,sans-Serif" font-size="10.00">vector</text>
</a>
</g>
</g>
<!-- Node22&#45;&gt;Node26 -->
<g id="edge30_Node000022_Node000026" class="edge">
<title>Node22&#45;&gt;Node26</title>
<g id="a_edge30_Node000022_Node000026"><a xlink:title=" ">
<path fill="none" stroke="#63b8ff" d="M1875.96,-75.58C1866.07,-65.15 1850.12,-48.33 1837.97,-35.51"/>
<polygon fill="#63b8ff" stroke="#63b8ff" points="1840.74,-33.35 1831.32,-28.5 1835.66,-38.17 1840.74,-33.35"/>
</a>
</g>
</g>
</g>
</svg>
