<?xml version="1.0" encoding="UTF-8" standalone="no"?>
<!DOCTYPE svg PUBLIC "-//W3C//DTD SVG 1.1//EN"
 "http://www.w3.org/Graphics/SVG/1.1/DTD/svg11.dtd">
<!-- Generated by graphviz version 12.2.1 (0)
 -->
<!-- Title: include/llzk&#45;c/Dialect/Include.h Pages: 1 -->
<svg width="545pt" height="225pt"
 viewBox="0.00 0.00 544.55 224.50" xmlns="http://www.w3.org/2000/svg" xmlns:xlink="http://www.w3.org/1999/xlink">
<g id="graph0" class="graph" transform="scale(1 1) rotate(0) translate(4 220.5)">
<title>include/llzk&#45;c/Dialect/Include.h</title>
<!-- Node1 -->
<g id="Node000001" class="node">
<title>Node1</title>
<g id="a_Node000001"><a xlink:title=" ">
<polygon fill="#999999" stroke="#666666" points="257.17,-216.5 139.17,-216.5 139.17,-183 257.17,-183 257.17,-216.5"/>
<text text-anchor="start" x="147.17" y="-203" font-family="Helvetica,sans-Serif" font-size="10.00">include/llzk&#45;c/Dialect</text>
<text text-anchor="middle" x="198.17" y="-190.25" font-family="Helvetica,sans-Serif" font-size="10.00">/Include.h</text>
</a>
</g>
</g>
<!-- Node2 -->
<g id="Node000002" class="node">
<title>Node2</title>
<g id="a_Node000002"><a xlink:href="llzk-c_2Support_8h.html" target="_top" xlink:title=" ">
<polygon fill="white" stroke="#666666" points="244.05,-140.62 152.3,-140.62 152.3,-119.88 244.05,-119.88 244.05,-140.62"/>
<text text-anchor="middle" x="198.17" y="-127.12" font-family="Helvetica,sans-Serif" font-size="10.00">llzk&#45;c/Support.h</text>
</a>
</g>
</g>
<!-- Node1&#45;&gt;Node2 -->
<g id="edge1_Node000001_Node000002" class="edge">
<title>Node1&#45;&gt;Node2</title>
<g id="a_edge1_Node000001_Node000002"><a xlink:title=" ">
<path fill="none" stroke="#63b8ff" d="M198.17,-182.75C198.17,-173.65 198.17,-162.14 198.17,-152.32"/>
<polygon fill="#63b8ff" stroke="#63b8ff" points="201.67,-152.59 198.17,-142.59 194.67,-152.59 201.67,-152.59"/>
</a>
</g>
</g>
<!-- Node4 -->
<g id="Node000004" class="node">
<title>Node4</title>
<g id="a_Node000004"><a xlink:title=" ">
<polygon fill="#e0e0e0" stroke="#999999" points="73.3,-20.75 7.05,-20.75 7.05,0 73.3,0 73.3,-20.75"/>
<text text-anchor="middle" x="40.17" y="-7.25" font-family="Helvetica,sans-Serif" font-size="10.00">mlir&#45;c/IR.h</text>
</a>
</g>
</g>
<!-- Node1&#45;&gt;Node4 -->
<g id="edge8_Node000001_Node000004" class="edge">
<title>Node1&#45;&gt;Node4</title>
<g id="a_edge8_Node000001_Node000004"><a xlink:title=" ">
<path fill="none" stroke="#63b8ff" d="M139.13,-190.19C90.68,-181.82 27.63,-167.35 12.17,-147 -14.14,-112.37 10.71,-58.96 27.56,-30.61"/>
<polygon fill="#63b8ff" stroke="#63b8ff" points="30.39,-32.68 32.7,-22.34 24.45,-28.98 30.39,-32.68"/>
</a>
</g>
</g>
<!-- Node5 -->
<g id="Node000005" class="node">
<title>Node5</title>
<g id="a_Node000005"><a xlink:title=" ">
<polygon fill="#e0e0e0" stroke="#999999" points="303.17,-20.75 209.17,-20.75 209.17,0 303.17,0 303.17,-20.75"/>
<text text-anchor="middle" x="256.17" y="-7.25" font-family="Helvetica,sans-Serif" font-size="10.00">mlir&#45;c/Support.h</text>
</a>
</g>
</g>
<!-- Node1&#45;&gt;Node5 -->
<g id="edge9_Node000001_Node000005" class="edge">
<title>Node1&#45;&gt;Node5</title>
<g id="a_edge9_Node000001_Node000005"><a xlink:title=" ">
<path fill="none" stroke="#63b8ff" d="M222.79,-182.6C234.23,-173.62 246.72,-161.35 253.17,-147 270.08,-109.37 265.25,-59.73 260.52,-32.14"/>
<polygon fill="#63b8ff" stroke="#63b8ff" points="264.02,-31.8 258.71,-22.63 257.14,-33.1 264.02,-31.8"/>
</a>
</g>
</g>
<!-- Node7 -->
<g id="Node000007" class="node">
<title>Node7</title>
<g id="a_Node000007"><a xlink:href="Include_2IR_2Ops_8capi_8h_8inc.html" target="_top" xlink:title=" ">
<polygon fill="white" stroke="#666666" points="130.67,-147 21.67,-147 21.67,-113.5 130.67,-113.5 130.67,-147"/>
<text text-anchor="start" x="29.67" y="-133.5" font-family="Helvetica,sans-Serif" font-size="10.00">llzk/Dialect/Include</text>
<text text-anchor="middle" x="76.17" y="-120.75" font-family="Helvetica,sans-Serif" font-size="10.00">/IR/Ops.capi.h.inc</text>
</a>
</g>
</g>
<!-- Node1&#45;&gt;Node7 -->
<g id="edge10_Node000001_Node000007" class="edge">
<title>Node1&#45;&gt;Node7</title>
<g id="a_edge10_Node000001_Node000007"><a xlink:title=" ">
<path fill="none" stroke="#63b8ff" d="M168.95,-182.58C152.8,-173.65 132.54,-162.44 115.07,-152.77"/>
<polygon fill="#63b8ff" stroke="#63b8ff" points="116.92,-149.8 106.48,-148.02 113.53,-155.92 116.92,-149.8"/>
</a>
</g>
</g>
<!-- Node8 -->
<g id="Node000008" class="node">
<title>Node8</title>
<g id="a_Node000008"><a xlink:href="InlineIncludesPass_8capi_8h_8inc.html" target="_top" xlink:title=" ">
<polygon fill="white" stroke="#666666" points="536.55,-147 321.8,-147 321.8,-113.5 536.55,-113.5 536.55,-147"/>
<text text-anchor="start" x="329.8" y="-133.5" font-family="Helvetica,sans-Serif" font-size="10.00">llzk/Dialect/Include</text>
<text text-anchor="middle" x="429.17" y="-120.75" font-family="Helvetica,sans-Serif" font-size="10.00">/Transforms/InlineIncludesPass.capi.h.inc</text>
</a>
</g>
</g>
<!-- Node1&#45;&gt;Node8 -->
<g id="edge13_Node000001_Node000008" class="edge">
<title>Node1&#45;&gt;Node8</title>
<g id="a_edge13_Node000001_Node000008"><a xlink:title=" ">
<path fill="none" stroke="#63b8ff" d="M253.5,-182.58C286.38,-172.97 328.29,-160.73 362.92,-150.61"/>
<polygon fill="#63b8ff" stroke="#63b8ff" points="363.82,-153.99 372.44,-147.83 361.86,-147.27 363.82,-153.99"/>
</a>
</g>
</g>
<!-- Node3 -->
<g id="Node000003" class="node">
<title>Node3</title>
<g id="a_Node000003"><a xlink:href="llzk-c_2Builder_8h.html" target="_top" xlink:title=" ">
<polygon fill="white" stroke="#666666" points="120.17,-77.5 32.17,-77.5 32.17,-56.75 120.17,-56.75 120.17,-77.5"/>
<text text-anchor="middle" x="76.17" y="-64" font-family="Helvetica,sans-Serif" font-size="10.00">llzk&#45;c/Builder.h</text>
</a>
</g>
</g>
<!-- Node2&#45;&gt;Node3 -->
<g id="edge2_Node000002_Node000003" class="edge">
<title>Node2&#45;&gt;Node3</title>
<g id="a_edge2_Node000002_Node000003"><a xlink:title=" ">
<path fill="none" stroke="#63b8ff" d="M178.57,-119.43C158.92,-109.58 128.41,-94.3 105.8,-82.97"/>
<polygon fill="#63b8ff" stroke="#63b8ff" points="107.59,-79.95 97.08,-78.6 104.45,-86.21 107.59,-79.95"/>
</a>
</g>
</g>
<!-- Node2&#45;&gt;Node4 -->
<g id="edge5_Node000002_Node000004" class="edge">
<title>Node2&#45;&gt;Node4</title>
<g id="a_edge5_Node000002_Node000004"><a xlink:title=" ">
<path fill="none" stroke="#63b8ff" d="M190.95,-119.81C179.23,-104.96 154.8,-75.86 129.17,-56.75 112.48,-44.3 91.86,-33.55 74.68,-25.64"/>
<polygon fill="#63b8ff" stroke="#63b8ff" points="76.43,-22.58 65.87,-21.71 73.58,-28.98 76.43,-22.58"/>
</a>
</g>
</g>
<!-- Node2&#45;&gt;Node5 -->
<g id="edge6_Node000002_Node000005" class="edge">
<title>Node2&#45;&gt;Node5</title>
<g id="a_edge6_Node000002_Node000005"><a xlink:title=" ">
<path fill="none" stroke="#63b8ff" d="M207.12,-119.67C215.91,-109.79 229.13,-93.61 237.17,-77.5 244.36,-63.1 249.24,-45.54 252.26,-32.13"/>
<polygon fill="#63b8ff" stroke="#63b8ff" points="255.61,-33.18 254.21,-22.68 248.76,-31.77 255.61,-33.18"/>
</a>
</g>
</g>
<!-- Node6 -->
<g id="Node000006" class="node">
<title>Node6</title>
<g id="a_Node000006"><a xlink:title=" ">
<polygon fill="#e0e0e0" stroke="#999999" points="228.55,-77.5 175.8,-77.5 175.8,-56.75 228.55,-56.75 228.55,-77.5"/>
<text text-anchor="middle" x="202.17" y="-64" font-family="Helvetica,sans-Serif" font-size="10.00">stdint.h</text>
</a>
</g>
</g>
<!-- Node2&#45;&gt;Node6 -->
<g id="edge7_Node000002_Node000006" class="edge">
<title>Node2&#45;&gt;Node6</title>
<g id="a_edge7_Node000002_Node000006"><a xlink:title=" ">
<path fill="none" stroke="#63b8ff" d="M198.81,-119.43C199.35,-111.27 200.13,-99.38 200.8,-89.1"/>
<polygon fill="#63b8ff" stroke="#63b8ff" points="204.28,-89.44 201.44,-79.23 197.3,-88.98 204.28,-89.44"/>
</a>
</g>
</g>
<!-- Node3&#45;&gt;Node4 -->
<g id="edge3_Node000003_Node000004" class="edge">
<title>Node3&#45;&gt;Node4</title>
<g id="a_edge3_Node000003_Node000004"><a xlink:title=" ">
<path fill="none" stroke="#63b8ff" d="M69.73,-56.34C65.03,-49.17 58.48,-39.23 52.75,-30.51"/>
<polygon fill="#63b8ff" stroke="#63b8ff" points="55.8,-28.78 47.38,-22.34 49.95,-32.62 55.8,-28.78"/>
</a>
</g>
</g>
<!-- Node3&#45;&gt;Node5 -->
<g id="edge4_Node000003_Node000005" class="edge">
<title>Node3&#45;&gt;Node5</title>
<g id="a_edge4_Node000003_Node000005"><a xlink:title=" ">
<path fill="none" stroke="#63b8ff" d="M108.35,-56.34C137.57,-47.45 180.88,-34.27 213.08,-24.48"/>
<polygon fill="#63b8ff" stroke="#63b8ff" points="213.97,-27.87 222.52,-21.61 211.93,-21.17 213.97,-27.87"/>
</a>
</g>
</g>
<!-- Node7&#45;&gt;Node3 -->
<g id="edge11_Node000007_Node000003" class="edge">
<title>Node7&#45;&gt;Node3</title>
<g id="a_edge11_Node000007_Node000003"><a xlink:title=" ">
<path fill="none" stroke="#63b8ff" d="M76.17,-113.19C76.17,-105.85 76.17,-97.07 76.17,-89.21"/>
<polygon fill="#63b8ff" stroke="#63b8ff" points="79.67,-89.48 76.17,-79.48 72.67,-89.48 79.67,-89.48"/>
</a>
</g>
</g>
<!-- Node7&#45;&gt;Node4 -->
<g id="edge12_Node000007_Node000004" class="edge">
<title>Node7&#45;&gt;Node4</title>
<g id="a_edge12_Node000007_Node000004"><a xlink:title=" ">
<path fill="none" stroke="#63b8ff" d="M52.54,-113.22C41.38,-104.19 29.21,-91.84 23.17,-77.5 16.84,-62.48 22.22,-44.52 28.55,-31.11"/>
<polygon fill="#63b8ff" stroke="#63b8ff" points="31.56,-32.89 33.15,-22.42 25.38,-29.62 31.56,-32.89"/>
</a>
</g>
</g>
<!-- Node9 -->
<g id="Node000009" class="node">
<title>Node9</title>
<g id="a_Node000009"><a xlink:title=" ">
<polygon fill="#e0e0e0" stroke="#999999" points="468.3,-77.5 390.05,-77.5 390.05,-56.75 468.3,-56.75 468.3,-77.5"/>
<text text-anchor="middle" x="429.17" y="-64" font-family="Helvetica,sans-Serif" font-size="10.00">mlir&#45;c/Pass.h</text>
</a>
</g>
</g>
<!-- Node8&#45;&gt;Node9 -->
<g id="edge14_Node000008_Node000009" class="edge">
<title>Node8&#45;&gt;Node9</title>
<g id="a_edge14_Node000008_Node000009"><a xlink:title=" ">
<path fill="none" stroke="#63b8ff" d="M429.17,-113.19C429.17,-105.85 429.17,-97.07 429.17,-89.21"/>
<polygon fill="#63b8ff" stroke="#63b8ff" points="432.67,-89.48 429.17,-79.48 425.67,-89.48 432.67,-89.48"/>
</a>
</g>
</g>
</g>
</svg>
