<?xml version="1.0" encoding="UTF-8" standalone="no"?>
<!DOCTYPE svg PUBLIC "-//W3C//DTD SVG 1.1//EN"
 "http://www.w3.org/Graphics/SVG/1.1/DTD/svg11.dtd">
<!-- Generated by graphviz version 12.2.1 (0)
 -->
<!-- Title: lib/Dialect/Include/IR/Dialect.cpp Pages: 1 -->
<svg width="747pt" height="250pt"
 viewBox="0.00 0.00 746.75 250.00" xmlns="http://www.w3.org/2000/svg" xmlns:xlink="http://www.w3.org/1999/xlink">
<g id="graph0" class="graph" transform="scale(1 1) rotate(0) translate(4 246)">
<title>lib/Dialect/Include/IR/Dialect.cpp</title>
<!-- Node1 -->
<g id="Node000001" class="node">
<title>Node1</title>
<g id="a_Node000001"><a xlink:title=" ">
<polygon fill="#999999" stroke="#666666" points="481.12,-242 377.38,-242 377.38,-208.5 481.12,-208.5 481.12,-242"/>
<text text-anchor="start" x="385.38" y="-228.5" font-family="Helvetica,sans-Serif" font-size="10.00">lib/Dialect/Include</text>
<text text-anchor="middle" x="429.25" y="-215.75" font-family="Helvetica,sans-Serif" font-size="10.00">/IR/Dialect.cpp</text>
</a>
</g>
</g>
<!-- Node2 -->
<g id="Node000002" class="node">
<title>Node2</title>
<g id="a_Node000002"><a xlink:href="Include_2IR_2Dialect_8h.html" target="_top" xlink:title=" ">
<polygon fill="white" stroke="#666666" points="173.75,-103 64.75,-103 64.75,-69.5 173.75,-69.5 173.75,-103"/>
<text text-anchor="start" x="72.75" y="-89.5" font-family="Helvetica,sans-Serif" font-size="10.00">llzk/Dialect/Include</text>
<text text-anchor="middle" x="119.25" y="-76.75" font-family="Helvetica,sans-Serif" font-size="10.00">/IR/Dialect.h</text>
</a>
</g>
</g>
<!-- Node1&#45;&gt;Node2 -->
<g id="edge1_Node000001_Node000002" class="edge">
<title>Node1&#45;&gt;Node2</title>
<g id="a_edge1_Node000001_Node000002"><a xlink:title=" ">
<path fill="none" stroke="#63b8ff" d="M376.98,-223.9C324.01,-221.24 241.62,-210.59 182.25,-172.5 159.77,-158.08 142.53,-132.61 131.82,-113.26"/>
<polygon fill="#63b8ff" stroke="#63b8ff" points="135,-111.8 127.25,-104.58 128.81,-115.06 135,-111.8"/>
</a>
</g>
</g>
<!-- Node5 -->
<g id="Node000005" class="node">
<title>Node5</title>
<g id="a_Node000005"><a xlink:href="Include_2IR_2Ops_8h.html" target="_top" xlink:title=" ">
<polygon fill="white" stroke="#666666" points="300.75,-172.5 191.75,-172.5 191.75,-139 300.75,-139 300.75,-172.5"/>
<text text-anchor="start" x="199.75" y="-159" font-family="Helvetica,sans-Serif" font-size="10.00">llzk/Dialect/Include</text>
<text text-anchor="middle" x="246.25" y="-146.25" font-family="Helvetica,sans-Serif" font-size="10.00">/IR/Ops.h</text>
</a>
</g>
</g>
<!-- Node1&#45;&gt;Node5 -->
<g id="edge4_Node000001_Node000005" class="edge">
<title>Node1&#45;&gt;Node5</title>
<g id="a_edge4_Node000001_Node000005"><a xlink:title=" ">
<path fill="none" stroke="#63b8ff" d="M385.42,-208.08C359.93,-198.68 327.6,-186.76 300.52,-176.77"/>
<polygon fill="#63b8ff" stroke="#63b8ff" points="302.06,-173.6 291.46,-173.43 299.63,-180.17 302.06,-173.6"/>
</a>
</g>
</g>
<!-- Node7 -->
<g id="Node000007" class="node">
<title>Node7</title>
<g id="a_Node000007"><a xlink:href="Versioning_8h.html" target="_top" xlink:title=" ">
<polygon fill="white" stroke="#666666" points="484.5,-172.5 374,-172.5 374,-139 484.5,-139 484.5,-172.5"/>
<text text-anchor="start" x="382" y="-159" font-family="Helvetica,sans-Serif" font-size="10.00">llzk/Dialect/LLZK/IR</text>
<text text-anchor="middle" x="429.25" y="-146.25" font-family="Helvetica,sans-Serif" font-size="10.00">/Versioning.h</text>
</a>
</g>
</g>
<!-- Node1&#45;&gt;Node7 -->
<g id="edge7_Node000001_Node000007" class="edge">
<title>Node1&#45;&gt;Node7</title>
<g id="a_edge7_Node000001_Node000007"><a xlink:title=" ">
<path fill="none" stroke="#63b8ff" d="M429.25,-208.25C429.25,-201.02 429.25,-192.28 429.25,-184.06"/>
<polygon fill="#63b8ff" stroke="#63b8ff" points="432.75,-184.15 429.25,-174.15 425.75,-184.15 432.75,-184.15"/>
</a>
</g>
</g>
<!-- Node11 -->
<g id="Node000011" class="node">
<title>Node11</title>
<g id="a_Node000011"><a xlink:href="Include_2IR_2Dialect_8cpp_8inc.html" target="_top" xlink:title=" ">
<polygon fill="white" stroke="#666666" points="611.75,-172.5 502.75,-172.5 502.75,-139 611.75,-139 611.75,-172.5"/>
<text text-anchor="start" x="510.75" y="-159" font-family="Helvetica,sans-Serif" font-size="10.00">llzk/Dialect/Include</text>
<text text-anchor="middle" x="557.25" y="-146.25" font-family="Helvetica,sans-Serif" font-size="10.00">/IR/Dialect.cpp.inc</text>
</a>
</g>
</g>
<!-- Node1&#45;&gt;Node11 -->
<g id="edge11_Node000001_Node000011" class="edge">
<title>Node1&#45;&gt;Node11</title>
<g id="a_edge11_Node000001_Node000011"><a xlink:title=" ">
<path fill="none" stroke="#63b8ff" d="M459.91,-208.08C476.93,-199.11 498.31,-187.83 516.7,-178.13"/>
<polygon fill="#63b8ff" stroke="#63b8ff" points="518.29,-181.25 525.5,-173.49 515.02,-175.06 518.29,-181.25"/>
</a>
</g>
</g>
<!-- Node12 -->
<g id="Node000012" class="node">
<title>Node12</title>
<g id="a_Node000012"><a xlink:href="Include_2IR_2Ops_8cpp_8inc.html" target="_top" xlink:title=" ">
<polygon fill="white" stroke="#666666" points="738.75,-172.5 629.75,-172.5 629.75,-139 738.75,-139 738.75,-172.5"/>
<text text-anchor="start" x="637.75" y="-159" font-family="Helvetica,sans-Serif" font-size="10.00">llzk/Dialect/Include</text>
<text text-anchor="middle" x="684.25" y="-146.25" font-family="Helvetica,sans-Serif" font-size="10.00">/IR/Ops.cpp.inc</text>
</a>
</g>
</g>
<!-- Node1&#45;&gt;Node12 -->
<g id="edge12_Node000001_Node000012" class="edge">
<title>Node1&#45;&gt;Node12</title>
<g id="a_edge12_Node000001_Node000012"><a xlink:title=" ">
<path fill="none" stroke="#63b8ff" d="M481.47,-210.43C521.06,-199.95 575.74,-185.47 618.35,-174.2"/>
<polygon fill="#63b8ff" stroke="#63b8ff" points="619.22,-177.58 627.99,-171.64 617.43,-170.82 619.22,-177.58"/>
</a>
</g>
</g>
<!-- Node3 -->
<g id="Node000003" class="node">
<title>Node3</title>
<g id="a_Node000003"><a xlink:title=" ">
<polygon fill="#e0e0e0" stroke="#999999" points="110.5,-27.12 0,-27.12 0,-6.38 110.5,-6.38 110.5,-27.12"/>
<text text-anchor="middle" x="55.25" y="-13.62" font-family="Helvetica,sans-Serif" font-size="10.00">mlir/IR/BuiltinOps.h</text>
</a>
</g>
</g>
<!-- Node2&#45;&gt;Node3 -->
<g id="edge2_Node000002_Node000003" class="edge">
<title>Node2&#45;&gt;Node3</title>
<g id="a_edge2_Node000002_Node000003"><a xlink:title=" ">
<path fill="none" stroke="#63b8ff" d="M104.08,-69.25C94.59,-59.24 82.34,-46.32 72.48,-35.92"/>
<polygon fill="#63b8ff" stroke="#63b8ff" points="75.02,-33.52 65.6,-28.67 69.94,-38.34 75.02,-33.52"/>
</a>
</g>
</g>
<!-- Node4 -->
<g id="Node000004" class="node">
<title>Node4</title>
<g id="a_Node000004"><a xlink:href="Include_2IR_2Dialect_8h_8inc.html" target="_top" xlink:title=" ">
<polygon fill="white" stroke="#666666" points="237.75,-33.5 128.75,-33.5 128.75,0 237.75,0 237.75,-33.5"/>
<text text-anchor="start" x="136.75" y="-20" font-family="Helvetica,sans-Serif" font-size="10.00">llzk/Dialect/Include</text>
<text text-anchor="middle" x="183.25" y="-7.25" font-family="Helvetica,sans-Serif" font-size="10.00">/IR/Dialect.h.inc</text>
</a>
</g>
</g>
<!-- Node2&#45;&gt;Node4 -->
<g id="edge3_Node000002_Node000004" class="edge">
<title>Node2&#45;&gt;Node4</title>
<g id="a_edge3_Node000002_Node000004"><a xlink:title=" ">
<path fill="none" stroke="#63b8ff" d="M134.42,-69.25C142.15,-61.1 151.71,-51.01 160.32,-41.93"/>
<polygon fill="#63b8ff" stroke="#63b8ff" points="162.81,-44.39 167.15,-34.73 157.73,-39.58 162.81,-44.39"/>
</a>
</g>
</g>
<!-- Node5&#45;&gt;Node2 -->
<g id="edge5_Node000005_Node000002" class="edge">
<title>Node5&#45;&gt;Node2</title>
<g id="a_edge5_Node000005_Node000002"><a xlink:title=" ">
<path fill="none" stroke="#63b8ff" d="M215.83,-138.58C198.94,-129.61 177.73,-118.33 159.48,-108.63"/>
<polygon fill="#63b8ff" stroke="#63b8ff" points="161.23,-105.6 150.76,-104 157.95,-111.78 161.23,-105.6"/>
</a>
</g>
</g>
<!-- Node6 -->
<g id="Node000006" class="node">
<title>Node6</title>
<g id="a_Node000006"><a xlink:href="Include_2IR_2Ops_8h_8inc.html" target="_top" xlink:title=" ">
<polygon fill="white" stroke="#666666" points="300.75,-103 191.75,-103 191.75,-69.5 300.75,-69.5 300.75,-103"/>
<text text-anchor="start" x="199.75" y="-89.5" font-family="Helvetica,sans-Serif" font-size="10.00">llzk/Dialect/Include</text>
<text text-anchor="middle" x="246.25" y="-76.75" font-family="Helvetica,sans-Serif" font-size="10.00">/IR/Ops.h.inc</text>
</a>
</g>
</g>
<!-- Node5&#45;&gt;Node6 -->
<g id="edge6_Node000005_Node000006" class="edge">
<title>Node5&#45;&gt;Node6</title>
<g id="a_edge6_Node000005_Node000006"><a xlink:title=" ">
<path fill="none" stroke="#63b8ff" d="M246.25,-138.75C246.25,-131.52 246.25,-122.78 246.25,-114.56"/>
<polygon fill="#63b8ff" stroke="#63b8ff" points="249.75,-114.65 246.25,-104.65 242.75,-114.65 249.75,-114.65"/>
</a>
</g>
</g>
<!-- Node8 -->
<g id="Node000008" class="node">
<title>Node8</title>
<g id="a_Node000008"><a xlink:title=" ">
<polygon fill="#e0e0e0" stroke="#999999" points="539.25,-96.62 319.25,-96.62 319.25,-75.88 539.25,-75.88 539.25,-96.62"/>
<text text-anchor="middle" x="429.25" y="-83.12" font-family="Helvetica,sans-Serif" font-size="10.00">mlir/Bytecode/BytecodeImplementation.h</text>
</a>
</g>
</g>
<!-- Node7&#45;&gt;Node8 -->
<g id="edge8_Node000007_Node000008" class="edge">
<title>Node7&#45;&gt;Node8</title>
<g id="a_edge8_Node000007_Node000008"><a xlink:title=" ">
<path fill="none" stroke="#63b8ff" d="M429.25,-138.75C429.25,-129.65 429.25,-118.14 429.25,-108.32"/>
<polygon fill="#63b8ff" stroke="#63b8ff" points="432.75,-108.59 429.25,-98.59 425.75,-108.59 432.75,-108.59"/>
</a>
</g>
</g>
<!-- Node9 -->
<g id="Node000009" class="node">
<title>Node9</title>
<g id="a_Node000009"><a xlink:title=" ">
<polygon fill="#e0e0e0" stroke="#999999" points="655.5,-96.62 557,-96.62 557,-75.88 655.5,-75.88 655.5,-96.62"/>
<text text-anchor="middle" x="606.25" y="-83.12" font-family="Helvetica,sans-Serif" font-size="10.00">llvm/ADT/APInt.h</text>
</a>
</g>
</g>
<!-- Node7&#45;&gt;Node9 -->
<g id="edge9_Node000007_Node000009" class="edge">
<title>Node7&#45;&gt;Node9</title>
<g id="a_edge9_Node000007_Node000009"><a xlink:title=" ">
<path fill="none" stroke="#63b8ff" d="M471.65,-138.58C501.53,-127.19 541.15,-112.08 569.65,-101.21"/>
<polygon fill="#63b8ff" stroke="#63b8ff" points="570.86,-104.49 578.96,-97.66 568.36,-97.95 570.86,-104.49"/>
</a>
</g>
</g>
<!-- Node10 -->
<g id="Node000010" class="node">
<title>Node10</title>
<g id="a_Node000010"><a xlink:title=" ">
<polygon fill="#e0e0e0" stroke="#999999" points="717.12,-96.62 673.38,-96.62 673.38,-75.88 717.12,-75.88 717.12,-96.62"/>
<text text-anchor="middle" x="695.25" y="-83.12" font-family="Helvetica,sans-Serif" font-size="10.00">limits</text>
</a>
</g>
</g>
<!-- Node7&#45;&gt;Node10 -->
<g id="edge10_Node000007_Node000010" class="edge">
<title>Node7&#45;&gt;Node10</title>
<g id="a_edge10_Node000007_Node000010"><a xlink:title=" ">
<path fill="none" stroke="#63b8ff" d="M484.89,-141.15C488.06,-140.42 491.19,-139.69 494.25,-139 569.57,-121.9 591.42,-128.71 664.25,-103 665.39,-102.6 666.54,-102.16 667.69,-101.7"/>
<polygon fill="#63b8ff" stroke="#63b8ff" points="668.86,-105.01 676.52,-97.69 665.97,-98.64 668.86,-105.01"/>
</a>
</g>
</g>
</g>
</svg>
