<?xml version="1.0" encoding="UTF-8" standalone="no"?>
<!DOCTYPE svg PUBLIC "-//W3C//DTD SVG 1.1//EN"
 "http://www.w3.org/Graphics/SVG/1.1/DTD/svg11.dtd">
<!-- Generated by graphviz version 12.2.1 (0)
 -->
<!-- Title: lib/Dialect/Include/IR/Ops.cpp Pages: 1 -->
<svg width="581pt" height="250pt"
 viewBox="0.00 0.00 580.75 250.00" xmlns="http://www.w3.org/2000/svg" xmlns:xlink="http://www.w3.org/1999/xlink">
<g id="graph0" class="graph" transform="scale(1 1) rotate(0) translate(4 246)">
<title>lib/Dialect/Include/IR/Ops.cpp</title>
<!-- Node1 -->
<g id="Node000001" class="node">
<title>Node1</title>
<g id="a_Node000001"><a xlink:title=" ">
<polygon fill="#999999" stroke="#666666" points="432.12,-242 328.38,-242 328.38,-208.5 432.12,-208.5 432.12,-242"/>
<text text-anchor="start" x="336.38" y="-228.5" font-family="Helvetica,sans-Serif" font-size="10.00">lib/Dialect/Include</text>
<text text-anchor="middle" x="380.25" y="-215.75" font-family="Helvetica,sans-Serif" font-size="10.00">/IR/Ops.cpp</text>
</a>
</g>
</g>
<!-- Node2 -->
<g id="Node000002" class="node">
<title>Node2</title>
<g id="a_Node000002"><a xlink:href="Include_2IR_2Ops_8h.html" target="_top" xlink:title=" ">
<polygon fill="white" stroke="#666666" points="296.75,-172.5 187.75,-172.5 187.75,-139 296.75,-139 296.75,-172.5"/>
<text text-anchor="start" x="195.75" y="-159" font-family="Helvetica,sans-Serif" font-size="10.00">llzk/Dialect/Include</text>
<text text-anchor="middle" x="242.25" y="-146.25" font-family="Helvetica,sans-Serif" font-size="10.00">/IR/Ops.h</text>
</a>
</g>
</g>
<!-- Node1&#45;&gt;Node2 -->
<g id="edge1_Node000001_Node000002" class="edge">
<title>Node1&#45;&gt;Node2</title>
<g id="a_edge1_Node000001_Node000002"><a xlink:title=" ">
<path fill="none" stroke="#63b8ff" d="M347.2,-208.08C328.59,-198.98 305.15,-187.52 285.14,-177.73"/>
<polygon fill="#63b8ff" stroke="#63b8ff" points="286.92,-174.7 276.39,-173.45 283.84,-180.99 286.92,-174.7"/>
</a>
</g>
</g>
<!-- Node7 -->
<g id="Node000007" class="node">
<title>Node7</title>
<g id="a_Node000007"><a xlink:href="BuilderHelper_8h.html" target="_top" xlink:title=" ">
<polygon fill="white" stroke="#666666" points="446,-166.12 314.5,-166.12 314.5,-145.38 446,-145.38 446,-166.12"/>
<text text-anchor="middle" x="380.25" y="-152.62" font-family="Helvetica,sans-Serif" font-size="10.00">llzk/Util/BuilderHelper.h</text>
</a>
</g>
</g>
<!-- Node1&#45;&gt;Node7 -->
<g id="edge6_Node000001_Node000007" class="edge">
<title>Node1&#45;&gt;Node7</title>
<g id="a_edge6_Node000001_Node000007"><a xlink:title=" ">
<path fill="none" stroke="#63b8ff" d="M380.25,-208.25C380.25,-199.15 380.25,-187.64 380.25,-177.82"/>
<polygon fill="#63b8ff" stroke="#63b8ff" points="383.75,-178.09 380.25,-168.09 376.75,-178.09 383.75,-178.09"/>
</a>
</g>
</g>
<!-- Node10 -->
<g id="Node000010" class="node">
<title>Node10</title>
<g id="a_Node000010"><a xlink:href="Include_2IR_2Ops_8cpp_8inc.html" target="_top" xlink:title=" ">
<polygon fill="white" stroke="#666666" points="572.75,-172.5 463.75,-172.5 463.75,-139 572.75,-139 572.75,-172.5"/>
<text text-anchor="start" x="471.75" y="-159" font-family="Helvetica,sans-Serif" font-size="10.00">llzk/Dialect/Include</text>
<text text-anchor="middle" x="518.25" y="-146.25" font-family="Helvetica,sans-Serif" font-size="10.00">/IR/Ops.cpp.inc</text>
</a>
</g>
</g>
<!-- Node1&#45;&gt;Node10 -->
<g id="edge9_Node000001_Node000010" class="edge">
<title>Node1&#45;&gt;Node10</title>
<g id="a_edge9_Node000001_Node000010"><a xlink:title=" ">
<path fill="none" stroke="#63b8ff" d="M413.3,-208.08C431.91,-198.98 455.35,-187.52 475.36,-177.73"/>
<polygon fill="#63b8ff" stroke="#63b8ff" points="476.66,-180.99 484.11,-173.45 473.58,-174.7 476.66,-180.99"/>
</a>
</g>
</g>
<!-- Node3 -->
<g id="Node000003" class="node">
<title>Node3</title>
<g id="a_Node000003"><a xlink:href="Include_2IR_2Dialect_8h.html" target="_top" xlink:title=" ">
<polygon fill="white" stroke="#666666" points="173.75,-103 64.75,-103 64.75,-69.5 173.75,-69.5 173.75,-103"/>
<text text-anchor="start" x="72.75" y="-89.5" font-family="Helvetica,sans-Serif" font-size="10.00">llzk/Dialect/Include</text>
<text text-anchor="middle" x="119.25" y="-76.75" font-family="Helvetica,sans-Serif" font-size="10.00">/IR/Dialect.h</text>
</a>
</g>
</g>
<!-- Node2&#45;&gt;Node3 -->
<g id="edge2_Node000002_Node000003" class="edge">
<title>Node2&#45;&gt;Node3</title>
<g id="a_edge2_Node000002_Node000003"><a xlink:title=" ">
<path fill="none" stroke="#63b8ff" d="M212.79,-138.58C196.51,-129.65 176.08,-118.44 158.46,-108.77"/>
<polygon fill="#63b8ff" stroke="#63b8ff" points="160.25,-105.76 149.8,-104.01 156.88,-111.89 160.25,-105.76"/>
</a>
</g>
</g>
<!-- Node6 -->
<g id="Node000006" class="node">
<title>Node6</title>
<g id="a_Node000006"><a xlink:href="Include_2IR_2Ops_8h_8inc.html" target="_top" xlink:title=" ">
<polygon fill="white" stroke="#666666" points="300.75,-103 191.75,-103 191.75,-69.5 300.75,-69.5 300.75,-103"/>
<text text-anchor="start" x="199.75" y="-89.5" font-family="Helvetica,sans-Serif" font-size="10.00">llzk/Dialect/Include</text>
<text text-anchor="middle" x="246.25" y="-76.75" font-family="Helvetica,sans-Serif" font-size="10.00">/IR/Ops.h.inc</text>
</a>
</g>
</g>
<!-- Node2&#45;&gt;Node6 -->
<g id="edge5_Node000002_Node000006" class="edge">
<title>Node2&#45;&gt;Node6</title>
<g id="a_edge5_Node000002_Node000006"><a xlink:title=" ">
<path fill="none" stroke="#63b8ff" d="M243.2,-138.75C243.63,-131.52 244.14,-122.78 244.63,-114.56"/>
<polygon fill="#63b8ff" stroke="#63b8ff" points="248.12,-114.83 245.22,-104.64 241.13,-114.42 248.12,-114.83"/>
</a>
</g>
</g>
<!-- Node4 -->
<g id="Node000004" class="node">
<title>Node4</title>
<g id="a_Node000004"><a xlink:title=" ">
<polygon fill="#e0e0e0" stroke="#999999" points="110.5,-27.12 0,-27.12 0,-6.38 110.5,-6.38 110.5,-27.12"/>
<text text-anchor="middle" x="55.25" y="-13.62" font-family="Helvetica,sans-Serif" font-size="10.00">mlir/IR/BuiltinOps.h</text>
</a>
</g>
</g>
<!-- Node3&#45;&gt;Node4 -->
<g id="edge3_Node000003_Node000004" class="edge">
<title>Node3&#45;&gt;Node4</title>
<g id="a_edge3_Node000003_Node000004"><a xlink:title=" ">
<path fill="none" stroke="#63b8ff" d="M104.08,-69.25C94.59,-59.24 82.34,-46.32 72.48,-35.92"/>
<polygon fill="#63b8ff" stroke="#63b8ff" points="75.02,-33.52 65.6,-28.67 69.94,-38.34 75.02,-33.52"/>
</a>
</g>
</g>
<!-- Node5 -->
<g id="Node000005" class="node">
<title>Node5</title>
<g id="a_Node000005"><a xlink:href="Include_2IR_2Dialect_8h_8inc.html" target="_top" xlink:title=" ">
<polygon fill="white" stroke="#666666" points="237.75,-33.5 128.75,-33.5 128.75,0 237.75,0 237.75,-33.5"/>
<text text-anchor="start" x="136.75" y="-20" font-family="Helvetica,sans-Serif" font-size="10.00">llzk/Dialect/Include</text>
<text text-anchor="middle" x="183.25" y="-7.25" font-family="Helvetica,sans-Serif" font-size="10.00">/IR/Dialect.h.inc</text>
</a>
</g>
</g>
<!-- Node3&#45;&gt;Node5 -->
<g id="edge4_Node000003_Node000005" class="edge">
<title>Node3&#45;&gt;Node5</title>
<g id="a_edge4_Node000003_Node000005"><a xlink:title=" ">
<path fill="none" stroke="#63b8ff" d="M134.42,-69.25C142.15,-61.1 151.71,-51.01 160.32,-41.93"/>
<polygon fill="#63b8ff" stroke="#63b8ff" points="162.81,-44.39 167.15,-34.73 157.73,-39.58 162.81,-44.39"/>
</a>
</g>
</g>
<!-- Node8 -->
<g id="Node000008" class="node">
<title>Node8</title>
<g id="a_Node000008"><a xlink:title=" ">
<polygon fill="#e0e0e0" stroke="#999999" points="426.25,-96.62 326.25,-96.62 326.25,-75.88 426.25,-75.88 426.25,-96.62"/>
<text text-anchor="middle" x="376.25" y="-83.12" font-family="Helvetica,sans-Serif" font-size="10.00">mlir/IR/Builders.h</text>
</a>
</g>
</g>
<!-- Node7&#45;&gt;Node8 -->
<g id="edge7_Node000007_Node000008" class="edge">
<title>Node7&#45;&gt;Node8</title>
<g id="a_edge7_Node000007_Node000008"><a xlink:title=" ">
<path fill="none" stroke="#63b8ff" d="M379.68,-145.08C379.11,-135.46 378.21,-120.38 377.48,-108.04"/>
<polygon fill="#63b8ff" stroke="#63b8ff" points="381,-108.19 376.91,-98.41 374.01,-108.6 381,-108.19"/>
</a>
</g>
</g>
<!-- Node9 -->
<g id="Node000009" class="node">
<title>Node9</title>
<g id="a_Node000009"><a xlink:title=" ">
<polygon fill="#e0e0e0" stroke="#999999" points="546,-96.62 444.5,-96.62 444.5,-75.88 546,-75.88 546,-96.62"/>
<text text-anchor="middle" x="495.25" y="-83.12" font-family="Helvetica,sans-Serif" font-size="10.00">mlir/IR/Location.h</text>
</a>
</g>
</g>
<!-- Node7&#45;&gt;Node9 -->
<g id="edge8_Node000007_Node000009" class="edge">
<title>Node7&#45;&gt;Node9</title>
<g id="a_edge8_Node000007_Node000009"><a xlink:title=" ">
<path fill="none" stroke="#63b8ff" d="M396.73,-145.08C415.49,-134.06 446.42,-115.91 468.62,-102.88"/>
<polygon fill="#63b8ff" stroke="#63b8ff" points="470.27,-105.97 477.12,-97.89 466.73,-99.93 470.27,-105.97"/>
</a>
</g>
</g>
</g>
</svg>
