<?xml version="1.0" encoding="UTF-8" standalone="no"?>
<!DOCTYPE svg PUBLIC "-//W3C//DTD SVG 1.1//EN"
 "http://www.w3.org/Graphics/SVG/1.1/DTD/svg11.dtd">
<!-- Generated by graphviz version 12.2.1 (0)
 -->
<!-- Title: include/llzk&#45;c/Dialect/Include.h Pages: 1 -->
<svg width="456pt" height="225pt"
 viewBox="0.00 0.00 456.38 224.50" xmlns="http://www.w3.org/2000/svg" xmlns:xlink="http://www.w3.org/1999/xlink">
<g id="graph0" class="graph" transform="scale(1 1) rotate(0) translate(4 220.5)">
<title>include/llzk&#45;c/Dialect/Include.h</title>
<!-- Node1 -->
<g id="Node000001" class="node">
<title>Node1</title>
<g id="a_Node000001"><a xlink:title=" ">
<polygon fill="#999999" stroke="#666666" points="223,-216.5 105,-216.5 105,-183 223,-183 223,-216.5"/>
<text text-anchor="start" x="113" y="-203" font-family="Helvetica,sans-Serif" font-size="10.00">include/llzk&#45;c/Dialect</text>
<text text-anchor="middle" x="164" y="-190.25" font-family="Helvetica,sans-Serif" font-size="10.00">/Include.h</text>
</a>
</g>
</g>
<!-- Node2 -->
<g id="Node000002" class="node">
<title>Node2</title>
<g id="a_Node000002"><a xlink:title=" ">
<polygon fill="#e0e0e0" stroke="#999999" points="201.12,-20.75 134.88,-20.75 134.88,0 201.12,0 201.12,-20.75"/>
<text text-anchor="middle" x="168" y="-7.25" font-family="Helvetica,sans-Serif" font-size="10.00">mlir&#45;c/IR.h</text>
</a>
</g>
</g>
<!-- Node1&#45;&gt;Node2 -->
<g id="edge1_Node000001_Node000002" class="edge">
<title>Node1&#45;&gt;Node2</title>
<g id="a_edge1_Node000001_Node000002"><a xlink:title=" ">
<path fill="none" stroke="#63b8ff" d="M173.3,-182.57C178.46,-172.65 184.35,-159.5 187,-147 195.6,-106.46 183.68,-58.25 175.2,-31.61"/>
<polygon fill="#63b8ff" stroke="#63b8ff" points="178.62,-30.79 172.11,-22.43 171.98,-33.02 178.62,-30.79"/>
</a>
</g>
</g>
<!-- Node3 -->
<g id="Node000003" class="node">
<title>Node3</title>
<g id="a_Node000003"><a xlink:title=" ">
<polygon fill="#e0e0e0" stroke="#999999" points="94,-20.75 0,-20.75 0,0 94,0 94,-20.75"/>
<text text-anchor="middle" x="47" y="-7.25" font-family="Helvetica,sans-Serif" font-size="10.00">mlir&#45;c/Support.h</text>
</a>
</g>
</g>
<!-- Node1&#45;&gt;Node3 -->
<g id="edge2_Node000001_Node000003" class="edge">
<title>Node1&#45;&gt;Node3</title>
<g id="a_edge2_Node000001_Node000003"><a xlink:title=" ">
<path fill="none" stroke="#63b8ff" d="M109.15,-182.51C90.77,-174.54 71.74,-163.09 59,-147 32.93,-114.06 37.27,-61.5 42.36,-32.43"/>
<polygon fill="#63b8ff" stroke="#63b8ff" points="45.78,-33.18 44.29,-22.69 38.92,-31.83 45.78,-33.18"/>
</a>
</g>
</g>
<!-- Node4 -->
<g id="Node000004" class="node">
<title>Node4</title>
<g id="a_Node000004"><a xlink:href="Include_2IR_2Ops_8capi_8h_8inc.html" target="_top" xlink:title=" ">
<polygon fill="white" stroke="#666666" points="177.5,-147 68.5,-147 68.5,-113.5 177.5,-113.5 177.5,-147"/>
<text text-anchor="start" x="76.5" y="-133.5" font-family="Helvetica,sans-Serif" font-size="10.00">llzk/Dialect/Include</text>
<text text-anchor="middle" x="123" y="-120.75" font-family="Helvetica,sans-Serif" font-size="10.00">/IR/Ops.capi.h.inc</text>
</a>
</g>
</g>
<!-- Node1&#45;&gt;Node4 -->
<g id="edge3_Node000001_Node000004" class="edge">
<title>Node1&#45;&gt;Node4</title>
<g id="a_edge3_Node000001_Node000004"><a xlink:title=" ">
<path fill="none" stroke="#63b8ff" d="M154.28,-182.75C149.59,-175.02 143.83,-165.55 138.55,-156.84"/>
<polygon fill="#63b8ff" stroke="#63b8ff" points="141.62,-155.16 133.43,-148.43 135.63,-158.79 141.62,-155.16"/>
</a>
</g>
</g>
<!-- Node6 -->
<g id="Node000006" class="node">
<title>Node6</title>
<g id="a_Node000006"><a xlink:href="InlineIncludesPass_8capi_8h_8inc.html" target="_top" xlink:title=" ">
<polygon fill="white" stroke="#666666" points="448.38,-147 233.62,-147 233.62,-113.5 448.38,-113.5 448.38,-147"/>
<text text-anchor="start" x="241.62" y="-133.5" font-family="Helvetica,sans-Serif" font-size="10.00">llzk/Dialect/Include</text>
<text text-anchor="middle" x="341" y="-120.75" font-family="Helvetica,sans-Serif" font-size="10.00">/Transforms/InlineIncludesPass.capi.h.inc</text>
</a>
</g>
</g>
<!-- Node1&#45;&gt;Node6 -->
<g id="edge8_Node000001_Node000006" class="edge">
<title>Node1&#45;&gt;Node6</title>
<g id="a_edge8_Node000001_Node000006"><a xlink:title=" ">
<path fill="none" stroke="#63b8ff" d="M206.4,-182.58C230.94,-173.22 262.04,-161.36 288.16,-151.4"/>
<polygon fill="#63b8ff" stroke="#63b8ff" points="289.13,-154.78 297.23,-147.94 286.64,-148.24 289.13,-154.78"/>
</a>
</g>
</g>
<!-- Node4&#45;&gt;Node2 -->
<g id="edge7_Node000004_Node000002" class="edge">
<title>Node4&#45;&gt;Node2</title>
<g id="a_edge7_Node000004_Node000002"><a xlink:title=" ">
<path fill="none" stroke="#63b8ff" d="M131.99,-113.29C137.41,-103.23 144.17,-89.86 149,-77.5 154.8,-62.66 159.71,-45.34 163.09,-32.14"/>
<polygon fill="#63b8ff" stroke="#63b8ff" points="166.49,-32.99 165.47,-22.45 159.69,-31.32 166.49,-32.99"/>
</a>
</g>
</g>
<!-- Node5 -->
<g id="Node000005" class="node">
<title>Node5</title>
<g id="a_Node000005"><a xlink:href="llzk-c_2Builder_8h.html" target="_top" xlink:title=" ">
<polygon fill="white" stroke="#666666" points="140,-77.5 52,-77.5 52,-56.75 140,-56.75 140,-77.5"/>
<text text-anchor="middle" x="96" y="-64" font-family="Helvetica,sans-Serif" font-size="10.00">llzk&#45;c/Builder.h</text>
</a>
</g>
</g>
<!-- Node4&#45;&gt;Node5 -->
<g id="edge4_Node000004_Node000005" class="edge">
<title>Node4&#45;&gt;Node5</title>
<g id="a_edge4_Node000004_Node000005"><a xlink:title=" ">
<path fill="none" stroke="#63b8ff" d="M115.91,-113.19C112.55,-105.59 108.51,-96.44 104.94,-88.37"/>
<polygon fill="#63b8ff" stroke="#63b8ff" points="108.2,-87.08 100.96,-79.35 101.8,-89.91 108.2,-87.08"/>
</a>
</g>
</g>
<!-- Node5&#45;&gt;Node2 -->
<g id="edge5_Node000005_Node000002" class="edge">
<title>Node5&#45;&gt;Node2</title>
<g id="a_edge5_Node000005_Node000002"><a xlink:title=" ">
<path fill="none" stroke="#63b8ff" d="M108.87,-56.34C119.21,-48.47 133.97,-37.25 146.15,-27.99"/>
<polygon fill="#63b8ff" stroke="#63b8ff" points="148.19,-30.83 154.03,-21.99 143.96,-25.26 148.19,-30.83"/>
</a>
</g>
</g>
<!-- Node5&#45;&gt;Node3 -->
<g id="edge6_Node000005_Node000003" class="edge">
<title>Node5&#45;&gt;Node3</title>
<g id="a_edge6_Node000005_Node000003"><a xlink:title=" ">
<path fill="none" stroke="#63b8ff" d="M87.24,-56.34C80.55,-48.86 71.15,-38.36 63.11,-29.38"/>
<polygon fill="#63b8ff" stroke="#63b8ff" points="65.97,-27.32 56.69,-22.21 60.75,-31.99 65.97,-27.32"/>
</a>
</g>
</g>
<!-- Node7 -->
<g id="Node000007" class="node">
<title>Node7</title>
<g id="a_Node000007"><a xlink:title=" ">
<polygon fill="#e0e0e0" stroke="#999999" points="380.12,-77.5 301.88,-77.5 301.88,-56.75 380.12,-56.75 380.12,-77.5"/>
<text text-anchor="middle" x="341" y="-64" font-family="Helvetica,sans-Serif" font-size="10.00">mlir&#45;c/Pass.h</text>
</a>
</g>
</g>
<!-- Node6&#45;&gt;Node7 -->
<g id="edge9_Node000006_Node000007" class="edge">
<title>Node6&#45;&gt;Node7</title>
<g id="a_edge9_Node000006_Node000007"><a xlink:title=" ">
<path fill="none" stroke="#63b8ff" d="M341,-113.19C341,-105.85 341,-97.07 341,-89.21"/>
<polygon fill="#63b8ff" stroke="#63b8ff" points="344.5,-89.48 341,-79.48 337.5,-89.48 344.5,-89.48"/>
</a>
</g>
</g>
</g>
</svg>
