<?xml version="1.0" encoding="UTF-8" standalone="no"?>
<!DOCTYPE svg PUBLIC "-//W3C//DTD SVG 1.1//EN"
 "http://www.w3.org/Graphics/SVG/1.1/DTD/svg11.dtd">
<!-- Generated by graphviz version 12.2.1 (0)
 -->
<!-- Title: Graphical Class Hierarchy Pages: 1 -->
<svg width="565pt" height="158pt"
 viewBox="0.00 0.00 565.25 157.88" xmlns="http://www.w3.org/2000/svg" xmlns:xlink="http://www.w3.org/1999/xlink">
<g id="graph0" class="graph" transform="scale(1 1) rotate(0) translate(4 153.88)">
<title>Graphical Class Hierarchy</title>
<!-- Node0 -->
<g id="Node000000" class="node">
<title>Node0</title>
<g id="a_Node000000"><a xlink:href="classllzk_1_1felt_1_1detail_1_1AndFeltOpGenericAdaptorBase.html" target="_top" xlink:title=" ">
<polygon fill="white" stroke="#666666" points="172,-85.5 0,-85.5 0,-52 172,-52 172,-85.5"/>
<text text-anchor="start" x="8" y="-72" font-family="Helvetica,sans-Serif" font-size="10.00">llzk::felt::detail</text>
<text text-anchor="middle" x="86" y="-59.25" font-family="Helvetica,sans-Serif" font-size="10.00">::AndFeltOpGenericAdaptorBase</text>
</a>
</g>
</g>
<!-- Node1 -->
<g id="Node000001" class="node">
<title>Node1</title>
<g id="a_Node000001"><a xlink:href="classllzk_1_1felt_1_1AndFeltOpGenericAdaptor.html" target="_top" xlink:title=" ">
<polygon fill="white" stroke="#666666" points="364.25,-149.88 214.75,-149.88 214.75,-103.62 364.25,-103.62 364.25,-149.88"/>
<text text-anchor="start" x="222.75" y="-136.38" font-family="Helvetica,sans-Serif" font-size="10.00">llzk::felt::AndFeltOpGeneric</text>
<text text-anchor="start" x="222.75" y="-123.62" font-family="Helvetica,sans-Serif" font-size="10.00">Adaptor&lt;::llvm::ArrayRef</text>
<text text-anchor="middle" x="289.5" y="-110.88" font-family="Helvetica,sans-Serif" font-size="10.00">&lt;::mlir::Attribute &gt; &gt;</text>
</a>
</g>
</g>
<!-- Node0&#45;&gt;Node1 -->
<g id="edge170_Node000000_Node000001" class="edge">
<title>Node0&#45;&gt;Node1</title>
<g id="a_edge170_Node000000_Node000001"><a xlink:title=" ">
<path fill="none" stroke="#63b8ff" d="M157.83,-89.14C176.2,-94.42 196.02,-100.13 214.54,-105.46"/>
<polygon fill="#63b8ff" stroke="#63b8ff" points="158.94,-85.82 148.37,-86.41 157.01,-92.54 158.94,-85.82"/>
</a>
</g>
</g>
<!-- Node2 -->
<g id="Node000002" class="node">
<title>Node2</title>
<g id="a_Node000002"><a xlink:href="classllzk_1_1felt_1_1AndFeltOpGenericAdaptor.html" target="_top" xlink:title=" ">
<polygon fill="white" stroke="#666666" points="371,-85.5 208,-85.5 208,-52 371,-52 371,-85.5"/>
<text text-anchor="start" x="216" y="-72" font-family="Helvetica,sans-Serif" font-size="10.00">llzk::felt::AndFeltOpGeneric</text>
<text text-anchor="middle" x="289.5" y="-59.25" font-family="Helvetica,sans-Serif" font-size="10.00">Adaptor&lt;::mlir::ValueRange &gt;</text>
</a>
</g>
</g>
<!-- Node0&#45;&gt;Node2 -->
<g id="edge171_Node000000_Node000002" class="edge">
<title>Node0&#45;&gt;Node2</title>
<g id="a_edge171_Node000000_Node000002"><a xlink:title=" ">
<path fill="none" stroke="#63b8ff" d="M183.75,-68.75C191.78,-68.75 199.84,-68.75 207.72,-68.75"/>
<polygon fill="#63b8ff" stroke="#63b8ff" points="183.97,-65.25 173.97,-68.75 183.97,-72.25 183.97,-65.25"/>
</a>
</g>
</g>
<!-- Node4 -->
<g id="Node000004" class="node">
<title>Node4</title>
<g id="a_Node000004"><a xlink:href="classllzk_1_1felt_1_1AndFeltOpGenericAdaptor.html" target="_top" xlink:title=" ">
<polygon fill="white" stroke="#666666" points="364.25,-33.5 214.75,-33.5 214.75,0 364.25,0 364.25,-33.5"/>
<text text-anchor="start" x="222.75" y="-20" font-family="Helvetica,sans-Serif" font-size="10.00">llzk::felt::AndFeltOpGeneric</text>
<text text-anchor="middle" x="289.5" y="-7.25" font-family="Helvetica,sans-Serif" font-size="10.00">Adaptor&lt; RangeT &gt;</text>
</a>
</g>
</g>
<!-- Node0&#45;&gt;Node4 -->
<g id="edge173_Node000000_Node000004" class="edge">
<title>Node0&#45;&gt;Node4</title>
<g id="a_edge173_Node000000_Node000004"><a xlink:title=" ">
<path fill="none" stroke="#63b8ff" d="M164.76,-48.68C183.61,-43.82 203.58,-38.66 221.86,-33.95"/>
<polygon fill="#63b8ff" stroke="#63b8ff" points="164.09,-45.24 155.28,-51.13 165.84,-52.02 164.09,-45.24"/>
</a>
</g>
</g>
<!-- Node3 -->
<g id="Node000003" class="node">
<title>Node3</title>
<g id="a_Node000003"><a xlink:href="classllzk_1_1felt_1_1AndFeltOpAdaptor.html" target="_top" xlink:title=" ">
<polygon fill="white" stroke="#666666" points="557.25,-79.12 407,-79.12 407,-58.38 557.25,-58.38 557.25,-79.12"/>
<text text-anchor="middle" x="482.12" y="-65.62" font-family="Helvetica,sans-Serif" font-size="10.00">llzk::felt::AndFeltOpAdaptor</text>
</a>
</g>
</g>
<!-- Node2&#45;&gt;Node3 -->
<g id="edge172_Node000002_Node000003" class="edge">
<title>Node2&#45;&gt;Node3</title>
<g id="a_edge172_Node000002_Node000003"><a xlink:title=" ">
<path fill="none" stroke="#63b8ff" d="M382.62,-68.75C390.63,-68.75 398.67,-68.75 406.52,-68.75"/>
<polygon fill="#63b8ff" stroke="#63b8ff" points="382.86,-65.25 372.86,-68.75 382.86,-72.25 382.86,-65.25"/>
</a>
</g>
</g>
</g>
</svg>
