<?xml version="1.0" encoding="UTF-8" standalone="no"?>
<!DOCTYPE svg PUBLIC "-//W3C//DTD SVG 1.1//EN"
 "http://www.w3.org/Graphics/SVG/1.1/DTD/svg11.dtd">
<!-- Generated by graphviz version 12.2.1 (0)
 -->
<!-- Title: Graphical Class Hierarchy Pages: 1 -->
<svg width="553pt" height="94pt"
 viewBox="0.00 0.00 553.25 93.50" xmlns="http://www.w3.org/2000/svg" xmlns:xlink="http://www.w3.org/1999/xlink">
<g id="graph0" class="graph" transform="scale(1 1) rotate(0) translate(4 89.5)">
<title>Graphical Class Hierarchy</title>
<!-- Node0 -->
<g id="Node000000" class="node">
<title>Node0</title>
<g id="a_Node000000"><a xlink:title=" ">
<polygon fill="#e0e0e0" stroke="#999999" points="165.25,-53.12 0,-53.12 0,-32.38 165.25,-32.38 165.25,-53.12"/>
<text text-anchor="middle" x="82.62" y="-39.62" font-family="Helvetica,sans-Serif" font-size="10.00">mlir::BytecodeDialectInterface</text>
</a>
</g>
</g>
<!-- Node1 -->
<g id="Node000001" class="node">
<title>Node1</title>
<g id="a_Node000001"><a xlink:href="structllzk_1_1LLZKDialectBytecodeInterface.html" target="_top" xlink:title=" ">
<polygon fill="white" stroke="#666666" points="346.25,-85.5 201.25,-85.5 201.25,-52 346.25,-52 346.25,-85.5"/>
<text text-anchor="start" x="209.25" y="-72" font-family="Helvetica,sans-Serif" font-size="10.00">llzk::LLZKDialectBytecode</text>
<text text-anchor="middle" x="273.75" y="-59.25" font-family="Helvetica,sans-Serif" font-size="10.00">Interface&lt; StructDialect &gt;</text>
</a>
</g>
</g>
<!-- Node0&#45;&gt;Node1 -->
<g id="edge332_Node000000_Node000001" class="edge">
<title>Node0&#45;&gt;Node1</title>
<g id="a_edge332_Node000000_Node000001"><a xlink:title=" ">
<path fill="none" stroke="#63b8ff" d="M173.61,-55.12C182.8,-56.38 192.04,-57.65 200.99,-58.88"/>
<polygon fill="#63b8ff" stroke="#63b8ff" points="174.34,-51.69 163.96,-53.79 173.39,-58.62 174.34,-51.69"/>
</a>
</g>
</g>
<!-- Node3 -->
<g id="Node000003" class="node">
<title>Node3</title>
<g id="a_Node000003"><a xlink:href="structllzk_1_1LLZKDialectBytecodeInterface.html" target="_top" xlink:title="This implements the bytecode interface for the LLZK dialect.">
<polygon fill="white" stroke="#666666" points="345.5,-33.5 202,-33.5 202,0 345.5,0 345.5,-33.5"/>
<text text-anchor="start" x="210" y="-20" font-family="Helvetica,sans-Serif" font-size="10.00">llzk::LLZKDialectBytecode</text>
<text text-anchor="middle" x="273.75" y="-7.25" font-family="Helvetica,sans-Serif" font-size="10.00">Interface&lt; DialectTy &gt;</text>
</a>
</g>
</g>
<!-- Node0&#45;&gt;Node3 -->
<g id="edge334_Node000000_Node000003" class="edge">
<title>Node0&#45;&gt;Node3</title>
<g id="a_edge334_Node000000_Node000003"><a xlink:title=" ">
<path fill="none" stroke="#63b8ff" d="M173.79,-30.35C183.12,-29.07 192.51,-27.78 201.59,-26.53"/>
<polygon fill="#63b8ff" stroke="#63b8ff" points="173.39,-26.88 163.96,-31.71 174.34,-33.81 173.39,-26.88"/>
</a>
</g>
</g>
<!-- Node2 -->
<g id="Node000002" class="node">
<title>Node2</title>
<g id="a_Node000002"><a xlink:href="structllzk_1_1component_1_1StructDialectBytecodeInterface.html" target="_top" xlink:title="Implement version upgrade for StructDialect.">
<polygon fill="white" stroke="#666666" points="545.25,-85.5 382.25,-85.5 382.25,-52 545.25,-52 545.25,-85.5"/>
<text text-anchor="start" x="390.25" y="-72" font-family="Helvetica,sans-Serif" font-size="10.00">llzk::component::StructDialect</text>
<text text-anchor="middle" x="463.75" y="-59.25" font-family="Helvetica,sans-Serif" font-size="10.00">BytecodeInterface</text>
</a>
</g>
</g>
<!-- Node1&#45;&gt;Node2 -->
<g id="edge333_Node000001_Node000002" class="edge">
<title>Node1&#45;&gt;Node2</title>
<g id="a_edge333_Node000001_Node000002"><a xlink:title=" ">
<path fill="none" stroke="#63b8ff" d="M358.08,-68.75C365.96,-68.75 373.95,-68.75 381.81,-68.75"/>
<polygon fill="#63b8ff" stroke="#63b8ff" points="358.14,-65.25 348.14,-68.75 358.14,-72.25 358.14,-65.25"/>
</a>
</g>
</g>
</g>
</svg>
