<?xml version="1.0" encoding="UTF-8" standalone="no"?>
<!DOCTYPE svg PUBLIC "-//W3C//DTD SVG 1.1//EN"
 "http://www.w3.org/Graphics/SVG/1.1/DTD/svg11.dtd">
<!-- Generated by graphviz version 12.2.1 (0)
 -->
<!-- Title: Graphical Class Hierarchy Pages: 1 -->
<svg width="563pt" height="158pt"
 viewBox="0.00 0.00 563.00 157.88" xmlns="http://www.w3.org/2000/svg" xmlns:xlink="http://www.w3.org/1999/xlink">
<g id="graph0" class="graph" transform="scale(1 1) rotate(0) translate(4 153.88)">
<title>Graphical Class Hierarchy</title>
<!-- Node0 -->
<g id="Node000000" class="node">
<title>Node0</title>
<g id="a_Node000000"><a xlink:href="classllzk_1_1smt_1_1detail_1_1DistinctOpGenericAdaptorBase.html" target="_top" xlink:title=" ">
<polygon fill="white" stroke="#666666" points="166.75,-85.5 0,-85.5 0,-52 166.75,-52 166.75,-85.5"/>
<text text-anchor="start" x="8" y="-72" font-family="Helvetica,sans-Serif" font-size="10.00">llzk::smt::detail::</text>
<text text-anchor="middle" x="83.38" y="-59.25" font-family="Helvetica,sans-Serif" font-size="10.00">DistinctOpGenericAdaptorBase</text>
</a>
</g>
</g>
<!-- Node1 -->
<g id="Node000001" class="node">
<title>Node1</title>
<g id="a_Node000001"><a xlink:href="classllzk_1_1smt_1_1DistinctOpGenericAdaptor.html" target="_top" xlink:title=" ">
<polygon fill="white" stroke="#666666" points="360.5,-149.88 208,-149.88 208,-103.62 360.5,-103.62 360.5,-149.88"/>
<text text-anchor="start" x="216" y="-136.38" font-family="Helvetica,sans-Serif" font-size="10.00">llzk::smt::DistinctOpGeneric</text>
<text text-anchor="start" x="216" y="-123.62" font-family="Helvetica,sans-Serif" font-size="10.00">Adaptor&lt;::llvm::ArrayRef</text>
<text text-anchor="middle" x="284.25" y="-110.88" font-family="Helvetica,sans-Serif" font-size="10.00">&lt;::mlir::Attribute &gt; &gt;</text>
</a>
</g>
</g>
<!-- Node0&#45;&gt;Node1 -->
<g id="edge448_Node000000_Node000001" class="edge">
<title>Node0&#45;&gt;Node1</title>
<g id="a_edge448_Node000000_Node000001"><a xlink:title=" ">
<path fill="none" stroke="#63b8ff" d="M154.11,-89.09C171.45,-94.15 190.12,-99.59 207.73,-104.72"/>
<polygon fill="#63b8ff" stroke="#63b8ff" points="155.54,-85.86 144.96,-86.42 153.58,-92.58 155.54,-85.86"/>
</a>
</g>
</g>
<!-- Node2 -->
<g id="Node000002" class="node">
<title>Node2</title>
<g id="a_Node000002"><a xlink:href="classllzk_1_1smt_1_1DistinctOpGenericAdaptor.html" target="_top" xlink:title=" ">
<polygon fill="white" stroke="#666666" points="365.75,-85.5 202.75,-85.5 202.75,-52 365.75,-52 365.75,-85.5"/>
<text text-anchor="start" x="210.75" y="-72" font-family="Helvetica,sans-Serif" font-size="10.00">llzk::smt::DistinctOpGeneric</text>
<text text-anchor="middle" x="284.25" y="-59.25" font-family="Helvetica,sans-Serif" font-size="10.00">Adaptor&lt;::mlir::ValueRange &gt;</text>
</a>
</g>
</g>
<!-- Node0&#45;&gt;Node2 -->
<g id="edge449_Node000000_Node000002" class="edge">
<title>Node0&#45;&gt;Node2</title>
<g id="a_edge449_Node000000_Node000002"><a xlink:title=" ">
<path fill="none" stroke="#63b8ff" d="M178.35,-68.75C186.42,-68.75 194.54,-68.75 202.49,-68.75"/>
<polygon fill="#63b8ff" stroke="#63b8ff" points="178.5,-65.25 168.5,-68.75 178.5,-72.25 178.5,-65.25"/>
</a>
</g>
</g>
<!-- Node4 -->
<g id="Node000004" class="node">
<title>Node4</title>
<g id="a_Node000004"><a xlink:href="classllzk_1_1smt_1_1DistinctOpGenericAdaptor.html" target="_top" xlink:title=" ">
<polygon fill="white" stroke="#666666" points="360.5,-33.5 208,-33.5 208,0 360.5,0 360.5,-33.5"/>
<text text-anchor="start" x="216" y="-20" font-family="Helvetica,sans-Serif" font-size="10.00">llzk::smt::DistinctOpGeneric</text>
<text text-anchor="middle" x="284.25" y="-7.25" font-family="Helvetica,sans-Serif" font-size="10.00">Adaptor&lt; RangeT &gt;</text>
</a>
</g>
</g>
<!-- Node0&#45;&gt;Node4 -->
<g id="edge451_Node000000_Node000004" class="edge">
<title>Node0&#45;&gt;Node4</title>
<g id="a_edge451_Node000000_Node000004"><a xlink:title=" ">
<path fill="none" stroke="#63b8ff" d="M161.38,-48.61C179.91,-43.77 199.52,-38.64 217.48,-33.95"/>
<polygon fill="#63b8ff" stroke="#63b8ff" points="160.57,-45.21 151.79,-51.12 162.35,-51.98 160.57,-45.21"/>
</a>
</g>
</g>
<!-- Node3 -->
<g id="Node000003" class="node">
<title>Node3</title>
<g id="a_Node000003"><a xlink:href="classllzk_1_1smt_1_1DistinctOpAdaptor.html" target="_top" xlink:title=" ">
<polygon fill="white" stroke="#666666" points="555,-79.12 401.75,-79.12 401.75,-58.38 555,-58.38 555,-79.12"/>
<text text-anchor="middle" x="478.38" y="-65.62" font-family="Helvetica,sans-Serif" font-size="10.00">llzk::smt::DistinctOpAdaptor</text>
</a>
</g>
</g>
<!-- Node2&#45;&gt;Node3 -->
<g id="edge450_Node000002_Node000003" class="edge">
<title>Node2&#45;&gt;Node3</title>
<g id="a_edge450_Node000002_Node000003"><a xlink:title=" ">
<path fill="none" stroke="#63b8ff" d="M377.48,-68.75C385.51,-68.75 393.57,-68.75 401.45,-68.75"/>
<polygon fill="#63b8ff" stroke="#63b8ff" points="377.69,-65.25 367.69,-68.75 377.68,-72.25 377.69,-65.25"/>
</a>
</g>
</g>
</g>
</svg>
