<?xml version="1.0" encoding="UTF-8" standalone="no"?>
<!DOCTYPE svg PUBLIC "-//W3C//DTD SVG 1.1//EN"
 "http://www.w3.org/Graphics/SVG/1.1/DTD/svg11.dtd">
<!-- Generated by graphviz version 12.2.1 (0)
 -->
<!-- Title: Graphical Class Hierarchy Pages: 1 -->
<svg width="530pt" height="158pt"
 viewBox="0.00 0.00 530.00 157.88" xmlns="http://www.w3.org/2000/svg" xmlns:xlink="http://www.w3.org/1999/xlink">
<g id="graph0" class="graph" transform="scale(1 1) rotate(0) translate(4 153.88)">
<title>Graphical Class Hierarchy</title>
<!-- Node0 -->
<g id="Node000000" class="node">
<title>Node0</title>
<g id="a_Node000000"><a xlink:href="classllzk_1_1smt_1_1detail_1_1XOrOpGenericAdaptorBase.html" target="_top" xlink:title=" ">
<polygon fill="white" stroke="#666666" points="146.5,-85.5 0,-85.5 0,-52 146.5,-52 146.5,-85.5"/>
<text text-anchor="start" x="8" y="-72" font-family="Helvetica,sans-Serif" font-size="10.00">llzk::smt::detail::</text>
<text text-anchor="middle" x="73.25" y="-59.25" font-family="Helvetica,sans-Serif" font-size="10.00">XOrOpGenericAdaptorBase</text>
</a>
</g>
</g>
<!-- Node1 -->
<g id="Node000001" class="node">
<title>Node1</title>
<g id="a_Node000001"><a xlink:href="classllzk_1_1smt_1_1XOrOpGenericAdaptor.html" target="_top" xlink:title=" ">
<polygon fill="white" stroke="#666666" points="353,-149.88 182.5,-149.88 182.5,-103.62 353,-103.62 353,-149.88"/>
<text text-anchor="start" x="190.5" y="-136.38" font-family="Helvetica,sans-Serif" font-size="10.00">llzk::smt::XOrOpGenericAdaptor</text>
<text text-anchor="start" x="190.5" y="-123.62" font-family="Helvetica,sans-Serif" font-size="10.00">&lt;::llvm::ArrayRef&lt;::mlir::</text>
<text text-anchor="middle" x="267.75" y="-110.88" font-family="Helvetica,sans-Serif" font-size="10.00">Attribute &gt; &gt;</text>
</a>
</g>
</g>
<!-- Node0&#45;&gt;Node1 -->
<g id="edge548_Node000000_Node000001" class="edge">
<title>Node0&#45;&gt;Node1</title>
<g id="a_edge548_Node000000_Node000001"><a xlink:title=" ">
<path fill="none" stroke="#63b8ff" d="M142.16,-89.21C157.1,-93.71 173.04,-98.52 188.36,-103.13"/>
<polygon fill="#63b8ff" stroke="#63b8ff" points="143.52,-85.97 132.93,-86.43 141.5,-92.67 143.52,-85.97"/>
</a>
</g>
</g>
<!-- Node2 -->
<g id="Node000002" class="node">
<title>Node2</title>
<g id="a_Node000002"><a xlink:href="classllzk_1_1smt_1_1XOrOpGenericAdaptor.html" target="_top" xlink:title=" ">
<polygon fill="white" stroke="#666666" points="353,-85.5 182.5,-85.5 182.5,-52 353,-52 353,-85.5"/>
<text text-anchor="start" x="190.5" y="-72" font-family="Helvetica,sans-Serif" font-size="10.00">llzk::smt::XOrOpGenericAdaptor</text>
<text text-anchor="middle" x="267.75" y="-59.25" font-family="Helvetica,sans-Serif" font-size="10.00">&lt;::mlir::ValueRange &gt;</text>
</a>
</g>
</g>
<!-- Node0&#45;&gt;Node2 -->
<g id="edge549_Node000000_Node000002" class="edge">
<title>Node0&#45;&gt;Node2</title>
<g id="a_edge549_Node000000_Node000002"><a xlink:title=" ">
<path fill="none" stroke="#63b8ff" d="M158.21,-68.75C166.11,-68.75 174.11,-68.75 182.02,-68.75"/>
<polygon fill="#63b8ff" stroke="#63b8ff" points="158.27,-65.25 148.27,-68.75 158.27,-72.25 158.27,-65.25"/>
</a>
</g>
</g>
<!-- Node4 -->
<g id="Node000004" class="node">
<title>Node4</title>
<g id="a_Node000004"><a xlink:href="classllzk_1_1smt_1_1XOrOpGenericAdaptor.html" target="_top" xlink:title=" ">
<polygon fill="white" stroke="#666666" points="353,-33.5 182.5,-33.5 182.5,0 353,0 353,-33.5"/>
<text text-anchor="start" x="190.5" y="-20" font-family="Helvetica,sans-Serif" font-size="10.00">llzk::smt::XOrOpGenericAdaptor</text>
<text text-anchor="middle" x="267.75" y="-7.25" font-family="Helvetica,sans-Serif" font-size="10.00">&lt; RangeT &gt;</text>
</a>
</g>
</g>
<!-- Node0&#45;&gt;Node4 -->
<g id="edge551_Node000000_Node000004" class="edge">
<title>Node0&#45;&gt;Node4</title>
<g id="a_edge551_Node000000_Node000004"><a xlink:title=" ">
<path fill="none" stroke="#63b8ff" d="M149.04,-48.55C166.9,-43.72 185.79,-38.62 203.09,-33.95"/>
<polygon fill="#63b8ff" stroke="#63b8ff" points="148.28,-45.13 139.54,-51.11 150.11,-51.88 148.28,-45.13"/>
</a>
</g>
</g>
<!-- Node3 -->
<g id="Node000003" class="node">
<title>Node3</title>
<g id="a_Node000003"><a xlink:href="classllzk_1_1smt_1_1XOrOpAdaptor.html" target="_top" xlink:title=" ">
<polygon fill="white" stroke="#666666" points="522,-79.12 389,-79.12 389,-58.38 522,-58.38 522,-79.12"/>
<text text-anchor="middle" x="455.5" y="-65.62" font-family="Helvetica,sans-Serif" font-size="10.00">llzk::smt::XOrOpAdaptor</text>
</a>
</g>
</g>
<!-- Node2&#45;&gt;Node3 -->
<g id="edge550_Node000002_Node000003" class="edge">
<title>Node2&#45;&gt;Node3</title>
<g id="a_edge550_Node000002_Node000003"><a xlink:title=" ">
<path fill="none" stroke="#63b8ff" d="M364.81,-68.75C372.83,-68.75 380.82,-68.75 388.54,-68.75"/>
<polygon fill="#63b8ff" stroke="#63b8ff" points="364.99,-65.25 354.99,-68.75 364.99,-72.25 364.99,-65.25"/>
</a>
</g>
</g>
</g>
</svg>
