<?xml version="1.0" encoding="UTF-8" standalone="no"?>
<!DOCTYPE svg PUBLIC "-//W3C//DTD SVG 1.1//EN"
 "http://www.w3.org/Graphics/SVG/1.1/DTD/svg11.dtd">
<!-- Generated by graphviz version 12.2.1 (0)
 -->
<!-- Title: Graphical Class Hierarchy Pages: 1 -->
<svg width="553pt" height="158pt"
 viewBox="0.00 0.00 552.50 157.88" xmlns="http://www.w3.org/2000/svg" xmlns:xlink="http://www.w3.org/1999/xlink">
<g id="graph0" class="graph" transform="scale(1 1) rotate(0) translate(4 153.88)">
<title>Graphical Class Hierarchy</title>
<!-- Node0 -->
<g id="Node000000" class="node">
<title>Node0</title>
<g id="a_Node000000"><a xlink:href="classllzk_1_1function_1_1detail_1_1CallOpGenericAdaptorBase.html" target="_top" xlink:title=" ">
<polygon fill="white" stroke="#666666" points="154,-85.5 0,-85.5 0,-52 154,-52 154,-85.5"/>
<text text-anchor="start" x="8" y="-72" font-family="Helvetica,sans-Serif" font-size="10.00">llzk::function::detail</text>
<text text-anchor="middle" x="77" y="-59.25" font-family="Helvetica,sans-Serif" font-size="10.00">::CallOpGenericAdaptorBase</text>
</a>
</g>
</g>
<!-- Node1 -->
<g id="Node000001" class="node">
<title>Node1</title>
<g id="a_Node000001"><a xlink:href="classllzk_1_1function_1_1CallOpGenericAdaptor.html" target="_top" xlink:title=" ">
<polygon fill="white" stroke="#666666" points="348.88,-149.88 194.12,-149.88 194.12,-103.62 348.88,-103.62 348.88,-149.88"/>
<text text-anchor="start" x="202.12" y="-136.38" font-family="Helvetica,sans-Serif" font-size="10.00">llzk::function::CallOpGeneric</text>
<text text-anchor="start" x="202.12" y="-123.62" font-family="Helvetica,sans-Serif" font-size="10.00">Adaptor&lt;::llvm::ArrayRef</text>
<text text-anchor="middle" x="271.5" y="-110.88" font-family="Helvetica,sans-Serif" font-size="10.00">&lt;::mlir::Attribute &gt; &gt;</text>
</a>
</g>
</g>
<!-- Node0&#45;&gt;Node1 -->
<g id="edge242_Node000000_Node000001" class="edge">
<title>Node0&#45;&gt;Node1</title>
<g id="a_edge242_Node000000_Node000001"><a xlink:title=" ">
<path fill="none" stroke="#63b8ff" d="M146.25,-89.31C161.67,-93.96 178.14,-98.92 193.88,-103.66"/>
<polygon fill="#63b8ff" stroke="#63b8ff" points="147.27,-85.97 136.68,-86.43 145.25,-92.67 147.27,-85.97"/>
</a>
</g>
</g>
<!-- Node2 -->
<g id="Node000002" class="node">
<title>Node2</title>
<g id="a_Node000002"><a xlink:href="classllzk_1_1function_1_1CallOpGenericAdaptor.html" target="_top" xlink:title=" ">
<polygon fill="white" stroke="#666666" points="353,-85.5 190,-85.5 190,-52 353,-52 353,-85.5"/>
<text text-anchor="start" x="198" y="-72" font-family="Helvetica,sans-Serif" font-size="10.00">llzk::function::CallOpGeneric</text>
<text text-anchor="middle" x="271.5" y="-59.25" font-family="Helvetica,sans-Serif" font-size="10.00">Adaptor&lt;::mlir::ValueRange &gt;</text>
</a>
</g>
</g>
<!-- Node0&#45;&gt;Node2 -->
<g id="edge243_Node000000_Node000002" class="edge">
<title>Node0&#45;&gt;Node2</title>
<g id="a_edge243_Node000000_Node000002"><a xlink:title=" ">
<path fill="none" stroke="#63b8ff" d="M165.66,-68.75C173.7,-68.75 181.83,-68.75 189.81,-68.75"/>
<polygon fill="#63b8ff" stroke="#63b8ff" points="165.87,-65.25 155.87,-68.75 165.87,-72.25 165.87,-65.25"/>
</a>
</g>
</g>
<!-- Node4 -->
<g id="Node000004" class="node">
<title>Node4</title>
<g id="a_Node000004"><a xlink:href="classllzk_1_1function_1_1CallOpGenericAdaptor.html" target="_top" xlink:title=" ">
<polygon fill="white" stroke="#666666" points="348.88,-33.5 194.12,-33.5 194.12,0 348.88,0 348.88,-33.5"/>
<text text-anchor="start" x="202.12" y="-20" font-family="Helvetica,sans-Serif" font-size="10.00">llzk::function::CallOpGeneric</text>
<text text-anchor="middle" x="271.5" y="-7.25" font-family="Helvetica,sans-Serif" font-size="10.00">Adaptor&lt; RangeT &gt;</text>
</a>
</g>
</g>
<!-- Node0&#45;&gt;Node4 -->
<g id="edge245_Node000000_Node000004" class="edge">
<title>Node0&#45;&gt;Node4</title>
<g id="a_edge245_Node000000_Node000004"><a xlink:title=" ">
<path fill="none" stroke="#63b8ff" d="M152.79,-48.55C170.65,-43.72 189.54,-38.62 206.84,-33.95"/>
<polygon fill="#63b8ff" stroke="#63b8ff" points="152.03,-45.13 143.29,-51.11 153.86,-51.88 152.03,-45.13"/>
</a>
</g>
</g>
<!-- Node3 -->
<g id="Node000003" class="node">
<title>Node3</title>
<g id="a_Node000003"><a xlink:href="classllzk_1_1function_1_1CallOpAdaptor.html" target="_top" xlink:title=" ">
<polygon fill="white" stroke="#666666" points="544.5,-79.12 389,-79.12 389,-58.38 544.5,-58.38 544.5,-79.12"/>
<text text-anchor="middle" x="466.75" y="-65.62" font-family="Helvetica,sans-Serif" font-size="10.00">llzk::function::CallOpAdaptor</text>
</a>
</g>
</g>
<!-- Node2&#45;&gt;Node3 -->
<g id="edge244_Node000002_Node000003" class="edge">
<title>Node2&#45;&gt;Node3</title>
<g id="a_edge244_Node000002_Node000003"><a xlink:title=" ">
<path fill="none" stroke="#63b8ff" d="M364.64,-68.75C372.67,-68.75 380.75,-68.75 388.64,-68.75"/>
<polygon fill="#63b8ff" stroke="#63b8ff" points="364.85,-65.25 354.85,-68.75 364.85,-72.25 364.85,-65.25"/>
</a>
</g>
</g>
</g>
</svg>
