<?xml version="1.0" encoding="UTF-8" standalone="no"?>
<!DOCTYPE svg PUBLIC "-//W3C//DTD SVG 1.1//EN"
 "http://www.w3.org/Graphics/SVG/1.1/DTD/svg11.dtd">
<!-- Generated by graphviz version 12.2.1 (0)
 -->
<!-- Title: Graphical Class Hierarchy Pages: 1 -->
<svg width="547pt" height="158pt"
 viewBox="0.00 0.00 546.50 157.88" xmlns="http://www.w3.org/2000/svg" xmlns:xlink="http://www.w3.org/1999/xlink">
<g id="graph0" class="graph" transform="scale(1 1) rotate(0) translate(4 153.88)">
<title>Graphical Class Hierarchy</title>
<!-- Node0 -->
<g id="Node000000" class="node">
<title>Node0</title>
<g id="a_Node000000"><a xlink:href="classllzk_1_1smt_1_1detail_1_1IntDivOpGenericAdaptorBase.html" target="_top" xlink:title=" ">
<polygon fill="white" stroke="#666666" points="158.5,-85.5 0,-85.5 0,-52 158.5,-52 158.5,-85.5"/>
<text text-anchor="start" x="8" y="-72" font-family="Helvetica,sans-Serif" font-size="10.00">llzk::smt::detail::</text>
<text text-anchor="middle" x="79.25" y="-59.25" font-family="Helvetica,sans-Serif" font-size="10.00">IntDivOpGenericAdaptorBase</text>
</a>
</g>
</g>
<!-- Node1 -->
<g id="Node000001" class="node">
<title>Node1</title>
<g id="a_Node000001"><a xlink:href="classllzk_1_1smt_1_1IntDivOpGenericAdaptor.html" target="_top" xlink:title=" ">
<polygon fill="white" stroke="#666666" points="348.12,-149.88 203.88,-149.88 203.88,-103.62 348.12,-103.62 348.12,-149.88"/>
<text text-anchor="start" x="211.88" y="-136.38" font-family="Helvetica,sans-Serif" font-size="10.00">llzk::smt::IntDivOpGeneric</text>
<text text-anchor="start" x="211.88" y="-123.62" font-family="Helvetica,sans-Serif" font-size="10.00">Adaptor&lt;::llvm::ArrayRef</text>
<text text-anchor="middle" x="276" y="-110.88" font-family="Helvetica,sans-Serif" font-size="10.00">&lt;::mlir::Attribute &gt; &gt;</text>
</a>
</g>
</g>
<!-- Node0&#45;&gt;Node1 -->
<g id="edge534_Node000000_Node000001" class="edge">
<title>Node0&#45;&gt;Node1</title>
<g id="a_edge534_Node000000_Node000001"><a xlink:title=" ">
<path fill="none" stroke="#63b8ff" d="M148.96,-89.21C166.64,-94.48 185.7,-100.16 203.52,-105.46"/>
<polygon fill="#63b8ff" stroke="#63b8ff" points="150.19,-85.93 139.6,-86.43 148.19,-92.64 150.19,-85.93"/>
</a>
</g>
</g>
<!-- Node2 -->
<g id="Node000002" class="node">
<title>Node2</title>
<g id="a_Node000002"><a xlink:href="classllzk_1_1smt_1_1IntDivOpGenericAdaptor.html" target="_top" xlink:title=" ">
<polygon fill="white" stroke="#666666" points="357.5,-85.5 194.5,-85.5 194.5,-52 357.5,-52 357.5,-85.5"/>
<text text-anchor="start" x="202.5" y="-72" font-family="Helvetica,sans-Serif" font-size="10.00">llzk::smt::IntDivOpGeneric</text>
<text text-anchor="middle" x="276" y="-59.25" font-family="Helvetica,sans-Serif" font-size="10.00">Adaptor&lt;::mlir::ValueRange &gt;</text>
</a>
</g>
</g>
<!-- Node0&#45;&gt;Node2 -->
<g id="edge535_Node000000_Node000002" class="edge">
<title>Node0&#45;&gt;Node2</title>
<g id="a_edge535_Node000000_Node000002"><a xlink:title=" ">
<path fill="none" stroke="#63b8ff" d="M170.15,-68.75C178.16,-68.75 186.23,-68.75 194.15,-68.75"/>
<polygon fill="#63b8ff" stroke="#63b8ff" points="170.41,-65.25 160.41,-68.75 170.41,-72.25 170.41,-65.25"/>
</a>
</g>
</g>
<!-- Node4 -->
<g id="Node000004" class="node">
<title>Node4</title>
<g id="a_Node000004"><a xlink:href="classllzk_1_1smt_1_1IntDivOpGenericAdaptor.html" target="_top" xlink:title=" ">
<polygon fill="white" stroke="#666666" points="348.12,-33.5 203.88,-33.5 203.88,0 348.12,0 348.12,-33.5"/>
<text text-anchor="start" x="211.88" y="-20" font-family="Helvetica,sans-Serif" font-size="10.00">llzk::smt::IntDivOpGeneric</text>
<text text-anchor="middle" x="276" y="-7.25" font-family="Helvetica,sans-Serif" font-size="10.00">Adaptor&lt; RangeT &gt;</text>
</a>
</g>
</g>
<!-- Node0&#45;&gt;Node4 -->
<g id="edge537_Node000000_Node000004" class="edge">
<title>Node0&#45;&gt;Node4</title>
<g id="a_edge537_Node000000_Node000004"><a xlink:title=" ">
<path fill="none" stroke="#63b8ff" d="M155.92,-48.55C173.98,-43.72 193.09,-38.62 210.6,-33.95"/>
<polygon fill="#63b8ff" stroke="#63b8ff" points="155.05,-45.16 146.29,-51.12 156.86,-51.92 155.05,-45.16"/>
</a>
</g>
</g>
<!-- Node3 -->
<g id="Node000003" class="node">
<title>Node3</title>
<g id="a_Node000003"><a xlink:href="classllzk_1_1smt_1_1IntDivOpAdaptor.html" target="_top" xlink:title=" ">
<polygon fill="white" stroke="#666666" points="538.5,-79.12 393.5,-79.12 393.5,-58.38 538.5,-58.38 538.5,-79.12"/>
<text text-anchor="middle" x="466" y="-65.62" font-family="Helvetica,sans-Serif" font-size="10.00">llzk::smt::IntDivOpAdaptor</text>
</a>
</g>
</g>
<!-- Node2&#45;&gt;Node3 -->
<g id="edge536_Node000002_Node000003" class="edge">
<title>Node2&#45;&gt;Node3</title>
<g id="a_edge536_Node000002_Node000003"><a xlink:title=" ">
<path fill="none" stroke="#63b8ff" d="M369.17,-68.75C377.22,-68.75 385.29,-68.75 393.14,-68.75"/>
<polygon fill="#63b8ff" stroke="#63b8ff" points="369.33,-65.25 359.33,-68.75 369.33,-72.25 369.33,-65.25"/>
</a>
</g>
</g>
</g>
</svg>
