<?xml version="1.0" encoding="UTF-8" standalone="no"?>
<!DOCTYPE svg PUBLIC "-//W3C//DTD SVG 1.1//EN"
 "http://www.w3.org/Graphics/SVG/1.1/DTD/svg11.dtd">
<!-- Generated by graphviz version 12.2.1 (0)
 -->
<!-- Title: Graphical Class Hierarchy Pages: 1 -->
<svg width="542pt" height="158pt"
 viewBox="0.00 0.00 542.00 157.88" xmlns="http://www.w3.org/2000/svg" xmlns:xlink="http://www.w3.org/1999/xlink">
<g id="graph0" class="graph" transform="scale(1 1) rotate(0) translate(4 153.88)">
<title>Graphical Class Hierarchy</title>
<!-- Node0 -->
<g id="Node000000" class="node">
<title>Node0</title>
<g id="a_Node000000"><a xlink:href="classllzk_1_1smt_1_1detail_1_1ForallOpGenericAdaptorBase.html" target="_top" xlink:title=" ">
<polygon fill="white" stroke="#666666" points="156.25,-85.5 0,-85.5 0,-52 156.25,-52 156.25,-85.5"/>
<text text-anchor="start" x="8" y="-72" font-family="Helvetica,sans-Serif" font-size="10.00">llzk::smt::detail::</text>
<text text-anchor="middle" x="78.12" y="-59.25" font-family="Helvetica,sans-Serif" font-size="10.00">ForallOpGenericAdaptorBase</text>
</a>
</g>
</g>
<!-- Node1 -->
<g id="Node000001" class="node">
<title>Node1</title>
<g id="a_Node000001"><a xlink:href="classllzk_1_1smt_1_1ForallOpGenericAdaptor.html" target="_top" xlink:title=" ">
<polygon fill="white" stroke="#666666" points="344.75,-149.88 202.75,-149.88 202.75,-103.62 344.75,-103.62 344.75,-149.88"/>
<text text-anchor="start" x="210.75" y="-136.38" font-family="Helvetica,sans-Serif" font-size="10.00">llzk::smt::ForallOpGeneric</text>
<text text-anchor="start" x="210.75" y="-123.62" font-family="Helvetica,sans-Serif" font-size="10.00">Adaptor&lt;::llvm::ArrayRef</text>
<text text-anchor="middle" x="273.75" y="-110.88" font-family="Helvetica,sans-Serif" font-size="10.00">&lt;::mlir::Attribute &gt; &gt;</text>
</a>
</g>
</g>
<!-- Node0&#45;&gt;Node1 -->
<g id="edge465_Node000000_Node000001" class="edge">
<title>Node0&#45;&gt;Node1</title>
<g id="a_edge465_Node000000_Node000001"><a xlink:title=" ">
<path fill="none" stroke="#63b8ff" d="M147.56,-89.25C165.33,-94.57 184.51,-100.32 202.38,-105.67"/>
<polygon fill="#63b8ff" stroke="#63b8ff" points="148.73,-85.95 138.14,-86.43 146.72,-92.65 148.73,-85.95"/>
</a>
</g>
</g>
<!-- Node2 -->
<g id="Node000002" class="node">
<title>Node2</title>
<g id="a_Node000002"><a xlink:href="classllzk_1_1smt_1_1ForallOpGenericAdaptor.html" target="_top" xlink:title=" ">
<polygon fill="white" stroke="#666666" points="355.25,-85.5 192.25,-85.5 192.25,-52 355.25,-52 355.25,-85.5"/>
<text text-anchor="start" x="200.25" y="-72" font-family="Helvetica,sans-Serif" font-size="10.00">llzk::smt::ForallOpGeneric</text>
<text text-anchor="middle" x="273.75" y="-59.25" font-family="Helvetica,sans-Serif" font-size="10.00">Adaptor&lt;::mlir::ValueRange &gt;</text>
</a>
</g>
</g>
<!-- Node0&#45;&gt;Node2 -->
<g id="edge466_Node000000_Node000002" class="edge">
<title>Node0&#45;&gt;Node2</title>
<g id="a_edge466_Node000000_Node000002"><a xlink:title=" ">
<path fill="none" stroke="#63b8ff" d="M167.82,-68.75C175.89,-68.75 184.03,-68.75 192.03,-68.75"/>
<polygon fill="#63b8ff" stroke="#63b8ff" points="168,-65.25 158,-68.75 168,-72.25 168,-65.25"/>
</a>
</g>
</g>
<!-- Node4 -->
<g id="Node000004" class="node">
<title>Node4</title>
<g id="a_Node000004"><a xlink:href="classllzk_1_1smt_1_1ForallOpGenericAdaptor.html" target="_top" xlink:title=" ">
<polygon fill="white" stroke="#666666" points="344.75,-33.5 202.75,-33.5 202.75,0 344.75,0 344.75,-33.5"/>
<text text-anchor="start" x="210.75" y="-20" font-family="Helvetica,sans-Serif" font-size="10.00">llzk::smt::ForallOpGeneric</text>
<text text-anchor="middle" x="273.75" y="-7.25" font-family="Helvetica,sans-Serif" font-size="10.00">Adaptor&lt; RangeT &gt;</text>
</a>
</g>
</g>
<!-- Node0&#45;&gt;Node4 -->
<g id="edge468_Node000000_Node000004" class="edge">
<title>Node0&#45;&gt;Node4</title>
<g id="a_edge468_Node000000_Node000004"><a xlink:title=" ">
<path fill="none" stroke="#63b8ff" d="M154.35,-48.55C172.31,-43.72 191.32,-38.62 208.72,-33.95"/>
<polygon fill="#63b8ff" stroke="#63b8ff" points="153.54,-45.14 144.79,-51.11 155.36,-51.9 153.54,-45.14"/>
</a>
</g>
</g>
<!-- Node3 -->
<g id="Node000003" class="node">
<title>Node3</title>
<g id="a_Node000003"><a xlink:href="classllzk_1_1smt_1_1ForallOpAdaptor.html" target="_top" xlink:title=" ">
<polygon fill="white" stroke="#666666" points="534,-79.12 391.25,-79.12 391.25,-58.38 534,-58.38 534,-79.12"/>
<text text-anchor="middle" x="462.62" y="-65.62" font-family="Helvetica,sans-Serif" font-size="10.00">llzk::smt::ForallOpAdaptor</text>
</a>
</g>
</g>
<!-- Node2&#45;&gt;Node3 -->
<g id="edge467_Node000002_Node000003" class="edge">
<title>Node2&#45;&gt;Node3</title>
<g id="a_edge467_Node000002_Node000003"><a xlink:title=" ">
<path fill="none" stroke="#63b8ff" d="M366.97,-68.75C375.01,-68.75 383.06,-68.75 390.89,-68.75"/>
<polygon fill="#63b8ff" stroke="#63b8ff" points="367.14,-65.25 357.14,-68.75 367.14,-72.25 367.14,-65.25"/>
</a>
</g>
</g>
</g>
</svg>
