<?xml version="1.0" encoding="UTF-8" standalone="no"?>
<!DOCTYPE svg PUBLIC "-//W3C//DTD SVG 1.1//EN"
 "http://www.w3.org/Graphics/SVG/1.1/DTD/svg11.dtd">
<!-- Generated by graphviz version 12.2.1 (0)
 -->
<!-- Title: Graphical Class Hierarchy Pages: 1 -->
<svg width="332pt" height="68pt"
 viewBox="0.00 0.00 331.75 67.75" xmlns="http://www.w3.org/2000/svg" xmlns:xlink="http://www.w3.org/1999/xlink">
<g id="graph0" class="graph" transform="scale(1 1) rotate(0) translate(4 63.75)">
<title>Graphical Class Hierarchy</title>
<!-- Node0 -->
<g id="Node000000" class="node">
<title>Node0</title>
<g id="a_Node000000"><a xlink:title=" ">
<polygon fill="#e0e0e0" stroke="#999999" points="136.75,-46.12 0,-46.12 0,-12.62 136.75,-12.62 136.75,-46.12"/>
<text text-anchor="start" x="8" y="-32.62" font-family="Helvetica,sans-Serif" font-size="10.00">dataflow::AbstractSparse</text>
<text text-anchor="middle" x="68.38" y="-19.88" font-family="Helvetica,sans-Serif" font-size="10.00">Lattice</text>
</a>
</g>
</g>
<!-- Node1 -->
<g id="Node000001" class="node">
<title>Node1</title>
<g id="a_Node000001"><a xlink:href="classllzk_1_1IntervalAnalysisLattice.html" target="_top" xlink:title=" ">
<polygon fill="white" stroke="#666666" points="323.75,-59.75 172.75,-59.75 172.75,-39 323.75,-39 323.75,-59.75"/>
<text text-anchor="middle" x="248.25" y="-46.25" font-family="Helvetica,sans-Serif" font-size="10.00">llzk::IntervalAnalysisLattice</text>
</a>
</g>
</g>
<!-- Node0&#45;&gt;Node1 -->
<g id="edge44_Node000000_Node000001" class="edge">
<title>Node0&#45;&gt;Node1</title>
<g id="a_edge44_Node000000_Node000001"><a xlink:title=" ">
<path fill="none" stroke="#63b8ff" d="M148.57,-38.28C156.45,-39.17 164.43,-40.06 172.26,-40.94"/>
<polygon fill="#63b8ff" stroke="#63b8ff" points="148.96,-34.8 138.63,-37.16 148.18,-41.76 148.96,-34.8"/>
</a>
</g>
</g>
<!-- Node2 -->
<g id="Node000002" class="node">
<title>Node2</title>
<g id="a_Node000002"><a xlink:href="classllzk_1_1SourceRefLattice.html" target="_top" xlink:title="Sparse SSA&#45;value lattice for SourceRef propagation.">
<polygon fill="white" stroke="#666666" points="309.12,-20.75 187.38,-20.75 187.38,0 309.12,0 309.12,-20.75"/>
<text text-anchor="middle" x="248.25" y="-7.25" font-family="Helvetica,sans-Serif" font-size="10.00">llzk::SourceRefLattice</text>
</a>
</g>
</g>
<!-- Node0&#45;&gt;Node2 -->
<g id="edge45_Node000000_Node000002" class="edge">
<title>Node0&#45;&gt;Node2</title>
<g id="a_edge45_Node000000_Node000002"><a xlink:title=" ">
<path fill="none" stroke="#63b8ff" d="M148.4,-20.93C161.35,-19.55 174.57,-18.14 186.97,-16.81"/>
<polygon fill="#63b8ff" stroke="#63b8ff" points="148.21,-17.43 138.63,-21.98 148.95,-24.39 148.21,-17.43"/>
</a>
</g>
</g>
</g>
</svg>
