<?xml version="1.0" encoding="UTF-8" standalone="no"?>
<!DOCTYPE svg PUBLIC "-//W3C//DTD SVG 1.1//EN"
 "http://www.w3.org/Graphics/SVG/1.1/DTD/svg11.dtd">
<!-- Generated by graphviz version 12.2.1 (0)
 -->
<!-- Title: Graphical Class Hierarchy Pages: 1 -->
<svg width="550pt" height="196pt"
 viewBox="0.00 0.00 549.50 195.62" xmlns="http://www.w3.org/2000/svg" xmlns:xlink="http://www.w3.org/1999/xlink">
<g id="graph0" class="graph" transform="scale(1 1) rotate(0) translate(4 191.62)">
<title>Graphical Class Hierarchy</title>
<!-- Node0 -->
<g id="Node000000" class="node">
<title>Node0</title>
<g id="a_Node000000"><a xlink:href="classllzk_1_1polymorphic_1_1detail_1_1UnifiableCastOpGenericAdaptorBase.html" target="_top" xlink:title=" ">
<polygon fill="white" stroke="#666666" points="166,-110.25 0,-110.25 0,-64 166,-64 166,-110.25"/>
<text text-anchor="start" x="8" y="-96.75" font-family="Helvetica,sans-Serif" font-size="10.00">llzk::polymorphic::</text>
<text text-anchor="start" x="8" y="-84" font-family="Helvetica,sans-Serif" font-size="10.00">detail::UnifiableCastOpGeneric</text>
<text text-anchor="middle" x="83" y="-71.25" font-family="Helvetica,sans-Serif" font-size="10.00">AdaptorBase</text>
</a>
</g>
</g>
<!-- Node1 -->
<g id="Node000001" class="node">
<title>Node1</title>
<g id="a_Node000001"><a xlink:href="classllzk_1_1polymorphic_1_1UnifiableCastOpGenericAdaptor.html" target="_top" xlink:title=" ">
<polygon fill="white" stroke="#666666" points="372.5,-187.62 202,-187.62 202,-128.62 372.5,-128.62 372.5,-187.62"/>
<text text-anchor="start" x="210" y="-174.12" font-family="Helvetica,sans-Serif" font-size="10.00">llzk::polymorphic::</text>
<text text-anchor="start" x="210" y="-161.38" font-family="Helvetica,sans-Serif" font-size="10.00">UnifiableCastOpGenericAdaptor</text>
<text text-anchor="start" x="210" y="-148.62" font-family="Helvetica,sans-Serif" font-size="10.00">&lt;::llvm::ArrayRef&lt;::mlir::</text>
<text text-anchor="middle" x="287.25" y="-135.88" font-family="Helvetica,sans-Serif" font-size="10.00">Attribute &gt; &gt;</text>
</a>
</g>
</g>
<!-- Node0&#45;&gt;Node1 -->
<g id="edge297_Node000000_Node000001" class="edge">
<title>Node0&#45;&gt;Node1</title>
<g id="a_edge297_Node000000_Node000001"><a xlink:title=" ">
<path fill="none" stroke="#63b8ff" d="M161.87,-114.46C174.92,-119.04 188.51,-123.81 201.71,-128.45"/>
<polygon fill="#63b8ff" stroke="#63b8ff" points="163.09,-111.18 152.49,-111.17 160.77,-117.78 163.09,-111.18"/>
</a>
</g>
</g>
<!-- Node2 -->
<g id="Node000002" class="node">
<title>Node2</title>
<g id="a_Node000002"><a xlink:href="classllzk_1_1polymorphic_1_1UnifiableCastOpGenericAdaptor.html" target="_top" xlink:title=" ">
<polygon fill="white" stroke="#666666" points="372.5,-110.25 202,-110.25 202,-64 372.5,-64 372.5,-110.25"/>
<text text-anchor="start" x="210" y="-96.75" font-family="Helvetica,sans-Serif" font-size="10.00">llzk::polymorphic::</text>
<text text-anchor="start" x="210" y="-84" font-family="Helvetica,sans-Serif" font-size="10.00">UnifiableCastOpGenericAdaptor</text>
<text text-anchor="middle" x="287.25" y="-71.25" font-family="Helvetica,sans-Serif" font-size="10.00">&lt;::mlir::ValueRange &gt;</text>
</a>
</g>
</g>
<!-- Node0&#45;&gt;Node2 -->
<g id="edge298_Node000000_Node000002" class="edge">
<title>Node0&#45;&gt;Node2</title>
<g id="a_edge298_Node000000_Node000002"><a xlink:title=" ">
<path fill="none" stroke="#63b8ff" d="M177.59,-87.12C185.65,-87.12 193.78,-87.12 201.76,-87.12"/>
<polygon fill="#63b8ff" stroke="#63b8ff" points="177.78,-83.63 167.78,-87.13 177.78,-90.63 177.78,-83.63"/>
</a>
</g>
</g>
<!-- Node4 -->
<g id="Node000004" class="node">
<title>Node4</title>
<g id="a_Node000004"><a xlink:href="classllzk_1_1polymorphic_1_1UnifiableCastOpGenericAdaptor.html" target="_top" xlink:title=" ">
<polygon fill="white" stroke="#666666" points="372.5,-46.25 202,-46.25 202,0 372.5,0 372.5,-46.25"/>
<text text-anchor="start" x="210" y="-32.75" font-family="Helvetica,sans-Serif" font-size="10.00">llzk::polymorphic::</text>
<text text-anchor="start" x="210" y="-20" font-family="Helvetica,sans-Serif" font-size="10.00">UnifiableCastOpGenericAdaptor</text>
<text text-anchor="middle" x="287.25" y="-7.25" font-family="Helvetica,sans-Serif" font-size="10.00">&lt; RangeT &gt;</text>
</a>
</g>
</g>
<!-- Node0&#45;&gt;Node4 -->
<g id="edge300_Node000000_Node000004" class="edge">
<title>Node0&#45;&gt;Node4</title>
<g id="a_edge300_Node000000_Node000004"><a xlink:title=" ">
<path fill="none" stroke="#63b8ff" d="M169.14,-60.18C183.25,-55.72 197.79,-51.12 211.62,-46.74"/>
<polygon fill="#63b8ff" stroke="#63b8ff" points="168.37,-56.76 159.89,-63.11 170.48,-63.43 168.37,-56.76"/>
</a>
</g>
</g>
<!-- Node3 -->
<g id="Node000003" class="node">
<title>Node3</title>
<g id="a_Node000003"><a xlink:href="classllzk_1_1polymorphic_1_1UnifiableCastOpAdaptor.html" target="_top" xlink:title=" ">
<polygon fill="white" stroke="#666666" points="541.5,-103.88 408.5,-103.88 408.5,-70.38 541.5,-70.38 541.5,-103.88"/>
<text text-anchor="start" x="416.5" y="-90.38" font-family="Helvetica,sans-Serif" font-size="10.00">llzk::polymorphic::</text>
<text text-anchor="middle" x="475" y="-77.62" font-family="Helvetica,sans-Serif" font-size="10.00">UnifiableCastOpAdaptor</text>
</a>
</g>
</g>
<!-- Node2&#45;&gt;Node3 -->
<g id="edge299_Node000002_Node000003" class="edge">
<title>Node2&#45;&gt;Node3</title>
<g id="a_edge299_Node000002_Node000003"><a xlink:title=" ">
<path fill="none" stroke="#63b8ff" d="M384.31,-87.12C392.33,-87.12 400.32,-87.12 408.04,-87.12"/>
<polygon fill="#63b8ff" stroke="#63b8ff" points="384.49,-83.63 374.49,-87.13 384.49,-90.63 384.49,-83.63"/>
</a>
</g>
</g>
</g>
</svg>
