<?xml version="1.0" encoding="UTF-8" standalone="no"?>
<!DOCTYPE svg PUBLIC "-//W3C//DTD SVG 1.1//EN"
 "http://www.w3.org/Graphics/SVG/1.1/DTD/svg11.dtd">
<!-- Generated by graphviz version 12.2.1 (0)
 -->
<!-- Title: Graphical Class Hierarchy Pages: 1 -->
<svg width="601pt" height="170pt"
 viewBox="0.00 0.00 600.50 169.88" xmlns="http://www.w3.org/2000/svg" xmlns:xlink="http://www.w3.org/1999/xlink">
<g id="graph0" class="graph" transform="scale(1 1) rotate(0) translate(4 165.88)">
<title>Graphical Class Hierarchy</title>
<!-- Node0 -->
<g id="Node000000" class="node">
<title>Node0</title>
<g id="a_Node000000"><a xlink:href="classllzk_1_1component_1_1detail_1_1MemberDefOpGenericAdaptorBase.html" target="_top" xlink:title=" ">
<polygon fill="white" stroke="#666666" points="193,-91.5 0,-91.5 0,-58 193,-58 193,-91.5"/>
<text text-anchor="start" x="8" y="-78" font-family="Helvetica,sans-Serif" font-size="10.00">llzk::component::detail</text>
<text text-anchor="middle" x="96.5" y="-65.25" font-family="Helvetica,sans-Serif" font-size="10.00">::MemberDefOpGenericAdaptorBase</text>
</a>
</g>
</g>
<!-- Node1 -->
<g id="Node000001" class="node">
<title>Node1</title>
<g id="a_Node000001"><a xlink:href="classllzk_1_1component_1_1MemberDefOpGenericAdaptor.html" target="_top" xlink:title=" ">
<polygon fill="white" stroke="#666666" points="398.75,-161.88 229,-161.88 229,-115.62 398.75,-115.62 398.75,-161.88"/>
<text text-anchor="start" x="237" y="-148.38" font-family="Helvetica,sans-Serif" font-size="10.00">llzk::component::MemberDef</text>
<text text-anchor="start" x="237" y="-135.62" font-family="Helvetica,sans-Serif" font-size="10.00">OpGenericAdaptor&lt;::llvm</text>
<text text-anchor="middle" x="313.88" y="-122.88" font-family="Helvetica,sans-Serif" font-size="10.00">::ArrayRef&lt;::mlir::Attribute &gt; &gt;</text>
</a>
</g>
</g>
<!-- Node0&#45;&gt;Node1 -->
<g id="edge128_Node000000_Node000001" class="edge">
<title>Node0&#45;&gt;Node1</title>
<g id="a_edge128_Node000000_Node000001"><a xlink:title=" ">
<path fill="none" stroke="#63b8ff" d="M166.47,-95.24C187.89,-101.61 211.67,-108.68 233.73,-115.23"/>
<polygon fill="#63b8ff" stroke="#63b8ff" points="167.53,-91.91 156.95,-92.42 165.54,-98.62 167.53,-91.91"/>
</a>
</g>
</g>
<!-- Node2 -->
<g id="Node000002" class="node">
<title>Node2</title>
<g id="a_Node000002"><a xlink:href="classllzk_1_1component_1_1MemberDefOpGenericAdaptor.html" target="_top" xlink:title=" ">
<polygon fill="white" stroke="#666666" points="392.75,-97.88 235,-97.88 235,-51.62 392.75,-51.62 392.75,-97.88"/>
<text text-anchor="start" x="243" y="-84.38" font-family="Helvetica,sans-Serif" font-size="10.00">llzk::component::MemberDef</text>
<text text-anchor="start" x="243" y="-71.62" font-family="Helvetica,sans-Serif" font-size="10.00">OpGenericAdaptor&lt;::mlir</text>
<text text-anchor="middle" x="313.88" y="-58.88" font-family="Helvetica,sans-Serif" font-size="10.00">::ValueRange &gt;</text>
</a>
</g>
</g>
<!-- Node0&#45;&gt;Node2 -->
<g id="edge129_Node000000_Node000002" class="edge">
<title>Node0&#45;&gt;Node2</title>
<g id="a_edge129_Node000000_Node000002"><a xlink:title=" ">
<path fill="none" stroke="#63b8ff" d="M204.6,-74.75C214.69,-74.75 224.8,-74.75 234.55,-74.75"/>
<polygon fill="#63b8ff" stroke="#63b8ff" points="204.73,-71.25 194.73,-74.75 204.73,-78.25 204.73,-71.25"/>
</a>
</g>
</g>
<!-- Node4 -->
<g id="Node000004" class="node">
<title>Node4</title>
<g id="a_Node000004"><a xlink:href="classllzk_1_1component_1_1MemberDefOpGenericAdaptor.html" target="_top" xlink:title=" ">
<polygon fill="white" stroke="#666666" points="396.12,-33.5 231.62,-33.5 231.62,0 396.12,0 396.12,-33.5"/>
<text text-anchor="start" x="239.62" y="-20" font-family="Helvetica,sans-Serif" font-size="10.00">llzk::component::MemberDef</text>
<text text-anchor="middle" x="313.88" y="-7.25" font-family="Helvetica,sans-Serif" font-size="10.00">OpGenericAdaptor&lt; RangeT &gt;</text>
</a>
</g>
</g>
<!-- Node0&#45;&gt;Node4 -->
<g id="edge131_Node000000_Node000004" class="edge">
<title>Node0&#45;&gt;Node4</title>
<g id="a_edge131_Node000000_Node000004"><a xlink:title=" ">
<path fill="none" stroke="#63b8ff" d="M172.44,-54.57C197.43,-47.84 225.02,-40.41 249.09,-33.93"/>
<polygon fill="#63b8ff" stroke="#63b8ff" points="171.74,-51.13 163,-57.11 173.56,-57.89 171.74,-51.13"/>
</a>
</g>
</g>
<!-- Node3 -->
<g id="Node000003" class="node">
<title>Node3</title>
<g id="a_Node000003"><a xlink:href="classllzk_1_1component_1_1MemberDefOpAdaptor.html" target="_top" xlink:title=" ">
<polygon fill="white" stroke="#666666" points="592.5,-91.5 434.75,-91.5 434.75,-58 592.5,-58 592.5,-91.5"/>
<text text-anchor="start" x="442.75" y="-78" font-family="Helvetica,sans-Serif" font-size="10.00">llzk::component::MemberDef</text>
<text text-anchor="middle" x="513.62" y="-65.25" font-family="Helvetica,sans-Serif" font-size="10.00">OpAdaptor</text>
</a>
</g>
</g>
<!-- Node2&#45;&gt;Node3 -->
<g id="edge130_Node000002_Node000003" class="edge">
<title>Node2&#45;&gt;Node3</title>
<g id="a_edge130_Node000002_Node000003"><a xlink:title=" ">
<path fill="none" stroke="#63b8ff" d="M404.29,-74.75C414.33,-74.75 424.5,-74.75 434.39,-74.75"/>
<polygon fill="#63b8ff" stroke="#63b8ff" points="404.54,-71.25 394.54,-74.75 404.54,-78.25 404.54,-71.25"/>
</a>
</g>
</g>
</g>
</svg>
