<?xml version="1.0" encoding="UTF-8" standalone="no"?>
<!DOCTYPE svg PUBLIC "-//W3C//DTD SVG 1.1//EN"
 "http://www.w3.org/Graphics/SVG/1.1/DTD/svg11.dtd">
<!-- Generated by graphviz version 12.2.1 (0)
 -->
<!-- Title: Graphical Class Hierarchy Pages: 1 -->
<svg width="302pt" height="68pt"
 viewBox="0.00 0.00 301.75 67.75" xmlns="http://www.w3.org/2000/svg" xmlns:xlink="http://www.w3.org/1999/xlink">
<g id="graph0" class="graph" transform="scale(1 1) rotate(0) translate(4 63.75)">
<title>Graphical Class Hierarchy</title>
<!-- Node0 -->
<g id="Node000000" class="node">
<title>Node0</title>
<g id="a_Node000000"><a xlink:title=" ">
<polygon fill="#e0e0e0" stroke="#999999" points="94,-39.75 0,-39.75 0,-19 94,-19 94,-39.75"/>
<text text-anchor="middle" x="47" y="-26.25" font-family="Helvetica,sans-Serif" font-size="10.00">mlir::IntegerAttr</text>
</a>
</g>
</g>
<!-- Node1 -->
<g id="Node000001" class="node">
<title>Node1</title>
<g id="a_Node000001"><a xlink:href="classllzk_1_1smt_1_1BVCmpPredicateAttr.html" target="_top" xlink:title=" ">
<polygon fill="white" stroke="#666666" points="293.75,-59.75 130,-59.75 130,-39 293.75,-39 293.75,-59.75"/>
<text text-anchor="middle" x="211.88" y="-46.25" font-family="Helvetica,sans-Serif" font-size="10.00">llzk::smt::BVCmpPredicateAttr</text>
</a>
</g>
</g>
<!-- Node0&#45;&gt;Node1 -->
<g id="edge634_Node000000_Node000001" class="edge">
<title>Node0&#45;&gt;Node1</title>
<g id="a_edge634_Node000000_Node000001"><a xlink:title=" ">
<path fill="none" stroke="#63b8ff" d="M105.47,-36.43C113.33,-37.4 121.51,-38.4 129.68,-39.41"/>
<polygon fill="#63b8ff" stroke="#63b8ff" points="106.09,-32.98 95.74,-35.24 105.24,-39.93 106.09,-32.98"/>
</a>
</g>
</g>
<!-- Node2 -->
<g id="Node000002" class="node">
<title>Node2</title>
<g id="a_Node000002"><a xlink:href="classllzk_1_1smt_1_1IntPredicateAttr.html" target="_top" xlink:title=" ">
<polygon fill="white" stroke="#666666" points="282.12,-20.75 141.62,-20.75 141.62,0 282.12,0 282.12,-20.75"/>
<text text-anchor="middle" x="211.88" y="-7.25" font-family="Helvetica,sans-Serif" font-size="10.00">llzk::smt::IntPredicateAttr</text>
</a>
</g>
</g>
<!-- Node0&#45;&gt;Node2 -->
<g id="edge635_Node000000_Node000002" class="edge">
<title>Node0&#45;&gt;Node2</title>
<g id="a_edge635_Node000000_Node000002"><a xlink:title=" ">
<path fill="none" stroke="#63b8ff" d="M105.56,-22.66C117.15,-21.31 129.45,-19.87 141.4,-18.48"/>
<polygon fill="#63b8ff" stroke="#63b8ff" points="105.27,-19.17 95.74,-23.81 106.08,-26.12 105.27,-19.17"/>
</a>
</g>
</g>
</g>
</svg>
