<?xml version="1.0" encoding="UTF-8" standalone="no"?>
<!DOCTYPE svg PUBLIC "-//W3C//DTD SVG 1.1//EN"
 "http://www.w3.org/Graphics/SVG/1.1/DTD/svg11.dtd">
<!-- Generated by graphviz version 12.2.1 (0)
 -->
<!-- Title: Graphical Class Hierarchy Pages: 1 -->
<svg width="357pt" height="326pt"
 viewBox="0.00 0.00 357.25 325.88" xmlns="http://www.w3.org/2000/svg" xmlns:xlink="http://www.w3.org/1999/xlink">
<g id="graph0" class="graph" transform="scale(1 1) rotate(0) translate(4 321.88)">
<title>Graphical Class Hierarchy</title>
<!-- Node0 -->
<g id="Node000000" class="node">
<title>Node0</title>
<g id="a_Node000000"><a xlink:title=" ">
<polygon fill="#e0e0e0" stroke="#999999" points="127,-157.12 0,-157.12 0,-136.38 127,-136.38 127,-157.12"/>
<text text-anchor="middle" x="63.5" y="-143.62" font-family="Helvetica,sans-Serif" font-size="10.00">mlir::OpTrait::TraitBase</text>
</a>
</g>
</g>
<!-- Node1 -->
<g id="Node000001" class="node">
<title>Node1</title>
<g id="a_Node000001"><a xlink:href="classllzk_1_1VerifySizesForMultiAffineOps_1_1Impl.html" target="_top" xlink:title=" ">
<polygon fill="white" stroke="#666666" points="349.25,-317.88 163,-317.88 163,-271.62 349.25,-271.62 349.25,-317.88"/>
<text text-anchor="start" x="171" y="-304.38" font-family="Helvetica,sans-Serif" font-size="10.00">llzk::VerifySizesForMulti</text>
<text text-anchor="start" x="171" y="-291.62" font-family="Helvetica,sans-Serif" font-size="10.00">AffineOps&lt; OperandSegmentIndex</text>
<text text-anchor="middle" x="256.12" y="-278.88" font-family="Helvetica,sans-Serif" font-size="10.00"> &gt;::Impl&lt; TypeClass &gt;</text>
</a>
</g>
</g>
<!-- Node0&#45;&gt;Node1 -->
<g id="edge442_Node000000_Node000001" class="edge">
<title>Node0&#45;&gt;Node1</title>
<g id="a_edge442_Node000000_Node000001"><a xlink:title=" ">
<path fill="none" stroke="#63b8ff" d="M76.66,-166.82C93.19,-192.51 125.07,-236.77 163,-262.75 167.47,-265.81 172.26,-268.61 177.23,-271.16"/>
<polygon fill="#63b8ff" stroke="#63b8ff" points="79.81,-165.26 71.54,-158.65 73.88,-168.98 79.81,-165.26"/>
</a>
</g>
</g>
<!-- Node2 -->
<g id="Node000002" class="node">
<title>Node2</title>
<g id="a_Node000002"><a xlink:href="classllzk_1_1component_1_1InStructFunctionNamed_1_1Impl.html" target="_top" xlink:title=" ">
<polygon fill="white" stroke="#666666" points="333.88,-253.88 178.38,-253.88 178.38,-207.62 333.88,-207.62 333.88,-253.88"/>
<text text-anchor="start" x="186.38" y="-240.38" font-family="Helvetica,sans-Serif" font-size="10.00">llzk::component::InStruct</text>
<text text-anchor="start" x="186.38" y="-227.62" font-family="Helvetica,sans-Serif" font-size="10.00">FunctionNamed&lt; FuncName</text>
<text text-anchor="middle" x="256.12" y="-214.88" font-family="Helvetica,sans-Serif" font-size="10.00"> &gt;::Impl&lt; TypeClass &gt;</text>
</a>
</g>
</g>
<!-- Node0&#45;&gt;Node2 -->
<g id="edge443_Node000000_Node000002" class="edge">
<title>Node0&#45;&gt;Node2</title>
<g id="a_edge443_Node000000_Node000002"><a xlink:title=" ">
<path fill="none" stroke="#63b8ff" d="M92.95,-163.24C112.32,-174.1 138.76,-188.21 163,-198.75 169.68,-201.65 176.71,-204.48 183.79,-207.18"/>
<polygon fill="#63b8ff" stroke="#63b8ff" points="94.71,-160.22 84.28,-158.33 91.26,-166.31 94.71,-160.22"/>
</a>
</g>
</g>
<!-- Node3 -->
<g id="Node000003" class="node">
<title>Node3</title>
<g id="a_Node000003"><a xlink:href="classllzk_1_1component_1_1SetFuncAllowAttrs.html" target="_top" xlink:title="Only valid/implemented for StructDefOp.">
<polygon fill="white" stroke="#666666" points="325.25,-189.5 187,-189.5 187,-156 325.25,-156 325.25,-189.5"/>
<text text-anchor="start" x="195" y="-176" font-family="Helvetica,sans-Serif" font-size="10.00">llzk::component::SetFunc</text>
<text text-anchor="middle" x="256.12" y="-163.25" font-family="Helvetica,sans-Serif" font-size="10.00">AllowAttrs&lt; TypeClass &gt;</text>
</a>
</g>
</g>
<!-- Node0&#45;&gt;Node3 -->
<g id="edge444_Node000000_Node000003" class="edge">
<title>Node0&#45;&gt;Node3</title>
<g id="a_edge444_Node000000_Node000003"><a xlink:title=" ">
<path fill="none" stroke="#63b8ff" d="M138.76,-156.88C154.54,-159.03 171.12,-161.29 186.66,-163.41"/>
<polygon fill="#63b8ff" stroke="#63b8ff" points="139.33,-153.42 128.95,-155.54 138.38,-160.36 139.33,-153.42"/>
</a>
</g>
</g>
<!-- Node4 -->
<g id="Node000004" class="node">
<title>Node4</title>
<g id="a_Node000004"><a xlink:href="classllzk_1_1function_1_1ConstraintGen.html" target="_top" xlink:title="Marker for ops that are specific to constraint generation.">
<polygon fill="white" stroke="#666666" points="323.75,-137.5 188.5,-137.5 188.5,-104 323.75,-104 323.75,-137.5"/>
<text text-anchor="start" x="196.5" y="-124" font-family="Helvetica,sans-Serif" font-size="10.00">llzk::function::Constraint</text>
<text text-anchor="middle" x="256.12" y="-111.25" font-family="Helvetica,sans-Serif" font-size="10.00">Gen&lt; TypeClass &gt;</text>
</a>
</g>
</g>
<!-- Node0&#45;&gt;Node4 -->
<g id="edge445_Node000000_Node000004" class="edge">
<title>Node0&#45;&gt;Node4</title>
<g id="a_edge445_Node000000_Node000004"><a xlink:title=" ">
<path fill="none" stroke="#63b8ff" d="M138.62,-136.64C154.99,-134.41 172.25,-132.05 188.32,-129.86"/>
<polygon fill="#63b8ff" stroke="#63b8ff" points="138.38,-133.14 128.95,-137.96 139.33,-140.08 138.38,-133.14"/>
</a>
</g>
</g>
<!-- Node5 -->
<g id="Node000005" class="node">
<title>Node5</title>
<g id="a_Node000005"><a xlink:href="classllzk_1_1function_1_1NotFieldNative.html" target="_top" xlink:title="Marker for ops over llzk.felt type operands that are not native to finite field arithmetic.">
<polygon fill="white" stroke="#666666" points="318.88,-85.5 193.38,-85.5 193.38,-52 318.88,-52 318.88,-85.5"/>
<text text-anchor="start" x="201.38" y="-72" font-family="Helvetica,sans-Serif" font-size="10.00">llzk::function::NotField</text>
<text text-anchor="middle" x="256.12" y="-59.25" font-family="Helvetica,sans-Serif" font-size="10.00">Native&lt; TypeClass &gt;</text>
</a>
</g>
</g>
<!-- Node0&#45;&gt;Node5 -->
<g id="edge446_Node000000_Node000005" class="edge">
<title>Node0&#45;&gt;Node5</title>
<g id="a_edge446_Node000000_Node000005"><a xlink:title=" ">
<path fill="none" stroke="#63b8ff" d="M92.04,-130.2C111.39,-119.07 138.15,-104.69 163,-94.75 172.57,-90.92 182.9,-87.43 193.08,-84.32"/>
<polygon fill="#63b8ff" stroke="#63b8ff" points="90.29,-127.16 83.42,-135.23 93.82,-133.21 90.29,-127.16"/>
</a>
</g>
</g>
<!-- Node6 -->
<g id="Node000006" class="node">
<title>Node6</title>
<g id="a_Node000006"><a xlink:href="classllzk_1_1function_1_1WitnessGen.html" target="_top" xlink:title="Marker for ops that are specific to witness generation.">
<polygon fill="white" stroke="#666666" points="327.88,-33.5 184.38,-33.5 184.38,0 327.88,0 327.88,-33.5"/>
<text text-anchor="start" x="192.38" y="-20" font-family="Helvetica,sans-Serif" font-size="10.00">llzk::function::WitnessGen</text>
<text text-anchor="middle" x="256.12" y="-7.25" font-family="Helvetica,sans-Serif" font-size="10.00">&lt; TypeClass &gt;</text>
</a>
</g>
</g>
<!-- Node0&#45;&gt;Node6 -->
<g id="edge447_Node000000_Node000006" class="edge">
<title>Node0&#45;&gt;Node6</title>
<g id="a_edge447_Node000000_Node000006"><a xlink:title=" ">
<path fill="none" stroke="#63b8ff" d="M78.17,-126.77C95.31,-103.25 126.85,-64.61 163,-42.75 169.54,-38.79 176.71,-35.42 184.06,-32.55"/>
<polygon fill="#63b8ff" stroke="#63b8ff" points="75.35,-124.71 72.42,-134.89 81.06,-128.76 75.35,-124.71"/>
</a>
</g>
</g>
</g>
</svg>
