<?xml version="1.0" encoding="UTF-8" standalone="no"?>
<!DOCTYPE svg PUBLIC "-//W3C//DTD SVG 1.1//EN"
 "http://www.w3.org/Graphics/SVG/1.1/DTD/svg11.dtd">
<!-- Generated by graphviz version 12.2.1 (0)
 -->
<!-- Title: Graphical Class Hierarchy Pages: 1 -->
<svg width="530pt" height="158pt"
 viewBox="0.00 0.00 530.00 157.88" xmlns="http://www.w3.org/2000/svg" xmlns:xlink="http://www.w3.org/1999/xlink">
<g id="graph0" class="graph" transform="scale(1 1) rotate(0) translate(4 153.88)">
<title>Graphical Class Hierarchy</title>
<!-- Node0 -->
<g id="Node000000" class="node">
<title>Node0</title>
<g id="a_Node000000"><a xlink:href="classllzk_1_1verif_1_1detail_1_1OldOpGenericAdaptorBase.html" target="_top" xlink:title=" ">
<polygon fill="white" stroke="#666666" points="151.75,-85.5 0,-85.5 0,-52 151.75,-52 151.75,-85.5"/>
<text text-anchor="start" x="8" y="-72" font-family="Helvetica,sans-Serif" font-size="10.00">llzk::verif::detail</text>
<text text-anchor="middle" x="75.88" y="-59.25" font-family="Helvetica,sans-Serif" font-size="10.00">::OldOpGenericAdaptorBase</text>
</a>
</g>
</g>
<!-- Node1 -->
<g id="Node000001" class="node">
<title>Node1</title>
<g id="a_Node000001"><a xlink:href="classllzk_1_1verif_1_1OldOpGenericAdaptor.html" target="_top" xlink:title=" ">
<polygon fill="white" stroke="#666666" points="338.75,-149.88 199.75,-149.88 199.75,-103.62 338.75,-103.62 338.75,-149.88"/>
<text text-anchor="start" x="207.75" y="-136.38" font-family="Helvetica,sans-Serif" font-size="10.00">llzk::verif::OldOpGeneric</text>
<text text-anchor="start" x="207.75" y="-123.62" font-family="Helvetica,sans-Serif" font-size="10.00">Adaptor&lt;::llvm::ArrayRef</text>
<text text-anchor="middle" x="269.25" y="-110.88" font-family="Helvetica,sans-Serif" font-size="10.00">&lt;::mlir::Attribute &gt; &gt;</text>
</a>
</g>
</g>
<!-- Node0&#45;&gt;Node1 -->
<g id="edge636_Node000000_Node000001" class="edge">
<title>Node0&#45;&gt;Node1</title>
<g id="a_edge636_Node000000_Node000001"><a xlink:title=" ">
<path fill="none" stroke="#63b8ff" d="M144.63,-89.28C162.4,-94.67 181.57,-100.48 199.39,-105.88"/>
<polygon fill="#63b8ff" stroke="#63b8ff" points="145.81,-85.98 135.22,-86.43 143.78,-92.68 145.81,-85.98"/>
</a>
</g>
</g>
<!-- Node2 -->
<g id="Node000002" class="node">
<title>Node2</title>
<g id="a_Node000002"><a xlink:href="classllzk_1_1verif_1_1OldOpGenericAdaptor.html" target="_top" xlink:title=" ">
<polygon fill="white" stroke="#666666" points="350.75,-85.5 187.75,-85.5 187.75,-52 350.75,-52 350.75,-85.5"/>
<text text-anchor="start" x="195.75" y="-72" font-family="Helvetica,sans-Serif" font-size="10.00">llzk::verif::OldOpGeneric</text>
<text text-anchor="middle" x="269.25" y="-59.25" font-family="Helvetica,sans-Serif" font-size="10.00">Adaptor&lt;::mlir::ValueRange &gt;</text>
</a>
</g>
</g>
<!-- Node0&#45;&gt;Node2 -->
<g id="edge637_Node000000_Node000002" class="edge">
<title>Node0&#45;&gt;Node2</title>
<g id="a_edge637_Node000000_Node000002"><a xlink:title=" ">
<path fill="none" stroke="#63b8ff" d="M163.67,-68.75C171.53,-68.75 179.47,-68.75 187.28,-68.75"/>
<polygon fill="#63b8ff" stroke="#63b8ff" points="163.75,-65.25 153.75,-68.75 163.75,-72.25 163.75,-65.25"/>
</a>
</g>
</g>
<!-- Node4 -->
<g id="Node000004" class="node">
<title>Node4</title>
<g id="a_Node000004"><a xlink:href="classllzk_1_1verif_1_1OldOpGenericAdaptor.html" target="_top" xlink:title=" ">
<polygon fill="white" stroke="#666666" points="336.5,-33.5 202,-33.5 202,0 336.5,0 336.5,-33.5"/>
<text text-anchor="start" x="210" y="-20" font-family="Helvetica,sans-Serif" font-size="10.00">llzk::verif::OldOpGeneric</text>
<text text-anchor="middle" x="269.25" y="-7.25" font-family="Helvetica,sans-Serif" font-size="10.00">Adaptor&lt; RangeT &gt;</text>
</a>
</g>
</g>
<!-- Node0&#45;&gt;Node4 -->
<g id="edge639_Node000000_Node000004" class="edge">
<title>Node0&#45;&gt;Node4</title>
<g id="a_edge639_Node000000_Node000004"><a xlink:title=" ">
<path fill="none" stroke="#63b8ff" d="M151.23,-48.55C168.98,-43.72 187.76,-38.62 204.96,-33.95"/>
<polygon fill="#63b8ff" stroke="#63b8ff" points="150.53,-45.11 141.79,-51.11 152.36,-51.87 150.53,-45.11"/>
</a>
</g>
</g>
<!-- Node3 -->
<g id="Node000003" class="node">
<title>Node3</title>
<g id="a_Node000003"><a xlink:href="classllzk_1_1verif_1_1OldOpAdaptor.html" target="_top" xlink:title=" ">
<polygon fill="white" stroke="#666666" points="522,-79.12 386.75,-79.12 386.75,-58.38 522,-58.38 522,-79.12"/>
<text text-anchor="middle" x="454.38" y="-65.62" font-family="Helvetica,sans-Serif" font-size="10.00">llzk::verif::OldOpAdaptor</text>
</a>
</g>
</g>
<!-- Node2&#45;&gt;Node3 -->
<g id="edge638_Node000002_Node000003" class="edge">
<title>Node2&#45;&gt;Node3</title>
<g id="a_edge638_Node000002_Node000003"><a xlink:title=" ">
<path fill="none" stroke="#63b8ff" d="M362.48,-68.75C370.54,-68.75 378.59,-68.75 386.38,-68.75"/>
<polygon fill="#63b8ff" stroke="#63b8ff" points="362.62,-65.25 352.62,-68.75 362.62,-72.25 362.62,-65.25"/>
</a>
</g>
</g>
</g>
</svg>
