<?xml version="1.0" encoding="UTF-8" standalone="no"?>
<!DOCTYPE svg PUBLIC "-//W3C//DTD SVG 1.1//EN"
 "http://www.w3.org/Graphics/SVG/1.1/DTD/svg11.dtd">
<!-- Generated by graphviz version 12.2.1 (0)
 -->
<!-- Title: Graphical Class Hierarchy Pages: 1 -->
<svg width="524pt" height="374pt"
 viewBox="0.00 0.00 524.00 374.25" xmlns="http://www.w3.org/2000/svg" xmlns:xlink="http://www.w3.org/1999/xlink">
<g id="graph0" class="graph" transform="scale(1 1) rotate(0) translate(4 370.25)">
<title>Graphical Class Hierarchy</title>
<!-- Node0 -->
<g id="Node000000" class="node">
<title>Node0</title>
<g id="a_Node000000"><a xlink:title=" ">
<polygon fill="#e0e0e0" stroke="#999999" points="104.5,-199.88 0,-199.88 0,-166.38 104.5,-166.38 104.5,-199.88"/>
<text text-anchor="start" x="8" y="-186.38" font-family="Helvetica,sans-Serif" font-size="10.00">mlir::OpInterface::</text>
<text text-anchor="middle" x="52.25" y="-173.62" font-family="Helvetica,sans-Serif" font-size="10.00">Trait</text>
</a>
</g>
</g>
<!-- Node1 -->
<g id="Node000001" class="node">
<title>Node1</title>
<g id="a_Node000001"><a xlink:href="structllzk_1_1array_1_1detail_1_1ArrayAccessOpInterfaceTrait.html" target="_top" xlink:title=" ">
<polygon fill="white" stroke="#666666" points="300.5,-366.25 140.5,-366.25 140.5,-320 300.5,-320 300.5,-366.25"/>
<text text-anchor="start" x="148.5" y="-352.75" font-family="Helvetica,sans-Serif" font-size="10.00">llzk::array::detail</text>
<text text-anchor="start" x="148.5" y="-340" font-family="Helvetica,sans-Serif" font-size="10.00">::ArrayAccessOpInterfaceTrait</text>
<text text-anchor="middle" x="220.5" y="-327.25" font-family="Helvetica,sans-Serif" font-size="10.00">&lt; ConcreteOp &gt;</text>
</a>
</g>
</g>
<!-- Node0&#45;&gt;Node1 -->
<g id="edge435_Node000000_Node000001" class="edge">
<title>Node0&#45;&gt;Node1</title>
<g id="a_edge435_Node000000_Node000001"><a xlink:title=" ">
<path fill="none" stroke="#63b8ff" d="M65.64,-210.09C80,-238.67 106.16,-283.43 140.5,-311.12 144.3,-314.19 148.44,-317 152.75,-319.56"/>
<polygon fill="#63b8ff" stroke="#63b8ff" points="68.91,-208.81 61.39,-201.35 62.62,-211.88 68.91,-208.81"/>
</a>
</g>
</g>
<!-- Node3 -->
<g id="Node000003" class="node">
<title>Node3</title>
<g id="a_Node000003"><a xlink:href="structllzk_1_1array_1_1detail_1_1ArrayRefOpInterfaceTrait.html" target="_top" xlink:title=" ">
<polygon fill="white" stroke="#666666" points="291.88,-302.25 149.12,-302.25 149.12,-256 291.88,-256 291.88,-302.25"/>
<text text-anchor="start" x="157.12" y="-288.75" font-family="Helvetica,sans-Serif" font-size="10.00">llzk::array::detail</text>
<text text-anchor="start" x="157.12" y="-276" font-family="Helvetica,sans-Serif" font-size="10.00">::ArrayRefOpInterfaceTrait</text>
<text text-anchor="middle" x="220.5" y="-263.25" font-family="Helvetica,sans-Serif" font-size="10.00">&lt; ConcreteOp &gt;</text>
</a>
</g>
</g>
<!-- Node0&#45;&gt;Node3 -->
<g id="edge437_Node000000_Node000003" class="edge">
<title>Node0&#45;&gt;Node3</title>
<g id="a_edge437_Node000000_Node000003"><a xlink:title=" ">
<path fill="none" stroke="#63b8ff" d="M82.02,-207.04C98.47,-219.98 119.88,-235.62 140.5,-247.12 145.8,-250.08 151.43,-252.91 157.14,-255.58"/>
<polygon fill="#63b8ff" stroke="#63b8ff" points="84.6,-204.63 74.61,-201.12 80.23,-210.1 84.6,-204.63"/>
</a>
</g>
</g>
<!-- Node5 -->
<g id="Node000005" class="node">
<title>Node5</title>
<g id="a_Node000005"><a xlink:href="structllzk_1_1component_1_1detail_1_1MemberRefOpInterfaceTrait.html" target="_top" xlink:title=" ">
<polygon fill="white" stroke="#666666" points="299,-238.25 142,-238.25 142,-192 299,-192 299,-238.25"/>
<text text-anchor="start" x="150" y="-224.75" font-family="Helvetica,sans-Serif" font-size="10.00">llzk::component::detail</text>
<text text-anchor="start" x="150" y="-212" font-family="Helvetica,sans-Serif" font-size="10.00">::MemberRefOpInterfaceTrait</text>
<text text-anchor="middle" x="220.5" y="-199.25" font-family="Helvetica,sans-Serif" font-size="10.00">&lt; ConcreteOp &gt;</text>
</a>
</g>
</g>
<!-- Node0&#45;&gt;Node5 -->
<g id="edge439_Node000000_Node000005" class="edge">
<title>Node0&#45;&gt;Node5</title>
<g id="a_edge439_Node000000_Node000005"><a xlink:title=" ">
<path fill="none" stroke="#63b8ff" d="M116.09,-195.22C124.42,-196.82 133.05,-198.48 141.6,-200.13"/>
<polygon fill="#63b8ff" stroke="#63b8ff" points="116.91,-191.81 106.43,-193.36 115.59,-198.69 116.91,-191.81"/>
</a>
</g>
</g>
<!-- Node7 -->
<g id="Node000007" class="node">
<title>Node7</title>
<g id="a_Node000007"><a xlink:href="structllzk_1_1constrain_1_1detail_1_1ConstraintOpInterfaceTrait.html" target="_top" xlink:title=" ">
<polygon fill="white" stroke="#666666" points="295.62,-174.25 145.38,-174.25 145.38,-128 295.62,-128 295.62,-174.25"/>
<text text-anchor="start" x="153.38" y="-160.75" font-family="Helvetica,sans-Serif" font-size="10.00">llzk::constrain::detail</text>
<text text-anchor="start" x="153.38" y="-148" font-family="Helvetica,sans-Serif" font-size="10.00">::ConstraintOpInterfaceTrait</text>
<text text-anchor="middle" x="220.5" y="-135.25" font-family="Helvetica,sans-Serif" font-size="10.00">&lt; ConcreteOp &gt;</text>
</a>
</g>
</g>
<!-- Node0&#45;&gt;Node7 -->
<g id="edge441_Node000000_Node000007" class="edge">
<title>Node0&#45;&gt;Node7</title>
<g id="a_edge441_Node000000_Node000007"><a xlink:title=" ">
<path fill="none" stroke="#63b8ff" d="M116.19,-171.01C125.58,-169.2 135.35,-167.32 144.96,-165.47"/>
<polygon fill="#63b8ff" stroke="#63b8ff" points="115.59,-167.56 106.43,-172.89 116.91,-174.44 115.59,-167.56"/>
</a>
</g>
</g>
<!-- Node9 -->
<g id="Node000009" class="node">
<title>Node9</title>
<g id="a_Node000009"><a xlink:href="structllzk_1_1felt_1_1detail_1_1FeltBinaryOpInterfaceTrait.html" target="_top" xlink:title=" ">
<polygon fill="white" stroke="#666666" points="295.25,-110.25 145.75,-110.25 145.75,-64 295.25,-64 295.25,-110.25"/>
<text text-anchor="start" x="153.75" y="-96.75" font-family="Helvetica,sans-Serif" font-size="10.00">llzk::felt::detail</text>
<text text-anchor="start" x="153.75" y="-84" font-family="Helvetica,sans-Serif" font-size="10.00">::FeltBinaryOpInterfaceTrait</text>
<text text-anchor="middle" x="220.5" y="-71.25" font-family="Helvetica,sans-Serif" font-size="10.00">&lt; ConcreteOp &gt;</text>
</a>
</g>
</g>
<!-- Node0&#45;&gt;Node9 -->
<g id="edge443_Node000000_Node000009" class="edge">
<title>Node0&#45;&gt;Node9</title>
<g id="a_edge443_Node000000_Node000009"><a xlink:title=" ">
<path fill="none" stroke="#63b8ff" d="M82.02,-159.21C98.47,-146.27 119.88,-130.63 140.5,-119.12 145.8,-116.17 151.43,-113.34 157.14,-110.67"/>
<polygon fill="#63b8ff" stroke="#63b8ff" points="80.23,-156.15 74.61,-165.13 84.6,-161.62 80.23,-156.15"/>
</a>
</g>
</g>
<!-- Node11 -->
<g id="Node000011" class="node">
<title>Node11</title>
<g id="a_Node000011"><a xlink:href="structllzk_1_1global_1_1detail_1_1GlobalRefOpInterfaceTrait.html" target="_top" xlink:title=" ">
<polygon fill="white" stroke="#666666" points="294.5,-46.25 146.5,-46.25 146.5,0 294.5,0 294.5,-46.25"/>
<text text-anchor="start" x="154.5" y="-32.75" font-family="Helvetica,sans-Serif" font-size="10.00">llzk::global::detail</text>
<text text-anchor="start" x="154.5" y="-20" font-family="Helvetica,sans-Serif" font-size="10.00">::GlobalRefOpInterfaceTrait</text>
<text text-anchor="middle" x="220.5" y="-7.25" font-family="Helvetica,sans-Serif" font-size="10.00">&lt; ConcreteOp &gt;</text>
</a>
</g>
</g>
<!-- Node0&#45;&gt;Node11 -->
<g id="edge445_Node000000_Node000011" class="edge">
<title>Node0&#45;&gt;Node11</title>
<g id="a_edge445_Node000000_Node000011"><a xlink:title=" ">
<path fill="none" stroke="#63b8ff" d="M65.64,-156.16C80,-127.58 106.16,-82.82 140.5,-55.12 144.3,-52.06 148.44,-49.25 152.75,-46.69"/>
<polygon fill="#63b8ff" stroke="#63b8ff" points="62.62,-154.37 61.39,-164.9 68.91,-157.44 62.62,-154.37"/>
</a>
</g>
</g>
<!-- Node2 -->
<g id="Node000002" class="node">
<title>Node2</title>
<g id="a_Node000002"><a xlink:href="structllzk_1_1array_1_1ArrayAccessOpInterface_1_1Trait.html" target="_top" xlink:title=" ">
<polygon fill="white" stroke="#666666" points="516,-359.88 336.5,-359.88 336.5,-326.38 516,-326.38 516,-359.88"/>
<text text-anchor="start" x="344.5" y="-346.38" font-family="Helvetica,sans-Serif" font-size="10.00">llzk::array::ArrayAccess</text>
<text text-anchor="middle" x="426.25" y="-333.62" font-family="Helvetica,sans-Serif" font-size="10.00">OpInterface::Trait&lt; ConcreteOp &gt;</text>
</a>
</g>
</g>
<!-- Node1&#45;&gt;Node2 -->
<g id="edge436_Node000001_Node000002" class="edge">
<title>Node1&#45;&gt;Node2</title>
<g id="a_edge436_Node000001_Node000002"><a xlink:title=" ">
<path fill="none" stroke="#63b8ff" d="M312.13,-343.12C320.16,-343.12 328.29,-343.12 336.31,-343.12"/>
<polygon fill="#63b8ff" stroke="#63b8ff" points="312.37,-339.63 302.37,-343.13 312.37,-346.63 312.37,-339.63"/>
</a>
</g>
</g>
<!-- Node4 -->
<g id="Node000004" class="node">
<title>Node4</title>
<g id="a_Node000004"><a xlink:href="structllzk_1_1array_1_1ArrayRefOpInterface_1_1Trait.html" target="_top" xlink:title=" ">
<polygon fill="white" stroke="#666666" points="511.12,-295.88 341.38,-295.88 341.38,-262.38 511.12,-262.38 511.12,-295.88"/>
<text text-anchor="start" x="349.38" y="-282.38" font-family="Helvetica,sans-Serif" font-size="10.00">llzk::array::ArrayRefOpInterface</text>
<text text-anchor="middle" x="426.25" y="-269.62" font-family="Helvetica,sans-Serif" font-size="10.00">::Trait&lt; ConcreteOp &gt;</text>
</a>
</g>
</g>
<!-- Node3&#45;&gt;Node4 -->
<g id="edge438_Node000003_Node000004" class="edge">
<title>Node3&#45;&gt;Node4</title>
<g id="a_edge438_Node000003_Node000004"><a xlink:title=" ">
<path fill="none" stroke="#63b8ff" d="M303.42,-279.12C315.8,-279.12 328.59,-279.12 341.01,-279.12"/>
<polygon fill="#63b8ff" stroke="#63b8ff" points="303.7,-275.63 293.7,-279.13 303.7,-282.63 303.7,-275.63"/>
</a>
</g>
</g>
<!-- Node6 -->
<g id="Node000006" class="node">
<title>Node6</title>
<g id="a_Node000006"><a xlink:href="structllzk_1_1component_1_1MemberRefOpInterface_1_1Trait.html" target="_top" xlink:title=" ">
<polygon fill="white" stroke="#666666" points="516,-231.88 336.5,-231.88 336.5,-198.38 516,-198.38 516,-231.88"/>
<text text-anchor="start" x="344.5" y="-218.38" font-family="Helvetica,sans-Serif" font-size="10.00">llzk::component::MemberRef</text>
<text text-anchor="middle" x="426.25" y="-205.62" font-family="Helvetica,sans-Serif" font-size="10.00">OpInterface::Trait&lt; ConcreteOp &gt;</text>
</a>
</g>
</g>
<!-- Node5&#45;&gt;Node6 -->
<g id="edge440_Node000005_Node000006" class="edge">
<title>Node5&#45;&gt;Node6</title>
<g id="a_edge440_Node000005_Node000006"><a xlink:title=" ">
<path fill="none" stroke="#63b8ff" d="M310.79,-215.12C319.21,-215.12 327.74,-215.12 336.16,-215.12"/>
<polygon fill="#63b8ff" stroke="#63b8ff" points="310.91,-211.63 300.91,-215.13 310.91,-218.63 310.91,-211.63"/>
</a>
</g>
</g>
<!-- Node8 -->
<g id="Node000008" class="node">
<title>Node8</title>
<g id="a_Node000008"><a xlink:href="structllzk_1_1constrain_1_1ConstraintOpInterface_1_1Trait.html" target="_top" xlink:title=" ">
<polygon fill="white" stroke="#666666" points="516,-167.88 336.5,-167.88 336.5,-134.38 516,-134.38 516,-167.88"/>
<text text-anchor="start" x="344.5" y="-154.38" font-family="Helvetica,sans-Serif" font-size="10.00">llzk::constrain::Constraint</text>
<text text-anchor="middle" x="426.25" y="-141.62" font-family="Helvetica,sans-Serif" font-size="10.00">OpInterface::Trait&lt; ConcreteOp &gt;</text>
</a>
</g>
</g>
<!-- Node7&#45;&gt;Node8 -->
<g id="edge442_Node000007_Node000008" class="edge">
<title>Node7&#45;&gt;Node8</title>
<g id="a_edge442_Node000007_Node000008"><a xlink:title=" ">
<path fill="none" stroke="#63b8ff" d="M307.4,-151.12C316.91,-151.12 326.6,-151.12 336.15,-151.12"/>
<polygon fill="#63b8ff" stroke="#63b8ff" points="307.44,-147.63 297.44,-151.13 307.44,-154.63 307.44,-147.63"/>
</a>
</g>
</g>
<!-- Node10 -->
<g id="Node000010" class="node">
<title>Node10</title>
<g id="a_Node000010"><a xlink:href="structllzk_1_1felt_1_1FeltBinaryOpInterface_1_1Trait.html" target="_top" xlink:title=" ">
<polygon fill="white" stroke="#666666" points="509.25,-103.88 343.25,-103.88 343.25,-70.38 509.25,-70.38 509.25,-103.88"/>
<text text-anchor="start" x="351.25" y="-90.38" font-family="Helvetica,sans-Serif" font-size="10.00">llzk::felt::FeltBinaryOp</text>
<text text-anchor="middle" x="426.25" y="-77.62" font-family="Helvetica,sans-Serif" font-size="10.00">Interface::Trait&lt; ConcreteOp &gt;</text>
</a>
</g>
</g>
<!-- Node9&#45;&gt;Node10 -->
<g id="edge444_Node000009_Node000010" class="edge">
<title>Node9&#45;&gt;Node10</title>
<g id="a_edge444_Node000009_Node000010"><a xlink:title=" ">
<path fill="none" stroke="#63b8ff" d="M306.93,-87.12C318.84,-87.12 331.05,-87.12 342.9,-87.12"/>
<polygon fill="#63b8ff" stroke="#63b8ff" points="307.15,-83.63 297.15,-87.13 307.15,-90.63 307.15,-83.63"/>
</a>
</g>
</g>
<!-- Node12 -->
<g id="Node000012" class="node">
<title>Node12</title>
<g id="a_Node000012"><a xlink:href="structllzk_1_1global_1_1GlobalRefOpInterface_1_1Trait.html" target="_top" xlink:title=" ">
<polygon fill="white" stroke="#666666" points="509.25,-39.88 343.25,-39.88 343.25,-6.38 509.25,-6.38 509.25,-39.88"/>
<text text-anchor="start" x="351.25" y="-26.38" font-family="Helvetica,sans-Serif" font-size="10.00">llzk::global::GlobalRefOp</text>
<text text-anchor="middle" x="426.25" y="-13.62" font-family="Helvetica,sans-Serif" font-size="10.00">Interface::Trait&lt; ConcreteOp &gt;</text>
</a>
</g>
</g>
<!-- Node11&#45;&gt;Node12 -->
<g id="edge446_Node000011_Node000012" class="edge">
<title>Node11&#45;&gt;Node12</title>
<g id="a_edge446_Node000011_Node000012"><a xlink:title=" ">
<path fill="none" stroke="#63b8ff" d="M306.28,-23.12C318.41,-23.12 330.87,-23.12 342.95,-23.12"/>
<polygon fill="#63b8ff" stroke="#63b8ff" points="306.28,-19.63 296.28,-23.13 306.28,-26.63 306.28,-19.63"/>
</a>
</g>
</g>
</g>
</svg>
