<?xml version="1.0" encoding="UTF-8" standalone="no"?>
<!DOCTYPE svg PUBLIC "-//W3C//DTD SVG 1.1//EN"
 "http://www.w3.org/Graphics/SVG/1.1/DTD/svg11.dtd">
<!-- Generated by graphviz version 12.2.1 (0)
 -->
<!-- Title: Graphical Class Hierarchy Pages: 1 -->
<svg width="670pt" height="189pt"
 viewBox="0.00 0.00 669.50 188.62" xmlns="http://www.w3.org/2000/svg" xmlns:xlink="http://www.w3.org/1999/xlink">
<g id="graph0" class="graph" transform="scale(1 1) rotate(0) translate(4 184.62)">
<title>Graphical Class Hierarchy</title>
<!-- Node0 -->
<g id="Node000000" class="node">
<title>Node0</title>
<g id="a_Node000000"><a xlink:href="structllzk_1_1verif_1_1detail_1_1ConditionOpInterfaceInterfaceTraits_1_1Concept.html" target="_top" xlink:title=" ">
<polygon fill="white" stroke="#666666" points="169,-110.25 0,-110.25 0,-64 169,-64 169,-110.25"/>
<text text-anchor="start" x="8" y="-96.75" font-family="Helvetica,sans-Serif" font-size="10.00">llzk::verif::detail</text>
<text text-anchor="start" x="8" y="-84" font-family="Helvetica,sans-Serif" font-size="10.00">::ConditionOpInterfaceInterface</text>
<text text-anchor="middle" x="84.5" y="-71.25" font-family="Helvetica,sans-Serif" font-size="10.00">Traits::Concept</text>
</a>
</g>
</g>
<!-- Node1 -->
<g id="Node000001" class="node">
<title>Node1</title>
<g id="a_Node000001"><a xlink:href="classllzk_1_1verif_1_1detail_1_1ConditionOpInterfaceInterfaceTraits_1_1FallbackModel.html" target="_top" xlink:title=" ">
<polygon fill="white" stroke="#666666" points="419,-174.25 205,-174.25 205,-128 419,-128 419,-174.25"/>
<text text-anchor="start" x="213" y="-160.75" font-family="Helvetica,sans-Serif" font-size="10.00">llzk::verif::detail</text>
<text text-anchor="start" x="213" y="-148" font-family="Helvetica,sans-Serif" font-size="10.00">::ConditionOpInterfaceInterface</text>
<text text-anchor="middle" x="312" y="-135.25" font-family="Helvetica,sans-Serif" font-size="10.00">Traits::FallbackModel&lt; ConcreteModel &gt;</text>
</a>
</g>
</g>
<!-- Node0&#45;&gt;Node1 -->
<g id="edge581_Node000000_Node000001" class="edge">
<title>Node0&#45;&gt;Node1</title>
<g id="a_edge581_Node000000_Node000001"><a xlink:title=" ">
<path fill="none" stroke="#63b8ff" d="M179.5,-113.8C195.53,-118.35 212.07,-123.05 227.79,-127.51"/>
<polygon fill="#63b8ff" stroke="#63b8ff" points="180.54,-110.46 169.96,-111.1 178.63,-117.19 180.54,-110.46"/>
</a>
</g>
</g>
<!-- Node3 -->
<g id="Node000003" class="node">
<title>Node3</title>
<g id="a_Node000003"><a xlink:href="classllzk_1_1verif_1_1detail_1_1ConditionOpInterfaceInterfaceTraits_1_1FallbackModel.html" target="_top" xlink:title=" ">
<polygon fill="white" stroke="#666666" points="410.75,-110.25 213.25,-110.25 213.25,-64 410.75,-64 410.75,-110.25"/>
<text text-anchor="start" x="221.25" y="-96.75" font-family="Helvetica,sans-Serif" font-size="10.00">llzk::verif::detail</text>
<text text-anchor="start" x="221.25" y="-84" font-family="Helvetica,sans-Serif" font-size="10.00">::ConditionOpInterfaceInterface</text>
<text text-anchor="middle" x="312" y="-71.25" font-family="Helvetica,sans-Serif" font-size="10.00">Traits::FallbackModel&lt; ConcreteOp &gt;</text>
</a>
</g>
</g>
<!-- Node0&#45;&gt;Node3 -->
<g id="edge583_Node000000_Node000003" class="edge">
<title>Node0&#45;&gt;Node3</title>
<g id="a_edge583_Node000000_Node000003"><a xlink:title=" ">
<path fill="none" stroke="#63b8ff" d="M180.86,-87.12C191.46,-87.12 202.26,-87.12 212.89,-87.12"/>
<polygon fill="#63b8ff" stroke="#63b8ff" points="180.98,-83.63 170.98,-87.13 180.98,-90.63 180.98,-83.63"/>
</a>
</g>
</g>
<!-- Node4 -->
<g id="Node000004" class="node">
<title>Node4</title>
<g id="a_Node000004"><a xlink:href="classllzk_1_1verif_1_1detail_1_1ConditionOpInterfaceInterfaceTraits_1_1Model.html" target="_top" xlink:title=" ">
<polygon fill="white" stroke="#666666" points="396.5,-46.25 227.5,-46.25 227.5,0 396.5,0 396.5,-46.25"/>
<text text-anchor="start" x="235.5" y="-32.75" font-family="Helvetica,sans-Serif" font-size="10.00">llzk::verif::detail</text>
<text text-anchor="start" x="235.5" y="-20" font-family="Helvetica,sans-Serif" font-size="10.00">::ConditionOpInterfaceInterface</text>
<text text-anchor="middle" x="312" y="-7.25" font-family="Helvetica,sans-Serif" font-size="10.00">Traits::Model&lt; ConcreteOp &gt;</text>
</a>
</g>
</g>
<!-- Node0&#45;&gt;Node4 -->
<g id="edge584_Node000000_Node000004" class="edge">
<title>Node0&#45;&gt;Node4</title>
<g id="a_edge584_Node000000_Node000004"><a xlink:title=" ">
<path fill="none" stroke="#63b8ff" d="M179.5,-60.45C195.53,-55.9 212.07,-51.2 227.79,-46.74"/>
<polygon fill="#63b8ff" stroke="#63b8ff" points="178.63,-57.06 169.96,-63.15 180.54,-63.79 178.63,-57.06"/>
</a>
</g>
</g>
<!-- Node2 -->
<g id="Node000002" class="node">
<title>Node2</title>
<g id="a_Node000002"><a xlink:href="classllzk_1_1verif_1_1detail_1_1ConditionOpInterfaceInterfaceTraits_1_1ExternalModel.html" target="_top" xlink:title=" ">
<polygon fill="white" stroke="#666666" points="661.5,-180.62 455,-180.62 455,-121.62 661.5,-121.62 661.5,-180.62"/>
<text text-anchor="start" x="463" y="-167.12" font-family="Helvetica,sans-Serif" font-size="10.00">llzk::verif::detail</text>
<text text-anchor="start" x="463" y="-154.38" font-family="Helvetica,sans-Serif" font-size="10.00">::ConditionOpInterfaceInterface</text>
<text text-anchor="start" x="463" y="-141.62" font-family="Helvetica,sans-Serif" font-size="10.00">Traits::ExternalModel&lt; ConcreteModel,</text>
<text text-anchor="middle" x="558.25" y="-128.88" font-family="Helvetica,sans-Serif" font-size="10.00"> ConcreteOp &gt;</text>
</a>
</g>
</g>
<!-- Node1&#45;&gt;Node2 -->
<g id="edge582_Node000001_Node000002" class="edge">
<title>Node1&#45;&gt;Node2</title>
<g id="a_edge582_Node000001_Node000002"><a xlink:title=" ">
<path fill="none" stroke="#63b8ff" d="M430.71,-151.12C438.71,-151.12 446.75,-151.12 454.66,-151.12"/>
<polygon fill="#63b8ff" stroke="#63b8ff" points="430.93,-147.63 420.93,-151.13 430.93,-154.63 430.93,-147.63"/>
</a>
</g>
</g>
</g>
</svg>
