<?xml version="1.0" encoding="UTF-8" standalone="no"?>
<!DOCTYPE svg PUBLIC "-//W3C//DTD SVG 1.1//EN"
 "http://www.w3.org/Graphics/SVG/1.1/DTD/svg11.dtd">
<!-- Generated by graphviz version 12.2.1 (0)
 -->
<!-- Title: Graphical Class Hierarchy Pages: 1 -->
<svg width="347pt" height="94pt"
 viewBox="0.00 0.00 346.75 93.50" xmlns="http://www.w3.org/2000/svg" xmlns:xlink="http://www.w3.org/1999/xlink">
<g id="graph0" class="graph" transform="scale(1 1) rotate(0) translate(4 89.5)">
<title>Graphical Class Hierarchy</title>
<!-- Node0 -->
<g id="Node000000" class="node">
<title>Node0</title>
<g id="a_Node000000"><a xlink:title=" ">
<polygon fill="#e0e0e0" stroke="#999999" points="114.25,-53.12 0,-53.12 0,-32.38 114.25,-32.38 114.25,-53.12"/>
<text text-anchor="middle" x="57.12" y="-39.62" font-family="Helvetica,sans-Serif" font-size="10.00">llvm::DenseMapInfo</text>
</a>
</g>
</g>
<!-- Node1 -->
<g id="Node000001" class="node">
<title>Node1</title>
<g id="a_Node000001"><a xlink:href="structllzk_1_1verif_1_1detail_1_1CallableSummaryKeyInfo.html" target="_top" xlink:title=" ">
<polygon fill="white" stroke="#666666" points="317.38,-85.5 171.62,-85.5 171.62,-52 317.38,-52 317.38,-85.5"/>
<text text-anchor="start" x="179.62" y="-72" font-family="Helvetica,sans-Serif" font-size="10.00">llzk::verif::detail</text>
<text text-anchor="middle" x="244.5" y="-59.25" font-family="Helvetica,sans-Serif" font-size="10.00">::CallableSummaryKeyInfo</text>
</a>
</g>
</g>
<!-- Node0&#45;&gt;Node1 -->
<g id="edge62_Node000000_Node000001" class="edge">
<title>Node0&#45;&gt;Node1</title>
<g id="a_edge62_Node000000_Node000001"><a xlink:title=" ">
<path fill="none" stroke="#63b8ff" d="M125.64,-52.22C140.49,-54.3 156.26,-56.51 171.29,-58.62"/>
<polygon fill="#63b8ff" stroke="#63b8ff" points="126.39,-48.79 116,-50.87 125.41,-55.72 126.39,-48.79"/>
</a>
</g>
</g>
<!-- Node2 -->
<g id="Node000002" class="node">
<title>Node2</title>
<g id="a_Node000002"><a xlink:href="structllzk_1_1verif_1_1detail_1_1IncludedContractSummaryKeyInfo.html" target="_top" xlink:title=" ">
<polygon fill="white" stroke="#666666" points="338.75,-33.5 150.25,-33.5 150.25,0 338.75,0 338.75,-33.5"/>
<text text-anchor="start" x="158.25" y="-20" font-family="Helvetica,sans-Serif" font-size="10.00">llzk::verif::detail</text>
<text text-anchor="middle" x="244.5" y="-7.25" font-family="Helvetica,sans-Serif" font-size="10.00">::IncludedContractSummaryKeyInfo</text>
</a>
</g>
</g>
<!-- Node0&#45;&gt;Node2 -->
<g id="edge63_Node000000_Node000002" class="edge">
<title>Node0&#45;&gt;Node2</title>
<g id="a_edge63_Node000000_Node000002"><a xlink:title=" ">
<path fill="none" stroke="#63b8ff" d="M125.75,-33.27C133.58,-32.17 141.66,-31.03 149.75,-29.9"/>
<polygon fill="#63b8ff" stroke="#63b8ff" points="125.41,-29.78 116,-34.63 126.39,-36.71 125.41,-29.78"/>
</a>
</g>
</g>
</g>
</svg>
