<?xml version="1.0" encoding="UTF-8" standalone="no"?>
<!DOCTYPE svg PUBLIC "-//W3C//DTD SVG 1.1//EN"
 "http://www.w3.org/Graphics/SVG/1.1/DTD/svg11.dtd">
<!-- Generated by graphviz version 12.2.1 (0)
 -->
<!-- Title: Graphical Class Hierarchy Pages: 1 -->
<svg width="569pt" height="158pt"
 viewBox="0.00 0.00 569.00 157.88" xmlns="http://www.w3.org/2000/svg" xmlns:xlink="http://www.w3.org/1999/xlink">
<g id="graph0" class="graph" transform="scale(1 1) rotate(0) translate(4 153.88)">
<title>Graphical Class Hierarchy</title>
<!-- Node0 -->
<g id="Node000000" class="node">
<title>Node0</title>
<g id="a_Node000000"><a xlink:href="classllzk_1_1smt_1_1detail_1_1BVSModOpGenericAdaptorBase.html" target="_top" xlink:title=" ">
<polygon fill="white" stroke="#666666" points="169.75,-85.5 0,-85.5 0,-52 169.75,-52 169.75,-85.5"/>
<text text-anchor="start" x="8" y="-72" font-family="Helvetica,sans-Serif" font-size="10.00">llzk::smt::detail::</text>
<text text-anchor="middle" x="84.88" y="-59.25" font-family="Helvetica,sans-Serif" font-size="10.00">BVSModOpGenericAdaptorBase</text>
</a>
</g>
</g>
<!-- Node1 -->
<g id="Node000001" class="node">
<title>Node1</title>
<g id="a_Node000001"><a xlink:href="classllzk_1_1smt_1_1BVSModOpGenericAdaptor.html" target="_top" xlink:title=" ">
<polygon fill="white" stroke="#666666" points="365,-149.88 209.5,-149.88 209.5,-103.62 365,-103.62 365,-149.88"/>
<text text-anchor="start" x="217.5" y="-136.38" font-family="Helvetica,sans-Serif" font-size="10.00">llzk::smt::BVSModOpGeneric</text>
<text text-anchor="start" x="217.5" y="-123.62" font-family="Helvetica,sans-Serif" font-size="10.00">Adaptor&lt;::llvm::ArrayRef</text>
<text text-anchor="middle" x="287.25" y="-110.88" font-family="Helvetica,sans-Serif" font-size="10.00">&lt;::mlir::Attribute &gt; &gt;</text>
</a>
</g>
</g>
<!-- Node0&#45;&gt;Node1 -->
<g id="edge429_Node000000_Node000001" class="edge">
<title>Node0&#45;&gt;Node1</title>
<g id="a_edge429_Node000000_Node000001"><a xlink:title=" ">
<path fill="none" stroke="#63b8ff" d="M156.44,-89.17C173.46,-94.1 191.75,-99.4 209.06,-104.41"/>
<polygon fill="#63b8ff" stroke="#63b8ff" points="157.48,-85.83 146.91,-86.42 155.54,-92.56 157.48,-85.83"/>
</a>
</g>
</g>
<!-- Node2 -->
<g id="Node000002" class="node">
<title>Node2</title>
<g id="a_Node000002"><a xlink:href="classllzk_1_1smt_1_1BVSModOpGenericAdaptor.html" target="_top" xlink:title=" ">
<polygon fill="white" stroke="#666666" points="368.75,-85.5 205.75,-85.5 205.75,-52 368.75,-52 368.75,-85.5"/>
<text text-anchor="start" x="213.75" y="-72" font-family="Helvetica,sans-Serif" font-size="10.00">llzk::smt::BVSModOpGeneric</text>
<text text-anchor="middle" x="287.25" y="-59.25" font-family="Helvetica,sans-Serif" font-size="10.00">Adaptor&lt;::mlir::ValueRange &gt;</text>
</a>
</g>
</g>
<!-- Node0&#45;&gt;Node2 -->
<g id="edge430_Node000000_Node000002" class="edge">
<title>Node0&#45;&gt;Node2</title>
<g id="a_edge430_Node000000_Node000002"><a xlink:title=" ">
<path fill="none" stroke="#63b8ff" d="M181.37,-68.75C189.47,-68.75 197.6,-68.75 205.56,-68.75"/>
<polygon fill="#63b8ff" stroke="#63b8ff" points="181.49,-65.25 171.49,-68.75 181.49,-72.25 181.49,-65.25"/>
</a>
</g>
</g>
<!-- Node4 -->
<g id="Node000004" class="node">
<title>Node4</title>
<g id="a_Node000004"><a xlink:href="classllzk_1_1smt_1_1BVSModOpGenericAdaptor.html" target="_top" xlink:title=" ">
<polygon fill="white" stroke="#666666" points="365,-33.5 209.5,-33.5 209.5,0 365,0 365,-33.5"/>
<text text-anchor="start" x="217.5" y="-20" font-family="Helvetica,sans-Serif" font-size="10.00">llzk::smt::BVSModOpGeneric</text>
<text text-anchor="middle" x="287.25" y="-7.25" font-family="Helvetica,sans-Serif" font-size="10.00">Adaptor&lt; RangeT &gt;</text>
</a>
</g>
</g>
<!-- Node0&#45;&gt;Node4 -->
<g id="edge432_Node000000_Node000004" class="edge">
<title>Node0&#45;&gt;Node4</title>
<g id="a_edge432_Node000000_Node000004"><a xlink:title=" ">
<path fill="none" stroke="#63b8ff" d="M163.2,-48.68C181.94,-43.82 201.81,-38.66 219.99,-33.95"/>
<polygon fill="#63b8ff" stroke="#63b8ff" points="162.58,-45.23 153.78,-51.13 164.34,-52 162.58,-45.23"/>
</a>
</g>
</g>
<!-- Node3 -->
<g id="Node000003" class="node">
<title>Node3</title>
<g id="a_Node000003"><a xlink:href="classllzk_1_1smt_1_1BVSModOpAdaptor.html" target="_top" xlink:title=" ">
<polygon fill="white" stroke="#666666" points="561,-79.12 404.75,-79.12 404.75,-58.38 561,-58.38 561,-79.12"/>
<text text-anchor="middle" x="482.88" y="-65.62" font-family="Helvetica,sans-Serif" font-size="10.00">llzk::smt::BVSModOpAdaptor</text>
</a>
</g>
</g>
<!-- Node2&#45;&gt;Node3 -->
<g id="edge431_Node000002_Node000003" class="edge">
<title>Node2&#45;&gt;Node3</title>
<g id="a_edge431_Node000002_Node000003"><a xlink:title=" ">
<path fill="none" stroke="#63b8ff" d="M380.74,-68.75C388.63,-68.75 396.55,-68.75 404.31,-68.75"/>
<polygon fill="#63b8ff" stroke="#63b8ff" points="380.76,-65.25 370.76,-68.75 380.76,-72.25 380.76,-65.25"/>
</a>
</g>
</g>
</g>
</svg>
