<?xml version="1.0" encoding="UTF-8" standalone="no"?>
<!DOCTYPE svg PUBLIC "-//W3C//DTD SVG 1.1//EN"
 "http://www.w3.org/Graphics/SVG/1.1/DTD/svg11.dtd">
<!-- Generated by graphviz version 12.2.1 (0)
 -->
<!-- Title: Graphical Class Hierarchy Pages: 1 -->
<svg width="794pt" height="210pt"
 viewBox="0.00 0.00 794.25 209.50" xmlns="http://www.w3.org/2000/svg" xmlns:xlink="http://www.w3.org/1999/xlink">
<g id="graph0" class="graph" transform="scale(1 1) rotate(0) translate(4 205.5)">
<title>Graphical Class Hierarchy</title>
<!-- Node0 -->
<g id="Node000000" class="node">
<title>Node0</title>
<g id="a_Node000000"><a xlink:title=" ">
<polygon fill="#e0e0e0" stroke="#999999" points="129.25,-108.12 0,-108.12 0,-87.38 129.25,-87.38 129.25,-108.12"/>
<text text-anchor="middle" x="64.62" y="-94.62" font-family="Helvetica,sans-Serif" font-size="10.00">mlir::DataFlowAnalysis</text>
</a>
</g>
</g>
<!-- Node1 -->
<g id="Node000001" class="node">
<title>Node1</title>
<g id="a_Node000001"><a xlink:href="classllzk_1_1dataflow_1_1AbstractSparseForwardDataFlowAnalysis.html" target="_top" xlink:title="LLZK: This class has been ported from the MLIR DenseAnalysis utilities to allow for the use of custom...">
<polygon fill="white" stroke="#666666" points="341,-114.5 165.25,-114.5 165.25,-81 341,-81 341,-114.5"/>
<text text-anchor="start" x="173.25" y="-101" font-family="Helvetica,sans-Serif" font-size="10.00">llzk::dataflow::Abstract</text>
<text text-anchor="middle" x="253.12" y="-88.25" font-family="Helvetica,sans-Serif" font-size="10.00">SparseForwardDataFlowAnalysis</text>
</a>
</g>
</g>
<!-- Node0&#45;&gt;Node1 -->
<g id="edge628_Node000000_Node000001" class="edge">
<title>Node0&#45;&gt;Node1</title>
<g id="a_edge628_Node000000_Node000001"><a xlink:title=" ">
<path fill="none" stroke="#63b8ff" d="M140.94,-97.75C148.82,-97.75 156.88,-97.75 164.88,-97.75"/>
<polygon fill="#63b8ff" stroke="#63b8ff" points="141.06,-94.25 131.06,-97.75 141.06,-101.25 141.06,-94.25"/>
</a>
</g>
</g>
<!-- Node2 -->
<g id="Node000002" class="node">
<title>Node2</title>
<g id="a_Node000002"><a xlink:href="classllzk_1_1dataflow_1_1SparseForwardDataFlowAnalysis.html" target="_top" xlink:title=" ">
<polygon fill="white" stroke="#666666" points="561,-201.5 401.75,-201.5 401.75,-168 561,-168 561,-201.5"/>
<text text-anchor="start" x="409.75" y="-188" font-family="Helvetica,sans-Serif" font-size="10.00">llzk::dataflow::SparseForward</text>
<text text-anchor="middle" x="481.38" y="-175.25" font-family="Helvetica,sans-Serif" font-size="10.00">DataFlowAnalysis&lt; Lattice &gt;</text>
</a>
</g>
</g>
<!-- Node1&#45;&gt;Node2 -->
<g id="edge629_Node000001_Node000002" class="edge">
<title>Node1&#45;&gt;Node2</title>
<g id="a_edge629_Node000001_Node000002"><a xlink:title=" ">
<path fill="none" stroke="#63b8ff" d="M294.09,-120.32C317.66,-132.93 348.39,-148.19 377,-158.75 385.68,-161.95 394.91,-164.9 404.15,-167.56"/>
<polygon fill="#63b8ff" stroke="#63b8ff" points="295.91,-117.33 285.45,-115.64 292.57,-123.48 295.91,-117.33"/>
</a>
</g>
</g>
<!-- Node3 -->
<g id="Node000003" class="node">
<title>Node3</title>
<g id="a_Node000003"><a xlink:href="classllzk_1_1dataflow_1_1SparseForwardDataFlowAnalysis.html" target="_top" xlink:title=" ">
<polygon fill="white" stroke="#666666" points="578.25,-149.88 384.5,-149.88 384.5,-103.62 578.25,-103.62 578.25,-149.88"/>
<text text-anchor="start" x="392.5" y="-136.38" font-family="Helvetica,sans-Serif" font-size="10.00">llzk::dataflow::SparseForward</text>
<text text-anchor="start" x="392.5" y="-123.62" font-family="Helvetica,sans-Serif" font-size="10.00">DataFlowAnalysis&lt; IntervalAnalysis</text>
<text text-anchor="middle" x="481.38" y="-110.88" font-family="Helvetica,sans-Serif" font-size="10.00">Lattice &gt;</text>
</a>
</g>
</g>
<!-- Node1&#45;&gt;Node3 -->
<g id="edge630_Node000001_Node000003" class="edge">
<title>Node1&#45;&gt;Node3</title>
<g id="a_edge630_Node000001_Node000003"><a xlink:title=" ">
<path fill="none" stroke="#63b8ff" d="M352.59,-110.37C363.09,-111.72 373.76,-113.08 384.24,-114.43"/>
<polygon fill="#63b8ff" stroke="#63b8ff" points="353.14,-106.91 342.78,-109.11 352.25,-113.86 353.14,-106.91"/>
</a>
</g>
</g>
<!-- Node5 -->
<g id="Node000005" class="node">
<title>Node5</title>
<g id="a_Node000005"><a xlink:href="classllzk_1_1dataflow_1_1SparseForwardDataFlowAnalysis.html" target="_top" xlink:title=" ">
<polygon fill="white" stroke="#666666" points="585.75,-85.5 377,-85.5 377,-52 585.75,-52 585.75,-85.5"/>
<text text-anchor="start" x="385" y="-72" font-family="Helvetica,sans-Serif" font-size="10.00">llzk::dataflow::SparseForward</text>
<text text-anchor="middle" x="481.38" y="-59.25" font-family="Helvetica,sans-Serif" font-size="10.00">DataFlowAnalysis&lt; SourceRefLattice &gt;</text>
</a>
</g>
</g>
<!-- Node1&#45;&gt;Node5 -->
<g id="edge632_Node000001_Node000005" class="edge">
<title>Node1&#45;&gt;Node5</title>
<g id="a_edge632_Node000001_Node000005"><a xlink:title=" ">
<path fill="none" stroke="#63b8ff" d="M352.5,-85.14C360.5,-84.12 368.6,-83.08 376.64,-82.05"/>
<polygon fill="#63b8ff" stroke="#63b8ff" points="352.25,-81.64 342.78,-86.39 353.14,-88.59 352.25,-81.64"/>
</a>
</g>
</g>
<!-- Node7 -->
<g id="Node000007" class="node">
<title>Node7</title>
<g id="a_Node000007"><a xlink:href="classllzk_1_1dataflow_1_1SparseForwardDataFlowAnalysis.html" target="_top" xlink:title="A sparse forward data&#45;flow analysis for propagating SSA value lattices across the IR by implementing ...">
<polygon fill="white" stroke="#666666" points="560.62,-33.5 402.12,-33.5 402.12,0 560.62,0 560.62,-33.5"/>
<text text-anchor="start" x="410.12" y="-20" font-family="Helvetica,sans-Serif" font-size="10.00">llzk::dataflow::SparseForward</text>
<text text-anchor="middle" x="481.38" y="-7.25" font-family="Helvetica,sans-Serif" font-size="10.00">DataFlowAnalysis&lt; StateT &gt;</text>
</a>
</g>
</g>
<!-- Node1&#45;&gt;Node7 -->
<g id="edge634_Node000001_Node000007" class="edge">
<title>Node1&#45;&gt;Node7</title>
<g id="a_edge634_Node000001_Node000007"><a xlink:title=" ">
<path fill="none" stroke="#63b8ff" d="M298.32,-75.72C321.38,-64.8 350.29,-52.01 377,-42.75 386.09,-39.6 395.76,-36.65 405.38,-33.96"/>
<polygon fill="#63b8ff" stroke="#63b8ff" points="297.04,-72.45 289.53,-79.93 300.06,-78.76 297.04,-72.45"/>
</a>
</g>
</g>
<!-- Node4 -->
<g id="Node000004" class="node">
<title>Node4</title>
<g id="a_Node000004"><a xlink:href="classllzk_1_1IntervalDataFlowAnalysis.html" target="_top" xlink:title=" ">
<polygon fill="white" stroke="#666666" points="786.25,-137.12 621.75,-137.12 621.75,-116.38 786.25,-116.38 786.25,-137.12"/>
<text text-anchor="middle" x="704" y="-123.62" font-family="Helvetica,sans-Serif" font-size="10.00">llzk::IntervalDataFlowAnalysis</text>
</a>
</g>
</g>
<!-- Node3&#45;&gt;Node4 -->
<g id="edge631_Node000003_Node000004" class="edge">
<title>Node3&#45;&gt;Node4</title>
<g id="a_edge631_Node000003_Node000004"><a xlink:title=" ">
<path fill="none" stroke="#63b8ff" d="M589.93,-126.75C600.5,-126.75 611.1,-126.75 621.34,-126.75"/>
<polygon fill="#63b8ff" stroke="#63b8ff" points="590.02,-123.25 580.02,-126.75 590.02,-130.25 590.02,-123.25"/>
</a>
</g>
</g>
<!-- Node6 -->
<g id="Node000006" class="node">
<title>Node6</title>
<g id="a_Node000006"><a xlink:href="classllzk_1_1SourceRefAnalysis.html" target="_top" xlink:title="The dataflow analysis that computes the set of references that LLZK operations use and produce.">
<polygon fill="white" stroke="#666666" points="769,-79.12 639,-79.12 639,-58.38 769,-58.38 769,-79.12"/>
<text text-anchor="middle" x="704" y="-65.62" font-family="Helvetica,sans-Serif" font-size="10.00">llzk::SourceRefAnalysis</text>
</a>
</g>
</g>
<!-- Node5&#45;&gt;Node6 -->
<g id="edge633_Node000005_Node000006" class="edge">
<title>Node5&#45;&gt;Node6</title>
<g id="a_edge633_Node000005_Node000006"><a xlink:title=" ">
<path fill="none" stroke="#63b8ff" d="M597.56,-68.75C611.68,-68.75 625.69,-68.75 638.67,-68.75"/>
<polygon fill="#63b8ff" stroke="#63b8ff" points="597.74,-65.25 587.74,-68.75 597.74,-72.25 597.74,-65.25"/>
</a>
</g>
</g>
</g>
</svg>
