<?xml version="1.0" encoding="UTF-8" standalone="no"?>
<!DOCTYPE svg PUBLIC "-//W3C//DTD SVG 1.1//EN"
 "http://www.w3.org/Graphics/SVG/1.1/DTD/svg11.dtd">
<!-- Generated by graphviz version 12.2.1 (0)
 -->
<!-- Title: Graphical Class Hierarchy Pages: 1 -->
<svg width="372pt" height="107pt"
 viewBox="0.00 0.00 371.50 106.75" xmlns="http://www.w3.org/2000/svg" xmlns:xlink="http://www.w3.org/1999/xlink">
<g id="graph0" class="graph" transform="scale(1 1) rotate(0) translate(4 102.75)">
<title>Graphical Class Hierarchy</title>
<!-- Node0 -->
<g id="Node000000" class="node">
<title>Node0</title>
<g id="a_Node000000"><a xlink:title=" ">
<polygon fill="#e0e0e0" stroke="#999999" points="158.5,-66.12 0,-66.12 0,-32.62 158.5,-32.62 158.5,-66.12"/>
<text text-anchor="start" x="8" y="-52.62" font-family="Helvetica,sans-Serif" font-size="10.00">mlir::dataflow::DenseForward</text>
<text text-anchor="middle" x="79.25" y="-39.88" font-family="Helvetica,sans-Serif" font-size="10.00">DataFlowAnalysis</text>
</a>
</g>
</g>
<!-- Node1 -->
<g id="Node000001" class="node">
<title>Node1</title>
<g id="a_Node000001"><a xlink:href="classllzk_1_1MemberOverwriteAnalysis.html" target="_top" xlink:title=" ">
<polygon fill="white" stroke="#666666" points="363.5,-98.75 194.5,-98.75 194.5,-78 363.5,-78 363.5,-98.75"/>
<text text-anchor="middle" x="279" y="-85.25" font-family="Helvetica,sans-Serif" font-size="10.00">llzk::MemberOverwriteAnalysis</text>
</a>
</g>
</g>
<!-- Node0&#45;&gt;Node1 -->
<g id="edge311_Node000000_Node000001" class="edge">
<title>Node0&#45;&gt;Node1</title>
<g id="a_edge311_Node000000_Node000001"><a xlink:title=" ">
<path fill="none" stroke="#63b8ff" d="M170.12,-67.1C188.14,-70.65 206.57,-74.29 222.97,-77.52"/>
<polygon fill="#63b8ff" stroke="#63b8ff" points="170.95,-63.69 160.46,-65.19 169.59,-70.56 170.95,-63.69"/>
</a>
</g>
</g>
<!-- Node2 -->
<g id="Node000002" class="node">
<title>Node2</title>
<g id="a_Node000002"><a xlink:href="classllzk_1_1PredecessorAnalysis.html" target="_top" xlink:title=" ">
<polygon fill="white" stroke="#666666" points="348.88,-59.75 209.12,-59.75 209.12,-39 348.88,-39 348.88,-59.75"/>
<text text-anchor="middle" x="279" y="-46.25" font-family="Helvetica,sans-Serif" font-size="10.00">llzk::PredecessorAnalysis</text>
</a>
</g>
</g>
<!-- Node0&#45;&gt;Node2 -->
<g id="edge312_Node000000_Node000002" class="edge">
<title>Node0&#45;&gt;Node2</title>
<g id="a_edge312_Node000000_Node000002"><a xlink:title=" ">
<path fill="none" stroke="#63b8ff" d="M170.27,-49.38C183.21,-49.38 196.36,-49.38 208.81,-49.38"/>
<polygon fill="#63b8ff" stroke="#63b8ff" points="170.49,-45.88 160.49,-49.38 170.49,-52.88 170.49,-45.88"/>
</a>
</g>
</g>
<!-- Node3 -->
<g id="Node000003" class="node">
<title>Node3</title>
<g id="a_Node000003"><a xlink:href="classllzk_1_1SourceRefAnalysis.html" target="_top" xlink:title="The dataflow analysis that computes the set of references that LLZK operations use and produce.">
<polygon fill="white" stroke="#666666" points="344,-20.75 214,-20.75 214,0 344,0 344,-20.75"/>
<text text-anchor="middle" x="279" y="-7.25" font-family="Helvetica,sans-Serif" font-size="10.00">llzk::SourceRefAnalysis</text>
</a>
</g>
</g>
<!-- Node0&#45;&gt;Node3 -->
<g id="edge313_Node000000_Node000003" class="edge">
<title>Node0&#45;&gt;Node3</title>
<g id="a_edge313_Node000000_Node000003"><a xlink:title=" ">
<path fill="none" stroke="#63b8ff" d="M170.12,-31.65C188.14,-28.1 206.57,-24.46 222.97,-21.23"/>
<polygon fill="#63b8ff" stroke="#63b8ff" points="169.59,-28.19 160.46,-33.56 170.95,-35.06 169.59,-28.19"/>
</a>
</g>
</g>
</g>
</svg>
