<?xml version="1.0" encoding="UTF-8" standalone="no"?>
<!DOCTYPE svg PUBLIC "-//W3C//DTD SVG 1.1//EN"
 "http://www.w3.org/Graphics/SVG/1.1/DTD/svg11.dtd">
<!-- Generated by graphviz version 12.2.1 (0)
 -->
<!-- Title: Graphical Class Hierarchy Pages: 1 -->
<svg width="345pt" height="1334pt"
 viewBox="0.00 0.00 345.25 1334.25" xmlns="http://www.w3.org/2000/svg" xmlns:xlink="http://www.w3.org/1999/xlink">
<g id="graph0" class="graph" transform="scale(1 1) rotate(0) translate(4 1330.25)">
<title>Graphical Class Hierarchy</title>
<!-- Node0 -->
<g id="Node000000" class="node">
<title>Node0</title>
<g id="a_Node000000"><a xlink:title=" ">
<polygon fill="#e0e0e0" stroke="#999999" points="111.25,-697.5 0,-697.5 0,-676.75 111.25,-676.75 111.25,-697.5"/>
<text text-anchor="middle" x="55.62" y="-684" font-family="Helvetica,sans-Serif" font-size="10.00">mlir::OperationPass</text>
</a>
</g>
</g>
<!-- Node1 -->
<g id="Node000001" class="node">
<title>Node1</title>
<g id="a_Node000001"><a xlink:href="classllzk_1_1array_1_1impl_1_1ArrayToScalarPassBase.html" target="_top" xlink:title=" ">
<polygon fill="white" stroke="#666666" points="306.5,-1326.25 178,-1326.25 178,-1280 306.5,-1280 306.5,-1326.25"/>
<text text-anchor="start" x="186" y="-1312.75" font-family="Helvetica,sans-Serif" font-size="10.00">llzk::array::impl::</text>
<text text-anchor="start" x="186" y="-1300" font-family="Helvetica,sans-Serif" font-size="10.00">ArrayToScalarPassBase</text>
<text text-anchor="middle" x="242.25" y="-1287.25" font-family="Helvetica,sans-Serif" font-size="10.00">&lt; DerivedT &gt;</text>
</a>
</g>
</g>
<!-- Node0&#45;&gt;Node1 -->
<g id="edge846_Node000000_Node000001" class="edge">
<title>Node0&#45;&gt;Node1</title>
<g id="a_edge846_Node000000_Node000001"><a xlink:title=" ">
<path fill="none" stroke="#63b8ff" d="M57.08,-709.06C59.49,-804.58 73.62,-1183.41 147.25,-1271.12 155.23,-1280.63 166.16,-1287.32 177.74,-1292.03"/>
<polygon fill="#63b8ff" stroke="#63b8ff" points="60.58,-709.17 56.85,-699.25 53.59,-709.33 60.58,-709.17"/>
</a>
</g>
</g>
<!-- Node2 -->
<g id="Node000002" class="node">
<title>Node2</title>
<g id="a_Node000002"><a xlink:href="classllzk_1_1component_1_1impl_1_1InlineStructsPassBase.html" target="_top" xlink:title=" ">
<polygon fill="white" stroke="#666666" points="306.5,-1262.25 178,-1262.25 178,-1216 306.5,-1216 306.5,-1262.25"/>
<text text-anchor="start" x="186" y="-1248.75" font-family="Helvetica,sans-Serif" font-size="10.00">llzk::component::impl</text>
<text text-anchor="start" x="186" y="-1236" font-family="Helvetica,sans-Serif" font-size="10.00">::InlineStructsPassBase</text>
<text text-anchor="middle" x="242.25" y="-1223.25" font-family="Helvetica,sans-Serif" font-size="10.00">&lt; DerivedT &gt;</text>
</a>
</g>
</g>
<!-- Node0&#45;&gt;Node2 -->
<g id="edge847_Node000000_Node000002" class="edge">
<title>Node0&#45;&gt;Node2</title>
<g id="a_edge847_Node000000_Node000002"><a xlink:title=" ">
<path fill="none" stroke="#63b8ff" d="M57.55,-709.16C61.69,-798.18 81.39,-1130.13 147.25,-1207.12 155.32,-1216.56 166.28,-1223.22 177.88,-1227.91"/>
<polygon fill="#63b8ff" stroke="#63b8ff" points="61.05,-709.2 57.11,-699.36 54.06,-709.51 61.05,-709.2"/>
</a>
</g>
</g>
<!-- Node3 -->
<g id="Node000003" class="node">
<title>Node3</title>
<g id="a_Node000003"><a xlink:href="classllzk_1_1impl_1_1CallGraphPrinterPassBase.html" target="_top" xlink:title=" ">
<polygon fill="white" stroke="#666666" points="315.88,-1197.88 168.62,-1197.88 168.62,-1164.38 315.88,-1164.38 315.88,-1197.88"/>
<text text-anchor="start" x="176.62" y="-1184.38" font-family="Helvetica,sans-Serif" font-size="10.00">llzk::impl::CallGraphPrinter</text>
<text text-anchor="middle" x="242.25" y="-1171.62" font-family="Helvetica,sans-Serif" font-size="10.00">PassBase&lt; DerivedT &gt;</text>
</a>
</g>
</g>
<!-- Node0&#45;&gt;Node3 -->
<g id="edge848_Node000000_Node000003" class="edge">
<title>Node0&#45;&gt;Node3</title>
<g id="a_edge848_Node000000_Node000003"><a xlink:title=" ">
<path fill="none" stroke="#63b8ff" d="M57.87,-708.89C63.05,-792.06 85.6,-1088.43 147.25,-1155.12 153.11,-1161.47 160.37,-1166.31 168.23,-1170.01"/>
<polygon fill="#63b8ff" stroke="#63b8ff" points="61.37,-708.92 57.28,-699.15 54.39,-709.34 61.37,-708.92"/>
</a>
</g>
</g>
<!-- Node4 -->
<g id="Node000004" class="node">
<title>Node4</title>
<g id="a_Node000004"><a xlink:href="classllzk_1_1impl_1_1CallGraphSCCsPrinterPassBase.html" target="_top" xlink:title=" ">
<polygon fill="white" stroke="#666666" points="322.62,-1145.88 161.88,-1145.88 161.88,-1112.38 322.62,-1112.38 322.62,-1145.88"/>
<text text-anchor="start" x="169.88" y="-1132.38" font-family="Helvetica,sans-Serif" font-size="10.00">llzk::impl::CallGraphSCCs</text>
<text text-anchor="middle" x="242.25" y="-1119.62" font-family="Helvetica,sans-Serif" font-size="10.00">PrinterPassBase&lt; DerivedT &gt;</text>
</a>
</g>
</g>
<!-- Node0&#45;&gt;Node4 -->
<g id="edge849_Node000000_Node000004" class="edge">
<title>Node0&#45;&gt;Node4</title>
<g id="a_edge849_Node000000_Node000004"><a xlink:title=" ">
<path fill="none" stroke="#63b8ff" d="M58.46,-709.17C65.36,-786.65 92.15,-1044.89 147.25,-1103.12 151.44,-1107.55 156.31,-1111.25 161.59,-1114.33"/>
<polygon fill="#63b8ff" stroke="#63b8ff" points="61.97,-709.15 57.63,-699.49 55,-709.75 61.97,-709.15"/>
</a>
</g>
</g>
<!-- Node5 -->
<g id="Node000005" class="node">
<title>Node5</title>
<g id="a_Node000005"><a xlink:href="classllzk_1_1impl_1_1ComputeConstrainToProductPassBase.html" target="_top" xlink:title=" ">
<polygon fill="white" stroke="#666666" points="330.12,-1093.88 154.38,-1093.88 154.38,-1060.38 330.12,-1060.38 330.12,-1093.88"/>
<text text-anchor="start" x="162.38" y="-1080.38" font-family="Helvetica,sans-Serif" font-size="10.00">llzk::impl::ComputeConstrain</text>
<text text-anchor="middle" x="242.25" y="-1067.62" font-family="Helvetica,sans-Serif" font-size="10.00">ToProductPassBase&lt; DerivedT &gt;</text>
</a>
</g>
</g>
<!-- Node0&#45;&gt;Node5 -->
<g id="edge850_Node000000_Node000005" class="edge">
<title>Node0&#45;&gt;Node5</title>
<g id="a_edge850_Node000000_Node000005"><a xlink:title=" ">
<path fill="none" stroke="#63b8ff" d="M59.19,-709.1C67.92,-780.04 98.58,-1001.18 147.25,-1051.12 150.56,-1054.52 154.27,-1057.48 158.25,-1060.07"/>
<polygon fill="#63b8ff" stroke="#63b8ff" points="62.67,-708.7 58,-699.18 55.72,-709.53 62.67,-708.7"/>
</a>
</g>
</g>
<!-- Node6 -->
<g id="Node000006" class="node">
<title>Node6</title>
<g id="a_Node000006"><a xlink:href="classllzk_1_1impl_1_1ConstraintDependencyGraphPrinterPassBase.html" target="_top" xlink:title=" ">
<polygon fill="white" stroke="#666666" points="337.25,-1041.88 147.25,-1041.88 147.25,-1008.38 337.25,-1008.38 337.25,-1041.88"/>
<text text-anchor="start" x="155.25" y="-1028.38" font-family="Helvetica,sans-Serif" font-size="10.00">llzk::impl::ConstraintDependency</text>
<text text-anchor="middle" x="242.25" y="-1015.62" font-family="Helvetica,sans-Serif" font-size="10.00">GraphPrinterPassBase&lt; DerivedT &gt;</text>
</a>
</g>
</g>
<!-- Node0&#45;&gt;Node6 -->
<g id="edge851_Node000000_Node000006" class="edge">
<title>Node0&#45;&gt;Node6</title>
<g id="a_edge851_Node000000_Node000006"><a xlink:title=" ">
<path fill="none" stroke="#63b8ff" d="M56.18,-709.26C56.31,-765.96 64.77,-917.69 147.25,-999.12 150.62,-1002.46 154.38,-1005.37 158.41,-1007.92"/>
<polygon fill="#63b8ff" stroke="#63b8ff" points="59.68,-709.36 56.26,-699.33 52.68,-709.3 59.68,-709.36"/>
</a>
</g>
</g>
<!-- Node7 -->
<g id="Node000007" class="node">
<title>Node7</title>
<g id="a_Node000007"><a xlink:href="classllzk_1_1impl_1_1EnforceNoMemberOverwritePassBase.html" target="_top" xlink:title=" ">
<polygon fill="white" stroke="#666666" points="330.5,-989.88 154,-989.88 154,-956.38 330.5,-956.38 330.5,-989.88"/>
<text text-anchor="start" x="162" y="-976.38" font-family="Helvetica,sans-Serif" font-size="10.00">llzk::impl::EnforceNoMember</text>
<text text-anchor="middle" x="242.25" y="-963.62" font-family="Helvetica,sans-Serif" font-size="10.00">OverwritePassBase&lt; DerivedT &gt;</text>
</a>
</g>
</g>
<!-- Node0&#45;&gt;Node7 -->
<g id="edge852_Node000000_Node000007" class="edge">
<title>Node0&#45;&gt;Node7</title>
<g id="a_edge852_Node000000_Node000007"><a xlink:title=" ">
<path fill="none" stroke="#63b8ff" d="M57.69,-709.22C61.32,-759.18 77.28,-881.6 147.25,-947.12 150.83,-950.48 154.81,-953.41 159.05,-955.97"/>
<polygon fill="#63b8ff" stroke="#63b8ff" points="61.19,-709.18 57.09,-699.41 54.21,-709.61 61.19,-709.18"/>
</a>
</g>
</g>
<!-- Node8 -->
<g id="Node000008" class="node">
<title>Node8</title>
<g id="a_Node000008"><a xlink:href="classllzk_1_1impl_1_1FuseProductLoopsPassBase.html" target="_top" xlink:title=" ">
<polygon fill="white" stroke="#666666" points="319.62,-937.88 164.88,-937.88 164.88,-904.38 319.62,-904.38 319.62,-937.88"/>
<text text-anchor="start" x="172.88" y="-924.38" font-family="Helvetica,sans-Serif" font-size="10.00">llzk::impl::FuseProductLoops</text>
<text text-anchor="middle" x="242.25" y="-911.62" font-family="Helvetica,sans-Serif" font-size="10.00">PassBase&lt; DerivedT &gt;</text>
</a>
</g>
</g>
<!-- Node0&#45;&gt;Node8 -->
<g id="edge853_Node000000_Node000008" class="edge">
<title>Node0&#45;&gt;Node8</title>
<g id="a_edge853_Node000000_Node000008"><a xlink:title=" ">
<path fill="none" stroke="#63b8ff" d="M59.8,-708.77C67.17,-751.07 89.44,-844.94 147.25,-895.12 152.49,-899.68 158.47,-903.44 164.8,-906.54"/>
<polygon fill="#63b8ff" stroke="#63b8ff" points="63.29,-708.43 58.24,-699.12 56.38,-709.55 63.29,-708.43"/>
</a>
</g>
</g>
<!-- Node9 -->
<g id="Node000009" class="node">
<title>Node9</title>
<g id="a_Node000009"><a xlink:href="classllzk_1_1impl_1_1IntervalAnalysisPrinterPassBase.html" target="_top" xlink:title=" ">
<polygon fill="white" stroke="#666666" points="322.62,-885.88 161.88,-885.88 161.88,-852.38 322.62,-852.38 322.62,-885.88"/>
<text text-anchor="start" x="169.88" y="-872.38" font-family="Helvetica,sans-Serif" font-size="10.00">llzk::impl::IntervalAnalysis</text>
<text text-anchor="middle" x="242.25" y="-859.62" font-family="Helvetica,sans-Serif" font-size="10.00">PrinterPassBase&lt; DerivedT &gt;</text>
</a>
</g>
</g>
<!-- Node0&#45;&gt;Node9 -->
<g id="edge854_Node000000_Node000009" class="edge">
<title>Node0&#45;&gt;Node9</title>
<g id="a_edge854_Node000000_Node000009"><a xlink:title=" ">
<path fill="none" stroke="#63b8ff" d="M63.2,-708.65C74.66,-742.48 101.53,-807.85 147.25,-843.12 151.67,-846.54 156.52,-849.5 161.6,-852.08"/>
<polygon fill="#63b8ff" stroke="#63b8ff" points="66.54,-707.61 60.14,-699.17 59.88,-709.76 66.54,-707.61"/>
</a>
</g>
</g>
<!-- Node10 -->
<g id="Node000010" class="node">
<title>Node10</title>
<g id="a_Node000010"><a xlink:href="classllzk_1_1impl_1_1MemberWriteValidatorPassBase.html" target="_top" xlink:title=" ">
<polygon fill="white" stroke="#666666" points="330.88,-833.88 153.62,-833.88 153.62,-800.38 330.88,-800.38 330.88,-833.88"/>
<text text-anchor="start" x="161.62" y="-820.38" font-family="Helvetica,sans-Serif" font-size="10.00">llzk::impl::MemberWriteValidator</text>
<text text-anchor="middle" x="242.25" y="-807.62" font-family="Helvetica,sans-Serif" font-size="10.00">PassBase&lt; DerivedT &gt;</text>
</a>
</g>
</g>
<!-- Node0&#45;&gt;Node10 -->
<g id="edge855_Node000000_Node000010" class="edge">
<title>Node0&#45;&gt;Node10</title>
<g id="a_edge855_Node000000_Node000010"><a xlink:title=" ">
<path fill="none" stroke="#63b8ff" d="M69.02,-707.48C84.44,-731.1 112.98,-769.55 147.25,-791.12 152.55,-794.46 158.28,-797.38 164.21,-799.93"/>
<polygon fill="#63b8ff" stroke="#63b8ff" points="71.99,-705.64 63.69,-699.07 66.08,-709.39 71.99,-705.64"/>
</a>
</g>
</g>
<!-- Node11 -->
<g id="Node000011" class="node">
<title>Node11</title>
<g id="a_Node000011"><a xlink:href="classllzk_1_1impl_1_1PolyLoweringPassBase.html" target="_top" xlink:title=" ">
<polygon fill="white" stroke="#666666" points="308.38,-781.88 176.12,-781.88 176.12,-748.38 308.38,-748.38 308.38,-781.88"/>
<text text-anchor="start" x="184.12" y="-768.38" font-family="Helvetica,sans-Serif" font-size="10.00">llzk::impl::PolyLowering</text>
<text text-anchor="middle" x="242.25" y="-755.62" font-family="Helvetica,sans-Serif" font-size="10.00">PassBase&lt; DerivedT &gt;</text>
</a>
</g>
</g>
<!-- Node0&#45;&gt;Node11 -->
<g id="edge856_Node000000_Node000011" class="edge">
<title>Node0&#45;&gt;Node11</title>
<g id="a_edge856_Node000000_Node000011"><a xlink:title=" ">
<path fill="none" stroke="#63b8ff" d="M81.94,-703.96C99.64,-715.14 124.16,-729.49 147.25,-739.12 156.31,-742.91 166.09,-746.31 175.8,-749.31"/>
<polygon fill="#63b8ff" stroke="#63b8ff" points="83.94,-701.08 73.64,-698.61 80.16,-706.97 83.94,-701.08"/>
</a>
</g>
</g>
<!-- Node12 -->
<g id="Node000012" class="node">
<title>Node12</title>
<g id="a_Node000012"><a xlink:href="classllzk_1_1impl_1_1PredecessorPrinterPassBase.html" target="_top" xlink:title=" ">
<polygon fill="white" stroke="#666666" points="321.5,-729.88 163,-729.88 163,-696.38 321.5,-696.38 321.5,-729.88"/>
<text text-anchor="start" x="171" y="-716.38" font-family="Helvetica,sans-Serif" font-size="10.00">llzk::impl::PredecessorPrinter</text>
<text text-anchor="middle" x="242.25" y="-703.62" font-family="Helvetica,sans-Serif" font-size="10.00">PassBase&lt; DerivedT &gt;</text>
</a>
</g>
</g>
<!-- Node0&#45;&gt;Node12 -->
<g id="edge857_Node000000_Node000012" class="edge">
<title>Node0&#45;&gt;Node12</title>
<g id="a_edge857_Node000000_Node000012"><a xlink:title=" ">
<path fill="none" stroke="#63b8ff" d="M122.68,-696.43C135.63,-698.25 149.34,-700.18 162.65,-702.06"/>
<polygon fill="#63b8ff" stroke="#63b8ff" points="123.41,-693 113.02,-695.07 122.43,-699.93 123.41,-693"/>
</a>
</g>
</g>
<!-- Node13 -->
<g id="Node000013" class="node">
<title>Node13</title>
<g id="a_Node000013"><a xlink:href="classllzk_1_1impl_1_1RedundantOperationEliminationPassBase.html" target="_top" xlink:title=" ">
<polygon fill="white" stroke="#666666" points="334.25,-677.88 150.25,-677.88 150.25,-644.38 334.25,-644.38 334.25,-677.88"/>
<text text-anchor="start" x="158.25" y="-664.38" font-family="Helvetica,sans-Serif" font-size="10.00">llzk::impl::RedundantOperation</text>
<text text-anchor="middle" x="242.25" y="-651.62" font-family="Helvetica,sans-Serif" font-size="10.00">EliminationPassBase&lt; DerivedT &gt;</text>
</a>
</g>
</g>
<!-- Node0&#45;&gt;Node13 -->
<g id="edge858_Node000000_Node000013" class="edge">
<title>Node0&#45;&gt;Node13</title>
<g id="a_edge858_Node000000_Node000013"><a xlink:title=" ">
<path fill="none" stroke="#63b8ff" d="M122.85,-677.8C131.65,-676.56 140.79,-675.27 149.92,-673.99"/>
<polygon fill="#63b8ff" stroke="#63b8ff" points="122.43,-674.32 113.02,-679.18 123.41,-681.25 122.43,-674.32"/>
</a>
</g>
</g>
<!-- Node14 -->
<g id="Node000014" class="node">
<title>Node14</title>
<g id="a_Node000014"><a xlink:href="classllzk_1_1impl_1_1RedundantReadAndWriteEliminationPassBase.html" target="_top" xlink:title=" ">
<polygon fill="white" stroke="#666666" points="323.38,-626.25 161.12,-626.25 161.12,-580 323.38,-580 323.38,-626.25"/>
<text text-anchor="start" x="169.12" y="-612.75" font-family="Helvetica,sans-Serif" font-size="10.00">llzk::impl::RedundantRead</text>
<text text-anchor="start" x="169.12" y="-600" font-family="Helvetica,sans-Serif" font-size="10.00">AndWriteEliminationPassBase</text>
<text text-anchor="middle" x="242.25" y="-587.25" font-family="Helvetica,sans-Serif" font-size="10.00">&lt; DerivedT &gt;</text>
</a>
</g>
</g>
<!-- Node0&#45;&gt;Node14 -->
<g id="edge859_Node000000_Node000014" class="edge">
<title>Node0&#45;&gt;Node14</title>
<g id="a_edge859_Node000000_Node000014"><a xlink:title=" ">
<path fill="none" stroke="#63b8ff" d="M82.78,-670.32C100.51,-659.38 124.73,-645.31 147.25,-635.12 153.77,-632.18 160.65,-629.35 167.59,-626.67"/>
<polygon fill="#63b8ff" stroke="#63b8ff" points="81.05,-667.27 74.43,-675.54 84.76,-673.2 81.05,-667.27"/>
</a>
</g>
</g>
<!-- Node15 -->
<g id="Node000015" class="node">
<title>Node15</title>
<g id="a_Node000015"><a xlink:href="classllzk_1_1impl_1_1RemoveUnusedDiscardableAllocationsPassBase.html" target="_top" xlink:title=" ">
<polygon fill="white" stroke="#666666" points="329,-562.25 155.5,-562.25 155.5,-516 329,-516 329,-562.25"/>
<text text-anchor="start" x="163.5" y="-548.75" font-family="Helvetica,sans-Serif" font-size="10.00">llzk::impl::RemoveUnused</text>
<text text-anchor="start" x="163.5" y="-536" font-family="Helvetica,sans-Serif" font-size="10.00">DiscardableAllocationsPassBase</text>
<text text-anchor="middle" x="242.25" y="-523.25" font-family="Helvetica,sans-Serif" font-size="10.00">&lt; DerivedT &gt;</text>
</a>
</g>
</g>
<!-- Node0&#45;&gt;Node15 -->
<g id="edge860_Node000000_Node000015" class="edge">
<title>Node0&#45;&gt;Node15</title>
<g id="a_edge860_Node000000_Node000015"><a xlink:title=" ">
<path fill="none" stroke="#63b8ff" d="M67.6,-666.64C82.41,-640.83 111.16,-596.77 147.25,-571.12 151.61,-568.03 156.29,-565.21 161.15,-562.66"/>
<polygon fill="#63b8ff" stroke="#63b8ff" points="64.66,-664.71 62.86,-675.15 70.78,-668.12 64.66,-664.71"/>
</a>
</g>
</g>
<!-- Node16 -->
<g id="Node000016" class="node">
<title>Node16</title>
<g id="a_Node000016"><a xlink:href="classllzk_1_1impl_1_1SymbolDefTreePrinterPassBase.html" target="_top" xlink:title=" ">
<polygon fill="white" stroke="#666666" points="322.62,-497.88 161.88,-497.88 161.88,-464.38 322.62,-464.38 322.62,-497.88"/>
<text text-anchor="start" x="169.88" y="-484.38" font-family="Helvetica,sans-Serif" font-size="10.00">llzk::impl::SymbolDefTree</text>
<text text-anchor="middle" x="242.25" y="-471.62" font-family="Helvetica,sans-Serif" font-size="10.00">PrinterPassBase&lt; DerivedT &gt;</text>
</a>
</g>
</g>
<!-- Node0&#45;&gt;Node16 -->
<g id="edge861_Node000000_Node000016" class="edge">
<title>Node0&#45;&gt;Node16</title>
<g id="a_edge861_Node000000_Node000016"><a xlink:title=" ">
<path fill="none" stroke="#63b8ff" d="M61.42,-665.51C70.97,-627.6 96,-549.18 147.25,-507.12 151.7,-503.47 156.63,-500.33 161.82,-497.63"/>
<polygon fill="#63b8ff" stroke="#63b8ff" points="58.11,-664.28 59.2,-674.82 64.92,-665.9 58.11,-664.28"/>
</a>
</g>
</g>
<!-- Node17 -->
<g id="Node000017" class="node">
<title>Node17</title>
<g id="a_Node000017"><a xlink:href="classllzk_1_1impl_1_1SymbolUseGraphPrinterPassBase.html" target="_top" xlink:title=" ">
<polygon fill="white" stroke="#666666" points="322.62,-445.88 161.88,-445.88 161.88,-412.38 322.62,-412.38 322.62,-445.88"/>
<text text-anchor="start" x="169.88" y="-432.38" font-family="Helvetica,sans-Serif" font-size="10.00">llzk::impl::SymbolUseGraph</text>
<text text-anchor="middle" x="242.25" y="-419.62" font-family="Helvetica,sans-Serif" font-size="10.00">PrinterPassBase&lt; DerivedT &gt;</text>
</a>
</g>
</g>
<!-- Node0&#45;&gt;Node17 -->
<g id="edge862_Node000000_Node000017" class="edge">
<title>Node0&#45;&gt;Node17</title>
<g id="a_edge862_Node000000_Node000017"><a xlink:title=" ">
<path fill="none" stroke="#63b8ff" d="M58.73,-665.24C64.35,-619.29 83.87,-512.32 147.25,-455.12 151.52,-451.27 156.32,-447.98 161.43,-445.17"/>
<polygon fill="#63b8ff" stroke="#63b8ff" points="55.27,-664.66 57.66,-674.98 62.23,-665.42 55.27,-664.66"/>
</a>
</g>
</g>
<!-- Node18 -->
<g id="Node000018" class="node">
<title>Node18</title>
<g id="a_Node000018"><a xlink:href="classllzk_1_1impl_1_1UnusedDeclarationEliminationPassBase.html" target="_top" xlink:title=" ">
<polygon fill="white" stroke="#666666" points="334.25,-393.88 150.25,-393.88 150.25,-360.38 334.25,-360.38 334.25,-393.88"/>
<text text-anchor="start" x="158.25" y="-380.38" font-family="Helvetica,sans-Serif" font-size="10.00">llzk::impl::UnusedDeclaration</text>
<text text-anchor="middle" x="242.25" y="-367.62" font-family="Helvetica,sans-Serif" font-size="10.00">EliminationPassBase&lt; DerivedT &gt;</text>
</a>
</g>
</g>
<!-- Node0&#45;&gt;Node18 -->
<g id="edge863_Node000000_Node000018" class="edge">
<title>Node0&#45;&gt;Node18</title>
<g id="a_edge863_Node000000_Node000018"><a xlink:title=" ">
<path fill="none" stroke="#63b8ff" d="M56.94,-664.84C58.94,-611.56 71.61,-475.87 147.25,-403.12 150.79,-399.72 154.73,-396.76 158.94,-394.17"/>
<polygon fill="#63b8ff" stroke="#63b8ff" points="53.44,-664.65 56.67,-674.74 60.44,-664.84 53.44,-664.65"/>
</a>
</g>
</g>
<!-- Node19 -->
<g id="Node000019" class="node">
<title>Node19</title>
<g id="a_Node000019"><a xlink:href="classllzk_1_1impl_1_1WhileToForPassBase.html" target="_top" xlink:title=" ">
<polygon fill="white" stroke="#666666" points="313.25,-341.88 171.25,-341.88 171.25,-308.38 313.25,-308.38 313.25,-341.88"/>
<text text-anchor="start" x="179.25" y="-328.38" font-family="Helvetica,sans-Serif" font-size="10.00">llzk::impl::WhileToForPass</text>
<text text-anchor="middle" x="242.25" y="-315.62" font-family="Helvetica,sans-Serif" font-size="10.00">Base&lt; DerivedT &gt;</text>
</a>
</g>
</g>
<!-- Node0&#45;&gt;Node19 -->
<g id="edge864_Node000000_Node000019" class="edge">
<title>Node0&#45;&gt;Node19</title>
<g id="a_edge864_Node000000_Node000019"><a xlink:title=" ">
<path fill="none" stroke="#63b8ff" d="M59.69,-665.09C69.49,-597.77 102.04,-396.62 147.25,-351.12 153.93,-344.4 162.19,-339.37 171.01,-335.62"/>
<polygon fill="#63b8ff" stroke="#63b8ff" points="56.25,-664.47 58.3,-674.86 63.17,-665.45 56.25,-664.47"/>
</a>
</g>
</g>
<!-- Node20 -->
<g id="Node000020" class="node">
<title>Node20</title>
<g id="a_Node000020"><a xlink:href="classllzk_1_1include_1_1impl_1_1InlineIncludesPassBase.html" target="_top" xlink:title=" ">
<polygon fill="white" stroke="#666666" points="309.88,-290.25 174.62,-290.25 174.62,-244 309.88,-244 309.88,-290.25"/>
<text text-anchor="start" x="182.62" y="-276.75" font-family="Helvetica,sans-Serif" font-size="10.00">llzk::include::impl</text>
<text text-anchor="start" x="182.62" y="-264" font-family="Helvetica,sans-Serif" font-size="10.00">::InlineIncludesPassBase</text>
<text text-anchor="middle" x="242.25" y="-251.25" font-family="Helvetica,sans-Serif" font-size="10.00">&lt; DerivedT &gt;</text>
</a>
</g>
</g>
<!-- Node0&#45;&gt;Node20 -->
<g id="edge865_Node000000_Node000020" class="edge">
<title>Node0&#45;&gt;Node20</title>
<g id="a_edge865_Node000000_Node000020"><a xlink:title=" ">
<path fill="none" stroke="#63b8ff" d="M58.95,-665.24C67.19,-591.62 97.2,-354.37 147.25,-299.12 154.66,-290.95 164.24,-284.86 174.44,-280.33"/>
<polygon fill="#63b8ff" stroke="#63b8ff" points="55.51,-664.49 57.9,-674.81 62.47,-665.25 55.51,-664.49"/>
</a>
</g>
</g>
<!-- Node21 -->
<g id="Node000021" class="node">
<title>Node21</title>
<g id="a_Node000021"><a xlink:href="classllzk_1_1pod_1_1impl_1_1PodToScalarPassBase.html" target="_top" xlink:title=" ">
<polygon fill="white" stroke="#666666" points="317,-225.88 167.5,-225.88 167.5,-192.38 317,-192.38 317,-225.88"/>
<text text-anchor="start" x="175.5" y="-212.38" font-family="Helvetica,sans-Serif" font-size="10.00">llzk::pod::impl::PodToScalar</text>
<text text-anchor="middle" x="242.25" y="-199.62" font-family="Helvetica,sans-Serif" font-size="10.00">PassBase&lt; DerivedT &gt;</text>
</a>
</g>
</g>
<!-- Node0&#45;&gt;Node21 -->
<g id="edge866_Node000000_Node000021" class="edge">
<title>Node0&#45;&gt;Node21</title>
<g id="a_edge866_Node000000_Node000021"><a xlink:title=" ">
<path fill="none" stroke="#63b8ff" d="M58.03,-665.32C63.72,-583.92 87.61,-299.22 147.25,-235.12 152.9,-229.05 159.83,-224.35 167.35,-220.72"/>
<polygon fill="#63b8ff" stroke="#63b8ff" points="54.56,-664.85 57.37,-675.06 61.54,-665.32 54.56,-664.85"/>
</a>
</g>
</g>
<!-- Node22 -->
<g id="Node000022" class="node">
<title>Node22</title>
<g id="a_Node000022"><a xlink:href="classllzk_1_1polymorphic_1_1impl_1_1EmptyTemplateRemovalPassBase.html" target="_top" xlink:title=" ">
<polygon fill="white" stroke="#666666" points="324.12,-174.25 160.38,-174.25 160.38,-128 324.12,-128 324.12,-174.25"/>
<text text-anchor="start" x="168.38" y="-160.75" font-family="Helvetica,sans-Serif" font-size="10.00">llzk::polymorphic::</text>
<text text-anchor="start" x="168.38" y="-148" font-family="Helvetica,sans-Serif" font-size="10.00">impl::EmptyTemplateRemoval</text>
<text text-anchor="middle" x="242.25" y="-135.25" font-family="Helvetica,sans-Serif" font-size="10.00">PassBase&lt; DerivedT &gt;</text>
</a>
</g>
</g>
<!-- Node0&#45;&gt;Node22 -->
<g id="edge867_Node000000_Node000022" class="edge">
<title>Node0&#45;&gt;Node22</title>
<g id="a_edge867_Node000000_Node000022"><a xlink:title=" ">
<path fill="none" stroke="#63b8ff" d="M57.69,-664.93C62.31,-577.42 83.36,-257.41 147.25,-183.12 150.96,-178.81 155.27,-175.08 159.98,-171.85"/>
<polygon fill="#63b8ff" stroke="#63b8ff" points="54.2,-664.63 57.19,-674.79 61.19,-664.98 54.2,-664.63"/>
</a>
</g>
</g>
<!-- Node23 -->
<g id="Node000023" class="node">
<title>Node23</title>
<g id="a_Node000023"><a xlink:href="classllzk_1_1polymorphic_1_1impl_1_1FlatteningPassBase.html" target="_top" xlink:title=" ">
<polygon fill="white" stroke="#666666" points="311.75,-110.25 172.75,-110.25 172.75,-64 311.75,-64 311.75,-110.25"/>
<text text-anchor="start" x="180.75" y="-96.75" font-family="Helvetica,sans-Serif" font-size="10.00">llzk::polymorphic::</text>
<text text-anchor="start" x="180.75" y="-84" font-family="Helvetica,sans-Serif" font-size="10.00">impl::FlatteningPassBase</text>
<text text-anchor="middle" x="242.25" y="-71.25" font-family="Helvetica,sans-Serif" font-size="10.00">&lt; DerivedT &gt;</text>
</a>
</g>
</g>
<!-- Node0&#45;&gt;Node23 -->
<g id="edge868_Node000000_Node000023" class="edge">
<title>Node0&#45;&gt;Node23</title>
<g id="a_edge868_Node000000_Node000023"><a xlink:title=" ">
<path fill="none" stroke="#63b8ff" d="M57.19,-664.9C60.05,-570.53 75.63,-204.07 147.25,-119.12 154.03,-111.09 162.91,-105.06 172.52,-100.55"/>
<polygon fill="#63b8ff" stroke="#63b8ff" points="53.7,-664.74 56.91,-674.84 60.69,-664.94 53.7,-664.74"/>
</a>
</g>
</g>
<!-- Node24 -->
<g id="Node000024" class="node">
<title>Node24</title>
<g id="a_Node000024"><a xlink:href="classllzk_1_1polymorphic_1_1impl_1_1WildcardArraySpecializationPassBase.html" target="_top" xlink:title=" ">
<polygon fill="white" stroke="#666666" points="332.75,-46.25 151.75,-46.25 151.75,0 332.75,0 332.75,-46.25"/>
<text text-anchor="start" x="159.75" y="-32.75" font-family="Helvetica,sans-Serif" font-size="10.00">llzk::polymorphic::</text>
<text text-anchor="start" x="159.75" y="-20" font-family="Helvetica,sans-Serif" font-size="10.00">impl::WildcardArraySpecialization</text>
<text text-anchor="middle" x="242.25" y="-7.25" font-family="Helvetica,sans-Serif" font-size="10.00">PassBase&lt; DerivedT &gt;</text>
</a>
</g>
</g>
<!-- Node0&#45;&gt;Node24 -->
<g id="edge869_Node000000_Node000024" class="edge">
<title>Node0&#45;&gt;Node24</title>
<g id="a_edge869_Node000000_Node000024"><a xlink:title=" ">
<path fill="none" stroke="#63b8ff" d="M56.79,-665.33C57.99,-565.29 67.75,-150.95 147.25,-55.12 149.89,-51.94 152.86,-49.07 156.08,-46.49"/>
<polygon fill="#63b8ff" stroke="#63b8ff" points="53.3,-665.07 56.69,-675.1 60.29,-665.14 53.3,-665.07"/>
</a>
</g>
</g>
</g>
</svg>
