<?xml version="1.0" encoding="UTF-8" standalone="no"?>
<!DOCTYPE svg PUBLIC "-//W3C//DTD SVG 1.1//EN"
 "http://www.w3.org/Graphics/SVG/1.1/DTD/svg11.dtd">
<!-- Generated by graphviz version 12.2.1 (0)
 -->
<!-- Title: Graphical Class Hierarchy Pages: 1 -->
<svg width="283pt" height="572pt"
 viewBox="0.00 0.00 283.00 571.75" xmlns="http://www.w3.org/2000/svg" xmlns:xlink="http://www.w3.org/1999/xlink">
<g id="graph0" class="graph" transform="scale(1 1) rotate(0) translate(4 567.75)">
<title>Graphical Class Hierarchy</title>
<!-- Node0 -->
<g id="Node000000" class="node">
<title>Node0</title>
<g id="a_Node000000"><a xlink:title=" ">
<polygon fill="#e0e0e0" stroke="#999999" points="76,-294.75 0,-294.75 0,-274 76,-274 76,-294.75"/>
<text text-anchor="middle" x="38" y="-281.25" font-family="Helvetica,sans-Serif" font-size="10.00">mlir::Dialect</text>
</a>
</g>
</g>
<!-- Node1 -->
<g id="Node000001" class="node">
<title>Node1</title>
<g id="a_Node000001"><a xlink:href="classllzk_1_1LLZKDialect.html" target="_top" xlink:title=" ">
<polygon fill="white" stroke="#666666" points="242.38,-563.75 144.62,-563.75 144.62,-543 242.38,-543 242.38,-563.75"/>
<text text-anchor="middle" x="193.5" y="-550.25" font-family="Helvetica,sans-Serif" font-size="10.00">llzk::LLZKDialect</text>
</a>
</g>
</g>
<!-- Node0&#45;&gt;Node1 -->
<g id="edge355_Node000000_Node000001" class="edge">
<title>Node0&#45;&gt;Node1</title>
<g id="a_edge355_Node000000_Node000001"><a xlink:title=" ">
<path fill="none" stroke="#63b8ff" d="M38.62,-306.54C39.06,-355.05 47.24,-471.26 112,-533.38 120.73,-541.75 132.4,-546.78 144.14,-549.76"/>
<polygon fill="#63b8ff" stroke="#63b8ff" points="42.12,-306.76 38.65,-296.75 35.12,-306.74 42.12,-306.76"/>
</a>
</g>
</g>
<!-- Node2 -->
<g id="Node000002" class="node">
<title>Node2</title>
<g id="a_Node000002"><a xlink:href="classllzk_1_1array_1_1ArrayDialect.html" target="_top" xlink:title=" ">
<polygon fill="white" stroke="#666666" points="258.88,-524.75 128.12,-524.75 128.12,-504 258.88,-504 258.88,-524.75"/>
<text text-anchor="middle" x="193.5" y="-511.25" font-family="Helvetica,sans-Serif" font-size="10.00">llzk::array::ArrayDialect</text>
</a>
</g>
</g>
<!-- Node0&#45;&gt;Node2 -->
<g id="edge356_Node000000_Node000002" class="edge">
<title>Node0&#45;&gt;Node2</title>
<g id="a_edge356_Node000000_Node000002"><a xlink:title=" ">
<path fill="none" stroke="#63b8ff" d="M40.02,-306.24C43.24,-348.98 56.6,-443.8 112,-494.38 116.68,-498.65 122.13,-502.04 127.94,-504.73"/>
<polygon fill="#63b8ff" stroke="#63b8ff" points="43.53,-306.26 39.42,-296.49 36.54,-306.69 43.53,-306.26"/>
</a>
</g>
</g>
<!-- Node3 -->
<g id="Node000003" class="node">
<title>Node3</title>
<g id="a_Node000003"><a xlink:href="classllzk_1_1boolean_1_1BoolDialect.html" target="_top" xlink:title=" ">
<polygon fill="white" stroke="#666666" points="263.75,-485.75 123.25,-485.75 123.25,-465 263.75,-465 263.75,-485.75"/>
<text text-anchor="middle" x="193.5" y="-472.25" font-family="Helvetica,sans-Serif" font-size="10.00">llzk::boolean::BoolDialect</text>
</a>
</g>
</g>
<!-- Node0&#45;&gt;Node3 -->
<g id="edge357_Node000000_Node000003" class="edge">
<title>Node0&#45;&gt;Node3</title>
<g id="a_edge357_Node000000_Node000003"><a xlink:title=" ">
<path fill="none" stroke="#63b8ff" d="M42.04,-306.44C48.28,-343.07 66.05,-416.25 112,-455.38 116.39,-459.11 121.37,-462.17 126.65,-464.66"/>
<polygon fill="#63b8ff" stroke="#63b8ff" points="45.51,-305.97 40.52,-296.62 38.59,-307.04 45.51,-305.97"/>
</a>
</g>
</g>
<!-- Node4 -->
<g id="Node000004" class="node">
<title>Node4</title>
<g id="a_Node000004"><a xlink:href="classllzk_1_1cast_1_1CastDialect.html" target="_top" xlink:title=" ">
<polygon fill="white" stroke="#666666" points="254.38,-446.75 132.62,-446.75 132.62,-426 254.38,-426 254.38,-446.75"/>
<text text-anchor="middle" x="193.5" y="-433.25" font-family="Helvetica,sans-Serif" font-size="10.00">llzk::cast::CastDialect</text>
</a>
</g>
</g>
<!-- Node0&#45;&gt;Node4 -->
<g id="edge358_Node000000_Node000004" class="edge">
<title>Node0&#45;&gt;Node4</title>
<g id="a_edge358_Node000000_Node000004"><a xlink:title=" ">
<path fill="none" stroke="#63b8ff" d="M44.97,-306C54.28,-335.54 75.12,-388.07 112,-416.38 118.05,-421.02 125.05,-424.6 132.34,-427.36"/>
<polygon fill="#63b8ff" stroke="#63b8ff" points="48.41,-305.26 42.2,-296.67 41.7,-307.25 48.41,-305.26"/>
</a>
</g>
</g>
<!-- Node5 -->
<g id="Node000005" class="node">
<title>Node5</title>
<g id="a_Node000005"><a xlink:href="classllzk_1_1component_1_1StructDialect.html" target="_top" xlink:title=" ">
<polygon fill="white" stroke="#666666" points="275,-407.75 112,-407.75 112,-387 275,-387 275,-407.75"/>
<text text-anchor="middle" x="193.5" y="-394.25" font-family="Helvetica,sans-Serif" font-size="10.00">llzk::component::StructDialect</text>
</a>
</g>
</g>
<!-- Node0&#45;&gt;Node5 -->
<g id="edge359_Node000000_Node000005" class="edge">
<title>Node0&#45;&gt;Node5</title>
<g id="a_edge359_Node000000_Node000005"><a xlink:title=" ">
<path fill="none" stroke="#63b8ff" d="M49.57,-305.17C61.68,-326.83 83.58,-360.11 112,-378.38 117.07,-381.64 122.65,-384.34 128.43,-386.58"/>
<polygon fill="#63b8ff" stroke="#63b8ff" points="52.67,-303.54 44.86,-296.38 46.5,-306.84 52.67,-303.54"/>
</a>
</g>
</g>
<!-- Node6 -->
<g id="Node000006" class="node">
<title>Node6</title>
<g id="a_Node000006"><a xlink:href="classllzk_1_1constrain_1_1ConstrainDialect.html" target="_top" xlink:title=" ">
<polygon fill="white" stroke="#666666" points="261.88,-369.12 125.12,-369.12 125.12,-335.62 261.88,-335.62 261.88,-369.12"/>
<text text-anchor="start" x="133.12" y="-355.62" font-family="Helvetica,sans-Serif" font-size="10.00">llzk::constrain::Constrain</text>
<text text-anchor="middle" x="193.5" y="-342.88" font-family="Helvetica,sans-Serif" font-size="10.00">Dialect</text>
</a>
</g>
</g>
<!-- Node0&#45;&gt;Node6 -->
<g id="edge360_Node000000_Node000006" class="edge">
<title>Node0&#45;&gt;Node6</title>
<g id="a_edge360_Node000000_Node000006"><a xlink:title=" ">
<path fill="none" stroke="#63b8ff" d="M64.96,-301.09C78.6,-309.41 95.81,-319.2 112,-326.38 119.12,-329.53 126.74,-332.49 134.35,-335.21"/>
<polygon fill="#63b8ff" stroke="#63b8ff" points="66.92,-298.19 56.58,-295.88 63.22,-304.13 66.92,-298.19"/>
</a>
</g>
</g>
<!-- Node7 -->
<g id="Node000007" class="node">
<title>Node7</title>
<g id="a_Node000007"><a xlink:href="classllzk_1_1felt_1_1FeltDialect.html" target="_top" xlink:title=" ">
<polygon fill="white" stroke="#666666" points="250.62,-317.75 136.38,-317.75 136.38,-297 250.62,-297 250.62,-317.75"/>
<text text-anchor="middle" x="193.5" y="-304.25" font-family="Helvetica,sans-Serif" font-size="10.00">llzk::felt::FeltDialect</text>
</a>
</g>
</g>
<!-- Node0&#45;&gt;Node7 -->
<g id="edge361_Node000000_Node000007" class="edge">
<title>Node0&#45;&gt;Node7</title>
<g id="a_edge361_Node000000_Node000007"><a xlink:title=" ">
<path fill="none" stroke="#63b8ff" d="M87.52,-291.65C102.89,-293.95 120.02,-296.51 135.91,-298.9"/>
<polygon fill="#63b8ff" stroke="#63b8ff" points="88.06,-288.19 77.65,-290.17 87.03,-295.11 88.06,-288.19"/>
</a>
</g>
</g>
<!-- Node8 -->
<g id="Node000008" class="node">
<title>Node8</title>
<g id="a_Node000008"><a xlink:href="classllzk_1_1function_1_1FunctionDialect.html" target="_top" xlink:title=" ">
<polygon fill="white" stroke="#666666" points="256.62,-279.12 130.38,-279.12 130.38,-245.62 256.62,-245.62 256.62,-279.12"/>
<text text-anchor="start" x="138.38" y="-265.62" font-family="Helvetica,sans-Serif" font-size="10.00">llzk::function::Function</text>
<text text-anchor="middle" x="193.5" y="-252.88" font-family="Helvetica,sans-Serif" font-size="10.00">Dialect</text>
</a>
</g>
</g>
<!-- Node0&#45;&gt;Node8 -->
<g id="edge362_Node000000_Node000008" class="edge">
<title>Node0&#45;&gt;Node8</title>
<g id="a_edge362_Node000000_Node000008"><a xlink:title=" ">
<path fill="none" stroke="#63b8ff" d="M87.17,-277.47C100.73,-275.53 115.67,-273.39 129.93,-271.34"/>
<polygon fill="#63b8ff" stroke="#63b8ff" points="87.06,-273.95 77.66,-278.83 88.05,-280.88 87.06,-273.95"/>
</a>
</g>
</g>
<!-- Node9 -->
<g id="Node000009" class="node">
<title>Node9</title>
<g id="a_Node000009"><a xlink:href="classllzk_1_1global_1_1GlobalDialect.html" target="_top" xlink:title=" ">
<polygon fill="white" stroke="#666666" points="264.12,-227.75 122.88,-227.75 122.88,-207 264.12,-207 264.12,-227.75"/>
<text text-anchor="middle" x="193.5" y="-214.25" font-family="Helvetica,sans-Serif" font-size="10.00">llzk::global::GlobalDialect</text>
</a>
</g>
</g>
<!-- Node0&#45;&gt;Node9 -->
<g id="edge363_Node000000_Node000009" class="edge">
<title>Node0&#45;&gt;Node9</title>
<g id="a_edge363_Node000000_Node000009"><a xlink:title=" ">
<path fill="none" stroke="#63b8ff" d="M60.97,-266.99C74.88,-256.74 93.66,-244.27 112,-236.38 119.39,-233.19 127.39,-230.5 135.39,-228.22"/>
<polygon fill="#63b8ff" stroke="#63b8ff" points="59.24,-263.9 53.38,-272.73 63.46,-269.49 59.24,-263.9"/>
</a>
</g>
</g>
<!-- Node10 -->
<g id="Node000010" class="node">
<title>Node10</title>
<g id="a_Node000010"><a xlink:href="classllzk_1_1include_1_1IncludeDialect.html" target="_top" xlink:title=" ">
<polygon fill="white" stroke="#666666" points="268.62,-188.75 118.38,-188.75 118.38,-168 268.62,-168 268.62,-188.75"/>
<text text-anchor="middle" x="193.5" y="-175.25" font-family="Helvetica,sans-Serif" font-size="10.00">llzk::include::IncludeDialect</text>
</a>
</g>
</g>
<!-- Node0&#45;&gt;Node10 -->
<g id="edge364_Node000000_Node000010" class="edge">
<title>Node0&#45;&gt;Node10</title>
<g id="a_edge364_Node000000_Node000010"><a xlink:title=" ">
<path fill="none" stroke="#63b8ff" d="M51.02,-263.89C63.69,-244.12 85.48,-214.83 112,-198.38 118,-194.66 124.65,-191.63 131.48,-189.16"/>
<polygon fill="#63b8ff" stroke="#63b8ff" points="48.16,-261.87 45.89,-272.21 54.11,-265.54 48.16,-261.87"/>
</a>
</g>
</g>
<!-- Node11 -->
<g id="Node000011" class="node">
<title>Node11</title>
<g id="a_Node000011"><a xlink:href="classllzk_1_1pod_1_1PODDialect.html" target="_top" xlink:title=" ">
<polygon fill="white" stroke="#666666" points="252.88,-149.75 134.12,-149.75 134.12,-129 252.88,-129 252.88,-149.75"/>
<text text-anchor="middle" x="193.5" y="-136.25" font-family="Helvetica,sans-Serif" font-size="10.00">llzk::pod::PODDialect</text>
</a>
</g>
</g>
<!-- Node0&#45;&gt;Node11 -->
<g id="edge365_Node000000_Node000011" class="edge">
<title>Node0&#45;&gt;Node11</title>
<g id="a_edge365_Node000000_Node000011"><a xlink:title=" ">
<path fill="none" stroke="#63b8ff" d="M45.58,-263.09C55.4,-234.96 76.62,-185.87 112,-159.38 118.45,-154.54 125.94,-150.86 133.69,-148.07"/>
<polygon fill="#63b8ff" stroke="#63b8ff" points="42.35,-261.71 42.54,-272.3 49,-263.9 42.35,-261.71"/>
</a>
</g>
</g>
<!-- Node12 -->
<g id="Node000012" class="node">
<title>Node12</title>
<g id="a_Node000012"><a xlink:href="classllzk_1_1polymorphic_1_1PolymorphicDialect.html" target="_top" xlink:title=" ">
<polygon fill="white" stroke="#666666" points="249.12,-111.12 137.88,-111.12 137.88,-77.62 249.12,-77.62 249.12,-111.12"/>
<text text-anchor="start" x="145.88" y="-97.62" font-family="Helvetica,sans-Serif" font-size="10.00">llzk::polymorphic::</text>
<text text-anchor="middle" x="193.5" y="-84.88" font-family="Helvetica,sans-Serif" font-size="10.00">PolymorphicDialect</text>
</a>
</g>
</g>
<!-- Node0&#45;&gt;Node12 -->
<g id="edge366_Node000000_Node000012" class="edge">
<title>Node0&#45;&gt;Node12</title>
<g id="a_edge366_Node000000_Node000012"><a xlink:title=" ">
<path fill="none" stroke="#63b8ff" d="M42.81,-262.56C50.04,-227.59 69.06,-158.97 112,-120.38 119.32,-113.8 128.32,-108.88 137.62,-105.21"/>
<polygon fill="#63b8ff" stroke="#63b8ff" points="39.38,-261.84 40.94,-272.32 46.26,-263.16 39.38,-261.84"/>
</a>
</g>
</g>
<!-- Node13 -->
<g id="Node000013" class="node">
<title>Node13</title>
<g id="a_Node000013"><a xlink:href="classllzk_1_1ram_1_1RAMDialect.html" target="_top" xlink:title=" ">
<polygon fill="white" stroke="#666666" points="254.38,-59.75 132.62,-59.75 132.62,-39 254.38,-39 254.38,-59.75"/>
<text text-anchor="middle" x="193.5" y="-46.25" font-family="Helvetica,sans-Serif" font-size="10.00">llzk::ram::RAMDialect</text>
</a>
</g>
</g>
<!-- Node0&#45;&gt;Node13 -->
<g id="edge367_Node000000_Node000013" class="edge">
<title>Node0&#45;&gt;Node13</title>
<g id="a_edge367_Node000000_Node000013"><a xlink:title=" ">
<path fill="none" stroke="#63b8ff" d="M39.72,-262.45C42.4,-218.73 54.84,-120.4 112,-68.38 117.84,-63.06 124.89,-59.15 132.35,-56.29"/>
<polygon fill="#63b8ff" stroke="#63b8ff" points="36.23,-262.27 39.25,-272.42 43.22,-262.6 36.23,-262.27"/>
</a>
</g>
</g>
<!-- Node14 -->
<g id="Node000014" class="node">
<title>Node14</title>
<g id="a_Node000014"><a xlink:href="classllzk_1_1string_1_1StringDialect.html" target="_top" xlink:title=" ">
<polygon fill="white" stroke="#666666" points="261.5,-20.75 125.5,-20.75 125.5,0 261.5,0 261.5,-20.75"/>
<text text-anchor="middle" x="193.5" y="-7.25" font-family="Helvetica,sans-Serif" font-size="10.00">llzk::string::StringDialect</text>
</a>
</g>
</g>
<!-- Node0&#45;&gt;Node14 -->
<g id="edge368_Node000000_Node000014" class="edge">
<title>Node0&#45;&gt;Node14</title>
<g id="a_edge368_Node000000_Node000014"><a xlink:title=" ">
<path fill="none" stroke="#63b8ff" d="M38.47,-262.12C38.57,-212.86 46.06,-93.96 112,-30.38 115.94,-26.58 120.48,-23.47 125.36,-20.92"/>
<polygon fill="#63b8ff" stroke="#63b8ff" points="34.97,-262.09 38.57,-272.06 41.97,-262.02 34.97,-262.09"/>
</a>
</g>
</g>
</g>
</svg>
