<?xml version="1.0" encoding="UTF-8" standalone="no"?>
<!DOCTYPE svg PUBLIC "-//W3C//DTD SVG 1.1//EN"
 "http://www.w3.org/Graphics/SVG/1.1/DTD/svg11.dtd">
<!-- Generated by graphviz version 12.2.1 (0)
 -->
<!-- Title: Graphical Class Hierarchy Pages: 1 -->
<svg width="550pt" height="158pt"
 viewBox="0.00 0.00 549.50 157.88" xmlns="http://www.w3.org/2000/svg" xmlns:xlink="http://www.w3.org/1999/xlink">
<g id="graph0" class="graph" transform="scale(1 1) rotate(0) translate(4 153.88)">
<title>Graphical Class Hierarchy</title>
<!-- Node0 -->
<g id="Node000000" class="node">
<title>Node0</title>
<g id="a_Node000000"><a xlink:href="classllzk_1_1smt_1_1detail_1_1AssertOpGenericAdaptorBase.html" target="_top" xlink:title=" ">
<polygon fill="white" stroke="#666666" points="160,-85.5 0,-85.5 0,-52 160,-52 160,-85.5"/>
<text text-anchor="start" x="8" y="-72" font-family="Helvetica,sans-Serif" font-size="10.00">llzk::smt::detail::</text>
<text text-anchor="middle" x="80" y="-59.25" font-family="Helvetica,sans-Serif" font-size="10.00">AssertOpGenericAdaptorBase</text>
</a>
</g>
</g>
<!-- Node1 -->
<g id="Node000001" class="node">
<title>Node1</title>
<g id="a_Node000001"><a xlink:href="classllzk_1_1smt_1_1AssertOpGenericAdaptor.html" target="_top" xlink:title=" ">
<polygon fill="white" stroke="#666666" points="350.38,-149.88 204.62,-149.88 204.62,-103.62 350.38,-103.62 350.38,-149.88"/>
<text text-anchor="start" x="212.62" y="-136.38" font-family="Helvetica,sans-Serif" font-size="10.00">llzk::smt::AssertOpGeneric</text>
<text text-anchor="start" x="212.62" y="-123.62" font-family="Helvetica,sans-Serif" font-size="10.00">Adaptor&lt;::llvm::ArrayRef</text>
<text text-anchor="middle" x="277.5" y="-110.88" font-family="Helvetica,sans-Serif" font-size="10.00">&lt;::mlir::Attribute &gt; &gt;</text>
</a>
</g>
</g>
<!-- Node0&#45;&gt;Node1 -->
<g id="edge361_Node000000_Node000001" class="edge">
<title>Node0&#45;&gt;Node1</title>
<g id="a_edge361_Node000000_Node000001"><a xlink:title=" ">
<path fill="none" stroke="#63b8ff" d="M149.91,-89.2C167.56,-94.43 186.59,-100.07 204.39,-105.36"/>
<polygon fill="#63b8ff" stroke="#63b8ff" points="151.16,-85.91 140.58,-86.43 149.17,-92.63 151.16,-85.91"/>
</a>
</g>
</g>
<!-- Node2 -->
<g id="Node000002" class="node">
<title>Node2</title>
<g id="a_Node000002"><a xlink:href="classllzk_1_1smt_1_1AssertOpGenericAdaptor.html" target="_top" xlink:title=" ">
<polygon fill="white" stroke="#666666" points="359,-85.5 196,-85.5 196,-52 359,-52 359,-85.5"/>
<text text-anchor="start" x="204" y="-72" font-family="Helvetica,sans-Serif" font-size="10.00">llzk::smt::AssertOpGeneric</text>
<text text-anchor="middle" x="277.5" y="-59.25" font-family="Helvetica,sans-Serif" font-size="10.00">Adaptor&lt;::mlir::ValueRange &gt;</text>
</a>
</g>
</g>
<!-- Node0&#45;&gt;Node2 -->
<g id="edge362_Node000000_Node000002" class="edge">
<title>Node0&#45;&gt;Node2</title>
<g id="a_edge362_Node000000_Node000002"><a xlink:title=" ">
<path fill="none" stroke="#63b8ff" d="M171.51,-68.75C179.54,-68.75 187.63,-68.75 195.56,-68.75"/>
<polygon fill="#63b8ff" stroke="#63b8ff" points="171.75,-65.25 161.75,-68.75 171.75,-72.25 171.75,-65.25"/>
</a>
</g>
</g>
<!-- Node4 -->
<g id="Node000004" class="node">
<title>Node4</title>
<g id="a_Node000004"><a xlink:href="classllzk_1_1smt_1_1AssertOpGenericAdaptor.html" target="_top" xlink:title=" ">
<polygon fill="white" stroke="#666666" points="350.38,-33.5 204.62,-33.5 204.62,0 350.38,0 350.38,-33.5"/>
<text text-anchor="start" x="212.62" y="-20" font-family="Helvetica,sans-Serif" font-size="10.00">llzk::smt::AssertOpGeneric</text>
<text text-anchor="middle" x="277.5" y="-7.25" font-family="Helvetica,sans-Serif" font-size="10.00">Adaptor&lt; RangeT &gt;</text>
</a>
</g>
</g>
<!-- Node0&#45;&gt;Node4 -->
<g id="edge364_Node000000_Node000004" class="edge">
<title>Node0&#45;&gt;Node4</title>
<g id="a_edge364_Node000000_Node000004"><a xlink:title=" ">
<path fill="none" stroke="#63b8ff" d="M156.7,-48.61C174.91,-43.77 194.2,-38.64 211.85,-33.95"/>
<polygon fill="#63b8ff" stroke="#63b8ff" points="156.05,-45.16 147.29,-51.12 157.85,-51.93 156.05,-45.16"/>
</a>
</g>
</g>
<!-- Node3 -->
<g id="Node000003" class="node">
<title>Node3</title>
<g id="a_Node000003"><a xlink:href="classllzk_1_1smt_1_1AssertOpAdaptor.html" target="_top" xlink:title=" ">
<polygon fill="white" stroke="#666666" points="541.5,-79.12 395,-79.12 395,-58.38 541.5,-58.38 541.5,-79.12"/>
<text text-anchor="middle" x="468.25" y="-65.62" font-family="Helvetica,sans-Serif" font-size="10.00">llzk::smt::AssertOpAdaptor</text>
</a>
</g>
</g>
<!-- Node2&#45;&gt;Node3 -->
<g id="edge363_Node000002_Node000003" class="edge">
<title>Node2&#45;&gt;Node3</title>
<g id="a_edge363_Node000002_Node000003"><a xlink:title=" ">
<path fill="none" stroke="#63b8ff" d="M370.68,-68.75C378.71,-68.75 386.76,-68.75 394.6,-68.75"/>
<polygon fill="#63b8ff" stroke="#63b8ff" points="370.88,-65.25 360.88,-68.75 370.88,-72.25 370.88,-65.25"/>
</a>
</g>
</g>
</g>
</svg>
