<?xml version="1.0" encoding="UTF-8" standalone="no"?>
<!DOCTYPE svg PUBLIC "-//W3C//DTD SVG 1.1//EN"
 "http://www.w3.org/Graphics/SVG/1.1/DTD/svg11.dtd">
<!-- Generated by graphviz version 12.2.1 (0)
 -->
<!-- Title: Graphical Class Hierarchy Pages: 1 -->
<svg width="334pt" height="340pt"
 viewBox="0.00 0.00 334.00 339.50" xmlns="http://www.w3.org/2000/svg" xmlns:xlink="http://www.w3.org/1999/xlink">
<g id="graph0" class="graph" transform="scale(1 1) rotate(0) translate(4 335.5)">
<title>Graphical Class Hierarchy</title>
<!-- Node0 -->
<g id="Node000000" class="node">
<title>Node0</title>
<g id="a_Node000000"><a xlink:title=" ">
<polygon fill="#e0e0e0" stroke="#999999" points="98.5,-183.12 0,-183.12 0,-162.38 98.5,-162.38 98.5,-183.12"/>
<text text-anchor="middle" x="49.25" y="-169.62" font-family="Helvetica,sans-Serif" font-size="10.00">mlir::OpInterface</text>
</a>
</g>
</g>
<!-- Node1 -->
<g id="Node000001" class="node">
<title>Node1</title>
<g id="a_Node000001"><a xlink:href="classllzk_1_1array_1_1ArrayAccessOpInterface.html" target="_top" xlink:title=" ">
<polygon fill="white" stroke="#666666" points="295.25,-331.5 165.25,-331.5 165.25,-298 295.25,-298 295.25,-331.5"/>
<text text-anchor="start" x="173.25" y="-318" font-family="Helvetica,sans-Serif" font-size="10.00">llzk::array::ArrayAccess</text>
<text text-anchor="middle" x="230.25" y="-305.25" font-family="Helvetica,sans-Serif" font-size="10.00">OpInterface</text>
</a>
</g>
</g>
<!-- Node0&#45;&gt;Node1 -->
<g id="edge457_Node000000_Node000001" class="edge">
<title>Node0&#45;&gt;Node1</title>
<g id="a_edge457_Node000000_Node000001"><a xlink:title=" ">
<path fill="none" stroke="#63b8ff" d="M60.03,-193.94C73.22,-220.16 99.2,-264.33 134.5,-288.75 143.62,-295.06 154.21,-299.84 164.95,-303.46"/>
<polygon fill="#63b8ff" stroke="#63b8ff" points="63.19,-192.44 55.68,-184.96 56.89,-195.49 63.19,-192.44"/>
</a>
</g>
</g>
<!-- Node2 -->
<g id="Node000002" class="node">
<title>Node2</title>
<g id="a_Node000002"><a xlink:href="classllzk_1_1array_1_1ArrayRefOpInterface.html" target="_top" xlink:title=" ">
<polygon fill="white" stroke="#666666" points="315.12,-280.12 145.38,-280.12 145.38,-259.38 315.12,-259.38 315.12,-280.12"/>
<text text-anchor="middle" x="230.25" y="-266.62" font-family="Helvetica,sans-Serif" font-size="10.00">llzk::array::ArrayRefOpInterface</text>
</a>
</g>
</g>
<!-- Node0&#45;&gt;Node2 -->
<g id="edge458_Node000000_Node000002" class="edge">
<title>Node0&#45;&gt;Node2</title>
<g id="a_edge458_Node000000_Node000002"><a xlink:title=" ">
<path fill="none" stroke="#63b8ff" d="M65.64,-192.15C81.08,-210.22 106.54,-236.46 134.5,-250.75 140.92,-254.03 147.86,-256.75 154.96,-259"/>
<polygon fill="#63b8ff" stroke="#63b8ff" points="68.56,-190.18 59.48,-184.71 63.17,-194.65 68.56,-190.18"/>
</a>
</g>
</g>
<!-- Node3 -->
<g id="Node000003" class="node">
<title>Node3</title>
<g id="a_Node000003"><a xlink:href="classllzk_1_1component_1_1MemberRefOpInterface.html" target="_top" xlink:title=" ">
<polygon fill="white" stroke="#666666" points="308.75,-241.5 151.75,-241.5 151.75,-208 308.75,-208 308.75,-241.5"/>
<text text-anchor="start" x="159.75" y="-228" font-family="Helvetica,sans-Serif" font-size="10.00">llzk::component::MemberRef</text>
<text text-anchor="middle" x="230.25" y="-215.25" font-family="Helvetica,sans-Serif" font-size="10.00">OpInterface</text>
</a>
</g>
</g>
<!-- Node0&#45;&gt;Node3 -->
<g id="edge459_Node000000_Node000003" class="edge">
<title>Node0&#45;&gt;Node3</title>
<g id="a_edge459_Node000000_Node000003"><a xlink:title=" ">
<path fill="none" stroke="#63b8ff" d="M95.37,-186.96C108.01,-190.86 121.77,-195.04 134.5,-198.75 144.49,-201.66 155.1,-204.66 165.46,-207.54"/>
<polygon fill="#63b8ff" stroke="#63b8ff" points="96.64,-183.69 86.05,-184.07 94.57,-190.38 96.64,-183.69"/>
</a>
</g>
</g>
<!-- Node4 -->
<g id="Node000004" class="node">
<title>Node4</title>
<g id="a_Node000004"><a xlink:href="classllzk_1_1constrain_1_1ConstraintOpInterface.html" target="_top" xlink:title=" ">
<polygon fill="white" stroke="#666666" points="300.5,-189.5 160,-189.5 160,-156 300.5,-156 300.5,-189.5"/>
<text text-anchor="start" x="168" y="-176" font-family="Helvetica,sans-Serif" font-size="10.00">llzk::constrain::Constraint</text>
<text text-anchor="middle" x="230.25" y="-163.25" font-family="Helvetica,sans-Serif" font-size="10.00">OpInterface</text>
</a>
</g>
</g>
<!-- Node0&#45;&gt;Node4 -->
<g id="edge460_Node000000_Node000004" class="edge">
<title>Node0&#45;&gt;Node4</title>
<g id="a_edge460_Node000000_Node000004"><a xlink:title=" ">
<path fill="none" stroke="#63b8ff" d="M109.99,-172.75C125.89,-172.75 143.21,-172.75 159.6,-172.75"/>
<polygon fill="#63b8ff" stroke="#63b8ff" points="110.2,-169.25 100.2,-172.75 110.2,-176.25 110.2,-169.25"/>
</a>
</g>
</g>
<!-- Node5 -->
<g id="Node000005" class="node">
<title>Node5</title>
<g id="a_Node000005"><a xlink:href="classllzk_1_1felt_1_1FeltBinaryOpInterface.html" target="_top" xlink:title=" ">
<polygon fill="white" stroke="#666666" points="292.62,-137.5 167.88,-137.5 167.88,-104 292.62,-104 292.62,-137.5"/>
<text text-anchor="start" x="175.88" y="-124" font-family="Helvetica,sans-Serif" font-size="10.00">llzk::felt::FeltBinaryOp</text>
<text text-anchor="middle" x="230.25" y="-111.25" font-family="Helvetica,sans-Serif" font-size="10.00">Interface</text>
</a>
</g>
</g>
<!-- Node0&#45;&gt;Node5 -->
<g id="edge461_Node000000_Node000005" class="edge">
<title>Node0&#45;&gt;Node5</title>
<g id="a_edge461_Node000000_Node000005"><a xlink:title=" ">
<path fill="none" stroke="#63b8ff" d="M95.37,-158.54C108.01,-154.64 121.77,-150.46 134.5,-146.75 145.14,-143.65 156.49,-140.44 167.5,-137.39"/>
<polygon fill="#63b8ff" stroke="#63b8ff" points="94.57,-155.12 86.05,-161.43 96.64,-161.81 94.57,-155.12"/>
</a>
</g>
</g>
<!-- Node6 -->
<g id="Node000006" class="node">
<title>Node6</title>
<g id="a_Node000006"><a xlink:href="classllzk_1_1global_1_1GlobalRefOpInterface.html" target="_top" xlink:title=" ">
<polygon fill="white" stroke="#666666" points="298.62,-85.5 161.88,-85.5 161.88,-52 298.62,-52 298.62,-85.5"/>
<text text-anchor="start" x="169.88" y="-72" font-family="Helvetica,sans-Serif" font-size="10.00">llzk::global::GlobalRefOp</text>
<text text-anchor="middle" x="230.25" y="-59.25" font-family="Helvetica,sans-Serif" font-size="10.00">Interface</text>
</a>
</g>
</g>
<!-- Node0&#45;&gt;Node6 -->
<g id="edge462_Node000000_Node000006" class="edge">
<title>Node0&#45;&gt;Node6</title>
<g id="a_edge462_Node000000_Node000006"><a xlink:title=" ">
<path fill="none" stroke="#63b8ff" d="M66.13,-153.49C81.76,-135.74 107.2,-109.92 134.5,-94.75 142.85,-90.11 152.08,-86.25 161.41,-83.06"/>
<polygon fill="#63b8ff" stroke="#63b8ff" points="63.72,-150.92 59.87,-160.79 69.04,-155.47 63.72,-150.92"/>
</a>
</g>
</g>
<!-- Node7 -->
<g id="Node000007" class="node">
<title>Node7</title>
<g id="a_Node000007"><a xlink:href="classllzk_1_1polymorphic_1_1TemplateSymbolBindingOpInterface.html" target="_top" xlink:title=" ">
<polygon fill="white" stroke="#666666" points="326,-33.5 134.5,-33.5 134.5,0 326,0 326,-33.5"/>
<text text-anchor="start" x="142.5" y="-20" font-family="Helvetica,sans-Serif" font-size="10.00">llzk::polymorphic::</text>
<text text-anchor="middle" x="230.25" y="-7.25" font-family="Helvetica,sans-Serif" font-size="10.00">TemplateSymbolBindingOpInterface</text>
</a>
</g>
</g>
<!-- Node0&#45;&gt;Node7 -->
<g id="edge463_Node000000_Node000007" class="edge">
<title>Node0&#45;&gt;Node7</title>
<g id="a_edge463_Node000000_Node000007"><a xlink:title=" ">
<path fill="none" stroke="#63b8ff" d="M58.28,-151.55C70.36,-122.56 95.97,-70.95 134.5,-42.75 139.04,-39.43 143.99,-36.53 149.16,-34"/>
<polygon fill="#63b8ff" stroke="#63b8ff" points="55.08,-150.13 54.62,-160.71 61.58,-152.72 55.08,-150.13"/>
</a>
</g>
</g>
</g>
</svg>
