<?xml version="1.0" encoding="UTF-8" standalone="no"?>
<!DOCTYPE svg PUBLIC "-//W3C//DTD SVG 1.1//EN"
 "http://www.w3.org/Graphics/SVG/1.1/DTD/svg11.dtd">
<!-- Generated by graphviz version 12.2.1 (0)
 -->
<!-- Title: Graphical Class Hierarchy Pages: 1 -->
<svg width="573pt" height="170pt"
 viewBox="0.00 0.00 572.75 169.88" xmlns="http://www.w3.org/2000/svg" xmlns:xlink="http://www.w3.org/1999/xlink">
<g id="graph0" class="graph" transform="scale(1 1) rotate(0) translate(4 165.88)">
<title>Graphical Class Hierarchy</title>
<!-- Node0 -->
<g id="Node000000" class="node">
<title>Node0</title>
<g id="a_Node000000"><a xlink:href="classllzk_1_1global_1_1detail_1_1GlobalReadOpGenericAdaptorBase.html" target="_top" xlink:title=" ">
<polygon fill="white" stroke="#666666" points="191.5,-91.5 0,-91.5 0,-58 191.5,-58 191.5,-91.5"/>
<text text-anchor="start" x="8" y="-78" font-family="Helvetica,sans-Serif" font-size="10.00">llzk::global::detail</text>
<text text-anchor="middle" x="95.75" y="-65.25" font-family="Helvetica,sans-Serif" font-size="10.00">::GlobalReadOpGenericAdaptorBase</text>
</a>
</g>
</g>
<!-- Node1 -->
<g id="Node000001" class="node">
<title>Node1</title>
<g id="a_Node000001"><a xlink:href="classllzk_1_1global_1_1GlobalReadOpGenericAdaptor.html" target="_top" xlink:title=" ">
<polygon fill="white" stroke="#666666" points="397.25,-161.88 227.5,-161.88 227.5,-115.62 397.25,-115.62 397.25,-161.88"/>
<text text-anchor="start" x="235.5" y="-148.38" font-family="Helvetica,sans-Serif" font-size="10.00">llzk::global::GlobalRead</text>
<text text-anchor="start" x="235.5" y="-135.62" font-family="Helvetica,sans-Serif" font-size="10.00">OpGenericAdaptor&lt;::llvm</text>
<text text-anchor="middle" x="312.38" y="-122.88" font-family="Helvetica,sans-Serif" font-size="10.00">::ArrayRef&lt;::mlir::Attribute &gt; &gt;</text>
</a>
</g>
</g>
<!-- Node0&#45;&gt;Node1 -->
<g id="edge258_Node000000_Node000001" class="edge">
<title>Node0&#45;&gt;Node1</title>
<g id="a_edge258_Node000000_Node000001"><a xlink:title=" ">
<path fill="none" stroke="#63b8ff" d="M165.48,-95.24C186.82,-101.61 210.52,-108.68 232.51,-115.23"/>
<polygon fill="#63b8ff" stroke="#63b8ff" points="166.58,-91.92 156,-92.42 164.58,-98.63 166.58,-91.92"/>
</a>
</g>
</g>
<!-- Node2 -->
<g id="Node000002" class="node">
<title>Node2</title>
<g id="a_Node000002"><a xlink:href="classllzk_1_1global_1_1GlobalReadOpGenericAdaptor.html" target="_top" xlink:title=" ">
<polygon fill="white" stroke="#666666" points="381.88,-97.88 242.88,-97.88 242.88,-51.62 381.88,-51.62 381.88,-97.88"/>
<text text-anchor="start" x="250.88" y="-84.38" font-family="Helvetica,sans-Serif" font-size="10.00">llzk::global::GlobalRead</text>
<text text-anchor="start" x="250.88" y="-71.62" font-family="Helvetica,sans-Serif" font-size="10.00">OpGenericAdaptor&lt;::mlir</text>
<text text-anchor="middle" x="312.38" y="-58.88" font-family="Helvetica,sans-Serif" font-size="10.00">::ValueRange &gt;</text>
</a>
</g>
</g>
<!-- Node0&#45;&gt;Node2 -->
<g id="edge259_Node000000_Node000002" class="edge">
<title>Node0&#45;&gt;Node2</title>
<g id="a_edge259_Node000000_Node000002"><a xlink:title=" ">
<path fill="none" stroke="#63b8ff" d="M203.05,-74.75C216.44,-74.75 229.86,-74.75 242.46,-74.75"/>
<polygon fill="#63b8ff" stroke="#63b8ff" points="203.34,-71.25 193.34,-74.75 203.34,-78.25 203.34,-71.25"/>
</a>
</g>
</g>
<!-- Node4 -->
<g id="Node000004" class="node">
<title>Node4</title>
<g id="a_Node000004"><a xlink:href="classllzk_1_1global_1_1GlobalReadOpGenericAdaptor.html" target="_top" xlink:title=" ">
<polygon fill="white" stroke="#666666" points="394.62,-33.5 230.12,-33.5 230.12,0 394.62,0 394.62,-33.5"/>
<text text-anchor="start" x="238.12" y="-20" font-family="Helvetica,sans-Serif" font-size="10.00">llzk::global::GlobalRead</text>
<text text-anchor="middle" x="312.38" y="-7.25" font-family="Helvetica,sans-Serif" font-size="10.00">OpGenericAdaptor&lt; RangeT &gt;</text>
</a>
</g>
</g>
<!-- Node0&#45;&gt;Node4 -->
<g id="edge261_Node000000_Node000004" class="edge">
<title>Node0&#45;&gt;Node4</title>
<g id="a_edge261_Node000000_Node000004"><a xlink:title=" ">
<path fill="none" stroke="#63b8ff" d="M171.43,-54.57C196.33,-47.84 223.83,-40.41 247.81,-33.93"/>
<polygon fill="#63b8ff" stroke="#63b8ff" points="170.77,-51.12 162.02,-57.11 172.59,-57.88 170.77,-51.12"/>
</a>
</g>
</g>
<!-- Node3 -->
<g id="Node000003" class="node">
<title>Node3</title>
<g id="a_Node000003"><a xlink:href="classllzk_1_1global_1_1GlobalReadOpAdaptor.html" target="_top" xlink:title=" ">
<polygon fill="white" stroke="#666666" points="564.75,-91.5 433.25,-91.5 433.25,-58 564.75,-58 564.75,-91.5"/>
<text text-anchor="start" x="441.25" y="-78" font-family="Helvetica,sans-Serif" font-size="10.00">llzk::global::GlobalRead</text>
<text text-anchor="middle" x="499" y="-65.25" font-family="Helvetica,sans-Serif" font-size="10.00">OpAdaptor</text>
</a>
</g>
</g>
<!-- Node2&#45;&gt;Node3 -->
<g id="edge260_Node000002_Node000003" class="edge">
<title>Node2&#45;&gt;Node3</title>
<g id="a_edge260_Node000002_Node000003"><a xlink:title=" ">
<path fill="none" stroke="#63b8ff" d="M393.55,-74.75C406.69,-74.75 420.15,-74.75 432.87,-74.75"/>
<polygon fill="#63b8ff" stroke="#63b8ff" points="393.64,-71.25 383.64,-74.75 393.64,-78.25 393.64,-71.25"/>
</a>
</g>
</g>
</g>
</svg>
