<?xml version="1.0" encoding="UTF-8" standalone="no"?>
<!DOCTYPE svg PUBLIC "-//W3C//DTD SVG 1.1//EN"
 "http://www.w3.org/Graphics/SVG/1.1/DTD/svg11.dtd">
<!-- Generated by graphviz version 12.2.1 (0)
 -->
<!-- Title: Graphical Class Hierarchy Pages: 1 -->
<svg width="637pt" height="1862pt"
 viewBox="0.00 0.00 636.50 1861.88" xmlns="http://www.w3.org/2000/svg" xmlns:xlink="http://www.w3.org/1999/xlink">
<g id="graph0" class="graph" transform="scale(1 1) rotate(0) translate(4 1857.88)">
<title>Graphical Class Hierarchy</title>
<!-- Node0 -->
<g id="Node000000" class="node">
<title>Node0</title>
<g id="a_Node000000"><a xlink:title=" ">
<polygon fill="#e0e0e0" stroke="#999999" points="111.25,-907.5 0,-907.5 0,-886.75 111.25,-886.75 111.25,-907.5"/>
<text text-anchor="middle" x="55.62" y="-894" font-family="Helvetica,sans-Serif" font-size="10.00">mlir::OperationPass</text>
</a>
</g>
</g>
<!-- Node1 -->
<g id="Node000001" class="node">
<title>Node1</title>
<g id="a_Node000001"><a xlink:href="classllzk_1_1impl_1_1CallGraphPrinterPassBase.html" target="_top" xlink:title=" ">
<polygon fill="white" stroke="#666666" points="363.12,-1853.88 176.88,-1853.88 176.88,-1820.38 363.12,-1820.38 363.12,-1853.88"/>
<text text-anchor="start" x="184.88" y="-1840.38" font-family="Helvetica,sans-Serif" font-size="10.00">llzk::impl::CallGraphPrinter</text>
<text text-anchor="middle" x="270" y="-1827.62" font-family="Helvetica,sans-Serif" font-size="10.00">PassBase&lt; CallGraphPrinterPass &gt;</text>
</a>
</g>
</g>
<!-- Node0&#45;&gt;Node1 -->
<g id="edge766_Node000000_Node000001" class="edge">
<title>Node0&#45;&gt;Node1</title>
<g id="a_edge766_Node000000_Node000001"><a xlink:title=" ">
<path fill="none" stroke="#63b8ff" d="M57.28,-919.09C61.41,-1051.74 85.79,-1742.39 147.25,-1811.12 155.25,-1820.07 165.5,-1826.35 176.65,-1830.72"/>
<polygon fill="#63b8ff" stroke="#63b8ff" points="60.78,-919.14 56.98,-909.25 53.78,-919.36 60.78,-919.14"/>
</a>
</g>
</g>
<!-- Node3 -->
<g id="Node000003" class="node">
<title>Node3</title>
<g id="a_Node000003"><a xlink:href="classllzk_1_1impl_1_1CallGraphSCCsPrinterPassBase.html" target="_top" xlink:title=" ">
<polygon fill="white" stroke="#666666" points="359,-1802.25 181,-1802.25 181,-1756 359,-1756 359,-1802.25"/>
<text text-anchor="start" x="189" y="-1788.75" font-family="Helvetica,sans-Serif" font-size="10.00">llzk::impl::CallGraphSCCs</text>
<text text-anchor="start" x="189" y="-1776" font-family="Helvetica,sans-Serif" font-size="10.00">PrinterPassBase&lt; CallGraphSCCs</text>
<text text-anchor="middle" x="270" y="-1763.25" font-family="Helvetica,sans-Serif" font-size="10.00">PrinterPass &gt;</text>
</a>
</g>
</g>
<!-- Node0&#45;&gt;Node3 -->
<g id="edge768_Node000000_Node000003" class="edge">
<title>Node0&#45;&gt;Node3</title>
<g id="a_edge768_Node000000_Node000003"><a xlink:title=" ">
<path fill="none" stroke="#63b8ff" d="M57.5,-919.08C62.72,-1045.99 91.55,-1682.32 147.25,-1747.12 156.15,-1757.48 167.97,-1764.69 180.74,-1769.67"/>
<polygon fill="#63b8ff" stroke="#63b8ff" points="61,-919.21 57.1,-909.36 54.01,-919.5 61,-919.21"/>
</a>
</g>
</g>
<!-- Node5 -->
<g id="Node000005" class="node">
<title>Node5</title>
<g id="a_Node000005"><a xlink:href="classllzk_1_1impl_1_1ComputeConstrainToProductPassBase.html" target="_top" xlink:title=" ">
<polygon fill="white" stroke="#666666" points="375.5,-1738.25 164.5,-1738.25 164.5,-1692 375.5,-1692 375.5,-1738.25"/>
<text text-anchor="start" x="172.5" y="-1724.75" font-family="Helvetica,sans-Serif" font-size="10.00">llzk::impl::ComputeConstrain</text>
<text text-anchor="start" x="172.5" y="-1712" font-family="Helvetica,sans-Serif" font-size="10.00">ToProductPassBase&lt; ComputeConstrain</text>
<text text-anchor="middle" x="270" y="-1699.25" font-family="Helvetica,sans-Serif" font-size="10.00">ToProductPass &gt;</text>
</a>
</g>
</g>
<!-- Node0&#45;&gt;Node5 -->
<g id="edge770_Node000000_Node000005" class="edge">
<title>Node0&#45;&gt;Node5</title>
<g id="a_edge770_Node000000_Node000005"><a xlink:title=" ">
<path fill="none" stroke="#63b8ff" d="M57.71,-919.29C63.82,-1040.88 95.7,-1623.67 147.25,-1683.12 152.12,-1688.74 157.84,-1693.43 164.1,-1697.33"/>
<polygon fill="#63b8ff" stroke="#63b8ff" points="61.21,-919.21 57.21,-909.39 54.21,-919.55 61.21,-919.21"/>
</a>
</g>
</g>
<!-- Node7 -->
<g id="Node000007" class="node">
<title>Node7</title>
<g id="a_Node000007"><a xlink:href="classllzk_1_1impl_1_1ConstraintDependencyGraphPrinterPassBase.html" target="_top" xlink:title=" ">
<polygon fill="white" stroke="#666666" points="392.75,-1674.25 147.25,-1674.25 147.25,-1628 392.75,-1628 392.75,-1674.25"/>
<text text-anchor="start" x="155.25" y="-1660.75" font-family="Helvetica,sans-Serif" font-size="10.00">llzk::impl::ConstraintDependency</text>
<text text-anchor="start" x="155.25" y="-1648" font-family="Helvetica,sans-Serif" font-size="10.00">GraphPrinterPassBase&lt; ConstraintDependency</text>
<text text-anchor="middle" x="270" y="-1635.25" font-family="Helvetica,sans-Serif" font-size="10.00">GraphPrinterPass &gt;</text>
</a>
</g>
</g>
<!-- Node0&#45;&gt;Node7 -->
<g id="edge772_Node000000_Node000007" class="edge">
<title>Node0&#45;&gt;Node7</title>
<g id="a_edge772_Node000000_Node000007"><a xlink:title=" ">
<path fill="none" stroke="#63b8ff" d="M56.2,-919.33C54.58,-1028.96 52.97,-1511.48 147.25,-1619.12 149.99,-1622.25 152.99,-1625.08 156.2,-1627.66"/>
<polygon fill="#63b8ff" stroke="#63b8ff" points="59.7,-919.43 56.37,-909.37 52.7,-919.31 59.7,-919.43"/>
</a>
</g>
</g>
<!-- Node9 -->
<g id="Node000009" class="node">
<title>Node9</title>
<g id="a_Node000009"><a xlink:href="classllzk_1_1impl_1_1EnforceNoMemberOverwritePassBase.html" target="_top" xlink:title=" ">
<polygon fill="white" stroke="#666666" points="375.88,-1610.25 164.12,-1610.25 164.12,-1564 375.88,-1564 375.88,-1610.25"/>
<text text-anchor="start" x="172.12" y="-1596.75" font-family="Helvetica,sans-Serif" font-size="10.00">llzk::impl::EnforceNoMember</text>
<text text-anchor="start" x="172.12" y="-1584" font-family="Helvetica,sans-Serif" font-size="10.00">OverwritePassBase&lt; EnforceNoMember</text>
<text text-anchor="middle" x="270" y="-1571.25" font-family="Helvetica,sans-Serif" font-size="10.00">OverwritePass &gt;</text>
</a>
</g>
</g>
<!-- Node0&#45;&gt;Node9 -->
<g id="edge774_Node000000_Node000009" class="edge">
<title>Node0&#45;&gt;Node9</title>
<g id="a_edge774_Node000000_Node000009"><a xlink:title=" ">
<path fill="none" stroke="#63b8ff" d="M56.5,-918.97C56.39,-1021.93 61.05,-1457.89 147.25,-1555.12 152.03,-1560.52 157.61,-1565.06 163.69,-1568.87"/>
<polygon fill="#63b8ff" stroke="#63b8ff" points="60,-919.16 56.54,-909.15 53,-919.14 60,-919.16"/>
</a>
</g>
</g>
<!-- Node11 -->
<g id="Node000011" class="node">
<title>Node11</title>
<g id="a_Node000011"><a xlink:href="classllzk_1_1impl_1_1FuseProductLoopsPassBase.html" target="_top" xlink:title=" ">
<polygon fill="white" stroke="#666666" points="366.88,-1545.88 173.12,-1545.88 173.12,-1512.38 366.88,-1512.38 366.88,-1545.88"/>
<text text-anchor="start" x="181.12" y="-1532.38" font-family="Helvetica,sans-Serif" font-size="10.00">llzk::impl::FuseProductLoops</text>
<text text-anchor="middle" x="270" y="-1519.62" font-family="Helvetica,sans-Serif" font-size="10.00">PassBase&lt; FuseProductLoopsPass &gt;</text>
</a>
</g>
</g>
<!-- Node0&#45;&gt;Node11 -->
<g id="edge776_Node000000_Node000011" class="edge">
<title>Node0&#45;&gt;Node11</title>
<g id="a_edge776_Node000000_Node000011"><a xlink:title=" ">
<path fill="none" stroke="#63b8ff" d="M56.69,-919.17C57.47,-1017.65 65.67,-1416.33 147.25,-1503.12 154.43,-1510.76 163.26,-1516.44 172.85,-1520.63"/>
<polygon fill="#63b8ff" stroke="#63b8ff" points="60.2,-919.27 56.64,-909.29 53.2,-919.31 60.2,-919.27"/>
</a>
</g>
</g>
<!-- Node13 -->
<g id="Node000013" class="node">
<title>Node13</title>
<g id="a_Node000013"><a xlink:href="classllzk_1_1impl_1_1IntervalAnalysisPrinterPassBase.html" target="_top" xlink:title=" ">
<polygon fill="white" stroke="#666666" points="362,-1494.25 178,-1494.25 178,-1448 362,-1448 362,-1494.25"/>
<text text-anchor="start" x="186" y="-1480.75" font-family="Helvetica,sans-Serif" font-size="10.00">llzk::impl::IntervalAnalysis</text>
<text text-anchor="start" x="186" y="-1468" font-family="Helvetica,sans-Serif" font-size="10.00">PrinterPassBase&lt; IntervalAnalysis</text>
<text text-anchor="middle" x="270" y="-1455.25" font-family="Helvetica,sans-Serif" font-size="10.00">PrinterPass &gt;</text>
</a>
</g>
</g>
<!-- Node0&#45;&gt;Node13 -->
<g id="edge778_Node000000_Node000013" class="edge">
<title>Node0&#45;&gt;Node13</title>
<g id="a_edge778_Node000000_Node000013"><a xlink:title=" ">
<path fill="none" stroke="#63b8ff" d="M57.23,-919.34C60.16,-1011.3 75.92,-1360.96 147.25,-1439.12 155.57,-1448.25 166.15,-1454.9 177.59,-1459.73"/>
<polygon fill="#63b8ff" stroke="#63b8ff" points="60.73,-919.32 56.93,-909.43 53.73,-919.53 60.73,-919.32"/>
</a>
</g>
</g>
<!-- Node15 -->
<g id="Node000015" class="node">
<title>Node15</title>
<g id="a_Node000015"><a xlink:href="classllzk_1_1impl_1_1PredecessorPrinterPassBase.html" target="_top" xlink:title=" ">
<polygon fill="white" stroke="#666666" points="368.75,-1429.88 171.25,-1429.88 171.25,-1396.38 368.75,-1396.38 368.75,-1429.88"/>
<text text-anchor="start" x="179.25" y="-1416.38" font-family="Helvetica,sans-Serif" font-size="10.00">llzk::impl::PredecessorPrinter</text>
<text text-anchor="middle" x="270" y="-1403.62" font-family="Helvetica,sans-Serif" font-size="10.00">PassBase&lt; PredecessorPrinterPass &gt;</text>
</a>
</g>
</g>
<!-- Node0&#45;&gt;Node15 -->
<g id="edge780_Node000000_Node000015" class="edge">
<title>Node0&#45;&gt;Node15</title>
<g id="a_edge780_Node000000_Node000015"><a xlink:title=" ">
<path fill="none" stroke="#63b8ff" d="M57.55,-919.19C61.62,-1005.51 80.83,-1318.85 147.25,-1387.12 154.03,-1394.1 162.19,-1399.42 171.04,-1403.46"/>
<polygon fill="#63b8ff" stroke="#63b8ff" points="61.05,-919.1 57.11,-909.27 54.06,-919.42 61.05,-919.1"/>
</a>
</g>
</g>
<!-- Node17 -->
<g id="Node000017" class="node">
<title>Node17</title>
<g id="a_Node000017"><a xlink:href="classllzk_1_1impl_1_1SymbolDefTreePrinterPassBase.html" target="_top" xlink:title=" ">
<polygon fill="white" stroke="#666666" points="359.75,-1378.25 180.25,-1378.25 180.25,-1332 359.75,-1332 359.75,-1378.25"/>
<text text-anchor="start" x="188.25" y="-1364.75" font-family="Helvetica,sans-Serif" font-size="10.00">llzk::impl::SymbolDefTree</text>
<text text-anchor="start" x="188.25" y="-1352" font-family="Helvetica,sans-Serif" font-size="10.00">PrinterPassBase&lt; SymbolDefTree</text>
<text text-anchor="middle" x="270" y="-1339.25" font-family="Helvetica,sans-Serif" font-size="10.00">Pass &gt;</text>
</a>
</g>
</g>
<!-- Node0&#45;&gt;Node17 -->
<g id="edge782_Node000000_Node000017" class="edge">
<title>Node0&#45;&gt;Node17</title>
<g id="a_edge782_Node000000_Node000017"><a xlink:title=" ">
<path fill="none" stroke="#63b8ff" d="M58.32,-919.21C64.79,-997.97 90.53,-1263.65 147.25,-1323.12 156.22,-1332.54 167.6,-1339.3 179.79,-1344.14"/>
<polygon fill="#63b8ff" stroke="#63b8ff" points="61.82,-919.06 57.53,-909.36 54.84,-919.61 61.82,-919.06"/>
</a>
</g>
</g>
<!-- Node19 -->
<g id="Node000019" class="node">
<title>Node19</title>
<g id="a_Node000019"><a xlink:href="classllzk_1_1impl_1_1SymbolUseGraphPrinterPassBase.html" target="_top" xlink:title=" ">
<polygon fill="white" stroke="#666666" points="365,-1314.25 175,-1314.25 175,-1268 365,-1268 365,-1314.25"/>
<text text-anchor="start" x="183" y="-1300.75" font-family="Helvetica,sans-Serif" font-size="10.00">llzk::impl::SymbolUseGraph</text>
<text text-anchor="start" x="183" y="-1288" font-family="Helvetica,sans-Serif" font-size="10.00">PrinterPassBase&lt; SymbolUseGraph</text>
<text text-anchor="middle" x="270" y="-1275.25" font-family="Helvetica,sans-Serif" font-size="10.00">Pass &gt;</text>
</a>
</g>
</g>
<!-- Node0&#45;&gt;Node19 -->
<g id="edge784_Node000000_Node000019" class="edge">
<title>Node0&#45;&gt;Node19</title>
<g id="a_edge784_Node000000_Node000019"><a xlink:title=" ">
<path fill="none" stroke="#63b8ff" d="M59.19,-919.04C67.89,-989.69 98.49,-1209.79 147.25,-1259.12 155.01,-1266.97 164.44,-1272.97 174.59,-1277.54"/>
<polygon fill="#63b8ff" stroke="#63b8ff" points="62.71,-919.01 58.04,-909.5 55.76,-919.84 62.71,-919.01"/>
</a>
</g>
</g>
<!-- Node21 -->
<g id="Node000021" class="node">
<title>Node21</title>
<g id="a_Node000021"><a xlink:href="classllzk_1_1impl_1_1WhileToForPassBase.html" target="_top" xlink:title=" ">
<polygon fill="white" stroke="#666666" points="341,-1249.88 199,-1249.88 199,-1216.38 341,-1216.38 341,-1249.88"/>
<text text-anchor="start" x="207" y="-1236.38" font-family="Helvetica,sans-Serif" font-size="10.00">llzk::impl::WhileToForPass</text>
<text text-anchor="middle" x="270" y="-1223.62" font-family="Helvetica,sans-Serif" font-size="10.00">Base&lt; WhileToForPass &gt;</text>
</a>
</g>
</g>
<!-- Node0&#45;&gt;Node21 -->
<g id="edge786_Node000000_Node000021" class="edge">
<title>Node0&#45;&gt;Node21</title>
<g id="a_edge786_Node000000_Node000021"><a xlink:title=" ">
<path fill="none" stroke="#63b8ff" d="M55.96,-919.05C55.51,-975.8 62.64,-1128.55 147.25,-1207.12 161.19,-1220.07 179.93,-1227.18 198.53,-1230.95"/>
<polygon fill="#63b8ff" stroke="#63b8ff" points="59.45,-919.47 56.13,-909.41 52.45,-919.34 59.45,-919.47"/>
</a>
</g>
</g>
<!-- Node23 -->
<g id="Node000023" class="node">
<title>Node23</title>
<g id="a_Node000023"><a xlink:href="classllzk_1_1polymorphic_1_1impl_1_1FlatteningPassBase.html" target="_top" xlink:title=" ">
<polygon fill="white" stroke="#666666" points="339.5,-1198.25 200.5,-1198.25 200.5,-1152 339.5,-1152 339.5,-1198.25"/>
<text text-anchor="start" x="208.5" y="-1184.75" font-family="Helvetica,sans-Serif" font-size="10.00">llzk::polymorphic::</text>
<text text-anchor="start" x="208.5" y="-1172" font-family="Helvetica,sans-Serif" font-size="10.00">impl::FlatteningPassBase</text>
<text text-anchor="middle" x="270" y="-1159.25" font-family="Helvetica,sans-Serif" font-size="10.00">&lt; FlatteningPass &gt;</text>
</a>
</g>
</g>
<!-- Node0&#45;&gt;Node23 -->
<g id="edge788_Node000000_Node000023" class="edge">
<title>Node0&#45;&gt;Node23</title>
<g id="a_edge788_Node000000_Node000023"><a xlink:title=" ">
<path fill="none" stroke="#63b8ff" d="M58.12,-919.08C62.6,-967.13 80.14,-1082.16 147.25,-1143.12 161.81,-1156.35 181.18,-1164.23 200.18,-1168.89"/>
<polygon fill="#63b8ff" stroke="#63b8ff" points="61.63,-919.08 57.33,-909.4 54.65,-919.65 61.63,-919.08"/>
</a>
</g>
</g>
<!-- Node24 -->
<g id="Node000024" class="node">
<title>Node24</title>
<g id="a_Node000024"><a xlink:href="classllzk_1_1array_1_1impl_1_1ArrayToScalarPassBase.html" target="_top" xlink:title=" ">
<polygon fill="white" stroke="#666666" points="334.25,-1134.25 205.75,-1134.25 205.75,-1088 334.25,-1088 334.25,-1134.25"/>
<text text-anchor="start" x="213.75" y="-1120.75" font-family="Helvetica,sans-Serif" font-size="10.00">llzk::array::impl::</text>
<text text-anchor="start" x="213.75" y="-1108" font-family="Helvetica,sans-Serif" font-size="10.00">ArrayToScalarPassBase</text>
<text text-anchor="middle" x="270" y="-1095.25" font-family="Helvetica,sans-Serif" font-size="10.00">&lt; DerivedT &gt;</text>
</a>
</g>
</g>
<!-- Node0&#45;&gt;Node24 -->
<g id="edge789_Node000000_Node000024" class="edge">
<title>Node0&#45;&gt;Node24</title>
<g id="a_edge789_Node000000_Node000024"><a xlink:title=" ">
<path fill="none" stroke="#63b8ff" d="M61.16,-918.5C70.4,-956.72 95.12,-1036.72 147.25,-1079.12 163.7,-1092.5 185.16,-1100.34 205.47,-1104.91"/>
<polygon fill="#63b8ff" stroke="#63b8ff" points="64.66,-918.11 59.02,-909.14 57.83,-919.67 64.66,-918.11"/>
</a>
</g>
</g>
<!-- Node25 -->
<g id="Node000025" class="node">
<title>Node25</title>
<g id="a_Node000025"><a xlink:href="classllzk_1_1impl_1_1CallGraphPrinterPassBase.html" target="_top" xlink:title=" ">
<polygon fill="white" stroke="#666666" points="343.62,-1069.88 196.38,-1069.88 196.38,-1036.38 343.62,-1036.38 343.62,-1069.88"/>
<text text-anchor="start" x="204.38" y="-1056.38" font-family="Helvetica,sans-Serif" font-size="10.00">llzk::impl::CallGraphPrinter</text>
<text text-anchor="middle" x="270" y="-1043.62" font-family="Helvetica,sans-Serif" font-size="10.00">PassBase&lt; DerivedT &gt;</text>
</a>
</g>
</g>
<!-- Node0&#45;&gt;Node25 -->
<g id="edge790_Node000000_Node000025" class="edge">
<title>Node0&#45;&gt;Node25</title>
<g id="a_edge790_Node000000_Node000025"><a xlink:title=" ">
<path fill="none" stroke="#63b8ff" d="M65.3,-918.27C78.47,-947.57 106.38,-999.98 147.25,-1027.12 161.65,-1036.69 178.95,-1042.82 195.91,-1046.72"/>
<polygon fill="#63b8ff" stroke="#63b8ff" points="68.62,-917.12 61.44,-909.32 62.19,-919.89 68.62,-917.12"/>
</a>
</g>
</g>
<!-- Node26 -->
<g id="Node000026" class="node">
<title>Node26</title>
<g id="a_Node000026"><a xlink:href="classllzk_1_1impl_1_1CallGraphSCCsPrinterPassBase.html" target="_top" xlink:title=" ">
<polygon fill="white" stroke="#666666" points="350.38,-1017.88 189.62,-1017.88 189.62,-984.38 350.38,-984.38 350.38,-1017.88"/>
<text text-anchor="start" x="197.62" y="-1004.38" font-family="Helvetica,sans-Serif" font-size="10.00">llzk::impl::CallGraphSCCs</text>
<text text-anchor="middle" x="270" y="-991.62" font-family="Helvetica,sans-Serif" font-size="10.00">PrinterPassBase&lt; DerivedT &gt;</text>
</a>
</g>
</g>
<!-- Node0&#45;&gt;Node26 -->
<g id="edge791_Node000000_Node000026" class="edge">
<title>Node0&#45;&gt;Node26</title>
<g id="a_edge791_Node000000_Node000026"><a xlink:title=" ">
<path fill="none" stroke="#63b8ff" d="M73.07,-915.92C89.89,-933.93 117.69,-960.46 147.25,-975.12 160.32,-981.61 174.96,-986.48 189.44,-990.14"/>
<polygon fill="#63b8ff" stroke="#63b8ff" points="76.07,-914.02 66.75,-908.98 70.89,-918.73 76.07,-914.02"/>
</a>
</g>
</g>
<!-- Node27 -->
<g id="Node000027" class="node">
<title>Node27</title>
<g id="a_Node000027"><a xlink:href="classllzk_1_1impl_1_1ComputeConstrainToProductPassBase.html" target="_top" xlink:title=" ">
<polygon fill="white" stroke="#666666" points="357.88,-965.88 182.12,-965.88 182.12,-932.38 357.88,-932.38 357.88,-965.88"/>
<text text-anchor="start" x="190.12" y="-952.38" font-family="Helvetica,sans-Serif" font-size="10.00">llzk::impl::ComputeConstrain</text>
<text text-anchor="middle" x="270" y="-939.62" font-family="Helvetica,sans-Serif" font-size="10.00">ToProductPassBase&lt; DerivedT &gt;</text>
</a>
</g>
</g>
<!-- Node0&#45;&gt;Node27 -->
<g id="edge792_Node000000_Node000027" class="edge">
<title>Node0&#45;&gt;Node27</title>
<g id="a_edge792_Node000000_Node000027"><a xlink:title=" ">
<path fill="none" stroke="#63b8ff" d="M103.15,-911.14C117.26,-915.21 132.84,-919.52 147.25,-923.12 159.31,-926.14 172.09,-929.11 184.66,-931.91"/>
<polygon fill="#63b8ff" stroke="#63b8ff" points="104.23,-907.81 93.65,-908.37 102.27,-914.53 104.23,-907.81"/>
</a>
</g>
</g>
<!-- Node28 -->
<g id="Node000028" class="node">
<title>Node28</title>
<g id="a_Node000028"><a xlink:href="classllzk_1_1impl_1_1ConstraintDependencyGraphPrinterPassBase.html" target="_top" xlink:title=" ">
<polygon fill="white" stroke="#666666" points="365,-913.88 175,-913.88 175,-880.38 365,-880.38 365,-913.88"/>
<text text-anchor="start" x="183" y="-900.38" font-family="Helvetica,sans-Serif" font-size="10.00">llzk::impl::ConstraintDependency</text>
<text text-anchor="middle" x="270" y="-887.62" font-family="Helvetica,sans-Serif" font-size="10.00">GraphPrinterPassBase&lt; DerivedT &gt;</text>
</a>
</g>
</g>
<!-- Node0&#45;&gt;Node28 -->
<g id="edge793_Node000000_Node000028" class="edge">
<title>Node0&#45;&gt;Node28</title>
<g id="a_edge793_Node000000_Node000028"><a xlink:title=" ">
<path fill="none" stroke="#63b8ff" d="M122.74,-897.12C139.21,-897.12 157.2,-897.12 174.75,-897.12"/>
<polygon fill="#63b8ff" stroke="#63b8ff" points="123.11,-893.63 113.11,-897.13 123.11,-900.63 123.11,-893.63"/>
</a>
</g>
</g>
<!-- Node29 -->
<g id="Node000029" class="node">
<title>Node29</title>
<g id="a_Node000029"><a xlink:href="classllzk_1_1impl_1_1EnforceNoMemberOverwritePassBase.html" target="_top" xlink:title=" ">
<polygon fill="white" stroke="#666666" points="358.25,-861.88 181.75,-861.88 181.75,-828.38 358.25,-828.38 358.25,-861.88"/>
<text text-anchor="start" x="189.75" y="-848.38" font-family="Helvetica,sans-Serif" font-size="10.00">llzk::impl::EnforceNoMember</text>
<text text-anchor="middle" x="270" y="-835.62" font-family="Helvetica,sans-Serif" font-size="10.00">OverwritePassBase&lt; DerivedT &gt;</text>
</a>
</g>
</g>
<!-- Node0&#45;&gt;Node29 -->
<g id="edge794_Node000000_Node000029" class="edge">
<title>Node0&#45;&gt;Node29</title>
<g id="a_edge794_Node000000_Node000029"><a xlink:title=" ">
<path fill="none" stroke="#63b8ff" d="M103.15,-883.11C117.26,-879.04 132.84,-874.73 147.25,-871.12 159.31,-868.11 172.09,-865.14 184.66,-862.34"/>
<polygon fill="#63b8ff" stroke="#63b8ff" points="102.27,-879.72 93.65,-885.88 104.23,-886.44 102.27,-879.72"/>
</a>
</g>
</g>
<!-- Node30 -->
<g id="Node000030" class="node">
<title>Node30</title>
<g id="a_Node000030"><a xlink:href="classllzk_1_1impl_1_1FuseProductLoopsPassBase.html" target="_top" xlink:title=" ">
<polygon fill="white" stroke="#666666" points="347.38,-809.88 192.62,-809.88 192.62,-776.38 347.38,-776.38 347.38,-809.88"/>
<text text-anchor="start" x="200.62" y="-796.38" font-family="Helvetica,sans-Serif" font-size="10.00">llzk::impl::FuseProductLoops</text>
<text text-anchor="middle" x="270" y="-783.62" font-family="Helvetica,sans-Serif" font-size="10.00">PassBase&lt; DerivedT &gt;</text>
</a>
</g>
</g>
<!-- Node0&#45;&gt;Node30 -->
<g id="edge795_Node000000_Node000030" class="edge">
<title>Node0&#45;&gt;Node30</title>
<g id="a_edge795_Node000000_Node000030"><a xlink:title=" ">
<path fill="none" stroke="#63b8ff" d="M73.07,-878.33C89.89,-860.32 117.69,-833.79 147.25,-819.12 161.19,-812.21 176.92,-807.13 192.33,-803.39"/>
<polygon fill="#63b8ff" stroke="#63b8ff" points="70.89,-875.52 66.75,-885.27 76.07,-880.23 70.89,-875.52"/>
</a>
</g>
</g>
<!-- Node31 -->
<g id="Node000031" class="node">
<title>Node31</title>
<g id="a_Node000031"><a xlink:href="classllzk_1_1impl_1_1InlineStructsPassBase.html" target="_top" xlink:title=" ">
<polygon fill="white" stroke="#666666" points="334.25,-757.88 205.75,-757.88 205.75,-724.38 334.25,-724.38 334.25,-757.88"/>
<text text-anchor="start" x="213.75" y="-744.38" font-family="Helvetica,sans-Serif" font-size="10.00">llzk::impl::InlineStructs</text>
<text text-anchor="middle" x="270" y="-731.62" font-family="Helvetica,sans-Serif" font-size="10.00">PassBase&lt; DerivedT &gt;</text>
</a>
</g>
</g>
<!-- Node0&#45;&gt;Node31 -->
<g id="edge796_Node000000_Node000031" class="edge">
<title>Node0&#45;&gt;Node31</title>
<g id="a_edge796_Node000000_Node000031"><a xlink:title=" ">
<path fill="none" stroke="#63b8ff" d="M65.3,-875.98C78.47,-846.68 106.38,-794.27 147.25,-767.12 164.36,-755.77 185.53,-749.26 205.4,-745.56"/>
<polygon fill="#63b8ff" stroke="#63b8ff" points="62.19,-874.36 61.44,-884.93 68.62,-877.13 62.19,-874.36"/>
</a>
</g>
</g>
<!-- Node32 -->
<g id="Node000032" class="node">
<title>Node32</title>
<g id="a_Node000032"><a xlink:href="classllzk_1_1impl_1_1IntervalAnalysisPrinterPassBase.html" target="_top" xlink:title=" ">
<polygon fill="white" stroke="#666666" points="350.38,-705.88 189.62,-705.88 189.62,-672.38 350.38,-672.38 350.38,-705.88"/>
<text text-anchor="start" x="197.62" y="-692.38" font-family="Helvetica,sans-Serif" font-size="10.00">llzk::impl::IntervalAnalysis</text>
<text text-anchor="middle" x="270" y="-679.62" font-family="Helvetica,sans-Serif" font-size="10.00">PrinterPassBase&lt; DerivedT &gt;</text>
</a>
</g>
</g>
<!-- Node0&#45;&gt;Node32 -->
<g id="edge797_Node000000_Node000032" class="edge">
<title>Node0&#45;&gt;Node32</title>
<g id="a_edge797_Node000000_Node000032"><a xlink:title=" ">
<path fill="none" stroke="#63b8ff" d="M61.02,-875.26C70.01,-836.55 94.26,-756.22 147.25,-715.12 159.38,-705.72 174.14,-699.53 189.15,-695.5"/>
<polygon fill="#63b8ff" stroke="#63b8ff" points="57.61,-874.47 58.91,-884.98 64.45,-875.96 57.61,-874.47"/>
</a>
</g>
</g>
<!-- Node33 -->
<g id="Node000033" class="node">
<title>Node33</title>
<g id="a_Node000033"><a xlink:href="classllzk_1_1impl_1_1MemberWriteValidatorPassBase.html" target="_top" xlink:title=" ">
<polygon fill="white" stroke="#666666" points="358.62,-653.88 181.38,-653.88 181.38,-620.38 358.62,-620.38 358.62,-653.88"/>
<text text-anchor="start" x="189.38" y="-640.38" font-family="Helvetica,sans-Serif" font-size="10.00">llzk::impl::MemberWriteValidator</text>
<text text-anchor="middle" x="270" y="-627.62" font-family="Helvetica,sans-Serif" font-size="10.00">PassBase&lt; DerivedT &gt;</text>
</a>
</g>
</g>
<!-- Node0&#45;&gt;Node33 -->
<g id="edge798_Node000000_Node000033" class="edge">
<title>Node0&#45;&gt;Node33</title>
<g id="a_edge798_Node000000_Node000033"><a xlink:title=" ">
<path fill="none" stroke="#63b8ff" d="M58.37,-875.08C63.31,-828.34 81.64,-719.05 147.25,-663.12 156.96,-654.85 168.65,-649.01 180.91,-644.92"/>
<polygon fill="#63b8ff" stroke="#63b8ff" points="54.89,-874.71 57.45,-884.99 61.86,-875.36 54.89,-874.71"/>
</a>
</g>
</g>
<!-- Node34 -->
<g id="Node000034" class="node">
<title>Node34</title>
<g id="a_Node000034"><a xlink:href="classllzk_1_1impl_1_1PolyLoweringPassBase.html" target="_top" xlink:title=" ">
<polygon fill="white" stroke="#666666" points="336.12,-601.88 203.88,-601.88 203.88,-568.38 336.12,-568.38 336.12,-601.88"/>
<text text-anchor="start" x="211.88" y="-588.38" font-family="Helvetica,sans-Serif" font-size="10.00">llzk::impl::PolyLowering</text>
<text text-anchor="middle" x="270" y="-575.62" font-family="Helvetica,sans-Serif" font-size="10.00">PassBase&lt; DerivedT &gt;</text>
</a>
</g>
</g>
<!-- Node0&#45;&gt;Node34 -->
<g id="edge799_Node000000_Node000034" class="edge">
<title>Node0&#45;&gt;Node34</title>
<g id="a_edge799_Node000000_Node000034"><a xlink:title=" ">
<path fill="none" stroke="#63b8ff" d="M56.59,-875.1C57.78,-821.31 68.71,-682.43 147.25,-611.12 162.53,-597.25 183.36,-590.11 203.46,-586.61"/>
<polygon fill="#63b8ff" stroke="#63b8ff" points="53.1,-874.77 56.48,-884.8 60.09,-874.84 53.1,-874.77"/>
</a>
</g>
</g>
<!-- Node35 -->
<g id="Node000035" class="node">
<title>Node35</title>
<g id="a_Node000035"><a xlink:href="classllzk_1_1impl_1_1PredecessorPrinterPassBase.html" target="_top" xlink:title=" ">
<polygon fill="white" stroke="#666666" points="349.25,-549.88 190.75,-549.88 190.75,-516.38 349.25,-516.38 349.25,-549.88"/>
<text text-anchor="start" x="198.75" y="-536.38" font-family="Helvetica,sans-Serif" font-size="10.00">llzk::impl::PredecessorPrinter</text>
<text text-anchor="middle" x="270" y="-523.62" font-family="Helvetica,sans-Serif" font-size="10.00">PassBase&lt; DerivedT &gt;</text>
</a>
</g>
</g>
<!-- Node0&#45;&gt;Node35 -->
<g id="edge800_Node000000_Node000035" class="edge">
<title>Node0&#45;&gt;Node35</title>
<g id="a_edge800_Node000000_Node000035"><a xlink:title=" ">
<path fill="none" stroke="#63b8ff" d="M59.49,-875.29C68.82,-807.67 100.38,-603.64 147.25,-559.12 159.08,-547.89 174.53,-541.02 190.42,-536.91"/>
<polygon fill="#63b8ff" stroke="#63b8ff" points="56.04,-874.7 58.17,-885.08 62.98,-875.64 56.04,-874.7"/>
</a>
</g>
</g>
<!-- Node36 -->
<g id="Node000036" class="node">
<title>Node36</title>
<g id="a_Node000036"><a xlink:href="classllzk_1_1impl_1_1RedundantOperationEliminationPassBase.html" target="_top" xlink:title=" ">
<polygon fill="white" stroke="#666666" points="362,-497.88 178,-497.88 178,-464.38 362,-464.38 362,-497.88"/>
<text text-anchor="start" x="186" y="-484.38" font-family="Helvetica,sans-Serif" font-size="10.00">llzk::impl::RedundantOperation</text>
<text text-anchor="middle" x="270" y="-471.62" font-family="Helvetica,sans-Serif" font-size="10.00">EliminationPassBase&lt; DerivedT &gt;</text>
</a>
</g>
</g>
<!-- Node0&#45;&gt;Node36 -->
<g id="edge801_Node000000_Node000036" class="edge">
<title>Node0&#45;&gt;Node36</title>
<g id="a_edge801_Node000000_Node000036"><a xlink:title=" ">
<path fill="none" stroke="#63b8ff" d="M58.65,-875.39C65.99,-801.22 93.69,-559.73 147.25,-507.12 155.81,-498.72 166.38,-492.74 177.68,-488.52"/>
<polygon fill="#63b8ff" stroke="#63b8ff" points="55.2,-874.72 57.72,-885.01 62.16,-875.39 55.2,-874.72"/>
</a>
</g>
</g>
<!-- Node37 -->
<g id="Node000037" class="node">
<title>Node37</title>
<g id="a_Node000037"><a xlink:href="classllzk_1_1impl_1_1RedundantReadAndWriteEliminationPassBase.html" target="_top" xlink:title=" ">
<polygon fill="white" stroke="#666666" points="351.12,-446.25 188.88,-446.25 188.88,-400 351.12,-400 351.12,-446.25"/>
<text text-anchor="start" x="196.88" y="-432.75" font-family="Helvetica,sans-Serif" font-size="10.00">llzk::impl::RedundantRead</text>
<text text-anchor="start" x="196.88" y="-420" font-family="Helvetica,sans-Serif" font-size="10.00">AndWriteEliminationPassBase</text>
<text text-anchor="middle" x="270" y="-407.25" font-family="Helvetica,sans-Serif" font-size="10.00">&lt; DerivedT &gt;</text>
</a>
</g>
</g>
<!-- Node0&#45;&gt;Node37 -->
<g id="edge802_Node000000_Node000037" class="edge">
<title>Node0&#45;&gt;Node37</title>
<g id="a_edge802_Node000000_Node000037"><a xlink:title=" ">
<path fill="none" stroke="#63b8ff" d="M58.12,-875.25C64.03,-794.87 88.47,-517.22 147.25,-455.12 158.29,-443.46 173.03,-435.85 188.43,-430.94"/>
<polygon fill="#63b8ff" stroke="#63b8ff" points="54.65,-874.66 57.43,-884.89 61.63,-875.16 54.65,-874.66"/>
</a>
</g>
</g>
<!-- Node38 -->
<g id="Node000038" class="node">
<title>Node38</title>
<g id="a_Node000038"><a xlink:href="classllzk_1_1impl_1_1SymbolDefTreePrinterPassBase.html" target="_top" xlink:title=" ">
<polygon fill="white" stroke="#666666" points="350.38,-381.88 189.62,-381.88 189.62,-348.38 350.38,-348.38 350.38,-381.88"/>
<text text-anchor="start" x="197.62" y="-368.38" font-family="Helvetica,sans-Serif" font-size="10.00">llzk::impl::SymbolDefTree</text>
<text text-anchor="middle" x="270" y="-355.62" font-family="Helvetica,sans-Serif" font-size="10.00">PrinterPassBase&lt; DerivedT &gt;</text>
</a>
</g>
</g>
<!-- Node0&#45;&gt;Node38 -->
<g id="edge803_Node000000_Node000038" class="edge">
<title>Node0&#45;&gt;Node38</title>
<g id="a_edge803_Node000000_Node000038"><a xlink:title=" ">
<path fill="none" stroke="#63b8ff" d="M57.4,-875.19C60.98,-787.31 78.72,-461.97 147.25,-391.12 158.52,-379.47 173.64,-372.42 189.38,-368.27"/>
<polygon fill="#63b8ff" stroke="#63b8ff" points="53.91,-874.94 57.03,-885.07 60.91,-875.21 53.91,-874.94"/>
</a>
</g>
</g>
<!-- Node39 -->
<g id="Node000039" class="node">
<title>Node39</title>
<g id="a_Node000039"><a xlink:href="classllzk_1_1impl_1_1SymbolUseGraphPrinterPassBase.html" target="_top" xlink:title=" ">
<polygon fill="white" stroke="#666666" points="350.38,-329.88 189.62,-329.88 189.62,-296.38 350.38,-296.38 350.38,-329.88"/>
<text text-anchor="start" x="197.62" y="-316.38" font-family="Helvetica,sans-Serif" font-size="10.00">llzk::impl::SymbolUseGraph</text>
<text text-anchor="middle" x="270" y="-303.62" font-family="Helvetica,sans-Serif" font-size="10.00">PrinterPassBase&lt; DerivedT &gt;</text>
</a>
</g>
</g>
<!-- Node0&#45;&gt;Node39 -->
<g id="edge804_Node000000_Node000039" class="edge">
<title>Node0&#45;&gt;Node39</title>
<g id="a_edge804_Node000000_Node000039"><a xlink:title=" ">
<path fill="none" stroke="#63b8ff" d="M57.01,-875.06C59.09,-781.45 71.96,-418.23 147.25,-339.12 158.43,-327.38 173.5,-320.29 189.24,-316.13"/>
<polygon fill="#63b8ff" stroke="#63b8ff" points="53.51,-874.85 56.81,-884.91 60.51,-874.99 53.51,-874.85"/>
</a>
</g>
</g>
<!-- Node40 -->
<g id="Node000040" class="node">
<title>Node40</title>
<g id="a_Node000040"><a xlink:href="classllzk_1_1impl_1_1UnusedDeclarationEliminationPassBase.html" target="_top" xlink:title=" ">
<polygon fill="white" stroke="#666666" points="362,-277.88 178,-277.88 178,-244.38 362,-244.38 362,-277.88"/>
<text text-anchor="start" x="186" y="-264.38" font-family="Helvetica,sans-Serif" font-size="10.00">llzk::impl::UnusedDeclaration</text>
<text text-anchor="middle" x="270" y="-251.62" font-family="Helvetica,sans-Serif" font-size="10.00">EliminationPassBase&lt; DerivedT &gt;</text>
</a>
</g>
</g>
<!-- Node0&#45;&gt;Node40 -->
<g id="edge805_Node000000_Node000040" class="edge">
<title>Node0&#45;&gt;Node40</title>
<g id="a_edge805_Node000000_Node000040"><a xlink:title=" ">
<path fill="none" stroke="#63b8ff" d="M56.67,-874.94C57.35,-775.81 65.19,-374.52 147.25,-287.12 155.61,-278.22 166.21,-271.98 177.65,-267.67"/>
<polygon fill="#63b8ff" stroke="#63b8ff" points="53.17,-874.88 56.63,-884.89 60.17,-874.91 53.17,-874.88"/>
</a>
</g>
</g>
<!-- Node41 -->
<g id="Node000041" class="node">
<title>Node41</title>
<g id="a_Node000041"><a xlink:href="classllzk_1_1impl_1_1WhileToForPassBase.html" target="_top" xlink:title=" ">
<polygon fill="white" stroke="#666666" points="341,-225.88 199,-225.88 199,-192.38 341,-192.38 341,-225.88"/>
<text text-anchor="start" x="207" y="-212.38" font-family="Helvetica,sans-Serif" font-size="10.00">llzk::impl::WhileToForPass</text>
<text text-anchor="middle" x="270" y="-199.62" font-family="Helvetica,sans-Serif" font-size="10.00">Base&lt; DerivedT &gt;</text>
</a>
</g>
</g>
<!-- Node0&#45;&gt;Node41 -->
<g id="edge806_Node000000_Node000041" class="edge">
<title>Node0&#45;&gt;Node41</title>
<g id="a_edge806_Node000000_Node000041"><a xlink:title=" ">
<path fill="none" stroke="#63b8ff" d="M56.39,-875.06C55.73,-771.08 58.32,-330.92 147.25,-235.12 160.48,-220.87 179.46,-213.42 198.51,-209.76"/>
<polygon fill="#63b8ff" stroke="#63b8ff" points="52.89,-875.02 56.47,-884.99 59.89,-874.97 52.89,-875.02"/>
</a>
</g>
</g>
<!-- Node42 -->
<g id="Node000042" class="node">
<title>Node42</title>
<g id="a_Node000042"><a xlink:href="classllzk_1_1include_1_1impl_1_1InlineIncludesPassBase.html" target="_top" xlink:title=" ">
<polygon fill="white" stroke="#666666" points="337.62,-174.25 202.38,-174.25 202.38,-128 337.62,-128 337.62,-174.25"/>
<text text-anchor="start" x="210.38" y="-160.75" font-family="Helvetica,sans-Serif" font-size="10.00">llzk::include::impl</text>
<text text-anchor="start" x="210.38" y="-148" font-family="Helvetica,sans-Serif" font-size="10.00">::InlineIncludesPassBase</text>
<text text-anchor="middle" x="270" y="-135.25" font-family="Helvetica,sans-Serif" font-size="10.00">&lt; DerivedT &gt;</text>
</a>
</g>
</g>
<!-- Node0&#45;&gt;Node42 -->
<g id="edge807_Node000000_Node000042" class="edge">
<title>Node0&#45;&gt;Node42</title>
<g id="a_edge807_Node000000_Node000042"><a xlink:title=" ">
<path fill="none" stroke="#63b8ff" d="M56.24,-874.82C54.8,-765.73 54.02,-289.42 147.25,-183.12 161.08,-167.35 181.66,-158.91 201.98,-154.52"/>
<polygon fill="#63b8ff" stroke="#63b8ff" points="52.74,-874.79 56.39,-884.74 59.74,-874.69 52.74,-874.79"/>
</a>
</g>
</g>
<!-- Node43 -->
<g id="Node000043" class="node">
<title>Node43</title>
<g id="a_Node000043"><a xlink:href="classllzk_1_1polymorphic_1_1impl_1_1EmptyTemplateRemovalPassBase.html" target="_top" xlink:title=" ">
<polygon fill="white" stroke="#666666" points="351.88,-110.25 188.12,-110.25 188.12,-64 351.88,-64 351.88,-110.25"/>
<text text-anchor="start" x="196.12" y="-96.75" font-family="Helvetica,sans-Serif" font-size="10.00">llzk::polymorphic::</text>
<text text-anchor="start" x="196.12" y="-84" font-family="Helvetica,sans-Serif" font-size="10.00">impl::EmptyTemplateRemoval</text>
<text text-anchor="middle" x="270" y="-71.25" font-family="Helvetica,sans-Serif" font-size="10.00">PassBase&lt; DerivedT &gt;</text>
</a>
</g>
</g>
<!-- Node0&#45;&gt;Node43 -->
<g id="edge808_Node000000_Node000043" class="edge">
<title>Node0&#45;&gt;Node43</title>
<g id="a_edge808_Node000000_Node000043"><a xlink:title=" ">
<path fill="none" stroke="#63b8ff" d="M57.72,-875.19C63.93,-754.83 96.18,-177.95 147.25,-119.12 157.78,-106.99 172.3,-99.19 187.65,-94.23"/>
<polygon fill="#63b8ff" stroke="#63b8ff" points="54.24,-874.8 57.22,-884.97 61.23,-875.16 54.24,-874.8"/>
</a>
</g>
</g>
<!-- Node44 -->
<g id="Node000044" class="node">
<title>Node44</title>
<g id="a_Node000044"><a xlink:href="classllzk_1_1polymorphic_1_1impl_1_1FlatteningPassBase.html" target="_top" xlink:title=" ">
<polygon fill="white" stroke="#666666" points="339.5,-46.25 200.5,-46.25 200.5,0 339.5,0 339.5,-46.25"/>
<text text-anchor="start" x="208.5" y="-32.75" font-family="Helvetica,sans-Serif" font-size="10.00">llzk::polymorphic::</text>
<text text-anchor="start" x="208.5" y="-20" font-family="Helvetica,sans-Serif" font-size="10.00">impl::FlatteningPassBase</text>
<text text-anchor="middle" x="270" y="-7.25" font-family="Helvetica,sans-Serif" font-size="10.00">&lt; DerivedT &gt;</text>
</a>
</g>
</g>
<!-- Node0&#45;&gt;Node44 -->
<g id="edge809_Node000000_Node000044" class="edge">
<title>Node0&#45;&gt;Node44</title>
<g id="a_edge809_Node000000_Node000044"><a xlink:title=" ">
<path fill="none" stroke="#63b8ff" d="M57.51,-875.38C62.81,-749.65 92.03,-119.3 147.25,-55.12 160.58,-39.63 180.41,-31.19 200.22,-26.71"/>
<polygon fill="#63b8ff" stroke="#63b8ff" points="54.03,-874.85 57.11,-884.99 61.02,-875.14 54.03,-874.85"/>
</a>
</g>
</g>
<!-- Node2 -->
<g id="Node000002" class="node">
<title>Node2</title>
<g id="a_Node000002"><a xlink:href="classllzk_1_1CallGraphPrinterPass.html" target="_top" xlink:title=" ">
<polygon fill="white" stroke="#666666" points="599.25,-1847.5 458,-1847.5 458,-1826.75 599.25,-1826.75 599.25,-1847.5"/>
<text text-anchor="middle" x="528.62" y="-1834" font-family="Helvetica,sans-Serif" font-size="10.00">llzk::CallGraphPrinterPass</text>
</a>
</g>
</g>
<!-- Node1&#45;&gt;Node2 -->
<g id="edge767_Node000001_Node000002" class="edge">
<title>Node1&#45;&gt;Node2</title>
<g id="a_edge767_Node000001_Node000002"><a xlink:title=" ">
<path fill="none" stroke="#63b8ff" d="M374.73,-1837.12C402.69,-1837.12 432.27,-1837.12 457.88,-1837.12"/>
<polygon fill="#63b8ff" stroke="#63b8ff" points="374.8,-1833.63 364.8,-1837.13 374.8,-1840.63 374.8,-1833.63"/>
</a>
</g>
</g>
<!-- Node4 -->
<g id="Node000004" class="node">
<title>Node4</title>
<g id="a_Node000004"><a xlink:href="classllzk_1_1CallGraphSCCsPrinterPass.html" target="_top" xlink:title=" ">
<polygon fill="white" stroke="#666666" points="611.62,-1789.5 445.62,-1789.5 445.62,-1768.75 611.62,-1768.75 611.62,-1789.5"/>
<text text-anchor="middle" x="528.62" y="-1776" font-family="Helvetica,sans-Serif" font-size="10.00">llzk::CallGraphSCCsPrinterPass</text>
</a>
</g>
</g>
<!-- Node3&#45;&gt;Node4 -->
<g id="edge769_Node000003_Node000004" class="edge">
<title>Node3&#45;&gt;Node4</title>
<g id="a_edge769_Node000003_Node000004"><a xlink:title=" ">
<path fill="none" stroke="#63b8ff" d="M370.54,-1779.12C395.23,-1779.12 421.42,-1779.12 445.19,-1779.12"/>
<polygon fill="#63b8ff" stroke="#63b8ff" points="370.83,-1775.63 360.83,-1779.13 370.83,-1782.63 370.83,-1775.63"/>
</a>
</g>
</g>
<!-- Node6 -->
<g id="Node000006" class="node">
<title>Node6</title>
<g id="a_Node000006"><a xlink:href="classllzk_1_1ComputeConstrainToProductPass.html" target="_top" xlink:title=" ">
<polygon fill="white" stroke="#666666" points="598.88,-1731.88 458.38,-1731.88 458.38,-1698.38 598.88,-1698.38 598.88,-1731.88"/>
<text text-anchor="start" x="466.38" y="-1718.38" font-family="Helvetica,sans-Serif" font-size="10.00">llzk::ComputeConstrainTo</text>
<text text-anchor="middle" x="528.62" y="-1705.62" font-family="Helvetica,sans-Serif" font-size="10.00">ProductPass</text>
</a>
</g>
</g>
<!-- Node5&#45;&gt;Node6 -->
<g id="edge771_Node000005_Node000006" class="edge">
<title>Node5&#45;&gt;Node6</title>
<g id="a_edge771_Node000005_Node000006"><a xlink:title=" ">
<path fill="none" stroke="#63b8ff" d="M387.19,-1715.12C411.39,-1715.12 436.17,-1715.12 458.05,-1715.12"/>
<polygon fill="#63b8ff" stroke="#63b8ff" points="387.26,-1711.63 377.26,-1715.13 387.26,-1718.63 387.26,-1711.63"/>
</a>
</g>
</g>
<!-- Node8 -->
<g id="Node000008" class="node">
<title>Node8</title>
<g id="a_Node000008"><a xlink:href="classllzk_1_1ConstraintDependencyGraphPrinterPass.html" target="_top" xlink:title=" ">
<polygon fill="white" stroke="#666666" points="603.75,-1667.88 453.5,-1667.88 453.5,-1634.38 603.75,-1634.38 603.75,-1667.88"/>
<text text-anchor="start" x="461.5" y="-1654.38" font-family="Helvetica,sans-Serif" font-size="10.00">llzk::ConstraintDependency</text>
<text text-anchor="middle" x="528.62" y="-1641.62" font-family="Helvetica,sans-Serif" font-size="10.00">GraphPrinterPass</text>
</a>
</g>
</g>
<!-- Node7&#45;&gt;Node8 -->
<g id="edge773_Node000007_Node000008" class="edge">
<title>Node7&#45;&gt;Node8</title>
<g id="a_edge773_Node000007_Node000008"><a xlink:title=" ">
<path fill="none" stroke="#63b8ff" d="M404.02,-1651.12C420.89,-1651.12 437.66,-1651.12 453.15,-1651.12"/>
<polygon fill="#63b8ff" stroke="#63b8ff" points="404.44,-1647.63 394.44,-1651.13 404.44,-1654.63 404.44,-1647.63"/>
</a>
</g>
</g>
<!-- Node10 -->
<g id="Node000010" class="node">
<title>Node10</title>
<g id="a_Node000010"><a xlink:href="classllzk_1_1EnforceNoMemberOverwritePass.html" target="_top" xlink:title=" ">
<polygon fill="white" stroke="#666666" points="628.5,-1597.5 428.75,-1597.5 428.75,-1576.75 628.5,-1576.75 628.5,-1597.5"/>
<text text-anchor="middle" x="528.62" y="-1584" font-family="Helvetica,sans-Serif" font-size="10.00">llzk::EnforceNoMemberOverwritePass</text>
</a>
</g>
</g>
<!-- Node9&#45;&gt;Node10 -->
<g id="edge775_Node000009_Node000010" class="edge">
<title>Node9&#45;&gt;Node10</title>
<g id="a_edge775_Node000009_Node000010"><a xlink:title=" ">
<path fill="none" stroke="#63b8ff" d="M387.54,-1587.12C401.21,-1587.12 415.06,-1587.12 428.46,-1587.12"/>
<polygon fill="#63b8ff" stroke="#63b8ff" points="387.63,-1583.63 377.63,-1587.13 387.63,-1590.63 387.63,-1583.63"/>
</a>
</g>
</g>
<!-- Node12 -->
<g id="Node000012" class="node">
<title>Node12</title>
<g id="a_Node000012"><a xlink:href="classllzk_1_1FuseProductLoopsPass.html" target="_top" xlink:title=" ">
<polygon fill="white" stroke="#666666" points="603,-1539.5 454.25,-1539.5 454.25,-1518.75 603,-1518.75 603,-1539.5"/>
<text text-anchor="middle" x="528.62" y="-1526" font-family="Helvetica,sans-Serif" font-size="10.00">llzk::FuseProductLoopsPass</text>
</a>
</g>
</g>
<!-- Node11&#45;&gt;Node12 -->
<g id="edge777_Node000011_Node000012" class="edge">
<title>Node11&#45;&gt;Node12</title>
<g id="a_edge777_Node000011_Node000012"><a xlink:title=" ">
<path fill="none" stroke="#63b8ff" d="M378.5,-1529.12C403.95,-1529.12 430.52,-1529.12 454.06,-1529.12"/>
<polygon fill="#63b8ff" stroke="#63b8ff" points="378.8,-1525.63 368.8,-1529.13 378.8,-1532.63 378.8,-1525.63"/>
</a>
</g>
</g>
<!-- Node14 -->
<g id="Node000014" class="node">
<title>Node14</title>
<g id="a_Node000014"><a xlink:href="classllzk_1_1IntervalAnalysisPrinterPass.html" target="_top" xlink:title=" ">
<polygon fill="white" stroke="#666666" points="614.62,-1481.5 442.62,-1481.5 442.62,-1460.75 614.62,-1460.75 614.62,-1481.5"/>
<text text-anchor="middle" x="528.62" y="-1468" font-family="Helvetica,sans-Serif" font-size="10.00">llzk::IntervalAnalysisPrinterPass</text>
</a>
</g>
</g>
<!-- Node13&#45;&gt;Node14 -->
<g id="edge779_Node000013_Node000014" class="edge">
<title>Node13&#45;&gt;Node14</title>
<g id="a_edge779_Node000013_Node000014"><a xlink:title=" ">
<path fill="none" stroke="#63b8ff" d="M373.63,-1471.12C396.4,-1471.12 420.3,-1471.12 442.3,-1471.12"/>
<polygon fill="#63b8ff" stroke="#63b8ff" points="373.71,-1467.63 363.71,-1471.13 373.71,-1474.63 373.71,-1467.63"/>
</a>
</g>
</g>
<!-- Node16 -->
<g id="Node000016" class="node">
<title>Node16</title>
<g id="a_Node000016"><a xlink:href="classllzk_1_1PredecessorPrinterPass.html" target="_top" xlink:title=" ">
<polygon fill="white" stroke="#666666" points="604.88,-1423.5 452.38,-1423.5 452.38,-1402.75 604.88,-1402.75 604.88,-1423.5"/>
<text text-anchor="middle" x="528.62" y="-1410" font-family="Helvetica,sans-Serif" font-size="10.00">llzk::PredecessorPrinterPass</text>
</a>
</g>
</g>
<!-- Node15&#45;&gt;Node16 -->
<g id="edge781_Node000015_Node000016" class="edge">
<title>Node15&#45;&gt;Node16</title>
<g id="a_edge781_Node000015_Node000016"><a xlink:title=" ">
<path fill="none" stroke="#63b8ff" d="M380.47,-1413.12C404.54,-1413.12 429.52,-1413.12 451.91,-1413.12"/>
<polygon fill="#63b8ff" stroke="#63b8ff" points="380.63,-1409.63 370.63,-1413.13 380.63,-1416.63 380.63,-1409.63"/>
</a>
</g>
</g>
<!-- Node18 -->
<g id="Node000018" class="node">
<title>Node18</title>
<g id="a_Node000018"><a xlink:href="classllzk_1_1SymbolDefTreePass.html" target="_top" xlink:title=" ">
<polygon fill="white" stroke="#666666" points="596.25,-1365.5 461,-1365.5 461,-1344.75 596.25,-1344.75 596.25,-1365.5"/>
<text text-anchor="middle" x="528.62" y="-1352" font-family="Helvetica,sans-Serif" font-size="10.00">llzk::SymbolDefTreePass</text>
</a>
</g>
</g>
<!-- Node17&#45;&gt;Node18 -->
<g id="edge783_Node000017_Node000018" class="edge">
<title>Node17&#45;&gt;Node18</title>
<g id="a_edge783_Node000017_Node000018"><a xlink:title=" ">
<path fill="none" stroke="#63b8ff" d="M371.38,-1355.12C401.31,-1355.12 433.36,-1355.12 460.6,-1355.12"/>
<polygon fill="#63b8ff" stroke="#63b8ff" points="371.55,-1351.63 361.55,-1355.13 371.55,-1358.63 371.55,-1351.63"/>
</a>
</g>
</g>
<!-- Node20 -->
<g id="Node000020" class="node">
<title>Node20</title>
<g id="a_Node000020"><a xlink:href="classllzk_1_1SymbolUseGraphPass.html" target="_top" xlink:title=" ">
<polygon fill="white" stroke="#666666" points="601.5,-1301.5 455.75,-1301.5 455.75,-1280.75 601.5,-1280.75 601.5,-1301.5"/>
<text text-anchor="middle" x="528.62" y="-1288" font-family="Helvetica,sans-Serif" font-size="10.00">llzk::SymbolUseGraphPass</text>
</a>
</g>
</g>
<!-- Node19&#45;&gt;Node20 -->
<g id="edge785_Node000019_Node000020" class="edge">
<title>Node19&#45;&gt;Node20</title>
<g id="a_edge785_Node000019_Node000020"><a xlink:title=" ">
<path fill="none" stroke="#63b8ff" d="M376.72,-1291.12C403.21,-1291.12 431.02,-1291.12 455.45,-1291.12"/>
<polygon fill="#63b8ff" stroke="#63b8ff" points="376.98,-1287.63 366.98,-1291.13 376.98,-1294.63 376.98,-1287.63"/>
</a>
</g>
</g>
<!-- Node22 -->
<g id="Node000022" class="node">
<title>Node22</title>
<g id="a_Node000022"><a xlink:href="classllzk_1_1WhileToForPass.html" target="_top" xlink:title=" ">
<polygon fill="white" stroke="#666666" points="585.75,-1243.5 471.5,-1243.5 471.5,-1222.75 585.75,-1222.75 585.75,-1243.5"/>
<text text-anchor="middle" x="528.62" y="-1230" font-family="Helvetica,sans-Serif" font-size="10.00">llzk::WhileToForPass</text>
</a>
</g>
</g>
<!-- Node21&#45;&gt;Node22 -->
<g id="edge787_Node000021_Node000022" class="edge">
<title>Node21&#45;&gt;Node22</title>
<g id="a_edge787_Node000021_Node000022"><a xlink:title=" ">
<path fill="none" stroke="#63b8ff" d="M352.68,-1233.12C391.27,-1233.12 436.37,-1233.12 471.12,-1233.12"/>
<polygon fill="#63b8ff" stroke="#63b8ff" points="352.98,-1229.63 342.98,-1233.13 352.98,-1236.63 352.98,-1229.63"/>
</a>
</g>
</g>
</g>
</svg>
