<?xml version="1.0" encoding="UTF-8" standalone="no"?>
<!DOCTYPE svg PUBLIC "-//W3C//DTD SVG 1.1//EN"
 "http://www.w3.org/Graphics/SVG/1.1/DTD/svg11.dtd">
<!-- Generated by graphviz version 12.2.1 (0)
 -->
<!-- Title: Graphical Class Hierarchy Pages: 1 -->
<svg width="637pt" height="1978pt"
 viewBox="0.00 0.00 636.50 1977.88" xmlns="http://www.w3.org/2000/svg" xmlns:xlink="http://www.w3.org/1999/xlink">
<g id="graph0" class="graph" transform="scale(1 1) rotate(0) translate(4 1973.88)">
<title>Graphical Class Hierarchy</title>
<!-- Node0 -->
<g id="Node000000" class="node">
<title>Node0</title>
<g id="a_Node000000"><a xlink:title=" ">
<polygon fill="#e0e0e0" stroke="#999999" points="111.25,-971.5 0,-971.5 0,-950.75 111.25,-950.75 111.25,-971.5"/>
<text text-anchor="middle" x="55.62" y="-958" font-family="Helvetica,sans-Serif" font-size="10.00">mlir::OperationPass</text>
</a>
</g>
</g>
<!-- Node1 -->
<g id="Node000001" class="node">
<title>Node1</title>
<g id="a_Node000001"><a xlink:href="classllzk_1_1impl_1_1CallGraphPrinterPassBase.html" target="_top" xlink:title=" ">
<polygon fill="white" stroke="#666666" points="363.12,-1969.88 176.88,-1969.88 176.88,-1936.38 363.12,-1936.38 363.12,-1969.88"/>
<text text-anchor="start" x="184.88" y="-1956.38" font-family="Helvetica,sans-Serif" font-size="10.00">llzk::impl::CallGraphPrinter</text>
<text text-anchor="middle" x="270" y="-1943.62" font-family="Helvetica,sans-Serif" font-size="10.00">PassBase&lt; CallGraphPrinterPass &gt;</text>
</a>
</g>
</g>
<!-- Node0&#45;&gt;Node1 -->
<g id="edge777_Node000000_Node000001" class="edge">
<title>Node0&#45;&gt;Node1</title>
<g id="a_edge777_Node000000_Node000001"><a xlink:title=" ">
<path fill="none" stroke="#63b8ff" d="M57.15,-983.05C60.64,-1119.97 82.31,-1854.12 147.25,-1927.12 155.22,-1936.09 165.46,-1942.39 176.61,-1946.76"/>
<polygon fill="#63b8ff" stroke="#63b8ff" points="60.66,-983.13 56.91,-973.22 53.66,-983.3 60.66,-983.13"/>
</a>
</g>
</g>
<!-- Node3 -->
<g id="Node000003" class="node">
<title>Node3</title>
<g id="a_Node000003"><a xlink:href="classllzk_1_1impl_1_1CallGraphSCCsPrinterPassBase.html" target="_top" xlink:title=" ">
<polygon fill="white" stroke="#666666" points="359,-1918.25 181,-1918.25 181,-1872 359,-1872 359,-1918.25"/>
<text text-anchor="start" x="189" y="-1904.75" font-family="Helvetica,sans-Serif" font-size="10.00">llzk::impl::CallGraphSCCs</text>
<text text-anchor="start" x="189" y="-1892" font-family="Helvetica,sans-Serif" font-size="10.00">PrinterPassBase&lt; CallGraphSCCs</text>
<text text-anchor="middle" x="270" y="-1879.25" font-family="Helvetica,sans-Serif" font-size="10.00">PrinterPass &gt;</text>
</a>
</g>
</g>
<!-- Node0&#45;&gt;Node3 -->
<g id="edge779_Node000000_Node000003" class="edge">
<title>Node0&#45;&gt;Node3</title>
<g id="a_edge779_Node000000_Node000003"><a xlink:title=" ">
<path fill="none" stroke="#63b8ff" d="M57.36,-983.18C61.92,-1114.87 88.2,-1794 147.25,-1863.12 156.12,-1873.51 167.92,-1880.73 180.68,-1885.72"/>
<polygon fill="#63b8ff" stroke="#63b8ff" points="60.86,-983.27 57.02,-973.4 53.87,-983.51 60.86,-983.27"/>
</a>
</g>
</g>
<!-- Node5 -->
<g id="Node000005" class="node">
<title>Node5</title>
<g id="a_Node000005"><a xlink:href="classllzk_1_1impl_1_1ComputeConstrainToProductPassBase.html" target="_top" xlink:title=" ">
<polygon fill="white" stroke="#666666" points="375.5,-1854.25 164.5,-1854.25 164.5,-1808 375.5,-1808 375.5,-1854.25"/>
<text text-anchor="start" x="172.5" y="-1840.75" font-family="Helvetica,sans-Serif" font-size="10.00">llzk::impl::ComputeConstrain</text>
<text text-anchor="start" x="172.5" y="-1828" font-family="Helvetica,sans-Serif" font-size="10.00">ToProductPassBase&lt; ComputeConstrain</text>
<text text-anchor="middle" x="270" y="-1815.25" font-family="Helvetica,sans-Serif" font-size="10.00">ToProductPass &gt;</text>
</a>
</g>
</g>
<!-- Node0&#45;&gt;Node5 -->
<g id="edge781_Node000000_Node000005" class="edge">
<title>Node0&#45;&gt;Node5</title>
<g id="a_edge781_Node000000_Node000005"><a xlink:title=" ">
<path fill="none" stroke="#63b8ff" d="M57.53,-983.17C62.92,-1109.22 92.33,-1735.33 147.25,-1799.12 152.1,-1804.76 157.81,-1809.46 164.06,-1813.37"/>
<polygon fill="#63b8ff" stroke="#63b8ff" points="61.04,-983.35 57.13,-973.5 54.05,-983.64 61.04,-983.35"/>
</a>
</g>
</g>
<!-- Node7 -->
<g id="Node000007" class="node">
<title>Node7</title>
<g id="a_Node000007"><a xlink:href="classllzk_1_1impl_1_1ConstraintDependencyGraphPrinterPassBase.html" target="_top" xlink:title=" ">
<polygon fill="white" stroke="#666666" points="392.75,-1790.25 147.25,-1790.25 147.25,-1744 392.75,-1744 392.75,-1790.25"/>
<text text-anchor="start" x="155.25" y="-1776.75" font-family="Helvetica,sans-Serif" font-size="10.00">llzk::impl::ConstraintDependency</text>
<text text-anchor="start" x="155.25" y="-1764" font-family="Helvetica,sans-Serif" font-size="10.00">GraphPrinterPassBase&lt; ConstraintDependency</text>
<text text-anchor="middle" x="270" y="-1751.25" font-family="Helvetica,sans-Serif" font-size="10.00">GraphPrinterPass &gt;</text>
</a>
</g>
</g>
<!-- Node0&#45;&gt;Node7 -->
<g id="edge783_Node000000_Node000007" class="edge">
<title>Node0&#45;&gt;Node7</title>
<g id="a_edge783_Node000000_Node000007"><a xlink:title=" ">
<path fill="none" stroke="#63b8ff" d="M57.75,-983.33C64.05,-1103.9 96.48,-1676.67 147.25,-1735.12 149.97,-1738.26 152.96,-1741.11 156.16,-1743.69"/>
<polygon fill="#63b8ff" stroke="#63b8ff" points="61.25,-983.32 57.24,-973.51 54.26,-983.68 61.25,-983.32"/>
</a>
</g>
</g>
<!-- Node9 -->
<g id="Node000009" class="node">
<title>Node9</title>
<g id="a_Node000009"><a xlink:href="classllzk_1_1impl_1_1EnforceNoMemberOverwritePassBase.html" target="_top" xlink:title=" ">
<polygon fill="white" stroke="#666666" points="375.88,-1726.25 164.12,-1726.25 164.12,-1680 375.88,-1680 375.88,-1726.25"/>
<text text-anchor="start" x="172.12" y="-1712.75" font-family="Helvetica,sans-Serif" font-size="10.00">llzk::impl::EnforceNoMember</text>
<text text-anchor="start" x="172.12" y="-1700" font-family="Helvetica,sans-Serif" font-size="10.00">OverwritePassBase&lt; EnforceNoMember</text>
<text text-anchor="middle" x="270" y="-1687.25" font-family="Helvetica,sans-Serif" font-size="10.00">OverwritePass &gt;</text>
</a>
</g>
</g>
<!-- Node0&#45;&gt;Node9 -->
<g id="edge785_Node000000_Node000009" class="edge">
<title>Node0&#45;&gt;Node9</title>
<g id="a_edge785_Node000000_Node000009"><a xlink:title=" ">
<path fill="none" stroke="#63b8ff" d="M56.26,-983.31C54.91,-1091.79 54.5,-1565.45 147.25,-1671.12 152.01,-1676.55 157.56,-1681.1 163.63,-1684.92"/>
<polygon fill="#63b8ff" stroke="#63b8ff" points="59.75,-983.5 56.4,-973.45 52.75,-983.4 59.75,-983.5"/>
</a>
</g>
</g>
<!-- Node11 -->
<g id="Node000011" class="node">
<title>Node11</title>
<g id="a_Node000011"><a xlink:href="classllzk_1_1impl_1_1FuseProductLoopsPassBase.html" target="_top" xlink:title=" ">
<polygon fill="white" stroke="#666666" points="366.88,-1661.88 173.12,-1661.88 173.12,-1628.38 366.88,-1628.38 366.88,-1661.88"/>
<text text-anchor="start" x="181.12" y="-1648.38" font-family="Helvetica,sans-Serif" font-size="10.00">llzk::impl::FuseProductLoops</text>
<text text-anchor="middle" x="270" y="-1635.62" font-family="Helvetica,sans-Serif" font-size="10.00">PassBase&lt; FuseProductLoopsPass &gt;</text>
</a>
</g>
</g>
<!-- Node0&#45;&gt;Node11 -->
<g id="edge787_Node000000_Node000011" class="edge">
<title>Node0&#45;&gt;Node11</title>
<g id="a_edge787_Node000000_Node000011"><a xlink:title=" ">
<path fill="none" stroke="#63b8ff" d="M56.41,-983.05C55.85,-1086.42 58.81,-1523.93 147.25,-1619.12 154.38,-1626.8 163.19,-1632.51 172.77,-1636.71"/>
<polygon fill="#63b8ff" stroke="#63b8ff" points="59.91,-983.22 56.48,-973.19 52.91,-983.17 59.91,-983.22"/>
</a>
</g>
</g>
<!-- Node13 -->
<g id="Node000013" class="node">
<title>Node13</title>
<g id="a_Node000013"><a xlink:href="classllzk_1_1impl_1_1IntervalAnalysisPrinterPassBase.html" target="_top" xlink:title=" ">
<polygon fill="white" stroke="#666666" points="362,-1610.25 178,-1610.25 178,-1564 362,-1564 362,-1610.25"/>
<text text-anchor="start" x="186" y="-1596.75" font-family="Helvetica,sans-Serif" font-size="10.00">llzk::impl::IntervalAnalysis</text>
<text text-anchor="start" x="186" y="-1584" font-family="Helvetica,sans-Serif" font-size="10.00">PrinterPassBase&lt; IntervalAnalysis</text>
<text text-anchor="middle" x="270" y="-1571.25" font-family="Helvetica,sans-Serif" font-size="10.00">PrinterPass &gt;</text>
</a>
</g>
</g>
<!-- Node0&#45;&gt;Node13 -->
<g id="edge789_Node000000_Node000013" class="edge">
<title>Node0&#45;&gt;Node13</title>
<g id="a_edge789_Node000000_Node000013"><a xlink:title=" ">
<path fill="none" stroke="#63b8ff" d="M56.87,-983.27C58.38,-1080.48 69.3,-1468.47 147.25,-1555.12 155.58,-1564.39 166.24,-1571.11 177.77,-1575.97"/>
<polygon fill="#63b8ff" stroke="#63b8ff" points="60.37,-983.45 56.73,-973.5 53.37,-983.55 60.37,-983.45"/>
</a>
</g>
</g>
<!-- Node15 -->
<g id="Node000015" class="node">
<title>Node15</title>
<g id="a_Node000015"><a xlink:href="classllzk_1_1impl_1_1PredecessorPrinterPassBase.html" target="_top" xlink:title=" ">
<polygon fill="white" stroke="#666666" points="368.75,-1545.88 171.25,-1545.88 171.25,-1512.38 368.75,-1512.38 368.75,-1545.88"/>
<text text-anchor="start" x="179.25" y="-1532.38" font-family="Helvetica,sans-Serif" font-size="10.00">llzk::impl::PredecessorPrinter</text>
<text text-anchor="middle" x="270" y="-1519.62" font-family="Helvetica,sans-Serif" font-size="10.00">PassBase&lt; PredecessorPrinterPass &gt;</text>
</a>
</g>
</g>
<!-- Node0&#45;&gt;Node15 -->
<g id="edge791_Node000000_Node000015" class="edge">
<title>Node0&#45;&gt;Node15</title>
<g id="a_edge791_Node000000_Node000015"><a xlink:title=" ">
<path fill="none" stroke="#63b8ff" d="M57.13,-983.43C59.68,-1075.75 74.12,-1426.65 147.25,-1503.12 153.97,-1510.15 162.09,-1515.52 170.91,-1519.58"/>
<polygon fill="#63b8ff" stroke="#63b8ff" points="60.63,-983.38 56.88,-973.47 53.63,-983.56 60.63,-983.38"/>
</a>
</g>
</g>
<!-- Node17 -->
<g id="Node000017" class="node">
<title>Node17</title>
<g id="a_Node000017"><a xlink:href="classllzk_1_1impl_1_1SymbolDefTreePrinterPassBase.html" target="_top" xlink:title=" ">
<polygon fill="white" stroke="#666666" points="359.75,-1494.25 180.25,-1494.25 180.25,-1448 359.75,-1448 359.75,-1494.25"/>
<text text-anchor="start" x="188.25" y="-1480.75" font-family="Helvetica,sans-Serif" font-size="10.00">llzk::impl::SymbolDefTree</text>
<text text-anchor="start" x="188.25" y="-1468" font-family="Helvetica,sans-Serif" font-size="10.00">PrinterPassBase&lt; SymbolDefTree</text>
<text text-anchor="middle" x="270" y="-1455.25" font-family="Helvetica,sans-Serif" font-size="10.00">Pass &gt;</text>
</a>
</g>
</g>
<!-- Node0&#45;&gt;Node17 -->
<g id="edge793_Node000000_Node000017" class="edge">
<title>Node0&#45;&gt;Node17</title>
<g id="a_edge793_Node000000_Node000017"><a xlink:title=" ">
<path fill="none" stroke="#63b8ff" d="M57.76,-983.12C62.55,-1067.77 83.96,-1371.27 147.25,-1439.12 156.19,-1448.71 167.63,-1455.57 179.91,-1460.44"/>
<polygon fill="#63b8ff" stroke="#63b8ff" points="61.26,-983.18 57.23,-973.38 54.27,-983.56 61.26,-983.18"/>
</a>
</g>
</g>
<!-- Node19 -->
<g id="Node000019" class="node">
<title>Node19</title>
<g id="a_Node000019"><a xlink:href="classllzk_1_1impl_1_1SymbolUseGraphPrinterPassBase.html" target="_top" xlink:title=" ">
<polygon fill="white" stroke="#666666" points="365,-1430.25 175,-1430.25 175,-1384 365,-1384 365,-1430.25"/>
<text text-anchor="start" x="183" y="-1416.75" font-family="Helvetica,sans-Serif" font-size="10.00">llzk::impl::SymbolUseGraph</text>
<text text-anchor="start" x="183" y="-1404" font-family="Helvetica,sans-Serif" font-size="10.00">PrinterPassBase&lt; SymbolUseGraph</text>
<text text-anchor="middle" x="270" y="-1391.25" font-family="Helvetica,sans-Serif" font-size="10.00">Pass &gt;</text>
</a>
</g>
</g>
<!-- Node0&#45;&gt;Node19 -->
<g id="edge795_Node000000_Node000019" class="edge">
<title>Node0&#45;&gt;Node19</title>
<g id="a_edge795_Node000000_Node000019"><a xlink:title=" ">
<path fill="none" stroke="#63b8ff" d="M58.45,-983.09C65.31,-1060.29 92,-1317.54 147.25,-1375.12 154.97,-1383.17 164.44,-1389.28 174.66,-1393.9"/>
<polygon fill="#63b8ff" stroke="#63b8ff" points="61.97,-983.11 57.62,-973.45 54.99,-983.71 61.97,-983.11"/>
</a>
</g>
</g>
<!-- Node21 -->
<g id="Node000021" class="node">
<title>Node21</title>
<g id="a_Node000021"><a xlink:href="classllzk_1_1impl_1_1WhileToForPassBase.html" target="_top" xlink:title=" ">
<polygon fill="white" stroke="#666666" points="341,-1365.88 199,-1365.88 199,-1332.38 341,-1332.38 341,-1365.88"/>
<text text-anchor="start" x="207" y="-1352.38" font-family="Helvetica,sans-Serif" font-size="10.00">llzk::impl::WhileToForPass</text>
<text text-anchor="middle" x="270" y="-1339.62" font-family="Helvetica,sans-Serif" font-size="10.00">Base&lt; WhileToForPass &gt;</text>
</a>
</g>
</g>
<!-- Node0&#45;&gt;Node21 -->
<g id="edge797_Node000000_Node000021" class="edge">
<title>Node0&#45;&gt;Node21</title>
<g id="a_edge797_Node000000_Node000021"><a xlink:title=" ">
<path fill="none" stroke="#63b8ff" d="M59.1,-983.1C67.51,-1054.01 97.34,-1274.93 147.25,-1323.12 161.01,-1336.41 179.81,-1343.62 198.51,-1347.36"/>
<polygon fill="#63b8ff" stroke="#63b8ff" points="62.57,-982.72 57.95,-973.19 55.62,-983.52 62.57,-982.72"/>
</a>
</g>
</g>
<!-- Node23 -->
<g id="Node000023" class="node">
<title>Node23</title>
<g id="a_Node000023"><a xlink:href="classllzk_1_1polymorphic_1_1impl_1_1FlatteningPassBase.html" target="_top" xlink:title=" ">
<polygon fill="white" stroke="#666666" points="339.5,-1314.25 200.5,-1314.25 200.5,-1268 339.5,-1268 339.5,-1314.25"/>
<text text-anchor="start" x="208.5" y="-1300.75" font-family="Helvetica,sans-Serif" font-size="10.00">llzk::polymorphic::</text>
<text text-anchor="start" x="208.5" y="-1288" font-family="Helvetica,sans-Serif" font-size="10.00">impl::FlatteningPassBase</text>
<text text-anchor="middle" x="270" y="-1275.25" font-family="Helvetica,sans-Serif" font-size="10.00">&lt; FlatteningPass &gt;</text>
</a>
</g>
</g>
<!-- Node0&#45;&gt;Node23 -->
<g id="edge799_Node000000_Node000023" class="edge">
<title>Node0&#45;&gt;Node23</title>
<g id="a_edge799_Node000000_Node000023"><a xlink:title=" ">
<path fill="none" stroke="#63b8ff" d="M56.48,-983.44C57.4,-1038.62 67.72,-1182.57 147.25,-1259.12 161.5,-1272.84 180.89,-1280.86 200.01,-1285.49"/>
<polygon fill="#63b8ff" stroke="#63b8ff" points="59.98,-983.45 56.42,-973.47 52.98,-983.49 59.98,-983.45"/>
</a>
</g>
</g>
<!-- Node24 -->
<g id="Node000024" class="node">
<title>Node24</title>
<g id="a_Node000024"><a xlink:href="classllzk_1_1array_1_1impl_1_1ArrayToScalarPassBase.html" target="_top" xlink:title=" ">
<polygon fill="white" stroke="#666666" points="334.25,-1250.25 205.75,-1250.25 205.75,-1204 334.25,-1204 334.25,-1250.25"/>
<text text-anchor="start" x="213.75" y="-1236.75" font-family="Helvetica,sans-Serif" font-size="10.00">llzk::array::impl::</text>
<text text-anchor="start" x="213.75" y="-1224" font-family="Helvetica,sans-Serif" font-size="10.00">ArrayToScalarPassBase</text>
<text text-anchor="middle" x="270" y="-1211.25" font-family="Helvetica,sans-Serif" font-size="10.00">&lt; DerivedT &gt;</text>
</a>
</g>
</g>
<!-- Node0&#45;&gt;Node24 -->
<g id="edge800_Node000000_Node000024" class="edge">
<title>Node0&#45;&gt;Node24</title>
<g id="a_edge800_Node000000_Node000024"><a xlink:title=" ">
<path fill="none" stroke="#63b8ff" d="M58.61,-983.26C64,-1029.72 83.11,-1137.82 147.25,-1195.12 163.22,-1209.39 184.81,-1217.43 205.37,-1221.91"/>
<polygon fill="#63b8ff" stroke="#63b8ff" points="62.1,-982.98 57.59,-973.39 55.14,-983.7 62.1,-982.98"/>
</a>
</g>
</g>
<!-- Node25 -->
<g id="Node000025" class="node">
<title>Node25</title>
<g id="a_Node000025"><a xlink:href="classllzk_1_1impl_1_1CallGraphPrinterPassBase.html" target="_top" xlink:title=" ">
<polygon fill="white" stroke="#666666" points="343.62,-1185.88 196.38,-1185.88 196.38,-1152.38 343.62,-1152.38 343.62,-1185.88"/>
<text text-anchor="start" x="204.38" y="-1172.38" font-family="Helvetica,sans-Serif" font-size="10.00">llzk::impl::CallGraphPrinter</text>
<text text-anchor="middle" x="270" y="-1159.62" font-family="Helvetica,sans-Serif" font-size="10.00">PassBase&lt; DerivedT &gt;</text>
</a>
</g>
</g>
<!-- Node0&#45;&gt;Node25 -->
<g id="edge801_Node000000_Node000025" class="edge">
<title>Node0&#45;&gt;Node25</title>
<g id="a_edge801_Node000000_Node000025"><a xlink:title=" ">
<path fill="none" stroke="#63b8ff" d="M61.02,-982.99C70.01,-1021.7 94.26,-1102.03 147.25,-1143.12 161.26,-1153.99 178.78,-1160.56 196.13,-1164.47"/>
<polygon fill="#63b8ff" stroke="#63b8ff" points="64.45,-982.29 58.91,-973.27 57.61,-983.78 64.45,-982.29"/>
</a>
</g>
</g>
<!-- Node26 -->
<g id="Node000026" class="node">
<title>Node26</title>
<g id="a_Node000026"><a xlink:href="classllzk_1_1impl_1_1CallGraphSCCsPrinterPassBase.html" target="_top" xlink:title=" ">
<polygon fill="white" stroke="#666666" points="350.38,-1133.88 189.62,-1133.88 189.62,-1100.38 350.38,-1100.38 350.38,-1133.88"/>
<text text-anchor="start" x="197.62" y="-1120.38" font-family="Helvetica,sans-Serif" font-size="10.00">llzk::impl::CallGraphSCCs</text>
<text text-anchor="middle" x="270" y="-1107.62" font-family="Helvetica,sans-Serif" font-size="10.00">PrinterPassBase&lt; DerivedT &gt;</text>
</a>
</g>
</g>
<!-- Node0&#45;&gt;Node26 -->
<g id="edge802_Node000000_Node000026" class="edge">
<title>Node0&#45;&gt;Node26</title>
<g id="a_edge802_Node000000_Node000026"><a xlink:title=" ">
<path fill="none" stroke="#63b8ff" d="M65.3,-982.27C78.47,-1011.57 106.38,-1063.98 147.25,-1091.12 159.76,-1099.43 174.46,-1105.15 189.22,-1109.06"/>
<polygon fill="#63b8ff" stroke="#63b8ff" points="68.62,-981.12 61.44,-973.32 62.19,-983.89 68.62,-981.12"/>
</a>
</g>
</g>
<!-- Node27 -->
<g id="Node000027" class="node">
<title>Node27</title>
<g id="a_Node000027"><a xlink:href="classllzk_1_1impl_1_1ComputeConstrainToProductPassBase.html" target="_top" xlink:title=" ">
<polygon fill="white" stroke="#666666" points="357.88,-1081.88 182.12,-1081.88 182.12,-1048.38 357.88,-1048.38 357.88,-1081.88"/>
<text text-anchor="start" x="190.12" y="-1068.38" font-family="Helvetica,sans-Serif" font-size="10.00">llzk::impl::ComputeConstrain</text>
<text text-anchor="middle" x="270" y="-1055.62" font-family="Helvetica,sans-Serif" font-size="10.00">ToProductPassBase&lt; DerivedT &gt;</text>
</a>
</g>
</g>
<!-- Node0&#45;&gt;Node27 -->
<g id="edge803_Node000000_Node000027" class="edge">
<title>Node0&#45;&gt;Node27</title>
<g id="a_edge803_Node000000_Node000027"><a xlink:title=" ">
<path fill="none" stroke="#63b8ff" d="M73.07,-979.92C89.89,-997.93 117.69,-1024.46 147.25,-1039.12 158,-1044.46 169.8,-1048.7 181.71,-1052.07"/>
<polygon fill="#63b8ff" stroke="#63b8ff" points="76.07,-978.02 66.75,-972.98 70.89,-982.73 76.07,-978.02"/>
</a>
</g>
</g>
<!-- Node28 -->
<g id="Node000028" class="node">
<title>Node28</title>
<g id="a_Node000028"><a xlink:href="classllzk_1_1impl_1_1ConstraintDependencyGraphPrinterPassBase.html" target="_top" xlink:title=" ">
<polygon fill="white" stroke="#666666" points="365,-1029.88 175,-1029.88 175,-996.38 365,-996.38 365,-1029.88"/>
<text text-anchor="start" x="183" y="-1016.38" font-family="Helvetica,sans-Serif" font-size="10.00">llzk::impl::ConstraintDependency</text>
<text text-anchor="middle" x="270" y="-1003.62" font-family="Helvetica,sans-Serif" font-size="10.00">GraphPrinterPassBase&lt; DerivedT &gt;</text>
</a>
</g>
</g>
<!-- Node0&#45;&gt;Node28 -->
<g id="edge804_Node000000_Node000028" class="edge">
<title>Node0&#45;&gt;Node28</title>
<g id="a_edge804_Node000000_Node000028"><a xlink:title=" ">
<path fill="none" stroke="#63b8ff" d="M103.15,-975.14C117.26,-979.21 132.84,-983.52 147.25,-987.12 159.31,-990.14 172.09,-993.11 184.66,-995.91"/>
<polygon fill="#63b8ff" stroke="#63b8ff" points="104.23,-971.81 93.65,-972.37 102.27,-978.53 104.23,-971.81"/>
</a>
</g>
</g>
<!-- Node29 -->
<g id="Node000029" class="node">
<title>Node29</title>
<g id="a_Node000029"><a xlink:href="classllzk_1_1impl_1_1EnforceNoMemberOverwritePassBase.html" target="_top" xlink:title=" ">
<polygon fill="white" stroke="#666666" points="358.25,-977.88 181.75,-977.88 181.75,-944.38 358.25,-944.38 358.25,-977.88"/>
<text text-anchor="start" x="189.75" y="-964.38" font-family="Helvetica,sans-Serif" font-size="10.00">llzk::impl::EnforceNoMember</text>
<text text-anchor="middle" x="270" y="-951.62" font-family="Helvetica,sans-Serif" font-size="10.00">OverwritePassBase&lt; DerivedT &gt;</text>
</a>
</g>
</g>
<!-- Node0&#45;&gt;Node29 -->
<g id="edge805_Node000000_Node000029" class="edge">
<title>Node0&#45;&gt;Node29</title>
<g id="a_edge805_Node000000_Node000029"><a xlink:title=" ">
<path fill="none" stroke="#63b8ff" d="M122.85,-961.12C141.37,-961.12 161.78,-961.12 181.33,-961.12"/>
<polygon fill="#63b8ff" stroke="#63b8ff" points="123.11,-957.63 113.11,-961.13 123.11,-964.63 123.11,-957.63"/>
</a>
</g>
</g>
<!-- Node30 -->
<g id="Node000030" class="node">
<title>Node30</title>
<g id="a_Node000030"><a xlink:href="classllzk_1_1impl_1_1FuseProductLoopsPassBase.html" target="_top" xlink:title=" ">
<polygon fill="white" stroke="#666666" points="347.38,-925.88 192.62,-925.88 192.62,-892.38 347.38,-892.38 347.38,-925.88"/>
<text text-anchor="start" x="200.62" y="-912.38" font-family="Helvetica,sans-Serif" font-size="10.00">llzk::impl::FuseProductLoops</text>
<text text-anchor="middle" x="270" y="-899.62" font-family="Helvetica,sans-Serif" font-size="10.00">PassBase&lt; DerivedT &gt;</text>
</a>
</g>
</g>
<!-- Node0&#45;&gt;Node30 -->
<g id="edge806_Node000000_Node000030" class="edge">
<title>Node0&#45;&gt;Node30</title>
<g id="a_edge806_Node000000_Node000030"><a xlink:title=" ">
<path fill="none" stroke="#63b8ff" d="M103.15,-947.11C117.26,-943.04 132.84,-938.73 147.25,-935.12 161.72,-931.51 177.23,-927.95 192.18,-924.69"/>
<polygon fill="#63b8ff" stroke="#63b8ff" points="102.27,-943.72 93.65,-949.88 104.23,-950.44 102.27,-943.72"/>
</a>
</g>
</g>
<!-- Node31 -->
<g id="Node000031" class="node">
<title>Node31</title>
<g id="a_Node000031"><a xlink:href="classllzk_1_1impl_1_1InlineStructsPassBase.html" target="_top" xlink:title=" ">
<polygon fill="white" stroke="#666666" points="334.25,-873.88 205.75,-873.88 205.75,-840.38 334.25,-840.38 334.25,-873.88"/>
<text text-anchor="start" x="213.75" y="-860.38" font-family="Helvetica,sans-Serif" font-size="10.00">llzk::impl::InlineStructs</text>
<text text-anchor="middle" x="270" y="-847.62" font-family="Helvetica,sans-Serif" font-size="10.00">PassBase&lt; DerivedT &gt;</text>
</a>
</g>
</g>
<!-- Node0&#45;&gt;Node31 -->
<g id="edge807_Node000000_Node000031" class="edge">
<title>Node0&#45;&gt;Node31</title>
<g id="a_edge807_Node000000_Node000031"><a xlink:title=" ">
<path fill="none" stroke="#63b8ff" d="M73.07,-942.33C89.89,-924.32 117.69,-897.79 147.25,-883.12 165.16,-874.24 186.02,-868.38 205.37,-864.52"/>
<polygon fill="#63b8ff" stroke="#63b8ff" points="70.89,-939.52 66.75,-949.27 76.07,-944.23 70.89,-939.52"/>
</a>
</g>
</g>
<!-- Node32 -->
<g id="Node000032" class="node">
<title>Node32</title>
<g id="a_Node000032"><a xlink:href="classllzk_1_1impl_1_1IntervalAnalysisPrinterPassBase.html" target="_top" xlink:title=" ">
<polygon fill="white" stroke="#666666" points="350.38,-821.88 189.62,-821.88 189.62,-788.38 350.38,-788.38 350.38,-821.88"/>
<text text-anchor="start" x="197.62" y="-808.38" font-family="Helvetica,sans-Serif" font-size="10.00">llzk::impl::IntervalAnalysis</text>
<text text-anchor="middle" x="270" y="-795.62" font-family="Helvetica,sans-Serif" font-size="10.00">PrinterPassBase&lt; DerivedT &gt;</text>
</a>
</g>
</g>
<!-- Node0&#45;&gt;Node32 -->
<g id="edge808_Node000000_Node000032" class="edge">
<title>Node0&#45;&gt;Node32</title>
<g id="a_edge808_Node000000_Node000032"><a xlink:title=" ">
<path fill="none" stroke="#63b8ff" d="M65.3,-939.98C78.47,-910.68 106.38,-858.27 147.25,-831.12 159.76,-822.82 174.46,-817.1 189.22,-813.19"/>
<polygon fill="#63b8ff" stroke="#63b8ff" points="62.19,-938.36 61.44,-948.93 68.62,-941.13 62.19,-938.36"/>
</a>
</g>
</g>
<!-- Node33 -->
<g id="Node000033" class="node">
<title>Node33</title>
<g id="a_Node000033"><a xlink:href="classllzk_1_1impl_1_1MemberWriteValidatorPassBase.html" target="_top" xlink:title=" ">
<polygon fill="white" stroke="#666666" points="358.62,-769.88 181.38,-769.88 181.38,-736.38 358.62,-736.38 358.62,-769.88"/>
<text text-anchor="start" x="189.38" y="-756.38" font-family="Helvetica,sans-Serif" font-size="10.00">llzk::impl::MemberWriteValidator</text>
<text text-anchor="middle" x="270" y="-743.62" font-family="Helvetica,sans-Serif" font-size="10.00">PassBase&lt; DerivedT &gt;</text>
</a>
</g>
</g>
<!-- Node0&#45;&gt;Node33 -->
<g id="edge809_Node000000_Node000033" class="edge">
<title>Node0&#45;&gt;Node33</title>
<g id="a_edge809_Node000000_Node000033"><a xlink:title=" ">
<path fill="none" stroke="#63b8ff" d="M61.02,-939.26C70.01,-900.55 94.26,-820.22 147.25,-779.12 157.16,-771.44 168.82,-765.91 180.94,-761.94"/>
<polygon fill="#63b8ff" stroke="#63b8ff" points="57.61,-938.47 58.91,-948.98 64.45,-939.96 57.61,-938.47"/>
</a>
</g>
</g>
<!-- Node34 -->
<g id="Node000034" class="node">
<title>Node34</title>
<g id="a_Node000034"><a xlink:href="classllzk_1_1impl_1_1PolyLoweringPassBase.html" target="_top" xlink:title=" ">
<polygon fill="white" stroke="#666666" points="336.12,-717.88 203.88,-717.88 203.88,-684.38 336.12,-684.38 336.12,-717.88"/>
<text text-anchor="start" x="211.88" y="-704.38" font-family="Helvetica,sans-Serif" font-size="10.00">llzk::impl::PolyLowering</text>
<text text-anchor="middle" x="270" y="-691.62" font-family="Helvetica,sans-Serif" font-size="10.00">PassBase&lt; DerivedT &gt;</text>
</a>
</g>
</g>
<!-- Node0&#45;&gt;Node34 -->
<g id="edge810_Node000000_Node000034" class="edge">
<title>Node0&#45;&gt;Node34</title>
<g id="a_edge810_Node000000_Node000034"><a xlink:title=" ">
<path fill="none" stroke="#63b8ff" d="M58.37,-939.08C63.31,-892.34 81.64,-783.05 147.25,-727.12 162.88,-713.81 183.67,-706.79 203.65,-703.24"/>
<polygon fill="#63b8ff" stroke="#63b8ff" points="54.89,-938.71 57.45,-948.99 61.86,-939.36 54.89,-938.71"/>
</a>
</g>
</g>
<!-- Node35 -->
<g id="Node000035" class="node">
<title>Node35</title>
<g id="a_Node000035"><a xlink:href="classllzk_1_1impl_1_1PredecessorPrinterPassBase.html" target="_top" xlink:title=" ">
<polygon fill="white" stroke="#666666" points="349.25,-665.88 190.75,-665.88 190.75,-632.38 349.25,-632.38 349.25,-665.88"/>
<text text-anchor="start" x="198.75" y="-652.38" font-family="Helvetica,sans-Serif" font-size="10.00">llzk::impl::PredecessorPrinter</text>
<text text-anchor="middle" x="270" y="-639.62" font-family="Helvetica,sans-Serif" font-size="10.00">PassBase&lt; DerivedT &gt;</text>
</a>
</g>
</g>
<!-- Node0&#45;&gt;Node35 -->
<g id="edge811_Node000000_Node000035" class="edge">
<title>Node0&#45;&gt;Node35</title>
<g id="a_edge811_Node000000_Node000035"><a xlink:title=" ">
<path fill="none" stroke="#63b8ff" d="M56.59,-939.1C57.78,-885.31 68.71,-746.43 147.25,-675.12 159.25,-664.23 174.67,-657.49 190.48,-653.4"/>
<polygon fill="#63b8ff" stroke="#63b8ff" points="53.1,-938.77 56.48,-948.8 60.09,-938.84 53.1,-938.77"/>
</a>
</g>
</g>
<!-- Node36 -->
<g id="Node000036" class="node">
<title>Node36</title>
<g id="a_Node000036"><a xlink:href="classllzk_1_1impl_1_1RedundantOperationEliminationPassBase.html" target="_top" xlink:title=" ">
<polygon fill="white" stroke="#666666" points="362,-613.88 178,-613.88 178,-580.38 362,-580.38 362,-613.88"/>
<text text-anchor="start" x="186" y="-600.38" font-family="Helvetica,sans-Serif" font-size="10.00">llzk::impl::RedundantOperation</text>
<text text-anchor="middle" x="270" y="-587.62" font-family="Helvetica,sans-Serif" font-size="10.00">EliminationPassBase&lt; DerivedT &gt;</text>
</a>
</g>
</g>
<!-- Node0&#45;&gt;Node36 -->
<g id="edge812_Node000000_Node000036" class="edge">
<title>Node0&#45;&gt;Node36</title>
<g id="a_edge812_Node000000_Node000036"><a xlink:title=" ">
<path fill="none" stroke="#63b8ff" d="M59.49,-939.29C68.82,-871.67 100.38,-667.64 147.25,-623.12 155.87,-614.94 166.41,-609.07 177.64,-604.9"/>
<polygon fill="#63b8ff" stroke="#63b8ff" points="56.04,-938.7 58.17,-949.08 62.98,-939.64 56.04,-938.7"/>
</a>
</g>
</g>
<!-- Node37 -->
<g id="Node000037" class="node">
<title>Node37</title>
<g id="a_Node000037"><a xlink:href="classllzk_1_1impl_1_1RedundantReadAndWriteEliminationPassBase.html" target="_top" xlink:title=" ">
<polygon fill="white" stroke="#666666" points="351.12,-562.25 188.88,-562.25 188.88,-516 351.12,-516 351.12,-562.25"/>
<text text-anchor="start" x="196.88" y="-548.75" font-family="Helvetica,sans-Serif" font-size="10.00">llzk::impl::RedundantRead</text>
<text text-anchor="start" x="196.88" y="-536" font-family="Helvetica,sans-Serif" font-size="10.00">AndWriteEliminationPassBase</text>
<text text-anchor="middle" x="270" y="-523.25" font-family="Helvetica,sans-Serif" font-size="10.00">&lt; DerivedT &gt;</text>
</a>
</g>
</g>
<!-- Node0&#45;&gt;Node37 -->
<g id="edge813_Node000000_Node000037" class="edge">
<title>Node0&#45;&gt;Node37</title>
<g id="a_edge813_Node000000_Node000037"><a xlink:title=" ">
<path fill="none" stroke="#63b8ff" d="M58.74,-939.48C66.38,-865.61 94.93,-624.97 147.25,-571.12 158.44,-559.6 173.25,-552.06 188.66,-547.16"/>
<polygon fill="#63b8ff" stroke="#63b8ff" points="55.29,-938.76 57.77,-949.06 62.26,-939.46 55.29,-938.76"/>
</a>
</g>
</g>
<!-- Node38 -->
<g id="Node000038" class="node">
<title>Node38</title>
<g id="a_Node000038"><a xlink:href="classllzk_1_1impl_1_1RemoveUnusedDiscardableAllocationsPassBase.html" target="_top" xlink:title=" ">
<polygon fill="white" stroke="#666666" points="356.75,-498.25 183.25,-498.25 183.25,-452 356.75,-452 356.75,-498.25"/>
<text text-anchor="start" x="191.25" y="-484.75" font-family="Helvetica,sans-Serif" font-size="10.00">llzk::impl::RemoveUnused</text>
<text text-anchor="start" x="191.25" y="-472" font-family="Helvetica,sans-Serif" font-size="10.00">DiscardableAllocationsPassBase</text>
<text text-anchor="middle" x="270" y="-459.25" font-family="Helvetica,sans-Serif" font-size="10.00">&lt; DerivedT &gt;</text>
</a>
</g>
</g>
<!-- Node0&#45;&gt;Node38 -->
<g id="edge814_Node000000_Node000038" class="edge">
<title>Node0&#45;&gt;Node38</title>
<g id="a_edge814_Node000000_Node000038"><a xlink:title=" ">
<path fill="none" stroke="#63b8ff" d="M57.99,-939.2C63.53,-857.36 86.97,-571.14 147.25,-507.12 156.91,-496.86 169.44,-489.74 182.77,-484.83"/>
<polygon fill="#63b8ff" stroke="#63b8ff" points="54.51,-938.8 57.35,-949.01 61.5,-939.25 54.51,-938.8"/>
</a>
</g>
</g>
<!-- Node39 -->
<g id="Node000039" class="node">
<title>Node39</title>
<g id="a_Node000039"><a xlink:href="classllzk_1_1impl_1_1SymbolDefTreePrinterPassBase.html" target="_top" xlink:title=" ">
<polygon fill="white" stroke="#666666" points="350.38,-433.88 189.62,-433.88 189.62,-400.38 350.38,-400.38 350.38,-433.88"/>
<text text-anchor="start" x="197.62" y="-420.38" font-family="Helvetica,sans-Serif" font-size="10.00">llzk::impl::SymbolDefTree</text>
<text text-anchor="middle" x="270" y="-407.62" font-family="Helvetica,sans-Serif" font-size="10.00">PrinterPassBase&lt; DerivedT &gt;</text>
</a>
</g>
</g>
<!-- Node0&#45;&gt;Node39 -->
<g id="edge815_Node000000_Node000039" class="edge">
<title>Node0&#45;&gt;Node39</title>
<g id="a_edge815_Node000000_Node000039"><a xlink:title=" ">
<path fill="none" stroke="#63b8ff" d="M57.31,-938.95C60.55,-849.41 77.21,-515.82 147.25,-443.12 158.5,-431.45 173.6,-424.39 189.34,-420.23"/>
<polygon fill="#63b8ff" stroke="#63b8ff" points="53.82,-938.71 56.98,-948.82 60.82,-938.94 53.82,-938.71"/>
</a>
</g>
</g>
<!-- Node40 -->
<g id="Node000040" class="node">
<title>Node40</title>
<g id="a_Node000040"><a xlink:href="classllzk_1_1impl_1_1SymbolUseGraphPrinterPassBase.html" target="_top" xlink:title=" ">
<polygon fill="white" stroke="#666666" points="350.38,-381.88 189.62,-381.88 189.62,-348.38 350.38,-348.38 350.38,-381.88"/>
<text text-anchor="start" x="197.62" y="-368.38" font-family="Helvetica,sans-Serif" font-size="10.00">llzk::impl::SymbolUseGraph</text>
<text text-anchor="middle" x="270" y="-355.62" font-family="Helvetica,sans-Serif" font-size="10.00">PrinterPassBase&lt; DerivedT &gt;</text>
</a>
</g>
</g>
<!-- Node0&#45;&gt;Node40 -->
<g id="edge816_Node000000_Node000040" class="edge">
<title>Node0&#45;&gt;Node40</title>
<g id="a_edge816_Node000000_Node000040"><a xlink:title=" ">
<path fill="none" stroke="#63b8ff" d="M56.92,-939.21C58.66,-844.58 70.35,-472.18 147.25,-391.12 158.41,-379.36 173.48,-372.26 189.21,-368.1"/>
<polygon fill="#63b8ff" stroke="#63b8ff" points="53.42,-939.09 56.76,-949.14 60.42,-939.2 53.42,-939.09"/>
</a>
</g>
</g>
<!-- Node41 -->
<g id="Node000041" class="node">
<title>Node41</title>
<g id="a_Node000041"><a xlink:href="classllzk_1_1impl_1_1UnusedDeclarationEliminationPassBase.html" target="_top" xlink:title=" ">
<polygon fill="white" stroke="#666666" points="362,-329.88 178,-329.88 178,-296.38 362,-296.38 362,-329.88"/>
<text text-anchor="start" x="186" y="-316.38" font-family="Helvetica,sans-Serif" font-size="10.00">llzk::impl::UnusedDeclaration</text>
<text text-anchor="middle" x="270" y="-303.62" font-family="Helvetica,sans-Serif" font-size="10.00">EliminationPassBase&lt; DerivedT &gt;</text>
</a>
</g>
</g>
<!-- Node0&#45;&gt;Node41 -->
<g id="edge817_Node000000_Node000041" class="edge">
<title>Node0&#45;&gt;Node41</title>
<g id="a_edge817_Node000000_Node000041"><a xlink:title=" ">
<path fill="none" stroke="#63b8ff" d="M56.6,-939.46C56.94,-840.04 63.47,-428.6 147.25,-339.12 155.6,-330.21 166.19,-323.97 177.63,-319.64"/>
<polygon fill="#63b8ff" stroke="#63b8ff" points="53.1,-939.16 56.59,-949.16 60.1,-939.17 53.1,-939.16"/>
</a>
</g>
</g>
<!-- Node42 -->
<g id="Node000042" class="node">
<title>Node42</title>
<g id="a_Node000042"><a xlink:href="classllzk_1_1impl_1_1WhileToForPassBase.html" target="_top" xlink:title=" ">
<polygon fill="white" stroke="#666666" points="341,-277.88 199,-277.88 199,-244.38 341,-244.38 341,-277.88"/>
<text text-anchor="start" x="207" y="-264.38" font-family="Helvetica,sans-Serif" font-size="10.00">llzk::impl::WhileToForPass</text>
<text text-anchor="middle" x="270" y="-251.62" font-family="Helvetica,sans-Serif" font-size="10.00">Base&lt; DerivedT &gt;</text>
</a>
</g>
</g>
<!-- Node0&#45;&gt;Node42 -->
<g id="edge818_Node000000_Node000042" class="edge">
<title>Node0&#45;&gt;Node42</title>
<g id="a_edge818_Node000000_Node000042"><a xlink:title=" ">
<path fill="none" stroke="#63b8ff" d="M56.33,-938.99C55.38,-833.73 56.76,-384.84 147.25,-287.12 160.54,-272.77 179.65,-265.32 198.8,-261.68"/>
<polygon fill="#63b8ff" stroke="#63b8ff" points="52.83,-938.84 56.43,-948.8 59.82,-938.77 52.83,-938.84"/>
</a>
</g>
</g>
<!-- Node43 -->
<g id="Node000043" class="node">
<title>Node43</title>
<g id="a_Node000043"><a xlink:href="classllzk_1_1include_1_1impl_1_1InlineIncludesPassBase.html" target="_top" xlink:title=" ">
<polygon fill="white" stroke="#666666" points="337.62,-226.25 202.38,-226.25 202.38,-180 337.62,-180 337.62,-226.25"/>
<text text-anchor="start" x="210.38" y="-212.75" font-family="Helvetica,sans-Serif" font-size="10.00">llzk::include::impl</text>
<text text-anchor="start" x="210.38" y="-200" font-family="Helvetica,sans-Serif" font-size="10.00">::InlineIncludesPassBase</text>
<text text-anchor="middle" x="270" y="-187.25" font-family="Helvetica,sans-Serif" font-size="10.00">&lt; DerivedT &gt;</text>
</a>
</g>
</g>
<!-- Node0&#45;&gt;Node43 -->
<g id="edge819_Node000000_Node000043" class="edge">
<title>Node0&#45;&gt;Node43</title>
<g id="a_edge819_Node000000_Node000043"><a xlink:title=" ">
<path fill="none" stroke="#63b8ff" d="M56.19,-939.13C54.48,-829.55 52.39,-343.5 147.25,-235.12 161.07,-219.34 181.64,-210.89 201.97,-206.5"/>
<polygon fill="#63b8ff" stroke="#63b8ff" points="52.68,-938.88 56.36,-948.82 59.68,-938.76 52.68,-938.88"/>
</a>
</g>
</g>
<!-- Node44 -->
<g id="Node000044" class="node">
<title>Node44</title>
<g id="a_Node000044"><a xlink:href="classllzk_1_1pod_1_1impl_1_1PodToScalarPassBase.html" target="_top" xlink:title=" ">
<polygon fill="white" stroke="#666666" points="344.75,-161.88 195.25,-161.88 195.25,-128.38 344.75,-128.38 344.75,-161.88"/>
<text text-anchor="start" x="203.25" y="-148.38" font-family="Helvetica,sans-Serif" font-size="10.00">llzk::pod::impl::PodToScalar</text>
<text text-anchor="middle" x="270" y="-135.62" font-family="Helvetica,sans-Serif" font-size="10.00">PassBase&lt; DerivedT &gt;</text>
</a>
</g>
</g>
<!-- Node0&#45;&gt;Node44 -->
<g id="edge820_Node000000_Node000044" class="edge">
<title>Node0&#45;&gt;Node44</title>
<g id="a_edge820_Node000000_Node000044"><a xlink:title=" ">
<path fill="none" stroke="#63b8ff" d="M57.65,-938.81C63.48,-816.38 94.08,-229.67 147.25,-171.12 159.53,-157.6 176.97,-150.18 194.82,-146.29"/>
<polygon fill="#63b8ff" stroke="#63b8ff" points="54.16,-938.63 57.18,-948.78 61.15,-938.96 54.16,-938.63"/>
</a>
</g>
</g>
<!-- Node45 -->
<g id="Node000045" class="node">
<title>Node45</title>
<g id="a_Node000045"><a xlink:href="classllzk_1_1polymorphic_1_1impl_1_1EmptyTemplateRemovalPassBase.html" target="_top" xlink:title=" ">
<polygon fill="white" stroke="#666666" points="351.88,-110.25 188.12,-110.25 188.12,-64 351.88,-64 351.88,-110.25"/>
<text text-anchor="start" x="196.12" y="-96.75" font-family="Helvetica,sans-Serif" font-size="10.00">llzk::polymorphic::</text>
<text text-anchor="start" x="196.12" y="-84" font-family="Helvetica,sans-Serif" font-size="10.00">impl::EmptyTemplateRemoval</text>
<text text-anchor="middle" x="270" y="-71.25" font-family="Helvetica,sans-Serif" font-size="10.00">PassBase&lt; DerivedT &gt;</text>
</a>
</g>
</g>
<!-- Node0&#45;&gt;Node45 -->
<g id="edge821_Node000000_Node000045" class="edge">
<title>Node0&#45;&gt;Node45</title>
<g id="a_edge821_Node000000_Node000045"><a xlink:title=" ">
<path fill="none" stroke="#63b8ff" d="M57.51,-939.38C62.81,-813.65 92.03,-183.3 147.25,-119.12 157.8,-106.87 172.42,-99.02 187.88,-94.06"/>
<polygon fill="#63b8ff" stroke="#63b8ff" points="54.03,-938.85 57.11,-948.99 61.02,-939.14 54.03,-938.85"/>
</a>
</g>
</g>
<!-- Node46 -->
<g id="Node000046" class="node">
<title>Node46</title>
<g id="a_Node000046"><a xlink:href="classllzk_1_1polymorphic_1_1impl_1_1FlatteningPassBase.html" target="_top" xlink:title=" ">
<polygon fill="white" stroke="#666666" points="339.5,-46.25 200.5,-46.25 200.5,0 339.5,0 339.5,-46.25"/>
<text text-anchor="start" x="208.5" y="-32.75" font-family="Helvetica,sans-Serif" font-size="10.00">llzk::polymorphic::</text>
<text text-anchor="start" x="208.5" y="-20" font-family="Helvetica,sans-Serif" font-size="10.00">impl::FlatteningPassBase</text>
<text text-anchor="middle" x="270" y="-7.25" font-family="Helvetica,sans-Serif" font-size="10.00">&lt; DerivedT &gt;</text>
</a>
</g>
</g>
<!-- Node0&#45;&gt;Node46 -->
<g id="edge822_Node000000_Node000046" class="edge">
<title>Node0&#45;&gt;Node46</title>
<g id="a_edge822_Node000000_Node000046"><a xlink:title=" ">
<path fill="none" stroke="#63b8ff" d="M57.35,-938.97C61.87,-806.7 87.96,-124.57 147.25,-55.12 160.52,-39.58 180.34,-31.13 200.15,-26.65"/>
<polygon fill="#63b8ff" stroke="#63b8ff" points="53.86,-938.69 57.02,-948.8 60.85,-938.93 53.86,-938.69"/>
</a>
</g>
</g>
<!-- Node2 -->
<g id="Node000002" class="node">
<title>Node2</title>
<g id="a_Node000002"><a xlink:href="classllzk_1_1CallGraphPrinterPass.html" target="_top" xlink:title=" ">
<polygon fill="white" stroke="#666666" points="599.25,-1963.5 458,-1963.5 458,-1942.75 599.25,-1942.75 599.25,-1963.5"/>
<text text-anchor="middle" x="528.62" y="-1950" font-family="Helvetica,sans-Serif" font-size="10.00">llzk::CallGraphPrinterPass</text>
</a>
</g>
</g>
<!-- Node1&#45;&gt;Node2 -->
<g id="edge778_Node000001_Node000002" class="edge">
<title>Node1&#45;&gt;Node2</title>
<g id="a_edge778_Node000001_Node000002"><a xlink:title=" ">
<path fill="none" stroke="#63b8ff" d="M374.73,-1953.12C402.69,-1953.12 432.27,-1953.12 457.88,-1953.12"/>
<polygon fill="#63b8ff" stroke="#63b8ff" points="374.8,-1949.63 364.8,-1953.13 374.8,-1956.63 374.8,-1949.63"/>
</a>
</g>
</g>
<!-- Node4 -->
<g id="Node000004" class="node">
<title>Node4</title>
<g id="a_Node000004"><a xlink:href="classllzk_1_1CallGraphSCCsPrinterPass.html" target="_top" xlink:title=" ">
<polygon fill="white" stroke="#666666" points="611.62,-1905.5 445.62,-1905.5 445.62,-1884.75 611.62,-1884.75 611.62,-1905.5"/>
<text text-anchor="middle" x="528.62" y="-1892" font-family="Helvetica,sans-Serif" font-size="10.00">llzk::CallGraphSCCsPrinterPass</text>
</a>
</g>
</g>
<!-- Node3&#45;&gt;Node4 -->
<g id="edge780_Node000003_Node000004" class="edge">
<title>Node3&#45;&gt;Node4</title>
<g id="a_edge780_Node000003_Node000004"><a xlink:title=" ">
<path fill="none" stroke="#63b8ff" d="M370.54,-1895.12C395.23,-1895.12 421.42,-1895.12 445.19,-1895.12"/>
<polygon fill="#63b8ff" stroke="#63b8ff" points="370.83,-1891.63 360.83,-1895.13 370.83,-1898.63 370.83,-1891.63"/>
</a>
</g>
</g>
<!-- Node6 -->
<g id="Node000006" class="node">
<title>Node6</title>
<g id="a_Node000006"><a xlink:href="classllzk_1_1ComputeConstrainToProductPass.html" target="_top" xlink:title=" ">
<polygon fill="white" stroke="#666666" points="598.88,-1847.88 458.38,-1847.88 458.38,-1814.38 598.88,-1814.38 598.88,-1847.88"/>
<text text-anchor="start" x="466.38" y="-1834.38" font-family="Helvetica,sans-Serif" font-size="10.00">llzk::ComputeConstrainTo</text>
<text text-anchor="middle" x="528.62" y="-1821.62" font-family="Helvetica,sans-Serif" font-size="10.00">ProductPass</text>
</a>
</g>
</g>
<!-- Node5&#45;&gt;Node6 -->
<g id="edge782_Node000005_Node000006" class="edge">
<title>Node5&#45;&gt;Node6</title>
<g id="a_edge782_Node000005_Node000006"><a xlink:title=" ">
<path fill="none" stroke="#63b8ff" d="M387.19,-1831.12C411.39,-1831.12 436.17,-1831.12 458.05,-1831.12"/>
<polygon fill="#63b8ff" stroke="#63b8ff" points="387.26,-1827.63 377.26,-1831.13 387.26,-1834.63 387.26,-1827.63"/>
</a>
</g>
</g>
<!-- Node8 -->
<g id="Node000008" class="node">
<title>Node8</title>
<g id="a_Node000008"><a xlink:href="classllzk_1_1ConstraintDependencyGraphPrinterPass.html" target="_top" xlink:title=" ">
<polygon fill="white" stroke="#666666" points="603.75,-1783.88 453.5,-1783.88 453.5,-1750.38 603.75,-1750.38 603.75,-1783.88"/>
<text text-anchor="start" x="461.5" y="-1770.38" font-family="Helvetica,sans-Serif" font-size="10.00">llzk::ConstraintDependency</text>
<text text-anchor="middle" x="528.62" y="-1757.62" font-family="Helvetica,sans-Serif" font-size="10.00">GraphPrinterPass</text>
</a>
</g>
</g>
<!-- Node7&#45;&gt;Node8 -->
<g id="edge784_Node000007_Node000008" class="edge">
<title>Node7&#45;&gt;Node8</title>
<g id="a_edge784_Node000007_Node000008"><a xlink:title=" ">
<path fill="none" stroke="#63b8ff" d="M404.02,-1767.12C420.89,-1767.12 437.66,-1767.12 453.15,-1767.12"/>
<polygon fill="#63b8ff" stroke="#63b8ff" points="404.44,-1763.63 394.44,-1767.13 404.44,-1770.63 404.44,-1763.63"/>
</a>
</g>
</g>
<!-- Node10 -->
<g id="Node000010" class="node">
<title>Node10</title>
<g id="a_Node000010"><a xlink:href="classllzk_1_1EnforceNoMemberOverwritePass.html" target="_top" xlink:title=" ">
<polygon fill="white" stroke="#666666" points="628.5,-1713.5 428.75,-1713.5 428.75,-1692.75 628.5,-1692.75 628.5,-1713.5"/>
<text text-anchor="middle" x="528.62" y="-1700" font-family="Helvetica,sans-Serif" font-size="10.00">llzk::EnforceNoMemberOverwritePass</text>
</a>
</g>
</g>
<!-- Node9&#45;&gt;Node10 -->
<g id="edge786_Node000009_Node000010" class="edge">
<title>Node9&#45;&gt;Node10</title>
<g id="a_edge786_Node000009_Node000010"><a xlink:title=" ">
<path fill="none" stroke="#63b8ff" d="M387.54,-1703.12C401.21,-1703.12 415.06,-1703.12 428.46,-1703.12"/>
<polygon fill="#63b8ff" stroke="#63b8ff" points="387.63,-1699.63 377.63,-1703.13 387.63,-1706.63 387.63,-1699.63"/>
</a>
</g>
</g>
<!-- Node12 -->
<g id="Node000012" class="node">
<title>Node12</title>
<g id="a_Node000012"><a xlink:href="classllzk_1_1FuseProductLoopsPass.html" target="_top" xlink:title=" ">
<polygon fill="white" stroke="#666666" points="603,-1655.5 454.25,-1655.5 454.25,-1634.75 603,-1634.75 603,-1655.5"/>
<text text-anchor="middle" x="528.62" y="-1642" font-family="Helvetica,sans-Serif" font-size="10.00">llzk::FuseProductLoopsPass</text>
</a>
</g>
</g>
<!-- Node11&#45;&gt;Node12 -->
<g id="edge788_Node000011_Node000012" class="edge">
<title>Node11&#45;&gt;Node12</title>
<g id="a_edge788_Node000011_Node000012"><a xlink:title=" ">
<path fill="none" stroke="#63b8ff" d="M378.5,-1645.12C403.95,-1645.12 430.52,-1645.12 454.06,-1645.12"/>
<polygon fill="#63b8ff" stroke="#63b8ff" points="378.8,-1641.63 368.8,-1645.13 378.8,-1648.63 378.8,-1641.63"/>
</a>
</g>
</g>
<!-- Node14 -->
<g id="Node000014" class="node">
<title>Node14</title>
<g id="a_Node000014"><a xlink:href="classllzk_1_1IntervalAnalysisPrinterPass.html" target="_top" xlink:title=" ">
<polygon fill="white" stroke="#666666" points="614.62,-1597.5 442.62,-1597.5 442.62,-1576.75 614.62,-1576.75 614.62,-1597.5"/>
<text text-anchor="middle" x="528.62" y="-1584" font-family="Helvetica,sans-Serif" font-size="10.00">llzk::IntervalAnalysisPrinterPass</text>
</a>
</g>
</g>
<!-- Node13&#45;&gt;Node14 -->
<g id="edge790_Node000013_Node000014" class="edge">
<title>Node13&#45;&gt;Node14</title>
<g id="a_edge790_Node000013_Node000014"><a xlink:title=" ">
<path fill="none" stroke="#63b8ff" d="M373.63,-1587.12C396.4,-1587.12 420.3,-1587.12 442.3,-1587.12"/>
<polygon fill="#63b8ff" stroke="#63b8ff" points="373.71,-1583.63 363.71,-1587.13 373.71,-1590.63 373.71,-1583.63"/>
</a>
</g>
</g>
<!-- Node16 -->
<g id="Node000016" class="node">
<title>Node16</title>
<g id="a_Node000016"><a xlink:href="classllzk_1_1PredecessorPrinterPass.html" target="_top" xlink:title=" ">
<polygon fill="white" stroke="#666666" points="604.88,-1539.5 452.38,-1539.5 452.38,-1518.75 604.88,-1518.75 604.88,-1539.5"/>
<text text-anchor="middle" x="528.62" y="-1526" font-family="Helvetica,sans-Serif" font-size="10.00">llzk::PredecessorPrinterPass</text>
</a>
</g>
</g>
<!-- Node15&#45;&gt;Node16 -->
<g id="edge792_Node000015_Node000016" class="edge">
<title>Node15&#45;&gt;Node16</title>
<g id="a_edge792_Node000015_Node000016"><a xlink:title=" ">
<path fill="none" stroke="#63b8ff" d="M380.47,-1529.12C404.54,-1529.12 429.52,-1529.12 451.91,-1529.12"/>
<polygon fill="#63b8ff" stroke="#63b8ff" points="380.63,-1525.63 370.63,-1529.13 380.63,-1532.63 380.63,-1525.63"/>
</a>
</g>
</g>
<!-- Node18 -->
<g id="Node000018" class="node">
<title>Node18</title>
<g id="a_Node000018"><a xlink:href="classllzk_1_1SymbolDefTreePass.html" target="_top" xlink:title=" ">
<polygon fill="white" stroke="#666666" points="596.25,-1481.5 461,-1481.5 461,-1460.75 596.25,-1460.75 596.25,-1481.5"/>
<text text-anchor="middle" x="528.62" y="-1468" font-family="Helvetica,sans-Serif" font-size="10.00">llzk::SymbolDefTreePass</text>
</a>
</g>
</g>
<!-- Node17&#45;&gt;Node18 -->
<g id="edge794_Node000017_Node000018" class="edge">
<title>Node17&#45;&gt;Node18</title>
<g id="a_edge794_Node000017_Node000018"><a xlink:title=" ">
<path fill="none" stroke="#63b8ff" d="M371.38,-1471.12C401.31,-1471.12 433.36,-1471.12 460.6,-1471.12"/>
<polygon fill="#63b8ff" stroke="#63b8ff" points="371.55,-1467.63 361.55,-1471.13 371.55,-1474.63 371.55,-1467.63"/>
</a>
</g>
</g>
<!-- Node20 -->
<g id="Node000020" class="node">
<title>Node20</title>
<g id="a_Node000020"><a xlink:href="classllzk_1_1SymbolUseGraphPass.html" target="_top" xlink:title=" ">
<polygon fill="white" stroke="#666666" points="601.5,-1417.5 455.75,-1417.5 455.75,-1396.75 601.5,-1396.75 601.5,-1417.5"/>
<text text-anchor="middle" x="528.62" y="-1404" font-family="Helvetica,sans-Serif" font-size="10.00">llzk::SymbolUseGraphPass</text>
</a>
</g>
</g>
<!-- Node19&#45;&gt;Node20 -->
<g id="edge796_Node000019_Node000020" class="edge">
<title>Node19&#45;&gt;Node20</title>
<g id="a_edge796_Node000019_Node000020"><a xlink:title=" ">
<path fill="none" stroke="#63b8ff" d="M376.72,-1407.12C403.21,-1407.12 431.02,-1407.12 455.45,-1407.12"/>
<polygon fill="#63b8ff" stroke="#63b8ff" points="376.98,-1403.63 366.98,-1407.13 376.98,-1410.63 376.98,-1403.63"/>
</a>
</g>
</g>
<!-- Node22 -->
<g id="Node000022" class="node">
<title>Node22</title>
<g id="a_Node000022"><a xlink:href="classllzk_1_1WhileToForPass.html" target="_top" xlink:title=" ">
<polygon fill="white" stroke="#666666" points="585.75,-1359.5 471.5,-1359.5 471.5,-1338.75 585.75,-1338.75 585.75,-1359.5"/>
<text text-anchor="middle" x="528.62" y="-1346" font-family="Helvetica,sans-Serif" font-size="10.00">llzk::WhileToForPass</text>
</a>
</g>
</g>
<!-- Node21&#45;&gt;Node22 -->
<g id="edge798_Node000021_Node000022" class="edge">
<title>Node21&#45;&gt;Node22</title>
<g id="a_edge798_Node000021_Node000022"><a xlink:title=" ">
<path fill="none" stroke="#63b8ff" d="M352.68,-1349.12C391.27,-1349.12 436.37,-1349.12 471.12,-1349.12"/>
<polygon fill="#63b8ff" stroke="#63b8ff" points="352.98,-1345.63 342.98,-1349.13 352.98,-1352.63 352.98,-1345.63"/>
</a>
</g>
</g>
</g>
</svg>
