<?xml version="1.0" encoding="UTF-8" standalone="no"?>
<!DOCTYPE svg PUBLIC "-//W3C//DTD SVG 1.1//EN"
 "http://www.w3.org/Graphics/SVG/1.1/DTD/svg11.dtd">
<!-- Generated by graphviz version 12.2.1 (0)
 -->
<!-- Title: Graphical Class Hierarchy Pages: 1 -->
<svg width="338pt" height="182pt"
 viewBox="0.00 0.00 337.75 182.25" xmlns="http://www.w3.org/2000/svg" xmlns:xlink="http://www.w3.org/1999/xlink">
<g id="graph0" class="graph" transform="scale(1 1) rotate(0) translate(4 178.25)">
<title>Graphical Class Hierarchy</title>
<!-- Node0 -->
<g id="Node000000" class="node">
<title>Node0</title>
<g id="a_Node000000"><a xlink:title=" ">
<polygon fill="#e0e0e0" stroke="#999999" points="144.25,-97.5 0,-97.5 0,-76.75 144.25,-76.75 144.25,-97.5"/>
<text text-anchor="middle" x="72.12" y="-84" font-family="Helvetica,sans-Serif" font-size="10.00">mlir::OpConversionPattern</text>
</a>
</g>
</g>
<!-- Node1 -->
<g id="Node000001" class="node">
<title>Node1</title>
<g id="a_Node000001"><a xlink:href="classllzk_1_1polymorphic_1_1detail_1_1CallOpClassReplacePattern.html" target="_top" xlink:title=" ">
<polygon fill="white" stroke="#666666" points="328.62,-174.25 181.38,-174.25 181.38,-128 328.62,-128 328.62,-174.25"/>
<text text-anchor="start" x="189.38" y="-160.75" font-family="Helvetica,sans-Serif" font-size="10.00">llzk::polymorphic::</text>
<text text-anchor="start" x="189.38" y="-148" font-family="Helvetica,sans-Serif" font-size="10.00">detail::CallOpClassReplace</text>
<text text-anchor="middle" x="255" y="-135.25" font-family="Helvetica,sans-Serif" font-size="10.00">Pattern</text>
</a>
</g>
</g>
<!-- Node0&#45;&gt;Node1 -->
<g id="edge384_Node000000_Node000001" class="edge">
<title>Node0&#45;&gt;Node1</title>
<g id="a_edge384_Node000000_Node000001"><a xlink:title=" ">
<path fill="none" stroke="#63b8ff" d="M114.57,-101.79C136.15,-109.42 163.06,-118.95 187.47,-127.58"/>
<polygon fill="#63b8ff" stroke="#63b8ff" points="115.83,-98.52 105.23,-98.49 113.49,-105.12 115.83,-98.52"/>
</a>
</g>
</g>
<!-- Node2 -->
<g id="Node000002" class="node">
<title>Node2</title>
<g id="a_Node000002"><a xlink:href="classllzk_1_1polymorphic_1_1detail_1_1CreateArrayOpClassReplacePattern.html" target="_top" xlink:title=" ">
<polygon fill="white" stroke="#666666" points="329,-110.25 181,-110.25 181,-64 329,-64 329,-110.25"/>
<text text-anchor="start" x="189" y="-96.75" font-family="Helvetica,sans-Serif" font-size="10.00">llzk::polymorphic::</text>
<text text-anchor="start" x="189" y="-84" font-family="Helvetica,sans-Serif" font-size="10.00">detail::CreateArrayOpClass</text>
<text text-anchor="middle" x="255" y="-71.25" font-family="Helvetica,sans-Serif" font-size="10.00">ReplacePattern</text>
</a>
</g>
</g>
<!-- Node0&#45;&gt;Node2 -->
<g id="edge385_Node000000_Node000002" class="edge">
<title>Node0&#45;&gt;Node2</title>
<g id="a_edge385_Node000000_Node000002"><a xlink:title=" ">
<path fill="none" stroke="#63b8ff" d="M156.11,-87.12C164.3,-87.12 172.57,-87.12 180.66,-87.12"/>
<polygon fill="#63b8ff" stroke="#63b8ff" points="156.13,-83.63 146.13,-87.13 156.13,-90.63 156.13,-83.63"/>
</a>
</g>
</g>
<!-- Node3 -->
<g id="Node000003" class="node">
<title>Node3</title>
<g id="a_Node000003"><a xlink:href="classllzk_1_1polymorphic_1_1detail_1_1GeneralTypeReplacePattern.html" target="_top" xlink:title=" ">
<polygon fill="white" stroke="#666666" points="329.75,-46.25 180.25,-46.25 180.25,0 329.75,0 329.75,-46.25"/>
<text text-anchor="start" x="188.25" y="-32.75" font-family="Helvetica,sans-Serif" font-size="10.00">llzk::polymorphic::</text>
<text text-anchor="start" x="188.25" y="-20" font-family="Helvetica,sans-Serif" font-size="10.00">detail::GeneralTypeReplace</text>
<text text-anchor="middle" x="255" y="-7.25" font-family="Helvetica,sans-Serif" font-size="10.00">Pattern&lt; OpClass &gt;</text>
</a>
</g>
</g>
<!-- Node0&#45;&gt;Node3 -->
<g id="edge386_Node000000_Node000003" class="edge">
<title>Node0&#45;&gt;Node3</title>
<g id="a_edge386_Node000000_Node000003"><a xlink:title=" ">
<path fill="none" stroke="#63b8ff" d="M114.57,-72.46C136.15,-64.83 163.06,-55.3 187.47,-46.67"/>
<polygon fill="#63b8ff" stroke="#63b8ff" points="113.49,-69.13 105.23,-75.76 115.83,-75.73 113.49,-69.13"/>
</a>
</g>
</g>
</g>
</svg>
