<?xml version="1.0" encoding="UTF-8" standalone="no"?>
<!DOCTYPE svg PUBLIC "-//W3C//DTD SVG 1.1//EN"
 "http://www.w3.org/Graphics/SVG/1.1/DTD/svg11.dtd">
<!-- Generated by graphviz version 12.2.1 (0)
 -->
<!-- Title: Graphical Class Hierarchy Pages: 1 -->
<svg width="559pt" height="170pt"
 viewBox="0.00 0.00 559.25 169.88" xmlns="http://www.w3.org/2000/svg" xmlns:xlink="http://www.w3.org/1999/xlink">
<g id="graph0" class="graph" transform="scale(1 1) rotate(0) translate(4 165.88)">
<title>Graphical Class Hierarchy</title>
<!-- Node0 -->
<g id="Node000000" class="node">
<title>Node0</title>
<g id="a_Node000000"><a xlink:href="classllzk_1_1boolean_1_1detail_1_1XorBoolOpGenericAdaptorBase.html" target="_top" xlink:title=" ">
<polygon fill="white" stroke="#666666" points="173.5,-91.5 0,-91.5 0,-58 173.5,-58 173.5,-91.5"/>
<text text-anchor="start" x="8" y="-78" font-family="Helvetica,sans-Serif" font-size="10.00">llzk::boolean::detail</text>
<text text-anchor="middle" x="86.75" y="-65.25" font-family="Helvetica,sans-Serif" font-size="10.00">::XorBoolOpGenericAdaptorBase</text>
</a>
</g>
</g>
<!-- Node1 -->
<g id="Node000001" class="node">
<title>Node1</title>
<g id="a_Node000001"><a xlink:href="classllzk_1_1boolean_1_1XorBoolOpGenericAdaptor.html" target="_top" xlink:title=" ">
<polygon fill="white" stroke="#666666" points="379.25,-161.88 209.5,-161.88 209.5,-115.62 379.25,-115.62 379.25,-161.88"/>
<text text-anchor="start" x="217.5" y="-148.38" font-family="Helvetica,sans-Serif" font-size="10.00">llzk::boolean::XorBoolOp</text>
<text text-anchor="start" x="217.5" y="-135.62" font-family="Helvetica,sans-Serif" font-size="10.00">GenericAdaptor&lt;::llvm</text>
<text text-anchor="middle" x="294.38" y="-122.88" font-family="Helvetica,sans-Serif" font-size="10.00">::ArrayRef&lt;::mlir::Attribute &gt; &gt;</text>
</a>
</g>
</g>
<!-- Node0&#45;&gt;Node1 -->
<g id="edge112_Node000000_Node000001" class="edge">
<title>Node0&#45;&gt;Node1</title>
<g id="a_edge112_Node000000_Node000001"><a xlink:title=" ">
<path fill="none" stroke="#63b8ff" d="M153.88,-95.33C174.26,-101.67 196.85,-108.71 217.81,-115.23"/>
<polygon fill="#63b8ff" stroke="#63b8ff" points="155.16,-92.06 144.57,-92.43 153.08,-98.75 155.16,-92.06"/>
</a>
</g>
</g>
<!-- Node2 -->
<g id="Node000002" class="node">
<title>Node2</title>
<g id="a_Node000002"><a xlink:href="classllzk_1_1boolean_1_1XorBoolOpGenericAdaptor.html" target="_top" xlink:title=" ">
<polygon fill="white" stroke="#666666" points="362.38,-97.88 226.38,-97.88 226.38,-51.62 362.38,-51.62 362.38,-97.88"/>
<text text-anchor="start" x="234.38" y="-84.38" font-family="Helvetica,sans-Serif" font-size="10.00">llzk::boolean::XorBoolOp</text>
<text text-anchor="start" x="234.38" y="-71.62" font-family="Helvetica,sans-Serif" font-size="10.00">GenericAdaptor&lt;::mlir</text>
<text text-anchor="middle" x="294.38" y="-58.88" font-family="Helvetica,sans-Serif" font-size="10.00">::ValueRange &gt;</text>
</a>
</g>
</g>
<!-- Node0&#45;&gt;Node2 -->
<g id="edge113_Node000000_Node000002" class="edge">
<title>Node0&#45;&gt;Node2</title>
<g id="a_edge113_Node000000_Node000002"><a xlink:title=" ">
<path fill="none" stroke="#63b8ff" d="M184.9,-74.75C198.86,-74.75 212.96,-74.75 226.16,-74.75"/>
<polygon fill="#63b8ff" stroke="#63b8ff" points="185.28,-71.25 175.28,-74.75 185.28,-78.25 185.28,-71.25"/>
</a>
</g>
</g>
<!-- Node4 -->
<g id="Node000004" class="node">
<title>Node4</title>
<g id="a_Node000004"><a xlink:href="classllzk_1_1boolean_1_1XorBoolOpGenericAdaptor.html" target="_top" xlink:title=" ">
<polygon fill="white" stroke="#666666" points="369.88,-33.5 218.88,-33.5 218.88,0 369.88,0 369.88,-33.5"/>
<text text-anchor="start" x="226.88" y="-20" font-family="Helvetica,sans-Serif" font-size="10.00">llzk::boolean::XorBoolOp</text>
<text text-anchor="middle" x="294.38" y="-7.25" font-family="Helvetica,sans-Serif" font-size="10.00">GenericAdaptor&lt; RangeT &gt;</text>
</a>
</g>
</g>
<!-- Node0&#45;&gt;Node4 -->
<g id="edge115_Node000000_Node000004" class="edge">
<title>Node0&#45;&gt;Node4</title>
<g id="a_edge115_Node000000_Node000004"><a xlink:title=" ">
<path fill="none" stroke="#63b8ff" d="M159.94,-54.39C183.63,-47.71 209.71,-40.35 232.47,-33.93"/>
<polygon fill="#63b8ff" stroke="#63b8ff" points="159.02,-51.01 150.34,-57.09 160.92,-57.75 159.02,-51.01"/>
</a>
</g>
</g>
<!-- Node3 -->
<g id="Node000003" class="node">
<title>Node3</title>
<g id="a_Node000003"><a xlink:href="classllzk_1_1boolean_1_1XorBoolOpAdaptor.html" target="_top" xlink:title=" ">
<polygon fill="white" stroke="#666666" points="551.25,-91.5 415.25,-91.5 415.25,-58 551.25,-58 551.25,-91.5"/>
<text text-anchor="start" x="423.25" y="-78" font-family="Helvetica,sans-Serif" font-size="10.00">llzk::boolean::XorBoolOp</text>
<text text-anchor="middle" x="483.25" y="-65.25" font-family="Helvetica,sans-Serif" font-size="10.00">Adaptor</text>
</a>
</g>
</g>
<!-- Node2&#45;&gt;Node3 -->
<g id="edge114_Node000002_Node000003" class="edge">
<title>Node2&#45;&gt;Node3</title>
<g id="a_edge114_Node000002_Node000003"><a xlink:title=" ">
<path fill="none" stroke="#63b8ff" d="M374.11,-74.75C387.67,-74.75 401.65,-74.75 414.88,-74.75"/>
<polygon fill="#63b8ff" stroke="#63b8ff" points="374.35,-71.25 364.35,-74.75 374.35,-78.25 374.35,-71.25"/>
</a>
</g>
</g>
</g>
</svg>
