<?xml version="1.0" encoding="UTF-8" standalone="no"?>
<!DOCTYPE svg PUBLIC "-//W3C//DTD SVG 1.1//EN"
 "http://www.w3.org/Graphics/SVG/1.1/DTD/svg11.dtd">
<!-- Generated by graphviz version 12.2.1 (0)
 -->
<!-- Title: Graphical Class Hierarchy Pages: 1 -->
<svg width="489pt" height="196pt"
 viewBox="0.00 0.00 488.75 195.62" xmlns="http://www.w3.org/2000/svg" xmlns:xlink="http://www.w3.org/1999/xlink">
<g id="graph0" class="graph" transform="scale(1 1) rotate(0) translate(4 191.62)">
<title>Graphical Class Hierarchy</title>
<!-- Node0 -->
<g id="Node000000" class="node">
<title>Node0</title>
<g id="a_Node000000"><a xlink:href="classllzk_1_1felt_1_1detail_1_1SignedIntDivFeltOpGenericAdaptorBase.html" target="_top" xlink:title=" ">
<polygon fill="white" stroke="#666666" points="153.25,-110.25 0,-110.25 0,-64 153.25,-64 153.25,-110.25"/>
<text text-anchor="start" x="8" y="-96.75" font-family="Helvetica,sans-Serif" font-size="10.00">llzk::felt::detail</text>
<text text-anchor="start" x="8" y="-84" font-family="Helvetica,sans-Serif" font-size="10.00">::SignedIntDivFeltOpGeneric</text>
<text text-anchor="middle" x="76.62" y="-71.25" font-family="Helvetica,sans-Serif" font-size="10.00">AdaptorBase</text>
</a>
</g>
</g>
<!-- Node1 -->
<g id="Node000001" class="node">
<title>Node1</title>
<g id="a_Node000001"><a xlink:href="classllzk_1_1felt_1_1SignedIntDivFeltOpGenericAdaptor.html" target="_top" xlink:title=" ">
<polygon fill="white" stroke="#666666" points="320.75,-187.62 189.25,-187.62 189.25,-128.62 320.75,-128.62 320.75,-187.62"/>
<text text-anchor="start" x="197.25" y="-174.12" font-family="Helvetica,sans-Serif" font-size="10.00">llzk::felt::SignedIntDiv</text>
<text text-anchor="start" x="197.25" y="-161.38" font-family="Helvetica,sans-Serif" font-size="10.00">FeltOpGenericAdaptor&lt;</text>
<text text-anchor="start" x="197.25" y="-148.62" font-family="Helvetica,sans-Serif" font-size="10.00">::llvm::ArrayRef&lt;::mlir</text>
<text text-anchor="middle" x="255" y="-135.88" font-family="Helvetica,sans-Serif" font-size="10.00">::Attribute &gt; &gt;</text>
</a>
</g>
</g>
<!-- Node0&#45;&gt;Node1 -->
<g id="edge218_Node000000_Node000001" class="edge">
<title>Node0&#45;&gt;Node1</title>
<g id="a_edge218_Node000000_Node000001"><a xlink:title=" ">
<path fill="none" stroke="#63b8ff" d="M146.38,-114.8C160.34,-120.42 174.98,-126.32 188.81,-131.88"/>
<polygon fill="#63b8ff" stroke="#63b8ff" points="147.85,-111.62 137.27,-111.14 145.24,-118.12 147.85,-111.62"/>
</a>
</g>
</g>
<!-- Node2 -->
<g id="Node000002" class="node">
<title>Node2</title>
<g id="a_Node000002"><a xlink:href="classllzk_1_1felt_1_1SignedIntDivFeltOpGenericAdaptor.html" target="_top" xlink:title=" ">
<polygon fill="white" stroke="#666666" points="320.75,-110.25 189.25,-110.25 189.25,-64 320.75,-64 320.75,-110.25"/>
<text text-anchor="start" x="197.25" y="-96.75" font-family="Helvetica,sans-Serif" font-size="10.00">llzk::felt::SignedIntDiv</text>
<text text-anchor="start" x="197.25" y="-84" font-family="Helvetica,sans-Serif" font-size="10.00">FeltOpGenericAdaptor&lt;</text>
<text text-anchor="middle" x="255" y="-71.25" font-family="Helvetica,sans-Serif" font-size="10.00">::mlir::ValueRange &gt;</text>
</a>
</g>
</g>
<!-- Node0&#45;&gt;Node2 -->
<g id="edge219_Node000000_Node000002" class="edge">
<title>Node0&#45;&gt;Node2</title>
<g id="a_edge219_Node000000_Node000002"><a xlink:title=" ">
<path fill="none" stroke="#63b8ff" d="M165.05,-87.12C173.11,-87.12 181.17,-87.12 188.97,-87.12"/>
<polygon fill="#63b8ff" stroke="#63b8ff" points="165.22,-83.63 155.22,-87.13 165.22,-90.63 165.22,-83.63"/>
</a>
</g>
</g>
<!-- Node4 -->
<g id="Node000004" class="node">
<title>Node4</title>
<g id="a_Node000004"><a xlink:href="classllzk_1_1felt_1_1SignedIntDivFeltOpGenericAdaptor.html" target="_top" xlink:title=" ">
<polygon fill="white" stroke="#666666" points="320.75,-46.25 189.25,-46.25 189.25,0 320.75,0 320.75,-46.25"/>
<text text-anchor="start" x="197.25" y="-32.75" font-family="Helvetica,sans-Serif" font-size="10.00">llzk::felt::SignedIntDiv</text>
<text text-anchor="start" x="197.25" y="-20" font-family="Helvetica,sans-Serif" font-size="10.00">FeltOpGenericAdaptor&lt;</text>
<text text-anchor="middle" x="255" y="-7.25" font-family="Helvetica,sans-Serif" font-size="10.00"> RangeT &gt;</text>
</a>
</g>
</g>
<!-- Node0&#45;&gt;Node4 -->
<g id="edge221_Node000000_Node000004" class="edge">
<title>Node0&#45;&gt;Node4</title>
<g id="a_edge221_Node000000_Node000004"><a xlink:title=" ">
<path fill="none" stroke="#63b8ff" d="M153.32,-59.66C165.17,-55.36 177.33,-50.94 188.92,-46.74"/>
<polygon fill="#63b8ff" stroke="#63b8ff" points="152.18,-56.35 143.97,-63.05 154.57,-62.93 152.18,-56.35"/>
</a>
</g>
</g>
<!-- Node3 -->
<g id="Node000003" class="node">
<title>Node3</title>
<g id="a_Node000003"><a xlink:href="classllzk_1_1felt_1_1SignedIntDivFeltOpAdaptor.html" target="_top" xlink:title=" ">
<polygon fill="white" stroke="#666666" points="480.75,-103.88 356.75,-103.88 356.75,-70.38 480.75,-70.38 480.75,-103.88"/>
<text text-anchor="start" x="364.75" y="-90.38" font-family="Helvetica,sans-Serif" font-size="10.00">llzk::felt::SignedIntDiv</text>
<text text-anchor="middle" x="418.75" y="-77.62" font-family="Helvetica,sans-Serif" font-size="10.00">FeltOpAdaptor</text>
</a>
</g>
</g>
<!-- Node2&#45;&gt;Node3 -->
<g id="edge220_Node000002_Node000003" class="edge">
<title>Node2&#45;&gt;Node3</title>
<g id="a_edge220_Node000002_Node000003"><a xlink:title=" ">
<path fill="none" stroke="#63b8ff" d="M332.2,-87.12C340.28,-87.12 348.41,-87.12 356.29,-87.12"/>
<polygon fill="#63b8ff" stroke="#63b8ff" points="332.37,-83.63 322.37,-87.13 332.37,-90.63 332.37,-83.63"/>
</a>
</g>
</g>
</g>
</svg>
