<?xml version="1.0" encoding="UTF-8" standalone="no"?>
<!DOCTYPE svg PUBLIC "-//W3C//DTD SVG 1.1//EN"
 "http://www.w3.org/Graphics/SVG/1.1/DTD/svg11.dtd">
<!-- Generated by graphviz version 12.2.1 (0)
 -->
<!-- Title: Graphical Class Hierarchy Pages: 1 -->
<svg width="602pt" height="196pt"
 viewBox="0.00 0.00 602.00 195.62" xmlns="http://www.w3.org/2000/svg" xmlns:xlink="http://www.w3.org/1999/xlink">
<g id="graph0" class="graph" transform="scale(1 1) rotate(0) translate(4 191.62)">
<title>Graphical Class Hierarchy</title>
<!-- Node0 -->
<g id="Node000000" class="node">
<title>Node0</title>
<g id="a_Node000000"><a xlink:href="structllzk_1_1pod_1_1detail_1_1PodRefOpInterfaceInterfaceTraits_1_1Concept.html" target="_top" xlink:title=" ">
<polygon fill="white" stroke="#666666" points="151,-110.25 0,-110.25 0,-64 151,-64 151,-110.25"/>
<text text-anchor="start" x="8" y="-96.75" font-family="Helvetica,sans-Serif" font-size="10.00">llzk::pod::detail::</text>
<text text-anchor="start" x="8" y="-84" font-family="Helvetica,sans-Serif" font-size="10.00">PodRefOpInterfaceInterface</text>
<text text-anchor="middle" x="75.5" y="-71.25" font-family="Helvetica,sans-Serif" font-size="10.00">Traits::Concept</text>
</a>
</g>
</g>
<!-- Node1 -->
<g id="Node000001" class="node">
<title>Node1</title>
<g id="a_Node000001"><a xlink:href="classllzk_1_1pod_1_1detail_1_1PodRefOpInterfaceInterfaceTraits_1_1FallbackModel.html" target="_top" xlink:title=" ">
<polygon fill="white" stroke="#666666" points="372.12,-187.62 199.38,-187.62 199.38,-128.62 372.12,-128.62 372.12,-187.62"/>
<text text-anchor="start" x="207.38" y="-174.12" font-family="Helvetica,sans-Serif" font-size="10.00">llzk::pod::detail::</text>
<text text-anchor="start" x="207.38" y="-161.38" font-family="Helvetica,sans-Serif" font-size="10.00">PodRefOpInterfaceInterface</text>
<text text-anchor="start" x="207.38" y="-148.62" font-family="Helvetica,sans-Serif" font-size="10.00">Traits::FallbackModel&lt; Concrete</text>
<text text-anchor="middle" x="285.75" y="-135.88" font-family="Helvetica,sans-Serif" font-size="10.00">Model &gt;</text>
</a>
</g>
</g>
<!-- Node0&#45;&gt;Node1 -->
<g id="edge325_Node000000_Node000001" class="edge">
<title>Node0&#45;&gt;Node1</title>
<g id="a_edge325_Node000000_Node000001"><a xlink:title=" ">
<path fill="none" stroke="#63b8ff" d="M156.18,-114.29C170.25,-119.09 184.96,-124.1 199.19,-128.95"/>
<polygon fill="#63b8ff" stroke="#63b8ff" points="157.58,-111.07 146.99,-111.16 155.32,-117.7 157.58,-111.07"/>
</a>
</g>
</g>
<!-- Node3 -->
<g id="Node000003" class="node">
<title>Node3</title>
<g id="a_Node000003"><a xlink:href="classllzk_1_1pod_1_1detail_1_1PodRefOpInterfaceInterfaceTraits_1_1FallbackModel.html" target="_top" xlink:title=" ">
<polygon fill="white" stroke="#666666" points="384.5,-110.25 187,-110.25 187,-64 384.5,-64 384.5,-110.25"/>
<text text-anchor="start" x="195" y="-96.75" font-family="Helvetica,sans-Serif" font-size="10.00">llzk::pod::detail::</text>
<text text-anchor="start" x="195" y="-84" font-family="Helvetica,sans-Serif" font-size="10.00">PodRefOpInterfaceInterface</text>
<text text-anchor="middle" x="285.75" y="-71.25" font-family="Helvetica,sans-Serif" font-size="10.00">Traits::FallbackModel&lt; ConcreteOp &gt;</text>
</a>
</g>
</g>
<!-- Node0&#45;&gt;Node3 -->
<g id="edge327_Node000000_Node000003" class="edge">
<title>Node0&#45;&gt;Node3</title>
<g id="a_edge327_Node000000_Node000003"><a xlink:title=" ">
<path fill="none" stroke="#63b8ff" d="M162.78,-87.12C170.64,-87.12 178.64,-87.12 186.59,-87.12"/>
<polygon fill="#63b8ff" stroke="#63b8ff" points="162.9,-83.63 152.9,-87.13 162.9,-90.63 162.9,-83.63"/>
</a>
</g>
</g>
<!-- Node4 -->
<g id="Node000004" class="node">
<title>Node4</title>
<g id="a_Node000004"><a xlink:href="classllzk_1_1pod_1_1detail_1_1PodRefOpInterfaceInterfaceTraits_1_1Model.html" target="_top" xlink:title=" ">
<polygon fill="white" stroke="#666666" points="364.62,-46.25 206.88,-46.25 206.88,0 364.62,0 364.62,-46.25"/>
<text text-anchor="start" x="214.88" y="-32.75" font-family="Helvetica,sans-Serif" font-size="10.00">llzk::pod::detail::</text>
<text text-anchor="start" x="214.88" y="-20" font-family="Helvetica,sans-Serif" font-size="10.00">PodRefOpInterfaceInterface</text>
<text text-anchor="middle" x="285.75" y="-7.25" font-family="Helvetica,sans-Serif" font-size="10.00">Traits::Model&lt; ConcreteOp &gt;</text>
</a>
</g>
</g>
<!-- Node0&#45;&gt;Node4 -->
<g id="edge328_Node000000_Node000004" class="edge">
<title>Node0&#45;&gt;Node4</title>
<g id="a_edge328_Node000000_Node000004"><a xlink:title=" ">
<path fill="none" stroke="#63b8ff" d="M162.32,-60.75C177.48,-56.09 193.18,-51.27 208.07,-46.69"/>
<polygon fill="#63b8ff" stroke="#63b8ff" points="161.37,-57.38 152.84,-63.67 163.42,-64.07 161.37,-57.38"/>
</a>
</g>
</g>
<!-- Node2 -->
<g id="Node000002" class="node">
<title>Node2</title>
<g id="a_Node000002"><a xlink:href="classllzk_1_1pod_1_1detail_1_1PodRefOpInterfaceInterfaceTraits_1_1ExternalModel.html" target="_top" xlink:title=" ">
<polygon fill="white" stroke="#666666" points="594,-187.62 420.5,-187.62 420.5,-128.62 594,-128.62 594,-187.62"/>
<text text-anchor="start" x="428.5" y="-174.12" font-family="Helvetica,sans-Serif" font-size="10.00">llzk::pod::detail::</text>
<text text-anchor="start" x="428.5" y="-161.38" font-family="Helvetica,sans-Serif" font-size="10.00">PodRefOpInterfaceInterface</text>
<text text-anchor="start" x="428.5" y="-148.62" font-family="Helvetica,sans-Serif" font-size="10.00">Traits::ExternalModel&lt; Concrete</text>
<text text-anchor="middle" x="507.25" y="-135.88" font-family="Helvetica,sans-Serif" font-size="10.00">Model, ConcreteOp &gt;</text>
</a>
</g>
</g>
<!-- Node1&#45;&gt;Node2 -->
<g id="edge326_Node000001_Node000002" class="edge">
<title>Node1&#45;&gt;Node2</title>
<g id="a_edge326_Node000001_Node000002"><a xlink:title=" ">
<path fill="none" stroke="#63b8ff" d="M384.02,-158.12C396.05,-158.12 408.29,-158.12 420.14,-158.12"/>
<polygon fill="#63b8ff" stroke="#63b8ff" points="384.07,-154.63 374.07,-158.13 384.07,-161.63 384.07,-154.63"/>
</a>
</g>
</g>
</g>
</svg>
