<?xml version="1.0" encoding="UTF-8" standalone="no"?>
<!DOCTYPE svg PUBLIC "-//W3C//DTD SVG 1.1//EN"
 "http://www.w3.org/Graphics/SVG/1.1/DTD/svg11.dtd">
<!-- Generated by graphviz version 12.2.1 (0)
 -->
<!-- Title: Graphical Class Hierarchy Pages: 1 -->
<svg width="601pt" height="170pt"
 viewBox="0.00 0.00 601.25 169.88" xmlns="http://www.w3.org/2000/svg" xmlns:xlink="http://www.w3.org/1999/xlink">
<g id="graph0" class="graph" transform="scale(1 1) rotate(0) translate(4 165.88)">
<title>Graphical Class Hierarchy</title>
<!-- Node0 -->
<g id="Node000000" class="node">
<title>Node0</title>
<g id="a_Node000000"><a xlink:href="classllzk_1_1component_1_1detail_1_1CreateStructOpGenericAdaptorBase.html" target="_top" xlink:title=" ">
<polygon fill="white" stroke="#666666" points="196,-91.5 0,-91.5 0,-58 196,-58 196,-91.5"/>
<text text-anchor="start" x="8" y="-78" font-family="Helvetica,sans-Serif" font-size="10.00">llzk::component::detail</text>
<text text-anchor="middle" x="98" y="-65.25" font-family="Helvetica,sans-Serif" font-size="10.00">::CreateStructOpGenericAdaptorBase</text>
</a>
</g>
</g>
<!-- Node1 -->
<g id="Node000001" class="node">
<title>Node1</title>
<g id="a_Node000001"><a xlink:href="classllzk_1_1component_1_1CreateStructOpGenericAdaptor.html" target="_top" xlink:title=" ">
<polygon fill="white" stroke="#666666" points="396.12,-161.88 232.38,-161.88 232.38,-115.62 396.12,-115.62 396.12,-161.88"/>
<text text-anchor="start" x="240.38" y="-148.38" font-family="Helvetica,sans-Serif" font-size="10.00">llzk::component::CreateStruct</text>
<text text-anchor="start" x="240.38" y="-135.62" font-family="Helvetica,sans-Serif" font-size="10.00">OpGenericAdaptor&lt;::llvm::</text>
<text text-anchor="middle" x="314.25" y="-122.88" font-family="Helvetica,sans-Serif" font-size="10.00">ArrayRef&lt;::mlir::Attribute &gt; &gt;</text>
</a>
</g>
</g>
<!-- Node0&#45;&gt;Node1 -->
<g id="edge124_Node000000_Node000001" class="edge">
<title>Node0&#45;&gt;Node1</title>
<g id="a_edge124_Node000000_Node000001"><a xlink:title=" ">
<path fill="none" stroke="#63b8ff" d="M167.61,-95.24C188.92,-101.61 212.57,-108.68 234.52,-115.23"/>
<polygon fill="#63b8ff" stroke="#63b8ff" points="168.73,-91.93 158.15,-92.42 166.73,-98.63 168.73,-91.93"/>
</a>
</g>
</g>
<!-- Node2 -->
<g id="Node000002" class="node">
<title>Node2</title>
<g id="a_Node000002"><a xlink:href="classllzk_1_1component_1_1CreateStructOpGenericAdaptor.html" target="_top" xlink:title=" ">
<polygon fill="white" stroke="#666666" points="394.62,-97.88 233.88,-97.88 233.88,-51.62 394.62,-51.62 394.62,-97.88"/>
<text text-anchor="start" x="241.88" y="-84.38" font-family="Helvetica,sans-Serif" font-size="10.00">llzk::component::CreateStruct</text>
<text text-anchor="start" x="241.88" y="-71.62" font-family="Helvetica,sans-Serif" font-size="10.00">OpGenericAdaptor&lt;::mlir::</text>
<text text-anchor="middle" x="314.25" y="-58.88" font-family="Helvetica,sans-Serif" font-size="10.00">ValueRange &gt;</text>
</a>
</g>
</g>
<!-- Node0&#45;&gt;Node2 -->
<g id="edge125_Node000000_Node000002" class="edge">
<title>Node0&#45;&gt;Node2</title>
<g id="a_edge125_Node000000_Node000002"><a xlink:title=" ">
<path fill="none" stroke="#63b8ff" d="M207.75,-74.75C216.39,-74.75 225.02,-74.75 233.4,-74.75"/>
<polygon fill="#63b8ff" stroke="#63b8ff" points="207.92,-71.25 197.92,-74.75 207.92,-78.25 207.92,-71.25"/>
</a>
</g>
</g>
<!-- Node4 -->
<g id="Node000004" class="node">
<title>Node4</title>
<g id="a_Node000004"><a xlink:href="classllzk_1_1component_1_1CreateStructOpGenericAdaptor.html" target="_top" xlink:title=" ">
<polygon fill="white" stroke="#666666" points="396.5,-33.5 232,-33.5 232,0 396.5,0 396.5,-33.5"/>
<text text-anchor="start" x="240" y="-20" font-family="Helvetica,sans-Serif" font-size="10.00">llzk::component::CreateStruct</text>
<text text-anchor="middle" x="314.25" y="-7.25" font-family="Helvetica,sans-Serif" font-size="10.00">OpGenericAdaptor&lt; RangeT &gt;</text>
</a>
</g>
</g>
<!-- Node0&#45;&gt;Node4 -->
<g id="edge127_Node000000_Node000004" class="edge">
<title>Node0&#45;&gt;Node4</title>
<g id="a_edge127_Node000000_Node000004"><a xlink:title=" ">
<path fill="none" stroke="#63b8ff" d="M173.55,-54.57C198.41,-47.84 225.86,-40.41 249.79,-33.93"/>
<polygon fill="#63b8ff" stroke="#63b8ff" points="172.9,-51.12 164.16,-57.11 174.73,-57.87 172.9,-51.12"/>
</a>
</g>
</g>
<!-- Node3 -->
<g id="Node000003" class="node">
<title>Node3</title>
<g id="a_Node000003"><a xlink:href="classllzk_1_1component_1_1CreateStructOpAdaptor.html" target="_top" xlink:title=" ">
<polygon fill="white" stroke="#666666" points="593.25,-91.5 432.5,-91.5 432.5,-58 593.25,-58 593.25,-91.5"/>
<text text-anchor="start" x="440.5" y="-78" font-family="Helvetica,sans-Serif" font-size="10.00">llzk::component::CreateStruct</text>
<text text-anchor="middle" x="512.88" y="-65.25" font-family="Helvetica,sans-Serif" font-size="10.00">OpAdaptor</text>
</a>
</g>
</g>
<!-- Node2&#45;&gt;Node3 -->
<g id="edge126_Node000002_Node000003" class="edge">
<title>Node2&#45;&gt;Node3</title>
<g id="a_edge126_Node000002_Node000003"><a xlink:title=" ">
<path fill="none" stroke="#63b8ff" d="M406.22,-74.75C414.85,-74.75 423.56,-74.75 432.07,-74.75"/>
<polygon fill="#63b8ff" stroke="#63b8ff" points="406.46,-71.25 396.46,-74.75 406.45,-78.25 406.46,-71.25"/>
</a>
</g>
</g>
</g>
</svg>
