<?xml version="1.0" encoding="UTF-8" standalone="no"?>
<!DOCTYPE svg PUBLIC "-//W3C//DTD SVG 1.1//EN"
 "http://www.w3.org/Graphics/SVG/1.1/DTD/svg11.dtd">
<!-- Generated by graphviz version 12.2.1 (0)
 -->
<!-- Title: Graphical Class Hierarchy Pages: 1 -->
<svg width="637pt" height="1694pt"
 viewBox="0.00 0.00 636.50 1693.88" xmlns="http://www.w3.org/2000/svg" xmlns:xlink="http://www.w3.org/1999/xlink">
<g id="graph0" class="graph" transform="scale(1 1) rotate(0) translate(4 1689.88)">
<title>Graphical Class Hierarchy</title>
<!-- Node0 -->
<g id="Node000000" class="node">
<title>Node0</title>
<g id="a_Node000000"><a xlink:title=" ">
<polygon fill="#e0e0e0" stroke="#999999" points="111.25,-829.5 0,-829.5 0,-808.75 111.25,-808.75 111.25,-829.5"/>
<text text-anchor="middle" x="55.62" y="-816" font-family="Helvetica,sans-Serif" font-size="10.00">mlir::OperationPass</text>
</a>
</g>
</g>
<!-- Node1 -->
<g id="Node000001" class="node">
<title>Node1</title>
<g id="a_Node000001"><a xlink:href="classllzk_1_1impl_1_1CallGraphPrinterPassBase.html" target="_top" xlink:title=" ">
<polygon fill="white" stroke="#666666" points="363.12,-1685.88 176.88,-1685.88 176.88,-1652.38 363.12,-1652.38 363.12,-1685.88"/>
<text text-anchor="start" x="184.88" y="-1672.38" font-family="Helvetica,sans-Serif" font-size="10.00">llzk::impl::CallGraphPrinter</text>
<text text-anchor="middle" x="270" y="-1659.62" font-family="Helvetica,sans-Serif" font-size="10.00">PassBase&lt; CallGraphPrinterPass &gt;</text>
</a>
</g>
</g>
<!-- Node0&#45;&gt;Node1 -->
<g id="edge389_Node000000_Node000001" class="edge">
<title>Node0&#45;&gt;Node1</title>
<g id="a_edge389_Node000000_Node000001"><a xlink:title=" ">
<path fill="none" stroke="#63b8ff" d="M57.53,-841.22C62.86,-966.25 91.79,-1581.77 147.25,-1643.12 155.22,-1651.94 165.39,-1658.17 176.44,-1662.52"/>
<polygon fill="#63b8ff" stroke="#63b8ff" points="61.03,-841.19 57.12,-831.34 54.04,-841.48 61.03,-841.19"/>
</a>
</g>
</g>
<!-- Node3 -->
<g id="Node000003" class="node">
<title>Node3</title>
<g id="a_Node000003"><a xlink:href="classllzk_1_1impl_1_1CallGraphSCCsPrinterPassBase.html" target="_top" xlink:title=" ">
<polygon fill="white" stroke="#666666" points="359,-1634.25 181,-1634.25 181,-1588 359,-1588 359,-1634.25"/>
<text text-anchor="start" x="189" y="-1620.75" font-family="Helvetica,sans-Serif" font-size="10.00">llzk::impl::CallGraphSCCs</text>
<text text-anchor="start" x="189" y="-1608" font-family="Helvetica,sans-Serif" font-size="10.00">PrinterPassBase&lt; CallGraphSCCs</text>
<text text-anchor="middle" x="270" y="-1595.25" font-family="Helvetica,sans-Serif" font-size="10.00">PrinterPass &gt;</text>
</a>
</g>
</g>
<!-- Node0&#45;&gt;Node3 -->
<g id="edge391_Node000000_Node000003" class="edge">
<title>Node0&#45;&gt;Node3</title>
<g id="a_edge391_Node000000_Node000003"><a xlink:title=" ">
<path fill="none" stroke="#63b8ff" d="M57.8,-841.29C64.29,-960.46 97.37,-1521.82 147.25,-1579.12 156.15,-1589.35 167.87,-1596.49 180.54,-1601.46"/>
<polygon fill="#63b8ff" stroke="#63b8ff" points="61.29,-841.11 57.26,-831.31 54.3,-841.49 61.29,-841.11"/>
</a>
</g>
</g>
<!-- Node5 -->
<g id="Node000005" class="node">
<title>Node5</title>
<g id="a_Node000005"><a xlink:href="classllzk_1_1impl_1_1ComputeConstrainToProductPassBase.html" target="_top" xlink:title=" ">
<polygon fill="white" stroke="#666666" points="375.5,-1570.25 164.5,-1570.25 164.5,-1524 375.5,-1524 375.5,-1570.25"/>
<text text-anchor="start" x="172.5" y="-1556.75" font-family="Helvetica,sans-Serif" font-size="10.00">llzk::impl::ComputeConstrain</text>
<text text-anchor="start" x="172.5" y="-1544" font-family="Helvetica,sans-Serif" font-size="10.00">ToProductPassBase&lt; ComputeConstrain</text>
<text text-anchor="middle" x="270" y="-1531.25" font-family="Helvetica,sans-Serif" font-size="10.00">ToProductPass &gt;</text>
</a>
</g>
</g>
<!-- Node0&#45;&gt;Node5 -->
<g id="edge393_Node000000_Node000005" class="edge">
<title>Node0&#45;&gt;Node5</title>
<g id="a_edge393_Node000000_Node000005"><a xlink:title=" ">
<path fill="none" stroke="#63b8ff" d="M56.32,-841.21C55.3,-948.22 56.26,-1411.73 147.25,-1515.12 152.16,-1520.7 157.91,-1525.36 164.2,-1529.25"/>
<polygon fill="#63b8ff" stroke="#63b8ff" points="59.82,-841.53 56.43,-831.49 52.82,-841.45 59.82,-841.53"/>
</a>
</g>
</g>
<!-- Node7 -->
<g id="Node000007" class="node">
<title>Node7</title>
<g id="a_Node000007"><a xlink:href="classllzk_1_1impl_1_1ConstraintDependencyGraphPrinterPassBase.html" target="_top" xlink:title=" ">
<polygon fill="white" stroke="#666666" points="392.75,-1506.25 147.25,-1506.25 147.25,-1460 392.75,-1460 392.75,-1506.25"/>
<text text-anchor="start" x="155.25" y="-1492.75" font-family="Helvetica,sans-Serif" font-size="10.00">llzk::impl::ConstraintDependency</text>
<text text-anchor="start" x="155.25" y="-1480" font-family="Helvetica,sans-Serif" font-size="10.00">GraphPrinterPassBase&lt; ConstraintDependency</text>
<text text-anchor="middle" x="270" y="-1467.25" font-family="Helvetica,sans-Serif" font-size="10.00">GraphPrinterPass &gt;</text>
</a>
</g>
</g>
<!-- Node0&#45;&gt;Node7 -->
<g id="edge395_Node000000_Node000007" class="edge">
<title>Node0&#45;&gt;Node7</title>
<g id="a_edge395_Node000000_Node000007"><a xlink:title=" ">
<path fill="none" stroke="#63b8ff" d="M56.64,-841.05C57.17,-941.67 64.4,-1358.19 147.25,-1451.12 150.01,-1454.22 153.04,-1457.04 156.27,-1459.6"/>
<polygon fill="#63b8ff" stroke="#63b8ff" points="60.14,-841.2 56.61,-831.21 53.14,-841.22 60.14,-841.2"/>
</a>
</g>
</g>
<!-- Node9 -->
<g id="Node000009" class="node">
<title>Node9</title>
<g id="a_Node000009"><a xlink:href="classllzk_1_1impl_1_1EnforceNoMemberOverwritePassBase.html" target="_top" xlink:title=" ">
<polygon fill="white" stroke="#666666" points="375.88,-1442.25 164.12,-1442.25 164.12,-1396 375.88,-1396 375.88,-1442.25"/>
<text text-anchor="start" x="172.12" y="-1428.75" font-family="Helvetica,sans-Serif" font-size="10.00">llzk::impl::EnforceNoMember</text>
<text text-anchor="start" x="172.12" y="-1416" font-family="Helvetica,sans-Serif" font-size="10.00">OverwritePassBase&lt; EnforceNoMember</text>
<text text-anchor="middle" x="270" y="-1403.25" font-family="Helvetica,sans-Serif" font-size="10.00">OverwritePass &gt;</text>
</a>
</g>
</g>
<!-- Node0&#45;&gt;Node9 -->
<g id="edge397_Node000000_Node000009" class="edge">
<title>Node0&#45;&gt;Node9</title>
<g id="a_edge397_Node000000_Node000009"><a xlink:title=" ">
<path fill="none" stroke="#63b8ff" d="M57.04,-841.2C59.24,-935.64 72.58,-1304.69 147.25,-1387.12 152.09,-1392.47 157.71,-1396.97 163.82,-1400.75"/>
<polygon fill="#63b8ff" stroke="#63b8ff" points="60.54,-841.4 56.83,-831.48 53.54,-841.55 60.54,-841.4"/>
</a>
</g>
</g>
<!-- Node11 -->
<g id="Node000011" class="node">
<title>Node11</title>
<g id="a_Node000011"><a xlink:href="classllzk_1_1impl_1_1FuseProductLoopsPassBase.html" target="_top" xlink:title=" ">
<polygon fill="white" stroke="#666666" points="366.88,-1377.88 173.12,-1377.88 173.12,-1344.38 366.88,-1344.38 366.88,-1377.88"/>
<text text-anchor="start" x="181.12" y="-1364.38" font-family="Helvetica,sans-Serif" font-size="10.00">llzk::impl::FuseProductLoops</text>
<text text-anchor="middle" x="270" y="-1351.62" font-family="Helvetica,sans-Serif" font-size="10.00">PassBase&lt; FuseProductLoopsPass &gt;</text>
</a>
</g>
</g>
<!-- Node0&#45;&gt;Node11 -->
<g id="edge399_Node000000_Node000011" class="edge">
<title>Node0&#45;&gt;Node11</title>
<g id="a_edge399_Node000000_Node000011"><a xlink:title=" ">
<path fill="none" stroke="#63b8ff" d="M57.33,-841.21C60.62,-930.41 77.45,-1262.73 147.25,-1335.12 154.45,-1342.59 163.23,-1348.18 172.75,-1352.32"/>
<polygon fill="#63b8ff" stroke="#63b8ff" points="60.83,-841.26 56.99,-831.39 53.83,-841.51 60.83,-841.26"/>
</a>
</g>
</g>
<!-- Node13 -->
<g id="Node000013" class="node">
<title>Node13</title>
<g id="a_Node000013"><a xlink:href="classllzk_1_1impl_1_1IntervalAnalysisPrinterPassBase.html" target="_top" xlink:title=" ">
<polygon fill="white" stroke="#666666" points="362,-1326.25 178,-1326.25 178,-1280 362,-1280 362,-1326.25"/>
<text text-anchor="start" x="186" y="-1312.75" font-family="Helvetica,sans-Serif" font-size="10.00">llzk::impl::IntervalAnalysis</text>
<text text-anchor="start" x="186" y="-1300" font-family="Helvetica,sans-Serif" font-size="10.00">PrinterPassBase&lt; IntervalAnalysis</text>
<text text-anchor="middle" x="270" y="-1287.25" font-family="Helvetica,sans-Serif" font-size="10.00">PrinterPass &gt;</text>
</a>
</g>
</g>
<!-- Node0&#45;&gt;Node13 -->
<g id="edge401_Node000000_Node000013" class="edge">
<title>Node0&#45;&gt;Node13</title>
<g id="a_edge401_Node000000_Node000013"><a xlink:title=" ">
<path fill="none" stroke="#63b8ff" d="M58.01,-840.95C63.6,-922.44 87.2,-1207.41 147.25,-1271.12 155.64,-1280.03 166.19,-1286.57 177.55,-1291.36"/>
<polygon fill="#63b8ff" stroke="#63b8ff" points="61.51,-840.95 57.36,-831.2 54.53,-841.41 61.51,-840.95"/>
</a>
</g>
</g>
<!-- Node15 -->
<g id="Node000015" class="node">
<title>Node15</title>
<g id="a_Node000015"><a xlink:href="classllzk_1_1impl_1_1PredecessorPrinterPassBase.html" target="_top" xlink:title=" ">
<polygon fill="white" stroke="#666666" points="368.75,-1261.88 171.25,-1261.88 171.25,-1228.38 368.75,-1228.38 368.75,-1261.88"/>
<text text-anchor="start" x="179.25" y="-1248.38" font-family="Helvetica,sans-Serif" font-size="10.00">llzk::impl::PredecessorPrinter</text>
<text text-anchor="middle" x="270" y="-1235.62" font-family="Helvetica,sans-Serif" font-size="10.00">PassBase&lt; PredecessorPrinterPass &gt;</text>
</a>
</g>
</g>
<!-- Node0&#45;&gt;Node15 -->
<g id="edge403_Node000000_Node000015" class="edge">
<title>Node0&#45;&gt;Node15</title>
<g id="a_edge403_Node000000_Node000015"><a xlink:title=" ">
<path fill="none" stroke="#63b8ff" d="M58.52,-840.91C65.52,-916.38 92.42,-1164.97 147.25,-1219.12 154.09,-1225.88 162.24,-1231.08 171.02,-1235.05"/>
<polygon fill="#63b8ff" stroke="#63b8ff" points="62.02,-840.78 57.64,-831.13 55.05,-841.4 62.02,-840.78"/>
</a>
</g>
</g>
<!-- Node17 -->
<g id="Node000017" class="node">
<title>Node17</title>
<g id="a_Node000017"><a xlink:href="classllzk_1_1impl_1_1SymbolDefTreePrinterPassBase.html" target="_top" xlink:title=" ">
<polygon fill="white" stroke="#666666" points="359.75,-1210.25 180.25,-1210.25 180.25,-1164 359.75,-1164 359.75,-1210.25"/>
<text text-anchor="start" x="188.25" y="-1196.75" font-family="Helvetica,sans-Serif" font-size="10.00">llzk::impl::SymbolDefTree</text>
<text text-anchor="start" x="188.25" y="-1184" font-family="Helvetica,sans-Serif" font-size="10.00">PrinterPassBase&lt; SymbolDefTree</text>
<text text-anchor="middle" x="270" y="-1171.25" font-family="Helvetica,sans-Serif" font-size="10.00">Pass &gt;</text>
</a>
</g>
</g>
<!-- Node0&#45;&gt;Node17 -->
<g id="edge405_Node000000_Node000017" class="edge">
<title>Node0&#45;&gt;Node17</title>
<g id="a_edge405_Node000000_Node000017"><a xlink:title=" ">
<path fill="none" stroke="#63b8ff" d="M59.67,-841.19C69.39,-908.58 101.75,-1109.92 147.25,-1155.12 156.4,-1164.21 167.79,-1170.81 179.92,-1175.59"/>
<polygon fill="#63b8ff" stroke="#63b8ff" points="63.15,-840.81 58.28,-831.4 56.22,-841.79 63.15,-840.81"/>
</a>
</g>
</g>
<!-- Node19 -->
<g id="Node000019" class="node">
<title>Node19</title>
<g id="a_Node000019"><a xlink:href="classllzk_1_1impl_1_1SymbolUseGraphPrinterPassBase.html" target="_top" xlink:title=" ">
<polygon fill="white" stroke="#666666" points="365,-1146.25 175,-1146.25 175,-1100 365,-1100 365,-1146.25"/>
<text text-anchor="start" x="183" y="-1132.75" font-family="Helvetica,sans-Serif" font-size="10.00">llzk::impl::SymbolUseGraph</text>
<text text-anchor="start" x="183" y="-1120" font-family="Helvetica,sans-Serif" font-size="10.00">PrinterPassBase&lt; SymbolUseGraph</text>
<text text-anchor="middle" x="270" y="-1107.25" font-family="Helvetica,sans-Serif" font-size="10.00">Pass &gt;</text>
</a>
</g>
</g>
<!-- Node0&#45;&gt;Node19 -->
<g id="edge407_Node000000_Node000019" class="edge">
<title>Node0&#45;&gt;Node19</title>
<g id="a_edge407_Node000000_Node000019"><a xlink:title=" ">
<path fill="none" stroke="#63b8ff" d="M57.23,-841.23C59.89,-892.9 73.94,-1022.4 147.25,-1091.12 155.14,-1098.52 164.54,-1104.26 174.55,-1108.69"/>
<polygon fill="#63b8ff" stroke="#63b8ff" points="60.74,-841.22 56.83,-831.37 53.74,-841.5 60.74,-841.22"/>
</a>
</g>
</g>
<!-- Node21 -->
<g id="Node000021" class="node">
<title>Node21</title>
<g id="a_Node000021"><a xlink:href="classllzk_1_1array_1_1impl_1_1ArrayToScalarPassBase.html" target="_top" xlink:title=" ">
<polygon fill="white" stroke="#666666" points="334.25,-1082.25 205.75,-1082.25 205.75,-1036 334.25,-1036 334.25,-1082.25"/>
<text text-anchor="start" x="213.75" y="-1068.75" font-family="Helvetica,sans-Serif" font-size="10.00">llzk::array::impl::</text>
<text text-anchor="start" x="213.75" y="-1056" font-family="Helvetica,sans-Serif" font-size="10.00">ArrayToScalarPassBase</text>
<text text-anchor="middle" x="270" y="-1043.25" font-family="Helvetica,sans-Serif" font-size="10.00">&lt; DerivedT &gt;</text>
</a>
</g>
</g>
<!-- Node0&#45;&gt;Node21 -->
<g id="edge409_Node000000_Node000021" class="edge">
<title>Node0&#45;&gt;Node21</title>
<g id="a_edge409_Node000000_Node000021"><a xlink:title=" ">
<path fill="none" stroke="#63b8ff" d="M59.75,-840.83C67.02,-883.25 89.12,-977.31 147.25,-1027.12 163.43,-1040.99 184.95,-1048.94 205.39,-1053.46"/>
<polygon fill="#63b8ff" stroke="#63b8ff" points="63.23,-840.48 58.21,-831.15 56.32,-841.57 63.23,-840.48"/>
</a>
</g>
</g>
<!-- Node22 -->
<g id="Node000022" class="node">
<title>Node22</title>
<g id="a_Node000022"><a xlink:href="classllzk_1_1impl_1_1CallGraphPrinterPassBase.html" target="_top" xlink:title=" ">
<polygon fill="white" stroke="#666666" points="343.62,-1017.88 196.38,-1017.88 196.38,-984.38 343.62,-984.38 343.62,-1017.88"/>
<text text-anchor="start" x="204.38" y="-1004.38" font-family="Helvetica,sans-Serif" font-size="10.00">llzk::impl::CallGraphPrinter</text>
<text text-anchor="middle" x="270" y="-991.62" font-family="Helvetica,sans-Serif" font-size="10.00">PassBase&lt; DerivedT &gt;</text>
</a>
</g>
</g>
<!-- Node0&#45;&gt;Node22 -->
<g id="edge410_Node000000_Node000022" class="edge">
<title>Node0&#45;&gt;Node22</title>
<g id="a_edge410_Node000000_Node000022"><a xlink:title=" ">
<path fill="none" stroke="#63b8ff" d="M62.82,-840.52C73.86,-874.67 100.3,-941.08 147.25,-975.12 161.42,-985.4 178.82,-991.78 195.97,-995.7"/>
<polygon fill="#63b8ff" stroke="#63b8ff" points="66.28,-839.87 59.99,-831.35 59.59,-841.93 66.28,-839.87"/>
</a>
</g>
</g>
<!-- Node23 -->
<g id="Node000023" class="node">
<title>Node23</title>
<g id="a_Node000023"><a xlink:href="classllzk_1_1impl_1_1CallGraphSCCsPrinterPassBase.html" target="_top" xlink:title=" ">
<polygon fill="white" stroke="#666666" points="350.38,-965.88 189.62,-965.88 189.62,-932.38 350.38,-932.38 350.38,-965.88"/>
<text text-anchor="start" x="197.62" y="-952.38" font-family="Helvetica,sans-Serif" font-size="10.00">llzk::impl::CallGraphSCCs</text>
<text text-anchor="middle" x="270" y="-939.62" font-family="Helvetica,sans-Serif" font-size="10.00">PrinterPassBase&lt; DerivedT &gt;</text>
</a>
</g>
</g>
<!-- Node0&#45;&gt;Node23 -->
<g id="edge411_Node000000_Node000023" class="edge">
<title>Node0&#45;&gt;Node23</title>
<g id="a_edge411_Node000000_Node000023"><a xlink:title=" ">
<path fill="none" stroke="#63b8ff" d="M68.59,-839.51C83.76,-863.45 112.2,-902.48 147.25,-923.12 160.01,-930.64 174.66,-935.99 189.27,-939.8"/>
<polygon fill="#63b8ff" stroke="#63b8ff" points="71.76,-837.97 63.55,-831.28 65.79,-841.63 71.76,-837.97"/>
</a>
</g>
</g>
<!-- Node24 -->
<g id="Node000024" class="node">
<title>Node24</title>
<g id="a_Node000024"><a xlink:href="classllzk_1_1impl_1_1ComputeConstrainToProductPassBase.html" target="_top" xlink:title=" ">
<polygon fill="white" stroke="#666666" points="357.88,-913.88 182.12,-913.88 182.12,-880.38 357.88,-880.38 357.88,-913.88"/>
<text text-anchor="start" x="190.12" y="-900.38" font-family="Helvetica,sans-Serif" font-size="10.00">llzk::impl::ComputeConstrain</text>
<text text-anchor="middle" x="270" y="-887.62" font-family="Helvetica,sans-Serif" font-size="10.00">ToProductPassBase&lt; DerivedT &gt;</text>
</a>
</g>
</g>
<!-- Node0&#45;&gt;Node24 -->
<g id="edge412_Node000000_Node000024" class="edge">
<title>Node0&#45;&gt;Node24</title>
<g id="a_edge412_Node000000_Node000024"><a xlink:title=" ">
<path fill="none" stroke="#63b8ff" d="M81.44,-836.19C99.09,-847.6 123.74,-862.12 147.25,-871.12 158.25,-875.34 170.09,-878.93 181.9,-881.99"/>
<polygon fill="#63b8ff" stroke="#63b8ff" points="83.46,-833.33 73.19,-830.73 79.6,-839.16 83.46,-833.33"/>
</a>
</g>
</g>
<!-- Node25 -->
<g id="Node000025" class="node">
<title>Node25</title>
<g id="a_Node000025"><a xlink:href="classllzk_1_1impl_1_1ConstraintDependencyGraphPrinterPassBase.html" target="_top" xlink:title=" ">
<polygon fill="white" stroke="#666666" points="365,-861.88 175,-861.88 175,-828.38 365,-828.38 365,-861.88"/>
<text text-anchor="start" x="183" y="-848.38" font-family="Helvetica,sans-Serif" font-size="10.00">llzk::impl::ConstraintDependency</text>
<text text-anchor="middle" x="270" y="-835.62" font-family="Helvetica,sans-Serif" font-size="10.00">GraphPrinterPassBase&lt; DerivedT &gt;</text>
</a>
</g>
</g>
<!-- Node0&#45;&gt;Node25 -->
<g id="edge413_Node000000_Node000025" class="edge">
<title>Node0&#45;&gt;Node25</title>
<g id="a_edge413_Node000000_Node000025"><a xlink:title=" ">
<path fill="none" stroke="#63b8ff" d="M122.74,-827.22C139.21,-829.24 157.2,-831.44 174.75,-833.59"/>
<polygon fill="#63b8ff" stroke="#63b8ff" points="123.45,-823.78 113.1,-826.04 122.6,-830.73 123.45,-823.78"/>
</a>
</g>
</g>
<!-- Node26 -->
<g id="Node000026" class="node">
<title>Node26</title>
<g id="a_Node000026"><a xlink:href="classllzk_1_1impl_1_1EnforceNoMemberOverwritePassBase.html" target="_top" xlink:title=" ">
<polygon fill="white" stroke="#666666" points="358.25,-809.88 181.75,-809.88 181.75,-776.38 358.25,-776.38 358.25,-809.88"/>
<text text-anchor="start" x="189.75" y="-796.38" font-family="Helvetica,sans-Serif" font-size="10.00">llzk::impl::EnforceNoMember</text>
<text text-anchor="middle" x="270" y="-783.62" font-family="Helvetica,sans-Serif" font-size="10.00">OverwritePassBase&lt; DerivedT &gt;</text>
</a>
</g>
</g>
<!-- Node0&#45;&gt;Node26 -->
<g id="edge414_Node000000_Node000026" class="edge">
<title>Node0&#45;&gt;Node26</title>
<g id="a_edge414_Node000000_Node000026"><a xlink:title=" ">
<path fill="none" stroke="#63b8ff" d="M122.85,-811.02C141.37,-808.75 161.78,-806.25 181.33,-803.86"/>
<polygon fill="#63b8ff" stroke="#63b8ff" points="122.6,-807.52 113.1,-812.21 123.45,-814.47 122.6,-807.52"/>
</a>
</g>
</g>
<!-- Node27 -->
<g id="Node000027" class="node">
<title>Node27</title>
<g id="a_Node000027"><a xlink:href="classllzk_1_1impl_1_1FuseProductLoopsPassBase.html" target="_top" xlink:title=" ">
<polygon fill="white" stroke="#666666" points="347.38,-757.88 192.62,-757.88 192.62,-724.38 347.38,-724.38 347.38,-757.88"/>
<text text-anchor="start" x="200.62" y="-744.38" font-family="Helvetica,sans-Serif" font-size="10.00">llzk::impl::FuseProductLoops</text>
<text text-anchor="middle" x="270" y="-731.62" font-family="Helvetica,sans-Serif" font-size="10.00">PassBase&lt; DerivedT &gt;</text>
</a>
</g>
</g>
<!-- Node0&#45;&gt;Node27 -->
<g id="edge415_Node000000_Node000027" class="edge">
<title>Node0&#45;&gt;Node27</title>
<g id="a_edge415_Node000000_Node000027"><a xlink:title=" ">
<path fill="none" stroke="#63b8ff" d="M81.44,-802.06C99.09,-790.65 123.74,-776.13 147.25,-767.12 161.48,-761.68 177.11,-757.26 192.28,-753.71"/>
<polygon fill="#63b8ff" stroke="#63b8ff" points="79.6,-799.09 73.19,-807.52 83.46,-804.92 79.6,-799.09"/>
</a>
</g>
</g>
<!-- Node28 -->
<g id="Node000028" class="node">
<title>Node28</title>
<g id="a_Node000028"><a xlink:href="classllzk_1_1impl_1_1InlineStructsPassBase.html" target="_top" xlink:title=" ">
<polygon fill="white" stroke="#666666" points="334.25,-705.88 205.75,-705.88 205.75,-672.38 334.25,-672.38 334.25,-705.88"/>
<text text-anchor="start" x="213.75" y="-692.38" font-family="Helvetica,sans-Serif" font-size="10.00">llzk::impl::InlineStructs</text>
<text text-anchor="middle" x="270" y="-679.62" font-family="Helvetica,sans-Serif" font-size="10.00">PassBase&lt; DerivedT &gt;</text>
</a>
</g>
</g>
<!-- Node0&#45;&gt;Node28 -->
<g id="edge416_Node000000_Node000028" class="edge">
<title>Node0&#45;&gt;Node28</title>
<g id="a_edge416_Node000000_Node000028"><a xlink:title=" ">
<path fill="none" stroke="#63b8ff" d="M68.59,-798.74C83.76,-774.8 112.2,-735.77 147.25,-715.12 164.76,-704.82 185.82,-698.57 205.47,-694.8"/>
<polygon fill="#63b8ff" stroke="#63b8ff" points="65.79,-796.62 63.55,-806.97 71.76,-800.28 65.79,-796.62"/>
</a>
</g>
</g>
<!-- Node29 -->
<g id="Node000029" class="node">
<title>Node29</title>
<g id="a_Node000029"><a xlink:href="classllzk_1_1impl_1_1IntervalAnalysisPrinterPassBase.html" target="_top" xlink:title=" ">
<polygon fill="white" stroke="#666666" points="350.38,-653.88 189.62,-653.88 189.62,-620.38 350.38,-620.38 350.38,-653.88"/>
<text text-anchor="start" x="197.62" y="-640.38" font-family="Helvetica,sans-Serif" font-size="10.00">llzk::impl::IntervalAnalysis</text>
<text text-anchor="middle" x="270" y="-627.62" font-family="Helvetica,sans-Serif" font-size="10.00">PrinterPassBase&lt; DerivedT &gt;</text>
</a>
</g>
</g>
<!-- Node0&#45;&gt;Node29 -->
<g id="edge417_Node000000_Node000029" class="edge">
<title>Node0&#45;&gt;Node29</title>
<g id="a_edge417_Node000000_Node000029"><a xlink:title=" ">
<path fill="none" stroke="#63b8ff" d="M62.82,-797.73C73.86,-763.58 100.3,-697.17 147.25,-663.12 159.59,-654.18 174.36,-648.19 189.3,-644.2"/>
<polygon fill="#63b8ff" stroke="#63b8ff" points="59.59,-796.32 59.99,-806.9 66.28,-798.38 59.59,-796.32"/>
</a>
</g>
</g>
<!-- Node30 -->
<g id="Node000030" class="node">
<title>Node30</title>
<g id="a_Node000030"><a xlink:href="classllzk_1_1impl_1_1MemberWriteValidatorPassBase.html" target="_top" xlink:title=" ">
<polygon fill="white" stroke="#666666" points="358.62,-601.88 181.38,-601.88 181.38,-568.38 358.62,-568.38 358.62,-601.88"/>
<text text-anchor="start" x="189.38" y="-588.38" font-family="Helvetica,sans-Serif" font-size="10.00">llzk::impl::MemberWriteValidator</text>
<text text-anchor="middle" x="270" y="-575.62" font-family="Helvetica,sans-Serif" font-size="10.00">PassBase&lt; DerivedT &gt;</text>
</a>
</g>
</g>
<!-- Node0&#45;&gt;Node30 -->
<g id="edge418_Node000000_Node000030" class="edge">
<title>Node0&#45;&gt;Node30</title>
<g id="a_edge418_Node000000_Node000030"><a xlink:title=" ">
<path fill="none" stroke="#63b8ff" d="M59.55,-797.18C66.47,-754.34 87.97,-659.57 147.25,-611.12 157.04,-603.12 168.71,-597.42 180.9,-593.39"/>
<polygon fill="#63b8ff" stroke="#63b8ff" points="56.1,-796.57 58.09,-806.98 63.02,-797.6 56.1,-796.57"/>
</a>
</g>
</g>
<!-- Node31 -->
<g id="Node000031" class="node">
<title>Node31</title>
<g id="a_Node000031"><a xlink:href="classllzk_1_1impl_1_1PolyLoweringPassBase.html" target="_top" xlink:title=" ">
<polygon fill="white" stroke="#666666" points="336.12,-549.88 203.88,-549.88 203.88,-516.38 336.12,-516.38 336.12,-549.88"/>
<text text-anchor="start" x="211.88" y="-536.38" font-family="Helvetica,sans-Serif" font-size="10.00">llzk::impl::PolyLowering</text>
<text text-anchor="middle" x="270" y="-523.62" font-family="Helvetica,sans-Serif" font-size="10.00">PassBase&lt; DerivedT &gt;</text>
</a>
</g>
</g>
<!-- Node0&#45;&gt;Node31 -->
<g id="edge419_Node000000_Node000031" class="edge">
<title>Node0&#45;&gt;Node31</title>
<g id="a_edge419_Node000000_Node000031"><a xlink:title=" ">
<path fill="none" stroke="#63b8ff" d="M57.4,-797.08C60.42,-746.72 75.2,-622.69 147.25,-559.12 162.65,-545.54 183.38,-538.46 203.38,-534.92"/>
<polygon fill="#63b8ff" stroke="#63b8ff" points="53.91,-796.8 56.92,-806.96 60.9,-797.14 53.91,-796.8"/>
</a>
</g>
</g>
<!-- Node32 -->
<g id="Node000032" class="node">
<title>Node32</title>
<g id="a_Node000032"><a xlink:href="classllzk_1_1impl_1_1PredecessorPrinterPassBase.html" target="_top" xlink:title=" ">
<polygon fill="white" stroke="#666666" points="349.25,-497.88 190.75,-497.88 190.75,-464.38 349.25,-464.38 349.25,-497.88"/>
<text text-anchor="start" x="198.75" y="-484.38" font-family="Helvetica,sans-Serif" font-size="10.00">llzk::impl::PredecessorPrinter</text>
<text text-anchor="middle" x="270" y="-471.62" font-family="Helvetica,sans-Serif" font-size="10.00">PassBase&lt; DerivedT &gt;</text>
</a>
</g>
</g>
<!-- Node0&#45;&gt;Node32 -->
<g id="edge420_Node000000_Node000032" class="edge">
<title>Node0&#45;&gt;Node32</title>
<g id="a_edge420_Node000000_Node000032"><a xlink:title=" ">
<path fill="none" stroke="#63b8ff" d="M55.91,-797.06C55.34,-739.95 62.2,-586.24 147.25,-507.12 159.12,-496.08 174.48,-489.28 190.28,-485.18"/>
<polygon fill="#63b8ff" stroke="#63b8ff" points="52.4,-796.85 56.1,-806.78 59.4,-796.71 52.4,-796.85"/>
</a>
</g>
</g>
<!-- Node33 -->
<g id="Node000033" class="node">
<title>Node33</title>
<g id="a_Node000033"><a xlink:href="classllzk_1_1impl_1_1RedundantOperationEliminationPassBase.html" target="_top" xlink:title=" ">
<polygon fill="white" stroke="#666666" points="362,-445.88 178,-445.88 178,-412.38 362,-412.38 362,-445.88"/>
<text text-anchor="start" x="186" y="-432.38" font-family="Helvetica,sans-Serif" font-size="10.00">llzk::impl::RedundantOperation</text>
<text text-anchor="middle" x="270" y="-419.62" font-family="Helvetica,sans-Serif" font-size="10.00">EliminationPassBase&lt; DerivedT &gt;</text>
</a>
</g>
</g>
<!-- Node0&#45;&gt;Node33 -->
<g id="edge421_Node000000_Node000033" class="edge">
<title>Node0&#45;&gt;Node33</title>
<g id="a_edge421_Node000000_Node000033"><a xlink:title=" ">
<path fill="none" stroke="#63b8ff" d="M59.03,-797.47C67.31,-726.65 97.01,-503.7 147.25,-455.12 155.87,-446.79 166.48,-440.84 177.81,-436.64"/>
<polygon fill="#63b8ff" stroke="#63b8ff" points="55.59,-796.67 57.94,-807.01 62.55,-797.47 55.59,-796.67"/>
</a>
</g>
</g>
<!-- Node34 -->
<g id="Node000034" class="node">
<title>Node34</title>
<g id="a_Node000034"><a xlink:href="classllzk_1_1impl_1_1RedundantReadAndWriteEliminationPassBase.html" target="_top" xlink:title=" ">
<polygon fill="white" stroke="#666666" points="351.12,-394.25 188.88,-394.25 188.88,-348 351.12,-348 351.12,-394.25"/>
<text text-anchor="start" x="196.88" y="-380.75" font-family="Helvetica,sans-Serif" font-size="10.00">llzk::impl::RedundantRead</text>
<text text-anchor="start" x="196.88" y="-368" font-family="Helvetica,sans-Serif" font-size="10.00">AndWriteEliminationPassBase</text>
<text text-anchor="middle" x="270" y="-355.25" font-family="Helvetica,sans-Serif" font-size="10.00">&lt; DerivedT &gt;</text>
</a>
</g>
</g>
<!-- Node0&#45;&gt;Node34 -->
<g id="edge422_Node000000_Node000034" class="edge">
<title>Node0&#45;&gt;Node34</title>
<g id="a_edge422_Node000000_Node000034"><a xlink:title=" ">
<path fill="none" stroke="#63b8ff" d="M58.44,-797.05C65.25,-719.49 91.78,-461.01 147.25,-403.12 158.36,-391.53 173.13,-383.95 188.54,-379.04"/>
<polygon fill="#63b8ff" stroke="#63b8ff" points="54.97,-796.49 57.61,-806.75 61.95,-797.08 54.97,-796.49"/>
</a>
</g>
</g>
<!-- Node35 -->
<g id="Node000035" class="node">
<title>Node35</title>
<g id="a_Node000035"><a xlink:href="classllzk_1_1impl_1_1SymbolDefTreePrinterPassBase.html" target="_top" xlink:title=" ">
<polygon fill="white" stroke="#666666" points="350.38,-329.88 189.62,-329.88 189.62,-296.38 350.38,-296.38 350.38,-329.88"/>
<text text-anchor="start" x="197.62" y="-316.38" font-family="Helvetica,sans-Serif" font-size="10.00">llzk::impl::SymbolDefTree</text>
<text text-anchor="middle" x="270" y="-303.62" font-family="Helvetica,sans-Serif" font-size="10.00">PrinterPassBase&lt; DerivedT &gt;</text>
</a>
</g>
</g>
<!-- Node0&#45;&gt;Node35 -->
<g id="edge423_Node000000_Node000035" class="edge">
<title>Node0&#45;&gt;Node35</title>
<g id="a_edge423_Node000000_Node000035"><a xlink:title=" ">
<path fill="none" stroke="#63b8ff" d="M57.65,-796.95C62.04,-711.61 82.16,-405.78 147.25,-339.12 158.5,-327.6 173.51,-320.59 189.15,-316.43"/>
<polygon fill="#63b8ff" stroke="#63b8ff" points="54.16,-796.62 57.17,-806.78 61.15,-796.96 54.16,-796.62"/>
</a>
</g>
</g>
<!-- Node36 -->
<g id="Node000036" class="node">
<title>Node36</title>
<g id="a_Node000036"><a xlink:href="classllzk_1_1impl_1_1SymbolUseGraphPrinterPassBase.html" target="_top" xlink:title=" ">
<polygon fill="white" stroke="#666666" points="350.38,-277.88 189.62,-277.88 189.62,-244.38 350.38,-244.38 350.38,-277.88"/>
<text text-anchor="start" x="197.62" y="-264.38" font-family="Helvetica,sans-Serif" font-size="10.00">llzk::impl::SymbolUseGraph</text>
<text text-anchor="middle" x="270" y="-251.62" font-family="Helvetica,sans-Serif" font-size="10.00">PrinterPassBase&lt; DerivedT &gt;</text>
</a>
</g>
</g>
<!-- Node0&#45;&gt;Node36 -->
<g id="edge424_Node000000_Node000036" class="edge">
<title>Node0&#45;&gt;Node36</title>
<g id="a_edge424_Node000000_Node000036"><a xlink:title=" ">
<path fill="none" stroke="#63b8ff" d="M57.19,-797.23C60,-706.6 75.32,-362.12 147.25,-287.12 158.47,-275.43 173.57,-268.35 189.3,-264.19"/>
<polygon fill="#63b8ff" stroke="#63b8ff" points="53.7,-796.88 56.91,-806.97 60.7,-797.08 53.7,-796.88"/>
</a>
</g>
</g>
<!-- Node37 -->
<g id="Node000037" class="node">
<title>Node37</title>
<g id="a_Node000037"><a xlink:href="classllzk_1_1impl_1_1UnusedDeclarationEliminationPassBase.html" target="_top" xlink:title=" ">
<polygon fill="white" stroke="#666666" points="362,-225.88 178,-225.88 178,-192.38 362,-192.38 362,-225.88"/>
<text text-anchor="start" x="186" y="-212.38" font-family="Helvetica,sans-Serif" font-size="10.00">llzk::impl::UnusedDeclaration</text>
<text text-anchor="middle" x="270" y="-199.62" font-family="Helvetica,sans-Serif" font-size="10.00">EliminationPassBase&lt; DerivedT &gt;</text>
</a>
</g>
</g>
<!-- Node0&#45;&gt;Node37 -->
<g id="edge425_Node000000_Node000037" class="edge">
<title>Node0&#45;&gt;Node37</title>
<g id="a_edge425_Node000000_Node000037"><a xlink:title=" ">
<path fill="none" stroke="#63b8ff" d="M56.83,-796.97C58.2,-700.52 68.59,-318.36 147.25,-235.12 155.64,-226.25 166.25,-220.03 177.71,-215.71"/>
<polygon fill="#63b8ff" stroke="#63b8ff" points="53.33,-796.85 56.71,-806.89 60.33,-796.93 53.33,-796.85"/>
</a>
</g>
</g>
<!-- Node38 -->
<g id="Node000038" class="node">
<title>Node38</title>
<g id="a_Node000038"><a xlink:href="classllzk_1_1include_1_1impl_1_1InlineIncludesPassBase.html" target="_top" xlink:title=" ">
<polygon fill="white" stroke="#666666" points="337.62,-174.25 202.38,-174.25 202.38,-128 337.62,-128 337.62,-174.25"/>
<text text-anchor="start" x="210.38" y="-160.75" font-family="Helvetica,sans-Serif" font-size="10.00">llzk::include::impl</text>
<text text-anchor="start" x="210.38" y="-148" font-family="Helvetica,sans-Serif" font-size="10.00">::InlineIncludesPassBase</text>
<text text-anchor="middle" x="270" y="-135.25" font-family="Helvetica,sans-Serif" font-size="10.00">&lt; DerivedT &gt;</text>
</a>
</g>
</g>
<!-- Node0&#45;&gt;Node38 -->
<g id="edge426_Node000000_Node000038" class="edge">
<title>Node0&#45;&gt;Node38</title>
<g id="a_edge426_Node000000_Node000038"><a xlink:title=" ">
<path fill="none" stroke="#63b8ff" d="M56.62,-797.06C57.05,-695.82 63.92,-276.68 147.25,-183.12 161.2,-167.46 181.81,-159.04 202.13,-154.64"/>
<polygon fill="#63b8ff" stroke="#63b8ff" points="53.12,-796.97 56.6,-806.97 60.12,-796.98 53.12,-796.97"/>
</a>
</g>
</g>
<!-- Node39 -->
<g id="Node000039" class="node">
<title>Node39</title>
<g id="a_Node000039"><a xlink:href="classllzk_1_1polymorphic_1_1impl_1_1EmptyParamListRemovalPassBase.html" target="_top" xlink:title=" ">
<polygon fill="white" stroke="#666666" points="353.38,-110.25 186.62,-110.25 186.62,-64 353.38,-64 353.38,-110.25"/>
<text text-anchor="start" x="194.62" y="-96.75" font-family="Helvetica,sans-Serif" font-size="10.00">llzk::polymorphic::</text>
<text text-anchor="start" x="194.62" y="-84" font-family="Helvetica,sans-Serif" font-size="10.00">impl::EmptyParamListRemoval</text>
<text text-anchor="middle" x="270" y="-71.25" font-family="Helvetica,sans-Serif" font-size="10.00">PassBase&lt; DerivedT &gt;</text>
</a>
</g>
</g>
<!-- Node0&#45;&gt;Node39 -->
<g id="edge427_Node000000_Node000039" class="edge">
<title>Node0&#45;&gt;Node39</title>
<g id="a_edge427_Node000000_Node000039"><a xlink:title=" ">
<path fill="none" stroke="#63b8ff" d="M56.3,-797.25C55.19,-690.29 55.69,-223.25 147.25,-119.12 157.5,-107.47 171.42,-99.82 186.2,-94.85"/>
<polygon fill="#63b8ff" stroke="#63b8ff" points="52.8,-796.99 56.42,-806.95 59.8,-796.91 52.8,-796.99"/>
</a>
</g>
</g>
<!-- Node40 -->
<g id="Node000040" class="node">
<title>Node40</title>
<g id="a_Node000040"><a xlink:href="classllzk_1_1polymorphic_1_1impl_1_1FlatteningPassBase.html" target="_top" xlink:title=" ">
<polygon fill="white" stroke="#666666" points="339.5,-46.25 200.5,-46.25 200.5,0 339.5,0 339.5,-46.25"/>
<text text-anchor="start" x="208.5" y="-32.75" font-family="Helvetica,sans-Serif" font-size="10.00">llzk::polymorphic::</text>
<text text-anchor="start" x="208.5" y="-20" font-family="Helvetica,sans-Serif" font-size="10.00">impl::FlatteningPassBase</text>
<text text-anchor="middle" x="270" y="-7.25" font-family="Helvetica,sans-Serif" font-size="10.00">&lt; DerivedT &gt;</text>
</a>
</g>
</g>
<!-- Node0&#45;&gt;Node40 -->
<g id="edge428_Node000000_Node000040" class="edge">
<title>Node0&#45;&gt;Node40</title>
<g id="a_edge428_Node000000_Node000040"><a xlink:title=" ">
<path fill="none" stroke="#63b8ff" d="M57.77,-797.21C64.17,-678.19 97.08,-112.8 147.25,-55.12 160.59,-39.79 180.31,-31.37 200,-26.87"/>
<polygon fill="#63b8ff" stroke="#63b8ff" points="54.29,-796.71 57.26,-806.88 61.28,-797.08 54.29,-796.71"/>
</a>
</g>
</g>
<!-- Node2 -->
<g id="Node000002" class="node">
<title>Node2</title>
<g id="a_Node000002"><a xlink:href="classllzk_1_1CallGraphPrinterPass.html" target="_top" xlink:title=" ">
<polygon fill="white" stroke="#666666" points="599.25,-1679.5 458,-1679.5 458,-1658.75 599.25,-1658.75 599.25,-1679.5"/>
<text text-anchor="middle" x="528.62" y="-1666" font-family="Helvetica,sans-Serif" font-size="10.00">llzk::CallGraphPrinterPass</text>
</a>
</g>
</g>
<!-- Node1&#45;&gt;Node2 -->
<g id="edge390_Node000001_Node000002" class="edge">
<title>Node1&#45;&gt;Node2</title>
<g id="a_edge390_Node000001_Node000002"><a xlink:title=" ">
<path fill="none" stroke="#63b8ff" d="M374.73,-1669.12C402.69,-1669.12 432.27,-1669.12 457.88,-1669.12"/>
<polygon fill="#63b8ff" stroke="#63b8ff" points="374.8,-1665.63 364.8,-1669.13 374.8,-1672.63 374.8,-1665.63"/>
</a>
</g>
</g>
<!-- Node4 -->
<g id="Node000004" class="node">
<title>Node4</title>
<g id="a_Node000004"><a xlink:href="classllzk_1_1CallGraphSCCsPrinterPass.html" target="_top" xlink:title=" ">
<polygon fill="white" stroke="#666666" points="611.62,-1621.5 445.62,-1621.5 445.62,-1600.75 611.62,-1600.75 611.62,-1621.5"/>
<text text-anchor="middle" x="528.62" y="-1608" font-family="Helvetica,sans-Serif" font-size="10.00">llzk::CallGraphSCCsPrinterPass</text>
</a>
</g>
</g>
<!-- Node3&#45;&gt;Node4 -->
<g id="edge392_Node000003_Node000004" class="edge">
<title>Node3&#45;&gt;Node4</title>
<g id="a_edge392_Node000003_Node000004"><a xlink:title=" ">
<path fill="none" stroke="#63b8ff" d="M370.54,-1611.12C395.23,-1611.12 421.42,-1611.12 445.19,-1611.12"/>
<polygon fill="#63b8ff" stroke="#63b8ff" points="370.83,-1607.63 360.83,-1611.13 370.83,-1614.63 370.83,-1607.63"/>
</a>
</g>
</g>
<!-- Node6 -->
<g id="Node000006" class="node">
<title>Node6</title>
<g id="a_Node000006"><a xlink:href="classllzk_1_1ComputeConstrainToProductPass.html" target="_top" xlink:title=" ">
<polygon fill="white" stroke="#666666" points="598.88,-1563.88 458.38,-1563.88 458.38,-1530.38 598.88,-1530.38 598.88,-1563.88"/>
<text text-anchor="start" x="466.38" y="-1550.38" font-family="Helvetica,sans-Serif" font-size="10.00">llzk::ComputeConstrainTo</text>
<text text-anchor="middle" x="528.62" y="-1537.62" font-family="Helvetica,sans-Serif" font-size="10.00">ProductPass</text>
</a>
</g>
</g>
<!-- Node5&#45;&gt;Node6 -->
<g id="edge394_Node000005_Node000006" class="edge">
<title>Node5&#45;&gt;Node6</title>
<g id="a_edge394_Node000005_Node000006"><a xlink:title=" ">
<path fill="none" stroke="#63b8ff" d="M387.19,-1547.12C411.39,-1547.12 436.17,-1547.12 458.05,-1547.12"/>
<polygon fill="#63b8ff" stroke="#63b8ff" points="387.26,-1543.63 377.26,-1547.13 387.26,-1550.63 387.26,-1543.63"/>
</a>
</g>
</g>
<!-- Node8 -->
<g id="Node000008" class="node">
<title>Node8</title>
<g id="a_Node000008"><a xlink:href="classllzk_1_1ConstraintDependencyGraphPrinterPass.html" target="_top" xlink:title=" ">
<polygon fill="white" stroke="#666666" points="603.75,-1499.88 453.5,-1499.88 453.5,-1466.38 603.75,-1466.38 603.75,-1499.88"/>
<text text-anchor="start" x="461.5" y="-1486.38" font-family="Helvetica,sans-Serif" font-size="10.00">llzk::ConstraintDependency</text>
<text text-anchor="middle" x="528.62" y="-1473.62" font-family="Helvetica,sans-Serif" font-size="10.00">GraphPrinterPass</text>
</a>
</g>
</g>
<!-- Node7&#45;&gt;Node8 -->
<g id="edge396_Node000007_Node000008" class="edge">
<title>Node7&#45;&gt;Node8</title>
<g id="a_edge396_Node000007_Node000008"><a xlink:title=" ">
<path fill="none" stroke="#63b8ff" d="M404.02,-1483.12C420.89,-1483.12 437.66,-1483.12 453.15,-1483.12"/>
<polygon fill="#63b8ff" stroke="#63b8ff" points="404.44,-1479.63 394.44,-1483.13 404.44,-1486.63 404.44,-1479.63"/>
</a>
</g>
</g>
<!-- Node10 -->
<g id="Node000010" class="node">
<title>Node10</title>
<g id="a_Node000010"><a xlink:href="classllzk_1_1EnforceNoMemberOverwritePass.html" target="_top" xlink:title=" ">
<polygon fill="white" stroke="#666666" points="628.5,-1429.5 428.75,-1429.5 428.75,-1408.75 628.5,-1408.75 628.5,-1429.5"/>
<text text-anchor="middle" x="528.62" y="-1416" font-family="Helvetica,sans-Serif" font-size="10.00">llzk::EnforceNoMemberOverwritePass</text>
</a>
</g>
</g>
<!-- Node9&#45;&gt;Node10 -->
<g id="edge398_Node000009_Node000010" class="edge">
<title>Node9&#45;&gt;Node10</title>
<g id="a_edge398_Node000009_Node000010"><a xlink:title=" ">
<path fill="none" stroke="#63b8ff" d="M387.54,-1419.12C401.21,-1419.12 415.06,-1419.12 428.46,-1419.12"/>
<polygon fill="#63b8ff" stroke="#63b8ff" points="387.63,-1415.63 377.63,-1419.13 387.63,-1422.63 387.63,-1415.63"/>
</a>
</g>
</g>
<!-- Node12 -->
<g id="Node000012" class="node">
<title>Node12</title>
<g id="a_Node000012"><a xlink:href="classllzk_1_1FuseProductLoopsPass.html" target="_top" xlink:title=" ">
<polygon fill="white" stroke="#666666" points="603,-1371.5 454.25,-1371.5 454.25,-1350.75 603,-1350.75 603,-1371.5"/>
<text text-anchor="middle" x="528.62" y="-1358" font-family="Helvetica,sans-Serif" font-size="10.00">llzk::FuseProductLoopsPass</text>
</a>
</g>
</g>
<!-- Node11&#45;&gt;Node12 -->
<g id="edge400_Node000011_Node000012" class="edge">
<title>Node11&#45;&gt;Node12</title>
<g id="a_edge400_Node000011_Node000012"><a xlink:title=" ">
<path fill="none" stroke="#63b8ff" d="M378.5,-1361.12C403.95,-1361.12 430.52,-1361.12 454.06,-1361.12"/>
<polygon fill="#63b8ff" stroke="#63b8ff" points="378.8,-1357.63 368.8,-1361.13 378.8,-1364.63 378.8,-1357.63"/>
</a>
</g>
</g>
<!-- Node14 -->
<g id="Node000014" class="node">
<title>Node14</title>
<g id="a_Node000014"><a xlink:href="classllzk_1_1IntervalAnalysisPrinterPass.html" target="_top" xlink:title=" ">
<polygon fill="white" stroke="#666666" points="614.62,-1313.5 442.62,-1313.5 442.62,-1292.75 614.62,-1292.75 614.62,-1313.5"/>
<text text-anchor="middle" x="528.62" y="-1300" font-family="Helvetica,sans-Serif" font-size="10.00">llzk::IntervalAnalysisPrinterPass</text>
</a>
</g>
</g>
<!-- Node13&#45;&gt;Node14 -->
<g id="edge402_Node000013_Node000014" class="edge">
<title>Node13&#45;&gt;Node14</title>
<g id="a_edge402_Node000013_Node000014"><a xlink:title=" ">
<path fill="none" stroke="#63b8ff" d="M373.63,-1303.12C396.4,-1303.12 420.3,-1303.12 442.3,-1303.12"/>
<polygon fill="#63b8ff" stroke="#63b8ff" points="373.71,-1299.63 363.71,-1303.13 373.71,-1306.63 373.71,-1299.63"/>
</a>
</g>
</g>
<!-- Node16 -->
<g id="Node000016" class="node">
<title>Node16</title>
<g id="a_Node000016"><a xlink:href="classllzk_1_1PredecessorPrinterPass.html" target="_top" xlink:title=" ">
<polygon fill="white" stroke="#666666" points="604.88,-1255.5 452.38,-1255.5 452.38,-1234.75 604.88,-1234.75 604.88,-1255.5"/>
<text text-anchor="middle" x="528.62" y="-1242" font-family="Helvetica,sans-Serif" font-size="10.00">llzk::PredecessorPrinterPass</text>
</a>
</g>
</g>
<!-- Node15&#45;&gt;Node16 -->
<g id="edge404_Node000015_Node000016" class="edge">
<title>Node15&#45;&gt;Node16</title>
<g id="a_edge404_Node000015_Node000016"><a xlink:title=" ">
<path fill="none" stroke="#63b8ff" d="M380.47,-1245.12C404.54,-1245.12 429.52,-1245.12 451.91,-1245.12"/>
<polygon fill="#63b8ff" stroke="#63b8ff" points="380.63,-1241.63 370.63,-1245.13 380.63,-1248.63 380.63,-1241.63"/>
</a>
</g>
</g>
<!-- Node18 -->
<g id="Node000018" class="node">
<title>Node18</title>
<g id="a_Node000018"><a xlink:href="classllzk_1_1SymbolDefTreePass.html" target="_top" xlink:title=" ">
<polygon fill="white" stroke="#666666" points="596.25,-1197.5 461,-1197.5 461,-1176.75 596.25,-1176.75 596.25,-1197.5"/>
<text text-anchor="middle" x="528.62" y="-1184" font-family="Helvetica,sans-Serif" font-size="10.00">llzk::SymbolDefTreePass</text>
</a>
</g>
</g>
<!-- Node17&#45;&gt;Node18 -->
<g id="edge406_Node000017_Node000018" class="edge">
<title>Node17&#45;&gt;Node18</title>
<g id="a_edge406_Node000017_Node000018"><a xlink:title=" ">
<path fill="none" stroke="#63b8ff" d="M371.38,-1187.12C401.31,-1187.12 433.36,-1187.12 460.6,-1187.12"/>
<polygon fill="#63b8ff" stroke="#63b8ff" points="371.55,-1183.63 361.55,-1187.13 371.55,-1190.63 371.55,-1183.63"/>
</a>
</g>
</g>
<!-- Node20 -->
<g id="Node000020" class="node">
<title>Node20</title>
<g id="a_Node000020"><a xlink:href="classllzk_1_1SymbolUseGraphPass.html" target="_top" xlink:title=" ">
<polygon fill="white" stroke="#666666" points="601.5,-1133.5 455.75,-1133.5 455.75,-1112.75 601.5,-1112.75 601.5,-1133.5"/>
<text text-anchor="middle" x="528.62" y="-1120" font-family="Helvetica,sans-Serif" font-size="10.00">llzk::SymbolUseGraphPass</text>
</a>
</g>
</g>
<!-- Node19&#45;&gt;Node20 -->
<g id="edge408_Node000019_Node000020" class="edge">
<title>Node19&#45;&gt;Node20</title>
<g id="a_edge408_Node000019_Node000020"><a xlink:title=" ">
<path fill="none" stroke="#63b8ff" d="M376.72,-1123.12C403.21,-1123.12 431.02,-1123.12 455.45,-1123.12"/>
<polygon fill="#63b8ff" stroke="#63b8ff" points="376.98,-1119.63 366.98,-1123.13 376.98,-1126.63 376.98,-1119.63"/>
</a>
</g>
</g>
</g>
</svg>
