<?xml version="1.0" encoding="UTF-8" standalone="no"?>
<!DOCTYPE svg PUBLIC "-//W3C//DTD SVG 1.1//EN"
 "http://www.w3.org/Graphics/SVG/1.1/DTD/svg11.dtd">
<!-- Generated by graphviz version 12.2.1 (0)
 -->
<!-- Title: Graphical Class Hierarchy Pages: 1 -->
<svg width="680pt" height="189pt"
 viewBox="0.00 0.00 680.00 188.62" xmlns="http://www.w3.org/2000/svg" xmlns:xlink="http://www.w3.org/1999/xlink">
<g id="graph0" class="graph" transform="scale(1 1) rotate(0) translate(4 184.62)">
<title>Graphical Class Hierarchy</title>
<!-- Node0 -->
<g id="Node000000" class="node">
<title>Node0</title>
<g id="a_Node000000"><a xlink:href="structllzk_1_1component_1_1detail_1_1MemberRefOpInterfaceInterfaceTraits_1_1Concept.html" target="_top" xlink:title=" ">
<polygon fill="white" stroke="#666666" points="179.5,-110.25 0,-110.25 0,-64 179.5,-64 179.5,-110.25"/>
<text text-anchor="start" x="8" y="-96.75" font-family="Helvetica,sans-Serif" font-size="10.00">llzk::component::detail</text>
<text text-anchor="start" x="8" y="-84" font-family="Helvetica,sans-Serif" font-size="10.00">::MemberRefOpInterfaceInterface</text>
<text text-anchor="middle" x="89.75" y="-71.25" font-family="Helvetica,sans-Serif" font-size="10.00">Traits::Concept</text>
</a>
</g>
</g>
<!-- Node1 -->
<g id="Node000001" class="node">
<title>Node1</title>
<g id="a_Node000001"><a xlink:href="classllzk_1_1component_1_1detail_1_1MemberRefOpInterfaceInterfaceTraits_1_1FallbackModel.html" target="_top" xlink:title=" ">
<polygon fill="white" stroke="#666666" points="429.5,-174.25 215.5,-174.25 215.5,-128 429.5,-128 429.5,-174.25"/>
<text text-anchor="start" x="223.5" y="-160.75" font-family="Helvetica,sans-Serif" font-size="10.00">llzk::component::detail</text>
<text text-anchor="start" x="223.5" y="-148" font-family="Helvetica,sans-Serif" font-size="10.00">::MemberRefOpInterfaceInterface</text>
<text text-anchor="middle" x="322.5" y="-135.25" font-family="Helvetica,sans-Serif" font-size="10.00">Traits::FallbackModel&lt; ConcreteModel &gt;</text>
</a>
</g>
</g>
<!-- Node0&#45;&gt;Node1 -->
<g id="edge136_Node000000_Node000001" class="edge">
<title>Node0&#45;&gt;Node1</title>
<g id="a_edge136_Node000000_Node000001"><a xlink:title=" ">
<path fill="none" stroke="#63b8ff" d="M186.47,-113.67C203.01,-118.26 220.11,-123 236.35,-127.51"/>
<polygon fill="#63b8ff" stroke="#63b8ff" points="187.72,-110.39 177.15,-111.09 185.85,-117.13 187.72,-110.39"/>
</a>
</g>
</g>
<!-- Node3 -->
<g id="Node000003" class="node">
<title>Node3</title>
<g id="a_Node000003"><a xlink:href="classllzk_1_1component_1_1detail_1_1MemberRefOpInterfaceInterfaceTraits_1_1FallbackModel.html" target="_top" xlink:title=" ">
<polygon fill="white" stroke="#666666" points="421.25,-110.25 223.75,-110.25 223.75,-64 421.25,-64 421.25,-110.25"/>
<text text-anchor="start" x="231.75" y="-96.75" font-family="Helvetica,sans-Serif" font-size="10.00">llzk::component::detail</text>
<text text-anchor="start" x="231.75" y="-84" font-family="Helvetica,sans-Serif" font-size="10.00">::MemberRefOpInterfaceInterface</text>
<text text-anchor="middle" x="322.5" y="-71.25" font-family="Helvetica,sans-Serif" font-size="10.00">Traits::FallbackModel&lt; ConcreteOp &gt;</text>
</a>
</g>
</g>
<!-- Node0&#45;&gt;Node3 -->
<g id="edge138_Node000000_Node000003" class="edge">
<title>Node0&#45;&gt;Node3</title>
<g id="a_edge138_Node000000_Node000003"><a xlink:title=" ">
<path fill="none" stroke="#63b8ff" d="M191.38,-87.12C201.98,-87.12 212.75,-87.12 223.33,-87.12"/>
<polygon fill="#63b8ff" stroke="#63b8ff" points="191.48,-83.63 181.48,-87.13 191.48,-90.63 191.48,-83.63"/>
</a>
</g>
</g>
<!-- Node4 -->
<g id="Node000004" class="node">
<title>Node4</title>
<g id="a_Node000004"><a xlink:href="classllzk_1_1component_1_1detail_1_1MemberRefOpInterfaceInterfaceTraits_1_1Model.html" target="_top" xlink:title=" ">
<polygon fill="white" stroke="#666666" points="412.25,-46.25 232.75,-46.25 232.75,0 412.25,0 412.25,-46.25"/>
<text text-anchor="start" x="240.75" y="-32.75" font-family="Helvetica,sans-Serif" font-size="10.00">llzk::component::detail</text>
<text text-anchor="start" x="240.75" y="-20" font-family="Helvetica,sans-Serif" font-size="10.00">::MemberRefOpInterfaceInterface</text>
<text text-anchor="middle" x="322.5" y="-7.25" font-family="Helvetica,sans-Serif" font-size="10.00">Traits::Model&lt; ConcreteOp &gt;</text>
</a>
</g>
</g>
<!-- Node0&#45;&gt;Node4 -->
<g id="edge139_Node000000_Node000004" class="edge">
<title>Node0&#45;&gt;Node4</title>
<g id="a_edge139_Node000000_Node000004"><a xlink:title=" ">
<path fill="none" stroke="#63b8ff" d="M186.47,-60.58C203.01,-55.99 220.11,-51.25 236.35,-46.74"/>
<polygon fill="#63b8ff" stroke="#63b8ff" points="185.85,-57.12 177.15,-63.16 187.72,-63.86 185.85,-57.12"/>
</a>
</g>
</g>
<!-- Node2 -->
<g id="Node000002" class="node">
<title>Node2</title>
<g id="a_Node000002"><a xlink:href="classllzk_1_1component_1_1detail_1_1MemberRefOpInterfaceInterfaceTraits_1_1ExternalModel.html" target="_top" xlink:title=" ">
<polygon fill="white" stroke="#666666" points="672,-180.62 465.5,-180.62 465.5,-121.62 672,-121.62 672,-180.62"/>
<text text-anchor="start" x="473.5" y="-167.12" font-family="Helvetica,sans-Serif" font-size="10.00">llzk::component::detail</text>
<text text-anchor="start" x="473.5" y="-154.38" font-family="Helvetica,sans-Serif" font-size="10.00">::MemberRefOpInterfaceInterface</text>
<text text-anchor="start" x="473.5" y="-141.62" font-family="Helvetica,sans-Serif" font-size="10.00">Traits::ExternalModel&lt; ConcreteModel,</text>
<text text-anchor="middle" x="568.75" y="-128.88" font-family="Helvetica,sans-Serif" font-size="10.00"> ConcreteOp &gt;</text>
</a>
</g>
</g>
<!-- Node1&#45;&gt;Node2 -->
<g id="edge137_Node000001_Node000002" class="edge">
<title>Node1&#45;&gt;Node2</title>
<g id="a_edge137_Node000001_Node000002"><a xlink:title=" ">
<path fill="none" stroke="#63b8ff" d="M441.21,-151.12C449.21,-151.12 457.25,-151.12 465.16,-151.12"/>
<polygon fill="#63b8ff" stroke="#63b8ff" points="441.43,-147.63 431.43,-151.13 441.43,-154.63 441.43,-147.63"/>
</a>
</g>
</g>
</g>
</svg>
