<?xml version="1.0" encoding="UTF-8" standalone="no"?>
<!DOCTYPE svg PUBLIC "-//W3C//DTD SVG 1.1//EN"
 "http://www.w3.org/Graphics/SVG/1.1/DTD/svg11.dtd">
<!-- Generated by graphviz version 12.2.1 (0)
 -->
<!-- Title: Graphical Class Hierarchy Pages: 1 -->
<svg width="593pt" height="170pt"
 viewBox="0.00 0.00 593.00 169.88" xmlns="http://www.w3.org/2000/svg" xmlns:xlink="http://www.w3.org/1999/xlink">
<g id="graph0" class="graph" transform="scale(1 1) rotate(0) translate(4 165.88)">
<title>Graphical Class Hierarchy</title>
<!-- Node0 -->
<g id="Node000000" class="node">
<title>Node0</title>
<g id="a_Node000000"><a xlink:href="classllzk_1_1smt_1_1detail_1_1ArrayBroadcastOpGenericAdaptorBase.html" target="_top" xlink:title=" ">
<polygon fill="white" stroke="#666666" points="204.25,-91.5 0,-91.5 0,-58 204.25,-58 204.25,-91.5"/>
<text text-anchor="start" x="8" y="-78" font-family="Helvetica,sans-Serif" font-size="10.00">llzk::smt::detail::</text>
<text text-anchor="middle" x="102.12" y="-65.25" font-family="Helvetica,sans-Serif" font-size="10.00">ArrayBroadcastOpGenericAdaptorBase</text>
</a>
</g>
</g>
<!-- Node1 -->
<g id="Node000001" class="node">
<title>Node1</title>
<g id="a_Node000001"><a xlink:href="classllzk_1_1smt_1_1ArrayBroadcastOpGenericAdaptor.html" target="_top" xlink:title=" ">
<polygon fill="white" stroke="#666666" points="410,-161.88 240.25,-161.88 240.25,-115.62 410,-115.62 410,-161.88"/>
<text text-anchor="start" x="248.25" y="-148.38" font-family="Helvetica,sans-Serif" font-size="10.00">llzk::smt::ArrayBroadcast</text>
<text text-anchor="start" x="248.25" y="-135.62" font-family="Helvetica,sans-Serif" font-size="10.00">OpGenericAdaptor&lt;::llvm</text>
<text text-anchor="middle" x="325.12" y="-122.88" font-family="Helvetica,sans-Serif" font-size="10.00">::ArrayRef&lt;::mlir::Attribute &gt; &gt;</text>
</a>
</g>
</g>
<!-- Node0&#45;&gt;Node1 -->
<g id="edge386_Node000000_Node000001" class="edge">
<title>Node0&#45;&gt;Node1</title>
<g id="a_edge386_Node000000_Node000001"><a xlink:title=" ">
<path fill="none" stroke="#63b8ff" d="M173.59,-95.16C195.65,-101.54 220.17,-108.65 242.91,-115.23"/>
<polygon fill="#63b8ff" stroke="#63b8ff" points="174.67,-91.83 164.09,-92.41 172.73,-98.55 174.67,-91.83"/>
</a>
</g>
</g>
<!-- Node2 -->
<g id="Node000002" class="node">
<title>Node2</title>
<g id="a_Node000002"><a xlink:href="classllzk_1_1smt_1_1ArrayBroadcastOpGenericAdaptor.html" target="_top" xlink:title=" ">
<polygon fill="white" stroke="#666666" points="394.62,-97.88 255.62,-97.88 255.62,-51.62 394.62,-51.62 394.62,-97.88"/>
<text text-anchor="start" x="263.62" y="-84.38" font-family="Helvetica,sans-Serif" font-size="10.00">llzk::smt::ArrayBroadcast</text>
<text text-anchor="start" x="263.62" y="-71.62" font-family="Helvetica,sans-Serif" font-size="10.00">OpGenericAdaptor&lt;::mlir</text>
<text text-anchor="middle" x="325.12" y="-58.88" font-family="Helvetica,sans-Serif" font-size="10.00">::ValueRange &gt;</text>
</a>
</g>
</g>
<!-- Node0&#45;&gt;Node2 -->
<g id="edge387_Node000000_Node000002" class="edge">
<title>Node0&#45;&gt;Node2</title>
<g id="a_edge387_Node000000_Node000002"><a xlink:title=" ">
<path fill="none" stroke="#63b8ff" d="M215.84,-74.75C229.26,-74.75 242.64,-74.75 255.19,-74.75"/>
<polygon fill="#63b8ff" stroke="#63b8ff" points="216.08,-71.25 206.08,-74.75 216.08,-78.25 216.08,-71.25"/>
</a>
</g>
</g>
<!-- Node4 -->
<g id="Node000004" class="node">
<title>Node4</title>
<g id="a_Node000004"><a xlink:href="classllzk_1_1smt_1_1ArrayBroadcastOpGenericAdaptor.html" target="_top" xlink:title=" ">
<polygon fill="white" stroke="#666666" points="407.38,-33.5 242.88,-33.5 242.88,0 407.38,0 407.38,-33.5"/>
<text text-anchor="start" x="250.88" y="-20" font-family="Helvetica,sans-Serif" font-size="10.00">llzk::smt::ArrayBroadcast</text>
<text text-anchor="middle" x="325.12" y="-7.25" font-family="Helvetica,sans-Serif" font-size="10.00">OpGenericAdaptor&lt; RangeT &gt;</text>
</a>
</g>
</g>
<!-- Node0&#45;&gt;Node4 -->
<g id="edge389_Node000000_Node000004" class="edge">
<title>Node0&#45;&gt;Node4</title>
<g id="a_edge389_Node000000_Node000004"><a xlink:title=" ">
<path fill="none" stroke="#63b8ff" d="M179.68,-54.66C205.41,-47.91 233.87,-40.44 258.67,-33.93"/>
<polygon fill="#63b8ff" stroke="#63b8ff" points="179.08,-51.2 170.3,-57.12 180.86,-57.97 179.08,-51.2"/>
</a>
</g>
</g>
<!-- Node3 -->
<g id="Node000003" class="node">
<title>Node3</title>
<g id="a_Node000003"><a xlink:href="classllzk_1_1smt_1_1ArrayBroadcastOpAdaptor.html" target="_top" xlink:title=" ">
<polygon fill="white" stroke="#666666" points="585,-91.5 446,-91.5 446,-58 585,-58 585,-91.5"/>
<text text-anchor="start" x="454" y="-78" font-family="Helvetica,sans-Serif" font-size="10.00">llzk::smt::ArrayBroadcast</text>
<text text-anchor="middle" x="515.5" y="-65.25" font-family="Helvetica,sans-Serif" font-size="10.00">OpAdaptor</text>
</a>
</g>
</g>
<!-- Node2&#45;&gt;Node3 -->
<g id="edge388_Node000002_Node000003" class="edge">
<title>Node2&#45;&gt;Node3</title>
<g id="a_edge388_Node000002_Node000003"><a xlink:title=" ">
<path fill="none" stroke="#63b8ff" d="M406.29,-74.75C419.36,-74.75 432.8,-74.75 445.56,-74.75"/>
<polygon fill="#63b8ff" stroke="#63b8ff" points="406.45,-71.25 396.45,-74.75 406.45,-78.25 406.45,-71.25"/>
</a>
</g>
</g>
</g>
</svg>
