<?xml version="1.0" encoding="UTF-8" standalone="no"?>
<!DOCTYPE svg PUBLIC "-//W3C//DTD SVG 1.1//EN"
 "http://www.w3.org/Graphics/SVG/1.1/DTD/svg11.dtd">
<!-- Generated by graphviz version 12.2.1 (0)
 -->
<!-- Title: Graphical Class Hierarchy Pages: 1 -->
<svg width="561pt" height="158pt"
 viewBox="0.00 0.00 560.75 157.88" xmlns="http://www.w3.org/2000/svg" xmlns:xlink="http://www.w3.org/1999/xlink">
<g id="graph0" class="graph" transform="scale(1 1) rotate(0) translate(4 153.88)">
<title>Graphical Class Hierarchy</title>
<!-- Node0 -->
<g id="Node000000" class="node">
<title>Node0</title>
<g id="a_Node000000"><a xlink:href="classllzk_1_1felt_1_1detail_1_1XorFeltOpGenericAdaptorBase.html" target="_top" xlink:title=" ">
<polygon fill="white" stroke="#666666" points="169.75,-85.5 0,-85.5 0,-52 169.75,-52 169.75,-85.5"/>
<text text-anchor="start" x="8" y="-72" font-family="Helvetica,sans-Serif" font-size="10.00">llzk::felt::detail</text>
<text text-anchor="middle" x="84.88" y="-59.25" font-family="Helvetica,sans-Serif" font-size="10.00">::XorFeltOpGenericAdaptorBase</text>
</a>
</g>
</g>
<!-- Node1 -->
<g id="Node000001" class="node">
<title>Node1</title>
<g id="a_Node000001"><a xlink:href="classllzk_1_1felt_1_1XorFeltOpGenericAdaptor.html" target="_top" xlink:title=" ">
<polygon fill="white" stroke="#666666" points="360.88,-149.88 213.62,-149.88 213.62,-103.62 360.88,-103.62 360.88,-149.88"/>
<text text-anchor="start" x="221.62" y="-136.38" font-family="Helvetica,sans-Serif" font-size="10.00">llzk::felt::XorFeltOpGeneric</text>
<text text-anchor="start" x="221.62" y="-123.62" font-family="Helvetica,sans-Serif" font-size="10.00">Adaptor&lt;::llvm::ArrayRef</text>
<text text-anchor="middle" x="287.25" y="-110.88" font-family="Helvetica,sans-Serif" font-size="10.00">&lt;::mlir::Attribute &gt; &gt;</text>
</a>
</g>
</g>
<!-- Node0&#45;&gt;Node1 -->
<g id="edge238_Node000000_Node000001" class="edge">
<title>Node0&#45;&gt;Node1</title>
<g id="a_edge238_Node000000_Node000001"><a xlink:title=" ">
<path fill="none" stroke="#63b8ff" d="M156.43,-89.17C174.9,-94.52 194.85,-100.29 213.43,-105.67"/>
<polygon fill="#63b8ff" stroke="#63b8ff" points="157.48,-85.83 146.91,-86.42 155.54,-92.56 157.48,-85.83"/>
</a>
</g>
</g>
<!-- Node2 -->
<g id="Node000002" class="node">
<title>Node2</title>
<g id="a_Node000002"><a xlink:href="classllzk_1_1felt_1_1XorFeltOpGenericAdaptor.html" target="_top" xlink:title=" ">
<polygon fill="white" stroke="#666666" points="368.75,-85.5 205.75,-85.5 205.75,-52 368.75,-52 368.75,-85.5"/>
<text text-anchor="start" x="213.75" y="-72" font-family="Helvetica,sans-Serif" font-size="10.00">llzk::felt::XorFeltOpGeneric</text>
<text text-anchor="middle" x="287.25" y="-59.25" font-family="Helvetica,sans-Serif" font-size="10.00">Adaptor&lt;::mlir::ValueRange &gt;</text>
</a>
</g>
</g>
<!-- Node0&#45;&gt;Node2 -->
<g id="edge239_Node000000_Node000002" class="edge">
<title>Node0&#45;&gt;Node2</title>
<g id="a_edge239_Node000000_Node000002"><a xlink:title=" ">
<path fill="none" stroke="#63b8ff" d="M181.37,-68.75C189.47,-68.75 197.6,-68.75 205.56,-68.75"/>
<polygon fill="#63b8ff" stroke="#63b8ff" points="181.49,-65.25 171.49,-68.75 181.49,-72.25 181.49,-65.25"/>
</a>
</g>
</g>
<!-- Node4 -->
<g id="Node000004" class="node">
<title>Node4</title>
<g id="a_Node000004"><a xlink:href="classllzk_1_1felt_1_1XorFeltOpGenericAdaptor.html" target="_top" xlink:title=" ">
<polygon fill="white" stroke="#666666" points="360.88,-33.5 213.62,-33.5 213.62,0 360.88,0 360.88,-33.5"/>
<text text-anchor="start" x="221.62" y="-20" font-family="Helvetica,sans-Serif" font-size="10.00">llzk::felt::XorFeltOpGeneric</text>
<text text-anchor="middle" x="287.25" y="-7.25" font-family="Helvetica,sans-Serif" font-size="10.00">Adaptor&lt; RangeT &gt;</text>
</a>
</g>
</g>
<!-- Node0&#45;&gt;Node4 -->
<g id="edge241_Node000000_Node000004" class="edge">
<title>Node0&#45;&gt;Node4</title>
<g id="a_edge241_Node000000_Node000004"><a xlink:title=" ">
<path fill="none" stroke="#63b8ff" d="M163.2,-48.68C181.94,-43.82 201.81,-38.66 219.99,-33.95"/>
<polygon fill="#63b8ff" stroke="#63b8ff" points="162.58,-45.23 153.78,-51.13 164.34,-52 162.58,-45.23"/>
</a>
</g>
</g>
<!-- Node3 -->
<g id="Node000003" class="node">
<title>Node3</title>
<g id="a_Node000003"><a xlink:href="classllzk_1_1felt_1_1XorFeltOpAdaptor.html" target="_top" xlink:title=" ">
<polygon fill="white" stroke="#666666" points="552.75,-79.12 404.75,-79.12 404.75,-58.38 552.75,-58.38 552.75,-79.12"/>
<text text-anchor="middle" x="478.75" y="-65.62" font-family="Helvetica,sans-Serif" font-size="10.00">llzk::felt::XorFeltOpAdaptor</text>
</a>
</g>
</g>
<!-- Node2&#45;&gt;Node3 -->
<g id="edge240_Node000002_Node000003" class="edge">
<title>Node2&#45;&gt;Node3</title>
<g id="a_edge240_Node000002_Node000003"><a xlink:title=" ">
<path fill="none" stroke="#63b8ff" d="M380.44,-68.75C388.45,-68.75 396.48,-68.75 404.3,-68.75"/>
<polygon fill="#63b8ff" stroke="#63b8ff" points="380.68,-65.25 370.68,-68.75 380.68,-72.25 380.68,-65.25"/>
</a>
</g>
</g>
</g>
</svg>
