<?xml version="1.0" encoding="UTF-8" standalone="no"?>
<!DOCTYPE svg PUBLIC "-//W3C//DTD SVG 1.1//EN"
 "http://www.w3.org/Graphics/SVG/1.1/DTD/svg11.dtd">
<!-- Generated by graphviz version 12.2.1 (0)
 -->
<!-- Title: include/llzk/Dialect/Include/Transforms/InlineIncludesPass.h Pages: 1 -->
<svg width="1754pt" height="263pt"
 viewBox="0.00 0.00 1754.38 262.75" xmlns="http://www.w3.org/2000/svg" xmlns:xlink="http://www.w3.org/1999/xlink">
<g id="graph0" class="graph" transform="scale(1 1) rotate(0) translate(4 258.75)">
<title>include/llzk/Dialect/Include/Transforms/InlineIncludesPass.h</title>
<!-- Node1 -->
<g id="Node000001" class="node">
<title>Node1</title>
<g id="a_Node000001"><a xlink:title=" ">
<polygon fill="#999999" stroke="#666666" points="929.12,-254.75 747.38,-254.75 747.38,-208.5 929.12,-208.5 929.12,-254.75"/>
<text text-anchor="start" x="755.38" y="-241.25" font-family="Helvetica,sans-Serif" font-size="10.00">include/llzk/Dialect</text>
<text text-anchor="start" x="755.38" y="-228.5" font-family="Helvetica,sans-Serif" font-size="10.00">/Include/Transforms/InlineIncludes</text>
<text text-anchor="middle" x="838.25" y="-215.75" font-family="Helvetica,sans-Serif" font-size="10.00">Pass.h</text>
</a>
</g>
</g>
<!-- Node2 -->
<g id="Node000002" class="node">
<title>Node2</title>
<g id="a_Node000002"><a xlink:href="Polymorphic_2IR_2Dialect_8h.html" target="_top" xlink:title=" ">
<polygon fill="white" stroke="#666666" points="134.5,-103 0,-103 0,-69.5 134.5,-69.5 134.5,-103"/>
<text text-anchor="start" x="8" y="-89.5" font-family="Helvetica,sans-Serif" font-size="10.00">llzk/Dialect/Polymorphic</text>
<text text-anchor="middle" x="67.25" y="-76.75" font-family="Helvetica,sans-Serif" font-size="10.00">/IR/Dialect.h</text>
</a>
</g>
</g>
<!-- Node1&#45;&gt;Node2 -->
<g id="edge1_Node000001_Node000002" class="edge">
<title>Node1&#45;&gt;Node2</title>
<g id="a_edge1_Node000001_Node000002"><a xlink:title=" ">
<path fill="none" stroke="#63b8ff" d="M746.92,-214.43C616.31,-191.13 368.37,-146.41 146.08,-103.33"/>
<polygon fill="#63b8ff" stroke="#63b8ff" points="146.81,-99.91 136.33,-101.44 145.48,-106.78 146.81,-99.91"/>
</a>
</g>
</g>
<!-- Node5 -->
<g id="Node000005" class="node">
<title>Node5</title>
<g id="a_Node000005"><a xlink:href="PassBase_8h.html" target="_top" xlink:title=" ">
<polygon fill="white" stroke="#666666" points="896.12,-166.12 780.38,-166.12 780.38,-145.38 896.12,-145.38 896.12,-166.12"/>
<text text-anchor="middle" x="838.25" y="-152.62" font-family="Helvetica,sans-Serif" font-size="10.00">llzk/Pass/PassBase.h</text>
</a>
</g>
</g>
<!-- Node1&#45;&gt;Node5 -->
<g id="edge4_Node000001_Node000005" class="edge">
<title>Node1&#45;&gt;Node5</title>
<g id="a_edge4_Node000001_Node000005"><a xlink:title=" ">
<path fill="none" stroke="#63b8ff" d="M838.25,-208.06C838.25,-198.49 838.25,-187.4 838.25,-177.98"/>
<polygon fill="#63b8ff" stroke="#63b8ff" points="841.75,-177.99 838.25,-167.99 834.75,-177.99 841.75,-177.99"/>
</a>
</g>
</g>
<!-- Node29 -->
<g id="Node000029" class="node">
<title>Node29</title>
<g id="a_Node000029"><a xlink:href="InlineIncludesPass_8h_8inc.html" target="_top" xlink:title=" ">
<polygon fill="white" stroke="#666666" points="1106,-172.5 914.5,-172.5 914.5,-139 1106,-139 1106,-172.5"/>
<text text-anchor="start" x="922.5" y="-159" font-family="Helvetica,sans-Serif" font-size="10.00">llzk/Dialect/Include</text>
<text text-anchor="middle" x="1010.25" y="-146.25" font-family="Helvetica,sans-Serif" font-size="10.00">/Transforms/InlineIncludesPass.h.inc</text>
</a>
</g>
</g>
<!-- Node1&#45;&gt;Node29 -->
<g id="edge39_Node000001_Node000029" class="edge">
<title>Node1&#45;&gt;Node29</title>
<g id="a_edge39_Node000001_Node000029"><a xlink:title=" ">
<path fill="none" stroke="#63b8ff" d="M890.79,-208.06C913.46,-198.32 939.8,-187.01 961.97,-177.49"/>
<polygon fill="#63b8ff" stroke="#63b8ff" points="963.29,-180.73 971.1,-173.57 960.53,-174.3 963.29,-180.73"/>
</a>
</g>
</g>
<!-- Node3 -->
<g id="Node000003" class="node">
<title>Node3</title>
<g id="a_Node000003"><a xlink:title=" ">
<polygon fill="#e0e0e0" stroke="#999999" points="898.5,-27.12 788,-27.12 788,-6.38 898.5,-6.38 898.5,-27.12"/>
<text text-anchor="middle" x="843.25" y="-13.62" font-family="Helvetica,sans-Serif" font-size="10.00">mlir/IR/BuiltinOps.h</text>
</a>
</g>
</g>
<!-- Node2&#45;&gt;Node3 -->
<g id="edge2_Node000002_Node000003" class="edge">
<title>Node2&#45;&gt;Node3</title>
<g id="a_edge2_Node000002_Node000003"><a xlink:title=" ">
<path fill="none" stroke="#63b8ff" d="M134.76,-70.86C137.96,-70.36 141.14,-69.9 144.25,-69.5 424.13,-33.13 499.07,-74.9 778.25,-33.5 784.28,-32.61 790.57,-31.42 796.76,-30.09"/>
<polygon fill="#63b8ff" stroke="#63b8ff" points="797.27,-33.56 806.24,-27.92 795.71,-26.74 797.27,-33.56"/>
</a>
</g>
</g>
<!-- Node4 -->
<g id="Node000004" class="node">
<title>Node4</title>
<g id="a_Node000004"><a xlink:href="Polymorphic_2IR_2Dialect_8h_8inc.html" target="_top" xlink:title=" ">
<polygon fill="white" stroke="#666666" points="134.5,-33.5 0,-33.5 0,0 134.5,0 134.5,-33.5"/>
<text text-anchor="start" x="8" y="-20" font-family="Helvetica,sans-Serif" font-size="10.00">llzk/Dialect/Polymorphic</text>
<text text-anchor="middle" x="67.25" y="-7.25" font-family="Helvetica,sans-Serif" font-size="10.00">/IR/Dialect.h.inc</text>
</a>
</g>
</g>
<!-- Node2&#45;&gt;Node4 -->
<g id="edge3_Node000002_Node000004" class="edge">
<title>Node2&#45;&gt;Node4</title>
<g id="a_edge3_Node000002_Node000004"><a xlink:title=" ">
<path fill="none" stroke="#63b8ff" d="M67.25,-69.25C67.25,-62.02 67.25,-53.28 67.25,-45.06"/>
<polygon fill="#63b8ff" stroke="#63b8ff" points="70.75,-45.15 67.25,-35.15 63.75,-45.15 70.75,-45.15"/>
</a>
</g>
</g>
<!-- Node5&#45;&gt;Node2 -->
<g id="edge29_Node000005_Node000002" class="edge">
<title>Node5&#45;&gt;Node2</title>
<g id="a_edge29_Node000005_Node000002"><a xlink:title=" ">
<path fill="none" stroke="#63b8ff" d="M779.95,-152.91C662.1,-148.65 387,-135.95 145.87,-103.1"/>
<polygon fill="#63b8ff" stroke="#63b8ff" points="146.66,-99.67 136.27,-101.77 145.7,-106.61 146.66,-99.67"/>
</a>
</g>
</g>
<!-- Node6 -->
<g id="Node000006" class="node">
<title>Node6</title>
<g id="a_Node000006"><a xlink:href="Array_2IR_2Dialect_8h.html" target="_top" xlink:title=" ">
<polygon fill="white" stroke="#666666" points="1482.25,-103 1382.25,-103 1382.25,-69.5 1482.25,-69.5 1482.25,-103"/>
<text text-anchor="start" x="1390.25" y="-89.5" font-family="Helvetica,sans-Serif" font-size="10.00">llzk/Dialect/Array</text>
<text text-anchor="middle" x="1432.25" y="-76.75" font-family="Helvetica,sans-Serif" font-size="10.00">/IR/Dialect.h</text>
</a>
</g>
</g>
<!-- Node5&#45;&gt;Node6 -->
<g id="edge5_Node000005_Node000006" class="edge">
<title>Node5&#45;&gt;Node6</title>
<g id="a_edge5_Node000005_Node000006"><a xlink:title=" ">
<path fill="none" stroke="#63b8ff" d="M875.61,-144.89C885.21,-142.66 895.57,-140.5 905.25,-139 1107.78,-107.6 1165.58,-136.98 1370.7,-103.23"/>
<polygon fill="#63b8ff" stroke="#63b8ff" points="1371.08,-106.72 1380.36,-101.61 1369.92,-99.81 1371.08,-106.72"/>
</a>
</g>
</g>
<!-- Node8 -->
<g id="Node000008" class="node">
<title>Node8</title>
<g id="a_Node000008"><a xlink:href="Bool_2IR_2Dialect_8h.html" target="_top" xlink:title=" ">
<polygon fill="white" stroke="#666666" points="1608.38,-103 1500.12,-103 1500.12,-69.5 1608.38,-69.5 1608.38,-103"/>
<text text-anchor="start" x="1508.12" y="-89.5" font-family="Helvetica,sans-Serif" font-size="10.00">llzk/Dialect/Bool/IR</text>
<text text-anchor="middle" x="1554.25" y="-76.75" font-family="Helvetica,sans-Serif" font-size="10.00">/Dialect.h</text>
</a>
</g>
</g>
<!-- Node5&#45;&gt;Node8 -->
<g id="edge8_Node000005_Node000008" class="edge">
<title>Node5&#45;&gt;Node8</title>
<g id="a_edge8_Node000005_Node000008"><a xlink:title=" ">
<path fill="none" stroke="#63b8ff" d="M874.9,-144.95C884.69,-142.66 895.32,-140.46 905.25,-139 1159.75,-101.55 1231.35,-141.64 1488.54,-103.23"/>
<polygon fill="#63b8ff" stroke="#63b8ff" points="1488.88,-106.72 1498.24,-101.76 1487.83,-99.8 1488.88,-106.72"/>
</a>
</g>
</g>
<!-- Node10 -->
<g id="Node000010" class="node">
<title>Node10</title>
<g id="a_Node000010"><a xlink:href="Constrain_2IR_2Dialect_8h.html" target="_top" xlink:title=" ">
<polygon fill="white" stroke="#666666" points="1746.38,-103 1626.12,-103 1626.12,-69.5 1746.38,-69.5 1746.38,-103"/>
<text text-anchor="start" x="1634.12" y="-89.5" font-family="Helvetica,sans-Serif" font-size="10.00">llzk/Dialect/Constrain</text>
<text text-anchor="middle" x="1686.25" y="-76.75" font-family="Helvetica,sans-Serif" font-size="10.00">/IR/Dialect.h</text>
</a>
</g>
</g>
<!-- Node5&#45;&gt;Node10 -->
<g id="edge11_Node000005_Node000010" class="edge">
<title>Node5&#45;&gt;Node10</title>
<g id="a_edge11_Node000005_Node000010"><a xlink:title=" ">
<path fill="none" stroke="#63b8ff" d="M874.88,-144.88C884.68,-142.59 895.31,-140.41 905.25,-139 1215.29,-95.09 1301.38,-145.22 1614.54,-103.21"/>
<polygon fill="#63b8ff" stroke="#63b8ff" points="1614.84,-106.7 1624.28,-101.88 1613.9,-99.77 1614.84,-106.7"/>
</a>
</g>
</g>
<!-- Node12 -->
<g id="Node000012" class="node">
<title>Node12</title>
<g id="a_Node000012"><a xlink:href="Felt_2IR_2Dialect_8h.html" target="_top" xlink:title=" ">
<polygon fill="white" stroke="#666666" points="257.5,-103 153,-103 153,-69.5 257.5,-69.5 257.5,-103"/>
<text text-anchor="start" x="161" y="-89.5" font-family="Helvetica,sans-Serif" font-size="10.00">llzk/Dialect/Felt/IR</text>
<text text-anchor="middle" x="205.25" y="-76.75" font-family="Helvetica,sans-Serif" font-size="10.00">/Dialect.h</text>
</a>
</g>
</g>
<!-- Node5&#45;&gt;Node12 -->
<g id="edge14_Node000005_Node000012" class="edge">
<title>Node5&#45;&gt;Node12</title>
<g id="a_edge14_Node000005_Node000012"><a xlink:title=" ">
<path fill="none" stroke="#63b8ff" d="M779.9,-152.51C678.11,-147.95 461.38,-135.29 269.07,-103.12"/>
<polygon fill="#63b8ff" stroke="#63b8ff" points="269.83,-99.7 259.39,-101.48 268.66,-106.6 269.83,-99.7"/>
</a>
</g>
</g>
<!-- Node14 -->
<g id="Node000014" class="node">
<title>Node14</title>
<g id="a_Node000014"><a xlink:href="Function_2IR_2Dialect_8h.html" target="_top" xlink:title=" ">
<polygon fill="white" stroke="#666666" points="390.75,-103 275.75,-103 275.75,-69.5 390.75,-69.5 390.75,-103"/>
<text text-anchor="start" x="283.75" y="-89.5" font-family="Helvetica,sans-Serif" font-size="10.00">llzk/Dialect/Function</text>
<text text-anchor="middle" x="333.25" y="-76.75" font-family="Helvetica,sans-Serif" font-size="10.00">/IR/Dialect.h</text>
</a>
</g>
</g>
<!-- Node5&#45;&gt;Node14 -->
<g id="edge17_Node000005_Node000014" class="edge">
<title>Node5&#45;&gt;Node14</title>
<g id="a_edge17_Node000005_Node000014"><a xlink:title=" ">
<path fill="none" stroke="#63b8ff" d="M780.06,-150.07C697.83,-142.98 542.82,-127.85 402.09,-103.39"/>
<polygon fill="#63b8ff" stroke="#63b8ff" points="403.06,-100.01 392.61,-101.73 401.85,-106.91 403.06,-100.01"/>
</a>
</g>
</g>
<!-- Node16 -->
<g id="Node000016" class="node">
<title>Node16</title>
<g id="a_Node000016"><a xlink:href="Global_2IR_2Dialect_8h.html" target="_top" xlink:title=" ">
<polygon fill="white" stroke="#666666" points="513.88,-103 408.62,-103 408.62,-69.5 513.88,-69.5 513.88,-103"/>
<text text-anchor="start" x="416.62" y="-89.5" font-family="Helvetica,sans-Serif" font-size="10.00">llzk/Dialect/Global</text>
<text text-anchor="middle" x="461.25" y="-76.75" font-family="Helvetica,sans-Serif" font-size="10.00">/IR/Dialect.h</text>
</a>
</g>
</g>
<!-- Node5&#45;&gt;Node16 -->
<g id="edge20_Node000005_Node000016" class="edge">
<title>Node5&#45;&gt;Node16</title>
<g id="a_edge20_Node000005_Node000016"><a xlink:title=" ">
<path fill="none" stroke="#63b8ff" d="M779.92,-146.7C718.89,-137.93 620.1,-122.78 525.5,-103.37"/>
<polygon fill="#63b8ff" stroke="#63b8ff" points="526.26,-99.95 515.76,-101.35 524.84,-106.81 526.26,-99.95"/>
</a>
</g>
</g>
<!-- Node18 -->
<g id="Node000018" class="node">
<title>Node18</title>
<g id="a_Node000018"><a xlink:href="Include_2IR_2Dialect_8h.html" target="_top" xlink:title=" ">
<polygon fill="white" stroke="#666666" points="640.75,-103 531.75,-103 531.75,-69.5 640.75,-69.5 640.75,-103"/>
<text text-anchor="start" x="539.75" y="-89.5" font-family="Helvetica,sans-Serif" font-size="10.00">llzk/Dialect/Include</text>
<text text-anchor="middle" x="586.25" y="-76.75" font-family="Helvetica,sans-Serif" font-size="10.00">/IR/Dialect.h</text>
</a>
</g>
</g>
<!-- Node5&#45;&gt;Node18 -->
<g id="edge23_Node000005_Node000018" class="edge">
<title>Node5&#45;&gt;Node18</title>
<g id="a_edge23_Node000005_Node000018"><a xlink:title=" ">
<path fill="none" stroke="#63b8ff" d="M801.61,-144.93C762.47,-134.45 699.65,-117.63 651.93,-104.84"/>
<polygon fill="#63b8ff" stroke="#63b8ff" points="653.1,-101.53 642.54,-102.33 651.29,-108.3 653.1,-101.53"/>
</a>
</g>
</g>
<!-- Node20 -->
<g id="Node000020" class="node">
<title>Node20</title>
<g id="a_Node000020"><a xlink:href="LLZK_2IR_2Dialect_8h.html" target="_top" xlink:title=" ">
<polygon fill="white" stroke="#666666" points="769.5,-103 659,-103 659,-69.5 769.5,-69.5 769.5,-103"/>
<text text-anchor="start" x="667" y="-89.5" font-family="Helvetica,sans-Serif" font-size="10.00">llzk/Dialect/LLZK/IR</text>
<text text-anchor="middle" x="714.25" y="-76.75" font-family="Helvetica,sans-Serif" font-size="10.00">/Dialect.h</text>
</a>
</g>
</g>
<!-- Node5&#45;&gt;Node20 -->
<g id="edge26_Node000005_Node000020" class="edge">
<title>Node5&#45;&gt;Node20</title>
<g id="a_edge26_Node000005_Node000020"><a xlink:title=" ">
<path fill="none" stroke="#63b8ff" d="M820.22,-144.93C802.86,-135.49 776.03,-120.88 753.71,-108.73"/>
<polygon fill="#63b8ff" stroke="#63b8ff" points="755.61,-105.78 745.15,-104.07 752.26,-111.93 755.61,-105.78"/>
</a>
</g>
</g>
<!-- Node22 -->
<g id="Node000022" class="node">
<title>Node22</title>
<g id="a_Node000022"><a xlink:href="String_2IR_2Dialect_8h.html" target="_top" xlink:title=" ">
<polygon fill="white" stroke="#666666" points="889.38,-103 787.12,-103 787.12,-69.5 889.38,-69.5 889.38,-103"/>
<text text-anchor="start" x="795.12" y="-89.5" font-family="Helvetica,sans-Serif" font-size="10.00">llzk/Dialect/String</text>
<text text-anchor="middle" x="838.25" y="-76.75" font-family="Helvetica,sans-Serif" font-size="10.00">/IR/Dialect.h</text>
</a>
</g>
</g>
<!-- Node5&#45;&gt;Node22 -->
<g id="edge30_Node000005_Node000022" class="edge">
<title>Node5&#45;&gt;Node22</title>
<g id="a_edge30_Node000005_Node000022"><a xlink:title=" ">
<path fill="none" stroke="#63b8ff" d="M838.25,-145.08C838.25,-137.19 838.25,-125.63 838.25,-114.91"/>
<polygon fill="#63b8ff" stroke="#63b8ff" points="841.75,-114.93 838.25,-104.93 834.75,-114.93 841.75,-114.93"/>
</a>
</g>
</g>
<!-- Node24 -->
<g id="Node000024" class="node">
<title>Node24</title>
<g id="a_Node000024"><a xlink:href="Struct_2IR_2Dialect_8h.html" target="_top" xlink:title=" ">
<polygon fill="white" stroke="#666666" points="1009.38,-103 907.12,-103 907.12,-69.5 1009.38,-69.5 1009.38,-103"/>
<text text-anchor="start" x="915.12" y="-89.5" font-family="Helvetica,sans-Serif" font-size="10.00">llzk/Dialect/Struct</text>
<text text-anchor="middle" x="958.25" y="-76.75" font-family="Helvetica,sans-Serif" font-size="10.00">/IR/Dialect.h</text>
</a>
</g>
</g>
<!-- Node5&#45;&gt;Node24 -->
<g id="edge33_Node000005_Node000024" class="edge">
<title>Node5&#45;&gt;Node24</title>
<g id="a_edge33_Node000005_Node000024"><a xlink:title=" ">
<path fill="none" stroke="#63b8ff" d="M855.7,-144.93C872.42,-135.53 898.23,-121.01 919.77,-108.89"/>
<polygon fill="#63b8ff" stroke="#63b8ff" points="921.31,-112.04 928.31,-104.09 917.88,-105.94 921.31,-112.04"/>
</a>
</g>
</g>
<!-- Node26 -->
<g id="Node000026" class="node">
<title>Node26</title>
<g id="a_Node000026"><a xlink:title=" ">
<polygon fill="#e0e0e0" stroke="#999999" points="1126.88,-103 1027.62,-103 1027.62,-69.5 1126.88,-69.5 1126.88,-103"/>
<text text-anchor="start" x="1035.62" y="-89.5" font-family="Helvetica,sans-Serif" font-size="10.00">mlir/Dialect/Arith</text>
<text text-anchor="middle" x="1077.25" y="-76.75" font-family="Helvetica,sans-Serif" font-size="10.00">/IR/Arith.h</text>
</a>
</g>
</g>
<!-- Node5&#45;&gt;Node26 -->
<g id="edge36_Node000005_Node000026" class="edge">
<title>Node5&#45;&gt;Node26</title>
<g id="a_edge36_Node000005_Node000026"><a xlink:title=" ">
<path fill="none" stroke="#63b8ff" d="M873,-144.93C910.56,-134.33 971.12,-117.22 1016.57,-104.39"/>
<polygon fill="#63b8ff" stroke="#63b8ff" points="1017.35,-107.8 1026.02,-101.72 1015.45,-101.07 1017.35,-107.8"/>
</a>
</g>
</g>
<!-- Node27 -->
<g id="Node000027" class="node">
<title>Node27</title>
<g id="a_Node000027"><a xlink:title=" ">
<polygon fill="#e0e0e0" stroke="#999999" points="1252,-103 1144.5,-103 1144.5,-69.5 1252,-69.5 1252,-103"/>
<text text-anchor="start" x="1152.5" y="-89.5" font-family="Helvetica,sans-Serif" font-size="10.00">mlir/Dialect/SCF/IR</text>
<text text-anchor="middle" x="1198.25" y="-76.75" font-family="Helvetica,sans-Serif" font-size="10.00">/SCF.h</text>
</a>
</g>
</g>
<!-- Node5&#45;&gt;Node27 -->
<g id="edge37_Node000005_Node000027" class="edge">
<title>Node5&#45;&gt;Node27</title>
<g id="a_edge37_Node000005_Node000027"><a xlink:title=" ">
<path fill="none" stroke="#63b8ff" d="M877.82,-144.92C886.81,-142.83 896.34,-140.74 905.25,-139 1003.65,-119.8 1032.44,-123.51 1132.94,-103.57"/>
<polygon fill="#63b8ff" stroke="#63b8ff" points="1133.62,-107 1142.73,-101.59 1132.24,-100.14 1133.62,-107"/>
</a>
</g>
</g>
<!-- Node28 -->
<g id="Node000028" class="node">
<title>Node28</title>
<g id="a_Node000028"><a xlink:title=" ">
<polygon fill="#e0e0e0" stroke="#999999" points="1364.25,-96.62 1270.25,-96.62 1270.25,-75.88 1364.25,-75.88 1364.25,-96.62"/>
<text text-anchor="middle" x="1317.25" y="-83.12" font-family="Helvetica,sans-Serif" font-size="10.00">mlir/Pass/Pass.h</text>
</a>
</g>
</g>
<!-- Node5&#45;&gt;Node28 -->
<g id="edge38_Node000005_Node000028" class="edge">
<title>Node5&#45;&gt;Node28</title>
<g id="a_edge38_Node000005_Node000028"><a xlink:title=" ">
<path fill="none" stroke="#63b8ff" d="M876.34,-144.89C885.74,-142.71 895.82,-140.58 905.25,-139 1062.1,-112.75 1105.01,-132.64 1261.25,-103 1265.83,-102.13 1270.57,-101.07 1275.28,-99.9"/>
<polygon fill="#63b8ff" stroke="#63b8ff" points="1275.84,-103.37 1284.62,-97.43 1274.06,-96.6 1275.84,-103.37"/>
</a>
</g>
</g>
<!-- Node6&#45;&gt;Node3 -->
<g id="edge6_Node000006_Node000003" class="edge">
<title>Node6&#45;&gt;Node3</title>
<g id="a_edge6_Node000006_Node000003"><a xlink:title=" ">
<path fill="none" stroke="#63b8ff" d="M1381.85,-71.14C1378.95,-70.54 1376.07,-69.98 1373.25,-69.5 1168.48,-34.56 1112.35,-66.43 907.25,-33.5 901.54,-32.58 895.58,-31.41 889.7,-30.13"/>
<polygon fill="#63b8ff" stroke="#63b8ff" points="890.59,-26.74 880.06,-27.89 889.01,-33.56 890.59,-26.74"/>
</a>
</g>
</g>
<!-- Node7 -->
<g id="Node000007" class="node">
<title>Node7</title>
<g id="a_Node000007"><a xlink:href="Array_2IR_2Dialect_8h_8inc.html" target="_top" xlink:title=" ">
<polygon fill="white" stroke="#666666" points="1482.25,-33.5 1382.25,-33.5 1382.25,0 1482.25,0 1482.25,-33.5"/>
<text text-anchor="start" x="1390.25" y="-20" font-family="Helvetica,sans-Serif" font-size="10.00">llzk/Dialect/Array</text>
<text text-anchor="middle" x="1432.25" y="-7.25" font-family="Helvetica,sans-Serif" font-size="10.00">/IR/Dialect.h.inc</text>
</a>
</g>
</g>
<!-- Node6&#45;&gt;Node7 -->
<g id="edge7_Node000006_Node000007" class="edge">
<title>Node6&#45;&gt;Node7</title>
<g id="a_edge7_Node000006_Node000007"><a xlink:title=" ">
<path fill="none" stroke="#63b8ff" d="M1432.25,-69.25C1432.25,-62.02 1432.25,-53.28 1432.25,-45.06"/>
<polygon fill="#63b8ff" stroke="#63b8ff" points="1435.75,-45.15 1432.25,-35.15 1428.75,-45.15 1435.75,-45.15"/>
</a>
</g>
</g>
<!-- Node8&#45;&gt;Node3 -->
<g id="edge9_Node000008_Node000003" class="edge">
<title>Node8&#45;&gt;Node3</title>
<g id="a_edge9_Node000008_Node000003"><a xlink:title=" ">
<path fill="none" stroke="#63b8ff" d="M1499.74,-70.97C1496.88,-70.43 1494.04,-69.93 1491.25,-69.5 1234.25,-29.8 1164.32,-72.73 907.25,-33.5 901.31,-32.59 895.12,-31.4 889.02,-30.07"/>
<polygon fill="#63b8ff" stroke="#63b8ff" points="890.24,-26.76 879.71,-27.9 888.66,-33.57 890.24,-26.76"/>
</a>
</g>
</g>
<!-- Node9 -->
<g id="Node000009" class="node">
<title>Node9</title>
<g id="a_Node000009"><a xlink:href="Bool_2IR_2Dialect_8h_8inc.html" target="_top" xlink:title=" ">
<polygon fill="white" stroke="#666666" points="1608.38,-33.5 1500.12,-33.5 1500.12,0 1608.38,0 1608.38,-33.5"/>
<text text-anchor="start" x="1508.12" y="-20" font-family="Helvetica,sans-Serif" font-size="10.00">llzk/Dialect/Bool/IR</text>
<text text-anchor="middle" x="1554.25" y="-7.25" font-family="Helvetica,sans-Serif" font-size="10.00">/Dialect.h.inc</text>
</a>
</g>
</g>
<!-- Node8&#45;&gt;Node9 -->
<g id="edge10_Node000008_Node000009" class="edge">
<title>Node8&#45;&gt;Node9</title>
<g id="a_edge10_Node000008_Node000009"><a xlink:title=" ">
<path fill="none" stroke="#63b8ff" d="M1554.25,-69.25C1554.25,-62.02 1554.25,-53.28 1554.25,-45.06"/>
<polygon fill="#63b8ff" stroke="#63b8ff" points="1557.75,-45.15 1554.25,-35.15 1550.75,-45.15 1557.75,-45.15"/>
</a>
</g>
</g>
<!-- Node10&#45;&gt;Node3 -->
<g id="edge12_Node000010_Node000003" class="edge">
<title>Node10&#45;&gt;Node3</title>
<g id="a_edge12_Node000010_Node000003"><a xlink:title=" ">
<path fill="none" stroke="#63b8ff" d="M1625.78,-70.82C1622.9,-70.33 1620.05,-69.89 1617.25,-69.5 1304.27,-26.18 1219.85,-79.46 907.25,-33.5 901.24,-32.62 894.96,-31.42 888.79,-30.08"/>
<polygon fill="#63b8ff" stroke="#63b8ff" points="889.89,-26.74 879.36,-27.89 888.31,-33.56 889.89,-26.74"/>
</a>
</g>
</g>
<!-- Node11 -->
<g id="Node000011" class="node">
<title>Node11</title>
<g id="a_Node000011"><a xlink:href="Constrain_2IR_2Dialect_8h_8inc.html" target="_top" xlink:title=" ">
<polygon fill="white" stroke="#666666" points="1746.38,-33.5 1626.12,-33.5 1626.12,0 1746.38,0 1746.38,-33.5"/>
<text text-anchor="start" x="1634.12" y="-20" font-family="Helvetica,sans-Serif" font-size="10.00">llzk/Dialect/Constrain</text>
<text text-anchor="middle" x="1686.25" y="-7.25" font-family="Helvetica,sans-Serif" font-size="10.00">/IR/Dialect.h.inc</text>
</a>
</g>
</g>
<!-- Node10&#45;&gt;Node11 -->
<g id="edge13_Node000010_Node000011" class="edge">
<title>Node10&#45;&gt;Node11</title>
<g id="a_edge13_Node000010_Node000011"><a xlink:title=" ">
<path fill="none" stroke="#63b8ff" d="M1686.25,-69.25C1686.25,-62.02 1686.25,-53.28 1686.25,-45.06"/>
<polygon fill="#63b8ff" stroke="#63b8ff" points="1689.75,-45.15 1686.25,-35.15 1682.75,-45.15 1689.75,-45.15"/>
</a>
</g>
</g>
<!-- Node12&#45;&gt;Node3 -->
<g id="edge15_Node000012_Node000003" class="edge">
<title>Node12&#45;&gt;Node3</title>
<g id="a_edge15_Node000012_Node000003"><a xlink:title=" ">
<path fill="none" stroke="#63b8ff" d="M257.88,-71.2C261.04,-70.57 264.18,-69.99 267.25,-69.5 492.03,-33.33 553.27,-68.43 778.25,-33.5 784.2,-32.58 790.41,-31.38 796.53,-30.06"/>
<polygon fill="#63b8ff" stroke="#63b8ff" points="796.92,-33.56 805.89,-27.92 795.36,-26.74 796.92,-33.56"/>
</a>
</g>
</g>
<!-- Node13 -->
<g id="Node000013" class="node">
<title>Node13</title>
<g id="a_Node000013"><a xlink:href="Felt_2IR_2Dialect_8h_8inc.html" target="_top" xlink:title=" ">
<polygon fill="white" stroke="#666666" points="257.5,-33.5 153,-33.5 153,0 257.5,0 257.5,-33.5"/>
<text text-anchor="start" x="161" y="-20" font-family="Helvetica,sans-Serif" font-size="10.00">llzk/Dialect/Felt/IR</text>
<text text-anchor="middle" x="205.25" y="-7.25" font-family="Helvetica,sans-Serif" font-size="10.00">/Dialect.h.inc</text>
</a>
</g>
</g>
<!-- Node12&#45;&gt;Node13 -->
<g id="edge16_Node000012_Node000013" class="edge">
<title>Node12&#45;&gt;Node13</title>
<g id="a_edge16_Node000012_Node000013"><a xlink:title=" ">
<path fill="none" stroke="#63b8ff" d="M205.25,-69.25C205.25,-62.02 205.25,-53.28 205.25,-45.06"/>
<polygon fill="#63b8ff" stroke="#63b8ff" points="208.75,-45.15 205.25,-35.15 201.75,-45.15 208.75,-45.15"/>
</a>
</g>
</g>
<!-- Node14&#45;&gt;Node3 -->
<g id="edge18_Node000014_Node000003" class="edge">
<title>Node14&#45;&gt;Node3</title>
<g id="a_edge18_Node000014_Node000003"><a xlink:title=" ">
<path fill="none" stroke="#63b8ff" d="M391.11,-70.96C393.85,-70.43 396.58,-69.94 399.25,-69.5 566.17,-41.8 611.38,-61.49 778.25,-33.5 783.9,-32.55 789.79,-31.38 795.62,-30.12"/>
<polygon fill="#63b8ff" stroke="#63b8ff" points="796.22,-33.57 805.18,-27.92 794.65,-26.75 796.22,-33.57"/>
</a>
</g>
</g>
<!-- Node15 -->
<g id="Node000015" class="node">
<title>Node15</title>
<g id="a_Node000015"><a xlink:href="Function_2IR_2Dialect_8h_8inc.html" target="_top" xlink:title=" ">
<polygon fill="white" stroke="#666666" points="390.75,-33.5 275.75,-33.5 275.75,0 390.75,0 390.75,-33.5"/>
<text text-anchor="start" x="283.75" y="-20" font-family="Helvetica,sans-Serif" font-size="10.00">llzk/Dialect/Function</text>
<text text-anchor="middle" x="333.25" y="-7.25" font-family="Helvetica,sans-Serif" font-size="10.00">/IR/Dialect.h.inc</text>
</a>
</g>
</g>
<!-- Node14&#45;&gt;Node15 -->
<g id="edge19_Node000014_Node000015" class="edge">
<title>Node14&#45;&gt;Node15</title>
<g id="a_edge19_Node000014_Node000015"><a xlink:title=" ">
<path fill="none" stroke="#63b8ff" d="M333.25,-69.25C333.25,-62.02 333.25,-53.28 333.25,-45.06"/>
<polygon fill="#63b8ff" stroke="#63b8ff" points="336.75,-45.15 333.25,-35.15 329.75,-45.15 336.75,-45.15"/>
</a>
</g>
</g>
<!-- Node16&#45;&gt;Node3 -->
<g id="edge21_Node000016_Node000003" class="edge">
<title>Node16&#45;&gt;Node3</title>
<g id="a_edge21_Node000016_Node000003"><a xlink:title=" ">
<path fill="none" stroke="#63b8ff" d="M514.26,-71.38C517.3,-70.71 520.31,-70.08 523.25,-69.5 635.55,-47.38 665.83,-55 778.25,-33.5 783.46,-32.5 788.89,-31.36 794.28,-30.15"/>
<polygon fill="#63b8ff" stroke="#63b8ff" points="794.81,-33.63 803.76,-27.96 793.23,-26.81 794.81,-33.63"/>
</a>
</g>
</g>
<!-- Node17 -->
<g id="Node000017" class="node">
<title>Node17</title>
<g id="a_Node000017"><a xlink:href="Global_2IR_2Dialect_8h_8inc.html" target="_top" xlink:title=" ">
<polygon fill="white" stroke="#666666" points="513.88,-33.5 408.62,-33.5 408.62,0 513.88,0 513.88,-33.5"/>
<text text-anchor="start" x="416.62" y="-20" font-family="Helvetica,sans-Serif" font-size="10.00">llzk/Dialect/Global</text>
<text text-anchor="middle" x="461.25" y="-7.25" font-family="Helvetica,sans-Serif" font-size="10.00">/IR/Dialect.h.inc</text>
</a>
</g>
</g>
<!-- Node16&#45;&gt;Node17 -->
<g id="edge22_Node000016_Node000017" class="edge">
<title>Node16&#45;&gt;Node17</title>
<g id="a_edge22_Node000016_Node000017"><a xlink:title=" ">
<path fill="none" stroke="#63b8ff" d="M461.25,-69.25C461.25,-62.02 461.25,-53.28 461.25,-45.06"/>
<polygon fill="#63b8ff" stroke="#63b8ff" points="464.75,-45.15 461.25,-35.15 457.75,-45.15 464.75,-45.15"/>
</a>
</g>
</g>
<!-- Node18&#45;&gt;Node3 -->
<g id="edge24_Node000018_Node000003" class="edge">
<title>Node18&#45;&gt;Node3</title>
<g id="a_edge24_Node000018_Node000003"><a xlink:title=" ">
<path fill="none" stroke="#63b8ff" d="M641.07,-70.85C686.77,-58.85 751.25,-41.91 795.02,-30.42"/>
<polygon fill="#63b8ff" stroke="#63b8ff" points="795.7,-33.86 804.48,-27.93 793.92,-27.09 795.7,-33.86"/>
</a>
</g>
</g>
<!-- Node19 -->
<g id="Node000019" class="node">
<title>Node19</title>
<g id="a_Node000019"><a xlink:href="Include_2IR_2Dialect_8h_8inc.html" target="_top" xlink:title=" ">
<polygon fill="white" stroke="#666666" points="640.75,-33.5 531.75,-33.5 531.75,0 640.75,0 640.75,-33.5"/>
<text text-anchor="start" x="539.75" y="-20" font-family="Helvetica,sans-Serif" font-size="10.00">llzk/Dialect/Include</text>
<text text-anchor="middle" x="586.25" y="-7.25" font-family="Helvetica,sans-Serif" font-size="10.00">/IR/Dialect.h.inc</text>
</a>
</g>
</g>
<!-- Node18&#45;&gt;Node19 -->
<g id="edge25_Node000018_Node000019" class="edge">
<title>Node18&#45;&gt;Node19</title>
<g id="a_edge25_Node000018_Node000019"><a xlink:title=" ">
<path fill="none" stroke="#63b8ff" d="M586.25,-69.25C586.25,-62.02 586.25,-53.28 586.25,-45.06"/>
<polygon fill="#63b8ff" stroke="#63b8ff" points="589.75,-45.15 586.25,-35.15 582.75,-45.15 589.75,-45.15"/>
</a>
</g>
</g>
<!-- Node20&#45;&gt;Node3 -->
<g id="edge27_Node000020_Node000003" class="edge">
<title>Node20&#45;&gt;Node3</title>
<g id="a_edge27_Node000020_Node000003"><a xlink:title=" ">
<path fill="none" stroke="#63b8ff" d="M745.15,-69.08C766.22,-58.06 793.93,-43.55 814.53,-32.78"/>
<polygon fill="#63b8ff" stroke="#63b8ff" points="816,-35.96 823.24,-28.22 812.75,-29.76 816,-35.96"/>
</a>
</g>
</g>
<!-- Node21 -->
<g id="Node000021" class="node">
<title>Node21</title>
<g id="a_Node000021"><a xlink:href="LLZK_2IR_2Dialect_8h_8inc.html" target="_top" xlink:title=" ">
<polygon fill="white" stroke="#666666" points="769.5,-33.5 659,-33.5 659,0 769.5,0 769.5,-33.5"/>
<text text-anchor="start" x="667" y="-20" font-family="Helvetica,sans-Serif" font-size="10.00">llzk/Dialect/LLZK/IR</text>
<text text-anchor="middle" x="714.25" y="-7.25" font-family="Helvetica,sans-Serif" font-size="10.00">/Dialect.h.inc</text>
</a>
</g>
</g>
<!-- Node20&#45;&gt;Node21 -->
<g id="edge28_Node000020_Node000021" class="edge">
<title>Node20&#45;&gt;Node21</title>
<g id="a_edge28_Node000020_Node000021"><a xlink:title=" ">
<path fill="none" stroke="#63b8ff" d="M714.25,-69.25C714.25,-62.02 714.25,-53.28 714.25,-45.06"/>
<polygon fill="#63b8ff" stroke="#63b8ff" points="717.75,-45.15 714.25,-35.15 710.75,-45.15 717.75,-45.15"/>
</a>
</g>
</g>
<!-- Node22&#45;&gt;Node3 -->
<g id="edge31_Node000022_Node000003" class="edge">
<title>Node22&#45;&gt;Node3</title>
<g id="a_edge31_Node000022_Node000003"><a xlink:title=" ">
<path fill="none" stroke="#63b8ff" d="M839.43,-69.25C840.11,-60.15 840.96,-48.64 841.69,-38.82"/>
<polygon fill="#63b8ff" stroke="#63b8ff" points="845.16,-39.31 842.41,-29.08 838.18,-38.8 845.16,-39.31"/>
</a>
</g>
</g>
<!-- Node23 -->
<g id="Node000023" class="node">
<title>Node23</title>
<g id="a_Node000023"><a xlink:href="String_2IR_2Dialect_8h_8inc.html" target="_top" xlink:title=" ">
<polygon fill="white" stroke="#666666" points="1018.38,-33.5 916.12,-33.5 916.12,0 1018.38,0 1018.38,-33.5"/>
<text text-anchor="start" x="924.12" y="-20" font-family="Helvetica,sans-Serif" font-size="10.00">llzk/Dialect/String</text>
<text text-anchor="middle" x="967.25" y="-7.25" font-family="Helvetica,sans-Serif" font-size="10.00">/IR/Dialect.h.inc</text>
</a>
</g>
</g>
<!-- Node22&#45;&gt;Node23 -->
<g id="edge32_Node000022_Node000023" class="edge">
<title>Node22&#45;&gt;Node23</title>
<g id="a_edge32_Node000022_Node000023"><a xlink:title=" ">
<path fill="none" stroke="#63b8ff" d="M869.15,-69.08C886.38,-60.07 908.05,-48.73 926.64,-39"/>
<polygon fill="#63b8ff" stroke="#63b8ff" points="928.02,-42.23 935.26,-34.49 924.78,-36.02 928.02,-42.23"/>
</a>
</g>
</g>
<!-- Node24&#45;&gt;Node3 -->
<g id="edge34_Node000024_Node000003" class="edge">
<title>Node24&#45;&gt;Node3</title>
<g id="a_edge34_Node000024_Node000003"><a xlink:title=" ">
<path fill="none" stroke="#63b8ff" d="M930.7,-69.08C912.18,-58.21 887.89,-43.95 869.62,-33.23"/>
<polygon fill="#63b8ff" stroke="#63b8ff" points="871.6,-30.33 861.2,-28.29 868.05,-36.37 871.6,-30.33"/>
</a>
</g>
</g>
<!-- Node25 -->
<g id="Node000025" class="node">
<title>Node25</title>
<g id="a_Node000025"><a xlink:href="Struct_2IR_2Dialect_8h_8inc.html" target="_top" xlink:title=" ">
<polygon fill="white" stroke="#666666" points="1138.38,-33.5 1036.12,-33.5 1036.12,0 1138.38,0 1138.38,-33.5"/>
<text text-anchor="start" x="1044.12" y="-20" font-family="Helvetica,sans-Serif" font-size="10.00">llzk/Dialect/Struct</text>
<text text-anchor="middle" x="1087.25" y="-7.25" font-family="Helvetica,sans-Serif" font-size="10.00">/IR/Dialect.h.inc</text>
</a>
</g>
</g>
<!-- Node24&#45;&gt;Node25 -->
<g id="edge35_Node000024_Node000025" class="edge">
<title>Node24&#45;&gt;Node25</title>
<g id="a_edge35_Node000024_Node000025"><a xlink:title=" ">
<path fill="none" stroke="#63b8ff" d="M989.15,-69.08C1006.38,-60.07 1028.05,-48.73 1046.64,-39"/>
<polygon fill="#63b8ff" stroke="#63b8ff" points="1048.02,-42.23 1055.26,-34.49 1044.78,-36.02 1048.02,-42.23"/>
</a>
</g>
</g>
</g>
</svg>
