<?xml version="1.0" encoding="UTF-8" standalone="no"?>
<!DOCTYPE svg PUBLIC "-//W3C//DTD SVG 1.1//EN"
 "http://www.w3.org/Graphics/SVG/1.1/DTD/svg11.dtd">
<!-- Generated by graphviz version 12.2.1 (0)
 -->
<!-- Title: lib/Dialect/Include/Transforms/InlineIncludesPass.cpp Pages: 1 -->
<svg width="2714pt" height="332pt"
 viewBox="0.00 0.00 2713.88 332.25" xmlns="http://www.w3.org/2000/svg" xmlns:xlink="http://www.w3.org/1999/xlink">
<g id="graph0" class="graph" transform="scale(1 1) rotate(0) translate(4 328.25)">
<title>lib/Dialect/Include/Transforms/InlineIncludesPass.cpp</title>
<!-- Node1 -->
<g id="Node000001" class="node">
<title>Node1</title>
<g id="a_Node000001"><a xlink:title="This file implements the &#45;llzk&#45;inline&#45;includes pass.">
<polygon fill="#999999" stroke="#666666" points="1470,-324.25 1326.5,-324.25 1326.5,-278 1470,-278 1470,-324.25"/>
<text text-anchor="start" x="1334.5" y="-310.75" font-family="Helvetica,sans-Serif" font-size="10.00">lib/Dialect/Include</text>
<text text-anchor="start" x="1334.5" y="-298" font-family="Helvetica,sans-Serif" font-size="10.00">/Transforms/InlineIncludes</text>
<text text-anchor="middle" x="1398.25" y="-285.25" font-family="Helvetica,sans-Serif" font-size="10.00">Pass.cpp</text>
</a>
</g>
</g>
<!-- Node2 -->
<g id="Node000002" class="node">
<title>Node2</title>
<g id="a_Node000002"><a xlink:href="InlineIncludesPass_8h.html" target="_top" xlink:title=" ">
<polygon fill="white" stroke="#666666" points="977.38,-242 803.12,-242 803.12,-208.5 977.38,-208.5 977.38,-242"/>
<text text-anchor="start" x="811.12" y="-228.5" font-family="Helvetica,sans-Serif" font-size="10.00">llzk/Dialect/Include</text>
<text text-anchor="middle" x="890.25" y="-215.75" font-family="Helvetica,sans-Serif" font-size="10.00">/Transforms/InlineIncludesPass.h</text>
</a>
</g>
</g>
<!-- Node1&#45;&gt;Node2 -->
<g id="edge1_Node000001_Node000002" class="edge">
<title>Node1&#45;&gt;Node2</title>
<g id="a_edge1_Node000001_Node000002"><a xlink:title=" ">
<path fill="none" stroke="#63b8ff" d="M1326.01,-289.62C1237.65,-276.77 1087.66,-254.96 988.77,-240.58"/>
<polygon fill="#63b8ff" stroke="#63b8ff" points="989.47,-237.14 979.07,-239.17 988.46,-244.07 989.47,-237.14"/>
</a>
</g>
</g>
<!-- Node4 -->
<g id="Node000004" class="node">
<title>Node4</title>
<g id="a_Node000004"><a xlink:title=" ">
<polygon fill="#e0e0e0" stroke="#999999" points="1159.5,-27.12 1049,-27.12 1049,-6.38 1159.5,-6.38 1159.5,-27.12"/>
<text text-anchor="middle" x="1104.25" y="-13.62" font-family="Helvetica,sans-Serif" font-size="10.00">mlir/IR/BuiltinOps.h</text>
</a>
</g>
</g>
<!-- Node1&#45;&gt;Node4 -->
<g id="edge52_Node000001_Node000004" class="edge">
<title>Node1&#45;&gt;Node4</title>
<g id="a_edge52_Node000001_Node000004"><a xlink:title=" ">
<path fill="none" stroke="#63b8ff" d="M1368.32,-277.65C1322.85,-242.8 1234.73,-172.48 1169.25,-103 1149.3,-81.83 1129.48,-54.72 1117.06,-36.83"/>
<polygon fill="#63b8ff" stroke="#63b8ff" points="1120.05,-35 1111.52,-28.72 1114.28,-38.95 1120.05,-35"/>
</a>
</g>
</g>
<!-- Node30 -->
<g id="Node000030" class="node">
<title>Node30</title>
<g id="a_Node000030"><a xlink:href="InlineIncludesPass_8h_8inc.html" target="_top" xlink:title=" ">
<polygon fill="white" stroke="#666666" points="1122,-172.5 930.5,-172.5 930.5,-139 1122,-139 1122,-172.5"/>
<text text-anchor="start" x="938.5" y="-159" font-family="Helvetica,sans-Serif" font-size="10.00">llzk/Dialect/Include</text>
<text text-anchor="middle" x="1026.25" y="-146.25" font-family="Helvetica,sans-Serif" font-size="10.00">/Transforms/InlineIncludesPass.h.inc</text>
</a>
</g>
</g>
<!-- Node1&#45;&gt;Node30 -->
<g id="edge54_Node000001_Node000030" class="edge">
<title>Node1&#45;&gt;Node30</title>
<g id="a_edge54_Node000001_Node000030"><a xlink:title=" ">
<path fill="none" stroke="#63b8ff" d="M1326.28,-292.81C1272.03,-285.28 1196.88,-270.46 1136.25,-242 1103.52,-226.64 1071.48,-200.11 1050.49,-180.72"/>
<polygon fill="#63b8ff" stroke="#63b8ff" points="1052.98,-178.26 1043.31,-173.94 1048.18,-183.35 1052.98,-178.26"/>
</a>
</g>
</g>
<!-- Node31 -->
<g id="Node000031" class="node">
<title>Node31</title>
<g id="a_Node000031"><a xlink:href="Include_2IR_2Ops_8h.html" target="_top" xlink:title=" ">
<polygon fill="white" stroke="#666666" points="1515.75,-242 1406.75,-242 1406.75,-208.5 1515.75,-208.5 1515.75,-242"/>
<text text-anchor="start" x="1414.75" y="-228.5" font-family="Helvetica,sans-Serif" font-size="10.00">llzk/Dialect/Include</text>
<text text-anchor="middle" x="1461.25" y="-215.75" font-family="Helvetica,sans-Serif" font-size="10.00">/IR/Ops.h</text>
</a>
</g>
</g>
<!-- Node1&#45;&gt;Node31 -->
<g id="edge41_Node000001_Node000031" class="edge">
<title>Node1&#45;&gt;Node31</title>
<g id="a_edge41_Node000001_Node000031"><a xlink:title=" ">
<path fill="none" stroke="#63b8ff" d="M1417.49,-277.56C1424.69,-269.12 1432.9,-259.49 1440.25,-250.88"/>
<polygon fill="#63b8ff" stroke="#63b8ff" points="1442.71,-253.39 1446.53,-243.51 1437.38,-248.84 1442.71,-253.39"/>
</a>
</g>
</g>
<!-- Node33 -->
<g id="Node000033" class="node">
<title>Node33</title>
<g id="a_Node000033"><a xlink:href="IncludeHelper_8h.html" target="_top" xlink:title=" ">
<polygon fill="white" stroke="#666666" points="2098.75,-242 1983.75,-242 1983.75,-208.5 2098.75,-208.5 2098.75,-242"/>
<text text-anchor="start" x="1991.75" y="-228.5" font-family="Helvetica,sans-Serif" font-size="10.00">llzk/Dialect/Include</text>
<text text-anchor="middle" x="2041.25" y="-215.75" font-family="Helvetica,sans-Serif" font-size="10.00">/Util/IncludeHelper.h</text>
</a>
</g>
</g>
<!-- Node1&#45;&gt;Node33 -->
<g id="edge44_Node000001_Node000033" class="edge">
<title>Node1&#45;&gt;Node33</title>
<g id="a_edge44_Node000001_Node000033"><a xlink:title=" ">
<path fill="none" stroke="#63b8ff" d="M1470.45,-291.83C1595.32,-277.48 1849.98,-248.23 1972.45,-234.15"/>
<polygon fill="#63b8ff" stroke="#63b8ff" points="1972.49,-237.67 1982.02,-233.05 1971.69,-230.72 1972.49,-237.67"/>
</a>
</g>
</g>
<!-- Node40 -->
<g id="Node000040" class="node">
<title>Node40</title>
<g id="a_Node000040"><a xlink:title=" ">
<polygon fill="#e0e0e0" stroke="#999999" points="2272,-235.62 2116.5,-235.62 2116.5,-214.88 2272,-214.88 2272,-235.62"/>
<text text-anchor="middle" x="2194.25" y="-222.12" font-family="Helvetica,sans-Serif" font-size="10.00">llvm/Support/LogicalResult.h</text>
</a>
</g>
</g>
<!-- Node1&#45;&gt;Node40 -->
<g id="edge53_Node000001_Node000040" class="edge">
<title>Node1&#45;&gt;Node40</title>
<g id="a_edge53_Node000001_Node000040"><a xlink:title=" ">
<path fill="none" stroke="#63b8ff" d="M1470.31,-296.6C1598.86,-289.78 1876.06,-272.69 2108.25,-242 2116.62,-240.89 2125.41,-239.52 2134.05,-238.06"/>
<polygon fill="#63b8ff" stroke="#63b8ff" points="2134.53,-241.53 2143.78,-236.35 2133.32,-234.63 2134.53,-241.53"/>
</a>
</g>
</g>
<!-- Node3 -->
<g id="Node000003" class="node">
<title>Node3</title>
<g id="a_Node000003"><a xlink:href="Polymorphic_2IR_2Dialect_8h.html" target="_top" xlink:title=" ">
<polygon fill="white" stroke="#666666" points="134.5,-103 0,-103 0,-69.5 134.5,-69.5 134.5,-103"/>
<text text-anchor="start" x="8" y="-89.5" font-family="Helvetica,sans-Serif" font-size="10.00">llzk/Dialect/Polymorphic</text>
<text text-anchor="middle" x="67.25" y="-76.75" font-family="Helvetica,sans-Serif" font-size="10.00">/IR/Dialect.h</text>
</a>
</g>
</g>
<!-- Node2&#45;&gt;Node3 -->
<g id="edge2_Node000002_Node000003" class="edge">
<title>Node2&#45;&gt;Node3</title>
<g id="a_edge2_Node000002_Node000003"><a xlink:title=" ">
<path fill="none" stroke="#63b8ff" d="M802.77,-211.21C665.32,-190.46 390.21,-147.88 146.06,-103.29"/>
<polygon fill="#63b8ff" stroke="#63b8ff" points="146.78,-99.87 136.31,-101.51 145.52,-106.75 146.78,-99.87"/>
</a>
</g>
</g>
<!-- Node6 -->
<g id="Node000006" class="node">
<title>Node6</title>
<g id="a_Node000006"><a xlink:href="PassBase_8h.html" target="_top" xlink:title=" ">
<polygon fill="white" stroke="#666666" points="912.12,-166.12 796.38,-166.12 796.38,-145.38 912.12,-145.38 912.12,-166.12"/>
<text text-anchor="middle" x="854.25" y="-152.62" font-family="Helvetica,sans-Serif" font-size="10.00">llzk/Pass/PassBase.h</text>
</a>
</g>
</g>
<!-- Node2&#45;&gt;Node6 -->
<g id="edge5_Node000002_Node000006" class="edge">
<title>Node2&#45;&gt;Node6</title>
<g id="a_edge5_Node000002_Node000006"><a xlink:title=" ">
<path fill="none" stroke="#63b8ff" d="M881.72,-208.25C876.65,-198.75 870.18,-186.62 864.79,-176.52"/>
<polygon fill="#63b8ff" stroke="#63b8ff" points="867.99,-175.08 860.2,-167.91 861.82,-178.38 867.99,-175.08"/>
</a>
</g>
</g>
<!-- Node2&#45;&gt;Node30 -->
<g id="edge40_Node000002_Node000030" class="edge">
<title>Node2&#45;&gt;Node30</title>
<g id="a_edge40_Node000002_Node000030"><a xlink:title=" ">
<path fill="none" stroke="#63b8ff" d="M922.83,-208.08C941.08,-199.02 964.05,-187.62 983.71,-177.86"/>
<polygon fill="#63b8ff" stroke="#63b8ff" points="985.18,-181.04 992.58,-173.46 982.07,-174.77 985.18,-181.04"/>
</a>
</g>
</g>
<!-- Node3&#45;&gt;Node4 -->
<g id="edge3_Node000003_Node000004" class="edge">
<title>Node3&#45;&gt;Node4</title>
<g id="a_edge3_Node000003_Node000004"><a xlink:title=" ">
<path fill="none" stroke="#63b8ff" d="M134.75,-70.8C137.96,-70.32 141.13,-69.88 144.25,-69.5 539.88,-21.41 645.65,-89.4 1040.25,-33.5 1046.27,-32.65 1052.55,-31.47 1058.71,-30.14"/>
<polygon fill="#63b8ff" stroke="#63b8ff" points="1059.19,-33.62 1068.15,-27.96 1057.62,-26.8 1059.19,-33.62"/>
</a>
</g>
</g>
<!-- Node5 -->
<g id="Node000005" class="node">
<title>Node5</title>
<g id="a_Node000005"><a xlink:href="Polymorphic_2IR_2Dialect_8h_8inc.html" target="_top" xlink:title=" ">
<polygon fill="white" stroke="#666666" points="134.5,-33.5 0,-33.5 0,0 134.5,0 134.5,-33.5"/>
<text text-anchor="start" x="8" y="-20" font-family="Helvetica,sans-Serif" font-size="10.00">llzk/Dialect/Polymorphic</text>
<text text-anchor="middle" x="67.25" y="-7.25" font-family="Helvetica,sans-Serif" font-size="10.00">/IR/Dialect.h.inc</text>
</a>
</g>
</g>
<!-- Node3&#45;&gt;Node5 -->
<g id="edge4_Node000003_Node000005" class="edge">
<title>Node3&#45;&gt;Node5</title>
<g id="a_edge4_Node000003_Node000005"><a xlink:title=" ">
<path fill="none" stroke="#63b8ff" d="M67.25,-69.25C67.25,-62.02 67.25,-53.28 67.25,-45.06"/>
<polygon fill="#63b8ff" stroke="#63b8ff" points="70.75,-45.15 67.25,-35.15 63.75,-45.15 70.75,-45.15"/>
</a>
</g>
</g>
<!-- Node6&#45;&gt;Node3 -->
<g id="edge30_Node000006_Node000003" class="edge">
<title>Node6&#45;&gt;Node3</title>
<g id="a_edge30_Node000006_Node000003"><a xlink:title=" ">
<path fill="none" stroke="#63b8ff" d="M796,-153.05C676.23,-149 393.55,-136.61 146.15,-103.13"/>
<polygon fill="#63b8ff" stroke="#63b8ff" points="146.65,-99.67 136.27,-101.78 145.7,-106.6 146.65,-99.67"/>
</a>
</g>
</g>
<!-- Node7 -->
<g id="Node000007" class="node">
<title>Node7</title>
<g id="a_Node000007"><a xlink:href="Array_2IR_2Dialect_8h.html" target="_top" xlink:title=" ">
<polygon fill="white" stroke="#666666" points="1657.25,-103 1557.25,-103 1557.25,-69.5 1657.25,-69.5 1657.25,-103"/>
<text text-anchor="start" x="1565.25" y="-89.5" font-family="Helvetica,sans-Serif" font-size="10.00">llzk/Dialect/Array</text>
<text text-anchor="middle" x="1607.25" y="-76.75" font-family="Helvetica,sans-Serif" font-size="10.00">/IR/Dialect.h</text>
</a>
</g>
</g>
<!-- Node6&#45;&gt;Node7 -->
<g id="edge6_Node000006_Node000007" class="edge">
<title>Node6&#45;&gt;Node7</title>
<g id="a_edge6_Node000006_Node000007"><a xlink:title=" ">
<path fill="none" stroke="#63b8ff" d="M890.89,-144.93C900.69,-142.63 911.32,-140.44 921.25,-139 1193.84,-99.44 1270.63,-145.97 1545.73,-103.19"/>
<polygon fill="#63b8ff" stroke="#63b8ff" points="1546.04,-106.68 1555.37,-101.66 1544.95,-99.77 1546.04,-106.68"/>
</a>
</g>
</g>
<!-- Node9 -->
<g id="Node000009" class="node">
<title>Node9</title>
<g id="a_Node000009"><a xlink:href="Bool_2IR_2Dialect_8h.html" target="_top" xlink:title=" ">
<polygon fill="white" stroke="#666666" points="984.38,-103 876.12,-103 876.12,-69.5 984.38,-69.5 984.38,-103"/>
<text text-anchor="start" x="884.12" y="-89.5" font-family="Helvetica,sans-Serif" font-size="10.00">llzk/Dialect/Bool/IR</text>
<text text-anchor="middle" x="930.25" y="-76.75" font-family="Helvetica,sans-Serif" font-size="10.00">/Dialect.h</text>
</a>
</g>
</g>
<!-- Node6&#45;&gt;Node9 -->
<g id="edge9_Node000006_Node000009" class="edge">
<title>Node6&#45;&gt;Node9</title>
<g id="a_edge9_Node000006_Node000009"><a xlink:title=" ">
<path fill="none" stroke="#63b8ff" d="M865.14,-145.08C875.17,-136.17 890.47,-122.58 903.71,-110.82"/>
<polygon fill="#63b8ff" stroke="#63b8ff" points="905.76,-113.68 910.91,-104.42 901.11,-108.45 905.76,-113.68"/>
</a>
</g>
</g>
<!-- Node11 -->
<g id="Node000011" class="node">
<title>Node11</title>
<g id="a_Node000011"><a xlink:href="Constrain_2IR_2Dialect_8h.html" target="_top" xlink:title=" ">
<polygon fill="white" stroke="#666666" points="1122.38,-103 1002.12,-103 1002.12,-69.5 1122.38,-69.5 1122.38,-103"/>
<text text-anchor="start" x="1010.12" y="-89.5" font-family="Helvetica,sans-Serif" font-size="10.00">llzk/Dialect/Constrain</text>
<text text-anchor="middle" x="1062.25" y="-76.75" font-family="Helvetica,sans-Serif" font-size="10.00">/IR/Dialect.h</text>
</a>
</g>
</g>
<!-- Node6&#45;&gt;Node11 -->
<g id="edge12_Node000006_Node000011" class="edge">
<title>Node6&#45;&gt;Node11</title>
<g id="a_edge12_Node000006_Node000011"><a xlink:title=" ">
<path fill="none" stroke="#63b8ff" d="M884.49,-144.93C915.08,-135.01 963.21,-119.39 1001.67,-106.91"/>
<polygon fill="#63b8ff" stroke="#63b8ff" points="1002.37,-110.36 1010.8,-103.95 1000.21,-103.7 1002.37,-110.36"/>
</a>
</g>
</g>
<!-- Node13 -->
<g id="Node000013" class="node">
<title>Node13</title>
<g id="a_Node000013"><a xlink:href="Felt_2IR_2Dialect_8h.html" target="_top" xlink:title=" ">
<polygon fill="white" stroke="#666666" points="1282.5,-103 1178,-103 1178,-69.5 1282.5,-69.5 1282.5,-103"/>
<text text-anchor="start" x="1186" y="-89.5" font-family="Helvetica,sans-Serif" font-size="10.00">llzk/Dialect/Felt/IR</text>
<text text-anchor="middle" x="1230.25" y="-76.75" font-family="Helvetica,sans-Serif" font-size="10.00">/Dialect.h</text>
</a>
</g>
</g>
<!-- Node6&#45;&gt;Node13 -->
<g id="edge15_Node000006_Node000013" class="edge">
<title>Node6&#45;&gt;Node13</title>
<g id="a_edge15_Node000006_Node000013"><a xlink:title=" ">
<path fill="none" stroke="#63b8ff" d="M894.19,-144.91C903.08,-142.85 912.46,-140.77 921.25,-139 966.96,-129.81 1090.04,-109.72 1166.35,-97.45"/>
<polygon fill="#63b8ff" stroke="#63b8ff" points="1166.91,-100.9 1176.23,-95.86 1165.8,-93.99 1166.91,-100.9"/>
</a>
</g>
</g>
<!-- Node15 -->
<g id="Node000015" class="node">
<title>Node15</title>
<g id="a_Node000015"><a xlink:href="Function_2IR_2Dialect_8h.html" target="_top" xlink:title=" ">
<polygon fill="white" stroke="#666666" points="1415.75,-103 1300.75,-103 1300.75,-69.5 1415.75,-69.5 1415.75,-103"/>
<text text-anchor="start" x="1308.75" y="-89.5" font-family="Helvetica,sans-Serif" font-size="10.00">llzk/Dialect/Function</text>
<text text-anchor="middle" x="1358.25" y="-76.75" font-family="Helvetica,sans-Serif" font-size="10.00">/IR/Dialect.h</text>
</a>
</g>
</g>
<!-- Node6&#45;&gt;Node15 -->
<g id="edge18_Node000006_Node000015" class="edge">
<title>Node6&#45;&gt;Node15</title>
<g id="a_edge18_Node000006_Node000015"><a xlink:title=" ">
<path fill="none" stroke="#63b8ff" d="M891.99,-144.95C901.49,-142.74 911.7,-140.58 921.25,-139 1080.75,-112.61 1126.3,-129.22 1289.67,-103.1"/>
<polygon fill="#63b8ff" stroke="#63b8ff" points="1289.81,-106.63 1299.11,-101.56 1288.68,-99.72 1289.81,-106.63"/>
</a>
</g>
</g>
<!-- Node17 -->
<g id="Node000017" class="node">
<title>Node17</title>
<g id="a_Node000017"><a xlink:href="Global_2IR_2Dialect_8h.html" target="_top" xlink:title=" ">
<polygon fill="white" stroke="#666666" points="1538.88,-103 1433.62,-103 1433.62,-69.5 1538.88,-69.5 1538.88,-103"/>
<text text-anchor="start" x="1441.62" y="-89.5" font-family="Helvetica,sans-Serif" font-size="10.00">llzk/Dialect/Global</text>
<text text-anchor="middle" x="1486.25" y="-76.75" font-family="Helvetica,sans-Serif" font-size="10.00">/IR/Dialect.h</text>
</a>
</g>
</g>
<!-- Node6&#45;&gt;Node17 -->
<g id="edge21_Node000006_Node000017" class="edge">
<title>Node6&#45;&gt;Node17</title>
<g id="a_edge21_Node000006_Node000017"><a xlink:title=" ">
<path fill="none" stroke="#63b8ff" d="M891.26,-144.94C900.96,-142.67 911.45,-140.49 921.25,-139 1139.58,-105.76 1201.57,-138.11 1421.85,-103.38"/>
<polygon fill="#63b8ff" stroke="#63b8ff" points="1422.33,-106.85 1431.65,-101.81 1421.22,-99.94 1422.33,-106.85"/>
</a>
</g>
</g>
<!-- Node19 -->
<g id="Node000019" class="node">
<title>Node19</title>
<g id="a_Node000019"><a xlink:href="Include_2IR_2Dialect_8h.html" target="_top" xlink:title=" ">
<polygon fill="white" stroke="#666666" points="1784.75,-103 1675.75,-103 1675.75,-69.5 1784.75,-69.5 1784.75,-103"/>
<text text-anchor="start" x="1683.75" y="-89.5" font-family="Helvetica,sans-Serif" font-size="10.00">llzk/Dialect/Include</text>
<text text-anchor="middle" x="1730.25" y="-76.75" font-family="Helvetica,sans-Serif" font-size="10.00">/IR/Dialect.h</text>
</a>
</g>
</g>
<!-- Node6&#45;&gt;Node19 -->
<g id="edge24_Node000006_Node000019" class="edge">
<title>Node6&#45;&gt;Node19</title>
<g id="a_edge24_Node000006_Node000019"><a xlink:title=" ">
<path fill="none" stroke="#63b8ff" d="M890.53,-144.95C900.43,-142.62 911.19,-140.41 921.25,-139 1245.84,-93.4 1336.2,-149.54 1664.3,-103.06"/>
<polygon fill="#63b8ff" stroke="#63b8ff" points="1664.68,-106.55 1674.08,-101.66 1663.68,-99.62 1664.68,-106.55"/>
</a>
</g>
</g>
<!-- Node21 -->
<g id="Node000021" class="node">
<title>Node21</title>
<g id="a_Node000021"><a xlink:href="LLZK_2IR_2Dialect_8h.html" target="_top" xlink:title=" ">
<polygon fill="white" stroke="#666666" points="263.5,-103 153,-103 153,-69.5 263.5,-69.5 263.5,-103"/>
<text text-anchor="start" x="161" y="-89.5" font-family="Helvetica,sans-Serif" font-size="10.00">llzk/Dialect/LLZK/IR</text>
<text text-anchor="middle" x="208.25" y="-76.75" font-family="Helvetica,sans-Serif" font-size="10.00">/Dialect.h</text>
</a>
</g>
</g>
<!-- Node6&#45;&gt;Node21 -->
<g id="edge27_Node000006_Node000021" class="edge">
<title>Node6&#45;&gt;Node21</title>
<g id="a_edge27_Node000006_Node000021"><a xlink:title=" ">
<path fill="none" stroke="#63b8ff" d="M796.05,-152.52C692.82,-147.92 470.81,-135.14 275.07,-103.32"/>
<polygon fill="#63b8ff" stroke="#63b8ff" points="275.92,-99.92 265.49,-101.75 274.78,-106.83 275.92,-99.92"/>
</a>
</g>
</g>
<!-- Node23 -->
<g id="Node000023" class="node">
<title>Node23</title>
<g id="a_Node000023"><a xlink:href="String_2IR_2Dialect_8h.html" target="_top" xlink:title=" ">
<polygon fill="white" stroke="#666666" points="383.38,-103 281.12,-103 281.12,-69.5 383.38,-69.5 383.38,-103"/>
<text text-anchor="start" x="289.12" y="-89.5" font-family="Helvetica,sans-Serif" font-size="10.00">llzk/Dialect/String</text>
<text text-anchor="middle" x="332.25" y="-76.75" font-family="Helvetica,sans-Serif" font-size="10.00">/IR/Dialect.h</text>
</a>
</g>
</g>
<!-- Node6&#45;&gt;Node23 -->
<g id="edge31_Node000006_Node000023" class="edge">
<title>Node6&#45;&gt;Node23</title>
<g id="a_edge31_Node000006_Node000023"><a xlink:title=" ">
<path fill="none" stroke="#63b8ff" d="M796.23,-150.97C710.44,-144.78 544.61,-130.54 395.05,-103.37"/>
<polygon fill="#63b8ff" stroke="#63b8ff" points="395.81,-99.95 385.34,-101.58 394.54,-106.83 395.81,-99.95"/>
</a>
</g>
</g>
<!-- Node25 -->
<g id="Node000025" class="node">
<title>Node25</title>
<g id="a_Node000025"><a xlink:href="Struct_2IR_2Dialect_8h.html" target="_top" xlink:title=" ">
<polygon fill="white" stroke="#666666" points="858.38,-103 756.12,-103 756.12,-69.5 858.38,-69.5 858.38,-103"/>
<text text-anchor="start" x="764.12" y="-89.5" font-family="Helvetica,sans-Serif" font-size="10.00">llzk/Dialect/Struct</text>
<text text-anchor="middle" x="807.25" y="-76.75" font-family="Helvetica,sans-Serif" font-size="10.00">/IR/Dialect.h</text>
</a>
</g>
</g>
<!-- Node6&#45;&gt;Node25 -->
<g id="edge34_Node000006_Node000025" class="edge">
<title>Node6&#45;&gt;Node25</title>
<g id="a_edge34_Node000006_Node000025"><a xlink:title=" ">
<path fill="none" stroke="#63b8ff" d="M847.52,-145.08C841.67,-136.68 832.92,-124.12 825.08,-112.85"/>
<polygon fill="#63b8ff" stroke="#63b8ff" points="827.96,-110.87 819.37,-104.66 822.22,-114.87 827.96,-110.87"/>
</a>
</g>
</g>
<!-- Node27 -->
<g id="Node000027" class="node">
<title>Node27</title>
<g id="a_Node000027"><a xlink:title=" ">
<polygon fill="#e0e0e0" stroke="#999999" points="500.88,-103 401.62,-103 401.62,-69.5 500.88,-69.5 500.88,-103"/>
<text text-anchor="start" x="409.62" y="-89.5" font-family="Helvetica,sans-Serif" font-size="10.00">mlir/Dialect/Arith</text>
<text text-anchor="middle" x="451.25" y="-76.75" font-family="Helvetica,sans-Serif" font-size="10.00">/IR/Arith.h</text>
</a>
</g>
</g>
<!-- Node6&#45;&gt;Node27 -->
<g id="edge37_Node000006_Node000027" class="edge">
<title>Node6&#45;&gt;Node27</title>
<g id="a_edge37_Node000006_Node000027"><a xlink:title=" ">
<path fill="none" stroke="#63b8ff" d="M795.89,-148.1C729.34,-140.04 617.12,-125.05 512.25,-103.51"/>
<polygon fill="#63b8ff" stroke="#63b8ff" points="513.13,-100.12 502.63,-101.5 511.71,-106.97 513.13,-100.12"/>
</a>
</g>
</g>
<!-- Node28 -->
<g id="Node000028" class="node">
<title>Node28</title>
<g id="a_Node000028"><a xlink:title=" ">
<polygon fill="#e0e0e0" stroke="#999999" points="626,-103 518.5,-103 518.5,-69.5 626,-69.5 626,-103"/>
<text text-anchor="start" x="526.5" y="-89.5" font-family="Helvetica,sans-Serif" font-size="10.00">mlir/Dialect/SCF/IR</text>
<text text-anchor="middle" x="572.25" y="-76.75" font-family="Helvetica,sans-Serif" font-size="10.00">/SCF.h</text>
</a>
</g>
</g>
<!-- Node6&#45;&gt;Node28 -->
<g id="edge38_Node000006_Node000028" class="edge">
<title>Node6&#45;&gt;Node28</title>
<g id="a_edge38_Node000006_Node000028"><a xlink:title=" ">
<path fill="none" stroke="#63b8ff" d="M811.82,-144.89C770,-135.14 703.98,-119.65 637.33,-103.49"/>
<polygon fill="#63b8ff" stroke="#63b8ff" points="638.21,-100.1 627.67,-101.14 636.56,-106.9 638.21,-100.1"/>
</a>
</g>
</g>
<!-- Node29 -->
<g id="Node000029" class="node">
<title>Node29</title>
<g id="a_Node000029"><a xlink:title=" ">
<polygon fill="#e0e0e0" stroke="#999999" points="738.25,-96.62 644.25,-96.62 644.25,-75.88 738.25,-75.88 738.25,-96.62"/>
<text text-anchor="middle" x="691.25" y="-83.12" font-family="Helvetica,sans-Serif" font-size="10.00">mlir/Pass/Pass.h</text>
</a>
</g>
</g>
<!-- Node6&#45;&gt;Node29 -->
<g id="edge39_Node000006_Node000029" class="edge">
<title>Node6&#45;&gt;Node29</title>
<g id="a_edge39_Node000006_Node000029"><a xlink:title=" ">
<path fill="none" stroke="#63b8ff" d="M830.55,-144.93C802.9,-133.49 756.98,-114.47 725.47,-101.42"/>
<polygon fill="#63b8ff" stroke="#63b8ff" points="726.96,-98.25 716.38,-97.66 724.28,-104.72 726.96,-98.25"/>
</a>
</g>
</g>
<!-- Node7&#45;&gt;Node4 -->
<g id="edge7_Node000007_Node000004" class="edge">
<title>Node7&#45;&gt;Node4</title>
<g id="a_edge7_Node000007_Node000004"><a xlink:title=" ">
<path fill="none" stroke="#63b8ff" d="M1556.84,-71.2C1553.95,-70.58 1551.07,-70.01 1548.25,-69.5 1381.71,-39.58 1336.12,-61.49 1169.25,-33.5 1163.6,-32.55 1157.71,-31.38 1151.88,-30.12"/>
<polygon fill="#63b8ff" stroke="#63b8ff" points="1152.85,-26.75 1142.32,-27.92 1151.28,-33.57 1152.85,-26.75"/>
</a>
</g>
</g>
<!-- Node8 -->
<g id="Node000008" class="node">
<title>Node8</title>
<g id="a_Node000008"><a xlink:href="Array_2IR_2Dialect_8h_8inc.html" target="_top" xlink:title=" ">
<polygon fill="white" stroke="#666666" points="1657.25,-33.5 1557.25,-33.5 1557.25,0 1657.25,0 1657.25,-33.5"/>
<text text-anchor="start" x="1565.25" y="-20" font-family="Helvetica,sans-Serif" font-size="10.00">llzk/Dialect/Array</text>
<text text-anchor="middle" x="1607.25" y="-7.25" font-family="Helvetica,sans-Serif" font-size="10.00">/IR/Dialect.h.inc</text>
</a>
</g>
</g>
<!-- Node7&#45;&gt;Node8 -->
<g id="edge8_Node000007_Node000008" class="edge">
<title>Node7&#45;&gt;Node8</title>
<g id="a_edge8_Node000007_Node000008"><a xlink:title=" ">
<path fill="none" stroke="#63b8ff" d="M1607.25,-69.25C1607.25,-62.02 1607.25,-53.28 1607.25,-45.06"/>
<polygon fill="#63b8ff" stroke="#63b8ff" points="1610.75,-45.15 1607.25,-35.15 1603.75,-45.15 1610.75,-45.15"/>
</a>
</g>
</g>
<!-- Node9&#45;&gt;Node4 -->
<g id="edge10_Node000009_Node000004" class="edge">
<title>Node9&#45;&gt;Node4</title>
<g id="a_edge10_Node000009_Node000004"><a xlink:title=" ">
<path fill="none" stroke="#63b8ff" d="M971.93,-69.08C1001.31,-57.69 1040.25,-42.58 1068.27,-31.71"/>
<polygon fill="#63b8ff" stroke="#63b8ff" points="1069.34,-35.05 1077.4,-28.17 1066.81,-28.52 1069.34,-35.05"/>
</a>
</g>
</g>
<!-- Node10 -->
<g id="Node000010" class="node">
<title>Node10</title>
<g id="a_Node000010"><a xlink:href="Bool_2IR_2Dialect_8h_8inc.html" target="_top" xlink:title=" ">
<polygon fill="white" stroke="#666666" points="893.38,-33.5 785.12,-33.5 785.12,0 893.38,0 893.38,-33.5"/>
<text text-anchor="start" x="793.12" y="-20" font-family="Helvetica,sans-Serif" font-size="10.00">llzk/Dialect/Bool/IR</text>
<text text-anchor="middle" x="839.25" y="-7.25" font-family="Helvetica,sans-Serif" font-size="10.00">/Dialect.h.inc</text>
</a>
</g>
</g>
<!-- Node9&#45;&gt;Node10 -->
<g id="edge11_Node000009_Node000010" class="edge">
<title>Node9&#45;&gt;Node10</title>
<g id="a_edge11_Node000009_Node000010"><a xlink:title=" ">
<path fill="none" stroke="#63b8ff" d="M908.68,-69.25C897.1,-60.66 882.61,-49.91 869.88,-40.47"/>
<polygon fill="#63b8ff" stroke="#63b8ff" points="872.31,-37.91 862.19,-34.77 868.14,-43.54 872.31,-37.91"/>
</a>
</g>
</g>
<!-- Node11&#45;&gt;Node4 -->
<g id="edge13_Node000011_Node000004" class="edge">
<title>Node11&#45;&gt;Node4</title>
<g id="a_edge13_Node000011_Node000004"><a xlink:title=" ">
<path fill="none" stroke="#63b8ff" d="M1072.2,-69.25C1078.18,-59.65 1085.83,-47.36 1092.15,-37.19"/>
<polygon fill="#63b8ff" stroke="#63b8ff" points="1095.03,-39.2 1097.34,-28.86 1089.08,-35.5 1095.03,-39.2"/>
</a>
</g>
</g>
<!-- Node12 -->
<g id="Node000012" class="node">
<title>Node12</title>
<g id="a_Node000012"><a xlink:href="Constrain_2IR_2Dialect_8h_8inc.html" target="_top" xlink:title=" ">
<polygon fill="white" stroke="#666666" points="1031.38,-33.5 911.12,-33.5 911.12,0 1031.38,0 1031.38,-33.5"/>
<text text-anchor="start" x="919.12" y="-20" font-family="Helvetica,sans-Serif" font-size="10.00">llzk/Dialect/Constrain</text>
<text text-anchor="middle" x="971.25" y="-7.25" font-family="Helvetica,sans-Serif" font-size="10.00">/IR/Dialect.h.inc</text>
</a>
</g>
</g>
<!-- Node11&#45;&gt;Node12 -->
<g id="edge14_Node000011_Node000012" class="edge">
<title>Node11&#45;&gt;Node12</title>
<g id="a_edge14_Node000011_Node000012"><a xlink:title=" ">
<path fill="none" stroke="#63b8ff" d="M1040.68,-69.25C1029.1,-60.66 1014.61,-49.91 1001.88,-40.47"/>
<polygon fill="#63b8ff" stroke="#63b8ff" points="1004.31,-37.91 994.19,-34.77 1000.14,-43.54 1004.31,-37.91"/>
</a>
</g>
</g>
<!-- Node13&#45;&gt;Node4 -->
<g id="edge16_Node000013_Node000004" class="edge">
<title>Node13&#45;&gt;Node4</title>
<g id="a_edge16_Node000013_Node000004"><a xlink:title=" ">
<path fill="none" stroke="#63b8ff" d="M1200.07,-69.08C1179.58,-58.11 1152.67,-43.69 1132.58,-32.93"/>
<polygon fill="#63b8ff" stroke="#63b8ff" points="1134.29,-29.87 1123.82,-28.24 1130.99,-36.04 1134.29,-29.87"/>
</a>
</g>
</g>
<!-- Node14 -->
<g id="Node000014" class="node">
<title>Node14</title>
<g id="a_Node000014"><a xlink:href="Felt_2IR_2Dialect_8h_8inc.html" target="_top" xlink:title=" ">
<polygon fill="white" stroke="#666666" points="1282.5,-33.5 1178,-33.5 1178,0 1282.5,0 1282.5,-33.5"/>
<text text-anchor="start" x="1186" y="-20" font-family="Helvetica,sans-Serif" font-size="10.00">llzk/Dialect/Felt/IR</text>
<text text-anchor="middle" x="1230.25" y="-7.25" font-family="Helvetica,sans-Serif" font-size="10.00">/Dialect.h.inc</text>
</a>
</g>
</g>
<!-- Node13&#45;&gt;Node14 -->
<g id="edge17_Node000013_Node000014" class="edge">
<title>Node13&#45;&gt;Node14</title>
<g id="a_edge17_Node000013_Node000014"><a xlink:title=" ">
<path fill="none" stroke="#63b8ff" d="M1230.25,-69.25C1230.25,-62.02 1230.25,-53.28 1230.25,-45.06"/>
<polygon fill="#63b8ff" stroke="#63b8ff" points="1233.75,-45.15 1230.25,-35.15 1226.75,-45.15 1233.75,-45.15"/>
</a>
</g>
</g>
<!-- Node15&#45;&gt;Node4 -->
<g id="edge19_Node000015_Node000004" class="edge">
<title>Node15&#45;&gt;Node4</title>
<g id="a_edge19_Node000015_Node000004"><a xlink:title=" ">
<path fill="none" stroke="#63b8ff" d="M1300.3,-69.85C1255.5,-57.94 1194.24,-41.66 1152.18,-30.49"/>
<polygon fill="#63b8ff" stroke="#63b8ff" points="1153.15,-27.12 1142.59,-27.94 1151.36,-33.89 1153.15,-27.12"/>
</a>
</g>
</g>
<!-- Node16 -->
<g id="Node000016" class="node">
<title>Node16</title>
<g id="a_Node000016"><a xlink:href="Function_2IR_2Dialect_8h_8inc.html" target="_top" xlink:title=" ">
<polygon fill="white" stroke="#666666" points="1415.75,-33.5 1300.75,-33.5 1300.75,0 1415.75,0 1415.75,-33.5"/>
<text text-anchor="start" x="1308.75" y="-20" font-family="Helvetica,sans-Serif" font-size="10.00">llzk/Dialect/Function</text>
<text text-anchor="middle" x="1358.25" y="-7.25" font-family="Helvetica,sans-Serif" font-size="10.00">/IR/Dialect.h.inc</text>
</a>
</g>
</g>
<!-- Node15&#45;&gt;Node16 -->
<g id="edge20_Node000015_Node000016" class="edge">
<title>Node15&#45;&gt;Node16</title>
<g id="a_edge20_Node000015_Node000016"><a xlink:title=" ">
<path fill="none" stroke="#63b8ff" d="M1358.25,-69.25C1358.25,-62.02 1358.25,-53.28 1358.25,-45.06"/>
<polygon fill="#63b8ff" stroke="#63b8ff" points="1361.75,-45.15 1358.25,-35.15 1354.75,-45.15 1361.75,-45.15"/>
</a>
</g>
</g>
<!-- Node17&#45;&gt;Node4 -->
<g id="edge22_Node000017_Node000004" class="edge">
<title>Node17&#45;&gt;Node4</title>
<g id="a_edge22_Node000017_Node000004"><a xlink:title=" ">
<path fill="none" stroke="#63b8ff" d="M1433.43,-71.22C1430.67,-70.61 1427.93,-70.03 1425.25,-69.5 1312.56,-47.1 1282.11,-55.05 1169.25,-33.5 1164.04,-32.5 1158.61,-31.36 1153.22,-30.16"/>
<polygon fill="#63b8ff" stroke="#63b8ff" points="1154.27,-26.81 1143.74,-27.96 1152.69,-33.63 1154.27,-26.81"/>
</a>
</g>
</g>
<!-- Node18 -->
<g id="Node000018" class="node">
<title>Node18</title>
<g id="a_Node000018"><a xlink:href="Global_2IR_2Dialect_8h_8inc.html" target="_top" xlink:title=" ">
<polygon fill="white" stroke="#666666" points="1538.88,-33.5 1433.62,-33.5 1433.62,0 1538.88,0 1538.88,-33.5"/>
<text text-anchor="start" x="1441.62" y="-20" font-family="Helvetica,sans-Serif" font-size="10.00">llzk/Dialect/Global</text>
<text text-anchor="middle" x="1486.25" y="-7.25" font-family="Helvetica,sans-Serif" font-size="10.00">/IR/Dialect.h.inc</text>
</a>
</g>
</g>
<!-- Node17&#45;&gt;Node18 -->
<g id="edge23_Node000017_Node000018" class="edge">
<title>Node17&#45;&gt;Node18</title>
<g id="a_edge23_Node000017_Node000018"><a xlink:title=" ">
<path fill="none" stroke="#63b8ff" d="M1486.25,-69.25C1486.25,-62.02 1486.25,-53.28 1486.25,-45.06"/>
<polygon fill="#63b8ff" stroke="#63b8ff" points="1489.75,-45.15 1486.25,-35.15 1482.75,-45.15 1489.75,-45.15"/>
</a>
</g>
</g>
<!-- Node19&#45;&gt;Node4 -->
<g id="edge25_Node000019_Node000004" class="edge">
<title>Node19&#45;&gt;Node4</title>
<g id="a_edge25_Node000019_Node000004"><a xlink:title=" ">
<path fill="none" stroke="#63b8ff" d="M1675.56,-71.15C1672.42,-70.54 1669.3,-69.98 1666.25,-69.5 1447.5,-34.92 1388.06,-67.69 1169.25,-33.5 1163.3,-32.57 1157.09,-31.37 1150.97,-30.05"/>
<polygon fill="#63b8ff" stroke="#63b8ff" points="1152.14,-26.72 1141.61,-27.91 1150.58,-33.55 1152.14,-26.72"/>
</a>
</g>
</g>
<!-- Node20 -->
<g id="Node000020" class="node">
<title>Node20</title>
<g id="a_Node000020"><a xlink:href="Include_2IR_2Dialect_8h_8inc.html" target="_top" xlink:title=" ">
<polygon fill="white" stroke="#666666" points="1784.75,-33.5 1675.75,-33.5 1675.75,0 1784.75,0 1784.75,-33.5"/>
<text text-anchor="start" x="1683.75" y="-20" font-family="Helvetica,sans-Serif" font-size="10.00">llzk/Dialect/Include</text>
<text text-anchor="middle" x="1730.25" y="-7.25" font-family="Helvetica,sans-Serif" font-size="10.00">/IR/Dialect.h.inc</text>
</a>
</g>
</g>
<!-- Node19&#45;&gt;Node20 -->
<g id="edge26_Node000019_Node000020" class="edge">
<title>Node19&#45;&gt;Node20</title>
<g id="a_edge26_Node000019_Node000020"><a xlink:title=" ">
<path fill="none" stroke="#63b8ff" d="M1730.25,-69.25C1730.25,-62.02 1730.25,-53.28 1730.25,-45.06"/>
<polygon fill="#63b8ff" stroke="#63b8ff" points="1733.75,-45.15 1730.25,-35.15 1726.75,-45.15 1733.75,-45.15"/>
</a>
</g>
</g>
<!-- Node21&#45;&gt;Node4 -->
<g id="edge28_Node000021_Node000004" class="edge">
<title>Node21&#45;&gt;Node4</title>
<g id="a_edge28_Node000021_Node000004"><a xlink:title=" ">
<path fill="none" stroke="#63b8ff" d="M263.97,-70.86C266.76,-70.35 269.53,-69.89 272.25,-69.5 610.42,-20.44 702.08,-82.56 1040.25,-33.5 1046.27,-32.63 1052.54,-31.44 1058.71,-30.1"/>
<polygon fill="#63b8ff" stroke="#63b8ff" points="1059.19,-33.58 1068.14,-27.92 1057.61,-26.76 1059.19,-33.58"/>
</a>
</g>
</g>
<!-- Node22 -->
<g id="Node000022" class="node">
<title>Node22</title>
<g id="a_Node000022"><a xlink:href="LLZK_2IR_2Dialect_8h_8inc.html" target="_top" xlink:title=" ">
<polygon fill="white" stroke="#666666" points="263.5,-33.5 153,-33.5 153,0 263.5,0 263.5,-33.5"/>
<text text-anchor="start" x="161" y="-20" font-family="Helvetica,sans-Serif" font-size="10.00">llzk/Dialect/LLZK/IR</text>
<text text-anchor="middle" x="208.25" y="-7.25" font-family="Helvetica,sans-Serif" font-size="10.00">/Dialect.h.inc</text>
</a>
</g>
</g>
<!-- Node21&#45;&gt;Node22 -->
<g id="edge29_Node000021_Node000022" class="edge">
<title>Node21&#45;&gt;Node22</title>
<g id="a_edge29_Node000021_Node000022"><a xlink:title=" ">
<path fill="none" stroke="#63b8ff" d="M208.25,-69.25C208.25,-62.02 208.25,-53.28 208.25,-45.06"/>
<polygon fill="#63b8ff" stroke="#63b8ff" points="211.75,-45.15 208.25,-35.15 204.75,-45.15 211.75,-45.15"/>
</a>
</g>
</g>
<!-- Node23&#45;&gt;Node4 -->
<g id="edge32_Node000023_Node000004" class="edge">
<title>Node23&#45;&gt;Node4</title>
<g id="a_edge32_Node000023_Node000004"><a xlink:title=" ">
<path fill="none" stroke="#63b8ff" d="M383.82,-71.01C386.66,-70.44 389.48,-69.94 392.25,-69.5 677.19,-24.66 754.98,-76.15 1040.25,-33.5 1046.19,-32.61 1052.39,-31.43 1058.48,-30.1"/>
<polygon fill="#63b8ff" stroke="#63b8ff" points="1058.85,-33.61 1067.8,-27.94 1057.27,-26.79 1058.85,-33.61"/>
</a>
</g>
</g>
<!-- Node24 -->
<g id="Node000024" class="node">
<title>Node24</title>
<g id="a_Node000024"><a xlink:href="String_2IR_2Dialect_8h_8inc.html" target="_top" xlink:title=" ">
<polygon fill="white" stroke="#666666" points="383.38,-33.5 281.12,-33.5 281.12,0 383.38,0 383.38,-33.5"/>
<text text-anchor="start" x="289.12" y="-20" font-family="Helvetica,sans-Serif" font-size="10.00">llzk/Dialect/String</text>
<text text-anchor="middle" x="332.25" y="-7.25" font-family="Helvetica,sans-Serif" font-size="10.00">/IR/Dialect.h.inc</text>
</a>
</g>
</g>
<!-- Node23&#45;&gt;Node24 -->
<g id="edge33_Node000023_Node000024" class="edge">
<title>Node23&#45;&gt;Node24</title>
<g id="a_edge33_Node000023_Node000024"><a xlink:title=" ">
<path fill="none" stroke="#63b8ff" d="M332.25,-69.25C332.25,-62.02 332.25,-53.28 332.25,-45.06"/>
<polygon fill="#63b8ff" stroke="#63b8ff" points="335.75,-45.15 332.25,-35.15 328.75,-45.15 335.75,-45.15"/>
</a>
</g>
</g>
<!-- Node25&#45;&gt;Node4 -->
<g id="edge35_Node000025_Node000004" class="edge">
<title>Node25&#45;&gt;Node4</title>
<g id="a_edge35_Node000025_Node000004"><a xlink:title=" ">
<path fill="none" stroke="#63b8ff" d="M858.59,-71.59C861.52,-70.87 864.42,-70.17 867.25,-69.5 943.7,-51.52 963.66,-50.89 1040.25,-33.5 1044.83,-32.46 1049.59,-31.35 1054.35,-30.21"/>
<polygon fill="#63b8ff" stroke="#63b8ff" points="1055.01,-33.66 1063.91,-27.91 1053.37,-26.85 1055.01,-33.66"/>
</a>
</g>
</g>
<!-- Node26 -->
<g id="Node000026" class="node">
<title>Node26</title>
<g id="a_Node000026"><a xlink:href="Struct_2IR_2Dialect_8h_8inc.html" target="_top" xlink:title=" ">
<polygon fill="white" stroke="#666666" points="767.38,-33.5 665.12,-33.5 665.12,0 767.38,0 767.38,-33.5"/>
<text text-anchor="start" x="673.12" y="-20" font-family="Helvetica,sans-Serif" font-size="10.00">llzk/Dialect/Struct</text>
<text text-anchor="middle" x="716.25" y="-7.25" font-family="Helvetica,sans-Serif" font-size="10.00">/IR/Dialect.h.inc</text>
</a>
</g>
</g>
<!-- Node25&#45;&gt;Node26 -->
<g id="edge36_Node000025_Node000026" class="edge">
<title>Node25&#45;&gt;Node26</title>
<g id="a_edge36_Node000025_Node000026"><a xlink:title=" ">
<path fill="none" stroke="#63b8ff" d="M785.68,-69.25C774.1,-60.66 759.61,-49.91 746.88,-40.47"/>
<polygon fill="#63b8ff" stroke="#63b8ff" points="749.31,-37.91 739.19,-34.77 745.14,-43.54 749.31,-37.91"/>
</a>
</g>
</g>
<!-- Node31&#45;&gt;Node19 -->
<g id="edge42_Node000031_Node000019" class="edge">
<title>Node31&#45;&gt;Node19</title>
<g id="a_edge42_Node000031_Node000019"><a xlink:title=" ">
<path fill="none" stroke="#63b8ff" d="M1492.9,-208.13C1541.57,-183.35 1634.79,-135.86 1688.79,-108.36"/>
<polygon fill="#63b8ff" stroke="#63b8ff" points="1690.05,-111.65 1697.37,-103.99 1686.87,-105.41 1690.05,-111.65"/>
</a>
</g>
</g>
<!-- Node32 -->
<g id="Node000032" class="node">
<title>Node32</title>
<g id="a_Node000032"><a xlink:href="Include_2IR_2Ops_8h_8inc.html" target="_top" xlink:title=" ">
<polygon fill="white" stroke="#666666" points="1515.75,-172.5 1406.75,-172.5 1406.75,-139 1515.75,-139 1515.75,-172.5"/>
<text text-anchor="start" x="1414.75" y="-159" font-family="Helvetica,sans-Serif" font-size="10.00">llzk/Dialect/Include</text>
<text text-anchor="middle" x="1461.25" y="-146.25" font-family="Helvetica,sans-Serif" font-size="10.00">/IR/Ops.h.inc</text>
</a>
</g>
</g>
<!-- Node31&#45;&gt;Node32 -->
<g id="edge43_Node000031_Node000032" class="edge">
<title>Node31&#45;&gt;Node32</title>
<g id="a_edge43_Node000031_Node000032"><a xlink:title=" ">
<path fill="none" stroke="#63b8ff" d="M1461.25,-208.25C1461.25,-201.02 1461.25,-192.28 1461.25,-184.06"/>
<polygon fill="#63b8ff" stroke="#63b8ff" points="1464.75,-184.15 1461.25,-174.15 1457.75,-184.15 1464.75,-184.15"/>
</a>
</g>
</g>
<!-- Node33&#45;&gt;Node4 -->
<g id="edge45_Node000033_Node000004" class="edge">
<title>Node33&#45;&gt;Node4</title>
<g id="a_edge45_Node000033_Node000004"><a xlink:title=" ">
<path fill="none" stroke="#63b8ff" d="M1983.52,-224.12C1937.32,-221 1873.61,-209.52 1832.25,-172.5 1795.89,-139.96 1833.46,-98.54 1794.25,-69.5 1738.35,-28.1 1238.05,-43.73 1169.25,-33.5 1163.22,-32.6 1156.93,-31.41 1150.74,-30.08"/>
<polygon fill="#63b8ff" stroke="#63b8ff" points="1151.79,-26.73 1141.26,-27.92 1150.23,-33.56 1151.79,-26.73"/>
</a>
</g>
</g>
<!-- Node34 -->
<g id="Node000034" class="node">
<title>Node34</title>
<g id="a_Node000034"><a xlink:title=" ">
<polygon fill="#e0e0e0" stroke="#999999" points="2256.38,-166.12 2130.12,-166.12 2130.12,-145.38 2256.38,-145.38 2256.38,-166.12"/>
<text text-anchor="middle" x="2193.25" y="-152.62" font-family="Helvetica,sans-Serif" font-size="10.00">mlir/IR/OwningOpRef.h</text>
</a>
</g>
</g>
<!-- Node33&#45;&gt;Node34 -->
<g id="edge46_Node000033_Node000034" class="edge">
<title>Node33&#45;&gt;Node34</title>
<g id="a_edge46_Node000033_Node000034"><a xlink:title=" ">
<path fill="none" stroke="#63b8ff" d="M2077.66,-208.08C2102.94,-196.85 2136.34,-182.02 2160.73,-171.19"/>
<polygon fill="#63b8ff" stroke="#63b8ff" points="2162.14,-174.39 2169.86,-167.14 2159.3,-168 2162.14,-174.39"/>
</a>
</g>
</g>
<!-- Node35 -->
<g id="Node000035" class="node">
<title>Node35</title>
<g id="a_Node000035"><a xlink:title=" ">
<polygon fill="#e0e0e0" stroke="#999999" points="2388,-166.12 2274.5,-166.12 2274.5,-145.38 2388,-145.38 2388,-166.12"/>
<text text-anchor="middle" x="2331.25" y="-152.62" font-family="Helvetica,sans-Serif" font-size="10.00">mlir/Support/LLVM.h</text>
</a>
</g>
</g>
<!-- Node33&#45;&gt;Node35 -->
<g id="edge47_Node000033_Node000035" class="edge">
<title>Node33&#45;&gt;Node35</title>
<g id="a_edge47_Node000033_Node000035"><a xlink:title=" ">
<path fill="none" stroke="#63b8ff" d="M2099.19,-210.39C2101.91,-209.75 2104.61,-209.12 2107.25,-208.5 2177.39,-192.14 2195.11,-188.86 2265.25,-172.5 2269.83,-171.43 2274.59,-170.31 2279.36,-169.19"/>
<polygon fill="#63b8ff" stroke="#63b8ff" points="2280.03,-172.62 2288.95,-166.91 2278.41,-165.81 2280.03,-172.62"/>
</a>
</g>
</g>
<!-- Node36 -->
<g id="Node000036" class="node">
<title>Node36</title>
<g id="a_Node000036"><a xlink:title=" ">
<polygon fill="#e0e0e0" stroke="#999999" points="2558.88,-166.12 2405.62,-166.12 2405.62,-145.38 2558.88,-145.38 2558.88,-166.12"/>
<text text-anchor="middle" x="2482.25" y="-152.62" font-family="Helvetica,sans-Serif" font-size="10.00">mlir/Support/LogicalResult.h</text>
</a>
</g>
</g>
<!-- Node33&#45;&gt;Node36 -->
<g id="edge48_Node000033_Node000036" class="edge">
<title>Node33&#45;&gt;Node36</title>
<g id="a_edge48_Node000033_Node000036"><a xlink:title=" ">
<path fill="none" stroke="#63b8ff" d="M2099.12,-210.06C2101.86,-209.5 2104.58,-208.98 2107.25,-208.5 2235.06,-185.39 2268.9,-192.34 2397.25,-172.5 2404.91,-171.32 2412.94,-169.97 2420.88,-168.57"/>
<polygon fill="#63b8ff" stroke="#63b8ff" points="2421.28,-172.06 2430.51,-166.84 2420.04,-165.17 2421.28,-172.06"/>
</a>
</g>
</g>
<!-- Node37 -->
<g id="Node000037" class="node">
<title>Node37</title>
<g id="a_Node000037"><a xlink:title=" ">
<polygon fill="#e0e0e0" stroke="#999999" points="2705.88,-166.12 2576.62,-166.12 2576.62,-145.38 2705.88,-145.38 2705.88,-166.12"/>
<text text-anchor="middle" x="2641.25" y="-152.62" font-family="Helvetica,sans-Serif" font-size="10.00">llvm/ADT/SmallString.h</text>
</a>
</g>
</g>
<!-- Node33&#45;&gt;Node37 -->
<g id="edge49_Node000033_Node000037" class="edge">
<title>Node33&#45;&gt;Node37</title>
<g id="a_edge49_Node000033_Node000037"><a xlink:title=" ">
<path fill="none" stroke="#63b8ff" d="M2099.1,-209.91C2101.85,-209.39 2104.57,-208.92 2107.25,-208.5 2310.26,-176.55 2364.9,-202.24 2568.25,-172.5 2575.07,-171.5 2582.21,-170.24 2589.24,-168.87"/>
<polygon fill="#63b8ff" stroke="#63b8ff" points="2589.92,-172.3 2599.02,-166.86 2588.52,-165.44 2589.92,-172.3"/>
</a>
</g>
</g>
<!-- Node38 -->
<g id="Node000038" class="node">
<title>Node38</title>
<g id="a_Node000038"><a xlink:title=" ">
<polygon fill="#e0e0e0" stroke="#999999" points="1952.88,-166.12 1841.62,-166.12 1841.62,-145.38 1952.88,-145.38 1952.88,-166.12"/>
<text text-anchor="middle" x="1897.25" y="-152.62" font-family="Helvetica,sans-Serif" font-size="10.00">llvm/Support/Path.h</text>
</a>
</g>
</g>
<!-- Node33&#45;&gt;Node38 -->
<g id="edge50_Node000033_Node000038" class="edge">
<title>Node33&#45;&gt;Node38</title>
<g id="a_edge50_Node000033_Node000038"><a xlink:title=" ">
<path fill="none" stroke="#63b8ff" d="M2006.76,-208.08C1982.91,-196.9 1951.45,-182.15 1928.37,-171.34"/>
<polygon fill="#63b8ff" stroke="#63b8ff" points="1930.01,-168.24 1919.47,-167.16 1927.03,-174.58 1930.01,-168.24"/>
</a>
</g>
</g>
<!-- Node39 -->
<g id="Node000039" class="node">
<title>Node39</title>
<g id="a_Node000039"><a xlink:title=" ">
<polygon fill="#e0e0e0" stroke="#999999" points="2111.88,-166.12 1970.62,-166.12 1970.62,-145.38 2111.88,-145.38 2111.88,-166.12"/>
<text text-anchor="middle" x="2041.25" y="-152.62" font-family="Helvetica,sans-Serif" font-size="10.00">llvm/Support/SourceMgr.h</text>
</a>
</g>
</g>
<!-- Node33&#45;&gt;Node39 -->
<g id="edge51_Node000033_Node000039" class="edge">
<title>Node33&#45;&gt;Node39</title>
<g id="a_edge51_Node000033_Node000039"><a xlink:title=" ">
<path fill="none" stroke="#63b8ff" d="M2041.25,-208.25C2041.25,-199.15 2041.25,-187.64 2041.25,-177.82"/>
<polygon fill="#63b8ff" stroke="#63b8ff" points="2044.75,-178.09 2041.25,-168.09 2037.75,-178.09 2044.75,-178.09"/>
</a>
</g>
</g>
</g>
</svg>
