<?xml version="1.0" encoding="UTF-8" standalone="no"?>
<!DOCTYPE svg PUBLIC "-//W3C//DTD SVG 1.1//EN"
 "http://www.w3.org/Graphics/SVG/1.1/DTD/svg11.dtd">
<!-- Generated by graphviz version 12.2.1 (0)
 -->
<!-- Title: lib/Analysis/Intervals.cpp Pages: 1 -->
<svg width="2001pt" height="256pt"
 viewBox="0.00 0.00 2000.75 255.75" xmlns="http://www.w3.org/2000/svg" xmlns:xlink="http://www.w3.org/1999/xlink">
<g id="graph0" class="graph" transform="scale(1 1) rotate(0) translate(4 251.75)">
<title>lib/Analysis/Intervals.cpp</title>
<!-- Node1 -->
<g id="Node000001" class="node">
<title>Node1</title>
<g id="a_Node000001"><a xlink:title=" ">
<polygon fill="#999999" stroke="#666666" points="1135.25,-247.75 997,-247.75 997,-227 1135.25,-227 1135.25,-247.75"/>
<text text-anchor="middle" x="1066.12" y="-234.25" font-family="Helvetica,sans-Serif" font-size="10.00">lib/Analysis/Intervals.cpp</text>
</a>
</g>
</g>
<!-- Node2 -->
<g id="Node000002" class="node">
<title>Node2</title>
<g id="a_Node000002"><a xlink:href="Intervals_8h.html" target="_top" xlink:title=" ">
<polygon fill="white" stroke="#666666" points="992.25,-191 860,-191 860,-170.25 992.25,-170.25 992.25,-191"/>
<text text-anchor="middle" x="926.12" y="-177.5" font-family="Helvetica,sans-Serif" font-size="10.00">llzk/Analysis/Intervals.h</text>
</a>
</g>
</g>
<!-- Node1&#45;&gt;Node2 -->
<g id="edge1_Node000001_Node000002" class="edge">
<title>Node1&#45;&gt;Node2</title>
<g id="a_edge1_Node000001_Node000002"><a xlink:title=" ">
<path fill="none" stroke="#63b8ff" d="M1041.1,-226.59C1018.9,-217.91 986.24,-205.13 961.39,-195.42"/>
<polygon fill="#63b8ff" stroke="#63b8ff" points="962.94,-192.26 952.35,-191.88 960.39,-198.78 962.94,-192.26"/>
</a>
</g>
</g>
<!-- Node4 -->
<g id="Node000004" class="node">
<title>Node4</title>
<g id="a_Node000004"><a xlink:href="DynamicAPIntHelper_8h.html" target="_top" xlink:title="This file implements helper methods for constructing DynamicAPInts.">
<polygon fill="white" stroke="#666666" points="1149.12,-77.5 983.12,-77.5 983.12,-56.75 1149.12,-56.75 1149.12,-77.5"/>
<text text-anchor="middle" x="1066.12" y="-64" font-family="Helvetica,sans-Serif" font-size="10.00">llzk/Util/DynamicAPIntHelper.h</text>
</a>
</g>
</g>
<!-- Node1&#45;&gt;Node4 -->
<g id="edge26_Node000001_Node000004" class="edge">
<title>Node1&#45;&gt;Node4</title>
<g id="a_edge26_Node000001_Node000004"><a xlink:title=" ">
<path fill="none" stroke="#63b8ff" d="M1066.12,-226.85C1066.12,-200.48 1066.12,-126.08 1066.12,-89.28"/>
<polygon fill="#63b8ff" stroke="#63b8ff" points="1069.63,-89.48 1066.13,-79.48 1062.63,-89.48 1069.63,-89.48"/>
</a>
</g>
</g>
<!-- Node10 -->
<g id="Node000010" class="node">
<title>Node10</title>
<g id="a_Node000010"><a xlink:href="ErrorHelper_8h.html" target="_top" xlink:title=" ">
<polygon fill="white" stroke="#666666" points="1515.25,-77.5 1395,-77.5 1395,-56.75 1515.25,-56.75 1515.25,-77.5"/>
<text text-anchor="middle" x="1455.12" y="-64" font-family="Helvetica,sans-Serif" font-size="10.00">llzk/Util/ErrorHelper.h</text>
</a>
</g>
</g>
<!-- Node1&#45;&gt;Node10 -->
<g id="edge27_Node000001_Node000010" class="edge">
<title>Node1&#45;&gt;Node10</title>
<g id="a_edge27_Node000001_Node000010"><a xlink:title=" ">
<path fill="none" stroke="#63b8ff" d="M1088.72,-226.6C1154.25,-198.26 1344.61,-115.93 1421.91,-82.49"/>
<polygon fill="#63b8ff" stroke="#63b8ff" points="1423.29,-85.71 1431.08,-78.53 1420.51,-79.28 1423.29,-85.71"/>
</a>
</g>
</g>
<!-- Node3 -->
<g id="Node000003" class="node">
<title>Node3</title>
<g id="a_Node000003"><a xlink:href="Field_8h.html" target="_top" xlink:title=" ">
<polygon fill="white" stroke="#666666" points="638.5,-134.25 549.75,-134.25 549.75,-113.5 638.5,-113.5 638.5,-134.25"/>
<text text-anchor="middle" x="594.12" y="-120.75" font-family="Helvetica,sans-Serif" font-size="10.00">llzk/Util/Field.h</text>
</a>
</g>
</g>
<!-- Node2&#45;&gt;Node3 -->
<g id="edge2_Node000002_Node000003" class="edge">
<title>Node2&#45;&gt;Node3</title>
<g id="a_edge2_Node000002_Node000003"><a xlink:title=" ">
<path fill="none" stroke="#63b8ff" d="M866.39,-169.77C804.91,-159.64 709.9,-143.97 649.91,-134.08"/>
<polygon fill="#63b8ff" stroke="#63b8ff" points="650.7,-130.66 640.26,-132.48 649.56,-137.56 650.7,-130.66"/>
</a>
</g>
</g>
<!-- Node24 -->
<g id="Node000024" class="node">
<title>Node24</title>
<g id="a_Node000024"><a xlink:title=" ">
<polygon fill="#e0e0e0" stroke="#999999" points="916.75,-134.25 763.5,-134.25 763.5,-113.5 916.75,-113.5 916.75,-134.25"/>
<text text-anchor="middle" x="840.12" y="-120.75" font-family="Helvetica,sans-Serif" font-size="10.00">mlir/Support/LogicalResult.h</text>
</a>
</g>
</g>
<!-- Node2&#45;&gt;Node24 -->
<g id="edge24_Node000002_Node000024" class="edge">
<title>Node2&#45;&gt;Node24</title>
<g id="a_edge24_Node000002_Node000024"><a xlink:title=" ">
<path fill="none" stroke="#63b8ff" d="M910.75,-169.84C898.03,-161.74 879.72,-150.08 864.93,-140.67"/>
<polygon fill="#63b8ff" stroke="#63b8ff" points="866.96,-137.81 856.64,-135.39 863.2,-143.71 866.96,-137.81"/>
</a>
</g>
</g>
<!-- Node25 -->
<g id="Node000025" class="node">
<title>Node25</title>
<g id="a_Node000025"><a xlink:title=" ">
<polygon fill="#e0e0e0" stroke="#999999" points="997.75,-134.25 934.5,-134.25 934.5,-113.5 997.75,-113.5 997.75,-134.25"/>
<text text-anchor="middle" x="966.12" y="-120.75" font-family="Helvetica,sans-Serif" font-size="10.00">algorithm</text>
</a>
</g>
</g>
<!-- Node2&#45;&gt;Node25 -->
<g id="edge25_Node000002_Node000025" class="edge">
<title>Node2&#45;&gt;Node25</title>
<g id="a_edge25_Node000002_Node000025"><a xlink:title=" ">
<path fill="none" stroke="#63b8ff" d="M933.28,-169.84C938.57,-162.6 945.94,-152.51 952.35,-143.72"/>
<polygon fill="#63b8ff" stroke="#63b8ff" points="955.07,-145.94 958.14,-135.8 949.42,-141.81 955.07,-145.94"/>
</a>
</g>
</g>
<!-- Node3&#45;&gt;Node4 -->
<g id="edge3_Node000003_Node000004" class="edge">
<title>Node3&#45;&gt;Node4</title>
<g id="a_edge3_Node000003_Node000004"><a xlink:title=" ">
<path fill="none" stroke="#63b8ff" d="M638.96,-117.67C714.96,-108.86 870.65,-90.8 971.61,-79.09"/>
<polygon fill="#63b8ff" stroke="#63b8ff" points="971.99,-82.57 981.52,-77.94 971.19,-75.61 971.99,-82.57"/>
</a>
</g>
</g>
<!-- Node7 -->
<g id="Node000007" class="node">
<title>Node7</title>
<g id="a_Node000007"><a xlink:title=" ">
<polygon fill="#e0e0e0" stroke="#999999" points="500.12,-20.75 358.12,-20.75 358.12,0 500.12,0 500.12,-20.75"/>
<text text-anchor="middle" x="429.12" y="-7.25" font-family="Helvetica,sans-Serif" font-size="10.00">llvm/ADT/DynamicAPInt.h</text>
</a>
</g>
</g>
<!-- Node3&#45;&gt;Node7 -->
<g id="edge19_Node000003_Node000007" class="edge">
<title>Node3&#45;&gt;Node7</title>
<g id="a_edge19_Node000003_Node000007"><a xlink:title=" ">
<path fill="none" stroke="#63b8ff" d="M549.27,-123.65C467.61,-124 299.73,-119.46 263.12,-77.5 233.46,-43.49 291.12,-26.78 346.43,-18.69"/>
<polygon fill="#63b8ff" stroke="#63b8ff" points="346.87,-22.16 356.3,-17.34 345.92,-15.23 346.87,-22.16"/>
</a>
</g>
</g>
<!-- Node3&#45;&gt;Node10 -->
<g id="edge9_Node000003_Node000010" class="edge">
<title>Node3&#45;&gt;Node10</title>
<g id="a_edge9_Node000003_Node000010"><a xlink:title=" ">
<path fill="none" stroke="#63b8ff" d="M638.9,-120.03C779.19,-111.11 1211.05,-83.65 1383.2,-72.7"/>
<polygon fill="#63b8ff" stroke="#63b8ff" points="1383.38,-76.19 1393.14,-72.07 1382.94,-69.21 1383.38,-76.19"/>
</a>
</g>
</g>
<!-- Node17 -->
<g id="Node000017" class="node">
<title>Node17</title>
<g id="a_Node000017"><a xlink:title=" ">
<polygon fill="#e0e0e0" stroke="#999999" points="382.38,-77.5 271.88,-77.5 271.88,-56.75 382.38,-56.75 382.38,-77.5"/>
<text text-anchor="middle" x="327.12" y="-64" font-family="Helvetica,sans-Serif" font-size="10.00">mlir/IR/BuiltinOps.h</text>
</a>
</g>
</g>
<!-- Node3&#45;&gt;Node17 -->
<g id="edge16_Node000003_Node000017" class="edge">
<title>Node3&#45;&gt;Node17</title>
<g id="a_edge16_Node000003_Node000017"><a xlink:title=" ">
<path fill="none" stroke="#63b8ff" d="M549.44,-113.71C504.67,-104.53 435.54,-90.36 386.25,-80.25"/>
<polygon fill="#63b8ff" stroke="#63b8ff" points="387.1,-76.85 376.6,-78.27 385.7,-83.71 387.1,-76.85"/>
</a>
</g>
</g>
<!-- Node18 -->
<g id="Node000018" class="node">
<title>Node18</title>
<g id="a_Node000018"><a xlink:title=" ">
<polygon fill="#e0e0e0" stroke="#999999" points="513.88,-77.5 400.38,-77.5 400.38,-56.75 513.88,-56.75 513.88,-77.5"/>
<text text-anchor="middle" x="457.12" y="-64" font-family="Helvetica,sans-Serif" font-size="10.00">mlir/Support/LLVM.h</text>
</a>
</g>
</g>
<!-- Node3&#45;&gt;Node18 -->
<g id="edge17_Node000003_Node000018" class="edge">
<title>Node3&#45;&gt;Node18</title>
<g id="a_edge17_Node000003_Node000018"><a xlink:title=" ">
<path fill="none" stroke="#63b8ff" d="M569.63,-113.09C548.01,-104.44 516.24,-91.75 491.97,-82.05"/>
<polygon fill="#63b8ff" stroke="#63b8ff" points="493.4,-78.85 482.81,-78.39 490.8,-85.35 493.4,-78.85"/>
</a>
</g>
</g>
<!-- Node19 -->
<g id="Node000019" class="node">
<title>Node19</title>
<g id="a_Node000019"><a xlink:title=" ">
<polygon fill="#e0e0e0" stroke="#999999" points="656.5,-77.5 531.75,-77.5 531.75,-56.75 656.5,-56.75 656.5,-77.5"/>
<text text-anchor="middle" x="594.12" y="-64" font-family="Helvetica,sans-Serif" font-size="10.00">llvm/ADT/DenseMap.h</text>
</a>
</g>
</g>
<!-- Node3&#45;&gt;Node19 -->
<g id="edge18_Node000003_Node000019" class="edge">
<title>Node3&#45;&gt;Node19</title>
<g id="a_edge18_Node000003_Node000019"><a xlink:title=" ">
<path fill="none" stroke="#63b8ff" d="M594.12,-113.09C594.12,-106.47 594.12,-97.47 594.12,-89.27"/>
<polygon fill="#63b8ff" stroke="#63b8ff" points="597.63,-89.34 594.13,-79.34 590.63,-89.34 597.63,-89.34"/>
</a>
</g>
</g>
<!-- Node20 -->
<g id="Node000020" class="node">
<title>Node20</title>
<g id="a_Node000020"><a xlink:title=" ">
<polygon fill="#e0e0e0" stroke="#999999" points="791.38,-77.5 674.88,-77.5 674.88,-56.75 791.38,-56.75 791.38,-77.5"/>
<text text-anchor="middle" x="733.12" y="-64" font-family="Helvetica,sans-Serif" font-size="10.00">llvm/ADT/SmallSet.h</text>
</a>
</g>
</g>
<!-- Node3&#45;&gt;Node20 -->
<g id="edge20_Node000003_Node000020" class="edge">
<title>Node3&#45;&gt;Node20</title>
<g id="a_edge20_Node000003_Node000020"><a xlink:title=" ">
<path fill="none" stroke="#63b8ff" d="M618.98,-113.09C641.01,-104.41 673.44,-91.63 698.11,-81.92"/>
<polygon fill="#63b8ff" stroke="#63b8ff" points="699.06,-85.3 707.08,-78.38 696.49,-78.79 699.06,-85.3"/>
</a>
</g>
</g>
<!-- Node21 -->
<g id="Node000021" class="node">
<title>Node21</title>
<g id="a_Node000021"><a xlink:title=" ">
<polygon fill="#e0e0e0" stroke="#999999" points="964.88,-77.5 809.38,-77.5 809.38,-56.75 964.88,-56.75 964.88,-77.5"/>
<text text-anchor="middle" x="887.12" y="-64" font-family="Helvetica,sans-Serif" font-size="10.00">llvm/Support/LogicalResult.h</text>
</a>
</g>
</g>
<!-- Node3&#45;&gt;Node21 -->
<g id="edge21_Node000003_Node000021" class="edge">
<title>Node3&#45;&gt;Node21</title>
<g id="a_edge21_Node000003_Node000021"><a xlink:title=" ">
<path fill="none" stroke="#63b8ff" d="M638.94,-114.5C688.14,-105.31 767.51,-90.48 823.22,-80.07"/>
<polygon fill="#63b8ff" stroke="#63b8ff" points="823.7,-83.54 832.89,-78.26 822.42,-76.66 823.7,-83.54"/>
</a>
</g>
</g>
<!-- Node22 -->
<g id="Node000022" class="node">
<title>Node22</title>
<g id="a_Node000022"><a xlink:title=" ">
<polygon fill="#e0e0e0" stroke="#999999" points="126.25,-77.5 0,-77.5 0,-56.75 126.25,-56.75 126.25,-77.5"/>
<text text-anchor="middle" x="63.12" y="-64" font-family="Helvetica,sans-Serif" font-size="10.00">llvm/Support/SMTAPI.h</text>
</a>
</g>
</g>
<!-- Node3&#45;&gt;Node22 -->
<g id="edge22_Node000003_Node000022" class="edge">
<title>Node3&#45;&gt;Node22</title>
<g id="a_edge22_Node000003_Node000022"><a xlink:title=" ">
<path fill="none" stroke="#63b8ff" d="M549.44,-118.92C469.25,-111.72 295.28,-95.65 138.01,-77.8"/>
<polygon fill="#63b8ff" stroke="#63b8ff" points="138.55,-74.34 128.22,-76.68 137.76,-81.3 138.55,-74.34"/>
</a>
</g>
</g>
<!-- Node23 -->
<g id="Node000023" class="node">
<title>Node23</title>
<g id="a_Node000023"><a xlink:title=" ">
<polygon fill="#e0e0e0" stroke="#999999" points="216.25,-77.5 144,-77.5 144,-56.75 216.25,-56.75 216.25,-77.5"/>
<text text-anchor="middle" x="180.12" y="-64" font-family="Helvetica,sans-Serif" font-size="10.00">string_view</text>
</a>
</g>
</g>
<!-- Node3&#45;&gt;Node23 -->
<g id="edge23_Node000003_Node000023" class="edge">
<title>Node3&#45;&gt;Node23</title>
<g id="a_edge23_Node000003_Node000023"><a xlink:title=" ">
<path fill="none" stroke="#63b8ff" d="M549.45,-118.2C480.68,-110.8 344.8,-95.38 230.12,-77.5 229.31,-77.37 228.48,-77.24 227.65,-77.11"/>
<polygon fill="#63b8ff" stroke="#63b8ff" points="228.61,-73.72 218.16,-75.5 227.44,-80.62 228.61,-73.72"/>
</a>
</g>
</g>
<!-- Node5 -->
<g id="Node000005" class="node">
<title>Node5</title>
<g id="a_Node000005"><a xlink:title=" ">
<polygon fill="#e0e0e0" stroke="#999999" points="1178.38,-20.75 1079.88,-20.75 1079.88,0 1178.38,0 1178.38,-20.75"/>
<text text-anchor="middle" x="1129.12" y="-7.25" font-family="Helvetica,sans-Serif" font-size="10.00">llvm/ADT/APInt.h</text>
</a>
</g>
</g>
<!-- Node4&#45;&gt;Node5 -->
<g id="edge4_Node000004_Node000005" class="edge">
<title>Node4&#45;&gt;Node5</title>
<g id="a_edge4_Node000004_Node000005"><a xlink:title=" ">
<path fill="none" stroke="#63b8ff" d="M1077.39,-56.34C1086.26,-48.63 1098.84,-37.7 1109.37,-28.54"/>
<polygon fill="#63b8ff" stroke="#63b8ff" points="1111.56,-31.27 1116.82,-22.07 1106.97,-25.99 1111.56,-31.27"/>
</a>
</g>
</g>
<!-- Node6 -->
<g id="Node000006" class="node">
<title>Node6</title>
<g id="a_Node000006"><a xlink:title=" ">
<polygon fill="#e0e0e0" stroke="#999999" points="743.38,-20.75 638.88,-20.75 638.88,0 743.38,0 743.38,-20.75"/>
<text text-anchor="middle" x="691.12" y="-7.25" font-family="Helvetica,sans-Serif" font-size="10.00">llvm/ADT/APSInt.h</text>
</a>
</g>
</g>
<!-- Node4&#45;&gt;Node6 -->
<g id="edge5_Node000004_Node000006" class="edge">
<title>Node4&#45;&gt;Node6</title>
<g id="a_edge5_Node000004_Node000006"><a xlink:title=" ">
<path fill="none" stroke="#63b8ff" d="M996.57,-56.26C935.47,-47.55 843.85,-34.38 754.82,-21.14"/>
<polygon fill="#63b8ff" stroke="#63b8ff" points="755.6,-17.72 745.19,-19.71 754.57,-24.64 755.6,-17.72"/>
</a>
</g>
</g>
<!-- Node4&#45;&gt;Node7 -->
<g id="edge6_Node000004_Node000007" class="edge">
<title>Node4&#45;&gt;Node7</title>
<g id="a_edge6_Node000004_Node000007"><a xlink:title=" ">
<path fill="none" stroke="#63b8ff" d="M982.89,-57.57C979.93,-57.29 977,-57.02 974.12,-56.75 810.39,-41.59 618.76,-26.18 511.92,-17.79"/>
<polygon fill="#63b8ff" stroke="#63b8ff" points="512.33,-14.31 502.09,-17.02 511.78,-21.29 512.33,-14.31"/>
</a>
</g>
</g>
<!-- Node8 -->
<g id="Node000008" class="node">
<title>Node8</title>
<g id="a_Node000008"><a xlink:title=" ">
<polygon fill="#e0e0e0" stroke="#999999" points="926.75,-20.75 761.5,-20.75 761.5,0 926.75,0 926.75,-20.75"/>
<text text-anchor="middle" x="844.12" y="-7.25" font-family="Helvetica,sans-Serif" font-size="10.00">llvm/ADT/SlowDynamicAPInt.h</text>
</a>
</g>
</g>
<!-- Node4&#45;&gt;Node8 -->
<g id="edge7_Node000004_Node000008" class="edge">
<title>Node4&#45;&gt;Node8</title>
<g id="a_edge7_Node000004_Node000008"><a xlink:title=" ">
<path fill="none" stroke="#63b8ff" d="M1026.18,-56.27C989.52,-47.23 935.01,-33.79 895.19,-23.97"/>
<polygon fill="#63b8ff" stroke="#63b8ff" points="896.14,-20.6 885.59,-21.6 894.46,-27.39 896.14,-20.6"/>
</a>
</g>
</g>
<!-- Node9 -->
<g id="Node000009" class="node">
<title>Node9</title>
<g id="a_Node000009"><a xlink:title=" ">
<polygon fill="#e0e0e0" stroke="#999999" points="1061.75,-20.75 944.5,-20.75 944.5,0 1061.75,0 1061.75,-20.75"/>
<text text-anchor="middle" x="1003.12" y="-7.25" font-family="Helvetica,sans-Serif" font-size="10.00">llvm/ADT/StringRef.h</text>
</a>
</g>
</g>
<!-- Node4&#45;&gt;Node9 -->
<g id="edge8_Node000004_Node000009" class="edge">
<title>Node4&#45;&gt;Node9</title>
<g id="a_edge8_Node000004_Node000009"><a xlink:title=" ">
<path fill="none" stroke="#63b8ff" d="M1054.86,-56.34C1045.99,-48.63 1033.41,-37.7 1022.88,-28.54"/>
<polygon fill="#63b8ff" stroke="#63b8ff" points="1025.28,-25.99 1015.43,-22.07 1020.69,-31.27 1025.28,-25.99"/>
</a>
</g>
</g>
<!-- Node11 -->
<g id="Node000011" class="node">
<title>Node11</title>
<g id="a_Node000011"><a xlink:title=" ">
<polygon fill="#e0e0e0" stroke="#999999" points="1676.75,-20.75 1559.5,-20.75 1559.5,0 1676.75,0 1676.75,-20.75"/>
<text text-anchor="middle" x="1618.12" y="-7.25" font-family="Helvetica,sans-Serif" font-size="10.00">mlir/IR/Diagnostics.h</text>
</a>
</g>
</g>
<!-- Node10&#45;&gt;Node11 -->
<g id="edge10_Node000010_Node000011" class="edge">
<title>Node10&#45;&gt;Node11</title>
<g id="a_edge10_Node000010_Node000011"><a xlink:title=" ">
<path fill="none" stroke="#63b8ff" d="M1484.27,-56.34C1510.49,-47.53 1549.27,-34.5 1578.34,-24.74"/>
<polygon fill="#63b8ff" stroke="#63b8ff" points="1579.16,-28.15 1587.53,-21.65 1576.93,-21.52 1579.16,-28.15"/>
</a>
</g>
</g>
<!-- Node12 -->
<g id="Node000012" class="node">
<title>Node12</title>
<g id="a_Node000012"><a xlink:title=" ">
<polygon fill="#e0e0e0" stroke="#999999" points="1803.25,-20.75 1695,-20.75 1695,0 1803.25,0 1803.25,-20.75"/>
<text text-anchor="middle" x="1749.12" y="-7.25" font-family="Helvetica,sans-Serif" font-size="10.00">mlir/IR/Operation.h</text>
</a>
</g>
</g>
<!-- Node10&#45;&gt;Node12 -->
<g id="edge11_Node000010_Node000012" class="edge">
<title>Node10&#45;&gt;Node12</title>
<g id="a_edge11_Node000010_Node000012"><a xlink:title=" ">
<path fill="none" stroke="#63b8ff" d="M1508.03,-56.27C1557.62,-47.04 1631.87,-33.21 1684.85,-23.34"/>
<polygon fill="#63b8ff" stroke="#63b8ff" points="1685.48,-26.79 1694.67,-21.52 1684.19,-19.91 1685.48,-26.79"/>
</a>
</g>
</g>
<!-- Node13 -->
<g id="Node000013" class="node">
<title>Node13</title>
<g id="a_Node000013"><a xlink:title=" ">
<polygon fill="#e0e0e0" stroke="#999999" points="1992.75,-20.75 1821.5,-20.75 1821.5,0 1992.75,0 1992.75,-20.75"/>
<text text-anchor="middle" x="1907.12" y="-7.25" font-family="Helvetica,sans-Serif" font-size="10.00">llvm/ADT/STLFunctionalExtras.h</text>
</a>
</g>
</g>
<!-- Node10&#45;&gt;Node13 -->
<g id="edge12_Node000010_Node000013" class="edge">
<title>Node10&#45;&gt;Node13</title>
<g id="a_edge12_Node000010_Node000013"><a xlink:title=" ">
<path fill="none" stroke="#63b8ff" d="M1515.61,-58.8C1592.32,-49.51 1725.33,-33.4 1814.77,-22.56"/>
<polygon fill="#63b8ff" stroke="#63b8ff" points="1814.99,-26.06 1824.49,-21.38 1814.15,-19.11 1814.99,-26.06"/>
</a>
</g>
</g>
<!-- Node14 -->
<g id="Node000014" class="node">
<title>Node14</title>
<g id="a_Node000014"><a xlink:title=" ">
<polygon fill="#e0e0e0" stroke="#999999" points="1297.5,-20.75 1196.75,-20.75 1196.75,0 1297.5,0 1297.5,-20.75"/>
<text text-anchor="middle" x="1247.12" y="-7.25" font-family="Helvetica,sans-Serif" font-size="10.00">llvm/ADT/Twine.h</text>
</a>
</g>
</g>
<!-- Node10&#45;&gt;Node14 -->
<g id="edge13_Node000010_Node000014" class="edge">
<title>Node10&#45;&gt;Node14</title>
<g id="a_edge13_Node000010_Node000014"><a xlink:title=" ">
<path fill="none" stroke="#63b8ff" d="M1417.94,-56.34C1383.73,-47.33 1332.81,-33.93 1295.46,-24.1"/>
<polygon fill="#63b8ff" stroke="#63b8ff" points="1296.36,-20.72 1285.8,-21.56 1294.58,-27.49 1296.36,-20.72"/>
</a>
</g>
</g>
<!-- Node15 -->
<g id="Node000015" class="node">
<title>Node15</title>
<g id="a_Node000015"><a xlink:title=" ">
<polygon fill="#e0e0e0" stroke="#999999" points="1472.62,-20.75 1315.62,-20.75 1315.62,0 1472.62,0 1472.62,-20.75"/>
<text text-anchor="middle" x="1394.12" y="-7.25" font-family="Helvetica,sans-Serif" font-size="10.00">llvm/Support/ErrorHandling.h</text>
</a>
</g>
</g>
<!-- Node10&#45;&gt;Node15 -->
<g id="edge14_Node000010_Node000015" class="edge">
<title>Node10&#45;&gt;Node15</title>
<g id="a_edge14_Node000010_Node000015"><a xlink:title=" ">
<path fill="none" stroke="#63b8ff" d="M1444.22,-56.34C1435.63,-48.63 1423.45,-37.7 1413.25,-28.54"/>
<polygon fill="#63b8ff" stroke="#63b8ff" points="1415.84,-26.16 1406.06,-22.09 1411.17,-31.37 1415.84,-26.16"/>
</a>
</g>
</g>
<!-- Node16 -->
<g id="Node000016" class="node">
<title>Node16</title>
<g id="a_Node000016"><a xlink:title=" ">
<polygon fill="#e0e0e0" stroke="#999999" points="1541.38,-20.75 1490.88,-20.75 1490.88,0 1541.38,0 1541.38,-20.75"/>
<text text-anchor="middle" x="1516.12" y="-7.25" font-family="Helvetica,sans-Serif" font-size="10.00">variant</text>
</a>
</g>
</g>
<!-- Node10&#45;&gt;Node16 -->
<g id="edge15_Node000010_Node000016" class="edge">
<title>Node10&#45;&gt;Node16</title>
<g id="a_edge15_Node000010_Node000016"><a xlink:title=" ">
<path fill="none" stroke="#63b8ff" d="M1466.03,-56.34C1474.62,-48.63 1486.8,-37.7 1497,-28.54"/>
<polygon fill="#63b8ff" stroke="#63b8ff" points="1499.08,-31.37 1504.19,-22.09 1494.41,-26.16 1499.08,-31.37"/>
</a>
</g>
</g>
</g>
</svg>
