<?xml version="1.0" encoding="UTF-8" standalone="no"?>
<!DOCTYPE svg PUBLIC "-//W3C//DTD SVG 1.1//EN"
 "http://www.w3.org/Graphics/SVG/1.1/DTD/svg11.dtd">
<!-- Generated by graphviz version 12.2.1 (0)
 -->
<!-- Title: lib/Analysis/Intervals.cpp Pages: 1 -->
<svg width="2315pt" height="256pt"
 viewBox="0.00 0.00 2315.38 255.75" xmlns="http://www.w3.org/2000/svg" xmlns:xlink="http://www.w3.org/1999/xlink">
<g id="graph0" class="graph" transform="scale(1 1) rotate(0) translate(4 251.75)">
<title>lib/Analysis/Intervals.cpp</title>
<!-- Node1 -->
<g id="Node000001" class="node">
<title>Node1</title>
<g id="a_Node000001"><a xlink:title=" ">
<polygon fill="#999999" stroke="#666666" points="1468.88,-247.75 1330.62,-247.75 1330.62,-227 1468.88,-227 1468.88,-247.75"/>
<text text-anchor="middle" x="1399.75" y="-234.25" font-family="Helvetica,sans-Serif" font-size="10.00">lib/Analysis/Intervals.cpp</text>
</a>
</g>
</g>
<!-- Node2 -->
<g id="Node000002" class="node">
<title>Node2</title>
<g id="a_Node000002"><a xlink:href="Intervals_8h.html" target="_top" xlink:title=" ">
<polygon fill="white" stroke="#666666" points="1306.88,-191 1174.62,-191 1174.62,-170.25 1306.88,-170.25 1306.88,-191"/>
<text text-anchor="middle" x="1240.75" y="-177.5" font-family="Helvetica,sans-Serif" font-size="10.00">llzk/Analysis/Intervals.h</text>
</a>
</g>
</g>
<!-- Node1&#45;&gt;Node2 -->
<g id="edge1_Node000001_Node000002" class="edge">
<title>Node1&#45;&gt;Node2</title>
<g id="a_edge1_Node000001_Node000002"><a xlink:title=" ">
<path fill="none" stroke="#63b8ff" d="M1371.32,-226.59C1345.85,-217.82 1308.25,-204.87 1279.93,-195.12"/>
<polygon fill="#63b8ff" stroke="#63b8ff" points="1281.22,-191.86 1270.63,-191.91 1278.94,-198.48 1281.22,-191.86"/>
</a>
</g>
</g>
<!-- Node4 -->
<g id="Node000004" class="node">
<title>Node4</title>
<g id="a_Node000004"><a xlink:href="DynamicAPIntHelper_8h.html" target="_top" xlink:title="This file implements helper methods for constructing DynamicAPInts.">
<polygon fill="white" stroke="#666666" points="1463.75,-77.5 1297.75,-77.5 1297.75,-56.75 1463.75,-56.75 1463.75,-77.5"/>
<text text-anchor="middle" x="1380.75" y="-64" font-family="Helvetica,sans-Serif" font-size="10.00">llzk/Util/DynamicAPIntHelper.h</text>
</a>
</g>
</g>
<!-- Node1&#45;&gt;Node4 -->
<g id="edge29_Node000001_Node000004" class="edge">
<title>Node1&#45;&gt;Node4</title>
<g id="a_edge29_Node000001_Node000004"><a xlink:title=" ">
<path fill="none" stroke="#63b8ff" d="M1398.67,-226.85C1395.7,-200.48 1387.29,-126.08 1383.14,-89.28"/>
<polygon fill="#63b8ff" stroke="#63b8ff" points="1386.63,-89.02 1382.03,-79.47 1379.68,-89.8 1386.63,-89.02"/>
</a>
</g>
</g>
<!-- Node10 -->
<g id="Node000010" class="node">
<title>Node10</title>
<g id="a_Node000010"><a xlink:href="ErrorHelper_8h.html" target="_top" xlink:title=" ">
<polygon fill="white" stroke="#666666" points="1829.88,-77.5 1709.62,-77.5 1709.62,-56.75 1829.88,-56.75 1829.88,-77.5"/>
<text text-anchor="middle" x="1769.75" y="-64" font-family="Helvetica,sans-Serif" font-size="10.00">llzk/Util/ErrorHelper.h</text>
</a>
</g>
</g>
<!-- Node1&#45;&gt;Node10 -->
<g id="edge30_Node000001_Node000010" class="edge">
<title>Node1&#45;&gt;Node10</title>
<g id="a_edge30_Node000001_Node000010"><a xlink:title=" ">
<path fill="none" stroke="#63b8ff" d="M1402.72,-226.76C1407.66,-212.36 1418.92,-185.29 1437.75,-170.25 1513.68,-109.62 1625.55,-84.85 1698.04,-74.83"/>
<polygon fill="#63b8ff" stroke="#63b8ff" points="1698.37,-78.31 1707.83,-73.54 1697.46,-71.37 1698.37,-78.31"/>
</a>
</g>
</g>
<!-- Node29 -->
<g id="Node000029" class="node">
<title>Node29</title>
<g id="a_Node000029"><a xlink:title=" ">
<polygon fill="#e0e0e0" stroke="#999999" points="1577.12,-191 1446.38,-191 1446.38,-170.25 1577.12,-170.25 1577.12,-191"/>
<text text-anchor="middle" x="1511.75" y="-177.5" font-family="Helvetica,sans-Serif" font-size="10.00">llvm/ADT/SmallVector.h</text>
</a>
</g>
</g>
<!-- Node1&#45;&gt;Node29 -->
<g id="edge31_Node000001_Node000029" class="edge">
<title>Node1&#45;&gt;Node29</title>
<g id="a_edge31_Node000001_Node000029"><a xlink:title=" ">
<path fill="none" stroke="#63b8ff" d="M1419.77,-226.59C1436.97,-218.18 1462.03,-205.93 1481.65,-196.34"/>
<polygon fill="#63b8ff" stroke="#63b8ff" points="1483.09,-199.53 1490.54,-191.99 1480.02,-193.24 1483.09,-199.53"/>
</a>
</g>
</g>
<!-- Node3 -->
<g id="Node000003" class="node">
<title>Node3</title>
<g id="a_Node000003"><a xlink:href="Field_8h.html" target="_top" xlink:title=" ">
<polygon fill="white" stroke="#666666" points="789.12,-134.25 700.38,-134.25 700.38,-113.5 789.12,-113.5 789.12,-134.25"/>
<text text-anchor="middle" x="744.75" y="-120.75" font-family="Helvetica,sans-Serif" font-size="10.00">llzk/Util/Field.h</text>
</a>
</g>
</g>
<!-- Node2&#45;&gt;Node3 -->
<g id="edge2_Node000002_Node000003" class="edge">
<title>Node2&#45;&gt;Node3</title>
<g id="a_edge2_Node000002_Node000003"><a xlink:title=" ">
<path fill="none" stroke="#63b8ff" d="M1174.37,-172.3C1075.9,-161.43 892.85,-141.22 800.75,-131.06"/>
<polygon fill="#63b8ff" stroke="#63b8ff" points="801.27,-127.59 790.95,-129.97 800.5,-134.55 801.27,-127.59"/>
</a>
</g>
</g>
<!-- Node27 -->
<g id="Node000027" class="node">
<title>Node27</title>
<g id="a_Node000027"><a xlink:title=" ">
<polygon fill="#e0e0e0" stroke="#999999" points="1231.38,-134.25 1078.12,-134.25 1078.12,-113.5 1231.38,-113.5 1231.38,-134.25"/>
<text text-anchor="middle" x="1154.75" y="-120.75" font-family="Helvetica,sans-Serif" font-size="10.00">mlir/Support/LogicalResult.h</text>
</a>
</g>
</g>
<!-- Node2&#45;&gt;Node27 -->
<g id="edge27_Node000002_Node000027" class="edge">
<title>Node2&#45;&gt;Node27</title>
<g id="a_edge27_Node000002_Node000027"><a xlink:title=" ">
<path fill="none" stroke="#63b8ff" d="M1225.37,-169.84C1212.66,-161.74 1194.35,-150.08 1179.56,-140.67"/>
<polygon fill="#63b8ff" stroke="#63b8ff" points="1181.58,-137.81 1171.27,-135.39 1177.82,-143.71 1181.58,-137.81"/>
</a>
</g>
</g>
<!-- Node28 -->
<g id="Node000028" class="node">
<title>Node28</title>
<g id="a_Node000028"><a xlink:title=" ">
<polygon fill="#e0e0e0" stroke="#999999" points="1312.38,-134.25 1249.12,-134.25 1249.12,-113.5 1312.38,-113.5 1312.38,-134.25"/>
<text text-anchor="middle" x="1280.75" y="-120.75" font-family="Helvetica,sans-Serif" font-size="10.00">algorithm</text>
</a>
</g>
</g>
<!-- Node2&#45;&gt;Node28 -->
<g id="edge28_Node000002_Node000028" class="edge">
<title>Node2&#45;&gt;Node28</title>
<g id="a_edge28_Node000002_Node000028"><a xlink:title=" ">
<path fill="none" stroke="#63b8ff" d="M1247.9,-169.84C1253.19,-162.6 1260.56,-152.51 1266.98,-143.72"/>
<polygon fill="#63b8ff" stroke="#63b8ff" points="1269.69,-145.94 1272.77,-135.8 1264.04,-141.81 1269.69,-145.94"/>
</a>
</g>
</g>
<!-- Node3&#45;&gt;Node4 -->
<g id="edge3_Node000003_Node000004" class="edge">
<title>Node3&#45;&gt;Node4</title>
<g id="a_edge3_Node000003_Node000004"><a xlink:title=" ">
<path fill="none" stroke="#63b8ff" d="M789.55,-119.42C880.79,-112.32 1094.97,-95.34 1286.12,-77.73"/>
<polygon fill="#63b8ff" stroke="#63b8ff" points="1286.37,-81.22 1296,-76.82 1285.73,-74.25 1286.37,-81.22"/>
</a>
</g>
</g>
<!-- Node7 -->
<g id="Node000007" class="node">
<title>Node7</title>
<g id="a_Node000007"><a xlink:title=" ">
<polygon fill="#e0e0e0" stroke="#999999" points="822.75,-20.75 680.75,-20.75 680.75,0 822.75,0 822.75,-20.75"/>
<text text-anchor="middle" x="751.75" y="-7.25" font-family="Helvetica,sans-Serif" font-size="10.00">llvm/ADT/DynamicAPInt.h</text>
</a>
</g>
</g>
<!-- Node3&#45;&gt;Node7 -->
<g id="edge20_Node000003_Node000007" class="edge">
<title>Node3&#45;&gt;Node7</title>
<g id="a_edge20_Node000003_Node000007"><a xlink:title=" ">
<path fill="none" stroke="#63b8ff" d="M699.92,-119.22C645.24,-112.97 563.62,-96.75 593.75,-56.75 604.56,-42.39 642.99,-31.18 679.24,-23.49"/>
<polygon fill="#63b8ff" stroke="#63b8ff" points="679.8,-26.95 688.9,-21.52 678.41,-20.09 679.8,-26.95"/>
</a>
</g>
</g>
<!-- Node3&#45;&gt;Node10 -->
<g id="edge9_Node000003_Node000010" class="edge">
<title>Node3&#45;&gt;Node10</title>
<g id="a_edge9_Node000003_Node000010"><a xlink:title=" ">
<path fill="none" stroke="#63b8ff" d="M789.45,-120.49C950.2,-111.9 1499.84,-82.54 1697.89,-71.96"/>
<polygon fill="#63b8ff" stroke="#63b8ff" points="1697.99,-75.46 1707.79,-71.43 1697.62,-68.47 1697.99,-75.46"/>
</a>
</g>
</g>
<!-- Node17 -->
<g id="Node000017" class="node">
<title>Node17</title>
<g id="a_Node000017"><a xlink:title=" ">
<polygon fill="#e0e0e0" stroke="#999999" points="742.62,-77.5 602.88,-77.5 602.88,-56.75 742.62,-56.75 742.62,-77.5"/>
<text text-anchor="middle" x="672.75" y="-64" font-family="Helvetica,sans-Serif" font-size="10.00">mlir/IR/BuiltinAttributes.h</text>
</a>
</g>
</g>
<!-- Node3&#45;&gt;Node17 -->
<g id="edge16_Node000003_Node000017" class="edge">
<title>Node3&#45;&gt;Node17</title>
<g id="a_edge16_Node000003_Node000017"><a xlink:title=" ">
<path fill="none" stroke="#63b8ff" d="M731.88,-113.09C721.54,-105.22 706.78,-94 694.6,-84.74"/>
<polygon fill="#63b8ff" stroke="#63b8ff" points="696.79,-82.01 686.72,-78.74 692.56,-87.58 696.79,-82.01"/>
</a>
</g>
</g>
<!-- Node18 -->
<g id="Node000018" class="node">
<title>Node18</title>
<g id="a_Node000018"><a xlink:title=" ">
<polygon fill="#e0e0e0" stroke="#999999" points="871,-77.5 760.5,-77.5 760.5,-56.75 871,-56.75 871,-77.5"/>
<text text-anchor="middle" x="815.75" y="-64" font-family="Helvetica,sans-Serif" font-size="10.00">mlir/IR/BuiltinOps.h</text>
</a>
</g>
</g>
<!-- Node3&#45;&gt;Node18 -->
<g id="edge17_Node000003_Node000018" class="edge">
<title>Node3&#45;&gt;Node18</title>
<g id="a_edge17_Node000003_Node000018"><a xlink:title=" ">
<path fill="none" stroke="#63b8ff" d="M757.44,-113.09C767.64,-105.22 782.19,-94 794.21,-84.74"/>
<polygon fill="#63b8ff" stroke="#63b8ff" points="796.19,-87.63 801.97,-78.75 791.91,-82.09 796.19,-87.63"/>
</a>
</g>
</g>
<!-- Node19 -->
<g id="Node000019" class="node">
<title>Node19</title>
<g id="a_Node000019"><a xlink:title=" ">
<polygon fill="#e0e0e0" stroke="#999999" points="1002.5,-77.5 889,-77.5 889,-56.75 1002.5,-56.75 1002.5,-77.5"/>
<text text-anchor="middle" x="945.75" y="-64" font-family="Helvetica,sans-Serif" font-size="10.00">mlir/Support/LLVM.h</text>
</a>
</g>
</g>
<!-- Node3&#45;&gt;Node19 -->
<g id="edge18_Node000003_Node000019" class="edge">
<title>Node3&#45;&gt;Node19</title>
<g id="a_edge18_Node000003_Node000019"><a xlink:title=" ">
<path fill="none" stroke="#63b8ff" d="M780.68,-113.09C813.74,-104.08 862.95,-90.68 899.04,-80.85"/>
<polygon fill="#63b8ff" stroke="#63b8ff" points="899.6,-84.32 908.33,-78.32 897.76,-77.57 899.6,-84.32"/>
</a>
</g>
</g>
<!-- Node20 -->
<g id="Node000020" class="node">
<title>Node20</title>
<g id="a_Node000020"><a xlink:title=" ">
<polygon fill="#e0e0e0" stroke="#999999" points="1145.12,-77.5 1020.38,-77.5 1020.38,-56.75 1145.12,-56.75 1145.12,-77.5"/>
<text text-anchor="middle" x="1082.75" y="-64" font-family="Helvetica,sans-Serif" font-size="10.00">llvm/ADT/DenseMap.h</text>
</a>
</g>
</g>
<!-- Node3&#45;&gt;Node20 -->
<g id="edge19_Node000003_Node000020" class="edge">
<title>Node3&#45;&gt;Node20</title>
<g id="a_edge19_Node000003_Node000020"><a xlink:title=" ">
<path fill="none" stroke="#63b8ff" d="M789.29,-115.66C845.63,-106.53 943.39,-90.7 1010.49,-79.83"/>
<polygon fill="#63b8ff" stroke="#63b8ff" points="1011,-83.29 1020.32,-78.24 1009.88,-76.38 1011,-83.29"/>
</a>
</g>
</g>
<!-- Node21 -->
<g id="Node000021" class="node">
<title>Node21</title>
<g id="a_Node000021"><a xlink:title=" ">
<polygon fill="#e0e0e0" stroke="#999999" points="1280,-77.5 1163.5,-77.5 1163.5,-56.75 1280,-56.75 1280,-77.5"/>
<text text-anchor="middle" x="1221.75" y="-64" font-family="Helvetica,sans-Serif" font-size="10.00">llvm/ADT/SmallSet.h</text>
</a>
</g>
</g>
<!-- Node3&#45;&gt;Node21 -->
<g id="edge21_Node000003_Node000021" class="edge">
<title>Node3&#45;&gt;Node21</title>
<g id="a_edge21_Node000003_Node000021"><a xlink:title=" ">
<path fill="none" stroke="#63b8ff" d="M789.58,-118.29C862.9,-110.72 1013.32,-94.81 1151.92,-77.7"/>
<polygon fill="#63b8ff" stroke="#63b8ff" points="1152.16,-81.19 1161.66,-76.49 1151.3,-74.25 1152.16,-81.19"/>
</a>
</g>
</g>
<!-- Node22 -->
<g id="Node000022" class="node">
<title>Node22</title>
<g id="a_Node000022"><a xlink:title=" ">
<polygon fill="#e0e0e0" stroke="#999999" points="155.5,-77.5 0,-77.5 0,-56.75 155.5,-56.75 155.5,-77.5"/>
<text text-anchor="middle" x="77.75" y="-64" font-family="Helvetica,sans-Serif" font-size="10.00">llvm/Support/LogicalResult.h</text>
</a>
</g>
</g>
<!-- Node3&#45;&gt;Node22 -->
<g id="edge22_Node000003_Node000022" class="edge">
<title>Node3&#45;&gt;Node22</title>
<g id="a_edge22_Node000003_Node000022"><a xlink:title=" ">
<path fill="none" stroke="#63b8ff" d="M699.96,-119.82C604.3,-113.2 372.7,-96.65 167.3,-77.71"/>
<polygon fill="#63b8ff" stroke="#63b8ff" points="167.78,-74.24 157.5,-76.81 167.14,-81.21 167.78,-74.24"/>
</a>
</g>
</g>
<!-- Node23 -->
<g id="Node000023" class="node">
<title>Node23</title>
<g id="a_Node000023"><a xlink:title=" ">
<polygon fill="#e0e0e0" stroke="#999999" points="299.88,-77.5 173.62,-77.5 173.62,-56.75 299.88,-56.75 299.88,-77.5"/>
<text text-anchor="middle" x="236.75" y="-64" font-family="Helvetica,sans-Serif" font-size="10.00">llvm/Support/SMTAPI.h</text>
</a>
</g>
</g>
<!-- Node3&#45;&gt;Node23 -->
<g id="edge23_Node000003_Node000023" class="edge">
<title>Node3&#45;&gt;Node23</title>
<g id="a_edge23_Node000003_Node000023"><a xlink:title=" ">
<path fill="none" stroke="#63b8ff" d="M699.94,-118.56C622.94,-111.06 460.3,-94.88 311.21,-77.64"/>
<polygon fill="#63b8ff" stroke="#63b8ff" points="311.89,-74.2 301.55,-76.52 311.08,-81.15 311.89,-74.2"/>
</a>
</g>
</g>
<!-- Node24 -->
<g id="Node000024" class="node">
<title>Node24</title>
<g id="a_Node000024"><a xlink:title=" ">
<polygon fill="#e0e0e0" stroke="#999999" points="383.12,-77.5 318.38,-77.5 318.38,-56.75 383.12,-56.75 383.12,-77.5"/>
<text text-anchor="middle" x="350.75" y="-64" font-family="Helvetica,sans-Serif" font-size="10.00">functional</text>
</a>
</g>
</g>
<!-- Node3&#45;&gt;Node24 -->
<g id="edge24_Node000003_Node000024" class="edge">
<title>Node3&#45;&gt;Node24</title>
<g id="a_edge24_Node000003_Node000024"><a xlink:title=" ">
<path fill="none" stroke="#63b8ff" d="M699.96,-118.52C634.83,-111.89 509.97,-98.02 394.51,-77.85"/>
<polygon fill="#63b8ff" stroke="#63b8ff" points="395.31,-74.44 384.86,-76.15 394.09,-81.34 395.31,-74.44"/>
</a>
</g>
</g>
<!-- Node25 -->
<g id="Node000025" class="node">
<title>Node25</title>
<g id="a_Node000025"><a xlink:title=" ">
<polygon fill="#e0e0e0" stroke="#999999" points="456.62,-77.5 400.88,-77.5 400.88,-56.75 456.62,-56.75 456.62,-77.5"/>
<text text-anchor="middle" x="428.75" y="-64" font-family="Helvetica,sans-Serif" font-size="10.00">optional</text>
</a>
</g>
</g>
<!-- Node3&#45;&gt;Node25 -->
<g id="edge25_Node000003_Node000025" class="edge">
<title>Node3&#45;&gt;Node25</title>
<g id="a_edge25_Node000003_Node000025"><a xlink:title=" ">
<path fill="none" stroke="#63b8ff" d="M700.08,-116.83C647.06,-109.39 555.79,-95.74 468.19,-77.86"/>
<polygon fill="#63b8ff" stroke="#63b8ff" points="468.96,-74.45 458.46,-75.85 467.54,-81.3 468.96,-74.45"/>
</a>
</g>
</g>
<!-- Node26 -->
<g id="Node000026" class="node">
<title>Node26</title>
<g id="a_Node000026"><a xlink:title=" ">
<polygon fill="#e0e0e0" stroke="#999999" points="546.88,-77.5 474.62,-77.5 474.62,-56.75 546.88,-56.75 546.88,-77.5"/>
<text text-anchor="middle" x="510.75" y="-64" font-family="Helvetica,sans-Serif" font-size="10.00">string_view</text>
</a>
</g>
</g>
<!-- Node3&#45;&gt;Node26 -->
<g id="edge26_Node000003_Node000026" class="edge">
<title>Node3&#45;&gt;Node26</title>
<g id="a_edge26_Node000003_Node000026"><a xlink:title=" ">
<path fill="none" stroke="#63b8ff" d="M702.65,-113.02C662.03,-103.52 600.63,-89.15 558.28,-79.25"/>
<polygon fill="#63b8ff" stroke="#63b8ff" points="559.15,-75.85 548.61,-76.98 557.55,-82.67 559.15,-75.85"/>
</a>
</g>
</g>
<!-- Node5 -->
<g id="Node000005" class="node">
<title>Node5</title>
<g id="a_Node000005"><a xlink:title=" ">
<polygon fill="#e0e0e0" stroke="#999999" points="1493,-20.75 1394.5,-20.75 1394.5,0 1493,0 1493,-20.75"/>
<text text-anchor="middle" x="1443.75" y="-7.25" font-family="Helvetica,sans-Serif" font-size="10.00">llvm/ADT/APInt.h</text>
</a>
</g>
</g>
<!-- Node4&#45;&gt;Node5 -->
<g id="edge4_Node000004_Node000005" class="edge">
<title>Node4&#45;&gt;Node5</title>
<g id="a_edge4_Node000004_Node000005"><a xlink:title=" ">
<path fill="none" stroke="#63b8ff" d="M1392.01,-56.34C1400.88,-48.63 1413.46,-37.7 1424,-28.54"/>
<polygon fill="#63b8ff" stroke="#63b8ff" points="1426.19,-31.27 1431.44,-22.07 1421.6,-25.99 1426.19,-31.27"/>
</a>
</g>
</g>
<!-- Node6 -->
<g id="Node000006" class="node">
<title>Node6</title>
<g id="a_Node000006"><a xlink:title=" ">
<polygon fill="#e0e0e0" stroke="#999999" points="1058,-20.75 953.5,-20.75 953.5,0 1058,0 1058,-20.75"/>
<text text-anchor="middle" x="1005.75" y="-7.25" font-family="Helvetica,sans-Serif" font-size="10.00">llvm/ADT/APSInt.h</text>
</a>
</g>
</g>
<!-- Node4&#45;&gt;Node6 -->
<g id="edge5_Node000004_Node000006" class="edge">
<title>Node4&#45;&gt;Node6</title>
<g id="a_edge5_Node000004_Node000006"><a xlink:title=" ">
<path fill="none" stroke="#63b8ff" d="M1311.19,-56.26C1250.1,-47.55 1158.48,-34.38 1069.44,-21.14"/>
<polygon fill="#63b8ff" stroke="#63b8ff" points="1070.22,-17.72 1059.81,-19.71 1069.19,-24.64 1070.22,-17.72"/>
</a>
</g>
</g>
<!-- Node4&#45;&gt;Node7 -->
<g id="edge6_Node000004_Node000007" class="edge">
<title>Node4&#45;&gt;Node7</title>
<g id="a_edge6_Node000004_Node000007"><a xlink:title=" ">
<path fill="none" stroke="#63b8ff" d="M1297.51,-57.58C1294.56,-57.29 1291.63,-57.02 1288.75,-56.75 1127.86,-41.76 939.65,-26.34 834.2,-17.9"/>
<polygon fill="#63b8ff" stroke="#63b8ff" points="834.77,-14.43 824.52,-17.12 834.21,-21.41 834.77,-14.43"/>
</a>
</g>
</g>
<!-- Node8 -->
<g id="Node000008" class="node">
<title>Node8</title>
<g id="a_Node000008"><a xlink:title=" ">
<polygon fill="#e0e0e0" stroke="#999999" points="1241.38,-20.75 1076.12,-20.75 1076.12,0 1241.38,0 1241.38,-20.75"/>
<text text-anchor="middle" x="1158.75" y="-7.25" font-family="Helvetica,sans-Serif" font-size="10.00">llvm/ADT/SlowDynamicAPInt.h</text>
</a>
</g>
</g>
<!-- Node4&#45;&gt;Node8 -->
<g id="edge7_Node000004_Node000008" class="edge">
<title>Node4&#45;&gt;Node8</title>
<g id="a_edge7_Node000004_Node000008"><a xlink:title=" ">
<path fill="none" stroke="#63b8ff" d="M1340.8,-56.27C1304.14,-47.23 1249.63,-33.79 1209.82,-23.97"/>
<polygon fill="#63b8ff" stroke="#63b8ff" points="1210.77,-20.6 1200.22,-21.6 1209.09,-27.39 1210.77,-20.6"/>
</a>
</g>
</g>
<!-- Node9 -->
<g id="Node000009" class="node">
<title>Node9</title>
<g id="a_Node000009"><a xlink:title=" ">
<polygon fill="#e0e0e0" stroke="#999999" points="1376.38,-20.75 1259.12,-20.75 1259.12,0 1376.38,0 1376.38,-20.75"/>
<text text-anchor="middle" x="1317.75" y="-7.25" font-family="Helvetica,sans-Serif" font-size="10.00">llvm/ADT/StringRef.h</text>
</a>
</g>
</g>
<!-- Node4&#45;&gt;Node9 -->
<g id="edge8_Node000004_Node000009" class="edge">
<title>Node4&#45;&gt;Node9</title>
<g id="a_edge8_Node000004_Node000009"><a xlink:title=" ">
<path fill="none" stroke="#63b8ff" d="M1369.49,-56.34C1360.62,-48.63 1348.04,-37.7 1337.5,-28.54"/>
<polygon fill="#63b8ff" stroke="#63b8ff" points="1339.9,-25.99 1330.06,-22.07 1335.31,-31.27 1339.9,-25.99"/>
</a>
</g>
</g>
<!-- Node11 -->
<g id="Node000011" class="node">
<title>Node11</title>
<g id="a_Node000011"><a xlink:title=" ">
<polygon fill="#e0e0e0" stroke="#999999" points="1991.38,-20.75 1874.12,-20.75 1874.12,0 1991.38,0 1991.38,-20.75"/>
<text text-anchor="middle" x="1932.75" y="-7.25" font-family="Helvetica,sans-Serif" font-size="10.00">mlir/IR/Diagnostics.h</text>
</a>
</g>
</g>
<!-- Node10&#45;&gt;Node11 -->
<g id="edge10_Node000010_Node000011" class="edge">
<title>Node10&#45;&gt;Node11</title>
<g id="a_edge10_Node000010_Node000011"><a xlink:title=" ">
<path fill="none" stroke="#63b8ff" d="M1798.89,-56.34C1825.12,-47.53 1863.89,-34.5 1892.96,-24.74"/>
<polygon fill="#63b8ff" stroke="#63b8ff" points="1893.79,-28.15 1902.15,-21.65 1891.56,-21.52 1893.79,-28.15"/>
</a>
</g>
</g>
<!-- Node12 -->
<g id="Node000012" class="node">
<title>Node12</title>
<g id="a_Node000012"><a xlink:title=" ">
<polygon fill="#e0e0e0" stroke="#999999" points="2117.88,-20.75 2009.62,-20.75 2009.62,0 2117.88,0 2117.88,-20.75"/>
<text text-anchor="middle" x="2063.75" y="-7.25" font-family="Helvetica,sans-Serif" font-size="10.00">mlir/IR/Operation.h</text>
</a>
</g>
</g>
<!-- Node10&#45;&gt;Node12 -->
<g id="edge11_Node000010_Node000012" class="edge">
<title>Node10&#45;&gt;Node12</title>
<g id="a_edge11_Node000010_Node000012"><a xlink:title=" ">
<path fill="none" stroke="#63b8ff" d="M1822.65,-56.27C1872.25,-47.04 1946.49,-33.21 1999.48,-23.34"/>
<polygon fill="#63b8ff" stroke="#63b8ff" points="2000.1,-26.79 2009.29,-21.52 1998.82,-19.91 2000.1,-26.79"/>
</a>
</g>
</g>
<!-- Node13 -->
<g id="Node000013" class="node">
<title>Node13</title>
<g id="a_Node000013"><a xlink:title=" ">
<polygon fill="#e0e0e0" stroke="#999999" points="2307.38,-20.75 2136.12,-20.75 2136.12,0 2307.38,0 2307.38,-20.75"/>
<text text-anchor="middle" x="2221.75" y="-7.25" font-family="Helvetica,sans-Serif" font-size="10.00">llvm/ADT/STLFunctionalExtras.h</text>
</a>
</g>
</g>
<!-- Node10&#45;&gt;Node13 -->
<g id="edge12_Node000010_Node000013" class="edge">
<title>Node10&#45;&gt;Node13</title>
<g id="a_edge12_Node000010_Node000013"><a xlink:title=" ">
<path fill="none" stroke="#63b8ff" d="M1830.24,-58.8C1906.94,-49.51 2039.96,-33.4 2129.39,-22.56"/>
<polygon fill="#63b8ff" stroke="#63b8ff" points="2129.61,-26.06 2139.12,-21.38 2128.77,-19.11 2129.61,-26.06"/>
</a>
</g>
</g>
<!-- Node14 -->
<g id="Node000014" class="node">
<title>Node14</title>
<g id="a_Node000014"><a xlink:title=" ">
<polygon fill="#e0e0e0" stroke="#999999" points="1612.12,-20.75 1511.38,-20.75 1511.38,0 1612.12,0 1612.12,-20.75"/>
<text text-anchor="middle" x="1561.75" y="-7.25" font-family="Helvetica,sans-Serif" font-size="10.00">llvm/ADT/Twine.h</text>
</a>
</g>
</g>
<!-- Node10&#45;&gt;Node14 -->
<g id="edge13_Node000010_Node000014" class="edge">
<title>Node10&#45;&gt;Node14</title>
<g id="a_edge13_Node000010_Node000014"><a xlink:title=" ">
<path fill="none" stroke="#63b8ff" d="M1732.56,-56.34C1698.36,-47.33 1647.43,-33.93 1610.09,-24.1"/>
<polygon fill="#63b8ff" stroke="#63b8ff" points="1610.99,-20.72 1600.43,-21.56 1609.21,-27.49 1610.99,-20.72"/>
</a>
</g>
</g>
<!-- Node15 -->
<g id="Node000015" class="node">
<title>Node15</title>
<g id="a_Node000015"><a xlink:title=" ">
<polygon fill="#e0e0e0" stroke="#999999" points="1787.25,-20.75 1630.25,-20.75 1630.25,0 1787.25,0 1787.25,-20.75"/>
<text text-anchor="middle" x="1708.75" y="-7.25" font-family="Helvetica,sans-Serif" font-size="10.00">llvm/Support/ErrorHandling.h</text>
</a>
</g>
</g>
<!-- Node10&#45;&gt;Node15 -->
<g id="edge14_Node000010_Node000015" class="edge">
<title>Node10&#45;&gt;Node15</title>
<g id="a_edge14_Node000010_Node000015"><a xlink:title=" ">
<path fill="none" stroke="#63b8ff" d="M1758.84,-56.34C1750.26,-48.63 1738.08,-37.7 1727.87,-28.54"/>
<polygon fill="#63b8ff" stroke="#63b8ff" points="1730.47,-26.16 1720.69,-22.09 1725.79,-31.37 1730.47,-26.16"/>
</a>
</g>
</g>
<!-- Node16 -->
<g id="Node000016" class="node">
<title>Node16</title>
<g id="a_Node000016"><a xlink:title=" ">
<polygon fill="#e0e0e0" stroke="#999999" points="1856,-20.75 1805.5,-20.75 1805.5,0 1856,0 1856,-20.75"/>
<text text-anchor="middle" x="1830.75" y="-7.25" font-family="Helvetica,sans-Serif" font-size="10.00">variant</text>
</a>
</g>
</g>
<!-- Node10&#45;&gt;Node16 -->
<g id="edge15_Node000010_Node000016" class="edge">
<title>Node10&#45;&gt;Node16</title>
<g id="a_edge15_Node000010_Node000016"><a xlink:title=" ">
<path fill="none" stroke="#63b8ff" d="M1780.66,-56.34C1789.24,-48.63 1801.42,-37.7 1811.63,-28.54"/>
<polygon fill="#63b8ff" stroke="#63b8ff" points="1813.71,-31.37 1818.81,-22.09 1809.03,-26.16 1813.71,-31.37"/>
</a>
</g>
</g>
</g>
</svg>
