<?xml version="1.0" encoding="UTF-8" standalone="no"?>
<!DOCTYPE svg PUBLIC "-//W3C//DTD SVG 1.1//EN"
 "http://www.w3.org/Graphics/SVG/1.1/DTD/svg11.dtd">
<!-- Generated by graphviz version 12.2.1 (0)
 -->
<!-- Title: lib/Analysis/LightweightSignalEquivalenceAnalysis.cpp Pages: 1 -->
<svg width="2361pt" height="376pt"
 viewBox="0.00 0.00 2361.38 376.25" xmlns="http://www.w3.org/2000/svg" xmlns:xlink="http://www.w3.org/1999/xlink">
<g id="graph0" class="graph" transform="scale(1 1) rotate(0) translate(4 372.25)">
<title>lib/Analysis/LightweightSignalEquivalenceAnalysis.cpp</title>
<!-- Node1 -->
<g id="Node000001" class="node">
<title>Node1</title>
<g id="a_Node000001"><a xlink:title="This file implements a basic signal equivalence analysis.">
<polygon fill="#999999" stroke="#666666" points="2002.62,-368.25 1835.88,-368.25 1835.88,-334.75 2002.62,-334.75 2002.62,-368.25"/>
<text text-anchor="start" x="1843.88" y="-354.75" font-family="Helvetica,sans-Serif" font-size="10.00">lib/Analysis/Lightweight</text>
<text text-anchor="middle" x="1919.25" y="-342" font-family="Helvetica,sans-Serif" font-size="10.00">SignalEquivalenceAnalysis.cpp</text>
</a>
</g>
</g>
<!-- Node2 -->
<g id="Node000002" class="node">
<title>Node2</title>
<g id="a_Node000002"><a xlink:href="LightweightSignalEquivalenceAnalysis_8h.html" target="_top" xlink:title=" ">
<polygon fill="white" stroke="#666666" points="1997,-298.75 1841.5,-298.75 1841.5,-265.25 1997,-265.25 1997,-298.75"/>
<text text-anchor="start" x="1849.5" y="-285.25" font-family="Helvetica,sans-Serif" font-size="10.00">llzk/Analysis/Lightweight</text>
<text text-anchor="middle" x="1919.25" y="-272.5" font-family="Helvetica,sans-Serif" font-size="10.00">SignalEquivalenceAnalysis.h</text>
</a>
</g>
</g>
<!-- Node1&#45;&gt;Node2 -->
<g id="edge1_Node000001_Node000002" class="edge">
<title>Node1&#45;&gt;Node2</title>
<g id="a_edge1_Node000001_Node000002"><a xlink:title=" ">
<path fill="none" stroke="#63b8ff" d="M1919.25,-334.5C1919.25,-327.27 1919.25,-318.53 1919.25,-310.31"/>
<polygon fill="#63b8ff" stroke="#63b8ff" points="1922.75,-310.4 1919.25,-300.4 1915.75,-310.4 1922.75,-310.4"/>
</a>
</g>
</g>
<!-- Node5 -->
<g id="Node000005" class="node">
<title>Node5</title>
<g id="a_Node000005"><a xlink:href="Struct_2IR_2Ops_8h.html" target="_top" xlink:title=" ">
<polygon fill="white" stroke="#666666" points="1025.38,-298.75 923.12,-298.75 923.12,-265.25 1025.38,-265.25 1025.38,-298.75"/>
<text text-anchor="start" x="931.12" y="-285.25" font-family="Helvetica,sans-Serif" font-size="10.00">llzk/Dialect/Struct</text>
<text text-anchor="middle" x="974.25" y="-272.5" font-family="Helvetica,sans-Serif" font-size="10.00">/IR/Ops.h</text>
</a>
</g>
</g>
<!-- Node1&#45;&gt;Node5 -->
<g id="edge4_Node000001_Node000005" class="edge">
<title>Node1&#45;&gt;Node5</title>
<g id="a_edge4_Node000001_Node000005"><a xlink:title=" ">
<path fill="none" stroke="#63b8ff" d="M1835.39,-344.51C1648.68,-331.17 1202.21,-299.28 1037.07,-287.49"/>
<polygon fill="#63b8ff" stroke="#63b8ff" points="1037.4,-284 1027.18,-286.78 1036.9,-290.98 1037.4,-284"/>
</a>
</g>
</g>
<!-- Node44 -->
<g id="Node000044" class="node">
<title>Node44</title>
<g id="a_Node000044"><a xlink:title=" ">
<polygon fill="#e0e0e0" stroke="#999999" points="2137.12,-292.38 2015.38,-292.38 2015.38,-271.62 2137.12,-271.62 2137.12,-292.38"/>
<text text-anchor="middle" x="2076.25" y="-278.88" font-family="Helvetica,sans-Serif" font-size="10.00">llvm/Support/Debug.h</text>
</a>
</g>
</g>
<!-- Node1&#45;&gt;Node44 -->
<g id="edge61_Node000001_Node000044" class="edge">
<title>Node1&#45;&gt;Node44</title>
<g id="a_edge61_Node000001_Node000044"><a xlink:title=" ">
<path fill="none" stroke="#63b8ff" d="M1956.86,-334.33C1983.09,-323.05 2017.78,-308.14 2043.01,-297.29"/>
<polygon fill="#63b8ff" stroke="#63b8ff" points="2044.33,-300.53 2052.13,-293.37 2041.56,-294.1 2044.33,-300.53"/>
</a>
</g>
</g>
<!-- Node3 -->
<g id="Node000003" class="node">
<title>Node3</title>
<g id="a_Node000003"><a xlink:title=" ">
<polygon fill="#e0e0e0" stroke="#999999" points="1126.38,-20.75 1018.12,-20.75 1018.12,0 1126.38,0 1126.38,-20.75"/>
<text text-anchor="middle" x="1072.25" y="-7.25" font-family="Helvetica,sans-Serif" font-size="10.00">mlir/IR/Operation.h</text>
</a>
</g>
</g>
<!-- Node2&#45;&gt;Node3 -->
<g id="edge2_Node000002_Node000003" class="edge">
<title>Node2&#45;&gt;Node3</title>
<g id="a_edge2_Node000002_Node000003"><a xlink:title=" ">
<path fill="none" stroke="#63b8ff" d="M1924.05,-264.79C1935.22,-223.32 1957.86,-112.67 1900.25,-56.75 1873.03,-30.33 1329.12,-16.65 1137.98,-12.65"/>
<polygon fill="#63b8ff" stroke="#63b8ff" points="1138.29,-9.15 1128.22,-12.45 1138.15,-16.15 1138.29,-9.15"/>
</a>
</g>
</g>
<!-- Node4 -->
<g id="Node000004" class="node">
<title>Node4</title>
<g id="a_Node000004"><a xlink:title=" ">
<polygon fill="#e0e0e0" stroke="#999999" points="2117.12,-222.88 1947.38,-222.88 1947.38,-202.12 2117.12,-202.12 2117.12,-222.88"/>
<text text-anchor="middle" x="2032.25" y="-209.38" font-family="Helvetica,sans-Serif" font-size="10.00">llvm/ADT/EquivalenceClasses.h</text>
</a>
</g>
</g>
<!-- Node2&#45;&gt;Node4 -->
<g id="edge3_Node000002_Node000004" class="edge">
<title>Node2&#45;&gt;Node4</title>
<g id="a_edge3_Node000002_Node000004"><a xlink:title=" ">
<path fill="none" stroke="#63b8ff" d="M1946.32,-264.83C1964.44,-254.01 1988.16,-239.84 2006.09,-229.13"/>
<polygon fill="#63b8ff" stroke="#63b8ff" points="2007.8,-232.18 2014.59,-224.05 2004.21,-226.17 2007.8,-232.18"/>
</a>
</g>
</g>
<!-- Node6 -->
<g id="Node000006" class="node">
<title>Node6</title>
<g id="a_Node000006"><a xlink:href="OpTraits_8h.html" target="_top" xlink:title=" ">
<polygon fill="white" stroke="#666666" points="507.75,-229.25 392.75,-229.25 392.75,-195.75 507.75,-195.75 507.75,-229.25"/>
<text text-anchor="start" x="400.75" y="-215.75" font-family="Helvetica,sans-Serif" font-size="10.00">llzk/Dialect/Function</text>
<text text-anchor="middle" x="450.25" y="-203" font-family="Helvetica,sans-Serif" font-size="10.00">/IR/OpTraits.h</text>
</a>
</g>
</g>
<!-- Node5&#45;&gt;Node6 -->
<g id="edge5_Node000005_Node000006" class="edge">
<title>Node5&#45;&gt;Node6</title>
<g id="a_edge5_Node000005_Node000006"><a xlink:title=" ">
<path fill="none" stroke="#63b8ff" d="M923.05,-274.4C828.39,-262.21 625.93,-236.13 519.27,-222.39"/>
<polygon fill="#63b8ff" stroke="#63b8ff" points="519.86,-218.94 509.5,-221.13 518.97,-225.88 519.86,-218.94"/>
</a>
</g>
</g>
<!-- Node9 -->
<g id="Node000009" class="node">
<title>Node9</title>
<g id="a_Node000009"><a xlink:href="LLZK_2IR_2Attrs_8h.html" target="_top" xlink:title=" ">
<polygon fill="white" stroke="#666666" points="237.5,-229.25 127,-229.25 127,-195.75 237.5,-195.75 237.5,-229.25"/>
<text text-anchor="start" x="135" y="-215.75" font-family="Helvetica,sans-Serif" font-size="10.00">llzk/Dialect/LLZK/IR</text>
<text text-anchor="middle" x="182.25" y="-203" font-family="Helvetica,sans-Serif" font-size="10.00">/Attrs.h</text>
</a>
</g>
</g>
<!-- Node5&#45;&gt;Node9 -->
<g id="edge9_Node000005_Node000009" class="edge">
<title>Node5&#45;&gt;Node9</title>
<g id="a_edge9_Node000005_Node000009"><a xlink:title=" ">
<path fill="none" stroke="#63b8ff" d="M922.89,-276.62C784.53,-264.83 403.99,-232.4 249.13,-219.2"/>
<polygon fill="#63b8ff" stroke="#63b8ff" points="249.7,-215.74 239.44,-218.37 249.11,-222.71 249.7,-215.74"/>
</a>
</g>
</g>
<!-- Node12 -->
<g id="Node000012" class="node">
<title>Node12</title>
<g id="a_Node000012"><a xlink:href="OpHelpers_8h.html" target="_top" xlink:title=" ">
<polygon fill="white" stroke="#666666" points="1028,-229.25 920.5,-229.25 920.5,-195.75 1028,-195.75 1028,-229.25"/>
<text text-anchor="start" x="928.5" y="-215.75" font-family="Helvetica,sans-Serif" font-size="10.00">llzk/Dialect/Shared</text>
<text text-anchor="middle" x="974.25" y="-203" font-family="Helvetica,sans-Serif" font-size="10.00">/OpHelpers.h</text>
</a>
</g>
</g>
<!-- Node5&#45;&gt;Node12 -->
<g id="edge12_Node000005_Node000012" class="edge">
<title>Node5&#45;&gt;Node12</title>
<g id="a_edge12_Node000005_Node000012"><a xlink:title=" ">
<path fill="none" stroke="#63b8ff" d="M974.25,-265C974.25,-257.77 974.25,-249.03 974.25,-240.81"/>
<polygon fill="#63b8ff" stroke="#63b8ff" points="977.75,-240.9 974.25,-230.9 970.75,-240.9 977.75,-240.9"/>
</a>
</g>
</g>
<!-- Node25 -->
<g id="Node000025" class="node">
<title>Node25</title>
<g id="a_Node000025"><a xlink:href="Struct_2IR_2Types_8h.html" target="_top" xlink:title=" ">
<polygon fill="white" stroke="#666666" points="1610.38,-229.25 1508.12,-229.25 1508.12,-195.75 1610.38,-195.75 1610.38,-229.25"/>
<text text-anchor="start" x="1516.12" y="-215.75" font-family="Helvetica,sans-Serif" font-size="10.00">llzk/Dialect/Struct</text>
<text text-anchor="middle" x="1559.25" y="-203" font-family="Helvetica,sans-Serif" font-size="10.00">/IR/Types.h</text>
</a>
</g>
</g>
<!-- Node5&#45;&gt;Node25 -->
<g id="edge30_Node000005_Node000025" class="edge">
<title>Node5&#45;&gt;Node25</title>
<g id="a_edge30_Node000005_Node000025"><a xlink:title=" ">
<path fill="none" stroke="#63b8ff" d="M1025.65,-275.07C1132.91,-262.69 1380.22,-234.16 1496.58,-220.73"/>
<polygon fill="#63b8ff" stroke="#63b8ff" points="1496.72,-224.24 1506.25,-219.62 1495.92,-217.28 1496.72,-224.24"/>
</a>
</g>
</g>
<!-- Node41 -->
<g id="Node000041" class="node">
<title>Node41</title>
<g id="a_Node000041"><a xlink:href="Struct_2IR_2Ops_8h_8inc.html" target="_top" xlink:title=" ">
<polygon fill="white" stroke="#666666" points="1837.38,-159.75 1735.12,-159.75 1735.12,-126.25 1837.38,-126.25 1837.38,-159.75"/>
<text text-anchor="start" x="1743.12" y="-146.25" font-family="Helvetica,sans-Serif" font-size="10.00">llzk/Dialect/Struct</text>
<text text-anchor="middle" x="1786.25" y="-133.5" font-family="Helvetica,sans-Serif" font-size="10.00">/IR/Ops.h.inc</text>
</a>
</g>
</g>
<!-- Node5&#45;&gt;Node41 -->
<g id="edge60_Node000005_Node000041" class="edge">
<title>Node5&#45;&gt;Node41</title>
<g id="a_edge60_Node000005_Node000041"><a xlink:title=" ">
<path fill="none" stroke="#63b8ff" d="M1025.71,-279.46C1158.11,-275.08 1507.92,-260.78 1619.25,-229.25 1668.35,-215.34 1719.95,-186.49 1752.57,-166.22"/>
<polygon fill="#63b8ff" stroke="#63b8ff" points="1754.19,-169.34 1760.78,-161.04 1750.45,-163.42 1754.19,-169.34"/>
</a>
</g>
</g>
<!-- Node43 -->
<g id="Node000043" class="node">
<title>Node43</title>
<g id="a_Node000043"><a xlink:href="Struct_2IR_2OpInterfaces_8h_8inc.html" target="_top" xlink:title=" ">
<polygon fill="white" stroke="#666666" points="902.38,-229.25 782.12,-229.25 782.12,-195.75 902.38,-195.75 902.38,-229.25"/>
<text text-anchor="start" x="790.12" y="-215.75" font-family="Helvetica,sans-Serif" font-size="10.00">llzk/Dialect/Struct</text>
<text text-anchor="middle" x="842.25" y="-203" font-family="Helvetica,sans-Serif" font-size="10.00">/IR/OpInterfaces.h.inc</text>
</a>
</g>
</g>
<!-- Node5&#45;&gt;Node43 -->
<g id="edge59_Node000005_Node000043" class="edge">
<title>Node5&#45;&gt;Node43</title>
<g id="a_edge59_Node000005_Node000043"><a xlink:title=" ">
<path fill="none" stroke="#63b8ff" d="M942.63,-264.83C925,-255.82 902.82,-244.48 883.8,-234.75"/>
<polygon fill="#63b8ff" stroke="#63b8ff" points="885.45,-231.66 874.96,-230.23 882.27,-237.89 885.45,-231.66"/>
</a>
</g>
</g>
<!-- Node6&#45;&gt;Node3 -->
<g id="edge7_Node000006_Node000003" class="edge">
<title>Node6&#45;&gt;Node3</title>
<g id="a_edge7_Node000006_Node000003"><a xlink:title=" ">
<path fill="none" stroke="#63b8ff" d="M392.61,-204.42C361.86,-197.76 325.64,-184.83 302.25,-159.75 270.5,-125.71 251.29,-90.6 283.25,-56.75 307.93,-30.61 821.25,-16.85 1006.4,-12.73"/>
<polygon fill="#63b8ff" stroke="#63b8ff" points="1006.41,-16.23 1016.33,-12.51 1006.26,-9.23 1006.41,-16.23"/>
</a>
</g>
</g>
<!-- Node7 -->
<g id="Node000007" class="node">
<title>Node7</title>
<g id="a_Node000007"><a xlink:title=" ">
<polygon fill="#e0e0e0" stroke="#999999" points="432.75,-153.38 311.75,-153.38 311.75,-132.62 432.75,-132.62 432.75,-153.38"/>
<text text-anchor="middle" x="372.25" y="-139.88" font-family="Helvetica,sans-Serif" font-size="10.00">mlir/IR/OpDefinition.h</text>
</a>
</g>
</g>
<!-- Node6&#45;&gt;Node7 -->
<g id="edge6_Node000006_Node000007" class="edge">
<title>Node6&#45;&gt;Node7</title>
<g id="a_edge6_Node000006_Node000007"><a xlink:title=" ">
<path fill="none" stroke="#63b8ff" d="M431.77,-195.5C419.85,-185.19 404.35,-171.78 392.16,-161.23"/>
<polygon fill="#63b8ff" stroke="#63b8ff" points="394.6,-158.71 384.74,-154.81 390.02,-164 394.6,-158.71"/>
</a>
</g>
</g>
<!-- Node8 -->
<g id="Node000008" class="node">
<title>Node8</title>
<g id="a_Node000008"><a xlink:title=" ">
<polygon fill="#e0e0e0" stroke="#999999" points="603.88,-153.38 450.62,-153.38 450.62,-132.62 603.88,-132.62 603.88,-153.38"/>
<text text-anchor="middle" x="527.25" y="-139.88" font-family="Helvetica,sans-Serif" font-size="10.00">mlir/Support/LogicalResult.h</text>
</a>
</g>
</g>
<!-- Node6&#45;&gt;Node8 -->
<g id="edge8_Node000006_Node000008" class="edge">
<title>Node6&#45;&gt;Node8</title>
<g id="a_edge8_Node000006_Node000008"><a xlink:title=" ">
<path fill="none" stroke="#63b8ff" d="M468.5,-195.5C480.26,-185.19 495.56,-171.78 507.59,-161.23"/>
<polygon fill="#63b8ff" stroke="#63b8ff" points="509.7,-164.04 514.91,-154.82 505.08,-158.78 509.7,-164.04"/>
</a>
</g>
</g>
<!-- Node10 -->
<g id="Node000010" class="node">
<title>Node10</title>
<g id="a_Node000010"><a xlink:title=" ">
<polygon fill="#e0e0e0" stroke="#999999" points="236.38,-153.38 128.12,-153.38 128.12,-132.62 236.38,-132.62 236.38,-153.38"/>
<text text-anchor="middle" x="182.25" y="-139.88" font-family="Helvetica,sans-Serif" font-size="10.00">mlir/IR/Attributes.h</text>
</a>
</g>
</g>
<!-- Node9&#45;&gt;Node10 -->
<g id="edge10_Node000009_Node000010" class="edge">
<title>Node9&#45;&gt;Node10</title>
<g id="a_edge10_Node000009_Node000010"><a xlink:title=" ">
<path fill="none" stroke="#63b8ff" d="M182.25,-195.5C182.25,-186.4 182.25,-174.89 182.25,-165.07"/>
<polygon fill="#63b8ff" stroke="#63b8ff" points="185.75,-165.34 182.25,-155.34 178.75,-165.34 185.75,-165.34"/>
</a>
</g>
</g>
<!-- Node11 -->
<g id="Node000011" class="node">
<title>Node11</title>
<g id="a_Node000011"><a xlink:href="LLZK_2IR_2Attrs_8h_8inc.html" target="_top" xlink:title=" ">
<polygon fill="white" stroke="#666666" points="110.5,-159.75 0,-159.75 0,-126.25 110.5,-126.25 110.5,-159.75"/>
<text text-anchor="start" x="8" y="-146.25" font-family="Helvetica,sans-Serif" font-size="10.00">llzk/Dialect/LLZK/IR</text>
<text text-anchor="middle" x="55.25" y="-133.5" font-family="Helvetica,sans-Serif" font-size="10.00">/Attrs.h.inc</text>
</a>
</g>
</g>
<!-- Node9&#45;&gt;Node11 -->
<g id="edge11_Node000009_Node000011" class="edge">
<title>Node9&#45;&gt;Node11</title>
<g id="a_edge11_Node000009_Node000011"><a xlink:title=" ">
<path fill="none" stroke="#63b8ff" d="M151.83,-195.33C134.94,-186.36 113.73,-175.08 95.48,-165.38"/>
<polygon fill="#63b8ff" stroke="#63b8ff" points="97.23,-162.35 86.76,-160.75 93.95,-168.53 97.23,-162.35"/>
</a>
</g>
</g>
<!-- Node12&#45;&gt;Node3 -->
<g id="edge25_Node000012_Node000003" class="edge">
<title>Node12&#45;&gt;Node3</title>
<g id="a_edge25_Node000012_Node000003"><a xlink:title=" ">
<path fill="none" stroke="#63b8ff" d="M961.62,-195.43C939.67,-165.43 899.72,-100.02 931.25,-56.75 948.63,-32.9 978.77,-21.31 1006.73,-15.79"/>
<polygon fill="#63b8ff" stroke="#63b8ff" points="1006.96,-19.3 1016.22,-14.15 1005.77,-12.4 1006.96,-19.3"/>
</a>
</g>
</g>
<!-- Node12&#45;&gt;Node8 -->
<g id="edge27_Node000012_Node000008" class="edge">
<title>Node12&#45;&gt;Node8</title>
<g id="a_edge27_Node000012_Node000008"><a xlink:title=" ">
<path fill="none" stroke="#63b8ff" d="M920.05,-197.49C917.08,-196.87 914.13,-196.28 911.25,-195.75 779.62,-171.47 744.57,-179.95 612.25,-159.75 604.59,-158.58 596.55,-157.24 588.62,-155.85"/>
<polygon fill="#63b8ff" stroke="#63b8ff" points="589.45,-152.44 578.99,-154.12 588.22,-159.33 589.45,-152.44"/>
</a>
</g>
</g>
<!-- Node13 -->
<g id="Node000013" class="node">
<title>Node13</title>
<g id="a_Node000013"><a xlink:href="AffineHelper_8h.html" target="_top" xlink:title=" ">
<polygon fill="white" stroke="#666666" points="747,-153.38 621.5,-153.38 621.5,-132.62 747,-132.62 747,-153.38"/>
<text text-anchor="middle" x="684.25" y="-139.88" font-family="Helvetica,sans-Serif" font-size="10.00">llzk/Util/AffineHelper.h</text>
</a>
</g>
</g>
<!-- Node12&#45;&gt;Node13 -->
<g id="edge13_Node000012_Node000013" class="edge">
<title>Node12&#45;&gt;Node13</title>
<g id="a_edge13_Node000012_Node000013"><a xlink:title=" ">
<path fill="none" stroke="#63b8ff" d="M920.31,-197.94C917.25,-197.19 914.21,-196.46 911.25,-195.75 852.9,-181.81 785.91,-166.64 739.91,-156.35"/>
<polygon fill="#63b8ff" stroke="#63b8ff" points="740.68,-152.94 730.16,-154.17 739.15,-159.77 740.68,-152.94"/>
</a>
</g>
</g>
<!-- Node18 -->
<g id="Node000018" class="node">
<title>Node18</title>
<g id="a_Node000018"><a xlink:title=" ">
<polygon fill="#e0e0e0" stroke="#999999" points="884.12,-83.88 732.38,-83.88 732.38,-63.12 884.12,-63.12 884.12,-83.88"/>
<text text-anchor="middle" x="808.25" y="-70.38" font-family="Helvetica,sans-Serif" font-size="10.00">mlir/IR/OpImplementation.h</text>
</a>
</g>
</g>
<!-- Node12&#45;&gt;Node18 -->
<g id="edge24_Node000012_Node000018" class="edge">
<title>Node12&#45;&gt;Node18</title>
<g id="a_edge24_Node000012_Node000018"><a xlink:title=" ">
<path fill="none" stroke="#63b8ff" d="M948.54,-195.47C933.46,-185.71 914.29,-172.67 898.25,-159.75 871.31,-138.05 842.73,-110 825.18,-92.13"/>
<polygon fill="#63b8ff" stroke="#63b8ff" points="828.05,-90.05 818.56,-85.32 823.03,-94.93 828.05,-90.05"/>
</a>
</g>
</g>
<!-- Node21 -->
<g id="Node000021" class="node">
<title>Node21</title>
<g id="a_Node000021"><a xlink:href="llzk_2Util_2Constants_8h.html" target="_top" xlink:title=" ">
<polygon fill="white" stroke="#666666" points="1644.38,-83.88 1530.12,-83.88 1530.12,-63.12 1644.38,-63.12 1644.38,-83.88"/>
<text text-anchor="middle" x="1587.25" y="-70.38" font-family="Helvetica,sans-Serif" font-size="10.00">llzk/Util/Constants.h</text>
</a>
</g>
</g>
<!-- Node12&#45;&gt;Node21 -->
<g id="edge23_Node000012_Node000021" class="edge">
<title>Node12&#45;&gt;Node21</title>
<g id="a_edge23_Node000012_Node000021"><a xlink:title=" ">
<path fill="none" stroke="#63b8ff" d="M1028.44,-206.32C1097.68,-199.06 1220.94,-183.95 1324.25,-159.75 1407.02,-140.36 1501.14,-107 1551.29,-88.27"/>
<polygon fill="#63b8ff" stroke="#63b8ff" points="1552.35,-91.62 1560.48,-84.82 1549.88,-85.06 1552.35,-91.62"/>
</a>
</g>
</g>
<!-- Node22 -->
<g id="Node000022" class="node">
<title>Node22</title>
<g id="a_Node000022"><a xlink:title=" ">
<polygon fill="#e0e0e0" stroke="#999999" points="1062.5,-83.88 940,-83.88 940,-63.12 1062.5,-63.12 1062.5,-83.88"/>
<text text-anchor="middle" x="1001.25" y="-70.38" font-family="Helvetica,sans-Serif" font-size="10.00">mlir/IR/SymbolTable.h</text>
</a>
</g>
</g>
<!-- Node12&#45;&gt;Node22 -->
<g id="edge26_Node000012_Node000022" class="edge">
<title>Node12&#45;&gt;Node22</title>
<g id="a_edge26_Node000012_Node000022"><a xlink:title=" ">
<path fill="none" stroke="#63b8ff" d="M977.4,-195.52C982.3,-170.67 991.74,-122.77 997.16,-95.27"/>
<polygon fill="#63b8ff" stroke="#63b8ff" points="1000.54,-96.2 999.04,-85.71 993.67,-94.85 1000.54,-96.2"/>
</a>
</g>
</g>
<!-- Node23 -->
<g id="Node000023" class="node">
<title>Node23</title>
<g id="a_Node000023"><a xlink:title=" ">
<polygon fill="#e0e0e0" stroke="#999999" points="1131.88,-153.38 1002.62,-153.38 1002.62,-132.62 1131.88,-132.62 1131.88,-153.38"/>
<text text-anchor="middle" x="1067.25" y="-139.88" font-family="Helvetica,sans-Serif" font-size="10.00">llvm/ADT/SmallString.h</text>
</a>
</g>
</g>
<!-- Node12&#45;&gt;Node23 -->
<g id="edge28_Node000012_Node000023" class="edge">
<title>Node12&#45;&gt;Node23</title>
<g id="a_edge28_Node000012_Node000023"><a xlink:title=" ">
<path fill="none" stroke="#63b8ff" d="M996.29,-195.5C1010.92,-184.89 1030.06,-170.99 1044.78,-160.31"/>
<polygon fill="#63b8ff" stroke="#63b8ff" points="1046.46,-163.42 1052.49,-154.71 1042.34,-157.75 1046.46,-163.42"/>
</a>
</g>
</g>
<!-- Node24 -->
<g id="Node000024" class="node">
<title>Node24</title>
<g id="a_Node000024"><a xlink:title=" ">
<polygon fill="#e0e0e0" stroke="#999999" points="1378.88,-83.88 1261.62,-83.88 1261.62,-63.12 1378.88,-63.12 1378.88,-83.88"/>
<text text-anchor="middle" x="1320.25" y="-70.38" font-family="Helvetica,sans-Serif" font-size="10.00">llvm/ADT/StringRef.h</text>
</a>
</g>
</g>
<!-- Node12&#45;&gt;Node24 -->
<g id="edge29_Node000012_Node000024" class="edge">
<title>Node12&#45;&gt;Node24</title>
<g id="a_edge29_Node000012_Node000024"><a xlink:title=" ">
<path fill="none" stroke="#63b8ff" d="M1028.37,-210.19C1111.17,-207.03 1263.79,-196.27 1302.25,-159.75 1319.44,-143.43 1322.33,-115.15 1321.98,-95.67"/>
<polygon fill="#63b8ff" stroke="#63b8ff" points="1325.49,-95.67 1321.49,-85.86 1318.5,-96.03 1325.49,-95.67"/>
</a>
</g>
</g>
<!-- Node13&#45;&gt;Node3 -->
<g id="edge20_Node000013_Node000003" class="edge">
<title>Node13&#45;&gt;Node3</title>
<g id="a_edge20_Node000013_Node000003"><a xlink:title=" ">
<path fill="none" stroke="#63b8ff" d="M685.63,-132.16C688.74,-113.98 698.1,-75.3 723.25,-56.75 766.94,-24.52 918.15,-15.17 1006.55,-12.47"/>
<polygon fill="#63b8ff" stroke="#63b8ff" points="1006.39,-15.97 1016.29,-12.19 1006.19,-8.98 1006.39,-15.97"/>
</a>
</g>
</g>
<!-- Node14 -->
<g id="Node000014" class="node">
<title>Node14</title>
<g id="a_Node000014"><a xlink:href="Compare_8h.html" target="_top" xlink:title=" ">
<polygon fill="white" stroke="#666666" points="236.12,-83.88 126.38,-83.88 126.38,-63.12 236.12,-63.12 236.12,-83.88"/>
<text text-anchor="middle" x="181.25" y="-70.38" font-family="Helvetica,sans-Serif" font-size="10.00">llzk/Util/Compare.h</text>
</a>
</g>
</g>
<!-- Node13&#45;&gt;Node14 -->
<g id="edge14_Node000013_Node000014" class="edge">
<title>Node13&#45;&gt;Node14</title>
<g id="a_edge14_Node000013_Node000014"><a xlink:title=" ">
<path fill="none" stroke="#63b8ff" d="M643.48,-132.15C633.62,-129.99 623.09,-127.87 613.25,-126.25 467.68,-102.24 429.52,-109.51 283.25,-90.25 271.74,-88.73 259.52,-86.98 247.69,-85.2"/>
<polygon fill="#63b8ff" stroke="#63b8ff" points="248.41,-81.77 238,-83.72 247.36,-88.69 248.41,-81.77"/>
</a>
</g>
</g>
<!-- Node17 -->
<g id="Node000017" class="node">
<title>Node17</title>
<g id="a_Node000017"><a xlink:title=" ">
<polygon fill="#e0e0e0" stroke="#999999" points="392.25,-83.88 292.25,-83.88 292.25,-63.12 392.25,-63.12 392.25,-83.88"/>
<text text-anchor="middle" x="342.25" y="-70.38" font-family="Helvetica,sans-Serif" font-size="10.00">mlir/IR/Builders.h</text>
</a>
</g>
</g>
<!-- Node13&#45;&gt;Node17 -->
<g id="edge18_Node000013_Node000017" class="edge">
<title>Node13&#45;&gt;Node17</title>
<g id="a_edge18_Node000013_Node000017"><a xlink:title=" ">
<path fill="none" stroke="#63b8ff" d="M641.52,-132.16C632.22,-130.12 622.42,-128.04 613.25,-126.25 519.46,-107.9 494.63,-110.6 401.25,-90.25 396.94,-89.31 392.48,-88.26 388.03,-87.16"/>
<polygon fill="#63b8ff" stroke="#63b8ff" points="389.08,-83.82 378.53,-84.74 387.35,-90.6 389.08,-83.82"/>
</a>
</g>
</g>
<!-- Node13&#45;&gt;Node18 -->
<g id="edge19_Node000013_Node000018" class="edge">
<title>Node13&#45;&gt;Node18</title>
<g id="a_edge19_Node000013_Node000018"><a xlink:title=" ">
<path fill="none" stroke="#63b8ff" d="M702.28,-132.18C722.76,-121.04 756.42,-102.71 780.31,-89.71"/>
<polygon fill="#63b8ff" stroke="#63b8ff" points="781.76,-92.91 788.87,-85.05 778.41,-86.76 781.76,-92.91"/>
</a>
</g>
</g>
<!-- Node19 -->
<g id="Node000019" class="node">
<title>Node19</title>
<g id="a_Node000019"><a xlink:title=" ">
<polygon fill="#e0e0e0" stroke="#999999" points="528.25,-83.88 410.25,-83.88 410.25,-63.12 528.25,-63.12 528.25,-83.88"/>
<text text-anchor="middle" x="469.25" y="-70.38" font-family="Helvetica,sans-Serif" font-size="10.00">mlir/IR/ValueRange.h</text>
</a>
</g>
</g>
<!-- Node13&#45;&gt;Node19 -->
<g id="edge21_Node000013_Node000019" class="edge">
<title>Node13&#45;&gt;Node19</title>
<g id="a_edge21_Node000013_Node000019"><a xlink:title=" ">
<path fill="none" stroke="#63b8ff" d="M652.99,-132.18C615.65,-120.46 553.03,-100.8 511.43,-87.74"/>
<polygon fill="#63b8ff" stroke="#63b8ff" points="512.58,-84.44 501.99,-84.78 510.49,-91.12 512.58,-84.44"/>
</a>
</g>
</g>
<!-- Node20 -->
<g id="Node000020" class="node">
<title>Node20</title>
<g id="a_Node000020"><a xlink:title=" ">
<polygon fill="#e0e0e0" stroke="#999999" points="676.62,-83.88 545.88,-83.88 545.88,-63.12 676.62,-63.12 676.62,-83.88"/>
<text text-anchor="middle" x="611.25" y="-70.38" font-family="Helvetica,sans-Serif" font-size="10.00">llvm/ADT/SmallVector.h</text>
</a>
</g>
</g>
<!-- Node13&#45;&gt;Node20 -->
<g id="edge22_Node000013_Node000020" class="edge">
<title>Node13&#45;&gt;Node20</title>
<g id="a_edge22_Node000013_Node000020"><a xlink:title=" ">
<path fill="none" stroke="#63b8ff" d="M673.79,-132.33C662.41,-121.8 643.97,-104.76 630.06,-91.89"/>
<polygon fill="#63b8ff" stroke="#63b8ff" points="632.52,-89.4 622.8,-85.18 627.77,-94.54 632.52,-89.4"/>
</a>
</g>
</g>
<!-- Node14&#45;&gt;Node3 -->
<g id="edge15_Node000014_Node000003" class="edge">
<title>Node14&#45;&gt;Node3</title>
<g id="a_edge15_Node000014_Node000003"><a xlink:title=" ">
<path fill="none" stroke="#63b8ff" d="M219,-62.67C229.09,-60.38 240.03,-58.19 250.25,-56.75 529.7,-17.43 867.07,-11.77 1006.78,-11.24"/>
<polygon fill="#63b8ff" stroke="#63b8ff" points="1006.58,-14.74 1016.57,-11.21 1006.56,-7.74 1006.58,-14.74"/>
</a>
</g>
</g>
<!-- Node15 -->
<g id="Node000015" class="node">
<title>Node15</title>
<g id="a_Node000015"><a xlink:title=" ">
<polygon fill="#e0e0e0" stroke="#999999" points="176,-20.75 116.5,-20.75 116.5,0 176,0 176,-20.75"/>
<text text-anchor="middle" x="146.25" y="-7.25" font-family="Helvetica,sans-Serif" font-size="10.00">concepts</text>
</a>
</g>
</g>
<!-- Node14&#45;&gt;Node15 -->
<g id="edge16_Node000014_Node000015" class="edge">
<title>Node14&#45;&gt;Node15</title>
<g id="a_edge16_Node000014_Node000015"><a xlink:title=" ">
<path fill="none" stroke="#63b8ff" d="M175.63,-62.68C170.7,-54.07 163.39,-41.31 157.3,-30.67"/>
<polygon fill="#63b8ff" stroke="#63b8ff" points="160.5,-29.22 152.5,-22.28 154.43,-32.7 160.5,-29.22"/>
</a>
</g>
</g>
<!-- Node16 -->
<g id="Node000016" class="node">
<title>Node16</title>
<g id="a_Node000016"><a xlink:title=" ">
<polygon fill="#e0e0e0" stroke="#999999" points="238.5,-20.75 194,-20.75 194,0 238.5,0 238.5,-20.75"/>
<text text-anchor="middle" x="216.25" y="-7.25" font-family="Helvetica,sans-Serif" font-size="10.00">utility</text>
</a>
</g>
</g>
<!-- Node14&#45;&gt;Node16 -->
<g id="edge17_Node000014_Node000016" class="edge">
<title>Node14&#45;&gt;Node16</title>
<g id="a_edge17_Node000014_Node000016"><a xlink:title=" ">
<path fill="none" stroke="#63b8ff" d="M186.87,-62.68C191.8,-54.07 199.11,-41.31 205.2,-30.67"/>
<polygon fill="#63b8ff" stroke="#63b8ff" points="208.07,-32.7 210,-22.28 202,-29.22 208.07,-32.7"/>
</a>
</g>
</g>
<!-- Node26 -->
<g id="Node000026" class="node">
<title>Node26</title>
<g id="a_Node000026"><a xlink:href="Struct_2IR_2Dialect_8h.html" target="_top" xlink:title=" ">
<polygon fill="white" stroke="#666666" points="2229.38,-159.75 2127.12,-159.75 2127.12,-126.25 2229.38,-126.25 2229.38,-159.75"/>
<text text-anchor="start" x="2135.12" y="-146.25" font-family="Helvetica,sans-Serif" font-size="10.00">llzk/Dialect/Struct</text>
<text text-anchor="middle" x="2178.25" y="-133.5" font-family="Helvetica,sans-Serif" font-size="10.00">/IR/Dialect.h</text>
</a>
</g>
</g>
<!-- Node25&#45;&gt;Node26 -->
<g id="edge31_Node000025_Node000026" class="edge">
<title>Node25&#45;&gt;Node26</title>
<g id="a_edge31_Node000025_Node000026"><a xlink:title=" ">
<path fill="none" stroke="#63b8ff" d="M1610.7,-205.89C1723.54,-193.59 1992.47,-164.26 2115.22,-150.87"/>
<polygon fill="#63b8ff" stroke="#63b8ff" points="2115.56,-154.36 2125.13,-149.79 2114.8,-147.4 2115.56,-154.36"/>
</a>
</g>
</g>
<!-- Node29 -->
<g id="Node000029" class="node">
<title>Node29</title>
<g id="a_Node000029"><a xlink:href="SymbolLookup_8h.html" target="_top" xlink:title="This file defines methods symbol lookup across LLZK operations and included files.">
<polygon fill="white" stroke="#666666" points="1716.62,-153.38 1579.88,-153.38 1579.88,-132.62 1716.62,-132.62 1716.62,-153.38"/>
<text text-anchor="middle" x="1648.25" y="-139.88" font-family="Helvetica,sans-Serif" font-size="10.00">llzk/Util/SymbolLookup.h</text>
</a>
</g>
</g>
<!-- Node25&#45;&gt;Node29 -->
<g id="edge34_Node000025_Node000029" class="edge">
<title>Node25&#45;&gt;Node29</title>
<g id="a_edge34_Node000025_Node000029"><a xlink:title=" ">
<path fill="none" stroke="#63b8ff" d="M1580.34,-195.5C1594.21,-184.99 1612.31,-171.26 1626.34,-160.62"/>
<polygon fill="#63b8ff" stroke="#63b8ff" points="1628.24,-163.57 1634.09,-154.74 1624.01,-157.99 1628.24,-163.57"/>
</a>
</g>
</g>
<!-- Node34 -->
<g id="Node000034" class="node">
<title>Node34</title>
<g id="a_Node000034"><a xlink:href="TypeHelper_8h.html" target="_top" xlink:title=" ">
<polygon fill="white" stroke="#666666" points="1293,-153.38 1173.5,-153.38 1173.5,-132.62 1293,-132.62 1293,-153.38"/>
<text text-anchor="middle" x="1233.25" y="-139.88" font-family="Helvetica,sans-Serif" font-size="10.00">llzk/Util/TypeHelper.h</text>
</a>
</g>
</g>
<!-- Node25&#45;&gt;Node34 -->
<g id="edge43_Node000025_Node000034" class="edge">
<title>Node25&#45;&gt;Node34</title>
<g id="a_edge43_Node000025_Node000034"><a xlink:title=" ">
<path fill="none" stroke="#63b8ff" d="M1507.95,-200.88C1449.3,-188.73 1353.45,-168.89 1291.88,-156.14"/>
<polygon fill="#63b8ff" stroke="#63b8ff" points="1292.79,-152.75 1282.28,-154.15 1291.37,-159.61 1292.79,-152.75"/>
</a>
</g>
</g>
<!-- Node25&#45;&gt;Node41 -->
<g id="edge57_Node000025_Node000041" class="edge">
<title>Node25&#45;&gt;Node41</title>
<g id="a_edge57_Node000025_Node000041"><a xlink:title=" ">
<path fill="none" stroke="#63b8ff" d="M1610.76,-196.18C1644.43,-186.17 1688.59,-173.04 1724.19,-162.45"/>
<polygon fill="#63b8ff" stroke="#63b8ff" points="1724.91,-165.89 1733.49,-159.69 1722.91,-159.18 1724.91,-165.89"/>
</a>
</g>
</g>
<!-- Node42 -->
<g id="Node000042" class="node">
<title>Node42</title>
<g id="a_Node000042"><a xlink:href="Struct_2IR_2Types_8h_8inc.html" target="_top" xlink:title=" ">
<polygon fill="white" stroke="#666666" points="1561.38,-159.75 1459.12,-159.75 1459.12,-126.25 1561.38,-126.25 1561.38,-159.75"/>
<text text-anchor="start" x="1467.12" y="-146.25" font-family="Helvetica,sans-Serif" font-size="10.00">llzk/Dialect/Struct</text>
<text text-anchor="middle" x="1510.25" y="-133.5" font-family="Helvetica,sans-Serif" font-size="10.00">/IR/Types.h.inc</text>
</a>
</g>
</g>
<!-- Node25&#45;&gt;Node42 -->
<g id="edge58_Node000025_Node000042" class="edge">
<title>Node25&#45;&gt;Node42</title>
<g id="a_edge58_Node000025_Node000042"><a xlink:title=" ">
<path fill="none" stroke="#63b8ff" d="M1547.64,-195.5C1541.9,-187.6 1534.85,-177.88 1528.42,-169.03"/>
<polygon fill="#63b8ff" stroke="#63b8ff" points="1531.38,-167.14 1522.67,-161.11 1525.71,-171.26 1531.38,-167.14"/>
</a>
</g>
</g>
<!-- Node27 -->
<g id="Node000027" class="node">
<title>Node27</title>
<g id="a_Node000027"><a xlink:title=" ">
<polygon fill="#e0e0e0" stroke="#999999" points="2233.5,-83.88 2123,-83.88 2123,-63.12 2233.5,-63.12 2233.5,-83.88"/>
<text text-anchor="middle" x="2178.25" y="-70.38" font-family="Helvetica,sans-Serif" font-size="10.00">mlir/IR/BuiltinOps.h</text>
</a>
</g>
</g>
<!-- Node26&#45;&gt;Node27 -->
<g id="edge32_Node000026_Node000027" class="edge">
<title>Node26&#45;&gt;Node27</title>
<g id="a_edge32_Node000026_Node000027"><a xlink:title=" ">
<path fill="none" stroke="#63b8ff" d="M2178.25,-126C2178.25,-116.9 2178.25,-105.39 2178.25,-95.57"/>
<polygon fill="#63b8ff" stroke="#63b8ff" points="2181.75,-95.84 2178.25,-85.84 2174.75,-95.84 2181.75,-95.84"/>
</a>
</g>
</g>
<!-- Node28 -->
<g id="Node000028" class="node">
<title>Node28</title>
<g id="a_Node000028"><a xlink:href="Struct_2IR_2Dialect_8h_8inc.html" target="_top" xlink:title=" ">
<polygon fill="white" stroke="#666666" points="2353.38,-90.25 2251.12,-90.25 2251.12,-56.75 2353.38,-56.75 2353.38,-90.25"/>
<text text-anchor="start" x="2259.12" y="-76.75" font-family="Helvetica,sans-Serif" font-size="10.00">llzk/Dialect/Struct</text>
<text text-anchor="middle" x="2302.25" y="-64" font-family="Helvetica,sans-Serif" font-size="10.00">/IR/Dialect.h.inc</text>
</a>
</g>
</g>
<!-- Node26&#45;&gt;Node28 -->
<g id="edge33_Node000026_Node000028" class="edge">
<title>Node26&#45;&gt;Node28</title>
<g id="a_edge33_Node000026_Node000028"><a xlink:title=" ">
<path fill="none" stroke="#63b8ff" d="M2207.95,-125.83C2224.36,-116.9 2244.96,-105.69 2262.72,-96.02"/>
<polygon fill="#63b8ff" stroke="#63b8ff" points="2264.35,-99.11 2271.46,-91.26 2261.01,-92.97 2264.35,-99.11"/>
</a>
</g>
</g>
<!-- Node29&#45;&gt;Node3 -->
<g id="edge37_Node000029_Node000003" class="edge">
<title>Node29&#45;&gt;Node3</title>
<g id="a_edge37_Node000029_Node000003"><a xlink:title=" ">
<path fill="none" stroke="#63b8ff" d="M1652.77,-132.32C1660.23,-114.76 1672.48,-77.54 1653.25,-56.75 1618.87,-19.57 1282.93,-12.79 1138.12,-11.6"/>
<polygon fill="#63b8ff" stroke="#63b8ff" points="1138.32,-8.11 1128.3,-11.53 1138.27,-15.11 1138.32,-8.11"/>
</a>
</g>
</g>
<!-- Node29&#45;&gt;Node21 -->
<g id="edge35_Node000029_Node000021" class="edge">
<title>Node29&#45;&gt;Node21</title>
<g id="a_edge35_Node000029_Node000021"><a xlink:title=" ">
<path fill="none" stroke="#63b8ff" d="M1639.51,-132.33C1630.18,-122 1615.18,-105.4 1603.64,-92.63"/>
<polygon fill="#63b8ff" stroke="#63b8ff" points="1606.29,-90.35 1596.99,-85.28 1601.1,-95.04 1606.29,-90.35"/>
</a>
</g>
</g>
<!-- Node29&#45;&gt;Node24 -->
<g id="edge40_Node000029_Node000024" class="edge">
<title>Node29&#45;&gt;Node24</title>
<g id="a_edge40_Node000029_Node000024"><a xlink:title=" ">
<path fill="none" stroke="#63b8ff" d="M1599.57,-132.14C1589.86,-130.18 1579.73,-128.15 1570.25,-126.25 1489.39,-110.09 1468.87,-107.56 1388.25,-90.25 1383.11,-89.15 1377.77,-87.97 1372.43,-86.77"/>
<polygon fill="#63b8ff" stroke="#63b8ff" points="1373.56,-83.43 1363.03,-84.63 1372.01,-90.26 1373.56,-83.43"/>
</a>
</g>
</g>
<!-- Node29&#45;&gt;Node27 -->
<g id="edge36_Node000029_Node000027" class="edge">
<title>Node29&#45;&gt;Node27</title>
<g id="a_edge36_Node000029_Node000027"><a xlink:title=" ">
<path fill="none" stroke="#63b8ff" d="M1692.66,-132.19C1703.6,-130.01 1715.32,-127.86 1726.25,-126.25 1895.39,-101.3 1940.44,-117.33 2109.25,-90.25 2115.39,-89.26 2121.8,-88.05 2128.14,-86.74"/>
<polygon fill="#63b8ff" stroke="#63b8ff" points="2128.87,-90.17 2137.9,-84.63 2127.38,-83.33 2128.87,-90.17"/>
</a>
</g>
</g>
<!-- Node30 -->
<g id="Node000030" class="node">
<title>Node30</title>
<g id="a_Node000030"><a xlink:title=" ">
<polygon fill="#e0e0e0" stroke="#999999" points="1891.38,-83.88 1765.12,-83.88 1765.12,-63.12 1891.38,-63.12 1891.38,-83.88"/>
<text text-anchor="middle" x="1828.25" y="-70.38" font-family="Helvetica,sans-Serif" font-size="10.00">mlir/IR/OwningOpRef.h</text>
</a>
</g>
</g>
<!-- Node29&#45;&gt;Node30 -->
<g id="edge38_Node000029_Node000030" class="edge">
<title>Node29&#45;&gt;Node30</title>
<g id="a_edge38_Node000029_Node000030"><a xlink:title=" ">
<path fill="none" stroke="#63b8ff" d="M1674.42,-132.18C1705.22,-120.64 1756.55,-101.39 1791.37,-88.33"/>
<polygon fill="#63b8ff" stroke="#63b8ff" points="1792.49,-91.65 1800.63,-84.86 1790.04,-85.09 1792.49,-91.65"/>
</a>
</g>
</g>
<!-- Node31 -->
<g id="Node000031" class="node">
<title>Node31</title>
<g id="a_Node000031"><a xlink:title=" ">
<polygon fill="#e0e0e0" stroke="#999999" points="1511.75,-83.88 1396.75,-83.88 1396.75,-63.12 1511.75,-63.12 1511.75,-83.88"/>
<text text-anchor="middle" x="1454.25" y="-70.38" font-family="Helvetica,sans-Serif" font-size="10.00">llvm/ADT/ArrayRef.h</text>
</a>
</g>
</g>
<!-- Node29&#45;&gt;Node31 -->
<g id="edge39_Node000029_Node000031" class="edge">
<title>Node29&#45;&gt;Node31</title>
<g id="a_edge39_Node000029_Node000031"><a xlink:title=" ">
<path fill="none" stroke="#63b8ff" d="M1620.04,-132.18C1586.56,-120.54 1530.57,-101.05 1493.03,-87.99"/>
<polygon fill="#63b8ff" stroke="#63b8ff" points="1494.52,-84.8 1483.92,-84.82 1492.22,-91.42 1494.52,-84.8"/>
</a>
</g>
</g>
<!-- Node32 -->
<g id="Node000032" class="node">
<title>Node32</title>
<g id="a_Node000032"><a xlink:title=" ">
<polygon fill="#e0e0e0" stroke="#999999" points="2227.5,-20.75 2177,-20.75 2177,0 2227.5,0 2227.5,-20.75"/>
<text text-anchor="middle" x="2202.25" y="-7.25" font-family="Helvetica,sans-Serif" font-size="10.00">variant</text>
</a>
</g>
</g>
<!-- Node29&#45;&gt;Node32 -->
<g id="edge41_Node000029_Node000032" class="edge">
<title>Node29&#45;&gt;Node32</title>
<g id="a_edge41_Node000029_Node000032"><a xlink:title=" ">
<path fill="none" stroke="#63b8ff" d="M1693.08,-132.18C1703.9,-130.02 1715.46,-127.89 1726.25,-126.25 1880.85,-102.75 1932.99,-152.94 2076.25,-90.25 2096.88,-81.22 2095.66,-69.45 2114.25,-56.75 2131.65,-44.87 2152.56,-33.96 2169.63,-25.82"/>
<polygon fill="#63b8ff" stroke="#63b8ff" points="2170.74,-29.16 2178.32,-21.77 2167.78,-22.82 2170.74,-29.16"/>
</a>
</g>
</g>
<!-- Node33 -->
<g id="Node000033" class="node">
<title>Node33</title>
<g id="a_Node000033"><a xlink:title=" ">
<polygon fill="#e0e0e0" stroke="#999999" points="1746.62,-83.88 1699.88,-83.88 1699.88,-63.12 1746.62,-63.12 1746.62,-83.88"/>
<text text-anchor="middle" x="1723.25" y="-70.38" font-family="Helvetica,sans-Serif" font-size="10.00">vector</text>
</a>
</g>
</g>
<!-- Node29&#45;&gt;Node33 -->
<g id="edge42_Node000029_Node000033" class="edge">
<title>Node29&#45;&gt;Node33</title>
<g id="a_edge42_Node000029_Node000033"><a xlink:title=" ">
<path fill="none" stroke="#63b8ff" d="M1659,-132.33C1670.8,-121.7 1689.99,-104.43 1704.33,-91.53"/>
<polygon fill="#63b8ff" stroke="#63b8ff" points="1706.31,-94.46 1711.4,-85.17 1701.62,-89.25 1706.31,-94.46"/>
</a>
</g>
</g>
<!-- Node34&#45;&gt;Node3 -->
<g id="edge52_Node000034_Node000003" class="edge">
<title>Node34&#45;&gt;Node3</title>
<g id="a_edge52_Node000034_Node000003"><a xlink:title=" ">
<path fill="none" stroke="#63b8ff" d="M1233.99,-132.16C1234.74,-114.68 1233.69,-78.02 1214.25,-56.75 1194.69,-35.34 1165.04,-23.98 1137.89,-17.97"/>
<polygon fill="#63b8ff" stroke="#63b8ff" points="1138.81,-14.59 1128.33,-16.08 1137.45,-21.46 1138.81,-14.59"/>
</a>
</g>
</g>
<!-- Node34&#45;&gt;Node18 -->
<g id="edge51_Node000034_Node000018" class="edge">
<title>Node34&#45;&gt;Node18</title>
<g id="a_edge51_Node000034_Node000018"><a xlink:title=" ">
<path fill="none" stroke="#63b8ff" d="M1176.83,-132.2C1165.08,-130.2 1152.76,-128.13 1141.25,-126.25 1053.51,-111.92 952.6,-96.37 885.07,-86.1"/>
<polygon fill="#63b8ff" stroke="#63b8ff" points="885.6,-82.64 875.19,-84.59 884.55,-89.56 885.6,-82.64"/>
</a>
</g>
</g>
<!-- Node34&#45;&gt;Node22 -->
<g id="edge53_Node000034_Node000022" class="edge">
<title>Node34&#45;&gt;Node22</title>
<g id="a_edge53_Node000034_Node000022"><a xlink:title=" ">
<path fill="none" stroke="#63b8ff" d="M1199.52,-132.18C1158.97,-120.39 1090.79,-100.55 1045.9,-87.49"/>
<polygon fill="#63b8ff" stroke="#63b8ff" points="1047.06,-84.18 1036.48,-84.75 1045.1,-90.9 1047.06,-84.18"/>
</a>
</g>
</g>
<!-- Node34&#45;&gt;Node24 -->
<g id="edge56_Node000034_Node000024" class="edge">
<title>Node34&#45;&gt;Node24</title>
<g id="a_edge56_Node000034_Node000024"><a xlink:title=" ">
<path fill="none" stroke="#63b8ff" d="M1245.71,-132.33C1259.46,-121.66 1281.84,-104.3 1298.49,-91.38"/>
<polygon fill="#63b8ff" stroke="#63b8ff" points="1300.57,-94.2 1306.33,-85.3 1296.28,-88.67 1300.57,-94.2"/>
</a>
</g>
</g>
<!-- Node34&#45;&gt;Node31 -->
<g id="edge54_Node000034_Node000031" class="edge">
<title>Node34&#45;&gt;Node31</title>
<g id="a_edge54_Node000034_Node000031"><a xlink:title=" ">
<path fill="none" stroke="#63b8ff" d="M1265.39,-132.18C1303.85,-120.44 1368.41,-100.72 1411.17,-87.66"/>
<polygon fill="#63b8ff" stroke="#63b8ff" points="1412.09,-91.04 1420.63,-84.77 1410.04,-84.34 1412.09,-91.04"/>
</a>
</g>
</g>
<!-- Node35 -->
<g id="Node000035" class="node">
<title>Node35</title>
<g id="a_Node000035"><a xlink:href="ErrorHelper_8h.html" target="_top" xlink:title=" ">
<polygon fill="white" stroke="#666666" points="2067.38,-83.88 1947.12,-83.88 1947.12,-63.12 2067.38,-63.12 2067.38,-83.88"/>
<text text-anchor="middle" x="2007.25" y="-70.38" font-family="Helvetica,sans-Serif" font-size="10.00">llzk/Util/ErrorHelper.h</text>
</a>
</g>
</g>
<!-- Node34&#45;&gt;Node35 -->
<g id="edge44_Node000034_Node000035" class="edge">
<title>Node34&#45;&gt;Node35</title>
<g id="a_edge44_Node000034_Node000035"><a xlink:title=" ">
<path fill="none" stroke="#63b8ff" d="M1293.4,-137.57C1446.09,-126.29 1840.88,-96.91 1900.25,-90.25 1911.7,-88.96 1923.82,-87.39 1935.61,-85.74"/>
<polygon fill="#63b8ff" stroke="#63b8ff" points="1935.89,-89.23 1945.3,-84.35 1934.9,-82.3 1935.89,-89.23"/>
</a>
</g>
</g>
<!-- Node40 -->
<g id="Node000040" class="node">
<title>Node40</title>
<g id="a_Node000040"><a xlink:title=" ">
<polygon fill="#e0e0e0" stroke="#999999" points="1205.62,-83.88 1080.88,-83.88 1080.88,-63.12 1205.62,-63.12 1205.62,-83.88"/>
<text text-anchor="middle" x="1143.25" y="-70.38" font-family="Helvetica,sans-Serif" font-size="10.00">llvm/ADT/DenseMap.h</text>
</a>
</g>
</g>
<!-- Node34&#45;&gt;Node40 -->
<g id="edge55_Node000034_Node000040" class="edge">
<title>Node34&#45;&gt;Node40</title>
<g id="a_edge55_Node000034_Node000040"><a xlink:title=" ">
<path fill="none" stroke="#63b8ff" d="M1220.36,-132.33C1206,-121.56 1182.55,-103.98 1165.28,-91.02"/>
<polygon fill="#63b8ff" stroke="#63b8ff" points="1167.72,-88.48 1157.62,-85.28 1163.52,-94.08 1167.72,-88.48"/>
</a>
</g>
</g>
<!-- Node35&#45;&gt;Node3 -->
<g id="edge46_Node000035_Node000003" class="edge">
<title>Node35&#45;&gt;Node3</title>
<g id="a_edge46_Node000035_Node000003"><a xlink:title=" ">
<path fill="none" stroke="#63b8ff" d="M1966.74,-62.68C1955.92,-60.39 1944.19,-58.19 1933.25,-56.75 1638.13,-17.81 1281.96,-11.99 1137.67,-11.33"/>
<polygon fill="#63b8ff" stroke="#63b8ff" points="1137.95,-7.83 1127.93,-11.29 1137.92,-14.83 1137.95,-7.83"/>
</a>
</g>
</g>
<!-- Node35&#45;&gt;Node32 -->
<g id="edge50_Node000035_Node000032" class="edge">
<title>Node35&#45;&gt;Node32</title>
<g id="a_edge50_Node000035_Node000032"><a xlink:title=" ">
<path fill="none" stroke="#63b8ff" d="M2038.58,-62.68C2073.31,-51.79 2129.26,-34.25 2165.9,-22.77"/>
<polygon fill="#63b8ff" stroke="#63b8ff" points="2166.66,-26.2 2175.16,-19.87 2164.57,-19.52 2166.66,-26.2"/>
</a>
</g>
</g>
<!-- Node36 -->
<g id="Node000036" class="node">
<title>Node36</title>
<g id="a_Node000036"><a xlink:title=" ">
<polygon fill="#e0e0e0" stroke="#999999" points="1675.88,-20.75 1558.62,-20.75 1558.62,0 1675.88,0 1675.88,-20.75"/>
<text text-anchor="middle" x="1617.25" y="-7.25" font-family="Helvetica,sans-Serif" font-size="10.00">mlir/IR/Diagnostics.h</text>
</a>
</g>
</g>
<!-- Node35&#45;&gt;Node36 -->
<g id="edge45_Node000035_Node000036" class="edge">
<title>Node35&#45;&gt;Node36</title>
<g id="a_edge45_Node000035_Node000036"><a xlink:title=" ">
<path fill="none" stroke="#63b8ff" d="M1963.52,-62.68C1953.59,-60.6 1943.08,-58.5 1933.25,-56.75 1909.62,-52.54 1773.29,-33.25 1687.59,-21.22"/>
<polygon fill="#63b8ff" stroke="#63b8ff" points="1688.26,-17.78 1677.87,-19.86 1687.28,-24.71 1688.26,-17.78"/>
</a>
</g>
</g>
<!-- Node37 -->
<g id="Node000037" class="node">
<title>Node37</title>
<g id="a_Node000037"><a xlink:title=" ">
<polygon fill="#e0e0e0" stroke="#999999" points="1864.88,-20.75 1693.62,-20.75 1693.62,0 1864.88,0 1864.88,-20.75"/>
<text text-anchor="middle" x="1779.25" y="-7.25" font-family="Helvetica,sans-Serif" font-size="10.00">llvm/ADT/STLFunctionalExtras.h</text>
</a>
</g>
</g>
<!-- Node35&#45;&gt;Node37 -->
<g id="edge47_Node000035_Node000037" class="edge">
<title>Node35&#45;&gt;Node37</title>
<g id="a_edge47_Node000035_Node000037"><a xlink:title=" ">
<path fill="none" stroke="#63b8ff" d="M1970.62,-62.68C1931.56,-52.21 1869.56,-35.59 1826.77,-24.12"/>
<polygon fill="#63b8ff" stroke="#63b8ff" points="1827.82,-20.77 1817.25,-21.56 1826.01,-27.53 1827.82,-20.77"/>
</a>
</g>
</g>
<!-- Node38 -->
<g id="Node000038" class="node">
<title>Node38</title>
<g id="a_Node000038"><a xlink:title=" ">
<polygon fill="#e0e0e0" stroke="#999999" points="1983.62,-20.75 1882.88,-20.75 1882.88,0 1983.62,0 1983.62,-20.75"/>
<text text-anchor="middle" x="1933.25" y="-7.25" font-family="Helvetica,sans-Serif" font-size="10.00">llvm/ADT/Twine.h</text>
</a>
</g>
</g>
<!-- Node35&#45;&gt;Node38 -->
<g id="edge48_Node000035_Node000038" class="edge">
<title>Node35&#45;&gt;Node38</title>
<g id="a_edge48_Node000035_Node000038"><a xlink:title=" ">
<path fill="none" stroke="#63b8ff" d="M1995.36,-62.68C1984.07,-53.36 1966.89,-39.16 1953.45,-28.06"/>
<polygon fill="#63b8ff" stroke="#63b8ff" points="1955.97,-25.6 1946.03,-21.93 1951.51,-31 1955.97,-25.6"/>
</a>
</g>
</g>
<!-- Node39 -->
<g id="Node000039" class="node">
<title>Node39</title>
<g id="a_Node000039"><a xlink:title=" ">
<polygon fill="#e0e0e0" stroke="#999999" points="2158.75,-20.75 2001.75,-20.75 2001.75,0 2158.75,0 2158.75,-20.75"/>
<text text-anchor="middle" x="2080.25" y="-7.25" font-family="Helvetica,sans-Serif" font-size="10.00">llvm/Support/ErrorHandling.h</text>
</a>
</g>
</g>
<!-- Node35&#45;&gt;Node39 -->
<g id="edge49_Node000035_Node000039" class="edge">
<title>Node35&#45;&gt;Node39</title>
<g id="a_edge49_Node000035_Node000039"><a xlink:title=" ">
<path fill="none" stroke="#63b8ff" d="M2018.98,-62.68C2030.11,-53.36 2047.07,-39.16 2060.32,-28.06"/>
<polygon fill="#63b8ff" stroke="#63b8ff" points="2062.21,-31.05 2067.63,-21.94 2057.72,-25.68 2062.21,-31.05"/>
</a>
</g>
</g>
</g>
</svg>
