<?xml version="1.0" encoding="UTF-8" standalone="no"?>
<!DOCTYPE svg PUBLIC "-//W3C//DTD SVG 1.1//EN"
 "http://www.w3.org/Graphics/SVG/1.1/DTD/svg11.dtd">
<!-- Generated by graphviz version 12.2.1 (0)
 -->
<!-- Title: include/llzk/Analysis/LightweightSignalEquivalenceAnalysis.h Pages: 1 -->
<svg width="411pt" height="206pt"
 viewBox="0.00 0.00 410.50 206.00" xmlns="http://www.w3.org/2000/svg" xmlns:xlink="http://www.w3.org/1999/xlink">
<g id="graph0" class="graph" transform="scale(1 1) rotate(0) translate(4 202)">
<title>include/llzk/Analysis/LightweightSignalEquivalenceAnalysis.h</title>
<!-- Node1 -->
<g id="Node000001" class="node">
<title>Node1</title>
<g id="a_Node000001"><a xlink:title=" ">
<polygon fill="#999999" stroke="#666666" points="290.75,-198 125.5,-198 125.5,-151.75 290.75,-151.75 290.75,-198"/>
<text text-anchor="start" x="133.5" y="-184.5" font-family="Helvetica,sans-Serif" font-size="10.00">include/llzk/Analysis</text>
<text text-anchor="start" x="133.5" y="-171.75" font-family="Helvetica,sans-Serif" font-size="10.00">/LightweightSignalEquivalence</text>
<text text-anchor="middle" x="208.12" y="-159" font-family="Helvetica,sans-Serif" font-size="10.00">Analysis.h</text>
</a>
</g>
</g>
<!-- Node2 -->
<g id="Node000002" class="node">
<title>Node2</title>
<g id="a_Node000002"><a xlink:href="LLZKComputeConstrainToProductPass_8h.html" target="_top" xlink:title=" ">
<polygon fill="white" stroke="#666666" points="180.25,-115.75 0,-115.75 0,-69.5 180.25,-69.5 180.25,-115.75"/>
<text text-anchor="start" x="8" y="-102.25" font-family="Helvetica,sans-Serif" font-size="10.00">include/llzk/Transforms</text>
<text text-anchor="start" x="8" y="-89.5" font-family="Helvetica,sans-Serif" font-size="10.00">/LLZKComputeConstrainToProduct</text>
<text text-anchor="middle" x="90.12" y="-76.75" font-family="Helvetica,sans-Serif" font-size="10.00">Pass.h</text>
</a>
</g>
</g>
<!-- Node1&#45;&gt;Node2 -->
<g id="edge1_Node000001_Node000002" class="edge">
<title>Node1&#45;&gt;Node2</title>
<g id="a_edge1_Node000001_Node000002"><a xlink:title=" ">
<path fill="none" stroke="#63b8ff" d="M165.52,-144.9C151.53,-135.39 136.21,-124.97 123.06,-116.02"/>
<polygon fill="#63b8ff" stroke="#63b8ff" points="163.45,-147.73 173.69,-150.46 167.39,-141.94 163.45,-147.73"/>
</a>
</g>
</g>
<!-- Node3 -->
<g id="Node000003" class="node">
<title>Node3</title>
<g id="a_Node000003"><a xlink:href="LLZKComputeConstrainToProductPass_8cpp.html" target="_top" xlink:title="This file implements the &#45;llzk&#45;product&#45;program pass.">
<polygon fill="white" stroke="#666666" points="226.88,-33.5 71.38,-33.5 71.38,0 226.88,0 226.88,-33.5"/>
<text text-anchor="start" x="79.38" y="-20" font-family="Helvetica,sans-Serif" font-size="10.00">lib/Transforms/LLZKCompute</text>
<text text-anchor="middle" x="149.12" y="-7.25" font-family="Helvetica,sans-Serif" font-size="10.00">ConstrainToProductPass.cpp</text>
</a>
</g>
</g>
<!-- Node1&#45;&gt;Node3 -->
<g id="edge4_Node000001_Node000003" class="edge">
<title>Node1&#45;&gt;Node3</title>
<g id="a_edge4_Node000001_Node000003"><a xlink:title=" ">
<path fill="none" stroke="#63b8ff" d="M206.07,-140.1C203.81,-119.05 199.07,-91.83 189.12,-69.5 183.21,-56.22 173.21,-43.29 164.69,-33.67"/>
<polygon fill="#63b8ff" stroke="#63b8ff" points="202.57,-140.24 206.97,-149.88 209.54,-139.6 202.57,-140.24"/>
</a>
</g>
</g>
<!-- Node4 -->
<g id="Node000004" class="node">
<title>Node4</title>
<g id="a_Node000004"><a xlink:href="LightweightSignalEquivalenceAnalysis_8cpp.html" target="_top" xlink:title="This file implements a basic signal equivalence analysis.">
<polygon fill="white" stroke="#666666" points="402.5,-109.38 235.75,-109.38 235.75,-75.88 402.5,-75.88 402.5,-109.38"/>
<text text-anchor="start" x="243.75" y="-95.88" font-family="Helvetica,sans-Serif" font-size="10.00">lib/Analysis/Lightweight</text>
<text text-anchor="middle" x="319.12" y="-83.12" font-family="Helvetica,sans-Serif" font-size="10.00">SignalEquivalenceAnalysis.cpp</text>
</a>
</g>
</g>
<!-- Node1&#45;&gt;Node4 -->
<g id="edge3_Node000001_Node000004" class="edge">
<title>Node1&#45;&gt;Node4</title>
<g id="a_edge3_Node000001_Node000004"><a xlink:title=" ">
<path fill="none" stroke="#63b8ff" d="M248.22,-144.89C264.64,-133.02 283,-119.74 296.93,-109.67"/>
<polygon fill="#63b8ff" stroke="#63b8ff" points="246.62,-141.73 240.57,-150.42 250.72,-147.4 246.62,-141.73"/>
</a>
</g>
</g>
<!-- Node2&#45;&gt;Node3 -->
<g id="edge2_Node000002_Node000003" class="edge">
<title>Node2&#45;&gt;Node3</title>
<g id="a_edge2_Node000002_Node000003"><a xlink:title=" ">
<path fill="none" stroke="#63b8ff" d="M115.21,-60.21C122.47,-51.13 130.09,-41.58 136.26,-33.85"/>
<polygon fill="#63b8ff" stroke="#63b8ff" points="112.6,-57.88 109.09,-67.88 118.07,-62.25 112.6,-57.88"/>
</a>
</g>
</g>
</g>
</svg>
