<?xml version="1.0" encoding="UTF-8" standalone="no"?>
<!DOCTYPE svg PUBLIC "-//W3C//DTD SVG 1.1//EN"
 "http://www.w3.org/Graphics/SVG/1.1/DTD/svg11.dtd">
<!-- Generated by graphviz version 12.2.1 (0)
 -->
<!-- Title: lib/Dialect/LLZK/IR/Ops.cpp Pages: 1 -->
<svg width="1173pt" height="237pt"
 viewBox="0.00 0.00 1173.12 237.25" xmlns="http://www.w3.org/2000/svg" xmlns:xlink="http://www.w3.org/1999/xlink">
<g id="graph0" class="graph" transform="scale(1 1) rotate(0) translate(4 233.25)">
<title>lib/Dialect/LLZK/IR/Ops.cpp</title>
<!-- Node1 -->
<g id="Node000001" class="node">
<title>Node1</title>
<g id="a_Node000001"><a xlink:title=" ">
<polygon fill="#999999" stroke="#666666" points="675.12,-229.25 569.88,-229.25 569.88,-195.75 675.12,-195.75 675.12,-229.25"/>
<text text-anchor="start" x="577.88" y="-215.75" font-family="Helvetica,sans-Serif" font-size="10.00">lib/Dialect/LLZK/IR</text>
<text text-anchor="middle" x="622.5" y="-203" font-family="Helvetica,sans-Serif" font-size="10.00">/Ops.cpp</text>
</a>
</g>
</g>
<!-- Node2 -->
<g id="Node000002" class="node">
<title>Node2</title>
<g id="a_Node000002"><a xlink:href="LLZK_2IR_2Ops_8h.html" target="_top" xlink:title=" ">
<polygon fill="white" stroke="#666666" points="342.75,-159.75 232.25,-159.75 232.25,-126.25 342.75,-126.25 342.75,-159.75"/>
<text text-anchor="start" x="240.25" y="-146.25" font-family="Helvetica,sans-Serif" font-size="10.00">llzk/Dialect/LLZK/IR</text>
<text text-anchor="middle" x="287.5" y="-133.5" font-family="Helvetica,sans-Serif" font-size="10.00">/Ops.h</text>
</a>
</g>
</g>
<!-- Node1&#45;&gt;Node2 -->
<g id="edge1_Node000001_Node000002" class="edge">
<title>Node1&#45;&gt;Node2</title>
<g id="a_edge1_Node000001_Node000002"><a xlink:title=" ">
<path fill="none" stroke="#63b8ff" d="M569.42,-200.8C511.11,-189.06 417.38,-170.17 354.16,-157.43"/>
<polygon fill="#63b8ff" stroke="#63b8ff" points="355.1,-154.05 344.61,-155.51 353.72,-160.91 355.1,-154.05"/>
</a>
</g>
</g>
<!-- Node6 -->
<g id="Node000006" class="node">
<title>Node6</title>
<g id="a_Node000006"><a xlink:href="TypeHelper_8h.html" target="_top" xlink:title=" ">
<polygon fill="white" stroke="#666666" points="682.25,-153.38 562.75,-153.38 562.75,-132.62 682.25,-132.62 682.25,-153.38"/>
<text text-anchor="middle" x="622.5" y="-139.88" font-family="Helvetica,sans-Serif" font-size="10.00">llzk/Util/TypeHelper.h</text>
</a>
</g>
</g>
<!-- Node1&#45;&gt;Node6 -->
<g id="edge5_Node000001_Node000006" class="edge">
<title>Node1&#45;&gt;Node6</title>
<g id="a_edge5_Node000001_Node000006"><a xlink:title=" ">
<path fill="none" stroke="#63b8ff" d="M622.5,-195.5C622.5,-186.4 622.5,-174.89 622.5,-165.07"/>
<polygon fill="#63b8ff" stroke="#63b8ff" points="626,-165.34 622.5,-155.34 619,-165.34 626,-165.34"/>
</a>
</g>
</g>
<!-- Node18 -->
<g id="Node000018" class="node">
<title>Node18</title>
<g id="a_Node000018"><a xlink:href="LLZK_2IR_2Ops_8cpp_8inc.html" target="_top" xlink:title=" ">
<polygon fill="white" stroke="#666666" points="810.75,-159.75 700.25,-159.75 700.25,-126.25 810.75,-126.25 810.75,-159.75"/>
<text text-anchor="start" x="708.25" y="-146.25" font-family="Helvetica,sans-Serif" font-size="10.00">llzk/Dialect/LLZK/IR</text>
<text text-anchor="middle" x="755.5" y="-133.5" font-family="Helvetica,sans-Serif" font-size="10.00">/Ops.cpp.inc</text>
</a>
</g>
</g>
<!-- Node1&#45;&gt;Node18 -->
<g id="edge19_Node000001_Node000018" class="edge">
<title>Node1&#45;&gt;Node18</title>
<g id="a_edge19_Node000001_Node000018"><a xlink:title=" ">
<path fill="none" stroke="#63b8ff" d="M654.36,-195.33C672.21,-186.27 694.67,-174.87 713.9,-165.11"/>
<polygon fill="#63b8ff" stroke="#63b8ff" points="715.22,-168.37 722.55,-160.72 712.05,-162.13 715.22,-168.37"/>
</a>
</g>
</g>
<!-- Node3 -->
<g id="Node000003" class="node">
<title>Node3</title>
<g id="a_Node000003"><a xlink:title=" ">
<polygon fill="#e0e0e0" stroke="#999999" points="437.38,-83.88 285.62,-83.88 285.62,-63.12 437.38,-63.12 437.38,-83.88"/>
<text text-anchor="middle" x="361.5" y="-70.38" font-family="Helvetica,sans-Serif" font-size="10.00">mlir/IR/OpImplementation.h</text>
</a>
</g>
</g>
<!-- Node2&#45;&gt;Node3 -->
<g id="edge2_Node000002_Node000003" class="edge">
<title>Node2&#45;&gt;Node3</title>
<g id="a_edge2_Node000002_Node000003"><a xlink:title=" ">
<path fill="none" stroke="#63b8ff" d="M305.04,-126C316.23,-115.79 330.75,-102.55 342.27,-92.04"/>
<polygon fill="#63b8ff" stroke="#63b8ff" points="344.58,-94.67 349.61,-85.34 339.87,-89.5 344.58,-94.67"/>
</a>
</g>
</g>
<!-- Node4 -->
<g id="Node000004" class="node">
<title>Node4</title>
<g id="a_Node000004"><a xlink:title=" ">
<polygon fill="#e0e0e0" stroke="#999999" points="139,-90.25 0,-90.25 0,-56.75 139,-56.75 139,-90.25"/>
<text text-anchor="start" x="8" y="-76.75" font-family="Helvetica,sans-Serif" font-size="10.00">mlir/Interfaces/SideEffect</text>
<text text-anchor="middle" x="69.5" y="-64" font-family="Helvetica,sans-Serif" font-size="10.00">Interfaces.h</text>
</a>
</g>
</g>
<!-- Node2&#45;&gt;Node4 -->
<g id="edge3_Node000002_Node000004" class="edge">
<title>Node2&#45;&gt;Node4</title>
<g id="a_edge3_Node000002_Node000004"><a xlink:title=" ">
<path fill="none" stroke="#63b8ff" d="M235.28,-125.83C204.39,-116.27 165.05,-104.08 132.44,-93.99"/>
<polygon fill="#63b8ff" stroke="#63b8ff" points="133.7,-90.71 123.11,-91.1 131.63,-97.4 133.7,-90.71"/>
</a>
</g>
</g>
<!-- Node5 -->
<g id="Node000005" class="node">
<title>Node5</title>
<g id="a_Node000005"><a xlink:href="LLZK_2IR_2Ops_8h_8inc.html" target="_top" xlink:title=" ">
<polygon fill="white" stroke="#666666" points="267.75,-90.25 157.25,-90.25 157.25,-56.75 267.75,-56.75 267.75,-90.25"/>
<text text-anchor="start" x="165.25" y="-76.75" font-family="Helvetica,sans-Serif" font-size="10.00">llzk/Dialect/LLZK/IR</text>
<text text-anchor="middle" x="212.5" y="-64" font-family="Helvetica,sans-Serif" font-size="10.00">/Ops.h.inc</text>
</a>
</g>
</g>
<!-- Node2&#45;&gt;Node5 -->
<g id="edge4_Node000002_Node000005" class="edge">
<title>Node2&#45;&gt;Node5</title>
<g id="a_edge4_Node000002_Node000005"><a xlink:title=" ">
<path fill="none" stroke="#63b8ff" d="M269.73,-126C260.45,-117.66 248.93,-107.29 238.66,-98.05"/>
<polygon fill="#63b8ff" stroke="#63b8ff" points="241.31,-95.72 231.53,-91.63 236.62,-100.92 241.31,-95.72"/>
</a>
</g>
</g>
<!-- Node6&#45;&gt;Node3 -->
<g id="edge13_Node000006_Node000003" class="edge">
<title>Node6&#45;&gt;Node3</title>
<g id="a_edge13_Node000006_Node000003"><a xlink:title=" ">
<path fill="none" stroke="#63b8ff" d="M584.55,-132.18C538.54,-120.29 460.93,-100.21 410.46,-87.16"/>
<polygon fill="#63b8ff" stroke="#63b8ff" points="411.52,-83.82 400.96,-84.71 409.77,-90.6 411.52,-83.82"/>
</a>
</g>
</g>
<!-- Node7 -->
<g id="Node000007" class="node">
<title>Node7</title>
<g id="a_Node000007"><a xlink:href="ErrorHelper_8h.html" target="_top" xlink:title=" ">
<polygon fill="white" stroke="#666666" points="613.62,-83.88 493.38,-83.88 493.38,-63.12 613.62,-63.12 613.62,-83.88"/>
<text text-anchor="middle" x="553.5" y="-70.38" font-family="Helvetica,sans-Serif" font-size="10.00">llzk/Util/ErrorHelper.h</text>
</a>
</g>
</g>
<!-- Node6&#45;&gt;Node7 -->
<g id="edge6_Node000006_Node000007" class="edge">
<title>Node6&#45;&gt;Node7</title>
<g id="a_edge6_Node000006_Node000007"><a xlink:title=" ">
<path fill="none" stroke="#63b8ff" d="M612.61,-132.33C601.85,-121.8 584.43,-104.76 571.28,-91.89"/>
<polygon fill="#63b8ff" stroke="#63b8ff" points="574.05,-89.7 564.45,-85.21 569.15,-94.71 574.05,-89.7"/>
</a>
</g>
</g>
<!-- Node9 -->
<g id="Node000009" class="node">
<title>Node9</title>
<g id="a_Node000009"><a xlink:title=" ">
<polygon fill="#e0e0e0" stroke="#999999" points="314.62,-20.75 206.38,-20.75 206.38,0 314.62,0 314.62,-20.75"/>
<text text-anchor="middle" x="260.5" y="-7.25" font-family="Helvetica,sans-Serif" font-size="10.00">mlir/IR/Operation.h</text>
</a>
</g>
</g>
<!-- Node6&#45;&gt;Node9 -->
<g id="edge14_Node000006_Node000009" class="edge">
<title>Node6&#45;&gt;Node9</title>
<g id="a_edge14_Node000006_Node000009"><a xlink:title=" ">
<path fill="none" stroke="#63b8ff" d="M585.7,-132.2C556.91,-123.61 516.53,-109.48 484.5,-90.25 465.2,-78.66 466.46,-67.17 446.5,-56.75 425.31,-45.69 369.23,-32.74 324.15,-23.51"/>
<polygon fill="#63b8ff" stroke="#63b8ff" points="324.93,-20.1 314.43,-21.55 323.54,-26.96 324.93,-20.1"/>
</a>
</g>
</g>
<!-- Node14 -->
<g id="Node000014" class="node">
<title>Node14</title>
<g id="a_Node000014"><a xlink:title=" ">
<polygon fill="#e0e0e0" stroke="#999999" points="753.75,-83.88 631.25,-83.88 631.25,-63.12 753.75,-63.12 753.75,-83.88"/>
<text text-anchor="middle" x="692.5" y="-70.38" font-family="Helvetica,sans-Serif" font-size="10.00">mlir/IR/SymbolTable.h</text>
</a>
</g>
</g>
<!-- Node6&#45;&gt;Node14 -->
<g id="edge15_Node000006_Node000014" class="edge">
<title>Node6&#45;&gt;Node14</title>
<g id="a_edge15_Node000006_Node000014"><a xlink:title=" ">
<path fill="none" stroke="#63b8ff" d="M632.53,-132.33C643.45,-121.8 661.12,-104.76 674.46,-91.89"/>
<polygon fill="#63b8ff" stroke="#63b8ff" points="676.63,-94.66 681.4,-85.2 671.77,-89.63 676.63,-94.66"/>
</a>
</g>
</g>
<!-- Node15 -->
<g id="Node000015" class="node">
<title>Node15</title>
<g id="a_Node000015"><a xlink:title=" ">
<polygon fill="#e0e0e0" stroke="#999999" points="887,-83.88 772,-83.88 772,-63.12 887,-63.12 887,-83.88"/>
<text text-anchor="middle" x="829.5" y="-70.38" font-family="Helvetica,sans-Serif" font-size="10.00">llvm/ADT/ArrayRef.h</text>
</a>
</g>
</g>
<!-- Node6&#45;&gt;Node15 -->
<g id="edge16_Node000006_Node000015" class="edge">
<title>Node6&#45;&gt;Node15</title>
<g id="a_edge16_Node000006_Node000015"><a xlink:title=" ">
<path fill="none" stroke="#63b8ff" d="M652.6,-132.18C688.47,-120.49 748.58,-100.89 788.64,-87.83"/>
<polygon fill="#63b8ff" stroke="#63b8ff" points="789.5,-91.22 797.93,-84.8 787.33,-84.57 789.5,-91.22"/>
</a>
</g>
</g>
<!-- Node16 -->
<g id="Node000016" class="node">
<title>Node16</title>
<g id="a_Node000016"><a xlink:title=" ">
<polygon fill="#e0e0e0" stroke="#999999" points="1029.88,-83.88 905.12,-83.88 905.12,-63.12 1029.88,-63.12 1029.88,-83.88"/>
<text text-anchor="middle" x="967.5" y="-70.38" font-family="Helvetica,sans-Serif" font-size="10.00">llvm/ADT/DenseMap.h</text>
</a>
</g>
</g>
<!-- Node6&#45;&gt;Node16 -->
<g id="edge17_Node000006_Node000016" class="edge">
<title>Node6&#45;&gt;Node16</title>
<g id="a_edge17_Node000006_Node000016"><a xlink:title=" ">
<path fill="none" stroke="#63b8ff" d="M664.02,-132.16C673.06,-130.12 682.59,-128.05 691.5,-126.25 782.18,-107.95 805.77,-108.27 896.5,-90.25 902.08,-89.14 907.9,-87.93 913.7,-86.7"/>
<polygon fill="#63b8ff" stroke="#63b8ff" points="914.25,-90.16 923.28,-84.62 912.77,-83.32 914.25,-90.16"/>
</a>
</g>
</g>
<!-- Node17 -->
<g id="Node000017" class="node">
<title>Node17</title>
<g id="a_Node000017"><a xlink:title=" ">
<polygon fill="#e0e0e0" stroke="#999999" points="1165.12,-83.88 1047.88,-83.88 1047.88,-63.12 1165.12,-63.12 1165.12,-83.88"/>
<text text-anchor="middle" x="1106.5" y="-70.38" font-family="Helvetica,sans-Serif" font-size="10.00">llvm/ADT/StringRef.h</text>
</a>
</g>
</g>
<!-- Node6&#45;&gt;Node17 -->
<g id="edge18_Node000006_Node000017" class="edge">
<title>Node6&#45;&gt;Node17</title>
<g id="a_edge18_Node000006_Node000017"><a xlink:title=" ">
<path fill="none" stroke="#63b8ff" d="M661.74,-132.18C671.43,-129.99 681.8,-127.85 691.5,-126.25 844.47,-100.95 885.57,-115.79 1038.5,-90.25 1044.48,-89.25 1050.71,-88.04 1056.88,-86.74"/>
<polygon fill="#63b8ff" stroke="#63b8ff" points="1057.34,-90.23 1066.35,-84.66 1055.83,-83.39 1057.34,-90.23"/>
</a>
</g>
</g>
<!-- Node8 -->
<g id="Node000008" class="node">
<title>Node8</title>
<g id="a_Node000008"><a xlink:title=" ">
<polygon fill="#e0e0e0" stroke="#999999" points="450.12,-20.75 332.88,-20.75 332.88,0 450.12,0 450.12,-20.75"/>
<text text-anchor="middle" x="391.5" y="-7.25" font-family="Helvetica,sans-Serif" font-size="10.00">mlir/IR/Diagnostics.h</text>
</a>
</g>
</g>
<!-- Node7&#45;&gt;Node8 -->
<g id="edge7_Node000007_Node000008" class="edge">
<title>Node7&#45;&gt;Node8</title>
<g id="a_edge7_Node000007_Node000008"><a xlink:title=" ">
<path fill="none" stroke="#63b8ff" d="M527.47,-62.68C500.55,-52.52 458.28,-36.57 428.02,-25.15"/>
<polygon fill="#63b8ff" stroke="#63b8ff" points="429.47,-21.96 418.88,-21.71 427,-28.51 429.47,-21.96"/>
</a>
</g>
</g>
<!-- Node7&#45;&gt;Node9 -->
<g id="edge8_Node000007_Node000009" class="edge">
<title>Node7&#45;&gt;Node9</title>
<g id="a_edge8_Node000007_Node000009"><a xlink:title=" ">
<path fill="none" stroke="#63b8ff" d="M507.32,-62.63C498.11,-60.67 488.5,-58.64 479.5,-56.75 425.32,-45.37 363.55,-32.59 319.46,-23.5"/>
<polygon fill="#63b8ff" stroke="#63b8ff" points="320.35,-20.11 309.85,-21.52 318.93,-26.97 320.35,-20.11"/>
</a>
</g>
</g>
<!-- Node10 -->
<g id="Node000010" class="node">
<title>Node10</title>
<g id="a_Node000010"><a xlink:title=" ">
<polygon fill="#e0e0e0" stroke="#999999" points="639.12,-20.75 467.88,-20.75 467.88,0 639.12,0 639.12,-20.75"/>
<text text-anchor="middle" x="553.5" y="-7.25" font-family="Helvetica,sans-Serif" font-size="10.00">llvm/ADT/STLFunctionalExtras.h</text>
</a>
</g>
</g>
<!-- Node7&#45;&gt;Node10 -->
<g id="edge9_Node000007_Node000010" class="edge">
<title>Node7&#45;&gt;Node10</title>
<g id="a_edge9_Node000007_Node000010"><a xlink:title=" ">
<path fill="none" stroke="#63b8ff" d="M553.5,-62.68C553.5,-54.52 553.5,-42.63 553.5,-32.35"/>
<polygon fill="#63b8ff" stroke="#63b8ff" points="557,-32.48 553.5,-22.48 550,-32.48 557,-32.48"/>
</a>
</g>
</g>
<!-- Node11 -->
<g id="Node000011" class="node">
<title>Node11</title>
<g id="a_Node000011"><a xlink:title=" ">
<polygon fill="#e0e0e0" stroke="#999999" points="757.88,-20.75 657.12,-20.75 657.12,0 757.88,0 757.88,-20.75"/>
<text text-anchor="middle" x="707.5" y="-7.25" font-family="Helvetica,sans-Serif" font-size="10.00">llvm/ADT/Twine.h</text>
</a>
</g>
</g>
<!-- Node7&#45;&gt;Node11 -->
<g id="edge10_Node000007_Node000011" class="edge">
<title>Node7&#45;&gt;Node11</title>
<g id="a_edge10_Node000007_Node000011"><a xlink:title=" ">
<path fill="none" stroke="#63b8ff" d="M578.24,-62.68C603.73,-52.56 643.67,-36.71 672.41,-25.3"/>
<polygon fill="#63b8ff" stroke="#63b8ff" points="673.41,-28.67 681.41,-21.73 670.83,-22.17 673.41,-28.67"/>
</a>
</g>
</g>
<!-- Node12 -->
<g id="Node000012" class="node">
<title>Node12</title>
<g id="a_Node000012"><a xlink:title=" ">
<polygon fill="#e0e0e0" stroke="#999999" points="933,-20.75 776,-20.75 776,0 933,0 933,-20.75"/>
<text text-anchor="middle" x="854.5" y="-7.25" font-family="Helvetica,sans-Serif" font-size="10.00">llvm/Support/ErrorHandling.h</text>
</a>
</g>
</g>
<!-- Node7&#45;&gt;Node12 -->
<g id="edge11_Node000007_Node000012" class="edge">
<title>Node7&#45;&gt;Node12</title>
<g id="a_edge11_Node000007_Node000012"><a xlink:title=" ">
<path fill="none" stroke="#63b8ff" d="M595.78,-62.63C604.6,-60.63 613.85,-58.58 622.5,-56.75 679.25,-44.73 744.06,-32.15 790.73,-23.29"/>
<polygon fill="#63b8ff" stroke="#63b8ff" points="791.22,-26.76 800.4,-21.46 789.92,-19.88 791.22,-26.76"/>
</a>
</g>
</g>
<!-- Node13 -->
<g id="Node000013" class="node">
<title>Node13</title>
<g id="a_Node000013"><a xlink:title=" ">
<polygon fill="#e0e0e0" stroke="#999999" points="1001.75,-20.75 951.25,-20.75 951.25,0 1001.75,0 1001.75,-20.75"/>
<text text-anchor="middle" x="976.5" y="-7.25" font-family="Helvetica,sans-Serif" font-size="10.00">variant</text>
</a>
</g>
</g>
<!-- Node7&#45;&gt;Node13 -->
<g id="edge12_Node000007_Node000013" class="edge">
<title>Node7&#45;&gt;Node13</title>
<g id="a_edge12_Node000007_Node000013"><a xlink:title=" ">
<path fill="none" stroke="#63b8ff" d="M593.12,-62.65C602.7,-60.5 612.93,-58.38 622.5,-56.75 760.02,-33.4 799.96,-47.12 939.84,-21"/>
<polygon fill="#63b8ff" stroke="#63b8ff" points="940.33,-24.47 949.5,-19.16 939.02,-17.59 940.33,-24.47"/>
</a>
</g>
</g>
</g>
</svg>
