<?xml version="1.0" encoding="UTF-8" standalone="no"?>
<!DOCTYPE svg PUBLIC "-//W3C//DTD SVG 1.1//EN"
 "http://www.w3.org/Graphics/SVG/1.1/DTD/svg11.dtd">
<!-- Generated by graphviz version 12.2.1 (0)
 -->
<!-- Title: include/llzk/Dialect/LLZK/IR/Dialect.h Pages: 1 -->
<svg width="4669pt" height="276pt"
 viewBox="0.00 0.00 4669.38 275.50" xmlns="http://www.w3.org/2000/svg" xmlns:xlink="http://www.w3.org/1999/xlink">
<g id="graph0" class="graph" transform="scale(1 1) rotate(0) translate(4 271.5)">
<title>include/llzk/Dialect/LLZK/IR/Dialect.h</title>
<!-- Node1 -->
<g id="Node000001" class="node">
<title>Node1</title>
<g id="a_Node000001"><a xlink:title=" ">
<polygon fill="#999999" stroke="#666666" points="2554.12,-267.5 2445.12,-267.5 2445.12,-234 2554.12,-234 2554.12,-267.5"/>
<text text-anchor="start" x="2453.12" y="-254" font-family="Helvetica,sans-Serif" font-size="10.00">include/llzk/Dialect</text>
<text text-anchor="middle" x="2499.62" y="-241.25" font-family="Helvetica,sans-Serif" font-size="10.00">/LLZK/IR/Dialect.h</text>
</a>
</g>
</g>
<!-- Node2 -->
<g id="Node000002" class="node">
<title>Node2</title>
<g id="a_Node000002"><a xlink:href="PassBase_8h.html" target="_top" xlink:title=" ">
<polygon fill="white" stroke="#666666" points="2412.62,-191.62 2258.62,-191.62 2258.62,-170.88 2412.62,-170.88 2412.62,-191.62"/>
<text text-anchor="middle" x="2335.62" y="-178.12" font-family="Helvetica,sans-Serif" font-size="10.00">include/llzk/Pass/PassBase.h</text>
</a>
</g>
</g>
<!-- Node1&#45;&gt;Node2 -->
<g id="edge1_Node000001_Node000002" class="edge">
<title>Node1&#45;&gt;Node2</title>
<g id="a_edge1_Node000001_Node000002"><a xlink:title=" ">
<path fill="none" stroke="#63b8ff" d="M2450.03,-229.34C2419.98,-216.97 2383,-201.75 2359.37,-192.02"/>
<polygon fill="#63b8ff" stroke="#63b8ff" points="2448.36,-232.44 2458.94,-233.01 2451.03,-225.96 2448.36,-232.44"/>
</a>
</g>
</g>
<!-- Node23 -->
<g id="Node000023" class="node">
<title>Node23</title>
<g id="a_Node000023"><a xlink:href="Dialect_2InitDialects_8cpp.html" target="_top" xlink:title=" ">
<polygon fill="white" stroke="#666666" points="1781.75,-33.5 1637.5,-33.5 1637.5,-12.75 1781.75,-12.75 1781.75,-33.5"/>
<text text-anchor="middle" x="1709.62" y="-20" font-family="Helvetica,sans-Serif" font-size="10.00">lib/Dialect/InitDialects.cpp</text>
</a>
</g>
</g>
<!-- Node1&#45;&gt;Node23 -->
<g id="edge41_Node000001_Node000023" class="edge">
<title>Node1&#45;&gt;Node23</title>
<g id="a_edge41_Node000001_Node000023"><a xlink:title=" ">
<path fill="none" stroke="#63b8ff" d="M2433.87,-243.79C2365.33,-236.62 2255.21,-222.4 2162.62,-198 2078.5,-175.83 2060.87,-159.63 1979.62,-128.5 1889.52,-93.98 1782.7,-52.53 1734.92,-33.96"/>
<polygon fill="#63b8ff" stroke="#63b8ff" points="2433.11,-247.23 2443.41,-244.77 2433.82,-240.27 2433.11,-247.23"/>
</a>
</g>
</g>
<!-- Node27 -->
<g id="Node000027" class="node">
<title>Node27</title>
<g id="a_Node000027"><a xlink:href="LLZKInliningExtensions_8cpp.html" target="_top" xlink:title=" ">
<polygon fill="white" stroke="#666666" points="1947.62,-39.88 1799.62,-39.88 1799.62,-6.38 1947.62,-6.38 1947.62,-39.88"/>
<text text-anchor="start" x="1807.62" y="-26.38" font-family="Helvetica,sans-Serif" font-size="10.00">lib/Transforms/LLZKInlining</text>
<text text-anchor="middle" x="1873.62" y="-13.62" font-family="Helvetica,sans-Serif" font-size="10.00">Extensions.cpp</text>
</a>
</g>
</g>
<!-- Node1&#45;&gt;Node27 -->
<g id="edge45_Node000001_Node000027" class="edge">
<title>Node1&#45;&gt;Node27</title>
<g id="a_edge45_Node000001_Node000027"><a xlink:title=" ">
<path fill="none" stroke="#63b8ff" d="M2433.84,-240.36C2382.79,-232.07 2310.67,-218.14 2249.62,-198 2114.73,-153.5 1964.18,-74.18 1902.42,-40.24"/>
<polygon fill="#63b8ff" stroke="#63b8ff" points="2433.12,-243.79 2443.55,-241.91 2434.23,-236.88 2433.12,-243.79"/>
</a>
</g>
</g>
<!-- Node36 -->
<g id="Node000036" class="node">
<title>Node36</title>
<g id="a_Node000036"><a xlink:href="LLZK_8cpp.html" target="_top" xlink:title=" ">
<polygon fill="white" stroke="#666666" points="2568.75,-191.62 2430.5,-191.62 2430.5,-170.88 2568.75,-170.88 2568.75,-191.62"/>
<text text-anchor="middle" x="2499.62" y="-178.12" font-family="Helvetica,sans-Serif" font-size="10.00">lib/CAPI/Dialect/LLZK.cpp</text>
</a>
</g>
</g>
<!-- Node1&#45;&gt;Node36 -->
<g id="edge40_Node000001_Node000036" class="edge">
<title>Node1&#45;&gt;Node36</title>
<g id="a_edge40_Node000001_Node000036"><a xlink:title=" ">
<path fill="none" stroke="#63b8ff" d="M2499.62,-222.28C2499.62,-211.58 2499.62,-200.01 2499.62,-192.07"/>
<polygon fill="#63b8ff" stroke="#63b8ff" points="2496.13,-222.24 2499.63,-232.24 2503.13,-222.24 2496.13,-222.24"/>
</a>
</g>
</g>
<!-- Node37 -->
<g id="Node000037" class="node">
<title>Node37</title>
<g id="a_Node000037"><a xlink:href="LLZK_2IR_2Dialect_8cpp.html" target="_top" xlink:title=" ">
<polygon fill="white" stroke="#666666" points="2692.25,-198 2587,-198 2587,-164.5 2692.25,-164.5 2692.25,-198"/>
<text text-anchor="start" x="2595" y="-184.5" font-family="Helvetica,sans-Serif" font-size="10.00">lib/Dialect/LLZK/IR</text>
<text text-anchor="middle" x="2639.62" y="-171.75" font-family="Helvetica,sans-Serif" font-size="10.00">/Dialect.cpp</text>
</a>
</g>
</g>
<!-- Node1&#45;&gt;Node37 -->
<g id="edge42_Node000001_Node000037" class="edge">
<title>Node1&#45;&gt;Node37</title>
<g id="a_edge42_Node000001_Node000037"><a xlink:title=" ">
<path fill="none" stroke="#63b8ff" d="M2543.43,-228.63C2563.76,-218.83 2587.54,-207.36 2606.37,-198.29"/>
<polygon fill="#63b8ff" stroke="#63b8ff" points="2542.01,-225.43 2534.52,-232.92 2545.05,-231.73 2542.01,-225.43"/>
</a>
</g>
</g>
<!-- Node38 -->
<g id="Node000038" class="node">
<title>Node38</title>
<g id="a_Node000038"><a xlink:href="SharedImpl_8cpp.html" target="_top" xlink:title=" ">
<polygon fill="white" stroke="#666666" points="2862.5,-198 2710.75,-198 2710.75,-164.5 2862.5,-164.5 2862.5,-198"/>
<text text-anchor="start" x="2718.75" y="-184.5" font-family="Helvetica,sans-Serif" font-size="10.00">lib/Dialect/Polymorphic</text>
<text text-anchor="middle" x="2786.62" y="-171.75" font-family="Helvetica,sans-Serif" font-size="10.00">/Transforms/SharedImpl.cpp</text>
</a>
</g>
</g>
<!-- Node1&#45;&gt;Node38 -->
<g id="edge43_Node000001_Node000038" class="edge">
<title>Node1&#45;&gt;Node38</title>
<g id="a_edge43_Node000001_Node000038"><a xlink:title=" ">
<path fill="none" stroke="#63b8ff" d="M2565.56,-234.24C2611.06,-223.54 2671.45,-209.34 2717.61,-198.48"/>
<polygon fill="#63b8ff" stroke="#63b8ff" points="2565.03,-230.77 2556.1,-236.47 2566.63,-237.59 2565.03,-230.77"/>
</a>
</g>
</g>
<!-- Node39 -->
<g id="Node000039" class="node">
<title>Node39</title>
<g id="a_Node000039"><a xlink:href="Builders_8cpp.html" target="_top" xlink:title=" ">
<polygon fill="white" stroke="#666666" points="2982.75,-198 2880.5,-198 2880.5,-164.5 2982.75,-164.5 2982.75,-198"/>
<text text-anchor="start" x="2888.5" y="-184.5" font-family="Helvetica,sans-Serif" font-size="10.00">lib/Dialect/Shared</text>
<text text-anchor="middle" x="2931.62" y="-171.75" font-family="Helvetica,sans-Serif" font-size="10.00">/Builders.cpp</text>
</a>
</g>
</g>
<!-- Node1&#45;&gt;Node39 -->
<g id="edge44_Node000001_Node000039" class="edge">
<title>Node1&#45;&gt;Node39</title>
<g id="a_edge44_Node000001_Node000039"><a xlink:title=" ">
<path fill="none" stroke="#63b8ff" d="M2565.58,-242.97C2640.25,-234.73 2765.35,-219.26 2871.62,-198 2874.37,-197.45 2877.18,-196.85 2880,-196.22"/>
<polygon fill="#63b8ff" stroke="#63b8ff" points="2565.56,-239.45 2556,-244.01 2566.32,-246.41 2565.56,-239.45"/>
</a>
</g>
</g>
<!-- Node3 -->
<g id="Node000003" class="node">
<title>Node3</title>
<g id="a_Node000003"><a xlink:href="AnalysisPasses_8h.html" target="_top" xlink:title=" ">
<polygon fill="white" stroke="#666666" points="3108.5,-122.12 2992.75,-122.12 2992.75,-88.62 3108.5,-88.62 3108.5,-122.12"/>
<text text-anchor="start" x="3000.75" y="-108.62" font-family="Helvetica,sans-Serif" font-size="10.00">include/llzk/Analysis</text>
<text text-anchor="middle" x="3050.62" y="-95.88" font-family="Helvetica,sans-Serif" font-size="10.00">/AnalysisPasses.h</text>
</a>
</g>
</g>
<!-- Node2&#45;&gt;Node3 -->
<g id="edge2_Node000002_Node000003" class="edge">
<title>Node2&#45;&gt;Node3</title>
<g id="a_edge2_Node000002_Node000003"><a xlink:title=" ">
<path fill="none" stroke="#63b8ff" d="M2396.16,-168.47C2404.69,-167.01 2413.37,-165.64 2421.62,-164.5 2630.77,-135.74 2881.04,-117.37 2992.33,-110.02"/>
<polygon fill="#63b8ff" stroke="#63b8ff" points="2395.81,-164.97 2386.56,-170.15 2397.02,-171.87 2395.81,-164.97"/>
</a>
</g>
</g>
<!-- Node11 -->
<g id="Node000011" class="node">
<title>Node11</title>
<g id="a_Node000011"><a xlink:href="Array_2Transforms_2TransformationPasses_8h.html" target="_top" xlink:title=" ">
<polygon fill="white" stroke="#666666" points="3595,-128.5 3416.25,-128.5 3416.25,-82.25 3595,-82.25 3595,-128.5"/>
<text text-anchor="start" x="3424.25" y="-115" font-family="Helvetica,sans-Serif" font-size="10.00">include/llzk/Dialect</text>
<text text-anchor="start" x="3424.25" y="-102.25" font-family="Helvetica,sans-Serif" font-size="10.00">/Array/Transforms/Transformation</text>
<text text-anchor="middle" x="3505.62" y="-89.5" font-family="Helvetica,sans-Serif" font-size="10.00">Passes.h</text>
</a>
</g>
</g>
<!-- Node2&#45;&gt;Node11 -->
<g id="edge10_Node000002_Node000011" class="edge">
<title>Node2&#45;&gt;Node11</title>
<g id="a_edge10_Node000002_Node000011"><a xlink:title=" ">
<path fill="none" stroke="#63b8ff" d="M2394.52,-168.42C2403.57,-166.91 2412.83,-165.53 2421.62,-164.5 2729.28,-128.53 2808.34,-145.32 3117.62,-128.5 3219.86,-122.94 3337.23,-116.2 3415.86,-111.63"/>
<polygon fill="#63b8ff" stroke="#63b8ff" points="2393.96,-164.97 2384.71,-170.14 2395.17,-171.86 2393.96,-164.97"/>
</a>
</g>
</g>
<!-- Node14 -->
<g id="Node000014" class="node">
<title>Node14</title>
<g id="a_Node000014"><a xlink:href="InlineIncludesPass_8h.html" target="_top" xlink:title=" ">
<polygon fill="white" stroke="#666666" points="2578.5,-128.5 2396.75,-128.5 2396.75,-82.25 2578.5,-82.25 2578.5,-128.5"/>
<text text-anchor="start" x="2404.75" y="-115" font-family="Helvetica,sans-Serif" font-size="10.00">include/llzk/Dialect</text>
<text text-anchor="start" x="2404.75" y="-102.25" font-family="Helvetica,sans-Serif" font-size="10.00">/Include/Transforms/InlineIncludes</text>
<text text-anchor="middle" x="2487.62" y="-89.5" font-family="Helvetica,sans-Serif" font-size="10.00">Pass.h</text>
</a>
</g>
</g>
<!-- Node2&#45;&gt;Node14 -->
<g id="edge14_Node000002_Node000014" class="edge">
<title>Node2&#45;&gt;Node14</title>
<g id="a_edge14_Node000002_Node000014"><a xlink:title=" ">
<path fill="none" stroke="#63b8ff" d="M2365.98,-165.5C2387.46,-155.06 2416.68,-140.86 2441.09,-128.99"/>
<polygon fill="#63b8ff" stroke="#63b8ff" points="2364.63,-162.26 2357.17,-169.78 2367.69,-168.55 2364.63,-162.26"/>
</a>
</g>
</g>
<!-- Node17 -->
<g id="Node000017" class="node">
<title>Node17</title>
<g id="a_Node000017"><a xlink:href="Polymorphic_2Transforms_2TransformationPasses_8h.html" target="_top" xlink:title=" ">
<polygon fill="white" stroke="#666666" points="4261,-128.5 4124.25,-128.5 4124.25,-82.25 4261,-82.25 4261,-128.5"/>
<text text-anchor="start" x="4132.25" y="-115" font-family="Helvetica,sans-Serif" font-size="10.00">include/llzk/Dialect</text>
<text text-anchor="start" x="4132.25" y="-102.25" font-family="Helvetica,sans-Serif" font-size="10.00">/Polymorphic/Transforms</text>
<text text-anchor="middle" x="4192.62" y="-89.5" font-family="Helvetica,sans-Serif" font-size="10.00">/TransformationPasses.h</text>
</a>
</g>
</g>
<!-- Node2&#45;&gt;Node17 -->
<g id="edge18_Node000002_Node000017" class="edge">
<title>Node2&#45;&gt;Node17</title>
<g id="a_edge18_Node000002_Node000017"><a xlink:title=" ">
<path fill="none" stroke="#63b8ff" d="M2393.54,-168.41C2402.9,-166.86 2412.5,-165.47 2421.62,-164.5 2944.26,-109 3078.35,-146.36 3603.62,-128.5 3792.06,-122.09 4014.36,-113.45 4124.16,-109.1"/>
<polygon fill="#63b8ff" stroke="#63b8ff" points="2393.04,-164.95 2383.8,-170.12 2394.25,-171.84 2393.04,-164.95"/>
</a>
</g>
</g>
<!-- Node21 -->
<g id="Node000021" class="node">
<title>Node21</title>
<g id="a_Node000021"><a xlink:href="LLZKTransformationPasses_8h.html" target="_top" xlink:title=" ">
<polygon fill="white" stroke="#666666" points="1274.5,-122.12 1116.75,-122.12 1116.75,-88.62 1274.5,-88.62 1274.5,-122.12"/>
<text text-anchor="start" x="1124.75" y="-108.62" font-family="Helvetica,sans-Serif" font-size="10.00">include/llzk/Transforms</text>
<text text-anchor="middle" x="1195.62" y="-95.88" font-family="Helvetica,sans-Serif" font-size="10.00">/LLZKTransformationPasses.h</text>
</a>
</g>
</g>
<!-- Node2&#45;&gt;Node21 -->
<g id="edge23_Node000002_Node000021" class="edge">
<title>Node2&#45;&gt;Node21</title>
<g id="a_edge23_Node000002_Node000021"><a xlink:title=" ">
<path fill="none" stroke="#63b8ff" d="M2246.89,-174.5C2030.88,-160.5 1480.35,-124.83 1274.7,-111.5"/>
<polygon fill="#63b8ff" stroke="#63b8ff" points="2246.45,-177.98 2256.65,-175.13 2246.9,-170.99 2246.45,-177.98"/>
</a>
</g>
</g>
<!-- Node33 -->
<g id="Node000033" class="node">
<title>Node33</title>
<g id="a_Node000033"><a xlink:href="LLZKValidationPasses_8h.html" target="_top" xlink:title=" ">
<polygon fill="white" stroke="#666666" points="2341.5,-122.12 2207.75,-122.12 2207.75,-88.62 2341.5,-88.62 2341.5,-122.12"/>
<text text-anchor="start" x="2215.75" y="-108.62" font-family="Helvetica,sans-Serif" font-size="10.00">include/llzk/Validators</text>
<text text-anchor="middle" x="2274.62" y="-95.88" font-family="Helvetica,sans-Serif" font-size="10.00">/LLZKValidationPasses.h</text>
</a>
</g>
</g>
<!-- Node2&#45;&gt;Node33 -->
<g id="edge36_Node000002_Node000033" class="edge">
<title>Node2&#45;&gt;Node33</title>
<g id="a_edge36_Node000002_Node000033"><a xlink:title=" ">
<path fill="none" stroke="#63b8ff" d="M2320.4,-161.82C2310.44,-149.74 2297.53,-134.12 2287.96,-122.53"/>
<polygon fill="#63b8ff" stroke="#63b8ff" points="2317.62,-163.94 2326.69,-169.43 2323.02,-159.49 2317.62,-163.94"/>
</a>
</g>
</g>
<!-- Node4 -->
<g id="Node000004" class="node">
<title>Node4</title>
<g id="a_Node000004"><a xlink:href="CallGraphPasses_8cpp.html" target="_top" xlink:title="This file implements the &#45;llzk&#45;print&#45;call&#45;graph and &#45;llzk&#45;print&#45;call&#45;graph&#45;sccs passes.">
<polygon fill="white" stroke="#666666" points="3577.88,-33.5 3401.38,-33.5 3401.38,-12.75 3577.88,-12.75 3577.88,-33.5"/>
<text text-anchor="middle" x="3489.62" y="-20" font-family="Helvetica,sans-Serif" font-size="10.00">lib/Analysis/CallGraphPasses.cpp</text>
</a>
</g>
</g>
<!-- Node3&#45;&gt;Node4 -->
<g id="edge3_Node000003_Node000004" class="edge">
<title>Node3&#45;&gt;Node4</title>
<g id="a_edge3_Node000003_Node000004"><a xlink:title=" ">
<path fill="none" stroke="#63b8ff" d="M3120.08,-93.74C3189.33,-82.86 3298.62,-64.94 3392.62,-46.25 3411.26,-42.54 3431.79,-37.94 3449.15,-33.89"/>
<polygon fill="#63b8ff" stroke="#63b8ff" points="3119.73,-90.25 3110.39,-95.25 3120.82,-97.17 3119.73,-90.25"/>
</a>
</g>
</g>
<!-- Node5 -->
<g id="Node000005" class="node">
<title>Node5</title>
<g id="a_Node000005"><a xlink:href="ConstraintDependencyGraphPass_8cpp.html" target="_top" xlink:title="This file implements the &#45;llzk&#45;print&#45;constraint&#45;dependency&#45;graphs pass.">
<polygon fill="white" stroke="#666666" points="3781.75,-39.88 3595.5,-39.88 3595.5,-6.38 3781.75,-6.38 3781.75,-39.88"/>
<text text-anchor="start" x="3603.5" y="-26.38" font-family="Helvetica,sans-Serif" font-size="10.00">lib/Analysis/ConstraintDependency</text>
<text text-anchor="middle" x="3688.62" y="-13.62" font-family="Helvetica,sans-Serif" font-size="10.00">GraphPass.cpp</text>
</a>
</g>
</g>
<!-- Node3&#45;&gt;Node5 -->
<g id="edge4_Node000003_Node000005" class="edge">
<title>Node3&#45;&gt;Node5</title>
<g id="a_edge4_Node000003_Node000005"><a xlink:title=" ">
<path fill="none" stroke="#63b8ff" d="M3120.22,-99.19C3222.76,-91.02 3420.26,-73.24 3586.62,-46.25 3597,-44.57 3607.91,-42.51 3618.58,-40.34"/>
<polygon fill="#63b8ff" stroke="#63b8ff" points="3120,-95.7 3110.3,-99.97 3120.55,-102.67 3120,-95.7"/>
</a>
</g>
</g>
<!-- Node6 -->
<g id="Node000006" class="node">
<title>Node6</title>
<g id="a_Node000006"><a xlink:href="IntervalAnalysisPass_8cpp.html" target="_top" xlink:title="This file implements the &#45;llzk&#45;print&#45;interval&#45;analysis pass.">
<polygon fill="white" stroke="#666666" points="2885.62,-39.88 2731.62,-39.88 2731.62,-6.38 2885.62,-6.38 2885.62,-39.88"/>
<text text-anchor="start" x="2739.62" y="-26.38" font-family="Helvetica,sans-Serif" font-size="10.00">lib/Analysis/IntervalAnalysis</text>
<text text-anchor="middle" x="2808.62" y="-13.62" font-family="Helvetica,sans-Serif" font-size="10.00">Pass.cpp</text>
</a>
</g>
</g>
<!-- Node3&#45;&gt;Node6 -->
<g id="edge5_Node000003_Node000006" class="edge">
<title>Node3&#45;&gt;Node6</title>
<g id="a_edge5_Node000003_Node000006"><a xlink:title=" ">
<path fill="none" stroke="#63b8ff" d="M2990.97,-84.59C2949.92,-70.98 2896.05,-53.12 2857.52,-40.34"/>
<polygon fill="#63b8ff" stroke="#63b8ff" points="2989.62,-87.83 3000.22,-87.66 2991.83,-81.19 2989.62,-87.83"/>
</a>
</g>
</g>
<!-- Node7 -->
<g id="Node000007" class="node">
<title>Node7</title>
<g id="a_Node000007"><a xlink:href="PredecessorAnalysisPass_8cpp.html" target="_top" xlink:title="This file implements the &#45;llzk&#45;print&#45;predecessors pass.">
<polygon fill="white" stroke="#666666" points="3037.88,-39.88 2903.38,-39.88 2903.38,-6.38 3037.88,-6.38 3037.88,-39.88"/>
<text text-anchor="start" x="2911.38" y="-26.38" font-family="Helvetica,sans-Serif" font-size="10.00">lib/Analysis/Predecessor</text>
<text text-anchor="middle" x="2970.62" y="-13.62" font-family="Helvetica,sans-Serif" font-size="10.00">AnalysisPass.cpp</text>
</a>
</g>
</g>
<!-- Node3&#45;&gt;Node7 -->
<g id="edge6_Node000003_Node000007" class="edge">
<title>Node3&#45;&gt;Node7</title>
<g id="a_edge6_Node000003_Node000007"><a xlink:title=" ">
<path fill="none" stroke="#63b8ff" d="M3026.44,-80.12C3013.6,-67.24 2998.17,-51.76 2986.79,-40.34"/>
<polygon fill="#63b8ff" stroke="#63b8ff" points="3023.83,-82.45 3033.37,-87.06 3028.79,-77.51 3023.83,-82.45"/>
</a>
</g>
</g>
<!-- Node8 -->
<g id="Node000008" class="node">
<title>Node8</title>
<g id="a_Node000008"><a xlink:href="SymbolDefTreePass_8cpp.html" target="_top" xlink:title="This file implements the &#45;llzk&#45;print&#45;symbol&#45;def&#45;tree pass.">
<polygon fill="white" stroke="#666666" points="3205.38,-39.88 3055.88,-39.88 3055.88,-6.38 3205.38,-6.38 3205.38,-39.88"/>
<text text-anchor="start" x="3063.88" y="-26.38" font-family="Helvetica,sans-Serif" font-size="10.00">lib/Analysis/SymbolDefTree</text>
<text text-anchor="middle" x="3130.62" y="-13.62" font-family="Helvetica,sans-Serif" font-size="10.00">Pass.cpp</text>
</a>
</g>
</g>
<!-- Node3&#45;&gt;Node8 -->
<g id="edge7_Node000003_Node000008" class="edge">
<title>Node3&#45;&gt;Node8</title>
<g id="a_edge7_Node000003_Node000008"><a xlink:title=" ">
<path fill="none" stroke="#63b8ff" d="M3074.81,-80.12C3087.65,-67.24 3103.08,-51.76 3114.46,-40.34"/>
<polygon fill="#63b8ff" stroke="#63b8ff" points="3072.46,-77.51 3067.88,-87.06 3077.42,-82.45 3072.46,-77.51"/>
</a>
</g>
</g>
<!-- Node9 -->
<g id="Node000009" class="node">
<title>Node9</title>
<g id="a_Node000009"><a xlink:href="SymbolUseGraphPass_8cpp.html" target="_top" xlink:title="This file implements the &#45;llzk&#45;print&#45;symbol&#45;use&#45;graph pass.">
<polygon fill="white" stroke="#666666" points="3383.62,-39.88 3223.62,-39.88 3223.62,-6.38 3383.62,-6.38 3383.62,-39.88"/>
<text text-anchor="start" x="3231.62" y="-26.38" font-family="Helvetica,sans-Serif" font-size="10.00">lib/Analysis/SymbolUseGraph</text>
<text text-anchor="middle" x="3303.62" y="-13.62" font-family="Helvetica,sans-Serif" font-size="10.00">Pass.cpp</text>
</a>
</g>
</g>
<!-- Node3&#45;&gt;Node9 -->
<g id="edge8_Node000003_Node000009" class="edge">
<title>Node3&#45;&gt;Node9</title>
<g id="a_edge8_Node000003_Node000009"><a xlink:title=" ">
<path fill="none" stroke="#63b8ff" d="M3112.71,-84.68C3155.67,-71.05 3212.14,-53.14 3252.5,-40.34"/>
<polygon fill="#63b8ff" stroke="#63b8ff" points="3111.74,-81.32 3103.27,-87.68 3113.86,-87.99 3111.74,-81.32"/>
</a>
</g>
</g>
<!-- Node10 -->
<g id="Node000010" class="node">
<title>Node10</title>
<g id="a_Node000010"><a xlink:href="llzk-opt_8cpp.html" target="_top" xlink:title="This file implements a version of the mlir&#45;opt tool configured for use on LLZK files.">
<polygon fill="white" stroke="#666666" points="2713.62,-39.88 2613.62,-39.88 2613.62,-6.38 2713.62,-6.38 2713.62,-39.88"/>
<text text-anchor="start" x="2621.62" y="-26.38" font-family="Helvetica,sans-Serif" font-size="10.00">tools/llzk&#45;opt/llzk</text>
<text text-anchor="middle" x="2663.62" y="-13.62" font-family="Helvetica,sans-Serif" font-size="10.00">&#45;opt.cpp</text>
</a>
</g>
</g>
<!-- Node3&#45;&gt;Node10 -->
<g id="edge9_Node000003_Node000010" class="edge">
<title>Node3&#45;&gt;Node10</title>
<g id="a_edge9_Node000003_Node000010"><a xlink:title=" ">
<path fill="none" stroke="#63b8ff" d="M2981.2,-95.84C2914.25,-86.73 2810.42,-70.27 2722.62,-46.25 2716.5,-44.58 2710.13,-42.52 2703.93,-40.35"/>
<polygon fill="#63b8ff" stroke="#63b8ff" points="2980.56,-99.29 2990.94,-97.15 2981.5,-92.35 2980.56,-99.29"/>
</a>
</g>
</g>
<!-- Node11&#45;&gt;Node10 -->
<g id="edge13_Node000011_Node000010" class="edge">
<title>Node11&#45;&gt;Node10</title>
<g id="a_edge13_Node000011_Node000010"><a xlink:title=" ">
<path fill="none" stroke="#63b8ff" d="M3404.47,-98.48C3207.82,-86.77 2787.52,-60.52 2722.62,-46.25 2715.89,-44.77 2708.9,-42.68 2702.19,-40.37"/>
<polygon fill="#63b8ff" stroke="#63b8ff" points="3404.25,-101.97 3414.44,-99.07 3404.66,-94.98 3404.25,-101.97"/>
</a>
</g>
</g>
<!-- Node12 -->
<g id="Node000012" class="node">
<title>Node12</title>
<g id="a_Node000012"><a xlink:href="Array_8cpp.html" target="_top" xlink:title=" ">
<polygon fill="white" stroke="#666666" points="4108.12,-33.5 3969.12,-33.5 3969.12,-12.75 4108.12,-12.75 4108.12,-33.5"/>
<text text-anchor="middle" x="4038.62" y="-20" font-family="Helvetica,sans-Serif" font-size="10.00">lib/CAPI/Dialect/Array.cpp</text>
</a>
</g>
</g>
<!-- Node11&#45;&gt;Node12 -->
<g id="edge11_Node000011_Node000012" class="edge">
<title>Node11&#45;&gt;Node12</title>
<g id="a_edge11_Node000011_Node000012"><a xlink:title=" ">
<path fill="none" stroke="#63b8ff" d="M3606.54,-95.84C3699.22,-86.98 3840.04,-70.91 3960.62,-46.25 3976.48,-43.01 3993.83,-38.21 4008.14,-33.92"/>
<polygon fill="#63b8ff" stroke="#63b8ff" points="3606.33,-92.35 3596.71,-96.77 3606.99,-99.32 3606.33,-92.35"/>
</a>
</g>
</g>
<!-- Node13 -->
<g id="Node000013" class="node">
<title>Node13</title>
<g id="a_Node000013"><a xlink:href="ArrayToScalarPass_8cpp.html" target="_top" xlink:title="This file implements the &#45;llzk&#45;array&#45;to&#45;scalar pass.">
<polygon fill="white" stroke="#666666" points="3951.5,-39.88 3799.75,-39.88 3799.75,-6.38 3951.5,-6.38 3951.5,-39.88"/>
<text text-anchor="start" x="3807.75" y="-26.38" font-family="Helvetica,sans-Serif" font-size="10.00">lib/Dialect/Array/Transforms</text>
<text text-anchor="middle" x="3875.62" y="-13.62" font-family="Helvetica,sans-Serif" font-size="10.00">/ArrayToScalarPass.cpp</text>
</a>
</g>
</g>
<!-- Node11&#45;&gt;Node13 -->
<g id="edge12_Node000011_Node000013" class="edge">
<title>Node11&#45;&gt;Node13</title>
<g id="a_edge12_Node000011_Node000013"><a xlink:title=" ">
<path fill="none" stroke="#63b8ff" d="M3606.51,-85.16C3661.16,-74.42 3729.76,-60.37 3790.62,-46.25 3798.5,-44.42 3806.75,-42.41 3814.9,-40.35"/>
<polygon fill="#63b8ff" stroke="#63b8ff" points="3606.05,-81.69 3596.91,-87.05 3607.4,-88.56 3606.05,-81.69"/>
</a>
</g>
</g>
<!-- Node14&#45;&gt;Node10 -->
<g id="edge17_Node000014_Node000010" class="edge">
<title>Node14&#45;&gt;Node10</title>
<g id="a_edge17_Node000014_Node000010"><a xlink:title=" ">
<path fill="none" stroke="#63b8ff" d="M2547.57,-77.04C2574.38,-64.82 2605.08,-50.82 2628.16,-40.3"/>
<polygon fill="#63b8ff" stroke="#63b8ff" points="2546.14,-73.85 2538.5,-81.18 2549.05,-80.22 2546.14,-73.85"/>
</a>
</g>
</g>
<!-- Node15 -->
<g id="Node000015" class="node">
<title>Node15</title>
<g id="a_Node000015"><a xlink:href="Include_8cpp.html" target="_top" xlink:title=" ">
<polygon fill="white" stroke="#666666" points="2433.38,-33.5 2283.88,-33.5 2283.88,-12.75 2433.38,-12.75 2433.38,-33.5"/>
<text text-anchor="middle" x="2358.62" y="-20" font-family="Helvetica,sans-Serif" font-size="10.00">lib/CAPI/Dialect/Include.cpp</text>
</a>
</g>
</g>
<!-- Node14&#45;&gt;Node15 -->
<g id="edge15_Node000014_Node000015" class="edge">
<title>Node14&#45;&gt;Node15</title>
<g id="a_edge15_Node000014_Node000015"><a xlink:title=" ">
<path fill="none" stroke="#63b8ff" d="M2441.86,-75.91C2418.32,-61.26 2391.13,-44.35 2374.41,-33.94"/>
<polygon fill="#63b8ff" stroke="#63b8ff" points="2439.72,-78.7 2450.06,-81.01 2443.42,-72.75 2439.72,-78.7"/>
</a>
</g>
</g>
<!-- Node16 -->
<g id="Node000016" class="node">
<title>Node16</title>
<g id="a_Node000016"><a xlink:href="InlineIncludesPass_8cpp.html" target="_top" xlink:title="This file implements the &#45;llzk&#45;inline&#45;includes pass.">
<polygon fill="white" stroke="#666666" points="2595.38,-46.25 2451.88,-46.25 2451.88,0 2595.38,0 2595.38,-46.25"/>
<text text-anchor="start" x="2459.88" y="-32.75" font-family="Helvetica,sans-Serif" font-size="10.00">lib/Dialect/Include</text>
<text text-anchor="start" x="2459.88" y="-20" font-family="Helvetica,sans-Serif" font-size="10.00">/Transforms/InlineIncludes</text>
<text text-anchor="middle" x="2523.62" y="-7.25" font-family="Helvetica,sans-Serif" font-size="10.00">Pass.cpp</text>
</a>
</g>
</g>
<!-- Node14&#45;&gt;Node16 -->
<g id="edge16_Node000014_Node000016" class="edge">
<title>Node14&#45;&gt;Node16</title>
<g id="a_edge16_Node000014_Node000016"><a xlink:title=" ">
<path fill="none" stroke="#63b8ff" d="M2502.28,-71.71C2506.06,-63.29 2510.04,-54.41 2513.53,-46.64"/>
<polygon fill="#63b8ff" stroke="#63b8ff" points="2499.17,-70.08 2498.27,-80.64 2505.56,-72.95 2499.17,-70.08"/>
</a>
</g>
</g>
<!-- Node17&#45;&gt;Node10 -->
<g id="edge22_Node000017_Node000010" class="edge">
<title>Node17&#45;&gt;Node10</title>
<g id="a_edge22_Node000017_Node000010"><a xlink:title=" ">
<path fill="none" stroke="#63b8ff" d="M4112.76,-101.39C3808.73,-89.99 2739.8,-49.72 2722.62,-46.25 2715.65,-44.84 2708.42,-42.72 2701.51,-40.35"/>
<polygon fill="#63b8ff" stroke="#63b8ff" points="4112.47,-104.88 4122.59,-101.76 4112.73,-97.88 4112.47,-104.88"/>
</a>
</g>
</g>
<!-- Node18 -->
<g id="Node000018" class="node">
<title>Node18</title>
<g id="a_Node000018"><a xlink:href="Poly_8cpp.html" target="_top" xlink:title=" ">
<polygon fill="white" stroke="#666666" points="4259.5,-33.5 4125.75,-33.5 4125.75,-12.75 4259.5,-12.75 4259.5,-33.5"/>
<text text-anchor="middle" x="4192.62" y="-20" font-family="Helvetica,sans-Serif" font-size="10.00">lib/CAPI/Dialect/Poly.cpp</text>
</a>
</g>
</g>
<!-- Node17&#45;&gt;Node18 -->
<g id="edge19_Node000017_Node000018" class="edge">
<title>Node17&#45;&gt;Node18</title>
<g id="a_edge19_Node000017_Node000018"><a xlink:title=" ">
<path fill="none" stroke="#63b8ff" d="M4192.62,-70.75C4192.62,-57.46 4192.62,-43.2 4192.62,-34"/>
<polygon fill="#63b8ff" stroke="#63b8ff" points="4189.13,-70.51 4192.63,-80.51 4196.13,-70.51 4189.13,-70.51"/>
</a>
</g>
</g>
<!-- Node19 -->
<g id="Node000019" class="node">
<title>Node19</title>
<g id="a_Node000019"><a xlink:href="EmptyParamListRemovalPass_8cpp.html" target="_top" xlink:title="This file implements the &#45;llzk&#45;drop&#45;empty&#45;params pass.">
<polygon fill="white" stroke="#666666" points="4476.12,-46.25 4277.12,-46.25 4277.12,0 4476.12,0 4476.12,-46.25"/>
<text text-anchor="start" x="4285.12" y="-32.75" font-family="Helvetica,sans-Serif" font-size="10.00">lib/Dialect/Polymorphic</text>
<text text-anchor="start" x="4285.12" y="-20" font-family="Helvetica,sans-Serif" font-size="10.00">/Transforms/EmptyParamListRemoval</text>
<text text-anchor="middle" x="4376.62" y="-7.25" font-family="Helvetica,sans-Serif" font-size="10.00">Pass.cpp</text>
</a>
</g>
</g>
<!-- Node17&#45;&gt;Node19 -->
<g id="edge20_Node000017_Node000019" class="edge">
<title>Node17&#45;&gt;Node19</title>
<g id="a_edge20_Node000017_Node000019"><a xlink:title=" ">
<path fill="none" stroke="#63b8ff" d="M4254.65,-77.32C4277.5,-67.36 4303.11,-56.19 4324.95,-46.66"/>
<polygon fill="#63b8ff" stroke="#63b8ff" points="4253.52,-74 4245.76,-81.2 4256.32,-80.41 4253.52,-74"/>
</a>
</g>
</g>
<!-- Node20 -->
<g id="Node000020" class="node">
<title>Node20</title>
<g id="a_Node000020"><a xlink:href="FlatteningPass_8cpp.html" target="_top" xlink:title="This file implements the &#45;llzk&#45;flatten pass.">
<polygon fill="white" stroke="#666666" points="4661.38,-39.88 4493.88,-39.88 4493.88,-6.38 4661.38,-6.38 4661.38,-39.88"/>
<text text-anchor="start" x="4501.88" y="-26.38" font-family="Helvetica,sans-Serif" font-size="10.00">lib/Dialect/Polymorphic</text>
<text text-anchor="middle" x="4577.62" y="-13.62" font-family="Helvetica,sans-Serif" font-size="10.00">/Transforms/FlatteningPass.cpp</text>
</a>
</g>
</g>
<!-- Node17&#45;&gt;Node20 -->
<g id="edge21_Node000017_Node000020" class="edge">
<title>Node17&#45;&gt;Node20</title>
<g id="a_edge21_Node000017_Node000020"><a xlink:title=" ">
<path fill="none" stroke="#63b8ff" d="M4272.57,-89.41C4331.58,-78.15 4413.77,-62.01 4485.62,-46.25 4494.13,-44.38 4503.06,-42.34 4511.86,-40.28"/>
<polygon fill="#63b8ff" stroke="#63b8ff" points="4272.12,-85.94 4262.95,-91.25 4273.43,-92.81 4272.12,-85.94"/>
</a>
</g>
</g>
<!-- Node21&#45;&gt;Node10 -->
<g id="edge35_Node000021_Node000010" class="edge">
<title>Node21&#45;&gt;Node10</title>
<g id="a_edge35_Node000021_Node000010"><a xlink:title=" ">
<path fill="none" stroke="#63b8ff" d="M1286.02,-102.31C1576.74,-95.44 2476.17,-72.29 2604.62,-46.25 2611.59,-44.84 2618.83,-42.72 2625.74,-40.34"/>
<polygon fill="#63b8ff" stroke="#63b8ff" points="1286.13,-98.81 1276.21,-102.54 1286.29,-105.8 1286.13,-98.81"/>
</a>
</g>
</g>
<!-- Node22 -->
<g id="Node000022" class="node">
<title>Node22</title>
<g id="a_Node000022"><a xlink:href="Transforms_8cpp.html" target="_top" xlink:title=" ">
<polygon fill="white" stroke="#666666" points="1100,-33.5 969.25,-33.5 969.25,-12.75 1100,-12.75 1100,-33.5"/>
<text text-anchor="middle" x="1034.62" y="-20" font-family="Helvetica,sans-Serif" font-size="10.00">lib/CAPI/Transforms.cpp</text>
</a>
</g>
</g>
<!-- Node21&#45;&gt;Node22 -->
<g id="edge24_Node000021_Node000022" class="edge">
<title>Node21&#45;&gt;Node22</title>
<g id="a_edge24_Node000021_Node000022"><a xlink:title=" ">
<path fill="none" stroke="#63b8ff" d="M1153.02,-83.14C1120.92,-67.14 1078.39,-45.94 1054.02,-33.79"/>
<polygon fill="#63b8ff" stroke="#63b8ff" points="1151.18,-86.13 1161.69,-87.46 1154.3,-79.87 1151.18,-86.13"/>
</a>
</g>
</g>
<!-- Node21&#45;&gt;Node23 -->
<g id="edge25_Node000021_Node000023" class="edge">
<title>Node21&#45;&gt;Node23</title>
<g id="a_edge25_Node000021_Node000023"><a xlink:title=" ">
<path fill="none" stroke="#63b8ff" d="M1286.23,-95.64C1374.03,-86.37 1510.71,-69.78 1627.62,-46.25 1644.1,-42.93 1662.17,-38.18 1677.14,-33.93"/>
<polygon fill="#63b8ff" stroke="#63b8ff" points="1286.05,-92.14 1276.47,-96.66 1286.78,-99.11 1286.05,-92.14"/>
</a>
</g>
</g>
<!-- Node24 -->
<g id="Node000024" class="node">
<title>Node24</title>
<g id="a_Node000024"><a xlink:href="LLZKComputeConstrainToProductPass_8cpp.html" target="_top" xlink:title="This file implements the &#45;llzk&#45;product&#45;program pass.">
<polygon fill="white" stroke="#666666" points="1273.38,-39.88 1117.88,-39.88 1117.88,-6.38 1273.38,-6.38 1273.38,-39.88"/>
<text text-anchor="start" x="1125.88" y="-26.38" font-family="Helvetica,sans-Serif" font-size="10.00">lib/Transforms/LLZKCompute</text>
<text text-anchor="middle" x="1195.62" y="-13.62" font-family="Helvetica,sans-Serif" font-size="10.00">ConstrainToProductPass.cpp</text>
</a>
</g>
</g>
<!-- Node21&#45;&gt;Node24 -->
<g id="edge26_Node000021_Node000024" class="edge">
<title>Node21&#45;&gt;Node24</title>
<g id="a_edge26_Node000021_Node000024"><a xlink:title=" ">
<path fill="none" stroke="#63b8ff" d="M1195.62,-76.75C1195.62,-64.61 1195.62,-50.78 1195.62,-40.34"/>
<polygon fill="#63b8ff" stroke="#63b8ff" points="1192.13,-76.62 1195.63,-86.62 1199.13,-76.62 1192.13,-76.62"/>
</a>
</g>
</g>
<!-- Node25 -->
<g id="Node000025" class="node">
<title>Node25</title>
<g id="a_Node000025"><a xlink:href="LLZKFuseProductLoopsPass_8cpp.html" target="_top" xlink:title="This file implements the &#45;llzk&#45;fuse&#45;product&#45;loops pass.">
<polygon fill="white" stroke="#666666" points="1462.25,-39.88 1291,-39.88 1291,-6.38 1462.25,-6.38 1462.25,-39.88"/>
<text text-anchor="start" x="1299" y="-26.38" font-family="Helvetica,sans-Serif" font-size="10.00">lib/Transforms/LLZKFuseProduct</text>
<text text-anchor="middle" x="1376.62" y="-13.62" font-family="Helvetica,sans-Serif" font-size="10.00">LoopsPass.cpp</text>
</a>
</g>
</g>
<!-- Node21&#45;&gt;Node25 -->
<g id="edge27_Node000021_Node000025" class="edge">
<title>Node21&#45;&gt;Node25</title>
<g id="a_edge27_Node000021_Node000025"><a xlink:title=" ">
<path fill="none" stroke="#63b8ff" d="M1242.61,-83.54C1273,-70.07 1311.97,-52.79 1340.05,-40.34"/>
<polygon fill="#63b8ff" stroke="#63b8ff" points="1241.36,-80.27 1233.64,-87.52 1244.2,-86.67 1241.36,-80.27"/>
</a>
</g>
</g>
<!-- Node26 -->
<g id="Node000026" class="node">
<title>Node26</title>
<g id="a_Node000026"><a xlink:href="LLZKInlineStructsPass_8cpp.html" target="_top" xlink:title="This file implements the &#45;llzk&#45;inline&#45;structs pass.">
<polygon fill="white" stroke="#666666" points="1619.12,-39.88 1480.12,-39.88 1480.12,-6.38 1619.12,-6.38 1619.12,-39.88"/>
<text text-anchor="start" x="1488.12" y="-26.38" font-family="Helvetica,sans-Serif" font-size="10.00">lib/Transforms/LLZKInline</text>
<text text-anchor="middle" x="1549.62" y="-13.62" font-family="Helvetica,sans-Serif" font-size="10.00">StructsPass.cpp</text>
</a>
</g>
</g>
<!-- Node21&#45;&gt;Node26 -->
<g id="edge28_Node000021_Node000026" class="edge">
<title>Node21&#45;&gt;Node26</title>
<g id="a_edge28_Node000021_Node000026"><a xlink:title=" ">
<path fill="none" stroke="#63b8ff" d="M1286.06,-86.96C1340.12,-76.15 1410.04,-61.45 1471.62,-46.25 1479,-44.43 1486.74,-42.39 1494.36,-40.31"/>
<polygon fill="#63b8ff" stroke="#63b8ff" points="1285.38,-83.53 1276.25,-88.92 1286.74,-90.39 1285.38,-83.53"/>
</a>
</g>
</g>
<!-- Node21&#45;&gt;Node27 -->
<g id="edge29_Node000021_Node000027" class="edge">
<title>Node21&#45;&gt;Node27</title>
<g id="a_edge29_Node000021_Node000027"><a xlink:title=" ">
<path fill="none" stroke="#63b8ff" d="M1286.02,-100.14C1403.18,-93.6 1613.45,-78.3 1790.62,-46.25 1799.43,-44.66 1808.67,-42.6 1817.65,-40.37"/>
<polygon fill="#63b8ff" stroke="#63b8ff" points="1285.94,-96.64 1276.14,-100.68 1286.32,-103.63 1285.94,-96.64"/>
</a>
</g>
</g>
<!-- Node28 -->
<g id="Node000028" class="node">
<title>Node28</title>
<g id="a_Node000028"><a xlink:href="LLZKPolyLoweringPass_8cpp.html" target="_top" xlink:title="This file implements the &#45;llzk&#45;poly&#45;lowering pass.">
<polygon fill="white" stroke="#666666" points="177.25,-39.88 0,-39.88 0,-6.38 177.25,-6.38 177.25,-39.88"/>
<text text-anchor="start" x="8" y="-26.38" font-family="Helvetica,sans-Serif" font-size="10.00">lib/Transforms/LLZKPolyLowering</text>
<text text-anchor="middle" x="88.62" y="-13.62" font-family="Helvetica,sans-Serif" font-size="10.00">Pass.cpp</text>
</a>
</g>
</g>
<!-- Node21&#45;&gt;Node28 -->
<g id="edge30_Node000021_Node000028" class="edge">
<title>Node21&#45;&gt;Node28</title>
<g id="a_edge30_Node000021_Node000028"><a xlink:title=" ">
<path fill="none" stroke="#63b8ff" d="M1105.03,-104.14C927.77,-102.57 523.05,-93.59 186.62,-46.25 175.83,-44.73 164.46,-42.63 153.45,-40.33"/>
<polygon fill="#63b8ff" stroke="#63b8ff" points="1104.83,-107.63 1114.86,-104.22 1104.89,-100.63 1104.83,-107.63"/>
</a>
</g>
</g>
<!-- Node29 -->
<g id="Node000029" class="node">
<title>Node29</title>
<g id="a_Node000029"><a xlink:href="LLZKRedundantOperationEliminationPass_8cpp.html" target="_top" xlink:title="This file implements the &#45;llzk&#45;duplicate&#45;op&#45;elim pass.">
<polygon fill="white" stroke="#666666" points="359.88,-39.88 195.38,-39.88 195.38,-6.38 359.88,-6.38 359.88,-39.88"/>
<text text-anchor="start" x="203.38" y="-26.38" font-family="Helvetica,sans-Serif" font-size="10.00">lib/Transforms/LLZKRedundant</text>
<text text-anchor="middle" x="277.62" y="-13.62" font-family="Helvetica,sans-Serif" font-size="10.00">OperationEliminationPass.cpp</text>
</a>
</g>
</g>
<!-- Node21&#45;&gt;Node29 -->
<g id="edge31_Node000021_Node000029" class="edge">
<title>Node21&#45;&gt;Node29</title>
<g id="a_edge31_Node000021_Node000029"><a xlink:title=" ">
<path fill="none" stroke="#63b8ff" d="M1105.31,-102.99C952.67,-99.55 634.33,-87.59 368.62,-46.25 358.66,-44.7 348.19,-42.6 338.04,-40.32"/>
<polygon fill="#63b8ff" stroke="#63b8ff" points="1104.86,-106.48 1114.94,-103.2 1105.02,-99.48 1104.86,-106.48"/>
</a>
</g>
</g>
<!-- Node30 -->
<g id="Node000030" class="node">
<title>Node30</title>
<g id="a_Node000030"><a xlink:href="LLZKRedundantReadAndWriteEliminationPass_8cpp.html" target="_top" xlink:title="This file implements the &#45;llzk&#45;duplicate&#45;read&#45;write&#45;elim pass.">
<polygon fill="white" stroke="#666666" points="561.25,-39.88 378,-39.88 378,-6.38 561.25,-6.38 561.25,-39.88"/>
<text text-anchor="start" x="386" y="-26.38" font-family="Helvetica,sans-Serif" font-size="10.00">lib/Transforms/LLZKRedundant</text>
<text text-anchor="middle" x="469.62" y="-13.62" font-family="Helvetica,sans-Serif" font-size="10.00">ReadAndWriteEliminationPass.cpp</text>
</a>
</g>
</g>
<!-- Node21&#45;&gt;Node30 -->
<g id="edge32_Node000021_Node000030" class="edge">
<title>Node21&#45;&gt;Node30</title>
<g id="a_edge32_Node000021_Node000030"><a xlink:title=" ">
<path fill="none" stroke="#63b8ff" d="M1104.82,-99.44C982.81,-92.01 759.44,-75.6 570.62,-46.25 560.07,-44.61 548.97,-42.54 538.14,-40.32"/>
<polygon fill="#63b8ff" stroke="#63b8ff" points="1104.61,-102.93 1114.8,-100.04 1105.03,-95.95 1104.61,-102.93"/>
</a>
</g>
</g>
<!-- Node31 -->
<g id="Node000031" class="node">
<title>Node31</title>
<g id="a_Node000031"><a xlink:href="LLZKTransformationPassPipelines_8cpp.html" target="_top" xlink:title="This file implements logic for registering several pass pipelines.">
<polygon fill="white" stroke="#666666" points="764,-39.88 579.25,-39.88 579.25,-6.38 764,-6.38 764,-39.88"/>
<text text-anchor="start" x="587.25" y="-26.38" font-family="Helvetica,sans-Serif" font-size="10.00">lib/Transforms/LLZKTransformation</text>
<text text-anchor="middle" x="671.62" y="-13.62" font-family="Helvetica,sans-Serif" font-size="10.00">PassPipelines.cpp</text>
</a>
</g>
</g>
<!-- Node21&#45;&gt;Node31 -->
<g id="edge33_Node000021_Node000031" class="edge">
<title>Node21&#45;&gt;Node31</title>
<g id="a_edge33_Node000021_Node000031"><a xlink:title=" ">
<path fill="none" stroke="#63b8ff" d="M1105.32,-94.06C1019.45,-83.77 886.82,-66.57 772.62,-46.25 762.82,-44.5 752.51,-42.48 742.39,-40.37"/>
<polygon fill="#63b8ff" stroke="#63b8ff" points="1104.75,-97.52 1115.09,-95.23 1105.57,-90.57 1104.75,-97.52"/>
</a>
</g>
</g>
<!-- Node32 -->
<g id="Node000032" class="node">
<title>Node32</title>
<g id="a_Node000032"><a xlink:href="LLZKUnusedDeclarationEliminationPass_8cpp.html" target="_top" xlink:title="This file implements the &#45;llzk&#45;unused&#45;declaration&#45;elim pass.">
<polygon fill="white" stroke="#666666" points="951.5,-39.88 781.75,-39.88 781.75,-6.38 951.5,-6.38 951.5,-39.88"/>
<text text-anchor="start" x="789.75" y="-26.38" font-family="Helvetica,sans-Serif" font-size="10.00">lib/Transforms/LLZKUnused</text>
<text text-anchor="middle" x="866.62" y="-13.62" font-family="Helvetica,sans-Serif" font-size="10.00">DeclarationEliminationPass.cpp</text>
</a>
</g>
</g>
<!-- Node21&#45;&gt;Node32 -->
<g id="edge34_Node000021_Node000032" class="edge">
<title>Node21&#45;&gt;Node32</title>
<g id="a_edge34_Node000021_Node000032"><a xlink:title=" ">
<path fill="none" stroke="#63b8ff" d="M1118.07,-85.46C1061.84,-71.74 986.59,-53.39 933.1,-40.34"/>
<polygon fill="#63b8ff" stroke="#63b8ff" points="1117.03,-88.81 1127.58,-87.78 1118.69,-82.01 1117.03,-88.81"/>
</a>
</g>
</g>
<!-- Node33&#45;&gt;Node10 -->
<g id="edge39_Node000033_Node000010" class="edge">
<title>Node33&#45;&gt;Node10</title>
<g id="a_edge39_Node000033_Node000010"><a xlink:title=" ">
<path fill="none" stroke="#63b8ff" d="M2352.86,-88.75C2364.5,-86.52 2376.37,-84.29 2387.62,-82.25 2483.83,-64.86 2510.19,-71.53 2604.62,-46.25 2610.86,-44.58 2617.35,-42.51 2623.66,-40.3"/>
<polygon fill="#63b8ff" stroke="#63b8ff" points="2352.43,-85.27 2343.27,-90.61 2353.75,-92.14 2352.43,-85.27"/>
</a>
</g>
</g>
<!-- Node34 -->
<g id="Node000034" class="node">
<title>Node34</title>
<g id="a_Node000034"><a xlink:href="Validators_8cpp.html" target="_top" xlink:title=" ">
<polygon fill="white" stroke="#666666" points="2265.38,-33.5 2139.88,-33.5 2139.88,-12.75 2265.38,-12.75 2265.38,-33.5"/>
<text text-anchor="middle" x="2202.62" y="-20" font-family="Helvetica,sans-Serif" font-size="10.00">lib/CAPI/Validators.cpp</text>
</a>
</g>
</g>
<!-- Node33&#45;&gt;Node34 -->
<g id="edge37_Node000033_Node000034" class="edge">
<title>Node33&#45;&gt;Node34</title>
<g id="a_edge37_Node000033_Node000034"><a xlink:title=" ">
<path fill="none" stroke="#63b8ff" d="M2252.72,-79.96C2238.78,-64.42 2221.49,-45.15 2211.3,-33.79"/>
<polygon fill="#63b8ff" stroke="#63b8ff" points="2249.76,-81.9 2259.04,-87.01 2254.97,-77.23 2249.76,-81.9"/>
</a>
</g>
</g>
<!-- Node35 -->
<g id="Node000035" class="node">
<title>Node35</title>
<g id="a_Node000035"><a xlink:href="LLZKValidationPasses_8cpp.html" target="_top" xlink:title="This file contains the implementation for the &#45;llzk&#45;validate&#45;member&#45;writes pass.">
<polygon fill="white" stroke="#666666" points="2121.38,-39.88 1965.88,-39.88 1965.88,-6.38 2121.38,-6.38 2121.38,-39.88"/>
<text text-anchor="start" x="1973.88" y="-26.38" font-family="Helvetica,sans-Serif" font-size="10.00">lib/Validators/LLZKValidation</text>
<text text-anchor="middle" x="2043.62" y="-13.62" font-family="Helvetica,sans-Serif" font-size="10.00">Passes.cpp</text>
</a>
</g>
</g>
<!-- Node33&#45;&gt;Node35 -->
<g id="edge38_Node000033_Node000035" class="edge">
<title>Node33&#45;&gt;Node35</title>
<g id="a_edge38_Node000033_Node000035"><a xlink:title=" ">
<path fill="none" stroke="#63b8ff" d="M2217.18,-84.42C2178.06,-70.83 2126.92,-53.06 2090.3,-40.34"/>
<polygon fill="#63b8ff" stroke="#63b8ff" points="2215.85,-87.66 2226.45,-87.64 2218.15,-81.05 2215.85,-87.66"/>
</a>
</g>
</g>
</g>
</svg>
