<?xml version="1.0" encoding="UTF-8" standalone="no"?>
<!DOCTYPE svg PUBLIC "-//W3C//DTD SVG 1.1//EN"
 "http://www.w3.org/Graphics/SVG/1.1/DTD/svg11.dtd">
<!-- Generated by graphviz version 12.2.1 (0)
 -->
<!-- Title: include/llzk/CAPI/Support.h Pages: 1 -->
<svg width="970pt" height="212pt"
 viewBox="0.00 0.00 970.00 211.75" xmlns="http://www.w3.org/2000/svg" xmlns:xlink="http://www.w3.org/1999/xlink">
<g id="graph0" class="graph" transform="scale(1 1) rotate(0) translate(4 207.75)">
<title>include/llzk/CAPI/Support.h</title>
<!-- Node1 -->
<g id="Node000001" class="node">
<title>Node1</title>
<g id="a_Node000001"><a xlink:title=" ">
<polygon fill="#999999" stroke="#666666" points="636.25,-203.75 489.75,-203.75 489.75,-183 636.25,-183 636.25,-203.75"/>
<text text-anchor="middle" x="563" y="-190.25" font-family="Helvetica,sans-Serif" font-size="10.00">include/llzk/CAPI/Support.h</text>
</a>
</g>
</g>
<!-- Node2 -->
<g id="Node000002" class="node">
<title>Node2</title>
<g id="a_Node000002"><a xlink:href="llzk-c_2Support_8h.html" target="_top" xlink:title=" ">
<polygon fill="white" stroke="#666666" points="176.88,-140.62 85.12,-140.62 85.12,-119.88 176.88,-119.88 176.88,-140.62"/>
<text text-anchor="middle" x="131" y="-127.12" font-family="Helvetica,sans-Serif" font-size="10.00">llzk&#45;c/Support.h</text>
</a>
</g>
</g>
<!-- Node1&#45;&gt;Node2 -->
<g id="edge1_Node000001_Node000002" class="edge">
<title>Node1&#45;&gt;Node2</title>
<g id="a_edge1_Node000001_Node000002"><a xlink:title=" ">
<path fill="none" stroke="#63b8ff" d="M489.5,-183.06C421.38,-174.28 317.23,-160.49 227,-147 214.59,-145.15 201.31,-143.04 188.69,-140.99"/>
<polygon fill="#63b8ff" stroke="#63b8ff" points="189.27,-137.54 178.84,-139.37 188.14,-144.44 189.27,-137.54"/>
</a>
</g>
</g>
<!-- Node4 -->
<g id="Node000004" class="node">
<title>Node4</title>
<g id="a_Node000004"><a xlink:title=" ">
<polygon fill="#e0e0e0" stroke="#999999" points="236.12,-20.75 169.88,-20.75 169.88,0 236.12,0 236.12,-20.75"/>
<text text-anchor="middle" x="203" y="-7.25" font-family="Helvetica,sans-Serif" font-size="10.00">mlir&#45;c/IR.h</text>
</a>
</g>
</g>
<!-- Node1&#45;&gt;Node4 -->
<g id="edge15_Node000001_Node000004" class="edge">
<title>Node1&#45;&gt;Node4</title>
<g id="a_edge15_Node000001_Node000004"><a xlink:title=" ">
<path fill="none" stroke="#63b8ff" d="M517,-182.53C454.51,-167.54 341.27,-134.55 260,-77.5 241.66,-64.62 225.49,-44.56 215.1,-29.91"/>
<polygon fill="#63b8ff" stroke="#63b8ff" points="218.25,-28.32 209.73,-22.03 212.47,-32.27 218.25,-28.32"/>
</a>
</g>
</g>
<!-- Node7 -->
<g id="Node000007" class="node">
<title>Node7</title>
<g id="a_Node000007"><a xlink:href="AttributeHelper_8h.html" target="_top" xlink:title=" ">
<polygon fill="white" stroke="#666666" points="561.25,-147 450.75,-147 450.75,-113.5 561.25,-113.5 561.25,-147"/>
<text text-anchor="start" x="458.75" y="-133.5" font-family="Helvetica,sans-Serif" font-size="10.00">llzk/Dialect/LLZK/IR</text>
<text text-anchor="middle" x="506" y="-120.75" font-family="Helvetica,sans-Serif" font-size="10.00">/AttributeHelper.h</text>
</a>
</g>
</g>
<!-- Node1&#45;&gt;Node7 -->
<g id="edge8_Node000001_Node000007" class="edge">
<title>Node1&#45;&gt;Node7</title>
<g id="a_edge8_Node000001_Node000007"><a xlink:title=" ">
<path fill="none" stroke="#63b8ff" d="M553.84,-182.55C547.1,-175.32 537.61,-165.15 528.86,-155.77"/>
<polygon fill="#63b8ff" stroke="#63b8ff" points="531.55,-153.52 522.17,-148.59 526.43,-158.29 531.55,-153.52"/>
</a>
</g>
</g>
<!-- Node14 -->
<g id="Node000014" class="node">
<title>Node14</title>
<g id="a_Node000014"><a xlink:title=" ">
<polygon fill="#e0e0e0" stroke="#999999" points="662.38,-140.62 579.62,-140.62 579.62,-119.88 662.38,-119.88 662.38,-140.62"/>
<text text-anchor="middle" x="621" y="-127.12" font-family="Helvetica,sans-Serif" font-size="10.00">mlir/CAPI/IR.h</text>
</a>
</g>
</g>
<!-- Node1&#45;&gt;Node14 -->
<g id="edge16_Node000001_Node000014" class="edge">
<title>Node1&#45;&gt;Node14</title>
<g id="a_edge16_Node000001_Node000014"><a xlink:title=" ">
<path fill="none" stroke="#63b8ff" d="M572.32,-182.55C580.91,-173.5 593.86,-159.85 604.25,-148.9"/>
<polygon fill="#63b8ff" stroke="#63b8ff" points="606.51,-151.61 610.85,-141.94 601.43,-146.79 606.51,-151.61"/>
</a>
</g>
</g>
<!-- Node15 -->
<g id="Node000015" class="node">
<title>Node15</title>
<g id="a_Node000015"><a xlink:title=" ">
<polygon fill="#e0e0e0" stroke="#999999" points="825.88,-140.62 680.12,-140.62 680.12,-119.88 825.88,-119.88 825.88,-140.62"/>
<text text-anchor="middle" x="753" y="-127.12" font-family="Helvetica,sans-Serif" font-size="10.00">mlir/IR/OperationSupport.h</text>
</a>
</g>
</g>
<!-- Node1&#45;&gt;Node15 -->
<g id="edge17_Node000001_Node000015" class="edge">
<title>Node1&#45;&gt;Node15</title>
<g id="a_edge17_Node000001_Node000015"><a xlink:title=" ">
<path fill="none" stroke="#63b8ff" d="M593.53,-182.55C625.66,-172.22 676.42,-155.89 712.02,-144.43"/>
<polygon fill="#63b8ff" stroke="#63b8ff" points="712.66,-147.9 721.11,-141.51 710.52,-141.24 712.66,-147.9"/>
</a>
</g>
</g>
<!-- Node16 -->
<g id="Node000016" class="node">
<title>Node16</title>
<g id="a_Node000016"><a xlink:title=" ">
<polygon fill="#e0e0e0" stroke="#999999" points="962,-140.62 844,-140.62 844,-119.88 962,-119.88 962,-140.62"/>
<text text-anchor="middle" x="903" y="-127.12" font-family="Helvetica,sans-Serif" font-size="10.00">mlir/IR/ValueRange.h</text>
</a>
</g>
</g>
<!-- Node1&#45;&gt;Node16 -->
<g id="edge18_Node000001_Node000016" class="edge">
<title>Node1&#45;&gt;Node16</title>
<g id="a_edge18_Node000001_Node000016"><a xlink:title=" ">
<path fill="none" stroke="#63b8ff" d="M629.17,-182.52C684.37,-174.01 765.04,-160.92 835,-147 840.29,-145.95 845.8,-144.78 851.29,-143.58"/>
<polygon fill="#63b8ff" stroke="#63b8ff" points="851.99,-147.01 860.98,-141.41 850.46,-140.18 851.99,-147.01"/>
</a>
</g>
</g>
<!-- Node3 -->
<g id="Node000003" class="node">
<title>Node3</title>
<g id="a_Node000003"><a xlink:href="llzk-c_2Builder_8h.html" target="_top" xlink:title=" ">
<polygon fill="white" stroke="#666666" points="175,-77.5 87,-77.5 87,-56.75 175,-56.75 175,-77.5"/>
<text text-anchor="middle" x="131" y="-64" font-family="Helvetica,sans-Serif" font-size="10.00">llzk&#45;c/Builder.h</text>
</a>
</g>
</g>
<!-- Node2&#45;&gt;Node3 -->
<g id="edge2_Node000002_Node000003" class="edge">
<title>Node2&#45;&gt;Node3</title>
<g id="a_edge2_Node000002_Node000003"><a xlink:title=" ">
<path fill="none" stroke="#63b8ff" d="M131,-119.43C131,-111.27 131,-99.38 131,-89.1"/>
<polygon fill="#63b8ff" stroke="#63b8ff" points="134.5,-89.23 131,-79.23 127.5,-89.23 134.5,-89.23"/>
</a>
</g>
</g>
<!-- Node2&#45;&gt;Node4 -->
<g id="edge5_Node000002_Node000004" class="edge">
<title>Node2&#45;&gt;Node4</title>
<g id="a_edge5_Node000002_Node000004"><a xlink:title=" ">
<path fill="none" stroke="#63b8ff" d="M144.23,-119.61C156.28,-110.17 173.71,-94.72 184,-77.5 192.35,-63.53 197.19,-45.69 199.9,-32.07"/>
<polygon fill="#63b8ff" stroke="#63b8ff" points="203.3,-32.91 201.56,-22.46 196.41,-31.71 203.3,-32.91"/>
</a>
</g>
</g>
<!-- Node5 -->
<g id="Node000005" class="node">
<title>Node5</title>
<g id="a_Node000005"><a xlink:title=" ">
<polygon fill="#e0e0e0" stroke="#999999" points="94,-20.75 0,-20.75 0,0 94,0 94,-20.75"/>
<text text-anchor="middle" x="47" y="-7.25" font-family="Helvetica,sans-Serif" font-size="10.00">mlir&#45;c/Support.h</text>
</a>
</g>
</g>
<!-- Node2&#45;&gt;Node5 -->
<g id="edge6_Node000002_Node000005" class="edge">
<title>Node2&#45;&gt;Node5</title>
<g id="a_edge6_Node000002_Node000005"><a xlink:title=" ">
<path fill="none" stroke="#63b8ff" d="M84.91,-122.67C57.58,-116.13 25.05,-103.17 8,-77.5 -2.69,-61.41 11.22,-42.35 25.31,-28.83"/>
<polygon fill="#63b8ff" stroke="#63b8ff" points="27.6,-31.48 32.75,-22.22 22.95,-26.24 27.6,-31.48"/>
</a>
</g>
</g>
<!-- Node6 -->
<g id="Node000006" class="node">
<title>Node6</title>
<g id="a_Node000006"><a xlink:title=" ">
<polygon fill="#e0e0e0" stroke="#999999" points="69.38,-77.5 16.62,-77.5 16.62,-56.75 69.38,-56.75 69.38,-77.5"/>
<text text-anchor="middle" x="43" y="-64" font-family="Helvetica,sans-Serif" font-size="10.00">stdint.h</text>
</a>
</g>
</g>
<!-- Node2&#45;&gt;Node6 -->
<g id="edge7_Node000002_Node000006" class="edge">
<title>Node2&#45;&gt;Node6</title>
<g id="a_edge7_Node000002_Node000006"><a xlink:title=" ">
<path fill="none" stroke="#63b8ff" d="M116.86,-119.43C103.26,-109.98 82.46,-95.53 66.39,-84.37"/>
<polygon fill="#63b8ff" stroke="#63b8ff" points="68.56,-81.62 58.35,-78.78 64.56,-87.36 68.56,-81.62"/>
</a>
</g>
</g>
<!-- Node3&#45;&gt;Node4 -->
<g id="edge3_Node000003_Node000004" class="edge">
<title>Node3&#45;&gt;Node4</title>
<g id="a_edge3_Node000003_Node000004"><a xlink:title=" ">
<path fill="none" stroke="#63b8ff" d="M143.87,-56.34C154.21,-48.47 168.97,-37.25 181.15,-27.99"/>
<polygon fill="#63b8ff" stroke="#63b8ff" points="183.19,-30.83 189.03,-21.99 178.96,-25.26 183.19,-30.83"/>
</a>
</g>
</g>
<!-- Node3&#45;&gt;Node5 -->
<g id="edge4_Node000003_Node000005" class="edge">
<title>Node3&#45;&gt;Node5</title>
<g id="a_edge4_Node000003_Node000005"><a xlink:title=" ">
<path fill="none" stroke="#63b8ff" d="M115.98,-56.34C103.56,-48.24 85.68,-36.58 71.23,-27.17"/>
<polygon fill="#63b8ff" stroke="#63b8ff" points="73.44,-24.43 63.16,-21.9 69.62,-30.3 73.44,-24.43"/>
</a>
</g>
</g>
<!-- Node8 -->
<g id="Node000008" class="node">
<title>Node8</title>
<g id="a_Node000008"><a xlink:href="StreamHelper_8h.html" target="_top" xlink:title=" ">
<polygon fill="white" stroke="#666666" points="401.12,-77.5 268.88,-77.5 268.88,-56.75 401.12,-56.75 401.12,-77.5"/>
<text text-anchor="middle" x="335" y="-64" font-family="Helvetica,sans-Serif" font-size="10.00">llzk/Util/StreamHelper.h</text>
</a>
</g>
</g>
<!-- Node7&#45;&gt;Node8 -->
<g id="edge9_Node000007_Node000008" class="edge">
<title>Node7&#45;&gt;Node8</title>
<g id="a_edge9_Node000007_Node000008"><a xlink:title=" ">
<path fill="none" stroke="#63b8ff" d="M460.62,-113.03C433.27,-103.25 398.82,-90.94 372.92,-81.68"/>
<polygon fill="#63b8ff" stroke="#63b8ff" points="374.41,-78.49 363.81,-78.42 372.05,-85.09 374.41,-78.49"/>
</a>
</g>
</g>
<!-- Node10 -->
<g id="Node000010" class="node">
<title>Node10</title>
<g id="a_Node000010"><a xlink:title=" ">
<polygon fill="#e0e0e0" stroke="#999999" points="592.38,-77.5 419.62,-77.5 419.62,-56.75 592.38,-56.75 592.38,-77.5"/>
<text text-anchor="middle" x="506" y="-64" font-family="Helvetica,sans-Serif" font-size="10.00">mlir/IR/DialectImplementation.h</text>
</a>
</g>
</g>
<!-- Node7&#45;&gt;Node10 -->
<g id="edge11_Node000007_Node000010" class="edge">
<title>Node7&#45;&gt;Node10</title>
<g id="a_edge11_Node000007_Node000010"><a xlink:title=" ">
<path fill="none" stroke="#63b8ff" d="M506,-113.19C506,-105.85 506,-97.07 506,-89.21"/>
<polygon fill="#63b8ff" stroke="#63b8ff" points="509.5,-89.48 506,-79.48 502.5,-89.48 509.5,-89.48"/>
</a>
</g>
</g>
<!-- Node11 -->
<g id="Node000011" class="node">
<title>Node11</title>
<g id="a_Node000011"><a xlink:title=" ">
<polygon fill="#e0e0e0" stroke="#999999" points="709.25,-77.5 610.75,-77.5 610.75,-56.75 709.25,-56.75 709.25,-77.5"/>
<text text-anchor="middle" x="660" y="-64" font-family="Helvetica,sans-Serif" font-size="10.00">llvm/ADT/APInt.h</text>
</a>
</g>
</g>
<!-- Node7&#45;&gt;Node11 -->
<g id="edge12_Node000007_Node000011" class="edge">
<title>Node7&#45;&gt;Node11</title>
<g id="a_edge12_Node000007_Node000011"><a xlink:title=" ">
<path fill="none" stroke="#63b8ff" d="M546.86,-113.03C571.17,-103.38 601.7,-91.27 624.91,-82.05"/>
<polygon fill="#63b8ff" stroke="#63b8ff" points="625.92,-85.42 633.93,-78.47 623.34,-78.91 625.92,-85.42"/>
</a>
</g>
</g>
<!-- Node12 -->
<g id="Node000012" class="node">
<title>Node12</title>
<g id="a_Node000012"><a xlink:title=" ">
<polygon fill="#e0e0e0" stroke="#999999" points="840.38,-77.5 727.62,-77.5 727.62,-56.75 840.38,-56.75 840.38,-77.5"/>
<text text-anchor="middle" x="784" y="-64" font-family="Helvetica,sans-Serif" font-size="10.00">llvm/ADT/Hashing.h</text>
</a>
</g>
</g>
<!-- Node7&#45;&gt;Node12 -->
<g id="edge13_Node000007_Node000012" class="edge">
<title>Node7&#45;&gt;Node12</title>
<g id="a_edge13_Node000007_Node000012"><a xlink:title=" ">
<path fill="none" stroke="#63b8ff" d="M561.65,-115.66C564.81,-114.92 567.94,-114.2 571,-113.5 622.95,-101.68 682.24,-89.12 725.05,-80.22"/>
<polygon fill="#63b8ff" stroke="#63b8ff" points="725.56,-83.69 734.64,-78.23 724.14,-76.84 725.56,-83.69"/>
</a>
</g>
</g>
<!-- Node13 -->
<g id="Node000013" class="node">
<title>Node13</title>
<g id="a_Node000013"><a xlink:title=" ">
<polygon fill="#e0e0e0" stroke="#999999" points="903.25,-77.5 858.75,-77.5 858.75,-56.75 903.25,-56.75 903.25,-77.5"/>
<text text-anchor="middle" x="881" y="-64" font-family="Helvetica,sans-Serif" font-size="10.00">utility</text>
</a>
</g>
</g>
<!-- Node7&#45;&gt;Node13 -->
<g id="edge14_Node000007_Node000013" class="edge">
<title>Node7&#45;&gt;Node13</title>
<g id="a_edge14_Node000007_Node000013"><a xlink:title=" ">
<path fill="none" stroke="#63b8ff" d="M561.58,-115.36C564.76,-114.7 567.92,-114.07 571,-113.5 690.03,-91.44 725.1,-102.42 847.46,-77.5"/>
<polygon fill="#63b8ff" stroke="#63b8ff" points="847.83,-81 856.9,-75.53 846.4,-74.14 847.83,-81"/>
</a>
</g>
</g>
<!-- Node9 -->
<g id="Node000009" class="node">
<title>Node9</title>
<g id="a_Node000009"><a xlink:title=" ">
<polygon fill="#e0e0e0" stroke="#999999" points="412,-20.75 258,-20.75 258,0 412,0 412,-20.75"/>
<text text-anchor="middle" x="335" y="-7.25" font-family="Helvetica,sans-Serif" font-size="10.00">llvm/Support/raw_ostream.h</text>
</a>
</g>
</g>
<!-- Node8&#45;&gt;Node9 -->
<g id="edge10_Node000008_Node000009" class="edge">
<title>Node8&#45;&gt;Node9</title>
<g id="a_edge10_Node000008_Node000009"><a xlink:title=" ">
<path fill="none" stroke="#63b8ff" d="M335,-56.34C335,-49.72 335,-40.72 335,-32.52"/>
<polygon fill="#63b8ff" stroke="#63b8ff" points="338.5,-32.59 335,-22.59 331.5,-32.59 338.5,-32.59"/>
</a>
</g>
</g>
</g>
</svg>
