<?xml version="1.0" encoding="UTF-8" standalone="no"?>
<!DOCTYPE svg PUBLIC "-//W3C//DTD SVG 1.1//EN"
 "http://www.w3.org/Graphics/SVG/1.1/DTD/svg11.dtd">
<!-- Generated by graphviz version 12.2.1 (0)
 -->
<!-- Title: lib/CAPI/Dialect/LLZK.cpp Pages: 1 -->
<svg width="2243pt" height="281pt"
 viewBox="0.00 0.00 2242.72 281.25" xmlns="http://www.w3.org/2000/svg" xmlns:xlink="http://www.w3.org/1999/xlink">
<g id="graph0" class="graph" transform="scale(1 1) rotate(0) translate(4 277.25)">
<title>lib/CAPI/Dialect/LLZK.cpp</title>
<!-- Node1 -->
<g id="Node000001" class="node">
<title>Node1</title>
<g id="a_Node000001"><a xlink:title=" ">
<polygon fill="#999999" stroke="#666666" points="1600.34,-273.25 1462.09,-273.25 1462.09,-252.5 1600.34,-252.5 1600.34,-273.25"/>
<text text-anchor="middle" x="1531.22" y="-259.75" font-family="Helvetica,sans-Serif" font-size="10.00">lib/CAPI/Dialect/LLZK.cpp</text>
</a>
</g>
</g>
<!-- Node2 -->
<g id="Node000002" class="node">
<title>Node2</title>
<g id="a_Node000002"><a xlink:href="llzk_2CAPI_2Support_8h.html" target="_top" xlink:title=" ">
<polygon fill="white" stroke="#666666" points="665.34,-210.12 557.09,-210.12 557.09,-189.38 665.34,-189.38 665.34,-210.12"/>
<text text-anchor="middle" x="611.22" y="-196.62" font-family="Helvetica,sans-Serif" font-size="10.00">llzk/CAPI/Support.h</text>
</a>
</g>
</g>
<!-- Node1&#45;&gt;Node2 -->
<g id="edge1_Node000001_Node000002" class="edge">
<title>Node1&#45;&gt;Node2</title>
<g id="a_edge1_Node000001_Node000002"><a xlink:title=" ">
<path fill="none" stroke="#63b8ff" d="M1461.69,-257.26C1289.5,-245.82 845.05,-216.29 676.95,-205.12"/>
<polygon fill="#63b8ff" stroke="#63b8ff" points="677.29,-201.63 667.08,-204.46 676.82,-208.62 677.29,-201.63"/>
</a>
</g>
</g>
<!-- Node16 -->
<g id="Node000016" class="node">
<title>Node16</title>
<g id="a_Node000016"><a xlink:href="LLZK_2IR_2Attrs_8h.html" target="_top" xlink:title=" ">
<polygon fill="white" stroke="#666666" points="1522.47,-216.5 1411.97,-216.5 1411.97,-183 1522.47,-183 1522.47,-216.5"/>
<text text-anchor="start" x="1419.97" y="-203" font-family="Helvetica,sans-Serif" font-size="10.00">llzk/Dialect/LLZK/IR</text>
<text text-anchor="middle" x="1467.22" y="-190.25" font-family="Helvetica,sans-Serif" font-size="10.00">/Attrs.h</text>
</a>
</g>
</g>
<!-- Node1&#45;&gt;Node16 -->
<g id="edge18_Node000001_Node000016" class="edge">
<title>Node1&#45;&gt;Node16</title>
<g id="a_edge18_Node000001_Node000016"><a xlink:title=" ">
<path fill="none" stroke="#63b8ff" d="M1520.94,-252.05C1513.21,-244.67 1502.28,-234.23 1492.29,-224.7"/>
<polygon fill="#63b8ff" stroke="#63b8ff" points="1494.96,-222.41 1485.31,-218.03 1490.13,-227.47 1494.96,-222.41"/>
</a>
</g>
</g>
<!-- Node19 -->
<g id="Node000019" class="node">
<title>Node19</title>
<g id="a_Node000019"><a xlink:href="LLZK_2IR_2Dialect_8h.html" target="_top" xlink:title=" ">
<polygon fill="white" stroke="#666666" points="1651.47,-216.5 1540.97,-216.5 1540.97,-183 1651.47,-183 1651.47,-216.5"/>
<text text-anchor="start" x="1548.97" y="-203" font-family="Helvetica,sans-Serif" font-size="10.00">llzk/Dialect/LLZK/IR</text>
<text text-anchor="middle" x="1596.22" y="-190.25" font-family="Helvetica,sans-Serif" font-size="10.00">/Dialect.h</text>
</a>
</g>
</g>
<!-- Node1&#45;&gt;Node19 -->
<g id="edge21_Node000001_Node000019" class="edge">
<title>Node1&#45;&gt;Node19</title>
<g id="a_edge21_Node000001_Node000019"><a xlink:title=" ">
<path fill="none" stroke="#63b8ff" d="M1541.66,-252.05C1549.51,-244.67 1560.61,-234.23 1570.75,-224.7"/>
<polygon fill="#63b8ff" stroke="#63b8ff" points="1572.96,-227.42 1577.85,-218.02 1568.17,-222.32 1572.96,-227.42"/>
</a>
</g>
</g>
<!-- Node22 -->
<g id="Node000022" class="node">
<title>Node22</title>
<g id="a_Node000022"><a xlink:href="LLZK_2IR_2Ops_8h.html" target="_top" xlink:title=" ">
<polygon fill="white" stroke="#666666" points="1844.47,-216.5 1733.97,-216.5 1733.97,-183 1844.47,-183 1844.47,-216.5"/>
<text text-anchor="start" x="1741.97" y="-203" font-family="Helvetica,sans-Serif" font-size="10.00">llzk/Dialect/LLZK/IR</text>
<text text-anchor="middle" x="1789.22" y="-190.25" font-family="Helvetica,sans-Serif" font-size="10.00">/Ops.h</text>
</a>
</g>
</g>
<!-- Node1&#45;&gt;Node22 -->
<g id="edge24_Node000001_Node000022" class="edge">
<title>Node1&#45;&gt;Node22</title>
<g id="a_edge24_Node000001_Node000022"><a xlink:title=" ">
<path fill="none" stroke="#63b8ff" d="M1572.67,-252.05C1613.16,-242.46 1675.42,-227.71 1722.81,-216.48"/>
<polygon fill="#63b8ff" stroke="#63b8ff" points="1723.51,-219.92 1732.43,-214.2 1721.89,-213.1 1723.51,-219.92"/>
</a>
</g>
</g>
<!-- Node26 -->
<g id="Node000026" class="node">
<title>Node26</title>
<g id="a_Node000026"><a xlink:href="LLZK_8h.html" target="_top" xlink:title=" ">
<polygon fill="white" stroke="#666666" points="193.09,-210.12 77.34,-210.12 77.34,-189.38 193.09,-189.38 193.09,-210.12"/>
<text text-anchor="middle" x="135.22" y="-196.62" font-family="Helvetica,sans-Serif" font-size="10.00">llzk&#45;c/Dialect/LLZK.h</text>
</a>
</g>
</g>
<!-- Node1&#45;&gt;Node26 -->
<g id="edge28_Node000001_Node000026" class="edge">
<title>Node1&#45;&gt;Node26</title>
<g id="a_edge28_Node000001_Node000026"><a xlink:title=" ">
<path fill="none" stroke="#63b8ff" d="M1461.99,-258.84C1224.23,-248.43 442.55,-214.21 204.58,-203.79"/>
<polygon fill="#63b8ff" stroke="#63b8ff" points="204.99,-200.3 194.84,-203.36 204.68,-207.29 204.99,-200.3"/>
</a>
</g>
</g>
<!-- Node29 -->
<g id="Node000029" class="node">
<title>Node29</title>
<g id="a_Node000029"><a xlink:title=" ">
<polygon fill="#e0e0e0" stroke="#999999" points="1994.34,-210.12 1862.09,-210.12 1862.09,-189.38 1994.34,-189.38 1994.34,-210.12"/>
<text text-anchor="middle" x="1928.22" y="-196.62" font-family="Helvetica,sans-Serif" font-size="10.00">mlir/CAPI/Registration.h</text>
</a>
</g>
</g>
<!-- Node1&#45;&gt;Node29 -->
<g id="edge36_Node000001_Node000029" class="edge">
<title>Node1&#45;&gt;Node29</title>
<g id="a_edge36_Node000001_Node000029"><a xlink:title=" ">
<path fill="none" stroke="#63b8ff" d="M1600.84,-253.43C1666.2,-245.18 1766.61,-231.68 1853.22,-216.5 1859.6,-215.38 1866.27,-214.12 1872.88,-212.81"/>
<polygon fill="#63b8ff" stroke="#63b8ff" points="1873.31,-216.29 1882.41,-210.87 1871.92,-209.43 1873.31,-216.29"/>
</a>
</g>
</g>
<!-- Node30 -->
<g id="Node000030" class="node">
<title>Node30</title>
<g id="a_Node000030"><a xlink:href="LLZK_2IR_2Attrs_8capi_8cpp_8inc.html" target="_top" xlink:title=" ">
<polygon fill="white" stroke="#666666" points="1122.47,-216.5 1011.97,-216.5 1011.97,-183 1122.47,-183 1122.47,-216.5"/>
<text text-anchor="start" x="1019.97" y="-203" font-family="Helvetica,sans-Serif" font-size="10.00">llzk/Dialect/LLZK/IR</text>
<text text-anchor="middle" x="1067.22" y="-190.25" font-family="Helvetica,sans-Serif" font-size="10.00">/Attrs.capi.cpp.inc</text>
</a>
</g>
</g>
<!-- Node1&#45;&gt;Node30 -->
<g id="edge37_Node000001_Node000030" class="edge">
<title>Node1&#45;&gt;Node30</title>
<g id="a_edge37_Node000001_Node000030"><a xlink:title=" ">
<path fill="none" stroke="#63b8ff" d="M1461.75,-252.72C1373.32,-241.07 1221.57,-221.08 1134.3,-209.59"/>
<polygon fill="#63b8ff" stroke="#63b8ff" points="1134.81,-206.12 1124.44,-208.29 1133.9,-213.06 1134.81,-206.12"/>
</a>
</g>
</g>
<!-- Node34 -->
<g id="Node000034" class="node">
<title>Node34</title>
<g id="a_Node000034"><a xlink:href="LLZK_2IR_2Ops_8capi_8cpp_8inc.html" target="_top" xlink:title=" ">
<polygon fill="white" stroke="#666666" points="2122.47,-216.5 2011.97,-216.5 2011.97,-183 2122.47,-183 2122.47,-216.5"/>
<text text-anchor="start" x="2019.97" y="-203" font-family="Helvetica,sans-Serif" font-size="10.00">llzk/Dialect/LLZK/IR</text>
<text text-anchor="middle" x="2067.22" y="-190.25" font-family="Helvetica,sans-Serif" font-size="10.00">/Ops.capi.cpp.inc</text>
</a>
</g>
</g>
<!-- Node1&#45;&gt;Node34 -->
<g id="edge42_Node000001_Node000034" class="edge">
<title>Node1&#45;&gt;Node34</title>
<g id="a_edge42_Node000001_Node000034"><a xlink:title=" ">
<path fill="none" stroke="#63b8ff" d="M1600.82,-258.36C1691,-253.1 1853.24,-241.23 2000.45,-216.83"/>
<polygon fill="#63b8ff" stroke="#63b8ff" points="2000.7,-220.34 2009.98,-215.23 1999.54,-213.44 2000.7,-220.34"/>
</a>
</g>
</g>
<!-- Node3 -->
<g id="Node000003" class="node">
<title>Node3</title>
<g id="a_Node000003"><a xlink:href="AttributeHelper_8h.html" target="_top" xlink:title=" ">
<polygon fill="white" stroke="#666666" points="666.47,-147 555.97,-147 555.97,-113.5 666.47,-113.5 666.47,-147"/>
<text text-anchor="start" x="563.97" y="-133.5" font-family="Helvetica,sans-Serif" font-size="10.00">llzk/Dialect/LLZK/IR</text>
<text text-anchor="middle" x="611.22" y="-120.75" font-family="Helvetica,sans-Serif" font-size="10.00">/AttributeHelper.h</text>
</a>
</g>
</g>
<!-- Node2&#45;&gt;Node3 -->
<g id="edge2_Node000002_Node000003" class="edge">
<title>Node2&#45;&gt;Node3</title>
<g id="a_edge2_Node000002_Node000003"><a xlink:title=" ">
<path fill="none" stroke="#63b8ff" d="M611.22,-189.08C611.22,-181.19 611.22,-169.63 611.22,-158.91"/>
<polygon fill="#63b8ff" stroke="#63b8ff" points="614.72,-158.93 611.22,-148.93 607.72,-158.93 614.72,-158.93"/>
</a>
</g>
</g>
<!-- Node8 -->
<g id="Node000008" class="node">
<title>Node8</title>
<g id="a_Node000008"><a xlink:href="llzk-c_2Support_8h.html" target="_top" xlink:title=" ">
<polygon fill="white" stroke="#666666" points="538.09,-140.62 446.34,-140.62 446.34,-119.88 538.09,-119.88 538.09,-140.62"/>
<text text-anchor="middle" x="492.22" y="-127.12" font-family="Helvetica,sans-Serif" font-size="10.00">llzk&#45;c/Support.h</text>
</a>
</g>
</g>
<!-- Node2&#45;&gt;Node8 -->
<g id="edge7_Node000002_Node000008" class="edge">
<title>Node2&#45;&gt;Node8</title>
<g id="a_edge7_Node000002_Node000008"><a xlink:title=" ">
<path fill="none" stroke="#63b8ff" d="M593.92,-188.93C574.35,-177.84 542.24,-159.63 519.34,-146.63"/>
<polygon fill="#63b8ff" stroke="#63b8ff" points="521.28,-143.71 510.86,-141.82 517.83,-149.8 521.28,-143.71"/>
</a>
</g>
</g>
<!-- Node10 -->
<g id="Node000010" class="node">
<title>Node10</title>
<g id="a_Node000010"><a xlink:title=" ">
<polygon fill="#e0e0e0" stroke="#999999" points="277.34,-20.75 211.09,-20.75 211.09,0 277.34,0 277.34,-20.75"/>
<text text-anchor="middle" x="244.22" y="-7.25" font-family="Helvetica,sans-Serif" font-size="10.00">mlir&#45;c/IR.h</text>
</a>
</g>
</g>
<!-- Node2&#45;&gt;Node10 -->
<g id="edge17_Node000002_Node000010" class="edge">
<title>Node2&#45;&gt;Node10</title>
<g id="a_edge17_Node000002_Node000010"><a xlink:title=" ">
<path fill="none" stroke="#63b8ff" d="M556.64,-195.89C478.5,-190.78 339.9,-177.59 301.22,-147 265.11,-118.44 251.59,-62.86 246.75,-32.47"/>
<polygon fill="#63b8ff" stroke="#63b8ff" points="250.23,-32.06 245.38,-22.64 243.3,-33.03 250.23,-32.06"/>
</a>
</g>
</g>
<!-- Node13 -->
<g id="Node000013" class="node">
<title>Node13</title>
<g id="a_Node000013"><a xlink:title=" ">
<polygon fill="#e0e0e0" stroke="#999999" points="930.59,-140.62 847.84,-140.62 847.84,-119.88 930.59,-119.88 930.59,-140.62"/>
<text text-anchor="middle" x="889.22" y="-127.12" font-family="Helvetica,sans-Serif" font-size="10.00">mlir/CAPI/IR.h</text>
</a>
</g>
</g>
<!-- Node2&#45;&gt;Node13 -->
<g id="edge14_Node000002_Node000013" class="edge">
<title>Node2&#45;&gt;Node13</title>
<g id="a_edge14_Node000002_Node000013"><a xlink:title=" ">
<path fill="none" stroke="#63b8ff" d="M659.98,-188.89C706.34,-179.23 777.9,-163.59 839.22,-147 842.31,-146.16 845.49,-145.26 848.68,-144.33"/>
<polygon fill="#63b8ff" stroke="#63b8ff" points="849.45,-147.75 858.01,-141.5 847.43,-141.05 849.45,-147.75"/>
</a>
</g>
</g>
<!-- Node14 -->
<g id="Node000014" class="node">
<title>Node14</title>
<g id="a_Node000014"><a xlink:title=" ">
<polygon fill="#e0e0e0" stroke="#999999" points="830.09,-140.62 684.34,-140.62 684.34,-119.88 830.09,-119.88 830.09,-140.62"/>
<text text-anchor="middle" x="757.22" y="-127.12" font-family="Helvetica,sans-Serif" font-size="10.00">mlir/IR/OperationSupport.h</text>
</a>
</g>
</g>
<!-- Node2&#45;&gt;Node14 -->
<g id="edge15_Node000002_Node000014" class="edge">
<title>Node2&#45;&gt;Node14</title>
<g id="a_edge15_Node000002_Node000014"><a xlink:title=" ">
<path fill="none" stroke="#63b8ff" d="M632.45,-188.93C656.99,-177.59 697.63,-158.8 725.82,-145.76"/>
<polygon fill="#63b8ff" stroke="#63b8ff" points="726.98,-149.09 734.59,-141.71 724.04,-142.73 726.98,-149.09"/>
</a>
</g>
</g>
<!-- Node15 -->
<g id="Node000015" class="node">
<title>Node15</title>
<g id="a_Node000015"><a xlink:title=" ">
<polygon fill="#e0e0e0" stroke="#999999" points="428.22,-140.62 310.22,-140.62 310.22,-119.88 428.22,-119.88 428.22,-140.62"/>
<text text-anchor="middle" x="369.22" y="-127.12" font-family="Helvetica,sans-Serif" font-size="10.00">mlir/IR/ValueRange.h</text>
</a>
</g>
</g>
<!-- Node2&#45;&gt;Node15 -->
<g id="edge16_Node000002_Node000015" class="edge">
<title>Node2&#45;&gt;Node15</title>
<g id="a_edge16_Node000002_Node000015"><a xlink:title=" ">
<path fill="none" stroke="#63b8ff" d="M576.03,-188.93C533.64,-177.11 462.31,-157.22 415.5,-144.16"/>
<polygon fill="#63b8ff" stroke="#63b8ff" points="416.48,-140.8 405.91,-141.48 414.6,-147.54 416.48,-140.8"/>
</a>
</g>
</g>
<!-- Node4 -->
<g id="Node000004" class="node">
<title>Node4</title>
<g id="a_Node000004"><a xlink:href="StreamHelper_8h.html" target="_top" xlink:title=" ">
<polygon fill="white" stroke="#666666" points="981.34,-77.5 849.09,-77.5 849.09,-56.75 981.34,-56.75 981.34,-77.5"/>
<text text-anchor="middle" x="915.22" y="-64" font-family="Helvetica,sans-Serif" font-size="10.00">llzk/Util/StreamHelper.h</text>
</a>
</g>
</g>
<!-- Node3&#45;&gt;Node4 -->
<g id="edge3_Node000003_Node000004" class="edge">
<title>Node3&#45;&gt;Node4</title>
<g id="a_edge3_Node000003_Node000004"><a xlink:title=" ">
<path fill="none" stroke="#63b8ff" d="M666.68,-115.41C669.56,-114.75 672.42,-114.11 675.22,-113.5 732.95,-100.95 798.93,-88.62 847.08,-79.99"/>
<polygon fill="#63b8ff" stroke="#63b8ff" points="847.59,-83.45 856.82,-78.25 846.36,-76.56 847.59,-83.45"/>
</a>
</g>
</g>
<!-- Node6 -->
<g id="Node000006" class="node">
<title>Node6</title>
<g id="a_Node000006"><a xlink:title=" ">
<polygon fill="#e0e0e0" stroke="#999999" points="830.59,-77.5 657.84,-77.5 657.84,-56.75 830.59,-56.75 830.59,-77.5"/>
<text text-anchor="middle" x="744.22" y="-64" font-family="Helvetica,sans-Serif" font-size="10.00">mlir/IR/DialectImplementation.h</text>
</a>
</g>
</g>
<!-- Node3&#45;&gt;Node6 -->
<g id="edge5_Node000003_Node000006" class="edge">
<title>Node3&#45;&gt;Node6</title>
<g id="a_edge5_Node000003_Node000006"><a xlink:title=" ">
<path fill="none" stroke="#63b8ff" d="M646.51,-113.03C667.03,-103.6 692.67,-91.81 712.54,-82.68"/>
<polygon fill="#63b8ff" stroke="#63b8ff" points="713.92,-85.9 721.54,-78.55 710.99,-79.54 713.92,-85.9"/>
</a>
</g>
</g>
<!-- Node7 -->
<g id="Node000007" class="node">
<title>Node7</title>
<g id="a_Node000007"><a xlink:title=" ">
<polygon fill="#e0e0e0" stroke="#999999" points="639.47,-77.5 540.97,-77.5 540.97,-56.75 639.47,-56.75 639.47,-77.5"/>
<text text-anchor="middle" x="590.22" y="-64" font-family="Helvetica,sans-Serif" font-size="10.00">llvm/ADT/APInt.h</text>
</a>
</g>
</g>
<!-- Node3&#45;&gt;Node7 -->
<g id="edge6_Node000003_Node000007" class="edge">
<title>Node3&#45;&gt;Node7</title>
<g id="a_edge6_Node000003_Node000007"><a xlink:title=" ">
<path fill="none" stroke="#63b8ff" d="M605.7,-113.19C603.12,-105.68 600.02,-96.65 597.27,-88.65"/>
<polygon fill="#63b8ff" stroke="#63b8ff" points="600.65,-87.72 594.09,-79.4 594.03,-89.99 600.65,-87.72"/>
</a>
</g>
</g>
<!-- Node5 -->
<g id="Node000005" class="node">
<title>Node5</title>
<g id="a_Node000005"><a xlink:title=" ">
<polygon fill="#e0e0e0" stroke="#999999" points="992.22,-20.75 838.22,-20.75 838.22,0 992.22,0 992.22,-20.75"/>
<text text-anchor="middle" x="915.22" y="-7.25" font-family="Helvetica,sans-Serif" font-size="10.00">llvm/Support/raw_ostream.h</text>
</a>
</g>
</g>
<!-- Node4&#45;&gt;Node5 -->
<g id="edge4_Node000004_Node000005" class="edge">
<title>Node4&#45;&gt;Node5</title>
<g id="a_edge4_Node000004_Node000005"><a xlink:title=" ">
<path fill="none" stroke="#63b8ff" d="M915.22,-56.34C915.22,-49.72 915.22,-40.72 915.22,-32.52"/>
<polygon fill="#63b8ff" stroke="#63b8ff" points="918.72,-32.59 915.22,-22.59 911.72,-32.59 918.72,-32.59"/>
</a>
</g>
</g>
<!-- Node9 -->
<g id="Node000009" class="node">
<title>Node9</title>
<g id="a_Node000009"><a xlink:href="llzk-c_2Builder_8h.html" target="_top" xlink:title=" ">
<polygon fill="white" stroke="#666666" points="377.22,-77.5 289.22,-77.5 289.22,-56.75 377.22,-56.75 377.22,-77.5"/>
<text text-anchor="middle" x="333.22" y="-64" font-family="Helvetica,sans-Serif" font-size="10.00">llzk&#45;c/Builder.h</text>
</a>
</g>
</g>
<!-- Node8&#45;&gt;Node9 -->
<g id="edge8_Node000008_Node000009" class="edge">
<title>Node8&#45;&gt;Node9</title>
<g id="a_edge8_Node000008_Node000009"><a xlink:title=" ">
<path fill="none" stroke="#63b8ff" d="M466.67,-119.43C440.25,-109.27 398.76,-93.32 369.06,-81.9"/>
<polygon fill="#63b8ff" stroke="#63b8ff" points="370.7,-78.79 360.11,-78.46 368.19,-85.32 370.7,-78.79"/>
</a>
</g>
</g>
<!-- Node8&#45;&gt;Node10 -->
<g id="edge11_Node000008_Node000010" class="edge">
<title>Node8&#45;&gt;Node10</title>
<g id="a_edge11_Node000008_Node000010"><a xlink:title=" ">
<path fill="none" stroke="#63b8ff" d="M480.53,-119.55C461.71,-104.34 423.08,-74.76 386.22,-56.75 354.91,-41.45 317.26,-29.69 288.6,-21.98"/>
<polygon fill="#63b8ff" stroke="#63b8ff" points="289.72,-18.66 279.16,-19.51 287.95,-25.43 289.72,-18.66"/>
</a>
</g>
</g>
<!-- Node11 -->
<g id="Node000011" class="node">
<title>Node11</title>
<g id="a_Node000011"><a xlink:title=" ">
<polygon fill="#e0e0e0" stroke="#999999" points="396.22,-20.75 302.22,-20.75 302.22,0 396.22,0 396.22,-20.75"/>
<text text-anchor="middle" x="349.22" y="-7.25" font-family="Helvetica,sans-Serif" font-size="10.00">mlir&#45;c/Support.h</text>
</a>
</g>
</g>
<!-- Node8&#45;&gt;Node11 -->
<g id="edge12_Node000008_Node000011" class="edge">
<title>Node8&#45;&gt;Node11</title>
<g id="a_edge12_Node000008_Node000011"><a xlink:title=" ">
<path fill="none" stroke="#63b8ff" d="M495.94,-119.46C500.98,-104.39 507.86,-75.32 494.22,-56.75 474.46,-29.87 438.84,-18.47 407.85,-13.82"/>
<polygon fill="#63b8ff" stroke="#63b8ff" points="408.54,-10.38 398.18,-12.59 407.65,-17.33 408.54,-10.38"/>
</a>
</g>
</g>
<!-- Node12 -->
<g id="Node000012" class="node">
<title>Node12</title>
<g id="a_Node000012"><a xlink:title=" ">
<polygon fill="#e0e0e0" stroke="#999999" points="485.59,-77.5 432.84,-77.5 432.84,-56.75 485.59,-56.75 485.59,-77.5"/>
<text text-anchor="middle" x="459.22" y="-64" font-family="Helvetica,sans-Serif" font-size="10.00">stdint.h</text>
</a>
</g>
</g>
<!-- Node8&#45;&gt;Node12 -->
<g id="edge13_Node000008_Node000012" class="edge">
<title>Node8&#45;&gt;Node12</title>
<g id="a_edge13_Node000008_Node000012"><a xlink:title=" ">
<path fill="none" stroke="#63b8ff" d="M486.92,-119.43C482.32,-110.91 475.53,-98.33 469.82,-87.76"/>
<polygon fill="#63b8ff" stroke="#63b8ff" points="472.95,-86.19 465.12,-79.05 466.79,-89.51 472.95,-86.19"/>
</a>
</g>
</g>
<!-- Node9&#45;&gt;Node10 -->
<g id="edge9_Node000009_Node000010" class="edge">
<title>Node9&#45;&gt;Node10</title>
<g id="a_edge9_Node000009_Node000010"><a xlink:title=" ">
<path fill="none" stroke="#63b8ff" d="M317.31,-56.34C304.02,-48.16 284.83,-36.36 269.45,-26.9"/>
<polygon fill="#63b8ff" stroke="#63b8ff" points="271.63,-24.13 261.28,-21.87 267.97,-30.09 271.63,-24.13"/>
</a>
</g>
</g>
<!-- Node9&#45;&gt;Node11 -->
<g id="edge10_Node000009_Node000011" class="edge">
<title>Node9&#45;&gt;Node11</title>
<g id="a_edge10_Node000009_Node000011"><a xlink:title=" ">
<path fill="none" stroke="#63b8ff" d="M336.08,-56.34C338.06,-49.56 340.77,-40.3 343.21,-31.94"/>
<polygon fill="#63b8ff" stroke="#63b8ff" points="346.51,-33.11 345.96,-22.53 339.79,-31.15 346.51,-33.11"/>
</a>
</g>
</g>
<!-- Node17 -->
<g id="Node000017" class="node">
<title>Node17</title>
<g id="a_Node000017"><a xlink:title=" ">
<polygon fill="#e0e0e0" stroke="#999999" points="1522.34,-140.62 1414.09,-140.62 1414.09,-119.88 1522.34,-119.88 1522.34,-140.62"/>
<text text-anchor="middle" x="1468.22" y="-127.12" font-family="Helvetica,sans-Serif" font-size="10.00">mlir/IR/Attributes.h</text>
</a>
</g>
</g>
<!-- Node16&#45;&gt;Node17 -->
<g id="edge19_Node000016_Node000017" class="edge">
<title>Node16&#45;&gt;Node17</title>
<g id="a_edge19_Node000016_Node000017"><a xlink:title=" ">
<path fill="none" stroke="#63b8ff" d="M1467.46,-182.75C1467.59,-173.65 1467.76,-162.14 1467.91,-152.32"/>
<polygon fill="#63b8ff" stroke="#63b8ff" points="1471.4,-152.64 1468.05,-142.59 1464.4,-152.53 1471.4,-152.64"/>
</a>
</g>
</g>
<!-- Node18 -->
<g id="Node000018" class="node">
<title>Node18</title>
<g id="a_Node000018"><a xlink:href="LLZK_2IR_2Attrs_8h_8inc.html" target="_top" xlink:title=" ">
<polygon fill="white" stroke="#666666" points="1396.47,-147 1285.97,-147 1285.97,-113.5 1396.47,-113.5 1396.47,-147"/>
<text text-anchor="start" x="1293.97" y="-133.5" font-family="Helvetica,sans-Serif" font-size="10.00">llzk/Dialect/LLZK/IR</text>
<text text-anchor="middle" x="1341.22" y="-120.75" font-family="Helvetica,sans-Serif" font-size="10.00">/Attrs.h.inc</text>
</a>
</g>
</g>
<!-- Node16&#45;&gt;Node18 -->
<g id="edge20_Node000016_Node000018" class="edge">
<title>Node16&#45;&gt;Node18</title>
<g id="a_edge20_Node000016_Node000018"><a xlink:title=" ">
<path fill="none" stroke="#63b8ff" d="M1437.04,-182.58C1420.29,-173.61 1399.24,-162.33 1381.14,-152.63"/>
<polygon fill="#63b8ff" stroke="#63b8ff" points="1382.95,-149.64 1372.49,-148 1379.65,-155.81 1382.95,-149.64"/>
</a>
</g>
</g>
<!-- Node20 -->
<g id="Node000020" class="node">
<title>Node20</title>
<g id="a_Node000020"><a xlink:title=" ">
<polygon fill="#e0e0e0" stroke="#999999" points="1779.47,-140.62 1668.97,-140.62 1668.97,-119.88 1779.47,-119.88 1779.47,-140.62"/>
<text text-anchor="middle" x="1724.22" y="-127.12" font-family="Helvetica,sans-Serif" font-size="10.00">mlir/IR/BuiltinOps.h</text>
</a>
</g>
</g>
<!-- Node19&#45;&gt;Node20 -->
<g id="edge22_Node000019_Node000020" class="edge">
<title>Node19&#45;&gt;Node20</title>
<g id="a_edge22_Node000019_Node000020"><a xlink:title=" ">
<path fill="none" stroke="#63b8ff" d="M1626.88,-182.58C1647.79,-171.56 1675.29,-157.05 1695.72,-146.28"/>
<polygon fill="#63b8ff" stroke="#63b8ff" points="1697.14,-149.49 1704.35,-141.73 1693.87,-143.3 1697.14,-149.49"/>
</a>
</g>
</g>
<!-- Node21 -->
<g id="Node000021" class="node">
<title>Node21</title>
<g id="a_Node000021"><a xlink:href="LLZK_2IR_2Dialect_8h_8inc.html" target="_top" xlink:title=" ">
<polygon fill="white" stroke="#666666" points="1650.47,-147 1539.97,-147 1539.97,-113.5 1650.47,-113.5 1650.47,-147"/>
<text text-anchor="start" x="1547.97" y="-133.5" font-family="Helvetica,sans-Serif" font-size="10.00">llzk/Dialect/LLZK/IR</text>
<text text-anchor="middle" x="1595.22" y="-120.75" font-family="Helvetica,sans-Serif" font-size="10.00">/Dialect.h.inc</text>
</a>
</g>
</g>
<!-- Node19&#45;&gt;Node21 -->
<g id="edge23_Node000019_Node000021" class="edge">
<title>Node19&#45;&gt;Node21</title>
<g id="a_edge23_Node000019_Node000021"><a xlink:title=" ">
<path fill="none" stroke="#63b8ff" d="M1595.98,-182.75C1595.87,-175.52 1595.75,-166.78 1595.62,-158.56"/>
<polygon fill="#63b8ff" stroke="#63b8ff" points="1599.12,-158.59 1595.48,-148.65 1592.13,-158.7 1599.12,-158.59"/>
</a>
</g>
</g>
<!-- Node23 -->
<g id="Node000023" class="node">
<title>Node23</title>
<g id="a_Node000023"><a xlink:title=" ">
<polygon fill="#e0e0e0" stroke="#999999" points="2078.09,-140.62 1926.34,-140.62 1926.34,-119.88 2078.09,-119.88 2078.09,-140.62"/>
<text text-anchor="middle" x="2002.22" y="-127.12" font-family="Helvetica,sans-Serif" font-size="10.00">mlir/IR/OpImplementation.h</text>
</a>
</g>
</g>
<!-- Node22&#45;&gt;Node23 -->
<g id="edge25_Node000022_Node000023" class="edge">
<title>Node22&#45;&gt;Node23</title>
<g id="a_edge25_Node000022_Node000023"><a xlink:title=" ">
<path fill="none" stroke="#63b8ff" d="M1840.24,-182.58C1877,-170.93 1925.99,-155.41 1960.44,-144.49"/>
<polygon fill="#63b8ff" stroke="#63b8ff" points="1961.16,-147.93 1969.63,-141.58 1959.04,-141.26 1961.16,-147.93"/>
</a>
</g>
</g>
<!-- Node24 -->
<g id="Node000024" class="node">
<title>Node24</title>
<g id="a_Node000024"><a xlink:title=" ">
<polygon fill="#e0e0e0" stroke="#999999" points="2234.72,-147 2095.72,-147 2095.72,-113.5 2234.72,-113.5 2234.72,-147"/>
<text text-anchor="start" x="2103.72" y="-133.5" font-family="Helvetica,sans-Serif" font-size="10.00">mlir/Interfaces/SideEffect</text>
<text text-anchor="middle" x="2165.22" y="-120.75" font-family="Helvetica,sans-Serif" font-size="10.00">Interfaces.h</text>
</a>
</g>
</g>
<!-- Node22&#45;&gt;Node24 -->
<g id="edge26_Node000022_Node000024" class="edge">
<title>Node22&#45;&gt;Node24</title>
<g id="a_edge26_Node000022_Node000024"><a xlink:title=" ">
<path fill="none" stroke="#63b8ff" d="M1844.65,-184.79C1847.55,-184.16 1850.41,-183.56 1853.22,-183 1952.88,-163.11 1981.67,-165.24 2084.33,-147.46"/>
<polygon fill="#63b8ff" stroke="#63b8ff" points="2084.77,-150.93 2094.02,-145.76 2083.56,-144.04 2084.77,-150.93"/>
</a>
</g>
</g>
<!-- Node25 -->
<g id="Node000025" class="node">
<title>Node25</title>
<g id="a_Node000025"><a xlink:href="LLZK_2IR_2Ops_8h_8inc.html" target="_top" xlink:title=" ">
<polygon fill="white" stroke="#666666" points="1908.47,-147 1797.97,-147 1797.97,-113.5 1908.47,-113.5 1908.47,-147"/>
<text text-anchor="start" x="1805.97" y="-133.5" font-family="Helvetica,sans-Serif" font-size="10.00">llzk/Dialect/LLZK/IR</text>
<text text-anchor="middle" x="1853.22" y="-120.75" font-family="Helvetica,sans-Serif" font-size="10.00">/Ops.h.inc</text>
</a>
</g>
</g>
<!-- Node22&#45;&gt;Node25 -->
<g id="edge27_Node000022_Node000025" class="edge">
<title>Node22&#45;&gt;Node25</title>
<g id="a_edge27_Node000022_Node000025"><a xlink:title=" ">
<path fill="none" stroke="#63b8ff" d="M1804.39,-182.75C1812.12,-174.6 1821.68,-164.51 1830.29,-155.43"/>
<polygon fill="#63b8ff" stroke="#63b8ff" points="1832.78,-157.89 1837.12,-148.23 1827.7,-153.08 1832.78,-157.89"/>
</a>
</g>
</g>
<!-- Node26&#45;&gt;Node10 -->
<g id="edge29_Node000026_Node000010" class="edge">
<title>Node26&#45;&gt;Node10</title>
<g id="a_edge29_Node000026_Node000010"><a xlink:title=" ">
<path fill="none" stroke="#63b8ff" d="M77.08,-190.41C50.82,-183.42 22.17,-170.59 6.22,-147 -2.12,-134.67 -1.97,-125.93 6.22,-113.5 49.19,-48.31 143.37,-24.57 199.52,-16.04"/>
<polygon fill="#63b8ff" stroke="#63b8ff" points="199.97,-19.51 209.39,-14.65 199,-12.58 199.97,-19.51"/>
</a>
</g>
</g>
<!-- Node27 -->
<g id="Node000027" class="node">
<title>Node27</title>
<g id="a_Node000027"><a xlink:href="LLZK_2IR_2Attrs_8capi_8h_8inc.html" target="_top" xlink:title=" ">
<polygon fill="white" stroke="#666666" points="254.47,-147 143.97,-147 143.97,-113.5 254.47,-113.5 254.47,-147"/>
<text text-anchor="start" x="151.97" y="-133.5" font-family="Helvetica,sans-Serif" font-size="10.00">llzk/Dialect/LLZK/IR</text>
<text text-anchor="middle" x="199.22" y="-120.75" font-family="Helvetica,sans-Serif" font-size="10.00">/Attrs.capi.h.inc</text>
</a>
</g>
</g>
<!-- Node26&#45;&gt;Node27 -->
<g id="edge30_Node000026_Node000027" class="edge">
<title>Node26&#45;&gt;Node27</title>
<g id="a_edge30_Node000026_Node000027"><a xlink:title=" ">
<path fill="none" stroke="#63b8ff" d="M144.39,-189.08C152.68,-180.34 165.23,-167.1 176.23,-155.49"/>
<polygon fill="#63b8ff" stroke="#63b8ff" points="178.51,-158.18 182.85,-148.52 173.43,-153.37 178.51,-158.18"/>
</a>
</g>
</g>
<!-- Node28 -->
<g id="Node000028" class="node">
<title>Node28</title>
<g id="a_Node000028"><a xlink:href="LLZK_2IR_2Ops_8capi_8h_8inc.html" target="_top" xlink:title=" ">
<polygon fill="white" stroke="#666666" points="125.47,-147 14.97,-147 14.97,-113.5 125.47,-113.5 125.47,-147"/>
<text text-anchor="start" x="22.97" y="-133.5" font-family="Helvetica,sans-Serif" font-size="10.00">llzk/Dialect/LLZK/IR</text>
<text text-anchor="middle" x="70.22" y="-120.75" font-family="Helvetica,sans-Serif" font-size="10.00">/Ops.capi.h.inc</text>
</a>
</g>
</g>
<!-- Node26&#45;&gt;Node28 -->
<g id="edge33_Node000026_Node000028" class="edge">
<title>Node26&#45;&gt;Node28</title>
<g id="a_edge33_Node000026_Node000028"><a xlink:title=" ">
<path fill="none" stroke="#63b8ff" d="M125.91,-189.08C117.49,-180.34 104.74,-167.1 93.56,-155.49"/>
<polygon fill="#63b8ff" stroke="#63b8ff" points="96.3,-153.28 86.84,-148.51 91.25,-158.14 96.3,-153.28"/>
</a>
</g>
</g>
<!-- Node27&#45;&gt;Node9 -->
<g id="edge31_Node000027_Node000009" class="edge">
<title>Node27&#45;&gt;Node9</title>
<g id="a_edge31_Node000027_Node000009"><a xlink:title=" ">
<path fill="none" stroke="#63b8ff" d="M234.78,-113.03C255.45,-103.6 281.29,-91.81 301.3,-82.68"/>
<polygon fill="#63b8ff" stroke="#63b8ff" points="302.73,-85.88 310.38,-78.54 299.83,-79.51 302.73,-85.88"/>
</a>
</g>
</g>
<!-- Node27&#45;&gt;Node10 -->
<g id="edge32_Node000027_Node000010" class="edge">
<title>Node27&#45;&gt;Node10</title>
<g id="a_edge32_Node000027_Node000010"><a xlink:title=" ">
<path fill="none" stroke="#63b8ff" d="M205.29,-113.35C213.34,-92.27 227.55,-55.03 236.4,-31.86"/>
<polygon fill="#63b8ff" stroke="#63b8ff" points="239.64,-33.19 239.93,-22.6 233.1,-30.69 239.64,-33.19"/>
</a>
</g>
</g>
<!-- Node28&#45;&gt;Node9 -->
<g id="edge34_Node000028_Node000009" class="edge">
<title>Node28&#45;&gt;Node9</title>
<g id="a_edge34_Node000028_Node000009"><a xlink:title=" ">
<path fill="none" stroke="#63b8ff" d="M125.88,-115.72C129.04,-114.96 132.17,-114.22 135.22,-113.5 183.59,-102.1 238.71,-89.5 278.48,-80.48"/>
<polygon fill="#63b8ff" stroke="#63b8ff" points="279.08,-83.93 288.06,-78.31 277.53,-77.1 279.08,-83.93"/>
</a>
</g>
</g>
<!-- Node28&#45;&gt;Node10 -->
<g id="edge35_Node000028_Node000010" class="edge">
<title>Node28&#45;&gt;Node10</title>
<g id="a_edge35_Node000028_Node000010"><a xlink:title=" ">
<path fill="none" stroke="#63b8ff" d="M94.05,-113.11C127.28,-90.59 187.2,-50 220.42,-27.5"/>
<polygon fill="#63b8ff" stroke="#63b8ff" points="222.24,-30.49 228.56,-21.99 218.31,-24.7 222.24,-30.49"/>
</a>
</g>
</g>
<!-- Node30&#45;&gt;Node13 -->
<g id="edge38_Node000030_Node000013" class="edge">
<title>Node30&#45;&gt;Node13</title>
<g id="a_edge38_Node000030_Node000013"><a xlink:title=" ">
<path fill="none" stroke="#63b8ff" d="M1024.58,-182.58C994.4,-171.13 954.34,-155.94 925.64,-145.06"/>
<polygon fill="#63b8ff" stroke="#63b8ff" points="927.25,-141.93 916.66,-141.66 924.77,-148.47 927.25,-141.93"/>
</a>
</g>
</g>
<!-- Node31 -->
<g id="Node000031" class="node">
<title>Node31</title>
<g id="a_Node000031"><a xlink:title=" ">
<polygon fill="#e0e0e0" stroke="#999999" points="1122.47,-140.62 1011.97,-140.62 1011.97,-119.88 1122.47,-119.88 1122.47,-140.62"/>
<text text-anchor="middle" x="1067.22" y="-127.12" font-family="Helvetica,sans-Serif" font-size="10.00">mlir/CAPI/Support.h</text>
</a>
</g>
</g>
<!-- Node30&#45;&gt;Node31 -->
<g id="edge39_Node000030_Node000031" class="edge">
<title>Node30&#45;&gt;Node31</title>
<g id="a_edge39_Node000030_Node000031"><a xlink:title=" ">
<path fill="none" stroke="#63b8ff" d="M1067.22,-182.75C1067.22,-173.65 1067.22,-162.14 1067.22,-152.32"/>
<polygon fill="#63b8ff" stroke="#63b8ff" points="1070.72,-152.59 1067.22,-142.59 1063.72,-152.59 1070.72,-152.59"/>
</a>
</g>
</g>
<!-- Node32 -->
<g id="Node000032" class="node">
<title>Node32</title>
<g id="a_Node000032"><a xlink:title=" ">
<polygon fill="#e0e0e0" stroke="#999999" points="1268.09,-140.62 1140.34,-140.62 1140.34,-119.88 1268.09,-119.88 1268.09,-140.62"/>
<text text-anchor="middle" x="1204.22" y="-127.12" font-family="Helvetica,sans-Serif" font-size="10.00">llvm/ADT/TypeSwitch.h</text>
</a>
</g>
</g>
<!-- Node30&#45;&gt;Node32 -->
<g id="edge40_Node000030_Node000032" class="edge">
<title>Node30&#45;&gt;Node32</title>
<g id="a_edge40_Node000030_Node000032"><a xlink:title=" ">
<path fill="none" stroke="#63b8ff" d="M1100.03,-182.58C1122.62,-171.45 1152.39,-156.79 1174.32,-145.98"/>
<polygon fill="#63b8ff" stroke="#63b8ff" points="1175.61,-149.25 1183.03,-141.69 1172.51,-142.97 1175.61,-149.25"/>
</a>
</g>
</g>
<!-- Node33 -->
<g id="Node000033" class="node">
<title>Node33</title>
<g id="a_Node000033"><a xlink:title=" ">
<polygon fill="#e0e0e0" stroke="#999999" points="993.47,-140.62 948.97,-140.62 948.97,-119.88 993.47,-119.88 993.47,-140.62"/>
<text text-anchor="middle" x="971.22" y="-127.12" font-family="Helvetica,sans-Serif" font-size="10.00">utility</text>
</a>
</g>
</g>
<!-- Node30&#45;&gt;Node33 -->
<g id="edge41_Node000030_Node000033" class="edge">
<title>Node30&#45;&gt;Node33</title>
<g id="a_edge41_Node000030_Node000033"><a xlink:title=" ">
<path fill="none" stroke="#63b8ff" d="M1044.47,-182.75C1029.37,-172.14 1009.61,-158.24 994.42,-147.56"/>
<polygon fill="#63b8ff" stroke="#63b8ff" points="996.62,-144.83 986.43,-141.94 992.59,-150.56 996.62,-144.83"/>
</a>
</g>
</g>
</g>
</svg>
