<?xml version="1.0" encoding="UTF-8" standalone="no"?>
<!DOCTYPE svg PUBLIC "-//W3C//DTD SVG 1.1//EN"
 "http://www.w3.org/Graphics/SVG/1.1/DTD/svg11.dtd">
<!-- Generated by graphviz version 12.2.1 (0)
 -->
<!-- Title: include/llzk/Dialect/LLZK/IR/Dialect.h Pages: 1 -->
<svg width="5495pt" height="276pt"
 viewBox="0.00 0.00 5494.88 275.50" xmlns="http://www.w3.org/2000/svg" xmlns:xlink="http://www.w3.org/1999/xlink">
<g id="graph0" class="graph" transform="scale(1 1) rotate(0) translate(4 271.5)">
<title>include/llzk/Dialect/LLZK/IR/Dialect.h</title>
<!-- Node1 -->
<g id="Node000001" class="node">
<title>Node1</title>
<g id="a_Node000001"><a xlink:title=" ">
<polygon fill="#999999" stroke="#666666" points="4992.75,-267.5 4883.75,-267.5 4883.75,-234 4992.75,-234 4992.75,-267.5"/>
<text text-anchor="start" x="4891.75" y="-254" font-family="Helvetica,sans-Serif" font-size="10.00">include/llzk/Dialect</text>
<text text-anchor="middle" x="4938.25" y="-241.25" font-family="Helvetica,sans-Serif" font-size="10.00">/LLZK/IR/Dialect.h</text>
</a>
</g>
</g>
<!-- Node2 -->
<g id="Node000002" class="node">
<title>Node2</title>
<g id="a_Node000002"><a xlink:href="PassBase_8h.html" target="_top" xlink:title=" ">
<polygon fill="white" stroke="#666666" points="2231.25,-191.62 2077.25,-191.62 2077.25,-170.88 2231.25,-170.88 2231.25,-191.62"/>
<text text-anchor="middle" x="2154.25" y="-178.12" font-family="Helvetica,sans-Serif" font-size="10.00">include/llzk/Pass/PassBase.h</text>
</a>
</g>
</g>
<!-- Node1&#45;&gt;Node2 -->
<g id="edge1_Node000001_Node000002" class="edge">
<title>Node1&#45;&gt;Node2</title>
<g id="a_edge1_Node000001_Node000002"><a xlink:title=" ">
<path fill="none" stroke="#63b8ff" d="M4871.79,-248.14C4495.54,-239.02 2635.1,-193.91 2231.56,-184.12"/>
<polygon fill="#63b8ff" stroke="#63b8ff" points="4871.67,-251.64 4881.75,-248.38 4871.84,-244.64 4871.67,-251.64"/>
</a>
</g>
</g>
<!-- Node25 -->
<g id="Node000025" class="node">
<title>Node25</title>
<g id="a_Node000025"><a xlink:href="Dialect_2InitDialects_8cpp.html" target="_top" xlink:title=" ">
<polygon fill="white" stroke="#666666" points="4805.38,-33.5 4661.12,-33.5 4661.12,-12.75 4805.38,-12.75 4805.38,-33.5"/>
<text text-anchor="middle" x="4733.25" y="-20" font-family="Helvetica,sans-Serif" font-size="10.00">lib/Dialect/InitDialects.cpp</text>
</a>
</g>
</g>
<!-- Node1&#45;&gt;Node25 -->
<g id="edge47_Node000001_Node000025" class="edge">
<title>Node1&#45;&gt;Node25</title>
<g id="a_edge47_Node000001_Node000025"><a xlink:title=" ">
<path fill="none" stroke="#63b8ff" d="M4872.21,-244.01C4838.8,-237.72 4800.17,-224.73 4775.25,-198 4730.58,-150.06 4731.01,-63.03 4732.55,-33.91"/>
<polygon fill="#63b8ff" stroke="#63b8ff" points="4871.37,-247.41 4881.82,-245.64 4872.54,-240.51 4871.37,-247.41"/>
</a>
</g>
</g>
<!-- Node30 -->
<g id="Node000030" class="node">
<title>Node30</title>
<g id="a_Node000030"><a xlink:href="LLZKInliningExtensions_8cpp.html" target="_top" xlink:title=" ">
<polygon fill="white" stroke="#666666" points="4971.25,-39.88 4823.25,-39.88 4823.25,-6.38 4971.25,-6.38 4971.25,-39.88"/>
<text text-anchor="start" x="4831.25" y="-26.38" font-family="Helvetica,sans-Serif" font-size="10.00">lib/Transforms/LLZKInlining</text>
<text text-anchor="middle" x="4897.25" y="-13.62" font-family="Helvetica,sans-Serif" font-size="10.00">Extensions.cpp</text>
</a>
</g>
</g>
<!-- Node1&#45;&gt;Node30 -->
<g id="edge51_Node000001_Node000030" class="edge">
<title>Node1&#45;&gt;Node30</title>
<g id="a_edge51_Node000001_Node000030"><a xlink:title=" ">
<path fill="none" stroke="#63b8ff" d="M4872.49,-243.83C4842.24,-237.43 4808.98,-224.39 4790.25,-198 4750.56,-142.07 4832,-71.35 4874.13,-40.15"/>
<polygon fill="#63b8ff" stroke="#63b8ff" points="4871.5,-247.21 4881.98,-245.62 4872.8,-240.33 4871.5,-247.21"/>
</a>
</g>
</g>
<!-- Node40 -->
<g id="Node000040" class="node">
<title>Node40</title>
<g id="a_Node000040"><a xlink:href="LLZK_8cpp.html" target="_top" xlink:title=" ">
<polygon fill="white" stroke="#666666" points="4937.38,-191.62 4799.12,-191.62 4799.12,-170.88 4937.38,-170.88 4937.38,-191.62"/>
<text text-anchor="middle" x="4868.25" y="-178.12" font-family="Helvetica,sans-Serif" font-size="10.00">lib/CAPI/Dialect/LLZK.cpp</text>
</a>
</g>
</g>
<!-- Node1&#45;&gt;Node40 -->
<g id="edge46_Node000001_Node000040" class="edge">
<title>Node1&#45;&gt;Node40</title>
<g id="a_edge46_Node000001_Node000040"><a xlink:title=" ">
<path fill="none" stroke="#63b8ff" d="M4913.66,-226.04C4901.56,-214.37 4887.64,-200.95 4878.44,-192.07"/>
<polygon fill="#63b8ff" stroke="#63b8ff" points="4910.94,-228.28 4920.57,-232.7 4915.8,-223.24 4910.94,-228.28"/>
</a>
</g>
</g>
<!-- Node41 -->
<g id="Node000041" class="node">
<title>Node41</title>
<g id="a_Node000041"><a xlink:href="LLZK_2IR_2Dialect_8cpp.html" target="_top" xlink:title=" ">
<polygon fill="white" stroke="#666666" points="5060.88,-198 4955.62,-198 4955.62,-164.5 5060.88,-164.5 5060.88,-198"/>
<text text-anchor="start" x="4963.62" y="-184.5" font-family="Helvetica,sans-Serif" font-size="10.00">lib/Dialect/LLZK/IR</text>
<text text-anchor="middle" x="5008.25" y="-171.75" font-family="Helvetica,sans-Serif" font-size="10.00">/Dialect.cpp</text>
</a>
</g>
</g>
<!-- Node1&#45;&gt;Node41 -->
<g id="edge48_Node000001_Node000041" class="edge">
<title>Node1&#45;&gt;Node41</title>
<g id="a_edge48_Node000001_Node000041"><a xlink:title=" ">
<path fill="none" stroke="#63b8ff" d="M4962.88,-226C4972.45,-216.77 4983.17,-206.44 4991.78,-198.13"/>
<polygon fill="#63b8ff" stroke="#63b8ff" points="4960.7,-223.24 4955.93,-232.7 4965.56,-228.28 4960.7,-223.24"/>
</a>
</g>
</g>
<!-- Node42 -->
<g id="Node000042" class="node">
<title>Node42</title>
<g id="a_Node000042"><a xlink:href="SharedImpl_8cpp.html" target="_top" xlink:title=" ">
<polygon fill="white" stroke="#666666" points="5231.12,-198 5079.38,-198 5079.38,-164.5 5231.12,-164.5 5231.12,-198"/>
<text text-anchor="start" x="5087.38" y="-184.5" font-family="Helvetica,sans-Serif" font-size="10.00">lib/Dialect/Polymorphic</text>
<text text-anchor="middle" x="5155.25" y="-171.75" font-family="Helvetica,sans-Serif" font-size="10.00">/Transforms/SharedImpl.cpp</text>
</a>
</g>
</g>
<!-- Node1&#45;&gt;Node42 -->
<g id="edge49_Node000001_Node000042" class="edge">
<title>Node1&#45;&gt;Node42</title>
<g id="a_edge49_Node000001_Node000042"><a xlink:title=" ">
<path fill="none" stroke="#63b8ff" d="M5000.96,-230.24C5033.42,-220.15 5072.58,-207.97 5103.32,-198.4"/>
<polygon fill="#63b8ff" stroke="#63b8ff" points="5000.18,-226.82 4991.67,-233.13 5002.26,-233.5 5000.18,-226.82"/>
</a>
</g>
</g>
<!-- Node43 -->
<g id="Node000043" class="node">
<title>Node43</title>
<g id="a_Node000043"><a xlink:href="Builders_8cpp.html" target="_top" xlink:title=" ">
<polygon fill="white" stroke="#666666" points="5351.38,-198 5249.12,-198 5249.12,-164.5 5351.38,-164.5 5351.38,-198"/>
<text text-anchor="start" x="5257.12" y="-184.5" font-family="Helvetica,sans-Serif" font-size="10.00">lib/Dialect/Shared</text>
<text text-anchor="middle" x="5300.25" y="-171.75" font-family="Helvetica,sans-Serif" font-size="10.00">/Builders.cpp</text>
</a>
</g>
</g>
<!-- Node1&#45;&gt;Node43 -->
<g id="edge50_Node000001_Node000043" class="edge">
<title>Node1&#45;&gt;Node43</title>
<g id="a_edge50_Node000001_Node000043"><a xlink:title=" ">
<path fill="none" stroke="#63b8ff" d="M5004.16,-240.15C5065.55,-230.8 5159.49,-215.48 5240.25,-198 5243.09,-197.38 5246,-196.72 5248.93,-196.03"/>
<polygon fill="#63b8ff" stroke="#63b8ff" points="5003.94,-236.64 4994.58,-241.6 5004.99,-243.56 5003.94,-236.64"/>
</a>
</g>
</g>
<!-- Node44 -->
<g id="Node000044" class="node">
<title>Node44</title>
<g id="a_Node000044"><a xlink:href="llzk-witgen_8cpp.html" target="_top" xlink:title=" ">
<polygon fill="white" stroke="#666666" points="5486.88,-198 5369.62,-198 5369.62,-164.5 5486.88,-164.5 5486.88,-198"/>
<text text-anchor="start" x="5377.62" y="-184.5" font-family="Helvetica,sans-Serif" font-size="10.00">tools/llzk&#45;witgen/llzk</text>
<text text-anchor="middle" x="5428.25" y="-171.75" font-family="Helvetica,sans-Serif" font-size="10.00">&#45;witgen.cpp</text>
</a>
</g>
</g>
<!-- Node1&#45;&gt;Node44 -->
<g id="edge52_Node000001_Node000044" class="edge">
<title>Node1&#45;&gt;Node44</title>
<g id="a_edge52_Node000001_Node000044"><a xlink:title=" ">
<path fill="none" stroke="#63b8ff" d="M5004.48,-243.81C5087.85,-235.84 5235.29,-220.07 5360.25,-198 5363.23,-197.47 5366.28,-196.9 5369.36,-196.29"/>
<polygon fill="#63b8ff" stroke="#63b8ff" points="5004.28,-240.31 4994.66,-244.74 5004.94,-247.28 5004.28,-240.31"/>
</a>
</g>
</g>
<!-- Node3 -->
<g id="Node000003" class="node">
<title>Node3</title>
<g id="a_Node000003"><a xlink:href="AnalysisPasses_8h.html" target="_top" xlink:title=" ">
<polygon fill="white" stroke="#666666" points="775.12,-122.12 659.38,-122.12 659.38,-88.62 775.12,-88.62 775.12,-122.12"/>
<text text-anchor="start" x="667.38" y="-108.62" font-family="Helvetica,sans-Serif" font-size="10.00">include/llzk/Analysis</text>
<text text-anchor="middle" x="717.25" y="-95.88" font-family="Helvetica,sans-Serif" font-size="10.00">/AnalysisPasses.h</text>
</a>
</g>
</g>
<!-- Node2&#45;&gt;Node3 -->
<g id="edge2_Node000002_Node000003" class="edge">
<title>Node2&#45;&gt;Node3</title>
<g id="a_edge2_Node000002_Node000003"><a xlink:title=" ">
<path fill="none" stroke="#63b8ff" d="M2065.77,-175.7C1797.55,-161.91 998.38,-120.83 775.52,-109.37"/>
<polygon fill="#63b8ff" stroke="#63b8ff" points="2065.31,-179.18 2075.48,-176.2 2065.67,-172.19 2065.31,-179.18"/>
</a>
</g>
</g>
<!-- Node11 -->
<g id="Node000011" class="node">
<title>Node11</title>
<g id="a_Node000011"><a xlink:href="Array_2Transforms_2TransformationPasses_8h.html" target="_top" xlink:title=" ">
<polygon fill="white" stroke="#666666" points="1528.62,-128.5 1349.88,-128.5 1349.88,-82.25 1528.62,-82.25 1528.62,-128.5"/>
<text text-anchor="start" x="1357.88" y="-115" font-family="Helvetica,sans-Serif" font-size="10.00">include/llzk/Dialect</text>
<text text-anchor="start" x="1357.88" y="-102.25" font-family="Helvetica,sans-Serif" font-size="10.00">/Array/Transforms/Transformation</text>
<text text-anchor="middle" x="1439.25" y="-89.5" font-family="Helvetica,sans-Serif" font-size="10.00">Passes.h</text>
</a>
</g>
</g>
<!-- Node2&#45;&gt;Node11 -->
<g id="edge10_Node000002_Node000011" class="edge">
<title>Node2&#45;&gt;Node11</title>
<g id="a_edge10_Node000002_Node000011"><a xlink:title=" ">
<path fill="none" stroke="#63b8ff" d="M2065.8,-171.11C1928.79,-156.96 1666.73,-129.88 1528.96,-115.64"/>
<polygon fill="#63b8ff" stroke="#63b8ff" points="2065.24,-174.57 2075.55,-172.12 2065.96,-167.61 2065.24,-174.57"/>
</a>
</g>
</g>
<!-- Node14 -->
<g id="Node000014" class="node">
<title>Node14</title>
<g id="a_Node000014"><a xlink:href="InlineIncludesPass_8h.html" target="_top" xlink:title=" ">
<polygon fill="white" stroke="#666666" points="1866.12,-128.5 1684.38,-128.5 1684.38,-82.25 1866.12,-82.25 1866.12,-128.5"/>
<text text-anchor="start" x="1692.38" y="-115" font-family="Helvetica,sans-Serif" font-size="10.00">include/llzk/Dialect</text>
<text text-anchor="start" x="1692.38" y="-102.25" font-family="Helvetica,sans-Serif" font-size="10.00">/Include/Transforms/InlineIncludes</text>
<text text-anchor="middle" x="1775.25" y="-89.5" font-family="Helvetica,sans-Serif" font-size="10.00">Pass.h</text>
</a>
</g>
</g>
<!-- Node2&#45;&gt;Node14 -->
<g id="edge14_Node000002_Node000014" class="edge">
<title>Node2&#45;&gt;Node14</title>
<g id="a_edge14_Node000002_Node000014"><a xlink:title=" ">
<path fill="none" stroke="#63b8ff" d="M2092.88,-168.29C2031.6,-156.34 1936.69,-137.84 1866.57,-124.17"/>
<polygon fill="#63b8ff" stroke="#63b8ff" points="2091.95,-171.67 2102.44,-170.15 2093.29,-164.8 2091.95,-171.67"/>
</a>
</g>
</g>
<!-- Node18 -->
<g id="Node000018" class="node">
<title>Node18</title>
<g id="a_Node000018"><a xlink:href="Polymorphic_2Transforms_2TransformationPasses_8h.html" target="_top" xlink:title=" ">
<polygon fill="white" stroke="#666666" points="2222.62,-128.5 2085.88,-128.5 2085.88,-82.25 2222.62,-82.25 2222.62,-128.5"/>
<text text-anchor="start" x="2093.88" y="-115" font-family="Helvetica,sans-Serif" font-size="10.00">include/llzk/Dialect</text>
<text text-anchor="start" x="2093.88" y="-102.25" font-family="Helvetica,sans-Serif" font-size="10.00">/Polymorphic/Transforms</text>
<text text-anchor="middle" x="2154.25" y="-89.5" font-family="Helvetica,sans-Serif" font-size="10.00">/TransformationPasses.h</text>
</a>
</g>
</g>
<!-- Node2&#45;&gt;Node18 -->
<g id="edge19_Node000002_Node000018" class="edge">
<title>Node2&#45;&gt;Node18</title>
<g id="a_edge19_Node000002_Node000018"><a xlink:title=" ">
<path fill="none" stroke="#63b8ff" d="M2154.25,-159.35C2154.25,-149.81 2154.25,-138.49 2154.25,-128.77"/>
<polygon fill="#63b8ff" stroke="#63b8ff" points="2150.75,-159.08 2154.25,-169.08 2157.75,-159.08 2150.75,-159.08"/>
</a>
</g>
</g>
<!-- Node23 -->
<g id="Node000023" class="node">
<title>Node23</title>
<g id="a_Node000023"><a xlink:href="LLZKTransformationPasses_8h.html" target="_top" xlink:title=" ">
<polygon fill="white" stroke="#666666" points="3614.12,-122.12 3456.38,-122.12 3456.38,-88.62 3614.12,-88.62 3614.12,-122.12"/>
<text text-anchor="start" x="3464.38" y="-108.62" font-family="Helvetica,sans-Serif" font-size="10.00">include/llzk/Transforms</text>
<text text-anchor="middle" x="3535.25" y="-95.88" font-family="Helvetica,sans-Serif" font-size="10.00">/LLZKTransformationPasses.h</text>
</a>
</g>
</g>
<!-- Node2&#45;&gt;Node23 -->
<g id="edge26_Node000002_Node000023" class="edge">
<title>Node2&#45;&gt;Node23</title>
<g id="a_edge26_Node000002_Node000023"><a xlink:title=" ">
<path fill="none" stroke="#63b8ff" d="M2242.76,-175.52C2495.13,-162.02 3215.55,-123.48 3456.02,-110.61"/>
<polygon fill="#63b8ff" stroke="#63b8ff" points="2242.77,-172.01 2232.97,-176.04 2243.14,-179 2242.77,-172.01"/>
</a>
</g>
</g>
<!-- Node37 -->
<g id="Node000037" class="node">
<title>Node37</title>
<g id="a_Node000037"><a xlink:href="LLZKValidationPasses_8h.html" target="_top" xlink:title=" ">
<polygon fill="white" stroke="#666666" points="4192.12,-122.12 4058.38,-122.12 4058.38,-88.62 4192.12,-88.62 4192.12,-122.12"/>
<text text-anchor="start" x="4066.38" y="-108.62" font-family="Helvetica,sans-Serif" font-size="10.00">include/llzk/Validators</text>
<text text-anchor="middle" x="4125.25" y="-95.88" font-family="Helvetica,sans-Serif" font-size="10.00">/LLZKValidationPasses.h</text>
</a>
</g>
</g>
<!-- Node2&#45;&gt;Node37 -->
<g id="edge42_Node000002_Node000037" class="edge">
<title>Node2&#45;&gt;Node37</title>
<g id="a_edge42_Node000002_Node000037"><a xlink:title=" ">
<path fill="none" stroke="#63b8ff" d="M2242.73,-177.41C2471.23,-170 3099.79,-149.26 3623.25,-128.5 3779.06,-122.32 3962.03,-113.98 4058.27,-109.52"/>
<polygon fill="#63b8ff" stroke="#63b8ff" points="2242.9,-173.9 2233.02,-177.72 2243.13,-180.89 2242.9,-173.9"/>
</a>
</g>
</g>
<!-- Node4 -->
<g id="Node000004" class="node">
<title>Node4</title>
<g id="a_Node000004"><a xlink:href="CallGraphPasses_8cpp.html" target="_top" xlink:title="This file implements the &#45;llzk&#45;print&#45;call&#45;graph and &#45;llzk&#45;print&#45;call&#45;graph&#45;sccs passes.">
<polygon fill="white" stroke="#666666" points="176.5,-33.5 0,-33.5 0,-12.75 176.5,-12.75 176.5,-33.5"/>
<text text-anchor="middle" x="88.25" y="-20" font-family="Helvetica,sans-Serif" font-size="10.00">lib/Analysis/CallGraphPasses.cpp</text>
</a>
</g>
</g>
<!-- Node3&#45;&gt;Node4 -->
<g id="edge3_Node000003_Node000004" class="edge">
<title>Node3&#45;&gt;Node4</title>
<g id="a_edge3_Node000003_Node000004"><a xlink:title=" ">
<path fill="none" stroke="#63b8ff" d="M647.73,-99.35C545.79,-91.41 350.01,-73.95 185.25,-46.25 165.83,-42.99 144.47,-38.24 126.75,-33.98"/>
<polygon fill="#63b8ff" stroke="#63b8ff" points="647.34,-102.83 657.58,-100.11 647.88,-95.86 647.34,-102.83"/>
</a>
</g>
</g>
<!-- Node5 -->
<g id="Node000005" class="node">
<title>Node5</title>
<g id="a_Node000005"><a xlink:href="ConstraintDependencyGraphPass_8cpp.html" target="_top" xlink:title="This file implements the &#45;llzk&#45;print&#45;constraint&#45;dependency&#45;graphs pass.">
<polygon fill="white" stroke="#666666" points="380.38,-39.88 194.12,-39.88 194.12,-6.38 380.38,-6.38 380.38,-39.88"/>
<text text-anchor="start" x="202.12" y="-26.38" font-family="Helvetica,sans-Serif" font-size="10.00">lib/Analysis/ConstraintDependency</text>
<text text-anchor="middle" x="287.25" y="-13.62" font-family="Helvetica,sans-Serif" font-size="10.00">GraphPass.cpp</text>
</a>
</g>
</g>
<!-- Node3&#45;&gt;Node5 -->
<g id="edge4_Node000003_Node000005" class="edge">
<title>Node3&#45;&gt;Node5</title>
<g id="a_edge4_Node000003_Node000005"><a xlink:title=" ">
<path fill="none" stroke="#63b8ff" d="M647.9,-92.88C581.41,-81.67 478.29,-63.79 389.25,-46.25 379.92,-44.41 370.12,-42.4 360.45,-40.35"/>
<polygon fill="#63b8ff" stroke="#63b8ff" points="647.13,-96.3 657.57,-94.5 648.29,-89.39 647.13,-96.3"/>
</a>
</g>
</g>
<!-- Node6 -->
<g id="Node000006" class="node">
<title>Node6</title>
<g id="a_Node000006"><a xlink:href="IntervalAnalysisPass_8cpp.html" target="_top" xlink:title="This file implements the &#45;llzk&#45;print&#45;interval&#45;analysis pass.">
<polygon fill="white" stroke="#666666" points="552.25,-39.88 398.25,-39.88 398.25,-6.38 552.25,-6.38 552.25,-39.88"/>
<text text-anchor="start" x="406.25" y="-26.38" font-family="Helvetica,sans-Serif" font-size="10.00">lib/Analysis/IntervalAnalysis</text>
<text text-anchor="middle" x="475.25" y="-13.62" font-family="Helvetica,sans-Serif" font-size="10.00">Pass.cpp</text>
</a>
</g>
</g>
<!-- Node3&#45;&gt;Node6 -->
<g id="edge5_Node000003_Node000006" class="edge">
<title>Node3&#45;&gt;Node6</title>
<g id="a_edge5_Node000003_Node000006"><a xlink:title=" ">
<path fill="none" stroke="#63b8ff" d="M657.6,-84.59C616.54,-70.98 562.67,-53.12 524.15,-40.34"/>
<polygon fill="#63b8ff" stroke="#63b8ff" points="656.25,-87.83 666.84,-87.66 658.45,-81.19 656.25,-87.83"/>
</a>
</g>
</g>
<!-- Node7 -->
<g id="Node000007" class="node">
<title>Node7</title>
<g id="a_Node000007"><a xlink:href="PredecessorAnalysisPass_8cpp.html" target="_top" xlink:title="This file implements the &#45;llzk&#45;print&#45;predecessors pass.">
<polygon fill="white" stroke="#666666" points="704.5,-39.88 570,-39.88 570,-6.38 704.5,-6.38 704.5,-39.88"/>
<text text-anchor="start" x="578" y="-26.38" font-family="Helvetica,sans-Serif" font-size="10.00">lib/Analysis/Predecessor</text>
<text text-anchor="middle" x="637.25" y="-13.62" font-family="Helvetica,sans-Serif" font-size="10.00">AnalysisPass.cpp</text>
</a>
</g>
</g>
<!-- Node3&#45;&gt;Node7 -->
<g id="edge6_Node000003_Node000007" class="edge">
<title>Node3&#45;&gt;Node7</title>
<g id="a_edge6_Node000003_Node000007"><a xlink:title=" ">
<path fill="none" stroke="#63b8ff" d="M693.07,-80.12C680.23,-67.24 664.8,-51.76 653.42,-40.34"/>
<polygon fill="#63b8ff" stroke="#63b8ff" points="690.45,-82.45 699.99,-87.06 695.41,-77.51 690.45,-82.45"/>
</a>
</g>
</g>
<!-- Node8 -->
<g id="Node000008" class="node">
<title>Node8</title>
<g id="a_Node000008"><a xlink:href="SymbolDefTreePass_8cpp.html" target="_top" xlink:title="This file implements the &#45;llzk&#45;print&#45;symbol&#45;def&#45;tree pass.">
<polygon fill="white" stroke="#666666" points="872,-39.88 722.5,-39.88 722.5,-6.38 872,-6.38 872,-39.88"/>
<text text-anchor="start" x="730.5" y="-26.38" font-family="Helvetica,sans-Serif" font-size="10.00">lib/Analysis/SymbolDefTree</text>
<text text-anchor="middle" x="797.25" y="-13.62" font-family="Helvetica,sans-Serif" font-size="10.00">Pass.cpp</text>
</a>
</g>
</g>
<!-- Node3&#45;&gt;Node8 -->
<g id="edge7_Node000003_Node000008" class="edge">
<title>Node3&#45;&gt;Node8</title>
<g id="a_edge7_Node000003_Node000008"><a xlink:title=" ">
<path fill="none" stroke="#63b8ff" d="M741.43,-80.12C754.27,-67.24 769.7,-51.76 781.08,-40.34"/>
<polygon fill="#63b8ff" stroke="#63b8ff" points="739.09,-77.51 734.51,-87.06 744.05,-82.45 739.09,-77.51"/>
</a>
</g>
</g>
<!-- Node9 -->
<g id="Node000009" class="node">
<title>Node9</title>
<g id="a_Node000009"><a xlink:href="SymbolUseGraphPass_8cpp.html" target="_top" xlink:title="This file implements the &#45;llzk&#45;print&#45;symbol&#45;use&#45;graph pass.">
<polygon fill="white" stroke="#666666" points="1050.25,-39.88 890.25,-39.88 890.25,-6.38 1050.25,-6.38 1050.25,-39.88"/>
<text text-anchor="start" x="898.25" y="-26.38" font-family="Helvetica,sans-Serif" font-size="10.00">lib/Analysis/SymbolUseGraph</text>
<text text-anchor="middle" x="970.25" y="-13.62" font-family="Helvetica,sans-Serif" font-size="10.00">Pass.cpp</text>
</a>
</g>
</g>
<!-- Node3&#45;&gt;Node9 -->
<g id="edge8_Node000003_Node000009" class="edge">
<title>Node3&#45;&gt;Node9</title>
<g id="a_edge8_Node000003_Node000009"><a xlink:title=" ">
<path fill="none" stroke="#63b8ff" d="M779.34,-84.68C822.3,-71.05 878.77,-53.14 919.13,-40.34"/>
<polygon fill="#63b8ff" stroke="#63b8ff" points="778.36,-81.32 769.89,-87.68 780.48,-87.99 778.36,-81.32"/>
</a>
</g>
</g>
<!-- Node10 -->
<g id="Node000010" class="node">
<title>Node10</title>
<g id="a_Node000010"><a xlink:href="llzk-opt_8cpp.html" target="_top" xlink:title="This file implements a version of the mlir&#45;opt tool configured for use on LLZK files.">
<polygon fill="white" stroke="#666666" points="1825.25,-39.88 1725.25,-39.88 1725.25,-6.38 1825.25,-6.38 1825.25,-39.88"/>
<text text-anchor="start" x="1733.25" y="-26.38" font-family="Helvetica,sans-Serif" font-size="10.00">tools/llzk&#45;opt/llzk</text>
<text text-anchor="middle" x="1775.25" y="-13.62" font-family="Helvetica,sans-Serif" font-size="10.00">&#45;opt.cpp</text>
</a>
</g>
</g>
<!-- Node3&#45;&gt;Node10 -->
<g id="edge9_Node000003_Node000010" class="edge">
<title>Node3&#45;&gt;Node10</title>
<g id="a_edge9_Node000003_Node000010"><a xlink:title=" ">
<path fill="none" stroke="#63b8ff" d="M786.63,-101.55C998.15,-92.75 1626.02,-65.34 1716.25,-46.25 1723.1,-44.8 1730.21,-42.69 1737.03,-40.35"/>
<polygon fill="#63b8ff" stroke="#63b8ff" points="786.74,-98.04 776.89,-101.95 787.03,-105.03 786.74,-98.04"/>
</a>
</g>
</g>
<!-- Node11&#45;&gt;Node10 -->
<g id="edge13_Node000011_Node000010" class="edge">
<title>Node11&#45;&gt;Node10</title>
<g id="a_edge13_Node000011_Node000010"><a xlink:title=" ">
<path fill="none" stroke="#63b8ff" d="M1540.08,-87.04C1593,-76.98 1658.65,-62.99 1716.25,-46.25 1722.24,-44.51 1728.48,-42.45 1734.58,-40.29"/>
<polygon fill="#63b8ff" stroke="#63b8ff" points="1539.65,-83.56 1530.47,-88.84 1540.94,-90.44 1539.65,-83.56"/>
</a>
</g>
</g>
<!-- Node12 -->
<g id="Node000012" class="node">
<title>Node12</title>
<g id="a_Node000012"><a xlink:href="Array_8cpp.html" target="_top" xlink:title=" ">
<polygon fill="white" stroke="#666666" points="1207.75,-33.5 1068.75,-33.5 1068.75,-12.75 1207.75,-12.75 1207.75,-33.5"/>
<text text-anchor="middle" x="1138.25" y="-20" font-family="Helvetica,sans-Serif" font-size="10.00">lib/CAPI/Dialect/Array.cpp</text>
</a>
</g>
</g>
<!-- Node11&#45;&gt;Node12 -->
<g id="edge11_Node000011_Node000012" class="edge">
<title>Node11&#45;&gt;Node12</title>
<g id="a_edge11_Node000011_Node000012"><a xlink:title=" ">
<path fill="none" stroke="#63b8ff" d="M1339.95,-78.98C1301.29,-68.96 1256.65,-57.24 1216.25,-46.25 1201.85,-42.33 1186.01,-37.87 1172.38,-33.98"/>
<polygon fill="#63b8ff" stroke="#63b8ff" points="1338.67,-82.26 1349.22,-81.38 1340.42,-75.48 1338.67,-82.26"/>
</a>
</g>
</g>
<!-- Node13 -->
<g id="Node000013" class="node">
<title>Node13</title>
<g id="a_Node000013"><a xlink:href="ArrayToScalarPass_8cpp.html" target="_top" xlink:title="This file implements the &#45;llzk&#45;array&#45;to&#45;scalar pass.">
<polygon fill="white" stroke="#666666" points="1377.12,-39.88 1225.38,-39.88 1225.38,-6.38 1377.12,-6.38 1377.12,-39.88"/>
<text text-anchor="start" x="1233.38" y="-26.38" font-family="Helvetica,sans-Serif" font-size="10.00">lib/Dialect/Array/Transforms</text>
<text text-anchor="middle" x="1301.25" y="-13.62" font-family="Helvetica,sans-Serif" font-size="10.00">/ArrayToScalarPass.cpp</text>
</a>
</g>
</g>
<!-- Node11&#45;&gt;Node13 -->
<g id="edge12_Node000011_Node000013" class="edge">
<title>Node11&#45;&gt;Node13</title>
<g id="a_edge12_Node000011_Node000013"><a xlink:title=" ">
<path fill="none" stroke="#63b8ff" d="M1390.54,-76.05C1369.84,-64.01 1346.48,-50.43 1328.84,-40.17"/>
<polygon fill="#63b8ff" stroke="#63b8ff" points="1388.73,-79.05 1399.13,-81.05 1392.25,-72.99 1388.73,-79.05"/>
</a>
</g>
</g>
<!-- Node14&#45;&gt;Node10 -->
<g id="edge17_Node000014_Node000010" class="edge">
<title>Node14&#45;&gt;Node10</title>
<g id="a_edge17_Node000014_Node000010"><a xlink:title=" ">
<path fill="none" stroke="#63b8ff" d="M1775.25,-70.57C1775.25,-60.07 1775.25,-48.97 1775.25,-40.25"/>
<polygon fill="#63b8ff" stroke="#63b8ff" points="1771.75,-70.51 1775.25,-80.51 1778.75,-70.51 1771.75,-70.51"/>
</a>
</g>
</g>
<!-- Node15 -->
<g id="Node000015" class="node">
<title>Node15</title>
<g id="a_Node000015"><a xlink:href="Include_8cpp.html" target="_top" xlink:title=" ">
<polygon fill="white" stroke="#666666" points="1545,-33.5 1395.5,-33.5 1395.5,-12.75 1545,-12.75 1545,-33.5"/>
<text text-anchor="middle" x="1470.25" y="-20" font-family="Helvetica,sans-Serif" font-size="10.00">lib/CAPI/Dialect/Include.cpp</text>
</a>
</g>
</g>
<!-- Node14&#45;&gt;Node15 -->
<g id="edge15_Node000014_Node000015" class="edge">
<title>Node14&#45;&gt;Node15</title>
<g id="a_edge15_Node000014_Node000015"><a xlink:title=" ">
<path fill="none" stroke="#63b8ff" d="M1678.71,-78.99C1640.02,-68.82 1595.02,-56.98 1554.25,-46.25 1538.94,-42.22 1522.05,-37.77 1507.47,-33.93"/>
<polygon fill="#63b8ff" stroke="#63b8ff" points="1677.43,-82.27 1687.99,-81.43 1679.21,-75.5 1677.43,-82.27"/>
</a>
</g>
</g>
<!-- Node16 -->
<g id="Node000016" class="node">
<title>Node16</title>
<g id="a_Node000016"><a xlink:href="InlineIncludesPass_8cpp.html" target="_top" xlink:title="This file implements the &#45;llzk&#45;inline&#45;includes pass.">
<polygon fill="white" stroke="#666666" points="1707,-46.25 1563.5,-46.25 1563.5,0 1707,0 1707,-46.25"/>
<text text-anchor="start" x="1571.5" y="-32.75" font-family="Helvetica,sans-Serif" font-size="10.00">lib/Dialect/Include</text>
<text text-anchor="start" x="1571.5" y="-20" font-family="Helvetica,sans-Serif" font-size="10.00">/Transforms/InlineIncludes</text>
<text text-anchor="middle" x="1635.25" y="-7.25" font-family="Helvetica,sans-Serif" font-size="10.00">Pass.cpp</text>
</a>
</g>
</g>
<!-- Node14&#45;&gt;Node16 -->
<g id="edge16_Node000014_Node000016" class="edge">
<title>Node14&#45;&gt;Node16</title>
<g id="a_edge16_Node000014_Node000016"><a xlink:title=" ">
<path fill="none" stroke="#63b8ff" d="M1726.13,-76.22C1709.16,-66.49 1690.38,-55.73 1674.32,-46.52"/>
<polygon fill="#63b8ff" stroke="#63b8ff" points="1724.15,-79.12 1734.57,-81.05 1727.63,-73.05 1724.15,-79.12"/>
</a>
</g>
</g>
<!-- Node17 -->
<g id="Node000017" class="node">
<title>Node17</title>
<g id="a_Node000017"><a xlink:href="WitgenDriver_8cpp.html" target="_top" xlink:title=" ">
<polygon fill="white" stroke="#666666" points="1977.5,-39.88 1843,-39.88 1843,-6.38 1977.5,-6.38 1977.5,-39.88"/>
<text text-anchor="start" x="1851" y="-26.38" font-family="Helvetica,sans-Serif" font-size="10.00">tools/llzk&#45;witgen/Witgen</text>
<text text-anchor="middle" x="1910.25" y="-13.62" font-family="Helvetica,sans-Serif" font-size="10.00">Driver.cpp</text>
</a>
</g>
</g>
<!-- Node14&#45;&gt;Node17 -->
<g id="edge18_Node000014_Node000017" class="edge">
<title>Node14&#45;&gt;Node17</title>
<g id="a_edge18_Node000014_Node000017"><a xlink:title=" ">
<path fill="none" stroke="#63b8ff" d="M1822.91,-76.05C1843.15,-64.01 1866.01,-50.43 1883.26,-40.17"/>
<polygon fill="#63b8ff" stroke="#63b8ff" points="1821.32,-72.92 1814.52,-81.03 1824.9,-78.93 1821.32,-72.92"/>
</a>
</g>
</g>
<!-- Node18&#45;&gt;Node10 -->
<g id="edge23_Node000018_Node000010" class="edge">
<title>Node18&#45;&gt;Node10</title>
<g id="a_edge23_Node000018_Node000010"><a xlink:title=" ">
<path fill="none" stroke="#63b8ff" d="M2074.38,-93.93C2009.1,-84.42 1914.78,-68.47 1834.25,-46.25 1828.13,-44.56 1821.76,-42.5 1815.56,-40.33"/>
<polygon fill="#63b8ff" stroke="#63b8ff" points="2073.52,-97.34 2083.91,-95.3 2074.51,-90.41 2073.52,-97.34"/>
</a>
</g>
</g>
<!-- Node18&#45;&gt;Node17 -->
<g id="edge24_Node000018_Node000017" class="edge">
<title>Node18&#45;&gt;Node17</title>
<g id="a_edge24_Node000018_Node000017"><a xlink:title=" ">
<path fill="none" stroke="#63b8ff" d="M2075.08,-78.34C2037,-65.81 1992.55,-51.19 1959.41,-40.3"/>
<polygon fill="#63b8ff" stroke="#63b8ff" points="2073.6,-81.53 2084.2,-81.33 2075.79,-74.89 2073.6,-81.53"/>
</a>
</g>
</g>
<!-- Node19 -->
<g id="Node000019" class="node">
<title>Node19</title>
<g id="a_Node000019"><a xlink:href="Poly_8cpp.html" target="_top" xlink:title=" ">
<polygon fill="white" stroke="#666666" points="2129.12,-33.5 1995.38,-33.5 1995.38,-12.75 2129.12,-12.75 2129.12,-33.5"/>
<text text-anchor="middle" x="2062.25" y="-20" font-family="Helvetica,sans-Serif" font-size="10.00">lib/CAPI/Dialect/Poly.cpp</text>
</a>
</g>
</g>
<!-- Node18&#45;&gt;Node19 -->
<g id="edge20_Node000018_Node000019" class="edge">
<title>Node18&#45;&gt;Node19</title>
<g id="a_edge20_Node000018_Node000019"><a xlink:title=" ">
<path fill="none" stroke="#63b8ff" d="M2120.27,-74.74C2103.83,-60.4 2085.18,-44.13 2073.57,-34"/>
<polygon fill="#63b8ff" stroke="#63b8ff" points="2117.65,-77.09 2127.48,-81.03 2122.25,-71.81 2117.65,-77.09"/>
</a>
</g>
</g>
<!-- Node20 -->
<g id="Node000020" class="node">
<title>Node20</title>
<g id="a_Node000020"><a xlink:href="EmptyTemplateRemovalPass_8cpp.html" target="_top" xlink:title="This file implements the &#45;llzk&#45;drop&#45;empty&#45;templates pass.">
<polygon fill="white" stroke="#666666" points="2343.25,-46.25 2147.25,-46.25 2147.25,0 2343.25,0 2343.25,-46.25"/>
<text text-anchor="start" x="2155.25" y="-32.75" font-family="Helvetica,sans-Serif" font-size="10.00">lib/Dialect/Polymorphic</text>
<text text-anchor="start" x="2155.25" y="-20" font-family="Helvetica,sans-Serif" font-size="10.00">/Transforms/EmptyTemplateRemoval</text>
<text text-anchor="middle" x="2245.25" y="-7.25" font-family="Helvetica,sans-Serif" font-size="10.00">Pass.cpp</text>
</a>
</g>
</g>
<!-- Node18&#45;&gt;Node20 -->
<g id="edge21_Node000018_Node000020" class="edge">
<title>Node18&#45;&gt;Node20</title>
<g id="a_edge21_Node000018_Node000020"><a xlink:title=" ">
<path fill="none" stroke="#63b8ff" d="M2188.13,-74.5C2198.59,-65.28 2209.92,-55.28 2219.72,-46.64"/>
<polygon fill="#63b8ff" stroke="#63b8ff" points="2185.92,-71.78 2180.73,-81.02 2190.55,-77.03 2185.92,-71.78"/>
</a>
</g>
</g>
<!-- Node21 -->
<g id="Node000021" class="node">
<title>Node21</title>
<g id="a_Node000021"><a xlink:href="FlatteningPass_8cpp.html" target="_top" xlink:title="This file implements the &#45;llzk&#45;flatten pass.">
<polygon fill="white" stroke="#666666" points="2529,-39.88 2361.5,-39.88 2361.5,-6.38 2529,-6.38 2529,-39.88"/>
<text text-anchor="start" x="2369.5" y="-26.38" font-family="Helvetica,sans-Serif" font-size="10.00">lib/Dialect/Polymorphic</text>
<text text-anchor="middle" x="2445.25" y="-13.62" font-family="Helvetica,sans-Serif" font-size="10.00">/Transforms/FlatteningPass.cpp</text>
</a>
</g>
</g>
<!-- Node18&#45;&gt;Node21 -->
<g id="edge22_Node000018_Node000021" class="edge">
<title>Node18&#45;&gt;Node21</title>
<g id="a_edge22_Node000018_Node000021"><a xlink:title=" ">
<path fill="none" stroke="#63b8ff" d="M2233.88,-82.42C2282.1,-69.12 2342.56,-52.44 2386.45,-40.34"/>
<polygon fill="#63b8ff" stroke="#63b8ff" points="2233.01,-79.02 2224.3,-85.06 2234.87,-85.77 2233.01,-79.02"/>
</a>
</g>
</g>
<!-- Node22 -->
<g id="Node000022" class="node">
<title>Node22</title>
<g id="a_Node000022"><a xlink:href="WitgenLowering_8cpp.html" target="_top" xlink:title=" ">
<polygon fill="white" stroke="#666666" points="2681.5,-39.88 2547,-39.88 2547,-6.38 2681.5,-6.38 2681.5,-39.88"/>
<text text-anchor="start" x="2555" y="-26.38" font-family="Helvetica,sans-Serif" font-size="10.00">tools/llzk&#45;witgen/Witgen</text>
<text text-anchor="middle" x="2614.25" y="-13.62" font-family="Helvetica,sans-Serif" font-size="10.00">Lowering.cpp</text>
</a>
</g>
</g>
<!-- Node18&#45;&gt;Node22 -->
<g id="edge25_Node000018_Node000022" class="edge">
<title>Node18&#45;&gt;Node22</title>
<g id="a_edge25_Node000018_Node000022"><a xlink:title=" ">
<path fill="none" stroke="#63b8ff" d="M2234.28,-95.41C2312.35,-85.93 2434.22,-69.16 2538.25,-46.25 2546.03,-44.54 2554.19,-42.46 2562.15,-40.28"/>
<polygon fill="#63b8ff" stroke="#63b8ff" points="2234.09,-91.91 2224.58,-96.58 2234.93,-98.86 2234.09,-91.91"/>
</a>
</g>
</g>
<!-- Node23&#45;&gt;Node10 -->
<g id="edge40_Node000023_Node000010" class="edge">
<title>Node23&#45;&gt;Node10</title>
<g id="a_edge40_Node000023_Node000010"><a xlink:title=" ">
<path fill="none" stroke="#63b8ff" d="M3444.56,-102.99C3115.04,-97.74 1992.22,-77.69 1834.25,-46.25 1827.17,-44.84 1819.82,-42.69 1812.81,-40.27"/>
<polygon fill="#63b8ff" stroke="#63b8ff" points="3444.37,-106.49 3454.43,-103.15 3444.49,-99.49 3444.37,-106.49"/>
</a>
</g>
</g>
<!-- Node23&#45;&gt;Node22 -->
<g id="edge41_Node000023_Node000022" class="edge">
<title>Node23&#45;&gt;Node22</title>
<g id="a_edge41_Node000023_Node000022"><a xlink:title=" ">
<path fill="none" stroke="#63b8ff" d="M3444.7,-104.38C3289.35,-102.99 2962.55,-94.02 2691.25,-46.25 2682.62,-44.73 2673.57,-42.62 2664.84,-40.3"/>
<polygon fill="#63b8ff" stroke="#63b8ff" points="3444.5,-107.87 3454.52,-104.45 3444.55,-100.87 3444.5,-107.87"/>
</a>
</g>
</g>
<!-- Node24 -->
<g id="Node000024" class="node">
<title>Node24</title>
<g id="a_Node000024"><a xlink:href="Transforms_8cpp.html" target="_top" xlink:title=" ">
<polygon fill="white" stroke="#666666" points="2830.62,-33.5 2699.88,-33.5 2699.88,-12.75 2830.62,-12.75 2830.62,-33.5"/>
<text text-anchor="middle" x="2765.25" y="-20" font-family="Helvetica,sans-Serif" font-size="10.00">lib/CAPI/Transforms.cpp</text>
</a>
</g>
</g>
<!-- Node23&#45;&gt;Node24 -->
<g id="edge27_Node000023_Node000024" class="edge">
<title>Node23&#45;&gt;Node24</title>
<g id="a_edge27_Node000023_Node000024"><a xlink:title=" ">
<path fill="none" stroke="#63b8ff" d="M3444.63,-102.78C3311.03,-99.09 3053.85,-86.84 2839.25,-46.25 2823.7,-43.31 2806.77,-38.38 2793.02,-33.92"/>
<polygon fill="#63b8ff" stroke="#63b8ff" points="3444.39,-106.27 3454.48,-103.04 3444.57,-99.28 3444.39,-106.27"/>
</a>
</g>
</g>
<!-- Node23&#45;&gt;Node25 -->
<g id="edge28_Node000023_Node000025" class="edge">
<title>Node23&#45;&gt;Node25</title>
<g id="a_edge28_Node000023_Node000025"><a xlink:title=" ">
<path fill="none" stroke="#63b8ff" d="M3625.6,-100.2C3882.5,-88.27 4601.92,-54.34 4652.25,-46.25 4669.38,-43.5 4688.08,-38.52 4703.2,-33.99"/>
<polygon fill="#63b8ff" stroke="#63b8ff" points="3625.79,-96.69 3615.96,-100.65 3626.12,-103.68 3625.79,-96.69"/>
</a>
</g>
</g>
<!-- Node26 -->
<g id="Node000026" class="node">
<title>Node26</title>
<g id="a_Node000026"><a xlink:href="LLZKComputeConstrainToProductPass_8cpp.html" target="_top" xlink:title="This file implements the &#45;llzk&#45;product&#45;program pass.">
<polygon fill="white" stroke="#666666" points="3004,-39.88 2848.5,-39.88 2848.5,-6.38 3004,-6.38 3004,-39.88"/>
<text text-anchor="start" x="2856.5" y="-26.38" font-family="Helvetica,sans-Serif" font-size="10.00">lib/Transforms/LLZKCompute</text>
<text text-anchor="middle" x="2926.25" y="-13.62" font-family="Helvetica,sans-Serif" font-size="10.00">ConstrainToProductPass.cpp</text>
</a>
</g>
</g>
<!-- Node23&#45;&gt;Node26 -->
<g id="edge29_Node000023_Node000026" class="edge">
<title>Node23&#45;&gt;Node26</title>
<g id="a_edge29_Node000023_Node000026"><a xlink:title=" ">
<path fill="none" stroke="#63b8ff" d="M3444.6,-98.1C3340.05,-89.98 3163.28,-73.54 3013.25,-46.25 3004.2,-44.6 2994.71,-42.54 2985.45,-40.34"/>
<polygon fill="#63b8ff" stroke="#63b8ff" points="3444.3,-101.59 3454.54,-98.86 3444.84,-94.61 3444.3,-101.59"/>
</a>
</g>
</g>
<!-- Node27 -->
<g id="Node000027" class="node">
<title>Node27</title>
<g id="a_Node000027"><a xlink:href="LLZKEnforceNoOverwritePass_8cpp.html" target="_top" xlink:title="This file implements the &#45;llzk&#45;enforce&#45;no&#45;overwrite pass.">
<polygon fill="white" stroke="#666666" points="3170.62,-39.88 3021.88,-39.88 3021.88,-6.38 3170.62,-6.38 3170.62,-39.88"/>
<text text-anchor="start" x="3029.88" y="-26.38" font-family="Helvetica,sans-Serif" font-size="10.00">lib/Transforms/LLZKEnforce</text>
<text text-anchor="middle" x="3096.25" y="-13.62" font-family="Helvetica,sans-Serif" font-size="10.00">NoOverwritePass.cpp</text>
</a>
</g>
</g>
<!-- Node23&#45;&gt;Node27 -->
<g id="edge30_Node000023_Node000027" class="edge">
<title>Node23&#45;&gt;Node27</title>
<g id="a_edge30_Node000023_Node000027"><a xlink:title=" ">
<path fill="none" stroke="#63b8ff" d="M3444.69,-92.11C3372.46,-81.72 3268.91,-65.47 3179.25,-46.25 3171.08,-44.5 3162.52,-42.46 3154.12,-40.33"/>
<polygon fill="#63b8ff" stroke="#63b8ff" points="3444.11,-95.56 3454.5,-93.51 3445.1,-88.63 3444.11,-95.56"/>
</a>
</g>
</g>
<!-- Node28 -->
<g id="Node000028" class="node">
<title>Node28</title>
<g id="a_Node000028"><a xlink:href="LLZKFuseProductLoopsPass_8cpp.html" target="_top" xlink:title="This file implements the &#45;llzk&#45;fuse&#45;product&#45;loops pass.">
<polygon fill="white" stroke="#666666" points="3359.88,-39.88 3188.62,-39.88 3188.62,-6.38 3359.88,-6.38 3359.88,-39.88"/>
<text text-anchor="start" x="3196.62" y="-26.38" font-family="Helvetica,sans-Serif" font-size="10.00">lib/Transforms/LLZKFuseProduct</text>
<text text-anchor="middle" x="3274.25" y="-13.62" font-family="Helvetica,sans-Serif" font-size="10.00">LoopsPass.cpp</text>
</a>
</g>
</g>
<!-- Node23&#45;&gt;Node28 -->
<g id="edge31_Node000023_Node000028" class="edge">
<title>Node23&#45;&gt;Node28</title>
<g id="a_edge31_Node000023_Node000028"><a xlink:title=" ">
<path fill="none" stroke="#63b8ff" d="M3471.48,-84.77C3427.13,-71.13 3368.71,-53.17 3326.99,-40.34"/>
<polygon fill="#63b8ff" stroke="#63b8ff" points="3470.4,-88.1 3480.99,-87.69 3472.46,-81.41 3470.4,-88.1"/>
</a>
</g>
</g>
<!-- Node29 -->
<g id="Node000029" class="node">
<title>Node29</title>
<g id="a_Node000029"><a xlink:href="LLZKInlineStructsPass_8cpp.html" target="_top" xlink:title="This file implements the &#45;llzk&#45;inline&#45;structs pass.">
<polygon fill="white" stroke="#666666" points="3516.75,-39.88 3377.75,-39.88 3377.75,-6.38 3516.75,-6.38 3516.75,-39.88"/>
<text text-anchor="start" x="3385.75" y="-26.38" font-family="Helvetica,sans-Serif" font-size="10.00">lib/Transforms/LLZKInline</text>
<text text-anchor="middle" x="3447.25" y="-13.62" font-family="Helvetica,sans-Serif" font-size="10.00">StructsPass.cpp</text>
</a>
</g>
</g>
<!-- Node23&#45;&gt;Node29 -->
<g id="edge32_Node000023_Node000029" class="edge">
<title>Node23&#45;&gt;Node29</title>
<g id="a_edge32_Node000023_Node000029"><a xlink:title=" ">
<path fill="none" stroke="#63b8ff" d="M3509.05,-80.48C3494.85,-67.53 3477.67,-51.86 3465.03,-40.34"/>
<polygon fill="#63b8ff" stroke="#63b8ff" points="3506.58,-82.96 3516.32,-87.12 3511.29,-77.79 3506.58,-82.96"/>
</a>
</g>
</g>
<!-- Node23&#45;&gt;Node30 -->
<g id="edge33_Node000023_Node000030" class="edge">
<title>Node23&#45;&gt;Node30</title>
<g id="a_edge33_Node000023_Node000030"><a xlink:title=" ">
<path fill="none" stroke="#63b8ff" d="M3625.48,-100.4C3914.53,-87.66 4799.55,-48.52 4814.25,-46.25 4823.68,-44.8 4833.59,-42.69 4843.14,-40.34"/>
<polygon fill="#63b8ff" stroke="#63b8ff" points="3625.57,-96.9 3615.73,-100.83 3625.88,-103.89 3625.57,-96.9"/>
</a>
</g>
</g>
<!-- Node31 -->
<g id="Node000031" class="node">
<title>Node31</title>
<g id="a_Node000031"><a xlink:href="LLZKPolyLoweringPass_8cpp.html" target="_top" xlink:title="This file implements the &#45;llzk&#45;poly&#45;lowering pass.">
<polygon fill="white" stroke="#666666" points="3711.88,-39.88 3534.62,-39.88 3534.62,-6.38 3711.88,-6.38 3711.88,-39.88"/>
<text text-anchor="start" x="3542.62" y="-26.38" font-family="Helvetica,sans-Serif" font-size="10.00">lib/Transforms/LLZKPolyLowering</text>
<text text-anchor="middle" x="3623.25" y="-13.62" font-family="Helvetica,sans-Serif" font-size="10.00">Pass.cpp</text>
</a>
</g>
</g>
<!-- Node23&#45;&gt;Node31 -->
<g id="edge34_Node000023_Node000031" class="edge">
<title>Node23&#45;&gt;Node31</title>
<g id="a_edge34_Node000023_Node000031"><a xlink:title=" ">
<path fill="none" stroke="#63b8ff" d="M3561.45,-80.48C3575.65,-67.53 3592.83,-51.86 3605.47,-40.34"/>
<polygon fill="#63b8ff" stroke="#63b8ff" points="3559.21,-77.79 3554.18,-87.12 3563.92,-82.96 3559.21,-77.79"/>
</a>
</g>
</g>
<!-- Node32 -->
<g id="Node000032" class="node">
<title>Node32</title>
<g id="a_Node000032"><a xlink:href="LLZKRedundantOperationEliminationPass_8cpp.html" target="_top" xlink:title="This file implements the &#45;llzk&#45;duplicate&#45;op&#45;elim pass.">
<polygon fill="white" stroke="#666666" points="3894.5,-39.88 3730,-39.88 3730,-6.38 3894.5,-6.38 3894.5,-39.88"/>
<text text-anchor="start" x="3738" y="-26.38" font-family="Helvetica,sans-Serif" font-size="10.00">lib/Transforms/LLZKRedundant</text>
<text text-anchor="middle" x="3812.25" y="-13.62" font-family="Helvetica,sans-Serif" font-size="10.00">OperationEliminationPass.cpp</text>
</a>
</g>
</g>
<!-- Node23&#45;&gt;Node32 -->
<g id="edge35_Node000023_Node000032" class="edge">
<title>Node23&#45;&gt;Node32</title>
<g id="a_edge35_Node000023_Node000032"><a xlink:title=" ">
<path fill="none" stroke="#63b8ff" d="M3602.33,-84.94C3649.47,-71.28 3711.81,-53.22 3756.28,-40.34"/>
<polygon fill="#63b8ff" stroke="#63b8ff" points="3601.39,-81.57 3592.76,-87.71 3603.34,-88.29 3601.39,-81.57"/>
</a>
</g>
</g>
<!-- Node33 -->
<g id="Node000033" class="node">
<title>Node33</title>
<g id="a_Node000033"><a xlink:href="LLZKRedundantReadAndWriteEliminationPass_8cpp.html" target="_top" xlink:title="This file implements the &#45;llzk&#45;duplicate&#45;read&#45;write&#45;elim pass.">
<polygon fill="white" stroke="#666666" points="4095.88,-39.88 3912.62,-39.88 3912.62,-6.38 4095.88,-6.38 4095.88,-39.88"/>
<text text-anchor="start" x="3920.62" y="-26.38" font-family="Helvetica,sans-Serif" font-size="10.00">lib/Transforms/LLZKRedundant</text>
<text text-anchor="middle" x="4004.25" y="-13.62" font-family="Helvetica,sans-Serif" font-size="10.00">ReadAndWriteEliminationPass.cpp</text>
</a>
</g>
</g>
<!-- Node23&#45;&gt;Node33 -->
<g id="edge36_Node000023_Node000033" class="edge">
<title>Node23&#45;&gt;Node33</title>
<g id="a_edge36_Node000023_Node000033"><a xlink:title=" ">
<path fill="none" stroke="#63b8ff" d="M3625.67,-91.61C3700.32,-80.71 3808.93,-64.01 3903.25,-46.25 3912.78,-44.46 3922.78,-42.43 3932.63,-40.36"/>
<polygon fill="#63b8ff" stroke="#63b8ff" points="3625.34,-88.12 3615.94,-93.03 3626.34,-95.05 3625.34,-88.12"/>
</a>
</g>
</g>
<!-- Node34 -->
<g id="Node000034" class="node">
<title>Node34</title>
<g id="a_Node000034"><a xlink:href="LLZKTransformationPassPipelines_8cpp.html" target="_top" xlink:title="This file implements logic for registering several pass pipelines.">
<polygon fill="white" stroke="#666666" points="4298.62,-39.88 4113.88,-39.88 4113.88,-6.38 4298.62,-6.38 4298.62,-39.88"/>
<text text-anchor="start" x="4121.88" y="-26.38" font-family="Helvetica,sans-Serif" font-size="10.00">lib/Transforms/LLZKTransformation</text>
<text text-anchor="middle" x="4206.25" y="-13.62" font-family="Helvetica,sans-Serif" font-size="10.00">PassPipelines.cpp</text>
</a>
</g>
</g>
<!-- Node23&#45;&gt;Node34 -->
<g id="edge37_Node000023_Node000034" class="edge">
<title>Node23&#45;&gt;Node34</title>
<g id="a_edge37_Node000023_Node000034"><a xlink:title=" ">
<path fill="none" stroke="#63b8ff" d="M3625.77,-98.35C3738.55,-90.1 3936.93,-73.18 4105.25,-46.25 4115.62,-44.59 4126.52,-42.54 4137.18,-40.35"/>
<polygon fill="#63b8ff" stroke="#63b8ff" points="3625.69,-94.84 3615.97,-99.06 3626.19,-101.82 3625.69,-94.84"/>
</a>
</g>
</g>
<!-- Node35 -->
<g id="Node000035" class="node">
<title>Node35</title>
<g id="a_Node000035"><a xlink:href="LLZKUnusedDeclarationEliminationPass_8cpp.html" target="_top" xlink:title="This file implements the &#45;llzk&#45;unused&#45;declaration&#45;elim pass.">
<polygon fill="white" stroke="#666666" points="4486.12,-39.88 4316.38,-39.88 4316.38,-6.38 4486.12,-6.38 4486.12,-39.88"/>
<text text-anchor="start" x="4324.38" y="-26.38" font-family="Helvetica,sans-Serif" font-size="10.00">lib/Transforms/LLZKUnused</text>
<text text-anchor="middle" x="4401.25" y="-13.62" font-family="Helvetica,sans-Serif" font-size="10.00">DeclarationEliminationPass.cpp</text>
</a>
</g>
</g>
<!-- Node23&#45;&gt;Node35 -->
<g id="edge38_Node000023_Node000035" class="edge">
<title>Node23&#45;&gt;Node35</title>
<g id="a_edge38_Node000023_Node000035"><a xlink:title=" ">
<path fill="none" stroke="#63b8ff" d="M3626.06,-102.12C3770.9,-97.5 4062.81,-83.98 4307.25,-46.25 4317.36,-44.69 4327.98,-42.62 4338.31,-40.36"/>
<polygon fill="#63b8ff" stroke="#63b8ff" points="3626.02,-98.62 3616.13,-102.43 3626.24,-105.62 3626.02,-98.62"/>
</a>
</g>
</g>
<!-- Node36 -->
<g id="Node000036" class="node">
<title>Node36</title>
<g id="a_Node000036"><a xlink:href="LLZKWhileToForPass_8cpp.html" target="_top" xlink:title="This file identifies scf.while loops that can be converted to scf.for loops and performs the conversi...">
<polygon fill="white" stroke="#666666" points="4642.75,-39.88 4503.75,-39.88 4503.75,-6.38 4642.75,-6.38 4642.75,-39.88"/>
<text text-anchor="start" x="4511.75" y="-26.38" font-family="Helvetica,sans-Serif" font-size="10.00">lib/Transforms/LLZKWhile</text>
<text text-anchor="middle" x="4573.25" y="-13.62" font-family="Helvetica,sans-Serif" font-size="10.00">ToForPass.cpp</text>
</a>
</g>
</g>
<!-- Node23&#45;&gt;Node36 -->
<g id="edge39_Node000023_Node000036" class="edge">
<title>Node23&#45;&gt;Node36</title>
<g id="a_edge39_Node000023_Node000036"><a xlink:title=" ">
<path fill="none" stroke="#63b8ff" d="M3625.73,-100.01C3848.41,-89.12 4411.07,-60.57 4495.25,-46.25 4503.99,-44.76 4513.16,-42.67 4522,-40.35"/>
<polygon fill="#63b8ff" stroke="#63b8ff" points="3625.76,-96.51 3615.94,-100.49 3626.1,-103.5 3625.76,-96.51"/>
</a>
</g>
</g>
<!-- Node37&#45;&gt;Node10 -->
<g id="edge45_Node000037_Node000010" class="edge">
<title>Node37&#45;&gt;Node10</title>
<g id="a_edge45_Node000037_Node000010"><a xlink:title=" ">
<path fill="none" stroke="#63b8ff" d="M4046.5,-100.32C3947.67,-95.37 3772.96,-87.05 3623.25,-82.25 3424.53,-75.87 2029.51,-83.69 1834.25,-46.25 1827.16,-44.89 1819.8,-42.76 1812.79,-40.35"/>
<polygon fill="#63b8ff" stroke="#63b8ff" points="4046.2,-103.81 4056.36,-100.82 4046.55,-96.82 4046.2,-103.81"/>
</a>
</g>
</g>
<!-- Node38 -->
<g id="Node000038" class="node">
<title>Node38</title>
<g id="a_Node000038"><a xlink:href="Validators_8cpp.html" target="_top" xlink:title=" ">
<polygon fill="white" stroke="#666666" points="5115,-33.5 4989.5,-33.5 4989.5,-12.75 5115,-12.75 5115,-33.5"/>
<text text-anchor="middle" x="5052.25" y="-20" font-family="Helvetica,sans-Serif" font-size="10.00">lib/CAPI/Validators.cpp</text>
</a>
</g>
</g>
<!-- Node37&#45;&gt;Node38 -->
<g id="edge43_Node000037_Node000038" class="edge">
<title>Node37&#45;&gt;Node38</title>
<g id="a_edge43_Node000037_Node000038"><a xlink:title=" ">
<path fill="none" stroke="#63b8ff" d="M4203.87,-105.04C4355.42,-105 4697.94,-98.5 4980.25,-46.25 4995.55,-43.42 5012.19,-38.44 5025.61,-33.92"/>
<polygon fill="#63b8ff" stroke="#63b8ff" points="4203.94,-101.54 4193.93,-105.03 4203.93,-108.54 4203.94,-101.54"/>
</a>
</g>
</g>
<!-- Node39 -->
<g id="Node000039" class="node">
<title>Node39</title>
<g id="a_Node000039"><a xlink:href="LLZKValidationPasses_8cpp.html" target="_top" xlink:title="This file contains the implementation for the &#45;llzk&#45;validate&#45;member&#45;writes pass.">
<polygon fill="white" stroke="#666666" points="5289,-39.88 5133.5,-39.88 5133.5,-6.38 5289,-6.38 5289,-39.88"/>
<text text-anchor="start" x="5141.5" y="-26.38" font-family="Helvetica,sans-Serif" font-size="10.00">lib/Validators/LLZKValidation</text>
<text text-anchor="middle" x="5211.25" y="-13.62" font-family="Helvetica,sans-Serif" font-size="10.00">Passes.cpp</text>
</a>
</g>
</g>
<!-- Node37&#45;&gt;Node39 -->
<g id="edge44_Node000037_Node000039" class="edge">
<title>Node37&#45;&gt;Node39</title>
<g id="a_edge44_Node000037_Node000039"><a xlink:title=" ">
<path fill="none" stroke="#63b8ff" d="M4203.63,-104.88C4372.81,-104.86 4784.39,-98.86 5124.25,-46.25 5133.95,-44.75 5144.15,-42.65 5154.01,-40.33"/>
<polygon fill="#63b8ff" stroke="#63b8ff" points="4203.87,-101.38 4193.87,-104.87 4203.87,-108.38 4203.87,-101.38"/>
</a>
</g>
</g>
</g>
</svg>
