<?xml version="1.0" encoding="UTF-8" standalone="no"?>
<!DOCTYPE svg PUBLIC "-//W3C//DTD SVG 1.1//EN"
 "http://www.w3.org/Graphics/SVG/1.1/DTD/svg11.dtd">
<!-- Generated by graphviz version 12.2.1 (0)
 -->
<!-- Title: include/llzk/Dialect/LLZK/IR/Ops.h Pages: 1 -->
<svg width="2056pt" height="389pt"
 viewBox="0.00 0.00 2056.38 389.00" xmlns="http://www.w3.org/2000/svg" xmlns:xlink="http://www.w3.org/1999/xlink">
<g id="graph0" class="graph" transform="scale(1 1) rotate(0) translate(4 385)">
<title>include/llzk/Dialect/LLZK/IR/Ops.h</title>
<!-- Node1 -->
<g id="Node000001" class="node">
<title>Node1</title>
<g id="a_Node000001"><a xlink:title=" ">
<polygon fill="#999999" stroke="#666666" points="1276.62,-381 1167.62,-381 1167.62,-347.5 1276.62,-347.5 1276.62,-381"/>
<text text-anchor="start" x="1175.62" y="-367.5" font-family="Helvetica,sans-Serif" font-size="10.00">include/llzk/Dialect</text>
<text text-anchor="middle" x="1222.12" y="-354.75" font-family="Helvetica,sans-Serif" font-size="10.00">/LLZK/IR/Ops.h</text>
</a>
</g>
</g>
<!-- Node2 -->
<g id="Node000002" class="node">
<title>Node2</title>
<g id="a_Node000002"><a xlink:href="SourceRef_8h.html" target="_top" xlink:title=" ">
<polygon fill="white" stroke="#666666" points="638,-311.5 522.25,-311.5 522.25,-278 638,-278 638,-311.5"/>
<text text-anchor="start" x="530.25" y="-298" font-family="Helvetica,sans-Serif" font-size="10.00">include/llzk/Analysis</text>
<text text-anchor="middle" x="580.12" y="-285.25" font-family="Helvetica,sans-Serif" font-size="10.00">/SourceRef.h</text>
</a>
</g>
</g>
<!-- Node1&#45;&gt;Node2 -->
<g id="edge1_Node000001_Node000002" class="edge">
<title>Node1&#45;&gt;Node2</title>
<g id="a_edge1_Node000001_Node000002"><a xlink:title=" ">
<path fill="none" stroke="#63b8ff" d="M1156.23,-360.35C1048.96,-354.95 830.18,-341.1 647.12,-311.5 644.29,-311.04 641.4,-310.53 638.49,-309.98"/>
<polygon fill="#63b8ff" stroke="#63b8ff" points="1155.83,-363.83 1165.99,-360.83 1156.17,-356.84 1155.83,-363.83"/>
</a>
</g>
</g>
<!-- Node12 -->
<g id="Node000012" class="node">
<title>Node12</title>
<g id="a_Node000012"><a xlink:href="LLZK_8cpp.html" target="_top" xlink:title=" ">
<polygon fill="white" stroke="#666666" points="794.25,-305.12 656,-305.12 656,-284.38 794.25,-284.38 794.25,-305.12"/>
<text text-anchor="middle" x="725.12" y="-291.62" font-family="Helvetica,sans-Serif" font-size="10.00">lib/CAPI/Dialect/LLZK.cpp</text>
</a>
</g>
</g>
<!-- Node1&#45;&gt;Node12 -->
<g id="edge14_Node000001_Node000012" class="edge">
<title>Node1&#45;&gt;Node12</title>
<g id="a_edge14_Node000001_Node000012"><a xlink:title=" ">
<path fill="none" stroke="#63b8ff" d="M1156.12,-356.67C1073.38,-348.07 927.33,-331.68 803.12,-311.5 792.63,-309.79 781.39,-307.69 770.8,-305.58"/>
<polygon fill="#63b8ff" stroke="#63b8ff" points="1155.55,-360.13 1165.86,-357.68 1156.27,-353.17 1155.55,-360.13"/>
</a>
</g>
</g>
<!-- Node13 -->
<g id="Node000013" class="node">
<title>Node13</title>
<g id="a_Node000013"><a xlink:href="Array_2IR_2Ops_8cpp.html" target="_top" xlink:title=" ">
<polygon fill="white" stroke="#666666" points="919.88,-311.5 812.38,-311.5 812.38,-278 919.88,-278 919.88,-311.5"/>
<text text-anchor="start" x="820.38" y="-298" font-family="Helvetica,sans-Serif" font-size="10.00">lib/Dialect/Array/IR</text>
<text text-anchor="middle" x="866.12" y="-285.25" font-family="Helvetica,sans-Serif" font-size="10.00">/Ops.cpp</text>
</a>
</g>
</g>
<!-- Node1&#45;&gt;Node13 -->
<g id="edge15_Node000001_Node000013" class="edge">
<title>Node1&#45;&gt;Node13</title>
<g id="a_edge15_Node000001_Node000013"><a xlink:title=" ">
<path fill="none" stroke="#63b8ff" d="M1156.24,-352.97C1096.69,-343.36 1006.73,-328.03 929.12,-311.5 926.26,-310.89 923.32,-310.24 920.36,-309.57"/>
<polygon fill="#63b8ff" stroke="#63b8ff" points="1155.44,-356.39 1165.87,-354.52 1156.55,-349.47 1155.44,-356.39"/>
</a>
</g>
</g>
<!-- Node14 -->
<g id="Node000014" class="node">
<title>Node14</title>
<g id="a_Node000014"><a xlink:href="ArrayToScalarPass_8cpp.html" target="_top" xlink:title="This file implements the &#45;llzk&#45;array&#45;to&#45;scalar pass.">
<polygon fill="white" stroke="#666666" points="1090,-311.5 938.25,-311.5 938.25,-278 1090,-278 1090,-311.5"/>
<text text-anchor="start" x="946.25" y="-298" font-family="Helvetica,sans-Serif" font-size="10.00">lib/Dialect/Array/Transforms</text>
<text text-anchor="middle" x="1014.12" y="-285.25" font-family="Helvetica,sans-Serif" font-size="10.00">/ArrayToScalarPass.cpp</text>
</a>
</g>
</g>
<!-- Node1&#45;&gt;Node14 -->
<g id="edge16_Node000001_Node000014" class="edge">
<title>Node1&#45;&gt;Node14</title>
<g id="a_edge16_Node000001_Node000014"><a xlink:title=" ">
<path fill="none" stroke="#63b8ff" d="M1161.61,-343.61C1130.58,-333.54 1093.24,-321.42 1063.9,-311.9"/>
<polygon fill="#63b8ff" stroke="#63b8ff" points="1160.27,-346.86 1170.86,-346.61 1162.43,-340.2 1160.27,-346.86"/>
</a>
</g>
</g>
<!-- Node15 -->
<g id="Node000015" class="node">
<title>Node15</title>
<g id="a_Node000015"><a xlink:href="LLZK_2IR_2Dialect_8cpp.html" target="_top" xlink:title=" ">
<polygon fill="white" stroke="#666666" points="1213.75,-311.5 1108.5,-311.5 1108.5,-278 1213.75,-278 1213.75,-311.5"/>
<text text-anchor="start" x="1116.5" y="-298" font-family="Helvetica,sans-Serif" font-size="10.00">lib/Dialect/LLZK/IR</text>
<text text-anchor="middle" x="1161.12" y="-285.25" font-family="Helvetica,sans-Serif" font-size="10.00">/Dialect.cpp</text>
</a>
</g>
</g>
<!-- Node1&#45;&gt;Node15 -->
<g id="edge17_Node000001_Node000015" class="edge">
<title>Node1&#45;&gt;Node15</title>
<g id="a_edge17_Node000001_Node000015"><a xlink:title=" ">
<path fill="none" stroke="#63b8ff" d="M1200.16,-338.94C1191.94,-329.85 1182.83,-319.77 1175.48,-311.63"/>
<polygon fill="#63b8ff" stroke="#63b8ff" points="1197.35,-341.06 1206.65,-346.13 1202.55,-336.36 1197.35,-341.06"/>
</a>
</g>
</g>
<!-- Node16 -->
<g id="Node000016" class="node">
<title>Node16</title>
<g id="a_Node000016"><a xlink:href="LLZK_2IR_2Ops_8cpp.html" target="_top" xlink:title=" ">
<polygon fill="white" stroke="#666666" points="1336.75,-311.5 1231.5,-311.5 1231.5,-278 1336.75,-278 1336.75,-311.5"/>
<text text-anchor="start" x="1239.5" y="-298" font-family="Helvetica,sans-Serif" font-size="10.00">lib/Dialect/LLZK/IR</text>
<text text-anchor="middle" x="1284.12" y="-285.25" font-family="Helvetica,sans-Serif" font-size="10.00">/Ops.cpp</text>
</a>
</g>
</g>
<!-- Node1&#45;&gt;Node16 -->
<g id="edge18_Node000001_Node000016" class="edge">
<title>Node1&#45;&gt;Node16</title>
<g id="a_edge18_Node000001_Node000016"><a xlink:title=" ">
<path fill="none" stroke="#63b8ff" d="M1244.45,-338.94C1252.8,-329.85 1262.06,-319.77 1269.54,-311.63"/>
<polygon fill="#63b8ff" stroke="#63b8ff" points="1242.03,-336.41 1237.84,-346.14 1247.18,-341.14 1242.03,-336.41"/>
</a>
</g>
</g>
<!-- Node17 -->
<g id="Node000017" class="node">
<title>Node17</title>
<g id="a_Node000017"><a xlink:href="LLZKLoweringUtils_8cpp.html" target="_top" xlink:title=" ">
<polygon fill="white" stroke="#666666" points="1511.25,-311.5 1355,-311.5 1355,-278 1511.25,-278 1511.25,-311.5"/>
<text text-anchor="start" x="1363" y="-298" font-family="Helvetica,sans-Serif" font-size="10.00">lib/Transforms/LLZKLowering</text>
<text text-anchor="middle" x="1433.12" y="-285.25" font-family="Helvetica,sans-Serif" font-size="10.00">Utils.cpp</text>
</a>
</g>
</g>
<!-- Node1&#45;&gt;Node17 -->
<g id="edge19_Node000001_Node000017" class="edge">
<title>Node1&#45;&gt;Node17</title>
<g id="a_edge19_Node000001_Node000017"><a xlink:title=" ">
<path fill="none" stroke="#63b8ff" d="M1283.51,-343.61C1314.99,-333.54 1352.87,-321.42 1382.63,-311.9"/>
<polygon fill="#63b8ff" stroke="#63b8ff" points="1282.56,-340.24 1274.11,-346.62 1284.7,-346.91 1282.56,-340.24"/>
</a>
</g>
</g>
<!-- Node18 -->
<g id="Node000018" class="node">
<title>Node18</title>
<g id="a_Node000018"><a xlink:href="LLZKPolyLoweringPass_8cpp.html" target="_top" xlink:title="This file implements the &#45;llzk&#45;poly&#45;lowering pass.">
<polygon fill="white" stroke="#666666" points="1706.75,-311.5 1529.5,-311.5 1529.5,-278 1706.75,-278 1706.75,-311.5"/>
<text text-anchor="start" x="1537.5" y="-298" font-family="Helvetica,sans-Serif" font-size="10.00">lib/Transforms/LLZKPolyLowering</text>
<text text-anchor="middle" x="1618.12" y="-285.25" font-family="Helvetica,sans-Serif" font-size="10.00">Pass.cpp</text>
</a>
</g>
</g>
<!-- Node1&#45;&gt;Node18 -->
<g id="edge20_Node000001_Node000018" class="edge">
<title>Node1&#45;&gt;Node18</title>
<g id="a_edge20_Node000001_Node000018"><a xlink:title=" ">
<path fill="none" stroke="#63b8ff" d="M1287.85,-352.05C1353.82,-340.8 1455.89,-323.4 1529.1,-310.92"/>
<polygon fill="#63b8ff" stroke="#63b8ff" points="1287.53,-348.55 1278.26,-353.68 1288.71,-355.45 1287.53,-348.55"/>
</a>
</g>
</g>
<!-- Node19 -->
<g id="Node000019" class="node">
<title>Node19</title>
<g id="a_Node000019"><a xlink:href="Interpreter_8cpp.html" target="_top" xlink:title=" ">
<polygon fill="white" stroke="#666666" points="1895.75,-305.12 1724.5,-305.12 1724.5,-284.38 1895.75,-284.38 1895.75,-305.12"/>
<text text-anchor="middle" x="1810.12" y="-291.62" font-family="Helvetica,sans-Serif" font-size="10.00">tools/llzk&#45;witgen/Interpreter.cpp</text>
</a>
</g>
</g>
<!-- Node1&#45;&gt;Node19 -->
<g id="edge21_Node000001_Node000019" class="edge">
<title>Node1&#45;&gt;Node19</title>
<g id="a_edge21_Node000001_Node000019"><a xlink:title=" ">
<path fill="none" stroke="#63b8ff" d="M1288.52,-357.6C1383.5,-349.23 1563.56,-332.25 1716.12,-311.5 1728.75,-309.78 1742.28,-307.67 1755.04,-305.56"/>
<polygon fill="#63b8ff" stroke="#63b8ff" points="1288.25,-354.11 1278.59,-358.48 1288.86,-361.09 1288.25,-354.11"/>
</a>
</g>
</g>
<!-- Node20 -->
<g id="Node000020" class="node">
<title>Node20</title>
<g id="a_Node000020"><a xlink:href="WitgenLowering_8cpp.html" target="_top" xlink:title=" ">
<polygon fill="white" stroke="#666666" points="2048.38,-311.5 1913.88,-311.5 1913.88,-278 2048.38,-278 2048.38,-311.5"/>
<text text-anchor="start" x="1921.88" y="-298" font-family="Helvetica,sans-Serif" font-size="10.00">tools/llzk&#45;witgen/Witgen</text>
<text text-anchor="middle" x="1981.12" y="-285.25" font-family="Helvetica,sans-Serif" font-size="10.00">Lowering.cpp</text>
</a>
</g>
</g>
<!-- Node1&#45;&gt;Node20 -->
<g id="edge22_Node000001_Node000020" class="edge">
<title>Node1&#45;&gt;Node20</title>
<g id="a_edge22_Node000001_Node000020"><a xlink:title=" ">
<path fill="none" stroke="#63b8ff" d="M1288.2,-361.07C1410.48,-356.41 1680.12,-343.21 1905.12,-311.5 1907.93,-311.11 1910.78,-310.67 1913.66,-310.2"/>
<polygon fill="#63b8ff" stroke="#63b8ff" points="1288.21,-357.57 1278.34,-361.44 1288.47,-364.56 1288.21,-357.57"/>
</a>
</g>
</g>
<!-- Node3 -->
<g id="Node000003" class="node">
<title>Node3</title>
<g id="a_Node000003"><a xlink:href="ConstraintDependencyGraph_8h.html" target="_top" xlink:title=" ">
<polygon fill="white" stroke="#666666" points="559.25,-172.5 391,-172.5 391,-139 559.25,-139 559.25,-172.5"/>
<text text-anchor="start" x="399" y="-159" font-family="Helvetica,sans-Serif" font-size="10.00">include/llzk/Analysis</text>
<text text-anchor="middle" x="475.12" y="-146.25" font-family="Helvetica,sans-Serif" font-size="10.00">/ConstraintDependencyGraph.h</text>
</a>
</g>
</g>
<!-- Node2&#45;&gt;Node3 -->
<g id="edge2_Node000002_Node000003" class="edge">
<title>Node2&#45;&gt;Node3</title>
<g id="a_edge2_Node000002_Node000003"><a xlink:title=" ">
<path fill="none" stroke="#63b8ff" d="M544.3,-271.2C533.28,-263 521.78,-253.01 513.12,-242 496.4,-220.73 485.33,-190.93 479.65,-172.78"/>
<polygon fill="#63b8ff" stroke="#63b8ff" points="541.97,-273.83 552.15,-276.77 546.02,-268.12 541.97,-273.83"/>
</a>
</g>
</g>
<!-- Node10 -->
<g id="Node000010" class="node">
<title>Node10</title>
<g id="a_Node000010"><a xlink:href="SourceRefLattice_8h.html" target="_top" xlink:title=" ">
<polygon fill="white" stroke="#666666" points="638,-242 522.25,-242 522.25,-208.5 638,-208.5 638,-242"/>
<text text-anchor="start" x="530.25" y="-228.5" font-family="Helvetica,sans-Serif" font-size="10.00">include/llzk/Analysis</text>
<text text-anchor="middle" x="580.12" y="-215.75" font-family="Helvetica,sans-Serif" font-size="10.00">/SourceRefLattice.h</text>
</a>
</g>
</g>
<!-- Node2&#45;&gt;Node10 -->
<g id="edge9_Node000002_Node000010" class="edge">
<title>Node2&#45;&gt;Node10</title>
<g id="a_edge9_Node000002_Node000010"><a xlink:title=" ">
<path fill="none" stroke="#63b8ff" d="M580.12,-266.31C580.12,-258.09 580.12,-249.34 580.12,-242.13"/>
<polygon fill="#63b8ff" stroke="#63b8ff" points="576.63,-266.24 580.13,-276.24 583.63,-266.24 576.63,-266.24"/>
</a>
</g>
</g>
<!-- Node11 -->
<g id="Node000011" class="node">
<title>Node11</title>
<g id="a_Node000011"><a xlink:href="SourceRef_8cpp.html" target="_top" xlink:title=" ">
<polygon fill="white" stroke="#666666" points="800.25,-235.62 656,-235.62 656,-214.88 800.25,-214.88 800.25,-235.62"/>
<text text-anchor="middle" x="728.12" y="-222.12" font-family="Helvetica,sans-Serif" font-size="10.00">lib/Analysis/SourceRef.cpp</text>
</a>
</g>
</g>
<!-- Node2&#45;&gt;Node11 -->
<g id="edge13_Node000002_Node000011" class="edge">
<title>Node2&#45;&gt;Node11</title>
<g id="a_edge13_Node000002_Node000011"><a xlink:title=" ">
<path fill="none" stroke="#63b8ff" d="M625.95,-272.85C652.88,-260.57 685.66,-245.62 706.7,-236.02"/>
<polygon fill="#63b8ff" stroke="#63b8ff" points="624.6,-269.62 616.95,-276.95 627.5,-275.99 624.6,-269.62"/>
</a>
</g>
</g>
<!-- Node4 -->
<g id="Node000004" class="node">
<title>Node4</title>
<g id="a_Node000004"><a xlink:href="IntervalAnalysis_8h.html" target="_top" xlink:title=" ">
<polygon fill="white" stroke="#666666" points="236,-103 120.25,-103 120.25,-69.5 236,-69.5 236,-103"/>
<text text-anchor="start" x="128.25" y="-89.5" font-family="Helvetica,sans-Serif" font-size="10.00">include/llzk/Analysis</text>
<text text-anchor="middle" x="178.12" y="-76.75" font-family="Helvetica,sans-Serif" font-size="10.00">/IntervalAnalysis.h</text>
</a>
</g>
</g>
<!-- Node3&#45;&gt;Node4 -->
<g id="edge3_Node000003_Node000004" class="edge">
<title>Node3&#45;&gt;Node4</title>
<g id="a_edge3_Node000003_Node000004"><a xlink:title=" ">
<path fill="none" stroke="#63b8ff" d="M391.18,-136.07C347.59,-126.31 293.47,-114.12 245.12,-103 242.21,-102.33 239.23,-101.64 236.22,-100.94"/>
<polygon fill="#63b8ff" stroke="#63b8ff" points="390.32,-139.46 400.84,-138.22 391.84,-132.63 390.32,-139.46"/>
</a>
</g>
</g>
<!-- Node7 -->
<g id="Node000007" class="node">
<title>Node7</title>
<g id="a_Node000007"><a xlink:href="ConstraintDependencyGraph_8cpp.html" target="_top" xlink:title=" ">
<polygon fill="white" stroke="#666666" points="840.25,-103 654,-103 654,-69.5 840.25,-69.5 840.25,-103"/>
<text text-anchor="start" x="662" y="-89.5" font-family="Helvetica,sans-Serif" font-size="10.00">lib/Analysis/ConstraintDependency</text>
<text text-anchor="middle" x="747.12" y="-76.75" font-family="Helvetica,sans-Serif" font-size="10.00">Graph.cpp</text>
</a>
</g>
</g>
<!-- Node3&#45;&gt;Node7 -->
<g id="edge6_Node000003_Node000007" class="edge">
<title>Node3&#45;&gt;Node7</title>
<g id="a_edge6_Node000003_Node000007"><a xlink:title=" ">
<path fill="none" stroke="#63b8ff" d="M551.35,-135.83C592.49,-125.62 642.74,-113.15 682.04,-103.4"/>
<polygon fill="#63b8ff" stroke="#63b8ff" points="550.61,-132.41 541.74,-138.22 552.29,-139.21 550.61,-132.41"/>
</a>
</g>
</g>
<!-- Node8 -->
<g id="Node000008" class="node">
<title>Node8</title>
<g id="a_Node000008"><a xlink:href="ConstraintDependencyGraphPass_8cpp.html" target="_top" xlink:title="This file implements the &#45;llzk&#45;print&#45;constraint&#45;dependency&#45;graphs pass.">
<polygon fill="white" stroke="#666666" points="440.25,-103 254,-103 254,-69.5 440.25,-69.5 440.25,-103"/>
<text text-anchor="start" x="262" y="-89.5" font-family="Helvetica,sans-Serif" font-size="10.00">lib/Analysis/ConstraintDependency</text>
<text text-anchor="middle" x="347.12" y="-76.75" font-family="Helvetica,sans-Serif" font-size="10.00">GraphPass.cpp</text>
</a>
</g>
</g>
<!-- Node3&#45;&gt;Node8 -->
<g id="edge7_Node000003_Node000008" class="edge">
<title>Node3&#45;&gt;Node8</title>
<g id="a_edge7_Node000003_Node000008"><a xlink:title=" ">
<path fill="none" stroke="#63b8ff" d="M434.3,-133.22C415.89,-123.51 394.51,-112.24 377.53,-103.29"/>
<polygon fill="#63b8ff" stroke="#63b8ff" points="432.65,-136.31 443.13,-137.88 435.91,-130.12 432.65,-136.31"/>
</a>
</g>
</g>
<!-- Node9 -->
<g id="Node000009" class="node">
<title>Node9</title>
<g id="a_Node000009"><a xlink:href="SourceRefLattice_8cpp.html" target="_top" xlink:title=" ">
<polygon fill="white" stroke="#666666" points="636.12,-96.62 458.12,-96.62 458.12,-75.88 636.12,-75.88 636.12,-96.62"/>
<text text-anchor="middle" x="547.12" y="-83.12" font-family="Helvetica,sans-Serif" font-size="10.00">lib/Analysis/SourceRefLattice.cpp</text>
</a>
</g>
</g>
<!-- Node3&#45;&gt;Node9 -->
<g id="edge8_Node000003_Node000009" class="edge">
<title>Node3&#45;&gt;Node9</title>
<g id="a_edge8_Node000003_Node000009"><a xlink:title=" ">
<path fill="none" stroke="#63b8ff" d="M500.42,-131.04C512.86,-119.37 527.18,-105.95 536.65,-97.07"/>
<polygon fill="#63b8ff" stroke="#63b8ff" points="498.19,-128.33 493.29,-137.72 502.98,-133.43 498.19,-128.33"/>
</a>
</g>
</g>
<!-- Node5 -->
<g id="Node000005" class="node">
<title>Node5</title>
<g id="a_Node000005"><a xlink:href="IntervalAnalysis_8cpp.html" target="_top" xlink:title=" ">
<polygon fill="white" stroke="#666666" points="174.25,-27.12 0,-27.12 0,-6.38 174.25,-6.38 174.25,-27.12"/>
<text text-anchor="middle" x="87.12" y="-13.62" font-family="Helvetica,sans-Serif" font-size="10.00">lib/Analysis/IntervalAnalysis.cpp</text>
</a>
</g>
</g>
<!-- Node4&#45;&gt;Node5 -->
<g id="edge4_Node000004_Node000005" class="edge">
<title>Node4&#45;&gt;Node5</title>
<g id="a_edge4_Node000004_Node000005"><a xlink:title=" ">
<path fill="none" stroke="#63b8ff" d="M147.51,-62.54C131.48,-50.65 112.68,-36.7 100.37,-27.57"/>
<polygon fill="#63b8ff" stroke="#63b8ff" points="145.23,-65.21 155.34,-68.35 149.4,-59.58 145.23,-65.21"/>
</a>
</g>
</g>
<!-- Node6 -->
<g id="Node000006" class="node">
<title>Node6</title>
<g id="a_Node000006"><a xlink:href="IntervalAnalysisPass_8cpp.html" target="_top" xlink:title="This file implements the &#45;llzk&#45;print&#45;interval&#45;analysis pass.">
<polygon fill="white" stroke="#666666" points="346.12,-33.5 192.12,-33.5 192.12,0 346.12,0 346.12,-33.5"/>
<text text-anchor="start" x="200.12" y="-20" font-family="Helvetica,sans-Serif" font-size="10.00">lib/Analysis/IntervalAnalysis</text>
<text text-anchor="middle" x="269.12" y="-7.25" font-family="Helvetica,sans-Serif" font-size="10.00">Pass.cpp</text>
</a>
</g>
</g>
<!-- Node4&#45;&gt;Node6 -->
<g id="edge5_Node000004_Node000006" class="edge">
<title>Node4&#45;&gt;Node6</title>
<g id="a_edge5_Node000004_Node000006"><a xlink:title=" ">
<path fill="none" stroke="#63b8ff" d="M208.57,-62.66C221.29,-53.23 235.78,-42.48 247.4,-33.87"/>
<polygon fill="#63b8ff" stroke="#63b8ff" points="206.85,-59.58 200.91,-68.35 211.02,-65.21 206.85,-59.58"/>
</a>
</g>
</g>
<!-- Node10&#45;&gt;Node3 -->
<g id="edge10_Node000010_Node000003" class="edge">
<title>Node10&#45;&gt;Node3</title>
<g id="a_edge10_Node000010_Node000003"><a xlink:title=" ">
<path fill="none" stroke="#63b8ff" d="M545.58,-202.04C530.72,-192.49 513.67,-181.53 500.07,-172.79"/>
<polygon fill="#63b8ff" stroke="#63b8ff" points="543.4,-204.8 553.7,-207.26 547.18,-198.91 543.4,-204.8"/>
</a>
</g>
</g>
<!-- Node10&#45;&gt;Node7 -->
<g id="edge11_Node000010_Node000007" class="edge">
<title>Node10&#45;&gt;Node7</title>
<g id="a_edge11_Node000010_Node000007"><a xlink:title=" ">
<path fill="none" stroke="#63b8ff" d="M608.11,-201.29C641.93,-173.55 697.97,-127.58 727.51,-103.34"/>
<polygon fill="#63b8ff" stroke="#63b8ff" points="606.29,-198.26 600.78,-207.31 610.73,-203.67 606.29,-198.26"/>
</a>
</g>
</g>
<!-- Node10&#45;&gt;Node9 -->
<g id="edge12_Node000010_Node000009" class="edge">
<title>Node10&#45;&gt;Node9</title>
<g id="a_edge12_Node000010_Node000009"><a xlink:title=" ">
<path fill="none" stroke="#63b8ff" d="M578.01,-197.02C576.28,-180.11 573.25,-158.05 568.12,-139 564.05,-123.83 556.72,-107.14 551.89,-96.92"/>
<polygon fill="#63b8ff" stroke="#63b8ff" points="574.51,-197.16 578.92,-206.8 581.48,-196.52 574.51,-197.16"/>
</a>
</g>
</g>
</g>
</svg>
