<?xml version="1.0" encoding="UTF-8" standalone="no"?>
<!DOCTYPE svg PUBLIC "-//W3C//DTD SVG 1.1//EN"
 "http://www.w3.org/Graphics/SVG/1.1/DTD/svg11.dtd">
<!-- Generated by graphviz version 12.2.1 (0)
 -->
<!-- Title: include/llzk/Dialect/InitDialects.h Pages: 1 -->
<svg width="827pt" height="111pt"
 viewBox="0.00 0.00 826.88 111.00" xmlns="http://www.w3.org/2000/svg" xmlns:xlink="http://www.w3.org/1999/xlink">
<g id="graph0" class="graph" transform="scale(1 1) rotate(0) translate(4 107)">
<title>include/llzk/Dialect/InitDialects.h</title>
<!-- Node1 -->
<g id="Node000001" class="node">
<title>Node1</title>
<g id="a_Node000001"><a xlink:title="This file defines llzk::registerAllDialects.">
<polygon fill="#999999" stroke="#666666" points="489.75,-103 380.75,-103 380.75,-69.5 489.75,-69.5 489.75,-103"/>
<text text-anchor="start" x="388.75" y="-89.5" font-family="Helvetica,sans-Serif" font-size="10.00">include/llzk/Dialect</text>
<text text-anchor="middle" x="435.25" y="-76.75" font-family="Helvetica,sans-Serif" font-size="10.00">/InitDialects.h</text>
</a>
</g>
</g>
<!-- Node2 -->
<g id="Node000002" class="node">
<title>Node2</title>
<g id="a_Node000002"><a xlink:href="LLZKRegistration_8cpp.html" target="_top" xlink:title="This defines a module that can be used to register the LLZK dialects.">
<polygon fill="white" stroke="#666666" points="122.5,-33.5 0,-33.5 0,0 122.5,0 122.5,-33.5"/>
<text text-anchor="start" x="8" y="-20" font-family="Helvetica,sans-Serif" font-size="10.00">lib/Bindings/Python</text>
<text text-anchor="middle" x="61.25" y="-7.25" font-family="Helvetica,sans-Serif" font-size="10.00">/LLZKRegistration.cpp</text>
</a>
</g>
</g>
<!-- Node1&#45;&gt;Node2 -->
<g id="edge1_Node000001_Node000002" class="edge">
<title>Node1&#45;&gt;Node2</title>
<g id="a_edge1_Node000001_Node000002"><a xlink:title=" ">
<path fill="none" stroke="#63b8ff" d="M369.32,-75.05C307.62,-65.27 212.96,-49.64 131.25,-33.5 128.44,-32.94 125.57,-32.36 122.67,-31.76"/>
<polygon fill="#63b8ff" stroke="#63b8ff" points="368.53,-78.47 378.95,-76.58 369.62,-71.56 368.53,-78.47"/>
</a>
</g>
</g>
<!-- Node3 -->
<g id="Node000003" class="node">
<title>Node3</title>
<g id="a_Node000003"><a xlink:href="CAPI_2InitDialects_8cpp.html" target="_top" xlink:title=" ">
<polygon fill="white" stroke="#666666" points="272.38,-27.12 140.12,-27.12 140.12,-6.38 272.38,-6.38 272.38,-27.12"/>
<text text-anchor="middle" x="206.25" y="-13.62" font-family="Helvetica,sans-Serif" font-size="10.00">lib/CAPI/InitDialects.cpp</text>
</a>
</g>
</g>
<!-- Node1&#45;&gt;Node3 -->
<g id="edge2_Node000001_Node000003" class="edge">
<title>Node1&#45;&gt;Node3</title>
<g id="a_edge2_Node000001_Node000003"><a xlink:title=" ">
<path fill="none" stroke="#63b8ff" d="M369.59,-65.9C327.15,-53.39 273.69,-37.63 239.73,-27.62"/>
<polygon fill="#63b8ff" stroke="#63b8ff" points="368.37,-69.18 378.95,-68.65 370.34,-62.47 368.37,-69.18"/>
</a>
</g>
</g>
<!-- Node4 -->
<g id="Node000004" class="node">
<title>Node4</title>
<g id="a_Node000004"><a xlink:href="Dialect_2InitDialects_8cpp.html" target="_top" xlink:title=" ">
<polygon fill="white" stroke="#666666" points="434.38,-27.12 290.12,-27.12 290.12,-6.38 434.38,-6.38 434.38,-27.12"/>
<text text-anchor="middle" x="362.25" y="-13.62" font-family="Helvetica,sans-Serif" font-size="10.00">lib/Dialect/InitDialects.cpp</text>
</a>
</g>
</g>
<!-- Node1&#45;&gt;Node4 -->
<g id="edge3_Node000001_Node000004" class="edge">
<title>Node1&#45;&gt;Node4</title>
<g id="a_edge3_Node000001_Node000004"><a xlink:title=" ">
<path fill="none" stroke="#63b8ff" d="M409.6,-61.54C396.99,-49.87 382.47,-36.45 372.87,-27.57"/>
<polygon fill="#63b8ff" stroke="#63b8ff" points="407.12,-64.01 416.84,-68.23 411.87,-58.87 407.12,-64.01"/>
</a>
</g>
</g>
<!-- Node5 -->
<g id="Node000005" class="node">
<title>Node5</title>
<g id="a_Node000005"><a xlink:href="llzk-lsp-server_8cpp.html" target="_top" xlink:title=" ">
<polygon fill="white" stroke="#666666" points="565.62,-33.5 452.88,-33.5 452.88,0 565.62,0 565.62,-33.5"/>
<text text-anchor="start" x="460.88" y="-20" font-family="Helvetica,sans-Serif" font-size="10.00">tools/llzk&#45;lsp&#45;server</text>
<text text-anchor="middle" x="509.25" y="-7.25" font-family="Helvetica,sans-Serif" font-size="10.00">/llzk&#45;lsp&#45;server.cpp</text>
</a>
</g>
</g>
<!-- Node1&#45;&gt;Node5 -->
<g id="edge4_Node000001_Node000005" class="edge">
<title>Node1&#45;&gt;Node5</title>
<g id="a_edge4_Node000001_Node000005"><a xlink:title=" ">
<path fill="none" stroke="#63b8ff" d="M461.22,-61.56C471.27,-52.4 482.5,-42.15 491.58,-33.87"/>
<polygon fill="#63b8ff" stroke="#63b8ff" points="458.93,-58.91 453.91,-68.23 463.65,-64.08 458.93,-58.91"/>
</a>
</g>
</g>
<!-- Node6 -->
<g id="Node000006" class="node">
<title>Node6</title>
<g id="a_Node000006"><a xlink:href="llzk-opt_8cpp.html" target="_top" xlink:title="This file implements a version of the mlir&#45;opt tool configured for use on LLZK files.">
<polygon fill="white" stroke="#666666" points="683.25,-33.5 583.25,-33.5 583.25,0 683.25,0 683.25,-33.5"/>
<text text-anchor="start" x="591.25" y="-20" font-family="Helvetica,sans-Serif" font-size="10.00">tools/llzk&#45;opt/llzk</text>
<text text-anchor="middle" x="633.25" y="-7.25" font-family="Helvetica,sans-Serif" font-size="10.00">&#45;opt.cpp</text>
</a>
</g>
</g>
<!-- Node1&#45;&gt;Node6 -->
<g id="edge5_Node000001_Node000006" class="edge">
<title>Node1&#45;&gt;Node6</title>
<g id="a_edge5_Node000001_Node000006"><a xlink:title=" ">
<path fill="none" stroke="#63b8ff" d="M493.24,-65.48C522.71,-55.44 558.06,-43.38 585.87,-33.9"/>
<polygon fill="#63b8ff" stroke="#63b8ff" points="492.44,-62.05 484.11,-68.59 494.7,-68.68 492.44,-62.05"/>
</a>
</g>
</g>
<!-- Node7 -->
<g id="Node000007" class="node">
<title>Node7</title>
<g id="a_Node000007"><a xlink:href="llzk-witgen_8cpp.html" target="_top" xlink:title=" ">
<polygon fill="white" stroke="#666666" points="818.88,-33.5 701.62,-33.5 701.62,0 818.88,0 818.88,-33.5"/>
<text text-anchor="start" x="709.62" y="-20" font-family="Helvetica,sans-Serif" font-size="10.00">tools/llzk&#45;witgen/llzk</text>
<text text-anchor="middle" x="760.25" y="-7.25" font-family="Helvetica,sans-Serif" font-size="10.00">&#45;witgen.cpp</text>
</a>
</g>
</g>
<!-- Node1&#45;&gt;Node7 -->
<g id="edge6_Node000001_Node000007" class="edge">
<title>Node1&#45;&gt;Node7</title>
<g id="a_edge6_Node000001_Node000007"><a xlink:title=" ">
<path fill="none" stroke="#63b8ff" d="M501.06,-72.54C553.05,-62.37 627.39,-47.54 692.25,-33.5 695.21,-32.86 698.24,-32.19 701.3,-31.51"/>
<polygon fill="#63b8ff" stroke="#63b8ff" points="500.62,-69.06 491.48,-74.41 501.96,-75.93 500.62,-69.06"/>
</a>
</g>
</g>
</g>
</svg>
