<?xml version="1.0" encoding="UTF-8" standalone="no"?>
<!DOCTYPE svg PUBLIC "-//W3C//DTD SVG 1.1//EN"
 "http://www.w3.org/Graphics/SVG/1.1/DTD/svg11.dtd">
<!-- Generated by graphviz version 12.2.1 (0)
 -->
<!-- Title: include/llzk/Transforms/LLZKTransformationPasses.h Pages: 1 -->
<svg width="2242pt" height="111pt"
 viewBox="0.00 0.00 2242.38 111.00" xmlns="http://www.w3.org/2000/svg" xmlns:xlink="http://www.w3.org/1999/xlink">
<g id="graph0" class="graph" transform="scale(1 1) rotate(0) translate(4 107)">
<title>include/llzk/Transforms/LLZKTransformationPasses.h</title>
<!-- Node1 -->
<g id="Node000001" class="node">
<title>Node1</title>
<g id="a_Node000001"><a xlink:title=" ">
<polygon fill="#999999" stroke="#666666" points="1151.25,-103 993.5,-103 993.5,-69.5 1151.25,-69.5 1151.25,-103"/>
<text text-anchor="start" x="1001.5" y="-89.5" font-family="Helvetica,sans-Serif" font-size="10.00">include/llzk/Transforms</text>
<text text-anchor="middle" x="1072.38" y="-76.75" font-family="Helvetica,sans-Serif" font-size="10.00">/LLZKTransformationPasses.h</text>
</a>
</g>
</g>
<!-- Node2 -->
<g id="Node000002" class="node">
<title>Node2</title>
<g id="a_Node000002"><a xlink:href="Transforms_8cpp.html" target="_top" xlink:title=" ">
<polygon fill="white" stroke="#666666" points="130.75,-27.12 0,-27.12 0,-6.38 130.75,-6.38 130.75,-27.12"/>
<text text-anchor="middle" x="65.38" y="-13.62" font-family="Helvetica,sans-Serif" font-size="10.00">lib/CAPI/Transforms.cpp</text>
</a>
</g>
</g>
<!-- Node1&#45;&gt;Node2 -->
<g id="edge1_Node000001_Node000002" class="edge">
<title>Node1&#45;&gt;Node2</title>
<g id="a_edge1_Node000001_Node000002"><a xlink:title=" ">
<path fill="none" stroke="#63b8ff" d="M981.95,-84.77C814.96,-82.87 447.22,-74 140.38,-33.5 129.3,-32.04 117.41,-29.84 106.44,-27.55"/>
<polygon fill="#63b8ff" stroke="#63b8ff" points="981.59,-88.26 991.62,-84.87 981.66,-81.27 981.59,-88.26"/>
</a>
</g>
</g>
<!-- Node3 -->
<g id="Node000003" class="node">
<title>Node3</title>
<g id="a_Node000003"><a xlink:href="Dialect_2InitDialects_8cpp.html" target="_top" xlink:title=" ">
<polygon fill="white" stroke="#666666" points="293.5,-27.12 149.25,-27.12 149.25,-6.38 293.5,-6.38 293.5,-27.12"/>
<text text-anchor="middle" x="221.38" y="-13.62" font-family="Helvetica,sans-Serif" font-size="10.00">lib/Dialect/InitDialects.cpp</text>
</a>
</g>
</g>
<!-- Node1&#45;&gt;Node3 -->
<g id="edge2_Node000001_Node000003" class="edge">
<title>Node1&#45;&gt;Node3</title>
<g id="a_edge2_Node000001_Node000003"><a xlink:title=" ">
<path fill="none" stroke="#63b8ff" d="M981.68,-82.82C837.33,-78.14 546.7,-65.34 302.38,-33.5 290.73,-31.98 278.23,-29.82 266.62,-27.58"/>
<polygon fill="#63b8ff" stroke="#63b8ff" points="981.46,-86.32 991.56,-83.14 981.68,-79.32 981.46,-86.32"/>
</a>
</g>
</g>
<!-- Node4 -->
<g id="Node000004" class="node">
<title>Node4</title>
<g id="a_Node000004"><a xlink:href="LLZKComputeConstrainToProductPass_8cpp.html" target="_top" xlink:title="This file implements the &#45;llzk&#45;product&#45;program pass.">
<polygon fill="white" stroke="#666666" points="467.12,-33.5 311.62,-33.5 311.62,0 467.12,0 467.12,-33.5"/>
<text text-anchor="start" x="319.62" y="-20" font-family="Helvetica,sans-Serif" font-size="10.00">lib/Transforms/LLZKCompute</text>
<text text-anchor="middle" x="389.38" y="-7.25" font-family="Helvetica,sans-Serif" font-size="10.00">ConstrainToProductPass.cpp</text>
</a>
</g>
</g>
<!-- Node1&#45;&gt;Node4 -->
<g id="edge3_Node000001_Node000004" class="edge">
<title>Node1&#45;&gt;Node4</title>
<g id="a_edge3_Node000001_Node000004"><a xlink:title=" ">
<path fill="none" stroke="#63b8ff" d="M981.68,-79.99C864.6,-72.61 654.71,-57.33 476.38,-33.5 473.48,-33.11 470.54,-32.7 467.58,-32.26"/>
<polygon fill="#63b8ff" stroke="#63b8ff" points="981.36,-83.48 991.55,-80.61 981.79,-76.49 981.36,-83.48"/>
</a>
</g>
</g>
<!-- Node5 -->
<g id="Node000005" class="node">
<title>Node5</title>
<g id="a_Node000005"><a xlink:href="LLZKEnforceNoOverwritePass_8cpp.html" target="_top" xlink:title="This file implements the &#45;llzk&#45;enforce&#45;no&#45;overwrite pass.">
<polygon fill="white" stroke="#666666" points="633.75,-33.5 485,-33.5 485,0 633.75,0 633.75,-33.5"/>
<text text-anchor="start" x="493" y="-20" font-family="Helvetica,sans-Serif" font-size="10.00">lib/Transforms/LLZKEnforce</text>
<text text-anchor="middle" x="559.38" y="-7.25" font-family="Helvetica,sans-Serif" font-size="10.00">NoOverwritePass.cpp</text>
</a>
</g>
</g>
<!-- Node1&#45;&gt;Node5 -->
<g id="edge4_Node000001_Node000005" class="edge">
<title>Node1&#45;&gt;Node5</title>
<g id="a_edge4_Node000001_Node000005"><a xlink:title=" ">
<path fill="none" stroke="#63b8ff" d="M981.85,-76.16C894.66,-66.98 759.18,-51.59 642.38,-33.5 639.62,-33.07 636.82,-32.62 633.99,-32.16"/>
<polygon fill="#63b8ff" stroke="#63b8ff" points="981.48,-79.64 991.79,-77.2 982.21,-72.68 981.48,-79.64"/>
</a>
</g>
</g>
<!-- Node6 -->
<g id="Node000006" class="node">
<title>Node6</title>
<g id="a_Node000006"><a xlink:href="LLZKFuseProductLoopsPass_8cpp.html" target="_top" xlink:title="This file implements the &#45;llzk&#45;fuse&#45;product&#45;loops pass.">
<polygon fill="white" stroke="#666666" points="823,-33.5 651.75,-33.5 651.75,0 823,0 823,-33.5"/>
<text text-anchor="start" x="659.75" y="-20" font-family="Helvetica,sans-Serif" font-size="10.00">lib/Transforms/LLZKFuseProduct</text>
<text text-anchor="middle" x="737.38" y="-7.25" font-family="Helvetica,sans-Serif" font-size="10.00">LoopsPass.cpp</text>
</a>
</g>
</g>
<!-- Node1&#45;&gt;Node6 -->
<g id="edge5_Node000001_Node000006" class="edge">
<title>Node1&#45;&gt;Node6</title>
<g id="a_edge5_Node000001_Node000006"><a xlink:title=" ">
<path fill="none" stroke="#63b8ff" d="M982.34,-67.11C931.09,-56.78 867.42,-43.95 817.85,-33.96"/>
<polygon fill="#63b8ff" stroke="#63b8ff" points="981.43,-70.5 991.93,-69.04 982.81,-63.63 981.43,-70.5"/>
</a>
</g>
</g>
<!-- Node7 -->
<g id="Node000007" class="node">
<title>Node7</title>
<g id="a_Node000007"><a xlink:href="LLZKInlineStructsPass_8cpp.html" target="_top" xlink:title="This file implements the &#45;llzk&#45;inline&#45;structs pass.">
<polygon fill="white" stroke="#666666" points="979.88,-33.5 840.88,-33.5 840.88,0 979.88,0 979.88,-33.5"/>
<text text-anchor="start" x="848.88" y="-20" font-family="Helvetica,sans-Serif" font-size="10.00">lib/Transforms/LLZKInline</text>
<text text-anchor="middle" x="910.38" y="-7.25" font-family="Helvetica,sans-Serif" font-size="10.00">StructsPass.cpp</text>
</a>
</g>
</g>
<!-- Node1&#45;&gt;Node7 -->
<g id="edge6_Node000001_Node000007" class="edge">
<title>Node1&#45;&gt;Node7</title>
<g id="a_edge6_Node000001_Node000007"><a xlink:title=" ">
<path fill="none" stroke="#63b8ff" d="M1023.02,-64.68C999.3,-54.8 971.3,-43.13 949.14,-33.9"/>
<polygon fill="#63b8ff" stroke="#63b8ff" points="1021.6,-67.88 1032.17,-68.5 1024.29,-61.42 1021.6,-67.88"/>
</a>
</g>
</g>
<!-- Node8 -->
<g id="Node000008" class="node">
<title>Node8</title>
<g id="a_Node000008"><a xlink:href="LLZKInliningExtensions_8cpp.html" target="_top" xlink:title=" ">
<polygon fill="white" stroke="#666666" points="1146.38,-33.5 998.38,-33.5 998.38,0 1146.38,0 1146.38,-33.5"/>
<text text-anchor="start" x="1006.38" y="-20" font-family="Helvetica,sans-Serif" font-size="10.00">lib/Transforms/LLZKInlining</text>
<text text-anchor="middle" x="1072.38" y="-7.25" font-family="Helvetica,sans-Serif" font-size="10.00">Extensions.cpp</text>
</a>
</g>
</g>
<!-- Node1&#45;&gt;Node8 -->
<g id="edge7_Node000001_Node000008" class="edge">
<title>Node1&#45;&gt;Node8</title>
<g id="a_edge7_Node000001_Node000008"><a xlink:title=" ">
<path fill="none" stroke="#63b8ff" d="M1072.38,-57.81C1072.38,-49.59 1072.38,-40.84 1072.38,-33.63"/>
<polygon fill="#63b8ff" stroke="#63b8ff" points="1068.88,-57.74 1072.38,-67.74 1075.88,-57.74 1068.88,-57.74"/>
</a>
</g>
</g>
<!-- Node9 -->
<g id="Node000009" class="node">
<title>Node9</title>
<g id="a_Node000009"><a xlink:href="LLZKPolyLoweringPass_8cpp.html" target="_top" xlink:title="This file implements the &#45;llzk&#45;poly&#45;lowering pass.">
<polygon fill="white" stroke="#666666" points="1342,-33.5 1164.75,-33.5 1164.75,0 1342,0 1342,-33.5"/>
<text text-anchor="start" x="1172.75" y="-20" font-family="Helvetica,sans-Serif" font-size="10.00">lib/Transforms/LLZKPolyLowering</text>
<text text-anchor="middle" x="1253.38" y="-7.25" font-family="Helvetica,sans-Serif" font-size="10.00">Pass.cpp</text>
</a>
</g>
</g>
<!-- Node1&#45;&gt;Node9 -->
<g id="edge8_Node000001_Node000009" class="edge">
<title>Node1&#45;&gt;Node9</title>
<g id="a_edge8_Node000001_Node000009"><a xlink:title=" ">
<path fill="none" stroke="#63b8ff" d="M1126.45,-65.08C1153.17,-55.12 1184.97,-43.26 1210.06,-33.9"/>
<polygon fill="#63b8ff" stroke="#63b8ff" points="1125.29,-61.78 1117.15,-68.55 1127.74,-68.34 1125.29,-61.78"/>
</a>
</g>
</g>
<!-- Node10 -->
<g id="Node000010" class="node">
<title>Node10</title>
<g id="a_Node000010"><a xlink:href="LLZKRedundantOperationEliminationPass_8cpp.html" target="_top" xlink:title="This file implements the &#45;llzk&#45;duplicate&#45;op&#45;elim pass.">
<polygon fill="white" stroke="#666666" points="1524.62,-33.5 1360.12,-33.5 1360.12,0 1524.62,0 1524.62,-33.5"/>
<text text-anchor="start" x="1368.12" y="-20" font-family="Helvetica,sans-Serif" font-size="10.00">lib/Transforms/LLZKRedundant</text>
<text text-anchor="middle" x="1442.38" y="-7.25" font-family="Helvetica,sans-Serif" font-size="10.00">OperationEliminationPass.cpp</text>
</a>
</g>
</g>
<!-- Node1&#45;&gt;Node10 -->
<g id="edge9_Node000001_Node000010" class="edge">
<title>Node1&#45;&gt;Node10</title>
<g id="a_edge9_Node000001_Node000010"><a xlink:title=" ">
<path fill="none" stroke="#63b8ff" d="M1162.77,-68.76C1222.96,-57.78 1301.44,-43.46 1359.93,-32.79"/>
<polygon fill="#63b8ff" stroke="#63b8ff" points="1162.45,-65.26 1153.24,-70.5 1163.7,-72.15 1162.45,-65.26"/>
</a>
</g>
</g>
<!-- Node11 -->
<g id="Node000011" class="node">
<title>Node11</title>
<g id="a_Node000011"><a xlink:href="LLZKRedundantReadAndWriteEliminationPass_8cpp.html" target="_top" xlink:title="This file implements the &#45;llzk&#45;duplicate&#45;read&#45;write&#45;elim pass.">
<polygon fill="white" stroke="#666666" points="1726,-33.5 1542.75,-33.5 1542.75,0 1726,0 1726,-33.5"/>
<text text-anchor="start" x="1550.75" y="-20" font-family="Helvetica,sans-Serif" font-size="10.00">lib/Transforms/LLZKRedundant</text>
<text text-anchor="middle" x="1634.38" y="-7.25" font-family="Helvetica,sans-Serif" font-size="10.00">ReadAndWriteEliminationPass.cpp</text>
</a>
</g>
</g>
<!-- Node1&#45;&gt;Node11 -->
<g id="edge10_Node000001_Node000011" class="edge">
<title>Node1&#45;&gt;Node11</title>
<g id="a_edge10_Node000001_Node000011"><a xlink:title=" ">
<path fill="none" stroke="#63b8ff" d="M1162.98,-76.24C1256.04,-66.71 1405.02,-50.7 1533.38,-33.5 1536.37,-33.1 1539.4,-32.68 1542.47,-32.25"/>
<polygon fill="#63b8ff" stroke="#63b8ff" points="1162.73,-72.75 1153.13,-77.24 1163.44,-79.71 1162.73,-72.75"/>
</a>
</g>
</g>
<!-- Node12 -->
<g id="Node000012" class="node">
<title>Node12</title>
<g id="a_Node000012"><a xlink:href="LLZKTransformationPassPipelines_8cpp.html" target="_top" xlink:title="This file implements logic for registering several pass pipelines.">
<polygon fill="white" stroke="#666666" points="1928.75,-33.5 1744,-33.5 1744,0 1928.75,0 1928.75,-33.5"/>
<text text-anchor="start" x="1752" y="-20" font-family="Helvetica,sans-Serif" font-size="10.00">lib/Transforms/LLZKTransformation</text>
<text text-anchor="middle" x="1836.38" y="-7.25" font-family="Helvetica,sans-Serif" font-size="10.00">PassPipelines.cpp</text>
</a>
</g>
</g>
<!-- Node1&#45;&gt;Node12 -->
<g id="edge11_Node000001_Node000012" class="edge">
<title>Node1&#45;&gt;Node12</title>
<g id="a_edge11_Node000001_Node000012"><a xlink:title=" ">
<path fill="none" stroke="#63b8ff" d="M1162.92,-80.39C1290.78,-73.03 1531.39,-57.33 1735.38,-33.5 1738.11,-33.18 1740.88,-32.84 1743.67,-32.49"/>
<polygon fill="#63b8ff" stroke="#63b8ff" points="1162.95,-76.88 1153.17,-80.95 1163.35,-83.87 1162.95,-76.88"/>
</a>
</g>
</g>
<!-- Node13 -->
<g id="Node000013" class="node">
<title>Node13</title>
<g id="a_Node000013"><a xlink:href="LLZKUnusedDeclarationEliminationPass_8cpp.html" target="_top" xlink:title="This file implements the &#45;llzk&#45;unused&#45;declaration&#45;elim pass.">
<polygon fill="white" stroke="#666666" points="2116.25,-33.5 1946.5,-33.5 1946.5,0 2116.25,0 2116.25,-33.5"/>
<text text-anchor="start" x="1954.5" y="-20" font-family="Helvetica,sans-Serif" font-size="10.00">lib/Transforms/LLZKUnused</text>
<text text-anchor="middle" x="2031.38" y="-7.25" font-family="Helvetica,sans-Serif" font-size="10.00">DeclarationEliminationPass.cpp</text>
</a>
</g>
</g>
<!-- Node1&#45;&gt;Node13 -->
<g id="edge12_Node000001_Node000013" class="edge">
<title>Node1&#45;&gt;Node13</title>
<g id="a_edge12_Node000001_Node000013"><a xlink:title=" ">
<path fill="none" stroke="#63b8ff" d="M1162.67,-83.01C1320.31,-78.38 1655.81,-65.42 1937.38,-33.5 1940.25,-33.17 1943.18,-32.82 1946.12,-32.44"/>
<polygon fill="#63b8ff" stroke="#63b8ff" points="1163.04,-79.49 1153.14,-83.28 1163.24,-86.49 1163.04,-79.49"/>
</a>
</g>
</g>
<!-- Node14 -->
<g id="Node000014" class="node">
<title>Node14</title>
<g id="a_Node000014"><a xlink:href="llzk-opt_8cpp.html" target="_top" xlink:title="This file implements a version of the mlir&#45;opt tool configured for use on LLZK files.">
<polygon fill="white" stroke="#666666" points="2234.38,-33.5 2134.38,-33.5 2134.38,0 2234.38,0 2234.38,-33.5"/>
<text text-anchor="start" x="2142.38" y="-20" font-family="Helvetica,sans-Serif" font-size="10.00">tools/llzk&#45;opt/llzk</text>
<text text-anchor="middle" x="2184.38" y="-7.25" font-family="Helvetica,sans-Serif" font-size="10.00">&#45;opt.cpp</text>
</a>
</g>
</g>
<!-- Node1&#45;&gt;Node14 -->
<g id="edge13_Node000001_Node000014" class="edge">
<title>Node1&#45;&gt;Node14</title>
<g id="a_edge13_Node000001_Node000014"><a xlink:title=" ">
<path fill="none" stroke="#63b8ff" d="M1163.11,-83.26C1383.26,-78.03 1941.16,-62.28 2125.38,-33.5 2128.2,-33.06 2131.09,-32.53 2133.99,-31.95"/>
<polygon fill="#63b8ff" stroke="#63b8ff" points="1163.05,-79.76 1153.13,-83.49 1163.21,-86.76 1163.05,-79.76"/>
</a>
</g>
</g>
</g>
</svg>
