<?xml version="1.0" encoding="UTF-8" standalone="no"?>
<!DOCTYPE svg PUBLIC "-//W3C//DTD SVG 1.1//EN"
 "http://www.w3.org/Graphics/SVG/1.1/DTD/svg11.dtd">
<!-- Generated by graphviz version 12.2.1 (0)
 -->
<!-- Title: build/include/llzk/Transforms/LLZKTransformationPasses.h.inc Pages: 1 -->
<svg width="2394pt" height="193pt"
 viewBox="0.00 0.00 2393.62 193.25" xmlns="http://www.w3.org/2000/svg" xmlns:xlink="http://www.w3.org/1999/xlink">
<g id="graph0" class="graph" transform="scale(1 1) rotate(0) translate(4 189.25)">
<title>build/include/llzk/Transforms/LLZKTransformationPasses.h.inc</title>
<!-- Node1 -->
<g id="Node000001" class="node">
<title>Node1</title>
<g id="a_Node000001"><a xlink:title=" ">
<polygon fill="#999999" stroke="#666666" points="1243.12,-185.25 1070.38,-185.25 1070.38,-139 1243.12,-139 1243.12,-185.25"/>
<text text-anchor="start" x="1078.38" y="-171.75" font-family="Helvetica,sans-Serif" font-size="10.00">build/include/llzk</text>
<text text-anchor="start" x="1078.38" y="-159" font-family="Helvetica,sans-Serif" font-size="10.00">/Transforms/LLZKTransformation</text>
<text text-anchor="middle" x="1156.75" y="-146.25" font-family="Helvetica,sans-Serif" font-size="10.00">Passes.h.inc</text>
</a>
</g>
</g>
<!-- Node2 -->
<g id="Node000002" class="node">
<title>Node2</title>
<g id="a_Node000002"><a xlink:href="LLZKTransformationPasses_8h.html" target="_top" xlink:title=" ">
<polygon fill="white" stroke="#666666" points="1235.62,-103 1077.88,-103 1077.88,-69.5 1235.62,-69.5 1235.62,-103"/>
<text text-anchor="start" x="1085.88" y="-89.5" font-family="Helvetica,sans-Serif" font-size="10.00">include/llzk/Transforms</text>
<text text-anchor="middle" x="1156.75" y="-76.75" font-family="Helvetica,sans-Serif" font-size="10.00">/LLZKTransformationPasses.h</text>
</a>
</g>
</g>
<!-- Node1&#45;&gt;Node2 -->
<g id="edge1_Node000001_Node000002" class="edge">
<title>Node1&#45;&gt;Node2</title>
<g id="a_edge1_Node000001_Node000002"><a xlink:title=" ">
<path fill="none" stroke="#63b8ff" d="M1156.75,-127.14C1156.75,-118.85 1156.75,-110.36 1156.75,-103.35"/>
<polygon fill="#63b8ff" stroke="#63b8ff" points="1153.25,-127.05 1156.75,-137.05 1160.25,-127.05 1153.25,-127.05"/>
</a>
</g>
</g>
<!-- Node5 -->
<g id="Node000005" class="node">
<title>Node5</title>
<g id="a_Node000005"><a xlink:href="LLZKComputeConstrainToProductPass_8cpp.html" target="_top" xlink:title="This file implements the &#45;llzk&#45;product&#45;program pass.">
<polygon fill="white" stroke="#666666" points="155.5,-33.5 0,-33.5 0,0 155.5,0 155.5,-33.5"/>
<text text-anchor="start" x="8" y="-20" font-family="Helvetica,sans-Serif" font-size="10.00">lib/Transforms/LLZKCompute</text>
<text text-anchor="middle" x="77.75" y="-7.25" font-family="Helvetica,sans-Serif" font-size="10.00">ConstrainToProductPass.cpp</text>
</a>
</g>
</g>
<!-- Node1&#45;&gt;Node5 -->
<g id="edge16_Node000001_Node000005" class="edge">
<title>Node1&#45;&gt;Node5</title>
<g id="a_edge16_Node000001_Node000005"><a xlink:title=" ">
<path fill="none" stroke="#63b8ff" d="M1058.89,-155.49C932.2,-147.46 704.74,-130.57 511.75,-103 382.71,-84.56 233.98,-53.09 148.41,-33.98"/>
<polygon fill="#63b8ff" stroke="#63b8ff" points="1058.38,-158.96 1068.58,-156.1 1058.82,-151.98 1058.38,-158.96"/>
</a>
</g>
</g>
<!-- Node6 -->
<g id="Node000006" class="node">
<title>Node6</title>
<g id="a_Node000006"><a xlink:href="LLZKEnforceNoOverwritePass_8cpp.html" target="_top" xlink:title="This file implements the &#45;llzk&#45;enforce&#45;no&#45;overwrite pass.">
<polygon fill="white" stroke="#666666" points="322.12,-33.5 173.38,-33.5 173.38,0 322.12,0 322.12,-33.5"/>
<text text-anchor="start" x="181.38" y="-20" font-family="Helvetica,sans-Serif" font-size="10.00">lib/Transforms/LLZKEnforce</text>
<text text-anchor="middle" x="247.75" y="-7.25" font-family="Helvetica,sans-Serif" font-size="10.00">NoOverwritePass.cpp</text>
</a>
</g>
</g>
<!-- Node1&#45;&gt;Node6 -->
<g id="edge17_Node000001_Node000006" class="edge">
<title>Node1&#45;&gt;Node6</title>
<g id="a_edge17_Node000001_Node000006"><a xlink:title=" ">
<path fill="none" stroke="#63b8ff" d="M1058.66,-150.31C966.15,-139.72 823.73,-122.37 700.75,-103 535.47,-76.97 495.17,-64.54 330.75,-33.5 328.01,-32.98 325.22,-32.46 322.41,-31.92"/>
<polygon fill="#63b8ff" stroke="#63b8ff" points="1058.13,-153.78 1068.46,-151.43 1058.92,-146.82 1058.13,-153.78"/>
</a>
</g>
</g>
<!-- Node7 -->
<g id="Node000007" class="node">
<title>Node7</title>
<g id="a_Node000007"><a xlink:href="LLZKFuseProductLoopsPass_8cpp.html" target="_top" xlink:title="This file implements the &#45;llzk&#45;fuse&#45;product&#45;loops pass.">
<polygon fill="white" stroke="#666666" points="511.38,-33.5 340.12,-33.5 340.12,0 511.38,0 511.38,-33.5"/>
<text text-anchor="start" x="348.12" y="-20" font-family="Helvetica,sans-Serif" font-size="10.00">lib/Transforms/LLZKFuseProduct</text>
<text text-anchor="middle" x="425.75" y="-7.25" font-family="Helvetica,sans-Serif" font-size="10.00">LoopsPass.cpp</text>
</a>
</g>
</g>
<!-- Node1&#45;&gt;Node7 -->
<g id="edge18_Node000001_Node000007" class="edge">
<title>Node1&#45;&gt;Node7</title>
<g id="a_edge18_Node000001_Node000007"><a xlink:title=" ">
<path fill="none" stroke="#63b8ff" d="M1058.94,-141.94C913.87,-113.49 644.23,-60.6 508.43,-33.97"/>
<polygon fill="#63b8ff" stroke="#63b8ff" points="1058.05,-145.33 1068.54,-143.82 1059.4,-138.46 1058.05,-145.33"/>
</a>
</g>
</g>
<!-- Node8 -->
<g id="Node000008" class="node">
<title>Node8</title>
<g id="a_Node000008"><a xlink:href="LLZKInlineStructsPass_8cpp.html" target="_top" xlink:title="This file implements the &#45;llzk&#45;inline&#45;structs pass.">
<polygon fill="white" stroke="#666666" points="668.25,-33.5 529.25,-33.5 529.25,0 668.25,0 668.25,-33.5"/>
<text text-anchor="start" x="537.25" y="-20" font-family="Helvetica,sans-Serif" font-size="10.00">lib/Transforms/LLZKInline</text>
<text text-anchor="middle" x="598.75" y="-7.25" font-family="Helvetica,sans-Serif" font-size="10.00">StructsPass.cpp</text>
</a>
</g>
</g>
<!-- Node1&#45;&gt;Node8 -->
<g id="edge19_Node000001_Node000008" class="edge">
<title>Node1&#45;&gt;Node8</title>
<g id="a_edge19_Node000001_Node000008"><a xlink:title=" ">
<path fill="none" stroke="#63b8ff" d="M1086.46,-134.65C1031.18,-114.6 951.87,-87.51 880.75,-69.5 791.92,-47.01 767.8,-50.46 677.75,-33.5 674.73,-32.93 671.64,-32.34 668.52,-31.74"/>
<polygon fill="#63b8ff" stroke="#63b8ff" points="1085.18,-137.91 1095.77,-138.05 1087.57,-131.33 1085.18,-137.91"/>
</a>
</g>
</g>
<!-- Node10 -->
<g id="Node000010" class="node">
<title>Node10</title>
<g id="a_Node000010"><a xlink:href="LLZKPolyLoweringPass_8cpp.html" target="_top" xlink:title="This file implements the &#45;llzk&#45;poly&#45;lowering pass.">
<polygon fill="white" stroke="#666666" points="1813.38,-33.5 1636.12,-33.5 1636.12,0 1813.38,0 1813.38,-33.5"/>
<text text-anchor="start" x="1644.12" y="-20" font-family="Helvetica,sans-Serif" font-size="10.00">lib/Transforms/LLZKPolyLowering</text>
<text text-anchor="middle" x="1724.75" y="-7.25" font-family="Helvetica,sans-Serif" font-size="10.00">Pass.cpp</text>
</a>
</g>
</g>
<!-- Node1&#45;&gt;Node10 -->
<g id="edge20_Node000001_Node000010" class="edge">
<title>Node1&#45;&gt;Node10</title>
<g id="a_edge20_Node000001_Node000010"><a xlink:title=" ">
<path fill="none" stroke="#63b8ff" d="M1254.34,-136.49C1370.65,-107.13 1561.67,-58.91 1660.71,-33.91"/>
<polygon fill="#63b8ff" stroke="#63b8ff" points="1253.63,-133.06 1244.79,-138.9 1255.35,-139.85 1253.63,-133.06"/>
</a>
</g>
</g>
<!-- Node11 -->
<g id="Node000011" class="node">
<title>Node11</title>
<g id="a_Node000011"><a xlink:href="LLZKRedundantOperationEliminationPass_8cpp.html" target="_top" xlink:title="This file implements the &#45;llzk&#45;duplicate&#45;op&#45;elim pass.">
<polygon fill="white" stroke="#666666" points="1996,-33.5 1831.5,-33.5 1831.5,0 1996,0 1996,-33.5"/>
<text text-anchor="start" x="1839.5" y="-20" font-family="Helvetica,sans-Serif" font-size="10.00">lib/Transforms/LLZKRedundant</text>
<text text-anchor="middle" x="1913.75" y="-7.25" font-family="Helvetica,sans-Serif" font-size="10.00">OperationEliminationPass.cpp</text>
</a>
</g>
</g>
<!-- Node1&#45;&gt;Node11 -->
<g id="edge21_Node000001_Node000011" class="edge">
<title>Node1&#45;&gt;Node11</title>
<g id="a_edge21_Node000001_Node000011"><a xlink:title=" ">
<path fill="none" stroke="#63b8ff" d="M1254.62,-142.59C1405.05,-114.1 1690.4,-60.05 1831.09,-33.41"/>
<polygon fill="#63b8ff" stroke="#63b8ff" points="1254.25,-139.1 1245.07,-144.4 1255.55,-145.97 1254.25,-139.1"/>
</a>
</g>
</g>
<!-- Node12 -->
<g id="Node000012" class="node">
<title>Node12</title>
<g id="a_Node000012"><a xlink:href="LLZKRedundantReadAndWriteEliminationPass_8cpp.html" target="_top" xlink:title="This file implements the &#45;llzk&#45;duplicate&#45;read&#45;write&#45;elim pass.">
<polygon fill="white" stroke="#666666" points="2197.38,-33.5 2014.12,-33.5 2014.12,0 2197.38,0 2197.38,-33.5"/>
<text text-anchor="start" x="2022.12" y="-20" font-family="Helvetica,sans-Serif" font-size="10.00">lib/Transforms/LLZKRedundant</text>
<text text-anchor="middle" x="2105.75" y="-7.25" font-family="Helvetica,sans-Serif" font-size="10.00">ReadAndWriteEliminationPass.cpp</text>
</a>
</g>
</g>
<!-- Node1&#45;&gt;Node12 -->
<g id="edge22_Node000001_Node000012" class="edge">
<title>Node1&#45;&gt;Node12</title>
<g id="a_edge22_Node000001_Node000012"><a xlink:title=" ">
<path fill="none" stroke="#63b8ff" d="M1254.78,-147.36C1336.62,-135.79 1456.34,-118.68 1560.75,-103 1720.09,-79.08 1905.4,-49.78 2013.71,-32.5"/>
<polygon fill="#63b8ff" stroke="#63b8ff" points="1254.39,-143.88 1244.98,-148.75 1255.37,-150.81 1254.39,-143.88"/>
</a>
</g>
</g>
<!-- Node14 -->
<g id="Node000014" class="node">
<title>Node14</title>
<g id="a_Node000014"><a xlink:href="LLZKUnusedDeclarationEliminationPass_8cpp.html" target="_top" xlink:title="This file implements the &#45;llzk&#45;unused&#45;declaration&#45;elim pass.">
<polygon fill="white" stroke="#666666" points="2385.62,-33.5 2215.88,-33.5 2215.88,0 2385.62,0 2385.62,-33.5"/>
<text text-anchor="start" x="2223.88" y="-20" font-family="Helvetica,sans-Serif" font-size="10.00">lib/Transforms/LLZKUnused</text>
<text text-anchor="middle" x="2300.75" y="-7.25" font-family="Helvetica,sans-Serif" font-size="10.00">DeclarationEliminationPass.cpp</text>
</a>
</g>
</g>
<!-- Node1&#45;&gt;Node14 -->
<g id="edge23_Node000001_Node000014" class="edge">
<title>Node1&#45;&gt;Node14</title>
<g id="a_edge23_Node000001_Node000014"><a xlink:title=" ">
<path fill="none" stroke="#63b8ff" d="M1254.78,-151.04C1440.8,-131.49 1857.65,-85.75 2206.75,-33.5 2209.61,-33.07 2212.53,-32.63 2215.46,-32.17"/>
<polygon fill="#63b8ff" stroke="#63b8ff" points="1254.49,-147.55 1244.9,-152.07 1255.22,-154.51 1254.49,-147.55"/>
</a>
</g>
</g>
<!-- Node3 -->
<g id="Node000003" class="node">
<title>Node3</title>
<g id="a_Node000003"><a xlink:href="Transforms_8cpp.html" target="_top" xlink:title=" ">
<polygon fill="white" stroke="#666666" points="817.12,-27.12 686.38,-27.12 686.38,-6.38 817.12,-6.38 817.12,-27.12"/>
<text text-anchor="middle" x="751.75" y="-13.62" font-family="Helvetica,sans-Serif" font-size="10.00">lib/CAPI/Transforms.cpp</text>
</a>
</g>
</g>
<!-- Node2&#45;&gt;Node3 -->
<g id="edge2_Node000002_Node000003" class="edge">
<title>Node2&#45;&gt;Node3</title>
<g id="a_edge2_Node000002_Node000003"><a xlink:title=" ">
<path fill="none" stroke="#63b8ff" d="M1066.28,-72.34C999.85,-62.56 907.5,-48.3 826.75,-33.5 817.07,-31.73 806.71,-29.66 796.89,-27.62"/>
<polygon fill="#63b8ff" stroke="#63b8ff" points="1065.64,-75.79 1076.05,-73.78 1066.66,-68.86 1065.64,-75.79"/>
</a>
</g>
</g>
<!-- Node4 -->
<g id="Node000004" class="node">
<title>Node4</title>
<g id="a_Node000004"><a xlink:href="Dialect_2InitDialects_8cpp.html" target="_top" xlink:title=" ">
<polygon fill="white" stroke="#666666" points="979.88,-27.12 835.62,-27.12 835.62,-6.38 979.88,-6.38 979.88,-27.12"/>
<text text-anchor="middle" x="907.75" y="-13.62" font-family="Helvetica,sans-Serif" font-size="10.00">lib/Dialect/InitDialects.cpp</text>
</a>
</g>
</g>
<!-- Node2&#45;&gt;Node4 -->
<g id="edge3_Node000002_Node000004" class="edge">
<title>Node2&#45;&gt;Node4</title>
<g id="a_edge3_Node000002_Node000004"><a xlink:title=" ">
<path fill="none" stroke="#63b8ff" d="M1086.23,-66.13C1039.95,-53.59 981.32,-37.69 944.16,-27.62"/>
<polygon fill="#63b8ff" stroke="#63b8ff" points="1085.08,-69.45 1095.65,-68.69 1086.91,-62.69 1085.08,-69.45"/>
</a>
</g>
</g>
<!-- Node2&#45;&gt;Node5 -->
<g id="edge4_Node000002_Node000005" class="edge">
<title>Node2&#45;&gt;Node5</title>
<g id="a_edge4_Node000002_Node000005"><a xlink:title=" ">
<path fill="none" stroke="#63b8ff" d="M1065.93,-84.36C890.96,-81.8 495.23,-71.88 164.75,-33.5 161.85,-33.16 158.91,-32.79 155.93,-32.39"/>
<polygon fill="#63b8ff" stroke="#63b8ff" points="1065.82,-87.86 1075.87,-84.5 1065.92,-80.86 1065.82,-87.86"/>
</a>
</g>
</g>
<!-- Node2&#45;&gt;Node6 -->
<g id="edge5_Node000002_Node000006" class="edge">
<title>Node2&#45;&gt;Node6</title>
<g id="a_edge5_Node000002_Node000006"><a xlink:title=" ">
<path fill="none" stroke="#63b8ff" d="M1066.45,-83.28C914.19,-79.14 596.92,-66.96 330.75,-33.5 327.99,-33.15 325.17,-32.77 322.34,-32.36"/>
<polygon fill="#63b8ff" stroke="#63b8ff" points="1065.97,-86.77 1076.06,-83.54 1066.15,-79.77 1065.97,-86.77"/>
</a>
</g>
</g>
<!-- Node2&#45;&gt;Node7 -->
<g id="edge6_Node000002_Node000007" class="edge">
<title>Node2&#45;&gt;Node7</title>
<g id="a_edge6_Node000002_Node000007"><a xlink:title=" ">
<path fill="none" stroke="#63b8ff" d="M1066.31,-80.33C942.6,-73.04 713.81,-57.6 519.75,-33.5 517.12,-33.17 514.46,-32.83 511.77,-32.46"/>
<polygon fill="#63b8ff" stroke="#63b8ff" points="1065.88,-83.81 1076.07,-80.9 1066.29,-76.82 1065.88,-83.81"/>
</a>
</g>
</g>
<!-- Node2&#45;&gt;Node8 -->
<g id="edge7_Node000002_Node000008" class="edge">
<title>Node2&#45;&gt;Node8</title>
<g id="a_edge7_Node000002_Node000008"><a xlink:title=" ">
<path fill="none" stroke="#63b8ff" d="M1066.7,-75.12C1049.77,-73.24 1032.22,-71.3 1015.75,-69.5 865.57,-53.11 827.09,-56.29 677.75,-33.5 674.71,-33.04 671.61,-32.54 668.48,-32.01"/>
<polygon fill="#63b8ff" stroke="#63b8ff" points="1065.88,-78.55 1076.21,-76.18 1066.65,-71.59 1065.88,-78.55"/>
</a>
</g>
</g>
<!-- Node9 -->
<g id="Node000009" class="node">
<title>Node9</title>
<g id="a_Node000009"><a xlink:href="LLZKInliningExtensions_8cpp.html" target="_top" xlink:title=" ">
<polygon fill="white" stroke="#666666" points="1145.75,-33.5 997.75,-33.5 997.75,0 1145.75,0 1145.75,-33.5"/>
<text text-anchor="start" x="1005.75" y="-20" font-family="Helvetica,sans-Serif" font-size="10.00">lib/Transforms/LLZKInlining</text>
<text text-anchor="middle" x="1071.75" y="-7.25" font-family="Helvetica,sans-Serif" font-size="10.00">Extensions.cpp</text>
</a>
</g>
</g>
<!-- Node2&#45;&gt;Node9 -->
<g id="edge8_Node000002_Node000009" class="edge">
<title>Node2&#45;&gt;Node9</title>
<g id="a_edge8_Node000002_Node000009"><a xlink:title=" ">
<path fill="none" stroke="#63b8ff" d="M1127.61,-62.11C1115.9,-52.81 1102.68,-42.31 1092.04,-33.87"/>
<polygon fill="#63b8ff" stroke="#63b8ff" points="1125.41,-64.83 1135.42,-68.31 1129.77,-59.35 1125.41,-64.83"/>
</a>
</g>
</g>
<!-- Node2&#45;&gt;Node10 -->
<g id="edge9_Node000002_Node000010" class="edge">
<title>Node2&#45;&gt;Node10</title>
<g id="a_edge9_Node000002_Node000010"><a xlink:title=" ">
<path fill="none" stroke="#63b8ff" d="M1247.16,-76.64C1341.91,-67.3 1495.03,-51.32 1626.75,-33.5 1629.74,-33.1 1632.78,-32.67 1635.84,-32.24"/>
<polygon fill="#63b8ff" stroke="#63b8ff" points="1247.01,-73.14 1237.4,-77.6 1247.7,-80.11 1247.01,-73.14"/>
</a>
</g>
</g>
<!-- Node2&#45;&gt;Node11 -->
<g id="edge10_Node000002_Node000011" class="edge">
<title>Node2&#45;&gt;Node11</title>
<g id="a_edge10_Node000002_Node000011"><a xlink:title=" ">
<path fill="none" stroke="#63b8ff" d="M1247.24,-80.92C1375.61,-74.16 1617.77,-59.14 1822.75,-33.5 1825.61,-33.14 1828.52,-32.76 1831.46,-32.35"/>
<polygon fill="#63b8ff" stroke="#63b8ff" points="1247.25,-77.41 1237.45,-81.43 1247.61,-84.4 1247.25,-77.41"/>
</a>
</g>
</g>
<!-- Node2&#45;&gt;Node12 -->
<g id="edge11_Node000002_Node000012" class="edge">
<title>Node2&#45;&gt;Node12</title>
<g id="a_edge11_Node000002_Node000012"><a xlink:title=" ">
<path fill="none" stroke="#63b8ff" d="M1247.21,-82.51C1402.51,-77.2 1729.72,-63.27 2004.75,-33.5 2007.75,-33.18 2010.8,-32.82 2013.87,-32.45"/>
<polygon fill="#63b8ff" stroke="#63b8ff" points="1247.26,-79.01 1237.39,-82.85 1247.5,-86.01 1247.26,-79.01"/>
</a>
</g>
</g>
<!-- Node13 -->
<g id="Node000013" class="node">
<title>Node13</title>
<g id="a_Node000013"><a xlink:href="LLZKTransformationPassPipelines_8cpp.html" target="_top" xlink:title="This file implements logic for registering several pass pipelines.">
<polygon fill="white" stroke="#666666" points="1348.12,-33.5 1163.38,-33.5 1163.38,0 1348.12,0 1348.12,-33.5"/>
<text text-anchor="start" x="1171.38" y="-20" font-family="Helvetica,sans-Serif" font-size="10.00">lib/Transforms/LLZKTransformation</text>
<text text-anchor="middle" x="1255.75" y="-7.25" font-family="Helvetica,sans-Serif" font-size="10.00">PassPipelines.cpp</text>
</a>
</g>
</g>
<!-- Node2&#45;&gt;Node13 -->
<g id="edge12_Node000002_Node000013" class="edge">
<title>Node2&#45;&gt;Node13</title>
<g id="a_edge12_Node000002_Node000013"><a xlink:title=" ">
<path fill="none" stroke="#63b8ff" d="M1189.72,-62.77C1203.64,-53.28 1219.53,-42.45 1232.23,-33.79"/>
<polygon fill="#63b8ff" stroke="#63b8ff" points="1188,-59.7 1181.71,-68.23 1191.95,-65.49 1188,-59.7"/>
</a>
</g>
</g>
<!-- Node2&#45;&gt;Node14 -->
<g id="edge13_Node000002_Node000014" class="edge">
<title>Node2&#45;&gt;Node14</title>
<g id="a_edge13_Node000002_Node000014"><a xlink:title=" ">
<path fill="none" stroke="#63b8ff" d="M1247.42,-84.34C1429.67,-81.73 1853.23,-71.7 2206.75,-33.5 2209.63,-33.19 2212.55,-32.85 2215.5,-32.48"/>
<polygon fill="#63b8ff" stroke="#63b8ff" points="1247.49,-80.84 1237.54,-84.48 1247.59,-87.84 1247.49,-80.84"/>
</a>
</g>
</g>
<!-- Node15 -->
<g id="Node000015" class="node">
<title>Node15</title>
<g id="a_Node000015"><a xlink:href="llzk-opt_8cpp.html" target="_top" xlink:title="This file implements a version of the mlir&#45;opt tool configured for use on LLZK files.">
<polygon fill="white" stroke="#666666" points="1465.75,-33.5 1365.75,-33.5 1365.75,0 1465.75,0 1465.75,-33.5"/>
<text text-anchor="start" x="1373.75" y="-20" font-family="Helvetica,sans-Serif" font-size="10.00">tools/llzk&#45;opt/llzk</text>
<text text-anchor="middle" x="1415.75" y="-7.25" font-family="Helvetica,sans-Serif" font-size="10.00">&#45;opt.cpp</text>
</a>
</g>
</g>
<!-- Node2&#45;&gt;Node15 -->
<g id="edge14_Node000002_Node000015" class="edge">
<title>Node2&#45;&gt;Node15</title>
<g id="a_edge14_Node000002_Node000015"><a xlink:title=" ">
<path fill="none" stroke="#63b8ff" d="M1230.74,-66.25C1268.47,-56.52 1315.08,-44.45 1356.75,-33.5 1359.62,-32.75 1362.57,-31.97 1365.54,-31.18"/>
<polygon fill="#63b8ff" stroke="#63b8ff" points="1230.11,-62.8 1221.3,-68.68 1231.86,-69.58 1230.11,-62.8"/>
</a>
</g>
</g>
<!-- Node16 -->
<g id="Node000016" class="node">
<title>Node16</title>
<g id="a_Node000016"><a xlink:href="WitgenLowering_8cpp.html" target="_top" xlink:title=" ">
<polygon fill="white" stroke="#666666" points="1618,-33.5 1483.5,-33.5 1483.5,0 1618,0 1618,-33.5"/>
<text text-anchor="start" x="1491.5" y="-20" font-family="Helvetica,sans-Serif" font-size="10.00">tools/llzk&#45;witgen/Witgen</text>
<text text-anchor="middle" x="1550.75" y="-7.25" font-family="Helvetica,sans-Serif" font-size="10.00">Lowering.cpp</text>
</a>
</g>
</g>
<!-- Node2&#45;&gt;Node16 -->
<g id="edge15_Node000002_Node000016" class="edge">
<title>Node2&#45;&gt;Node16</title>
<g id="a_edge15_Node000002_Node000016"><a xlink:title=" ">
<path fill="none" stroke="#63b8ff" d="M1247.2,-71.59C1310.93,-61.71 1398.22,-47.65 1474.75,-33.5 1477.53,-32.99 1480.37,-32.45 1483.23,-31.9"/>
<polygon fill="#63b8ff" stroke="#63b8ff" points="1246.82,-68.11 1237.47,-73.09 1247.89,-75.03 1246.82,-68.11"/>
</a>
</g>
</g>
</g>
</svg>
