<?xml version="1.0" encoding="UTF-8" standalone="no"?>
<!DOCTYPE svg PUBLIC "-//W3C//DTD SVG 1.1//EN"
 "http://www.w3.org/Graphics/SVG/1.1/DTD/svg11.dtd">
<!-- Generated by graphviz version 12.2.1 (0)
 -->
<!-- Title: lib/Dialect/LLZK/IR/Attrs.cpp Pages: 1 -->
<svg width="2157pt" height="376pt"
 viewBox="0.00 0.00 2157.38 376.25" xmlns="http://www.w3.org/2000/svg" xmlns:xlink="http://www.w3.org/1999/xlink">
<g id="graph0" class="graph" transform="scale(1 1) rotate(0) translate(4 372.25)">
<title>lib/Dialect/LLZK/IR/Attrs.cpp</title>
<!-- Node1 -->
<g id="Node000001" class="node">
<title>Node1</title>
<g id="a_Node000001"><a xlink:title=" ">
<polygon fill="#999999" stroke="#666666" points="1413.62,-368.25 1308.38,-368.25 1308.38,-334.75 1413.62,-334.75 1413.62,-368.25"/>
<text text-anchor="start" x="1316.38" y="-354.75" font-family="Helvetica,sans-Serif" font-size="10.00">lib/Dialect/LLZK/IR</text>
<text text-anchor="middle" x="1361" y="-342" font-family="Helvetica,sans-Serif" font-size="10.00">/Attrs.cpp</text>
</a>
</g>
</g>
<!-- Node2 -->
<g id="Node000002" class="node">
<title>Node2</title>
<g id="a_Node000002"><a xlink:href="LLZK_2IR_2Attrs_8h.html" target="_top" xlink:title=" ">
<polygon fill="white" stroke="#666666" points="753.25,-298.75 642.75,-298.75 642.75,-265.25 753.25,-265.25 753.25,-298.75"/>
<text text-anchor="start" x="650.75" y="-285.25" font-family="Helvetica,sans-Serif" font-size="10.00">llzk/Dialect/LLZK/IR</text>
<text text-anchor="middle" x="698" y="-272.5" font-family="Helvetica,sans-Serif" font-size="10.00">/Attrs.h</text>
</a>
</g>
</g>
<!-- Node1&#45;&gt;Node2 -->
<g id="edge1_Node000001_Node000002" class="edge">
<title>Node1&#45;&gt;Node2</title>
<g id="a_edge1_Node000001_Node000002"><a xlink:title=" ">
<path fill="none" stroke="#63b8ff" d="M1308.14,-345.12C1188.31,-332.92 896.19,-303.18 764.42,-289.76"/>
<polygon fill="#63b8ff" stroke="#63b8ff" points="765.12,-286.32 754.82,-288.78 764.41,-293.28 765.12,-286.32"/>
</a>
</g>
</g>
<!-- Node10 -->
<g id="Node000010" class="node">
<title>Node10</title>
<g id="a_Node000010"><a xlink:href="Struct_2IR_2Types_8h.html" target="_top" xlink:title=" ">
<polygon fill="white" stroke="#666666" points="1213.12,-229.25 1110.88,-229.25 1110.88,-195.75 1213.12,-195.75 1213.12,-229.25"/>
<text text-anchor="start" x="1118.88" y="-215.75" font-family="Helvetica,sans-Serif" font-size="10.00">llzk/Dialect/Struct</text>
<text text-anchor="middle" x="1162" y="-203" font-family="Helvetica,sans-Serif" font-size="10.00">/IR/Types.h</text>
</a>
</g>
</g>
<!-- Node1&#45;&gt;Node10 -->
<g id="edge41_Node000001_Node000010" class="edge">
<title>Node1&#45;&gt;Node10</title>
<g id="a_edge41_Node000001_Node000010"><a xlink:title=" ">
<path fill="none" stroke="#63b8ff" d="M1337.78,-334.52C1302.45,-310.19 1235.06,-263.79 1194.76,-236.05"/>
<polygon fill="#63b8ff" stroke="#63b8ff" points="1196.85,-233.24 1186.62,-230.45 1192.88,-239.01 1196.85,-233.24"/>
</a>
</g>
</g>
<!-- Node15 -->
<g id="Node000015" class="node">
<title>Node15</title>
<g id="a_Node000015"><a xlink:href="llzk_2Util_2Constants_8h.html" target="_top" xlink:title=" ">
<polygon fill="white" stroke="#666666" points="1251.12,-83.88 1136.88,-83.88 1136.88,-63.12 1251.12,-63.12 1251.12,-83.88"/>
<text text-anchor="middle" x="1194" y="-70.38" font-family="Helvetica,sans-Serif" font-size="10.00">llzk/Util/Constants.h</text>
</a>
</g>
</g>
<!-- Node1&#45;&gt;Node15 -->
<g id="edge42_Node000001_Node000015" class="edge">
<title>Node1&#45;&gt;Node15</title>
<g id="a_edge42_Node000001_Node000015"><a xlink:title=" ">
<path fill="none" stroke="#63b8ff" d="M1365.01,-334.3C1373.9,-294.24 1390.84,-189.24 1342,-126.25 1335.39,-117.73 1280.25,-99.93 1239.2,-87.6"/>
<polygon fill="#63b8ff" stroke="#63b8ff" points="1240.34,-84.29 1229.76,-84.79 1238.35,-91 1240.34,-84.29"/>
</a>
</g>
</g>
<!-- Node22 -->
<g id="Node000022" class="node">
<title>Node22</title>
<g id="a_Node000022"><a xlink:href="TypeHelper_8h.html" target="_top" xlink:title=" ">
<polygon fill="white" stroke="#666666" points="1607.75,-153.38 1488.25,-153.38 1488.25,-132.62 1607.75,-132.62 1607.75,-153.38"/>
<text text-anchor="middle" x="1548" y="-139.88" font-family="Helvetica,sans-Serif" font-size="10.00">llzk/Util/TypeHelper.h</text>
</a>
</g>
</g>
<!-- Node1&#45;&gt;Node22 -->
<g id="edge43_Node000001_Node000022" class="edge">
<title>Node1&#45;&gt;Node22</title>
<g id="a_edge43_Node000001_Node000022"><a xlink:title=" ">
<path fill="none" stroke="#63b8ff" d="M1370.27,-334.32C1380.79,-316.57 1398.97,-287.63 1418,-265.25 1452.7,-224.45 1500.09,-183.25 1527.03,-160.94"/>
<polygon fill="#63b8ff" stroke="#63b8ff" points="1528.96,-163.87 1534.47,-154.83 1524.52,-158.46 1528.96,-163.87"/>
</a>
</g>
</g>
<!-- Node35 -->
<g id="Node000035" class="node">
<title>Node35</title>
<g id="a_Node000035"><a xlink:title=" ">
<polygon fill="#e0e0e0" stroke="#999999" points="1566.88,-292.38 1427.12,-292.38 1427.12,-271.62 1566.88,-271.62 1566.88,-292.38"/>
<text text-anchor="middle" x="1497" y="-278.88" font-family="Helvetica,sans-Serif" font-size="10.00">mlir/IR/BuiltinAttributes.h</text>
</a>
</g>
</g>
<!-- Node1&#45;&gt;Node35 -->
<g id="edge44_Node000001_Node000035" class="edge">
<title>Node1&#45;&gt;Node35</title>
<g id="a_edge44_Node000001_Node000035"><a xlink:title=" ">
<path fill="none" stroke="#63b8ff" d="M1393.58,-334.33C1415.89,-323.25 1445.28,-308.67 1467.02,-297.88"/>
<polygon fill="#63b8ff" stroke="#63b8ff" points="1468.56,-301.02 1475.96,-293.44 1465.44,-294.75 1468.56,-301.02"/>
</a>
</g>
</g>
<!-- Node3 -->
<g id="Node000003" class="node">
<title>Node3</title>
<g id="a_Node000003"><a xlink:href="AttributeHelper_8h.html" target="_top" xlink:title=" ">
<polygon fill="white" stroke="#666666" points="457.25,-229.25 346.75,-229.25 346.75,-195.75 457.25,-195.75 457.25,-229.25"/>
<text text-anchor="start" x="354.75" y="-215.75" font-family="Helvetica,sans-Serif" font-size="10.00">llzk/Dialect/LLZK/IR</text>
<text text-anchor="middle" x="402" y="-203" font-family="Helvetica,sans-Serif" font-size="10.00">/AttributeHelper.h</text>
</a>
</g>
</g>
<!-- Node2&#45;&gt;Node3 -->
<g id="edge2_Node000002_Node000003" class="edge">
<title>Node2&#45;&gt;Node3</title>
<g id="a_edge2_Node000002_Node000003"><a xlink:title=" ">
<path fill="none" stroke="#63b8ff" d="M642.61,-269C598.04,-259.26 533.51,-244.99 468.37,-229.78"/>
<polygon fill="#63b8ff" stroke="#63b8ff" points="469.49,-226.45 458.96,-227.58 467.9,-233.27 469.49,-226.45"/>
</a>
</g>
</g>
<!-- Node2&#45;&gt;Node10 -->
<g id="edge9_Node000002_Node000010" class="edge">
<title>Node2&#45;&gt;Node10</title>
<g id="a_edge9_Node000002_Node000010"><a xlink:title=" ">
<path fill="none" stroke="#63b8ff" d="M753.51,-272.92C840.48,-260.27 1008.3,-235.86 1099.43,-222.6"/>
<polygon fill="#63b8ff" stroke="#63b8ff" points="1099.8,-226.09 1109.19,-221.18 1098.79,-219.16 1099.8,-226.09"/>
</a>
</g>
</g>
<!-- Node12 -->
<g id="Node000012" class="node">
<title>Node12</title>
<g id="a_Node000012"><a xlink:title=" ">
<polygon fill="#e0e0e0" stroke="#999999" points="714.25,-83.88 603.75,-83.88 603.75,-63.12 714.25,-63.12 714.25,-83.88"/>
<text text-anchor="middle" x="659" y="-70.38" font-family="Helvetica,sans-Serif" font-size="10.00">mlir/IR/BuiltinOps.h</text>
</a>
</g>
</g>
<!-- Node2&#45;&gt;Node12 -->
<g id="edge39_Node000002_Node000012" class="edge">
<title>Node2&#45;&gt;Node12</title>
<g id="a_edge39_Node000002_Node000012"><a xlink:title=" ">
<path fill="none" stroke="#63b8ff" d="M706.9,-264.77C711.83,-254.84 717.47,-241.69 720,-229.25 722.97,-214.66 723.44,-210.24 720,-195.75 710.8,-156.98 687.14,-116.52 672.13,-93.53"/>
<polygon fill="#63b8ff" stroke="#63b8ff" points="675.24,-91.88 666.77,-85.51 669.42,-95.77 675.24,-91.88"/>
</a>
</g>
</g>
<!-- Node33 -->
<g id="Node000033" class="node">
<title>Node33</title>
<g id="a_Node000033"><a xlink:title=" ">
<polygon fill="#e0e0e0" stroke="#999999" points="583.12,-222.88 474.88,-222.88 474.88,-202.12 583.12,-202.12 583.12,-222.88"/>
<text text-anchor="middle" x="529" y="-209.38" font-family="Helvetica,sans-Serif" font-size="10.00">mlir/IR/Attributes.h</text>
</a>
</g>
</g>
<!-- Node2&#45;&gt;Node33 -->
<g id="edge38_Node000002_Node000033" class="edge">
<title>Node2&#45;&gt;Node33</title>
<g id="a_edge38_Node000002_Node000033"><a xlink:title=" ">
<path fill="none" stroke="#63b8ff" d="M657.52,-264.83C629.03,-253.45 591.27,-238.37 564.06,-227.5"/>
<polygon fill="#63b8ff" stroke="#63b8ff" points="565.45,-224.29 554.87,-223.83 562.86,-230.79 565.45,-224.29"/>
</a>
</g>
</g>
<!-- Node34 -->
<g id="Node000034" class="node">
<title>Node34</title>
<g id="a_Node000034"><a xlink:href="LLZK_2IR_2Attrs_8h_8inc.html" target="_top" xlink:title=" ">
<polygon fill="white" stroke="#666666" points="711.25,-229.25 600.75,-229.25 600.75,-195.75 711.25,-195.75 711.25,-229.25"/>
<text text-anchor="start" x="608.75" y="-215.75" font-family="Helvetica,sans-Serif" font-size="10.00">llzk/Dialect/LLZK/IR</text>
<text text-anchor="middle" x="656" y="-203" font-family="Helvetica,sans-Serif" font-size="10.00">/Attrs.h.inc</text>
</a>
</g>
</g>
<!-- Node2&#45;&gt;Node34 -->
<g id="edge40_Node000002_Node000034" class="edge">
<title>Node2&#45;&gt;Node34</title>
<g id="a_edge40_Node000002_Node000034"><a xlink:title=" ">
<path fill="none" stroke="#63b8ff" d="M688.05,-265C683.23,-257.27 677.34,-247.8 671.93,-239.09"/>
<polygon fill="#63b8ff" stroke="#63b8ff" points="674.94,-237.31 666.68,-230.67 668.99,-241.01 674.94,-237.31"/>
</a>
</g>
</g>
<!-- Node4 -->
<g id="Node000004" class="node">
<title>Node4</title>
<g id="a_Node000004"><a xlink:href="StreamHelper_8h.html" target="_top" xlink:title=" ">
<polygon fill="white" stroke="#666666" points="143.12,-153.38 10.88,-153.38 10.88,-132.62 143.12,-132.62 143.12,-153.38"/>
<text text-anchor="middle" x="77" y="-139.88" font-family="Helvetica,sans-Serif" font-size="10.00">llzk/Util/StreamHelper.h</text>
</a>
</g>
</g>
<!-- Node3&#45;&gt;Node4 -->
<g id="edge3_Node000003_Node000004" class="edge">
<title>Node3&#45;&gt;Node4</title>
<g id="a_edge3_Node000003_Node000004"><a xlink:title=" ">
<path fill="none" stroke="#63b8ff" d="M346.5,-199.97C287.74,-187.77 195.38,-168.59 135.5,-156.15"/>
<polygon fill="#63b8ff" stroke="#63b8ff" points="136.33,-152.75 125.83,-154.14 134.91,-159.6 136.33,-152.75"/>
</a>
</g>
</g>
<!-- Node6 -->
<g id="Node000006" class="node">
<title>Node6</title>
<g id="a_Node000006"><a xlink:title=" ">
<polygon fill="#e0e0e0" stroke="#999999" points="334.38,-153.38 161.62,-153.38 161.62,-132.62 334.38,-132.62 334.38,-153.38"/>
<text text-anchor="middle" x="248" y="-139.88" font-family="Helvetica,sans-Serif" font-size="10.00">mlir/IR/DialectImplementation.h</text>
</a>
</g>
</g>
<!-- Node3&#45;&gt;Node6 -->
<g id="edge5_Node000003_Node000006" class="edge">
<title>Node3&#45;&gt;Node6</title>
<g id="a_edge5_Node000003_Node000006"><a xlink:title=" ">
<path fill="none" stroke="#63b8ff" d="M365.11,-195.33C339.38,-184.05 305.35,-169.14 280.61,-158.29"/>
<polygon fill="#63b8ff" stroke="#63b8ff" points="282.24,-155.19 271.68,-154.38 279.43,-161.6 282.24,-155.19"/>
</a>
</g>
</g>
<!-- Node7 -->
<g id="Node000007" class="node">
<title>Node7</title>
<g id="a_Node000007"><a xlink:title=" ">
<polygon fill="#e0e0e0" stroke="#999999" points="451.25,-153.38 352.75,-153.38 352.75,-132.62 451.25,-132.62 451.25,-153.38"/>
<text text-anchor="middle" x="402" y="-139.88" font-family="Helvetica,sans-Serif" font-size="10.00">llvm/ADT/APInt.h</text>
</a>
</g>
</g>
<!-- Node3&#45;&gt;Node7 -->
<g id="edge6_Node000003_Node000007" class="edge">
<title>Node3&#45;&gt;Node7</title>
<g id="a_edge6_Node000003_Node000007"><a xlink:title=" ">
<path fill="none" stroke="#63b8ff" d="M402,-195.5C402,-186.4 402,-174.89 402,-165.07"/>
<polygon fill="#63b8ff" stroke="#63b8ff" points="405.5,-165.34 402,-155.34 398.5,-165.34 405.5,-165.34"/>
</a>
</g>
</g>
<!-- Node8 -->
<g id="Node000008" class="node">
<title>Node8</title>
<g id="a_Node000008"><a xlink:title=" ">
<polygon fill="#e0e0e0" stroke="#999999" points="582.38,-153.38 469.62,-153.38 469.62,-132.62 582.38,-132.62 582.38,-153.38"/>
<text text-anchor="middle" x="526" y="-139.88" font-family="Helvetica,sans-Serif" font-size="10.00">llvm/ADT/Hashing.h</text>
</a>
</g>
</g>
<!-- Node3&#45;&gt;Node8 -->
<g id="edge7_Node000003_Node000008" class="edge">
<title>Node3&#45;&gt;Node8</title>
<g id="a_edge7_Node000003_Node000008"><a xlink:title=" ">
<path fill="none" stroke="#63b8ff" d="M431.7,-195.33C451.86,-184.36 478.35,-169.94 498.12,-159.18"/>
<polygon fill="#63b8ff" stroke="#63b8ff" points="499.61,-162.35 506.72,-154.49 496.26,-156.2 499.61,-162.35"/>
</a>
</g>
</g>
<!-- Node9 -->
<g id="Node000009" class="node">
<title>Node9</title>
<g id="a_Node000009"><a xlink:title=" ">
<polygon fill="#e0e0e0" stroke="#999999" points="645.25,-153.38 600.75,-153.38 600.75,-132.62 645.25,-132.62 645.25,-153.38"/>
<text text-anchor="middle" x="623" y="-139.88" font-family="Helvetica,sans-Serif" font-size="10.00">utility</text>
</a>
</g>
</g>
<!-- Node3&#45;&gt;Node9 -->
<g id="edge8_Node000003_Node000009" class="edge">
<title>Node3&#45;&gt;Node9</title>
<g id="a_edge8_Node000003_Node000009"><a xlink:title=" ">
<path fill="none" stroke="#63b8ff" d="M457.35,-197.59C503.91,-185.66 566.66,-168.97 591,-159.75 592.13,-159.32 593.27,-158.87 594.42,-158.39"/>
<polygon fill="#63b8ff" stroke="#63b8ff" points="595.6,-161.7 603.27,-154.39 592.72,-155.32 595.6,-161.7"/>
</a>
</g>
</g>
<!-- Node5 -->
<g id="Node000005" class="node">
<title>Node5</title>
<g id="a_Node000005"><a xlink:title=" ">
<polygon fill="#e0e0e0" stroke="#999999" points="154,-83.88 0,-83.88 0,-63.12 154,-63.12 154,-83.88"/>
<text text-anchor="middle" x="77" y="-70.38" font-family="Helvetica,sans-Serif" font-size="10.00">llvm/Support/raw_ostream.h</text>
</a>
</g>
</g>
<!-- Node4&#45;&gt;Node5 -->
<g id="edge4_Node000004_Node000005" class="edge">
<title>Node4&#45;&gt;Node5</title>
<g id="a_edge4_Node000004_Node000005"><a xlink:title=" ">
<path fill="none" stroke="#63b8ff" d="M77,-132.33C77,-122.71 77,-107.63 77,-95.29"/>
<polygon fill="#63b8ff" stroke="#63b8ff" points="80.5,-95.67 77,-85.67 73.5,-95.67 80.5,-95.67"/>
</a>
</g>
</g>
<!-- Node11 -->
<g id="Node000011" class="node">
<title>Node11</title>
<g id="a_Node000011"><a xlink:href="Struct_2IR_2Dialect_8h.html" target="_top" xlink:title=" ">
<polygon fill="white" stroke="#666666" points="869.12,-159.75 766.88,-159.75 766.88,-126.25 869.12,-126.25 869.12,-159.75"/>
<text text-anchor="start" x="774.88" y="-146.25" font-family="Helvetica,sans-Serif" font-size="10.00">llzk/Dialect/Struct</text>
<text text-anchor="middle" x="818" y="-133.5" font-family="Helvetica,sans-Serif" font-size="10.00">/IR/Dialect.h</text>
</a>
</g>
</g>
<!-- Node10&#45;&gt;Node11 -->
<g id="edge10_Node000010_Node000011" class="edge">
<title>Node10&#45;&gt;Node11</title>
<g id="a_edge10_Node000010_Node000011"><a xlink:title=" ">
<path fill="none" stroke="#63b8ff" d="M1110.5,-201.39C1049.11,-189.35 946.55,-169.22 880.63,-156.29"/>
<polygon fill="#63b8ff" stroke="#63b8ff" points="881.54,-152.9 871.06,-154.41 880.19,-159.77 881.54,-152.9"/>
</a>
</g>
</g>
<!-- Node14 -->
<g id="Node000014" class="node">
<title>Node14</title>
<g id="a_Node000014"><a xlink:href="SymbolLookup_8h.html" target="_top" xlink:title="This file defines methods symbol lookup across LLZK operations and included files.">
<polygon fill="white" stroke="#666666" points="1092.38,-153.38 955.62,-153.38 955.62,-132.62 1092.38,-132.62 1092.38,-153.38"/>
<text text-anchor="middle" x="1024" y="-139.88" font-family="Helvetica,sans-Serif" font-size="10.00">llzk/Util/SymbolLookup.h</text>
</a>
</g>
</g>
<!-- Node10&#45;&gt;Node14 -->
<g id="edge13_Node000010_Node000014" class="edge">
<title>Node10&#45;&gt;Node14</title>
<g id="a_edge13_Node000010_Node000014"><a xlink:title=" ">
<path fill="none" stroke="#63b8ff" d="M1128.95,-195.33C1106.2,-184.2 1076.21,-169.54 1054.12,-158.73"/>
<polygon fill="#63b8ff" stroke="#63b8ff" points="1055.86,-155.69 1045.34,-154.44 1052.78,-161.97 1055.86,-155.69"/>
</a>
</g>
</g>
<!-- Node10&#45;&gt;Node22 -->
<g id="edge22_Node000010_Node000022" class="edge">
<title>Node10&#45;&gt;Node22</title>
<g id="a_edge22_Node000010_Node000022"><a xlink:title=" ">
<path fill="none" stroke="#63b8ff" d="M1213.26,-202.54C1282.16,-190.49 1404.77,-169.05 1480.94,-155.73"/>
<polygon fill="#63b8ff" stroke="#63b8ff" points="1481.09,-159.25 1490.34,-154.08 1479.89,-152.36 1481.09,-159.25"/>
</a>
</g>
</g>
<!-- Node31 -->
<g id="Node000031" class="node">
<title>Node31</title>
<g id="a_Node000031"><a xlink:href="Struct_2IR_2Ops_8h_8inc.html" target="_top" xlink:title=" ">
<polygon fill="white" stroke="#666666" points="1213.12,-159.75 1110.88,-159.75 1110.88,-126.25 1213.12,-126.25 1213.12,-159.75"/>
<text text-anchor="start" x="1118.88" y="-146.25" font-family="Helvetica,sans-Serif" font-size="10.00">llzk/Dialect/Struct</text>
<text text-anchor="middle" x="1162" y="-133.5" font-family="Helvetica,sans-Serif" font-size="10.00">/IR/Ops.h.inc</text>
</a>
</g>
</g>
<!-- Node10&#45;&gt;Node31 -->
<g id="edge36_Node000010_Node000031" class="edge">
<title>Node10&#45;&gt;Node31</title>
<g id="a_edge36_Node000010_Node000031"><a xlink:title=" ">
<path fill="none" stroke="#63b8ff" d="M1162,-195.5C1162,-188.27 1162,-179.53 1162,-171.31"/>
<polygon fill="#63b8ff" stroke="#63b8ff" points="1165.5,-171.4 1162,-161.4 1158.5,-171.4 1165.5,-171.4"/>
</a>
</g>
</g>
<!-- Node32 -->
<g id="Node000032" class="node">
<title>Node32</title>
<g id="a_Node000032"><a xlink:href="Struct_2IR_2Types_8h_8inc.html" target="_top" xlink:title=" ">
<polygon fill="white" stroke="#666666" points="1333.12,-159.75 1230.88,-159.75 1230.88,-126.25 1333.12,-126.25 1333.12,-159.75"/>
<text text-anchor="start" x="1238.88" y="-146.25" font-family="Helvetica,sans-Serif" font-size="10.00">llzk/Dialect/Struct</text>
<text text-anchor="middle" x="1282" y="-133.5" font-family="Helvetica,sans-Serif" font-size="10.00">/IR/Types.h.inc</text>
</a>
</g>
</g>
<!-- Node10&#45;&gt;Node32 -->
<g id="edge37_Node000010_Node000032" class="edge">
<title>Node10&#45;&gt;Node32</title>
<g id="a_edge37_Node000010_Node000032"><a xlink:title=" ">
<path fill="none" stroke="#63b8ff" d="M1190.74,-195.33C1206.62,-186.4 1226.56,-175.19 1243.74,-165.52"/>
<polygon fill="#63b8ff" stroke="#63b8ff" points="1245.17,-168.73 1252.17,-160.78 1241.74,-162.63 1245.17,-168.73"/>
</a>
</g>
</g>
<!-- Node11&#45;&gt;Node12 -->
<g id="edge11_Node000011_Node000012" class="edge">
<title>Node11&#45;&gt;Node12</title>
<g id="a_edge11_Node000011_Node000012"><a xlink:title=" ">
<path fill="none" stroke="#63b8ff" d="M779.92,-125.83C753.23,-114.5 717.9,-99.5 692.33,-88.65"/>
<polygon fill="#63b8ff" stroke="#63b8ff" points="693.98,-85.55 683.41,-84.86 691.25,-91.99 693.98,-85.55"/>
</a>
</g>
</g>
<!-- Node13 -->
<g id="Node000013" class="node">
<title>Node13</title>
<g id="a_Node000013"><a xlink:href="Struct_2IR_2Dialect_8h_8inc.html" target="_top" xlink:title=" ">
<polygon fill="white" stroke="#666666" points="834.12,-90.25 731.88,-90.25 731.88,-56.75 834.12,-56.75 834.12,-90.25"/>
<text text-anchor="start" x="739.88" y="-76.75" font-family="Helvetica,sans-Serif" font-size="10.00">llzk/Dialect/Struct</text>
<text text-anchor="middle" x="783" y="-64" font-family="Helvetica,sans-Serif" font-size="10.00">/IR/Dialect.h.inc</text>
</a>
</g>
</g>
<!-- Node11&#45;&gt;Node13 -->
<g id="edge12_Node000011_Node000013" class="edge">
<title>Node11&#45;&gt;Node13</title>
<g id="a_edge12_Node000011_Node000013"><a xlink:title=" ">
<path fill="none" stroke="#63b8ff" d="M809.71,-126C805.74,-118.35 800.89,-109 796.42,-100.38"/>
<polygon fill="#63b8ff" stroke="#63b8ff" points="799.64,-98.99 791.93,-91.73 793.43,-102.21 799.64,-98.99"/>
</a>
</g>
</g>
<!-- Node14&#45;&gt;Node12 -->
<g id="edge15_Node000014_Node000012" class="edge">
<title>Node14&#45;&gt;Node12</title>
<g id="a_edge15_Node000014_Node000012"><a xlink:title=" ">
<path fill="none" stroke="#63b8ff" d="M958.87,-132.17C897.73,-122.62 803.84,-107.12 723,-90.25 718.14,-89.24 713.1,-88.11 708.06,-86.95"/>
<polygon fill="#63b8ff" stroke="#63b8ff" points="709.15,-83.61 698.61,-84.71 707.53,-90.42 709.15,-83.61"/>
</a>
</g>
</g>
<!-- Node14&#45;&gt;Node15 -->
<g id="edge14_Node000014_Node000015" class="edge">
<title>Node14&#45;&gt;Node15</title>
<g id="a_edge14_Node000014_Node000015"><a xlink:title=" ">
<path fill="none" stroke="#63b8ff" d="M1048.72,-132.18C1077.68,-120.69 1125.86,-101.55 1158.74,-88.5"/>
<polygon fill="#63b8ff" stroke="#63b8ff" points="1159.84,-91.83 1167.84,-84.89 1157.26,-85.32 1159.84,-91.83"/>
</a>
</g>
</g>
<!-- Node16 -->
<g id="Node000016" class="node">
<title>Node16</title>
<g id="a_Node000016"><a xlink:title=" ">
<polygon fill="#e0e0e0" stroke="#999999" points="1420.12,-20.75 1311.88,-20.75 1311.88,0 1420.12,0 1420.12,-20.75"/>
<text text-anchor="middle" x="1366" y="-7.25" font-family="Helvetica,sans-Serif" font-size="10.00">mlir/IR/Operation.h</text>
</a>
</g>
</g>
<!-- Node14&#45;&gt;Node16 -->
<g id="edge16_Node000014_Node000016" class="edge">
<title>Node14&#45;&gt;Node16</title>
<g id="a_edge16_Node000014_Node000016"><a xlink:title=" ">
<path fill="none" stroke="#63b8ff" d="M1036.83,-132.29C1050.25,-122.05 1071.86,-105.33 1090,-90.25 1107.31,-75.85 1107.78,-66.65 1128,-56.75 1182.32,-30.14 1250.71,-19.11 1300.22,-14.55"/>
<polygon fill="#63b8ff" stroke="#63b8ff" points="1300.26,-18.06 1309.93,-13.73 1299.67,-11.08 1300.26,-18.06"/>
</a>
</g>
</g>
<!-- Node17 -->
<g id="Node000017" class="node">
<title>Node17</title>
<g id="a_Node000017"><a xlink:title=" ">
<polygon fill="#e0e0e0" stroke="#999999" points="1016.12,-83.88 889.88,-83.88 889.88,-63.12 1016.12,-63.12 1016.12,-83.88"/>
<text text-anchor="middle" x="953" y="-70.38" font-family="Helvetica,sans-Serif" font-size="10.00">mlir/IR/OwningOpRef.h</text>
</a>
</g>
</g>
<!-- Node14&#45;&gt;Node17 -->
<g id="edge17_Node000014_Node000017" class="edge">
<title>Node14&#45;&gt;Node17</title>
<g id="a_edge17_Node000014_Node000017"><a xlink:title=" ">
<path fill="none" stroke="#63b8ff" d="M1013.83,-132.33C1002.76,-121.8 984.83,-104.76 971.29,-91.89"/>
<polygon fill="#63b8ff" stroke="#63b8ff" points="973.91,-89.55 964.25,-85.2 969.09,-94.62 973.91,-89.55"/>
</a>
</g>
</g>
<!-- Node18 -->
<g id="Node000018" class="node">
<title>Node18</title>
<g id="a_Node000018"><a xlink:title=" ">
<polygon fill="#e0e0e0" stroke="#999999" points="1519.5,-83.88 1404.5,-83.88 1404.5,-63.12 1519.5,-63.12 1519.5,-83.88"/>
<text text-anchor="middle" x="1462" y="-70.38" font-family="Helvetica,sans-Serif" font-size="10.00">llvm/ADT/ArrayRef.h</text>
</a>
</g>
</g>
<!-- Node14&#45;&gt;Node18 -->
<g id="edge18_Node000014_Node000018" class="edge">
<title>Node14&#45;&gt;Node18</title>
<g id="a_edge18_Node000014_Node000018"><a xlink:title=" ">
<path fill="none" stroke="#63b8ff" d="M1069.67,-132.16C1080.26,-130.05 1091.5,-127.95 1102,-126.25 1231.95,-105.21 1266.44,-113.57 1396,-90.25 1401.58,-89.25 1407.4,-88.06 1413.16,-86.8"/>
<polygon fill="#63b8ff" stroke="#63b8ff" points="1413.66,-90.28 1422.64,-84.65 1412.11,-83.45 1413.66,-90.28"/>
</a>
</g>
</g>
<!-- Node19 -->
<g id="Node000019" class="node">
<title>Node19</title>
<g id="a_Node000019"><a xlink:title=" ">
<polygon fill="#e0e0e0" stroke="#999999" points="1386.62,-83.88 1269.38,-83.88 1269.38,-63.12 1386.62,-63.12 1386.62,-83.88"/>
<text text-anchor="middle" x="1328" y="-70.38" font-family="Helvetica,sans-Serif" font-size="10.00">llvm/ADT/StringRef.h</text>
</a>
</g>
</g>
<!-- Node14&#45;&gt;Node19 -->
<g id="edge19_Node000014_Node000019" class="edge">
<title>Node14&#45;&gt;Node19</title>
<g id="a_edge19_Node000014_Node000019"><a xlink:title=" ">
<path fill="none" stroke="#63b8ff" d="M1069.72,-132.14C1117.29,-121.84 1193.92,-105.15 1260,-90.25 1264.85,-89.16 1269.9,-88.01 1274.95,-86.85"/>
<polygon fill="#63b8ff" stroke="#63b8ff" points="1275.5,-90.31 1284.46,-84.66 1273.93,-83.49 1275.5,-90.31"/>
</a>
</g>
</g>
<!-- Node20 -->
<g id="Node000020" class="node">
<title>Node20</title>
<g id="a_Node000020"><a xlink:title=" ">
<polygon fill="#e0e0e0" stroke="#999999" points="1091.25,-20.75 1040.75,-20.75 1040.75,0 1091.25,0 1091.25,-20.75"/>
<text text-anchor="middle" x="1066" y="-7.25" font-family="Helvetica,sans-Serif" font-size="10.00">variant</text>
</a>
</g>
</g>
<!-- Node14&#45;&gt;Node20 -->
<g id="edge20_Node000014_Node000020" class="edge">
<title>Node14&#45;&gt;Node20</title>
<g id="a_edge20_Node000014_Node000020"><a xlink:title=" ">
<path fill="none" stroke="#63b8ff" d="M973.83,-132.14C921.56,-119.58 851.12,-94.84 881,-56.75 899.05,-33.73 980.51,-20.86 1029.11,-15.1"/>
<polygon fill="#63b8ff" stroke="#63b8ff" points="1029.36,-18.59 1038.9,-13.99 1028.57,-11.64 1029.36,-18.59"/>
</a>
</g>
</g>
<!-- Node21 -->
<g id="Node000021" class="node">
<title>Node21</title>
<g id="a_Node000021"><a xlink:title=" ">
<polygon fill="#e0e0e0" stroke="#999999" points="1081.38,-83.88 1034.62,-83.88 1034.62,-63.12 1081.38,-63.12 1081.38,-83.88"/>
<text text-anchor="middle" x="1058" y="-70.38" font-family="Helvetica,sans-Serif" font-size="10.00">vector</text>
</a>
</g>
</g>
<!-- Node14&#45;&gt;Node21 -->
<g id="edge21_Node000014_Node000021" class="edge">
<title>Node14&#45;&gt;Node21</title>
<g id="a_edge21_Node000014_Node000021"><a xlink:title=" ">
<path fill="none" stroke="#63b8ff" d="M1028.87,-132.33C1033.87,-122.4 1041.79,-106.68 1048.11,-94.14"/>
<polygon fill="#63b8ff" stroke="#63b8ff" points="1051.08,-96.01 1052.46,-85.5 1044.83,-92.86 1051.08,-96.01"/>
</a>
</g>
</g>
<!-- Node22&#45;&gt;Node16 -->
<g id="edge31_Node000022_Node000016" class="edge">
<title>Node22&#45;&gt;Node16</title>
<g id="a_edge31_Node000022_Node000016"><a xlink:title=" ">
<path fill="none" stroke="#63b8ff" d="M1548.8,-132.37C1549.7,-114.87 1548.94,-77.76 1529,-56.75 1515.35,-42.37 1470.77,-30.54 1431.68,-22.57"/>
<polygon fill="#63b8ff" stroke="#63b8ff" points="1432.54,-19.17 1422.05,-20.66 1431.18,-26.04 1432.54,-19.17"/>
</a>
</g>
</g>
<!-- Node22&#45;&gt;Node18 -->
<g id="edge33_Node000022_Node000018" class="edge">
<title>Node22&#45;&gt;Node18</title>
<g id="a_edge33_Node000022_Node000018"><a xlink:title=" ">
<path fill="none" stroke="#63b8ff" d="M1535.68,-132.33C1522.09,-121.66 1499.97,-104.3 1483.51,-91.38"/>
<polygon fill="#63b8ff" stroke="#63b8ff" points="1485.8,-88.73 1475.77,-85.31 1481.47,-94.23 1485.8,-88.73"/>
</a>
</g>
</g>
<!-- Node22&#45;&gt;Node19 -->
<g id="edge35_Node000022_Node000019" class="edge">
<title>Node22&#45;&gt;Node19</title>
<g id="a_edge35_Node000022_Node000019"><a xlink:title=" ">
<path fill="none" stroke="#63b8ff" d="M1516.01,-132.18C1477.72,-120.44 1413.45,-100.72 1370.89,-87.66"/>
<polygon fill="#63b8ff" stroke="#63b8ff" points="1372.06,-84.36 1361.48,-84.77 1370.01,-91.05 1372.06,-84.36"/>
</a>
</g>
</g>
<!-- Node23 -->
<g id="Node000023" class="node">
<title>Node23</title>
<g id="a_Node000023"><a xlink:href="ErrorHelper_8h.html" target="_top" xlink:title=" ">
<polygon fill="white" stroke="#666666" points="1696.12,-83.88 1575.88,-83.88 1575.88,-63.12 1696.12,-63.12 1696.12,-83.88"/>
<text text-anchor="middle" x="1636" y="-70.38" font-family="Helvetica,sans-Serif" font-size="10.00">llzk/Util/ErrorHelper.h</text>
</a>
</g>
</g>
<!-- Node22&#45;&gt;Node23 -->
<g id="edge23_Node000022_Node000023" class="edge">
<title>Node22&#45;&gt;Node23</title>
<g id="a_edge23_Node000022_Node000023"><a xlink:title=" ">
<path fill="none" stroke="#63b8ff" d="M1560.61,-132.33C1574.64,-121.56 1597.57,-103.98 1614.46,-91.02"/>
<polygon fill="#63b8ff" stroke="#63b8ff" points="1616.12,-94.16 1621.93,-85.29 1611.86,-88.6 1616.12,-94.16"/>
</a>
</g>
</g>
<!-- Node28 -->
<g id="Node000028" class="node">
<title>Node28</title>
<g id="a_Node000028"><a xlink:title=" ">
<polygon fill="#e0e0e0" stroke="#999999" points="1865.88,-83.88 1714.12,-83.88 1714.12,-63.12 1865.88,-63.12 1865.88,-83.88"/>
<text text-anchor="middle" x="1790" y="-70.38" font-family="Helvetica,sans-Serif" font-size="10.00">mlir/IR/OpImplementation.h</text>
</a>
</g>
</g>
<!-- Node22&#45;&gt;Node28 -->
<g id="edge30_Node000022_Node000028" class="edge">
<title>Node22&#45;&gt;Node28</title>
<g id="a_edge30_Node000022_Node000028"><a xlink:title=" ">
<path fill="none" stroke="#63b8ff" d="M1583.19,-132.18C1625.58,-120.36 1696.91,-100.47 1743.72,-87.41"/>
<polygon fill="#63b8ff" stroke="#63b8ff" points="1744.62,-90.79 1753.31,-84.73 1742.74,-84.05 1744.62,-90.79"/>
</a>
</g>
</g>
<!-- Node29 -->
<g id="Node000029" class="node">
<title>Node29</title>
<g id="a_Node000029"><a xlink:title=" ">
<polygon fill="#e0e0e0" stroke="#999999" points="2006.25,-83.88 1883.75,-83.88 1883.75,-63.12 2006.25,-63.12 2006.25,-83.88"/>
<text text-anchor="middle" x="1945" y="-70.38" font-family="Helvetica,sans-Serif" font-size="10.00">mlir/IR/SymbolTable.h</text>
</a>
</g>
</g>
<!-- Node22&#45;&gt;Node29 -->
<g id="edge32_Node000022_Node000029" class="edge">
<title>Node22&#45;&gt;Node29</title>
<g id="a_edge32_Node000022_Node000029"><a xlink:title=" ">
<path fill="none" stroke="#63b8ff" d="M1608.17,-133.66C1673.93,-124.28 1782.28,-108 1875,-90.25 1880.59,-89.18 1886.42,-87.99 1892.22,-86.76"/>
<polygon fill="#63b8ff" stroke="#63b8ff" points="1892.76,-90.22 1901.79,-84.67 1891.27,-83.38 1892.76,-90.22"/>
</a>
</g>
</g>
<!-- Node30 -->
<g id="Node000030" class="node">
<title>Node30</title>
<g id="a_Node000030"><a xlink:title=" ">
<polygon fill="#e0e0e0" stroke="#999999" points="2149.38,-83.88 2024.62,-83.88 2024.62,-63.12 2149.38,-63.12 2149.38,-83.88"/>
<text text-anchor="middle" x="2087" y="-70.38" font-family="Helvetica,sans-Serif" font-size="10.00">llvm/ADT/DenseMap.h</text>
</a>
</g>
</g>
<!-- Node22&#45;&gt;Node30 -->
<g id="edge34_Node000022_Node000030" class="edge">
<title>Node22&#45;&gt;Node30</title>
<g id="a_edge34_Node000022_Node000030"><a xlink:title=" ">
<path fill="none" stroke="#63b8ff" d="M1607.99,-137.38C1697.14,-130.06 1869.71,-114.12 2015,-90.25 2021.39,-89.2 2028.07,-87.95 2034.67,-86.62"/>
<polygon fill="#63b8ff" stroke="#63b8ff" points="2035.09,-90.11 2044.16,-84.64 2033.66,-83.26 2035.09,-90.11"/>
</a>
</g>
</g>
<!-- Node23&#45;&gt;Node16 -->
<g id="edge25_Node000023_Node000016" class="edge">
<title>Node23&#45;&gt;Node16</title>
<g id="a_edge25_Node000023_Node000016"><a xlink:title=" ">
<path fill="none" stroke="#63b8ff" d="M1592.62,-62.68C1545.78,-52.07 1471.07,-35.16 1420.35,-23.68"/>
<polygon fill="#63b8ff" stroke="#63b8ff" points="1421.27,-20.3 1410.75,-21.51 1419.73,-27.13 1421.27,-20.3"/>
</a>
</g>
</g>
<!-- Node23&#45;&gt;Node20 -->
<g id="edge29_Node000023_Node000020" class="edge">
<title>Node23&#45;&gt;Node20</title>
<g id="a_edge29_Node000023_Node000020"><a xlink:title=" ">
<path fill="none" stroke="#63b8ff" d="M1575.52,-63.08C1560.35,-60.86 1544.1,-58.6 1529,-56.75 1370.77,-37.36 1181.32,-20.9 1102.84,-14.37"/>
<polygon fill="#63b8ff" stroke="#63b8ff" points="1103.41,-10.91 1093.15,-13.57 1102.83,-17.89 1103.41,-10.91"/>
</a>
</g>
</g>
<!-- Node24 -->
<g id="Node000024" class="node">
<title>Node24</title>
<g id="a_Node000024"><a xlink:title=" ">
<polygon fill="#e0e0e0" stroke="#999999" points="1849.62,-20.75 1732.38,-20.75 1732.38,0 1849.62,0 1849.62,-20.75"/>
<text text-anchor="middle" x="1791" y="-7.25" font-family="Helvetica,sans-Serif" font-size="10.00">mlir/IR/Diagnostics.h</text>
</a>
</g>
</g>
<!-- Node23&#45;&gt;Node24 -->
<g id="edge24_Node000023_Node000024" class="edge">
<title>Node23&#45;&gt;Node24</title>
<g id="a_edge24_Node000023_Node000024"><a xlink:title=" ">
<path fill="none" stroke="#63b8ff" d="M1660.9,-62.68C1686.55,-52.56 1726.75,-36.71 1755.68,-25.3"/>
<polygon fill="#63b8ff" stroke="#63b8ff" points="1756.73,-28.65 1764.75,-21.73 1754.16,-22.14 1756.73,-28.65"/>
</a>
</g>
</g>
<!-- Node25 -->
<g id="Node000025" class="node">
<title>Node25</title>
<g id="a_Node000025"><a xlink:title=" ">
<polygon fill="#e0e0e0" stroke="#999999" points="2038.62,-20.75 1867.38,-20.75 1867.38,0 2038.62,0 2038.62,-20.75"/>
<text text-anchor="middle" x="1953" y="-7.25" font-family="Helvetica,sans-Serif" font-size="10.00">llvm/ADT/STLFunctionalExtras.h</text>
</a>
</g>
</g>
<!-- Node23&#45;&gt;Node25 -->
<g id="edge26_Node000023_Node000025" class="edge">
<title>Node23&#45;&gt;Node25</title>
<g id="a_edge26_Node000023_Node000025"><a xlink:title=" ">
<path fill="none" stroke="#63b8ff" d="M1677.9,-62.63C1686.83,-60.61 1696.21,-58.56 1705,-56.75 1765.26,-44.37 1834.11,-31.9 1883.95,-23.18"/>
<polygon fill="#63b8ff" stroke="#63b8ff" points="1884.49,-26.64 1893.74,-21.47 1883.29,-19.74 1884.49,-26.64"/>
</a>
</g>
</g>
<!-- Node26 -->
<g id="Node000026" class="node">
<title>Node26</title>
<g id="a_Node000026"><a xlink:title=" ">
<polygon fill="#e0e0e0" stroke="#999999" points="1539.38,-20.75 1438.62,-20.75 1438.62,0 1539.38,0 1539.38,-20.75"/>
<text text-anchor="middle" x="1489" y="-7.25" font-family="Helvetica,sans-Serif" font-size="10.00">llvm/ADT/Twine.h</text>
</a>
</g>
</g>
<!-- Node23&#45;&gt;Node26 -->
<g id="edge27_Node000023_Node000026" class="edge">
<title>Node23&#45;&gt;Node26</title>
<g id="a_edge27_Node000023_Node000026"><a xlink:title=" ">
<path fill="none" stroke="#63b8ff" d="M1612.38,-62.68C1588.16,-52.61 1550.27,-36.85 1522.86,-25.46"/>
<polygon fill="#63b8ff" stroke="#63b8ff" points="1524.53,-22.36 1513.96,-21.75 1521.85,-28.82 1524.53,-22.36"/>
</a>
</g>
</g>
<!-- Node27 -->
<g id="Node000027" class="node">
<title>Node27</title>
<g id="a_Node000027"><a xlink:title=" ">
<polygon fill="#e0e0e0" stroke="#999999" points="1714.5,-20.75 1557.5,-20.75 1557.5,0 1714.5,0 1714.5,-20.75"/>
<text text-anchor="middle" x="1636" y="-7.25" font-family="Helvetica,sans-Serif" font-size="10.00">llvm/Support/ErrorHandling.h</text>
</a>
</g>
</g>
<!-- Node23&#45;&gt;Node27 -->
<g id="edge28_Node000023_Node000027" class="edge">
<title>Node23&#45;&gt;Node27</title>
<g id="a_edge28_Node000023_Node000027"><a xlink:title=" ">
<path fill="none" stroke="#63b8ff" d="M1636,-62.68C1636,-54.52 1636,-42.63 1636,-32.35"/>
<polygon fill="#63b8ff" stroke="#63b8ff" points="1639.5,-32.48 1636,-22.48 1632.5,-32.48 1639.5,-32.48"/>
</a>
</g>
</g>
</g>
</svg>
