<?xml version="1.0" encoding="UTF-8" standalone="no"?>
<!DOCTYPE svg PUBLIC "-//W3C//DTD SVG 1.1//EN"
 "http://www.w3.org/Graphics/SVG/1.1/DTD/svg11.dtd">
<!-- Generated by graphviz version 12.2.1 (0)
 -->
<!-- Title: lib/Transforms/LLZKRemoveUnusedDiscardableAllocationsPass.cpp Pages: 1 -->
<svg width="1838pt" height="320pt"
 viewBox="0.00 0.00 1838.00 319.50" xmlns="http://www.w3.org/2000/svg" xmlns:xlink="http://www.w3.org/1999/xlink">
<g id="graph0" class="graph" transform="scale(1 1) rotate(0) translate(4 315.5)">
<title>lib/Transforms/LLZKRemoveUnusedDiscardableAllocationsPass.cpp</title>
<!-- Node1 -->
<g id="Node000001" class="node">
<title>Node1</title>
<g id="a_Node000001"><a xlink:title="This file implements the &#45;llzk&#45;remove&#45;unused&#45;discardable&#45;allocations pass.">
<polygon fill="#999999" stroke="#666666" points="1093.75,-311.5 887.25,-311.5 887.25,-278 1093.75,-278 1093.75,-311.5"/>
<text text-anchor="start" x="895.25" y="-298" font-family="Helvetica,sans-Serif" font-size="10.00">lib/Transforms/LLZKRemove</text>
<text text-anchor="middle" x="990.5" y="-285.25" font-family="Helvetica,sans-Serif" font-size="10.00">UnusedDiscardableAllocationsPass.cpp</text>
</a>
</g>
</g>
<!-- Node2 -->
<g id="Node000002" class="node">
<title>Node2</title>
<g id="a_Node000002"><a xlink:href="DiscardableAllocationOpInterfaces_8h.html" target="_top" xlink:title=" ">
<polygon fill="white" stroke="#666666" points="395,-242 244,-242 244,-208.5 395,-208.5 395,-242"/>
<text text-anchor="start" x="252" y="-228.5" font-family="Helvetica,sans-Serif" font-size="10.00">llzk/Transforms/Discardable</text>
<text text-anchor="middle" x="319.5" y="-215.75" font-family="Helvetica,sans-Serif" font-size="10.00">AllocationOpInterfaces.h</text>
</a>
</g>
</g>
<!-- Node1&#45;&gt;Node2 -->
<g id="edge1_Node000001_Node000002" class="edge">
<title>Node1&#45;&gt;Node2</title>
<g id="a_edge1_Node000001_Node000002"><a xlink:title=" ">
<path fill="none" stroke="#63b8ff" d="M886.8,-285.16C775.96,-275.71 595.13,-259.52 439.5,-242 428.77,-240.79 417.52,-239.44 406.38,-238.04"/>
<polygon fill="#63b8ff" stroke="#63b8ff" points="407.17,-234.61 396.81,-236.82 406.28,-241.55 407.17,-234.61"/>
</a>
</g>
</g>
<!-- Node4 -->
<g id="Node000004" class="node">
<title>Node4</title>
<g id="a_Node000004"><a xlink:title=" ">
<polygon fill="#e0e0e0" stroke="#999999" points="493,-172.5 354,-172.5 354,-139 493,-139 493,-172.5"/>
<text text-anchor="start" x="362" y="-159" font-family="Helvetica,sans-Serif" font-size="10.00">mlir/Interfaces/SideEffect</text>
<text text-anchor="middle" x="423.5" y="-146.25" font-family="Helvetica,sans-Serif" font-size="10.00">Interfaces.h</text>
</a>
</g>
</g>
<!-- Node1&#45;&gt;Node4 -->
<g id="edge49_Node000001_Node000004" class="edge">
<title>Node1&#45;&gt;Node4</title>
<g id="a_edge49_Node000001_Node000004"><a xlink:title=" ">
<path fill="none" stroke="#63b8ff" d="M886.79,-290.76C765.28,-285.85 572.29,-273.28 507.5,-242 479.68,-228.57 455.84,-201.99 440.74,-182.06"/>
<polygon fill="#63b8ff" stroke="#63b8ff" points="443.67,-180.13 434.95,-174.12 438.02,-184.26 443.67,-180.13"/>
</a>
</g>
</g>
<!-- Node6 -->
<g id="Node000006" class="node">
<title>Node6</title>
<g id="a_Node000006"><a xlink:href="LLZKTransformationPasses_8h.html" target="_top" xlink:title=" ">
<polygon fill="white" stroke="#666666" points="793.5,-242 603.5,-242 603.5,-208.5 793.5,-208.5 793.5,-242"/>
<text text-anchor="start" x="611.5" y="-228.5" font-family="Helvetica,sans-Serif" font-size="10.00">llzk/Transforms/LLZKTransformation</text>
<text text-anchor="middle" x="698.5" y="-215.75" font-family="Helvetica,sans-Serif" font-size="10.00">Passes.h</text>
</a>
</g>
</g>
<!-- Node1&#45;&gt;Node6 -->
<g id="edge5_Node000001_Node000006" class="edge">
<title>Node1&#45;&gt;Node6</title>
<g id="a_edge5_Node000001_Node000006"><a xlink:title=" ">
<path fill="none" stroke="#63b8ff" d="M920.56,-277.58C878.17,-267.78 823.92,-255.24 779.66,-245.01"/>
<polygon fill="#63b8ff" stroke="#63b8ff" points="780.64,-241.64 770.1,-242.8 779.06,-248.46 780.64,-241.64"/>
</a>
</g>
</g>
<!-- Node10 -->
<g id="Node000010" class="node">
<title>Node10</title>
<g id="a_Node000010"><a xlink:title=" ">
<polygon fill="#e0e0e0" stroke="#999999" points="775.75,-27.12 665.25,-27.12 665.25,-6.38 775.75,-6.38 775.75,-27.12"/>
<text text-anchor="middle" x="720.5" y="-13.62" font-family="Helvetica,sans-Serif" font-size="10.00">mlir/IR/BuiltinOps.h</text>
</a>
</g>
</g>
<!-- Node1&#45;&gt;Node10 -->
<g id="edge47_Node000001_Node000010" class="edge">
<title>Node1&#45;&gt;Node10</title>
<g id="a_edge47_Node000001_Node000010"><a xlink:title=" ">
<path fill="none" stroke="#63b8ff" d="M886.8,-290.81C785.63,-286.09 640.45,-273.83 594.5,-242 528.46,-196.26 492.18,-133.68 540.5,-69.5 544.57,-64.1 619.31,-43.88 671.18,-30.37"/>
<polygon fill="#63b8ff" stroke="#63b8ff" points="671.93,-33.79 680.73,-27.89 670.17,-27.02 671.93,-33.79"/>
</a>
</g>
</g>
<!-- Node36 -->
<g id="Node000036" class="node">
<title>Node36</title>
<g id="a_Node000036"><a xlink:href="LLZKTransformationPasses_8h_8inc.html" target="_top" xlink:title=" ">
<polygon fill="white" stroke="#666666" points="1154.5,-172.5 964.5,-172.5 964.5,-139 1154.5,-139 1154.5,-172.5"/>
<text text-anchor="start" x="972.5" y="-159" font-family="Helvetica,sans-Serif" font-size="10.00">llzk/Transforms/LLZKTransformation</text>
<text text-anchor="middle" x="1059.5" y="-146.25" font-family="Helvetica,sans-Serif" font-size="10.00">Passes.h.inc</text>
</a>
</g>
</g>
<!-- Node1&#45;&gt;Node36 -->
<g id="edge55_Node000001_Node000036" class="edge">
<title>Node1&#45;&gt;Node36</title>
<g id="a_edge55_Node000001_Node000036"><a xlink:title=" ">
<path fill="none" stroke="#63b8ff" d="M911.54,-277.55C863.29,-263.98 815.44,-241.47 841.5,-208.5 849.26,-198.69 904.23,-185.68 957.03,-175.15"/>
<polygon fill="#63b8ff" stroke="#63b8ff" points="957.63,-178.6 966.76,-173.24 956.27,-171.73 957.63,-178.6"/>
</a>
</g>
</g>
<!-- Node37 -->
<g id="Node000037" class="node">
<title>Node37</title>
<g id="a_Node000037"><a xlink:title=" ">
<polygon fill="#e0e0e0" stroke="#999999" points="989,-242 850,-242 850,-208.5 989,-208.5 989,-242"/>
<text text-anchor="start" x="858" y="-228.5" font-family="Helvetica,sans-Serif" font-size="10.00">mlir/Analysis/DataLayout</text>
<text text-anchor="middle" x="919.5" y="-215.75" font-family="Helvetica,sans-Serif" font-size="10.00">Analysis.h</text>
</a>
</g>
</g>
<!-- Node1&#45;&gt;Node37 -->
<g id="edge46_Node000001_Node000037" class="edge">
<title>Node1&#45;&gt;Node37</title>
<g id="a_edge46_Node000001_Node000037"><a xlink:title=" ">
<path fill="none" stroke="#63b8ff" d="M973.67,-277.75C964.92,-269.43 954.05,-259.1 944.35,-249.87"/>
<polygon fill="#63b8ff" stroke="#63b8ff" points="946.96,-247.53 937.3,-243.17 942.14,-252.6 946.96,-247.53"/>
</a>
</g>
</g>
<!-- Node38 -->
<g id="Node000038" class="node">
<title>Node38</title>
<g id="a_Node000038"><a xlink:title=" ">
<polygon fill="#e0e0e0" stroke="#999999" points="1115.62,-235.62 1007.38,-235.62 1007.38,-214.88 1115.62,-214.88 1115.62,-235.62"/>
<text text-anchor="middle" x="1061.5" y="-222.12" font-family="Helvetica,sans-Serif" font-size="10.00">mlir/IR/Operation.h</text>
</a>
</g>
</g>
<!-- Node1&#45;&gt;Node38 -->
<g id="edge48_Node000001_Node000038" class="edge">
<title>Node1&#45;&gt;Node38</title>
<g id="a_edge48_Node000001_Node000038"><a xlink:title=" ">
<path fill="none" stroke="#63b8ff" d="M1007.33,-277.75C1018.07,-267.54 1032,-254.3 1043.05,-243.79"/>
<polygon fill="#63b8ff" stroke="#63b8ff" points="1045.24,-246.54 1050.07,-237.11 1040.41,-241.47 1045.24,-246.54"/>
</a>
</g>
</g>
<!-- Node39 -->
<g id="Node000039" class="node">
<title>Node39</title>
<g id="a_Node000039"><a xlink:title=" ">
<polygon fill="#e0e0e0" stroke="#999999" points="1249,-235.62 1134,-235.62 1134,-214.88 1249,-214.88 1249,-235.62"/>
<text text-anchor="middle" x="1191.5" y="-222.12" font-family="Helvetica,sans-Serif" font-size="10.00">llvm/ADT/ArrayRef.h</text>
</a>
</g>
</g>
<!-- Node1&#45;&gt;Node39 -->
<g id="edge50_Node000001_Node000039" class="edge">
<title>Node1&#45;&gt;Node39</title>
<g id="a_edge50_Node000001_Node000039"><a xlink:title=" ">
<path fill="none" stroke="#63b8ff" d="M1038.64,-277.58C1073.03,-266.03 1118.77,-250.68 1151.22,-239.78"/>
<polygon fill="#63b8ff" stroke="#63b8ff" points="1152.31,-243.1 1160.68,-236.6 1150.08,-236.47 1152.31,-243.1"/>
</a>
</g>
</g>
<!-- Node40 -->
<g id="Node000040" class="node">
<title>Node40</title>
<g id="a_Node000040"><a xlink:title=" ">
<polygon fill="#e0e0e0" stroke="#999999" points="1388,-235.62 1267,-235.62 1267,-214.88 1388,-214.88 1388,-235.62"/>
<text text-anchor="middle" x="1327.5" y="-222.12" font-family="Helvetica,sans-Serif" font-size="10.00">llvm/ADT/STLExtras.h</text>
</a>
</g>
</g>
<!-- Node1&#45;&gt;Node40 -->
<g id="edge51_Node000001_Node000040" class="edge">
<title>Node1&#45;&gt;Node40</title>
<g id="a_edge51_Node000001_Node000040"><a xlink:title=" ">
<path fill="none" stroke="#63b8ff" d="M1078.46,-277.54C1130.84,-267.69 1198.57,-254.62 1258.5,-242 1263.71,-240.9 1269.14,-239.72 1274.55,-238.53"/>
<polygon fill="#63b8ff" stroke="#63b8ff" points="1275.12,-241.99 1284.11,-236.39 1273.59,-235.16 1275.12,-241.99"/>
</a>
</g>
</g>
<!-- Node41 -->
<g id="Node000041" class="node">
<title>Node41</title>
<g id="a_Node000041"><a xlink:title=" ">
<polygon fill="#e0e0e0" stroke="#999999" points="1536.5,-235.62 1406.5,-235.62 1406.5,-214.88 1536.5,-214.88 1536.5,-235.62"/>
<text text-anchor="middle" x="1471.5" y="-222.12" font-family="Helvetica,sans-Serif" font-size="10.00">llvm/ADT/SmallPtrSet.h</text>
</a>
</g>
</g>
<!-- Node1&#45;&gt;Node41 -->
<g id="edge52_Node000001_Node000041" class="edge">
<title>Node1&#45;&gt;Node41</title>
<g id="a_edge52_Node000001_Node000041"><a xlink:title=" ">
<path fill="none" stroke="#63b8ff" d="M1094.14,-282.98C1176.61,-273.83 1294.8,-259.43 1397.5,-242 1403.89,-240.92 1410.56,-239.67 1417.17,-238.35"/>
<polygon fill="#63b8ff" stroke="#63b8ff" points="1417.6,-241.84 1426.7,-236.4 1416.2,-234.98 1417.6,-241.84"/>
</a>
</g>
</g>
<!-- Node42 -->
<g id="Node000042" class="node">
<title>Node42</title>
<g id="a_Node000042"><a xlink:title=" ">
<polygon fill="#e0e0e0" stroke="#999999" points="1684.88,-235.62 1554.12,-235.62 1554.12,-214.88 1684.88,-214.88 1684.88,-235.62"/>
<text text-anchor="middle" x="1619.5" y="-222.12" font-family="Helvetica,sans-Serif" font-size="10.00">llvm/ADT/SmallVector.h</text>
</a>
</g>
</g>
<!-- Node1&#45;&gt;Node42 -->
<g id="edge53_Node000001_Node000042" class="edge">
<title>Node1&#45;&gt;Node42</title>
<g id="a_edge53_Node000001_Node000042"><a xlink:title=" ">
<path fill="none" stroke="#63b8ff" d="M1094,-287.72C1205.8,-280.37 1388.97,-265.87 1545.5,-242 1552.24,-240.97 1559.28,-239.72 1566.23,-238.36"/>
<polygon fill="#63b8ff" stroke="#63b8ff" points="1566.8,-241.82 1575.91,-236.4 1565.41,-234.96 1566.8,-241.82"/>
</a>
</g>
</g>
<!-- Node43 -->
<g id="Node000043" class="node">
<title>Node43</title>
<g id="a_Node000043"><a xlink:title=" ">
<polygon fill="#e0e0e0" stroke="#999999" points="1830,-235.62 1703,-235.62 1703,-214.88 1830,-214.88 1830,-235.62"/>
<text text-anchor="middle" x="1766.5" y="-222.12" font-family="Helvetica,sans-Serif" font-size="10.00">llvm/Support/Casting.h</text>
</a>
</g>
</g>
<!-- Node1&#45;&gt;Node43 -->
<g id="edge54_Node000001_Node000043" class="edge">
<title>Node1&#45;&gt;Node43</title>
<g id="a_edge54_Node000001_Node000043"><a xlink:title=" ">
<path fill="none" stroke="#63b8ff" d="M1094.03,-290.63C1231.56,-285.46 1481.83,-272.47 1693.5,-242 1700.32,-241.02 1707.46,-239.76 1714.49,-238.39"/>
<polygon fill="#63b8ff" stroke="#63b8ff" points="1715.18,-241.83 1724.27,-236.39 1713.77,-234.97 1715.18,-241.83"/>
</a>
</g>
</g>
<!-- Node3 -->
<g id="Node000003" class="node">
<title>Node3</title>
<g id="a_Node000003"><a xlink:title=" ">
<polygon fill="#e0e0e0" stroke="#999999" points="164.75,-172.5 18.25,-172.5 18.25,-139 164.75,-139 164.75,-172.5"/>
<text text-anchor="start" x="26.25" y="-159" font-family="Helvetica,sans-Serif" font-size="10.00">mlir/Interfaces/DataLayout</text>
<text text-anchor="middle" x="91.5" y="-146.25" font-family="Helvetica,sans-Serif" font-size="10.00">Interfaces.h</text>
</a>
</g>
</g>
<!-- Node2&#45;&gt;Node3 -->
<g id="edge2_Node000002_Node000003" class="edge">
<title>Node2&#45;&gt;Node3</title>
<g id="a_edge2_Node000002_Node000003"><a xlink:title=" ">
<path fill="none" stroke="#63b8ff" d="M264.89,-208.08C232.44,-198.47 191.07,-186.23 156.89,-176.11"/>
<polygon fill="#63b8ff" stroke="#63b8ff" points="158.09,-172.82 147.51,-173.33 156.11,-179.53 158.09,-172.82"/>
</a>
</g>
</g>
<!-- Node2&#45;&gt;Node4 -->
<g id="edge3_Node000002_Node000004" class="edge">
<title>Node2&#45;&gt;Node4</title>
<g id="a_edge3_Node000002_Node000004"><a xlink:title=" ">
<path fill="none" stroke="#63b8ff" d="M344.41,-208.08C357.92,-199.32 374.81,-188.35 389.51,-178.81"/>
<polygon fill="#63b8ff" stroke="#63b8ff" points="391.04,-181.99 397.52,-173.61 387.23,-176.12 391.04,-181.99"/>
</a>
</g>
</g>
<!-- Node5 -->
<g id="Node000005" class="node">
<title>Node5</title>
<g id="a_Node000005"><a xlink:href="DiscardableAllocationOpInterfaces_8h_8inc.html" target="_top" xlink:title=" ">
<polygon fill="white" stroke="#666666" points="336.12,-172.5 182.88,-172.5 182.88,-139 336.12,-139 336.12,-172.5"/>
<text text-anchor="start" x="190.88" y="-159" font-family="Helvetica,sans-Serif" font-size="10.00">llzk/Transforms/Discardable</text>
<text text-anchor="middle" x="259.5" y="-146.25" font-family="Helvetica,sans-Serif" font-size="10.00">AllocationOpInterfaces.h.inc</text>
</a>
</g>
</g>
<!-- Node2&#45;&gt;Node5 -->
<g id="edge4_Node000002_Node000005" class="edge">
<title>Node2&#45;&gt;Node5</title>
<g id="a_edge4_Node000002_Node000005"><a xlink:title=" ">
<path fill="none" stroke="#63b8ff" d="M305.28,-208.25C298.11,-200.18 289.25,-190.22 281.25,-181.21"/>
<polygon fill="#63b8ff" stroke="#63b8ff" points="283.88,-178.91 274.62,-173.76 278.65,-183.56 283.88,-178.91"/>
</a>
</g>
</g>
<!-- Node7 -->
<g id="Node000007" class="node">
<title>Node7</title>
<g id="a_Node000007"><a xlink:href="Config_8h.html" target="_top" xlink:title=" ">
<polygon fill="white" stroke="#666666" points="676.38,-166.12 566.62,-166.12 566.62,-145.38 676.38,-145.38 676.38,-166.12"/>
<text text-anchor="middle" x="621.5" y="-152.62" font-family="Helvetica,sans-Serif" font-size="10.00">llzk/Config/Config.h</text>
</a>
</g>
</g>
<!-- Node6&#45;&gt;Node7 -->
<g id="edge6_Node000006_Node000007" class="edge">
<title>Node6&#45;&gt;Node7</title>
<g id="a_edge6_Node000006_Node000007"><a xlink:title=" ">
<path fill="none" stroke="#63b8ff" d="M680.25,-208.25C668.49,-197.94 653.19,-184.53 641.16,-173.98"/>
<polygon fill="#63b8ff" stroke="#63b8ff" points="643.67,-171.53 633.84,-167.57 639.05,-176.79 643.67,-171.53"/>
</a>
</g>
</g>
<!-- Node8 -->
<g id="Node000008" class="node">
<title>Node8</title>
<g id="a_Node000008"><a xlink:href="PassBase_8h.html" target="_top" xlink:title=" ">
<polygon fill="white" stroke="#666666" points="810.38,-166.12 694.62,-166.12 694.62,-145.38 810.38,-145.38 810.38,-166.12"/>
<text text-anchor="middle" x="752.5" y="-152.62" font-family="Helvetica,sans-Serif" font-size="10.00">llzk/Pass/PassBase.h</text>
</a>
</g>
</g>
<!-- Node6&#45;&gt;Node8 -->
<g id="edge7_Node000006_Node000008" class="edge">
<title>Node6&#45;&gt;Node8</title>
<g id="a_edge7_Node000006_Node000008"><a xlink:title=" ">
<path fill="none" stroke="#63b8ff" d="M711.3,-208.25C719.14,-198.44 729.23,-185.84 737.46,-175.55"/>
<polygon fill="#63b8ff" stroke="#63b8ff" points="740.18,-177.75 743.7,-167.75 734.72,-173.38 740.18,-177.75"/>
</a>
</g>
</g>
<!-- Node35 -->
<g id="Node000035" class="node">
<title>Node35</title>
<g id="a_Node000035"><a xlink:title=" ">
<polygon fill="#e0e0e0" stroke="#999999" points="946.12,-166.12 828.88,-166.12 828.88,-145.38 946.12,-145.38 946.12,-166.12"/>
<text text-anchor="middle" x="887.5" y="-152.62" font-family="Helvetica,sans-Serif" font-size="10.00">llvm/ADT/StringRef.h</text>
</a>
</g>
</g>
<!-- Node6&#45;&gt;Node35 -->
<g id="edge44_Node000006_Node000035" class="edge">
<title>Node6&#45;&gt;Node35</title>
<g id="a_edge44_Node000006_Node000035"><a xlink:title=" ">
<path fill="none" stroke="#63b8ff" d="M743.77,-208.08C775.96,-196.58 818.73,-181.31 849.23,-170.42"/>
<polygon fill="#63b8ff" stroke="#63b8ff" points="850.2,-173.79 858.44,-167.13 847.85,-167.2 850.2,-173.79"/>
</a>
</g>
</g>
<!-- Node6&#45;&gt;Node36 -->
<g id="edge45_Node000006_Node000036" class="edge">
<title>Node6&#45;&gt;Node36</title>
<g id="a_edge45_Node000006_Node000036"><a xlink:title=" ">
<path fill="none" stroke="#63b8ff" d="M784.97,-208.08C838.15,-198.14 906.43,-185.37 961.59,-175.06"/>
<polygon fill="#63b8ff" stroke="#63b8ff" points="962.13,-178.52 971.31,-173.24 960.84,-171.64 962.13,-178.52"/>
</a>
</g>
</g>
<!-- Node9 -->
<g id="Node000009" class="node">
<title>Node9</title>
<g id="a_Node000009"><a xlink:href="Array_2IR_2Dialect_8h.html" target="_top" xlink:title=" ">
<polygon fill="white" stroke="#666666" points="1041.5,-103 941.5,-103 941.5,-69.5 1041.5,-69.5 1041.5,-103"/>
<text text-anchor="start" x="949.5" y="-89.5" font-family="Helvetica,sans-Serif" font-size="10.00">llzk/Dialect/Array</text>
<text text-anchor="middle" x="991.5" y="-76.75" font-family="Helvetica,sans-Serif" font-size="10.00">/IR/Dialect.h</text>
</a>
</g>
</g>
<!-- Node8&#45;&gt;Node9 -->
<g id="edge8_Node000008_Node000009" class="edge">
<title>Node8&#45;&gt;Node9</title>
<g id="a_edge8_Node000008_Node000009"><a xlink:title=" ">
<path fill="none" stroke="#63b8ff" d="M787.25,-144.93C824.69,-134.36 884.99,-117.33 930.38,-104.51"/>
<polygon fill="#63b8ff" stroke="#63b8ff" points="931.16,-107.93 939.83,-101.84 929.25,-101.19 931.16,-107.93"/>
</a>
</g>
</g>
<!-- Node12 -->
<g id="Node000012" class="node">
<title>Node12</title>
<g id="a_Node000012"><a xlink:href="Bool_2IR_2Dialect_8h.html" target="_top" xlink:title=" ">
<polygon fill="white" stroke="#666666" points="1522.62,-103 1414.38,-103 1414.38,-69.5 1522.62,-69.5 1522.62,-103"/>
<text text-anchor="start" x="1422.38" y="-89.5" font-family="Helvetica,sans-Serif" font-size="10.00">llzk/Dialect/Bool/IR</text>
<text text-anchor="middle" x="1468.5" y="-76.75" font-family="Helvetica,sans-Serif" font-size="10.00">/Dialect.h</text>
</a>
</g>
</g>
<!-- Node8&#45;&gt;Node12 -->
<g id="edge11_Node000008_Node000012" class="edge">
<title>Node8&#45;&gt;Node12</title>
<g id="a_edge11_Node000008_Node000012"><a xlink:title=" ">
<path fill="none" stroke="#63b8ff" d="M789.15,-144.95C798.94,-142.66 809.57,-140.46 819.5,-139 1074,-101.55 1145.6,-141.64 1402.79,-103.23"/>
<polygon fill="#63b8ff" stroke="#63b8ff" points="1403.13,-106.72 1412.49,-101.76 1402.08,-99.8 1403.13,-106.72"/>
</a>
</g>
</g>
<!-- Node14 -->
<g id="Node000014" class="node">
<title>Node14</title>
<g id="a_Node000014"><a xlink:href="Constrain_2IR_2Dialect_8h.html" target="_top" xlink:title=" ">
<polygon fill="white" stroke="#666666" points="1660.62,-103 1540.38,-103 1540.38,-69.5 1660.62,-69.5 1660.62,-103"/>
<text text-anchor="start" x="1548.38" y="-89.5" font-family="Helvetica,sans-Serif" font-size="10.00">llzk/Dialect/Constrain</text>
<text text-anchor="middle" x="1600.5" y="-76.75" font-family="Helvetica,sans-Serif" font-size="10.00">/IR/Dialect.h</text>
</a>
</g>
</g>
<!-- Node8&#45;&gt;Node14 -->
<g id="edge14_Node000008_Node000014" class="edge">
<title>Node8&#45;&gt;Node14</title>
<g id="a_edge14_Node000008_Node000014"><a xlink:title=" ">
<path fill="none" stroke="#63b8ff" d="M789.13,-144.88C798.93,-142.59 809.56,-140.41 819.5,-139 1129.54,-95.09 1215.63,-145.22 1528.79,-103.21"/>
<polygon fill="#63b8ff" stroke="#63b8ff" points="1529.09,-106.7 1538.53,-101.88 1528.15,-99.77 1529.09,-106.7"/>
</a>
</g>
</g>
<!-- Node16 -->
<g id="Node000016" class="node">
<title>Node16</title>
<g id="a_Node000016"><a xlink:href="Felt_2IR_2Dialect_8h.html" target="_top" xlink:title=" ">
<polygon fill="white" stroke="#666666" points="1782.75,-103 1678.25,-103 1678.25,-69.5 1782.75,-69.5 1782.75,-103"/>
<text text-anchor="start" x="1686.25" y="-89.5" font-family="Helvetica,sans-Serif" font-size="10.00">llzk/Dialect/Felt/IR</text>
<text text-anchor="middle" x="1730.5" y="-76.75" font-family="Helvetica,sans-Serif" font-size="10.00">/Dialect.h</text>
</a>
</g>
</g>
<!-- Node8&#45;&gt;Node16 -->
<g id="edge17_Node000008_Node000016" class="edge">
<title>Node8&#45;&gt;Node16</title>
<g id="a_edge17_Node000008_Node000016"><a xlink:title=" ">
<path fill="none" stroke="#63b8ff" d="M788.78,-144.91C798.67,-142.58 809.44,-140.38 819.5,-139 1190.44,-88.01 1293.48,-157.19 1666.94,-103.17"/>
<polygon fill="#63b8ff" stroke="#63b8ff" points="1667.19,-106.67 1676.57,-101.75 1666.17,-99.74 1667.19,-106.67"/>
</a>
</g>
</g>
<!-- Node18 -->
<g id="Node000018" class="node">
<title>Node18</title>
<g id="a_Node000018"><a xlink:href="Function_2IR_2Dialect_8h.html" target="_top" xlink:title=" ">
<polygon fill="white" stroke="#666666" points="115,-103 0,-103 0,-69.5 115,-69.5 115,-103"/>
<text text-anchor="start" x="8" y="-89.5" font-family="Helvetica,sans-Serif" font-size="10.00">llzk/Dialect/Function</text>
<text text-anchor="middle" x="57.5" y="-76.75" font-family="Helvetica,sans-Serif" font-size="10.00">/IR/Dialect.h</text>
</a>
</g>
</g>
<!-- Node8&#45;&gt;Node18 -->
<g id="edge20_Node000008_Node000018" class="edge">
<title>Node8&#45;&gt;Node18</title>
<g id="a_edge20_Node000008_Node000018"><a xlink:title=" ">
<path fill="none" stroke="#63b8ff" d="M715.5,-144.89C705.8,-142.62 695.31,-140.46 685.5,-139 441.55,-102.77 373.01,-139.09 126.45,-103.29"/>
<polygon fill="#63b8ff" stroke="#63b8ff" points="127.24,-99.86 116.84,-101.86 126.22,-106.79 127.24,-99.86"/>
</a>
</g>
</g>
<!-- Node20 -->
<g id="Node000020" class="node">
<title>Node20</title>
<g id="a_Node000020"><a xlink:href="Global_2IR_2Dialect_8h.html" target="_top" xlink:title=" ">
<polygon fill="white" stroke="#666666" points="238.12,-103 132.88,-103 132.88,-69.5 238.12,-69.5 238.12,-103"/>
<text text-anchor="start" x="140.88" y="-89.5" font-family="Helvetica,sans-Serif" font-size="10.00">llzk/Dialect/Global</text>
<text text-anchor="middle" x="185.5" y="-76.75" font-family="Helvetica,sans-Serif" font-size="10.00">/IR/Dialect.h</text>
</a>
</g>
</g>
<!-- Node8&#45;&gt;Node20 -->
<g id="edge23_Node000008_Node000020" class="edge">
<title>Node8&#45;&gt;Node20</title>
<g id="a_edge23_Node000008_Node000020"><a xlink:title=" ">
<path fill="none" stroke="#63b8ff" d="M715.13,-144.93C705.53,-142.69 695.18,-140.53 685.5,-139 495.8,-109.1 441.59,-134.58 249.93,-103.41"/>
<polygon fill="#63b8ff" stroke="#63b8ff" points="250.55,-99.97 240.11,-101.78 249.4,-106.87 250.55,-99.97"/>
</a>
</g>
</g>
<!-- Node22 -->
<g id="Node000022" class="node">
<title>Node22</title>
<g id="a_Node000022"><a xlink:href="Include_2IR_2Dialect_8h.html" target="_top" xlink:title=" ">
<polygon fill="white" stroke="#666666" points="365,-103 256,-103 256,-69.5 365,-69.5 365,-103"/>
<text text-anchor="start" x="264" y="-89.5" font-family="Helvetica,sans-Serif" font-size="10.00">llzk/Dialect/Include</text>
<text text-anchor="middle" x="310.5" y="-76.75" font-family="Helvetica,sans-Serif" font-size="10.00">/IR/Dialect.h</text>
</a>
</g>
</g>
<!-- Node8&#45;&gt;Node22 -->
<g id="edge26_Node000008_Node000022" class="edge">
<title>Node8&#45;&gt;Node22</title>
<g id="a_edge26_Node000008_Node000022"><a xlink:title=" ">
<path fill="none" stroke="#63b8ff" d="M714.04,-144.91C704.74,-142.75 694.8,-140.63 685.5,-139 551.91,-115.65 513.38,-127.06 376.15,-103.14"/>
<polygon fill="#63b8ff" stroke="#63b8ff" points="377.16,-99.76 366.71,-101.46 375.94,-106.66 377.16,-99.76"/>
</a>
</g>
</g>
<!-- Node24 -->
<g id="Node000024" class="node">
<title>Node24</title>
<g id="a_Node000024"><a xlink:href="LLZK_2IR_2Dialect_8h.html" target="_top" xlink:title=" ">
<polygon fill="white" stroke="#666666" points="493.75,-103 383.25,-103 383.25,-69.5 493.75,-69.5 493.75,-103"/>
<text text-anchor="start" x="391.25" y="-89.5" font-family="Helvetica,sans-Serif" font-size="10.00">llzk/Dialect/LLZK/IR</text>
<text text-anchor="middle" x="438.5" y="-76.75" font-family="Helvetica,sans-Serif" font-size="10.00">/Dialect.h</text>
</a>
</g>
</g>
<!-- Node8&#45;&gt;Node24 -->
<g id="edge29_Node000008_Node000024" class="edge">
<title>Node8&#45;&gt;Node24</title>
<g id="a_edge29_Node000008_Node000024"><a xlink:title=" ">
<path fill="none" stroke="#63b8ff" d="M711.43,-144.93C702.87,-142.93 693.9,-140.87 685.5,-139 624.59,-125.46 555.02,-110.97 505.26,-100.78"/>
<polygon fill="#63b8ff" stroke="#63b8ff" points="505.99,-97.36 495.49,-98.78 504.59,-104.21 505.99,-97.36"/>
</a>
</g>
</g>
<!-- Node26 -->
<g id="Node000026" class="node">
<title>Node26</title>
<g id="a_Node000026"><a xlink:href="Polymorphic_2IR_2Dialect_8h.html" target="_top" xlink:title=" ">
<polygon fill="white" stroke="#666666" points="683.75,-103 549.25,-103 549.25,-69.5 683.75,-69.5 683.75,-103"/>
<text text-anchor="start" x="557.25" y="-89.5" font-family="Helvetica,sans-Serif" font-size="10.00">llzk/Dialect/Polymorphic</text>
<text text-anchor="middle" x="616.5" y="-76.75" font-family="Helvetica,sans-Serif" font-size="10.00">/IR/Dialect.h</text>
</a>
</g>
</g>
<!-- Node8&#45;&gt;Node26 -->
<g id="edge32_Node000008_Node000026" class="edge">
<title>Node8&#45;&gt;Node26</title>
<g id="a_edge32_Node000008_Node000026"><a xlink:title=" ">
<path fill="none" stroke="#63b8ff" d="M732.72,-144.93C713.58,-135.43 683.93,-120.72 659.37,-108.53"/>
<polygon fill="#63b8ff" stroke="#63b8ff" points="661.07,-105.46 650.55,-104.15 657.95,-111.73 661.07,-105.46"/>
</a>
</g>
</g>
<!-- Node28 -->
<g id="Node000028" class="node">
<title>Node28</title>
<g id="a_Node000028"><a xlink:href="String_2IR_2Dialect_8h.html" target="_top" xlink:title=" ">
<polygon fill="white" stroke="#666666" points="803.62,-103 701.38,-103 701.38,-69.5 803.62,-69.5 803.62,-103"/>
<text text-anchor="start" x="709.38" y="-89.5" font-family="Helvetica,sans-Serif" font-size="10.00">llzk/Dialect/String</text>
<text text-anchor="middle" x="752.5" y="-76.75" font-family="Helvetica,sans-Serif" font-size="10.00">/IR/Dialect.h</text>
</a>
</g>
</g>
<!-- Node8&#45;&gt;Node28 -->
<g id="edge35_Node000008_Node000028" class="edge">
<title>Node8&#45;&gt;Node28</title>
<g id="a_edge35_Node000008_Node000028"><a xlink:title=" ">
<path fill="none" stroke="#63b8ff" d="M752.5,-145.08C752.5,-137.19 752.5,-125.63 752.5,-114.91"/>
<polygon fill="#63b8ff" stroke="#63b8ff" points="756,-114.93 752.5,-104.93 749,-114.93 756,-114.93"/>
</a>
</g>
</g>
<!-- Node30 -->
<g id="Node000030" class="node">
<title>Node30</title>
<g id="a_Node000030"><a xlink:href="Struct_2IR_2Dialect_8h.html" target="_top" xlink:title=" ">
<polygon fill="white" stroke="#666666" points="923.62,-103 821.38,-103 821.38,-69.5 923.62,-69.5 923.62,-103"/>
<text text-anchor="start" x="829.38" y="-89.5" font-family="Helvetica,sans-Serif" font-size="10.00">llzk/Dialect/Struct</text>
<text text-anchor="middle" x="872.5" y="-76.75" font-family="Helvetica,sans-Serif" font-size="10.00">/IR/Dialect.h</text>
</a>
</g>
</g>
<!-- Node8&#45;&gt;Node30 -->
<g id="edge38_Node000008_Node000030" class="edge">
<title>Node8&#45;&gt;Node30</title>
<g id="a_edge38_Node000008_Node000030"><a xlink:title=" ">
<path fill="none" stroke="#63b8ff" d="M769.95,-144.93C786.67,-135.53 812.48,-121.01 834.02,-108.89"/>
<polygon fill="#63b8ff" stroke="#63b8ff" points="835.56,-112.04 842.56,-104.09 832.13,-105.94 835.56,-112.04"/>
</a>
</g>
</g>
<!-- Node32 -->
<g id="Node000032" class="node">
<title>Node32</title>
<g id="a_Node000032"><a xlink:title=" ">
<polygon fill="#e0e0e0" stroke="#999999" points="1159.12,-103 1059.88,-103 1059.88,-69.5 1159.12,-69.5 1159.12,-103"/>
<text text-anchor="start" x="1067.88" y="-89.5" font-family="Helvetica,sans-Serif" font-size="10.00">mlir/Dialect/Arith</text>
<text text-anchor="middle" x="1109.5" y="-76.75" font-family="Helvetica,sans-Serif" font-size="10.00">/IR/Arith.h</text>
</a>
</g>
</g>
<!-- Node8&#45;&gt;Node32 -->
<g id="edge41_Node000008_Node000032" class="edge">
<title>Node8&#45;&gt;Node32</title>
<g id="a_edge41_Node000008_Node000032"><a xlink:title=" ">
<path fill="none" stroke="#63b8ff" d="M792.07,-144.92C801.06,-142.83 810.59,-140.74 819.5,-139 918,-119.78 946.87,-124.09 1048.32,-103.32"/>
<polygon fill="#63b8ff" stroke="#63b8ff" points="1048.82,-106.79 1057.89,-101.33 1047.39,-99.94 1048.82,-106.79"/>
</a>
</g>
</g>
<!-- Node33 -->
<g id="Node000033" class="node">
<title>Node33</title>
<g id="a_Node000033"><a xlink:title=" ">
<polygon fill="#e0e0e0" stroke="#999999" points="1284.25,-103 1176.75,-103 1176.75,-69.5 1284.25,-69.5 1284.25,-103"/>
<text text-anchor="start" x="1184.75" y="-89.5" font-family="Helvetica,sans-Serif" font-size="10.00">mlir/Dialect/SCF/IR</text>
<text text-anchor="middle" x="1230.5" y="-76.75" font-family="Helvetica,sans-Serif" font-size="10.00">/SCF.h</text>
</a>
</g>
</g>
<!-- Node8&#45;&gt;Node33 -->
<g id="edge42_Node000008_Node000033" class="edge">
<title>Node8&#45;&gt;Node33</title>
<g id="a_edge42_Node000008_Node000033"><a xlink:title=" ">
<path fill="none" stroke="#63b8ff" d="M790.59,-144.9C800,-142.72 810.07,-140.59 819.5,-139 969.67,-113.71 1012.95,-129.49 1165.34,-103.41"/>
<polygon fill="#63b8ff" stroke="#63b8ff" points="1165.76,-106.89 1175.01,-101.72 1164.55,-100 1165.76,-106.89"/>
</a>
</g>
</g>
<!-- Node34 -->
<g id="Node000034" class="node">
<title>Node34</title>
<g id="a_Node000034"><a xlink:title=" ">
<polygon fill="#e0e0e0" stroke="#999999" points="1396.5,-96.62 1302.5,-96.62 1302.5,-75.88 1396.5,-75.88 1396.5,-96.62"/>
<text text-anchor="middle" x="1349.5" y="-83.12" font-family="Helvetica,sans-Serif" font-size="10.00">mlir/Pass/Pass.h</text>
</a>
</g>
</g>
<!-- Node8&#45;&gt;Node34 -->
<g id="edge43_Node000008_Node000034" class="edge">
<title>Node8&#45;&gt;Node34</title>
<g id="a_edge43_Node000008_Node000034"><a xlink:title=" ">
<path fill="none" stroke="#63b8ff" d="M789.86,-144.89C799.46,-142.65 809.82,-140.5 819.5,-139 1028.29,-106.73 1085.45,-139.78 1293.5,-103 1298.14,-102.18 1302.96,-101.13 1307.72,-99.97"/>
<polygon fill="#63b8ff" stroke="#63b8ff" points="1308.4,-103.41 1317.19,-97.49 1306.63,-96.64 1308.4,-103.41"/>
</a>
</g>
</g>
<!-- Node9&#45;&gt;Node10 -->
<g id="edge9_Node000009_Node000010" class="edge">
<title>Node9&#45;&gt;Node10</title>
<g id="a_edge9_Node000009_Node000010"><a xlink:title=" ">
<path fill="none" stroke="#63b8ff" d="M941.31,-71.77C938.33,-71 935.38,-70.23 932.5,-69.5 866.9,-52.77 850.26,-49.59 784.5,-33.5 780.25,-32.46 775.83,-31.38 771.4,-30.29"/>
<polygon fill="#63b8ff" stroke="#63b8ff" points="772.46,-26.94 761.91,-27.96 770.79,-33.74 772.46,-26.94"/>
</a>
</g>
</g>
<!-- Node11 -->
<g id="Node000011" class="node">
<title>Node11</title>
<g id="a_Node000011"><a xlink:href="Array_2IR_2Dialect_8h_8inc.html" target="_top" xlink:title=" ">
<polygon fill="white" stroke="#666666" points="1133.5,-33.5 1033.5,-33.5 1033.5,0 1133.5,0 1133.5,-33.5"/>
<text text-anchor="start" x="1041.5" y="-20" font-family="Helvetica,sans-Serif" font-size="10.00">llzk/Dialect/Array</text>
<text text-anchor="middle" x="1083.5" y="-7.25" font-family="Helvetica,sans-Serif" font-size="10.00">/IR/Dialect.h.inc</text>
</a>
</g>
</g>
<!-- Node9&#45;&gt;Node11 -->
<g id="edge10_Node000009_Node000011" class="edge">
<title>Node9&#45;&gt;Node11</title>
<g id="a_edge10_Node000009_Node000011"><a xlink:title=" ">
<path fill="none" stroke="#63b8ff" d="M1013.3,-69.25C1025.02,-60.66 1039.66,-49.91 1052.54,-40.47"/>
<polygon fill="#63b8ff" stroke="#63b8ff" points="1054.32,-43.5 1060.31,-34.76 1050.18,-37.85 1054.32,-43.5"/>
</a>
</g>
</g>
<!-- Node12&#45;&gt;Node10 -->
<g id="edge12_Node000012_Node000010" class="edge">
<title>Node12&#45;&gt;Node10</title>
<g id="a_edge12_Node000012_Node000010"><a xlink:title=" ">
<path fill="none" stroke="#63b8ff" d="M1413.99,-70.96C1411.13,-70.42 1408.29,-69.93 1405.5,-69.5 1132.2,-27.79 1057.88,-74.71 784.5,-33.5 778.56,-32.6 772.36,-31.41 766.27,-30.09"/>
<polygon fill="#63b8ff" stroke="#63b8ff" points="767.49,-26.78 756.95,-27.93 765.9,-33.6 767.49,-26.78"/>
</a>
</g>
</g>
<!-- Node13 -->
<g id="Node000013" class="node">
<title>Node13</title>
<g id="a_Node000013"><a xlink:href="Bool_2IR_2Dialect_8h_8inc.html" target="_top" xlink:title=" ">
<polygon fill="white" stroke="#666666" points="1522.62,-33.5 1414.38,-33.5 1414.38,0 1522.62,0 1522.62,-33.5"/>
<text text-anchor="start" x="1422.38" y="-20" font-family="Helvetica,sans-Serif" font-size="10.00">llzk/Dialect/Bool/IR</text>
<text text-anchor="middle" x="1468.5" y="-7.25" font-family="Helvetica,sans-Serif" font-size="10.00">/Dialect.h.inc</text>
</a>
</g>
</g>
<!-- Node12&#45;&gt;Node13 -->
<g id="edge13_Node000012_Node000013" class="edge">
<title>Node12&#45;&gt;Node13</title>
<g id="a_edge13_Node000012_Node000013"><a xlink:title=" ">
<path fill="none" stroke="#63b8ff" d="M1468.5,-69.25C1468.5,-62.02 1468.5,-53.28 1468.5,-45.06"/>
<polygon fill="#63b8ff" stroke="#63b8ff" points="1472,-45.15 1468.5,-35.15 1465,-45.15 1472,-45.15"/>
</a>
</g>
</g>
<!-- Node14&#45;&gt;Node10 -->
<g id="edge15_Node000014_Node000010" class="edge">
<title>Node14&#45;&gt;Node10</title>
<g id="a_edge15_Node000014_Node000010"><a xlink:title=" ">
<path fill="none" stroke="#63b8ff" d="M1540.03,-70.81C1537.15,-70.33 1534.3,-69.88 1531.5,-69.5 1202.2,-24.34 1113.41,-81.44 784.5,-33.5 778.48,-32.62 772.21,-31.43 766.04,-30.09"/>
<polygon fill="#63b8ff" stroke="#63b8ff" points="767.14,-26.76 756.61,-27.91 765.56,-33.58 767.14,-26.76"/>
</a>
</g>
</g>
<!-- Node15 -->
<g id="Node000015" class="node">
<title>Node15</title>
<g id="a_Node000015"><a xlink:href="Constrain_2IR_2Dialect_8h_8inc.html" target="_top" xlink:title=" ">
<polygon fill="white" stroke="#666666" points="1660.62,-33.5 1540.38,-33.5 1540.38,0 1660.62,0 1660.62,-33.5"/>
<text text-anchor="start" x="1548.38" y="-20" font-family="Helvetica,sans-Serif" font-size="10.00">llzk/Dialect/Constrain</text>
<text text-anchor="middle" x="1600.5" y="-7.25" font-family="Helvetica,sans-Serif" font-size="10.00">/IR/Dialect.h.inc</text>
</a>
</g>
</g>
<!-- Node14&#45;&gt;Node15 -->
<g id="edge16_Node000014_Node000015" class="edge">
<title>Node14&#45;&gt;Node15</title>
<g id="a_edge16_Node000014_Node000015"><a xlink:title=" ">
<path fill="none" stroke="#63b8ff" d="M1600.5,-69.25C1600.5,-62.02 1600.5,-53.28 1600.5,-45.06"/>
<polygon fill="#63b8ff" stroke="#63b8ff" points="1604,-45.15 1600.5,-35.15 1597,-45.15 1604,-45.15"/>
</a>
</g>
</g>
<!-- Node16&#45;&gt;Node10 -->
<g id="edge18_Node000016_Node000010" class="edge">
<title>Node16&#45;&gt;Node10</title>
<g id="a_edge18_Node000016_Node000010"><a xlink:title=" ">
<path fill="none" stroke="#63b8ff" d="M1678.07,-70.96C1675.18,-70.41 1672.31,-69.92 1669.5,-69.5 1280.07,-11.97 1174.25,-88.81 784.5,-33.5 778.48,-32.65 772.2,-31.47 766.04,-30.14"/>
<polygon fill="#63b8ff" stroke="#63b8ff" points="767.13,-26.8 756.6,-27.96 765.56,-33.62 767.13,-26.8"/>
</a>
</g>
</g>
<!-- Node17 -->
<g id="Node000017" class="node">
<title>Node17</title>
<g id="a_Node000017"><a xlink:href="Felt_2IR_2Dialect_8h_8inc.html" target="_top" xlink:title=" ">
<polygon fill="white" stroke="#666666" points="1782.75,-33.5 1678.25,-33.5 1678.25,0 1782.75,0 1782.75,-33.5"/>
<text text-anchor="start" x="1686.25" y="-20" font-family="Helvetica,sans-Serif" font-size="10.00">llzk/Dialect/Felt/IR</text>
<text text-anchor="middle" x="1730.5" y="-7.25" font-family="Helvetica,sans-Serif" font-size="10.00">/Dialect.h.inc</text>
</a>
</g>
</g>
<!-- Node16&#45;&gt;Node17 -->
<g id="edge19_Node000016_Node000017" class="edge">
<title>Node16&#45;&gt;Node17</title>
<g id="a_edge19_Node000016_Node000017"><a xlink:title=" ">
<path fill="none" stroke="#63b8ff" d="M1730.5,-69.25C1730.5,-62.02 1730.5,-53.28 1730.5,-45.06"/>
<polygon fill="#63b8ff" stroke="#63b8ff" points="1734,-45.15 1730.5,-35.15 1727,-45.15 1734,-45.15"/>
</a>
</g>
</g>
<!-- Node18&#45;&gt;Node10 -->
<g id="edge21_Node000018_Node000010" class="edge">
<title>Node18&#45;&gt;Node10</title>
<g id="a_edge21_Node000018_Node000010"><a xlink:title=" ">
<path fill="none" stroke="#63b8ff" d="M115.34,-70.87C118.09,-70.37 120.82,-69.91 123.5,-69.5 357.79,-33.87 421.27,-69.53 655.5,-33.5 661.45,-32.58 667.66,-31.39 673.78,-30.08"/>
<polygon fill="#63b8ff" stroke="#63b8ff" points="674.17,-33.58 683.14,-27.94 672.61,-26.75 674.17,-33.58"/>
</a>
</g>
</g>
<!-- Node19 -->
<g id="Node000019" class="node">
<title>Node19</title>
<g id="a_Node000019"><a xlink:href="Function_2IR_2Dialect_8h_8inc.html" target="_top" xlink:title=" ">
<polygon fill="white" stroke="#666666" points="115,-33.5 0,-33.5 0,0 115,0 115,-33.5"/>
<text text-anchor="start" x="8" y="-20" font-family="Helvetica,sans-Serif" font-size="10.00">llzk/Dialect/Function</text>
<text text-anchor="middle" x="57.5" y="-7.25" font-family="Helvetica,sans-Serif" font-size="10.00">/IR/Dialect.h.inc</text>
</a>
</g>
</g>
<!-- Node18&#45;&gt;Node19 -->
<g id="edge22_Node000018_Node000019" class="edge">
<title>Node18&#45;&gt;Node19</title>
<g id="a_edge22_Node000018_Node000019"><a xlink:title=" ">
<path fill="none" stroke="#63b8ff" d="M57.5,-69.25C57.5,-62.02 57.5,-53.28 57.5,-45.06"/>
<polygon fill="#63b8ff" stroke="#63b8ff" points="61,-45.15 57.5,-35.15 54,-45.15 61,-45.15"/>
</a>
</g>
</g>
<!-- Node20&#45;&gt;Node10 -->
<g id="edge24_Node000020_Node000010" class="edge">
<title>Node20&#45;&gt;Node10</title>
<g id="a_edge24_Node000020_Node000010"><a xlink:title=" ">
<path fill="none" stroke="#63b8ff" d="M238.62,-70.99C241.27,-70.44 243.91,-69.94 246.5,-69.5 426.34,-38.59 475.43,-63.07 655.5,-33.5 661.23,-32.56 667.19,-31.39 673.09,-30.11"/>
<polygon fill="#63b8ff" stroke="#63b8ff" points="673.81,-33.53 682.78,-27.89 672.25,-26.71 673.81,-33.53"/>
</a>
</g>
</g>
<!-- Node21 -->
<g id="Node000021" class="node">
<title>Node21</title>
<g id="a_Node000021"><a xlink:href="Global_2IR_2Dialect_8h_8inc.html" target="_top" xlink:title=" ">
<polygon fill="white" stroke="#666666" points="238.12,-33.5 132.88,-33.5 132.88,0 238.12,0 238.12,-33.5"/>
<text text-anchor="start" x="140.88" y="-20" font-family="Helvetica,sans-Serif" font-size="10.00">llzk/Dialect/Global</text>
<text text-anchor="middle" x="185.5" y="-7.25" font-family="Helvetica,sans-Serif" font-size="10.00">/IR/Dialect.h.inc</text>
</a>
</g>
</g>
<!-- Node20&#45;&gt;Node21 -->
<g id="edge25_Node000020_Node000021" class="edge">
<title>Node20&#45;&gt;Node21</title>
<g id="a_edge25_Node000020_Node000021"><a xlink:title=" ">
<path fill="none" stroke="#63b8ff" d="M185.5,-69.25C185.5,-62.02 185.5,-53.28 185.5,-45.06"/>
<polygon fill="#63b8ff" stroke="#63b8ff" points="189,-45.15 185.5,-35.15 182,-45.15 189,-45.15"/>
</a>
</g>
</g>
<!-- Node22&#45;&gt;Node10 -->
<g id="edge27_Node000022_Node000010" class="edge">
<title>Node22&#45;&gt;Node10</title>
<g id="a_edge27_Node000022_Node000010"><a xlink:title=" ">
<path fill="none" stroke="#63b8ff" d="M365.22,-71.35C368.35,-70.69 371.46,-70.07 374.5,-69.5 498.28,-46.42 531.68,-56.36 655.5,-33.5 660.79,-32.52 666.29,-31.39 671.76,-30.18"/>
<polygon fill="#63b8ff" stroke="#63b8ff" points="672.41,-33.62 681.37,-27.96 670.84,-26.79 672.41,-33.62"/>
</a>
</g>
</g>
<!-- Node23 -->
<g id="Node000023" class="node">
<title>Node23</title>
<g id="a_Node000023"><a xlink:href="Include_2IR_2Dialect_8h_8inc.html" target="_top" xlink:title=" ">
<polygon fill="white" stroke="#666666" points="365,-33.5 256,-33.5 256,0 365,0 365,-33.5"/>
<text text-anchor="start" x="264" y="-20" font-family="Helvetica,sans-Serif" font-size="10.00">llzk/Dialect/Include</text>
<text text-anchor="middle" x="310.5" y="-7.25" font-family="Helvetica,sans-Serif" font-size="10.00">/IR/Dialect.h.inc</text>
</a>
</g>
</g>
<!-- Node22&#45;&gt;Node23 -->
<g id="edge28_Node000022_Node000023" class="edge">
<title>Node22&#45;&gt;Node23</title>
<g id="a_edge28_Node000022_Node000023"><a xlink:title=" ">
<path fill="none" stroke="#63b8ff" d="M310.5,-69.25C310.5,-62.02 310.5,-53.28 310.5,-45.06"/>
<polygon fill="#63b8ff" stroke="#63b8ff" points="314,-45.15 310.5,-35.15 307,-45.15 314,-45.15"/>
</a>
</g>
</g>
<!-- Node24&#45;&gt;Node10 -->
<g id="edge30_Node000024_Node000010" class="edge">
<title>Node24&#45;&gt;Node10</title>
<g id="a_edge30_Node000024_Node000010"><a xlink:title=" ">
<path fill="none" stroke="#63b8ff" d="M493.81,-72.12C537.67,-61.69 600.52,-46.72 655.5,-33.5 659.82,-32.46 664.3,-31.38 668.8,-30.29"/>
<polygon fill="#63b8ff" stroke="#63b8ff" points="669.57,-33.71 678.47,-27.96 667.92,-26.91 669.57,-33.71"/>
</a>
</g>
</g>
<!-- Node25 -->
<g id="Node000025" class="node">
<title>Node25</title>
<g id="a_Node000025"><a xlink:href="LLZK_2IR_2Dialect_8h_8inc.html" target="_top" xlink:title=" ">
<polygon fill="white" stroke="#666666" points="493.75,-33.5 383.25,-33.5 383.25,0 493.75,0 493.75,-33.5"/>
<text text-anchor="start" x="391.25" y="-20" font-family="Helvetica,sans-Serif" font-size="10.00">llzk/Dialect/LLZK/IR</text>
<text text-anchor="middle" x="438.5" y="-7.25" font-family="Helvetica,sans-Serif" font-size="10.00">/Dialect.h.inc</text>
</a>
</g>
</g>
<!-- Node24&#45;&gt;Node25 -->
<g id="edge31_Node000024_Node000025" class="edge">
<title>Node24&#45;&gt;Node25</title>
<g id="a_edge31_Node000024_Node000025"><a xlink:title=" ">
<path fill="none" stroke="#63b8ff" d="M438.5,-69.25C438.5,-62.02 438.5,-53.28 438.5,-45.06"/>
<polygon fill="#63b8ff" stroke="#63b8ff" points="442,-45.15 438.5,-35.15 435,-45.15 442,-45.15"/>
</a>
</g>
</g>
<!-- Node26&#45;&gt;Node10 -->
<g id="edge33_Node000026_Node000010" class="edge">
<title>Node26&#45;&gt;Node10</title>
<g id="a_edge33_Node000026_Node000010"><a xlink:title=" ">
<path fill="none" stroke="#63b8ff" d="M641.41,-69.08C657.93,-58.36 679.52,-44.35 695.96,-33.68"/>
<polygon fill="#63b8ff" stroke="#63b8ff" points="697.69,-36.73 704.18,-28.35 693.88,-30.85 697.69,-36.73"/>
</a>
</g>
</g>
<!-- Node27 -->
<g id="Node000027" class="node">
<title>Node27</title>
<g id="a_Node000027"><a xlink:href="Polymorphic_2IR_2Dialect_8h_8inc.html" target="_top" xlink:title=" ">
<polygon fill="white" stroke="#666666" points="646.75,-33.5 512.25,-33.5 512.25,0 646.75,0 646.75,-33.5"/>
<text text-anchor="start" x="520.25" y="-20" font-family="Helvetica,sans-Serif" font-size="10.00">llzk/Dialect/Polymorphic</text>
<text text-anchor="middle" x="579.5" y="-7.25" font-family="Helvetica,sans-Serif" font-size="10.00">/IR/Dialect.h.inc</text>
</a>
</g>
</g>
<!-- Node26&#45;&gt;Node27 -->
<g id="edge34_Node000026_Node000027" class="edge">
<title>Node26&#45;&gt;Node27</title>
<g id="a_edge34_Node000026_Node000027"><a xlink:title=" ">
<path fill="none" stroke="#63b8ff" d="M607.73,-69.25C603.54,-61.6 598.41,-52.25 593.69,-43.63"/>
<polygon fill="#63b8ff" stroke="#63b8ff" points="596.81,-42.05 588.93,-34.96 590.67,-45.41 596.81,-42.05"/>
</a>
</g>
</g>
<!-- Node28&#45;&gt;Node10 -->
<g id="edge36_Node000028_Node000010" class="edge">
<title>Node28&#45;&gt;Node10</title>
<g id="a_edge36_Node000028_Node000010"><a xlink:title=" ">
<path fill="none" stroke="#63b8ff" d="M744.92,-69.25C740.46,-59.85 734.78,-47.87 730.02,-37.84"/>
<polygon fill="#63b8ff" stroke="#63b8ff" points="733.25,-36.48 725.8,-28.94 726.93,-39.47 733.25,-36.48"/>
</a>
</g>
</g>
<!-- Node29 -->
<g id="Node000029" class="node">
<title>Node29</title>
<g id="a_Node000029"><a xlink:href="String_2IR_2Dialect_8h_8inc.html" target="_top" xlink:title=" ">
<polygon fill="white" stroke="#666666" points="895.62,-33.5 793.38,-33.5 793.38,0 895.62,0 895.62,-33.5"/>
<text text-anchor="start" x="801.38" y="-20" font-family="Helvetica,sans-Serif" font-size="10.00">llzk/Dialect/String</text>
<text text-anchor="middle" x="844.5" y="-7.25" font-family="Helvetica,sans-Serif" font-size="10.00">/IR/Dialect.h.inc</text>
</a>
</g>
</g>
<!-- Node28&#45;&gt;Node29 -->
<g id="edge37_Node000028_Node000029" class="edge">
<title>Node28&#45;&gt;Node29</title>
<g id="a_edge37_Node000028_Node000029"><a xlink:title=" ">
<path fill="none" stroke="#63b8ff" d="M774.3,-69.25C786.02,-60.66 800.66,-49.91 813.54,-40.47"/>
<polygon fill="#63b8ff" stroke="#63b8ff" points="815.32,-43.5 821.31,-34.76 811.18,-37.85 815.32,-43.5"/>
</a>
</g>
</g>
<!-- Node30&#45;&gt;Node10 -->
<g id="edge39_Node000030_Node000010" class="edge">
<title>Node30&#45;&gt;Node10</title>
<g id="a_edge39_Node000030_Node000010"><a xlink:title=" ">
<path fill="none" stroke="#63b8ff" d="M836.09,-69.08C810.81,-57.85 777.41,-43.02 753.02,-32.19"/>
<polygon fill="#63b8ff" stroke="#63b8ff" points="754.45,-29 743.89,-28.14 751.61,-35.39 754.45,-29"/>
</a>
</g>
</g>
<!-- Node31 -->
<g id="Node000031" class="node">
<title>Node31</title>
<g id="a_Node000031"><a xlink:href="Struct_2IR_2Dialect_8h_8inc.html" target="_top" xlink:title=" ">
<polygon fill="white" stroke="#666666" points="1015.62,-33.5 913.38,-33.5 913.38,0 1015.62,0 1015.62,-33.5"/>
<text text-anchor="start" x="921.38" y="-20" font-family="Helvetica,sans-Serif" font-size="10.00">llzk/Dialect/Struct</text>
<text text-anchor="middle" x="964.5" y="-7.25" font-family="Helvetica,sans-Serif" font-size="10.00">/IR/Dialect.h.inc</text>
</a>
</g>
</g>
<!-- Node30&#45;&gt;Node31 -->
<g id="edge40_Node000030_Node000031" class="edge">
<title>Node30&#45;&gt;Node31</title>
<g id="a_edge40_Node000030_Node000031"><a xlink:title=" ">
<path fill="none" stroke="#63b8ff" d="M894.3,-69.25C906.02,-60.66 920.66,-49.91 933.54,-40.47"/>
<polygon fill="#63b8ff" stroke="#63b8ff" points="935.32,-43.5 941.31,-34.76 931.18,-37.85 935.32,-43.5"/>
</a>
</g>
</g>
</g>
</svg>
