<?xml version="1.0" encoding="UTF-8" standalone="no"?>
<!DOCTYPE svg PUBLIC "-//W3C//DTD SVG 1.1//EN"
 "http://www.w3.org/Graphics/SVG/1.1/DTD/svg11.dtd">
<!-- Generated by graphviz version 12.2.1 (0)
 -->
<!-- Title: include/llzk/Dialect/InitDialects.h Pages: 1 -->
<svg width="691pt" height="111pt"
 viewBox="0.00 0.00 691.25 111.00" xmlns="http://www.w3.org/2000/svg" xmlns:xlink="http://www.w3.org/1999/xlink">
<g id="graph0" class="graph" transform="scale(1 1) rotate(0) translate(4 107)">
<title>include/llzk/Dialect/InitDialects.h</title>
<!-- Node1 -->
<g id="Node000001" class="node">
<title>Node1</title>
<g id="a_Node000001"><a xlink:title="This file defines llzk::registerAllDialects.">
<polygon fill="#999999" stroke="#666666" points="416.75,-103 307.75,-103 307.75,-69.5 416.75,-69.5 416.75,-103"/>
<text text-anchor="start" x="315.75" y="-89.5" font-family="Helvetica,sans-Serif" font-size="10.00">include/llzk/Dialect</text>
<text text-anchor="middle" x="362.25" y="-76.75" font-family="Helvetica,sans-Serif" font-size="10.00">/InitDialects.h</text>
</a>
</g>
</g>
<!-- Node2 -->
<g id="Node000002" class="node">
<title>Node2</title>
<g id="a_Node000002"><a xlink:href="LLZKRegistration_8cpp.html" target="_top" xlink:title="This defines a module that can be used to register the LLZK dialects.">
<polygon fill="white" stroke="#666666" points="122.5,-33.5 0,-33.5 0,0 122.5,0 122.5,-33.5"/>
<text text-anchor="start" x="8" y="-20" font-family="Helvetica,sans-Serif" font-size="10.00">lib/Bindings/Python</text>
<text text-anchor="middle" x="61.25" y="-7.25" font-family="Helvetica,sans-Serif" font-size="10.00">/LLZKRegistration.cpp</text>
</a>
</g>
</g>
<!-- Node1&#45;&gt;Node2 -->
<g id="edge1_Node000001_Node000002" class="edge">
<title>Node1&#45;&gt;Node2</title>
<g id="a_edge1_Node000001_Node000002"><a xlink:title=" ">
<path fill="none" stroke="#63b8ff" d="M296.57,-70.55C250.33,-60.2 187,-46.02 131.25,-33.5 128.45,-32.87 125.6,-32.23 122.71,-31.58"/>
<polygon fill="#63b8ff" stroke="#63b8ff" points="295.64,-73.93 306.16,-72.7 297.17,-67.1 295.64,-73.93"/>
</a>
</g>
</g>
<!-- Node3 -->
<g id="Node000003" class="node">
<title>Node3</title>
<g id="a_Node000003"><a xlink:href="CAPI_2InitDialects_8cpp.html" target="_top" xlink:title=" ">
<polygon fill="white" stroke="#666666" points="272.38,-27.12 140.12,-27.12 140.12,-6.38 272.38,-6.38 272.38,-27.12"/>
<text text-anchor="middle" x="206.25" y="-13.62" font-family="Helvetica,sans-Serif" font-size="10.00">lib/CAPI/InitDialects.cpp</text>
</a>
</g>
</g>
<!-- Node1&#45;&gt;Node3 -->
<g id="edge2_Node000001_Node000003" class="edge">
<title>Node1&#45;&gt;Node3</title>
<g id="a_edge2_Node000001_Node000003"><a xlink:title=" ">
<path fill="none" stroke="#63b8ff" d="M314.33,-64.51C285.87,-52.2 251.11,-37.16 228.83,-27.52"/>
<polygon fill="#63b8ff" stroke="#63b8ff" points="312.93,-67.72 323.5,-68.48 315.71,-61.3 312.93,-67.72"/>
</a>
</g>
</g>
<!-- Node4 -->
<g id="Node000004" class="node">
<title>Node4</title>
<g id="a_Node000004"><a xlink:href="Dialect_2InitDialects_8cpp.html" target="_top" xlink:title=" ">
<polygon fill="white" stroke="#666666" points="434.38,-27.12 290.12,-27.12 290.12,-6.38 434.38,-6.38 434.38,-27.12"/>
<text text-anchor="middle" x="362.25" y="-13.62" font-family="Helvetica,sans-Serif" font-size="10.00">lib/Dialect/InitDialects.cpp</text>
</a>
</g>
</g>
<!-- Node1&#45;&gt;Node4 -->
<g id="edge3_Node000001_Node000004" class="edge">
<title>Node1&#45;&gt;Node4</title>
<g id="a_edge3_Node000001_Node000004"><a xlink:title=" ">
<path fill="none" stroke="#63b8ff" d="M362.25,-57.78C362.25,-47.08 362.25,-35.51 362.25,-27.57"/>
<polygon fill="#63b8ff" stroke="#63b8ff" points="358.75,-57.74 362.25,-67.74 365.75,-57.74 358.75,-57.74"/>
</a>
</g>
</g>
<!-- Node5 -->
<g id="Node000005" class="node">
<title>Node5</title>
<g id="a_Node000005"><a xlink:href="llzk-lsp-server_8cpp.html" target="_top" xlink:title=" ">
<polygon fill="white" stroke="#666666" points="565.62,-33.5 452.88,-33.5 452.88,0 565.62,0 565.62,-33.5"/>
<text text-anchor="start" x="460.88" y="-20" font-family="Helvetica,sans-Serif" font-size="10.00">tools/llzk&#45;lsp&#45;server</text>
<text text-anchor="middle" x="509.25" y="-7.25" font-family="Helvetica,sans-Serif" font-size="10.00">/llzk&#45;lsp&#45;server.cpp</text>
</a>
</g>
</g>
<!-- Node1&#45;&gt;Node5 -->
<g id="edge4_Node000001_Node000005" class="edge">
<title>Node1&#45;&gt;Node5</title>
<g id="a_edge4_Node000001_Node000005"><a xlink:title=" ">
<path fill="none" stroke="#63b8ff" d="M407.91,-64.28C429.24,-54.49 454.24,-43.01 474.07,-33.9"/>
<polygon fill="#63b8ff" stroke="#63b8ff" points="406.46,-61.1 398.84,-68.45 409.38,-67.46 406.46,-61.1"/>
</a>
</g>
</g>
<!-- Node6 -->
<g id="Node000006" class="node">
<title>Node6</title>
<g id="a_Node000006"><a xlink:href="llzk-opt_8cpp.html" target="_top" xlink:title="This file implements a version of the mlir&#45;opt tool configured for use on LLZK files.">
<polygon fill="white" stroke="#666666" points="683.25,-33.5 583.25,-33.5 583.25,0 683.25,0 683.25,-33.5"/>
<text text-anchor="start" x="591.25" y="-20" font-family="Helvetica,sans-Serif" font-size="10.00">tools/llzk&#45;opt/llzk</text>
<text text-anchor="middle" x="633.25" y="-7.25" font-family="Helvetica,sans-Serif" font-size="10.00">&#45;opt.cpp</text>
</a>
</g>
</g>
<!-- Node1&#45;&gt;Node6 -->
<g id="edge5_Node000001_Node000006" class="edge">
<title>Node1&#45;&gt;Node6</title>
<g id="a_edge5_Node000001_Node000006"><a xlink:title=" ">
<path fill="none" stroke="#63b8ff" d="M428.4,-69.49C470.26,-59.42 525.49,-45.96 574.25,-33.5 577.13,-32.77 580.08,-32 583.06,-31.23"/>
<polygon fill="#63b8ff" stroke="#63b8ff" points="427.62,-66.08 418.71,-71.82 429.25,-72.88 427.62,-66.08"/>
</a>
</g>
</g>
</g>
</svg>
