<?xml version="1.0" encoding="UTF-8" standalone="no"?>
<!DOCTYPE svg PUBLIC "-//W3C//DTD SVG 1.1//EN"
 "http://www.w3.org/Graphics/SVG/1.1/DTD/svg11.dtd">
<!-- Generated by graphviz version 12.2.1 (0)
 -->
<!-- Title: include/llzk&#45;c/Support.h Pages: 1 -->
<svg width="2787pt" height="155pt"
 viewBox="0.00 0.00 2786.62 155.00" xmlns="http://www.w3.org/2000/svg" xmlns:xlink="http://www.w3.org/1999/xlink">
<g id="graph0" class="graph" transform="scale(1 1) rotate(0) translate(4 151)">
<title>include/llzk&#45;c/Support.h</title>
<!-- Node1 -->
<g id="Node000001" class="node">
<title>Node1</title>
<g id="a_Node000001"><a xlink:title=" ">
<polygon fill="#999999" stroke="#666666" points="591.5,-147 461.5,-147 461.5,-126.25 591.5,-126.25 591.5,-147"/>
<text text-anchor="middle" x="526.5" y="-133.5" font-family="Helvetica,sans-Serif" font-size="10.00">include/llzk&#45;c/Support.h</text>
</a>
</g>
</g>
<!-- Node2 -->
<g id="Node000002" class="node">
<title>Node2</title>
<g id="a_Node000002"><a xlink:href="Array_8h.html" target="_top" xlink:title=" ">
<polygon fill="white" stroke="#666666" points="169.5,-90.25 51.5,-90.25 51.5,-56.75 169.5,-56.75 169.5,-90.25"/>
<text text-anchor="start" x="59.5" y="-76.75" font-family="Helvetica,sans-Serif" font-size="10.00">include/llzk&#45;c/Dialect</text>
<text text-anchor="middle" x="110.5" y="-64" font-family="Helvetica,sans-Serif" font-size="10.00">/Array.h</text>
</a>
</g>
</g>
<!-- Node1&#45;&gt;Node2 -->
<g id="edge1_Node000001_Node000002" class="edge">
<title>Node1&#45;&gt;Node2</title>
<g id="a_edge1_Node000001_Node000002"><a xlink:title=" ">
<path fill="none" stroke="#63b8ff" d="M449.85,-127.28C380.16,-119.28 274.6,-106.08 183.5,-90.25 179.03,-89.47 174.42,-88.61 169.78,-87.71"/>
<polygon fill="#63b8ff" stroke="#63b8ff" points="449.31,-130.75 459.64,-128.4 450.1,-123.79 449.31,-130.75"/>
</a>
</g>
</g>
<!-- Node3 -->
<g id="Node000003" class="node">
<title>Node3</title>
<g id="a_Node000003"><a xlink:href="Array_8cpp.html" target="_top" xlink:title=" ">
<polygon fill="white" stroke="#666666" points="139,-20.75 0,-20.75 0,0 139,0 139,-20.75"/>
<text text-anchor="middle" x="69.5" y="-7.25" font-family="Helvetica,sans-Serif" font-size="10.00">lib/CAPI/Dialect/Array.cpp</text>
</a>
</g>
</g>
<!-- Node1&#45;&gt;Node3 -->
<g id="edge34_Node000001_Node000003" class="edge">
<title>Node1&#45;&gt;Node3</title>
<g id="a_edge34_Node000001_Node000003"><a xlink:title=" ">
<path fill="none" stroke="#63b8ff" d="M450,-133.99C320.48,-130.42 69.36,-119.74 42.5,-90.25 24.28,-70.24 47.08,-37.38 60.7,-21.11"/>
<polygon fill="#63b8ff" stroke="#63b8ff" points="449.79,-137.48 459.88,-134.25 449.97,-130.49 449.79,-137.48"/>
</a>
</g>
</g>
<!-- Node4 -->
<g id="Node000004" class="node">
<title>Node4</title>
<g id="a_Node000004"><a xlink:href="Cast_8h.html" target="_top" xlink:title=" ">
<polygon fill="white" stroke="#666666" points="653.5,-90.25 535.5,-90.25 535.5,-56.75 653.5,-56.75 653.5,-90.25"/>
<text text-anchor="start" x="543.5" y="-76.75" font-family="Helvetica,sans-Serif" font-size="10.00">include/llzk&#45;c/Dialect</text>
<text text-anchor="middle" x="594.5" y="-64" font-family="Helvetica,sans-Serif" font-size="10.00">/Cast.h</text>
</a>
</g>
</g>
<!-- Node1&#45;&gt;Node4 -->
<g id="edge3_Node000001_Node000004" class="edge">
<title>Node1&#45;&gt;Node4</title>
<g id="a_edge3_Node000001_Node000004"><a xlink:title=" ">
<path fill="none" stroke="#63b8ff" d="M545.91,-118.18C555.51,-109.55 567.03,-99.19 576.44,-90.73"/>
<polygon fill="#63b8ff" stroke="#63b8ff" points="543.65,-115.5 538.55,-124.79 548.33,-120.71 543.65,-115.5"/>
</a>
</g>
</g>
<!-- Node6 -->
<g id="Node000006" class="node">
<title>Node6</title>
<g id="a_Node000006"><a xlink:href="Function_8h.html" target="_top" xlink:title=" ">
<polygon fill="white" stroke="#666666" points="343.5,-90.25 225.5,-90.25 225.5,-56.75 343.5,-56.75 343.5,-90.25"/>
<text text-anchor="start" x="233.5" y="-76.75" font-family="Helvetica,sans-Serif" font-size="10.00">include/llzk&#45;c/Dialect</text>
<text text-anchor="middle" x="284.5" y="-64" font-family="Helvetica,sans-Serif" font-size="10.00">/Function.h</text>
</a>
</g>
</g>
<!-- Node1&#45;&gt;Node6 -->
<g id="edge5_Node000001_Node000006" class="edge">
<title>Node1&#45;&gt;Node6</title>
<g id="a_edge5_Node000001_Node000006"><a xlink:title=" ">
<path fill="none" stroke="#63b8ff" d="M476.65,-123.03C438.03,-113.28 384.41,-99.74 343.63,-89.44"/>
<polygon fill="#63b8ff" stroke="#63b8ff" points="475.6,-126.38 486.15,-125.43 477.31,-119.59 475.6,-126.38"/>
</a>
</g>
</g>
<!-- Node7 -->
<g id="Node000007" class="node">
<title>Node7</title>
<g id="a_Node000007"><a xlink:href="Function_8cpp.html" target="_top" xlink:title=" ">
<polygon fill="white" stroke="#666666" points="312.25,-20.75 156.75,-20.75 156.75,0 312.25,0 312.25,-20.75"/>
<text text-anchor="middle" x="234.5" y="-7.25" font-family="Helvetica,sans-Serif" font-size="10.00">lib/CAPI/Dialect/Function.cpp</text>
</a>
</g>
</g>
<!-- Node1&#45;&gt;Node7 -->
<g id="edge35_Node000001_Node000007" class="edge">
<title>Node1&#45;&gt;Node7</title>
<g id="a_edge35_Node000001_Node000007"><a xlink:title=" ">
<path fill="none" stroke="#63b8ff" d="M450.07,-135.42C368.22,-133.39 246.1,-124.49 216.5,-90.25 199.33,-70.38 216.85,-37.45 227.54,-21.15"/>
<polygon fill="#63b8ff" stroke="#63b8ff" points="449.75,-138.92 459.82,-135.63 449.9,-131.92 449.75,-138.92"/>
</a>
</g>
</g>
<!-- Node8 -->
<g id="Node000008" class="node">
<title>Node8</title>
<g id="a_Node000008"><a xlink:href="POD_8h.html" target="_top" xlink:title=" ">
<polygon fill="white" stroke="#666666" points="517.5,-90.25 399.5,-90.25 399.5,-56.75 517.5,-56.75 517.5,-90.25"/>
<text text-anchor="start" x="407.5" y="-76.75" font-family="Helvetica,sans-Serif" font-size="10.00">include/llzk&#45;c/Dialect</text>
<text text-anchor="middle" x="458.5" y="-64" font-family="Helvetica,sans-Serif" font-size="10.00">/POD.h</text>
</a>
</g>
</g>
<!-- Node1&#45;&gt;Node8 -->
<g id="edge7_Node000001_Node000008" class="edge">
<title>Node1&#45;&gt;Node8</title>
<g id="a_edge7_Node000001_Node000008"><a xlink:title=" ">
<path fill="none" stroke="#63b8ff" d="M507.09,-118.18C497.49,-109.55 485.97,-99.19 476.56,-90.73"/>
<polygon fill="#63b8ff" stroke="#63b8ff" points="504.67,-120.71 514.45,-124.79 509.35,-115.5 504.67,-120.71"/>
</a>
</g>
</g>
<!-- Node9 -->
<g id="Node000009" class="node">
<title>Node9</title>
<g id="a_Node000009"><a xlink:href="POD_8cpp.html" target="_top" xlink:title=" ">
<polygon fill="white" stroke="#666666" points="465.12,-20.75 329.88,-20.75 329.88,0 465.12,0 465.12,-20.75"/>
<text text-anchor="middle" x="397.5" y="-7.25" font-family="Helvetica,sans-Serif" font-size="10.00">lib/CAPI/Dialect/POD.cpp</text>
</a>
</g>
</g>
<!-- Node1&#45;&gt;Node9 -->
<g id="edge36_Node000001_Node000009" class="edge">
<title>Node1&#45;&gt;Node9</title>
<g id="a_edge36_Node000001_Node000009"><a xlink:title=" ">
<path fill="none" stroke="#63b8ff" d="M450.39,-127.46C427.41,-121.02 404.57,-109.78 390.5,-90.25 375.55,-69.5 386.02,-37.27 392.86,-21.19"/>
<polygon fill="#63b8ff" stroke="#63b8ff" points="449.27,-130.79 459.82,-129.81 450.96,-124 449.27,-130.79"/>
</a>
</g>
</g>
<!-- Node10 -->
<g id="Node000010" class="node">
<title>Node10</title>
<g id="a_Node000010"><a xlink:href="Poly_8h.html" target="_top" xlink:title=" ">
<polygon fill="white" stroke="#666666" points="789.5,-90.25 671.5,-90.25 671.5,-56.75 789.5,-56.75 789.5,-90.25"/>
<text text-anchor="start" x="679.5" y="-76.75" font-family="Helvetica,sans-Serif" font-size="10.00">include/llzk&#45;c/Dialect</text>
<text text-anchor="middle" x="730.5" y="-64" font-family="Helvetica,sans-Serif" font-size="10.00">/Poly.h</text>
</a>
</g>
</g>
<!-- Node1&#45;&gt;Node10 -->
<g id="edge9_Node000001_Node000010" class="edge">
<title>Node1&#45;&gt;Node10</title>
<g id="a_edge9_Node000001_Node000010"><a xlink:title=" ">
<path fill="none" stroke="#63b8ff" d="M570.19,-122.53C601.24,-113.23 643.14,-100.68 676.32,-90.73"/>
<polygon fill="#63b8ff" stroke="#63b8ff" points="569.3,-119.15 560.73,-125.37 571.31,-125.85 569.3,-119.15"/>
</a>
</g>
</g>
<!-- Node12 -->
<g id="Node000012" class="node">
<title>Node12</title>
<g id="a_Node000012"><a xlink:href="Struct_8h.html" target="_top" xlink:title=" ">
<polygon fill="white" stroke="#666666" points="925.5,-90.25 807.5,-90.25 807.5,-56.75 925.5,-56.75 925.5,-90.25"/>
<text text-anchor="start" x="815.5" y="-76.75" font-family="Helvetica,sans-Serif" font-size="10.00">include/llzk&#45;c/Dialect</text>
<text text-anchor="middle" x="866.5" y="-64" font-family="Helvetica,sans-Serif" font-size="10.00">/Struct.h</text>
</a>
</g>
</g>
<!-- Node1&#45;&gt;Node12 -->
<g id="edge11_Node000001_Node000012" class="edge">
<title>Node1&#45;&gt;Node12</title>
<g id="a_edge11_Node000001_Node000012"><a xlink:title=" ">
<path fill="none" stroke="#63b8ff" d="M603.17,-124.14C657.79,-115.64 732.86,-103.31 798.5,-90.25 801.35,-89.68 804.27,-89.08 807.21,-88.46"/>
<polygon fill="#63b8ff" stroke="#63b8ff" points="602.68,-120.68 593.33,-125.66 603.75,-127.59 602.68,-120.68"/>
</a>
</g>
</g>
<!-- Node14 -->
<g id="Node000014" class="node">
<title>Node14</title>
<g id="a_Node000014"><a xlink:href="Verif_8h.html" target="_top" xlink:title=" ">
<polygon fill="white" stroke="#666666" points="1071.5,-90.25 953.5,-90.25 953.5,-56.75 1071.5,-56.75 1071.5,-90.25"/>
<text text-anchor="start" x="961.5" y="-76.75" font-family="Helvetica,sans-Serif" font-size="10.00">include/llzk&#45;c/Dialect</text>
<text text-anchor="middle" x="1012.5" y="-64" font-family="Helvetica,sans-Serif" font-size="10.00">/Verif.h</text>
</a>
</g>
</g>
<!-- Node1&#45;&gt;Node14 -->
<g id="edge13_Node000001_Node000014" class="edge">
<title>Node1&#45;&gt;Node14</title>
<g id="a_edge13_Node000001_Node000014"><a xlink:title=" ">
<path fill="none" stroke="#63b8ff" d="M602.99,-129.16C685.18,-121.73 819.5,-108.22 934.5,-90.25 940.64,-89.29 947.04,-88.18 953.4,-87.01"/>
<polygon fill="#63b8ff" stroke="#63b8ff" points="602.9,-125.65 593.25,-130.03 603.53,-132.62 602.9,-125.65"/>
</a>
</g>
</g>
<!-- Node16 -->
<g id="Node000016" class="node">
<title>Node16</title>
<g id="a_Node000016"><a xlink:href="llzk_2CAPI_2Support_8h.html" target="_top" xlink:title=" ">
<polygon fill="white" stroke="#666666" points="1415.75,-83.88 1269.25,-83.88 1269.25,-63.12 1415.75,-63.12 1415.75,-83.88"/>
<text text-anchor="middle" x="1342.5" y="-70.38" font-family="Helvetica,sans-Serif" font-size="10.00">include/llzk/CAPI/Support.h</text>
</a>
</g>
</g>
<!-- Node1&#45;&gt;Node16 -->
<g id="edge15_Node000001_Node000016" class="edge">
<title>Node1&#45;&gt;Node16</title>
<g id="a_edge15_Node000001_Node000016"><a xlink:title=" ">
<path fill="none" stroke="#63b8ff" d="M603.29,-129.87C760.02,-118.13 1114.95,-91.55 1268.93,-80.01"/>
<polygon fill="#63b8ff" stroke="#63b8ff" points="603.12,-126.38 593.41,-130.61 603.64,-133.36 603.12,-126.38"/>
</a>
</g>
</g>
<!-- Node26 -->
<g id="Node000026" class="node">
<title>Node26</title>
<g id="a_Node000026"><a xlink:href="Support_8cpp.html" target="_top" xlink:title=" ">
<polygon fill="white" stroke="#666666" points="2778.62,-20.75 2664.38,-20.75 2664.38,0 2778.62,0 2778.62,-20.75"/>
<text text-anchor="middle" x="2721.5" y="-7.25" font-family="Helvetica,sans-Serif" font-size="10.00">lib/CAPI/Support.cpp</text>
</a>
</g>
</g>
<!-- Node1&#45;&gt;Node26 -->
<g id="edge37_Node000001_Node000026" class="edge">
<title>Node1&#45;&gt;Node26</title>
<g id="a_edge37_Node000001_Node000026"><a xlink:title=" ">
<path fill="none" stroke="#63b8ff" d="M603.11,-131.91C758.17,-124.35 1120.35,-106.52 1424.5,-90.25 1971.7,-60.98 2110.19,-74.78 2655.5,-20.75 2658.26,-20.48 2661.09,-20.17 2663.94,-19.84"/>
<polygon fill="#63b8ff" stroke="#63b8ff" points="603.19,-128.4 593.37,-132.38 603.53,-135.39 603.19,-128.4"/>
</a>
</g>
</g>
<!-- Node2&#45;&gt;Node3 -->
<g id="edge2_Node000002_Node000003" class="edge">
<title>Node2&#45;&gt;Node3</title>
<g id="a_edge2_Node000002_Node000003"><a xlink:title=" ">
<path fill="none" stroke="#63b8ff" d="M93.38,-46.98C87.29,-37.89 80.78,-28.19 76.1,-21.22"/>
<polygon fill="#63b8ff" stroke="#63b8ff" points="90.41,-48.83 98.88,-55.18 96.22,-44.93 90.41,-48.83"/>
</a>
</g>
</g>
<!-- Node5 -->
<g id="Node000005" class="node">
<title>Node5</title>
<g id="a_Node000005"><a xlink:href="Cast_8cpp.html" target="_top" xlink:title=" ">
<polygon fill="white" stroke="#666666" points="619.5,-20.75 483.5,-20.75 483.5,0 619.5,0 619.5,-20.75"/>
<text text-anchor="middle" x="551.5" y="-7.25" font-family="Helvetica,sans-Serif" font-size="10.00">lib/CAPI/Dialect/Cast.cpp</text>
</a>
</g>
</g>
<!-- Node4&#45;&gt;Node5 -->
<g id="edge4_Node000004_Node000005" class="edge">
<title>Node4&#45;&gt;Node5</title>
<g id="a_edge4_Node000004_Node000005"><a xlink:title=" ">
<path fill="none" stroke="#63b8ff" d="M576.75,-47.27C570.3,-38.1 563.38,-28.27 558.42,-21.22"/>
<polygon fill="#63b8ff" stroke="#63b8ff" points="573.72,-49.04 582.33,-55.2 579.44,-45.01 573.72,-49.04"/>
</a>
</g>
</g>
<!-- Node6&#45;&gt;Node7 -->
<g id="edge6_Node000006_Node000007" class="edge">
<title>Node6&#45;&gt;Node7</title>
<g id="a_edge6_Node000006_Node000007"><a xlink:title=" ">
<path fill="none" stroke="#63b8ff" d="M264.1,-47.56C256.53,-38.3 248.38,-28.34 242.55,-21.22"/>
<polygon fill="#63b8ff" stroke="#63b8ff" points="261.36,-49.74 270.4,-55.27 266.78,-45.31 261.36,-49.74"/>
</a>
</g>
</g>
<!-- Node8&#45;&gt;Node9 -->
<g id="edge8_Node000008_Node000009" class="edge">
<title>Node8&#45;&gt;Node9</title>
<g id="a_edge8_Node000008_Node000009"><a xlink:title=" ">
<path fill="none" stroke="#63b8ff" d="M434.47,-48.42C425,-38.93 414.65,-28.56 407.32,-21.22"/>
<polygon fill="#63b8ff" stroke="#63b8ff" points="431.86,-50.76 441.4,-55.37 436.82,-45.82 431.86,-50.76"/>
</a>
</g>
</g>
<!-- Node11 -->
<g id="Node000011" class="node">
<title>Node11</title>
<g id="a_Node000011"><a xlink:href="Poly_8cpp.html" target="_top" xlink:title=" ">
<polygon fill="white" stroke="#666666" points="771.38,-20.75 637.62,-20.75 637.62,0 771.38,0 771.38,-20.75"/>
<text text-anchor="middle" x="704.5" y="-7.25" font-family="Helvetica,sans-Serif" font-size="10.00">lib/CAPI/Dialect/Poly.cpp</text>
</a>
</g>
</g>
<!-- Node10&#45;&gt;Node11 -->
<g id="edge10_Node000010_Node000011" class="edge">
<title>Node10&#45;&gt;Node11</title>
<g id="a_edge10_Node000010_Node000011"><a xlink:title=" ">
<path fill="none" stroke="#63b8ff" d="M719.27,-46.11C715.52,-37.27 711.56,-27.97 708.69,-21.22"/>
<polygon fill="#63b8ff" stroke="#63b8ff" points="715.94,-47.22 723.08,-55.05 722.38,-44.48 715.94,-47.22"/>
</a>
</g>
</g>
<!-- Node13 -->
<g id="Node000013" class="node">
<title>Node13</title>
<g id="a_Node000013"><a xlink:href="Struct_8cpp.html" target="_top" xlink:title=" ">
<polygon fill="white" stroke="#666666" points="931.88,-20.75 789.12,-20.75 789.12,0 931.88,0 931.88,-20.75"/>
<text text-anchor="middle" x="860.5" y="-7.25" font-family="Helvetica,sans-Serif" font-size="10.00">lib/CAPI/Dialect/Struct.cpp</text>
</a>
</g>
</g>
<!-- Node12&#45;&gt;Node13 -->
<g id="edge12_Node000012_Node000013" class="edge">
<title>Node12&#45;&gt;Node13</title>
<g id="a_edge12_Node000012_Node000013"><a xlink:title=" ">
<path fill="none" stroke="#63b8ff" d="M863.82,-45.23C862.98,-36.66 862.11,-27.75 861.47,-21.22"/>
<polygon fill="#63b8ff" stroke="#63b8ff" points="860.32,-45.32 864.78,-54.93 867.28,-44.64 860.32,-45.32"/>
</a>
</g>
</g>
<!-- Node15 -->
<g id="Node000015" class="node">
<title>Node15</title>
<g id="a_Node000015"><a xlink:href="Verif_8cpp.html" target="_top" xlink:title=" ">
<polygon fill="white" stroke="#666666" points="1085.5,-20.75 949.5,-20.75 949.5,0 1085.5,0 1085.5,-20.75"/>
<text text-anchor="middle" x="1017.5" y="-7.25" font-family="Helvetica,sans-Serif" font-size="10.00">lib/CAPI/Dialect/Verif.cpp</text>
</a>
</g>
</g>
<!-- Node14&#45;&gt;Node15 -->
<g id="edge14_Node000014_Node000015" class="edge">
<title>Node14&#45;&gt;Node15</title>
<g id="a_edge14_Node000014_Node000015"><a xlink:title=" ">
<path fill="none" stroke="#63b8ff" d="M1014.73,-45.23C1015.43,-36.66 1016.16,-27.75 1016.69,-21.22"/>
<polygon fill="#63b8ff" stroke="#63b8ff" points="1011.26,-44.68 1013.94,-54.93 1018.24,-45.25 1011.26,-44.68"/>
</a>
</g>
</g>
<!-- Node16&#45;&gt;Node3 -->
<g id="edge17_Node000016_Node000003" class="edge">
<title>Node16&#45;&gt;Node3</title>
<g id="a_edge17_Node000016_Node000003"><a xlink:title=" ">
<path fill="none" stroke="#63b8ff" d="M1257.48,-66.93C1206.23,-63.68 1139.63,-59.67 1080.5,-56.75 666.03,-36.3 561.18,-53.54 147.5,-20.75 144.78,-20.53 142.01,-20.3 139.21,-20.04"/>
<polygon fill="#63b8ff" stroke="#63b8ff" points="1257.12,-70.41 1267.32,-67.55 1257.57,-63.42 1257.12,-70.41"/>
</a>
</g>
</g>
<!-- Node16&#45;&gt;Node5 -->
<g id="edge19_Node000016_Node000005" class="edge">
<title>Node16&#45;&gt;Node5</title>
<g id="a_edge19_Node000016_Node000005"><a xlink:title=" ">
<path fill="none" stroke="#63b8ff" d="M1257.55,-67.69C1123.64,-59.8 855.38,-42.77 628.5,-20.75 625.69,-20.48 622.81,-20.19 619.91,-19.88"/>
<polygon fill="#63b8ff" stroke="#63b8ff" points="1257.21,-71.17 1267.4,-68.27 1257.62,-64.19 1257.21,-71.17"/>
</a>
</g>
</g>
<!-- Node16&#45;&gt;Node7 -->
<g id="edge22_Node000016_Node000007" class="edge">
<title>Node16&#45;&gt;Node7</title>
<g id="a_edge22_Node000016_Node000007"><a xlink:title=" ">
<path fill="none" stroke="#63b8ff" d="M1257.47,-67.11C1206.21,-63.94 1139.62,-59.93 1080.5,-56.75 742.83,-38.6 657.63,-47.09 320.5,-20.75 317.8,-20.54 315.06,-20.31 312.3,-20.07"/>
<polygon fill="#63b8ff" stroke="#63b8ff" points="1257.12,-70.6 1267.32,-67.73 1257.55,-63.61 1257.12,-70.6"/>
</a>
</g>
</g>
<!-- Node16&#45;&gt;Node9 -->
<g id="edge26_Node000016_Node000009" class="edge">
<title>Node16&#45;&gt;Node9</title>
<g id="a_edge26_Node000016_Node000009"><a xlink:title=" ">
<path fill="none" stroke="#63b8ff" d="M1257.45,-67.37C1206.19,-64.29 1139.6,-60.28 1080.5,-56.75 811.17,-40.65 743.21,-45.07 474.5,-20.75 471.55,-20.48 468.54,-20.19 465.5,-19.88"/>
<polygon fill="#63b8ff" stroke="#63b8ff" points="1257.11,-70.86 1267.3,-67.97 1257.53,-63.87 1257.11,-70.86"/>
</a>
</g>
</g>
<!-- Node16&#45;&gt;Node11 -->
<g id="edge27_Node000016_Node000011" class="edge">
<title>Node16&#45;&gt;Node11</title>
<g id="a_edge27_Node000016_Node000011"><a xlink:title=" ">
<path fill="none" stroke="#63b8ff" d="M1257.42,-65.49C1147.27,-56.23 949.39,-38.94 780.5,-20.75 777.59,-20.44 774.62,-20.11 771.62,-19.77"/>
<polygon fill="#63b8ff" stroke="#63b8ff" points="1257.02,-68.97 1267.27,-66.32 1257.6,-61.99 1257.02,-68.97"/>
</a>
</g>
</g>
<!-- Node16&#45;&gt;Node13 -->
<g id="edge30_Node000016_Node000013" class="edge">
<title>Node16&#45;&gt;Node13</title>
<g id="a_edge30_Node000016_Node000013"><a xlink:title=" ">
<path fill="none" stroke="#63b8ff" d="M1257.5,-61.72C1165.11,-50 1019.09,-31.49 932.25,-20.47"/>
<polygon fill="#63b8ff" stroke="#63b8ff" points="1256.91,-65.17 1267.27,-62.96 1257.79,-58.23 1256.91,-65.17"/>
</a>
</g>
</g>
<!-- Node16&#45;&gt;Node15 -->
<g id="edge31_Node000016_Node000015" class="edge">
<title>Node16&#45;&gt;Node15</title>
<g id="a_edge31_Node000016_Node000015"><a xlink:title=" ">
<path fill="none" stroke="#63b8ff" d="M1279.26,-60.61C1218.23,-49.13 1126.92,-31.95 1069.86,-21.22"/>
<polygon fill="#63b8ff" stroke="#63b8ff" points="1278.32,-63.99 1288.8,-62.4 1279.61,-57.11 1278.32,-63.99"/>
</a>
</g>
</g>
<!-- Node17 -->
<g id="Node000017" class="node">
<title>Node17</title>
<g id="a_Node000017"><a xlink:href="Builder_8cpp.html" target="_top" xlink:title=" ">
<polygon fill="white" stroke="#666666" points="2163.75,-20.75 2053.25,-20.75 2053.25,0 2163.75,0 2163.75,-20.75"/>
<text text-anchor="middle" x="2108.5" y="-7.25" font-family="Helvetica,sans-Serif" font-size="10.00">lib/CAPI/Builder.cpp</text>
</a>
</g>
</g>
<!-- Node16&#45;&gt;Node17 -->
<g id="edge16_Node000016_Node000017" class="edge">
<title>Node16&#45;&gt;Node17</title>
<g id="a_edge16_Node000016_Node000017"><a xlink:title=" ">
<path fill="none" stroke="#63b8ff" d="M1427.4,-68.21C1559.58,-61.1 1822.45,-45.17 2044.5,-20.75 2047.29,-20.44 2050.15,-20.11 2053.03,-19.75"/>
<polygon fill="#63b8ff" stroke="#63b8ff" points="1427.49,-64.71 1417.7,-68.73 1427.87,-71.7 1427.49,-64.71"/>
</a>
</g>
</g>
<!-- Node18 -->
<g id="Node000018" class="node">
<title>Node18</title>
<g id="a_Node000018"><a xlink:href="Bool_8cpp.html" target="_top" xlink:title=" ">
<polygon fill="white" stroke="#666666" points="2317.5,-20.75 2181.5,-20.75 2181.5,0 2317.5,0 2317.5,-20.75"/>
<text text-anchor="middle" x="2249.5" y="-7.25" font-family="Helvetica,sans-Serif" font-size="10.00">lib/CAPI/Dialect/Bool.cpp</text>
</a>
</g>
</g>
<!-- Node16&#45;&gt;Node18 -->
<g id="edge18_Node000016_Node000018" class="edge">
<title>Node16&#45;&gt;Node18</title>
<g id="a_edge18_Node000016_Node000018"><a xlink:title=" ">
<path fill="none" stroke="#63b8ff" d="M1427.57,-68.85C1578.03,-62.03 1900.84,-45.73 2172.5,-20.75 2175.32,-20.49 2178.19,-20.21 2181.09,-19.92"/>
<polygon fill="#63b8ff" stroke="#63b8ff" points="1427.51,-65.35 1417.68,-69.3 1427.83,-72.34 1427.51,-65.35"/>
</a>
</g>
</g>
<!-- Node19 -->
<g id="Node000019" class="node">
<title>Node19</title>
<g id="a_Node000019"><a xlink:href="Constrain_8cpp.html" target="_top" xlink:title=" ">
<polygon fill="white" stroke="#666666" points="2495.88,-20.75 2335.12,-20.75 2335.12,0 2495.88,0 2495.88,-20.75"/>
<text text-anchor="middle" x="2415.5" y="-7.25" font-family="Helvetica,sans-Serif" font-size="10.00">lib/CAPI/Dialect/Constrain.cpp</text>
</a>
</g>
</g>
<!-- Node16&#45;&gt;Node19 -->
<g id="edge20_Node000016_Node000019" class="edge">
<title>Node16&#45;&gt;Node19</title>
<g id="a_edge20_Node000016_Node000019"><a xlink:title=" ">
<path fill="none" stroke="#63b8ff" d="M1427.43,-69.53C1598,-63.24 1994.33,-46.96 2326.5,-20.75 2329.29,-20.53 2332.12,-20.29 2334.99,-20.05"/>
<polygon fill="#63b8ff" stroke="#63b8ff" points="1427.41,-66.03 1417.55,-69.9 1427.67,-73.03 1427.41,-66.03"/>
</a>
</g>
</g>
<!-- Node20 -->
<g id="Node000020" class="node">
<title>Node20</title>
<g id="a_Node000020"><a xlink:href="Felt_8cpp.html" target="_top" xlink:title=" ">
<polygon fill="white" stroke="#666666" points="2646.62,-20.75 2514.38,-20.75 2514.38,0 2646.62,0 2646.62,-20.75"/>
<text text-anchor="middle" x="2580.5" y="-7.25" font-family="Helvetica,sans-Serif" font-size="10.00">lib/CAPI/Dialect/Felt.cpp</text>
</a>
</g>
</g>
<!-- Node16&#45;&gt;Node20 -->
<g id="edge21_Node000016_Node000020" class="edge">
<title>Node16&#45;&gt;Node20</title>
<g id="a_edge21_Node000016_Node000020"><a xlink:title=" ">
<path fill="none" stroke="#63b8ff" d="M1427.45,-70.99C1619.6,-67.08 2102.21,-54.47 2504.5,-20.75 2507.68,-20.48 2510.93,-20.18 2514.21,-19.86"/>
<polygon fill="#63b8ff" stroke="#63b8ff" points="1427.48,-67.49 1417.55,-71.19 1427.62,-74.49 1427.48,-67.49"/>
</a>
</g>
</g>
<!-- Node21 -->
<g id="Node000021" class="node">
<title>Node21</title>
<g id="a_Node000021"><a xlink:href="Global_8cpp.html" target="_top" xlink:title=" ">
<polygon fill="white" stroke="#666666" points="1249.38,-20.75 1103.62,-20.75 1103.62,0 1249.38,0 1249.38,-20.75"/>
<text text-anchor="middle" x="1176.5" y="-7.25" font-family="Helvetica,sans-Serif" font-size="10.00">lib/CAPI/Dialect/Global.cpp</text>
</a>
</g>
</g>
<!-- Node16&#45;&gt;Node21 -->
<g id="edge23_Node000016_Node000021" class="edge">
<title>Node16&#45;&gt;Node21</title>
<g id="a_edge23_Node000016_Node000021"><a xlink:title=" ">
<path fill="none" stroke="#63b8ff" d="M1305.41,-58.84C1274.36,-47.41 1230.79,-31.37 1203.1,-21.17"/>
<polygon fill="#63b8ff" stroke="#63b8ff" points="1303.82,-61.99 1314.41,-62.16 1306.23,-55.42 1303.82,-61.99"/>
</a>
</g>
</g>
<!-- Node22 -->
<g id="Node000022" class="node">
<title>Node22</title>
<g id="a_Node000022"><a xlink:href="Include_8cpp.html" target="_top" xlink:title=" ">
<polygon fill="white" stroke="#666666" points="1417.25,-20.75 1267.75,-20.75 1267.75,0 1417.25,0 1417.25,-20.75"/>
<text text-anchor="middle" x="1342.5" y="-7.25" font-family="Helvetica,sans-Serif" font-size="10.00">lib/CAPI/Dialect/Include.cpp</text>
</a>
</g>
</g>
<!-- Node16&#45;&gt;Node22 -->
<g id="edge24_Node000016_Node000022" class="edge">
<title>Node16&#45;&gt;Node22</title>
<g id="a_edge24_Node000016_Node000022"><a xlink:title=" ">
<path fill="none" stroke="#63b8ff" d="M1342.5,-51.24C1342.5,-40.93 1342.5,-29.06 1342.5,-20.97"/>
<polygon fill="#63b8ff" stroke="#63b8ff" points="1339,-51.17 1342.5,-61.17 1346,-51.17 1339,-51.17"/>
</a>
</g>
</g>
<!-- Node23 -->
<g id="Node000023" class="node">
<title>Node23</title>
<g id="a_Node000023"><a xlink:href="LLZK_8cpp.html" target="_top" xlink:title=" ">
<polygon fill="white" stroke="#666666" points="1573.62,-20.75 1435.38,-20.75 1435.38,0 1573.62,0 1573.62,-20.75"/>
<text text-anchor="middle" x="1504.5" y="-7.25" font-family="Helvetica,sans-Serif" font-size="10.00">lib/CAPI/Dialect/LLZK.cpp</text>
</a>
</g>
</g>
<!-- Node16&#45;&gt;Node23 -->
<g id="edge25_Node000016_Node000023" class="edge">
<title>Node16&#45;&gt;Node23</title>
<g id="a_edge25_Node000016_Node000023"><a xlink:title=" ">
<path fill="none" stroke="#63b8ff" d="M1379.09,-58.69C1409.37,-47.27 1451.64,-31.32 1478.54,-21.17"/>
<polygon fill="#63b8ff" stroke="#63b8ff" points="1378.06,-55.34 1369.94,-62.14 1380.54,-61.89 1378.06,-55.34"/>
</a>
</g>
</g>
<!-- Node24 -->
<g id="Node000024" class="node">
<title>Node24</title>
<g id="a_Node000024"><a xlink:href="RAM_8cpp.html" target="_top" xlink:title=" ">
<polygon fill="white" stroke="#666666" points="1728.88,-20.75 1592.12,-20.75 1592.12,0 1728.88,0 1728.88,-20.75"/>
<text text-anchor="middle" x="1660.5" y="-7.25" font-family="Helvetica,sans-Serif" font-size="10.00">lib/CAPI/Dialect/RAM.cpp</text>
</a>
</g>
</g>
<!-- Node16&#45;&gt;Node24 -->
<g id="edge28_Node000016_Node000024" class="edge">
<title>Node16&#45;&gt;Node24</title>
<g id="a_edge28_Node000016_Node000024"><a xlink:title=" ">
<path fill="none" stroke="#63b8ff" d="M1404.75,-60.53C1464.47,-49.06 1553.55,-31.93 1609.27,-21.22"/>
<polygon fill="#63b8ff" stroke="#63b8ff" points="1404.24,-57.07 1395.08,-62.39 1405.56,-63.94 1404.24,-57.07"/>
</a>
</g>
</g>
<!-- Node25 -->
<g id="Node000025" class="node">
<title>Node25</title>
<g id="a_Node000025"><a xlink:href="String_8cpp.html" target="_top" xlink:title=" ">
<polygon fill="white" stroke="#666666" points="1889.88,-20.75 1747.12,-20.75 1747.12,0 1889.88,0 1889.88,-20.75"/>
<text text-anchor="middle" x="1818.5" y="-7.25" font-family="Helvetica,sans-Serif" font-size="10.00">lib/CAPI/Dialect/String.cpp</text>
</a>
</g>
</g>
<!-- Node16&#45;&gt;Node25 -->
<g id="edge29_Node000016_Node000025" class="edge">
<title>Node16&#45;&gt;Node25</title>
<g id="a_edge29_Node000016_Node000025"><a xlink:title=" ">
<path fill="none" stroke="#63b8ff" d="M1427.47,-61.59C1518.44,-49.91 1661.19,-31.58 1746.73,-20.59"/>
<polygon fill="#63b8ff" stroke="#63b8ff" points="1427.07,-58.11 1417.59,-62.86 1427.96,-65.05 1427.07,-58.11"/>
</a>
</g>
</g>
<!-- Node16&#45;&gt;Node26 -->
<g id="edge32_Node000016_Node000026" class="edge">
<title>Node16&#45;&gt;Node26</title>
<g id="a_edge32_Node000016_Node000026"><a xlink:title=" ">
<path fill="none" stroke="#63b8ff" d="M1427.26,-70.29C1678.35,-63.56 2415.66,-42.45 2655.5,-20.75 2658.27,-20.5 2661.09,-20.21 2663.95,-19.9"/>
<polygon fill="#63b8ff" stroke="#63b8ff" points="1427.45,-66.78 1417.55,-70.55 1427.64,-73.78 1427.45,-66.78"/>
</a>
</g>
</g>
<!-- Node27 -->
<g id="Node000027" class="node">
<title>Node27</title>
<g id="a_Node000027"><a xlink:href="PCL_8cpp.html" target="_top" xlink:title=" ">
<polygon fill="white" stroke="#666666" points="2035.38,-20.75 1907.62,-20.75 1907.62,0 2035.38,0 2035.38,-20.75"/>
<text text-anchor="middle" x="1971.5" y="-7.25" font-family="Helvetica,sans-Serif" font-size="10.00">lib/CAPI/Target/PCL.cpp</text>
</a>
</g>
</g>
<!-- Node16&#45;&gt;Node27 -->
<g id="edge33_Node000016_Node000027" class="edge">
<title>Node16&#45;&gt;Node27</title>
<g id="a_edge33_Node000016_Node000027"><a xlink:title=" ">
<path fill="none" stroke="#63b8ff" d="M1427.14,-65.55C1536.22,-56.38 1731.68,-39.22 1898.5,-20.75 1901.42,-20.43 1904.41,-20.09 1907.42,-19.73"/>
<polygon fill="#63b8ff" stroke="#63b8ff" points="1427.07,-62.04 1417.39,-66.36 1427.65,-69.02 1427.07,-62.04"/>
</a>
</g>
</g>
</g>
</svg>
