<?xml version="1.0" encoding="UTF-8" standalone="no"?>
<!DOCTYPE svg PUBLIC "-//W3C//DTD SVG 1.1//EN"
 "http://www.w3.org/Graphics/SVG/1.1/DTD/svg11.dtd">
<!-- Generated by graphviz version 12.2.1 (0)
 -->
<!-- Title: build/include/llzk/Transforms/LLZKTransformationPasses.h.inc Pages: 1 -->
<svg width="2074pt" height="193pt"
 viewBox="0.00 0.00 2073.62 193.25" xmlns="http://www.w3.org/2000/svg" xmlns:xlink="http://www.w3.org/1999/xlink">
<g id="graph0" class="graph" transform="scale(1 1) rotate(0) translate(4 189.25)">
<title>build/include/llzk/Transforms/LLZKTransformationPasses.h.inc</title>
<!-- Node1 -->
<g id="Node000001" class="node">
<title>Node1</title>
<g id="a_Node000001"><a xlink:title=" ">
<polygon fill="#999999" stroke="#666666" points="1239.12,-185.25 1066.38,-185.25 1066.38,-139 1239.12,-139 1239.12,-185.25"/>
<text text-anchor="start" x="1074.38" y="-171.75" font-family="Helvetica,sans-Serif" font-size="10.00">build/include/llzk</text>
<text text-anchor="start" x="1074.38" y="-159" font-family="Helvetica,sans-Serif" font-size="10.00">/Transforms/LLZKTransformation</text>
<text text-anchor="middle" x="1152.75" y="-146.25" font-family="Helvetica,sans-Serif" font-size="10.00">Passes.h.inc</text>
</a>
</g>
</g>
<!-- Node2 -->
<g id="Node000002" class="node">
<title>Node2</title>
<g id="a_Node000002"><a xlink:href="LLZKTransformationPasses_8h.html" target="_top" xlink:title=" ">
<polygon fill="white" stroke="#666666" points="1178.62,-103 1020.88,-103 1020.88,-69.5 1178.62,-69.5 1178.62,-103"/>
<text text-anchor="start" x="1028.88" y="-89.5" font-family="Helvetica,sans-Serif" font-size="10.00">include/llzk/Transforms</text>
<text text-anchor="middle" x="1099.75" y="-76.75" font-family="Helvetica,sans-Serif" font-size="10.00">/LLZKTransformationPasses.h</text>
</a>
</g>
</g>
<!-- Node1&#45;&gt;Node2 -->
<g id="edge1_Node000001_Node000002" class="edge">
<title>Node1&#45;&gt;Node2</title>
<g id="a_edge1_Node000001_Node000002"><a xlink:title=" ">
<path fill="none" stroke="#63b8ff" d="M1130.01,-129.43C1123.55,-120.43 1116.79,-111 1111.3,-103.35"/>
<polygon fill="#63b8ff" stroke="#63b8ff" points="1127,-131.24 1135.68,-137.33 1132.69,-127.16 1127,-131.24"/>
</a>
</g>
</g>
<!-- Node5 -->
<g id="Node000005" class="node">
<title>Node5</title>
<g id="a_Node000005"><a xlink:href="LLZKComputeConstrainToProductPass_8cpp.html" target="_top" xlink:title="This file implements the &#45;llzk&#45;product&#45;program pass.">
<polygon fill="white" stroke="#666666" points="155.5,-33.5 0,-33.5 0,0 155.5,0 155.5,-33.5"/>
<text text-anchor="start" x="8" y="-20" font-family="Helvetica,sans-Serif" font-size="10.00">lib/Transforms/LLZKCompute</text>
<text text-anchor="middle" x="77.75" y="-7.25" font-family="Helvetica,sans-Serif" font-size="10.00">ConstrainToProductPass.cpp</text>
</a>
</g>
</g>
<!-- Node1&#45;&gt;Node5 -->
<g id="edge14_Node000001_Node000005" class="edge">
<title>Node1&#45;&gt;Node5</title>
<g id="a_edge14_Node000001_Node000005"><a xlink:title=" ">
<path fill="none" stroke="#63b8ff" d="M1054.64,-155.33C928.9,-147.19 704.37,-130.23 513.75,-103 384.14,-84.48 234.71,-53.04 148.74,-33.95"/>
<polygon fill="#63b8ff" stroke="#63b8ff" points="1054.41,-158.82 1064.61,-155.97 1054.86,-151.84 1054.41,-158.82"/>
</a>
</g>
</g>
<!-- Node6 -->
<g id="Node000006" class="node">
<title>Node6</title>
<g id="a_Node000006"><a xlink:href="LLZKFuseProductLoopsPass_8cpp.html" target="_top" xlink:title="This file implements the &#45;llzk&#45;fuse&#45;product&#45;loops pass.">
<polygon fill="white" stroke="#666666" points="344.38,-33.5 173.12,-33.5 173.12,0 344.38,0 344.38,-33.5"/>
<text text-anchor="start" x="181.12" y="-20" font-family="Helvetica,sans-Serif" font-size="10.00">lib/Transforms/LLZKFuseProduct</text>
<text text-anchor="middle" x="258.75" y="-7.25" font-family="Helvetica,sans-Serif" font-size="10.00">LoopsPass.cpp</text>
</a>
</g>
</g>
<!-- Node1&#45;&gt;Node6 -->
<g id="edge15_Node000001_Node000006" class="edge">
<title>Node1&#45;&gt;Node6</title>
<g id="a_edge15_Node000001_Node000006"><a xlink:title=" ">
<path fill="none" stroke="#63b8ff" d="M1055.07,-150.35C963.35,-139.82 822.42,-122.54 700.75,-103 571.89,-82.31 423.06,-52.33 335.15,-33.99"/>
<polygon fill="#63b8ff" stroke="#63b8ff" points="1054.45,-153.81 1064.78,-151.47 1055.25,-146.85 1054.45,-153.81"/>
</a>
</g>
</g>
<!-- Node7 -->
<g id="Node000007" class="node">
<title>Node7</title>
<g id="a_Node000007"><a xlink:href="LLZKInlineStructsPass_8cpp.html" target="_top" xlink:title="This file implements the &#45;llzk&#45;inline&#45;structs pass.">
<polygon fill="white" stroke="#666666" points="501.25,-33.5 362.25,-33.5 362.25,0 501.25,0 501.25,-33.5"/>
<text text-anchor="start" x="370.25" y="-20" font-family="Helvetica,sans-Serif" font-size="10.00">lib/Transforms/LLZKInline</text>
<text text-anchor="middle" x="431.75" y="-7.25" font-family="Helvetica,sans-Serif" font-size="10.00">StructsPass.cpp</text>
</a>
</g>
</g>
<!-- Node1&#45;&gt;Node7 -->
<g id="edge16_Node000001_Node000007" class="edge">
<title>Node1&#45;&gt;Node7</title>
<g id="a_edge16_Node000001_Node000007"><a xlink:title=" ">
<path fill="none" stroke="#63b8ff" d="M1054.92,-141.69C929.04,-116.69 703.59,-71.89 510.75,-33.5 507.73,-32.9 504.65,-32.29 501.54,-31.67"/>
<polygon fill="#63b8ff" stroke="#63b8ff" points="1054.07,-145.09 1064.56,-143.61 1055.43,-138.23 1054.07,-145.09"/>
</a>
</g>
</g>
<!-- Node9 -->
<g id="Node000009" class="node">
<title>Node9</title>
<g id="a_Node000009"><a xlink:href="LLZKPolyLoweringPass_8cpp.html" target="_top" xlink:title="This file implements the &#45;llzk&#45;poly&#45;lowering pass.">
<polygon fill="white" stroke="#666666" points="1493.38,-33.5 1316.12,-33.5 1316.12,0 1493.38,0 1493.38,-33.5"/>
<text text-anchor="start" x="1324.12" y="-20" font-family="Helvetica,sans-Serif" font-size="10.00">lib/Transforms/LLZKPolyLowering</text>
<text text-anchor="middle" x="1404.75" y="-7.25" font-family="Helvetica,sans-Serif" font-size="10.00">Pass.cpp</text>
</a>
</g>
</g>
<!-- Node1&#45;&gt;Node9 -->
<g id="edge17_Node000001_Node000009" class="edge">
<title>Node1&#45;&gt;Node9</title>
<g id="a_edge17_Node000001_Node000009"><a xlink:title=" ">
<path fill="none" stroke="#63b8ff" d="M1202.4,-132.88C1254.35,-103.32 1334.08,-57.96 1376.28,-33.95"/>
<polygon fill="#63b8ff" stroke="#63b8ff" points="1200.68,-129.83 1193.72,-137.82 1204.14,-135.91 1200.68,-129.83"/>
</a>
</g>
</g>
<!-- Node10 -->
<g id="Node000010" class="node">
<title>Node10</title>
<g id="a_Node000010"><a xlink:href="LLZKRedundantOperationEliminationPass_8cpp.html" target="_top" xlink:title="This file implements the &#45;llzk&#45;duplicate&#45;op&#45;elim pass.">
<polygon fill="white" stroke="#666666" points="1676,-33.5 1511.5,-33.5 1511.5,0 1676,0 1676,-33.5"/>
<text text-anchor="start" x="1519.5" y="-20" font-family="Helvetica,sans-Serif" font-size="10.00">lib/Transforms/LLZKRedundant</text>
<text text-anchor="middle" x="1593.75" y="-7.25" font-family="Helvetica,sans-Serif" font-size="10.00">OperationEliminationPass.cpp</text>
</a>
</g>
</g>
<!-- Node1&#45;&gt;Node10 -->
<g id="edge18_Node000001_Node000010" class="edge">
<title>Node1&#45;&gt;Node10</title>
<g id="a_edge18_Node000001_Node000010"><a xlink:title=" ">
<path fill="none" stroke="#63b8ff" d="M1232.92,-135.06C1323.53,-105.6 1468.23,-58.56 1543.92,-33.95"/>
<polygon fill="#63b8ff" stroke="#63b8ff" points="1232.01,-131.68 1223.58,-138.1 1234.17,-138.33 1232.01,-131.68"/>
</a>
</g>
</g>
<!-- Node11 -->
<g id="Node000011" class="node">
<title>Node11</title>
<g id="a_Node000011"><a xlink:href="LLZKRedundantReadAndWriteEliminationPass_8cpp.html" target="_top" xlink:title="This file implements the &#45;llzk&#45;duplicate&#45;read&#45;write&#45;elim pass.">
<polygon fill="white" stroke="#666666" points="1877.38,-33.5 1694.12,-33.5 1694.12,0 1877.38,0 1877.38,-33.5"/>
<text text-anchor="start" x="1702.12" y="-20" font-family="Helvetica,sans-Serif" font-size="10.00">lib/Transforms/LLZKRedundant</text>
<text text-anchor="middle" x="1785.75" y="-7.25" font-family="Helvetica,sans-Serif" font-size="10.00">ReadAndWriteEliminationPass.cpp</text>
</a>
</g>
</g>
<!-- Node1&#45;&gt;Node11 -->
<g id="edge19_Node000001_Node000011" class="edge">
<title>Node1&#45;&gt;Node11</title>
<g id="a_edge19_Node000001_Node000011"><a xlink:title=" ">
<path fill="none" stroke="#63b8ff" d="M1250.4,-139.01C1378.6,-109.97 1600.65,-59.68 1714.27,-33.94"/>
<polygon fill="#63b8ff" stroke="#63b8ff" points="1249.89,-135.53 1240.91,-141.16 1251.44,-142.36 1249.89,-135.53"/>
</a>
</g>
</g>
<!-- Node13 -->
<g id="Node000013" class="node">
<title>Node13</title>
<g id="a_Node000013"><a xlink:href="LLZKUnusedDeclarationEliminationPass_8cpp.html" target="_top" xlink:title="This file implements the &#45;llzk&#45;unused&#45;declaration&#45;elim pass.">
<polygon fill="white" stroke="#666666" points="2065.62,-33.5 1895.88,-33.5 1895.88,0 2065.62,0 2065.62,-33.5"/>
<text text-anchor="start" x="1903.88" y="-20" font-family="Helvetica,sans-Serif" font-size="10.00">lib/Transforms/LLZKUnused</text>
<text text-anchor="middle" x="1980.75" y="-7.25" font-family="Helvetica,sans-Serif" font-size="10.00">DeclarationEliminationPass.cpp</text>
</a>
</g>
</g>
<!-- Node1&#45;&gt;Node13 -->
<g id="edge20_Node000001_Node000013" class="edge">
<title>Node1&#45;&gt;Node13</title>
<g id="a_edge20_Node000001_Node000013"><a xlink:title=" ">
<path fill="none" stroke="#63b8ff" d="M1250.52,-144.51C1318.48,-132.93 1411.14,-117.1 1492.75,-103 1634.07,-78.58 1798.34,-49.8 1895.7,-32.7"/>
<polygon fill="#63b8ff" stroke="#63b8ff" points="1250.17,-141.02 1240.9,-146.15 1251.34,-147.92 1250.17,-141.02"/>
</a>
</g>
</g>
<!-- Node3 -->
<g id="Node000003" class="node">
<title>Node3</title>
<g id="a_Node000003"><a xlink:href="Transforms_8cpp.html" target="_top" xlink:title=" ">
<polygon fill="white" stroke="#666666" points="1298.12,-27.12 1167.38,-27.12 1167.38,-6.38 1298.12,-6.38 1298.12,-27.12"/>
<text text-anchor="middle" x="1232.75" y="-13.62" font-family="Helvetica,sans-Serif" font-size="10.00">lib/CAPI/Transforms.cpp</text>
</a>
</g>
</g>
<!-- Node2&#45;&gt;Node3 -->
<g id="edge2_Node000002_Node000003" class="edge">
<title>Node2&#45;&gt;Node3</title>
<g id="a_edge2_Node000002_Node000003"><a xlink:title=" ">
<path fill="none" stroke="#63b8ff" d="M1141.57,-64.02C1165.65,-51.81 1194.75,-37.03 1213.5,-27.52"/>
<polygon fill="#63b8ff" stroke="#63b8ff" points="1140.29,-60.75 1132.96,-68.4 1143.46,-66.99 1140.29,-60.75"/>
</a>
</g>
</g>
<!-- Node4 -->
<g id="Node000004" class="node">
<title>Node4</title>
<g id="a_Node000004"><a xlink:href="Dialect_2InitDialects_8cpp.html" target="_top" xlink:title=" ">
<polygon fill="white" stroke="#666666" points="663.88,-27.12 519.62,-27.12 519.62,-6.38 663.88,-6.38 663.88,-27.12"/>
<text text-anchor="middle" x="591.75" y="-13.62" font-family="Helvetica,sans-Serif" font-size="10.00">lib/Dialect/InitDialects.cpp</text>
</a>
</g>
</g>
<!-- Node2&#45;&gt;Node4 -->
<g id="edge3_Node000002_Node000004" class="edge">
<title>Node2&#45;&gt;Node4</title>
<g id="a_edge3_Node000002_Node000004"><a xlink:title=" ">
<path fill="none" stroke="#63b8ff" d="M1009.05,-76.16C922.43,-67.03 788.35,-51.72 672.75,-33.5 661.85,-31.78 650.18,-29.67 639.19,-27.56"/>
<polygon fill="#63b8ff" stroke="#63b8ff" points="1008.61,-79.63 1018.92,-77.19 1009.34,-72.67 1008.61,-79.63"/>
</a>
</g>
</g>
<!-- Node2&#45;&gt;Node5 -->
<g id="edge4_Node000002_Node000005" class="edge">
<title>Node2&#45;&gt;Node5</title>
<g id="a_edge4_Node000002_Node000005"><a xlink:title=" ">
<path fill="none" stroke="#63b8ff" d="M1009.1,-84.02C841.58,-80.92 472.45,-70.15 163.75,-33.5 161.19,-33.2 158.59,-32.86 155.96,-32.51"/>
<polygon fill="#63b8ff" stroke="#63b8ff" points="1008.99,-87.52 1019.05,-84.2 1009.12,-80.52 1008.99,-87.52"/>
</a>
</g>
</g>
<!-- Node2&#45;&gt;Node6 -->
<g id="edge5_Node000002_Node000006" class="edge">
<title>Node2&#45;&gt;Node6</title>
<g id="a_edge5_Node000002_Node000006"><a xlink:title=" ">
<path fill="none" stroke="#63b8ff" d="M1009.34,-81.81C868.59,-75.83 588.75,-61.38 352.75,-33.5 350.12,-33.19 347.45,-32.86 344.76,-32.5"/>
<polygon fill="#63b8ff" stroke="#63b8ff" points="1008.81,-85.3 1018.95,-82.22 1009.11,-78.3 1008.81,-85.3"/>
</a>
</g>
</g>
<!-- Node2&#45;&gt;Node7 -->
<g id="edge6_Node000002_Node000007" class="edge">
<title>Node2&#45;&gt;Node7</title>
<g id="a_edge6_Node000002_Node000007"><a xlink:title=" ">
<path fill="none" stroke="#63b8ff" d="M1009.45,-77.86C856.6,-65.28 558.74,-40.37 510.75,-33.5 507.7,-33.06 504.6,-32.59 501.47,-32.08"/>
<polygon fill="#63b8ff" stroke="#63b8ff" points="1008.89,-81.33 1019.14,-78.66 1009.46,-74.35 1008.89,-81.33"/>
</a>
</g>
</g>
<!-- Node8 -->
<g id="Node000008" class="node">
<title>Node8</title>
<g id="a_Node000008"><a xlink:href="LLZKInliningExtensions_8cpp.html" target="_top" xlink:title=" ">
<polygon fill="white" stroke="#666666" points="829.75,-33.5 681.75,-33.5 681.75,0 829.75,0 829.75,-33.5"/>
<text text-anchor="start" x="689.75" y="-20" font-family="Helvetica,sans-Serif" font-size="10.00">lib/Transforms/LLZKInlining</text>
<text text-anchor="middle" x="755.75" y="-7.25" font-family="Helvetica,sans-Serif" font-size="10.00">Extensions.cpp</text>
</a>
</g>
</g>
<!-- Node2&#45;&gt;Node8 -->
<g id="edge7_Node000002_Node000008" class="edge">
<title>Node2&#45;&gt;Node8</title>
<g id="a_edge7_Node000002_Node000008"><a xlink:title=" ">
<path fill="none" stroke="#63b8ff" d="M1009.43,-67.53C953.52,-56.56 882.62,-42.64 829.99,-32.32"/>
<polygon fill="#63b8ff" stroke="#63b8ff" points="1008.43,-70.9 1018.91,-69.39 1009.77,-64.03 1008.43,-70.9"/>
</a>
</g>
</g>
<!-- Node2&#45;&gt;Node9 -->
<g id="edge8_Node000002_Node000009" class="edge">
<title>Node2&#45;&gt;Node9</title>
<g id="a_edge8_Node000002_Node000009"><a xlink:title=" ">
<path fill="none" stroke="#63b8ff" d="M1184.02,-66.6C1230.28,-56.36 1287.1,-43.79 1331.5,-33.96"/>
<polygon fill="#63b8ff" stroke="#63b8ff" points="1183.29,-63.18 1174.28,-68.76 1184.8,-70.01 1183.29,-63.18"/>
</a>
</g>
</g>
<!-- Node2&#45;&gt;Node10 -->
<g id="edge9_Node000002_Node000010" class="edge">
<title>Node2&#45;&gt;Node10</title>
<g id="a_edge9_Node000002_Node000010"><a xlink:title=" ">
<path fill="none" stroke="#63b8ff" d="M1190.29,-74.77C1272.07,-65.03 1395.66,-49.64 1502.75,-33.5 1505.6,-33.07 1508.51,-32.62 1511.44,-32.16"/>
<polygon fill="#63b8ff" stroke="#63b8ff" points="1190.06,-71.27 1180.54,-75.93 1190.88,-78.22 1190.06,-71.27"/>
</a>
</g>
</g>
<!-- Node2&#45;&gt;Node11 -->
<g id="edge10_Node000002_Node000011" class="edge">
<title>Node2&#45;&gt;Node11</title>
<g id="a_edge10_Node000002_Node000011"><a xlink:title=" ">
<path fill="none" stroke="#63b8ff" d="M1190.13,-79.13C1305.23,-70.9 1510.16,-54.81 1684.75,-33.5 1687.74,-33.13 1690.79,-32.75 1693.86,-32.35"/>
<polygon fill="#63b8ff" stroke="#63b8ff" points="1190.17,-75.62 1180.44,-79.82 1190.67,-82.6 1190.17,-75.62"/>
</a>
</g>
</g>
<!-- Node12 -->
<g id="Node000012" class="node">
<title>Node12</title>
<g id="a_Node000012"><a xlink:href="LLZKTransformationPassPipelines_8cpp.html" target="_top" xlink:title="This file implements logic for registering several pass pipelines.">
<polygon fill="white" stroke="#666666" points="1032.12,-33.5 847.38,-33.5 847.38,0 1032.12,0 1032.12,-33.5"/>
<text text-anchor="start" x="855.38" y="-20" font-family="Helvetica,sans-Serif" font-size="10.00">lib/Transforms/LLZKTransformation</text>
<text text-anchor="middle" x="939.75" y="-7.25" font-family="Helvetica,sans-Serif" font-size="10.00">PassPipelines.cpp</text>
</a>
</g>
</g>
<!-- Node2&#45;&gt;Node12 -->
<g id="edge11_Node000002_Node000012" class="edge">
<title>Node2&#45;&gt;Node12</title>
<g id="a_edge11_Node000002_Node000012"><a xlink:title=" ">
<path fill="none" stroke="#63b8ff" d="M1051,-64.68C1027.58,-54.8 999.92,-43.13 978.04,-33.9"/>
<polygon fill="#63b8ff" stroke="#63b8ff" points="1049.46,-67.83 1060.03,-68.49 1052.18,-61.38 1049.46,-67.83"/>
</a>
</g>
</g>
<!-- Node2&#45;&gt;Node13 -->
<g id="edge12_Node000002_Node000013" class="edge">
<title>Node2&#45;&gt;Node13</title>
<g id="a_edge12_Node000002_Node000013"><a xlink:title=" ">
<path fill="none" stroke="#63b8ff" d="M1190.17,-82.26C1336.8,-76.74 1635.39,-62.75 1886.75,-33.5 1889.63,-33.17 1892.55,-32.8 1895.5,-32.42"/>
<polygon fill="#63b8ff" stroke="#63b8ff" points="1190.4,-78.74 1180.53,-82.61 1190.66,-85.74 1190.4,-78.74"/>
</a>
</g>
</g>
<!-- Node14 -->
<g id="Node000014" class="node">
<title>Node14</title>
<g id="a_Node000014"><a xlink:href="llzk-opt_8cpp.html" target="_top" xlink:title="This file implements a version of the mlir&#45;opt tool configured for use on LLZK files.">
<polygon fill="white" stroke="#666666" points="1149.75,-33.5 1049.75,-33.5 1049.75,0 1149.75,0 1149.75,-33.5"/>
<text text-anchor="start" x="1057.75" y="-20" font-family="Helvetica,sans-Serif" font-size="10.00">tools/llzk&#45;opt/llzk</text>
<text text-anchor="middle" x="1099.75" y="-7.25" font-family="Helvetica,sans-Serif" font-size="10.00">&#45;opt.cpp</text>
</a>
</g>
</g>
<!-- Node2&#45;&gt;Node14 -->
<g id="edge13_Node000002_Node000014" class="edge">
<title>Node2&#45;&gt;Node14</title>
<g id="a_edge13_Node000002_Node000014"><a xlink:title=" ">
<path fill="none" stroke="#63b8ff" d="M1099.75,-57.81C1099.75,-49.59 1099.75,-40.84 1099.75,-33.63"/>
<polygon fill="#63b8ff" stroke="#63b8ff" points="1096.25,-57.74 1099.75,-67.74 1103.25,-57.74 1096.25,-57.74"/>
</a>
</g>
</g>
</g>
</svg>
