<?xml version="1.0" encoding="UTF-8" standalone="no"?>
<!DOCTYPE svg PUBLIC "-//W3C//DTD SVG 1.1//EN"
 "http://www.w3.org/Graphics/SVG/1.1/DTD/svg11.dtd">
<!-- Generated by graphviz version 12.2.1 (0)
 -->
<!-- Title: build/include/llzk/Transforms/LLZKTransformationPasses.h.inc Pages: 1 -->
<svg width="3130pt" height="193pt"
 viewBox="0.00 0.00 3130.25 193.25" xmlns="http://www.w3.org/2000/svg" xmlns:xlink="http://www.w3.org/1999/xlink">
<g id="graph0" class="graph" transform="scale(1 1) rotate(0) translate(4 189.25)">
<title>build/include/llzk/Transforms/LLZKTransformationPasses.h.inc</title>
<!-- Node1 -->
<g id="Node000001" class="node">
<title>Node1</title>
<g id="a_Node000001"><a xlink:title=" ">
<polygon fill="#999999" stroke="#666666" points="2167.12,-185.25 1994.38,-185.25 1994.38,-139 2167.12,-139 2167.12,-185.25"/>
<text text-anchor="start" x="2002.38" y="-171.75" font-family="Helvetica,sans-Serif" font-size="10.00">build/include/llzk</text>
<text text-anchor="start" x="2002.38" y="-159" font-family="Helvetica,sans-Serif" font-size="10.00">/Transforms/LLZKTransformation</text>
<text text-anchor="middle" x="2080.75" y="-146.25" font-family="Helvetica,sans-Serif" font-size="10.00">Passes.h.inc</text>
</a>
</g>
</g>
<!-- Node2 -->
<g id="Node000002" class="node">
<title>Node2</title>
<g id="a_Node000002"><a xlink:href="LLZKTransformationPasses_8h.html" target="_top" xlink:title=" ">
<polygon fill="white" stroke="#666666" points="1600.62,-103 1442.88,-103 1442.88,-69.5 1600.62,-69.5 1600.62,-103"/>
<text text-anchor="start" x="1450.88" y="-89.5" font-family="Helvetica,sans-Serif" font-size="10.00">include/llzk/Transforms</text>
<text text-anchor="middle" x="1521.75" y="-76.75" font-family="Helvetica,sans-Serif" font-size="10.00">/LLZKTransformationPasses.h</text>
</a>
</g>
</g>
<!-- Node1&#45;&gt;Node2 -->
<g id="edge1_Node000001_Node000002" class="edge">
<title>Node1&#45;&gt;Node2</title>
<g id="a_edge1_Node000001_Node000002"><a xlink:title=" ">
<path fill="none" stroke="#63b8ff" d="M1982.74,-148.17C1874.21,-133.83 1701.34,-110.98 1600.99,-97.72"/>
<polygon fill="#63b8ff" stroke="#63b8ff" points="1982.15,-151.62 1992.52,-149.46 1983.06,-144.68 1982.15,-151.62"/>
</a>
</g>
</g>
<!-- Node7 -->
<g id="Node000007" class="node">
<title>Node7</title>
<g id="a_Node000007"><a xlink:href="LLZKComputeConstrainToProductPass_8cpp.html" target="_top" xlink:title="This file implements the &#45;llzk&#45;product&#45;program pass.">
<polygon fill="white" stroke="#666666" points="155.5,-33.5 0,-33.5 0,0 155.5,0 155.5,-33.5"/>
<text text-anchor="start" x="8" y="-20" font-family="Helvetica,sans-Serif" font-size="10.00">lib/Transforms/LLZKCompute</text>
<text text-anchor="middle" x="77.75" y="-7.25" font-family="Helvetica,sans-Serif" font-size="10.00">ConstrainToProductPass.cpp</text>
</a>
</g>
</g>
<!-- Node1&#45;&gt;Node7 -->
<g id="edge20_Node000001_Node000007" class="edge">
<title>Node1&#45;&gt;Node7</title>
<g id="a_edge20_Node000001_Node000007"><a xlink:title=" ">
<path fill="none" stroke="#63b8ff" d="M1982.84,-159.18C1691.38,-153.09 832.42,-133.05 553.75,-103 409.56,-87.45 243.22,-54.07 150.28,-34"/>
<polygon fill="#63b8ff" stroke="#63b8ff" points="1982.63,-162.67 1992.7,-159.38 1982.77,-155.67 1982.63,-162.67"/>
</a>
</g>
</g>
<!-- Node8 -->
<g id="Node000008" class="node">
<title>Node8</title>
<g id="a_Node000008"><a xlink:href="LLZKEnforceNoOverwritePass_8cpp.html" target="_top" xlink:title="This file implements the &#45;llzk&#45;enforce&#45;no&#45;overwrite pass.">
<polygon fill="white" stroke="#666666" points="322.12,-33.5 173.38,-33.5 173.38,0 322.12,0 322.12,-33.5"/>
<text text-anchor="start" x="181.38" y="-20" font-family="Helvetica,sans-Serif" font-size="10.00">lib/Transforms/LLZKEnforce</text>
<text text-anchor="middle" x="247.75" y="-7.25" font-family="Helvetica,sans-Serif" font-size="10.00">NoOverwritePass.cpp</text>
</a>
</g>
</g>
<!-- Node1&#45;&gt;Node8 -->
<g id="edge21_Node000001_Node000008" class="edge">
<title>Node1&#45;&gt;Node8</title>
<g id="a_edge21_Node000001_Node000008"><a xlink:title=" ">
<path fill="none" stroke="#63b8ff" d="M1982.93,-159.54C1772.73,-155.48 1262.48,-142.1 836.75,-103 610.7,-82.24 554.78,-70.12 330.75,-33.5 328,-33.05 325.2,-32.58 322.37,-32.1"/>
<polygon fill="#63b8ff" stroke="#63b8ff" points="1982.64,-163.03 1992.71,-159.73 1982.78,-156.04 1982.64,-163.03"/>
</a>
</g>
</g>
<!-- Node9 -->
<g id="Node000009" class="node">
<title>Node9</title>
<g id="a_Node000009"><a xlink:href="LLZKFuseProductLoopsPass_8cpp.html" target="_top" xlink:title="This file implements the &#45;llzk&#45;fuse&#45;product&#45;loops pass.">
<polygon fill="white" stroke="#666666" points="511.38,-33.5 340.12,-33.5 340.12,0 511.38,0 511.38,-33.5"/>
<text text-anchor="start" x="348.12" y="-20" font-family="Helvetica,sans-Serif" font-size="10.00">lib/Transforms/LLZKFuseProduct</text>
<text text-anchor="middle" x="425.75" y="-7.25" font-family="Helvetica,sans-Serif" font-size="10.00">LoopsPass.cpp</text>
</a>
</g>
</g>
<!-- Node1&#45;&gt;Node9 -->
<g id="edge22_Node000001_Node000009" class="edge">
<title>Node1&#45;&gt;Node9</title>
<g id="a_edge22_Node000001_Node000009"><a xlink:title=" ">
<path fill="none" stroke="#63b8ff" d="M1982.89,-156.37C1814.81,-147.89 1460.51,-128.61 1161.75,-103 1018.77,-90.75 661.91,-53.09 519.75,-33.5 517.13,-33.14 514.47,-32.76 511.78,-32.37"/>
<polygon fill="#63b8ff" stroke="#63b8ff" points="1982.51,-159.86 1992.67,-156.87 1982.86,-152.87 1982.51,-159.86"/>
</a>
</g>
</g>
<!-- Node10 -->
<g id="Node000010" class="node">
<title>Node10</title>
<g id="a_Node000010"><a xlink:href="LLZKInlineStructsPass_8cpp.html" target="_top" xlink:title="This file implements the &#45;llzk&#45;inline&#45;structs pass.">
<polygon fill="white" stroke="#666666" points="668.25,-33.5 529.25,-33.5 529.25,0 668.25,0 668.25,-33.5"/>
<text text-anchor="start" x="537.25" y="-20" font-family="Helvetica,sans-Serif" font-size="10.00">lib/Transforms/LLZKInline</text>
<text text-anchor="middle" x="598.75" y="-7.25" font-family="Helvetica,sans-Serif" font-size="10.00">StructsPass.cpp</text>
</a>
</g>
</g>
<!-- Node1&#45;&gt;Node10 -->
<g id="edge23_Node000001_Node000010" class="edge">
<title>Node1&#45;&gt;Node10</title>
<g id="a_edge23_Node000001_Node000010"><a xlink:title=" ">
<path fill="none" stroke="#63b8ff" d="M1982.86,-153.34C1856.06,-143.03 1628.2,-123.7 1433.75,-103 1312.63,-90.1 1282.96,-81.47 1161.75,-69.5 947.09,-48.31 891.48,-62.64 677.75,-33.5 674.7,-33.08 671.59,-32.62 668.46,-32.13"/>
<polygon fill="#63b8ff" stroke="#63b8ff" points="1982.3,-156.81 1992.55,-154.13 1982.87,-149.83 1982.3,-156.81"/>
</a>
</g>
</g>
<!-- Node12 -->
<g id="Node000012" class="node">
<title>Node12</title>
<g id="a_Node000012"><a xlink:href="LLZKPolyLoweringPass_8cpp.html" target="_top" xlink:title="This file implements the &#45;llzk&#45;poly&#45;lowering pass.">
<polygon fill="white" stroke="#666666" points="2169.38,-33.5 1992.12,-33.5 1992.12,0 2169.38,0 2169.38,-33.5"/>
<text text-anchor="start" x="2000.12" y="-20" font-family="Helvetica,sans-Serif" font-size="10.00">lib/Transforms/LLZKPolyLowering</text>
<text text-anchor="middle" x="2080.75" y="-7.25" font-family="Helvetica,sans-Serif" font-size="10.00">Pass.cpp</text>
</a>
</g>
</g>
<!-- Node1&#45;&gt;Node12 -->
<g id="edge24_Node000001_Node000012" class="edge">
<title>Node1&#45;&gt;Node12</title>
<g id="a_edge24_Node000001_Node000012"><a xlink:title=" ">
<path fill="none" stroke="#63b8ff" d="M2080.75,-127.29C2080.75,-97.79 2080.75,-56.28 2080.75,-33.78"/>
<polygon fill="#63b8ff" stroke="#63b8ff" points="2077.25,-127.21 2080.75,-137.21 2084.25,-127.21 2077.25,-127.21"/>
</a>
</g>
</g>
<!-- Node13 -->
<g id="Node000013" class="node">
<title>Node13</title>
<g id="a_Node000013"><a xlink:href="LLZKRedundantOperationEliminationPass_8cpp.html" target="_top" xlink:title="This file implements the &#45;llzk&#45;duplicate&#45;op&#45;elim pass.">
<polygon fill="white" stroke="#666666" points="2352,-33.5 2187.5,-33.5 2187.5,0 2352,0 2352,-33.5"/>
<text text-anchor="start" x="2195.5" y="-20" font-family="Helvetica,sans-Serif" font-size="10.00">lib/Transforms/LLZKRedundant</text>
<text text-anchor="middle" x="2269.75" y="-7.25" font-family="Helvetica,sans-Serif" font-size="10.00">OperationEliminationPass.cpp</text>
</a>
</g>
</g>
<!-- Node1&#45;&gt;Node13 -->
<g id="edge25_Node000001_Node000013" class="edge">
<title>Node1&#45;&gt;Node13</title>
<g id="a_edge25_Node000001_Node000013"><a xlink:title=" ">
<path fill="none" stroke="#63b8ff" d="M2119.24,-131.92C2158.2,-102.37 2217.02,-57.75 2248.35,-33.99"/>
<polygon fill="#63b8ff" stroke="#63b8ff" points="2117.34,-128.98 2111.49,-137.81 2121.57,-134.55 2117.34,-128.98"/>
</a>
</g>
</g>
<!-- Node14 -->
<g id="Node000014" class="node">
<title>Node14</title>
<g id="a_Node000014"><a xlink:href="LLZKRedundantReadAndWriteEliminationPass_8cpp.html" target="_top" xlink:title="This file implements the &#45;llzk&#45;duplicate&#45;read&#45;write&#45;elim pass.">
<polygon fill="white" stroke="#666666" points="2553.38,-33.5 2370.12,-33.5 2370.12,0 2553.38,0 2553.38,-33.5"/>
<text text-anchor="start" x="2378.12" y="-20" font-family="Helvetica,sans-Serif" font-size="10.00">lib/Transforms/LLZKRedundant</text>
<text text-anchor="middle" x="2461.75" y="-7.25" font-family="Helvetica,sans-Serif" font-size="10.00">ReadAndWriteEliminationPass.cpp</text>
</a>
</g>
</g>
<!-- Node1&#45;&gt;Node14 -->
<g id="edge26_Node000001_Node000014" class="edge">
<title>Node1&#45;&gt;Node14</title>
<g id="a_edge26_Node000001_Node000014"><a xlink:title=" ">
<path fill="none" stroke="#63b8ff" d="M2151.45,-134.52C2229.81,-105.03 2353.71,-58.41 2418.7,-33.95"/>
<polygon fill="#63b8ff" stroke="#63b8ff" points="2150.24,-131.23 2142.12,-138.03 2152.71,-137.79 2150.24,-131.23"/>
</a>
</g>
</g>
<!-- Node15 -->
<g id="Node000015" class="node">
<title>Node15</title>
<g id="a_Node000015"><a xlink:href="LLZKRemoveUnusedDiscardableAllocationsPass_8cpp.html" target="_top" xlink:title="This file implements the &#45;llzk&#45;remove&#45;unused&#45;discardable&#45;allocations pass.">
<polygon fill="white" stroke="#666666" points="2778,-33.5 2571.5,-33.5 2571.5,0 2778,0 2778,-33.5"/>
<text text-anchor="start" x="2579.5" y="-20" font-family="Helvetica,sans-Serif" font-size="10.00">lib/Transforms/LLZKRemove</text>
<text text-anchor="middle" x="2674.75" y="-7.25" font-family="Helvetica,sans-Serif" font-size="10.00">UnusedDiscardableAllocationsPass.cpp</text>
</a>
</g>
</g>
<!-- Node1&#45;&gt;Node15 -->
<g id="edge27_Node000001_Node000015" class="edge">
<title>Node1&#45;&gt;Node15</title>
<g id="a_edge27_Node000001_Node000015"><a xlink:title=" ">
<path fill="none" stroke="#63b8ff" d="M2178.54,-137.52C2299.69,-108.28 2502.88,-59.23 2607.7,-33.93"/>
<polygon fill="#63b8ff" stroke="#63b8ff" points="2177.81,-134.1 2168.91,-139.85 2179.45,-140.9 2177.81,-134.1"/>
</a>
</g>
</g>
<!-- Node17 -->
<g id="Node000017" class="node">
<title>Node17</title>
<g id="a_Node000017"><a xlink:href="LLZKUnusedDeclarationEliminationPass_8cpp.html" target="_top" xlink:title="This file implements the &#45;llzk&#45;unused&#45;declaration&#45;elim pass.">
<polygon fill="white" stroke="#666666" points="2965.62,-33.5 2795.88,-33.5 2795.88,0 2965.62,0 2965.62,-33.5"/>
<text text-anchor="start" x="2803.88" y="-20" font-family="Helvetica,sans-Serif" font-size="10.00">lib/Transforms/LLZKUnused</text>
<text text-anchor="middle" x="2880.75" y="-7.25" font-family="Helvetica,sans-Serif" font-size="10.00">DeclarationEliminationPass.cpp</text>
</a>
</g>
</g>
<!-- Node1&#45;&gt;Node17 -->
<g id="edge28_Node000001_Node000017" class="edge">
<title>Node1&#45;&gt;Node17</title>
<g id="a_edge28_Node000001_Node000017"><a xlink:title=" ">
<path fill="none" stroke="#63b8ff" d="M2178.62,-143.58C2336.75,-115.25 2645.76,-59.87 2795.44,-33.04"/>
<polygon fill="#63b8ff" stroke="#63b8ff" points="2178.22,-140.1 2168.99,-145.31 2179.46,-146.99 2178.22,-140.1"/>
</a>
</g>
</g>
<!-- Node18 -->
<g id="Node000018" class="node">
<title>Node18</title>
<g id="a_Node000018"><a xlink:href="LLZKWhileToForPass_8cpp.html" target="_top" xlink:title="This file identifies scf.while loops that can be converted to scf.for loops and performs the conversi...">
<polygon fill="white" stroke="#666666" points="3122.25,-33.5 2983.25,-33.5 2983.25,0 3122.25,0 3122.25,-33.5"/>
<text text-anchor="start" x="2991.25" y="-20" font-family="Helvetica,sans-Serif" font-size="10.00">lib/Transforms/LLZKWhile</text>
<text text-anchor="middle" x="3052.75" y="-7.25" font-family="Helvetica,sans-Serif" font-size="10.00">ToForPass.cpp</text>
</a>
</g>
</g>
<!-- Node1&#45;&gt;Node18 -->
<g id="edge29_Node000001_Node000018" class="edge">
<title>Node1&#45;&gt;Node18</title>
<g id="a_edge29_Node000001_Node000018"><a xlink:title=" ">
<path fill="none" stroke="#63b8ff" d="M2178.41,-149.23C2343.12,-128.72 2686.41,-83.99 2974.75,-33.5 2977.47,-33.02 2980.24,-32.53 2983.04,-32.01"/>
<polygon fill="#63b8ff" stroke="#63b8ff" points="2178.33,-145.72 2168.84,-150.42 2179.2,-152.66 2178.33,-145.72"/>
</a>
</g>
</g>
<!-- Node3 -->
<g id="Node000003" class="node">
<title>Node3</title>
<g id="a_Node000003"><a xlink:href="Transforms_8cpp.html" target="_top" xlink:title=" ">
<polygon fill="white" stroke="#666666" points="1088.12,-27.12 957.38,-27.12 957.38,-6.38 1088.12,-6.38 1088.12,-27.12"/>
<text text-anchor="middle" x="1022.75" y="-13.62" font-family="Helvetica,sans-Serif" font-size="10.00">lib/CAPI/Transforms.cpp</text>
</a>
</g>
</g>
<!-- Node2&#45;&gt;Node3 -->
<g id="edge2_Node000002_Node000003" class="edge">
<title>Node2&#45;&gt;Node3</title>
<g id="a_edge2_Node000002_Node000003"><a xlink:title=" ">
<path fill="none" stroke="#63b8ff" d="M1431.4,-76.59C1345.14,-67.77 1211.64,-52.68 1096.75,-33.5 1086.64,-31.81 1075.83,-29.69 1065.67,-27.56"/>
<polygon fill="#63b8ff" stroke="#63b8ff" points="1430.92,-80.06 1441.22,-77.59 1431.63,-73.1 1430.92,-80.06"/>
</a>
</g>
</g>
<!-- Node4 -->
<g id="Node000004" class="node">
<title>Node4</title>
<g id="a_Node000004"><a xlink:href="ArrayToScalarPass_8cpp.html" target="_top" xlink:title="This file implements the &#45;llzk&#45;array&#45;to&#45;scalar pass.">
<polygon fill="white" stroke="#666666" points="1257.62,-33.5 1105.88,-33.5 1105.88,0 1257.62,0 1257.62,-33.5"/>
<text text-anchor="start" x="1113.88" y="-20" font-family="Helvetica,sans-Serif" font-size="10.00">lib/Dialect/Array/Transforms</text>
<text text-anchor="middle" x="1181.75" y="-7.25" font-family="Helvetica,sans-Serif" font-size="10.00">/ArrayToScalarPass.cpp</text>
</a>
</g>
</g>
<!-- Node2&#45;&gt;Node4 -->
<g id="edge3_Node000002_Node000004" class="edge">
<title>Node2&#45;&gt;Node4</title>
<g id="a_edge3_Node000002_Node000004"><a xlink:title=" ">
<path fill="none" stroke="#63b8ff" d="M1431.49,-67.33C1377.38,-56.59 1309.34,-43.08 1257.94,-32.88"/>
<polygon fill="#63b8ff" stroke="#63b8ff" points="1430.49,-70.7 1440.98,-69.21 1431.85,-63.83 1430.49,-70.7"/>
</a>
</g>
</g>
<!-- Node5 -->
<g id="Node000005" class="node">
<title>Node5</title>
<g id="a_Node000005"><a xlink:href="Dialect_2InitDialects_8cpp.html" target="_top" xlink:title=" ">
<polygon fill="white" stroke="#666666" points="1419.88,-27.12 1275.62,-27.12 1275.62,-6.38 1419.88,-6.38 1419.88,-27.12"/>
<text text-anchor="middle" x="1347.75" y="-13.62" font-family="Helvetica,sans-Serif" font-size="10.00">lib/Dialect/InitDialects.cpp</text>
</a>
</g>
</g>
<!-- Node2&#45;&gt;Node5 -->
<g id="edge4_Node000002_Node000005" class="edge">
<title>Node2&#45;&gt;Node5</title>
<g id="a_edge4_Node000002_Node000005"><a xlink:title=" ">
<path fill="none" stroke="#63b8ff" d="M1469.58,-65.01C1437.72,-52.65 1398.39,-37.4 1373.19,-27.62"/>
<polygon fill="#63b8ff" stroke="#63b8ff" points="1468.07,-68.18 1478.66,-68.53 1470.6,-61.65 1468.07,-68.18"/>
</a>
</g>
</g>
<!-- Node6 -->
<g id="Node000006" class="node">
<title>Node6</title>
<g id="a_Node000006"><a xlink:href="FlatteningPass_8cpp.html" target="_top" xlink:title="This file implements the &#45;llzk&#45;flatten pass.">
<polygon fill="white" stroke="#666666" points="1605.5,-33.5 1438,-33.5 1438,0 1605.5,0 1605.5,-33.5"/>
<text text-anchor="start" x="1446" y="-20" font-family="Helvetica,sans-Serif" font-size="10.00">lib/Dialect/Polymorphic</text>
<text text-anchor="middle" x="1521.75" y="-7.25" font-family="Helvetica,sans-Serif" font-size="10.00">/Transforms/FlatteningPass.cpp</text>
</a>
</g>
</g>
<!-- Node2&#45;&gt;Node6 -->
<g id="edge5_Node000002_Node000006" class="edge">
<title>Node2&#45;&gt;Node6</title>
<g id="a_edge5_Node000002_Node000006"><a xlink:title=" ">
<path fill="none" stroke="#63b8ff" d="M1521.75,-57.81C1521.75,-49.59 1521.75,-40.84 1521.75,-33.63"/>
<polygon fill="#63b8ff" stroke="#63b8ff" points="1518.25,-57.74 1521.75,-67.74 1525.25,-57.74 1518.25,-57.74"/>
</a>
</g>
</g>
<!-- Node2&#45;&gt;Node7 -->
<g id="edge6_Node000002_Node000007" class="edge">
<title>Node2&#45;&gt;Node7</title>
<g id="a_edge6_Node000002_Node000007"><a xlink:title=" ">
<path fill="none" stroke="#63b8ff" d="M1431.29,-83.47C1169.01,-78.03 411.28,-60.38 164.75,-33.5 161.85,-33.18 158.9,-32.83 155.93,-32.44"/>
<polygon fill="#63b8ff" stroke="#63b8ff" points="1431.07,-86.96 1441.14,-83.67 1431.21,-79.96 1431.07,-86.96"/>
</a>
</g>
</g>
<!-- Node2&#45;&gt;Node8 -->
<g id="edge7_Node000002_Node000008" class="edge">
<title>Node2&#45;&gt;Node8</title>
<g id="a_edge7_Node000002_Node000008"><a xlink:title=" ">
<path fill="none" stroke="#63b8ff" d="M1431.31,-83.01C1191.59,-76.8 543.64,-58.19 330.75,-33.5 327.98,-33.18 325.17,-32.82 322.33,-32.43"/>
<polygon fill="#63b8ff" stroke="#63b8ff" points="1431.16,-86.51 1441.25,-83.27 1431.34,-79.51 1431.16,-86.51"/>
</a>
</g>
</g>
<!-- Node2&#45;&gt;Node9 -->
<g id="edge8_Node000002_Node000009" class="edge">
<title>Node2&#45;&gt;Node9</title>
<g id="a_edge8_Node000002_Node000009"><a xlink:title=" ">
<path fill="none" stroke="#63b8ff" d="M1431.47,-81.18C1202.11,-70.75 608.83,-43.23 519.75,-33.5 517.12,-33.21 514.45,-32.9 511.75,-32.57"/>
<polygon fill="#63b8ff" stroke="#63b8ff" points="1431.11,-84.67 1441.26,-81.62 1431.43,-77.67 1431.11,-84.67"/>
</a>
</g>
</g>
<!-- Node2&#45;&gt;Node10 -->
<g id="edge9_Node000002_Node000010" class="edge">
<title>Node2&#45;&gt;Node10</title>
<g id="a_edge9_Node000002_Node000010"><a xlink:title=" ">
<path fill="none" stroke="#63b8ff" d="M1431.56,-76.18C1406.1,-73.8 1378.35,-71.37 1352.75,-69.5 1053.13,-47.56 975.83,-70.97 677.75,-33.5 674.7,-33.12 671.59,-32.68 668.45,-32.21"/>
<polygon fill="#63b8ff" stroke="#63b8ff" points="1430.91,-79.63 1441.2,-77.09 1431.57,-72.66 1430.91,-79.63"/>
</a>
</g>
</g>
<!-- Node11 -->
<g id="Node000011" class="node">
<title>Node11</title>
<g id="a_Node000011"><a xlink:href="LLZKInliningExtensions_8cpp.html" target="_top" xlink:title=" ">
<polygon fill="white" stroke="#666666" points="1771.75,-33.5 1623.75,-33.5 1623.75,0 1771.75,0 1771.75,-33.5"/>
<text text-anchor="start" x="1631.75" y="-20" font-family="Helvetica,sans-Serif" font-size="10.00">lib/Transforms/LLZKInlining</text>
<text text-anchor="middle" x="1697.75" y="-7.25" font-family="Helvetica,sans-Serif" font-size="10.00">Extensions.cpp</text>
</a>
</g>
</g>
<!-- Node2&#45;&gt;Node11 -->
<g id="edge10_Node000002_Node000011" class="edge">
<title>Node2&#45;&gt;Node11</title>
<g id="a_edge10_Node000002_Node000011"><a xlink:title=" ">
<path fill="none" stroke="#63b8ff" d="M1574.33,-65.08C1600.31,-55.12 1631.24,-43.26 1655.63,-33.9"/>
<polygon fill="#63b8ff" stroke="#63b8ff" points="1573.4,-61.69 1565.32,-68.54 1575.91,-68.23 1573.4,-61.69"/>
</a>
</g>
</g>
<!-- Node2&#45;&gt;Node12 -->
<g id="edge11_Node000002_Node000012" class="edge">
<title>Node2&#45;&gt;Node12</title>
<g id="a_edge11_Node000002_Node000012"><a xlink:title=" ">
<path fill="none" stroke="#63b8ff" d="M1612.37,-76.36C1705.44,-66.93 1854.44,-51 1982.75,-33.5 1985.74,-33.09 1988.78,-32.67 1991.84,-32.23"/>
<polygon fill="#63b8ff" stroke="#63b8ff" points="1612.12,-72.87 1602.52,-77.36 1612.83,-79.83 1612.12,-72.87"/>
</a>
</g>
</g>
<!-- Node2&#45;&gt;Node13 -->
<g id="edge12_Node000002_Node000013" class="edge">
<title>Node2&#45;&gt;Node13</title>
<g id="a_edge12_Node000002_Node000013"><a xlink:title=" ">
<path fill="none" stroke="#63b8ff" d="M1612.05,-80.79C1738.95,-73.93 1977.09,-58.84 2178.75,-33.5 2181.61,-33.14 2184.52,-32.75 2187.46,-32.34"/>
<polygon fill="#63b8ff" stroke="#63b8ff" points="1612.18,-77.28 1602.39,-81.31 1612.56,-84.27 1612.18,-77.28"/>
</a>
</g>
</g>
<!-- Node2&#45;&gt;Node14 -->
<g id="edge13_Node000002_Node000014" class="edge">
<title>Node2&#45;&gt;Node14</title>
<g id="a_edge13_Node000002_Node000014"><a xlink:title=" ">
<path fill="none" stroke="#63b8ff" d="M1612.15,-82.43C1766.16,-77.02 2089.17,-62.99 2360.75,-33.5 2363.75,-33.17 2366.8,-32.82 2369.87,-32.45"/>
<polygon fill="#63b8ff" stroke="#63b8ff" points="1612.29,-78.93 1602.42,-82.77 1612.53,-85.92 1612.29,-78.93"/>
</a>
</g>
</g>
<!-- Node2&#45;&gt;Node15 -->
<g id="edge14_Node000002_Node000015" class="edge">
<title>Node2&#45;&gt;Node15</title>
<g id="a_edge14_Node000002_Node000015"><a xlink:title=" ">
<path fill="none" stroke="#63b8ff" d="M1612.24,-83.49C1793.16,-79.37 2212.24,-66.79 2562.75,-33.5 2565.49,-33.24 2568.26,-32.96 2571.05,-32.67"/>
<polygon fill="#63b8ff" stroke="#63b8ff" points="1612.37,-79.99 1602.45,-83.71 1612.52,-86.99 1612.37,-79.99"/>
</a>
</g>
</g>
<!-- Node16 -->
<g id="Node000016" class="node">
<title>Node16</title>
<g id="a_Node000016"><a xlink:href="LLZKTransformationPassPipelines_8cpp.html" target="_top" xlink:title="This file implements logic for registering several pass pipelines.">
<polygon fill="white" stroke="#666666" points="1974.12,-33.5 1789.38,-33.5 1789.38,0 1974.12,0 1974.12,-33.5"/>
<text text-anchor="start" x="1797.38" y="-20" font-family="Helvetica,sans-Serif" font-size="10.00">lib/Transforms/LLZKTransformation</text>
<text text-anchor="middle" x="1881.75" y="-7.25" font-family="Helvetica,sans-Serif" font-size="10.00">PassPipelines.cpp</text>
</a>
</g>
</g>
<!-- Node2&#45;&gt;Node16 -->
<g id="edge15_Node000002_Node000016" class="edge">
<title>Node2&#45;&gt;Node16</title>
<g id="a_edge15_Node000002_Node000016"><a xlink:title=" ">
<path fill="none" stroke="#63b8ff" d="M1611.77,-68.37C1667.96,-57.84 1739.89,-44.35 1795.37,-33.95"/>
<polygon fill="#63b8ff" stroke="#63b8ff" points="1611.42,-64.87 1602.24,-70.16 1612.71,-71.75 1611.42,-64.87"/>
</a>
</g>
</g>
<!-- Node2&#45;&gt;Node17 -->
<g id="edge16_Node000002_Node000017" class="edge">
<title>Node2&#45;&gt;Node17</title>
<g id="a_edge16_Node000002_Node000017"><a xlink:title=" ">
<path fill="none" stroke="#63b8ff" d="M1612.27,-85.43C1820.29,-84.98 2348.22,-79.03 2786.75,-33.5 2789.63,-33.2 2792.56,-32.87 2795.51,-32.51"/>
<polygon fill="#63b8ff" stroke="#63b8ff" points="1612.33,-81.92 1602.33,-85.44 1612.34,-88.92 1612.33,-81.92"/>
</a>
</g>
</g>
<!-- Node2&#45;&gt;Node18 -->
<g id="edge17_Node000002_Node000018" class="edge">
<title>Node2&#45;&gt;Node18</title>
<g id="a_edge17_Node000002_Node000018"><a xlink:title=" ">
<path fill="none" stroke="#63b8ff" d="M1612.39,-83.96C1887.3,-79.76 2709.09,-64.84 2974.75,-33.5 2977.49,-33.18 2980.29,-32.81 2983.1,-32.4"/>
<polygon fill="#63b8ff" stroke="#63b8ff" points="1612.34,-80.46 1602.4,-84.12 1612.45,-87.46 1612.34,-80.46"/>
</a>
</g>
</g>
<!-- Node19 -->
<g id="Node000019" class="node">
<title>Node19</title>
<g id="a_Node000019"><a xlink:href="llzk-opt_8cpp.html" target="_top" xlink:title="This file implements a version of the mlir&#45;opt tool configured for use on LLZK files.">
<polygon fill="white" stroke="#666666" points="786.75,-33.5 686.75,-33.5 686.75,0 786.75,0 786.75,-33.5"/>
<text text-anchor="start" x="694.75" y="-20" font-family="Helvetica,sans-Serif" font-size="10.00">tools/llzk&#45;opt/llzk</text>
<text text-anchor="middle" x="736.75" y="-7.25" font-family="Helvetica,sans-Serif" font-size="10.00">&#45;opt.cpp</text>
</a>
</g>
</g>
<!-- Node2&#45;&gt;Node19 -->
<g id="edge18_Node000002_Node000019" class="edge">
<title>Node2&#45;&gt;Node19</title>
<g id="a_edge18_Node000002_Node000019"><a xlink:title=" ">
<path fill="none" stroke="#63b8ff" d="M1431.55,-76.37C1406.08,-73.99 1378.34,-71.52 1352.75,-69.5 1105.45,-49.99 1040.55,-73.68 795.75,-33.5 792.93,-33.04 790.04,-32.5 787.14,-31.9"/>
<polygon fill="#63b8ff" stroke="#63b8ff" points="1430.9,-79.82 1441.18,-77.27 1431.56,-72.85 1430.9,-79.82"/>
</a>
</g>
</g>
<!-- Node20 -->
<g id="Node000020" class="node">
<title>Node20</title>
<g id="a_Node000020"><a xlink:href="WitgenLowering_8cpp.html" target="_top" xlink:title=" ">
<polygon fill="white" stroke="#666666" points="939,-33.5 804.5,-33.5 804.5,0 939,0 939,-33.5"/>
<text text-anchor="start" x="812.5" y="-20" font-family="Helvetica,sans-Serif" font-size="10.00">tools/llzk&#45;witgen/Witgen</text>
<text text-anchor="middle" x="871.75" y="-7.25" font-family="Helvetica,sans-Serif" font-size="10.00">Lowering.cpp</text>
</a>
</g>
</g>
<!-- Node2&#45;&gt;Node20 -->
<g id="edge19_Node000002_Node000020" class="edge">
<title>Node2&#45;&gt;Node20</title>
<g id="a_edge19_Node000002_Node000020"><a xlink:title=" ">
<path fill="none" stroke="#63b8ff" d="M1431.51,-76.77C1406.05,-74.4 1378.31,-71.83 1352.75,-69.5 1173.23,-53.14 1127.12,-59.6 948.75,-33.5 945.64,-33.05 942.48,-32.55 939.28,-32.01"/>
<polygon fill="#63b8ff" stroke="#63b8ff" points="1430.87,-80.23 1441.15,-77.67 1431.52,-73.26 1430.87,-80.23"/>
</a>
</g>
</g>
</g>
</svg>
