<?xml version="1.0" encoding="UTF-8" standalone="no"?>
<!DOCTYPE svg PUBLIC "-//W3C//DTD SVG 1.1//EN"
 "http://www.w3.org/Graphics/SVG/1.1/DTD/svg11.dtd">
<!-- Generated by graphviz version 12.2.1 (0)
 -->
<!-- Title: include/llzk/CAPI/Builder.h Pages: 1 -->
<svg width="469pt" height="142pt"
 viewBox="0.00 0.00 469.12 142.25" xmlns="http://www.w3.org/2000/svg" xmlns:xlink="http://www.w3.org/1999/xlink">
<g id="graph0" class="graph" transform="scale(1 1) rotate(0) translate(4 138.25)">
<title>include/llzk/CAPI/Builder.h</title>
<!-- Node1 -->
<g id="Node000001" class="node">
<title>Node1</title>
<g id="a_Node000001"><a xlink:title=" ">
<polygon fill="#999999" stroke="#666666" points="310.5,-134.25 167.75,-134.25 167.75,-113.5 310.5,-113.5 310.5,-134.25"/>
<text text-anchor="middle" x="239.12" y="-120.75" font-family="Helvetica,sans-Serif" font-size="10.00">include/llzk/CAPI/Builder.h</text>
</a>
</g>
</g>
<!-- Node2 -->
<g id="Node000002" class="node">
<title>Node2</title>
<g id="a_Node000002"><a xlink:href="llzk-c_2Builder_8h.html" target="_top" xlink:title=" ">
<polygon fill="white" stroke="#666666" points="126.12,-77.5 38.12,-77.5 38.12,-56.75 126.12,-56.75 126.12,-77.5"/>
<text text-anchor="middle" x="82.12" y="-64" font-family="Helvetica,sans-Serif" font-size="10.00">llzk&#45;c/Builder.h</text>
</a>
</g>
</g>
<!-- Node1&#45;&gt;Node2 -->
<g id="edge1_Node000001_Node000002" class="edge">
<title>Node1&#45;&gt;Node2</title>
<g id="a_edge1_Node000001_Node000002"><a xlink:title=" ">
<path fill="none" stroke="#63b8ff" d="M211.06,-113.09C185.91,-104.32 148.78,-91.37 120.82,-81.62"/>
<polygon fill="#63b8ff" stroke="#63b8ff" points="122.24,-78.41 111.64,-78.42 119.93,-85.02 122.24,-78.41"/>
</a>
</g>
</g>
<!-- Node5 -->
<g id="Node000005" class="node">
<title>Node5</title>
<g id="a_Node000005"><a xlink:title=" ">
<polygon fill="#e0e0e0" stroke="#999999" points="226.5,-77.5 143.75,-77.5 143.75,-56.75 226.5,-56.75 226.5,-77.5"/>
<text text-anchor="middle" x="185.12" y="-64" font-family="Helvetica,sans-Serif" font-size="10.00">mlir/CAPI/IR.h</text>
</a>
</g>
</g>
<!-- Node1&#45;&gt;Node5 -->
<g id="edge4_Node000001_Node000005" class="edge">
<title>Node1&#45;&gt;Node5</title>
<g id="a_edge4_Node000001_Node000005"><a xlink:title=" ">
<path fill="none" stroke="#63b8ff" d="M229.47,-113.09C222.02,-105.53 211.52,-94.89 202.6,-85.85"/>
<polygon fill="#63b8ff" stroke="#63b8ff" points="205.27,-83.57 195.76,-78.91 200.29,-88.48 205.27,-83.57"/>
</a>
</g>
</g>
<!-- Node6 -->
<g id="Node000006" class="node">
<title>Node6</title>
<g id="a_Node000006"><a xlink:title=" ">
<polygon fill="#e0e0e0" stroke="#999999" points="343.38,-77.5 244.88,-77.5 244.88,-56.75 343.38,-56.75 343.38,-77.5"/>
<text text-anchor="middle" x="294.12" y="-64" font-family="Helvetica,sans-Serif" font-size="10.00">mlir/CAPI/Wrap.h</text>
</a>
</g>
</g>
<!-- Node1&#45;&gt;Node6 -->
<g id="edge5_Node000001_Node000006" class="edge">
<title>Node1&#45;&gt;Node6</title>
<g id="a_edge5_Node000001_Node000006"><a xlink:title=" ">
<path fill="none" stroke="#63b8ff" d="M248.96,-113.09C256.54,-105.53 267.24,-94.89 276.32,-85.85"/>
<polygon fill="#63b8ff" stroke="#63b8ff" points="278.69,-88.43 283.3,-78.9 273.75,-83.47 278.69,-88.43"/>
</a>
</g>
</g>
<!-- Node7 -->
<g id="Node000007" class="node">
<title>Node7</title>
<g id="a_Node000007"><a xlink:title=" ">
<polygon fill="#e0e0e0" stroke="#999999" points="461.12,-77.5 361.12,-77.5 361.12,-56.75 461.12,-56.75 461.12,-77.5"/>
<text text-anchor="middle" x="411.12" y="-64" font-family="Helvetica,sans-Serif" font-size="10.00">mlir/IR/Builders.h</text>
</a>
</g>
</g>
<!-- Node1&#45;&gt;Node7 -->
<g id="edge6_Node000001_Node000007" class="edge">
<title>Node1&#45;&gt;Node7</title>
<g id="a_edge6_Node000001_Node000007"><a xlink:title=" ">
<path fill="none" stroke="#63b8ff" d="M269.88,-113.09C297.67,-104.24 338.82,-91.14 369.55,-81.36"/>
<polygon fill="#63b8ff" stroke="#63b8ff" points="370.44,-84.75 378.91,-78.38 368.32,-78.08 370.44,-84.75"/>
</a>
</g>
</g>
<!-- Node3 -->
<g id="Node000003" class="node">
<title>Node3</title>
<g id="a_Node000003"><a xlink:title=" ">
<polygon fill="#e0e0e0" stroke="#999999" points="66.25,-20.75 0,-20.75 0,0 66.25,0 66.25,-20.75"/>
<text text-anchor="middle" x="33.12" y="-7.25" font-family="Helvetica,sans-Serif" font-size="10.00">mlir&#45;c/IR.h</text>
</a>
</g>
</g>
<!-- Node2&#45;&gt;Node3 -->
<g id="edge2_Node000002_Node000003" class="edge">
<title>Node2&#45;&gt;Node3</title>
<g id="a_edge2_Node000002_Node000003"><a xlink:title=" ">
<path fill="none" stroke="#63b8ff" d="M73.36,-56.34C66.68,-48.86 57.27,-38.36 49.24,-29.38"/>
<polygon fill="#63b8ff" stroke="#63b8ff" points="52.1,-27.32 42.82,-22.21 46.88,-31.99 52.1,-27.32"/>
</a>
</g>
</g>
<!-- Node4 -->
<g id="Node000004" class="node">
<title>Node4</title>
<g id="a_Node000004"><a xlink:title=" ">
<polygon fill="#e0e0e0" stroke="#999999" points="178.12,-20.75 84.12,-20.75 84.12,0 178.12,0 178.12,-20.75"/>
<text text-anchor="middle" x="131.12" y="-7.25" font-family="Helvetica,sans-Serif" font-size="10.00">mlir&#45;c/Support.h</text>
</a>
</g>
</g>
<!-- Node2&#45;&gt;Node4 -->
<g id="edge3_Node000002_Node000004" class="edge">
<title>Node2&#45;&gt;Node4</title>
<g id="a_edge3_Node000002_Node000004"><a xlink:title=" ">
<path fill="none" stroke="#63b8ff" d="M90.89,-56.34C97.57,-48.86 106.98,-38.36 115.01,-29.38"/>
<polygon fill="#63b8ff" stroke="#63b8ff" points="117.37,-31.99 121.43,-22.21 112.15,-27.32 117.37,-31.99"/>
</a>
</g>
</g>
</g>
</svg>
