<?xml version="1.0" encoding="UTF-8" standalone="no"?>
<!DOCTYPE svg PUBLIC "-//W3C//DTD SVG 1.1//EN"
 "http://www.w3.org/Graphics/SVG/1.1/DTD/svg11.dtd">
<!-- Generated by graphviz version 12.2.1 (0)
 -->
<!-- Title: build/include/llzk/Transforms/LLZKTransformationPasses.h.inc Pages: 1 -->
<svg width="3294pt" height="193pt"
 viewBox="0.00 0.00 3294.25 193.25" xmlns="http://www.w3.org/2000/svg" xmlns:xlink="http://www.w3.org/1999/xlink">
<g id="graph0" class="graph" transform="scale(1 1) rotate(0) translate(4 189.25)">
<title>build/include/llzk/Transforms/LLZKTransformationPasses.h.inc</title>
<!-- Node1 -->
<g id="Node000001" class="node">
<title>Node1</title>
<g id="a_Node000001"><a xlink:title=" ">
<polygon fill="#999999" stroke="#666666" points="2331.12,-185.25 2158.38,-185.25 2158.38,-139 2331.12,-139 2331.12,-185.25"/>
<text text-anchor="start" x="2166.38" y="-171.75" font-family="Helvetica,sans-Serif" font-size="10.00">build/include/llzk</text>
<text text-anchor="start" x="2166.38" y="-159" font-family="Helvetica,sans-Serif" font-size="10.00">/Transforms/LLZKTransformation</text>
<text text-anchor="middle" x="2244.75" y="-146.25" font-family="Helvetica,sans-Serif" font-size="10.00">Passes.h.inc</text>
</a>
</g>
</g>
<!-- Node2 -->
<g id="Node000002" class="node">
<title>Node2</title>
<g id="a_Node000002"><a xlink:href="LLZKTransformationPasses_8h.html" target="_top" xlink:title=" ">
<polygon fill="white" stroke="#666666" points="1743.62,-103 1585.88,-103 1585.88,-69.5 1743.62,-69.5 1743.62,-103"/>
<text text-anchor="start" x="1593.88" y="-89.5" font-family="Helvetica,sans-Serif" font-size="10.00">include/llzk/Transforms</text>
<text text-anchor="middle" x="1664.75" y="-76.75" font-family="Helvetica,sans-Serif" font-size="10.00">/LLZKTransformationPasses.h</text>
</a>
</g>
</g>
<!-- Node1&#45;&gt;Node2 -->
<g id="edge1_Node000001_Node000002" class="edge">
<title>Node1&#45;&gt;Node2</title>
<g id="a_edge1_Node000001_Node000002"><a xlink:title=" ">
<path fill="none" stroke="#63b8ff" d="M2146.82,-148.65C2033.34,-134.2 1848.54,-110.66 1743.78,-97.32"/>
<polygon fill="#63b8ff" stroke="#63b8ff" points="2146.05,-152.08 2156.42,-149.87 2146.94,-145.14 2146.05,-152.08"/>
</a>
</g>
</g>
<!-- Node8 -->
<g id="Node000008" class="node">
<title>Node8</title>
<g id="a_Node000008"><a xlink:href="LLZKComputeConstrainToProductPass_8cpp.html" target="_top" xlink:title="This file implements the &#45;llzk&#45;product&#45;program pass.">
<polygon fill="white" stroke="#666666" points="155.5,-33.5 0,-33.5 0,0 155.5,0 155.5,-33.5"/>
<text text-anchor="start" x="8" y="-20" font-family="Helvetica,sans-Serif" font-size="10.00">lib/Transforms/LLZKCompute</text>
<text text-anchor="middle" x="77.75" y="-7.25" font-family="Helvetica,sans-Serif" font-size="10.00">ConstrainToProductPass.cpp</text>
</a>
</g>
</g>
<!-- Node1&#45;&gt;Node8 -->
<g id="edge21_Node000001_Node000008" class="edge">
<title>Node1&#45;&gt;Node8</title>
<g id="a_edge21_Node000001_Node000008"><a xlink:title=" ">
<path fill="none" stroke="#63b8ff" d="M2146.95,-159.35C1838.97,-153.51 891.51,-133.47 585.75,-103 431.8,-87.66 253.93,-54.12 154.78,-33.99"/>
<polygon fill="#63b8ff" stroke="#63b8ff" points="2146.49,-162.84 2156.56,-159.53 2146.62,-155.84 2146.49,-162.84"/>
</a>
</g>
</g>
<!-- Node9 -->
<g id="Node000009" class="node">
<title>Node9</title>
<g id="a_Node000009"><a xlink:href="LLZKEnforceNoOverwritePass_8cpp.html" target="_top" xlink:title="This file implements the &#45;llzk&#45;enforce&#45;no&#45;overwrite pass.">
<polygon fill="white" stroke="#666666" points="322.12,-33.5 173.38,-33.5 173.38,0 322.12,0 322.12,-33.5"/>
<text text-anchor="start" x="181.38" y="-20" font-family="Helvetica,sans-Serif" font-size="10.00">lib/Transforms/LLZKEnforce</text>
<text text-anchor="middle" x="247.75" y="-7.25" font-family="Helvetica,sans-Serif" font-size="10.00">NoOverwritePass.cpp</text>
</a>
</g>
</g>
<!-- Node1&#45;&gt;Node9 -->
<g id="edge22_Node000001_Node000009" class="edge">
<title>Node1&#45;&gt;Node9</title>
<g id="a_edge22_Node000001_Node000009"><a xlink:title=" ">
<path fill="none" stroke="#63b8ff" d="M2146.72,-159.17C1928.15,-154.29 1384.42,-139.26 930.75,-103 663.15,-81.61 596.13,-73.99 330.75,-33.5 328,-33.08 325.19,-32.63 322.36,-32.17"/>
<polygon fill="#63b8ff" stroke="#63b8ff" points="2146.55,-162.67 2156.62,-159.39 2146.7,-155.67 2146.55,-162.67"/>
</a>
</g>
</g>
<!-- Node10 -->
<g id="Node000010" class="node">
<title>Node10</title>
<g id="a_Node000010"><a xlink:href="LLZKFuseProductLoopsPass_8cpp.html" target="_top" xlink:title="This file implements the &#45;llzk&#45;fuse&#45;product&#45;loops pass.">
<polygon fill="white" stroke="#666666" points="511.38,-33.5 340.12,-33.5 340.12,0 511.38,0 511.38,-33.5"/>
<text text-anchor="start" x="348.12" y="-20" font-family="Helvetica,sans-Serif" font-size="10.00">lib/Transforms/LLZKFuseProduct</text>
<text text-anchor="middle" x="425.75" y="-7.25" font-family="Helvetica,sans-Serif" font-size="10.00">LoopsPass.cpp</text>
</a>
</g>
</g>
<!-- Node1&#45;&gt;Node10 -->
<g id="edge23_Node000001_Node000010" class="edge">
<title>Node1&#45;&gt;Node10</title>
<g id="a_edge23_Node000001_Node000010"><a xlink:title=" ">
<path fill="none" stroke="#63b8ff" d="M2146.61,-156.17C1973.75,-147.2 1603.71,-126.98 1291.75,-103 1131.09,-90.65 1091.23,-83.97 930.75,-69.5 748.13,-53.03 701.65,-56.67 519.75,-33.5 517.12,-33.17 514.46,-32.81 511.77,-32.44"/>
<polygon fill="#63b8ff" stroke="#63b8ff" points="2146.28,-159.65 2156.45,-156.67 2146.65,-152.66 2146.28,-159.65"/>
</a>
</g>
</g>
<!-- Node11 -->
<g id="Node000011" class="node">
<title>Node11</title>
<g id="a_Node000011"><a xlink:href="LLZKInlineStructsPass_8cpp.html" target="_top" xlink:title="This file implements the &#45;llzk&#45;inline&#45;structs pass.">
<polygon fill="white" stroke="#666666" points="668.25,-33.5 529.25,-33.5 529.25,0 668.25,0 668.25,-33.5"/>
<text text-anchor="start" x="537.25" y="-20" font-family="Helvetica,sans-Serif" font-size="10.00">lib/Transforms/LLZKInline</text>
<text text-anchor="middle" x="598.75" y="-7.25" font-family="Helvetica,sans-Serif" font-size="10.00">StructsPass.cpp</text>
</a>
</g>
</g>
<!-- Node1&#45;&gt;Node11 -->
<g id="edge24_Node000001_Node000011" class="edge">
<title>Node1&#45;&gt;Node11</title>
<g id="a_edge24_Node000001_Node000011"><a xlink:title=" ">
<path fill="none" stroke="#63b8ff" d="M2146.82,-153.54C2016.56,-143.23 1779.16,-123.7 1576.75,-103 1449.87,-90.03 1418.8,-80.68 1291.75,-69.5 1019.45,-45.53 948.88,-68.31 677.75,-33.5 674.7,-33.11 671.59,-32.67 668.45,-32.19"/>
<polygon fill="#63b8ff" stroke="#63b8ff" points="2146.18,-157 2156.43,-154.29 2146.73,-150.02 2146.18,-157"/>
</a>
</g>
</g>
<!-- Node13 -->
<g id="Node000013" class="node">
<title>Node13</title>
<g id="a_Node000013"><a xlink:href="LLZKPolyLoweringPass_8cpp.html" target="_top" xlink:title="This file implements the &#45;llzk&#45;poly&#45;lowering pass.">
<polygon fill="white" stroke="#666666" points="2333.38,-33.5 2156.12,-33.5 2156.12,0 2333.38,0 2333.38,-33.5"/>
<text text-anchor="start" x="2164.12" y="-20" font-family="Helvetica,sans-Serif" font-size="10.00">lib/Transforms/LLZKPolyLowering</text>
<text text-anchor="middle" x="2244.75" y="-7.25" font-family="Helvetica,sans-Serif" font-size="10.00">Pass.cpp</text>
</a>
</g>
</g>
<!-- Node1&#45;&gt;Node13 -->
<g id="edge25_Node000001_Node000013" class="edge">
<title>Node1&#45;&gt;Node13</title>
<g id="a_edge25_Node000001_Node000013"><a xlink:title=" ">
<path fill="none" stroke="#63b8ff" d="M2244.75,-127.29C2244.75,-97.79 2244.75,-56.28 2244.75,-33.78"/>
<polygon fill="#63b8ff" stroke="#63b8ff" points="2241.25,-127.21 2244.75,-137.21 2248.25,-127.21 2241.25,-127.21"/>
</a>
</g>
</g>
<!-- Node14 -->
<g id="Node000014" class="node">
<title>Node14</title>
<g id="a_Node000014"><a xlink:href="LLZKRedundantOperationEliminationPass_8cpp.html" target="_top" xlink:title="This file implements the &#45;llzk&#45;duplicate&#45;op&#45;elim pass.">
<polygon fill="white" stroke="#666666" points="2516,-33.5 2351.5,-33.5 2351.5,0 2516,0 2516,-33.5"/>
<text text-anchor="start" x="2359.5" y="-20" font-family="Helvetica,sans-Serif" font-size="10.00">lib/Transforms/LLZKRedundant</text>
<text text-anchor="middle" x="2433.75" y="-7.25" font-family="Helvetica,sans-Serif" font-size="10.00">OperationEliminationPass.cpp</text>
</a>
</g>
</g>
<!-- Node1&#45;&gt;Node14 -->
<g id="edge26_Node000001_Node000014" class="edge">
<title>Node1&#45;&gt;Node14</title>
<g id="a_edge26_Node000001_Node000014"><a xlink:title=" ">
<path fill="none" stroke="#63b8ff" d="M2283.24,-131.92C2322.2,-102.37 2381.02,-57.75 2412.35,-33.99"/>
<polygon fill="#63b8ff" stroke="#63b8ff" points="2281.34,-128.98 2275.49,-137.81 2285.57,-134.55 2281.34,-128.98"/>
</a>
</g>
</g>
<!-- Node15 -->
<g id="Node000015" class="node">
<title>Node15</title>
<g id="a_Node000015"><a xlink:href="LLZKRedundantReadAndWriteEliminationPass_8cpp.html" target="_top" xlink:title="This file implements the &#45;llzk&#45;duplicate&#45;read&#45;write&#45;elim pass.">
<polygon fill="white" stroke="#666666" points="2717.38,-33.5 2534.12,-33.5 2534.12,0 2717.38,0 2717.38,-33.5"/>
<text text-anchor="start" x="2542.12" y="-20" font-family="Helvetica,sans-Serif" font-size="10.00">lib/Transforms/LLZKRedundant</text>
<text text-anchor="middle" x="2625.75" y="-7.25" font-family="Helvetica,sans-Serif" font-size="10.00">ReadAndWriteEliminationPass.cpp</text>
</a>
</g>
</g>
<!-- Node1&#45;&gt;Node15 -->
<g id="edge27_Node000001_Node000015" class="edge">
<title>Node1&#45;&gt;Node15</title>
<g id="a_edge27_Node000001_Node000015"><a xlink:title=" ">
<path fill="none" stroke="#63b8ff" d="M2315.45,-134.52C2393.81,-105.03 2517.71,-58.41 2582.7,-33.95"/>
<polygon fill="#63b8ff" stroke="#63b8ff" points="2314.24,-131.23 2306.12,-138.03 2316.71,-137.79 2314.24,-131.23"/>
</a>
</g>
</g>
<!-- Node16 -->
<g id="Node000016" class="node">
<title>Node16</title>
<g id="a_Node000016"><a xlink:href="LLZKRemoveUnusedDiscardableAllocationsPass_8cpp.html" target="_top" xlink:title="This file implements the &#45;llzk&#45;remove&#45;unused&#45;discardable&#45;allocations pass.">
<polygon fill="white" stroke="#666666" points="2942,-33.5 2735.5,-33.5 2735.5,0 2942,0 2942,-33.5"/>
<text text-anchor="start" x="2743.5" y="-20" font-family="Helvetica,sans-Serif" font-size="10.00">lib/Transforms/LLZKRemove</text>
<text text-anchor="middle" x="2838.75" y="-7.25" font-family="Helvetica,sans-Serif" font-size="10.00">UnusedDiscardableAllocationsPass.cpp</text>
</a>
</g>
</g>
<!-- Node1&#45;&gt;Node16 -->
<g id="edge28_Node000001_Node000016" class="edge">
<title>Node1&#45;&gt;Node16</title>
<g id="a_edge28_Node000001_Node000016"><a xlink:title=" ">
<path fill="none" stroke="#63b8ff" d="M2342.54,-137.52C2463.69,-108.28 2666.88,-59.23 2771.7,-33.93"/>
<polygon fill="#63b8ff" stroke="#63b8ff" points="2341.81,-134.1 2332.91,-139.85 2343.45,-140.9 2341.81,-134.1"/>
</a>
</g>
</g>
<!-- Node18 -->
<g id="Node000018" class="node">
<title>Node18</title>
<g id="a_Node000018"><a xlink:href="LLZKUnusedDeclarationEliminationPass_8cpp.html" target="_top" xlink:title="This file implements the &#45;llzk&#45;unused&#45;declaration&#45;elim pass.">
<polygon fill="white" stroke="#666666" points="3129.62,-33.5 2959.88,-33.5 2959.88,0 3129.62,0 3129.62,-33.5"/>
<text text-anchor="start" x="2967.88" y="-20" font-family="Helvetica,sans-Serif" font-size="10.00">lib/Transforms/LLZKUnused</text>
<text text-anchor="middle" x="3044.75" y="-7.25" font-family="Helvetica,sans-Serif" font-size="10.00">DeclarationEliminationPass.cpp</text>
</a>
</g>
</g>
<!-- Node1&#45;&gt;Node18 -->
<g id="edge29_Node000001_Node000018" class="edge">
<title>Node1&#45;&gt;Node18</title>
<g id="a_edge29_Node000001_Node000018"><a xlink:title=" ">
<path fill="none" stroke="#63b8ff" d="M2342.62,-143.58C2500.75,-115.25 2809.76,-59.87 2959.44,-33.04"/>
<polygon fill="#63b8ff" stroke="#63b8ff" points="2342.22,-140.1 2332.99,-145.31 2343.46,-146.99 2342.22,-140.1"/>
</a>
</g>
</g>
<!-- Node19 -->
<g id="Node000019" class="node">
<title>Node19</title>
<g id="a_Node000019"><a xlink:href="LLZKWhileToForPass_8cpp.html" target="_top" xlink:title="This file identifies scf.while loops that can be converted to scf.for loops and performs the conversi...">
<polygon fill="white" stroke="#666666" points="3286.25,-33.5 3147.25,-33.5 3147.25,0 3286.25,0 3286.25,-33.5"/>
<text text-anchor="start" x="3155.25" y="-20" font-family="Helvetica,sans-Serif" font-size="10.00">lib/Transforms/LLZKWhile</text>
<text text-anchor="middle" x="3216.75" y="-7.25" font-family="Helvetica,sans-Serif" font-size="10.00">ToForPass.cpp</text>
</a>
</g>
</g>
<!-- Node1&#45;&gt;Node19 -->
<g id="edge30_Node000001_Node000019" class="edge">
<title>Node1&#45;&gt;Node19</title>
<g id="a_edge30_Node000001_Node000019"><a xlink:title=" ">
<path fill="none" stroke="#63b8ff" d="M2342.41,-149.23C2507.12,-128.72 2850.41,-83.99 3138.75,-33.5 3141.47,-33.02 3144.24,-32.53 3147.04,-32.01"/>
<polygon fill="#63b8ff" stroke="#63b8ff" points="2342.33,-145.72 2332.84,-150.42 2343.2,-152.66 2342.33,-145.72"/>
</a>
</g>
</g>
<!-- Node3 -->
<g id="Node000003" class="node">
<title>Node3</title>
<g id="a_Node000003"><a xlink:href="Transforms_8cpp.html" target="_top" xlink:title=" ">
<polygon fill="white" stroke="#666666" points="1806.12,-27.12 1675.38,-27.12 1675.38,-6.38 1806.12,-6.38 1806.12,-27.12"/>
<text text-anchor="middle" x="1740.75" y="-13.62" font-family="Helvetica,sans-Serif" font-size="10.00">lib/CAPI/Transforms.cpp</text>
</a>
</g>
</g>
<!-- Node2&#45;&gt;Node3 -->
<g id="edge2_Node000002_Node000003" class="edge">
<title>Node2&#45;&gt;Node3</title>
<g id="a_edge2_Node000002_Node000003"><a xlink:title=" ">
<path fill="none" stroke="#63b8ff" d="M1691.07,-61.87C1704.29,-50.13 1719.6,-36.53 1729.69,-27.57"/>
<polygon fill="#63b8ff" stroke="#63b8ff" points="1689.05,-58.99 1683.89,-68.25 1693.69,-64.22 1689.05,-58.99"/>
</a>
</g>
</g>
<!-- Node4 -->
<g id="Node000004" class="node">
<title>Node4</title>
<g id="a_Node000004"><a xlink:href="ArrayToScalarPass_8cpp.html" target="_top" xlink:title="This file implements the &#45;llzk&#45;array&#45;to&#45;scalar pass.">
<polygon fill="white" stroke="#666666" points="1975.62,-33.5 1823.88,-33.5 1823.88,0 1975.62,0 1975.62,-33.5"/>
<text text-anchor="start" x="1831.88" y="-20" font-family="Helvetica,sans-Serif" font-size="10.00">lib/Dialect/Array/Transforms</text>
<text text-anchor="middle" x="1899.75" y="-7.25" font-family="Helvetica,sans-Serif" font-size="10.00">/ArrayToScalarPass.cpp</text>
</a>
</g>
</g>
<!-- Node2&#45;&gt;Node4 -->
<g id="edge3_Node000002_Node000004" class="edge">
<title>Node2&#45;&gt;Node4</title>
<g id="a_edge3_Node000002_Node000004"><a xlink:title=" ">
<path fill="none" stroke="#63b8ff" d="M1731.74,-66.01C1767.07,-55.86 1809.93,-43.55 1843.51,-33.9"/>
<polygon fill="#63b8ff" stroke="#63b8ff" points="1731.14,-62.54 1722.49,-68.66 1733.07,-69.27 1731.14,-62.54"/>
</a>
</g>
</g>
<!-- Node5 -->
<g id="Node000005" class="node">
<title>Node5</title>
<g id="a_Node000005"><a xlink:href="Dialect_2InitDialects_8cpp.html" target="_top" xlink:title=" ">
<polygon fill="white" stroke="#666666" points="2137.88,-27.12 1993.62,-27.12 1993.62,-6.38 2137.88,-6.38 2137.88,-27.12"/>
<text text-anchor="middle" x="2065.75" y="-13.62" font-family="Helvetica,sans-Serif" font-size="10.00">lib/Dialect/InitDialects.cpp</text>
</a>
</g>
</g>
<!-- Node2&#45;&gt;Node5 -->
<g id="edge4_Node000002_Node000005" class="edge">
<title>Node2&#45;&gt;Node5</title>
<g id="a_edge4_Node000002_Node000005"><a xlink:title=" ">
<path fill="none" stroke="#63b8ff" d="M1755.39,-71.38C1819.53,-61.37 1907.52,-47.25 1984.75,-33.5 1995.05,-31.67 2006.06,-29.6 2016.54,-27.58"/>
<polygon fill="#63b8ff" stroke="#63b8ff" points="1754.94,-67.9 1745.6,-72.9 1756.02,-74.82 1754.94,-67.9"/>
</a>
</g>
</g>
<!-- Node6 -->
<g id="Node000006" class="node">
<title>Node6</title>
<g id="a_Node000006"><a xlink:href="PodToScalarPass_8cpp.html" target="_top" xlink:title="This file implements the &#45;llzk&#45;pod&#45;to&#45;scalar pass.">
<polygon fill="white" stroke="#666666" points="833,-33.5 686.5,-33.5 686.5,0 833,0 833,-33.5"/>
<text text-anchor="start" x="694.5" y="-20" font-family="Helvetica,sans-Serif" font-size="10.00">lib/Dialect/POD/Transforms</text>
<text text-anchor="middle" x="759.75" y="-7.25" font-family="Helvetica,sans-Serif" font-size="10.00">/PodToScalarPass.cpp</text>
</a>
</g>
</g>
<!-- Node2&#45;&gt;Node6 -->
<g id="edge5_Node000002_Node000006" class="edge">
<title>Node2&#45;&gt;Node6</title>
<g id="a_edge5_Node000002_Node000006"><a xlink:title=" ">
<path fill="none" stroke="#63b8ff" d="M1574.21,-76.45C1547.36,-74.01 1517.88,-71.48 1490.75,-69.5 1202.63,-48.48 1128.47,-68.83 841.75,-33.5 839.02,-33.16 836.24,-32.79 833.43,-32.39"/>
<polygon fill="#63b8ff" stroke="#63b8ff" points="1573.75,-79.92 1584.03,-77.35 1574.4,-72.95 1573.75,-79.92"/>
</a>
</g>
</g>
<!-- Node7 -->
<g id="Node000007" class="node">
<title>Node7</title>
<g id="a_Node000007"><a xlink:href="FlatteningPass_8cpp.html" target="_top" xlink:title="This file implements the &#45;llzk&#45;flatten pass.">
<polygon fill="white" stroke="#666666" points="1018.5,-33.5 851,-33.5 851,0 1018.5,0 1018.5,-33.5"/>
<text text-anchor="start" x="859" y="-20" font-family="Helvetica,sans-Serif" font-size="10.00">lib/Dialect/Polymorphic</text>
<text text-anchor="middle" x="934.75" y="-7.25" font-family="Helvetica,sans-Serif" font-size="10.00">/Transforms/FlatteningPass.cpp</text>
</a>
</g>
</g>
<!-- Node2&#45;&gt;Node7 -->
<g id="edge6_Node000002_Node000007" class="edge">
<title>Node2&#45;&gt;Node7</title>
<g id="a_edge6_Node000002_Node000007"><a xlink:title=" ">
<path fill="none" stroke="#63b8ff" d="M1574.18,-76.83C1547.33,-74.4 1517.86,-71.78 1490.75,-69.5 1285.08,-52.2 1232.6,-58.76 1027.75,-33.5 1024.82,-33.14 1021.85,-32.75 1018.85,-32.34"/>
<polygon fill="#63b8ff" stroke="#63b8ff" points="1573.73,-80.31 1584,-77.73 1574.36,-73.33 1573.73,-80.31"/>
</a>
</g>
</g>
<!-- Node2&#45;&gt;Node8 -->
<g id="edge7_Node000002_Node000008" class="edge">
<title>Node2&#45;&gt;Node8</title>
<g id="a_edge7_Node000002_Node000008"><a xlink:title=" ">
<path fill="none" stroke="#63b8ff" d="M1574.09,-83.84C1293.27,-79.21 440.26,-63.03 164.75,-33.5 161.85,-33.19 158.9,-32.84 155.93,-32.45"/>
<polygon fill="#63b8ff" stroke="#63b8ff" points="1573.86,-87.34 1583.92,-84 1573.98,-80.34 1573.86,-87.34"/>
</a>
</g>
</g>
<!-- Node2&#45;&gt;Node9 -->
<g id="edge8_Node000002_Node000009" class="edge">
<title>Node2&#45;&gt;Node9</title>
<g id="a_edge8_Node000002_Node000009"><a xlink:title=" ">
<path fill="none" stroke="#63b8ff" d="M1574.45,-83.5C1315.34,-78.2 572.56,-60.98 330.75,-33.5 327.98,-33.19 325.17,-32.83 322.33,-32.44"/>
<polygon fill="#63b8ff" stroke="#63b8ff" points="1574.1,-86.99 1584.17,-83.7 1574.24,-79.99 1574.1,-86.99"/>
</a>
</g>
</g>
<!-- Node2&#45;&gt;Node10 -->
<g id="edge9_Node000002_Node000010" class="edge">
<title>Node2&#45;&gt;Node10</title>
<g id="a_edge9_Node000002_Node000010"><a xlink:title=" ">
<path fill="none" stroke="#63b8ff" d="M1574.47,-81.47C1313.25,-70.49 571.85,-39.02 519.75,-33.5 517.12,-33.22 514.45,-32.92 511.75,-32.59"/>
<polygon fill="#63b8ff" stroke="#63b8ff" points="1574.15,-84.96 1584.29,-81.88 1574.45,-77.96 1574.15,-84.96"/>
</a>
</g>
</g>
<!-- Node2&#45;&gt;Node11 -->
<g id="edge10_Node000002_Node000011" class="edge">
<title>Node2&#45;&gt;Node11</title>
<g id="a_edge10_Node000002_Node000011"><a xlink:title=" ">
<path fill="none" stroke="#63b8ff" d="M1574.22,-76.26C1547.37,-73.81 1517.89,-71.33 1490.75,-69.5 1129.88,-45.19 1036.81,-76.98 677.75,-33.5 674.7,-33.13 671.58,-32.71 668.44,-32.24"/>
<polygon fill="#63b8ff" stroke="#63b8ff" points="1573.77,-79.73 1584.05,-77.17 1574.41,-72.76 1573.77,-79.73"/>
</a>
</g>
</g>
<!-- Node12 -->
<g id="Node000012" class="node">
<title>Node12</title>
<g id="a_Node000012"><a xlink:href="LLZKInliningExtensions_8cpp.html" target="_top" xlink:title=" ">
<polygon fill="white" stroke="#666666" points="1184.75,-33.5 1036.75,-33.5 1036.75,0 1184.75,0 1184.75,-33.5"/>
<text text-anchor="start" x="1044.75" y="-20" font-family="Helvetica,sans-Serif" font-size="10.00">lib/Transforms/LLZKInlining</text>
<text text-anchor="middle" x="1110.75" y="-7.25" font-family="Helvetica,sans-Serif" font-size="10.00">Extensions.cpp</text>
</a>
</g>
</g>
<!-- Node2&#45;&gt;Node12 -->
<g id="edge11_Node000002_Node000012" class="edge">
<title>Node2&#45;&gt;Node12</title>
<g id="a_edge11_Node000002_Node000012"><a xlink:title=" ">
<path fill="none" stroke="#63b8ff" d="M1574.46,-77.44C1479.45,-68.73 1325.68,-53.23 1193.75,-33.5 1190.85,-33.07 1187.89,-32.6 1184.91,-32.12"/>
<polygon fill="#63b8ff" stroke="#63b8ff" points="1573.97,-80.91 1584.25,-78.33 1574.61,-73.94 1573.97,-80.91"/>
</a>
</g>
</g>
<!-- Node2&#45;&gt;Node13 -->
<g id="edge12_Node000002_Node000013" class="edge">
<title>Node2&#45;&gt;Node13</title>
<g id="a_edge12_Node000002_Node000013"><a xlink:title=" ">
<path fill="none" stroke="#63b8ff" d="M1755.02,-76.98C1852,-67.77 2010.54,-51.74 2146.75,-33.5 2149.74,-33.1 2152.78,-32.68 2155.84,-32.25"/>
<polygon fill="#63b8ff" stroke="#63b8ff" points="1754.93,-73.48 1745.31,-77.9 1755.59,-80.44 1754.93,-73.48"/>
</a>
</g>
</g>
<!-- Node2&#45;&gt;Node14 -->
<g id="edge13_Node000002_Node000014" class="edge">
<title>Node2&#45;&gt;Node14</title>
<g id="a_edge13_Node000002_Node000014"><a xlink:title=" ">
<path fill="none" stroke="#63b8ff" d="M1755.54,-81.07C1885.87,-74.45 2133.37,-59.55 2342.75,-33.5 2345.61,-33.14 2348.53,-32.76 2351.46,-32.35"/>
<polygon fill="#63b8ff" stroke="#63b8ff" points="1755.39,-77.58 1745.58,-81.57 1755.74,-84.57 1755.39,-77.58"/>
</a>
</g>
</g>
<!-- Node2&#45;&gt;Node15 -->
<g id="edge14_Node000002_Node000015" class="edge">
<title>Node2&#45;&gt;Node15</title>
<g id="a_edge14_Node000002_Node000015"><a xlink:title=" ">
<path fill="none" stroke="#63b8ff" d="M1755.57,-82.61C1912.69,-77.41 2245.28,-63.63 2524.75,-33.5 2527.75,-33.18 2530.8,-32.83 2533.87,-32.46"/>
<polygon fill="#63b8ff" stroke="#63b8ff" points="1755.5,-79.11 1745.62,-82.93 1755.72,-86.11 1755.5,-79.11"/>
</a>
</g>
</g>
<!-- Node2&#45;&gt;Node16 -->
<g id="edge15_Node000002_Node000016" class="edge">
<title>Node2&#45;&gt;Node16</title>
<g id="a_edge15_Node000002_Node000016"><a xlink:title=" ">
<path fill="none" stroke="#63b8ff" d="M1755.33,-83.61C1938.95,-79.69 2368.04,-67.39 2726.75,-33.5 2729.49,-33.24 2732.26,-32.96 2735.06,-32.67"/>
<polygon fill="#63b8ff" stroke="#63b8ff" points="1755.3,-80.11 1745.38,-83.82 1755.45,-87.11 1755.3,-80.11"/>
</a>
</g>
</g>
<!-- Node17 -->
<g id="Node000017" class="node">
<title>Node17</title>
<g id="a_Node000017"><a xlink:href="LLZKTransformationPassPipelines_8cpp.html" target="_top" xlink:title="This file implements logic for registering several pass pipelines.">
<polygon fill="white" stroke="#666666" points="1387.12,-33.5 1202.38,-33.5 1202.38,0 1387.12,0 1387.12,-33.5"/>
<text text-anchor="start" x="1210.38" y="-20" font-family="Helvetica,sans-Serif" font-size="10.00">lib/Transforms/LLZKTransformation</text>
<text text-anchor="middle" x="1294.75" y="-7.25" font-family="Helvetica,sans-Serif" font-size="10.00">PassPipelines.cpp</text>
</a>
</g>
</g>
<!-- Node2&#45;&gt;Node17 -->
<g id="edge16_Node000002_Node000017" class="edge">
<title>Node2&#45;&gt;Node17</title>
<g id="a_edge16_Node000002_Node000017"><a xlink:title=" ">
<path fill="none" stroke="#63b8ff" d="M1574.38,-68.76C1516.4,-58.19 1441.44,-44.51 1383.73,-33.98"/>
<polygon fill="#63b8ff" stroke="#63b8ff" points="1573.42,-72.15 1583.89,-70.5 1574.68,-65.26 1573.42,-72.15"/>
</a>
</g>
</g>
<!-- Node2&#45;&gt;Node18 -->
<g id="edge17_Node000002_Node000018" class="edge">
<title>Node2&#45;&gt;Node18</title>
<g id="a_edge17_Node000002_Node000018"><a xlink:title=" ">
<path fill="none" stroke="#63b8ff" d="M1755.3,-85.51C1965.74,-85.27 2503.9,-79.74 2950.75,-33.5 2953.63,-33.2 2956.56,-32.87 2959.51,-32.51"/>
<polygon fill="#63b8ff" stroke="#63b8ff" points="1755.53,-82.01 1745.53,-85.52 1755.54,-89.01 1755.53,-82.01"/>
</a>
</g>
</g>
<!-- Node2&#45;&gt;Node19 -->
<g id="edge18_Node000002_Node000019" class="edge">
<title>Node2&#45;&gt;Node19</title>
<g id="a_edge18_Node000002_Node000019"><a xlink:title=" ">
<path fill="none" stroke="#63b8ff" d="M1755.31,-84.02C2032.81,-79.94 2868.8,-65.28 3138.75,-33.5 3141.49,-33.18 3144.29,-32.81 3147.1,-32.4"/>
<polygon fill="#63b8ff" stroke="#63b8ff" points="1755.56,-80.51 1745.61,-84.16 1755.66,-87.51 1755.56,-80.51"/>
</a>
</g>
</g>
<!-- Node20 -->
<g id="Node000020" class="node">
<title>Node20</title>
<g id="a_Node000020"><a xlink:href="llzk-opt_8cpp.html" target="_top" xlink:title="This file implements a version of the mlir&#45;opt tool configured for use on LLZK files.">
<polygon fill="white" stroke="#666666" points="1504.75,-33.5 1404.75,-33.5 1404.75,0 1504.75,0 1504.75,-33.5"/>
<text text-anchor="start" x="1412.75" y="-20" font-family="Helvetica,sans-Serif" font-size="10.00">tools/llzk&#45;opt/llzk</text>
<text text-anchor="middle" x="1454.75" y="-7.25" font-family="Helvetica,sans-Serif" font-size="10.00">&#45;opt.cpp</text>
</a>
</g>
</g>
<!-- Node2&#45;&gt;Node20 -->
<g id="edge19_Node000002_Node000020" class="edge">
<title>Node2&#45;&gt;Node20</title>
<g id="a_edge19_Node000002_Node000020"><a xlink:title=" ">
<path fill="none" stroke="#63b8ff" d="M1603.66,-65.61C1572.32,-55.54 1534.63,-43.42 1505,-33.9"/>
<polygon fill="#63b8ff" stroke="#63b8ff" points="1602.42,-68.89 1613.01,-68.62 1604.56,-62.23 1602.42,-68.89"/>
</a>
</g>
</g>
<!-- Node21 -->
<g id="Node000021" class="node">
<title>Node21</title>
<g id="a_Node000021"><a xlink:href="WitgenLowering_8cpp.html" target="_top" xlink:title=" ">
<polygon fill="white" stroke="#666666" points="1657,-33.5 1522.5,-33.5 1522.5,0 1657,0 1657,-33.5"/>
<text text-anchor="start" x="1530.5" y="-20" font-family="Helvetica,sans-Serif" font-size="10.00">tools/llzk&#45;witgen/Witgen</text>
<text text-anchor="middle" x="1589.75" y="-7.25" font-family="Helvetica,sans-Serif" font-size="10.00">Lowering.cpp</text>
</a>
</g>
</g>
<!-- Node2&#45;&gt;Node21 -->
<g id="edge20_Node000002_Node000021" class="edge">
<title>Node2&#45;&gt;Node21</title>
<g id="a_edge20_Node000002_Node000021"><a xlink:title=" ">
<path fill="none" stroke="#63b8ff" d="M1638.43,-61.56C1628.25,-52.4 1616.86,-42.15 1607.66,-33.87"/>
<polygon fill="#63b8ff" stroke="#63b8ff" points="1636.08,-64.15 1645.85,-68.24 1640.76,-58.95 1636.08,-64.15"/>
</a>
</g>
</g>
</g>
</svg>
