<?xml version="1.0" encoding="UTF-8" standalone="no"?>
<!DOCTYPE svg PUBLIC "-//W3C//DTD SVG 1.1//EN"
 "http://www.w3.org/Graphics/SVG/1.1/DTD/svg11.dtd">
<!-- Generated by graphviz version 12.2.1 (0)
 -->
<!-- Title: include/llzk/Transforms/LLZKTransformationPasses.h Pages: 1 -->
<svg width="1817pt" height="250pt"
 viewBox="0.00 0.00 1817.12 250.00" xmlns="http://www.w3.org/2000/svg" xmlns:xlink="http://www.w3.org/1999/xlink">
<g id="graph0" class="graph" transform="scale(1 1) rotate(0) translate(4 246)">
<title>include/llzk/Transforms/LLZKTransformationPasses.h</title>
<!-- Node1 -->
<g id="Node000001" class="node">
<title>Node1</title>
<g id="a_Node000001"><a xlink:title=" ">
<polygon fill="#999999" stroke="#666666" points="1037,-242 879.25,-242 879.25,-208.5 1037,-208.5 1037,-242"/>
<text text-anchor="start" x="887.25" y="-228.5" font-family="Helvetica,sans-Serif" font-size="10.00">include/llzk/Transforms</text>
<text text-anchor="middle" x="958.12" y="-215.75" font-family="Helvetica,sans-Serif" font-size="10.00">/LLZKTransformationPasses.h</text>
</a>
</g>
</g>
<!-- Node2 -->
<g id="Node000002" class="node">
<title>Node2</title>
<g id="a_Node000002"><a xlink:href="Config_8h.html" target="_top" xlink:title=" ">
<polygon fill="white" stroke="#666666" points="882,-166.12 772.25,-166.12 772.25,-145.38 882,-145.38 882,-166.12"/>
<text text-anchor="middle" x="827.12" y="-152.62" font-family="Helvetica,sans-Serif" font-size="10.00">llzk/Config/Config.h</text>
</a>
</g>
</g>
<!-- Node1&#45;&gt;Node2 -->
<g id="edge1_Node000001_Node000002" class="edge">
<title>Node1&#45;&gt;Node2</title>
<g id="a_edge1_Node000001_Node000002"><a xlink:title=" ">
<path fill="none" stroke="#63b8ff" d="M926.75,-208.08C905.35,-197.06 877.21,-182.55 856.29,-171.78"/>
<polygon fill="#63b8ff" stroke="#63b8ff" points="857.93,-168.68 847.43,-167.21 854.72,-174.91 857.93,-168.68"/>
</a>
</g>
</g>
<!-- Node3 -->
<g id="Node000003" class="node">
<title>Node3</title>
<g id="a_Node000003"><a xlink:href="PassBase_8h.html" target="_top" xlink:title=" ">
<polygon fill="white" stroke="#666666" points="1016,-166.12 900.25,-166.12 900.25,-145.38 1016,-145.38 1016,-166.12"/>
<text text-anchor="middle" x="958.12" y="-152.62" font-family="Helvetica,sans-Serif" font-size="10.00">llzk/Pass/PassBase.h</text>
</a>
</g>
</g>
<!-- Node1&#45;&gt;Node3 -->
<g id="edge2_Node000001_Node000003" class="edge">
<title>Node1&#45;&gt;Node3</title>
<g id="a_edge2_Node000001_Node000003"><a xlink:title=" ">
<path fill="none" stroke="#63b8ff" d="M958.12,-208.25C958.12,-199.15 958.12,-187.64 958.12,-177.82"/>
<polygon fill="#63b8ff" stroke="#63b8ff" points="961.63,-178.09 958.13,-168.09 954.63,-178.09 961.63,-178.09"/>
</a>
</g>
</g>
<!-- Node30 -->
<g id="Node000030" class="node">
<title>Node30</title>
<g id="a_Node000030"><a xlink:href="LLZKTransformationPasses_8h_8inc.html" target="_top" xlink:title=" ">
<polygon fill="white" stroke="#666666" points="1224.12,-172.5 1034.12,-172.5 1034.12,-139 1224.12,-139 1224.12,-172.5"/>
<text text-anchor="start" x="1042.12" y="-159" font-family="Helvetica,sans-Serif" font-size="10.00">llzk/Transforms/LLZKTransformation</text>
<text text-anchor="middle" x="1129.12" y="-146.25" font-family="Helvetica,sans-Serif" font-size="10.00">Passes.h.inc</text>
</a>
</g>
</g>
<!-- Node1&#45;&gt;Node30 -->
<g id="edge39_Node000001_Node000030" class="edge">
<title>Node1&#45;&gt;Node30</title>
<g id="a_edge39_Node000001_Node000030"><a xlink:title=" ">
<path fill="none" stroke="#63b8ff" d="M999.08,-208.08C1022.69,-198.77 1052.57,-186.97 1077.74,-177.03"/>
<polygon fill="#63b8ff" stroke="#63b8ff" points="1078.78,-180.39 1086.8,-173.46 1076.21,-173.87 1078.78,-180.39"/>
</a>
</g>
</g>
<!-- Node4 -->
<g id="Node000004" class="node">
<title>Node4</title>
<g id="a_Node000004"><a xlink:href="Array_2IR_2Dialect_8h.html" target="_top" xlink:title=" ">
<polygon fill="white" stroke="#666666" points="1454.12,-103 1354.12,-103 1354.12,-69.5 1454.12,-69.5 1454.12,-103"/>
<text text-anchor="start" x="1362.12" y="-89.5" font-family="Helvetica,sans-Serif" font-size="10.00">llzk/Dialect/Array</text>
<text text-anchor="middle" x="1404.12" y="-76.75" font-family="Helvetica,sans-Serif" font-size="10.00">/IR/Dialect.h</text>
</a>
</g>
</g>
<!-- Node3&#45;&gt;Node4 -->
<g id="edge3_Node000003_Node000004" class="edge">
<title>Node3&#45;&gt;Node4</title>
<g id="a_edge3_Node000003_Node000004"><a xlink:title=" ">
<path fill="none" stroke="#63b8ff" d="M996.58,-144.88C1005.88,-142.73 1015.82,-140.61 1025.12,-139 1162.57,-115.2 1202.47,-128.8 1342.55,-103.31"/>
<polygon fill="#63b8ff" stroke="#63b8ff" points="1343.03,-106.78 1352.22,-101.51 1341.75,-99.9 1343.03,-106.78"/>
</a>
</g>
</g>
<!-- Node7 -->
<g id="Node000007" class="node">
<title>Node7</title>
<g id="a_Node000007"><a xlink:href="Bool_2IR_2Dialect_8h.html" target="_top" xlink:title=" ">
<polygon fill="white" stroke="#666666" points="171.25,-103 63,-103 63,-69.5 171.25,-69.5 171.25,-103"/>
<text text-anchor="start" x="71" y="-89.5" font-family="Helvetica,sans-Serif" font-size="10.00">llzk/Dialect/Bool/IR</text>
<text text-anchor="middle" x="117.12" y="-76.75" font-family="Helvetica,sans-Serif" font-size="10.00">/Dialect.h</text>
</a>
</g>
</g>
<!-- Node3&#45;&gt;Node7 -->
<g id="edge6_Node000003_Node000007" class="edge">
<title>Node3&#45;&gt;Node7</title>
<g id="a_edge6_Node000003_Node000007"><a xlink:title=" ">
<path fill="none" stroke="#63b8ff" d="M921.49,-144.88C911.69,-142.59 901.06,-140.41 891.12,-139 581.52,-95.14 495.1,-148.31 182.83,-103.21"/>
<polygon fill="#63b8ff" stroke="#63b8ff" points="183.53,-99.78 173.13,-101.79 182.51,-106.7 183.53,-99.78"/>
</a>
</g>
</g>
<!-- Node9 -->
<g id="Node000009" class="node">
<title>Node9</title>
<g id="a_Node000009"><a xlink:href="Constrain_2IR_2Dialect_8h.html" target="_top" xlink:title=" ">
<polygon fill="white" stroke="#666666" points="309.25,-103 189,-103 189,-69.5 309.25,-69.5 309.25,-103"/>
<text text-anchor="start" x="197" y="-89.5" font-family="Helvetica,sans-Serif" font-size="10.00">llzk/Dialect/Constrain</text>
<text text-anchor="middle" x="249.12" y="-76.75" font-family="Helvetica,sans-Serif" font-size="10.00">/IR/Dialect.h</text>
</a>
</g>
</g>
<!-- Node3&#45;&gt;Node9 -->
<g id="edge9_Node000003_Node000009" class="edge">
<title>Node3&#45;&gt;Node9</title>
<g id="a_edge9_Node000003_Node000009"><a xlink:title=" ">
<path fill="none" stroke="#63b8ff" d="M921.13,-144.88C911.43,-142.62 900.94,-140.45 891.12,-139 642.4,-102.22 572.7,-138.42 320.95,-103.25"/>
<polygon fill="#63b8ff" stroke="#63b8ff" points="321.5,-99.79 311.1,-101.85 320.51,-106.72 321.5,-99.79"/>
</a>
</g>
</g>
<!-- Node11 -->
<g id="Node000011" class="node">
<title>Node11</title>
<g id="a_Node000011"><a xlink:href="Felt_2IR_2Dialect_8h.html" target="_top" xlink:title=" ">
<polygon fill="white" stroke="#666666" points="431.38,-103 326.88,-103 326.88,-69.5 431.38,-69.5 431.38,-103"/>
<text text-anchor="start" x="334.88" y="-89.5" font-family="Helvetica,sans-Serif" font-size="10.00">llzk/Dialect/Felt/IR</text>
<text text-anchor="middle" x="379.12" y="-76.75" font-family="Helvetica,sans-Serif" font-size="10.00">/Dialect.h</text>
</a>
</g>
</g>
<!-- Node3&#45;&gt;Node11 -->
<g id="edge12_Node000003_Node000011" class="edge">
<title>Node3&#45;&gt;Node11</title>
<g id="a_edge12_Node000003_Node000011"><a xlink:title=" ">
<path fill="none" stroke="#63b8ff" d="M920.76,-144.91C911.16,-142.68 900.81,-140.52 891.12,-139 696.48,-108.52 641.05,-134.83 442.85,-103.08"/>
<polygon fill="#63b8ff" stroke="#63b8ff" points="443.69,-99.67 433.26,-101.51 442.56,-106.58 443.69,-99.67"/>
</a>
</g>
</g>
<!-- Node13 -->
<g id="Node000013" class="node">
<title>Node13</title>
<g id="a_Node000013"><a xlink:href="Function_2IR_2Dialect_8h.html" target="_top" xlink:title=" ">
<polygon fill="white" stroke="#666666" points="564.62,-103 449.62,-103 449.62,-69.5 564.62,-69.5 564.62,-103"/>
<text text-anchor="start" x="457.62" y="-89.5" font-family="Helvetica,sans-Serif" font-size="10.00">llzk/Dialect/Function</text>
<text text-anchor="middle" x="507.12" y="-76.75" font-family="Helvetica,sans-Serif" font-size="10.00">/IR/Dialect.h</text>
</a>
</g>
</g>
<!-- Node3&#45;&gt;Node13 -->
<g id="edge15_Node000003_Node000013" class="edge">
<title>Node3&#45;&gt;Node13</title>
<g id="a_edge15_Node000003_Node000013"><a xlink:title=" ">
<path fill="none" stroke="#63b8ff" d="M919.67,-144.89C910.37,-142.73 900.43,-140.61 891.12,-139 754.54,-115.3 715.21,-126.92 576.07,-103.39"/>
<polygon fill="#63b8ff" stroke="#63b8ff" points="576.93,-99.99 566.48,-101.74 575.74,-106.89 576.93,-99.99"/>
</a>
</g>
</g>
<!-- Node15 -->
<g id="Node000015" class="node">
<title>Node15</title>
<g id="a_Node000015"><a xlink:href="Global_2IR_2Dialect_8h.html" target="_top" xlink:title=" ">
<polygon fill="white" stroke="#666666" points="687.75,-103 582.5,-103 582.5,-69.5 687.75,-69.5 687.75,-103"/>
<text text-anchor="start" x="590.5" y="-89.5" font-family="Helvetica,sans-Serif" font-size="10.00">llzk/Dialect/Global</text>
<text text-anchor="middle" x="635.12" y="-76.75" font-family="Helvetica,sans-Serif" font-size="10.00">/IR/Dialect.h</text>
</a>
</g>
</g>
<!-- Node3&#45;&gt;Node15 -->
<g id="edge18_Node000003_Node000015" class="edge">
<title>Node3&#45;&gt;Node15</title>
<g id="a_edge18_Node000003_Node000015"><a xlink:title=" ">
<path fill="none" stroke="#63b8ff" d="M917.8,-144.95C909.03,-142.9 899.78,-140.82 891.12,-139 808.74,-121.68 784.68,-121.77 699.2,-103.37"/>
<polygon fill="#63b8ff" stroke="#63b8ff" points="700.17,-100 689.65,-101.29 698.68,-106.84 700.17,-100"/>
</a>
</g>
</g>
<!-- Node17 -->
<g id="Node000017" class="node">
<title>Node17</title>
<g id="a_Node000017"><a xlink:href="Include_2IR_2Dialect_8h.html" target="_top" xlink:title=" ">
<polygon fill="white" stroke="#666666" points="814.62,-103 705.62,-103 705.62,-69.5 814.62,-69.5 814.62,-103"/>
<text text-anchor="start" x="713.62" y="-89.5" font-family="Helvetica,sans-Serif" font-size="10.00">llzk/Dialect/Include</text>
<text text-anchor="middle" x="760.12" y="-76.75" font-family="Helvetica,sans-Serif" font-size="10.00">/IR/Dialect.h</text>
</a>
</g>
</g>
<!-- Node3&#45;&gt;Node17 -->
<g id="edge21_Node000003_Node000017" class="edge">
<title>Node3&#45;&gt;Node17</title>
<g id="a_edge21_Node000003_Node000017"><a xlink:title=" ">
<path fill="none" stroke="#63b8ff" d="M929.33,-144.93C900.34,-135.05 854.8,-119.52 818.26,-107.07"/>
<polygon fill="#63b8ff" stroke="#63b8ff" points="819.75,-103.88 809.16,-103.97 817.5,-110.51 819.75,-103.88"/>
</a>
</g>
</g>
<!-- Node19 -->
<g id="Node000019" class="node">
<title>Node19</title>
<g id="a_Node000019"><a xlink:href="LLZK_2IR_2Dialect_8h.html" target="_top" xlink:title=" ">
<polygon fill="white" stroke="#666666" points="943.38,-103 832.88,-103 832.88,-69.5 943.38,-69.5 943.38,-103"/>
<text text-anchor="start" x="840.88" y="-89.5" font-family="Helvetica,sans-Serif" font-size="10.00">llzk/Dialect/LLZK/IR</text>
<text text-anchor="middle" x="888.12" y="-76.75" font-family="Helvetica,sans-Serif" font-size="10.00">/Dialect.h</text>
</a>
</g>
</g>
<!-- Node3&#45;&gt;Node19 -->
<g id="edge24_Node000003_Node000019" class="edge">
<title>Node3&#45;&gt;Node19</title>
<g id="a_edge24_Node000003_Node000019"><a xlink:title=" ">
<path fill="none" stroke="#63b8ff" d="M948.1,-145.08C938.94,-136.25 925.03,-122.84 912.92,-111.16"/>
<polygon fill="#63b8ff" stroke="#63b8ff" points="915.61,-108.89 905.98,-104.47 910.75,-113.93 915.61,-108.89"/>
</a>
</g>
</g>
<!-- Node21 -->
<g id="Node000021" class="node">
<title>Node21</title>
<g id="a_Node000021"><a xlink:href="Polymorphic_2IR_2Dialect_8h.html" target="_top" xlink:title=" ">
<polygon fill="white" stroke="#666666" points="1096.38,-103 961.88,-103 961.88,-69.5 1096.38,-69.5 1096.38,-103"/>
<text text-anchor="start" x="969.88" y="-89.5" font-family="Helvetica,sans-Serif" font-size="10.00">llzk/Dialect/Polymorphic</text>
<text text-anchor="middle" x="1029.12" y="-76.75" font-family="Helvetica,sans-Serif" font-size="10.00">/IR/Dialect.h</text>
</a>
</g>
</g>
<!-- Node3&#45;&gt;Node21 -->
<g id="edge27_Node000003_Node000021" class="edge">
<title>Node3&#45;&gt;Node21</title>
<g id="a_edge27_Node000003_Node000021"><a xlink:title=" ">
<path fill="none" stroke="#63b8ff" d="M968.3,-145.08C977.58,-136.25 991.69,-122.84 1003.98,-111.16"/>
<polygon fill="#63b8ff" stroke="#63b8ff" points="1006.18,-113.89 1011.02,-104.46 1001.36,-108.82 1006.18,-113.89"/>
</a>
</g>
</g>
<!-- Node23 -->
<g id="Node000023" class="node">
<title>Node23</title>
<g id="a_Node000023"><a xlink:href="String_2IR_2Dialect_8h.html" target="_top" xlink:title=" ">
<polygon fill="white" stroke="#666666" points="1216.25,-103 1114,-103 1114,-69.5 1216.25,-69.5 1216.25,-103"/>
<text text-anchor="start" x="1122" y="-89.5" font-family="Helvetica,sans-Serif" font-size="10.00">llzk/Dialect/String</text>
<text text-anchor="middle" x="1165.12" y="-76.75" font-family="Helvetica,sans-Serif" font-size="10.00">/IR/Dialect.h</text>
</a>
</g>
</g>
<!-- Node3&#45;&gt;Node23 -->
<g id="edge30_Node000003_Node000023" class="edge">
<title>Node3&#45;&gt;Node23</title>
<g id="a_edge30_Node000003_Node000023"><a xlink:title=" ">
<path fill="none" stroke="#63b8ff" d="M988.22,-144.93C1018.67,-135.01 1066.56,-119.39 1104.84,-106.91"/>
<polygon fill="#63b8ff" stroke="#63b8ff" points="1105.5,-110.38 1113.92,-103.95 1103.33,-103.72 1105.5,-110.38"/>
</a>
</g>
</g>
<!-- Node25 -->
<g id="Node000025" class="node">
<title>Node25</title>
<g id="a_Node000025"><a xlink:href="Struct_2IR_2Dialect_8h.html" target="_top" xlink:title=" ">
<polygon fill="white" stroke="#666666" points="1336.25,-103 1234,-103 1234,-69.5 1336.25,-69.5 1336.25,-103"/>
<text text-anchor="start" x="1242" y="-89.5" font-family="Helvetica,sans-Serif" font-size="10.00">llzk/Dialect/Struct</text>
<text text-anchor="middle" x="1285.12" y="-76.75" font-family="Helvetica,sans-Serif" font-size="10.00">/IR/Dialect.h</text>
</a>
</g>
</g>
<!-- Node3&#45;&gt;Node25 -->
<g id="edge33_Node000003_Node000025" class="edge">
<title>Node3&#45;&gt;Node25</title>
<g id="a_edge33_Node000003_Node000025"><a xlink:title=" ">
<path fill="none" stroke="#63b8ff" d="M998.44,-144.91C1007.22,-142.87 1016.47,-140.8 1025.12,-139 1110.11,-121.38 1135.01,-122.37 1222.78,-103.42"/>
<polygon fill="#63b8ff" stroke="#63b8ff" points="1223.3,-106.89 1232.32,-101.33 1221.81,-100.05 1223.3,-106.89"/>
</a>
</g>
</g>
<!-- Node27 -->
<g id="Node000027" class="node">
<title>Node27</title>
<g id="a_Node000027"><a xlink:title=" ">
<polygon fill="#e0e0e0" stroke="#999999" points="1571.75,-103 1472.5,-103 1472.5,-69.5 1571.75,-69.5 1571.75,-103"/>
<text text-anchor="start" x="1480.5" y="-89.5" font-family="Helvetica,sans-Serif" font-size="10.00">mlir/Dialect/Arith</text>
<text text-anchor="middle" x="1522.12" y="-76.75" font-family="Helvetica,sans-Serif" font-size="10.00">/IR/Arith.h</text>
</a>
</g>
</g>
<!-- Node3&#45;&gt;Node27 -->
<g id="edge36_Node000003_Node000027" class="edge">
<title>Node3&#45;&gt;Node27</title>
<g id="a_edge36_Node000003_Node000027"><a xlink:title=" ">
<path fill="none" stroke="#63b8ff" d="M995.49,-144.93C1005.09,-142.69 1015.45,-140.53 1025.12,-139 1214.39,-109.15 1268.61,-135.29 1460.7,-103.21"/>
<polygon fill="#63b8ff" stroke="#63b8ff" points="1461.29,-106.66 1470.56,-101.53 1460.11,-99.76 1461.29,-106.66"/>
</a>
</g>
</g>
<!-- Node28 -->
<g id="Node000028" class="node">
<title>Node28</title>
<g id="a_Node000028"><a xlink:title=" ">
<polygon fill="#e0e0e0" stroke="#999999" points="1696.88,-103 1589.38,-103 1589.38,-69.5 1696.88,-69.5 1696.88,-103"/>
<text text-anchor="start" x="1597.38" y="-89.5" font-family="Helvetica,sans-Serif" font-size="10.00">mlir/Dialect/SCF/IR</text>
<text text-anchor="middle" x="1643.12" y="-76.75" font-family="Helvetica,sans-Serif" font-size="10.00">/SCF.h</text>
</a>
</g>
</g>
<!-- Node3&#45;&gt;Node28 -->
<g id="edge37_Node000003_Node000028" class="edge">
<title>Node3&#45;&gt;Node28</title>
<g id="a_edge37_Node000003_Node000028"><a xlink:title=" ">
<path fill="none" stroke="#63b8ff" d="M995.12,-144.89C1004.82,-142.63 1015.32,-140.46 1025.12,-139 1266.35,-103.09 1334.48,-140.48 1577.8,-103.35"/>
<polygon fill="#63b8ff" stroke="#63b8ff" points="1578.31,-106.81 1587.65,-101.82 1577.23,-99.9 1578.31,-106.81"/>
</a>
</g>
</g>
<!-- Node29 -->
<g id="Node000029" class="node">
<title>Node29</title>
<g id="a_Node000029"><a xlink:title=" ">
<polygon fill="#e0e0e0" stroke="#999999" points="1809.12,-96.62 1715.12,-96.62 1715.12,-75.88 1809.12,-75.88 1809.12,-96.62"/>
<text text-anchor="middle" x="1762.12" y="-83.12" font-family="Helvetica,sans-Serif" font-size="10.00">mlir/Pass/Pass.h</text>
</a>
</g>
</g>
<!-- Node3&#45;&gt;Node29 -->
<g id="edge38_Node000003_Node000029" class="edge">
<title>Node3&#45;&gt;Node29</title>
<g id="a_edge38_Node000003_Node000029"><a xlink:title=" ">
<path fill="none" stroke="#63b8ff" d="M994.76,-144.9C1004.56,-142.6 1015.19,-140.42 1025.12,-139 1325.17,-96.15 1407.08,-152.33 1706.12,-103 1711.02,-102.19 1716.1,-101.11 1721.11,-99.9"/>
<polygon fill="#63b8ff" stroke="#63b8ff" points="1721.64,-103.38 1730.42,-97.46 1719.86,-96.61 1721.64,-103.38"/>
</a>
</g>
</g>
<!-- Node5 -->
<g id="Node000005" class="node">
<title>Node5</title>
<g id="a_Node000005"><a xlink:title=" ">
<polygon fill="#e0e0e0" stroke="#999999" points="753.38,-27.12 642.88,-27.12 642.88,-6.38 753.38,-6.38 753.38,-27.12"/>
<text text-anchor="middle" x="698.12" y="-13.62" font-family="Helvetica,sans-Serif" font-size="10.00">mlir/IR/BuiltinOps.h</text>
</a>
</g>
</g>
<!-- Node4&#45;&gt;Node5 -->
<g id="edge4_Node000004_Node000005" class="edge">
<title>Node4&#45;&gt;Node5</title>
<g id="a_edge4_Node000004_Node000005"><a xlink:title=" ">
<path fill="none" stroke="#63b8ff" d="M1353.74,-71.09C1350.84,-70.5 1347.95,-69.96 1345.12,-69.5 1089.33,-27.87 1019.39,-72.16 763.12,-33.5 757.1,-32.59 750.81,-31.39 744.62,-30.06"/>
<polygon fill="#63b8ff" stroke="#63b8ff" points="745.67,-26.71 735.14,-27.89 744.11,-33.53 745.67,-26.71"/>
</a>
</g>
</g>
<!-- Node6 -->
<g id="Node000006" class="node">
<title>Node6</title>
<g id="a_Node000006"><a xlink:href="Array_2IR_2Dialect_8h_8inc.html" target="_top" xlink:title=" ">
<polygon fill="white" stroke="#666666" points="1520.12,-33.5 1420.12,-33.5 1420.12,0 1520.12,0 1520.12,-33.5"/>
<text text-anchor="start" x="1428.12" y="-20" font-family="Helvetica,sans-Serif" font-size="10.00">llzk/Dialect/Array</text>
<text text-anchor="middle" x="1470.12" y="-7.25" font-family="Helvetica,sans-Serif" font-size="10.00">/IR/Dialect.h.inc</text>
</a>
</g>
</g>
<!-- Node4&#45;&gt;Node6 -->
<g id="edge5_Node000004_Node000006" class="edge">
<title>Node4&#45;&gt;Node6</title>
<g id="a_edge5_Node000004_Node000006"><a xlink:title=" ">
<path fill="none" stroke="#63b8ff" d="M1419.77,-69.25C1427.82,-61.02 1437.81,-50.8 1446.75,-41.65"/>
<polygon fill="#63b8ff" stroke="#63b8ff" points="1449.05,-44.31 1453.54,-34.71 1444.04,-39.42 1449.05,-44.31"/>
</a>
</g>
</g>
<!-- Node7&#45;&gt;Node5 -->
<g id="edge7_Node000007_Node000005" class="edge">
<title>Node7&#45;&gt;Node5</title>
<g id="a_edge7_Node000007_Node000005"><a xlink:title=" ">
<path fill="none" stroke="#63b8ff" d="M171.65,-71.03C174.5,-70.47 177.34,-69.95 180.12,-69.5 379.88,-36.84 434.31,-65.79 634.12,-33.5 639.77,-32.59 645.65,-31.43 651.46,-30.16"/>
<polygon fill="#63b8ff" stroke="#63b8ff" points="652.03,-33.62 660.98,-27.95 650.45,-26.8 652.03,-33.62"/>
</a>
</g>
</g>
<!-- Node8 -->
<g id="Node000008" class="node">
<title>Node8</title>
<g id="a_Node000008"><a xlink:href="Bool_2IR_2Dialect_8h_8inc.html" target="_top" xlink:title=" ">
<polygon fill="white" stroke="#666666" points="108.25,-33.5 0,-33.5 0,0 108.25,0 108.25,-33.5"/>
<text text-anchor="start" x="8" y="-20" font-family="Helvetica,sans-Serif" font-size="10.00">llzk/Dialect/Bool/IR</text>
<text text-anchor="middle" x="54.12" y="-7.25" font-family="Helvetica,sans-Serif" font-size="10.00">/Dialect.h.inc</text>
</a>
</g>
</g>
<!-- Node7&#45;&gt;Node8 -->
<g id="edge8_Node000007_Node000008" class="edge">
<title>Node7&#45;&gt;Node8</title>
<g id="a_edge8_Node000007_Node000008"><a xlink:title=" ">
<path fill="none" stroke="#63b8ff" d="M102.19,-69.25C94.58,-61.1 85.17,-51.01 76.7,-41.93"/>
<polygon fill="#63b8ff" stroke="#63b8ff" points="79.36,-39.66 69.98,-34.74 74.25,-44.44 79.36,-39.66"/>
</a>
</g>
</g>
<!-- Node9&#45;&gt;Node5 -->
<g id="edge10_Node000009_Node000005" class="edge">
<title>Node9&#45;&gt;Node5</title>
<g id="a_edge10_Node000009_Node000005"><a xlink:title=" ">
<path fill="none" stroke="#63b8ff" d="M309.63,-71.04C312.5,-70.49 315.34,-69.98 318.12,-69.5 457.47,-45.74 494.99,-58.44 634.12,-33.5 639.47,-32.54 645.04,-31.4 650.56,-30.17"/>
<polygon fill="#63b8ff" stroke="#63b8ff" points="651.33,-33.58 660.27,-27.9 649.74,-26.76 651.33,-33.58"/>
</a>
</g>
</g>
<!-- Node10 -->
<g id="Node000010" class="node">
<title>Node10</title>
<g id="a_Node000010"><a xlink:href="Constrain_2IR_2Dialect_8h_8inc.html" target="_top" xlink:title=" ">
<polygon fill="white" stroke="#666666" points="246.25,-33.5 126,-33.5 126,0 246.25,0 246.25,-33.5"/>
<text text-anchor="start" x="134" y="-20" font-family="Helvetica,sans-Serif" font-size="10.00">llzk/Dialect/Constrain</text>
<text text-anchor="middle" x="186.12" y="-7.25" font-family="Helvetica,sans-Serif" font-size="10.00">/IR/Dialect.h.inc</text>
</a>
</g>
</g>
<!-- Node9&#45;&gt;Node10 -->
<g id="edge11_Node000009_Node000010" class="edge">
<title>Node9&#45;&gt;Node10</title>
<g id="a_edge11_Node000009_Node000010"><a xlink:title=" ">
<path fill="none" stroke="#63b8ff" d="M234.19,-69.25C226.58,-61.1 217.17,-51.01 208.7,-41.93"/>
<polygon fill="#63b8ff" stroke="#63b8ff" points="211.36,-39.66 201.98,-34.74 206.25,-44.44 211.36,-39.66"/>
</a>
</g>
</g>
<!-- Node11&#45;&gt;Node5 -->
<g id="edge13_Node000011_Node000005" class="edge">
<title>Node11&#45;&gt;Node5</title>
<g id="a_edge13_Node000011_Node000005"><a xlink:title=" ">
<path fill="none" stroke="#63b8ff" d="M431.84,-71.61C434.97,-70.88 438.09,-70.17 441.12,-69.5 526.34,-50.75 548.84,-51.93 634.12,-33.5 638.78,-32.49 643.61,-31.4 648.44,-30.27"/>
<polygon fill="#63b8ff" stroke="#63b8ff" points="649.24,-33.68 658.15,-27.95 647.61,-26.87 649.24,-33.68"/>
</a>
</g>
</g>
<!-- Node12 -->
<g id="Node000012" class="node">
<title>Node12</title>
<g id="a_Node000012"><a xlink:href="Felt_2IR_2Dialect_8h_8inc.html" target="_top" xlink:title=" ">
<polygon fill="white" stroke="#666666" points="368.38,-33.5 263.88,-33.5 263.88,0 368.38,0 368.38,-33.5"/>
<text text-anchor="start" x="271.88" y="-20" font-family="Helvetica,sans-Serif" font-size="10.00">llzk/Dialect/Felt/IR</text>
<text text-anchor="middle" x="316.12" y="-7.25" font-family="Helvetica,sans-Serif" font-size="10.00">/Dialect.h.inc</text>
</a>
</g>
</g>
<!-- Node11&#45;&gt;Node12 -->
<g id="edge14_Node000011_Node000012" class="edge">
<title>Node11&#45;&gt;Node12</title>
<g id="a_edge14_Node000011_Node000012"><a xlink:title=" ">
<path fill="none" stroke="#63b8ff" d="M364.19,-69.25C356.58,-61.1 347.17,-51.01 338.7,-41.93"/>
<polygon fill="#63b8ff" stroke="#63b8ff" points="341.36,-39.66 331.98,-34.74 336.25,-44.44 341.36,-39.66"/>
</a>
</g>
</g>
<!-- Node13&#45;&gt;Node5 -->
<g id="edge16_Node000013_Node000005" class="edge">
<title>Node13&#45;&gt;Node5</title>
<g id="a_edge16_Node000013_Node000005"><a xlink:title=" ">
<path fill="none" stroke="#63b8ff" d="M552.87,-69.08C585.41,-57.58 628.63,-42.31 659.45,-31.42"/>
<polygon fill="#63b8ff" stroke="#63b8ff" points="660.51,-34.76 668.77,-28.12 658.18,-28.16 660.51,-34.76"/>
</a>
</g>
</g>
<!-- Node14 -->
<g id="Node000014" class="node">
<title>Node14</title>
<g id="a_Node000014"><a xlink:href="Function_2IR_2Dialect_8h_8inc.html" target="_top" xlink:title=" ">
<polygon fill="white" stroke="#666666" points="501.62,-33.5 386.62,-33.5 386.62,0 501.62,0 501.62,-33.5"/>
<text text-anchor="start" x="394.62" y="-20" font-family="Helvetica,sans-Serif" font-size="10.00">llzk/Dialect/Function</text>
<text text-anchor="middle" x="444.12" y="-7.25" font-family="Helvetica,sans-Serif" font-size="10.00">/IR/Dialect.h.inc</text>
</a>
</g>
</g>
<!-- Node13&#45;&gt;Node14 -->
<g id="edge17_Node000013_Node000014" class="edge">
<title>Node13&#45;&gt;Node14</title>
<g id="a_edge17_Node000013_Node000014"><a xlink:title=" ">
<path fill="none" stroke="#63b8ff" d="M492.19,-69.25C484.58,-61.1 475.17,-51.01 466.7,-41.93"/>
<polygon fill="#63b8ff" stroke="#63b8ff" points="469.36,-39.66 459.98,-34.74 464.25,-44.44 469.36,-39.66"/>
</a>
</g>
</g>
<!-- Node15&#45;&gt;Node5 -->
<g id="edge19_Node000015_Node000005" class="edge">
<title>Node15&#45;&gt;Node5</title>
<g id="a_edge19_Node000015_Node000005"><a xlink:title=" ">
<path fill="none" stroke="#63b8ff" d="M650.06,-69.25C659.4,-59.24 671.46,-46.32 681.16,-35.92"/>
<polygon fill="#63b8ff" stroke="#63b8ff" points="683.66,-38.38 687.93,-28.68 678.54,-33.6 683.66,-38.38"/>
</a>
</g>
</g>
<!-- Node16 -->
<g id="Node000016" class="node">
<title>Node16</title>
<g id="a_Node000016"><a xlink:href="Global_2IR_2Dialect_8h_8inc.html" target="_top" xlink:title=" ">
<polygon fill="white" stroke="#666666" points="624.75,-33.5 519.5,-33.5 519.5,0 624.75,0 624.75,-33.5"/>
<text text-anchor="start" x="527.5" y="-20" font-family="Helvetica,sans-Serif" font-size="10.00">llzk/Dialect/Global</text>
<text text-anchor="middle" x="572.12" y="-7.25" font-family="Helvetica,sans-Serif" font-size="10.00">/IR/Dialect.h.inc</text>
</a>
</g>
</g>
<!-- Node15&#45;&gt;Node16 -->
<g id="edge20_Node000015_Node000016" class="edge">
<title>Node15&#45;&gt;Node16</title>
<g id="a_edge20_Node000015_Node000016"><a xlink:title=" ">
<path fill="none" stroke="#63b8ff" d="M620.19,-69.25C612.58,-61.1 603.17,-51.01 594.7,-41.93"/>
<polygon fill="#63b8ff" stroke="#63b8ff" points="597.36,-39.66 587.98,-34.74 592.25,-44.44 597.36,-39.66"/>
</a>
</g>
</g>
<!-- Node17&#45;&gt;Node5 -->
<g id="edge22_Node000017_Node000005" class="edge">
<title>Node17&#45;&gt;Node5</title>
<g id="a_edge22_Node000017_Node000005"><a xlink:title=" ">
<path fill="none" stroke="#63b8ff" d="M745.43,-69.25C736.24,-59.24 724.37,-46.32 714.82,-35.92"/>
<polygon fill="#63b8ff" stroke="#63b8ff" points="717.51,-33.68 708.17,-28.69 712.36,-38.42 717.51,-33.68"/>
</a>
</g>
</g>
<!-- Node18 -->
<g id="Node000018" class="node">
<title>Node18</title>
<g id="a_Node000018"><a xlink:href="Include_2IR_2Dialect_8h_8inc.html" target="_top" xlink:title=" ">
<polygon fill="white" stroke="#666666" points="880.62,-33.5 771.62,-33.5 771.62,0 880.62,0 880.62,-33.5"/>
<text text-anchor="start" x="779.62" y="-20" font-family="Helvetica,sans-Serif" font-size="10.00">llzk/Dialect/Include</text>
<text text-anchor="middle" x="826.12" y="-7.25" font-family="Helvetica,sans-Serif" font-size="10.00">/IR/Dialect.h.inc</text>
</a>
</g>
</g>
<!-- Node17&#45;&gt;Node18 -->
<g id="edge23_Node000017_Node000018" class="edge">
<title>Node17&#45;&gt;Node18</title>
<g id="a_edge23_Node000017_Node000018"><a xlink:title=" ">
<path fill="none" stroke="#63b8ff" d="M775.77,-69.25C783.82,-61.02 793.81,-50.8 802.75,-41.65"/>
<polygon fill="#63b8ff" stroke="#63b8ff" points="805.05,-44.31 809.54,-34.71 800.04,-39.42 805.05,-44.31"/>
</a>
</g>
</g>
<!-- Node19&#45;&gt;Node5 -->
<g id="edge25_Node000019_Node000005" class="edge">
<title>Node19&#45;&gt;Node5</title>
<g id="a_edge25_Node000019_Node000005"><a xlink:title=" ">
<path fill="none" stroke="#63b8ff" d="M842.62,-69.08C810.25,-57.58 767.25,-42.31 736.6,-31.42"/>
<polygon fill="#63b8ff" stroke="#63b8ff" points="737.93,-28.18 727.33,-28.13 735.58,-34.77 737.93,-28.18"/>
</a>
</g>
</g>
<!-- Node20 -->
<g id="Node000020" class="node">
<title>Node20</title>
<g id="a_Node000020"><a xlink:href="LLZK_2IR_2Dialect_8h_8inc.html" target="_top" xlink:title=" ">
<polygon fill="white" stroke="#666666" points="1009.38,-33.5 898.88,-33.5 898.88,0 1009.38,0 1009.38,-33.5"/>
<text text-anchor="start" x="906.88" y="-20" font-family="Helvetica,sans-Serif" font-size="10.00">llzk/Dialect/LLZK/IR</text>
<text text-anchor="middle" x="954.12" y="-7.25" font-family="Helvetica,sans-Serif" font-size="10.00">/Dialect.h.inc</text>
</a>
</g>
</g>
<!-- Node19&#45;&gt;Node20 -->
<g id="edge26_Node000019_Node000020" class="edge">
<title>Node19&#45;&gt;Node20</title>
<g id="a_edge26_Node000019_Node000020"><a xlink:title=" ">
<path fill="none" stroke="#63b8ff" d="M903.77,-69.25C911.82,-61.02 921.81,-50.8 930.75,-41.65"/>
<polygon fill="#63b8ff" stroke="#63b8ff" points="933.05,-44.31 937.54,-34.71 928.04,-39.42 933.05,-44.31"/>
</a>
</g>
</g>
<!-- Node21&#45;&gt;Node5 -->
<g id="edge28_Node000021_Node000005" class="edge">
<title>Node21&#45;&gt;Node5</title>
<g id="a_edge28_Node000021_Node000005"><a xlink:title=" ">
<path fill="none" stroke="#63b8ff" d="M961.53,-71.37C958.35,-70.73 955.2,-70.11 952.12,-69.5 868.24,-52.93 846.7,-51.57 763.12,-33.5 758.27,-32.45 753.22,-31.31 748.18,-30.14"/>
<polygon fill="#63b8ff" stroke="#63b8ff" points="749.25,-26.8 738.71,-27.91 747.64,-33.61 749.25,-26.8"/>
</a>
</g>
</g>
<!-- Node22 -->
<g id="Node000022" class="node">
<title>Node22</title>
<g id="a_Node000022"><a xlink:href="Polymorphic_2IR_2Dialect_8h_8inc.html" target="_top" xlink:title=" ">
<polygon fill="white" stroke="#666666" points="1162.38,-33.5 1027.88,-33.5 1027.88,0 1162.38,0 1162.38,-33.5"/>
<text text-anchor="start" x="1035.88" y="-20" font-family="Helvetica,sans-Serif" font-size="10.00">llzk/Dialect/Polymorphic</text>
<text text-anchor="middle" x="1095.12" y="-7.25" font-family="Helvetica,sans-Serif" font-size="10.00">/IR/Dialect.h.inc</text>
</a>
</g>
</g>
<!-- Node21&#45;&gt;Node22 -->
<g id="edge29_Node000021_Node000022" class="edge">
<title>Node21&#45;&gt;Node22</title>
<g id="a_edge29_Node000021_Node000022"><a xlink:title=" ">
<path fill="none" stroke="#63b8ff" d="M1044.77,-69.25C1052.82,-61.02 1062.81,-50.8 1071.75,-41.65"/>
<polygon fill="#63b8ff" stroke="#63b8ff" points="1074.05,-44.31 1078.54,-34.71 1069.04,-39.42 1074.05,-44.31"/>
</a>
</g>
</g>
<!-- Node23&#45;&gt;Node5 -->
<g id="edge31_Node000023_Node000005" class="edge">
<title>Node23&#45;&gt;Node5</title>
<g id="a_edge31_Node000023_Node000005"><a xlink:title=" ">
<path fill="none" stroke="#63b8ff" d="M1113.53,-71.17C1110.69,-70.57 1107.88,-70 1105.12,-69.5 954.78,-42.02 913.73,-59.55 763.12,-33.5 757.55,-32.54 751.74,-31.37 745.98,-30.11"/>
<polygon fill="#63b8ff" stroke="#63b8ff" points="747.08,-26.77 736.55,-27.94 745.51,-33.59 747.08,-26.77"/>
</a>
</g>
</g>
<!-- Node24 -->
<g id="Node000024" class="node">
<title>Node24</title>
<g id="a_Node000024"><a xlink:href="String_2IR_2Dialect_8h_8inc.html" target="_top" xlink:title=" ">
<polygon fill="white" stroke="#666666" points="1282.25,-33.5 1180,-33.5 1180,0 1282.25,0 1282.25,-33.5"/>
<text text-anchor="start" x="1188" y="-20" font-family="Helvetica,sans-Serif" font-size="10.00">llzk/Dialect/String</text>
<text text-anchor="middle" x="1231.12" y="-7.25" font-family="Helvetica,sans-Serif" font-size="10.00">/IR/Dialect.h.inc</text>
</a>
</g>
</g>
<!-- Node23&#45;&gt;Node24 -->
<g id="edge32_Node000023_Node000024" class="edge">
<title>Node23&#45;&gt;Node24</title>
<g id="a_edge32_Node000023_Node000024"><a xlink:title=" ">
<path fill="none" stroke="#63b8ff" d="M1180.77,-69.25C1188.82,-61.02 1198.81,-50.8 1207.75,-41.65"/>
<polygon fill="#63b8ff" stroke="#63b8ff" points="1210.05,-44.31 1214.54,-34.71 1205.04,-39.42 1210.05,-44.31"/>
</a>
</g>
</g>
<!-- Node25&#45;&gt;Node5 -->
<g id="edge34_Node000025_Node000005" class="edge">
<title>Node25&#45;&gt;Node5</title>
<g id="a_edge34_Node000025_Node000005"><a xlink:title=" ">
<path fill="none" stroke="#63b8ff" d="M1233.54,-71.08C1230.71,-70.5 1227.89,-69.97 1225.12,-69.5 1022.04,-35.22 966.52,-65.85 763.12,-33.5 757.4,-32.59 751.43,-31.43 745.53,-30.16"/>
<polygon fill="#63b8ff" stroke="#63b8ff" points="746.36,-26.76 735.83,-27.95 744.8,-33.59 746.36,-26.76"/>
</a>
</g>
</g>
<!-- Node26 -->
<g id="Node000026" class="node">
<title>Node26</title>
<g id="a_Node000026"><a xlink:href="Struct_2IR_2Dialect_8h_8inc.html" target="_top" xlink:title=" ">
<polygon fill="white" stroke="#666666" points="1402.25,-33.5 1300,-33.5 1300,0 1402.25,0 1402.25,-33.5"/>
<text text-anchor="start" x="1308" y="-20" font-family="Helvetica,sans-Serif" font-size="10.00">llzk/Dialect/Struct</text>
<text text-anchor="middle" x="1351.12" y="-7.25" font-family="Helvetica,sans-Serif" font-size="10.00">/IR/Dialect.h.inc</text>
</a>
</g>
</g>
<!-- Node25&#45;&gt;Node26 -->
<g id="edge35_Node000025_Node000026" class="edge">
<title>Node25&#45;&gt;Node26</title>
<g id="a_edge35_Node000025_Node000026"><a xlink:title=" ">
<path fill="none" stroke="#63b8ff" d="M1300.77,-69.25C1308.82,-61.02 1318.81,-50.8 1327.75,-41.65"/>
<polygon fill="#63b8ff" stroke="#63b8ff" points="1330.05,-44.31 1334.54,-34.71 1325.04,-39.42 1330.05,-44.31"/>
</a>
</g>
</g>
</g>
</svg>
