<?xml version="1.0" encoding="UTF-8" standalone="no"?>
<!DOCTYPE svg PUBLIC "-//W3C//DTD SVG 1.1//EN"
 "http://www.w3.org/Graphics/SVG/1.1/DTD/svg11.dtd">
<!-- Generated by graphviz version 12.2.1 (0)
 -->
<!-- Title: include/llzk/Dialect/LLZK/IR/Dialect.h Pages: 1 -->
<svg width="4837pt" height="276pt"
 viewBox="0.00 0.00 4836.88 275.50" xmlns="http://www.w3.org/2000/svg" xmlns:xlink="http://www.w3.org/1999/xlink">
<g id="graph0" class="graph" transform="scale(1 1) rotate(0) translate(4 271.5)">
<title>include/llzk/Dialect/LLZK/IR/Dialect.h</title>
<!-- Node1 -->
<g id="Node000001" class="node">
<title>Node1</title>
<g id="a_Node000001"><a xlink:title=" ">
<polygon fill="#999999" stroke="#666666" points="2720.88,-267.5 2611.88,-267.5 2611.88,-234 2720.88,-234 2720.88,-267.5"/>
<text text-anchor="start" x="2619.88" y="-254" font-family="Helvetica,sans-Serif" font-size="10.00">include/llzk/Dialect</text>
<text text-anchor="middle" x="2666.38" y="-241.25" font-family="Helvetica,sans-Serif" font-size="10.00">/LLZK/IR/Dialect.h</text>
</a>
</g>
</g>
<!-- Node2 -->
<g id="Node000002" class="node">
<title>Node2</title>
<g id="a_Node000002"><a xlink:href="PassBase_8h.html" target="_top" xlink:title=" ">
<polygon fill="white" stroke="#666666" points="2579.38,-191.62 2425.38,-191.62 2425.38,-170.88 2579.38,-170.88 2579.38,-191.62"/>
<text text-anchor="middle" x="2502.38" y="-178.12" font-family="Helvetica,sans-Serif" font-size="10.00">include/llzk/Pass/PassBase.h</text>
</a>
</g>
</g>
<!-- Node1&#45;&gt;Node2 -->
<g id="edge1_Node000001_Node000002" class="edge">
<title>Node1&#45;&gt;Node2</title>
<g id="a_edge1_Node000001_Node000002"><a xlink:title=" ">
<path fill="none" stroke="#63b8ff" d="M2616.78,-229.34C2586.73,-216.97 2549.75,-201.75 2526.12,-192.02"/>
<polygon fill="#63b8ff" stroke="#63b8ff" points="2615.11,-232.44 2625.69,-233.01 2617.78,-225.96 2615.11,-232.44"/>
</a>
</g>
</g>
<!-- Node23 -->
<g id="Node000023" class="node">
<title>Node23</title>
<g id="a_Node000023"><a xlink:href="Dialect_2InitDialects_8cpp.html" target="_top" xlink:title=" ">
<polygon fill="white" stroke="#666666" points="1948.5,-33.5 1804.25,-33.5 1804.25,-12.75 1948.5,-12.75 1948.5,-33.5"/>
<text text-anchor="middle" x="1876.38" y="-20" font-family="Helvetica,sans-Serif" font-size="10.00">lib/Dialect/InitDialects.cpp</text>
</a>
</g>
</g>
<!-- Node1&#45;&gt;Node23 -->
<g id="edge42_Node000001_Node000023" class="edge">
<title>Node1&#45;&gt;Node23</title>
<g id="a_edge42_Node000001_Node000023"><a xlink:title=" ">
<path fill="none" stroke="#63b8ff" d="M2600.62,-243.79C2532.08,-236.62 2421.96,-222.4 2329.38,-198 2245.25,-175.83 2227.62,-159.63 2146.38,-128.5 2056.27,-93.98 1949.45,-52.53 1901.67,-33.96"/>
<polygon fill="#63b8ff" stroke="#63b8ff" points="2599.86,-247.23 2610.16,-244.77 2600.57,-240.27 2599.86,-247.23"/>
</a>
</g>
</g>
<!-- Node28 -->
<g id="Node000028" class="node">
<title>Node28</title>
<g id="a_Node000028"><a xlink:href="LLZKInliningExtensions_8cpp.html" target="_top" xlink:title=" ">
<polygon fill="white" stroke="#666666" points="2114.38,-39.88 1966.38,-39.88 1966.38,-6.38 2114.38,-6.38 2114.38,-39.88"/>
<text text-anchor="start" x="1974.38" y="-26.38" font-family="Helvetica,sans-Serif" font-size="10.00">lib/Transforms/LLZKInlining</text>
<text text-anchor="middle" x="2040.38" y="-13.62" font-family="Helvetica,sans-Serif" font-size="10.00">Extensions.cpp</text>
</a>
</g>
</g>
<!-- Node1&#45;&gt;Node28 -->
<g id="edge46_Node000001_Node000028" class="edge">
<title>Node1&#45;&gt;Node28</title>
<g id="a_edge46_Node000001_Node000028"><a xlink:title=" ">
<path fill="none" stroke="#63b8ff" d="M2600.59,-240.36C2549.54,-232.07 2477.42,-218.14 2416.38,-198 2281.48,-153.5 2130.93,-74.18 2069.17,-40.24"/>
<polygon fill="#63b8ff" stroke="#63b8ff" points="2599.87,-243.79 2610.3,-241.91 2600.98,-236.88 2599.87,-243.79"/>
</a>
</g>
</g>
<!-- Node37 -->
<g id="Node000037" class="node">
<title>Node37</title>
<g id="a_Node000037"><a xlink:href="LLZK_8cpp.html" target="_top" xlink:title=" ">
<polygon fill="white" stroke="#666666" points="2735.5,-191.62 2597.25,-191.62 2597.25,-170.88 2735.5,-170.88 2735.5,-191.62"/>
<text text-anchor="middle" x="2666.38" y="-178.12" font-family="Helvetica,sans-Serif" font-size="10.00">lib/CAPI/Dialect/LLZK.cpp</text>
</a>
</g>
</g>
<!-- Node1&#45;&gt;Node37 -->
<g id="edge41_Node000001_Node000037" class="edge">
<title>Node1&#45;&gt;Node37</title>
<g id="a_edge41_Node000001_Node000037"><a xlink:title=" ">
<path fill="none" stroke="#63b8ff" d="M2666.38,-222.28C2666.38,-211.58 2666.38,-200.01 2666.38,-192.07"/>
<polygon fill="#63b8ff" stroke="#63b8ff" points="2662.88,-222.24 2666.38,-232.24 2669.88,-222.24 2662.88,-222.24"/>
</a>
</g>
</g>
<!-- Node38 -->
<g id="Node000038" class="node">
<title>Node38</title>
<g id="a_Node000038"><a xlink:href="LLZK_2IR_2Dialect_8cpp.html" target="_top" xlink:title=" ">
<polygon fill="white" stroke="#666666" points="2859,-198 2753.75,-198 2753.75,-164.5 2859,-164.5 2859,-198"/>
<text text-anchor="start" x="2761.75" y="-184.5" font-family="Helvetica,sans-Serif" font-size="10.00">lib/Dialect/LLZK/IR</text>
<text text-anchor="middle" x="2806.38" y="-171.75" font-family="Helvetica,sans-Serif" font-size="10.00">/Dialect.cpp</text>
</a>
</g>
</g>
<!-- Node1&#45;&gt;Node38 -->
<g id="edge43_Node000001_Node000038" class="edge">
<title>Node1&#45;&gt;Node38</title>
<g id="a_edge43_Node000001_Node000038"><a xlink:title=" ">
<path fill="none" stroke="#63b8ff" d="M2710.18,-228.63C2730.51,-218.83 2754.29,-207.36 2773.12,-198.29"/>
<polygon fill="#63b8ff" stroke="#63b8ff" points="2708.76,-225.43 2701.27,-232.92 2711.8,-231.73 2708.76,-225.43"/>
</a>
</g>
</g>
<!-- Node39 -->
<g id="Node000039" class="node">
<title>Node39</title>
<g id="a_Node000039"><a xlink:href="SharedImpl_8cpp.html" target="_top" xlink:title=" ">
<polygon fill="white" stroke="#666666" points="3029.25,-198 2877.5,-198 2877.5,-164.5 3029.25,-164.5 3029.25,-198"/>
<text text-anchor="start" x="2885.5" y="-184.5" font-family="Helvetica,sans-Serif" font-size="10.00">lib/Dialect/Polymorphic</text>
<text text-anchor="middle" x="2953.38" y="-171.75" font-family="Helvetica,sans-Serif" font-size="10.00">/Transforms/SharedImpl.cpp</text>
</a>
</g>
</g>
<!-- Node1&#45;&gt;Node39 -->
<g id="edge44_Node000001_Node000039" class="edge">
<title>Node1&#45;&gt;Node39</title>
<g id="a_edge44_Node000001_Node000039"><a xlink:title=" ">
<path fill="none" stroke="#63b8ff" d="M2732.31,-234.24C2777.81,-223.54 2838.2,-209.34 2884.36,-198.48"/>
<polygon fill="#63b8ff" stroke="#63b8ff" points="2731.78,-230.77 2722.85,-236.47 2733.38,-237.59 2731.78,-230.77"/>
</a>
</g>
</g>
<!-- Node40 -->
<g id="Node000040" class="node">
<title>Node40</title>
<g id="a_Node000040"><a xlink:href="Builders_8cpp.html" target="_top" xlink:title=" ">
<polygon fill="white" stroke="#666666" points="3149.5,-198 3047.25,-198 3047.25,-164.5 3149.5,-164.5 3149.5,-198"/>
<text text-anchor="start" x="3055.25" y="-184.5" font-family="Helvetica,sans-Serif" font-size="10.00">lib/Dialect/Shared</text>
<text text-anchor="middle" x="3098.38" y="-171.75" font-family="Helvetica,sans-Serif" font-size="10.00">/Builders.cpp</text>
</a>
</g>
</g>
<!-- Node1&#45;&gt;Node40 -->
<g id="edge45_Node000001_Node000040" class="edge">
<title>Node1&#45;&gt;Node40</title>
<g id="a_edge45_Node000001_Node000040"><a xlink:title=" ">
<path fill="none" stroke="#63b8ff" d="M2732.33,-242.97C2807,-234.73 2932.1,-219.26 3038.38,-198 3041.12,-197.45 3043.93,-196.85 3046.75,-196.22"/>
<polygon fill="#63b8ff" stroke="#63b8ff" points="2732.31,-239.45 2722.75,-244.01 2733.07,-246.41 2732.31,-239.45"/>
</a>
</g>
</g>
<!-- Node3 -->
<g id="Node000003" class="node">
<title>Node3</title>
<g id="a_Node000003"><a xlink:href="AnalysisPasses_8h.html" target="_top" xlink:title=" ">
<polygon fill="white" stroke="#666666" points="3297.25,-122.12 3181.5,-122.12 3181.5,-88.62 3297.25,-88.62 3297.25,-122.12"/>
<text text-anchor="start" x="3189.5" y="-108.62" font-family="Helvetica,sans-Serif" font-size="10.00">include/llzk/Analysis</text>
<text text-anchor="middle" x="3239.38" y="-95.88" font-family="Helvetica,sans-Serif" font-size="10.00">/AnalysisPasses.h</text>
</a>
</g>
</g>
<!-- Node2&#45;&gt;Node3 -->
<g id="edge2_Node000002_Node000003" class="edge">
<title>Node2&#45;&gt;Node3</title>
<g id="a_edge2_Node000002_Node000003"><a xlink:title=" ">
<path fill="none" stroke="#63b8ff" d="M2562.91,-168.44C2571.44,-166.99 2580.11,-165.62 2588.38,-164.5 2806.22,-134.89 3067.21,-116.81 3181.26,-109.76"/>
<polygon fill="#63b8ff" stroke="#63b8ff" points="2562.55,-164.95 2553.31,-170.13 2563.77,-171.84 2562.55,-164.95"/>
</a>
</g>
</g>
<!-- Node11 -->
<g id="Node000011" class="node">
<title>Node11</title>
<g id="a_Node000011"><a xlink:href="Array_2Transforms_2TransformationPasses_8h.html" target="_top" xlink:title=" ">
<polygon fill="white" stroke="#666666" points="3766.75,-128.5 3588,-128.5 3588,-82.25 3766.75,-82.25 3766.75,-128.5"/>
<text text-anchor="start" x="3596" y="-115" font-family="Helvetica,sans-Serif" font-size="10.00">include/llzk/Dialect</text>
<text text-anchor="start" x="3596" y="-102.25" font-family="Helvetica,sans-Serif" font-size="10.00">/Array/Transforms/Transformation</text>
<text text-anchor="middle" x="3677.38" y="-89.5" font-family="Helvetica,sans-Serif" font-size="10.00">Passes.h</text>
</a>
</g>
</g>
<!-- Node2&#45;&gt;Node11 -->
<g id="edge10_Node000002_Node000011" class="edge">
<title>Node2&#45;&gt;Node11</title>
<g id="a_edge10_Node000002_Node000011"><a xlink:title=" ">
<path fill="none" stroke="#63b8ff" d="M2561.27,-168.41C2570.32,-166.9 2579.58,-165.52 2588.38,-164.5 2905.75,-127.64 2987.34,-146.01 3306.38,-128.5 3402.53,-123.22 3512.67,-116.58 3587.8,-111.95"/>
<polygon fill="#63b8ff" stroke="#63b8ff" points="2560.71,-164.95 2551.46,-170.12 2561.92,-171.85 2560.71,-164.95"/>
</a>
</g>
</g>
<!-- Node14 -->
<g id="Node000014" class="node">
<title>Node14</title>
<g id="a_Node000014"><a xlink:href="InlineIncludesPass_8h.html" target="_top" xlink:title=" ">
<polygon fill="white" stroke="#666666" points="2745.25,-128.5 2563.5,-128.5 2563.5,-82.25 2745.25,-82.25 2745.25,-128.5"/>
<text text-anchor="start" x="2571.5" y="-115" font-family="Helvetica,sans-Serif" font-size="10.00">include/llzk/Dialect</text>
<text text-anchor="start" x="2571.5" y="-102.25" font-family="Helvetica,sans-Serif" font-size="10.00">/Include/Transforms/InlineIncludes</text>
<text text-anchor="middle" x="2654.38" y="-89.5" font-family="Helvetica,sans-Serif" font-size="10.00">Pass.h</text>
</a>
</g>
</g>
<!-- Node2&#45;&gt;Node14 -->
<g id="edge14_Node000002_Node000014" class="edge">
<title>Node2&#45;&gt;Node14</title>
<g id="a_edge14_Node000002_Node000014"><a xlink:title=" ">
<path fill="none" stroke="#63b8ff" d="M2532.73,-165.5C2554.21,-155.06 2583.43,-140.86 2607.84,-128.99"/>
<polygon fill="#63b8ff" stroke="#63b8ff" points="2531.38,-162.26 2523.92,-169.78 2534.44,-168.55 2531.38,-162.26"/>
</a>
</g>
</g>
<!-- Node17 -->
<g id="Node000017" class="node">
<title>Node17</title>
<g id="a_Node000017"><a xlink:href="Polymorphic_2Transforms_2TransformationPasses_8h.html" target="_top" xlink:title=" ">
<polygon fill="white" stroke="#666666" points="4444.75,-128.5 4308,-128.5 4308,-82.25 4444.75,-82.25 4444.75,-128.5"/>
<text text-anchor="start" x="4316" y="-115" font-family="Helvetica,sans-Serif" font-size="10.00">include/llzk/Dialect</text>
<text text-anchor="start" x="4316" y="-102.25" font-family="Helvetica,sans-Serif" font-size="10.00">/Polymorphic/Transforms</text>
<text text-anchor="middle" x="4376.38" y="-89.5" font-family="Helvetica,sans-Serif" font-size="10.00">/TransformationPasses.h</text>
</a>
</g>
</g>
<!-- Node2&#45;&gt;Node17 -->
<g id="edge18_Node000002_Node000017" class="edge">
<title>Node2&#45;&gt;Node17</title>
<g id="a_edge18_Node000002_Node000017"><a xlink:title=" ">
<path fill="none" stroke="#63b8ff" d="M2560.29,-168.41C2569.65,-166.86 2579.25,-165.47 2588.38,-164.5 3113.23,-108.8 3247.87,-146.21 3775.38,-128.5 3968.43,-122.02 4196.32,-113.35 4307.88,-109.04"/>
<polygon fill="#63b8ff" stroke="#63b8ff" points="2559.79,-164.95 2550.55,-170.12 2561,-171.84 2559.79,-164.95"/>
</a>
</g>
</g>
<!-- Node21 -->
<g id="Node000021" class="node">
<title>Node21</title>
<g id="a_Node000021"><a xlink:href="LLZKTransformationPasses_8h.html" target="_top" xlink:title=" ">
<polygon fill="white" stroke="#666666" points="1361.25,-122.12 1203.5,-122.12 1203.5,-88.62 1361.25,-88.62 1361.25,-122.12"/>
<text text-anchor="start" x="1211.5" y="-108.62" font-family="Helvetica,sans-Serif" font-size="10.00">include/llzk/Transforms</text>
<text text-anchor="middle" x="1282.38" y="-95.88" font-family="Helvetica,sans-Serif" font-size="10.00">/LLZKTransformationPasses.h</text>
</a>
</g>
</g>
<!-- Node2&#45;&gt;Node21 -->
<g id="edge23_Node000002_Node000021" class="edge">
<title>Node2&#45;&gt;Node21</title>
<g id="a_edge23_Node000002_Node000021"><a xlink:title=" ">
<path fill="none" stroke="#63b8ff" d="M2413.9,-174.89C2185.61,-161.07 1579.39,-124.36 1361.65,-111.18"/>
<polygon fill="#63b8ff" stroke="#63b8ff" points="2413.43,-178.37 2423.62,-175.48 2413.85,-171.38 2413.43,-178.37"/>
</a>
</g>
</g>
<!-- Node34 -->
<g id="Node000034" class="node">
<title>Node34</title>
<g id="a_Node000034"><a xlink:href="LLZKValidationPasses_8h.html" target="_top" xlink:title=" ">
<polygon fill="white" stroke="#666666" points="2508.25,-122.12 2374.5,-122.12 2374.5,-88.62 2508.25,-88.62 2508.25,-122.12"/>
<text text-anchor="start" x="2382.5" y="-108.62" font-family="Helvetica,sans-Serif" font-size="10.00">include/llzk/Validators</text>
<text text-anchor="middle" x="2441.38" y="-95.88" font-family="Helvetica,sans-Serif" font-size="10.00">/LLZKValidationPasses.h</text>
</a>
</g>
</g>
<!-- Node2&#45;&gt;Node34 -->
<g id="edge37_Node000002_Node000034" class="edge">
<title>Node2&#45;&gt;Node34</title>
<g id="a_edge37_Node000002_Node000034"><a xlink:title=" ">
<path fill="none" stroke="#63b8ff" d="M2487.15,-161.82C2477.19,-149.74 2464.28,-134.12 2454.71,-122.53"/>
<polygon fill="#63b8ff" stroke="#63b8ff" points="2484.37,-163.94 2493.44,-169.43 2489.77,-159.49 2484.37,-163.94"/>
</a>
</g>
</g>
<!-- Node4 -->
<g id="Node000004" class="node">
<title>Node4</title>
<g id="a_Node000004"><a xlink:href="CallGraphPasses_8cpp.html" target="_top" xlink:title="This file implements the &#45;llzk&#45;print&#45;call&#45;graph and &#45;llzk&#45;print&#45;call&#45;graph&#45;sccs passes.">
<polygon fill="white" stroke="#666666" points="3420.62,-33.5 3244.12,-33.5 3244.12,-12.75 3420.62,-12.75 3420.62,-33.5"/>
<text text-anchor="middle" x="3332.38" y="-20" font-family="Helvetica,sans-Serif" font-size="10.00">lib/Analysis/CallGraphPasses.cpp</text>
</a>
</g>
</g>
<!-- Node3&#45;&gt;Node4 -->
<g id="edge3_Node000003_Node000004" class="edge">
<title>Node3&#45;&gt;Node4</title>
<g id="a_edge3_Node000003_Node000004"><a xlink:title=" ">
<path fill="none" stroke="#63b8ff" d="M3266.67,-80.82C3284.85,-65.14 3307.77,-45.36 3321.17,-33.79"/>
<polygon fill="#63b8ff" stroke="#63b8ff" points="3264.63,-77.96 3259.34,-87.15 3269.2,-83.26 3264.63,-77.96"/>
</a>
</g>
</g>
<!-- Node5 -->
<g id="Node000005" class="node">
<title>Node5</title>
<g id="a_Node000005"><a xlink:href="ConstraintDependencyGraphPass_8cpp.html" target="_top" xlink:title="This file implements the &#45;llzk&#45;print&#45;constraint&#45;dependency&#45;graphs pass.">
<polygon fill="white" stroke="#666666" points="3624.5,-39.88 3438.25,-39.88 3438.25,-6.38 3624.5,-6.38 3624.5,-39.88"/>
<text text-anchor="start" x="3446.25" y="-26.38" font-family="Helvetica,sans-Serif" font-size="10.00">lib/Analysis/ConstraintDependency</text>
<text text-anchor="middle" x="3531.38" y="-13.62" font-family="Helvetica,sans-Serif" font-size="10.00">GraphPass.cpp</text>
</a>
</g>
</g>
<!-- Node3&#45;&gt;Node5 -->
<g id="edge4_Node000003_Node000005" class="edge">
<title>Node3&#45;&gt;Node5</title>
<g id="a_edge4_Node000003_Node000005"><a xlink:title=" ">
<path fill="none" stroke="#63b8ff" d="M3308.43,-85.4C3358.34,-71.68 3425.04,-53.35 3472.45,-40.32"/>
<polygon fill="#63b8ff" stroke="#63b8ff" points="3307.59,-82 3298.87,-88.02 3309.44,-88.75 3307.59,-82"/>
</a>
</g>
</g>
<!-- Node6 -->
<g id="Node000006" class="node">
<title>Node6</title>
<g id="a_Node000006"><a xlink:href="IntervalAnalysisPass_8cpp.html" target="_top" xlink:title="This file implements the &#45;llzk&#45;print&#45;interval&#45;analysis pass.">
<polygon fill="white" stroke="#666666" points="3796.38,-39.88 3642.38,-39.88 3642.38,-6.38 3796.38,-6.38 3796.38,-39.88"/>
<text text-anchor="start" x="3650.38" y="-26.38" font-family="Helvetica,sans-Serif" font-size="10.00">lib/Analysis/IntervalAnalysis</text>
<text text-anchor="middle" x="3719.38" y="-13.62" font-family="Helvetica,sans-Serif" font-size="10.00">Pass.cpp</text>
</a>
</g>
</g>
<!-- Node3&#45;&gt;Node6 -->
<g id="edge5_Node000003_Node000006" class="edge">
<title>Node3&#45;&gt;Node6</title>
<g id="a_edge5_Node000003_Node000006"><a xlink:title=" ">
<path fill="none" stroke="#63b8ff" d="M3308.71,-96.39C3387.71,-86.77 3520.49,-69.03 3633.38,-46.25 3641.99,-44.51 3651.03,-42.45 3659.88,-40.3"/>
<polygon fill="#63b8ff" stroke="#63b8ff" points="3308.47,-92.89 3298.96,-97.57 3309.31,-99.84 3308.47,-92.89"/>
</a>
</g>
</g>
<!-- Node7 -->
<g id="Node000007" class="node">
<title>Node7</title>
<g id="a_Node000007"><a xlink:href="PredecessorAnalysisPass_8cpp.html" target="_top" xlink:title="This file implements the &#45;llzk&#45;print&#45;predecessors pass.">
<polygon fill="white" stroke="#666666" points="3948.62,-39.88 3814.12,-39.88 3814.12,-6.38 3948.62,-6.38 3948.62,-39.88"/>
<text text-anchor="start" x="3822.12" y="-26.38" font-family="Helvetica,sans-Serif" font-size="10.00">lib/Analysis/Predecessor</text>
<text text-anchor="middle" x="3881.38" y="-13.62" font-family="Helvetica,sans-Serif" font-size="10.00">AnalysisPass.cpp</text>
</a>
</g>
</g>
<!-- Node3&#45;&gt;Node7 -->
<g id="edge6_Node000003_Node000007" class="edge">
<title>Node3&#45;&gt;Node7</title>
<g id="a_edge6_Node000003_Node000007"><a xlink:title=" ">
<path fill="none" stroke="#63b8ff" d="M3309.05,-101.28C3416.46,-95.6 3628.58,-80.77 3805.38,-46.25 3813.6,-44.64 3822.22,-42.55 3830.58,-40.28"/>
<polygon fill="#63b8ff" stroke="#63b8ff" points="3309.05,-97.78 3299.25,-101.79 3309.41,-104.77 3309.05,-97.78"/>
</a>
</g>
</g>
<!-- Node8 -->
<g id="Node000008" class="node">
<title>Node8</title>
<g id="a_Node000008"><a xlink:href="SymbolDefTreePass_8cpp.html" target="_top" xlink:title="This file implements the &#45;llzk&#45;print&#45;symbol&#45;def&#45;tree pass.">
<polygon fill="white" stroke="#666666" points="3048.12,-39.88 2898.62,-39.88 2898.62,-6.38 3048.12,-6.38 3048.12,-39.88"/>
<text text-anchor="start" x="2906.62" y="-26.38" font-family="Helvetica,sans-Serif" font-size="10.00">lib/Analysis/SymbolDefTree</text>
<text text-anchor="middle" x="2973.38" y="-13.62" font-family="Helvetica,sans-Serif" font-size="10.00">Pass.cpp</text>
</a>
</g>
</g>
<!-- Node3&#45;&gt;Node8 -->
<g id="edge7_Node000003_Node000008" class="edge">
<title>Node3&#45;&gt;Node8</title>
<g id="a_edge7_Node000003_Node000008"><a xlink:title=" ">
<path fill="none" stroke="#63b8ff" d="M3174.67,-84.85C3129.44,-71.21 3069.74,-53.2 3027.12,-40.34"/>
<polygon fill="#63b8ff" stroke="#63b8ff" points="3173.51,-88.16 3184.1,-87.7 3175.53,-81.46 3173.51,-88.16"/>
</a>
</g>
</g>
<!-- Node9 -->
<g id="Node000009" class="node">
<title>Node9</title>
<g id="a_Node000009"><a xlink:href="SymbolUseGraphPass_8cpp.html" target="_top" xlink:title="This file implements the &#45;llzk&#45;print&#45;symbol&#45;use&#45;graph pass.">
<polygon fill="white" stroke="#666666" points="3226.38,-39.88 3066.38,-39.88 3066.38,-6.38 3226.38,-6.38 3226.38,-39.88"/>
<text text-anchor="start" x="3074.38" y="-26.38" font-family="Helvetica,sans-Serif" font-size="10.00">lib/Analysis/SymbolUseGraph</text>
<text text-anchor="middle" x="3146.38" y="-13.62" font-family="Helvetica,sans-Serif" font-size="10.00">Pass.cpp</text>
</a>
</g>
</g>
<!-- Node3&#45;&gt;Node9 -->
<g id="edge8_Node000003_Node000009" class="edge">
<title>Node3&#45;&gt;Node9</title>
<g id="a_edge8_Node000003_Node000009"><a xlink:title=" ">
<path fill="none" stroke="#63b8ff" d="M3212.11,-80.85C3197.02,-67.83 3178.65,-51.97 3165.17,-40.34"/>
<polygon fill="#63b8ff" stroke="#63b8ff" points="3209.55,-83.26 3219.41,-87.15 3214.12,-77.96 3209.55,-83.26"/>
</a>
</g>
</g>
<!-- Node10 -->
<g id="Node000010" class="node">
<title>Node10</title>
<g id="a_Node000010"><a xlink:href="llzk-opt_8cpp.html" target="_top" xlink:title="This file implements a version of the mlir&#45;opt tool configured for use on LLZK files.">
<polygon fill="white" stroke="#666666" points="2880.38,-39.88 2780.38,-39.88 2780.38,-6.38 2880.38,-6.38 2880.38,-39.88"/>
<text text-anchor="start" x="2788.38" y="-26.38" font-family="Helvetica,sans-Serif" font-size="10.00">tools/llzk&#45;opt/llzk</text>
<text text-anchor="middle" x="2830.38" y="-13.62" font-family="Helvetica,sans-Serif" font-size="10.00">&#45;opt.cpp</text>
</a>
</g>
</g>
<!-- Node3&#45;&gt;Node10 -->
<g id="edge9_Node000003_Node000010" class="edge">
<title>Node3&#45;&gt;Node10</title>
<g id="a_edge9_Node000003_Node000010"><a xlink:title=" ">
<path fill="none" stroke="#63b8ff" d="M3169.98,-96.88C3098.75,-88.26 2985.11,-71.89 2889.38,-46.25 2883.14,-44.58 2876.65,-42.51 2870.34,-40.3"/>
<polygon fill="#63b8ff" stroke="#63b8ff" points="3169.2,-100.31 3179.54,-98.02 3170.02,-93.36 3169.2,-100.31"/>
</a>
</g>
</g>
<!-- Node11&#45;&gt;Node10 -->
<g id="edge13_Node000011_Node000010" class="edge">
<title>Node11&#45;&gt;Node10</title>
<g id="a_edge13_Node000011_Node000010"><a xlink:title=" ">
<path fill="none" stroke="#63b8ff" d="M3576.61,-98.55C3379.16,-86.9 2954.8,-60.62 2889.38,-46.25 2882.64,-44.77 2875.65,-42.68 2868.94,-40.37"/>
<polygon fill="#63b8ff" stroke="#63b8ff" points="3576.15,-102.03 3586.34,-99.12 3576.56,-95.04 3576.15,-102.03"/>
</a>
</g>
</g>
<!-- Node12 -->
<g id="Node000012" class="node">
<title>Node12</title>
<g id="a_Node000012"><a xlink:href="Array_8cpp.html" target="_top" xlink:title=" ">
<polygon fill="white" stroke="#666666" points="4274.88,-33.5 4135.88,-33.5 4135.88,-12.75 4274.88,-12.75 4274.88,-33.5"/>
<text text-anchor="middle" x="4205.38" y="-20" font-family="Helvetica,sans-Serif" font-size="10.00">lib/CAPI/Dialect/Array.cpp</text>
</a>
</g>
</g>
<!-- Node11&#45;&gt;Node12 -->
<g id="edge11_Node000011_Node000012" class="edge">
<title>Node11&#45;&gt;Node12</title>
<g id="a_edge11_Node000011_Node000012"><a xlink:title=" ">
<path fill="none" stroke="#63b8ff" d="M3778.46,-95.63C3870.13,-86.68 4008.67,-70.61 4127.38,-46.25 4143.23,-43 4160.58,-38.2 4174.88,-33.91"/>
<polygon fill="#63b8ff" stroke="#63b8ff" points="3778.37,-92.13 3768.75,-96.57 3779.04,-99.09 3778.37,-92.13"/>
</a>
</g>
</g>
<!-- Node13 -->
<g id="Node000013" class="node">
<title>Node13</title>
<g id="a_Node000013"><a xlink:href="ArrayToScalarPass_8cpp.html" target="_top" xlink:title="This file implements the &#45;llzk&#45;array&#45;to&#45;scalar pass.">
<polygon fill="white" stroke="#666666" points="4118.25,-39.88 3966.5,-39.88 3966.5,-6.38 4118.25,-6.38 4118.25,-39.88"/>
<text text-anchor="start" x="3974.5" y="-26.38" font-family="Helvetica,sans-Serif" font-size="10.00">lib/Dialect/Array/Transforms</text>
<text text-anchor="middle" x="4042.38" y="-13.62" font-family="Helvetica,sans-Serif" font-size="10.00">/ArrayToScalarPass.cpp</text>
</a>
</g>
</g>
<!-- Node11&#45;&gt;Node13 -->
<g id="edge12_Node000011_Node000013" class="edge">
<title>Node11&#45;&gt;Node13</title>
<g id="a_edge12_Node000011_Node000013"><a xlink:title=" ">
<path fill="none" stroke="#63b8ff" d="M3778.34,-84.68C3831.71,-73.95 3898.25,-60.07 3957.38,-46.25 3965.24,-44.41 3973.5,-42.38 3981.64,-40.33"/>
<polygon fill="#63b8ff" stroke="#63b8ff" points="3777.76,-81.23 3768.64,-86.63 3779.13,-88.09 3777.76,-81.23"/>
</a>
</g>
</g>
<!-- Node14&#45;&gt;Node10 -->
<g id="edge17_Node000014_Node000010" class="edge">
<title>Node14&#45;&gt;Node10</title>
<g id="a_edge17_Node000014_Node000010"><a xlink:title=" ">
<path fill="none" stroke="#63b8ff" d="M2714.32,-77.04C2741.13,-64.82 2771.83,-50.82 2794.91,-40.3"/>
<polygon fill="#63b8ff" stroke="#63b8ff" points="2712.89,-73.85 2705.25,-81.18 2715.8,-80.22 2712.89,-73.85"/>
</a>
</g>
</g>
<!-- Node15 -->
<g id="Node000015" class="node">
<title>Node15</title>
<g id="a_Node000015"><a xlink:href="Include_8cpp.html" target="_top" xlink:title=" ">
<polygon fill="white" stroke="#666666" points="2600.12,-33.5 2450.62,-33.5 2450.62,-12.75 2600.12,-12.75 2600.12,-33.5"/>
<text text-anchor="middle" x="2525.38" y="-20" font-family="Helvetica,sans-Serif" font-size="10.00">lib/CAPI/Dialect/Include.cpp</text>
</a>
</g>
</g>
<!-- Node14&#45;&gt;Node15 -->
<g id="edge15_Node000014_Node000015" class="edge">
<title>Node14&#45;&gt;Node15</title>
<g id="a_edge15_Node000014_Node000015"><a xlink:title=" ">
<path fill="none" stroke="#63b8ff" d="M2608.61,-75.91C2585.07,-61.26 2557.88,-44.35 2541.16,-33.94"/>
<polygon fill="#63b8ff" stroke="#63b8ff" points="2606.47,-78.7 2616.81,-81.01 2610.17,-72.75 2606.47,-78.7"/>
</a>
</g>
</g>
<!-- Node16 -->
<g id="Node000016" class="node">
<title>Node16</title>
<g id="a_Node000016"><a xlink:href="InlineIncludesPass_8cpp.html" target="_top" xlink:title="This file implements the &#45;llzk&#45;inline&#45;includes pass.">
<polygon fill="white" stroke="#666666" points="2762.12,-46.25 2618.62,-46.25 2618.62,0 2762.12,0 2762.12,-46.25"/>
<text text-anchor="start" x="2626.62" y="-32.75" font-family="Helvetica,sans-Serif" font-size="10.00">lib/Dialect/Include</text>
<text text-anchor="start" x="2626.62" y="-20" font-family="Helvetica,sans-Serif" font-size="10.00">/Transforms/InlineIncludes</text>
<text text-anchor="middle" x="2690.38" y="-7.25" font-family="Helvetica,sans-Serif" font-size="10.00">Pass.cpp</text>
</a>
</g>
</g>
<!-- Node14&#45;&gt;Node16 -->
<g id="edge16_Node000014_Node000016" class="edge">
<title>Node14&#45;&gt;Node16</title>
<g id="a_edge16_Node000014_Node000016"><a xlink:title=" ">
<path fill="none" stroke="#63b8ff" d="M2669.03,-71.71C2672.81,-63.29 2676.79,-54.41 2680.28,-46.64"/>
<polygon fill="#63b8ff" stroke="#63b8ff" points="2665.92,-70.08 2665.02,-80.64 2672.31,-72.95 2665.92,-70.08"/>
</a>
</g>
</g>
<!-- Node17&#45;&gt;Node10 -->
<g id="edge22_Node000017_Node000010" class="edge">
<title>Node17&#45;&gt;Node10</title>
<g id="a_edge22_Node000017_Node000010"><a xlink:title=" ">
<path fill="none" stroke="#63b8ff" d="M4296.1,-101.41C3989.26,-90.04 2906.76,-49.75 2889.38,-46.25 2882.4,-44.84 2875.17,-42.73 2868.26,-40.35"/>
<polygon fill="#63b8ff" stroke="#63b8ff" points="4295.92,-104.9 4306.04,-101.78 4296.18,-97.91 4295.92,-104.9"/>
</a>
</g>
</g>
<!-- Node18 -->
<g id="Node000018" class="node">
<title>Node18</title>
<g id="a_Node000018"><a xlink:href="Poly_8cpp.html" target="_top" xlink:title=" ">
<polygon fill="white" stroke="#666666" points="4612.25,-33.5 4478.5,-33.5 4478.5,-12.75 4612.25,-12.75 4612.25,-33.5"/>
<text text-anchor="middle" x="4545.38" y="-20" font-family="Helvetica,sans-Serif" font-size="10.00">lib/CAPI/Dialect/Poly.cpp</text>
</a>
</g>
</g>
<!-- Node17&#45;&gt;Node18 -->
<g id="edge19_Node000017_Node000018" class="edge">
<title>Node17&#45;&gt;Node18</title>
<g id="a_edge19_Node000017_Node000018"><a xlink:title=" ">
<path fill="none" stroke="#63b8ff" d="M4434.28,-76.88C4465.58,-62.02 4502.3,-44.58 4524.7,-33.94"/>
<polygon fill="#63b8ff" stroke="#63b8ff" points="4432.8,-73.71 4425.27,-81.16 4435.8,-80.03 4432.8,-73.71"/>
</a>
</g>
</g>
<!-- Node19 -->
<g id="Node000019" class="node">
<title>Node19</title>
<g id="a_Node000019"><a xlink:href="EmptyParamListRemovalPass_8cpp.html" target="_top" xlink:title="This file implements the &#45;llzk&#45;drop&#45;empty&#45;params pass.">
<polygon fill="white" stroke="#666666" points="4828.88,-46.25 4629.88,-46.25 4629.88,0 4828.88,0 4828.88,-46.25"/>
<text text-anchor="start" x="4637.88" y="-32.75" font-family="Helvetica,sans-Serif" font-size="10.00">lib/Dialect/Polymorphic</text>
<text text-anchor="start" x="4637.88" y="-20" font-family="Helvetica,sans-Serif" font-size="10.00">/Transforms/EmptyParamListRemoval</text>
<text text-anchor="middle" x="4729.38" y="-7.25" font-family="Helvetica,sans-Serif" font-size="10.00">Pass.cpp</text>
</a>
</g>
</g>
<!-- Node17&#45;&gt;Node19 -->
<g id="edge20_Node000017_Node000019" class="edge">
<title>Node17&#45;&gt;Node19</title>
<g id="a_edge20_Node000017_Node000019"><a xlink:title=" ">
<path fill="none" stroke="#63b8ff" d="M4455.93,-86.29C4507.46,-74.57 4574.98,-59.23 4630.03,-46.71"/>
<polygon fill="#63b8ff" stroke="#63b8ff" points="4455.31,-82.84 4446.33,-88.47 4456.86,-89.67 4455.31,-82.84"/>
</a>
</g>
</g>
<!-- Node20 -->
<g id="Node000020" class="node">
<title>Node20</title>
<g id="a_Node000020"><a xlink:href="FlatteningPass_8cpp.html" target="_top" xlink:title="This file implements the &#45;llzk&#45;flatten pass.">
<polygon fill="white" stroke="#666666" points="4460.12,-39.88 4292.62,-39.88 4292.62,-6.38 4460.12,-6.38 4460.12,-39.88"/>
<text text-anchor="start" x="4300.62" y="-26.38" font-family="Helvetica,sans-Serif" font-size="10.00">lib/Dialect/Polymorphic</text>
<text text-anchor="middle" x="4376.38" y="-13.62" font-family="Helvetica,sans-Serif" font-size="10.00">/Transforms/FlatteningPass.cpp</text>
</a>
</g>
</g>
<!-- Node17&#45;&gt;Node20 -->
<g id="edge21_Node000017_Node000020" class="edge">
<title>Node17&#45;&gt;Node20</title>
<g id="a_edge21_Node000017_Node000020"><a xlink:title=" ">
<path fill="none" stroke="#63b8ff" d="M4376.38,-70.57C4376.38,-60.07 4376.38,-48.97 4376.38,-40.25"/>
<polygon fill="#63b8ff" stroke="#63b8ff" points="4372.88,-70.51 4376.38,-80.51 4379.88,-70.51 4372.88,-70.51"/>
</a>
</g>
</g>
<!-- Node21&#45;&gt;Node10 -->
<g id="edge36_Node000021_Node000010" class="edge">
<title>Node21&#45;&gt;Node10</title>
<g id="a_edge36_Node000021_Node000010"><a xlink:title=" ">
<path fill="none" stroke="#63b8ff" d="M1372.73,-102.53C1674.29,-96.12 2634.84,-73.77 2771.38,-46.25 2778.35,-44.85 2785.58,-42.73 2792.49,-40.35"/>
<polygon fill="#63b8ff" stroke="#63b8ff" points="1372.86,-99.02 1362.94,-102.73 1373.01,-106.02 1372.86,-99.02"/>
</a>
</g>
</g>
<!-- Node22 -->
<g id="Node000022" class="node">
<title>Node22</title>
<g id="a_Node000022"><a xlink:href="Transforms_8cpp.html" target="_top" xlink:title=" ">
<polygon fill="white" stroke="#666666" points="1612.75,-33.5 1482,-33.5 1482,-12.75 1612.75,-12.75 1612.75,-33.5"/>
<text text-anchor="middle" x="1547.38" y="-20" font-family="Helvetica,sans-Serif" font-size="10.00">lib/CAPI/Transforms.cpp</text>
</a>
</g>
</g>
<!-- Node21&#45;&gt;Node22 -->
<g id="edge24_Node000021_Node000022" class="edge">
<title>Node21&#45;&gt;Node22</title>
<g id="a_edge24_Node000021_Node000022"><a xlink:title=" ">
<path fill="none" stroke="#63b8ff" d="M1346.7,-84.89C1399.96,-68.77 1473.42,-46.52 1515.08,-33.9"/>
<polygon fill="#63b8ff" stroke="#63b8ff" points="1346.01,-81.45 1337.45,-87.7 1348.04,-88.15 1346.01,-81.45"/>
</a>
</g>
</g>
<!-- Node21&#45;&gt;Node23 -->
<g id="edge25_Node000021_Node000023" class="edge">
<title>Node21&#45;&gt;Node23</title>
<g id="a_edge25_Node000021_Node000023"><a xlink:title=" ">
<path fill="none" stroke="#63b8ff" d="M1372.88,-98.35C1475.88,-90.52 1648.81,-74.4 1795.38,-46.25 1811.84,-43.09 1829.86,-38.3 1844.71,-33.99"/>
<polygon fill="#63b8ff" stroke="#63b8ff" points="1372.82,-94.85 1363.11,-99.08 1373.34,-101.83 1372.82,-94.85"/>
</a>
</g>
</g>
<!-- Node24 -->
<g id="Node000024" class="node">
<title>Node24</title>
<g id="a_Node000024"><a xlink:href="LLZKComputeConstrainToProductPass_8cpp.html" target="_top" xlink:title="This file implements the &#45;llzk&#45;product&#45;program pass.">
<polygon fill="white" stroke="#666666" points="1786.12,-39.88 1630.62,-39.88 1630.62,-6.38 1786.12,-6.38 1786.12,-39.88"/>
<text text-anchor="start" x="1638.62" y="-26.38" font-family="Helvetica,sans-Serif" font-size="10.00">lib/Transforms/LLZKCompute</text>
<text text-anchor="middle" x="1708.38" y="-13.62" font-family="Helvetica,sans-Serif" font-size="10.00">ConstrainToProductPass.cpp</text>
</a>
</g>
</g>
<!-- Node21&#45;&gt;Node24 -->
<g id="edge26_Node000021_Node000024" class="edge">
<title>Node21&#45;&gt;Node24</title>
<g id="a_edge26_Node000021_Node000024"><a xlink:title=" ">
<path fill="none" stroke="#63b8ff" d="M1372.66,-90.89C1441.18,-80.17 1537.55,-64.07 1621.38,-46.25 1629.76,-44.47 1638.56,-42.43 1647.2,-40.33"/>
<polygon fill="#63b8ff" stroke="#63b8ff" points="1372.32,-87.4 1362.98,-92.39 1373.4,-94.32 1372.32,-87.4"/>
</a>
</g>
</g>
<!-- Node25 -->
<g id="Node000025" class="node">
<title>Node25</title>
<g id="a_Node000025"><a xlink:href="LLZKEnforceNoOverwritePass_8cpp.html" target="_top" xlink:title="This file implements the &#45;llzk&#45;enforce&#45;no&#45;overwrite pass.">
<polygon fill="white" stroke="#666666" points="148.75,-39.88 0,-39.88 0,-6.38 148.75,-6.38 148.75,-39.88"/>
<text text-anchor="start" x="8" y="-26.38" font-family="Helvetica,sans-Serif" font-size="10.00">lib/Transforms/LLZKEnforce</text>
<text text-anchor="middle" x="74.38" y="-13.62" font-family="Helvetica,sans-Serif" font-size="10.00">NoOverwritePass.cpp</text>
</a>
</g>
</g>
<!-- Node21&#45;&gt;Node25 -->
<g id="edge27_Node000021_Node000025" class="edge">
<title>Node21&#45;&gt;Node25</title>
<g id="a_edge27_Node000021_Node000025"><a xlink:title=" ">
<path fill="none" stroke="#63b8ff" d="M1192,-102.14C961.53,-96.06 356.03,-77.51 157.38,-46.25 147.95,-44.77 138.05,-42.64 128.5,-40.29"/>
<polygon fill="#63b8ff" stroke="#63b8ff" points="1191.75,-105.64 1201.84,-102.4 1191.93,-98.64 1191.75,-105.64"/>
</a>
</g>
</g>
<!-- Node26 -->
<g id="Node000026" class="node">
<title>Node26</title>
<g id="a_Node000026"><a xlink:href="LLZKFuseProductLoopsPass_8cpp.html" target="_top" xlink:title="This file implements the &#45;llzk&#45;fuse&#45;product&#45;loops pass.">
<polygon fill="white" stroke="#666666" points="338,-39.88 166.75,-39.88 166.75,-6.38 338,-6.38 338,-39.88"/>
<text text-anchor="start" x="174.75" y="-26.38" font-family="Helvetica,sans-Serif" font-size="10.00">lib/Transforms/LLZKFuseProduct</text>
<text text-anchor="middle" x="252.38" y="-13.62" font-family="Helvetica,sans-Serif" font-size="10.00">LoopsPass.cpp</text>
</a>
</g>
</g>
<!-- Node21&#45;&gt;Node26 -->
<g id="edge28_Node000021_Node000026" class="edge">
<title>Node21&#45;&gt;Node26</title>
<g id="a_edge28_Node000021_Node000026"><a xlink:title=" ">
<path fill="none" stroke="#63b8ff" d="M1191.52,-103.82C1023.68,-101.67 654.03,-91.68 346.38,-46.25 336.09,-44.73 325.28,-42.65 314.79,-40.37"/>
<polygon fill="#63b8ff" stroke="#63b8ff" points="1191.46,-107.32 1201.5,-103.94 1191.54,-100.32 1191.46,-107.32"/>
</a>
</g>
</g>
<!-- Node27 -->
<g id="Node000027" class="node">
<title>Node27</title>
<g id="a_Node000027"><a xlink:href="LLZKInlineStructsPass_8cpp.html" target="_top" xlink:title="This file implements the &#45;llzk&#45;inline&#45;structs pass.">
<polygon fill="white" stroke="#666666" points="494.88,-39.88 355.88,-39.88 355.88,-6.38 494.88,-6.38 494.88,-39.88"/>
<text text-anchor="start" x="363.88" y="-26.38" font-family="Helvetica,sans-Serif" font-size="10.00">lib/Transforms/LLZKInline</text>
<text text-anchor="middle" x="425.38" y="-13.62" font-family="Helvetica,sans-Serif" font-size="10.00">StructsPass.cpp</text>
</a>
</g>
</g>
<!-- Node21&#45;&gt;Node27 -->
<g id="edge29_Node000021_Node000027" class="edge">
<title>Node21&#45;&gt;Node27</title>
<g id="a_edge29_Node000021_Node000027"><a xlink:title=" ">
<path fill="none" stroke="#63b8ff" d="M1192.12,-103.53C1046.23,-100.86 750,-89.97 503.38,-46.25 494.78,-44.73 485.78,-42.64 477.06,-40.36"/>
<polygon fill="#63b8ff" stroke="#63b8ff" points="1191.64,-107.03 1201.7,-103.7 1191.76,-100.03 1191.64,-107.03"/>
</a>
</g>
</g>
<!-- Node21&#45;&gt;Node28 -->
<g id="edge30_Node000021_Node000028" class="edge">
<title>Node21&#45;&gt;Node28</title>
<g id="a_edge30_Node000021_Node000028"><a xlink:title=" ">
<path fill="none" stroke="#63b8ff" d="M1373.14,-101.59C1503.35,-96.45 1750.3,-82.48 1957.38,-46.25 1966.34,-44.68 1975.74,-42.61 1984.86,-40.35"/>
<polygon fill="#63b8ff" stroke="#63b8ff" points="1373.04,-98.09 1363.19,-101.97 1373.31,-105.08 1373.04,-98.09"/>
</a>
</g>
</g>
<!-- Node29 -->
<g id="Node000029" class="node">
<title>Node29</title>
<g id="a_Node000029"><a xlink:href="LLZKPolyLoweringPass_8cpp.html" target="_top" xlink:title="This file implements the &#45;llzk&#45;poly&#45;lowering pass.">
<polygon fill="white" stroke="#666666" points="690,-39.88 512.75,-39.88 512.75,-6.38 690,-6.38 690,-39.88"/>
<text text-anchor="start" x="520.75" y="-26.38" font-family="Helvetica,sans-Serif" font-size="10.00">lib/Transforms/LLZKPolyLowering</text>
<text text-anchor="middle" x="601.38" y="-13.62" font-family="Helvetica,sans-Serif" font-size="10.00">Pass.cpp</text>
</a>
</g>
</g>
<!-- Node21&#45;&gt;Node29 -->
<g id="edge31_Node000021_Node000029" class="edge">
<title>Node21&#45;&gt;Node29</title>
<g id="a_edge31_Node000021_Node000029"><a xlink:title=" ">
<path fill="none" stroke="#63b8ff" d="M1192.05,-98.82C1077.08,-90.96 872.58,-74.33 699.38,-46.25 689.22,-44.6 678.54,-42.54 668.11,-40.34"/>
<polygon fill="#63b8ff" stroke="#63b8ff" points="1191.51,-102.29 1201.73,-99.47 1191.99,-95.31 1191.51,-102.29"/>
</a>
</g>
</g>
<!-- Node30 -->
<g id="Node000030" class="node">
<title>Node30</title>
<g id="a_Node000030"><a xlink:href="LLZKRedundantOperationEliminationPass_8cpp.html" target="_top" xlink:title="This file implements the &#45;llzk&#45;duplicate&#45;op&#45;elim pass.">
<polygon fill="white" stroke="#666666" points="872.62,-39.88 708.12,-39.88 708.12,-6.38 872.62,-6.38 872.62,-39.88"/>
<text text-anchor="start" x="716.12" y="-26.38" font-family="Helvetica,sans-Serif" font-size="10.00">lib/Transforms/LLZKRedundant</text>
<text text-anchor="middle" x="790.38" y="-13.62" font-family="Helvetica,sans-Serif" font-size="10.00">OperationEliminationPass.cpp</text>
</a>
</g>
</g>
<!-- Node21&#45;&gt;Node30 -->
<g id="edge32_Node000021_Node000030" class="edge">
<title>Node21&#45;&gt;Node30</title>
<g id="a_edge32_Node000021_Node000030"><a xlink:title=" ">
<path fill="none" stroke="#63b8ff" d="M1192.03,-93.76C1110.49,-83.59 987.41,-66.78 881.38,-46.25 872.44,-44.52 863.05,-42.49 853.85,-40.37"/>
<polygon fill="#63b8ff" stroke="#63b8ff" points="1191.4,-97.21 1201.75,-94.96 1192.26,-90.26 1191.4,-97.21"/>
</a>
</g>
</g>
<!-- Node31 -->
<g id="Node000031" class="node">
<title>Node31</title>
<g id="a_Node000031"><a xlink:href="LLZKRedundantReadAndWriteEliminationPass_8cpp.html" target="_top" xlink:title="This file implements the &#45;llzk&#45;duplicate&#45;read&#45;write&#45;elim pass.">
<polygon fill="white" stroke="#666666" points="1074,-39.88 890.75,-39.88 890.75,-6.38 1074,-6.38 1074,-39.88"/>
<text text-anchor="start" x="898.75" y="-26.38" font-family="Helvetica,sans-Serif" font-size="10.00">lib/Transforms/LLZKRedundant</text>
<text text-anchor="middle" x="982.38" y="-13.62" font-family="Helvetica,sans-Serif" font-size="10.00">ReadAndWriteEliminationPass.cpp</text>
</a>
</g>
</g>
<!-- Node21&#45;&gt;Node31 -->
<g id="edge33_Node000021_Node000031" class="edge">
<title>Node21&#45;&gt;Node31</title>
<g id="a_edge33_Node000021_Node000031"><a xlink:title=" ">
<path fill="none" stroke="#63b8ff" d="M1210.69,-85.2C1159.52,-71.51 1091.46,-53.31 1042.99,-40.34"/>
<polygon fill="#63b8ff" stroke="#63b8ff" points="1209.64,-88.54 1220.2,-87.74 1211.45,-81.78 1209.64,-88.54"/>
</a>
</g>
</g>
<!-- Node32 -->
<g id="Node000032" class="node">
<title>Node32</title>
<g id="a_Node000032"><a xlink:href="LLZKTransformationPassPipelines_8cpp.html" target="_top" xlink:title="This file implements logic for registering several pass pipelines.">
<polygon fill="white" stroke="#666666" points="1276.75,-39.88 1092,-39.88 1092,-6.38 1276.75,-6.38 1276.75,-39.88"/>
<text text-anchor="start" x="1100" y="-26.38" font-family="Helvetica,sans-Serif" font-size="10.00">lib/Transforms/LLZKTransformation</text>
<text text-anchor="middle" x="1184.38" y="-13.62" font-family="Helvetica,sans-Serif" font-size="10.00">PassPipelines.cpp</text>
</a>
</g>
</g>
<!-- Node21&#45;&gt;Node32 -->
<g id="edge34_Node000021_Node000032" class="edge">
<title>Node21&#45;&gt;Node32</title>
<g id="a_edge34_Node000021_Node000032"><a xlink:title=" ">
<path fill="none" stroke="#63b8ff" d="M1253.65,-80.85C1237.74,-67.83 1218.38,-51.97 1204.18,-40.34"/>
<polygon fill="#63b8ff" stroke="#63b8ff" points="1251.42,-83.55 1261.37,-87.18 1255.85,-78.13 1251.42,-83.55"/>
</a>
</g>
</g>
<!-- Node33 -->
<g id="Node000033" class="node">
<title>Node33</title>
<g id="a_Node000033"><a xlink:href="LLZKUnusedDeclarationEliminationPass_8cpp.html" target="_top" xlink:title="This file implements the &#45;llzk&#45;unused&#45;declaration&#45;elim pass.">
<polygon fill="white" stroke="#666666" points="1464.25,-39.88 1294.5,-39.88 1294.5,-6.38 1464.25,-6.38 1464.25,-39.88"/>
<text text-anchor="start" x="1302.5" y="-26.38" font-family="Helvetica,sans-Serif" font-size="10.00">lib/Transforms/LLZKUnused</text>
<text text-anchor="middle" x="1379.38" y="-13.62" font-family="Helvetica,sans-Serif" font-size="10.00">DeclarationEliminationPass.cpp</text>
</a>
</g>
</g>
<!-- Node21&#45;&gt;Node33 -->
<g id="edge35_Node000021_Node000033" class="edge">
<title>Node21&#45;&gt;Node33</title>
<g id="a_edge35_Node000021_Node000033"><a xlink:title=" ">
<path fill="none" stroke="#63b8ff" d="M1310.81,-80.85C1326.55,-67.83 1345.71,-51.97 1359.77,-40.34"/>
<polygon fill="#63b8ff" stroke="#63b8ff" points="1308.64,-78.1 1303.17,-87.17 1313.11,-83.49 1308.64,-78.1"/>
</a>
</g>
</g>
<!-- Node34&#45;&gt;Node10 -->
<g id="edge40_Node000034_Node000010" class="edge">
<title>Node34&#45;&gt;Node10</title>
<g id="a_edge40_Node000034_Node000010"><a xlink:title=" ">
<path fill="none" stroke="#63b8ff" d="M2519.61,-88.75C2531.25,-86.52 2543.12,-84.29 2554.38,-82.25 2650.58,-64.86 2676.94,-71.53 2771.38,-46.25 2777.61,-44.58 2784.1,-42.51 2790.41,-40.3"/>
<polygon fill="#63b8ff" stroke="#63b8ff" points="2519.18,-85.27 2510.02,-90.61 2520.5,-92.14 2519.18,-85.27"/>
</a>
</g>
</g>
<!-- Node35 -->
<g id="Node000035" class="node">
<title>Node35</title>
<g id="a_Node000035"><a xlink:href="Validators_8cpp.html" target="_top" xlink:title=" ">
<polygon fill="white" stroke="#666666" points="2432.12,-33.5 2306.62,-33.5 2306.62,-12.75 2432.12,-12.75 2432.12,-33.5"/>
<text text-anchor="middle" x="2369.38" y="-20" font-family="Helvetica,sans-Serif" font-size="10.00">lib/CAPI/Validators.cpp</text>
</a>
</g>
</g>
<!-- Node34&#45;&gt;Node35 -->
<g id="edge38_Node000034_Node000035" class="edge">
<title>Node34&#45;&gt;Node35</title>
<g id="a_edge38_Node000034_Node000035"><a xlink:title=" ">
<path fill="none" stroke="#63b8ff" d="M2419.47,-79.96C2405.53,-64.42 2388.24,-45.15 2378.05,-33.79"/>
<polygon fill="#63b8ff" stroke="#63b8ff" points="2416.51,-81.9 2425.79,-87.01 2421.72,-77.23 2416.51,-81.9"/>
</a>
</g>
</g>
<!-- Node36 -->
<g id="Node000036" class="node">
<title>Node36</title>
<g id="a_Node000036"><a xlink:href="LLZKValidationPasses_8cpp.html" target="_top" xlink:title="This file contains the implementation for the &#45;llzk&#45;validate&#45;member&#45;writes pass.">
<polygon fill="white" stroke="#666666" points="2288.12,-39.88 2132.62,-39.88 2132.62,-6.38 2288.12,-6.38 2288.12,-39.88"/>
<text text-anchor="start" x="2140.62" y="-26.38" font-family="Helvetica,sans-Serif" font-size="10.00">lib/Validators/LLZKValidation</text>
<text text-anchor="middle" x="2210.38" y="-13.62" font-family="Helvetica,sans-Serif" font-size="10.00">Passes.cpp</text>
</a>
</g>
</g>
<!-- Node34&#45;&gt;Node36 -->
<g id="edge39_Node000034_Node000036" class="edge">
<title>Node34&#45;&gt;Node36</title>
<g id="a_edge39_Node000034_Node000036"><a xlink:title=" ">
<path fill="none" stroke="#63b8ff" d="M2383.93,-84.42C2344.81,-70.83 2293.67,-53.06 2257.05,-40.34"/>
<polygon fill="#63b8ff" stroke="#63b8ff" points="2382.6,-87.66 2393.2,-87.64 2384.9,-81.05 2382.6,-87.66"/>
</a>
</g>
</g>
</g>
</svg>
