<?xml version="1.0" encoding="UTF-8" standalone="no"?>
<!DOCTYPE svg PUBLIC "-//W3C//DTD SVG 1.1//EN"
 "http://www.w3.org/Graphics/SVG/1.1/DTD/svg11.dtd">
<!-- Generated by graphviz version 12.2.1 (0)
 -->
<!-- Title: include/llzk/CAPI/Support.h Pages: 1 -->
<svg width="1013pt" height="212pt"
 viewBox="0.00 0.00 1013.25 211.75" xmlns="http://www.w3.org/2000/svg" xmlns:xlink="http://www.w3.org/1999/xlink">
<g id="graph0" class="graph" transform="scale(1 1) rotate(0) translate(4 207.75)">
<title>include/llzk/CAPI/Support.h</title>
<!-- Node1 -->
<g id="Node000001" class="node">
<title>Node1</title>
<g id="a_Node000001"><a xlink:title=" ">
<polygon fill="#999999" stroke="#666666" points="684.5,-203.75 538,-203.75 538,-183 684.5,-183 684.5,-203.75"/>
<text text-anchor="middle" x="611.25" y="-190.25" font-family="Helvetica,sans-Serif" font-size="10.00">include/llzk/CAPI/Support.h</text>
</a>
</g>
</g>
<!-- Node2 -->
<g id="Node000002" class="node">
<title>Node2</title>
<g id="a_Node000002"><a xlink:href="AttributeHelper_8h.html" target="_top" xlink:title=" ">
<polygon fill="white" stroke="#666666" points="323.5,-147 213,-147 213,-113.5 323.5,-113.5 323.5,-147"/>
<text text-anchor="start" x="221" y="-133.5" font-family="Helvetica,sans-Serif" font-size="10.00">llzk/Dialect/LLZK/IR</text>
<text text-anchor="middle" x="268.25" y="-120.75" font-family="Helvetica,sans-Serif" font-size="10.00">/AttributeHelper.h</text>
</a>
</g>
</g>
<!-- Node1&#45;&gt;Node2 -->
<g id="edge1_Node000001_Node000002" class="edge">
<title>Node1&#45;&gt;Node2</title>
<g id="a_edge1_Node000001_Node000002"><a xlink:title=" ">
<path fill="none" stroke="#63b8ff" d="M556.14,-182.55C495.94,-171.83 399.5,-154.64 335.04,-143.15"/>
<polygon fill="#63b8ff" stroke="#63b8ff" points="335.74,-139.72 325.28,-141.41 334.51,-146.61 335.74,-139.72"/>
</a>
</g>
</g>
<!-- Node7 -->
<g id="Node000007" class="node">
<title>Node7</title>
<g id="a_Node000007"><a xlink:href="llzk-c_2Support_8h.html" target="_top" xlink:title=" ">
<polygon fill="white" stroke="#666666" points="605.12,-140.62 513.38,-140.62 513.38,-119.88 605.12,-119.88 605.12,-140.62"/>
<text text-anchor="middle" x="559.25" y="-127.12" font-family="Helvetica,sans-Serif" font-size="10.00">llzk&#45;c/Support.h</text>
</a>
</g>
</g>
<!-- Node1&#45;&gt;Node7 -->
<g id="edge6_Node000001_Node000007" class="edge">
<title>Node1&#45;&gt;Node7</title>
<g id="a_edge6_Node000001_Node000007"><a xlink:title=" ">
<path fill="none" stroke="#63b8ff" d="M602.9,-182.55C595.35,-173.68 584.04,-160.39 574.82,-149.56"/>
<polygon fill="#63b8ff" stroke="#63b8ff" points="577.54,-147.35 568.39,-142 572.21,-151.88 577.54,-147.35"/>
</a>
</g>
</g>
<!-- Node9 -->
<g id="Node000009" class="node">
<title>Node9</title>
<g id="a_Node000009"><a xlink:title=" ">
<polygon fill="#e0e0e0" stroke="#999999" points="538.38,-20.75 472.12,-20.75 472.12,0 538.38,0 538.38,-20.75"/>
<text text-anchor="middle" x="505.25" y="-7.25" font-family="Helvetica,sans-Serif" font-size="10.00">mlir&#45;c/IR.h</text>
</a>
</g>
</g>
<!-- Node1&#45;&gt;Node9 -->
<g id="edge16_Node000001_Node000009" class="edge">
<title>Node1&#45;&gt;Node9</title>
<g id="a_edge16_Node000001_Node000009"><a xlink:title=" ">
<path fill="none" stroke="#63b8ff" d="M557.1,-182.54C537.01,-175.98 516.23,-165.09 504.25,-147 481.15,-112.11 490.6,-60.31 498.54,-31.88"/>
<polygon fill="#63b8ff" stroke="#63b8ff" points="501.87,-32.97 501.42,-22.38 495.17,-30.94 501.87,-32.97"/>
</a>
</g>
</g>
<!-- Node12 -->
<g id="Node000012" class="node">
<title>Node12</title>
<g id="a_Node000012"><a xlink:title=" ">
<polygon fill="#e0e0e0" stroke="#999999" points="705.62,-140.62 622.88,-140.62 622.88,-119.88 705.62,-119.88 705.62,-140.62"/>
<text text-anchor="middle" x="664.25" y="-127.12" font-family="Helvetica,sans-Serif" font-size="10.00">mlir/CAPI/IR.h</text>
</a>
</g>
</g>
<!-- Node1&#45;&gt;Node12 -->
<g id="edge13_Node000001_Node000012" class="edge">
<title>Node1&#45;&gt;Node12</title>
<g id="a_edge13_Node000001_Node000012"><a xlink:title=" ">
<path fill="none" stroke="#63b8ff" d="M619.77,-182.55C627.54,-173.59 639.22,-160.12 648.66,-149.23"/>
<polygon fill="#63b8ff" stroke="#63b8ff" points="651.03,-151.84 654.94,-141.99 645.74,-147.25 651.03,-151.84"/>
</a>
</g>
</g>
<!-- Node13 -->
<g id="Node000013" class="node">
<title>Node13</title>
<g id="a_Node000013"><a xlink:title=" ">
<polygon fill="#e0e0e0" stroke="#999999" points="869.12,-140.62 723.38,-140.62 723.38,-119.88 869.12,-119.88 869.12,-140.62"/>
<text text-anchor="middle" x="796.25" y="-127.12" font-family="Helvetica,sans-Serif" font-size="10.00">mlir/IR/OperationSupport.h</text>
</a>
</g>
</g>
<!-- Node1&#45;&gt;Node13 -->
<g id="edge14_Node000001_Node000013" class="edge">
<title>Node1&#45;&gt;Node13</title>
<g id="a_edge14_Node000001_Node000013"><a xlink:title=" ">
<path fill="none" stroke="#63b8ff" d="M640.97,-182.55C672.13,-172.26 721.26,-156.03 755.9,-144.58"/>
<polygon fill="#63b8ff" stroke="#63b8ff" points="756.77,-147.98 765.16,-141.52 754.57,-141.34 756.77,-147.98"/>
</a>
</g>
</g>
<!-- Node14 -->
<g id="Node000014" class="node">
<title>Node14</title>
<g id="a_Node000014"><a xlink:title=" ">
<polygon fill="#e0e0e0" stroke="#999999" points="1005.25,-140.62 887.25,-140.62 887.25,-119.88 1005.25,-119.88 1005.25,-140.62"/>
<text text-anchor="middle" x="946.25" y="-127.12" font-family="Helvetica,sans-Serif" font-size="10.00">mlir/IR/ValueRange.h</text>
</a>
</g>
</g>
<!-- Node1&#45;&gt;Node14 -->
<g id="edge15_Node000001_Node000014" class="edge">
<title>Node1&#45;&gt;Node14</title>
<g id="a_edge15_Node000001_Node000014"><a xlink:title=" ">
<path fill="none" stroke="#63b8ff" d="M675.65,-182.53C729.85,-173.98 809.33,-160.83 878.25,-147 883.54,-145.94 889.05,-144.77 894.54,-143.56"/>
<polygon fill="#63b8ff" stroke="#63b8ff" points="895.24,-146.99 904.23,-141.39 893.7,-140.16 895.24,-146.99"/>
</a>
</g>
</g>
<!-- Node3 -->
<g id="Node000003" class="node">
<title>Node3</title>
<g id="a_Node000003"><a xlink:href="StreamHelper_8h.html" target="_top" xlink:title=" ">
<polygon fill="white" stroke="#666666" points="248.38,-77.5 116.12,-77.5 116.12,-56.75 248.38,-56.75 248.38,-77.5"/>
<text text-anchor="middle" x="182.25" y="-64" font-family="Helvetica,sans-Serif" font-size="10.00">llzk/Util/StreamHelper.h</text>
</a>
</g>
</g>
<!-- Node2&#45;&gt;Node3 -->
<g id="edge2_Node000002_Node000003" class="edge">
<title>Node2&#45;&gt;Node3</title>
<g id="a_edge2_Node000002_Node000003"><a xlink:title=" ">
<path fill="none" stroke="#63b8ff" d="M245.65,-113.19C233.25,-104.37 217.89,-93.45 205.39,-84.57"/>
<polygon fill="#63b8ff" stroke="#63b8ff" points="207.51,-81.78 197.33,-78.84 203.45,-87.49 207.51,-81.78"/>
</a>
</g>
</g>
<!-- Node5 -->
<g id="Node000005" class="node">
<title>Node5</title>
<g id="a_Node000005"><a xlink:title=" ">
<polygon fill="#e0e0e0" stroke="#999999" points="439.62,-77.5 266.88,-77.5 266.88,-56.75 439.62,-56.75 439.62,-77.5"/>
<text text-anchor="middle" x="353.25" y="-64" font-family="Helvetica,sans-Serif" font-size="10.00">mlir/IR/DialectImplementation.h</text>
</a>
</g>
</g>
<!-- Node2&#45;&gt;Node5 -->
<g id="edge4_Node000002_Node000005" class="edge">
<title>Node2&#45;&gt;Node5</title>
<g id="a_edge4_Node000002_Node000005"><a xlink:title=" ">
<path fill="none" stroke="#63b8ff" d="M290.58,-113.19C302.85,-104.37 318.03,-93.45 330.38,-84.57"/>
<polygon fill="#63b8ff" stroke="#63b8ff" points="332.26,-87.53 338.33,-78.85 328.17,-81.85 332.26,-87.53"/>
</a>
</g>
</g>
<!-- Node6 -->
<g id="Node000006" class="node">
<title>Node6</title>
<g id="a_Node000006"><a xlink:title=" ">
<polygon fill="#e0e0e0" stroke="#999999" points="98.5,-77.5 0,-77.5 0,-56.75 98.5,-56.75 98.5,-77.5"/>
<text text-anchor="middle" x="49.25" y="-64" font-family="Helvetica,sans-Serif" font-size="10.00">llvm/ADT/APInt.h</text>
</a>
</g>
</g>
<!-- Node2&#45;&gt;Node6 -->
<g id="edge5_Node000002_Node000006" class="edge">
<title>Node2&#45;&gt;Node6</title>
<g id="a_edge5_Node000002_Node000006"><a xlink:title=" ">
<path fill="none" stroke="#63b8ff" d="M212.7,-113.75C176.5,-103.64 129.8,-90.61 95.6,-81.06"/>
<polygon fill="#63b8ff" stroke="#63b8ff" points="96.54,-77.69 85.97,-78.37 94.66,-84.43 96.54,-77.69"/>
</a>
</g>
</g>
<!-- Node4 -->
<g id="Node000004" class="node">
<title>Node4</title>
<g id="a_Node000004"><a xlink:title=" ">
<polygon fill="#e0e0e0" stroke="#999999" points="259.25,-20.75 105.25,-20.75 105.25,0 259.25,0 259.25,-20.75"/>
<text text-anchor="middle" x="182.25" y="-7.25" font-family="Helvetica,sans-Serif" font-size="10.00">llvm/Support/raw_ostream.h</text>
</a>
</g>
</g>
<!-- Node3&#45;&gt;Node4 -->
<g id="edge3_Node000003_Node000004" class="edge">
<title>Node3&#45;&gt;Node4</title>
<g id="a_edge3_Node000003_Node000004"><a xlink:title=" ">
<path fill="none" stroke="#63b8ff" d="M182.25,-56.34C182.25,-49.72 182.25,-40.72 182.25,-32.52"/>
<polygon fill="#63b8ff" stroke="#63b8ff" points="185.75,-32.59 182.25,-22.59 178.75,-32.59 185.75,-32.59"/>
</a>
</g>
</g>
<!-- Node8 -->
<g id="Node000008" class="node">
<title>Node8</title>
<g id="a_Node000008"><a xlink:href="llzk-c_2Builder_8h.html" target="_top" xlink:title=" ">
<polygon fill="white" stroke="#666666" points="621.25,-77.5 533.25,-77.5 533.25,-56.75 621.25,-56.75 621.25,-77.5"/>
<text text-anchor="middle" x="577.25" y="-64" font-family="Helvetica,sans-Serif" font-size="10.00">llzk&#45;c/Builder.h</text>
</a>
</g>
</g>
<!-- Node7&#45;&gt;Node8 -->
<g id="edge7_Node000007_Node000008" class="edge">
<title>Node7&#45;&gt;Node8</title>
<g id="a_edge7_Node000007_Node000008"><a xlink:title=" ">
<path fill="none" stroke="#63b8ff" d="M562.14,-119.43C564.57,-111.18 568.12,-99.12 571.17,-88.76"/>
<polygon fill="#63b8ff" stroke="#63b8ff" points="574.53,-89.75 574,-79.17 567.81,-87.78 574.53,-89.75"/>
</a>
</g>
</g>
<!-- Node7&#45;&gt;Node9 -->
<g id="edge10_Node000007_Node000009" class="edge">
<title>Node7&#45;&gt;Node9</title>
<g id="a_edge10_Node000007_Node000009"><a xlink:title=" ">
<path fill="none" stroke="#63b8ff" d="M551.28,-119.51C543.43,-109.51 531.6,-93.22 524.25,-77.5 517.43,-62.92 512.53,-45.37 509.41,-32.01"/>
<polygon fill="#63b8ff" stroke="#63b8ff" points="512.91,-31.64 507.37,-22.61 506.07,-33.13 512.91,-31.64"/>
</a>
</g>
</g>
<!-- Node10 -->
<g id="Node000010" class="node">
<title>Node10</title>
<g id="a_Node000010"><a xlink:title=" ">
<polygon fill="#e0e0e0" stroke="#999999" points="708.25,-20.75 614.25,-20.75 614.25,0 708.25,0 708.25,-20.75"/>
<text text-anchor="middle" x="661.25" y="-7.25" font-family="Helvetica,sans-Serif" font-size="10.00">mlir&#45;c/Support.h</text>
</a>
</g>
</g>
<!-- Node7&#45;&gt;Node10 -->
<g id="edge11_Node000007_Node000010" class="edge">
<title>Node7&#45;&gt;Node10</title>
<g id="a_edge11_Node000007_Node000010"><a xlink:title=" ">
<path fill="none" stroke="#63b8ff" d="M591.73,-119.48C631.31,-107.25 693.78,-86.77 700.25,-77.5 711.48,-61.42 696.92,-41.98 682.5,-28.36"/>
<polygon fill="#63b8ff" stroke="#63b8ff" points="685.18,-26.06 675.37,-22.08 680.56,-31.31 685.18,-26.06"/>
</a>
</g>
</g>
<!-- Node11 -->
<g id="Node000011" class="node">
<title>Node11</title>
<g id="a_Node000011"><a xlink:title=" ">
<polygon fill="#e0e0e0" stroke="#999999" points="691.62,-77.5 638.88,-77.5 638.88,-56.75 691.62,-56.75 691.62,-77.5"/>
<text text-anchor="middle" x="665.25" y="-64" font-family="Helvetica,sans-Serif" font-size="10.00">stdint.h</text>
</a>
</g>
</g>
<!-- Node7&#45;&gt;Node11 -->
<g id="edge12_Node000007_Node000011" class="edge">
<title>Node7&#45;&gt;Node11</title>
<g id="a_edge12_Node000007_Node000011"><a xlink:title=" ">
<path fill="none" stroke="#63b8ff" d="M576.28,-119.43C593.05,-109.76 618.91,-94.85 638.44,-83.59"/>
<polygon fill="#63b8ff" stroke="#63b8ff" points="640.04,-86.71 646.95,-78.68 636.54,-80.64 640.04,-86.71"/>
</a>
</g>
</g>
<!-- Node8&#45;&gt;Node9 -->
<g id="edge8_Node000008_Node000009" class="edge">
<title>Node8&#45;&gt;Node9</title>
<g id="a_edge8_Node000008_Node000009"><a xlink:title=" ">
<path fill="none" stroke="#63b8ff" d="M564.38,-56.34C554.04,-48.47 539.28,-37.25 527.1,-27.99"/>
<polygon fill="#63b8ff" stroke="#63b8ff" points="529.29,-25.26 519.22,-21.99 525.06,-30.83 529.29,-25.26"/>
</a>
</g>
</g>
<!-- Node8&#45;&gt;Node10 -->
<g id="edge9_Node000008_Node000010" class="edge">
<title>Node8&#45;&gt;Node10</title>
<g id="a_edge9_Node000008_Node000010"><a xlink:title=" ">
<path fill="none" stroke="#63b8ff" d="M592.27,-56.34C604.69,-48.24 622.57,-36.58 637.02,-27.17"/>
<polygon fill="#63b8ff" stroke="#63b8ff" points="638.63,-30.3 645.09,-21.9 634.81,-24.43 638.63,-30.3"/>
</a>
</g>
</g>
</g>
</svg>
