<?xml version="1.0" encoding="UTF-8" standalone="no"?>
<!DOCTYPE svg PUBLIC "-//W3C//DTD SVG 1.1//EN"
 "http://www.w3.org/Graphics/SVG/1.1/DTD/svg11.dtd">
<!-- Generated by graphviz version 12.2.1 (0)
 -->
<!-- Title: include/llzk/Dialect/LLZK/IR/Ops.h Pages: 1 -->
<svg width="2178pt" height="389pt"
 viewBox="0.00 0.00 2178.38 389.00" xmlns="http://www.w3.org/2000/svg" xmlns:xlink="http://www.w3.org/1999/xlink">
<g id="graph0" class="graph" transform="scale(1 1) rotate(0) translate(4 385)">
<title>include/llzk/Dialect/LLZK/IR/Ops.h</title>
<!-- Node1 -->
<g id="Node000001" class="node">
<title>Node1</title>
<g id="a_Node000001"><a xlink:title=" ">
<polygon fill="#999999" stroke="#666666" points="1338.62,-381 1229.62,-381 1229.62,-347.5 1338.62,-347.5 1338.62,-381"/>
<text text-anchor="start" x="1237.62" y="-367.5" font-family="Helvetica,sans-Serif" font-size="10.00">include/llzk/Dialect</text>
<text text-anchor="middle" x="1284.12" y="-354.75" font-family="Helvetica,sans-Serif" font-size="10.00">/LLZK/IR/Ops.h</text>
</a>
</g>
</g>
<!-- Node2 -->
<g id="Node000002" class="node">
<title>Node2</title>
<g id="a_Node000002"><a xlink:href="SourceRef_8h.html" target="_top" xlink:title=" ">
<polygon fill="white" stroke="#666666" points="638,-311.5 522.25,-311.5 522.25,-278 638,-278 638,-311.5"/>
<text text-anchor="start" x="530.25" y="-298" font-family="Helvetica,sans-Serif" font-size="10.00">include/llzk/Analysis</text>
<text text-anchor="middle" x="580.12" y="-285.25" font-family="Helvetica,sans-Serif" font-size="10.00">/SourceRef.h</text>
</a>
</g>
</g>
<!-- Node1&#45;&gt;Node2 -->
<g id="edge1_Node000001_Node000002" class="edge">
<title>Node1&#45;&gt;Node2</title>
<g id="a_edge1_Node000001_Node000002"><a xlink:title=" ">
<path fill="none" stroke="#63b8ff" d="M1217.76,-361.13C1101.51,-356.69 853.76,-343.99 647.12,-311.5 644.29,-311.05 641.4,-310.55 638.49,-310.01"/>
<polygon fill="#63b8ff" stroke="#63b8ff" points="1217.63,-364.63 1227.75,-361.5 1217.89,-357.63 1217.63,-364.63"/>
</a>
</g>
</g>
<!-- Node12 -->
<g id="Node000012" class="node">
<title>Node12</title>
<g id="a_Node000012"><a xlink:href="LLZK_8cpp.html" target="_top" xlink:title=" ">
<polygon fill="white" stroke="#666666" points="794.25,-305.12 656,-305.12 656,-284.38 794.25,-284.38 794.25,-305.12"/>
<text text-anchor="middle" x="725.12" y="-291.62" font-family="Helvetica,sans-Serif" font-size="10.00">lib/CAPI/Dialect/LLZK.cpp</text>
</a>
</g>
</g>
<!-- Node1&#45;&gt;Node12 -->
<g id="edge14_Node000001_Node000012" class="edge">
<title>Node1&#45;&gt;Node12</title>
<g id="a_edge14_Node000001_Node000012"><a xlink:title=" ">
<path fill="none" stroke="#63b8ff" d="M1217.98,-358.07C1125.02,-350.36 950.58,-334.27 803.12,-311.5 792.48,-309.86 781.07,-307.75 770.37,-305.62"/>
<polygon fill="#63b8ff" stroke="#63b8ff" points="1217.69,-361.56 1227.94,-358.89 1218.26,-354.59 1217.69,-361.56"/>
</a>
</g>
</g>
<!-- Node13 -->
<g id="Node000013" class="node">
<title>Node13</title>
<g id="a_Node000013"><a xlink:href="Array_2IR_2Ops_8cpp.html" target="_top" xlink:title=" ">
<polygon fill="white" stroke="#666666" points="919.88,-311.5 812.38,-311.5 812.38,-278 919.88,-278 919.88,-311.5"/>
<text text-anchor="start" x="820.38" y="-298" font-family="Helvetica,sans-Serif" font-size="10.00">lib/Dialect/Array/IR</text>
<text text-anchor="middle" x="866.12" y="-285.25" font-family="Helvetica,sans-Serif" font-size="10.00">/Ops.cpp</text>
</a>
</g>
</g>
<!-- Node1&#45;&gt;Node13 -->
<g id="edge15_Node000001_Node000013" class="edge">
<title>Node1&#45;&gt;Node13</title>
<g id="a_edge15_Node000001_Node000013"><a xlink:title=" ">
<path fill="none" stroke="#63b8ff" d="M1218.33,-355.66C1146.81,-346.95 1029.32,-331.28 929.12,-311.5 926.25,-310.93 923.31,-310.32 920.34,-309.67"/>
<polygon fill="#63b8ff" stroke="#63b8ff" points="1217.55,-359.09 1227.9,-356.82 1218.39,-352.15 1217.55,-359.09"/>
</a>
</g>
</g>
<!-- Node14 -->
<g id="Node000014" class="node">
<title>Node14</title>
<g id="a_Node000014"><a xlink:href="ArrayToScalarPass_8cpp.html" target="_top" xlink:title="This file implements the &#45;llzk&#45;array&#45;to&#45;scalar pass.">
<polygon fill="white" stroke="#666666" points="1090,-311.5 938.25,-311.5 938.25,-278 1090,-278 1090,-311.5"/>
<text text-anchor="start" x="946.25" y="-298" font-family="Helvetica,sans-Serif" font-size="10.00">lib/Dialect/Array/Transforms</text>
<text text-anchor="middle" x="1014.12" y="-285.25" font-family="Helvetica,sans-Serif" font-size="10.00">/ArrayToScalarPass.cpp</text>
</a>
</g>
</g>
<!-- Node1&#45;&gt;Node14 -->
<g id="edge16_Node000001_Node000014" class="edge">
<title>Node1&#45;&gt;Node14</title>
<g id="a_edge16_Node000001_Node000014"><a xlink:title=" ">
<path fill="none" stroke="#63b8ff" d="M1218.13,-346.75C1175.8,-336.17 1121.1,-322.49 1079,-311.97"/>
<polygon fill="#63b8ff" stroke="#63b8ff" points="1217.14,-350.11 1227.69,-349.14 1218.84,-343.32 1217.14,-350.11"/>
</a>
</g>
</g>
<!-- Node15 -->
<g id="Node000015" class="node">
<title>Node15</title>
<g id="a_Node000015"><a xlink:href="LLZK_2IR_2Dialect_8cpp.html" target="_top" xlink:title=" ">
<polygon fill="white" stroke="#666666" points="1213.75,-311.5 1108.5,-311.5 1108.5,-278 1213.75,-278 1213.75,-311.5"/>
<text text-anchor="start" x="1116.5" y="-298" font-family="Helvetica,sans-Serif" font-size="10.00">lib/Dialect/LLZK/IR</text>
<text text-anchor="middle" x="1161.12" y="-285.25" font-family="Helvetica,sans-Serif" font-size="10.00">/Dialect.cpp</text>
</a>
</g>
</g>
<!-- Node1&#45;&gt;Node15 -->
<g id="edge17_Node000001_Node000015" class="edge">
<title>Node1&#45;&gt;Node15</title>
<g id="a_edge17_Node000001_Node000015"><a xlink:title=" ">
<path fill="none" stroke="#63b8ff" d="M1244.65,-341.59C1227.01,-331.91 1206.58,-320.7 1190.35,-311.79"/>
<polygon fill="#63b8ff" stroke="#63b8ff" points="1242.89,-344.61 1253.34,-346.35 1246.25,-338.47 1242.89,-344.61"/>
</a>
</g>
</g>
<!-- Node16 -->
<g id="Node000016" class="node">
<title>Node16</title>
<g id="a_Node000016"><a xlink:href="LLZK_2IR_2Ops_8cpp.html" target="_top" xlink:title=" ">
<polygon fill="white" stroke="#666666" points="1336.75,-311.5 1231.5,-311.5 1231.5,-278 1336.75,-278 1336.75,-311.5"/>
<text text-anchor="start" x="1239.5" y="-298" font-family="Helvetica,sans-Serif" font-size="10.00">lib/Dialect/LLZK/IR</text>
<text text-anchor="middle" x="1284.12" y="-285.25" font-family="Helvetica,sans-Serif" font-size="10.00">/Ops.cpp</text>
</a>
</g>
</g>
<!-- Node1&#45;&gt;Node16 -->
<g id="edge18_Node000001_Node000016" class="edge">
<title>Node1&#45;&gt;Node16</title>
<g id="a_edge18_Node000001_Node000016"><a xlink:title=" ">
<path fill="none" stroke="#63b8ff" d="M1284.12,-335.81C1284.12,-327.59 1284.12,-318.84 1284.12,-311.63"/>
<polygon fill="#63b8ff" stroke="#63b8ff" points="1280.63,-335.74 1284.13,-345.74 1287.63,-335.74 1280.63,-335.74"/>
</a>
</g>
</g>
<!-- Node17 -->
<g id="Node000017" class="node">
<title>Node17</title>
<g id="a_Node000017"><a xlink:href="Verif_2IR_2Ops_8cpp.html" target="_top" xlink:title=" ">
<polygon fill="white" stroke="#666666" points="1459,-311.5 1355.25,-311.5 1355.25,-278 1459,-278 1459,-311.5"/>
<text text-anchor="start" x="1363.25" y="-298" font-family="Helvetica,sans-Serif" font-size="10.00">lib/Dialect/Verif/IR</text>
<text text-anchor="middle" x="1407.12" y="-285.25" font-family="Helvetica,sans-Serif" font-size="10.00">/Ops.cpp</text>
</a>
</g>
</g>
<!-- Node1&#45;&gt;Node17 -->
<g id="edge19_Node000001_Node000017" class="edge">
<title>Node1&#45;&gt;Node17</title>
<g id="a_edge19_Node000001_Node000017"><a xlink:title=" ">
<path fill="none" stroke="#63b8ff" d="M1323.6,-341.59C1341.24,-331.91 1361.67,-320.7 1377.9,-311.79"/>
<polygon fill="#63b8ff" stroke="#63b8ff" points="1322,-338.47 1314.91,-346.35 1325.36,-344.61 1322,-338.47"/>
</a>
</g>
</g>
<!-- Node18 -->
<g id="Node000018" class="node">
<title>Node18</title>
<g id="a_Node000018"><a xlink:href="LLZKLoweringUtils_8cpp.html" target="_top" xlink:title=" ">
<polygon fill="white" stroke="#666666" points="1633.25,-311.5 1477,-311.5 1477,-278 1633.25,-278 1633.25,-311.5"/>
<text text-anchor="start" x="1485" y="-298" font-family="Helvetica,sans-Serif" font-size="10.00">lib/Transforms/LLZKLowering</text>
<text text-anchor="middle" x="1555.12" y="-285.25" font-family="Helvetica,sans-Serif" font-size="10.00">Utils.cpp</text>
</a>
</g>
</g>
<!-- Node1&#45;&gt;Node18 -->
<g id="edge20_Node000001_Node000018" class="edge">
<title>Node1&#45;&gt;Node18</title>
<g id="a_edge20_Node000001_Node000018"><a xlink:title=" ">
<path fill="none" stroke="#63b8ff" d="M1350.08,-346.82C1392.71,-336.2 1447.95,-322.45 1490.35,-311.88"/>
<polygon fill="#63b8ff" stroke="#63b8ff" points="1349.29,-343.41 1340.43,-349.22 1350.98,-350.2 1349.29,-343.41"/>
</a>
</g>
</g>
<!-- Node19 -->
<g id="Node000019" class="node">
<title>Node19</title>
<g id="a_Node000019"><a xlink:href="LLZKPolyLoweringPass_8cpp.html" target="_top" xlink:title="This file implements the &#45;llzk&#45;poly&#45;lowering pass.">
<polygon fill="white" stroke="#666666" points="1828.75,-311.5 1651.5,-311.5 1651.5,-278 1828.75,-278 1828.75,-311.5"/>
<text text-anchor="start" x="1659.5" y="-298" font-family="Helvetica,sans-Serif" font-size="10.00">lib/Transforms/LLZKPolyLowering</text>
<text text-anchor="middle" x="1740.12" y="-285.25" font-family="Helvetica,sans-Serif" font-size="10.00">Pass.cpp</text>
</a>
</g>
</g>
<!-- Node1&#45;&gt;Node19 -->
<g id="edge21_Node000001_Node000019" class="edge">
<title>Node1&#45;&gt;Node19</title>
<g id="a_edge21_Node000001_Node000019"><a xlink:title=" ">
<path fill="none" stroke="#63b8ff" d="M1350.18,-354.02C1422.06,-343.9 1540.33,-327.04 1642.12,-311.5 1645.11,-311.05 1648.14,-310.58 1651.2,-310.1"/>
<polygon fill="#63b8ff" stroke="#63b8ff" points="1349.97,-350.52 1340.55,-355.37 1350.94,-357.45 1349.97,-350.52"/>
</a>
</g>
</g>
<!-- Node20 -->
<g id="Node000020" class="node">
<title>Node20</title>
<g id="a_Node000020"><a xlink:href="Interpreter_8cpp.html" target="_top" xlink:title=" ">
<polygon fill="white" stroke="#666666" points="2017.75,-305.12 1846.5,-305.12 1846.5,-284.38 2017.75,-284.38 2017.75,-305.12"/>
<text text-anchor="middle" x="1932.12" y="-291.62" font-family="Helvetica,sans-Serif" font-size="10.00">tools/llzk&#45;witgen/Interpreter.cpp</text>
</a>
</g>
</g>
<!-- Node1&#45;&gt;Node20 -->
<g id="edge22_Node000001_Node000020" class="edge">
<title>Node1&#45;&gt;Node20</title>
<g id="a_edge22_Node000001_Node000020"><a xlink:title=" ">
<path fill="none" stroke="#63b8ff" d="M1350.18,-358.64C1454.2,-351.04 1662.47,-334.39 1838.12,-311.5 1850.92,-309.83 1864.65,-307.72 1877.55,-305.59"/>
<polygon fill="#63b8ff" stroke="#63b8ff" points="1350.15,-355.14 1340.43,-359.35 1350.66,-362.12 1350.15,-355.14"/>
</a>
</g>
</g>
<!-- Node21 -->
<g id="Node000021" class="node">
<title>Node21</title>
<g id="a_Node000021"><a xlink:href="WitgenLowering_8cpp.html" target="_top" xlink:title=" ">
<polygon fill="white" stroke="#666666" points="2170.38,-311.5 2035.88,-311.5 2035.88,-278 2170.38,-278 2170.38,-311.5"/>
<text text-anchor="start" x="2043.88" y="-298" font-family="Helvetica,sans-Serif" font-size="10.00">tools/llzk&#45;witgen/Witgen</text>
<text text-anchor="middle" x="2103.12" y="-285.25" font-family="Helvetica,sans-Serif" font-size="10.00">Lowering.cpp</text>
</a>
</g>
</g>
<!-- Node1&#45;&gt;Node21 -->
<g id="edge23_Node000001_Node000021" class="edge">
<title>Node1&#45;&gt;Node21</title>
<g id="a_edge23_Node000001_Node000021"><a xlink:title=" ">
<path fill="none" stroke="#63b8ff" d="M1350.23,-361.63C1480.38,-357.79 1778.75,-345.73 2027.12,-311.5 2029.93,-311.11 2032.78,-310.68 2035.66,-310.22"/>
<polygon fill="#63b8ff" stroke="#63b8ff" points="1350.32,-358.13 1340.43,-361.92 1350.53,-365.13 1350.32,-358.13"/>
</a>
</g>
</g>
<!-- Node3 -->
<g id="Node000003" class="node">
<title>Node3</title>
<g id="a_Node000003"><a xlink:href="ConstraintDependencyGraph_8h.html" target="_top" xlink:title=" ">
<polygon fill="white" stroke="#666666" points="559.25,-172.5 391,-172.5 391,-139 559.25,-139 559.25,-172.5"/>
<text text-anchor="start" x="399" y="-159" font-family="Helvetica,sans-Serif" font-size="10.00">include/llzk/Analysis</text>
<text text-anchor="middle" x="475.12" y="-146.25" font-family="Helvetica,sans-Serif" font-size="10.00">/ConstraintDependencyGraph.h</text>
</a>
</g>
</g>
<!-- Node2&#45;&gt;Node3 -->
<g id="edge2_Node000002_Node000003" class="edge">
<title>Node2&#45;&gt;Node3</title>
<g id="a_edge2_Node000002_Node000003"><a xlink:title=" ">
<path fill="none" stroke="#63b8ff" d="M544.3,-271.2C533.28,-263 521.78,-253.01 513.12,-242 496.4,-220.73 485.33,-190.93 479.65,-172.78"/>
<polygon fill="#63b8ff" stroke="#63b8ff" points="541.97,-273.83 552.15,-276.77 546.02,-268.12 541.97,-273.83"/>
</a>
</g>
</g>
<!-- Node10 -->
<g id="Node000010" class="node">
<title>Node10</title>
<g id="a_Node000010"><a xlink:href="SourceRefLattice_8h.html" target="_top" xlink:title=" ">
<polygon fill="white" stroke="#666666" points="638,-242 522.25,-242 522.25,-208.5 638,-208.5 638,-242"/>
<text text-anchor="start" x="530.25" y="-228.5" font-family="Helvetica,sans-Serif" font-size="10.00">include/llzk/Analysis</text>
<text text-anchor="middle" x="580.12" y="-215.75" font-family="Helvetica,sans-Serif" font-size="10.00">/SourceRefLattice.h</text>
</a>
</g>
</g>
<!-- Node2&#45;&gt;Node10 -->
<g id="edge9_Node000002_Node000010" class="edge">
<title>Node2&#45;&gt;Node10</title>
<g id="a_edge9_Node000002_Node000010"><a xlink:title=" ">
<path fill="none" stroke="#63b8ff" d="M580.12,-266.31C580.12,-258.09 580.12,-249.34 580.12,-242.13"/>
<polygon fill="#63b8ff" stroke="#63b8ff" points="576.63,-266.24 580.13,-276.24 583.63,-266.24 576.63,-266.24"/>
</a>
</g>
</g>
<!-- Node11 -->
<g id="Node000011" class="node">
<title>Node11</title>
<g id="a_Node000011"><a xlink:href="SourceRef_8cpp.html" target="_top" xlink:title=" ">
<polygon fill="white" stroke="#666666" points="800.25,-235.62 656,-235.62 656,-214.88 800.25,-214.88 800.25,-235.62"/>
<text text-anchor="middle" x="728.12" y="-222.12" font-family="Helvetica,sans-Serif" font-size="10.00">lib/Analysis/SourceRef.cpp</text>
</a>
</g>
</g>
<!-- Node2&#45;&gt;Node11 -->
<g id="edge13_Node000002_Node000011" class="edge">
<title>Node2&#45;&gt;Node11</title>
<g id="a_edge13_Node000002_Node000011"><a xlink:title=" ">
<path fill="none" stroke="#63b8ff" d="M625.95,-272.85C652.88,-260.57 685.66,-245.62 706.7,-236.02"/>
<polygon fill="#63b8ff" stroke="#63b8ff" points="624.6,-269.62 616.95,-276.95 627.5,-275.99 624.6,-269.62"/>
</a>
</g>
</g>
<!-- Node4 -->
<g id="Node000004" class="node">
<title>Node4</title>
<g id="a_Node000004"><a xlink:href="IntervalAnalysis_8h.html" target="_top" xlink:title=" ">
<polygon fill="white" stroke="#666666" points="236,-103 120.25,-103 120.25,-69.5 236,-69.5 236,-103"/>
<text text-anchor="start" x="128.25" y="-89.5" font-family="Helvetica,sans-Serif" font-size="10.00">include/llzk/Analysis</text>
<text text-anchor="middle" x="178.12" y="-76.75" font-family="Helvetica,sans-Serif" font-size="10.00">/IntervalAnalysis.h</text>
</a>
</g>
</g>
<!-- Node3&#45;&gt;Node4 -->
<g id="edge3_Node000003_Node000004" class="edge">
<title>Node3&#45;&gt;Node4</title>
<g id="a_edge3_Node000003_Node000004"><a xlink:title=" ">
<path fill="none" stroke="#63b8ff" d="M391.18,-136.07C347.59,-126.31 293.47,-114.12 245.12,-103 242.21,-102.33 239.23,-101.64 236.22,-100.94"/>
<polygon fill="#63b8ff" stroke="#63b8ff" points="390.32,-139.46 400.84,-138.22 391.84,-132.63 390.32,-139.46"/>
</a>
</g>
</g>
<!-- Node7 -->
<g id="Node000007" class="node">
<title>Node7</title>
<g id="a_Node000007"><a xlink:href="ConstraintDependencyGraph_8cpp.html" target="_top" xlink:title=" ">
<polygon fill="white" stroke="#666666" points="840.25,-103 654,-103 654,-69.5 840.25,-69.5 840.25,-103"/>
<text text-anchor="start" x="662" y="-89.5" font-family="Helvetica,sans-Serif" font-size="10.00">lib/Analysis/ConstraintDependency</text>
<text text-anchor="middle" x="747.12" y="-76.75" font-family="Helvetica,sans-Serif" font-size="10.00">Graph.cpp</text>
</a>
</g>
</g>
<!-- Node3&#45;&gt;Node7 -->
<g id="edge6_Node000003_Node000007" class="edge">
<title>Node3&#45;&gt;Node7</title>
<g id="a_edge6_Node000003_Node000007"><a xlink:title=" ">
<path fill="none" stroke="#63b8ff" d="M551.35,-135.83C592.49,-125.62 642.74,-113.15 682.04,-103.4"/>
<polygon fill="#63b8ff" stroke="#63b8ff" points="550.61,-132.41 541.74,-138.22 552.29,-139.21 550.61,-132.41"/>
</a>
</g>
</g>
<!-- Node8 -->
<g id="Node000008" class="node">
<title>Node8</title>
<g id="a_Node000008"><a xlink:href="ConstraintDependencyGraphPass_8cpp.html" target="_top" xlink:title="This file implements the &#45;llzk&#45;print&#45;constraint&#45;dependency&#45;graphs pass.">
<polygon fill="white" stroke="#666666" points="440.25,-103 254,-103 254,-69.5 440.25,-69.5 440.25,-103"/>
<text text-anchor="start" x="262" y="-89.5" font-family="Helvetica,sans-Serif" font-size="10.00">lib/Analysis/ConstraintDependency</text>
<text text-anchor="middle" x="347.12" y="-76.75" font-family="Helvetica,sans-Serif" font-size="10.00">GraphPass.cpp</text>
</a>
</g>
</g>
<!-- Node3&#45;&gt;Node8 -->
<g id="edge7_Node000003_Node000008" class="edge">
<title>Node3&#45;&gt;Node8</title>
<g id="a_edge7_Node000003_Node000008"><a xlink:title=" ">
<path fill="none" stroke="#63b8ff" d="M434.3,-133.22C415.89,-123.51 394.51,-112.24 377.53,-103.29"/>
<polygon fill="#63b8ff" stroke="#63b8ff" points="432.65,-136.31 443.13,-137.88 435.91,-130.12 432.65,-136.31"/>
</a>
</g>
</g>
<!-- Node9 -->
<g id="Node000009" class="node">
<title>Node9</title>
<g id="a_Node000009"><a xlink:href="SourceRefLattice_8cpp.html" target="_top" xlink:title=" ">
<polygon fill="white" stroke="#666666" points="636.12,-96.62 458.12,-96.62 458.12,-75.88 636.12,-75.88 636.12,-96.62"/>
<text text-anchor="middle" x="547.12" y="-83.12" font-family="Helvetica,sans-Serif" font-size="10.00">lib/Analysis/SourceRefLattice.cpp</text>
</a>
</g>
</g>
<!-- Node3&#45;&gt;Node9 -->
<g id="edge8_Node000003_Node000009" class="edge">
<title>Node3&#45;&gt;Node9</title>
<g id="a_edge8_Node000003_Node000009"><a xlink:title=" ">
<path fill="none" stroke="#63b8ff" d="M500.42,-131.04C512.86,-119.37 527.18,-105.95 536.65,-97.07"/>
<polygon fill="#63b8ff" stroke="#63b8ff" points="498.19,-128.33 493.29,-137.72 502.98,-133.43 498.19,-128.33"/>
</a>
</g>
</g>
<!-- Node5 -->
<g id="Node000005" class="node">
<title>Node5</title>
<g id="a_Node000005"><a xlink:href="IntervalAnalysis_8cpp.html" target="_top" xlink:title=" ">
<polygon fill="white" stroke="#666666" points="174.25,-27.12 0,-27.12 0,-6.38 174.25,-6.38 174.25,-27.12"/>
<text text-anchor="middle" x="87.12" y="-13.62" font-family="Helvetica,sans-Serif" font-size="10.00">lib/Analysis/IntervalAnalysis.cpp</text>
</a>
</g>
</g>
<!-- Node4&#45;&gt;Node5 -->
<g id="edge4_Node000004_Node000005" class="edge">
<title>Node4&#45;&gt;Node5</title>
<g id="a_edge4_Node000004_Node000005"><a xlink:title=" ">
<path fill="none" stroke="#63b8ff" d="M147.51,-62.54C131.48,-50.65 112.68,-36.7 100.37,-27.57"/>
<polygon fill="#63b8ff" stroke="#63b8ff" points="145.23,-65.21 155.34,-68.35 149.4,-59.58 145.23,-65.21"/>
</a>
</g>
</g>
<!-- Node6 -->
<g id="Node000006" class="node">
<title>Node6</title>
<g id="a_Node000006"><a xlink:href="IntervalAnalysisPass_8cpp.html" target="_top" xlink:title="This file implements the &#45;llzk&#45;print&#45;interval&#45;analysis pass.">
<polygon fill="white" stroke="#666666" points="346.12,-33.5 192.12,-33.5 192.12,0 346.12,0 346.12,-33.5"/>
<text text-anchor="start" x="200.12" y="-20" font-family="Helvetica,sans-Serif" font-size="10.00">lib/Analysis/IntervalAnalysis</text>
<text text-anchor="middle" x="269.12" y="-7.25" font-family="Helvetica,sans-Serif" font-size="10.00">Pass.cpp</text>
</a>
</g>
</g>
<!-- Node4&#45;&gt;Node6 -->
<g id="edge5_Node000004_Node000006" class="edge">
<title>Node4&#45;&gt;Node6</title>
<g id="a_edge5_Node000004_Node000006"><a xlink:title=" ">
<path fill="none" stroke="#63b8ff" d="M208.57,-62.66C221.29,-53.23 235.78,-42.48 247.4,-33.87"/>
<polygon fill="#63b8ff" stroke="#63b8ff" points="206.85,-59.58 200.91,-68.35 211.02,-65.21 206.85,-59.58"/>
</a>
</g>
</g>
<!-- Node10&#45;&gt;Node3 -->
<g id="edge10_Node000010_Node000003" class="edge">
<title>Node10&#45;&gt;Node3</title>
<g id="a_edge10_Node000010_Node000003"><a xlink:title=" ">
<path fill="none" stroke="#63b8ff" d="M545.58,-202.04C530.72,-192.49 513.67,-181.53 500.07,-172.79"/>
<polygon fill="#63b8ff" stroke="#63b8ff" points="543.4,-204.8 553.7,-207.26 547.18,-198.91 543.4,-204.8"/>
</a>
</g>
</g>
<!-- Node10&#45;&gt;Node7 -->
<g id="edge11_Node000010_Node000007" class="edge">
<title>Node10&#45;&gt;Node7</title>
<g id="a_edge11_Node000010_Node000007"><a xlink:title=" ">
<path fill="none" stroke="#63b8ff" d="M608.11,-201.29C641.93,-173.55 697.97,-127.58 727.51,-103.34"/>
<polygon fill="#63b8ff" stroke="#63b8ff" points="606.29,-198.26 600.78,-207.31 610.73,-203.67 606.29,-198.26"/>
</a>
</g>
</g>
<!-- Node10&#45;&gt;Node9 -->
<g id="edge12_Node000010_Node000009" class="edge">
<title>Node10&#45;&gt;Node9</title>
<g id="a_edge12_Node000010_Node000009"><a xlink:title=" ">
<path fill="none" stroke="#63b8ff" d="M578.01,-197.02C576.28,-180.11 573.25,-158.05 568.12,-139 564.05,-123.83 556.72,-107.14 551.89,-96.92"/>
<polygon fill="#63b8ff" stroke="#63b8ff" points="574.51,-197.16 578.92,-206.8 581.48,-196.52 574.51,-197.16"/>
</a>
</g>
</g>
</g>
</svg>
