<?xml version="1.0" encoding="UTF-8" standalone="no"?>
<!DOCTYPE svg PUBLIC "-//W3C//DTD SVG 1.1//EN"
 "http://www.w3.org/Graphics/SVG/1.1/DTD/svg11.dtd">
<!-- Generated by graphviz version 12.2.1 (0)
 -->
<!-- Title: include/llzk/Transforms/LLZKTransformationPasses.h Pages: 1 -->
<svg width="3098pt" height="181pt"
 viewBox="0.00 0.00 3097.62 180.50" xmlns="http://www.w3.org/2000/svg" xmlns:xlink="http://www.w3.org/1999/xlink">
<g id="graph0" class="graph" transform="scale(1 1) rotate(0) translate(4 176.5)">
<title>include/llzk/Transforms/LLZKTransformationPasses.h</title>
<!-- Node1 -->
<g id="Node000001" class="node">
<title>Node1</title>
<g id="a_Node000001"><a xlink:title=" ">
<polygon fill="#999999" stroke="#666666" points="1526.25,-172.5 1368.5,-172.5 1368.5,-139 1526.25,-139 1526.25,-172.5"/>
<text text-anchor="start" x="1376.5" y="-159" font-family="Helvetica,sans-Serif" font-size="10.00">include/llzk/Transforms</text>
<text text-anchor="middle" x="1447.38" y="-146.25" font-family="Helvetica,sans-Serif" font-size="10.00">/LLZKTransformationPasses.h</text>
</a>
</g>
</g>
<!-- Node2 -->
<g id="Node000002" class="node">
<title>Node2</title>
<g id="a_Node000002"><a xlink:href="LLZKTransformationPassPipelines_8h.html" target="_top" xlink:title=" ">
<polygon fill="white" stroke="#666666" points="224.75,-103 34,-103 34,-69.5 224.75,-69.5 224.75,-103"/>
<text text-anchor="start" x="42" y="-89.5" font-family="Helvetica,sans-Serif" font-size="10.00">include/llzk/Transforms</text>
<text text-anchor="middle" x="129.38" y="-76.75" font-family="Helvetica,sans-Serif" font-size="10.00">/LLZKTransformationPassPipelines.h</text>
</a>
</g>
</g>
<!-- Node1&#45;&gt;Node2 -->
<g id="edge1_Node000001_Node000002" class="edge">
<title>Node1&#45;&gt;Node2</title>
<g id="a_edge1_Node000001_Node000002"><a xlink:title=" ">
<path fill="none" stroke="#63b8ff" d="M1356.94,-153.99C1155.59,-151.61 655.18,-141.93 238.38,-103 234,-102.59 229.52,-102.13 225.01,-101.63"/>
<polygon fill="#63b8ff" stroke="#63b8ff" points="1356.78,-157.49 1366.82,-154.1 1356.86,-150.49 1356.78,-157.49"/>
</a>
</g>
</g>
<!-- Node4 -->
<g id="Node000004" class="node">
<title>Node4</title>
<g id="a_Node000004"><a xlink:href="llzk-opt_8cpp.html" target="_top" xlink:title="This file implements a version of the mlir&#45;opt tool configured for use on LLZK files.">
<polygon fill="white" stroke="#666666" points="302.38,-33.5 202.38,-33.5 202.38,0 302.38,0 302.38,-33.5"/>
<text text-anchor="start" x="210.38" y="-20" font-family="Helvetica,sans-Serif" font-size="10.00">tools/llzk&#45;opt/llzk</text>
<text text-anchor="middle" x="252.38" y="-7.25" font-family="Helvetica,sans-Serif" font-size="10.00">&#45;opt.cpp</text>
</a>
</g>
</g>
<!-- Node1&#45;&gt;Node4 -->
<g id="edge19_Node000001_Node000004" class="edge">
<title>Node1&#45;&gt;Node4</title>
<g id="a_edge19_Node000001_Node000004"><a xlink:title=" ">
<path fill="none" stroke="#63b8ff" d="M1357.21,-153.75C1089.09,-150.4 312.79,-137.73 271.38,-103 251.39,-86.24 249.68,-53.52 250.71,-33.85"/>
<polygon fill="#63b8ff" stroke="#63b8ff" points="1356.88,-157.25 1366.93,-153.87 1356.97,-150.25 1356.88,-157.25"/>
</a>
</g>
</g>
<!-- Node5 -->
<g id="Node000005" class="node">
<title>Node5</title>
<g id="a_Node000005"><a xlink:href="Transforms_8cpp.html" target="_top" xlink:title=" ">
<polygon fill="white" stroke="#666666" points="410.75,-96.62 280,-96.62 280,-75.88 410.75,-75.88 410.75,-96.62"/>
<text text-anchor="middle" x="345.38" y="-83.12" font-family="Helvetica,sans-Serif" font-size="10.00">lib/CAPI/Transforms.cpp</text>
</a>
</g>
</g>
<!-- Node1&#45;&gt;Node5 -->
<g id="edge4_Node000001_Node000005" class="edge">
<title>Node1&#45;&gt;Node5</title>
<g id="a_edge4_Node000001_Node000005"><a xlink:title=" ">
<path fill="none" stroke="#63b8ff" d="M1356.83,-155.02C1177.24,-154.5 763.54,-148 419.38,-103 408.43,-101.57 396.71,-99.38 385.89,-97.09"/>
<polygon fill="#63b8ff" stroke="#63b8ff" points="1356.8,-158.52 1366.81,-155.05 1356.81,-151.52 1356.8,-158.52"/>
</a>
</g>
</g>
<!-- Node6 -->
<g id="Node000006" class="node">
<title>Node6</title>
<g id="a_Node000006"><a xlink:href="ArrayToScalarPass_8cpp.html" target="_top" xlink:title="This file implements the &#45;llzk&#45;array&#45;to&#45;scalar pass.">
<polygon fill="white" stroke="#666666" points="580.25,-103 428.5,-103 428.5,-69.5 580.25,-69.5 580.25,-103"/>
<text text-anchor="start" x="436.5" y="-89.5" font-family="Helvetica,sans-Serif" font-size="10.00">lib/Dialect/Array/Transforms</text>
<text text-anchor="middle" x="504.38" y="-76.75" font-family="Helvetica,sans-Serif" font-size="10.00">/ArrayToScalarPass.cpp</text>
</a>
</g>
</g>
<!-- Node1&#45;&gt;Node6 -->
<g id="edge5_Node000001_Node000006" class="edge">
<title>Node1&#45;&gt;Node6</title>
<g id="a_edge5_Node000001_Node000006"><a xlink:title=" ">
<path fill="none" stroke="#63b8ff" d="M1356.67,-152.94C1199.76,-149 867.73,-137.05 589.38,-103 586.4,-102.64 583.36,-102.23 580.3,-101.8"/>
<polygon fill="#63b8ff" stroke="#63b8ff" points="1356.52,-156.44 1366.61,-153.19 1356.7,-149.44 1356.52,-156.44"/>
</a>
</g>
</g>
<!-- Node7 -->
<g id="Node000007" class="node">
<title>Node7</title>
<g id="a_Node000007"><a xlink:href="Dialect_2InitDialects_8cpp.html" target="_top" xlink:title=" ">
<polygon fill="white" stroke="#666666" points="742.5,-96.62 598.25,-96.62 598.25,-75.88 742.5,-75.88 742.5,-96.62"/>
<text text-anchor="middle" x="670.38" y="-83.12" font-family="Helvetica,sans-Serif" font-size="10.00">lib/Dialect/InitDialects.cpp</text>
</a>
</g>
</g>
<!-- Node1&#45;&gt;Node7 -->
<g id="edge6_Node000001_Node000007" class="edge">
<title>Node1&#45;&gt;Node7</title>
<g id="a_edge6_Node000001_Node000007"><a xlink:title=" ">
<path fill="none" stroke="#63b8ff" d="M1356.94,-151.43C1223.83,-145.77 967.55,-131.95 751.38,-103 739.87,-101.46 727.54,-99.32 716.06,-97.11"/>
<polygon fill="#63b8ff" stroke="#63b8ff" points="1356.61,-154.92 1366.74,-151.84 1356.9,-147.93 1356.61,-154.92"/>
</a>
</g>
</g>
<!-- Node8 -->
<g id="Node000008" class="node">
<title>Node8</title>
<g id="a_Node000008"><a xlink:href="PodToScalarPass_8cpp.html" target="_top" xlink:title="This file implements the &#45;llzk&#45;pod&#45;to&#45;scalar pass.">
<polygon fill="white" stroke="#666666" points="906.62,-103 760.12,-103 760.12,-69.5 906.62,-69.5 906.62,-103"/>
<text text-anchor="start" x="768.12" y="-89.5" font-family="Helvetica,sans-Serif" font-size="10.00">lib/Dialect/POD/Transforms</text>
<text text-anchor="middle" x="833.38" y="-76.75" font-family="Helvetica,sans-Serif" font-size="10.00">/PodToScalarPass.cpp</text>
</a>
</g>
</g>
<!-- Node1&#45;&gt;Node8 -->
<g id="edge7_Node000001_Node000008" class="edge">
<title>Node1&#45;&gt;Node8</title>
<g id="a_edge7_Node000001_Node000008"><a xlink:title=" ">
<path fill="none" stroke="#63b8ff" d="M1356.94,-148.52C1250.84,-140.62 1069.79,-125.29 915.38,-103 912.65,-102.61 909.88,-102.18 907.08,-101.74"/>
<polygon fill="#63b8ff" stroke="#63b8ff" points="1356.49,-152 1366.72,-149.25 1357.01,-145.02 1356.49,-152"/>
</a>
</g>
</g>
<!-- Node9 -->
<g id="Node000009" class="node">
<title>Node9</title>
<g id="a_Node000009"><a xlink:href="FlatteningPass_8cpp.html" target="_top" xlink:title="This file implements the &#45;llzk&#45;flatten pass.">
<polygon fill="white" stroke="#666666" points="1092.12,-103 924.62,-103 924.62,-69.5 1092.12,-69.5 1092.12,-103"/>
<text text-anchor="start" x="932.62" y="-89.5" font-family="Helvetica,sans-Serif" font-size="10.00">lib/Dialect/Polymorphic</text>
<text text-anchor="middle" x="1008.38" y="-76.75" font-family="Helvetica,sans-Serif" font-size="10.00">/Transforms/FlatteningPass.cpp</text>
</a>
</g>
</g>
<!-- Node1&#45;&gt;Node9 -->
<g id="edge8_Node000001_Node000009" class="edge">
<title>Node1&#45;&gt;Node9</title>
<g id="a_edge8_Node000001_Node000009"><a xlink:title=" ">
<path fill="none" stroke="#63b8ff" d="M1356.9,-141.71C1287.05,-131.52 1188.02,-116.82 1101.38,-103 1098.46,-102.54 1095.5,-102.06 1092.51,-101.57"/>
<polygon fill="#63b8ff" stroke="#63b8ff" points="1356.39,-145.17 1366.79,-143.15 1357.4,-138.24 1356.39,-145.17"/>
</a>
</g>
</g>
<!-- Node10 -->
<g id="Node000010" class="node">
<title>Node10</title>
<g id="a_Node000010"><a xlink:href="LLZKComputeConstrainToProductPass_8cpp.html" target="_top" xlink:title="This file implements the &#45;llzk&#45;product&#45;program pass.">
<polygon fill="white" stroke="#666666" points="1266.12,-103 1110.62,-103 1110.62,-69.5 1266.12,-69.5 1266.12,-103"/>
<text text-anchor="start" x="1118.62" y="-89.5" font-family="Helvetica,sans-Serif" font-size="10.00">lib/Transforms/LLZKCompute</text>
<text text-anchor="middle" x="1188.38" y="-76.75" font-family="Helvetica,sans-Serif" font-size="10.00">ConstrainToProductPass.cpp</text>
</a>
</g>
</g>
<!-- Node1&#45;&gt;Node10 -->
<g id="edge9_Node000001_Node000010" class="edge">
<title>Node1&#45;&gt;Node10</title>
<g id="a_edge9_Node000001_Node000010"><a xlink:title=" ">
<path fill="none" stroke="#63b8ff" d="M1374.29,-135.7C1335.21,-125.52 1287.61,-113.11 1250.35,-103.4"/>
<polygon fill="#63b8ff" stroke="#63b8ff" points="1373.31,-139.07 1383.87,-138.2 1375.08,-132.29 1373.31,-139.07"/>
</a>
</g>
</g>
<!-- Node11 -->
<g id="Node000011" class="node">
<title>Node11</title>
<g id="a_Node000011"><a xlink:href="LLZKEnforceNoOverwritePass_8cpp.html" target="_top" xlink:title="This file implements the &#45;llzk&#45;enforce&#45;no&#45;overwrite pass.">
<polygon fill="white" stroke="#666666" points="1432.75,-103 1284,-103 1284,-69.5 1432.75,-69.5 1432.75,-103"/>
<text text-anchor="start" x="1292" y="-89.5" font-family="Helvetica,sans-Serif" font-size="10.00">lib/Transforms/LLZKEnforce</text>
<text text-anchor="middle" x="1358.38" y="-76.75" font-family="Helvetica,sans-Serif" font-size="10.00">NoOverwritePass.cpp</text>
</a>
</g>
</g>
<!-- Node1&#45;&gt;Node11 -->
<g id="edge10_Node000001_Node000011" class="edge">
<title>Node1&#45;&gt;Node11</title>
<g id="a_edge10_Node000001_Node000011"><a xlink:title=" ">
<path fill="none" stroke="#63b8ff" d="M1417.23,-131.89C1404.88,-122.52 1390.87,-111.9 1379.62,-103.37"/>
<polygon fill="#63b8ff" stroke="#63b8ff" points="1414.99,-134.58 1425.08,-137.84 1419.22,-129.01 1414.99,-134.58"/>
</a>
</g>
</g>
<!-- Node12 -->
<g id="Node000012" class="node">
<title>Node12</title>
<g id="a_Node000012"><a xlink:href="LLZKFuseProductLoopsPass_8cpp.html" target="_top" xlink:title="This file implements the &#45;llzk&#45;fuse&#45;product&#45;loops pass.">
<polygon fill="white" stroke="#666666" points="1622,-103 1450.75,-103 1450.75,-69.5 1622,-69.5 1622,-103"/>
<text text-anchor="start" x="1458.75" y="-89.5" font-family="Helvetica,sans-Serif" font-size="10.00">lib/Transforms/LLZKFuseProduct</text>
<text text-anchor="middle" x="1536.38" y="-76.75" font-family="Helvetica,sans-Serif" font-size="10.00">LoopsPass.cpp</text>
</a>
</g>
</g>
<!-- Node1&#45;&gt;Node12 -->
<g id="edge11_Node000001_Node000012" class="edge">
<title>Node1&#45;&gt;Node12</title>
<g id="a_edge11_Node000001_Node000012"><a xlink:title=" ">
<path fill="none" stroke="#63b8ff" d="M1477.52,-131.89C1489.87,-122.52 1503.88,-111.9 1515.13,-103.37"/>
<polygon fill="#63b8ff" stroke="#63b8ff" points="1475.53,-129.01 1469.67,-137.84 1479.76,-134.58 1475.53,-129.01"/>
</a>
</g>
</g>
<!-- Node13 -->
<g id="Node000013" class="node">
<title>Node13</title>
<g id="a_Node000013"><a xlink:href="LLZKInliningExtensions_8cpp.html" target="_top" xlink:title=" ">
<polygon fill="white" stroke="#666666" points="1788.38,-103 1640.38,-103 1640.38,-69.5 1788.38,-69.5 1788.38,-103"/>
<text text-anchor="start" x="1648.38" y="-89.5" font-family="Helvetica,sans-Serif" font-size="10.00">lib/Transforms/LLZKInlining</text>
<text text-anchor="middle" x="1714.38" y="-76.75" font-family="Helvetica,sans-Serif" font-size="10.00">Extensions.cpp</text>
</a>
</g>
</g>
<!-- Node1&#45;&gt;Node13 -->
<g id="edge12_Node000001_Node000013" class="edge">
<title>Node1&#45;&gt;Node13</title>
<g id="a_edge12_Node000001_Node000013"><a xlink:title=" ">
<path fill="none" stroke="#63b8ff" d="M1522.45,-135.77C1562.79,-125.57 1611.99,-113.13 1650.48,-103.4"/>
<polygon fill="#63b8ff" stroke="#63b8ff" points="1521.63,-132.37 1512.8,-138.21 1523.35,-139.15 1521.63,-132.37"/>
</a>
</g>
</g>
<!-- Node14 -->
<g id="Node000014" class="node">
<title>Node14</title>
<g id="a_Node000014"><a xlink:href="LLZKPolyLoweringPass_8cpp.html" target="_top" xlink:title="This file implements the &#45;llzk&#45;poly&#45;lowering pass.">
<polygon fill="white" stroke="#666666" points="1984,-103 1806.75,-103 1806.75,-69.5 1984,-69.5 1984,-103"/>
<text text-anchor="start" x="1814.75" y="-89.5" font-family="Helvetica,sans-Serif" font-size="10.00">lib/Transforms/LLZKPolyLowering</text>
<text text-anchor="middle" x="1895.38" y="-76.75" font-family="Helvetica,sans-Serif" font-size="10.00">Pass.cpp</text>
</a>
</g>
</g>
<!-- Node1&#45;&gt;Node14 -->
<g id="edge13_Node000001_Node000014" class="edge">
<title>Node1&#45;&gt;Node14</title>
<g id="a_edge13_Node000001_Node000014"><a xlink:title=" ">
<path fill="none" stroke="#63b8ff" d="M1537.73,-141.71C1608.44,-131.43 1709.21,-116.6 1797.38,-103 1800.36,-102.54 1803.39,-102.07 1806.45,-101.59"/>
<polygon fill="#63b8ff" stroke="#63b8ff" points="1537.54,-138.2 1528.15,-143.1 1538.55,-145.13 1537.54,-138.2"/>
</a>
</g>
</g>
<!-- Node15 -->
<g id="Node000015" class="node">
<title>Node15</title>
<g id="a_Node000015"><a xlink:href="LLZKRedundantOperationEliminationPass_8cpp.html" target="_top" xlink:title="This file implements the &#45;llzk&#45;duplicate&#45;op&#45;elim pass.">
<polygon fill="white" stroke="#666666" points="2166.62,-103 2002.12,-103 2002.12,-69.5 2166.62,-69.5 2166.62,-103"/>
<text text-anchor="start" x="2010.12" y="-89.5" font-family="Helvetica,sans-Serif" font-size="10.00">lib/Transforms/LLZKRedundant</text>
<text text-anchor="middle" x="2084.38" y="-76.75" font-family="Helvetica,sans-Serif" font-size="10.00">OperationEliminationPass.cpp</text>
</a>
</g>
</g>
<!-- Node1&#45;&gt;Node15 -->
<g id="edge14_Node000001_Node000015" class="edge">
<title>Node1&#45;&gt;Node15</title>
<g id="a_edge14_Node000001_Node000015"><a xlink:title=" ">
<path fill="none" stroke="#63b8ff" d="M1537.93,-148.31C1646.44,-140.1 1833.63,-124.36 1993.38,-103 1996.24,-102.62 1999.14,-102.21 2002.08,-101.79"/>
<polygon fill="#63b8ff" stroke="#63b8ff" points="1537.93,-144.8 1528.22,-149.04 1538.45,-151.78 1537.93,-144.8"/>
</a>
</g>
</g>
<!-- Node16 -->
<g id="Node000016" class="node">
<title>Node16</title>
<g id="a_Node000016"><a xlink:href="LLZKRedundantReadAndWriteEliminationPass_8cpp.html" target="_top" xlink:title="This file implements the &#45;llzk&#45;duplicate&#45;read&#45;write&#45;elim pass.">
<polygon fill="white" stroke="#666666" points="2368,-103 2184.75,-103 2184.75,-69.5 2368,-69.5 2368,-103"/>
<text text-anchor="start" x="2192.75" y="-89.5" font-family="Helvetica,sans-Serif" font-size="10.00">lib/Transforms/LLZKRedundant</text>
<text text-anchor="middle" x="2276.38" y="-76.75" font-family="Helvetica,sans-Serif" font-size="10.00">ReadAndWriteEliminationPass.cpp</text>
</a>
</g>
</g>
<!-- Node1&#45;&gt;Node16 -->
<g id="edge15_Node000001_Node000016" class="edge">
<title>Node1&#45;&gt;Node16</title>
<g id="a_edge15_Node000001_Node000016"><a xlink:title=" ">
<path fill="none" stroke="#63b8ff" d="M1537.79,-150.76C1675.65,-144.13 1946.53,-128.93 2175.38,-103 2178.37,-102.66 2181.42,-102.3 2184.49,-101.91"/>
<polygon fill="#63b8ff" stroke="#63b8ff" points="1537.82,-147.26 1528,-151.23 1538.15,-154.25 1537.82,-147.26"/>
</a>
</g>
</g>
<!-- Node17 -->
<g id="Node000017" class="node">
<title>Node17</title>
<g id="a_Node000017"><a xlink:href="LLZKRemoveUnusedDiscardableAllocationsPass_8cpp.html" target="_top" xlink:title="This file implements the &#45;llzk&#45;remove&#45;unused&#45;discardable&#45;allocations pass.">
<polygon fill="white" stroke="#666666" points="2592.62,-103 2386.12,-103 2386.12,-69.5 2592.62,-69.5 2592.62,-103"/>
<text text-anchor="start" x="2394.12" y="-89.5" font-family="Helvetica,sans-Serif" font-size="10.00">lib/Transforms/LLZKRemove</text>
<text text-anchor="middle" x="2489.38" y="-76.75" font-family="Helvetica,sans-Serif" font-size="10.00">UnusedDiscardableAllocationsPass.cpp</text>
</a>
</g>
</g>
<!-- Node1&#45;&gt;Node17 -->
<g id="edge16_Node000001_Node000017" class="edge">
<title>Node1&#45;&gt;Node17</title>
<g id="a_edge16_Node000001_Node000017"><a xlink:title=" ">
<path fill="none" stroke="#63b8ff" d="M1537.7,-152.25C1704.11,-147.08 2070.2,-133.09 2377.38,-103 2380.11,-102.73 2382.88,-102.45 2385.68,-102.15"/>
<polygon fill="#63b8ff" stroke="#63b8ff" points="1537.95,-148.74 1528.06,-152.54 1538.16,-155.74 1537.95,-148.74"/>
</a>
</g>
</g>
<!-- Node18 -->
<g id="Node000018" class="node">
<title>Node18</title>
<g id="a_Node000018"><a xlink:href="LLZKUnusedDeclarationEliminationPass_8cpp.html" target="_top" xlink:title="This file implements the &#45;llzk&#45;unused&#45;declaration&#45;elim pass.">
<polygon fill="white" stroke="#666666" points="2780.25,-103 2610.5,-103 2610.5,-69.5 2780.25,-69.5 2780.25,-103"/>
<text text-anchor="start" x="2618.5" y="-89.5" font-family="Helvetica,sans-Serif" font-size="10.00">lib/Transforms/LLZKUnused</text>
<text text-anchor="middle" x="2695.38" y="-76.75" font-family="Helvetica,sans-Serif" font-size="10.00">DeclarationEliminationPass.cpp</text>
</a>
</g>
</g>
<!-- Node1&#45;&gt;Node18 -->
<g id="edge17_Node000001_Node000018" class="edge">
<title>Node1&#45;&gt;Node18</title>
<g id="a_edge17_Node000001_Node000018"><a xlink:title=" ">
<path fill="none" stroke="#63b8ff" d="M1537.99,-154.41C1733.03,-152.87 2206.87,-144.74 2601.38,-103 2604.25,-102.7 2607.18,-102.36 2610.13,-102"/>
<polygon fill="#63b8ff" stroke="#63b8ff" points="1538.16,-150.91 1528.19,-154.49 1538.21,-157.91 1538.16,-150.91"/>
</a>
</g>
</g>
<!-- Node19 -->
<g id="Node000019" class="node">
<title>Node19</title>
<g id="a_Node000019"><a xlink:href="LLZKWhileToForPass_8cpp.html" target="_top" xlink:title="This file identifies scf.while loops that can be converted to scf.for loops and performs the conversi...">
<polygon fill="white" stroke="#666666" points="2936.88,-103 2797.88,-103 2797.88,-69.5 2936.88,-69.5 2936.88,-103"/>
<text text-anchor="start" x="2805.88" y="-89.5" font-family="Helvetica,sans-Serif" font-size="10.00">lib/Transforms/LLZKWhile</text>
<text text-anchor="middle" x="2867.38" y="-76.75" font-family="Helvetica,sans-Serif" font-size="10.00">ToForPass.cpp</text>
</a>
</g>
</g>
<!-- Node1&#45;&gt;Node19 -->
<g id="edge18_Node000001_Node000019" class="edge">
<title>Node1&#45;&gt;Node19</title>
<g id="a_edge18_Node000001_Node000019"><a xlink:title=" ">
<path fill="none" stroke="#63b8ff" d="M1537.78,-153.16C1798.07,-148.28 2546.14,-132.06 2789.38,-103 2792.12,-102.67 2794.91,-102.3 2797.72,-101.89"/>
<polygon fill="#63b8ff" stroke="#63b8ff" points="1537.94,-149.66 1528.01,-153.34 1538.07,-156.65 1537.94,-149.66"/>
</a>
</g>
</g>
<!-- Node20 -->
<g id="Node000020" class="node">
<title>Node20</title>
<g id="a_Node000020"><a xlink:href="WitgenLowering_8cpp.html" target="_top" xlink:title=" ">
<polygon fill="white" stroke="#666666" points="3089.62,-103 2955.12,-103 2955.12,-69.5 3089.62,-69.5 3089.62,-103"/>
<text text-anchor="start" x="2963.12" y="-89.5" font-family="Helvetica,sans-Serif" font-size="10.00">tools/llzk&#45;witgen/Witgen</text>
<text text-anchor="middle" x="3022.38" y="-76.75" font-family="Helvetica,sans-Serif" font-size="10.00">Lowering.cpp</text>
</a>
</g>
</g>
<!-- Node1&#45;&gt;Node20 -->
<g id="edge20_Node000001_Node000020" class="edge">
<title>Node1&#45;&gt;Node20</title>
<g id="a_edge20_Node000001_Node000020"><a xlink:title=" ">
<path fill="none" stroke="#63b8ff" d="M1538.01,-153.64C1818.74,-149.88 2671.44,-135.99 2946.38,-103 2949.18,-102.66 2952.04,-102.28 2954.93,-101.85"/>
<polygon fill="#63b8ff" stroke="#63b8ff" points="1538.14,-150.14 1528.19,-153.77 1538.23,-157.14 1538.14,-150.14"/>
</a>
</g>
</g>
<!-- Node3 -->
<g id="Node000003" class="node">
<title>Node3</title>
<g id="a_Node000003"><a xlink:href="LLZKTransformationPassPipelines_8cpp.html" target="_top" xlink:title="This file implements logic for registering several pass pipelines.">
<polygon fill="white" stroke="#666666" points="184.75,-33.5 0,-33.5 0,0 184.75,0 184.75,-33.5"/>
<text text-anchor="start" x="8" y="-20" font-family="Helvetica,sans-Serif" font-size="10.00">lib/Transforms/LLZKTransformation</text>
<text text-anchor="middle" x="92.38" y="-7.25" font-family="Helvetica,sans-Serif" font-size="10.00">PassPipelines.cpp</text>
</a>
</g>
</g>
<!-- Node2&#45;&gt;Node3 -->
<g id="edge2_Node000002_Node000003" class="edge">
<title>Node2&#45;&gt;Node3</title>
<g id="a_edge2_Node000002_Node000003"><a xlink:title=" ">
<path fill="none" stroke="#63b8ff" d="M115.12,-59.24C110.39,-50.61 105.26,-41.26 101.08,-33.63"/>
<polygon fill="#63b8ff" stroke="#63b8ff" points="112,-60.84 119.88,-67.93 118.14,-57.47 112,-60.84"/>
</a>
</g>
</g>
<!-- Node2&#45;&gt;Node4 -->
<g id="edge3_Node000002_Node000004" class="edge">
<title>Node2&#45;&gt;Node4</title>
<g id="a_edge3_Node000002_Node000004"><a xlink:title=" ">
<path fill="none" stroke="#63b8ff" d="M168.85,-63.59C186.49,-53.91 206.92,-42.7 223.15,-33.79"/>
<polygon fill="#63b8ff" stroke="#63b8ff" points="167.25,-60.47 160.16,-68.35 170.61,-66.61 167.25,-60.47"/>
</a>
</g>
</g>
</g>
</svg>
