<?xml version="1.0" encoding="UTF-8" standalone="no"?>
<!DOCTYPE svg PUBLIC "-//W3C//DTD SVG 1.1//EN"
 "http://www.w3.org/Graphics/SVG/1.1/DTD/svg11.dtd">
<!-- Generated by graphviz version 12.2.1 (0)
 -->
<!-- Title: lib/CAPI/Dialect/LLZK.cpp Pages: 1 -->
<svg width="2325pt" height="281pt"
 viewBox="0.00 0.00 2324.82 281.25" xmlns="http://www.w3.org/2000/svg" xmlns:xlink="http://www.w3.org/1999/xlink">
<g id="graph0" class="graph" transform="scale(1 1) rotate(0) translate(4 277.25)">
<title>lib/CAPI/Dialect/LLZK.cpp</title>
<!-- Node1 -->
<g id="Node000001" class="node">
<title>Node1</title>
<g id="a_Node000001"><a xlink:title=" ">
<polygon fill="#999999" stroke="#666666" points="1620.07,-273.25 1481.82,-273.25 1481.82,-252.5 1620.07,-252.5 1620.07,-273.25"/>
<text text-anchor="middle" x="1550.95" y="-259.75" font-family="Helvetica,sans-Serif" font-size="10.00">lib/CAPI/Dialect/LLZK.cpp</text>
</a>
</g>
</g>
<!-- Node2 -->
<g id="Node000002" class="node">
<title>Node2</title>
<g id="a_Node000002"><a xlink:href="LLZK_8h.html" target="_top" xlink:title=" ">
<polygon fill="white" stroke="#666666" points="192.82,-210.12 77.07,-210.12 77.07,-189.38 192.82,-189.38 192.82,-210.12"/>
<text text-anchor="middle" x="134.95" y="-196.62" font-family="Helvetica,sans-Serif" font-size="10.00">llzk&#45;c/Dialect/LLZK.h</text>
</a>
</g>
</g>
<!-- Node1&#45;&gt;Node2 -->
<g id="edge1_Node000001_Node000002" class="edge">
<title>Node1&#45;&gt;Node2</title>
<g id="a_edge1_Node000001_Node000002"><a xlink:title=" ">
<path fill="none" stroke="#63b8ff" d="M1481.69,-258.89C1241.45,-248.51 445.52,-214.16 204.63,-203.76"/>
<polygon fill="#63b8ff" stroke="#63b8ff" points="204.9,-200.27 194.76,-203.33 204.59,-207.26 204.9,-200.27"/>
</a>
</g>
</g>
<!-- Node8 -->
<g id="Node000008" class="node">
<title>Node8</title>
<g id="a_Node000008"><a xlink:href="llzk_2CAPI_2Support_8h.html" target="_top" xlink:title=" ">
<polygon fill="white" stroke="#666666" points="696.07,-210.12 587.82,-210.12 587.82,-189.38 696.07,-189.38 696.07,-210.12"/>
<text text-anchor="middle" x="641.95" y="-196.62" font-family="Helvetica,sans-Serif" font-size="10.00">llzk/CAPI/Support.h</text>
</a>
</g>
</g>
<!-- Node1&#45;&gt;Node8 -->
<g id="edge11_Node000001_Node000008" class="edge">
<title>Node1&#45;&gt;Node8</title>
<g id="a_edge11_Node000001_Node000008"><a xlink:title=" ">
<path fill="none" stroke="#63b8ff" d="M1481.5,-257.21C1311.01,-245.74 873.61,-216.33 707.38,-205.15"/>
<polygon fill="#63b8ff" stroke="#63b8ff" points="708.08,-201.69 697.87,-204.51 707.61,-208.67 708.08,-201.69"/>
</a>
</g>
</g>
<!-- Node19 -->
<g id="Node000019" class="node">
<title>Node19</title>
<g id="a_Node000019"><a xlink:href="LLZK_2IR_2Attrs_8h.html" target="_top" xlink:title=" ">
<polygon fill="white" stroke="#666666" points="1542.2,-216.5 1431.7,-216.5 1431.7,-183 1542.2,-183 1542.2,-216.5"/>
<text text-anchor="start" x="1439.7" y="-203" font-family="Helvetica,sans-Serif" font-size="10.00">llzk/Dialect/LLZK/IR</text>
<text text-anchor="middle" x="1486.95" y="-190.25" font-family="Helvetica,sans-Serif" font-size="10.00">/Attrs.h</text>
</a>
</g>
</g>
<!-- Node1&#45;&gt;Node19 -->
<g id="edge26_Node000001_Node000019" class="edge">
<title>Node1&#45;&gt;Node19</title>
<g id="a_edge26_Node000001_Node000019"><a xlink:title=" ">
<path fill="none" stroke="#63b8ff" d="M1540.66,-252.05C1532.93,-244.67 1522,-234.23 1512.02,-224.7"/>
<polygon fill="#63b8ff" stroke="#63b8ff" points="1514.69,-222.41 1505.04,-218.03 1509.85,-227.47 1514.69,-222.41"/>
</a>
</g>
</g>
<!-- Node22 -->
<g id="Node000022" class="node">
<title>Node22</title>
<g id="a_Node000022"><a xlink:href="LLZK_2IR_2Dialect_8h.html" target="_top" xlink:title=" ">
<polygon fill="white" stroke="#666666" points="1671.2,-216.5 1560.7,-216.5 1560.7,-183 1671.2,-183 1671.2,-216.5"/>
<text text-anchor="start" x="1568.7" y="-203" font-family="Helvetica,sans-Serif" font-size="10.00">llzk/Dialect/LLZK/IR</text>
<text text-anchor="middle" x="1615.95" y="-190.25" font-family="Helvetica,sans-Serif" font-size="10.00">/Dialect.h</text>
</a>
</g>
</g>
<!-- Node1&#45;&gt;Node22 -->
<g id="edge29_Node000001_Node000022" class="edge">
<title>Node1&#45;&gt;Node22</title>
<g id="a_edge29_Node000001_Node000022"><a xlink:title=" ">
<path fill="none" stroke="#63b8ff" d="M1561.39,-252.05C1569.24,-244.67 1580.34,-234.23 1590.48,-224.7"/>
<polygon fill="#63b8ff" stroke="#63b8ff" points="1592.69,-227.42 1597.58,-218.02 1587.9,-222.32 1592.69,-227.42"/>
</a>
</g>
</g>
<!-- Node25 -->
<g id="Node000025" class="node">
<title>Node25</title>
<g id="a_Node000025"><a xlink:href="LLZK_2IR_2Ops_8h.html" target="_top" xlink:title=" ">
<polygon fill="white" stroke="#666666" points="1949.2,-216.5 1838.7,-216.5 1838.7,-183 1949.2,-183 1949.2,-216.5"/>
<text text-anchor="start" x="1846.7" y="-203" font-family="Helvetica,sans-Serif" font-size="10.00">llzk/Dialect/LLZK/IR</text>
<text text-anchor="middle" x="1893.95" y="-190.25" font-family="Helvetica,sans-Serif" font-size="10.00">/Ops.h</text>
</a>
</g>
</g>
<!-- Node1&#45;&gt;Node25 -->
<g id="edge32_Node000001_Node000025" class="edge">
<title>Node1&#45;&gt;Node25</title>
<g id="a_edge32_Node000001_Node000025"><a xlink:title=" ">
<path fill="none" stroke="#63b8ff" d="M1606.05,-252.05C1666.26,-241.33 1762.69,-224.14 1827.15,-212.65"/>
<polygon fill="#63b8ff" stroke="#63b8ff" points="1827.68,-216.11 1836.91,-210.91 1826.46,-209.22 1827.68,-216.11"/>
</a>
</g>
</g>
<!-- Node29 -->
<g id="Node000029" class="node">
<title>Node29</title>
<g id="a_Node000029"><a xlink:title=" ">
<polygon fill="#e0e0e0" stroke="#999999" points="2099.07,-210.12 1966.82,-210.12 1966.82,-189.38 2099.07,-189.38 2099.07,-210.12"/>
<text text-anchor="middle" x="2032.95" y="-196.62" font-family="Helvetica,sans-Serif" font-size="10.00">mlir/CAPI/Registration.h</text>
</a>
</g>
</g>
<!-- Node1&#45;&gt;Node29 -->
<g id="edge36_Node000001_Node000029" class="edge">
<title>Node1&#45;&gt;Node29</title>
<g id="a_edge36_Node000001_Node000029"><a xlink:title=" ">
<path fill="none" stroke="#63b8ff" d="M1620.35,-256.18C1701.58,-249.04 1840.01,-235.41 1957.95,-216.5 1964.67,-215.42 1971.7,-214.14 1978.65,-212.79"/>
<polygon fill="#63b8ff" stroke="#63b8ff" points="1978.85,-216.32 1987.97,-210.92 1977.47,-209.46 1978.85,-216.32"/>
</a>
</g>
</g>
<!-- Node30 -->
<g id="Node000030" class="node">
<title>Node30</title>
<g id="a_Node000030"><a xlink:href="LLZK_2IR_2Attrs_8capi_8cpp_8inc.html" target="_top" xlink:title=" ">
<polygon fill="white" stroke="#666666" points="1217.2,-216.5 1106.7,-216.5 1106.7,-183 1217.2,-183 1217.2,-216.5"/>
<text text-anchor="start" x="1114.7" y="-203" font-family="Helvetica,sans-Serif" font-size="10.00">llzk/Dialect/LLZK/IR</text>
<text text-anchor="middle" x="1161.95" y="-190.25" font-family="Helvetica,sans-Serif" font-size="10.00">/Attrs.capi.cpp.inc</text>
</a>
</g>
</g>
<!-- Node1&#45;&gt;Node30 -->
<g id="edge37_Node000001_Node000030" class="edge">
<title>Node1&#45;&gt;Node30</title>
<g id="a_edge37_Node000001_Node000030"><a xlink:title=" ">
<path fill="none" stroke="#63b8ff" d="M1488.45,-252.05C1417.4,-240.89 1301.86,-222.74 1228.99,-211.28"/>
<polygon fill="#63b8ff" stroke="#63b8ff" points="1229.59,-207.84 1219.16,-209.74 1228.5,-214.75 1229.59,-207.84"/>
</a>
</g>
</g>
<!-- Node34 -->
<g id="Node000034" class="node">
<title>Node34</title>
<g id="a_Node000034"><a xlink:href="LLZK_2IR_2Ops_8capi_8cpp_8inc.html" target="_top" xlink:title=" ">
<polygon fill="white" stroke="#666666" points="2288.2,-216.5 2177.7,-216.5 2177.7,-183 2288.2,-183 2288.2,-216.5"/>
<text text-anchor="start" x="2185.7" y="-203" font-family="Helvetica,sans-Serif" font-size="10.00">llzk/Dialect/LLZK/IR</text>
<text text-anchor="middle" x="2232.95" y="-190.25" font-family="Helvetica,sans-Serif" font-size="10.00">/Ops.capi.cpp.inc</text>
</a>
</g>
</g>
<!-- Node1&#45;&gt;Node34 -->
<g id="edge42_Node000001_Node000034" class="edge">
<title>Node1&#45;&gt;Node34</title>
<g id="a_edge42_Node000001_Node000034"><a xlink:title=" ">
<path fill="none" stroke="#63b8ff" d="M1620.5,-257.2C1726.02,-249.88 1932.79,-234.66 2107.95,-216.5 2126.86,-214.54 2147.35,-212.09 2166.16,-209.72"/>
<polygon fill="#63b8ff" stroke="#63b8ff" points="2166.34,-213.22 2175.81,-208.48 2165.45,-206.28 2166.34,-213.22"/>
</a>
</g>
</g>
<!-- Node3 -->
<g id="Node000003" class="node">
<title>Node3</title>
<g id="a_Node000003"><a xlink:title=" ">
<polygon fill="#e0e0e0" stroke="#999999" points="196.07,-20.75 129.82,-20.75 129.82,0 196.07,0 196.07,-20.75"/>
<text text-anchor="middle" x="162.95" y="-7.25" font-family="Helvetica,sans-Serif" font-size="10.00">mlir&#45;c/IR.h</text>
</a>
</g>
</g>
<!-- Node2&#45;&gt;Node3 -->
<g id="edge2_Node000002_Node000003" class="edge">
<title>Node2&#45;&gt;Node3</title>
<g id="a_edge2_Node000002_Node000003"><a xlink:title=" ">
<path fill="none" stroke="#63b8ff" d="M76.81,-190.41C50.55,-183.42 21.9,-170.59 5.95,-147 -2.4,-134.67 -1.15,-126.59 5.95,-113.5 30.29,-68.63 83.82,-40.38 121.59,-25.25"/>
<polygon fill="#63b8ff" stroke="#63b8ff" points="122.78,-28.54 130.86,-21.69 120.27,-22.01 122.78,-28.54"/>
</a>
</g>
</g>
<!-- Node4 -->
<g id="Node000004" class="node">
<title>Node4</title>
<g id="a_Node000004"><a xlink:href="LLZK_2IR_2Attrs_8capi_8h_8inc.html" target="_top" xlink:title=" ">
<polygon fill="white" stroke="#666666" points="125.2,-147 14.7,-147 14.7,-113.5 125.2,-113.5 125.2,-147"/>
<text text-anchor="start" x="22.7" y="-133.5" font-family="Helvetica,sans-Serif" font-size="10.00">llzk/Dialect/LLZK/IR</text>
<text text-anchor="middle" x="69.95" y="-120.75" font-family="Helvetica,sans-Serif" font-size="10.00">/Attrs.capi.h.inc</text>
</a>
</g>
</g>
<!-- Node2&#45;&gt;Node4 -->
<g id="edge3_Node000002_Node000004" class="edge">
<title>Node2&#45;&gt;Node4</title>
<g id="a_edge3_Node000002_Node000004"><a xlink:title=" ">
<path fill="none" stroke="#63b8ff" d="M125.63,-189.08C117.21,-180.34 104.47,-167.1 93.29,-155.49"/>
<polygon fill="#63b8ff" stroke="#63b8ff" points="96.02,-153.28 86.57,-148.51 90.98,-158.14 96.02,-153.28"/>
</a>
</g>
</g>
<!-- Node7 -->
<g id="Node000007" class="node">
<title>Node7</title>
<g id="a_Node000007"><a xlink:href="LLZK_2IR_2Ops_8capi_8h_8inc.html" target="_top" xlink:title=" ">
<polygon fill="white" stroke="#666666" points="254.2,-147 143.7,-147 143.7,-113.5 254.2,-113.5 254.2,-147"/>
<text text-anchor="start" x="151.7" y="-133.5" font-family="Helvetica,sans-Serif" font-size="10.00">llzk/Dialect/LLZK/IR</text>
<text text-anchor="middle" x="198.95" y="-120.75" font-family="Helvetica,sans-Serif" font-size="10.00">/Ops.capi.h.inc</text>
</a>
</g>
</g>
<!-- Node2&#45;&gt;Node7 -->
<g id="edge8_Node000002_Node000007" class="edge">
<title>Node2&#45;&gt;Node7</title>
<g id="a_edge8_Node000002_Node000007"><a xlink:title=" ">
<path fill="none" stroke="#63b8ff" d="M144.11,-189.08C152.4,-180.34 164.96,-167.1 175.96,-155.49"/>
<polygon fill="#63b8ff" stroke="#63b8ff" points="178.23,-158.18 182.57,-148.52 173.15,-153.37 178.23,-158.18"/>
</a>
</g>
</g>
<!-- Node4&#45;&gt;Node3 -->
<g id="edge7_Node000004_Node000003" class="edge">
<title>Node4&#45;&gt;Node3</title>
<g id="a_edge7_Node000004_Node000003"><a xlink:title=" ">
<path fill="none" stroke="#63b8ff" d="M82.49,-113.35C99.58,-91.69 130.13,-52.96 148.27,-29.98"/>
<polygon fill="#63b8ff" stroke="#63b8ff" points="150.82,-32.39 154.27,-22.37 145.33,-28.05 150.82,-32.39"/>
</a>
</g>
</g>
<!-- Node5 -->
<g id="Node000005" class="node">
<title>Node5</title>
<g id="a_Node000005"><a xlink:href="llzk-c_2Builder_8h.html" target="_top" xlink:title=" ">
<polygon fill="white" stroke="#666666" points="242.95,-77.5 154.95,-77.5 154.95,-56.75 242.95,-56.75 242.95,-77.5"/>
<text text-anchor="middle" x="198.95" y="-64" font-family="Helvetica,sans-Serif" font-size="10.00">llzk&#45;c/Builder.h</text>
</a>
</g>
</g>
<!-- Node4&#45;&gt;Node5 -->
<g id="edge4_Node000004_Node000005" class="edge">
<title>Node4&#45;&gt;Node5</title>
<g id="a_edge4_Node000004_Node000005"><a xlink:title=" ">
<path fill="none" stroke="#63b8ff" d="M104.18,-113.03C123.99,-103.64 148.72,-91.92 167.95,-82.81"/>
<polygon fill="#63b8ff" stroke="#63b8ff" points="169.38,-86.01 176.92,-78.56 166.38,-79.68 169.38,-86.01"/>
</a>
</g>
</g>
<!-- Node5&#45;&gt;Node3 -->
<g id="edge5_Node000005_Node000003" class="edge">
<title>Node5&#45;&gt;Node3</title>
<g id="a_edge5_Node000005_Node000003"><a xlink:title=" ">
<path fill="none" stroke="#63b8ff" d="M192.51,-56.34C187.8,-49.17 181.26,-39.23 175.53,-30.51"/>
<polygon fill="#63b8ff" stroke="#63b8ff" points="178.58,-28.78 170.16,-22.34 172.73,-32.62 178.58,-28.78"/>
</a>
</g>
</g>
<!-- Node6 -->
<g id="Node000006" class="node">
<title>Node6</title>
<g id="a_Node000006"><a xlink:title=" ">
<polygon fill="#e0e0e0" stroke="#999999" points="361.95,-20.75 267.95,-20.75 267.95,0 361.95,0 361.95,-20.75"/>
<text text-anchor="middle" x="314.95" y="-7.25" font-family="Helvetica,sans-Serif" font-size="10.00">mlir&#45;c/Support.h</text>
</a>
</g>
</g>
<!-- Node5&#45;&gt;Node6 -->
<g id="edge6_Node000005_Node000006" class="edge">
<title>Node5&#45;&gt;Node6</title>
<g id="a_edge6_Node000005_Node000006"><a xlink:title=" ">
<path fill="none" stroke="#63b8ff" d="M219.68,-56.34C237.58,-47.89 263.69,-35.57 284.05,-25.96"/>
<polygon fill="#63b8ff" stroke="#63b8ff" points="285.47,-29.16 293.02,-21.72 282.48,-22.83 285.47,-29.16"/>
</a>
</g>
</g>
<!-- Node7&#45;&gt;Node3 -->
<g id="edge10_Node000007_Node000003" class="edge">
<title>Node7&#45;&gt;Node3</title>
<g id="a_edge10_Node000007_Node000003"><a xlink:title=" ">
<path fill="none" stroke="#63b8ff" d="M175.31,-113.22C164.16,-104.19 151.99,-91.84 145.95,-77.5 139.62,-62.48 144.99,-44.52 151.32,-31.11"/>
<polygon fill="#63b8ff" stroke="#63b8ff" points="154.34,-32.89 155.92,-22.42 148.15,-29.62 154.34,-32.89"/>
</a>
</g>
</g>
<!-- Node7&#45;&gt;Node5 -->
<g id="edge9_Node000007_Node000005" class="edge">
<title>Node7&#45;&gt;Node5</title>
<g id="a_edge9_Node000007_Node000005"><a xlink:title=" ">
<path fill="none" stroke="#63b8ff" d="M198.95,-113.19C198.95,-105.85 198.95,-97.07 198.95,-89.21"/>
<polygon fill="#63b8ff" stroke="#63b8ff" points="202.45,-89.48 198.95,-79.48 195.45,-89.48 202.45,-89.48"/>
</a>
</g>
</g>
<!-- Node8&#45;&gt;Node3 -->
<g id="edge22_Node000008_Node000003" class="edge">
<title>Node8&#45;&gt;Node3</title>
<g id="a_edge22_Node000008_Node000003"><a xlink:title=" ">
<path fill="none" stroke="#63b8ff" d="M587.56,-195.8C504.98,-190.42 352.84,-176.71 307.95,-147 268.58,-120.95 286.69,-88.7 251.95,-56.75 237.6,-43.56 218.69,-33.2 202,-25.74"/>
<polygon fill="#63b8ff" stroke="#63b8ff" points="203.39,-22.52 192.81,-21.84 200.65,-28.97 203.39,-22.52"/>
</a>
</g>
</g>
<!-- Node9 -->
<g id="Node000009" class="node">
<title>Node9</title>
<g id="a_Node000009"><a xlink:href="llzk-c_2Support_8h.html" target="_top" xlink:title=" ">
<polygon fill="white" stroke="#666666" points="408.82,-140.62 317.07,-140.62 317.07,-119.88 408.82,-119.88 408.82,-140.62"/>
<text text-anchor="middle" x="362.95" y="-127.12" font-family="Helvetica,sans-Serif" font-size="10.00">llzk&#45;c/Support.h</text>
</a>
</g>
</g>
<!-- Node8&#45;&gt;Node9 -->
<g id="edge12_Node000008_Node000009" class="edge">
<title>Node8&#45;&gt;Node9</title>
<g id="a_edge12_Node000008_Node000009"><a xlink:title=" ">
<path fill="none" stroke="#63b8ff" d="M601.38,-188.93C551.99,-176.99 468.53,-156.79 414.6,-143.75"/>
<polygon fill="#63b8ff" stroke="#63b8ff" points="415.58,-140.38 405.03,-141.43 413.93,-147.19 415.58,-140.38"/>
</a>
</g>
</g>
<!-- Node11 -->
<g id="Node000011" class="node">
<title>Node11</title>
<g id="a_Node000011"><a xlink:href="AttributeHelper_8h.html" target="_top" xlink:title=" ">
<polygon fill="white" stroke="#666666" points="551.2,-147 440.7,-147 440.7,-113.5 551.2,-113.5 551.2,-147"/>
<text text-anchor="start" x="448.7" y="-133.5" font-family="Helvetica,sans-Serif" font-size="10.00">llzk/Dialect/LLZK/IR</text>
<text text-anchor="middle" x="495.95" y="-120.75" font-family="Helvetica,sans-Serif" font-size="10.00">/AttributeHelper.h</text>
</a>
</g>
</g>
<!-- Node8&#45;&gt;Node11 -->
<g id="edge17_Node000008_Node000011" class="edge">
<title>Node8&#45;&gt;Node11</title>
<g id="a_edge17_Node000008_Node000011"><a xlink:title=" ">
<path fill="none" stroke="#63b8ff" d="M620.72,-188.93C599.98,-179.35 567.76,-164.45 541.26,-152.2"/>
<polygon fill="#63b8ff" stroke="#63b8ff" points="542.97,-149.13 532.42,-148.11 540.03,-155.49 542.97,-149.13"/>
</a>
</g>
</g>
<!-- Node16 -->
<g id="Node000016" class="node">
<title>Node16</title>
<g id="a_Node000016"><a xlink:title=" ">
<polygon fill="#e0e0e0" stroke="#999999" points="951.32,-140.62 868.57,-140.62 868.57,-119.88 951.32,-119.88 951.32,-140.62"/>
<text text-anchor="middle" x="909.95" y="-127.12" font-family="Helvetica,sans-Serif" font-size="10.00">mlir/CAPI/IR.h</text>
</a>
</g>
</g>
<!-- Node8&#45;&gt;Node16 -->
<g id="edge23_Node000008_Node000016" class="edge">
<title>Node8&#45;&gt;Node16</title>
<g id="a_edge23_Node000008_Node000016"><a xlink:title=" ">
<path fill="none" stroke="#63b8ff" d="M687.7,-188.9C731.98,-179.12 800.88,-163.29 859.95,-147 862.89,-146.19 865.92,-145.32 868.96,-144.42"/>
<polygon fill="#63b8ff" stroke="#63b8ff" points="869.91,-147.79 878.46,-141.54 867.87,-141.09 869.91,-147.79"/>
</a>
</g>
</g>
<!-- Node17 -->
<g id="Node000017" class="node">
<title>Node17</title>
<g id="a_Node000017"><a xlink:title=" ">
<polygon fill="#e0e0e0" stroke="#999999" points="714.82,-140.62 569.07,-140.62 569.07,-119.88 714.82,-119.88 714.82,-140.62"/>
<text text-anchor="middle" x="641.95" y="-127.12" font-family="Helvetica,sans-Serif" font-size="10.00">mlir/IR/OperationSupport.h</text>
</a>
</g>
</g>
<!-- Node8&#45;&gt;Node17 -->
<g id="edge24_Node000008_Node000017" class="edge">
<title>Node8&#45;&gt;Node17</title>
<g id="a_edge24_Node000008_Node000017"><a xlink:title=" ">
<path fill="none" stroke="#63b8ff" d="M641.95,-189.08C641.95,-179.46 641.95,-164.38 641.95,-152.04"/>
<polygon fill="#63b8ff" stroke="#63b8ff" points="645.45,-152.42 641.95,-142.42 638.45,-152.42 645.45,-152.42"/>
</a>
</g>
</g>
<!-- Node18 -->
<g id="Node000018" class="node">
<title>Node18</title>
<g id="a_Node000018"><a xlink:title=" ">
<polygon fill="#e0e0e0" stroke="#999999" points="850.95,-140.62 732.95,-140.62 732.95,-119.88 850.95,-119.88 850.95,-140.62"/>
<text text-anchor="middle" x="791.95" y="-127.12" font-family="Helvetica,sans-Serif" font-size="10.00">mlir/IR/ValueRange.h</text>
</a>
</g>
</g>
<!-- Node8&#45;&gt;Node18 -->
<g id="edge25_Node000008_Node000018" class="edge">
<title>Node8&#45;&gt;Node18</title>
<g id="a_edge25_Node000008_Node000018"><a xlink:title=" ">
<path fill="none" stroke="#63b8ff" d="M663.76,-188.93C688.97,-177.59 730.72,-158.8 759.69,-145.76"/>
<polygon fill="#63b8ff" stroke="#63b8ff" points="761.04,-148.99 768.73,-141.7 758.17,-142.61 761.04,-148.99"/>
</a>
</g>
</g>
<!-- Node9&#45;&gt;Node3 -->
<g id="edge14_Node000009_Node000003" class="edge">
<title>Node9&#45;&gt;Node3</title>
<g id="a_edge14_Node000009_Node000003"><a xlink:title=" ">
<path fill="none" stroke="#63b8ff" d="M354.78,-119.51C341.53,-104.25 313.9,-74.6 284.95,-56.75 260.95,-41.96 231.37,-30.81 207.35,-23.26"/>
<polygon fill="#63b8ff" stroke="#63b8ff" points="208.43,-19.93 197.85,-20.39 206.4,-26.63 208.43,-19.93"/>
</a>
</g>
</g>
<!-- Node9&#45;&gt;Node5 -->
<g id="edge13_Node000009_Node000005" class="edge">
<title>Node9&#45;&gt;Node5</title>
<g id="a_edge13_Node000009_Node000005"><a xlink:title=" ">
<path fill="none" stroke="#63b8ff" d="M336.6,-119.43C309.34,-109.27 266.55,-93.32 235.91,-81.9"/>
<polygon fill="#63b8ff" stroke="#63b8ff" points="237.24,-78.66 226.65,-78.45 234.8,-85.22 237.24,-78.66"/>
</a>
</g>
</g>
<!-- Node9&#45;&gt;Node6 -->
<g id="edge15_Node000009_Node000006" class="edge">
<title>Node9&#45;&gt;Node6</title>
<g id="a_edge15_Node000009_Node000006"><a xlink:title=" ">
<path fill="none" stroke="#63b8ff" d="M373.76,-119.6C388.26,-105.44 410.78,-78.39 397.95,-56.75 389.59,-42.66 375.14,-32.65 360.61,-25.7"/>
<polygon fill="#63b8ff" stroke="#63b8ff" points="362.06,-22.51 351.49,-21.76 359.28,-28.94 362.06,-22.51"/>
</a>
</g>
</g>
<!-- Node10 -->
<g id="Node000010" class="node">
<title>Node10</title>
<g id="a_Node000010"><a xlink:title=" ">
<polygon fill="#e0e0e0" stroke="#999999" points="389.32,-77.5 336.57,-77.5 336.57,-56.75 389.32,-56.75 389.32,-77.5"/>
<text text-anchor="middle" x="362.95" y="-64" font-family="Helvetica,sans-Serif" font-size="10.00">stdint.h</text>
</a>
</g>
</g>
<!-- Node9&#45;&gt;Node10 -->
<g id="edge16_Node000009_Node000010" class="edge">
<title>Node9&#45;&gt;Node10</title>
<g id="a_edge16_Node000009_Node000010"><a xlink:title=" ">
<path fill="none" stroke="#63b8ff" d="M362.95,-119.43C362.95,-111.27 362.95,-99.38 362.95,-89.1"/>
<polygon fill="#63b8ff" stroke="#63b8ff" points="366.45,-89.23 362.95,-79.23 359.45,-89.23 366.45,-89.23"/>
</a>
</g>
</g>
<!-- Node12 -->
<g id="Node000012" class="node">
<title>Node12</title>
<g id="a_Node000012"><a xlink:href="StreamHelper_8h.html" target="_top" xlink:title=" ">
<polygon fill="white" stroke="#666666" points="577.07,-77.5 444.82,-77.5 444.82,-56.75 577.07,-56.75 577.07,-77.5"/>
<text text-anchor="middle" x="510.95" y="-64" font-family="Helvetica,sans-Serif" font-size="10.00">llzk/Util/StreamHelper.h</text>
</a>
</g>
</g>
<!-- Node11&#45;&gt;Node12 -->
<g id="edge18_Node000011_Node000012" class="edge">
<title>Node11&#45;&gt;Node12</title>
<g id="a_edge18_Node000011_Node000012"><a xlink:title=" ">
<path fill="none" stroke="#63b8ff" d="M499.89,-113.19C501.71,-105.77 503.89,-96.86 505.84,-88.93"/>
<polygon fill="#63b8ff" stroke="#63b8ff" points="509.19,-89.98 508.17,-79.44 502.39,-88.31 509.19,-89.98"/>
</a>
</g>
</g>
<!-- Node14 -->
<g id="Node000014" class="node">
<title>Node14</title>
<g id="a_Node000014"><a xlink:title=" ">
<polygon fill="#e0e0e0" stroke="#999999" points="768.32,-77.5 595.57,-77.5 595.57,-56.75 768.32,-56.75 768.32,-77.5"/>
<text text-anchor="middle" x="681.95" y="-64" font-family="Helvetica,sans-Serif" font-size="10.00">mlir/IR/DialectImplementation.h</text>
</a>
</g>
</g>
<!-- Node11&#45;&gt;Node14 -->
<g id="edge20_Node000011_Node000014" class="edge">
<title>Node11&#45;&gt;Node14</title>
<g id="a_edge20_Node000011_Node000014"><a xlink:title=" ">
<path fill="none" stroke="#63b8ff" d="M545.3,-113.03C575.33,-103.16 613.2,-90.72 641.45,-81.43"/>
<polygon fill="#63b8ff" stroke="#63b8ff" points="642.31,-84.83 650.72,-78.39 640.12,-78.18 642.31,-84.83"/>
</a>
</g>
</g>
<!-- Node15 -->
<g id="Node000015" class="node">
<title>Node15</title>
<g id="a_Node000015"><a xlink:title=" ">
<polygon fill="#e0e0e0" stroke="#999999" points="885.2,-77.5 786.7,-77.5 786.7,-56.75 885.2,-56.75 885.2,-77.5"/>
<text text-anchor="middle" x="835.95" y="-64" font-family="Helvetica,sans-Serif" font-size="10.00">llvm/ADT/APInt.h</text>
</a>
</g>
</g>
<!-- Node11&#45;&gt;Node15 -->
<g id="edge21_Node000011_Node000015" class="edge">
<title>Node11&#45;&gt;Node15</title>
<g id="a_edge21_Node000011_Node000015"><a xlink:title=" ">
<path fill="none" stroke="#63b8ff" d="M551.39,-115.32C554.28,-114.69 557.14,-114.07 559.95,-113.5 580.62,-109.26 700.47,-89.86 775.28,-77.84"/>
<polygon fill="#63b8ff" stroke="#63b8ff" points="775.61,-81.33 784.93,-76.29 774.5,-74.42 775.61,-81.33"/>
</a>
</g>
</g>
<!-- Node13 -->
<g id="Node000013" class="node">
<title>Node13</title>
<g id="a_Node000013"><a xlink:title=" ">
<polygon fill="#e0e0e0" stroke="#999999" points="587.95,-20.75 433.95,-20.75 433.95,0 587.95,0 587.95,-20.75"/>
<text text-anchor="middle" x="510.95" y="-7.25" font-family="Helvetica,sans-Serif" font-size="10.00">llvm/Support/raw_ostream.h</text>
</a>
</g>
</g>
<!-- Node12&#45;&gt;Node13 -->
<g id="edge19_Node000012_Node000013" class="edge">
<title>Node12&#45;&gt;Node13</title>
<g id="a_edge19_Node000012_Node000013"><a xlink:title=" ">
<path fill="none" stroke="#63b8ff" d="M510.95,-56.34C510.95,-49.72 510.95,-40.72 510.95,-32.52"/>
<polygon fill="#63b8ff" stroke="#63b8ff" points="514.45,-32.59 510.95,-22.59 507.45,-32.59 514.45,-32.59"/>
</a>
</g>
</g>
<!-- Node20 -->
<g id="Node000020" class="node">
<title>Node20</title>
<g id="a_Node000020"><a xlink:title=" ">
<polygon fill="#e0e0e0" stroke="#999999" points="1414.07,-140.62 1305.82,-140.62 1305.82,-119.88 1414.07,-119.88 1414.07,-140.62"/>
<text text-anchor="middle" x="1359.95" y="-127.12" font-family="Helvetica,sans-Serif" font-size="10.00">mlir/IR/Attributes.h</text>
</a>
</g>
</g>
<!-- Node19&#45;&gt;Node20 -->
<g id="edge27_Node000019_Node000020" class="edge">
<title>Node19&#45;&gt;Node20</title>
<g id="a_edge27_Node000019_Node000020"><a xlink:title=" ">
<path fill="none" stroke="#63b8ff" d="M1456.53,-182.58C1435.78,-171.56 1408.5,-157.05 1388.22,-146.28"/>
<polygon fill="#63b8ff" stroke="#63b8ff" points="1390.14,-143.33 1379.67,-141.73 1386.85,-149.52 1390.14,-143.33"/>
</a>
</g>
</g>
<!-- Node21 -->
<g id="Node000021" class="node">
<title>Node21</title>
<g id="a_Node000021"><a xlink:href="LLZK_2IR_2Attrs_8h_8inc.html" target="_top" xlink:title=" ">
<polygon fill="white" stroke="#666666" points="1542.2,-147 1431.7,-147 1431.7,-113.5 1542.2,-113.5 1542.2,-147"/>
<text text-anchor="start" x="1439.7" y="-133.5" font-family="Helvetica,sans-Serif" font-size="10.00">llzk/Dialect/LLZK/IR</text>
<text text-anchor="middle" x="1486.95" y="-120.75" font-family="Helvetica,sans-Serif" font-size="10.00">/Attrs.h.inc</text>
</a>
</g>
</g>
<!-- Node19&#45;&gt;Node21 -->
<g id="edge28_Node000019_Node000021" class="edge">
<title>Node19&#45;&gt;Node21</title>
<g id="a_edge28_Node000019_Node000021"><a xlink:title=" ">
<path fill="none" stroke="#63b8ff" d="M1486.95,-182.75C1486.95,-175.52 1486.95,-166.78 1486.95,-158.56"/>
<polygon fill="#63b8ff" stroke="#63b8ff" points="1490.45,-158.65 1486.95,-148.65 1483.45,-158.65 1490.45,-158.65"/>
</a>
</g>
</g>
<!-- Node23 -->
<g id="Node000023" class="node">
<title>Node23</title>
<g id="a_Node000023"><a xlink:title=" ">
<polygon fill="#e0e0e0" stroke="#999999" points="1671.2,-140.62 1560.7,-140.62 1560.7,-119.88 1671.2,-119.88 1671.2,-140.62"/>
<text text-anchor="middle" x="1615.95" y="-127.12" font-family="Helvetica,sans-Serif" font-size="10.00">mlir/IR/BuiltinOps.h</text>
</a>
</g>
</g>
<!-- Node22&#45;&gt;Node23 -->
<g id="edge30_Node000022_Node000023" class="edge">
<title>Node22&#45;&gt;Node23</title>
<g id="a_edge30_Node000022_Node000023"><a xlink:title=" ">
<path fill="none" stroke="#63b8ff" d="M1615.95,-182.75C1615.95,-173.65 1615.95,-162.14 1615.95,-152.32"/>
<polygon fill="#63b8ff" stroke="#63b8ff" points="1619.45,-152.59 1615.95,-142.59 1612.45,-152.59 1619.45,-152.59"/>
</a>
</g>
</g>
<!-- Node24 -->
<g id="Node000024" class="node">
<title>Node24</title>
<g id="a_Node000024"><a xlink:href="LLZK_2IR_2Dialect_8h_8inc.html" target="_top" xlink:title=" ">
<polygon fill="white" stroke="#666666" points="1800.2,-147 1689.7,-147 1689.7,-113.5 1800.2,-113.5 1800.2,-147"/>
<text text-anchor="start" x="1697.7" y="-133.5" font-family="Helvetica,sans-Serif" font-size="10.00">llzk/Dialect/LLZK/IR</text>
<text text-anchor="middle" x="1744.95" y="-120.75" font-family="Helvetica,sans-Serif" font-size="10.00">/Dialect.h.inc</text>
</a>
</g>
</g>
<!-- Node22&#45;&gt;Node24 -->
<g id="edge31_Node000022_Node000024" class="edge">
<title>Node22&#45;&gt;Node24</title>
<g id="a_edge31_Node000022_Node000024"><a xlink:title=" ">
<path fill="none" stroke="#63b8ff" d="M1646.84,-182.58C1664.08,-173.57 1685.75,-162.23 1704.34,-152.5"/>
<polygon fill="#63b8ff" stroke="#63b8ff" points="1705.72,-155.73 1712.96,-147.99 1702.47,-149.52 1705.72,-155.73"/>
</a>
</g>
</g>
<!-- Node26 -->
<g id="Node000026" class="node">
<title>Node26</title>
<g id="a_Node000026"><a xlink:title=" ">
<polygon fill="#e0e0e0" stroke="#999999" points="1969.82,-140.62 1818.07,-140.62 1818.07,-119.88 1969.82,-119.88 1969.82,-140.62"/>
<text text-anchor="middle" x="1893.95" y="-127.12" font-family="Helvetica,sans-Serif" font-size="10.00">mlir/IR/OpImplementation.h</text>
</a>
</g>
</g>
<!-- Node25&#45;&gt;Node26 -->
<g id="edge33_Node000025_Node000026" class="edge">
<title>Node25&#45;&gt;Node26</title>
<g id="a_edge33_Node000025_Node000026"><a xlink:title=" ">
<path fill="none" stroke="#63b8ff" d="M1893.95,-182.75C1893.95,-173.65 1893.95,-162.14 1893.95,-152.32"/>
<polygon fill="#63b8ff" stroke="#63b8ff" points="1897.45,-152.59 1893.95,-142.59 1890.45,-152.59 1897.45,-152.59"/>
</a>
</g>
</g>
<!-- Node27 -->
<g id="Node000027" class="node">
<title>Node27</title>
<g id="a_Node000027"><a xlink:title=" ">
<polygon fill="#e0e0e0" stroke="#999999" points="2126.45,-147 1987.45,-147 1987.45,-113.5 2126.45,-113.5 2126.45,-147"/>
<text text-anchor="start" x="1995.45" y="-133.5" font-family="Helvetica,sans-Serif" font-size="10.00">mlir/Interfaces/SideEffect</text>
<text text-anchor="middle" x="2056.95" y="-120.75" font-family="Helvetica,sans-Serif" font-size="10.00">Interfaces.h</text>
</a>
</g>
</g>
<!-- Node25&#45;&gt;Node27 -->
<g id="edge34_Node000025_Node000027" class="edge">
<title>Node25&#45;&gt;Node27</title>
<g id="a_edge34_Node000025_Node000027"><a xlink:title=" ">
<path fill="none" stroke="#63b8ff" d="M1932.99,-182.58C1955.29,-173.35 1983.46,-161.68 2007.32,-151.8"/>
<polygon fill="#63b8ff" stroke="#63b8ff" points="2008.64,-155.04 2016.54,-147.98 2005.96,-148.57 2008.64,-155.04"/>
</a>
</g>
</g>
<!-- Node28 -->
<g id="Node000028" class="node">
<title>Node28</title>
<g id="a_Node000028"><a xlink:href="LLZK_2IR_2Ops_8h_8inc.html" target="_top" xlink:title=" ">
<polygon fill="white" stroke="#666666" points="2255.2,-147 2144.7,-147 2144.7,-113.5 2255.2,-113.5 2255.2,-147"/>
<text text-anchor="start" x="2152.7" y="-133.5" font-family="Helvetica,sans-Serif" font-size="10.00">llzk/Dialect/LLZK/IR</text>
<text text-anchor="middle" x="2199.95" y="-120.75" font-family="Helvetica,sans-Serif" font-size="10.00">/Ops.h.inc</text>
</a>
</g>
</g>
<!-- Node25&#45;&gt;Node28 -->
<g id="edge35_Node000025_Node000028" class="edge">
<title>Node25&#45;&gt;Node28</title>
<g id="a_edge35_Node000025_Node000028"><a xlink:title=" ">
<path fill="none" stroke="#63b8ff" d="M1949.41,-184.95C1952.3,-184.28 1955.15,-183.63 1957.95,-183 2033.32,-166.11 2055.32,-164.74 2133.58,-147.48"/>
<polygon fill="#63b8ff" stroke="#63b8ff" points="2134,-150.97 2143,-145.38 2132.48,-144.14 2134,-150.97"/>
</a>
</g>
</g>
<!-- Node30&#45;&gt;Node16 -->
<g id="edge38_Node000030_Node000016" class="edge">
<title>Node30&#45;&gt;Node16</title>
<g id="a_edge38_Node000030_Node000016"><a xlink:title=" ">
<path fill="none" stroke="#63b8ff" d="M1106.3,-185.18C1065.84,-175.13 1009.83,-160.83 960.95,-147 958,-146.17 954.96,-145.28 951.9,-144.38"/>
<polygon fill="#63b8ff" stroke="#63b8ff" points="952.92,-141.03 942.34,-141.5 950.91,-147.74 952.92,-141.03"/>
</a>
</g>
</g>
<!-- Node31 -->
<g id="Node000031" class="node">
<title>Node31</title>
<g id="a_Node000031"><a xlink:title=" ">
<polygon fill="#e0e0e0" stroke="#999999" points="1080.2,-140.62 969.7,-140.62 969.7,-119.88 1080.2,-119.88 1080.2,-140.62"/>
<text text-anchor="middle" x="1024.95" y="-127.12" font-family="Helvetica,sans-Serif" font-size="10.00">mlir/CAPI/Support.h</text>
</a>
</g>
</g>
<!-- Node30&#45;&gt;Node31 -->
<g id="edge39_Node000030_Node000031" class="edge">
<title>Node30&#45;&gt;Node31</title>
<g id="a_edge39_Node000030_Node000031"><a xlink:title=" ">
<path fill="none" stroke="#63b8ff" d="M1129.13,-182.58C1106.54,-171.45 1076.78,-156.79 1054.85,-145.98"/>
<polygon fill="#63b8ff" stroke="#63b8ff" points="1056.65,-142.97 1046.13,-141.69 1053.56,-149.25 1056.65,-142.97"/>
</a>
</g>
</g>
<!-- Node32 -->
<g id="Node000032" class="node">
<title>Node32</title>
<g id="a_Node000032"><a xlink:title=" ">
<polygon fill="#e0e0e0" stroke="#999999" points="1225.82,-140.62 1098.07,-140.62 1098.07,-119.88 1225.82,-119.88 1225.82,-140.62"/>
<text text-anchor="middle" x="1161.95" y="-127.12" font-family="Helvetica,sans-Serif" font-size="10.00">llvm/ADT/TypeSwitch.h</text>
</a>
</g>
</g>
<!-- Node30&#45;&gt;Node32 -->
<g id="edge40_Node000030_Node000032" class="edge">
<title>Node30&#45;&gt;Node32</title>
<g id="a_edge40_Node000030_Node000032"><a xlink:title=" ">
<path fill="none" stroke="#63b8ff" d="M1161.95,-182.75C1161.95,-173.65 1161.95,-162.14 1161.95,-152.32"/>
<polygon fill="#63b8ff" stroke="#63b8ff" points="1165.45,-152.59 1161.95,-142.59 1158.45,-152.59 1165.45,-152.59"/>
</a>
</g>
</g>
<!-- Node33 -->
<g id="Node000033" class="node">
<title>Node33</title>
<g id="a_Node000033"><a xlink:title=" ">
<polygon fill="#e0e0e0" stroke="#999999" points="1288.2,-140.62 1243.7,-140.62 1243.7,-119.88 1288.2,-119.88 1288.2,-140.62"/>
<text text-anchor="middle" x="1265.95" y="-127.12" font-family="Helvetica,sans-Serif" font-size="10.00">utility</text>
</a>
</g>
</g>
<!-- Node30&#45;&gt;Node33 -->
<g id="edge41_Node000030_Node000033" class="edge">
<title>Node30&#45;&gt;Node33</title>
<g id="a_edge41_Node000030_Node000033"><a xlink:title=" ">
<path fill="none" stroke="#63b8ff" d="M1186.86,-182.58C1203.38,-171.86 1224.96,-157.85 1241.41,-147.18"/>
<polygon fill="#63b8ff" stroke="#63b8ff" points="1243.14,-150.23 1249.62,-141.85 1239.33,-144.35 1243.14,-150.23"/>
</a>
</g>
</g>
<!-- Node35 -->
<g id="Node000035" class="node">
<title>Node35</title>
<g id="a_Node000035"><a xlink:title=" ">
<polygon fill="#e0e0e0" stroke="#999999" points="2316.82,-140.62 2273.07,-140.62 2273.07,-119.88 2316.82,-119.88 2316.82,-140.62"/>
<text text-anchor="middle" x="2294.95" y="-127.12" font-family="Helvetica,sans-Serif" font-size="10.00">limits</text>
</a>
</g>
</g>
<!-- Node34&#45;&gt;Node35 -->
<g id="edge43_Node000034_Node000035" class="edge">
<title>Node34&#45;&gt;Node35</title>
<g id="a_edge43_Node000034_Node000035"><a xlink:title=" ">
<path fill="none" stroke="#63b8ff" d="M2247.64,-182.75C2256.83,-172.74 2268.7,-159.82 2278.25,-149.42"/>
<polygon fill="#63b8ff" stroke="#63b8ff" points="2280.71,-151.92 2284.9,-142.19 2275.56,-147.18 2280.71,-151.92"/>
</a>
</g>
</g>
</g>
</svg>
