<?xml version="1.0" encoding="UTF-8" standalone="no"?>
<!DOCTYPE svg PUBLIC "-//W3C//DTD SVG 1.1//EN"
 "http://www.w3.org/Graphics/SVG/1.1/DTD/svg11.dtd">
<!-- Generated by graphviz version 12.2.1 (0)
 -->
<!-- Title: include/llzk/CAPI/Builder.h Pages: 1 -->
<svg width="1070pt" height="86pt"
 viewBox="0.00 0.00 1069.62 85.50" xmlns="http://www.w3.org/2000/svg" xmlns:xlink="http://www.w3.org/1999/xlink">
<g id="graph0" class="graph" transform="scale(1 1) rotate(0) translate(4 81.5)">
<title>include/llzk/CAPI/Builder.h</title>
<!-- Node1 -->
<g id="Node000001" class="node">
<title>Node1</title>
<g id="a_Node000001"><a xlink:title=" ">
<polygon fill="#999999" stroke="#666666" points="589.62,-77.5 446.88,-77.5 446.88,-56.75 589.62,-56.75 589.62,-77.5"/>
<text text-anchor="middle" x="518.25" y="-64" font-family="Helvetica,sans-Serif" font-size="10.00">include/llzk/CAPI/Builder.h</text>
</a>
</g>
</g>
<!-- Node2 -->
<g id="Node000002" class="node">
<title>Node2</title>
<g id="a_Node000002"><a xlink:href="Builder_8cpp.html" target="_top" xlink:title=" ">
<polygon fill="white" stroke="#666666" points="110.5,-20.75 0,-20.75 0,0 110.5,0 110.5,-20.75"/>
<text text-anchor="middle" x="55.25" y="-7.25" font-family="Helvetica,sans-Serif" font-size="10.00">lib/CAPI/Builder.cpp</text>
</a>
</g>
</g>
<!-- Node1&#45;&gt;Node2 -->
<g id="edge1_Node000001_Node000002" class="edge">
<title>Node1&#45;&gt;Node2</title>
<g id="a_edge1_Node000001_Node000002"><a xlink:title=" ">
<path fill="none" stroke="#63b8ff" d="M435.36,-57.49C354.59,-48.88 228.36,-34.94 119.25,-20.75 116.47,-20.39 113.62,-20.01 110.74,-19.61"/>
<polygon fill="#63b8ff" stroke="#63b8ff" points="434.63,-60.93 444.94,-58.5 435.37,-53.97 434.63,-60.93"/>
</a>
</g>
</g>
<!-- Node3 -->
<g id="Node000003" class="node">
<title>Node3</title>
<g id="a_Node000003"><a xlink:href="Array_8cpp.html" target="_top" xlink:title=" ">
<polygon fill="white" stroke="#666666" points="267.75,-20.75 128.75,-20.75 128.75,0 267.75,0 267.75,-20.75"/>
<text text-anchor="middle" x="198.25" y="-7.25" font-family="Helvetica,sans-Serif" font-size="10.00">lib/CAPI/Dialect/Array.cpp</text>
</a>
</g>
</g>
<!-- Node1&#45;&gt;Node3 -->
<g id="edge2_Node000001_Node000003" class="edge">
<title>Node1&#45;&gt;Node3</title>
<g id="a_edge2_Node000001_Node000003"><a xlink:title=" ">
<path fill="none" stroke="#63b8ff" d="M449.46,-54.36C391.74,-44.48 310.25,-30.54 255.91,-21.24"/>
<polygon fill="#63b8ff" stroke="#63b8ff" points="448.73,-57.78 459.18,-56.02 449.91,-50.88 448.73,-57.78"/>
</a>
</g>
</g>
<!-- Node4 -->
<g id="Node000004" class="node">
<title>Node4</title>
<g id="a_Node000004"><a xlink:href="Cast_8cpp.html" target="_top" xlink:title=" ">
<polygon fill="white" stroke="#666666" points="422.25,-20.75 286.25,-20.75 286.25,0 422.25,0 422.25,-20.75"/>
<text text-anchor="middle" x="354.25" y="-7.25" font-family="Helvetica,sans-Serif" font-size="10.00">lib/CAPI/Dialect/Cast.cpp</text>
</a>
</g>
</g>
<!-- Node1&#45;&gt;Node4 -->
<g id="edge3_Node000001_Node000004" class="edge">
<title>Node1&#45;&gt;Node4</title>
<g id="a_edge3_Node000001_Node000004"><a xlink:title=" ">
<path fill="none" stroke="#63b8ff" d="M478.25,-52.77C449,-43.01 409.99,-29.98 383.59,-21.17"/>
<polygon fill="#63b8ff" stroke="#63b8ff" points="476.9,-56.01 487.49,-55.86 479.12,-49.37 476.9,-56.01"/>
</a>
</g>
</g>
<!-- Node5 -->
<g id="Node000005" class="node">
<title>Node5</title>
<g id="a_Node000005"><a xlink:href="Function_8cpp.html" target="_top" xlink:title=" ">
<polygon fill="white" stroke="#666666" points="596,-20.75 440.5,-20.75 440.5,0 596,0 596,-20.75"/>
<text text-anchor="middle" x="518.25" y="-7.25" font-family="Helvetica,sans-Serif" font-size="10.00">lib/CAPI/Dialect/Function.cpp</text>
</a>
</g>
</g>
<!-- Node1&#45;&gt;Node5 -->
<g id="edge4_Node000001_Node000005" class="edge">
<title>Node1&#45;&gt;Node5</title>
<g id="a_edge4_Node000001_Node000005"><a xlink:title=" ">
<path fill="none" stroke="#63b8ff" d="M518.25,-44.88C518.25,-36.66 518.25,-27.68 518.25,-21.08"/>
<polygon fill="#63b8ff" stroke="#63b8ff" points="514.75,-44.82 518.25,-54.82 521.75,-44.82 514.75,-44.82"/>
</a>
</g>
</g>
<!-- Node6 -->
<g id="Node000006" class="node">
<title>Node6</title>
<g id="a_Node000006"><a xlink:href="POD_8cpp.html" target="_top" xlink:title=" ">
<polygon fill="white" stroke="#666666" points="748.88,-20.75 613.62,-20.75 613.62,0 748.88,0 748.88,-20.75"/>
<text text-anchor="middle" x="681.25" y="-7.25" font-family="Helvetica,sans-Serif" font-size="10.00">lib/CAPI/Dialect/POD.cpp</text>
</a>
</g>
</g>
<!-- Node1&#45;&gt;Node6 -->
<g id="edge5_Node000001_Node000006" class="edge">
<title>Node1&#45;&gt;Node6</title>
<g id="a_edge5_Node000001_Node000006"><a xlink:title=" ">
<path fill="none" stroke="#63b8ff" d="M558.01,-52.77C587.08,-43.01 625.85,-29.98 652.09,-21.17"/>
<polygon fill="#63b8ff" stroke="#63b8ff" points="557.19,-49.35 548.83,-55.85 559.42,-55.99 557.19,-49.35"/>
</a>
</g>
</g>
<!-- Node7 -->
<g id="Node000007" class="node">
<title>Node7</title>
<g id="a_Node000007"><a xlink:href="Poly_8cpp.html" target="_top" xlink:title=" ">
<polygon fill="white" stroke="#666666" points="901.12,-20.75 767.38,-20.75 767.38,0 901.12,0 901.12,-20.75"/>
<text text-anchor="middle" x="834.25" y="-7.25" font-family="Helvetica,sans-Serif" font-size="10.00">lib/CAPI/Dialect/Poly.cpp</text>
</a>
</g>
</g>
<!-- Node1&#45;&gt;Node7 -->
<g id="edge6_Node000001_Node000007" class="edge">
<title>Node1&#45;&gt;Node7</title>
<g id="a_edge6_Node000001_Node000007"><a xlink:title=" ">
<path fill="none" stroke="#63b8ff" d="M586.18,-54.36C643.18,-44.48 723.65,-30.54 777.31,-21.24"/>
<polygon fill="#63b8ff" stroke="#63b8ff" points="585.86,-50.86 576.6,-56.02 587.05,-57.76 585.86,-50.86"/>
</a>
</g>
</g>
<!-- Node8 -->
<g id="Node000008" class="node">
<title>Node8</title>
<g id="a_Node000008"><a xlink:href="Struct_8cpp.html" target="_top" xlink:title=" ">
<polygon fill="white" stroke="#666666" points="1061.62,-20.75 918.88,-20.75 918.88,0 1061.62,0 1061.62,-20.75"/>
<text text-anchor="middle" x="990.25" y="-7.25" font-family="Helvetica,sans-Serif" font-size="10.00">lib/CAPI/Dialect/Struct.cpp</text>
</a>
</g>
</g>
<!-- Node1&#45;&gt;Node8 -->
<g id="edge7_Node000001_Node000008" class="edge">
<title>Node1&#45;&gt;Node8</title>
<g id="a_edge7_Node000001_Node000008"><a xlink:title=" ">
<path fill="none" stroke="#63b8ff" d="M601.17,-56.56C680.51,-47.4 803.56,-33.18 910.25,-20.75 913.03,-20.43 915.86,-20.1 918.72,-19.76"/>
<polygon fill="#63b8ff" stroke="#63b8ff" points="600.82,-53.08 591.29,-57.7 601.62,-60.03 600.82,-53.08"/>
</a>
</g>
</g>
</g>
</svg>
