<?xml version="1.0" encoding="UTF-8" standalone="no"?>
<!DOCTYPE svg PUBLIC "-//W3C//DTD SVG 1.1//EN"
 "http://www.w3.org/Graphics/SVG/1.1/DTD/svg11.dtd">
<!-- Generated by graphviz version 12.2.1 (0)
 -->
<!-- Title: build/include/llzk/Dialect/LLZK/IR/Ops.h.inc Pages: 1 -->
<svg width="2481pt" height="459pt"
 viewBox="0.00 0.00 2481.38 458.50" xmlns="http://www.w3.org/2000/svg" xmlns:xlink="http://www.w3.org/1999/xlink">
<g id="graph0" class="graph" transform="scale(1 1) rotate(0) translate(4 454.5)">
<title>build/include/llzk/Dialect/LLZK/IR/Ops.h.inc</title>
<!-- Node1 -->
<g id="Node000001" class="node">
<title>Node1</title>
<g id="a_Node000001"><a xlink:title=" ">
<polygon fill="#999999" stroke="#666666" points="1476.75,-450.5 1335.5,-450.5 1335.5,-417 1476.75,-417 1476.75,-450.5"/>
<text text-anchor="start" x="1343.5" y="-437" font-family="Helvetica,sans-Serif" font-size="10.00">build/include/llzk</text>
<text text-anchor="middle" x="1406.12" y="-424.25" font-family="Helvetica,sans-Serif" font-size="10.00">/Dialect/LLZK/IR/Ops.h.inc</text>
</a>
</g>
</g>
<!-- Node2 -->
<g id="Node000002" class="node">
<title>Node2</title>
<g id="a_Node000002"><a xlink:href="LLZK_2IR_2Ops_8h.html" target="_top" xlink:title=" ">
<polygon fill="white" stroke="#666666" points="1460.62,-381 1351.62,-381 1351.62,-347.5 1460.62,-347.5 1460.62,-381"/>
<text text-anchor="start" x="1359.62" y="-367.5" font-family="Helvetica,sans-Serif" font-size="10.00">include/llzk/Dialect</text>
<text text-anchor="middle" x="1406.12" y="-354.75" font-family="Helvetica,sans-Serif" font-size="10.00">/LLZK/IR/Ops.h</text>
</a>
</g>
</g>
<!-- Node1&#45;&gt;Node2 -->
<g id="edge1_Node000001_Node000002" class="edge">
<title>Node1&#45;&gt;Node2</title>
<g id="a_edge1_Node000001_Node000002"><a xlink:title=" ">
<path fill="none" stroke="#63b8ff" d="M1406.12,-405.31C1406.12,-397.09 1406.12,-388.34 1406.12,-381.13"/>
<polygon fill="#63b8ff" stroke="#63b8ff" points="1402.63,-405.24 1406.13,-415.24 1409.63,-405.24 1402.63,-405.24"/>
</a>
</g>
</g>
<!-- Node3 -->
<g id="Node000003" class="node">
<title>Node3</title>
<g id="a_Node000003"><a xlink:href="SourceRef_8h.html" target="_top" xlink:title=" ">
<polygon fill="white" stroke="#666666" points="638,-311.5 522.25,-311.5 522.25,-278 638,-278 638,-311.5"/>
<text text-anchor="start" x="530.25" y="-298" font-family="Helvetica,sans-Serif" font-size="10.00">include/llzk/Analysis</text>
<text text-anchor="middle" x="580.12" y="-285.25" font-family="Helvetica,sans-Serif" font-size="10.00">/SourceRef.h</text>
</a>
</g>
</g>
<!-- Node2&#45;&gt;Node3 -->
<g id="edge2_Node000002_Node000003" class="edge">
<title>Node2&#45;&gt;Node3</title>
<g id="a_edge2_Node000002_Node000003"><a xlink:title=" ">
<path fill="none" stroke="#63b8ff" d="M1340,-362.35C1207.7,-359.77 901.31,-349.78 647.12,-311.5 644.29,-311.07 641.4,-310.59 638.48,-310.06"/>
<polygon fill="#63b8ff" stroke="#63b8ff" points="1339.92,-365.85 1349.98,-362.54 1340.05,-358.85 1339.92,-365.85"/>
</a>
</g>
</g>
<!-- Node13 -->
<g id="Node000013" class="node">
<title>Node13</title>
<g id="a_Node000013"><a xlink:href="LLZK_8cpp.html" target="_top" xlink:title=" ">
<polygon fill="white" stroke="#666666" points="794.25,-305.12 656,-305.12 656,-284.38 794.25,-284.38 794.25,-305.12"/>
<text text-anchor="middle" x="725.12" y="-291.62" font-family="Helvetica,sans-Serif" font-size="10.00">lib/CAPI/Dialect/LLZK.cpp</text>
</a>
</g>
</g>
<!-- Node2&#45;&gt;Node13 -->
<g id="edge15_Node000002_Node000013" class="edge">
<title>Node2&#45;&gt;Node13</title>
<g id="a_edge15_Node000002_Node000013"><a xlink:title=" ">
<path fill="none" stroke="#63b8ff" d="M1340.08,-360.04C1228.84,-354.09 997.25,-339.34 803.12,-311.5 792.18,-309.93 780.47,-307.8 769.52,-305.62"/>
<polygon fill="#63b8ff" stroke="#63b8ff" points="1339.74,-363.53 1349.91,-360.56 1340.11,-356.54 1339.74,-363.53"/>
</a>
</g>
</g>
<!-- Node14 -->
<g id="Node000014" class="node">
<title>Node14</title>
<g id="a_Node000014"><a xlink:href="Array_2IR_2Ops_8cpp.html" target="_top" xlink:title=" ">
<polygon fill="white" stroke="#666666" points="919.88,-311.5 812.38,-311.5 812.38,-278 919.88,-278 919.88,-311.5"/>
<text text-anchor="start" x="820.38" y="-298" font-family="Helvetica,sans-Serif" font-size="10.00">lib/Dialect/Array/IR</text>
<text text-anchor="middle" x="866.12" y="-285.25" font-family="Helvetica,sans-Serif" font-size="10.00">/Ops.cpp</text>
</a>
</g>
</g>
<!-- Node2&#45;&gt;Node14 -->
<g id="edge16_Node000002_Node000014" class="edge">
<title>Node2&#45;&gt;Node14</title>
<g id="a_edge16_Node000002_Node000014"><a xlink:title=" ">
<path fill="none" stroke="#63b8ff" d="M1340,-358.95C1247.54,-352.29 1074.61,-337.45 929.12,-311.5 926.24,-310.99 923.29,-310.41 920.32,-309.8"/>
<polygon fill="#63b8ff" stroke="#63b8ff" points="1339.68,-362.44 1349.9,-359.65 1340.18,-355.45 1339.68,-362.44"/>
</a>
</g>
</g>
<!-- Node15 -->
<g id="Node000015" class="node">
<title>Node15</title>
<g id="a_Node000015"><a xlink:href="ArrayToScalarPass_8cpp.html" target="_top" xlink:title="This file implements the &#45;llzk&#45;array&#45;to&#45;scalar pass.">
<polygon fill="white" stroke="#666666" points="1090,-311.5 938.25,-311.5 938.25,-278 1090,-278 1090,-311.5"/>
<text text-anchor="start" x="946.25" y="-298" font-family="Helvetica,sans-Serif" font-size="10.00">lib/Dialect/Array/Transforms</text>
<text text-anchor="middle" x="1014.12" y="-285.25" font-family="Helvetica,sans-Serif" font-size="10.00">/ArrayToScalarPass.cpp</text>
</a>
</g>
</g>
<!-- Node2&#45;&gt;Node15 -->
<g id="edge17_Node000002_Node000015" class="edge">
<title>Node2&#45;&gt;Node15</title>
<g id="a_edge17_Node000002_Node000015"><a xlink:title=" ">
<path fill="none" stroke="#63b8ff" d="M1339.96,-352.42C1277.75,-342.15 1182.05,-326.17 1099.12,-311.5 1096.17,-310.98 1093.16,-310.44 1090.11,-309.89"/>
<polygon fill="#63b8ff" stroke="#63b8ff" points="1339.25,-355.84 1349.68,-354.02 1340.38,-348.94 1339.25,-355.84"/>
</a>
</g>
</g>
<!-- Node16 -->
<g id="Node000016" class="node">
<title>Node16</title>
<g id="a_Node000016"><a xlink:href="LLZK_2IR_2Dialect_8cpp.html" target="_top" xlink:title=" ">
<polygon fill="white" stroke="#666666" points="1213.75,-311.5 1108.5,-311.5 1108.5,-278 1213.75,-278 1213.75,-311.5"/>
<text text-anchor="start" x="1116.5" y="-298" font-family="Helvetica,sans-Serif" font-size="10.00">lib/Dialect/LLZK/IR</text>
<text text-anchor="middle" x="1161.12" y="-285.25" font-family="Helvetica,sans-Serif" font-size="10.00">/Dialect.cpp</text>
</a>
</g>
</g>
<!-- Node2&#45;&gt;Node16 -->
<g id="edge18_Node000002_Node000016" class="edge">
<title>Node2&#45;&gt;Node16</title>
<g id="a_edge18_Node000002_Node000016"><a xlink:title=" ">
<path fill="none" stroke="#63b8ff" d="M1340.29,-345.11C1300.8,-334.23 1251.22,-320.57 1214.24,-310.38"/>
<polygon fill="#63b8ff" stroke="#63b8ff" points="1339.11,-348.42 1349.68,-347.7 1340.97,-341.67 1339.11,-348.42"/>
</a>
</g>
</g>
<!-- Node17 -->
<g id="Node000017" class="node">
<title>Node17</title>
<g id="a_Node000017"><a xlink:href="LLZK_2IR_2Ops_8cpp.html" target="_top" xlink:title=" ">
<polygon fill="white" stroke="#666666" points="1336.75,-311.5 1231.5,-311.5 1231.5,-278 1336.75,-278 1336.75,-311.5"/>
<text text-anchor="start" x="1239.5" y="-298" font-family="Helvetica,sans-Serif" font-size="10.00">lib/Dialect/LLZK/IR</text>
<text text-anchor="middle" x="1284.12" y="-285.25" font-family="Helvetica,sans-Serif" font-size="10.00">/Ops.cpp</text>
</a>
</g>
</g>
<!-- Node2&#45;&gt;Node17 -->
<g id="edge19_Node000002_Node000017" class="edge">
<title>Node2&#45;&gt;Node17</title>
<g id="a_edge19_Node000002_Node000017"><a xlink:title=" ">
<path fill="none" stroke="#63b8ff" d="M1366.97,-341.59C1349.47,-331.91 1329.21,-320.7 1313.11,-311.79"/>
<polygon fill="#63b8ff" stroke="#63b8ff" points="1365.13,-344.57 1375.58,-346.35 1368.52,-338.45 1365.13,-344.57"/>
</a>
</g>
</g>
<!-- Node18 -->
<g id="Node000018" class="node">
<title>Node18</title>
<g id="a_Node000018"><a xlink:href="POD_2IR_2Ops_8cpp.html" target="_top" xlink:title=" ">
<polygon fill="white" stroke="#666666" points="1457.25,-311.5 1355,-311.5 1355,-278 1457.25,-278 1457.25,-311.5"/>
<text text-anchor="start" x="1363" y="-298" font-family="Helvetica,sans-Serif" font-size="10.00">lib/Dialect/POD/IR</text>
<text text-anchor="middle" x="1406.12" y="-285.25" font-family="Helvetica,sans-Serif" font-size="10.00">/Ops.cpp</text>
</a>
</g>
</g>
<!-- Node2&#45;&gt;Node18 -->
<g id="edge20_Node000002_Node000018" class="edge">
<title>Node2&#45;&gt;Node18</title>
<g id="a_edge20_Node000002_Node000018"><a xlink:title=" ">
<path fill="none" stroke="#63b8ff" d="M1406.12,-335.81C1406.12,-327.59 1406.12,-318.84 1406.12,-311.63"/>
<polygon fill="#63b8ff" stroke="#63b8ff" points="1402.63,-335.74 1406.13,-345.74 1409.63,-335.74 1402.63,-335.74"/>
</a>
</g>
</g>
<!-- Node19 -->
<g id="Node000019" class="node">
<title>Node19</title>
<g id="a_Node000019"><a xlink:href="Verif_2IR_2Ops_8cpp.html" target="_top" xlink:title=" ">
<polygon fill="white" stroke="#666666" points="1579,-311.5 1475.25,-311.5 1475.25,-278 1579,-278 1579,-311.5"/>
<text text-anchor="start" x="1483.25" y="-298" font-family="Helvetica,sans-Serif" font-size="10.00">lib/Dialect/Verif/IR</text>
<text text-anchor="middle" x="1527.12" y="-285.25" font-family="Helvetica,sans-Serif" font-size="10.00">/Ops.cpp</text>
</a>
</g>
</g>
<!-- Node2&#45;&gt;Node19 -->
<g id="edge21_Node000002_Node000019" class="edge">
<title>Node2&#45;&gt;Node19</title>
<g id="a_edge21_Node000002_Node000019"><a xlink:title=" ">
<path fill="none" stroke="#63b8ff" d="M1444.96,-341.59C1462.31,-331.91 1482.41,-320.7 1498.38,-311.79"/>
<polygon fill="#63b8ff" stroke="#63b8ff" points="1443.46,-338.42 1436.43,-346.34 1446.87,-344.53 1443.46,-338.42"/>
</a>
</g>
</g>
<!-- Node20 -->
<g id="Node000020" class="node">
<title>Node20</title>
<g id="a_Node000020"><a xlink:href="LLZKLoweringUtils_8cpp.html" target="_top" xlink:title=" ">
<polygon fill="white" stroke="#666666" points="1753.25,-311.5 1597,-311.5 1597,-278 1753.25,-278 1753.25,-311.5"/>
<text text-anchor="start" x="1605" y="-298" font-family="Helvetica,sans-Serif" font-size="10.00">lib/Transforms/LLZKLowering</text>
<text text-anchor="middle" x="1675.12" y="-285.25" font-family="Helvetica,sans-Serif" font-size="10.00">Utils.cpp</text>
</a>
</g>
</g>
<!-- Node2&#45;&gt;Node20 -->
<g id="edge22_Node000002_Node000020" class="edge">
<title>Node2&#45;&gt;Node20</title>
<g id="a_edge22_Node000002_Node000020"><a xlink:title=" ">
<path fill="none" stroke="#63b8ff" d="M1471.88,-346.75C1514.05,-336.17 1568.55,-322.49 1610.49,-311.97"/>
<polygon fill="#63b8ff" stroke="#63b8ff" points="1471.2,-343.31 1462.35,-349.14 1472.9,-350.1 1471.2,-343.31"/>
</a>
</g>
</g>
<!-- Node21 -->
<g id="Node000021" class="node">
<title>Node21</title>
<g id="a_Node000021"><a xlink:href="LLZKPolyLoweringPass_8cpp.html" target="_top" xlink:title="This file implements the &#45;llzk&#45;poly&#45;lowering pass.">
<polygon fill="white" stroke="#666666" points="1948.75,-311.5 1771.5,-311.5 1771.5,-278 1948.75,-278 1948.75,-311.5"/>
<text text-anchor="start" x="1779.5" y="-298" font-family="Helvetica,sans-Serif" font-size="10.00">lib/Transforms/LLZKPolyLowering</text>
<text text-anchor="middle" x="1860.12" y="-285.25" font-family="Helvetica,sans-Serif" font-size="10.00">Pass.cpp</text>
</a>
</g>
</g>
<!-- Node2&#45;&gt;Node21 -->
<g id="edge23_Node000002_Node000021" class="edge">
<title>Node2&#45;&gt;Node21</title>
<g id="a_edge23_Node000002_Node000021"><a xlink:title=" ">
<path fill="none" stroke="#63b8ff" d="M1472.12,-353.96C1543.62,-343.82 1661.04,-326.97 1762.12,-311.5 1765.11,-311.04 1768.14,-310.58 1771.2,-310.1"/>
<polygon fill="#63b8ff" stroke="#63b8ff" points="1471.96,-350.45 1462.55,-355.31 1472.94,-357.38 1471.96,-350.45"/>
</a>
</g>
</g>
<!-- Node22 -->
<g id="Node000022" class="node">
<title>Node22</title>
<g id="a_Node000022"><a xlink:href="LLZKRedundantOperationEliminationPass_8cpp.html" target="_top" xlink:title="This file implements the &#45;llzk&#45;duplicate&#45;op&#45;elim pass.">
<polygon fill="white" stroke="#666666" points="2131.38,-311.5 1966.88,-311.5 1966.88,-278 2131.38,-278 2131.38,-311.5"/>
<text text-anchor="start" x="1974.88" y="-298" font-family="Helvetica,sans-Serif" font-size="10.00">lib/Transforms/LLZKRedundant</text>
<text text-anchor="middle" x="2049.12" y="-285.25" font-family="Helvetica,sans-Serif" font-size="10.00">OperationEliminationPass.cpp</text>
</a>
</g>
</g>
<!-- Node2&#45;&gt;Node22 -->
<g id="edge24_Node000002_Node000022" class="edge">
<title>Node2&#45;&gt;Node22</title>
<g id="a_edge24_Node000002_Node000022"><a xlink:title=" ">
<path fill="none" stroke="#63b8ff" d="M1471.95,-358.75C1575.62,-351.28 1783.16,-334.81 1958.12,-311.5 1960.99,-311.12 1963.89,-310.71 1966.83,-310.29"/>
<polygon fill="#63b8ff" stroke="#63b8ff" points="1471.97,-355.24 1462.25,-359.44 1472.47,-362.22 1471.97,-355.24"/>
</a>
</g>
</g>
<!-- Node23 -->
<g id="Node000023" class="node">
<title>Node23</title>
<g id="a_Node000023"><a xlink:href="Interpreter_8cpp.html" target="_top" xlink:title=" ">
<polygon fill="white" stroke="#666666" points="2320.75,-305.12 2149.5,-305.12 2149.5,-284.38 2320.75,-284.38 2320.75,-305.12"/>
<text text-anchor="middle" x="2235.12" y="-291.62" font-family="Helvetica,sans-Serif" font-size="10.00">tools/llzk&#45;witgen/Interpreter.cpp</text>
</a>
</g>
</g>
<!-- Node2&#45;&gt;Node23 -->
<g id="edge25_Node000002_Node000023" class="edge">
<title>Node2&#45;&gt;Node23</title>
<g id="a_edge25_Node000002_Node000023"><a xlink:title=" ">
<path fill="none" stroke="#63b8ff" d="M1472.29,-360.67C1601.17,-355.18 1894.75,-340.43 2140.12,-311.5 2153.57,-309.91 2168.02,-307.76 2181.49,-305.54"/>
<polygon fill="#63b8ff" stroke="#63b8ff" points="1472.43,-357.16 1462.59,-361.08 1472.73,-364.15 1472.43,-357.16"/>
</a>
</g>
</g>
<!-- Node24 -->
<g id="Node000024" class="node">
<title>Node24</title>
<g id="a_Node000024"><a xlink:href="WitgenLowering_8cpp.html" target="_top" xlink:title=" ">
<polygon fill="white" stroke="#666666" points="2473.38,-311.5 2338.88,-311.5 2338.88,-278 2473.38,-278 2473.38,-311.5"/>
<text text-anchor="start" x="2346.88" y="-298" font-family="Helvetica,sans-Serif" font-size="10.00">tools/llzk&#45;witgen/Witgen</text>
<text text-anchor="middle" x="2406.12" y="-285.25" font-family="Helvetica,sans-Serif" font-size="10.00">Lowering.cpp</text>
</a>
</g>
</g>
<!-- Node2&#45;&gt;Node24 -->
<g id="edge26_Node000002_Node000024" class="edge">
<title>Node2&#45;&gt;Node24</title>
<g id="a_edge26_Node000002_Node000024"><a xlink:title=" ">
<path fill="none" stroke="#63b8ff" d="M1472.48,-362.9C1624.74,-361.37 2010.67,-353.31 2330.12,-311.5 2332.93,-311.13 2335.79,-310.72 2338.67,-310.27"/>
<polygon fill="#63b8ff" stroke="#63b8ff" points="1472.55,-359.4 1462.58,-363 1472.61,-366.4 1472.55,-359.4"/>
</a>
</g>
</g>
<!-- Node4 -->
<g id="Node000004" class="node">
<title>Node4</title>
<g id="a_Node000004"><a xlink:href="ConstraintDependencyGraph_8h.html" target="_top" xlink:title=" ">
<polygon fill="white" stroke="#666666" points="559.25,-172.5 391,-172.5 391,-139 559.25,-139 559.25,-172.5"/>
<text text-anchor="start" x="399" y="-159" font-family="Helvetica,sans-Serif" font-size="10.00">include/llzk/Analysis</text>
<text text-anchor="middle" x="475.12" y="-146.25" font-family="Helvetica,sans-Serif" font-size="10.00">/ConstraintDependencyGraph.h</text>
</a>
</g>
</g>
<!-- Node3&#45;&gt;Node4 -->
<g id="edge3_Node000003_Node000004" class="edge">
<title>Node3&#45;&gt;Node4</title>
<g id="a_edge3_Node000003_Node000004"><a xlink:title=" ">
<path fill="none" stroke="#63b8ff" d="M544.3,-271.2C533.28,-263 521.78,-253.01 513.12,-242 496.4,-220.73 485.33,-190.93 479.65,-172.78"/>
<polygon fill="#63b8ff" stroke="#63b8ff" points="541.97,-273.83 552.15,-276.77 546.02,-268.12 541.97,-273.83"/>
</a>
</g>
</g>
<!-- Node11 -->
<g id="Node000011" class="node">
<title>Node11</title>
<g id="a_Node000011"><a xlink:href="SourceRefLattice_8h.html" target="_top" xlink:title=" ">
<polygon fill="white" stroke="#666666" points="638,-242 522.25,-242 522.25,-208.5 638,-208.5 638,-242"/>
<text text-anchor="start" x="530.25" y="-228.5" font-family="Helvetica,sans-Serif" font-size="10.00">include/llzk/Analysis</text>
<text text-anchor="middle" x="580.12" y="-215.75" font-family="Helvetica,sans-Serif" font-size="10.00">/SourceRefLattice.h</text>
</a>
</g>
</g>
<!-- Node3&#45;&gt;Node11 -->
<g id="edge10_Node000003_Node000011" class="edge">
<title>Node3&#45;&gt;Node11</title>
<g id="a_edge10_Node000003_Node000011"><a xlink:title=" ">
<path fill="none" stroke="#63b8ff" d="M580.12,-266.31C580.12,-258.09 580.12,-249.34 580.12,-242.13"/>
<polygon fill="#63b8ff" stroke="#63b8ff" points="576.63,-266.24 580.13,-276.24 583.63,-266.24 576.63,-266.24"/>
</a>
</g>
</g>
<!-- Node12 -->
<g id="Node000012" class="node">
<title>Node12</title>
<g id="a_Node000012"><a xlink:href="SourceRef_8cpp.html" target="_top" xlink:title=" ">
<polygon fill="white" stroke="#666666" points="800.25,-235.62 656,-235.62 656,-214.88 800.25,-214.88 800.25,-235.62"/>
<text text-anchor="middle" x="728.12" y="-222.12" font-family="Helvetica,sans-Serif" font-size="10.00">lib/Analysis/SourceRef.cpp</text>
</a>
</g>
</g>
<!-- Node3&#45;&gt;Node12 -->
<g id="edge14_Node000003_Node000012" class="edge">
<title>Node3&#45;&gt;Node12</title>
<g id="a_edge14_Node000003_Node000012"><a xlink:title=" ">
<path fill="none" stroke="#63b8ff" d="M625.95,-272.85C652.88,-260.57 685.66,-245.62 706.7,-236.02"/>
<polygon fill="#63b8ff" stroke="#63b8ff" points="624.6,-269.62 616.95,-276.95 627.5,-275.99 624.6,-269.62"/>
</a>
</g>
</g>
<!-- Node5 -->
<g id="Node000005" class="node">
<title>Node5</title>
<g id="a_Node000005"><a xlink:href="IntervalAnalysis_8h.html" target="_top" xlink:title=" ">
<polygon fill="white" stroke="#666666" points="236,-103 120.25,-103 120.25,-69.5 236,-69.5 236,-103"/>
<text text-anchor="start" x="128.25" y="-89.5" font-family="Helvetica,sans-Serif" font-size="10.00">include/llzk/Analysis</text>
<text text-anchor="middle" x="178.12" y="-76.75" font-family="Helvetica,sans-Serif" font-size="10.00">/IntervalAnalysis.h</text>
</a>
</g>
</g>
<!-- Node4&#45;&gt;Node5 -->
<g id="edge4_Node000004_Node000005" class="edge">
<title>Node4&#45;&gt;Node5</title>
<g id="a_edge4_Node000004_Node000005"><a xlink:title=" ">
<path fill="none" stroke="#63b8ff" d="M391.18,-136.07C347.59,-126.31 293.47,-114.12 245.12,-103 242.21,-102.33 239.23,-101.64 236.22,-100.94"/>
<polygon fill="#63b8ff" stroke="#63b8ff" points="390.32,-139.46 400.84,-138.22 391.84,-132.63 390.32,-139.46"/>
</a>
</g>
</g>
<!-- Node8 -->
<g id="Node000008" class="node">
<title>Node8</title>
<g id="a_Node000008"><a xlink:href="ConstraintDependencyGraph_8cpp.html" target="_top" xlink:title=" ">
<polygon fill="white" stroke="#666666" points="840.25,-103 654,-103 654,-69.5 840.25,-69.5 840.25,-103"/>
<text text-anchor="start" x="662" y="-89.5" font-family="Helvetica,sans-Serif" font-size="10.00">lib/Analysis/ConstraintDependency</text>
<text text-anchor="middle" x="747.12" y="-76.75" font-family="Helvetica,sans-Serif" font-size="10.00">Graph.cpp</text>
</a>
</g>
</g>
<!-- Node4&#45;&gt;Node8 -->
<g id="edge7_Node000004_Node000008" class="edge">
<title>Node4&#45;&gt;Node8</title>
<g id="a_edge7_Node000004_Node000008"><a xlink:title=" ">
<path fill="none" stroke="#63b8ff" d="M551.35,-135.83C592.49,-125.62 642.74,-113.15 682.04,-103.4"/>
<polygon fill="#63b8ff" stroke="#63b8ff" points="550.61,-132.41 541.74,-138.22 552.29,-139.21 550.61,-132.41"/>
</a>
</g>
</g>
<!-- Node9 -->
<g id="Node000009" class="node">
<title>Node9</title>
<g id="a_Node000009"><a xlink:href="ConstraintDependencyGraphPass_8cpp.html" target="_top" xlink:title="This file implements the &#45;llzk&#45;print&#45;constraint&#45;dependency&#45;graphs pass.">
<polygon fill="white" stroke="#666666" points="440.25,-103 254,-103 254,-69.5 440.25,-69.5 440.25,-103"/>
<text text-anchor="start" x="262" y="-89.5" font-family="Helvetica,sans-Serif" font-size="10.00">lib/Analysis/ConstraintDependency</text>
<text text-anchor="middle" x="347.12" y="-76.75" font-family="Helvetica,sans-Serif" font-size="10.00">GraphPass.cpp</text>
</a>
</g>
</g>
<!-- Node4&#45;&gt;Node9 -->
<g id="edge8_Node000004_Node000009" class="edge">
<title>Node4&#45;&gt;Node9</title>
<g id="a_edge8_Node000004_Node000009"><a xlink:title=" ">
<path fill="none" stroke="#63b8ff" d="M434.3,-133.22C415.89,-123.51 394.51,-112.24 377.53,-103.29"/>
<polygon fill="#63b8ff" stroke="#63b8ff" points="432.65,-136.31 443.13,-137.88 435.91,-130.12 432.65,-136.31"/>
</a>
</g>
</g>
<!-- Node10 -->
<g id="Node000010" class="node">
<title>Node10</title>
<g id="a_Node000010"><a xlink:href="SourceRefLattice_8cpp.html" target="_top" xlink:title=" ">
<polygon fill="white" stroke="#666666" points="636.12,-96.62 458.12,-96.62 458.12,-75.88 636.12,-75.88 636.12,-96.62"/>
<text text-anchor="middle" x="547.12" y="-83.12" font-family="Helvetica,sans-Serif" font-size="10.00">lib/Analysis/SourceRefLattice.cpp</text>
</a>
</g>
</g>
<!-- Node4&#45;&gt;Node10 -->
<g id="edge9_Node000004_Node000010" class="edge">
<title>Node4&#45;&gt;Node10</title>
<g id="a_edge9_Node000004_Node000010"><a xlink:title=" ">
<path fill="none" stroke="#63b8ff" d="M500.42,-131.04C512.86,-119.37 527.18,-105.95 536.65,-97.07"/>
<polygon fill="#63b8ff" stroke="#63b8ff" points="498.19,-128.33 493.29,-137.72 502.98,-133.43 498.19,-128.33"/>
</a>
</g>
</g>
<!-- Node6 -->
<g id="Node000006" class="node">
<title>Node6</title>
<g id="a_Node000006"><a xlink:href="IntervalAnalysis_8cpp.html" target="_top" xlink:title=" ">
<polygon fill="white" stroke="#666666" points="174.25,-27.12 0,-27.12 0,-6.38 174.25,-6.38 174.25,-27.12"/>
<text text-anchor="middle" x="87.12" y="-13.62" font-family="Helvetica,sans-Serif" font-size="10.00">lib/Analysis/IntervalAnalysis.cpp</text>
</a>
</g>
</g>
<!-- Node5&#45;&gt;Node6 -->
<g id="edge5_Node000005_Node000006" class="edge">
<title>Node5&#45;&gt;Node6</title>
<g id="a_edge5_Node000005_Node000006"><a xlink:title=" ">
<path fill="none" stroke="#63b8ff" d="M147.51,-62.54C131.48,-50.65 112.68,-36.7 100.37,-27.57"/>
<polygon fill="#63b8ff" stroke="#63b8ff" points="145.23,-65.21 155.34,-68.35 149.4,-59.58 145.23,-65.21"/>
</a>
</g>
</g>
<!-- Node7 -->
<g id="Node000007" class="node">
<title>Node7</title>
<g id="a_Node000007"><a xlink:href="IntervalAnalysisPass_8cpp.html" target="_top" xlink:title="This file implements the &#45;llzk&#45;print&#45;interval&#45;analysis pass.">
<polygon fill="white" stroke="#666666" points="346.12,-33.5 192.12,-33.5 192.12,0 346.12,0 346.12,-33.5"/>
<text text-anchor="start" x="200.12" y="-20" font-family="Helvetica,sans-Serif" font-size="10.00">lib/Analysis/IntervalAnalysis</text>
<text text-anchor="middle" x="269.12" y="-7.25" font-family="Helvetica,sans-Serif" font-size="10.00">Pass.cpp</text>
</a>
</g>
</g>
<!-- Node5&#45;&gt;Node7 -->
<g id="edge6_Node000005_Node000007" class="edge">
<title>Node5&#45;&gt;Node7</title>
<g id="a_edge6_Node000005_Node000007"><a xlink:title=" ">
<path fill="none" stroke="#63b8ff" d="M208.57,-62.66C221.29,-53.23 235.78,-42.48 247.4,-33.87"/>
<polygon fill="#63b8ff" stroke="#63b8ff" points="206.85,-59.58 200.91,-68.35 211.02,-65.21 206.85,-59.58"/>
</a>
</g>
</g>
<!-- Node11&#45;&gt;Node4 -->
<g id="edge11_Node000011_Node000004" class="edge">
<title>Node11&#45;&gt;Node4</title>
<g id="a_edge11_Node000011_Node000004"><a xlink:title=" ">
<path fill="none" stroke="#63b8ff" d="M545.58,-202.04C530.72,-192.49 513.67,-181.53 500.07,-172.79"/>
<polygon fill="#63b8ff" stroke="#63b8ff" points="543.4,-204.8 553.7,-207.26 547.18,-198.91 543.4,-204.8"/>
</a>
</g>
</g>
<!-- Node11&#45;&gt;Node8 -->
<g id="edge12_Node000011_Node000008" class="edge">
<title>Node11&#45;&gt;Node8</title>
<g id="a_edge12_Node000011_Node000008"><a xlink:title=" ">
<path fill="none" stroke="#63b8ff" d="M608.11,-201.29C641.93,-173.55 697.97,-127.58 727.51,-103.34"/>
<polygon fill="#63b8ff" stroke="#63b8ff" points="606.29,-198.26 600.78,-207.31 610.73,-203.67 606.29,-198.26"/>
</a>
</g>
</g>
<!-- Node11&#45;&gt;Node10 -->
<g id="edge13_Node000011_Node000010" class="edge">
<title>Node11&#45;&gt;Node10</title>
<g id="a_edge13_Node000011_Node000010"><a xlink:title=" ">
<path fill="none" stroke="#63b8ff" d="M578.01,-197.02C576.28,-180.11 573.25,-158.05 568.12,-139 564.05,-123.83 556.72,-107.14 551.89,-96.92"/>
<polygon fill="#63b8ff" stroke="#63b8ff" points="574.51,-197.16 578.92,-206.8 581.48,-196.52 574.51,-197.16"/>
</a>
</g>
</g>
</g>
</svg>
