<?xml version="1.0" encoding="UTF-8" standalone="no"?>
<!DOCTYPE svg PUBLIC "-//W3C//DTD SVG 1.1//EN"
 "http://www.w3.org/Graphics/SVG/1.1/DTD/svg11.dtd">
<!-- Generated by graphviz version 12.2.1 (0)
 -->
<!-- Title: include/llzk/Analysis/MemberOverwriteAnalysis.h Pages: 1 -->
<svg width="2249pt" height="376pt"
 viewBox="0.00 0.00 2248.75 376.25" xmlns="http://www.w3.org/2000/svg" xmlns:xlink="http://www.w3.org/1999/xlink">
<g id="graph0" class="graph" transform="scale(1 1) rotate(0) translate(4 372.25)">
<title>include/llzk/Analysis/MemberOverwriteAnalysis.h</title>
<!-- Node1 -->
<g id="Node000001" class="node">
<title>Node1</title>
<g id="a_Node000001"><a xlink:title=" ">
<polygon fill="#999999" stroke="#666666" points="1977.38,-368.25 1819.62,-368.25 1819.62,-334.75 1977.38,-334.75 1977.38,-368.25"/>
<text text-anchor="start" x="1827.62" y="-354.75" font-family="Helvetica,sans-Serif" font-size="10.00">include/llzk/Analysis</text>
<text text-anchor="middle" x="1898.5" y="-342" font-family="Helvetica,sans-Serif" font-size="10.00">/MemberOverwriteAnalysis.h</text>
</a>
</g>
</g>
<!-- Node2 -->
<g id="Node000002" class="node">
<title>Node2</title>
<g id="a_Node000002"><a xlink:href="Struct_2IR_2Ops_8h.html" target="_top" xlink:title=" ">
<polygon fill="white" stroke="#666666" points="1815.62,-298.75 1713.38,-298.75 1713.38,-265.25 1815.62,-265.25 1815.62,-298.75"/>
<text text-anchor="start" x="1721.38" y="-285.25" font-family="Helvetica,sans-Serif" font-size="10.00">llzk/Dialect/Struct</text>
<text text-anchor="middle" x="1764.5" y="-272.5" font-family="Helvetica,sans-Serif" font-size="10.00">/IR/Ops.h</text>
</a>
</g>
</g>
<!-- Node1&#45;&gt;Node2 -->
<g id="edge1_Node000001_Node000002" class="edge">
<title>Node1&#45;&gt;Node2</title>
<g id="a_edge1_Node000001_Node000002"><a xlink:title=" ">
<path fill="none" stroke="#63b8ff" d="M1866.4,-334.33C1848.42,-325.27 1825.78,-313.87 1806.41,-304.11"/>
<polygon fill="#63b8ff" stroke="#63b8ff" points="1808.19,-301.09 1797.69,-299.72 1805.04,-307.34 1808.19,-301.09"/>
</a>
</g>
</g>
<!-- Node42 -->
<g id="Node000042" class="node">
<title>Node42</title>
<g id="a_Node000042"><a xlink:title=" ">
<polygon fill="#e0e0e0" stroke="#999999" points="1963.12,-298.75 1833.88,-298.75 1833.88,-265.25 1963.12,-265.25 1963.12,-298.75"/>
<text text-anchor="start" x="1841.88" y="-285.25" font-family="Helvetica,sans-Serif" font-size="10.00">mlir/Analysis/DataFlow</text>
<text text-anchor="middle" x="1898.5" y="-272.5" font-family="Helvetica,sans-Serif" font-size="10.00">/DenseAnalysis.h</text>
</a>
</g>
</g>
<!-- Node1&#45;&gt;Node42 -->
<g id="edge57_Node000001_Node000042" class="edge">
<title>Node1&#45;&gt;Node42</title>
<g id="a_edge57_Node000001_Node000042"><a xlink:title=" ">
<path fill="none" stroke="#63b8ff" d="M1898.5,-334.5C1898.5,-327.27 1898.5,-318.53 1898.5,-310.31"/>
<polygon fill="#63b8ff" stroke="#63b8ff" points="1902,-310.4 1898.5,-300.4 1895,-310.4 1902,-310.4"/>
</a>
</g>
</g>
<!-- Node43 -->
<g id="Node000043" class="node">
<title>Node43</title>
<g id="a_Node000043"><a xlink:title=" ">
<polygon fill="#e0e0e0" stroke="#999999" points="2103.38,-292.38 1981.62,-292.38 1981.62,-271.62 2103.38,-271.62 2103.38,-292.38"/>
<text text-anchor="middle" x="2042.5" y="-278.88" font-family="Helvetica,sans-Serif" font-size="10.00">llvm/Support/Debug.h</text>
</a>
</g>
</g>
<!-- Node1&#45;&gt;Node43 -->
<g id="edge58_Node000001_Node000043" class="edge">
<title>Node1&#45;&gt;Node43</title>
<g id="a_edge58_Node000001_Node000043"><a xlink:title=" ">
<path fill="none" stroke="#63b8ff" d="M1932.99,-334.33C1956.84,-323.15 1988.3,-308.4 2011.38,-297.59"/>
<polygon fill="#63b8ff" stroke="#63b8ff" points="2012.72,-300.83 2020.28,-293.41 2009.74,-294.49 2012.72,-300.83"/>
</a>
</g>
</g>
<!-- Node3 -->
<g id="Node000003" class="node">
<title>Node3</title>
<g id="a_Node000003"><a xlink:href="OpTraits_8h.html" target="_top" xlink:title=" ">
<polygon fill="white" stroke="#666666" points="283,-229.25 168,-229.25 168,-195.75 283,-195.75 283,-229.25"/>
<text text-anchor="start" x="176" y="-215.75" font-family="Helvetica,sans-Serif" font-size="10.00">llzk/Dialect/Function</text>
<text text-anchor="middle" x="225.5" y="-203" font-family="Helvetica,sans-Serif" font-size="10.00">/IR/OpTraits.h</text>
</a>
</g>
</g>
<!-- Node2&#45;&gt;Node3 -->
<g id="edge2_Node000002_Node000003" class="edge">
<title>Node2&#45;&gt;Node3</title>
<g id="a_edge2_Node000002_Node000003"><a xlink:title=" ">
<path fill="none" stroke="#63b8ff" d="M1713.29,-278.75C1484.6,-268.72 556.41,-228.01 294.57,-216.53"/>
<polygon fill="#63b8ff" stroke="#63b8ff" points="295,-213.04 284.85,-216.1 294.69,-220.04 295,-213.04"/>
</a>
</g>
</g>
<!-- Node7 -->
<g id="Node000007" class="node">
<title>Node7</title>
<g id="a_Node000007"><a xlink:href="LLZK_2IR_2Attrs_8h.html" target="_top" xlink:title=" ">
<polygon fill="white" stroke="#666666" points="2082.75,-229.25 1972.25,-229.25 1972.25,-195.75 2082.75,-195.75 2082.75,-229.25"/>
<text text-anchor="start" x="1980.25" y="-215.75" font-family="Helvetica,sans-Serif" font-size="10.00">llzk/Dialect/LLZK/IR</text>
<text text-anchor="middle" x="2027.5" y="-203" font-family="Helvetica,sans-Serif" font-size="10.00">/Attrs.h</text>
</a>
</g>
</g>
<!-- Node2&#45;&gt;Node7 -->
<g id="edge6_Node000002_Node000007" class="edge">
<title>Node2&#45;&gt;Node7</title>
<g id="a_edge6_Node000002_Node000007"><a xlink:title=" ">
<path fill="none" stroke="#63b8ff" d="M1815.88,-267.49C1818.8,-266.73 1821.68,-265.98 1824.5,-265.25 1869.94,-253.49 1921.16,-240.44 1960.78,-230.38"/>
<polygon fill="#63b8ff" stroke="#63b8ff" points="1961.6,-233.78 1970.43,-227.93 1959.88,-227 1961.6,-233.78"/>
</a>
</g>
</g>
<!-- Node10 -->
<g id="Node000010" class="node">
<title>Node10</title>
<g id="a_Node000010"><a xlink:href="OpHelpers_8h.html" target="_top" xlink:title=" ">
<polygon fill="white" stroke="#666666" points="831.25,-229.25 723.75,-229.25 723.75,-195.75 831.25,-195.75 831.25,-229.25"/>
<text text-anchor="start" x="731.75" y="-215.75" font-family="Helvetica,sans-Serif" font-size="10.00">llzk/Dialect/Shared</text>
<text text-anchor="middle" x="777.5" y="-203" font-family="Helvetica,sans-Serif" font-size="10.00">/OpHelpers.h</text>
</a>
</g>
</g>
<!-- Node2&#45;&gt;Node10 -->
<g id="edge9_Node000002_Node000010" class="edge">
<title>Node2&#45;&gt;Node10</title>
<g id="a_edge9_Node000002_Node000010"><a xlink:title=" ">
<path fill="none" stroke="#63b8ff" d="M1713.17,-277.49C1547.56,-266.16 1027.49,-230.6 843.11,-217.99"/>
<polygon fill="#63b8ff" stroke="#63b8ff" points="843.45,-214.5 833.23,-217.31 842.97,-221.49 843.45,-214.5"/>
</a>
</g>
</g>
<!-- Node22 -->
<g id="Node000022" class="node">
<title>Node22</title>
<g id="a_Node000022"><a xlink:href="Struct_2IR_2Types_8h.html" target="_top" xlink:title=" ">
<polygon fill="white" stroke="#666666" points="1776.62,-229.25 1674.38,-229.25 1674.38,-195.75 1776.62,-195.75 1776.62,-229.25"/>
<text text-anchor="start" x="1682.38" y="-215.75" font-family="Helvetica,sans-Serif" font-size="10.00">llzk/Dialect/Struct</text>
<text text-anchor="middle" x="1725.5" y="-203" font-family="Helvetica,sans-Serif" font-size="10.00">/IR/Types.h</text>
</a>
</g>
</g>
<!-- Node2&#45;&gt;Node22 -->
<g id="edge26_Node000002_Node000022" class="edge">
<title>Node2&#45;&gt;Node22</title>
<g id="a_edge26_Node000002_Node000022"><a xlink:title=" ">
<path fill="none" stroke="#63b8ff" d="M1755.26,-265C1750.79,-257.27 1745.32,-247.8 1740.29,-239.09"/>
<polygon fill="#63b8ff" stroke="#63b8ff" points="1743.47,-237.6 1735.43,-230.69 1737.41,-241.1 1743.47,-237.6"/>
</a>
</g>
</g>
<!-- Node39 -->
<g id="Node000039" class="node">
<title>Node39</title>
<g id="a_Node000039"><a xlink:href="Struct_2IR_2Ops_8h_8inc.html" target="_top" xlink:title=" ">
<polygon fill="white" stroke="#666666" points="1986.62,-159.75 1884.38,-159.75 1884.38,-126.25 1986.62,-126.25 1986.62,-159.75"/>
<text text-anchor="start" x="1892.38" y="-146.25" font-family="Helvetica,sans-Serif" font-size="10.00">llzk/Dialect/Struct</text>
<text text-anchor="middle" x="1935.5" y="-133.5" font-family="Helvetica,sans-Serif" font-size="10.00">/IR/Ops.h.inc</text>
</a>
</g>
</g>
<!-- Node2&#45;&gt;Node39 -->
<g id="edge56_Node000002_Node000039" class="edge">
<title>Node2&#45;&gt;Node39</title>
<g id="a_edge56_Node000002_Node000039"><a xlink:title=" ">
<path fill="none" stroke="#63b8ff" d="M1784.45,-265.02C1814.62,-240.85 1871.99,-194.88 1906.69,-167.08"/>
<polygon fill="#63b8ff" stroke="#63b8ff" points="1908.62,-170.02 1914.23,-161.04 1904.24,-164.56 1908.62,-170.02"/>
</a>
</g>
</g>
<!-- Node41 -->
<g id="Node000041" class="node">
<title>Node41</title>
<g id="a_Node000041"><a xlink:href="Struct_2IR_2OpInterfaces_8h_8inc.html" target="_top" xlink:title=" ">
<polygon fill="white" stroke="#666666" points="2220.62,-229.25 2100.38,-229.25 2100.38,-195.75 2220.62,-195.75 2220.62,-229.25"/>
<text text-anchor="start" x="2108.38" y="-215.75" font-family="Helvetica,sans-Serif" font-size="10.00">llzk/Dialect/Struct</text>
<text text-anchor="middle" x="2160.5" y="-203" font-family="Helvetica,sans-Serif" font-size="10.00">/IR/OpInterfaces.h.inc</text>
</a>
</g>
</g>
<!-- Node2&#45;&gt;Node41 -->
<g id="edge55_Node000002_Node000041" class="edge">
<title>Node2&#45;&gt;Node41</title>
<g id="a_edge55_Node000002_Node000041"><a xlink:title=" ">
<path fill="none" stroke="#63b8ff" d="M1816.12,-267.02C1818.95,-266.39 1821.75,-265.79 1824.5,-265.25 1938.41,-242.71 1971.68,-250.1 2088.77,-229.64"/>
<polygon fill="#63b8ff" stroke="#63b8ff" points="2089.26,-233.11 2098.49,-227.91 2088.03,-226.21 2089.26,-233.11"/>
</a>
</g>
</g>
<!-- Node4 -->
<g id="Node000004" class="node">
<title>Node4</title>
<g id="a_Node000004"><a xlink:title=" ">
<polygon fill="#e0e0e0" stroke="#999999" points="121,-153.38 0,-153.38 0,-132.62 121,-132.62 121,-153.38"/>
<text text-anchor="middle" x="60.5" y="-139.88" font-family="Helvetica,sans-Serif" font-size="10.00">mlir/IR/OpDefinition.h</text>
</a>
</g>
</g>
<!-- Node3&#45;&gt;Node4 -->
<g id="edge3_Node000003_Node000004" class="edge">
<title>Node3&#45;&gt;Node4</title>
<g id="a_edge3_Node000003_Node000004"><a xlink:title=" ">
<path fill="none" stroke="#63b8ff" d="M185.98,-195.33C158.16,-183.95 121.29,-168.87 94.73,-158"/>
<polygon fill="#63b8ff" stroke="#63b8ff" points="96.37,-154.89 85.79,-154.34 93.72,-161.37 96.37,-154.89"/>
</a>
</g>
</g>
<!-- Node5 -->
<g id="Node000005" class="node">
<title>Node5</title>
<g id="a_Node000005"><a xlink:title=" ">
<polygon fill="#e0e0e0" stroke="#999999" points="681.62,-20.75 573.38,-20.75 573.38,0 681.62,0 681.62,-20.75"/>
<text text-anchor="middle" x="627.5" y="-7.25" font-family="Helvetica,sans-Serif" font-size="10.00">mlir/IR/Operation.h</text>
</a>
</g>
</g>
<!-- Node3&#45;&gt;Node5 -->
<g id="edge4_Node000003_Node000005" class="edge">
<title>Node3&#45;&gt;Node5</title>
<g id="a_edge4_Node000003_Node000005"><a xlink:title=" ">
<path fill="none" stroke="#63b8ff" d="M210.1,-195.44C182.64,-164.86 131.4,-97.7 168.5,-56.75 194.38,-28.19 440.97,-16.92 561.64,-13.09"/>
<polygon fill="#63b8ff" stroke="#63b8ff" points="561.51,-16.6 571.4,-12.79 561.29,-9.6 561.51,-16.6"/>
</a>
</g>
</g>
<!-- Node6 -->
<g id="Node000006" class="node">
<title>Node6</title>
<g id="a_Node000006"><a xlink:title=" ">
<polygon fill="#e0e0e0" stroke="#999999" points="377.12,-153.38 223.88,-153.38 223.88,-132.62 377.12,-132.62 377.12,-153.38"/>
<text text-anchor="middle" x="300.5" y="-139.88" font-family="Helvetica,sans-Serif" font-size="10.00">mlir/Support/LogicalResult.h</text>
</a>
</g>
</g>
<!-- Node3&#45;&gt;Node6 -->
<g id="edge5_Node000003_Node000006" class="edge">
<title>Node3&#45;&gt;Node6</title>
<g id="a_edge5_Node000003_Node000006"><a xlink:title=" ">
<path fill="none" stroke="#63b8ff" d="M243.27,-195.5C254.73,-185.19 269.63,-171.78 281.35,-161.23"/>
<polygon fill="#63b8ff" stroke="#63b8ff" points="283.37,-164.13 288.46,-154.83 278.69,-158.92 283.37,-164.13"/>
</a>
</g>
</g>
<!-- Node8 -->
<g id="Node000008" class="node">
<title>Node8</title>
<g id="a_Node000008"><a xlink:title=" ">
<polygon fill="#e0e0e0" stroke="#999999" points="2112.62,-153.38 2004.38,-153.38 2004.38,-132.62 2112.62,-132.62 2112.62,-153.38"/>
<text text-anchor="middle" x="2058.5" y="-139.88" font-family="Helvetica,sans-Serif" font-size="10.00">mlir/IR/Attributes.h</text>
</a>
</g>
</g>
<!-- Node7&#45;&gt;Node8 -->
<g id="edge7_Node000007_Node000008" class="edge">
<title>Node7&#45;&gt;Node8</title>
<g id="a_edge7_Node000007_Node000008"><a xlink:title=" ">
<path fill="none" stroke="#63b8ff" d="M2034.85,-195.5C2039.17,-186.1 2044.67,-174.12 2049.27,-164.09"/>
<polygon fill="#63b8ff" stroke="#63b8ff" points="2052.36,-165.75 2053.36,-155.2 2046,-162.82 2052.36,-165.75"/>
</a>
</g>
</g>
<!-- Node9 -->
<g id="Node000009" class="node">
<title>Node9</title>
<g id="a_Node000009"><a xlink:href="LLZK_2IR_2Attrs_8h_8inc.html" target="_top" xlink:title=" ">
<polygon fill="white" stroke="#666666" points="2240.75,-159.75 2130.25,-159.75 2130.25,-126.25 2240.75,-126.25 2240.75,-159.75"/>
<text text-anchor="start" x="2138.25" y="-146.25" font-family="Helvetica,sans-Serif" font-size="10.00">llzk/Dialect/LLZK/IR</text>
<text text-anchor="middle" x="2185.5" y="-133.5" font-family="Helvetica,sans-Serif" font-size="10.00">/Attrs.h.inc</text>
</a>
</g>
</g>
<!-- Node7&#45;&gt;Node9 -->
<g id="edge8_Node000007_Node000009" class="edge">
<title>Node7&#45;&gt;Node9</title>
<g id="a_edge8_Node000007_Node000009"><a xlink:title=" ">
<path fill="none" stroke="#63b8ff" d="M2065.34,-195.33C2086.96,-186.1 2114.27,-174.43 2137.4,-164.55"/>
<polygon fill="#63b8ff" stroke="#63b8ff" points="2138.48,-167.89 2146.3,-160.75 2135.73,-161.46 2138.48,-167.89"/>
</a>
</g>
</g>
<!-- Node10&#45;&gt;Node5 -->
<g id="edge22_Node000010_Node000005" class="edge">
<title>Node10&#45;&gt;Node5</title>
<g id="a_edge22_Node000010_Node000005"><a xlink:title=" ">
<path fill="none" stroke="#63b8ff" d="M752.63,-195.4C722.75,-174.71 673.3,-135.97 646.5,-90.25 635.94,-72.24 631.24,-48.64 629.15,-31.97"/>
<polygon fill="#63b8ff" stroke="#63b8ff" points="632.66,-31.87 628.17,-22.28 625.7,-32.58 632.66,-31.87"/>
</a>
</g>
</g>
<!-- Node10&#45;&gt;Node6 -->
<g id="edge23_Node000010_Node000006" class="edge">
<title>Node10&#45;&gt;Node6</title>
<g id="a_edge23_Node000010_Node000006"><a xlink:title=" ">
<path fill="none" stroke="#63b8ff" d="M723.71,-203.89C640.27,-192.08 479.13,-169.28 381.55,-155.47"/>
<polygon fill="#63b8ff" stroke="#63b8ff" points="382.16,-152.02 371.77,-154.08 381.18,-158.95 382.16,-152.02"/>
</a>
</g>
</g>
<!-- Node11 -->
<g id="Node000011" class="node">
<title>Node11</title>
<g id="a_Node000011"><a xlink:href="AffineHelper_8h.html" target="_top" xlink:title=" ">
<polygon fill="white" stroke="#666666" points="565.25,-153.38 439.75,-153.38 439.75,-132.62 565.25,-132.62 565.25,-153.38"/>
<text text-anchor="middle" x="502.5" y="-139.88" font-family="Helvetica,sans-Serif" font-size="10.00">llzk/Util/AffineHelper.h</text>
</a>
</g>
</g>
<!-- Node10&#45;&gt;Node11 -->
<g id="edge10_Node000010_Node000011" class="edge">
<title>Node10&#45;&gt;Node11</title>
<g id="a_edge10_Node000010_Node000011"><a xlink:title=" ">
<path fill="none" stroke="#63b8ff" d="M723.5,-198.24C674.26,-186.16 602.04,-168.43 553.7,-156.57"/>
<polygon fill="#63b8ff" stroke="#63b8ff" points="554.57,-153.18 544.03,-154.19 552.91,-159.98 554.57,-153.18"/>
</a>
</g>
</g>
<!-- Node16 -->
<g id="Node000016" class="node">
<title>Node16</title>
<g id="a_Node000016"><a xlink:title=" ">
<polygon fill="#e0e0e0" stroke="#999999" points="807.38,-83.88 655.62,-83.88 655.62,-63.12 807.38,-63.12 807.38,-83.88"/>
<text text-anchor="middle" x="731.5" y="-70.38" font-family="Helvetica,sans-Serif" font-size="10.00">mlir/IR/OpImplementation.h</text>
</a>
</g>
</g>
<!-- Node10&#45;&gt;Node16 -->
<g id="edge21_Node000010_Node000016" class="edge">
<title>Node10&#45;&gt;Node16</title>
<g id="a_edge21_Node000010_Node000016"><a xlink:title=" ">
<path fill="none" stroke="#63b8ff" d="M767.86,-195.68C762.12,-185.68 755.09,-172.32 750.5,-159.75 742.72,-138.43 737.54,-112.9 734.58,-95.37"/>
<polygon fill="#63b8ff" stroke="#63b8ff" points="738.07,-95.02 733.05,-85.69 731.16,-96.11 738.07,-95.02"/>
</a>
</g>
</g>
<!-- Node19 -->
<g id="Node000019" class="node">
<title>Node19</title>
<g id="a_Node000019"><a xlink:href="llzk_2Util_2Constants_8h.html" target="_top" xlink:title=" ">
<polygon fill="white" stroke="#666666" points="1529.62,-83.88 1415.38,-83.88 1415.38,-63.12 1529.62,-63.12 1529.62,-83.88"/>
<text text-anchor="middle" x="1472.5" y="-70.38" font-family="Helvetica,sans-Serif" font-size="10.00">llzk/Util/Constants.h</text>
</a>
</g>
</g>
<!-- Node10&#45;&gt;Node19 -->
<g id="edge20_Node000010_Node000019" class="edge">
<title>Node10&#45;&gt;Node19</title>
<g id="a_edge20_Node000010_Node000019"><a xlink:title=" ">
<path fill="none" stroke="#63b8ff" d="M831.64,-207.14C908.93,-200.31 1055.13,-185.19 1177.5,-159.75 1270.52,-140.41 1377,-106.68 1433.11,-87.97"/>
<polygon fill="#63b8ff" stroke="#63b8ff" points="1434.17,-91.31 1442.54,-84.81 1431.95,-84.67 1434.17,-91.31"/>
</a>
</g>
</g>
<!-- Node20 -->
<g id="Node000020" class="node">
<title>Node20</title>
<g id="a_Node000020"><a xlink:title=" ">
<polygon fill="#e0e0e0" stroke="#999999" points="889.12,-153.38 759.88,-153.38 759.88,-132.62 889.12,-132.62 889.12,-153.38"/>
<text text-anchor="middle" x="824.5" y="-139.88" font-family="Helvetica,sans-Serif" font-size="10.00">llvm/ADT/SmallString.h</text>
</a>
</g>
</g>
<!-- Node10&#45;&gt;Node20 -->
<g id="edge24_Node000010_Node000020" class="edge">
<title>Node10&#45;&gt;Node20</title>
<g id="a_edge24_Node000010_Node000020"><a xlink:title=" ">
<path fill="none" stroke="#63b8ff" d="M788.64,-195.5C795.4,-185.8 804.06,-173.35 811.18,-163.12"/>
<polygon fill="#63b8ff" stroke="#63b8ff" points="813.95,-165.27 816.8,-155.06 808.21,-161.27 813.95,-165.27"/>
</a>
</g>
</g>
<!-- Node21 -->
<g id="Node000021" class="node">
<title>Node21</title>
<g id="a_Node000021"><a xlink:title=" ">
<polygon fill="#e0e0e0" stroke="#999999" points="1264.12,-83.88 1146.88,-83.88 1146.88,-63.12 1264.12,-63.12 1264.12,-83.88"/>
<text text-anchor="middle" x="1205.5" y="-70.38" font-family="Helvetica,sans-Serif" font-size="10.00">llvm/ADT/StringRef.h</text>
</a>
</g>
</g>
<!-- Node10&#45;&gt;Node21 -->
<g id="edge25_Node000010_Node000021" class="edge">
<title>Node10&#45;&gt;Node21</title>
<g id="a_edge25_Node000010_Node000021"><a xlink:title=" ">
<path fill="none" stroke="#63b8ff" d="M831.52,-209.34C921.37,-204.88 1096.78,-192.18 1148.5,-159.75 1172.84,-144.49 1189.14,-114.61 1197.87,-94.59"/>
<polygon fill="#63b8ff" stroke="#63b8ff" points="1201.02,-96.11 1201.56,-85.53 1194.54,-93.47 1201.02,-96.11"/>
</a>
</g>
</g>
<!-- Node11&#45;&gt;Node5 -->
<g id="edge17_Node000011_Node000005" class="edge">
<title>Node11&#45;&gt;Node5</title>
<g id="a_edge17_Node000011_Node000005"><a xlink:title=" ">
<path fill="none" stroke="#63b8ff" d="M517.85,-132.25C532.34,-122.61 554.24,-106.92 570.5,-90.25 588.5,-71.8 605.29,-47.32 615.92,-30.56"/>
<polygon fill="#63b8ff" stroke="#63b8ff" points="618.88,-32.43 621.17,-22.08 612.93,-28.74 618.88,-32.43"/>
</a>
</g>
</g>
<!-- Node12 -->
<g id="Node000012" class="node">
<title>Node12</title>
<g id="a_Node000012"><a xlink:href="Compare_8h.html" target="_top" xlink:title=" ">
<polygon fill="white" stroke="#666666" points="121.38,-83.88 11.63,-83.88 11.63,-63.12 121.38,-63.12 121.38,-83.88"/>
<text text-anchor="middle" x="66.5" y="-70.38" font-family="Helvetica,sans-Serif" font-size="10.00">llzk/Util/Compare.h</text>
</a>
</g>
</g>
<!-- Node11&#45;&gt;Node12 -->
<g id="edge11_Node000011_Node000012" class="edge">
<title>Node11&#45;&gt;Node12</title>
<g id="a_edge11_Node000011_Node000012"><a xlink:title=" ">
<path fill="none" stroke="#63b8ff" d="M439.57,-132.26C358.03,-119.63 216.5,-97.72 133.18,-84.82"/>
<polygon fill="#63b8ff" stroke="#63b8ff" points="133.73,-81.37 123.31,-83.3 132.66,-88.28 133.73,-81.37"/>
</a>
</g>
</g>
<!-- Node15 -->
<g id="Node000015" class="node">
<title>Node15</title>
<g id="a_Node000015"><a xlink:title=" ">
<polygon fill="#e0e0e0" stroke="#999999" points="425.5,-83.88 325.5,-83.88 325.5,-63.12 425.5,-63.12 425.5,-83.88"/>
<text text-anchor="middle" x="375.5" y="-70.38" font-family="Helvetica,sans-Serif" font-size="10.00">mlir/IR/Builders.h</text>
</a>
</g>
</g>
<!-- Node11&#45;&gt;Node15 -->
<g id="edge15_Node000011_Node000015" class="edge">
<title>Node11&#45;&gt;Node15</title>
<g id="a_edge15_Node000011_Node000015"><a xlink:title=" ">
<path fill="none" stroke="#63b8ff" d="M484.03,-132.18C463.06,-121.04 428.58,-102.71 404.12,-89.71"/>
<polygon fill="#63b8ff" stroke="#63b8ff" points="405.8,-86.64 395.33,-85.04 402.51,-92.82 405.8,-86.64"/>
</a>
</g>
</g>
<!-- Node11&#45;&gt;Node16 -->
<g id="edge16_Node000011_Node000016" class="edge">
<title>Node11&#45;&gt;Node16</title>
<g id="a_edge16_Node000011_Node000016"><a xlink:title=" ">
<path fill="none" stroke="#63b8ff" d="M535.8,-132.18C575.74,-120.41 642.84,-100.63 687.14,-87.57"/>
<polygon fill="#63b8ff" stroke="#63b8ff" points="688.11,-90.94 696.71,-84.75 686.13,-84.23 688.11,-90.94"/>
</a>
</g>
</g>
<!-- Node17 -->
<g id="Node000017" class="node">
<title>Node17</title>
<g id="a_Node000017"><a xlink:title=" ">
<polygon fill="#e0e0e0" stroke="#999999" points="561.5,-83.88 443.5,-83.88 443.5,-63.12 561.5,-63.12 561.5,-83.88"/>
<text text-anchor="middle" x="502.5" y="-70.38" font-family="Helvetica,sans-Serif" font-size="10.00">mlir/IR/ValueRange.h</text>
</a>
</g>
</g>
<!-- Node11&#45;&gt;Node17 -->
<g id="edge18_Node000011_Node000017" class="edge">
<title>Node11&#45;&gt;Node17</title>
<g id="a_edge18_Node000011_Node000017"><a xlink:title=" ">
<path fill="none" stroke="#63b8ff" d="M502.5,-132.33C502.5,-122.71 502.5,-107.63 502.5,-95.29"/>
<polygon fill="#63b8ff" stroke="#63b8ff" points="506,-95.67 502.5,-85.67 499,-95.67 506,-95.67"/>
</a>
</g>
</g>
<!-- Node18 -->
<g id="Node000018" class="node">
<title>Node18</title>
<g id="a_Node000018"><a xlink:title=" ">
<polygon fill="#e0e0e0" stroke="#999999" points="307.88,-83.88 177.12,-83.88 177.12,-63.12 307.88,-63.12 307.88,-83.88"/>
<text text-anchor="middle" x="242.5" y="-70.38" font-family="Helvetica,sans-Serif" font-size="10.00">llvm/ADT/SmallVector.h</text>
</a>
</g>
</g>
<!-- Node11&#45;&gt;Node18 -->
<g id="edge19_Node000011_Node000018" class="edge">
<title>Node11&#45;&gt;Node18</title>
<g id="a_edge19_Node000011_Node000018"><a xlink:title=" ">
<path fill="none" stroke="#63b8ff" d="M464.69,-132.18C418.87,-120.29 341.54,-100.21 291.27,-87.16"/>
<polygon fill="#63b8ff" stroke="#63b8ff" points="292.38,-83.83 281.82,-84.71 290.62,-90.61 292.38,-83.83"/>
</a>
</g>
</g>
<!-- Node12&#45;&gt;Node5 -->
<g id="edge12_Node000012_Node000005" class="edge">
<title>Node12&#45;&gt;Node5</title>
<g id="a_edge12_Node000012_Node000005"><a xlink:title=" ">
<path fill="none" stroke="#63b8ff" d="M105.37,-62.68C115.15,-60.47 125.67,-58.32 135.5,-56.75 286.95,-32.59 466.84,-20.04 561.57,-14.67"/>
<polygon fill="#63b8ff" stroke="#63b8ff" points="561.67,-18.17 571.46,-14.12 561.28,-11.19 561.67,-18.17"/>
</a>
</g>
</g>
<!-- Node13 -->
<g id="Node000013" class="node">
<title>Node13</title>
<g id="a_Node000013"><a xlink:title=" ">
<polygon fill="#e0e0e0" stroke="#999999" points="131.25,-20.75 71.75,-20.75 71.75,0 131.25,0 131.25,-20.75"/>
<text text-anchor="middle" x="101.5" y="-7.25" font-family="Helvetica,sans-Serif" font-size="10.00">concepts</text>
</a>
</g>
</g>
<!-- Node12&#45;&gt;Node13 -->
<g id="edge13_Node000012_Node000013" class="edge">
<title>Node12&#45;&gt;Node13</title>
<g id="a_edge13_Node000012_Node000013"><a xlink:title=" ">
<path fill="none" stroke="#63b8ff" d="M72.12,-62.68C77.05,-54.07 84.36,-41.31 90.45,-30.67"/>
<polygon fill="#63b8ff" stroke="#63b8ff" points="93.32,-32.7 95.25,-22.28 87.25,-29.22 93.32,-32.7"/>
</a>
</g>
</g>
<!-- Node14 -->
<g id="Node000014" class="node">
<title>Node14</title>
<g id="a_Node000014"><a xlink:title=" ">
<polygon fill="#e0e0e0" stroke="#999999" points="53.75,-20.75 9.25,-20.75 9.25,0 53.75,0 53.75,-20.75"/>
<text text-anchor="middle" x="31.5" y="-7.25" font-family="Helvetica,sans-Serif" font-size="10.00">utility</text>
</a>
</g>
</g>
<!-- Node12&#45;&gt;Node14 -->
<g id="edge14_Node000012_Node000014" class="edge">
<title>Node12&#45;&gt;Node14</title>
<g id="a_edge14_Node000012_Node000014"><a xlink:title=" ">
<path fill="none" stroke="#63b8ff" d="M60.88,-62.68C55.95,-54.07 48.64,-41.31 42.55,-30.67"/>
<polygon fill="#63b8ff" stroke="#63b8ff" points="45.75,-29.22 37.75,-22.28 39.68,-32.7 45.75,-29.22"/>
</a>
</g>
</g>
<!-- Node23 -->
<g id="Node000023" class="node">
<title>Node23</title>
<g id="a_Node000023"><a xlink:href="Struct_2IR_2Dialect_8h.html" target="_top" xlink:title=" ">
<polygon fill="white" stroke="#666666" points="1746.62,-159.75 1644.38,-159.75 1644.38,-126.25 1746.62,-126.25 1746.62,-159.75"/>
<text text-anchor="start" x="1652.38" y="-146.25" font-family="Helvetica,sans-Serif" font-size="10.00">llzk/Dialect/Struct</text>
<text text-anchor="middle" x="1695.5" y="-133.5" font-family="Helvetica,sans-Serif" font-size="10.00">/IR/Dialect.h</text>
</a>
</g>
</g>
<!-- Node22&#45;&gt;Node23 -->
<g id="edge27_Node000022_Node000023" class="edge">
<title>Node22&#45;&gt;Node23</title>
<g id="a_edge27_Node000022_Node000023"><a xlink:title=" ">
<path fill="none" stroke="#63b8ff" d="M1718.39,-195.5C1715.03,-187.94 1710.93,-178.71 1707.13,-170.16"/>
<polygon fill="#63b8ff" stroke="#63b8ff" points="1710.43,-168.98 1703.17,-161.26 1704.04,-171.82 1710.43,-168.98"/>
</a>
</g>
</g>
<!-- Node26 -->
<g id="Node000026" class="node">
<title>Node26</title>
<g id="a_Node000026"><a xlink:href="SymbolLookup_8h.html" target="_top" xlink:title="This file defines methods symbol lookup across LLZK operations and included files.">
<polygon fill="white" stroke="#666666" points="1625.88,-153.38 1489.12,-153.38 1489.12,-132.62 1625.88,-132.62 1625.88,-153.38"/>
<text text-anchor="middle" x="1557.5" y="-139.88" font-family="Helvetica,sans-Serif" font-size="10.00">llzk/Util/SymbolLookup.h</text>
</a>
</g>
</g>
<!-- Node22&#45;&gt;Node26 -->
<g id="edge30_Node000022_Node000026" class="edge">
<title>Node22&#45;&gt;Node26</title>
<g id="a_edge30_Node000022_Node000026"><a xlink:title=" ">
<path fill="none" stroke="#63b8ff" d="M1685.26,-195.33C1656.93,-183.95 1619.4,-168.87 1592.35,-158"/>
<polygon fill="#63b8ff" stroke="#63b8ff" points="1593.81,-154.82 1583.22,-154.34 1591.2,-161.31 1593.81,-154.82"/>
</a>
</g>
</g>
<!-- Node31 -->
<g id="Node000031" class="node">
<title>Node31</title>
<g id="a_Node000031"><a xlink:href="TypeHelper_8h.html" target="_top" xlink:title=" ">
<polygon fill="white" stroke="#666666" points="1139.25,-153.38 1019.75,-153.38 1019.75,-132.62 1139.25,-132.62 1139.25,-153.38"/>
<text text-anchor="middle" x="1079.5" y="-139.88" font-family="Helvetica,sans-Serif" font-size="10.00">llzk/Util/TypeHelper.h</text>
</a>
</g>
</g>
<!-- Node22&#45;&gt;Node31 -->
<g id="edge39_Node000022_Node000031" class="edge">
<title>Node22&#45;&gt;Node31</title>
<g id="a_edge39_Node000022_Node000031"><a xlink:title=" ">
<path fill="none" stroke="#63b8ff" d="M1674,-206.12C1559.13,-194.12 1281.77,-165.14 1150.56,-151.43"/>
<polygon fill="#63b8ff" stroke="#63b8ff" points="1151.28,-147.98 1140.97,-150.42 1150.56,-154.94 1151.28,-147.98"/>
</a>
</g>
</g>
<!-- Node22&#45;&gt;Node39 -->
<g id="edge53_Node000022_Node000039" class="edge">
<title>Node22&#45;&gt;Node39</title>
<g id="a_edge53_Node000022_Node000039"><a xlink:title=" ">
<path fill="none" stroke="#63b8ff" d="M1775.8,-195.33C1805.43,-185.81 1843.13,-173.69 1874.46,-163.62"/>
<polygon fill="#63b8ff" stroke="#63b8ff" points="1875.36,-167.01 1883.81,-160.62 1873.21,-160.34 1875.36,-167.01"/>
</a>
</g>
</g>
<!-- Node40 -->
<g id="Node000040" class="node">
<title>Node40</title>
<g id="a_Node000040"><a xlink:href="Struct_2IR_2Types_8h_8inc.html" target="_top" xlink:title=" ">
<polygon fill="white" stroke="#666666" points="1866.62,-159.75 1764.38,-159.75 1764.38,-126.25 1866.62,-126.25 1866.62,-159.75"/>
<text text-anchor="start" x="1772.38" y="-146.25" font-family="Helvetica,sans-Serif" font-size="10.00">llzk/Dialect/Struct</text>
<text text-anchor="middle" x="1815.5" y="-133.5" font-family="Helvetica,sans-Serif" font-size="10.00">/IR/Types.h.inc</text>
</a>
</g>
</g>
<!-- Node22&#45;&gt;Node40 -->
<g id="edge54_Node000022_Node000040" class="edge">
<title>Node22&#45;&gt;Node40</title>
<g id="a_edge54_Node000022_Node000040"><a xlink:title=" ">
<path fill="none" stroke="#63b8ff" d="M1746.83,-195.5C1758.18,-186.99 1772.34,-176.37 1784.84,-166.99"/>
<polygon fill="#63b8ff" stroke="#63b8ff" points="1786.9,-169.82 1792.8,-161.02 1782.7,-164.22 1786.9,-169.82"/>
</a>
</g>
</g>
<!-- Node24 -->
<g id="Node000024" class="node">
<title>Node24</title>
<g id="a_Node000024"><a xlink:title=" ">
<polygon fill="#e0e0e0" stroke="#999999" points="2080.75,-83.88 1970.25,-83.88 1970.25,-63.12 2080.75,-63.12 2080.75,-83.88"/>
<text text-anchor="middle" x="2025.5" y="-70.38" font-family="Helvetica,sans-Serif" font-size="10.00">mlir/IR/BuiltinOps.h</text>
</a>
</g>
</g>
<!-- Node23&#45;&gt;Node24 -->
<g id="edge28_Node000023_Node000024" class="edge">
<title>Node23&#45;&gt;Node24</title>
<g id="a_edge28_Node000023_Node000024"><a xlink:title=" ">
<path fill="none" stroke="#63b8ff" d="M1746.82,-128.24C1749.75,-127.55 1752.66,-126.88 1755.5,-126.25 1844.13,-106.71 1867.57,-108.35 1956.5,-90.25 1961.79,-89.17 1967.3,-88 1972.79,-86.8"/>
<polygon fill="#63b8ff" stroke="#63b8ff" points="1973.49,-90.23 1982.5,-84.64 1971.97,-83.4 1973.49,-90.23"/>
</a>
</g>
</g>
<!-- Node25 -->
<g id="Node000025" class="node">
<title>Node25</title>
<g id="a_Node000025"><a xlink:href="Struct_2IR_2Dialect_8h_8inc.html" target="_top" xlink:title=" ">
<polygon fill="white" stroke="#666666" points="2200.62,-90.25 2098.38,-90.25 2098.38,-56.75 2200.62,-56.75 2200.62,-90.25"/>
<text text-anchor="start" x="2106.38" y="-76.75" font-family="Helvetica,sans-Serif" font-size="10.00">llzk/Dialect/Struct</text>
<text text-anchor="middle" x="2149.5" y="-64" font-family="Helvetica,sans-Serif" font-size="10.00">/IR/Dialect.h.inc</text>
</a>
</g>
</g>
<!-- Node23&#45;&gt;Node25 -->
<g id="edge29_Node000023_Node000025" class="edge">
<title>Node23&#45;&gt;Node25</title>
<g id="a_edge29_Node000023_Node000025"><a xlink:title=" ">
<path fill="none" stroke="#63b8ff" d="M1747.1,-127.93C1749.93,-127.32 1752.75,-126.76 1755.5,-126.25 1898.75,-99.88 1940.63,-116.42 2086.73,-90.59"/>
<polygon fill="#63b8ff" stroke="#63b8ff" points="2087.19,-94.06 2096.41,-88.84 2085.95,-87.17 2087.19,-94.06"/>
</a>
</g>
</g>
<!-- Node26&#45;&gt;Node5 -->
<g id="edge33_Node000026_Node000005" class="edge">
<title>Node26&#45;&gt;Node5</title>
<g id="a_edge33_Node000026_Node000005"><a xlink:title=" ">
<path fill="none" stroke="#63b8ff" d="M1558.7,-132.2C1560.32,-114.09 1560.76,-75.52 1538.5,-56.75 1506.27,-29.57 897.06,-16.21 693.27,-12.49"/>
<polygon fill="#63b8ff" stroke="#63b8ff" points="693.44,-8.99 683.38,-12.31 693.32,-15.99 693.44,-8.99"/>
</a>
</g>
</g>
<!-- Node26&#45;&gt;Node19 -->
<g id="edge31_Node000026_Node000019" class="edge">
<title>Node26&#45;&gt;Node19</title>
<g id="a_edge31_Node000026_Node000019"><a xlink:title=" ">
<path fill="none" stroke="#63b8ff" d="M1545.32,-132.33C1531.89,-121.66 1510.03,-104.3 1493.76,-91.38"/>
<polygon fill="#63b8ff" stroke="#63b8ff" points="1496.13,-88.79 1486.12,-85.31 1491.77,-94.27 1496.13,-88.79"/>
</a>
</g>
</g>
<!-- Node26&#45;&gt;Node21 -->
<g id="edge36_Node000026_Node000021" class="edge">
<title>Node26&#45;&gt;Node21</title>
<g id="a_edge36_Node000026_Node000021"><a xlink:title=" ">
<path fill="none" stroke="#63b8ff" d="M1498.1,-132.13C1440.33,-122.31 1350.16,-106.42 1272.5,-90.25 1267.36,-89.18 1262.01,-88.01 1256.68,-86.81"/>
<polygon fill="#63b8ff" stroke="#63b8ff" points="1257.82,-83.49 1247.29,-84.67 1256.26,-90.31 1257.82,-83.49"/>
</a>
</g>
</g>
<!-- Node26&#45;&gt;Node24 -->
<g id="edge32_Node000026_Node000024" class="edge">
<title>Node26&#45;&gt;Node24</title>
<g id="a_edge32_Node000026_Node000024"><a xlink:title=" ">
<path fill="none" stroke="#63b8ff" d="M1602.75,-132.17C1613.45,-130.03 1624.85,-127.92 1635.5,-126.25 1777.33,-104.02 1814.96,-114.26 1956.5,-90.25 1962.48,-89.24 1968.72,-88.03 1974.9,-86.74"/>
<polygon fill="#63b8ff" stroke="#63b8ff" points="1975.37,-90.21 1984.4,-84.67 1973.89,-83.37 1975.37,-90.21"/>
</a>
</g>
</g>
<!-- Node27 -->
<g id="Node000027" class="node">
<title>Node27</title>
<g id="a_Node000027"><a xlink:title=" ">
<polygon fill="#e0e0e0" stroke="#999999" points="1849.62,-83.88 1723.38,-83.88 1723.38,-63.12 1849.62,-63.12 1849.62,-83.88"/>
<text text-anchor="middle" x="1786.5" y="-70.38" font-family="Helvetica,sans-Serif" font-size="10.00">mlir/IR/OwningOpRef.h</text>
</a>
</g>
</g>
<!-- Node26&#45;&gt;Node27 -->
<g id="edge34_Node000026_Node000027" class="edge">
<title>Node26&#45;&gt;Node27</title>
<g id="a_edge34_Node000026_Node000027"><a xlink:title=" ">
<path fill="none" stroke="#63b8ff" d="M1590.8,-132.18C1630.74,-120.41 1697.84,-100.63 1742.14,-87.57"/>
<polygon fill="#63b8ff" stroke="#63b8ff" points="1743.11,-90.94 1751.71,-84.75 1741.13,-84.23 1743.11,-90.94"/>
</a>
</g>
</g>
<!-- Node28 -->
<g id="Node000028" class="node">
<title>Node28</title>
<g id="a_Node000028"><a xlink:title=" ">
<polygon fill="#e0e0e0" stroke="#999999" points="1397,-83.88 1282,-83.88 1282,-63.12 1397,-63.12 1397,-83.88"/>
<text text-anchor="middle" x="1339.5" y="-70.38" font-family="Helvetica,sans-Serif" font-size="10.00">llvm/ADT/ArrayRef.h</text>
</a>
</g>
</g>
<!-- Node26&#45;&gt;Node28 -->
<g id="edge35_Node000026_Node000028" class="edge">
<title>Node26&#45;&gt;Node28</title>
<g id="a_edge35_Node000026_Node000028"><a xlink:title=" ">
<path fill="none" stroke="#63b8ff" d="M1525.8,-132.18C1487.86,-120.44 1424.18,-100.72 1382,-87.66"/>
<polygon fill="#63b8ff" stroke="#63b8ff" points="1383.27,-84.39 1372.68,-84.77 1381.2,-91.08 1383.27,-84.39"/>
</a>
</g>
</g>
<!-- Node29 -->
<g id="Node000029" class="node">
<title>Node29</title>
<g id="a_Node000029"><a xlink:title=" ">
<polygon fill="#e0e0e0" stroke="#999999" points="1960.75,-20.75 1910.25,-20.75 1910.25,0 1960.75,0 1960.75,-20.75"/>
<text text-anchor="middle" x="1935.5" y="-7.25" font-family="Helvetica,sans-Serif" font-size="10.00">variant</text>
</a>
</g>
</g>
<!-- Node26&#45;&gt;Node29 -->
<g id="edge37_Node000026_Node000029" class="edge">
<title>Node26&#45;&gt;Node29</title>
<g id="a_edge37_Node000026_Node000029"><a xlink:title=" ">
<path fill="none" stroke="#63b8ff" d="M1603.18,-132.18C1613.76,-130.07 1625,-127.96 1635.5,-126.25 1699.16,-115.86 1877.29,-135.25 1923.5,-90.25 1938.67,-75.48 1940,-50.24 1938.61,-32.29"/>
<polygon fill="#63b8ff" stroke="#63b8ff" points="1942.11,-32.04 1937.49,-22.51 1935.15,-32.84 1942.11,-32.04"/>
</a>
</g>
</g>
<!-- Node30 -->
<g id="Node000030" class="node">
<title>Node30</title>
<g id="a_Node000030"><a xlink:title=" ">
<polygon fill="#e0e0e0" stroke="#999999" points="1914.88,-83.88 1868.12,-83.88 1868.12,-63.12 1914.88,-63.12 1914.88,-83.88"/>
<text text-anchor="middle" x="1891.5" y="-70.38" font-family="Helvetica,sans-Serif" font-size="10.00">vector</text>
</a>
</g>
</g>
<!-- Node26&#45;&gt;Node30 -->
<g id="edge38_Node000026_Node000030" class="edge">
<title>Node26&#45;&gt;Node30</title>
<g id="a_edge38_Node000026_Node000030"><a xlink:title=" ">
<path fill="none" stroke="#63b8ff" d="M1604.46,-132.21C1614.68,-130.16 1625.44,-128.08 1635.5,-126.25 1734.28,-108.31 1762.67,-120.18 1858.5,-90.25 1860.05,-89.77 1861.63,-89.22 1863.2,-88.63"/>
<polygon fill="#63b8ff" stroke="#63b8ff" points="1864.16,-92.03 1871.98,-84.88 1861.41,-85.59 1864.16,-92.03"/>
</a>
</g>
</g>
<!-- Node31&#45;&gt;Node5 -->
<g id="edge48_Node000031_Node000005" class="edge">
<title>Node31&#45;&gt;Node5</title>
<g id="a_edge48_Node000031_Node000005"><a xlink:title=" ">
<path fill="none" stroke="#63b8ff" d="M1019.41,-136.35C972.42,-130.05 906.56,-116.98 854.5,-90.25 834.47,-79.97 836.48,-67.13 816.5,-56.75 778.23,-36.87 731.08,-25.53 693.45,-19.16"/>
<polygon fill="#63b8ff" stroke="#63b8ff" points="694.01,-15.71 683.59,-17.58 692.9,-22.62 694.01,-15.71"/>
</a>
</g>
</g>
<!-- Node31&#45;&gt;Node16 -->
<g id="edge47_Node000031_Node000016" class="edge">
<title>Node31&#45;&gt;Node16</title>
<g id="a_edge47_Node000031_Node000016"><a xlink:title=" ">
<path fill="none" stroke="#63b8ff" d="M1028.9,-132.18C966.53,-120.09 860.58,-99.54 793.41,-86.51"/>
<polygon fill="#63b8ff" stroke="#63b8ff" points="794.13,-83.08 783.65,-84.62 792.8,-89.96 794.13,-83.08"/>
</a>
</g>
</g>
<!-- Node31&#45;&gt;Node21 -->
<g id="edge52_Node000031_Node000021" class="edge">
<title>Node31&#45;&gt;Node21</title>
<g id="a_edge52_Node000031_Node000021"><a xlink:title=" ">
<path fill="none" stroke="#63b8ff" d="M1097.82,-132.18C1118.63,-121.04 1152.84,-102.71 1177.11,-89.71"/>
<polygon fill="#63b8ff" stroke="#63b8ff" points="1178.66,-92.85 1185.82,-85.04 1175.35,-86.68 1178.66,-92.85"/>
</a>
</g>
</g>
<!-- Node31&#45;&gt;Node28 -->
<g id="edge50_Node000031_Node000028" class="edge">
<title>Node31&#45;&gt;Node28</title>
<g id="a_edge50_Node000031_Node000028"><a xlink:title=" ">
<path fill="none" stroke="#63b8ff" d="M1117.31,-132.18C1163.13,-120.29 1240.46,-100.21 1290.73,-87.16"/>
<polygon fill="#63b8ff" stroke="#63b8ff" points="1291.38,-90.61 1300.18,-84.71 1289.62,-83.83 1291.38,-90.61"/>
</a>
</g>
</g>
<!-- Node32 -->
<g id="Node000032" class="node">
<title>Node32</title>
<g id="a_Node000032"><a xlink:href="ErrorHelper_8h.html" target="_top" xlink:title=" ">
<polygon fill="white" stroke="#666666" points="1705.62,-83.88 1585.38,-83.88 1585.38,-63.12 1705.62,-63.12 1705.62,-83.88"/>
<text text-anchor="middle" x="1645.5" y="-70.38" font-family="Helvetica,sans-Serif" font-size="10.00">llzk/Util/ErrorHelper.h</text>
</a>
</g>
</g>
<!-- Node31&#45;&gt;Node32 -->
<g id="edge40_Node000031_Node000032" class="edge">
<title>Node31&#45;&gt;Node32</title>
<g id="a_edge40_Node000031_Node000032"><a xlink:title=" ">
<path fill="none" stroke="#63b8ff" d="M1139.73,-135.87C1227.52,-126.78 1395.75,-108.8 1538.5,-90.25 1549.93,-88.76 1562.03,-87.09 1573.82,-85.39"/>
<polygon fill="#63b8ff" stroke="#63b8ff" points="1574.11,-88.89 1583.5,-83.99 1573.1,-81.96 1574.11,-88.89"/>
</a>
</g>
</g>
<!-- Node37 -->
<g id="Node000037" class="node">
<title>Node37</title>
<g id="a_Node000037"><a xlink:title=" ">
<polygon fill="#e0e0e0" stroke="#999999" points="1128.75,-83.88 1006.25,-83.88 1006.25,-63.12 1128.75,-63.12 1128.75,-83.88"/>
<text text-anchor="middle" x="1067.5" y="-70.38" font-family="Helvetica,sans-Serif" font-size="10.00">mlir/IR/SymbolTable.h</text>
</a>
</g>
</g>
<!-- Node31&#45;&gt;Node37 -->
<g id="edge49_Node000031_Node000037" class="edge">
<title>Node31&#45;&gt;Node37</title>
<g id="a_edge49_Node000031_Node000037"><a xlink:title=" ">
<path fill="none" stroke="#63b8ff" d="M1077.78,-132.33C1076.07,-122.71 1073.39,-107.63 1071.2,-95.29"/>
<polygon fill="#63b8ff" stroke="#63b8ff" points="1074.68,-94.88 1069.48,-85.64 1067.79,-96.1 1074.68,-94.88"/>
</a>
</g>
</g>
<!-- Node38 -->
<g id="Node000038" class="node">
<title>Node38</title>
<g id="a_Node000038"><a xlink:title=" ">
<polygon fill="#e0e0e0" stroke="#999999" points="987.88,-83.88 863.12,-83.88 863.12,-63.12 987.88,-63.12 987.88,-83.88"/>
<text text-anchor="middle" x="925.5" y="-70.38" font-family="Helvetica,sans-Serif" font-size="10.00">llvm/ADT/DenseMap.h</text>
</a>
</g>
</g>
<!-- Node31&#45;&gt;Node38 -->
<g id="edge51_Node000031_Node000038" class="edge">
<title>Node31&#45;&gt;Node38</title>
<g id="a_edge51_Node000031_Node000038"><a xlink:title=" ">
<path fill="none" stroke="#63b8ff" d="M1057.11,-132.18C1031.1,-120.79 987.98,-101.89 958.22,-88.84"/>
<polygon fill="#63b8ff" stroke="#63b8ff" points="959.87,-85.74 949.31,-84.93 957.06,-92.15 959.87,-85.74"/>
</a>
</g>
</g>
<!-- Node32&#45;&gt;Node5 -->
<g id="edge42_Node000032_Node000005" class="edge">
<title>Node32&#45;&gt;Node5</title>
<g id="a_edge42_Node000032_Node000005"><a xlink:title=" ">
<path fill="none" stroke="#63b8ff" d="M1604.99,-62.64C1594.17,-60.35 1582.44,-58.17 1571.5,-56.75 1243.69,-14.27 847.21,-10.55 693.15,-10.89"/>
<polygon fill="#63b8ff" stroke="#63b8ff" points="693.55,-7.39 683.56,-10.92 693.57,-14.39 693.55,-7.39"/>
</a>
</g>
</g>
<!-- Node32&#45;&gt;Node29 -->
<g id="edge46_Node000032_Node000029" class="edge">
<title>Node32&#45;&gt;Node29</title>
<g id="a_edge46_Node000032_Node000029"><a xlink:title=" ">
<path fill="none" stroke="#63b8ff" d="M1687.8,-62.69C1696.61,-60.69 1705.85,-58.62 1714.5,-56.75 1779.19,-42.73 1854.79,-27.44 1898.69,-18.68"/>
<polygon fill="#63b8ff" stroke="#63b8ff" points="1899.33,-22.12 1908.45,-16.73 1897.96,-15.25 1899.33,-22.12"/>
</a>
</g>
</g>
<!-- Node33 -->
<g id="Node000033" class="node">
<title>Node33</title>
<g id="a_Node000033"><a xlink:title=" ">
<polygon fill="#e0e0e0" stroke="#999999" points="1395.12,-20.75 1277.88,-20.75 1277.88,0 1395.12,0 1395.12,-20.75"/>
<text text-anchor="middle" x="1336.5" y="-7.25" font-family="Helvetica,sans-Serif" font-size="10.00">mlir/IR/Diagnostics.h</text>
</a>
</g>
</g>
<!-- Node32&#45;&gt;Node33 -->
<g id="edge41_Node000032_Node000033" class="edge">
<title>Node32&#45;&gt;Node33</title>
<g id="a_edge41_Node000032_Node000033"><a xlink:title=" ">
<path fill="none" stroke="#63b8ff" d="M1600.13,-62.7C1590.68,-60.7 1580.77,-58.63 1571.5,-56.75 1513.56,-44.99 1447.44,-32.29 1400.13,-23.32"/>
<polygon fill="#63b8ff" stroke="#63b8ff" points="1400.79,-19.89 1390.31,-21.47 1399.49,-26.76 1400.79,-19.89"/>
</a>
</g>
</g>
<!-- Node34 -->
<g id="Node000034" class="node">
<title>Node34</title>
<g id="a_Node000034"><a xlink:title=" ">
<polygon fill="#e0e0e0" stroke="#999999" points="1584.12,-20.75 1412.88,-20.75 1412.88,0 1584.12,0 1584.12,-20.75"/>
<text text-anchor="middle" x="1498.5" y="-7.25" font-family="Helvetica,sans-Serif" font-size="10.00">llvm/ADT/STLFunctionalExtras.h</text>
</a>
</g>
</g>
<!-- Node32&#45;&gt;Node34 -->
<g id="edge43_Node000032_Node000034" class="edge">
<title>Node32&#45;&gt;Node34</title>
<g id="a_edge43_Node000032_Node000034"><a xlink:title=" ">
<path fill="none" stroke="#63b8ff" d="M1621.88,-62.68C1597.66,-52.61 1559.77,-36.85 1532.36,-25.46"/>
<polygon fill="#63b8ff" stroke="#63b8ff" points="1534.03,-22.36 1523.46,-21.75 1531.35,-28.82 1534.03,-22.36"/>
</a>
</g>
</g>
<!-- Node35 -->
<g id="Node000035" class="node">
<title>Node35</title>
<g id="a_Node000035"><a xlink:title=" ">
<polygon fill="#e0e0e0" stroke="#999999" points="1702.88,-20.75 1602.12,-20.75 1602.12,0 1702.88,0 1702.88,-20.75"/>
<text text-anchor="middle" x="1652.5" y="-7.25" font-family="Helvetica,sans-Serif" font-size="10.00">llvm/ADT/Twine.h</text>
</a>
</g>
</g>
<!-- Node32&#45;&gt;Node35 -->
<g id="edge44_Node000032_Node000035" class="edge">
<title>Node32&#45;&gt;Node35</title>
<g id="a_edge44_Node000032_Node000035"><a xlink:title=" ">
<path fill="none" stroke="#63b8ff" d="M1646.62,-62.68C1647.56,-54.52 1648.92,-42.63 1650.1,-32.35"/>
<polygon fill="#63b8ff" stroke="#63b8ff" points="1653.57,-32.81 1651.23,-22.47 1646.61,-32.01 1653.57,-32.81"/>
</a>
</g>
</g>
<!-- Node36 -->
<g id="Node000036" class="node">
<title>Node36</title>
<g id="a_Node000036"><a xlink:title=" ">
<polygon fill="#e0e0e0" stroke="#999999" points="1878,-20.75 1721,-20.75 1721,0 1878,0 1878,-20.75"/>
<text text-anchor="middle" x="1799.5" y="-7.25" font-family="Helvetica,sans-Serif" font-size="10.00">llvm/Support/ErrorHandling.h</text>
</a>
</g>
</g>
<!-- Node32&#45;&gt;Node36 -->
<g id="edge45_Node000032_Node000036" class="edge">
<title>Node32&#45;&gt;Node36</title>
<g id="a_edge45_Node000032_Node000036"><a xlink:title=" ">
<path fill="none" stroke="#63b8ff" d="M1670.24,-62.68C1695.73,-52.56 1735.67,-36.71 1764.41,-25.3"/>
<polygon fill="#63b8ff" stroke="#63b8ff" points="1765.41,-28.67 1773.41,-21.73 1762.83,-22.17 1765.41,-28.67"/>
</a>
</g>
</g>
</g>
</svg>
