<?xml version="1.0" encoding="UTF-8" standalone="no"?>
<!DOCTYPE svg PUBLIC "-//W3C//DTD SVG 1.1//EN"
 "http://www.w3.org/Graphics/SVG/1.1/DTD/svg11.dtd">
<!-- Generated by graphviz version 12.2.1 (0)
 -->
<!-- Title: tools/llzk&#45;tblgen/OpCAPIParamHelper.h Pages: 1 -->
<svg width="535pt" height="111pt"
 viewBox="0.00 0.00 535.38 111.00" xmlns="http://www.w3.org/2000/svg" xmlns:xlink="http://www.w3.org/1999/xlink">
<g id="graph0" class="graph" transform="scale(1 1) rotate(0) translate(4 107)">
<title>tools/llzk&#45;tblgen/OpCAPIParamHelper.h</title>
<!-- Node1 -->
<g id="Node000001" class="node">
<title>Node1</title>
<g id="a_Node000001"><a xlink:title=" ">
<polygon fill="#999999" stroke="#666666" points="356,-103 191.5,-103 191.5,-69.5 356,-69.5 356,-103"/>
<text text-anchor="start" x="199.5" y="-89.5" font-family="Helvetica,sans-Serif" font-size="10.00">tools/llzk&#45;tblgen/OpCAPIParam</text>
<text text-anchor="middle" x="273.75" y="-76.75" font-family="Helvetica,sans-Serif" font-size="10.00">Helper.h</text>
</a>
</g>
</g>
<!-- Node2 -->
<g id="Node000002" class="node">
<title>Node2</title>
<g id="a_Node000002"><a xlink:href="OpCAPIGen_8cpp.html" target="_top" xlink:title=" ">
<polygon fill="white" stroke="#666666" points="173.5,-27.12 0,-27.12 0,-6.38 173.5,-6.38 173.5,-27.12"/>
<text text-anchor="middle" x="86.75" y="-13.62" font-family="Helvetica,sans-Serif" font-size="10.00">tools/llzk&#45;tblgen/OpCAPIGen.cpp</text>
</a>
</g>
</g>
<!-- Node1&#45;&gt;Node2 -->
<g id="edge1_Node000001_Node000002" class="edge">
<title>Node1&#45;&gt;Node2</title>
<g id="a_edge1_Node000001_Node000002"><a xlink:title=" ">
<path fill="none" stroke="#63b8ff" d="M218.13,-65.17C183.81,-52.79 141.29,-37.44 114.09,-27.62"/>
<polygon fill="#63b8ff" stroke="#63b8ff" points="216.94,-68.47 227.54,-68.57 219.32,-61.88 216.94,-68.47"/>
</a>
</g>
</g>
<!-- Node3 -->
<g id="Node000003" class="node">
<title>Node3</title>
<g id="a_Node000003"><a xlink:href="OpCAPIParamHelper_8cpp.html" target="_top" xlink:title=" ">
<polygon fill="white" stroke="#666666" points="356,-33.5 191.5,-33.5 191.5,0 356,0 356,-33.5"/>
<text text-anchor="start" x="199.5" y="-20" font-family="Helvetica,sans-Serif" font-size="10.00">tools/llzk&#45;tblgen/OpCAPIParam</text>
<text text-anchor="middle" x="273.75" y="-7.25" font-family="Helvetica,sans-Serif" font-size="10.00">Helper.cpp</text>
</a>
</g>
</g>
<!-- Node1&#45;&gt;Node3 -->
<g id="edge2_Node000001_Node000003" class="edge">
<title>Node1&#45;&gt;Node3</title>
<g id="a_edge2_Node000001_Node000003"><a xlink:title=" ">
<path fill="none" stroke="#63b8ff" d="M273.75,-57.81C273.75,-49.59 273.75,-40.84 273.75,-33.63"/>
<polygon fill="#63b8ff" stroke="#63b8ff" points="270.25,-57.74 273.75,-67.74 277.25,-57.74 270.25,-57.74"/>
</a>
</g>
</g>
<!-- Node4 -->
<g id="Node000004" class="node">
<title>Node4</title>
<g id="a_Node000004"><a xlink:href="OpCAPITestGen_8cpp.html" target="_top" xlink:title=" ">
<polygon fill="white" stroke="#666666" points="527.38,-33.5 374.12,-33.5 374.12,0 527.38,0 527.38,-33.5"/>
<text text-anchor="start" x="382.12" y="-20" font-family="Helvetica,sans-Serif" font-size="10.00">tools/llzk&#45;tblgen/OpCAPITest</text>
<text text-anchor="middle" x="450.75" y="-7.25" font-family="Helvetica,sans-Serif" font-size="10.00">Gen.cpp</text>
</a>
</g>
</g>
<!-- Node1&#45;&gt;Node4 -->
<g id="edge3_Node000001_Node000004" class="edge">
<title>Node1&#45;&gt;Node4</title>
<g id="a_edge3_Node000001_Node000004"><a xlink:title=" ">
<path fill="none" stroke="#63b8ff" d="M326.63,-65.08C352.76,-55.12 383.86,-43.26 408.39,-33.9"/>
<polygon fill="#63b8ff" stroke="#63b8ff" points="325.66,-61.71 317.56,-68.54 328.15,-68.25 325.66,-61.71"/>
</a>
</g>
</g>
</g>
</svg>
