<?xml version="1.0" encoding="UTF-8" standalone="no"?>
<!DOCTYPE svg PUBLIC "-//W3C//DTD SVG 1.1//EN"
 "http://www.w3.org/Graphics/SVG/1.1/DTD/svg11.dtd">
<!-- Generated by graphviz version 12.2.1 (0)
 -->
<!-- Title: tools/llzk&#45;tblgen/OpCAPIParamHelper.cpp Pages: 1 -->
<svg width="1392pt" height="155pt"
 viewBox="0.00 0.00 1391.62 155.00" xmlns="http://www.w3.org/2000/svg" xmlns:xlink="http://www.w3.org/1999/xlink">
<g id="graph0" class="graph" transform="scale(1 1) rotate(0) translate(4 151)">
<title>tools/llzk&#45;tblgen/OpCAPIParamHelper.cpp</title>
<!-- Node1 -->
<g id="Node000001" class="node">
<title>Node1</title>
<g id="a_Node000001"><a xlink:title=" ">
<polygon fill="#999999" stroke="#666666" points="601,-147 436.5,-147 436.5,-113.5 601,-113.5 601,-147"/>
<text text-anchor="start" x="444.5" y="-133.5" font-family="Helvetica,sans-Serif" font-size="10.00">tools/llzk&#45;tblgen/OpCAPIParam</text>
<text text-anchor="middle" x="518.75" y="-120.75" font-family="Helvetica,sans-Serif" font-size="10.00">Helper.cpp</text>
</a>
</g>
</g>
<!-- Node2 -->
<g id="Node000002" class="node">
<title>Node2</title>
<g id="a_Node000002"><a xlink:href="OpCAPIParamHelper_8h.html" target="_top" xlink:title=" ">
<polygon fill="white" stroke="#666666" points="345.38,-77.5 222.12,-77.5 222.12,-56.75 345.38,-56.75 345.38,-77.5"/>
<text text-anchor="middle" x="283.75" y="-64" font-family="Helvetica,sans-Serif" font-size="10.00">OpCAPIParamHelper.h</text>
</a>
</g>
</g>
<!-- Node1&#45;&gt;Node2 -->
<g id="edge1_Node000001_Node000002" class="edge">
<title>Node1&#45;&gt;Node2</title>
<g id="a_edge1_Node000001_Node000002"><a xlink:title=" ">
<path fill="none" stroke="#63b8ff" d="M456.39,-113.03C417.45,-102.9 368.06,-90.05 332.09,-80.7"/>
<polygon fill="#63b8ff" stroke="#63b8ff" points="333.41,-77.43 322.85,-78.3 331.65,-84.2 333.41,-77.43"/>
</a>
</g>
</g>
<!-- Node4 -->
<g id="Node000004" class="node">
<title>Node4</title>
<g id="a_Node000004"><a xlink:title=" ">
<polygon fill="#e0e0e0" stroke="#999999" points="137.5,-20.75 0,-20.75 0,0 137.5,0 137.5,-20.75"/>
<text text-anchor="middle" x="68.75" y="-7.25" font-family="Helvetica,sans-Serif" font-size="10.00">mlir/TableGen/Operator.h</text>
</a>
</g>
</g>
<!-- Node1&#45;&gt;Node4 -->
<g id="edge14_Node000001_Node000004" class="edge">
<title>Node1&#45;&gt;Node4</title>
<g id="a_edge14_Node000001_Node000004"><a xlink:title=" ">
<path fill="none" stroke="#63b8ff" d="M436.21,-121.25C373.84,-113.78 286.64,-100.28 212.75,-77.5 170.32,-64.42 124.16,-41.55 95.84,-26.44"/>
<polygon fill="#63b8ff" stroke="#63b8ff" points="97.69,-23.46 87.23,-21.78 94.36,-29.62 97.69,-23.46"/>
</a>
</g>
</g>
<!-- Node6 -->
<g id="Node000006" class="node">
<title>Node6</title>
<g id="a_Node000006"><a xlink:href="CommonCAPIGen_8h.html" target="_top" xlink:title=" ">
<polygon fill="white" stroke="#666666" points="754.38,-77.5 643.12,-77.5 643.12,-56.75 754.38,-56.75 754.38,-77.5"/>
<text text-anchor="middle" x="698.75" y="-64" font-family="Helvetica,sans-Serif" font-size="10.00">CommonCAPIGen.h</text>
</a>
</g>
</g>
<!-- Node1&#45;&gt;Node6 -->
<g id="edge5_Node000001_Node000006" class="edge">
<title>Node1&#45;&gt;Node6</title>
<g id="a_edge5_Node000001_Node000006"><a xlink:title=" ">
<path fill="none" stroke="#63b8ff" d="M566.51,-113.03C595.44,-103.21 631.9,-90.83 659.2,-81.56"/>
<polygon fill="#63b8ff" stroke="#63b8ff" points="660.14,-84.93 668.49,-78.4 657.89,-78.3 660.14,-84.93"/>
</a>
</g>
</g>
<!-- Node12 -->
<g id="Node000012" class="node">
<title>Node12</title>
<g id="a_Node000012"><a xlink:title=" ">
<polygon fill="#e0e0e0" stroke="#999999" points="1383.62,-20.75 1219.88,-20.75 1219.88,0 1383.62,0 1383.62,-20.75"/>
<text text-anchor="middle" x="1301.75" y="-7.25" font-family="Helvetica,sans-Serif" font-size="10.00">llvm/Support/FormatVariadic.h</text>
</a>
</g>
</g>
<!-- Node1&#45;&gt;Node12 -->
<g id="edge15_Node000001_Node000012" class="edge">
<title>Node1&#45;&gt;Node12</title>
<g id="a_edge15_Node000001_Node000012"><a xlink:title=" ">
<path fill="none" stroke="#63b8ff" d="M601.43,-116.8C753.92,-93.85 1077.32,-45.16 1225.13,-22.91"/>
<polygon fill="#63b8ff" stroke="#63b8ff" points="1225.46,-26.4 1234.83,-21.45 1224.42,-19.48 1225.46,-26.4"/>
</a>
</g>
</g>
<!-- Node3 -->
<g id="Node000003" class="node">
<title>Node3</title>
<g id="a_Node000003"><a xlink:title=" ">
<polygon fill="#e0e0e0" stroke="#999999" points="299.5,-20.75 156,-20.75 156,0 299.5,0 299.5,-20.75"/>
<text text-anchor="middle" x="227.75" y="-7.25" font-family="Helvetica,sans-Serif" font-size="10.00">mlir/TableGen/Argument.h</text>
</a>
</g>
</g>
<!-- Node2&#45;&gt;Node3 -->
<g id="edge2_Node000002_Node000003" class="edge">
<title>Node2&#45;&gt;Node3</title>
<g id="a_edge2_Node000002_Node000003"><a xlink:title=" ">
<path fill="none" stroke="#63b8ff" d="M273.74,-56.34C266.01,-48.78 255.12,-38.14 245.88,-29.1"/>
<polygon fill="#63b8ff" stroke="#63b8ff" points="248.35,-26.62 238.76,-22.14 243.46,-31.63 248.35,-26.62"/>
</a>
</g>
</g>
<!-- Node2&#45;&gt;Node4 -->
<g id="edge3_Node000002_Node000004" class="edge">
<title>Node2&#45;&gt;Node4</title>
<g id="a_edge3_Node000002_Node000004"><a xlink:title=" ">
<path fill="none" stroke="#63b8ff" d="M245.31,-56.34C209.8,-47.29 156.86,-33.81 118.21,-23.97"/>
<polygon fill="#63b8ff" stroke="#63b8ff" points="119.24,-20.62 108.68,-21.54 117.51,-27.4 119.24,-20.62"/>
</a>
</g>
</g>
<!-- Node5 -->
<g id="Node000005" class="node">
<title>Node5</title>
<g id="a_Node000005"><a xlink:title=" ">
<polygon fill="#e0e0e0" stroke="#999999" points="361.62,-20.75 317.88,-20.75 317.88,0 361.62,0 361.62,-20.75"/>
<text text-anchor="middle" x="339.75" y="-7.25" font-family="Helvetica,sans-Serif" font-size="10.00">string</text>
</a>
</g>
</g>
<!-- Node2&#45;&gt;Node5 -->
<g id="edge4_Node000002_Node000005" class="edge">
<title>Node2&#45;&gt;Node5</title>
<g id="a_edge4_Node000002_Node000005"><a xlink:title=" ">
<path fill="none" stroke="#63b8ff" d="M293.76,-56.34C301.49,-48.78 312.38,-38.14 321.62,-29.1"/>
<polygon fill="#63b8ff" stroke="#63b8ff" points="324.04,-31.63 328.74,-22.14 319.15,-26.62 324.04,-31.63"/>
</a>
</g>
</g>
<!-- Node6&#45;&gt;Node5 -->
<g id="edge13_Node000006_Node000005" class="edge">
<title>Node6&#45;&gt;Node5</title>
<g id="a_edge13_Node000006_Node000005"><a xlink:title=" ">
<path fill="none" stroke="#63b8ff" d="M642.86,-61.08C579.57,-54.77 473.26,-42.38 373.21,-21"/>
<polygon fill="#63b8ff" stroke="#63b8ff" points="373.99,-17.58 363.47,-18.88 372.5,-24.42 373.99,-17.58"/>
</a>
</g>
</g>
<!-- Node7 -->
<g id="Node000007" class="node">
<title>Node7</title>
<g id="a_Node000007"><a xlink:title=" ">
<polygon fill="#e0e0e0" stroke="#999999" points="763.75,-20.75 633.75,-20.75 633.75,0 763.75,0 763.75,-20.75"/>
<text text-anchor="middle" x="698.75" y="-7.25" font-family="Helvetica,sans-Serif" font-size="10.00">mlir/TableGen/Dialect.h</text>
</a>
</g>
</g>
<!-- Node6&#45;&gt;Node7 -->
<g id="edge6_Node000006_Node000007" class="edge">
<title>Node6&#45;&gt;Node7</title>
<g id="a_edge6_Node000006_Node000007"><a xlink:title=" ">
<path fill="none" stroke="#63b8ff" d="M698.75,-56.34C698.75,-49.72 698.75,-40.72 698.75,-32.52"/>
<polygon fill="#63b8ff" stroke="#63b8ff" points="702.25,-32.59 698.75,-22.59 695.25,-32.59 702.25,-32.59"/>
</a>
</g>
</g>
<!-- Node8 -->
<g id="Node000008" class="node">
<title>Node8</title>
<g id="a_Node000008"><a xlink:title=" ">
<polygon fill="#e0e0e0" stroke="#999999" points="913.88,-20.75 781.62,-20.75 781.62,0 913.88,0 913.88,-20.75"/>
<text text-anchor="middle" x="847.75" y="-7.25" font-family="Helvetica,sans-Serif" font-size="10.00">llvm/ADT/StringExtras.h</text>
</a>
</g>
</g>
<!-- Node6&#45;&gt;Node8 -->
<g id="edge7_Node000006_Node000008" class="edge">
<title>Node6&#45;&gt;Node8</title>
<g id="a_edge7_Node000006_Node000008"><a xlink:title=" ">
<path fill="none" stroke="#63b8ff" d="M725.39,-56.34C749.05,-47.64 783.87,-34.85 810.32,-25.13"/>
<polygon fill="#63b8ff" stroke="#63b8ff" points="811.49,-28.43 819.67,-21.69 809.08,-21.86 811.49,-28.43"/>
</a>
</g>
</g>
<!-- Node9 -->
<g id="Node000009" class="node">
<title>Node9</title>
<g id="a_Node000009"><a xlink:title=" ">
<polygon fill="#e0e0e0" stroke="#999999" points="1049.38,-20.75 932.12,-20.75 932.12,0 1049.38,0 1049.38,-20.75"/>
<text text-anchor="middle" x="990.75" y="-7.25" font-family="Helvetica,sans-Serif" font-size="10.00">llvm/ADT/StringRef.h</text>
</a>
</g>
</g>
<!-- Node6&#45;&gt;Node9 -->
<g id="edge8_Node000006_Node000009" class="edge">
<title>Node6&#45;&gt;Node9</title>
<g id="a_edge8_Node000006_Node000009"><a xlink:title=" ">
<path fill="none" stroke="#63b8ff" d="M751.29,-56.27C800.55,-47.04 874.29,-33.21 926.91,-23.34"/>
<polygon fill="#63b8ff" stroke="#63b8ff" points="927.47,-26.8 936.65,-21.52 926.18,-19.92 927.47,-26.8"/>
</a>
</g>
</g>
<!-- Node10 -->
<g id="Node000010" class="node">
<title>Node10</title>
<g id="a_Node000010"><a xlink:title=" ">
<polygon fill="#e0e0e0" stroke="#999999" points="1201.62,-20.75 1067.88,-20.75 1067.88,0 1201.62,0 1201.62,-20.75"/>
<text text-anchor="middle" x="1134.75" y="-7.25" font-family="Helvetica,sans-Serif" font-size="10.00">llvm/ADT/StringSwitch.h</text>
</a>
</g>
</g>
<!-- Node6&#45;&gt;Node10 -->
<g id="edge9_Node000006_Node000010" class="edge">
<title>Node6&#45;&gt;Node10</title>
<g id="a_edge9_Node000006_Node000010"><a xlink:title=" ">
<path fill="none" stroke="#63b8ff" d="M754.86,-59.08C831.46,-49.46 969.15,-32.17 1056.04,-21.26"/>
<polygon fill="#63b8ff" stroke="#63b8ff" points="1056.44,-24.74 1065.92,-20.02 1055.56,-17.79 1056.44,-24.74"/>
</a>
</g>
</g>
<!-- Node11 -->
<g id="Node000011" class="node">
<title>Node11</title>
<g id="a_Node000011"><a xlink:title=" ">
<polygon fill="#e0e0e0" stroke="#999999" points="540.12,-20.75 379.38,-20.75 379.38,0 540.12,0 540.12,-20.75"/>
<text text-anchor="middle" x="459.75" y="-7.25" font-family="Helvetica,sans-Serif" font-size="10.00">llvm/Support/CommandLine.h</text>
</a>
</g>
</g>
<!-- Node6&#45;&gt;Node11 -->
<g id="edge10_Node000006_Node000011" class="edge">
<title>Node6&#45;&gt;Node11</title>
<g id="a_edge10_Node000006_Node000011"><a xlink:title=" ">
<path fill="none" stroke="#63b8ff" d="M655.75,-56.27C616.02,-47.17 556.84,-33.62 513.91,-23.78"/>
<polygon fill="#63b8ff" stroke="#63b8ff" points="514.82,-20.4 504.29,-21.58 513.25,-27.22 514.82,-20.4"/>
</a>
</g>
</g>
<!-- Node6&#45;&gt;Node12 -->
<g id="edge11_Node000006_Node000012" class="edge">
<title>Node6&#45;&gt;Node12</title>
<g id="a_edge11_Node000006_Node000012"><a xlink:title=" ">
<path fill="none" stroke="#63b8ff" d="M754.84,-61.42C847.04,-53.62 1036.71,-37.34 1208.15,-20.99"/>
<polygon fill="#63b8ff" stroke="#63b8ff" points="1208.29,-24.49 1217.91,-20.05 1207.62,-17.52 1208.29,-24.49"/>
</a>
</g>
</g>
<!-- Node13 -->
<g id="Node000013" class="node">
<title>Node13</title>
<g id="a_Node000013"><a xlink:title=" ">
<polygon fill="#e0e0e0" stroke="#999999" points="615.38,-20.75 558.12,-20.75 558.12,0 615.38,0 615.38,-20.75"/>
<text text-anchor="middle" x="586.75" y="-7.25" font-family="Helvetica,sans-Serif" font-size="10.00">memory</text>
</a>
</g>
</g>
<!-- Node6&#45;&gt;Node13 -->
<g id="edge12_Node000006_Node000013" class="edge">
<title>Node6&#45;&gt;Node13</title>
<g id="a_edge12_Node000006_Node000013"><a xlink:title=" ">
<path fill="none" stroke="#63b8ff" d="M678.73,-56.34C661.53,-47.93 636.47,-35.68 616.85,-26.09"/>
<polygon fill="#63b8ff" stroke="#63b8ff" points="618.48,-22.99 607.96,-21.74 615.41,-29.28 618.48,-22.99"/>
</a>
</g>
</g>
</g>
</svg>
