<?xml version="1.0" encoding="UTF-8" standalone="no"?>
<!DOCTYPE svg PUBLIC "-//W3C//DTD SVG 1.1//EN"
 "http://www.w3.org/Graphics/SVG/1.1/DTD/svg11.dtd">
<!-- Generated by graphviz version 12.2.1 (0)
 -->
<!-- Title: tools/llzk&#45;tblgen/OpCAPITestGen.cpp Pages: 1 -->
<svg width="1648pt" height="155pt"
 viewBox="0.00 0.00 1648.12 155.00" xmlns="http://www.w3.org/2000/svg" xmlns:xlink="http://www.w3.org/1999/xlink">
<g id="graph0" class="graph" transform="scale(1 1) rotate(0) translate(4 151)">
<title>tools/llzk&#45;tblgen/OpCAPITestGen.cpp</title>
<!-- Node1 -->
<g id="Node000001" class="node">
<title>Node1</title>
<g id="a_Node000001"><a xlink:title=" ">
<polygon fill="#999999" stroke="#666666" points="1112.75,-147 959.5,-147 959.5,-113.5 1112.75,-113.5 1112.75,-147"/>
<text text-anchor="start" x="967.5" y="-133.5" font-family="Helvetica,sans-Serif" font-size="10.00">tools/llzk&#45;tblgen/OpCAPITest</text>
<text text-anchor="middle" x="1036.12" y="-120.75" font-family="Helvetica,sans-Serif" font-size="10.00">Gen.cpp</text>
</a>
</g>
</g>
<!-- Node2 -->
<g id="Node000002" class="node">
<title>Node2</title>
<g id="a_Node000002"><a xlink:href="CommonCAPIGen_8h.html" target="_top" xlink:title=" ">
<polygon fill="white" stroke="#666666" points="640.75,-77.5 529.5,-77.5 529.5,-56.75 640.75,-56.75 640.75,-77.5"/>
<text text-anchor="middle" x="585.12" y="-64" font-family="Helvetica,sans-Serif" font-size="10.00">CommonCAPIGen.h</text>
</a>
</g>
</g>
<!-- Node1&#45;&gt;Node2 -->
<g id="edge1_Node000001_Node000002" class="edge">
<title>Node1&#45;&gt;Node2</title>
<g id="a_edge1_Node000001_Node000002"><a xlink:title=" ">
<path fill="none" stroke="#63b8ff" d="M959.11,-118.81C872.85,-107.12 734.4,-88.36 652.35,-77.24"/>
<polygon fill="#63b8ff" stroke="#63b8ff" points="653.04,-73.8 642.66,-75.92 652.1,-80.73 653.04,-73.8"/>
</a>
</g>
</g>
<!-- Node4 -->
<g id="Node000004" class="node">
<title>Node4</title>
<g id="a_Node000004"><a xlink:title=" ">
<polygon fill="#e0e0e0" stroke="#999999" points="132.25,-20.75 0,-20.75 0,0 132.25,0 132.25,-20.75"/>
<text text-anchor="middle" x="66.12" y="-7.25" font-family="Helvetica,sans-Serif" font-size="10.00">llvm/ADT/StringExtras.h</text>
</a>
</g>
</g>
<!-- Node1&#45;&gt;Node4 -->
<g id="edge16_Node000001_Node000004" class="edge">
<title>Node1&#45;&gt;Node4</title>
<g id="a_edge16_Node000001_Node000004"><a xlink:title=" ">
<path fill="none" stroke="#63b8ff" d="M959.07,-122.61C858.11,-113.65 675.61,-96.61 520.12,-77.5 385.18,-60.91 228.34,-37.05 138.8,-22.98"/>
<polygon fill="#63b8ff" stroke="#63b8ff" points="139.61,-19.57 129.19,-21.47 138.52,-26.48 139.61,-19.57"/>
</a>
</g>
</g>
<!-- Node7 -->
<g id="Node000007" class="node">
<title>Node7</title>
<g id="a_Node000007"><a xlink:title=" ">
<polygon fill="#e0e0e0" stroke="#999999" points="822.5,-20.75 661.75,-20.75 661.75,0 822.5,0 822.5,-20.75"/>
<text text-anchor="middle" x="742.12" y="-7.25" font-family="Helvetica,sans-Serif" font-size="10.00">llvm/Support/CommandLine.h</text>
</a>
</g>
</g>
<!-- Node1&#45;&gt;Node7 -->
<g id="edge17_Node000001_Node000007" class="edge">
<title>Node1&#45;&gt;Node7</title>
<g id="a_edge17_Node000001_Node000007"><a xlink:title=" ">
<path fill="none" stroke="#63b8ff" d="M995.86,-113.11C937.89,-89.87 831.88,-47.36 777.04,-25.38"/>
<polygon fill="#63b8ff" stroke="#63b8ff" points="778.46,-22.17 767.88,-21.7 775.86,-28.67 778.46,-22.17"/>
</a>
</g>
</g>
<!-- Node8 -->
<g id="Node000008" class="node">
<title>Node8</title>
<g id="a_Node000008"><a xlink:title=" ">
<polygon fill="#e0e0e0" stroke="#999999" points="1004,-20.75 840.25,-20.75 840.25,0 1004,0 1004,-20.75"/>
<text text-anchor="middle" x="922.12" y="-7.25" font-family="Helvetica,sans-Serif" font-size="10.00">llvm/Support/FormatVariadic.h</text>
</a>
</g>
</g>
<!-- Node1&#45;&gt;Node8 -->
<g id="edge18_Node000001_Node000008" class="edge">
<title>Node1&#45;&gt;Node8</title>
<g id="a_edge18_Node000001_Node000008"><a xlink:title=" ">
<path fill="none" stroke="#63b8ff" d="M1009.34,-113.11C995.2,-103.8 978.14,-91.23 965.12,-77.5 951.89,-63.54 940.24,-45 932.41,-31.1"/>
<polygon fill="#63b8ff" stroke="#63b8ff" points="935.57,-29.57 927.72,-22.45 929.41,-32.91 935.57,-29.57"/>
</a>
</g>
</g>
<!-- Node11 -->
<g id="Node000011" class="node">
<title>Node11</title>
<g id="a_Node000011"><a xlink:href="OpCAPIParamHelper_8h.html" target="_top" xlink:title=" ">
<polygon fill="white" stroke="#666666" points="1097.75,-77.5 974.5,-77.5 974.5,-56.75 1097.75,-56.75 1097.75,-77.5"/>
<text text-anchor="middle" x="1036.12" y="-64" font-family="Helvetica,sans-Serif" font-size="10.00">OpCAPIParamHelper.h</text>
</a>
</g>
</g>
<!-- Node1&#45;&gt;Node11 -->
<g id="edge10_Node000001_Node000011" class="edge">
<title>Node1&#45;&gt;Node11</title>
<g id="a_edge10_Node000001_Node000011"><a xlink:title=" ">
<path fill="none" stroke="#63b8ff" d="M1036.12,-113.19C1036.12,-105.85 1036.12,-97.07 1036.12,-89.21"/>
<polygon fill="#63b8ff" stroke="#63b8ff" points="1039.63,-89.48 1036.13,-79.48 1032.63,-89.48 1039.63,-89.48"/>
</a>
</g>
</g>
<!-- Node13 -->
<g id="Node000013" class="node">
<title>Node13</title>
<g id="a_Node000013"><a xlink:title=" ">
<polygon fill="#e0e0e0" stroke="#999999" points="1383.88,-20.75 1246.38,-20.75 1246.38,0 1383.88,0 1383.88,-20.75"/>
<text text-anchor="middle" x="1315.12" y="-7.25" font-family="Helvetica,sans-Serif" font-size="10.00">mlir/TableGen/Operator.h</text>
</a>
</g>
</g>
<!-- Node1&#45;&gt;Node13 -->
<g id="edge15_Node000001_Node000013" class="edge">
<title>Node1&#45;&gt;Node13</title>
<g id="a_edge15_Node000001_Node000013"><a xlink:title=" ">
<path fill="none" stroke="#63b8ff" d="M1058.34,-113.22C1084.73,-94.41 1127.41,-64.74 1145.12,-56.75 1178.13,-41.86 1217.01,-31.03 1249.26,-23.69"/>
<polygon fill="#63b8ff" stroke="#63b8ff" points="1249.87,-27.14 1258.89,-21.57 1248.37,-20.31 1249.87,-27.14"/>
</a>
</g>
</g>
<!-- Node14 -->
<g id="Node000014" class="node">
<title>Node14</title>
<g id="a_Node000014"><a xlink:title=" ">
<polygon fill="#e0e0e0" stroke="#999999" points="1288,-77.5 1154.25,-77.5 1154.25,-56.75 1288,-56.75 1288,-77.5"/>
<text text-anchor="middle" x="1221.12" y="-64" font-family="Helvetica,sans-Serif" font-size="10.00">mlir/TableGen/GenInfo.h</text>
</a>
</g>
</g>
<!-- Node1&#45;&gt;Node14 -->
<g id="edge14_Node000001_Node000014" class="edge">
<title>Node1&#45;&gt;Node14</title>
<g id="a_edge14_Node000001_Node000014"><a xlink:title=" ">
<path fill="none" stroke="#63b8ff" d="M1085.22,-113.03C1115.08,-103.16 1152.75,-90.72 1180.85,-81.43"/>
<polygon fill="#63b8ff" stroke="#63b8ff" points="1181.66,-84.85 1190.06,-78.39 1179.46,-78.2 1181.66,-84.85"/>
</a>
</g>
</g>
<!-- Node15 -->
<g id="Node000015" class="node">
<title>Node15</title>
<g id="a_Node000015"><a xlink:title=" ">
<polygon fill="#e0e0e0" stroke="#999999" points="1437.88,-77.5 1306.38,-77.5 1306.38,-56.75 1437.88,-56.75 1437.88,-77.5"/>
<text text-anchor="middle" x="1372.12" y="-64" font-family="Helvetica,sans-Serif" font-size="10.00">llvm/TableGen/Record.h</text>
</a>
</g>
</g>
<!-- Node1&#45;&gt;Node15 -->
<g id="edge19_Node000001_Node000015" class="edge">
<title>Node1&#45;&gt;Node15</title>
<g id="a_edge19_Node000001_Node000015"><a xlink:title=" ">
<path fill="none" stroke="#63b8ff" d="M1113.21,-115.23C1171.76,-104.58 1251.38,-90.09 1306.81,-80.01"/>
<polygon fill="#63b8ff" stroke="#63b8ff" points="1307.21,-83.49 1316.42,-78.26 1305.96,-76.6 1307.21,-83.49"/>
</a>
</g>
</g>
<!-- Node16 -->
<g id="Node000016" class="node">
<title>Node16</title>
<g id="a_Node000016"><a xlink:title=" ">
<polygon fill="#e0e0e0" stroke="#999999" points="1640.12,-77.5 1456.12,-77.5 1456.12,-56.75 1640.12,-56.75 1640.12,-77.5"/>
<text text-anchor="middle" x="1548.12" y="-64" font-family="Helvetica,sans-Serif" font-size="10.00">llvm/TableGen/TableGenBackend.h</text>
</a>
</g>
</g>
<!-- Node1&#45;&gt;Node16 -->
<g id="edge20_Node000001_Node000016" class="edge">
<title>Node1&#45;&gt;Node16</title>
<g id="a_edge20_Node000001_Node000016"><a xlink:title=" ">
<path fill="none" stroke="#63b8ff" d="M1113.05,-120.07C1204.22,-109.18 1356.09,-91.05 1454.13,-79.35"/>
<polygon fill="#63b8ff" stroke="#63b8ff" points="1454.5,-82.83 1464.02,-78.17 1453.67,-75.88 1454.5,-82.83"/>
</a>
</g>
</g>
<!-- Node3 -->
<g id="Node000003" class="node">
<title>Node3</title>
<g id="a_Node000003"><a xlink:title=" ">
<polygon fill="#e0e0e0" stroke="#999999" points="508.12,-20.75 378.12,-20.75 378.12,0 508.12,0 508.12,-20.75"/>
<text text-anchor="middle" x="443.12" y="-7.25" font-family="Helvetica,sans-Serif" font-size="10.00">mlir/TableGen/Dialect.h</text>
</a>
</g>
</g>
<!-- Node2&#45;&gt;Node3 -->
<g id="edge2_Node000002_Node000003" class="edge">
<title>Node2&#45;&gt;Node3</title>
<g id="a_edge2_Node000002_Node000003"><a xlink:title=" ">
<path fill="none" stroke="#63b8ff" d="M559.74,-56.34C537.22,-47.66 504.1,-34.88 478.9,-25.17"/>
<polygon fill="#63b8ff" stroke="#63b8ff" points="480.29,-21.95 469.7,-21.62 477.78,-28.49 480.29,-21.95"/>
</a>
</g>
</g>
<!-- Node2&#45;&gt;Node4 -->
<g id="edge3_Node000002_Node000004" class="edge">
<title>Node2&#45;&gt;Node4</title>
<g id="a_edge3_Node000002_Node000004"><a xlink:title=" ">
<path fill="none" stroke="#63b8ff" d="M529.01,-60.8C446.87,-52.91 288.77,-37.39 143.68,-21.02"/>
<polygon fill="#63b8ff" stroke="#63b8ff" points="144.2,-17.56 133.87,-19.91 143.42,-24.51 144.2,-17.56"/>
</a>
</g>
</g>
<!-- Node5 -->
<g id="Node000005" class="node">
<title>Node5</title>
<g id="a_Node000005"><a xlink:title=" ">
<polygon fill="#e0e0e0" stroke="#999999" points="643.75,-20.75 526.5,-20.75 526.5,0 643.75,0 643.75,-20.75"/>
<text text-anchor="middle" x="585.12" y="-7.25" font-family="Helvetica,sans-Serif" font-size="10.00">llvm/ADT/StringRef.h</text>
</a>
</g>
</g>
<!-- Node2&#45;&gt;Node5 -->
<g id="edge4_Node000002_Node000005" class="edge">
<title>Node2&#45;&gt;Node5</title>
<g id="a_edge4_Node000002_Node000005"><a xlink:title=" ">
<path fill="none" stroke="#63b8ff" d="M585.12,-56.34C585.12,-49.72 585.12,-40.72 585.12,-32.52"/>
<polygon fill="#63b8ff" stroke="#63b8ff" points="588.63,-32.59 585.13,-22.59 581.63,-32.59 588.63,-32.59"/>
</a>
</g>
</g>
<!-- Node6 -->
<g id="Node000006" class="node">
<title>Node6</title>
<g id="a_Node000006"><a xlink:title=" ">
<polygon fill="#e0e0e0" stroke="#999999" points="284,-20.75 150.25,-20.75 150.25,0 284,0 284,-20.75"/>
<text text-anchor="middle" x="217.12" y="-7.25" font-family="Helvetica,sans-Serif" font-size="10.00">llvm/ADT/StringSwitch.h</text>
</a>
</g>
</g>
<!-- Node2&#45;&gt;Node6 -->
<g id="edge5_Node000002_Node000006" class="edge">
<title>Node2&#45;&gt;Node6</title>
<g id="a_edge5_Node000002_Node000006"><a xlink:title=" ">
<path fill="none" stroke="#63b8ff" d="M529.23,-57.81C466.54,-48.48 364.44,-33.29 294.2,-22.84"/>
<polygon fill="#63b8ff" stroke="#63b8ff" points="295.11,-19.44 284.7,-21.43 294.08,-26.36 295.11,-19.44"/>
</a>
</g>
</g>
<!-- Node2&#45;&gt;Node7 -->
<g id="edge6_Node000002_Node000007" class="edge">
<title>Node2&#45;&gt;Node7</title>
<g id="a_edge6_Node000002_Node000007"><a xlink:title=" ">
<path fill="none" stroke="#63b8ff" d="M613.19,-56.34C638.34,-47.57 675.47,-34.62 703.43,-24.87"/>
<polygon fill="#63b8ff" stroke="#63b8ff" points="704.32,-28.27 712.61,-21.67 702.01,-21.66 704.32,-28.27"/>
</a>
</g>
</g>
<!-- Node2&#45;&gt;Node8 -->
<g id="edge7_Node000002_Node000008" class="edge">
<title>Node2&#45;&gt;Node8</title>
<g id="a_edge7_Node000002_Node000008"><a xlink:title=" ">
<path fill="none" stroke="#63b8ff" d="M641.15,-57.02C698.42,-47.72 787.57,-33.23 850.06,-23.08"/>
<polygon fill="#63b8ff" stroke="#63b8ff" points="850.6,-26.54 859.91,-21.48 849.48,-19.63 850.6,-26.54"/>
</a>
</g>
</g>
<!-- Node9 -->
<g id="Node000009" class="node">
<title>Node9</title>
<g id="a_Node000009"><a xlink:title=" ">
<polygon fill="#e0e0e0" stroke="#999999" points="359.75,-20.75 302.5,-20.75 302.5,0 359.75,0 359.75,-20.75"/>
<text text-anchor="middle" x="331.12" y="-7.25" font-family="Helvetica,sans-Serif" font-size="10.00">memory</text>
</a>
</g>
</g>
<!-- Node2&#45;&gt;Node9 -->
<g id="edge8_Node000002_Node000009" class="edge">
<title>Node2&#45;&gt;Node9</title>
<g id="a_edge8_Node000002_Node000009"><a xlink:title=" ">
<path fill="none" stroke="#63b8ff" d="M535.69,-56.25C494.32,-47.87 433.47,-35.28 371.35,-21.2"/>
<polygon fill="#63b8ff" stroke="#63b8ff" points="372.15,-17.79 361.62,-18.98 370.59,-24.62 372.15,-17.79"/>
</a>
</g>
</g>
<!-- Node10 -->
<g id="Node000010" class="node">
<title>Node10</title>
<g id="a_Node000010"><a xlink:title=" ">
<polygon fill="#e0e0e0" stroke="#999999" points="1066,-20.75 1022.25,-20.75 1022.25,0 1066,0 1066,-20.75"/>
<text text-anchor="middle" x="1044.12" y="-7.25" font-family="Helvetica,sans-Serif" font-size="10.00">string</text>
</a>
</g>
</g>
<!-- Node2&#45;&gt;Node10 -->
<g id="edge9_Node000002_Node000010" class="edge">
<title>Node2&#45;&gt;Node10</title>
<g id="a_edge9_Node000002_Node000010"><a xlink:title=" ">
<path fill="none" stroke="#63b8ff" d="M641.04,-63.56C721.09,-59.14 873.02,-48.03 1010.75,-20.88"/>
<polygon fill="#63b8ff" stroke="#63b8ff" points="1011.3,-24.34 1020.42,-18.94 1009.92,-17.48 1011.3,-24.34"/>
</a>
</g>
</g>
<!-- Node11&#45;&gt;Node10 -->
<g id="edge13_Node000011_Node000010" class="edge">
<title>Node11&#45;&gt;Node10</title>
<g id="a_edge13_Node000011_Node000010"><a xlink:title=" ">
<path fill="none" stroke="#63b8ff" d="M1037.56,-56.34C1038.53,-49.64 1039.87,-40.51 1041.08,-32.23"/>
<polygon fill="#63b8ff" stroke="#63b8ff" points="1044.51,-32.98 1042.49,-22.58 1037.58,-31.96 1044.51,-32.98"/>
</a>
</g>
</g>
<!-- Node12 -->
<g id="Node000012" class="node">
<title>Node12</title>
<g id="a_Node000012"><a xlink:title=" ">
<polygon fill="#e0e0e0" stroke="#999999" points="1227.88,-20.75 1084.38,-20.75 1084.38,0 1227.88,0 1227.88,-20.75"/>
<text text-anchor="middle" x="1156.12" y="-7.25" font-family="Helvetica,sans-Serif" font-size="10.00">mlir/TableGen/Argument.h</text>
</a>
</g>
</g>
<!-- Node11&#45;&gt;Node12 -->
<g id="edge11_Node000011_Node000012" class="edge">
<title>Node11&#45;&gt;Node12</title>
<g id="a_edge11_Node000011_Node000012"><a xlink:title=" ">
<path fill="none" stroke="#63b8ff" d="M1057.58,-56.34C1076.18,-47.85 1103.35,-35.45 1124.45,-25.83"/>
<polygon fill="#63b8ff" stroke="#63b8ff" points="1125.84,-29.04 1133.48,-21.71 1122.93,-22.67 1125.84,-29.04"/>
</a>
</g>
</g>
<!-- Node11&#45;&gt;Node13 -->
<g id="edge12_Node000011_Node000013" class="edge">
<title>Node11&#45;&gt;Node13</title>
<g id="a_edge12_Node000011_Node000013"><a xlink:title=" ">
<path fill="none" stroke="#63b8ff" d="M1086.33,-56.27C1133.29,-47.06 1203.55,-33.27 1253.81,-23.41"/>
<polygon fill="#63b8ff" stroke="#63b8ff" points="1254.23,-26.89 1263.37,-21.53 1252.88,-20.02 1254.23,-26.89"/>
</a>
</g>
</g>
</g>
</svg>
