<?xml version="1.0" encoding="UTF-8" standalone="no"?>
<!DOCTYPE svg PUBLIC "-//W3C//DTD SVG 1.1//EN"
 "http://www.w3.org/Graphics/SVG/1.1/DTD/svg11.dtd">
<!-- Generated by graphviz version 12.2.1 (0)
 -->
<!-- Title: tools/llzk&#45;tblgen/OpCAPIParamHelper.h Pages: 1 -->
<svg width="370pt" height="98pt"
 viewBox="0.00 0.00 369.62 98.25" xmlns="http://www.w3.org/2000/svg" xmlns:xlink="http://www.w3.org/1999/xlink">
<g id="graph0" class="graph" transform="scale(1 1) rotate(0) translate(4 94.25)">
<title>tools/llzk&#45;tblgen/OpCAPIParamHelper.h</title>
<!-- Node1 -->
<g id="Node000001" class="node">
<title>Node1</title>
<g id="a_Node000001"><a xlink:title=" ">
<polygon fill="#999999" stroke="#666666" points="313,-90.25 148.5,-90.25 148.5,-56.75 313,-56.75 313,-90.25"/>
<text text-anchor="start" x="156.5" y="-76.75" font-family="Helvetica,sans-Serif" font-size="10.00">tools/llzk&#45;tblgen/OpCAPIParam</text>
<text text-anchor="middle" x="230.75" y="-64" font-family="Helvetica,sans-Serif" font-size="10.00">Helper.h</text>
</a>
</g>
</g>
<!-- Node2 -->
<g id="Node000002" class="node">
<title>Node2</title>
<g id="a_Node000002"><a xlink:title=" ">
<polygon fill="#e0e0e0" stroke="#999999" points="143.5,-20.75 0,-20.75 0,0 143.5,0 143.5,-20.75"/>
<text text-anchor="middle" x="71.75" y="-7.25" font-family="Helvetica,sans-Serif" font-size="10.00">mlir/TableGen/Argument.h</text>
</a>
</g>
</g>
<!-- Node1&#45;&gt;Node2 -->
<g id="edge1_Node000001_Node000002" class="edge">
<title>Node1&#45;&gt;Node2</title>
<g id="a_edge1_Node000001_Node000002"><a xlink:title=" ">
<path fill="none" stroke="#63b8ff" d="M188.56,-56.28C163.35,-46.59 131.66,-34.41 107.66,-25.18"/>
<polygon fill="#63b8ff" stroke="#63b8ff" points="109.22,-22.03 98.63,-21.71 106.71,-28.56 109.22,-22.03"/>
</a>
</g>
</g>
<!-- Node3 -->
<g id="Node000003" class="node">
<title>Node3</title>
<g id="a_Node000003"><a xlink:title=" ">
<polygon fill="#e0e0e0" stroke="#999999" points="299.5,-20.75 162,-20.75 162,0 299.5,0 299.5,-20.75"/>
<text text-anchor="middle" x="230.75" y="-7.25" font-family="Helvetica,sans-Serif" font-size="10.00">mlir/TableGen/Operator.h</text>
</a>
</g>
</g>
<!-- Node1&#45;&gt;Node3 -->
<g id="edge2_Node000001_Node000003" class="edge">
<title>Node1&#45;&gt;Node3</title>
<g id="a_edge2_Node000001_Node000003"><a xlink:title=" ">
<path fill="none" stroke="#63b8ff" d="M230.75,-56.44C230.75,-49.1 230.75,-40.32 230.75,-32.46"/>
<polygon fill="#63b8ff" stroke="#63b8ff" points="234.25,-32.73 230.75,-22.73 227.25,-32.73 234.25,-32.73"/>
</a>
</g>
</g>
<!-- Node4 -->
<g id="Node000004" class="node">
<title>Node4</title>
<g id="a_Node000004"><a xlink:title=" ">
<polygon fill="#e0e0e0" stroke="#999999" points="361.62,-20.75 317.88,-20.75 317.88,0 361.62,0 361.62,-20.75"/>
<text text-anchor="middle" x="339.75" y="-7.25" font-family="Helvetica,sans-Serif" font-size="10.00">string</text>
</a>
</g>
</g>
<!-- Node1&#45;&gt;Node4 -->
<g id="edge3_Node000001_Node000004" class="edge">
<title>Node1&#45;&gt;Node4</title>
<g id="a_edge3_Node000001_Node000004"><a xlink:title=" ">
<path fill="none" stroke="#63b8ff" d="M259.67,-56.28C276.02,-47.11 296.34,-35.72 312.42,-26.7"/>
<polygon fill="#63b8ff" stroke="#63b8ff" points="313.96,-29.85 320.97,-21.91 310.54,-23.74 313.96,-29.85"/>
</a>
</g>
</g>
</g>
</svg>
