<?xml version="1.0" encoding="UTF-8" standalone="no"?>
<!DOCTYPE svg PUBLIC "-//W3C//DTD SVG 1.1//EN"
 "http://www.w3.org/Graphics/SVG/1.1/DTD/svg11.dtd">
<!-- Generated by graphviz version 12.2.1 (0)
 -->
<!-- Title: tools/llzk&#45;tblgen/OpCAPIGen.cpp Pages: 1 -->
<svg width="1927pt" height="142pt"
 viewBox="0.00 0.00 1927.38 142.25" xmlns="http://www.w3.org/2000/svg" xmlns:xlink="http://www.w3.org/1999/xlink">
<g id="graph0" class="graph" transform="scale(1 1) rotate(0) translate(4 138.25)">
<title>tools/llzk&#45;tblgen/OpCAPIGen.cpp</title>
<!-- Node1 -->
<g id="Node000001" class="node">
<title>Node1</title>
<g id="a_Node000001"><a xlink:title=" ">
<polygon fill="#999999" stroke="#666666" points="1289.75,-134.25 1116.25,-134.25 1116.25,-113.5 1289.75,-113.5 1289.75,-134.25"/>
<text text-anchor="middle" x="1203" y="-120.75" font-family="Helvetica,sans-Serif" font-size="10.00">tools/llzk&#45;tblgen/OpCAPIGen.cpp</text>
</a>
</g>
</g>
<!-- Node2 -->
<g id="Node000002" class="node">
<title>Node2</title>
<g id="a_Node000002"><a xlink:href="CommonCAPIGen_8h.html" target="_top" xlink:title=" ">
<polygon fill="white" stroke="#666666" points="670.62,-77.5 559.38,-77.5 559.38,-56.75 670.62,-56.75 670.62,-77.5"/>
<text text-anchor="middle" x="615" y="-64" font-family="Helvetica,sans-Serif" font-size="10.00">CommonCAPIGen.h</text>
</a>
</g>
</g>
<!-- Node1&#45;&gt;Node2 -->
<g id="edge1_Node000001_Node000002" class="edge">
<title>Node1&#45;&gt;Node2</title>
<g id="a_edge1_Node000001_Node000002"><a xlink:title=" ">
<path fill="none" stroke="#63b8ff" d="M1115.92,-114.77C997.79,-103.77 789.24,-84.35 682.33,-74.39"/>
<polygon fill="#63b8ff" stroke="#63b8ff" points="682.84,-70.93 672.56,-73.48 682.19,-77.9 682.84,-70.93"/>
</a>
</g>
</g>
<!-- Node7 -->
<g id="Node000007" class="node">
<title>Node7</title>
<g id="a_Node000007"><a xlink:title=" ">
<polygon fill="#e0e0e0" stroke="#999999" points="822.38,-20.75 661.62,-20.75 661.62,0 822.38,0 822.38,-20.75"/>
<text text-anchor="middle" x="742" y="-7.25" font-family="Helvetica,sans-Serif" font-size="10.00">llvm/Support/CommandLine.h</text>
</a>
</g>
</g>
<!-- Node1&#45;&gt;Node7 -->
<g id="edge16_Node000001_Node000007" class="edge">
<title>Node1&#45;&gt;Node7</title>
<g id="a_edge16_Node000001_Node000007"><a xlink:title=" ">
<path fill="none" stroke="#63b8ff" d="M1151.95,-113.08C1107.86,-104.41 1042.51,-91.05 986,-77.5 915.92,-60.69 835.35,-38.24 786.58,-24.3"/>
<polygon fill="#63b8ff" stroke="#63b8ff" points="787.82,-21.01 777.24,-21.62 785.89,-27.74 787.82,-21.01"/>
</a>
</g>
</g>
<!-- Node8 -->
<g id="Node000008" class="node">
<title>Node8</title>
<g id="a_Node000008"><a xlink:title=" ">
<polygon fill="#e0e0e0" stroke="#999999" points="1003.88,-20.75 840.12,-20.75 840.12,0 1003.88,0 1003.88,-20.75"/>
<text text-anchor="middle" x="922" y="-7.25" font-family="Helvetica,sans-Serif" font-size="10.00">llvm/Support/FormatVariadic.h</text>
</a>
</g>
</g>
<!-- Node1&#45;&gt;Node8 -->
<g id="edge17_Node000001_Node000008" class="edge">
<title>Node1&#45;&gt;Node8</title>
<g id="a_edge17_Node000001_Node000008"><a xlink:title=" ">
<path fill="none" stroke="#63b8ff" d="M1150.15,-113.05C1115.45,-105.61 1069.52,-93.86 1031,-77.5 999.17,-63.98 965.59,-42.33 944.25,-27.51"/>
<polygon fill="#63b8ff" stroke="#63b8ff" points="946.51,-24.83 936.33,-21.92 942.48,-30.54 946.51,-24.83"/>
</a>
</g>
</g>
<!-- Node10 -->
<g id="Node000010" class="node">
<title>Node10</title>
<g id="a_Node000010"><a xlink:title=" ">
<polygon fill="#e0e0e0" stroke="#999999" points="1065.88,-20.75 1022.12,-20.75 1022.12,0 1065.88,0 1065.88,-20.75"/>
<text text-anchor="middle" x="1044" y="-7.25" font-family="Helvetica,sans-Serif" font-size="10.00">string</text>
</a>
</g>
</g>
<!-- Node1&#45;&gt;Node10 -->
<g id="edge21_Node000001_Node000010" class="edge">
<title>Node1&#45;&gt;Node10</title>
<g id="a_edge21_Node000001_Node000010"><a xlink:title=" ">
<path fill="none" stroke="#63b8ff" d="M1139.62,-113.02C1099.94,-105.41 1054.1,-93.48 1042,-77.5 1032.25,-64.62 1033.82,-45.94 1037.21,-31.72"/>
<polygon fill="#63b8ff" stroke="#63b8ff" points="1040.46,-33.07 1039.86,-22.5 1033.73,-31.14 1040.46,-33.07"/>
</a>
</g>
</g>
<!-- Node11 -->
<g id="Node000011" class="node">
<title>Node11</title>
<g id="a_Node000011"><a xlink:href="OpCAPIParamHelper_8h.html" target="_top" xlink:title=" ">
<polygon fill="white" stroke="#666666" points="1174.62,-77.5 1051.38,-77.5 1051.38,-56.75 1174.62,-56.75 1174.62,-77.5"/>
<text text-anchor="middle" x="1113" y="-64" font-family="Helvetica,sans-Serif" font-size="10.00">OpCAPIParamHelper.h</text>
</a>
</g>
</g>
<!-- Node1&#45;&gt;Node11 -->
<g id="edge10_Node000001_Node000011" class="edge">
<title>Node1&#45;&gt;Node11</title>
<g id="a_edge10_Node000001_Node000011"><a xlink:title=" ">
<path fill="none" stroke="#63b8ff" d="M1186.91,-113.09C1173.47,-104.91 1154.07,-93.11 1138.51,-83.65"/>
<polygon fill="#63b8ff" stroke="#63b8ff" points="1140.61,-80.82 1130.24,-78.62 1136.97,-86.8 1140.61,-80.82"/>
</a>
</g>
</g>
<!-- Node13 -->
<g id="Node000013" class="node">
<title>Node13</title>
<g id="a_Node000013"><a xlink:title=" ">
<polygon fill="#e0e0e0" stroke="#999999" points="1383.75,-20.75 1246.25,-20.75 1246.25,0 1383.75,0 1383.75,-20.75"/>
<text text-anchor="middle" x="1315" y="-7.25" font-family="Helvetica,sans-Serif" font-size="10.00">mlir/TableGen/Operator.h</text>
</a>
</g>
</g>
<!-- Node1&#45;&gt;Node13 -->
<g id="edge15_Node000001_Node000013" class="edge">
<title>Node1&#45;&gt;Node13</title>
<g id="a_edge15_Node000001_Node000013"><a xlink:title=" ">
<path fill="none" stroke="#63b8ff" d="M1203.37,-113.21C1204.4,-99.22 1208.18,-73.22 1222,-56.75 1233.94,-42.53 1251.4,-32.39 1267.97,-25.36"/>
<polygon fill="#63b8ff" stroke="#63b8ff" points="1269.22,-28.63 1277.26,-21.73 1266.67,-22.11 1269.22,-28.63"/>
</a>
</g>
</g>
<!-- Node14 -->
<g id="Node000014" class="node">
<title>Node14</title>
<g id="a_Node000014"><a xlink:title=" ">
<polygon fill="#e0e0e0" stroke="#999999" points="1364.88,-77.5 1231.12,-77.5 1231.12,-56.75 1364.88,-56.75 1364.88,-77.5"/>
<text text-anchor="middle" x="1298" y="-64" font-family="Helvetica,sans-Serif" font-size="10.00">mlir/TableGen/GenInfo.h</text>
</a>
</g>
</g>
<!-- Node1&#45;&gt;Node14 -->
<g id="edge14_Node000001_Node000014" class="edge">
<title>Node1&#45;&gt;Node14</title>
<g id="a_edge14_Node000001_Node000014"><a xlink:title=" ">
<path fill="none" stroke="#63b8ff" d="M1219.98,-113.09C1234.3,-104.83 1255.04,-92.88 1271.54,-83.38"/>
<polygon fill="#63b8ff" stroke="#63b8ff" points="1272.94,-86.61 1279.85,-78.58 1269.44,-80.55 1272.94,-86.61"/>
</a>
</g>
</g>
<!-- Node15 -->
<g id="Node000015" class="node">
<title>Node15</title>
<g id="a_Node000015"><a xlink:title=" ">
<polygon fill="#e0e0e0" stroke="#999999" points="1503.12,-77.5 1382.88,-77.5 1382.88,-56.75 1503.12,-56.75 1503.12,-77.5"/>
<text text-anchor="middle" x="1443" y="-64" font-family="Helvetica,sans-Serif" font-size="10.00">llvm/TableGen/Error.h</text>
</a>
</g>
</g>
<!-- Node1&#45;&gt;Node15 -->
<g id="edge18_Node000001_Node000015" class="edge">
<title>Node1&#45;&gt;Node15</title>
<g id="a_edge18_Node000001_Node000015"><a xlink:title=" ">
<path fill="none" stroke="#63b8ff" d="M1246.18,-113.02C1286.08,-103.92 1345.5,-90.37 1388.62,-80.53"/>
<polygon fill="#63b8ff" stroke="#63b8ff" points="1389.31,-83.96 1398.28,-78.33 1387.75,-77.14 1389.31,-83.96"/>
</a>
</g>
</g>
<!-- Node16 -->
<g id="Node000016" class="node">
<title>Node16</title>
<g id="a_Node000016"><a xlink:title=" ">
<polygon fill="#e0e0e0" stroke="#999999" points="1652.75,-77.5 1521.25,-77.5 1521.25,-56.75 1652.75,-56.75 1652.75,-77.5"/>
<text text-anchor="middle" x="1587" y="-64" font-family="Helvetica,sans-Serif" font-size="10.00">llvm/TableGen/Record.h</text>
</a>
</g>
</g>
<!-- Node1&#45;&gt;Node16 -->
<g id="edge19_Node000001_Node000016" class="edge">
<title>Node1&#45;&gt;Node16</title>
<g id="a_edge19_Node000001_Node000016"><a xlink:title=" ">
<path fill="none" stroke="#63b8ff" d="M1272.09,-113.02C1338.98,-103.49 1440.2,-89.06 1509.72,-79.14"/>
<polygon fill="#63b8ff" stroke="#63b8ff" points="1510.12,-82.62 1519.53,-77.75 1509.13,-75.69 1510.12,-82.62"/>
</a>
</g>
</g>
<!-- Node17 -->
<g id="Node000017" class="node">
<title>Node17</title>
<g id="a_Node000017"><a xlink:title=" ">
<polygon fill="#e0e0e0" stroke="#999999" points="1855,-77.5 1671,-77.5 1671,-56.75 1855,-56.75 1855,-77.5"/>
<text text-anchor="middle" x="1763" y="-64" font-family="Helvetica,sans-Serif" font-size="10.00">llvm/TableGen/TableGenBackend.h</text>
</a>
</g>
</g>
<!-- Node1&#45;&gt;Node17 -->
<g id="edge20_Node000001_Node000017" class="edge">
<title>Node1&#45;&gt;Node17</title>
<g id="a_edge20_Node000001_Node000017"><a xlink:title=" ">
<path fill="none" stroke="#63b8ff" d="M1290.19,-114.35C1390,-104.59 1553.35,-88.62 1659.52,-78.24"/>
<polygon fill="#63b8ff" stroke="#63b8ff" points="1659.77,-81.73 1669.38,-77.28 1659.09,-74.77 1659.77,-81.73"/>
</a>
</g>
</g>
<!-- Node18 -->
<g id="Node000018" class="node">
<title>Node18</title>
<g id="a_Node000018"><a xlink:title=" ">
<polygon fill="#e0e0e0" stroke="#999999" points="1919.38,-77.5 1872.62,-77.5 1872.62,-56.75 1919.38,-56.75 1919.38,-77.5"/>
<text text-anchor="middle" x="1896" y="-64" font-family="Helvetica,sans-Serif" font-size="10.00">vector</text>
</a>
</g>
</g>
<!-- Node1&#45;&gt;Node18 -->
<g id="edge22_Node000001_Node000018" class="edge">
<title>Node1&#45;&gt;Node18</title>
<g id="a_edge22_Node000001_Node000018"><a xlink:title=" ">
<path fill="none" stroke="#63b8ff" d="M1290.08,-122.87C1414.97,-121.54 1652.08,-114.1 1861.17,-77.65"/>
<polygon fill="#63b8ff" stroke="#63b8ff" points="1861.64,-81.12 1870.88,-75.93 1860.42,-74.23 1861.64,-81.12"/>
</a>
</g>
</g>
<!-- Node3 -->
<g id="Node000003" class="node">
<title>Node3</title>
<g id="a_Node000003"><a xlink:title=" ">
<polygon fill="#e0e0e0" stroke="#999999" points="130,-20.75 0,-20.75 0,0 130,0 130,-20.75"/>
<text text-anchor="middle" x="65" y="-7.25" font-family="Helvetica,sans-Serif" font-size="10.00">mlir/TableGen/Dialect.h</text>
</a>
</g>
</g>
<!-- Node2&#45;&gt;Node3 -->
<g id="edge2_Node000002_Node000003" class="edge">
<title>Node2&#45;&gt;Node3</title>
<g id="a_edge2_Node000002_Node000003"><a xlink:title=" ">
<path fill="none" stroke="#63b8ff" d="M558.89,-61.34C471.9,-53.81 298.96,-38.32 141.65,-21.02"/>
<polygon fill="#63b8ff" stroke="#63b8ff" points="142.19,-17.55 131.86,-19.93 141.42,-24.51 142.19,-17.55"/>
</a>
</g>
</g>
<!-- Node4 -->
<g id="Node000004" class="node">
<title>Node4</title>
<g id="a_Node000004"><a xlink:title=" ">
<polygon fill="#e0e0e0" stroke="#999999" points="280.12,-20.75 147.88,-20.75 147.88,0 280.12,0 280.12,-20.75"/>
<text text-anchor="middle" x="214" y="-7.25" font-family="Helvetica,sans-Serif" font-size="10.00">llvm/ADT/StringExtras.h</text>
</a>
</g>
</g>
<!-- Node2&#45;&gt;Node4 -->
<g id="edge3_Node000002_Node000004" class="edge">
<title>Node2&#45;&gt;Node4</title>
<g id="a_edge3_Node000002_Node000004"><a xlink:title=" ">
<path fill="none" stroke="#63b8ff" d="M559.24,-58.51C489.71,-49.02 370.44,-32.73 291.91,-22.01"/>
<polygon fill="#63b8ff" stroke="#63b8ff" points="292.51,-18.56 282.12,-20.68 291.56,-25.5 292.51,-18.56"/>
</a>
</g>
</g>
<!-- Node5 -->
<g id="Node000005" class="node">
<title>Node5</title>
<g id="a_Node000005"><a xlink:title=" ">
<polygon fill="#e0e0e0" stroke="#999999" points="415.62,-20.75 298.38,-20.75 298.38,0 415.62,0 415.62,-20.75"/>
<text text-anchor="middle" x="357" y="-7.25" font-family="Helvetica,sans-Serif" font-size="10.00">llvm/ADT/StringRef.h</text>
</a>
</g>
</g>
<!-- Node2&#45;&gt;Node5 -->
<g id="edge4_Node000002_Node000005" class="edge">
<title>Node2&#45;&gt;Node5</title>
<g id="a_edge4_Node000002_Node000005"><a xlink:title=" ">
<path fill="none" stroke="#63b8ff" d="M568.58,-56.27C525.42,-47.12 460.99,-33.44 414.58,-23.59"/>
<polygon fill="#63b8ff" stroke="#63b8ff" points="415.47,-20.21 404.97,-21.55 414.02,-27.05 415.47,-20.21"/>
</a>
</g>
</g>
<!-- Node6 -->
<g id="Node000006" class="node">
<title>Node6</title>
<g id="a_Node000006"><a xlink:title=" ">
<polygon fill="#e0e0e0" stroke="#999999" points="567.88,-20.75 434.12,-20.75 434.12,0 567.88,0 567.88,-20.75"/>
<text text-anchor="middle" x="501" y="-7.25" font-family="Helvetica,sans-Serif" font-size="10.00">llvm/ADT/StringSwitch.h</text>
</a>
</g>
</g>
<!-- Node2&#45;&gt;Node6 -->
<g id="edge5_Node000002_Node000006" class="edge">
<title>Node2&#45;&gt;Node6</title>
<g id="a_edge5_Node000002_Node000006"><a xlink:title=" ">
<path fill="none" stroke="#63b8ff" d="M594.62,-56.34C577.03,-47.89 551.37,-35.57 531.37,-25.96"/>
<polygon fill="#63b8ff" stroke="#63b8ff" points="533.1,-22.91 522.57,-21.73 530.07,-29.22 533.1,-22.91"/>
</a>
</g>
</g>
<!-- Node2&#45;&gt;Node7 -->
<g id="edge6_Node000002_Node000007" class="edge">
<title>Node2&#45;&gt;Node7</title>
<g id="a_edge6_Node000002_Node000007"><a xlink:title=" ">
<path fill="none" stroke="#63b8ff" d="M637.71,-56.34C657.57,-47.77 686.67,-35.23 709.09,-25.56"/>
<polygon fill="#63b8ff" stroke="#63b8ff" points="710.3,-28.85 718.1,-21.68 707.53,-22.42 710.3,-28.85"/>
</a>
</g>
</g>
<!-- Node2&#45;&gt;Node8 -->
<g id="edge7_Node000002_Node000008" class="edge">
<title>Node2&#45;&gt;Node8</title>
<g id="a_edge7_Node000002_Node000008"><a xlink:title=" ">
<path fill="none" stroke="#63b8ff" d="M670.24,-56.27C722.24,-47 800.21,-33.1 855.58,-23.22"/>
<polygon fill="#63b8ff" stroke="#63b8ff" points="855.97,-26.71 865.2,-21.51 854.74,-19.82 855.97,-26.71"/>
</a>
</g>
</g>
<!-- Node9 -->
<g id="Node000009" class="node">
<title>Node9</title>
<g id="a_Node000009"><a xlink:title=" ">
<polygon fill="#e0e0e0" stroke="#999999" points="643.62,-20.75 586.38,-20.75 586.38,0 643.62,0 643.62,-20.75"/>
<text text-anchor="middle" x="615" y="-7.25" font-family="Helvetica,sans-Serif" font-size="10.00">memory</text>
</a>
</g>
</g>
<!-- Node2&#45;&gt;Node9 -->
<g id="edge8_Node000002_Node000009" class="edge">
<title>Node2&#45;&gt;Node9</title>
<g id="a_edge8_Node000002_Node000009"><a xlink:title=" ">
<path fill="none" stroke="#63b8ff" d="M615,-56.34C615,-49.72 615,-40.72 615,-32.52"/>
<polygon fill="#63b8ff" stroke="#63b8ff" points="618.5,-32.59 615,-22.59 611.5,-32.59 618.5,-32.59"/>
</a>
</g>
</g>
<!-- Node2&#45;&gt;Node10 -->
<g id="edge9_Node000002_Node000010" class="edge">
<title>Node2&#45;&gt;Node10</title>
<g id="a_edge9_Node000002_Node000010"><a xlink:title=" ">
<path fill="none" stroke="#63b8ff" d="M670.87,-62.94C746.14,-57.95 884.34,-46.32 1010.75,-20.88"/>
<polygon fill="#63b8ff" stroke="#63b8ff" points="1011.2,-24.36 1020.29,-18.92 1009.79,-17.5 1011.2,-24.36"/>
</a>
</g>
</g>
<!-- Node11&#45;&gt;Node10 -->
<g id="edge13_Node000011_Node000010" class="edge">
<title>Node11&#45;&gt;Node10</title>
<g id="a_edge13_Node000011_Node000010"><a xlink:title=" ">
<path fill="none" stroke="#63b8ff" d="M1100.66,-56.34C1090.75,-48.47 1076.61,-37.25 1064.94,-27.99"/>
<polygon fill="#63b8ff" stroke="#63b8ff" points="1067.42,-25.49 1057.41,-22.02 1063.07,-30.98 1067.42,-25.49"/>
</a>
</g>
</g>
<!-- Node12 -->
<g id="Node000012" class="node">
<title>Node12</title>
<g id="a_Node000012"><a xlink:title=" ">
<polygon fill="#e0e0e0" stroke="#999999" points="1227.75,-20.75 1084.25,-20.75 1084.25,0 1227.75,0 1227.75,-20.75"/>
<text text-anchor="middle" x="1156" y="-7.25" font-family="Helvetica,sans-Serif" font-size="10.00">mlir/TableGen/Argument.h</text>
</a>
</g>
</g>
<!-- Node11&#45;&gt;Node12 -->
<g id="edge11_Node000011_Node000012" class="edge">
<title>Node11&#45;&gt;Node12</title>
<g id="a_edge11_Node000011_Node000012"><a xlink:title=" ">
<path fill="none" stroke="#63b8ff" d="M1120.69,-56.34C1126.44,-49.02 1134.47,-38.79 1141.42,-29.94"/>
<polygon fill="#63b8ff" stroke="#63b8ff" points="1144.02,-32.3 1147.44,-22.27 1138.51,-27.97 1144.02,-32.3"/>
</a>
</g>
</g>
<!-- Node11&#45;&gt;Node13 -->
<g id="edge12_Node000011_Node000013" class="edge">
<title>Node11&#45;&gt;Node13</title>
<g id="a_edge12_Node000011_Node000013"><a xlink:title=" ">
<path fill="none" stroke="#63b8ff" d="M1149.11,-56.34C1182.33,-47.33 1231.79,-33.93 1268.06,-24.1"/>
<polygon fill="#63b8ff" stroke="#63b8ff" points="1268.66,-27.56 1277.4,-21.57 1266.83,-20.8 1268.66,-27.56"/>
</a>
</g>
</g>
</g>
</svg>
