<?xml version="1.0" encoding="UTF-8" standalone="no"?>
<!DOCTYPE svg PUBLIC "-//W3C//DTD SVG 1.1//EN"
 "http://www.w3.org/Graphics/SVG/1.1/DTD/svg11.dtd">
<!-- Generated by graphviz version 12.2.1 (0)
 -->
<!-- Title: include/llzk/Dialect/Shared/OpHelpers.h Pages: 1 -->
<svg width="2169pt" height="225pt"
 viewBox="0.00 0.00 2168.88 224.50" xmlns="http://www.w3.org/2000/svg" xmlns:xlink="http://www.w3.org/1999/xlink">
<g id="graph0" class="graph" transform="scale(1 1) rotate(0) translate(4 220.5)">
<title>include/llzk/Dialect/Shared/OpHelpers.h</title>
<!-- Node1 -->
<g id="Node000001" class="node">
<title>Node1</title>
<g id="a_Node000001"><a xlink:title=" ">
<polygon fill="#999999" stroke="#666666" points="1345.12,-216.5 1229.38,-216.5 1229.38,-183 1345.12,-183 1345.12,-216.5"/>
<text text-anchor="start" x="1237.38" y="-203" font-family="Helvetica,sans-Serif" font-size="10.00">include/llzk/Dialect</text>
<text text-anchor="middle" x="1287.25" y="-190.25" font-family="Helvetica,sans-Serif" font-size="10.00">/Shared/OpHelpers.h</text>
</a>
</g>
</g>
<!-- Node2 -->
<g id="Node000002" class="node">
<title>Node2</title>
<g id="a_Node000002"><a xlink:href="AttributeHelper_8h.html" target="_top" xlink:title=" ">
<polygon fill="white" stroke="#666666" points="323.5,-147 213,-147 213,-113.5 323.5,-113.5 323.5,-147"/>
<text text-anchor="start" x="221" y="-133.5" font-family="Helvetica,sans-Serif" font-size="10.00">llzk/Dialect/LLZK/IR</text>
<text text-anchor="middle" x="268.25" y="-120.75" font-family="Helvetica,sans-Serif" font-size="10.00">/AttributeHelper.h</text>
</a>
</g>
</g>
<!-- Node1&#45;&gt;Node2 -->
<g id="edge1_Node000001_Node000002" class="edge">
<title>Node1&#45;&gt;Node2</title>
<g id="a_edge1_Node000001_Node000002"><a xlink:title=" ">
<path fill="none" stroke="#63b8ff" d="M1229.17,-194.9C1052.59,-183.21 522.7,-148.11 335.03,-135.67"/>
<polygon fill="#63b8ff" stroke="#63b8ff" points="335.42,-132.19 325.21,-135.02 334.96,-139.18 335.42,-132.19"/>
</a>
</g>
</g>
<!-- Node7 -->
<g id="Node000007" class="node">
<title>Node7</title>
<g id="a_Node000007"><a xlink:href="AffineHelper_8h.html" target="_top" xlink:title=" ">
<polygon fill="white" stroke="#666666" points="1541,-140.62 1415.5,-140.62 1415.5,-119.88 1541,-119.88 1541,-140.62"/>
<text text-anchor="middle" x="1478.25" y="-127.12" font-family="Helvetica,sans-Serif" font-size="10.00">llzk/Util/AffineHelper.h</text>
</a>
</g>
</g>
<!-- Node1&#45;&gt;Node7 -->
<g id="edge6_Node000001_Node000007" class="edge">
<title>Node1&#45;&gt;Node7</title>
<g id="a_edge6_Node000001_Node000007"><a xlink:title=" ">
<path fill="none" stroke="#63b8ff" d="M1333,-182.58C1365.53,-171.08 1408.76,-155.81 1439.57,-144.92"/>
<polygon fill="#63b8ff" stroke="#63b8ff" points="1440.63,-148.26 1448.9,-141.62 1438.3,-141.66 1440.63,-148.26"/>
</a>
</g>
</g>
<!-- Node9 -->
<g id="Node000009" class="node">
<title>Node9</title>
<g id="a_Node000009"><a xlink:title=" ">
<polygon fill="#e0e0e0" stroke="#999999" points="1445.38,-20.75 1337.12,-20.75 1337.12,0 1445.38,0 1445.38,-20.75"/>
<text text-anchor="middle" x="1391.25" y="-7.25" font-family="Helvetica,sans-Serif" font-size="10.00">mlir/IR/Operation.h</text>
</a>
</g>
</g>
<!-- Node1&#45;&gt;Node9 -->
<g id="edge33_Node000001_Node000009" class="edge">
<title>Node1&#45;&gt;Node9</title>
<g id="a_edge33_Node000001_Node000009"><a xlink:title=" ">
<path fill="none" stroke="#63b8ff" d="M1345.46,-188.42C1398.91,-178.67 1480.19,-163.17 1550.25,-147 1579.6,-140.23 1793.89,-101.37 1812.25,-77.5 1856.48,-20.01 1585.97,-11.79 1456.91,-11.1"/>
<polygon fill="#63b8ff" stroke="#63b8ff" points="1457.15,-7.6 1447.14,-11.06 1457.13,-14.6 1457.15,-7.6"/>
</a>
</g>
</g>
<!-- Node13 -->
<g id="Node000013" class="node">
<title>Node13</title>
<g id="a_Node000013"><a xlink:title=" ">
<polygon fill="#e0e0e0" stroke="#999999" points="1363.12,-77.5 1211.38,-77.5 1211.38,-56.75 1363.12,-56.75 1363.12,-77.5"/>
<text text-anchor="middle" x="1287.25" y="-64" font-family="Helvetica,sans-Serif" font-size="10.00">mlir/IR/OpImplementation.h</text>
</a>
</g>
</g>
<!-- Node1&#45;&gt;Node13 -->
<g id="edge32_Node000001_Node000013" class="edge">
<title>Node1&#45;&gt;Node13</title>
<g id="a_edge32_Node000001_Node000013"><a xlink:title=" ">
<path fill="none" stroke="#63b8ff" d="M1287.25,-182.73C1287.25,-159.2 1287.25,-115.24 1287.25,-89.14"/>
<polygon fill="#63b8ff" stroke="#63b8ff" points="1290.75,-89.44 1287.25,-79.44 1283.75,-89.44 1290.75,-89.44"/>
</a>
</g>
</g>
<!-- Node16 -->
<g id="Node000016" class="node">
<title>Node16</title>
<g id="a_Node000016"><a xlink:href="llzk_2Util_2Constants_8h.html" target="_top" xlink:title=" ">
<polygon fill="white" stroke="#666666" points="1842.38,-140.62 1728.12,-140.62 1728.12,-119.88 1842.38,-119.88 1842.38,-140.62"/>
<text text-anchor="middle" x="1785.25" y="-127.12" font-family="Helvetica,sans-Serif" font-size="10.00">llzk/Util/Constants.h</text>
</a>
</g>
</g>
<!-- Node1&#45;&gt;Node16 -->
<g id="edge16_Node000001_Node000016" class="edge">
<title>Node1&#45;&gt;Node16</title>
<g id="a_edge16_Node000001_Node000016"><a xlink:title=" ">
<path fill="none" stroke="#63b8ff" d="M1345.53,-193.51C1427.97,-185.68 1583.23,-169.42 1714.25,-147 1720.32,-145.96 1726.65,-144.75 1732.92,-143.46"/>
<polygon fill="#63b8ff" stroke="#63b8ff" points="1733.55,-146.91 1742.61,-141.41 1732.1,-140.06 1733.55,-146.91"/>
</a>
</g>
</g>
<!-- Node17 -->
<g id="Node000017" class="node">
<title>Node17</title>
<g id="a_Node000017"><a xlink:href="ErrorHelper_8h.html" target="_top" xlink:title=" ">
<polygon fill="white" stroke="#666666" points="602.38,-77.5 482.12,-77.5 482.12,-56.75 602.38,-56.75 602.38,-77.5"/>
<text text-anchor="middle" x="542.25" y="-64" font-family="Helvetica,sans-Serif" font-size="10.00">llzk/Util/ErrorHelper.h</text>
</a>
</g>
</g>
<!-- Node1&#45;&gt;Node17 -->
<g id="edge17_Node000001_Node000017" class="edge">
<title>Node1&#45;&gt;Node17</title>
<g id="a_edge17_Node000001_Node000017"><a xlink:title=" ">
<path fill="none" stroke="#63b8ff" d="M1228.92,-195.3C1140.53,-189.38 967.65,-175.13 823.25,-147 735.72,-129.95 635.74,-99.07 581.79,-81.43"/>
<polygon fill="#63b8ff" stroke="#63b8ff" points="583.03,-78.15 572.44,-78.35 580.84,-84.8 583.03,-78.15"/>
</a>
</g>
</g>
<!-- Node23 -->
<g id="Node000023" class="node">
<title>Node23</title>
<g id="a_Node000023"><a xlink:href="TypeHelper_8h.html" target="_top" xlink:title=" ">
<polygon fill="white" stroke="#666666" points="1085,-140.62 965.5,-140.62 965.5,-119.88 1085,-119.88 1085,-140.62"/>
<text text-anchor="middle" x="1025.25" y="-127.12" font-family="Helvetica,sans-Serif" font-size="10.00">llzk/Util/TypeHelper.h</text>
</a>
</g>
</g>
<!-- Node1&#45;&gt;Node23 -->
<g id="edge24_Node000001_Node000023" class="edge">
<title>Node1&#45;&gt;Node23</title>
<g id="a_edge24_Node000001_Node000023"><a xlink:title=" ">
<path fill="none" stroke="#63b8ff" d="M1229.1,-183.77C1182.64,-171.8 1118.26,-155.21 1074.36,-143.9"/>
<polygon fill="#63b8ff" stroke="#63b8ff" points="1075.41,-140.56 1064.85,-141.45 1073.66,-147.34 1075.41,-140.56"/>
</a>
</g>
</g>
<!-- Node24 -->
<g id="Node000024" class="node">
<title>Node24</title>
<g id="a_Node000024"><a xlink:title=" ">
<polygon fill="#e0e0e0" stroke="#999999" points="742.5,-77.5 620,-77.5 620,-56.75 742.5,-56.75 742.5,-77.5"/>
<text text-anchor="middle" x="681.25" y="-64" font-family="Helvetica,sans-Serif" font-size="10.00">mlir/IR/SymbolTable.h</text>
</a>
</g>
</g>
<!-- Node1&#45;&gt;Node24 -->
<g id="edge34_Node000001_Node000024" class="edge">
<title>Node1&#45;&gt;Node24</title>
<g id="a_edge34_Node000001_Node000024"><a xlink:title=" ">
<path fill="none" stroke="#63b8ff" d="M1229.14,-191.89C1162.72,-183.53 1050.96,-167.9 956.25,-147 871.8,-128.36 775.02,-98.59 721.74,-81.45"/>
<polygon fill="#63b8ff" stroke="#63b8ff" points="723.08,-78.21 712.49,-78.46 720.93,-84.87 723.08,-78.21"/>
</a>
</g>
</g>
<!-- Node27 -->
<g id="Node000027" class="node">
<title>Node27</title>
<g id="a_Node000027"><a xlink:title=" ">
<polygon fill="#e0e0e0" stroke="#999999" points="1192.88,-77.5 1075.62,-77.5 1075.62,-56.75 1192.88,-56.75 1192.88,-77.5"/>
<text text-anchor="middle" x="1134.25" y="-64" font-family="Helvetica,sans-Serif" font-size="10.00">llvm/ADT/StringRef.h</text>
</a>
</g>
</g>
<!-- Node1&#45;&gt;Node27 -->
<g id="edge37_Node000001_Node000027" class="edge">
<title>Node1&#45;&gt;Node27</title>
<g id="a_edge37_Node000001_Node000027"><a xlink:title=" ">
<path fill="none" stroke="#63b8ff" d="M1268.49,-182.73C1239.54,-158.02 1184.23,-110.8 1154.44,-85.37"/>
<polygon fill="#63b8ff" stroke="#63b8ff" points="1156.76,-82.74 1146.89,-78.91 1152.22,-88.07 1156.76,-82.74"/>
</a>
</g>
</g>
<!-- Node28 -->
<g id="Node000028" class="node">
<title>Node28</title>
<g id="a_Node000028"><a xlink:title=" ">
<polygon fill="#e0e0e0" stroke="#999999" points="2013.88,-140.62 1860.62,-140.62 1860.62,-119.88 2013.88,-119.88 2013.88,-140.62"/>
<text text-anchor="middle" x="1937.25" y="-127.12" font-family="Helvetica,sans-Serif" font-size="10.00">mlir/Support/LogicalResult.h</text>
</a>
</g>
</g>
<!-- Node1&#45;&gt;Node28 -->
<g id="edge35_Node000001_Node000028" class="edge">
<title>Node1&#45;&gt;Node28</title>
<g id="a_edge35_Node000001_Node000028"><a xlink:title=" ">
<path fill="none" stroke="#63b8ff" d="M1345.5,-195.13C1448.04,-188.38 1667.38,-172.22 1851.25,-147 1859.51,-145.87 1868.19,-144.5 1876.72,-143.04"/>
<polygon fill="#63b8ff" stroke="#63b8ff" points="1877.07,-146.53 1886.31,-141.35 1875.86,-139.64 1877.07,-146.53"/>
</a>
</g>
</g>
<!-- Node29 -->
<g id="Node000029" class="node">
<title>Node29</title>
<g id="a_Node000029"><a xlink:title=" ">
<polygon fill="#e0e0e0" stroke="#999999" points="2160.88,-140.62 2031.62,-140.62 2031.62,-119.88 2160.88,-119.88 2160.88,-140.62"/>
<text text-anchor="middle" x="2096.25" y="-127.12" font-family="Helvetica,sans-Serif" font-size="10.00">llvm/ADT/SmallString.h</text>
</a>
</g>
</g>
<!-- Node1&#45;&gt;Node29 -->
<g id="edge36_Node000001_Node000029" class="edge">
<title>Node1&#45;&gt;Node29</title>
<g id="a_edge36_Node000001_Node000029"><a xlink:title=" ">
<path fill="none" stroke="#63b8ff" d="M1345.27,-197.47C1469.96,-194.12 1772.47,-182.68 2023.25,-147 2030.08,-146.03 2037.21,-144.78 2044.24,-143.41"/>
<polygon fill="#63b8ff" stroke="#63b8ff" points="2044.93,-146.85 2054.03,-141.41 2043.53,-139.99 2044.93,-146.85"/>
</a>
</g>
</g>
<!-- Node3 -->
<g id="Node000003" class="node">
<title>Node3</title>
<g id="a_Node000003"><a xlink:href="StreamHelper_8h.html" target="_top" xlink:title=" ">
<polygon fill="white" stroke="#666666" points="248.38,-77.5 116.12,-77.5 116.12,-56.75 248.38,-56.75 248.38,-77.5"/>
<text text-anchor="middle" x="182.25" y="-64" font-family="Helvetica,sans-Serif" font-size="10.00">llzk/Util/StreamHelper.h</text>
</a>
</g>
</g>
<!-- Node2&#45;&gt;Node3 -->
<g id="edge2_Node000002_Node000003" class="edge">
<title>Node2&#45;&gt;Node3</title>
<g id="a_edge2_Node000002_Node000003"><a xlink:title=" ">
<path fill="none" stroke="#63b8ff" d="M245.65,-113.19C233.25,-104.37 217.89,-93.45 205.39,-84.57"/>
<polygon fill="#63b8ff" stroke="#63b8ff" points="207.51,-81.78 197.33,-78.84 203.45,-87.49 207.51,-81.78"/>
</a>
</g>
</g>
<!-- Node5 -->
<g id="Node000005" class="node">
<title>Node5</title>
<g id="a_Node000005"><a xlink:title=" ">
<polygon fill="#e0e0e0" stroke="#999999" points="439.62,-77.5 266.88,-77.5 266.88,-56.75 439.62,-56.75 439.62,-77.5"/>
<text text-anchor="middle" x="353.25" y="-64" font-family="Helvetica,sans-Serif" font-size="10.00">mlir/IR/DialectImplementation.h</text>
</a>
</g>
</g>
<!-- Node2&#45;&gt;Node5 -->
<g id="edge4_Node000002_Node000005" class="edge">
<title>Node2&#45;&gt;Node5</title>
<g id="a_edge4_Node000002_Node000005"><a xlink:title=" ">
<path fill="none" stroke="#63b8ff" d="M290.58,-113.19C302.85,-104.37 318.03,-93.45 330.38,-84.57"/>
<polygon fill="#63b8ff" stroke="#63b8ff" points="332.26,-87.53 338.33,-78.85 328.17,-81.85 332.26,-87.53"/>
</a>
</g>
</g>
<!-- Node6 -->
<g id="Node000006" class="node">
<title>Node6</title>
<g id="a_Node000006"><a xlink:title=" ">
<polygon fill="#e0e0e0" stroke="#999999" points="98.5,-77.5 0,-77.5 0,-56.75 98.5,-56.75 98.5,-77.5"/>
<text text-anchor="middle" x="49.25" y="-64" font-family="Helvetica,sans-Serif" font-size="10.00">llvm/ADT/APInt.h</text>
</a>
</g>
</g>
<!-- Node2&#45;&gt;Node6 -->
<g id="edge5_Node000002_Node000006" class="edge">
<title>Node2&#45;&gt;Node6</title>
<g id="a_edge5_Node000002_Node000006"><a xlink:title=" ">
<path fill="none" stroke="#63b8ff" d="M212.7,-113.75C176.5,-103.64 129.8,-90.61 95.6,-81.06"/>
<polygon fill="#63b8ff" stroke="#63b8ff" points="96.54,-77.69 85.97,-78.37 94.66,-84.43 96.54,-77.69"/>
</a>
</g>
</g>
<!-- Node4 -->
<g id="Node000004" class="node">
<title>Node4</title>
<g id="a_Node000004"><a xlink:title=" ">
<polygon fill="#e0e0e0" stroke="#999999" points="247.25,-20.75 93.25,-20.75 93.25,0 247.25,0 247.25,-20.75"/>
<text text-anchor="middle" x="170.25" y="-7.25" font-family="Helvetica,sans-Serif" font-size="10.00">llvm/Support/raw_ostream.h</text>
</a>
</g>
</g>
<!-- Node3&#45;&gt;Node4 -->
<g id="edge3_Node000003_Node000004" class="edge">
<title>Node3&#45;&gt;Node4</title>
<g id="a_edge3_Node000003_Node000004"><a xlink:title=" ">
<path fill="none" stroke="#63b8ff" d="M180.1,-56.34C178.64,-49.64 176.64,-40.51 174.82,-32.23"/>
<polygon fill="#63b8ff" stroke="#63b8ff" points="178.26,-31.58 172.7,-22.56 171.42,-33.07 178.26,-31.58"/>
</a>
</g>
</g>
<!-- Node8 -->
<g id="Node000008" class="node">
<title>Node8</title>
<g id="a_Node000008"><a xlink:href="Compare_8h.html" target="_top" xlink:title=" ">
<polygon fill="white" stroke="#666666" points="1969.12,-77.5 1859.38,-77.5 1859.38,-56.75 1969.12,-56.75 1969.12,-77.5"/>
<text text-anchor="middle" x="1914.25" y="-64" font-family="Helvetica,sans-Serif" font-size="10.00">llzk/Util/Compare.h</text>
</a>
</g>
</g>
<!-- Node7&#45;&gt;Node8 -->
<g id="edge7_Node000007_Node000008" class="edge">
<title>Node7&#45;&gt;Node8</title>
<g id="a_edge7_Node000007_Node000008"><a xlink:title=" ">
<path fill="none" stroke="#63b8ff" d="M1541.18,-120.43C1622.72,-109 1764.25,-89.15 1847.57,-77.47"/>
<polygon fill="#63b8ff" stroke="#63b8ff" points="1848.02,-80.95 1857.43,-76.09 1847.04,-74.01 1848.02,-80.95"/>
</a>
</g>
</g>
<!-- Node7&#45;&gt;Node9 -->
<g id="edge13_Node000007_Node000009" class="edge">
<title>Node7&#45;&gt;Node9</title>
<g id="a_edge13_Node000007_Node000009"><a xlink:title=" ">
<path fill="none" stroke="#63b8ff" d="M1459.39,-119.43C1444,-110.48 1422.82,-95.87 1410.25,-77.5 1401.06,-64.07 1396.27,-46.2 1393.8,-32.42"/>
<polygon fill="#63b8ff" stroke="#63b8ff" points="1397.28,-32.04 1392.35,-22.66 1390.36,-33.07 1397.28,-32.04"/>
</a>
</g>
</g>
<!-- Node12 -->
<g id="Node000012" class="node">
<title>Node12</title>
<g id="a_Node000012"><a xlink:title=" ">
<polygon fill="#e0e0e0" stroke="#999999" points="1803.25,-77.5 1703.25,-77.5 1703.25,-56.75 1803.25,-56.75 1803.25,-77.5"/>
<text text-anchor="middle" x="1753.25" y="-64" font-family="Helvetica,sans-Serif" font-size="10.00">mlir/IR/Builders.h</text>
</a>
</g>
</g>
<!-- Node7&#45;&gt;Node12 -->
<g id="edge11_Node000007_Node000012" class="edge">
<title>Node7&#45;&gt;Node12</title>
<g id="a_edge11_Node000007_Node000012"><a xlink:title=" ">
<path fill="none" stroke="#63b8ff" d="M1522.43,-119.43C1570.24,-108.8 1646.55,-91.84 1698.22,-80.36"/>
<polygon fill="#63b8ff" stroke="#63b8ff" points="1698.7,-83.84 1707.7,-78.25 1697.18,-77 1698.7,-83.84"/>
</a>
</g>
</g>
<!-- Node7&#45;&gt;Node13 -->
<g id="edge12_Node000007_Node000013" class="edge">
<title>Node7&#45;&gt;Node13</title>
<g id="a_edge12_Node000007_Node000013"><a xlink:title=" ">
<path fill="none" stroke="#63b8ff" d="M1447.56,-119.43C1415.26,-109.09 1364.23,-92.76 1328.44,-81.31"/>
<polygon fill="#63b8ff" stroke="#63b8ff" points="1329.89,-78.1 1319.3,-78.38 1327.76,-84.76 1329.89,-78.1"/>
</a>
</g>
</g>
<!-- Node14 -->
<g id="Node000014" class="node">
<title>Node14</title>
<g id="a_Node000014"><a xlink:title=" ">
<polygon fill="#e0e0e0" stroke="#999999" points="1537.25,-77.5 1419.25,-77.5 1419.25,-56.75 1537.25,-56.75 1537.25,-77.5"/>
<text text-anchor="middle" x="1478.25" y="-64" font-family="Helvetica,sans-Serif" font-size="10.00">mlir/IR/ValueRange.h</text>
</a>
</g>
</g>
<!-- Node7&#45;&gt;Node14 -->
<g id="edge14_Node000007_Node000014" class="edge">
<title>Node7&#45;&gt;Node14</title>
<g id="a_edge14_Node000007_Node000014"><a xlink:title=" ">
<path fill="none" stroke="#63b8ff" d="M1478.25,-119.43C1478.25,-111.27 1478.25,-99.38 1478.25,-89.1"/>
<polygon fill="#63b8ff" stroke="#63b8ff" points="1481.75,-89.23 1478.25,-79.23 1474.75,-89.23 1481.75,-89.23"/>
</a>
</g>
</g>
<!-- Node15 -->
<g id="Node000015" class="node">
<title>Node15</title>
<g id="a_Node000015"><a xlink:title=" ">
<polygon fill="#e0e0e0" stroke="#999999" points="1685.62,-77.5 1554.88,-77.5 1554.88,-56.75 1685.62,-56.75 1685.62,-77.5"/>
<text text-anchor="middle" x="1620.25" y="-64" font-family="Helvetica,sans-Serif" font-size="10.00">llvm/ADT/SmallVector.h</text>
</a>
</g>
</g>
<!-- Node7&#45;&gt;Node15 -->
<g id="edge15_Node000007_Node000015" class="edge">
<title>Node7&#45;&gt;Node15</title>
<g id="a_edge15_Node000007_Node000015"><a xlink:title=" ">
<path fill="none" stroke="#63b8ff" d="M1501.06,-119.43C1524.35,-109.4 1560.74,-93.74 1587.19,-82.36"/>
<polygon fill="#63b8ff" stroke="#63b8ff" points="1588.3,-85.69 1596.1,-78.52 1585.53,-79.26 1588.3,-85.69"/>
</a>
</g>
</g>
<!-- Node8&#45;&gt;Node9 -->
<g id="edge8_Node000008_Node000009" class="edge">
<title>Node8&#45;&gt;Node9</title>
<g id="a_edge8_Node000008_Node000009"><a xlink:title=" ">
<path fill="none" stroke="#63b8ff" d="M1858.91,-58.43C1854.29,-57.84 1849.69,-57.27 1845.25,-56.75 1707.47,-40.51 1545.72,-25.25 1457.29,-17.24"/>
<polygon fill="#63b8ff" stroke="#63b8ff" points="1457.61,-13.75 1447.33,-16.34 1456.98,-20.72 1457.61,-13.75"/>
</a>
</g>
</g>
<!-- Node10 -->
<g id="Node000010" class="node">
<title>Node10</title>
<g id="a_Node000010"><a xlink:title=" ">
<polygon fill="#e0e0e0" stroke="#999999" points="1979,-20.75 1919.5,-20.75 1919.5,0 1979,0 1979,-20.75"/>
<text text-anchor="middle" x="1949.25" y="-7.25" font-family="Helvetica,sans-Serif" font-size="10.00">concepts</text>
</a>
</g>
</g>
<!-- Node8&#45;&gt;Node10 -->
<g id="edge9_Node000008_Node000010" class="edge">
<title>Node8&#45;&gt;Node10</title>
<g id="a_edge9_Node000008_Node000010"><a xlink:title=" ">
<path fill="none" stroke="#63b8ff" d="M1920.51,-56.34C1925.09,-49.17 1931.45,-39.23 1937.02,-30.51"/>
<polygon fill="#63b8ff" stroke="#63b8ff" points="1939.79,-32.66 1942.23,-22.35 1933.9,-28.89 1939.79,-32.66"/>
</a>
</g>
</g>
<!-- Node11 -->
<g id="Node000011" class="node">
<title>Node11</title>
<g id="a_Node000011"><a xlink:title=" ">
<polygon fill="#e0e0e0" stroke="#999999" points="1901.5,-20.75 1857,-20.75 1857,0 1901.5,0 1901.5,-20.75"/>
<text text-anchor="middle" x="1879.25" y="-7.25" font-family="Helvetica,sans-Serif" font-size="10.00">utility</text>
</a>
</g>
</g>
<!-- Node8&#45;&gt;Node11 -->
<g id="edge10_Node000008_Node000011" class="edge">
<title>Node8&#45;&gt;Node11</title>
<g id="a_edge10_Node000008_Node000011"><a xlink:title=" ">
<path fill="none" stroke="#63b8ff" d="M1907.99,-56.34C1903.41,-49.17 1897.05,-39.23 1891.48,-30.51"/>
<polygon fill="#63b8ff" stroke="#63b8ff" points="1894.6,-28.89 1886.27,-22.35 1888.71,-32.66 1894.6,-28.89"/>
</a>
</g>
</g>
<!-- Node17&#45;&gt;Node9 -->
<g id="edge19_Node000017_Node000009" class="edge">
<title>Node17&#45;&gt;Node9</title>
<g id="a_edge19_Node000017_Node000009"><a xlink:title=" ">
<path fill="none" stroke="#63b8ff" d="M602.8,-57.63C605.66,-57.31 608.48,-57.02 611.25,-56.75 875.27,-31.17 1191.06,-18.19 1325.48,-13.49"/>
<polygon fill="#63b8ff" stroke="#63b8ff" points="1325.38,-17 1335.25,-13.15 1325.14,-10 1325.38,-17"/>
</a>
</g>
</g>
<!-- Node18 -->
<g id="Node000018" class="node">
<title>Node18</title>
<g id="a_Node000018"><a xlink:title=" ">
<polygon fill="#e0e0e0" stroke="#999999" points="450.88,-20.75 333.62,-20.75 333.62,0 450.88,0 450.88,-20.75"/>
<text text-anchor="middle" x="392.25" y="-7.25" font-family="Helvetica,sans-Serif" font-size="10.00">mlir/IR/Diagnostics.h</text>
</a>
</g>
</g>
<!-- Node17&#45;&gt;Node18 -->
<g id="edge18_Node000017_Node000018" class="edge">
<title>Node17&#45;&gt;Node18</title>
<g id="a_edge18_Node000017_Node000018"><a xlink:title=" ">
<path fill="none" stroke="#63b8ff" d="M515.43,-56.34C491.51,-47.61 456.25,-34.73 429.57,-25"/>
<polygon fill="#63b8ff" stroke="#63b8ff" points="431.1,-21.83 420.51,-21.69 428.7,-28.41 431.1,-21.83"/>
</a>
</g>
</g>
<!-- Node19 -->
<g id="Node000019" class="node">
<title>Node19</title>
<g id="a_Node000019"><a xlink:title=" ">
<polygon fill="#e0e0e0" stroke="#999999" points="639.88,-20.75 468.62,-20.75 468.62,0 639.88,0 639.88,-20.75"/>
<text text-anchor="middle" x="554.25" y="-7.25" font-family="Helvetica,sans-Serif" font-size="10.00">llvm/ADT/STLFunctionalExtras.h</text>
</a>
</g>
</g>
<!-- Node17&#45;&gt;Node19 -->
<g id="edge20_Node000017_Node000019" class="edge">
<title>Node17&#45;&gt;Node19</title>
<g id="a_edge20_Node000017_Node000019"><a xlink:title=" ">
<path fill="none" stroke="#63b8ff" d="M544.4,-56.34C545.86,-49.64 547.86,-40.51 549.68,-32.23"/>
<polygon fill="#63b8ff" stroke="#63b8ff" points="553.08,-33.07 551.8,-22.56 546.24,-31.58 553.08,-33.07"/>
</a>
</g>
</g>
<!-- Node20 -->
<g id="Node000020" class="node">
<title>Node20</title>
<g id="a_Node000020"><a xlink:title=" ">
<polygon fill="#e0e0e0" stroke="#999999" points="758.62,-20.75 657.88,-20.75 657.88,0 758.62,0 758.62,-20.75"/>
<text text-anchor="middle" x="708.25" y="-7.25" font-family="Helvetica,sans-Serif" font-size="10.00">llvm/ADT/Twine.h</text>
</a>
</g>
</g>
<!-- Node17&#45;&gt;Node20 -->
<g id="edge21_Node000017_Node000020" class="edge">
<title>Node17&#45;&gt;Node20</title>
<g id="a_edge21_Node000017_Node000020"><a xlink:title=" ">
<path fill="none" stroke="#63b8ff" d="M571.93,-56.34C598.64,-47.53 638.12,-34.5 667.73,-24.74"/>
<polygon fill="#63b8ff" stroke="#63b8ff" points="668.71,-28.1 677.11,-21.64 666.52,-21.45 668.71,-28.1"/>
</a>
</g>
</g>
<!-- Node21 -->
<g id="Node000021" class="node">
<title>Node21</title>
<g id="a_Node000021"><a xlink:title=" ">
<polygon fill="#e0e0e0" stroke="#999999" points="933.75,-20.75 776.75,-20.75 776.75,0 933.75,0 933.75,-20.75"/>
<text text-anchor="middle" x="855.25" y="-7.25" font-family="Helvetica,sans-Serif" font-size="10.00">llvm/Support/ErrorHandling.h</text>
</a>
</g>
</g>
<!-- Node17&#45;&gt;Node21 -->
<g id="edge22_Node000017_Node000021" class="edge">
<title>Node17&#45;&gt;Node21</title>
<g id="a_edge22_Node000017_Node000021"><a xlink:title=" ">
<path fill="none" stroke="#63b8ff" d="M598.57,-56.27C651.59,-47 731.08,-33.1 787.53,-23.22"/>
<polygon fill="#63b8ff" stroke="#63b8ff" points="788.12,-26.67 797.36,-21.5 786.91,-19.78 788.12,-26.67"/>
</a>
</g>
</g>
<!-- Node22 -->
<g id="Node000022" class="node">
<title>Node22</title>
<g id="a_Node000022"><a xlink:title=" ">
<polygon fill="#e0e0e0" stroke="#999999" points="315.5,-20.75 265,-20.75 265,0 315.5,0 315.5,-20.75"/>
<text text-anchor="middle" x="290.25" y="-7.25" font-family="Helvetica,sans-Serif" font-size="10.00">variant</text>
</a>
</g>
</g>
<!-- Node17&#45;&gt;Node22 -->
<g id="edge23_Node000017_Node000022" class="edge">
<title>Node17&#45;&gt;Node22</title>
<g id="a_edge23_Node000017_Node000022"><a xlink:title=" ">
<path fill="none" stroke="#63b8ff" d="M490.51,-56.32C448.72,-48.19 388.14,-35.91 326.87,-21.28"/>
<polygon fill="#63b8ff" stroke="#63b8ff" points="327.84,-17.91 317.3,-18.97 326.2,-24.71 327.84,-17.91"/>
</a>
</g>
</g>
<!-- Node23&#45;&gt;Node9 -->
<g id="edge27_Node000023_Node000009" class="edge">
<title>Node23&#45;&gt;Node9</title>
<g id="a_edge27_Node000023_Node000009"><a xlink:title=" ">
<path fill="none" stroke="#63b8ff" d="M1027.71,-119.6C1032.32,-103.63 1043.89,-71.96 1066.25,-56.75 1107.3,-28.82 1243.11,-17.89 1325.62,-13.76"/>
<polygon fill="#63b8ff" stroke="#63b8ff" points="1325.56,-17.26 1335.38,-13.29 1325.22,-10.27 1325.56,-17.26"/>
</a>
</g>
</g>
<!-- Node23&#45;&gt;Node13 -->
<g id="edge26_Node000023_Node000013" class="edge">
<title>Node23&#45;&gt;Node13</title>
<g id="a_edge26_Node000023_Node000013"><a xlink:title=" ">
<path fill="none" stroke="#63b8ff" d="M1067.34,-119.43C1112.7,-108.85 1184.99,-91.98 1234.2,-80.5"/>
<polygon fill="#63b8ff" stroke="#63b8ff" points="1234.84,-83.95 1243.79,-78.27 1233.25,-77.13 1234.84,-83.95"/>
</a>
</g>
</g>
<!-- Node23&#45;&gt;Node17 -->
<g id="edge25_Node000023_Node000017" class="edge">
<title>Node23&#45;&gt;Node17</title>
<g id="a_edge25_Node000023_Node000017"><a xlink:title=" ">
<path fill="none" stroke="#63b8ff" d="M965.23,-121.95C886.88,-112.38 745.14,-94.91 613.87,-77.83"/>
<polygon fill="#63b8ff" stroke="#63b8ff" points="614.7,-74.41 604.33,-76.59 613.79,-81.35 614.7,-74.41"/>
</a>
</g>
</g>
<!-- Node23&#45;&gt;Node24 -->
<g id="edge28_Node000023_Node000024" class="edge">
<title>Node23&#45;&gt;Node24</title>
<g id="a_edge28_Node000023_Node000024"><a xlink:title=" ">
<path fill="none" stroke="#63b8ff" d="M969.98,-119.43C909.51,-108.68 812.6,-91.46 747.95,-79.98"/>
<polygon fill="#63b8ff" stroke="#63b8ff" points="748.62,-76.54 738.16,-78.24 747.39,-83.43 748.62,-76.54"/>
</a>
</g>
</g>
<!-- Node25 -->
<g id="Node000025" class="node">
<title>Node25</title>
<g id="a_Node000025"><a xlink:title=" ">
<polygon fill="#e0e0e0" stroke="#999999" points="1018.75,-77.5 903.75,-77.5 903.75,-56.75 1018.75,-56.75 1018.75,-77.5"/>
<text text-anchor="middle" x="961.25" y="-64" font-family="Helvetica,sans-Serif" font-size="10.00">llvm/ADT/ArrayRef.h</text>
</a>
</g>
</g>
<!-- Node23&#45;&gt;Node25 -->
<g id="edge29_Node000023_Node000025" class="edge">
<title>Node23&#45;&gt;Node25</title>
<g id="a_edge29_Node000023_Node000025"><a xlink:title=" ">
<path fill="none" stroke="#63b8ff" d="M1014.97,-119.43C1005.39,-110.29 990.91,-96.45 979.39,-85.45"/>
<polygon fill="#63b8ff" stroke="#63b8ff" points="982.04,-83.14 972.39,-78.77 977.2,-88.2 982.04,-83.14"/>
</a>
</g>
</g>
<!-- Node26 -->
<g id="Node000026" class="node">
<title>Node26</title>
<g id="a_Node000026"><a xlink:title=" ">
<polygon fill="#e0e0e0" stroke="#999999" points="885.62,-77.5 760.88,-77.5 760.88,-56.75 885.62,-56.75 885.62,-77.5"/>
<text text-anchor="middle" x="823.25" y="-64" font-family="Helvetica,sans-Serif" font-size="10.00">llvm/ADT/DenseMap.h</text>
</a>
</g>
</g>
<!-- Node23&#45;&gt;Node26 -->
<g id="edge30_Node000023_Node000026" class="edge">
<title>Node23&#45;&gt;Node26</title>
<g id="a_edge30_Node000023_Node000026"><a xlink:title=" ">
<path fill="none" stroke="#63b8ff" d="M992.8,-119.43C958.49,-109.05 904.2,-92.62 866.32,-81.16"/>
<polygon fill="#63b8ff" stroke="#63b8ff" points="867.66,-77.91 857.07,-78.36 865.63,-84.61 867.66,-77.91"/>
</a>
</g>
</g>
<!-- Node23&#45;&gt;Node27 -->
<g id="edge31_Node000023_Node000027" class="edge">
<title>Node23&#45;&gt;Node27</title>
<g id="a_edge31_Node000023_Node000027"><a xlink:title=" ">
<path fill="none" stroke="#63b8ff" d="M1042.76,-119.43C1060.08,-109.72 1086.84,-94.71 1106.95,-83.43"/>
<polygon fill="#63b8ff" stroke="#63b8ff" points="1108.45,-86.61 1115.46,-78.66 1105.03,-80.5 1108.45,-86.61"/>
</a>
</g>
</g>
</g>
</svg>
