<?xml version="1.0" encoding="UTF-8" standalone="no"?>
<!DOCTYPE svg PUBLIC "-//W3C//DTD SVG 1.1//EN"
 "http://www.w3.org/Graphics/SVG/1.1/DTD/svg11.dtd">
<!-- Generated by graphviz version 12.2.1 (0)
 -->
<!-- Title: include/llzk/Dialect/Shared/OpHelpers.h Pages: 1 -->
<svg width="2144pt" height="225pt"
 viewBox="0.00 0.00 2143.62 224.50" xmlns="http://www.w3.org/2000/svg" xmlns:xlink="http://www.w3.org/1999/xlink">
<g id="graph0" class="graph" transform="scale(1 1) rotate(0) translate(4 220.5)">
<title>include/llzk/Dialect/Shared/OpHelpers.h</title>
<!-- Node1 -->
<g id="Node000001" class="node">
<title>Node1</title>
<g id="a_Node000001"><a xlink:title=" ">
<polygon fill="#999999" stroke="#666666" points="1437.88,-216.5 1322.12,-216.5 1322.12,-183 1437.88,-183 1437.88,-216.5"/>
<text text-anchor="start" x="1330.12" y="-203" font-family="Helvetica,sans-Serif" font-size="10.00">include/llzk/Dialect</text>
<text text-anchor="middle" x="1380" y="-190.25" font-family="Helvetica,sans-Serif" font-size="10.00">/Shared/OpHelpers.h</text>
</a>
</g>
</g>
<!-- Node2 -->
<g id="Node000002" class="node">
<title>Node2</title>
<g id="a_Node000002"><a xlink:href="AttributeHelper_8h.html" target="_top" xlink:title=" ">
<polygon fill="white" stroke="#666666" points="402.25,-147 291.75,-147 291.75,-113.5 402.25,-113.5 402.25,-147"/>
<text text-anchor="start" x="299.75" y="-133.5" font-family="Helvetica,sans-Serif" font-size="10.00">llzk/Dialect/LLZK/IR</text>
<text text-anchor="middle" x="347" y="-120.75" font-family="Helvetica,sans-Serif" font-size="10.00">/AttributeHelper.h</text>
</a>
</g>
</g>
<!-- Node1&#45;&gt;Node2 -->
<g id="edge1_Node000001_Node000002" class="edge">
<title>Node1&#45;&gt;Node2</title>
<g id="a_edge1_Node000001_Node000002"><a xlink:title=" ">
<path fill="none" stroke="#63b8ff" d="M1321.88,-194.95C1143.45,-183.29 604.23,-148.06 414.18,-135.64"/>
<polygon fill="#63b8ff" stroke="#63b8ff" points="414.42,-132.15 404.22,-134.99 413.97,-139.13 414.42,-132.15"/>
</a>
</g>
</g>
<!-- Node7 -->
<g id="Node000007" class="node">
<title>Node7</title>
<g id="a_Node000007"><a xlink:href="AffineHelper_8h.html" target="_top" xlink:title=" ">
<polygon fill="white" stroke="#666666" points="1509.75,-140.62 1384.25,-140.62 1384.25,-119.88 1509.75,-119.88 1509.75,-140.62"/>
<text text-anchor="middle" x="1447" y="-127.12" font-family="Helvetica,sans-Serif" font-size="10.00">llzk/Util/AffineHelper.h</text>
</a>
</g>
</g>
<!-- Node1&#45;&gt;Node7 -->
<g id="edge6_Node000001_Node000007" class="edge">
<title>Node1&#45;&gt;Node7</title>
<g id="a_edge6_Node000001_Node000007"><a xlink:title=" ">
<path fill="none" stroke="#63b8ff" d="M1395.88,-182.75C1405.92,-172.64 1418.9,-159.56 1429.28,-149.11"/>
<polygon fill="#63b8ff" stroke="#63b8ff" points="1431.62,-151.71 1436.18,-142.15 1426.66,-146.78 1431.62,-151.71"/>
</a>
</g>
</g>
<!-- Node9 -->
<g id="Node000009" class="node">
<title>Node9</title>
<g id="a_Node000009"><a xlink:title=" ">
<polygon fill="#e0e0e0" stroke="#999999" points="1458.12,-20.75 1349.88,-20.75 1349.88,0 1458.12,0 1458.12,-20.75"/>
<text text-anchor="middle" x="1404" y="-7.25" font-family="Helvetica,sans-Serif" font-size="10.00">mlir/IR/Operation.h</text>
</a>
</g>
</g>
<!-- Node1&#45;&gt;Node9 -->
<g id="edge34_Node000001_Node000009" class="edge">
<title>Node1&#45;&gt;Node9</title>
<g id="a_edge34_Node000001_Node000009"><a xlink:title=" ">
<path fill="none" stroke="#63b8ff" d="M1437.61,-182.57C1463.5,-173.99 1493.81,-162.08 1519,-147 1538.32,-135.43 1536.52,-122.85 1557,-113.5 1667.77,-62.96 1906.35,-147.34 1825,-56.75 1801.73,-30.84 1582.24,-18.43 1469.77,-13.72"/>
<polygon fill="#63b8ff" stroke="#63b8ff" points="1470.22,-10.24 1460.08,-13.33 1469.93,-17.23 1470.22,-10.24"/>
</a>
</g>
</g>
<!-- Node13 -->
<g id="Node000013" class="node">
<title>Node13</title>
<g id="a_Node000013"><a xlink:title=" ">
<polygon fill="#e0e0e0" stroke="#999999" points="1375.88,-77.5 1224.12,-77.5 1224.12,-56.75 1375.88,-56.75 1375.88,-77.5"/>
<text text-anchor="middle" x="1300" y="-64" font-family="Helvetica,sans-Serif" font-size="10.00">mlir/IR/OpImplementation.h</text>
</a>
</g>
</g>
<!-- Node1&#45;&gt;Node13 -->
<g id="edge33_Node000001_Node000013" class="edge">
<title>Node1&#45;&gt;Node13</title>
<g id="a_edge33_Node000001_Node000013"><a xlink:title=" ">
<path fill="none" stroke="#63b8ff" d="M1370.19,-182.73C1355.51,-158.77 1327.87,-113.64 1312.01,-87.74"/>
<polygon fill="#63b8ff" stroke="#63b8ff" points="1315,-85.92 1306.8,-79.22 1309.03,-89.58 1315,-85.92"/>
</a>
</g>
</g>
<!-- Node16 -->
<g id="Node000016" class="node">
<title>Node16</title>
<g id="a_Node000016"><a xlink:href="llzk_2Util_2Constants_8h.html" target="_top" xlink:title=" ">
<polygon fill="white" stroke="#666666" points="1680.12,-140.62 1565.88,-140.62 1565.88,-119.88 1680.12,-119.88 1680.12,-140.62"/>
<text text-anchor="middle" x="1623" y="-127.12" font-family="Helvetica,sans-Serif" font-size="10.00">llzk/Util/Constants.h</text>
</a>
</g>
</g>
<!-- Node1&#45;&gt;Node16 -->
<g id="edge16_Node000001_Node000016" class="edge">
<title>Node1&#45;&gt;Node16</title>
<g id="a_edge16_Node000001_Node000016"><a xlink:title=" ">
<path fill="none" stroke="#63b8ff" d="M1438.2,-182.58C1480.6,-170.81 1537.25,-155.07 1576.6,-144.14"/>
<polygon fill="#63b8ff" stroke="#63b8ff" points="1577.31,-147.57 1586.01,-141.52 1575.44,-140.83 1577.31,-147.57"/>
</a>
</g>
</g>
<!-- Node17 -->
<g id="Node000017" class="node">
<title>Node17</title>
<g id="a_Node000017"><a xlink:href="ErrorHelper_8h.html" target="_top" xlink:title=" ">
<polygon fill="white" stroke="#666666" points="615.12,-77.5 494.88,-77.5 494.88,-56.75 615.12,-56.75 615.12,-77.5"/>
<text text-anchor="middle" x="555" y="-64" font-family="Helvetica,sans-Serif" font-size="10.00">llzk/Util/ErrorHelper.h</text>
</a>
</g>
</g>
<!-- Node1&#45;&gt;Node17 -->
<g id="edge17_Node000001_Node000017" class="edge">
<title>Node1&#45;&gt;Node17</title>
<g id="a_edge17_Node000001_Node000017"><a xlink:title=" ">
<path fill="none" stroke="#63b8ff" d="M1321.95,-194.82C1230.79,-188.14 1048.71,-172.73 896,-147 789.79,-129.11 667.19,-98.18 601.81,-80.85"/>
<polygon fill="#63b8ff" stroke="#63b8ff" points="603.07,-77.56 592.51,-78.37 601.27,-84.33 603.07,-77.56"/>
</a>
</g>
</g>
<!-- Node23 -->
<g id="Node000023" class="node">
<title>Node23</title>
<g id="a_Node000023"><a xlink:href="TypeHelper_8h.html" target="_top" xlink:title=" ">
<polygon fill="white" stroke="#666666" points="1024.75,-140.62 905.25,-140.62 905.25,-119.88 1024.75,-119.88 1024.75,-140.62"/>
<text text-anchor="middle" x="965" y="-127.12" font-family="Helvetica,sans-Serif" font-size="10.00">llzk/Util/TypeHelper.h</text>
</a>
</g>
</g>
<!-- Node1&#45;&gt;Node23 -->
<g id="edge24_Node000001_Node000023" class="edge">
<title>Node1&#45;&gt;Node23</title>
<g id="a_edge24_Node000001_Node000023"><a xlink:title=" ">
<path fill="none" stroke="#63b8ff" d="M1321.86,-189.29C1246.97,-177.11 1116.87,-155.95 1036.15,-142.82"/>
<polygon fill="#63b8ff" stroke="#63b8ff" points="1037.03,-139.42 1026.6,-141.27 1035.9,-146.33 1037.03,-139.42"/>
</a>
</g>
</g>
<!-- Node24 -->
<g id="Node000024" class="node">
<title>Node24</title>
<g id="a_Node000024"><a xlink:title=" ">
<polygon fill="#e0e0e0" stroke="#999999" points="1070.25,-77.5 947.75,-77.5 947.75,-56.75 1070.25,-56.75 1070.25,-77.5"/>
<text text-anchor="middle" x="1009" y="-64" font-family="Helvetica,sans-Serif" font-size="10.00">mlir/IR/SymbolTable.h</text>
</a>
</g>
</g>
<!-- Node1&#45;&gt;Node24 -->
<g id="edge35_Node000001_Node000024" class="edge">
<title>Node1&#45;&gt;Node24</title>
<g id="a_edge35_Node000001_Node000024"><a xlink:title=" ">
<path fill="none" stroke="#63b8ff" d="M1330.32,-182.55C1299.85,-172.52 1260.08,-159.26 1225,-147 1161.86,-124.94 1088.86,-97.97 1045.94,-81.97"/>
<polygon fill="#63b8ff" stroke="#63b8ff" points="1047.19,-78.7 1036.6,-78.48 1044.74,-85.26 1047.19,-78.7"/>
</a>
</g>
</g>
<!-- Node27 -->
<g id="Node000027" class="node">
<title>Node27</title>
<g id="a_Node000027"><a xlink:title=" ">
<polygon fill="#e0e0e0" stroke="#999999" points="1205.62,-77.5 1088.38,-77.5 1088.38,-56.75 1205.62,-56.75 1205.62,-77.5"/>
<text text-anchor="middle" x="1147" y="-64" font-family="Helvetica,sans-Serif" font-size="10.00">llvm/ADT/StringRef.h</text>
</a>
</g>
</g>
<!-- Node1&#45;&gt;Node27 -->
<g id="edge38_Node000001_Node000027" class="edge">
<title>Node1&#45;&gt;Node27</title>
<g id="a_edge38_Node000001_Node000027"><a xlink:title=" ">
<path fill="none" stroke="#63b8ff" d="M1351.43,-182.73C1306.2,-157.38 1218.71,-108.33 1174.3,-83.43"/>
<polygon fill="#63b8ff" stroke="#63b8ff" points="1176.24,-80.51 1165.81,-78.67 1172.82,-86.61 1176.24,-80.51"/>
</a>
</g>
</g>
<!-- Node28 -->
<g id="Node000028" class="node">
<title>Node28</title>
<g id="a_Node000028"><a xlink:title=" ">
<polygon fill="#e0e0e0" stroke="#999999" points="1817.75,-140.62 1698.25,-140.62 1698.25,-119.88 1817.75,-119.88 1817.75,-140.62"/>
<text text-anchor="middle" x="1758" y="-127.12" font-family="Helvetica,sans-Serif" font-size="10.00">mlir/IR/BuiltinTypes.h</text>
</a>
</g>
</g>
<!-- Node1&#45;&gt;Node28 -->
<g id="edge32_Node000001_Node000028" class="edge">
<title>Node1&#45;&gt;Node28</title>
<g id="a_edge32_Node000001_Node000028"><a xlink:title=" ">
<path fill="none" stroke="#63b8ff" d="M1438.27,-190.03C1500.53,-180.47 1602.02,-164.19 1689,-147 1694.51,-145.91 1700.25,-144.71 1705.97,-143.47"/>
<polygon fill="#63b8ff" stroke="#63b8ff" points="1706.37,-146.96 1715.38,-141.38 1704.86,-140.13 1706.37,-146.96"/>
</a>
</g>
</g>
<!-- Node29 -->
<g id="Node000029" class="node">
<title>Node29</title>
<g id="a_Node000029"><a xlink:title=" ">
<polygon fill="#e0e0e0" stroke="#999999" points="1988.62,-140.62 1835.38,-140.62 1835.38,-119.88 1988.62,-119.88 1988.62,-140.62"/>
<text text-anchor="middle" x="1912" y="-127.12" font-family="Helvetica,sans-Serif" font-size="10.00">mlir/Support/LogicalResult.h</text>
</a>
</g>
</g>
<!-- Node1&#45;&gt;Node29 -->
<g id="edge36_Node000001_Node000029" class="edge">
<title>Node1&#45;&gt;Node29</title>
<g id="a_edge36_Node000001_Node000029"><a xlink:title=" ">
<path fill="none" stroke="#63b8ff" d="M1438.03,-193.3C1523.44,-185 1687.94,-167.91 1827,-147 1834.77,-145.83 1842.91,-144.48 1850.95,-143.08"/>
<polygon fill="#63b8ff" stroke="#63b8ff" points="1851.49,-146.54 1860.72,-141.33 1850.25,-139.65 1851.49,-146.54"/>
</a>
</g>
</g>
<!-- Node30 -->
<g id="Node000030" class="node">
<title>Node30</title>
<g id="a_Node000030"><a xlink:title=" ">
<polygon fill="#e0e0e0" stroke="#999999" points="2135.62,-140.62 2006.38,-140.62 2006.38,-119.88 2135.62,-119.88 2135.62,-140.62"/>
<text text-anchor="middle" x="2071" y="-127.12" font-family="Helvetica,sans-Serif" font-size="10.00">llvm/ADT/SmallString.h</text>
</a>
</g>
</g>
<!-- Node1&#45;&gt;Node30 -->
<g id="edge37_Node000001_Node000030" class="edge">
<title>Node1&#45;&gt;Node30</title>
<g id="a_edge37_Node000001_Node000030"><a xlink:title=" ">
<path fill="none" stroke="#63b8ff" d="M1438.23,-196.38C1548.14,-191.35 1793.54,-177.49 1998,-147 2004.74,-146 2011.78,-144.74 2018.72,-143.38"/>
<polygon fill="#63b8ff" stroke="#63b8ff" points="2019.29,-146.84 2028.38,-141.4 2017.88,-139.98 2019.29,-146.84"/>
</a>
</g>
</g>
<!-- Node3 -->
<g id="Node000003" class="node">
<title>Node3</title>
<g id="a_Node000003"><a xlink:href="StreamHelper_8h.html" target="_top" xlink:title=" ">
<polygon fill="white" stroke="#666666" points="158.12,-77.5 25.88,-77.5 25.88,-56.75 158.12,-56.75 158.12,-77.5"/>
<text text-anchor="middle" x="92" y="-64" font-family="Helvetica,sans-Serif" font-size="10.00">llzk/Util/StreamHelper.h</text>
</a>
</g>
</g>
<!-- Node2&#45;&gt;Node3 -->
<g id="edge2_Node000002_Node000003" class="edge">
<title>Node2&#45;&gt;Node3</title>
<g id="a_edge2_Node000002_Node000003"><a xlink:title=" ">
<path fill="none" stroke="#63b8ff" d="M291.35,-115.91C247.5,-105.4 186.81,-90.85 143.94,-80.57"/>
<polygon fill="#63b8ff" stroke="#63b8ff" points="144.91,-77.21 134.37,-78.28 143.28,-84.02 144.91,-77.21"/>
</a>
</g>
</g>
<!-- Node5 -->
<g id="Node000005" class="node">
<title>Node5</title>
<g id="a_Node000005"><a xlink:title=" ">
<polygon fill="#e0e0e0" stroke="#999999" points="356.38,-77.5 183.62,-77.5 183.62,-56.75 356.38,-56.75 356.38,-77.5"/>
<text text-anchor="middle" x="270" y="-64" font-family="Helvetica,sans-Serif" font-size="10.00">mlir/IR/DialectImplementation.h</text>
</a>
</g>
</g>
<!-- Node2&#45;&gt;Node5 -->
<g id="edge4_Node000002_Node000005" class="edge">
<title>Node2&#45;&gt;Node5</title>
<g id="a_edge4_Node000002_Node000005"><a xlink:title=" ">
<path fill="none" stroke="#63b8ff" d="M326.77,-113.19C315.88,-104.55 302.45,-93.88 291.39,-85.1"/>
<polygon fill="#63b8ff" stroke="#63b8ff" points="293.59,-82.38 283.58,-78.91 289.24,-87.87 293.59,-82.38"/>
</a>
</g>
</g>
<!-- Node6 -->
<g id="Node000006" class="node">
<title>Node6</title>
<g id="a_Node000006"><a xlink:title=" ">
<polygon fill="#e0e0e0" stroke="#999999" points="473.25,-77.5 374.75,-77.5 374.75,-56.75 473.25,-56.75 473.25,-77.5"/>
<text text-anchor="middle" x="424" y="-64" font-family="Helvetica,sans-Serif" font-size="10.00">llvm/ADT/APInt.h</text>
</a>
</g>
</g>
<!-- Node2&#45;&gt;Node6 -->
<g id="edge5_Node000002_Node000006" class="edge">
<title>Node2&#45;&gt;Node6</title>
<g id="a_edge5_Node000002_Node000006"><a xlink:title=" ">
<path fill="none" stroke="#63b8ff" d="M367.23,-113.19C378.12,-104.55 391.55,-93.88 402.61,-85.1"/>
<polygon fill="#63b8ff" stroke="#63b8ff" points="404.76,-87.87 410.42,-78.91 400.41,-82.38 404.76,-87.87"/>
</a>
</g>
</g>
<!-- Node4 -->
<g id="Node000004" class="node">
<title>Node4</title>
<g id="a_Node000004"><a xlink:title=" ">
<polygon fill="#e0e0e0" stroke="#999999" points="154,-20.75 0,-20.75 0,0 154,0 154,-20.75"/>
<text text-anchor="middle" x="77" y="-7.25" font-family="Helvetica,sans-Serif" font-size="10.00">llvm/Support/raw_ostream.h</text>
</a>
</g>
</g>
<!-- Node3&#45;&gt;Node4 -->
<g id="edge3_Node000003_Node000004" class="edge">
<title>Node3&#45;&gt;Node4</title>
<g id="a_edge3_Node000003_Node000004"><a xlink:title=" ">
<path fill="none" stroke="#63b8ff" d="M89.32,-56.34C87.46,-49.56 84.92,-40.3 82.63,-31.94"/>
<polygon fill="#63b8ff" stroke="#63b8ff" points="86.08,-31.26 80.06,-22.54 79.33,-33.11 86.08,-31.26"/>
</a>
</g>
</g>
<!-- Node8 -->
<g id="Node000008" class="node">
<title>Node8</title>
<g id="a_Node000008"><a xlink:href="Compare_8h.html" target="_top" xlink:title=" ">
<polygon fill="white" stroke="#666666" points="1981.88,-77.5 1872.12,-77.5 1872.12,-56.75 1981.88,-56.75 1981.88,-77.5"/>
<text text-anchor="middle" x="1927" y="-64" font-family="Helvetica,sans-Serif" font-size="10.00">llzk/Util/Compare.h</text>
</a>
</g>
</g>
<!-- Node7&#45;&gt;Node8 -->
<g id="edge7_Node000007_Node000008" class="edge">
<title>Node7&#45;&gt;Node8</title>
<g id="a_edge7_Node000007_Node000008"><a xlink:title=" ">
<path fill="none" stroke="#63b8ff" d="M1510.08,-119.99C1525.43,-117.8 1541.8,-115.52 1557,-113.5 1663.18,-99.39 1786.71,-84.56 1860.78,-75.84"/>
<polygon fill="#63b8ff" stroke="#63b8ff" points="1860.77,-79.36 1870.29,-74.72 1859.95,-72.41 1860.77,-79.36"/>
</a>
</g>
</g>
<!-- Node7&#45;&gt;Node9 -->
<g id="edge13_Node000007_Node000009" class="edge">
<title>Node7&#45;&gt;Node9</title>
<g id="a_edge13_Node000007_Node000009"><a xlink:title=" ">
<path fill="none" stroke="#63b8ff" d="M1441.94,-119.52C1436.73,-109.26 1428.61,-92.53 1423,-77.5 1417.43,-62.57 1412.51,-45.25 1409.07,-32.08"/>
<polygon fill="#63b8ff" stroke="#63b8ff" points="1412.47,-31.25 1406.63,-22.41 1405.68,-32.96 1412.47,-31.25"/>
</a>
</g>
</g>
<!-- Node12 -->
<g id="Node000012" class="node">
<title>Node12</title>
<g id="a_Node000012"><a xlink:title=" ">
<polygon fill="#e0e0e0" stroke="#999999" points="1816,-77.5 1716,-77.5 1716,-56.75 1816,-56.75 1816,-77.5"/>
<text text-anchor="middle" x="1766" y="-64" font-family="Helvetica,sans-Serif" font-size="10.00">mlir/IR/Builders.h</text>
</a>
</g>
</g>
<!-- Node7&#45;&gt;Node12 -->
<g id="edge11_Node000007_Node000012" class="edge">
<title>Node7&#45;&gt;Node12</title>
<g id="a_edge11_Node000007_Node000012"><a xlink:title=" ">
<path fill="none" stroke="#63b8ff" d="M1494.62,-119.38C1504.34,-117.4 1514.49,-115.36 1524,-113.5 1585.49,-101.45 1655.9,-88.32 1704.86,-79.3"/>
<polygon fill="#63b8ff" stroke="#63b8ff" points="1705.21,-82.8 1714.41,-77.55 1703.94,-75.91 1705.21,-82.8"/>
</a>
</g>
</g>
<!-- Node7&#45;&gt;Node13 -->
<g id="edge12_Node000007_Node000013" class="edge">
<title>Node7&#45;&gt;Node13</title>
<g id="a_edge12_Node000007_Node000013"><a xlink:title=" ">
<path fill="none" stroke="#63b8ff" d="M1423.38,-119.43C1399.16,-109.36 1361.27,-93.6 1333.86,-82.21"/>
<polygon fill="#63b8ff" stroke="#63b8ff" points="1335.53,-79.11 1324.96,-78.5 1332.85,-85.57 1335.53,-79.11"/>
</a>
</g>
</g>
<!-- Node14 -->
<g id="Node000014" class="node">
<title>Node14</title>
<g id="a_Node000014"><a xlink:title=" ">
<polygon fill="#e0e0e0" stroke="#999999" points="1550,-77.5 1432,-77.5 1432,-56.75 1550,-56.75 1550,-77.5"/>
<text text-anchor="middle" x="1491" y="-64" font-family="Helvetica,sans-Serif" font-size="10.00">mlir/IR/ValueRange.h</text>
</a>
</g>
</g>
<!-- Node7&#45;&gt;Node14 -->
<g id="edge14_Node000007_Node000014" class="edge">
<title>Node7&#45;&gt;Node14</title>
<g id="a_edge14_Node000007_Node000014"><a xlink:title=" ">
<path fill="none" stroke="#63b8ff" d="M1454.07,-119.43C1460.39,-110.64 1469.83,-97.53 1477.59,-86.76"/>
<polygon fill="#63b8ff" stroke="#63b8ff" points="1480.21,-89.11 1483.21,-78.95 1474.53,-85.02 1480.21,-89.11"/>
</a>
</g>
</g>
<!-- Node15 -->
<g id="Node000015" class="node">
<title>Node15</title>
<g id="a_Node000015"><a xlink:title=" ">
<polygon fill="#e0e0e0" stroke="#999999" points="1698.38,-77.5 1567.62,-77.5 1567.62,-56.75 1698.38,-56.75 1698.38,-77.5"/>
<text text-anchor="middle" x="1633" y="-64" font-family="Helvetica,sans-Serif" font-size="10.00">llvm/ADT/SmallVector.h</text>
</a>
</g>
</g>
<!-- Node7&#45;&gt;Node15 -->
<g id="edge15_Node000007_Node000015" class="edge">
<title>Node7&#45;&gt;Node15</title>
<g id="a_edge15_Node000007_Node000015"><a xlink:title=" ">
<path fill="none" stroke="#63b8ff" d="M1476.88,-119.43C1508.2,-109.14 1557.61,-92.9 1592.44,-81.46"/>
<polygon fill="#63b8ff" stroke="#63b8ff" points="1593.34,-84.84 1601.75,-78.39 1591.16,-78.19 1593.34,-84.84"/>
</a>
</g>
</g>
<!-- Node8&#45;&gt;Node9 -->
<g id="edge8_Node000008_Node000009" class="edge">
<title>Node8&#45;&gt;Node9</title>
<g id="a_edge8_Node000008_Node000009"><a xlink:title=" ">
<path fill="none" stroke="#63b8ff" d="M1871.66,-58.43C1867.04,-57.84 1862.44,-57.27 1858,-56.75 1720.22,-40.51 1558.47,-25.25 1470.04,-17.24"/>
<polygon fill="#63b8ff" stroke="#63b8ff" points="1470.36,-13.75 1460.08,-16.34 1469.73,-20.72 1470.36,-13.75"/>
</a>
</g>
</g>
<!-- Node10 -->
<g id="Node000010" class="node">
<title>Node10</title>
<g id="a_Node000010"><a xlink:title=" ">
<polygon fill="#e0e0e0" stroke="#999999" points="1991.75,-20.75 1932.25,-20.75 1932.25,0 1991.75,0 1991.75,-20.75"/>
<text text-anchor="middle" x="1962" y="-7.25" font-family="Helvetica,sans-Serif" font-size="10.00">concepts</text>
</a>
</g>
</g>
<!-- Node8&#45;&gt;Node10 -->
<g id="edge9_Node000008_Node000010" class="edge">
<title>Node8&#45;&gt;Node10</title>
<g id="a_edge9_Node000008_Node000010"><a xlink:title=" ">
<path fill="none" stroke="#63b8ff" d="M1933.26,-56.34C1937.84,-49.17 1944.2,-39.23 1949.77,-30.51"/>
<polygon fill="#63b8ff" stroke="#63b8ff" points="1952.54,-32.66 1954.98,-22.35 1946.65,-28.89 1952.54,-32.66"/>
</a>
</g>
</g>
<!-- Node11 -->
<g id="Node000011" class="node">
<title>Node11</title>
<g id="a_Node000011"><a xlink:title=" ">
<polygon fill="#e0e0e0" stroke="#999999" points="1914.25,-20.75 1869.75,-20.75 1869.75,0 1914.25,0 1914.25,-20.75"/>
<text text-anchor="middle" x="1892" y="-7.25" font-family="Helvetica,sans-Serif" font-size="10.00">utility</text>
</a>
</g>
</g>
<!-- Node8&#45;&gt;Node11 -->
<g id="edge10_Node000008_Node000011" class="edge">
<title>Node8&#45;&gt;Node11</title>
<g id="a_edge10_Node000008_Node000011"><a xlink:title=" ">
<path fill="none" stroke="#63b8ff" d="M1920.74,-56.34C1916.16,-49.17 1909.8,-39.23 1904.23,-30.51"/>
<polygon fill="#63b8ff" stroke="#63b8ff" points="1907.35,-28.89 1899.02,-22.35 1901.46,-32.66 1907.35,-28.89"/>
</a>
</g>
</g>
<!-- Node17&#45;&gt;Node9 -->
<g id="edge19_Node000017_Node000009" class="edge">
<title>Node17&#45;&gt;Node9</title>
<g id="a_edge19_Node000017_Node000009"><a xlink:title=" ">
<path fill="none" stroke="#63b8ff" d="M615.3,-57.76C618.58,-57.39 621.83,-57.05 625,-56.75 888.71,-31.45 1204.08,-18.32 1338.32,-13.54"/>
<polygon fill="#63b8ff" stroke="#63b8ff" points="1338.2,-17.04 1348.08,-13.19 1337.96,-10.05 1338.2,-17.04"/>
</a>
</g>
</g>
<!-- Node18 -->
<g id="Node000018" class="node">
<title>Node18</title>
<g id="a_Node000018"><a xlink:title=" ">
<polygon fill="#e0e0e0" stroke="#999999" points="841.62,-20.75 724.38,-20.75 724.38,0 841.62,0 841.62,-20.75"/>
<text text-anchor="middle" x="783" y="-7.25" font-family="Helvetica,sans-Serif" font-size="10.00">mlir/IR/Diagnostics.h</text>
</a>
</g>
</g>
<!-- Node17&#45;&gt;Node18 -->
<g id="edge18_Node000017_Node000018" class="edge">
<title>Node17&#45;&gt;Node18</title>
<g id="a_edge18_Node000017_Node000018"><a xlink:title=" ">
<path fill="none" stroke="#63b8ff" d="M596.03,-56.27C633.76,-47.21 689.9,-33.73 730.81,-23.91"/>
<polygon fill="#63b8ff" stroke="#63b8ff" points="731.54,-27.33 740.45,-21.59 729.91,-20.52 731.54,-27.33"/>
</a>
</g>
</g>
<!-- Node19 -->
<g id="Node000019" class="node">
<title>Node19</title>
<g id="a_Node000019"><a xlink:title=" ">
<polygon fill="#e0e0e0" stroke="#999999" points="343.62,-20.75 172.38,-20.75 172.38,0 343.62,0 343.62,-20.75"/>
<text text-anchor="middle" x="258" y="-7.25" font-family="Helvetica,sans-Serif" font-size="10.00">llvm/ADT/STLFunctionalExtras.h</text>
</a>
</g>
</g>
<!-- Node17&#45;&gt;Node19 -->
<g id="edge20_Node000017_Node000019" class="edge">
<title>Node17&#45;&gt;Node19</title>
<g id="a_edge20_Node000017_Node000019"><a xlink:title=" ">
<path fill="none" stroke="#63b8ff" d="M501.56,-56.27C451.35,-47.02 376.14,-33.15 322.59,-23.28"/>
<polygon fill="#63b8ff" stroke="#63b8ff" points="323.47,-19.88 313,-21.51 322.2,-26.77 323.47,-19.88"/>
</a>
</g>
</g>
<!-- Node20 -->
<g id="Node000020" class="node">
<title>Node20</title>
<g id="a_Node000020"><a xlink:title=" ">
<polygon fill="#e0e0e0" stroke="#999999" points="462.38,-20.75 361.62,-20.75 361.62,0 462.38,0 462.38,-20.75"/>
<text text-anchor="middle" x="412" y="-7.25" font-family="Helvetica,sans-Serif" font-size="10.00">llvm/ADT/Twine.h</text>
</a>
</g>
</g>
<!-- Node17&#45;&gt;Node20 -->
<g id="edge21_Node000017_Node000020" class="edge">
<title>Node17&#45;&gt;Node20</title>
<g id="a_edge21_Node000017_Node000020"><a xlink:title=" ">
<path fill="none" stroke="#63b8ff" d="M529.43,-56.34C506.76,-47.66 473.4,-34.88 448.02,-25.17"/>
<polygon fill="#63b8ff" stroke="#63b8ff" points="449.35,-21.93 438.76,-21.62 446.85,-28.46 449.35,-21.93"/>
</a>
</g>
</g>
<!-- Node21 -->
<g id="Node000021" class="node">
<title>Node21</title>
<g id="a_Node000021"><a xlink:title=" ">
<polygon fill="#e0e0e0" stroke="#999999" points="637.5,-20.75 480.5,-20.75 480.5,0 637.5,0 637.5,-20.75"/>
<text text-anchor="middle" x="559" y="-7.25" font-family="Helvetica,sans-Serif" font-size="10.00">llvm/Support/ErrorHandling.h</text>
</a>
</g>
</g>
<!-- Node17&#45;&gt;Node21 -->
<g id="edge22_Node000017_Node000021" class="edge">
<title>Node17&#45;&gt;Node21</title>
<g id="a_edge22_Node000017_Node000021"><a xlink:title=" ">
<path fill="none" stroke="#63b8ff" d="M555.72,-56.34C556.2,-49.72 556.86,-40.72 557.46,-32.52"/>
<polygon fill="#63b8ff" stroke="#63b8ff" points="560.94,-32.82 558.18,-22.59 553.96,-32.31 560.94,-32.82"/>
</a>
</g>
</g>
<!-- Node22 -->
<g id="Node000022" class="node">
<title>Node22</title>
<g id="a_Node000022"><a xlink:title=" ">
<polygon fill="#e0e0e0" stroke="#999999" points="706.25,-20.75 655.75,-20.75 655.75,0 706.25,0 706.25,-20.75"/>
<text text-anchor="middle" x="681" y="-7.25" font-family="Helvetica,sans-Serif" font-size="10.00">variant</text>
</a>
</g>
</g>
<!-- Node17&#45;&gt;Node22 -->
<g id="edge23_Node000017_Node000022" class="edge">
<title>Node17&#45;&gt;Node22</title>
<g id="a_edge23_Node000017_Node000022"><a xlink:title=" ">
<path fill="none" stroke="#63b8ff" d="M577.53,-56.34C597.24,-47.77 626.11,-35.23 648.35,-25.56"/>
<polygon fill="#63b8ff" stroke="#63b8ff" points="649.5,-28.88 657.28,-21.68 646.71,-22.46 649.5,-28.88"/>
</a>
</g>
</g>
<!-- Node23&#45;&gt;Node9 -->
<g id="edge27_Node000023_Node000009" class="edge">
<title>Node23&#45;&gt;Node9</title>
<g id="a_edge27_Node000023_Node000009"><a xlink:title=" ">
<path fill="none" stroke="#63b8ff" d="M956.06,-119.6C943.13,-104.45 922.47,-74.97 939,-56.75 965.3,-27.76 1216.3,-16.69 1338.2,-13"/>
<polygon fill="#63b8ff" stroke="#63b8ff" points="1338.17,-16.5 1348.07,-12.71 1337.97,-9.5 1338.17,-16.5"/>
</a>
</g>
</g>
<!-- Node23&#45;&gt;Node13 -->
<g id="edge26_Node000023_Node000013" class="edge">
<title>Node23&#45;&gt;Node13</title>
<g id="a_edge26_Node000023_Node000013"><a xlink:title=" ">
<path fill="none" stroke="#63b8ff" d="M1018.82,-119.43C1077.71,-108.68 1172.09,-91.46 1235.05,-79.98"/>
<polygon fill="#63b8ff" stroke="#63b8ff" points="1235.33,-83.48 1244.54,-78.24 1234.08,-76.6 1235.33,-83.48"/>
</a>
</g>
</g>
<!-- Node23&#45;&gt;Node17 -->
<g id="edge25_Node000023_Node000017" class="edge">
<title>Node23&#45;&gt;Node17</title>
<g id="a_edge25_Node000023_Node000017"><a xlink:title=" ">
<path fill="none" stroke="#63b8ff" d="M904.94,-120.3C831.06,-109.28 705.76,-90.6 626.85,-78.84"/>
<polygon fill="#63b8ff" stroke="#63b8ff" points="627.46,-75.39 617.05,-77.38 626.42,-82.31 627.46,-75.39"/>
</a>
</g>
</g>
<!-- Node23&#45;&gt;Node24 -->
<g id="edge28_Node000023_Node000024" class="edge">
<title>Node23&#45;&gt;Node24</title>
<g id="a_edge28_Node000023_Node000024"><a xlink:title=" ">
<path fill="none" stroke="#63b8ff" d="M972.07,-119.43C978.39,-110.64 987.83,-97.53 995.59,-86.76"/>
<polygon fill="#63b8ff" stroke="#63b8ff" points="998.21,-89.11 1001.21,-78.95 992.53,-85.02 998.21,-89.11"/>
</a>
</g>
</g>
<!-- Node25 -->
<g id="Node000025" class="node">
<title>Node25</title>
<g id="a_Node000025"><a xlink:title=" ">
<polygon fill="#e0e0e0" stroke="#999999" points="891.5,-77.5 776.5,-77.5 776.5,-56.75 891.5,-56.75 891.5,-77.5"/>
<text text-anchor="middle" x="834" y="-64" font-family="Helvetica,sans-Serif" font-size="10.00">llvm/ADT/ArrayRef.h</text>
</a>
</g>
</g>
<!-- Node23&#45;&gt;Node25 -->
<g id="edge29_Node000023_Node000025" class="edge">
<title>Node23&#45;&gt;Node25</title>
<g id="a_edge29_Node000023_Node000025"><a xlink:title=" ">
<path fill="none" stroke="#63b8ff" d="M943.95,-119.43C922.66,-109.49 889.49,-94.02 865.15,-82.66"/>
<polygon fill="#63b8ff" stroke="#63b8ff" points="866.91,-79.62 856.37,-78.56 863.95,-85.96 866.91,-79.62"/>
</a>
</g>
</g>
<!-- Node26 -->
<g id="Node000026" class="node">
<title>Node26</title>
<g id="a_Node000026"><a xlink:title=" ">
<polygon fill="#e0e0e0" stroke="#999999" points="758.38,-77.5 633.62,-77.5 633.62,-56.75 758.38,-56.75 758.38,-77.5"/>
<text text-anchor="middle" x="696" y="-64" font-family="Helvetica,sans-Serif" font-size="10.00">llvm/ADT/DenseMap.h</text>
</a>
</g>
</g>
<!-- Node23&#45;&gt;Node26 -->
<g id="edge30_Node000023_Node000026" class="edge">
<title>Node23&#45;&gt;Node26</title>
<g id="a_edge30_Node000023_Node000026"><a xlink:title=" ">
<path fill="none" stroke="#63b8ff" d="M921.78,-119.43C875.11,-108.82 800.68,-91.91 750.15,-80.43"/>
<polygon fill="#63b8ff" stroke="#63b8ff" points="751.12,-77.06 740.59,-78.26 749.56,-83.89 751.12,-77.06"/>
</a>
</g>
</g>
<!-- Node23&#45;&gt;Node27 -->
<g id="edge31_Node000023_Node000027" class="edge">
<title>Node23&#45;&gt;Node27</title>
<g id="a_edge31_Node000023_Node000027"><a xlink:title=" ">
<path fill="none" stroke="#63b8ff" d="M994.24,-119.43C1024.89,-109.14 1073.23,-92.9 1107.31,-81.46"/>
<polygon fill="#63b8ff" stroke="#63b8ff" points="1108.03,-84.9 1116.4,-78.4 1105.8,-78.27 1108.03,-84.9"/>
</a>
</g>
</g>
</g>
</svg>
