<?xml version="1.0" encoding="UTF-8" standalone="no"?>
<!DOCTYPE svg PUBLIC "-//W3C//DTD SVG 1.1//EN"
 "http://www.w3.org/Graphics/SVG/1.1/DTD/svg11.dtd">
<!-- Generated by graphviz version 12.2.1 (0)
 -->
<!-- Title: include/llzk/Pass/PassBase.h Pages: 1 -->
<svg width="5615pt" height="193pt"
 viewBox="0.00 0.00 5615.00 193.25" xmlns="http://www.w3.org/2000/svg" xmlns:xlink="http://www.w3.org/1999/xlink">
<g id="graph0" class="graph" transform="scale(1 1) rotate(0) translate(4 189.25)">
<title>include/llzk/Pass/PassBase.h</title>
<!-- Node1 -->
<g id="Node000001" class="node">
<title>Node1</title>
<g id="a_Node000001"><a xlink:title=" ">
<polygon fill="#999999" stroke="#666666" points="2180.25,-185.25 2026.25,-185.25 2026.25,-164.5 2180.25,-164.5 2180.25,-185.25"/>
<text text-anchor="middle" x="2103.25" y="-171.75" font-family="Helvetica,sans-Serif" font-size="10.00">include/llzk/Pass/PassBase.h</text>
</a>
</g>
</g>
<!-- Node2 -->
<g id="Node000002" class="node">
<title>Node2</title>
<g id="a_Node000002"><a xlink:href="AnalysisPasses_8h.html" target="_top" xlink:title=" ">
<polygon fill="white" stroke="#666666" points="744.12,-122.12 628.38,-122.12 628.38,-88.62 744.12,-88.62 744.12,-122.12"/>
<text text-anchor="start" x="636.38" y="-108.62" font-family="Helvetica,sans-Serif" font-size="10.00">include/llzk/Analysis</text>
<text text-anchor="middle" x="686.25" y="-95.88" font-family="Helvetica,sans-Serif" font-size="10.00">/AnalysisPasses.h</text>
</a>
</g>
</g>
<!-- Node1&#45;&gt;Node2 -->
<g id="edge1_Node000001_Node000002" class="edge">
<title>Node1&#45;&gt;Node2</title>
<g id="a_edge1_Node000001_Node000002"><a xlink:title=" ">
<path fill="none" stroke="#63b8ff" d="M2014.69,-169.66C1749.18,-157.01 964.54,-119.63 744.32,-109.14"/>
<polygon fill="#63b8ff" stroke="#63b8ff" points="2014.14,-173.13 2024.3,-170.11 2014.47,-166.14 2014.14,-173.13"/>
</a>
</g>
</g>
<!-- Node10 -->
<g id="Node000010" class="node">
<title>Node10</title>
<g id="a_Node000010"><a xlink:href="Array_2Transforms_2TransformationPasses_8h.html" target="_top" xlink:title=" ">
<polygon fill="white" stroke="#666666" points="1539.62,-128.5 1360.88,-128.5 1360.88,-82.25 1539.62,-82.25 1539.62,-128.5"/>
<text text-anchor="start" x="1368.88" y="-115" font-family="Helvetica,sans-Serif" font-size="10.00">include/llzk/Dialect</text>
<text text-anchor="start" x="1368.88" y="-102.25" font-family="Helvetica,sans-Serif" font-size="10.00">/Array/Transforms/Transformation</text>
<text text-anchor="middle" x="1450.25" y="-89.5" font-family="Helvetica,sans-Serif" font-size="10.00">Passes.h</text>
</a>
</g>
</g>
<!-- Node1&#45;&gt;Node10 -->
<g id="edge9_Node000001_Node000010" class="edge">
<title>Node1&#45;&gt;Node10</title>
<g id="a_edge9_Node000001_Node000010"><a xlink:title=" ">
<path fill="none" stroke="#63b8ff" d="M2014.42,-164.69C1889.92,-151.82 1664.81,-128.55 1539.88,-115.64"/>
<polygon fill="#63b8ff" stroke="#63b8ff" points="2013.97,-168.16 2024.27,-165.71 2014.69,-161.2 2013.97,-168.16"/>
</a>
</g>
</g>
<!-- Node13 -->
<g id="Node000013" class="node">
<title>Node13</title>
<g id="a_Node000013"><a xlink:href="InlineIncludesPass_8h.html" target="_top" xlink:title=" ">
<polygon fill="white" stroke="#666666" points="1882.12,-128.5 1700.38,-128.5 1700.38,-82.25 1882.12,-82.25 1882.12,-128.5"/>
<text text-anchor="start" x="1708.38" y="-115" font-family="Helvetica,sans-Serif" font-size="10.00">include/llzk/Dialect</text>
<text text-anchor="start" x="1708.38" y="-102.25" font-family="Helvetica,sans-Serif" font-size="10.00">/Include/Transforms/InlineIncludes</text>
<text text-anchor="middle" x="1791.25" y="-89.5" font-family="Helvetica,sans-Serif" font-size="10.00">Pass.h</text>
</a>
</g>
</g>
<!-- Node1&#45;&gt;Node13 -->
<g id="edge13_Node000001_Node000013" class="edge">
<title>Node1&#45;&gt;Node13</title>
<g id="a_edge13_Node000001_Node000013"><a xlink:title=" ">
<path fill="none" stroke="#63b8ff" d="M2046.69,-161.64C2000.92,-151.74 1935.56,-137.6 1882.42,-126.1"/>
<polygon fill="#63b8ff" stroke="#63b8ff" points="2045.89,-165.05 2056.4,-163.74 2047.37,-158.2 2045.89,-165.05"/>
</a>
</g>
</g>
<!-- Node17 -->
<g id="Node000017" class="node">
<title>Node17</title>
<g id="a_Node000017"><a xlink:href="POD_2Transforms_2TransformationPasses_8h.html" target="_top" xlink:title=" ">
<polygon fill="white" stroke="#666666" points="2190,-128.5 2016.5,-128.5 2016.5,-82.25 2190,-82.25 2190,-128.5"/>
<text text-anchor="start" x="2024.5" y="-115" font-family="Helvetica,sans-Serif" font-size="10.00">include/llzk/Dialect</text>
<text text-anchor="start" x="2024.5" y="-102.25" font-family="Helvetica,sans-Serif" font-size="10.00">/POD/Transforms/Transformation</text>
<text text-anchor="middle" x="2103.25" y="-89.5" font-family="Helvetica,sans-Serif" font-size="10.00">Passes.h</text>
</a>
</g>
</g>
<!-- Node1&#45;&gt;Node17 -->
<g id="edge18_Node000001_Node000017" class="edge">
<title>Node1&#45;&gt;Node17</title>
<g id="a_edge18_Node000001_Node000017"><a xlink:title=" ">
<path fill="none" stroke="#63b8ff" d="M2103.25,-152.71C2103.25,-145.12 2103.25,-136.55 2103.25,-128.86"/>
<polygon fill="#63b8ff" stroke="#63b8ff" points="2099.75,-152.69 2103.25,-162.69 2106.75,-152.69 2099.75,-152.69"/>
</a>
</g>
</g>
<!-- Node20 -->
<g id="Node000020" class="node">
<title>Node20</title>
<g id="a_Node000020"><a xlink:href="Polymorphic_2Transforms_2TransformationPasses_8h.html" target="_top" xlink:title=" ">
<polygon fill="white" stroke="#666666" points="2447.62,-128.5 2310.88,-128.5 2310.88,-82.25 2447.62,-82.25 2447.62,-128.5"/>
<text text-anchor="start" x="2318.88" y="-115" font-family="Helvetica,sans-Serif" font-size="10.00">include/llzk/Dialect</text>
<text text-anchor="start" x="2318.88" y="-102.25" font-family="Helvetica,sans-Serif" font-size="10.00">/Polymorphic/Transforms</text>
<text text-anchor="middle" x="2379.25" y="-89.5" font-family="Helvetica,sans-Serif" font-size="10.00">/TransformationPasses.h</text>
</a>
</g>
</g>
<!-- Node1&#45;&gt;Node20 -->
<g id="edge22_Node000001_Node000020" class="edge">
<title>Node1&#45;&gt;Node20</title>
<g id="a_edge22_Node000001_Node000020"><a xlink:title=" ">
<path fill="none" stroke="#63b8ff" d="M2154.38,-161.37C2198.33,-150.62 2262.07,-135.03 2310.48,-123.19"/>
<polygon fill="#63b8ff" stroke="#63b8ff" points="2153.74,-157.92 2144.85,-163.7 2155.4,-164.72 2153.74,-157.92"/>
</a>
</g>
</g>
<!-- Node25 -->
<g id="Node000025" class="node">
<title>Node25</title>
<g id="a_Node000025"><a xlink:href="LLZKTransformationPasses_8h.html" target="_top" xlink:title=" ">
<polygon fill="white" stroke="#666666" points="4015.12,-122.12 3857.38,-122.12 3857.38,-88.62 4015.12,-88.62 4015.12,-122.12"/>
<text text-anchor="start" x="3865.38" y="-108.62" font-family="Helvetica,sans-Serif" font-size="10.00">include/llzk/Transforms</text>
<text text-anchor="middle" x="3936.25" y="-95.88" font-family="Helvetica,sans-Serif" font-size="10.00">/LLZKTransformationPasses.h</text>
</a>
</g>
</g>
<!-- Node1&#45;&gt;Node25 -->
<g id="edge29_Node000001_Node000025" class="edge">
<title>Node1&#45;&gt;Node25</title>
<g id="a_edge29_Node000001_Node000025"><a xlink:title=" ">
<path fill="none" stroke="#63b8ff" d="M2191.83,-170.61C2505.26,-159.07 3558.93,-120.27 3857.06,-109.29"/>
<polygon fill="#63b8ff" stroke="#63b8ff" points="2191.93,-167.11 2182.06,-170.97 2192.18,-174.1 2191.93,-167.11"/>
</a>
</g>
</g>
<!-- Node39 -->
<g id="Node000039" class="node">
<title>Node39</title>
<g id="a_Node000039"><a xlink:href="LLZKValidationPasses_8h.html" target="_top" xlink:title=" ">
<polygon fill="white" stroke="#666666" points="4847.12,-122.12 4713.38,-122.12 4713.38,-88.62 4847.12,-88.62 4847.12,-122.12"/>
<text text-anchor="start" x="4721.38" y="-108.62" font-family="Helvetica,sans-Serif" font-size="10.00">include/llzk/Validators</text>
<text text-anchor="middle" x="4780.25" y="-95.88" font-family="Helvetica,sans-Serif" font-size="10.00">/LLZKValidationPasses.h</text>
</a>
</g>
</g>
<!-- Node1&#45;&gt;Node39 -->
<g id="edge45_Node000001_Node000039" class="edge">
<title>Node1&#45;&gt;Node39</title>
<g id="a_edge45_Node000001_Node000039"><a xlink:title=" ">
<path fill="none" stroke="#63b8ff" d="M2191.98,-171.96C2465.17,-166.01 3317.82,-147.18 4024.25,-128.5 4278.57,-121.78 4580.97,-112.56 4713,-108.47"/>
<polygon fill="#63b8ff" stroke="#63b8ff" points="2192,-168.46 2182.08,-172.17 2192.16,-175.45 2192,-168.46"/>
</a>
</g>
</g>
<!-- Node3 -->
<g id="Node000003" class="node">
<title>Node3</title>
<g id="a_Node000003"><a xlink:href="CallGraphPasses_8cpp.html" target="_top" xlink:title="This file implements the &#45;llzk&#45;print&#45;call&#45;graph and &#45;llzk&#45;print&#45;call&#45;graph&#45;sccs passes.">
<polygon fill="white" stroke="#666666" points="674.5,-33.5 498,-33.5 498,-12.75 674.5,-12.75 674.5,-33.5"/>
<text text-anchor="middle" x="586.25" y="-20" font-family="Helvetica,sans-Serif" font-size="10.00">lib/Analysis/CallGraphPasses.cpp</text>
</a>
</g>
</g>
<!-- Node2&#45;&gt;Node3 -->
<g id="edge2_Node000002_Node000003" class="edge">
<title>Node2&#45;&gt;Node3</title>
<g id="a_edge2_Node000002_Node000003"><a xlink:title=" ">
<path fill="none" stroke="#63b8ff" d="M657.16,-81.03C637.58,-65.32 612.78,-45.41 598.29,-33.79"/>
<polygon fill="#63b8ff" stroke="#63b8ff" points="654.84,-83.66 664.83,-87.19 659.22,-78.2 654.84,-83.66"/>
</a>
</g>
</g>
<!-- Node4 -->
<g id="Node000004" class="node">
<title>Node4</title>
<g id="a_Node000004"><a xlink:href="ConstraintDependencyGraphPass_8cpp.html" target="_top" xlink:title="This file implements the &#45;llzk&#45;print&#45;constraint&#45;dependency&#45;graphs pass.">
<polygon fill="white" stroke="#666666" points="878.38,-39.88 692.12,-39.88 692.12,-6.38 878.38,-6.38 878.38,-39.88"/>
<text text-anchor="start" x="700.12" y="-26.38" font-family="Helvetica,sans-Serif" font-size="10.00">lib/Analysis/ConstraintDependency</text>
<text text-anchor="middle" x="785.25" y="-13.62" font-family="Helvetica,sans-Serif" font-size="10.00">GraphPass.cpp</text>
</a>
</g>
</g>
<!-- Node2&#45;&gt;Node4 -->
<g id="edge3_Node000002_Node000004" class="edge">
<title>Node2&#45;&gt;Node4</title>
<g id="a_edge3_Node000002_Node000004"><a xlink:title=" ">
<path fill="none" stroke="#63b8ff" d="M714.82,-81.21C730.97,-68.12 750.76,-52.08 765.25,-40.34"/>
<polygon fill="#63b8ff" stroke="#63b8ff" points="713.02,-78.17 707.46,-87.18 717.43,-83.6 713.02,-78.17"/>
</a>
</g>
</g>
<!-- Node5 -->
<g id="Node000005" class="node">
<title>Node5</title>
<g id="a_Node000005"><a xlink:href="IntervalAnalysisPass_8cpp.html" target="_top" xlink:title="This file implements the &#45;llzk&#45;print&#45;interval&#45;analysis pass.">
<polygon fill="white" stroke="#666666" points="1050.25,-39.88 896.25,-39.88 896.25,-6.38 1050.25,-6.38 1050.25,-39.88"/>
<text text-anchor="start" x="904.25" y="-26.38" font-family="Helvetica,sans-Serif" font-size="10.00">lib/Analysis/IntervalAnalysis</text>
<text text-anchor="middle" x="973.25" y="-13.62" font-family="Helvetica,sans-Serif" font-size="10.00">Pass.cpp</text>
</a>
</g>
</g>
<!-- Node2&#45;&gt;Node5 -->
<g id="edge4_Node000002_Node000005" class="edge">
<title>Node2&#45;&gt;Node5</title>
<g id="a_edge4_Node000002_Node000005"><a xlink:title=" ">
<path fill="none" stroke="#63b8ff" d="M755.14,-85.11C804.05,-71.44 868.99,-53.28 915.26,-40.34"/>
<polygon fill="#63b8ff" stroke="#63b8ff" points="754.47,-81.66 745.79,-87.73 756.36,-88.41 754.47,-81.66"/>
</a>
</g>
</g>
<!-- Node6 -->
<g id="Node000006" class="node">
<title>Node6</title>
<g id="a_Node000006"><a xlink:href="PredecessorAnalysisPass_8cpp.html" target="_top" xlink:title="This file implements the &#45;llzk&#45;print&#45;predecessors pass.">
<polygon fill="white" stroke="#666666" points="134.5,-39.88 0,-39.88 0,-6.38 134.5,-6.38 134.5,-39.88"/>
<text text-anchor="start" x="8" y="-26.38" font-family="Helvetica,sans-Serif" font-size="10.00">lib/Analysis/Predecessor</text>
<text text-anchor="middle" x="67.25" y="-13.62" font-family="Helvetica,sans-Serif" font-size="10.00">AnalysisPass.cpp</text>
</a>
</g>
</g>
<!-- Node2&#45;&gt;Node6 -->
<g id="edge5_Node000002_Node000006" class="edge">
<title>Node2&#45;&gt;Node6</title>
<g id="a_edge5_Node000002_Node000006"><a xlink:title=" ">
<path fill="none" stroke="#63b8ff" d="M616.62,-100.86C512.72,-94.74 311.35,-79.44 143.25,-46.25 135.16,-44.65 126.69,-42.59 118.46,-40.36"/>
<polygon fill="#63b8ff" stroke="#63b8ff" points="616.19,-104.34 626.37,-101.43 616.59,-97.36 616.19,-104.34"/>
</a>
</g>
</g>
<!-- Node7 -->
<g id="Node000007" class="node">
<title>Node7</title>
<g id="a_Node000007"><a xlink:href="SymbolDefTreePass_8cpp.html" target="_top" xlink:title="This file implements the &#45;llzk&#45;print&#45;symbol&#45;def&#45;tree pass.">
<polygon fill="white" stroke="#666666" points="302,-39.88 152.5,-39.88 152.5,-6.38 302,-6.38 302,-39.88"/>
<text text-anchor="start" x="160.5" y="-26.38" font-family="Helvetica,sans-Serif" font-size="10.00">lib/Analysis/SymbolDefTree</text>
<text text-anchor="middle" x="227.25" y="-13.62" font-family="Helvetica,sans-Serif" font-size="10.00">Pass.cpp</text>
</a>
</g>
</g>
<!-- Node2&#45;&gt;Node7 -->
<g id="edge6_Node000002_Node000007" class="edge">
<title>Node2&#45;&gt;Node7</title>
<g id="a_edge6_Node000002_Node000007"><a xlink:title=" ">
<path fill="none" stroke="#63b8ff" d="M616.85,-95.81C541.29,-85.98 417.07,-68.32 311.25,-46.25 302.84,-44.49 294,-42.42 285.36,-40.27"/>
<polygon fill="#63b8ff" stroke="#63b8ff" points="616.23,-99.26 626.6,-97.07 617.13,-92.32 616.23,-99.26"/>
</a>
</g>
</g>
<!-- Node8 -->
<g id="Node000008" class="node">
<title>Node8</title>
<g id="a_Node000008"><a xlink:href="SymbolUseGraphPass_8cpp.html" target="_top" xlink:title="This file implements the &#45;llzk&#45;print&#45;symbol&#45;use&#45;graph pass.">
<polygon fill="white" stroke="#666666" points="480.25,-39.88 320.25,-39.88 320.25,-6.38 480.25,-6.38 480.25,-39.88"/>
<text text-anchor="start" x="328.25" y="-26.38" font-family="Helvetica,sans-Serif" font-size="10.00">lib/Analysis/SymbolUseGraph</text>
<text text-anchor="middle" x="400.25" y="-13.62" font-family="Helvetica,sans-Serif" font-size="10.00">Pass.cpp</text>
</a>
</g>
</g>
<!-- Node2&#45;&gt;Node8 -->
<g id="edge7_Node000002_Node000008" class="edge">
<title>Node2&#45;&gt;Node8</title>
<g id="a_edge7_Node000002_Node000008"><a xlink:title=" ">
<path fill="none" stroke="#63b8ff" d="M617.3,-85.03C568.59,-71.36 504.05,-53.25 458.04,-40.34"/>
<polygon fill="#63b8ff" stroke="#63b8ff" points="616.34,-88.39 626.92,-87.73 618.23,-81.65 616.34,-88.39"/>
</a>
</g>
</g>
<!-- Node9 -->
<g id="Node000009" class="node">
<title>Node9</title>
<g id="a_Node000009"><a xlink:href="llzk-opt_8cpp.html" target="_top" xlink:title="This file implements a version of the mlir&#45;opt tool configured for use on LLZK files.">
<polygon fill="white" stroke="#666666" points="2294.25,-39.88 2194.25,-39.88 2194.25,-6.38 2294.25,-6.38 2294.25,-39.88"/>
<text text-anchor="start" x="2202.25" y="-26.38" font-family="Helvetica,sans-Serif" font-size="10.00">tools/llzk&#45;opt/llzk</text>
<text text-anchor="middle" x="2244.25" y="-13.62" font-family="Helvetica,sans-Serif" font-size="10.00">&#45;opt.cpp</text>
</a>
</g>
</g>
<!-- Node2&#45;&gt;Node9 -->
<g id="edge8_Node000002_Node000009" class="edge">
<title>Node2&#45;&gt;Node9</title>
<g id="a_edge8_Node000002_Node000009"><a xlink:title=" ">
<path fill="none" stroke="#63b8ff" d="M755.57,-101.99C1045.79,-91.95 2149.78,-53.39 2185.25,-46.25 2192.22,-44.85 2199.46,-42.73 2206.37,-40.35"/>
<polygon fill="#63b8ff" stroke="#63b8ff" points="755.77,-98.48 745.89,-102.32 756.01,-105.47 755.77,-98.48"/>
</a>
</g>
</g>
<!-- Node10&#45;&gt;Node9 -->
<g id="edge12_Node000010_Node000009" class="edge">
<title>Node10&#45;&gt;Node9</title>
<g id="a_edge12_Node000010_Node000009"><a xlink:title=" ">
<path fill="none" stroke="#63b8ff" d="M1551.41,-94.66C1594.49,-90.64 1645.31,-86.03 1691.25,-82.25 1910.65,-64.19 1970.22,-93.38 2185.25,-46.25 2191.98,-44.77 2198.97,-42.69 2205.69,-40.37"/>
<polygon fill="#63b8ff" stroke="#63b8ff" points="1551.19,-91.17 1541.56,-95.58 1551.85,-98.14 1551.19,-91.17"/>
</a>
</g>
</g>
<!-- Node11 -->
<g id="Node000011" class="node">
<title>Node11</title>
<g id="a_Node000011"><a xlink:href="Array_8cpp.html" target="_top" xlink:title=" ">
<polygon fill="white" stroke="#666666" points="1376.75,-33.5 1237.75,-33.5 1237.75,-12.75 1376.75,-12.75 1376.75,-33.5"/>
<text text-anchor="middle" x="1307.25" y="-20" font-family="Helvetica,sans-Serif" font-size="10.00">lib/CAPI/Dialect/Array.cpp</text>
</a>
</g>
</g>
<!-- Node10&#45;&gt;Node11 -->
<g id="edge10_Node000010_Node000011" class="edge">
<title>Node10&#45;&gt;Node11</title>
<g id="a_edge10_Node000010_Node000011"><a xlink:title=" ">
<path fill="none" stroke="#63b8ff" d="M1400.22,-76.3C1373.96,-61.56 1343.45,-44.44 1324.75,-33.94"/>
<polygon fill="#63b8ff" stroke="#63b8ff" points="1398.28,-79.22 1408.72,-81.07 1401.71,-73.12 1398.28,-79.22"/>
</a>
</g>
</g>
<!-- Node12 -->
<g id="Node000012" class="node">
<title>Node12</title>
<g id="a_Node000012"><a xlink:href="ArrayToScalarPass_8cpp.html" target="_top" xlink:title="This file implements the &#45;llzk&#45;array&#45;to&#45;scalar pass.">
<polygon fill="white" stroke="#666666" points="1220.12,-39.88 1068.38,-39.88 1068.38,-6.38 1220.12,-6.38 1220.12,-39.88"/>
<text text-anchor="start" x="1076.38" y="-26.38" font-family="Helvetica,sans-Serif" font-size="10.00">lib/Dialect/Array/Transforms</text>
<text text-anchor="middle" x="1144.25" y="-13.62" font-family="Helvetica,sans-Serif" font-size="10.00">/ArrayToScalarPass.cpp</text>
</a>
</g>
</g>
<!-- Node10&#45;&gt;Node12 -->
<g id="edge11_Node000010_Node000012" class="edge">
<title>Node10&#45;&gt;Node12</title>
<g id="a_edge11_Node000010_Node000012"><a xlink:title=" ">
<path fill="none" stroke="#63b8ff" d="M1353.02,-78.95C1314.2,-68.79 1269.11,-56.98 1228.25,-46.25 1220.96,-44.33 1213.31,-42.32 1205.72,-40.33"/>
<polygon fill="#63b8ff" stroke="#63b8ff" points="1351.77,-82.24 1362.33,-81.39 1353.54,-75.47 1351.77,-82.24"/>
</a>
</g>
</g>
<!-- Node13&#45;&gt;Node9 -->
<g id="edge16_Node000013_Node000009" class="edge">
<title>Node13&#45;&gt;Node9</title>
<g id="a_edge16_Node000013_Node000009"><a xlink:title=" ">
<path fill="none" stroke="#63b8ff" d="M1893.41,-95.32C1973.65,-86.76 2087.74,-71.42 2185.25,-46.25 2191.61,-44.61 2198.22,-42.52 2204.63,-40.29"/>
<polygon fill="#63b8ff" stroke="#63b8ff" points="1893.4,-91.8 1883.82,-96.32 1894.13,-98.76 1893.4,-91.8"/>
</a>
</g>
</g>
<!-- Node14 -->
<g id="Node000014" class="node">
<title>Node14</title>
<g id="a_Node000014"><a xlink:href="Include_8cpp.html" target="_top" xlink:title=" ">
<polygon fill="white" stroke="#666666" points="1706,-33.5 1556.5,-33.5 1556.5,-12.75 1706,-12.75 1706,-33.5"/>
<text text-anchor="middle" x="1631.25" y="-20" font-family="Helvetica,sans-Serif" font-size="10.00">lib/CAPI/Dialect/Include.cpp</text>
</a>
</g>
</g>
<!-- Node13&#45;&gt;Node14 -->
<g id="edge14_Node000013_Node000014" class="edge">
<title>Node13&#45;&gt;Node14</title>
<g id="a_edge14_Node000013_Node000014"><a xlink:title=" ">
<path fill="none" stroke="#63b8ff" d="M1736.04,-76.69C1706.49,-61.86 1671.94,-44.53 1650.83,-33.94"/>
<polygon fill="#63b8ff" stroke="#63b8ff" points="1734.39,-79.77 1744.9,-81.13 1737.53,-73.52 1734.39,-79.77"/>
</a>
</g>
</g>
<!-- Node15 -->
<g id="Node000015" class="node">
<title>Node15</title>
<g id="a_Node000015"><a xlink:href="InlineIncludesPass_8cpp.html" target="_top" xlink:title="This file implements the &#45;llzk&#45;inline&#45;includes pass.">
<polygon fill="white" stroke="#666666" points="1538,-46.25 1394.5,-46.25 1394.5,0 1538,0 1538,-46.25"/>
<text text-anchor="start" x="1402.5" y="-32.75" font-family="Helvetica,sans-Serif" font-size="10.00">lib/Dialect/Include</text>
<text text-anchor="start" x="1402.5" y="-20" font-family="Helvetica,sans-Serif" font-size="10.00">/Transforms/InlineIncludes</text>
<text text-anchor="middle" x="1466.25" y="-7.25" font-family="Helvetica,sans-Serif" font-size="10.00">Pass.cpp</text>
</a>
</g>
</g>
<!-- Node13&#45;&gt;Node15 -->
<g id="edge15_Node000013_Node000015" class="edge">
<title>Node13&#45;&gt;Node15</title>
<g id="a_edge15_Node000013_Node000015"><a xlink:title=" ">
<path fill="none" stroke="#63b8ff" d="M1689.17,-80.84C1645.39,-70.55 1593.73,-58.13 1547.25,-46.25 1544.28,-45.49 1541.26,-44.71 1538.21,-43.91"/>
<polygon fill="#63b8ff" stroke="#63b8ff" points="1688.11,-84.19 1698.64,-83.07 1689.71,-77.38 1688.11,-84.19"/>
</a>
</g>
</g>
<!-- Node16 -->
<g id="Node000016" class="node">
<title>Node16</title>
<g id="a_Node000016"><a xlink:href="WitgenDriver_8cpp.html" target="_top" xlink:title=" ">
<polygon fill="white" stroke="#666666" points="1858.5,-39.88 1724,-39.88 1724,-6.38 1858.5,-6.38 1858.5,-39.88"/>
<text text-anchor="start" x="1732" y="-26.38" font-family="Helvetica,sans-Serif" font-size="10.00">tools/llzk&#45;witgen/Witgen</text>
<text text-anchor="middle" x="1791.25" y="-13.62" font-family="Helvetica,sans-Serif" font-size="10.00">Driver.cpp</text>
</a>
</g>
</g>
<!-- Node13&#45;&gt;Node16 -->
<g id="edge17_Node000013_Node000016" class="edge">
<title>Node13&#45;&gt;Node16</title>
<g id="a_edge17_Node000013_Node000016"><a xlink:title=" ">
<path fill="none" stroke="#63b8ff" d="M1791.25,-70.57C1791.25,-60.07 1791.25,-48.97 1791.25,-40.25"/>
<polygon fill="#63b8ff" stroke="#63b8ff" points="1787.75,-70.51 1791.25,-80.51 1794.75,-70.51 1787.75,-70.51"/>
</a>
</g>
</g>
<!-- Node17&#45;&gt;Node9 -->
<g id="edge21_Node000017_Node000009" class="edge">
<title>Node17&#45;&gt;Node9</title>
<g id="a_edge21_Node000017_Node000009"><a xlink:title=" ">
<path fill="none" stroke="#63b8ff" d="M2152.74,-76.21C2173.95,-64.14 2197.96,-50.47 2216.06,-40.17"/>
<polygon fill="#63b8ff" stroke="#63b8ff" points="2151.18,-73.07 2144.22,-81.06 2154.64,-79.15 2151.18,-73.07"/>
</a>
</g>
</g>
<!-- Node18 -->
<g id="Node000018" class="node">
<title>Node18</title>
<g id="a_Node000018"><a xlink:href="POD_8cpp.html" target="_top" xlink:title=" ">
<polygon fill="white" stroke="#666666" points="2011.88,-33.5 1876.62,-33.5 1876.62,-12.75 2011.88,-12.75 2011.88,-33.5"/>
<text text-anchor="middle" x="1944.25" y="-20" font-family="Helvetica,sans-Serif" font-size="10.00">lib/CAPI/Dialect/POD.cpp</text>
</a>
</g>
</g>
<!-- Node17&#45;&gt;Node18 -->
<g id="edge19_Node000017_Node000018" class="edge">
<title>Node17&#45;&gt;Node18</title>
<g id="a_edge19_Node000017_Node000018"><a xlink:title=" ">
<path fill="none" stroke="#63b8ff" d="M2048.39,-76.69C2019.02,-61.86 1984.68,-44.53 1963.7,-33.94"/>
<polygon fill="#63b8ff" stroke="#63b8ff" points="2046.68,-79.74 2057.19,-81.13 2049.83,-73.49 2046.68,-79.74"/>
</a>
</g>
</g>
<!-- Node19 -->
<g id="Node000019" class="node">
<title>Node19</title>
<g id="a_Node000019"><a xlink:href="PodToScalarPass_8cpp.html" target="_top" xlink:title="This file implements the &#45;llzk&#45;pod&#45;to&#45;scalar pass.">
<polygon fill="white" stroke="#666666" points="2176.5,-39.88 2030,-39.88 2030,-6.38 2176.5,-6.38 2176.5,-39.88"/>
<text text-anchor="start" x="2038" y="-26.38" font-family="Helvetica,sans-Serif" font-size="10.00">lib/Dialect/POD/Transforms</text>
<text text-anchor="middle" x="2103.25" y="-13.62" font-family="Helvetica,sans-Serif" font-size="10.00">/PodToScalarPass.cpp</text>
</a>
</g>
</g>
<!-- Node17&#45;&gt;Node19 -->
<g id="edge20_Node000017_Node000019" class="edge">
<title>Node17&#45;&gt;Node19</title>
<g id="a_edge20_Node000017_Node000019"><a xlink:title=" ">
<path fill="none" stroke="#63b8ff" d="M2103.25,-70.57C2103.25,-60.07 2103.25,-48.97 2103.25,-40.25"/>
<polygon fill="#63b8ff" stroke="#63b8ff" points="2099.75,-70.51 2103.25,-80.51 2106.75,-70.51 2099.75,-70.51"/>
</a>
</g>
</g>
<!-- Node20&#45;&gt;Node9 -->
<g id="edge26_Node000020_Node000009" class="edge">
<title>Node20&#45;&gt;Node9</title>
<g id="a_edge26_Node000020_Node000009"><a xlink:title=" ">
<path fill="none" stroke="#63b8ff" d="M2331.59,-76.05C2311.35,-64.01 2288.49,-50.43 2271.24,-40.17"/>
<polygon fill="#63b8ff" stroke="#63b8ff" points="2329.6,-78.93 2339.98,-81.03 2333.18,-72.92 2329.6,-78.93"/>
</a>
</g>
</g>
<!-- Node20&#45;&gt;Node16 -->
<g id="edge27_Node000020_Node000016" class="edge">
<title>Node20&#45;&gt;Node16</title>
<g id="a_edge27_Node000020_Node000016"><a xlink:title=" ">
<path fill="none" stroke="#63b8ff" d="M2299.22,-94.29C2268.03,-90.42 2231.98,-86.04 2199.25,-82.25 2051.81,-65.2 2012.84,-75.1 1867.25,-46.25 1859.16,-44.65 1850.69,-42.58 1842.46,-40.35"/>
<polygon fill="#63b8ff" stroke="#63b8ff" points="2298.61,-97.74 2308.97,-95.5 2299.48,-90.79 2298.61,-97.74"/>
</a>
</g>
</g>
<!-- Node21 -->
<g id="Node000021" class="node">
<title>Node21</title>
<g id="a_Node000021"><a xlink:href="Poly_8cpp.html" target="_top" xlink:title=" ">
<polygon fill="white" stroke="#666666" points="2446.12,-33.5 2312.38,-33.5 2312.38,-12.75 2446.12,-12.75 2446.12,-33.5"/>
<text text-anchor="middle" x="2379.25" y="-20" font-family="Helvetica,sans-Serif" font-size="10.00">lib/CAPI/Dialect/Poly.cpp</text>
</a>
</g>
</g>
<!-- Node20&#45;&gt;Node21 -->
<g id="edge23_Node000020_Node000021" class="edge">
<title>Node20&#45;&gt;Node21</title>
<g id="a_edge23_Node000020_Node000021"><a xlink:title=" ">
<path fill="none" stroke="#63b8ff" d="M2379.25,-70.75C2379.25,-57.46 2379.25,-43.2 2379.25,-34"/>
<polygon fill="#63b8ff" stroke="#63b8ff" points="2375.75,-70.51 2379.25,-80.51 2382.75,-70.51 2375.75,-70.51"/>
</a>
</g>
</g>
<!-- Node22 -->
<g id="Node000022" class="node">
<title>Node22</title>
<g id="a_Node000022"><a xlink:href="EmptyTemplateRemovalPass_8cpp.html" target="_top" xlink:title="This file implements the &#45;llzk&#45;drop&#45;empty&#45;templates pass.">
<polygon fill="white" stroke="#666666" points="2660.25,-46.25 2464.25,-46.25 2464.25,0 2660.25,0 2660.25,-46.25"/>
<text text-anchor="start" x="2472.25" y="-32.75" font-family="Helvetica,sans-Serif" font-size="10.00">lib/Dialect/Polymorphic</text>
<text text-anchor="start" x="2472.25" y="-20" font-family="Helvetica,sans-Serif" font-size="10.00">/Transforms/EmptyTemplateRemoval</text>
<text text-anchor="middle" x="2562.25" y="-7.25" font-family="Helvetica,sans-Serif" font-size="10.00">Pass.cpp</text>
</a>
</g>
</g>
<!-- Node20&#45;&gt;Node22 -->
<g id="edge24_Node000020_Node000022" class="edge">
<title>Node20&#45;&gt;Node22</title>
<g id="a_edge24_Node000020_Node000022"><a xlink:title=" ">
<path fill="none" stroke="#63b8ff" d="M2441.24,-77.19C2463.89,-67.26 2489.24,-56.14 2510.86,-46.66"/>
<polygon fill="#63b8ff" stroke="#63b8ff" points="2439.85,-73.98 2432.1,-81.2 2442.66,-80.39 2439.85,-73.98"/>
</a>
</g>
</g>
<!-- Node23 -->
<g id="Node000023" class="node">
<title>Node23</title>
<g id="a_Node000023"><a xlink:href="FlatteningPass_8cpp.html" target="_top" xlink:title="This file implements the &#45;llzk&#45;flatten pass.">
<polygon fill="white" stroke="#666666" points="2846,-39.88 2678.5,-39.88 2678.5,-6.38 2846,-6.38 2846,-39.88"/>
<text text-anchor="start" x="2686.5" y="-26.38" font-family="Helvetica,sans-Serif" font-size="10.00">lib/Dialect/Polymorphic</text>
<text text-anchor="middle" x="2762.25" y="-13.62" font-family="Helvetica,sans-Serif" font-size="10.00">/Transforms/FlatteningPass.cpp</text>
</a>
</g>
</g>
<!-- Node20&#45;&gt;Node23 -->
<g id="edge25_Node000020_Node000023" class="edge">
<title>Node20&#45;&gt;Node23</title>
<g id="a_edge25_Node000020_Node000023"><a xlink:title=" ">
<path fill="none" stroke="#63b8ff" d="M2458.94,-89.2C2517.29,-77.89 2598.33,-61.79 2669.25,-46.25 2677.68,-44.4 2686.52,-42.39 2695.26,-40.36"/>
<polygon fill="#63b8ff" stroke="#63b8ff" points="2458.59,-85.7 2449.44,-91.04 2459.92,-92.57 2458.59,-85.7"/>
</a>
</g>
</g>
<!-- Node24 -->
<g id="Node000024" class="node">
<title>Node24</title>
<g id="a_Node000024"><a xlink:href="WitgenLowering_8cpp.html" target="_top" xlink:title=" ">
<polygon fill="white" stroke="#666666" points="2998.5,-39.88 2864,-39.88 2864,-6.38 2998.5,-6.38 2998.5,-39.88"/>
<text text-anchor="start" x="2872" y="-26.38" font-family="Helvetica,sans-Serif" font-size="10.00">tools/llzk&#45;witgen/Witgen</text>
<text text-anchor="middle" x="2931.25" y="-13.62" font-family="Helvetica,sans-Serif" font-size="10.00">Lowering.cpp</text>
</a>
</g>
</g>
<!-- Node20&#45;&gt;Node24 -->
<g id="edge28_Node000020_Node000024" class="edge">
<title>Node20&#45;&gt;Node24</title>
<g id="a_edge28_Node000020_Node000024"><a xlink:title=" ">
<path fill="none" stroke="#63b8ff" d="M2459.25,-98.58C2554.35,-90.78 2717.52,-74.51 2855.25,-46.25 2863.19,-44.62 2871.51,-42.57 2879.61,-40.37"/>
<polygon fill="#63b8ff" stroke="#63b8ff" points="2459.19,-95.08 2449.5,-99.37 2459.75,-102.05 2459.19,-95.08"/>
</a>
</g>
</g>
<!-- Node25&#45;&gt;Node9 -->
<g id="edge43_Node000025_Node000009" class="edge">
<title>Node25&#45;&gt;Node9</title>
<g id="a_edge43_Node000025_Node000009"><a xlink:title=" ">
<path fill="none" stroke="#63b8ff" d="M3845.94,-104.98C3548.55,-106.38 2601.94,-105.92 2303.25,-46.25 2296.28,-44.86 2289.04,-42.75 2282.13,-40.37"/>
<polygon fill="#63b8ff" stroke="#63b8ff" points="3845.59,-108.48 3855.57,-104.93 3845.55,-101.48 3845.59,-108.48"/>
</a>
</g>
</g>
<!-- Node25&#45;&gt;Node24 -->
<g id="edge44_Node000025_Node000024" class="edge">
<title>Node25&#45;&gt;Node24</title>
<g id="a_edge44_Node000025_Node000024"><a xlink:title=" ">
<path fill="none" stroke="#63b8ff" d="M3845.88,-105.19C3679.06,-105.28 3312.05,-98.77 3008.25,-46.25 2999.62,-44.76 2990.57,-42.66 2981.83,-40.34"/>
<polygon fill="#63b8ff" stroke="#63b8ff" points="3845.55,-108.69 3855.54,-105.18 3845.54,-101.69 3845.55,-108.69"/>
</a>
</g>
</g>
<!-- Node26 -->
<g id="Node000026" class="node">
<title>Node26</title>
<g id="a_Node000026"><a xlink:href="Transforms_8cpp.html" target="_top" xlink:title=" ">
<polygon fill="white" stroke="#666666" points="4078.62,-33.5 3947.88,-33.5 3947.88,-12.75 4078.62,-12.75 4078.62,-33.5"/>
<text text-anchor="middle" x="4013.25" y="-20" font-family="Helvetica,sans-Serif" font-size="10.00">lib/CAPI/Transforms.cpp</text>
</a>
</g>
</g>
<!-- Node25&#45;&gt;Node26 -->
<g id="edge30_Node000025_Node000026" class="edge">
<title>Node25&#45;&gt;Node26</title>
<g id="a_edge30_Node000025_Node000026"><a xlink:title=" ">
<path fill="none" stroke="#63b8ff" d="M3959.68,-79.96C3974.59,-64.42 3993.08,-45.15 4003.98,-33.79"/>
<polygon fill="#63b8ff" stroke="#63b8ff" points="3957.28,-77.4 3952.88,-87.04 3962.33,-82.25 3957.28,-77.4"/>
</a>
</g>
</g>
<!-- Node27 -->
<g id="Node000027" class="node">
<title>Node27</title>
<g id="a_Node000027"><a xlink:href="Dialect_2InitDialects_8cpp.html" target="_top" xlink:title=" ">
<polygon fill="white" stroke="#666666" points="4241.38,-33.5 4097.12,-33.5 4097.12,-12.75 4241.38,-12.75 4241.38,-33.5"/>
<text text-anchor="middle" x="4169.25" y="-20" font-family="Helvetica,sans-Serif" font-size="10.00">lib/Dialect/InitDialects.cpp</text>
</a>
</g>
</g>
<!-- Node25&#45;&gt;Node27 -->
<g id="edge31_Node000025_Node000027" class="edge">
<title>Node25&#45;&gt;Node27</title>
<g id="a_edge31_Node000025_Node000027"><a xlink:title=" ">
<path fill="none" stroke="#63b8ff" d="M3994.28,-84.39C4040.98,-68.3 4104.6,-46.39 4140.86,-33.9"/>
<polygon fill="#63b8ff" stroke="#63b8ff" points="3993.15,-81.08 3984.83,-87.64 3995.43,-87.7 3993.15,-81.08"/>
</a>
</g>
</g>
<!-- Node28 -->
<g id="Node000028" class="node">
<title>Node28</title>
<g id="a_Node000028"><a xlink:href="LLZKComputeConstrainToProductPass_8cpp.html" target="_top" xlink:title="This file implements the &#45;llzk&#45;product&#45;program pass.">
<polygon fill="white" stroke="#666666" points="4415,-39.88 4259.5,-39.88 4259.5,-6.38 4415,-6.38 4415,-39.88"/>
<text text-anchor="start" x="4267.5" y="-26.38" font-family="Helvetica,sans-Serif" font-size="10.00">lib/Transforms/LLZKCompute</text>
<text text-anchor="middle" x="4337.25" y="-13.62" font-family="Helvetica,sans-Serif" font-size="10.00">ConstrainToProductPass.cpp</text>
</a>
</g>
</g>
<!-- Node25&#45;&gt;Node28 -->
<g id="edge32_Node000025_Node000028" class="edge">
<title>Node25&#45;&gt;Node28</title>
<g id="a_edge32_Node000025_Node000028"><a xlink:title=" ">
<path fill="none" stroke="#63b8ff" d="M4026.66,-89.27C4089.57,-78.36 4175.28,-62.7 4250.25,-46.25 4258.47,-44.45 4267.09,-42.42 4275.58,-40.34"/>
<polygon fill="#63b8ff" stroke="#63b8ff" points="4026.33,-85.77 4017.07,-90.92 4027.52,-92.67 4026.33,-85.77"/>
</a>
</g>
</g>
<!-- Node29 -->
<g id="Node000029" class="node">
<title>Node29</title>
<g id="a_Node000029"><a xlink:href="LLZKEnforceNoOverwritePass_8cpp.html" target="_top" xlink:title="This file implements the &#45;llzk&#45;enforce&#45;no&#45;overwrite pass.">
<polygon fill="white" stroke="#666666" points="4581.62,-39.88 4432.88,-39.88 4432.88,-6.38 4581.62,-6.38 4581.62,-39.88"/>
<text text-anchor="start" x="4440.88" y="-26.38" font-family="Helvetica,sans-Serif" font-size="10.00">lib/Transforms/LLZKEnforce</text>
<text text-anchor="middle" x="4507.25" y="-13.62" font-family="Helvetica,sans-Serif" font-size="10.00">NoOverwritePass.cpp</text>
</a>
</g>
</g>
<!-- Node25&#45;&gt;Node29 -->
<g id="edge33_Node000025_Node000029" class="edge">
<title>Node25&#45;&gt;Node29</title>
<g id="a_edge33_Node000025_Node000029"><a xlink:title=" ">
<path fill="none" stroke="#63b8ff" d="M4026.77,-97.46C4125.19,-89.05 4286.82,-72.61 4424.25,-46.25 4432.89,-44.59 4441.96,-42.52 4450.79,-40.32"/>
<polygon fill="#63b8ff" stroke="#63b8ff" points="4026.56,-93.97 4016.89,-98.3 4027.15,-100.95 4026.56,-93.97"/>
</a>
</g>
</g>
<!-- Node30 -->
<g id="Node000030" class="node">
<title>Node30</title>
<g id="a_Node000030"><a xlink:href="LLZKFuseProductLoopsPass_8cpp.html" target="_top" xlink:title="This file implements the &#45;llzk&#45;fuse&#45;product&#45;loops pass.">
<polygon fill="white" stroke="#666666" points="4770.88,-39.88 4599.62,-39.88 4599.62,-6.38 4770.88,-6.38 4770.88,-39.88"/>
<text text-anchor="start" x="4607.62" y="-26.38" font-family="Helvetica,sans-Serif" font-size="10.00">lib/Transforms/LLZKFuseProduct</text>
<text text-anchor="middle" x="4685.25" y="-13.62" font-family="Helvetica,sans-Serif" font-size="10.00">LoopsPass.cpp</text>
</a>
</g>
</g>
<!-- Node25&#45;&gt;Node30 -->
<g id="edge34_Node000025_Node000030" class="edge">
<title>Node25&#45;&gt;Node30</title>
<g id="a_edge34_Node000025_Node000030"><a xlink:title=" ">
<path fill="none" stroke="#63b8ff" d="M4026.63,-100.35C4153.27,-93.81 4390.44,-78.23 4590.25,-46.25 4600.28,-44.64 4610.83,-42.58 4621.1,-40.35"/>
<polygon fill="#63b8ff" stroke="#63b8ff" points="4026.79,-96.84 4016.98,-100.85 4027.14,-103.83 4026.79,-96.84"/>
</a>
</g>
</g>
<!-- Node31 -->
<g id="Node000031" class="node">
<title>Node31</title>
<g id="a_Node000031"><a xlink:href="LLZKInlineStructsPass_8cpp.html" target="_top" xlink:title="This file implements the &#45;llzk&#45;inline&#45;structs pass.">
<polygon fill="white" stroke="#666666" points="4927.75,-39.88 4788.75,-39.88 4788.75,-6.38 4927.75,-6.38 4927.75,-39.88"/>
<text text-anchor="start" x="4796.75" y="-26.38" font-family="Helvetica,sans-Serif" font-size="10.00">lib/Transforms/LLZKInline</text>
<text text-anchor="middle" x="4858.25" y="-13.62" font-family="Helvetica,sans-Serif" font-size="10.00">StructsPass.cpp</text>
</a>
</g>
</g>
<!-- Node25&#45;&gt;Node31 -->
<g id="edge35_Node000025_Node000031" class="edge">
<title>Node25&#45;&gt;Node31</title>
<g id="a_edge35_Node000025_Node000031"><a xlink:title=" ">
<path fill="none" stroke="#63b8ff" d="M4026.78,-104.28C4182.11,-102.74 4508.87,-93.55 4780.25,-46.25 4788.99,-44.73 4798.15,-42.61 4806.99,-40.29"/>
<polygon fill="#63b8ff" stroke="#63b8ff" points="4026.93,-100.77 4016.96,-104.36 4026.99,-107.77 4026.93,-100.77"/>
</a>
</g>
</g>
<!-- Node32 -->
<g id="Node000032" class="node">
<title>Node32</title>
<g id="a_Node000032"><a xlink:href="LLZKInliningExtensions_8cpp.html" target="_top" xlink:title=" ">
<polygon fill="white" stroke="#666666" points="5094.25,-39.88 4946.25,-39.88 4946.25,-6.38 5094.25,-6.38 5094.25,-39.88"/>
<text text-anchor="start" x="4954.25" y="-26.38" font-family="Helvetica,sans-Serif" font-size="10.00">lib/Transforms/LLZKInlining</text>
<text text-anchor="middle" x="5020.25" y="-13.62" font-family="Helvetica,sans-Serif" font-size="10.00">Extensions.cpp</text>
</a>
</g>
</g>
<!-- Node25&#45;&gt;Node32 -->
<g id="edge36_Node000025_Node000032" class="edge">
<title>Node25&#45;&gt;Node32</title>
<g id="a_edge36_Node000025_Node000032"><a xlink:title=" ">
<path fill="none" stroke="#63b8ff" d="M4026.64,-105.22C4202.96,-105.54 4604.67,-99.67 4937.25,-46.25 4946.53,-44.76 4956.26,-42.66 4965.67,-40.35"/>
<polygon fill="#63b8ff" stroke="#63b8ff" points="4026.87,-101.73 4016.86,-105.2 4026.86,-108.73 4026.87,-101.73"/>
</a>
</g>
</g>
<!-- Node33 -->
<g id="Node000033" class="node">
<title>Node33</title>
<g id="a_Node000033"><a xlink:href="LLZKPolyLoweringPass_8cpp.html" target="_top" xlink:title="This file implements the &#45;llzk&#45;poly&#45;lowering pass.">
<polygon fill="white" stroke="#666666" points="5289.88,-39.88 5112.62,-39.88 5112.62,-6.38 5289.88,-6.38 5289.88,-39.88"/>
<text text-anchor="start" x="5120.62" y="-26.38" font-family="Helvetica,sans-Serif" font-size="10.00">lib/Transforms/LLZKPolyLowering</text>
<text text-anchor="middle" x="5201.25" y="-13.62" font-family="Helvetica,sans-Serif" font-size="10.00">Pass.cpp</text>
</a>
</g>
</g>
<!-- Node25&#45;&gt;Node33 -->
<g id="edge37_Node000025_Node000033" class="edge">
<title>Node25&#45;&gt;Node33</title>
<g id="a_edge37_Node000025_Node000033"><a xlink:title=" ">
<path fill="none" stroke="#63b8ff" d="M4026.6,-101.89C4262.96,-95.07 4895.62,-74.64 5103.25,-46.25 5114.14,-44.76 5125.6,-42.67 5136.7,-40.35"/>
<polygon fill="#63b8ff" stroke="#63b8ff" points="4026.71,-98.39 4016.82,-102.17 4026.92,-105.38 4026.71,-98.39"/>
</a>
</g>
</g>
<!-- Node34 -->
<g id="Node000034" class="node">
<title>Node34</title>
<g id="a_Node000034"><a xlink:href="LLZKRedundantOperationEliminationPass_8cpp.html" target="_top" xlink:title="This file implements the &#45;llzk&#45;duplicate&#45;op&#45;elim pass.">
<polygon fill="white" stroke="#666666" points="3181.5,-39.88 3017,-39.88 3017,-6.38 3181.5,-6.38 3181.5,-39.88"/>
<text text-anchor="start" x="3025" y="-26.38" font-family="Helvetica,sans-Serif" font-size="10.00">lib/Transforms/LLZKRedundant</text>
<text text-anchor="middle" x="3099.25" y="-13.62" font-family="Helvetica,sans-Serif" font-size="10.00">OperationEliminationPass.cpp</text>
</a>
</g>
</g>
<!-- Node25&#45;&gt;Node34 -->
<g id="edge38_Node000025_Node000034" class="edge">
<title>Node25&#45;&gt;Node34</title>
<g id="a_edge38_Node000025_Node000034"><a xlink:title=" ">
<path fill="none" stroke="#63b8ff" d="M3845.95,-102.02C3705.1,-97.29 3424.91,-83.67 3190.25,-46.25 3180.46,-44.69 3170.16,-42.61 3160.16,-40.36"/>
<polygon fill="#63b8ff" stroke="#63b8ff" points="3845.46,-105.5 3855.57,-102.33 3845.69,-98.51 3845.46,-105.5"/>
</a>
</g>
</g>
<!-- Node35 -->
<g id="Node000035" class="node">
<title>Node35</title>
<g id="a_Node000035"><a xlink:href="LLZKRedundantReadAndWriteEliminationPass_8cpp.html" target="_top" xlink:title="This file implements the &#45;llzk&#45;duplicate&#45;read&#45;write&#45;elim pass.">
<polygon fill="white" stroke="#666666" points="3382.88,-39.88 3199.62,-39.88 3199.62,-6.38 3382.88,-6.38 3382.88,-39.88"/>
<text text-anchor="start" x="3207.62" y="-26.38" font-family="Helvetica,sans-Serif" font-size="10.00">lib/Transforms/LLZKRedundant</text>
<text text-anchor="middle" x="3291.25" y="-13.62" font-family="Helvetica,sans-Serif" font-size="10.00">ReadAndWriteEliminationPass.cpp</text>
</a>
</g>
</g>
<!-- Node25&#45;&gt;Node35 -->
<g id="edge39_Node000025_Node000035" class="edge">
<title>Node25&#45;&gt;Node35</title>
<g id="a_edge39_Node000025_Node000035"><a xlink:title=" ">
<path fill="none" stroke="#63b8ff" d="M3845.86,-97.76C3737.59,-89.13 3550.94,-72.03 3392.25,-46.25 3381.97,-44.58 3371.17,-42.53 3360.6,-40.36"/>
<polygon fill="#63b8ff" stroke="#63b8ff" points="3845.31,-101.22 3855.55,-98.52 3845.86,-94.25 3845.31,-101.22"/>
</a>
</g>
</g>
<!-- Node36 -->
<g id="Node000036" class="node">
<title>Node36</title>
<g id="a_Node000036"><a xlink:href="LLZKTransformationPassPipelines_8cpp.html" target="_top" xlink:title="This file implements logic for registering several pass pipelines.">
<polygon fill="white" stroke="#666666" points="3585.62,-39.88 3400.88,-39.88 3400.88,-6.38 3585.62,-6.38 3585.62,-39.88"/>
<text text-anchor="start" x="3408.88" y="-26.38" font-family="Helvetica,sans-Serif" font-size="10.00">lib/Transforms/LLZKTransformation</text>
<text text-anchor="middle" x="3493.25" y="-13.62" font-family="Helvetica,sans-Serif" font-size="10.00">PassPipelines.cpp</text>
</a>
</g>
</g>
<!-- Node25&#45;&gt;Node36 -->
<g id="edge40_Node000025_Node000036" class="edge">
<title>Node25&#45;&gt;Node36</title>
<g id="a_edge40_Node000025_Node000036"><a xlink:title=" ">
<path fill="none" stroke="#63b8ff" d="M3845.67,-90.18C3776.61,-79.06 3679.23,-62.77 3594.25,-46.25 3584.91,-44.43 3575.11,-42.42 3565.44,-40.37"/>
<polygon fill="#63b8ff" stroke="#63b8ff" points="3845.01,-93.62 3855.44,-91.74 3846.12,-86.7 3845.01,-93.62"/>
</a>
</g>
</g>
<!-- Node37 -->
<g id="Node000037" class="node">
<title>Node37</title>
<g id="a_Node000037"><a xlink:href="LLZKUnusedDeclarationEliminationPass_8cpp.html" target="_top" xlink:title="This file implements the &#45;llzk&#45;unused&#45;declaration&#45;elim pass.">
<polygon fill="white" stroke="#666666" points="3773.12,-39.88 3603.38,-39.88 3603.38,-6.38 3773.12,-6.38 3773.12,-39.88"/>
<text text-anchor="start" x="3611.38" y="-26.38" font-family="Helvetica,sans-Serif" font-size="10.00">lib/Transforms/LLZKUnused</text>
<text text-anchor="middle" x="3688.25" y="-13.62" font-family="Helvetica,sans-Serif" font-size="10.00">DeclarationEliminationPass.cpp</text>
</a>
</g>
</g>
<!-- Node25&#45;&gt;Node37 -->
<g id="edge41_Node000025_Node000037" class="edge">
<title>Node25&#45;&gt;Node37</title>
<g id="a_edge41_Node000025_Node000037"><a xlink:title=" ">
<path fill="none" stroke="#63b8ff" d="M3875.12,-84.59C3833.04,-70.98 3777.84,-53.12 3738.36,-40.34"/>
<polygon fill="#63b8ff" stroke="#63b8ff" points="3874.03,-87.92 3884.62,-87.67 3876.19,-81.26 3874.03,-87.92"/>
</a>
</g>
</g>
<!-- Node38 -->
<g id="Node000038" class="node">
<title>Node38</title>
<g id="a_Node000038"><a xlink:href="LLZKWhileToForPass_8cpp.html" target="_top" xlink:title="This file identifies scf.while loops that can be converted to scf.for loops and performs the conversi...">
<polygon fill="white" stroke="#666666" points="3929.75,-39.88 3790.75,-39.88 3790.75,-6.38 3929.75,-6.38 3929.75,-39.88"/>
<text text-anchor="start" x="3798.75" y="-26.38" font-family="Helvetica,sans-Serif" font-size="10.00">lib/Transforms/LLZKWhile</text>
<text text-anchor="middle" x="3860.25" y="-13.62" font-family="Helvetica,sans-Serif" font-size="10.00">ToForPass.cpp</text>
</a>
</g>
</g>
<!-- Node25&#45;&gt;Node38 -->
<g id="edge42_Node000025_Node000038" class="edge">
<title>Node25&#45;&gt;Node38</title>
<g id="a_edge42_Node000025_Node000038"><a xlink:title=" ">
<path fill="none" stroke="#63b8ff" d="M3913.28,-80.12C3901.08,-67.24 3886.42,-51.76 3875.61,-40.34"/>
<polygon fill="#63b8ff" stroke="#63b8ff" points="3910.41,-82.18 3919.83,-87.04 3915.49,-77.37 3910.41,-82.18"/>
</a>
</g>
</g>
<!-- Node39&#45;&gt;Node9 -->
<g id="edge48_Node000039_Node000009" class="edge">
<title>Node39&#45;&gt;Node9</title>
<g id="a_edge48_Node000039_Node000009"><a xlink:title=" ">
<path fill="none" stroke="#63b8ff" d="M4701.79,-101.86C4564.47,-97.52 4271.62,-88.46 4024.25,-82.25 3833.05,-77.45 2491.08,-82.34 2303.25,-46.25 2296.16,-44.89 2288.8,-42.76 2281.79,-40.34"/>
<polygon fill="#63b8ff" stroke="#63b8ff" points="4701.38,-105.35 4711.49,-102.17 4701.6,-98.36 4701.38,-105.35"/>
</a>
</g>
</g>
<!-- Node40 -->
<g id="Node000040" class="node">
<title>Node40</title>
<g id="a_Node000040"><a xlink:href="Validators_8cpp.html" target="_top" xlink:title=" ">
<polygon fill="white" stroke="#666666" points="5607,-33.5 5481.5,-33.5 5481.5,-12.75 5607,-12.75 5607,-33.5"/>
<text text-anchor="middle" x="5544.25" y="-20" font-family="Helvetica,sans-Serif" font-size="10.00">lib/CAPI/Validators.cpp</text>
</a>
</g>
</g>
<!-- Node39&#45;&gt;Node40 -->
<g id="edge46_Node000039_Node000040" class="edge">
<title>Node39&#45;&gt;Node40</title>
<g id="a_edge46_Node000039_Node000040"><a xlink:title=" ">
<path fill="none" stroke="#63b8ff" d="M4858.52,-103.24C4987.55,-100.17 5252.5,-88.73 5472.25,-46.25 5487.4,-43.32 5503.88,-38.39 5517.25,-33.93"/>
<polygon fill="#63b8ff" stroke="#63b8ff" points="4858.65,-99.74 4848.73,-103.47 4858.81,-106.74 4858.65,-99.74"/>
</a>
</g>
</g>
<!-- Node41 -->
<g id="Node000041" class="node">
<title>Node41</title>
<g id="a_Node000041"><a xlink:href="LLZKValidationPasses_8cpp.html" target="_top" xlink:title="This file contains the implementation for the &#45;llzk&#45;validate&#45;member&#45;writes pass.">
<polygon fill="white" stroke="#666666" points="5463,-39.88 5307.5,-39.88 5307.5,-6.38 5463,-6.38 5463,-39.88"/>
<text text-anchor="start" x="5315.5" y="-26.38" font-family="Helvetica,sans-Serif" font-size="10.00">lib/Validators/LLZKValidation</text>
<text text-anchor="middle" x="5385.25" y="-13.62" font-family="Helvetica,sans-Serif" font-size="10.00">Passes.cpp</text>
</a>
</g>
</g>
<!-- Node39&#45;&gt;Node41 -->
<g id="edge47_Node000039_Node000041" class="edge">
<title>Node39&#45;&gt;Node41</title>
<g id="a_edge47_Node000039_Node000041"><a xlink:title=" ">
<path fill="none" stroke="#63b8ff" d="M4858.9,-99.02C4961.01,-91.28 5144.48,-74.68 5299.25,-46.25 5308.2,-44.61 5317.59,-42.55 5326.74,-40.35"/>
<polygon fill="#63b8ff" stroke="#63b8ff" points="4858.68,-95.53 4848.97,-99.76 4859.2,-102.51 4858.68,-95.53"/>
</a>
</g>
</g>
</g>
</svg>
