<?xml version="1.0" encoding="UTF-8" standalone="no"?>
<!DOCTYPE svg PUBLIC "-//W3C//DTD SVG 1.1//EN"
 "http://www.w3.org/Graphics/SVG/1.1/DTD/svg11.dtd">
<!-- Generated by graphviz version 12.2.1 (0)
 -->
<!-- Title: include/llzk/Pass/PassBase.h Pages: 1 -->
<svg width="6072pt" height="193pt"
 viewBox="0.00 0.00 6072.00 193.25" xmlns="http://www.w3.org/2000/svg" xmlns:xlink="http://www.w3.org/1999/xlink">
<g id="graph0" class="graph" transform="scale(1 1) rotate(0) translate(4 189.25)">
<title>include/llzk/Pass/PassBase.h</title>
<!-- Node1 -->
<g id="Node000001" class="node">
<title>Node1</title>
<g id="a_Node000001"><a xlink:title=" ">
<polygon fill="#999999" stroke="#666666" points="2059.25,-185.25 1905.25,-185.25 1905.25,-164.5 2059.25,-164.5 2059.25,-185.25"/>
<text text-anchor="middle" x="1982.25" y="-171.75" font-family="Helvetica,sans-Serif" font-size="10.00">include/llzk/Pass/PassBase.h</text>
</a>
</g>
</g>
<!-- Node2 -->
<g id="Node000002" class="node">
<title>Node2</title>
<g id="a_Node000002"><a xlink:href="AnalysisPasses_8h.html" target="_top" xlink:title=" ">
<polygon fill="white" stroke="#666666" points="744.12,-122.12 628.38,-122.12 628.38,-88.62 744.12,-88.62 744.12,-122.12"/>
<text text-anchor="start" x="636.38" y="-108.62" font-family="Helvetica,sans-Serif" font-size="10.00">include/llzk/Analysis</text>
<text text-anchor="middle" x="686.25" y="-95.88" font-family="Helvetica,sans-Serif" font-size="10.00">/AnalysisPasses.h</text>
</a>
</g>
</g>
<!-- Node1&#45;&gt;Node2 -->
<g id="edge1_Node000001_Node000002" class="edge">
<title>Node1&#45;&gt;Node2</title>
<g id="a_edge1_Node000001_Node000002"><a xlink:title=" ">
<path fill="none" stroke="#63b8ff" d="M1893.6,-169.26C1645.82,-156.35 950.71,-120.15 744.57,-109.41"/>
<polygon fill="#63b8ff" stroke="#63b8ff" points="1893.38,-172.75 1903.55,-169.78 1893.74,-165.76 1893.38,-172.75"/>
</a>
</g>
</g>
<!-- Node10 -->
<g id="Node000010" class="node">
<title>Node10</title>
<g id="a_Node000010"><a xlink:href="Array_2Transforms_2TransformationPasses_8h.html" target="_top" xlink:title=" ">
<polygon fill="white" stroke="#666666" points="1877.62,-128.5 1698.88,-128.5 1698.88,-82.25 1877.62,-82.25 1877.62,-128.5"/>
<text text-anchor="start" x="1706.88" y="-115" font-family="Helvetica,sans-Serif" font-size="10.00">include/llzk/Dialect</text>
<text text-anchor="start" x="1706.88" y="-102.25" font-family="Helvetica,sans-Serif" font-size="10.00">/Array/Transforms/Transformation</text>
<text text-anchor="middle" x="1788.25" y="-89.5" font-family="Helvetica,sans-Serif" font-size="10.00">Passes.h</text>
</a>
</g>
</g>
<!-- Node1&#45;&gt;Node10 -->
<g id="edge9_Node000001_Node000010" class="edge">
<title>Node1&#45;&gt;Node10</title>
<g id="a_edge9_Node000001_Node000010"><a xlink:title=" ">
<path fill="none" stroke="#63b8ff" d="M1943.19,-160.28C1917.36,-151.3 1882.88,-139.3 1853.01,-128.91"/>
<polygon fill="#63b8ff" stroke="#63b8ff" points="1942.02,-163.58 1952.61,-163.56 1944.32,-156.97 1942.02,-163.58"/>
</a>
</g>
</g>
<!-- Node13 -->
<g id="Node000013" class="node">
<title>Node13</title>
<g id="a_Node000013"><a xlink:href="InlineIncludesPass_8h.html" target="_top" xlink:title=" ">
<polygon fill="white" stroke="#666666" points="1681.12,-128.5 1499.38,-128.5 1499.38,-82.25 1681.12,-82.25 1681.12,-128.5"/>
<text text-anchor="start" x="1507.38" y="-115" font-family="Helvetica,sans-Serif" font-size="10.00">include/llzk/Dialect</text>
<text text-anchor="start" x="1507.38" y="-102.25" font-family="Helvetica,sans-Serif" font-size="10.00">/Include/Transforms/InlineIncludes</text>
<text text-anchor="middle" x="1590.25" y="-89.5" font-family="Helvetica,sans-Serif" font-size="10.00">Pass.h</text>
</a>
</g>
</g>
<!-- Node1&#45;&gt;Node13 -->
<g id="edge13_Node000001_Node000013" class="edge">
<title>Node1&#45;&gt;Node13</title>
<g id="a_edge13_Node000001_Node000013"><a xlink:title=" ">
<path fill="none" stroke="#63b8ff" d="M1899.58,-162.46C1840.98,-154.02 1760.59,-141.73 1690.25,-128.5 1687.37,-127.96 1684.44,-127.39 1681.49,-126.81"/>
<polygon fill="#63b8ff" stroke="#63b8ff" points="1898.74,-165.87 1909.13,-163.83 1899.73,-158.94 1898.74,-165.87"/>
</a>
</g>
</g>
<!-- Node17 -->
<g id="Node000017" class="node">
<title>Node17</title>
<g id="a_Node000017"><a xlink:href="POD_2Transforms_2TransformationPasses_8h.html" target="_top" xlink:title=" ">
<polygon fill="white" stroke="#666666" points="2069,-128.5 1895.5,-128.5 1895.5,-82.25 2069,-82.25 2069,-128.5"/>
<text text-anchor="start" x="1903.5" y="-115" font-family="Helvetica,sans-Serif" font-size="10.00">include/llzk/Dialect</text>
<text text-anchor="start" x="1903.5" y="-102.25" font-family="Helvetica,sans-Serif" font-size="10.00">/POD/Transforms/Transformation</text>
<text text-anchor="middle" x="1982.25" y="-89.5" font-family="Helvetica,sans-Serif" font-size="10.00">Passes.h</text>
</a>
</g>
</g>
<!-- Node1&#45;&gt;Node17 -->
<g id="edge18_Node000001_Node000017" class="edge">
<title>Node1&#45;&gt;Node17</title>
<g id="a_edge18_Node000001_Node000017"><a xlink:title=" ">
<path fill="none" stroke="#63b8ff" d="M1982.25,-152.71C1982.25,-145.12 1982.25,-136.55 1982.25,-128.86"/>
<polygon fill="#63b8ff" stroke="#63b8ff" points="1978.75,-152.69 1982.25,-162.69 1985.75,-152.69 1978.75,-152.69"/>
</a>
</g>
</g>
<!-- Node20 -->
<g id="Node000020" class="node">
<title>Node20</title>
<g id="a_Node000020"><a xlink:href="Polymorphic_2Transforms_2TransformationPasses_8h.html" target="_top" xlink:title=" ">
<polygon fill="white" stroke="#666666" points="2284.62,-128.5 2147.88,-128.5 2147.88,-82.25 2284.62,-82.25 2284.62,-128.5"/>
<text text-anchor="start" x="2155.88" y="-115" font-family="Helvetica,sans-Serif" font-size="10.00">include/llzk/Dialect</text>
<text text-anchor="start" x="2155.88" y="-102.25" font-family="Helvetica,sans-Serif" font-size="10.00">/Polymorphic/Transforms</text>
<text text-anchor="middle" x="2216.25" y="-89.5" font-family="Helvetica,sans-Serif" font-size="10.00">/TransformationPasses.h</text>
</a>
</g>
</g>
<!-- Node1&#45;&gt;Node20 -->
<g id="edge22_Node000001_Node000020" class="edge">
<title>Node1&#45;&gt;Node20</title>
<g id="a_edge22_Node000001_Node000020"><a xlink:title=" ">
<path fill="none" stroke="#63b8ff" d="M2027.28,-160.89C2061.31,-151.07 2108.62,-137.42 2147.39,-126.24"/>
<polygon fill="#63b8ff" stroke="#63b8ff" points="2026.37,-157.51 2017.73,-163.64 2028.31,-164.23 2026.37,-157.51"/>
</a>
</g>
</g>
<!-- Node26 -->
<g id="Node000026" class="node">
<title>Node26</title>
<g id="a_Node000026"><a xlink:href="LLZKTransformationPasses_8h.html" target="_top" xlink:title=" ">
<polygon fill="white" stroke="#666666" points="4117.12,-122.12 3959.38,-122.12 3959.38,-88.62 4117.12,-88.62 4117.12,-122.12"/>
<text text-anchor="start" x="3967.38" y="-108.62" font-family="Helvetica,sans-Serif" font-size="10.00">include/llzk/Transforms</text>
<text text-anchor="middle" x="4038.25" y="-95.88" font-family="Helvetica,sans-Serif" font-size="10.00">/LLZKTransformationPasses.h</text>
</a>
</g>
</g>
<!-- Node1&#45;&gt;Node26 -->
<g id="edge30_Node000001_Node000026" class="edge">
<title>Node1&#45;&gt;Node26</title>
<g id="a_edge30_Node000001_Node000026"><a xlink:title=" ">
<path fill="none" stroke="#63b8ff" d="M2070.99,-170.96C2411.92,-159.77 3634.71,-119.62 3958.9,-108.98"/>
<polygon fill="#63b8ff" stroke="#63b8ff" points="2071.11,-167.46 2061.23,-171.28 2071.34,-174.45 2071.11,-167.46"/>
</a>
</g>
</g>
<!-- Node41 -->
<g id="Node000041" class="node">
<title>Node41</title>
<g id="a_Node000041"><a xlink:href="LLZKValidationPasses_8h.html" target="_top" xlink:title=" ">
<polygon fill="white" stroke="#666666" points="5142.12,-122.12 5008.38,-122.12 5008.38,-88.62 5142.12,-88.62 5142.12,-122.12"/>
<text text-anchor="start" x="5016.38" y="-108.62" font-family="Helvetica,sans-Serif" font-size="10.00">include/llzk/Validators</text>
<text text-anchor="middle" x="5075.25" y="-95.88" font-family="Helvetica,sans-Serif" font-size="10.00">/LLZKValidationPasses.h</text>
</a>
</g>
</g>
<!-- Node1&#45;&gt;Node41 -->
<g id="edge50_Node000001_Node000041" class="edge">
<title>Node1&#45;&gt;Node41</title>
<g id="a_edge50_Node000001_Node000041"><a xlink:title=" ">
<path fill="none" stroke="#63b8ff" d="M2071.04,-172.06C2364.31,-166.07 3328.74,-146.24 4126.25,-128.5 4457.01,-121.14 4852.59,-111.72 5007.94,-107.99"/>
<polygon fill="#63b8ff" stroke="#63b8ff" points="2071.09,-168.56 2061.16,-172.27 2071.23,-175.56 2071.09,-168.56"/>
</a>
</g>
</g>
<!-- Node3 -->
<g id="Node000003" class="node">
<title>Node3</title>
<g id="a_Node000003"><a xlink:href="CallGraphPasses_8cpp.html" target="_top" xlink:title="This file implements the &#45;llzk&#45;print&#45;call&#45;graph and &#45;llzk&#45;print&#45;call&#45;graph&#45;sccs passes.">
<polygon fill="white" stroke="#666666" points="674.5,-33.5 498,-33.5 498,-12.75 674.5,-12.75 674.5,-33.5"/>
<text text-anchor="middle" x="586.25" y="-20" font-family="Helvetica,sans-Serif" font-size="10.00">lib/Analysis/CallGraphPasses.cpp</text>
</a>
</g>
</g>
<!-- Node2&#45;&gt;Node3 -->
<g id="edge2_Node000002_Node000003" class="edge">
<title>Node2&#45;&gt;Node3</title>
<g id="a_edge2_Node000002_Node000003"><a xlink:title=" ">
<path fill="none" stroke="#63b8ff" d="M657.16,-81.03C637.58,-65.32 612.78,-45.41 598.29,-33.79"/>
<polygon fill="#63b8ff" stroke="#63b8ff" points="654.84,-83.66 664.83,-87.19 659.22,-78.2 654.84,-83.66"/>
</a>
</g>
</g>
<!-- Node4 -->
<g id="Node000004" class="node">
<title>Node4</title>
<g id="a_Node000004"><a xlink:href="ConstraintDependencyGraphPass_8cpp.html" target="_top" xlink:title="This file implements the &#45;llzk&#45;print&#45;constraint&#45;dependency&#45;graphs pass.">
<polygon fill="white" stroke="#666666" points="878.38,-39.88 692.12,-39.88 692.12,-6.38 878.38,-6.38 878.38,-39.88"/>
<text text-anchor="start" x="700.12" y="-26.38" font-family="Helvetica,sans-Serif" font-size="10.00">lib/Analysis/ConstraintDependency</text>
<text text-anchor="middle" x="785.25" y="-13.62" font-family="Helvetica,sans-Serif" font-size="10.00">GraphPass.cpp</text>
</a>
</g>
</g>
<!-- Node2&#45;&gt;Node4 -->
<g id="edge3_Node000002_Node000004" class="edge">
<title>Node2&#45;&gt;Node4</title>
<g id="a_edge3_Node000002_Node000004"><a xlink:title=" ">
<path fill="none" stroke="#63b8ff" d="M714.82,-81.21C730.97,-68.12 750.76,-52.08 765.25,-40.34"/>
<polygon fill="#63b8ff" stroke="#63b8ff" points="713.02,-78.17 707.46,-87.18 717.43,-83.6 713.02,-78.17"/>
</a>
</g>
</g>
<!-- Node5 -->
<g id="Node000005" class="node">
<title>Node5</title>
<g id="a_Node000005"><a xlink:href="IntervalAnalysisPass_8cpp.html" target="_top" xlink:title="This file implements the &#45;llzk&#45;print&#45;interval&#45;analysis pass.">
<polygon fill="white" stroke="#666666" points="1050.25,-39.88 896.25,-39.88 896.25,-6.38 1050.25,-6.38 1050.25,-39.88"/>
<text text-anchor="start" x="904.25" y="-26.38" font-family="Helvetica,sans-Serif" font-size="10.00">lib/Analysis/IntervalAnalysis</text>
<text text-anchor="middle" x="973.25" y="-13.62" font-family="Helvetica,sans-Serif" font-size="10.00">Pass.cpp</text>
</a>
</g>
</g>
<!-- Node2&#45;&gt;Node5 -->
<g id="edge4_Node000002_Node000005" class="edge">
<title>Node2&#45;&gt;Node5</title>
<g id="a_edge4_Node000002_Node000005"><a xlink:title=" ">
<path fill="none" stroke="#63b8ff" d="M755.14,-85.11C804.05,-71.44 868.99,-53.28 915.26,-40.34"/>
<polygon fill="#63b8ff" stroke="#63b8ff" points="754.47,-81.66 745.79,-87.73 756.36,-88.41 754.47,-81.66"/>
</a>
</g>
</g>
<!-- Node6 -->
<g id="Node000006" class="node">
<title>Node6</title>
<g id="a_Node000006"><a xlink:href="PredecessorAnalysisPass_8cpp.html" target="_top" xlink:title="This file implements the &#45;llzk&#45;print&#45;predecessors pass.">
<polygon fill="white" stroke="#666666" points="134.5,-39.88 0,-39.88 0,-6.38 134.5,-6.38 134.5,-39.88"/>
<text text-anchor="start" x="8" y="-26.38" font-family="Helvetica,sans-Serif" font-size="10.00">lib/Analysis/Predecessor</text>
<text text-anchor="middle" x="67.25" y="-13.62" font-family="Helvetica,sans-Serif" font-size="10.00">AnalysisPass.cpp</text>
</a>
</g>
</g>
<!-- Node2&#45;&gt;Node6 -->
<g id="edge5_Node000002_Node000006" class="edge">
<title>Node2&#45;&gt;Node6</title>
<g id="a_edge5_Node000002_Node000006"><a xlink:title=" ">
<path fill="none" stroke="#63b8ff" d="M616.62,-100.86C512.72,-94.74 311.35,-79.44 143.25,-46.25 135.16,-44.65 126.69,-42.59 118.46,-40.36"/>
<polygon fill="#63b8ff" stroke="#63b8ff" points="616.19,-104.34 626.37,-101.43 616.59,-97.36 616.19,-104.34"/>
</a>
</g>
</g>
<!-- Node7 -->
<g id="Node000007" class="node">
<title>Node7</title>
<g id="a_Node000007"><a xlink:href="SymbolDefTreePass_8cpp.html" target="_top" xlink:title="This file implements the &#45;llzk&#45;print&#45;symbol&#45;def&#45;tree pass.">
<polygon fill="white" stroke="#666666" points="302,-39.88 152.5,-39.88 152.5,-6.38 302,-6.38 302,-39.88"/>
<text text-anchor="start" x="160.5" y="-26.38" font-family="Helvetica,sans-Serif" font-size="10.00">lib/Analysis/SymbolDefTree</text>
<text text-anchor="middle" x="227.25" y="-13.62" font-family="Helvetica,sans-Serif" font-size="10.00">Pass.cpp</text>
</a>
</g>
</g>
<!-- Node2&#45;&gt;Node7 -->
<g id="edge6_Node000002_Node000007" class="edge">
<title>Node2&#45;&gt;Node7</title>
<g id="a_edge6_Node000002_Node000007"><a xlink:title=" ">
<path fill="none" stroke="#63b8ff" d="M616.85,-95.81C541.29,-85.98 417.07,-68.32 311.25,-46.25 302.84,-44.49 294,-42.42 285.36,-40.27"/>
<polygon fill="#63b8ff" stroke="#63b8ff" points="616.23,-99.26 626.6,-97.07 617.13,-92.32 616.23,-99.26"/>
</a>
</g>
</g>
<!-- Node8 -->
<g id="Node000008" class="node">
<title>Node8</title>
<g id="a_Node000008"><a xlink:href="SymbolUseGraphPass_8cpp.html" target="_top" xlink:title="This file implements the &#45;llzk&#45;print&#45;symbol&#45;use&#45;graph pass.">
<polygon fill="white" stroke="#666666" points="480.25,-39.88 320.25,-39.88 320.25,-6.38 480.25,-6.38 480.25,-39.88"/>
<text text-anchor="start" x="328.25" y="-26.38" font-family="Helvetica,sans-Serif" font-size="10.00">lib/Analysis/SymbolUseGraph</text>
<text text-anchor="middle" x="400.25" y="-13.62" font-family="Helvetica,sans-Serif" font-size="10.00">Pass.cpp</text>
</a>
</g>
</g>
<!-- Node2&#45;&gt;Node8 -->
<g id="edge7_Node000002_Node000008" class="edge">
<title>Node2&#45;&gt;Node8</title>
<g id="a_edge7_Node000002_Node000008"><a xlink:title=" ">
<path fill="none" stroke="#63b8ff" d="M617.3,-85.03C568.59,-71.36 504.05,-53.25 458.04,-40.34"/>
<polygon fill="#63b8ff" stroke="#63b8ff" points="616.34,-88.39 626.92,-87.73 618.23,-81.65 616.34,-88.39"/>
</a>
</g>
</g>
<!-- Node9 -->
<g id="Node000009" class="node">
<title>Node9</title>
<g id="a_Node000009"><a xlink:href="llzk-opt_8cpp.html" target="_top" xlink:title="This file implements a version of the mlir&#45;opt tool configured for use on LLZK files.">
<polygon fill="white" stroke="#666666" points="1807.25,-39.88 1707.25,-39.88 1707.25,-6.38 1807.25,-6.38 1807.25,-39.88"/>
<text text-anchor="start" x="1715.25" y="-26.38" font-family="Helvetica,sans-Serif" font-size="10.00">tools/llzk&#45;opt/llzk</text>
<text text-anchor="middle" x="1757.25" y="-13.62" font-family="Helvetica,sans-Serif" font-size="10.00">&#45;opt.cpp</text>
</a>
</g>
</g>
<!-- Node2&#45;&gt;Node9 -->
<g id="edge8_Node000002_Node000009" class="edge">
<title>Node2&#45;&gt;Node9</title>
<g id="a_edge8_Node000002_Node000009"><a xlink:title=" ">
<path fill="none" stroke="#63b8ff" d="M755.87,-103.1C953.91,-99.04 1517.71,-84.37 1698.25,-46.25 1705.1,-44.8 1712.21,-42.7 1719.03,-40.35"/>
<polygon fill="#63b8ff" stroke="#63b8ff" points="755.92,-99.6 745.99,-103.3 756.06,-106.6 755.92,-99.6"/>
</a>
</g>
</g>
<!-- Node10&#45;&gt;Node9 -->
<g id="edge12_Node000010_Node000009" class="edge">
<title>Node10&#45;&gt;Node9</title>
<g id="a_edge12_Node000010_Node000009"><a xlink:title=" ">
<path fill="none" stroke="#63b8ff" d="M1775.58,-71.59C1771.41,-60.78 1766.95,-49.25 1763.48,-40.25"/>
<polygon fill="#63b8ff" stroke="#63b8ff" points="1772.2,-72.54 1779.07,-80.61 1778.73,-70.02 1772.2,-72.54"/>
</a>
</g>
</g>
<!-- Node11 -->
<g id="Node000011" class="node">
<title>Node11</title>
<g id="a_Node000011"><a xlink:href="Array_8cpp.html" target="_top" xlink:title=" ">
<polygon fill="white" stroke="#666666" points="1536.75,-33.5 1397.75,-33.5 1397.75,-12.75 1536.75,-12.75 1536.75,-33.5"/>
<text text-anchor="middle" x="1467.25" y="-20" font-family="Helvetica,sans-Serif" font-size="10.00">lib/CAPI/Dialect/Array.cpp</text>
</a>
</g>
</g>
<!-- Node10&#45;&gt;Node11 -->
<g id="edge10_Node000010_Node000011" class="edge">
<title>Node10&#45;&gt;Node11</title>
<g id="a_edge10_Node000010_Node000011"><a xlink:title=" ">
<path fill="none" stroke="#63b8ff" d="M1687.24,-81C1643.76,-70.71 1592.41,-58.25 1546.25,-46.25 1531.5,-42.41 1515.28,-37.92 1501.39,-33.99"/>
<polygon fill="#63b8ff" stroke="#63b8ff" points="1686.4,-84.4 1696.94,-83.29 1688.01,-77.59 1686.4,-84.4"/>
</a>
</g>
</g>
<!-- Node12 -->
<g id="Node000012" class="node">
<title>Node12</title>
<g id="a_Node000012"><a xlink:href="ArrayToScalarPass_8cpp.html" target="_top" xlink:title="This file implements the &#45;llzk&#45;array&#45;to&#45;scalar pass.">
<polygon fill="white" stroke="#666666" points="2728.12,-39.88 2576.38,-39.88 2576.38,-6.38 2728.12,-6.38 2728.12,-39.88"/>
<text text-anchor="start" x="2584.38" y="-26.38" font-family="Helvetica,sans-Serif" font-size="10.00">lib/Dialect/Array/Transforms</text>
<text text-anchor="middle" x="2652.25" y="-13.62" font-family="Helvetica,sans-Serif" font-size="10.00">/ArrayToScalarPass.cpp</text>
</a>
</g>
</g>
<!-- Node10&#45;&gt;Node12 -->
<g id="edge11_Node000010_Node000012" class="edge">
<title>Node10&#45;&gt;Node12</title>
<g id="a_edge11_Node000010_Node000012"><a xlink:title=" ">
<path fill="none" stroke="#63b8ff" d="M1889.06,-81.98C2188.5,-41.98 2271.39,-92.09 2567.25,-46.25 2576.89,-44.76 2587.03,-42.63 2596.81,-40.27"/>
<polygon fill="#63b8ff" stroke="#63b8ff" points="1888.8,-78.49 1879.36,-83.3 1889.74,-85.42 1888.8,-78.49"/>
</a>
</g>
</g>
<!-- Node13&#45;&gt;Node9 -->
<g id="edge16_Node000013_Node000009" class="edge">
<title>Node13&#45;&gt;Node9</title>
<g id="a_edge16_Node000013_Node000009"><a xlink:title=" ">
<path fill="none" stroke="#63b8ff" d="M1647.46,-76.88C1672.83,-64.69 1701.79,-50.77 1723.6,-40.3"/>
<polygon fill="#63b8ff" stroke="#63b8ff" points="1646.07,-73.67 1638.58,-81.15 1649.11,-79.98 1646.07,-73.67"/>
</a>
</g>
</g>
<!-- Node14 -->
<g id="Node000014" class="node">
<title>Node14</title>
<g id="a_Node000014"><a xlink:href="Include_8cpp.html" target="_top" xlink:title=" ">
<polygon fill="white" stroke="#666666" points="1380,-33.5 1230.5,-33.5 1230.5,-12.75 1380,-12.75 1380,-33.5"/>
<text text-anchor="middle" x="1305.25" y="-20" font-family="Helvetica,sans-Serif" font-size="10.00">lib/CAPI/Dialect/Include.cpp</text>
</a>
</g>
</g>
<!-- Node13&#45;&gt;Node14 -->
<g id="edge14_Node000013_Node000014" class="edge">
<title>Node13&#45;&gt;Node14</title>
<g id="a_edge14_Node000013_Node000014"><a xlink:title=" ">
<path fill="none" stroke="#63b8ff" d="M1499.09,-78.71C1444.97,-63.47 1379.45,-45.02 1340.12,-33.94"/>
<polygon fill="#63b8ff" stroke="#63b8ff" points="1498.07,-82.06 1508.65,-81.4 1499.97,-75.32 1498.07,-82.06"/>
</a>
</g>
</g>
<!-- Node15 -->
<g id="Node000015" class="node">
<title>Node15</title>
<g id="a_Node000015"><a xlink:href="InlineIncludesPass_8cpp.html" target="_top" xlink:title="This file implements the &#45;llzk&#45;inline&#45;includes pass.">
<polygon fill="white" stroke="#666666" points="1212,-46.25 1068.5,-46.25 1068.5,0 1212,0 1212,-46.25"/>
<text text-anchor="start" x="1076.5" y="-32.75" font-family="Helvetica,sans-Serif" font-size="10.00">lib/Dialect/Include</text>
<text text-anchor="start" x="1076.5" y="-20" font-family="Helvetica,sans-Serif" font-size="10.00">/Transforms/InlineIncludes</text>
<text text-anchor="middle" x="1140.25" y="-7.25" font-family="Helvetica,sans-Serif" font-size="10.00">Pass.cpp</text>
</a>
</g>
</g>
<!-- Node13&#45;&gt;Node15 -->
<g id="edge15_Node000013_Node000015" class="edge">
<title>Node13&#45;&gt;Node15</title>
<g id="a_edge15_Node000013_Node000015"><a xlink:title=" ">
<path fill="none" stroke="#63b8ff" d="M1487.9,-91.35C1413.53,-81.13 1310.66,-65.44 1221.25,-46.25 1218.26,-45.61 1215.21,-44.92 1212.14,-44.2"/>
<polygon fill="#63b8ff" stroke="#63b8ff" points="1487.25,-94.79 1497.63,-92.67 1488.19,-87.85 1487.25,-94.79"/>
</a>
</g>
</g>
<!-- Node16 -->
<g id="Node000016" class="node">
<title>Node16</title>
<g id="a_Node000016"><a xlink:href="WitgenDriver_8cpp.html" target="_top" xlink:title=" ">
<polygon fill="white" stroke="#666666" points="1689.5,-39.88 1555,-39.88 1555,-6.38 1689.5,-6.38 1689.5,-39.88"/>
<text text-anchor="start" x="1563" y="-26.38" font-family="Helvetica,sans-Serif" font-size="10.00">tools/llzk&#45;witgen/Witgen</text>
<text text-anchor="middle" x="1622.25" y="-13.62" font-family="Helvetica,sans-Serif" font-size="10.00">Driver.cpp</text>
</a>
</g>
</g>
<!-- Node13&#45;&gt;Node16 -->
<g id="edge17_Node000013_Node000016" class="edge">
<title>Node13&#45;&gt;Node16</title>
<g id="a_edge17_Node000013_Node000016"><a xlink:title=" ">
<path fill="none" stroke="#63b8ff" d="M1603.32,-71.59C1607.63,-60.78 1612.23,-49.25 1615.82,-40.25"/>
<polygon fill="#63b8ff" stroke="#63b8ff" points="1600.18,-70.03 1599.72,-80.62 1606.68,-72.62 1600.18,-70.03"/>
</a>
</g>
</g>
<!-- Node17&#45;&gt;Node9 -->
<g id="edge21_Node000017_Node000009" class="edge">
<title>Node17&#45;&gt;Node9</title>
<g id="a_edge21_Node000017_Node000009"><a xlink:title=" ">
<path fill="none" stroke="#63b8ff" d="M1906.07,-78.1C1877.81,-68.24 1845.52,-56.86 1816.25,-46.25 1811,-44.35 1805.51,-42.33 1800.07,-40.31"/>
<polygon fill="#63b8ff" stroke="#63b8ff" points="1904.67,-81.31 1915.26,-81.29 1906.97,-74.7 1904.67,-81.31"/>
</a>
</g>
</g>
<!-- Node18 -->
<g id="Node000018" class="node">
<title>Node18</title>
<g id="a_Node000018"><a xlink:href="POD_8cpp.html" target="_top" xlink:title=" ">
<polygon fill="white" stroke="#666666" points="1960.88,-33.5 1825.62,-33.5 1825.62,-12.75 1960.88,-12.75 1960.88,-33.5"/>
<text text-anchor="middle" x="1893.25" y="-20" font-family="Helvetica,sans-Serif" font-size="10.00">lib/CAPI/Dialect/POD.cpp</text>
</a>
</g>
</g>
<!-- Node17&#45;&gt;Node18 -->
<g id="edge19_Node000017_Node000018" class="edge">
<title>Node17&#45;&gt;Node18</title>
<g id="a_edge19_Node000017_Node000018"><a xlink:title=" ">
<path fill="none" stroke="#63b8ff" d="M1948.94,-74.34C1933.14,-60.1 1915.33,-44.04 1904.2,-34"/>
<polygon fill="#63b8ff" stroke="#63b8ff" points="1946.56,-76.91 1956.33,-81.01 1951.25,-71.71 1946.56,-76.91"/>
</a>
</g>
</g>
<!-- Node19 -->
<g id="Node000019" class="node">
<title>Node19</title>
<g id="a_Node000019"><a xlink:href="PodToScalarPass_8cpp.html" target="_top" xlink:title="This file implements the &#45;llzk&#45;pod&#45;to&#45;scalar pass.">
<polygon fill="white" stroke="#666666" points="2892.5,-39.88 2746,-39.88 2746,-6.38 2892.5,-6.38 2892.5,-39.88"/>
<text text-anchor="start" x="2754" y="-26.38" font-family="Helvetica,sans-Serif" font-size="10.00">lib/Dialect/POD/Transforms</text>
<text text-anchor="middle" x="2819.25" y="-13.62" font-family="Helvetica,sans-Serif" font-size="10.00">/PodToScalarPass.cpp</text>
</a>
</g>
</g>
<!-- Node17&#45;&gt;Node19 -->
<g id="edge20_Node000017_Node000019" class="edge">
<title>Node17&#45;&gt;Node19</title>
<g id="a_edge20_Node000017_Node000019"><a xlink:title=" ">
<path fill="none" stroke="#63b8ff" d="M2080.61,-89.29C2100.01,-86.66 2120.25,-84.16 2139.25,-82.25 2404.18,-55.65 2474.47,-89.15 2737.25,-46.25 2746.42,-44.75 2756.04,-42.65 2765.34,-40.34"/>
<polygon fill="#63b8ff" stroke="#63b8ff" points="2080.22,-85.81 2070.8,-90.64 2081.18,-92.74 2080.22,-85.81"/>
</a>
</g>
</g>
<!-- Node20&#45;&gt;Node9 -->
<g id="edge27_Node000020_Node000009" class="edge">
<title>Node20&#45;&gt;Node9</title>
<g id="a_edge27_Node000020_Node000009"><a xlink:title=" ">
<path fill="none" stroke="#63b8ff" d="M2136.18,-91.23C2117.2,-88.2 2097.02,-85.04 2078.25,-82.25 1961.99,-64.95 1930.2,-75.06 1816.25,-46.25 1809.89,-44.64 1803.26,-42.57 1796.86,-40.34"/>
<polygon fill="#63b8ff" stroke="#63b8ff" points="2135.58,-94.68 2146.01,-92.8 2136.69,-87.76 2135.58,-94.68"/>
</a>
</g>
</g>
<!-- Node20&#45;&gt;Node16 -->
<g id="edge28_Node000020_Node000016" class="edge">
<title>Node20&#45;&gt;Node16</title>
<g id="a_edge28_Node000020_Node000016"><a xlink:title=" ">
<path fill="none" stroke="#63b8ff" d="M2136.26,-90.65C2117.28,-87.65 2097.08,-84.65 2078.25,-82.25 1909.97,-60.81 1864.88,-78.1 1698.25,-46.25 1690.02,-44.68 1681.39,-42.6 1673.03,-40.34"/>
<polygon fill="#63b8ff" stroke="#63b8ff" points="2135.66,-94.1 2146.09,-92.23 2136.77,-87.19 2135.66,-94.1"/>
</a>
</g>
</g>
<!-- Node21 -->
<g id="Node000021" class="node">
<title>Node21</title>
<g id="a_Node000021"><a xlink:href="Poly_8cpp.html" target="_top" xlink:title=" ">
<polygon fill="white" stroke="#666666" points="2344.12,-33.5 2210.38,-33.5 2210.38,-12.75 2344.12,-12.75 2344.12,-33.5"/>
<text text-anchor="middle" x="2277.25" y="-20" font-family="Helvetica,sans-Serif" font-size="10.00">lib/CAPI/Dialect/Poly.cpp</text>
</a>
</g>
</g>
<!-- Node20&#45;&gt;Node21 -->
<g id="edge23_Node000020_Node000021" class="edge">
<title>Node20&#45;&gt;Node21</title>
<g id="a_edge23_Node000020_Node000021"><a xlink:title=" ">
<path fill="none" stroke="#63b8ff" d="M2239.98,-73.15C2250.58,-59.21 2262.33,-43.76 2269.75,-34"/>
<polygon fill="#63b8ff" stroke="#63b8ff" points="2237.42,-70.74 2234.16,-80.82 2243,-74.97 2237.42,-70.74"/>
</a>
</g>
</g>
<!-- Node22 -->
<g id="Node000022" class="node">
<title>Node22</title>
<g id="a_Node000022"><a xlink:href="EmptyTemplateRemovalPass_8cpp.html" target="_top" xlink:title="This file implements the &#45;llzk&#45;drop&#45;empty&#45;templates pass.">
<polygon fill="white" stroke="#666666" points="2558.25,-46.25 2362.25,-46.25 2362.25,0 2558.25,0 2558.25,-46.25"/>
<text text-anchor="start" x="2370.25" y="-32.75" font-family="Helvetica,sans-Serif" font-size="10.00">lib/Dialect/Polymorphic</text>
<text text-anchor="start" x="2370.25" y="-20" font-family="Helvetica,sans-Serif" font-size="10.00">/Transforms/EmptyTemplateRemoval</text>
<text text-anchor="middle" x="2460.25" y="-7.25" font-family="Helvetica,sans-Serif" font-size="10.00">Pass.cpp</text>
</a>
</g>
</g>
<!-- Node20&#45;&gt;Node22 -->
<g id="edge24_Node000020_Node000022" class="edge">
<title>Node20&#45;&gt;Node22</title>
<g id="a_edge24_Node000020_Node000022"><a xlink:title=" ">
<path fill="none" stroke="#63b8ff" d="M2295.64,-78.26C2326.65,-68.07 2361.85,-56.49 2391.73,-46.66"/>
<polygon fill="#63b8ff" stroke="#63b8ff" points="2294.71,-74.89 2286.3,-81.33 2296.9,-81.53 2294.71,-74.89"/>
</a>
</g>
</g>
<!-- Node23 -->
<g id="Node000023" class="node">
<title>Node23</title>
<g id="a_Node000023"><a xlink:href="FlatteningPass_8cpp.html" target="_top" xlink:title="This file implements the &#45;llzk&#45;flatten pass.">
<polygon fill="white" stroke="#666666" points="3231,-39.88 3063.5,-39.88 3063.5,-6.38 3231,-6.38 3231,-39.88"/>
<text text-anchor="start" x="3071.5" y="-26.38" font-family="Helvetica,sans-Serif" font-size="10.00">lib/Dialect/Polymorphic</text>
<text text-anchor="middle" x="3147.25" y="-13.62" font-family="Helvetica,sans-Serif" font-size="10.00">/Transforms/FlatteningPass.cpp</text>
</a>
</g>
</g>
<!-- Node20&#45;&gt;Node23 -->
<g id="edge25_Node000020_Node000023" class="edge">
<title>Node20&#45;&gt;Node23</title>
<g id="a_edge25_Node000020_Node000023"><a xlink:title=" ">
<path fill="none" stroke="#63b8ff" d="M2296.43,-103.19C2446.17,-100 2778.15,-88.37 3054.25,-46.25 3064.34,-44.71 3074.95,-42.63 3085.25,-40.37"/>
<polygon fill="#63b8ff" stroke="#63b8ff" points="2296.54,-99.68 2286.62,-103.39 2296.69,-106.68 2296.54,-99.68"/>
</a>
</g>
</g>
<!-- Node24 -->
<g id="Node000024" class="node">
<title>Node24</title>
<g id="a_Node000024"><a xlink:href="WildcardArraySpecializationPass_8cpp.html" target="_top" xlink:title="This file implements the &#45;llzk&#45;specialize&#45;wildcard&#45;arrays pass.">
<polygon fill="white" stroke="#666666" points="2191.88,-46.25 1978.62,-46.25 1978.62,0 2191.88,0 2191.88,-46.25"/>
<text text-anchor="start" x="1986.62" y="-32.75" font-family="Helvetica,sans-Serif" font-size="10.00">lib/Dialect/Polymorphic</text>
<text text-anchor="start" x="1986.62" y="-20" font-family="Helvetica,sans-Serif" font-size="10.00">/Transforms/WildcardArraySpecialization</text>
<text text-anchor="middle" x="2085.25" y="-7.25" font-family="Helvetica,sans-Serif" font-size="10.00">Pass.cpp</text>
</a>
</g>
</g>
<!-- Node20&#45;&gt;Node24 -->
<g id="edge26_Node000020_Node000024" class="edge">
<title>Node20&#45;&gt;Node24</title>
<g id="a_edge26_Node000020_Node000024"><a xlink:title=" ">
<path fill="none" stroke="#63b8ff" d="M2169.84,-75.95C2154.08,-66.29 2136.7,-55.64 2121.81,-46.52"/>
<polygon fill="#63b8ff" stroke="#63b8ff" points="2167.76,-78.78 2178.12,-81.02 2171.42,-72.81 2167.76,-78.78"/>
</a>
</g>
</g>
<!-- Node25 -->
<g id="Node000025" class="node">
<title>Node25</title>
<g id="a_Node000025"><a xlink:href="WitgenLowering_8cpp.html" target="_top" xlink:title=" ">
<polygon fill="white" stroke="#666666" points="3045.5,-39.88 2911,-39.88 2911,-6.38 3045.5,-6.38 3045.5,-39.88"/>
<text text-anchor="start" x="2919" y="-26.38" font-family="Helvetica,sans-Serif" font-size="10.00">tools/llzk&#45;witgen/Witgen</text>
<text text-anchor="middle" x="2978.25" y="-13.62" font-family="Helvetica,sans-Serif" font-size="10.00">Lowering.cpp</text>
</a>
</g>
</g>
<!-- Node20&#45;&gt;Node25 -->
<g id="edge29_Node000020_Node000025" class="edge">
<title>Node20&#45;&gt;Node25</title>
<g id="a_edge29_Node000020_Node000025"><a xlink:title=" ">
<path fill="none" stroke="#63b8ff" d="M2296.17,-102.64C2424.67,-98.72 2684.77,-86.14 2901.25,-46.25 2909.73,-44.69 2918.62,-42.58 2927.22,-40.29"/>
<polygon fill="#63b8ff" stroke="#63b8ff" points="2296.3,-99.13 2286.41,-102.93 2296.51,-106.13 2296.3,-99.13"/>
</a>
</g>
</g>
<!-- Node26&#45;&gt;Node9 -->
<g id="edge48_Node000026_Node000009" class="edge">
<title>Node26&#45;&gt;Node9</title>
<g id="a_edge48_Node000026_Node000009"><a xlink:title=" ">
<path fill="none" stroke="#63b8ff" d="M3947.5,-103.78C3556.69,-100.96 2027.41,-87.4 1816.25,-46.25 1809.16,-44.87 1801.81,-42.73 1794.8,-40.31"/>
<polygon fill="#63b8ff" stroke="#63b8ff" points="3947.47,-107.28 3957.49,-103.85 3947.52,-100.28 3947.47,-107.28"/>
</a>
</g>
</g>
<!-- Node26&#45;&gt;Node12 -->
<g id="edge32_Node000026_Node000012" class="edge">
<title>Node26&#45;&gt;Node12</title>
<g id="a_edge32_Node000026_Node000012"><a xlink:title=" ">
<path fill="none" stroke="#63b8ff" d="M3947.46,-102.8C3692.13,-97.97 2971.19,-81.52 2737.25,-46.25 2727.6,-44.8 2717.46,-42.68 2707.68,-40.34"/>
<polygon fill="#63b8ff" stroke="#63b8ff" points="3947.32,-106.3 3957.39,-102.98 3947.45,-99.3 3947.32,-106.3"/>
</a>
</g>
</g>
<!-- Node26&#45;&gt;Node19 -->
<g id="edge34_Node000026_Node000019" class="edge">
<title>Node26&#45;&gt;Node19</title>
<g id="a_edge34_Node000026_Node000019"><a xlink:title=" ">
<path fill="none" stroke="#63b8ff" d="M3947.83,-102.19C3715.73,-96.2 3103.09,-77.8 2902.25,-46.25 2892.82,-44.77 2882.92,-42.65 2873.37,-40.29"/>
<polygon fill="#63b8ff" stroke="#63b8ff" points="3947.65,-105.69 3957.74,-102.45 3947.83,-98.69 3947.65,-105.69"/>
</a>
</g>
</g>
<!-- Node26&#45;&gt;Node23 -->
<g id="edge35_Node000026_Node000023" class="edge">
<title>Node26&#45;&gt;Node23</title>
<g id="a_edge35_Node000026_Node000023"><a xlink:title=" ">
<path fill="none" stroke="#63b8ff" d="M3947.64,-102.6C3798.92,-98.6 3494.07,-85.89 3239.25,-46.25 3229.19,-44.68 3218.6,-42.58 3208.34,-40.29"/>
<polygon fill="#63b8ff" stroke="#63b8ff" points="3947.35,-106.09 3957.43,-102.85 3947.53,-99.09 3947.35,-106.09"/>
</a>
</g>
</g>
<!-- Node26&#45;&gt;Node25 -->
<g id="edge49_Node000026_Node000025" class="edge">
<title>Node26&#45;&gt;Node25</title>
<g id="a_edge49_Node000026_Node000025"><a xlink:title=" ">
<path fill="none" stroke="#63b8ff" d="M3947.83,-101.63C3738.3,-94.84 3224.49,-75.67 3054.25,-46.25 3045.58,-44.75 3036.5,-42.62 3027.75,-40.27"/>
<polygon fill="#63b8ff" stroke="#63b8ff" points="3947.46,-105.12 3957.57,-101.94 3947.68,-98.12 3947.46,-105.12"/>
</a>
</g>
</g>
<!-- Node27 -->
<g id="Node000027" class="node">
<title>Node27</title>
<g id="a_Node000027"><a xlink:href="Transforms_8cpp.html" target="_top" xlink:title=" ">
<polygon fill="white" stroke="#666666" points="4730.62,-33.5 4599.88,-33.5 4599.88,-12.75 4730.62,-12.75 4730.62,-33.5"/>
<text text-anchor="middle" x="4665.25" y="-20" font-family="Helvetica,sans-Serif" font-size="10.00">lib/CAPI/Transforms.cpp</text>
</a>
</g>
</g>
<!-- Node26&#45;&gt;Node27 -->
<g id="edge31_Node000026_Node000027" class="edge">
<title>Node26&#45;&gt;Node27</title>
<g id="a_edge31_Node000026_Node000027"><a xlink:title=" ">
<path fill="none" stroke="#63b8ff" d="M4128.63,-100.04C4238.77,-93.57 4430.12,-78.51 4591.25,-46.25 4606.5,-43.2 4623.13,-38.37 4636.75,-34"/>
<polygon fill="#63b8ff" stroke="#63b8ff" points="4128.54,-96.54 4118.75,-100.61 4128.94,-103.53 4128.54,-96.54"/>
</a>
</g>
</g>
<!-- Node28 -->
<g id="Node000028" class="node">
<title>Node28</title>
<g id="a_Node000028"><a xlink:href="Dialect_2InitDialects_8cpp.html" target="_top" xlink:title=" ">
<polygon fill="white" stroke="#666666" points="4893.38,-33.5 4749.12,-33.5 4749.12,-12.75 4893.38,-12.75 4893.38,-33.5"/>
<text text-anchor="middle" x="4821.25" y="-20" font-family="Helvetica,sans-Serif" font-size="10.00">lib/Dialect/InitDialects.cpp</text>
</a>
</g>
</g>
<!-- Node26&#45;&gt;Node28 -->
<g id="edge33_Node000026_Node000028" class="edge">
<title>Node26&#45;&gt;Node28</title>
<g id="a_edge33_Node000026_Node000028"><a xlink:title=" ">
<path fill="none" stroke="#63b8ff" d="M4128.84,-102.09C4263.07,-97.52 4522.28,-84.2 4739.25,-46.25 4756.24,-43.28 4774.83,-38.4 4790.01,-33.98"/>
<polygon fill="#63b8ff" stroke="#63b8ff" points="4128.82,-98.59 4118.94,-102.42 4129.05,-105.58 4128.82,-98.59"/>
</a>
</g>
</g>
<!-- Node29 -->
<g id="Node000029" class="node">
<title>Node29</title>
<g id="a_Node000029"><a xlink:href="LLZKComputeConstrainToProductPass_8cpp.html" target="_top" xlink:title="This file implements the &#45;llzk&#45;product&#45;program pass.">
<polygon fill="white" stroke="#666666" points="5067,-39.88 4911.5,-39.88 4911.5,-6.38 5067,-6.38 5067,-39.88"/>
<text text-anchor="start" x="4919.5" y="-26.38" font-family="Helvetica,sans-Serif" font-size="10.00">lib/Transforms/LLZKCompute</text>
<text text-anchor="middle" x="4989.25" y="-13.62" font-family="Helvetica,sans-Serif" font-size="10.00">ConstrainToProductPass.cpp</text>
</a>
</g>
</g>
<!-- Node26&#45;&gt;Node29 -->
<g id="edge36_Node000026_Node000029" class="edge">
<title>Node26&#45;&gt;Node29</title>
<g id="a_edge36_Node000026_Node000029"><a xlink:title=" ">
<path fill="none" stroke="#63b8ff" d="M4128.47,-103.69C4286.31,-101.29 4622.43,-90.86 4902.25,-46.25 4911.79,-44.73 4921.82,-42.65 4931.53,-40.36"/>
<polygon fill="#63b8ff" stroke="#63b8ff" points="4128.88,-100.18 4118.93,-103.83 4128.98,-107.18 4128.88,-100.18"/>
</a>
</g>
</g>
<!-- Node30 -->
<g id="Node000030" class="node">
<title>Node30</title>
<g id="a_Node000030"><a xlink:href="LLZKEnforceNoOverwritePass_8cpp.html" target="_top" xlink:title="This file implements the &#45;llzk&#45;enforce&#45;no&#45;overwrite pass.">
<polygon fill="white" stroke="#666666" points="5233.62,-39.88 5084.88,-39.88 5084.88,-6.38 5233.62,-6.38 5233.62,-39.88"/>
<text text-anchor="start" x="5092.88" y="-26.38" font-family="Helvetica,sans-Serif" font-size="10.00">lib/Transforms/LLZKEnforce</text>
<text text-anchor="middle" x="5159.25" y="-13.62" font-family="Helvetica,sans-Serif" font-size="10.00">NoOverwritePass.cpp</text>
</a>
</g>
</g>
<!-- Node26&#45;&gt;Node30 -->
<g id="edge37_Node000026_Node000030" class="edge">
<title>Node26&#45;&gt;Node30</title>
<g id="a_edge37_Node000026_Node000030"><a xlink:title=" ">
<path fill="none" stroke="#63b8ff" d="M4128.87,-101.68C4346.7,-94.82 4895.02,-75.17 5076.25,-46.25 5085.53,-44.77 5095.27,-42.68 5104.68,-40.37"/>
<polygon fill="#63b8ff" stroke="#63b8ff" points="4128.9,-98.18 4119.02,-101.99 4129.12,-105.17 4128.9,-98.18"/>
</a>
</g>
</g>
<!-- Node31 -->
<g id="Node000031" class="node">
<title>Node31</title>
<g id="a_Node000031"><a xlink:href="LLZKFuseProductLoopsPass_8cpp.html" target="_top" xlink:title="This file implements the &#45;llzk&#45;fuse&#45;product&#45;loops pass.">
<polygon fill="white" stroke="#666666" points="5422.88,-39.88 5251.62,-39.88 5251.62,-6.38 5422.88,-6.38 5422.88,-39.88"/>
<text text-anchor="start" x="5259.62" y="-26.38" font-family="Helvetica,sans-Serif" font-size="10.00">lib/Transforms/LLZKFuseProduct</text>
<text text-anchor="middle" x="5337.25" y="-13.62" font-family="Helvetica,sans-Serif" font-size="10.00">LoopsPass.cpp</text>
</a>
</g>
</g>
<!-- Node26&#45;&gt;Node31 -->
<g id="edge38_Node000026_Node000031" class="edge">
<title>Node26&#45;&gt;Node31</title>
<g id="a_edge38_Node000026_Node000031"><a xlink:title=" ">
<path fill="none" stroke="#63b8ff" d="M4128.51,-102.13C4370.03,-95.79 5027.26,-76.22 5242.25,-46.25 5252.9,-44.77 5264.11,-42.66 5274.95,-40.32"/>
<polygon fill="#63b8ff" stroke="#63b8ff" points="4128.75,-98.62 4118.84,-102.38 4128.93,-105.62 4128.75,-98.62"/>
</a>
</g>
</g>
<!-- Node32 -->
<g id="Node000032" class="node">
<title>Node32</title>
<g id="a_Node000032"><a xlink:href="LLZKInlineStructsPass_8cpp.html" target="_top" xlink:title="This file implements the &#45;llzk&#45;inline&#45;structs pass.">
<polygon fill="white" stroke="#666666" points="5579.75,-39.88 5440.75,-39.88 5440.75,-6.38 5579.75,-6.38 5579.75,-39.88"/>
<text text-anchor="start" x="5448.75" y="-26.38" font-family="Helvetica,sans-Serif" font-size="10.00">lib/Transforms/LLZKInline</text>
<text text-anchor="middle" x="5510.25" y="-13.62" font-family="Helvetica,sans-Serif" font-size="10.00">StructsPass.cpp</text>
</a>
</g>
</g>
<!-- Node26&#45;&gt;Node32 -->
<g id="edge39_Node000026_Node000032" class="edge">
<title>Node26&#45;&gt;Node32</title>
<g id="a_edge39_Node000026_Node000032"><a xlink:title=" ">
<path fill="none" stroke="#63b8ff" d="M4128.58,-103.37C4395.86,-99.98 5179.82,-86.74 5432.25,-46.25 5441.28,-44.8 5450.76,-42.66 5459.87,-40.28"/>
<polygon fill="#63b8ff" stroke="#63b8ff" points="4128.86,-99.87 4118.9,-103.5 4128.95,-106.87 4128.86,-99.87"/>
</a>
</g>
</g>
<!-- Node33 -->
<g id="Node000033" class="node">
<title>Node33</title>
<g id="a_Node000033"><a xlink:href="LLZKInliningExtensions_8cpp.html" target="_top" xlink:title=" ">
<polygon fill="white" stroke="#666666" points="5746.25,-39.88 5598.25,-39.88 5598.25,-6.38 5746.25,-6.38 5746.25,-39.88"/>
<text text-anchor="start" x="5606.25" y="-26.38" font-family="Helvetica,sans-Serif" font-size="10.00">lib/Transforms/LLZKInlining</text>
<text text-anchor="middle" x="5672.25" y="-13.62" font-family="Helvetica,sans-Serif" font-size="10.00">Extensions.cpp</text>
</a>
</g>
</g>
<!-- Node26&#45;&gt;Node33 -->
<g id="edge40_Node000026_Node000033" class="edge">
<title>Node26&#45;&gt;Node33</title>
<g id="a_edge40_Node000026_Node000033"><a xlink:title=" ">
<path fill="none" stroke="#63b8ff" d="M4128.6,-102.17C4438.21,-94.43 5445.22,-67.87 5589.25,-46.25 5598.84,-44.81 5608.9,-42.68 5618.59,-40.29"/>
<polygon fill="#63b8ff" stroke="#63b8ff" points="4128.87,-98.66 4118.96,-102.41 4129.04,-105.66 4128.87,-98.66"/>
</a>
</g>
</g>
<!-- Node34 -->
<g id="Node000034" class="node">
<title>Node34</title>
<g id="a_Node000034"><a xlink:href="LLZKPolyLoweringPass_8cpp.html" target="_top" xlink:title="This file implements the &#45;llzk&#45;poly&#45;lowering pass.">
<polygon fill="white" stroke="#666666" points="3425.88,-39.88 3248.62,-39.88 3248.62,-6.38 3425.88,-6.38 3425.88,-39.88"/>
<text text-anchor="start" x="3256.62" y="-26.38" font-family="Helvetica,sans-Serif" font-size="10.00">lib/Transforms/LLZKPolyLowering</text>
<text text-anchor="middle" x="3337.25" y="-13.62" font-family="Helvetica,sans-Serif" font-size="10.00">Pass.cpp</text>
</a>
</g>
</g>
<!-- Node26&#45;&gt;Node34 -->
<g id="edge41_Node000026_Node000034" class="edge">
<title>Node26&#45;&gt;Node34</title>
<g id="a_edge41_Node000026_Node000034"><a xlink:title=" ">
<path fill="none" stroke="#63b8ff" d="M3948.17,-99.24C3829.9,-91.7 3616.08,-75.26 3435.25,-46.25 3425.09,-44.62 3414.41,-42.57 3403.98,-40.37"/>
<polygon fill="#63b8ff" stroke="#63b8ff" points="3947.6,-102.72 3957.8,-99.85 3948.04,-95.73 3947.6,-102.72"/>
</a>
</g>
</g>
<!-- Node35 -->
<g id="Node000035" class="node">
<title>Node35</title>
<g id="a_Node000035"><a xlink:href="LLZKRedundantOperationEliminationPass_8cpp.html" target="_top" xlink:title="This file implements the &#45;llzk&#45;duplicate&#45;op&#45;elim pass.">
<polygon fill="white" stroke="#666666" points="3608.5,-39.88 3444,-39.88 3444,-6.38 3608.5,-6.38 3608.5,-39.88"/>
<text text-anchor="start" x="3452" y="-26.38" font-family="Helvetica,sans-Serif" font-size="10.00">lib/Transforms/LLZKRedundant</text>
<text text-anchor="middle" x="3526.25" y="-13.62" font-family="Helvetica,sans-Serif" font-size="10.00">OperationEliminationPass.cpp</text>
</a>
</g>
</g>
<!-- Node26&#45;&gt;Node35 -->
<g id="edge42_Node000026_Node000035" class="edge">
<title>Node26&#45;&gt;Node35</title>
<g id="a_edge42_Node000026_Node000035"><a xlink:title=" ">
<path fill="none" stroke="#63b8ff" d="M3947.87,-94.58C3862.32,-84.68 3730.5,-67.78 3617.25,-46.25 3608.15,-44.52 3598.58,-42.46 3589.22,-40.31"/>
<polygon fill="#63b8ff" stroke="#63b8ff" points="3947.27,-98.03 3957.6,-95.7 3948.07,-91.08 3947.27,-98.03"/>
</a>
</g>
</g>
<!-- Node36 -->
<g id="Node000036" class="node">
<title>Node36</title>
<g id="a_Node000036"><a xlink:href="LLZKRedundantReadAndWriteEliminationPass_8cpp.html" target="_top" xlink:title="This file implements the &#45;llzk&#45;duplicate&#45;read&#45;write&#45;elim pass.">
<polygon fill="white" stroke="#666666" points="3809.88,-39.88 3626.62,-39.88 3626.62,-6.38 3809.88,-6.38 3809.88,-39.88"/>
<text text-anchor="start" x="3634.62" y="-26.38" font-family="Helvetica,sans-Serif" font-size="10.00">lib/Transforms/LLZKRedundant</text>
<text text-anchor="middle" x="3718.25" y="-13.62" font-family="Helvetica,sans-Serif" font-size="10.00">ReadAndWriteEliminationPass.cpp</text>
</a>
</g>
</g>
<!-- Node26&#45;&gt;Node36 -->
<g id="edge43_Node000026_Node000036" class="edge">
<title>Node26&#45;&gt;Node36</title>
<g id="a_edge43_Node000026_Node000036"><a xlink:title=" ">
<path fill="none" stroke="#63b8ff" d="M3962.47,-85.37C3907.82,-71.66 3834.82,-53.36 3782.91,-40.34"/>
<polygon fill="#63b8ff" stroke="#63b8ff" points="3961.47,-88.73 3972.03,-87.77 3963.18,-81.94 3961.47,-88.73"/>
</a>
</g>
</g>
<!-- Node37 -->
<g id="Node000037" class="node">
<title>Node37</title>
<g id="a_Node000037"><a xlink:href="LLZKRemoveUnusedDiscardableAllocationsPass_8cpp.html" target="_top" xlink:title="This file implements the &#45;llzk&#45;remove&#45;unused&#45;discardable&#45;allocations pass.">
<polygon fill="white" stroke="#666666" points="4034.5,-39.88 3828,-39.88 3828,-6.38 4034.5,-6.38 4034.5,-39.88"/>
<text text-anchor="start" x="3836" y="-26.38" font-family="Helvetica,sans-Serif" font-size="10.00">lib/Transforms/LLZKRemove</text>
<text text-anchor="middle" x="3931.25" y="-13.62" font-family="Helvetica,sans-Serif" font-size="10.00">UnusedDiscardableAllocationsPass.cpp</text>
</a>
</g>
</g>
<!-- Node26&#45;&gt;Node37 -->
<g id="edge44_Node000026_Node000037" class="edge">
<title>Node26&#45;&gt;Node37</title>
<g id="a_edge44_Node000026_Node000037"><a xlink:title=" ">
<path fill="none" stroke="#63b8ff" d="M4007.85,-81.58C3990.31,-68.42 3968.67,-52.19 3952.87,-40.34"/>
<polygon fill="#63b8ff" stroke="#63b8ff" points="4005.29,-84.03 4015.39,-87.23 4009.49,-78.43 4005.29,-84.03"/>
</a>
</g>
</g>
<!-- Node38 -->
<g id="Node000038" class="node">
<title>Node38</title>
<g id="a_Node000038"><a xlink:href="LLZKTransformationPassPipelines_8cpp.html" target="_top" xlink:title="This file implements logic for registering several pass pipelines.">
<polygon fill="white" stroke="#666666" points="4237.62,-39.88 4052.88,-39.88 4052.88,-6.38 4237.62,-6.38 4237.62,-39.88"/>
<text text-anchor="start" x="4060.88" y="-26.38" font-family="Helvetica,sans-Serif" font-size="10.00">lib/Transforms/LLZKTransformation</text>
<text text-anchor="middle" x="4145.25" y="-13.62" font-family="Helvetica,sans-Serif" font-size="10.00">PassPipelines.cpp</text>
</a>
</g>
</g>
<!-- Node26&#45;&gt;Node38 -->
<g id="edge45_Node000026_Node000038" class="edge">
<title>Node26&#45;&gt;Node38</title>
<g id="a_edge45_Node000026_Node000038"><a xlink:title=" ">
<path fill="none" stroke="#63b8ff" d="M4068.65,-81.58C4086.19,-68.42 4107.83,-52.19 4123.63,-40.34"/>
<polygon fill="#63b8ff" stroke="#63b8ff" points="4067.01,-78.43 4061.11,-87.23 4071.21,-84.03 4067.01,-78.43"/>
</a>
</g>
</g>
<!-- Node39 -->
<g id="Node000039" class="node">
<title>Node39</title>
<g id="a_Node000039"><a xlink:href="LLZKUnusedDeclarationEliminationPass_8cpp.html" target="_top" xlink:title="This file implements the &#45;llzk&#45;unused&#45;declaration&#45;elim pass.">
<polygon fill="white" stroke="#666666" points="4425.12,-39.88 4255.38,-39.88 4255.38,-6.38 4425.12,-6.38 4425.12,-39.88"/>
<text text-anchor="start" x="4263.38" y="-26.38" font-family="Helvetica,sans-Serif" font-size="10.00">lib/Transforms/LLZKUnused</text>
<text text-anchor="middle" x="4340.25" y="-13.62" font-family="Helvetica,sans-Serif" font-size="10.00">DeclarationEliminationPass.cpp</text>
</a>
</g>
</g>
<!-- Node26&#45;&gt;Node39 -->
<g id="edge46_Node000026_Node000039" class="edge">
<title>Node26&#45;&gt;Node39</title>
<g id="a_edge46_Node000026_Node000039"><a xlink:title=" ">
<path fill="none" stroke="#63b8ff" d="M4110.41,-85.2C4161.92,-71.51 4230.44,-53.31 4279.23,-40.34"/>
<polygon fill="#63b8ff" stroke="#63b8ff" points="4109.59,-81.8 4100.83,-87.75 4111.39,-88.56 4109.59,-81.8"/>
</a>
</g>
</g>
<!-- Node40 -->
<g id="Node000040" class="node">
<title>Node40</title>
<g id="a_Node000040"><a xlink:href="LLZKWhileToForPass_8cpp.html" target="_top" xlink:title="This file identifies scf.while loops that can be converted to scf.for loops and performs the conversi...">
<polygon fill="white" stroke="#666666" points="4581.75,-39.88 4442.75,-39.88 4442.75,-6.38 4581.75,-6.38 4581.75,-39.88"/>
<text text-anchor="start" x="4450.75" y="-26.38" font-family="Helvetica,sans-Serif" font-size="10.00">lib/Transforms/LLZKWhile</text>
<text text-anchor="middle" x="4512.25" y="-13.62" font-family="Helvetica,sans-Serif" font-size="10.00">ToForPass.cpp</text>
</a>
</g>
</g>
<!-- Node26&#45;&gt;Node40 -->
<g id="edge47_Node000026_Node000040" class="edge">
<title>Node26&#45;&gt;Node40</title>
<g id="a_edge47_Node000026_Node000040"><a xlink:title=" ">
<path fill="none" stroke="#63b8ff" d="M4128.41,-94.55C4209.07,-84.95 4330.26,-68.53 4434.25,-46.25 4442.23,-44.54 4450.6,-42.47 4458.77,-40.29"/>
<polygon fill="#63b8ff" stroke="#63b8ff" points="4128.33,-91.03 4118.81,-95.68 4129.15,-97.98 4128.33,-91.03"/>
</a>
</g>
</g>
<!-- Node41&#45;&gt;Node9 -->
<g id="edge53_Node000041_Node000009" class="edge">
<title>Node41&#45;&gt;Node9</title>
<g id="a_edge53_Node000041_Node000009"><a xlink:title=" ">
<path fill="none" stroke="#63b8ff" d="M4996.63,-102.34C4834.1,-98.17 4449.27,-88.53 4126.25,-82.25 3869.6,-77.26 2068.46,-94.02 1816.25,-46.25 1809.05,-44.89 1801.58,-42.72 1794.47,-40.27"/>
<polygon fill="#63b8ff" stroke="#63b8ff" points="4996.34,-105.83 5006.43,-102.59 4996.52,-98.83 4996.34,-105.83"/>
</a>
</g>
</g>
<!-- Node42 -->
<g id="Node000042" class="node">
<title>Node42</title>
<g id="a_Node000042"><a xlink:href="Validators_8cpp.html" target="_top" xlink:title=" ">
<polygon fill="white" stroke="#666666" points="6064,-33.5 5938.5,-33.5 5938.5,-12.75 6064,-12.75 6064,-33.5"/>
<text text-anchor="middle" x="6001.25" y="-20" font-family="Helvetica,sans-Serif" font-size="10.00">lib/CAPI/Validators.cpp</text>
</a>
</g>
</g>
<!-- Node41&#45;&gt;Node42 -->
<g id="edge51_Node000041_Node000042" class="edge">
<title>Node41&#45;&gt;Node42</title>
<g id="a_edge51_Node000041_Node000042"><a xlink:title=" ">
<path fill="none" stroke="#63b8ff" d="M5154.07,-105.03C5305.58,-104.97 5647.45,-98.42 5929.25,-46.25 5944.55,-43.42 5961.19,-38.44 5974.61,-33.92"/>
<polygon fill="#63b8ff" stroke="#63b8ff" points="5154.13,-101.53 5144.13,-105.03 5154.13,-108.53 5154.13,-101.53"/>
</a>
</g>
</g>
<!-- Node43 -->
<g id="Node000043" class="node">
<title>Node43</title>
<g id="a_Node000043"><a xlink:href="LLZKValidationPasses_8cpp.html" target="_top" xlink:title="This file contains the implementation for the &#45;llzk&#45;validate&#45;member&#45;writes pass.">
<polygon fill="white" stroke="#666666" points="5920,-39.88 5764.5,-39.88 5764.5,-6.38 5920,-6.38 5920,-39.88"/>
<text text-anchor="start" x="5772.5" y="-26.38" font-family="Helvetica,sans-Serif" font-size="10.00">lib/Validators/LLZKValidation</text>
<text text-anchor="middle" x="5842.25" y="-13.62" font-family="Helvetica,sans-Serif" font-size="10.00">Passes.cpp</text>
</a>
</g>
</g>
<!-- Node41&#45;&gt;Node43 -->
<g id="edge52_Node000041_Node000043" class="edge">
<title>Node41&#45;&gt;Node43</title>
<g id="a_edge52_Node000041_Node000043"><a xlink:title=" ">
<path fill="none" stroke="#63b8ff" d="M5153.44,-101.85C5280.47,-96.82 5539.2,-82.7 5755.25,-46.25 5764.62,-44.67 5774.47,-42.58 5784.03,-40.33"/>
<polygon fill="#63b8ff" stroke="#63b8ff" points="5153.68,-98.34 5143.82,-102.22 5153.95,-105.33 5153.68,-98.34"/>
</a>
</g>
</g>
</g>
</svg>
