<?xml version="1.0" encoding="UTF-8" standalone="no"?>
<!DOCTYPE svg PUBLIC "-//W3C//DTD SVG 1.1//EN"
 "http://www.w3.org/Graphics/SVG/1.1/DTD/svg11.dtd">
<!-- Generated by graphviz version 12.2.1 (0)
 -->
<!-- Title: lib/CAPI/Target/PCL.cpp Pages: 1 -->
<svg width="1354pt" height="269pt"
 viewBox="0.00 0.00 1353.62 268.50" xmlns="http://www.w3.org/2000/svg" xmlns:xlink="http://www.w3.org/1999/xlink">
<g id="graph0" class="graph" transform="scale(1 1) rotate(0) translate(4 264.5)">
<title>lib/CAPI/Target/PCL.cpp</title>
<!-- Node1 -->
<g id="Node000001" class="node">
<title>Node1</title>
<g id="a_Node000001"><a xlink:title=" ">
<polygon fill="#999999" stroke="#666666" points="1012.88,-260.5 885.12,-260.5 885.12,-239.75 1012.88,-239.75 1012.88,-260.5"/>
<text text-anchor="middle" x="949" y="-247" font-family="Helvetica,sans-Serif" font-size="10.00">lib/CAPI/Target/PCL.cpp</text>
</a>
</g>
</g>
<!-- Node2 -->
<g id="Node000002" class="node">
<title>Node2</title>
<g id="a_Node000002"><a xlink:href="llzk_2CAPI_2Support_8h.html" target="_top" xlink:title=" ">
<polygon fill="white" stroke="#666666" points="660.12,-203.75 551.88,-203.75 551.88,-183 660.12,-183 660.12,-203.75"/>
<text text-anchor="middle" x="606" y="-190.25" font-family="Helvetica,sans-Serif" font-size="10.00">llzk/CAPI/Support.h</text>
</a>
</g>
</g>
<!-- Node1&#45;&gt;Node2 -->
<g id="edge1_Node000001_Node000002" class="edge">
<title>Node1&#45;&gt;Node2</title>
<g id="a_edge1_Node000001_Node000002"><a xlink:title=" ">
<path fill="none" stroke="#63b8ff" d="M887.28,-239.27C826.46,-229.56 733.84,-214.78 671.68,-204.86"/>
<polygon fill="#63b8ff" stroke="#63b8ff" points="672.36,-201.42 661.94,-203.3 671.26,-208.34 672.36,-201.42"/>
</a>
</g>
</g>
<!-- Node5 -->
<g id="Node000005" class="node">
<title>Node5</title>
<g id="a_Node000005"><a xlink:title=" ">
<polygon fill="#e0e0e0" stroke="#999999" points="449.12,-20.75 382.88,-20.75 382.88,0 449.12,0 449.12,-20.75"/>
<text text-anchor="middle" x="416" y="-7.25" font-family="Helvetica,sans-Serif" font-size="10.00">mlir&#45;c/IR.h</text>
</a>
</g>
</g>
<!-- Node1&#45;&gt;Node5 -->
<g id="edge19_Node000001_Node000005" class="edge">
<title>Node1&#45;&gt;Node5</title>
<g id="a_edge19_Node000001_Node000005"><a xlink:title=" ">
<path fill="none" stroke="#63b8ff" d="M944.13,-239.46C939.57,-230.32 932.63,-216.19 927,-203.75 909.06,-164.1 918.78,-145.23 889,-113.5 850.27,-72.23 829.17,-73.14 775,-56.75 665.3,-23.56 529.62,-14.63 460.71,-12.24"/>
<polygon fill="#63b8ff" stroke="#63b8ff" points="461.06,-8.75 450.95,-11.93 460.84,-15.75 461.06,-8.75"/>
</a>
</g>
</g>
<!-- Node6 -->
<g id="Node000006" class="node">
<title>Node6</title>
<g id="a_Node000006"><a xlink:title=" ">
<polygon fill="#e0e0e0" stroke="#999999" points="94,-20.75 0,-20.75 0,0 94,0 94,-20.75"/>
<text text-anchor="middle" x="47" y="-7.25" font-family="Helvetica,sans-Serif" font-size="10.00">mlir&#45;c/Support.h</text>
</a>
</g>
</g>
<!-- Node1&#45;&gt;Node6 -->
<g id="edge20_Node000001_Node000006" class="edge">
<title>Node1&#45;&gt;Node6</title>
<g id="a_edge20_Node000001_Node000006"><a xlink:title=" ">
<path fill="none" stroke="#63b8ff" d="M884.73,-246.65C688.18,-238.42 105.06,-208.94 49,-147 20.53,-115.54 31.14,-61.18 39.93,-31.74"/>
<polygon fill="#63b8ff" stroke="#63b8ff" points="43.15,-33.15 42.89,-22.56 36.49,-31 43.15,-33.15"/>
</a>
</g>
</g>
<!-- Node16 -->
<g id="Node000016" class="node">
<title>Node16</title>
<g id="a_Node000016"><a xlink:href="Config_8h.html" target="_top" xlink:title=" ">
<polygon fill="white" stroke="#666666" points="1045.88,-203.75 936.12,-203.75 936.12,-183 1045.88,-183 1045.88,-203.75"/>
<text text-anchor="middle" x="991" y="-190.25" font-family="Helvetica,sans-Serif" font-size="10.00">llzk/Config/Config.h</text>
</a>
</g>
</g>
<!-- Node1&#45;&gt;Node16 -->
<g id="edge18_Node000001_Node000016" class="edge">
<title>Node1&#45;&gt;Node16</title>
<g id="a_edge18_Node000001_Node000016"><a xlink:title=" ">
<path fill="none" stroke="#63b8ff" d="M956.51,-239.34C962.12,-232.02 969.97,-221.79 976.76,-212.94"/>
<polygon fill="#63b8ff" stroke="#63b8ff" points="979.33,-215.34 982.64,-205.28 973.77,-211.08 979.33,-215.34"/>
</a>
</g>
</g>
<!-- Node17 -->
<g id="Node000017" class="node">
<title>Node17</title>
<g id="a_Node000017"><a xlink:title=" ">
<polygon fill="#e0e0e0" stroke="#999999" points="1174.25,-203.75 1063.75,-203.75 1063.75,-183 1174.25,-183 1174.25,-203.75"/>
<text text-anchor="middle" x="1119" y="-190.25" font-family="Helvetica,sans-Serif" font-size="10.00">mlir/CAPI/Support.h</text>
</a>
</g>
</g>
<!-- Node1&#45;&gt;Node17 -->
<g id="edge21_Node000001_Node000017" class="edge">
<title>Node1&#45;&gt;Node17</title>
<g id="a_edge21_Node000001_Node000017"><a xlink:title=" ">
<path fill="none" stroke="#63b8ff" d="M979.39,-239.34C1006.87,-230.49 1047.54,-217.39 1077.91,-207.61"/>
<polygon fill="#63b8ff" stroke="#63b8ff" points="1078.7,-211.03 1087.14,-204.63 1076.55,-204.37 1078.7,-211.03"/>
</a>
</g>
</g>
<!-- Node18 -->
<g id="Node000018" class="node">
<title>Node18</title>
<g id="a_Node000018"><a xlink:title=" ">
<polygon fill="#e0e0e0" stroke="#999999" points="1345.62,-203.75 1192.38,-203.75 1192.38,-183 1345.62,-183 1345.62,-203.75"/>
<text text-anchor="middle" x="1269" y="-190.25" font-family="Helvetica,sans-Serif" font-size="10.00">mlir/Support/LogicalResult.h</text>
</a>
</g>
</g>
<!-- Node1&#45;&gt;Node18 -->
<g id="edge22_Node000001_Node000018" class="edge">
<title>Node1&#45;&gt;Node18</title>
<g id="a_edge22_Node000001_Node000018"><a xlink:title=" ">
<path fill="none" stroke="#63b8ff" d="M1006.58,-239.27C1060.9,-229.98 1142.39,-216.04 1200.13,-206.16"/>
<polygon fill="#63b8ff" stroke="#63b8ff" points="1200.59,-209.63 1209.85,-204.49 1199.41,-202.73 1200.59,-209.63"/>
</a>
</g>
</g>
<!-- Node3 -->
<g id="Node000003" class="node">
<title>Node3</title>
<g id="a_Node000003"><a xlink:href="llzk-c_2Support_8h.html" target="_top" xlink:title=" ">
<polygon fill="white" stroke="#666666" points="285.88,-140.62 194.12,-140.62 194.12,-119.88 285.88,-119.88 285.88,-140.62"/>
<text text-anchor="middle" x="240" y="-127.12" font-family="Helvetica,sans-Serif" font-size="10.00">llzk&#45;c/Support.h</text>
</a>
</g>
</g>
<!-- Node2&#45;&gt;Node3 -->
<g id="edge2_Node000002_Node000003" class="edge">
<title>Node2&#45;&gt;Node3</title>
<g id="a_edge2_Node000002_Node000003"><a xlink:title=" ">
<path fill="none" stroke="#63b8ff" d="M551.6,-183.29C483.41,-171.9 367.05,-152.47 297.45,-140.85"/>
<polygon fill="#63b8ff" stroke="#63b8ff" points="298.22,-137.42 287.78,-139.23 297.06,-144.33 298.22,-137.42"/>
</a>
</g>
</g>
<!-- Node2&#45;&gt;Node5 -->
<g id="edge14_Node000002_Node000005" class="edge">
<title>Node2&#45;&gt;Node5</title>
<g id="a_edge14_Node000002_Node000005"><a xlink:title=" ">
<path fill="none" stroke="#63b8ff" d="M607.89,-182.71C612.07,-158.25 619.33,-93.22 587,-56.75 570.37,-37.99 505.38,-24.7 460.49,-17.53"/>
<polygon fill="#63b8ff" stroke="#63b8ff" points="461.19,-14.1 450.77,-16.03 460.12,-21.02 461.19,-14.1"/>
</a>
</g>
</g>
<!-- Node8 -->
<g id="Node000008" class="node">
<title>Node8</title>
<g id="a_Node000008"><a xlink:href="AttributeHelper_8h.html" target="_top" xlink:title=" ">
<polygon fill="white" stroke="#666666" points="578.25,-147 467.75,-147 467.75,-113.5 578.25,-113.5 578.25,-147"/>
<text text-anchor="start" x="475.75" y="-133.5" font-family="Helvetica,sans-Serif" font-size="10.00">llzk/Dialect/LLZK/IR</text>
<text text-anchor="middle" x="523" y="-120.75" font-family="Helvetica,sans-Serif" font-size="10.00">/AttributeHelper.h</text>
</a>
</g>
</g>
<!-- Node2&#45;&gt;Node8 -->
<g id="edge9_Node000002_Node000008" class="edge">
<title>Node2&#45;&gt;Node8</title>
<g id="a_edge9_Node000002_Node000008"><a xlink:title=" ">
<path fill="none" stroke="#63b8ff" d="M592.66,-182.55C582.24,-174.88 567.32,-163.89 553.97,-154.06"/>
<polygon fill="#63b8ff" stroke="#63b8ff" points="556.39,-151.49 546.26,-148.38 552.24,-157.13 556.39,-151.49"/>
</a>
</g>
</g>
<!-- Node13 -->
<g id="Node000013" class="node">
<title>Node13</title>
<g id="a_Node000013"><a xlink:title=" ">
<polygon fill="#e0e0e0" stroke="#999999" points="716.38,-140.62 633.62,-140.62 633.62,-119.88 716.38,-119.88 716.38,-140.62"/>
<text text-anchor="middle" x="675" y="-127.12" font-family="Helvetica,sans-Serif" font-size="10.00">mlir/CAPI/IR.h</text>
</a>
</g>
</g>
<!-- Node2&#45;&gt;Node13 -->
<g id="edge15_Node000002_Node000013" class="edge">
<title>Node2&#45;&gt;Node13</title>
<g id="a_edge15_Node000002_Node000013"><a xlink:title=" ">
<path fill="none" stroke="#63b8ff" d="M617.09,-182.55C627.51,-173.32 643.33,-159.31 655.8,-148.26"/>
<polygon fill="#63b8ff" stroke="#63b8ff" points="657.87,-151.1 663.04,-141.85 653.23,-145.86 657.87,-151.1"/>
</a>
</g>
</g>
<!-- Node14 -->
<g id="Node000014" class="node">
<title>Node14</title>
<g id="a_Node000014"><a xlink:title=" ">
<polygon fill="#e0e0e0" stroke="#999999" points="879.88,-140.62 734.12,-140.62 734.12,-119.88 879.88,-119.88 879.88,-140.62"/>
<text text-anchor="middle" x="807" y="-127.12" font-family="Helvetica,sans-Serif" font-size="10.00">mlir/IR/OperationSupport.h</text>
</a>
</g>
</g>
<!-- Node2&#45;&gt;Node14 -->
<g id="edge16_Node000002_Node000014" class="edge">
<title>Node2&#45;&gt;Node14</title>
<g id="a_edge16_Node000002_Node000014"><a xlink:title=" ">
<path fill="none" stroke="#63b8ff" d="M638.29,-182.55C672.43,-172.17 726.45,-155.74 764.14,-144.28"/>
<polygon fill="#63b8ff" stroke="#63b8ff" points="764.79,-147.74 773.34,-141.49 762.75,-141.05 764.79,-147.74"/>
</a>
</g>
</g>
<!-- Node15 -->
<g id="Node000015" class="node">
<title>Node15</title>
<g id="a_Node000015"><a xlink:title=" ">
<polygon fill="#e0e0e0" stroke="#999999" points="176,-140.62 58,-140.62 58,-119.88 176,-119.88 176,-140.62"/>
<text text-anchor="middle" x="117" y="-127.12" font-family="Helvetica,sans-Serif" font-size="10.00">mlir/IR/ValueRange.h</text>
</a>
</g>
</g>
<!-- Node2&#45;&gt;Node15 -->
<g id="edge17_Node000002_Node000015" class="edge">
<title>Node2&#45;&gt;Node15</title>
<g id="a_edge17_Node000002_Node000015"><a xlink:title=" ">
<path fill="none" stroke="#63b8ff" d="M551.55,-188.61C471.04,-182.57 315.65,-169.09 185,-147 179.03,-145.99 172.79,-144.77 166.63,-143.47"/>
<polygon fill="#63b8ff" stroke="#63b8ff" points="167.67,-140.12 157.15,-141.38 166.16,-146.95 167.67,-140.12"/>
</a>
</g>
</g>
<!-- Node4 -->
<g id="Node000004" class="node">
<title>Node4</title>
<g id="a_Node000004"><a xlink:href="llzk-c_2Builder_8h.html" target="_top" xlink:title=" ">
<polygon fill="white" stroke="#666666" points="163,-77.5 75,-77.5 75,-56.75 163,-56.75 163,-77.5"/>
<text text-anchor="middle" x="119" y="-64" font-family="Helvetica,sans-Serif" font-size="10.00">llzk&#45;c/Builder.h</text>
</a>
</g>
</g>
<!-- Node3&#45;&gt;Node4 -->
<g id="edge3_Node000003_Node000004" class="edge">
<title>Node3&#45;&gt;Node4</title>
<g id="a_edge3_Node000003_Node000004"><a xlink:title=" ">
<path fill="none" stroke="#63b8ff" d="M220.56,-119.43C201.07,-109.58 170.81,-94.3 148.38,-82.97"/>
<polygon fill="#63b8ff" stroke="#63b8ff" points="150.25,-79.99 139.74,-78.6 147.09,-86.24 150.25,-79.99"/>
</a>
</g>
</g>
<!-- Node3&#45;&gt;Node5 -->
<g id="edge6_Node000003_Node000005" class="edge">
<title>Node3&#45;&gt;Node5</title>
<g id="a_edge6_Node000003_Node000005"><a xlink:title=" ">
<path fill="none" stroke="#63b8ff" d="M242.73,-119.79C247.65,-104.38 259.45,-73.86 280,-56.75 306.01,-35.1 342.75,-23.65 371.48,-17.67"/>
<polygon fill="#63b8ff" stroke="#63b8ff" points="371.81,-21.17 380.98,-15.85 370.5,-14.29 371.81,-21.17"/>
</a>
</g>
</g>
<!-- Node3&#45;&gt;Node6 -->
<g id="edge7_Node000003_Node000006" class="edge">
<title>Node3&#45;&gt;Node6</title>
<g id="a_edge7_Node000003_Node000006"><a xlink:title=" ">
<path fill="none" stroke="#63b8ff" d="M206.34,-119.46C156.12,-104.82 67.27,-78.78 66,-77.5 54.17,-65.56 49.6,-46.75 47.89,-32.25"/>
<polygon fill="#63b8ff" stroke="#63b8ff" points="51.39,-32.09 47.13,-22.39 44.41,-32.63 51.39,-32.09"/>
</a>
</g>
</g>
<!-- Node7 -->
<g id="Node000007" class="node">
<title>Node7</title>
<g id="a_Node000007"><a xlink:title=" ">
<polygon fill="#e0e0e0" stroke="#999999" points="233.38,-77.5 180.62,-77.5 180.62,-56.75 233.38,-56.75 233.38,-77.5"/>
<text text-anchor="middle" x="207" y="-64" font-family="Helvetica,sans-Serif" font-size="10.00">stdint.h</text>
</a>
</g>
</g>
<!-- Node3&#45;&gt;Node7 -->
<g id="edge8_Node000003_Node000007" class="edge">
<title>Node3&#45;&gt;Node7</title>
<g id="a_edge8_Node000003_Node000007"><a xlink:title=" ">
<path fill="none" stroke="#63b8ff" d="M234.7,-119.43C230.1,-110.91 223.31,-98.33 217.6,-87.76"/>
<polygon fill="#63b8ff" stroke="#63b8ff" points="220.73,-86.19 212.9,-79.05 214.57,-89.51 220.73,-86.19"/>
</a>
</g>
</g>
<!-- Node4&#45;&gt;Node5 -->
<g id="edge4_Node000004_Node000005" class="edge">
<title>Node4&#45;&gt;Node5</title>
<g id="a_edge4_Node000004_Node000005"><a xlink:title=" ">
<path fill="none" stroke="#63b8ff" d="M163.46,-57.93C219.63,-47.57 315.7,-29.86 371.76,-19.53"/>
<polygon fill="#63b8ff" stroke="#63b8ff" points="372.06,-23.03 381.26,-17.78 370.79,-16.15 372.06,-23.03"/>
</a>
</g>
</g>
<!-- Node4&#45;&gt;Node6 -->
<g id="edge5_Node000004_Node000006" class="edge">
<title>Node4&#45;&gt;Node6</title>
<g id="a_edge5_Node000004_Node000006"><a xlink:title=" ">
<path fill="none" stroke="#63b8ff" d="M106.13,-56.34C95.79,-48.47 81.03,-37.25 68.85,-27.99"/>
<polygon fill="#63b8ff" stroke="#63b8ff" points="71.04,-25.26 60.97,-21.99 66.81,-30.83 71.04,-25.26"/>
</a>
</g>
</g>
<!-- Node9 -->
<g id="Node000009" class="node">
<title>Node9</title>
<g id="a_Node000009"><a xlink:href="StreamHelper_8h.html" target="_top" xlink:title=" ">
<polygon fill="white" stroke="#666666" points="766.12,-77.5 633.88,-77.5 633.88,-56.75 766.12,-56.75 766.12,-77.5"/>
<text text-anchor="middle" x="700" y="-64" font-family="Helvetica,sans-Serif" font-size="10.00">llzk/Util/StreamHelper.h</text>
</a>
</g>
</g>
<!-- Node8&#45;&gt;Node9 -->
<g id="edge10_Node000008_Node000009" class="edge">
<title>Node8&#45;&gt;Node9</title>
<g id="a_edge10_Node000008_Node000009"><a xlink:title=" ">
<path fill="none" stroke="#63b8ff" d="M569.97,-113.03C598.41,-103.21 634.26,-90.83 661.11,-81.56"/>
<polygon fill="#63b8ff" stroke="#63b8ff" points="661.91,-84.98 670.22,-78.41 659.63,-78.37 661.91,-84.98"/>
</a>
</g>
</g>
<!-- Node11 -->
<g id="Node000011" class="node">
<title>Node11</title>
<g id="a_Node000011"><a xlink:title=" ">
<polygon fill="#e0e0e0" stroke="#999999" points="461.38,-77.5 288.62,-77.5 288.62,-56.75 461.38,-56.75 461.38,-77.5"/>
<text text-anchor="middle" x="375" y="-64" font-family="Helvetica,sans-Serif" font-size="10.00">mlir/IR/DialectImplementation.h</text>
</a>
</g>
</g>
<!-- Node8&#45;&gt;Node11 -->
<g id="edge12_Node000008_Node000011" class="edge">
<title>Node8&#45;&gt;Node11</title>
<g id="a_edge12_Node000008_Node000011"><a xlink:title=" ">
<path fill="none" stroke="#63b8ff" d="M483.73,-113.03C460.58,-103.47 431.56,-91.49 409.33,-82.3"/>
<polygon fill="#63b8ff" stroke="#63b8ff" points="410.68,-79.08 400.1,-78.49 408.01,-85.55 410.68,-79.08"/>
</a>
</g>
</g>
<!-- Node12 -->
<g id="Node000012" class="node">
<title>Node12</title>
<g id="a_Node000012"><a xlink:title=" ">
<polygon fill="#e0e0e0" stroke="#999999" points="578.25,-77.5 479.75,-77.5 479.75,-56.75 578.25,-56.75 578.25,-77.5"/>
<text text-anchor="middle" x="529" y="-64" font-family="Helvetica,sans-Serif" font-size="10.00">llvm/ADT/APInt.h</text>
</a>
</g>
</g>
<!-- Node8&#45;&gt;Node12 -->
<g id="edge13_Node000008_Node000012" class="edge">
<title>Node8&#45;&gt;Node12</title>
<g id="a_edge13_Node000008_Node000012"><a xlink:title=" ">
<path fill="none" stroke="#63b8ff" d="M524.58,-113.19C525.3,-105.85 526.16,-97.07 526.93,-89.21"/>
<polygon fill="#63b8ff" stroke="#63b8ff" points="530.39,-89.77 527.89,-79.47 523.43,-89.08 530.39,-89.77"/>
</a>
</g>
</g>
<!-- Node10 -->
<g id="Node000010" class="node">
<title>Node10</title>
<g id="a_Node000010"><a xlink:title=" ">
<polygon fill="#e0e0e0" stroke="#999999" points="777,-20.75 623,-20.75 623,0 777,0 777,-20.75"/>
<text text-anchor="middle" x="700" y="-7.25" font-family="Helvetica,sans-Serif" font-size="10.00">llvm/Support/raw_ostream.h</text>
</a>
</g>
</g>
<!-- Node9&#45;&gt;Node10 -->
<g id="edge11_Node000009_Node000010" class="edge">
<title>Node9&#45;&gt;Node10</title>
<g id="a_edge11_Node000009_Node000010"><a xlink:title=" ">
<path fill="none" stroke="#63b8ff" d="M700,-56.34C700,-49.72 700,-40.72 700,-32.52"/>
<polygon fill="#63b8ff" stroke="#63b8ff" points="703.5,-32.59 700,-22.59 696.5,-32.59 703.5,-32.59"/>
</a>
</g>
</g>
</g>
</svg>
