<?xml version="1.0" encoding="UTF-8" standalone="no"?>
<!DOCTYPE svg PUBLIC "-//W3C//DTD SVG 1.1//EN"
 "http://www.w3.org/Graphics/SVG/1.1/DTD/svg11.dtd">
<!-- Generated by graphviz version 12.2.1 (0)
 -->
<!-- Title: lib/CAPI/Target/PCL.cpp Pages: 1 -->
<svg width="1312pt" height="269pt"
 viewBox="0.00 0.00 1312.00 268.50" xmlns="http://www.w3.org/2000/svg" xmlns:xlink="http://www.w3.org/1999/xlink">
<g id="graph0" class="graph" transform="scale(1 1) rotate(0) translate(4 264.5)">
<title>lib/CAPI/Target/PCL.cpp</title>
<!-- Node1 -->
<g id="Node000001" class="node">
<title>Node1</title>
<g id="a_Node000001"><a xlink:title=" ">
<polygon fill="#999999" stroke="#666666" points="971.25,-260.5 843.5,-260.5 843.5,-239.75 971.25,-239.75 971.25,-260.5"/>
<text text-anchor="middle" x="907.38" y="-247" font-family="Helvetica,sans-Serif" font-size="10.00">lib/CAPI/Target/PCL.cpp</text>
</a>
</g>
</g>
<!-- Node2 -->
<g id="Node000002" class="node">
<title>Node2</title>
<g id="a_Node000002"><a xlink:href="llzk_2CAPI_2Support_8h.html" target="_top" xlink:title=" ">
<polygon fill="white" stroke="#666666" points="509.5,-203.75 401.25,-203.75 401.25,-183 509.5,-183 509.5,-203.75"/>
<text text-anchor="middle" x="455.38" y="-190.25" font-family="Helvetica,sans-Serif" font-size="10.00">llzk/CAPI/Support.h</text>
</a>
</g>
</g>
<!-- Node1&#45;&gt;Node2 -->
<g id="edge1_Node000001_Node000002" class="edge">
<title>Node1&#45;&gt;Node2</title>
<g id="a_edge1_Node000001_Node000002"><a xlink:title=" ">
<path fill="none" stroke="#63b8ff" d="M843.09,-241.34C757.61,-230.98 607.29,-212.78 521.08,-202.33"/>
<polygon fill="#63b8ff" stroke="#63b8ff" points="521.72,-198.89 511.37,-201.16 520.88,-205.84 521.72,-198.89"/>
</a>
</g>
</g>
<!-- Node10 -->
<g id="Node000010" class="node">
<title>Node10</title>
<g id="a_Node000010"><a xlink:title=" ">
<polygon fill="#e0e0e0" stroke="#999999" points="628.5,-20.75 562.25,-20.75 562.25,0 628.5,0 628.5,-20.75"/>
<text text-anchor="middle" x="595.38" y="-7.25" font-family="Helvetica,sans-Serif" font-size="10.00">mlir&#45;c/IR.h</text>
</a>
</g>
</g>
<!-- Node1&#45;&gt;Node10 -->
<g id="edge21_Node000001_Node000010" class="edge">
<title>Node1&#45;&gt;Node10</title>
<g id="a_edge21_Node000001_Node000010"><a xlink:title=" ">
<path fill="none" stroke="#63b8ff" d="M843.08,-245.71C774.93,-238.41 669.56,-215.88 613.38,-147 586.7,-114.29 588.38,-61.64 591.91,-32.5"/>
<polygon fill="#63b8ff" stroke="#63b8ff" points="595.35,-33.13 593.3,-22.74 588.42,-32.15 595.35,-33.13"/>
</a>
</g>
</g>
<!-- Node11 -->
<g id="Node000011" class="node">
<title>Node11</title>
<g id="a_Node000011"><a xlink:title=" ">
<polygon fill="#e0e0e0" stroke="#999999" points="875.38,-20.75 781.38,-20.75 781.38,0 875.38,0 875.38,-20.75"/>
<text text-anchor="middle" x="828.38" y="-7.25" font-family="Helvetica,sans-Serif" font-size="10.00">mlir&#45;c/Support.h</text>
</a>
</g>
</g>
<!-- Node1&#45;&gt;Node11 -->
<g id="edge22_Node000001_Node000011" class="edge">
<title>Node1&#45;&gt;Node11</title>
<g id="a_edge22_Node000001_Node000011"><a xlink:title=" ">
<path fill="none" stroke="#63b8ff" d="M902.19,-239.59C897.4,-230.55 890.31,-216.48 885.38,-203.75 861.73,-142.74 842.09,-67.68 833.32,-32.04"/>
<polygon fill="#63b8ff" stroke="#63b8ff" points="836.79,-31.53 831.03,-22.64 829.99,-33.18 836.79,-31.53"/>
</a>
</g>
</g>
<!-- Node16 -->
<g id="Node000016" class="node">
<title>Node16</title>
<g id="a_Node000016"><a xlink:href="Config_8h.html" target="_top" xlink:title=" ">
<polygon fill="white" stroke="#666666" points="1004.25,-203.75 894.5,-203.75 894.5,-183 1004.25,-183 1004.25,-203.75"/>
<text text-anchor="middle" x="949.38" y="-190.25" font-family="Helvetica,sans-Serif" font-size="10.00">llzk/Config/Config.h</text>
</a>
</g>
</g>
<!-- Node1&#45;&gt;Node16 -->
<g id="edge18_Node000001_Node000016" class="edge">
<title>Node1&#45;&gt;Node16</title>
<g id="a_edge18_Node000001_Node000016"><a xlink:title=" ">
<path fill="none" stroke="#63b8ff" d="M914.88,-239.34C920.5,-232.02 928.34,-221.79 935.13,-212.94"/>
<polygon fill="#63b8ff" stroke="#63b8ff" points="937.7,-215.34 941.01,-205.28 932.15,-211.08 937.7,-215.34"/>
</a>
</g>
</g>
<!-- Node17 -->
<g id="Node000017" class="node">
<title>Node17</title>
<g id="a_Node000017"><a xlink:title=" ">
<polygon fill="#e0e0e0" stroke="#999999" points="1132.62,-203.75 1022.12,-203.75 1022.12,-183 1132.62,-183 1132.62,-203.75"/>
<text text-anchor="middle" x="1077.38" y="-190.25" font-family="Helvetica,sans-Serif" font-size="10.00">mlir/CAPI/Support.h</text>
</a>
</g>
</g>
<!-- Node1&#45;&gt;Node17 -->
<g id="edge19_Node000001_Node000017" class="edge">
<title>Node1&#45;&gt;Node17</title>
<g id="a_edge19_Node000001_Node000017"><a xlink:title=" ">
<path fill="none" stroke="#63b8ff" d="M937.77,-239.34C965.24,-230.49 1005.91,-217.39 1036.28,-207.61"/>
<polygon fill="#63b8ff" stroke="#63b8ff" points="1037.07,-211.03 1045.52,-204.63 1034.93,-204.37 1037.07,-211.03"/>
</a>
</g>
</g>
<!-- Node18 -->
<g id="Node000018" class="node">
<title>Node18</title>
<g id="a_Node000018"><a xlink:title=" ">
<polygon fill="#e0e0e0" stroke="#999999" points="1304,-203.75 1150.75,-203.75 1150.75,-183 1304,-183 1304,-203.75"/>
<text text-anchor="middle" x="1227.38" y="-190.25" font-family="Helvetica,sans-Serif" font-size="10.00">mlir/Support/LogicalResult.h</text>
</a>
</g>
</g>
<!-- Node1&#45;&gt;Node18 -->
<g id="edge20_Node000001_Node000018" class="edge">
<title>Node1&#45;&gt;Node18</title>
<g id="a_edge20_Node000001_Node000018"><a xlink:title=" ">
<path fill="none" stroke="#63b8ff" d="M964.95,-239.27C1019.27,-229.98 1100.76,-216.04 1158.5,-206.16"/>
<polygon fill="#63b8ff" stroke="#63b8ff" points="1158.96,-209.63 1168.23,-204.49 1157.78,-202.73 1158.96,-209.63"/>
</a>
</g>
</g>
<!-- Node3 -->
<g id="Node000003" class="node">
<title>Node3</title>
<g id="a_Node000003"><a xlink:href="AttributeHelper_8h.html" target="_top" xlink:title=" ">
<polygon fill="white" stroke="#666666" points="510.62,-147 400.12,-147 400.12,-113.5 510.62,-113.5 510.62,-147"/>
<text text-anchor="start" x="408.12" y="-133.5" font-family="Helvetica,sans-Serif" font-size="10.00">llzk/Dialect/LLZK/IR</text>
<text text-anchor="middle" x="455.38" y="-120.75" font-family="Helvetica,sans-Serif" font-size="10.00">/AttributeHelper.h</text>
</a>
</g>
</g>
<!-- Node2&#45;&gt;Node3 -->
<g id="edge2_Node000002_Node000003" class="edge">
<title>Node2&#45;&gt;Node3</title>
<g id="a_edge2_Node000002_Node000003"><a xlink:title=" ">
<path fill="none" stroke="#63b8ff" d="M455.38,-182.55C455.38,-176.13 455.38,-167.4 455.38,-158.95"/>
<polygon fill="#63b8ff" stroke="#63b8ff" points="458.88,-159 455.38,-149 451.88,-159 458.88,-159"/>
</a>
</g>
</g>
<!-- Node8 -->
<g id="Node000008" class="node">
<title>Node8</title>
<g id="a_Node000008"><a xlink:href="llzk-c_2Support_8h.html" target="_top" xlink:title=" ">
<polygon fill="white" stroke="#666666" points="714.25,-140.62 622.5,-140.62 622.5,-119.88 714.25,-119.88 714.25,-140.62"/>
<text text-anchor="middle" x="668.38" y="-127.12" font-family="Helvetica,sans-Serif" font-size="10.00">llzk&#45;c/Support.h</text>
</a>
</g>
</g>
<!-- Node2&#45;&gt;Node8 -->
<g id="edge7_Node000002_Node000008" class="edge">
<title>Node2&#45;&gt;Node8</title>
<g id="a_edge7_Node000002_Node000008"><a xlink:title=" ">
<path fill="none" stroke="#63b8ff" d="M489.6,-182.55C525.85,-172.15 583.26,-155.67 623.21,-144.21"/>
<polygon fill="#63b8ff" stroke="#63b8ff" points="624.14,-147.59 632.78,-141.46 622.21,-140.86 624.14,-147.59"/>
</a>
</g>
</g>
<!-- Node2&#45;&gt;Node10 -->
<g id="edge17_Node000002_Node000010" class="edge">
<title>Node2&#45;&gt;Node10</title>
<g id="a_edge17_Node000002_Node000010"><a xlink:title=" ">
<path fill="none" stroke="#63b8ff" d="M474.16,-182.54C488.08,-174.49 506.75,-162.01 519.38,-147 547.98,-113 539.66,-94.93 562.38,-56.75 567.77,-47.69 574.5,-38.17 580.48,-30.21"/>
<polygon fill="#63b8ff" stroke="#63b8ff" points="583.24,-32.36 586.56,-22.3 577.69,-28.09 583.24,-32.36"/>
</a>
</g>
</g>
<!-- Node13 -->
<g id="Node000013" class="node">
<title>Node13</title>
<g id="a_Node000013"><a xlink:title=" ">
<polygon fill="#e0e0e0" stroke="#999999" points="82.75,-140.62 0,-140.62 0,-119.88 82.75,-119.88 82.75,-140.62"/>
<text text-anchor="middle" x="41.38" y="-127.12" font-family="Helvetica,sans-Serif" font-size="10.00">mlir/CAPI/IR.h</text>
</a>
</g>
</g>
<!-- Node2&#45;&gt;Node13 -->
<g id="edge14_Node000002_Node000013" class="edge">
<title>Node2&#45;&gt;Node13</title>
<g id="a_edge14_Node000002_Node000013"><a xlink:title=" ">
<path fill="none" stroke="#63b8ff" d="M400.89,-188.68C329.26,-183.11 199.8,-170.63 91.38,-147 87.77,-146.22 84.06,-145.28 80.36,-144.27"/>
<polygon fill="#63b8ff" stroke="#63b8ff" points="81.46,-140.95 70.88,-141.49 79.49,-147.67 81.46,-140.95"/>
</a>
</g>
</g>
<!-- Node14 -->
<g id="Node000014" class="node">
<title>Node14</title>
<g id="a_Node000014"><a xlink:title=" ">
<polygon fill="#e0e0e0" stroke="#999999" points="246.25,-140.62 100.5,-140.62 100.5,-119.88 246.25,-119.88 246.25,-140.62"/>
<text text-anchor="middle" x="173.38" y="-127.12" font-family="Helvetica,sans-Serif" font-size="10.00">mlir/IR/OperationSupport.h</text>
</a>
</g>
</g>
<!-- Node2&#45;&gt;Node14 -->
<g id="edge15_Node000002_Node000014" class="edge">
<title>Node2&#45;&gt;Node14</title>
<g id="a_edge15_Node000002_Node000014"><a xlink:title=" ">
<path fill="none" stroke="#63b8ff" d="M410.07,-182.55C361.04,-171.93 282.79,-154.97 229.8,-143.48"/>
<polygon fill="#63b8ff" stroke="#63b8ff" points="230.56,-140.06 220.05,-141.37 229.08,-146.91 230.56,-140.06"/>
</a>
</g>
</g>
<!-- Node15 -->
<g id="Node000015" class="node">
<title>Node15</title>
<g id="a_Node000015"><a xlink:title=" ">
<polygon fill="#e0e0e0" stroke="#999999" points="382.38,-140.62 264.38,-140.62 264.38,-119.88 382.38,-119.88 382.38,-140.62"/>
<text text-anchor="middle" x="323.38" y="-127.12" font-family="Helvetica,sans-Serif" font-size="10.00">mlir/IR/ValueRange.h</text>
</a>
</g>
</g>
<!-- Node2&#45;&gt;Node15 -->
<g id="edge16_Node000002_Node000015" class="edge">
<title>Node2&#45;&gt;Node15</title>
<g id="a_edge16_Node000002_Node000015"><a xlink:title=" ">
<path fill="none" stroke="#63b8ff" d="M434.17,-182.55C412.71,-172.62 379.29,-157.14 354.77,-145.79"/>
<polygon fill="#63b8ff" stroke="#63b8ff" points="356.45,-142.71 345.9,-141.68 353.51,-149.06 356.45,-142.71"/>
</a>
</g>
</g>
<!-- Node4 -->
<g id="Node000004" class="node">
<title>Node4</title>
<g id="a_Node000004"><a xlink:href="StreamHelper_8h.html" target="_top" xlink:title=" ">
<polygon fill="white" stroke="#666666" points="202.5,-77.5 70.25,-77.5 70.25,-56.75 202.5,-56.75 202.5,-77.5"/>
<text text-anchor="middle" x="136.38" y="-64" font-family="Helvetica,sans-Serif" font-size="10.00">llzk/Util/StreamHelper.h</text>
</a>
</g>
</g>
<!-- Node3&#45;&gt;Node4 -->
<g id="edge3_Node000003_Node000004" class="edge">
<title>Node3&#45;&gt;Node4</title>
<g id="a_edge3_Node000003_Node000004"><a xlink:title=" ">
<path fill="none" stroke="#63b8ff" d="M399.92,-115.37C397.04,-114.72 394.17,-114.09 391.38,-113.5 330.34,-100.57 260.55,-88.33 209.43,-79.83"/>
<polygon fill="#63b8ff" stroke="#63b8ff" points="210.1,-76.39 199.66,-78.21 208.95,-83.29 210.1,-76.39"/>
</a>
</g>
</g>
<!-- Node6 -->
<g id="Node000006" class="node">
<title>Node6</title>
<g id="a_Node000006"><a xlink:title=" ">
<polygon fill="#e0e0e0" stroke="#999999" points="393.75,-77.5 221,-77.5 221,-56.75 393.75,-56.75 393.75,-77.5"/>
<text text-anchor="middle" x="307.38" y="-64" font-family="Helvetica,sans-Serif" font-size="10.00">mlir/IR/DialectImplementation.h</text>
</a>
</g>
</g>
<!-- Node3&#45;&gt;Node6 -->
<g id="edge5_Node000003_Node000006" class="edge">
<title>Node3&#45;&gt;Node6</title>
<g id="a_edge5_Node000003_Node000006"><a xlink:title=" ">
<path fill="none" stroke="#63b8ff" d="M416.1,-113.03C392.95,-103.47 363.94,-91.49 341.71,-82.3"/>
<polygon fill="#63b8ff" stroke="#63b8ff" points="343.06,-79.08 332.48,-78.49 340.38,-85.55 343.06,-79.08"/>
</a>
</g>
</g>
<!-- Node7 -->
<g id="Node000007" class="node">
<title>Node7</title>
<g id="a_Node000007"><a xlink:title=" ">
<polygon fill="#e0e0e0" stroke="#999999" points="510.62,-77.5 412.12,-77.5 412.12,-56.75 510.62,-56.75 510.62,-77.5"/>
<text text-anchor="middle" x="461.38" y="-64" font-family="Helvetica,sans-Serif" font-size="10.00">llvm/ADT/APInt.h</text>
</a>
</g>
</g>
<!-- Node3&#45;&gt;Node7 -->
<g id="edge6_Node000003_Node000007" class="edge">
<title>Node3&#45;&gt;Node7</title>
<g id="a_edge6_Node000003_Node000007"><a xlink:title=" ">
<path fill="none" stroke="#63b8ff" d="M456.95,-113.19C457.67,-105.85 458.53,-97.07 459.31,-89.21"/>
<polygon fill="#63b8ff" stroke="#63b8ff" points="462.77,-89.77 460.26,-79.47 455.8,-89.08 462.77,-89.77"/>
</a>
</g>
</g>
<!-- Node5 -->
<g id="Node000005" class="node">
<title>Node5</title>
<g id="a_Node000005"><a xlink:title=" ">
<polygon fill="#e0e0e0" stroke="#999999" points="213.38,-20.75 59.38,-20.75 59.38,0 213.38,0 213.38,-20.75"/>
<text text-anchor="middle" x="136.38" y="-7.25" font-family="Helvetica,sans-Serif" font-size="10.00">llvm/Support/raw_ostream.h</text>
</a>
</g>
</g>
<!-- Node4&#45;&gt;Node5 -->
<g id="edge4_Node000004_Node000005" class="edge">
<title>Node4&#45;&gt;Node5</title>
<g id="a_edge4_Node000004_Node000005"><a xlink:title=" ">
<path fill="none" stroke="#63b8ff" d="M136.38,-56.34C136.38,-49.72 136.38,-40.72 136.38,-32.52"/>
<polygon fill="#63b8ff" stroke="#63b8ff" points="139.88,-32.59 136.38,-22.59 132.88,-32.59 139.88,-32.59"/>
</a>
</g>
</g>
<!-- Node9 -->
<g id="Node000009" class="node">
<title>Node9</title>
<g id="a_Node000009"><a xlink:href="llzk-c_2Builder_8h.html" target="_top" xlink:title=" ">
<polygon fill="white" stroke="#666666" points="800.38,-77.5 712.38,-77.5 712.38,-56.75 800.38,-56.75 800.38,-77.5"/>
<text text-anchor="middle" x="756.38" y="-64" font-family="Helvetica,sans-Serif" font-size="10.00">llzk&#45;c/Builder.h</text>
</a>
</g>
</g>
<!-- Node8&#45;&gt;Node9 -->
<g id="edge8_Node000008_Node000009" class="edge">
<title>Node8&#45;&gt;Node9</title>
<g id="a_edge8_Node000008_Node000009"><a xlink:title=" ">
<path fill="none" stroke="#63b8ff" d="M682.51,-119.43C696.11,-109.98 716.92,-95.53 732.99,-84.37"/>
<polygon fill="#63b8ff" stroke="#63b8ff" points="734.81,-87.36 741.03,-78.78 730.82,-81.62 734.81,-87.36"/>
</a>
</g>
</g>
<!-- Node8&#45;&gt;Node10 -->
<g id="edge11_Node000008_Node000010" class="edge">
<title>Node8&#45;&gt;Node10</title>
<g id="a_edge11_Node000008_Node000010"><a xlink:title=" ">
<path fill="none" stroke="#63b8ff" d="M661.45,-119.47C654.22,-109.17 642.68,-92.4 633.38,-77.5 623.73,-62.06 613.49,-44.13 606.07,-30.84"/>
<polygon fill="#63b8ff" stroke="#63b8ff" points="609.21,-29.3 601.31,-22.24 603.09,-32.69 609.21,-29.3"/>
</a>
</g>
</g>
<!-- Node8&#45;&gt;Node11 -->
<g id="edge12_Node000008_Node000011" class="edge">
<title>Node8&#45;&gt;Node11</title>
<g id="a_edge12_Node000008_Node000011"><a xlink:title=" ">
<path fill="none" stroke="#63b8ff" d="M714.67,-123.26C745.52,-116.92 784.77,-103.94 809.38,-77.5 820.7,-65.33 825.33,-46.84 827.19,-32.5"/>
<polygon fill="#63b8ff" stroke="#63b8ff" points="830.66,-33.02 828.08,-22.74 823.69,-32.39 830.66,-33.02"/>
</a>
</g>
</g>
<!-- Node12 -->
<g id="Node000012" class="node">
<title>Node12</title>
<g id="a_Node000012"><a xlink:title=" ">
<polygon fill="#e0e0e0" stroke="#999999" points="694.75,-77.5 642,-77.5 642,-56.75 694.75,-56.75 694.75,-77.5"/>
<text text-anchor="middle" x="668.38" y="-64" font-family="Helvetica,sans-Serif" font-size="10.00">stdint.h</text>
</a>
</g>
</g>
<!-- Node8&#45;&gt;Node12 -->
<g id="edge13_Node000008_Node000012" class="edge">
<title>Node8&#45;&gt;Node12</title>
<g id="a_edge13_Node000008_Node000012"><a xlink:title=" ">
<path fill="none" stroke="#63b8ff" d="M668.38,-119.43C668.38,-111.27 668.38,-99.38 668.38,-89.1"/>
<polygon fill="#63b8ff" stroke="#63b8ff" points="671.88,-89.23 668.38,-79.23 664.88,-89.23 671.88,-89.23"/>
</a>
</g>
</g>
<!-- Node9&#45;&gt;Node10 -->
<g id="edge9_Node000009_Node000010" class="edge">
<title>Node9&#45;&gt;Node10</title>
<g id="a_edge9_Node000009_Node000010"><a xlink:title=" ">
<path fill="none" stroke="#63b8ff" d="M727.59,-56.34C701.8,-47.57 663.73,-34.62 635.05,-24.87"/>
<polygon fill="#63b8ff" stroke="#63b8ff" points="636.21,-21.56 625.61,-21.66 633.95,-28.19 636.21,-21.56"/>
</a>
</g>
</g>
<!-- Node9&#45;&gt;Node11 -->
<g id="edge10_Node000009_Node000011" class="edge">
<title>Node9&#45;&gt;Node11</title>
<g id="a_edge10_Node000009_Node000011"><a xlink:title=" ">
<path fill="none" stroke="#63b8ff" d="M769.25,-56.34C779.59,-48.47 794.34,-37.25 806.53,-27.99"/>
<polygon fill="#63b8ff" stroke="#63b8ff" points="808.57,-30.83 814.41,-21.99 804.33,-25.26 808.57,-30.83"/>
</a>
</g>
</g>
</g>
</svg>
