<?xml version="1.0" encoding="UTF-8" standalone="no"?>
<!DOCTYPE svg PUBLIC "-//W3C//DTD SVG 1.1//EN"
 "http://www.w3.org/Graphics/SVG/1.1/DTD/svg11.dtd">
<!-- Generated by graphviz version 12.2.1 (0)
 -->
<!-- Title: include/llzk/Dialect/POD/IR/Attrs.h Pages: 1 -->
<svg width="1602pt" height="459pt"
 viewBox="0.00 0.00 1602.12 458.50" xmlns="http://www.w3.org/2000/svg" xmlns:xlink="http://www.w3.org/1999/xlink">
<g id="graph0" class="graph" transform="scale(1 1) rotate(0) translate(4 454.5)">
<title>include/llzk/Dialect/POD/IR/Attrs.h</title>
<!-- Node1 -->
<g id="Node000001" class="node">
<title>Node1</title>
<g id="a_Node000001"><a xlink:title=" ">
<polygon fill="#999999" stroke="#666666" points="743.5,-450.5 634.5,-450.5 634.5,-417 743.5,-417 743.5,-450.5"/>
<text text-anchor="start" x="642.5" y="-437" font-family="Helvetica,sans-Serif" font-size="10.00">include/llzk/Dialect</text>
<text text-anchor="middle" x="689" y="-424.25" font-family="Helvetica,sans-Serif" font-size="10.00">/POD/IR/Attrs.h</text>
</a>
</g>
</g>
<!-- Node2 -->
<g id="Node000002" class="node">
<title>Node2</title>
<g id="a_Node000002"><a xlink:href="POD_2IR_2Types_8h.html" target="_top" xlink:title=" ">
<polygon fill="white" stroke="#666666" points="585.5,-381 476.5,-381 476.5,-347.5 585.5,-347.5 585.5,-381"/>
<text text-anchor="start" x="484.5" y="-367.5" font-family="Helvetica,sans-Serif" font-size="10.00">include/llzk/Dialect</text>
<text text-anchor="middle" x="531" y="-354.75" font-family="Helvetica,sans-Serif" font-size="10.00">/POD/IR/Types.h</text>
</a>
</g>
</g>
<!-- Node1&#45;&gt;Node2 -->
<g id="edge1_Node000001_Node000002" class="edge">
<title>Node1&#45;&gt;Node2</title>
<g id="a_edge1_Node000001_Node000002"><a xlink:title=" ">
<path fill="none" stroke="#63b8ff" d="M640.86,-412.18C617.73,-402.3 590.42,-390.63 568.81,-381.4"/>
<polygon fill="#63b8ff" stroke="#63b8ff" points="639.19,-415.28 649.76,-415.99 641.94,-408.84 639.19,-415.28"/>
</a>
</g>
</g>
<!-- Node5 -->
<g id="Node000005" class="node">
<title>Node5</title>
<g id="a_Node000005"><a xlink:href="POD_2IR_2Dialect_8cpp.html" target="_top" xlink:title=" ">
<polygon fill="white" stroke="#666666" points="168.12,-242 65.88,-242 65.88,-208.5 168.12,-208.5 168.12,-242"/>
<text text-anchor="start" x="73.88" y="-228.5" font-family="Helvetica,sans-Serif" font-size="10.00">lib/Dialect/POD/IR</text>
<text text-anchor="middle" x="117" y="-215.75" font-family="Helvetica,sans-Serif" font-size="10.00">/Dialect.cpp</text>
</a>
</g>
</g>
<!-- Node1&#45;&gt;Node5 -->
<g id="edge49_Node000001_Node000005" class="edge">
<title>Node1&#45;&gt;Node5</title>
<g id="a_edge49_Node000001_Node000005"><a xlink:title=" ">
<path fill="none" stroke="#63b8ff" d="M622.82,-427.63C489.75,-415.92 196.73,-382.52 130,-311.5 112.57,-292.95 112.56,-261.44 114.52,-242.37"/>
<polygon fill="#63b8ff" stroke="#63b8ff" points="622.27,-431.09 632.54,-428.47 622.87,-424.12 622.27,-431.09"/>
</a>
</g>
</g>
<!-- Node8 -->
<g id="Node000008" class="node">
<title>Node8</title>
<g id="a_Node000008"><a xlink:href="WitgenLowering_8cpp.html" target="_top" xlink:title=" ">
<polygon fill="white" stroke="#666666" points="583.25,-103 448.75,-103 448.75,-69.5 583.25,-69.5 583.25,-103"/>
<text text-anchor="start" x="456.75" y="-89.5" font-family="Helvetica,sans-Serif" font-size="10.00">tools/llzk&#45;witgen/Witgen</text>
<text text-anchor="middle" x="516" y="-76.75" font-family="Helvetica,sans-Serif" font-size="10.00">Lowering.cpp</text>
</a>
</g>
</g>
<!-- Node1&#45;&gt;Node8 -->
<g id="edge54_Node000001_Node000008" class="edge">
<title>Node1&#45;&gt;Node8</title>
<g id="a_edge54_Node000001_Node000008"><a xlink:title=" ">
<path fill="none" stroke="#63b8ff" d="M754.26,-413.53C827.51,-388.45 930.95,-340.3 889,-278 884.65,-271.54 635.78,-176.34 629,-172.5 593.09,-152.13 555.65,-121.78 534.15,-103.33"/>
<polygon fill="#63b8ff" stroke="#63b8ff" points="753.51,-410.09 745.13,-416.58 755.73,-416.73 753.51,-410.09"/>
</a>
</g>
</g>
<!-- Node11 -->
<g id="Node000011" class="node">
<title>Node11</title>
<g id="a_Node000011"><a xlink:href="Field_8cpp.html" target="_top" xlink:title=" ">
<polygon fill="white" stroke="#666666" points="736.38,-305.12 641.62,-305.12 641.62,-284.38 736.38,-284.38 736.38,-305.12"/>
<text text-anchor="middle" x="689" y="-291.62" font-family="Helvetica,sans-Serif" font-size="10.00">lib/Util/Field.cpp</text>
</a>
</g>
</g>
<!-- Node1&#45;&gt;Node11 -->
<g id="edge50_Node000001_Node000011" class="edge">
<title>Node1&#45;&gt;Node11</title>
<g id="a_edge50_Node000001_Node000011"><a xlink:title=" ">
<path fill="none" stroke="#63b8ff" d="M689,-405.54C689,-374.7 689,-326.07 689,-305.48"/>
<polygon fill="#63b8ff" stroke="#63b8ff" points="685.5,-405.25 689,-415.25 692.5,-405.25 685.5,-405.25"/>
</a>
</g>
</g>
<!-- Node12 -->
<g id="Node000012" class="node">
<title>Node12</title>
<g id="a_Node000012"><a xlink:href="TypeHelper_8cpp.html" target="_top" xlink:title=" ">
<polygon fill="white" stroke="#666666" points="879.75,-305.12 754.25,-305.12 754.25,-284.38 879.75,-284.38 879.75,-305.12"/>
<text text-anchor="middle" x="817" y="-291.62" font-family="Helvetica,sans-Serif" font-size="10.00">lib/Util/TypeHelper.cpp</text>
</a>
</g>
</g>
<!-- Node1&#45;&gt;Node12 -->
<g id="edge51_Node000001_Node000012" class="edge">
<title>Node1&#45;&gt;Node12</title>
<g id="a_edge51_Node000001_Node000012"><a xlink:title=" ">
<path fill="none" stroke="#63b8ff" d="M711.43,-408.74C739.98,-378.18 787.99,-326.8 807.91,-305.48"/>
<polygon fill="#63b8ff" stroke="#63b8ff" points="709.24,-405.96 704.97,-415.66 714.35,-410.74 709.24,-405.96"/>
</a>
</g>
</g>
<!-- Node18 -->
<g id="Node000018" class="node">
<title>Node18</title>
<g id="a_Node000018"><a xlink:href="JSON_8cpp.html" target="_top" xlink:title=" ">
<polygon fill="white" stroke="#666666" points="350.12,-27.12 205.88,-27.12 205.88,-6.38 350.12,-6.38 350.12,-27.12"/>
<text text-anchor="middle" x="278" y="-13.62" font-family="Helvetica,sans-Serif" font-size="10.00">tools/llzk&#45;witgen/JSON.cpp</text>
</a>
</g>
</g>
<!-- Node1&#45;&gt;Node18 -->
<g id="edge52_Node000001_Node000018" class="edge">
<title>Node1&#45;&gt;Node18</title>
<g id="a_edge52_Node000001_Node000018"><a xlink:title=" ">
<path fill="none" stroke="#63b8ff" d="M622.93,-430.16C473.16,-423.88 117.06,-406.44 69,-381 25.92,-358.2 0,-344.49 0,-295.75 0,-295.75 0,-295.75 0,-154.75 0,-63.01 123.31,-32.7 205.68,-22.69"/>
<polygon fill="#63b8ff" stroke="#63b8ff" points="622.56,-433.65 632.7,-430.57 622.85,-426.66 622.56,-433.65"/>
</a>
</g>
</g>
<!-- Node19 -->
<g id="Node000019" class="node">
<title>Node19</title>
<g id="a_Node000019"><a xlink:href="ValueModel_8cpp.html" target="_top" xlink:title=" ">
<polygon fill="white" stroke="#666666" points="1552.62,-96.62 1375.38,-96.62 1375.38,-75.88 1552.62,-75.88 1552.62,-96.62"/>
<text text-anchor="middle" x="1464" y="-83.12" font-family="Helvetica,sans-Serif" font-size="10.00">tools/llzk&#45;witgen/ValueModel.cpp</text>
</a>
</g>
</g>
<!-- Node1&#45;&gt;Node19 -->
<g id="edge53_Node000001_Node000019" class="edge">
<title>Node1&#45;&gt;Node19</title>
<g id="a_edge53_Node000001_Node000019"><a xlink:title=" ">
<path fill="none" stroke="#63b8ff" d="M755.13,-428.01C942.6,-413.71 1464,-367.48 1464,-295.75 1464,-295.75 1464,-295.75 1464,-224.25 1464,-176.44 1464,-119.25 1464,-96.88"/>
<polygon fill="#63b8ff" stroke="#63b8ff" points="755.02,-424.51 745.31,-428.76 755.55,-431.49 755.02,-424.51"/>
</a>
</g>
</g>
<!-- Node25 -->
<g id="Node000025" class="node">
<title>Node25</title>
<g id="a_Node000025"><a xlink:href="WitnessSelection_8cpp.html" target="_top" xlink:title=" ">
<polygon fill="white" stroke="#666666" points="202.5,-103 63.5,-103 63.5,-69.5 202.5,-69.5 202.5,-103"/>
<text text-anchor="start" x="71.5" y="-89.5" font-family="Helvetica,sans-Serif" font-size="10.00">tools/llzk&#45;witgen/Witness</text>
<text text-anchor="middle" x="133" y="-76.75" font-family="Helvetica,sans-Serif" font-size="10.00">Selection.cpp</text>
</a>
</g>
</g>
<!-- Node1&#45;&gt;Node25 -->
<g id="edge55_Node000001_Node000025" class="edge">
<title>Node1&#45;&gt;Node25</title>
<g id="a_edge55_Node000001_Node000025"><a xlink:title=" ">
<path fill="none" stroke="#63b8ff" d="M622.57,-432.71C456.77,-430.82 38,-414.32 38,-295.75 38,-295.75 38,-295.75 38,-224.25 38,-172.73 83.93,-126.62 111.92,-103.31"/>
<polygon fill="#63b8ff" stroke="#63b8ff" points="622.51,-436.21 632.54,-432.81 622.58,-429.21 622.51,-436.21"/>
</a>
</g>
</g>
<!-- Node27 -->
<g id="Node000027" class="node">
<title>Node27</title>
<g id="a_Node000027"><a xlink:href="POD_2IR_2Attrs_8cpp.html" target="_top" xlink:title=" ">
<polygon fill="white" stroke="#666666" points="1594.12,-381 1491.88,-381 1491.88,-347.5 1594.12,-347.5 1594.12,-381"/>
<text text-anchor="start" x="1499.88" y="-367.5" font-family="Helvetica,sans-Serif" font-size="10.00">lib/Dialect/POD/IR</text>
<text text-anchor="middle" x="1543" y="-354.75" font-family="Helvetica,sans-Serif" font-size="10.00">/Attrs.cpp</text>
</a>
</g>
</g>
<!-- Node1&#45;&gt;Node27 -->
<g id="edge48_Node000001_Node000027" class="edge">
<title>Node1&#45;&gt;Node27</title>
<g id="a_edge48_Node000001_Node000027"><a xlink:title=" ">
<path fill="none" stroke="#63b8ff" d="M755.31,-432.25C891.51,-430.36 1212.31,-421.59 1478,-381 1482.48,-380.32 1487.1,-379.47 1491.72,-378.54"/>
<polygon fill="#63b8ff" stroke="#63b8ff" points="755.34,-428.74 745.39,-432.37 755.43,-435.74 755.34,-428.74"/>
</a>
</g>
</g>
<!-- Node3 -->
<g id="Node000003" class="node">
<title>Node3</title>
<g id="a_Node000003"><a xlink:href="POD_2IR_2Ops_8h.html" target="_top" xlink:title=" ">
<polygon fill="white" stroke="#666666" points="585.5,-311.5 476.5,-311.5 476.5,-278 585.5,-278 585.5,-311.5"/>
<text text-anchor="start" x="484.5" y="-298" font-family="Helvetica,sans-Serif" font-size="10.00">include/llzk/Dialect</text>
<text text-anchor="middle" x="531" y="-285.25" font-family="Helvetica,sans-Serif" font-size="10.00">/POD/IR/Ops.h</text>
</a>
</g>
</g>
<!-- Node2&#45;&gt;Node3 -->
<g id="edge2_Node000002_Node000003" class="edge">
<title>Node2&#45;&gt;Node3</title>
<g id="a_edge2_Node000002_Node000003"><a xlink:title=" ">
<path fill="none" stroke="#63b8ff" d="M531,-335.81C531,-327.59 531,-318.84 531,-311.63"/>
<polygon fill="#63b8ff" stroke="#63b8ff" points="527.5,-335.74 531,-345.74 534.5,-335.74 527.5,-335.74"/>
</a>
</g>
</g>
<!-- Node4 -->
<g id="Node000004" class="node">
<title>Node4</title>
<g id="a_Node000004"><a xlink:href="POD_8cpp.html" target="_top" xlink:title=" ">
<polygon fill="white" stroke="#666666" points="685.62,-235.62 550.38,-235.62 550.38,-214.88 685.62,-214.88 685.62,-235.62"/>
<text text-anchor="middle" x="618" y="-222.12" font-family="Helvetica,sans-Serif" font-size="10.00">lib/CAPI/Dialect/POD.cpp</text>
</a>
</g>
</g>
<!-- Node2&#45;&gt;Node4 -->
<g id="edge8_Node000002_Node000004" class="edge">
<title>Node2&#45;&gt;Node4</title>
<g id="a_edge8_Node000002_Node000004"><a xlink:title=" ">
<path fill="none" stroke="#63b8ff" d="M567.04,-340.52C577.36,-332.47 587.76,-322.61 595,-311.5 610.73,-287.35 615.76,-252.69 617.32,-235.99"/>
<polygon fill="#63b8ff" stroke="#63b8ff" points="565.27,-337.48 559.29,-346.22 569.42,-343.12 565.27,-337.48"/>
</a>
</g>
</g>
<!-- Node2&#45;&gt;Node5 -->
<g id="edge9_Node000002_Node000005" class="edge">
<title>Node2&#45;&gt;Node5</title>
<g id="a_edge9_Node000002_Node000005"><a xlink:title=" ">
<path fill="none" stroke="#63b8ff" d="M464.89,-361.28C371.66,-357.31 207.6,-345.56 160,-311.5 136.81,-294.91 125.37,-262.13 120.36,-242.4"/>
<polygon fill="#63b8ff" stroke="#63b8ff" points="464.53,-364.77 474.66,-361.68 464.81,-357.77 464.53,-364.77"/>
</a>
</g>
</g>
<!-- Node6 -->
<g id="Node000006" class="node">
<title>Node6</title>
<g id="a_Node000006"><a xlink:href="POD_2IR_2Ops_8cpp.html" target="_top" xlink:title=" ">
<polygon fill="white" stroke="#666666" points="494.12,-242 391.88,-242 391.88,-208.5 494.12,-208.5 494.12,-242"/>
<text text-anchor="start" x="399.88" y="-228.5" font-family="Helvetica,sans-Serif" font-size="10.00">lib/Dialect/POD/IR</text>
<text text-anchor="middle" x="443" y="-215.75" font-family="Helvetica,sans-Serif" font-size="10.00">/Ops.cpp</text>
</a>
</g>
</g>
<!-- Node2&#45;&gt;Node6 -->
<g id="edge10_Node000002_Node000006" class="edge">
<title>Node2&#45;&gt;Node6</title>
<g id="a_edge10_Node000002_Node000006"><a xlink:title=" ">
<path fill="none" stroke="#63b8ff" d="M495.03,-340.47C484.72,-332.42 474.3,-322.57 467,-311.5 452.87,-290.06 446.96,-260.31 444.56,-242.22"/>
<polygon fill="#63b8ff" stroke="#63b8ff" points="492.65,-343.06 502.77,-346.18 496.8,-337.43 492.65,-343.06"/>
</a>
</g>
</g>
<!-- Node9 -->
<g id="Node000009" class="node">
<title>Node9</title>
<g id="a_Node000009"><a xlink:href="POD_2IR_2Types_8cpp.html" target="_top" xlink:title=" ">
<polygon fill="white" stroke="#666666" points="304.12,-311.5 201.88,-311.5 201.88,-278 304.12,-278 304.12,-311.5"/>
<text text-anchor="start" x="209.88" y="-298" font-family="Helvetica,sans-Serif" font-size="10.00">lib/Dialect/POD/IR</text>
<text text-anchor="middle" x="253" y="-285.25" font-family="Helvetica,sans-Serif" font-size="10.00">/Types.cpp</text>
</a>
</g>
</g>
<!-- Node2&#45;&gt;Node9 -->
<g id="edge11_Node000002_Node000009" class="edge">
<title>Node2&#45;&gt;Node9</title>
<g id="a_edge11_Node000002_Node000009"><a xlink:title=" ">
<path fill="none" stroke="#63b8ff" d="M465.3,-348.08C421.98,-337.97 364.03,-324.25 313,-311.5 310.18,-310.8 307.29,-310.06 304.37,-309.32"/>
<polygon fill="#63b8ff" stroke="#63b8ff" points="464.26,-351.43 474.79,-350.29 465.84,-344.61 464.26,-351.43"/>
</a>
</g>
</g>
<!-- Node10 -->
<g id="Node000010" class="node">
<title>Node10</title>
<g id="a_Node000010"><a xlink:href="Struct_2IR_2Ops_8cpp.html" target="_top" xlink:title=" ">
<polygon fill="white" stroke="#666666" points="419.5,-311.5 322.5,-311.5 322.5,-278 419.5,-278 419.5,-311.5"/>
<text text-anchor="start" x="330.5" y="-298" font-family="Helvetica,sans-Serif" font-size="10.00">lib/Dialect/Struct</text>
<text text-anchor="middle" x="371" y="-285.25" font-family="Helvetica,sans-Serif" font-size="10.00">/IR/Ops.cpp</text>
</a>
</g>
</g>
<!-- Node2&#45;&gt;Node10 -->
<g id="edge12_Node000002_Node000010" class="edge">
<title>Node2&#45;&gt;Node10</title>
<g id="a_edge12_Node000002_Node000010"><a xlink:title=" ">
<path fill="none" stroke="#63b8ff" d="M482.25,-342.68C458.83,-332.8 431.17,-321.13 409.29,-311.9"/>
<polygon fill="#63b8ff" stroke="#63b8ff" points="480.71,-345.83 491.28,-346.49 483.43,-339.38 480.71,-345.83"/>
</a>
</g>
</g>
<!-- Node2&#45;&gt;Node11 -->
<g id="edge13_Node000002_Node000011" class="edge">
<title>Node2&#45;&gt;Node11</title>
<g id="a_edge13_Node000002_Node000011"><a xlink:title=" ">
<path fill="none" stroke="#63b8ff" d="M579.16,-342.68C608.05,-330.33 643.46,-315.2 666.13,-305.52"/>
<polygon fill="#63b8ff" stroke="#63b8ff" points="578.06,-339.34 570.24,-346.49 580.81,-345.78 578.06,-339.34"/>
</a>
</g>
</g>
<!-- Node2&#45;&gt;Node12 -->
<g id="edge14_Node000002_Node000012" class="edge">
<title>Node2&#45;&gt;Node12</title>
<g id="a_edge14_Node000002_Node000012"><a xlink:title=" ">
<path fill="none" stroke="#63b8ff" d="M596.84,-347.71C651.83,-334.73 728.53,-316.63 775.37,-305.58"/>
<polygon fill="#63b8ff" stroke="#63b8ff" points="596.21,-344.26 587.28,-349.97 597.81,-351.08 596.21,-344.26"/>
</a>
</g>
</g>
<!-- Node13 -->
<g id="Node000013" class="node">
<title>Node13</title>
<g id="a_Node000013"><a xlink:href="ValueModel_8h.html" target="_top" xlink:title=" ">
<polygon fill="white" stroke="#666666" points="1198,-305.12 1032,-305.12 1032,-284.38 1198,-284.38 1198,-305.12"/>
<text text-anchor="middle" x="1115" y="-291.62" font-family="Helvetica,sans-Serif" font-size="10.00">tools/llzk&#45;witgen/ValueModel.h</text>
</a>
</g>
</g>
<!-- Node2&#45;&gt;Node13 -->
<g id="edge15_Node000002_Node000013" class="edge">
<title>Node2&#45;&gt;Node13</title>
<g id="a_edge15_Node000002_Node000013"><a xlink:title=" ">
<path fill="none" stroke="#63b8ff" d="M597.21,-355.6C704.12,-343.24 914.6,-318.91 1031.59,-305.39"/>
<polygon fill="#63b8ff" stroke="#63b8ff" points="596.98,-352.1 587.44,-356.73 597.78,-359.05 596.98,-352.1"/>
</a>
</g>
</g>
<!-- Node2&#45;&gt;Node25 -->
<g id="edge47_Node000002_Node000025" class="edge">
<title>Node2&#45;&gt;Node25</title>
<g id="a_edge47_Node000002_Node000025"><a xlink:title=" ">
<path fill="none" stroke="#63b8ff" d="M464.65,-362.1C377.22,-359.12 230.15,-348.57 193,-311.5 160.21,-278.78 188.51,-253.37 177,-208.5 167.1,-169.89 149.69,-126.35 140.01,-103.41"/>
<polygon fill="#63b8ff" stroke="#63b8ff" points="464.43,-365.59 474.54,-362.41 464.65,-358.6 464.43,-365.59"/>
</a>
</g>
</g>
<!-- Node3&#45;&gt;Node4 -->
<g id="edge3_Node000003_Node000004" class="edge">
<title>Node3&#45;&gt;Node4</title>
<g id="a_edge3_Node000003_Node000004"><a xlink:title=" ">
<path fill="none" stroke="#63b8ff" d="M560.7,-270.71C575.93,-258.89 593.68,-245.12 605.34,-236.07"/>
<polygon fill="#63b8ff" stroke="#63b8ff" points="558.57,-267.93 552.81,-276.83 562.86,-273.46 558.57,-267.93"/>
</a>
</g>
</g>
<!-- Node3&#45;&gt;Node5 -->
<g id="edge4_Node000003_Node000005" class="edge">
<title>Node3&#45;&gt;Node5</title>
<g id="a_edge4_Node000003_Node000005"><a xlink:title=" ">
<path fill="none" stroke="#63b8ff" d="M464.79,-282.95C382.42,-269.53 243.53,-246.88 168.62,-234.67"/>
<polygon fill="#63b8ff" stroke="#63b8ff" points="464.1,-286.39 474.53,-284.54 465.22,-279.48 464.1,-286.39"/>
</a>
</g>
</g>
<!-- Node3&#45;&gt;Node6 -->
<g id="edge5_Node000003_Node000006" class="edge">
<title>Node3&#45;&gt;Node6</title>
<g id="a_edge5_Node000003_Node000006"><a xlink:title=" ">
<path fill="none" stroke="#63b8ff" d="M501.2,-270.89C488.98,-261.52 475.13,-250.9 464.01,-242.37"/>
<polygon fill="#63b8ff" stroke="#63b8ff" points="498.88,-273.52 508.94,-276.83 503.14,-267.97 498.88,-273.52"/>
</a>
</g>
</g>
<!-- Node7 -->
<g id="Node000007" class="node">
<title>Node7</title>
<g id="a_Node000007"><a xlink:href="Interpreter_8cpp.html" target="_top" xlink:title=" ">
<polygon fill="white" stroke="#666666" points="1280.62,-96.62 1109.38,-96.62 1109.38,-75.88 1280.62,-75.88 1280.62,-96.62"/>
<text text-anchor="middle" x="1195" y="-83.12" font-family="Helvetica,sans-Serif" font-size="10.00">tools/llzk&#45;witgen/Interpreter.cpp</text>
</a>
</g>
</g>
<!-- Node3&#45;&gt;Node7 -->
<g id="edge6_Node000003_Node000007" class="edge">
<title>Node3&#45;&gt;Node7</title>
<g id="a_edge6_Node000003_Node000007"><a xlink:title=" ">
<path fill="none" stroke="#63b8ff" d="M597.24,-283.09C609.13,-281.3 621.42,-279.53 633,-278 777.95,-258.84 822.45,-291.58 960,-242 1056.51,-207.21 1152.82,-125.36 1184.31,-97.07"/>
<polygon fill="#63b8ff" stroke="#63b8ff" points="596.84,-279.61 587.49,-284.58 597.9,-286.53 596.84,-279.61"/>
</a>
</g>
</g>
<!-- Node3&#45;&gt;Node8 -->
<g id="edge7_Node000003_Node000008" class="edge">
<title>Node3&#45;&gt;Node8</title>
<g id="a_edge7_Node000003_Node000008"><a xlink:title=" ">
<path fill="none" stroke="#63b8ff" d="M528.99,-266.09C525.81,-222.34 519.72,-138.52 517.17,-103.38"/>
<polygon fill="#63b8ff" stroke="#63b8ff" points="525.5,-266.32 529.71,-276.04 532.48,-265.81 525.5,-266.32"/>
</a>
</g>
</g>
<!-- Node14 -->
<g id="Node000014" class="node">
<title>Node14</title>
<g id="a_Node000014"><a xlink:href="ExecutionEngineBackend_8cpp.html" target="_top" xlink:title=" ">
<polygon fill="white" stroke="#666666" points="760.62,-33.5 613.38,-33.5 613.38,0 760.62,0 760.62,-33.5"/>
<text text-anchor="start" x="621.38" y="-20" font-family="Helvetica,sans-Serif" font-size="10.00">tools/llzk&#45;witgen/Execution</text>
<text text-anchor="middle" x="687" y="-7.25" font-family="Helvetica,sans-Serif" font-size="10.00">EngineBackend.cpp</text>
</a>
</g>
</g>
<!-- Node13&#45;&gt;Node14 -->
<g id="edge16_Node000013_Node000014" class="edge">
<title>Node13&#45;&gt;Node14</title>
<g id="a_edge16_Node000013_Node000014"><a xlink:title=" ">
<path fill="none" stroke="#63b8ff" d="M1125.82,-274.28C1143.98,-242.88 1183.14,-180.41 1229,-139 1252.36,-117.9 1274.39,-130.34 1290,-103 1297.38,-90.07 1300.09,-80.45 1290,-69.5 1256.92,-33.59 900.64,-37.82 852,-33.5 822.19,-30.85 789.37,-27.76 760.9,-25.01"/>
<polygon fill="#63b8ff" stroke="#63b8ff" points="1122.94,-272.26 1121.04,-282.68 1129.03,-275.72 1122.94,-272.26"/>
</a>
</g>
</g>
<!-- Node15 -->
<g id="Node000015" class="node">
<title>Node15</title>
<g id="a_Node000015"><a xlink:href="Interpreter_8h.html" target="_top" xlink:title=" ">
<polygon fill="white" stroke="#666666" points="1398,-166.12 1238,-166.12 1238,-145.38 1398,-145.38 1398,-166.12"/>
<text text-anchor="middle" x="1318" y="-152.62" font-family="Helvetica,sans-Serif" font-size="10.00">tools/llzk&#45;witgen/Interpreter.h</text>
</a>
</g>
</g>
<!-- Node13&#45;&gt;Node15 -->
<g id="edge17_Node000013_Node000015" class="edge">
<title>Node13&#45;&gt;Node15</title>
<g id="a_edge17_Node000013_Node000015"><a xlink:title=" ">
<path fill="none" stroke="#63b8ff" d="M1151.33,-279.68C1173.24,-270.44 1201.22,-257.25 1224,-242 1258.6,-218.84 1293.35,-183.41 1309.16,-166.45"/>
<polygon fill="#63b8ff" stroke="#63b8ff" points="1150.11,-276.4 1142.2,-283.44 1152.78,-282.87 1150.11,-276.4"/>
</a>
</g>
</g>
<!-- Node17 -->
<g id="Node000017" class="node">
<title>Node17</title>
<g id="a_Node000017"><a xlink:href="JSON_8h.html" target="_top" xlink:title=" ">
<polygon fill="white" stroke="#666666" points="392.5,-96.62 259.5,-96.62 259.5,-75.88 392.5,-75.88 392.5,-96.62"/>
<text text-anchor="middle" x="326" y="-83.12" font-family="Helvetica,sans-Serif" font-size="10.00">tools/llzk&#45;witgen/JSON.h</text>
</a>
</g>
</g>
<!-- Node13&#45;&gt;Node17 -->
<g id="edge20_Node000013_Node000017" class="edge">
<title>Node13&#45;&gt;Node17</title>
<g id="a_edge20_Node000013_Node000017"><a xlink:title=" ">
<path fill="none" stroke="#63b8ff" d="M1030.03,-282.25C968.09,-273.19 882.36,-259.22 808,-242 756.97,-230.18 746.39,-218.67 695,-208.5 618.3,-193.32 403.42,-224.47 345,-172.5 323.25,-153.15 323.44,-114.87 324.89,-96.94"/>
<polygon fill="#63b8ff" stroke="#63b8ff" points="1029.41,-285.7 1039.81,-283.67 1030.42,-278.77 1029.41,-285.7"/>
</a>
</g>
</g>
<!-- Node13&#45;&gt;Node19 -->
<g id="edge24_Node000013_Node000019" class="edge">
<title>Node13&#45;&gt;Node19</title>
<g id="a_edge24_Node000013_Node000019"><a xlink:title=" ">
<path fill="none" stroke="#63b8ff" d="M1172.75,-281.2C1236.13,-265.02 1338.02,-231.66 1407,-172.5 1432.68,-150.48 1451.64,-114.19 1459.71,-96.94"/>
<polygon fill="#63b8ff" stroke="#63b8ff" points="1172.1,-277.75 1163.24,-283.56 1173.79,-284.55 1172.1,-277.75"/>
</a>
</g>
</g>
<!-- Node20 -->
<g id="Node000020" class="node">
<title>Node20</title>
<g id="a_Node000020"><a xlink:href="WitgenDriver_8h.html" target="_top" xlink:title=" ">
<polygon fill="white" stroke="#666666" points="951.25,-242 816.75,-242 816.75,-208.5 951.25,-208.5 951.25,-242"/>
<text text-anchor="start" x="824.75" y="-228.5" font-family="Helvetica,sans-Serif" font-size="10.00">tools/llzk&#45;witgen/Witgen</text>
<text text-anchor="middle" x="884" y="-215.75" font-family="Helvetica,sans-Serif" font-size="10.00">Driver.h</text>
</a>
</g>
</g>
<!-- Node13&#45;&gt;Node20 -->
<g id="edge25_Node000013_Node000020" class="edge">
<title>Node13&#45;&gt;Node20</title>
<g id="a_edge25_Node000013_Node000020"><a xlink:title=" ">
<path fill="none" stroke="#63b8ff" d="M1070.38,-280.71C1033.05,-269.8 979.62,-254.19 939.54,-242.48"/>
<polygon fill="#63b8ff" stroke="#63b8ff" points="1069.38,-284.07 1079.96,-283.51 1071.34,-277.35 1069.38,-284.07"/>
</a>
</g>
</g>
<!-- Node15&#45;&gt;Node7 -->
<g id="edge18_Node000015_Node000007" class="edge">
<title>Node15&#45;&gt;Node7</title>
<g id="a_edge18_Node000015_Node000007"><a xlink:title=" ">
<path fill="none" stroke="#63b8ff" d="M1290.31,-139.55C1266.62,-126.56 1233.23,-108.23 1212.91,-97.08"/>
<polygon fill="#63b8ff" stroke="#63b8ff" points="1288.34,-142.46 1298.79,-144.21 1291.71,-136.33 1288.34,-142.46"/>
</a>
</g>
</g>
<!-- Node16 -->
<g id="Node000016" class="node">
<title>Node16</title>
<g id="a_Node000016"><a xlink:href="WitgenDriver_8cpp.html" target="_top" xlink:title=" ">
<polygon fill="white" stroke="#666666" points="995.25,-33.5 860.75,-33.5 860.75,0 995.25,0 995.25,-33.5"/>
<text text-anchor="start" x="868.75" y="-20" font-family="Helvetica,sans-Serif" font-size="10.00">tools/llzk&#45;witgen/Witgen</text>
<text text-anchor="middle" x="928" y="-7.25" font-family="Helvetica,sans-Serif" font-size="10.00">Driver.cpp</text>
</a>
</g>
</g>
<!-- Node15&#45;&gt;Node16 -->
<g id="edge19_Node000015_Node000016" class="edge">
<title>Node15&#45;&gt;Node16</title>
<g id="a_edge19_Node000015_Node000016"><a xlink:title=" ">
<path fill="none" stroke="#63b8ff" d="M1326.51,-134.34C1332.97,-115.22 1338.39,-87.03 1323,-69.5 1301.79,-45.33 1102.88,-28.96 995.69,-21.82"/>
<polygon fill="#63b8ff" stroke="#63b8ff" points="1323.32,-132.89 1323.06,-143.48 1329.87,-135.36 1323.32,-132.89"/>
</a>
</g>
</g>
<!-- Node17&#45;&gt;Node14 -->
<g id="edge21_Node000017_Node000014" class="edge">
<title>Node17&#45;&gt;Node14</title>
<g id="a_edge21_Node000017_Node000014"><a xlink:title=" ">
<path fill="none" stroke="#63b8ff" d="M387.25,-73.28C393.91,-71.99 400.6,-70.71 407,-69.5 476.82,-56.26 556.51,-41.57 612.98,-31.24"/>
<polygon fill="#63b8ff" stroke="#63b8ff" points="386.75,-69.81 377.59,-75.14 388.08,-76.68 386.75,-69.81"/>
</a>
</g>
</g>
<!-- Node17&#45;&gt;Node16 -->
<g id="edge23_Node000017_Node000016" class="edge">
<title>Node17&#45;&gt;Node16</title>
<g id="a_edge23_Node000017_Node000016"><a xlink:title=" ">
<path fill="none" stroke="#63b8ff" d="M404.24,-74.11C416.21,-72.5 428.43,-70.91 440,-69.5 519.6,-59.78 746.01,-36.37 860.28,-24.66"/>
<polygon fill="#63b8ff" stroke="#63b8ff" points="403.8,-70.63 394.37,-75.45 404.75,-77.57 403.8,-70.63"/>
</a>
</g>
</g>
<!-- Node17&#45;&gt;Node18 -->
<g id="edge22_Node000017_Node000018" class="edge">
<title>Node17&#45;&gt;Node18</title>
<g id="a_edge22_Node000017_Node000018"><a xlink:title=" ">
<path fill="none" stroke="#63b8ff" d="M312.56,-66.35C303.55,-53.68 292.06,-37.52 284.86,-27.4"/>
<polygon fill="#63b8ff" stroke="#63b8ff" points="309.6,-68.22 318.25,-74.35 315.3,-64.17 309.6,-68.22"/>
</a>
</g>
</g>
<!-- Node20&#45;&gt;Node8 -->
<g id="edge30_Node000020_Node000008" class="edge">
<title>Node20&#45;&gt;Node8</title>
<g id="a_edge30_Node000020_Node000008"><a xlink:title=" ">
<path fill="none" stroke="#63b8ff" d="M805.5,-213.25C764.32,-205.48 713.86,-192.75 672,-172.5 650.19,-161.95 649.71,-151.57 629,-139 606.31,-125.23 579.34,-112.74 557.44,-103.49"/>
<polygon fill="#63b8ff" stroke="#63b8ff" points="804.63,-216.64 815.1,-214.99 805.88,-209.76 804.63,-216.64"/>
</a>
</g>
</g>
<!-- Node20&#45;&gt;Node16 -->
<g id="edge29_Node000020_Node000016" class="edge">
<title>Node20&#45;&gt;Node16</title>
<g id="a_edge29_Node000020_Node000016"><a xlink:title=" ">
<path fill="none" stroke="#63b8ff" d="M942.02,-203.67C984.77,-184.91 1039.26,-152.49 1062,-103 1068.22,-89.47 1070.42,-81.78 1062,-69.5 1046.84,-47.39 1020.78,-34.72 995.65,-27.47"/>
<polygon fill="#63b8ff" stroke="#63b8ff" points="940.68,-200.44 932.83,-207.56 943.4,-206.89 940.68,-200.44"/>
</a>
</g>
</g>
<!-- Node21 -->
<g id="Node000021" class="node">
<title>Node21</title>
<g id="a_Node000021"><a xlink:href="ExecutionEngineBackend_8h.html" target="_top" xlink:title=" ">
<polygon fill="white" stroke="#666666" points="1052.62,-103 905.38,-103 905.38,-69.5 1052.62,-69.5 1052.62,-103"/>
<text text-anchor="start" x="913.38" y="-89.5" font-family="Helvetica,sans-Serif" font-size="10.00">tools/llzk&#45;witgen/Execution</text>
<text text-anchor="middle" x="979" y="-76.75" font-family="Helvetica,sans-Serif" font-size="10.00">EngineBackend.h</text>
</a>
</g>
</g>
<!-- Node20&#45;&gt;Node21 -->
<g id="edge26_Node000020_Node000021" class="edge">
<title>Node20&#45;&gt;Node21</title>
<g id="a_edge26_Node000020_Node000021"><a xlink:title=" ">
<path fill="none" stroke="#63b8ff" d="M928.27,-202.18C940.16,-194.3 951.94,-184.38 960,-172.5 974.22,-151.54 977.97,-121.65 978.86,-103.4"/>
<polygon fill="#63b8ff" stroke="#63b8ff" points="926.73,-199.01 920.07,-207.25 930.41,-204.96 926.73,-199.01"/>
</a>
</g>
</g>
<!-- Node22 -->
<g id="Node000022" class="node">
<title>Node22</title>
<g id="a_Node000022"><a xlink:href="WitgenUtils_8h.html" target="_top" xlink:title=" ">
<polygon fill="white" stroke="#666666" points="951.25,-172.5 816.75,-172.5 816.75,-139 951.25,-139 951.25,-172.5"/>
<text text-anchor="start" x="824.75" y="-159" font-family="Helvetica,sans-Serif" font-size="10.00">tools/llzk&#45;witgen/Witgen</text>
<text text-anchor="middle" x="884" y="-146.25" font-family="Helvetica,sans-Serif" font-size="10.00">Utils.h</text>
</a>
</g>
</g>
<!-- Node20&#45;&gt;Node22 -->
<g id="edge31_Node000020_Node000022" class="edge">
<title>Node20&#45;&gt;Node22</title>
<g id="a_edge31_Node000020_Node000022"><a xlink:title=" ">
<path fill="none" stroke="#63b8ff" d="M884,-196.81C884,-188.59 884,-179.84 884,-172.63"/>
<polygon fill="#63b8ff" stroke="#63b8ff" points="880.5,-196.74 884,-206.74 887.5,-196.74 880.5,-196.74"/>
</a>
</g>
</g>
<!-- Node24 -->
<g id="Node000024" class="node">
<title>Node24</title>
<g id="a_Node000024"><a xlink:href="WitnessSelection_8h.html" target="_top" xlink:title=" ">
<polygon fill="white" stroke="#666666" points="493.5,-172.5 354.5,-172.5 354.5,-139 493.5,-139 493.5,-172.5"/>
<text text-anchor="start" x="362.5" y="-159" font-family="Helvetica,sans-Serif" font-size="10.00">tools/llzk&#45;witgen/Witness</text>
<text text-anchor="middle" x="424" y="-146.25" font-family="Helvetica,sans-Serif" font-size="10.00">Selection.h</text>
</a>
</g>
</g>
<!-- Node20&#45;&gt;Node24 -->
<g id="edge39_Node000020_Node000024" class="edge">
<title>Node20&#45;&gt;Node24</title>
<g id="a_edge39_Node000020_Node000024"><a xlink:title=" ">
<path fill="none" stroke="#63b8ff" d="M805.42,-212.72C717.87,-199.87 577.65,-179.3 493.82,-167"/>
<polygon fill="#63b8ff" stroke="#63b8ff" points="804.72,-216.15 815.12,-214.14 805.74,-209.23 804.72,-216.15"/>
</a>
</g>
</g>
<!-- Node26 -->
<g id="Node000026" class="node">
<title>Node26</title>
<g id="a_Node000026"><a xlink:href="llzk-witgen_8cpp.html" target="_top" xlink:title=" ">
<polygon fill="white" stroke="#666666" points="798.62,-172.5 681.38,-172.5 681.38,-139 798.62,-139 798.62,-172.5"/>
<text text-anchor="start" x="689.38" y="-159" font-family="Helvetica,sans-Serif" font-size="10.00">tools/llzk&#45;witgen/llzk</text>
<text text-anchor="middle" x="740" y="-146.25" font-family="Helvetica,sans-Serif" font-size="10.00">&#45;witgen.cpp</text>
</a>
</g>
</g>
<!-- Node20&#45;&gt;Node26 -->
<g id="edge46_Node000020_Node000026" class="edge">
<title>Node20&#45;&gt;Node26</title>
<g id="a_edge46_Node000020_Node000026"><a xlink:title=" ">
<path fill="none" stroke="#63b8ff" d="M839.23,-203.26C818.25,-193.43 793.66,-181.91 774.21,-172.79"/>
<polygon fill="#63b8ff" stroke="#63b8ff" points="837.6,-206.36 848.14,-207.44 840.57,-200.03 837.6,-206.36"/>
</a>
</g>
</g>
<!-- Node21&#45;&gt;Node14 -->
<g id="edge27_Node000021_Node000014" class="edge">
<title>Node21&#45;&gt;Node14</title>
<g id="a_edge27_Node000021_Node000014"><a xlink:title=" ">
<path fill="none" stroke="#63b8ff" d="M898.04,-66.54C853.8,-56.31 799.55,-43.77 757.13,-33.96"/>
<polygon fill="#63b8ff" stroke="#63b8ff" points="897.05,-69.9 907.58,-68.74 898.63,-63.08 897.05,-69.9"/>
</a>
</g>
</g>
<!-- Node21&#45;&gt;Node16 -->
<g id="edge28_Node000021_Node000016" class="edge">
<title>Node21&#45;&gt;Node16</title>
<g id="a_edge28_Node000021_Node000016"><a xlink:title=" ">
<path fill="none" stroke="#63b8ff" d="M959.99,-60.09C953.29,-51.23 945.96,-41.52 940,-33.63"/>
<polygon fill="#63b8ff" stroke="#63b8ff" points="957.18,-62.18 966,-68.05 962.77,-57.96 957.18,-62.18"/>
</a>
</g>
</g>
<!-- Node22&#45;&gt;Node7 -->
<g id="edge33_Node000022_Node000007" class="edge">
<title>Node22&#45;&gt;Node7</title>
<g id="a_edge33_Node000022_Node000007"><a xlink:title=" ">
<path fill="none" stroke="#63b8ff" d="M962.66,-137.68C1021.81,-124.84 1100.78,-107.7 1149.74,-97.07"/>
<polygon fill="#63b8ff" stroke="#63b8ff" points="961.99,-134.24 952.96,-139.78 963.48,-141.08 961.99,-134.24"/>
</a>
</g>
</g>
<!-- Node22&#45;&gt;Node8 -->
<g id="edge37_Node000022_Node000008" class="edge">
<title>Node22&#45;&gt;Node8</title>
<g id="a_edge37_Node000022_Node000008"><a xlink:title=" ">
<path fill="none" stroke="#63b8ff" d="M805.44,-138.55C712.65,-121.23 687.11,-119.45 597,-103 592.63,-102.2 588.13,-101.37 583.6,-100.52"/>
<polygon fill="#63b8ff" stroke="#63b8ff" points="804.52,-141.94 814.99,-140.35 805.81,-135.06 804.52,-141.94"/>
</a>
</g>
</g>
<!-- Node22&#45;&gt;Node14 -->
<g id="edge32_Node000022_Node000014" class="edge">
<title>Node22&#45;&gt;Node14</title>
<g id="a_edge32_Node000022_Node000014"><a xlink:title=" ">
<path fill="none" stroke="#63b8ff" d="M805.49,-135.85C761.23,-124.51 713.33,-110.82 706,-103 688.36,-84.2 685.77,-52.78 686.02,-33.78"/>
<polygon fill="#63b8ff" stroke="#63b8ff" points="804.62,-139.24 815.17,-138.3 806.34,-132.45 804.62,-139.24"/>
</a>
</g>
</g>
<!-- Node22&#45;&gt;Node16 -->
<g id="edge36_Node000022_Node000016" class="edge">
<title>Node22&#45;&gt;Node16</title>
<g id="a_edge36_Node000022_Node000016"><a xlink:title=" ">
<path fill="none" stroke="#63b8ff" d="M885,-127.17C886.31,-110.13 889.3,-88.05 896,-69.5 900.67,-56.59 908.85,-43.44 915.77,-33.63"/>
<polygon fill="#63b8ff" stroke="#63b8ff" points="881.51,-126.86 884.4,-137.05 888.5,-127.28 881.51,-126.86"/>
</a>
</g>
</g>
<!-- Node22&#45;&gt;Node18 -->
<g id="edge34_Node000022_Node000018" class="edge">
<title>Node22&#45;&gt;Node18</title>
<g id="a_edge34_Node000022_Node000018"><a xlink:title=" ">
<path fill="none" stroke="#63b8ff" d="M805.59,-135.92C769.04,-126.72 725.08,-115.05 686,-103 643.62,-89.94 634.94,-80.59 592,-69.5 510.42,-48.42 414.61,-34.09 350.47,-25.95"/>
<polygon fill="#63b8ff" stroke="#63b8ff" points="804.67,-139.3 815.22,-138.33 806.37,-132.51 804.67,-139.3"/>
</a>
</g>
</g>
<!-- Node22&#45;&gt;Node19 -->
<g id="edge35_Node000022_Node000019" class="edge">
<title>Node22&#45;&gt;Node19</title>
<g id="a_edge35_Node000022_Node000019"><a xlink:title=" ">
<path fill="none" stroke="#63b8ff" d="M962.9,-145.57C1071.86,-132.89 1267.57,-110.11 1379.44,-97.09"/>
<polygon fill="#63b8ff" stroke="#63b8ff" points="962.7,-142.07 953.17,-146.7 963.51,-149.02 962.7,-142.07"/>
</a>
</g>
</g>
<!-- Node23 -->
<g id="Node000023" class="node">
<title>Node23</title>
<g id="a_Node000023"><a xlink:href="WitgenUtils_8cpp.html" target="_top" xlink:title=" ">
<polygon fill="white" stroke="#666666" points="849.25,-103 714.75,-103 714.75,-69.5 849.25,-69.5 849.25,-103"/>
<text text-anchor="start" x="722.75" y="-89.5" font-family="Helvetica,sans-Serif" font-size="10.00">tools/llzk&#45;witgen/Witgen</text>
<text text-anchor="middle" x="782" y="-76.75" font-family="Helvetica,sans-Serif" font-size="10.00">Utils.cpp</text>
</a>
</g>
</g>
<!-- Node22&#45;&gt;Node23 -->
<g id="edge38_Node000022_Node000023" class="edge">
<title>Node22&#45;&gt;Node23</title>
<g id="a_edge38_Node000022_Node000023"><a xlink:title=" ">
<path fill="none" stroke="#63b8ff" d="M850.03,-132.27C835.69,-122.78 819.32,-111.95 806.23,-103.29"/>
<polygon fill="#63b8ff" stroke="#63b8ff" points="848.04,-135.15 858.31,-137.75 851.9,-129.31 848.04,-135.15"/>
</a>
</g>
</g>
<!-- Node24&#45;&gt;Node8 -->
<g id="edge44_Node000024_Node000008" class="edge">
<title>Node24&#45;&gt;Node8</title>
<g id="a_edge44_Node000024_Node000008"><a xlink:title=" ">
<path fill="none" stroke="#63b8ff" d="M454.78,-132.16C467.64,-122.73 482.29,-111.98 494.03,-103.37"/>
<polygon fill="#63b8ff" stroke="#63b8ff" points="453.02,-129.12 447.02,-137.86 457.16,-134.76 453.02,-129.12"/>
</a>
</g>
</g>
<!-- Node24&#45;&gt;Node14 -->
<g id="edge40_Node000024_Node000014" class="edge">
<title>Node24&#45;&gt;Node14</title>
<g id="a_edge40_Node000024_Node000014"><a xlink:title=" ">
<path fill="none" stroke="#63b8ff" d="M421.79,-127.16C421.87,-108.46 425.31,-84.5 440,-69.5 463.76,-45.24 549.29,-31.39 613.09,-24.23"/>
<polygon fill="#63b8ff" stroke="#63b8ff" points="418.29,-127.14 422.09,-137.03 425.29,-126.93 418.29,-127.14"/>
</a>
</g>
</g>
<!-- Node24&#45;&gt;Node16 -->
<g id="edge43_Node000024_Node000016" class="edge">
<title>Node24&#45;&gt;Node16</title>
<g id="a_edge43_Node000024_Node000016"><a xlink:title=" ">
<path fill="none" stroke="#63b8ff" d="M487.93,-135.19C564.37,-111.83 684.72,-75.19 706,-69.5 757.61,-55.7 816.53,-42.06 860.69,-32.25"/>
<polygon fill="#63b8ff" stroke="#63b8ff" points="486.97,-131.82 478.43,-138.09 489.02,-138.51 486.97,-131.82"/>
</a>
</g>
</g>
<!-- Node24&#45;&gt;Node17 -->
<g id="edge42_Node000024_Node000017" class="edge">
<title>Node24&#45;&gt;Node17</title>
<g id="a_edge42_Node000024_Node000017"><a xlink:title=" ">
<path fill="none" stroke="#63b8ff" d="M391.51,-132.37C374.15,-120.41 353.64,-106.29 340.26,-97.07"/>
<polygon fill="#63b8ff" stroke="#63b8ff" points="389.31,-135.1 399.53,-137.89 393.28,-129.34 389.31,-135.1"/>
</a>
</g>
</g>
<!-- Node24&#45;&gt;Node18 -->
<g id="edge41_Node000024_Node000018" class="edge">
<title>Node24&#45;&gt;Node18</title>
<g id="a_edge41_Node000024_Node000018"><a xlink:title=" ">
<path fill="none" stroke="#63b8ff" d="M342.97,-140.32C303.38,-131.45 261.76,-118.76 250,-103 232.4,-79.4 256.05,-44.18 269.63,-27.36"/>
<polygon fill="#63b8ff" stroke="#63b8ff" points="342.07,-143.7 352.58,-142.4 343.55,-136.86 342.07,-143.7"/>
</a>
</g>
</g>
<!-- Node24&#45;&gt;Node25 -->
<g id="edge45_Node000024_Node000025" class="edge">
<title>Node24&#45;&gt;Node25</title>
<g id="a_edge45_Node000024_Node000025"><a xlink:title=" ">
<path fill="none" stroke="#63b8ff" d="M343.32,-136.04C299.23,-125.81 245.16,-113.27 202.89,-103.46"/>
<polygon fill="#63b8ff" stroke="#63b8ff" points="342.29,-139.39 352.82,-138.24 343.87,-132.57 342.29,-139.39"/>
</a>
</g>
</g>
</g>
</svg>
