<?xml version="1.0" encoding="UTF-8" standalone="no"?>
<!DOCTYPE svg PUBLIC "-//W3C//DTD SVG 1.1//EN"
 "http://www.w3.org/Graphics/SVG/1.1/DTD/svg11.dtd">
<!-- Generated by graphviz version 12.2.1 (0)
 -->
<!-- Title: include/llzk/Dialect/POD/Transforms/TransformationPasses.h Pages: 1 -->
<svg width="426pt" height="124pt"
 viewBox="0.00 0.00 425.62 123.75" xmlns="http://www.w3.org/2000/svg" xmlns:xlink="http://www.w3.org/1999/xlink">
<g id="graph0" class="graph" transform="scale(1 1) rotate(0) translate(4 119.75)">
<title>include/llzk/Dialect/POD/Transforms/TransformationPasses.h</title>
<!-- Node1 -->
<g id="Node000001" class="node">
<title>Node1</title>
<g id="a_Node000001"><a xlink:title=" ">
<polygon fill="#999999" stroke="#666666" points="313.38,-115.75 139.88,-115.75 139.88,-69.5 313.38,-69.5 313.38,-115.75"/>
<text text-anchor="start" x="147.88" y="-102.25" font-family="Helvetica,sans-Serif" font-size="10.00">include/llzk/Dialect</text>
<text text-anchor="start" x="147.88" y="-89.5" font-family="Helvetica,sans-Serif" font-size="10.00">/POD/Transforms/Transformation</text>
<text text-anchor="middle" x="226.62" y="-76.75" font-family="Helvetica,sans-Serif" font-size="10.00">Passes.h</text>
</a>
</g>
</g>
<!-- Node2 -->
<g id="Node000002" class="node">
<title>Node2</title>
<g id="a_Node000002"><a xlink:href="POD_8cpp.html" target="_top" xlink:title=" ">
<polygon fill="white" stroke="#666666" points="135.25,-27.12 0,-27.12 0,-6.38 135.25,-6.38 135.25,-27.12"/>
<text text-anchor="middle" x="67.62" y="-13.62" font-family="Helvetica,sans-Serif" font-size="10.00">lib/CAPI/Dialect/POD.cpp</text>
</a>
</g>
</g>
<!-- Node1&#45;&gt;Node2 -->
<g id="edge1_Node000001_Node000002" class="edge">
<title>Node1&#45;&gt;Node2</title>
<g id="a_edge1_Node000001_Node000002"><a xlink:title=" ">
<path fill="none" stroke="#63b8ff" d="M167.64,-64.22C139.92,-51.34 108.64,-36.81 88.55,-27.47"/>
<polygon fill="#63b8ff" stroke="#63b8ff" points="166.14,-67.38 176.68,-68.42 169.09,-61.03 166.14,-67.38"/>
</a>
</g>
</g>
<!-- Node3 -->
<g id="Node000003" class="node">
<title>Node3</title>
<g id="a_Node000003"><a xlink:href="PodToScalarPass_8cpp.html" target="_top" xlink:title="This file implements the &#45;llzk&#45;pod&#45;to&#45;scalar pass.">
<polygon fill="white" stroke="#666666" points="299.88,-33.5 153.38,-33.5 153.38,0 299.88,0 299.88,-33.5"/>
<text text-anchor="start" x="161.38" y="-20" font-family="Helvetica,sans-Serif" font-size="10.00">lib/Dialect/POD/Transforms</text>
<text text-anchor="middle" x="226.62" y="-7.25" font-family="Helvetica,sans-Serif" font-size="10.00">/PodToScalarPass.cpp</text>
</a>
</g>
</g>
<!-- Node1&#45;&gt;Node3 -->
<g id="edge2_Node000001_Node000003" class="edge">
<title>Node1&#45;&gt;Node3</title>
<g id="a_edge2_Node000001_Node000003"><a xlink:title=" ">
<path fill="none" stroke="#63b8ff" d="M226.62,-57.64C226.62,-49.35 226.62,-40.86 226.62,-33.85"/>
<polygon fill="#63b8ff" stroke="#63b8ff" points="223.13,-57.55 226.63,-67.55 230.13,-57.55 223.13,-57.55"/>
</a>
</g>
</g>
<!-- Node4 -->
<g id="Node000004" class="node">
<title>Node4</title>
<g id="a_Node000004"><a xlink:href="llzk-opt_8cpp.html" target="_top" xlink:title="This file implements a version of the mlir&#45;opt tool configured for use on LLZK files.">
<polygon fill="white" stroke="#666666" points="417.62,-33.5 317.62,-33.5 317.62,0 417.62,0 417.62,-33.5"/>
<text text-anchor="start" x="325.62" y="-20" font-family="Helvetica,sans-Serif" font-size="10.00">tools/llzk&#45;opt/llzk</text>
<text text-anchor="middle" x="367.62" y="-7.25" font-family="Helvetica,sans-Serif" font-size="10.00">&#45;opt.cpp</text>
</a>
</g>
</g>
<!-- Node1&#45;&gt;Node4 -->
<g id="edge3_Node000001_Node000004" class="edge">
<title>Node1&#45;&gt;Node4</title>
<g id="a_edge3_Node000001_Node000004"><a xlink:title=" ">
<path fill="none" stroke="#63b8ff" d="M279.87,-63.73C299.12,-53.64 320.21,-42.59 336.89,-33.85"/>
<polygon fill="#63b8ff" stroke="#63b8ff" points="278.27,-60.61 271.04,-68.36 281.52,-66.82 278.27,-60.61"/>
</a>
</g>
</g>
</g>
</svg>
