<?xml version="1.0" encoding="UTF-8" standalone="no"?>
<!DOCTYPE svg PUBLIC "-//W3C//DTD SVG 1.1//EN"
 "http://www.w3.org/Graphics/SVG/1.1/DTD/svg11.dtd">
<!-- Generated by graphviz version 12.2.1 (0)
 -->
<!-- Title: build/include/llzk/Dialect/POD/IR/Ops.h.inc Pages: 1 -->
<svg width="726pt" height="181pt"
 viewBox="0.00 0.00 725.88 180.50" xmlns="http://www.w3.org/2000/svg" xmlns:xlink="http://www.w3.org/1999/xlink">
<g id="graph0" class="graph" transform="scale(1 1) rotate(0) translate(4 176.5)">
<title>build/include/llzk/Dialect/POD/IR/Ops.h.inc</title>
<!-- Node1 -->
<g id="Node000001" class="node">
<title>Node1</title>
<g id="a_Node000001"><a xlink:title=" ">
<polygon fill="#999999" stroke="#666666" points="393.75,-172.5 255.5,-172.5 255.5,-139 393.75,-139 393.75,-172.5"/>
<text text-anchor="start" x="263.5" y="-159" font-family="Helvetica,sans-Serif" font-size="10.00">build/include/llzk</text>
<text text-anchor="middle" x="324.62" y="-146.25" font-family="Helvetica,sans-Serif" font-size="10.00">/Dialect/POD/IR/Ops.h.inc</text>
</a>
</g>
</g>
<!-- Node2 -->
<g id="Node000002" class="node">
<title>Node2</title>
<g id="a_Node000002"><a xlink:href="POD_2IR_2Ops_8h.html" target="_top" xlink:title=" ">
<polygon fill="white" stroke="#666666" points="379.12,-103 270.12,-103 270.12,-69.5 379.12,-69.5 379.12,-103"/>
<text text-anchor="start" x="278.12" y="-89.5" font-family="Helvetica,sans-Serif" font-size="10.00">include/llzk/Dialect</text>
<text text-anchor="middle" x="324.62" y="-76.75" font-family="Helvetica,sans-Serif" font-size="10.00">/POD/IR/Ops.h</text>
</a>
</g>
</g>
<!-- Node1&#45;&gt;Node2 -->
<g id="edge1_Node000001_Node000002" class="edge">
<title>Node1&#45;&gt;Node2</title>
<g id="a_edge1_Node000001_Node000002"><a xlink:title=" ">
<path fill="none" stroke="#63b8ff" d="M324.62,-127.31C324.62,-119.09 324.62,-110.34 324.62,-103.13"/>
<polygon fill="#63b8ff" stroke="#63b8ff" points="321.13,-127.24 324.63,-137.24 328.13,-127.24 321.13,-127.24"/>
</a>
</g>
</g>
<!-- Node3 -->
<g id="Node000003" class="node">
<title>Node3</title>
<g id="a_Node000003"><a xlink:href="POD_8cpp.html" target="_top" xlink:title=" ">
<polygon fill="white" stroke="#666666" points="135.25,-27.12 0,-27.12 0,-6.38 135.25,-6.38 135.25,-27.12"/>
<text text-anchor="middle" x="67.62" y="-13.62" font-family="Helvetica,sans-Serif" font-size="10.00">lib/CAPI/Dialect/POD.cpp</text>
</a>
</g>
</g>
<!-- Node2&#45;&gt;Node3 -->
<g id="edge2_Node000002_Node000003" class="edge">
<title>Node2&#45;&gt;Node3</title>
<g id="a_edge2_Node000002_Node000003"><a xlink:title=" ">
<path fill="none" stroke="#63b8ff" d="M258.71,-67.94C209.89,-55.11 145.12,-38.1 104.93,-27.55"/>
<polygon fill="#63b8ff" stroke="#63b8ff" points="257.78,-71.31 268.34,-70.47 259.56,-64.54 257.78,-71.31"/>
</a>
</g>
</g>
<!-- Node4 -->
<g id="Node000004" class="node">
<title>Node4</title>
<g id="a_Node000004"><a xlink:href="POD_2IR_2Dialect_8cpp.html" target="_top" xlink:title=" ">
<polygon fill="white" stroke="#666666" points="255.75,-33.5 153.5,-33.5 153.5,0 255.75,0 255.75,-33.5"/>
<text text-anchor="start" x="161.5" y="-20" font-family="Helvetica,sans-Serif" font-size="10.00">lib/Dialect/POD/IR</text>
<text text-anchor="middle" x="204.62" y="-7.25" font-family="Helvetica,sans-Serif" font-size="10.00">/Dialect.cpp</text>
</a>
</g>
</g>
<!-- Node2&#45;&gt;Node4 -->
<g id="edge3_Node000002_Node000004" class="edge">
<title>Node2&#45;&gt;Node4</title>
<g id="a_edge3_Node000002_Node000004"><a xlink:title=" ">
<path fill="none" stroke="#63b8ff" d="M286.11,-63.59C268.9,-53.91 248.97,-42.7 233.13,-33.79"/>
<polygon fill="#63b8ff" stroke="#63b8ff" points="284.13,-66.49 294.56,-68.34 287.56,-60.39 284.13,-66.49"/>
</a>
</g>
</g>
<!-- Node5 -->
<g id="Node000005" class="node">
<title>Node5</title>
<g id="a_Node000005"><a xlink:href="POD_2IR_2Ops_8cpp.html" target="_top" xlink:title=" ">
<polygon fill="white" stroke="#666666" points="375.75,-33.5 273.5,-33.5 273.5,0 375.75,0 375.75,-33.5"/>
<text text-anchor="start" x="281.5" y="-20" font-family="Helvetica,sans-Serif" font-size="10.00">lib/Dialect/POD/IR</text>
<text text-anchor="middle" x="324.62" y="-7.25" font-family="Helvetica,sans-Serif" font-size="10.00">/Ops.cpp</text>
</a>
</g>
</g>
<!-- Node2&#45;&gt;Node5 -->
<g id="edge4_Node000002_Node000005" class="edge">
<title>Node2&#45;&gt;Node5</title>
<g id="a_edge4_Node000002_Node000005"><a xlink:title=" ">
<path fill="none" stroke="#63b8ff" d="M324.62,-57.81C324.62,-49.59 324.62,-40.84 324.62,-33.63"/>
<polygon fill="#63b8ff" stroke="#63b8ff" points="321.13,-57.74 324.63,-67.74 328.13,-57.74 321.13,-57.74"/>
</a>
</g>
</g>
<!-- Node6 -->
<g id="Node000006" class="node">
<title>Node6</title>
<g id="a_Node000006"><a xlink:href="Interpreter_8cpp.html" target="_top" xlink:title=" ">
<polygon fill="white" stroke="#666666" points="565.25,-27.12 394,-27.12 394,-6.38 565.25,-6.38 565.25,-27.12"/>
<text text-anchor="middle" x="479.62" y="-13.62" font-family="Helvetica,sans-Serif" font-size="10.00">tools/llzk&#45;witgen/Interpreter.cpp</text>
</a>
</g>
</g>
<!-- Node2&#45;&gt;Node6 -->
<g id="edge5_Node000002_Node000006" class="edge">
<title>Node2&#45;&gt;Node6</title>
<g id="a_edge5_Node000002_Node000006"><a xlink:title=" ">
<path fill="none" stroke="#63b8ff" d="M372.24,-64.51C400.51,-52.2 435.05,-37.16 457.19,-27.52"/>
<polygon fill="#63b8ff" stroke="#63b8ff" points="370.91,-61.28 363.14,-68.48 373.7,-67.69 370.91,-61.28"/>
</a>
</g>
</g>
<!-- Node7 -->
<g id="Node000007" class="node">
<title>Node7</title>
<g id="a_Node000007"><a xlink:href="WitgenLowering_8cpp.html" target="_top" xlink:title=" ">
<polygon fill="white" stroke="#666666" points="717.88,-33.5 583.38,-33.5 583.38,0 717.88,0 717.88,-33.5"/>
<text text-anchor="start" x="591.38" y="-20" font-family="Helvetica,sans-Serif" font-size="10.00">tools/llzk&#45;witgen/Witgen</text>
<text text-anchor="middle" x="650.62" y="-7.25" font-family="Helvetica,sans-Serif" font-size="10.00">Lowering.cpp</text>
</a>
</g>
</g>
<!-- Node2&#45;&gt;Node7 -->
<g id="edge6_Node000002_Node000007" class="edge">
<title>Node2&#45;&gt;Node7</title>
<g id="a_edge6_Node000002_Node000007"><a xlink:title=" ">
<path fill="none" stroke="#63b8ff" d="M390.32,-71.66C440.74,-61.22 512.08,-46.45 574.62,-33.5 577.4,-32.93 580.22,-32.34 583.08,-31.75"/>
<polygon fill="#63b8ff" stroke="#63b8ff" points="389.81,-68.19 380.73,-73.64 391.23,-75.04 389.81,-68.19"/>
</a>
</g>
</g>
</g>
</svg>
