<?xml version="1.0" encoding="UTF-8" standalone="no"?>
<!DOCTYPE svg PUBLIC "-//W3C//DTD SVG 1.1//EN"
 "http://www.w3.org/Graphics/SVG/1.1/DTD/svg11.dtd">
<!-- Generated by graphviz version 12.2.1 (0)
 -->
<!-- Title: include/llzk/Dialect/POD/IR/Ops.h Pages: 1 -->
<svg width="1800pt" height="263pt"
 viewBox="0.00 0.00 1800.25 262.75" xmlns="http://www.w3.org/2000/svg" xmlns:xlink="http://www.w3.org/1999/xlink">
<g id="graph0" class="graph" transform="scale(1 1) rotate(0) translate(4 258.75)">
<title>include/llzk/Dialect/POD/IR/Ops.h</title>
<!-- Node1 -->
<g id="Node000001" class="node">
<title>Node1</title>
<g id="a_Node000001"><a xlink:title=" ">
<polygon fill="#999999" stroke="#666666" points="1184.5,-254.75 1075.5,-254.75 1075.5,-221.25 1184.5,-221.25 1184.5,-254.75"/>
<text text-anchor="start" x="1083.5" y="-241.25" font-family="Helvetica,sans-Serif" font-size="10.00">include/llzk/Dialect</text>
<text text-anchor="middle" x="1130" y="-228.5" font-family="Helvetica,sans-Serif" font-size="10.00">/POD/IR/Ops.h</text>
</a>
</g>
</g>
<!-- Node2 -->
<g id="Node000002" class="node">
<title>Node2</title>
<g id="a_Node000002"><a xlink:href="TypeConversionPatterns_8h.html" target="_top" xlink:title="Reusable MLIR dialect conversion functions for LLZK StructType replacement.">
<polygon fill="white" stroke="#666666" points="715.88,-185.25 534.12,-185.25 534.12,-151.75 715.88,-151.75 715.88,-185.25"/>
<text text-anchor="start" x="542.12" y="-171.75" font-family="Helvetica,sans-Serif" font-size="10.00">include/llzk/Dialect</text>
<text text-anchor="middle" x="625" y="-159" font-family="Helvetica,sans-Serif" font-size="10.00">/Shared/TypeConversionPatterns.h</text>
</a>
</g>
</g>
<!-- Node1&#45;&gt;Node2 -->
<g id="edge1_Node000001_Node000002" class="edge">
<title>Node1&#45;&gt;Node2</title>
<g id="a_edge1_Node000001_Node000002"><a xlink:title=" ">
<path fill="none" stroke="#63b8ff" d="M1063.83,-229.15C983.58,-219.48 844.22,-202.25 725,-185.25 722.13,-184.84 719.21,-184.42 716.27,-183.99"/>
<polygon fill="#63b8ff" stroke="#63b8ff" points="1063.38,-232.62 1073.73,-230.33 1064.22,-225.67 1063.38,-232.62"/>
</a>
</g>
</g>
<!-- Node9 -->
<g id="Node000009" class="node">
<title>Node9</title>
<g id="a_Node000009"><a xlink:href="POD_8cpp.html" target="_top" xlink:title=" ">
<polygon fill="white" stroke="#666666" points="869.62,-178.88 734.38,-178.88 734.38,-158.12 869.62,-158.12 869.62,-178.88"/>
<text text-anchor="middle" x="802" y="-165.38" font-family="Helvetica,sans-Serif" font-size="10.00">lib/CAPI/Dialect/POD.cpp</text>
</a>
</g>
</g>
<!-- Node1&#45;&gt;Node9 -->
<g id="edge9_Node000001_Node000009" class="edge">
<title>Node1&#45;&gt;Node9</title>
<g id="a_edge9_Node000001_Node000009"><a xlink:title=" ">
<path fill="none" stroke="#63b8ff" d="M1064.03,-223.42C1000.64,-210.38 906.37,-190.98 849.87,-179.35"/>
<polygon fill="#63b8ff" stroke="#63b8ff" points="1063.12,-226.81 1073.62,-225.4 1064.53,-219.95 1063.12,-226.81"/>
</a>
</g>
</g>
<!-- Node10 -->
<g id="Node000010" class="node">
<title>Node10</title>
<g id="a_Node000010"><a xlink:href="POD_2IR_2Dialect_8cpp.html" target="_top" xlink:title=" ">
<polygon fill="white" stroke="#666666" points="990.12,-185.25 887.88,-185.25 887.88,-151.75 990.12,-151.75 990.12,-185.25"/>
<text text-anchor="start" x="895.88" y="-171.75" font-family="Helvetica,sans-Serif" font-size="10.00">lib/Dialect/POD/IR</text>
<text text-anchor="middle" x="939" y="-159" font-family="Helvetica,sans-Serif" font-size="10.00">/Dialect.cpp</text>
</a>
</g>
</g>
<!-- Node1&#45;&gt;Node10 -->
<g id="edge10_Node000001_Node000010" class="edge">
<title>Node1&#45;&gt;Node10</title>
<g id="a_edge10_Node000001_Node000010"><a xlink:title=" ">
<path fill="none" stroke="#63b8ff" d="M1073.69,-217.1C1045.34,-207.08 1011.41,-195.09 984.71,-185.65"/>
<polygon fill="#63b8ff" stroke="#63b8ff" points="1072.23,-220.3 1082.82,-220.33 1074.56,-213.7 1072.23,-220.3"/>
</a>
</g>
</g>
<!-- Node11 -->
<g id="Node000011" class="node">
<title>Node11</title>
<g id="a_Node000011"><a xlink:href="POD_2IR_2Ops_8cpp.html" target="_top" xlink:title=" ">
<polygon fill="white" stroke="#666666" points="1110.12,-185.25 1007.88,-185.25 1007.88,-151.75 1110.12,-151.75 1110.12,-185.25"/>
<text text-anchor="start" x="1015.88" y="-171.75" font-family="Helvetica,sans-Serif" font-size="10.00">lib/Dialect/POD/IR</text>
<text text-anchor="middle" x="1059" y="-159" font-family="Helvetica,sans-Serif" font-size="10.00">/Ops.cpp</text>
</a>
</g>
</g>
<!-- Node1&#45;&gt;Node11 -->
<g id="edge11_Node000001_Node000011" class="edge">
<title>Node1&#45;&gt;Node11</title>
<g id="a_edge11_Node000001_Node000011"><a xlink:title=" ">
<path fill="none" stroke="#63b8ff" d="M1105.02,-213.25C1095.31,-204.02 1084.44,-193.69 1075.71,-185.38"/>
<polygon fill="#63b8ff" stroke="#63b8ff" points="1102.42,-215.61 1112.08,-219.96 1107.24,-210.53 1102.42,-215.61"/>
</a>
</g>
</g>
<!-- Node12 -->
<g id="Node000012" class="node">
<title>Node12</title>
<g id="a_Node000012"><a xlink:href="PodToScalarPass_8cpp.html" target="_top" xlink:title="This file implements the &#45;llzk&#45;pod&#45;to&#45;scalar pass.">
<polygon fill="white" stroke="#666666" points="1274.25,-185.25 1127.75,-185.25 1127.75,-151.75 1274.25,-151.75 1274.25,-185.25"/>
<text text-anchor="start" x="1135.75" y="-171.75" font-family="Helvetica,sans-Serif" font-size="10.00">lib/Dialect/POD/Transforms</text>
<text text-anchor="middle" x="1201" y="-159" font-family="Helvetica,sans-Serif" font-size="10.00">/PodToScalarPass.cpp</text>
</a>
</g>
</g>
<!-- Node1&#45;&gt;Node12 -->
<g id="edge12_Node000001_Node000012" class="edge">
<title>Node1&#45;&gt;Node12</title>
<g id="a_edge12_Node000001_Node000012"><a xlink:title=" ">
<path fill="none" stroke="#63b8ff" d="M1154.98,-213.25C1164.69,-204.02 1175.56,-193.69 1184.29,-185.38"/>
<polygon fill="#63b8ff" stroke="#63b8ff" points="1152.76,-210.53 1147.92,-219.96 1157.58,-215.61 1152.76,-210.53"/>
</a>
</g>
</g>
<!-- Node13 -->
<g id="Node000013" class="node">
<title>Node13</title>
<g id="a_Node000013"><a xlink:href="SymbolTableLLZK_8cpp.html" target="_top" xlink:title="This is a selection of code from mlir/lib/IR/SymbolTable.cpp to support a modified version of walkSym...">
<polygon fill="white" stroke="#666666" points="1449.88,-178.88 1292.12,-178.88 1292.12,-158.12 1449.88,-158.12 1449.88,-178.88"/>
<text text-anchor="middle" x="1371" y="-165.38" font-family="Helvetica,sans-Serif" font-size="10.00">lib/Util/SymbolTableLLZK.cpp</text>
</a>
</g>
</g>
<!-- Node1&#45;&gt;Node13 -->
<g id="edge13_Node000001_Node000013" class="edge">
<title>Node1&#45;&gt;Node13</title>
<g id="a_edge13_Node000001_Node000013"><a xlink:title=" ">
<path fill="none" stroke="#63b8ff" d="M1195.9,-218.54C1241.15,-205.87 1299.43,-189.55 1336.01,-179.3"/>
<polygon fill="#63b8ff" stroke="#63b8ff" points="1195.13,-215.12 1186.45,-221.19 1197.02,-221.86 1195.13,-215.12"/>
</a>
</g>
</g>
<!-- Node14 -->
<g id="Node000014" class="node">
<title>Node14</title>
<g id="a_Node000014"><a xlink:href="Interpreter_8cpp.html" target="_top" xlink:title=" ">
<polygon fill="white" stroke="#666666" points="1639.62,-178.88 1468.38,-178.88 1468.38,-158.12 1639.62,-158.12 1639.62,-178.88"/>
<text text-anchor="middle" x="1554" y="-165.38" font-family="Helvetica,sans-Serif" font-size="10.00">tools/llzk&#45;witgen/Interpreter.cpp</text>
</a>
</g>
</g>
<!-- Node1&#45;&gt;Node14 -->
<g id="edge14_Node000001_Node000014" class="edge">
<title>Node1&#45;&gt;Node14</title>
<g id="a_edge14_Node000001_Node000014"><a xlink:title=" ">
<path fill="none" stroke="#63b8ff" d="M1195.87,-226.8C1262.31,-216.48 1367.81,-199.98 1459,-185.25 1470.64,-183.37 1483.07,-181.33 1494.97,-179.36"/>
<polygon fill="#63b8ff" stroke="#63b8ff" points="1195.58,-223.31 1186.24,-228.3 1196.66,-230.22 1195.58,-223.31"/>
</a>
</g>
</g>
<!-- Node15 -->
<g id="Node000015" class="node">
<title>Node15</title>
<g id="a_Node000015"><a xlink:href="WitgenLowering_8cpp.html" target="_top" xlink:title=" ">
<polygon fill="white" stroke="#666666" points="1792.25,-185.25 1657.75,-185.25 1657.75,-151.75 1792.25,-151.75 1792.25,-185.25"/>
<text text-anchor="start" x="1665.75" y="-171.75" font-family="Helvetica,sans-Serif" font-size="10.00">tools/llzk&#45;witgen/Witgen</text>
<text text-anchor="middle" x="1725" y="-159" font-family="Helvetica,sans-Serif" font-size="10.00">Lowering.cpp</text>
</a>
</g>
</g>
<!-- Node1&#45;&gt;Node15 -->
<g id="edge15_Node000001_Node000015" class="edge">
<title>Node1&#45;&gt;Node15</title>
<g id="a_edge15_Node000001_Node000015"><a xlink:title=" ">
<path fill="none" stroke="#63b8ff" d="M1196.08,-232.64C1294.97,-225.62 1487.13,-210.02 1649,-185.25 1651.8,-184.82 1654.65,-184.36 1657.52,-183.87"/>
<polygon fill="#63b8ff" stroke="#63b8ff" points="1196.02,-229.14 1186.29,-233.33 1196.51,-236.12 1196.02,-229.14"/>
</a>
</g>
</g>
<!-- Node3 -->
<g id="Node000003" class="node">
<title>Node3</title>
<g id="a_Node000003"><a xlink:href="SharedImpl_8h.html" target="_top" xlink:title="Common private implementation for poly dialect passes.">
<polygon fill="white" stroke="#666666" points="546.25,-115.75 405.75,-115.75 405.75,-82.25 546.25,-82.25 546.25,-115.75"/>
<text text-anchor="start" x="413.75" y="-102.25" font-family="Helvetica,sans-Serif" font-size="10.00">lib/Dialect/Polymorphic</text>
<text text-anchor="middle" x="476" y="-89.5" font-family="Helvetica,sans-Serif" font-size="10.00">/Transforms/SharedImpl.h</text>
</a>
</g>
</g>
<!-- Node2&#45;&gt;Node3 -->
<g id="edge2_Node000002_Node000003" class="edge">
<title>Node2&#45;&gt;Node3</title>
<g id="a_edge2_Node000002_Node000003"><a xlink:title=" ">
<path fill="none" stroke="#63b8ff" d="M579.01,-146.67C557.33,-136.84 531.85,-125.3 511.66,-116.15"/>
<polygon fill="#63b8ff" stroke="#63b8ff" points="577.38,-149.77 587.93,-150.71 580.27,-143.39 577.38,-149.77"/>
</a>
</g>
</g>
<!-- Node7 -->
<g id="Node000007" class="node">
<title>Node7</title>
<g id="a_Node000007"><a xlink:href="WildcardArraySpecializationPass_8cpp.html" target="_top" xlink:title="This file implements the &#45;llzk&#45;specialize&#45;wildcard&#45;arrays pass.">
<polygon fill="white" stroke="#666666" points="783.62,-46.25 570.38,-46.25 570.38,0 783.62,0 783.62,-46.25"/>
<text text-anchor="start" x="578.38" y="-32.75" font-family="Helvetica,sans-Serif" font-size="10.00">lib/Dialect/Polymorphic</text>
<text text-anchor="start" x="578.38" y="-20" font-family="Helvetica,sans-Serif" font-size="10.00">/Transforms/WildcardArraySpecialization</text>
<text text-anchor="middle" x="677" y="-7.25" font-family="Helvetica,sans-Serif" font-size="10.00">Pass.cpp</text>
</a>
</g>
</g>
<!-- Node2&#45;&gt;Node7 -->
<g id="edge7_Node000002_Node000007" class="edge">
<title>Node2&#45;&gt;Node7</title>
<g id="a_edge7_Node000002_Node000007"><a xlink:title=" ">
<path fill="none" stroke="#63b8ff" d="M629.37,-140.54C632.61,-123.48 637.73,-101.16 645,-82.25 649.71,-69.99 656.57,-57.12 662.73,-46.62"/>
<polygon fill="#63b8ff" stroke="#63b8ff" points="626.01,-139.45 627.69,-149.91 632.9,-140.68 626.01,-139.45"/>
</a>
</g>
</g>
<!-- Node8 -->
<g id="Node000008" class="node">
<title>Node8</title>
<g id="a_Node000008"><a xlink:href="Struct_2IR_2Dialect_8cpp.html" target="_top" xlink:title=" ">
<polygon fill="white" stroke="#666666" points="750.5,-115.75 653.5,-115.75 653.5,-82.25 750.5,-82.25 750.5,-115.75"/>
<text text-anchor="start" x="661.5" y="-102.25" font-family="Helvetica,sans-Serif" font-size="10.00">lib/Dialect/Struct</text>
<text text-anchor="middle" x="702" y="-89.5" font-family="Helvetica,sans-Serif" font-size="10.00">/IR/Dialect.cpp</text>
</a>
</g>
</g>
<!-- Node2&#45;&gt;Node8 -->
<g id="edge8_Node000002_Node000008" class="edge">
<title>Node2&#45;&gt;Node8</title>
<g id="a_edge8_Node000002_Node000008"><a xlink:title=" ">
<path fill="none" stroke="#63b8ff" d="M651.71,-144.09C662.24,-134.85 674.07,-124.48 683.62,-116.12"/>
<polygon fill="#63b8ff" stroke="#63b8ff" points="649.6,-141.28 644.39,-150.51 654.21,-146.55 649.6,-141.28"/>
</a>
</g>
</g>
<!-- Node4 -->
<g id="Node000004" class="node">
<title>Node4</title>
<g id="a_Node000004"><a xlink:href="EmptyTemplateRemovalPass_8cpp.html" target="_top" xlink:title="This file implements the &#45;llzk&#45;drop&#45;empty&#45;templates pass.">
<polygon fill="white" stroke="#666666" points="196,-46.25 0,-46.25 0,0 196,0 196,-46.25"/>
<text text-anchor="start" x="8" y="-32.75" font-family="Helvetica,sans-Serif" font-size="10.00">lib/Dialect/Polymorphic</text>
<text text-anchor="start" x="8" y="-20" font-family="Helvetica,sans-Serif" font-size="10.00">/Transforms/EmptyTemplateRemoval</text>
<text text-anchor="middle" x="98" y="-7.25" font-family="Helvetica,sans-Serif" font-size="10.00">Pass.cpp</text>
</a>
</g>
</g>
<!-- Node3&#45;&gt;Node4 -->
<g id="edge3_Node000003_Node000004" class="edge">
<title>Node3&#45;&gt;Node4</title>
<g id="a_edge3_Node000003_Node000004"><a xlink:title=" ">
<path fill="none" stroke="#63b8ff" d="M394.27,-82.73C340.46,-72.59 268.49,-58.87 205,-46.25 202.12,-45.68 199.19,-45.09 196.24,-44.5"/>
<polygon fill="#63b8ff" stroke="#63b8ff" points="393.51,-86.15 403.98,-84.56 394.8,-79.27 393.51,-86.15"/>
</a>
</g>
</g>
<!-- Node5 -->
<g id="Node000005" class="node">
<title>Node5</title>
<g id="a_Node000005"><a xlink:href="FlatteningPass_8cpp.html" target="_top" xlink:title="This file implements the &#45;llzk&#45;flatten pass.">
<polygon fill="white" stroke="#666666" points="381.75,-39.88 214.25,-39.88 214.25,-6.38 381.75,-6.38 381.75,-39.88"/>
<text text-anchor="start" x="222.25" y="-26.38" font-family="Helvetica,sans-Serif" font-size="10.00">lib/Dialect/Polymorphic</text>
<text text-anchor="middle" x="298" y="-13.62" font-family="Helvetica,sans-Serif" font-size="10.00">/Transforms/FlatteningPass.cpp</text>
</a>
</g>
</g>
<!-- Node3&#45;&gt;Node5 -->
<g id="edge4_Node000003_Node000005" class="edge">
<title>Node3&#45;&gt;Node5</title>
<g id="a_edge4_Node000003_Node000005"><a xlink:title=" ">
<path fill="none" stroke="#63b8ff" d="M426.46,-77.44C398.19,-65.71 363.27,-51.21 336.97,-40.3"/>
<polygon fill="#63b8ff" stroke="#63b8ff" points="424.96,-80.61 435.54,-81.21 427.64,-74.14 424.96,-80.61"/>
</a>
</g>
</g>
<!-- Node6 -->
<g id="Node000006" class="node">
<title>Node6</title>
<g id="a_Node000006"><a xlink:href="SharedImpl_8cpp.html" target="_top" xlink:title=" ">
<polygon fill="white" stroke="#666666" points="551.88,-39.88 400.12,-39.88 400.12,-6.38 551.88,-6.38 551.88,-39.88"/>
<text text-anchor="start" x="408.12" y="-26.38" font-family="Helvetica,sans-Serif" font-size="10.00">lib/Dialect/Polymorphic</text>
<text text-anchor="middle" x="476" y="-13.62" font-family="Helvetica,sans-Serif" font-size="10.00">/Transforms/SharedImpl.cpp</text>
</a>
</g>
</g>
<!-- Node3&#45;&gt;Node6 -->
<g id="edge5_Node000003_Node000006" class="edge">
<title>Node3&#45;&gt;Node6</title>
<g id="a_edge5_Node000003_Node000006"><a xlink:title=" ">
<path fill="none" stroke="#63b8ff" d="M476,-70.61C476,-60.35 476,-49.02 476,-40.12"/>
<polygon fill="#63b8ff" stroke="#63b8ff" points="472.5,-70.46 476,-80.46 479.5,-70.46 472.5,-70.46"/>
</a>
</g>
</g>
<!-- Node3&#45;&gt;Node7 -->
<g id="edge6_Node000003_Node000007" class="edge">
<title>Node3&#45;&gt;Node7</title>
<g id="a_edge6_Node000003_Node000007"><a xlink:title=" ">
<path fill="none" stroke="#63b8ff" d="M530.62,-77.92C556.85,-68.28 588.39,-56.69 615.46,-46.74"/>
<polygon fill="#63b8ff" stroke="#63b8ff" points="529.71,-74.53 521.53,-81.27 532.12,-81.1 529.71,-74.53"/>
</a>
</g>
</g>
</g>
</svg>
