<?xml version="1.0" encoding="UTF-8" standalone="no"?>
<!DOCTYPE svg PUBLIC "-//W3C//DTD SVG 1.1//EN"
 "http://www.w3.org/Graphics/SVG/1.1/DTD/svg11.dtd">
<!-- Generated by graphviz version 12.2.1 (0)
 -->
<!-- Title: build/include/llzk/Dialect/POD/IR/Ops.capi.h.inc Pages: 1 -->
<svg width="170pt" height="168pt"
 viewBox="0.00 0.00 169.50 167.75" xmlns="http://www.w3.org/2000/svg" xmlns:xlink="http://www.w3.org/1999/xlink">
<g id="graph0" class="graph" transform="scale(1 1) rotate(0) translate(4 163.75)">
<title>build/include/llzk/Dialect/POD/IR/Ops.capi.h.inc</title>
<!-- Node1 -->
<g id="Node000001" class="node">
<title>Node1</title>
<g id="a_Node000001"><a xlink:title=" ">
<polygon fill="#999999" stroke="#666666" points="161.5,-159.75 0,-159.75 0,-126.25 161.5,-126.25 161.5,-159.75"/>
<text text-anchor="start" x="8" y="-146.25" font-family="Helvetica,sans-Serif" font-size="10.00">build/include/llzk</text>
<text text-anchor="middle" x="80.75" y="-133.5" font-family="Helvetica,sans-Serif" font-size="10.00">/Dialect/POD/IR/Ops.capi.h.inc</text>
</a>
</g>
</g>
<!-- Node2 -->
<g id="Node000002" class="node">
<title>Node2</title>
<g id="a_Node000002"><a xlink:href="POD_8h.html" target="_top" xlink:title=" ">
<polygon fill="white" stroke="#666666" points="139.75,-90.25 21.75,-90.25 21.75,-56.75 139.75,-56.75 139.75,-90.25"/>
<text text-anchor="start" x="29.75" y="-76.75" font-family="Helvetica,sans-Serif" font-size="10.00">include/llzk&#45;c/Dialect</text>
<text text-anchor="middle" x="80.75" y="-64" font-family="Helvetica,sans-Serif" font-size="10.00">/POD.h</text>
</a>
</g>
</g>
<!-- Node1&#45;&gt;Node2 -->
<g id="edge1_Node000001_Node000002" class="edge">
<title>Node1&#45;&gt;Node2</title>
<g id="a_edge1_Node000001_Node000002"><a xlink:title=" ">
<path fill="none" stroke="#63b8ff" d="M80.75,-114.56C80.75,-106.34 80.75,-97.59 80.75,-90.38"/>
<polygon fill="#63b8ff" stroke="#63b8ff" points="77.25,-114.49 80.75,-124.49 84.25,-114.49 77.25,-114.49"/>
</a>
</g>
</g>
<!-- Node3 -->
<g id="Node000003" class="node">
<title>Node3</title>
<g id="a_Node000003"><a xlink:href="POD_8cpp.html" target="_top" xlink:title=" ">
<polygon fill="white" stroke="#666666" points="148.38,-20.75 13.12,-20.75 13.12,0 148.38,0 148.38,-20.75"/>
<text text-anchor="middle" x="80.75" y="-7.25" font-family="Helvetica,sans-Serif" font-size="10.00">lib/CAPI/Dialect/POD.cpp</text>
</a>
</g>
</g>
<!-- Node2&#45;&gt;Node3 -->
<g id="edge2_Node000002_Node000003" class="edge">
<title>Node2&#45;&gt;Node3</title>
<g id="a_edge2_Node000002_Node000003"><a xlink:title=" ">
<path fill="none" stroke="#63b8ff" d="M80.75,-44.94C80.75,-36.46 80.75,-27.67 80.75,-21.22"/>
<polygon fill="#63b8ff" stroke="#63b8ff" points="77.25,-44.93 80.75,-54.93 84.25,-44.93 77.25,-44.93"/>
</a>
</g>
</g>
</g>
</svg>
