<?xml version="1.0" encoding="UTF-8" standalone="no"?>
<!DOCTYPE svg PUBLIC "-//W3C//DTD SVG 1.1//EN"
 "http://www.w3.org/Graphics/SVG/1.1/DTD/svg11.dtd">
<!-- Generated by graphviz version 12.2.1 (0)
 -->
<!-- Title: include/llzk/Dialect/POD/IR/Dialect.h Pages: 1 -->
<svg width="660pt" height="250pt"
 viewBox="0.00 0.00 660.12 250.00" xmlns="http://www.w3.org/2000/svg" xmlns:xlink="http://www.w3.org/1999/xlink">
<g id="graph0" class="graph" transform="scale(1 1) rotate(0) translate(4 246)">
<title>include/llzk/Dialect/POD/IR/Dialect.h</title>
<!-- Node1 -->
<g id="Node000001" class="node">
<title>Node1</title>
<g id="a_Node000001"><a xlink:title=" ">
<polygon fill="#999999" stroke="#666666" points="323.62,-242 214.62,-242 214.62,-208.5 323.62,-208.5 323.62,-242"/>
<text text-anchor="start" x="222.62" y="-228.5" font-family="Helvetica,sans-Serif" font-size="10.00">include/llzk/Dialect</text>
<text text-anchor="middle" x="269.12" y="-215.75" font-family="Helvetica,sans-Serif" font-size="10.00">/POD/IR/Dialect.h</text>
</a>
</g>
</g>
<!-- Node2 -->
<g id="Node000002" class="node">
<title>Node2</title>
<g id="a_Node000002"><a xlink:href="POD_2IR_2Ops_8h.html" target="_top" xlink:title=" ">
<polygon fill="white" stroke="#666666" points="188.62,-103 79.62,-103 79.62,-69.5 188.62,-69.5 188.62,-103"/>
<text text-anchor="start" x="87.62" y="-89.5" font-family="Helvetica,sans-Serif" font-size="10.00">include/llzk/Dialect</text>
<text text-anchor="middle" x="134.12" y="-76.75" font-family="Helvetica,sans-Serif" font-size="10.00">/POD/IR/Ops.h</text>
</a>
</g>
</g>
<!-- Node1&#45;&gt;Node2 -->
<g id="edge1_Node000001_Node000002" class="edge">
<title>Node1&#45;&gt;Node2</title>
<g id="a_edge1_Node000001_Node000002"><a xlink:title=" ">
<path fill="none" stroke="#63b8ff" d="M238.61,-201.04C227.97,-192.47 216.18,-182.42 206.12,-172.5 183.37,-150.05 160.04,-121.13 146.32,-103.4"/>
<polygon fill="#63b8ff" stroke="#63b8ff" points="236.39,-203.75 246.4,-207.21 240.74,-198.26 236.39,-203.75"/>
</a>
</g>
</g>
<!-- Node4 -->
<g id="Node000004" class="node">
<title>Node4</title>
<g id="a_Node000004"><a xlink:href="POD_2IR_2Dialect_8cpp.html" target="_top" xlink:title=" ">
<polygon fill="white" stroke="#666666" points="102.25,-33.5 0,-33.5 0,0 102.25,0 102.25,-33.5"/>
<text text-anchor="start" x="8" y="-20" font-family="Helvetica,sans-Serif" font-size="10.00">lib/Dialect/POD/IR</text>
<text text-anchor="middle" x="51.12" y="-7.25" font-family="Helvetica,sans-Serif" font-size="10.00">/Dialect.cpp</text>
</a>
</g>
</g>
<!-- Node1&#45;&gt;Node4 -->
<g id="edge14_Node000001_Node000004" class="edge">
<title>Node1&#45;&gt;Node4</title>
<g id="a_edge14_Node000001_Node000004"><a xlink:title=" ">
<path fill="none" stroke="#63b8ff" d="M203.56,-207.92C151.46,-191.1 82.06,-159.21 49.12,-103 36.63,-81.67 41.29,-51.89 46.04,-33.76"/>
<polygon fill="#63b8ff" stroke="#63b8ff" points="202.36,-211.21 212.95,-210.84 204.44,-204.53 202.36,-211.21"/>
</a>
</g>
</g>
<!-- Node6 -->
<g id="Node000006" class="node">
<title>Node6</title>
<g id="a_Node000006"><a xlink:href="POD_2IR_2Types_8h.html" target="_top" xlink:title=" ">
<polygon fill="white" stroke="#666666" points="323.62,-172.5 214.62,-172.5 214.62,-139 323.62,-139 323.62,-172.5"/>
<text text-anchor="start" x="222.62" y="-159" font-family="Helvetica,sans-Serif" font-size="10.00">include/llzk/Dialect</text>
<text text-anchor="middle" x="269.12" y="-146.25" font-family="Helvetica,sans-Serif" font-size="10.00">/POD/IR/Types.h</text>
</a>
</g>
</g>
<!-- Node1&#45;&gt;Node6 -->
<g id="edge5_Node000001_Node000006" class="edge">
<title>Node1&#45;&gt;Node6</title>
<g id="a_edge5_Node000001_Node000006"><a xlink:title=" ">
<path fill="none" stroke="#63b8ff" d="M269.12,-196.81C269.12,-188.59 269.12,-179.84 269.12,-172.63"/>
<polygon fill="#63b8ff" stroke="#63b8ff" points="265.63,-196.74 269.13,-206.74 272.63,-196.74 265.63,-196.74"/>
</a>
</g>
</g>
<!-- Node10 -->
<g id="Node000010" class="node">
<title>Node10</title>
<g id="a_Node000010"><a xlink:href="Dialect_2InitDialects_8cpp.html" target="_top" xlink:title=" ">
<polygon fill="white" stroke="#666666" points="486.25,-166.12 342,-166.12 342,-145.38 486.25,-145.38 486.25,-166.12"/>
<text text-anchor="middle" x="414.12" y="-152.62" font-family="Helvetica,sans-Serif" font-size="10.00">lib/Dialect/InitDialects.cpp</text>
</a>
</g>
</g>
<!-- Node1&#45;&gt;Node10 -->
<g id="edge13_Node000001_Node000010" class="edge">
<title>Node1&#45;&gt;Node10</title>
<g id="a_edge13_Node000001_Node000010"><a xlink:title=" ">
<path fill="none" stroke="#63b8ff" d="M314.02,-203.35C340.4,-191.07 372.52,-176.12 393.14,-166.52"/>
<polygon fill="#63b8ff" stroke="#63b8ff" points="312.82,-200.05 305.23,-207.44 315.77,-206.4 312.82,-200.05"/>
</a>
</g>
</g>
<!-- Node11 -->
<g id="Node000011" class="node">
<title>Node11</title>
<g id="a_Node000011"><a xlink:href="LLZKInliningExtensions_8cpp.html" target="_top" xlink:title=" ">
<polygon fill="white" stroke="#666666" points="652.12,-172.5 504.12,-172.5 504.12,-139 652.12,-139 652.12,-172.5"/>
<text text-anchor="start" x="512.12" y="-159" font-family="Helvetica,sans-Serif" font-size="10.00">lib/Transforms/LLZKInlining</text>
<text text-anchor="middle" x="578.12" y="-146.25" font-family="Helvetica,sans-Serif" font-size="10.00">Extensions.cpp</text>
</a>
</g>
</g>
<!-- Node1&#45;&gt;Node11 -->
<g id="edge15_Node000001_Node000011" class="edge">
<title>Node1&#45;&gt;Node11</title>
<g id="a_edge15_Node000001_Node000011"><a xlink:title=" ">
<path fill="none" stroke="#63b8ff" d="M335.24,-209.81C384.8,-198.98 452.64,-184.16 504.02,-172.94"/>
<polygon fill="#63b8ff" stroke="#63b8ff" points="334.51,-206.38 325.49,-211.94 336.01,-213.22 334.51,-206.38"/>
</a>
</g>
</g>
<!-- Node3 -->
<g id="Node000003" class="node">
<title>Node3</title>
<g id="a_Node000003"><a xlink:href="POD_8cpp.html" target="_top" xlink:title=" ">
<polygon fill="white" stroke="#666666" points="613.75,-27.12 478.5,-27.12 478.5,-6.38 613.75,-6.38 613.75,-27.12"/>
<text text-anchor="middle" x="546.12" y="-13.62" font-family="Helvetica,sans-Serif" font-size="10.00">lib/CAPI/Dialect/POD.cpp</text>
</a>
</g>
</g>
<!-- Node2&#45;&gt;Node3 -->
<g id="edge2_Node000002_Node000003" class="edge">
<title>Node2&#45;&gt;Node3</title>
<g id="a_edge2_Node000002_Node000003"><a xlink:title=" ">
<path fill="none" stroke="#63b8ff" d="M200.14,-69C302.08,-49.14 410.14,-34.36 478.23,-25.82"/>
<polygon fill="#63b8ff" stroke="#63b8ff" points="199.65,-65.53 190.51,-70.9 201,-72.4 199.65,-65.53"/>
</a>
</g>
</g>
<!-- Node2&#45;&gt;Node4 -->
<g id="edge3_Node000002_Node000004" class="edge">
<title>Node2&#45;&gt;Node4</title>
<g id="a_edge3_Node000002_Node000004"><a xlink:title=" ">
<path fill="none" stroke="#63b8ff" d="M105.68,-62.11C94.24,-52.81 81.33,-42.31 70.94,-33.87"/>
<polygon fill="#63b8ff" stroke="#63b8ff" points="103.31,-64.7 113.28,-68.3 107.73,-59.27 103.31,-64.7"/>
</a>
</g>
</g>
<!-- Node5 -->
<g id="Node000005" class="node">
<title>Node5</title>
<g id="a_Node000005"><a xlink:href="POD_2IR_2Ops_8cpp.html" target="_top" xlink:title=" ">
<polygon fill="white" stroke="#666666" points="376.25,-33.5 274,-33.5 274,0 376.25,0 376.25,-33.5"/>
<text text-anchor="start" x="282" y="-20" font-family="Helvetica,sans-Serif" font-size="10.00">lib/Dialect/POD/IR</text>
<text text-anchor="middle" x="325.12" y="-7.25" font-family="Helvetica,sans-Serif" font-size="10.00">/Ops.cpp</text>
</a>
</g>
</g>
<!-- Node2&#45;&gt;Node5 -->
<g id="edge4_Node000002_Node000005" class="edge">
<title>Node2&#45;&gt;Node5</title>
<g id="a_edge4_Node000002_Node000005"><a xlink:title=" ">
<path fill="none" stroke="#63b8ff" d="M190.44,-65.35C218.79,-55.33 252.71,-43.34 279.42,-33.9"/>
<polygon fill="#63b8ff" stroke="#63b8ff" points="189.56,-61.95 181.3,-68.58 191.9,-68.55 189.56,-61.95"/>
</a>
</g>
</g>
<!-- Node6&#45;&gt;Node2 -->
<g id="edge6_Node000006_Node000002" class="edge">
<title>Node6&#45;&gt;Node2</title>
<g id="a_edge6_Node000006_Node000002"><a xlink:title=" ">
<path fill="none" stroke="#63b8ff" d="M226.61,-133.49C207.07,-123.72 184.27,-112.32 166.2,-103.29"/>
<polygon fill="#63b8ff" stroke="#63b8ff" points="224.93,-136.56 235.44,-137.91 228.06,-130.3 224.93,-136.56"/>
</a>
</g>
</g>
<!-- Node6&#45;&gt;Node3 -->
<g id="edge7_Node000006_Node000003" class="edge">
<title>Node6&#45;&gt;Node3</title>
<g id="a_edge7_Node000006_Node000003"><a xlink:title=" ">
<path fill="none" stroke="#63b8ff" d="M334.9,-139.15C411.19,-129.55 572.01,-147.51 611.12,-103 633.98,-77 589.31,-43.78 563.17,-27.55"/>
<polygon fill="#63b8ff" stroke="#63b8ff" points="334.69,-135.64 325.35,-140.62 335.76,-142.55 334.69,-135.64"/>
</a>
</g>
</g>
<!-- Node6&#45;&gt;Node4 -->
<g id="edge8_Node000006_Node000004" class="edge">
<title>Node6&#45;&gt;Node4</title>
<g id="a_edge8_Node000006_Node000004"><a xlink:title=" ">
<path fill="none" stroke="#63b8ff" d="M203.32,-145.17C152.76,-136.48 88.57,-122.1 70.12,-103 52.22,-84.45 49.72,-52.95 50.06,-33.87"/>
<polygon fill="#63b8ff" stroke="#63b8ff" points="202.6,-148.6 213.04,-146.79 203.75,-141.69 202.6,-148.6"/>
</a>
</g>
</g>
<!-- Node6&#45;&gt;Node5 -->
<g id="edge9_Node000006_Node000005" class="edge">
<title>Node6&#45;&gt;Node5</title>
<g id="a_edge9_Node000006_Node000005"><a xlink:title=" ">
<path fill="none" stroke="#63b8ff" d="M335.17,-137.94C389.92,-123.86 459.1,-105.64 461.12,-103 488.83,-66.83 425.67,-42.09 376.41,-28.93"/>
<polygon fill="#63b8ff" stroke="#63b8ff" points="334.37,-134.53 325.56,-140.41 336.12,-141.31 334.37,-134.53"/>
</a>
</g>
</g>
<!-- Node7 -->
<g id="Node000007" class="node">
<title>Node7</title>
<g id="a_Node000007"><a xlink:href="POD_2IR_2Types_8cpp.html" target="_top" xlink:title=" ">
<polygon fill="white" stroke="#666666" points="452.25,-103 350,-103 350,-69.5 452.25,-69.5 452.25,-103"/>
<text text-anchor="start" x="358" y="-89.5" font-family="Helvetica,sans-Serif" font-size="10.00">lib/Dialect/POD/IR</text>
<text text-anchor="middle" x="401.12" y="-76.75" font-family="Helvetica,sans-Serif" font-size="10.00">/Types.cpp</text>
</a>
</g>
</g>
<!-- Node6&#45;&gt;Node7 -->
<g id="edge10_Node000006_Node000007" class="edge">
<title>Node6&#45;&gt;Node7</title>
<g id="a_edge10_Node000006_Node000007"><a xlink:title=" ">
<path fill="none" stroke="#63b8ff" d="M310.96,-133.36C330.01,-123.62 352.18,-112.28 369.77,-103.29"/>
<polygon fill="#63b8ff" stroke="#63b8ff" points="309.4,-130.22 302.09,-137.89 312.59,-136.46 309.4,-130.22"/>
</a>
</g>
</g>
<!-- Node8 -->
<g id="Node000008" class="node">
<title>Node8</title>
<g id="a_Node000008"><a xlink:href="Field_8cpp.html" target="_top" xlink:title=" ">
<polygon fill="white" stroke="#666666" points="602.5,-96.62 507.75,-96.62 507.75,-75.88 602.5,-75.88 602.5,-96.62"/>
<text text-anchor="middle" x="555.12" y="-83.12" font-family="Helvetica,sans-Serif" font-size="10.00">lib/Util/Field.cpp</text>
</a>
</g>
</g>
<!-- Node6&#45;&gt;Node8 -->
<g id="edge11_Node000006_Node000008" class="edge">
<title>Node6&#45;&gt;Node8</title>
<g id="a_edge11_Node000006_Node000008"><a xlink:title=" ">
<path fill="none" stroke="#63b8ff" d="M334.85,-138.63C406.34,-122.01 426.18,-119.36 494.12,-103 501.78,-101.16 509.96,-99.1 517.75,-97.11"/>
<polygon fill="#63b8ff" stroke="#63b8ff" points="334.33,-135.15 325.39,-140.84 335.93,-141.97 334.33,-135.15"/>
</a>
</g>
</g>
<!-- Node9 -->
<g id="Node000009" class="node">
<title>Node9</title>
<g id="a_Node000009"><a xlink:href="TypeHelper_8cpp.html" target="_top" xlink:title=" ">
<polygon fill="white" stroke="#666666" points="331.88,-96.62 206.38,-96.62 206.38,-75.88 331.88,-75.88 331.88,-96.62"/>
<text text-anchor="middle" x="269.12" y="-83.12" font-family="Helvetica,sans-Serif" font-size="10.00">lib/Util/TypeHelper.cpp</text>
</a>
</g>
</g>
<!-- Node6&#45;&gt;Node9 -->
<g id="edge12_Node000006_Node000009" class="edge">
<title>Node6&#45;&gt;Node9</title>
<g id="a_edge12_Node000006_Node000009"><a xlink:title=" ">
<path fill="none" stroke="#63b8ff" d="M269.12,-127.28C269.12,-116.58 269.12,-105.01 269.12,-97.07"/>
<polygon fill="#63b8ff" stroke="#63b8ff" points="265.63,-127.24 269.13,-137.24 272.63,-127.24 265.63,-127.24"/>
</a>
</g>
</g>
</g>
</svg>
