<?xml version="1.0" encoding="UTF-8" standalone="no"?>
<!DOCTYPE svg PUBLIC "-//W3C//DTD SVG 1.1//EN"
 "http://www.w3.org/Graphics/SVG/1.1/DTD/svg11.dtd">
<!-- Generated by graphviz version 12.2.1 (0)
 -->
<!-- Title: build/include/llzk/Dialect/POD/IR/Types.capi.h.inc Pages: 1 -->
<svg width="202pt" height="155pt"
 viewBox="0.00 0.00 202.25 155.00" xmlns="http://www.w3.org/2000/svg" xmlns:xlink="http://www.w3.org/1999/xlink">
<g id="graph0" class="graph" transform="scale(1 1) rotate(0) translate(4 151)">
<title>build/include/llzk/Dialect/POD/IR/Types.capi.h.inc</title>
<!-- Node1 -->
<g id="Node000001" class="node">
<title>Node1</title>
<g id="a_Node000001"><a xlink:title=" ">
<polygon fill="#999999" stroke="#666666" points="170.5,-147 0,-147 0,-113.5 170.5,-113.5 170.5,-147"/>
<text text-anchor="start" x="8" y="-133.5" font-family="Helvetica,sans-Serif" font-size="10.00">build/include/llzk</text>
<text text-anchor="middle" x="85.25" y="-120.75" font-family="Helvetica,sans-Serif" font-size="10.00">/Dialect/POD/IR/Types.capi.h.inc</text>
</a>
</g>
</g>
<!-- Node2 -->
<g id="Node000002" class="node">
<title>Node2</title>
<g id="a_Node000002"><a xlink:href="llzk-c_2Builder_8h.html" target="_top" xlink:title=" ">
<polygon fill="white" stroke="#666666" points="165.25,-77.5 77.25,-77.5 77.25,-56.75 165.25,-56.75 165.25,-77.5"/>
<text text-anchor="middle" x="121.25" y="-64" font-family="Helvetica,sans-Serif" font-size="10.00">llzk&#45;c/Builder.h</text>
</a>
</g>
</g>
<!-- Node1&#45;&gt;Node2 -->
<g id="edge1_Node000001_Node000002" class="edge">
<title>Node1&#45;&gt;Node2</title>
<g id="a_edge1_Node000001_Node000002"><a xlink:title=" ">
<path fill="none" stroke="#63b8ff" d="M94.71,-113.19C99.29,-105.42 104.82,-96.02 109.65,-87.82"/>
<polygon fill="#63b8ff" stroke="#63b8ff" points="112.63,-89.66 114.69,-79.27 106.59,-86.11 112.63,-89.66"/>
</a>
</g>
</g>
<!-- Node3 -->
<g id="Node000003" class="node">
<title>Node3</title>
<g id="a_Node000003"><a xlink:title=" ">
<polygon fill="#e0e0e0" stroke="#999999" points="82.38,-20.75 16.12,-20.75 16.12,0 82.38,0 82.38,-20.75"/>
<text text-anchor="middle" x="49.25" y="-7.25" font-family="Helvetica,sans-Serif" font-size="10.00">mlir&#45;c/IR.h</text>
</a>
</g>
</g>
<!-- Node1&#45;&gt;Node3 -->
<g id="edge4_Node000001_Node000003" class="edge">
<title>Node1&#45;&gt;Node3</title>
<g id="a_edge4_Node000001_Node000003"><a xlink:title=" ">
<path fill="none" stroke="#63b8ff" d="M79.89,-113.44C76.46,-103.22 71.98,-89.61 68.25,-77.5 63.56,-62.27 58.6,-44.96 54.93,-31.88"/>
<polygon fill="#63b8ff" stroke="#63b8ff" points="58.31,-30.98 52.25,-22.28 51.57,-32.86 58.31,-30.98"/>
</a>
</g>
</g>
<!-- Node2&#45;&gt;Node3 -->
<g id="edge2_Node000002_Node000003" class="edge">
<title>Node2&#45;&gt;Node3</title>
<g id="a_edge2_Node000002_Node000003"><a xlink:title=" ">
<path fill="none" stroke="#63b8ff" d="M108.38,-56.34C98.04,-48.47 83.28,-37.25 71.1,-27.99"/>
<polygon fill="#63b8ff" stroke="#63b8ff" points="73.29,-25.26 63.22,-21.99 69.06,-30.83 73.29,-25.26"/>
</a>
</g>
</g>
<!-- Node4 -->
<g id="Node000004" class="node">
<title>Node4</title>
<g id="a_Node000004"><a xlink:title=" ">
<polygon fill="#e0e0e0" stroke="#999999" points="194.25,-20.75 100.25,-20.75 100.25,0 194.25,0 194.25,-20.75"/>
<text text-anchor="middle" x="147.25" y="-7.25" font-family="Helvetica,sans-Serif" font-size="10.00">mlir&#45;c/Support.h</text>
</a>
</g>
</g>
<!-- Node2&#45;&gt;Node4 -->
<g id="edge3_Node000002_Node000004" class="edge">
<title>Node2&#45;&gt;Node4</title>
<g id="a_edge3_Node000002_Node000004"><a xlink:title=" ">
<path fill="none" stroke="#63b8ff" d="M125.9,-56.34C129.19,-49.41 133.72,-39.87 137.76,-31.36"/>
<polygon fill="#63b8ff" stroke="#63b8ff" points="140.86,-32.98 141.99,-22.45 134.54,-29.98 140.86,-32.98"/>
</a>
</g>
</g>
</g>
</svg>
