<?xml version="1.0" encoding="UTF-8" standalone="no"?>
<!DOCTYPE svg PUBLIC "-//W3C//DTD SVG 1.1//EN"
 "http://www.w3.org/Graphics/SVG/1.1/DTD/svg11.dtd">
<!-- Generated by graphviz version 12.2.1 (0)
 -->
<!-- Title: include/llzk/Dialect/POD/IR/Types.h Pages: 1 -->
<svg width="820pt" height="181pt"
 viewBox="0.00 0.00 820.38 180.50" xmlns="http://www.w3.org/2000/svg" xmlns:xlink="http://www.w3.org/1999/xlink">
<g id="graph0" class="graph" transform="scale(1 1) rotate(0) translate(4 176.5)">
<title>include/llzk/Dialect/POD/IR/Types.h</title>
<!-- Node1 -->
<g id="Node000001" class="node">
<title>Node1</title>
<g id="a_Node000001"><a xlink:title=" ">
<polygon fill="#999999" stroke="#666666" points="404.12,-172.5 295.12,-172.5 295.12,-139 404.12,-139 404.12,-172.5"/>
<text text-anchor="start" x="303.12" y="-159" font-family="Helvetica,sans-Serif" font-size="10.00">include/llzk/Dialect</text>
<text text-anchor="middle" x="349.62" y="-146.25" font-family="Helvetica,sans-Serif" font-size="10.00">/POD/IR/Types.h</text>
</a>
</g>
</g>
<!-- Node2 -->
<g id="Node000002" class="node">
<title>Node2</title>
<g id="a_Node000002"><a xlink:href="POD_2IR_2Ops_8h.html" target="_top" xlink:title=" ">
<polygon fill="white" stroke="#666666" points="244.12,-103 135.12,-103 135.12,-69.5 244.12,-69.5 244.12,-103"/>
<text text-anchor="start" x="143.12" y="-89.5" font-family="Helvetica,sans-Serif" font-size="10.00">include/llzk/Dialect</text>
<text text-anchor="middle" x="189.62" y="-76.75" font-family="Helvetica,sans-Serif" font-size="10.00">/POD/IR/Ops.h</text>
</a>
</g>
</g>
<!-- Node1&#45;&gt;Node2 -->
<g id="edge1_Node000001_Node000002" class="edge">
<title>Node1&#45;&gt;Node2</title>
<g id="a_edge1_Node000001_Node000002"><a xlink:title=" ">
<path fill="none" stroke="#63b8ff" d="M300.87,-134.18C277.45,-124.3 249.79,-112.63 227.91,-103.4"/>
<polygon fill="#63b8ff" stroke="#63b8ff" points="299.33,-137.33 309.91,-137.99 302.05,-130.88 299.33,-137.33"/>
</a>
</g>
</g>
<!-- Node3 -->
<g id="Node000003" class="node">
<title>Node3</title>
<g id="a_Node000003"><a xlink:href="POD_8cpp.html" target="_top" xlink:title=" ">
<polygon fill="white" stroke="#666666" points="135.25,-27.12 0,-27.12 0,-6.38 135.25,-6.38 135.25,-27.12"/>
<text text-anchor="middle" x="67.62" y="-13.62" font-family="Helvetica,sans-Serif" font-size="10.00">lib/CAPI/Dialect/POD.cpp</text>
</a>
</g>
</g>
<!-- Node1&#45;&gt;Node3 -->
<g id="edge5_Node000001_Node000003" class="edge">
<title>Node1&#45;&gt;Node3</title>
<g id="a_edge5_Node000001_Node000003"><a xlink:title=" ">
<path fill="none" stroke="#63b8ff" d="M283.46,-151.9C236.23,-147.05 173.09,-134.57 126.62,-103 98.04,-83.58 79.14,-45.34 71.48,-27.43"/>
<polygon fill="#63b8ff" stroke="#63b8ff" points="283.02,-155.38 293.3,-152.81 283.66,-148.41 283.02,-155.38"/>
</a>
</g>
</g>
<!-- Node4 -->
<g id="Node000004" class="node">
<title>Node4</title>
<g id="a_Node000004"><a xlink:href="POD_2IR_2Dialect_8cpp.html" target="_top" xlink:title=" ">
<polygon fill="white" stroke="#666666" points="255.75,-33.5 153.5,-33.5 153.5,0 255.75,0 255.75,-33.5"/>
<text text-anchor="start" x="161.5" y="-20" font-family="Helvetica,sans-Serif" font-size="10.00">lib/Dialect/POD/IR</text>
<text text-anchor="middle" x="204.62" y="-7.25" font-family="Helvetica,sans-Serif" font-size="10.00">/Dialect.cpp</text>
</a>
</g>
</g>
<!-- Node1&#45;&gt;Node4 -->
<g id="edge6_Node000001_Node000004" class="edge">
<title>Node1&#45;&gt;Node4</title>
<g id="a_edge6_Node000001_Node000004"><a xlink:title=" ">
<path fill="none" stroke="#63b8ff" d="M324.55,-131.06C295.02,-103.16 246.8,-57.6 221.43,-33.63"/>
<polygon fill="#63b8ff" stroke="#63b8ff" points="321.94,-133.4 331.61,-137.73 326.74,-128.31 321.94,-133.4"/>
</a>
</g>
</g>
<!-- Node5 -->
<g id="Node000005" class="node">
<title>Node5</title>
<g id="a_Node000005"><a xlink:href="POD_2IR_2Ops_8cpp.html" target="_top" xlink:title=" ">
<polygon fill="white" stroke="#666666" points="375.75,-33.5 273.5,-33.5 273.5,0 375.75,0 375.75,-33.5"/>
<text text-anchor="start" x="281.5" y="-20" font-family="Helvetica,sans-Serif" font-size="10.00">lib/Dialect/POD/IR</text>
<text text-anchor="middle" x="324.62" y="-7.25" font-family="Helvetica,sans-Serif" font-size="10.00">/Ops.cpp</text>
</a>
</g>
</g>
<!-- Node1&#45;&gt;Node5 -->
<g id="edge7_Node000001_Node000005" class="edge">
<title>Node1&#45;&gt;Node5</title>
<g id="a_edge7_Node000001_Node000005"><a xlink:title=" ">
<path fill="none" stroke="#63b8ff" d="M337.59,-128.3C334.46,-120.33 331.46,-111.45 329.62,-103 324.5,-79.38 323.87,-51.28 324.1,-33.98"/>
<polygon fill="#63b8ff" stroke="#63b8ff" points="334.32,-129.56 341.41,-137.44 340.78,-126.86 334.32,-129.56"/>
</a>
</g>
</g>
<!-- Node6 -->
<g id="Node000006" class="node">
<title>Node6</title>
<g id="a_Node000006"><a xlink:href="POD_2IR_2Types_8cpp.html" target="_top" xlink:title=" ">
<polygon fill="white" stroke="#666666" points="440.75,-103 338.5,-103 338.5,-69.5 440.75,-69.5 440.75,-103"/>
<text text-anchor="start" x="346.5" y="-89.5" font-family="Helvetica,sans-Serif" font-size="10.00">lib/Dialect/POD/IR</text>
<text text-anchor="middle" x="389.62" y="-76.75" font-family="Helvetica,sans-Serif" font-size="10.00">/Types.cpp</text>
</a>
</g>
</g>
<!-- Node1&#45;&gt;Node6 -->
<g id="edge8_Node000001_Node000006" class="edge">
<title>Node1&#45;&gt;Node6</title>
<g id="a_edge8_Node000001_Node000006"><a xlink:title=" ">
<path fill="none" stroke="#63b8ff" d="M364.87,-129.03C370.03,-120.32 375.64,-110.85 380.21,-103.13"/>
<polygon fill="#63b8ff" stroke="#63b8ff" points="361.96,-127.06 359.88,-137.45 367.99,-130.63 361.96,-127.06"/>
</a>
</g>
</g>
<!-- Node7 -->
<g id="Node000007" class="node">
<title>Node7</title>
<g id="a_Node000007"><a xlink:href="Struct_2IR_2Ops_8cpp.html" target="_top" xlink:title=" ">
<polygon fill="white" stroke="#666666" points="556.12,-103 459.12,-103 459.12,-69.5 556.12,-69.5 556.12,-103"/>
<text text-anchor="start" x="467.12" y="-89.5" font-family="Helvetica,sans-Serif" font-size="10.00">lib/Dialect/Struct</text>
<text text-anchor="middle" x="507.62" y="-76.75" font-family="Helvetica,sans-Serif" font-size="10.00">/IR/Ops.cpp</text>
</a>
</g>
</g>
<!-- Node1&#45;&gt;Node7 -->
<g id="edge9_Node000001_Node000007" class="edge">
<title>Node1&#45;&gt;Node7</title>
<g id="a_edge9_Node000001_Node000007"><a xlink:title=" ">
<path fill="none" stroke="#63b8ff" d="M397.77,-134.18C420.89,-124.3 448.21,-112.63 469.82,-103.4"/>
<polygon fill="#63b8ff" stroke="#63b8ff" points="396.68,-130.84 388.86,-137.99 399.43,-137.28 396.68,-130.84"/>
</a>
</g>
</g>
<!-- Node8 -->
<g id="Node000008" class="node">
<title>Node8</title>
<g id="a_Node000008"><a xlink:href="Field_8cpp.html" target="_top" xlink:title=" ">
<polygon fill="white" stroke="#666666" points="669,-96.62 574.25,-96.62 574.25,-75.88 669,-75.88 669,-96.62"/>
<text text-anchor="middle" x="621.62" y="-83.12" font-family="Helvetica,sans-Serif" font-size="10.00">lib/Util/Field.cpp</text>
</a>
</g>
</g>
<!-- Node1&#45;&gt;Node8 -->
<g id="edge10_Node000001_Node000008" class="edge">
<title>Node1&#45;&gt;Node8</title>
<g id="a_edge10_Node000001_Node000008"><a xlink:title=" ">
<path fill="none" stroke="#63b8ff" d="M415.5,-139.67C458.37,-129.68 515.44,-116.06 565.62,-103 572.66,-101.17 580.17,-99.12 587.33,-97.12"/>
<polygon fill="#63b8ff" stroke="#63b8ff" points="414.79,-136.24 405.84,-141.91 416.37,-143.06 414.79,-136.24"/>
</a>
</g>
</g>
<!-- Node9 -->
<g id="Node000009" class="node">
<title>Node9</title>
<g id="a_Node000009"><a xlink:href="TypeHelper_8cpp.html" target="_top" xlink:title=" ">
<polygon fill="white" stroke="#666666" points="812.38,-96.62 686.88,-96.62 686.88,-75.88 812.38,-75.88 812.38,-96.62"/>
<text text-anchor="middle" x="749.62" y="-83.12" font-family="Helvetica,sans-Serif" font-size="10.00">lib/Util/TypeHelper.cpp</text>
</a>
</g>
</g>
<!-- Node1&#45;&gt;Node9 -->
<g id="edge11_Node000001_Node000009" class="edge">
<title>Node1&#45;&gt;Node9</title>
<g id="a_edge11_Node000001_Node000009"><a xlink:title=" ">
<path fill="none" stroke="#63b8ff" d="M415.47,-145.53C481.83,-135.95 587.11,-120.02 677.62,-103 687.06,-101.23 697.14,-99.14 706.69,-97.08"/>
<polygon fill="#63b8ff" stroke="#63b8ff" points="415.25,-142.02 405.85,-146.91 416.24,-148.95 415.25,-142.02"/>
</a>
</g>
</g>
<!-- Node2&#45;&gt;Node3 -->
<g id="edge2_Node000002_Node000003" class="edge">
<title>Node2&#45;&gt;Node3</title>
<g id="a_edge2_Node000002_Node000003"><a xlink:title=" ">
<path fill="none" stroke="#63b8ff" d="M150.37,-63.53C128.46,-51.41 102.25,-36.91 85.29,-27.52"/>
<polygon fill="#63b8ff" stroke="#63b8ff" points="148.63,-66.57 159.08,-68.35 152.02,-60.45 148.63,-66.57"/>
</a>
</g>
</g>
<!-- Node2&#45;&gt;Node4 -->
<g id="edge3_Node000002_Node000004" class="edge">
<title>Node2&#45;&gt;Node4</title>
<g id="a_edge3_Node000002_Node000004"><a xlink:title=" ">
<path fill="none" stroke="#63b8ff" d="M195.66,-58.1C197.5,-49.79 199.47,-40.93 201.1,-33.63"/>
<polygon fill="#63b8ff" stroke="#63b8ff" points="192.26,-57.25 193.51,-67.78 199.09,-58.77 192.26,-57.25"/>
</a>
</g>
</g>
<!-- Node2&#45;&gt;Node5 -->
<g id="edge4_Node000002_Node000005" class="edge">
<title>Node2&#45;&gt;Node5</title>
<g id="a_edge4_Node000002_Node000005"><a xlink:title=" ">
<path fill="none" stroke="#63b8ff" d="M232.14,-63.99C251.68,-54.22 274.48,-42.82 292.55,-33.79"/>
<polygon fill="#63b8ff" stroke="#63b8ff" points="230.69,-60.8 223.31,-68.41 233.82,-67.06 230.69,-60.8"/>
</a>
</g>
</g>
</g>
</svg>
