<?xml version="1.0" encoding="UTF-8" standalone="no"?>
<!DOCTYPE svg PUBLIC "-//W3C//DTD SVG 1.1//EN"
 "http://www.w3.org/Graphics/SVG/1.1/DTD/svg11.dtd">
<!-- Generated by graphviz version 12.2.1 (0)
 -->
<!-- Title: build/include/llzk/Dialect/POD/IR/Attrs.h.inc Pages: 1 -->
<svg width="2224pt" height="541pt"
 viewBox="0.00 0.00 2224.12 540.75" xmlns="http://www.w3.org/2000/svg" xmlns:xlink="http://www.w3.org/1999/xlink">
<g id="graph0" class="graph" transform="scale(1 1) rotate(0) translate(4 536.75)">
<title>build/include/llzk/Dialect/POD/IR/Attrs.h.inc</title>
<!-- Node1 -->
<g id="Node000001" class="node">
<title>Node1</title>
<g id="a_Node000001"><a xlink:title=" ">
<polygon fill="#999999" stroke="#666666" points="1474.38,-532.75 1331.62,-532.75 1331.62,-499.25 1474.38,-499.25 1474.38,-532.75"/>
<text text-anchor="start" x="1339.62" y="-519.25" font-family="Helvetica,sans-Serif" font-size="10.00">build/include/llzk</text>
<text text-anchor="middle" x="1403" y="-506.5" font-family="Helvetica,sans-Serif" font-size="10.00">/Dialect/POD/IR/Attrs.h.inc</text>
</a>
</g>
</g>
<!-- Node2 -->
<g id="Node000002" class="node">
<title>Node2</title>
<g id="a_Node000002"><a xlink:href="POD_2IR_2Attrs_8h.html" target="_top" xlink:title=" ">
<polygon fill="white" stroke="#666666" points="1457.5,-463.25 1348.5,-463.25 1348.5,-429.75 1457.5,-429.75 1457.5,-463.25"/>
<text text-anchor="start" x="1356.5" y="-449.75" font-family="Helvetica,sans-Serif" font-size="10.00">include/llzk/Dialect</text>
<text text-anchor="middle" x="1403" y="-437" font-family="Helvetica,sans-Serif" font-size="10.00">/POD/IR/Attrs.h</text>
</a>
</g>
</g>
<!-- Node1&#45;&gt;Node2 -->
<g id="edge1_Node000001_Node000002" class="edge">
<title>Node1&#45;&gt;Node2</title>
<g id="a_edge1_Node000001_Node000002"><a xlink:title=" ">
<path fill="none" stroke="#63b8ff" d="M1403,-487.56C1403,-479.34 1403,-470.59 1403,-463.38"/>
<polygon fill="#63b8ff" stroke="#63b8ff" points="1399.5,-487.49 1403,-497.49 1406.5,-487.49 1399.5,-487.49"/>
</a>
</g>
</g>
<!-- Node3 -->
<g id="Node000003" class="node">
<title>Node3</title>
<g id="a_Node000003"><a xlink:href="POD_2IR_2Types_8h.html" target="_top" xlink:title=" ">
<polygon fill="white" stroke="#666666" points="945.5,-393.75 836.5,-393.75 836.5,-360.25 945.5,-360.25 945.5,-393.75"/>
<text text-anchor="start" x="844.5" y="-380.25" font-family="Helvetica,sans-Serif" font-size="10.00">include/llzk/Dialect</text>
<text text-anchor="middle" x="891" y="-367.5" font-family="Helvetica,sans-Serif" font-size="10.00">/POD/IR/Types.h</text>
</a>
</g>
</g>
<!-- Node2&#45;&gt;Node3 -->
<g id="edge2_Node000002_Node000003" class="edge">
<title>Node2&#45;&gt;Node3</title>
<g id="a_edge2_Node000002_Node000003"><a xlink:title=" ">
<path fill="none" stroke="#63b8ff" d="M1336.82,-436.77C1234.68,-423.31 1040.54,-397.72 945.79,-385.22"/>
<polygon fill="#63b8ff" stroke="#63b8ff" points="1336.33,-440.24 1346.71,-438.08 1337.25,-433.3 1336.33,-440.24"/>
</a>
</g>
</g>
<!-- Node7 -->
<g id="Node000007" class="node">
<title>Node7</title>
<g id="a_Node000007"><a xlink:href="EmptyTemplateRemovalPass_8cpp.html" target="_top" xlink:title="This file implements the &#45;llzk&#45;drop&#45;empty&#45;templates pass.">
<polygon fill="white" stroke="#666666" points="196,-115.75 0,-115.75 0,-69.5 196,-69.5 196,-115.75"/>
<text text-anchor="start" x="8" y="-102.25" font-family="Helvetica,sans-Serif" font-size="10.00">lib/Dialect/Polymorphic</text>
<text text-anchor="start" x="8" y="-89.5" font-family="Helvetica,sans-Serif" font-size="10.00">/Transforms/EmptyTemplateRemoval</text>
<text text-anchor="middle" x="98" y="-76.75" font-family="Helvetica,sans-Serif" font-size="10.00">Pass.cpp</text>
</a>
</g>
</g>
<!-- Node2&#45;&gt;Node7 -->
<g id="edge59_Node000002_Node000007" class="edge">
<title>Node2&#45;&gt;Node7</title>
<g id="a_edge59_Node000002_Node000007"><a xlink:title=" ">
<path fill="none" stroke="#63b8ff" d="M1336.54,-445.7C1067.7,-445.64 75,-436.75 75,-308.5 75,-308.5 75,-308.5 75,-237 75,-193.64 85.38,-143.82 92.2,-115.8"/>
<polygon fill="#63b8ff" stroke="#63b8ff" points="1336.53,-449.2 1346.53,-445.7 1336.53,-442.2 1336.53,-449.2"/>
</a>
</g>
</g>
<!-- Node12 -->
<g id="Node000012" class="node">
<title>Node12</title>
<g id="a_Node000012"><a xlink:href="POD_2IR_2Dialect_8cpp.html" target="_top" xlink:title=" ">
<polygon fill="white" stroke="#666666" points="205.12,-254.75 102.88,-254.75 102.88,-221.25 205.12,-221.25 205.12,-254.75"/>
<text text-anchor="start" x="110.88" y="-241.25" font-family="Helvetica,sans-Serif" font-size="10.00">lib/Dialect/POD/IR</text>
<text text-anchor="middle" x="154" y="-228.5" font-family="Helvetica,sans-Serif" font-size="10.00">/Dialect.cpp</text>
</a>
</g>
</g>
<!-- Node2&#45;&gt;Node12 -->
<g id="edge58_Node000002_Node000012" class="edge">
<title>Node2&#45;&gt;Node12</title>
<g id="a_edge58_Node000002_Node000012"><a xlink:title=" ">
<path fill="none" stroke="#63b8ff" d="M1336.59,-443.23C1094.44,-434.39 268.37,-398.94 179,-324.25 158.64,-307.24 154.36,-274.6 153.73,-255.02"/>
<polygon fill="#63b8ff" stroke="#63b8ff" points="1336.38,-446.73 1346.5,-443.59 1336.63,-439.73 1336.38,-446.73"/>
</a>
</g>
</g>
<!-- Node16 -->
<g id="Node000016" class="node">
<title>Node16</title>
<g id="a_Node000016"><a xlink:href="WitgenLowering_8cpp.html" target="_top" xlink:title=" ">
<polygon fill="white" stroke="#666666" points="1634.25,-109.38 1499.75,-109.38 1499.75,-75.88 1634.25,-75.88 1634.25,-109.38"/>
<text text-anchor="start" x="1507.75" y="-95.88" font-family="Helvetica,sans-Serif" font-size="10.00">tools/llzk&#45;witgen/Witgen</text>
<text text-anchor="middle" x="1567" y="-83.12" font-family="Helvetica,sans-Serif" font-size="10.00">Lowering.cpp</text>
</a>
</g>
</g>
<!-- Node2&#45;&gt;Node16 -->
<g id="edge64_Node000002_Node000016" class="edge">
<title>Node2&#45;&gt;Node16</title>
<g id="a_edge64_Node000002_Node000016"><a xlink:title=" ">
<path fill="none" stroke="#63b8ff" d="M1468.94,-429.73C1527.21,-411.41 1603,-374.83 1603,-308.5 1603,-308.5 1603,-308.5 1603,-237 1603,-189.52 1584.2,-135.79 1573.77,-109.64"/>
<polygon fill="#63b8ff" stroke="#63b8ff" points="1467.93,-426.38 1459.36,-432.62 1469.95,-433.09 1467.93,-426.38"/>
</a>
</g>
</g>
<!-- Node19 -->
<g id="Node000019" class="node">
<title>Node19</title>
<g id="a_Node000019"><a xlink:href="Field_8cpp.html" target="_top" xlink:title=" ">
<polygon fill="white" stroke="#666666" points="1254.38,-317.88 1159.62,-317.88 1159.62,-297.12 1254.38,-297.12 1254.38,-317.88"/>
<text text-anchor="middle" x="1207" y="-304.38" font-family="Helvetica,sans-Serif" font-size="10.00">lib/Util/Field.cpp</text>
</a>
</g>
</g>
<!-- Node2&#45;&gt;Node19 -->
<g id="edge60_Node000002_Node000019" class="edge">
<title>Node2&#45;&gt;Node19</title>
<g id="a_edge60_Node000002_Node000019"><a xlink:title=" ">
<path fill="none" stroke="#63b8ff" d="M1370.87,-423.04C1327.46,-392.7 1251.94,-339.92 1220.92,-318.23"/>
<polygon fill="#63b8ff" stroke="#63b8ff" points="1368.69,-425.79 1378.89,-428.65 1372.7,-420.05 1368.69,-425.79"/>
</a>
</g>
</g>
<!-- Node20 -->
<g id="Node000020" class="node">
<title>Node20</title>
<g id="a_Node000020"><a xlink:href="TypeHelper_8cpp.html" target="_top" xlink:title=" ">
<polygon fill="white" stroke="#666666" points="1397.75,-317.88 1272.25,-317.88 1272.25,-297.12 1397.75,-297.12 1397.75,-317.88"/>
<text text-anchor="middle" x="1335" y="-304.38" font-family="Helvetica,sans-Serif" font-size="10.00">lib/Util/TypeHelper.cpp</text>
</a>
</g>
</g>
<!-- Node2&#45;&gt;Node20 -->
<g id="edge61_Node000002_Node000020" class="edge">
<title>Node2&#45;&gt;Node20</title>
<g id="a_edge61_Node000002_Node000020"><a xlink:title=" ">
<path fill="none" stroke="#63b8ff" d="M1390.1,-419.5C1374.83,-388.75 1350.19,-339.1 1339.83,-318.23"/>
<polygon fill="#63b8ff" stroke="#63b8ff" points="1386.81,-420.76 1394.39,-428.16 1393.08,-417.65 1386.81,-420.76"/>
</a>
</g>
</g>
<!-- Node26 -->
<g id="Node000026" class="node">
<title>Node26</title>
<g id="a_Node000026"><a xlink:href="JSON_8cpp.html" target="_top" xlink:title=" ">
<polygon fill="white" stroke="#666666" points="1914.12,-27.12 1769.88,-27.12 1769.88,-6.38 1914.12,-6.38 1914.12,-27.12"/>
<text text-anchor="middle" x="1842" y="-13.62" font-family="Helvetica,sans-Serif" font-size="10.00">tools/llzk&#45;witgen/JSON.cpp</text>
</a>
</g>
</g>
<!-- Node2&#45;&gt;Node26 -->
<g id="edge62_Node000002_Node000026" class="edge">
<title>Node2&#45;&gt;Node26</title>
<g id="a_edge62_Node000002_Node000026"><a xlink:title=" ">
<path fill="none" stroke="#63b8ff" d="M1469.11,-446.12C1640.52,-445.96 2086,-433.52 2086,-308.5 2086,-308.5 2086,-308.5 2086,-167.5 2086,-123.13 2097.83,-101.41 2067,-69.5 2046.04,-47.81 1971.96,-33.73 1914.47,-25.82"/>
<polygon fill="#63b8ff" stroke="#63b8ff" points="1469.25,-442.62 1459.25,-446.11 1469.25,-449.62 1469.25,-442.62"/>
</a>
</g>
</g>
<!-- Node27 -->
<g id="Node000027" class="node">
<title>Node27</title>
<g id="a_Node000027"><a xlink:href="ValueModel_8cpp.html" target="_top" xlink:title=" ">
<polygon fill="white" stroke="#666666" points="1012.62,-103 835.38,-103 835.38,-82.25 1012.62,-82.25 1012.62,-103"/>
<text text-anchor="middle" x="924" y="-89.5" font-family="Helvetica,sans-Serif" font-size="10.00">tools/llzk&#45;witgen/ValueModel.cpp</text>
</a>
</g>
</g>
<!-- Node2&#45;&gt;Node27 -->
<g id="edge63_Node000002_Node000027" class="edge">
<title>Node2&#45;&gt;Node27</title>
<g id="a_edge63_Node000002_Node000027"><a xlink:title=" ">
<path fill="none" stroke="#63b8ff" d="M1412.93,-418.71C1423.47,-385.18 1435.09,-327.68 1407,-290.75 1370.7,-243.03 1333.33,-275.26 1277,-254.75 1145.33,-206.81 994.59,-130.4 942.69,-103.44"/>
<polygon fill="#63b8ff" stroke="#63b8ff" points="1409.66,-417.47 1409.79,-428.06 1416.29,-419.69 1409.66,-417.47"/>
</a>
</g>
</g>
<!-- Node33 -->
<g id="Node000033" class="node">
<title>Node33</title>
<g id="a_Node000033"><a xlink:href="WitnessSelection_8cpp.html" target="_top" xlink:title=" ">
<polygon fill="white" stroke="#666666" points="2057.5,-109.38 1918.5,-109.38 1918.5,-75.88 2057.5,-75.88 2057.5,-109.38"/>
<text text-anchor="start" x="1926.5" y="-95.88" font-family="Helvetica,sans-Serif" font-size="10.00">tools/llzk&#45;witgen/Witness</text>
<text text-anchor="middle" x="1988" y="-83.12" font-family="Helvetica,sans-Serif" font-size="10.00">Selection.cpp</text>
</a>
</g>
</g>
<!-- Node2&#45;&gt;Node33 -->
<g id="edge65_Node000002_Node000033" class="edge">
<title>Node2&#45;&gt;Node33</title>
<g id="a_edge65_Node000002_Node000033"><a xlink:title=" ">
<path fill="none" stroke="#63b8ff" d="M1468.6,-442.24C1610.04,-433.43 1931,-403.01 1931,-308.5 1931,-308.5 1931,-308.5 1931,-237 1931,-187.71 1960.45,-135.21 1977.01,-109.57"/>
<polygon fill="#63b8ff" stroke="#63b8ff" points="1468.8,-438.72 1459.03,-442.82 1469.22,-445.71 1468.8,-438.72"/>
</a>
</g>
</g>
<!-- Node35 -->
<g id="Node000035" class="node">
<title>Node35</title>
<g id="a_Node000035"><a xlink:href="POD_2IR_2Attrs_8cpp.html" target="_top" xlink:title=" ">
<polygon fill="white" stroke="#666666" points="2216.12,-393.75 2113.88,-393.75 2113.88,-360.25 2216.12,-360.25 2216.12,-393.75"/>
<text text-anchor="start" x="2121.88" y="-380.25" font-family="Helvetica,sans-Serif" font-size="10.00">lib/Dialect/POD/IR</text>
<text text-anchor="middle" x="2165" y="-367.5" font-family="Helvetica,sans-Serif" font-size="10.00">/Attrs.cpp</text>
</a>
</g>
</g>
<!-- Node2&#45;&gt;Node35 -->
<g id="edge57_Node000002_Node000035" class="edge">
<title>Node2&#45;&gt;Node35</title>
<g id="a_edge57_Node000002_Node000035"><a xlink:title=" ">
<path fill="none" stroke="#63b8ff" d="M1468.74,-444.2C1592.85,-440.95 1869.85,-429.93 2100,-393.75 2104.47,-393.05 2109.09,-392.19 2113.71,-391.25"/>
<polygon fill="#63b8ff" stroke="#63b8ff" points="1468.99,-440.69 1459.09,-444.44 1469.17,-447.69 1468.99,-440.69"/>
</a>
</g>
</g>
<!-- Node4 -->
<g id="Node000004" class="node">
<title>Node4</title>
<g id="a_Node000004"><a xlink:href="POD_2IR_2Ops_8h.html" target="_top" xlink:title=" ">
<polygon fill="white" stroke="#666666" points="607.5,-324.25 498.5,-324.25 498.5,-290.75 607.5,-290.75 607.5,-324.25"/>
<text text-anchor="start" x="506.5" y="-310.75" font-family="Helvetica,sans-Serif" font-size="10.00">include/llzk/Dialect</text>
<text text-anchor="middle" x="553" y="-298" font-family="Helvetica,sans-Serif" font-size="10.00">/POD/IR/Ops.h</text>
</a>
</g>
</g>
<!-- Node3&#45;&gt;Node4 -->
<g id="edge3_Node000003_Node000004" class="edge">
<title>Node3&#45;&gt;Node4</title>
<g id="a_edge3_Node000003_Node000004"><a xlink:title=" ">
<path fill="none" stroke="#63b8ff" d="M825.12,-364.6C769.49,-354.72 687.81,-339.64 617,-324.25 613.98,-323.59 610.89,-322.9 607.77,-322.19"/>
<polygon fill="#63b8ff" stroke="#63b8ff" points="824.29,-368.01 834.75,-366.3 825.51,-361.11 824.29,-368.01"/>
</a>
</g>
</g>
<!-- Node3&#45;&gt;Node7 -->
<g id="edge20_Node000003_Node000007" class="edge">
<title>Node3&#45;&gt;Node7</title>
<g id="a_edge20_Node000003_Node000007"><a xlink:title=" ">
<path fill="none" stroke="#63b8ff" d="M824.87,-370.7C744.76,-363.54 606.01,-348.78 489,-324.25 381.57,-301.73 345.77,-311.81 252,-254.75 236.01,-245.02 156.21,-157.94 118.2,-116.01"/>
<polygon fill="#63b8ff" stroke="#63b8ff" points="824.48,-374.18 834.74,-371.57 825.09,-367.21 824.48,-374.18"/>
</a>
</g>
</g>
<!-- Node11 -->
<g id="Node000011" class="node">
<title>Node11</title>
<g id="a_Node000011"><a xlink:href="POD_8cpp.html" target="_top" xlink:title=" ">
<polygon fill="white" stroke="#666666" points="930.62,-248.38 795.38,-248.38 795.38,-227.62 930.62,-227.62 930.62,-248.38"/>
<text text-anchor="middle" x="863" y="-234.88" font-family="Helvetica,sans-Serif" font-size="10.00">lib/CAPI/Dialect/POD.cpp</text>
</a>
</g>
</g>
<!-- Node3&#45;&gt;Node11 -->
<g id="edge16_Node000003_Node000011" class="edge">
<title>Node3&#45;&gt;Node11</title>
<g id="a_edge16_Node000003_Node000011"><a xlink:title=" ">
<path fill="none" stroke="#63b8ff" d="M891.87,-348.75C891.81,-331.83 890.62,-309.76 886,-290.75 882.24,-275.27 874.03,-258.66 868.5,-248.55"/>
<polygon fill="#63b8ff" stroke="#63b8ff" points="888.37,-348.49 891.77,-358.52 895.37,-348.56 888.37,-348.49"/>
</a>
</g>
</g>
<!-- Node3&#45;&gt;Node12 -->
<g id="edge17_Node000003_Node000012" class="edge">
<title>Node3&#45;&gt;Node12</title>
<g id="a_edge17_Node000003_Node000012"><a xlink:title=" ">
<path fill="none" stroke="#63b8ff" d="M824.76,-373.96C665.68,-368.64 271.34,-352.71 219,-324.25 190.71,-308.87 170.97,-275.34 161.15,-255.22"/>
<polygon fill="#63b8ff" stroke="#63b8ff" points="824.63,-377.46 834.74,-374.29 824.86,-370.47 824.63,-377.46"/>
</a>
</g>
</g>
<!-- Node13 -->
<g id="Node000013" class="node">
<title>Node13</title>
<g id="a_Node000013"><a xlink:href="POD_2IR_2Ops_8cpp.html" target="_top" xlink:title=" ">
<polygon fill="white" stroke="#666666" points="777.12,-254.75 674.88,-254.75 674.88,-221.25 777.12,-221.25 777.12,-254.75"/>
<text text-anchor="start" x="682.88" y="-241.25" font-family="Helvetica,sans-Serif" font-size="10.00">lib/Dialect/POD/IR</text>
<text text-anchor="middle" x="726" y="-228.5" font-family="Helvetica,sans-Serif" font-size="10.00">/Ops.cpp</text>
</a>
</g>
</g>
<!-- Node3&#45;&gt;Node13 -->
<g id="edge18_Node000003_Node000013" class="edge">
<title>Node3&#45;&gt;Node13</title>
<g id="a_edge18_Node000003_Node000013"><a xlink:title=" ">
<path fill="none" stroke="#63b8ff" d="M884.26,-348.8C878.45,-330.31 868.34,-306.46 852,-290.75 840.45,-279.65 805.83,-265.8 775.79,-255.22"/>
<polygon fill="#63b8ff" stroke="#63b8ff" points="880.87,-349.66 887,-358.31 887.6,-347.73 880.87,-349.66"/>
</a>
</g>
</g>
<!-- Node17 -->
<g id="Node000017" class="node">
<title>Node17</title>
<g id="a_Node000017"><a xlink:href="POD_2IR_2Types_8cpp.html" target="_top" xlink:title=" ">
<polygon fill="white" stroke="#666666" points="728.12,-324.25 625.88,-324.25 625.88,-290.75 728.12,-290.75 728.12,-324.25"/>
<text text-anchor="start" x="633.88" y="-310.75" font-family="Helvetica,sans-Serif" font-size="10.00">lib/Dialect/POD/IR</text>
<text text-anchor="middle" x="677" y="-298" font-family="Helvetica,sans-Serif" font-size="10.00">/Types.cpp</text>
</a>
</g>
</g>
<!-- Node3&#45;&gt;Node17 -->
<g id="edge19_Node000003_Node000017" class="edge">
<title>Node3&#45;&gt;Node17</title>
<g id="a_edge19_Node000003_Node000017"><a xlink:title=" ">
<path fill="none" stroke="#63b8ff" d="M829.16,-356.49C797.15,-346.4 758.53,-334.22 728.21,-324.65"/>
<polygon fill="#63b8ff" stroke="#63b8ff" points="827.71,-359.71 838.3,-359.38 829.81,-353.03 827.71,-359.71"/>
</a>
</g>
</g>
<!-- Node18 -->
<g id="Node000018" class="node">
<title>Node18</title>
<g id="a_Node000018"><a xlink:href="Struct_2IR_2Ops_8cpp.html" target="_top" xlink:title=" ">
<polygon fill="white" stroke="#666666" points="843.5,-324.25 746.5,-324.25 746.5,-290.75 843.5,-290.75 843.5,-324.25"/>
<text text-anchor="start" x="754.5" y="-310.75" font-family="Helvetica,sans-Serif" font-size="10.00">lib/Dialect/Struct</text>
<text text-anchor="middle" x="795" y="-298" font-family="Helvetica,sans-Serif" font-size="10.00">/IR/Ops.cpp</text>
</a>
</g>
</g>
<!-- Node3&#45;&gt;Node18 -->
<g id="edge21_Node000003_Node000018" class="edge">
<title>Node3&#45;&gt;Node18</title>
<g id="a_edge21_Node000003_Node000018"><a xlink:title=" ">
<path fill="none" stroke="#63b8ff" d="M858.88,-353.41C845.46,-343.98 830.17,-333.23 817.92,-324.62"/>
<polygon fill="#63b8ff" stroke="#63b8ff" points="856.82,-356.24 867.01,-359.13 860.84,-350.52 856.82,-356.24"/>
</a>
</g>
</g>
<!-- Node3&#45;&gt;Node19 -->
<g id="edge22_Node000003_Node000019" class="edge">
<title>Node3&#45;&gt;Node19</title>
<g id="a_edge22_Node000003_Node000019"><a xlink:title=" ">
<path fill="none" stroke="#63b8ff" d="M956.89,-363.61C1008.5,-353.67 1082.02,-338.99 1146,-324.25 1153.89,-322.43 1162.31,-320.35 1170.3,-318.31"/>
<polygon fill="#63b8ff" stroke="#63b8ff" points="956.54,-360.12 947.38,-365.44 957.86,-366.99 956.54,-360.12"/>
</a>
</g>
</g>
<!-- Node3&#45;&gt;Node20 -->
<g id="edge23_Node000003_Node000020" class="edge">
<title>Node3&#45;&gt;Node20</title>
<g id="a_edge23_Node000003_Node000020"><a xlink:title=" ">
<path fill="none" stroke="#63b8ff" d="M956.8,-368.4C1031.34,-359.44 1156.31,-343.31 1263,-324.25 1272.57,-322.54 1282.81,-320.46 1292.47,-318.37"/>
<polygon fill="#63b8ff" stroke="#63b8ff" points="956.75,-364.88 947.24,-369.55 957.58,-371.83 956.75,-364.88"/>
</a>
</g>
</g>
<!-- Node21 -->
<g id="Node000021" class="node">
<title>Node21</title>
<g id="a_Node000021"><a xlink:href="ValueModel_8h.html" target="_top" xlink:title=" ">
<polygon fill="white" stroke="#666666" points="1104,-317.88 938,-317.88 938,-297.12 1104,-297.12 1104,-317.88"/>
<text text-anchor="middle" x="1021" y="-304.38" font-family="Helvetica,sans-Serif" font-size="10.00">tools/llzk&#45;witgen/ValueModel.h</text>
</a>
</g>
</g>
<!-- Node3&#45;&gt;Node21 -->
<g id="edge24_Node000003_Node000021" class="edge">
<title>Node3&#45;&gt;Node21</title>
<g id="a_edge24_Node000003_Node000021"><a xlink:title=" ">
<path fill="none" stroke="#63b8ff" d="M932.19,-354.61C955.67,-342.42 983.94,-327.74 1002.18,-318.27"/>
<polygon fill="#63b8ff" stroke="#63b8ff" points="930.74,-351.42 923.48,-359.13 933.97,-357.63 930.74,-351.42"/>
</a>
</g>
</g>
<!-- Node3&#45;&gt;Node33 -->
<g id="edge56_Node000003_Node000033" class="edge">
<title>Node3&#45;&gt;Node33</title>
<g id="a_edge56_Node000003_Node000033"><a xlink:title=" ">
<path fill="none" stroke="#63b8ff" d="M956.88,-369.27C1002.67,-362.58 1064.03,-349.48 1113,-324.25 1133.01,-313.94 1130.23,-299.43 1151,-290.75 1365.58,-201.11 1448.93,-316.97 1673,-254.75 1790.19,-222.21 1914.54,-143.62 1964.87,-109.68"/>
<polygon fill="#63b8ff" stroke="#63b8ff" points="956.52,-365.79 947.09,-370.63 957.48,-372.72 956.52,-365.79"/>
</a>
</g>
</g>
<!-- Node5 -->
<g id="Node000005" class="node">
<title>Node5</title>
<g id="a_Node000005"><a xlink:href="TypeConversionPatterns_8h.html" target="_top" xlink:title="Reusable MLIR dialect conversion functions for LLZK StructType replacement.">
<polygon fill="white" stroke="#666666" points="442.88,-254.75 261.12,-254.75 261.12,-221.25 442.88,-221.25 442.88,-254.75"/>
<text text-anchor="start" x="269.12" y="-241.25" font-family="Helvetica,sans-Serif" font-size="10.00">include/llzk/Dialect</text>
<text text-anchor="middle" x="352" y="-228.5" font-family="Helvetica,sans-Serif" font-size="10.00">/Shared/TypeConversionPatterns.h</text>
</a>
</g>
</g>
<!-- Node4&#45;&gt;Node5 -->
<g id="edge4_Node000004_Node000005" class="edge">
<title>Node4&#45;&gt;Node5</title>
<g id="a_edge4_Node000004_Node000005"><a xlink:title=" ">
<path fill="none" stroke="#63b8ff" d="M494.13,-286.73C464.22,-276.69 428.33,-264.63 400.1,-255.15"/>
<polygon fill="#63b8ff" stroke="#63b8ff" points="492.83,-289.98 503.42,-289.85 495.06,-283.35 492.83,-289.98"/>
</a>
</g>
</g>
<!-- Node4&#45;&gt;Node11 -->
<g id="edge10_Node000004_Node000011" class="edge">
<title>Node4&#45;&gt;Node11</title>
<g id="a_edge10_Node000004_Node000011"><a xlink:title=" ">
<path fill="none" stroke="#63b8ff" d="M618.95,-290.37C668.78,-279.23 759.14,-260.44 815.1,-248.87"/>
<polygon fill="#63b8ff" stroke="#63b8ff" points="618.24,-286.94 609.26,-292.55 619.79,-293.77 618.24,-286.94"/>
</a>
</g>
</g>
<!-- Node4&#45;&gt;Node12 -->
<g id="edge11_Node000004_Node000012" class="edge">
<title>Node4&#45;&gt;Node12</title>
<g id="a_edge11_Node000004_Node000012"><a xlink:title=" ">
<path fill="none" stroke="#63b8ff" d="M487.09,-295.35C408.1,-281.99 277.41,-259.88 205.46,-247.71"/>
<polygon fill="#63b8ff" stroke="#63b8ff" points="486.42,-298.79 496.87,-297 487.59,-291.88 486.42,-298.79"/>
</a>
</g>
</g>
<!-- Node4&#45;&gt;Node13 -->
<g id="edge12_Node000004_Node000013" class="edge">
<title>Node4&#45;&gt;Node13</title>
<g id="a_edge12_Node000004_Node000013"><a xlink:title=" ">
<path fill="none" stroke="#63b8ff" d="M605.03,-286.2C630.5,-276.26 660.73,-264.47 684.6,-255.15"/>
<polygon fill="#63b8ff" stroke="#63b8ff" points="603.89,-282.89 595.85,-289.78 606.44,-289.41 603.89,-282.89"/>
</a>
</g>
</g>
<!-- Node14 -->
<g id="Node000014" class="node">
<title>Node14</title>
<g id="a_Node000014"><a xlink:href="SymbolTableLLZK_8cpp.html" target="_top" xlink:title="This is a selection of code from mlir/lib/IR/SymbolTable.cpp to support a modified version of walkSym...">
<polygon fill="white" stroke="#666666" points="618.88,-248.38 461.12,-248.38 461.12,-227.62 618.88,-227.62 618.88,-248.38"/>
<text text-anchor="middle" x="540" y="-234.88" font-family="Helvetica,sans-Serif" font-size="10.00">lib/Util/SymbolTableLLZK.cpp</text>
</a>
</g>
</g>
<!-- Node4&#45;&gt;Node14 -->
<g id="edge13_Node000004_Node000014" class="edge">
<title>Node4&#45;&gt;Node14</title>
<g id="a_edge13_Node000004_Node000014"><a xlink:title=" ">
<path fill="none" stroke="#63b8ff" d="M547.78,-279.38C545.7,-268.58 543.44,-256.85 541.89,-248.82"/>
<polygon fill="#63b8ff" stroke="#63b8ff" points="544.3,-279.86 549.63,-289.02 551.18,-278.54 544.3,-279.86"/>
</a>
</g>
</g>
<!-- Node15 -->
<g id="Node000015" class="node">
<title>Node15</title>
<g id="a_Node000015"><a xlink:href="Interpreter_8cpp.html" target="_top" xlink:title=" ">
<polygon fill="white" stroke="#666666" points="817.62,-103 646.38,-103 646.38,-82.25 817.62,-82.25 817.62,-103"/>
<text text-anchor="middle" x="732" y="-89.5" font-family="Helvetica,sans-Serif" font-size="10.00">tools/llzk&#45;witgen/Interpreter.cpp</text>
</a>
</g>
</g>
<!-- Node4&#45;&gt;Node15 -->
<g id="edge14_Node000004_Node000015" class="edge">
<title>Node4&#45;&gt;Node15</title>
<g id="a_edge14_Node000004_Node000015"><a xlink:title=" ">
<path fill="none" stroke="#63b8ff" d="M594.48,-284.44C606.58,-276.4 618.97,-266.39 628,-254.75 657.92,-216.21 638.4,-191.99 666,-151.75 679.9,-131.48 702.42,-113.71 717.22,-103.32"/>
<polygon fill="#63b8ff" stroke="#63b8ff" points="592.8,-281.37 586.19,-289.65 596.52,-287.29 592.8,-281.37"/>
</a>
</g>
</g>
<!-- Node4&#45;&gt;Node16 -->
<g id="edge15_Node000004_Node000016" class="edge">
<title>Node4&#45;&gt;Node16</title>
<g id="a_edge15_Node000004_Node000016"><a xlink:title=" ">
<path fill="none" stroke="#63b8ff" d="M619,-290.78C813.68,-266.74 1260.24,-308.45 1429,-254.75 1483.39,-237.44 1502.11,-230.42 1537,-185.25 1554.5,-162.6 1562,-129.33 1565.06,-109.73"/>
<polygon fill="#63b8ff" stroke="#63b8ff" points="618.62,-287.3 609.17,-292.09 619.55,-294.24 618.62,-287.3"/>
</a>
</g>
</g>
<!-- Node6 -->
<g id="Node000006" class="node">
<title>Node6</title>
<g id="a_Node000006"><a xlink:href="SharedImpl_8h.html" target="_top" xlink:title="Common private implementation for poly dialect passes.">
<polygon fill="white" stroke="#666666" points="401.25,-185.25 260.75,-185.25 260.75,-151.75 401.25,-151.75 401.25,-185.25"/>
<text text-anchor="start" x="268.75" y="-171.75" font-family="Helvetica,sans-Serif" font-size="10.00">lib/Dialect/Polymorphic</text>
<text text-anchor="middle" x="331" y="-159" font-family="Helvetica,sans-Serif" font-size="10.00">/Transforms/SharedImpl.h</text>
</a>
</g>
</g>
<!-- Node5&#45;&gt;Node6 -->
<g id="edge5_Node000005_Node000006" class="edge">
<title>Node5&#45;&gt;Node6</title>
<g id="a_edge5_Node000005_Node000006"><a xlink:title=" ">
<path fill="none" stroke="#63b8ff" d="M343.64,-210.14C341.03,-201.75 338.24,-192.76 335.94,-185.38"/>
<polygon fill="#63b8ff" stroke="#63b8ff" points="340.26,-211.05 346.57,-219.56 346.94,-208.97 340.26,-211.05"/>
</a>
</g>
</g>
<!-- Node10 -->
<g id="Node000010" class="node">
<title>Node10</title>
<g id="a_Node000010"><a xlink:href="Struct_2IR_2Dialect_8cpp.html" target="_top" xlink:title=" ">
<polygon fill="white" stroke="#666666" points="516.5,-185.25 419.5,-185.25 419.5,-151.75 516.5,-151.75 516.5,-185.25"/>
<text text-anchor="start" x="427.5" y="-171.75" font-family="Helvetica,sans-Serif" font-size="10.00">lib/Dialect/Struct</text>
<text text-anchor="middle" x="468" y="-159" font-family="Helvetica,sans-Serif" font-size="10.00">/IR/Dialect.cpp</text>
</a>
</g>
</g>
<!-- Node5&#45;&gt;Node10 -->
<g id="edge9_Node000005_Node000010" class="edge">
<title>Node5&#45;&gt;Node10</title>
<g id="a_edge9_Node000005_Node000010"><a xlink:title=" ">
<path fill="none" stroke="#63b8ff" d="M389.69,-215.07C406.22,-205.45 425.27,-194.36 440.44,-185.54"/>
<polygon fill="#63b8ff" stroke="#63b8ff" points="387.98,-212.02 381.09,-220.07 391.5,-218.07 387.98,-212.02"/>
</a>
</g>
</g>
<!-- Node6&#45;&gt;Node7 -->
<g id="edge6_Node000006_Node000007" class="edge">
<title>Node6&#45;&gt;Node7</title>
<g id="a_edge6_Node000006_Node000007"><a xlink:title=" ">
<path fill="none" stroke="#63b8ff" d="M268.89,-147.81C238.25,-138.09 201.14,-126.33 169.34,-116.24"/>
<polygon fill="#63b8ff" stroke="#63b8ff" points="267.83,-151.14 278.42,-150.83 269.95,-144.47 267.83,-151.14"/>
</a>
</g>
</g>
<!-- Node8 -->
<g id="Node000008" class="node">
<title>Node8</title>
<g id="a_Node000008"><a xlink:href="FlatteningPass_8cpp.html" target="_top" xlink:title="This file implements the &#45;llzk&#45;flatten pass.">
<polygon fill="white" stroke="#666666" points="551.75,-109.38 384.25,-109.38 384.25,-75.88 551.75,-75.88 551.75,-109.38"/>
<text text-anchor="start" x="392.25" y="-95.88" font-family="Helvetica,sans-Serif" font-size="10.00">lib/Dialect/Polymorphic</text>
<text text-anchor="middle" x="468" y="-83.12" font-family="Helvetica,sans-Serif" font-size="10.00">/Transforms/FlatteningPass.cpp</text>
</a>
</g>
</g>
<!-- Node6&#45;&gt;Node8 -->
<g id="edge7_Node000006_Node000008" class="edge">
<title>Node6&#45;&gt;Node8</title>
<g id="a_edge7_Node000006_Node000008"><a xlink:title=" ">
<path fill="none" stroke="#63b8ff" d="M371.15,-145.85C392.54,-134.32 418.39,-120.38 438,-109.8"/>
<polygon fill="#63b8ff" stroke="#63b8ff" points="369.54,-142.74 362.4,-150.57 372.86,-148.9 369.54,-142.74"/>
</a>
</g>
</g>
<!-- Node9 -->
<g id="Node000009" class="node">
<title>Node9</title>
<g id="a_Node000009"><a xlink:href="SharedImpl_8cpp.html" target="_top" xlink:title=" ">
<polygon fill="white" stroke="#666666" points="365.88,-109.38 214.12,-109.38 214.12,-75.88 365.88,-75.88 365.88,-109.38"/>
<text text-anchor="start" x="222.12" y="-95.88" font-family="Helvetica,sans-Serif" font-size="10.00">lib/Dialect/Polymorphic</text>
<text text-anchor="middle" x="290" y="-83.12" font-family="Helvetica,sans-Serif" font-size="10.00">/Transforms/SharedImpl.cpp</text>
</a>
</g>
</g>
<!-- Node6&#45;&gt;Node9 -->
<g id="edge8_Node000006_Node000009" class="edge">
<title>Node6&#45;&gt;Node9</title>
<g id="a_edge8_Node000006_Node000009"><a xlink:title=" ">
<path fill="none" stroke="#63b8ff" d="M316.54,-141.45C310.65,-130.84 304.03,-118.91 298.88,-109.62"/>
<polygon fill="#63b8ff" stroke="#63b8ff" points="313.46,-143.1 321.37,-150.15 319.58,-139.7 313.46,-143.1"/>
</a>
</g>
</g>
<!-- Node22 -->
<g id="Node000022" class="node">
<title>Node22</title>
<g id="a_Node000022"><a xlink:href="ExecutionEngineBackend_8cpp.html" target="_top" xlink:title=" ">
<polygon fill="white" stroke="#666666" points="1279.62,-33.5 1132.38,-33.5 1132.38,0 1279.62,0 1279.62,-33.5"/>
<text text-anchor="start" x="1140.38" y="-20" font-family="Helvetica,sans-Serif" font-size="10.00">tools/llzk&#45;witgen/Execution</text>
<text text-anchor="middle" x="1206" y="-7.25" font-family="Helvetica,sans-Serif" font-size="10.00">EngineBackend.cpp</text>
</a>
</g>
</g>
<!-- Node21&#45;&gt;Node22 -->
<g id="edge25_Node000021_Node000022" class="edge">
<title>Node21&#45;&gt;Node22</title>
<g id="a_edge25_Node000021_Node000022"><a xlink:title=" ">
<path fill="none" stroke="#63b8ff" d="M1004.33,-288.66C981.22,-263.97 942.05,-222.29 940,-221.25 830.54,-165.54 769.16,-251.91 666,-185.25 619.91,-155.47 585.95,-109.98 623,-69.5 656.72,-32.65 982.57,-21.88 1131.91,-18.86"/>
<polygon fill="#63b8ff" stroke="#63b8ff" points="1001.59,-290.86 1010.98,-295.77 1006.71,-286.08 1001.59,-290.86"/>
</a>
</g>
</g>
<!-- Node23 -->
<g id="Node000023" class="node">
<title>Node23</title>
<g id="a_Node000023"><a xlink:href="Interpreter_8h.html" target="_top" xlink:title=" ">
<polygon fill="white" stroke="#666666" points="835,-178.88 675,-178.88 675,-158.12 835,-158.12 835,-178.88"/>
<text text-anchor="middle" x="755" y="-165.38" font-family="Helvetica,sans-Serif" font-size="10.00">tools/llzk&#45;witgen/Interpreter.h</text>
</a>
</g>
</g>
<!-- Node21&#45;&gt;Node23 -->
<g id="edge26_Node000021_Node000023" class="edge">
<title>Node21&#45;&gt;Node23</title>
<g id="a_edge26_Node000021_Node000023"><a xlink:title=" ">
<path fill="none" stroke="#63b8ff" d="M1014.84,-286.06C1007.86,-266.45 994.57,-237.5 973,-221.25 933.62,-191.59 879.79,-178.61 835.48,-173.07"/>
<polygon fill="#63b8ff" stroke="#63b8ff" points="1011.47,-287.01 1017.91,-295.42 1018.12,-284.83 1011.47,-287.01"/>
</a>
</g>
</g>
<!-- Node25 -->
<g id="Node000025" class="node">
<title>Node25</title>
<g id="a_Node000025"><a xlink:href="JSON_8h.html" target="_top" xlink:title=" ">
<polygon fill="white" stroke="#666666" points="1861.5,-103 1728.5,-103 1728.5,-82.25 1861.5,-82.25 1861.5,-103"/>
<text text-anchor="middle" x="1795" y="-89.5" font-family="Helvetica,sans-Serif" font-size="10.00">tools/llzk&#45;witgen/JSON.h</text>
</a>
</g>
</g>
<!-- Node21&#45;&gt;Node25 -->
<g id="edge29_Node000021_Node000025" class="edge">
<title>Node21&#45;&gt;Node25</title>
<g id="a_edge29_Node000021_Node000025"><a xlink:title=" ">
<path fill="none" stroke="#63b8ff" d="M1088,-294.88C1098.04,-293.35 1108.28,-291.92 1118,-290.75 1322.05,-266.26 1377.81,-296.67 1579,-254.75 1671.54,-235.47 1719.1,-257.54 1780,-185.25 1800.04,-161.46 1798.39,-121.46 1796.36,-103.22"/>
<polygon fill="#63b8ff" stroke="#63b8ff" points="1087.63,-291.39 1078.29,-296.39 1088.71,-298.31 1087.63,-291.39"/>
</a>
</g>
</g>
<!-- Node21&#45;&gt;Node27 -->
<g id="edge33_Node000021_Node000027" class="edge">
<title>Node21&#45;&gt;Node27</title>
<g id="a_edge33_Node000021_Node000027"><a xlink:title=" ">
<path fill="none" stroke="#63b8ff" d="M1017.96,-285.5C1014.96,-267.9 1009.58,-242.32 1001,-221.25 981.78,-174.03 946.54,-123.91 931.32,-103.31"/>
<polygon fill="#63b8ff" stroke="#63b8ff" points="1014.48,-285.91 1019.49,-295.24 1021.39,-284.82 1014.48,-285.91"/>
</a>
</g>
</g>
<!-- Node28 -->
<g id="Node000028" class="node">
<title>Node28</title>
<g id="a_Node000028"><a xlink:href="WitgenDriver_8h.html" target="_top" xlink:title=" ">
<polygon fill="white" stroke="#666666" points="1420.25,-254.75 1285.75,-254.75 1285.75,-221.25 1420.25,-221.25 1420.25,-254.75"/>
<text text-anchor="start" x="1293.75" y="-241.25" font-family="Helvetica,sans-Serif" font-size="10.00">tools/llzk&#45;witgen/Witgen</text>
<text text-anchor="middle" x="1353" y="-228.5" font-family="Helvetica,sans-Serif" font-size="10.00">Driver.h</text>
</a>
</g>
</g>
<!-- Node21&#45;&gt;Node28 -->
<g id="edge34_Node000021_Node000028" class="edge">
<title>Node21&#45;&gt;Node28</title>
<g id="a_edge34_Node000021_Node000028"><a xlink:title=" ">
<path fill="none" stroke="#63b8ff" d="M1080.38,-294.43C1137.95,-282.72 1225.18,-264.99 1285.39,-252.75"/>
<polygon fill="#63b8ff" stroke="#63b8ff" points="1079.86,-290.96 1070.76,-296.38 1081.26,-297.82 1079.86,-290.96"/>
</a>
</g>
</g>
<!-- Node23&#45;&gt;Node15 -->
<g id="edge27_Node000023_Node000015" class="edge">
<title>Node23&#45;&gt;Node15</title>
<g id="a_edge27_Node000023_Node000015"><a xlink:title=" ">
<path fill="none" stroke="#63b8ff" d="M748.62,-147C744.14,-132.62 738.37,-114.07 734.93,-103.05"/>
<polygon fill="#63b8ff" stroke="#63b8ff" points="745.23,-147.89 751.54,-156.4 751.91,-145.81 745.23,-147.89"/>
</a>
</g>
</g>
<!-- Node24 -->
<g id="Node000024" class="node">
<title>Node24</title>
<g id="a_Node000024"><a xlink:href="WitgenDriver_8cpp.html" target="_top" xlink:title=" ">
<polygon fill="white" stroke="#666666" points="1482.25,-33.5 1347.75,-33.5 1347.75,0 1482.25,0 1482.25,-33.5"/>
<text text-anchor="start" x="1355.75" y="-20" font-family="Helvetica,sans-Serif" font-size="10.00">tools/llzk&#45;witgen/Witgen</text>
<text text-anchor="middle" x="1415" y="-7.25" font-family="Helvetica,sans-Serif" font-size="10.00">Driver.cpp</text>
</a>
</g>
</g>
<!-- Node23&#45;&gt;Node24 -->
<g id="edge28_Node000023_Node000024" class="edge">
<title>Node23&#45;&gt;Node24</title>
<g id="a_edge28_Node000023_Node000024"><a xlink:title=" ">
<path fill="none" stroke="#63b8ff" d="M690.35,-154.05C669.77,-146.38 649.19,-134.41 637,-115.75 625.76,-98.54 622.87,-84.43 637,-69.5 686.87,-16.8 1216.74,-40 1289,-33.5 1307.99,-31.79 1328.54,-29.44 1347.41,-27.07"/>
<polygon fill="#63b8ff" stroke="#63b8ff" points="689.05,-157.3 699.64,-157.19 691.29,-150.67 689.05,-157.3"/>
</a>
</g>
</g>
<!-- Node25&#45;&gt;Node22 -->
<g id="edge30_Node000025_Node000022" class="edge">
<title>Node25&#45;&gt;Node22</title>
<g id="a_edge30_Node000025_Node000022"><a xlink:title=" ">
<path fill="none" stroke="#63b8ff" d="M1735.59,-79.64C1716.6,-76.07 1695.46,-72.34 1676,-69.5 1526.95,-47.72 1488.68,-50.36 1339,-33.5 1319.82,-31.34 1299.1,-28.93 1279.85,-26.65"/>
<polygon fill="#63b8ff" stroke="#63b8ff" points="1734.83,-83.06 1745.31,-81.5 1736.14,-76.19 1734.83,-83.06"/>
</a>
</g>
</g>
<!-- Node25&#45;&gt;Node24 -->
<g id="edge32_Node000025_Node000024" class="edge">
<title>Node25&#45;&gt;Node24</title>
<g id="a_edge32_Node000025_Node000024"><a xlink:title=" ">
<path fill="none" stroke="#63b8ff" d="M1750.68,-78.7C1738.82,-75.47 1725.97,-72.16 1714,-69.5 1635.07,-51.93 1543.29,-36.83 1482.45,-27.55"/>
<polygon fill="#63b8ff" stroke="#63b8ff" points="1749.65,-82.05 1760.22,-81.35 1751.52,-75.3 1749.65,-82.05"/>
</a>
</g>
</g>
<!-- Node25&#45;&gt;Node26 -->
<g id="edge31_Node000025_Node000026" class="edge">
<title>Node25&#45;&gt;Node26</title>
<g id="a_edge31_Node000025_Node000026"><a xlink:title=" ">
<path fill="none" stroke="#63b8ff" d="M1807.22,-72.41C1816.48,-57.87 1828.78,-38.52 1836,-27.18"/>
<polygon fill="#63b8ff" stroke="#63b8ff" points="1804.37,-70.37 1801.96,-80.69 1810.28,-74.13 1804.37,-70.37"/>
</a>
</g>
</g>
<!-- Node28&#45;&gt;Node16 -->
<g id="edge39_Node000028_Node000016" class="edge">
<title>Node28&#45;&gt;Node16</title>
<g id="a_edge39_Node000028_Node000016"><a xlink:title=" ">
<path fill="none" stroke="#63b8ff" d="M1431.81,-221.79C1457.93,-213.99 1485.95,-202.38 1508,-185.25 1534,-165.05 1551.91,-129.98 1560.72,-109.59"/>
<polygon fill="#63b8ff" stroke="#63b8ff" points="1430.88,-218.41 1422.21,-224.49 1432.78,-225.15 1430.88,-218.41"/>
</a>
</g>
</g>
<!-- Node28&#45;&gt;Node24 -->
<g id="edge38_Node000028_Node000024" class="edge">
<title>Node28&#45;&gt;Node24</title>
<g id="a_edge38_Node000028_Node000024"><a xlink:title=" ">
<path fill="none" stroke="#63b8ff" d="M1355.56,-209.47C1358.01,-192.15 1362.78,-169.76 1372,-151.75 1381.75,-132.69 1395.29,-135.3 1404,-115.75 1415.99,-88.85 1416.83,-53.86 1416.1,-33.79"/>
<polygon fill="#63b8ff" stroke="#63b8ff" points="1352.1,-208.93 1354.36,-219.28 1359.05,-209.78 1352.1,-208.93"/>
</a>
</g>
</g>
<!-- Node29 -->
<g id="Node000029" class="node">
<title>Node29</title>
<g id="a_Node000029"><a xlink:href="ExecutionEngineBackend_8h.html" target="_top" xlink:title=" ">
<polygon fill="white" stroke="#666666" points="1177.62,-109.38 1030.38,-109.38 1030.38,-75.88 1177.62,-75.88 1177.62,-109.38"/>
<text text-anchor="start" x="1038.38" y="-95.88" font-family="Helvetica,sans-Serif" font-size="10.00">tools/llzk&#45;witgen/Execution</text>
<text text-anchor="middle" x="1104" y="-83.12" font-family="Helvetica,sans-Serif" font-size="10.00">EngineBackend.h</text>
</a>
</g>
</g>
<!-- Node28&#45;&gt;Node29 -->
<g id="edge35_Node000028_Node000029" class="edge">
<title>Node28&#45;&gt;Node29</title>
<g id="a_edge35_Node000028_Node000029"><a xlink:title=" ">
<path fill="none" stroke="#63b8ff" d="M1274.38,-223.16C1243.83,-215.32 1209.62,-203.33 1182,-185.25 1151.59,-165.34 1126.48,-130.17 1113.52,-109.68"/>
<polygon fill="#63b8ff" stroke="#63b8ff" points="1273.43,-226.54 1283.97,-225.51 1275.09,-219.74 1273.43,-226.54"/>
</a>
</g>
</g>
<!-- Node30 -->
<g id="Node000030" class="node">
<title>Node30</title>
<g id="a_Node000030"><a xlink:href="WitgenUtils_8h.html" target="_top" xlink:title=" ">
<polygon fill="white" stroke="#666666" points="1325.25,-185.25 1190.75,-185.25 1190.75,-151.75 1325.25,-151.75 1325.25,-185.25"/>
<text text-anchor="start" x="1198.75" y="-171.75" font-family="Helvetica,sans-Serif" font-size="10.00">tools/llzk&#45;witgen/Witgen</text>
<text text-anchor="middle" x="1258" y="-159" font-family="Helvetica,sans-Serif" font-size="10.00">Utils.h</text>
</a>
</g>
</g>
<!-- Node28&#45;&gt;Node30 -->
<g id="edge40_Node000028_Node000030" class="edge">
<title>Node28&#45;&gt;Node30</title>
<g id="a_edge40_Node000028_Node000030"><a xlink:title=" ">
<path fill="none" stroke="#63b8ff" d="M1321.21,-214.41C1307.93,-204.98 1292.81,-194.23 1280.68,-185.62"/>
<polygon fill="#63b8ff" stroke="#63b8ff" points="1319.07,-217.19 1329.25,-220.13 1323.13,-211.48 1319.07,-217.19"/>
</a>
</g>
</g>
<!-- Node32 -->
<g id="Node000032" class="node">
<title>Node32</title>
<g id="a_Node000032"><a xlink:href="WitnessSelection_8h.html" target="_top" xlink:title=" ">
<polygon fill="white" stroke="#666666" points="1770.5,-185.25 1631.5,-185.25 1631.5,-151.75 1770.5,-151.75 1770.5,-185.25"/>
<text text-anchor="start" x="1639.5" y="-171.75" font-family="Helvetica,sans-Serif" font-size="10.00">tools/llzk&#45;witgen/Witness</text>
<text text-anchor="middle" x="1701" y="-159" font-family="Helvetica,sans-Serif" font-size="10.00">Selection.h</text>
</a>
</g>
</g>
<!-- Node28&#45;&gt;Node32 -->
<g id="edge48_Node000028_Node000032" class="edge">
<title>Node28&#45;&gt;Node32</title>
<g id="a_edge48_Node000028_Node000032"><a xlink:title=" ">
<path fill="none" stroke="#63b8ff" d="M1431.46,-221.78C1491.5,-210.14 1573.54,-194.22 1631.29,-183.02"/>
<polygon fill="#63b8ff" stroke="#63b8ff" points="1431.15,-218.28 1422,-223.62 1432.48,-225.15 1431.15,-218.28"/>
</a>
</g>
</g>
<!-- Node34 -->
<g id="Node000034" class="node">
<title>Node34</title>
<g id="a_Node000034"><a xlink:href="llzk-witgen_8cpp.html" target="_top" xlink:title=" ">
<polygon fill="white" stroke="#666666" points="1498.62,-185.25 1381.38,-185.25 1381.38,-151.75 1498.62,-151.75 1498.62,-185.25"/>
<text text-anchor="start" x="1389.38" y="-171.75" font-family="Helvetica,sans-Serif" font-size="10.00">tools/llzk&#45;witgen/llzk</text>
<text text-anchor="middle" x="1440" y="-159" font-family="Helvetica,sans-Serif" font-size="10.00">&#45;witgen.cpp</text>
</a>
</g>
</g>
<!-- Node28&#45;&gt;Node34 -->
<g id="edge55_Node000028_Node000034" class="edge">
<title>Node28&#45;&gt;Node34</title>
<g id="a_edge55_Node000028_Node000034"><a xlink:title=" ">
<path fill="none" stroke="#63b8ff" d="M1382.47,-214.14C1394.54,-204.77 1408.23,-194.15 1419.23,-185.62"/>
<polygon fill="#63b8ff" stroke="#63b8ff" points="1380.57,-211.18 1374.81,-220.08 1384.86,-216.71 1380.57,-211.18"/>
</a>
</g>
</g>
<!-- Node29&#45;&gt;Node22 -->
<g id="edge36_Node000029_Node000022" class="edge">
<title>Node29&#45;&gt;Node22</title>
<g id="a_edge36_Node000029_Node000022"><a xlink:title=" ">
<path fill="none" stroke="#63b8ff" d="M1135.65,-68.71C1151.21,-57.43 1169.59,-44.12 1183.67,-33.92"/>
<polygon fill="#63b8ff" stroke="#63b8ff" points="1133.66,-65.82 1127.61,-74.53 1137.76,-71.49 1133.66,-65.82"/>
</a>
</g>
</g>
<!-- Node29&#45;&gt;Node24 -->
<g id="edge37_Node000029_Node000024" class="edge">
<title>Node29&#45;&gt;Node24</title>
<g id="a_edge37_Node000029_Node000024"><a xlink:title=" ">
<path fill="none" stroke="#63b8ff" d="M1183.18,-72.82C1233.94,-60.76 1299.13,-45.27 1347.44,-33.8"/>
<polygon fill="#63b8ff" stroke="#63b8ff" points="1182.64,-69.35 1173.72,-75.06 1184.26,-76.16 1182.64,-69.35"/>
</a>
</g>
</g>
<!-- Node30&#45;&gt;Node15 -->
<g id="edge42_Node000030_Node000015" class="edge">
<title>Node30&#45;&gt;Node15</title>
<g id="a_edge42_Node000030_Node000015"><a xlink:title=" ">
<path fill="none" stroke="#63b8ff" d="M1178.95,-160.71C1092.03,-152.62 948.44,-137.42 826,-115.75 807.18,-112.42 786.48,-107.67 769.31,-103.42"/>
<polygon fill="#63b8ff" stroke="#63b8ff" points="1178.52,-164.18 1188.8,-161.62 1179.17,-157.21 1178.52,-164.18"/>
</a>
</g>
</g>
<!-- Node30&#45;&gt;Node16 -->
<g id="edge46_Node000030_Node000016" class="edge">
<title>Node30&#45;&gt;Node16</title>
<g id="a_edge46_Node000030_Node000016"><a xlink:title=" ">
<path fill="none" stroke="#63b8ff" d="M1336.74,-150.51C1380.76,-140.79 1436.55,-128.11 1486,-115.75 1493.5,-113.88 1501.36,-111.83 1509.12,-109.76"/>
<polygon fill="#63b8ff" stroke="#63b8ff" points="1336.02,-147.09 1327,-152.66 1337.52,-153.92 1336.02,-147.09"/>
</a>
</g>
</g>
<!-- Node30&#45;&gt;Node22 -->
<g id="edge41_Node000030_Node000022" class="edge">
<title>Node30&#45;&gt;Node22</title>
<g id="a_edge41_Node000030_Node000022"><a xlink:title=" ">
<path fill="none" stroke="#63b8ff" d="M1239.27,-142.32C1233.96,-134.18 1228.65,-124.9 1225,-115.75 1214.02,-88.22 1209.23,-53.75 1207.26,-33.88"/>
<polygon fill="#63b8ff" stroke="#63b8ff" points="1236.22,-144.06 1244.76,-150.33 1241.99,-140.11 1236.22,-144.06"/>
</a>
</g>
</g>
<!-- Node30&#45;&gt;Node24 -->
<g id="edge45_Node000030_Node000024" class="edge">
<title>Node30&#45;&gt;Node24</title>
<g id="a_edge45_Node000030_Node000024"><a xlink:title=" ">
<path fill="none" stroke="#63b8ff" d="M1330.21,-146.85C1347.23,-139.27 1364.14,-129.14 1377,-115.75 1399.25,-92.59 1408.87,-54.95 1412.7,-33.69"/>
<polygon fill="#63b8ff" stroke="#63b8ff" points="1328.92,-143.6 1321.03,-150.67 1331.61,-150.06 1328.92,-143.6"/>
</a>
</g>
</g>
<!-- Node30&#45;&gt;Node26 -->
<g id="edge43_Node000030_Node000026" class="edge">
<title>Node30&#45;&gt;Node26</title>
<g id="a_edge43_Node000030_Node000026"><a xlink:title=" ">
<path fill="none" stroke="#63b8ff" d="M1319.98,-147.8C1346.24,-138.87 1376.96,-127.65 1404,-115.75 1444.08,-98.11 1449.4,-83.17 1491,-69.5 1584.19,-38.88 1697.27,-26.33 1769.42,-21.22"/>
<polygon fill="#63b8ff" stroke="#63b8ff" points="1319.19,-144.37 1310.83,-150.87 1321.42,-151 1319.19,-144.37"/>
</a>
</g>
</g>
<!-- Node30&#45;&gt;Node27 -->
<g id="edge44_Node000030_Node000027" class="edge">
<title>Node30&#45;&gt;Node27</title>
<g id="a_edge44_Node000030_Node000027"><a xlink:title=" ">
<path fill="none" stroke="#63b8ff" d="M1179.16,-150.48C1133.03,-140.47 1073.69,-127.51 1021,-115.75 1003.13,-111.76 983.43,-107.28 966.48,-103.4"/>
<polygon fill="#63b8ff" stroke="#63b8ff" points="1178.29,-153.87 1188.8,-152.57 1179.77,-147.03 1178.29,-153.87"/>
</a>
</g>
</g>
<!-- Node31 -->
<g id="Node000031" class="node">
<title>Node31</title>
<g id="a_Node000031"><a xlink:href="WitgenUtils_8cpp.html" target="_top" xlink:title=" ">
<polygon fill="white" stroke="#666666" points="1368.25,-109.38 1233.75,-109.38 1233.75,-75.88 1368.25,-75.88 1368.25,-109.38"/>
<text text-anchor="start" x="1241.75" y="-95.88" font-family="Helvetica,sans-Serif" font-size="10.00">tools/llzk&#45;witgen/Witgen</text>
<text text-anchor="middle" x="1301" y="-83.12" font-family="Helvetica,sans-Serif" font-size="10.00">Utils.cpp</text>
</a>
</g>
</g>
<!-- Node30&#45;&gt;Node31 -->
<g id="edge47_Node000030_Node000031" class="edge">
<title>Node30&#45;&gt;Node31</title>
<g id="a_edge47_Node000030_Node000031"><a xlink:title=" ">
<path fill="none" stroke="#63b8ff" d="M1272.97,-141.78C1279.2,-131.08 1286.23,-119.01 1291.69,-109.62"/>
<polygon fill="#63b8ff" stroke="#63b8ff" points="1270.1,-139.76 1268.09,-150.16 1276.15,-143.28 1270.1,-139.76"/>
</a>
</g>
</g>
<!-- Node32&#45;&gt;Node16 -->
<g id="edge53_Node000032_Node000016" class="edge">
<title>Node32&#45;&gt;Node16</title>
<g id="a_edge53_Node000032_Node000016"><a xlink:title=" ">
<path fill="none" stroke="#63b8ff" d="M1661.72,-145.85C1640.81,-134.32 1615.52,-120.38 1596.34,-109.8"/>
<polygon fill="#63b8ff" stroke="#63b8ff" points="1659.82,-148.79 1670.27,-150.56 1663.2,-142.66 1659.82,-148.79"/>
</a>
</g>
</g>
<!-- Node32&#45;&gt;Node22 -->
<g id="edge49_Node000032_Node000022" class="edge">
<title>Node32&#45;&gt;Node22</title>
<g id="a_edge49_Node000032_Node000022"><a xlink:title=" ">
<path fill="none" stroke="#63b8ff" d="M1688.68,-141.04C1676.05,-115.1 1656.41,-78.23 1643,-69.5 1643,-69.5 1404.18,-41.22 1279.64,-26.47"/>
<polygon fill="#63b8ff" stroke="#63b8ff" points="1685.5,-142.5 1692.97,-150 1691.81,-139.47 1685.5,-142.5"/>
</a>
</g>
</g>
<!-- Node32&#45;&gt;Node24 -->
<g id="edge52_Node000032_Node000024" class="edge">
<title>Node32&#45;&gt;Node24</title>
<g id="a_edge52_Node000032_Node000024"><a xlink:title=" ">
<path fill="none" stroke="#63b8ff" d="M1701.51,-140.03C1700.37,-117.88 1695.04,-87.53 1676,-69.5 1648.67,-43.61 1550.33,-29.71 1482.49,-23.03"/>
<polygon fill="#63b8ff" stroke="#63b8ff" points="1698.01,-139.94 1701.74,-149.86 1705.01,-139.78 1698.01,-139.94"/>
</a>
</g>
</g>
<!-- Node32&#45;&gt;Node25 -->
<g id="edge51_Node000032_Node000025" class="edge">
<title>Node32&#45;&gt;Node25</title>
<g id="a_edge51_Node000032_Node000025"><a xlink:title=" ">
<path fill="none" stroke="#63b8ff" d="M1730.2,-144.55C1747.86,-130.68 1769.44,-113.72 1782.7,-103.29"/>
<polygon fill="#63b8ff" stroke="#63b8ff" points="1728.29,-141.6 1722.59,-150.53 1732.61,-147.11 1728.29,-141.6"/>
</a>
</g>
</g>
<!-- Node32&#45;&gt;Node26 -->
<g id="edge50_Node000032_Node000026" class="edge">
<title>Node32&#45;&gt;Node26</title>
<g id="a_edge50_Node000032_Node000026"><a xlink:title=" ">
<path fill="none" stroke="#63b8ff" d="M1782.06,-163.2C1815.13,-156.96 1850.37,-143.59 1871,-115.75 1891.49,-88.09 1864.27,-46.07 1849.88,-27.34"/>
<polygon fill="#63b8ff" stroke="#63b8ff" points="1781.73,-159.71 1772.45,-164.81 1782.89,-166.61 1781.73,-159.71"/>
</a>
</g>
</g>
<!-- Node32&#45;&gt;Node33 -->
<g id="edge54_Node000032_Node000033" class="edge">
<title>Node32&#45;&gt;Node33</title>
<g id="a_edge54_Node000032_Node000033"><a xlink:title=" ">
<path fill="none" stroke="#63b8ff" d="M1776.1,-148.51C1814.4,-138.78 1861.7,-126.71 1904,-115.75 1911.3,-113.86 1918.95,-111.86 1926.54,-109.87"/>
<polygon fill="#63b8ff" stroke="#63b8ff" points="1775.33,-145.09 1766.5,-150.94 1777.05,-151.88 1775.33,-145.09"/>
</a>
</g>
</g>
</g>
</svg>
