<?xml version="1.0" encoding="UTF-8" standalone="no"?>
<!DOCTYPE svg PUBLIC "-//W3C//DTD SVG 1.1//EN"
 "http://www.w3.org/Graphics/SVG/1.1/DTD/svg11.dtd">
<!-- Generated by graphviz version 12.2.1 (0)
 -->
<!-- Title: include/llzk/Dialect/POD/IR/Dialect.h Pages: 1 -->
<svg width="1522pt" height="459pt"
 viewBox="0.00 0.00 1521.80 458.50" xmlns="http://www.w3.org/2000/svg" xmlns:xlink="http://www.w3.org/1999/xlink">
<g id="graph0" class="graph" transform="scale(1 1) rotate(0) translate(4 454.5)">
<title>include/llzk/Dialect/POD/IR/Dialect.h</title>
<!-- Node1 -->
<g id="Node000001" class="node">
<title>Node1</title>
<g id="a_Node000001"><a xlink:title=" ">
<polygon fill="#999999" stroke="#666666" points="1081.3,-450.5 972.3,-450.5 972.3,-417 1081.3,-417 1081.3,-450.5"/>
<text text-anchor="start" x="980.3" y="-437" font-family="Helvetica,sans-Serif" font-size="10.00">include/llzk/Dialect</text>
<text text-anchor="middle" x="1026.8" y="-424.25" font-family="Helvetica,sans-Serif" font-size="10.00">/POD/IR/Dialect.h</text>
</a>
</g>
</g>
<!-- Node2 -->
<g id="Node000002" class="node">
<title>Node2</title>
<g id="a_Node000002"><a xlink:href="POD_2IR_2Ops_8h.html" target="_top" xlink:title=" ">
<polygon fill="white" stroke="#666666" points="849.3,-311.5 740.3,-311.5 740.3,-278 849.3,-278 849.3,-311.5"/>
<text text-anchor="start" x="748.3" y="-298" font-family="Helvetica,sans-Serif" font-size="10.00">include/llzk/Dialect</text>
<text text-anchor="middle" x="794.8" y="-285.25" font-family="Helvetica,sans-Serif" font-size="10.00">/POD/IR/Ops.h</text>
</a>
</g>
</g>
<!-- Node1&#45;&gt;Node2 -->
<g id="edge1_Node000001_Node000002" class="edge">
<title>Node1&#45;&gt;Node2</title>
<g id="a_edge1_Node000001_Node000002"><a xlink:title=" ">
<path fill="none" stroke="#63b8ff" d="M990.01,-411.02C943.27,-383.42 863.71,-336.44 822.06,-311.84"/>
<polygon fill="#63b8ff" stroke="#63b8ff" points="988.04,-413.93 998.43,-416 991.6,-407.9 988.04,-413.93"/>
</a>
</g>
</g>
<!-- Node4 -->
<g id="Node000004" class="node">
<title>Node4</title>
<g id="a_Node000004"><a xlink:href="POD_2IR_2Dialect_8cpp.html" target="_top" xlink:title=" ">
<polygon fill="white" stroke="#666666" points="271.93,-242 169.68,-242 169.68,-208.5 271.93,-208.5 271.93,-242"/>
<text text-anchor="start" x="177.68" y="-228.5" font-family="Helvetica,sans-Serif" font-size="10.00">lib/Dialect/POD/IR</text>
<text text-anchor="middle" x="220.8" y="-215.75" font-family="Helvetica,sans-Serif" font-size="10.00">/Dialect.cpp</text>
</a>
</g>
</g>
<!-- Node1&#45;&gt;Node4 -->
<g id="edge50_Node000001_Node000004" class="edge">
<title>Node1&#45;&gt;Node4</title>
<g id="a_edge50_Node000001_Node000004"><a xlink:title=" ">
<path fill="none" stroke="#63b8ff" d="M960.65,-433.36C785.02,-433.45 313.89,-423.06 217.8,-311.5 201.37,-292.42 208.09,-261.09 214.45,-242.19"/>
<polygon fill="#63b8ff" stroke="#63b8ff" points="960.52,-436.87 970.51,-433.35 960.51,-429.87 960.52,-436.87"/>
</a>
</g>
</g>
<!-- Node8 -->
<g id="Node000008" class="node">
<title>Node8</title>
<g id="a_Node000008"><a xlink:href="POD_2IR_2Types_8h.html" target="_top" xlink:title=" ">
<polygon fill="white" stroke="#666666" points="849.3,-381 740.3,-381 740.3,-347.5 849.3,-347.5 849.3,-381"/>
<text text-anchor="start" x="748.3" y="-367.5" font-family="Helvetica,sans-Serif" font-size="10.00">include/llzk/Dialect</text>
<text text-anchor="middle" x="794.8" y="-354.75" font-family="Helvetica,sans-Serif" font-size="10.00">/POD/IR/Types.h</text>
</a>
</g>
</g>
<!-- Node1&#45;&gt;Node8 -->
<g id="edge7_Node000001_Node000008" class="edge">
<title>Node1&#45;&gt;Node8</title>
<g id="a_edge7_Node000001_Node000008"><a xlink:title=" ">
<path fill="none" stroke="#63b8ff" d="M961.17,-413.66C926.01,-403.43 883.19,-390.96 849.79,-381.25"/>
<polygon fill="#63b8ff" stroke="#63b8ff" points="959.79,-416.9 970.37,-416.33 961.74,-410.18 959.79,-416.9"/>
</a>
</g>
</g>
<!-- Node26 -->
<g id="Node000026" class="node">
<title>Node26</title>
<g id="a_Node000026"><a xlink:href="llzk-witgen_8cpp.html" target="_top" xlink:title=" ">
<polygon fill="white" stroke="#666666" points="1233.43,-172.5 1116.18,-172.5 1116.18,-139 1233.43,-139 1233.43,-172.5"/>
<text text-anchor="start" x="1124.18" y="-159" font-family="Helvetica,sans-Serif" font-size="10.00">tools/llzk&#45;witgen/llzk</text>
<text text-anchor="middle" x="1174.8" y="-146.25" font-family="Helvetica,sans-Serif" font-size="10.00">&#45;witgen.cpp</text>
</a>
</g>
</g>
<!-- Node1&#45;&gt;Node26 -->
<g id="edge52_Node000001_Node000026" class="edge">
<title>Node1&#45;&gt;Node26</title>
<g id="a_edge52_Node000001_Node000026"><a xlink:title=" ">
<path fill="none" stroke="#63b8ff" d="M1049.18,-407.99C1069.49,-384.52 1099.19,-347.57 1118.8,-311.5 1144.74,-263.81 1163.02,-201.67 1170.73,-172.79"/>
<polygon fill="#63b8ff" stroke="#63b8ff" points="1046.59,-405.63 1042.63,-415.46 1051.85,-410.25 1046.59,-405.63"/>
</a>
</g>
</g>
<!-- Node27 -->
<g id="Node000027" class="node">
<title>Node27</title>
<g id="a_Node000027"><a xlink:href="Dialect_2InitDialects_8cpp.html" target="_top" xlink:title=" ">
<polygon fill="white" stroke="#666666" points="1347.93,-374.62 1203.68,-374.62 1203.68,-353.88 1347.93,-353.88 1347.93,-374.62"/>
<text text-anchor="middle" x="1275.8" y="-361.12" font-family="Helvetica,sans-Serif" font-size="10.00">lib/Dialect/InitDialects.cpp</text>
</a>
</g>
</g>
<!-- Node1&#45;&gt;Node27 -->
<g id="edge49_Node000001_Node000027" class="edge">
<title>Node1&#45;&gt;Node27</title>
<g id="a_edge49_Node000001_Node000027"><a xlink:title=" ">
<path fill="none" stroke="#63b8ff" d="M1092.75,-414.87C1139.72,-402.14 1201.08,-385.51 1239.47,-375.1"/>
<polygon fill="#63b8ff" stroke="#63b8ff" points="1091.95,-411.46 1083.22,-417.46 1093.78,-418.22 1091.95,-411.46"/>
</a>
</g>
</g>
<!-- Node28 -->
<g id="Node000028" class="node">
<title>Node28</title>
<g id="a_Node000028"><a xlink:href="LLZKInliningExtensions_8cpp.html" target="_top" xlink:title=" ">
<polygon fill="white" stroke="#666666" points="1513.8,-381 1365.8,-381 1365.8,-347.5 1513.8,-347.5 1513.8,-381"/>
<text text-anchor="start" x="1373.8" y="-367.5" font-family="Helvetica,sans-Serif" font-size="10.00">lib/Transforms/LLZKInlining</text>
<text text-anchor="middle" x="1439.8" y="-354.75" font-family="Helvetica,sans-Serif" font-size="10.00">Extensions.cpp</text>
</a>
</g>
</g>
<!-- Node1&#45;&gt;Node28 -->
<g id="edge51_Node000001_Node000028" class="edge">
<title>Node1&#45;&gt;Node28</title>
<g id="a_edge51_Node000001_Node000028"><a xlink:title=" ">
<path fill="none" stroke="#63b8ff" d="M1092.95,-423.01C1159.65,-413.04 1265.52,-396.81 1356.8,-381 1359.69,-380.5 1362.64,-379.98 1365.61,-379.45"/>
<polygon fill="#63b8ff" stroke="#63b8ff" points="1092.65,-419.52 1083.27,-424.46 1093.68,-426.44 1092.65,-419.52"/>
</a>
</g>
</g>
<!-- Node3 -->
<g id="Node000003" class="node">
<title>Node3</title>
<g id="a_Node000003"><a xlink:href="POD_8cpp.html" target="_top" xlink:title=" ">
<polygon fill="white" stroke="#666666" points="746.43,-235.62 611.18,-235.62 611.18,-214.88 746.43,-214.88 746.43,-235.62"/>
<text text-anchor="middle" x="678.8" y="-222.12" font-family="Helvetica,sans-Serif" font-size="10.00">lib/CAPI/Dialect/POD.cpp</text>
</a>
</g>
</g>
<!-- Node2&#45;&gt;Node3 -->
<g id="edge2_Node000002_Node000003" class="edge">
<title>Node2&#45;&gt;Node3</title>
<g id="a_edge2_Node000002_Node000003"><a xlink:title=" ">
<path fill="none" stroke="#63b8ff" d="M757.2,-271.87C736.42,-259.78 711.65,-245.36 695.59,-236.02"/>
<polygon fill="#63b8ff" stroke="#63b8ff" points="755.31,-274.82 765.71,-276.82 758.83,-268.77 755.31,-274.82"/>
</a>
</g>
</g>
<!-- Node2&#45;&gt;Node4 -->
<g id="edge3_Node000002_Node000004" class="edge">
<title>Node2&#45;&gt;Node4</title>
<g id="a_edge3_Node000002_Node000004"><a xlink:title=" ">
<path fill="none" stroke="#63b8ff" d="M728.81,-277.67C535.32,-246.94 480.99,-271.45 289.8,-242 284.09,-241.12 278.16,-240.03 272.27,-238.84"/>
<polygon fill="#63b8ff" stroke="#63b8ff" points="728.01,-281.09 738.44,-279.23 729.13,-274.18 728.01,-281.09"/>
</a>
</g>
</g>
<!-- Node5 -->
<g id="Node000005" class="node">
<title>Node5</title>
<g id="a_Node000005"><a xlink:href="POD_2IR_2Ops_8cpp.html" target="_top" xlink:title=" ">
<polygon fill="white" stroke="#666666" points="866.93,-242 764.68,-242 764.68,-208.5 866.93,-208.5 866.93,-242"/>
<text text-anchor="start" x="772.68" y="-228.5" font-family="Helvetica,sans-Serif" font-size="10.00">lib/Dialect/POD/IR</text>
<text text-anchor="middle" x="815.8" y="-215.75" font-family="Helvetica,sans-Serif" font-size="10.00">/Ops.cpp</text>
</a>
</g>
</g>
<!-- Node2&#45;&gt;Node5 -->
<g id="edge4_Node000002_Node000005" class="edge">
<title>Node2&#45;&gt;Node5</title>
<g id="a_edge4_Node000002_Node000005"><a xlink:title=" ">
<path fill="none" stroke="#63b8ff" d="M803.16,-266.89C805.77,-258.5 808.57,-249.51 810.86,-242.13"/>
<polygon fill="#63b8ff" stroke="#63b8ff" points="799.86,-265.72 800.23,-276.31 806.54,-267.8 799.86,-265.72"/>
</a>
</g>
</g>
<!-- Node6 -->
<g id="Node000006" class="node">
<title>Node6</title>
<g id="a_Node000006"><a xlink:href="Interpreter_8cpp.html" target="_top" xlink:title=" ">
<polygon fill="white" stroke="#666666" points="187.43,-96.62 16.18,-96.62 16.18,-75.88 187.43,-75.88 187.43,-96.62"/>
<text text-anchor="middle" x="101.8" y="-83.12" font-family="Helvetica,sans-Serif" font-size="10.00">tools/llzk&#45;witgen/Interpreter.cpp</text>
</a>
</g>
</g>
<!-- Node2&#45;&gt;Node6 -->
<g id="edge5_Node000002_Node000006" class="edge">
<title>Node2&#45;&gt;Node6</title>
<g id="a_edge5_Node000002_Node000006"><a xlink:title=" ">
<path fill="none" stroke="#63b8ff" d="M728.82,-277.27C665.51,-261.58 647.64,-257.97 586.8,-242 474.84,-212.61 446.05,-207.78 335.8,-172.5 258.8,-147.85 169.43,-113.73 126.85,-97.12"/>
<polygon fill="#63b8ff" stroke="#63b8ff" points="727.81,-280.62 738.36,-279.64 729.5,-273.83 727.81,-280.62"/>
</a>
</g>
</g>
<!-- Node7 -->
<g id="Node000007" class="node">
<title>Node7</title>
<g id="a_Node000007"><a xlink:href="WitgenLowering_8cpp.html" target="_top" xlink:title=" ">
<polygon fill="white" stroke="#666666" points="840.05,-103 705.55,-103 705.55,-69.5 840.05,-69.5 840.05,-103"/>
<text text-anchor="start" x="713.55" y="-89.5" font-family="Helvetica,sans-Serif" font-size="10.00">tools/llzk&#45;witgen/Witgen</text>
<text text-anchor="middle" x="772.8" y="-76.75" font-family="Helvetica,sans-Serif" font-size="10.00">Lowering.cpp</text>
</a>
</g>
</g>
<!-- Node2&#45;&gt;Node7 -->
<g id="edge6_Node000002_Node000007" class="edge">
<title>Node2&#45;&gt;Node7</title>
<g id="a_edge6_Node000002_Node000007"><a xlink:title=" ">
<path fill="none" stroke="#63b8ff" d="M728.66,-277.01C673.59,-262.92 603.84,-244.66 601.8,-242 557.08,-183.71 664.33,-129.47 728.67,-103.43"/>
<polygon fill="#63b8ff" stroke="#63b8ff" points="727.78,-280.4 738.34,-279.48 729.51,-273.62 727.78,-280.4"/>
</a>
</g>
</g>
<!-- Node8&#45;&gt;Node2 -->
<g id="edge8_Node000008_Node000002" class="edge">
<title>Node8&#45;&gt;Node2</title>
<g id="a_edge8_Node000008_Node000002"><a xlink:title=" ">
<path fill="none" stroke="#63b8ff" d="M794.8,-335.81C794.8,-327.59 794.8,-318.84 794.8,-311.63"/>
<polygon fill="#63b8ff" stroke="#63b8ff" points="791.3,-335.74 794.8,-345.74 798.3,-335.74 791.3,-335.74"/>
</a>
</g>
</g>
<!-- Node8&#45;&gt;Node3 -->
<g id="edge9_Node000008_Node000003" class="edge">
<title>Node8&#45;&gt;Node3</title>
<g id="a_edge9_Node000008_Node000003"><a xlink:title=" ">
<path fill="none" stroke="#63b8ff" d="M834.04,-340.52C843.96,-332.69 853.34,-322.95 858.8,-311.5 865.22,-298.06 867.76,-289.89 858.8,-278 850.49,-266.96 773.84,-247.76 723.28,-236.11"/>
<polygon fill="#63b8ff" stroke="#63b8ff" points="832.14,-337.57 826.11,-346.28 836.26,-343.24 832.14,-337.57"/>
</a>
</g>
</g>
<!-- Node8&#45;&gt;Node4 -->
<g id="edge10_Node000008_Node000004" class="edge">
<title>Node8&#45;&gt;Node4</title>
<g id="a_edge10_Node000008_Node000004"><a xlink:title=" ">
<path fill="none" stroke="#63b8ff" d="M728.67,-361.39C589.43,-356.86 275.82,-343.23 239.8,-311.5 220.23,-294.26 218.38,-261.7 219.28,-242.19"/>
<polygon fill="#63b8ff" stroke="#63b8ff" points="728.37,-364.88 738.48,-361.7 728.6,-357.89 728.37,-364.88"/>
</a>
</g>
</g>
<!-- Node8&#45;&gt;Node5 -->
<g id="edge11_Node000008_Node000005" class="edge">
<title>Node8&#45;&gt;Node5</title>
<g id="a_edge11_Node000008_Node000005"><a xlink:title=" ">
<path fill="none" stroke="#63b8ff" d="M858.72,-341.76C871.87,-334.28 884.06,-324.41 891.8,-311.5 899.46,-298.73 898.76,-291.16 891.8,-278 883.59,-262.48 868.41,-250.74 853.75,-242.4"/>
<polygon fill="#63b8ff" stroke="#63b8ff" points="857.16,-338.62 849.88,-346.32 860.37,-344.84 857.16,-338.62"/>
</a>
</g>
</g>
<!-- Node9 -->
<g id="Node000009" class="node">
<title>Node9</title>
<g id="a_Node000009"><a xlink:href="POD_2IR_2Types_8cpp.html" target="_top" xlink:title=" ">
<polygon fill="white" stroke="#666666" points="350.93,-311.5 248.68,-311.5 248.68,-278 350.93,-278 350.93,-311.5"/>
<text text-anchor="start" x="256.68" y="-298" font-family="Helvetica,sans-Serif" font-size="10.00">lib/Dialect/POD/IR</text>
<text text-anchor="middle" x="299.8" y="-285.25" font-family="Helvetica,sans-Serif" font-size="10.00">/Types.cpp</text>
</a>
</g>
</g>
<!-- Node8&#45;&gt;Node9 -->
<g id="edge12_Node000008_Node000009" class="edge">
<title>Node8&#45;&gt;Node9</title>
<g id="a_edge12_Node000008_Node000009"><a xlink:title=" ">
<path fill="none" stroke="#63b8ff" d="M728.46,-358.23C642.78,-351.09 489.28,-336.07 359.8,-311.5 357.05,-310.98 354.24,-310.4 351.41,-309.78"/>
<polygon fill="#63b8ff" stroke="#63b8ff" points="728.08,-361.71 738.33,-359.04 728.65,-354.73 728.08,-361.71"/>
</a>
</g>
</g>
<!-- Node10 -->
<g id="Node000010" class="node">
<title>Node10</title>
<g id="a_Node000010"><a xlink:href="Struct_2IR_2Ops_8cpp.html" target="_top" xlink:title=" ">
<polygon fill="white" stroke="#666666" points="466.3,-311.5 369.3,-311.5 369.3,-278 466.3,-278 466.3,-311.5"/>
<text text-anchor="start" x="377.3" y="-298" font-family="Helvetica,sans-Serif" font-size="10.00">lib/Dialect/Struct</text>
<text text-anchor="middle" x="417.8" y="-285.25" font-family="Helvetica,sans-Serif" font-size="10.00">/IR/Ops.cpp</text>
</a>
</g>
</g>
<!-- Node8&#45;&gt;Node10 -->
<g id="edge13_Node000008_Node000010" class="edge">
<title>Node8&#45;&gt;Node10</title>
<g id="a_edge13_Node000008_Node000010"><a xlink:title=" ">
<path fill="none" stroke="#63b8ff" d="M728.75,-354.59C663.97,-345.61 562.58,-330.27 475.8,-311.5 472.85,-310.86 469.81,-310.16 466.76,-309.43"/>
<polygon fill="#63b8ff" stroke="#63b8ff" points="728.13,-358.03 738.51,-355.93 729.08,-351.1 728.13,-358.03"/>
</a>
</g>
</g>
<!-- Node11 -->
<g id="Node000011" class="node">
<title>Node11</title>
<g id="a_Node000011"><a xlink:href="Field_8cpp.html" target="_top" xlink:title=" ">
<polygon fill="white" stroke="#666666" points="579.18,-305.12 484.43,-305.12 484.43,-284.38 579.18,-284.38 579.18,-305.12"/>
<text text-anchor="middle" x="531.8" y="-291.62" font-family="Helvetica,sans-Serif" font-size="10.00">lib/Util/Field.cpp</text>
</a>
</g>
</g>
<!-- Node8&#45;&gt;Node11 -->
<g id="edge14_Node000008_Node000011" class="edge">
<title>Node8&#45;&gt;Node11</title>
<g id="a_edge14_Node000008_Node000011"><a xlink:title=" ">
<path fill="none" stroke="#63b8ff" d="M729.07,-347.34C688.32,-337.34 634.93,-324.01 587.8,-311.5 580.77,-309.63 573.27,-307.57 566.11,-305.57"/>
<polygon fill="#63b8ff" stroke="#63b8ff" points="728.2,-350.73 738.74,-349.7 729.86,-343.93 728.2,-350.73"/>
</a>
</g>
</g>
<!-- Node12 -->
<g id="Node000012" class="node">
<title>Node12</title>
<g id="a_Node000012"><a xlink:href="TypeHelper_8cpp.html" target="_top" xlink:title=" ">
<polygon fill="white" stroke="#666666" points="722.55,-305.12 597.05,-305.12 597.05,-284.38 722.55,-284.38 722.55,-305.12"/>
<text text-anchor="middle" x="659.8" y="-291.62" font-family="Helvetica,sans-Serif" font-size="10.00">lib/Util/TypeHelper.cpp</text>
</a>
</g>
</g>
<!-- Node8&#45;&gt;Node12 -->
<g id="edge15_Node000008_Node000012" class="edge">
<title>Node8&#45;&gt;Node12</title>
<g id="a_edge15_Node000008_Node000012"><a xlink:title=" ">
<path fill="none" stroke="#63b8ff" d="M752.35,-342.02C727.91,-329.81 698.37,-315.03 679.34,-305.52"/>
<polygon fill="#63b8ff" stroke="#63b8ff" points="750.6,-345.06 761.11,-346.41 753.73,-338.8 750.6,-345.06"/>
</a>
</g>
</g>
<!-- Node13 -->
<g id="Node000013" class="node">
<title>Node13</title>
<g id="a_Node000013"><a xlink:href="ValueModel_8h.html" target="_top" xlink:title=" ">
<polygon fill="white" stroke="#666666" points="1109.8,-305.12 943.8,-305.12 943.8,-284.38 1109.8,-284.38 1109.8,-305.12"/>
<text text-anchor="middle" x="1026.8" y="-291.62" font-family="Helvetica,sans-Serif" font-size="10.00">tools/llzk&#45;witgen/ValueModel.h</text>
</a>
</g>
</g>
<!-- Node8&#45;&gt;Node13 -->
<g id="edge16_Node000008_Node000013" class="edge">
<title>Node8&#45;&gt;Node13</title>
<g id="a_edge16_Node000008_Node000013"><a xlink:title=" ">
<path fill="none" stroke="#63b8ff" d="M860.77,-344.06C903.92,-331.5 958.5,-315.62 993.04,-305.57"/>
<polygon fill="#63b8ff" stroke="#63b8ff" points="859.86,-340.68 851.24,-346.83 861.82,-347.4 859.86,-340.68"/>
</a>
</g>
</g>
<!-- Node25 -->
<g id="Node000025" class="node">
<title>Node25</title>
<g id="a_Node000025"><a xlink:href="WitnessSelection_8cpp.html" target="_top" xlink:title=" ">
<polygon fill="white" stroke="#666666" points="1467.3,-103 1328.3,-103 1328.3,-69.5 1467.3,-69.5 1467.3,-103"/>
<text text-anchor="start" x="1336.3" y="-89.5" font-family="Helvetica,sans-Serif" font-size="10.00">tools/llzk&#45;witgen/Witness</text>
<text text-anchor="middle" x="1397.8" y="-76.75" font-family="Helvetica,sans-Serif" font-size="10.00">Selection.cpp</text>
</a>
</g>
</g>
<!-- Node8&#45;&gt;Node25 -->
<g id="edge48_Node000008_Node000025" class="edge">
<title>Node8&#45;&gt;Node25</title>
<g id="a_edge48_Node000008_Node000025"><a xlink:title=" ">
<path fill="none" stroke="#63b8ff" d="M860.8,-359.78C927.53,-354.65 1032.81,-342.08 1118.8,-311.5 1240.59,-268.19 1348.66,-147.22 1384.9,-103.38"/>
<polygon fill="#63b8ff" stroke="#63b8ff" points="860.85,-356.27 851.13,-360.49 861.36,-363.25 860.85,-356.27"/>
</a>
</g>
</g>
<!-- Node14 -->
<g id="Node000014" class="node">
<title>Node14</title>
<g id="a_Node000014"><a xlink:href="ExecutionEngineBackend_8cpp.html" target="_top" xlink:title=" ">
<polygon fill="white" stroke="#666666" points="1274.43,-33.5 1127.18,-33.5 1127.18,0 1274.43,0 1274.43,-33.5"/>
<text text-anchor="start" x="1135.18" y="-20" font-family="Helvetica,sans-Serif" font-size="10.00">tools/llzk&#45;witgen/Execution</text>
<text text-anchor="middle" x="1200.8" y="-7.25" font-family="Helvetica,sans-Serif" font-size="10.00">EngineBackend.cpp</text>
</a>
</g>
</g>
<!-- Node13&#45;&gt;Node14 -->
<g id="edge17_Node000013_Node000014" class="edge">
<title>Node13&#45;&gt;Node14</title>
<g id="a_edge17_Node000013_Node000014"><a xlink:title=" ">
<path fill="none" stroke="#63b8ff" d="M1110.06,-281.4C1142.29,-273.77 1178.23,-261.53 1206.8,-242 1238.87,-220.08 1247.37,-209.3 1259.8,-172.5 1274.45,-129.13 1278.69,-111.2 1259.8,-69.5 1253.17,-54.86 1240.11,-42.72 1227.97,-33.88"/>
<polygon fill="#63b8ff" stroke="#63b8ff" points="1109.31,-277.98 1100.31,-283.58 1110.83,-284.81 1109.31,-277.98"/>
</a>
</g>
</g>
<!-- Node15 -->
<g id="Node000015" class="node">
<title>Node15</title>
<g id="a_Node000015"><a xlink:href="Interpreter_8h.html" target="_top" xlink:title=" ">
<polygon fill="white" stroke="#666666" points="181.8,-166.12 21.8,-166.12 21.8,-145.38 181.8,-145.38 181.8,-166.12"/>
<text text-anchor="middle" x="101.8" y="-152.62" font-family="Helvetica,sans-Serif" font-size="10.00">tools/llzk&#45;witgen/Interpreter.h</text>
</a>
</g>
</g>
<!-- Node13&#45;&gt;Node15 -->
<g id="edge18_Node000013_Node000015" class="edge">
<title>Node13&#45;&gt;Node15</title>
<g id="a_edge18_Node000013_Node000015"><a xlink:title=" ">
<path fill="none" stroke="#63b8ff" d="M992.47,-279.57C970.74,-270.05 942.39,-256.61 918.8,-242 898.2,-229.25 898.44,-217.13 875.8,-208.5 763.43,-165.66 455.8,-180.54 335.8,-172.5 284.72,-169.08 227.36,-165.22 182.21,-162.17"/>
<polygon fill="#63b8ff" stroke="#63b8ff" points="990.9,-282.7 1001.47,-283.45 993.67,-276.28 990.9,-282.7"/>
</a>
</g>
</g>
<!-- Node17 -->
<g id="Node000017" class="node">
<title>Node17</title>
<g id="a_Node000017"><a xlink:href="JSON_8h.html" target="_top" xlink:title=" ">
<polygon fill="white" stroke="#666666" points="1233.3,-96.62 1100.3,-96.62 1100.3,-75.88 1233.3,-75.88 1233.3,-96.62"/>
<text text-anchor="middle" x="1166.8" y="-83.12" font-family="Helvetica,sans-Serif" font-size="10.00">tools/llzk&#45;witgen/JSON.h</text>
</a>
</g>
</g>
<!-- Node13&#45;&gt;Node17 -->
<g id="edge21_Node000013_Node000017" class="edge">
<title>Node13&#45;&gt;Node17</title>
<g id="a_edge21_Node000013_Node000017"><a xlink:title=" ">
<path fill="none" stroke="#63b8ff" d="M1079.79,-280.65C1131.68,-264.69 1207.89,-232.14 1242.8,-172.5 1250.32,-159.65 1249.76,-152.16 1242.8,-139 1232.21,-118.96 1209.98,-105.23 1192.29,-96.98"/>
<polygon fill="#63b8ff" stroke="#63b8ff" points="1078.84,-277.28 1070.24,-283.47 1080.82,-283.99 1078.84,-277.28"/>
</a>
</g>
</g>
<!-- Node19 -->
<g id="Node000019" class="node">
<title>Node19</title>
<g id="a_Node000019"><a xlink:href="ValueModel_8cpp.html" target="_top" xlink:title=" ">
<polygon fill="white" stroke="#666666" points="421.43,-96.62 244.18,-96.62 244.18,-75.88 421.43,-75.88 421.43,-96.62"/>
<text text-anchor="middle" x="332.8" y="-83.12" font-family="Helvetica,sans-Serif" font-size="10.00">tools/llzk&#45;witgen/ValueModel.cpp</text>
</a>
</g>
</g>
<!-- Node13&#45;&gt;Node19 -->
<g id="edge25_Node000013_Node000019" class="edge">
<title>Node13&#45;&gt;Node19</title>
<g id="a_edge25_Node000013_Node000019"><a xlink:title=" ">
<path fill="none" stroke="#63b8ff" d="M1002.35,-277.72C987.49,-267.77 968.27,-254.53 951.8,-242 933.35,-227.96 933.3,-217.2 911.8,-208.5 705.28,-124.92 612.65,-268.94 411.8,-172.5 376.51,-155.56 349.34,-115.34 338.25,-96.85"/>
<polygon fill="#63b8ff" stroke="#63b8ff" points="1000.33,-280.58 1010.6,-283.2 1004.2,-274.75 1000.33,-280.58"/>
</a>
</g>
</g>
<!-- Node20 -->
<g id="Node000020" class="node">
<title>Node20</title>
<g id="a_Node000020"><a xlink:href="WitgenDriver_8h.html" target="_top" xlink:title=" ">
<polygon fill="white" stroke="#666666" points="1095.05,-242 960.55,-242 960.55,-208.5 1095.05,-208.5 1095.05,-242"/>
<text text-anchor="start" x="968.55" y="-228.5" font-family="Helvetica,sans-Serif" font-size="10.00">tools/llzk&#45;witgen/Witgen</text>
<text text-anchor="middle" x="1027.8" y="-215.75" font-family="Helvetica,sans-Serif" font-size="10.00">Driver.h</text>
</a>
</g>
</g>
<!-- Node13&#45;&gt;Node20 -->
<g id="edge26_Node000013_Node000020" class="edge">
<title>Node13&#45;&gt;Node20</title>
<g id="a_edge26_Node000013_Node000020"><a xlink:title=" ">
<path fill="none" stroke="#63b8ff" d="M1027.11,-272.88C1027.26,-263.07 1027.43,-251.55 1027.56,-242.42"/>
<polygon fill="#63b8ff" stroke="#63b8ff" points="1023.62,-272.51 1026.97,-282.57 1030.62,-272.62 1023.62,-272.51"/>
</a>
</g>
</g>
<!-- Node15&#45;&gt;Node6 -->
<g id="edge19_Node000015_Node000006" class="edge">
<title>Node15&#45;&gt;Node6</title>
<g id="a_edge19_Node000015_Node000006"><a xlink:title=" ">
<path fill="none" stroke="#63b8ff" d="M101.8,-133.94C101.8,-121.59 101.8,-106.52 101.8,-96.9"/>
<polygon fill="#63b8ff" stroke="#63b8ff" points="98.3,-133.57 101.8,-143.57 105.3,-133.57 98.3,-133.57"/>
</a>
</g>
</g>
<!-- Node16 -->
<g id="Node000016" class="node">
<title>Node16</title>
<g id="a_Node000016"><a xlink:href="WitgenDriver_8cpp.html" target="_top" xlink:title=" ">
<polygon fill="white" stroke="#666666" points="749.05,-33.5 614.55,-33.5 614.55,0 749.05,0 749.05,-33.5"/>
<text text-anchor="start" x="622.55" y="-20" font-family="Helvetica,sans-Serif" font-size="10.00">tools/llzk&#45;witgen/Witgen</text>
<text text-anchor="middle" x="681.8" y="-7.25" font-family="Helvetica,sans-Serif" font-size="10.00">Driver.cpp</text>
</a>
</g>
</g>
<!-- Node15&#45;&gt;Node16 -->
<g id="edge20_Node000015_Node000016" class="edge">
<title>Node15&#45;&gt;Node16</title>
<g id="a_edge20_Node000015_Node000016"><a xlink:title=" ">
<path fill="none" stroke="#63b8ff" d="M54.4,-140.68C36.21,-132.71 17.31,-120.68 6.8,-103 -0.8,-90.2 -3.31,-80.42 6.8,-69.5 47.51,-25.55 451.49,-18.78 614.31,-17.85"/>
<polygon fill="#63b8ff" stroke="#63b8ff" points="52.97,-143.88 63.55,-144.35 55.58,-137.38 52.97,-143.88"/>
</a>
</g>
</g>
<!-- Node17&#45;&gt;Node14 -->
<g id="edge22_Node000017_Node000014" class="edge">
<title>Node17&#45;&gt;Node14</title>
<g id="a_edge22_Node000017_Node000014"><a xlink:title=" ">
<path fill="none" stroke="#63b8ff" d="M1176.83,-65.35C1181.87,-55.34 1187.9,-43.36 1192.66,-33.92"/>
<polygon fill="#63b8ff" stroke="#63b8ff" points="1173.73,-63.72 1172.35,-74.23 1179.98,-66.87 1173.73,-63.72"/>
</a>
</g>
</g>
<!-- Node17&#45;&gt;Node16 -->
<g id="edge24_Node000017_Node000016" class="edge">
<title>Node17&#45;&gt;Node16</title>
<g id="a_edge24_Node000017_Node000016"><a xlink:title=" ">
<path fill="none" stroke="#63b8ff" d="M1088.72,-74.38C994.66,-61.29 838.23,-39.52 749.21,-27.13"/>
<polygon fill="#63b8ff" stroke="#63b8ff" points="1087.99,-77.81 1098.38,-75.73 1088.95,-70.88 1087.99,-77.81"/>
</a>
</g>
</g>
<!-- Node18 -->
<g id="Node000018" class="node">
<title>Node18</title>
<g id="a_Node000018"><a xlink:href="JSON_8cpp.html" target="_top" xlink:title=" ">
<polygon fill="white" stroke="#666666" points="1108.93,-27.12 964.68,-27.12 964.68,-6.38 1108.93,-6.38 1108.93,-27.12"/>
<text text-anchor="middle" x="1036.8" y="-13.62" font-family="Helvetica,sans-Serif" font-size="10.00">tools/llzk&#45;witgen/JSON.cpp</text>
</a>
</g>
</g>
<!-- Node17&#45;&gt;Node18 -->
<g id="edge23_Node000017_Node000018" class="edge">
<title>Node17&#45;&gt;Node18</title>
<g id="a_edge23_Node000017_Node000018"><a xlink:title=" ">
<path fill="none" stroke="#63b8ff" d="M1137.87,-70.23C1112.82,-57.22 1077.3,-38.78 1055.73,-27.58"/>
<polygon fill="#63b8ff" stroke="#63b8ff" points="1136.07,-73.24 1146.56,-74.74 1139.29,-67.02 1136.07,-73.24"/>
</a>
</g>
</g>
<!-- Node20&#45;&gt;Node7 -->
<g id="edge31_Node000020_Node000007" class="edge">
<title>Node20&#45;&gt;Node7</title>
<g id="a_edge31_Node000020_Node000007"><a xlink:title=" ">
<path fill="none" stroke="#63b8ff" d="M987.73,-202.72C936.39,-175.14 848.56,-127.95 802.69,-103.31"/>
<polygon fill="#63b8ff" stroke="#63b8ff" points="986,-205.77 996.47,-207.42 989.32,-199.6 986,-205.77"/>
</a>
</g>
</g>
<!-- Node20&#45;&gt;Node16 -->
<g id="edge30_Node000020_Node000016" class="edge">
<title>Node20&#45;&gt;Node16</title>
<g id="a_edge30_Node000020_Node000016"><a xlink:title=" ">
<path fill="none" stroke="#63b8ff" d="M948.85,-212.85C936.46,-211.26 923.8,-209.74 911.8,-208.5 690.2,-185.5 629.08,-221.78 411.8,-172.5 401.5,-170.16 240.75,-111.73 234.8,-103 226.42,-90.7 224.9,-80.62 234.8,-69.5 259.58,-41.68 495.61,-26.59 614.32,-20.7"/>
<polygon fill="#63b8ff" stroke="#63b8ff" points="948.24,-216.3 958.61,-214.13 949.15,-209.36 948.24,-216.3"/>
</a>
</g>
</g>
<!-- Node21 -->
<g id="Node000021" class="node">
<title>Node21</title>
<g id="a_Node000021"><a xlink:href="ExecutionEngineBackend_8h.html" target="_top" xlink:title=" ">
<polygon fill="white" stroke="#666666" points="1043.43,-103 896.18,-103 896.18,-69.5 1043.43,-69.5 1043.43,-103"/>
<text text-anchor="start" x="904.18" y="-89.5" font-family="Helvetica,sans-Serif" font-size="10.00">tools/llzk&#45;witgen/Execution</text>
<text text-anchor="middle" x="969.8" y="-76.75" font-family="Helvetica,sans-Serif" font-size="10.00">EngineBackend.h</text>
</a>
</g>
</g>
<!-- Node20&#45;&gt;Node21 -->
<g id="edge27_Node000020_Node000021" class="edge">
<title>Node20&#45;&gt;Node21</title>
<g id="a_edge27_Node000020_Node000021"><a xlink:title=" ">
<path fill="none" stroke="#63b8ff" d="M979.62,-202.25C968.13,-194.56 957.31,-184.72 950.8,-172.5 938.97,-150.28 950.47,-121.03 960.02,-103.21"/>
<polygon fill="#63b8ff" stroke="#63b8ff" points="977.72,-205.19 988.07,-207.42 981.37,-199.22 977.72,-205.19"/>
</a>
</g>
</g>
<!-- Node22 -->
<g id="Node000022" class="node">
<title>Node22</title>
<g id="a_Node000022"><a xlink:href="WitgenUtils_8h.html" target="_top" xlink:title=" ">
<polygon fill="white" stroke="#666666" points="555.05,-172.5 420.55,-172.5 420.55,-139 555.05,-139 555.05,-172.5"/>
<text text-anchor="start" x="428.55" y="-159" font-family="Helvetica,sans-Serif" font-size="10.00">tools/llzk&#45;witgen/Witgen</text>
<text text-anchor="middle" x="487.8" y="-146.25" font-family="Helvetica,sans-Serif" font-size="10.00">Utils.h</text>
</a>
</g>
</g>
<!-- Node20&#45;&gt;Node22 -->
<g id="edge32_Node000020_Node000022" class="edge">
<title>Node20&#45;&gt;Node22</title>
<g id="a_edge32_Node000020_Node000022"><a xlink:title=" ">
<path fill="none" stroke="#63b8ff" d="M949.28,-208.89C948.45,-208.75 947.63,-208.63 946.8,-208.5 808.29,-187.26 645,-170.9 555.3,-162.66"/>
<polygon fill="#63b8ff" stroke="#63b8ff" points="948.32,-212.27 958.76,-210.45 949.46,-205.37 948.32,-212.27"/>
</a>
</g>
</g>
<!-- Node24 -->
<g id="Node000024" class="node">
<title>Node24</title>
<g id="a_Node000024"><a xlink:href="WitnessSelection_8h.html" target="_top" xlink:title=" ">
<polygon fill="white" stroke="#666666" points="1098.3,-172.5 959.3,-172.5 959.3,-139 1098.3,-139 1098.3,-172.5"/>
<text text-anchor="start" x="967.3" y="-159" font-family="Helvetica,sans-Serif" font-size="10.00">tools/llzk&#45;witgen/Witness</text>
<text text-anchor="middle" x="1028.8" y="-146.25" font-family="Helvetica,sans-Serif" font-size="10.00">Selection.h</text>
</a>
</g>
</g>
<!-- Node20&#45;&gt;Node24 -->
<g id="edge40_Node000020_Node000024" class="edge">
<title>Node20&#45;&gt;Node24</title>
<g id="a_edge40_Node000020_Node000024"><a xlink:title=" ">
<path fill="none" stroke="#63b8ff" d="M1028.21,-196.81C1028.33,-188.59 1028.46,-179.84 1028.57,-172.63"/>
<polygon fill="#63b8ff" stroke="#63b8ff" points="1024.71,-196.69 1028.06,-206.74 1031.71,-196.79 1024.71,-196.69"/>
</a>
</g>
</g>
<!-- Node20&#45;&gt;Node26 -->
<g id="edge47_Node000020_Node000026" class="edge">
<title>Node20&#45;&gt;Node26</title>
<g id="a_edge47_Node000020_Node000026"><a xlink:title=" ">
<path fill="none" stroke="#63b8ff" d="M1073.47,-203.28C1094.8,-193.49 1119.79,-182.01 1139.63,-172.9"/>
<polygon fill="#63b8ff" stroke="#63b8ff" points="1072.02,-200.1 1064.39,-207.45 1074.94,-206.46 1072.02,-200.1"/>
</a>
</g>
</g>
<!-- Node21&#45;&gt;Node14 -->
<g id="edge28_Node000021_Node000014" class="edge">
<title>Node21&#45;&gt;Node14</title>
<g id="a_edge28_Node000021_Node000014"><a xlink:title=" ">
<path fill="none" stroke="#63b8ff" d="M1036.1,-65.88C1070.75,-55.75 1112.65,-43.51 1145.52,-33.9"/>
<polygon fill="#63b8ff" stroke="#63b8ff" points="1035.2,-62.49 1026.59,-68.66 1037.17,-69.21 1035.2,-62.49"/>
</a>
</g>
</g>
<!-- Node21&#45;&gt;Node16 -->
<g id="edge29_Node000021_Node000016" class="edge">
<title>Node21&#45;&gt;Node16</title>
<g id="a_edge29_Node000021_Node000016"><a xlink:title=" ">
<path fill="none" stroke="#63b8ff" d="M889.81,-66.5C845.59,-56.14 791.27,-43.41 749.23,-33.55"/>
<polygon fill="#63b8ff" stroke="#63b8ff" points="888.81,-69.86 899.35,-68.74 890.41,-63.05 888.81,-69.86"/>
</a>
</g>
</g>
<!-- Node22&#45;&gt;Node6 -->
<g id="edge34_Node000022_Node000006" class="edge">
<title>Node22&#45;&gt;Node6</title>
<g id="a_edge34_Node000022_Node000006"><a xlink:title=" ">
<path fill="none" stroke="#63b8ff" d="M408.93,-140.96C334.33,-127.91 224.22,-108.66 158.1,-97.1"/>
<polygon fill="#63b8ff" stroke="#63b8ff" points="408.18,-144.38 418.63,-142.65 409.39,-137.48 408.18,-144.38"/>
</a>
</g>
</g>
<!-- Node22&#45;&gt;Node7 -->
<g id="edge38_Node000022_Node000007" class="edge">
<title>Node22&#45;&gt;Node7</title>
<g id="a_edge38_Node000022_Node000007"><a xlink:title=" ">
<path fill="none" stroke="#63b8ff" d="M566.48,-136.12C610.03,-125.8 663.61,-113.11 705.25,-103.25"/>
<polygon fill="#63b8ff" stroke="#63b8ff" points="565.74,-132.69 556.82,-138.4 567.35,-139.51 565.74,-132.69"/>
</a>
</g>
</g>
<!-- Node22&#45;&gt;Node14 -->
<g id="edge33_Node000022_Node000014" class="edge">
<title>Node22&#45;&gt;Node14</title>
<g id="a_edge33_Node000022_Node000014"><a xlink:title=" ">
<path fill="none" stroke="#63b8ff" d="M566.34,-137.72C595.76,-129.56 628.82,-118.18 656.8,-103 677.18,-91.94 675.37,-78.34 696.8,-69.5 783.6,-33.69 1024.78,-46.27 1117.8,-33.5 1120.85,-33.08 1123.96,-32.63 1127.1,-32.14"/>
<polygon fill="#63b8ff" stroke="#63b8ff" points="565.47,-134.33 556.72,-140.3 567.29,-141.09 565.47,-134.33"/>
</a>
</g>
</g>
<!-- Node22&#45;&gt;Node16 -->
<g id="edge37_Node000022_Node000016" class="edge">
<title>Node22&#45;&gt;Node16</title>
<g id="a_edge37_Node000022_Node000016"><a xlink:title=" ">
<path fill="none" stroke="#63b8ff" d="M471.64,-128.55C462.64,-110.27 455.64,-86.24 468.8,-69.5 486.74,-46.69 558.89,-32.69 614.3,-25.1"/>
<polygon fill="#63b8ff" stroke="#63b8ff" points="468.48,-130.08 476.31,-137.22 474.65,-126.76 468.48,-130.08"/>
</a>
</g>
</g>
<!-- Node22&#45;&gt;Node18 -->
<g id="edge35_Node000022_Node000018" class="edge">
<title>Node22&#45;&gt;Node18</title>
<g id="a_edge35_Node000022_Node000018"><a xlink:title=" ">
<path fill="none" stroke="#63b8ff" d="M550.23,-134.72C573.1,-126.29 598.76,-115.52 620.8,-103 641.87,-91.04 641.49,-78.93 663.8,-69.5 716.5,-47.23 871.45,-31.23 964.23,-23.33"/>
<polygon fill="#63b8ff" stroke="#63b8ff" points="549.24,-131.36 541.02,-138.03 551.61,-137.94 549.24,-131.36"/>
</a>
</g>
</g>
<!-- Node22&#45;&gt;Node19 -->
<g id="edge36_Node000022_Node000019" class="edge">
<title>Node22&#45;&gt;Node19</title>
<g id="a_edge36_Node000022_Node000019"><a xlink:title=" ">
<path fill="none" stroke="#63b8ff" d="M440.19,-134.01C411.92,-121.7 377.38,-106.66 355.24,-97.02"/>
<polygon fill="#63b8ff" stroke="#63b8ff" points="438.72,-137.19 449.29,-137.98 441.52,-130.78 438.72,-137.19"/>
</a>
</g>
</g>
<!-- Node23 -->
<g id="Node000023" class="node">
<title>Node23</title>
<g id="a_Node000023"><a xlink:href="WitgenUtils_8cpp.html" target="_top" xlink:title=" ">
<polygon fill="white" stroke="#666666" points="612.05,-103 477.55,-103 477.55,-69.5 612.05,-69.5 612.05,-103"/>
<text text-anchor="start" x="485.55" y="-89.5" font-family="Helvetica,sans-Serif" font-size="10.00">tools/llzk&#45;witgen/Witgen</text>
<text text-anchor="middle" x="544.8" y="-76.75" font-family="Helvetica,sans-Serif" font-size="10.00">Utils.cpp</text>
</a>
</g>
</g>
<!-- Node22&#45;&gt;Node23 -->
<g id="edge39_Node000022_Node000023" class="edge">
<title>Node22&#45;&gt;Node23</title>
<g id="a_edge39_Node000022_Node000023"><a xlink:title=" ">
<path fill="none" stroke="#63b8ff" d="M508.57,-130.16C516.18,-121.14 524.59,-111.18 531.39,-103.13"/>
<polygon fill="#63b8ff" stroke="#63b8ff" points="506.07,-127.7 502.29,-137.6 511.41,-132.21 506.07,-127.7"/>
</a>
</g>
</g>
<!-- Node24&#45;&gt;Node7 -->
<g id="edge45_Node000024_Node000007" class="edge">
<title>Node24&#45;&gt;Node7</title>
<g id="a_edge45_Node000024_Node000007"><a xlink:title=" ">
<path fill="none" stroke="#63b8ff" d="M956.82,-135.77C918.14,-125.57 870.97,-113.13 834.06,-103.4"/>
<polygon fill="#63b8ff" stroke="#63b8ff" points="955.46,-139.03 966.02,-138.2 957.24,-132.26 955.46,-139.03"/>
</a>
</g>
</g>
<!-- Node24&#45;&gt;Node14 -->
<g id="edge41_Node000024_Node000014" class="edge">
<title>Node24&#45;&gt;Node14</title>
<g id="a_edge41_Node000024_Node000014"><a xlink:title=" ">
<path fill="none" stroke="#63b8ff" d="M1109.76,-137.6C1168.52,-124.77 1238.46,-108.52 1242.8,-103 1259.74,-81.48 1237.05,-52.02 1219.01,-33.97"/>
<polygon fill="#63b8ff" stroke="#63b8ff" points="1109.07,-134.17 1100.04,-139.72 1110.56,-141.01 1109.07,-134.17"/>
</a>
</g>
</g>
<!-- Node24&#45;&gt;Node16 -->
<g id="edge44_Node000024_Node000016" class="edge">
<title>Node24&#45;&gt;Node16</title>
<g id="a_edge44_Node000024_Node000016"><a xlink:title=" ">
<path fill="none" stroke="#63b8ff" d="M958.56,-134.95C934.9,-126.79 908.91,-116.13 886.8,-103 867.45,-91.5 868.44,-80.52 848.8,-69.5 818.1,-52.26 780.93,-40.02 749.46,-31.79"/>
<polygon fill="#63b8ff" stroke="#63b8ff" points="957.21,-138.19 967.81,-138.04 959.43,-131.55 957.21,-138.19"/>
</a>
</g>
</g>
<!-- Node24&#45;&gt;Node17 -->
<g id="edge43_Node000024_Node000017" class="edge">
<title>Node24&#45;&gt;Node17</title>
<g id="a_edge43_Node000024_Node000017"><a xlink:title=" ">
<path fill="none" stroke="#63b8ff" d="M1072.2,-133.52C1097.18,-121.31 1127.38,-106.53 1146.83,-97.02"/>
<polygon fill="#63b8ff" stroke="#63b8ff" points="1070.66,-130.38 1063.22,-137.92 1073.74,-136.67 1070.66,-130.38"/>
</a>
</g>
</g>
<!-- Node24&#45;&gt;Node18 -->
<g id="edge42_Node000024_Node000018" class="edge">
<title>Node24&#45;&gt;Node18</title>
<g id="a_edge42_Node000024_Node000018"><a xlink:title=" ">
<path fill="none" stroke="#63b8ff" d="M1043.65,-128.5C1047.4,-120.56 1050.9,-111.64 1052.8,-103 1058.8,-75.8 1047.78,-43.39 1041.2,-27.51"/>
<polygon fill="#63b8ff" stroke="#63b8ff" points="1040.6,-126.77 1039.19,-137.27 1046.84,-129.94 1040.6,-126.77"/>
</a>
</g>
</g>
<!-- Node24&#45;&gt;Node25 -->
<g id="edge46_Node000024_Node000025" class="edge">
<title>Node24&#45;&gt;Node25</title>
<g id="a_edge46_Node000024_Node000025"><a xlink:title=" ">
<path fill="none" stroke="#63b8ff" d="M1109.83,-138.45C1190.03,-123.31 1271.69,-108.94 1328.04,-99.19"/>
<polygon fill="#63b8ff" stroke="#63b8ff" points="1109.19,-135.01 1100.02,-140.31 1110.49,-141.88 1109.19,-135.01"/>
</a>
</g>
</g>
</g>
</svg>
