<?xml version="1.0" encoding="UTF-8" standalone="no"?>
<!DOCTYPE svg PUBLIC "-//W3C//DTD SVG 1.1//EN"
 "http://www.w3.org/Graphics/SVG/1.1/DTD/svg11.dtd">
<!-- Generated by graphviz version 12.2.1 (0)
 -->
<!-- Title: lib/Dialect/POD/IR/Types.cpp Pages: 1 -->
<svg width="1259pt" height="250pt"
 viewBox="0.00 0.00 1258.75 250.00" xmlns="http://www.w3.org/2000/svg" xmlns:xlink="http://www.w3.org/1999/xlink">
<g id="graph0" class="graph" transform="scale(1 1) rotate(0) translate(4 246)">
<title>lib/Dialect/POD/IR/Types.cpp</title>
<!-- Node1 -->
<g id="Node000001" class="node">
<title>Node1</title>
<g id="a_Node000001"><a xlink:title=" ">
<polygon fill="#999999" stroke="#666666" points="904.25,-242 802,-242 802,-208.5 904.25,-208.5 904.25,-242"/>
<text text-anchor="start" x="810" y="-228.5" font-family="Helvetica,sans-Serif" font-size="10.00">lib/Dialect/POD/IR</text>
<text text-anchor="middle" x="853.12" y="-215.75" font-family="Helvetica,sans-Serif" font-size="10.00">/Types.cpp</text>
</a>
</g>
</g>
<!-- Node2 -->
<g id="Node000002" class="node">
<title>Node2</title>
<g id="a_Node000002"><a xlink:href="POD_2IR_2Types_8h.html" target="_top" xlink:title=" ">
<polygon fill="white" stroke="#666666" points="591.88,-172.5 484.38,-172.5 484.38,-139 591.88,-139 591.88,-172.5"/>
<text text-anchor="start" x="492.38" y="-159" font-family="Helvetica,sans-Serif" font-size="10.00">llzk/Dialect/POD/IR</text>
<text text-anchor="middle" x="538.12" y="-146.25" font-family="Helvetica,sans-Serif" font-size="10.00">/Types.h</text>
</a>
</g>
</g>
<!-- Node1&#45;&gt;Node2 -->
<g id="edge1_Node000001_Node000002" class="edge">
<title>Node1&#45;&gt;Node2</title>
<g id="a_edge1_Node000001_Node000002"><a xlink:title=" ">
<path fill="none" stroke="#63b8ff" d="M801.83,-214.38C753.2,-204.87 677.85,-189.76 603.07,-172.89"/>
<polygon fill="#63b8ff" stroke="#63b8ff" points="604.05,-169.52 593.52,-170.72 602.5,-176.35 604.05,-169.52"/>
</a>
</g>
</g>
<!-- Node12 -->
<g id="Node000012" class="node">
<title>Node12</title>
<g id="a_Node000012"><a xlink:title=" ">
<polygon fill="#e0e0e0" stroke="#999999" points="710.12,-166.12 610.12,-166.12 610.12,-145.38 710.12,-145.38 710.12,-166.12"/>
<text text-anchor="middle" x="660.12" y="-152.62" font-family="Helvetica,sans-Serif" font-size="10.00">mlir/IR/Builders.h</text>
</a>
</g>
</g>
<!-- Node1&#45;&gt;Node12 -->
<g id="edge11_Node000001_Node000012" class="edge">
<title>Node1&#45;&gt;Node12</title>
<g id="a_edge11_Node000001_Node000012"><a xlink:title=" ">
<path fill="none" stroke="#63b8ff" d="M806.9,-208.08C774.02,-196.58 730.35,-181.31 699.21,-170.42"/>
<polygon fill="#63b8ff" stroke="#63b8ff" points="700.37,-167.12 689.77,-167.12 698.06,-173.72 700.37,-167.12"/>
</a>
</g>
</g>
<!-- Node13 -->
<g id="Node000013" class="node">
<title>Node13</title>
<g id="a_Node000013"><a xlink:title=" ">
<polygon fill="#e0e0e0" stroke="#999999" points="845.75,-166.12 728.5,-166.12 728.5,-145.38 845.75,-145.38 845.75,-166.12"/>
<text text-anchor="middle" x="787.12" y="-152.62" font-family="Helvetica,sans-Serif" font-size="10.00">mlir/IR/Diagnostics.h</text>
</a>
</g>
</g>
<!-- Node1&#45;&gt;Node13 -->
<g id="edge12_Node000001_Node000013" class="edge">
<title>Node1&#45;&gt;Node13</title>
<g id="a_edge12_Node000001_Node000013"><a xlink:title=" ">
<path fill="none" stroke="#63b8ff" d="M837.48,-208.25C827.6,-198.14 814.8,-185.06 804.59,-174.61"/>
<polygon fill="#63b8ff" stroke="#63b8ff" points="807.28,-172.36 797.79,-167.65 802.28,-177.25 807.28,-172.36"/>
</a>
</g>
</g>
<!-- Node14 -->
<g id="Node000014" class="node">
<title>Node14</title>
<g id="a_Node000014"><a xlink:title=" ">
<polygon fill="#e0e0e0" stroke="#999999" points="976.88,-166.12 863.38,-166.12 863.38,-145.38 976.88,-145.38 976.88,-166.12"/>
<text text-anchor="middle" x="920.12" y="-152.62" font-family="Helvetica,sans-Serif" font-size="10.00">mlir/Support/LLVM.h</text>
</a>
</g>
</g>
<!-- Node1&#45;&gt;Node14 -->
<g id="edge13_Node000001_Node000014" class="edge">
<title>Node1&#45;&gt;Node14</title>
<g id="a_edge13_Node000001_Node000014"><a xlink:title=" ">
<path fill="none" stroke="#63b8ff" d="M869,-208.25C879.04,-198.14 892.03,-185.06 902.4,-174.61"/>
<polygon fill="#63b8ff" stroke="#63b8ff" points="904.75,-177.21 909.31,-167.65 899.78,-172.28 904.75,-177.21"/>
</a>
</g>
</g>
<!-- Node15 -->
<g id="Node000015" class="node">
<title>Node15</title>
<g id="a_Node000015"><a xlink:title=" ">
<polygon fill="#e0e0e0" stroke="#999999" points="1115.62,-166.12 994.62,-166.12 994.62,-145.38 1115.62,-145.38 1115.62,-166.12"/>
<text text-anchor="middle" x="1055.12" y="-152.62" font-family="Helvetica,sans-Serif" font-size="10.00">llvm/ADT/STLExtras.h</text>
</a>
</g>
</g>
<!-- Node1&#45;&gt;Node15 -->
<g id="edge14_Node000001_Node000015" class="edge">
<title>Node1&#45;&gt;Node15</title>
<g id="a_edge14_Node000001_Node000015"><a xlink:title=" ">
<path fill="none" stroke="#63b8ff" d="M901.51,-208.08C936.22,-196.48 982.43,-181.04 1015.08,-170.13"/>
<polygon fill="#63b8ff" stroke="#63b8ff" points="1015.78,-173.59 1024.15,-167.1 1013.56,-166.95 1015.78,-173.59"/>
</a>
</g>
</g>
<!-- Node16 -->
<g id="Node000016" class="node">
<title>Node16</title>
<g id="a_Node000016"><a xlink:title=" ">
<polygon fill="#e0e0e0" stroke="#999999" points="1250.75,-166.12 1133.5,-166.12 1133.5,-145.38 1250.75,-145.38 1250.75,-166.12"/>
<text text-anchor="middle" x="1192.12" y="-152.62" font-family="Helvetica,sans-Serif" font-size="10.00">llvm/ADT/StringSet.h</text>
</a>
</g>
</g>
<!-- Node1&#45;&gt;Node16 -->
<g id="edge15_Node000001_Node000016" class="edge">
<title>Node1&#45;&gt;Node16</title>
<g id="a_edge15_Node000001_Node000016"><a xlink:title=" ">
<path fill="none" stroke="#63b8ff" d="M904.64,-215.13C959.44,-205.27 1048.6,-188.77 1125.12,-172.5 1130.06,-171.45 1135.18,-170.32 1140.31,-169.16"/>
<polygon fill="#63b8ff" stroke="#63b8ff" points="1141,-172.59 1149.97,-166.95 1139.44,-165.77 1141,-172.59"/>
</a>
</g>
</g>
<!-- Node3 -->
<g id="Node000003" class="node">
<title>Node3</title>
<g id="a_Node000003"><a xlink:href="POD_2IR_2Attrs_8h.html" target="_top" xlink:title=" ">
<polygon fill="white" stroke="#666666" points="320.88,-103 213.38,-103 213.38,-69.5 320.88,-69.5 320.88,-103"/>
<text text-anchor="start" x="221.38" y="-89.5" font-family="Helvetica,sans-Serif" font-size="10.00">llzk/Dialect/POD/IR</text>
<text text-anchor="middle" x="267.12" y="-76.75" font-family="Helvetica,sans-Serif" font-size="10.00">/Attrs.h</text>
</a>
</g>
</g>
<!-- Node2&#45;&gt;Node3 -->
<g id="edge2_Node000002_Node000003" class="edge">
<title>Node2&#45;&gt;Node3</title>
<g id="a_edge2_Node000002_Node000003"><a xlink:title=" ">
<path fill="none" stroke="#63b8ff" d="M483.94,-141.25C440.27,-130.38 378.73,-115.05 332.36,-103.5"/>
<polygon fill="#63b8ff" stroke="#63b8ff" points="333.24,-100.11 322.69,-101.09 331.55,-106.9 333.24,-100.11"/>
</a>
</g>
</g>
<!-- Node7 -->
<g id="Node000007" class="node">
<title>Node7</title>
<g id="a_Node000007"><a xlink:href="POD_2IR_2Dialect_8h.html" target="_top" xlink:title=" ">
<polygon fill="white" stroke="#666666" points="518.88,-103 411.38,-103 411.38,-69.5 518.88,-69.5 518.88,-103"/>
<text text-anchor="start" x="419.38" y="-89.5" font-family="Helvetica,sans-Serif" font-size="10.00">llzk/Dialect/POD/IR</text>
<text text-anchor="middle" x="465.12" y="-76.75" font-family="Helvetica,sans-Serif" font-size="10.00">/Dialect.h</text>
</a>
</g>
</g>
<!-- Node2&#45;&gt;Node7 -->
<g id="edge6_Node000002_Node000007" class="edge">
<title>Node2&#45;&gt;Node7</title>
<g id="a_edge6_Node000002_Node000007"><a xlink:title=" ">
<path fill="none" stroke="#63b8ff" d="M520.83,-138.75C511.89,-130.49 500.81,-120.25 490.89,-111.07"/>
<polygon fill="#63b8ff" stroke="#63b8ff" points="493.38,-108.61 483.67,-104.39 488.63,-113.75 493.38,-108.61"/>
</a>
</g>
</g>
<!-- Node10 -->
<g id="Node000010" class="node">
<title>Node10</title>
<g id="a_Node000010"><a xlink:title=" ">
<polygon fill="#e0e0e0" stroke="#999999" points="686.88,-103 537.38,-103 537.38,-69.5 686.88,-69.5 686.88,-103"/>
<text text-anchor="start" x="545.38" y="-89.5" font-family="Helvetica,sans-Serif" font-size="10.00">mlir/Interfaces/MemorySlot</text>
<text text-anchor="middle" x="612.12" y="-76.75" font-family="Helvetica,sans-Serif" font-size="10.00">Interfaces.h</text>
</a>
</g>
</g>
<!-- Node2&#45;&gt;Node10 -->
<g id="edge9_Node000002_Node000010" class="edge">
<title>Node2&#45;&gt;Node10</title>
<g id="a_edge9_Node000002_Node000010"><a xlink:title=" ">
<path fill="none" stroke="#63b8ff" d="M555.66,-138.75C564.72,-130.49 575.95,-120.25 586.01,-111.07"/>
<polygon fill="#63b8ff" stroke="#63b8ff" points="588.31,-113.71 593.34,-104.39 583.59,-108.54 588.31,-113.71"/>
</a>
</g>
</g>
<!-- Node11 -->
<g id="Node000011" class="node">
<title>Node11</title>
<g id="a_Node000011"><a xlink:href="POD_2IR_2Types_8h_8inc.html" target="_top" xlink:title=" ">
<polygon fill="white" stroke="#666666" points="812.88,-103 705.38,-103 705.38,-69.5 812.88,-69.5 812.88,-103"/>
<text text-anchor="start" x="713.38" y="-89.5" font-family="Helvetica,sans-Serif" font-size="10.00">llzk/Dialect/POD/IR</text>
<text text-anchor="middle" x="759.12" y="-76.75" font-family="Helvetica,sans-Serif" font-size="10.00">/Types.h.inc</text>
</a>
</g>
</g>
<!-- Node2&#45;&gt;Node11 -->
<g id="edge10_Node000002_Node000011" class="edge">
<title>Node2&#45;&gt;Node11</title>
<g id="a_edge10_Node000002_Node000011"><a xlink:title=" ">
<path fill="none" stroke="#63b8ff" d="M591.06,-138.58C622.38,-129.02 662.26,-116.83 695.31,-106.74"/>
<polygon fill="#63b8ff" stroke="#63b8ff" points="696.25,-110.11 704.79,-103.84 694.21,-103.42 696.25,-110.11"/>
</a>
</g>
</g>
<!-- Node4 -->
<g id="Node000004" class="node">
<title>Node4</title>
<g id="a_Node000004"><a xlink:title=" ">
<polygon fill="#e0e0e0" stroke="#999999" points="108.25,-27.12 0,-27.12 0,-6.38 108.25,-6.38 108.25,-27.12"/>
<text text-anchor="middle" x="54.12" y="-13.62" font-family="Helvetica,sans-Serif" font-size="10.00">mlir/IR/Attributes.h</text>
</a>
</g>
</g>
<!-- Node3&#45;&gt;Node4 -->
<g id="edge3_Node000003_Node000004" class="edge">
<title>Node3&#45;&gt;Node4</title>
<g id="a_edge3_Node000003_Node000004"><a xlink:title=" ">
<path fill="none" stroke="#63b8ff" d="M216.11,-69.08C179.35,-57.43 130.35,-41.91 95.91,-30.99"/>
<polygon fill="#63b8ff" stroke="#63b8ff" points="97.3,-27.76 86.71,-28.08 95.19,-34.43 97.3,-27.76"/>
</a>
</g>
</g>
<!-- Node5 -->
<g id="Node000005" class="node">
<title>Node5</title>
<g id="a_Node000005"><a xlink:title=" ">
<polygon fill="#e0e0e0" stroke="#999999" points="266,-27.12 126.25,-27.12 126.25,-6.38 266,-6.38 266,-27.12"/>
<text text-anchor="middle" x="196.12" y="-13.62" font-family="Helvetica,sans-Serif" font-size="10.00">mlir/IR/BuiltinAttributes.h</text>
</a>
</g>
</g>
<!-- Node3&#45;&gt;Node5 -->
<g id="edge4_Node000003_Node000005" class="edge">
<title>Node3&#45;&gt;Node5</title>
<g id="a_edge4_Node000003_Node000005"><a xlink:title=" ">
<path fill="none" stroke="#63b8ff" d="M250.3,-69.25C239.56,-59.04 225.62,-45.8 214.58,-35.29"/>
<polygon fill="#63b8ff" stroke="#63b8ff" points="217.21,-32.97 207.55,-28.61 212.39,-38.04 217.21,-32.97"/>
</a>
</g>
</g>
<!-- Node6 -->
<g id="Node000006" class="node">
<title>Node6</title>
<g id="a_Node000006"><a xlink:href="POD_2IR_2Attrs_8h_8inc.html" target="_top" xlink:title=" ">
<polygon fill="white" stroke="#666666" points="391.88,-33.5 284.38,-33.5 284.38,0 391.88,0 391.88,-33.5"/>
<text text-anchor="start" x="292.38" y="-20" font-family="Helvetica,sans-Serif" font-size="10.00">llzk/Dialect/POD/IR</text>
<text text-anchor="middle" x="338.12" y="-7.25" font-family="Helvetica,sans-Serif" font-size="10.00">/Attrs.h.inc</text>
</a>
</g>
</g>
<!-- Node3&#45;&gt;Node6 -->
<g id="edge5_Node000003_Node000006" class="edge">
<title>Node3&#45;&gt;Node6</title>
<g id="a_edge5_Node000003_Node000006"><a xlink:title=" ">
<path fill="none" stroke="#63b8ff" d="M283.95,-69.25C292.7,-60.93 303.58,-50.6 313.28,-41.37"/>
<polygon fill="#63b8ff" stroke="#63b8ff" points="315.49,-44.1 320.32,-34.67 310.66,-39.03 315.49,-44.1"/>
</a>
</g>
</g>
<!-- Node8 -->
<g id="Node000008" class="node">
<title>Node8</title>
<g id="a_Node000008"><a xlink:title=" ">
<polygon fill="#e0e0e0" stroke="#999999" points="520.38,-27.12 409.88,-27.12 409.88,-6.38 520.38,-6.38 520.38,-27.12"/>
<text text-anchor="middle" x="465.12" y="-13.62" font-family="Helvetica,sans-Serif" font-size="10.00">mlir/IR/BuiltinOps.h</text>
</a>
</g>
</g>
<!-- Node7&#45;&gt;Node8 -->
<g id="edge7_Node000007_Node000008" class="edge">
<title>Node7&#45;&gt;Node8</title>
<g id="a_edge7_Node000007_Node000008"><a xlink:title=" ">
<path fill="none" stroke="#63b8ff" d="M465.12,-69.25C465.12,-60.15 465.12,-48.64 465.12,-38.82"/>
<polygon fill="#63b8ff" stroke="#63b8ff" points="468.63,-39.09 465.13,-29.09 461.63,-39.09 468.63,-39.09"/>
</a>
</g>
</g>
<!-- Node9 -->
<g id="Node000009" class="node">
<title>Node9</title>
<g id="a_Node000009"><a xlink:href="POD_2IR_2Dialect_8h_8inc.html" target="_top" xlink:title=" ">
<polygon fill="white" stroke="#666666" points="645.88,-33.5 538.38,-33.5 538.38,0 645.88,0 645.88,-33.5"/>
<text text-anchor="start" x="546.38" y="-20" font-family="Helvetica,sans-Serif" font-size="10.00">llzk/Dialect/POD/IR</text>
<text text-anchor="middle" x="592.12" y="-7.25" font-family="Helvetica,sans-Serif" font-size="10.00">/Dialect.h.inc</text>
</a>
</g>
</g>
<!-- Node7&#45;&gt;Node9 -->
<g id="edge8_Node000007_Node000009" class="edge">
<title>Node7&#45;&gt;Node9</title>
<g id="a_edge8_Node000007_Node000009"><a xlink:title=" ">
<path fill="none" stroke="#63b8ff" d="M495.54,-69.08C512.43,-60.11 533.65,-48.83 551.89,-39.13"/>
<polygon fill="#63b8ff" stroke="#63b8ff" points="553.43,-42.28 560.62,-34.5 550.14,-36.1 553.43,-42.28"/>
</a>
</g>
</g>
</g>
</svg>
