<?xml version="1.0" encoding="UTF-8" standalone="no"?>
<!DOCTYPE svg PUBLIC "-//W3C//DTD SVG 1.1//EN"
 "http://www.w3.org/Graphics/SVG/1.1/DTD/svg11.dtd">
<!-- Generated by graphviz version 12.2.1 (0)
 -->
<!-- Title: include/llzk/Dialect/POD/IR/Types.h Pages: 1 -->
<svg width="821pt" height="181pt"
 viewBox="0.00 0.00 820.88 180.50" xmlns="http://www.w3.org/2000/svg" xmlns:xlink="http://www.w3.org/1999/xlink">
<g id="graph0" class="graph" transform="scale(1 1) rotate(0) translate(4 176.5)">
<title>include/llzk/Dialect/POD/IR/Types.h</title>
<!-- Node1 -->
<g id="Node000001" class="node">
<title>Node1</title>
<g id="a_Node000001"><a xlink:title=" ">
<polygon fill="#999999" stroke="#666666" points="592.62,-172.5 483.62,-172.5 483.62,-139 592.62,-139 592.62,-172.5"/>
<text text-anchor="start" x="491.62" y="-159" font-family="Helvetica,sans-Serif" font-size="10.00">include/llzk/Dialect</text>
<text text-anchor="middle" x="538.12" y="-146.25" font-family="Helvetica,sans-Serif" font-size="10.00">/POD/IR/Types.h</text>
</a>
</g>
</g>
<!-- Node2 -->
<g id="Node000002" class="node">
<title>Node2</title>
<g id="a_Node000002"><a xlink:href="POD_2IR_2Attrs_8h.html" target="_top" xlink:title=" ">
<polygon fill="white" stroke="#666666" points="320.88,-103 213.38,-103 213.38,-69.5 320.88,-69.5 320.88,-103"/>
<text text-anchor="start" x="221.38" y="-89.5" font-family="Helvetica,sans-Serif" font-size="10.00">llzk/Dialect/POD/IR</text>
<text text-anchor="middle" x="267.12" y="-76.75" font-family="Helvetica,sans-Serif" font-size="10.00">/Attrs.h</text>
</a>
</g>
</g>
<!-- Node1&#45;&gt;Node2 -->
<g id="edge1_Node000001_Node000002" class="edge">
<title>Node1&#45;&gt;Node2</title>
<g id="a_edge1_Node000001_Node000002"><a xlink:title=" ">
<path fill="none" stroke="#63b8ff" d="M483.28,-141.09C439.56,-130.2 378.23,-114.92 332.05,-103.42"/>
<polygon fill="#63b8ff" stroke="#63b8ff" points="332.98,-100.05 322.43,-101.02 331.29,-106.84 332.98,-100.05"/>
</a>
</g>
</g>
<!-- Node6 -->
<g id="Node000006" class="node">
<title>Node6</title>
<g id="a_Node000006"><a xlink:href="POD_2IR_2Dialect_8h.html" target="_top" xlink:title=" ">
<polygon fill="white" stroke="#666666" points="518.88,-103 411.38,-103 411.38,-69.5 518.88,-69.5 518.88,-103"/>
<text text-anchor="start" x="419.38" y="-89.5" font-family="Helvetica,sans-Serif" font-size="10.00">llzk/Dialect/POD/IR</text>
<text text-anchor="middle" x="465.12" y="-76.75" font-family="Helvetica,sans-Serif" font-size="10.00">/Dialect.h</text>
</a>
</g>
</g>
<!-- Node1&#45;&gt;Node6 -->
<g id="edge5_Node000001_Node000006" class="edge">
<title>Node1&#45;&gt;Node6</title>
<g id="a_edge5_Node000001_Node000006"><a xlink:title=" ">
<path fill="none" stroke="#63b8ff" d="M520.83,-138.75C511.89,-130.49 500.81,-120.25 490.89,-111.07"/>
<polygon fill="#63b8ff" stroke="#63b8ff" points="493.38,-108.61 483.67,-104.39 488.63,-113.75 493.38,-108.61"/>
</a>
</g>
</g>
<!-- Node9 -->
<g id="Node000009" class="node">
<title>Node9</title>
<g id="a_Node000009"><a xlink:title=" ">
<polygon fill="#e0e0e0" stroke="#999999" points="686.88,-103 537.38,-103 537.38,-69.5 686.88,-69.5 686.88,-103"/>
<text text-anchor="start" x="545.38" y="-89.5" font-family="Helvetica,sans-Serif" font-size="10.00">mlir/Interfaces/MemorySlot</text>
<text text-anchor="middle" x="612.12" y="-76.75" font-family="Helvetica,sans-Serif" font-size="10.00">Interfaces.h</text>
</a>
</g>
</g>
<!-- Node1&#45;&gt;Node9 -->
<g id="edge8_Node000001_Node000009" class="edge">
<title>Node1&#45;&gt;Node9</title>
<g id="a_edge8_Node000001_Node000009"><a xlink:title=" ">
<path fill="none" stroke="#63b8ff" d="M555.66,-138.75C564.72,-130.49 575.95,-120.25 586.01,-111.07"/>
<polygon fill="#63b8ff" stroke="#63b8ff" points="588.31,-113.71 593.34,-104.39 583.59,-108.54 588.31,-113.71"/>
</a>
</g>
</g>
<!-- Node10 -->
<g id="Node000010" class="node">
<title>Node10</title>
<g id="a_Node000010"><a xlink:href="POD_2IR_2Types_8h_8inc.html" target="_top" xlink:title=" ">
<polygon fill="white" stroke="#666666" points="812.88,-103 705.38,-103 705.38,-69.5 812.88,-69.5 812.88,-103"/>
<text text-anchor="start" x="713.38" y="-89.5" font-family="Helvetica,sans-Serif" font-size="10.00">llzk/Dialect/POD/IR</text>
<text text-anchor="middle" x="759.12" y="-76.75" font-family="Helvetica,sans-Serif" font-size="10.00">/Types.h.inc</text>
</a>
</g>
</g>
<!-- Node1&#45;&gt;Node10 -->
<g id="edge9_Node000001_Node000010" class="edge">
<title>Node1&#45;&gt;Node10</title>
<g id="a_edge9_Node000001_Node000010"><a xlink:title=" ">
<path fill="none" stroke="#63b8ff" d="M591.06,-138.58C622.38,-129.02 662.26,-116.83 695.31,-106.74"/>
<polygon fill="#63b8ff" stroke="#63b8ff" points="696.25,-110.11 704.79,-103.84 694.21,-103.42 696.25,-110.11"/>
</a>
</g>
</g>
<!-- Node3 -->
<g id="Node000003" class="node">
<title>Node3</title>
<g id="a_Node000003"><a xlink:title=" ">
<polygon fill="#e0e0e0" stroke="#999999" points="108.25,-27.12 0,-27.12 0,-6.38 108.25,-6.38 108.25,-27.12"/>
<text text-anchor="middle" x="54.12" y="-13.62" font-family="Helvetica,sans-Serif" font-size="10.00">mlir/IR/Attributes.h</text>
</a>
</g>
</g>
<!-- Node2&#45;&gt;Node3 -->
<g id="edge2_Node000002_Node000003" class="edge">
<title>Node2&#45;&gt;Node3</title>
<g id="a_edge2_Node000002_Node000003"><a xlink:title=" ">
<path fill="none" stroke="#63b8ff" d="M216.11,-69.08C179.35,-57.43 130.35,-41.91 95.91,-30.99"/>
<polygon fill="#63b8ff" stroke="#63b8ff" points="97.3,-27.76 86.71,-28.08 95.19,-34.43 97.3,-27.76"/>
</a>
</g>
</g>
<!-- Node4 -->
<g id="Node000004" class="node">
<title>Node4</title>
<g id="a_Node000004"><a xlink:title=" ">
<polygon fill="#e0e0e0" stroke="#999999" points="266,-27.12 126.25,-27.12 126.25,-6.38 266,-6.38 266,-27.12"/>
<text text-anchor="middle" x="196.12" y="-13.62" font-family="Helvetica,sans-Serif" font-size="10.00">mlir/IR/BuiltinAttributes.h</text>
</a>
</g>
</g>
<!-- Node2&#45;&gt;Node4 -->
<g id="edge3_Node000002_Node000004" class="edge">
<title>Node2&#45;&gt;Node4</title>
<g id="a_edge3_Node000002_Node000004"><a xlink:title=" ">
<path fill="none" stroke="#63b8ff" d="M250.3,-69.25C239.56,-59.04 225.62,-45.8 214.58,-35.29"/>
<polygon fill="#63b8ff" stroke="#63b8ff" points="217.21,-32.97 207.55,-28.61 212.39,-38.04 217.21,-32.97"/>
</a>
</g>
</g>
<!-- Node5 -->
<g id="Node000005" class="node">
<title>Node5</title>
<g id="a_Node000005"><a xlink:href="POD_2IR_2Attrs_8h_8inc.html" target="_top" xlink:title=" ">
<polygon fill="white" stroke="#666666" points="391.88,-33.5 284.38,-33.5 284.38,0 391.88,0 391.88,-33.5"/>
<text text-anchor="start" x="292.38" y="-20" font-family="Helvetica,sans-Serif" font-size="10.00">llzk/Dialect/POD/IR</text>
<text text-anchor="middle" x="338.12" y="-7.25" font-family="Helvetica,sans-Serif" font-size="10.00">/Attrs.h.inc</text>
</a>
</g>
</g>
<!-- Node2&#45;&gt;Node5 -->
<g id="edge4_Node000002_Node000005" class="edge">
<title>Node2&#45;&gt;Node5</title>
<g id="a_edge4_Node000002_Node000005"><a xlink:title=" ">
<path fill="none" stroke="#63b8ff" d="M283.95,-69.25C292.7,-60.93 303.58,-50.6 313.28,-41.37"/>
<polygon fill="#63b8ff" stroke="#63b8ff" points="315.49,-44.1 320.32,-34.67 310.66,-39.03 315.49,-44.1"/>
</a>
</g>
</g>
<!-- Node7 -->
<g id="Node000007" class="node">
<title>Node7</title>
<g id="a_Node000007"><a xlink:title=" ">
<polygon fill="#e0e0e0" stroke="#999999" points="520.38,-27.12 409.88,-27.12 409.88,-6.38 520.38,-6.38 520.38,-27.12"/>
<text text-anchor="middle" x="465.12" y="-13.62" font-family="Helvetica,sans-Serif" font-size="10.00">mlir/IR/BuiltinOps.h</text>
</a>
</g>
</g>
<!-- Node6&#45;&gt;Node7 -->
<g id="edge6_Node000006_Node000007" class="edge">
<title>Node6&#45;&gt;Node7</title>
<g id="a_edge6_Node000006_Node000007"><a xlink:title=" ">
<path fill="none" stroke="#63b8ff" d="M465.12,-69.25C465.12,-60.15 465.12,-48.64 465.12,-38.82"/>
<polygon fill="#63b8ff" stroke="#63b8ff" points="468.63,-39.09 465.13,-29.09 461.63,-39.09 468.63,-39.09"/>
</a>
</g>
</g>
<!-- Node8 -->
<g id="Node000008" class="node">
<title>Node8</title>
<g id="a_Node000008"><a xlink:href="POD_2IR_2Dialect_8h_8inc.html" target="_top" xlink:title=" ">
<polygon fill="white" stroke="#666666" points="645.88,-33.5 538.38,-33.5 538.38,0 645.88,0 645.88,-33.5"/>
<text text-anchor="start" x="546.38" y="-20" font-family="Helvetica,sans-Serif" font-size="10.00">llzk/Dialect/POD/IR</text>
<text text-anchor="middle" x="592.12" y="-7.25" font-family="Helvetica,sans-Serif" font-size="10.00">/Dialect.h.inc</text>
</a>
</g>
</g>
<!-- Node6&#45;&gt;Node8 -->
<g id="edge7_Node000006_Node000008" class="edge">
<title>Node6&#45;&gt;Node8</title>
<g id="a_edge7_Node000006_Node000008"><a xlink:title=" ">
<path fill="none" stroke="#63b8ff" d="M495.54,-69.08C512.43,-60.11 533.65,-48.83 551.89,-39.13"/>
<polygon fill="#63b8ff" stroke="#63b8ff" points="553.43,-42.28 560.62,-34.5 550.14,-36.1 553.43,-42.28"/>
</a>
</g>
</g>
</g>
</svg>
