<?xml version="1.0" encoding="UTF-8" standalone="no"?>
<!DOCTYPE svg PUBLIC "-//W3C//DTD SVG 1.1//EN"
 "http://www.w3.org/Graphics/SVG/1.1/DTD/svg11.dtd">
<!-- Generated by graphviz version 12.2.1 (0)
 -->
<!-- Title: build/include/llzk/Dialect/POD/IR/OpInterfaces.h.inc Pages: 1 -->
<svg width="1963pt" height="332pt"
 viewBox="0.00 0.00 1963.25 332.25" xmlns="http://www.w3.org/2000/svg" xmlns:xlink="http://www.w3.org/1999/xlink">
<g id="graph0" class="graph" transform="scale(1 1) rotate(0) translate(4 328.25)">
<title>build/include/llzk/Dialect/POD/IR/OpInterfaces.h.inc</title>
<!-- Node1 -->
<g id="Node000001" class="node">
<title>Node1</title>
<g id="a_Node000001"><a xlink:title=" ">
<polygon fill="#999999" stroke="#666666" points="1231.88,-324.25 1050.12,-324.25 1050.12,-290.75 1231.88,-290.75 1231.88,-324.25"/>
<text text-anchor="start" x="1058.12" y="-310.75" font-family="Helvetica,sans-Serif" font-size="10.00">build/include/llzk</text>
<text text-anchor="middle" x="1141" y="-298" font-family="Helvetica,sans-Serif" font-size="10.00">/Dialect/POD/IR/OpInterfaces.h.inc</text>
</a>
</g>
</g>
<!-- Node2 -->
<g id="Node000002" class="node">
<title>Node2</title>
<g id="a_Node000002"><a xlink:href="POD_2IR_2Ops_8h.html" target="_top" xlink:title=" ">
<polygon fill="white" stroke="#666666" points="1195.5,-254.75 1086.5,-254.75 1086.5,-221.25 1195.5,-221.25 1195.5,-254.75"/>
<text text-anchor="start" x="1094.5" y="-241.25" font-family="Helvetica,sans-Serif" font-size="10.00">include/llzk/Dialect</text>
<text text-anchor="middle" x="1141" y="-228.5" font-family="Helvetica,sans-Serif" font-size="10.00">/POD/IR/Ops.h</text>
</a>
</g>
</g>
<!-- Node1&#45;&gt;Node2 -->
<g id="edge1_Node000001_Node000002" class="edge">
<title>Node1&#45;&gt;Node2</title>
<g id="a_edge1_Node000001_Node000002"><a xlink:title=" ">
<path fill="none" stroke="#63b8ff" d="M1141,-279.06C1141,-270.84 1141,-262.09 1141,-254.88"/>
<polygon fill="#63b8ff" stroke="#63b8ff" points="1137.5,-278.99 1141,-288.99 1144.5,-278.99 1137.5,-278.99"/>
</a>
</g>
</g>
<!-- Node3 -->
<g id="Node000003" class="node">
<title>Node3</title>
<g id="a_Node000003"><a xlink:href="IntervalAnalysis_8h.html" target="_top" xlink:title=" ">
<polygon fill="white" stroke="#666666" points="454.88,-185.25 339.12,-185.25 339.12,-151.75 454.88,-151.75 454.88,-185.25"/>
<text text-anchor="start" x="347.12" y="-171.75" font-family="Helvetica,sans-Serif" font-size="10.00">include/llzk/Analysis</text>
<text text-anchor="middle" x="397" y="-159" font-family="Helvetica,sans-Serif" font-size="10.00">/IntervalAnalysis.h</text>
</a>
</g>
</g>
<!-- Node2&#45;&gt;Node3 -->
<g id="edge2_Node000002_Node000003" class="edge">
<title>Node2&#45;&gt;Node3</title>
<g id="a_edge2_Node000002_Node000003"><a xlink:title=" ">
<path fill="none" stroke="#63b8ff" d="M1074.96,-235.34C953.4,-231.53 686.31,-219.67 464,-185.25 461.17,-184.81 458.27,-184.32 455.36,-183.78"/>
<polygon fill="#63b8ff" stroke="#63b8ff" points="1074.65,-238.83 1084.75,-235.64 1074.86,-231.83 1074.65,-238.83"/>
</a>
</g>
</g>
<!-- Node4 -->
<g id="Node000004" class="node">
<title>Node4</title>
<g id="a_Node000004"><a xlink:href="IntervalAnalysis_8cpp.html" target="_top" xlink:title=" ">
<polygon fill="white" stroke="#666666" points="303.12,-109.38 128.88,-109.38 128.88,-88.62 303.12,-88.62 303.12,-109.38"/>
<text text-anchor="middle" x="216" y="-95.88" font-family="Helvetica,sans-Serif" font-size="10.00">lib/Analysis/IntervalAnalysis.cpp</text>
</a>
</g>
</g>
<!-- Node2&#45;&gt;Node4 -->
<g id="edge15_Node000002_Node000004" class="edge">
<title>Node2&#45;&gt;Node4</title>
<g id="a_edge15_Node000002_Node000004"><a xlink:title=" ">
<path fill="none" stroke="#63b8ff" d="M1074.77,-237.6C906.46,-238.37 466.06,-235.37 330,-185.25 285.01,-168.68 242.74,-128.27 224.9,-109.66"/>
<polygon fill="#63b8ff" stroke="#63b8ff" points="1074.68,-241.1 1084.66,-237.55 1074.64,-234.1 1074.68,-241.1"/>
</a>
</g>
</g>
<!-- Node6 -->
<g id="Node000006" class="node">
<title>Node6</title>
<g id="a_Node000006"><a xlink:href="TypeConversionPatterns_8h.html" target="_top" xlink:title="Reusable MLIR dialect conversion functions for LLZK StructType replacement.">
<polygon fill="white" stroke="#666666" points="654.88,-185.25 473.12,-185.25 473.12,-151.75 654.88,-151.75 654.88,-185.25"/>
<text text-anchor="start" x="481.12" y="-171.75" font-family="Helvetica,sans-Serif" font-size="10.00">include/llzk/Dialect</text>
<text text-anchor="middle" x="564" y="-159" font-family="Helvetica,sans-Serif" font-size="10.00">/Shared/TypeConversionPatterns.h</text>
</a>
</g>
</g>
<!-- Node2&#45;&gt;Node6 -->
<g id="edge5_Node000002_Node000006" class="edge">
<title>Node2&#45;&gt;Node6</title>
<g id="a_edge5_Node000002_Node000006"><a xlink:title=" ">
<path fill="none" stroke="#63b8ff" d="M1074.79,-230.83C982.57,-222.01 810.3,-204.7 664,-185.25 661.13,-184.87 658.21,-184.47 655.26,-184.06"/>
<polygon fill="#63b8ff" stroke="#63b8ff" points="1074.38,-234.31 1084.66,-231.77 1075.04,-227.34 1074.38,-234.31"/>
</a>
</g>
</g>
<!-- Node14 -->
<g id="Node000014" class="node">
<title>Node14</title>
<g id="a_Node000014"><a xlink:href="ConstraintDependencyGraph_8cpp.html" target="_top" xlink:title=" ">
<polygon fill="white" stroke="#666666" points="859.12,-185.25 672.88,-185.25 672.88,-151.75 859.12,-151.75 859.12,-185.25"/>
<text text-anchor="start" x="680.88" y="-171.75" font-family="Helvetica,sans-Serif" font-size="10.00">lib/Analysis/ConstraintDependency</text>
<text text-anchor="middle" x="766" y="-159" font-family="Helvetica,sans-Serif" font-size="10.00">Graph.cpp</text>
</a>
</g>
</g>
<!-- Node2&#45;&gt;Node14 -->
<g id="edge14_Node000002_Node000014" class="edge">
<title>Node2&#45;&gt;Node14</title>
<g id="a_edge14_Node000002_Node000014"><a xlink:title=" ">
<path fill="none" stroke="#63b8ff" d="M1075.07,-225.13C1014.25,-214.19 923.43,-197.84 855.96,-185.69"/>
<polygon fill="#63b8ff" stroke="#63b8ff" points="1074.12,-228.52 1084.58,-226.84 1075.36,-221.63 1074.12,-228.52"/>
</a>
</g>
</g>
<!-- Node15 -->
<g id="Node000015" class="node">
<title>Node15</title>
<g id="a_Node000015"><a xlink:href="SourceRefLattice_8cpp.html" target="_top" xlink:title=" ">
<polygon fill="white" stroke="#666666" points="1055,-178.88 877,-178.88 877,-158.12 1055,-158.12 1055,-178.88"/>
<text text-anchor="middle" x="966" y="-165.38" font-family="Helvetica,sans-Serif" font-size="10.00">lib/Analysis/SourceRefLattice.cpp</text>
</a>
</g>
</g>
<!-- Node2&#45;&gt;Node15 -->
<g id="edge16_Node000002_Node000015" class="edge">
<title>Node2&#45;&gt;Node15</title>
<g id="a_edge16_Node000002_Node000015"><a xlink:title=" ">
<path fill="none" stroke="#63b8ff" d="M1088.53,-216.76C1056.49,-204.4 1016.93,-189.15 991.59,-179.37"/>
<polygon fill="#63b8ff" stroke="#63b8ff" points="1087.08,-219.95 1097.67,-220.29 1089.6,-213.42 1087.08,-219.95"/>
</a>
</g>
</g>
<!-- Node16 -->
<g id="Node000016" class="node">
<title>Node16</title>
<g id="a_Node000016"><a xlink:href="POD_8cpp.html" target="_top" xlink:title=" ">
<polygon fill="white" stroke="#666666" points="1208.62,-178.88 1073.38,-178.88 1073.38,-158.12 1208.62,-158.12 1208.62,-178.88"/>
<text text-anchor="middle" x="1141" y="-165.38" font-family="Helvetica,sans-Serif" font-size="10.00">lib/CAPI/Dialect/POD.cpp</text>
</a>
</g>
</g>
<!-- Node2&#45;&gt;Node16 -->
<g id="edge17_Node000002_Node000016" class="edge">
<title>Node2&#45;&gt;Node16</title>
<g id="a_edge17_Node000002_Node000016"><a xlink:title=" ">
<path fill="none" stroke="#63b8ff" d="M1141,-209.53C1141,-198.83 1141,-187.26 1141,-179.32"/>
<polygon fill="#63b8ff" stroke="#63b8ff" points="1137.5,-209.49 1141,-219.49 1144.5,-209.49 1137.5,-209.49"/>
</a>
</g>
</g>
<!-- Node17 -->
<g id="Node000017" class="node">
<title>Node17</title>
<g id="a_Node000017"><a xlink:href="POD_2IR_2Dialect_8cpp.html" target="_top" xlink:title=" ">
<polygon fill="white" stroke="#666666" points="1329.12,-185.25 1226.88,-185.25 1226.88,-151.75 1329.12,-151.75 1329.12,-185.25"/>
<text text-anchor="start" x="1234.88" y="-171.75" font-family="Helvetica,sans-Serif" font-size="10.00">lib/Dialect/POD/IR</text>
<text text-anchor="middle" x="1278" y="-159" font-family="Helvetica,sans-Serif" font-size="10.00">/Dialect.cpp</text>
</a>
</g>
</g>
<!-- Node2&#45;&gt;Node17 -->
<g id="edge18_Node000002_Node000017" class="edge">
<title>Node2&#45;&gt;Node17</title>
<g id="a_edge18_Node000002_Node000017"><a xlink:title=" ">
<path fill="none" stroke="#63b8ff" d="M1184.14,-215.74C1203.98,-205.97 1227.11,-194.57 1245.45,-185.54"/>
<polygon fill="#63b8ff" stroke="#63b8ff" points="1182.6,-212.6 1175.17,-220.16 1185.69,-218.88 1182.6,-212.6"/>
</a>
</g>
</g>
<!-- Node18 -->
<g id="Node000018" class="node">
<title>Node18</title>
<g id="a_Node000018"><a xlink:href="POD_2IR_2Ops_8cpp.html" target="_top" xlink:title=" ">
<polygon fill="white" stroke="#666666" points="1449.12,-185.25 1346.88,-185.25 1346.88,-151.75 1449.12,-151.75 1449.12,-185.25"/>
<text text-anchor="start" x="1354.88" y="-171.75" font-family="Helvetica,sans-Serif" font-size="10.00">lib/Dialect/POD/IR</text>
<text text-anchor="middle" x="1398" y="-159" font-family="Helvetica,sans-Serif" font-size="10.00">/Ops.cpp</text>
</a>
</g>
</g>
<!-- Node2&#45;&gt;Node18 -->
<g id="edge19_Node000002_Node000018" class="edge">
<title>Node2&#45;&gt;Node18</title>
<g id="a_edge19_Node000002_Node000018"><a xlink:title=" ">
<path fill="none" stroke="#63b8ff" d="M1206.87,-219.7C1250.39,-208.27 1306.59,-193.51 1346.76,-182.96"/>
<polygon fill="#63b8ff" stroke="#63b8ff" points="1206.06,-216.29 1197.28,-222.22 1207.84,-223.06 1206.06,-216.29"/>
</a>
</g>
</g>
<!-- Node19 -->
<g id="Node000019" class="node">
<title>Node19</title>
<g id="a_Node000019"><a xlink:href="PodToScalarPass_8cpp.html" target="_top" xlink:title="This file implements the &#45;llzk&#45;pod&#45;to&#45;scalar pass.">
<polygon fill="white" stroke="#666666" points="1613.25,-185.25 1466.75,-185.25 1466.75,-151.75 1613.25,-151.75 1613.25,-185.25"/>
<text text-anchor="start" x="1474.75" y="-171.75" font-family="Helvetica,sans-Serif" font-size="10.00">lib/Dialect/POD/Transforms</text>
<text text-anchor="middle" x="1540" y="-159" font-family="Helvetica,sans-Serif" font-size="10.00">/PodToScalarPass.cpp</text>
</a>
</g>
</g>
<!-- Node2&#45;&gt;Node19 -->
<g id="edge20_Node000002_Node000019" class="edge">
<title>Node2&#45;&gt;Node19</title>
<g id="a_edge20_Node000002_Node000019"><a xlink:title=" ">
<path fill="none" stroke="#63b8ff" d="M1206.93,-226.79C1271.12,-216.71 1371.37,-200.64 1458,-185.25 1460.71,-184.77 1463.47,-184.27 1466.26,-183.76"/>
<polygon fill="#63b8ff" stroke="#63b8ff" points="1206.61,-223.3 1197.27,-228.3 1207.69,-230.21 1206.61,-223.3"/>
</a>
</g>
</g>
<!-- Node20 -->
<g id="Node000020" class="node">
<title>Node20</title>
<g id="a_Node000020"><a xlink:href="Interpreter_8cpp.html" target="_top" xlink:title=" ">
<polygon fill="white" stroke="#666666" points="1802.62,-178.88 1631.38,-178.88 1631.38,-158.12 1802.62,-158.12 1802.62,-178.88"/>
<text text-anchor="middle" x="1717" y="-165.38" font-family="Helvetica,sans-Serif" font-size="10.00">tools/llzk&#45;witgen/Interpreter.cpp</text>
</a>
</g>
</g>
<!-- Node2&#45;&gt;Node20 -->
<g id="edge21_Node000002_Node000020" class="edge">
<title>Node2&#45;&gt;Node20</title>
<g id="a_edge21_Node000002_Node000020"><a xlink:title=" ">
<path fill="none" stroke="#63b8ff" d="M1207.13,-231.09C1299.99,-222.52 1474.21,-205.43 1622,-185.25 1634.59,-183.53 1648.08,-181.44 1660.82,-179.36"/>
<polygon fill="#63b8ff" stroke="#63b8ff" points="1207.09,-227.58 1197.45,-231.98 1207.73,-234.55 1207.09,-227.58"/>
</a>
</g>
</g>
<!-- Node21 -->
<g id="Node000021" class="node">
<title>Node21</title>
<g id="a_Node000021"><a xlink:href="WitgenLowering_8cpp.html" target="_top" xlink:title=" ">
<polygon fill="white" stroke="#666666" points="1955.25,-185.25 1820.75,-185.25 1820.75,-151.75 1955.25,-151.75 1955.25,-185.25"/>
<text text-anchor="start" x="1828.75" y="-171.75" font-family="Helvetica,sans-Serif" font-size="10.00">tools/llzk&#45;witgen/Witgen</text>
<text text-anchor="middle" x="1888" y="-159" font-family="Helvetica,sans-Serif" font-size="10.00">Lowering.cpp</text>
</a>
</g>
</g>
<!-- Node2&#45;&gt;Node21 -->
<g id="edge22_Node000002_Node000021" class="edge">
<title>Node2&#45;&gt;Node21</title>
<g id="a_edge22_Node000002_Node000021"><a xlink:title=" ">
<path fill="none" stroke="#63b8ff" d="M1206.83,-234.71C1327.38,-229.89 1591.5,-216.47 1812,-185.25 1814.8,-184.85 1817.66,-184.42 1820.53,-183.95"/>
<polygon fill="#63b8ff" stroke="#63b8ff" points="1206.98,-231.2 1197.13,-235.09 1207.26,-238.19 1206.98,-231.2"/>
</a>
</g>
</g>
<!-- Node3&#45;&gt;Node4 -->
<g id="edge3_Node000003_Node000004" class="edge">
<title>Node3&#45;&gt;Node4</title>
<g id="a_edge3_Node000003_Node000004"><a xlink:title=" ">
<path fill="none" stroke="#63b8ff" d="M343.17,-147.42C309.95,-135.04 268.79,-119.69 242.47,-109.87"/>
<polygon fill="#63b8ff" stroke="#63b8ff" points="341.64,-150.59 352.23,-150.8 344.08,-144.03 341.64,-150.59"/>
</a>
</g>
</g>
<!-- Node5 -->
<g id="Node000005" class="node">
<title>Node5</title>
<g id="a_Node000005"><a xlink:href="IntervalAnalysisPass_8cpp.html" target="_top" xlink:title="This file implements the &#45;llzk&#45;print&#45;interval&#45;analysis pass.">
<polygon fill="white" stroke="#666666" points="475,-115.75 321,-115.75 321,-82.25 475,-82.25 475,-115.75"/>
<text text-anchor="start" x="329" y="-102.25" font-family="Helvetica,sans-Serif" font-size="10.00">lib/Analysis/IntervalAnalysis</text>
<text text-anchor="middle" x="398" y="-89.5" font-family="Helvetica,sans-Serif" font-size="10.00">Pass.cpp</text>
</a>
</g>
</g>
<!-- Node3&#45;&gt;Node5 -->
<g id="edge4_Node000003_Node000005" class="edge">
<title>Node3&#45;&gt;Node5</title>
<g id="a_edge4_Node000003_Node000005"><a xlink:title=" ">
<path fill="none" stroke="#63b8ff" d="M397.41,-140.06C397.53,-131.84 397.66,-123.09 397.76,-115.88"/>
<polygon fill="#63b8ff" stroke="#63b8ff" points="393.91,-139.94 397.26,-149.99 400.91,-140.04 393.91,-139.94"/>
</a>
</g>
</g>
<!-- Node7 -->
<g id="Node000007" class="node">
<title>Node7</title>
<g id="a_Node000007"><a xlink:href="SharedImpl_8h.html" target="_top" xlink:title="Common private implementation for poly dialect passes.">
<polygon fill="white" stroke="#666666" points="633.25,-115.75 492.75,-115.75 492.75,-82.25 633.25,-82.25 633.25,-115.75"/>
<text text-anchor="start" x="500.75" y="-102.25" font-family="Helvetica,sans-Serif" font-size="10.00">lib/Dialect/Polymorphic</text>
<text text-anchor="middle" x="563" y="-89.5" font-family="Helvetica,sans-Serif" font-size="10.00">/Transforms/SharedImpl.h</text>
</a>
</g>
</g>
<!-- Node6&#45;&gt;Node7 -->
<g id="edge6_Node000006_Node000007" class="edge">
<title>Node6&#45;&gt;Node7</title>
<g id="a_edge6_Node000006_Node000007"><a xlink:title=" ">
<path fill="none" stroke="#63b8ff" d="M563.59,-140.06C563.47,-131.84 563.34,-123.09 563.24,-115.88"/>
<polygon fill="#63b8ff" stroke="#63b8ff" points="560.09,-140.04 563.74,-149.99 567.09,-139.94 560.09,-140.04"/>
</a>
</g>
</g>
<!-- Node12 -->
<g id="Node000012" class="node">
<title>Node12</title>
<g id="a_Node000012"><a xlink:href="WildcardArraySpecializationPass_8cpp.html" target="_top" xlink:title="This file implements the &#45;llzk&#45;specialize&#45;wildcard&#45;arrays pass.">
<polygon fill="white" stroke="#666666" points="961.62,-46.25 748.38,-46.25 748.38,0 961.62,0 961.62,-46.25"/>
<text text-anchor="start" x="756.38" y="-32.75" font-family="Helvetica,sans-Serif" font-size="10.00">lib/Dialect/Polymorphic</text>
<text text-anchor="start" x="756.38" y="-20" font-family="Helvetica,sans-Serif" font-size="10.00">/Transforms/WildcardArraySpecialization</text>
<text text-anchor="middle" x="855" y="-7.25" font-family="Helvetica,sans-Serif" font-size="10.00">Pass.cpp</text>
</a>
</g>
</g>
<!-- Node6&#45;&gt;Node12 -->
<g id="edge12_Node000006_Node000012" class="edge">
<title>Node6&#45;&gt;Node12</title>
<g id="a_edge12_Node000006_Node000012"><a xlink:title=" ">
<path fill="none" stroke="#63b8ff" d="M599.66,-145.17C613.18,-136.36 628.55,-125.93 642,-115.75 660.22,-101.96 661.13,-93.53 681,-82.25 707.04,-67.48 737.42,-55.72 765.43,-46.75"/>
<polygon fill="#63b8ff" stroke="#63b8ff" points="597.98,-142.09 591.47,-150.45 601.77,-147.97 597.98,-142.09"/>
</a>
</g>
</g>
<!-- Node13 -->
<g id="Node000013" class="node">
<title>Node13</title>
<g id="a_Node000013"><a xlink:href="Struct_2IR_2Dialect_8cpp.html" target="_top" xlink:title=" ">
<polygon fill="white" stroke="#666666" points="786.5,-115.75 689.5,-115.75 689.5,-82.25 786.5,-82.25 786.5,-115.75"/>
<text text-anchor="start" x="697.5" y="-102.25" font-family="Helvetica,sans-Serif" font-size="10.00">lib/Dialect/Struct</text>
<text text-anchor="middle" x="738" y="-89.5" font-family="Helvetica,sans-Serif" font-size="10.00">/IR/Dialect.cpp</text>
</a>
</g>
</g>
<!-- Node6&#45;&gt;Node13 -->
<g id="edge13_Node000006_Node000013" class="edge">
<title>Node6&#45;&gt;Node13</title>
<g id="a_edge13_Node000006_Node000013"><a xlink:title=" ">
<path fill="none" stroke="#63b8ff" d="M616.33,-147.2C641.94,-137.26 672.35,-125.47 696.36,-116.15"/>
<polygon fill="#63b8ff" stroke="#63b8ff" points="615.15,-143.9 607.09,-150.78 617.68,-150.43 615.15,-143.9"/>
</a>
</g>
</g>
<!-- Node8 -->
<g id="Node000008" class="node">
<title>Node8</title>
<g id="a_Node000008"><a xlink:href="EmptyTemplateRemovalPass_8cpp.html" target="_top" xlink:title="This file implements the &#45;llzk&#45;drop&#45;empty&#45;templates pass.">
<polygon fill="white" stroke="#666666" points="196,-46.25 0,-46.25 0,0 196,0 196,-46.25"/>
<text text-anchor="start" x="8" y="-32.75" font-family="Helvetica,sans-Serif" font-size="10.00">lib/Dialect/Polymorphic</text>
<text text-anchor="start" x="8" y="-20" font-family="Helvetica,sans-Serif" font-size="10.00">/Transforms/EmptyTemplateRemoval</text>
<text text-anchor="middle" x="98" y="-7.25" font-family="Helvetica,sans-Serif" font-size="10.00">Pass.cpp</text>
</a>
</g>
</g>
<!-- Node7&#45;&gt;Node8 -->
<g id="edge7_Node000007_Node000008" class="edge">
<title>Node7&#45;&gt;Node8</title>
<g id="a_edge7_Node000007_Node000008"><a xlink:title=" ">
<path fill="none" stroke="#63b8ff" d="M481.08,-81.84C358.65,-62.28 324.69,-66.32 205,-46.25 202.19,-45.78 199.35,-45.29 196.48,-44.78"/>
<polygon fill="#63b8ff" stroke="#63b8ff" points="480.48,-85.29 490.91,-83.44 481.6,-78.38 480.48,-85.29"/>
</a>
</g>
</g>
<!-- Node9 -->
<g id="Node000009" class="node">
<title>Node9</title>
<g id="a_Node000009"><a xlink:href="FlatteningPass_8cpp.html" target="_top" xlink:title="This file implements the &#45;llzk&#45;flatten pass.">
<polygon fill="white" stroke="#666666" points="381.75,-39.88 214.25,-39.88 214.25,-6.38 381.75,-6.38 381.75,-39.88"/>
<text text-anchor="start" x="222.25" y="-26.38" font-family="Helvetica,sans-Serif" font-size="10.00">lib/Dialect/Polymorphic</text>
<text text-anchor="middle" x="298" y="-13.62" font-family="Helvetica,sans-Serif" font-size="10.00">/Transforms/FlatteningPass.cpp</text>
</a>
</g>
</g>
<!-- Node7&#45;&gt;Node9 -->
<g id="edge8_Node000007_Node000009" class="edge">
<title>Node7&#45;&gt;Node9</title>
<g id="a_edge8_Node000007_Node000009"><a xlink:title=" ">
<path fill="none" stroke="#63b8ff" d="M493.93,-78.75C451.08,-66.8 396.63,-51.62 356.02,-40.3"/>
<polygon fill="#63b8ff" stroke="#63b8ff" points="492.81,-82.07 503.39,-81.38 494.69,-75.32 492.81,-82.07"/>
</a>
</g>
</g>
<!-- Node10 -->
<g id="Node000010" class="node">
<title>Node10</title>
<g id="a_Node000010"><a xlink:href="SharedImpl_8cpp.html" target="_top" xlink:title=" ">
<polygon fill="white" stroke="#666666" points="551.88,-39.88 400.12,-39.88 400.12,-6.38 551.88,-6.38 551.88,-39.88"/>
<text text-anchor="start" x="408.12" y="-26.38" font-family="Helvetica,sans-Serif" font-size="10.00">lib/Dialect/Polymorphic</text>
<text text-anchor="middle" x="476" y="-13.62" font-family="Helvetica,sans-Serif" font-size="10.00">/Transforms/SharedImpl.cpp</text>
</a>
</g>
</g>
<!-- Node7&#45;&gt;Node10 -->
<g id="edge9_Node000007_Node000010" class="edge">
<title>Node7&#45;&gt;Node10</title>
<g id="a_edge9_Node000007_Node000010"><a xlink:title=" ">
<path fill="none" stroke="#63b8ff" d="M535.41,-74.57C522.18,-63.34 506.69,-50.19 494.84,-40.12"/>
<polygon fill="#63b8ff" stroke="#63b8ff" points="533.08,-77.19 542.97,-80.99 537.61,-71.85 533.08,-77.19"/>
</a>
</g>
</g>
<!-- Node11 -->
<g id="Node000011" class="node">
<title>Node11</title>
<g id="a_Node000011"><a xlink:href="TypeVarInferencePass_8cpp.html" target="_top" xlink:title="This file implements the &#45;llzk&#45;infer&#45;tvar pass.">
<polygon fill="white" stroke="#666666" points="730,-46.25 570,-46.25 570,0 730,0 730,-46.25"/>
<text text-anchor="start" x="578" y="-32.75" font-family="Helvetica,sans-Serif" font-size="10.00">lib/Dialect/Polymorphic</text>
<text text-anchor="start" x="578" y="-20" font-family="Helvetica,sans-Serif" font-size="10.00">/Transforms/TypeVarInference</text>
<text text-anchor="middle" x="650" y="-7.25" font-family="Helvetica,sans-Serif" font-size="10.00">Pass.cpp</text>
</a>
</g>
</g>
<!-- Node7&#45;&gt;Node11 -->
<g id="edge10_Node000007_Node000011" class="edge">
<title>Node7&#45;&gt;Node11</title>
<g id="a_edge10_Node000007_Node000011"><a xlink:title=" ">
<path fill="none" stroke="#63b8ff" d="M590.37,-74.76C600.97,-65.76 613.06,-55.49 623.57,-46.57"/>
<polygon fill="#63b8ff" stroke="#63b8ff" points="588.39,-71.85 583.03,-80.99 592.92,-77.19 588.39,-71.85"/>
</a>
</g>
</g>
<!-- Node7&#45;&gt;Node12 -->
<g id="edge11_Node000007_Node000012" class="edge">
<title>Node7&#45;&gt;Node12</title>
<g id="a_edge11_Node000007_Node000012"><a xlink:title=" ">
<path fill="none" stroke="#63b8ff" d="M637.82,-79.07C676.78,-69.21 724.69,-57.09 765.6,-46.74"/>
<polygon fill="#63b8ff" stroke="#63b8ff" points="637.38,-75.57 628.55,-81.42 639.1,-82.36 637.38,-75.57"/>
</a>
</g>
</g>
</g>
</svg>
