<?xml version="1.0" encoding="UTF-8" standalone="no"?>
<!DOCTYPE svg PUBLIC "-//W3C//DTD SVG 1.1//EN"
 "http://www.w3.org/Graphics/SVG/1.1/DTD/svg11.dtd">
<!-- Generated by graphviz version 12.2.1 (0)
 -->
<!-- Title: build/include/llzk/Dialect/POD/IR/Dialect.h.inc Pages: 1 -->
<svg width="2153pt" height="541pt"
 viewBox="0.00 0.00 2152.88 540.75" xmlns="http://www.w3.org/2000/svg" xmlns:xlink="http://www.w3.org/1999/xlink">
<g id="graph0" class="graph" transform="scale(1 1) rotate(0) translate(4 536.75)">
<title>build/include/llzk/Dialect/POD/IR/Dialect.h.inc</title>
<!-- Node1 -->
<g id="Node000001" class="node">
<title>Node1</title>
<g id="a_Node000001"><a xlink:title=" ">
<polygon fill="#999999" stroke="#666666" points="1713.88,-532.75 1559.88,-532.75 1559.88,-499.25 1713.88,-499.25 1713.88,-532.75"/>
<text text-anchor="start" x="1567.88" y="-519.25" font-family="Helvetica,sans-Serif" font-size="10.00">build/include/llzk</text>
<text text-anchor="middle" x="1636.88" y="-506.5" font-family="Helvetica,sans-Serif" font-size="10.00">/Dialect/POD/IR/Dialect.h.inc</text>
</a>
</g>
</g>
<!-- Node2 -->
<g id="Node000002" class="node">
<title>Node2</title>
<g id="a_Node000002"><a xlink:href="POD_2IR_2Dialect_8h.html" target="_top" xlink:title=" ">
<polygon fill="white" stroke="#666666" points="1691.38,-463.25 1582.38,-463.25 1582.38,-429.75 1691.38,-429.75 1691.38,-463.25"/>
<text text-anchor="start" x="1590.38" y="-449.75" font-family="Helvetica,sans-Serif" font-size="10.00">include/llzk/Dialect</text>
<text text-anchor="middle" x="1636.88" y="-437" font-family="Helvetica,sans-Serif" font-size="10.00">/POD/IR/Dialect.h</text>
</a>
</g>
</g>
<!-- Node1&#45;&gt;Node2 -->
<g id="edge1_Node000001_Node000002" class="edge">
<title>Node1&#45;&gt;Node2</title>
<g id="a_edge1_Node000001_Node000002"><a xlink:title=" ">
<path fill="none" stroke="#63b8ff" d="M1636.88,-487.56C1636.88,-479.34 1636.88,-470.59 1636.88,-463.38"/>
<polygon fill="#63b8ff" stroke="#63b8ff" points="1633.38,-487.49 1636.88,-497.49 1640.38,-487.49 1633.38,-487.49"/>
</a>
</g>
</g>
<!-- Node3 -->
<g id="Node000003" class="node">
<title>Node3</title>
<g id="a_Node000003"><a xlink:href="POD_2IR_2Ops_8h.html" target="_top" xlink:title=" ">
<polygon fill="white" stroke="#666666" points="856.38,-324.25 747.38,-324.25 747.38,-290.75 856.38,-290.75 856.38,-324.25"/>
<text text-anchor="start" x="755.38" y="-310.75" font-family="Helvetica,sans-Serif" font-size="10.00">include/llzk/Dialect</text>
<text text-anchor="middle" x="801.88" y="-298" font-family="Helvetica,sans-Serif" font-size="10.00">/POD/IR/Ops.h</text>
</a>
</g>
</g>
<!-- Node2&#45;&gt;Node3 -->
<g id="edge2_Node000002_Node000003" class="edge">
<title>Node2&#45;&gt;Node3</title>
<g id="a_edge2_Node000002_Node000003"><a xlink:title=" ">
<path fill="none" stroke="#63b8ff" d="M1570.59,-443.11C1468.19,-438.53 1265.68,-425.94 1096.88,-393.75 1007.2,-376.65 905.49,-344.28 847.98,-324.72"/>
<polygon fill="#63b8ff" stroke="#63b8ff" points="1570.33,-446.6 1580.47,-443.54 1570.63,-439.61 1570.33,-446.6"/>
</a>
</g>
</g>
<!-- Node11 -->
<g id="Node000011" class="node">
<title>Node11</title>
<g id="a_Node000011"><a xlink:href="POD_2IR_2Dialect_8cpp.html" target="_top" xlink:title=" ">
<polygon fill="white" stroke="#666666" points="359,-254.75 256.75,-254.75 256.75,-221.25 359,-221.25 359,-254.75"/>
<text text-anchor="start" x="264.75" y="-241.25" font-family="Helvetica,sans-Serif" font-size="10.00">lib/Dialect/POD/IR</text>
<text text-anchor="middle" x="307.88" y="-228.5" font-family="Helvetica,sans-Serif" font-size="10.00">/Dialect.cpp</text>
</a>
</g>
</g>
<!-- Node2&#45;&gt;Node11 -->
<g id="edge60_Node000002_Node000011" class="edge">
<title>Node2&#45;&gt;Node11</title>
<g id="a_edge60_Node000002_Node000011"><a xlink:title=" ">
<path fill="none" stroke="#63b8ff" d="M1570.86,-442.79C1353.27,-433.22 660.69,-397.62 450.88,-324.25 403.95,-307.84 355.53,-275 328.8,-255.21"/>
<polygon fill="#63b8ff" stroke="#63b8ff" points="1570.42,-446.27 1580.56,-443.21 1570.72,-439.28 1570.42,-446.27"/>
</a>
</g>
</g>
<!-- Node16 -->
<g id="Node000016" class="node">
<title>Node16</title>
<g id="a_Node000016"><a xlink:href="POD_2IR_2Types_8h.html" target="_top" xlink:title=" ">
<polygon fill="white" stroke="#666666" points="1214.38,-393.75 1105.38,-393.75 1105.38,-360.25 1214.38,-360.25 1214.38,-393.75"/>
<text text-anchor="start" x="1113.38" y="-380.25" font-family="Helvetica,sans-Serif" font-size="10.00">include/llzk/Dialect</text>
<text text-anchor="middle" x="1159.88" y="-367.5" font-family="Helvetica,sans-Serif" font-size="10.00">/POD/IR/Types.h</text>
</a>
</g>
</g>
<!-- Node2&#45;&gt;Node16 -->
<g id="edge15_Node000002_Node000016" class="edge">
<title>Node2&#45;&gt;Node16</title>
<g id="a_edge15_Node000002_Node000016"><a xlink:title=" ">
<path fill="none" stroke="#63b8ff" d="M1570.99,-436.18C1476.17,-422.76 1302.93,-398.24 1214.69,-385.76"/>
<polygon fill="#63b8ff" stroke="#63b8ff" points="1570.27,-439.61 1580.66,-437.54 1571.25,-432.68 1570.27,-439.61"/>
</a>
</g>
</g>
<!-- Node34 -->
<g id="Node000034" class="node">
<title>Node34</title>
<g id="a_Node000034"><a xlink:href="llzk-witgen_8cpp.html" target="_top" xlink:title=" ">
<polygon fill="white" stroke="#666666" points="1744.5,-185.25 1627.25,-185.25 1627.25,-151.75 1744.5,-151.75 1744.5,-185.25"/>
<text text-anchor="start" x="1635.25" y="-171.75" font-family="Helvetica,sans-Serif" font-size="10.00">tools/llzk&#45;witgen/llzk</text>
<text text-anchor="middle" x="1685.88" y="-159" font-family="Helvetica,sans-Serif" font-size="10.00">&#45;witgen.cpp</text>
</a>
</g>
</g>
<!-- Node2&#45;&gt;Node34 -->
<g id="edge62_Node000002_Node000034" class="edge">
<title>Node2&#45;&gt;Node34</title>
<g id="a_edge62_Node000002_Node000034"><a xlink:title=" ">
<path fill="none" stroke="#63b8ff" d="M1641.73,-418.16C1651.85,-361.14 1674.94,-231.08 1683.02,-185.58"/>
<polygon fill="#63b8ff" stroke="#63b8ff" points="1638.29,-417.52 1639.99,-427.98 1645.18,-418.74 1638.29,-417.52"/>
</a>
</g>
</g>
<!-- Node35 -->
<g id="Node000035" class="node">
<title>Node35</title>
<g id="a_Node000035"><a xlink:href="ArrayToScalarPass_8cpp.html" target="_top" xlink:title="This file implements the &#45;llzk&#45;array&#45;to&#45;scalar pass.">
<polygon fill="white" stroke="#666666" points="1816.75,-393.75 1665,-393.75 1665,-360.25 1816.75,-360.25 1816.75,-393.75"/>
<text text-anchor="start" x="1673" y="-380.25" font-family="Helvetica,sans-Serif" font-size="10.00">lib/Dialect/Array/Transforms</text>
<text text-anchor="middle" x="1740.88" y="-367.5" font-family="Helvetica,sans-Serif" font-size="10.00">/ArrayToScalarPass.cpp</text>
</a>
</g>
</g>
<!-- Node2&#45;&gt;Node35 -->
<g id="edge58_Node000002_Node000035" class="edge">
<title>Node2&#45;&gt;Node35</title>
<g id="a_edge58_Node000002_Node000035"><a xlink:title=" ">
<path fill="none" stroke="#63b8ff" d="M1671.09,-423.29C1685.81,-413.74 1702.7,-402.78 1716.17,-394.04"/>
<polygon fill="#63b8ff" stroke="#63b8ff" points="1669.54,-420.13 1663.06,-428.51 1673.35,-426 1669.54,-420.13"/>
</a>
</g>
</g>
<!-- Node36 -->
<g id="Node000036" class="node">
<title>Node36</title>
<g id="a_Node000036"><a xlink:href="Dialect_2InitDialects_8cpp.html" target="_top" xlink:title=" ">
<polygon fill="white" stroke="#666666" points="1979,-387.38 1834.75,-387.38 1834.75,-366.62 1979,-366.62 1979,-387.38"/>
<text text-anchor="middle" x="1906.88" y="-373.88" font-family="Helvetica,sans-Serif" font-size="10.00">lib/Dialect/InitDialects.cpp</text>
</a>
</g>
</g>
<!-- Node2&#45;&gt;Node36 -->
<g id="edge59_Node000002_Node000036" class="edge">
<title>Node2&#45;&gt;Node36</title>
<g id="a_edge59_Node000002_Node000036"><a xlink:title=" ">
<path fill="none" stroke="#63b8ff" d="M1702.89,-429C1754.53,-416.09 1824.6,-398.57 1867.72,-387.79"/>
<polygon fill="#63b8ff" stroke="#63b8ff" points="1702.16,-425.57 1693.31,-431.39 1703.86,-432.36 1702.16,-425.57"/>
</a>
</g>
</g>
<!-- Node37 -->
<g id="Node000037" class="node">
<title>Node37</title>
<g id="a_Node000037"><a xlink:href="LLZKInliningExtensions_8cpp.html" target="_top" xlink:title=" ">
<polygon fill="white" stroke="#666666" points="2144.88,-393.75 1996.88,-393.75 1996.88,-360.25 2144.88,-360.25 2144.88,-393.75"/>
<text text-anchor="start" x="2004.88" y="-380.25" font-family="Helvetica,sans-Serif" font-size="10.00">lib/Transforms/LLZKInlining</text>
<text text-anchor="middle" x="2070.88" y="-367.5" font-family="Helvetica,sans-Serif" font-size="10.00">Extensions.cpp</text>
</a>
</g>
</g>
<!-- Node2&#45;&gt;Node37 -->
<g id="edge61_Node000002_Node000037" class="edge">
<title>Node2&#45;&gt;Node37</title>
<g id="a_edge61_Node000002_Node000037"><a xlink:title=" ">
<path fill="none" stroke="#63b8ff" d="M1703.08,-436.57C1773.74,-426.84 1888.91,-410.43 1987.88,-393.75 1990.77,-393.26 1993.71,-392.76 1996.69,-392.23"/>
<polygon fill="#63b8ff" stroke="#63b8ff" points="1702.63,-433.09 1693.2,-437.92 1703.59,-440.03 1702.63,-433.09"/>
</a>
</g>
</g>
<!-- Node4 -->
<g id="Node000004" class="node">
<title>Node4</title>
<g id="a_Node000004"><a xlink:href="TypeConversionPatterns_8h.html" target="_top" xlink:title="Reusable MLIR dialect conversion functions for LLZK StructType replacement.">
<polygon fill="white" stroke="#666666" points="558.75,-254.75 377,-254.75 377,-221.25 558.75,-221.25 558.75,-254.75"/>
<text text-anchor="start" x="385" y="-241.25" font-family="Helvetica,sans-Serif" font-size="10.00">include/llzk/Dialect</text>
<text text-anchor="middle" x="467.88" y="-228.5" font-family="Helvetica,sans-Serif" font-size="10.00">/Shared/TypeConversionPatterns.h</text>
</a>
</g>
</g>
<!-- Node3&#45;&gt;Node4 -->
<g id="edge3_Node000003_Node000004" class="edge">
<title>Node3&#45;&gt;Node4</title>
<g id="a_edge3_Node000003_Node000004"><a xlink:title=" ">
<path fill="none" stroke="#63b8ff" d="M735.94,-293.17C681.98,-282.27 605.46,-266.81 547.98,-255.19"/>
<polygon fill="#63b8ff" stroke="#63b8ff" points="735.12,-296.58 745.61,-295.13 736.5,-289.72 735.12,-296.58"/>
</a>
</g>
</g>
<!-- Node10 -->
<g id="Node000010" class="node">
<title>Node10</title>
<g id="a_Node000010"><a xlink:href="POD_8cpp.html" target="_top" xlink:title=" ">
<polygon fill="white" stroke="#666666" points="1163.5,-248.38 1028.25,-248.38 1028.25,-227.62 1163.5,-227.62 1163.5,-248.38"/>
<text text-anchor="middle" x="1095.88" y="-234.88" font-family="Helvetica,sans-Serif" font-size="10.00">lib/CAPI/Dialect/POD.cpp</text>
</a>
</g>
</g>
<!-- Node3&#45;&gt;Node10 -->
<g id="edge9_Node000003_Node000010" class="edge">
<title>Node3&#45;&gt;Node10</title>
<g id="a_edge9_Node000003_Node000010"><a xlink:title=" ">
<path fill="none" stroke="#63b8ff" d="M867.85,-290.31C937.5,-273.98 1006.81,-258.55 1050.86,-248.85"/>
<polygon fill="#63b8ff" stroke="#63b8ff" points="867.08,-286.9 858.14,-292.59 868.68,-293.71 867.08,-286.9"/>
</a>
</g>
</g>
<!-- Node3&#45;&gt;Node11 -->
<g id="edge10_Node000003_Node000011" class="edge">
<title>Node3&#45;&gt;Node11</title>
<g id="a_edge10_Node000003_Node000011"><a xlink:title=" ">
<path fill="none" stroke="#63b8ff" d="M735.69,-301.47C650.21,-294.32 497.06,-279.29 367.88,-254.75 365.12,-254.23 362.31,-253.65 359.48,-253.03"/>
<polygon fill="#63b8ff" stroke="#63b8ff" points="735.27,-304.95 745.53,-302.28 735.85,-297.97 735.27,-304.95"/>
</a>
</g>
</g>
<!-- Node12 -->
<g id="Node000012" class="node">
<title>Node12</title>
<g id="a_Node000012"><a xlink:href="POD_2IR_2Ops_8cpp.html" target="_top" xlink:title=" ">
<polygon fill="white" stroke="#666666" points="1010,-254.75 907.75,-254.75 907.75,-221.25 1010,-221.25 1010,-254.75"/>
<text text-anchor="start" x="915.75" y="-241.25" font-family="Helvetica,sans-Serif" font-size="10.00">lib/Dialect/POD/IR</text>
<text text-anchor="middle" x="958.88" y="-228.5" font-family="Helvetica,sans-Serif" font-size="10.00">/Ops.cpp</text>
</a>
</g>
</g>
<!-- Node3&#45;&gt;Node12 -->
<g id="edge11_Node000003_Node000012" class="edge">
<title>Node3&#45;&gt;Node12</title>
<g id="a_edge11_Node000003_Node000012"><a xlink:title=" ">
<path fill="none" stroke="#63b8ff" d="M850.02,-285.8C872.94,-275.95 899.93,-264.34 921.3,-255.15"/>
<polygon fill="#63b8ff" stroke="#63b8ff" points="848.68,-282.57 840.87,-289.73 851.44,-289 848.68,-282.57"/>
</a>
</g>
</g>
<!-- Node13 -->
<g id="Node000013" class="node">
<title>Node13</title>
<g id="a_Node000013"><a xlink:href="SymbolTableLLZK_8cpp.html" target="_top" xlink:title="This is a selection of code from mlir/lib/IR/SymbolTable.cpp to support a modified version of walkSym...">
<polygon fill="white" stroke="#666666" points="773.75,-248.38 616,-248.38 616,-227.62 773.75,-227.62 773.75,-248.38"/>
<text text-anchor="middle" x="694.88" y="-234.88" font-family="Helvetica,sans-Serif" font-size="10.00">lib/Util/SymbolTableLLZK.cpp</text>
</a>
</g>
</g>
<!-- Node3&#45;&gt;Node13 -->
<g id="edge12_Node000003_Node000013" class="edge">
<title>Node3&#45;&gt;Node13</title>
<g id="a_edge12_Node000003_Node000013"><a xlink:title=" ">
<path fill="none" stroke="#63b8ff" d="M766.66,-284.29C747.61,-272.27 725.04,-258.03 710.36,-248.77"/>
<polygon fill="#63b8ff" stroke="#63b8ff" points="764.64,-287.15 774.97,-289.52 768.38,-281.23 764.64,-287.15"/>
</a>
</g>
</g>
<!-- Node14 -->
<g id="Node000014" class="node">
<title>Node14</title>
<g id="a_Node000014"><a xlink:href="Interpreter_8cpp.html" target="_top" xlink:title=" ">
<polygon fill="white" stroke="#666666" points="779.5,-103 608.25,-103 608.25,-82.25 779.5,-82.25 779.5,-103"/>
<text text-anchor="middle" x="693.88" y="-89.5" font-family="Helvetica,sans-Serif" font-size="10.00">tools/llzk&#45;witgen/Interpreter.cpp</text>
</a>
</g>
</g>
<!-- Node3&#45;&gt;Node14 -->
<g id="edge13_Node000003_Node000014" class="edge">
<title>Node3&#45;&gt;Node14</title>
<g id="a_edge13_Node000003_Node000014"><a xlink:title=" ">
<path fill="none" stroke="#63b8ff" d="M805.11,-279.21C807.6,-246.39 807.24,-190.86 782.88,-151.75 768.33,-128.41 740.57,-112.55 719.9,-103.37"/>
<polygon fill="#63b8ff" stroke="#63b8ff" points="801.63,-278.8 804.2,-289.08 808.6,-279.45 801.63,-278.8"/>
</a>
</g>
</g>
<!-- Node15 -->
<g id="Node000015" class="node">
<title>Node15</title>
<g id="a_Node000015"><a xlink:href="WitgenLowering_8cpp.html" target="_top" xlink:title=" ">
<polygon fill="white" stroke="#666666" points="1432.12,-109.38 1297.62,-109.38 1297.62,-75.88 1432.12,-75.88 1432.12,-109.38"/>
<text text-anchor="start" x="1305.62" y="-95.88" font-family="Helvetica,sans-Serif" font-size="10.00">tools/llzk&#45;witgen/Witgen</text>
<text text-anchor="middle" x="1364.88" y="-83.12" font-family="Helvetica,sans-Serif" font-size="10.00">Lowering.cpp</text>
</a>
</g>
</g>
<!-- Node3&#45;&gt;Node15 -->
<g id="edge14_Node000003_Node000015" class="edge">
<title>Node3&#45;&gt;Node15</title>
<g id="a_edge14_Node000003_Node000015"><a xlink:title=" ">
<path fill="none" stroke="#63b8ff" d="M822.12,-281.66C840.02,-261.63 868.03,-234.66 898.88,-221.25 1046.74,-156.95 1111.9,-249.29 1259.88,-185.25 1299.18,-168.24 1334.33,-130.95 1352.28,-109.56"/>
<polygon fill="#63b8ff" stroke="#63b8ff" points="819.53,-279.31 815.63,-289.16 824.82,-283.9 819.53,-279.31"/>
</a>
</g>
</g>
<!-- Node5 -->
<g id="Node000005" class="node">
<title>Node5</title>
<g id="a_Node000005"><a xlink:href="SharedImpl_8h.html" target="_top" xlink:title="Common private implementation for poly dialect passes.">
<polygon fill="white" stroke="#666666" points="363.12,-185.25 222.62,-185.25 222.62,-151.75 363.12,-151.75 363.12,-185.25"/>
<text text-anchor="start" x="230.62" y="-171.75" font-family="Helvetica,sans-Serif" font-size="10.00">lib/Dialect/Polymorphic</text>
<text text-anchor="middle" x="292.88" y="-159" font-family="Helvetica,sans-Serif" font-size="10.00">/Transforms/SharedImpl.h</text>
</a>
</g>
</g>
<!-- Node4&#45;&gt;Node5 -->
<g id="edge4_Node000004_Node000005" class="edge">
<title>Node4&#45;&gt;Node5</title>
<g id="a_edge4_Node000004_Node000005"><a xlink:title=" ">
<path fill="none" stroke="#63b8ff" d="M415.25,-216.7C389.48,-206.76 358.9,-194.97 334.75,-185.65"/>
<polygon fill="#63b8ff" stroke="#63b8ff" points="413.96,-219.95 424.55,-220.29 416.48,-213.42 413.96,-219.95"/>
</a>
</g>
</g>
<!-- Node9 -->
<g id="Node000009" class="node">
<title>Node9</title>
<g id="a_Node000009"><a xlink:href="Struct_2IR_2Dialect_8cpp.html" target="_top" xlink:title=" ">
<polygon fill="white" stroke="#666666" points="516.38,-185.25 419.38,-185.25 419.38,-151.75 516.38,-151.75 516.38,-185.25"/>
<text text-anchor="start" x="427.38" y="-171.75" font-family="Helvetica,sans-Serif" font-size="10.00">lib/Dialect/Struct</text>
<text text-anchor="middle" x="467.88" y="-159" font-family="Helvetica,sans-Serif" font-size="10.00">/IR/Dialect.cpp</text>
</a>
</g>
</g>
<!-- Node4&#45;&gt;Node9 -->
<g id="edge8_Node000004_Node000009" class="edge">
<title>Node4&#45;&gt;Node9</title>
<g id="a_edge8_Node000004_Node000009"><a xlink:title=" ">
<path fill="none" stroke="#63b8ff" d="M467.88,-209.56C467.88,-201.34 467.88,-192.59 467.88,-185.38"/>
<polygon fill="#63b8ff" stroke="#63b8ff" points="464.38,-209.49 467.88,-219.49 471.38,-209.49 464.38,-209.49"/>
</a>
</g>
</g>
<!-- Node6 -->
<g id="Node000006" class="node">
<title>Node6</title>
<g id="a_Node000006"><a xlink:href="EmptyTemplateRemovalPass_8cpp.html" target="_top" xlink:title="This file implements the &#45;llzk&#45;drop&#45;empty&#45;templates pass.">
<polygon fill="white" stroke="#666666" points="551.88,-115.75 355.88,-115.75 355.88,-69.5 551.88,-69.5 551.88,-115.75"/>
<text text-anchor="start" x="363.88" y="-102.25" font-family="Helvetica,sans-Serif" font-size="10.00">lib/Dialect/Polymorphic</text>
<text text-anchor="start" x="363.88" y="-89.5" font-family="Helvetica,sans-Serif" font-size="10.00">/Transforms/EmptyTemplateRemoval</text>
<text text-anchor="middle" x="453.88" y="-76.75" font-family="Helvetica,sans-Serif" font-size="10.00">Pass.cpp</text>
</a>
</g>
</g>
<!-- Node5&#45;&gt;Node6 -->
<g id="edge5_Node000005_Node000006" class="edge">
<title>Node5&#45;&gt;Node6</title>
<g id="a_edge5_Node000005_Node000006"><a xlink:title=" ">
<path fill="none" stroke="#63b8ff" d="M338.6,-146.52C359.2,-137.06 383.57,-125.88 404.58,-116.24"/>
<polygon fill="#63b8ff" stroke="#63b8ff" points="337.21,-143.31 329.58,-150.66 340.13,-149.67 337.21,-143.31"/>
</a>
</g>
</g>
<!-- Node7 -->
<g id="Node000007" class="node">
<title>Node7</title>
<g id="a_Node000007"><a xlink:href="FlatteningPass_8cpp.html" target="_top" xlink:title="This file implements the &#45;llzk&#45;flatten pass.">
<polygon fill="white" stroke="#666666" points="337.62,-109.38 170.12,-109.38 170.12,-75.88 337.62,-75.88 337.62,-109.38"/>
<text text-anchor="start" x="178.12" y="-95.88" font-family="Helvetica,sans-Serif" font-size="10.00">lib/Dialect/Polymorphic</text>
<text text-anchor="middle" x="253.88" y="-83.12" font-family="Helvetica,sans-Serif" font-size="10.00">/Transforms/FlatteningPass.cpp</text>
</a>
</g>
</g>
<!-- Node5&#45;&gt;Node7 -->
<g id="edge6_Node000005_Node000007" class="edge">
<title>Node5&#45;&gt;Node7</title>
<g id="a_edge6_Node000005_Node000007"><a xlink:title=" ">
<path fill="none" stroke="#63b8ff" d="M279.12,-141.45C273.52,-130.84 267.22,-118.91 262.32,-109.62"/>
<polygon fill="#63b8ff" stroke="#63b8ff" points="275.94,-142.92 283.71,-150.13 282.13,-139.65 275.94,-142.92"/>
</a>
</g>
</g>
<!-- Node8 -->
<g id="Node000008" class="node">
<title>Node8</title>
<g id="a_Node000008"><a xlink:href="SharedImpl_8cpp.html" target="_top" xlink:title=" ">
<polygon fill="white" stroke="#666666" points="151.75,-109.38 0,-109.38 0,-75.88 151.75,-75.88 151.75,-109.38"/>
<text text-anchor="start" x="8" y="-95.88" font-family="Helvetica,sans-Serif" font-size="10.00">lib/Dialect/Polymorphic</text>
<text text-anchor="middle" x="75.88" y="-83.12" font-family="Helvetica,sans-Serif" font-size="10.00">/Transforms/SharedImpl.cpp</text>
</a>
</g>
</g>
<!-- Node5&#45;&gt;Node8 -->
<g id="edge7_Node000005_Node000008" class="edge">
<title>Node5&#45;&gt;Node8</title>
<g id="a_edge7_Node000005_Node000008"><a xlink:title=" ">
<path fill="none" stroke="#63b8ff" d="M234.75,-147.71C199.9,-135.85 156.15,-120.95 123.39,-109.8"/>
<polygon fill="#63b8ff" stroke="#63b8ff" points="233.23,-150.89 243.82,-150.8 235.48,-144.26 233.23,-150.89"/>
</a>
</g>
</g>
<!-- Node16&#45;&gt;Node3 -->
<g id="edge16_Node000016_Node000003" class="edge">
<title>Node16&#45;&gt;Node3</title>
<g id="a_edge16_Node000016_Node000003"><a xlink:title=" ">
<path fill="none" stroke="#63b8ff" d="M1093.78,-365.67C1034.03,-356.02 943.77,-340.67 865.88,-324.25 862.85,-323.61 859.75,-322.93 856.63,-322.23"/>
<polygon fill="#63b8ff" stroke="#63b8ff" points="1093.01,-369.09 1103.44,-367.22 1094.12,-362.18 1093.01,-369.09"/>
</a>
</g>
</g>
<!-- Node16&#45;&gt;Node6 -->
<g id="edge21_Node000016_Node000006" class="edge">
<title>Node16&#45;&gt;Node6</title>
<g id="a_edge21_Node000016_Node000006"><a xlink:title=" ">
<path fill="none" stroke="#63b8ff" d="M1093.61,-375.2C1009.33,-372.53 860.19,-362.24 738.88,-324.25 675.6,-304.44 657.95,-297.03 606.88,-254.75 561.8,-217.44 565.97,-193.41 524.88,-151.75 512.35,-139.05 497.19,-126.33 484.1,-116.05"/>
<polygon fill="#63b8ff" stroke="#63b8ff" points="1093.45,-378.69 1103.54,-375.48 1093.65,-371.7 1093.45,-378.69"/>
</a>
</g>
</g>
<!-- Node16&#45;&gt;Node10 -->
<g id="edge17_Node000016_Node000010" class="edge">
<title>Node16&#45;&gt;Node10</title>
<g id="a_edge17_Node000016_Node000010"><a xlink:title=" ">
<path fill="none" stroke="#63b8ff" d="M1163.49,-348.62C1164.56,-331.2 1163.61,-308.63 1154.88,-290.75 1145.9,-272.39 1127.19,-257.78 1113.23,-248.83"/>
<polygon fill="#63b8ff" stroke="#63b8ff" points="1160.01,-348.22 1162.6,-358.49 1166.98,-348.84 1160.01,-348.22"/>
</a>
</g>
</g>
<!-- Node16&#45;&gt;Node11 -->
<g id="edge18_Node000016_Node000011" class="edge">
<title>Node16&#45;&gt;Node11</title>
<g id="a_edge18_Node000016_Node000011"><a xlink:title=" ">
<path fill="none" stroke="#63b8ff" d="M1093.57,-374.96C984.1,-372.17 759.12,-361.92 572.88,-324.25 491.4,-307.77 399.78,-274.95 348.43,-255.19"/>
<polygon fill="#63b8ff" stroke="#63b8ff" points="1093.48,-378.46 1103.56,-375.2 1093.65,-371.46 1093.48,-378.46"/>
</a>
</g>
</g>
<!-- Node16&#45;&gt;Node12 -->
<g id="edge19_Node000016_Node000012" class="edge">
<title>Node16&#45;&gt;Node12</title>
<g id="a_edge19_Node000016_Node000012"><a xlink:title=" ">
<path fill="none" stroke="#63b8ff" d="M1153.97,-348.71C1148.58,-329.99 1138.8,-305.88 1121.88,-290.75 1113.24,-283.03 1054.6,-265.5 1010.11,-252.99"/>
<polygon fill="#63b8ff" stroke="#63b8ff" points="1150.57,-349.55 1156.46,-358.35 1157.35,-347.79 1150.57,-349.55"/>
</a>
</g>
</g>
<!-- Node17 -->
<g id="Node000017" class="node">
<title>Node17</title>
<g id="a_Node000017"><a xlink:href="POD_2IR_2Types_8cpp.html" target="_top" xlink:title=" ">
<polygon fill="white" stroke="#666666" points="1493,-324.25 1390.75,-324.25 1390.75,-290.75 1493,-290.75 1493,-324.25"/>
<text text-anchor="start" x="1398.75" y="-310.75" font-family="Helvetica,sans-Serif" font-size="10.00">lib/Dialect/POD/IR</text>
<text text-anchor="middle" x="1441.88" y="-298" font-family="Helvetica,sans-Serif" font-size="10.00">/Types.cpp</text>
</a>
</g>
</g>
<!-- Node16&#45;&gt;Node17 -->
<g id="edge20_Node000016_Node000017" class="edge">
<title>Node16&#45;&gt;Node17</title>
<g id="a_edge20_Node000016_Node000017"><a xlink:title=" ">
<path fill="none" stroke="#63b8ff" d="M1225.9,-361.11C1270.11,-351.02 1329.58,-337.21 1381.88,-324.25 1384.7,-323.55 1387.59,-322.82 1390.51,-322.08"/>
<polygon fill="#63b8ff" stroke="#63b8ff" points="1225.16,-357.69 1216.19,-363.32 1226.72,-364.52 1225.16,-357.69"/>
</a>
</g>
</g>
<!-- Node18 -->
<g id="Node000018" class="node">
<title>Node18</title>
<g id="a_Node000018"><a xlink:href="Struct_2IR_2Ops_8cpp.html" target="_top" xlink:title=" ">
<polygon fill="white" stroke="#666666" points="1608.38,-324.25 1511.38,-324.25 1511.38,-290.75 1608.38,-290.75 1608.38,-324.25"/>
<text text-anchor="start" x="1519.38" y="-310.75" font-family="Helvetica,sans-Serif" font-size="10.00">lib/Dialect/Struct</text>
<text text-anchor="middle" x="1559.88" y="-298" font-family="Helvetica,sans-Serif" font-size="10.00">/IR/Ops.cpp</text>
</a>
</g>
</g>
<!-- Node16&#45;&gt;Node18 -->
<g id="edge22_Node000016_Node000018" class="edge">
<title>Node16&#45;&gt;Node18</title>
<g id="a_edge22_Node000016_Node000018"><a xlink:title=" ">
<path fill="none" stroke="#63b8ff" d="M1225.86,-368.3C1295.04,-359.7 1406.69,-344.31 1501.88,-324.25 1504.84,-323.63 1507.87,-322.94 1510.92,-322.22"/>
<polygon fill="#63b8ff" stroke="#63b8ff" points="1225.72,-364.79 1216.22,-369.49 1226.57,-371.74 1225.72,-364.79"/>
</a>
</g>
</g>
<!-- Node19 -->
<g id="Node000019" class="node">
<title>Node19</title>
<g id="a_Node000019"><a xlink:href="Field_8cpp.html" target="_top" xlink:title=" ">
<polygon fill="white" stroke="#666666" points="969.25,-317.88 874.5,-317.88 874.5,-297.12 969.25,-297.12 969.25,-317.88"/>
<text text-anchor="middle" x="921.88" y="-304.38" font-family="Helvetica,sans-Serif" font-size="10.00">lib/Util/Field.cpp</text>
</a>
</g>
</g>
<!-- Node16&#45;&gt;Node19 -->
<g id="edge23_Node000016_Node000019" class="edge">
<title>Node16&#45;&gt;Node19</title>
<g id="a_edge23_Node000016_Node000019"><a xlink:title=" ">
<path fill="none" stroke="#63b8ff" d="M1093.95,-357.3C1049.46,-344.68 992.51,-328.53 956.6,-318.35"/>
<polygon fill="#63b8ff" stroke="#63b8ff" points="1092.94,-360.66 1103.52,-360.02 1094.85,-353.92 1092.94,-360.66"/>
</a>
</g>
</g>
<!-- Node20 -->
<g id="Node000020" class="node">
<title>Node20</title>
<g id="a_Node000020"><a xlink:href="TypeHelper_8cpp.html" target="_top" xlink:title=" ">
<polygon fill="white" stroke="#666666" points="1112.62,-317.88 987.12,-317.88 987.12,-297.12 1112.62,-297.12 1112.62,-317.88"/>
<text text-anchor="middle" x="1049.88" y="-304.38" font-family="Helvetica,sans-Serif" font-size="10.00">lib/Util/TypeHelper.cpp</text>
</a>
</g>
</g>
<!-- Node16&#45;&gt;Node20 -->
<g id="edge24_Node000016_Node000020" class="edge">
<title>Node16&#45;&gt;Node20</title>
<g id="a_edge24_Node000016_Node000020"><a xlink:title=" ">
<path fill="none" stroke="#63b8ff" d="M1123.95,-353.95C1104.3,-341.9 1080.96,-327.57 1065.8,-318.27"/>
<polygon fill="#63b8ff" stroke="#63b8ff" points="1121.88,-356.79 1132.24,-359.04 1125.54,-350.83 1121.88,-356.79"/>
</a>
</g>
</g>
<!-- Node21 -->
<g id="Node000021" class="node">
<title>Node21</title>
<g id="a_Node000021"><a xlink:href="ValueModel_8h.html" target="_top" xlink:title=" ">
<polygon fill="white" stroke="#666666" points="1372.88,-317.88 1206.88,-317.88 1206.88,-297.12 1372.88,-297.12 1372.88,-317.88"/>
<text text-anchor="middle" x="1289.88" y="-304.38" font-family="Helvetica,sans-Serif" font-size="10.00">tools/llzk&#45;witgen/ValueModel.h</text>
</a>
</g>
</g>
<!-- Node16&#45;&gt;Node21 -->
<g id="edge25_Node000016_Node000021" class="edge">
<title>Node16&#45;&gt;Node21</title>
<g id="a_edge25_Node000016_Node000021"><a xlink:title=" ">
<path fill="none" stroke="#63b8ff" d="M1201.07,-354.61C1224.54,-342.42 1252.82,-327.74 1271.06,-318.27"/>
<polygon fill="#63b8ff" stroke="#63b8ff" points="1199.62,-351.42 1192.36,-359.13 1202.84,-357.63 1199.62,-351.42"/>
</a>
</g>
</g>
<!-- Node33 -->
<g id="Node000033" class="node">
<title>Node33</title>
<g id="a_Node000033"><a xlink:href="WitnessSelection_8cpp.html" target="_top" xlink:title=" ">
<polygon fill="white" stroke="#666666" points="2059.38,-109.38 1920.38,-109.38 1920.38,-75.88 2059.38,-75.88 2059.38,-109.38"/>
<text text-anchor="start" x="1928.38" y="-95.88" font-family="Helvetica,sans-Serif" font-size="10.00">tools/llzk&#45;witgen/Witness</text>
<text text-anchor="middle" x="1989.88" y="-83.12" font-family="Helvetica,sans-Serif" font-size="10.00">Selection.cpp</text>
</a>
</g>
</g>
<!-- Node16&#45;&gt;Node33 -->
<g id="edge57_Node000016_Node000033" class="edge">
<title>Node16&#45;&gt;Node33</title>
<g id="a_edge57_Node000016_Node000033"><a xlink:title=" ">
<path fill="none" stroke="#63b8ff" d="M1226.04,-372.11C1334.98,-365.11 1547.12,-348.78 1617.88,-324.25 1766.85,-272.6 1918.72,-153.16 1970.92,-109.76"/>
<polygon fill="#63b8ff" stroke="#63b8ff" points="1225.82,-368.62 1216.06,-372.74 1226.26,-375.6 1225.82,-368.62"/>
</a>
</g>
</g>
<!-- Node22 -->
<g id="Node000022" class="node">
<title>Node22</title>
<g id="a_Node000022"><a xlink:href="ExecutionEngineBackend_8cpp.html" target="_top" xlink:title=" ">
<polygon fill="white" stroke="#666666" points="1866.5,-33.5 1719.25,-33.5 1719.25,0 1866.5,0 1866.5,-33.5"/>
<text text-anchor="start" x="1727.25" y="-20" font-family="Helvetica,sans-Serif" font-size="10.00">tools/llzk&#45;witgen/Execution</text>
<text text-anchor="middle" x="1792.88" y="-7.25" font-family="Helvetica,sans-Serif" font-size="10.00">EngineBackend.cpp</text>
</a>
</g>
</g>
<!-- Node21&#45;&gt;Node22 -->
<g id="edge26_Node000021_Node000022" class="edge">
<title>Node21&#45;&gt;Node22</title>
<g id="a_edge26_Node000021_Node000022"><a xlink:title=" ">
<path fill="none" stroke="#63b8ff" d="M1347.17,-294.24C1454.38,-270.86 1681.06,-219.19 1753.88,-185.25 1802.6,-162.54 1828.08,-163.45 1852.88,-115.75 1862.36,-97.51 1861.44,-88.19 1852.88,-69.5 1846.12,-54.74 1832.84,-42.59 1820.49,-33.79"/>
<polygon fill="#63b8ff" stroke="#63b8ff" points="1346.44,-290.82 1337.42,-296.36 1347.93,-297.66 1346.44,-290.82"/>
</a>
</g>
</g>
<!-- Node23 -->
<g id="Node000023" class="node">
<title>Node23</title>
<g id="a_Node000023"><a xlink:href="Interpreter_8h.html" target="_top" xlink:title=" ">
<polygon fill="white" stroke="#666666" points="773.88,-178.88 613.88,-178.88 613.88,-158.12 773.88,-158.12 773.88,-178.88"/>
<text text-anchor="middle" x="693.88" y="-165.38" font-family="Helvetica,sans-Serif" font-size="10.00">tools/llzk&#45;witgen/Interpreter.h</text>
</a>
</g>
</g>
<!-- Node21&#45;&gt;Node23 -->
<g id="edge27_Node000021_Node000023" class="edge">
<title>Node21&#45;&gt;Node23</title>
<g id="a_edge27_Node000021_Node000023"><a xlink:title=" ">
<path fill="none" stroke="#63b8ff" d="M1266.2,-290.4C1251.57,-280.34 1232.47,-267.01 1215.88,-254.75 1196.39,-240.36 1195.35,-230.29 1172.88,-221.25 1029.04,-163.36 979.97,-202.44 825.88,-185.25 809.13,-183.38 791.2,-181.3 774.13,-179.28"/>
<polygon fill="#63b8ff" stroke="#63b8ff" points="1264.06,-293.18 1274.29,-295.94 1268.01,-287.4 1264.06,-293.18"/>
</a>
</g>
</g>
<!-- Node25 -->
<g id="Node000025" class="node">
<title>Node25</title>
<g id="a_Node000025"><a xlink:href="JSON_8h.html" target="_top" xlink:title=" ">
<polygon fill="white" stroke="#666666" points="1825.38,-103 1692.38,-103 1692.38,-82.25 1825.38,-82.25 1825.38,-103"/>
<text text-anchor="middle" x="1758.88" y="-89.5" font-family="Helvetica,sans-Serif" font-size="10.00">tools/llzk&#45;witgen/JSON.h</text>
</a>
</g>
</g>
<!-- Node21&#45;&gt;Node25 -->
<g id="edge30_Node000021_Node000025" class="edge">
<title>Node21&#45;&gt;Node25</title>
<g id="a_edge30_Node000021_Node000025"><a xlink:title=" ">
<path fill="none" stroke="#63b8ff" d="M1333.45,-293.27C1363.92,-283.61 1405.37,-269.63 1440.88,-254.75 1504.58,-228.05 1522.6,-223.86 1579.88,-185.25 1598.54,-172.67 1598.76,-163.65 1617.88,-151.75 1652.83,-129.99 1697.34,-113.22 1726.91,-103.41"/>
<polygon fill="#63b8ff" stroke="#63b8ff" points="1332.68,-289.84 1324.19,-296.18 1334.78,-296.52 1332.68,-289.84"/>
</a>
</g>
</g>
<!-- Node27 -->
<g id="Node000027" class="node">
<title>Node27</title>
<g id="a_Node000027"><a xlink:href="ValueModel_8cpp.html" target="_top" xlink:title=" ">
<polygon fill="white" stroke="#666666" points="1013.5,-103 836.25,-103 836.25,-82.25 1013.5,-82.25 1013.5,-103"/>
<text text-anchor="middle" x="924.88" y="-89.5" font-family="Helvetica,sans-Serif" font-size="10.00">tools/llzk&#45;witgen/ValueModel.cpp</text>
</a>
</g>
</g>
<!-- Node21&#45;&gt;Node27 -->
<g id="edge34_Node000021_Node000027" class="edge">
<title>Node21&#45;&gt;Node27</title>
<g id="a_edge34_Node000021_Node000027"><a xlink:title=" ">
<path fill="none" stroke="#63b8ff" d="M1276.29,-287.68C1261.61,-268.56 1236.57,-239.26 1208.88,-221.25 1168.93,-195.27 1151.71,-203.95 1107.88,-185.25 1045.78,-158.76 975.05,-121.12 942.71,-103.47"/>
<polygon fill="#63b8ff" stroke="#63b8ff" points="1273.29,-289.51 1282.08,-295.43 1278.9,-285.32 1273.29,-289.51"/>
</a>
</g>
</g>
<!-- Node28 -->
<g id="Node000028" class="node">
<title>Node28</title>
<g id="a_Node000028"><a xlink:href="WitgenDriver_8h.html" target="_top" xlink:title=" ">
<polygon fill="white" stroke="#666666" points="1432.12,-254.75 1297.62,-254.75 1297.62,-221.25 1432.12,-221.25 1432.12,-254.75"/>
<text text-anchor="start" x="1305.62" y="-241.25" font-family="Helvetica,sans-Serif" font-size="10.00">tools/llzk&#45;witgen/Witgen</text>
<text text-anchor="middle" x="1364.88" y="-228.5" font-family="Helvetica,sans-Serif" font-size="10.00">Driver.h</text>
</a>
</g>
</g>
<!-- Node21&#45;&gt;Node28 -->
<g id="edge35_Node000021_Node000028" class="edge">
<title>Node21&#45;&gt;Node28</title>
<g id="a_edge35_Node000021_Node000028"><a xlink:title=" ">
<path fill="none" stroke="#63b8ff" d="M1309.17,-289.14C1320.8,-278.67 1335.52,-265.42 1346.91,-255.17"/>
<polygon fill="#63b8ff" stroke="#63b8ff" points="1306.84,-286.53 1301.75,-295.82 1311.52,-291.73 1306.84,-286.53"/>
</a>
</g>
</g>
<!-- Node23&#45;&gt;Node14 -->
<g id="edge28_Node000023_Node000014" class="edge">
<title>Node23&#45;&gt;Node14</title>
<g id="a_edge28_Node000023_Node000014"><a xlink:title=" ">
<path fill="none" stroke="#63b8ff" d="M693.88,-146.57C693.88,-132.25 693.88,-113.96 693.88,-103.05"/>
<polygon fill="#63b8ff" stroke="#63b8ff" points="690.38,-146.33 693.88,-156.33 697.38,-146.33 690.38,-146.33"/>
</a>
</g>
</g>
<!-- Node24 -->
<g id="Node000024" class="node">
<title>Node24</title>
<g id="a_Node000024"><a xlink:href="WitgenDriver_8cpp.html" target="_top" xlink:title=" ">
<polygon fill="white" stroke="#666666" points="1341.12,-33.5 1206.62,-33.5 1206.62,0 1341.12,0 1341.12,-33.5"/>
<text text-anchor="start" x="1214.62" y="-20" font-family="Helvetica,sans-Serif" font-size="10.00">tools/llzk&#45;witgen/Witgen</text>
<text text-anchor="middle" x="1273.88" y="-7.25" font-family="Helvetica,sans-Serif" font-size="10.00">Driver.cpp</text>
</a>
</g>
</g>
<!-- Node23&#45;&gt;Node24 -->
<g id="edge29_Node000023_Node000024" class="edge">
<title>Node23&#45;&gt;Node24</title>
<g id="a_edge29_Node000023_Node000024"><a xlink:title=" ">
<path fill="none" stroke="#63b8ff" d="M646.47,-153.43C628.28,-145.46 609.38,-133.43 598.88,-115.75 588.38,-98.08 584.91,-84.58 598.88,-69.5 639.58,-25.55 1043.56,-18.78 1206.38,-17.85"/>
<polygon fill="#63b8ff" stroke="#63b8ff" points="645.04,-156.63 655.63,-157.1 647.65,-150.13 645.04,-156.63"/>
</a>
</g>
</g>
<!-- Node25&#45;&gt;Node22 -->
<g id="edge31_Node000025_Node000022" class="edge">
<title>Node25&#45;&gt;Node22</title>
<g id="a_edge31_Node000025_Node000022"><a xlink:title=" ">
<path fill="none" stroke="#63b8ff" d="M1768.03,-71.74C1773.48,-59.89 1780.32,-45.03 1785.44,-33.91"/>
<polygon fill="#63b8ff" stroke="#63b8ff" points="1764.95,-70.04 1763.95,-80.59 1771.31,-72.97 1764.95,-70.04"/>
</a>
</g>
</g>
<!-- Node25&#45;&gt;Node24 -->
<g id="edge33_Node000025_Node000024" class="edge">
<title>Node25&#45;&gt;Node24</title>
<g id="a_edge33_Node000025_Node000024"><a xlink:title=" ">
<path fill="none" stroke="#63b8ff" d="M1697.36,-79.66C1678.91,-76.22 1658.59,-72.56 1639.88,-69.5 1536.01,-52.51 1415.02,-36.05 1341.47,-26.41"/>
<polygon fill="#63b8ff" stroke="#63b8ff" points="1696.62,-83.08 1707.1,-81.5 1697.92,-76.21 1696.62,-83.08"/>
</a>
</g>
</g>
<!-- Node26 -->
<g id="Node000026" class="node">
<title>Node26</title>
<g id="a_Node000026"><a xlink:href="JSON_8cpp.html" target="_top" xlink:title=" ">
<polygon fill="white" stroke="#666666" points="1701,-27.12 1556.75,-27.12 1556.75,-6.38 1701,-6.38 1701,-27.12"/>
<text text-anchor="middle" x="1628.88" y="-13.62" font-family="Helvetica,sans-Serif" font-size="10.00">tools/llzk&#45;witgen/JSON.cpp</text>
</a>
</g>
</g>
<!-- Node25&#45;&gt;Node26 -->
<g id="edge32_Node000025_Node000026" class="edge">
<title>Node25&#45;&gt;Node26</title>
<g id="a_edge32_Node000025_Node000026"><a xlink:title=" ">
<path fill="none" stroke="#63b8ff" d="M1731.74,-76.2C1706,-61.58 1668.1,-40.04 1646.21,-27.6"/>
<polygon fill="#63b8ff" stroke="#63b8ff" points="1729.87,-79.17 1740.3,-81.07 1733.33,-73.08 1729.87,-79.17"/>
</a>
</g>
</g>
<!-- Node28&#45;&gt;Node15 -->
<g id="edge40_Node000028_Node000015" class="edge">
<title>Node28&#45;&gt;Node15</title>
<g id="a_edge40_Node000028_Node000015"><a xlink:title=" ">
<path fill="none" stroke="#63b8ff" d="M1364.88,-209.62C1364.88,-179.97 1364.88,-133.68 1364.88,-109.52"/>
<polygon fill="#63b8ff" stroke="#63b8ff" points="1361.38,-209.32 1364.88,-219.32 1368.38,-209.32 1361.38,-209.32"/>
</a>
</g>
</g>
<!-- Node28&#45;&gt;Node24 -->
<g id="edge39_Node000028_Node000024" class="edge">
<title>Node28&#45;&gt;Node24</title>
<g id="a_edge39_Node000028_Node000024"><a xlink:title=" ">
<path fill="none" stroke="#63b8ff" d="M1285.96,-224.81C1143.45,-202.01 855.19,-151.92 826.88,-115.75 814.2,-99.56 813.2,-84.85 826.88,-69.5 851.66,-41.68 1087.68,-26.59 1206.39,-20.7"/>
<polygon fill="#63b8ff" stroke="#63b8ff" points="1285.29,-228.25 1295.72,-226.37 1286.39,-221.34 1285.29,-228.25"/>
</a>
</g>
</g>
<!-- Node29 -->
<g id="Node000029" class="node">
<title>Node29</title>
<g id="a_Node000029"><a xlink:href="ExecutionEngineBackend_8h.html" target="_top" xlink:title=" ">
<polygon fill="white" stroke="#666666" points="1597.5,-109.38 1450.25,-109.38 1450.25,-75.88 1597.5,-75.88 1597.5,-109.38"/>
<text text-anchor="start" x="1458.25" y="-95.88" font-family="Helvetica,sans-Serif" font-size="10.00">tools/llzk&#45;witgen/Execution</text>
<text text-anchor="middle" x="1523.88" y="-83.12" font-family="Helvetica,sans-Serif" font-size="10.00">EngineBackend.h</text>
</a>
</g>
</g>
<!-- Node28&#45;&gt;Node29 -->
<g id="edge36_Node000028_Node000029" class="edge">
<title>Node28&#45;&gt;Node29</title>
<g id="a_edge36_Node000028_Node000029"><a xlink:title=" ">
<path fill="none" stroke="#63b8ff" d="M1378.39,-211.02C1388.78,-192.84 1404.44,-168.85 1422.88,-151.75 1441.71,-134.28 1466.72,-119.84 1487.13,-109.72"/>
<polygon fill="#63b8ff" stroke="#63b8ff" points="1375.41,-209.18 1373.64,-219.63 1381.54,-212.57 1375.41,-209.18"/>
</a>
</g>
</g>
<!-- Node30 -->
<g id="Node000030" class="node">
<title>Node30</title>
<g id="a_Node000030"><a xlink:href="WitgenUtils_8h.html" target="_top" xlink:title=" ">
<polygon fill="white" stroke="#666666" points="1251.12,-185.25 1116.62,-185.25 1116.62,-151.75 1251.12,-151.75 1251.12,-185.25"/>
<text text-anchor="start" x="1124.62" y="-171.75" font-family="Helvetica,sans-Serif" font-size="10.00">tools/llzk&#45;witgen/Witgen</text>
<text text-anchor="middle" x="1183.88" y="-159" font-family="Helvetica,sans-Serif" font-size="10.00">Utils.h</text>
</a>
</g>
</g>
<!-- Node28&#45;&gt;Node30 -->
<g id="edge41_Node000028_Node000030" class="edge">
<title>Node28&#45;&gt;Node30</title>
<g id="a_edge41_Node000028_Node000030"><a xlink:title=" ">
<path fill="none" stroke="#63b8ff" d="M1310.8,-216.83C1284.08,-206.87 1252.28,-195.01 1227.19,-185.65"/>
<polygon fill="#63b8ff" stroke="#63b8ff" points="1309.51,-220.09 1320.1,-220.3 1311.96,-213.53 1309.51,-220.09"/>
</a>
</g>
</g>
<!-- Node32 -->
<g id="Node000032" class="node">
<title>Node32</title>
<g id="a_Node000032"><a xlink:href="WitnessSelection_8h.html" target="_top" xlink:title=" ">
<polygon fill="white" stroke="#666666" points="1570.38,-185.25 1431.38,-185.25 1431.38,-151.75 1570.38,-151.75 1570.38,-185.25"/>
<text text-anchor="start" x="1439.38" y="-171.75" font-family="Helvetica,sans-Serif" font-size="10.00">tools/llzk&#45;witgen/Witness</text>
<text text-anchor="middle" x="1500.88" y="-159" font-family="Helvetica,sans-Serif" font-size="10.00">Selection.h</text>
</a>
</g>
</g>
<!-- Node28&#45;&gt;Node32 -->
<g id="edge49_Node000028_Node000032" class="edge">
<title>Node28&#45;&gt;Node32</title>
<g id="a_edge49_Node000028_Node000032"><a xlink:title=" ">
<path fill="none" stroke="#63b8ff" d="M1407.7,-215.74C1427.39,-205.97 1450.36,-194.57 1468.57,-185.54"/>
<polygon fill="#63b8ff" stroke="#63b8ff" points="1406.21,-212.58 1398.81,-220.16 1409.32,-218.85 1406.21,-212.58"/>
</a>
</g>
</g>
<!-- Node28&#45;&gt;Node34 -->
<g id="edge56_Node000028_Node000034" class="edge">
<title>Node28&#45;&gt;Node34</title>
<g id="a_edge56_Node000028_Node000034"><a xlink:title=" ">
<path fill="none" stroke="#63b8ff" d="M1443.63,-220.44C1500.26,-208.53 1575.42,-192.73 1626.91,-181.9"/>
<polygon fill="#63b8ff" stroke="#63b8ff" points="1443.11,-216.97 1434.04,-222.46 1444.55,-223.82 1443.11,-216.97"/>
</a>
</g>
</g>
<!-- Node29&#45;&gt;Node22 -->
<g id="edge37_Node000029_Node000022" class="edge">
<title>Node29&#45;&gt;Node22</title>
<g id="a_edge37_Node000029_Node000022"><a xlink:title=" ">
<path fill="none" stroke="#63b8ff" d="M1593.98,-72.37C1637.49,-60.42 1692.75,-45.25 1733.98,-33.92"/>
<polygon fill="#63b8ff" stroke="#63b8ff" points="1593.08,-68.99 1584.37,-75.01 1594.94,-75.74 1593.08,-68.99"/>
</a>
</g>
</g>
<!-- Node29&#45;&gt;Node24 -->
<g id="edge38_Node000029_Node000024" class="edge">
<title>Node29&#45;&gt;Node24</title>
<g id="a_edge38_Node000029_Node000024"><a xlink:title=" ">
<path fill="none" stroke="#63b8ff" d="M1458.2,-72.22C1417.85,-60.3 1366.76,-45.2 1328.61,-33.92"/>
<polygon fill="#63b8ff" stroke="#63b8ff" points="1456.98,-75.51 1467.56,-74.98 1458.96,-68.79 1456.98,-75.51"/>
</a>
</g>
</g>
<!-- Node30&#45;&gt;Node14 -->
<g id="edge43_Node000030_Node000014" class="edge">
<title>Node30&#45;&gt;Node14</title>
<g id="a_edge43_Node000030_Node000014"><a xlink:title=" ">
<path fill="none" stroke="#63b8ff" d="M1105.08,-156.56C1032.7,-146.4 922.47,-130.63 826.88,-115.75 802.13,-111.9 774.83,-107.4 751.44,-103.47"/>
<polygon fill="#63b8ff" stroke="#63b8ff" points="1104.48,-160.01 1114.87,-157.93 1105.45,-153.08 1104.48,-160.01"/>
</a>
</g>
</g>
<!-- Node30&#45;&gt;Node15 -->
<g id="edge47_Node000030_Node000015" class="edge">
<title>Node30&#45;&gt;Node15</title>
<g id="a_edge47_Node000030_Node000015"><a xlink:title=" ">
<path fill="none" stroke="#63b8ff" d="M1234.25,-146.94C1262.99,-135.21 1298.51,-120.71 1325.25,-109.8"/>
<polygon fill="#63b8ff" stroke="#63b8ff" points="1232.93,-143.7 1225,-150.72 1235.58,-150.18 1232.93,-143.7"/>
</a>
</g>
</g>
<!-- Node30&#45;&gt;Node22 -->
<g id="edge42_Node000030_Node000022" class="edge">
<title>Node30&#45;&gt;Node22</title>
<g id="a_edge42_Node000030_Node000022"><a xlink:title=" ">
<path fill="none" stroke="#63b8ff" d="M1215.86,-144.53C1227.03,-135.97 1239.4,-125.86 1249.88,-115.75 1269.22,-97.08 1265,-81.86 1288.88,-69.5 1372.26,-26.33 1616.85,-46.27 1709.88,-33.5 1712.93,-33.08 1716.04,-32.63 1719.17,-32.14"/>
<polygon fill="#63b8ff" stroke="#63b8ff" points="1213.92,-141.62 1208.03,-150.42 1218.12,-147.21 1213.92,-141.62"/>
</a>
</g>
</g>
<!-- Node30&#45;&gt;Node24 -->
<g id="edge46_Node000030_Node000024" class="edge">
<title>Node30&#45;&gt;Node24</title>
<g id="a_edge46_Node000030_Node000024"><a xlink:title=" ">
<path fill="none" stroke="#63b8ff" d="M1105.7,-150.42C1088.09,-142.77 1071.48,-131.72 1060.88,-115.75 1049.5,-98.63 1048.17,-85.66 1060.88,-69.5 1078.81,-46.69 1150.96,-32.69 1206.37,-25.1"/>
<polygon fill="#63b8ff" stroke="#63b8ff" points="1104.16,-153.57 1114.74,-153.98 1106.72,-147.06 1104.16,-153.57"/>
</a>
</g>
</g>
<!-- Node30&#45;&gt;Node26 -->
<g id="edge44_Node000030_Node000026" class="edge">
<title>Node30&#45;&gt;Node26</title>
<g id="a_edge44_Node000030_Node000026"><a xlink:title=" ">
<path fill="none" stroke="#63b8ff" d="M1199.53,-141.74C1215.85,-115.78 1241.07,-78.33 1255.88,-69.5 1305.22,-40.09 1462.61,-26.67 1556.44,-21.15"/>
<polygon fill="#63b8ff" stroke="#63b8ff" points="1196.65,-139.75 1194.35,-150.09 1202.59,-143.44 1196.65,-139.75"/>
</a>
</g>
</g>
<!-- Node30&#45;&gt;Node27 -->
<g id="edge45_Node000030_Node000027" class="edge">
<title>Node30&#45;&gt;Node27</title>
<g id="a_edge45_Node000030_Node000027"><a xlink:title=" ">
<path fill="none" stroke="#63b8ff" d="M1116.23,-148.21C1065.89,-133.85 999.23,-114.83 959.34,-103.46"/>
<polygon fill="#63b8ff" stroke="#63b8ff" points="1115,-151.5 1125.58,-150.87 1116.92,-144.76 1115,-151.5"/>
</a>
</g>
</g>
<!-- Node31 -->
<g id="Node000031" class="node">
<title>Node31</title>
<g id="a_Node000031"><a xlink:href="WitgenUtils_8cpp.html" target="_top" xlink:title=" ">
<polygon fill="white" stroke="#666666" points="1204.12,-109.38 1069.62,-109.38 1069.62,-75.88 1204.12,-75.88 1204.12,-109.38"/>
<text text-anchor="start" x="1077.62" y="-95.88" font-family="Helvetica,sans-Serif" font-size="10.00">tools/llzk&#45;witgen/Witgen</text>
<text text-anchor="middle" x="1136.88" y="-83.12" font-family="Helvetica,sans-Serif" font-size="10.00">Utils.cpp</text>
</a>
</g>
</g>
<!-- Node30&#45;&gt;Node31 -->
<g id="edge48_Node000030_Node000031" class="edge">
<title>Node30&#45;&gt;Node31</title>
<g id="a_edge48_Node000030_Node000031"><a xlink:title=" ">
<path fill="none" stroke="#63b8ff" d="M1167.51,-141.78C1160.71,-131.08 1153.02,-119.01 1147.05,-109.62"/>
<polygon fill="#63b8ff" stroke="#63b8ff" points="1164.54,-143.63 1172.86,-150.19 1170.45,-139.88 1164.54,-143.63"/>
</a>
</g>
</g>
<!-- Node32&#45;&gt;Node15 -->
<g id="edge54_Node000032_Node000015" class="edge">
<title>Node32&#45;&gt;Node15</title>
<g id="a_edge54_Node000032_Node000015"><a xlink:title=" ">
<path fill="none" stroke="#63b8ff" d="M1461.01,-145.85C1439.79,-134.32 1414.12,-120.38 1394.65,-109.8"/>
<polygon fill="#63b8ff" stroke="#63b8ff" points="1459.24,-148.87 1469.7,-150.57 1462.58,-142.72 1459.24,-148.87"/>
</a>
</g>
</g>
<!-- Node32&#45;&gt;Node22 -->
<g id="edge50_Node000032_Node000022" class="edge">
<title>Node32&#45;&gt;Node22</title>
<g id="a_edge50_Node000032_Node000022"><a xlink:title=" ">
<path fill="none" stroke="#63b8ff" d="M1581.89,-156.26C1679.41,-142.54 1830.74,-120.57 1834.88,-115.75 1855.83,-91.29 1828.9,-54.81 1809.49,-33.95"/>
<polygon fill="#63b8ff" stroke="#63b8ff" points="1581.49,-152.78 1572.07,-157.64 1582.46,-159.72 1581.49,-152.78"/>
</a>
</g>
</g>
<!-- Node32&#45;&gt;Node24 -->
<g id="edge53_Node000032_Node000024" class="edge">
<title>Node32&#45;&gt;Node24</title>
<g id="a_edge53_Node000032_Node000024"><a xlink:title=" ">
<path fill="none" stroke="#63b8ff" d="M1572.14,-146.32C1585.92,-138.89 1598.63,-128.96 1606.88,-115.75 1617.76,-98.32 1620.25,-85.11 1606.88,-69.5 1573.38,-30.4 1428.55,-20.6 1341.3,-18.3"/>
<polygon fill="#63b8ff" stroke="#63b8ff" points="1570.77,-143.09 1563.33,-150.63 1573.85,-149.38 1570.77,-143.09"/>
</a>
</g>
</g>
<!-- Node32&#45;&gt;Node25 -->
<g id="edge52_Node000032_Node000025" class="edge">
<title>Node32&#45;&gt;Node25</title>
<g id="a_edge52_Node000032_Node000025"><a xlink:title=" ">
<path fill="none" stroke="#63b8ff" d="M1568.25,-148.21C1618.41,-133.85 1684.8,-114.83 1724.54,-103.46"/>
<polygon fill="#63b8ff" stroke="#63b8ff" points="1567.6,-144.75 1558.95,-150.87 1569.53,-151.48 1567.6,-144.75"/>
</a>
</g>
</g>
<!-- Node32&#45;&gt;Node26 -->
<g id="edge51_Node000032_Node000026" class="edge">
<title>Node32&#45;&gt;Node26</title>
<g id="a_edge51_Node000032_Node000026"><a xlink:title=" ">
<path fill="none" stroke="#63b8ff" d="M1575.74,-147.97C1604.15,-138.92 1631.67,-127.56 1639.88,-115.75 1658.83,-88.47 1642.74,-46.26 1633.83,-27.41"/>
<polygon fill="#63b8ff" stroke="#63b8ff" points="1574.82,-144.59 1566.29,-150.88 1576.88,-151.28 1574.82,-144.59"/>
</a>
</g>
</g>
<!-- Node32&#45;&gt;Node33 -->
<g id="edge55_Node000032_Node000033" class="edge">
<title>Node32&#45;&gt;Node33</title>
<g id="a_edge55_Node000032_Node000033"><a xlink:title=" ">
<path fill="none" stroke="#63b8ff" d="M1582.14,-156.42C1673.03,-143.96 1814.49,-124.35 1867.88,-115.75 1884.77,-113.03 1902.94,-109.86 1919.96,-106.79"/>
<polygon fill="#63b8ff" stroke="#63b8ff" points="1581.7,-152.95 1572.27,-157.77 1582.65,-159.88 1581.7,-152.95"/>
</a>
</g>
</g>
</g>
</svg>
