<?xml version="1.0" encoding="UTF-8" standalone="no"?>
<!DOCTYPE svg PUBLIC "-//W3C//DTD SVG 1.1//EN"
 "http://www.w3.org/Graphics/SVG/1.1/DTD/svg11.dtd">
<!-- Generated by graphviz version 12.2.1 (0)
 -->
<!-- Title: build/include/llzk/Dialect/Polymorphic/IR/Types.capi.cpp.inc Pages: 1 -->
<svg width="428pt" height="111pt"
 viewBox="0.00 0.00 427.62 111.00" xmlns="http://www.w3.org/2000/svg" xmlns:xlink="http://www.w3.org/1999/xlink">
<g id="graph0" class="graph" transform="scale(1 1) rotate(0) translate(4 107)">
<title>build/include/llzk/Dialect/Polymorphic/IR/Types.capi.cpp.inc</title>
<!-- Node1 -->
<g id="Node000001" class="node">
<title>Node1</title>
<g id="a_Node000001"><a xlink:title=" ">
<polygon fill="#999999" stroke="#666666" points="284.5,-103 164.25,-103 164.25,-56.75 284.5,-56.75 284.5,-103"/>
<text text-anchor="start" x="172.25" y="-89.5" font-family="Helvetica,sans-Serif" font-size="10.00">build/include/llzk</text>
<text text-anchor="start" x="172.25" y="-76.75" font-family="Helvetica,sans-Serif" font-size="10.00">/Dialect/Polymorphic</text>
<text text-anchor="middle" x="224.38" y="-64" font-family="Helvetica,sans-Serif" font-size="10.00">/IR/Types.capi.cpp.inc</text>
</a>
</g>
</g>
<!-- Node2 -->
<g id="Node000002" class="node">
<title>Node2</title>
<g id="a_Node000002"><a xlink:title=" ">
<polygon fill="#e0e0e0" stroke="#999999" points="82.75,-20.75 0,-20.75 0,0 82.75,0 82.75,-20.75"/>
<text text-anchor="middle" x="41.38" y="-7.25" font-family="Helvetica,sans-Serif" font-size="10.00">mlir/CAPI/IR.h</text>
</a>
</g>
</g>
<!-- Node1&#45;&gt;Node2 -->
<g id="edge1_Node000001_Node000002" class="edge">
<title>Node1&#45;&gt;Node2</title>
<g id="a_edge1_Node000001_Node000002"><a xlink:title=" ">
<path fill="none" stroke="#63b8ff" d="M163.95,-56.59C135.78,-46.2 103.15,-34.16 78.65,-25.12"/>
<polygon fill="#63b8ff" stroke="#63b8ff" points="80.02,-21.9 69.42,-21.72 77.59,-28.47 80.02,-21.9"/>
</a>
</g>
</g>
<!-- Node3 -->
<g id="Node000003" class="node">
<title>Node3</title>
<g id="a_Node000003"><a xlink:title=" ">
<polygon fill="#e0e0e0" stroke="#999999" points="211.62,-20.75 101.12,-20.75 101.12,0 211.62,0 211.62,-20.75"/>
<text text-anchor="middle" x="156.38" y="-7.25" font-family="Helvetica,sans-Serif" font-size="10.00">mlir/CAPI/Support.h</text>
</a>
</g>
</g>
<!-- Node1&#45;&gt;Node3 -->
<g id="edge2_Node000001_Node000003" class="edge">
<title>Node1&#45;&gt;Node3</title>
<g id="a_edge2_Node000001_Node000003"><a xlink:title=" ">
<path fill="none" stroke="#63b8ff" d="M201.73,-56.4C192.79,-47.52 182.65,-37.46 174.24,-29.11"/>
<polygon fill="#63b8ff" stroke="#63b8ff" points="176.85,-26.77 167.29,-22.21 171.92,-31.74 176.85,-26.77"/>
</a>
</g>
</g>
<!-- Node4 -->
<g id="Node000004" class="node">
<title>Node4</title>
<g id="a_Node000004"><a xlink:title=" ">
<polygon fill="#e0e0e0" stroke="#999999" points="357.25,-20.75 229.5,-20.75 229.5,0 357.25,0 357.25,-20.75"/>
<text text-anchor="middle" x="293.38" y="-7.25" font-family="Helvetica,sans-Serif" font-size="10.00">llvm/ADT/TypeSwitch.h</text>
</a>
</g>
</g>
<!-- Node1&#45;&gt;Node4 -->
<g id="edge3_Node000001_Node000004" class="edge">
<title>Node1&#45;&gt;Node4</title>
<g id="a_edge3_Node000001_Node000004"><a xlink:title=" ">
<path fill="none" stroke="#63b8ff" d="M247.35,-56.4C256.43,-47.52 266.71,-37.46 275.25,-29.11"/>
<polygon fill="#63b8ff" stroke="#63b8ff" points="277.61,-31.69 282.31,-22.2 272.71,-26.69 277.61,-31.69"/>
</a>
</g>
</g>
<!-- Node5 -->
<g id="Node000005" class="node">
<title>Node5</title>
<g id="a_Node000005"><a xlink:title=" ">
<polygon fill="#e0e0e0" stroke="#999999" points="419.62,-20.75 375.12,-20.75 375.12,0 419.62,0 419.62,-20.75"/>
<text text-anchor="middle" x="397.38" y="-7.25" font-family="Helvetica,sans-Serif" font-size="10.00">utility</text>
</a>
</g>
</g>
<!-- Node1&#45;&gt;Node5 -->
<g id="edge4_Node000001_Node000005" class="edge">
<title>Node1&#45;&gt;Node5</title>
<g id="a_edge4_Node000001_Node000005"><a xlink:title=" ">
<path fill="none" stroke="#63b8ff" d="M281.98,-56.4C309.35,-45.72 341.08,-33.34 364.33,-24.27"/>
<polygon fill="#63b8ff" stroke="#63b8ff" points="365.55,-27.55 373.6,-20.65 363.01,-21.03 365.55,-27.55"/>
</a>
</g>
</g>
</g>
</svg>
