<?xml version="1.0" encoding="UTF-8" standalone="no"?>
<!DOCTYPE svg PUBLIC "-//W3C//DTD SVG 1.1//EN"
 "http://www.w3.org/Graphics/SVG/1.1/DTD/svg11.dtd">
<!-- Generated by graphviz version 12.2.1 (0)
 -->
<!-- Title: lib/Dialect/Polymorphic/IR/Dialect.cpp Pages: 1 -->
<svg width="2555pt" height="376pt"
 viewBox="0.00 0.00 2554.75 376.25" xmlns="http://www.w3.org/2000/svg" xmlns:xlink="http://www.w3.org/1999/xlink">
<g id="graph0" class="graph" transform="scale(1 1) rotate(0) translate(4 372.25)">
<title>lib/Dialect/Polymorphic/IR/Dialect.cpp</title>
<!-- Node1 -->
<g id="Node000001" class="node">
<title>Node1</title>
<g id="a_Node000001"><a xlink:title=" ">
<polygon fill="#999999" stroke="#666666" points="942.88,-368.25 813.62,-368.25 813.62,-334.75 942.88,-334.75 942.88,-368.25"/>
<text text-anchor="start" x="821.62" y="-354.75" font-family="Helvetica,sans-Serif" font-size="10.00">lib/Dialect/Polymorphic</text>
<text text-anchor="middle" x="878.25" y="-342" font-family="Helvetica,sans-Serif" font-size="10.00">/IR/Dialect.cpp</text>
</a>
</g>
</g>
<!-- Node2 -->
<g id="Node000002" class="node">
<title>Node2</title>
<g id="a_Node000002"><a xlink:href="Polymorphic_2IR_2Dialect_8h.html" target="_top" xlink:title=" ">
<polygon fill="white" stroke="#666666" points="263.5,-159.75 129,-159.75 129,-126.25 263.5,-126.25 263.5,-159.75"/>
<text text-anchor="start" x="137" y="-146.25" font-family="Helvetica,sans-Serif" font-size="10.00">llzk/Dialect/Polymorphic</text>
<text text-anchor="middle" x="196.25" y="-133.5" font-family="Helvetica,sans-Serif" font-size="10.00">/IR/Dialect.h</text>
</a>
</g>
</g>
<!-- Node1&#45;&gt;Node2 -->
<g id="edge1_Node000001_Node000002" class="edge">
<title>Node1&#45;&gt;Node2</title>
<g id="a_edge1_Node000001_Node000002"><a xlink:title=" ">
<path fill="none" stroke="#63b8ff" d="M813.42,-351.11C644.71,-351.1 199.44,-340.37 117.25,-229.25 108.4,-217.28 110.17,-208.85 117.25,-195.75 123.95,-183.34 135.07,-173.43 146.88,-165.74"/>
<polygon fill="#63b8ff" stroke="#63b8ff" points="148.33,-168.95 155.12,-160.82 144.74,-162.94 148.33,-168.95"/>
</a>
</g>
</g>
<!-- Node5 -->
<g id="Node000005" class="node">
<title>Node5</title>
<g id="a_Node000005"><a xlink:href="Versioning_8h.html" target="_top" xlink:title=" ">
<polygon fill="white" stroke="#666666" points="463.5,-298.75 353,-298.75 353,-265.25 463.5,-265.25 463.5,-298.75"/>
<text text-anchor="start" x="361" y="-285.25" font-family="Helvetica,sans-Serif" font-size="10.00">llzk/Dialect/LLZK/IR</text>
<text text-anchor="middle" x="408.25" y="-272.5" font-family="Helvetica,sans-Serif" font-size="10.00">/Versioning.h</text>
</a>
</g>
</g>
<!-- Node1&#45;&gt;Node5 -->
<g id="edge4_Node000001_Node000005" class="edge">
<title>Node1&#45;&gt;Node5</title>
<g id="a_edge4_Node000001_Node000005"><a xlink:title=" ">
<path fill="none" stroke="#63b8ff" d="M813.26,-342.41C737.51,-332.81 608.61,-315.92 498.25,-298.75 490.77,-297.59 482.96,-296.31 475.19,-295"/>
<polygon fill="#63b8ff" stroke="#63b8ff" points="475.82,-291.56 465.38,-293.33 474.65,-298.46 475.82,-291.56"/>
</a>
</g>
</g>
<!-- Node9 -->
<g id="Node000009" class="node">
<title>Node9</title>
<g id="a_Node000009"><a xlink:href="Polymorphic_2IR_2Ops_8h.html" target="_top" xlink:title=" ">
<polygon fill="white" stroke="#666666" points="993.5,-298.75 859,-298.75 859,-265.25 993.5,-265.25 993.5,-298.75"/>
<text text-anchor="start" x="867" y="-285.25" font-family="Helvetica,sans-Serif" font-size="10.00">llzk/Dialect/Polymorphic</text>
<text text-anchor="middle" x="926.25" y="-272.5" font-family="Helvetica,sans-Serif" font-size="10.00">/IR/Ops.h</text>
</a>
</g>
</g>
<!-- Node1&#45;&gt;Node9 -->
<g id="edge8_Node000001_Node000009" class="edge">
<title>Node1&#45;&gt;Node9</title>
<g id="a_edge8_Node000001_Node000009"><a xlink:title=" ">
<path fill="none" stroke="#63b8ff" d="M889.63,-334.5C895.24,-326.6 902.15,-316.88 908.45,-308.03"/>
<polygon fill="#63b8ff" stroke="#63b8ff" points="911.14,-310.29 914.08,-300.12 905.43,-306.24 911.14,-310.29"/>
</a>
</g>
</g>
<!-- Node10 -->
<g id="Node000010" class="node">
<title>Node10</title>
<g id="a_Node000010"><a xlink:href="Polymorphic_2IR_2Types_8h.html" target="_top" xlink:title=" ">
<polygon fill="white" stroke="#666666" points="739.5,-229.25 605,-229.25 605,-195.75 739.5,-195.75 739.5,-229.25"/>
<text text-anchor="start" x="613" y="-215.75" font-family="Helvetica,sans-Serif" font-size="10.00">llzk/Dialect/Polymorphic</text>
<text text-anchor="middle" x="672.25" y="-203" font-family="Helvetica,sans-Serif" font-size="10.00">/IR/Types.h</text>
</a>
</g>
</g>
<!-- Node1&#45;&gt;Node10 -->
<g id="edge57_Node000001_Node000010" class="edge">
<title>Node1&#45;&gt;Node10</title>
<g id="a_edge57_Node000001_Node000010"><a xlink:title=" ">
<path fill="none" stroke="#63b8ff" d="M854.22,-334.52C817.57,-310.14 747.58,-263.6 705.9,-235.88"/>
<polygon fill="#63b8ff" stroke="#63b8ff" points="707.97,-233.06 697.71,-230.43 704.1,-238.88 707.97,-233.06"/>
</a>
</g>
</g>
<!-- Node16 -->
<g id="Node000016" class="node">
<title>Node16</title>
<g id="a_Node000016"><a xlink:title=" ">
<polygon fill="#e0e0e0" stroke="#999999" points="721.62,-83.88 548.88,-83.88 548.88,-63.12 721.62,-63.12 721.62,-83.88"/>
<text text-anchor="middle" x="635.25" y="-70.38" font-family="Helvetica,sans-Serif" font-size="10.00">mlir/IR/DialectImplementation.h</text>
</a>
</g>
</g>
<!-- Node1&#45;&gt;Node16 -->
<g id="edge59_Node000001_Node000016" class="edge">
<title>Node1&#45;&gt;Node16</title>
<g id="a_edge59_Node000001_Node000016"><a xlink:title=" ">
<path fill="none" stroke="#63b8ff" d="M867.95,-334.28C862.03,-324.35 854.88,-311.2 850.25,-298.75 822.86,-225.18 865.85,-183.61 812.25,-126.25 796.92,-109.84 745.23,-95.88 701.65,-86.6"/>
<polygon fill="#63b8ff" stroke="#63b8ff" points="702.46,-83.2 691.96,-84.6 701.04,-90.05 702.46,-83.2"/>
</a>
</g>
</g>
<!-- Node22 -->
<g id="Node000022" class="node">
<title>Node22</title>
<g id="a_Node000022"><a xlink:title=" ">
<polygon fill="#e0e0e0" stroke="#999999" points="839.25,-83.88 739.25,-83.88 739.25,-63.12 839.25,-63.12 839.25,-83.88"/>
<text text-anchor="middle" x="789.25" y="-70.38" font-family="Helvetica,sans-Serif" font-size="10.00">mlir/IR/Builders.h</text>
</a>
</g>
</g>
<!-- Node1&#45;&gt;Node22 -->
<g id="edge58_Node000001_Node000022" class="edge">
<title>Node1&#45;&gt;Node22</title>
<g id="a_edge58_Node000001_Node000022"><a xlink:title=" ">
<path fill="none" stroke="#63b8ff" d="M813.38,-339.79C725.97,-321.19 576.12,-273.41 531.25,-159.75 525.78,-145.9 521.7,-137.68 531.25,-126.25 560.06,-91.76 686.39,-100.05 730.25,-90.25 734.55,-89.29 739.01,-88.22 743.46,-87.12"/>
<polygon fill="#63b8ff" stroke="#63b8ff" points="744.14,-90.55 752.96,-84.68 742.4,-83.77 744.14,-90.55"/>
</a>
</g>
</g>
<!-- Node46 -->
<g id="Node000046" class="node">
<title>Node46</title>
<g id="a_Node000046"><a xlink:title=" ">
<polygon fill="#e0e0e0" stroke="#999999" points="1139.12,-292.38 1011.38,-292.38 1011.38,-271.62 1139.12,-271.62 1139.12,-292.38"/>
<text text-anchor="middle" x="1075.25" y="-278.88" font-family="Helvetica,sans-Serif" font-size="10.00">llvm/ADT/TypeSwitch.h</text>
</a>
</g>
</g>
<!-- Node1&#45;&gt;Node46 -->
<g id="edge60_Node000001_Node000046" class="edge">
<title>Node1&#45;&gt;Node46</title>
<g id="a_edge60_Node000001_Node000046"><a xlink:title=" ">
<path fill="none" stroke="#63b8ff" d="M925.44,-334.33C959.14,-322.78 1003.96,-307.43 1035.78,-296.53"/>
<polygon fill="#63b8ff" stroke="#63b8ff" points="1036.69,-299.91 1045.01,-293.36 1034.42,-293.29 1036.69,-299.91"/>
</a>
</g>
</g>
<!-- Node47 -->
<g id="Node000047" class="node">
<title>Node47</title>
<g id="a_Node000047"><a xlink:href="Polymorphic_2IR_2Dialect_8cpp_8inc.html" target="_top" xlink:title=" ">
<polygon fill="white" stroke="#666666" points="1291.5,-298.75 1157,-298.75 1157,-265.25 1291.5,-265.25 1291.5,-298.75"/>
<text text-anchor="start" x="1165" y="-285.25" font-family="Helvetica,sans-Serif" font-size="10.00">llzk/Dialect/Polymorphic</text>
<text text-anchor="middle" x="1224.25" y="-272.5" font-family="Helvetica,sans-Serif" font-size="10.00">/IR/Dialect.cpp.inc</text>
</a>
</g>
</g>
<!-- Node1&#45;&gt;Node47 -->
<g id="edge61_Node000001_Node000047" class="edge">
<title>Node1&#45;&gt;Node47</title>
<g id="a_edge61_Node000001_Node000047"><a xlink:title=" ">
<path fill="none" stroke="#63b8ff" d="M943.22,-338.33C995.38,-328.49 1070.8,-314.13 1145.68,-299.25"/>
<polygon fill="#63b8ff" stroke="#63b8ff" points="1146.11,-302.73 1155.23,-297.35 1144.74,-295.87 1146.11,-302.73"/>
</a>
</g>
</g>
<!-- Node48 -->
<g id="Node000048" class="node">
<title>Node48</title>
<g id="a_Node000048"><a xlink:href="Polymorphic_2IR_2Types_8cpp_8inc.html" target="_top" xlink:title=" ">
<polygon fill="white" stroke="#666666" points="1444.5,-298.75 1310,-298.75 1310,-265.25 1444.5,-265.25 1444.5,-298.75"/>
<text text-anchor="start" x="1318" y="-285.25" font-family="Helvetica,sans-Serif" font-size="10.00">llzk/Dialect/Polymorphic</text>
<text text-anchor="middle" x="1377.25" y="-272.5" font-family="Helvetica,sans-Serif" font-size="10.00">/IR/Types.cpp.inc</text>
</a>
</g>
</g>
<!-- Node1&#45;&gt;Node48 -->
<g id="edge62_Node000001_Node000048" class="edge">
<title>Node1&#45;&gt;Node48</title>
<g id="a_edge62_Node000001_Node000048"><a xlink:title=" ">
<path fill="none" stroke="#63b8ff" d="M943.18,-344.16C1023.97,-335.91 1166.35,-320.19 1298.57,-298.94"/>
<polygon fill="#63b8ff" stroke="#63b8ff" points="1298.9,-302.43 1308.21,-297.38 1297.77,-295.52 1298.9,-302.43"/>
</a>
</g>
</g>
<!-- Node49 -->
<g id="Node000049" class="node">
<title>Node49</title>
<g id="a_Node000049"><a xlink:href="Polymorphic_2IR_2Ops_8cpp_8inc.html" target="_top" xlink:title=" ">
<polygon fill="white" stroke="#666666" points="1597.5,-298.75 1463,-298.75 1463,-265.25 1597.5,-265.25 1597.5,-298.75"/>
<text text-anchor="start" x="1471" y="-285.25" font-family="Helvetica,sans-Serif" font-size="10.00">llzk/Dialect/Polymorphic</text>
<text text-anchor="middle" x="1530.25" y="-272.5" font-family="Helvetica,sans-Serif" font-size="10.00">/IR/Ops.cpp.inc</text>
</a>
</g>
</g>
<!-- Node1&#45;&gt;Node49 -->
<g id="edge63_Node000001_Node000049" class="edge">
<title>Node1&#45;&gt;Node49</title>
<g id="a_edge63_Node000001_Node000049"><a xlink:title=" ">
<path fill="none" stroke="#63b8ff" d="M943.2,-347.03C1047.94,-340.92 1260.77,-326.34 1451.36,-298.91"/>
<polygon fill="#63b8ff" stroke="#63b8ff" points="1451.83,-302.38 1461.22,-297.48 1450.82,-295.45 1451.83,-302.38"/>
</a>
</g>
</g>
<!-- Node3 -->
<g id="Node000003" class="node">
<title>Node3</title>
<g id="a_Node000003"><a xlink:title=" ">
<polygon fill="#e0e0e0" stroke="#999999" points="110.5,-83.88 0,-83.88 0,-63.12 110.5,-63.12 110.5,-83.88"/>
<text text-anchor="middle" x="55.25" y="-70.38" font-family="Helvetica,sans-Serif" font-size="10.00">mlir/IR/BuiltinOps.h</text>
</a>
</g>
</g>
<!-- Node2&#45;&gt;Node3 -->
<g id="edge2_Node000002_Node000003" class="edge">
<title>Node2&#45;&gt;Node3</title>
<g id="a_edge2_Node000002_Node000003"><a xlink:title=" ">
<path fill="none" stroke="#63b8ff" d="M162.48,-125.83C139.23,-114.7 108.6,-100.04 86.03,-89.23"/>
<polygon fill="#63b8ff" stroke="#63b8ff" points="87.56,-86.09 77.03,-84.92 84.53,-92.4 87.56,-86.09"/>
</a>
</g>
</g>
<!-- Node4 -->
<g id="Node000004" class="node">
<title>Node4</title>
<g id="a_Node000004"><a xlink:href="Polymorphic_2IR_2Dialect_8h_8inc.html" target="_top" xlink:title=" ">
<polygon fill="white" stroke="#666666" points="263.5,-90.25 129,-90.25 129,-56.75 263.5,-56.75 263.5,-90.25"/>
<text text-anchor="start" x="137" y="-76.75" font-family="Helvetica,sans-Serif" font-size="10.00">llzk/Dialect/Polymorphic</text>
<text text-anchor="middle" x="196.25" y="-64" font-family="Helvetica,sans-Serif" font-size="10.00">/IR/Dialect.h.inc</text>
</a>
</g>
</g>
<!-- Node2&#45;&gt;Node4 -->
<g id="edge3_Node000002_Node000004" class="edge">
<title>Node2&#45;&gt;Node4</title>
<g id="a_edge3_Node000002_Node000004"><a xlink:title=" ">
<path fill="none" stroke="#63b8ff" d="M196.25,-126C196.25,-118.77 196.25,-110.03 196.25,-101.81"/>
<polygon fill="#63b8ff" stroke="#63b8ff" points="199.75,-101.9 196.25,-91.9 192.75,-101.9 199.75,-101.9"/>
</a>
</g>
</g>
<!-- Node6 -->
<g id="Node000006" class="node">
<title>Node6</title>
<g id="a_Node000006"><a xlink:title=" ">
<polygon fill="#e0e0e0" stroke="#999999" points="346.25,-222.88 126.25,-222.88 126.25,-202.12 346.25,-202.12 346.25,-222.88"/>
<text text-anchor="middle" x="236.25" y="-209.38" font-family="Helvetica,sans-Serif" font-size="10.00">mlir/Bytecode/BytecodeImplementation.h</text>
</a>
</g>
</g>
<!-- Node5&#45;&gt;Node6 -->
<g id="edge5_Node000005_Node000006" class="edge">
<title>Node5&#45;&gt;Node6</title>
<g id="a_edge5_Node000005_Node000006"><a xlink:title=" ">
<path fill="none" stroke="#63b8ff" d="M367.05,-264.83C338.01,-253.44 299.51,-238.33 271.81,-227.46"/>
<polygon fill="#63b8ff" stroke="#63b8ff" points="273.4,-224.32 262.81,-223.92 270.84,-230.83 273.4,-224.32"/>
</a>
</g>
</g>
<!-- Node7 -->
<g id="Node000007" class="node">
<title>Node7</title>
<g id="a_Node000007"><a xlink:title=" ">
<polygon fill="#e0e0e0" stroke="#999999" points="380.5,-83.88 282,-83.88 282,-63.12 380.5,-63.12 380.5,-83.88"/>
<text text-anchor="middle" x="331.25" y="-70.38" font-family="Helvetica,sans-Serif" font-size="10.00">llvm/ADT/APInt.h</text>
</a>
</g>
</g>
<!-- Node5&#45;&gt;Node7 -->
<g id="edge6_Node000005_Node000007" class="edge">
<title>Node5&#45;&gt;Node7</title>
<g id="a_edge6_Node000005_Node000007"><a xlink:title=" ">
<path fill="none" stroke="#63b8ff" d="M413.77,-264.89C418.88,-247.45 424.66,-219.01 417.25,-195.75 403.96,-154.04 370.52,-114.37 349.47,-92.35"/>
<polygon fill="#63b8ff" stroke="#63b8ff" points="352.13,-90.06 342.62,-85.37 347.13,-94.96 352.13,-90.06"/>
</a>
</g>
</g>
<!-- Node8 -->
<g id="Node000008" class="node">
<title>Node8</title>
<g id="a_Node000008"><a xlink:title=" ">
<polygon fill="#e0e0e0" stroke="#999999" points="408.12,-222.88 364.38,-222.88 364.38,-202.12 408.12,-202.12 408.12,-222.88"/>
<text text-anchor="middle" x="386.25" y="-209.38" font-family="Helvetica,sans-Serif" font-size="10.00">limits</text>
</a>
</g>
</g>
<!-- Node5&#45;&gt;Node8 -->
<g id="edge7_Node000005_Node000008" class="edge">
<title>Node5&#45;&gt;Node8</title>
<g id="a_edge7_Node000005_Node000008"><a xlink:title=" ">
<path fill="none" stroke="#63b8ff" d="M403.04,-265C400.04,-255.8 396.24,-244.14 393.01,-234.24"/>
<polygon fill="#63b8ff" stroke="#63b8ff" points="396.35,-233.18 389.92,-224.76 389.69,-235.35 396.35,-233.18"/>
</a>
</g>
</g>
<!-- Node9&#45;&gt;Node2 -->
<g id="edge9_Node000009_Node000002" class="edge">
<title>Node9&#45;&gt;Node2</title>
<g id="a_edge9_Node000009_Node000002"><a xlink:title=" ">
<path fill="none" stroke="#63b8ff" d="M858.76,-271.51C791.93,-261.86 686.78,-245.98 596.25,-229.25 484.22,-208.54 355.49,-180.3 275,-162.11"/>
<polygon fill="#63b8ff" stroke="#63b8ff" points="275.97,-158.74 265.45,-159.94 274.43,-165.57 275.97,-158.74"/>
</a>
</g>
</g>
<!-- Node9&#45;&gt;Node10 -->
<g id="edge10_Node000009_Node000010" class="edge">
<title>Node9&#45;&gt;Node10</title>
<g id="a_edge10_Node000009_Node000010"><a xlink:title=" ">
<path fill="none" stroke="#63b8ff" d="M865.41,-264.83C828.94,-255.14 782.38,-242.77 744.11,-232.6"/>
<polygon fill="#63b8ff" stroke="#63b8ff" points="745.06,-229.23 734.5,-230.04 743.26,-235.99 745.06,-229.23"/>
</a>
</g>
</g>
<!-- Node12 -->
<g id="Node000012" class="node">
<title>Node12</title>
<g id="a_Node000012"><a xlink:href="OpHelpers_8h.html" target="_top" xlink:title=" ">
<polygon fill="white" stroke="#666666" points="1109,-229.25 1001.5,-229.25 1001.5,-195.75 1109,-195.75 1109,-229.25"/>
<text text-anchor="start" x="1009.5" y="-215.75" font-family="Helvetica,sans-Serif" font-size="10.00">llzk/Dialect/Shared</text>
<text text-anchor="middle" x="1055.25" y="-203" font-family="Helvetica,sans-Serif" font-size="10.00">/OpHelpers.h</text>
</a>
</g>
</g>
<!-- Node9&#45;&gt;Node12 -->
<g id="edge13_Node000009_Node000012" class="edge">
<title>Node9&#45;&gt;Node12</title>
<g id="a_edge13_Node000009_Node000012"><a xlink:title=" ">
<path fill="none" stroke="#63b8ff" d="M957.15,-264.83C974.38,-255.82 996.05,-244.48 1014.64,-234.75"/>
<polygon fill="#63b8ff" stroke="#63b8ff" points="1016.02,-237.98 1023.26,-230.24 1012.78,-231.77 1016.02,-237.98"/>
</a>
</g>
</g>
<!-- Node41 -->
<g id="Node000041" class="node">
<title>Node41</title>
<g id="a_Node000041"><a xlink:title=" ">
<polygon fill="#e0e0e0" stroke="#999999" points="1243.88,-229.25 1126.62,-229.25 1126.62,-195.75 1243.88,-195.75 1243.88,-229.25"/>
<text text-anchor="start" x="1134.62" y="-215.75" font-family="Helvetica,sans-Serif" font-size="10.00">mlir/Dialect/Affine</text>
<text text-anchor="middle" x="1185.25" y="-203" font-family="Helvetica,sans-Serif" font-size="10.00">/IR/AffineValueMap.h</text>
</a>
</g>
</g>
<!-- Node9&#45;&gt;Node41 -->
<g id="edge52_Node000009_Node000041" class="edge">
<title>Node9&#45;&gt;Node41</title>
<g id="a_edge52_Node000009_Node000041"><a xlink:title=" ">
<path fill="none" stroke="#63b8ff" d="M988.29,-264.83C1026.59,-254.85 1075.82,-242.02 1115.47,-231.69"/>
<polygon fill="#63b8ff" stroke="#63b8ff" points="1116.13,-235.13 1124.92,-229.22 1114.36,-228.36 1116.13,-235.13"/>
</a>
</g>
</g>
<!-- Node42 -->
<g id="Node000042" class="node">
<title>Node42</title>
<g id="a_Node000042"><a xlink:title=" ">
<polygon fill="#e0e0e0" stroke="#999999" points="1410.62,-229.25 1261.88,-229.25 1261.88,-195.75 1410.62,-195.75 1410.62,-229.25"/>
<text text-anchor="start" x="1269.88" y="-215.75" font-family="Helvetica,sans-Serif" font-size="10.00">mlir/Interfaces/ControlFlow</text>
<text text-anchor="middle" x="1336.25" y="-203" font-family="Helvetica,sans-Serif" font-size="10.00">Interfaces.h</text>
</a>
</g>
</g>
<!-- Node9&#45;&gt;Node42 -->
<g id="edge53_Node000009_Node000042" class="edge">
<title>Node9&#45;&gt;Node42</title>
<g id="a_edge53_Node000009_Node000042"><a xlink:title=" ">
<path fill="none" stroke="#63b8ff" d="M993.75,-266.78C996.62,-266.25 999.46,-265.74 1002.25,-265.25 1109.68,-246.43 1140.14,-247.66 1250.34,-229.69"/>
<polygon fill="#63b8ff" stroke="#63b8ff" points="1250.83,-233.15 1260.13,-228.07 1249.69,-226.25 1250.83,-233.15"/>
</a>
</g>
</g>
<!-- Node43 -->
<g id="Node000043" class="node">
<title>Node43</title>
<g id="a_Node000043"><a xlink:title=" ">
<polygon fill="#e0e0e0" stroke="#999999" points="1563.88,-229.25 1428.62,-229.25 1428.62,-195.75 1563.88,-195.75 1563.88,-229.25"/>
<text text-anchor="start" x="1436.62" y="-215.75" font-family="Helvetica,sans-Serif" font-size="10.00">mlir/Interfaces/InferType</text>
<text text-anchor="middle" x="1496.25" y="-203" font-family="Helvetica,sans-Serif" font-size="10.00">OpInterface.h</text>
</a>
</g>
</g>
<!-- Node9&#45;&gt;Node43 -->
<g id="edge54_Node000009_Node000043" class="edge">
<title>Node9&#45;&gt;Node43</title>
<g id="a_edge54_Node000009_Node000043"><a xlink:title=" ">
<path fill="none" stroke="#63b8ff" d="M993.72,-266.59C996.6,-266.11 999.45,-265.66 1002.25,-265.25 1182.72,-238.85 1233.19,-255.26 1417.15,-229.44"/>
<polygon fill="#63b8ff" stroke="#63b8ff" points="1417.4,-232.94 1426.81,-228.06 1416.41,-226.01 1417.4,-232.94"/>
</a>
</g>
</g>
<!-- Node44 -->
<g id="Node000044" class="node">
<title>Node44</title>
<g id="a_Node000044"><a xlink:href="Polymorphic_2IR_2OpInterfaces_8h_8inc.html" target="_top" xlink:title=" ">
<polygon fill="white" stroke="#666666" points="1716.5,-229.25 1582,-229.25 1582,-195.75 1716.5,-195.75 1716.5,-229.25"/>
<text text-anchor="start" x="1590" y="-215.75" font-family="Helvetica,sans-Serif" font-size="10.00">llzk/Dialect/Polymorphic</text>
<text text-anchor="middle" x="1649.25" y="-203" font-family="Helvetica,sans-Serif" font-size="10.00">/IR/OpInterfaces.h.inc</text>
</a>
</g>
</g>
<!-- Node9&#45;&gt;Node44 -->
<g id="edge55_Node000009_Node000044" class="edge">
<title>Node9&#45;&gt;Node44</title>
<g id="a_edge55_Node000009_Node000044"><a xlink:title=" ">
<path fill="none" stroke="#63b8ff" d="M993.71,-266.5C996.59,-266.05 999.45,-265.63 1002.25,-265.25 1250.57,-231.86 1319.23,-262.22 1570.46,-229.5"/>
<polygon fill="#63b8ff" stroke="#63b8ff" points="1570.84,-232.98 1580.29,-228.2 1569.92,-226.04 1570.84,-232.98"/>
</a>
</g>
</g>
<!-- Node45 -->
<g id="Node000045" class="node">
<title>Node45</title>
<g id="a_Node000045"><a xlink:href="Polymorphic_2IR_2Ops_8h_8inc.html" target="_top" xlink:title=" ">
<polygon fill="white" stroke="#666666" points="1869.5,-229.25 1735,-229.25 1735,-195.75 1869.5,-195.75 1869.5,-229.25"/>
<text text-anchor="start" x="1743" y="-215.75" font-family="Helvetica,sans-Serif" font-size="10.00">llzk/Dialect/Polymorphic</text>
<text text-anchor="middle" x="1802.25" y="-203" font-family="Helvetica,sans-Serif" font-size="10.00">/IR/Ops.h.inc</text>
</a>
</g>
</g>
<!-- Node9&#45;&gt;Node45 -->
<g id="edge56_Node000009_Node000045" class="edge">
<title>Node9&#45;&gt;Node45</title>
<g id="a_edge56_Node000009_Node000045"><a xlink:title=" ">
<path fill="none" stroke="#63b8ff" d="M993.7,-266.46C996.59,-266.01 999.44,-265.61 1002.25,-265.25 1317.8,-224.94 1404.13,-268.6 1723.76,-229.29"/>
<polygon fill="#63b8ff" stroke="#63b8ff" points="1723.75,-232.81 1733.24,-228.1 1722.88,-225.87 1723.75,-232.81"/>
</a>
</g>
</g>
<!-- Node10&#45;&gt;Node2 -->
<g id="edge11_Node000010_Node000002" class="edge">
<title>Node10&#45;&gt;Node2</title>
<g id="a_edge11_Node000010_Node000002"><a xlink:title=" ">
<path fill="none" stroke="#63b8ff" d="M604.56,-201.9C517.58,-189.57 366.88,-168.2 274.9,-155.15"/>
<polygon fill="#63b8ff" stroke="#63b8ff" points="275.6,-151.72 265.21,-153.78 274.62,-158.65 275.6,-151.72"/>
</a>
</g>
</g>
<!-- Node11 -->
<g id="Node000011" class="node">
<title>Node11</title>
<g id="a_Node000011"><a xlink:href="Polymorphic_2IR_2Types_8h_8inc.html" target="_top" xlink:title=" ">
<polygon fill="white" stroke="#666666" points="674.5,-159.75 540,-159.75 540,-126.25 674.5,-126.25 674.5,-159.75"/>
<text text-anchor="start" x="548" y="-146.25" font-family="Helvetica,sans-Serif" font-size="10.00">llzk/Dialect/Polymorphic</text>
<text text-anchor="middle" x="607.25" y="-133.5" font-family="Helvetica,sans-Serif" font-size="10.00">/IR/Types.h.inc</text>
</a>
</g>
</g>
<!-- Node10&#45;&gt;Node11 -->
<g id="edge12_Node000010_Node000011" class="edge">
<title>Node10&#45;&gt;Node11</title>
<g id="a_edge12_Node000010_Node000011"><a xlink:title=" ">
<path fill="none" stroke="#63b8ff" d="M656.85,-195.5C648.91,-187.27 639.08,-177.05 630.27,-167.9"/>
<polygon fill="#63b8ff" stroke="#63b8ff" points="633.05,-165.75 623.59,-160.97 628.01,-170.6 633.05,-165.75"/>
</a>
</g>
</g>
<!-- Node13 -->
<g id="Node000013" class="node">
<title>Node13</title>
<g id="a_Node000013"><a xlink:href="AttributeHelper_8h.html" target="_top" xlink:title=" ">
<polygon fill="white" stroke="#666666" points="803.5,-159.75 693,-159.75 693,-126.25 803.5,-126.25 803.5,-159.75"/>
<text text-anchor="start" x="701" y="-146.25" font-family="Helvetica,sans-Serif" font-size="10.00">llzk/Dialect/LLZK/IR</text>
<text text-anchor="middle" x="748.25" y="-133.5" font-family="Helvetica,sans-Serif" font-size="10.00">/AttributeHelper.h</text>
</a>
</g>
</g>
<!-- Node12&#45;&gt;Node13 -->
<g id="edge14_Node000012_Node000013" class="edge">
<title>Node12&#45;&gt;Node13</title>
<g id="a_edge14_Node000012_Node000013"><a xlink:title=" ">
<path fill="none" stroke="#63b8ff" d="M1001.07,-199.59C949.22,-188.19 870.86,-170.96 815.14,-158.71"/>
<polygon fill="#63b8ff" stroke="#63b8ff" points="815.96,-155.3 805.44,-156.57 814.45,-162.14 815.96,-155.3"/>
</a>
</g>
</g>
<!-- Node17 -->
<g id="Node000017" class="node">
<title>Node17</title>
<g id="a_Node000017"><a xlink:href="AffineHelper_8h.html" target="_top" xlink:title=" ">
<polygon fill="white" stroke="#666666" points="985,-153.38 859.5,-153.38 859.5,-132.62 985,-132.62 985,-153.38"/>
<text text-anchor="middle" x="922.25" y="-139.88" font-family="Helvetica,sans-Serif" font-size="10.00">llzk/Util/AffineHelper.h</text>
</a>
</g>
</g>
<!-- Node12&#45;&gt;Node17 -->
<g id="edge19_Node000012_Node000017" class="edge">
<title>Node12&#45;&gt;Node17</title>
<g id="a_edge19_Node000012_Node000017"><a xlink:title=" ">
<path fill="none" stroke="#63b8ff" d="M1023.39,-195.33C1001.57,-184.25 972.83,-169.67 951.57,-158.88"/>
<polygon fill="#63b8ff" stroke="#63b8ff" points="953.35,-155.86 942.85,-154.46 950.19,-162.1 953.35,-155.86"/>
</a>
</g>
</g>
<!-- Node19 -->
<g id="Node000019" class="node">
<title>Node19</title>
<g id="a_Node000019"><a xlink:title=" ">
<polygon fill="#e0e0e0" stroke="#999999" points="1371.38,-20.75 1263.12,-20.75 1263.12,0 1371.38,0 1371.38,-20.75"/>
<text text-anchor="middle" x="1317.25" y="-7.25" font-family="Helvetica,sans-Serif" font-size="10.00">mlir/IR/Operation.h</text>
</a>
</g>
</g>
<!-- Node12&#45;&gt;Node19 -->
<g id="edge47_Node000012_Node000019" class="edge">
<title>Node12&#45;&gt;Node19</title>
<g id="a_edge47_Node000012_Node000019"><a xlink:title=" ">
<path fill="none" stroke="#63b8ff" d="M1043.19,-195.42C1030.71,-176.68 1015.24,-145.79 1032.25,-126.25 1108.56,-38.6 1202.01,-164.7 1291.25,-90.25 1308.17,-76.14 1314.15,-50.76 1316.23,-32.61"/>
<polygon fill="#63b8ff" stroke="#63b8ff" points="1319.72,-32.92 1317.02,-22.68 1312.74,-32.37 1319.72,-32.92"/>
</a>
</g>
</g>
<!-- Node23 -->
<g id="Node000023" class="node">
<title>Node23</title>
<g id="a_Node000023"><a xlink:title=" ">
<polygon fill="#e0e0e0" stroke="#999999" points="1498.12,-83.88 1346.38,-83.88 1346.38,-63.12 1498.12,-63.12 1498.12,-83.88"/>
<text text-anchor="middle" x="1422.25" y="-70.38" font-family="Helvetica,sans-Serif" font-size="10.00">mlir/IR/OpImplementation.h</text>
</a>
</g>
</g>
<!-- Node12&#45;&gt;Node23 -->
<g id="edge46_Node000012_Node000023" class="edge">
<title>Node12&#45;&gt;Node23</title>
<g id="a_edge46_Node000012_Node000023"><a xlink:title=" ">
<path fill="none" stroke="#63b8ff" d="M1109.23,-197.19C1111.94,-196.66 1114.62,-196.17 1117.25,-195.75 1172.57,-186.82 1582.07,-200.76 1620.25,-159.75 1630.4,-148.85 1629.35,-138.03 1620.25,-126.25 1611.69,-115.17 1538.59,-98.11 1483.69,-86.64"/>
<polygon fill="#63b8ff" stroke="#63b8ff" points="1484.61,-83.26 1474.11,-84.66 1483.19,-90.11 1484.61,-83.26"/>
</a>
</g>
</g>
<!-- Node26 -->
<g id="Node000026" class="node">
<title>Node26</title>
<g id="a_Node000026"><a xlink:href="llzk_2Util_2Constants_8h.html" target="_top" xlink:title=" ">
<polygon fill="white" stroke="#666666" points="1155.38,-153.38 1041.12,-153.38 1041.12,-132.62 1155.38,-132.62 1155.38,-153.38"/>
<text text-anchor="middle" x="1098.25" y="-139.88" font-family="Helvetica,sans-Serif" font-size="10.00">llzk/Util/Constants.h</text>
</a>
</g>
</g>
<!-- Node12&#45;&gt;Node26 -->
<g id="edge29_Node000012_Node000026" class="edge">
<title>Node12&#45;&gt;Node26</title>
<g id="a_edge29_Node000012_Node000026"><a xlink:title=" ">
<path fill="none" stroke="#63b8ff" d="M1065.44,-195.5C1071.56,-185.9 1079.39,-173.61 1085.86,-163.44"/>
<polygon fill="#63b8ff" stroke="#63b8ff" points="1088.76,-165.41 1091.18,-155.1 1082.86,-161.65 1088.76,-165.41"/>
</a>
</g>
</g>
<!-- Node27 -->
<g id="Node000027" class="node">
<title>Node27</title>
<g id="a_Node000027"><a xlink:href="ErrorHelper_8h.html" target="_top" xlink:title=" ">
<polygon fill="white" stroke="#666666" points="2227.38,-83.88 2107.12,-83.88 2107.12,-63.12 2227.38,-63.12 2227.38,-83.88"/>
<text text-anchor="middle" x="2167.25" y="-70.38" font-family="Helvetica,sans-Serif" font-size="10.00">llzk/Util/ErrorHelper.h</text>
</a>
</g>
</g>
<!-- Node12&#45;&gt;Node27 -->
<g id="edge30_Node000012_Node000027" class="edge">
<title>Node12&#45;&gt;Node27</title>
<g id="a_edge30_Node000012_Node000027"><a xlink:title=" ">
<path fill="none" stroke="#63b8ff" d="M1109.22,-197.11C1111.93,-196.6 1114.61,-196.14 1117.25,-195.75 1449.5,-146.14 1540.85,-214.76 1872.25,-159.75 1967.46,-143.95 2075.53,-107.87 2130.66,-88.09"/>
<polygon fill="#63b8ff" stroke="#63b8ff" points="2131.65,-91.45 2139.86,-84.76 2129.26,-84.87 2131.65,-91.45"/>
</a>
</g>
</g>
<!-- Node33 -->
<g id="Node000033" class="node">
<title>Node33</title>
<g id="a_Node000033"><a xlink:href="TypeHelper_8h.html" target="_top" xlink:title=" ">
<polygon fill="white" stroke="#666666" points="1863,-153.38 1743.5,-153.38 1743.5,-132.62 1863,-132.62 1863,-153.38"/>
<text text-anchor="middle" x="1803.25" y="-139.88" font-family="Helvetica,sans-Serif" font-size="10.00">llzk/Util/TypeHelper.h</text>
</a>
</g>
</g>
<!-- Node12&#45;&gt;Node33 -->
<g id="edge37_Node000012_Node000033" class="edge">
<title>Node12&#45;&gt;Node33</title>
<g id="a_edge37_Node000012_Node000033"><a xlink:title=" ">
<path fill="none" stroke="#63b8ff" d="M1109.23,-197.15C1111.93,-196.63 1114.62,-196.16 1117.25,-195.75 1386.51,-154.02 1459.23,-196.21 1729.25,-159.75 1736.42,-158.78 1743.94,-157.5 1751.32,-156.08"/>
<polygon fill="#63b8ff" stroke="#63b8ff" points="1751.75,-159.57 1760.86,-154.16 1750.37,-152.71 1751.75,-159.57"/>
</a>
</g>
</g>
<!-- Node34 -->
<g id="Node000034" class="node">
<title>Node34</title>
<g id="a_Node000034"><a xlink:title=" ">
<polygon fill="#e0e0e0" stroke="#999999" points="1638.5,-83.88 1516,-83.88 1516,-63.12 1638.5,-63.12 1638.5,-83.88"/>
<text text-anchor="middle" x="1577.25" y="-70.38" font-family="Helvetica,sans-Serif" font-size="10.00">mlir/IR/SymbolTable.h</text>
</a>
</g>
</g>
<!-- Node12&#45;&gt;Node34 -->
<g id="edge48_Node000012_Node000034" class="edge">
<title>Node12&#45;&gt;Node34</title>
<g id="a_edge48_Node000012_Node000034"><a xlink:title=" ">
<path fill="none" stroke="#63b8ff" d="M1109.23,-197.18C1111.93,-196.65 1114.62,-196.17 1117.25,-195.75 1174.55,-186.57 1598.66,-202.17 1638.25,-159.75 1658.75,-137.79 1627.44,-108.7 1602.62,-90.81"/>
<polygon fill="#63b8ff" stroke="#63b8ff" points="1604.68,-87.98 1594.46,-85.18 1600.71,-93.74 1604.68,-87.98"/>
</a>
</g>
</g>
<!-- Node37 -->
<g id="Node000037" class="node">
<title>Node37</title>
<g id="a_Node000037"><a xlink:title=" ">
<polygon fill="#e0e0e0" stroke="#999999" points="1773.88,-83.88 1656.62,-83.88 1656.62,-63.12 1773.88,-63.12 1773.88,-83.88"/>
<text text-anchor="middle" x="1715.25" y="-70.38" font-family="Helvetica,sans-Serif" font-size="10.00">llvm/ADT/StringRef.h</text>
</a>
</g>
</g>
<!-- Node12&#45;&gt;Node37 -->
<g id="edge51_Node000012_Node000037" class="edge">
<title>Node12&#45;&gt;Node37</title>
<g id="a_edge51_Node000012_Node000037"><a xlink:title=" ">
<path fill="none" stroke="#63b8ff" d="M1109.23,-197.17C1111.93,-196.65 1114.62,-196.17 1117.25,-195.75 1235.58,-176.92 1550.8,-218.47 1655.25,-159.75 1680.82,-145.37 1698.07,-115.03 1707.27,-94.7"/>
<polygon fill="#63b8ff" stroke="#63b8ff" points="1710.39,-96.3 1711.08,-85.73 1703.95,-93.57 1710.39,-96.3"/>
</a>
</g>
</g>
<!-- Node38 -->
<g id="Node000038" class="node">
<title>Node38</title>
<g id="a_Node000038"><a xlink:title=" ">
<polygon fill="#e0e0e0" stroke="#999999" points="1293,-153.38 1173.5,-153.38 1173.5,-132.62 1293,-132.62 1293,-153.38"/>
<text text-anchor="middle" x="1233.25" y="-139.88" font-family="Helvetica,sans-Serif" font-size="10.00">mlir/IR/BuiltinTypes.h</text>
</a>
</g>
</g>
<!-- Node12&#45;&gt;Node38 -->
<g id="edge45_Node000012_Node000038" class="edge">
<title>Node12&#45;&gt;Node38</title>
<g id="a_edge45_Node000012_Node000038"><a xlink:title=" ">
<path fill="none" stroke="#63b8ff" d="M1097.89,-195.33C1128.07,-183.88 1168.13,-168.69 1196.83,-157.81"/>
<polygon fill="#63b8ff" stroke="#63b8ff" points="1197.7,-161.22 1205.81,-154.41 1195.22,-154.68 1197.7,-161.22"/>
</a>
</g>
</g>
<!-- Node39 -->
<g id="Node000039" class="node">
<title>Node39</title>
<g id="a_Node000039"><a xlink:title=" ">
<polygon fill="#e0e0e0" stroke="#999999" points="1463.88,-153.38 1310.62,-153.38 1310.62,-132.62 1463.88,-132.62 1463.88,-153.38"/>
<text text-anchor="middle" x="1387.25" y="-139.88" font-family="Helvetica,sans-Serif" font-size="10.00">mlir/Support/LogicalResult.h</text>
</a>
</g>
</g>
<!-- Node12&#45;&gt;Node39 -->
<g id="edge49_Node000012_Node000039" class="edge">
<title>Node12&#45;&gt;Node39</title>
<g id="a_edge49_Node000012_Node000039"><a xlink:title=" ">
<path fill="none" stroke="#63b8ff" d="M1109.31,-197.57C1111.99,-196.94 1114.65,-196.33 1117.25,-195.75 1137.14,-191.32 1250.59,-169.78 1323.96,-155.92"/>
<polygon fill="#63b8ff" stroke="#63b8ff" points="1324.26,-159.43 1333.44,-154.14 1322.97,-152.55 1324.26,-159.43"/>
</a>
</g>
</g>
<!-- Node40 -->
<g id="Node000040" class="node">
<title>Node40</title>
<g id="a_Node000040"><a xlink:title=" ">
<polygon fill="#e0e0e0" stroke="#999999" points="1610.88,-153.38 1481.62,-153.38 1481.62,-132.62 1610.88,-132.62 1610.88,-153.38"/>
<text text-anchor="middle" x="1546.25" y="-139.88" font-family="Helvetica,sans-Serif" font-size="10.00">llvm/ADT/SmallString.h</text>
</a>
</g>
</g>
<!-- Node12&#45;&gt;Node40 -->
<g id="edge50_Node000012_Node000040" class="edge">
<title>Node12&#45;&gt;Node40</title>
<g id="a_edge50_Node000012_Node000040"><a xlink:title=" ">
<path fill="none" stroke="#63b8ff" d="M1109.25,-197.28C1111.95,-196.73 1114.63,-196.21 1117.25,-195.75 1273.86,-168.1 1316.17,-184.56 1473.25,-159.75 1479.81,-158.71 1486.67,-157.46 1493.45,-156.12"/>
<polygon fill="#63b8ff" stroke="#63b8ff" points="1494.14,-159.55 1503.23,-154.11 1492.73,-152.7 1494.14,-159.55"/>
</a>
</g>
</g>
<!-- Node13&#45;&gt;Node7 -->
<g id="edge18_Node000013_Node000007" class="edge">
<title>Node13&#45;&gt;Node7</title>
<g id="a_edge18_Node000013_Node000007"><a xlink:title=" ">
<path fill="none" stroke="#63b8ff" d="M692.67,-128.08C689.49,-127.43 686.33,-126.81 683.25,-126.25 553.73,-102.71 518.44,-115.56 389.25,-90.25 384.64,-89.35 379.86,-88.27 375.11,-87.12"/>
<polygon fill="#63b8ff" stroke="#63b8ff" points="376.2,-83.79 365.65,-84.7 374.47,-90.57 376.2,-83.79"/>
</a>
</g>
</g>
<!-- Node14 -->
<g id="Node000014" class="node">
<title>Node14</title>
<g id="a_Node000014"><a xlink:href="StreamHelper_8h.html" target="_top" xlink:title=" ">
<polygon fill="white" stroke="#666666" points="530.38,-83.88 398.12,-83.88 398.12,-63.12 530.38,-63.12 530.38,-83.88"/>
<text text-anchor="middle" x="464.25" y="-70.38" font-family="Helvetica,sans-Serif" font-size="10.00">llzk/Util/StreamHelper.h</text>
</a>
</g>
</g>
<!-- Node13&#45;&gt;Node14 -->
<g id="edge15_Node000013_Node000014" class="edge">
<title>Node13&#45;&gt;Node14</title>
<g id="a_edge15_Node000013_Node000014"><a xlink:title=" ">
<path fill="none" stroke="#63b8ff" d="M692.59,-128.49C689.43,-127.73 686.3,-126.98 683.25,-126.25 626.63,-112.7 561.71,-97.39 517.35,-86.96"/>
<polygon fill="#63b8ff" stroke="#63b8ff" points="518.26,-83.58 507.72,-84.7 516.66,-90.39 518.26,-83.58"/>
</a>
</g>
</g>
<!-- Node13&#45;&gt;Node16 -->
<g id="edge17_Node000013_Node000016" class="edge">
<title>Node13&#45;&gt;Node16</title>
<g id="a_edge17_Node000013_Node000016"><a xlink:title=" ">
<path fill="none" stroke="#63b8ff" d="M721.18,-125.83C703.06,-115.01 679.34,-100.84 661.41,-90.13"/>
<polygon fill="#63b8ff" stroke="#63b8ff" points="663.29,-87.17 652.91,-85.05 659.7,-93.18 663.29,-87.17"/>
</a>
</g>
</g>
<!-- Node15 -->
<g id="Node000015" class="node">
<title>Node15</title>
<g id="a_Node000015"><a xlink:title=" ">
<polygon fill="#e0e0e0" stroke="#999999" points="541.25,-20.75 387.25,-20.75 387.25,0 541.25,0 541.25,-20.75"/>
<text text-anchor="middle" x="464.25" y="-7.25" font-family="Helvetica,sans-Serif" font-size="10.00">llvm/Support/raw_ostream.h</text>
</a>
</g>
</g>
<!-- Node14&#45;&gt;Node15 -->
<g id="edge16_Node000014_Node000015" class="edge">
<title>Node14&#45;&gt;Node15</title>
<g id="a_edge16_Node000014_Node000015"><a xlink:title=" ">
<path fill="none" stroke="#63b8ff" d="M464.25,-62.68C464.25,-54.52 464.25,-42.63 464.25,-32.35"/>
<polygon fill="#63b8ff" stroke="#63b8ff" points="467.75,-32.48 464.25,-22.48 460.75,-32.48 467.75,-32.48"/>
</a>
</g>
</g>
<!-- Node18 -->
<g id="Node000018" class="node">
<title>Node18</title>
<g id="a_Node000018"><a xlink:href="Compare_8h.html" target="_top" xlink:title=" ">
<polygon fill="white" stroke="#666666" points="1115.12,-83.88 1005.38,-83.88 1005.38,-63.12 1115.12,-63.12 1115.12,-83.88"/>
<text text-anchor="middle" x="1060.25" y="-70.38" font-family="Helvetica,sans-Serif" font-size="10.00">llzk/Util/Compare.h</text>
</a>
</g>
</g>
<!-- Node17&#45;&gt;Node18 -->
<g id="edge20_Node000017_Node000018" class="edge">
<title>Node17&#45;&gt;Node18</title>
<g id="a_edge20_Node000017_Node000018"><a xlink:title=" ">
<path fill="none" stroke="#63b8ff" d="M942.32,-132.18C965.31,-120.94 1003.25,-102.38 1029.87,-89.36"/>
<polygon fill="#63b8ff" stroke="#63b8ff" points="1031.35,-92.53 1038.8,-84.99 1028.28,-86.24 1031.35,-92.53"/>
</a>
</g>
</g>
<!-- Node17&#45;&gt;Node19 -->
<g id="edge26_Node000017_Node000019" class="edge">
<title>Node17&#45;&gt;Node19</title>
<g id="a_edge26_Node000017_Node000019"><a xlink:title=" ">
<path fill="none" stroke="#63b8ff" d="M967.76,-132.18C978.09,-130.1 989.03,-128 999.25,-126.25 1114.67,-106.51 1159.88,-150.56 1260.25,-90.25 1283.04,-76.56 1299.35,-49.9 1308.53,-31.39"/>
<polygon fill="#63b8ff" stroke="#63b8ff" points="1311.63,-33.02 1312.68,-22.47 1305.29,-30.06 1311.63,-33.02"/>
</a>
</g>
</g>
<!-- Node17&#45;&gt;Node22 -->
<g id="edge24_Node000017_Node000022" class="edge">
<title>Node17&#45;&gt;Node22</title>
<g id="a_edge24_Node000017_Node000022"><a xlink:title=" ">
<path fill="none" stroke="#63b8ff" d="M902.91,-132.18C880.85,-120.99 844.51,-102.55 818.87,-89.53"/>
<polygon fill="#63b8ff" stroke="#63b8ff" points="820.46,-86.42 809.96,-85.01 817.3,-92.66 820.46,-86.42"/>
</a>
</g>
</g>
<!-- Node17&#45;&gt;Node23 -->
<g id="edge25_Node000017_Node000023" class="edge">
<title>Node17&#45;&gt;Node23</title>
<g id="a_edge25_Node000017_Node000023"><a xlink:title=" ">
<path fill="none" stroke="#63b8ff" d="M985.35,-132.85C1000.69,-130.66 1017.06,-128.35 1032.25,-126.25 1136.24,-111.91 1255.93,-96.13 1335,-85.82"/>
<polygon fill="#63b8ff" stroke="#63b8ff" points="1335.4,-89.29 1344.86,-84.53 1334.49,-82.35 1335.4,-89.29"/>
</a>
</g>
</g>
<!-- Node24 -->
<g id="Node000024" class="node">
<title>Node24</title>
<g id="a_Node000024"><a xlink:title=" ">
<polygon fill="#e0e0e0" stroke="#999999" points="1251.25,-83.88 1133.25,-83.88 1133.25,-63.12 1251.25,-63.12 1251.25,-83.88"/>
<text text-anchor="middle" x="1192.25" y="-70.38" font-family="Helvetica,sans-Serif" font-size="10.00">mlir/IR/ValueRange.h</text>
</a>
</g>
</g>
<!-- Node17&#45;&gt;Node24 -->
<g id="edge27_Node000017_Node000024" class="edge">
<title>Node17&#45;&gt;Node24</title>
<g id="a_edge27_Node000017_Node000024"><a xlink:title=" ">
<path fill="none" stroke="#63b8ff" d="M961.51,-132.18C1009.2,-120.26 1089.73,-100.13 1141.93,-87.08"/>
<polygon fill="#63b8ff" stroke="#63b8ff" points="1142.62,-90.51 1151.47,-84.69 1140.92,-83.72 1142.62,-90.51"/>
</a>
</g>
</g>
<!-- Node25 -->
<g id="Node000025" class="node">
<title>Node25</title>
<g id="a_Node000025"><a xlink:title=" ">
<polygon fill="#e0e0e0" stroke="#999999" points="987.62,-83.88 856.88,-83.88 856.88,-63.12 987.62,-63.12 987.62,-83.88"/>
<text text-anchor="middle" x="922.25" y="-70.38" font-family="Helvetica,sans-Serif" font-size="10.00">llvm/ADT/SmallVector.h</text>
</a>
</g>
</g>
<!-- Node17&#45;&gt;Node25 -->
<g id="edge28_Node000017_Node000025" class="edge">
<title>Node17&#45;&gt;Node25</title>
<g id="a_edge28_Node000017_Node000025"><a xlink:title=" ">
<path fill="none" stroke="#63b8ff" d="M922.25,-132.33C922.25,-122.71 922.25,-107.63 922.25,-95.29"/>
<polygon fill="#63b8ff" stroke="#63b8ff" points="925.75,-95.67 922.25,-85.67 918.75,-95.67 925.75,-95.67"/>
</a>
</g>
</g>
<!-- Node18&#45;&gt;Node19 -->
<g id="edge21_Node000018_Node000019" class="edge">
<title>Node18&#45;&gt;Node19</title>
<g id="a_edge21_Node000018_Node000019"><a xlink:title=" ">
<path fill="none" stroke="#63b8ff" d="M1099.84,-62.69C1107.91,-60.71 1116.35,-58.65 1124.25,-56.75 1171.46,-45.39 1225.25,-32.77 1264.03,-23.73"/>
<polygon fill="#63b8ff" stroke="#63b8ff" points="1264.63,-27.18 1273.58,-21.51 1263.05,-20.37 1264.63,-27.18"/>
</a>
</g>
</g>
<!-- Node20 -->
<g id="Node000020" class="node">
<title>Node20</title>
<g id="a_Node000020"><a xlink:title=" ">
<polygon fill="#e0e0e0" stroke="#999999" points="1055,-20.75 995.5,-20.75 995.5,0 1055,0 1055,-20.75"/>
<text text-anchor="middle" x="1025.25" y="-7.25" font-family="Helvetica,sans-Serif" font-size="10.00">concepts</text>
</a>
</g>
</g>
<!-- Node18&#45;&gt;Node20 -->
<g id="edge22_Node000018_Node000020" class="edge">
<title>Node18&#45;&gt;Node20</title>
<g id="a_edge22_Node000018_Node000020"><a xlink:title=" ">
<path fill="none" stroke="#63b8ff" d="M1054.63,-62.68C1049.7,-54.07 1042.39,-41.31 1036.3,-30.67"/>
<polygon fill="#63b8ff" stroke="#63b8ff" points="1039.5,-29.22 1031.5,-22.28 1033.43,-32.7 1039.5,-29.22"/>
</a>
</g>
</g>
<!-- Node21 -->
<g id="Node000021" class="node">
<title>Node21</title>
<g id="a_Node000021"><a xlink:title=" ">
<polygon fill="#e0e0e0" stroke="#999999" points="1117.5,-20.75 1073,-20.75 1073,0 1117.5,0 1117.5,-20.75"/>
<text text-anchor="middle" x="1095.25" y="-7.25" font-family="Helvetica,sans-Serif" font-size="10.00">utility</text>
</a>
</g>
</g>
<!-- Node18&#45;&gt;Node21 -->
<g id="edge23_Node000018_Node000021" class="edge">
<title>Node18&#45;&gt;Node21</title>
<g id="a_edge23_Node000018_Node000021"><a xlink:title=" ">
<path fill="none" stroke="#63b8ff" d="M1065.87,-62.68C1070.8,-54.07 1078.11,-41.31 1084.2,-30.67"/>
<polygon fill="#63b8ff" stroke="#63b8ff" points="1087.07,-32.7 1089,-22.28 1081,-29.22 1087.07,-32.7"/>
</a>
</g>
</g>
<!-- Node27&#45;&gt;Node19 -->
<g id="edge32_Node000027_Node000019" class="edge">
<title>Node27&#45;&gt;Node19</title>
<g id="a_edge32_Node000027_Node000019"><a xlink:title=" ">
<path fill="none" stroke="#63b8ff" d="M2128.95,-62.7C2118.71,-60.4 2107.61,-58.21 2097.25,-56.75 1834.25,-19.77 1517.29,-12.81 1382.74,-11.59"/>
<polygon fill="#63b8ff" stroke="#63b8ff" points="1382.99,-8.09 1372.96,-11.51 1382.94,-15.09 1382.99,-8.09"/>
</a>
</g>
</g>
<!-- Node28 -->
<g id="Node000028" class="node">
<title>Node28</title>
<g id="a_Node000028"><a xlink:title=" ">
<polygon fill="#e0e0e0" stroke="#999999" points="2063.88,-20.75 1946.62,-20.75 1946.62,0 2063.88,0 2063.88,-20.75"/>
<text text-anchor="middle" x="2005.25" y="-7.25" font-family="Helvetica,sans-Serif" font-size="10.00">mlir/IR/Diagnostics.h</text>
</a>
</g>
</g>
<!-- Node27&#45;&gt;Node28 -->
<g id="edge31_Node000027_Node000028" class="edge">
<title>Node27&#45;&gt;Node28</title>
<g id="a_edge31_Node000027_Node000028"><a xlink:title=" ">
<path fill="none" stroke="#63b8ff" d="M2141.22,-62.68C2114.3,-52.52 2072.03,-36.57 2041.77,-25.15"/>
<polygon fill="#63b8ff" stroke="#63b8ff" points="2043.22,-21.96 2032.63,-21.71 2040.75,-28.51 2043.22,-21.96"/>
</a>
</g>
</g>
<!-- Node29 -->
<g id="Node000029" class="node">
<title>Node29</title>
<g id="a_Node000029"><a xlink:title=" ">
<polygon fill="#e0e0e0" stroke="#999999" points="2252.88,-20.75 2081.62,-20.75 2081.62,0 2252.88,0 2252.88,-20.75"/>
<text text-anchor="middle" x="2167.25" y="-7.25" font-family="Helvetica,sans-Serif" font-size="10.00">llvm/ADT/STLFunctionalExtras.h</text>
</a>
</g>
</g>
<!-- Node27&#45;&gt;Node29 -->
<g id="edge33_Node000027_Node000029" class="edge">
<title>Node27&#45;&gt;Node29</title>
<g id="a_edge33_Node000027_Node000029"><a xlink:title=" ">
<path fill="none" stroke="#63b8ff" d="M2167.25,-62.68C2167.25,-54.52 2167.25,-42.63 2167.25,-32.35"/>
<polygon fill="#63b8ff" stroke="#63b8ff" points="2170.75,-32.48 2167.25,-22.48 2163.75,-32.48 2170.75,-32.48"/>
</a>
</g>
</g>
<!-- Node30 -->
<g id="Node000030" class="node">
<title>Node30</title>
<g id="a_Node000030"><a xlink:title=" ">
<polygon fill="#e0e0e0" stroke="#999999" points="2371.62,-20.75 2270.88,-20.75 2270.88,0 2371.62,0 2371.62,-20.75"/>
<text text-anchor="middle" x="2321.25" y="-7.25" font-family="Helvetica,sans-Serif" font-size="10.00">llvm/ADT/Twine.h</text>
</a>
</g>
</g>
<!-- Node27&#45;&gt;Node30 -->
<g id="edge34_Node000027_Node000030" class="edge">
<title>Node27&#45;&gt;Node30</title>
<g id="a_edge34_Node000027_Node000030"><a xlink:title=" ">
<path fill="none" stroke="#63b8ff" d="M2191.99,-62.68C2217.48,-52.56 2257.42,-36.71 2286.16,-25.3"/>
<polygon fill="#63b8ff" stroke="#63b8ff" points="2287.16,-28.67 2295.16,-21.73 2284.58,-22.17 2287.16,-28.67"/>
</a>
</g>
</g>
<!-- Node31 -->
<g id="Node000031" class="node">
<title>Node31</title>
<g id="a_Node000031"><a xlink:title=" ">
<polygon fill="#e0e0e0" stroke="#999999" points="2546.75,-20.75 2389.75,-20.75 2389.75,0 2546.75,0 2546.75,-20.75"/>
<text text-anchor="middle" x="2468.25" y="-7.25" font-family="Helvetica,sans-Serif" font-size="10.00">llvm/Support/ErrorHandling.h</text>
</a>
</g>
</g>
<!-- Node27&#45;&gt;Node31 -->
<g id="edge35_Node000027_Node000031" class="edge">
<title>Node27&#45;&gt;Node31</title>
<g id="a_edge35_Node000027_Node000031"><a xlink:title=" ">
<path fill="none" stroke="#63b8ff" d="M2215.61,-62.68C2268.16,-52.01 2352.17,-34.95 2408.73,-23.46"/>
<polygon fill="#63b8ff" stroke="#63b8ff" points="2409.42,-26.89 2418.53,-21.47 2408.03,-20.03 2409.42,-26.89"/>
</a>
</g>
</g>
<!-- Node32 -->
<g id="Node000032" class="node">
<title>Node32</title>
<g id="a_Node000032"><a xlink:title=" ">
<polygon fill="#e0e0e0" stroke="#999999" points="1928.5,-20.75 1878,-20.75 1878,0 1928.5,0 1928.5,-20.75"/>
<text text-anchor="middle" x="1903.25" y="-7.25" font-family="Helvetica,sans-Serif" font-size="10.00">variant</text>
</a>
</g>
</g>
<!-- Node27&#45;&gt;Node32 -->
<g id="edge36_Node000027_Node000032" class="edge">
<title>Node27&#45;&gt;Node32</title>
<g id="a_edge36_Node000027_Node000032"><a xlink:title=" ">
<path fill="none" stroke="#63b8ff" d="M2123.58,-62.68C2067.17,-49.99 1972.92,-28.79 1940.04,-21.21"/>
<polygon fill="#63b8ff" stroke="#63b8ff" points="1940.84,-17.8 1930.31,-18.92 1939.24,-24.62 1940.84,-17.8"/>
</a>
</g>
</g>
<!-- Node33&#45;&gt;Node19 -->
<g id="edge40_Node000033_Node000019" class="edge">
<title>Node33&#45;&gt;Node19</title>
<g id="a_edge40_Node000033_Node000019"><a xlink:title=" ">
<path fill="none" stroke="#63b8ff" d="M1804.24,-132.28C1805.48,-114.31 1805.22,-75.97 1783.25,-56.75 1753.76,-30.96 1504.42,-18.28 1383.07,-13.59"/>
<polygon fill="#63b8ff" stroke="#63b8ff" points="1383.38,-10.1 1373.25,-13.22 1383.12,-17.09 1383.38,-10.1"/>
</a>
</g>
</g>
<!-- Node33&#45;&gt;Node23 -->
<g id="edge39_Node000033_Node000023" class="edge">
<title>Node33&#45;&gt;Node23</title>
<g id="a_edge39_Node000033_Node000023"><a xlink:title=" ">
<path fill="none" stroke="#63b8ff" d="M1745.92,-132.15C1686.27,-121.87 1590.17,-105.18 1507.25,-90.25 1500.37,-89.01 1493.18,-87.7 1486.01,-86.39"/>
<polygon fill="#63b8ff" stroke="#63b8ff" points="1486.79,-82.97 1476.32,-84.6 1485.52,-89.86 1486.79,-82.97"/>
</a>
</g>
</g>
<!-- Node33&#45;&gt;Node27 -->
<g id="edge38_Node000033_Node000027" class="edge">
<title>Node33&#45;&gt;Node27</title>
<g id="a_edge38_Node000033_Node000027"><a xlink:title=" ">
<path fill="none" stroke="#63b8ff" d="M1863.37,-132.27C1922.9,-122.43 2016.58,-106.42 2097.25,-90.25 2102.76,-89.15 2108.5,-87.94 2114.22,-86.71"/>
<polygon fill="#63b8ff" stroke="#63b8ff" points="2114.62,-90.2 2123.64,-84.64 2113.12,-83.36 2114.62,-90.2"/>
</a>
</g>
</g>
<!-- Node33&#45;&gt;Node34 -->
<g id="edge41_Node000033_Node000034" class="edge">
<title>Node33&#45;&gt;Node34</title>
<g id="a_edge41_Node000033_Node000034"><a xlink:title=" ">
<path fill="none" stroke="#63b8ff" d="M1770.39,-132.18C1730.97,-120.41 1664.75,-100.63 1621.03,-87.57"/>
<polygon fill="#63b8ff" stroke="#63b8ff" points="1622.19,-84.27 1611.6,-84.76 1620.18,-90.98 1622.19,-84.27"/>
</a>
</g>
</g>
<!-- Node35 -->
<g id="Node000035" class="node">
<title>Node35</title>
<g id="a_Node000035"><a xlink:title=" ">
<polygon fill="#e0e0e0" stroke="#999999" points="1945.75,-83.88 1830.75,-83.88 1830.75,-63.12 1945.75,-63.12 1945.75,-83.88"/>
<text text-anchor="middle" x="1888.25" y="-70.38" font-family="Helvetica,sans-Serif" font-size="10.00">llvm/ADT/ArrayRef.h</text>
</a>
</g>
</g>
<!-- Node33&#45;&gt;Node35 -->
<g id="edge42_Node000033_Node000035" class="edge">
<title>Node33&#45;&gt;Node35</title>
<g id="a_edge42_Node000033_Node000035"><a xlink:title=" ">
<path fill="none" stroke="#63b8ff" d="M1815.43,-132.33C1828.86,-121.66 1850.72,-104.3 1866.99,-91.38"/>
<polygon fill="#63b8ff" stroke="#63b8ff" points="1868.98,-94.27 1874.63,-85.31 1864.62,-88.79 1868.98,-94.27"/>
</a>
</g>
</g>
<!-- Node36 -->
<g id="Node000036" class="node">
<title>Node36</title>
<g id="a_Node000036"><a xlink:title=" ">
<polygon fill="#e0e0e0" stroke="#999999" points="2088.62,-83.88 1963.88,-83.88 1963.88,-63.12 2088.62,-63.12 2088.62,-83.88"/>
<text text-anchor="middle" x="2026.25" y="-70.38" font-family="Helvetica,sans-Serif" font-size="10.00">llvm/ADT/DenseMap.h</text>
</a>
</g>
</g>
<!-- Node33&#45;&gt;Node36 -->
<g id="edge43_Node000033_Node000036" class="edge">
<title>Node33&#45;&gt;Node36</title>
<g id="a_edge43_Node000033_Node000036"><a xlink:title=" ">
<path fill="none" stroke="#63b8ff" d="M1835.68,-132.18C1874.49,-120.44 1939.63,-100.72 1982.78,-87.66"/>
<polygon fill="#63b8ff" stroke="#63b8ff" points="1983.78,-91.01 1992.34,-84.77 1981.75,-84.31 1983.78,-91.01"/>
</a>
</g>
</g>
<!-- Node33&#45;&gt;Node37 -->
<g id="edge44_Node000033_Node000037" class="edge">
<title>Node33&#45;&gt;Node37</title>
<g id="a_edge44_Node000033_Node000037"><a xlink:title=" ">
<path fill="none" stroke="#63b8ff" d="M1790.64,-132.33C1776.61,-121.56 1753.68,-103.98 1736.79,-91.02"/>
<polygon fill="#63b8ff" stroke="#63b8ff" points="1739.39,-88.6 1729.32,-85.29 1735.13,-94.16 1739.39,-88.6"/>
</a>
</g>
</g>
</g>
</svg>
