<?xml version="1.0" encoding="UTF-8" standalone="no"?>
<!DOCTYPE svg PUBLIC "-//W3C//DTD SVG 1.1//EN"
 "http://www.w3.org/Graphics/SVG/1.1/DTD/svg11.dtd">
<!-- Generated by graphviz version 12.2.1 (0)
 -->
<!-- Title: build/include/llzk/Dialect/Polymorphic/IR/Ops.capi.h.inc Pages: 1 -->
<svg width="142pt" height="181pt"
 viewBox="0.00 0.00 141.75 180.50" xmlns="http://www.w3.org/2000/svg" xmlns:xlink="http://www.w3.org/1999/xlink">
<g id="graph0" class="graph" transform="scale(1 1) rotate(0) translate(4 176.5)">
<title>build/include/llzk/Dialect/Polymorphic/IR/Ops.capi.h.inc</title>
<!-- Node1 -->
<g id="Node000001" class="node">
<title>Node1</title>
<g id="a_Node000001"><a xlink:title=" ">
<polygon fill="#999999" stroke="#666666" points="125.5,-172.5 8.25,-172.5 8.25,-126.25 125.5,-126.25 125.5,-172.5"/>
<text text-anchor="start" x="16.25" y="-159" font-family="Helvetica,sans-Serif" font-size="10.00">build/include/llzk</text>
<text text-anchor="start" x="16.25" y="-146.25" font-family="Helvetica,sans-Serif" font-size="10.00">/Dialect/Polymorphic</text>
<text text-anchor="middle" x="66.88" y="-133.5" font-family="Helvetica,sans-Serif" font-size="10.00">/IR/Ops.capi.h.inc</text>
</a>
</g>
</g>
<!-- Node2 -->
<g id="Node000002" class="node">
<title>Node2</title>
<g id="a_Node000002"><a xlink:href="Poly_8h.html" target="_top" xlink:title=" ">
<polygon fill="white" stroke="#666666" points="125.88,-90.25 7.88,-90.25 7.88,-56.75 125.88,-56.75 125.88,-90.25"/>
<text text-anchor="start" x="15.88" y="-76.75" font-family="Helvetica,sans-Serif" font-size="10.00">include/llzk&#45;c/Dialect</text>
<text text-anchor="middle" x="66.88" y="-64" font-family="Helvetica,sans-Serif" font-size="10.00">/Poly.h</text>
</a>
</g>
</g>
<!-- Node1&#45;&gt;Node2 -->
<g id="edge1_Node000001_Node000002" class="edge">
<title>Node1&#45;&gt;Node2</title>
<g id="a_edge1_Node000001_Node000002"><a xlink:title=" ">
<path fill="none" stroke="#63b8ff" d="M66.88,-114.39C66.88,-106.1 66.88,-97.61 66.88,-90.6"/>
<polygon fill="#63b8ff" stroke="#63b8ff" points="63.38,-114.3 66.88,-124.3 70.38,-114.3 63.38,-114.3"/>
</a>
</g>
</g>
<!-- Node3 -->
<g id="Node000003" class="node">
<title>Node3</title>
<g id="a_Node000003"><a xlink:href="Poly_8cpp.html" target="_top" xlink:title=" ">
<polygon fill="white" stroke="#666666" points="133.75,-20.75 0,-20.75 0,0 133.75,0 133.75,-20.75"/>
<text text-anchor="middle" x="66.88" y="-7.25" font-family="Helvetica,sans-Serif" font-size="10.00">lib/CAPI/Dialect/Poly.cpp</text>
</a>
</g>
</g>
<!-- Node2&#45;&gt;Node3 -->
<g id="edge2_Node000002_Node000003" class="edge">
<title>Node2&#45;&gt;Node3</title>
<g id="a_edge2_Node000002_Node000003"><a xlink:title=" ">
<path fill="none" stroke="#63b8ff" d="M66.88,-44.94C66.88,-36.46 66.88,-27.67 66.88,-21.22"/>
<polygon fill="#63b8ff" stroke="#63b8ff" points="63.38,-44.93 66.88,-54.93 70.38,-44.93 63.38,-44.93"/>
</a>
</g>
</g>
</g>
</svg>
