<?xml version="1.0" encoding="UTF-8" standalone="no"?>
<!DOCTYPE svg PUBLIC "-//W3C//DTD SVG 1.1//EN"
 "http://www.w3.org/Graphics/SVG/1.1/DTD/svg11.dtd">
<!-- Generated by graphviz version 12.2.1 (0)
 -->
<!-- Title: build/include/llzk/Dialect/Polymorphic/Transforms/TransformationPasses.h.inc Pages: 1 -->
<svg width="965pt" height="219pt"
 viewBox="0.00 0.00 965.00 218.75" xmlns="http://www.w3.org/2000/svg" xmlns:xlink="http://www.w3.org/1999/xlink">
<g id="graph0" class="graph" transform="scale(1 1) rotate(0) translate(4 214.75)">
<title>build/include/llzk/Dialect/Polymorphic/Transforms/TransformationPasses.h.inc</title>
<!-- Node1 -->
<g id="Node000001" class="node">
<title>Node1</title>
<g id="a_Node000001"><a xlink:title=" ">
<polygon fill="#999999" stroke="#666666" points="402.38,-210.75 193.62,-210.75 193.62,-164.5 402.38,-164.5 402.38,-210.75"/>
<text text-anchor="start" x="201.62" y="-197.25" font-family="Helvetica,sans-Serif" font-size="10.00">build/include/llzk</text>
<text text-anchor="start" x="201.62" y="-184.5" font-family="Helvetica,sans-Serif" font-size="10.00">/Dialect/Polymorphic</text>
<text text-anchor="middle" x="298" y="-171.75" font-family="Helvetica,sans-Serif" font-size="10.00">/Transforms/TransformationPasses.h.inc</text>
</a>
</g>
</g>
<!-- Node2 -->
<g id="Node000002" class="node">
<title>Node2</title>
<g id="a_Node000002"><a xlink:href="Polymorphic_2Transforms_2TransformationPasses_8h.html" target="_top" xlink:title=" ">
<polygon fill="white" stroke="#666666" points="535.38,-128.5 398.62,-128.5 398.62,-82.25 535.38,-82.25 535.38,-128.5"/>
<text text-anchor="start" x="406.62" y="-115" font-family="Helvetica,sans-Serif" font-size="10.00">include/llzk/Dialect</text>
<text text-anchor="start" x="406.62" y="-102.25" font-family="Helvetica,sans-Serif" font-size="10.00">/Polymorphic/Transforms</text>
<text text-anchor="middle" x="467" y="-89.5" font-family="Helvetica,sans-Serif" font-size="10.00">/TransformationPasses.h</text>
</a>
</g>
</g>
<!-- Node1&#45;&gt;Node2 -->
<g id="edge1_Node000001_Node000002" class="edge">
<title>Node1&#45;&gt;Node2</title>
<g id="a_edge1_Node000001_Node000002"><a xlink:title=" ">
<path fill="none" stroke="#63b8ff" d="M355.82,-159.17C376.59,-149.31 399.75,-138.31 419.54,-128.91"/>
<polygon fill="#63b8ff" stroke="#63b8ff" points="354.42,-155.96 346.89,-163.41 357.43,-162.28 354.42,-155.96"/>
</a>
</g>
</g>
<!-- Node4 -->
<g id="Node000004" class="node">
<title>Node4</title>
<g id="a_Node000004"><a xlink:href="EmptyTemplateRemovalPass_8cpp.html" target="_top" xlink:title="This file implements the &#45;llzk&#45;drop&#45;empty&#45;templates pass.">
<polygon fill="white" stroke="#666666" points="196,-46.25 0,-46.25 0,0 196,0 196,-46.25"/>
<text text-anchor="start" x="8" y="-32.75" font-family="Helvetica,sans-Serif" font-size="10.00">lib/Dialect/Polymorphic</text>
<text text-anchor="start" x="8" y="-20" font-family="Helvetica,sans-Serif" font-size="10.00">/Transforms/EmptyTemplateRemoval</text>
<text text-anchor="middle" x="98" y="-7.25" font-family="Helvetica,sans-Serif" font-size="10.00">Pass.cpp</text>
</a>
</g>
</g>
<!-- Node1&#45;&gt;Node4 -->
<g id="edge8_Node000001_Node000004" class="edge">
<title>Node1&#45;&gt;Node4</title>
<g id="a_edge8_Node000001_Node000004"><a xlink:title=" ">
<path fill="none" stroke="#63b8ff" d="M261.71,-157.14C222.52,-125.3 160.98,-75.3 125.57,-46.53"/>
<polygon fill="#63b8ff" stroke="#63b8ff" points="259.05,-159.49 269.02,-163.08 263.46,-154.05 259.05,-159.49"/>
</a>
</g>
</g>
<!-- Node5 -->
<g id="Node000005" class="node">
<title>Node5</title>
<g id="a_Node000005"><a xlink:href="FlatteningPass_8cpp.html" target="_top" xlink:title="This file implements the &#45;llzk&#45;flatten pass.">
<polygon fill="white" stroke="#666666" points="381.75,-39.88 214.25,-39.88 214.25,-6.38 381.75,-6.38 381.75,-39.88"/>
<text text-anchor="start" x="222.25" y="-26.38" font-family="Helvetica,sans-Serif" font-size="10.00">lib/Dialect/Polymorphic</text>
<text text-anchor="middle" x="298" y="-13.62" font-family="Helvetica,sans-Serif" font-size="10.00">/Transforms/FlatteningPass.cpp</text>
</a>
</g>
</g>
<!-- Node1&#45;&gt;Node5 -->
<g id="edge9_Node000001_Node000005" class="edge">
<title>Node1&#45;&gt;Node5</title>
<g id="a_edge9_Node000001_Node000005"><a xlink:title=" ">
<path fill="none" stroke="#63b8ff" d="M298,-152.62C298,-118.11 298,-66.17 298,-40.16"/>
<polygon fill="#63b8ff" stroke="#63b8ff" points="294.5,-152.52 298,-162.52 301.5,-152.52 294.5,-152.52"/>
</a>
</g>
</g>
<!-- Node3 -->
<g id="Node000003" class="node">
<title>Node3</title>
<g id="a_Node000003"><a xlink:href="Poly_8cpp.html" target="_top" xlink:title=" ">
<polygon fill="white" stroke="#666666" points="838.88,-33.5 705.12,-33.5 705.12,-12.75 838.88,-12.75 838.88,-33.5"/>
<text text-anchor="middle" x="772" y="-20" font-family="Helvetica,sans-Serif" font-size="10.00">lib/CAPI/Dialect/Poly.cpp</text>
</a>
</g>
</g>
<!-- Node2&#45;&gt;Node3 -->
<g id="edge2_Node000002_Node000003" class="edge">
<title>Node2&#45;&gt;Node3</title>
<g id="a_edge2_Node000002_Node000003"><a xlink:title=" ">
<path fill="none" stroke="#63b8ff" d="M546.75,-84.85C590.85,-73.88 646.56,-59.72 696,-46.25 710.19,-42.39 725.79,-37.89 739.15,-33.96"/>
<polygon fill="#63b8ff" stroke="#63b8ff" points="546.13,-81.4 537.27,-87.21 547.82,-88.19 546.13,-81.4"/>
</a>
</g>
</g>
<!-- Node2&#45;&gt;Node4 -->
<g id="edge3_Node000002_Node000004" class="edge">
<title>Node2&#45;&gt;Node4</title>
<g id="a_edge3_Node000002_Node000004"><a xlink:title=" ">
<path fill="none" stroke="#63b8ff" d="M387.53,-87.09C331.55,-74.92 256.23,-58.54 196.44,-45.53"/>
<polygon fill="#63b8ff" stroke="#63b8ff" points="386.46,-90.44 396.98,-89.15 387.95,-83.6 386.46,-90.44"/>
</a>
</g>
</g>
<!-- Node2&#45;&gt;Node5 -->
<g id="edge4_Node000002_Node000005" class="edge">
<title>Node2&#45;&gt;Node5</title>
<g id="a_edge4_Node000002_Node000005"><a xlink:title=" ">
<path fill="none" stroke="#63b8ff" d="M409.1,-76.88C383.44,-64.69 354.12,-50.77 332.05,-40.3"/>
<polygon fill="#63b8ff" stroke="#63b8ff" points="407.57,-80.03 418.11,-81.16 410.58,-73.71 407.57,-80.03"/>
</a>
</g>
</g>
<!-- Node6 -->
<g id="Node000006" class="node">
<title>Node6</title>
<g id="a_Node000006"><a xlink:href="llzk-opt_8cpp.html" target="_top" xlink:title="This file implements a version of the mlir&#45;opt tool configured for use on LLZK files.">
<polygon fill="white" stroke="#666666" points="957,-39.88 857,-39.88 857,-6.38 957,-6.38 957,-39.88"/>
<text text-anchor="start" x="865" y="-26.38" font-family="Helvetica,sans-Serif" font-size="10.00">tools/llzk&#45;opt/llzk</text>
<text text-anchor="middle" x="907" y="-13.62" font-family="Helvetica,sans-Serif" font-size="10.00">&#45;opt.cpp</text>
</a>
</g>
</g>
<!-- Node2&#45;&gt;Node6 -->
<g id="edge5_Node000002_Node000006" class="edge">
<title>Node2&#45;&gt;Node6</title>
<g id="a_edge5_Node000002_Node000006"><a xlink:title=" ">
<path fill="none" stroke="#63b8ff" d="M546.81,-97.07C624.58,-88.81 745.71,-72.92 848,-46.25 854.25,-44.62 860.75,-42.57 867.05,-40.37"/>
<polygon fill="#63b8ff" stroke="#63b8ff" points="546.74,-93.55 537.16,-98.07 547.47,-100.52 546.74,-93.55"/>
</a>
</g>
</g>
<!-- Node7 -->
<g id="Node000007" class="node">
<title>Node7</title>
<g id="a_Node000007"><a xlink:href="WitgenDriver_8cpp.html" target="_top" xlink:title=" ">
<polygon fill="white" stroke="#666666" points="534.25,-39.88 399.75,-39.88 399.75,-6.38 534.25,-6.38 534.25,-39.88"/>
<text text-anchor="start" x="407.75" y="-26.38" font-family="Helvetica,sans-Serif" font-size="10.00">tools/llzk&#45;witgen/Witgen</text>
<text text-anchor="middle" x="467" y="-13.62" font-family="Helvetica,sans-Serif" font-size="10.00">Driver.cpp</text>
</a>
</g>
</g>
<!-- Node2&#45;&gt;Node7 -->
<g id="edge6_Node000002_Node000007" class="edge">
<title>Node2&#45;&gt;Node7</title>
<g id="a_edge6_Node000002_Node000007"><a xlink:title=" ">
<path fill="none" stroke="#63b8ff" d="M467,-70.57C467,-60.07 467,-48.97 467,-40.25"/>
<polygon fill="#63b8ff" stroke="#63b8ff" points="463.5,-70.51 467,-80.51 470.5,-70.51 463.5,-70.51"/>
</a>
</g>
</g>
<!-- Node8 -->
<g id="Node000008" class="node">
<title>Node8</title>
<g id="a_Node000008"><a xlink:href="WitgenLowering_8cpp.html" target="_top" xlink:title=" ">
<polygon fill="white" stroke="#666666" points="687.25,-39.88 552.75,-39.88 552.75,-6.38 687.25,-6.38 687.25,-39.88"/>
<text text-anchor="start" x="560.75" y="-26.38" font-family="Helvetica,sans-Serif" font-size="10.00">tools/llzk&#45;witgen/Witgen</text>
<text text-anchor="middle" x="620" y="-13.62" font-family="Helvetica,sans-Serif" font-size="10.00">Lowering.cpp</text>
</a>
</g>
</g>
<!-- Node2&#45;&gt;Node8 -->
<g id="edge7_Node000002_Node000008" class="edge">
<title>Node2&#45;&gt;Node8</title>
<g id="a_edge7_Node000002_Node000008"><a xlink:title=" ">
<path fill="none" stroke="#63b8ff" d="M520.07,-76.54C543.24,-64.38 569.59,-50.57 589.41,-40.17"/>
<polygon fill="#63b8ff" stroke="#63b8ff" points="518.6,-73.36 511.37,-81.1 521.85,-79.56 518.6,-73.36"/>
</a>
</g>
</g>
</g>
</svg>
