<?xml version="1.0" encoding="UTF-8" standalone="no"?>
<!DOCTYPE svg PUBLIC "-//W3C//DTD SVG 1.1//EN"
 "http://www.w3.org/Graphics/SVG/1.1/DTD/svg11.dtd">
<!-- Generated by graphviz version 12.2.1 (0)
 -->
<!-- Title: include/llzk/Dialect/Polymorphic/IR/Ops.h Pages: 1 -->
<svg width="2606pt" height="307pt"
 viewBox="0.00 0.00 2605.50 306.75" xmlns="http://www.w3.org/2000/svg" xmlns:xlink="http://www.w3.org/1999/xlink">
<g id="graph0" class="graph" transform="scale(1 1) rotate(0) translate(4 302.75)">
<title>include/llzk/Dialect/Polymorphic/IR/Ops.h</title>
<!-- Node1 -->
<g id="Node000001" class="node">
<title>Node1</title>
<g id="a_Node000001"><a xlink:title=" ">
<polygon fill="#999999" stroke="#666666" points="2049.88,-298.75 1926.62,-298.75 1926.62,-265.25 2049.88,-265.25 2049.88,-298.75"/>
<text text-anchor="start" x="1934.62" y="-285.25" font-family="Helvetica,sans-Serif" font-size="10.00">include/llzk/Dialect</text>
<text text-anchor="middle" x="1988.25" y="-272.5" font-family="Helvetica,sans-Serif" font-size="10.00">/Polymorphic/IR/Ops.h</text>
</a>
</g>
</g>
<!-- Node2 -->
<g id="Node000002" class="node">
<title>Node2</title>
<g id="a_Node000002"><a xlink:href="Polymorphic_2IR_2Dialect_8h.html" target="_top" xlink:title=" ">
<polygon fill="white" stroke="#666666" points="302.5,-159.75 168,-159.75 168,-126.25 302.5,-126.25 302.5,-159.75"/>
<text text-anchor="start" x="176" y="-146.25" font-family="Helvetica,sans-Serif" font-size="10.00">llzk/Dialect/Polymorphic</text>
<text text-anchor="middle" x="235.25" y="-133.5" font-family="Helvetica,sans-Serif" font-size="10.00">/IR/Dialect.h</text>
</a>
</g>
</g>
<!-- Node1&#45;&gt;Node2 -->
<g id="edge1_Node000001_Node000002" class="edge">
<title>Node1&#45;&gt;Node2</title>
<g id="a_edge1_Node000001_Node000002"><a xlink:title=" ">
<path fill="none" stroke="#63b8ff" d="M1926.52,-280.07C1659.39,-275.89 610.04,-257.77 465.25,-229.25 397.94,-215.99 324.27,-185.67 278.9,-165"/>
<polygon fill="#63b8ff" stroke="#63b8ff" points="280.47,-161.87 269.92,-160.86 277.54,-168.23 280.47,-161.87"/>
</a>
</g>
</g>
<!-- Node5 -->
<g id="Node000005" class="node">
<title>Node5</title>
<g id="a_Node000005"><a xlink:href="Polymorphic_2IR_2Types_8h.html" target="_top" xlink:title=" ">
<polygon fill="white" stroke="#666666" points="608.5,-229.25 474,-229.25 474,-195.75 608.5,-195.75 608.5,-229.25"/>
<text text-anchor="start" x="482" y="-215.75" font-family="Helvetica,sans-Serif" font-size="10.00">llzk/Dialect/Polymorphic</text>
<text text-anchor="middle" x="541.25" y="-203" font-family="Helvetica,sans-Serif" font-size="10.00">/IR/Types.h</text>
</a>
</g>
</g>
<!-- Node1&#45;&gt;Node5 -->
<g id="edge4_Node000001_Node000005" class="edge">
<title>Node1&#45;&gt;Node5</title>
<g id="a_edge4_Node000001_Node000005"><a xlink:title=" ">
<path fill="none" stroke="#63b8ff" d="M1926.54,-278.12C1694.92,-267.32 877.55,-229.19 619.75,-217.16"/>
<polygon fill="#63b8ff" stroke="#63b8ff" points="620.3,-213.68 610.14,-216.71 619.97,-220.68 620.3,-213.68"/>
</a>
</g>
</g>
<!-- Node7 -->
<g id="Node000007" class="node">
<title>Node7</title>
<g id="a_Node000007"><a xlink:href="OpHelpers_8h.html" target="_top" xlink:title=" ">
<polygon fill="white" stroke="#666666" points="1837,-229.25 1729.5,-229.25 1729.5,-195.75 1837,-195.75 1837,-229.25"/>
<text text-anchor="start" x="1737.5" y="-215.75" font-family="Helvetica,sans-Serif" font-size="10.00">llzk/Dialect/Shared</text>
<text text-anchor="middle" x="1783.25" y="-203" font-family="Helvetica,sans-Serif" font-size="10.00">/OpHelpers.h</text>
</a>
</g>
</g>
<!-- Node1&#45;&gt;Node7 -->
<g id="edge7_Node000001_Node000007" class="edge">
<title>Node1&#45;&gt;Node7</title>
<g id="a_edge7_Node000001_Node000007"><a xlink:title=" ">
<path fill="none" stroke="#63b8ff" d="M1939.15,-264.83C1910.35,-255.35 1873.74,-243.3 1843.24,-233.25"/>
<polygon fill="#63b8ff" stroke="#63b8ff" points="1844.34,-229.93 1833.74,-230.13 1842.15,-236.58 1844.34,-229.93"/>
</a>
</g>
</g>
<!-- Node38 -->
<g id="Node000038" class="node">
<title>Node38</title>
<g id="a_Node000038"><a xlink:title=" ">
<polygon fill="#e0e0e0" stroke="#999999" points="1971.88,-229.25 1854.62,-229.25 1854.62,-195.75 1971.88,-195.75 1971.88,-229.25"/>
<text text-anchor="start" x="1862.62" y="-215.75" font-family="Helvetica,sans-Serif" font-size="10.00">mlir/Dialect/Affine</text>
<text text-anchor="middle" x="1913.25" y="-203" font-family="Helvetica,sans-Serif" font-size="10.00">/IR/AffineValueMap.h</text>
</a>
</g>
</g>
<!-- Node1&#45;&gt;Node38 -->
<g id="edge48_Node000001_Node000038" class="edge">
<title>Node1&#45;&gt;Node38</title>
<g id="a_edge48_Node000001_Node000038"><a xlink:title=" ">
<path fill="none" stroke="#63b8ff" d="M1970.48,-265C1961.2,-256.66 1949.68,-246.29 1939.41,-237.05"/>
<polygon fill="#63b8ff" stroke="#63b8ff" points="1942.06,-234.72 1932.28,-230.63 1937.37,-239.92 1942.06,-234.72"/>
</a>
</g>
</g>
<!-- Node39 -->
<g id="Node000039" class="node">
<title>Node39</title>
<g id="a_Node000039"><a xlink:title=" ">
<polygon fill="#e0e0e0" stroke="#999999" points="2138.62,-229.25 1989.88,-229.25 1989.88,-195.75 2138.62,-195.75 2138.62,-229.25"/>
<text text-anchor="start" x="1997.88" y="-215.75" font-family="Helvetica,sans-Serif" font-size="10.00">mlir/Interfaces/ControlFlow</text>
<text text-anchor="middle" x="2064.25" y="-203" font-family="Helvetica,sans-Serif" font-size="10.00">Interfaces.h</text>
</a>
</g>
</g>
<!-- Node1&#45;&gt;Node39 -->
<g id="edge49_Node000001_Node000039" class="edge">
<title>Node1&#45;&gt;Node39</title>
<g id="a_edge49_Node000001_Node000039"><a xlink:title=" ">
<path fill="none" stroke="#63b8ff" d="M2006.26,-265C2015.66,-256.66 2027.33,-246.29 2037.74,-237.05"/>
<polygon fill="#63b8ff" stroke="#63b8ff" points="2039.82,-239.88 2044.97,-230.62 2035.17,-234.64 2039.82,-239.88"/>
</a>
</g>
</g>
<!-- Node40 -->
<g id="Node000040" class="node">
<title>Node40</title>
<g id="a_Node000040"><a xlink:title=" ">
<polygon fill="#e0e0e0" stroke="#999999" points="2291.88,-229.25 2156.62,-229.25 2156.62,-195.75 2291.88,-195.75 2291.88,-229.25"/>
<text text-anchor="start" x="2164.62" y="-215.75" font-family="Helvetica,sans-Serif" font-size="10.00">mlir/Interfaces/InferType</text>
<text text-anchor="middle" x="2224.25" y="-203" font-family="Helvetica,sans-Serif" font-size="10.00">OpInterface.h</text>
</a>
</g>
</g>
<!-- Node1&#45;&gt;Node40 -->
<g id="edge50_Node000001_Node000040" class="edge">
<title>Node1&#45;&gt;Node40</title>
<g id="a_edge50_Node000001_Node000040"><a xlink:title=" ">
<path fill="none" stroke="#63b8ff" d="M2044.78,-264.83C2078.52,-255.18 2121.55,-242.87 2157.03,-232.73"/>
<polygon fill="#63b8ff" stroke="#63b8ff" points="2157.67,-236.18 2166.32,-230.07 2155.74,-229.45 2157.67,-236.18"/>
</a>
</g>
</g>
<!-- Node41 -->
<g id="Node000041" class="node">
<title>Node41</title>
<g id="a_Node000041"><a xlink:href="Polymorphic_2IR_2OpInterfaces_8h_8inc.html" target="_top" xlink:title=" ">
<polygon fill="white" stroke="#666666" points="2444.5,-229.25 2310,-229.25 2310,-195.75 2444.5,-195.75 2444.5,-229.25"/>
<text text-anchor="start" x="2318" y="-215.75" font-family="Helvetica,sans-Serif" font-size="10.00">llzk/Dialect/Polymorphic</text>
<text text-anchor="middle" x="2377.25" y="-203" font-family="Helvetica,sans-Serif" font-size="10.00">/IR/OpInterfaces.h.inc</text>
</a>
</g>
</g>
<!-- Node1&#45;&gt;Node41 -->
<g id="edge51_Node000001_Node000041" class="edge">
<title>Node1&#45;&gt;Node41</title>
<g id="a_edge51_Node000001_Node000041"><a xlink:title=" ">
<path fill="none" stroke="#63b8ff" d="M2050.14,-271.52C2110.91,-262.05 2206.51,-246.69 2298.53,-229.72"/>
<polygon fill="#63b8ff" stroke="#63b8ff" points="2299.05,-233.18 2308.24,-227.92 2297.77,-226.3 2299.05,-233.18"/>
</a>
</g>
</g>
<!-- Node42 -->
<g id="Node000042" class="node">
<title>Node42</title>
<g id="a_Node000042"><a xlink:href="Polymorphic_2IR_2Ops_8h_8inc.html" target="_top" xlink:title=" ">
<polygon fill="white" stroke="#666666" points="2597.5,-229.25 2463,-229.25 2463,-195.75 2597.5,-195.75 2597.5,-229.25"/>
<text text-anchor="start" x="2471" y="-215.75" font-family="Helvetica,sans-Serif" font-size="10.00">llzk/Dialect/Polymorphic</text>
<text text-anchor="middle" x="2530.25" y="-203" font-family="Helvetica,sans-Serif" font-size="10.00">/IR/Ops.h.inc</text>
</a>
</g>
</g>
<!-- Node1&#45;&gt;Node42 -->
<g id="edge52_Node000001_Node000042" class="edge">
<title>Node1&#45;&gt;Node42</title>
<g id="a_edge52_Node000001_Node000042"><a xlink:title=" ">
<path fill="none" stroke="#63b8ff" d="M2050.17,-275.91C2137.33,-268.36 2301.37,-252.67 2451.47,-229.44"/>
<polygon fill="#63b8ff" stroke="#63b8ff" points="2451.87,-232.92 2461.21,-227.91 2450.79,-226 2451.87,-232.92"/>
</a>
</g>
</g>
<!-- Node3 -->
<g id="Node000003" class="node">
<title>Node3</title>
<g id="a_Node000003"><a xlink:title=" ">
<polygon fill="#e0e0e0" stroke="#999999" points="110.5,-83.88 0,-83.88 0,-63.12 110.5,-63.12 110.5,-83.88"/>
<text text-anchor="middle" x="55.25" y="-70.38" font-family="Helvetica,sans-Serif" font-size="10.00">mlir/IR/BuiltinOps.h</text>
</a>
</g>
</g>
<!-- Node2&#45;&gt;Node3 -->
<g id="edge2_Node000002_Node000003" class="edge">
<title>Node2&#45;&gt;Node3</title>
<g id="a_edge2_Node000002_Node000003"><a xlink:title=" ">
<path fill="none" stroke="#63b8ff" d="M192.14,-125.83C161.61,-114.38 121.1,-99.19 92.08,-88.31"/>
<polygon fill="#63b8ff" stroke="#63b8ff" points="93.58,-85.14 82.99,-84.9 91.12,-91.69 93.58,-85.14"/>
</a>
</g>
</g>
<!-- Node4 -->
<g id="Node000004" class="node">
<title>Node4</title>
<g id="a_Node000004"><a xlink:href="Polymorphic_2IR_2Dialect_8h_8inc.html" target="_top" xlink:title=" ">
<polygon fill="white" stroke="#666666" points="263.5,-90.25 129,-90.25 129,-56.75 263.5,-56.75 263.5,-90.25"/>
<text text-anchor="start" x="137" y="-76.75" font-family="Helvetica,sans-Serif" font-size="10.00">llzk/Dialect/Polymorphic</text>
<text text-anchor="middle" x="196.25" y="-64" font-family="Helvetica,sans-Serif" font-size="10.00">/IR/Dialect.h.inc</text>
</a>
</g>
</g>
<!-- Node2&#45;&gt;Node4 -->
<g id="edge3_Node000002_Node000004" class="edge">
<title>Node2&#45;&gt;Node4</title>
<g id="a_edge3_Node000002_Node000004"><a xlink:title=" ">
<path fill="none" stroke="#63b8ff" d="M226.01,-126C221.54,-118.27 216.07,-108.8 211.04,-100.09"/>
<polygon fill="#63b8ff" stroke="#63b8ff" points="214.22,-98.6 206.18,-91.69 208.16,-102.1 214.22,-98.6"/>
</a>
</g>
</g>
<!-- Node5&#45;&gt;Node2 -->
<g id="edge5_Node000005_Node000002" class="edge">
<title>Node5&#45;&gt;Node2</title>
<g id="a_edge5_Node000005_Node000002"><a xlink:title=" ">
<path fill="none" stroke="#63b8ff" d="M473.72,-196.6C426.51,-186.19 363.32,-172.25 313.85,-161.34"/>
<polygon fill="#63b8ff" stroke="#63b8ff" points="314.87,-157.98 304.35,-159.24 313.36,-164.81 314.87,-157.98"/>
</a>
</g>
</g>
<!-- Node6 -->
<g id="Node000006" class="node">
<title>Node6</title>
<g id="a_Node000006"><a xlink:href="Polymorphic_2IR_2Types_8h_8inc.html" target="_top" xlink:title=" ">
<polygon fill="white" stroke="#666666" points="608.5,-159.75 474,-159.75 474,-126.25 608.5,-126.25 608.5,-159.75"/>
<text text-anchor="start" x="482" y="-146.25" font-family="Helvetica,sans-Serif" font-size="10.00">llzk/Dialect/Polymorphic</text>
<text text-anchor="middle" x="541.25" y="-133.5" font-family="Helvetica,sans-Serif" font-size="10.00">/IR/Types.h.inc</text>
</a>
</g>
</g>
<!-- Node5&#45;&gt;Node6 -->
<g id="edge6_Node000005_Node000006" class="edge">
<title>Node5&#45;&gt;Node6</title>
<g id="a_edge6_Node000005_Node000006"><a xlink:title=" ">
<path fill="none" stroke="#63b8ff" d="M541.25,-195.5C541.25,-188.27 541.25,-179.53 541.25,-171.31"/>
<polygon fill="#63b8ff" stroke="#63b8ff" points="544.75,-171.4 541.25,-161.4 537.75,-171.4 544.75,-171.4"/>
</a>
</g>
</g>
<!-- Node8 -->
<g id="Node000008" class="node">
<title>Node8</title>
<g id="a_Node000008"><a xlink:href="AttributeHelper_8h.html" target="_top" xlink:title=" ">
<polygon fill="white" stroke="#666666" points="813.5,-159.75 703,-159.75 703,-126.25 813.5,-126.25 813.5,-159.75"/>
<text text-anchor="start" x="711" y="-146.25" font-family="Helvetica,sans-Serif" font-size="10.00">llzk/Dialect/LLZK/IR</text>
<text text-anchor="middle" x="758.25" y="-133.5" font-family="Helvetica,sans-Serif" font-size="10.00">/AttributeHelper.h</text>
</a>
</g>
</g>
<!-- Node7&#45;&gt;Node8 -->
<g id="edge8_Node000007_Node000008" class="edge">
<title>Node7&#45;&gt;Node8</title>
<g id="a_edge8_Node000007_Node000008"><a xlink:title=" ">
<path fill="none" stroke="#63b8ff" d="M1729.23,-207.94C1556.13,-196.54 1015.53,-160.94 825.29,-148.41"/>
<polygon fill="#63b8ff" stroke="#63b8ff" points="825.53,-144.92 815.32,-147.76 825.07,-151.91 825.53,-144.92"/>
</a>
</g>
</g>
<!-- Node15 -->
<g id="Node000015" class="node">
<title>Node15</title>
<g id="a_Node000015"><a xlink:href="AffineHelper_8h.html" target="_top" xlink:title=" ">
<polygon fill="white" stroke="#666666" points="1314,-153.38 1188.5,-153.38 1188.5,-132.62 1314,-132.62 1314,-153.38"/>
<text text-anchor="middle" x="1251.25" y="-139.88" font-family="Helvetica,sans-Serif" font-size="10.00">llzk/Util/AffineHelper.h</text>
</a>
</g>
</g>
<!-- Node7&#45;&gt;Node15 -->
<g id="edge15_Node000007_Node000015" class="edge">
<title>Node7&#45;&gt;Node15</title>
<g id="a_edge15_Node000007_Node000015"><a xlink:title=" ">
<path fill="none" stroke="#63b8ff" d="M1729.31,-204.66C1633.64,-192.52 1434.1,-167.2 1325.52,-153.42"/>
<polygon fill="#63b8ff" stroke="#63b8ff" points="1326.2,-149.98 1315.84,-152.2 1325.32,-156.93 1326.2,-149.98"/>
</a>
</g>
</g>
<!-- Node17 -->
<g id="Node000017" class="node">
<title>Node17</title>
<g id="a_Node000017"><a xlink:title=" ">
<polygon fill="#e0e0e0" stroke="#999999" points="1466.38,-20.75 1358.12,-20.75 1358.12,0 1466.38,0 1466.38,-20.75"/>
<text text-anchor="middle" x="1412.25" y="-7.25" font-family="Helvetica,sans-Serif" font-size="10.00">mlir/IR/Operation.h</text>
</a>
</g>
</g>
<!-- Node7&#45;&gt;Node17 -->
<g id="edge43_Node000007_Node000017" class="edge">
<title>Node7&#45;&gt;Node17</title>
<g id="a_edge43_Node000007_Node000017"><a xlink:title=" ">
<path fill="none" stroke="#63b8ff" d="M1729.64,-195.34C1710.36,-187.28 1689.81,-175.74 1675.25,-159.75 1642.4,-123.67 1674.31,-88.49 1637.25,-56.75 1625.12,-46.36 1539.99,-31.2 1478.02,-21.31"/>
<polygon fill="#63b8ff" stroke="#63b8ff" points="1478.65,-17.86 1468.23,-19.76 1477.56,-24.78 1478.65,-17.86"/>
</a>
</g>
</g>
<!-- Node20 -->
<g id="Node000020" class="node">
<title>Node20</title>
<g id="a_Node000020"><a xlink:title=" ">
<polygon fill="#e0e0e0" stroke="#999999" points="1628.12,-83.88 1476.38,-83.88 1476.38,-63.12 1628.12,-63.12 1628.12,-83.88"/>
<text text-anchor="middle" x="1552.25" y="-70.38" font-family="Helvetica,sans-Serif" font-size="10.00">mlir/IR/OpImplementation.h</text>
</a>
</g>
</g>
<!-- Node7&#45;&gt;Node20 -->
<g id="edge42_Node000007_Node000020" class="edge">
<title>Node7&#45;&gt;Node20</title>
<g id="a_edge42_Node000007_Node000020"><a xlink:title=" ">
<path fill="none" stroke="#63b8ff" d="M1729.01,-197.27C1701.76,-188.74 1668.95,-176.31 1642.25,-159.75 1612.52,-141.32 1584.26,-111.92 1567.59,-92.92"/>
<polygon fill="#63b8ff" stroke="#63b8ff" points="1570.33,-90.74 1561.17,-85.43 1565.02,-95.3 1570.33,-90.74"/>
</a>
</g>
</g>
<!-- Node23 -->
<g id="Node000023" class="node">
<title>Node23</title>
<g id="a_Node000023"><a xlink:href="llzk_2Util_2Constants_8h.html" target="_top" xlink:title=" ">
<polygon fill="white" stroke="#666666" points="1798.38,-153.38 1684.12,-153.38 1684.12,-132.62 1798.38,-132.62 1798.38,-153.38"/>
<text text-anchor="middle" x="1741.25" y="-139.88" font-family="Helvetica,sans-Serif" font-size="10.00">llzk/Util/Constants.h</text>
</a>
</g>
</g>
<!-- Node7&#45;&gt;Node23 -->
<g id="edge25_Node000007_Node000023" class="edge">
<title>Node7&#45;&gt;Node23</title>
<g id="a_edge25_Node000007_Node000023"><a xlink:title=" ">
<path fill="none" stroke="#63b8ff" d="M1773.3,-195.5C1767.32,-185.9 1759.67,-173.61 1753.35,-163.44"/>
<polygon fill="#63b8ff" stroke="#63b8ff" points="1756.42,-161.75 1748.16,-155.11 1750.47,-165.45 1756.42,-161.75"/>
</a>
</g>
</g>
<!-- Node24 -->
<g id="Node000024" class="node">
<title>Node24</title>
<g id="a_Node000024"><a xlink:href="ErrorHelper_8h.html" target="_top" xlink:title=" ">
<polygon fill="white" stroke="#666666" points="1842.38,-83.88 1722.12,-83.88 1722.12,-63.12 1842.38,-63.12 1842.38,-83.88"/>
<text text-anchor="middle" x="1782.25" y="-70.38" font-family="Helvetica,sans-Serif" font-size="10.00">llzk/Util/ErrorHelper.h</text>
</a>
</g>
</g>
<!-- Node7&#45;&gt;Node24 -->
<g id="edge26_Node000007_Node000024" class="edge">
<title>Node7&#45;&gt;Node24</title>
<g id="a_edge26_Node000007_Node000024"><a xlink:title=" ">
<path fill="none" stroke="#63b8ff" d="M1792.95,-195.37C1798.33,-185.47 1804.48,-172.32 1807.25,-159.75 1810.46,-145.21 1810.57,-140.76 1807.25,-126.25 1804.69,-115.06 1799.38,-103.49 1794.32,-94.12"/>
<polygon fill="#63b8ff" stroke="#63b8ff" points="1797.44,-92.53 1789.41,-85.62 1791.38,-96.03 1797.44,-92.53"/>
</a>
</g>
</g>
<!-- Node30 -->
<g id="Node000030" class="node">
<title>Node30</title>
<g id="a_Node000030"><a xlink:href="TypeHelper_8h.html" target="_top" xlink:title=" ">
<polygon fill="white" stroke="#666666" points="1974,-153.38 1854.5,-153.38 1854.5,-132.62 1974,-132.62 1974,-153.38"/>
<text text-anchor="middle" x="1914.25" y="-139.88" font-family="Helvetica,sans-Serif" font-size="10.00">llzk/Util/TypeHelper.h</text>
</a>
</g>
</g>
<!-- Node7&#45;&gt;Node30 -->
<g id="edge33_Node000007_Node000030" class="edge">
<title>Node7&#45;&gt;Node30</title>
<g id="a_edge33_Node000007_Node000030"><a xlink:title=" ">
<path fill="none" stroke="#63b8ff" d="M1814.63,-195.33C1836.03,-184.31 1864.17,-169.8 1885.08,-159.03"/>
<polygon fill="#63b8ff" stroke="#63b8ff" points="1886.66,-162.16 1893.94,-154.46 1883.45,-155.93 1886.66,-162.16"/>
</a>
</g>
</g>
<!-- Node31 -->
<g id="Node000031" class="node">
<title>Node31</title>
<g id="a_Node000031"><a xlink:title=" ">
<polygon fill="#e0e0e0" stroke="#999999" points="2259.5,-83.88 2137,-83.88 2137,-63.12 2259.5,-63.12 2259.5,-83.88"/>
<text text-anchor="middle" x="2198.25" y="-70.38" font-family="Helvetica,sans-Serif" font-size="10.00">mlir/IR/SymbolTable.h</text>
</a>
</g>
</g>
<!-- Node7&#45;&gt;Node31 -->
<g id="edge44_Node000007_Node000031" class="edge">
<title>Node7&#45;&gt;Node31</title>
<g id="a_edge44_Node000007_Node000031"><a xlink:title=" ">
<path fill="none" stroke="#63b8ff" d="M1837.3,-197.65C1895.96,-182.61 1981.56,-160.58 1983.25,-159.75 2004.98,-149.05 2004.73,-137.37 2026.25,-126.25 2047.67,-115.18 2106,-98.59 2148.82,-87.2"/>
<polygon fill="#63b8ff" stroke="#63b8ff" points="2149.65,-90.6 2158.42,-84.66 2147.86,-83.83 2149.65,-90.6"/>
</a>
</g>
</g>
<!-- Node34 -->
<g id="Node000034" class="node">
<title>Node34</title>
<g id="a_Node000034"><a xlink:title=" ">
<polygon fill="#e0e0e0" stroke="#999999" points="2394.88,-83.88 2277.62,-83.88 2277.62,-63.12 2394.88,-63.12 2394.88,-83.88"/>
<text text-anchor="middle" x="2336.25" y="-70.38" font-family="Helvetica,sans-Serif" font-size="10.00">llvm/ADT/StringRef.h</text>
</a>
</g>
</g>
<!-- Node7&#45;&gt;Node34 -->
<g id="edge47_Node000007_Node000034" class="edge">
<title>Node7&#45;&gt;Node34</title>
<g id="a_edge47_Node000007_Node000034"><a xlink:title=" ">
<path fill="none" stroke="#63b8ff" d="M1837.32,-197.61C1840,-196.97 1842.65,-196.35 1845.25,-195.75 1922.21,-178.02 1948.16,-194.14 2019.25,-159.75 2040.12,-149.65 2038.21,-136 2059.25,-126.25 2144.77,-86.62 2175.86,-108.89 2268.25,-90.25 2273.47,-89.2 2278.9,-88.04 2284.32,-86.85"/>
<polygon fill="#63b8ff" stroke="#63b8ff" points="2284.87,-90.31 2293.86,-84.71 2283.34,-83.48 2284.87,-90.31"/>
</a>
</g>
</g>
<!-- Node35 -->
<g id="Node000035" class="node">
<title>Node35</title>
<g id="a_Node000035"><a xlink:title=" ">
<polygon fill="#e0e0e0" stroke="#999999" points="2188,-153.38 2068.5,-153.38 2068.5,-132.62 2188,-132.62 2188,-153.38"/>
<text text-anchor="middle" x="2128.25" y="-139.88" font-family="Helvetica,sans-Serif" font-size="10.00">mlir/IR/BuiltinTypes.h</text>
</a>
</g>
</g>
<!-- Node7&#45;&gt;Node35 -->
<g id="edge41_Node000007_Node000035" class="edge">
<title>Node7&#45;&gt;Node35</title>
<g id="a_edge41_Node000007_Node000035"><a xlink:title=" ">
<path fill="none" stroke="#63b8ff" d="M1837.29,-197.51C1839.98,-196.89 1842.64,-196.3 1845.25,-195.75 1937.44,-176.13 1961.69,-177.56 2054.25,-159.75 2060.13,-158.62 2066.27,-157.39 2072.39,-156.13"/>
<polygon fill="#63b8ff" stroke="#63b8ff" points="2072.75,-159.63 2081.82,-154.17 2071.32,-152.78 2072.75,-159.63"/>
</a>
</g>
</g>
<!-- Node36 -->
<g id="Node000036" class="node">
<title>Node36</title>
<g id="a_Node000036"><a xlink:title=" ">
<polygon fill="#e0e0e0" stroke="#999999" points="2358.88,-153.38 2205.62,-153.38 2205.62,-132.62 2358.88,-132.62 2358.88,-153.38"/>
<text text-anchor="middle" x="2282.25" y="-139.88" font-family="Helvetica,sans-Serif" font-size="10.00">mlir/Support/LogicalResult.h</text>
</a>
</g>
</g>
<!-- Node7&#45;&gt;Node36 -->
<g id="edge45_Node000007_Node000036" class="edge">
<title>Node7&#45;&gt;Node36</title>
<g id="a_edge45_Node000007_Node000036"><a xlink:title=" ">
<path fill="none" stroke="#63b8ff" d="M1837.25,-197.28C1839.95,-196.73 1842.63,-196.21 1845.25,-195.75 2000.1,-168.32 2041.58,-182.09 2197.25,-159.75 2205.22,-158.61 2213.58,-157.25 2221.81,-155.82"/>
<polygon fill="#63b8ff" stroke="#63b8ff" points="2222.2,-159.31 2231.43,-154.11 2220.97,-152.42 2222.2,-159.31"/>
</a>
</g>
</g>
<!-- Node37 -->
<g id="Node000037" class="node">
<title>Node37</title>
<g id="a_Node000037"><a xlink:title=" ">
<polygon fill="#e0e0e0" stroke="#999999" points="2505.88,-153.38 2376.62,-153.38 2376.62,-132.62 2505.88,-132.62 2505.88,-153.38"/>
<text text-anchor="middle" x="2441.25" y="-139.88" font-family="Helvetica,sans-Serif" font-size="10.00">llvm/ADT/SmallString.h</text>
</a>
</g>
</g>
<!-- Node7&#45;&gt;Node37 -->
<g id="edge46_Node000007_Node000037" class="edge">
<title>Node7&#45;&gt;Node37</title>
<g id="a_edge46_Node000007_Node000037"><a xlink:title=" ">
<path fill="none" stroke="#63b8ff" d="M1837.23,-197.18C1839.93,-196.65 1842.62,-196.17 1845.25,-195.75 2075.31,-158.92 2137.56,-192.4 2368.25,-159.75 2375.08,-158.78 2382.22,-157.54 2389.24,-156.17"/>
<polygon fill="#63b8ff" stroke="#63b8ff" points="2389.93,-159.61 2399.03,-154.18 2388.53,-152.75 2389.93,-159.61"/>
</a>
</g>
</g>
<!-- Node9 -->
<g id="Node000009" class="node">
<title>Node9</title>
<g id="a_Node000009"><a xlink:href="StreamHelper_8h.html" target="_top" xlink:title=" ">
<polygon fill="white" stroke="#666666" points="413.38,-83.88 281.12,-83.88 281.12,-63.12 413.38,-63.12 413.38,-83.88"/>
<text text-anchor="middle" x="347.25" y="-70.38" font-family="Helvetica,sans-Serif" font-size="10.00">llzk/Util/StreamHelper.h</text>
</a>
</g>
</g>
<!-- Node8&#45;&gt;Node9 -->
<g id="edge9_Node000008_Node000009" class="edge">
<title>Node8&#45;&gt;Node9</title>
<g id="a_edge9_Node000008_Node000009"><a xlink:title=" ">
<path fill="none" stroke="#63b8ff" d="M702.68,-134.3C636.11,-124.88 521.26,-107.96 423.25,-90.25 416.96,-89.11 410.4,-87.86 403.88,-86.57"/>
<polygon fill="#63b8ff" stroke="#63b8ff" points="404.97,-83.22 394.48,-84.67 403.59,-90.08 404.97,-83.22"/>
</a>
</g>
</g>
<!-- Node11 -->
<g id="Node000011" class="node">
<title>Node11</title>
<g id="a_Node000011"><a xlink:title=" ">
<polygon fill="#e0e0e0" stroke="#999999" points="604.62,-83.88 431.88,-83.88 431.88,-63.12 604.62,-63.12 604.62,-83.88"/>
<text text-anchor="middle" x="518.25" y="-70.38" font-family="Helvetica,sans-Serif" font-size="10.00">mlir/IR/DialectImplementation.h</text>
</a>
</g>
</g>
<!-- Node8&#45;&gt;Node11 -->
<g id="edge11_Node000008_Node000011" class="edge">
<title>Node8&#45;&gt;Node11</title>
<g id="a_edge11_Node000008_Node000011"><a xlink:title=" ">
<path fill="none" stroke="#63b8ff" d="M702.59,-126.34C660.53,-114.52 603.5,-98.48 564.06,-87.38"/>
<polygon fill="#63b8ff" stroke="#63b8ff" points="565.21,-84.07 554.64,-84.73 563.32,-90.81 565.21,-84.07"/>
</a>
</g>
</g>
<!-- Node12 -->
<g id="Node000012" class="node">
<title>Node12</title>
<g id="a_Node000012"><a xlink:title=" ">
<polygon fill="#e0e0e0" stroke="#999999" points="721.5,-83.88 623,-83.88 623,-63.12 721.5,-63.12 721.5,-83.88"/>
<text text-anchor="middle" x="672.25" y="-70.38" font-family="Helvetica,sans-Serif" font-size="10.00">llvm/ADT/APInt.h</text>
</a>
</g>
</g>
<!-- Node8&#45;&gt;Node12 -->
<g id="edge12_Node000008_Node000012" class="edge">
<title>Node8&#45;&gt;Node12</title>
<g id="a_edge12_Node000008_Node000012"><a xlink:title=" ">
<path fill="none" stroke="#63b8ff" d="M737.87,-126C724.6,-115.59 707.31,-102.02 693.81,-91.42"/>
<polygon fill="#63b8ff" stroke="#63b8ff" points="695.98,-88.68 685.95,-85.26 691.66,-94.18 695.98,-88.68"/>
</a>
</g>
</g>
<!-- Node13 -->
<g id="Node000013" class="node">
<title>Node13</title>
<g id="a_Node000013"><a xlink:title=" ">
<polygon fill="#e0e0e0" stroke="#999999" points="852.62,-83.88 739.88,-83.88 739.88,-63.12 852.62,-63.12 852.62,-83.88"/>
<text text-anchor="middle" x="796.25" y="-70.38" font-family="Helvetica,sans-Serif" font-size="10.00">llvm/ADT/Hashing.h</text>
</a>
</g>
</g>
<!-- Node8&#45;&gt;Node13 -->
<g id="edge13_Node000008_Node000013" class="edge">
<title>Node8&#45;&gt;Node13</title>
<g id="a_edge13_Node000008_Node000013"><a xlink:title=" ">
<path fill="none" stroke="#63b8ff" d="M767.26,-126C772.61,-116.5 779.44,-104.37 785.12,-94.27"/>
<polygon fill="#63b8ff" stroke="#63b8ff" points="788.12,-96.07 789.98,-85.64 782.02,-92.64 788.12,-96.07"/>
</a>
</g>
</g>
<!-- Node14 -->
<g id="Node000014" class="node">
<title>Node14</title>
<g id="a_Node000014"><a xlink:title=" ">
<polygon fill="#e0e0e0" stroke="#999999" points="908.5,-20.75 864,-20.75 864,0 908.5,0 908.5,-20.75"/>
<text text-anchor="middle" x="886.25" y="-7.25" font-family="Helvetica,sans-Serif" font-size="10.00">utility</text>
</a>
</g>
</g>
<!-- Node8&#45;&gt;Node14 -->
<g id="edge14_Node000008_Node000014" class="edge">
<title>Node8&#45;&gt;Node14</title>
<g id="a_edge14_Node000008_Node000014"><a xlink:title=" ">
<path fill="none" stroke="#63b8ff" d="M809.52,-125.8C828.03,-117.71 847.68,-106.16 861.25,-90.25 875.21,-73.88 881.39,-49.67 884.12,-32.4"/>
<polygon fill="#63b8ff" stroke="#63b8ff" points="887.58,-32.89 885.39,-22.52 880.64,-32 887.58,-32.89"/>
</a>
</g>
</g>
<!-- Node10 -->
<g id="Node000010" class="node">
<title>Node10</title>
<g id="a_Node000010"><a xlink:title=" ">
<polygon fill="#e0e0e0" stroke="#999999" points="424.25,-20.75 270.25,-20.75 270.25,0 424.25,0 424.25,-20.75"/>
<text text-anchor="middle" x="347.25" y="-7.25" font-family="Helvetica,sans-Serif" font-size="10.00">llvm/Support/raw_ostream.h</text>
</a>
</g>
</g>
<!-- Node9&#45;&gt;Node10 -->
<g id="edge10_Node000009_Node000010" class="edge">
<title>Node9&#45;&gt;Node10</title>
<g id="a_edge10_Node000009_Node000010"><a xlink:title=" ">
<path fill="none" stroke="#63b8ff" d="M347.25,-62.68C347.25,-54.52 347.25,-42.63 347.25,-32.35"/>
<polygon fill="#63b8ff" stroke="#63b8ff" points="350.75,-32.48 347.25,-22.48 343.75,-32.48 350.75,-32.48"/>
</a>
</g>
</g>
<!-- Node16 -->
<g id="Node000016" class="node">
<title>Node16</title>
<g id="a_Node000016"><a xlink:href="Compare_8h.html" target="_top" xlink:title=" ">
<polygon fill="white" stroke="#666666" points="1018.12,-83.88 908.38,-83.88 908.38,-63.12 1018.12,-63.12 1018.12,-83.88"/>
<text text-anchor="middle" x="963.25" y="-70.38" font-family="Helvetica,sans-Serif" font-size="10.00">llzk/Util/Compare.h</text>
</a>
</g>
</g>
<!-- Node15&#45;&gt;Node16 -->
<g id="edge16_Node000015_Node000016" class="edge">
<title>Node15&#45;&gt;Node16</title>
<g id="a_edge16_Node000015_Node000016"><a xlink:title=" ">
<path fill="none" stroke="#63b8ff" d="M1209.37,-132.18C1158.29,-120.21 1071.88,-99.96 1016.22,-86.92"/>
<polygon fill="#63b8ff" stroke="#63b8ff" points="1017.19,-83.55 1006.65,-84.67 1015.59,-90.36 1017.19,-83.55"/>
</a>
</g>
</g>
<!-- Node15&#45;&gt;Node17 -->
<g id="edge22_Node000015_Node000017" class="edge">
<title>Node15&#45;&gt;Node17</title>
<g id="a_edge22_Node000015_Node000017"><a xlink:title=" ">
<path fill="none" stroke="#63b8ff" d="M1188.29,-134.88C1119.95,-124.7 1025.53,-102 1065.25,-56.75 1083.47,-35.99 1250.91,-21.83 1346.38,-15.36"/>
<polygon fill="#63b8ff" stroke="#63b8ff" points="1346.39,-18.87 1356.14,-14.72 1345.93,-11.89 1346.39,-18.87"/>
</a>
</g>
</g>
<!-- Node19 -->
<g id="Node000019" class="node">
<title>Node19</title>
<g id="a_Node000019"><a xlink:title=" ">
<polygon fill="#e0e0e0" stroke="#999999" points="1174.25,-83.88 1074.25,-83.88 1074.25,-63.12 1174.25,-63.12 1174.25,-83.88"/>
<text text-anchor="middle" x="1124.25" y="-70.38" font-family="Helvetica,sans-Serif" font-size="10.00">mlir/IR/Builders.h</text>
</a>
</g>
</g>
<!-- Node15&#45;&gt;Node19 -->
<g id="edge20_Node000015_Node000019" class="edge">
<title>Node15&#45;&gt;Node19</title>
<g id="a_edge20_Node000015_Node000019"><a xlink:title=" ">
<path fill="none" stroke="#63b8ff" d="M1232.78,-132.18C1211.81,-121.04 1177.33,-102.71 1152.87,-89.71"/>
<polygon fill="#63b8ff" stroke="#63b8ff" points="1154.55,-86.64 1144.08,-85.04 1151.26,-92.82 1154.55,-86.64"/>
</a>
</g>
</g>
<!-- Node15&#45;&gt;Node20 -->
<g id="edge21_Node000015_Node000020" class="edge">
<title>Node15&#45;&gt;Node20</title>
<g id="a_edge21_Node000015_Node000020"><a xlink:title=" ">
<path fill="none" stroke="#63b8ff" d="M1295.02,-132.18C1348.52,-120.19 1439.09,-99.88 1497.25,-86.83"/>
<polygon fill="#63b8ff" stroke="#63b8ff" points="1497.96,-90.26 1506.95,-84.66 1496.43,-83.43 1497.96,-90.26"/>
</a>
</g>
</g>
<!-- Node21 -->
<g id="Node000021" class="node">
<title>Node21</title>
<g id="a_Node000021"><a xlink:title=" ">
<polygon fill="#e0e0e0" stroke="#999999" points="1310.25,-83.88 1192.25,-83.88 1192.25,-63.12 1310.25,-63.12 1310.25,-83.88"/>
<text text-anchor="middle" x="1251.25" y="-70.38" font-family="Helvetica,sans-Serif" font-size="10.00">mlir/IR/ValueRange.h</text>
</a>
</g>
</g>
<!-- Node15&#45;&gt;Node21 -->
<g id="edge23_Node000015_Node000021" class="edge">
<title>Node15&#45;&gt;Node21</title>
<g id="a_edge23_Node000015_Node000021"><a xlink:title=" ">
<path fill="none" stroke="#63b8ff" d="M1251.25,-132.33C1251.25,-122.71 1251.25,-107.63 1251.25,-95.29"/>
<polygon fill="#63b8ff" stroke="#63b8ff" points="1254.75,-95.67 1251.25,-85.67 1247.75,-95.67 1254.75,-95.67"/>
</a>
</g>
</g>
<!-- Node22 -->
<g id="Node000022" class="node">
<title>Node22</title>
<g id="a_Node000022"><a xlink:title=" ">
<polygon fill="#e0e0e0" stroke="#999999" points="1458.62,-83.88 1327.88,-83.88 1327.88,-63.12 1458.62,-63.12 1458.62,-83.88"/>
<text text-anchor="middle" x="1393.25" y="-70.38" font-family="Helvetica,sans-Serif" font-size="10.00">llvm/ADT/SmallVector.h</text>
</a>
</g>
</g>
<!-- Node15&#45;&gt;Node22 -->
<g id="edge24_Node000015_Node000022" class="edge">
<title>Node15&#45;&gt;Node22</title>
<g id="a_edge24_Node000015_Node000022"><a xlink:title=" ">
<path fill="none" stroke="#63b8ff" d="M1271.9,-132.18C1295.67,-120.89 1334.94,-102.22 1362.35,-89.19"/>
<polygon fill="#63b8ff" stroke="#63b8ff" points="1363.68,-92.43 1371.21,-84.98 1360.68,-86.11 1363.68,-92.43"/>
</a>
</g>
</g>
<!-- Node16&#45;&gt;Node14 -->
<g id="edge19_Node000016_Node000014" class="edge">
<title>Node16&#45;&gt;Node14</title>
<g id="a_edge19_Node000016_Node000014"><a xlink:title=" ">
<path fill="none" stroke="#63b8ff" d="M950.88,-62.68C939.2,-53.41 921.46,-39.33 907.52,-28.26"/>
<polygon fill="#63b8ff" stroke="#63b8ff" points="909.78,-25.59 899.78,-22.11 905.43,-31.07 909.78,-25.59"/>
</a>
</g>
</g>
<!-- Node16&#45;&gt;Node17 -->
<g id="edge17_Node000016_Node000017" class="edge">
<title>Node16&#45;&gt;Node17</title>
<g id="a_edge17_Node000016_Node000017"><a xlink:title=" ">
<path fill="none" stroke="#63b8ff" d="M1002.88,-62.7C1012.45,-60.54 1022.69,-58.41 1032.25,-56.75 1141.84,-37.75 1270.6,-24.2 1346.59,-17.09"/>
<polygon fill="#63b8ff" stroke="#63b8ff" points="1346.73,-20.59 1356.36,-16.19 1346.08,-13.62 1346.73,-20.59"/>
</a>
</g>
</g>
<!-- Node18 -->
<g id="Node000018" class="node">
<title>Node18</title>
<g id="a_Node000018"><a xlink:title=" ">
<polygon fill="#e0e0e0" stroke="#999999" points="993,-20.75 933.5,-20.75 933.5,0 993,0 993,-20.75"/>
<text text-anchor="middle" x="963.25" y="-7.25" font-family="Helvetica,sans-Serif" font-size="10.00">concepts</text>
</a>
</g>
</g>
<!-- Node16&#45;&gt;Node18 -->
<g id="edge18_Node000016_Node000018" class="edge">
<title>Node16&#45;&gt;Node18</title>
<g id="a_edge18_Node000016_Node000018"><a xlink:title=" ">
<path fill="none" stroke="#63b8ff" d="M963.25,-62.68C963.25,-54.52 963.25,-42.63 963.25,-32.35"/>
<polygon fill="#63b8ff" stroke="#63b8ff" points="966.75,-32.48 963.25,-22.48 959.75,-32.48 966.75,-32.48"/>
</a>
</g>
</g>
<!-- Node24&#45;&gt;Node17 -->
<g id="edge28_Node000024_Node000017" class="edge">
<title>Node24&#45;&gt;Node17</title>
<g id="a_edge28_Node000024_Node000017"><a xlink:title=" ">
<path fill="none" stroke="#63b8ff" d="M1738.12,-62.67C1728.3,-60.61 1717.94,-58.52 1708.25,-56.75 1686.06,-52.69 1557.87,-33.27 1477.63,-21.19"/>
<polygon fill="#63b8ff" stroke="#63b8ff" points="1478.55,-17.79 1468.14,-19.76 1477.51,-24.71 1478.55,-17.79"/>
</a>
</g>
</g>
<!-- Node25 -->
<g id="Node000025" class="node">
<title>Node25</title>
<g id="a_Node000025"><a xlink:title=" ">
<polygon fill="#e0e0e0" stroke="#999999" points="1601.88,-20.75 1484.62,-20.75 1484.62,0 1601.88,0 1601.88,-20.75"/>
<text text-anchor="middle" x="1543.25" y="-7.25" font-family="Helvetica,sans-Serif" font-size="10.00">mlir/IR/Diagnostics.h</text>
</a>
</g>
</g>
<!-- Node24&#45;&gt;Node25 -->
<g id="edge27_Node000024_Node000025" class="edge">
<title>Node24&#45;&gt;Node25</title>
<g id="a_edge27_Node000024_Node000025"><a xlink:title=" ">
<path fill="none" stroke="#63b8ff" d="M1743.85,-62.68C1702.73,-52.16 1637.37,-35.45 1592.49,-23.97"/>
<polygon fill="#63b8ff" stroke="#63b8ff" points="1593.58,-20.63 1583.02,-21.55 1591.84,-27.42 1593.58,-20.63"/>
</a>
</g>
</g>
<!-- Node26 -->
<g id="Node000026" class="node">
<title>Node26</title>
<g id="a_Node000026"><a xlink:title=" ">
<polygon fill="#e0e0e0" stroke="#999999" points="1790.88,-20.75 1619.62,-20.75 1619.62,0 1790.88,0 1790.88,-20.75"/>
<text text-anchor="middle" x="1705.25" y="-7.25" font-family="Helvetica,sans-Serif" font-size="10.00">llvm/ADT/STLFunctionalExtras.h</text>
</a>
</g>
</g>
<!-- Node24&#45;&gt;Node26 -->
<g id="edge29_Node000024_Node000026" class="edge">
<title>Node24&#45;&gt;Node26</title>
<g id="a_edge29_Node000024_Node000026"><a xlink:title=" ">
<path fill="none" stroke="#63b8ff" d="M1769.88,-62.68C1758.2,-53.41 1740.46,-39.33 1726.52,-28.26"/>
<polygon fill="#63b8ff" stroke="#63b8ff" points="1728.78,-25.59 1718.78,-22.11 1724.43,-31.07 1728.78,-25.59"/>
</a>
</g>
</g>
<!-- Node27 -->
<g id="Node000027" class="node">
<title>Node27</title>
<g id="a_Node000027"><a xlink:title=" ">
<polygon fill="#e0e0e0" stroke="#999999" points="1909.62,-20.75 1808.88,-20.75 1808.88,0 1909.62,0 1909.62,-20.75"/>
<text text-anchor="middle" x="1859.25" y="-7.25" font-family="Helvetica,sans-Serif" font-size="10.00">llvm/ADT/Twine.h</text>
</a>
</g>
</g>
<!-- Node24&#45;&gt;Node27 -->
<g id="edge30_Node000024_Node000027" class="edge">
<title>Node24&#45;&gt;Node27</title>
<g id="a_edge30_Node000024_Node000027"><a xlink:title=" ">
<path fill="none" stroke="#63b8ff" d="M1794.62,-62.68C1806.3,-53.41 1824.04,-39.33 1837.98,-28.26"/>
<polygon fill="#63b8ff" stroke="#63b8ff" points="1840.07,-31.07 1845.72,-22.11 1835.72,-25.59 1840.07,-31.07"/>
</a>
</g>
</g>
<!-- Node28 -->
<g id="Node000028" class="node">
<title>Node28</title>
<g id="a_Node000028"><a xlink:title=" ">
<polygon fill="#e0e0e0" stroke="#999999" points="2084.75,-20.75 1927.75,-20.75 1927.75,0 2084.75,0 2084.75,-20.75"/>
<text text-anchor="middle" x="2006.25" y="-7.25" font-family="Helvetica,sans-Serif" font-size="10.00">llvm/Support/ErrorHandling.h</text>
</a>
</g>
</g>
<!-- Node24&#45;&gt;Node28 -->
<g id="edge31_Node000024_Node000028" class="edge">
<title>Node24&#45;&gt;Node28</title>
<g id="a_edge31_Node000024_Node000028"><a xlink:title=" ">
<path fill="none" stroke="#63b8ff" d="M1818.24,-62.68C1856.53,-52.23 1917.26,-35.66 1959.29,-24.19"/>
<polygon fill="#63b8ff" stroke="#63b8ff" points="1960.16,-27.58 1968.89,-21.57 1958.32,-20.83 1960.16,-27.58"/>
</a>
</g>
</g>
<!-- Node29 -->
<g id="Node000029" class="node">
<title>Node29</title>
<g id="a_Node000029"><a xlink:title=" ">
<polygon fill="#e0e0e0" stroke="#999999" points="2153.5,-20.75 2103,-20.75 2103,0 2153.5,0 2153.5,-20.75"/>
<text text-anchor="middle" x="2128.25" y="-7.25" font-family="Helvetica,sans-Serif" font-size="10.00">variant</text>
</a>
</g>
</g>
<!-- Node24&#45;&gt;Node29 -->
<g id="edge32_Node000024_Node000029" class="edge">
<title>Node24&#45;&gt;Node29</title>
<g id="a_edge32_Node000024_Node000029"><a xlink:title=" ">
<path fill="none" stroke="#63b8ff" d="M1823.6,-62.67C1832.99,-60.58 1842.94,-58.49 1852.25,-56.75 1955.59,-37.46 1985.87,-42.84 2091.55,-21.11"/>
<polygon fill="#63b8ff" stroke="#63b8ff" points="2092.16,-24.56 2101.23,-19.08 2090.73,-17.71 2092.16,-24.56"/>
</a>
</g>
</g>
<!-- Node30&#45;&gt;Node17 -->
<g id="edge36_Node000030_Node000017" class="edge">
<title>Node30&#45;&gt;Node17</title>
<g id="a_edge36_Node000030_Node000017"><a xlink:title=" ">
<path fill="none" stroke="#63b8ff" d="M1854.39,-133.22C1813.2,-125.61 1758.04,-112.27 1713.25,-90.25 1691.51,-79.56 1692.39,-66.58 1670.25,-56.75 1652.89,-49.04 1548.31,-32.07 1477.75,-21.21"/>
<polygon fill="#63b8ff" stroke="#63b8ff" points="1478.64,-17.8 1468.23,-19.75 1477.58,-24.72 1478.64,-17.8"/>
</a>
</g>
</g>
<!-- Node30&#45;&gt;Node20 -->
<g id="edge35_Node000030_Node000020" class="edge">
<title>Node30&#45;&gt;Node20</title>
<g id="a_edge35_Node000030_Node000020"><a xlink:title=" ">
<path fill="none" stroke="#63b8ff" d="M1861.61,-132.18C1796.6,-120.06 1686.06,-99.45 1616.22,-86.43"/>
<polygon fill="#63b8ff" stroke="#63b8ff" points="1616.91,-83 1606.44,-84.6 1615.63,-89.88 1616.91,-83"/>
</a>
</g>
</g>
<!-- Node30&#45;&gt;Node24 -->
<g id="edge34_Node000030_Node000024" class="edge">
<title>Node30&#45;&gt;Node24</title>
<g id="a_edge34_Node000030_Node000024"><a xlink:title=" ">
<path fill="none" stroke="#63b8ff" d="M1895.06,-132.18C1873.16,-120.99 1837.1,-102.55 1811.65,-89.53"/>
<polygon fill="#63b8ff" stroke="#63b8ff" points="1813.31,-86.45 1802.81,-85.02 1810.12,-92.69 1813.31,-86.45"/>
</a>
</g>
</g>
<!-- Node30&#45;&gt;Node31 -->
<g id="edge37_Node000030_Node000031" class="edge">
<title>Node30&#45;&gt;Node31</title>
<g id="a_edge37_Node000030_Node000031"><a xlink:title=" ">
<path fill="none" stroke="#63b8ff" d="M1955.55,-132.18C2005.92,-120.21 2091.13,-99.96 2146.01,-86.92"/>
<polygon fill="#63b8ff" stroke="#63b8ff" points="2146.51,-90.39 2155.43,-84.68 2144.89,-83.58 2146.51,-90.39"/>
</a>
</g>
</g>
<!-- Node32 -->
<g id="Node000032" class="node">
<title>Node32</title>
<g id="a_Node000032"><a xlink:title=" ">
<polygon fill="#e0e0e0" stroke="#999999" points="1975.75,-83.88 1860.75,-83.88 1860.75,-63.12 1975.75,-63.12 1975.75,-83.88"/>
<text text-anchor="middle" x="1918.25" y="-70.38" font-family="Helvetica,sans-Serif" font-size="10.00">llvm/ADT/ArrayRef.h</text>
</a>
</g>
</g>
<!-- Node30&#45;&gt;Node32 -->
<g id="edge38_Node000030_Node000032" class="edge">
<title>Node30&#45;&gt;Node32</title>
<g id="a_edge38_Node000030_Node000032"><a xlink:title=" ">
<path fill="none" stroke="#63b8ff" d="M1914.82,-132.33C1915.39,-122.71 1916.29,-107.63 1917.02,-95.29"/>
<polygon fill="#63b8ff" stroke="#63b8ff" points="1920.49,-95.85 1917.59,-85.66 1913.5,-95.44 1920.49,-95.85"/>
</a>
</g>
</g>
<!-- Node33 -->
<g id="Node000033" class="node">
<title>Node33</title>
<g id="a_Node000033"><a xlink:title=" ">
<polygon fill="#e0e0e0" stroke="#999999" points="2118.62,-83.88 1993.88,-83.88 1993.88,-63.12 2118.62,-63.12 2118.62,-83.88"/>
<text text-anchor="middle" x="2056.25" y="-70.38" font-family="Helvetica,sans-Serif" font-size="10.00">llvm/ADT/DenseMap.h</text>
</a>
</g>
</g>
<!-- Node30&#45;&gt;Node33 -->
<g id="edge39_Node000030_Node000033" class="edge">
<title>Node30&#45;&gt;Node33</title>
<g id="a_edge39_Node000030_Node000033"><a xlink:title=" ">
<path fill="none" stroke="#63b8ff" d="M1934.9,-132.18C1958.67,-120.89 1997.94,-102.22 2025.35,-89.19"/>
<polygon fill="#63b8ff" stroke="#63b8ff" points="2026.68,-92.43 2034.21,-84.98 2023.68,-86.11 2026.68,-92.43"/>
</a>
</g>
</g>
<!-- Node30&#45;&gt;Node34 -->
<g id="edge40_Node000030_Node000034" class="edge">
<title>Node30&#45;&gt;Node34</title>
<g id="a_edge40_Node000030_Node000034"><a xlink:title=" ">
<path fill="none" stroke="#63b8ff" d="M1974.32,-133.49C2067.72,-120.23 2240.02,-95.57 2268.25,-90.25 2273.84,-89.2 2279.66,-88 2285.45,-86.75"/>
<polygon fill="#63b8ff" stroke="#63b8ff" points="2285.98,-90.22 2294.98,-84.63 2284.45,-83.38 2285.98,-90.22"/>
</a>
</g>
</g>
</g>
</svg>
