<?xml version="1.0" encoding="UTF-8" standalone="no"?>
<!DOCTYPE svg PUBLIC "-//W3C//DTD SVG 1.1//EN"
 "http://www.w3.org/Graphics/SVG/1.1/DTD/svg11.dtd">
<!-- Generated by graphviz version 12.2.1 (0)
 -->
<!-- Title: include/llzk/Dialect/Polymorphic/IR/Ops.h Pages: 1 -->
<svg width="2552pt" height="307pt"
 viewBox="0.00 0.00 2551.75 306.75" xmlns="http://www.w3.org/2000/svg" xmlns:xlink="http://www.w3.org/1999/xlink">
<g id="graph0" class="graph" transform="scale(1 1) rotate(0) translate(4 302.75)">
<title>include/llzk/Dialect/Polymorphic/IR/Ops.h</title>
<!-- Node1 -->
<g id="Node000001" class="node">
<title>Node1</title>
<g id="a_Node000001"><a xlink:title=" ">
<polygon fill="#999999" stroke="#666666" points="1498.88,-298.75 1375.62,-298.75 1375.62,-265.25 1498.88,-265.25 1498.88,-298.75"/>
<text text-anchor="start" x="1383.62" y="-285.25" font-family="Helvetica,sans-Serif" font-size="10.00">include/llzk/Dialect</text>
<text text-anchor="middle" x="1437.25" y="-272.5" font-family="Helvetica,sans-Serif" font-size="10.00">/Polymorphic/IR/Ops.h</text>
</a>
</g>
</g>
<!-- Node2 -->
<g id="Node000002" class="node">
<title>Node2</title>
<g id="a_Node000002"><a xlink:href="Polymorphic_2IR_2Dialect_8h.html" target="_top" xlink:title=" ">
<polygon fill="white" stroke="#666666" points="267.5,-159.75 133,-159.75 133,-126.25 267.5,-126.25 267.5,-159.75"/>
<text text-anchor="start" x="141" y="-146.25" font-family="Helvetica,sans-Serif" font-size="10.00">llzk/Dialect/Polymorphic</text>
<text text-anchor="middle" x="200.25" y="-133.5" font-family="Helvetica,sans-Serif" font-size="10.00">/IR/Dialect.h</text>
</a>
</g>
</g>
<!-- Node1&#45;&gt;Node2 -->
<g id="edge1_Node000001_Node000002" class="edge">
<title>Node1&#45;&gt;Node2</title>
<g id="a_edge1_Node000001_Node000002"><a xlink:title=" ">
<path fill="none" stroke="#63b8ff" d="M1375.5,-280.88C1150.57,-280.07 383.03,-274.02 283.25,-229.25 255.07,-216.6 231.49,-189.65 216.75,-169.41"/>
<polygon fill="#63b8ff" stroke="#63b8ff" points="219.72,-167.54 211.12,-161.35 213.98,-171.55 219.72,-167.54"/>
</a>
</g>
</g>
<!-- Node5 -->
<g id="Node000005" class="node">
<title>Node5</title>
<g id="a_Node000005"><a xlink:href="Polymorphic_2IR_2Types_8h.html" target="_top" xlink:title=" ">
<polygon fill="white" stroke="#666666" points="426.5,-229.25 292,-229.25 292,-195.75 426.5,-195.75 426.5,-229.25"/>
<text text-anchor="start" x="300" y="-215.75" font-family="Helvetica,sans-Serif" font-size="10.00">llzk/Dialect/Polymorphic</text>
<text text-anchor="middle" x="359.25" y="-203" font-family="Helvetica,sans-Serif" font-size="10.00">/IR/Types.h</text>
</a>
</g>
</g>
<!-- Node1&#45;&gt;Node5 -->
<g id="edge4_Node000001_Node000005" class="edge">
<title>Node1&#45;&gt;Node5</title>
<g id="a_edge4_Node000001_Node000005"><a xlink:title=" ">
<path fill="none" stroke="#63b8ff" d="M1375.42,-277.13C1190.79,-265.57 643.58,-231.3 438.26,-218.45"/>
<polygon fill="#63b8ff" stroke="#63b8ff" points="438.7,-214.97 428.5,-217.84 438.26,-221.95 438.7,-214.97"/>
</a>
</g>
</g>
<!-- Node7 -->
<g id="Node000007" class="node">
<title>Node7</title>
<g id="a_Node000007"><a xlink:href="OpHelpers_8h.html" target="_top" xlink:title=" ">
<polygon fill="white" stroke="#666666" points="1286,-229.25 1178.5,-229.25 1178.5,-195.75 1286,-195.75 1286,-229.25"/>
<text text-anchor="start" x="1186.5" y="-215.75" font-family="Helvetica,sans-Serif" font-size="10.00">llzk/Dialect/Shared</text>
<text text-anchor="middle" x="1232.25" y="-203" font-family="Helvetica,sans-Serif" font-size="10.00">/OpHelpers.h</text>
</a>
</g>
</g>
<!-- Node1&#45;&gt;Node7 -->
<g id="edge7_Node000001_Node000007" class="edge">
<title>Node1&#45;&gt;Node7</title>
<g id="a_edge7_Node000001_Node000007"><a xlink:title=" ">
<path fill="none" stroke="#63b8ff" d="M1388.15,-264.83C1359.35,-255.35 1322.74,-243.3 1292.24,-233.25"/>
<polygon fill="#63b8ff" stroke="#63b8ff" points="1293.34,-229.93 1282.74,-230.13 1291.15,-236.58 1293.34,-229.93"/>
</a>
</g>
</g>
<!-- Node37 -->
<g id="Node000037" class="node">
<title>Node37</title>
<g id="a_Node000037"><a xlink:title=" ">
<polygon fill="#e0e0e0" stroke="#999999" points="1420.88,-229.25 1303.62,-229.25 1303.62,-195.75 1420.88,-195.75 1420.88,-229.25"/>
<text text-anchor="start" x="1311.62" y="-215.75" font-family="Helvetica,sans-Serif" font-size="10.00">mlir/Dialect/Affine</text>
<text text-anchor="middle" x="1362.25" y="-203" font-family="Helvetica,sans-Serif" font-size="10.00">/IR/AffineValueMap.h</text>
</a>
</g>
</g>
<!-- Node1&#45;&gt;Node37 -->
<g id="edge46_Node000001_Node000037" class="edge">
<title>Node1&#45;&gt;Node37</title>
<g id="a_edge46_Node000001_Node000037"><a xlink:title=" ">
<path fill="none" stroke="#63b8ff" d="M1419.48,-265C1410.2,-256.66 1398.68,-246.29 1388.41,-237.05"/>
<polygon fill="#63b8ff" stroke="#63b8ff" points="1391.06,-234.72 1381.28,-230.63 1386.37,-239.92 1391.06,-234.72"/>
</a>
</g>
</g>
<!-- Node38 -->
<g id="Node000038" class="node">
<title>Node38</title>
<g id="a_Node000038"><a xlink:title=" ">
<polygon fill="#e0e0e0" stroke="#999999" points="1587.62,-229.25 1438.88,-229.25 1438.88,-195.75 1587.62,-195.75 1587.62,-229.25"/>
<text text-anchor="start" x="1446.88" y="-215.75" font-family="Helvetica,sans-Serif" font-size="10.00">mlir/Interfaces/ControlFlow</text>
<text text-anchor="middle" x="1513.25" y="-203" font-family="Helvetica,sans-Serif" font-size="10.00">Interfaces.h</text>
</a>
</g>
</g>
<!-- Node1&#45;&gt;Node38 -->
<g id="edge47_Node000001_Node000038" class="edge">
<title>Node1&#45;&gt;Node38</title>
<g id="a_edge47_Node000001_Node000038"><a xlink:title=" ">
<path fill="none" stroke="#63b8ff" d="M1455.26,-265C1464.66,-256.66 1476.33,-246.29 1486.74,-237.05"/>
<polygon fill="#63b8ff" stroke="#63b8ff" points="1488.82,-239.88 1493.97,-230.62 1484.17,-234.64 1488.82,-239.88"/>
</a>
</g>
</g>
<!-- Node39 -->
<g id="Node000039" class="node">
<title>Node39</title>
<g id="a_Node000039"><a xlink:title=" ">
<polygon fill="#e0e0e0" stroke="#999999" points="1740.88,-229.25 1605.62,-229.25 1605.62,-195.75 1740.88,-195.75 1740.88,-229.25"/>
<text text-anchor="start" x="1613.62" y="-215.75" font-family="Helvetica,sans-Serif" font-size="10.00">mlir/Interfaces/InferType</text>
<text text-anchor="middle" x="1673.25" y="-203" font-family="Helvetica,sans-Serif" font-size="10.00">OpInterface.h</text>
</a>
</g>
</g>
<!-- Node1&#45;&gt;Node39 -->
<g id="edge48_Node000001_Node000039" class="edge">
<title>Node1&#45;&gt;Node39</title>
<g id="a_edge48_Node000001_Node000039"><a xlink:title=" ">
<path fill="none" stroke="#63b8ff" d="M1493.78,-264.83C1527.52,-255.18 1570.55,-242.87 1606.03,-232.73"/>
<polygon fill="#63b8ff" stroke="#63b8ff" points="1606.67,-236.18 1615.32,-230.07 1604.74,-229.45 1606.67,-236.18"/>
</a>
</g>
</g>
<!-- Node40 -->
<g id="Node000040" class="node">
<title>Node40</title>
<g id="a_Node000040"><a xlink:href="Polymorphic_2IR_2OpInterfaces_8h_8inc.html" target="_top" xlink:title=" ">
<polygon fill="white" stroke="#666666" points="1893.5,-229.25 1759,-229.25 1759,-195.75 1893.5,-195.75 1893.5,-229.25"/>
<text text-anchor="start" x="1767" y="-215.75" font-family="Helvetica,sans-Serif" font-size="10.00">llzk/Dialect/Polymorphic</text>
<text text-anchor="middle" x="1826.25" y="-203" font-family="Helvetica,sans-Serif" font-size="10.00">/IR/OpInterfaces.h.inc</text>
</a>
</g>
</g>
<!-- Node1&#45;&gt;Node40 -->
<g id="edge49_Node000001_Node000040" class="edge">
<title>Node1&#45;&gt;Node40</title>
<g id="a_edge49_Node000001_Node000040"><a xlink:title=" ">
<path fill="none" stroke="#63b8ff" d="M1499.14,-271.52C1559.91,-262.05 1655.51,-246.69 1747.53,-229.72"/>
<polygon fill="#63b8ff" stroke="#63b8ff" points="1748.05,-233.18 1757.24,-227.92 1746.77,-226.3 1748.05,-233.18"/>
</a>
</g>
</g>
<!-- Node41 -->
<g id="Node000041" class="node">
<title>Node41</title>
<g id="a_Node000041"><a xlink:href="Polymorphic_2IR_2Ops_8h_8inc.html" target="_top" xlink:title=" ">
<polygon fill="white" stroke="#666666" points="2046.5,-229.25 1912,-229.25 1912,-195.75 2046.5,-195.75 2046.5,-229.25"/>
<text text-anchor="start" x="1920" y="-215.75" font-family="Helvetica,sans-Serif" font-size="10.00">llzk/Dialect/Polymorphic</text>
<text text-anchor="middle" x="1979.25" y="-203" font-family="Helvetica,sans-Serif" font-size="10.00">/IR/Ops.h.inc</text>
</a>
</g>
</g>
<!-- Node1&#45;&gt;Node41 -->
<g id="edge50_Node000001_Node000041" class="edge">
<title>Node1&#45;&gt;Node41</title>
<g id="a_edge50_Node000001_Node000041"><a xlink:title=" ">
<path fill="none" stroke="#63b8ff" d="M1499.17,-275.91C1586.33,-268.36 1750.37,-252.67 1900.47,-229.44"/>
<polygon fill="#63b8ff" stroke="#63b8ff" points="1900.87,-232.92 1910.21,-227.91 1899.79,-226 1900.87,-232.92"/>
</a>
</g>
</g>
<!-- Node3 -->
<g id="Node000003" class="node">
<title>Node3</title>
<g id="a_Node000003"><a xlink:title=" ">
<polygon fill="#e0e0e0" stroke="#999999" points="110.5,-83.88 0,-83.88 0,-63.12 110.5,-63.12 110.5,-83.88"/>
<text text-anchor="middle" x="55.25" y="-70.38" font-family="Helvetica,sans-Serif" font-size="10.00">mlir/IR/BuiltinOps.h</text>
</a>
</g>
</g>
<!-- Node2&#45;&gt;Node3 -->
<g id="edge2_Node000002_Node000003" class="edge">
<title>Node2&#45;&gt;Node3</title>
<g id="a_edge2_Node000002_Node000003"><a xlink:title=" ">
<path fill="none" stroke="#63b8ff" d="M165.52,-125.83C141.51,-114.65 109.82,-99.9 86.58,-89.09"/>
<polygon fill="#63b8ff" stroke="#63b8ff" points="88.15,-85.96 77.61,-84.91 85.2,-92.3 88.15,-85.96"/>
</a>
</g>
</g>
<!-- Node4 -->
<g id="Node000004" class="node">
<title>Node4</title>
<g id="a_Node000004"><a xlink:href="Polymorphic_2IR_2Dialect_8h_8inc.html" target="_top" xlink:title=" ">
<polygon fill="white" stroke="#666666" points="263.5,-90.25 129,-90.25 129,-56.75 263.5,-56.75 263.5,-90.25"/>
<text text-anchor="start" x="137" y="-76.75" font-family="Helvetica,sans-Serif" font-size="10.00">llzk/Dialect/Polymorphic</text>
<text text-anchor="middle" x="196.25" y="-64" font-family="Helvetica,sans-Serif" font-size="10.00">/IR/Dialect.h.inc</text>
</a>
</g>
</g>
<!-- Node2&#45;&gt;Node4 -->
<g id="edge3_Node000002_Node000004" class="edge">
<title>Node2&#45;&gt;Node4</title>
<g id="a_edge3_Node000002_Node000004"><a xlink:title=" ">
<path fill="none" stroke="#63b8ff" d="M199.3,-126C198.87,-118.77 198.36,-110.03 197.87,-101.81"/>
<polygon fill="#63b8ff" stroke="#63b8ff" points="201.37,-101.67 197.28,-91.89 194.38,-102.08 201.37,-101.67"/>
</a>
</g>
</g>
<!-- Node5&#45;&gt;Node2 -->
<g id="edge5_Node000005_Node000002" class="edge">
<title>Node5&#45;&gt;Node2</title>
<g id="a_edge5_Node000005_Node000002"><a xlink:title=" ">
<path fill="none" stroke="#63b8ff" d="M321.17,-195.33C299.42,-186.1 271.93,-174.43 248.66,-164.55"/>
<polygon fill="#63b8ff" stroke="#63b8ff" points="250.26,-161.43 239.69,-160.74 247.53,-167.87 250.26,-161.43"/>
</a>
</g>
</g>
<!-- Node6 -->
<g id="Node000006" class="node">
<title>Node6</title>
<g id="a_Node000006"><a xlink:href="Polymorphic_2IR_2Types_8h_8inc.html" target="_top" xlink:title=" ">
<polygon fill="white" stroke="#666666" points="426.5,-159.75 292,-159.75 292,-126.25 426.5,-126.25 426.5,-159.75"/>
<text text-anchor="start" x="300" y="-146.25" font-family="Helvetica,sans-Serif" font-size="10.00">llzk/Dialect/Polymorphic</text>
<text text-anchor="middle" x="359.25" y="-133.5" font-family="Helvetica,sans-Serif" font-size="10.00">/IR/Types.h.inc</text>
</a>
</g>
</g>
<!-- Node5&#45;&gt;Node6 -->
<g id="edge6_Node000005_Node000006" class="edge">
<title>Node5&#45;&gt;Node6</title>
<g id="a_edge6_Node000005_Node000006"><a xlink:title=" ">
<path fill="none" stroke="#63b8ff" d="M359.25,-195.5C359.25,-188.27 359.25,-179.53 359.25,-171.31"/>
<polygon fill="#63b8ff" stroke="#63b8ff" points="362.75,-171.4 359.25,-161.4 355.75,-171.4 362.75,-171.4"/>
</a>
</g>
</g>
<!-- Node8 -->
<g id="Node000008" class="node">
<title>Node8</title>
<g id="a_Node000008"><a xlink:href="AttributeHelper_8h.html" target="_top" xlink:title=" ">
<polygon fill="white" stroke="#666666" points="689.5,-159.75 579,-159.75 579,-126.25 689.5,-126.25 689.5,-159.75"/>
<text text-anchor="start" x="587" y="-146.25" font-family="Helvetica,sans-Serif" font-size="10.00">llzk/Dialect/LLZK/IR</text>
<text text-anchor="middle" x="634.25" y="-133.5" font-family="Helvetica,sans-Serif" font-size="10.00">/AttributeHelper.h</text>
</a>
</g>
</g>
<!-- Node7&#45;&gt;Node8 -->
<g id="edge8_Node000007_Node000008" class="edge">
<title>Node7&#45;&gt;Node8</title>
<g id="a_edge8_Node000007_Node000008"><a xlink:title=" ">
<path fill="none" stroke="#63b8ff" d="M1178.13,-205.39C1068.53,-193.02 820.64,-165.04 701.14,-151.55"/>
<polygon fill="#63b8ff" stroke="#63b8ff" points="701.82,-148.1 691.49,-150.46 701.03,-155.06 701.82,-148.1"/>
</a>
</g>
</g>
<!-- Node13 -->
<g id="Node000013" class="node">
<title>Node13</title>
<g id="a_Node000013"><a xlink:href="AffineHelper_8h.html" target="_top" xlink:title=" ">
<polygon fill="white" stroke="#666666" points="1122,-153.38 996.5,-153.38 996.5,-132.62 1122,-132.62 1122,-153.38"/>
<text text-anchor="middle" x="1059.25" y="-139.88" font-family="Helvetica,sans-Serif" font-size="10.00">llzk/Util/AffineHelper.h</text>
</a>
</g>
</g>
<!-- Node7&#45;&gt;Node13 -->
<g id="edge13_Node000007_Node000013" class="edge">
<title>Node7&#45;&gt;Node13</title>
<g id="a_edge13_Node000007_Node000013"><a xlink:title=" ">
<path fill="none" stroke="#63b8ff" d="M1190.81,-195.33C1161.6,-183.94 1122.88,-168.83 1095.02,-157.96"/>
<polygon fill="#63b8ff" stroke="#63b8ff" points="1096.54,-154.79 1085.96,-154.42 1094,-161.32 1096.54,-154.79"/>
</a>
</g>
</g>
<!-- Node15 -->
<g id="Node000015" class="node">
<title>Node15</title>
<g id="a_Node000015"><a xlink:title=" ">
<polygon fill="#e0e0e0" stroke="#999999" points="1816.38,-20.75 1708.12,-20.75 1708.12,0 1816.38,0 1816.38,-20.75"/>
<text text-anchor="middle" x="1762.25" y="-7.25" font-family="Helvetica,sans-Serif" font-size="10.00">mlir/IR/Operation.h</text>
</a>
</g>
</g>
<!-- Node7&#45;&gt;Node15 -->
<g id="edge41_Node000007_Node000015" class="edge">
<title>Node7&#45;&gt;Node15</title>
<g id="a_edge41_Node000007_Node000015"><a xlink:title=" ">
<path fill="none" stroke="#63b8ff" d="M1286.23,-197.17C1288.93,-196.65 1291.62,-196.17 1294.25,-195.75 1463.3,-168.93 1956.26,-228.45 2057.25,-90.25 2066.03,-78.23 2066.94,-68.05 2057.25,-56.75 2042.51,-39.57 1910.39,-24.7 1828.04,-16.99"/>
<polygon fill="#63b8ff" stroke="#63b8ff" points="1828.55,-13.52 1818.27,-16.09 1827.91,-20.49 1828.55,-13.52"/>
</a>
</g>
</g>
<!-- Node19 -->
<g id="Node000019" class="node">
<title>Node19</title>
<g id="a_Node000019"><a xlink:title=" ">
<polygon fill="#e0e0e0" stroke="#999999" points="1458.12,-83.88 1306.38,-83.88 1306.38,-63.12 1458.12,-63.12 1458.12,-83.88"/>
<text text-anchor="middle" x="1382.25" y="-70.38" font-family="Helvetica,sans-Serif" font-size="10.00">mlir/IR/OpImplementation.h</text>
</a>
</g>
</g>
<!-- Node7&#45;&gt;Node19 -->
<g id="edge40_Node000007_Node000019" class="edge">
<title>Node7&#45;&gt;Node19</title>
<g id="a_edge40_Node000007_Node000019"><a xlink:title=" ">
<path fill="none" stroke="#63b8ff" d="M1208.16,-195.34C1185.06,-177.86 1156.17,-149.38 1174.25,-126.25 1183.26,-114.72 1259.7,-97.83 1317.32,-86.51"/>
<polygon fill="#63b8ff" stroke="#63b8ff" points="1317.93,-89.96 1327.08,-84.61 1316.59,-83.09 1317.93,-89.96"/>
</a>
</g>
</g>
<!-- Node22 -->
<g id="Node000022" class="node">
<title>Node22</title>
<g id="a_Node000022"><a xlink:href="llzk_2Util_2Constants_8h.html" target="_top" xlink:title=" ">
<polygon fill="white" stroke="#666666" points="561.38,-153.38 447.12,-153.38 447.12,-132.62 561.38,-132.62 561.38,-153.38"/>
<text text-anchor="middle" x="504.25" y="-139.88" font-family="Helvetica,sans-Serif" font-size="10.00">llzk/Util/Constants.h</text>
</a>
</g>
</g>
<!-- Node7&#45;&gt;Node22 -->
<g id="edge23_Node000007_Node000022" class="edge">
<title>Node7&#45;&gt;Node22</title>
<g id="a_edge23_Node000007_Node000022"><a xlink:title=" ">
<path fill="none" stroke="#63b8ff" d="M1178.29,-210.13C1064.99,-206.64 794.31,-195.02 570.25,-159.75 564.29,-158.81 558.07,-157.62 551.93,-156.31"/>
<polygon fill="#63b8ff" stroke="#63b8ff" points="553.05,-152.97 542.53,-154.19 551.51,-159.8 553.05,-152.97"/>
</a>
</g>
</g>
<!-- Node23 -->
<g id="Node000023" class="node">
<title>Node23</title>
<g id="a_Node000023"><a xlink:href="ErrorHelper_8h.html" target="_top" xlink:title=" ">
<polygon fill="white" stroke="#666666" points="2224.38,-83.88 2104.12,-83.88 2104.12,-63.12 2224.38,-63.12 2224.38,-83.88"/>
<text text-anchor="middle" x="2164.25" y="-70.38" font-family="Helvetica,sans-Serif" font-size="10.00">llzk/Util/ErrorHelper.h</text>
</a>
</g>
</g>
<!-- Node7&#45;&gt;Node23 -->
<g id="edge24_Node000007_Node000023" class="edge">
<title>Node7&#45;&gt;Node23</title>
<g id="a_edge24_Node000007_Node000023"><a xlink:title=" ">
<path fill="none" stroke="#63b8ff" d="M1286.22,-197.1C1288.93,-196.6 1291.61,-196.14 1294.25,-195.75 1381.83,-182.78 2010.55,-198.3 2090.25,-159.75 2119.26,-145.72 2141.54,-114.53 2153.76,-94.03"/>
<polygon fill="#63b8ff" stroke="#63b8ff" points="2156.72,-95.91 2158.61,-85.48 2150.63,-92.45 2156.72,-95.91"/>
</a>
</g>
</g>
<!-- Node29 -->
<g id="Node000029" class="node">
<title>Node29</title>
<g id="a_Node000029"><a xlink:href="TypeHelper_8h.html" target="_top" xlink:title=" ">
<polygon fill="white" stroke="#666666" points="1830,-153.38 1710.5,-153.38 1710.5,-132.62 1830,-132.62 1830,-153.38"/>
<text text-anchor="middle" x="1770.25" y="-139.88" font-family="Helvetica,sans-Serif" font-size="10.00">llzk/Util/TypeHelper.h</text>
</a>
</g>
</g>
<!-- Node7&#45;&gt;Node29 -->
<g id="edge31_Node000007_Node000029" class="edge">
<title>Node7&#45;&gt;Node29</title>
<g id="a_edge31_Node000007_Node000029"><a xlink:title=" ">
<path fill="none" stroke="#63b8ff" d="M1286.24,-197.24C1288.94,-196.7 1291.62,-196.2 1294.25,-195.75 1471.07,-165.57 1518.87,-186.47 1696.25,-159.75 1703.15,-158.71 1710.38,-157.42 1717.5,-156.04"/>
<polygon fill="#63b8ff" stroke="#63b8ff" points="1717.95,-159.52 1727.05,-154.1 1716.56,-152.66 1717.95,-159.52"/>
</a>
</g>
</g>
<!-- Node30 -->
<g id="Node000030" class="node">
<title>Node30</title>
<g id="a_Node000030"><a xlink:title=" ">
<polygon fill="#e0e0e0" stroke="#999999" points="1598.5,-83.88 1476,-83.88 1476,-63.12 1598.5,-63.12 1598.5,-83.88"/>
<text text-anchor="middle" x="1537.25" y="-70.38" font-family="Helvetica,sans-Serif" font-size="10.00">mlir/IR/SymbolTable.h</text>
</a>
</g>
</g>
<!-- Node7&#45;&gt;Node30 -->
<g id="edge42_Node000007_Node000030" class="edge">
<title>Node7&#45;&gt;Node30</title>
<g id="a_edge42_Node000007_Node000030"><a xlink:title=" ">
<path fill="none" stroke="#63b8ff" d="M1219.62,-195.46C1206.51,-176.76 1190.13,-145.9 1207.25,-126.25 1245.56,-82.27 1409.86,-100.66 1467.25,-90.25 1473.15,-89.18 1479.3,-87.96 1485.41,-86.67"/>
<polygon fill="#63b8ff" stroke="#63b8ff" points="1485.77,-90.18 1494.8,-84.64 1484.29,-83.33 1485.77,-90.18"/>
</a>
</g>
</g>
<!-- Node33 -->
<g id="Node000033" class="node">
<title>Node33</title>
<g id="a_Node000033"><a xlink:title=" ">
<polygon fill="#e0e0e0" stroke="#999999" points="1733.88,-83.88 1616.62,-83.88 1616.62,-63.12 1733.88,-63.12 1733.88,-83.88"/>
<text text-anchor="middle" x="1675.25" y="-70.38" font-family="Helvetica,sans-Serif" font-size="10.00">llvm/ADT/StringRef.h</text>
</a>
</g>
</g>
<!-- Node7&#45;&gt;Node33 -->
<g id="edge45_Node000007_Node000033" class="edge">
<title>Node7&#45;&gt;Node33</title>
<g id="a_edge45_Node000007_Node000033"><a xlink:title=" ">
<path fill="none" stroke="#63b8ff" d="M1286.25,-197.27C1288.95,-196.72 1291.62,-196.21 1294.25,-195.75 1375.41,-181.57 1603.76,-216.75 1663.25,-159.75 1680.25,-143.46 1680.87,-114.95 1678.84,-95.42"/>
<polygon fill="#63b8ff" stroke="#63b8ff" points="1682.31,-95.02 1677.47,-85.6 1675.38,-95.98 1682.31,-95.02"/>
</a>
</g>
</g>
<!-- Node34 -->
<g id="Node000034" class="node">
<title>Node34</title>
<g id="a_Node000034"><a xlink:title=" ">
<polygon fill="#e0e0e0" stroke="#999999" points="1336,-153.38 1216.5,-153.38 1216.5,-132.62 1336,-132.62 1336,-153.38"/>
<text text-anchor="middle" x="1276.25" y="-139.88" font-family="Helvetica,sans-Serif" font-size="10.00">mlir/IR/BuiltinTypes.h</text>
</a>
</g>
</g>
<!-- Node7&#45;&gt;Node34 -->
<g id="edge39_Node000007_Node000034" class="edge">
<title>Node7&#45;&gt;Node34</title>
<g id="a_edge39_Node000007_Node000034"><a xlink:title=" ">
<path fill="none" stroke="#63b8ff" d="M1242.68,-195.5C1248.94,-185.9 1256.95,-173.61 1263.58,-163.44"/>
<polygon fill="#63b8ff" stroke="#63b8ff" points="1266.49,-165.38 1269.02,-155.09 1260.63,-161.56 1266.49,-165.38"/>
</a>
</g>
</g>
<!-- Node35 -->
<g id="Node000035" class="node">
<title>Node35</title>
<g id="a_Node000035"><a xlink:title=" ">
<polygon fill="#e0e0e0" stroke="#999999" points="1506.88,-153.38 1353.62,-153.38 1353.62,-132.62 1506.88,-132.62 1506.88,-153.38"/>
<text text-anchor="middle" x="1430.25" y="-139.88" font-family="Helvetica,sans-Serif" font-size="10.00">mlir/Support/LogicalResult.h</text>
</a>
</g>
</g>
<!-- Node7&#45;&gt;Node35 -->
<g id="edge43_Node000007_Node000035" class="edge">
<title>Node7&#45;&gt;Node35</title>
<g id="a_edge43_Node000007_Node000035"><a xlink:title=" ">
<path fill="none" stroke="#63b8ff" d="M1279.68,-195.33C1313.55,-183.78 1358.6,-168.43 1390.58,-157.53"/>
<polygon fill="#63b8ff" stroke="#63b8ff" points="1391.53,-160.9 1399.87,-154.36 1389.27,-154.27 1391.53,-160.9"/>
</a>
</g>
</g>
<!-- Node36 -->
<g id="Node000036" class="node">
<title>Node36</title>
<g id="a_Node000036"><a xlink:title=" ">
<polygon fill="#e0e0e0" stroke="#999999" points="1653.88,-153.38 1524.62,-153.38 1524.62,-132.62 1653.88,-132.62 1653.88,-153.38"/>
<text text-anchor="middle" x="1589.25" y="-139.88" font-family="Helvetica,sans-Serif" font-size="10.00">llvm/ADT/SmallString.h</text>
</a>
</g>
</g>
<!-- Node7&#45;&gt;Node36 -->
<g id="edge44_Node000007_Node000036" class="edge">
<title>Node7&#45;&gt;Node36</title>
<g id="a_edge44_Node000007_Node000036"><a xlink:title=" ">
<path fill="none" stroke="#63b8ff" d="M1286.29,-197.47C1288.97,-196.87 1291.64,-196.29 1294.25,-195.75 1392.12,-175.43 1418.03,-178.3 1516.25,-159.75 1522.14,-158.64 1528.29,-157.41 1534.4,-156.15"/>
<polygon fill="#63b8ff" stroke="#63b8ff" points="1534.77,-159.65 1543.84,-154.17 1533.33,-152.8 1534.77,-159.65"/>
</a>
</g>
</g>
<!-- Node9 -->
<g id="Node000009" class="node">
<title>Node9</title>
<g id="a_Node000009"><a xlink:href="StreamHelper_8h.html" target="_top" xlink:title=" ">
<polygon fill="white" stroke="#666666" points="413.38,-83.88 281.12,-83.88 281.12,-63.12 413.38,-63.12 413.38,-83.88"/>
<text text-anchor="middle" x="347.25" y="-70.38" font-family="Helvetica,sans-Serif" font-size="10.00">llzk/Util/StreamHelper.h</text>
</a>
</g>
</g>
<!-- Node8&#45;&gt;Node9 -->
<g id="edge9_Node000008_Node000009" class="edge">
<title>Node8&#45;&gt;Node9</title>
<g id="a_edge9_Node000008_Node000009"><a xlink:title=" ">
<path fill="none" stroke="#63b8ff" d="M578.76,-128.3C575.88,-127.6 573.03,-126.92 570.25,-126.25 512.7,-112.49 446.66,-97.23 401.48,-86.87"/>
<polygon fill="#63b8ff" stroke="#63b8ff" points="402.46,-83.51 391.93,-84.69 400.9,-90.33 402.46,-83.51"/>
</a>
</g>
</g>
<!-- Node11 -->
<g id="Node000011" class="node">
<title>Node11</title>
<g id="a_Node000011"><a xlink:title=" ">
<polygon fill="#e0e0e0" stroke="#999999" points="720.62,-83.88 547.88,-83.88 547.88,-63.12 720.62,-63.12 720.62,-83.88"/>
<text text-anchor="middle" x="634.25" y="-70.38" font-family="Helvetica,sans-Serif" font-size="10.00">mlir/IR/DialectImplementation.h</text>
</a>
</g>
</g>
<!-- Node8&#45;&gt;Node11 -->
<g id="edge11_Node000008_Node000011" class="edge">
<title>Node8&#45;&gt;Node11</title>
<g id="a_edge11_Node000008_Node000011"><a xlink:title=" ">
<path fill="none" stroke="#63b8ff" d="M634.25,-126C634.25,-116.9 634.25,-105.39 634.25,-95.57"/>
<polygon fill="#63b8ff" stroke="#63b8ff" points="637.75,-95.84 634.25,-85.84 630.75,-95.84 637.75,-95.84"/>
</a>
</g>
</g>
<!-- Node12 -->
<g id="Node000012" class="node">
<title>Node12</title>
<g id="a_Node000012"><a xlink:title=" ">
<polygon fill="#e0e0e0" stroke="#999999" points="529.5,-83.88 431,-83.88 431,-63.12 529.5,-63.12 529.5,-83.88"/>
<text text-anchor="middle" x="480.25" y="-70.38" font-family="Helvetica,sans-Serif" font-size="10.00">llvm/ADT/APInt.h</text>
</a>
</g>
</g>
<!-- Node8&#45;&gt;Node12 -->
<g id="edge12_Node000008_Node000012" class="edge">
<title>Node8&#45;&gt;Node12</title>
<g id="a_edge12_Node000008_Node000012"><a xlink:title=" ">
<path fill="none" stroke="#63b8ff" d="M597.36,-125.83C571.63,-114.55 537.6,-99.64 512.86,-88.79"/>
<polygon fill="#63b8ff" stroke="#63b8ff" points="514.49,-85.69 503.93,-84.88 511.68,-92.1 514.49,-85.69"/>
</a>
</g>
</g>
<!-- Node10 -->
<g id="Node000010" class="node">
<title>Node10</title>
<g id="a_Node000010"><a xlink:title=" ">
<polygon fill="#e0e0e0" stroke="#999999" points="424.25,-20.75 270.25,-20.75 270.25,0 424.25,0 424.25,-20.75"/>
<text text-anchor="middle" x="347.25" y="-7.25" font-family="Helvetica,sans-Serif" font-size="10.00">llvm/Support/raw_ostream.h</text>
</a>
</g>
</g>
<!-- Node9&#45;&gt;Node10 -->
<g id="edge10_Node000009_Node000010" class="edge">
<title>Node9&#45;&gt;Node10</title>
<g id="a_edge10_Node000009_Node000010"><a xlink:title=" ">
<path fill="none" stroke="#63b8ff" d="M347.25,-62.68C347.25,-54.52 347.25,-42.63 347.25,-32.35"/>
<polygon fill="#63b8ff" stroke="#63b8ff" points="350.75,-32.48 347.25,-22.48 343.75,-32.48 350.75,-32.48"/>
</a>
</g>
</g>
<!-- Node14 -->
<g id="Node000014" class="node">
<title>Node14</title>
<g id="a_Node000014"><a xlink:href="Compare_8h.html" target="_top" xlink:title=" ">
<polygon fill="white" stroke="#666666" points="848.12,-83.88 738.38,-83.88 738.38,-63.12 848.12,-63.12 848.12,-83.88"/>
<text text-anchor="middle" x="793.25" y="-70.38" font-family="Helvetica,sans-Serif" font-size="10.00">llzk/Util/Compare.h</text>
</a>
</g>
</g>
<!-- Node13&#45;&gt;Node14 -->
<g id="edge14_Node000013_Node000014" class="edge">
<title>Node13&#45;&gt;Node14</title>
<g id="a_edge14_Node000013_Node000014"><a xlink:title=" ">
<path fill="none" stroke="#63b8ff" d="M1020.57,-132.18C973.59,-120.26 894.25,-100.13 842.82,-87.08"/>
<polygon fill="#63b8ff" stroke="#63b8ff" points="844,-83.77 833.44,-84.7 842.27,-90.55 844,-83.77"/>
</a>
</g>
</g>
<!-- Node13&#45;&gt;Node15 -->
<g id="edge20_Node000013_Node000015" class="edge">
<title>Node13&#45;&gt;Node15</title>
<g id="a_edge20_Node000013_Node000015"><a xlink:title=" ">
<path fill="none" stroke="#63b8ff" d="M1122.39,-133.46C1163.2,-126.1 1216.48,-112.95 1259.25,-90.25 1279.14,-79.7 1276.6,-65.72 1297.25,-56.75 1367.3,-26.31 1585.95,-16.1 1696.65,-12.83"/>
<polygon fill="#63b8ff" stroke="#63b8ff" points="1696.57,-16.33 1706.47,-12.55 1696.37,-9.34 1696.57,-16.33"/>
</a>
</g>
</g>
<!-- Node18 -->
<g id="Node000018" class="node">
<title>Node18</title>
<g id="a_Node000018"><a xlink:title=" ">
<polygon fill="#e0e0e0" stroke="#999999" points="1250.25,-83.88 1150.25,-83.88 1150.25,-63.12 1250.25,-63.12 1250.25,-83.88"/>
<text text-anchor="middle" x="1200.25" y="-70.38" font-family="Helvetica,sans-Serif" font-size="10.00">mlir/IR/Builders.h</text>
</a>
</g>
</g>
<!-- Node13&#45;&gt;Node18 -->
<g id="edge18_Node000013_Node000018" class="edge">
<title>Node13&#45;&gt;Node18</title>
<g id="a_edge18_Node000013_Node000018"><a xlink:title=" ">
<path fill="none" stroke="#63b8ff" d="M1079.75,-132.18C1103.35,-120.89 1142.35,-102.22 1169.57,-89.19"/>
<polygon fill="#63b8ff" stroke="#63b8ff" points="1170.85,-92.46 1178.36,-84.98 1167.83,-86.14 1170.85,-92.46"/>
</a>
</g>
</g>
<!-- Node13&#45;&gt;Node19 -->
<g id="edge19_Node000013_Node000019" class="edge">
<title>Node13&#45;&gt;Node19</title>
<g id="a_edge19_Node000013_Node000019"><a xlink:title=" ">
<path fill="none" stroke="#63b8ff" d="M1106.22,-132.18C1163.87,-120.14 1261.63,-99.71 1324.01,-86.67"/>
<polygon fill="#63b8ff" stroke="#63b8ff" points="1324.67,-90.11 1333.74,-84.64 1323.24,-83.26 1324.67,-90.11"/>
</a>
</g>
</g>
<!-- Node20 -->
<g id="Node000020" class="node">
<title>Node20</title>
<g id="a_Node000020"><a xlink:title=" ">
<polygon fill="#e0e0e0" stroke="#999999" points="984.25,-83.88 866.25,-83.88 866.25,-63.12 984.25,-63.12 984.25,-83.88"/>
<text text-anchor="middle" x="925.25" y="-70.38" font-family="Helvetica,sans-Serif" font-size="10.00">mlir/IR/ValueRange.h</text>
</a>
</g>
</g>
<!-- Node13&#45;&gt;Node20 -->
<g id="edge21_Node000013_Node000020" class="edge">
<title>Node13&#45;&gt;Node20</title>
<g id="a_edge21_Node000013_Node000020"><a xlink:title=" ">
<path fill="none" stroke="#63b8ff" d="M1039.77,-132.18C1017.44,-120.94 980.6,-102.38 954.75,-89.36"/>
<polygon fill="#63b8ff" stroke="#63b8ff" points="956.62,-86.38 946.11,-85.01 953.47,-92.63 956.62,-86.38"/>
</a>
</g>
</g>
<!-- Node21 -->
<g id="Node000021" class="node">
<title>Node21</title>
<g id="a_Node000021"><a xlink:title=" ">
<polygon fill="#e0e0e0" stroke="#999999" points="1132.62,-83.88 1001.88,-83.88 1001.88,-63.12 1132.62,-63.12 1132.62,-83.88"/>
<text text-anchor="middle" x="1067.25" y="-70.38" font-family="Helvetica,sans-Serif" font-size="10.00">llvm/ADT/SmallVector.h</text>
</a>
</g>
</g>
<!-- Node13&#45;&gt;Node21 -->
<g id="edge22_Node000013_Node000021" class="edge">
<title>Node13&#45;&gt;Node21</title>
<g id="a_edge22_Node000013_Node000021"><a xlink:title=" ">
<path fill="none" stroke="#63b8ff" d="M1060.4,-132.33C1061.54,-122.71 1063.32,-107.63 1064.79,-95.29"/>
<polygon fill="#63b8ff" stroke="#63b8ff" points="1068.23,-96 1065.93,-85.66 1061.28,-95.17 1068.23,-96"/>
</a>
</g>
</g>
<!-- Node14&#45;&gt;Node15 -->
<g id="edge15_Node000014_Node000015" class="edge">
<title>Node14&#45;&gt;Node15</title>
<g id="a_edge15_Node000014_Node000015"><a xlink:title=" ">
<path fill="none" stroke="#63b8ff" d="M827.89,-62.7C837.34,-60.37 847.63,-58.16 857.25,-56.75 1019.26,-32.98 1516.25,-17.86 1696.27,-13.04"/>
<polygon fill="#63b8ff" stroke="#63b8ff" points="1696.25,-16.55 1706.15,-12.78 1696.06,-9.55 1696.25,-16.55"/>
</a>
</g>
</g>
<!-- Node16 -->
<g id="Node000016" class="node">
<title>Node16</title>
<g id="a_Node000016"><a xlink:title=" ">
<polygon fill="#e0e0e0" stroke="#999999" points="788,-20.75 728.5,-20.75 728.5,0 788,0 788,-20.75"/>
<text text-anchor="middle" x="758.25" y="-7.25" font-family="Helvetica,sans-Serif" font-size="10.00">concepts</text>
</a>
</g>
</g>
<!-- Node14&#45;&gt;Node16 -->
<g id="edge16_Node000014_Node000016" class="edge">
<title>Node14&#45;&gt;Node16</title>
<g id="a_edge16_Node000014_Node000016"><a xlink:title=" ">
<path fill="none" stroke="#63b8ff" d="M787.63,-62.68C782.7,-54.07 775.39,-41.31 769.3,-30.67"/>
<polygon fill="#63b8ff" stroke="#63b8ff" points="772.5,-29.22 764.5,-22.28 766.43,-32.7 772.5,-29.22"/>
</a>
</g>
</g>
<!-- Node17 -->
<g id="Node000017" class="node">
<title>Node17</title>
<g id="a_Node000017"><a xlink:title=" ">
<polygon fill="#e0e0e0" stroke="#999999" points="850.5,-20.75 806,-20.75 806,0 850.5,0 850.5,-20.75"/>
<text text-anchor="middle" x="828.25" y="-7.25" font-family="Helvetica,sans-Serif" font-size="10.00">utility</text>
</a>
</g>
</g>
<!-- Node14&#45;&gt;Node17 -->
<g id="edge17_Node000014_Node000017" class="edge">
<title>Node14&#45;&gt;Node17</title>
<g id="a_edge17_Node000014_Node000017"><a xlink:title=" ">
<path fill="none" stroke="#63b8ff" d="M798.87,-62.68C803.8,-54.07 811.11,-41.31 817.2,-30.67"/>
<polygon fill="#63b8ff" stroke="#63b8ff" points="820.07,-32.7 822,-22.28 814,-29.22 820.07,-32.7"/>
</a>
</g>
</g>
<!-- Node23&#45;&gt;Node15 -->
<g id="edge26_Node000023_Node000015" class="edge">
<title>Node23&#45;&gt;Node15</title>
<g id="a_edge26_Node000023_Node000015"><a xlink:title=" ">
<path fill="none" stroke="#63b8ff" d="M2120.53,-62.65C2110.6,-60.56 2100.08,-58.47 2090.25,-56.75 1999.66,-40.86 1894.19,-27.11 1827.82,-19.03"/>
<polygon fill="#63b8ff" stroke="#63b8ff" points="1828.55,-15.59 1818.21,-17.87 1827.71,-22.54 1828.55,-15.59"/>
</a>
</g>
</g>
<!-- Node24 -->
<g id="Node000024" class="node">
<title>Node24</title>
<g id="a_Node000024"><a xlink:title=" ">
<polygon fill="#e0e0e0" stroke="#999999" points="2060.88,-20.75 1943.62,-20.75 1943.62,0 2060.88,0 2060.88,-20.75"/>
<text text-anchor="middle" x="2002.25" y="-7.25" font-family="Helvetica,sans-Serif" font-size="10.00">mlir/IR/Diagnostics.h</text>
</a>
</g>
</g>
<!-- Node23&#45;&gt;Node24 -->
<g id="edge25_Node000023_Node000024" class="edge">
<title>Node23&#45;&gt;Node24</title>
<g id="a_edge25_Node000023_Node000024"><a xlink:title=" ">
<path fill="none" stroke="#63b8ff" d="M2138.22,-62.68C2111.3,-52.52 2069.03,-36.57 2038.77,-25.15"/>
<polygon fill="#63b8ff" stroke="#63b8ff" points="2040.22,-21.96 2029.63,-21.71 2037.75,-28.51 2040.22,-21.96"/>
</a>
</g>
</g>
<!-- Node25 -->
<g id="Node000025" class="node">
<title>Node25</title>
<g id="a_Node000025"><a xlink:title=" ">
<polygon fill="#e0e0e0" stroke="#999999" points="2249.88,-20.75 2078.62,-20.75 2078.62,0 2249.88,0 2249.88,-20.75"/>
<text text-anchor="middle" x="2164.25" y="-7.25" font-family="Helvetica,sans-Serif" font-size="10.00">llvm/ADT/STLFunctionalExtras.h</text>
</a>
</g>
</g>
<!-- Node23&#45;&gt;Node25 -->
<g id="edge27_Node000023_Node000025" class="edge">
<title>Node23&#45;&gt;Node25</title>
<g id="a_edge27_Node000023_Node000025"><a xlink:title=" ">
<path fill="none" stroke="#63b8ff" d="M2164.25,-62.68C2164.25,-54.52 2164.25,-42.63 2164.25,-32.35"/>
<polygon fill="#63b8ff" stroke="#63b8ff" points="2167.75,-32.48 2164.25,-22.48 2160.75,-32.48 2167.75,-32.48"/>
</a>
</g>
</g>
<!-- Node26 -->
<g id="Node000026" class="node">
<title>Node26</title>
<g id="a_Node000026"><a xlink:title=" ">
<polygon fill="#e0e0e0" stroke="#999999" points="2368.62,-20.75 2267.88,-20.75 2267.88,0 2368.62,0 2368.62,-20.75"/>
<text text-anchor="middle" x="2318.25" y="-7.25" font-family="Helvetica,sans-Serif" font-size="10.00">llvm/ADT/Twine.h</text>
</a>
</g>
</g>
<!-- Node23&#45;&gt;Node26 -->
<g id="edge28_Node000023_Node000026" class="edge">
<title>Node23&#45;&gt;Node26</title>
<g id="a_edge28_Node000023_Node000026"><a xlink:title=" ">
<path fill="none" stroke="#63b8ff" d="M2188.99,-62.68C2214.48,-52.56 2254.42,-36.71 2283.16,-25.3"/>
<polygon fill="#63b8ff" stroke="#63b8ff" points="2284.16,-28.67 2292.16,-21.73 2281.58,-22.17 2284.16,-28.67"/>
</a>
</g>
</g>
<!-- Node27 -->
<g id="Node000027" class="node">
<title>Node27</title>
<g id="a_Node000027"><a xlink:title=" ">
<polygon fill="#e0e0e0" stroke="#999999" points="2543.75,-20.75 2386.75,-20.75 2386.75,0 2543.75,0 2543.75,-20.75"/>
<text text-anchor="middle" x="2465.25" y="-7.25" font-family="Helvetica,sans-Serif" font-size="10.00">llvm/Support/ErrorHandling.h</text>
</a>
</g>
</g>
<!-- Node23&#45;&gt;Node27 -->
<g id="edge29_Node000023_Node000027" class="edge">
<title>Node23&#45;&gt;Node27</title>
<g id="a_edge29_Node000023_Node000027"><a xlink:title=" ">
<path fill="none" stroke="#63b8ff" d="M2212.61,-62.68C2265.16,-52.01 2349.17,-34.95 2405.73,-23.46"/>
<polygon fill="#63b8ff" stroke="#63b8ff" points="2406.42,-26.89 2415.53,-21.47 2405.03,-20.03 2406.42,-26.89"/>
</a>
</g>
</g>
<!-- Node28 -->
<g id="Node000028" class="node">
<title>Node28</title>
<g id="a_Node000028"><a xlink:title=" ">
<polygon fill="#e0e0e0" stroke="#999999" points="1925.5,-20.75 1875,-20.75 1875,0 1925.5,0 1925.5,-20.75"/>
<text text-anchor="middle" x="1900.25" y="-7.25" font-family="Helvetica,sans-Serif" font-size="10.00">variant</text>
</a>
</g>
</g>
<!-- Node23&#45;&gt;Node28 -->
<g id="edge30_Node000023_Node000028" class="edge">
<title>Node23&#45;&gt;Node28</title>
<g id="a_edge30_Node000023_Node000028"><a xlink:title=" ">
<path fill="none" stroke="#63b8ff" d="M2119.21,-62.63C2067.05,-51.17 1983.23,-32.59 1936.79,-21.28"/>
<polygon fill="#63b8ff" stroke="#63b8ff" points="1937.85,-17.94 1927.3,-18.93 1936.17,-24.73 1937.85,-17.94"/>
</a>
</g>
</g>
<!-- Node29&#45;&gt;Node15 -->
<g id="edge34_Node000029_Node000015" class="edge">
<title>Node29&#45;&gt;Node15</title>
<g id="a_edge34_Node000029_Node000015"><a xlink:title=" ">
<path fill="none" stroke="#63b8ff" d="M1769.65,-132.18C1768.36,-111.09 1765.29,-61.03 1763.54,-32.41"/>
<polygon fill="#63b8ff" stroke="#63b8ff" points="1767.03,-32.23 1762.93,-22.46 1760.05,-32.66 1767.03,-32.23"/>
</a>
</g>
</g>
<!-- Node29&#45;&gt;Node19 -->
<g id="edge33_Node000029_Node000019" class="edge">
<title>Node29&#45;&gt;Node19</title>
<g id="a_edge33_Node000029_Node000019"><a xlink:title=" ">
<path fill="none" stroke="#63b8ff" d="M1710.99,-132.13C1649.87,-121.9 1551.84,-105.31 1467.25,-90.25 1460.37,-89.02 1453.17,-87.72 1446.01,-86.41"/>
<polygon fill="#63b8ff" stroke="#63b8ff" points="1446.78,-83 1436.31,-84.63 1445.52,-89.88 1446.78,-83"/>
</a>
</g>
</g>
<!-- Node29&#45;&gt;Node23 -->
<g id="edge32_Node000029_Node000023" class="edge">
<title>Node29&#45;&gt;Node23</title>
<g id="a_edge32_Node000029_Node000023"><a xlink:title=" ">
<path fill="none" stroke="#63b8ff" d="M1827.54,-132.18C1898.59,-120.01 2019.6,-99.28 2095.56,-86.27"/>
<polygon fill="#63b8ff" stroke="#63b8ff" points="2096.13,-89.72 2105.4,-84.58 2094.95,-82.82 2096.13,-89.72"/>
</a>
</g>
</g>
<!-- Node29&#45;&gt;Node30 -->
<g id="edge35_Node000029_Node000030" class="edge">
<title>Node29&#45;&gt;Node30</title>
<g id="a_edge35_Node000029_Node000030"><a xlink:title=" ">
<path fill="none" stroke="#63b8ff" d="M1736.37,-132.18C1695.65,-120.39 1627.17,-100.55 1582.1,-87.49"/>
<polygon fill="#63b8ff" stroke="#63b8ff" points="1583.2,-84.17 1572.62,-84.75 1581.26,-90.89 1583.2,-84.17"/>
</a>
</g>
</g>
<!-- Node31 -->
<g id="Node000031" class="node">
<title>Node31</title>
<g id="a_Node000031"><a xlink:title=" ">
<polygon fill="#e0e0e0" stroke="#999999" points="1905.75,-83.88 1790.75,-83.88 1790.75,-63.12 1905.75,-63.12 1905.75,-83.88"/>
<text text-anchor="middle" x="1848.25" y="-70.38" font-family="Helvetica,sans-Serif" font-size="10.00">llvm/ADT/ArrayRef.h</text>
</a>
</g>
</g>
<!-- Node29&#45;&gt;Node31 -->
<g id="edge36_Node000029_Node000031" class="edge">
<title>Node29&#45;&gt;Node31</title>
<g id="a_edge36_Node000029_Node000031"><a xlink:title=" ">
<path fill="none" stroke="#63b8ff" d="M1781.43,-132.33C1793.63,-121.76 1813.44,-104.63 1828.32,-91.75"/>
<polygon fill="#63b8ff" stroke="#63b8ff" points="1830.43,-94.55 1835.7,-85.36 1825.85,-89.26 1830.43,-94.55"/>
</a>
</g>
</g>
<!-- Node32 -->
<g id="Node000032" class="node">
<title>Node32</title>
<g id="a_Node000032"><a xlink:title=" ">
<polygon fill="#e0e0e0" stroke="#999999" points="2048.62,-83.88 1923.88,-83.88 1923.88,-63.12 2048.62,-63.12 2048.62,-83.88"/>
<text text-anchor="middle" x="1986.25" y="-70.38" font-family="Helvetica,sans-Serif" font-size="10.00">llvm/ADT/DenseMap.h</text>
</a>
</g>
</g>
<!-- Node29&#45;&gt;Node32 -->
<g id="edge37_Node000029_Node000032" class="edge">
<title>Node29&#45;&gt;Node32</title>
<g id="a_edge37_Node000029_Node000032"><a xlink:title=" ">
<path fill="none" stroke="#63b8ff" d="M1801.66,-132.18C1839.17,-120.46 1902.08,-100.8 1943.88,-87.74"/>
<polygon fill="#63b8ff" stroke="#63b8ff" points="1944.86,-91.1 1953.36,-84.78 1942.77,-84.42 1944.86,-91.1"/>
</a>
</g>
</g>
<!-- Node29&#45;&gt;Node33 -->
<g id="edge38_Node000029_Node000033" class="edge">
<title>Node29&#45;&gt;Node33</title>
<g id="a_edge38_Node000029_Node000033"><a xlink:title=" ">
<path fill="none" stroke="#63b8ff" d="M1756.64,-132.33C1741.49,-121.56 1716.74,-103.98 1698.5,-91.02"/>
<polygon fill="#63b8ff" stroke="#63b8ff" points="1700.56,-88.19 1690.38,-85.25 1696.5,-93.89 1700.56,-88.19"/>
</a>
</g>
</g>
</g>
</svg>
