<?xml version="1.0" encoding="UTF-8" standalone="no"?>
<!DOCTYPE svg PUBLIC "-//W3C//DTD SVG 1.1//EN"
 "http://www.w3.org/Graphics/SVG/1.1/DTD/svg11.dtd">
<!-- Generated by graphviz version 12.2.1 (0)
 -->
<!-- Title: include/llzk/Dialect/Polymorphic/Transforms/TransformationPasses.h Pages: 1 -->
<svg width="1196pt" height="137pt"
 viewBox="0.00 0.00 1196.12 136.50" xmlns="http://www.w3.org/2000/svg" xmlns:xlink="http://www.w3.org/1999/xlink">
<g id="graph0" class="graph" transform="scale(1 1) rotate(0) translate(4 132.5)">
<title>include/llzk/Dialect/Polymorphic/Transforms/TransformationPasses.h</title>
<!-- Node1 -->
<g id="Node000001" class="node">
<title>Node1</title>
<g id="a_Node000001"><a xlink:title=" ">
<polygon fill="#999999" stroke="#666666" points="726.25,-128.5 589.5,-128.5 589.5,-82.25 726.25,-82.25 726.25,-128.5"/>
<text text-anchor="start" x="597.5" y="-115" font-family="Helvetica,sans-Serif" font-size="10.00">include/llzk/Dialect</text>
<text text-anchor="start" x="597.5" y="-102.25" font-family="Helvetica,sans-Serif" font-size="10.00">/Polymorphic/Transforms</text>
<text text-anchor="middle" x="657.88" y="-89.5" font-family="Helvetica,sans-Serif" font-size="10.00">/TransformationPasses.h</text>
</a>
</g>
</g>
<!-- Node2 -->
<g id="Node000002" class="node">
<title>Node2</title>
<g id="a_Node000002"><a xlink:href="Poly_8cpp.html" target="_top" xlink:title=" ">
<polygon fill="white" stroke="#666666" points="133.75,-33.5 0,-33.5 0,-12.75 133.75,-12.75 133.75,-33.5"/>
<text text-anchor="middle" x="66.88" y="-20" font-family="Helvetica,sans-Serif" font-size="10.00">lib/CAPI/Dialect/Poly.cpp</text>
</a>
</g>
</g>
<!-- Node1&#45;&gt;Node2 -->
<g id="edge1_Node000001_Node000002" class="edge">
<title>Node1&#45;&gt;Node2</title>
<g id="a_edge1_Node000001_Node000002"><a xlink:title=" ">
<path fill="none" stroke="#63b8ff" d="M577.99,-99.61C476.19,-92.56 295.14,-76.77 142.88,-46.25 127.25,-43.12 110.18,-38.28 96.18,-33.93"/>
<polygon fill="#63b8ff" stroke="#63b8ff" points="577.68,-103.09 587.89,-100.28 578.15,-96.11 577.68,-103.09"/>
</a>
</g>
</g>
<!-- Node3 -->
<g id="Node000003" class="node">
<title>Node3</title>
<g id="a_Node000003"><a xlink:href="EmptyTemplateRemovalPass_8cpp.html" target="_top" xlink:title="This file implements the &#45;llzk&#45;drop&#45;empty&#45;templates pass.">
<polygon fill="white" stroke="#666666" points="347.88,-46.25 151.88,-46.25 151.88,0 347.88,0 347.88,-46.25"/>
<text text-anchor="start" x="159.88" y="-32.75" font-family="Helvetica,sans-Serif" font-size="10.00">lib/Dialect/Polymorphic</text>
<text text-anchor="start" x="159.88" y="-20" font-family="Helvetica,sans-Serif" font-size="10.00">/Transforms/EmptyTemplateRemoval</text>
<text text-anchor="middle" x="249.88" y="-7.25" font-family="Helvetica,sans-Serif" font-size="10.00">Pass.cpp</text>
</a>
</g>
</g>
<!-- Node1&#45;&gt;Node3 -->
<g id="edge2_Node000001_Node000003" class="edge">
<title>Node1&#45;&gt;Node3</title>
<g id="a_edge2_Node000001_Node000003"><a xlink:title=" ">
<path fill="none" stroke="#63b8ff" d="M578.05,-89.26C517.35,-77.69 431.8,-61.23 356.88,-46.25 353.99,-45.67 351.07,-45.09 348.11,-44.49"/>
<polygon fill="#63b8ff" stroke="#63b8ff" points="577.12,-92.64 587.6,-91.07 578.43,-85.77 577.12,-92.64"/>
</a>
</g>
</g>
<!-- Node4 -->
<g id="Node000004" class="node">
<title>Node4</title>
<g id="a_Node000004"><a xlink:href="FlatteningPass_8cpp.html" target="_top" xlink:title="This file implements the &#45;llzk&#45;flatten pass.">
<polygon fill="white" stroke="#666666" points="533.62,-39.88 366.12,-39.88 366.12,-6.38 533.62,-6.38 533.62,-39.88"/>
<text text-anchor="start" x="374.12" y="-26.38" font-family="Helvetica,sans-Serif" font-size="10.00">lib/Dialect/Polymorphic</text>
<text text-anchor="middle" x="449.88" y="-13.62" font-family="Helvetica,sans-Serif" font-size="10.00">/Transforms/FlatteningPass.cpp</text>
</a>
</g>
</g>
<!-- Node1&#45;&gt;Node4 -->
<g id="edge3_Node000001_Node000004" class="edge">
<title>Node1&#45;&gt;Node4</title>
<g id="a_edge3_Node000001_Node000004"><a xlink:title=" ">
<path fill="none" stroke="#63b8ff" d="M588.71,-77.69C556.63,-65.31 519.55,-51.01 491.79,-40.3"/>
<polygon fill="#63b8ff" stroke="#63b8ff" points="587.38,-80.93 597.97,-81.26 589.9,-74.4 587.38,-80.93"/>
</a>
</g>
</g>
<!-- Node5 -->
<g id="Node000005" class="node">
<title>Node5</title>
<g id="a_Node000005"><a xlink:href="WildcardArraySpecializationPass_8cpp.html" target="_top" xlink:title="This file implements the &#45;llzk&#45;specialize&#45;wildcard&#45;arrays pass.">
<polygon fill="white" stroke="#666666" points="764.5,-46.25 551.25,-46.25 551.25,0 764.5,0 764.5,-46.25"/>
<text text-anchor="start" x="559.25" y="-32.75" font-family="Helvetica,sans-Serif" font-size="10.00">lib/Dialect/Polymorphic</text>
<text text-anchor="start" x="559.25" y="-20" font-family="Helvetica,sans-Serif" font-size="10.00">/Transforms/WildcardArraySpecialization</text>
<text text-anchor="middle" x="657.88" y="-7.25" font-family="Helvetica,sans-Serif" font-size="10.00">Pass.cpp</text>
</a>
</g>
</g>
<!-- Node1&#45;&gt;Node5 -->
<g id="edge4_Node000001_Node000005" class="edge">
<title>Node1&#45;&gt;Node5</title>
<g id="a_edge4_Node000001_Node000005"><a xlink:title=" ">
<path fill="none" stroke="#63b8ff" d="M657.88,-70.59C657.88,-62.5 657.88,-54.07 657.88,-46.64"/>
<polygon fill="#63b8ff" stroke="#63b8ff" points="654.38,-70.51 657.88,-80.51 661.38,-70.51 654.38,-70.51"/>
</a>
</g>
</g>
<!-- Node6 -->
<g id="Node000006" class="node">
<title>Node6</title>
<g id="a_Node000006"><a xlink:href="llzk-opt_8cpp.html" target="_top" xlink:title="This file implements a version of the mlir&#45;opt tool configured for use on LLZK files.">
<polygon fill="white" stroke="#666666" points="882.88,-39.88 782.88,-39.88 782.88,-6.38 882.88,-6.38 882.88,-39.88"/>
<text text-anchor="start" x="790.88" y="-26.38" font-family="Helvetica,sans-Serif" font-size="10.00">tools/llzk&#45;opt/llzk</text>
<text text-anchor="middle" x="832.88" y="-13.62" font-family="Helvetica,sans-Serif" font-size="10.00">&#45;opt.cpp</text>
</a>
</g>
</g>
<!-- Node1&#45;&gt;Node6 -->
<g id="edge5_Node000001_Node000006" class="edge">
<title>Node1&#45;&gt;Node6</title>
<g id="a_edge5_Node000001_Node000006"><a xlink:title=" ">
<path fill="none" stroke="#63b8ff" d="M717.47,-77.04C744.14,-64.82 774.66,-50.82 797.61,-40.3"/>
<polygon fill="#63b8ff" stroke="#63b8ff" points="716.09,-73.83 708.46,-81.18 719.01,-80.19 716.09,-73.83"/>
</a>
</g>
</g>
<!-- Node7 -->
<g id="Node000007" class="node">
<title>Node7</title>
<g id="a_Node000007"><a xlink:href="WitgenDriver_8cpp.html" target="_top" xlink:title=" ">
<polygon fill="white" stroke="#666666" points="1035.12,-39.88 900.62,-39.88 900.62,-6.38 1035.12,-6.38 1035.12,-39.88"/>
<text text-anchor="start" x="908.62" y="-26.38" font-family="Helvetica,sans-Serif" font-size="10.00">tools/llzk&#45;witgen/Witgen</text>
<text text-anchor="middle" x="967.88" y="-13.62" font-family="Helvetica,sans-Serif" font-size="10.00">Driver.cpp</text>
</a>
</g>
</g>
<!-- Node1&#45;&gt;Node7 -->
<g id="edge6_Node000001_Node000007" class="edge">
<title>Node1&#45;&gt;Node7</title>
<g id="a_edge6_Node000001_Node000007"><a xlink:title=" ">
<path fill="none" stroke="#63b8ff" d="M737.61,-85.4C782.95,-74.4 840.72,-60.04 891.88,-46.25 898.77,-44.39 906.01,-42.37 913.15,-40.34"/>
<polygon fill="#63b8ff" stroke="#63b8ff" points="737.03,-81.94 728.13,-87.7 738.68,-88.75 737.03,-81.94"/>
</a>
</g>
</g>
<!-- Node8 -->
<g id="Node000008" class="node">
<title>Node8</title>
<g id="a_Node000008"><a xlink:href="WitgenLowering_8cpp.html" target="_top" xlink:title=" ">
<polygon fill="white" stroke="#666666" points="1188.12,-39.88 1053.62,-39.88 1053.62,-6.38 1188.12,-6.38 1188.12,-39.88"/>
<text text-anchor="start" x="1061.62" y="-26.38" font-family="Helvetica,sans-Serif" font-size="10.00">tools/llzk&#45;witgen/Witgen</text>
<text text-anchor="middle" x="1120.88" y="-13.62" font-family="Helvetica,sans-Serif" font-size="10.00">Lowering.cpp</text>
</a>
</g>
</g>
<!-- Node1&#45;&gt;Node8 -->
<g id="edge7_Node000001_Node000008" class="edge">
<title>Node1&#45;&gt;Node8</title>
<g id="a_edge7_Node000001_Node000008"><a xlink:title=" ">
<path fill="none" stroke="#63b8ff" d="M737.95,-95.41C816.4,-85.9 939.11,-69.09 1043.88,-46.25 1051.76,-44.53 1060.02,-42.46 1068.09,-40.27"/>
<polygon fill="#63b8ff" stroke="#63b8ff" points="737.71,-91.91 728.2,-96.58 738.55,-98.86 737.71,-91.91"/>
</a>
</g>
</g>
</g>
</svg>
