<?xml version="1.0" encoding="UTF-8" standalone="no"?>
<!DOCTYPE svg PUBLIC "-//W3C//DTD SVG 1.1//EN"
 "http://www.w3.org/Graphics/SVG/1.1/DTD/svg11.dtd">
<!-- Generated by graphviz version 12.2.1 (0)
 -->
<!-- Title: include/llzk&#45;c/Dialect/RAM.h Pages: 1 -->
<svg width="196pt" height="225pt"
 viewBox="0.00 0.00 196.00 224.50" xmlns="http://www.w3.org/2000/svg" xmlns:xlink="http://www.w3.org/1999/xlink">
<g id="graph0" class="graph" transform="scale(1 1) rotate(0) translate(4 220.5)">
<title>include/llzk&#45;c/Dialect/RAM.h</title>
<!-- Node1 -->
<g id="Node000001" class="node">
<title>Node1</title>
<g id="a_Node000001"><a xlink:title=" ">
<polygon fill="#999999" stroke="#666666" points="118,-216.5 0,-216.5 0,-183 118,-183 118,-216.5"/>
<text text-anchor="start" x="8" y="-203" font-family="Helvetica,sans-Serif" font-size="10.00">include/llzk&#45;c/Dialect</text>
<text text-anchor="middle" x="59" y="-190.25" font-family="Helvetica,sans-Serif" font-size="10.00">/RAM.h</text>
</a>
</g>
</g>
<!-- Node2 -->
<g id="Node000002" class="node">
<title>Node2</title>
<g id="a_Node000002"><a xlink:title=" ">
<polygon fill="#e0e0e0" stroke="#999999" points="76.12,-20.75 9.88,-20.75 9.88,0 76.12,0 76.12,-20.75"/>
<text text-anchor="middle" x="43" y="-7.25" font-family="Helvetica,sans-Serif" font-size="10.00">mlir&#45;c/IR.h</text>
</a>
</g>
</g>
<!-- Node1&#45;&gt;Node2 -->
<g id="edge1_Node000001_Node000002" class="edge">
<title>Node1&#45;&gt;Node2</title>
<g id="a_edge1_Node000001_Node000002"><a xlink:title=" ">
<path fill="none" stroke="#63b8ff" d="M50.72,-182.93C45.96,-172.93 40.45,-159.56 38,-147 30.17,-106.87 35.25,-58.83 39.34,-32.04"/>
<polygon fill="#63b8ff" stroke="#63b8ff" points="42.73,-32.96 40.9,-22.52 35.83,-31.82 42.73,-32.96"/>
</a>
</g>
</g>
<!-- Node3 -->
<g id="Node000003" class="node">
<title>Node3</title>
<g id="a_Node000003"><a xlink:href="RAM_2IR_2Ops_8capi_8h_8inc.html" target="_top" xlink:title=" ">
<polygon fill="white" stroke="#666666" points="155.5,-147 46.5,-147 46.5,-113.5 155.5,-113.5 155.5,-147"/>
<text text-anchor="start" x="54.5" y="-133.5" font-family="Helvetica,sans-Serif" font-size="10.00">llzk/Dialect/RAM/IR</text>
<text text-anchor="middle" x="101" y="-120.75" font-family="Helvetica,sans-Serif" font-size="10.00">/Ops.capi.h.inc</text>
</a>
</g>
</g>
<!-- Node1&#45;&gt;Node3 -->
<g id="edge2_Node000001_Node000003" class="edge">
<title>Node1&#45;&gt;Node3</title>
<g id="a_edge2_Node000001_Node000003"><a xlink:title=" ">
<path fill="none" stroke="#63b8ff" d="M68.95,-182.75C73.77,-175.02 79.66,-165.55 85.07,-156.84"/>
<polygon fill="#63b8ff" stroke="#63b8ff" points="88.01,-158.76 90.32,-148.42 82.06,-155.06 88.01,-158.76"/>
</a>
</g>
</g>
<!-- Node3&#45;&gt;Node2 -->
<g id="edge6_Node000003_Node000002" class="edge">
<title>Node3&#45;&gt;Node2</title>
<g id="a_edge6_Node000003_Node000002"><a xlink:title=" ">
<path fill="none" stroke="#63b8ff" d="M92.97,-113.43C87.8,-103.2 80.96,-89.58 75,-77.5 67.32,-61.93 58.76,-44.22 52.43,-31.05"/>
<polygon fill="#63b8ff" stroke="#63b8ff" points="55.65,-29.68 48.17,-22.18 49.34,-32.71 55.65,-29.68"/>
</a>
</g>
</g>
<!-- Node4 -->
<g id="Node000004" class="node">
<title>Node4</title>
<g id="a_Node000004"><a xlink:href="llzk-c_2Builder_8h.html" target="_top" xlink:title=" ">
<polygon fill="white" stroke="#666666" points="172,-77.5 84,-77.5 84,-56.75 172,-56.75 172,-77.5"/>
<text text-anchor="middle" x="128" y="-64" font-family="Helvetica,sans-Serif" font-size="10.00">llzk&#45;c/Builder.h</text>
</a>
</g>
</g>
<!-- Node3&#45;&gt;Node4 -->
<g id="edge3_Node000003_Node000004" class="edge">
<title>Node3&#45;&gt;Node4</title>
<g id="a_edge3_Node000003_Node000004"><a xlink:title=" ">
<path fill="none" stroke="#63b8ff" d="M108.09,-113.19C111.45,-105.59 115.49,-96.44 119.06,-88.37"/>
<polygon fill="#63b8ff" stroke="#63b8ff" points="122.2,-89.91 123.04,-79.35 115.8,-87.08 122.2,-89.91"/>
</a>
</g>
</g>
<!-- Node4&#45;&gt;Node2 -->
<g id="edge4_Node000004_Node000002" class="edge">
<title>Node4&#45;&gt;Node2</title>
<g id="a_edge4_Node000004_Node000002"><a xlink:title=" ">
<path fill="none" stroke="#63b8ff" d="M112.8,-56.34C100.23,-48.24 82.14,-36.58 67.52,-27.17"/>
<polygon fill="#63b8ff" stroke="#63b8ff" points="69.64,-24.37 59.34,-21.9 65.85,-30.26 69.64,-24.37"/>
</a>
</g>
</g>
<!-- Node5 -->
<g id="Node000005" class="node">
<title>Node5</title>
<g id="a_Node000005"><a xlink:title=" ">
<polygon fill="#e0e0e0" stroke="#999999" points="188,-20.75 94,-20.75 94,0 188,0 188,-20.75"/>
<text text-anchor="middle" x="141" y="-7.25" font-family="Helvetica,sans-Serif" font-size="10.00">mlir&#45;c/Support.h</text>
</a>
</g>
</g>
<!-- Node4&#45;&gt;Node5 -->
<g id="edge5_Node000004_Node000005" class="edge">
<title>Node4&#45;&gt;Node5</title>
<g id="a_edge5_Node000004_Node000005"><a xlink:title=" ">
<path fill="none" stroke="#63b8ff" d="M130.32,-56.34C131.91,-49.64 134.08,-40.51 136.05,-32.23"/>
<polygon fill="#63b8ff" stroke="#63b8ff" points="139.44,-33.09 138.35,-22.55 132.63,-31.47 139.44,-33.09"/>
</a>
</g>
</g>
</g>
</svg>
