<?xml version="1.0" encoding="UTF-8" standalone="no"?>
<!DOCTYPE svg PUBLIC "-//W3C//DTD SVG 1.1//EN"
 "http://www.w3.org/Graphics/SVG/1.1/DTD/svg11.dtd">
<!-- Generated by graphviz version 12.2.1 (0)
 -->
<!-- Title: build/include/llzk/Dialect/RAM/IR/Dialect.h.inc Pages: 1 -->
<svg width="1109pt" height="250pt"
 viewBox="0.00 0.00 1109.00 250.00" xmlns="http://www.w3.org/2000/svg" xmlns:xlink="http://www.w3.org/1999/xlink">
<g id="graph0" class="graph" transform="scale(1 1) rotate(0) translate(4 246)">
<title>build/include/llzk/Dialect/RAM/IR/Dialect.h.inc</title>
<!-- Node1 -->
<g id="Node000001" class="node">
<title>Node1</title>
<g id="a_Node000001"><a xlink:title=" ">
<polygon fill="#999999" stroke="#666666" points="554.12,-242 398.62,-242 398.62,-208.5 554.12,-208.5 554.12,-242"/>
<text text-anchor="start" x="406.62" y="-228.5" font-family="Helvetica,sans-Serif" font-size="10.00">build/include/llzk</text>
<text text-anchor="middle" x="476.38" y="-215.75" font-family="Helvetica,sans-Serif" font-size="10.00">/Dialect/RAM/IR/Dialect.h.inc</text>
</a>
</g>
</g>
<!-- Node2 -->
<g id="Node000002" class="node">
<title>Node2</title>
<g id="a_Node000002"><a xlink:href="RAM_2IR_2Dialect_8h.html" target="_top" xlink:title=" ">
<polygon fill="white" stroke="#666666" points="530.88,-172.5 421.88,-172.5 421.88,-139 530.88,-139 530.88,-172.5"/>
<text text-anchor="start" x="429.88" y="-159" font-family="Helvetica,sans-Serif" font-size="10.00">include/llzk/Dialect</text>
<text text-anchor="middle" x="476.38" y="-146.25" font-family="Helvetica,sans-Serif" font-size="10.00">/RAM/IR/Dialect.h</text>
</a>
</g>
</g>
<!-- Node1&#45;&gt;Node2 -->
<g id="edge1_Node000001_Node000002" class="edge">
<title>Node1&#45;&gt;Node2</title>
<g id="a_edge1_Node000001_Node000002"><a xlink:title=" ">
<path fill="none" stroke="#63b8ff" d="M476.38,-196.81C476.38,-188.59 476.38,-179.84 476.38,-172.63"/>
<polygon fill="#63b8ff" stroke="#63b8ff" points="472.88,-196.74 476.38,-206.74 479.88,-196.74 472.88,-196.74"/>
</a>
</g>
</g>
<!-- Node3 -->
<g id="Node000003" class="node">
<title>Node3</title>
<g id="a_Node000003"><a xlink:href="RAM_2IR_2Ops_8h.html" target="_top" xlink:title=" ">
<polygon fill="white" stroke="#666666" points="260.88,-103 151.88,-103 151.88,-69.5 260.88,-69.5 260.88,-103"/>
<text text-anchor="start" x="159.88" y="-89.5" font-family="Helvetica,sans-Serif" font-size="10.00">include/llzk/Dialect</text>
<text text-anchor="middle" x="206.38" y="-76.75" font-family="Helvetica,sans-Serif" font-size="10.00">/RAM/IR/Ops.h</text>
</a>
</g>
</g>
<!-- Node2&#45;&gt;Node3 -->
<g id="edge2_Node000002_Node000003" class="edge">
<title>Node2&#45;&gt;Node3</title>
<g id="a_edge2_Node000002_Node000003"><a xlink:title=" ">
<path fill="none" stroke="#63b8ff" d="M410.4,-138.26C364.64,-126.82 304.4,-111.76 261.26,-100.97"/>
<polygon fill="#63b8ff" stroke="#63b8ff" points="409.39,-141.61 419.94,-140.64 411.09,-134.82 409.39,-141.61"/>
</a>
</g>
</g>
<!-- Node4 -->
<g id="Node000004" class="node">
<title>Node4</title>
<g id="a_Node000004"><a xlink:href="RAM_8cpp.html" target="_top" xlink:title=" ">
<polygon fill="white" stroke="#666666" points="136.75,-27.12 0,-27.12 0,-6.38 136.75,-6.38 136.75,-27.12"/>
<text text-anchor="middle" x="68.38" y="-13.62" font-family="Helvetica,sans-Serif" font-size="10.00">lib/CAPI/Dialect/RAM.cpp</text>
</a>
</g>
</g>
<!-- Node2&#45;&gt;Node4 -->
<g id="edge6_Node000002_Node000004" class="edge">
<title>Node2&#45;&gt;Node4</title>
<g id="a_edge6_Node000002_Node000004"><a xlink:title=" ">
<path fill="none" stroke="#63b8ff" d="M410.28,-149.82C326.66,-142.68 188.14,-127.56 143.38,-103 110.02,-84.7 84.33,-45.54 73.71,-27.37"/>
<polygon fill="#63b8ff" stroke="#63b8ff" points="409.93,-153.31 420.19,-150.65 410.52,-146.33 409.93,-153.31"/>
</a>
</g>
</g>
<!-- Node5 -->
<g id="Node000005" class="node">
<title>Node5</title>
<g id="a_Node000005"><a xlink:href="RAM_2IR_2Dialect_8cpp.html" target="_top" xlink:title=" ">
<polygon fill="white" stroke="#666666" points="380.25,-33.5 276.5,-33.5 276.5,0 380.25,0 380.25,-33.5"/>
<text text-anchor="start" x="284.5" y="-20" font-family="Helvetica,sans-Serif" font-size="10.00">lib/Dialect/RAM/IR</text>
<text text-anchor="middle" x="328.38" y="-7.25" font-family="Helvetica,sans-Serif" font-size="10.00">/Dialect.cpp</text>
</a>
</g>
</g>
<!-- Node2&#45;&gt;Node5 -->
<g id="edge11_Node000002_Node000005" class="edge">
<title>Node2&#45;&gt;Node5</title>
<g id="a_edge11_Node000002_Node000005"><a xlink:title=" ">
<path fill="none" stroke="#63b8ff" d="M410.36,-152.53C374.03,-147.5 331.7,-134.6 308.38,-103 293.21,-82.45 306.56,-52.16 317.53,-33.76"/>
<polygon fill="#63b8ff" stroke="#63b8ff" points="409.57,-155.96 419.91,-153.66 410.4,-149.01 409.57,-155.96"/>
</a>
</g>
</g>
<!-- Node7 -->
<g id="Node000007" class="node">
<title>Node7</title>
<g id="a_Node000007"><a xlink:href="ArrayToScalarPass_8cpp.html" target="_top" xlink:title="This file implements the &#45;llzk&#45;array&#45;to&#45;scalar pass.">
<polygon fill="white" stroke="#666666" points="469.25,-103 317.5,-103 317.5,-69.5 469.25,-69.5 469.25,-103"/>
<text text-anchor="start" x="325.5" y="-89.5" font-family="Helvetica,sans-Serif" font-size="10.00">lib/Dialect/Array/Transforms</text>
<text text-anchor="middle" x="393.38" y="-76.75" font-family="Helvetica,sans-Serif" font-size="10.00">/ArrayToScalarPass.cpp</text>
</a>
</g>
</g>
<!-- Node2&#45;&gt;Node7 -->
<g id="edge7_Node000002_Node000007" class="edge">
<title>Node2&#45;&gt;Node7</title>
<g id="a_edge7_Node000002_Node000007"><a xlink:title=" ">
<path fill="none" stroke="#63b8ff" d="M447.93,-131.61C436.49,-122.31 423.58,-111.81 413.19,-103.37"/>
<polygon fill="#63b8ff" stroke="#63b8ff" points="445.56,-134.2 455.53,-137.8 449.98,-128.77 445.56,-134.2"/>
</a>
</g>
</g>
<!-- Node8 -->
<g id="Node000008" class="node">
<title>Node8</title>
<g id="a_Node000008"><a xlink:href="Dialect_2InitDialects_8cpp.html" target="_top" xlink:title=" ">
<polygon fill="white" stroke="#666666" points="631.5,-96.62 487.25,-96.62 487.25,-75.88 631.5,-75.88 631.5,-96.62"/>
<text text-anchor="middle" x="559.38" y="-83.12" font-family="Helvetica,sans-Serif" font-size="10.00">lib/Dialect/InitDialects.cpp</text>
</a>
</g>
</g>
<!-- Node2&#45;&gt;Node8 -->
<g id="edge8_Node000002_Node000008" class="edge">
<title>Node2&#45;&gt;Node8</title>
<g id="a_edge8_Node000002_Node000008"><a xlink:title=" ">
<path fill="none" stroke="#63b8ff" d="M504.71,-131.71C519.24,-119.89 536.17,-106.12 547.3,-97.07"/>
<polygon fill="#63b8ff" stroke="#63b8ff" points="502.77,-128.77 497.22,-137.8 507.19,-134.2 502.77,-128.77"/>
</a>
</g>
</g>
<!-- Node9 -->
<g id="Node000009" class="node">
<title>Node9</title>
<g id="a_Node000009"><a xlink:href="PodToScalarPass_8cpp.html" target="_top" xlink:title="This file implements the &#45;llzk&#45;pod&#45;to&#45;scalar pass.">
<polygon fill="white" stroke="#666666" points="795.62,-103 649.12,-103 649.12,-69.5 795.62,-69.5 795.62,-103"/>
<text text-anchor="start" x="657.12" y="-89.5" font-family="Helvetica,sans-Serif" font-size="10.00">lib/Dialect/POD/Transforms</text>
<text text-anchor="middle" x="722.38" y="-76.75" font-family="Helvetica,sans-Serif" font-size="10.00">/PodToScalarPass.cpp</text>
</a>
</g>
</g>
<!-- Node2&#45;&gt;Node9 -->
<g id="edge9_Node000002_Node000009" class="edge">
<title>Node2&#45;&gt;Node9</title>
<g id="a_edge9_Node000002_Node000009"><a xlink:title=" ">
<path fill="none" stroke="#63b8ff" d="M542.16,-136.7C579.87,-126.35 626.82,-113.47 663.35,-103.45"/>
<polygon fill="#63b8ff" stroke="#63b8ff" points="541.45,-133.26 532.74,-139.29 543.31,-140.01 541.45,-133.26"/>
</a>
</g>
</g>
<!-- Node10 -->
<g id="Node000010" class="node">
<title>Node10</title>
<g id="a_Node000010"><a xlink:href="SharedImpl_8cpp.html" target="_top" xlink:title=" ">
<polygon fill="white" stroke="#666666" points="965.25,-103 813.5,-103 813.5,-69.5 965.25,-69.5 965.25,-103"/>
<text text-anchor="start" x="821.5" y="-89.5" font-family="Helvetica,sans-Serif" font-size="10.00">lib/Dialect/Polymorphic</text>
<text text-anchor="middle" x="889.38" y="-76.75" font-family="Helvetica,sans-Serif" font-size="10.00">/Transforms/SharedImpl.cpp</text>
</a>
</g>
</g>
<!-- Node2&#45;&gt;Node10 -->
<g id="edge10_Node000002_Node000010" class="edge">
<title>Node2&#45;&gt;Node10</title>
<g id="a_edge10_Node000002_Node000010"><a xlink:title=" ">
<path fill="none" stroke="#63b8ff" d="M542.4,-144.86C608.7,-134.81 713.74,-118.54 804.38,-103 807.33,-102.49 810.35,-101.97 813.39,-101.43"/>
<polygon fill="#63b8ff" stroke="#63b8ff" points="542.15,-141.36 532.79,-146.32 543.2,-148.28 542.15,-141.36"/>
</a>
</g>
</g>
<!-- Node11 -->
<g id="Node000011" class="node">
<title>Node11</title>
<g id="a_Node000011"><a xlink:href="llzk-witgen_8cpp.html" target="_top" xlink:title=" ">
<polygon fill="white" stroke="#666666" points="1101,-103 983.75,-103 983.75,-69.5 1101,-69.5 1101,-103"/>
<text text-anchor="start" x="991.75" y="-89.5" font-family="Helvetica,sans-Serif" font-size="10.00">tools/llzk&#45;witgen/llzk</text>
<text text-anchor="middle" x="1042.38" y="-76.75" font-family="Helvetica,sans-Serif" font-size="10.00">&#45;witgen.cpp</text>
</a>
</g>
</g>
<!-- Node2&#45;&gt;Node11 -->
<g id="edge12_Node000002_Node000011" class="edge">
<title>Node2&#45;&gt;Node11</title>
<g id="a_edge12_Node000002_Node000011"><a xlink:title=" ">
<path fill="none" stroke="#63b8ff" d="M542.44,-150.51C638.14,-143.76 820.72,-128.68 974.38,-103 977.36,-102.5 980.42,-101.95 983.49,-101.36"/>
<polygon fill="#63b8ff" stroke="#63b8ff" points="542.45,-147 532.71,-151.18 542.93,-153.98 542.45,-147"/>
</a>
</g>
</g>
<!-- Node3&#45;&gt;Node4 -->
<g id="edge3_Node000003_Node000004" class="edge">
<title>Node3&#45;&gt;Node4</title>
<g id="a_edge3_Node000003_Node000004"><a xlink:title=" ">
<path fill="none" stroke="#63b8ff" d="M162.98,-64.02C138,-51.81 107.8,-37.03 88.35,-27.52"/>
<polygon fill="#63b8ff" stroke="#63b8ff" points="161.44,-67.17 171.96,-68.42 164.52,-60.88 161.44,-67.17"/>
</a>
</g>
</g>
<!-- Node3&#45;&gt;Node5 -->
<g id="edge4_Node000003_Node000005" class="edge">
<title>Node3&#45;&gt;Node5</title>
<g id="a_edge4_Node000003_Node000005"><a xlink:title=" ">
<path fill="none" stroke="#63b8ff" d="M245.53,-63.59C263.03,-53.91 283.29,-42.7 299.39,-33.79"/>
<polygon fill="#63b8ff" stroke="#63b8ff" points="243.98,-60.45 236.92,-68.35 247.37,-66.57 243.98,-60.45"/>
</a>
</g>
</g>
<!-- Node6 -->
<g id="Node000006" class="node">
<title>Node6</title>
<g id="a_Node000006"><a xlink:href="RAM_2IR_2Ops_8cpp.html" target="_top" xlink:title=" ">
<polygon fill="white" stroke="#666666" points="258.25,-33.5 154.5,-33.5 154.5,0 258.25,0 258.25,-33.5"/>
<text text-anchor="start" x="162.5" y="-20" font-family="Helvetica,sans-Serif" font-size="10.00">lib/Dialect/RAM/IR</text>
<text text-anchor="middle" x="206.38" y="-7.25" font-family="Helvetica,sans-Serif" font-size="10.00">/Ops.cpp</text>
</a>
</g>
</g>
<!-- Node3&#45;&gt;Node6 -->
<g id="edge5_Node000003_Node000006" class="edge">
<title>Node3&#45;&gt;Node6</title>
<g id="a_edge5_Node000003_Node000006"><a xlink:title=" ">
<path fill="none" stroke="#63b8ff" d="M206.38,-57.81C206.38,-49.59 206.38,-40.84 206.38,-33.63"/>
<polygon fill="#63b8ff" stroke="#63b8ff" points="202.88,-57.74 206.38,-67.74 209.88,-57.74 202.88,-57.74"/>
</a>
</g>
</g>
</g>
</svg>
