<?xml version="1.0" encoding="UTF-8" standalone="no"?>
<!DOCTYPE svg PUBLIC "-//W3C//DTD SVG 1.1//EN"
 "http://www.w3.org/Graphics/SVG/1.1/DTD/svg11.dtd">
<!-- Generated by graphviz version 12.2.1 (0)
 -->
<!-- Title: build/include/llzk/Dialect/RAM/IR/Ops.h.inc Pages: 1 -->
<svg width="388pt" height="181pt"
 viewBox="0.00 0.00 388.25 180.50" xmlns="http://www.w3.org/2000/svg" xmlns:xlink="http://www.w3.org/1999/xlink">
<g id="graph0" class="graph" transform="scale(1 1) rotate(0) translate(4 176.5)">
<title>build/include/llzk/Dialect/RAM/IR/Ops.h.inc</title>
<!-- Node1 -->
<g id="Node000001" class="node">
<title>Node1</title>
<g id="a_Node000001"><a xlink:title=" ">
<polygon fill="#999999" stroke="#666666" points="276.25,-172.5 136.5,-172.5 136.5,-139 276.25,-139 276.25,-172.5"/>
<text text-anchor="start" x="144.5" y="-159" font-family="Helvetica,sans-Serif" font-size="10.00">build/include/llzk</text>
<text text-anchor="middle" x="206.38" y="-146.25" font-family="Helvetica,sans-Serif" font-size="10.00">/Dialect/RAM/IR/Ops.h.inc</text>
</a>
</g>
</g>
<!-- Node2 -->
<g id="Node000002" class="node">
<title>Node2</title>
<g id="a_Node000002"><a xlink:href="RAM_2IR_2Ops_8h.html" target="_top" xlink:title=" ">
<polygon fill="white" stroke="#666666" points="260.88,-103 151.88,-103 151.88,-69.5 260.88,-69.5 260.88,-103"/>
<text text-anchor="start" x="159.88" y="-89.5" font-family="Helvetica,sans-Serif" font-size="10.00">include/llzk/Dialect</text>
<text text-anchor="middle" x="206.38" y="-76.75" font-family="Helvetica,sans-Serif" font-size="10.00">/RAM/IR/Ops.h</text>
</a>
</g>
</g>
<!-- Node1&#45;&gt;Node2 -->
<g id="edge1_Node000001_Node000002" class="edge">
<title>Node1&#45;&gt;Node2</title>
<g id="a_edge1_Node000001_Node000002"><a xlink:title=" ">
<path fill="none" stroke="#63b8ff" d="M206.38,-127.31C206.38,-119.09 206.38,-110.34 206.38,-103.13"/>
<polygon fill="#63b8ff" stroke="#63b8ff" points="202.88,-127.24 206.38,-137.24 209.88,-127.24 202.88,-127.24"/>
</a>
</g>
</g>
<!-- Node3 -->
<g id="Node000003" class="node">
<title>Node3</title>
<g id="a_Node000003"><a xlink:href="RAM_8cpp.html" target="_top" xlink:title=" ">
<polygon fill="white" stroke="#666666" points="136.75,-27.12 0,-27.12 0,-6.38 136.75,-6.38 136.75,-27.12"/>
<text text-anchor="middle" x="68.38" y="-13.62" font-family="Helvetica,sans-Serif" font-size="10.00">lib/CAPI/Dialect/RAM.cpp</text>
</a>
</g>
</g>
<!-- Node2&#45;&gt;Node3 -->
<g id="edge2_Node000002_Node000003" class="edge">
<title>Node2&#45;&gt;Node3</title>
<g id="a_edge2_Node000002_Node000003"><a xlink:title=" ">
<path fill="none" stroke="#63b8ff" d="M162.98,-64.02C138,-51.81 107.8,-37.03 88.35,-27.52"/>
<polygon fill="#63b8ff" stroke="#63b8ff" points="161.44,-67.17 171.96,-68.42 164.52,-60.88 161.44,-67.17"/>
</a>
</g>
</g>
<!-- Node4 -->
<g id="Node000004" class="node">
<title>Node4</title>
<g id="a_Node000004"><a xlink:href="RAM_2IR_2Dialect_8cpp.html" target="_top" xlink:title=" ">
<polygon fill="white" stroke="#666666" points="258.25,-33.5 154.5,-33.5 154.5,0 258.25,0 258.25,-33.5"/>
<text text-anchor="start" x="162.5" y="-20" font-family="Helvetica,sans-Serif" font-size="10.00">lib/Dialect/RAM/IR</text>
<text text-anchor="middle" x="206.38" y="-7.25" font-family="Helvetica,sans-Serif" font-size="10.00">/Dialect.cpp</text>
</a>
</g>
</g>
<!-- Node2&#45;&gt;Node4 -->
<g id="edge3_Node000002_Node000004" class="edge">
<title>Node2&#45;&gt;Node4</title>
<g id="a_edge3_Node000002_Node000004"><a xlink:title=" ">
<path fill="none" stroke="#63b8ff" d="M206.38,-57.81C206.38,-49.59 206.38,-40.84 206.38,-33.63"/>
<polygon fill="#63b8ff" stroke="#63b8ff" points="202.88,-57.74 206.38,-67.74 209.88,-57.74 202.88,-57.74"/>
</a>
</g>
</g>
<!-- Node5 -->
<g id="Node000005" class="node">
<title>Node5</title>
<g id="a_Node000005"><a xlink:href="RAM_2IR_2Ops_8cpp.html" target="_top" xlink:title=" ">
<polygon fill="white" stroke="#666666" points="380.25,-33.5 276.5,-33.5 276.5,0 380.25,0 380.25,-33.5"/>
<text text-anchor="start" x="284.5" y="-20" font-family="Helvetica,sans-Serif" font-size="10.00">lib/Dialect/RAM/IR</text>
<text text-anchor="middle" x="328.38" y="-7.25" font-family="Helvetica,sans-Serif" font-size="10.00">/Ops.cpp</text>
</a>
</g>
</g>
<!-- Node2&#45;&gt;Node5 -->
<g id="edge4_Node000002_Node000005" class="edge">
<title>Node2&#45;&gt;Node5</title>
<g id="a_edge4_Node000002_Node000005"><a xlink:title=" ">
<path fill="none" stroke="#63b8ff" d="M245.53,-63.59C263.03,-53.91 283.29,-42.7 299.39,-33.79"/>
<polygon fill="#63b8ff" stroke="#63b8ff" points="243.98,-60.45 236.92,-68.35 247.37,-66.57 243.98,-60.45"/>
</a>
</g>
</g>
</g>
</svg>
