<?xml version="1.0" encoding="UTF-8" standalone="no"?>
<!DOCTYPE svg PUBLIC "-//W3C//DTD SVG 1.1//EN"
 "http://www.w3.org/Graphics/SVG/1.1/DTD/svg11.dtd">
<!-- Generated by graphviz version 12.2.1 (0)
 -->
<!-- Title: lib/Dialect/RAM/IR/Ops.cpp Pages: 1 -->
<svg width="2332pt" height="376pt"
 viewBox="0.00 0.00 2331.75 376.25" xmlns="http://www.w3.org/2000/svg" xmlns:xlink="http://www.w3.org/1999/xlink">
<g id="graph0" class="graph" transform="scale(1 1) rotate(0) translate(4 372.25)">
<title>lib/Dialect/RAM/IR/Ops.cpp</title>
<!-- Node1 -->
<g id="Node000001" class="node">
<title>Node1</title>
<g id="a_Node000001"><a xlink:title=" ">
<polygon fill="#999999" stroke="#666666" points="2035.12,-368.25 1931.38,-368.25 1931.38,-334.75 2035.12,-334.75 2035.12,-368.25"/>
<text text-anchor="start" x="1939.38" y="-354.75" font-family="Helvetica,sans-Serif" font-size="10.00">lib/Dialect/RAM/IR</text>
<text text-anchor="middle" x="1983.25" y="-342" font-family="Helvetica,sans-Serif" font-size="10.00">/Ops.cpp</text>
</a>
</g>
</g>
<!-- Node2 -->
<g id="Node000002" class="node">
<title>Node2</title>
<g id="a_Node000002"><a xlink:href="RAM_2IR_2Ops_8h.html" target="_top" xlink:title=" ">
<polygon fill="white" stroke="#666666" points="1726.75,-298.75 1617.75,-298.75 1617.75,-265.25 1726.75,-265.25 1726.75,-298.75"/>
<text text-anchor="start" x="1625.75" y="-285.25" font-family="Helvetica,sans-Serif" font-size="10.00">llzk/Dialect/RAM/IR</text>
<text text-anchor="middle" x="1672.25" y="-272.5" font-family="Helvetica,sans-Serif" font-size="10.00">/Ops.h</text>
</a>
</g>
</g>
<!-- Node1&#45;&gt;Node2 -->
<g id="edge1_Node000001_Node000002" class="edge">
<title>Node1&#45;&gt;Node2</title>
<g id="a_edge1_Node000001_Node000002"><a xlink:title=" ">
<path fill="none" stroke="#63b8ff" d="M1931.2,-339.2C1878.19,-327.7 1795.82,-309.82 1738.26,-297.33"/>
<polygon fill="#63b8ff" stroke="#63b8ff" points="1739.09,-293.93 1728.57,-295.22 1737.6,-300.77 1739.09,-293.93"/>
</a>
</g>
</g>
<!-- Node37 -->
<g id="Node000037" class="node">
<title>Node37</title>
<g id="a_Node000037"><a xlink:href="TypeHelper_8h.html" target="_top" xlink:title=" ">
<polygon fill="white" stroke="#666666" points="2034,-153.38 1914.5,-153.38 1914.5,-132.62 2034,-132.62 2034,-153.38"/>
<text text-anchor="middle" x="1974.25" y="-139.88" font-family="Helvetica,sans-Serif" font-size="10.00">llzk/Util/TypeHelper.h</text>
</a>
</g>
</g>
<!-- Node1&#45;&gt;Node37 -->
<g id="edge40_Node000001_Node000037" class="edge">
<title>Node1&#45;&gt;Node37</title>
<g id="a_edge40_Node000001_Node000037"><a xlink:title=" ">
<path fill="none" stroke="#63b8ff" d="M1975.36,-334.63C1970.83,-324.62 1965.58,-311.25 1963.25,-298.75 1954.39,-251.26 1963.35,-194.34 1969.5,-164.53"/>
<polygon fill="#63b8ff" stroke="#63b8ff" points="1972.87,-165.51 1971.59,-154.99 1966.03,-164.02 1972.87,-165.51"/>
</a>
</g>
</g>
<!-- Node41 -->
<g id="Node000041" class="node">
<title>Node41</title>
<g id="a_Node000041"><a xlink:title=" ">
<polygon fill="#e0e0e0" stroke="#999999" points="2072.25,-292.38 1972.25,-292.38 1972.25,-271.62 2072.25,-271.62 2072.25,-292.38"/>
<text text-anchor="middle" x="2022.25" y="-278.88" font-family="Helvetica,sans-Serif" font-size="10.00">mlir/IR/Builders.h</text>
</a>
</g>
</g>
<!-- Node1&#45;&gt;Node41 -->
<g id="edge48_Node000001_Node000041" class="edge">
<title>Node1&#45;&gt;Node41</title>
<g id="a_edge48_Node000001_Node000041"><a xlink:title=" ">
<path fill="none" stroke="#63b8ff" d="M1992.49,-334.5C1997.98,-325 2004.99,-312.87 2010.83,-302.77"/>
<polygon fill="#63b8ff" stroke="#63b8ff" points="2013.85,-304.54 2015.82,-294.13 2007.78,-301.04 2013.85,-304.54"/>
</a>
</g>
</g>
<!-- Node42 -->
<g id="Node000042" class="node">
<title>Node42</title>
<g id="a_Node000042"><a xlink:href="RAM_2IR_2Ops_8cpp_8inc.html" target="_top" xlink:title=" ">
<polygon fill="white" stroke="#666666" points="2199.75,-298.75 2090.75,-298.75 2090.75,-265.25 2199.75,-265.25 2199.75,-298.75"/>
<text text-anchor="start" x="2098.75" y="-285.25" font-family="Helvetica,sans-Serif" font-size="10.00">llzk/Dialect/RAM/IR</text>
<text text-anchor="middle" x="2145.25" y="-272.5" font-family="Helvetica,sans-Serif" font-size="10.00">/Ops.cpp.inc</text>
</a>
</g>
</g>
<!-- Node1&#45;&gt;Node42 -->
<g id="edge49_Node000001_Node000042" class="edge">
<title>Node1&#45;&gt;Node42</title>
<g id="a_edge49_Node000001_Node000042"><a xlink:title=" ">
<path fill="none" stroke="#63b8ff" d="M2022.05,-334.33C2044.21,-325.1 2072.22,-313.43 2095.93,-303.55"/>
<polygon fill="#63b8ff" stroke="#63b8ff" points="2097.2,-306.81 2105.09,-299.73 2094.51,-300.35 2097.2,-306.81"/>
</a>
</g>
</g>
<!-- Node3 -->
<g id="Node000003" class="node">
<title>Node3</title>
<g id="a_Node000003"><a xlink:href="Felt_2IR_2Types_8h.html" target="_top" xlink:title=" ">
<polygon fill="white" stroke="#666666" points="1020.5,-229.25 916,-229.25 916,-195.75 1020.5,-195.75 1020.5,-229.25"/>
<text text-anchor="start" x="924" y="-215.75" font-family="Helvetica,sans-Serif" font-size="10.00">llzk/Dialect/Felt/IR</text>
<text text-anchor="middle" x="968.25" y="-203" font-family="Helvetica,sans-Serif" font-size="10.00">/Types.h</text>
</a>
</g>
</g>
<!-- Node2&#45;&gt;Node3 -->
<g id="edge2_Node000002_Node000003" class="edge">
<title>Node2&#45;&gt;Node3</title>
<g id="a_edge2_Node000002_Node000003"><a xlink:title=" ">
<path fill="none" stroke="#63b8ff" d="M1617.3,-275.73C1488.72,-263.4 1168.83,-232.73 1031.99,-219.61"/>
<polygon fill="#63b8ff" stroke="#63b8ff" points="1032.68,-216.16 1022.4,-218.69 1032.02,-223.13 1032.68,-216.16"/>
</a>
</g>
</g>
<!-- Node31 -->
<g id="Node000031" class="node">
<title>Node31</title>
<g id="a_Node000031"><a xlink:href="OpTraits_8h.html" target="_top" xlink:title=" ">
<polygon fill="white" stroke="#666666" points="1729.75,-229.25 1614.75,-229.25 1614.75,-195.75 1729.75,-195.75 1729.75,-229.25"/>
<text text-anchor="start" x="1622.75" y="-215.75" font-family="Helvetica,sans-Serif" font-size="10.00">llzk/Dialect/Function</text>
<text text-anchor="middle" x="1672.25" y="-203" font-family="Helvetica,sans-Serif" font-size="10.00">/IR/OpTraits.h</text>
</a>
</g>
</g>
<!-- Node2&#45;&gt;Node31 -->
<g id="edge32_Node000002_Node000031" class="edge">
<title>Node2&#45;&gt;Node31</title>
<g id="a_edge32_Node000002_Node000031"><a xlink:title=" ">
<path fill="none" stroke="#63b8ff" d="M1672.25,-265C1672.25,-257.77 1672.25,-249.03 1672.25,-240.81"/>
<polygon fill="#63b8ff" stroke="#63b8ff" points="1675.75,-240.9 1672.25,-230.9 1668.75,-240.9 1675.75,-240.9"/>
</a>
</g>
</g>
<!-- Node34 -->
<g id="Node000034" class="node">
<title>Node34</title>
<g id="a_Node000034"><a xlink:href="RAM_2IR_2Dialect_8h.html" target="_top" xlink:title=" ">
<polygon fill="white" stroke="#666666" points="192.75,-229.25 83.75,-229.25 83.75,-195.75 192.75,-195.75 192.75,-229.25"/>
<text text-anchor="start" x="91.75" y="-215.75" font-family="Helvetica,sans-Serif" font-size="10.00">llzk/Dialect/RAM/IR</text>
<text text-anchor="middle" x="138.25" y="-203" font-family="Helvetica,sans-Serif" font-size="10.00">/Dialect.h</text>
</a>
</g>
</g>
<!-- Node2&#45;&gt;Node34 -->
<g id="edge36_Node000002_Node000034" class="edge">
<title>Node2&#45;&gt;Node34</title>
<g id="a_edge36_Node000002_Node000034"><a xlink:title=" ">
<path fill="none" stroke="#63b8ff" d="M1617.65,-278.6C1382.95,-268.27 460.11,-227.66 204.31,-216.41"/>
<polygon fill="#63b8ff" stroke="#63b8ff" points="204.65,-212.92 194.5,-215.98 204.34,-219.91 204.65,-212.92"/>
</a>
</g>
</g>
<!-- Node36 -->
<g id="Node000036" class="node">
<title>Node36</title>
<g id="a_Node000036"><a xlink:href="RAM_2IR_2Ops_8h_8inc.html" target="_top" xlink:title=" ">
<polygon fill="white" stroke="#666666" points="1856.75,-229.25 1747.75,-229.25 1747.75,-195.75 1856.75,-195.75 1856.75,-229.25"/>
<text text-anchor="start" x="1755.75" y="-215.75" font-family="Helvetica,sans-Serif" font-size="10.00">llzk/Dialect/RAM/IR</text>
<text text-anchor="middle" x="1802.25" y="-203" font-family="Helvetica,sans-Serif" font-size="10.00">/Ops.h.inc</text>
</a>
</g>
</g>
<!-- Node2&#45;&gt;Node36 -->
<g id="edge39_Node000002_Node000036" class="edge">
<title>Node2&#45;&gt;Node36</title>
<g id="a_edge39_Node000002_Node000036"><a xlink:title=" ">
<path fill="none" stroke="#63b8ff" d="M1703.39,-264.83C1720.75,-255.82 1742.59,-244.48 1761.33,-234.75"/>
<polygon fill="#63b8ff" stroke="#63b8ff" points="1762.76,-237.95 1770.02,-230.23 1759.53,-231.74 1762.76,-237.95"/>
</a>
</g>
</g>
<!-- Node4 -->
<g id="Node000004" class="node">
<title>Node4</title>
<g id="a_Node000004"><a xlink:href="Felt_2IR_2Dialect_8h.html" target="_top" xlink:title=" ">
<polygon fill="white" stroke="#666666" points="315.5,-159.75 211,-159.75 211,-126.25 315.5,-126.25 315.5,-159.75"/>
<text text-anchor="start" x="219" y="-146.25" font-family="Helvetica,sans-Serif" font-size="10.00">llzk/Dialect/Felt/IR</text>
<text text-anchor="middle" x="263.25" y="-133.5" font-family="Helvetica,sans-Serif" font-size="10.00">/Dialect.h</text>
</a>
</g>
</g>
<!-- Node3&#45;&gt;Node4 -->
<g id="edge3_Node000003_Node000004" class="edge">
<title>Node3&#45;&gt;Node4</title>
<g id="a_edge3_Node000003_Node000004"><a xlink:title=" ">
<path fill="none" stroke="#63b8ff" d="M915.55,-206.45C788.38,-194.28 465.03,-163.32 327.13,-150.12"/>
<polygon fill="#63b8ff" stroke="#63b8ff" points="327.75,-146.66 317.46,-149.19 327.08,-153.63 327.75,-146.66"/>
</a>
</g>
</g>
<!-- Node7 -->
<g id="Node000007" class="node">
<title>Node7</title>
<g id="a_Node000007"><a xlink:href="Field_8h.html" target="_top" xlink:title=" ">
<polygon fill="white" stroke="#666666" points="955.62,-153.38 866.88,-153.38 866.88,-132.62 955.62,-132.62 955.62,-153.38"/>
<text text-anchor="middle" x="911.25" y="-139.88" font-family="Helvetica,sans-Serif" font-size="10.00">llzk/Util/Field.h</text>
</a>
</g>
</g>
<!-- Node3&#45;&gt;Node7 -->
<g id="edge6_Node000003_Node000007" class="edge">
<title>Node3&#45;&gt;Node7</title>
<g id="a_edge6_Node000003_Node000007"><a xlink:title=" ">
<path fill="none" stroke="#63b8ff" d="M954.74,-195.5C946.37,-185.59 935.59,-172.83 926.86,-162.49"/>
<polygon fill="#63b8ff" stroke="#63b8ff" points="929.65,-160.36 920.52,-154.98 924.3,-164.88 929.65,-160.36"/>
</a>
</g>
</g>
<!-- Node30 -->
<g id="Node000030" class="node">
<title>Node30</title>
<g id="a_Node000030"><a xlink:href="Felt_2IR_2Types_8h_8inc.html" target="_top" xlink:title=" ">
<polygon fill="white" stroke="#666666" points="1078.5,-159.75 974,-159.75 974,-126.25 1078.5,-126.25 1078.5,-159.75"/>
<text text-anchor="start" x="982" y="-146.25" font-family="Helvetica,sans-Serif" font-size="10.00">llzk/Dialect/Felt/IR</text>
<text text-anchor="middle" x="1026.25" y="-133.5" font-family="Helvetica,sans-Serif" font-size="10.00">/Types.h.inc</text>
</a>
</g>
</g>
<!-- Node3&#45;&gt;Node30 -->
<g id="edge31_Node000003_Node000030" class="edge">
<title>Node3&#45;&gt;Node30</title>
<g id="a_edge31_Node000003_Node000030"><a xlink:title=" ">
<path fill="none" stroke="#63b8ff" d="M982,-195.5C988.93,-187.43 997.49,-177.47 1005.23,-168.46"/>
<polygon fill="#63b8ff" stroke="#63b8ff" points="1007.75,-170.9 1011.62,-161.03 1002.45,-166.33 1007.75,-170.9"/>
</a>
</g>
</g>
<!-- Node5 -->
<g id="Node000005" class="node">
<title>Node5</title>
<g id="a_Node000005"><a xlink:title=" ">
<polygon fill="#e0e0e0" stroke="#999999" points="110.5,-83.88 0,-83.88 0,-63.12 110.5,-63.12 110.5,-83.88"/>
<text text-anchor="middle" x="55.25" y="-70.38" font-family="Helvetica,sans-Serif" font-size="10.00">mlir/IR/BuiltinOps.h</text>
</a>
</g>
</g>
<!-- Node4&#45;&gt;Node5 -->
<g id="edge4_Node000004_Node000005" class="edge">
<title>Node4&#45;&gt;Node5</title>
<g id="a_edge4_Node000004_Node000005"><a xlink:title=" ">
<path fill="none" stroke="#63b8ff" d="M213.43,-125.83C177.69,-114.23 130.1,-98.79 96.49,-87.88"/>
<polygon fill="#63b8ff" stroke="#63b8ff" points="97.69,-84.59 87.1,-84.84 95.53,-91.25 97.69,-84.59"/>
</a>
</g>
</g>
<!-- Node6 -->
<g id="Node000006" class="node">
<title>Node6</title>
<g id="a_Node000006"><a xlink:href="Felt_2IR_2Dialect_8h_8inc.html" target="_top" xlink:title=" ">
<polygon fill="white" stroke="#666666" points="233.5,-90.25 129,-90.25 129,-56.75 233.5,-56.75 233.5,-90.25"/>
<text text-anchor="start" x="137" y="-76.75" font-family="Helvetica,sans-Serif" font-size="10.00">llzk/Dialect/Felt/IR</text>
<text text-anchor="middle" x="181.25" y="-64" font-family="Helvetica,sans-Serif" font-size="10.00">/Dialect.h.inc</text>
</a>
</g>
</g>
<!-- Node4&#45;&gt;Node6 -->
<g id="edge5_Node000004_Node000006" class="edge">
<title>Node4&#45;&gt;Node6</title>
<g id="a_edge5_Node000004_Node000006"><a xlink:title=" ">
<path fill="none" stroke="#63b8ff" d="M243.82,-126C233.58,-117.57 220.83,-107.08 209.52,-97.77"/>
<polygon fill="#63b8ff" stroke="#63b8ff" points="211.94,-95.23 202,-91.58 207.49,-100.64 211.94,-95.23"/>
</a>
</g>
</g>
<!-- Node7&#45;&gt;Node5 -->
<g id="edge21_Node000007_Node000005" class="edge">
<title>Node7&#45;&gt;Node5</title>
<g id="a_edge21_Node000007_Node000005"><a xlink:title=" ">
<path fill="none" stroke="#63b8ff" d="M866.79,-141.77C746.06,-140.56 402.2,-133.3 120.25,-90.25 114.3,-89.34 108.09,-88.15 101.97,-86.84"/>
<polygon fill="#63b8ff" stroke="#63b8ff" points="103.13,-83.51 92.61,-84.7 101.58,-90.34 103.13,-83.51"/>
</a>
</g>
</g>
<!-- Node8 -->
<g id="Node000008" class="node">
<title>Node8</title>
<g id="a_Node000008"><a xlink:href="DynamicAPIntHelper_8h.html" target="_top" xlink:title="This file implements helper methods for constructing DynamicAPInts.">
<polygon fill="white" stroke="#666666" points="507.25,-83.88 341.25,-83.88 341.25,-63.12 507.25,-63.12 507.25,-83.88"/>
<text text-anchor="middle" x="424.25" y="-70.38" font-family="Helvetica,sans-Serif" font-size="10.00">llzk/Util/DynamicAPIntHelper.h</text>
</a>
</g>
</g>
<!-- Node7&#45;&gt;Node8 -->
<g id="edge7_Node000007_Node000008" class="edge">
<title>Node7&#45;&gt;Node8</title>
<g id="a_edge7_Node000007_Node000008"><a xlink:title=" ">
<path fill="none" stroke="#63b8ff" d="M866.45,-136.48C793.86,-127.45 646.09,-108.66 521.25,-90.25 512.59,-88.97 503.5,-87.57 494.5,-86.15"/>
<polygon fill="#63b8ff" stroke="#63b8ff" points="495.12,-82.71 484.69,-84.59 494.02,-89.62 495.12,-82.71"/>
</a>
</g>
</g>
<!-- Node11 -->
<g id="Node000011" class="node">
<title>Node11</title>
<g id="a_Node000011"><a xlink:title=" ">
<polygon fill="#e0e0e0" stroke="#999999" points="636.25,-20.75 494.25,-20.75 494.25,0 636.25,0 636.25,-20.75"/>
<text text-anchor="middle" x="565.25" y="-7.25" font-family="Helvetica,sans-Serif" font-size="10.00">llvm/ADT/DynamicAPInt.h</text>
</a>
</g>
</g>
<!-- Node7&#45;&gt;Node11 -->
<g id="edge24_Node000007_Node000011" class="edge">
<title>Node7&#45;&gt;Node11</title>
<g id="a_edge24_Node000007_Node000011"><a xlink:title=" ">
<path fill="none" stroke="#63b8ff" d="M866.57,-142.45C779.95,-142.26 594.16,-136.36 554.25,-90.25 540.37,-74.21 547.07,-49.07 554.68,-31.5"/>
<polygon fill="#63b8ff" stroke="#63b8ff" points="557.79,-33.11 558.94,-22.58 551.47,-30.09 557.79,-33.11"/>
</a>
</g>
</g>
<!-- Node14 -->
<g id="Node000014" class="node">
<title>Node14</title>
<g id="a_Node000014"><a xlink:href="ErrorHelper_8h.html" target="_top" xlink:title=" ">
<polygon fill="white" stroke="#666666" points="1762.38,-83.88 1642.12,-83.88 1642.12,-63.12 1762.38,-63.12 1762.38,-83.88"/>
<text text-anchor="middle" x="1702.25" y="-70.38" font-family="Helvetica,sans-Serif" font-size="10.00">llzk/Util/ErrorHelper.h</text>
</a>
</g>
</g>
<!-- Node7&#45;&gt;Node14 -->
<g id="edge13_Node000007_Node000014" class="edge">
<title>Node7&#45;&gt;Node14</title>
<g id="a_edge13_Node000007_Node000014"><a xlink:title=" ">
<path fill="none" stroke="#63b8ff" d="M940.39,-132.19C948.37,-129.87 957.07,-127.66 965.25,-126.25 1241.64,-78.68 1316.24,-118.7 1595.25,-90.25 1606.72,-89.08 1618.84,-87.57 1630.64,-85.94"/>
<polygon fill="#63b8ff" stroke="#63b8ff" points="1630.91,-89.44 1640.32,-84.57 1629.93,-82.51 1630.91,-89.44"/>
</a>
</g>
</g>
<!-- Node21 -->
<g id="Node000021" class="node">
<title>Node21</title>
<g id="a_Node000021"><a xlink:title=" ">
<polygon fill="#e0e0e0" stroke="#999999" points="703.12,-83.88 563.38,-83.88 563.38,-63.12 703.12,-63.12 703.12,-83.88"/>
<text text-anchor="middle" x="633.25" y="-70.38" font-family="Helvetica,sans-Serif" font-size="10.00">mlir/IR/BuiltinAttributes.h</text>
</a>
</g>
</g>
<!-- Node7&#45;&gt;Node21 -->
<g id="edge20_Node000007_Node000021" class="edge">
<title>Node7&#45;&gt;Node21</title>
<g id="a_edge20_Node000007_Node000021"><a xlink:title=" ">
<path fill="none" stroke="#63b8ff" d="M870.83,-132.18C821.62,-120.24 738.46,-100.04 684.72,-87"/>
<polygon fill="#63b8ff" stroke="#63b8ff" points="685.74,-83.64 675.19,-84.68 684.08,-90.44 685.74,-83.64"/>
</a>
</g>
</g>
<!-- Node22 -->
<g id="Node000022" class="node">
<title>Node22</title>
<g id="a_Node000022"><a xlink:title=" ">
<polygon fill="#e0e0e0" stroke="#999999" points="835,-83.88 721.5,-83.88 721.5,-63.12 835,-63.12 835,-83.88"/>
<text text-anchor="middle" x="778.25" y="-70.38" font-family="Helvetica,sans-Serif" font-size="10.00">mlir/Support/LLVM.h</text>
</a>
</g>
</g>
<!-- Node7&#45;&gt;Node22 -->
<g id="edge22_Node000007_Node000022" class="edge">
<title>Node7&#45;&gt;Node22</title>
<g id="a_edge22_Node000007_Node000022"><a xlink:title=" ">
<path fill="none" stroke="#63b8ff" d="M891.91,-132.18C869.85,-120.99 833.51,-102.55 807.87,-89.53"/>
<polygon fill="#63b8ff" stroke="#63b8ff" points="809.46,-86.42 798.96,-85.01 806.3,-92.66 809.46,-86.42"/>
</a>
</g>
</g>
<!-- Node23 -->
<g id="Node000023" class="node">
<title>Node23</title>
<g id="a_Node000023"><a xlink:title=" ">
<polygon fill="#e0e0e0" stroke="#999999" points="1586.62,-83.88 1461.88,-83.88 1461.88,-63.12 1586.62,-63.12 1586.62,-83.88"/>
<text text-anchor="middle" x="1524.25" y="-70.38" font-family="Helvetica,sans-Serif" font-size="10.00">llvm/ADT/DenseMap.h</text>
</a>
</g>
</g>
<!-- Node7&#45;&gt;Node23 -->
<g id="edge23_Node000007_Node000023" class="edge">
<title>Node7&#45;&gt;Node23</title>
<g id="a_edge23_Node000007_Node000023"><a xlink:title=" ">
<path fill="none" stroke="#63b8ff" d="M940.69,-132.2C948.59,-129.91 957.18,-127.71 965.25,-126.25 1179.26,-87.59 1238.08,-121.88 1453.25,-90.25 1459.81,-89.29 1466.67,-88.05 1473.43,-86.7"/>
<polygon fill="#63b8ff" stroke="#63b8ff" points="1474.09,-90.14 1483.15,-84.66 1472.65,-83.29 1474.09,-90.14"/>
</a>
</g>
</g>
<!-- Node24 -->
<g id="Node000024" class="node">
<title>Node24</title>
<g id="a_Node000024"><a xlink:title=" ">
<polygon fill="#e0e0e0" stroke="#999999" points="969.5,-83.88 853,-83.88 853,-63.12 969.5,-63.12 969.5,-83.88"/>
<text text-anchor="middle" x="911.25" y="-70.38" font-family="Helvetica,sans-Serif" font-size="10.00">llvm/ADT/SmallSet.h</text>
</a>
</g>
</g>
<!-- Node7&#45;&gt;Node24 -->
<g id="edge25_Node000007_Node000024" class="edge">
<title>Node7&#45;&gt;Node24</title>
<g id="a_edge25_Node000007_Node000024"><a xlink:title=" ">
<path fill="none" stroke="#63b8ff" d="M911.25,-132.33C911.25,-122.71 911.25,-107.63 911.25,-95.29"/>
<polygon fill="#63b8ff" stroke="#63b8ff" points="914.75,-95.67 911.25,-85.67 907.75,-95.67 914.75,-95.67"/>
</a>
</g>
</g>
<!-- Node25 -->
<g id="Node000025" class="node">
<title>Node25</title>
<g id="a_Node000025"><a xlink:title=" ">
<polygon fill="#e0e0e0" stroke="#999999" points="1143,-83.88 987.5,-83.88 987.5,-63.12 1143,-63.12 1143,-83.88"/>
<text text-anchor="middle" x="1065.25" y="-70.38" font-family="Helvetica,sans-Serif" font-size="10.00">llvm/Support/LogicalResult.h</text>
</a>
</g>
</g>
<!-- Node7&#45;&gt;Node25 -->
<g id="edge26_Node000007_Node000025" class="edge">
<title>Node7&#45;&gt;Node25</title>
<g id="a_edge26_Node000007_Node000025"><a xlink:title=" ">
<path fill="none" stroke="#63b8ff" d="M933.64,-132.18C959.65,-120.79 1002.77,-101.89 1032.53,-88.84"/>
<polygon fill="#63b8ff" stroke="#63b8ff" points="1033.69,-92.15 1041.44,-84.93 1030.88,-85.74 1033.69,-92.15"/>
</a>
</g>
</g>
<!-- Node26 -->
<g id="Node000026" class="node">
<title>Node26</title>
<g id="a_Node000026"><a xlink:title=" ">
<polygon fill="#e0e0e0" stroke="#999999" points="1287.38,-83.88 1161.12,-83.88 1161.12,-63.12 1287.38,-63.12 1287.38,-83.88"/>
<text text-anchor="middle" x="1224.25" y="-70.38" font-family="Helvetica,sans-Serif" font-size="10.00">llvm/Support/SMTAPI.h</text>
</a>
</g>
</g>
<!-- Node7&#45;&gt;Node26 -->
<g id="edge27_Node000007_Node000026" class="edge">
<title>Node7&#45;&gt;Node26</title>
<g id="a_edge27_Node000007_Node000026"><a xlink:title=" ">
<path fill="none" stroke="#63b8ff" d="M943.1,-132.17C950.35,-130.09 958.04,-127.99 965.25,-126.25 1047.52,-106.38 1069.35,-107.29 1152.25,-90.25 1157.75,-89.12 1163.48,-87.91 1169.2,-86.69"/>
<polygon fill="#63b8ff" stroke="#63b8ff" points="1169.6,-90.19 1178.64,-84.66 1168.13,-83.34 1169.6,-90.19"/>
</a>
</g>
</g>
<!-- Node27 -->
<g id="Node000027" class="node">
<title>Node27</title>
<g id="a_Node000027"><a xlink:title=" ">
<polygon fill="#e0e0e0" stroke="#999999" points="1370.62,-83.88 1305.88,-83.88 1305.88,-63.12 1370.62,-63.12 1370.62,-83.88"/>
<text text-anchor="middle" x="1338.25" y="-70.38" font-family="Helvetica,sans-Serif" font-size="10.00">functional</text>
</a>
</g>
</g>
<!-- Node7&#45;&gt;Node27 -->
<g id="edge28_Node000007_Node000027" class="edge">
<title>Node7&#45;&gt;Node27</title>
<g id="a_edge28_Node000007_Node000027"><a xlink:title=" ">
<path fill="none" stroke="#63b8ff" d="M941.58,-132.14C949.24,-129.93 957.49,-127.79 965.25,-126.25 1110.39,-97.42 1152.29,-124.5 1296.25,-90.25 1299.03,-89.59 1301.88,-88.79 1304.72,-87.91"/>
<polygon fill="#63b8ff" stroke="#63b8ff" points="1305.71,-91.27 1314.04,-84.72 1303.44,-84.65 1305.71,-91.27"/>
</a>
</g>
</g>
<!-- Node28 -->
<g id="Node000028" class="node">
<title>Node28</title>
<g id="a_Node000028"><a xlink:title=" ">
<polygon fill="#e0e0e0" stroke="#999999" points="1444.12,-83.88 1388.38,-83.88 1388.38,-63.12 1444.12,-63.12 1444.12,-83.88"/>
<text text-anchor="middle" x="1416.25" y="-70.38" font-family="Helvetica,sans-Serif" font-size="10.00">optional</text>
</a>
</g>
</g>
<!-- Node7&#45;&gt;Node28 -->
<g id="edge29_Node000007_Node000028" class="edge">
<title>Node7&#45;&gt;Node28</title>
<g id="a_edge29_Node000007_Node000028"><a xlink:title=" ">
<path fill="none" stroke="#63b8ff" d="M940.99,-132.19C948.81,-129.92 957.28,-127.74 965.25,-126.25 1146.78,-92.23 1200.05,-134.98 1379.25,-90.25 1381.38,-89.72 1383.55,-89.08 1385.72,-88.36"/>
<polygon fill="#63b8ff" stroke="#63b8ff" points="1386.77,-91.71 1394.88,-84.89 1384.29,-85.16 1386.77,-91.71"/>
</a>
</g>
</g>
<!-- Node29 -->
<g id="Node000029" class="node">
<title>Node29</title>
<g id="a_Node000029"><a xlink:title=" ">
<polygon fill="#e0e0e0" stroke="#999999" points="323.38,-83.88 251.12,-83.88 251.12,-63.12 323.38,-63.12 323.38,-83.88"/>
<text text-anchor="middle" x="287.25" y="-70.38" font-family="Helvetica,sans-Serif" font-size="10.00">string_view</text>
</a>
</g>
</g>
<!-- Node7&#45;&gt;Node29 -->
<g id="edge30_Node000007_Node000029" class="edge">
<title>Node7&#45;&gt;Node29</title>
<g id="a_edge30_Node000007_Node000029"><a xlink:title=" ">
<path fill="none" stroke="#63b8ff" d="M866.38,-141.75C768.32,-140.38 528.06,-132.58 332.25,-90.25 329.06,-89.56 325.79,-88.71 322.54,-87.77"/>
<polygon fill="#63b8ff" stroke="#63b8ff" points="323.72,-84.47 313.13,-84.75 321.58,-91.14 323.72,-84.47"/>
</a>
</g>
</g>
<!-- Node9 -->
<g id="Node000009" class="node">
<title>Node9</title>
<g id="a_Node000009"><a xlink:title=" ">
<polygon fill="#e0e0e0" stroke="#999999" points="353.5,-20.75 255,-20.75 255,0 353.5,0 353.5,-20.75"/>
<text text-anchor="middle" x="304.25" y="-7.25" font-family="Helvetica,sans-Serif" font-size="10.00">llvm/ADT/APInt.h</text>
</a>
</g>
</g>
<!-- Node8&#45;&gt;Node9 -->
<g id="edge8_Node000008_Node000009" class="edge">
<title>Node8&#45;&gt;Node9</title>
<g id="a_edge8_Node000008_Node000009"><a xlink:title=" ">
<path fill="none" stroke="#63b8ff" d="M404.97,-62.68C385.73,-52.88 355.9,-37.68 333.69,-26.37"/>
<polygon fill="#63b8ff" stroke="#63b8ff" points="335.33,-23.28 324.83,-21.86 332.15,-29.52 335.33,-23.28"/>
</a>
</g>
</g>
<!-- Node10 -->
<g id="Node000010" class="node">
<title>Node10</title>
<g id="a_Node000010"><a xlink:title=" ">
<polygon fill="#e0e0e0" stroke="#999999" points="476.5,-20.75 372,-20.75 372,0 476.5,0 476.5,-20.75"/>
<text text-anchor="middle" x="424.25" y="-7.25" font-family="Helvetica,sans-Serif" font-size="10.00">llvm/ADT/APSInt.h</text>
</a>
</g>
</g>
<!-- Node8&#45;&gt;Node10 -->
<g id="edge9_Node000008_Node000010" class="edge">
<title>Node8&#45;&gt;Node10</title>
<g id="a_edge9_Node000008_Node000010"><a xlink:title=" ">
<path fill="none" stroke="#63b8ff" d="M424.25,-62.68C424.25,-54.52 424.25,-42.63 424.25,-32.35"/>
<polygon fill="#63b8ff" stroke="#63b8ff" points="427.75,-32.48 424.25,-22.48 420.75,-32.48 427.75,-32.48"/>
</a>
</g>
</g>
<!-- Node8&#45;&gt;Node11 -->
<g id="edge10_Node000008_Node000011" class="edge">
<title>Node8&#45;&gt;Node11</title>
<g id="a_edge10_Node000008_Node000011"><a xlink:title=" ">
<path fill="none" stroke="#63b8ff" d="M446.9,-62.68C470.03,-52.65 506.16,-36.99 532.42,-25.61"/>
<polygon fill="#63b8ff" stroke="#63b8ff" points="533.48,-28.96 541.26,-21.77 530.7,-22.54 533.48,-28.96"/>
</a>
</g>
</g>
<!-- Node12 -->
<g id="Node000012" class="node">
<title>Node12</title>
<g id="a_Node000012"><a xlink:title=" ">
<polygon fill="#e0e0e0" stroke="#999999" points="236.88,-20.75 71.62,-20.75 71.62,0 236.88,0 236.88,-20.75"/>
<text text-anchor="middle" x="154.25" y="-7.25" font-family="Helvetica,sans-Serif" font-size="10.00">llvm/ADT/SlowDynamicAPInt.h</text>
</a>
</g>
</g>
<!-- Node8&#45;&gt;Node12 -->
<g id="edge11_Node000008_Node000012" class="edge">
<title>Node8&#45;&gt;Node12</title>
<g id="a_edge11_Node000008_Node000012"><a xlink:title=" ">
<path fill="none" stroke="#63b8ff" d="M380.87,-62.68C334.03,-52.07 259.32,-35.16 208.6,-23.68"/>
<polygon fill="#63b8ff" stroke="#63b8ff" points="209.52,-20.3 199,-21.51 207.98,-27.13 209.52,-20.3"/>
</a>
</g>
</g>
<!-- Node13 -->
<g id="Node000013" class="node">
<title>Node13</title>
<g id="a_Node000013"><a xlink:title=" ">
<polygon fill="#e0e0e0" stroke="#999999" points="966.88,-20.75 849.62,-20.75 849.62,0 966.88,0 966.88,-20.75"/>
<text text-anchor="middle" x="908.25" y="-7.25" font-family="Helvetica,sans-Serif" font-size="10.00">llvm/ADT/StringRef.h</text>
</a>
</g>
</g>
<!-- Node8&#45;&gt;Node13 -->
<g id="edge12_Node000008_Node000013" class="edge">
<title>Node8&#45;&gt;Node13</title>
<g id="a_edge12_Node000008_Node000013"><a xlink:title=" ">
<path fill="none" stroke="#63b8ff" d="M502.28,-62.65C595.14,-50.92 748.8,-31.51 838.06,-20.24"/>
<polygon fill="#63b8ff" stroke="#63b8ff" points="838.43,-23.72 847.92,-18.99 837.56,-16.78 838.43,-23.72"/>
</a>
</g>
</g>
<!-- Node15 -->
<g id="Node000015" class="node">
<title>Node15</title>
<g id="a_Node000015"><a xlink:title=" ">
<polygon fill="#e0e0e0" stroke="#999999" points="1271.88,-20.75 1154.62,-20.75 1154.62,0 1271.88,0 1271.88,-20.75"/>
<text text-anchor="middle" x="1213.25" y="-7.25" font-family="Helvetica,sans-Serif" font-size="10.00">mlir/IR/Diagnostics.h</text>
</a>
</g>
</g>
<!-- Node14&#45;&gt;Node15 -->
<g id="edge14_Node000014_Node000015" class="edge">
<title>Node14&#45;&gt;Node15</title>
<g id="a_edge14_Node000014_Node000015"><a xlink:title=" ">
<path fill="none" stroke="#63b8ff" d="M1659.74,-62.64C1649.47,-60.48 1638.5,-58.37 1628.25,-56.75 1478.26,-33.1 1436.54,-39.22 1283.29,-21.07"/>
<polygon fill="#63b8ff" stroke="#63b8ff" points="1283.91,-17.62 1273.56,-19.91 1283.07,-24.57 1283.91,-17.62"/>
</a>
</g>
</g>
<!-- Node16 -->
<g id="Node000016" class="node">
<title>Node16</title>
<g id="a_Node000016"><a xlink:title=" ">
<polygon fill="#e0e0e0" stroke="#999999" points="1949.38,-20.75 1841.12,-20.75 1841.12,0 1949.38,0 1949.38,-20.75"/>
<text text-anchor="middle" x="1895.25" y="-7.25" font-family="Helvetica,sans-Serif" font-size="10.00">mlir/IR/Operation.h</text>
</a>
</g>
</g>
<!-- Node14&#45;&gt;Node16 -->
<g id="edge15_Node000014_Node000016" class="edge">
<title>Node14&#45;&gt;Node16</title>
<g id="a_edge15_Node000014_Node000016"><a xlink:title=" ">
<path fill="none" stroke="#63b8ff" d="M1733.26,-62.68C1765.9,-52.34 1817.46,-36.01 1853.63,-24.56"/>
<polygon fill="#63b8ff" stroke="#63b8ff" points="1854.4,-27.98 1862.88,-21.63 1852.29,-21.31 1854.4,-27.98"/>
</a>
</g>
</g>
<!-- Node17 -->
<g id="Node000017" class="node">
<title>Node17</title>
<g id="a_Node000017"><a xlink:title=" ">
<polygon fill="#e0e0e0" stroke="#999999" points="1460.88,-20.75 1289.62,-20.75 1289.62,0 1460.88,0 1460.88,-20.75"/>
<text text-anchor="middle" x="1375.25" y="-7.25" font-family="Helvetica,sans-Serif" font-size="10.00">llvm/ADT/STLFunctionalExtras.h</text>
</a>
</g>
</g>
<!-- Node14&#45;&gt;Node17 -->
<g id="edge16_Node000014_Node000017" class="edge">
<title>Node14&#45;&gt;Node17</title>
<g id="a_edge16_Node000014_Node000017"><a xlink:title=" ">
<path fill="none" stroke="#63b8ff" d="M1657.29,-62.69C1647.72,-60.67 1637.66,-58.59 1628.25,-56.75 1566.16,-44.58 1495.25,-31.97 1444.33,-23.14"/>
<polygon fill="#63b8ff" stroke="#63b8ff" points="1445.07,-19.72 1434.62,-21.47 1443.88,-26.62 1445.07,-19.72"/>
</a>
</g>
</g>
<!-- Node18 -->
<g id="Node000018" class="node">
<title>Node18</title>
<g id="a_Node000018"><a xlink:title=" ">
<polygon fill="#e0e0e0" stroke="#999999" points="1579.62,-20.75 1478.88,-20.75 1478.88,0 1579.62,0 1579.62,-20.75"/>
<text text-anchor="middle" x="1529.25" y="-7.25" font-family="Helvetica,sans-Serif" font-size="10.00">llvm/ADT/Twine.h</text>
</a>
</g>
</g>
<!-- Node14&#45;&gt;Node18 -->
<g id="edge17_Node000014_Node000018" class="edge">
<title>Node14&#45;&gt;Node18</title>
<g id="a_edge17_Node000014_Node000018"><a xlink:title=" ">
<path fill="none" stroke="#63b8ff" d="M1674.45,-62.68C1645.58,-52.48 1600.17,-36.43 1567.82,-25"/>
<polygon fill="#63b8ff" stroke="#63b8ff" points="1569,-21.71 1558.4,-21.68 1566.67,-28.31 1569,-21.71"/>
</a>
</g>
</g>
<!-- Node19 -->
<g id="Node000019" class="node">
<title>Node19</title>
<g id="a_Node000019"><a xlink:title=" ">
<polygon fill="#e0e0e0" stroke="#999999" points="1754.75,-20.75 1597.75,-20.75 1597.75,0 1754.75,0 1754.75,-20.75"/>
<text text-anchor="middle" x="1676.25" y="-7.25" font-family="Helvetica,sans-Serif" font-size="10.00">llvm/Support/ErrorHandling.h</text>
</a>
</g>
</g>
<!-- Node14&#45;&gt;Node19 -->
<g id="edge18_Node000014_Node000019" class="edge">
<title>Node14&#45;&gt;Node19</title>
<g id="a_edge18_Node000014_Node000019"><a xlink:title=" ">
<path fill="none" stroke="#63b8ff" d="M1698.07,-62.68C1694.49,-54.25 1689.21,-41.84 1684.74,-31.34"/>
<polygon fill="#63b8ff" stroke="#63b8ff" points="1688.06,-30.19 1680.92,-22.36 1681.62,-32.93 1688.06,-30.19"/>
</a>
</g>
</g>
<!-- Node20 -->
<g id="Node000020" class="node">
<title>Node20</title>
<g id="a_Node000020"><a xlink:title=" ">
<polygon fill="#e0e0e0" stroke="#999999" points="1823.5,-20.75 1773,-20.75 1773,0 1823.5,0 1823.5,-20.75"/>
<text text-anchor="middle" x="1798.25" y="-7.25" font-family="Helvetica,sans-Serif" font-size="10.00">variant</text>
</a>
</g>
</g>
<!-- Node14&#45;&gt;Node20 -->
<g id="edge19_Node000014_Node000020" class="edge">
<title>Node14&#45;&gt;Node20</title>
<g id="a_edge19_Node000014_Node000020"><a xlink:title=" ">
<path fill="none" stroke="#63b8ff" d="M1717.67,-62.68C1732.65,-53.14 1755.64,-38.51 1773.23,-27.31"/>
<polygon fill="#63b8ff" stroke="#63b8ff" points="1775.03,-30.31 1781.59,-21.98 1771.27,-24.4 1775.03,-30.31"/>
</a>
</g>
</g>
<!-- Node31&#45;&gt;Node16 -->
<g id="edge34_Node000031_Node000016" class="edge">
<title>Node31&#45;&gt;Node16</title>
<g id="a_edge34_Node000031_Node000016"><a xlink:title=" ">
<path fill="none" stroke="#63b8ff" d="M1690.12,-195.46C1731.43,-158.39 1833.24,-67.02 1875.93,-28.72"/>
<polygon fill="#63b8ff" stroke="#63b8ff" points="1878.09,-31.48 1883.19,-22.19 1873.41,-26.27 1878.09,-31.48"/>
</a>
</g>
</g>
<!-- Node32 -->
<g id="Node000032" class="node">
<title>Node32</title>
<g id="a_Node000032"><a xlink:title=" ">
<polygon fill="#e0e0e0" stroke="#999999" points="1896.75,-153.38 1775.75,-153.38 1775.75,-132.62 1896.75,-132.62 1896.75,-153.38"/>
<text text-anchor="middle" x="1836.25" y="-139.88" font-family="Helvetica,sans-Serif" font-size="10.00">mlir/IR/OpDefinition.h</text>
</a>
</g>
</g>
<!-- Node31&#45;&gt;Node32 -->
<g id="edge33_Node000031_Node000032" class="edge">
<title>Node31&#45;&gt;Node32</title>
<g id="a_edge33_Node000031_Node000032"><a xlink:title=" ">
<path fill="none" stroke="#63b8ff" d="M1711.53,-195.33C1739.06,-184 1775.5,-169 1801.88,-158.15"/>
<polygon fill="#63b8ff" stroke="#63b8ff" points="1803.19,-161.39 1811.11,-154.35 1800.53,-154.92 1803.19,-161.39"/>
</a>
</g>
</g>
<!-- Node33 -->
<g id="Node000033" class="node">
<title>Node33</title>
<g id="a_Node000033"><a xlink:title=" ">
<polygon fill="#e0e0e0" stroke="#999999" points="1718.88,-153.38 1565.62,-153.38 1565.62,-132.62 1718.88,-132.62 1718.88,-153.38"/>
<text text-anchor="middle" x="1642.25" y="-139.88" font-family="Helvetica,sans-Serif" font-size="10.00">mlir/Support/LogicalResult.h</text>
</a>
</g>
</g>
<!-- Node31&#45;&gt;Node33 -->
<g id="edge35_Node000031_Node000033" class="edge">
<title>Node31&#45;&gt;Node33</title>
<g id="a_edge35_Node000031_Node000033"><a xlink:title=" ">
<path fill="none" stroke="#63b8ff" d="M1665.14,-195.5C1660.96,-186.1 1655.64,-174.12 1651.18,-164.09"/>
<polygon fill="#63b8ff" stroke="#63b8ff" points="1654.49,-162.92 1647.23,-155.2 1648.09,-165.76 1654.49,-162.92"/>
</a>
</g>
</g>
<!-- Node34&#45;&gt;Node5 -->
<g id="edge37_Node000034_Node000005" class="edge">
<title>Node34&#45;&gt;Node5</title>
<g id="a_edge37_Node000034_Node000005"><a xlink:title=" ">
<path fill="none" stroke="#63b8ff" d="M110.58,-195.32C97.67,-186.4 83.21,-174.2 74.25,-159.75 62.1,-140.16 57.68,-113.78 56.1,-95.57"/>
<polygon fill="#63b8ff" stroke="#63b8ff" points="59.6,-95.49 55.47,-85.73 52.61,-95.93 59.6,-95.49"/>
</a>
</g>
</g>
<!-- Node35 -->
<g id="Node000035" class="node">
<title>Node35</title>
<g id="a_Node000035"><a xlink:href="RAM_2IR_2Dialect_8h_8inc.html" target="_top" xlink:title=" ">
<polygon fill="white" stroke="#666666" points="192.75,-159.75 83.75,-159.75 83.75,-126.25 192.75,-126.25 192.75,-159.75"/>
<text text-anchor="start" x="91.75" y="-146.25" font-family="Helvetica,sans-Serif" font-size="10.00">llzk/Dialect/RAM/IR</text>
<text text-anchor="middle" x="138.25" y="-133.5" font-family="Helvetica,sans-Serif" font-size="10.00">/Dialect.h.inc</text>
</a>
</g>
</g>
<!-- Node34&#45;&gt;Node35 -->
<g id="edge38_Node000034_Node000035" class="edge">
<title>Node34&#45;&gt;Node35</title>
<g id="a_edge38_Node000034_Node000035"><a xlink:title=" ">
<path fill="none" stroke="#63b8ff" d="M138.25,-195.5C138.25,-188.27 138.25,-179.53 138.25,-171.31"/>
<polygon fill="#63b8ff" stroke="#63b8ff" points="141.75,-171.4 138.25,-161.4 134.75,-171.4 141.75,-171.4"/>
</a>
</g>
</g>
<!-- Node37&#45;&gt;Node13 -->
<g id="edge47_Node000037_Node000013" class="edge">
<title>Node37&#45;&gt;Node13</title>
<g id="a_edge47_Node000037_Node000013"><a xlink:title=" ">
<path fill="none" stroke="#63b8ff" d="M1934.83,-132.19C1925.5,-130.06 1915.55,-127.94 1906.25,-126.25 1785.83,-104.42 1744.65,-140.92 1633.25,-90.25 1612.76,-80.93 1616.04,-65.4 1595.25,-56.75 1567.12,-45.05 1147.82,-23.19 978.44,-14.79"/>
<polygon fill="#63b8ff" stroke="#63b8ff" points="978.84,-11.3 968.68,-14.31 978.49,-18.3 978.84,-11.3"/>
</a>
</g>
</g>
<!-- Node37&#45;&gt;Node14 -->
<g id="edge41_Node000037_Node000014" class="edge">
<title>Node37&#45;&gt;Node14</title>
<g id="a_edge41_Node000037_Node000014"><a xlink:title=" ">
<path fill="none" stroke="#63b8ff" d="M1934.7,-132.18C1886.65,-120.26 1805.53,-100.13 1752.94,-87.08"/>
<polygon fill="#63b8ff" stroke="#63b8ff" points="1753.87,-83.7 1743.32,-84.69 1752.18,-90.5 1753.87,-83.7"/>
</a>
</g>
</g>
<!-- Node37&#45;&gt;Node16 -->
<g id="edge43_Node000037_Node000016" class="edge">
<title>Node37&#45;&gt;Node16</title>
<g id="a_edge43_Node000037_Node000016"><a xlink:title=" ">
<path fill="none" stroke="#63b8ff" d="M1943.74,-132.23C1924.37,-124.25 1900.85,-110.88 1889.25,-90.25 1879.18,-72.33 1882.94,-48.4 1887.79,-31.62"/>
<polygon fill="#63b8ff" stroke="#63b8ff" points="1891.06,-32.88 1890.87,-22.28 1884.42,-30.69 1891.06,-32.88"/>
</a>
</g>
</g>
<!-- Node37&#45;&gt;Node23 -->
<g id="edge46_Node000037_Node000023" class="edge">
<title>Node37&#45;&gt;Node23</title>
<g id="a_edge46_Node000037_Node000023"><a xlink:title=" ">
<path fill="none" stroke="#63b8ff" d="M1935.21,-132.18C1925.77,-130.02 1915.68,-127.89 1906.25,-126.25 1771.34,-102.76 1735.42,-112.16 1600.25,-90.25 1593.52,-89.16 1586.49,-87.88 1579.53,-86.54"/>
<polygon fill="#63b8ff" stroke="#63b8ff" points="1580.31,-83.13 1569.82,-84.61 1578.94,-89.99 1580.31,-83.13"/>
</a>
</g>
</g>
<!-- Node38 -->
<g id="Node000038" class="node">
<title>Node38</title>
<g id="a_Node000038"><a xlink:title=" ">
<polygon fill="#e0e0e0" stroke="#999999" points="2050.12,-83.88 1898.38,-83.88 1898.38,-63.12 2050.12,-63.12 2050.12,-83.88"/>
<text text-anchor="middle" x="1974.25" y="-70.38" font-family="Helvetica,sans-Serif" font-size="10.00">mlir/IR/OpImplementation.h</text>
</a>
</g>
</g>
<!-- Node37&#45;&gt;Node38 -->
<g id="edge42_Node000037_Node000038" class="edge">
<title>Node37&#45;&gt;Node38</title>
<g id="a_edge42_Node000037_Node000038"><a xlink:title=" ">
<path fill="none" stroke="#63b8ff" d="M1974.25,-132.33C1974.25,-122.71 1974.25,-107.63 1974.25,-95.29"/>
<polygon fill="#63b8ff" stroke="#63b8ff" points="1977.75,-95.67 1974.25,-85.67 1970.75,-95.67 1977.75,-95.67"/>
</a>
</g>
</g>
<!-- Node39 -->
<g id="Node000039" class="node">
<title>Node39</title>
<g id="a_Node000039"><a xlink:title=" ">
<polygon fill="#e0e0e0" stroke="#999999" points="2190.5,-83.88 2068,-83.88 2068,-63.12 2190.5,-63.12 2190.5,-83.88"/>
<text text-anchor="middle" x="2129.25" y="-70.38" font-family="Helvetica,sans-Serif" font-size="10.00">mlir/IR/SymbolTable.h</text>
</a>
</g>
</g>
<!-- Node37&#45;&gt;Node39 -->
<g id="edge44_Node000037_Node000039" class="edge">
<title>Node37&#45;&gt;Node39</title>
<g id="a_edge44_Node000037_Node000039"><a xlink:title=" ">
<path fill="none" stroke="#63b8ff" d="M1996.79,-132.18C2022.96,-120.79 2066.36,-101.89 2096.32,-88.84"/>
<polygon fill="#63b8ff" stroke="#63b8ff" points="2097.53,-92.13 2105.3,-84.93 2094.73,-85.72 2097.53,-92.13"/>
</a>
</g>
</g>
<!-- Node40 -->
<g id="Node000040" class="node">
<title>Node40</title>
<g id="a_Node000040"><a xlink:title=" ">
<polygon fill="#e0e0e0" stroke="#999999" points="2323.75,-83.88 2208.75,-83.88 2208.75,-63.12 2323.75,-63.12 2323.75,-83.88"/>
<text text-anchor="middle" x="2266.25" y="-70.38" font-family="Helvetica,sans-Serif" font-size="10.00">llvm/ADT/ArrayRef.h</text>
</a>
</g>
</g>
<!-- Node37&#45;&gt;Node40 -->
<g id="edge45_Node000037_Node000040" class="edge">
<title>Node37&#45;&gt;Node40</title>
<g id="a_edge45_Node000037_Node000040"><a xlink:title=" ">
<path fill="none" stroke="#63b8ff" d="M2017.4,-132.14C2062.7,-121.77 2136,-104.96 2199.25,-90.25 2203.83,-89.18 2208.59,-88.07 2213.36,-86.96"/>
<polygon fill="#63b8ff" stroke="#63b8ff" points="2214.03,-90.4 2222.97,-84.71 2212.43,-83.58 2214.03,-90.4"/>
</a>
</g>
</g>
</g>
</svg>
