<?xml version="1.0" encoding="UTF-8" standalone="no"?>
<!DOCTYPE svg PUBLIC "-//W3C//DTD SVG 1.1//EN"
 "http://www.w3.org/Graphics/SVG/1.1/DTD/svg11.dtd">
<!-- Generated by graphviz version 12.2.1 (0)
 -->
<!-- Title: lib/CAPI/Dialect/RAM.cpp Pages: 1 -->
<svg width="2848pt" height="364pt"
 viewBox="0.00 0.00 2848.11 363.50" xmlns="http://www.w3.org/2000/svg" xmlns:xlink="http://www.w3.org/1999/xlink">
<g id="graph0" class="graph" transform="scale(1 1) rotate(0) translate(4 359.5)">
<title>lib/CAPI/Dialect/RAM.cpp</title>
<!-- Node1 -->
<g id="Node000001" class="node">
<title>Node1</title>
<g id="a_Node000001"><a xlink:title=" ">
<polygon fill="#999999" stroke="#666666" points="1436.86,-355.5 1300.11,-355.5 1300.11,-334.75 1436.86,-334.75 1436.86,-355.5"/>
<text text-anchor="middle" x="1368.48" y="-342" font-family="Helvetica,sans-Serif" font-size="10.00">lib/CAPI/Dialect/RAM.cpp</text>
</a>
</g>
</g>
<!-- Node2 -->
<g id="Node000002" class="node">
<title>Node2</title>
<g id="a_Node000002"><a xlink:href="RAM_8h.html" target="_top" xlink:title=" ">
<polygon fill="white" stroke="#666666" points="125.61,-292.38 11.36,-292.38 11.36,-271.62 125.61,-271.62 125.61,-292.38"/>
<text text-anchor="middle" x="68.48" y="-278.88" font-family="Helvetica,sans-Serif" font-size="10.00">llzk&#45;c/Dialect/RAM.h</text>
</a>
</g>
</g>
<!-- Node1&#45;&gt;Node2 -->
<g id="edge1_Node000001_Node000002" class="edge">
<title>Node1&#45;&gt;Node2</title>
<g id="a_edge1_Node000001_Node000002"><a xlink:title=" ">
<path fill="none" stroke="#63b8ff" d="M1299.96,-340.9C1075.29,-330.34 362.42,-296.82 137.3,-286.24"/>
<polygon fill="#63b8ff" stroke="#63b8ff" points="137.67,-282.75 127.52,-285.78 137.34,-289.74 137.67,-282.75"/>
</a>
</g>
</g>
<!-- Node7 -->
<g id="Node000007" class="node">
<title>Node7</title>
<g id="a_Node000007"><a xlink:href="llzk_2CAPI_2Support_8h.html" target="_top" xlink:title=" ">
<polygon fill="white" stroke="#666666" points="697.61,-292.38 589.36,-292.38 589.36,-271.62 697.61,-271.62 697.61,-292.38"/>
<text text-anchor="middle" x="643.48" y="-278.88" font-family="Helvetica,sans-Serif" font-size="10.00">llzk/CAPI/Support.h</text>
</a>
</g>
</g>
<!-- Node1&#45;&gt;Node7 -->
<g id="edge8_Node000001_Node000007" class="edge">
<title>Node1&#45;&gt;Node7</title>
<g id="a_edge8_Node000001_Node000007"><a xlink:title=" ">
<path fill="none" stroke="#63b8ff" d="M1299.62,-338.32C1160.04,-326.55 845.45,-300.03 708.85,-288.51"/>
<polygon fill="#63b8ff" stroke="#63b8ff" points="709.52,-285.06 699.26,-287.7 708.93,-292.03 709.52,-285.06"/>
</a>
</g>
</g>
<!-- Node18 -->
<g id="Node000018" class="node">
<title>Node18</title>
<g id="a_Node000018"><a xlink:href="RAM_2IR_2Dialect_8h.html" target="_top" xlink:title=" ">
<polygon fill="white" stroke="#666666" points="1296.98,-229.25 1187.98,-229.25 1187.98,-195.75 1296.98,-195.75 1296.98,-229.25"/>
<text text-anchor="start" x="1195.98" y="-215.75" font-family="Helvetica,sans-Serif" font-size="10.00">llzk/Dialect/RAM/IR</text>
<text text-anchor="middle" x="1242.48" y="-203" font-family="Helvetica,sans-Serif" font-size="10.00">/Dialect.h</text>
</a>
</g>
</g>
<!-- Node1&#45;&gt;Node18 -->
<g id="edge23_Node000001_Node000018" class="edge">
<title>Node1&#45;&gt;Node18</title>
<g id="a_edge23_Node000001_Node000018"><a xlink:title=" ">
<path fill="none" stroke="#63b8ff" d="M1359.01,-334.31C1339.32,-313.89 1293.48,-266.37 1265.52,-237.38"/>
<polygon fill="#63b8ff" stroke="#63b8ff" points="1268.32,-235.24 1258.86,-230.47 1263.28,-240.1 1268.32,-235.24"/>
</a>
</g>
</g>
<!-- Node21 -->
<g id="Node000021" class="node">
<title>Node21</title>
<g id="a_Node000021"><a xlink:href="RAM_2IR_2Ops_8h.html" target="_top" xlink:title=" ">
<polygon fill="white" stroke="#666666" points="1485.98,-298.75 1376.98,-298.75 1376.98,-265.25 1485.98,-265.25 1485.98,-298.75"/>
<text text-anchor="start" x="1384.98" y="-285.25" font-family="Helvetica,sans-Serif" font-size="10.00">llzk/Dialect/RAM/IR</text>
<text text-anchor="middle" x="1431.48" y="-272.5" font-family="Helvetica,sans-Serif" font-size="10.00">/Ops.h</text>
</a>
</g>
</g>
<!-- Node1&#45;&gt;Node21 -->
<g id="edge26_Node000001_Node000021" class="edge">
<title>Node1&#45;&gt;Node21</title>
<g id="a_edge26_Node000001_Node000021"><a xlink:title=" ">
<path fill="none" stroke="#63b8ff" d="M1378.6,-334.3C1386.14,-327 1396.76,-316.69 1406.51,-307.23"/>
<polygon fill="#63b8ff" stroke="#63b8ff" points="1408.92,-309.76 1413.66,-300.29 1404.05,-304.74 1408.92,-309.76"/>
</a>
</g>
</g>
<!-- Node52 -->
<g id="Node000052" class="node">
<title>Node52</title>
<g id="a_Node000052"><a xlink:title=" ">
<polygon fill="#e0e0e0" stroke="#999999" points="1636.61,-292.38 1504.36,-292.38 1504.36,-271.62 1636.61,-271.62 1636.61,-292.38"/>
<text text-anchor="middle" x="1570.48" y="-278.88" font-family="Helvetica,sans-Serif" font-size="10.00">mlir/CAPI/Registration.h</text>
</a>
</g>
</g>
<!-- Node1&#45;&gt;Node52 -->
<g id="edge59_Node000001_Node000052" class="edge">
<title>Node1&#45;&gt;Node52</title>
<g id="a_edge59_Node000001_Node000052"><a xlink:title=" ">
<path fill="none" stroke="#63b8ff" d="M1400.94,-334.3C1435.25,-323.92 1489.53,-307.49 1527.41,-296.03"/>
<polygon fill="#63b8ff" stroke="#63b8ff" points="1528.1,-299.48 1536.66,-293.23 1526.07,-292.78 1528.1,-299.48"/>
</a>
</g>
</g>
<!-- Node53 -->
<g id="Node000053" class="node">
<title>Node53</title>
<g id="a_Node000053"><a xlink:href="RAM_2IR_2Ops_8capi_8cpp_8inc.html" target="_top" xlink:title=" ">
<polygon fill="white" stroke="#666666" points="1810.98,-298.75 1701.98,-298.75 1701.98,-265.25 1810.98,-265.25 1810.98,-298.75"/>
<text text-anchor="start" x="1709.98" y="-285.25" font-family="Helvetica,sans-Serif" font-size="10.00">llzk/Dialect/RAM/IR</text>
<text text-anchor="middle" x="1756.48" y="-272.5" font-family="Helvetica,sans-Serif" font-size="10.00">/Ops.capi.cpp.inc</text>
</a>
</g>
</g>
<!-- Node1&#45;&gt;Node53 -->
<g id="edge60_Node000001_Node000053" class="edge">
<title>Node1&#45;&gt;Node53</title>
<g id="a_edge60_Node000001_Node000053"><a xlink:title=" ">
<path fill="none" stroke="#63b8ff" d="M1430.82,-334.3C1501.89,-323.11 1617.59,-304.88 1690.24,-293.44"/>
<polygon fill="#63b8ff" stroke="#63b8ff" points="1690.69,-296.91 1700.02,-291.89 1689.6,-289.99 1690.69,-296.91"/>
</a>
</g>
</g>
<!-- Node3 -->
<g id="Node000003" class="node">
<title>Node3</title>
<g id="a_Node000003"><a xlink:title=" ">
<polygon fill="#e0e0e0" stroke="#999999" points="139.61,-83.88 73.36,-83.88 73.36,-63.12 139.61,-63.12 139.61,-83.88"/>
<text text-anchor="middle" x="106.48" y="-70.38" font-family="Helvetica,sans-Serif" font-size="10.00">mlir&#45;c/IR.h</text>
</a>
</g>
</g>
<!-- Node2&#45;&gt;Node3 -->
<g id="edge2_Node000002_Node000003" class="edge">
<title>Node2&#45;&gt;Node3</title>
<g id="a_edge2_Node000002_Node000003"><a xlink:title=" ">
<path fill="none" stroke="#63b8ff" d="M48.48,-271.15C33.29,-262.46 13.53,-248.21 4.48,-229.25 -1.93,-215.81 -0.62,-209.74 4.48,-195.75 20.53,-151.75 60.34,-112.65 85.22,-91.39"/>
<polygon fill="#63b8ff" stroke="#63b8ff" points="87.32,-94.19 92.77,-85.11 82.85,-88.81 87.32,-94.19"/>
</a>
</g>
</g>
<!-- Node4 -->
<g id="Node000004" class="node">
<title>Node4</title>
<g id="a_Node000004"><a xlink:href="RAM_2IR_2Ops_8capi_8h_8inc.html" target="_top" xlink:title=" ">
<polygon fill="white" stroke="#666666" points="122.98,-229.25 13.98,-229.25 13.98,-195.75 122.98,-195.75 122.98,-229.25"/>
<text text-anchor="start" x="21.98" y="-215.75" font-family="Helvetica,sans-Serif" font-size="10.00">llzk/Dialect/RAM/IR</text>
<text text-anchor="middle" x="68.48" y="-203" font-family="Helvetica,sans-Serif" font-size="10.00">/Ops.capi.h.inc</text>
</a>
</g>
</g>
<!-- Node2&#45;&gt;Node4 -->
<g id="edge3_Node000002_Node000004" class="edge">
<title>Node2&#45;&gt;Node4</title>
<g id="a_edge3_Node000002_Node000004"><a xlink:title=" ">
<path fill="none" stroke="#63b8ff" d="M68.48,-271.33C68.48,-263.44 68.48,-251.88 68.48,-241.16"/>
<polygon fill="#63b8ff" stroke="#63b8ff" points="71.98,-241.18 68.48,-231.18 64.98,-241.18 71.98,-241.18"/>
</a>
</g>
</g>
<!-- Node4&#45;&gt;Node3 -->
<g id="edge7_Node000004_Node000003" class="edge">
<title>Node4&#45;&gt;Node3</title>
<g id="a_edge7_Node000004_Node000003"><a xlink:title=" ">
<path fill="none" stroke="#63b8ff" d="M72.92,-195.52C79.81,-170.67 93.09,-122.77 100.72,-95.27"/>
<polygon fill="#63b8ff" stroke="#63b8ff" points="104.08,-96.26 103.38,-85.69 97.33,-94.39 104.08,-96.26"/>
</a>
</g>
</g>
<!-- Node5 -->
<g id="Node000005" class="node">
<title>Node5</title>
<g id="a_Node000005"><a xlink:href="llzk-c_2Builder_8h.html" target="_top" xlink:title=" ">
<polygon fill="white" stroke="#666666" points="222.48,-153.38 134.48,-153.38 134.48,-132.62 222.48,-132.62 222.48,-153.38"/>
<text text-anchor="middle" x="178.48" y="-139.88" font-family="Helvetica,sans-Serif" font-size="10.00">llzk&#45;c/Builder.h</text>
</a>
</g>
</g>
<!-- Node4&#45;&gt;Node5 -->
<g id="edge4_Node000004_Node000005" class="edge">
<title>Node4&#45;&gt;Node5</title>
<g id="a_edge4_Node000004_Node000005"><a xlink:title=" ">
<path fill="none" stroke="#63b8ff" d="M94.83,-195.33C112.47,-184.51 135.57,-170.34 153.02,-159.63"/>
<polygon fill="#63b8ff" stroke="#63b8ff" points="154.58,-162.78 161.27,-154.56 150.92,-156.81 154.58,-162.78"/>
</a>
</g>
</g>
<!-- Node5&#45;&gt;Node3 -->
<g id="edge5_Node000005_Node000003" class="edge">
<title>Node5&#45;&gt;Node3</title>
<g id="a_edge5_Node000005_Node000003"><a xlink:title=" ">
<path fill="none" stroke="#63b8ff" d="M168.17,-132.33C156.94,-121.8 138.76,-104.76 125.03,-91.89"/>
<polygon fill="#63b8ff" stroke="#63b8ff" points="127.57,-89.47 117.88,-85.19 122.79,-94.58 127.57,-89.47"/>
</a>
</g>
</g>
<!-- Node6 -->
<g id="Node000006" class="node">
<title>Node6</title>
<g id="a_Node000006"><a xlink:title=" ">
<polygon fill="#e0e0e0" stroke="#999999" points="293.48,-83.88 199.48,-83.88 199.48,-63.12 293.48,-63.12 293.48,-83.88"/>
<text text-anchor="middle" x="246.48" y="-70.38" font-family="Helvetica,sans-Serif" font-size="10.00">mlir&#45;c/Support.h</text>
</a>
</g>
</g>
<!-- Node5&#45;&gt;Node6 -->
<g id="edge6_Node000005_Node000006" class="edge">
<title>Node5&#45;&gt;Node6</title>
<g id="a_edge6_Node000005_Node000006"><a xlink:title=" ">
<path fill="none" stroke="#63b8ff" d="M188.23,-132.33C198.73,-121.9 215.68,-105.08 228.59,-92.26"/>
<polygon fill="#63b8ff" stroke="#63b8ff" points="231.05,-94.75 235.68,-85.22 226.12,-89.78 231.05,-94.75"/>
</a>
</g>
</g>
<!-- Node7&#45;&gt;Node3 -->
<g id="edge19_Node000007_Node000003" class="edge">
<title>Node7&#45;&gt;Node3</title>
<g id="a_edge19_Node000007_Node000003"><a xlink:title=" ">
<path fill="none" stroke="#63b8ff" d="M588.96,-281.69C508.67,-281.05 355.02,-273.43 233.48,-229.25 179.84,-209.75 158.14,-206.56 125.48,-159.75 112.22,-140.74 108.02,-114.05 106.79,-95.62"/>
<polygon fill="#63b8ff" stroke="#63b8ff" points="110.29,-95.5 106.4,-85.64 103.3,-95.78 110.29,-95.5"/>
</a>
</g>
</g>
<!-- Node8 -->
<g id="Node000008" class="node">
<title>Node8</title>
<g id="a_Node000008"><a xlink:href="llzk-c_2Support_8h.html" target="_top" xlink:title=" ">
<polygon fill="white" stroke="#666666" points="334.36,-222.88 242.61,-222.88 242.61,-202.12 334.36,-202.12 334.36,-222.88"/>
<text text-anchor="middle" x="288.48" y="-209.38" font-family="Helvetica,sans-Serif" font-size="10.00">llzk&#45;c/Support.h</text>
</a>
</g>
</g>
<!-- Node7&#45;&gt;Node8 -->
<g id="edge9_Node000007_Node000008" class="edge">
<title>Node7&#45;&gt;Node8</title>
<g id="a_edge9_Node000007_Node000008"><a xlink:title=" ">
<path fill="none" stroke="#63b8ff" d="M591.86,-271.18C526.38,-258.73 413.79,-237.33 345.73,-224.39"/>
<polygon fill="#63b8ff" stroke="#63b8ff" points="346.76,-221.02 336.28,-222.59 345.45,-227.89 346.76,-221.02"/>
</a>
</g>
</g>
<!-- Node10 -->
<g id="Node000010" class="node">
<title>Node10</title>
<g id="a_Node000010"><a xlink:href="AttributeHelper_8h.html" target="_top" xlink:title=" ">
<polygon fill="white" stroke="#666666" points="583.73,-229.25 473.23,-229.25 473.23,-195.75 583.73,-195.75 583.73,-229.25"/>
<text text-anchor="start" x="481.23" y="-215.75" font-family="Helvetica,sans-Serif" font-size="10.00">llzk/Dialect/LLZK/IR</text>
<text text-anchor="middle" x="528.48" y="-203" font-family="Helvetica,sans-Serif" font-size="10.00">/AttributeHelper.h</text>
</a>
</g>
</g>
<!-- Node7&#45;&gt;Node10 -->
<g id="edge14_Node000007_Node000010" class="edge">
<title>Node7&#45;&gt;Node10</title>
<g id="a_edge14_Node000007_Node000010"><a xlink:title=" ">
<path fill="none" stroke="#63b8ff" d="M627.01,-271.33C611.1,-261.99 586.46,-247.53 565.8,-235.4"/>
<polygon fill="#63b8ff" stroke="#63b8ff" points="567.73,-232.48 557.34,-230.44 564.19,-238.52 567.73,-232.48"/>
</a>
</g>
</g>
<!-- Node15 -->
<g id="Node000015" class="node">
<title>Node15</title>
<g id="a_Node000015"><a xlink:title=" ">
<polygon fill="#e0e0e0" stroke="#999999" points="684.86,-222.88 602.11,-222.88 602.11,-202.12 684.86,-202.12 684.86,-222.88"/>
<text text-anchor="middle" x="643.48" y="-209.38" font-family="Helvetica,sans-Serif" font-size="10.00">mlir/CAPI/IR.h</text>
</a>
</g>
</g>
<!-- Node7&#45;&gt;Node15 -->
<g id="edge20_Node000007_Node000015" class="edge">
<title>Node7&#45;&gt;Node15</title>
<g id="a_edge20_Node000007_Node000015"><a xlink:title=" ">
<path fill="none" stroke="#63b8ff" d="M643.48,-271.33C643.48,-261.71 643.48,-246.63 643.48,-234.29"/>
<polygon fill="#63b8ff" stroke="#63b8ff" points="646.98,-234.67 643.48,-224.67 639.98,-234.67 646.98,-234.67"/>
</a>
</g>
</g>
<!-- Node16 -->
<g id="Node000016" class="node">
<title>Node16</title>
<g id="a_Node000016"><a xlink:title=" ">
<polygon fill="#e0e0e0" stroke="#999999" points="848.36,-222.88 702.61,-222.88 702.61,-202.12 848.36,-202.12 848.36,-222.88"/>
<text text-anchor="middle" x="775.48" y="-209.38" font-family="Helvetica,sans-Serif" font-size="10.00">mlir/IR/OperationSupport.h</text>
</a>
</g>
</g>
<!-- Node7&#45;&gt;Node16 -->
<g id="edge21_Node000007_Node000016" class="edge">
<title>Node7&#45;&gt;Node16</title>
<g id="a_edge21_Node000007_Node000016"><a xlink:title=" ">
<path fill="none" stroke="#63b8ff" d="M662.68,-271.18C684.57,-259.99 720.64,-241.55 746.08,-228.53"/>
<polygon fill="#63b8ff" stroke="#63b8ff" points="747.61,-231.69 754.92,-224.02 744.42,-225.45 747.61,-231.69"/>
</a>
</g>
</g>
<!-- Node17 -->
<g id="Node000017" class="node">
<title>Node17</title>
<g id="a_Node000017"><a xlink:title=" ">
<polygon fill="#e0e0e0" stroke="#999999" points="984.48,-222.88 866.48,-222.88 866.48,-202.12 984.48,-202.12 984.48,-222.88"/>
<text text-anchor="middle" x="925.48" y="-209.38" font-family="Helvetica,sans-Serif" font-size="10.00">mlir/IR/ValueRange.h</text>
</a>
</g>
</g>
<!-- Node7&#45;&gt;Node17 -->
<g id="edge22_Node000007_Node000017" class="edge">
<title>Node7&#45;&gt;Node17</title>
<g id="a_edge22_Node000007_Node000017"><a xlink:title=" ">
<path fill="none" stroke="#63b8ff" d="M684.49,-271.18C734.4,-259.24 818.76,-239.04 873.27,-226"/>
<polygon fill="#63b8ff" stroke="#63b8ff" points="874.05,-229.41 882.96,-223.68 872.42,-222.6 874.05,-229.41"/>
</a>
</g>
</g>
<!-- Node8&#45;&gt;Node3 -->
<g id="edge11_Node000008_Node000003" class="edge">
<title>Node8&#45;&gt;Node3</title>
<g id="a_edge11_Node000008_Node000003"><a xlink:title=" ">
<path fill="none" stroke="#63b8ff" d="M284.29,-201.7C276.37,-184.27 257.64,-147.7 231.48,-126.25 208.07,-107.05 176.54,-94.06 151,-85.9"/>
<polygon fill="#63b8ff" stroke="#63b8ff" points="152.14,-82.59 141.55,-83.03 150.1,-89.28 152.14,-82.59"/>
</a>
</g>
</g>
<!-- Node8&#45;&gt;Node5 -->
<g id="edge10_Node000008_Node000005" class="edge">
<title>Node8&#45;&gt;Node5</title>
<g id="a_edge10_Node000008_Node000005"><a xlink:title=" ">
<path fill="none" stroke="#63b8ff" d="M272.72,-201.83C254.85,-190.86 225.46,-172.82 204.24,-159.81"/>
<polygon fill="#63b8ff" stroke="#63b8ff" points="206.22,-156.91 195.86,-154.66 202.55,-162.88 206.22,-156.91"/>
</a>
</g>
</g>
<!-- Node8&#45;&gt;Node6 -->
<g id="edge12_Node000008_Node000006" class="edge">
<title>Node8&#45;&gt;Node6</title>
<g id="a_edge12_Node000008_Node000006"><a xlink:title=" ">
<path fill="none" stroke="#63b8ff" d="M285.94,-201.73C281.75,-185.82 273.01,-153.39 264.48,-126.25 261.23,-115.91 257.31,-104.53 253.96,-95.08"/>
<polygon fill="#63b8ff" stroke="#63b8ff" points="257.3,-94.01 250.62,-85.79 250.71,-96.38 257.3,-94.01"/>
</a>
</g>
</g>
<!-- Node9 -->
<g id="Node000009" class="node">
<title>Node9</title>
<g id="a_Node000009"><a xlink:title=" ">
<polygon fill="#e0e0e0" stroke="#999999" points="368.86,-153.38 316.11,-153.38 316.11,-132.62 368.86,-132.62 368.86,-153.38"/>
<text text-anchor="middle" x="342.48" y="-139.88" font-family="Helvetica,sans-Serif" font-size="10.00">stdint.h</text>
</a>
</g>
</g>
<!-- Node8&#45;&gt;Node9 -->
<g id="edge13_Node000008_Node000009" class="edge">
<title>Node8&#45;&gt;Node9</title>
<g id="a_edge13_Node000008_Node000009"><a xlink:title=" ">
<path fill="none" stroke="#63b8ff" d="M296.22,-201.83C304.4,-191.6 317.5,-175.23 327.68,-162.5"/>
<polygon fill="#63b8ff" stroke="#63b8ff" points="330.3,-164.83 333.81,-154.84 324.83,-160.46 330.3,-164.83"/>
</a>
</g>
</g>
<!-- Node11 -->
<g id="Node000011" class="node">
<title>Node11</title>
<g id="a_Node000011"><a xlink:href="StreamHelper_8h.html" target="_top" xlink:title=" ">
<polygon fill="white" stroke="#666666" points="519.61,-153.38 387.36,-153.38 387.36,-132.62 519.61,-132.62 519.61,-153.38"/>
<text text-anchor="middle" x="453.48" y="-139.88" font-family="Helvetica,sans-Serif" font-size="10.00">llzk/Util/StreamHelper.h</text>
</a>
</g>
</g>
<!-- Node10&#45;&gt;Node11 -->
<g id="edge15_Node000010_Node000011" class="edge">
<title>Node10&#45;&gt;Node11</title>
<g id="a_edge15_Node000010_Node000011"><a xlink:title=" ">
<path fill="none" stroke="#63b8ff" d="M510.71,-195.5C499.25,-185.19 484.35,-171.78 472.63,-161.23"/>
<polygon fill="#63b8ff" stroke="#63b8ff" points="475.3,-158.92 465.52,-154.83 470.61,-164.13 475.3,-158.92"/>
</a>
</g>
</g>
<!-- Node13 -->
<g id="Node000013" class="node">
<title>Node13</title>
<g id="a_Node000013"><a xlink:title=" ">
<polygon fill="#e0e0e0" stroke="#999999" points="710.86,-153.38 538.11,-153.38 538.11,-132.62 710.86,-132.62 710.86,-153.38"/>
<text text-anchor="middle" x="624.48" y="-139.88" font-family="Helvetica,sans-Serif" font-size="10.00">mlir/IR/DialectImplementation.h</text>
</a>
</g>
</g>
<!-- Node10&#45;&gt;Node13 -->
<g id="edge17_Node000010_Node000013" class="edge">
<title>Node10&#45;&gt;Node13</title>
<g id="a_edge17_Node000010_Node000013"><a xlink:title=" ">
<path fill="none" stroke="#63b8ff" d="M551.23,-195.5C566.33,-184.89 586.09,-170.99 601.29,-160.31"/>
<polygon fill="#63b8ff" stroke="#63b8ff" points="603.11,-163.31 609.28,-154.69 599.08,-157.58 603.11,-163.31"/>
</a>
</g>
</g>
<!-- Node14 -->
<g id="Node000014" class="node">
<title>Node14</title>
<g id="a_Node000014"><a xlink:title=" ">
<polygon fill="#e0e0e0" stroke="#999999" points="752.73,-20.75 654.23,-20.75 654.23,0 752.73,0 752.73,-20.75"/>
<text text-anchor="middle" x="703.48" y="-7.25" font-family="Helvetica,sans-Serif" font-size="10.00">llvm/ADT/APInt.h</text>
</a>
</g>
</g>
<!-- Node10&#45;&gt;Node14 -->
<g id="edge18_Node000010_Node000014" class="edge">
<title>Node10&#45;&gt;Node14</title>
<g id="a_edge18_Node000010_Node000014"><a xlink:title=" ">
<path fill="none" stroke="#63b8ff" d="M584.18,-197.27C639.8,-182.94 717.35,-162.54 719.48,-159.75 748.38,-121.98 727.61,-62.1 713.55,-31.22"/>
<polygon fill="#63b8ff" stroke="#63b8ff" points="716.74,-29.79 709.25,-22.28 710.43,-32.81 716.74,-29.79"/>
</a>
</g>
</g>
<!-- Node12 -->
<g id="Node000012" class="node">
<title>Node12</title>
<g id="a_Node000012"><a xlink:title=" ">
<polygon fill="#e0e0e0" stroke="#999999" points="530.48,-83.88 376.48,-83.88 376.48,-63.12 530.48,-63.12 530.48,-83.88"/>
<text text-anchor="middle" x="453.48" y="-70.38" font-family="Helvetica,sans-Serif" font-size="10.00">llvm/Support/raw_ostream.h</text>
</a>
</g>
</g>
<!-- Node11&#45;&gt;Node12 -->
<g id="edge16_Node000011_Node000012" class="edge">
<title>Node11&#45;&gt;Node12</title>
<g id="a_edge16_Node000011_Node000012"><a xlink:title=" ">
<path fill="none" stroke="#63b8ff" d="M453.48,-132.33C453.48,-122.71 453.48,-107.63 453.48,-95.29"/>
<polygon fill="#63b8ff" stroke="#63b8ff" points="456.98,-95.67 453.48,-85.67 449.98,-95.67 456.98,-95.67"/>
</a>
</g>
</g>
<!-- Node19 -->
<g id="Node000019" class="node">
<title>Node19</title>
<g id="a_Node000019"><a xlink:title=" ">
<polygon fill="#e0e0e0" stroke="#999999" points="876.73,-83.88 766.23,-83.88 766.23,-63.12 876.73,-63.12 876.73,-83.88"/>
<text text-anchor="middle" x="821.48" y="-70.38" font-family="Helvetica,sans-Serif" font-size="10.00">mlir/IR/BuiltinOps.h</text>
</a>
</g>
</g>
<!-- Node18&#45;&gt;Node19 -->
<g id="edge24_Node000018_Node000019" class="edge">
<title>Node18&#45;&gt;Node19</title>
<g id="a_edge24_Node000018_Node000019"><a xlink:title=" ">
<path fill="none" stroke="#63b8ff" d="M1192.95,-195.38C1108.94,-168.04 940.09,-113.1 862.36,-87.8"/>
<polygon fill="#63b8ff" stroke="#63b8ff" points="863.6,-84.53 853.01,-84.76 861.44,-91.18 863.6,-84.53"/>
</a>
</g>
</g>
<!-- Node20 -->
<g id="Node000020" class="node">
<title>Node20</title>
<g id="a_Node000020"><a xlink:href="RAM_2IR_2Dialect_8h_8inc.html" target="_top" xlink:title=" ">
<polygon fill="white" stroke="#666666" points="1230.98,-159.75 1121.98,-159.75 1121.98,-126.25 1230.98,-126.25 1230.98,-159.75"/>
<text text-anchor="start" x="1129.98" y="-146.25" font-family="Helvetica,sans-Serif" font-size="10.00">llzk/Dialect/RAM/IR</text>
<text text-anchor="middle" x="1176.48" y="-133.5" font-family="Helvetica,sans-Serif" font-size="10.00">/Dialect.h.inc</text>
</a>
</g>
</g>
<!-- Node18&#45;&gt;Node20 -->
<g id="edge25_Node000018_Node000020" class="edge">
<title>Node18&#45;&gt;Node20</title>
<g id="a_edge25_Node000018_Node000020"><a xlink:title=" ">
<path fill="none" stroke="#63b8ff" d="M1226.84,-195.5C1218.79,-187.27 1208.8,-177.05 1199.85,-167.9"/>
<polygon fill="#63b8ff" stroke="#63b8ff" points="1202.56,-165.67 1193.07,-160.96 1197.56,-170.56 1202.56,-165.67"/>
</a>
</g>
</g>
<!-- Node21&#45;&gt;Node18 -->
<g id="edge57_Node000021_Node000018" class="edge">
<title>Node21&#45;&gt;Node18</title>
<g id="a_edge57_Node000021_Node000018"><a xlink:title=" ">
<path fill="none" stroke="#63b8ff" d="M1386.21,-264.83C1359.89,-255.43 1326.5,-243.51 1298.53,-233.52"/>
<polygon fill="#63b8ff" stroke="#63b8ff" points="1299.73,-230.23 1289.14,-230.16 1297.38,-236.82 1299.73,-230.23"/>
</a>
</g>
</g>
<!-- Node22 -->
<g id="Node000022" class="node">
<title>Node22</title>
<g id="a_Node000022"><a xlink:href="Felt_2IR_2Types_8h.html" target="_top" xlink:title=" ">
<polygon fill="white" stroke="#666666" points="1569.73,-229.25 1465.23,-229.25 1465.23,-195.75 1569.73,-195.75 1569.73,-229.25"/>
<text text-anchor="start" x="1473.23" y="-215.75" font-family="Helvetica,sans-Serif" font-size="10.00">llzk/Dialect/Felt/IR</text>
<text text-anchor="middle" x="1517.48" y="-203" font-family="Helvetica,sans-Serif" font-size="10.00">/Types.h</text>
</a>
</g>
</g>
<!-- Node21&#45;&gt;Node22 -->
<g id="edge27_Node000021_Node000022" class="edge">
<title>Node21&#45;&gt;Node22</title>
<g id="a_edge27_Node000021_Node000022"><a xlink:title=" ">
<path fill="none" stroke="#63b8ff" d="M1451.86,-265C1462.71,-256.49 1476.24,-245.87 1488.19,-236.49"/>
<polygon fill="#63b8ff" stroke="#63b8ff" points="1490.05,-239.48 1495.76,-230.55 1485.73,-233.97 1490.05,-239.48"/>
</a>
</g>
</g>
<!-- Node48 -->
<g id="Node000048" class="node">
<title>Node48</title>
<g id="a_Node000048"><a xlink:href="OpTraits_8h.html" target="_top" xlink:title=" ">
<polygon fill="white" stroke="#666666" points="2176.98,-229.25 2061.98,-229.25 2061.98,-195.75 2176.98,-195.75 2176.98,-229.25"/>
<text text-anchor="start" x="2069.98" y="-215.75" font-family="Helvetica,sans-Serif" font-size="10.00">llzk/Dialect/Function</text>
<text text-anchor="middle" x="2119.48" y="-203" font-family="Helvetica,sans-Serif" font-size="10.00">/IR/OpTraits.h</text>
</a>
</g>
</g>
<!-- Node21&#45;&gt;Node48 -->
<g id="edge53_Node000021_Node000048" class="edge">
<title>Node21&#45;&gt;Node48</title>
<g id="a_edge53_Node000021_Node000048"><a xlink:title=" ">
<path fill="none" stroke="#63b8ff" d="M1486.18,-266.94C1489.32,-266.32 1492.43,-265.75 1495.48,-265.25 1695.4,-232.57 1934.91,-220.05 2050.44,-215.65"/>
<polygon fill="#63b8ff" stroke="#63b8ff" points="2050.52,-219.15 2060.39,-215.28 2050.26,-212.16 2050.52,-219.15"/>
</a>
</g>
</g>
<!-- Node51 -->
<g id="Node000051" class="node">
<title>Node51</title>
<g id="a_Node000051"><a xlink:href="RAM_2IR_2Ops_8h_8inc.html" target="_top" xlink:title=" ">
<polygon fill="white" stroke="#666666" points="2303.98,-229.25 2194.98,-229.25 2194.98,-195.75 2303.98,-195.75 2303.98,-229.25"/>
<text text-anchor="start" x="2202.98" y="-215.75" font-family="Helvetica,sans-Serif" font-size="10.00">llzk/Dialect/RAM/IR</text>
<text text-anchor="middle" x="2249.48" y="-203" font-family="Helvetica,sans-Serif" font-size="10.00">/Ops.h.inc</text>
</a>
</g>
</g>
<!-- Node21&#45;&gt;Node51 -->
<g id="edge58_Node000021_Node000051" class="edge">
<title>Node21&#45;&gt;Node51</title>
<g id="a_edge58_Node000021_Node000051"><a xlink:title=" ">
<path fill="none" stroke="#63b8ff" d="M1486.16,-266.82C1489.3,-266.23 1492.43,-265.7 1495.48,-265.25 1795.99,-220.85 1880.29,-273.44 2183.3,-229.55"/>
<polygon fill="#63b8ff" stroke="#63b8ff" points="2183.75,-233.02 2193.14,-228.1 2182.73,-226.09 2183.75,-233.02"/>
</a>
</g>
</g>
<!-- Node23 -->
<g id="Node000023" class="node">
<title>Node23</title>
<g id="a_Node000023"><a xlink:href="Felt_2IR_2Dialect_8h.html" target="_top" xlink:title=" ">
<polygon fill="white" stroke="#666666" points="1353.73,-159.75 1249.23,-159.75 1249.23,-126.25 1353.73,-126.25 1353.73,-159.75"/>
<text text-anchor="start" x="1257.23" y="-146.25" font-family="Helvetica,sans-Serif" font-size="10.00">llzk/Dialect/Felt/IR</text>
<text text-anchor="middle" x="1301.48" y="-133.5" font-family="Helvetica,sans-Serif" font-size="10.00">/Dialect.h</text>
</a>
</g>
</g>
<!-- Node22&#45;&gt;Node23 -->
<g id="edge28_Node000022_Node000023" class="edge">
<title>Node22&#45;&gt;Node23</title>
<g id="a_edge28_Node000022_Node000023"><a xlink:title=" ">
<path fill="none" stroke="#63b8ff" d="M1465.75,-195.33C1435.13,-185.77 1396.15,-173.58 1363.85,-163.49"/>
<polygon fill="#63b8ff" stroke="#63b8ff" points="1365.21,-160.25 1354.62,-160.6 1363.12,-166.93 1365.21,-160.25"/>
</a>
</g>
</g>
<!-- Node25 -->
<g id="Node000025" class="node">
<title>Node25</title>
<g id="a_Node000025"><a xlink:href="Field_8h.html" target="_top" xlink:title=" ">
<polygon fill="white" stroke="#666666" points="1636.86,-153.38 1548.11,-153.38 1548.11,-132.62 1636.86,-132.62 1636.86,-153.38"/>
<text text-anchor="middle" x="1592.48" y="-139.88" font-family="Helvetica,sans-Serif" font-size="10.00">llzk/Util/Field.h</text>
</a>
</g>
</g>
<!-- Node22&#45;&gt;Node25 -->
<g id="edge31_Node000022_Node000025" class="edge">
<title>Node22&#45;&gt;Node25</title>
<g id="a_edge31_Node000022_Node000025"><a xlink:title=" ">
<path fill="none" stroke="#63b8ff" d="M1535.26,-195.5C1546.72,-185.19 1561.61,-171.78 1573.33,-161.23"/>
<polygon fill="#63b8ff" stroke="#63b8ff" points="1575.35,-164.13 1580.44,-154.83 1570.67,-158.92 1575.35,-164.13"/>
</a>
</g>
</g>
<!-- Node47 -->
<g id="Node000047" class="node">
<title>Node47</title>
<g id="a_Node000047"><a xlink:href="Felt_2IR_2Types_8h_8inc.html" target="_top" xlink:title=" ">
<polygon fill="white" stroke="#666666" points="1759.73,-159.75 1655.23,-159.75 1655.23,-126.25 1759.73,-126.25 1759.73,-159.75"/>
<text text-anchor="start" x="1663.23" y="-146.25" font-family="Helvetica,sans-Serif" font-size="10.00">llzk/Dialect/Felt/IR</text>
<text text-anchor="middle" x="1707.48" y="-133.5" font-family="Helvetica,sans-Serif" font-size="10.00">/Types.h.inc</text>
</a>
</g>
</g>
<!-- Node22&#45;&gt;Node47 -->
<g id="edge52_Node000022_Node000047" class="edge">
<title>Node22&#45;&gt;Node47</title>
<g id="a_edge52_Node000022_Node000047"><a xlink:title=" ">
<path fill="none" stroke="#63b8ff" d="M1562.99,-195.33C1589.57,-185.89 1623.31,-173.9 1651.51,-163.89"/>
<polygon fill="#63b8ff" stroke="#63b8ff" points="1652.34,-167.31 1660.59,-160.66 1649.99,-160.71 1652.34,-167.31"/>
</a>
</g>
</g>
<!-- Node23&#45;&gt;Node19 -->
<g id="edge29_Node000023_Node000019" class="edge">
<title>Node23&#45;&gt;Node19</title>
<g id="a_edge29_Node000023_Node000019"><a xlink:title=" ">
<path fill="none" stroke="#63b8ff" d="M1249.02,-127.92C1246.14,-127.31 1243.28,-126.75 1240.48,-126.25 1084.81,-98.4 1042.36,-116.93 886.48,-90.25 880.9,-89.29 875.09,-88.13 869.34,-86.88"/>
<polygon fill="#63b8ff" stroke="#63b8ff" points="870.43,-83.54 859.9,-84.71 868.86,-90.36 870.43,-83.54"/>
</a>
</g>
</g>
<!-- Node24 -->
<g id="Node000024" class="node">
<title>Node24</title>
<g id="a_Node000024"><a xlink:href="Felt_2IR_2Dialect_8h_8inc.html" target="_top" xlink:title=" ">
<polygon fill="white" stroke="#666666" points="999.73,-90.25 895.23,-90.25 895.23,-56.75 999.73,-56.75 999.73,-90.25"/>
<text text-anchor="start" x="903.23" y="-76.75" font-family="Helvetica,sans-Serif" font-size="10.00">llzk/Dialect/Felt/IR</text>
<text text-anchor="middle" x="947.48" y="-64" font-family="Helvetica,sans-Serif" font-size="10.00">/Dialect.h.inc</text>
</a>
</g>
</g>
<!-- Node23&#45;&gt;Node24 -->
<g id="edge30_Node000023_Node000024" class="edge">
<title>Node23&#45;&gt;Node24</title>
<g id="a_edge30_Node000023_Node000024"><a xlink:title=" ">
<path fill="none" stroke="#63b8ff" d="M1248.99,-128.09C1246.12,-127.44 1243.27,-126.82 1240.48,-126.25 1141.78,-105.9 1112.65,-110.93 1011.04,-90.66"/>
<polygon fill="#63b8ff" stroke="#63b8ff" points="1011.96,-87.27 1001.46,-88.71 1010.56,-94.13 1011.96,-87.27"/>
</a>
</g>
</g>
<!-- Node25&#45;&gt;Node19 -->
<g id="edge42_Node000025_Node000019" class="edge">
<title>Node25&#45;&gt;Node19</title>
<g id="a_edge42_Node000025_Node000019"><a xlink:title=" ">
<path fill="none" stroke="#63b8ff" d="M1547.78,-138.93C1397.67,-128.58 919.21,-95.38 886.48,-90.25 880.53,-89.32 874.32,-88.12 868.21,-86.79"/>
<polygon fill="#63b8ff" stroke="#63b8ff" points="869.38,-83.47 858.85,-84.65 867.81,-90.29 869.38,-83.47"/>
</a>
</g>
</g>
<!-- Node26 -->
<g id="Node000026" class="node">
<title>Node26</title>
<g id="a_Node000026"><a xlink:href="DynamicAPIntHelper_8h.html" target="_top" xlink:title="This file implements helper methods for constructing DynamicAPInts.">
<polygon fill="white" stroke="#666666" points="1183.48,-83.88 1017.48,-83.88 1017.48,-63.12 1183.48,-63.12 1183.48,-83.88"/>
<text text-anchor="middle" x="1100.48" y="-70.38" font-family="Helvetica,sans-Serif" font-size="10.00">llzk/Util/DynamicAPIntHelper.h</text>
</a>
</g>
</g>
<!-- Node25&#45;&gt;Node26 -->
<g id="edge32_Node000025_Node000026" class="edge">
<title>Node25&#45;&gt;Node26</title>
<g id="a_edge32_Node000025_Node000026"><a xlink:title=" ">
<path fill="none" stroke="#63b8ff" d="M1547.7,-136.59C1474.39,-127.62 1324.25,-108.84 1197.48,-90.25 1188.82,-88.98 1179.73,-87.59 1170.73,-86.17"/>
<polygon fill="#63b8ff" stroke="#63b8ff" points="1171.35,-82.72 1160.92,-84.61 1170.25,-89.63 1171.35,-82.72"/>
</a>
</g>
</g>
<!-- Node28 -->
<g id="Node000028" class="node">
<title>Node28</title>
<g id="a_Node000028"><a xlink:title=" ">
<polygon fill="#e0e0e0" stroke="#999999" points="1354.48,-20.75 1212.48,-20.75 1212.48,0 1354.48,0 1354.48,-20.75"/>
<text text-anchor="middle" x="1283.48" y="-7.25" font-family="Helvetica,sans-Serif" font-size="10.00">llvm/ADT/DynamicAPInt.h</text>
</a>
</g>
</g>
<!-- Node25&#45;&gt;Node28 -->
<g id="edge45_Node000025_Node000028" class="edge">
<title>Node25&#45;&gt;Node28</title>
<g id="a_edge45_Node000025_Node000028"><a xlink:title=" ">
<path fill="none" stroke="#63b8ff" d="M1547.63,-138.84C1455.33,-131.87 1251.02,-113.93 1230.48,-90.25 1220.73,-79 1224.26,-70.27 1230.48,-56.75 1235.89,-44.99 1246.02,-35.15 1255.99,-27.66"/>
<polygon fill="#63b8ff" stroke="#63b8ff" points="1257.83,-30.64 1264.08,-22.08 1253.86,-24.87 1257.83,-30.64"/>
</a>
</g>
</g>
<!-- Node31 -->
<g id="Node000031" class="node">
<title>Node31</title>
<g id="a_Node000031"><a xlink:href="ErrorHelper_8h.html" target="_top" xlink:title=" ">
<polygon fill="#fff0f0" stroke="red" points="1359.61,-83.88 1239.36,-83.88 1239.36,-63.12 1359.61,-63.12 1359.61,-83.88"/>
<text text-anchor="middle" x="1299.48" y="-70.38" font-family="Helvetica,sans-Serif" font-size="10.00">llzk/Util/ErrorHelper.h</text>
</a>
</g>
</g>
<!-- Node25&#45;&gt;Node31 -->
<g id="edge38_Node000025_Node000031" class="edge">
<title>Node25&#45;&gt;Node31</title>
<g id="a_edge38_Node000025_Node000031"><a xlink:title=" ">
<path fill="none" stroke="#63b8ff" d="M1549.88,-132.18C1497.8,-120.19 1409.63,-99.88 1353.02,-86.83"/>
<polygon fill="#63b8ff" stroke="#63b8ff" points="1354.14,-83.5 1343.61,-84.67 1352.57,-90.32 1354.14,-83.5"/>
</a>
</g>
</g>
<!-- Node38 -->
<g id="Node000038" class="node">
<title>Node38</title>
<g id="a_Node000038"><a xlink:title=" ">
<polygon fill="#e0e0e0" stroke="#999999" points="1517.36,-83.88 1377.61,-83.88 1377.61,-63.12 1517.36,-63.12 1517.36,-83.88"/>
<text text-anchor="middle" x="1447.48" y="-70.38" font-family="Helvetica,sans-Serif" font-size="10.00">mlir/IR/BuiltinAttributes.h</text>
</a>
</g>
</g>
<!-- Node25&#45;&gt;Node38 -->
<g id="edge41_Node000025_Node000038" class="edge">
<title>Node25&#45;&gt;Node38</title>
<g id="a_edge41_Node000025_Node000038"><a xlink:title=" ">
<path fill="none" stroke="#63b8ff" d="M1571.4,-132.18C1547.02,-120.84 1506.67,-102.05 1478.66,-89.01"/>
<polygon fill="#63b8ff" stroke="#63b8ff" points="1480.51,-86.01 1469.96,-84.97 1477.55,-92.36 1480.51,-86.01"/>
</a>
</g>
</g>
<!-- Node39 -->
<g id="Node000039" class="node">
<title>Node39</title>
<g id="a_Node000039"><a xlink:title=" ">
<polygon fill="#e0e0e0" stroke="#999999" points="1649.23,-83.88 1535.73,-83.88 1535.73,-63.12 1649.23,-63.12 1649.23,-83.88"/>
<text text-anchor="middle" x="1592.48" y="-70.38" font-family="Helvetica,sans-Serif" font-size="10.00">mlir/Support/LLVM.h</text>
</a>
</g>
</g>
<!-- Node25&#45;&gt;Node39 -->
<g id="edge43_Node000025_Node000039" class="edge">
<title>Node25&#45;&gt;Node39</title>
<g id="a_edge43_Node000025_Node000039"><a xlink:title=" ">
<path fill="none" stroke="#63b8ff" d="M1592.48,-132.33C1592.48,-122.71 1592.48,-107.63 1592.48,-95.29"/>
<polygon fill="#63b8ff" stroke="#63b8ff" points="1595.98,-95.67 1592.48,-85.67 1588.98,-95.67 1595.98,-95.67"/>
</a>
</g>
</g>
<!-- Node40 -->
<g id="Node000040" class="node">
<title>Node40</title>
<g id="a_Node000040"><a xlink:title=" ">
<polygon fill="#e0e0e0" stroke="#999999" points="1791.86,-83.88 1667.11,-83.88 1667.11,-63.12 1791.86,-63.12 1791.86,-83.88"/>
<text text-anchor="middle" x="1729.48" y="-70.38" font-family="Helvetica,sans-Serif" font-size="10.00">llvm/ADT/DenseMap.h</text>
</a>
</g>
</g>
<!-- Node25&#45;&gt;Node40 -->
<g id="edge44_Node000025_Node000040" class="edge">
<title>Node25&#45;&gt;Node40</title>
<g id="a_edge44_Node000025_Node000040"><a xlink:title=" ">
<path fill="none" stroke="#63b8ff" d="M1612.4,-132.18C1635.23,-120.94 1672.89,-102.38 1699.32,-89.36"/>
<polygon fill="#63b8ff" stroke="#63b8ff" points="1700.76,-92.56 1708.18,-85 1697.66,-86.28 1700.76,-92.56"/>
</a>
</g>
</g>
<!-- Node41 -->
<g id="Node000041" class="node">
<title>Node41</title>
<g id="a_Node000041"><a xlink:title=" ">
<polygon fill="#e0e0e0" stroke="#999999" points="1926.73,-83.88 1810.23,-83.88 1810.23,-63.12 1926.73,-63.12 1926.73,-83.88"/>
<text text-anchor="middle" x="1868.48" y="-70.38" font-family="Helvetica,sans-Serif" font-size="10.00">llvm/ADT/SmallSet.h</text>
</a>
</g>
</g>
<!-- Node25&#45;&gt;Node41 -->
<g id="edge46_Node000025_Node000041" class="edge">
<title>Node25&#45;&gt;Node41</title>
<g id="a_edge46_Node000025_Node000041"><a xlink:title=" ">
<path fill="none" stroke="#63b8ff" d="M1625.24,-132.13C1632.23,-130.12 1639.59,-128.06 1646.48,-126.25 1654.71,-124.09 1752.02,-101.49 1815.04,-86.88"/>
<polygon fill="#63b8ff" stroke="#63b8ff" points="1815.57,-90.35 1824.52,-84.68 1813.99,-83.53 1815.57,-90.35"/>
</a>
</g>
</g>
<!-- Node42 -->
<g id="Node000042" class="node">
<title>Node42</title>
<g id="a_Node000042"><a xlink:title=" ">
<polygon fill="#e0e0e0" stroke="#999999" points="2100.23,-83.88 1944.73,-83.88 1944.73,-63.12 2100.23,-63.12 2100.23,-83.88"/>
<text text-anchor="middle" x="2022.48" y="-70.38" font-family="Helvetica,sans-Serif" font-size="10.00">llvm/Support/LogicalResult.h</text>
</a>
</g>
</g>
<!-- Node25&#45;&gt;Node42 -->
<g id="edge47_Node000025_Node000042" class="edge">
<title>Node25&#45;&gt;Node42</title>
<g id="a_edge47_Node000025_Node000042"><a xlink:title=" ">
<path fill="none" stroke="#63b8ff" d="M1623.11,-132.15C1630.69,-129.96 1638.83,-127.83 1646.48,-126.25 1773.24,-100.05 1807.53,-109.79 1935.48,-90.25 1943.41,-89.04 1951.73,-87.67 1959.94,-86.25"/>
<polygon fill="#63b8ff" stroke="#63b8ff" points="1960.3,-89.74 1969.55,-84.56 1959.09,-82.85 1960.3,-89.74"/>
</a>
</g>
</g>
<!-- Node43 -->
<g id="Node000043" class="node">
<title>Node43</title>
<g id="a_Node000043"><a xlink:title=" ">
<polygon fill="#e0e0e0" stroke="#999999" points="2244.61,-83.88 2118.36,-83.88 2118.36,-63.12 2244.61,-63.12 2244.61,-83.88"/>
<text text-anchor="middle" x="2181.48" y="-70.38" font-family="Helvetica,sans-Serif" font-size="10.00">llvm/Support/SMTAPI.h</text>
</a>
</g>
</g>
<!-- Node25&#45;&gt;Node43 -->
<g id="edge48_Node000025_Node000043" class="edge">
<title>Node25&#45;&gt;Node43</title>
<g id="a_edge48_Node000025_Node000043"><a xlink:title=" ">
<path fill="none" stroke="#63b8ff" d="M1622.21,-132.14C1630.03,-129.87 1638.51,-127.71 1646.48,-126.25 1849.52,-89.16 1905.29,-120.37 2109.48,-90.25 2116.21,-89.26 2123.25,-88 2130.19,-86.62"/>
<polygon fill="#63b8ff" stroke="#63b8ff" points="2130.74,-90.08 2139.82,-84.62 2129.31,-83.23 2130.74,-90.08"/>
</a>
</g>
</g>
<!-- Node44 -->
<g id="Node000044" class="node">
<title>Node44</title>
<g id="a_Node000044"><a xlink:title=" ">
<polygon fill="#e0e0e0" stroke="#999999" points="2327.86,-83.88 2263.11,-83.88 2263.11,-63.12 2327.86,-63.12 2327.86,-83.88"/>
<text text-anchor="middle" x="2295.48" y="-70.38" font-family="Helvetica,sans-Serif" font-size="10.00">functional</text>
</a>
</g>
</g>
<!-- Node25&#45;&gt;Node44 -->
<g id="edge49_Node000025_Node000044" class="edge">
<title>Node25&#45;&gt;Node44</title>
<g id="a_edge49_Node000025_Node000044"><a xlink:title=" ">
<path fill="none" stroke="#63b8ff" d="M1621.63,-132.2C1629.6,-129.88 1638.3,-127.67 1646.48,-126.25 1912.77,-80.12 1989.11,-146.32 2253.48,-90.25 2256.45,-89.62 2259.49,-88.82 2262.51,-87.91"/>
<polygon fill="#63b8ff" stroke="#63b8ff" points="2263.41,-91.3 2271.75,-84.76 2261.16,-84.67 2263.41,-91.3"/>
</a>
</g>
</g>
<!-- Node45 -->
<g id="Node000045" class="node">
<title>Node45</title>
<g id="a_Node000045"><a xlink:title=" ">
<polygon fill="#e0e0e0" stroke="#999999" points="2401.36,-83.88 2345.61,-83.88 2345.61,-63.12 2401.36,-63.12 2401.36,-83.88"/>
<text text-anchor="middle" x="2373.48" y="-70.38" font-family="Helvetica,sans-Serif" font-size="10.00">optional</text>
</a>
</g>
</g>
<!-- Node25&#45;&gt;Node45 -->
<g id="edge50_Node000025_Node000045" class="edge">
<title>Node25&#45;&gt;Node45</title>
<g id="a_edge50_Node000025_Node000045"><a xlink:title=" ">
<path fill="none" stroke="#63b8ff" d="M1621.62,-132.16C1629.6,-129.84 1638.3,-127.64 1646.48,-126.25 1949.25,-74.91 2037.3,-159.45 2336.48,-90.25 2338.77,-89.72 2341.09,-89.06 2343.4,-88.31"/>
<polygon fill="#63b8ff" stroke="#63b8ff" points="2344.41,-91.67 2352.53,-84.86 2341.94,-85.12 2344.41,-91.67"/>
</a>
</g>
</g>
<!-- Node46 -->
<g id="Node000046" class="node">
<title>Node46</title>
<g id="a_Node000046"><a xlink:title=" ">
<polygon fill="#e0e0e0" stroke="#999999" points="2491.61,-83.88 2419.36,-83.88 2419.36,-63.12 2491.61,-63.12 2491.61,-83.88"/>
<text text-anchor="middle" x="2455.48" y="-70.38" font-family="Helvetica,sans-Serif" font-size="10.00">string_view</text>
</a>
</g>
</g>
<!-- Node25&#45;&gt;Node46 -->
<g id="edge51_Node000025_Node000046" class="edge">
<title>Node25&#45;&gt;Node46</title>
<g id="a_edge51_Node000025_Node000046"><a xlink:title=" ">
<path fill="none" stroke="#63b8ff" d="M1621.62,-132.14C1629.59,-129.81 1638.3,-127.62 1646.48,-126.25 1981.77,-70.27 2076.79,-155.08 2410.48,-90.25 2413.87,-89.59 2417.34,-88.73 2420.79,-87.75"/>
<polygon fill="#63b8ff" stroke="#63b8ff" points="2421.65,-91.15 2430.11,-84.78 2419.52,-84.48 2421.65,-91.15"/>
</a>
</g>
</g>
<!-- Node26&#45;&gt;Node14 -->
<g id="edge33_Node000026_Node000014" class="edge">
<title>Node26&#45;&gt;Node14</title>
<g id="a_edge33_Node000026_Node000014"><a xlink:title=" ">
<path fill="none" stroke="#63b8ff" d="M1044.57,-62.7C1032.67,-60.68 1020.17,-58.6 1008.48,-56.75 902.87,-39.98 873.58,-37.57 764.24,-21"/>
<polygon fill="#63b8ff" stroke="#63b8ff" points="764.96,-17.57 754.55,-19.52 763.91,-24.49 764.96,-17.57"/>
</a>
</g>
</g>
<!-- Node27 -->
<g id="Node000027" class="node">
<title>Node27</title>
<g id="a_Node000027"><a xlink:title=" ">
<polygon fill="#e0e0e0" stroke="#999999" points="875.73,-20.75 771.23,-20.75 771.23,0 875.73,0 875.73,-20.75"/>
<text text-anchor="middle" x="823.48" y="-7.25" font-family="Helvetica,sans-Serif" font-size="10.00">llvm/ADT/APSInt.h</text>
</a>
</g>
</g>
<!-- Node26&#45;&gt;Node27 -->
<g id="edge34_Node000026_Node000027" class="edge">
<title>Node26&#45;&gt;Node27</title>
<g id="a_edge34_Node000026_Node000027"><a xlink:title=" ">
<path fill="none" stroke="#63b8ff" d="M1055.98,-62.68C1007.82,-52.05 930.96,-35.09 878.91,-23.61"/>
<polygon fill="#63b8ff" stroke="#63b8ff" points="879.87,-20.23 869.35,-21.5 878.37,-27.07 879.87,-20.23"/>
</a>
</g>
</g>
<!-- Node26&#45;&gt;Node28 -->
<g id="edge35_Node000026_Node000028" class="edge">
<title>Node26&#45;&gt;Node28</title>
<g id="a_edge35_Node000026_Node000028"><a xlink:title=" ">
<path fill="none" stroke="#63b8ff" d="M1129.88,-62.68C1160.7,-52.39 1209.31,-36.15 1243.57,-24.71"/>
<polygon fill="#63b8ff" stroke="#63b8ff" points="1244.34,-28.14 1252.72,-21.65 1242.12,-21.5 1244.34,-28.14"/>
</a>
</g>
</g>
<!-- Node29 -->
<g id="Node000029" class="node">
<title>Node29</title>
<g id="a_Node000029"><a xlink:title=" ">
<polygon fill="#e0e0e0" stroke="#999999" points="1059.11,-20.75 893.86,-20.75 893.86,0 1059.11,0 1059.11,-20.75"/>
<text text-anchor="middle" x="976.48" y="-7.25" font-family="Helvetica,sans-Serif" font-size="10.00">llvm/ADT/SlowDynamicAPInt.h</text>
</a>
</g>
</g>
<!-- Node26&#45;&gt;Node29 -->
<g id="edge36_Node000026_Node000029" class="edge">
<title>Node26&#45;&gt;Node29</title>
<g id="a_edge36_Node000026_Node000029"><a xlink:title=" ">
<path fill="none" stroke="#63b8ff" d="M1080.56,-62.68C1060.58,-52.83 1029.57,-37.55 1006.59,-26.22"/>
<polygon fill="#63b8ff" stroke="#63b8ff" points="1008.23,-23.12 997.71,-21.84 1005.14,-29.4 1008.23,-23.12"/>
</a>
</g>
</g>
<!-- Node30 -->
<g id="Node000030" class="node">
<title>Node30</title>
<g id="a_Node000030"><a xlink:title=" ">
<polygon fill="#e0e0e0" stroke="#999999" points="1194.11,-20.75 1076.86,-20.75 1076.86,0 1194.11,0 1194.11,-20.75"/>
<text text-anchor="middle" x="1135.48" y="-7.25" font-family="Helvetica,sans-Serif" font-size="10.00">llvm/ADT/StringRef.h</text>
</a>
</g>
</g>
<!-- Node26&#45;&gt;Node30 -->
<g id="edge37_Node000026_Node000030" class="edge">
<title>Node26&#45;&gt;Node30</title>
<g id="a_edge37_Node000026_Node000030"><a xlink:title=" ">
<path fill="none" stroke="#63b8ff" d="M1106.11,-62.68C1111.03,-54.07 1118.34,-41.31 1124.43,-30.67"/>
<polygon fill="#63b8ff" stroke="#63b8ff" points="1127.3,-32.7 1129.24,-22.28 1121.23,-29.22 1127.3,-32.7"/>
</a>
</g>
</g>
<!-- Node32 -->
<g id="Node000032" class="node">
<title>Node32</title>
<g id="a_Node000032"><a xlink:title=" ">
<polygon fill="#e0e0e0" stroke="#999999" points="1490.11,-20.75 1372.86,-20.75 1372.86,0 1490.11,0 1490.11,-20.75"/>
<text text-anchor="middle" x="1431.48" y="-7.25" font-family="Helvetica,sans-Serif" font-size="10.00">mlir/IR/Diagnostics.h</text>
</a>
</g>
</g>
<!-- Node31&#45;&gt;Node32 -->
<g id="edge39_Node000031_Node000032" class="edge">
<title>Node31&#45;&gt;Node32</title>
<g id="a_edge39_Node000031_Node000032"><a xlink:title=" ">
<path fill="none" stroke="#63b8ff" d="M1320.69,-62.68C1342.15,-52.74 1375.56,-37.27 1400.09,-25.91"/>
<polygon fill="#63b8ff" stroke="#63b8ff" points="1401.35,-29.19 1408.95,-21.81 1398.41,-22.83 1401.35,-29.19"/>
</a>
</g>
</g>
<!-- Node33 -->
<g id="Node000033" class="node">
<title>Node33</title>
<g id="a_Node000033"><a xlink:title=" ">
<polygon fill="#e0e0e0" stroke="#999999" points="2112.61,-20.75 2004.36,-20.75 2004.36,0 2112.61,0 2112.61,-20.75"/>
<text text-anchor="middle" x="2058.48" y="-7.25" font-family="Helvetica,sans-Serif" font-size="10.00">mlir/IR/Operation.h</text>
</a>
</g>
</g>
<!-- Node31&#45;&gt;Node33 -->
<g id="edge40_Node000031_Node000033" class="edge">
<title>Node31&#45;&gt;Node33</title>
<g id="a_edge40_Node000031_Node000033"><a xlink:title=" ">
<path fill="none" stroke="#63b8ff" d="M1337.6,-62.66C1347.59,-60.4 1358.39,-58.22 1368.48,-56.75 1596.05,-23.51 1869.42,-14.61 1992.61,-12.23"/>
<polygon fill="#63b8ff" stroke="#63b8ff" points="1992.61,-15.73 2002.54,-12.05 1992.48,-8.74 1992.61,-15.73"/>
</a>
</g>
</g>
<!-- Node48&#45;&gt;Node33 -->
<g id="edge55_Node000048_Node000033" class="edge">
<title>Node48&#45;&gt;Node33</title>
<g id="a_edge55_Node000048_Node000033"><a xlink:title=" ">
<path fill="none" stroke="#63b8ff" d="M2177.31,-197.09C2278.99,-171.19 2480.94,-116.97 2500.48,-90.25 2509.27,-78.23 2510.46,-67.8 2500.48,-56.75 2475.75,-29.35 2240.98,-17.56 2124.03,-13.35"/>
<polygon fill="#63b8ff" stroke="#63b8ff" points="2124.38,-9.86 2114.26,-13.01 2124.14,-16.86 2124.38,-9.86"/>
</a>
</g>
</g>
<!-- Node49 -->
<g id="Node000049" class="node">
<title>Node49</title>
<g id="a_Node000049"><a xlink:title=" ">
<polygon fill="#e0e0e0" stroke="#999999" points="2668.98,-153.38 2547.98,-153.38 2547.98,-132.62 2668.98,-132.62 2668.98,-153.38"/>
<text text-anchor="middle" x="2608.48" y="-139.88" font-family="Helvetica,sans-Serif" font-size="10.00">mlir/IR/OpDefinition.h</text>
</a>
</g>
</g>
<!-- Node48&#45;&gt;Node49 -->
<g id="edge54_Node000048_Node000049" class="edge">
<title>Node48&#45;&gt;Node49</title>
<g id="a_edge54_Node000048_Node000049"><a xlink:title=" ">
<path fill="none" stroke="#63b8ff" d="M2177.13,-197.46C2180.29,-196.84 2183.42,-196.27 2186.48,-195.75 2339.37,-169.96 2380.3,-183.71 2533.48,-159.75 2540.22,-158.7 2547.26,-157.43 2554.22,-156.09"/>
<polygon fill="#63b8ff" stroke="#63b8ff" points="2554.79,-159.54 2563.91,-154.14 2553.42,-152.68 2554.79,-159.54"/>
</a>
</g>
</g>
<!-- Node50 -->
<g id="Node000050" class="node">
<title>Node50</title>
<g id="a_Node000050"><a xlink:title=" ">
<polygon fill="#e0e0e0" stroke="#999999" points="2840.11,-153.38 2686.86,-153.38 2686.86,-132.62 2840.11,-132.62 2840.11,-153.38"/>
<text text-anchor="middle" x="2763.48" y="-139.88" font-family="Helvetica,sans-Serif" font-size="10.00">mlir/Support/LogicalResult.h</text>
</a>
</g>
</g>
<!-- Node48&#45;&gt;Node50 -->
<g id="edge56_Node000048_Node000050" class="edge">
<title>Node48&#45;&gt;Node50</title>
<g id="a_edge56_Node000048_Node000050"><a xlink:title=" ">
<path fill="none" stroke="#63b8ff" d="M2177.48,-197.28C2180.51,-196.72 2183.53,-196.2 2186.48,-195.75 2403.21,-162.56 2461.03,-187.77 2678.48,-159.75 2686.87,-158.67 2695.67,-157.3 2704.32,-155.83"/>
<polygon fill="#63b8ff" stroke="#63b8ff" points="2704.8,-159.3 2714.04,-154.1 2703.58,-152.4 2704.8,-159.3"/>
</a>
</g>
</g>
<!-- Node54 -->
<g id="Node000054" class="node">
<title>Node54</title>
<g id="a_Node000054"><a xlink:title=" ">
<polygon fill="#e0e0e0" stroke="#999999" points="2365.36,-222.88 2321.61,-222.88 2321.61,-202.12 2365.36,-202.12 2365.36,-222.88"/>
<text text-anchor="middle" x="2343.48" y="-209.38" font-family="Helvetica,sans-Serif" font-size="10.00">limits</text>
</a>
</g>
</g>
<!-- Node53&#45;&gt;Node54 -->
<g id="edge61_Node000053_Node000054" class="edge">
<title>Node53&#45;&gt;Node54</title>
<g id="a_edge61_Node000053_Node000054"><a xlink:title=" ">
<path fill="none" stroke="#63b8ff" d="M1811.41,-278.61C1932.78,-272.91 2220.37,-256.84 2313.48,-229.25 2314.67,-228.9 2315.86,-228.5 2317.05,-228.06"/>
<polygon fill="#63b8ff" stroke="#63b8ff" points="2318.41,-231.29 2326.09,-224 2315.53,-224.91 2318.41,-231.29"/>
</a>
</g>
</g>
</g>
</svg>
