<?xml version="1.0" encoding="UTF-8" standalone="no"?>
<!DOCTYPE svg PUBLIC "-//W3C//DTD SVG 1.1//EN"
 "http://www.w3.org/Graphics/SVG/1.1/DTD/svg11.dtd">
<!-- Generated by graphviz version 12.2.1 (0)
 -->
<!-- Title: include/llzk/Dialect/RAM/IR/Dialect.h Pages: 1 -->
<svg width="939pt" height="181pt"
 viewBox="0.00 0.00 939.00 180.50" xmlns="http://www.w3.org/2000/svg" xmlns:xlink="http://www.w3.org/1999/xlink">
<g id="graph0" class="graph" transform="scale(1 1) rotate(0) translate(4 176.5)">
<title>include/llzk/Dialect/RAM/IR/Dialect.h</title>
<!-- Node1 -->
<g id="Node000001" class="node">
<title>Node1</title>
<g id="a_Node000001"><a xlink:title=" ">
<polygon fill="#999999" stroke="#666666" points="447.88,-172.5 338.88,-172.5 338.88,-139 447.88,-139 447.88,-172.5"/>
<text text-anchor="start" x="346.88" y="-159" font-family="Helvetica,sans-Serif" font-size="10.00">include/llzk/Dialect</text>
<text text-anchor="middle" x="393.38" y="-146.25" font-family="Helvetica,sans-Serif" font-size="10.00">/RAM/IR/Dialect.h</text>
</a>
</g>
</g>
<!-- Node2 -->
<g id="Node000002" class="node">
<title>Node2</title>
<g id="a_Node000002"><a xlink:href="RAM_2IR_2Ops_8h.html" target="_top" xlink:title=" ">
<polygon fill="white" stroke="#666666" points="260.88,-103 151.88,-103 151.88,-69.5 260.88,-69.5 260.88,-103"/>
<text text-anchor="start" x="159.88" y="-89.5" font-family="Helvetica,sans-Serif" font-size="10.00">include/llzk/Dialect</text>
<text text-anchor="middle" x="206.38" y="-76.75" font-family="Helvetica,sans-Serif" font-size="10.00">/RAM/IR/Ops.h</text>
</a>
</g>
</g>
<!-- Node1&#45;&gt;Node2 -->
<g id="edge1_Node000001_Node000002" class="edge">
<title>Node1&#45;&gt;Node2</title>
<g id="a_edge1_Node000001_Node000002"><a xlink:title=" ">
<path fill="none" stroke="#63b8ff" d="M337.87,-134.72C310.19,-124.72 277.16,-112.8 251.12,-103.4"/>
<polygon fill="#63b8ff" stroke="#63b8ff" points="336.57,-137.97 347.16,-138.07 338.94,-131.38 336.57,-137.97"/>
</a>
</g>
</g>
<!-- Node3 -->
<g id="Node000003" class="node">
<title>Node3</title>
<g id="a_Node000003"><a xlink:href="RAM_8cpp.html" target="_top" xlink:title=" ">
<polygon fill="white" stroke="#666666" points="136.75,-27.12 0,-27.12 0,-6.38 136.75,-6.38 136.75,-27.12"/>
<text text-anchor="middle" x="68.38" y="-13.62" font-family="Helvetica,sans-Serif" font-size="10.00">lib/CAPI/Dialect/RAM.cpp</text>
</a>
</g>
</g>
<!-- Node1&#45;&gt;Node3 -->
<g id="edge5_Node000001_Node000003" class="edge">
<title>Node1&#45;&gt;Node3</title>
<g id="a_edge5_Node000001_Node000003"><a xlink:title=" ">
<path fill="none" stroke="#63b8ff" d="M327.1,-152.45C274.21,-148.03 199.87,-135.85 143.38,-103 110.66,-83.97 84.83,-45.53 73.96,-27.5"/>
<polygon fill="#63b8ff" stroke="#63b8ff" points="326.64,-155.92 336.87,-153.18 327.17,-148.94 326.64,-155.92"/>
</a>
</g>
</g>
<!-- Node4 -->
<g id="Node000004" class="node">
<title>Node4</title>
<g id="a_Node000004"><a xlink:href="RAM_2IR_2Dialect_8cpp.html" target="_top" xlink:title=" ">
<polygon fill="white" stroke="#666666" points="380.25,-33.5 276.5,-33.5 276.5,0 380.25,0 380.25,-33.5"/>
<text text-anchor="start" x="284.5" y="-20" font-family="Helvetica,sans-Serif" font-size="10.00">lib/Dialect/RAM/IR</text>
<text text-anchor="middle" x="328.38" y="-7.25" font-family="Helvetica,sans-Serif" font-size="10.00">/Dialect.cpp</text>
</a>
</g>
</g>
<!-- Node1&#45;&gt;Node4 -->
<g id="edge9_Node000001_Node000004" class="edge">
<title>Node1&#45;&gt;Node4</title>
<g id="a_edge9_Node000001_Node000004"><a xlink:title=" ">
<path fill="none" stroke="#63b8ff" d="M339.29,-133.09C326.98,-125.49 315.45,-115.6 308.38,-103 296.01,-81 308.09,-51.69 318.11,-33.79"/>
<polygon fill="#63b8ff" stroke="#63b8ff" points="337.52,-136.11 347.95,-137.97 340.95,-130.01 337.52,-136.11"/>
</a>
</g>
</g>
<!-- Node6 -->
<g id="Node000006" class="node">
<title>Node6</title>
<g id="a_Node000006"><a xlink:href="ArrayToScalarPass_8cpp.html" target="_top" xlink:title="This file implements the &#45;llzk&#45;array&#45;to&#45;scalar pass.">
<polygon fill="white" stroke="#666666" points="469.25,-103 317.5,-103 317.5,-69.5 469.25,-69.5 469.25,-103"/>
<text text-anchor="start" x="325.5" y="-89.5" font-family="Helvetica,sans-Serif" font-size="10.00">lib/Dialect/Array/Transforms</text>
<text text-anchor="middle" x="393.38" y="-76.75" font-family="Helvetica,sans-Serif" font-size="10.00">/ArrayToScalarPass.cpp</text>
</a>
</g>
</g>
<!-- Node1&#45;&gt;Node6 -->
<g id="edge6_Node000001_Node000006" class="edge">
<title>Node1&#45;&gt;Node6</title>
<g id="a_edge6_Node000001_Node000006"><a xlink:title=" ">
<path fill="none" stroke="#63b8ff" d="M393.38,-127.31C393.38,-119.09 393.38,-110.34 393.38,-103.13"/>
<polygon fill="#63b8ff" stroke="#63b8ff" points="389.88,-127.24 393.38,-137.24 396.88,-127.24 389.88,-127.24"/>
</a>
</g>
</g>
<!-- Node7 -->
<g id="Node000007" class="node">
<title>Node7</title>
<g id="a_Node000007"><a xlink:href="Dialect_2InitDialects_8cpp.html" target="_top" xlink:title=" ">
<polygon fill="white" stroke="#666666" points="631.5,-96.62 487.25,-96.62 487.25,-75.88 631.5,-75.88 631.5,-96.62"/>
<text text-anchor="middle" x="559.38" y="-83.12" font-family="Helvetica,sans-Serif" font-size="10.00">lib/Dialect/InitDialects.cpp</text>
</a>
</g>
</g>
<!-- Node1&#45;&gt;Node7 -->
<g id="edge7_Node000001_Node000007" class="edge">
<title>Node1&#45;&gt;Node7</title>
<g id="a_edge7_Node000001_Node000007"><a xlink:title=" ">
<path fill="none" stroke="#63b8ff" d="M443.57,-134.34C474,-121.97 511.43,-106.75 535.35,-97.02"/>
<polygon fill="#63b8ff" stroke="#63b8ff" points="442.48,-131 434.54,-138.01 445.12,-137.49 442.48,-131"/>
</a>
</g>
</g>
<!-- Node8 -->
<g id="Node000008" class="node">
<title>Node8</title>
<g id="a_Node000008"><a xlink:href="PodToScalarPass_8cpp.html" target="_top" xlink:title="This file implements the &#45;llzk&#45;pod&#45;to&#45;scalar pass.">
<polygon fill="white" stroke="#666666" points="795.62,-103 649.12,-103 649.12,-69.5 795.62,-69.5 795.62,-103"/>
<text text-anchor="start" x="657.12" y="-89.5" font-family="Helvetica,sans-Serif" font-size="10.00">lib/Dialect/POD/Transforms</text>
<text text-anchor="middle" x="722.38" y="-76.75" font-family="Helvetica,sans-Serif" font-size="10.00">/PodToScalarPass.cpp</text>
</a>
</g>
</g>
<!-- Node1&#45;&gt;Node8 -->
<g id="edge8_Node000001_Node000008" class="edge">
<title>Node1&#45;&gt;Node8</title>
<g id="a_edge8_Node000001_Node000008"><a xlink:title=" ">
<path fill="none" stroke="#63b8ff" d="M459.05,-141.28C513.83,-130.04 591.84,-114.03 648.73,-102.36"/>
<polygon fill="#63b8ff" stroke="#63b8ff" points="458.65,-137.79 449.55,-143.22 460.05,-144.64 458.65,-137.79"/>
</a>
</g>
</g>
<!-- Node9 -->
<g id="Node000009" class="node">
<title>Node9</title>
<g id="a_Node000009"><a xlink:href="llzk-witgen_8cpp.html" target="_top" xlink:title=" ">
<polygon fill="white" stroke="#666666" points="931,-103 813.75,-103 813.75,-69.5 931,-69.5 931,-103"/>
<text text-anchor="start" x="821.75" y="-89.5" font-family="Helvetica,sans-Serif" font-size="10.00">tools/llzk&#45;witgen/llzk</text>
<text text-anchor="middle" x="872.38" y="-76.75" font-family="Helvetica,sans-Serif" font-size="10.00">&#45;witgen.cpp</text>
</a>
</g>
</g>
<!-- Node1&#45;&gt;Node9 -->
<g id="edge10_Node000001_Node000009" class="edge">
<title>Node1&#45;&gt;Node9</title>
<g id="a_edge10_Node000001_Node000009"><a xlink:title=" ">
<path fill="none" stroke="#63b8ff" d="M459.23,-148.56C540.66,-140.42 683.33,-124.58 804.38,-103 807.36,-102.47 810.41,-101.89 813.48,-101.28"/>
<polygon fill="#63b8ff" stroke="#63b8ff" points="459.27,-145.04 449.67,-149.5 459.96,-152 459.27,-145.04"/>
</a>
</g>
</g>
<!-- Node2&#45;&gt;Node3 -->
<g id="edge2_Node000002_Node000003" class="edge">
<title>Node2&#45;&gt;Node3</title>
<g id="a_edge2_Node000002_Node000003"><a xlink:title=" ">
<path fill="none" stroke="#63b8ff" d="M162.98,-64.02C138,-51.81 107.8,-37.03 88.35,-27.52"/>
<polygon fill="#63b8ff" stroke="#63b8ff" points="161.44,-67.17 171.96,-68.42 164.52,-60.88 161.44,-67.17"/>
</a>
</g>
</g>
<!-- Node2&#45;&gt;Node4 -->
<g id="edge3_Node000002_Node000004" class="edge">
<title>Node2&#45;&gt;Node4</title>
<g id="a_edge3_Node000002_Node000004"><a xlink:title=" ">
<path fill="none" stroke="#63b8ff" d="M245.53,-63.59C263.03,-53.91 283.29,-42.7 299.39,-33.79"/>
<polygon fill="#63b8ff" stroke="#63b8ff" points="243.98,-60.45 236.92,-68.35 247.37,-66.57 243.98,-60.45"/>
</a>
</g>
</g>
<!-- Node5 -->
<g id="Node000005" class="node">
<title>Node5</title>
<g id="a_Node000005"><a xlink:href="RAM_2IR_2Ops_8cpp.html" target="_top" xlink:title=" ">
<polygon fill="white" stroke="#666666" points="258.25,-33.5 154.5,-33.5 154.5,0 258.25,0 258.25,-33.5"/>
<text text-anchor="start" x="162.5" y="-20" font-family="Helvetica,sans-Serif" font-size="10.00">lib/Dialect/RAM/IR</text>
<text text-anchor="middle" x="206.38" y="-7.25" font-family="Helvetica,sans-Serif" font-size="10.00">/Ops.cpp</text>
</a>
</g>
</g>
<!-- Node2&#45;&gt;Node5 -->
<g id="edge4_Node000002_Node000005" class="edge">
<title>Node2&#45;&gt;Node5</title>
<g id="a_edge4_Node000002_Node000005"><a xlink:title=" ">
<path fill="none" stroke="#63b8ff" d="M206.38,-57.81C206.38,-49.59 206.38,-40.84 206.38,-33.63"/>
<polygon fill="#63b8ff" stroke="#63b8ff" points="202.88,-57.74 206.38,-67.74 209.88,-57.74 202.88,-57.74"/>
</a>
</g>
</g>
</g>
</svg>
