<?xml version="1.0" encoding="UTF-8" standalone="no"?>
<!DOCTYPE svg PUBLIC "-//W3C//DTD SVG 1.1//EN"
 "http://www.w3.org/Graphics/SVG/1.1/DTD/svg11.dtd">
<!-- Generated by graphviz version 12.2.1 (0)
 -->
<!-- Title: lib/Dialect/Polymorphic/Transforms/SharedImpl.h Pages: 1 -->
<svg width="792pt" height="124pt"
 viewBox="0.00 0.00 791.62 123.75" xmlns="http://www.w3.org/2000/svg" xmlns:xlink="http://www.w3.org/1999/xlink">
<g id="graph0" class="graph" transform="scale(1 1) rotate(0) translate(4 119.75)">
<title>lib/Dialect/Polymorphic/Transforms/SharedImpl.h</title>
<!-- Node1 -->
<g id="Node000001" class="node">
<title>Node1</title>
<g id="a_Node000001"><a xlink:title="Common private implementation for poly dialect passes.">
<polygon fill="#999999" stroke="#666666" points="457.25,-115.75 316.75,-115.75 316.75,-82.25 457.25,-82.25 457.25,-115.75"/>
<text text-anchor="start" x="324.75" y="-102.25" font-family="Helvetica,sans-Serif" font-size="10.00">lib/Dialect/Polymorphic</text>
<text text-anchor="middle" x="387" y="-89.5" font-family="Helvetica,sans-Serif" font-size="10.00">/Transforms/SharedImpl.h</text>
</a>
</g>
</g>
<!-- Node2 -->
<g id="Node000002" class="node">
<title>Node2</title>
<g id="a_Node000002"><a xlink:href="EmptyTemplateRemovalPass_8cpp.html" target="_top" xlink:title="This file implements the &#45;llzk&#45;drop&#45;empty&#45;templates pass.">
<polygon fill="white" stroke="#666666" points="196,-46.25 0,-46.25 0,0 196,0 196,-46.25"/>
<text text-anchor="start" x="8" y="-32.75" font-family="Helvetica,sans-Serif" font-size="10.00">lib/Dialect/Polymorphic</text>
<text text-anchor="start" x="8" y="-20" font-family="Helvetica,sans-Serif" font-size="10.00">/Transforms/EmptyTemplateRemoval</text>
<text text-anchor="middle" x="98" y="-7.25" font-family="Helvetica,sans-Serif" font-size="10.00">Pass.cpp</text>
</a>
</g>
</g>
<!-- Node1&#45;&gt;Node2 -->
<g id="edge1_Node000001_Node000002" class="edge">
<title>Node1&#45;&gt;Node2</title>
<g id="a_edge1_Node000001_Node000002"><a xlink:title=" ">
<path fill="none" stroke="#63b8ff" d="M312.46,-78.94C273.98,-69.11 226.8,-57.05 186.49,-46.74"/>
<polygon fill="#63b8ff" stroke="#63b8ff" points="311.56,-82.33 322.11,-81.41 313.29,-75.55 311.56,-82.33"/>
</a>
</g>
</g>
<!-- Node3 -->
<g id="Node000003" class="node">
<title>Node3</title>
<g id="a_Node000003"><a xlink:href="FlatteningPass_8cpp.html" target="_top" xlink:title="This file implements the &#45;llzk&#45;flatten pass.">
<polygon fill="white" stroke="#666666" points="381.75,-39.88 214.25,-39.88 214.25,-6.38 381.75,-6.38 381.75,-39.88"/>
<text text-anchor="start" x="222.25" y="-26.38" font-family="Helvetica,sans-Serif" font-size="10.00">lib/Dialect/Polymorphic</text>
<text text-anchor="middle" x="298" y="-13.62" font-family="Helvetica,sans-Serif" font-size="10.00">/Transforms/FlatteningPass.cpp</text>
</a>
</g>
</g>
<!-- Node1&#45;&gt;Node3 -->
<g id="edge2_Node000001_Node000003" class="edge">
<title>Node1&#45;&gt;Node3</title>
<g id="a_edge2_Node000001_Node000003"><a xlink:title=" ">
<path fill="none" stroke="#63b8ff" d="M359.16,-74.89C345.55,-63.6 329.51,-50.28 317.27,-40.12"/>
<polygon fill="#63b8ff" stroke="#63b8ff" points="356.59,-77.31 366.52,-81 361.06,-71.92 356.59,-77.31"/>
</a>
</g>
</g>
<!-- Node4 -->
<g id="Node000004" class="node">
<title>Node4</title>
<g id="a_Node000004"><a xlink:href="SharedImpl_8cpp.html" target="_top" xlink:title=" ">
<polygon fill="white" stroke="#666666" points="551.88,-39.88 400.12,-39.88 400.12,-6.38 551.88,-6.38 551.88,-39.88"/>
<text text-anchor="start" x="408.12" y="-26.38" font-family="Helvetica,sans-Serif" font-size="10.00">lib/Dialect/Polymorphic</text>
<text text-anchor="middle" x="476" y="-13.62" font-family="Helvetica,sans-Serif" font-size="10.00">/Transforms/SharedImpl.cpp</text>
</a>
</g>
</g>
<!-- Node1&#45;&gt;Node4 -->
<g id="edge3_Node000001_Node000004" class="edge">
<title>Node1&#45;&gt;Node4</title>
<g id="a_edge3_Node000001_Node000004"><a xlink:title=" ">
<path fill="none" stroke="#63b8ff" d="M414.84,-74.89C428.45,-63.6 444.49,-50.28 456.73,-40.12"/>
<polygon fill="#63b8ff" stroke="#63b8ff" points="412.94,-71.92 407.48,-81 417.41,-77.31 412.94,-71.92"/>
</a>
</g>
</g>
<!-- Node5 -->
<g id="Node000005" class="node">
<title>Node5</title>
<g id="a_Node000005"><a xlink:href="WildcardArraySpecializationPass_8cpp.html" target="_top" xlink:title="This file implements the &#45;llzk&#45;specialize&#45;wildcard&#45;arrays pass.">
<polygon fill="white" stroke="#666666" points="783.62,-46.25 570.38,-46.25 570.38,0 783.62,0 783.62,-46.25"/>
<text text-anchor="start" x="578.38" y="-32.75" font-family="Helvetica,sans-Serif" font-size="10.00">lib/Dialect/Polymorphic</text>
<text text-anchor="start" x="578.38" y="-20" font-family="Helvetica,sans-Serif" font-size="10.00">/Transforms/WildcardArraySpecialization</text>
<text text-anchor="middle" x="677" y="-7.25" font-family="Helvetica,sans-Serif" font-size="10.00">Pass.cpp</text>
</a>
</g>
</g>
<!-- Node1&#45;&gt;Node5 -->
<g id="edge4_Node000001_Node000005" class="edge">
<title>Node1&#45;&gt;Node5</title>
<g id="a_edge4_Node000001_Node000005"><a xlink:title=" ">
<path fill="none" stroke="#63b8ff" d="M461.31,-79.07C500,-69.21 547.59,-57.09 588.21,-46.74"/>
<polygon fill="#63b8ff" stroke="#63b8ff" points="460.93,-75.55 452.11,-81.41 462.66,-82.34 460.93,-75.55"/>
</a>
</g>
</g>
</g>
</svg>
