<?xml version="1.0" encoding="UTF-8" standalone="no"?>
<!DOCTYPE svg PUBLIC "-//W3C//DTD SVG 1.1//EN"
 "http://www.w3.org/Graphics/SVG/1.1/DTD/svg11.dtd">
<!-- Generated by graphviz version 12.2.1 (0)
 -->
<!-- Title: include/llzk/Dialect/SMT/IR/SMTDialect.h Pages: 1 -->
<svg width="615pt" height="111pt"
 viewBox="0.00 0.00 615.00 111.00" xmlns="http://www.w3.org/2000/svg" xmlns:xlink="http://www.w3.org/1999/xlink">
<g id="graph0" class="graph" transform="scale(1 1) rotate(0) translate(4 107)">
<title>include/llzk/Dialect/SMT/IR/SMTDialect.h</title>
<!-- Node1 -->
<g id="Node000001" class="node">
<title>Node1</title>
<g id="a_Node000001"><a xlink:title=" ">
<polygon fill="#999999" stroke="#666666" points="358.38,-103 238.12,-103 238.12,-69.5 358.38,-69.5 358.38,-103"/>
<text text-anchor="start" x="246.12" y="-89.5" font-family="Helvetica,sans-Serif" font-size="10.00">include/llzk/Dialect</text>
<text text-anchor="middle" x="298.25" y="-76.75" font-family="Helvetica,sans-Serif" font-size="10.00">/SMT/IR/SMTDialect.h</text>
</a>
</g>
</g>
<!-- Node2 -->
<g id="Node000002" class="node">
<title>Node2</title>
<g id="a_Node000002"><a xlink:title=" ">
<polygon fill="#e0e0e0" stroke="#999999" points="110.5,-27.12 0,-27.12 0,-6.38 110.5,-6.38 110.5,-27.12"/>
<text text-anchor="middle" x="55.25" y="-13.62" font-family="Helvetica,sans-Serif" font-size="10.00">mlir/IR/BuiltinOps.h</text>
</a>
</g>
</g>
<!-- Node1&#45;&gt;Node2 -->
<g id="edge1_Node000001_Node000002" class="edge">
<title>Node1&#45;&gt;Node2</title>
<g id="a_edge1_Node000001_Node000002"><a xlink:title=" ">
<path fill="none" stroke="#63b8ff" d="M240.05,-69.08C197.65,-57.31 141,-41.57 101.65,-30.64"/>
<polygon fill="#63b8ff" stroke="#63b8ff" points="102.81,-27.33 92.24,-28.02 100.94,-34.07 102.81,-27.33"/>
</a>
</g>
</g>
<!-- Node3 -->
<g id="Node000003" class="node">
<title>Node3</title>
<g id="a_Node000003"><a xlink:title=" ">
<polygon fill="#e0e0e0" stroke="#999999" points="223.62,-27.12 128.88,-27.12 128.88,-6.38 223.62,-6.38 223.62,-27.12"/>
<text text-anchor="middle" x="176.25" y="-13.62" font-family="Helvetica,sans-Serif" font-size="10.00">mlir/IR/Dialect.h</text>
</a>
</g>
</g>
<!-- Node1&#45;&gt;Node3 -->
<g id="edge2_Node000001_Node000003" class="edge">
<title>Node1&#45;&gt;Node3</title>
<g id="a_edge2_Node000001_Node000003"><a xlink:title=" ">
<path fill="none" stroke="#63b8ff" d="M269.03,-69.08C249.28,-58.16 223.37,-43.82 203.95,-33.08"/>
<polygon fill="#63b8ff" stroke="#63b8ff" points="205.68,-30.03 195.23,-28.25 202.29,-36.16 205.68,-30.03"/>
</a>
</g>
</g>
<!-- Node4 -->
<g id="Node000004" class="node">
<title>Node4</title>
<g id="a_Node000004"><a xlink:title=" ">
<polygon fill="#e0e0e0" stroke="#999999" points="355,-27.12 241.5,-27.12 241.5,-6.38 355,-6.38 355,-27.12"/>
<text text-anchor="middle" x="298.25" y="-13.62" font-family="Helvetica,sans-Serif" font-size="10.00">mlir/Support/LLVM.h</text>
</a>
</g>
</g>
<!-- Node1&#45;&gt;Node4 -->
<g id="edge3_Node000001_Node000004" class="edge">
<title>Node1&#45;&gt;Node4</title>
<g id="a_edge3_Node000001_Node000004"><a xlink:title=" ">
<path fill="none" stroke="#63b8ff" d="M298.25,-69.25C298.25,-60.15 298.25,-48.64 298.25,-38.82"/>
<polygon fill="#63b8ff" stroke="#63b8ff" points="301.75,-39.09 298.25,-29.09 294.75,-39.09 301.75,-39.09"/>
</a>
</g>
</g>
<!-- Node5 -->
<g id="Node000005" class="node">
<title>Node5</title>
<g id="a_Node000005"><a xlink:href="SMTDialect_8h_8inc.html" target="_top" xlink:title=" ">
<polygon fill="white" stroke="#666666" points="481,-33.5 373.5,-33.5 373.5,0 481,0 481,-33.5"/>
<text text-anchor="start" x="381.5" y="-20" font-family="Helvetica,sans-Serif" font-size="10.00">llzk/Dialect/SMT/IR</text>
<text text-anchor="middle" x="427.25" y="-7.25" font-family="Helvetica,sans-Serif" font-size="10.00">/SMTDialect.h.inc</text>
</a>
</g>
</g>
<!-- Node1&#45;&gt;Node5 -->
<g id="edge4_Node000001_Node000005" class="edge">
<title>Node1&#45;&gt;Node5</title>
<g id="a_edge4_Node000001_Node000005"><a xlink:title=" ">
<path fill="none" stroke="#63b8ff" d="M329.15,-69.08C346.38,-60.07 368.05,-48.73 386.64,-39"/>
<polygon fill="#63b8ff" stroke="#63b8ff" points="388.02,-42.23 395.26,-34.49 384.78,-36.02 388.02,-42.23"/>
</a>
</g>
</g>
<!-- Node6 -->
<g id="Node000006" class="node">
<title>Node6</title>
<g id="a_Node000006"><a xlink:href="SMTEnums_8h_8inc.html" target="_top" xlink:title=" ">
<polygon fill="white" stroke="#666666" points="607,-33.5 499.5,-33.5 499.5,0 607,0 607,-33.5"/>
<text text-anchor="start" x="507.5" y="-20" font-family="Helvetica,sans-Serif" font-size="10.00">llzk/Dialect/SMT/IR</text>
<text text-anchor="middle" x="553.25" y="-7.25" font-family="Helvetica,sans-Serif" font-size="10.00">/SMTEnums.h.inc</text>
</a>
</g>
</g>
<!-- Node1&#45;&gt;Node6 -->
<g id="edge5_Node000001_Node000006" class="edge">
<title>Node1&#45;&gt;Node6</title>
<g id="a_edge5_Node000001_Node000006"><a xlink:title=" ">
<path fill="none" stroke="#63b8ff" d="M358.68,-69.25C397.72,-58.92 448.49,-45.48 488.38,-34.92"/>
<polygon fill="#63b8ff" stroke="#63b8ff" points="489.09,-38.35 497.86,-32.41 487.3,-31.59 489.09,-38.35"/>
</a>
</g>
</g>
</g>
</svg>
