<?xml version="1.0" encoding="UTF-8" standalone="no"?>
<!DOCTYPE svg PUBLIC "-//W3C//DTD SVG 1.1//EN"
 "http://www.w3.org/Graphics/SVG/1.1/DTD/svg11.dtd">
<!-- Generated by graphviz version 12.2.1 (0)
 -->
<!-- Title: lib/Dialect/SMT/SMTTypes.cpp Pages: 1 -->
<svg width="1249pt" height="168pt"
 viewBox="0.00 0.00 1248.50 167.75" xmlns="http://www.w3.org/2000/svg" xmlns:xlink="http://www.w3.org/1999/xlink">
<g id="graph0" class="graph" transform="scale(1 1) rotate(0) translate(4 163.75)">
<title>lib/Dialect/SMT/SMTTypes.cpp</title>
<!-- Node1 -->
<g id="Node000001" class="node">
<title>Node1</title>
<g id="a_Node000001"><a xlink:title=" ">
<polygon fill="#999999" stroke="#666666" points="886.5,-159.75 725,-159.75 725,-139 886.5,-139 886.5,-159.75"/>
<text text-anchor="middle" x="805.75" y="-146.25" font-family="Helvetica,sans-Serif" font-size="10.00">lib/Dialect/SMT/SMTTypes.cpp</text>
</a>
</g>
</g>
<!-- Node2 -->
<g id="Node000002" class="node">
<title>Node2</title>
<g id="a_Node000002"><a xlink:href="SMTTypes_8h.html" target="_top" xlink:title=" ">
<polygon fill="white" stroke="#666666" points="293.5,-103 186,-103 186,-69.5 293.5,-69.5 293.5,-103"/>
<text text-anchor="start" x="194" y="-89.5" font-family="Helvetica,sans-Serif" font-size="10.00">llzk/Dialect/SMT/IR</text>
<text text-anchor="middle" x="239.75" y="-76.75" font-family="Helvetica,sans-Serif" font-size="10.00">/SMTTypes.h</text>
</a>
</g>
</g>
<!-- Node1&#45;&gt;Node2 -->
<g id="edge1_Node000001_Node000002" class="edge">
<title>Node1&#45;&gt;Node2</title>
<g id="a_edge1_Node000001_Node000002"><a xlink:title=" ">
<path fill="none" stroke="#63b8ff" d="M724.66,-139.62C611.67,-127.42 409.08,-105.54 305.16,-94.31"/>
<polygon fill="#63b8ff" stroke="#63b8ff" points="305.72,-90.85 295.4,-93.26 304.97,-97.81 305.72,-90.85"/>
</a>
</g>
</g>
<!-- Node6 -->
<g id="Node000006" class="node">
<title>Node6</title>
<g id="a_Node000006"><a xlink:href="SMTDialect_8h.html" target="_top" xlink:title=" ">
<polygon fill="white" stroke="#666666" points="660.5,-103 553,-103 553,-69.5 660.5,-69.5 660.5,-103"/>
<text text-anchor="start" x="561" y="-89.5" font-family="Helvetica,sans-Serif" font-size="10.00">llzk/Dialect/SMT/IR</text>
<text text-anchor="middle" x="606.75" y="-76.75" font-family="Helvetica,sans-Serif" font-size="10.00">/SMTDialect.h</text>
</a>
</g>
</g>
<!-- Node1&#45;&gt;Node6 -->
<g id="edge5_Node000001_Node000006" class="edge">
<title>Node1&#45;&gt;Node6</title>
<g id="a_edge5_Node000001_Node000006"><a xlink:title=" ">
<path fill="none" stroke="#63b8ff" d="M773.78,-138.55C746.02,-130.03 704.98,-117.42 670.53,-106.84"/>
<polygon fill="#63b8ff" stroke="#63b8ff" points="671.64,-103.52 661.05,-103.93 669.58,-110.21 671.64,-103.52"/>
</a>
</g>
</g>
<!-- Node12 -->
<g id="Node000012" class="node">
<title>Node12</title>
<g id="a_Node000012"><a xlink:title=" ">
<polygon fill="#e0e0e0" stroke="#999999" points="778.75,-96.62 678.75,-96.62 678.75,-75.88 778.75,-75.88 778.75,-96.62"/>
<text text-anchor="middle" x="728.75" y="-83.12" font-family="Helvetica,sans-Serif" font-size="10.00">mlir/IR/Builders.h</text>
</a>
</g>
</g>
<!-- Node1&#45;&gt;Node12 -->
<g id="edge11_Node000001_Node000012" class="edge">
<title>Node1&#45;&gt;Node12</title>
<g id="a_edge11_Node000001_Node000012"><a xlink:title=" ">
<path fill="none" stroke="#63b8ff" d="M793.38,-138.55C781.7,-129.29 763.96,-115.2 750.02,-104.13"/>
<polygon fill="#63b8ff" stroke="#63b8ff" points="752.28,-101.46 742.28,-97.99 747.93,-106.95 752.28,-101.46"/>
</a>
</g>
</g>
<!-- Node13 -->
<g id="Node000013" class="node">
<title>Node13</title>
<g id="a_Node000013"><a xlink:title=" ">
<polygon fill="#e0e0e0" stroke="#999999" points="969.12,-96.62 796.38,-96.62 796.38,-75.88 969.12,-75.88 969.12,-96.62"/>
<text text-anchor="middle" x="882.75" y="-83.12" font-family="Helvetica,sans-Serif" font-size="10.00">mlir/IR/DialectImplementation.h</text>
</a>
</g>
</g>
<!-- Node1&#45;&gt;Node13 -->
<g id="edge12_Node000001_Node000013" class="edge">
<title>Node1&#45;&gt;Node13</title>
<g id="a_edge12_Node000001_Node000013"><a xlink:title=" ">
<path fill="none" stroke="#63b8ff" d="M818.12,-138.55C829.8,-129.29 847.54,-115.2 861.48,-104.13"/>
<polygon fill="#63b8ff" stroke="#63b8ff" points="863.57,-106.95 869.22,-97.99 859.22,-101.46 863.57,-106.95"/>
</a>
</g>
</g>
<!-- Node14 -->
<g id="Node000014" class="node">
<title>Node14</title>
<g id="a_Node000014"><a xlink:title=" ">
<polygon fill="#e0e0e0" stroke="#999999" points="1114.62,-96.62 986.88,-96.62 986.88,-75.88 1114.62,-75.88 1114.62,-96.62"/>
<text text-anchor="middle" x="1050.75" y="-83.12" font-family="Helvetica,sans-Serif" font-size="10.00">llvm/ADT/TypeSwitch.h</text>
</a>
</g>
</g>
<!-- Node1&#45;&gt;Node14 -->
<g id="edge13_Node000001_Node000014" class="edge">
<title>Node1&#45;&gt;Node14</title>
<g id="a_edge13_Node000001_Node000014"><a xlink:title=" ">
<path fill="none" stroke="#63b8ff" d="M845.11,-138.55C887.35,-128.02 954.55,-111.25 1000.56,-99.77"/>
<polygon fill="#63b8ff" stroke="#63b8ff" points="1001.16,-103.23 1010.02,-97.41 999.47,-96.44 1001.16,-103.23"/>
</a>
</g>
</g>
<!-- Node15 -->
<g id="Node000015" class="node">
<title>Node15</title>
<g id="a_Node000015"><a xlink:href="SMTTypes_8cpp_8inc.html" target="_top" xlink:title=" ">
<polygon fill="white" stroke="#666666" points="1240.5,-103 1133,-103 1133,-69.5 1240.5,-69.5 1240.5,-103"/>
<text text-anchor="start" x="1141" y="-89.5" font-family="Helvetica,sans-Serif" font-size="10.00">llzk/Dialect/SMT/IR</text>
<text text-anchor="middle" x="1186.75" y="-76.75" font-family="Helvetica,sans-Serif" font-size="10.00">/SMTTypes.cpp.inc</text>
</a>
</g>
</g>
<!-- Node1&#45;&gt;Node15 -->
<g id="edge14_Node000001_Node000015" class="edge">
<title>Node1&#45;&gt;Node15</title>
<g id="a_edge14_Node000001_Node000015"><a xlink:title=" ">
<path fill="none" stroke="#63b8ff" d="M886.84,-139.15C948.63,-131.58 1036,-119.72 1121.33,-103.36"/>
<polygon fill="#63b8ff" stroke="#63b8ff" points="1121.9,-106.81 1131.05,-101.47 1120.56,-99.94 1121.9,-106.81"/>
</a>
</g>
</g>
<!-- Node3 -->
<g id="Node000003" class="node">
<title>Node3</title>
<g id="a_Node000003"><a xlink:title=" ">
<polygon fill="#e0e0e0" stroke="#999999" points="119.5,-27.12 0,-27.12 0,-6.38 119.5,-6.38 119.5,-27.12"/>
<text text-anchor="middle" x="59.75" y="-13.62" font-family="Helvetica,sans-Serif" font-size="10.00">mlir/IR/BuiltinTypes.h</text>
</a>
</g>
</g>
<!-- Node2&#45;&gt;Node3 -->
<g id="edge2_Node000002_Node000003" class="edge">
<title>Node2&#45;&gt;Node3</title>
<g id="a_edge2_Node000002_Node000003"><a xlink:title=" ">
<path fill="none" stroke="#63b8ff" d="M196.64,-69.08C166.11,-57.63 125.6,-42.44 96.58,-31.56"/>
<polygon fill="#63b8ff" stroke="#63b8ff" points="98.08,-28.39 87.49,-28.15 95.62,-34.94 98.08,-28.39"/>
</a>
</g>
</g>
<!-- Node4 -->
<g id="Node000004" class="node">
<title>Node4</title>
<g id="a_Node000004"><a xlink:title=" ">
<polygon fill="#e0e0e0" stroke="#999999" points="225.75,-27.12 137.75,-27.12 137.75,-6.38 225.75,-6.38 225.75,-27.12"/>
<text text-anchor="middle" x="181.75" y="-13.62" font-family="Helvetica,sans-Serif" font-size="10.00">mlir/IR/Types.h</text>
</a>
</g>
</g>
<!-- Node2&#45;&gt;Node4 -->
<g id="edge3_Node000002_Node000004" class="edge">
<title>Node2&#45;&gt;Node4</title>
<g id="a_edge3_Node000002_Node000004"><a xlink:title=" ">
<path fill="none" stroke="#63b8ff" d="M226,-69.25C217.49,-59.34 206.52,-46.58 197.64,-36.24"/>
<polygon fill="#63b8ff" stroke="#63b8ff" points="200.35,-34.02 191.18,-28.72 195.04,-38.59 200.35,-34.02"/>
</a>
</g>
</g>
<!-- Node5 -->
<g id="Node000005" class="node">
<title>Node5</title>
<g id="a_Node000005"><a xlink:href="SMTTypes_8h_8inc.html" target="_top" xlink:title=" ">
<polygon fill="white" stroke="#666666" points="351.5,-33.5 244,-33.5 244,0 351.5,0 351.5,-33.5"/>
<text text-anchor="start" x="252" y="-20" font-family="Helvetica,sans-Serif" font-size="10.00">llzk/Dialect/SMT/IR</text>
<text text-anchor="middle" x="297.75" y="-7.25" font-family="Helvetica,sans-Serif" font-size="10.00">/SMTTypes.h.inc</text>
</a>
</g>
</g>
<!-- Node2&#45;&gt;Node5 -->
<g id="edge4_Node000002_Node000005" class="edge">
<title>Node2&#45;&gt;Node5</title>
<g id="a_edge4_Node000002_Node000005"><a xlink:title=" ">
<path fill="none" stroke="#63b8ff" d="M253.5,-69.25C260.43,-61.18 268.99,-51.22 276.73,-42.21"/>
<polygon fill="#63b8ff" stroke="#63b8ff" points="279.25,-44.65 283.12,-34.78 273.95,-40.08 279.25,-44.65"/>
</a>
</g>
</g>
<!-- Node7 -->
<g id="Node000007" class="node">
<title>Node7</title>
<g id="a_Node000007"><a xlink:title=" ">
<polygon fill="#e0e0e0" stroke="#999999" points="480,-27.12 369.5,-27.12 369.5,-6.38 480,-6.38 480,-27.12"/>
<text text-anchor="middle" x="424.75" y="-13.62" font-family="Helvetica,sans-Serif" font-size="10.00">mlir/IR/BuiltinOps.h</text>
</a>
</g>
</g>
<!-- Node6&#45;&gt;Node7 -->
<g id="edge6_Node000006_Node000007" class="edge">
<title>Node6&#45;&gt;Node7</title>
<g id="a_edge6_Node000006_Node000007"><a xlink:title=" ">
<path fill="none" stroke="#63b8ff" d="M563.16,-69.08C532.29,-57.63 491.33,-42.44 461.99,-31.56"/>
<polygon fill="#63b8ff" stroke="#63b8ff" points="463.37,-28.34 452.78,-28.15 460.94,-34.9 463.37,-28.34"/>
</a>
</g>
</g>
<!-- Node8 -->
<g id="Node000008" class="node">
<title>Node8</title>
<g id="a_Node000008"><a xlink:title=" ">
<polygon fill="#e0e0e0" stroke="#999999" points="593.12,-27.12 498.38,-27.12 498.38,-6.38 593.12,-6.38 593.12,-27.12"/>
<text text-anchor="middle" x="545.75" y="-13.62" font-family="Helvetica,sans-Serif" font-size="10.00">mlir/IR/Dialect.h</text>
</a>
</g>
</g>
<!-- Node6&#45;&gt;Node8 -->
<g id="edge7_Node000006_Node000008" class="edge">
<title>Node6&#45;&gt;Node8</title>
<g id="a_edge7_Node000006_Node000008"><a xlink:title=" ">
<path fill="none" stroke="#63b8ff" d="M592.29,-69.25C583.25,-59.24 571.57,-46.32 562.17,-35.92"/>
<polygon fill="#63b8ff" stroke="#63b8ff" points="564.94,-33.77 555.64,-28.69 559.75,-38.46 564.94,-33.77"/>
</a>
</g>
</g>
<!-- Node9 -->
<g id="Node000009" class="node">
<title>Node9</title>
<g id="a_Node000009"><a xlink:title=" ">
<polygon fill="#e0e0e0" stroke="#999999" points="724.5,-27.12 611,-27.12 611,-6.38 724.5,-6.38 724.5,-27.12"/>
<text text-anchor="middle" x="667.75" y="-13.62" font-family="Helvetica,sans-Serif" font-size="10.00">mlir/Support/LLVM.h</text>
</a>
</g>
</g>
<!-- Node6&#45;&gt;Node9 -->
<g id="edge8_Node000006_Node000009" class="edge">
<title>Node6&#45;&gt;Node9</title>
<g id="a_edge8_Node000006_Node000009"><a xlink:title=" ">
<path fill="none" stroke="#63b8ff" d="M621.21,-69.25C630.25,-59.24 641.93,-46.32 651.33,-35.92"/>
<polygon fill="#63b8ff" stroke="#63b8ff" points="653.75,-38.46 657.86,-28.69 648.56,-33.77 653.75,-38.46"/>
</a>
</g>
</g>
<!-- Node10 -->
<g id="Node000010" class="node">
<title>Node10</title>
<g id="a_Node000010"><a xlink:href="SMTDialect_8h_8inc.html" target="_top" xlink:title=" ">
<polygon fill="white" stroke="#666666" points="850.5,-33.5 743,-33.5 743,0 850.5,0 850.5,-33.5"/>
<text text-anchor="start" x="751" y="-20" font-family="Helvetica,sans-Serif" font-size="10.00">llzk/Dialect/SMT/IR</text>
<text text-anchor="middle" x="796.75" y="-7.25" font-family="Helvetica,sans-Serif" font-size="10.00">/SMTDialect.h.inc</text>
</a>
</g>
</g>
<!-- Node6&#45;&gt;Node10 -->
<g id="edge9_Node000006_Node000010" class="edge">
<title>Node6&#45;&gt;Node10</title>
<g id="a_edge9_Node000006_Node000010"><a xlink:title=" ">
<path fill="none" stroke="#63b8ff" d="M652.26,-69.08C678.84,-59.64 712.58,-47.65 740.78,-37.64"/>
<polygon fill="#63b8ff" stroke="#63b8ff" points="741.61,-41.06 749.86,-34.41 739.26,-34.46 741.61,-41.06"/>
</a>
</g>
</g>
<!-- Node11 -->
<g id="Node000011" class="node">
<title>Node11</title>
<g id="a_Node000011"><a xlink:href="SMTEnums_8h_8inc.html" target="_top" xlink:title=" ">
<polygon fill="white" stroke="#666666" points="976.5,-33.5 869,-33.5 869,0 976.5,0 976.5,-33.5"/>
<text text-anchor="start" x="877" y="-20" font-family="Helvetica,sans-Serif" font-size="10.00">llzk/Dialect/SMT/IR</text>
<text text-anchor="middle" x="922.75" y="-7.25" font-family="Helvetica,sans-Serif" font-size="10.00">/SMTEnums.h.inc</text>
</a>
</g>
</g>
<!-- Node6&#45;&gt;Node11 -->
<g id="edge10_Node000006_Node000011" class="edge">
<title>Node6&#45;&gt;Node11</title>
<g id="a_edge10_Node000006_Node000011"><a xlink:title=" ">
<path fill="none" stroke="#63b8ff" d="M661,-71.48C663.96,-70.79 666.89,-70.13 669.75,-69.5 750.25,-51.83 773.89,-51.89 857.44,-33.93"/>
<polygon fill="#63b8ff" stroke="#63b8ff" points="857.99,-37.39 867.02,-31.85 856.51,-30.55 857.99,-37.39"/>
</a>
</g>
</g>
</g>
</svg>
