<?xml version="1.0" encoding="UTF-8" standalone="no"?>
<!DOCTYPE svg PUBLIC "-//W3C//DTD SVG 1.1//EN"
 "http://www.w3.org/Graphics/SVG/1.1/DTD/svg11.dtd">
<!-- Generated by graphviz version 12.2.1 (0)
 -->
<!-- Title: include/llzk/Analysis/SparseAnalysis.h Pages: 1 -->
<svg width="989pt" height="111pt"
 viewBox="0.00 0.00 988.62 111.00" xmlns="http://www.w3.org/2000/svg" xmlns:xlink="http://www.w3.org/1999/xlink">
<g id="graph0" class="graph" transform="scale(1 1) rotate(0) translate(4 107)">
<title>include/llzk/Analysis/SparseAnalysis.h</title>
<!-- Node1 -->
<g id="Node000001" class="node">
<title>Node1</title>
<g id="a_Node000001"><a xlink:title="This file implements sparse data&#45;flow analysis using the data&#45;flow analysis framework.">
<polygon fill="#999999" stroke="#666666" points="558.5,-103 442.75,-103 442.75,-69.5 558.5,-69.5 558.5,-103"/>
<text text-anchor="start" x="450.75" y="-89.5" font-family="Helvetica,sans-Serif" font-size="10.00">include/llzk/Analysis</text>
<text text-anchor="middle" x="500.62" y="-76.75" font-family="Helvetica,sans-Serif" font-size="10.00">/SparseAnalysis.h</text>
</a>
</g>
</g>
<!-- Node2 -->
<g id="Node000002" class="node">
<title>Node2</title>
<g id="a_Node000002"><a xlink:title=" ">
<polygon fill="#e0e0e0" stroke="#999999" points="129.25,-33.5 0,-33.5 0,0 129.25,0 129.25,-33.5"/>
<text text-anchor="start" x="8" y="-20" font-family="Helvetica,sans-Serif" font-size="10.00">mlir/Analysis/DataFlow</text>
<text text-anchor="middle" x="64.62" y="-7.25" font-family="Helvetica,sans-Serif" font-size="10.00">/SparseAnalysis.h</text>
</a>
</g>
</g>
<!-- Node1&#45;&gt;Node2 -->
<g id="edge1_Node000001_Node000002" class="edge">
<title>Node1&#45;&gt;Node2</title>
<g id="a_edge1_Node000001_Node000002"><a xlink:title=" ">
<path fill="none" stroke="#63b8ff" d="M442.27,-78.22C372.69,-69.56 252.67,-53.71 140.62,-33.97"/>
<polygon fill="#63b8ff" stroke="#63b8ff" points="141.4,-30.56 130.95,-32.25 140.18,-37.45 141.4,-30.56"/>
</a>
</g>
</g>
<!-- Node3 -->
<g id="Node000003" class="node">
<title>Node3</title>
<g id="a_Node000003"><a xlink:title=" ">
<polygon fill="#e0e0e0" stroke="#999999" points="340.12,-27.12 147.12,-27.12 147.12,-6.38 340.12,-6.38 340.12,-27.12"/>
<text text-anchor="middle" x="243.62" y="-13.62" font-family="Helvetica,sans-Serif" font-size="10.00">mlir/Analysis/DataFlowFramework.h</text>
</a>
</g>
</g>
<!-- Node1&#45;&gt;Node3 -->
<g id="edge2_Node000001_Node000003" class="edge">
<title>Node1&#45;&gt;Node3</title>
<g id="a_edge2_Node000001_Node000003"><a xlink:title=" ">
<path fill="none" stroke="#63b8ff" d="M442.31,-69.93C396.9,-58.01 334.63,-41.65 291.97,-30.45"/>
<polygon fill="#63b8ff" stroke="#63b8ff" points="293.06,-27.11 282.5,-27.96 291.28,-33.89 293.06,-27.11"/>
</a>
</g>
</g>
<!-- Node4 -->
<g id="Node000004" class="node">
<title>Node4</title>
<g id="a_Node000004"><a xlink:title=" ">
<polygon fill="#e0e0e0" stroke="#999999" points="480.88,-27.12 358.38,-27.12 358.38,-6.38 480.88,-6.38 480.88,-27.12"/>
<text text-anchor="middle" x="419.62" y="-13.62" font-family="Helvetica,sans-Serif" font-size="10.00">mlir/IR/SymbolTable.h</text>
</a>
</g>
</g>
<!-- Node1&#45;&gt;Node4 -->
<g id="edge3_Node000001_Node000004" class="edge">
<title>Node1&#45;&gt;Node4</title>
<g id="a_edge3_Node000001_Node000004"><a xlink:title=" ">
<path fill="none" stroke="#63b8ff" d="M481.43,-69.25C468.93,-58.84 452.65,-45.27 439.93,-34.67"/>
<polygon fill="#63b8ff" stroke="#63b8ff" points="442.5,-32.25 432.57,-28.54 438.02,-37.63 442.5,-32.25"/>
</a>
</g>
</g>
<!-- Node5 -->
<g id="Node000005" class="node">
<title>Node5</title>
<g id="a_Node000005"><a xlink:title=" ">
<polygon fill="#e0e0e0" stroke="#999999" points="666,-27.12 499.25,-27.12 499.25,-6.38 666,-6.38 666,-27.12"/>
<text text-anchor="middle" x="582.62" y="-13.62" font-family="Helvetica,sans-Serif" font-size="10.00">mlir/Interfaces/CallInterfaces.h</text>
</a>
</g>
</g>
<!-- Node1&#45;&gt;Node5 -->
<g id="edge4_Node000001_Node000005" class="edge">
<title>Node1&#45;&gt;Node5</title>
<g id="a_edge4_Node000001_Node000005"><a xlink:title=" ">
<path fill="none" stroke="#63b8ff" d="M520.06,-69.25C532.71,-58.84 549.19,-45.27 562.07,-34.67"/>
<polygon fill="#63b8ff" stroke="#63b8ff" points="564.03,-37.59 569.52,-28.53 559.58,-32.19 564.03,-37.59"/>
</a>
</g>
</g>
<!-- Node6 -->
<g id="Node000006" class="node">
<title>Node6</title>
<g id="a_Node000006"><a xlink:title=" ">
<polygon fill="#e0e0e0" stroke="#999999" points="833,-33.5 684.25,-33.5 684.25,0 833,0 833,-33.5"/>
<text text-anchor="start" x="692.25" y="-20" font-family="Helvetica,sans-Serif" font-size="10.00">mlir/Interfaces/ControlFlow</text>
<text text-anchor="middle" x="758.62" y="-7.25" font-family="Helvetica,sans-Serif" font-size="10.00">Interfaces.h</text>
</a>
</g>
</g>
<!-- Node1&#45;&gt;Node6 -->
<g id="edge5_Node000001_Node000006" class="edge">
<title>Node1&#45;&gt;Node6</title>
<g id="a_edge5_Node000001_Node000006"><a xlink:title=" ">
<path fill="none" stroke="#63b8ff" d="M558.85,-70.02C596.34,-60.21 645.39,-47.38 685.5,-36.88"/>
<polygon fill="#63b8ff" stroke="#63b8ff" points="686.31,-40.29 695.1,-34.37 684.54,-33.52 686.31,-40.29"/>
</a>
</g>
</g>
<!-- Node7 -->
<g id="Node000007" class="node">
<title>Node7</title>
<g id="a_Node000007"><a xlink:title=" ">
<polygon fill="#e0e0e0" stroke="#999999" points="980.62,-27.12 850.62,-27.12 850.62,-6.38 980.62,-6.38 980.62,-27.12"/>
<text text-anchor="middle" x="915.62" y="-13.62" font-family="Helvetica,sans-Serif" font-size="10.00">llvm/ADT/SmallPtrSet.h</text>
</a>
</g>
</g>
<!-- Node1&#45;&gt;Node7 -->
<g id="edge6_Node000001_Node000007" class="edge">
<title>Node1&#45;&gt;Node7</title>
<g id="a_edge6_Node000001_Node000007"><a xlink:title=" ">
<path fill="none" stroke="#63b8ff" d="M558.72,-77.5C626.73,-68.18 742.66,-51.53 841.62,-33.5 847.68,-32.4 854,-31.17 860.29,-29.9"/>
<polygon fill="#63b8ff" stroke="#63b8ff" points="860.92,-33.34 870.01,-27.9 859.51,-26.49 860.92,-33.34"/>
</a>
</g>
</g>
</g>
</svg>
