<?xml version="1.0" encoding="UTF-8" standalone="no"?>
<!DOCTYPE svg PUBLIC "-//W3C//DTD SVG 1.1//EN"
 "http://www.w3.org/Graphics/SVG/1.1/DTD/svg11.dtd">
<!-- Generated by graphviz version 12.2.1 (0)
 -->
<!-- Title: include/llzk/Analysis/SparseAnalysis.h Pages: 1 -->
<svg width="1948pt" height="111pt"
 viewBox="0.00 0.00 1947.88 111.00" xmlns="http://www.w3.org/2000/svg" xmlns:xlink="http://www.w3.org/1999/xlink">
<g id="graph0" class="graph" transform="scale(1 1) rotate(0) translate(4 107)">
<title>include/llzk/Analysis/SparseAnalysis.h</title>
<!-- Node1 -->
<g id="Node000001" class="node">
<title>Node1</title>
<g id="a_Node000001"><a xlink:title="This file provides LLZK&#39;s sparse forward data&#45;flow analysis compatibility layer.">
<polygon fill="#999999" stroke="#666666" points="1028.5,-103 912.75,-103 912.75,-69.5 1028.5,-69.5 1028.5,-103"/>
<text text-anchor="start" x="920.75" y="-89.5" font-family="Helvetica,sans-Serif" font-size="10.00">include/llzk/Analysis</text>
<text text-anchor="middle" x="970.62" y="-76.75" font-family="Helvetica,sans-Serif" font-size="10.00">/SparseAnalysis.h</text>
</a>
</g>
</g>
<!-- Node2 -->
<g id="Node000002" class="node">
<title>Node2</title>
<g id="a_Node000002"><a xlink:title=" ">
<polygon fill="#e0e0e0" stroke="#999999" points="129.25,-33.5 0,-33.5 0,0 129.25,0 129.25,-33.5"/>
<text text-anchor="start" x="8" y="-20" font-family="Helvetica,sans-Serif" font-size="10.00">mlir/Analysis/DataFlow</text>
<text text-anchor="middle" x="64.62" y="-7.25" font-family="Helvetica,sans-Serif" font-size="10.00">/DeadCodeAnalysis.h</text>
</a>
</g>
</g>
<!-- Node1&#45;&gt;Node2 -->
<g id="edge1_Node000001_Node000002" class="edge">
<title>Node1&#45;&gt;Node2</title>
<g id="a_edge1_Node000001_Node000002"><a xlink:title=" ">
<path fill="none" stroke="#63b8ff" d="M912.26,-84.64C777.71,-82.58 435.33,-73.63 140.75,-33.81"/>
<polygon fill="#63b8ff" stroke="#63b8ff" points="141.3,-30.35 130.91,-32.46 140.35,-37.29 141.3,-30.35"/>
</a>
</g>
</g>
<!-- Node3 -->
<g id="Node000003" class="node">
<title>Node3</title>
<g id="a_Node000003"><a xlink:title=" ">
<polygon fill="#e0e0e0" stroke="#999999" points="276.25,-33.5 147,-33.5 147,0 276.25,0 276.25,-33.5"/>
<text text-anchor="start" x="155" y="-20" font-family="Helvetica,sans-Serif" font-size="10.00">mlir/Analysis/DataFlow</text>
<text text-anchor="middle" x="211.62" y="-7.25" font-family="Helvetica,sans-Serif" font-size="10.00">/SparseAnalysis.h</text>
</a>
</g>
</g>
<!-- Node1&#45;&gt;Node3 -->
<g id="edge2_Node000001_Node000003" class="edge">
<title>Node1&#45;&gt;Node3</title>
<g id="a_edge2_Node000001_Node000003"><a xlink:title=" ">
<path fill="none" stroke="#63b8ff" d="M912.51,-83.56C795.77,-79.57 524.36,-67.37 287.66,-33.83"/>
<polygon fill="#63b8ff" stroke="#63b8ff" points="288.31,-30.38 277.92,-32.43 287.32,-37.31 288.31,-30.38"/>
</a>
</g>
</g>
<!-- Node4 -->
<g id="Node000004" class="node">
<title>Node4</title>
<g id="a_Node000004"><a xlink:title=" ">
<polygon fill="#e0e0e0" stroke="#999999" points="487.12,-27.12 294.12,-27.12 294.12,-6.38 487.12,-6.38 487.12,-27.12"/>
<text text-anchor="middle" x="390.62" y="-13.62" font-family="Helvetica,sans-Serif" font-size="10.00">mlir/Analysis/DataFlowFramework.h</text>
</a>
</g>
</g>
<!-- Node1&#45;&gt;Node4 -->
<g id="edge3_Node000001_Node000004" class="edge">
<title>Node1&#45;&gt;Node4</title>
<g id="a_edge3_Node000001_Node000004"><a xlink:title=" ">
<path fill="none" stroke="#63b8ff" d="M912.4,-79.67C822.75,-70.91 645.56,-52.9 495.62,-33.5 485.62,-32.21 475.1,-30.75 464.74,-29.25"/>
<polygon fill="#63b8ff" stroke="#63b8ff" points="465.49,-25.82 455.08,-27.84 464.47,-32.75 465.49,-25.82"/>
</a>
</g>
</g>
<!-- Node5 -->
<g id="Node000005" class="node">
<title>Node5</title>
<g id="a_Node000005"><a xlink:title=" ">
<polygon fill="#e0e0e0" stroke="#999999" points="592.25,-27.12 505,-27.12 505,-6.38 592.25,-6.38 592.25,-27.12"/>
<text text-anchor="middle" x="548.62" y="-13.62" font-family="Helvetica,sans-Serif" font-size="10.00">mlir/IR/Block.h</text>
</a>
</g>
</g>
<!-- Node1&#45;&gt;Node5 -->
<g id="edge4_Node000001_Node000005" class="edge">
<title>Node1&#45;&gt;Node5</title>
<g id="a_edge4_Node000001_Node000005"><a xlink:title=" ">
<path fill="none" stroke="#63b8ff" d="M912.31,-79.79C839.17,-72.33 710.19,-57.11 601.62,-33.5 597.8,-32.67 593.86,-31.7 589.92,-30.67"/>
<polygon fill="#63b8ff" stroke="#63b8ff" points="591,-27.34 580.43,-28.02 589.12,-34.08 591,-27.34"/>
</a>
</g>
</g>
<!-- Node6 -->
<g id="Node000006" class="node">
<title>Node6</title>
<g id="a_Node000006"><a xlink:title=" ">
<polygon fill="#e0e0e0" stroke="#999999" points="718.75,-27.12 610.5,-27.12 610.5,-6.38 718.75,-6.38 718.75,-27.12"/>
<text text-anchor="middle" x="664.62" y="-13.62" font-family="Helvetica,sans-Serif" font-size="10.00">mlir/IR/Operation.h</text>
</a>
</g>
</g>
<!-- Node1&#45;&gt;Node6 -->
<g id="edge5_Node000001_Node000006" class="edge">
<title>Node1&#45;&gt;Node6</title>
<g id="a_edge5_Node000001_Node000006"><a xlink:title=" ">
<path fill="none" stroke="#63b8ff" d="M912.56,-73.48C863.25,-63.35 790.66,-48.09 727.62,-33.5 723.11,-32.46 718.43,-31.34 713.74,-30.21"/>
<polygon fill="#63b8ff" stroke="#63b8ff" points="714.9,-26.89 704.36,-27.9 713.23,-33.69 714.9,-26.89"/>
</a>
</g>
</g>
<!-- Node7 -->
<g id="Node000007" class="node">
<title>Node7</title>
<g id="a_Node000007"><a xlink:title=" ">
<polygon fill="#e0e0e0" stroke="#999999" points="830.62,-27.12 736.62,-27.12 736.62,-6.38 830.62,-6.38 830.62,-27.12"/>
<text text-anchor="middle" x="783.62" y="-13.62" font-family="Helvetica,sans-Serif" font-size="10.00">mlir/IR/Region.h</text>
</a>
</g>
</g>
<!-- Node1&#45;&gt;Node7 -->
<g id="edge6_Node000001_Node000007" class="edge">
<title>Node1&#45;&gt;Node7</title>
<g id="a_edge6_Node000001_Node000007"><a xlink:title=" ">
<path fill="none" stroke="#63b8ff" d="M925.83,-69.08C893.98,-57.58 851.66,-42.31 821.49,-31.42"/>
<polygon fill="#63b8ff" stroke="#63b8ff" points="822.99,-28.24 812.39,-28.13 820.61,-34.82 822.99,-28.24"/>
</a>
</g>
</g>
<!-- Node8 -->
<g id="Node000008" class="node">
<title>Node8</title>
<g id="a_Node000008"><a xlink:title=" ">
<polygon fill="#e0e0e0" stroke="#999999" points="970.88,-27.12 848.38,-27.12 848.38,-6.38 970.88,-6.38 970.88,-27.12"/>
<text text-anchor="middle" x="909.62" y="-13.62" font-family="Helvetica,sans-Serif" font-size="10.00">mlir/IR/SymbolTable.h</text>
</a>
</g>
</g>
<!-- Node1&#45;&gt;Node8 -->
<g id="edge7_Node000001_Node000008" class="edge">
<title>Node1&#45;&gt;Node8</title>
<g id="a_edge7_Node000001_Node000008"><a xlink:title=" ">
<path fill="none" stroke="#63b8ff" d="M956.17,-69.25C947.12,-59.24 935.44,-46.32 926.05,-35.92"/>
<polygon fill="#63b8ff" stroke="#63b8ff" points="928.82,-33.77 919.52,-28.69 923.62,-38.46 928.82,-33.77"/>
</a>
</g>
</g>
<!-- Node9 -->
<g id="Node000009" class="node">
<title>Node9</title>
<g id="a_Node000009"><a xlink:title=" ">
<polygon fill="#e0e0e0" stroke="#999999" points="1076.25,-27.12 989,-27.12 989,-6.38 1076.25,-6.38 1076.25,-27.12"/>
<text text-anchor="middle" x="1032.62" y="-13.62" font-family="Helvetica,sans-Serif" font-size="10.00">mlir/IR/Value.h</text>
</a>
</g>
</g>
<!-- Node1&#45;&gt;Node9 -->
<g id="edge8_Node000001_Node000009" class="edge">
<title>Node1&#45;&gt;Node9</title>
<g id="a_edge8_Node000001_Node000009"><a xlink:title=" ">
<path fill="none" stroke="#63b8ff" d="M985.32,-69.25C994.51,-59.24 1006.38,-46.32 1015.93,-35.92"/>
<polygon fill="#63b8ff" stroke="#63b8ff" points="1018.39,-38.42 1022.58,-28.69 1013.24,-33.68 1018.39,-38.42"/>
</a>
</g>
</g>
<!-- Node10 -->
<g id="Node000010" class="node">
<title>Node10</title>
<g id="a_Node000010"><a xlink:title=" ">
<polygon fill="#e0e0e0" stroke="#999999" points="1261,-27.12 1094.25,-27.12 1094.25,-6.38 1261,-6.38 1261,-27.12"/>
<text text-anchor="middle" x="1177.62" y="-13.62" font-family="Helvetica,sans-Serif" font-size="10.00">mlir/Interfaces/CallInterfaces.h</text>
</a>
</g>
</g>
<!-- Node1&#45;&gt;Node10 -->
<g id="edge9_Node000001_Node000010" class="edge">
<title>Node1&#45;&gt;Node10</title>
<g id="a_edge9_Node000001_Node000010"><a xlink:title=" ">
<path fill="none" stroke="#63b8ff" d="M1020.21,-69.08C1055.78,-57.48 1103.13,-42.04 1136.58,-31.13"/>
<polygon fill="#63b8ff" stroke="#63b8ff" points="1137.5,-34.52 1145.92,-28.09 1135.33,-27.86 1137.5,-34.52"/>
</a>
</g>
</g>
<!-- Node11 -->
<g id="Node000011" class="node">
<title>Node11</title>
<g id="a_Node000011"><a xlink:title=" ">
<polygon fill="#e0e0e0" stroke="#999999" points="1428,-33.5 1279.25,-33.5 1279.25,0 1428,0 1428,-33.5"/>
<text text-anchor="start" x="1287.25" y="-20" font-family="Helvetica,sans-Serif" font-size="10.00">mlir/Interfaces/ControlFlow</text>
<text text-anchor="middle" x="1353.62" y="-7.25" font-family="Helvetica,sans-Serif" font-size="10.00">Interfaces.h</text>
</a>
</g>
</g>
<!-- Node1&#45;&gt;Node11 -->
<g id="edge10_Node000001_Node000011" class="edge">
<title>Node1&#45;&gt;Node11</title>
<g id="a_edge10_Node000001_Node000011"><a xlink:title=" ">
<path fill="none" stroke="#63b8ff" d="M1028.83,-75.42C1086.7,-65.6 1178.32,-49.89 1267.8,-33.82"/>
<polygon fill="#63b8ff" stroke="#63b8ff" points="1268.27,-37.29 1277.49,-32.07 1267.03,-30.4 1268.27,-37.29"/>
</a>
</g>
</g>
<!-- Node12 -->
<g id="Node000012" class="node">
<title>Node12</title>
<g id="a_Node000012"><a xlink:title=" ">
<polygon fill="#e0e0e0" stroke="#999999" points="1559.38,-27.12 1445.88,-27.12 1445.88,-6.38 1559.38,-6.38 1559.38,-27.12"/>
<text text-anchor="middle" x="1502.62" y="-13.62" font-family="Helvetica,sans-Serif" font-size="10.00">mlir/Support/LLVM.h</text>
</a>
</g>
</g>
<!-- Node1&#45;&gt;Node12 -->
<g id="edge11_Node000001_Node000012" class="edge">
<title>Node1&#45;&gt;Node12</title>
<g id="a_edge11_Node000001_Node000012"><a xlink:title=" ">
<path fill="none" stroke="#63b8ff" d="M1028.71,-81.12C1117.19,-74.31 1290.87,-58.88 1436.62,-33.5 1442.28,-32.51 1448.18,-31.33 1454.02,-30.07"/>
<polygon fill="#63b8ff" stroke="#63b8ff" points="1454.64,-33.51 1463.62,-27.89 1453.09,-26.69 1454.64,-33.51"/>
</a>
</g>
</g>
<!-- Node13 -->
<g id="Node000013" class="node">
<title>Node13</title>
<g id="a_Node000013"><a xlink:title=" ">
<polygon fill="#e0e0e0" stroke="#999999" points="1708,-27.12 1577.25,-27.12 1577.25,-6.38 1708,-6.38 1708,-27.12"/>
<text text-anchor="middle" x="1642.62" y="-13.62" font-family="Helvetica,sans-Serif" font-size="10.00">llvm/ADT/SmallVector.h</text>
</a>
</g>
</g>
<!-- Node1&#45;&gt;Node13 -->
<g id="edge12_Node000001_Node000013" class="edge">
<title>Node1&#45;&gt;Node13</title>
<g id="a_edge12_Node000001_Node000013"><a xlink:title=" ">
<path fill="none" stroke="#63b8ff" d="M1028.63,-82.61C1135.78,-77.21 1371.77,-62.85 1568.62,-33.5 1575.53,-32.47 1582.76,-31.19 1589.88,-29.81"/>
<polygon fill="#63b8ff" stroke="#63b8ff" points="1590.33,-33.29 1599.43,-27.87 1588.93,-26.43 1590.33,-33.29"/>
</a>
</g>
</g>
<!-- Node14 -->
<g id="Node000014" class="node">
<title>Node14</title>
<g id="a_Node000014"><a xlink:title=" ">
<polygon fill="#e0e0e0" stroke="#999999" points="1853.12,-27.12 1726.12,-27.12 1726.12,-6.38 1853.12,-6.38 1853.12,-27.12"/>
<text text-anchor="middle" x="1789.62" y="-13.62" font-family="Helvetica,sans-Serif" font-size="10.00">llvm/Support/Casting.h</text>
</a>
</g>
</g>
<!-- Node1&#45;&gt;Node14 -->
<g id="edge13_Node000001_Node000014" class="edge">
<title>Node1&#45;&gt;Node14</title>
<g id="a_edge13_Node000001_Node000014"><a xlink:title=" ">
<path fill="none" stroke="#63b8ff" d="M1028.96,-84.04C1155.04,-80.81 1462.12,-69.59 1716.62,-33.5 1723.45,-32.53 1730.59,-31.29 1737.62,-29.92"/>
<polygon fill="#63b8ff" stroke="#63b8ff" points="1738.31,-33.35 1747.4,-27.92 1736.9,-26.49 1738.31,-33.35"/>
</a>
</g>
</g>
<!-- Node15 -->
<g id="Node000015" class="node">
<title>Node15</title>
<g id="a_Node000015"><a xlink:title=" ">
<polygon fill="#e0e0e0" stroke="#999999" points="1939.88,-27.12 1871.38,-27.12 1871.38,-6.38 1939.88,-6.38 1939.88,-27.12"/>
<text text-anchor="middle" x="1905.62" y="-13.62" font-family="Helvetica,sans-Serif" font-size="10.00">type_traits</text>
</a>
</g>
</g>
<!-- Node1&#45;&gt;Node15 -->
<g id="edge14_Node000001_Node000015" class="edge">
<title>Node1&#45;&gt;Node15</title>
<g id="a_edge14_Node000001_Node000015"><a xlink:title=" ">
<path fill="none" stroke="#63b8ff" d="M1028.77,-84.1C1200.32,-80.34 1702.38,-66.74 1862.62,-33.5 1865.76,-32.85 1868.98,-32.01 1872.17,-31.07"/>
<polygon fill="#63b8ff" stroke="#63b8ff" points="1872.97,-34.49 1881.34,-28 1870.75,-27.85 1872.97,-34.49"/>
</a>
</g>
</g>
</g>
</svg>
