<?xml version="1.0" encoding="UTF-8" standalone="no"?>
<!DOCTYPE svg PUBLIC "-//W3C//DTD SVG 1.1//EN"
 "http://www.w3.org/Graphics/SVG/1.1/DTD/svg11.dtd">
<!-- Generated by graphviz version 12.2.1 (0)
 -->
<!-- Title: include/llzk/Analysis/SparseAnalysis.h Pages: 1 -->
<svg width="970pt" height="320pt"
 viewBox="0.00 0.00 970.12 319.50" xmlns="http://www.w3.org/2000/svg" xmlns:xlink="http://www.w3.org/1999/xlink">
<g id="graph0" class="graph" transform="scale(1 1) rotate(0) translate(4 315.5)">
<title>include/llzk/Analysis/SparseAnalysis.h</title>
<!-- Node1 -->
<g id="Node000001" class="node">
<title>Node1</title>
<g id="a_Node000001"><a xlink:title="This file implements sparse data&#45;flow analysis using the data&#45;flow analysis framework.">
<polygon fill="#999999" stroke="#666666" points="624,-311.5 508.25,-311.5 508.25,-278 624,-278 624,-311.5"/>
<text text-anchor="start" x="516.25" y="-298" font-family="Helvetica,sans-Serif" font-size="10.00">include/llzk/Analysis</text>
<text text-anchor="middle" x="566.12" y="-285.25" font-family="Helvetica,sans-Serif" font-size="10.00">/SparseAnalysis.h</text>
</a>
</g>
</g>
<!-- Node2 -->
<g id="Node000002" class="node">
<title>Node2</title>
<g id="a_Node000002"><a xlink:href="ConstraintDependencyGraph_8h.html" target="_top" xlink:title=" ">
<polygon fill="white" stroke="#666666" points="607.25,-172.5 439,-172.5 439,-139 607.25,-139 607.25,-172.5"/>
<text text-anchor="start" x="447" y="-159" font-family="Helvetica,sans-Serif" font-size="10.00">include/llzk/Analysis</text>
<text text-anchor="middle" x="523.12" y="-146.25" font-family="Helvetica,sans-Serif" font-size="10.00">/ConstraintDependencyGraph.h</text>
</a>
</g>
</g>
<!-- Node1&#45;&gt;Node2 -->
<g id="edge1_Node000001_Node000002" class="edge">
<title>Node1&#45;&gt;Node2</title>
<g id="a_edge1_Node000001_Node000002"><a xlink:title=" ">
<path fill="none" stroke="#63b8ff" d="M552.64,-267.54C548.87,-259.49 545.01,-250.51 542.12,-242 534.14,-218.45 528.59,-190.09 525.63,-172.74"/>
<polygon fill="#63b8ff" stroke="#63b8ff" points="549.45,-268.98 556.98,-276.44 555.74,-265.92 549.45,-268.98"/>
</a>
</g>
</g>
<!-- Node3 -->
<g id="Node000003" class="node">
<title>Node3</title>
<g id="a_Node000003"><a xlink:href="IntervalAnalysis_8h.html" target="_top" xlink:title=" ">
<polygon fill="white" stroke="#666666" points="236,-103 120.25,-103 120.25,-69.5 236,-69.5 236,-103"/>
<text text-anchor="start" x="128.25" y="-89.5" font-family="Helvetica,sans-Serif" font-size="10.00">include/llzk/Analysis</text>
<text text-anchor="middle" x="178.12" y="-76.75" font-family="Helvetica,sans-Serif" font-size="10.00">/IntervalAnalysis.h</text>
</a>
</g>
</g>
<!-- Node1&#45;&gt;Node3 -->
<g id="edge9_Node000001_Node000003" class="edge">
<title>Node1&#45;&gt;Node3</title>
<g id="a_edge9_Node000001_Node000003"><a xlink:title=" ">
<path fill="none" stroke="#63b8ff" d="M525.74,-272.26C447.68,-230.71 277.71,-140.25 208.43,-103.38"/>
<polygon fill="#63b8ff" stroke="#63b8ff" points="523.87,-275.23 534.34,-276.84 527.16,-269.05 523.87,-275.23"/>
</a>
</g>
</g>
<!-- Node10 -->
<g id="Node000010" class="node">
<title>Node10</title>
<g id="a_Node000010"><a xlink:href="SourceRefLattice_8h.html" target="_top" xlink:title=" ">
<polygon fill="white" stroke="#666666" points="667,-242 551.25,-242 551.25,-208.5 667,-208.5 667,-242"/>
<text text-anchor="start" x="559.25" y="-228.5" font-family="Helvetica,sans-Serif" font-size="10.00">include/llzk/Analysis</text>
<text text-anchor="middle" x="609.12" y="-215.75" font-family="Helvetica,sans-Serif" font-size="10.00">/SourceRefLattice.h</text>
</a>
</g>
</g>
<!-- Node1&#45;&gt;Node10 -->
<g id="edge10_Node000001_Node000010" class="edge">
<title>Node1&#45;&gt;Node10</title>
<g id="a_edge10_Node000001_Node000010"><a xlink:title=" ">
<path fill="none" stroke="#63b8ff" d="M582.33,-268.31C587.93,-259.52 594.04,-249.93 599.01,-242.13"/>
<polygon fill="#63b8ff" stroke="#63b8ff" points="579.55,-266.16 577.13,-276.48 585.45,-269.92 579.55,-266.16"/>
</a>
</g>
</g>
<!-- Node11 -->
<g id="Node000011" class="node">
<title>Node11</title>
<g id="a_Node000011"><a xlink:href="SparseAnalysis_8cpp.html" target="_top" xlink:title=" ">
<polygon fill="white" stroke="#666666" points="855,-235.62 685.25,-235.62 685.25,-214.88 855,-214.88 855,-235.62"/>
<text text-anchor="middle" x="770.12" y="-222.12" font-family="Helvetica,sans-Serif" font-size="10.00">lib/Analysis/SparseAnalysis.cpp</text>
</a>
</g>
</g>
<!-- Node1&#45;&gt;Node11 -->
<g id="edge14_Node000001_Node000011" class="edge">
<title>Node1&#45;&gt;Node11</title>
<g id="a_edge14_Node000001_Node000011"><a xlink:title=" ">
<path fill="none" stroke="#63b8ff" d="M625.83,-274C663.44,-261.55 710.37,-246.02 740.3,-236.12"/>
<polygon fill="#63b8ff" stroke="#63b8ff" points="624.82,-270.64 616.43,-277.11 627.02,-277.29 624.82,-270.64"/>
</a>
</g>
</g>
<!-- Node2&#45;&gt;Node3 -->
<g id="edge2_Node000002_Node000003" class="edge">
<title>Node2&#45;&gt;Node3</title>
<g id="a_edge2_Node000002_Node000003"><a xlink:title=" ">
<path fill="none" stroke="#63b8ff" d="M427.44,-138.08C373.73,-128.44 305.56,-115.72 245.12,-103 242.2,-102.38 239.21,-101.74 236.19,-101.08"/>
<polygon fill="#63b8ff" stroke="#63b8ff" points="426.73,-141.51 437.19,-139.82 427.96,-134.62 426.73,-141.51"/>
</a>
</g>
</g>
<!-- Node6 -->
<g id="Node000006" class="node">
<title>Node6</title>
<g id="a_Node000006"><a xlink:href="ConstraintDependencyGraph_8cpp.html" target="_top" xlink:title=" ">
<polygon fill="white" stroke="#666666" points="766.25,-103 580,-103 580,-69.5 766.25,-69.5 766.25,-103"/>
<text text-anchor="start" x="588" y="-89.5" font-family="Helvetica,sans-Serif" font-size="10.00">lib/Analysis/ConstraintDependency</text>
<text text-anchor="middle" x="673.12" y="-76.75" font-family="Helvetica,sans-Serif" font-size="10.00">Graph.cpp</text>
</a>
</g>
</g>
<!-- Node2&#45;&gt;Node6 -->
<g id="edge5_Node000002_Node000006" class="edge">
<title>Node2&#45;&gt;Node6</title>
<g id="a_edge5_Node000002_Node000006"><a xlink:title=" ">
<path fill="none" stroke="#63b8ff" d="M569.42,-133.92C591.25,-124.09 616.9,-112.55 637.23,-103.4"/>
<polygon fill="#63b8ff" stroke="#63b8ff" points="568.12,-130.67 560.43,-137.96 570.99,-137.05 568.12,-130.67"/>
</a>
</g>
</g>
<!-- Node7 -->
<g id="Node000007" class="node">
<title>Node7</title>
<g id="a_Node000007"><a xlink:href="ConstraintDependencyGraphPass_8cpp.html" target="_top" xlink:title="This file implements the &#45;llzk&#45;print&#45;constraint&#45;dependency&#45;graphs pass.">
<polygon fill="white" stroke="#666666" points="440.25,-103 254,-103 254,-69.5 440.25,-69.5 440.25,-103"/>
<text text-anchor="start" x="262" y="-89.5" font-family="Helvetica,sans-Serif" font-size="10.00">lib/Analysis/ConstraintDependency</text>
<text text-anchor="middle" x="347.12" y="-76.75" font-family="Helvetica,sans-Serif" font-size="10.00">GraphPass.cpp</text>
</a>
</g>
</g>
<!-- Node2&#45;&gt;Node7 -->
<g id="edge6_Node000002_Node000007" class="edge">
<title>Node2&#45;&gt;Node7</title>
<g id="a_edge6_Node000002_Node000007"><a xlink:title=" ">
<path fill="none" stroke="#63b8ff" d="M470.54,-134.58C444.56,-124.62 413.64,-112.76 389.24,-103.4"/>
<polygon fill="#63b8ff" stroke="#63b8ff" points="468.97,-137.73 479.56,-138.04 471.47,-131.19 468.97,-137.73"/>
</a>
</g>
</g>
<!-- Node8 -->
<g id="Node000008" class="node">
<title>Node8</title>
<g id="a_Node000008"><a xlink:href="SourceRefLattice_8cpp.html" target="_top" xlink:title=" ">
<polygon fill="white" stroke="#666666" points="962.12,-96.62 784.12,-96.62 784.12,-75.88 962.12,-75.88 962.12,-96.62"/>
<text text-anchor="middle" x="873.12" y="-83.12" font-family="Helvetica,sans-Serif" font-size="10.00">lib/Analysis/SourceRefLattice.cpp</text>
</a>
</g>
</g>
<!-- Node2&#45;&gt;Node8 -->
<g id="edge7_Node000002_Node000008" class="edge">
<title>Node2&#45;&gt;Node8</title>
<g id="a_edge7_Node000002_Node000008"><a xlink:title=" ">
<path fill="none" stroke="#63b8ff" d="M618.15,-136.42C683.82,-123.76 768.61,-107.41 821.95,-97.12"/>
<polygon fill="#63b8ff" stroke="#63b8ff" points="617.6,-132.97 608.44,-138.3 618.93,-139.84 617.6,-132.97"/>
</a>
</g>
</g>
<!-- Node9 -->
<g id="Node000009" class="node">
<title>Node9</title>
<g id="a_Node000009"><a xlink:href="Verif_2IR_2Ops_8cpp.html" target="_top" xlink:title=" ">
<polygon fill="white" stroke="#666666" points="562,-103 458.25,-103 458.25,-69.5 562,-69.5 562,-103"/>
<text text-anchor="start" x="466.25" y="-89.5" font-family="Helvetica,sans-Serif" font-size="10.00">lib/Dialect/Verif/IR</text>
<text text-anchor="middle" x="510.12" y="-76.75" font-family="Helvetica,sans-Serif" font-size="10.00">/Ops.cpp</text>
</a>
</g>
</g>
<!-- Node2&#45;&gt;Node9 -->
<g id="edge8_Node000002_Node000009" class="edge">
<title>Node2&#45;&gt;Node9</title>
<g id="a_edge8_Node000002_Node000009"><a xlink:title=" ">
<path fill="none" stroke="#63b8ff" d="M517.9,-127.6C516.3,-119.29 514.59,-110.43 513.18,-103.13"/>
<polygon fill="#63b8ff" stroke="#63b8ff" points="514.43,-128.11 519.76,-137.27 521.3,-126.79 514.43,-128.11"/>
</a>
</g>
</g>
<!-- Node4 -->
<g id="Node000004" class="node">
<title>Node4</title>
<g id="a_Node000004"><a xlink:href="IntervalAnalysis_8cpp.html" target="_top" xlink:title=" ">
<polygon fill="white" stroke="#666666" points="174.25,-27.12 0,-27.12 0,-6.38 174.25,-6.38 174.25,-27.12"/>
<text text-anchor="middle" x="87.12" y="-13.62" font-family="Helvetica,sans-Serif" font-size="10.00">lib/Analysis/IntervalAnalysis.cpp</text>
</a>
</g>
</g>
<!-- Node3&#45;&gt;Node4 -->
<g id="edge3_Node000003_Node000004" class="edge">
<title>Node3&#45;&gt;Node4</title>
<g id="a_edge3_Node000003_Node000004"><a xlink:title=" ">
<path fill="none" stroke="#63b8ff" d="M147.51,-62.54C131.48,-50.65 112.68,-36.7 100.37,-27.57"/>
<polygon fill="#63b8ff" stroke="#63b8ff" points="145.23,-65.21 155.34,-68.35 149.4,-59.58 145.23,-65.21"/>
</a>
</g>
</g>
<!-- Node5 -->
<g id="Node000005" class="node">
<title>Node5</title>
<g id="a_Node000005"><a xlink:href="IntervalAnalysisPass_8cpp.html" target="_top" xlink:title="This file implements the &#45;llzk&#45;print&#45;interval&#45;analysis pass.">
<polygon fill="white" stroke="#666666" points="346.12,-33.5 192.12,-33.5 192.12,0 346.12,0 346.12,-33.5"/>
<text text-anchor="start" x="200.12" y="-20" font-family="Helvetica,sans-Serif" font-size="10.00">lib/Analysis/IntervalAnalysis</text>
<text text-anchor="middle" x="269.12" y="-7.25" font-family="Helvetica,sans-Serif" font-size="10.00">Pass.cpp</text>
</a>
</g>
</g>
<!-- Node3&#45;&gt;Node5 -->
<g id="edge4_Node000003_Node000005" class="edge">
<title>Node3&#45;&gt;Node5</title>
<g id="a_edge4_Node000003_Node000005"><a xlink:title=" ">
<path fill="none" stroke="#63b8ff" d="M208.57,-62.66C221.29,-53.23 235.78,-42.48 247.4,-33.87"/>
<polygon fill="#63b8ff" stroke="#63b8ff" points="206.85,-59.58 200.91,-68.35 211.02,-65.21 206.85,-59.58"/>
</a>
</g>
</g>
<!-- Node10&#45;&gt;Node2 -->
<g id="edge11_Node000010_Node000002" class="edge">
<title>Node10&#45;&gt;Node2</title>
<g id="a_edge11_Node000010_Node000002"><a xlink:title=" ">
<path fill="none" stroke="#63b8ff" d="M580,-201.39C568.06,-192.02 554.53,-181.4 543.66,-172.87"/>
<polygon fill="#63b8ff" stroke="#63b8ff" points="577.53,-203.9 587.55,-207.32 581.85,-198.39 577.53,-203.9"/>
</a>
</g>
</g>
<!-- Node10&#45;&gt;Node6 -->
<g id="edge12_Node000010_Node000006" class="edge">
<title>Node10&#45;&gt;Node6</title>
<g id="a_edge12_Node000010_Node000006"><a xlink:title=" ">
<path fill="none" stroke="#63b8ff" d="M621.39,-198C634.49,-169.94 654.85,-126.38 665.71,-103.13"/>
<polygon fill="#63b8ff" stroke="#63b8ff" points="618.29,-196.35 617.23,-206.89 624.64,-199.32 618.29,-196.35"/>
</a>
</g>
</g>
<!-- Node10&#45;&gt;Node8 -->
<g id="edge13_Node000010_Node000008" class="edge">
<title>Node10&#45;&gt;Node8</title>
<g id="a_edge13_Node000010_Node000008"><a xlink:title=" ">
<path fill="none" stroke="#63b8ff" d="M650.13,-202.97C708.22,-172.83 812.11,-118.91 854.42,-96.96"/>
<polygon fill="#63b8ff" stroke="#63b8ff" points="648.79,-199.72 641.53,-207.43 652.02,-205.93 648.79,-199.72"/>
</a>
</g>
</g>
</g>
</svg>
