<?xml version="1.0" encoding="UTF-8" standalone="no"?>
<!DOCTYPE svg PUBLIC "-//W3C//DTD SVG 1.1//EN"
 "http://www.w3.org/Graphics/SVG/1.1/DTD/svg11.dtd">
<!-- Generated by graphviz version 12.2.1 (0)
 -->
<!-- Title: include/llzk/Transforms/SpecializedMemoryPasses.h Pages: 1 -->
<svg width="1585pt" height="111pt"
 viewBox="0.00 0.00 1584.88 111.00" xmlns="http://www.w3.org/2000/svg" xmlns:xlink="http://www.w3.org/1999/xlink">
<g id="graph0" class="graph" transform="scale(1 1) rotate(0) translate(4 107)">
<title>include/llzk/Transforms/SpecializedMemoryPasses.h</title>
<!-- Node1 -->
<g id="Node000001" class="node">
<title>Node1</title>
<g id="a_Node000001"><a xlink:title="Provides SpecializedSROA&lt;AllocOpTy&gt; and SpecializedMem2Reg&lt;AllocOpTy&gt;: pass templates that replicate ...">
<polygon fill="#999999" stroke="#666666" points="828,-103 671,-103 671,-69.5 828,-69.5 828,-103"/>
<text text-anchor="start" x="679" y="-89.5" font-family="Helvetica,sans-Serif" font-size="10.00">include/llzk/Transforms</text>
<text text-anchor="middle" x="749.5" y="-76.75" font-family="Helvetica,sans-Serif" font-size="10.00">/SpecializedMemoryPasses.h</text>
</a>
</g>
</g>
<!-- Node2 -->
<g id="Node000002" class="node">
<title>Node2</title>
<g id="a_Node000002"><a xlink:title=" ">
<polygon fill="#e0e0e0" stroke="#999999" points="139,-33.5 0,-33.5 0,0 139,0 139,-33.5"/>
<text text-anchor="start" x="8" y="-20" font-family="Helvetica,sans-Serif" font-size="10.00">mlir/Analysis/DataLayout</text>
<text text-anchor="middle" x="69.5" y="-7.25" font-family="Helvetica,sans-Serif" font-size="10.00">Analysis.h</text>
</a>
</g>
</g>
<!-- Node1&#45;&gt;Node2 -->
<g id="edge1_Node000001_Node000002" class="edge">
<title>Node1&#45;&gt;Node2</title>
<g id="a_edge1_Node000001_Node000002"><a xlink:title=" ">
<path fill="none" stroke="#63b8ff" d="M670.77,-81.34C557.67,-75.09 342.54,-60.83 150.34,-33.81"/>
<polygon fill="#63b8ff" stroke="#63b8ff" points="151.06,-30.38 140.67,-32.44 150.08,-37.31 151.06,-30.38"/>
</a>
</g>
</g>
<!-- Node3 -->
<g id="Node000003" class="node">
<title>Node3</title>
<g id="a_Node000003"><a xlink:title=" ">
<polygon fill="#e0e0e0" stroke="#999999" points="264.25,-33.5 156.75,-33.5 156.75,0 264.25,0 264.25,-33.5"/>
<text text-anchor="start" x="164.75" y="-20" font-family="Helvetica,sans-Serif" font-size="10.00">mlir/Dialect/SCF/IR</text>
<text text-anchor="middle" x="210.5" y="-7.25" font-family="Helvetica,sans-Serif" font-size="10.00">/SCF.h</text>
</a>
</g>
</g>
<!-- Node1&#45;&gt;Node3 -->
<g id="edge2_Node000001_Node000003" class="edge">
<title>Node1&#45;&gt;Node3</title>
<g id="a_edge2_Node000001_Node000003"><a xlink:title=" ">
<path fill="none" stroke="#63b8ff" d="M670.7,-80C578.31,-73.1 420.47,-59 275.96,-33.79"/>
<polygon fill="#63b8ff" stroke="#63b8ff" points="276.64,-30.36 266.19,-32.06 275.42,-37.25 276.64,-30.36"/>
</a>
</g>
</g>
<!-- Node4 -->
<g id="Node000004" class="node">
<title>Node4</title>
<g id="a_Node000004"><a xlink:title=" ">
<polygon fill="#e0e0e0" stroke="#999999" points="382.5,-27.12 282.5,-27.12 282.5,-6.38 382.5,-6.38 382.5,-27.12"/>
<text text-anchor="middle" x="332.5" y="-13.62" font-family="Helvetica,sans-Serif" font-size="10.00">mlir/IR/Builders.h</text>
</a>
</g>
</g>
<!-- Node1&#45;&gt;Node4 -->
<g id="edge3_Node000001_Node000004" class="edge">
<title>Node1&#45;&gt;Node4</title>
<g id="a_edge3_Node000001_Node000004"><a xlink:title=" ">
<path fill="none" stroke="#63b8ff" d="M670.82,-76.57C597.98,-67.9 486.85,-53.05 391.5,-33.5 386.94,-32.57 382.22,-31.49 377.51,-30.35"/>
<polygon fill="#63b8ff" stroke="#63b8ff" points="378.68,-27.03 368.12,-27.97 376.96,-33.82 378.68,-27.03"/>
</a>
</g>
</g>
<!-- Node5 -->
<g id="Node000005" class="node">
<title>Node5</title>
<g id="a_Node000005"><a xlink:title=" ">
<polygon fill="#e0e0e0" stroke="#999999" points="516.38,-27.12 400.62,-27.12 400.62,-6.38 516.38,-6.38 516.38,-27.12"/>
<text text-anchor="middle" x="458.5" y="-13.62" font-family="Helvetica,sans-Serif" font-size="10.00">mlir/IR/Dominance.h</text>
</a>
</g>
</g>
<!-- Node1&#45;&gt;Node5 -->
<g id="edge4_Node000001_Node000005" class="edge">
<title>Node1&#45;&gt;Node5</title>
<g id="a_edge4_Node000001_Node000005"><a xlink:title=" ">
<path fill="none" stroke="#63b8ff" d="M678.86,-69C634.76,-58.84 576.81,-45.46 525.5,-33.5 520.92,-32.43 516.16,-31.32 511.39,-30.2"/>
<polygon fill="#63b8ff" stroke="#63b8ff" points="512.32,-26.83 501.78,-27.95 510.72,-33.64 512.32,-26.83"/>
</a>
</g>
</g>
<!-- Node6 -->
<g id="Node000006" class="node">
<title>Node6</title>
<g id="a_Node000006"><a xlink:title=" ">
<polygon fill="#e0e0e0" stroke="#999999" points="684.25,-33.5 534.75,-33.5 534.75,0 684.25,0 684.25,-33.5"/>
<text text-anchor="start" x="542.75" y="-20" font-family="Helvetica,sans-Serif" font-size="10.00">mlir/Interfaces/MemorySlot</text>
<text text-anchor="middle" x="609.5" y="-7.25" font-family="Helvetica,sans-Serif" font-size="10.00">Interfaces.h</text>
</a>
</g>
</g>
<!-- Node1&#45;&gt;Node6 -->
<g id="edge5_Node000001_Node000006" class="edge">
<title>Node1&#45;&gt;Node6</title>
<g id="a_edge5_Node000001_Node000006"><a xlink:title=" ">
<path fill="none" stroke="#63b8ff" d="M715.97,-69.08C697.09,-59.98 673.31,-48.52 653.01,-38.73"/>
<polygon fill="#63b8ff" stroke="#63b8ff" points="654.65,-35.63 644.12,-34.44 651.61,-41.94 654.65,-35.63"/>
</a>
</g>
</g>
<!-- Node7 -->
<g id="Node000007" class="node">
<title>Node7</title>
<g id="a_Node000007"><a xlink:title=" ">
<polygon fill="#e0e0e0" stroke="#999999" points="796.5,-27.12 702.5,-27.12 702.5,-6.38 796.5,-6.38 796.5,-27.12"/>
<text text-anchor="middle" x="749.5" y="-13.62" font-family="Helvetica,sans-Serif" font-size="10.00">mlir/Pass/Pass.h</text>
</a>
</g>
</g>
<!-- Node1&#45;&gt;Node7 -->
<g id="edge6_Node000001_Node000007" class="edge">
<title>Node1&#45;&gt;Node7</title>
<g id="a_edge6_Node000001_Node000007"><a xlink:title=" ">
<path fill="none" stroke="#63b8ff" d="M749.5,-69.25C749.5,-60.15 749.5,-48.64 749.5,-38.82"/>
<polygon fill="#63b8ff" stroke="#63b8ff" points="753,-39.09 749.5,-29.09 746,-39.09 753,-39.09"/>
</a>
</g>
</g>
<!-- Node8 -->
<g id="Node000008" class="node">
<title>Node8</title>
<g id="a_Node000008"><a xlink:title=" ">
<polygon fill="#e0e0e0" stroke="#999999" points="950.5,-27.12 814.5,-27.12 814.5,-6.38 950.5,-6.38 950.5,-27.12"/>
<text text-anchor="middle" x="882.5" y="-13.62" font-family="Helvetica,sans-Serif" font-size="10.00">mlir/Pass/PassManager.h</text>
</a>
</g>
</g>
<!-- Node1&#45;&gt;Node8 -->
<g id="edge7_Node000001_Node000008" class="edge">
<title>Node1&#45;&gt;Node8</title>
<g id="a_edge7_Node000001_Node000008"><a xlink:title=" ">
<path fill="none" stroke="#63b8ff" d="M781.36,-69.08C803.18,-58 831.92,-43.42 853.18,-32.63"/>
<polygon fill="#63b8ff" stroke="#63b8ff" points="854.56,-35.85 861.9,-28.21 851.4,-29.61 854.56,-35.85"/>
</a>
</g>
</g>
<!-- Node9 -->
<g id="Node000009" class="node">
<title>Node9</title>
<g id="a_Node000009"><a xlink:title=" ">
<polygon fill="#e0e0e0" stroke="#999999" points="1122.5,-27.12 968.5,-27.12 968.5,-6.38 1122.5,-6.38 1122.5,-27.12"/>
<text text-anchor="middle" x="1045.5" y="-13.62" font-family="Helvetica,sans-Serif" font-size="10.00">mlir/Transforms/Mem2Reg.h</text>
</a>
</g>
</g>
<!-- Node1&#45;&gt;Node9 -->
<g id="edge8_Node000001_Node000009" class="edge">
<title>Node1&#45;&gt;Node9</title>
<g id="a_edge8_Node000001_Node000009"><a xlink:title=" ">
<path fill="none" stroke="#63b8ff" d="M820.4,-69.08C872.81,-57.13 943.12,-41.1 991.12,-30.15"/>
<polygon fill="#63b8ff" stroke="#63b8ff" points="991.77,-33.59 1000.74,-27.96 990.22,-26.77 991.77,-33.59"/>
</a>
</g>
</g>
<!-- Node10 -->
<g id="Node000010" class="node">
<title>Node10</title>
<g id="a_Node000010"><a xlink:title=" ">
<polygon fill="#e0e0e0" stroke="#999999" points="1278.25,-27.12 1140.75,-27.12 1140.75,-6.38 1278.25,-6.38 1278.25,-27.12"/>
<text text-anchor="middle" x="1209.5" y="-13.62" font-family="Helvetica,sans-Serif" font-size="10.00">mlir/Transforms/Passes.h</text>
</a>
</g>
</g>
<!-- Node1&#45;&gt;Node10 -->
<g id="edge9_Node000001_Node000010" class="edge">
<title>Node1&#45;&gt;Node10</title>
<g id="a_edge9_Node000001_Node000010"><a xlink:title=" ">
<path fill="none" stroke="#63b8ff" d="M828.37,-76.07C905.77,-66.72 1027.06,-51.1 1131.5,-33.5 1138.21,-32.37 1145.23,-31.09 1152.19,-29.76"/>
<polygon fill="#63b8ff" stroke="#63b8ff" points="1152.77,-33.21 1161.91,-27.86 1151.43,-26.34 1152.77,-33.21"/>
</a>
</g>
</g>
<!-- Node11 -->
<g id="Node000011" class="node">
<title>Node11</title>
<g id="a_Node000011"><a xlink:title=" ">
<polygon fill="#e0e0e0" stroke="#999999" points="1428.25,-27.12 1296.75,-27.12 1296.75,-6.38 1428.25,-6.38 1428.25,-27.12"/>
<text text-anchor="middle" x="1362.5" y="-13.62" font-family="Helvetica,sans-Serif" font-size="10.00">mlir/Transforms/SROA.h</text>
</a>
</g>
</g>
<!-- Node1&#45;&gt;Node11 -->
<g id="edge10_Node000001_Node000011" class="edge">
<title>Node1&#45;&gt;Node11</title>
<g id="a_edge10_Node000001_Node000011"><a xlink:title=" ">
<path fill="none" stroke="#63b8ff" d="M828.24,-80.43C933.37,-73.36 1125.17,-58.27 1287.5,-33.5 1294.41,-32.45 1301.63,-31.16 1308.76,-29.79"/>
<polygon fill="#63b8ff" stroke="#63b8ff" points="1309.21,-33.27 1318.33,-27.87 1307.84,-26.4 1309.21,-33.27"/>
</a>
</g>
</g>
<!-- Node12 -->
<g id="Node000012" class="node">
<title>Node12</title>
<g id="a_Node000012"><a xlink:title=" ">
<polygon fill="#e0e0e0" stroke="#999999" points="1576.88,-27.12 1446.12,-27.12 1446.12,-6.38 1576.88,-6.38 1576.88,-27.12"/>
<text text-anchor="middle" x="1511.5" y="-13.62" font-family="Helvetica,sans-Serif" font-size="10.00">llvm/ADT/SmallVector.h</text>
</a>
</g>
</g>
<!-- Node1&#45;&gt;Node12 -->
<g id="edge11_Node000001_Node000012" class="edge">
<title>Node1&#45;&gt;Node12</title>
<g id="a_edge11_Node000001_Node000012"><a xlink:title=" ">
<path fill="none" stroke="#63b8ff" d="M828.29,-82.77C956.53,-77.97 1218.15,-64.95 1437.5,-33.5 1444.5,-32.5 1451.82,-31.22 1459.03,-29.83"/>
<polygon fill="#63b8ff" stroke="#63b8ff" points="1459.6,-33.28 1468.71,-27.87 1458.21,-26.42 1459.6,-33.28"/>
</a>
</g>
</g>
</g>
</svg>
