<?xml version="1.0" encoding="UTF-8" standalone="no"?>
<!DOCTYPE svg PUBLIC "-//W3C//DTD SVG 1.1//EN"
 "http://www.w3.org/Graphics/SVG/1.1/DTD/svg11.dtd">
<!-- Generated by graphviz version 12.2.1 (0)
 -->
<!-- Title: include/llzk/Transforms/SpecializedMemoryPasses.h Pages: 1 -->
<svg width="442pt" height="111pt"
 viewBox="0.00 0.00 441.88 111.00" xmlns="http://www.w3.org/2000/svg" xmlns:xlink="http://www.w3.org/1999/xlink">
<g id="graph0" class="graph" transform="scale(1 1) rotate(0) translate(4 107)">
<title>include/llzk/Transforms/SpecializedMemoryPasses.h</title>
<!-- Node1 -->
<g id="Node000001" class="node">
<title>Node1</title>
<g id="a_Node000001"><a xlink:title="Provides SpecializedSROA&lt;AllocOpTy&gt; and SpecializedMem2Reg&lt;AllocOpTy&gt;: pass templates that replicate ...">
<polygon fill="#999999" stroke="#666666" points="321.38,-103 164.38,-103 164.38,-69.5 321.38,-69.5 321.38,-103"/>
<text text-anchor="start" x="172.38" y="-89.5" font-family="Helvetica,sans-Serif" font-size="10.00">include/llzk/Transforms</text>
<text text-anchor="middle" x="242.88" y="-76.75" font-family="Helvetica,sans-Serif" font-size="10.00">/SpecializedMemoryPasses.h</text>
</a>
</g>
</g>
<!-- Node2 -->
<g id="Node000002" class="node">
<title>Node2</title>
<g id="a_Node000002"><a xlink:href="ArrayToScalarPass_8cpp.html" target="_top" xlink:title="This file implements the &#45;llzk&#45;array&#45;to&#45;scalar pass.">
<polygon fill="white" stroke="#666666" points="151.75,-33.5 0,-33.5 0,0 151.75,0 151.75,-33.5"/>
<text text-anchor="start" x="8" y="-20" font-family="Helvetica,sans-Serif" font-size="10.00">lib/Dialect/Array/Transforms</text>
<text text-anchor="middle" x="75.88" y="-7.25" font-family="Helvetica,sans-Serif" font-size="10.00">/ArrayToScalarPass.cpp</text>
</a>
</g>
</g>
<!-- Node1&#45;&gt;Node2 -->
<g id="edge1_Node000001_Node000002" class="edge">
<title>Node1&#45;&gt;Node2</title>
<g id="a_edge1_Node000001_Node000002"><a xlink:title=" ">
<path fill="none" stroke="#63b8ff" d="M192.32,-64.82C167.81,-54.91 138.78,-43.18 115.84,-33.9"/>
<polygon fill="#63b8ff" stroke="#63b8ff" points="190.89,-68.01 201.47,-68.51 193.51,-61.52 190.89,-68.01"/>
</a>
</g>
</g>
<!-- Node3 -->
<g id="Node000003" class="node">
<title>Node3</title>
<g id="a_Node000003"><a xlink:href="PodToScalarPass_8cpp.html" target="_top" xlink:title="This file implements the &#45;llzk&#45;pod&#45;to&#45;scalar pass.">
<polygon fill="white" stroke="#666666" points="316.12,-33.5 169.62,-33.5 169.62,0 316.12,0 316.12,-33.5"/>
<text text-anchor="start" x="177.62" y="-20" font-family="Helvetica,sans-Serif" font-size="10.00">lib/Dialect/POD/Transforms</text>
<text text-anchor="middle" x="242.88" y="-7.25" font-family="Helvetica,sans-Serif" font-size="10.00">/PodToScalarPass.cpp</text>
</a>
</g>
</g>
<!-- Node1&#45;&gt;Node3 -->
<g id="edge2_Node000001_Node000003" class="edge">
<title>Node1&#45;&gt;Node3</title>
<g id="a_edge2_Node000001_Node000003"><a xlink:title=" ">
<path fill="none" stroke="#63b8ff" d="M242.88,-57.81C242.88,-49.59 242.88,-40.84 242.88,-33.63"/>
<polygon fill="#63b8ff" stroke="#63b8ff" points="239.38,-57.74 242.88,-67.74 246.38,-57.74 239.38,-57.74"/>
</a>
</g>
</g>
<!-- Node4 -->
<g id="Node000004" class="node">
<title>Node4</title>
<g id="a_Node000004"><a xlink:href="llzk-opt_8cpp.html" target="_top" xlink:title="This file implements a version of the mlir&#45;opt tool configured for use on LLZK files.">
<polygon fill="white" stroke="#666666" points="433.88,-33.5 333.88,-33.5 333.88,0 433.88,0 433.88,-33.5"/>
<text text-anchor="start" x="341.88" y="-20" font-family="Helvetica,sans-Serif" font-size="10.00">tools/llzk&#45;opt/llzk</text>
<text text-anchor="middle" x="383.88" y="-7.25" font-family="Helvetica,sans-Serif" font-size="10.00">&#45;opt.cpp</text>
</a>
</g>
</g>
<!-- Node1&#45;&gt;Node4 -->
<g id="edge3_Node000001_Node000004" class="edge">
<title>Node1&#45;&gt;Node4</title>
<g id="a_edge3_Node000001_Node000004"><a xlink:title=" ">
<path fill="none" stroke="#63b8ff" d="M286.99,-64.13C307.47,-54.33 331.42,-42.86 350.38,-33.79"/>
<polygon fill="#63b8ff" stroke="#63b8ff" points="285.52,-60.95 278.01,-68.43 288.54,-67.27 285.52,-60.95"/>
</a>
</g>
</g>
</g>
</svg>
