<?xml version="1.0" encoding="UTF-8" standalone="no"?>
<!DOCTYPE svg PUBLIC "-//W3C//DTD SVG 1.1//EN"
 "http://www.w3.org/Graphics/SVG/1.1/DTD/svg11.dtd">
<!-- Generated by graphviz version 12.2.1 (0)
 -->
<!-- Title: include/llzk/Dialect/String/IR/Ops.h Pages: 1 -->
<svg width="381pt" height="111pt"
 viewBox="0.00 0.00 380.88 111.00" xmlns="http://www.w3.org/2000/svg" xmlns:xlink="http://www.w3.org/1999/xlink">
<g id="graph0" class="graph" transform="scale(1 1) rotate(0) translate(4 107)">
<title>include/llzk/Dialect/String/IR/Ops.h</title>
<!-- Node1 -->
<g id="Node000001" class="node">
<title>Node1</title>
<g id="a_Node000001"><a xlink:title=" ">
<polygon fill="#999999" stroke="#666666" points="263.88,-103 154.88,-103 154.88,-69.5 263.88,-69.5 263.88,-103"/>
<text text-anchor="start" x="162.88" y="-89.5" font-family="Helvetica,sans-Serif" font-size="10.00">include/llzk/Dialect</text>
<text text-anchor="middle" x="209.38" y="-76.75" font-family="Helvetica,sans-Serif" font-size="10.00">/String/IR/Ops.h</text>
</a>
</g>
</g>
<!-- Node2 -->
<g id="Node000002" class="node">
<title>Node2</title>
<g id="a_Node000002"><a xlink:href="String_8cpp.html" target="_top" xlink:title=" ">
<polygon fill="white" stroke="#666666" points="142.75,-27.12 0,-27.12 0,-6.38 142.75,-6.38 142.75,-27.12"/>
<text text-anchor="middle" x="71.38" y="-13.62" font-family="Helvetica,sans-Serif" font-size="10.00">lib/CAPI/Dialect/String.cpp</text>
</a>
</g>
</g>
<!-- Node1&#45;&gt;Node2 -->
<g id="edge1_Node000001_Node000002" class="edge">
<title>Node1&#45;&gt;Node2</title>
<g id="a_edge1_Node000001_Node000002"><a xlink:title=" ">
<path fill="none" stroke="#63b8ff" d="M165.98,-64.02C141,-51.81 110.8,-37.03 91.35,-27.52"/>
<polygon fill="#63b8ff" stroke="#63b8ff" points="164.44,-67.17 174.96,-68.42 167.52,-60.88 164.44,-67.17"/>
</a>
</g>
</g>
<!-- Node3 -->
<g id="Node000003" class="node">
<title>Node3</title>
<g id="a_Node000003"><a xlink:href="String_2IR_2Dialect_8cpp.html" target="_top" xlink:title=" ">
<polygon fill="white" stroke="#666666" points="257.88,-33.5 160.88,-33.5 160.88,0 257.88,0 257.88,-33.5"/>
<text text-anchor="start" x="168.88" y="-20" font-family="Helvetica,sans-Serif" font-size="10.00">lib/Dialect/String</text>
<text text-anchor="middle" x="209.38" y="-7.25" font-family="Helvetica,sans-Serif" font-size="10.00">/IR/Dialect.cpp</text>
</a>
</g>
</g>
<!-- Node1&#45;&gt;Node3 -->
<g id="edge2_Node000001_Node000003" class="edge">
<title>Node1&#45;&gt;Node3</title>
<g id="a_edge2_Node000001_Node000003"><a xlink:title=" ">
<path fill="none" stroke="#63b8ff" d="M209.38,-57.81C209.38,-49.59 209.38,-40.84 209.38,-33.63"/>
<polygon fill="#63b8ff" stroke="#63b8ff" points="205.88,-57.74 209.38,-67.74 212.88,-57.74 205.88,-57.74"/>
</a>
</g>
</g>
<!-- Node4 -->
<g id="Node000004" class="node">
<title>Node4</title>
<g id="a_Node000004"><a xlink:href="String_2IR_2Ops_8cpp.html" target="_top" xlink:title=" ">
<polygon fill="white" stroke="#666666" points="372.88,-33.5 275.88,-33.5 275.88,0 372.88,0 372.88,-33.5"/>
<text text-anchor="start" x="283.88" y="-20" font-family="Helvetica,sans-Serif" font-size="10.00">lib/Dialect/String</text>
<text text-anchor="middle" x="324.38" y="-7.25" font-family="Helvetica,sans-Serif" font-size="10.00">/IR/Ops.cpp</text>
</a>
</g>
</g>
<!-- Node1&#45;&gt;Node4 -->
<g id="edge3_Node000001_Node000004" class="edge">
<title>Node1&#45;&gt;Node4</title>
<g id="a_edge3_Node000001_Node000004"><a xlink:title=" ">
<path fill="none" stroke="#63b8ff" d="M246.74,-63.32C263.13,-53.7 282.01,-42.61 297.05,-33.79"/>
<polygon fill="#63b8ff" stroke="#63b8ff" points="245.08,-60.24 238.23,-68.32 248.62,-66.27 245.08,-60.24"/>
</a>
</g>
</g>
</g>
</svg>
