<?xml version="1.0" encoding="UTF-8" standalone="no"?>
<!DOCTYPE svg PUBLIC "-//W3C//DTD SVG 1.1//EN"
 "http://www.w3.org/Graphics/SVG/1.1/DTD/svg11.dtd">
<!-- Generated by graphviz version 12.2.1 (0)
 -->
<!-- Title: lib/Dialect/String/IR/Ops.cpp Pages: 1 -->
<svg width="493pt" height="320pt"
 viewBox="0.00 0.00 493.38 319.50" xmlns="http://www.w3.org/2000/svg" xmlns:xlink="http://www.w3.org/1999/xlink">
<g id="graph0" class="graph" transform="scale(1 1) rotate(0) translate(4 315.5)">
<title>lib/Dialect/String/IR/Ops.cpp</title>
<!-- Node1 -->
<g id="Node000001" class="node">
<title>Node1</title>
<g id="a_Node000001"><a xlink:title=" ">
<polygon fill="#999999" stroke="#666666" points="363.75,-311.5 266.75,-311.5 266.75,-278 363.75,-278 363.75,-311.5"/>
<text text-anchor="start" x="274.75" y="-298" font-family="Helvetica,sans-Serif" font-size="10.00">lib/Dialect/String</text>
<text text-anchor="middle" x="315.25" y="-285.25" font-family="Helvetica,sans-Serif" font-size="10.00">/IR/Ops.cpp</text>
</a>
</g>
</g>
<!-- Node2 -->
<g id="Node000002" class="node">
<title>Node2</title>
<g id="a_Node000002"><a xlink:href="String_2IR_2Ops_8h.html" target="_top" xlink:title=" ">
<polygon fill="white" stroke="#666666" points="247.38,-242 145.12,-242 145.12,-208.5 247.38,-208.5 247.38,-242"/>
<text text-anchor="start" x="153.12" y="-228.5" font-family="Helvetica,sans-Serif" font-size="10.00">llzk/Dialect/String</text>
<text text-anchor="middle" x="196.25" y="-215.75" font-family="Helvetica,sans-Serif" font-size="10.00">/IR/Ops.h</text>
</a>
</g>
</g>
<!-- Node1&#45;&gt;Node2 -->
<g id="edge1_Node000001_Node000002" class="edge">
<title>Node1&#45;&gt;Node2</title>
<g id="a_edge1_Node000001_Node000002"><a xlink:title=" ">
<path fill="none" stroke="#63b8ff" d="M286.75,-277.58C271,-268.65 251.23,-257.44 234.19,-247.77"/>
<polygon fill="#63b8ff" stroke="#63b8ff" points="236.26,-244.92 225.84,-243.03 232.81,-251.01 236.26,-244.92"/>
</a>
</g>
</g>
<!-- Node9 -->
<g id="Node000009" class="node">
<title>Node9</title>
<g id="a_Node000009"><a xlink:title=" ">
<polygon fill="#e0e0e0" stroke="#999999" points="365.25,-235.62 265.25,-235.62 265.25,-214.88 365.25,-214.88 365.25,-235.62"/>
<text text-anchor="middle" x="315.25" y="-222.12" font-family="Helvetica,sans-Serif" font-size="10.00">mlir/IR/Builders.h</text>
</a>
</g>
</g>
<!-- Node1&#45;&gt;Node9 -->
<g id="edge9_Node000001_Node000009" class="edge">
<title>Node1&#45;&gt;Node9</title>
<g id="a_edge9_Node000001_Node000009"><a xlink:title=" ">
<path fill="none" stroke="#63b8ff" d="M315.25,-277.75C315.25,-268.65 315.25,-257.14 315.25,-247.32"/>
<polygon fill="#63b8ff" stroke="#63b8ff" points="318.75,-247.59 315.25,-237.59 311.75,-247.59 318.75,-247.59"/>
</a>
</g>
</g>
<!-- Node10 -->
<g id="Node000010" class="node">
<title>Node10</title>
<g id="a_Node000010"><a xlink:href="String_2IR_2Ops_8cpp_8inc.html" target="_top" xlink:title=" ">
<polygon fill="white" stroke="#666666" points="485.38,-242 383.12,-242 383.12,-208.5 485.38,-208.5 485.38,-242"/>
<text text-anchor="start" x="391.12" y="-228.5" font-family="Helvetica,sans-Serif" font-size="10.00">llzk/Dialect/String</text>
<text text-anchor="middle" x="434.25" y="-215.75" font-family="Helvetica,sans-Serif" font-size="10.00">/IR/Ops.cpp.inc</text>
</a>
</g>
</g>
<!-- Node1&#45;&gt;Node10 -->
<g id="edge10_Node000001_Node000010" class="edge">
<title>Node1&#45;&gt;Node10</title>
<g id="a_edge10_Node000001_Node000010"><a xlink:title=" ">
<path fill="none" stroke="#63b8ff" d="M343.75,-277.58C359.5,-268.65 379.27,-257.44 396.31,-247.77"/>
<polygon fill="#63b8ff" stroke="#63b8ff" points="397.69,-251.01 404.66,-243.03 394.24,-244.92 397.69,-251.01"/>
</a>
</g>
</g>
<!-- Node3 -->
<g id="Node000003" class="node">
<title>Node3</title>
<g id="a_Node000003"><a xlink:href="String_2IR_2Dialect_8h.html" target="_top" xlink:title=" ">
<polygon fill="white" stroke="#666666" points="168.38,-103 66.12,-103 66.12,-69.5 168.38,-69.5 168.38,-103"/>
<text text-anchor="start" x="74.12" y="-89.5" font-family="Helvetica,sans-Serif" font-size="10.00">llzk/Dialect/String</text>
<text text-anchor="middle" x="117.25" y="-76.75" font-family="Helvetica,sans-Serif" font-size="10.00">/IR/Dialect.h</text>
</a>
</g>
</g>
<!-- Node2&#45;&gt;Node3 -->
<g id="edge2_Node000002_Node000003" class="edge">
<title>Node2&#45;&gt;Node3</title>
<g id="a_edge2_Node000002_Node000003"><a xlink:title=" ">
<path fill="none" stroke="#63b8ff" d="M170.92,-208.17C158.67,-199.13 144.8,-186.78 136.25,-172.5 125.75,-154.95 121.04,-132.23 118.93,-114.66"/>
<polygon fill="#63b8ff" stroke="#63b8ff" points="122.44,-114.57 118,-104.95 115.47,-115.24 122.44,-114.57"/>
</a>
</g>
</g>
<!-- Node6 -->
<g id="Node000006" class="node">
<title>Node6</title>
<g id="a_Node000006"><a xlink:href="String_2IR_2Types_8h.html" target="_top" xlink:title=" ">
<polygon fill="white" stroke="#666666" points="247.38,-172.5 145.12,-172.5 145.12,-139 247.38,-139 247.38,-172.5"/>
<text text-anchor="start" x="153.12" y="-159" font-family="Helvetica,sans-Serif" font-size="10.00">llzk/Dialect/String</text>
<text text-anchor="middle" x="196.25" y="-146.25" font-family="Helvetica,sans-Serif" font-size="10.00">/IR/Types.h</text>
</a>
</g>
</g>
<!-- Node2&#45;&gt;Node6 -->
<g id="edge5_Node000002_Node000006" class="edge">
<title>Node2&#45;&gt;Node6</title>
<g id="a_edge5_Node000002_Node000006"><a xlink:title=" ">
<path fill="none" stroke="#63b8ff" d="M196.25,-208.25C196.25,-201.02 196.25,-192.28 196.25,-184.06"/>
<polygon fill="#63b8ff" stroke="#63b8ff" points="199.75,-184.15 196.25,-174.15 192.75,-184.15 199.75,-184.15"/>
</a>
</g>
</g>
<!-- Node8 -->
<g id="Node000008" class="node">
<title>Node8</title>
<g id="a_Node000008"><a xlink:href="String_2IR_2Ops_8h_8inc.html" target="_top" xlink:title=" ">
<polygon fill="white" stroke="#666666" points="367.38,-172.5 265.12,-172.5 265.12,-139 367.38,-139 367.38,-172.5"/>
<text text-anchor="start" x="273.12" y="-159" font-family="Helvetica,sans-Serif" font-size="10.00">llzk/Dialect/String</text>
<text text-anchor="middle" x="316.25" y="-146.25" font-family="Helvetica,sans-Serif" font-size="10.00">/IR/Ops.h.inc</text>
</a>
</g>
</g>
<!-- Node2&#45;&gt;Node8 -->
<g id="edge8_Node000002_Node000008" class="edge">
<title>Node2&#45;&gt;Node8</title>
<g id="a_edge8_Node000002_Node000008"><a xlink:title=" ">
<path fill="none" stroke="#63b8ff" d="M224.99,-208.08C240.87,-199.15 260.81,-187.94 277.99,-178.27"/>
<polygon fill="#63b8ff" stroke="#63b8ff" points="279.42,-181.48 286.42,-173.53 275.99,-175.38 279.42,-181.48"/>
</a>
</g>
</g>
<!-- Node4 -->
<g id="Node000004" class="node">
<title>Node4</title>
<g id="a_Node000004"><a xlink:title=" ">
<polygon fill="#e0e0e0" stroke="#999999" points="110.5,-27.12 0,-27.12 0,-6.38 110.5,-6.38 110.5,-27.12"/>
<text text-anchor="middle" x="55.25" y="-13.62" font-family="Helvetica,sans-Serif" font-size="10.00">mlir/IR/BuiltinOps.h</text>
</a>
</g>
</g>
<!-- Node3&#45;&gt;Node4 -->
<g id="edge3_Node000003_Node000004" class="edge">
<title>Node3&#45;&gt;Node4</title>
<g id="a_edge3_Node000003_Node000004"><a xlink:title=" ">
<path fill="none" stroke="#63b8ff" d="M102.56,-69.25C93.36,-59.24 81.49,-46.32 71.94,-35.92"/>
<polygon fill="#63b8ff" stroke="#63b8ff" points="74.64,-33.68 65.3,-28.69 69.48,-38.42 74.64,-33.68"/>
</a>
</g>
</g>
<!-- Node5 -->
<g id="Node000005" class="node">
<title>Node5</title>
<g id="a_Node000005"><a xlink:href="String_2IR_2Dialect_8h_8inc.html" target="_top" xlink:title=" ">
<polygon fill="white" stroke="#666666" points="230.38,-33.5 128.12,-33.5 128.12,0 230.38,0 230.38,-33.5"/>
<text text-anchor="start" x="136.12" y="-20" font-family="Helvetica,sans-Serif" font-size="10.00">llzk/Dialect/String</text>
<text text-anchor="middle" x="179.25" y="-7.25" font-family="Helvetica,sans-Serif" font-size="10.00">/IR/Dialect.h.inc</text>
</a>
</g>
</g>
<!-- Node3&#45;&gt;Node5 -->
<g id="edge4_Node000003_Node000005" class="edge">
<title>Node3&#45;&gt;Node5</title>
<g id="a_edge4_Node000003_Node000005"><a xlink:title=" ">
<path fill="none" stroke="#63b8ff" d="M131.94,-69.25C139.43,-61.1 148.7,-51.01 157.04,-41.93"/>
<polygon fill="#63b8ff" stroke="#63b8ff" points="159.45,-44.48 163.64,-34.75 154.3,-39.74 159.45,-44.48"/>
</a>
</g>
</g>
<!-- Node6&#45;&gt;Node3 -->
<g id="edge6_Node000006_Node000003" class="edge">
<title>Node6&#45;&gt;Node3</title>
<g id="a_edge6_Node000006_Node000003"><a xlink:title=" ">
<path fill="none" stroke="#63b8ff" d="M177.53,-138.75C167.76,-130.41 155.62,-120.04 144.81,-110.8"/>
<polygon fill="#63b8ff" stroke="#63b8ff" points="147.14,-108.18 137.26,-104.35 142.59,-113.51 147.14,-108.18"/>
</a>
</g>
</g>
<!-- Node7 -->
<g id="Node000007" class="node">
<title>Node7</title>
<g id="a_Node000007"><a xlink:href="String_2IR_2Types_8h_8inc.html" target="_top" xlink:title=" ">
<polygon fill="white" stroke="#666666" points="288.38,-103 186.12,-103 186.12,-69.5 288.38,-69.5 288.38,-103"/>
<text text-anchor="start" x="194.12" y="-89.5" font-family="Helvetica,sans-Serif" font-size="10.00">llzk/Dialect/String</text>
<text text-anchor="middle" x="237.25" y="-76.75" font-family="Helvetica,sans-Serif" font-size="10.00">/IR/Types.h.inc</text>
</a>
</g>
</g>
<!-- Node6&#45;&gt;Node7 -->
<g id="edge7_Node000006_Node000007" class="edge">
<title>Node6&#45;&gt;Node7</title>
<g id="a_edge7_Node000006_Node000007"><a xlink:title=" ">
<path fill="none" stroke="#63b8ff" d="M205.97,-138.75C210.66,-131.02 216.42,-121.55 221.7,-112.84"/>
<polygon fill="#63b8ff" stroke="#63b8ff" points="224.62,-114.79 226.82,-104.43 218.63,-111.16 224.62,-114.79"/>
</a>
</g>
</g>
</g>
</svg>
