<?xml version="1.0" encoding="UTF-8" standalone="no"?>
<!DOCTYPE svg PUBLIC "-//W3C//DTD SVG 1.1//EN"
 "http://www.w3.org/Graphics/SVG/1.1/DTD/svg11.dtd">
<!-- Generated by graphviz version 12.2.1 (0)
 -->
<!-- Title: include/llzk&#45;c/Dialect/String.h Pages: 1 -->
<svg width="253pt" height="225pt"
 viewBox="0.00 0.00 252.71 224.50" xmlns="http://www.w3.org/2000/svg" xmlns:xlink="http://www.w3.org/1999/xlink">
<g id="graph0" class="graph" transform="scale(1 1) rotate(0) translate(4 220.5)">
<title>include/llzk&#45;c/Dialect/String.h</title>
<!-- Node1 -->
<g id="Node000001" class="node">
<title>Node1</title>
<g id="a_Node000001"><a xlink:title=" ">
<polygon fill="#999999" stroke="#666666" points="125.21,-216.5 7.21,-216.5 7.21,-183 125.21,-183 125.21,-216.5"/>
<text text-anchor="start" x="15.21" y="-203" font-family="Helvetica,sans-Serif" font-size="10.00">include/llzk&#45;c/Dialect</text>
<text text-anchor="middle" x="66.21" y="-190.25" font-family="Helvetica,sans-Serif" font-size="10.00">/String.h</text>
</a>
</g>
</g>
<!-- Node2 -->
<g id="Node000002" class="node">
<title>Node2</title>
<g id="a_Node000002"><a xlink:title=" ">
<polygon fill="#e0e0e0" stroke="#999999" points="79.34,-20.75 13.09,-20.75 13.09,0 79.34,0 79.34,-20.75"/>
<text text-anchor="middle" x="46.21" y="-7.25" font-family="Helvetica,sans-Serif" font-size="10.00">mlir&#45;c/IR.h</text>
</a>
</g>
</g>
<!-- Node1&#45;&gt;Node2 -->
<g id="edge1_Node000001_Node000002" class="edge">
<title>Node1&#45;&gt;Node2</title>
<g id="a_edge1_Node000001_Node000002"><a xlink:title=" ">
<path fill="none" stroke="#63b8ff" d="M38.6,-182.71C26.25,-173.91 12.97,-161.76 6.21,-147 -12.02,-107.2 14.56,-57.04 32.36,-30.26"/>
<polygon fill="#63b8ff" stroke="#63b8ff" points="35.17,-32.37 38,-22.16 29.42,-28.37 35.17,-32.37"/>
</a>
</g>
</g>
<!-- Node3 -->
<g id="Node000003" class="node">
<title>Node3</title>
<g id="a_Node000003"><a xlink:href="String_2IR_2Ops_8capi_8h_8inc.html" target="_top" xlink:title=" ">
<polygon fill="white" stroke="#666666" points="117.34,-147 15.09,-147 15.09,-113.5 117.34,-113.5 117.34,-147"/>
<text text-anchor="start" x="23.09" y="-133.5" font-family="Helvetica,sans-Serif" font-size="10.00">llzk/Dialect/String</text>
<text text-anchor="middle" x="66.21" y="-120.75" font-family="Helvetica,sans-Serif" font-size="10.00">/IR/Ops.capi.h.inc</text>
</a>
</g>
</g>
<!-- Node1&#45;&gt;Node3 -->
<g id="edge2_Node000001_Node000003" class="edge">
<title>Node1&#45;&gt;Node3</title>
<g id="a_edge2_Node000001_Node000003"><a xlink:title=" ">
<path fill="none" stroke="#63b8ff" d="M66.21,-182.75C66.21,-175.52 66.21,-166.78 66.21,-158.56"/>
<polygon fill="#63b8ff" stroke="#63b8ff" points="69.71,-158.65 66.21,-148.65 62.71,-158.65 69.71,-158.65"/>
</a>
</g>
</g>
<!-- Node6 -->
<g id="Node000006" class="node">
<title>Node6</title>
<g id="a_Node000006"><a xlink:href="String_2IR_2Types_8capi_8h_8inc.html" target="_top" xlink:title=" ">
<polygon fill="white" stroke="#666666" points="244.71,-147 135.71,-147 135.71,-113.5 244.71,-113.5 244.71,-147"/>
<text text-anchor="start" x="143.71" y="-133.5" font-family="Helvetica,sans-Serif" font-size="10.00">llzk/Dialect/String</text>
<text text-anchor="middle" x="190.21" y="-120.75" font-family="Helvetica,sans-Serif" font-size="10.00">/IR/Types.capi.h.inc</text>
</a>
</g>
</g>
<!-- Node1&#45;&gt;Node6 -->
<g id="edge7_Node000001_Node000006" class="edge">
<title>Node1&#45;&gt;Node6</title>
<g id="a_edge7_Node000001_Node000006"><a xlink:title=" ">
<path fill="none" stroke="#63b8ff" d="M95.91,-182.58C112.32,-173.65 132.92,-162.44 150.68,-152.77"/>
<polygon fill="#63b8ff" stroke="#63b8ff" points="152.31,-155.86 159.42,-148.01 148.97,-149.72 152.31,-155.86"/>
</a>
</g>
</g>
<!-- Node3&#45;&gt;Node2 -->
<g id="edge6_Node000003_Node000002" class="edge">
<title>Node3&#45;&gt;Node2</title>
<g id="a_edge6_Node000003_Node000002"><a xlink:title=" ">
<path fill="none" stroke="#63b8ff" d="M63.51,-113.35C59.97,-92.46 53.73,-55.71 49.8,-32.5"/>
<polygon fill="#63b8ff" stroke="#63b8ff" points="53.25,-31.95 48.13,-22.68 46.35,-33.12 53.25,-31.95"/>
</a>
</g>
</g>
<!-- Node4 -->
<g id="Node000004" class="node">
<title>Node4</title>
<g id="a_Node000004"><a xlink:href="llzk-c_2Builder_8h.html" target="_top" xlink:title=" ">
<polygon fill="white" stroke="#666666" points="162.21,-77.5 74.21,-77.5 74.21,-56.75 162.21,-56.75 162.21,-77.5"/>
<text text-anchor="middle" x="118.21" y="-64" font-family="Helvetica,sans-Serif" font-size="10.00">llzk&#45;c/Builder.h</text>
</a>
</g>
</g>
<!-- Node3&#45;&gt;Node4 -->
<g id="edge3_Node000003_Node000004" class="edge">
<title>Node3&#45;&gt;Node4</title>
<g id="a_edge3_Node000003_Node000004"><a xlink:title=" ">
<path fill="none" stroke="#63b8ff" d="M79.87,-113.19C86.78,-105.07 95.2,-95.17 102.39,-86.72"/>
<polygon fill="#63b8ff" stroke="#63b8ff" points="105.04,-89 108.86,-79.12 99.71,-84.47 105.04,-89"/>
</a>
</g>
</g>
<!-- Node4&#45;&gt;Node2 -->
<g id="edge4_Node000004_Node000002" class="edge">
<title>Node4&#45;&gt;Node2</title>
<g id="a_edge4_Node000004_Node000002"><a xlink:title=" ">
<path fill="none" stroke="#63b8ff" d="M105.34,-56.34C95,-48.47 80.24,-37.25 68.06,-27.99"/>
<polygon fill="#63b8ff" stroke="#63b8ff" points="70.26,-25.26 60.18,-21.99 66.02,-30.83 70.26,-25.26"/>
</a>
</g>
</g>
<!-- Node5 -->
<g id="Node000005" class="node">
<title>Node5</title>
<g id="a_Node000005"><a xlink:title=" ">
<polygon fill="#e0e0e0" stroke="#999999" points="191.21,-20.75 97.21,-20.75 97.21,0 191.21,0 191.21,-20.75"/>
<text text-anchor="middle" x="144.21" y="-7.25" font-family="Helvetica,sans-Serif" font-size="10.00">mlir&#45;c/Support.h</text>
</a>
</g>
</g>
<!-- Node4&#45;&gt;Node5 -->
<g id="edge5_Node000004_Node000005" class="edge">
<title>Node4&#45;&gt;Node5</title>
<g id="a_edge5_Node000004_Node000005"><a xlink:title=" ">
<path fill="none" stroke="#63b8ff" d="M122.86,-56.34C126.15,-49.41 130.68,-39.87 134.72,-31.36"/>
<polygon fill="#63b8ff" stroke="#63b8ff" points="137.83,-32.98 138.95,-22.45 131.5,-29.98 137.83,-32.98"/>
</a>
</g>
</g>
<!-- Node6&#45;&gt;Node2 -->
<g id="edge9_Node000006_Node000002" class="edge">
<title>Node6&#45;&gt;Node2</title>
<g id="a_edge9_Node000006_Node000002"><a xlink:title=" ">
<path fill="none" stroke="#63b8ff" d="M190.14,-113.1C189.2,-96.91 185.33,-72.23 171.21,-56.75 159.97,-44.43 121.61,-31.56 90.32,-22.69"/>
<polygon fill="#63b8ff" stroke="#63b8ff" points="91.63,-19.42 81.06,-20.13 89.76,-26.17 91.63,-19.42"/>
</a>
</g>
</g>
<!-- Node6&#45;&gt;Node4 -->
<g id="edge8_Node000006_Node000004" class="edge">
<title>Node6&#45;&gt;Node4</title>
<g id="a_edge8_Node000006_Node000004"><a xlink:title=" ">
<path fill="none" stroke="#63b8ff" d="M171.29,-113.19C161.21,-104.63 148.81,-94.1 138.52,-85.37"/>
<polygon fill="#63b8ff" stroke="#63b8ff" points="140.85,-82.75 130.96,-78.95 136.32,-88.09 140.85,-82.75"/>
</a>
</g>
</g>
</g>
</svg>
