<?xml version="1.0" encoding="UTF-8" standalone="no"?>
<!DOCTYPE svg PUBLIC "-//W3C//DTD SVG 1.1//EN"
 "http://www.w3.org/Graphics/SVG/1.1/DTD/svg11.dtd">
<!-- Generated by graphviz version 12.2.1 (0)
 -->
<!-- Title: include/llzk/Dialect/Struct/IR/Types.h Pages: 1 -->
<svg width="1845pt" height="237pt"
 viewBox="0.00 0.00 1844.75 237.25" xmlns="http://www.w3.org/2000/svg" xmlns:xlink="http://www.w3.org/1999/xlink">
<g id="graph0" class="graph" transform="scale(1 1) rotate(0) translate(4 233.25)">
<title>include/llzk/Dialect/Struct/IR/Types.h</title>
<!-- Node1 -->
<g id="Node000001" class="node">
<title>Node1</title>
<g id="a_Node000001"><a xlink:title=" ">
<polygon fill="#999999" stroke="#666666" points="1063.62,-229.25 954.62,-229.25 954.62,-195.75 1063.62,-195.75 1063.62,-229.25"/>
<text text-anchor="start" x="962.62" y="-215.75" font-family="Helvetica,sans-Serif" font-size="10.00">include/llzk/Dialect</text>
<text text-anchor="middle" x="1009.12" y="-203" font-family="Helvetica,sans-Serif" font-size="10.00">/Struct/IR/Types.h</text>
</a>
</g>
</g>
<!-- Node2 -->
<g id="Node000002" class="node">
<title>Node2</title>
<g id="a_Node000002"><a xlink:href="Struct_2IR_2Dialect_8h.html" target="_top" xlink:title=" ">
<polygon fill="white" stroke="#666666" points="226.25,-159.75 124,-159.75 124,-126.25 226.25,-126.25 226.25,-159.75"/>
<text text-anchor="start" x="132" y="-146.25" font-family="Helvetica,sans-Serif" font-size="10.00">llzk/Dialect/Struct</text>
<text text-anchor="middle" x="175.12" y="-133.5" font-family="Helvetica,sans-Serif" font-size="10.00">/IR/Dialect.h</text>
</a>
</g>
</g>
<!-- Node1&#45;&gt;Node2 -->
<g id="edge1_Node000001_Node000002" class="edge">
<title>Node1&#45;&gt;Node2</title>
<g id="a_edge1_Node000001_Node000002"><a xlink:title=" ">
<path fill="none" stroke="#63b8ff" d="M954.4,-207.07C805.83,-195.05 395.51,-161.84 237.91,-149.08"/>
<polygon fill="#63b8ff" stroke="#63b8ff" points="238.32,-145.6 228.07,-148.28 237.75,-152.58 238.32,-145.6"/>
</a>
</g>
</g>
<!-- Node5 -->
<g id="Node000005" class="node">
<title>Node5</title>
<g id="a_Node000005"><a xlink:href="SymbolLookup_8h.html" target="_top" xlink:title="This file defines methods symbol lookup across LLZK operations and included files.">
<polygon fill="white" stroke="#666666" points="614.5,-153.38 477.75,-153.38 477.75,-132.62 614.5,-132.62 614.5,-153.38"/>
<text text-anchor="middle" x="546.12" y="-139.88" font-family="Helvetica,sans-Serif" font-size="10.00">llzk/Util/SymbolLookup.h</text>
</a>
</g>
</g>
<!-- Node1&#45;&gt;Node5 -->
<g id="edge4_Node000001_Node000005" class="edge">
<title>Node1&#45;&gt;Node5</title>
<g id="a_edge4_Node000001_Node000005"><a xlink:title=" ">
<path fill="none" stroke="#63b8ff" d="M954.19,-203.49C872.48,-191.58 718.5,-169.13 624.83,-155.47"/>
<polygon fill="#63b8ff" stroke="#63b8ff" points="625.61,-152.05 615.21,-154.07 624.6,-158.98 625.61,-152.05"/>
</a>
</g>
</g>
<!-- Node13 -->
<g id="Node000013" class="node">
<title>Node13</title>
<g id="a_Node000013"><a xlink:href="TypeHelper_8h.html" target="_top" xlink:title=" ">
<polygon fill="white" stroke="#666666" points="1068.88,-153.38 949.38,-153.38 949.38,-132.62 1068.88,-132.62 1068.88,-153.38"/>
<text text-anchor="middle" x="1009.12" y="-139.88" font-family="Helvetica,sans-Serif" font-size="10.00">llzk/Util/TypeHelper.h</text>
</a>
</g>
</g>
<!-- Node1&#45;&gt;Node13 -->
<g id="edge13_Node000001_Node000013" class="edge">
<title>Node1&#45;&gt;Node13</title>
<g id="a_edge13_Node000001_Node000013"><a xlink:title=" ">
<path fill="none" stroke="#63b8ff" d="M1009.12,-195.5C1009.12,-186.4 1009.12,-174.89 1009.12,-165.07"/>
<polygon fill="#63b8ff" stroke="#63b8ff" points="1012.63,-165.34 1009.13,-155.34 1005.63,-165.34 1012.63,-165.34"/>
</a>
</g>
</g>
<!-- Node22 -->
<g id="Node000022" class="node">
<title>Node22</title>
<g id="a_Node000022"><a xlink:href="Struct_2IR_2Ops_8h_8inc.html" target="_top" xlink:title=" ">
<polygon fill="white" stroke="#666666" points="1189.25,-159.75 1087,-159.75 1087,-126.25 1189.25,-126.25 1189.25,-159.75"/>
<text text-anchor="start" x="1095" y="-146.25" font-family="Helvetica,sans-Serif" font-size="10.00">llzk/Dialect/Struct</text>
<text text-anchor="middle" x="1138.12" y="-133.5" font-family="Helvetica,sans-Serif" font-size="10.00">/IR/Ops.h.inc</text>
</a>
</g>
</g>
<!-- Node1&#45;&gt;Node22 -->
<g id="edge27_Node000001_Node000022" class="edge">
<title>Node1&#45;&gt;Node22</title>
<g id="a_edge27_Node000001_Node000022"><a xlink:title=" ">
<path fill="none" stroke="#63b8ff" d="M1040.02,-195.33C1057.26,-186.32 1078.93,-174.98 1097.52,-165.25"/>
<polygon fill="#63b8ff" stroke="#63b8ff" points="1098.9,-168.48 1106.14,-160.74 1095.65,-162.27 1098.9,-168.48"/>
</a>
</g>
</g>
<!-- Node23 -->
<g id="Node000023" class="node">
<title>Node23</title>
<g id="a_Node000023"><a xlink:href="Struct_2IR_2Types_8h_8inc.html" target="_top" xlink:title=" ">
<polygon fill="white" stroke="#666666" points="1309.25,-159.75 1207,-159.75 1207,-126.25 1309.25,-126.25 1309.25,-159.75"/>
<text text-anchor="start" x="1215" y="-146.25" font-family="Helvetica,sans-Serif" font-size="10.00">llzk/Dialect/Struct</text>
<text text-anchor="middle" x="1258.12" y="-133.5" font-family="Helvetica,sans-Serif" font-size="10.00">/IR/Types.h.inc</text>
</a>
</g>
</g>
<!-- Node1&#45;&gt;Node23 -->
<g id="edge28_Node000001_Node000023" class="edge">
<title>Node1&#45;&gt;Node23</title>
<g id="a_edge28_Node000001_Node000023"><a xlink:title=" ">
<path fill="none" stroke="#63b8ff" d="M1064.08,-196.6C1102.96,-186.06 1155.16,-171.91 1195.63,-160.94"/>
<polygon fill="#63b8ff" stroke="#63b8ff" points="1196.52,-164.33 1205.25,-158.33 1194.68,-157.57 1196.52,-164.33"/>
</a>
</g>
</g>
<!-- Node3 -->
<g id="Node000003" class="node">
<title>Node3</title>
<g id="a_Node000003"><a xlink:title=" ">
<polygon fill="#e0e0e0" stroke="#999999" points="230.38,-83.88 119.88,-83.88 119.88,-63.12 230.38,-63.12 230.38,-83.88"/>
<text text-anchor="middle" x="175.12" y="-70.38" font-family="Helvetica,sans-Serif" font-size="10.00">mlir/IR/BuiltinOps.h</text>
</a>
</g>
</g>
<!-- Node2&#45;&gt;Node3 -->
<g id="edge2_Node000002_Node000003" class="edge">
<title>Node2&#45;&gt;Node3</title>
<g id="a_edge2_Node000002_Node000003"><a xlink:title=" ">
<path fill="none" stroke="#63b8ff" d="M175.12,-126C175.12,-116.9 175.12,-105.39 175.12,-95.57"/>
<polygon fill="#63b8ff" stroke="#63b8ff" points="178.63,-95.84 175.13,-85.84 171.63,-95.84 178.63,-95.84"/>
</a>
</g>
</g>
<!-- Node4 -->
<g id="Node000004" class="node">
<title>Node4</title>
<g id="a_Node000004"><a xlink:href="Struct_2IR_2Dialect_8h_8inc.html" target="_top" xlink:title=" ">
<polygon fill="white" stroke="#666666" points="102.25,-90.25 0,-90.25 0,-56.75 102.25,-56.75 102.25,-90.25"/>
<text text-anchor="start" x="8" y="-76.75" font-family="Helvetica,sans-Serif" font-size="10.00">llzk/Dialect/Struct</text>
<text text-anchor="middle" x="51.12" y="-64" font-family="Helvetica,sans-Serif" font-size="10.00">/IR/Dialect.h.inc</text>
</a>
</g>
</g>
<!-- Node2&#45;&gt;Node4 -->
<g id="edge3_Node000002_Node000004" class="edge">
<title>Node2&#45;&gt;Node4</title>
<g id="a_edge3_Node000002_Node000004"><a xlink:title=" ">
<path fill="none" stroke="#63b8ff" d="M145.42,-125.83C129.01,-116.9 108.41,-105.69 90.66,-96.02"/>
<polygon fill="#63b8ff" stroke="#63b8ff" points="92.37,-92.97 81.91,-91.26 89.02,-99.11 92.37,-92.97"/>
</a>
</g>
</g>
<!-- Node5&#45;&gt;Node3 -->
<g id="edge6_Node000005_Node000003" class="edge">
<title>Node5&#45;&gt;Node3</title>
<g id="a_edge6_Node000005_Node000003"><a xlink:title=" ">
<path fill="none" stroke="#63b8ff" d="M482.6,-132.15C421.36,-122.41 326.15,-106.63 244.12,-90.25 238.83,-89.19 233.32,-88.03 227.83,-86.84"/>
<polygon fill="#63b8ff" stroke="#63b8ff" points="228.64,-83.44 218.12,-84.69 227.13,-90.27 228.64,-83.44"/>
</a>
</g>
</g>
<!-- Node6 -->
<g id="Node000006" class="node">
<title>Node6</title>
<g id="a_Node000006"><a xlink:href="llzk_2Util_2Constants_8h.html" target="_top" xlink:title=" ">
<polygon fill="white" stroke="#666666" points="465.25,-83.88 351,-83.88 351,-63.12 465.25,-63.12 465.25,-83.88"/>
<text text-anchor="middle" x="408.12" y="-70.38" font-family="Helvetica,sans-Serif" font-size="10.00">llzk/Util/Constants.h</text>
</a>
</g>
</g>
<!-- Node5&#45;&gt;Node6 -->
<g id="edge5_Node000005_Node000006" class="edge">
<title>Node5&#45;&gt;Node6</title>
<g id="a_edge5_Node000005_Node000006"><a xlink:title=" ">
<path fill="none" stroke="#63b8ff" d="M526.06,-132.18C503.06,-120.94 465.13,-102.38 438.51,-89.36"/>
<polygon fill="#63b8ff" stroke="#63b8ff" points="440.1,-86.24 429.58,-84.99 437.02,-92.53 440.1,-86.24"/>
</a>
</g>
</g>
<!-- Node7 -->
<g id="Node000007" class="node">
<title>Node7</title>
<g id="a_Node000007"><a xlink:title=" ">
<polygon fill="#e0e0e0" stroke="#999999" points="1167.25,-20.75 1059,-20.75 1059,0 1167.25,0 1167.25,-20.75"/>
<text text-anchor="middle" x="1113.12" y="-7.25" font-family="Helvetica,sans-Serif" font-size="10.00">mlir/IR/Operation.h</text>
</a>
</g>
</g>
<!-- Node5&#45;&gt;Node7 -->
<g id="edge7_Node000005_Node000007" class="edge">
<title>Node5&#45;&gt;Node7</title>
<g id="a_edge7_Node000005_Node000007"><a xlink:title=" ">
<path fill="none" stroke="#63b8ff" d="M560.5,-132.29C575.26,-122.18 598.74,-105.7 618.12,-90.25 635.73,-76.22 635.48,-65.74 656.12,-56.75 724.7,-26.89 938.2,-16.42 1047.39,-12.97"/>
<polygon fill="#63b8ff" stroke="#63b8ff" points="1047.17,-16.47 1057.06,-12.67 1046.96,-9.48 1047.17,-16.47"/>
</a>
</g>
</g>
<!-- Node8 -->
<g id="Node000008" class="node">
<title>Node8</title>
<g id="a_Node000008"><a xlink:title=" ">
<polygon fill="#e0e0e0" stroke="#999999" points="609.25,-83.88 483,-83.88 483,-63.12 609.25,-63.12 609.25,-83.88"/>
<text text-anchor="middle" x="546.12" y="-70.38" font-family="Helvetica,sans-Serif" font-size="10.00">mlir/IR/OwningOpRef.h</text>
</a>
</g>
</g>
<!-- Node5&#45;&gt;Node8 -->
<g id="edge8_Node000005_Node000008" class="edge">
<title>Node5&#45;&gt;Node8</title>
<g id="a_edge8_Node000005_Node000008"><a xlink:title=" ">
<path fill="none" stroke="#63b8ff" d="M546.12,-132.33C546.12,-122.71 546.12,-107.63 546.12,-95.29"/>
<polygon fill="#63b8ff" stroke="#63b8ff" points="549.63,-95.67 546.13,-85.67 542.63,-95.67 549.63,-95.67"/>
</a>
</g>
</g>
<!-- Node9 -->
<g id="Node000009" class="node">
<title>Node9</title>
<g id="a_Node000009"><a xlink:title=" ">
<polygon fill="#e0e0e0" stroke="#999999" points="915.62,-83.88 800.62,-83.88 800.62,-63.12 915.62,-63.12 915.62,-83.88"/>
<text text-anchor="middle" x="858.12" y="-70.38" font-family="Helvetica,sans-Serif" font-size="10.00">llvm/ADT/ArrayRef.h</text>
</a>
</g>
</g>
<!-- Node5&#45;&gt;Node9 -->
<g id="edge9_Node000005_Node000009" class="edge">
<title>Node5&#45;&gt;Node9</title>
<g id="a_edge9_Node000005_Node000009"><a xlink:title=" ">
<path fill="none" stroke="#63b8ff" d="M594.75,-132.17C644.44,-122.04 723.78,-105.59 792.12,-90.25 796.91,-89.18 801.88,-88.04 806.86,-86.88"/>
<polygon fill="#63b8ff" stroke="#63b8ff" points="807.27,-90.38 816.2,-84.68 805.67,-83.56 807.27,-90.38"/>
</a>
</g>
</g>
<!-- Node10 -->
<g id="Node000010" class="node">
<title>Node10</title>
<g id="a_Node000010"><a xlink:title=" ">
<polygon fill="#e0e0e0" stroke="#999999" points="782.75,-83.88 665.5,-83.88 665.5,-63.12 782.75,-63.12 782.75,-83.88"/>
<text text-anchor="middle" x="724.12" y="-70.38" font-family="Helvetica,sans-Serif" font-size="10.00">llvm/ADT/StringRef.h</text>
</a>
</g>
</g>
<!-- Node5&#45;&gt;Node10 -->
<g id="edge10_Node000005_Node000010" class="edge">
<title>Node5&#45;&gt;Node10</title>
<g id="a_edge10_Node000005_Node000010"><a xlink:title=" ">
<path fill="none" stroke="#63b8ff" d="M572.01,-132.18C602.46,-120.64 653.22,-101.39 687.65,-88.33"/>
<polygon fill="#63b8ff" stroke="#63b8ff" points="688.69,-91.68 696.8,-84.86 686.2,-85.14 688.69,-91.68"/>
</a>
</g>
</g>
<!-- Node11 -->
<g id="Node000011" class="node">
<title>Node11</title>
<g id="a_Node000011"><a xlink:title=" ">
<polygon fill="#e0e0e0" stroke="#999999" points="662.38,-20.75 611.88,-20.75 611.88,0 662.38,0 662.38,-20.75"/>
<text text-anchor="middle" x="637.12" y="-7.25" font-family="Helvetica,sans-Serif" font-size="10.00">variant</text>
</a>
</g>
</g>
<!-- Node5&#45;&gt;Node11 -->
<g id="edge11_Node000005_Node000011" class="edge">
<title>Node5&#45;&gt;Node11</title>
<g id="a_edge11_Node000005_Node000011"><a xlink:title=" ">
<path fill="none" stroke="#63b8ff" d="M477.31,-141.52C379.43,-138.54 218.07,-123.72 277.12,-56.75 298.29,-32.75 512.59,-18.27 600.15,-13.31"/>
<polygon fill="#63b8ff" stroke="#63b8ff" points="600.09,-16.82 609.88,-12.77 599.7,-9.83 600.09,-16.82"/>
</a>
</g>
</g>
<!-- Node12 -->
<g id="Node000012" class="node">
<title>Node12</title>
<g id="a_Node000012"><a xlink:title=" ">
<polygon fill="#e0e0e0" stroke="#999999" points="332.5,-83.88 285.75,-83.88 285.75,-63.12 332.5,-63.12 332.5,-83.88"/>
<text text-anchor="middle" x="309.12" y="-70.38" font-family="Helvetica,sans-Serif" font-size="10.00">vector</text>
</a>
</g>
</g>
<!-- Node5&#45;&gt;Node12 -->
<g id="edge12_Node000005_Node000012" class="edge">
<title>Node5&#45;&gt;Node12</title>
<g id="a_edge12_Node000005_Node000012"><a xlink:title=" ">
<path fill="none" stroke="#63b8ff" d="M495.83,-132.14C454.03,-123.25 393.32,-108.76 342.12,-90.25 340.96,-89.83 339.78,-89.38 338.6,-88.91"/>
<polygon fill="#63b8ff" stroke="#63b8ff" points="340,-85.71 329.43,-84.92 337.2,-92.12 340,-85.71"/>
</a>
</g>
</g>
<!-- Node13&#45;&gt;Node7 -->
<g id="edge22_Node000013_Node000007" class="edge">
<title>Node13&#45;&gt;Node7</title>
<g id="a_edge22_Node000013_Node000007"><a xlink:title=" ">
<path fill="none" stroke="#63b8ff" d="M1036.08,-132.15C1055.1,-123.83 1079.67,-110.07 1094.12,-90.25 1106.43,-73.38 1110.85,-49.61 1112.4,-32.58"/>
<polygon fill="#63b8ff" stroke="#63b8ff" points="1115.89,-32.8 1113.01,-22.6 1108.91,-32.37 1115.89,-32.8"/>
</a>
</g>
</g>
<!-- Node13&#45;&gt;Node9 -->
<g id="edge24_Node000013_Node000009" class="edge">
<title>Node13&#45;&gt;Node9</title>
<g id="a_edge24_Node000013_Node000009"><a xlink:title=" ">
<path fill="none" stroke="#63b8ff" d="M987.17,-132.18C961.78,-120.84 919.76,-102.05 890.59,-89.01"/>
<polygon fill="#63b8ff" stroke="#63b8ff" points="892.05,-85.83 881.49,-84.94 889.19,-92.22 892.05,-85.83"/>
</a>
</g>
</g>
<!-- Node13&#45;&gt;Node10 -->
<g id="edge26_Node000013_Node000010" class="edge">
<title>Node13&#45;&gt;Node10</title>
<g id="a_edge26_Node000013_Node000010"><a xlink:title=" ">
<path fill="none" stroke="#63b8ff" d="M967.68,-132.18C917.13,-120.21 831.62,-99.96 776.55,-86.92"/>
<polygon fill="#63b8ff" stroke="#63b8ff" points="777.63,-83.57 767.09,-84.68 776.01,-90.39 777.63,-83.57"/>
</a>
</g>
</g>
<!-- Node14 -->
<g id="Node000014" class="node">
<title>Node14</title>
<g id="a_Node000014"><a xlink:href="ErrorHelper_8h.html" target="_top" xlink:title=" ">
<polygon fill="white" stroke="#666666" points="1545.25,-83.88 1425,-83.88 1425,-63.12 1545.25,-63.12 1545.25,-83.88"/>
<text text-anchor="middle" x="1485.12" y="-70.38" font-family="Helvetica,sans-Serif" font-size="10.00">llzk/Util/ErrorHelper.h</text>
</a>
</g>
</g>
<!-- Node13&#45;&gt;Node14 -->
<g id="edge14_Node000013_Node000014" class="edge">
<title>Node13&#45;&gt;Node14</title>
<g id="a_edge14_Node000013_Node000014"><a xlink:title=" ">
<path fill="none" stroke="#63b8ff" d="M1048.37,-132.2C1058.06,-130.01 1068.43,-127.87 1078.12,-126.25 1226.7,-101.45 1266.51,-114.82 1415.12,-90.25 1421.19,-89.25 1427.52,-88.04 1433.79,-86.76"/>
<polygon fill="#63b8ff" stroke="#63b8ff" points="1434.41,-90.21 1443.45,-84.69 1432.94,-83.36 1434.41,-90.21"/>
</a>
</g>
</g>
<!-- Node19 -->
<g id="Node000019" class="node">
<title>Node19</title>
<g id="a_Node000019"><a xlink:title=" ">
<polygon fill="#e0e0e0" stroke="#999999" points="1085,-83.88 933.25,-83.88 933.25,-63.12 1085,-63.12 1085,-83.88"/>
<text text-anchor="middle" x="1009.12" y="-70.38" font-family="Helvetica,sans-Serif" font-size="10.00">mlir/IR/OpImplementation.h</text>
</a>
</g>
</g>
<!-- Node13&#45;&gt;Node19 -->
<g id="edge21_Node000013_Node000019" class="edge">
<title>Node13&#45;&gt;Node19</title>
<g id="a_edge21_Node000013_Node000019"><a xlink:title=" ">
<path fill="none" stroke="#63b8ff" d="M1009.12,-132.33C1009.12,-122.71 1009.12,-107.63 1009.12,-95.29"/>
<polygon fill="#63b8ff" stroke="#63b8ff" points="1012.63,-95.67 1009.13,-85.67 1005.63,-95.67 1012.63,-95.67"/>
</a>
</g>
</g>
<!-- Node20 -->
<g id="Node000020" class="node">
<title>Node20</title>
<g id="a_Node000020"><a xlink:title=" ">
<polygon fill="#e0e0e0" stroke="#999999" points="1263.38,-83.88 1140.88,-83.88 1140.88,-63.12 1263.38,-63.12 1263.38,-83.88"/>
<text text-anchor="middle" x="1202.12" y="-70.38" font-family="Helvetica,sans-Serif" font-size="10.00">mlir/IR/SymbolTable.h</text>
</a>
</g>
</g>
<!-- Node13&#45;&gt;Node20 -->
<g id="edge23_Node000013_Node000020" class="edge">
<title>Node13&#45;&gt;Node20</title>
<g id="a_edge23_Node000013_Node000020"><a xlink:title=" ">
<path fill="none" stroke="#63b8ff" d="M1037.19,-132.18C1070.49,-120.54 1126.2,-101.05 1163.54,-87.99"/>
<polygon fill="#63b8ff" stroke="#63b8ff" points="1164.31,-91.43 1172.6,-84.83 1162,-84.82 1164.31,-91.43"/>
</a>
</g>
</g>
<!-- Node21 -->
<g id="Node000021" class="node">
<title>Node21</title>
<g id="a_Node000021"><a xlink:title=" ">
<polygon fill="#e0e0e0" stroke="#999999" points="1406.5,-83.88 1281.75,-83.88 1281.75,-63.12 1406.5,-63.12 1406.5,-83.88"/>
<text text-anchor="middle" x="1344.12" y="-70.38" font-family="Helvetica,sans-Serif" font-size="10.00">llvm/ADT/DenseMap.h</text>
</a>
</g>
</g>
<!-- Node13&#45;&gt;Node21 -->
<g id="edge25_Node000013_Node000021" class="edge">
<title>Node13&#45;&gt;Node21</title>
<g id="a_edge25_Node000013_Node000021"><a xlink:title=" ">
<path fill="none" stroke="#63b8ff" d="M1051.03,-132.15C1059.96,-130.13 1069.34,-128.07 1078.12,-126.25 1164,-108.49 1186.17,-107.62 1272.12,-90.25 1277.7,-89.12 1283.52,-87.91 1289.32,-86.68"/>
<polygon fill="#63b8ff" stroke="#63b8ff" points="1289.86,-90.14 1298.91,-84.62 1288.39,-83.3 1289.86,-90.14"/>
</a>
</g>
</g>
<!-- Node14&#45;&gt;Node7 -->
<g id="edge16_Node000014_Node000007" class="edge">
<title>Node14&#45;&gt;Node7</title>
<g id="a_edge16_Node000014_Node000007"><a xlink:title=" ">
<path fill="none" stroke="#63b8ff" d="M1443.77,-62.68C1434.38,-60.59 1424.43,-58.49 1415.12,-56.75 1334.06,-41.56 1239.99,-28.08 1178.67,-19.83"/>
<polygon fill="#63b8ff" stroke="#63b8ff" points="1179.48,-16.41 1169.11,-18.56 1178.55,-23.35 1179.48,-16.41"/>
</a>
</g>
</g>
<!-- Node14&#45;&gt;Node11 -->
<g id="edge20_Node000014_Node000011" class="edge">
<title>Node14&#45;&gt;Node11</title>
<g id="a_edge20_Node000014_Node000011"><a xlink:title=" ">
<path fill="none" stroke="#63b8ff" d="M1446.82,-62.7C1436.58,-60.4 1425.49,-58.21 1415.12,-56.75 1132.03,-16.92 786.23,-11.93 674.11,-11.4"/>
<polygon fill="#63b8ff" stroke="#63b8ff" points="674.32,-7.9 664.31,-11.36 674.3,-14.9 674.32,-7.9"/>
</a>
</g>
</g>
<!-- Node15 -->
<g id="Node000015" class="node">
<title>Node15</title>
<g id="a_Node000015"><a xlink:title=" ">
<polygon fill="#e0e0e0" stroke="#999999" points="1647.75,-20.75 1530.5,-20.75 1530.5,0 1647.75,0 1647.75,-20.75"/>
<text text-anchor="middle" x="1589.12" y="-7.25" font-family="Helvetica,sans-Serif" font-size="10.00">mlir/IR/Diagnostics.h</text>
</a>
</g>
</g>
<!-- Node14&#45;&gt;Node15 -->
<g id="edge15_Node000014_Node000015" class="edge">
<title>Node14&#45;&gt;Node15</title>
<g id="a_edge15_Node000014_Node000015"><a xlink:title=" ">
<path fill="none" stroke="#63b8ff" d="M1501.83,-62.68C1518.21,-53.05 1543.43,-38.23 1562.55,-26.99"/>
<polygon fill="#63b8ff" stroke="#63b8ff" points="1564.3,-30.02 1571.15,-21.94 1560.76,-23.99 1564.3,-30.02"/>
</a>
</g>
</g>
<!-- Node16 -->
<g id="Node000016" class="node">
<title>Node16</title>
<g id="a_Node000016"><a xlink:title=" ">
<polygon fill="#e0e0e0" stroke="#999999" points="1836.75,-20.75 1665.5,-20.75 1665.5,0 1836.75,0 1836.75,-20.75"/>
<text text-anchor="middle" x="1751.12" y="-7.25" font-family="Helvetica,sans-Serif" font-size="10.00">llvm/ADT/STLFunctionalExtras.h</text>
</a>
</g>
</g>
<!-- Node14&#45;&gt;Node16 -->
<g id="edge17_Node000014_Node000016" class="edge">
<title>Node14&#45;&gt;Node16</title>
<g id="a_edge17_Node000014_Node000016"><a xlink:title=" ">
<path fill="none" stroke="#63b8ff" d="M1527.86,-62.68C1574.01,-52.07 1647.61,-35.16 1697.58,-23.68"/>
<polygon fill="#63b8ff" stroke="#63b8ff" points="1698.06,-27.16 1707.02,-21.51 1696.49,-20.34 1698.06,-27.16"/>
</a>
</g>
</g>
<!-- Node17 -->
<g id="Node000017" class="node">
<title>Node17</title>
<g id="a_Node000017"><a xlink:title=" ">
<polygon fill="#e0e0e0" stroke="#999999" points="1337.5,-20.75 1236.75,-20.75 1236.75,0 1337.5,0 1337.5,-20.75"/>
<text text-anchor="middle" x="1287.12" y="-7.25" font-family="Helvetica,sans-Serif" font-size="10.00">llvm/ADT/Twine.h</text>
</a>
</g>
</g>
<!-- Node14&#45;&gt;Node17 -->
<g id="edge18_Node000014_Node000017" class="edge">
<title>Node14&#45;&gt;Node17</title>
<g id="a_edge18_Node000014_Node000017"><a xlink:title=" ">
<path fill="none" stroke="#63b8ff" d="M1453.31,-62.68C1419.83,-52.34 1366.93,-36.01 1329.83,-24.56"/>
<polygon fill="#63b8ff" stroke="#63b8ff" points="1330.89,-21.22 1320.3,-21.62 1328.83,-27.91 1330.89,-21.22"/>
</a>
</g>
</g>
<!-- Node18 -->
<g id="Node000018" class="node">
<title>Node18</title>
<g id="a_Node000018"><a xlink:title=" ">
<polygon fill="#e0e0e0" stroke="#999999" points="1512.62,-20.75 1355.62,-20.75 1355.62,0 1512.62,0 1512.62,-20.75"/>
<text text-anchor="middle" x="1434.12" y="-7.25" font-family="Helvetica,sans-Serif" font-size="10.00">llvm/Support/ErrorHandling.h</text>
</a>
</g>
</g>
<!-- Node14&#45;&gt;Node18 -->
<g id="edge19_Node000014_Node000018" class="edge">
<title>Node14&#45;&gt;Node18</title>
<g id="a_edge19_Node000014_Node000018"><a xlink:title=" ">
<path fill="none" stroke="#63b8ff" d="M1476.93,-62.68C1469.53,-53.8 1458.44,-40.51 1449.4,-29.68"/>
<polygon fill="#63b8ff" stroke="#63b8ff" points="1452.19,-27.57 1443.1,-22.13 1446.82,-32.05 1452.19,-27.57"/>
</a>
</g>
</g>
</g>
</svg>
