<?xml version="1.0" encoding="UTF-8" standalone="no"?>
<!DOCTYPE svg PUBLIC "-//W3C//DTD SVG 1.1//EN"
 "http://www.w3.org/Graphics/SVG/1.1/DTD/svg11.dtd">
<!-- Generated by graphviz version 12.2.1 (0)
 -->
<!-- Title: YieldOpBuildFuncHelper Pages: 1 -->
<svg width="142pt" height="98pt"
 viewBox="0.00 0.00 141.75 98.25" xmlns="http://www.w3.org/2000/svg" xmlns:xlink="http://www.w3.org/1999/xlink">
<g id="graph0" class="graph" transform="scale(1 1) rotate(0) translate(4 94.25)">
<title>YieldOpBuildFuncHelper</title>
<!-- Node1 -->
<g id="Node000001" class="node">
<title>Node1</title>
<g id="a_Node000001"><a xlink:title=" ">
<polygon fill="#999999" stroke="#666666" points="133.38,-20.75 0.38,-20.75 0.38,0 133.38,0 133.38,-20.75"/>
<text text-anchor="middle" x="66.88" y="-7.25" font-family="Helvetica,sans-Serif" font-size="10.00">YieldOpBuildFuncHelper</text>
</a>
</g>
</g>
<!-- Node2 -->
<g id="Node000002" class="node">
<title>Node2</title>
<g id="a_Node000002"><a xlink:title=" ">
<polygon fill="white" stroke="#666666" points="133.75,-90.25 0,-90.25 0,-56.75 133.75,-56.75 133.75,-90.25"/>
<text text-anchor="start" x="8" y="-76.75" font-family="Helvetica,sans-Serif" font-size="10.00">TestAnyBuildFuncHelper</text>
<text text-anchor="middle" x="66.88" y="-64" font-family="Helvetica,sans-Serif" font-size="10.00">&lt; CAPITest &gt;</text>
</a>
</g>
</g>
<!-- Node2&#45;&gt;Node1 -->
<g id="edge1_Node000001_Node000002" class="edge">
<title>Node2&#45;&gt;Node1</title>
<g id="a_edge1_Node000001_Node000002"><a xlink:title=" ">
<path fill="none" stroke="#63b8ff" d="M60.16,-45.23C59.98,-36.66 60.51,-27.75 61.76,-21.22"/>
<polygon fill="#63b8ff" stroke="#63b8ff" points="56.65,-45.16 60.76,-54.93 63.64,-44.73 56.65,-45.16"/>
</a>
</g>
</g>
<!-- Node2&#45;&gt;Node1 -->
<g id="edge2_Node000001_Node000002" class="edge">
<title>Node2&#45;&gt;Node1</title>
<g id="a_edge2_Node000001_Node000002"><a xlink:title=" ">
<path fill="none" stroke="#63b8ff" d="M73.59,-45.23C73.77,-36.66 73.24,-27.75 71.99,-21.22"/>
<polygon fill="#63b8ff" stroke="#63b8ff" points="70.11,-44.73 72.99,-54.93 77.1,-45.16 70.11,-44.73"/>
</a>
</g>
</g>
</g>
</svg>
