<?xml version="1.0" encoding="UTF-8" standalone="no"?>
<!DOCTYPE svg PUBLIC "-//W3C//DTD SVG 1.1//EN"
 "http://www.w3.org/Graphics/SVG/1.1/DTD/svg11.dtd">
<!-- Generated by graphviz version 12.2.1 (0)
 -->
<!-- Title: build/include/llzk/Dialect/Struct/Transforms/TransformationPasses.h.inc Pages: 1 -->
<svg width="628pt" height="276pt"
 viewBox="0.00 0.00 627.75 275.50" xmlns="http://www.w3.org/2000/svg" xmlns:xlink="http://www.w3.org/1999/xlink">
<g id="graph0" class="graph" transform="scale(1 1) rotate(0) translate(4 271.5)">
<title>build/include/llzk/Dialect/Struct/Transforms/TransformationPasses.h.inc</title>
<!-- Node1 -->
<g id="Node000001" class="node">
<title>Node1</title>
<g id="a_Node000001"><a xlink:title=" ">
<polygon fill="#999999" stroke="#666666" points="486.25,-267.5 334.5,-267.5 334.5,-221.25 486.25,-221.25 486.25,-267.5"/>
<text text-anchor="start" x="342.5" y="-254" font-family="Helvetica,sans-Serif" font-size="10.00">build/include/llzk</text>
<text text-anchor="start" x="342.5" y="-241.25" font-family="Helvetica,sans-Serif" font-size="10.00">/Dialect/Struct/Transforms</text>
<text text-anchor="middle" x="410.38" y="-228.5" font-family="Helvetica,sans-Serif" font-size="10.00">/TransformationPasses.h.inc</text>
</a>
</g>
</g>
<!-- Node2 -->
<g id="Node000002" class="node">
<title>Node2</title>
<g id="a_Node000002"><a xlink:href="Struct_2Transforms_2TransformationPasses_8h.html" target="_top" xlink:title=" ">
<polygon fill="white" stroke="#666666" points="441.88,-185.25 260.88,-185.25 260.88,-139 441.88,-139 441.88,-185.25"/>
<text text-anchor="start" x="268.88" y="-171.75" font-family="Helvetica,sans-Serif" font-size="10.00">include/llzk/Dialect</text>
<text text-anchor="start" x="268.88" y="-159" font-family="Helvetica,sans-Serif" font-size="10.00">/Struct/Transforms/Transformation</text>
<text text-anchor="middle" x="351.38" y="-146.25" font-family="Helvetica,sans-Serif" font-size="10.00">Passes.h</text>
</a>
</g>
</g>
<!-- Node1&#45;&gt;Node2 -->
<g id="edge1_Node000001_Node000002" class="edge">
<title>Node1&#45;&gt;Node2</title>
<g id="a_edge1_Node000001_Node000002"><a xlink:title=" ">
<path fill="none" stroke="#63b8ff" d="M387.19,-211.83C380.75,-203.08 373.9,-193.76 367.93,-185.64"/>
<polygon fill="#63b8ff" stroke="#63b8ff" points="384.3,-213.82 393.04,-219.8 389.94,-209.67 384.3,-213.82"/>
</a>
</g>
</g>
<!-- Node7 -->
<g id="Node000007" class="node">
<title>Node7</title>
<g id="a_Node000007"><a xlink:href="InlineStructsPass_8cpp.html" target="_top" xlink:title="This file implements the &#45;llzk&#45;inline&#45;structs pass.">
<polygon fill="white" stroke="#666666" points="619.75,-103 441,-103 441,-69.5 619.75,-69.5 619.75,-103"/>
<text text-anchor="start" x="449" y="-89.5" font-family="Helvetica,sans-Serif" font-size="10.00">lib/Dialect/Struct</text>
<text text-anchor="middle" x="530.38" y="-76.75" font-family="Helvetica,sans-Serif" font-size="10.00">/Transforms/InlineStructsPass.cpp</text>
</a>
</g>
</g>
<!-- Node1&#45;&gt;Node7 -->
<g id="edge8_Node000001_Node000007" class="edge">
<title>Node1&#45;&gt;Node7</title>
<g id="a_edge8_Node000001_Node000007"><a xlink:title=" ">
<path fill="none" stroke="#63b8ff" d="M434.3,-212.25C459.52,-179.43 498.28,-129.01 517.97,-103.39"/>
<polygon fill="#63b8ff" stroke="#63b8ff" points="431.81,-209.74 428.49,-219.81 437.36,-214.01 431.81,-209.74"/>
</a>
</g>
</g>
<!-- Node3 -->
<g id="Node000003" class="node">
<title>Node3</title>
<g id="a_Node000003"><a xlink:href="LLZKTransformationPassPipelines_8h.html" target="_top" xlink:title=" ">
<polygon fill="white" stroke="#666666" points="224.75,-103 34,-103 34,-69.5 224.75,-69.5 224.75,-103"/>
<text text-anchor="start" x="42" y="-89.5" font-family="Helvetica,sans-Serif" font-size="10.00">include/llzk/Transforms</text>
<text text-anchor="middle" x="129.38" y="-76.75" font-family="Helvetica,sans-Serif" font-size="10.00">/LLZKTransformationPassPipelines.h</text>
</a>
</g>
</g>
<!-- Node2&#45;&gt;Node3 -->
<g id="edge2_Node000002_Node000003" class="edge">
<title>Node2&#45;&gt;Node3</title>
<g id="a_edge2_Node000002_Node000003"><a xlink:title=" ">
<path fill="none" stroke="#63b8ff" d="M273.01,-135.05C241.39,-124.53 205.91,-112.72 178.12,-103.47"/>
<polygon fill="#63b8ff" stroke="#63b8ff" points="271.53,-138.24 282.13,-138.08 273.74,-131.6 271.53,-138.24"/>
</a>
</g>
</g>
<!-- Node5 -->
<g id="Node000005" class="node">
<title>Node5</title>
<g id="a_Node000005"><a xlink:href="llzk-opt_8cpp.html" target="_top" xlink:title="This file implements a version of the mlir&#45;opt tool configured for use on LLZK files.">
<polygon fill="white" stroke="#666666" points="302.38,-33.5 202.38,-33.5 202.38,0 302.38,0 302.38,-33.5"/>
<text text-anchor="start" x="210.38" y="-20" font-family="Helvetica,sans-Serif" font-size="10.00">tools/llzk&#45;opt/llzk</text>
<text text-anchor="middle" x="252.38" y="-7.25" font-family="Helvetica,sans-Serif" font-size="10.00">&#45;opt.cpp</text>
</a>
</g>
</g>
<!-- Node2&#45;&gt;Node5 -->
<g id="edge7_Node000002_Node000005" class="edge">
<title>Node2&#45;&gt;Node5</title>
<g id="a_edge7_Node000002_Node000005"><a xlink:title=" ">
<path fill="none" stroke="#63b8ff" d="M299.84,-132.18C289.05,-123.99 278.74,-114.21 271.38,-103 257.48,-81.83 253.63,-52 252.63,-33.82"/>
<polygon fill="#63b8ff" stroke="#63b8ff" points="297.55,-134.84 307.72,-137.79 301.61,-129.14 297.55,-134.84"/>
</a>
</g>
</g>
<!-- Node6 -->
<g id="Node000006" class="node">
<title>Node6</title>
<g id="a_Node000006"><a xlink:href="Struct_8cpp.html" target="_top" xlink:title=" ">
<polygon fill="white" stroke="#666666" points="422.75,-96.62 280,-96.62 280,-75.88 422.75,-75.88 422.75,-96.62"/>
<text text-anchor="middle" x="351.38" y="-83.12" font-family="Helvetica,sans-Serif" font-size="10.00">lib/CAPI/Dialect/Struct.cpp</text>
</a>
</g>
</g>
<!-- Node2&#45;&gt;Node6 -->
<g id="edge5_Node000002_Node000006" class="edge">
<title>Node2&#45;&gt;Node6</title>
<g id="a_edge5_Node000002_Node000006"><a xlink:title=" ">
<path fill="none" stroke="#63b8ff" d="M351.38,-127.32C351.38,-116.24 351.38,-104.78 351.38,-96.97"/>
<polygon fill="#63b8ff" stroke="#63b8ff" points="347.88,-127.05 351.38,-137.05 354.88,-127.05 347.88,-127.05"/>
</a>
</g>
</g>
<!-- Node2&#45;&gt;Node7 -->
<g id="edge6_Node000002_Node000007" class="edge">
<title>Node2&#45;&gt;Node7</title>
<g id="a_edge6_Node000002_Node000007"><a xlink:title=" ">
<path fill="none" stroke="#63b8ff" d="M416.57,-134.22C441.54,-123.91 469.25,-112.48 491.08,-103.47"/>
<polygon fill="#63b8ff" stroke="#63b8ff" points="415.36,-130.93 407.45,-137.98 418.03,-137.4 415.36,-130.93"/>
</a>
</g>
</g>
<!-- Node4 -->
<g id="Node000004" class="node">
<title>Node4</title>
<g id="a_Node000004"><a xlink:href="LLZKTransformationPassPipelines_8cpp.html" target="_top" xlink:title="This file implements logic for registering several pass pipelines.">
<polygon fill="white" stroke="#666666" points="184.75,-33.5 0,-33.5 0,0 184.75,0 184.75,-33.5"/>
<text text-anchor="start" x="8" y="-20" font-family="Helvetica,sans-Serif" font-size="10.00">lib/Transforms/LLZKTransformation</text>
<text text-anchor="middle" x="92.38" y="-7.25" font-family="Helvetica,sans-Serif" font-size="10.00">PassPipelines.cpp</text>
</a>
</g>
</g>
<!-- Node3&#45;&gt;Node4 -->
<g id="edge3_Node000003_Node000004" class="edge">
<title>Node3&#45;&gt;Node4</title>
<g id="a_edge3_Node000003_Node000004"><a xlink:title=" ">
<path fill="none" stroke="#63b8ff" d="M115.12,-59.24C110.39,-50.61 105.26,-41.26 101.08,-33.63"/>
<polygon fill="#63b8ff" stroke="#63b8ff" points="112,-60.84 119.88,-67.93 118.14,-57.47 112,-60.84"/>
</a>
</g>
</g>
<!-- Node3&#45;&gt;Node5 -->
<g id="edge4_Node000003_Node000005" class="edge">
<title>Node3&#45;&gt;Node5</title>
<g id="a_edge4_Node000003_Node000005"><a xlink:title=" ">
<path fill="none" stroke="#63b8ff" d="M168.85,-63.59C186.49,-53.91 206.92,-42.7 223.15,-33.79"/>
<polygon fill="#63b8ff" stroke="#63b8ff" points="167.25,-60.47 160.16,-68.35 170.61,-66.61 167.25,-60.47"/>
</a>
</g>
</g>
</g>
</svg>
