<?xml version="1.0" encoding="UTF-8" standalone="no"?>
<!DOCTYPE svg PUBLIC "-//W3C//DTD SVG 1.1//EN"
 "http://www.w3.org/Graphics/SVG/1.1/DTD/svg11.dtd">
<!-- Generated by graphviz version 12.2.1 (0)
 -->
<!-- Title: include/llzk&#45;c/Dialect/Struct.h Pages: 1 -->
<svg width="735pt" height="237pt"
 viewBox="0.00 0.00 734.89 237.25" xmlns="http://www.w3.org/2000/svg" xmlns:xlink="http://www.w3.org/1999/xlink">
<g id="graph0" class="graph" transform="scale(1 1) rotate(0) translate(4 233.25)">
<title>include/llzk&#45;c/Dialect/Struct.h</title>
<!-- Node1 -->
<g id="Node000001" class="node">
<title>Node1</title>
<g id="a_Node000001"><a xlink:title=" ">
<polygon fill="#999999" stroke="#666666" points="409.14,-229.25 291.14,-229.25 291.14,-195.75 409.14,-195.75 409.14,-229.25"/>
<text text-anchor="start" x="299.14" y="-215.75" font-family="Helvetica,sans-Serif" font-size="10.00">include/llzk&#45;c/Dialect</text>
<text text-anchor="middle" x="350.14" y="-203" font-family="Helvetica,sans-Serif" font-size="10.00">/Struct.h</text>
</a>
</g>
</g>
<!-- Node2 -->
<g id="Node000002" class="node">
<title>Node2</title>
<g id="a_Node000002"><a xlink:href="llzk-c_2Support_8h.html" target="_top" xlink:title=" ">
<polygon fill="white" stroke="#666666" points="359.02,-147 267.27,-147 267.27,-126.25 359.02,-126.25 359.02,-147"/>
<text text-anchor="middle" x="313.14" y="-133.5" font-family="Helvetica,sans-Serif" font-size="10.00">llzk&#45;c/Support.h</text>
</a>
</g>
</g>
<!-- Node1&#45;&gt;Node2 -->
<g id="edge1_Node000001_Node000002" class="edge">
<title>Node1&#45;&gt;Node2</title>
<g id="a_edge1_Node000001_Node000002"><a xlink:title=" ">
<path fill="none" stroke="#63b8ff" d="M342.12,-195.47C336.51,-184.28 328.99,-169.27 323.02,-157.35"/>
<polygon fill="#63b8ff" stroke="#63b8ff" points="326.17,-155.81 318.56,-148.44 319.91,-158.94 326.17,-155.81"/>
</a>
</g>
</g>
<!-- Node4 -->
<g id="Node000004" class="node">
<title>Node4</title>
<g id="a_Node000004"><a xlink:title=" ">
<polygon fill="#e0e0e0" stroke="#999999" points="158.27,-20.75 92.02,-20.75 92.02,0 158.27,0 158.27,-20.75"/>
<text text-anchor="middle" x="125.14" y="-7.25" font-family="Helvetica,sans-Serif" font-size="10.00">mlir&#45;c/IR.h</text>
</a>
</g>
</g>
<!-- Node1&#45;&gt;Node4 -->
<g id="edge9_Node000001_Node000004" class="edge">
<title>Node1&#45;&gt;Node4</title>
<g id="a_edge9_Node000001_Node000004"><a xlink:title=" ">
<path fill="none" stroke="#63b8ff" d="M290.75,-211.34C203.32,-209.69 46.49,-200.9 11.14,-159.75 -28.82,-113.23 52.16,-54.63 97.44,-27.06"/>
<polygon fill="#63b8ff" stroke="#63b8ff" points="99.18,-30.1 105.99,-21.98 95.61,-24.08 99.18,-30.1"/>
</a>
</g>
</g>
<!-- Node5 -->
<g id="Node000005" class="node">
<title>Node5</title>
<g id="a_Node000005"><a xlink:title=" ">
<polygon fill="#e0e0e0" stroke="#999999" points="360.14,-20.75 266.14,-20.75 266.14,0 360.14,0 360.14,-20.75"/>
<text text-anchor="middle" x="313.14" y="-7.25" font-family="Helvetica,sans-Serif" font-size="10.00">mlir&#45;c/Support.h</text>
</a>
</g>
</g>
<!-- Node1&#45;&gt;Node5 -->
<g id="edge10_Node000001_Node000005" class="edge">
<title>Node1&#45;&gt;Node5</title>
<g id="a_edge10_Node000001_Node000005"><a xlink:title=" ">
<path fill="none" stroke="#63b8ff" d="M364.35,-195.58C388.61,-166.36 432.74,-102.97 404.14,-56.75 395.16,-42.24 379.98,-32.21 364.57,-25.36"/>
<polygon fill="#63b8ff" stroke="#63b8ff" points="365.93,-22.13 355.34,-21.67 363.33,-28.63 365.93,-22.13"/>
</a>
</g>
</g>
<!-- Node6 -->
<g id="Node000006" class="node">
<title>Node6</title>
<g id="a_Node000006"><a xlink:title=" ">
<polygon fill="#e0e0e0" stroke="#999999" points="395.52,-77.5 342.77,-77.5 342.77,-56.75 395.52,-56.75 395.52,-77.5"/>
<text text-anchor="middle" x="369.14" y="-64" font-family="Helvetica,sans-Serif" font-size="10.00">stdint.h</text>
</a>
</g>
</g>
<!-- Node1&#45;&gt;Node6 -->
<g id="edge11_Node000001_Node000006" class="edge">
<title>Node1&#45;&gt;Node6</title>
<g id="a_edge11_Node000001_Node000006"><a xlink:title=" ">
<path fill="none" stroke="#63b8ff" d="M357.2,-195.54C361.27,-185.49 365.98,-172.12 368.14,-159.75 372.32,-135.81 371.87,-107.82 370.83,-89.13"/>
<polygon fill="#63b8ff" stroke="#63b8ff" points="374.33,-89.1 370.16,-79.36 367.35,-89.57 374.33,-89.1"/>
</a>
</g>
</g>
<!-- Node7 -->
<g id="Node000007" class="node">
<title>Node7</title>
<g id="a_Node000007"><a xlink:title=" ">
<polygon fill="#e0e0e0" stroke="#999999" points="559.14,-147 453.14,-147 453.14,-126.25 559.14,-126.25 559.14,-147"/>
<text text-anchor="middle" x="506.14" y="-133.5" font-family="Helvetica,sans-Serif" font-size="10.00">mlir&#45;c/AffineMap.h</text>
</a>
</g>
</g>
<!-- Node1&#45;&gt;Node7 -->
<g id="edge8_Node000001_Node000007" class="edge">
<title>Node1&#45;&gt;Node7</title>
<g id="a_edge8_Node000001_Node000007"><a xlink:title=" ">
<path fill="none" stroke="#63b8ff" d="M384.38,-195.29C411.5,-182.45 449.05,-164.66 475.25,-152.25"/>
<polygon fill="#63b8ff" stroke="#63b8ff" points="476.47,-155.55 484.01,-148.1 473.48,-149.22 476.47,-155.55"/>
</a>
</g>
</g>
<!-- Node8 -->
<g id="Node000008" class="node">
<title>Node8</title>
<g id="a_Node000008"><a xlink:href="Struct_2IR_2Ops_8capi_8h_8inc.html" target="_top" xlink:title=" ">
<polygon fill="white" stroke="#666666" points="122.27,-153.38 20.02,-153.38 20.02,-119.88 122.27,-119.88 122.27,-153.38"/>
<text text-anchor="start" x="28.02" y="-139.88" font-family="Helvetica,sans-Serif" font-size="10.00">llzk/Dialect/Struct</text>
<text text-anchor="middle" x="71.14" y="-127.12" font-family="Helvetica,sans-Serif" font-size="10.00">/IR/Ops.capi.h.inc</text>
</a>
</g>
</g>
<!-- Node1&#45;&gt;Node8 -->
<g id="edge12_Node000001_Node000008" class="edge">
<title>Node1&#45;&gt;Node8</title>
<g id="a_edge12_Node000001_Node000008"><a xlink:title=" ">
<path fill="none" stroke="#63b8ff" d="M291.07,-199.57C246.7,-190.13 184.64,-175.87 131.14,-159.75 128.77,-159.03 126.35,-158.28 123.92,-157.49"/>
<polygon fill="#63b8ff" stroke="#63b8ff" points="125.24,-154.24 114.65,-154.35 123,-160.87 125.24,-154.24"/>
</a>
</g>
</g>
<!-- Node9 -->
<g id="Node000009" class="node">
<title>Node9</title>
<g id="a_Node000009"><a xlink:href="Struct_2IR_2Types_8capi_8h_8inc.html" target="_top" xlink:title=" ">
<polygon fill="white" stroke="#666666" points="249.64,-153.38 140.64,-153.38 140.64,-119.88 249.64,-119.88 249.64,-153.38"/>
<text text-anchor="start" x="148.64" y="-139.88" font-family="Helvetica,sans-Serif" font-size="10.00">llzk/Dialect/Struct</text>
<text text-anchor="middle" x="195.14" y="-127.12" font-family="Helvetica,sans-Serif" font-size="10.00">/IR/Types.capi.h.inc</text>
</a>
</g>
</g>
<!-- Node1&#45;&gt;Node9 -->
<g id="edge15_Node000001_Node000009" class="edge">
<title>Node1&#45;&gt;Node9</title>
<g id="a_edge15_Node000001_Node000009"><a xlink:title=" ">
<path fill="none" stroke="#63b8ff" d="M316.13,-195.29C293.52,-184.51 263.6,-170.25 239.17,-158.61"/>
<polygon fill="#63b8ff" stroke="#63b8ff" points="240.98,-155.59 230.45,-154.45 237.97,-161.91 240.98,-155.59"/>
</a>
</g>
</g>
<!-- Node10 -->
<g id="Node000010" class="node">
<title>Node10</title>
<g id="a_Node000010"><a xlink:href="Struct_2Transforms_2TransformationPasses_8capi_8h_8inc.html" target="_top" xlink:title=" ">
<polygon fill="white" stroke="#666666" points="726.89,-159.75 577.39,-159.75 577.39,-113.5 726.89,-113.5 726.89,-159.75"/>
<text text-anchor="start" x="585.39" y="-146.25" font-family="Helvetica,sans-Serif" font-size="10.00">llzk/Dialect/Struct</text>
<text text-anchor="start" x="585.39" y="-133.5" font-family="Helvetica,sans-Serif" font-size="10.00">/Transforms/Transformation</text>
<text text-anchor="middle" x="652.14" y="-120.75" font-family="Helvetica,sans-Serif" font-size="10.00">Passes.capi.h.inc</text>
</a>
</g>
</g>
<!-- Node1&#45;&gt;Node10 -->
<g id="edge18_Node000001_Node000010" class="edge">
<title>Node1&#45;&gt;Node10</title>
<g id="a_edge18_Node000001_Node000010"><a xlink:title=" ">
<path fill="none" stroke="#63b8ff" d="M409.46,-197.83C450.78,-188.22 507.45,-174.84 566.09,-160.24"/>
<polygon fill="#63b8ff" stroke="#63b8ff" points="566.74,-163.68 575.59,-157.87 565.04,-156.89 566.74,-163.68"/>
</a>
</g>
</g>
<!-- Node3 -->
<g id="Node000003" class="node">
<title>Node3</title>
<g id="a_Node000003"><a xlink:href="llzk-c_2Builder_8h.html" target="_top" xlink:title=" ">
<polygon fill="white" stroke="#666666" points="241.14,-77.5 153.14,-77.5 153.14,-56.75 241.14,-56.75 241.14,-77.5"/>
<text text-anchor="middle" x="197.14" y="-64" font-family="Helvetica,sans-Serif" font-size="10.00">llzk&#45;c/Builder.h</text>
</a>
</g>
</g>
<!-- Node2&#45;&gt;Node3 -->
<g id="edge2_Node000002_Node000003" class="edge">
<title>Node2&#45;&gt;Node3</title>
<g id="a_edge2_Node000002_Node000003"><a xlink:title=" ">
<path fill="none" stroke="#63b8ff" d="M296.52,-125.95C277.6,-114.94 246.4,-96.79 224,-83.75"/>
<polygon fill="#63b8ff" stroke="#63b8ff" points="225.82,-80.76 215.42,-78.76 222.3,-86.81 225.82,-80.76"/>
</a>
</g>
</g>
<!-- Node2&#45;&gt;Node4 -->
<g id="edge5_Node000002_Node000004" class="edge">
<title>Node2&#45;&gt;Node4</title>
<g id="a_edge5_Node000002_Node000004"><a xlink:title=" ">
<path fill="none" stroke="#63b8ff" d="M307.84,-125.95C298.34,-109.49 276.91,-75.96 250.14,-56.75 226.15,-39.53 194.93,-28.19 169.69,-21.15"/>
<polygon fill="#63b8ff" stroke="#63b8ff" points="170.59,-17.77 160.03,-18.6 168.8,-24.54 170.59,-17.77"/>
</a>
</g>
</g>
<!-- Node2&#45;&gt;Node5 -->
<g id="edge6_Node000002_Node000005" class="edge">
<title>Node2&#45;&gt;Node5</title>
<g id="a_edge6_Node000002_Node000005"><a xlink:title=" ">
<path fill="none" stroke="#63b8ff" d="M313.14,-125.88C313.14,-105.82 313.14,-59.57 313.14,-32.38"/>
<polygon fill="#63b8ff" stroke="#63b8ff" points="316.64,-32.59 313.14,-22.59 309.64,-32.59 316.64,-32.59"/>
</a>
</g>
</g>
<!-- Node2&#45;&gt;Node6 -->
<g id="edge7_Node000002_Node000006" class="edge">
<title>Node2&#45;&gt;Node6</title>
<g id="a_edge7_Node000002_Node000006"><a xlink:title=" ">
<path fill="none" stroke="#63b8ff" d="M321.17,-125.95C329.65,-115.73 343.24,-99.35 353.79,-86.63"/>
<polygon fill="#63b8ff" stroke="#63b8ff" points="356.48,-88.87 360.17,-78.94 351.09,-84.4 356.48,-88.87"/>
</a>
</g>
</g>
<!-- Node3&#45;&gt;Node4 -->
<g id="edge3_Node000003_Node000004" class="edge">
<title>Node3&#45;&gt;Node4</title>
<g id="a_edge3_Node000003_Node000004"><a xlink:title=" ">
<path fill="none" stroke="#63b8ff" d="M184.27,-56.34C173.93,-48.47 159.17,-37.25 146.99,-27.99"/>
<polygon fill="#63b8ff" stroke="#63b8ff" points="149.19,-25.26 139.11,-21.99 144.95,-30.83 149.19,-25.26"/>
</a>
</g>
</g>
<!-- Node3&#45;&gt;Node5 -->
<g id="edge4_Node000003_Node000005" class="edge">
<title>Node3&#45;&gt;Node5</title>
<g id="a_edge4_Node000003_Node000005"><a xlink:title=" ">
<path fill="none" stroke="#63b8ff" d="M217.88,-56.34C235.78,-47.89 261.89,-35.57 282.25,-25.96"/>
<polygon fill="#63b8ff" stroke="#63b8ff" points="283.67,-29.16 291.22,-21.72 280.68,-22.83 283.67,-29.16"/>
</a>
</g>
</g>
<!-- Node8&#45;&gt;Node3 -->
<g id="edge13_Node000008_Node000003" class="edge">
<title>Node8&#45;&gt;Node3</title>
<g id="a_edge13_Node000008_Node000003"><a xlink:title=" ">
<path fill="none" stroke="#63b8ff" d="M101.32,-119.46C121.81,-108.48 148.73,-94.06 168.81,-83.3"/>
<polygon fill="#63b8ff" stroke="#63b8ff" points="170.41,-86.42 177.57,-78.61 167.1,-80.25 170.41,-86.42"/>
</a>
</g>
</g>
<!-- Node8&#45;&gt;Node4 -->
<g id="edge14_Node000008_Node000004" class="edge">
<title>Node8&#45;&gt;Node4</title>
<g id="a_edge14_Node000008_Node000004"><a xlink:title=" ">
<path fill="none" stroke="#63b8ff" d="M78.2,-119.38C88.03,-96.78 105.8,-55.87 116.44,-31.41"/>
<polygon fill="#63b8ff" stroke="#63b8ff" points="119.51,-33.11 120.29,-22.55 113.09,-30.32 119.51,-33.11"/>
</a>
</g>
</g>
<!-- Node9&#45;&gt;Node3 -->
<g id="edge16_Node000009_Node000003" class="edge">
<title>Node9&#45;&gt;Node3</title>
<g id="a_edge16_Node000009_Node000003"><a xlink:title=" ">
<path fill="none" stroke="#63b8ff" d="M195.62,-119.63C195.89,-110.53 196.23,-99.02 196.52,-89.19"/>
<polygon fill="#63b8ff" stroke="#63b8ff" points="200.01,-89.56 196.81,-79.46 193.01,-89.35 200.01,-89.56"/>
</a>
</g>
</g>
<!-- Node9&#45;&gt;Node4 -->
<g id="edge17_Node000009_Node000004" class="edge">
<title>Node9&#45;&gt;Node4</title>
<g id="a_edge17_Node000009_Node000004"><a xlink:title=" ">
<path fill="none" stroke="#63b8ff" d="M177.8,-119.85C166.74,-108.93 152.9,-93.52 144.14,-77.5 136.34,-63.21 131.46,-45.4 128.6,-31.86"/>
<polygon fill="#63b8ff" stroke="#63b8ff" points="132.1,-31.52 126.8,-22.34 125.22,-32.82 132.1,-31.52"/>
</a>
</g>
</g>
<!-- Node11 -->
<g id="Node000011" class="node">
<title>Node11</title>
<g id="a_Node000011"><a xlink:title=" ">
<polygon fill="#e0e0e0" stroke="#999999" points="691.27,-77.5 613.02,-77.5 613.02,-56.75 691.27,-56.75 691.27,-77.5"/>
<text text-anchor="middle" x="652.14" y="-64" font-family="Helvetica,sans-Serif" font-size="10.00">mlir&#45;c/Pass.h</text>
</a>
</g>
</g>
<!-- Node10&#45;&gt;Node11 -->
<g id="edge19_Node000010_Node000011" class="edge">
<title>Node10&#45;&gt;Node11</title>
<g id="a_edge19_Node000010_Node000011"><a xlink:title=" ">
<path fill="none" stroke="#63b8ff" d="M652.14,-113.15C652.14,-105.48 652.14,-96.94 652.14,-89.38"/>
<polygon fill="#63b8ff" stroke="#63b8ff" points="655.64,-89.4 652.14,-79.4 648.64,-89.4 655.64,-89.4"/>
</a>
</g>
</g>
</g>
</svg>
