<?xml version="1.0" encoding="UTF-8" standalone="no"?>
<!DOCTYPE svg PUBLIC "-//W3C//DTD SVG 1.1//EN"
 "http://www.w3.org/Graphics/SVG/1.1/DTD/svg11.dtd">
<!-- Generated by graphviz version 12.2.1 (0)
 -->
<!-- Title: llzk::component::detail::MemberRefOpInterfaceTrait&lt; ConcreteOp &gt; Pages: 1 -->
<svg width="188pt" height="193pt"
 viewBox="0.00 0.00 187.50 193.25" xmlns="http://www.w3.org/2000/svg" xmlns:xlink="http://www.w3.org/1999/xlink">
<g id="graph0" class="graph" transform="scale(1 1) rotate(0) translate(4 189.25)">
<title>llzk::component::detail::MemberRefOpInterfaceTrait&lt; ConcreteOp &gt;</title>
<!-- Node1 -->
<g id="Node000001" class="node">
<title>Node1</title>
<g id="a_Node000001"><a xlink:title=" ">
<polygon fill="#999999" stroke="#666666" points="168.25,-115.75 11.25,-115.75 11.25,-69.5 168.25,-69.5 168.25,-115.75"/>
<text text-anchor="start" x="19.25" y="-102.25" font-family="Helvetica,sans-Serif" font-size="10.00">llzk::component::detail</text>
<text text-anchor="start" x="19.25" y="-89.5" font-family="Helvetica,sans-Serif" font-size="10.00">::MemberRefOpInterfaceTrait</text>
<text text-anchor="middle" x="89.75" y="-76.75" font-family="Helvetica,sans-Serif" font-size="10.00">&lt; ConcreteOp &gt;</text>
</a>
</g>
</g>
<!-- Node3 -->
<g id="Node000003" class="node">
<title>Node3</title>
<g id="a_Node000003"><a xlink:href="structllzk_1_1component_1_1MemberRefOpInterface_1_1Trait.html" target="_top" xlink:title=" ">
<polygon fill="white" stroke="#666666" points="179.5,-33.5 0,-33.5 0,0 179.5,0 179.5,-33.5"/>
<text text-anchor="start" x="8" y="-20" font-family="Helvetica,sans-Serif" font-size="10.00">llzk::component::MemberRef</text>
<text text-anchor="middle" x="89.75" y="-7.25" font-family="Helvetica,sans-Serif" font-size="10.00">OpInterface::Trait&lt; ConcreteOp &gt;</text>
</a>
</g>
</g>
<!-- Node1&#45;&gt;Node3 -->
<g id="edge2_Node000001_Node000003" class="edge">
<title>Node1&#45;&gt;Node3</title>
<g id="a_edge2_Node000001_Node000003"><a xlink:title=" ">
<path fill="none" stroke="#63b8ff" d="M89.75,-57.64C89.75,-49.35 89.75,-40.86 89.75,-33.85"/>
<polygon fill="#63b8ff" stroke="#63b8ff" points="86.25,-57.55 89.75,-67.55 93.25,-57.55 86.25,-57.55"/>
</a>
</g>
</g>
<!-- Node2 -->
<g id="Node000002" class="node">
<title>Node2</title>
<g id="a_Node000002"><a xlink:title=" ">
<polygon fill="white" stroke="#666666" points="148,-185.25 31.5,-185.25 31.5,-151.75 148,-151.75 148,-185.25"/>
<text text-anchor="start" x="39.5" y="-171.75" font-family="Helvetica,sans-Serif" font-size="10.00">mlir::OpInterface::</text>
<text text-anchor="middle" x="89.75" y="-159" font-family="Helvetica,sans-Serif" font-size="10.00">Trait&lt; ConcreteOp &gt;</text>
</a>
</g>
</g>
<!-- Node2&#45;&gt;Node1 -->
<g id="edge1_Node000001_Node000002" class="edge">
<title>Node2&#45;&gt;Node1</title>
<g id="a_edge1_Node000001_Node000002"><a xlink:title=" ">
<path fill="none" stroke="#63b8ff" d="M89.75,-140.14C89.75,-132.21 89.75,-123.66 89.75,-116.07"/>
<polygon fill="#63b8ff" stroke="#63b8ff" points="86.25,-139.96 89.75,-149.96 93.25,-139.96 86.25,-139.96"/>
</a>
</g>
</g>
</g>
</svg>
