<?xml version="1.0" encoding="UTF-8" standalone="no"?>
<!DOCTYPE svg PUBLIC "-//W3C//DTD SVG 1.1//EN"
 "http://www.w3.org/Graphics/SVG/1.1/DTD/svg11.dtd">
<!-- Generated by graphviz version 12.2.1 (0)
 -->
<!-- Title: llzk::global::detail::GlobalRefOpInterfaceInterfaceTraits::Concept Pages: 1 -->
<svg width="671pt" height="189pt"
 viewBox="0.00 0.00 671.00 188.62" xmlns="http://www.w3.org/2000/svg" xmlns:xlink="http://www.w3.org/1999/xlink">
<g id="graph0" class="graph" transform="scale(1 1) rotate(0) translate(4 184.62)">
<title>llzk::global::detail::GlobalRefOpInterfaceInterfaceTraits::Concept</title>
<!-- Node1 -->
<g id="Node000001" class="node">
<title>Node1</title>
<g id="a_Node000001"><a xlink:title=" ">
<polygon fill="#999999" stroke="#666666" points="170.5,-110.25 0,-110.25 0,-64 170.5,-64 170.5,-110.25"/>
<text text-anchor="start" x="8" y="-96.75" font-family="Helvetica,sans-Serif" font-size="10.00">llzk::global::detail</text>
<text text-anchor="start" x="8" y="-84" font-family="Helvetica,sans-Serif" font-size="10.00">::GlobalRefOpInterfaceInterface</text>
<text text-anchor="middle" x="85.25" y="-71.25" font-family="Helvetica,sans-Serif" font-size="10.00">Traits::Concept</text>
</a>
</g>
</g>
<!-- Node2 -->
<g id="Node000002" class="node">
<title>Node2</title>
<g id="a_Node000002"><a xlink:href="classllzk_1_1global_1_1detail_1_1GlobalRefOpInterfaceInterfaceTraits_1_1FallbackModel.html" target="_top" xlink:title=" ">
<polygon fill="white" stroke="#666666" points="420.5,-174.25 206.5,-174.25 206.5,-128 420.5,-128 420.5,-174.25"/>
<text text-anchor="start" x="214.5" y="-160.75" font-family="Helvetica,sans-Serif" font-size="10.00">llzk::global::detail</text>
<text text-anchor="start" x="214.5" y="-148" font-family="Helvetica,sans-Serif" font-size="10.00">::GlobalRefOpInterfaceInterface</text>
<text text-anchor="middle" x="313.5" y="-135.25" font-family="Helvetica,sans-Serif" font-size="10.00">Traits::FallbackModel&lt; ConcreteModel &gt;</text>
</a>
</g>
</g>
<!-- Node1&#45;&gt;Node2 -->
<g id="edge1_Node000001_Node000002" class="edge">
<title>Node1&#45;&gt;Node2</title>
<g id="a_edge1_Node000001_Node000002"><a xlink:title=" ">
<path fill="none" stroke="#63b8ff" d="M180.56,-113.8C196.64,-118.35 213.24,-123.05 229.01,-127.51"/>
<polygon fill="#63b8ff" stroke="#63b8ff" points="181.56,-110.45 170.99,-111.1 179.66,-117.19 181.56,-110.45"/>
</a>
</g>
</g>
<!-- Node4 -->
<g id="Node000004" class="node">
<title>Node4</title>
<g id="a_Node000004"><a xlink:href="classllzk_1_1global_1_1detail_1_1GlobalRefOpInterfaceInterfaceTraits_1_1FallbackModel.html" target="_top" xlink:title=" ">
<polygon fill="white" stroke="#666666" points="412.25,-110.25 214.75,-110.25 214.75,-64 412.25,-64 412.25,-110.25"/>
<text text-anchor="start" x="222.75" y="-96.75" font-family="Helvetica,sans-Serif" font-size="10.00">llzk::global::detail</text>
<text text-anchor="start" x="222.75" y="-84" font-family="Helvetica,sans-Serif" font-size="10.00">::GlobalRefOpInterfaceInterface</text>
<text text-anchor="middle" x="313.5" y="-71.25" font-family="Helvetica,sans-Serif" font-size="10.00">Traits::FallbackModel&lt; ConcreteOp &gt;</text>
</a>
</g>
</g>
<!-- Node1&#45;&gt;Node4 -->
<g id="edge3_Node000001_Node000004" class="edge">
<title>Node1&#45;&gt;Node4</title>
<g id="a_edge3_Node000001_Node000004"><a xlink:title=" ">
<path fill="none" stroke="#63b8ff" d="M182.24,-87.12C192.85,-87.12 203.67,-87.12 214.32,-87.12"/>
<polygon fill="#63b8ff" stroke="#63b8ff" points="182.33,-83.63 172.33,-87.13 182.33,-90.63 182.33,-83.63"/>
</a>
</g>
</g>
<!-- Node5 -->
<g id="Node000005" class="node">
<title>Node5</title>
<g id="a_Node000005"><a xlink:href="classllzk_1_1global_1_1detail_1_1GlobalRefOpInterfaceInterfaceTraits_1_1Model.html" target="_top" xlink:title=" ">
<polygon fill="white" stroke="#666666" points="398.75,-46.25 228.25,-46.25 228.25,0 398.75,0 398.75,-46.25"/>
<text text-anchor="start" x="236.25" y="-32.75" font-family="Helvetica,sans-Serif" font-size="10.00">llzk::global::detail</text>
<text text-anchor="start" x="236.25" y="-20" font-family="Helvetica,sans-Serif" font-size="10.00">::GlobalRefOpInterfaceInterface</text>
<text text-anchor="middle" x="313.5" y="-7.25" font-family="Helvetica,sans-Serif" font-size="10.00">Traits::Model&lt; ConcreteOp &gt;</text>
</a>
</g>
</g>
<!-- Node1&#45;&gt;Node5 -->
<g id="edge4_Node000001_Node000005" class="edge">
<title>Node1&#45;&gt;Node5</title>
<g id="a_edge4_Node000001_Node000005"><a xlink:title=" ">
<path fill="none" stroke="#63b8ff" d="M180.56,-60.45C196.64,-55.9 213.24,-51.2 229.01,-46.74"/>
<polygon fill="#63b8ff" stroke="#63b8ff" points="179.66,-57.06 170.99,-63.15 181.56,-63.8 179.66,-57.06"/>
</a>
</g>
</g>
<!-- Node3 -->
<g id="Node000003" class="node">
<title>Node3</title>
<g id="a_Node000003"><a xlink:href="classllzk_1_1global_1_1detail_1_1GlobalRefOpInterfaceInterfaceTraits_1_1ExternalModel.html" target="_top" xlink:title=" ">
<polygon fill="white" stroke="#666666" points="663,-180.62 456.5,-180.62 456.5,-121.62 663,-121.62 663,-180.62"/>
<text text-anchor="start" x="464.5" y="-167.12" font-family="Helvetica,sans-Serif" font-size="10.00">llzk::global::detail</text>
<text text-anchor="start" x="464.5" y="-154.38" font-family="Helvetica,sans-Serif" font-size="10.00">::GlobalRefOpInterfaceInterface</text>
<text text-anchor="start" x="464.5" y="-141.62" font-family="Helvetica,sans-Serif" font-size="10.00">Traits::ExternalModel&lt; ConcreteModel,</text>
<text text-anchor="middle" x="559.75" y="-128.88" font-family="Helvetica,sans-Serif" font-size="10.00"> ConcreteOp &gt;</text>
</a>
</g>
</g>
<!-- Node2&#45;&gt;Node3 -->
<g id="edge2_Node000002_Node000003" class="edge">
<title>Node2&#45;&gt;Node3</title>
<g id="a_edge2_Node000002_Node000003"><a xlink:title=" ">
<path fill="none" stroke="#63b8ff" d="M432.21,-151.12C440.21,-151.12 448.25,-151.12 456.16,-151.12"/>
<polygon fill="#63b8ff" stroke="#63b8ff" points="432.43,-147.63 422.43,-151.13 432.43,-154.63 432.43,-147.63"/>
</a>
</g>
</g>
</g>
</svg>
