<?xml version="1.0" encoding="UTF-8" standalone="no"?>
<!DOCTYPE svg PUBLIC "-//W3C//DTD SVG 1.1//EN"
 "http://www.w3.org/Graphics/SVG/1.1/DTD/svg11.dtd">
<!-- Generated by graphviz version 12.2.1 (0)
 -->
<!-- Title: llzk::witgen::StructValue Pages: 1 -->
<svg width="192pt" height="188pt"
 viewBox="0.00 0.00 192.00 187.50" xmlns="http://www.w3.org/2000/svg" xmlns:xlink="http://www.w3.org/1999/xlink">
<g id="graph0" class="graph" transform="scale(1 1) rotate(0) translate(4 183.5)">
<title>llzk::witgen::StructValue</title>
<!-- Node1 -->
<g id="Node000001" class="node">
<title>Node1</title>
<g id="a_Node000001"><a xlink:title="Materialized struct value keyed by member name.">
<polygon fill="#999999" stroke="#666666" points="158.88,-20.75 25.12,-20.75 25.12,0 158.88,0 158.88,-20.75"/>
<text text-anchor="middle" x="92" y="-7.25" font-family="Helvetica,sans-Serif" font-size="10.00">llzk::witgen::StructValue</text>
</a>
</g>
</g>
<!-- Node2 -->
<g id="Node000002" class="node">
<title>Node2</title>
<g id="a_Node000002"><a xlink:href="classllzk_1_1component_1_1StructType.html" target="_top" xlink:title=" ">
<polygon fill="white" stroke="#666666" points="167.5,-96.25 16.5,-96.25 16.5,-75.5 167.5,-75.5 167.5,-96.25"/>
<text text-anchor="middle" x="92" y="-82.75" font-family="Helvetica,sans-Serif" font-size="10.00">llzk::component::StructType</text>
</a>
</g>
</g>
<!-- Node2&#45;&gt;Node1 -->
<g id="edge1_Node000001_Node000002" class="edge">
<title>Node2&#45;&gt;Node1</title>
<g id="a_edge1_Node000001_Node000002"><a xlink:title=" ">
<path fill="none" stroke="#9a32cd" stroke-dasharray="5,2" d="M92,-63.76C92,-49.76 92,-32.05 92,-21.22"/>
<polygon fill="#9a32cd" stroke="#9a32cd" points="88.5,-63.75 92,-73.75 95.5,-63.75 88.5,-63.75"/>
</a>
</g>
<text text-anchor="start" x="95" y="-45" font-family="Helvetica,sans-Serif" font-size="10.00" fill="grey">type</text>
</g>
<!-- Node3 -->
<g id="Node000003" class="node">
<title>Node3</title>
<g id="a_Node000003"><a xlink:title=" ">
<polygon fill="white" stroke="#666666" points="184,-179.5 0,-179.5 0,-133.25 184,-133.25 184,-179.5"/>
<text text-anchor="start" x="8" y="-166" font-family="Helvetica,sans-Serif" font-size="10.00">mlir::Type::TypeBase</text>
<text text-anchor="start" x="8" y="-153.25" font-family="Helvetica,sans-Serif" font-size="10.00">&lt; StructType, ::mlir</text>
<text text-anchor="middle" x="92" y="-140.5" font-family="Helvetica,sans-Serif" font-size="10.00">::Type, detail::StructTypeStorage &gt;</text>
</a>
</g>
</g>
<!-- Node3&#45;&gt;Node2 -->
<g id="edge2_Node000002_Node000003" class="edge">
<title>Node3&#45;&gt;Node2</title>
<g id="a_edge2_Node000002_Node000003"><a xlink:title=" ">
<path fill="none" stroke="#63b8ff" d="M92,-121.55C92,-112.37 92,-103.16 92,-96.54"/>
<polygon fill="#63b8ff" stroke="#63b8ff" points="88.5,-121.43 92,-131.43 95.5,-121.43 88.5,-121.43"/>
</a>
</g>
</g>
</g>
</svg>
