<?xml version="1.0" encoding="UTF-8" standalone="no"?>
<!DOCTYPE svg PUBLIC "-//W3C//DTD SVG 1.1//EN"
 "http://www.w3.org/Graphics/SVG/1.1/DTD/svg11.dtd">
<!-- Generated by graphviz version 12.2.1 (0)
 -->
<!-- Title: AttrOrTypeImplementationGenerator Pages: 1 -->
<svg width="154pt" height="155pt"
 viewBox="0.00 0.00 153.75 155.00" xmlns="http://www.w3.org/2000/svg" xmlns:xlink="http://www.w3.org/1999/xlink">
<g id="graph0" class="graph" transform="scale(1 1) rotate(0) translate(4 151)">
<title>AttrOrTypeImplementationGenerator</title>
<!-- Node1 -->
<g id="Node000001" class="node">
<title>Node1</title>
<g id="a_Node000001"><a xlink:title="Generator for attribute/type C implementation files.">
<polygon fill="#999999" stroke="#666666" points="145.75,-33.5 0,-33.5 0,0 145.75,0 145.75,-33.5"/>
<text text-anchor="start" x="8" y="-20" font-family="Helvetica,sans-Serif" font-size="10.00">AttrOrTypeImplementation</text>
<text text-anchor="middle" x="72.88" y="-7.25" font-family="Helvetica,sans-Serif" font-size="10.00">Generator</text>
</a>
</g>
</g>
<!-- Node2 -->
<g id="Node000002" class="node">
<title>Node2</title>
<g id="a_Node000002"><a xlink:href="structImplementationGenerator.html" target="_top" xlink:title="Generator for common C implementation file elements.">
<polygon fill="white" stroke="#666666" points="144.25,-90.25 1.5,-90.25 1.5,-69.5 144.25,-69.5 144.25,-90.25"/>
<text text-anchor="middle" x="72.88" y="-76.75" font-family="Helvetica,sans-Serif" font-size="10.00">ImplementationGenerator</text>
</a>
</g>
</g>
<!-- Node2&#45;&gt;Node1 -->
<g id="edge1_Node000001_Node000002" class="edge">
<title>Node2&#45;&gt;Node1</title>
<g id="a_edge1_Node000001_Node000002"><a xlink:title=" ">
<path fill="none" stroke="#63b8ff" d="M72.88,-57.59C72.88,-49.85 72.88,-41.22 72.88,-33.98"/>
<polygon fill="#63b8ff" stroke="#63b8ff" points="69.38,-57.54 72.88,-67.54 76.38,-57.54 69.38,-57.54"/>
</a>
</g>
</g>
<!-- Node3 -->
<g id="Node000003" class="node">
<title>Node3</title>
<g id="a_Node000003"><a xlink:href="structGenerator.html" target="_top" xlink:title="Base class for C API generators.">
<polygon fill="white" stroke="#666666" points="105.25,-147 40.5,-147 40.5,-126.25 105.25,-126.25 105.25,-147"/>
<text text-anchor="middle" x="72.88" y="-133.5" font-family="Helvetica,sans-Serif" font-size="10.00">Generator</text>
</a>
</g>
</g>
<!-- Node3&#45;&gt;Node2 -->
<g id="edge2_Node000002_Node000003" class="edge">
<title>Node3&#45;&gt;Node2</title>
<g id="a_edge2_Node000002_Node000003"><a xlink:title=" ">
<path fill="none" stroke="#63b8ff" d="M72.88,-114.38C72.88,-106.16 72.88,-97.18 72.88,-90.58"/>
<polygon fill="#63b8ff" stroke="#63b8ff" points="69.38,-114.32 72.88,-124.32 76.38,-114.32 69.38,-114.32"/>
</a>
</g>
</g>
</g>
</svg>
