<?xml version="1.0" encoding="UTF-8" standalone="no"?>
<!DOCTYPE svg PUBLIC "-//W3C//DTD SVG 1.1//EN"
 "http://www.w3.org/Graphics/SVG/1.1/DTD/svg11.dtd">
<!-- Generated by graphviz version 12.2.1 (0)
 -->
<!-- Title: llvm::DOTGraphTraits&lt; const llzk::SymbolUseGraphNode * &gt; Pages: 1 -->
<svg width="192pt" height="181pt"
 viewBox="0.00 0.00 192.00 180.50" xmlns="http://www.w3.org/2000/svg" xmlns:xlink="http://www.w3.org/1999/xlink">
<g id="graph0" class="graph" transform="scale(1 1) rotate(0) translate(4 176.5)">
<title>llvm::DOTGraphTraits&lt; const llzk::SymbolUseGraphNode * &gt;</title>
<!-- Node1 -->
<g id="Node000001" class="node">
<title>Node1</title>
<g id="a_Node000001"><a xlink:title=" ">
<polygon fill="#999999" stroke="#666666" points="174.25,-115.75 9.75,-115.75 9.75,-69.5 174.25,-69.5 174.25,-115.75"/>
<text text-anchor="start" x="17.75" y="-102.25" font-family="Helvetica,sans-Serif" font-size="10.00">llvm::DOTGraphTraits</text>
<text text-anchor="start" x="17.75" y="-89.5" font-family="Helvetica,sans-Serif" font-size="10.00">&lt; const llzk::SymbolUseGraph</text>
<text text-anchor="middle" x="92" y="-76.75" font-family="Helvetica,sans-Serif" font-size="10.00">Node * &gt;</text>
</a>
</g>
</g>
<!-- Node3 -->
<g id="Node000003" class="node">
<title>Node3</title>
<g id="a_Node000003"><a xlink:href="structllvm_1_1DOTGraphTraits_3_01const_01llzk_1_1SymbolUseGraph_01_5_01_4.html" target="_top" xlink:title=" ">
<polygon fill="white" stroke="#666666" points="184,-33.5 0,-33.5 0,0 184,0 184,-33.5"/>
<text text-anchor="start" x="8" y="-20" font-family="Helvetica,sans-Serif" font-size="10.00">llvm::DOTGraphTraits</text>
<text text-anchor="middle" x="92" y="-7.25" font-family="Helvetica,sans-Serif" font-size="10.00">&lt; const llzk::SymbolUseGraph * &gt;</text>
</a>
</g>
</g>
<!-- Node1&#45;&gt;Node3 -->
<g id="edge2_Node000001_Node000003" class="edge">
<title>Node1&#45;&gt;Node3</title>
<g id="a_edge2_Node000001_Node000003"><a xlink:title=" ">
<path fill="none" stroke="#63b8ff" d="M92,-57.64C92,-49.35 92,-40.86 92,-33.85"/>
<polygon fill="#63b8ff" stroke="#63b8ff" points="88.5,-57.55 92,-67.55 95.5,-57.55 88.5,-57.55"/>
</a>
</g>
</g>
<!-- Node2 -->
<g id="Node000002" class="node">
<title>Node2</title>
<g id="a_Node000002"><a xlink:title=" ">
<polygon fill="white" stroke="#666666" points="156.25,-172.5 27.75,-172.5 27.75,-151.75 156.25,-151.75 156.25,-172.5"/>
<text text-anchor="middle" x="92" y="-159" font-family="Helvetica,sans-Serif" font-size="10.00">DefaultDOTGraphTraits</text>
</a>
</g>
</g>
<!-- Node2&#45;&gt;Node1 -->
<g id="edge1_Node000001_Node000002" class="edge">
<title>Node2&#45;&gt;Node1</title>
<g id="a_edge1_Node000001_Node000002"><a xlink:title=" ">
<path fill="none" stroke="#63b8ff" d="M92,-139.96C92,-132.37 92,-123.8 92,-116.11"/>
<polygon fill="#63b8ff" stroke="#63b8ff" points="88.5,-139.94 92,-149.94 95.5,-139.94 88.5,-139.94"/>
</a>
</g>
</g>
</g>
</svg>
