<?xml version="1.0" encoding="UTF-8" standalone="no"?>
<!DOCTYPE svg PUBLIC "-//W3C//DTD SVG 1.1//EN"
 "http://www.w3.org/Graphics/SVG/1.1/DTD/svg11.dtd">
<!-- Generated by graphviz version 12.2.1 (0)
 -->
<!-- Title: llzk::pod::detail::PodAccessOpInterfaceInterfaceTraits::Concept Pages: 1 -->
<svg width="669pt" height="189pt"
 viewBox="0.00 0.00 668.75 188.62" xmlns="http://www.w3.org/2000/svg" xmlns:xlink="http://www.w3.org/1999/xlink">
<g id="graph0" class="graph" transform="scale(1 1) rotate(0) translate(4 184.62)">
<title>llzk::pod::detail::PodAccessOpInterfaceInterfaceTraits::Concept</title>
<!-- Node1 -->
<g id="Node000001" class="node">
<title>Node1</title>
<g id="a_Node000001"><a xlink:title=" ">
<polygon fill="#999999" stroke="#666666" points="168.25,-110.25 0,-110.25 0,-64 168.25,-64 168.25,-110.25"/>
<text text-anchor="start" x="8" y="-96.75" font-family="Helvetica,sans-Serif" font-size="10.00">llzk::pod::detail::</text>
<text text-anchor="start" x="8" y="-84" font-family="Helvetica,sans-Serif" font-size="10.00">PodAccessOpInterfaceInterface</text>
<text text-anchor="middle" x="84.12" y="-71.25" font-family="Helvetica,sans-Serif" font-size="10.00">Traits::Concept</text>
</a>
</g>
</g>
<!-- Node2 -->
<g id="Node000002" class="node">
<title>Node2</title>
<g id="a_Node000002"><a xlink:href="classllzk_1_1pod_1_1detail_1_1PodAccessOpInterfaceInterfaceTraits_1_1FallbackModel.html" target="_top" xlink:title=" ">
<polygon fill="white" stroke="#666666" points="418.25,-174.25 204.25,-174.25 204.25,-128 418.25,-128 418.25,-174.25"/>
<text text-anchor="start" x="212.25" y="-160.75" font-family="Helvetica,sans-Serif" font-size="10.00">llzk::pod::detail::</text>
<text text-anchor="start" x="212.25" y="-148" font-family="Helvetica,sans-Serif" font-size="10.00">PodAccessOpInterfaceInterface</text>
<text text-anchor="middle" x="311.25" y="-135.25" font-family="Helvetica,sans-Serif" font-size="10.00">Traits::FallbackModel&lt; ConcreteModel &gt;</text>
</a>
</g>
</g>
<!-- Node1&#45;&gt;Node2 -->
<g id="edge1_Node000001_Node000002" class="edge">
<title>Node1&#45;&gt;Node2</title>
<g id="a_edge1_Node000001_Node000002"><a xlink:title=" ">
<path fill="none" stroke="#63b8ff" d="M178.97,-113.8C194.97,-118.35 211.49,-123.05 227.18,-127.51"/>
<polygon fill="#63b8ff" stroke="#63b8ff" points="180.03,-110.47 169.45,-111.1 178.11,-117.2 180.03,-110.47"/>
</a>
</g>
</g>
<!-- Node4 -->
<g id="Node000004" class="node">
<title>Node4</title>
<g id="a_Node000004"><a xlink:href="classllzk_1_1pod_1_1detail_1_1PodAccessOpInterfaceInterfaceTraits_1_1FallbackModel.html" target="_top" xlink:title=" ">
<polygon fill="white" stroke="#666666" points="410,-110.25 212.5,-110.25 212.5,-64 410,-64 410,-110.25"/>
<text text-anchor="start" x="220.5" y="-96.75" font-family="Helvetica,sans-Serif" font-size="10.00">llzk::pod::detail::</text>
<text text-anchor="start" x="220.5" y="-84" font-family="Helvetica,sans-Serif" font-size="10.00">PodAccessOpInterfaceInterface</text>
<text text-anchor="middle" x="311.25" y="-71.25" font-family="Helvetica,sans-Serif" font-size="10.00">Traits::FallbackModel&lt; ConcreteOp &gt;</text>
</a>
</g>
</g>
<!-- Node1&#45;&gt;Node4 -->
<g id="edge3_Node000001_Node000004" class="edge">
<title>Node1&#45;&gt;Node4</title>
<g id="a_edge3_Node000001_Node000004"><a xlink:title=" ">
<path fill="none" stroke="#63b8ff" d="M180.02,-87.12C190.61,-87.12 201.41,-87.12 212.04,-87.12"/>
<polygon fill="#63b8ff" stroke="#63b8ff" points="180.15,-83.63 170.15,-87.13 180.15,-90.63 180.15,-83.63"/>
</a>
</g>
</g>
<!-- Node5 -->
<g id="Node000005" class="node">
<title>Node5</title>
<g id="a_Node000005"><a xlink:href="classllzk_1_1pod_1_1detail_1_1PodAccessOpInterfaceInterfaceTraits_1_1Model.html" target="_top" xlink:title=" ">
<polygon fill="white" stroke="#666666" points="395.38,-46.25 227.12,-46.25 227.12,0 395.38,0 395.38,-46.25"/>
<text text-anchor="start" x="235.12" y="-32.75" font-family="Helvetica,sans-Serif" font-size="10.00">llzk::pod::detail::</text>
<text text-anchor="start" x="235.12" y="-20" font-family="Helvetica,sans-Serif" font-size="10.00">PodAccessOpInterfaceInterface</text>
<text text-anchor="middle" x="311.25" y="-7.25" font-family="Helvetica,sans-Serif" font-size="10.00">Traits::Model&lt; ConcreteOp &gt;</text>
</a>
</g>
</g>
<!-- Node1&#45;&gt;Node5 -->
<g id="edge4_Node000001_Node000005" class="edge">
<title>Node1&#45;&gt;Node5</title>
<g id="a_edge4_Node000001_Node000005"><a xlink:title=" ">
<path fill="none" stroke="#63b8ff" d="M178.97,-60.45C194.97,-55.9 211.49,-51.2 227.18,-46.74"/>
<polygon fill="#63b8ff" stroke="#63b8ff" points="178.11,-57.05 169.45,-63.15 180.03,-63.78 178.11,-57.05"/>
</a>
</g>
</g>
<!-- Node3 -->
<g id="Node000003" class="node">
<title>Node3</title>
<g id="a_Node000003"><a xlink:href="classllzk_1_1pod_1_1detail_1_1PodAccessOpInterfaceInterfaceTraits_1_1ExternalModel.html" target="_top" xlink:title=" ">
<polygon fill="white" stroke="#666666" points="660.75,-180.62 454.25,-180.62 454.25,-121.62 660.75,-121.62 660.75,-180.62"/>
<text text-anchor="start" x="462.25" y="-167.12" font-family="Helvetica,sans-Serif" font-size="10.00">llzk::pod::detail::</text>
<text text-anchor="start" x="462.25" y="-154.38" font-family="Helvetica,sans-Serif" font-size="10.00">PodAccessOpInterfaceInterface</text>
<text text-anchor="start" x="462.25" y="-141.62" font-family="Helvetica,sans-Serif" font-size="10.00">Traits::ExternalModel&lt; ConcreteModel,</text>
<text text-anchor="middle" x="557.5" y="-128.88" font-family="Helvetica,sans-Serif" font-size="10.00"> ConcreteOp &gt;</text>
</a>
</g>
</g>
<!-- Node2&#45;&gt;Node3 -->
<g id="edge2_Node000002_Node000003" class="edge">
<title>Node2&#45;&gt;Node3</title>
<g id="a_edge2_Node000002_Node000003"><a xlink:title=" ">
<path fill="none" stroke="#63b8ff" d="M429.96,-151.12C437.96,-151.12 446,-151.12 453.91,-151.12"/>
<polygon fill="#63b8ff" stroke="#63b8ff" points="430.18,-147.63 420.18,-151.13 430.18,-154.63 430.18,-147.63"/>
</a>
</g>
</g>
</g>
</svg>
