<?xml version="1.0" encoding="UTF-8" standalone="no"?>
<!DOCTYPE svg PUBLIC "-//W3C//DTD SVG 1.1//EN"
 "http://www.w3.org/Graphics/SVG/1.1/DTD/svg11.dtd">
<!-- Generated by graphviz version 12.2.1 (0)
 -->
<!-- Title: llzk::component::StructDialectBytecodeInterface Pages: 1 -->
<svg width="173pt" height="168pt"
 viewBox="0.00 0.00 173.25 167.75" xmlns="http://www.w3.org/2000/svg" xmlns:xlink="http://www.w3.org/1999/xlink">
<g id="graph0" class="graph" transform="scale(1 1) rotate(0) translate(4 163.75)">
<title>llzk::component::StructDialectBytecodeInterface</title>
<!-- Node1 -->
<g id="Node000001" class="node">
<title>Node1</title>
<g id="a_Node000001"><a xlink:title="Implement version upgrade for StructDialect.">
<polygon fill="#999999" stroke="#666666" points="164.12,-33.5 1.12,-33.5 1.12,0 164.12,0 164.12,-33.5"/>
<text text-anchor="start" x="9.12" y="-20" font-family="Helvetica,sans-Serif" font-size="10.00">llzk::component::StructDialect</text>
<text text-anchor="middle" x="82.62" y="-7.25" font-family="Helvetica,sans-Serif" font-size="10.00">BytecodeInterface</text>
</a>
</g>
</g>
<!-- Node2 -->
<g id="Node000002" class="node">
<title>Node2</title>
<g id="a_Node000002"><a xlink:href="structllzk_1_1LLZKDialectBytecodeInterface.html" target="_top" xlink:title=" ">
<polygon fill="white" stroke="#666666" points="155.12,-103 10.12,-103 10.12,-69.5 155.12,-69.5 155.12,-103"/>
<text text-anchor="start" x="18.12" y="-89.5" font-family="Helvetica,sans-Serif" font-size="10.00">llzk::LLZKDialectBytecode</text>
<text text-anchor="middle" x="82.62" y="-76.75" font-family="Helvetica,sans-Serif" font-size="10.00">Interface&lt; StructDialect &gt;</text>
</a>
</g>
</g>
<!-- Node2&#45;&gt;Node1 -->
<g id="edge1_Node000001_Node000002" class="edge">
<title>Node2&#45;&gt;Node1</title>
<g id="a_edge1_Node000001_Node000002"><a xlink:title=" ">
<path fill="none" stroke="#63b8ff" d="M82.62,-57.81C82.62,-49.59 82.62,-40.84 82.62,-33.63"/>
<polygon fill="#63b8ff" stroke="#63b8ff" points="79.13,-57.74 82.63,-67.74 86.13,-57.74 79.13,-57.74"/>
</a>
</g>
</g>
<!-- Node3 -->
<g id="Node000003" class="node">
<title>Node3</title>
<g id="a_Node000003"><a xlink:title=" ">
<polygon fill="white" stroke="#666666" points="165.25,-159.75 0,-159.75 0,-139 165.25,-139 165.25,-159.75"/>
<text text-anchor="middle" x="82.62" y="-146.25" font-family="Helvetica,sans-Serif" font-size="10.00">mlir::BytecodeDialectInterface</text>
</a>
</g>
</g>
<!-- Node3&#45;&gt;Node2 -->
<g id="edge2_Node000002_Node000003" class="edge">
<title>Node3&#45;&gt;Node2</title>
<g id="a_edge2_Node000002_Node000003"><a xlink:title=" ">
<path fill="none" stroke="#63b8ff" d="M82.62,-127.09C82.62,-119.35 82.62,-110.72 82.62,-103.48"/>
<polygon fill="#63b8ff" stroke="#63b8ff" points="79.13,-127.04 82.63,-137.04 86.13,-127.04 79.13,-127.04"/>
</a>
</g>
</g>
</g>
</svg>
