<?xml version="1.0" encoding="UTF-8" standalone="no"?>
<!DOCTYPE svg PUBLIC "-//W3C//DTD SVG 1.1//EN"
 "http://www.w3.org/Graphics/SVG/1.1/DTD/svg11.dtd">
<!-- Generated by graphviz version 12.2.1 (0)
 -->
<!-- Title: lib/Dialect/Struct/IR/Types.cpp Pages: 1 -->
<svg width="2287pt" height="376pt"
 viewBox="0.00 0.00 2287.12 376.25" xmlns="http://www.w3.org/2000/svg" xmlns:xlink="http://www.w3.org/1999/xlink">
<g id="graph0" class="graph" transform="scale(1 1) rotate(0) translate(4 372.25)">
<title>lib/Dialect/Struct/IR/Types.cpp</title>
<!-- Node1 -->
<g id="Node000001" class="node">
<title>Node1</title>
<g id="a_Node000001"><a xlink:title=" ">
<polygon fill="#999999" stroke="#666666" points="1046.5,-368.25 949.5,-368.25 949.5,-334.75 1046.5,-334.75 1046.5,-368.25"/>
<text text-anchor="start" x="957.5" y="-354.75" font-family="Helvetica,sans-Serif" font-size="10.00">lib/Dialect/Struct</text>
<text text-anchor="middle" x="998" y="-342" font-family="Helvetica,sans-Serif" font-size="10.00">/IR/Types.cpp</text>
</a>
</g>
</g>
<!-- Node2 -->
<g id="Node000002" class="node">
<title>Node2</title>
<g id="a_Node000002"><a xlink:href="AttributeHelper_8h.html" target="_top" xlink:title=" ">
<polygon fill="white" stroke="#666666" points="380.25,-298.75 269.75,-298.75 269.75,-265.25 380.25,-265.25 380.25,-298.75"/>
<text text-anchor="start" x="277.75" y="-285.25" font-family="Helvetica,sans-Serif" font-size="10.00">llzk/Dialect/LLZK/IR</text>
<text text-anchor="middle" x="325" y="-272.5" font-family="Helvetica,sans-Serif" font-size="10.00">/AttributeHelper.h</text>
</a>
</g>
</g>
<!-- Node1&#45;&gt;Node2 -->
<g id="edge1_Node000001_Node000002" class="edge">
<title>Node1&#45;&gt;Node2</title>
<g id="a_edge1_Node000001_Node000002"><a xlink:title=" ">
<path fill="none" stroke="#63b8ff" d="M949.06,-345.59C830.32,-333.68 526.8,-303.24 391.65,-289.69"/>
<polygon fill="#63b8ff" stroke="#63b8ff" points="392.08,-286.21 381.78,-288.7 391.38,-293.18 392.08,-286.21"/>
</a>
</g>
</g>
<!-- Node7 -->
<g id="Node000007" class="node">
<title>Node7</title>
<g id="a_Node000007"><a xlink:href="Struct_2IR_2Ops_8h.html" target="_top" xlink:title=" ">
<polygon fill="white" stroke="#666666" points="1049.12,-298.75 946.88,-298.75 946.88,-265.25 1049.12,-265.25 1049.12,-298.75"/>
<text text-anchor="start" x="954.88" y="-285.25" font-family="Helvetica,sans-Serif" font-size="10.00">llzk/Dialect/Struct</text>
<text text-anchor="middle" x="998" y="-272.5" font-family="Helvetica,sans-Serif" font-size="10.00">/IR/Ops.h</text>
</a>
</g>
</g>
<!-- Node1&#45;&gt;Node7 -->
<g id="edge6_Node000001_Node000007" class="edge">
<title>Node1&#45;&gt;Node7</title>
<g id="a_edge6_Node000001_Node000007"><a xlink:title=" ">
<path fill="none" stroke="#63b8ff" d="M998,-334.5C998,-327.27 998,-318.53 998,-310.31"/>
<polygon fill="#63b8ff" stroke="#63b8ff" points="1001.5,-310.4 998,-300.4 994.5,-310.4 1001.5,-310.4"/>
</a>
</g>
</g>
<!-- Node28 -->
<g id="Node000028" class="node">
<title>Node28</title>
<g id="a_Node000028"><a xlink:href="Struct_2IR_2Types_8h.html" target="_top" xlink:title=" ">
<polygon fill="white" stroke="#666666" points="1574.12,-229.25 1471.88,-229.25 1471.88,-195.75 1574.12,-195.75 1574.12,-229.25"/>
<text text-anchor="start" x="1479.88" y="-215.75" font-family="Helvetica,sans-Serif" font-size="10.00">llzk/Dialect/Struct</text>
<text text-anchor="middle" x="1523" y="-203" font-family="Helvetica,sans-Serif" font-size="10.00">/IR/Types.h</text>
</a>
</g>
</g>
<!-- Node1&#45;&gt;Node28 -->
<g id="edge63_Node000001_Node000028" class="edge">
<title>Node1&#45;&gt;Node28</title>
<g id="a_edge63_Node000001_Node000028"><a xlink:title=" ">
<path fill="none" stroke="#63b8ff" d="M1046.92,-337.73C1142.7,-312.74 1354.85,-257.38 1460.58,-229.79"/>
<polygon fill="#63b8ff" stroke="#63b8ff" points="1461.44,-233.18 1470.23,-227.27 1459.68,-226.41 1461.44,-233.18"/>
</a>
</g>
</g>
<!-- Node3 -->
<g id="Node000003" class="node">
<title>Node3</title>
<g id="a_Node000003"><a xlink:href="StreamHelper_8h.html" target="_top" xlink:title=" ">
<polygon fill="white" stroke="#666666" points="143.12,-222.88 10.88,-222.88 10.88,-202.12 143.12,-202.12 143.12,-222.88"/>
<text text-anchor="middle" x="77" y="-209.38" font-family="Helvetica,sans-Serif" font-size="10.00">llzk/Util/StreamHelper.h</text>
</a>
</g>
</g>
<!-- Node2&#45;&gt;Node3 -->
<g id="edge2_Node000002_Node000003" class="edge">
<title>Node2&#45;&gt;Node3</title>
<g id="a_edge2_Node000002_Node000003"><a xlink:title=" ">
<path fill="none" stroke="#63b8ff" d="M269.34,-265.85C225.52,-253.92 165.13,-237.49 123.78,-226.23"/>
<polygon fill="#63b8ff" stroke="#63b8ff" points="124.94,-222.92 114.38,-223.67 123.11,-229.68 124.94,-222.92"/>
</a>
</g>
</g>
<!-- Node5 -->
<g id="Node000005" class="node">
<title>Node5</title>
<g id="a_Node000005"><a xlink:title=" ">
<polygon fill="#e0e0e0" stroke="#999999" points="334.38,-222.88 161.62,-222.88 161.62,-202.12 334.38,-202.12 334.38,-222.88"/>
<text text-anchor="middle" x="248" y="-209.38" font-family="Helvetica,sans-Serif" font-size="10.00">mlir/IR/DialectImplementation.h</text>
</a>
</g>
</g>
<!-- Node2&#45;&gt;Node5 -->
<g id="edge4_Node000002_Node000005" class="edge">
<title>Node2&#45;&gt;Node5</title>
<g id="a_edge4_Node000002_Node000005"><a xlink:title=" ">
<path fill="none" stroke="#63b8ff" d="M306.75,-265C294.99,-254.69 279.69,-241.28 267.66,-230.73"/>
<polygon fill="#63b8ff" stroke="#63b8ff" points="270.17,-228.28 260.34,-224.32 265.55,-233.54 270.17,-228.28"/>
</a>
</g>
</g>
<!-- Node6 -->
<g id="Node000006" class="node">
<title>Node6</title>
<g id="a_Node000006"><a xlink:title=" ">
<polygon fill="#e0e0e0" stroke="#999999" points="451.25,-222.88 352.75,-222.88 352.75,-202.12 451.25,-202.12 451.25,-222.88"/>
<text text-anchor="middle" x="402" y="-209.38" font-family="Helvetica,sans-Serif" font-size="10.00">llvm/ADT/APInt.h</text>
</a>
</g>
</g>
<!-- Node2&#45;&gt;Node6 -->
<g id="edge5_Node000002_Node000006" class="edge">
<title>Node2&#45;&gt;Node6</title>
<g id="a_edge5_Node000002_Node000006"><a xlink:title=" ">
<path fill="none" stroke="#63b8ff" d="M343.25,-265C355.01,-254.69 370.31,-241.28 382.34,-230.73"/>
<polygon fill="#63b8ff" stroke="#63b8ff" points="384.45,-233.54 389.66,-224.32 379.83,-228.28 384.45,-233.54"/>
</a>
</g>
</g>
<!-- Node4 -->
<g id="Node000004" class="node">
<title>Node4</title>
<g id="a_Node000004"><a xlink:title=" ">
<polygon fill="#e0e0e0" stroke="#999999" points="154,-153.38 0,-153.38 0,-132.62 154,-132.62 154,-153.38"/>
<text text-anchor="middle" x="77" y="-139.88" font-family="Helvetica,sans-Serif" font-size="10.00">llvm/Support/raw_ostream.h</text>
</a>
</g>
</g>
<!-- Node3&#45;&gt;Node4 -->
<g id="edge3_Node000003_Node000004" class="edge">
<title>Node3&#45;&gt;Node4</title>
<g id="a_edge3_Node000003_Node000004"><a xlink:title=" ">
<path fill="none" stroke="#63b8ff" d="M77,-201.83C77,-192.21 77,-177.13 77,-164.79"/>
<polygon fill="#63b8ff" stroke="#63b8ff" points="80.5,-165.17 77,-155.17 73.5,-165.17 80.5,-165.17"/>
</a>
</g>
</g>
<!-- Node8 -->
<g id="Node000008" class="node">
<title>Node8</title>
<g id="a_Node000008"><a xlink:href="OpTraits_8h.html" target="_top" xlink:title=" ">
<polygon fill="white" stroke="#666666" points="1179.5,-229.25 1064.5,-229.25 1064.5,-195.75 1179.5,-195.75 1179.5,-229.25"/>
<text text-anchor="start" x="1072.5" y="-215.75" font-family="Helvetica,sans-Serif" font-size="10.00">llzk/Dialect/Function</text>
<text text-anchor="middle" x="1122" y="-203" font-family="Helvetica,sans-Serif" font-size="10.00">/IR/OpTraits.h</text>
</a>
</g>
</g>
<!-- Node7&#45;&gt;Node8 -->
<g id="edge7_Node000007_Node000008" class="edge">
<title>Node7&#45;&gt;Node8</title>
<g id="a_edge7_Node000007_Node000008"><a xlink:title=" ">
<path fill="none" stroke="#63b8ff" d="M1027.7,-264.83C1044.11,-255.9 1064.71,-244.69 1082.47,-235.02"/>
<polygon fill="#63b8ff" stroke="#63b8ff" points="1084.1,-238.11 1091.21,-230.26 1080.76,-231.97 1084.1,-238.11"/>
</a>
</g>
</g>
<!-- Node12 -->
<g id="Node000012" class="node">
<title>Node12</title>
<g id="a_Node000012"><a xlink:href="LLZK_2IR_2Attrs_8h.html" target="_top" xlink:title=" ">
<polygon fill="white" stroke="#666666" points="580.25,-229.25 469.75,-229.25 469.75,-195.75 580.25,-195.75 580.25,-229.25"/>
<text text-anchor="start" x="477.75" y="-215.75" font-family="Helvetica,sans-Serif" font-size="10.00">llzk/Dialect/LLZK/IR</text>
<text text-anchor="middle" x="525" y="-203" font-family="Helvetica,sans-Serif" font-size="10.00">/Attrs.h</text>
</a>
</g>
</g>
<!-- Node7&#45;&gt;Node12 -->
<g id="edge11_Node000007_Node000012" class="edge">
<title>Node7&#45;&gt;Node12</title>
<g id="a_edge11_Node000007_Node000012"><a xlink:title=" ">
<path fill="none" stroke="#63b8ff" d="M946.48,-273.65C860.31,-261.35 687.05,-236.63 591.7,-223.02"/>
<polygon fill="#63b8ff" stroke="#63b8ff" points="592.36,-219.58 581.96,-221.63 591.37,-226.51 592.36,-219.58"/>
</a>
</g>
</g>
<!-- Node15 -->
<g id="Node000015" class="node">
<title>Node15</title>
<g id="a_Node000015"><a xlink:href="OpHelpers_8h.html" target="_top" xlink:title=" ">
<polygon fill="white" stroke="#666666" points="961.75,-229.25 854.25,-229.25 854.25,-195.75 961.75,-195.75 961.75,-229.25"/>
<text text-anchor="start" x="862.25" y="-215.75" font-family="Helvetica,sans-Serif" font-size="10.00">llzk/Dialect/Shared</text>
<text text-anchor="middle" x="908" y="-203" font-family="Helvetica,sans-Serif" font-size="10.00">/OpHelpers.h</text>
</a>
</g>
</g>
<!-- Node7&#45;&gt;Node15 -->
<g id="edge14_Node000007_Node000015" class="edge">
<title>Node7&#45;&gt;Node15</title>
<g id="a_edge14_Node000007_Node000015"><a xlink:title=" ">
<path fill="none" stroke="#63b8ff" d="M976.67,-265C965.32,-256.49 951.16,-245.87 938.66,-236.49"/>
<polygon fill="#63b8ff" stroke="#63b8ff" points="940.8,-233.72 930.7,-230.52 936.6,-239.32 940.8,-233.72"/>
</a>
</g>
</g>
<!-- Node7&#45;&gt;Node28 -->
<g id="edge32_Node000007_Node000028" class="edge">
<title>Node7&#45;&gt;Node28</title>
<g id="a_edge32_Node000007_Node000028"><a xlink:title=" ">
<path fill="none" stroke="#63b8ff" d="M1049.3,-274.4C1146.04,-261.97 1355.13,-235.08 1460.14,-221.58"/>
<polygon fill="#63b8ff" stroke="#63b8ff" points="1460.52,-225.06 1470,-220.31 1459.63,-218.12 1460.52,-225.06"/>
</a>
</g>
</g>
<!-- Node44 -->
<g id="Node000044" class="node">
<title>Node44</title>
<g id="a_Node000044"><a xlink:href="Struct_2IR_2Ops_8h_8inc.html" target="_top" xlink:title=" ">
<polygon fill="white" stroke="#666666" points="1445.12,-159.75 1342.88,-159.75 1342.88,-126.25 1445.12,-126.25 1445.12,-159.75"/>
<text text-anchor="start" x="1350.88" y="-146.25" font-family="Helvetica,sans-Serif" font-size="10.00">llzk/Dialect/Struct</text>
<text text-anchor="middle" x="1394" y="-133.5" font-family="Helvetica,sans-Serif" font-size="10.00">/IR/Ops.h.inc</text>
</a>
</g>
</g>
<!-- Node7&#45;&gt;Node44 -->
<g id="edge62_Node000007_Node000044" class="edge">
<title>Node7&#45;&gt;Node44</title>
<g id="a_edge62_Node000007_Node000044"><a xlink:title=" ">
<path fill="none" stroke="#63b8ff" d="M1049.62,-268.94C1088.36,-259.42 1142.51,-245.14 1189,-229.25 1244.91,-210.14 1307.37,-183.35 1348.49,-164.92"/>
<polygon fill="#63b8ff" stroke="#63b8ff" points="1349.92,-168.12 1357.6,-160.82 1347.05,-161.74 1349.92,-168.12"/>
</a>
</g>
</g>
<!-- Node46 -->
<g id="Node000046" class="node">
<title>Node46</title>
<g id="a_Node000046"><a xlink:href="Struct_2IR_2OpInterfaces_8h_8inc.html" target="_top" xlink:title=" ">
<polygon fill="white" stroke="#666666" points="836.12,-229.25 715.88,-229.25 715.88,-195.75 836.12,-195.75 836.12,-229.25"/>
<text text-anchor="start" x="723.88" y="-215.75" font-family="Helvetica,sans-Serif" font-size="10.00">llzk/Dialect/Struct</text>
<text text-anchor="middle" x="776" y="-203" font-family="Helvetica,sans-Serif" font-size="10.00">/IR/OpInterfaces.h.inc</text>
</a>
</g>
</g>
<!-- Node7&#45;&gt;Node46 -->
<g id="edge61_Node000007_Node000046" class="edge">
<title>Node7&#45;&gt;Node46</title>
<g id="a_edge61_Node000007_Node000046"><a xlink:title=" ">
<path fill="none" stroke="#63b8ff" d="M946.51,-265.34C914.73,-255.68 873.7,-243.21 839.85,-232.92"/>
<polygon fill="#63b8ff" stroke="#63b8ff" points="841.17,-229.66 830.59,-230.1 839.14,-236.36 841.17,-229.66"/>
</a>
</g>
</g>
<!-- Node9 -->
<g id="Node000009" class="node">
<title>Node9</title>
<g id="a_Node000009"><a xlink:title=" ">
<polygon fill="#e0e0e0" stroke="#999999" points="1324.5,-153.38 1203.5,-153.38 1203.5,-132.62 1324.5,-132.62 1324.5,-153.38"/>
<text text-anchor="middle" x="1264" y="-139.88" font-family="Helvetica,sans-Serif" font-size="10.00">mlir/IR/OpDefinition.h</text>
</a>
</g>
</g>
<!-- Node8&#45;&gt;Node9 -->
<g id="edge8_Node000008_Node000009" class="edge">
<title>Node8&#45;&gt;Node9</title>
<g id="a_edge8_Node000008_Node000009"><a xlink:title=" ">
<path fill="none" stroke="#63b8ff" d="M1156.01,-195.33C1179.53,-184.15 1210.56,-169.4 1233.32,-158.59"/>
<polygon fill="#63b8ff" stroke="#63b8ff" points="1234.55,-161.88 1242.08,-154.42 1231.54,-155.55 1234.55,-161.88"/>
</a>
</g>
</g>
<!-- Node10 -->
<g id="Node000010" class="node">
<title>Node10</title>
<g id="a_Node000010"><a xlink:title=" ">
<polygon fill="#e0e0e0" stroke="#999999" points="1202.12,-20.75 1093.88,-20.75 1093.88,0 1202.12,0 1202.12,-20.75"/>
<text text-anchor="middle" x="1148" y="-7.25" font-family="Helvetica,sans-Serif" font-size="10.00">mlir/IR/Operation.h</text>
</a>
</g>
</g>
<!-- Node8&#45;&gt;Node10 -->
<g id="edge9_Node000008_Node000010" class="edge">
<title>Node8&#45;&gt;Node10</title>
<g id="a_edge9_Node000008_Node000010"><a xlink:title=" ">
<path fill="none" stroke="#63b8ff" d="M1136.04,-195.51C1143.56,-185.87 1152.06,-172.93 1156,-159.75 1169.2,-115.63 1160.1,-60.9 1153.38,-31.81"/>
<polygon fill="#63b8ff" stroke="#63b8ff" points="1156.88,-31.35 1151.09,-22.48 1150.08,-33.03 1156.88,-31.35"/>
</a>
</g>
</g>
<!-- Node11 -->
<g id="Node000011" class="node">
<title>Node11</title>
<g id="a_Node000011"><a xlink:title=" ">
<polygon fill="#e0e0e0" stroke="#999999" points="1146.62,-153.38 993.38,-153.38 993.38,-132.62 1146.62,-132.62 1146.62,-153.38"/>
<text text-anchor="middle" x="1070" y="-139.88" font-family="Helvetica,sans-Serif" font-size="10.00">mlir/Support/LogicalResult.h</text>
</a>
</g>
</g>
<!-- Node8&#45;&gt;Node11 -->
<g id="edge10_Node000008_Node000011" class="edge">
<title>Node8&#45;&gt;Node11</title>
<g id="a_edge10_Node000008_Node000011"><a xlink:title=" ">
<path fill="none" stroke="#63b8ff" d="M1109.68,-195.5C1102.12,-185.69 1092.41,-173.09 1084.49,-162.8"/>
<polygon fill="#63b8ff" stroke="#63b8ff" points="1087.37,-160.81 1078.49,-155.02 1081.82,-165.08 1087.37,-160.81"/>
</a>
</g>
</g>
<!-- Node13 -->
<g id="Node000013" class="node">
<title>Node13</title>
<g id="a_Node000013"><a xlink:title=" ">
<polygon fill="#e0e0e0" stroke="#999999" points="493.12,-153.38 384.88,-153.38 384.88,-132.62 493.12,-132.62 493.12,-153.38"/>
<text text-anchor="middle" x="439" y="-139.88" font-family="Helvetica,sans-Serif" font-size="10.00">mlir/IR/Attributes.h</text>
</a>
</g>
</g>
<!-- Node12&#45;&gt;Node13 -->
<g id="edge12_Node000012_Node000013" class="edge">
<title>Node12&#45;&gt;Node13</title>
<g id="a_edge12_Node000012_Node000013"><a xlink:title=" ">
<path fill="none" stroke="#63b8ff" d="M504.62,-195.5C491.35,-185.09 474.06,-171.52 460.56,-160.92"/>
<polygon fill="#63b8ff" stroke="#63b8ff" points="462.73,-158.18 452.7,-154.76 458.41,-163.68 462.73,-158.18"/>
</a>
</g>
</g>
<!-- Node14 -->
<g id="Node000014" class="node">
<title>Node14</title>
<g id="a_Node000014"><a xlink:href="LLZK_2IR_2Attrs_8h_8inc.html" target="_top" xlink:title=" ">
<polygon fill="white" stroke="#666666" points="367.25,-159.75 256.75,-159.75 256.75,-126.25 367.25,-126.25 367.25,-159.75"/>
<text text-anchor="start" x="264.75" y="-146.25" font-family="Helvetica,sans-Serif" font-size="10.00">llzk/Dialect/LLZK/IR</text>
<text text-anchor="middle" x="312" y="-133.5" font-family="Helvetica,sans-Serif" font-size="10.00">/Attrs.h.inc</text>
</a>
</g>
</g>
<!-- Node12&#45;&gt;Node14 -->
<g id="edge13_Node000012_Node000014" class="edge">
<title>Node12&#45;&gt;Node14</title>
<g id="a_edge13_Node000012_Node000014"><a xlink:title=" ">
<path fill="none" stroke="#63b8ff" d="M473.98,-195.33C443.93,-185.81 405.69,-173.69 373.92,-163.62"/>
<polygon fill="#63b8ff" stroke="#63b8ff" points="375,-160.29 364.41,-160.61 372.89,-166.97 375,-160.29"/>
</a>
</g>
</g>
<!-- Node15&#45;&gt;Node10 -->
<g id="edge27_Node000015_Node000010" class="edge">
<title>Node15&#45;&gt;Node10</title>
<g id="a_edge27_Node000015_Node000010"><a xlink:title=" ">
<path fill="none" stroke="#63b8ff" d="M854.01,-197.31C799.83,-182.95 724.08,-162.49 722,-159.75 712.99,-147.89 713.5,-138.47 722,-126.25 748.26,-88.5 779.53,-113.85 819,-90.25 838.32,-78.69 836.62,-66.31 857,-56.75 929.08,-22.94 1021.14,-13.47 1082.2,-11.24"/>
<polygon fill="#63b8ff" stroke="#63b8ff" points="1082.21,-14.74 1092.1,-10.94 1081.99,-7.75 1082.21,-14.74"/>
</a>
</g>
</g>
<!-- Node15&#45;&gt;Node11 -->
<g id="edge29_Node000015_Node000011" class="edge">
<title>Node15&#45;&gt;Node11</title>
<g id="a_edge29_Node000015_Node000011"><a xlink:title=" ">
<path fill="none" stroke="#63b8ff" d="M946.8,-195.33C974,-184 1009.99,-169 1036.05,-158.15"/>
<polygon fill="#63b8ff" stroke="#63b8ff" points="1037.27,-161.43 1045.15,-154.35 1034.58,-154.97 1037.27,-161.43"/>
</a>
</g>
</g>
<!-- Node16 -->
<g id="Node000016" class="node">
<title>Node16</title>
<g id="a_Node000016"><a xlink:href="AffineHelper_8h.html" target="_top" xlink:title=" ">
<polygon fill="white" stroke="#666666" points="636.75,-153.38 511.25,-153.38 511.25,-132.62 636.75,-132.62 636.75,-153.38"/>
<text text-anchor="middle" x="574" y="-139.88" font-family="Helvetica,sans-Serif" font-size="10.00">llzk/Util/AffineHelper.h</text>
</a>
</g>
</g>
<!-- Node15&#45;&gt;Node16 -->
<g id="edge15_Node000015_Node000016" class="edge">
<title>Node15&#45;&gt;Node16</title>
<g id="a_edge15_Node000015_Node000016"><a xlink:title=" ">
<path fill="none" stroke="#63b8ff" d="M853.75,-197.71C850.8,-197.03 847.86,-196.37 845,-195.75 759.31,-177.11 737.07,-176.54 651,-159.75 644.97,-158.57 638.69,-157.33 632.42,-156.07"/>
<polygon fill="#63b8ff" stroke="#63b8ff" points="633.19,-152.65 622.69,-154.1 631.8,-159.51 633.19,-152.65"/>
</a>
</g>
</g>
<!-- Node21 -->
<g id="Node000021" class="node">
<title>Node21</title>
<g id="a_Node000021"><a xlink:title=" ">
<polygon fill="#e0e0e0" stroke="#999999" points="809.88,-83.88 658.12,-83.88 658.12,-63.12 809.88,-63.12 809.88,-83.88"/>
<text text-anchor="middle" x="734" y="-70.38" font-family="Helvetica,sans-Serif" font-size="10.00">mlir/IR/OpImplementation.h</text>
</a>
</g>
</g>
<!-- Node15&#45;&gt;Node21 -->
<g id="edge26_Node000015_Node000021" class="edge">
<title>Node15&#45;&gt;Node21</title>
<g id="a_edge26_Node000015_Node000021"><a xlink:title=" ">
<path fill="none" stroke="#63b8ff" d="M854.06,-197.95C851,-197.2 847.96,-196.46 845,-195.75 775.81,-179.12 733.3,-215.43 689,-159.75 672.09,-138.49 694.71,-109.93 713.53,-91.86"/>
<polygon fill="#63b8ff" stroke="#63b8ff" points="715.86,-94.48 720.9,-85.16 711.14,-89.3 715.86,-94.48"/>
</a>
</g>
</g>
<!-- Node24 -->
<g id="Node000024" class="node">
<title>Node24</title>
<g id="a_Node000024"><a xlink:href="llzk_2Util_2Constants_8h.html" target="_top" xlink:title=" ">
<polygon fill="white" stroke="#666666" points="1120.12,-83.88 1005.88,-83.88 1005.88,-63.12 1120.12,-63.12 1120.12,-83.88"/>
<text text-anchor="middle" x="1063" y="-70.38" font-family="Helvetica,sans-Serif" font-size="10.00">llzk/Util/Constants.h</text>
</a>
</g>
</g>
<!-- Node15&#45;&gt;Node24 -->
<g id="edge25_Node000015_Node000024" class="edge">
<title>Node15&#45;&gt;Node24</title>
<g id="a_edge25_Node000015_Node000024"><a xlink:title=" ">
<path fill="none" stroke="#63b8ff" d="M912.54,-195.4C918.57,-176.63 930.85,-145.72 951,-126.25 969.12,-108.74 994.23,-96.4 1016.09,-88.17"/>
<polygon fill="#63b8ff" stroke="#63b8ff" points="1017.16,-91.5 1025.41,-84.85 1014.82,-84.91 1017.16,-91.5"/>
</a>
</g>
</g>
<!-- Node25 -->
<g id="Node000025" class="node">
<title>Node25</title>
<g id="a_Node000025"><a xlink:title=" ">
<polygon fill="#e0e0e0" stroke="#999999" points="988.25,-83.88 865.75,-83.88 865.75,-63.12 988.25,-63.12 988.25,-83.88"/>
<text text-anchor="middle" x="927" y="-70.38" font-family="Helvetica,sans-Serif" font-size="10.00">mlir/IR/SymbolTable.h</text>
</a>
</g>
</g>
<!-- Node15&#45;&gt;Node25 -->
<g id="edge28_Node000015_Node000025" class="edge">
<title>Node15&#45;&gt;Node25</title>
<g id="a_edge28_Node000015_Node000025"><a xlink:title=" ">
<path fill="none" stroke="#63b8ff" d="M907.96,-195.37C908.15,-178.14 909.12,-150.1 913,-126.25 914.68,-115.9 917.6,-104.64 920.33,-95.28"/>
<polygon fill="#63b8ff" stroke="#63b8ff" points="923.67,-96.32 923.26,-85.74 916.98,-94.27 923.67,-96.32"/>
</a>
</g>
</g>
<!-- Node26 -->
<g id="Node000026" class="node">
<title>Node26</title>
<g id="a_Node000026"><a xlink:title=" ">
<polygon fill="#e0e0e0" stroke="#999999" points="860.62,-153.38 731.38,-153.38 731.38,-132.62 860.62,-132.62 860.62,-153.38"/>
<text text-anchor="middle" x="796" y="-139.88" font-family="Helvetica,sans-Serif" font-size="10.00">llvm/ADT/SmallString.h</text>
</a>
</g>
</g>
<!-- Node15&#45;&gt;Node26 -->
<g id="edge30_Node000015_Node000026" class="edge">
<title>Node15&#45;&gt;Node26</title>
<g id="a_edge30_Node000015_Node000026"><a xlink:title=" ">
<path fill="none" stroke="#63b8ff" d="M881.17,-195.33C863.21,-184.51 839.7,-170.34 821.93,-159.63"/>
<polygon fill="#63b8ff" stroke="#63b8ff" points="823.88,-156.72 813.51,-154.55 820.27,-162.71 823.88,-156.72"/>
</a>
</g>
</g>
<!-- Node27 -->
<g id="Node000027" class="node">
<title>Node27</title>
<g id="a_Node000027"><a xlink:title=" ">
<polygon fill="#e0e0e0" stroke="#999999" points="1293.62,-83.88 1176.38,-83.88 1176.38,-63.12 1293.62,-63.12 1293.62,-83.88"/>
<text text-anchor="middle" x="1235" y="-70.38" font-family="Helvetica,sans-Serif" font-size="10.00">llvm/ADT/StringRef.h</text>
</a>
</g>
</g>
<!-- Node15&#45;&gt;Node27 -->
<g id="edge31_Node000015_Node000027" class="edge">
<title>Node15&#45;&gt;Node27</title>
<g id="a_edge31_Node000015_Node000027"><a xlink:title=" ">
<path fill="none" stroke="#63b8ff" d="M921.42,-195.38C941.07,-171.94 976.18,-130.76 984,-126.25 999.75,-117.17 1097.65,-98.6 1166.42,-86.35"/>
<polygon fill="#63b8ff" stroke="#63b8ff" points="1166.89,-89.82 1176.12,-84.63 1165.67,-82.93 1166.89,-89.82"/>
</a>
</g>
</g>
<!-- Node16&#45;&gt;Node10 -->
<g id="edge22_Node000016_Node000010" class="edge">
<title>Node16&#45;&gt;Node10</title>
<g id="a_edge22_Node000016_Node000010"><a xlink:title=" ">
<path fill="none" stroke="#63b8ff" d="M581.13,-132.22C596.25,-111.75 631.6,-65.59 649,-56.75 723.12,-19.1 964.73,-12.38 1082.4,-11.39"/>
<polygon fill="#63b8ff" stroke="#63b8ff" points="1082.25,-14.89 1092.22,-11.32 1082.2,-7.89 1082.25,-14.89"/>
</a>
</g>
</g>
<!-- Node17 -->
<g id="Node000017" class="node">
<title>Node17</title>
<g id="a_Node000017"><a xlink:href="Compare_8h.html" target="_top" xlink:title=" ">
<polygon fill="white" stroke="#666666" points="347.88,-83.88 238.12,-83.88 238.12,-63.12 347.88,-63.12 347.88,-83.88"/>
<text text-anchor="middle" x="293" y="-70.38" font-family="Helvetica,sans-Serif" font-size="10.00">llzk/Util/Compare.h</text>
</a>
</g>
</g>
<!-- Node16&#45;&gt;Node17 -->
<g id="edge16_Node000016_Node000017" class="edge">
<title>Node16&#45;&gt;Node17</title>
<g id="a_edge16_Node000016_Node000017"><a xlink:title=" ">
<path fill="none" stroke="#63b8ff" d="M532.38,-132.17C488.68,-121.82 417.98,-105.02 357,-90.25 352.74,-89.22 348.33,-88.14 343.9,-87.06"/>
<polygon fill="#63b8ff" stroke="#63b8ff" points="344.95,-83.71 334.4,-84.73 343.28,-90.51 344.95,-83.71"/>
</a>
</g>
</g>
<!-- Node20 -->
<g id="Node000020" class="node">
<title>Node20</title>
<g id="a_Node000020"><a xlink:title=" ">
<polygon fill="#e0e0e0" stroke="#999999" points="466,-83.88 366,-83.88 366,-63.12 466,-63.12 466,-83.88"/>
<text text-anchor="middle" x="416" y="-70.38" font-family="Helvetica,sans-Serif" font-size="10.00">mlir/IR/Builders.h</text>
</a>
</g>
</g>
<!-- Node16&#45;&gt;Node20 -->
<g id="edge20_Node000016_Node000020" class="edge">
<title>Node16&#45;&gt;Node20</title>
<g id="a_edge20_Node000016_Node000020"><a xlink:title=" ">
<path fill="none" stroke="#63b8ff" d="M551.03,-132.18C524.35,-120.79 480.1,-101.89 449.57,-88.84"/>
<polygon fill="#63b8ff" stroke="#63b8ff" points="450.97,-85.63 440.39,-84.92 448.22,-92.07 450.97,-85.63"/>
</a>
</g>
</g>
<!-- Node16&#45;&gt;Node21 -->
<g id="edge21_Node000016_Node000021" class="edge">
<title>Node16&#45;&gt;Node21</title>
<g id="a_edge21_Node000016_Node000021"><a xlink:title=" ">
<path fill="none" stroke="#63b8ff" d="M597.27,-132.18C624.4,-120.74 669.48,-101.72 700.41,-88.67"/>
<polygon fill="#63b8ff" stroke="#63b8ff" points="701.46,-92.03 709.31,-84.92 698.74,-85.58 701.46,-92.03"/>
</a>
</g>
</g>
<!-- Node22 -->
<g id="Node000022" class="node">
<title>Node22</title>
<g id="a_Node000022"><a xlink:title=" ">
<polygon fill="#e0e0e0" stroke="#999999" points="602,-83.88 484,-83.88 484,-63.12 602,-63.12 602,-83.88"/>
<text text-anchor="middle" x="543" y="-70.38" font-family="Helvetica,sans-Serif" font-size="10.00">mlir/IR/ValueRange.h</text>
</a>
</g>
</g>
<!-- Node16&#45;&gt;Node22 -->
<g id="edge23_Node000016_Node000022" class="edge">
<title>Node16&#45;&gt;Node22</title>
<g id="a_edge23_Node000016_Node000022"><a xlink:title=" ">
<path fill="none" stroke="#63b8ff" d="M569.56,-132.33C565.05,-122.5 557.93,-107 552.19,-94.52"/>
<polygon fill="#63b8ff" stroke="#63b8ff" points="555.42,-93.16 548.06,-85.53 549.06,-96.08 555.42,-93.16"/>
</a>
</g>
</g>
<!-- Node23 -->
<g id="Node000023" class="node">
<title>Node23</title>
<g id="a_Node000023"><a xlink:title=" ">
<polygon fill="#e0e0e0" stroke="#999999" points="220.38,-83.88 89.62,-83.88 89.62,-63.12 220.38,-63.12 220.38,-83.88"/>
<text text-anchor="middle" x="155" y="-70.38" font-family="Helvetica,sans-Serif" font-size="10.00">llvm/ADT/SmallVector.h</text>
</a>
</g>
</g>
<!-- Node16&#45;&gt;Node23 -->
<g id="edge24_Node000016_Node000023" class="edge">
<title>Node16&#45;&gt;Node23</title>
<g id="a_edge24_Node000016_Node000023"><a xlink:title=" ">
<path fill="none" stroke="#63b8ff" d="M531.86,-132.16C522.09,-130.05 511.71,-127.95 502,-126.25 381.45,-105.15 349.61,-111 229,-90.25 222.61,-89.15 215.94,-87.89 209.33,-86.57"/>
<polygon fill="#63b8ff" stroke="#63b8ff" points="210.31,-83.2 199.81,-84.62 208.9,-90.06 210.31,-83.2"/>
</a>
</g>
</g>
<!-- Node17&#45;&gt;Node10 -->
<g id="edge17_Node000017_Node000010" class="edge">
<title>Node17&#45;&gt;Node10</title>
<g id="a_edge17_Node000017_Node000010"><a xlink:title=" ">
<path fill="none" stroke="#63b8ff" d="M327.98,-62.66C337.34,-60.37 347.5,-58.18 357,-56.75 623.65,-16.64 945.76,-11.35 1082.03,-11.08"/>
<polygon fill="#63b8ff" stroke="#63b8ff" points="1081.95,-14.58 1091.95,-11.06 1081.94,-7.58 1081.95,-14.58"/>
</a>
</g>
</g>
<!-- Node18 -->
<g id="Node000018" class="node">
<title>Node18</title>
<g id="a_Node000018"><a xlink:title=" ">
<polygon fill="#e0e0e0" stroke="#999999" points="357.75,-20.75 298.25,-20.75 298.25,0 357.75,0 357.75,-20.75"/>
<text text-anchor="middle" x="328" y="-7.25" font-family="Helvetica,sans-Serif" font-size="10.00">concepts</text>
</a>
</g>
</g>
<!-- Node17&#45;&gt;Node18 -->
<g id="edge18_Node000017_Node000018" class="edge">
<title>Node17&#45;&gt;Node18</title>
<g id="a_edge18_Node000017_Node000018"><a xlink:title=" ">
<path fill="none" stroke="#63b8ff" d="M298.62,-62.68C303.55,-54.07 310.86,-41.31 316.95,-30.67"/>
<polygon fill="#63b8ff" stroke="#63b8ff" points="319.82,-32.7 321.75,-22.28 313.75,-29.22 319.82,-32.7"/>
</a>
</g>
</g>
<!-- Node19 -->
<g id="Node000019" class="node">
<title>Node19</title>
<g id="a_Node000019"><a xlink:title=" ">
<polygon fill="#e0e0e0" stroke="#999999" points="280.25,-20.75 235.75,-20.75 235.75,0 280.25,0 280.25,-20.75"/>
<text text-anchor="middle" x="258" y="-7.25" font-family="Helvetica,sans-Serif" font-size="10.00">utility</text>
</a>
</g>
</g>
<!-- Node17&#45;&gt;Node19 -->
<g id="edge19_Node000017_Node000019" class="edge">
<title>Node17&#45;&gt;Node19</title>
<g id="a_edge19_Node000017_Node000019"><a xlink:title=" ">
<path fill="none" stroke="#63b8ff" d="M287.38,-62.68C282.45,-54.07 275.14,-41.31 269.05,-30.67"/>
<polygon fill="#63b8ff" stroke="#63b8ff" points="272.25,-29.22 264.25,-22.28 266.18,-32.7 272.25,-29.22"/>
</a>
</g>
</g>
<!-- Node29 -->
<g id="Node000029" class="node">
<title>Node29</title>
<g id="a_Node000029"><a xlink:href="Struct_2IR_2Dialect_8h.html" target="_top" xlink:title=" ">
<polygon fill="white" stroke="#666666" points="2155.12,-159.75 2052.88,-159.75 2052.88,-126.25 2155.12,-126.25 2155.12,-159.75"/>
<text text-anchor="start" x="2060.88" y="-146.25" font-family="Helvetica,sans-Serif" font-size="10.00">llzk/Dialect/Struct</text>
<text text-anchor="middle" x="2104" y="-133.5" font-family="Helvetica,sans-Serif" font-size="10.00">/IR/Dialect.h</text>
</a>
</g>
</g>
<!-- Node28&#45;&gt;Node29 -->
<g id="edge33_Node000028_Node000029" class="edge">
<title>Node28&#45;&gt;Node29</title>
<g id="a_edge33_Node000028_Node000029"><a xlink:title=" ">
<path fill="none" stroke="#63b8ff" d="M1574.56,-205.51C1681.26,-193.11 1925.95,-164.69 2041.46,-151.27"/>
<polygon fill="#63b8ff" stroke="#63b8ff" points="2041.52,-154.78 2051.05,-150.15 2040.72,-147.83 2041.52,-154.78"/>
</a>
</g>
</g>
<!-- Node32 -->
<g id="Node000032" class="node">
<title>Node32</title>
<g id="a_Node000032"><a xlink:href="SymbolLookup_8h.html" target="_top" xlink:title="This file defines methods symbol lookup across LLZK operations and included files.">
<polygon fill="white" stroke="#666666" points="1858.38,-153.38 1721.62,-153.38 1721.62,-132.62 1858.38,-132.62 1858.38,-153.38"/>
<text text-anchor="middle" x="1790" y="-139.88" font-family="Helvetica,sans-Serif" font-size="10.00">llzk/Util/SymbolLookup.h</text>
</a>
</g>
</g>
<!-- Node28&#45;&gt;Node32 -->
<g id="edge36_Node000028_Node000032" class="edge">
<title>Node28&#45;&gt;Node32</title>
<g id="a_edge36_Node000028_Node000032"><a xlink:title=" ">
<path fill="none" stroke="#63b8ff" d="M1574.48,-198.49C1622.32,-186.39 1693.1,-168.5 1740.34,-156.55"/>
<polygon fill="#63b8ff" stroke="#63b8ff" points="1740.92,-160.02 1749.76,-154.17 1739.21,-153.23 1740.92,-160.02"/>
</a>
</g>
</g>
<!-- Node37 -->
<g id="Node000037" class="node">
<title>Node37</title>
<g id="a_Node000037"><a xlink:href="TypeHelper_8h.html" target="_top" xlink:title=" ">
<polygon fill="white" stroke="#666666" points="1582.75,-153.38 1463.25,-153.38 1463.25,-132.62 1582.75,-132.62 1582.75,-153.38"/>
<text text-anchor="middle" x="1523" y="-139.88" font-family="Helvetica,sans-Serif" font-size="10.00">llzk/Util/TypeHelper.h</text>
</a>
</g>
</g>
<!-- Node28&#45;&gt;Node37 -->
<g id="edge45_Node000028_Node000037" class="edge">
<title>Node28&#45;&gt;Node37</title>
<g id="a_edge45_Node000028_Node000037"><a xlink:title=" ">
<path fill="none" stroke="#63b8ff" d="M1523,-195.5C1523,-186.4 1523,-174.89 1523,-165.07"/>
<polygon fill="#63b8ff" stroke="#63b8ff" points="1526.5,-165.34 1523,-155.34 1519.5,-165.34 1526.5,-165.34"/>
</a>
</g>
</g>
<!-- Node28&#45;&gt;Node44 -->
<g id="edge59_Node000028_Node000044" class="edge">
<title>Node28&#45;&gt;Node44</title>
<g id="a_edge59_Node000028_Node000044"><a xlink:title=" ">
<path fill="none" stroke="#63b8ff" d="M1492.1,-195.33C1474.87,-186.32 1453.2,-174.98 1434.61,-165.25"/>
<polygon fill="#63b8ff" stroke="#63b8ff" points="1436.47,-162.27 1425.99,-160.74 1433.23,-168.48 1436.47,-162.27"/>
</a>
</g>
</g>
<!-- Node45 -->
<g id="Node000045" class="node">
<title>Node45</title>
<g id="a_Node000045"><a xlink:href="Struct_2IR_2Types_8h_8inc.html" target="_top" xlink:title=" ">
<polygon fill="white" stroke="#666666" points="1703.12,-159.75 1600.88,-159.75 1600.88,-126.25 1703.12,-126.25 1703.12,-159.75"/>
<text text-anchor="start" x="1608.88" y="-146.25" font-family="Helvetica,sans-Serif" font-size="10.00">llzk/Dialect/Struct</text>
<text text-anchor="middle" x="1652" y="-133.5" font-family="Helvetica,sans-Serif" font-size="10.00">/IR/Types.h.inc</text>
</a>
</g>
</g>
<!-- Node28&#45;&gt;Node45 -->
<g id="edge60_Node000028_Node000045" class="edge">
<title>Node28&#45;&gt;Node45</title>
<g id="a_edge60_Node000028_Node000045"><a xlink:title=" ">
<path fill="none" stroke="#63b8ff" d="M1553.9,-195.33C1571.13,-186.32 1592.8,-174.98 1611.39,-165.25"/>
<polygon fill="#63b8ff" stroke="#63b8ff" points="1612.77,-168.48 1620.01,-160.74 1609.53,-162.27 1612.77,-168.48"/>
</a>
</g>
</g>
<!-- Node30 -->
<g id="Node000030" class="node">
<title>Node30</title>
<g id="a_Node000030"><a xlink:title=" ">
<polygon fill="#e0e0e0" stroke="#999999" points="2159.25,-83.88 2048.75,-83.88 2048.75,-63.12 2159.25,-63.12 2159.25,-83.88"/>
<text text-anchor="middle" x="2104" y="-70.38" font-family="Helvetica,sans-Serif" font-size="10.00">mlir/IR/BuiltinOps.h</text>
</a>
</g>
</g>
<!-- Node29&#45;&gt;Node30 -->
<g id="edge34_Node000029_Node000030" class="edge">
<title>Node29&#45;&gt;Node30</title>
<g id="a_edge34_Node000029_Node000030"><a xlink:title=" ">
<path fill="none" stroke="#63b8ff" d="M2104,-126C2104,-116.9 2104,-105.39 2104,-95.57"/>
<polygon fill="#63b8ff" stroke="#63b8ff" points="2107.5,-95.84 2104,-85.84 2100.5,-95.84 2107.5,-95.84"/>
</a>
</g>
</g>
<!-- Node31 -->
<g id="Node000031" class="node">
<title>Node31</title>
<g id="a_Node000031"><a xlink:href="Struct_2IR_2Dialect_8h_8inc.html" target="_top" xlink:title=" ">
<polygon fill="white" stroke="#666666" points="2279.12,-90.25 2176.88,-90.25 2176.88,-56.75 2279.12,-56.75 2279.12,-90.25"/>
<text text-anchor="start" x="2184.88" y="-76.75" font-family="Helvetica,sans-Serif" font-size="10.00">llzk/Dialect/Struct</text>
<text text-anchor="middle" x="2228" y="-64" font-family="Helvetica,sans-Serif" font-size="10.00">/IR/Dialect.h.inc</text>
</a>
</g>
</g>
<!-- Node29&#45;&gt;Node31 -->
<g id="edge35_Node000029_Node000031" class="edge">
<title>Node29&#45;&gt;Node31</title>
<g id="a_edge35_Node000029_Node000031"><a xlink:title=" ">
<path fill="none" stroke="#63b8ff" d="M2133.7,-125.83C2150.11,-116.9 2170.71,-105.69 2188.47,-96.02"/>
<polygon fill="#63b8ff" stroke="#63b8ff" points="2190.1,-99.11 2197.21,-91.26 2186.76,-92.97 2190.1,-99.11"/>
</a>
</g>
</g>
<!-- Node32&#45;&gt;Node10 -->
<g id="edge39_Node000032_Node000010" class="edge">
<title>Node32&#45;&gt;Node10</title>
<g id="a_edge39_Node000032_Node000010"><a xlink:title=" ">
<path fill="none" stroke="#63b8ff" d="M1754.3,-132.15C1726.12,-123.49 1686.46,-109.29 1655,-90.25 1635.74,-78.59 1637.65,-65.71 1617,-56.75 1580.88,-41.07 1333.8,-23.31 1213.51,-15.47"/>
<polygon fill="#63b8ff" stroke="#63b8ff" points="1214,-11.99 1203.79,-14.84 1213.54,-18.98 1214,-11.99"/>
</a>
</g>
</g>
<!-- Node32&#45;&gt;Node24 -->
<g id="edge37_Node000032_Node000024" class="edge">
<title>Node32&#45;&gt;Node24</title>
<g id="a_edge37_Node000032_Node000024"><a xlink:title=" ">
<path fill="none" stroke="#63b8ff" d="M1746.44,-132.14C1735.27,-129.9 1723.23,-127.75 1712,-126.25 1471.38,-94.16 1408.33,-116.45 1167,-90.25 1155.51,-89 1143.35,-87.41 1131.55,-85.72"/>
<polygon fill="#63b8ff" stroke="#63b8ff" points="1132.28,-82.29 1121.87,-84.3 1131.26,-89.21 1132.28,-82.29"/>
</a>
</g>
</g>
<!-- Node32&#45;&gt;Node27 -->
<g id="edge42_Node000032_Node000027" class="edge">
<title>Node32&#45;&gt;Node27</title>
<g id="a_edge42_Node000032_Node000027"><a xlink:title=" ">
<path fill="none" stroke="#63b8ff" d="M1745.18,-132.13C1734.35,-129.98 1722.79,-127.86 1712,-126.25 1548.15,-101.82 1505.43,-110.43 1341,-90.25 1329.45,-88.83 1317.23,-87.17 1305.34,-85.46"/>
<polygon fill="#63b8ff" stroke="#63b8ff" points="1305.97,-82.02 1295.57,-84.04 1304.96,-88.95 1305.97,-82.02"/>
</a>
</g>
</g>
<!-- Node32&#45;&gt;Node30 -->
<g id="edge38_Node000032_Node000030" class="edge">
<title>Node32&#45;&gt;Node30</title>
<g id="a_edge38_Node000032_Node000030"><a xlink:title=" ">
<path fill="none" stroke="#63b8ff" d="M1837.47,-132.21C1886.87,-121.97 1966.43,-105.32 2035,-90.25 2039.93,-89.17 2045.05,-88.03 2050.17,-86.88"/>
<polygon fill="#63b8ff" stroke="#63b8ff" points="2050.87,-90.31 2059.85,-84.69 2049.33,-83.48 2050.87,-90.31"/>
</a>
</g>
</g>
<!-- Node33 -->
<g id="Node000033" class="node">
<title>Node33</title>
<g id="a_Node000033"><a xlink:title=" ">
<polygon fill="#e0e0e0" stroke="#999999" points="1928.12,-83.88 1801.88,-83.88 1801.88,-63.12 1928.12,-63.12 1928.12,-83.88"/>
<text text-anchor="middle" x="1865" y="-70.38" font-family="Helvetica,sans-Serif" font-size="10.00">mlir/IR/OwningOpRef.h</text>
</a>
</g>
</g>
<!-- Node32&#45;&gt;Node33 -->
<g id="edge40_Node000032_Node000033" class="edge">
<title>Node32&#45;&gt;Node33</title>
<g id="a_edge40_Node000032_Node000033"><a xlink:title=" ">
<path fill="none" stroke="#63b8ff" d="M1800.75,-132.33C1812.55,-121.7 1831.74,-104.43 1846.08,-91.53"/>
<polygon fill="#63b8ff" stroke="#63b8ff" points="1848.06,-94.46 1853.15,-85.17 1843.37,-89.25 1848.06,-94.46"/>
</a>
</g>
</g>
<!-- Node34 -->
<g id="Node000034" class="node">
<title>Node34</title>
<g id="a_Node000034"><a xlink:title=" ">
<polygon fill="#e0e0e0" stroke="#999999" points="1607.5,-83.88 1492.5,-83.88 1492.5,-63.12 1607.5,-63.12 1607.5,-83.88"/>
<text text-anchor="middle" x="1550" y="-70.38" font-family="Helvetica,sans-Serif" font-size="10.00">llvm/ADT/ArrayRef.h</text>
</a>
</g>
</g>
<!-- Node32&#45;&gt;Node34 -->
<g id="edge41_Node000032_Node000034" class="edge">
<title>Node32&#45;&gt;Node34</title>
<g id="a_edge41_Node000032_Node000034"><a xlink:title=" ">
<path fill="none" stroke="#63b8ff" d="M1755.1,-132.18C1713.07,-120.36 1642.32,-100.47 1595.9,-87.41"/>
<polygon fill="#63b8ff" stroke="#63b8ff" points="1596.97,-84.07 1586.4,-84.74 1595.08,-90.81 1596.97,-84.07"/>
</a>
</g>
</g>
<!-- Node35 -->
<g id="Node000035" class="node">
<title>Node35</title>
<g id="a_Node000035"><a xlink:title=" ">
<polygon fill="#e0e0e0" stroke="#999999" points="2033.25,-20.75 1982.75,-20.75 1982.75,0 2033.25,0 2033.25,-20.75"/>
<text text-anchor="middle" x="2008" y="-7.25" font-family="Helvetica,sans-Serif" font-size="10.00">variant</text>
</a>
</g>
</g>
<!-- Node32&#45;&gt;Node35 -->
<g id="edge43_Node000032_Node000035" class="edge">
<title>Node32&#45;&gt;Node35</title>
<g id="a_edge43_Node000032_Node000035"><a xlink:title=" ">
<path fill="none" stroke="#63b8ff" d="M1858.67,-133.99C1913.29,-126.1 1983.52,-112.02 2002,-90.25 2015.37,-74.49 2015.1,-50.01 2012.6,-32.5"/>
<polygon fill="#63b8ff" stroke="#63b8ff" points="2016.05,-31.91 2010.82,-22.7 2009.16,-33.16 2016.05,-31.91"/>
</a>
</g>
</g>
<!-- Node36 -->
<g id="Node000036" class="node">
<title>Node36</title>
<g id="a_Node000036"><a xlink:title=" ">
<polygon fill="#e0e0e0" stroke="#999999" points="1993.38,-83.88 1946.62,-83.88 1946.62,-63.12 1993.38,-63.12 1993.38,-83.88"/>
<text text-anchor="middle" x="1970" y="-70.38" font-family="Helvetica,sans-Serif" font-size="10.00">vector</text>
</a>
</g>
</g>
<!-- Node32&#45;&gt;Node36 -->
<g id="edge44_Node000032_Node000036" class="edge">
<title>Node32&#45;&gt;Node36</title>
<g id="a_edge44_Node000032_Node000036"><a xlink:title=" ">
<path fill="none" stroke="#63b8ff" d="M1821.05,-132.14C1851.05,-122.36 1897.62,-106.53 1937,-90.25 1937.95,-89.86 1938.91,-89.45 1939.88,-89.04"/>
<polygon fill="#63b8ff" stroke="#63b8ff" points="1941.21,-92.27 1948.88,-84.97 1938.33,-85.9 1941.21,-92.27"/>
</a>
</g>
</g>
<!-- Node37&#45;&gt;Node10 -->
<g id="edge54_Node000037_Node000010" class="edge">
<title>Node37&#45;&gt;Node10</title>
<g id="a_edge54_Node000037_Node000010"><a xlink:title=" ">
<path fill="none" stroke="#63b8ff" d="M1480.21,-132.15C1434.35,-121.2 1364.93,-103.32 1341,-90.25 1321.24,-79.46 1322.72,-67.62 1303,-56.75 1275.36,-41.52 1242.06,-30.91 1213.42,-23.8"/>
<polygon fill="#63b8ff" stroke="#63b8ff" points="1214.3,-20.41 1203.76,-21.5 1212.68,-27.22 1214.3,-20.41"/>
</a>
</g>
</g>
<!-- Node37&#45;&gt;Node21 -->
<g id="edge53_Node000037_Node000021" class="edge">
<title>Node37&#45;&gt;Node21</title>
<g id="a_edge53_Node000037_Node000021"><a xlink:title=" ">
<path fill="none" stroke="#63b8ff" d="M1484.89,-132.13C1474.9,-129.86 1464.1,-127.7 1454,-126.25 1190.87,-88.55 1121.65,-115.14 857,-90.25 843.69,-89 829.59,-87.43 815.88,-85.76"/>
<polygon fill="#63b8ff" stroke="#63b8ff" points="816.34,-82.29 805.98,-84.54 815.48,-89.24 816.34,-82.29"/>
</a>
</g>
</g>
<!-- Node37&#45;&gt;Node25 -->
<g id="edge55_Node000037_Node000025" class="edge">
<title>Node37&#45;&gt;Node25</title>
<g id="a_edge55_Node000037_Node000025"><a xlink:title=" ">
<path fill="none" stroke="#63b8ff" d="M1484.51,-132.17C1474.62,-129.93 1463.96,-127.77 1454,-126.25 1252.59,-95.5 1198.45,-120.69 997,-90.25 990.53,-89.27 983.77,-88.03 977.11,-86.68"/>
<polygon fill="#63b8ff" stroke="#63b8ff" points="978.05,-83.3 967.54,-84.64 976.59,-90.15 978.05,-83.3"/>
</a>
</g>
</g>
<!-- Node37&#45;&gt;Node27 -->
<g id="edge58_Node000037_Node000027" class="edge">
<title>Node37&#45;&gt;Node27</title>
<g id="a_edge58_Node000037_Node000027"><a xlink:title=" ">
<path fill="none" stroke="#63b8ff" d="M1481.12,-132.18C1430.04,-120.21 1343.63,-99.96 1287.97,-86.92"/>
<polygon fill="#63b8ff" stroke="#63b8ff" points="1288.94,-83.55 1278.4,-84.67 1287.34,-90.36 1288.94,-83.55"/>
</a>
</g>
</g>
<!-- Node37&#45;&gt;Node34 -->
<g id="edge56_Node000037_Node000034" class="edge">
<title>Node37&#45;&gt;Node34</title>
<g id="a_edge56_Node000037_Node000034"><a xlink:title=" ">
<path fill="none" stroke="#63b8ff" d="M1526.87,-132.33C1530.8,-122.5 1537,-107 1541.99,-94.52"/>
<polygon fill="#63b8ff" stroke="#63b8ff" points="1545.11,-96.14 1545.58,-85.56 1538.61,-93.54 1545.11,-96.14"/>
</a>
</g>
</g>
<!-- Node38 -->
<g id="Node000038" class="node">
<title>Node38</title>
<g id="a_Node000038"><a xlink:href="ErrorHelper_8h.html" target="_top" xlink:title=" ">
<polygon fill="white" stroke="#666666" points="1784.12,-83.88 1663.88,-83.88 1663.88,-63.12 1784.12,-63.12 1784.12,-83.88"/>
<text text-anchor="middle" x="1724" y="-70.38" font-family="Helvetica,sans-Serif" font-size="10.00">llzk/Util/ErrorHelper.h</text>
</a>
</g>
</g>
<!-- Node37&#45;&gt;Node38 -->
<g id="edge46_Node000037_Node000038" class="edge">
<title>Node37&#45;&gt;Node38</title>
<g id="a_edge46_Node000037_Node000038"><a xlink:title=" ">
<path fill="none" stroke="#63b8ff" d="M1552.23,-132.18C1587.06,-120.49 1645.43,-100.89 1684.32,-87.83"/>
<polygon fill="#63b8ff" stroke="#63b8ff" points="1684.94,-91.31 1693.3,-84.81 1682.71,-84.67 1684.94,-91.31"/>
</a>
</g>
</g>
<!-- Node43 -->
<g id="Node000043" class="node">
<title>Node43</title>
<g id="a_Node000043"><a xlink:title=" ">
<polygon fill="#e0e0e0" stroke="#999999" points="1474.38,-83.88 1349.62,-83.88 1349.62,-63.12 1474.38,-63.12 1474.38,-83.88"/>
<text text-anchor="middle" x="1412" y="-70.38" font-family="Helvetica,sans-Serif" font-size="10.00">llvm/ADT/DenseMap.h</text>
</a>
</g>
</g>
<!-- Node37&#45;&gt;Node43 -->
<g id="edge57_Node000037_Node000043" class="edge">
<title>Node37&#45;&gt;Node43</title>
<g id="a_edge57_Node000037_Node000043"><a xlink:title=" ">
<path fill="none" stroke="#63b8ff" d="M1507.1,-132.33C1489.07,-121.36 1459.4,-103.32 1437.99,-90.31"/>
<polygon fill="#63b8ff" stroke="#63b8ff" points="1439.89,-87.36 1429.53,-85.16 1436.25,-93.35 1439.89,-87.36"/>
</a>
</g>
</g>
<!-- Node38&#45;&gt;Node10 -->
<g id="edge48_Node000038_Node000010" class="edge">
<title>Node38&#45;&gt;Node10</title>
<g id="a_edge48_Node000038_Node000010"><a xlink:title=" ">
<path fill="none" stroke="#63b8ff" d="M1681.9,-62.63C1671.51,-60.45 1660.39,-58.32 1650,-56.75 1494.52,-33.26 1309.97,-20.39 1213.77,-14.81"/>
<polygon fill="#63b8ff" stroke="#63b8ff" points="1214.18,-11.32 1203.99,-14.25 1213.78,-18.31 1214.18,-11.32"/>
</a>
</g>
</g>
<!-- Node38&#45;&gt;Node35 -->
<g id="edge52_Node000038_Node000035" class="edge">
<title>Node38&#45;&gt;Node35</title>
<g id="a_edge52_Node000038_Node000035"><a xlink:title=" ">
<path fill="none" stroke="#63b8ff" d="M1766.67,-62.64C1775.38,-60.67 1784.48,-58.62 1793,-56.75 1855.5,-43.02 1928.39,-27.81 1971.23,-18.94"/>
<polygon fill="#63b8ff" stroke="#63b8ff" points="1971.92,-22.38 1981,-16.92 1970.5,-15.52 1971.92,-22.38"/>
</a>
</g>
</g>
<!-- Node39 -->
<g id="Node000039" class="node">
<title>Node39</title>
<g id="a_Node000039"><a xlink:title=" ">
<polygon fill="#e0e0e0" stroke="#999999" points="1632.62,-20.75 1515.38,-20.75 1515.38,0 1632.62,0 1632.62,-20.75"/>
<text text-anchor="middle" x="1574" y="-7.25" font-family="Helvetica,sans-Serif" font-size="10.00">mlir/IR/Diagnostics.h</text>
</a>
</g>
</g>
<!-- Node38&#45;&gt;Node39 -->
<g id="edge47_Node000038_Node000039" class="edge">
<title>Node38&#45;&gt;Node39</title>
<g id="a_edge47_Node000038_Node000039"><a xlink:title=" ">
<path fill="none" stroke="#63b8ff" d="M1699.9,-62.68C1675.19,-52.61 1636.52,-36.85 1608.55,-25.46"/>
<polygon fill="#63b8ff" stroke="#63b8ff" points="1610.02,-22.28 1599.44,-21.74 1607.38,-28.76 1610.02,-22.28"/>
</a>
</g>
</g>
<!-- Node40 -->
<g id="Node000040" class="node">
<title>Node40</title>
<g id="a_Node000040"><a xlink:title=" ">
<polygon fill="#e0e0e0" stroke="#999999" points="1821.62,-20.75 1650.38,-20.75 1650.38,0 1821.62,0 1821.62,-20.75"/>
<text text-anchor="middle" x="1736" y="-7.25" font-family="Helvetica,sans-Serif" font-size="10.00">llvm/ADT/STLFunctionalExtras.h</text>
</a>
</g>
</g>
<!-- Node38&#45;&gt;Node40 -->
<g id="edge49_Node000038_Node000040" class="edge">
<title>Node38&#45;&gt;Node40</title>
<g id="a_edge49_Node000038_Node000040"><a xlink:title=" ">
<path fill="none" stroke="#63b8ff" d="M1725.93,-62.68C1727.55,-54.43 1729.92,-42.37 1731.95,-32.01"/>
<polygon fill="#63b8ff" stroke="#63b8ff" points="1735.33,-32.94 1733.82,-22.46 1728.46,-31.59 1735.33,-32.94"/>
</a>
</g>
</g>
<!-- Node41 -->
<g id="Node000041" class="node">
<title>Node41</title>
<g id="a_Node000041"><a xlink:title=" ">
<polygon fill="#e0e0e0" stroke="#999999" points="1940.38,-20.75 1839.62,-20.75 1839.62,0 1940.38,0 1940.38,-20.75"/>
<text text-anchor="middle" x="1890" y="-7.25" font-family="Helvetica,sans-Serif" font-size="10.00">llvm/ADT/Twine.h</text>
</a>
</g>
</g>
<!-- Node38&#45;&gt;Node41 -->
<g id="edge50_Node000038_Node000041" class="edge">
<title>Node38&#45;&gt;Node41</title>
<g id="a_edge50_Node000038_Node000041"><a xlink:title=" ">
<path fill="none" stroke="#63b8ff" d="M1750.67,-62.68C1778.38,-52.48 1821.95,-36.43 1852.99,-25"/>
<polygon fill="#63b8ff" stroke="#63b8ff" points="1853.8,-28.43 1861.98,-21.69 1851.38,-21.87 1853.8,-28.43"/>
</a>
</g>
</g>
<!-- Node42 -->
<g id="Node000042" class="node">
<title>Node42</title>
<g id="a_Node000042"><a xlink:title=" ">
<polygon fill="#e0e0e0" stroke="#999999" points="1497.5,-20.75 1340.5,-20.75 1340.5,0 1497.5,0 1497.5,-20.75"/>
<text text-anchor="middle" x="1419" y="-7.25" font-family="Helvetica,sans-Serif" font-size="10.00">llvm/Support/ErrorHandling.h</text>
</a>
</g>
</g>
<!-- Node38&#45;&gt;Node42 -->
<g id="edge51_Node000038_Node000042" class="edge">
<title>Node38&#45;&gt;Node42</title>
<g id="a_edge51_Node000038_Node000042"><a xlink:title=" ">
<path fill="none" stroke="#63b8ff" d="M1678.23,-62.64C1668.9,-60.66 1659.14,-58.62 1650,-56.75 1593.03,-45.09 1528.04,-32.38 1481.54,-23.38"/>
<polygon fill="#63b8ff" stroke="#63b8ff" points="1482.39,-19.98 1471.91,-21.52 1481.07,-26.86 1482.39,-19.98"/>
</a>
</g>
</g>
</g>
</svg>
