<?xml version="1.0" encoding="UTF-8" standalone="no"?>
<!DOCTYPE svg PUBLIC "-//W3C//DTD SVG 1.1//EN"
 "http://www.w3.org/Graphics/SVG/1.1/DTD/svg11.dtd">
<!-- Generated by graphviz version 12.2.1 (0)
 -->
<!-- Title: llzk::IntervalAnalysisContext Pages: 1 -->
<svg width="202pt" height="329pt"
 viewBox="0.00 0.00 201.75 328.50" xmlns="http://www.w3.org/2000/svg" xmlns:xlink="http://www.w3.org/1999/xlink">
<g id="graph0" class="graph" transform="scale(1 1) rotate(0) translate(4 324.5)">
<title>llzk::IntervalAnalysisContext</title>
<!-- Node1 -->
<g id="Node000001" class="node">
<title>Node1</title>
<g id="a_Node000001"><a xlink:title="Parameters and shared objects to pass to child analyses.">
<polygon fill="#999999" stroke="#666666" points="175,-20.75 18.75,-20.75 18.75,0 175,0 175,-20.75"/>
<text text-anchor="middle" x="96.88" y="-7.25" font-family="Helvetica,sans-Serif" font-size="10.00">llzk::IntervalAnalysisContext</text>
</a>
</g>
</g>
<!-- Node2 -->
<g id="Node000002" class="node">
<title>Node2</title>
<g id="a_Node000002"><a xlink:href="classllzk_1_1IntervalDataFlowAnalysis.html" target="_top" xlink:title=" ">
<polygon fill="white" stroke="#666666" points="179.12,-96.25 14.62,-96.25 14.62,-75.5 179.12,-75.5 179.12,-96.25"/>
<text text-anchor="middle" x="96.88" y="-82.75" font-family="Helvetica,sans-Serif" font-size="10.00">llzk::IntervalDataFlowAnalysis</text>
</a>
</g>
</g>
<!-- Node2&#45;&gt;Node1 -->
<g id="edge1_Node000001_Node000002" class="edge">
<title>Node2&#45;&gt;Node1</title>
<g id="a_edge1_Node000001_Node000002"><a xlink:title=" ">
<path fill="none" stroke="#9a32cd" stroke-dasharray="5,2" d="M96.88,-63.76C96.88,-49.76 96.88,-32.05 96.88,-21.22"/>
<polygon fill="#9a32cd" stroke="#9a32cd" points="93.38,-63.75 96.88,-73.75 100.38,-63.75 93.38,-63.75"/>
</a>
</g>
<text text-anchor="start" x="99.88" y="-45" font-family="Helvetica,sans-Serif" font-size="10.00" fill="grey">intervalDFA</text>
</g>
<!-- Node3 -->
<g id="Node000003" class="node">
<title>Node3</title>
<g id="a_Node000003"><a xlink:href="classllzk_1_1dataflow_1_1SparseForwardDataFlowAnalysis.html" target="_top" xlink:title=" ">
<polygon fill="white" stroke="#666666" points="193.75,-179.5 0,-179.5 0,-133.25 193.75,-133.25 193.75,-179.5"/>
<text text-anchor="start" x="8" y="-166" font-family="Helvetica,sans-Serif" font-size="10.00">llzk::dataflow::SparseForward</text>
<text text-anchor="start" x="8" y="-153.25" font-family="Helvetica,sans-Serif" font-size="10.00">DataFlowAnalysis&lt; IntervalAnalysis</text>
<text text-anchor="middle" x="96.88" y="-140.5" font-family="Helvetica,sans-Serif" font-size="10.00">Lattice &gt;</text>
</a>
</g>
</g>
<!-- Node3&#45;&gt;Node2 -->
<g id="edge2_Node000002_Node000003" class="edge">
<title>Node3&#45;&gt;Node2</title>
<g id="a_edge2_Node000002_Node000003"><a xlink:title=" ">
<path fill="none" stroke="#63b8ff" d="M96.88,-121.55C96.88,-112.37 96.88,-103.16 96.88,-96.54"/>
<polygon fill="#63b8ff" stroke="#63b8ff" points="93.38,-121.43 96.88,-131.43 100.38,-121.43 93.38,-121.43"/>
</a>
</g>
</g>
<!-- Node4 -->
<g id="Node000004" class="node">
<title>Node4</title>
<g id="a_Node000004"><a xlink:href="classllzk_1_1dataflow_1_1AbstractSparseForwardDataFlowAnalysis.html" target="_top" xlink:title="Compatibility adapter over MLIR sparse forward data&#45;flow analysis.">
<polygon fill="white" stroke="#666666" points="184.75,-250 9,-250 9,-216.5 184.75,-216.5 184.75,-250"/>
<text text-anchor="start" x="17" y="-236.5" font-family="Helvetica,sans-Serif" font-size="10.00">llzk::dataflow::Abstract</text>
<text text-anchor="middle" x="96.88" y="-223.75" font-family="Helvetica,sans-Serif" font-size="10.00">SparseForwardDataFlowAnalysis</text>
</a>
</g>
</g>
<!-- Node4&#45;&gt;Node3 -->
<g id="edge3_Node000003_Node000004" class="edge">
<title>Node4&#45;&gt;Node3</title>
<g id="a_edge3_Node000003_Node000004"><a xlink:title=" ">
<path fill="none" stroke="#63b8ff" d="M96.88,-204.7C96.88,-196.52 96.88,-187.66 96.88,-179.84"/>
<polygon fill="#63b8ff" stroke="#63b8ff" points="93.38,-204.49 96.88,-214.49 100.38,-204.49 93.38,-204.49"/>
</a>
</g>
</g>
<!-- Node5 -->
<g id="Node000005" class="node">
<title>Node5</title>
<g id="a_Node000005"><a xlink:title=" ">
<polygon fill="white" stroke="#666666" points="184.75,-320.5 9,-320.5 9,-287 184.75,-287 184.75,-320.5"/>
<text text-anchor="start" x="17" y="-307" font-family="Helvetica,sans-Serif" font-size="10.00">mlir::dataflow::Abstract</text>
<text text-anchor="middle" x="96.88" y="-294.25" font-family="Helvetica,sans-Serif" font-size="10.00">SparseForwardDataFlowAnalysis</text>
</a>
</g>
</g>
<!-- Node5&#45;&gt;Node4 -->
<g id="edge4_Node000004_Node000005" class="edge">
<title>Node5&#45;&gt;Node4</title>
<g id="a_edge4_Node000004_Node000005"><a xlink:title=" ">
<path fill="none" stroke="#63b8ff" d="M96.88,-275.2C96.88,-266.77 96.88,-257.77 96.88,-250.37"/>
<polygon fill="#63b8ff" stroke="#63b8ff" points="93.38,-275 96.88,-285 100.38,-275 93.38,-275"/>
</a>
</g>
</g>
</g>
</svg>
