<?xml version="1.0" encoding="UTF-8" standalone="no"?>
<!DOCTYPE svg PUBLIC "-//W3C//DTD SVG 1.1//EN"
 "http://www.w3.org/Graphics/SVG/1.1/DTD/svg11.dtd">
<!-- Generated by graphviz version 12.2.1 (0)
 -->
<!-- Title: include/llzk/Dialect/Struct/Transforms/TransformationPasses.h Pages: 1 -->
<svg width="628pt" height="193pt"
 viewBox="0.00 0.00 627.75 193.25" xmlns="http://www.w3.org/2000/svg" xmlns:xlink="http://www.w3.org/1999/xlink">
<g id="graph0" class="graph" transform="scale(1 1) rotate(0) translate(4 189.25)">
<title>include/llzk/Dialect/Struct/Transforms/TransformationPasses.h</title>
<!-- Node1 -->
<g id="Node000001" class="node">
<title>Node1</title>
<g id="a_Node000001"><a xlink:title=" ">
<polygon fill="#999999" stroke="#666666" points="391.88,-185.25 210.88,-185.25 210.88,-139 391.88,-139 391.88,-185.25"/>
<text text-anchor="start" x="218.88" y="-171.75" font-family="Helvetica,sans-Serif" font-size="10.00">include/llzk/Dialect</text>
<text text-anchor="start" x="218.88" y="-159" font-family="Helvetica,sans-Serif" font-size="10.00">/Struct/Transforms/Transformation</text>
<text text-anchor="middle" x="301.38" y="-146.25" font-family="Helvetica,sans-Serif" font-size="10.00">Passes.h</text>
</a>
</g>
</g>
<!-- Node2 -->
<g id="Node000002" class="node">
<title>Node2</title>
<g id="a_Node000002"><a xlink:href="LLZKTransformationPassPipelines_8h.html" target="_top" xlink:title=" ">
<polygon fill="white" stroke="#666666" points="224.75,-103 34,-103 34,-69.5 224.75,-69.5 224.75,-103"/>
<text text-anchor="start" x="42" y="-89.5" font-family="Helvetica,sans-Serif" font-size="10.00">include/llzk/Transforms</text>
<text text-anchor="middle" x="129.38" y="-76.75" font-family="Helvetica,sans-Serif" font-size="10.00">/LLZKTransformationPassPipelines.h</text>
</a>
</g>
</g>
<!-- Node1&#45;&gt;Node2 -->
<g id="edge1_Node000001_Node000002" class="edge">
<title>Node1&#45;&gt;Node2</title>
<g id="a_edge1_Node000001_Node000002"><a xlink:title=" ">
<path fill="none" stroke="#63b8ff" d="M238.41,-134.08C214.5,-123.81 188.01,-112.44 167.14,-103.47"/>
<polygon fill="#63b8ff" stroke="#63b8ff" points="236.87,-137.23 247.44,-137.96 239.64,-130.8 236.87,-137.23"/>
</a>
</g>
</g>
<!-- Node4 -->
<g id="Node000004" class="node">
<title>Node4</title>
<g id="a_Node000004"><a xlink:href="llzk-opt_8cpp.html" target="_top" xlink:title="This file implements a version of the mlir&#45;opt tool configured for use on LLZK files.">
<polygon fill="white" stroke="#666666" points="302.38,-33.5 202.38,-33.5 202.38,0 302.38,0 302.38,-33.5"/>
<text text-anchor="start" x="210.38" y="-20" font-family="Helvetica,sans-Serif" font-size="10.00">tools/llzk&#45;opt/llzk</text>
<text text-anchor="middle" x="252.38" y="-7.25" font-family="Helvetica,sans-Serif" font-size="10.00">&#45;opt.cpp</text>
</a>
</g>
</g>
<!-- Node1&#45;&gt;Node4 -->
<g id="edge6_Node000001_Node000004" class="edge">
<title>Node1&#45;&gt;Node4</title>
<g id="a_edge6_Node000001_Node000004"><a xlink:title=" ">
<path fill="none" stroke="#63b8ff" d="M282.75,-128.64C278.58,-120.45 274.48,-111.56 271.38,-103 262.9,-79.62 257.48,-51.21 254.69,-33.81"/>
<polygon fill="#63b8ff" stroke="#63b8ff" points="279.51,-130.01 287.29,-137.21 285.7,-126.73 279.51,-130.01"/>
</a>
</g>
</g>
<!-- Node5 -->
<g id="Node000005" class="node">
<title>Node5</title>
<g id="a_Node000005"><a xlink:href="Struct_8cpp.html" target="_top" xlink:title=" ">
<polygon fill="white" stroke="#666666" points="422.75,-96.62 280,-96.62 280,-75.88 422.75,-75.88 422.75,-96.62"/>
<text text-anchor="middle" x="351.38" y="-83.12" font-family="Helvetica,sans-Serif" font-size="10.00">lib/CAPI/Dialect/Struct.cpp</text>
</a>
</g>
</g>
<!-- Node1&#45;&gt;Node5 -->
<g id="edge4_Node000001_Node000005" class="edge">
<title>Node1&#45;&gt;Node5</title>
<g id="a_edge4_Node000001_Node000005"><a xlink:title=" ">
<path fill="none" stroke="#63b8ff" d="M323.07,-129.07C330.93,-117.46 339.23,-105.2 344.79,-96.97"/>
<polygon fill="#63b8ff" stroke="#63b8ff" points="320.2,-127.06 317.5,-137.31 326,-130.99 320.2,-127.06"/>
</a>
</g>
</g>
<!-- Node6 -->
<g id="Node000006" class="node">
<title>Node6</title>
<g id="a_Node000006"><a xlink:href="InlineStructsPass_8cpp.html" target="_top" xlink:title="This file implements the &#45;llzk&#45;inline&#45;structs pass.">
<polygon fill="white" stroke="#666666" points="619.75,-103 441,-103 441,-69.5 619.75,-69.5 619.75,-103"/>
<text text-anchor="start" x="449" y="-89.5" font-family="Helvetica,sans-Serif" font-size="10.00">lib/Dialect/Struct</text>
<text text-anchor="middle" x="530.38" y="-76.75" font-family="Helvetica,sans-Serif" font-size="10.00">/Transforms/InlineStructsPass.cpp</text>
</a>
</g>
</g>
<!-- Node1&#45;&gt;Node6 -->
<g id="edge5_Node000001_Node000006" class="edge">
<title>Node1&#45;&gt;Node6</title>
<g id="a_edge5_Node000001_Node000006"><a xlink:title=" ">
<path fill="none" stroke="#63b8ff" d="M382.21,-135.05C414.82,-124.53 451.43,-112.72 480.1,-103.47"/>
<polygon fill="#63b8ff" stroke="#63b8ff" points="381.21,-131.69 372.77,-138.09 383.36,-138.35 381.21,-131.69"/>
</a>
</g>
</g>
<!-- Node3 -->
<g id="Node000003" class="node">
<title>Node3</title>
<g id="a_Node000003"><a xlink:href="LLZKTransformationPassPipelines_8cpp.html" target="_top" xlink:title="This file implements logic for registering several pass pipelines.">
<polygon fill="white" stroke="#666666" points="184.75,-33.5 0,-33.5 0,0 184.75,0 184.75,-33.5"/>
<text text-anchor="start" x="8" y="-20" font-family="Helvetica,sans-Serif" font-size="10.00">lib/Transforms/LLZKTransformation</text>
<text text-anchor="middle" x="92.38" y="-7.25" font-family="Helvetica,sans-Serif" font-size="10.00">PassPipelines.cpp</text>
</a>
</g>
</g>
<!-- Node2&#45;&gt;Node3 -->
<g id="edge2_Node000002_Node000003" class="edge">
<title>Node2&#45;&gt;Node3</title>
<g id="a_edge2_Node000002_Node000003"><a xlink:title=" ">
<path fill="none" stroke="#63b8ff" d="M115.12,-59.24C110.39,-50.61 105.26,-41.26 101.08,-33.63"/>
<polygon fill="#63b8ff" stroke="#63b8ff" points="112,-60.84 119.88,-67.93 118.14,-57.47 112,-60.84"/>
</a>
</g>
</g>
<!-- Node2&#45;&gt;Node4 -->
<g id="edge3_Node000002_Node000004" class="edge">
<title>Node2&#45;&gt;Node4</title>
<g id="a_edge3_Node000002_Node000004"><a xlink:title=" ">
<path fill="none" stroke="#63b8ff" d="M168.85,-63.59C186.49,-53.91 206.92,-42.7 223.15,-33.79"/>
<polygon fill="#63b8ff" stroke="#63b8ff" points="167.25,-60.47 160.16,-68.35 170.61,-66.61 167.25,-60.47"/>
</a>
</g>
</g>
</g>
</svg>
