<?xml version="1.0" encoding="UTF-8" standalone="no"?>
<!DOCTYPE svg PUBLIC "-//W3C//DTD SVG 1.1//EN"
 "http://www.w3.org/Graphics/SVG/1.1/DTD/svg11.dtd">
<!-- Generated by graphviz version 12.2.1 (0)
 -->
<!-- Title: lib/CAPI/Support.cpp Pages: 1 -->
<svg width="2489pt" height="269pt"
 viewBox="0.00 0.00 2488.62 268.50" xmlns="http://www.w3.org/2000/svg" xmlns:xlink="http://www.w3.org/1999/xlink">
<g id="graph0" class="graph" transform="scale(1 1) rotate(0) translate(4 264.5)">
<title>lib/CAPI/Support.cpp</title>
<!-- Node1 -->
<g id="Node000001" class="node">
<title>Node1</title>
<g id="a_Node000001"><a xlink:title=" ">
<polygon fill="#999999" stroke="#666666" points="1813.25,-260.5 1699,-260.5 1699,-239.75 1813.25,-239.75 1813.25,-260.5"/>
<text text-anchor="middle" x="1756.12" y="-247" font-family="Helvetica,sans-Serif" font-size="10.00">lib/CAPI/Support.cpp</text>
</a>
</g>
</g>
<!-- Node2 -->
<g id="Node000002" class="node">
<title>Node2</title>
<g id="a_Node000002"><a xlink:href="llzk_2CAPI_2Support_8h.html" target="_top" xlink:title=" ">
<polygon fill="white" stroke="#666666" points="530.25,-203.75 422,-203.75 422,-183 530.25,-183 530.25,-203.75"/>
<text text-anchor="middle" x="476.12" y="-190.25" font-family="Helvetica,sans-Serif" font-size="10.00">llzk/CAPI/Support.h</text>
</a>
</g>
</g>
<!-- Node1&#45;&gt;Node2 -->
<g id="edge1_Node000001_Node000002" class="edge">
<title>Node1&#45;&gt;Node2</title>
<g id="a_edge1_Node000001_Node000002"><a xlink:title=" ">
<path fill="none" stroke="#63b8ff" d="M1698.64,-246.67C1488.84,-237.69 765.05,-206.73 542.05,-197.19"/>
<polygon fill="#63b8ff" stroke="#63b8ff" points="542.22,-193.7 532.08,-196.77 541.92,-200.69 542.22,-193.7"/>
</a>
</g>
</g>
<!-- Node3 -->
<g id="Node000003" class="node">
<title>Node3</title>
<g id="a_Node000003"><a xlink:href="llzk-c_2Support_8h.html" target="_top" xlink:title=" ">
<polygon fill="white" stroke="#666666" points="234,-140.62 142.25,-140.62 142.25,-119.88 234,-119.88 234,-140.62"/>
<text text-anchor="middle" x="188.12" y="-127.12" font-family="Helvetica,sans-Serif" font-size="10.00">llzk&#45;c/Support.h</text>
</a>
</g>
</g>
<!-- Node1&#45;&gt;Node3 -->
<g id="edge18_Node000001_Node000003" class="edge">
<title>Node1&#45;&gt;Node3</title>
<g id="a_edge18_Node000001_Node000003"><a xlink:title=" ">
<path fill="none" stroke="#63b8ff" d="M1698.54,-249.3C1475.14,-249.66 665.78,-247.84 413.12,-203.75 343.2,-191.55 265.07,-162.75 221.73,-145.34"/>
<polygon fill="#63b8ff" stroke="#63b8ff" points="223.21,-142.16 212.63,-141.64 220.58,-148.65 223.21,-142.16"/>
</a>
</g>
</g>
<!-- Node13 -->
<g id="Node000013" class="node">
<title>Node13</title>
<g id="a_Node000013"><a xlink:title=" ">
<polygon fill="#e0e0e0" stroke="#999999" points="785.5,-140.62 702.75,-140.62 702.75,-119.88 785.5,-119.88 785.5,-140.62"/>
<text text-anchor="middle" x="744.12" y="-127.12" font-family="Helvetica,sans-Serif" font-size="10.00">mlir/CAPI/IR.h</text>
</a>
</g>
</g>
<!-- Node1&#45;&gt;Node13 -->
<g id="edge33_Node000001_Node000013" class="edge">
<title>Node1&#45;&gt;Node13</title>
<g id="a_edge33_Node000001_Node000013"><a xlink:title=" ">
<path fill="none" stroke="#63b8ff" d="M1698.6,-247.22C1548.4,-241.35 1132.68,-219.3 795.12,-147 791.34,-146.19 787.43,-145.22 783.54,-144.18"/>
<polygon fill="#63b8ff" stroke="#63b8ff" points="784.78,-140.89 774.2,-141.48 782.84,-147.62 784.78,-140.89"/>
</a>
</g>
</g>
<!-- Node16 -->
<g id="Node000016" class="node">
<title>Node16</title>
<g id="a_Node000016"><a xlink:href="Compare_8h.html" target="_top" xlink:title=" ">
<polygon fill="white" stroke="#666666" points="1529,-203.75 1419.25,-203.75 1419.25,-183 1529,-183 1529,-203.75"/>
<text text-anchor="middle" x="1474.12" y="-190.25" font-family="Helvetica,sans-Serif" font-size="10.00">llzk/Util/Compare.h</text>
</a>
</g>
</g>
<!-- Node1&#45;&gt;Node16 -->
<g id="edge19_Node000001_Node000016" class="edge">
<title>Node1&#45;&gt;Node16</title>
<g id="a_edge19_Node000001_Node000016"><a xlink:title=" ">
<path fill="none" stroke="#63b8ff" d="M1705.38,-239.27C1657.91,-230.06 1586.9,-216.27 1536.09,-206.41"/>
<polygon fill="#63b8ff" stroke="#63b8ff" points="1536.9,-203 1526.42,-204.53 1535.57,-209.87 1536.9,-203"/>
</a>
</g>
</g>
<!-- Node20 -->
<g id="Node000020" class="node">
<title>Node20</title>
<g id="a_Node000020"><a xlink:href="SymbolLookup_8h.html" target="_top" xlink:title="This file defines methods symbol lookup across LLZK operations and included files.">
<polygon fill="white" stroke="#666666" points="1401.5,-203.75 1264.75,-203.75 1264.75,-183 1401.5,-183 1401.5,-203.75"/>
<text text-anchor="middle" x="1333.12" y="-190.25" font-family="Helvetica,sans-Serif" font-size="10.00">llzk/Util/SymbolLookup.h</text>
</a>
</g>
</g>
<!-- Node1&#45;&gt;Node20 -->
<g id="edge23_Node000001_Node000020" class="edge">
<title>Node1&#45;&gt;Node20</title>
<g id="a_edge23_Node000001_Node000020"><a xlink:title=" ">
<path fill="none" stroke="#63b8ff" d="M1698.64,-241.68C1624.78,-232.12 1496.19,-215.48 1412.89,-204.7"/>
<polygon fill="#63b8ff" stroke="#63b8ff" points="1413.57,-201.26 1403.2,-203.45 1412.67,-208.2 1413.57,-201.26"/>
</a>
</g>
</g>
<!-- Node28 -->
<g id="Node000028" class="node">
<title>Node28</title>
<g id="a_Node000028"><a xlink:title=" ">
<polygon fill="#e0e0e0" stroke="#999999" points="1683.12,-203.75 1547.12,-203.75 1547.12,-183 1683.12,-183 1683.12,-203.75"/>
<text text-anchor="middle" x="1615.12" y="-190.25" font-family="Helvetica,sans-Serif" font-size="10.00">mlir&#45;c/BuiltinAttributes.h</text>
</a>
</g>
</g>
<!-- Node1&#45;&gt;Node28 -->
<g id="edge32_Node000001_Node000028" class="edge">
<title>Node1&#45;&gt;Node28</title>
<g id="a_edge32_Node000001_Node000028"><a xlink:title=" ">
<path fill="none" stroke="#63b8ff" d="M1730.92,-239.34C1708.56,-230.66 1675.67,-217.88 1650.65,-208.17"/>
<polygon fill="#63b8ff" stroke="#63b8ff" points="1652.11,-204.98 1641.53,-204.63 1649.58,-211.51 1652.11,-204.98"/>
</a>
</g>
</g>
<!-- Node29 -->
<g id="Node000029" class="node">
<title>Node29</title>
<g id="a_Node000029"><a xlink:title=" ">
<polygon fill="#e0e0e0" stroke="#999999" points="1811.38,-203.75 1700.88,-203.75 1700.88,-183 1811.38,-183 1811.38,-203.75"/>
<text text-anchor="middle" x="1756.12" y="-190.25" font-family="Helvetica,sans-Serif" font-size="10.00">mlir/CAPI/Support.h</text>
</a>
</g>
</g>
<!-- Node1&#45;&gt;Node29 -->
<g id="edge34_Node000001_Node000029" class="edge">
<title>Node1&#45;&gt;Node29</title>
<g id="a_edge34_Node000001_Node000029"><a xlink:title=" ">
<path fill="none" stroke="#63b8ff" d="M1756.12,-239.34C1756.12,-232.72 1756.12,-223.72 1756.12,-215.52"/>
<polygon fill="#63b8ff" stroke="#63b8ff" points="1759.63,-215.59 1756.13,-205.59 1752.63,-215.59 1759.63,-215.59"/>
</a>
</g>
</g>
<!-- Node30 -->
<g id="Node000030" class="node">
<title>Node30</title>
<g id="a_Node000030"><a xlink:title=" ">
<polygon fill="#e0e0e0" stroke="#999999" points="1928.38,-203.75 1829.88,-203.75 1829.88,-183 1928.38,-183 1928.38,-203.75"/>
<text text-anchor="middle" x="1879.12" y="-190.25" font-family="Helvetica,sans-Serif" font-size="10.00">mlir/CAPI/Wrap.h</text>
</a>
</g>
</g>
<!-- Node1&#45;&gt;Node30 -->
<g id="edge35_Node000001_Node000030" class="edge">
<title>Node1&#45;&gt;Node30</title>
<g id="a_edge35_Node000001_Node000030"><a xlink:title=" ">
<path fill="none" stroke="#63b8ff" d="M1778.11,-239.34C1797.27,-230.81 1825.29,-218.34 1846.96,-208.69"/>
<polygon fill="#63b8ff" stroke="#63b8ff" points="1848.23,-211.96 1855.94,-204.69 1845.38,-205.56 1848.23,-211.96"/>
</a>
</g>
</g>
<!-- Node31 -->
<g id="Node000031" class="node">
<title>Node31</title>
<g id="a_Node000031"><a xlink:title=" ">
<polygon fill="#e0e0e0" stroke="#999999" points="2086,-203.75 1946.25,-203.75 1946.25,-183 2086,-183 2086,-203.75"/>
<text text-anchor="middle" x="2016.12" y="-190.25" font-family="Helvetica,sans-Serif" font-size="10.00">mlir/IR/BuiltinAttributes.h</text>
</a>
</g>
</g>
<!-- Node1&#45;&gt;Node31 -->
<g id="edge36_Node000001_Node000031" class="edge">
<title>Node1&#45;&gt;Node31</title>
<g id="a_edge36_Node000001_Node000031"><a xlink:title=" ">
<path fill="none" stroke="#63b8ff" d="M1802.91,-239.27C1846.4,-230.12 1911.33,-216.44 1958.1,-206.59"/>
<polygon fill="#63b8ff" stroke="#63b8ff" points="1958.73,-210.04 1967.8,-204.55 1957.29,-203.19 1958.73,-210.04"/>
</a>
</g>
</g>
<!-- Node32 -->
<g id="Node000032" class="node">
<title>Node32</title>
<g id="a_Node000032"><a xlink:title=" ">
<polygon fill="#e0e0e0" stroke="#999999" points="2205.88,-203.75 2104.38,-203.75 2104.38,-183 2205.88,-183 2205.88,-203.75"/>
<text text-anchor="middle" x="2155.12" y="-190.25" font-family="Helvetica,sans-Serif" font-size="10.00">mlir/IR/Iterators.h</text>
</a>
</g>
</g>
<!-- Node1&#45;&gt;Node32 -->
<g id="edge37_Node000001_Node000032" class="edge">
<title>Node1&#45;&gt;Node32</title>
<g id="a_edge37_Node000001_Node000032"><a xlink:title=" ">
<path fill="none" stroke="#63b8ff" d="M1813.46,-241.84C1878.61,-233.48 1988.43,-219.11 2092.99,-204.03"/>
<polygon fill="#63b8ff" stroke="#63b8ff" points="2093.18,-207.54 2102.58,-202.65 2092.18,-200.62 2093.18,-207.54"/>
</a>
</g>
</g>
<!-- Node33 -->
<g id="Node000033" class="node">
<title>Node33</title>
<g id="a_Node000033"><a xlink:title=" ">
<polygon fill="#e0e0e0" stroke="#999999" points="2346.38,-203.75 2223.88,-203.75 2223.88,-183 2346.38,-183 2346.38,-203.75"/>
<text text-anchor="middle" x="2285.12" y="-190.25" font-family="Helvetica,sans-Serif" font-size="10.00">mlir/IR/SymbolTable.h</text>
</a>
</g>
</g>
<!-- Node1&#45;&gt;Node33 -->
<g id="edge38_Node000001_Node000033" class="edge">
<title>Node1&#45;&gt;Node33</title>
<g id="a_edge38_Node000001_Node000033"><a xlink:title=" ">
<path fill="none" stroke="#63b8ff" d="M1813.44,-244.1C1898.26,-236.52 2062.49,-221.31 2212.45,-204.03"/>
<polygon fill="#63b8ff" stroke="#63b8ff" points="2212.65,-207.53 2222.18,-202.9 2211.84,-200.58 2212.65,-207.53"/>
</a>
</g>
</g>
<!-- Node34 -->
<g id="Node000034" class="node">
<title>Node34</title>
<g id="a_Node000034"><a xlink:title=" ">
<polygon fill="#e0e0e0" stroke="#999999" points="2413.62,-203.75 2364.62,-203.75 2364.62,-183 2413.62,-183 2413.62,-203.75"/>
<text text-anchor="middle" x="2389.12" y="-190.25" font-family="Helvetica,sans-Serif" font-size="10.00">cstdint</text>
</a>
</g>
</g>
<!-- Node1&#45;&gt;Node34 -->
<g id="edge39_Node000001_Node000034" class="edge">
<title>Node1&#45;&gt;Node34</title>
<g id="a_edge39_Node000001_Node000034"><a xlink:title=" ">
<path fill="none" stroke="#63b8ff" d="M1813.57,-248.46C1918.85,-246.44 2149.82,-238.3 2353.17,-203.73"/>
<polygon fill="#63b8ff" stroke="#63b8ff" points="2353.62,-207.21 2362.88,-202.05 2352.43,-200.31 2353.62,-207.21"/>
</a>
</g>
</g>
<!-- Node35 -->
<g id="Node000035" class="node">
<title>Node35</title>
<g id="a_Node000035"><a xlink:title=" ">
<polygon fill="#e0e0e0" stroke="#999999" points="2480.62,-203.75 2431.62,-203.75 2431.62,-183 2480.62,-183 2480.62,-203.75"/>
<text text-anchor="middle" x="2456.12" y="-190.25" font-family="Helvetica,sans-Serif" font-size="10.00">cstring</text>
</a>
</g>
</g>
<!-- Node1&#45;&gt;Node35 -->
<g id="edge40_Node000001_Node000035" class="edge">
<title>Node1&#45;&gt;Node35</title>
<g id="a_edge40_Node000001_Node000035"><a xlink:title=" ">
<path fill="none" stroke="#63b8ff" d="M1813.71,-249.24C1927.99,-248.59 2191.48,-242.76 2420.18,-203.94"/>
<polygon fill="#63b8ff" stroke="#63b8ff" points="2420.64,-207.41 2429.9,-202.26 2419.45,-200.51 2420.64,-207.41"/>
</a>
</g>
</g>
<!-- Node2&#45;&gt;Node3 -->
<g id="edge2_Node000002_Node000003" class="edge">
<title>Node2&#45;&gt;Node3</title>
<g id="a_edge2_Node000002_Node000003"><a xlink:title=" ">
<path fill="none" stroke="#63b8ff" d="M429.85,-182.55C379.68,-171.91 299.53,-154.89 245.41,-143.41"/>
<polygon fill="#63b8ff" stroke="#63b8ff" points="246.27,-140.01 235.76,-141.36 244.82,-146.86 246.27,-140.01"/>
</a>
</g>
</g>
<!-- Node5 -->
<g id="Node000005" class="node">
<title>Node5</title>
<g id="a_Node000005"><a xlink:title=" ">
<polygon fill="#e0e0e0" stroke="#999999" points="66.25,-20.75 0,-20.75 0,0 66.25,0 66.25,-20.75"/>
<text text-anchor="middle" x="33.12" y="-7.25" font-family="Helvetica,sans-Serif" font-size="10.00">mlir&#45;c/IR.h</text>
</a>
</g>
</g>
<!-- Node2&#45;&gt;Node5 -->
<g id="edge14_Node000002_Node000005" class="edge">
<title>Node2&#45;&gt;Node5</title>
<g id="a_edge14_Node000002_Node000005"><a xlink:title=" ">
<path fill="none" stroke="#63b8ff" d="M421.51,-193.21C352.07,-192.48 229.62,-185.16 133.12,-147 83.81,-127.49 61.42,-124.11 36.12,-77.5 28.65,-63.74 28.29,-45.89 29.58,-32.2"/>
<polygon fill="#63b8ff" stroke="#63b8ff" points="33.01,-32.92 30.87,-22.54 26.08,-31.99 33.01,-32.92"/>
</a>
</g>
</g>
<!-- Node8 -->
<g id="Node000008" class="node">
<title>Node8</title>
<g id="a_Node000008"><a xlink:href="AttributeHelper_8h.html" target="_top" xlink:title=" ">
<polygon fill="white" stroke="#666666" points="385.38,-147 274.88,-147 274.88,-113.5 385.38,-113.5 385.38,-147"/>
<text text-anchor="start" x="282.88" y="-133.5" font-family="Helvetica,sans-Serif" font-size="10.00">llzk/Dialect/LLZK/IR</text>
<text text-anchor="middle" x="330.12" y="-120.75" font-family="Helvetica,sans-Serif" font-size="10.00">/AttributeHelper.h</text>
</a>
</g>
</g>
<!-- Node2&#45;&gt;Node8 -->
<g id="edge9_Node000002_Node000008" class="edge">
<title>Node2&#45;&gt;Node8</title>
<g id="a_edge9_Node000002_Node000008"><a xlink:title=" ">
<path fill="none" stroke="#63b8ff" d="M452.67,-182.55C432.92,-174.29 404.01,-162.18 379.23,-151.81"/>
<polygon fill="#63b8ff" stroke="#63b8ff" points="380.87,-148.7 370.3,-148.07 378.17,-155.16 380.87,-148.7"/>
</a>
</g>
</g>
<!-- Node2&#45;&gt;Node13 -->
<g id="edge15_Node000002_Node000013" class="edge">
<title>Node2&#45;&gt;Node13</title>
<g id="a_edge15_Node000002_Node000013"><a xlink:title=" ">
<path fill="none" stroke="#63b8ff" d="M530.68,-182.59C574.99,-174.26 638.95,-161.39 694.12,-147 697.26,-146.18 700.49,-145.29 703.73,-144.35"/>
<polygon fill="#63b8ff" stroke="#63b8ff" points="704.64,-147.73 713.21,-141.51 702.62,-141.03 704.64,-147.73"/>
</a>
</g>
</g>
<!-- Node14 -->
<g id="Node000014" class="node">
<title>Node14</title>
<g id="a_Node000014"><a xlink:title=" ">
<polygon fill="#e0e0e0" stroke="#999999" points="549,-140.62 403.25,-140.62 403.25,-119.88 549,-119.88 549,-140.62"/>
<text text-anchor="middle" x="476.12" y="-127.12" font-family="Helvetica,sans-Serif" font-size="10.00">mlir/IR/OperationSupport.h</text>
</a>
</g>
</g>
<!-- Node2&#45;&gt;Node14 -->
<g id="edge16_Node000002_Node000014" class="edge">
<title>Node2&#45;&gt;Node14</title>
<g id="a_edge16_Node000002_Node000014"><a xlink:title=" ">
<path fill="none" stroke="#63b8ff" d="M476.12,-182.55C476.12,-174.4 476.12,-162.51 476.12,-152.23"/>
<polygon fill="#63b8ff" stroke="#63b8ff" points="479.63,-152.36 476.13,-142.36 472.63,-152.36 479.63,-152.36"/>
</a>
</g>
</g>
<!-- Node15 -->
<g id="Node000015" class="node">
<title>Node15</title>
<g id="a_Node000015"><a xlink:title=" ">
<polygon fill="#e0e0e0" stroke="#999999" points="685.12,-140.62 567.12,-140.62 567.12,-119.88 685.12,-119.88 685.12,-140.62"/>
<text text-anchor="middle" x="626.12" y="-127.12" font-family="Helvetica,sans-Serif" font-size="10.00">mlir/IR/ValueRange.h</text>
</a>
</g>
</g>
<!-- Node2&#45;&gt;Node15 -->
<g id="edge17_Node000002_Node000015" class="edge">
<title>Node2&#45;&gt;Node15</title>
<g id="a_edge17_Node000002_Node000015"><a xlink:title=" ">
<path fill="none" stroke="#63b8ff" d="M500.23,-182.55C524.94,-172.48 563.61,-156.73 591.57,-145.33"/>
<polygon fill="#63b8ff" stroke="#63b8ff" points="592.74,-148.63 600.68,-141.62 590.1,-142.15 592.74,-148.63"/>
</a>
</g>
</g>
<!-- Node4 -->
<g id="Node000004" class="node">
<title>Node4</title>
<g id="a_Node000004"><a xlink:href="llzk-c_2Builder_8h.html" target="_top" xlink:title=" ">
<polygon fill="white" stroke="#666666" points="149.12,-77.5 61.12,-77.5 61.12,-56.75 149.12,-56.75 149.12,-77.5"/>
<text text-anchor="middle" x="105.12" y="-64" font-family="Helvetica,sans-Serif" font-size="10.00">llzk&#45;c/Builder.h</text>
</a>
</g>
</g>
<!-- Node3&#45;&gt;Node4 -->
<g id="edge3_Node000003_Node000004" class="edge">
<title>Node3&#45;&gt;Node4</title>
<g id="a_edge3_Node000003_Node000004"><a xlink:title=" ">
<path fill="none" stroke="#63b8ff" d="M174.79,-119.43C162.08,-110.07 142.71,-95.8 127.62,-84.69"/>
<polygon fill="#63b8ff" stroke="#63b8ff" points="129.77,-81.93 119.65,-78.82 125.62,-87.57 129.77,-81.93"/>
</a>
</g>
</g>
<!-- Node3&#45;&gt;Node5 -->
<g id="edge6_Node000003_Node000005" class="edge">
<title>Node3&#45;&gt;Node5</title>
<g id="a_edge6_Node000003_Node000005"><a xlink:title=" ">
<path fill="none" stroke="#63b8ff" d="M141.82,-122.47C112.31,-115.82 75.38,-102.79 52.12,-77.5 40.87,-65.26 36.24,-46.78 34.35,-32.46"/>
<polygon fill="#63b8ff" stroke="#63b8ff" points="37.86,-32.35 33.45,-22.72 30.89,-33 37.86,-32.35"/>
</a>
</g>
</g>
<!-- Node6 -->
<g id="Node000006" class="node">
<title>Node6</title>
<g id="a_Node000006"><a xlink:title=" ">
<polygon fill="#e0e0e0" stroke="#999999" points="201.12,-20.75 107.12,-20.75 107.12,0 201.12,0 201.12,-20.75"/>
<text text-anchor="middle" x="154.12" y="-7.25" font-family="Helvetica,sans-Serif" font-size="10.00">mlir&#45;c/Support.h</text>
</a>
</g>
</g>
<!-- Node3&#45;&gt;Node6 -->
<g id="edge7_Node000003_Node000006" class="edge">
<title>Node3&#45;&gt;Node6</title>
<g id="a_edge7_Node000003_Node000006"><a xlink:title=" ">
<path fill="none" stroke="#63b8ff" d="M185.34,-119.6C179.84,-100.52 167.45,-57.58 160.04,-31.9"/>
<polygon fill="#63b8ff" stroke="#63b8ff" points="163.5,-31.25 157.37,-22.61 156.77,-33.19 163.5,-31.25"/>
</a>
</g>
</g>
<!-- Node7 -->
<g id="Node000007" class="node">
<title>Node7</title>
<g id="a_Node000007"><a xlink:title=" ">
<polygon fill="#e0e0e0" stroke="#999999" points="257.5,-77.5 204.75,-77.5 204.75,-56.75 257.5,-56.75 257.5,-77.5"/>
<text text-anchor="middle" x="231.12" y="-64" font-family="Helvetica,sans-Serif" font-size="10.00">stdint.h</text>
</a>
</g>
</g>
<!-- Node3&#45;&gt;Node7 -->
<g id="edge8_Node000003_Node000007" class="edge">
<title>Node3&#45;&gt;Node7</title>
<g id="a_edge8_Node000003_Node000007"><a xlink:title=" ">
<path fill="none" stroke="#63b8ff" d="M195.03,-119.43C201.15,-110.73 210.25,-97.8 217.78,-87.09"/>
<polygon fill="#63b8ff" stroke="#63b8ff" points="220.61,-89.15 223.5,-78.96 214.89,-85.12 220.61,-89.15"/>
</a>
</g>
</g>
<!-- Node4&#45;&gt;Node5 -->
<g id="edge4_Node000004_Node000005" class="edge">
<title>Node4&#45;&gt;Node5</title>
<g id="a_edge4_Node000004_Node000005"><a xlink:title=" ">
<path fill="none" stroke="#63b8ff" d="M92.25,-56.34C81.91,-48.47 67.16,-37.25 54.97,-27.99"/>
<polygon fill="#63b8ff" stroke="#63b8ff" points="57.17,-25.26 47.09,-21.99 52.93,-30.83 57.17,-25.26"/>
</a>
</g>
</g>
<!-- Node4&#45;&gt;Node6 -->
<g id="edge5_Node000004_Node000006" class="edge">
<title>Node4&#45;&gt;Node6</title>
<g id="a_edge5_Node000004_Node000006"><a xlink:title=" ">
<path fill="none" stroke="#63b8ff" d="M113.89,-56.34C120.57,-48.86 129.98,-38.36 138.01,-29.38"/>
<polygon fill="#63b8ff" stroke="#63b8ff" points="140.37,-31.99 144.43,-22.21 135.15,-27.32 140.37,-31.99"/>
</a>
</g>
</g>
<!-- Node9 -->
<g id="Node000009" class="node">
<title>Node9</title>
<g id="a_Node000009"><a xlink:href="StreamHelper_8h.html" target="_top" xlink:title=" ">
<polygon fill="white" stroke="#666666" points="408.25,-77.5 276,-77.5 276,-56.75 408.25,-56.75 408.25,-77.5"/>
<text text-anchor="middle" x="342.12" y="-64" font-family="Helvetica,sans-Serif" font-size="10.00">llzk/Util/StreamHelper.h</text>
</a>
</g>
</g>
<!-- Node8&#45;&gt;Node9 -->
<g id="edge10_Node000008_Node000009" class="edge">
<title>Node8&#45;&gt;Node9</title>
<g id="a_edge10_Node000008_Node000009"><a xlink:title=" ">
<path fill="none" stroke="#63b8ff" d="M333.28,-113.19C334.72,-105.85 336.44,-97.07 337.99,-89.21"/>
<polygon fill="#63b8ff" stroke="#63b8ff" points="341.41,-89.94 339.9,-79.45 334.54,-88.59 341.41,-89.94"/>
</a>
</g>
</g>
<!-- Node11 -->
<g id="Node000011" class="node">
<title>Node11</title>
<g id="a_Node000011"><a xlink:title=" ">
<polygon fill="#e0e0e0" stroke="#999999" points="599.5,-77.5 426.75,-77.5 426.75,-56.75 599.5,-56.75 599.5,-77.5"/>
<text text-anchor="middle" x="513.12" y="-64" font-family="Helvetica,sans-Serif" font-size="10.00">mlir/IR/DialectImplementation.h</text>
</a>
</g>
</g>
<!-- Node8&#45;&gt;Node11 -->
<g id="edge12_Node000008_Node000011" class="edge">
<title>Node8&#45;&gt;Node11</title>
<g id="a_edge12_Node000008_Node000011"><a xlink:title=" ">
<path fill="none" stroke="#63b8ff" d="M378.69,-113.03C408.09,-103.21 445.16,-90.83 472.92,-81.56"/>
<polygon fill="#63b8ff" stroke="#63b8ff" points="474,-84.88 482.38,-78.39 471.79,-78.24 474,-84.88"/>
</a>
</g>
</g>
<!-- Node12 -->
<g id="Node000012" class="node">
<title>Node12</title>
<g id="a_Node000012"><a xlink:title=" ">
<polygon fill="#e0e0e0" stroke="#999999" points="716.38,-77.5 617.88,-77.5 617.88,-56.75 716.38,-56.75 716.38,-77.5"/>
<text text-anchor="middle" x="667.12" y="-64" font-family="Helvetica,sans-Serif" font-size="10.00">llvm/ADT/APInt.h</text>
</a>
</g>
</g>
<!-- Node8&#45;&gt;Node12 -->
<g id="edge13_Node000008_Node000012" class="edge">
<title>Node8&#45;&gt;Node12</title>
<g id="a_edge13_Node000008_Node000012"><a xlink:title=" ">
<path fill="none" stroke="#63b8ff" d="M385.57,-115.33C388.46,-114.69 391.32,-114.08 394.12,-113.5 414.52,-109.3 532.47,-89.98 606.51,-77.95"/>
<polygon fill="#63b8ff" stroke="#63b8ff" points="606.74,-81.46 616.05,-76.4 605.62,-74.55 606.74,-81.46"/>
</a>
</g>
</g>
<!-- Node10 -->
<g id="Node000010" class="node">
<title>Node10</title>
<g id="a_Node000010"><a xlink:title=" ">
<polygon fill="#e0e0e0" stroke="#999999" points="419.12,-20.75 265.12,-20.75 265.12,0 419.12,0 419.12,-20.75"/>
<text text-anchor="middle" x="342.12" y="-7.25" font-family="Helvetica,sans-Serif" font-size="10.00">llvm/Support/raw_ostream.h</text>
</a>
</g>
</g>
<!-- Node9&#45;&gt;Node10 -->
<g id="edge11_Node000009_Node000010" class="edge">
<title>Node9&#45;&gt;Node10</title>
<g id="a_edge11_Node000009_Node000010"><a xlink:title=" ">
<path fill="none" stroke="#63b8ff" d="M342.12,-56.34C342.12,-49.72 342.12,-40.72 342.12,-32.52"/>
<polygon fill="#63b8ff" stroke="#63b8ff" points="345.63,-32.59 342.13,-22.59 338.63,-32.59 345.63,-32.59"/>
</a>
</g>
</g>
<!-- Node17 -->
<g id="Node000017" class="node">
<title>Node17</title>
<g id="a_Node000017"><a xlink:title=" ">
<polygon fill="#e0e0e0" stroke="#999999" points="1719.25,-140.62 1611,-140.62 1611,-119.88 1719.25,-119.88 1719.25,-140.62"/>
<text text-anchor="middle" x="1665.12" y="-127.12" font-family="Helvetica,sans-Serif" font-size="10.00">mlir/IR/Operation.h</text>
</a>
</g>
</g>
<!-- Node16&#45;&gt;Node17 -->
<g id="edge20_Node000016_Node000017" class="edge">
<title>Node16&#45;&gt;Node17</title>
<g id="a_edge20_Node000016_Node000017"><a xlink:title=" ">
<path fill="none" stroke="#63b8ff" d="M1504.81,-182.55C1537.11,-172.22 1588.14,-155.89 1623.93,-144.43"/>
<polygon fill="#63b8ff" stroke="#63b8ff" points="1624.61,-147.89 1633.07,-141.51 1622.48,-141.22 1624.61,-147.89"/>
</a>
</g>
</g>
<!-- Node18 -->
<g id="Node000018" class="node">
<title>Node18</title>
<g id="a_Node000018"><a xlink:title=" ">
<polygon fill="#e0e0e0" stroke="#999999" points="1796.88,-140.62 1737.38,-140.62 1737.38,-119.88 1796.88,-119.88 1796.88,-140.62"/>
<text text-anchor="middle" x="1767.12" y="-127.12" font-family="Helvetica,sans-Serif" font-size="10.00">concepts</text>
</a>
</g>
</g>
<!-- Node16&#45;&gt;Node18 -->
<g id="edge21_Node000016_Node000018" class="edge">
<title>Node16&#45;&gt;Node18</title>
<g id="a_edge21_Node000016_Node000018"><a xlink:title=" ">
<path fill="none" stroke="#63b8ff" d="M1529.31,-183.89C1592.41,-173.94 1691.7,-157.49 1728.12,-147 1730.23,-146.39 1732.38,-145.71 1734.53,-144.98"/>
<polygon fill="#63b8ff" stroke="#63b8ff" points="1735.55,-148.34 1743.71,-141.58 1733.12,-141.77 1735.55,-148.34"/>
</a>
</g>
</g>
<!-- Node19 -->
<g id="Node000019" class="node">
<title>Node19</title>
<g id="a_Node000019"><a xlink:title=" ">
<polygon fill="#e0e0e0" stroke="#999999" points="1859.38,-140.62 1814.88,-140.62 1814.88,-119.88 1859.38,-119.88 1859.38,-140.62"/>
<text text-anchor="middle" x="1837.12" y="-127.12" font-family="Helvetica,sans-Serif" font-size="10.00">utility</text>
</a>
</g>
</g>
<!-- Node16&#45;&gt;Node19 -->
<g id="edge22_Node000016_Node000019" class="edge">
<title>Node16&#45;&gt;Node19</title>
<g id="a_edge22_Node000016_Node000019"><a xlink:title=" ">
<path fill="none" stroke="#63b8ff" d="M1529.28,-184.25C1532.27,-183.83 1535.23,-183.41 1538.12,-183 1657.14,-166.29 1691.38,-182.72 1806.12,-147 1807.49,-146.58 1808.86,-146.1 1810.23,-145.57"/>
<polygon fill="#63b8ff" stroke="#63b8ff" points="1811.42,-148.88 1819.12,-141.6 1808.56,-142.49 1811.42,-148.88"/>
</a>
</g>
</g>
<!-- Node20&#45;&gt;Node17 -->
<g id="edge26_Node000020_Node000017" class="edge">
<title>Node20&#45;&gt;Node17</title>
<g id="a_edge26_Node000020_Node000017"><a xlink:title=" ">
<path fill="none" stroke="#63b8ff" d="M1399.46,-182.53C1453.85,-174.13 1532.74,-161.18 1601.12,-147 1605.98,-145.99 1611.03,-144.87 1616.07,-143.71"/>
<polygon fill="#63b8ff" stroke="#63b8ff" points="1616.59,-147.18 1625.52,-141.47 1614.98,-140.37 1616.59,-147.18"/>
</a>
</g>
</g>
<!-- Node21 -->
<g id="Node000021" class="node">
<title>Node21</title>
<g id="a_Node000021"><a xlink:href="llzk_2Util_2Constants_8h.html" target="_top" xlink:title=" ">
<polygon fill="white" stroke="#666666" points="918.25,-140.62 804,-140.62 804,-119.88 918.25,-119.88 918.25,-140.62"/>
<text text-anchor="middle" x="861.12" y="-127.12" font-family="Helvetica,sans-Serif" font-size="10.00">llzk/Util/Constants.h</text>
</a>
</g>
</g>
<!-- Node20&#45;&gt;Node21 -->
<g id="edge24_Node000020_Node000021" class="edge">
<title>Node20&#45;&gt;Node21</title>
<g id="a_edge24_Node000020_Node000021"><a xlink:title=" ">
<path fill="none" stroke="#63b8ff" d="M1264.52,-187.3C1183.5,-180.7 1044.85,-167.55 927.12,-147 921.47,-146.01 915.57,-144.83 909.73,-143.56"/>
<polygon fill="#63b8ff" stroke="#63b8ff" points="910.66,-140.18 900.13,-141.38 909.11,-147.01 910.66,-140.18"/>
</a>
</g>
</g>
<!-- Node22 -->
<g id="Node000022" class="node">
<title>Node22</title>
<g id="a_Node000022"><a xlink:title=" ">
<polygon fill="#e0e0e0" stroke="#999999" points="1046.38,-140.62 935.88,-140.62 935.88,-119.88 1046.38,-119.88 1046.38,-140.62"/>
<text text-anchor="middle" x="991.12" y="-127.12" font-family="Helvetica,sans-Serif" font-size="10.00">mlir/IR/BuiltinOps.h</text>
</a>
</g>
</g>
<!-- Node20&#45;&gt;Node22 -->
<g id="edge25_Node000020_Node000022" class="edge">
<title>Node20&#45;&gt;Node22</title>
<g id="a_edge25_Node000020_Node000022"><a xlink:title=" ">
<path fill="none" stroke="#63b8ff" d="M1264.3,-182.7C1207.87,-174.39 1126.04,-161.49 1055.12,-147 1050.2,-145.99 1045.08,-144.87 1039.98,-143.7"/>
<polygon fill="#63b8ff" stroke="#63b8ff" points="1040.93,-140.32 1030.39,-141.43 1039.31,-147.14 1040.93,-140.32"/>
</a>
</g>
</g>
<!-- Node23 -->
<g id="Node000023" class="node">
<title>Node23</title>
<g id="a_Node000023"><a xlink:title=" ">
<polygon fill="#e0e0e0" stroke="#999999" points="1190.25,-140.62 1064,-140.62 1064,-119.88 1190.25,-119.88 1190.25,-140.62"/>
<text text-anchor="middle" x="1127.12" y="-127.12" font-family="Helvetica,sans-Serif" font-size="10.00">mlir/IR/OwningOpRef.h</text>
</a>
</g>
</g>
<!-- Node20&#45;&gt;Node23 -->
<g id="edge27_Node000020_Node000023" class="edge">
<title>Node20&#45;&gt;Node23</title>
<g id="a_edge27_Node000020_Node000023"><a xlink:title=" ">
<path fill="none" stroke="#63b8ff" d="M1300.03,-182.55C1265.04,-172.17 1209.68,-155.74 1171.05,-144.28"/>
<polygon fill="#63b8ff" stroke="#63b8ff" points="1172.17,-140.97 1161.59,-141.48 1170.18,-147.68 1172.17,-140.97"/>
</a>
</g>
</g>
<!-- Node24 -->
<g id="Node000024" class="node">
<title>Node24</title>
<g id="a_Node000024"><a xlink:title=" ">
<polygon fill="#e0e0e0" stroke="#999999" points="1323.62,-140.62 1208.62,-140.62 1208.62,-119.88 1323.62,-119.88 1323.62,-140.62"/>
<text text-anchor="middle" x="1266.12" y="-127.12" font-family="Helvetica,sans-Serif" font-size="10.00">llvm/ADT/ArrayRef.h</text>
</a>
</g>
</g>
<!-- Node20&#45;&gt;Node24 -->
<g id="edge28_Node000020_Node000024" class="edge">
<title>Node20&#45;&gt;Node24</title>
<g id="a_edge28_Node000020_Node000024"><a xlink:title=" ">
<path fill="none" stroke="#63b8ff" d="M1322.36,-182.55C1312.34,-173.41 1297.18,-159.58 1285.12,-148.58"/>
<polygon fill="#63b8ff" stroke="#63b8ff" points="1287.51,-146.02 1277.76,-141.86 1282.79,-151.19 1287.51,-146.02"/>
</a>
</g>
</g>
<!-- Node25 -->
<g id="Node000025" class="node">
<title>Node25</title>
<g id="a_Node000025"><a xlink:title=" ">
<polygon fill="#e0e0e0" stroke="#999999" points="1458.75,-140.62 1341.5,-140.62 1341.5,-119.88 1458.75,-119.88 1458.75,-140.62"/>
<text text-anchor="middle" x="1400.12" y="-127.12" font-family="Helvetica,sans-Serif" font-size="10.00">llvm/ADT/StringRef.h</text>
</a>
</g>
</g>
<!-- Node20&#45;&gt;Node25 -->
<g id="edge29_Node000020_Node000025" class="edge">
<title>Node20&#45;&gt;Node25</title>
<g id="a_edge29_Node000020_Node000025"><a xlink:title=" ">
<path fill="none" stroke="#63b8ff" d="M1343.89,-182.55C1353.91,-173.41 1369.07,-159.58 1381.13,-148.58"/>
<polygon fill="#63b8ff" stroke="#63b8ff" points="1383.46,-151.19 1388.49,-141.86 1378.74,-146.02 1383.46,-151.19"/>
</a>
</g>
</g>
<!-- Node26 -->
<g id="Node000026" class="node">
<title>Node26</title>
<g id="a_Node000026"><a xlink:title=" ">
<polygon fill="#e0e0e0" stroke="#999999" points="1527.38,-140.62 1476.88,-140.62 1476.88,-119.88 1527.38,-119.88 1527.38,-140.62"/>
<text text-anchor="middle" x="1502.12" y="-127.12" font-family="Helvetica,sans-Serif" font-size="10.00">variant</text>
</a>
</g>
</g>
<!-- Node20&#45;&gt;Node26 -->
<g id="edge30_Node000020_Node000026" class="edge">
<title>Node20&#45;&gt;Node26</title>
<g id="a_edge30_Node000020_Node000026"><a xlink:title=" ">
<path fill="none" stroke="#63b8ff" d="M1365.67,-182.54C1393.24,-173.94 1433.67,-160.72 1468.12,-147 1469.24,-146.55 1470.38,-146.09 1471.52,-145.62"/>
<polygon fill="#63b8ff" stroke="#63b8ff" points="1472.65,-148.94 1480.4,-141.72 1469.84,-142.53 1472.65,-148.94"/>
</a>
</g>
</g>
<!-- Node27 -->
<g id="Node000027" class="node">
<title>Node27</title>
<g id="a_Node000027"><a xlink:title=" ">
<polygon fill="#e0e0e0" stroke="#999999" points="1592.5,-140.62 1545.75,-140.62 1545.75,-119.88 1592.5,-119.88 1592.5,-140.62"/>
<text text-anchor="middle" x="1569.12" y="-127.12" font-family="Helvetica,sans-Serif" font-size="10.00">vector</text>
</a>
</g>
</g>
<!-- Node20&#45;&gt;Node27 -->
<g id="edge31_Node000020_Node000027" class="edge">
<title>Node20&#45;&gt;Node27</title>
<g id="a_edge31_Node000020_Node000027"><a xlink:title=" ">
<path fill="none" stroke="#63b8ff" d="M1393.62,-182.55C1434.51,-175.01 1489.36,-163.15 1536.12,-147 1537.48,-146.53 1538.84,-146.03 1540.21,-145.49"/>
<polygon fill="#63b8ff" stroke="#63b8ff" points="1541.41,-148.79 1549.2,-141.6 1538.63,-142.36 1541.41,-148.79"/>
</a>
</g>
</g>
</g>
</svg>
