<?xml version="1.0" encoding="UTF-8" standalone="no"?>
<!DOCTYPE svg PUBLIC "-//W3C//DTD SVG 1.1//EN"
 "http://www.w3.org/Graphics/SVG/1.1/DTD/svg11.dtd">
<!-- Generated by graphviz version 12.2.1 (0)
 -->
<!-- Title: lib/CAPI/Support.cpp Pages: 1 -->
<svg width="2106pt" height="269pt"
 viewBox="0.00 0.00 2105.50 268.50" xmlns="http://www.w3.org/2000/svg" xmlns:xlink="http://www.w3.org/1999/xlink">
<g id="graph0" class="graph" transform="scale(1 1) rotate(0) translate(4 264.5)">
<title>lib/CAPI/Support.cpp</title>
<!-- Node1 -->
<g id="Node000001" class="node">
<title>Node1</title>
<g id="a_Node000001"><a xlink:title=" ">
<polygon fill="#999999" stroke="#666666" points="1477.12,-260.5 1362.88,-260.5 1362.88,-239.75 1477.12,-239.75 1477.12,-260.5"/>
<text text-anchor="middle" x="1420" y="-247" font-family="Helvetica,sans-Serif" font-size="10.00">lib/CAPI/Support.cpp</text>
</a>
</g>
</g>
<!-- Node2 -->
<g id="Node000002" class="node">
<title>Node2</title>
<g id="a_Node000002"><a xlink:href="llzk_2CAPI_2Support_8h.html" target="_top" xlink:title=" ">
<polygon fill="white" stroke="#666666" points="546.12,-203.75 437.88,-203.75 437.88,-183 546.12,-183 546.12,-203.75"/>
<text text-anchor="middle" x="492" y="-190.25" font-family="Helvetica,sans-Serif" font-size="10.00">llzk/CAPI/Support.h</text>
</a>
</g>
</g>
<!-- Node1&#45;&gt;Node2 -->
<g id="edge1_Node000001_Node000002" class="edge">
<title>Node1&#45;&gt;Node2</title>
<g id="a_edge1_Node000001_Node000002"><a xlink:title=" ">
<path fill="none" stroke="#63b8ff" d="M1362.65,-245.74C1199.17,-236.1 731.44,-208.5 557.87,-198.26"/>
<polygon fill="#63b8ff" stroke="#63b8ff" points="558.32,-194.78 548.14,-197.69 557.91,-201.77 558.32,-194.78"/>
</a>
</g>
</g>
<!-- Node8 -->
<g id="Node000008" class="node">
<title>Node8</title>
<g id="a_Node000008"><a xlink:href="llzk-c_2Support_8h.html" target="_top" xlink:title=" ">
<polygon fill="white" stroke="#666666" points="225.88,-140.62 134.12,-140.62 134.12,-119.88 225.88,-119.88 225.88,-140.62"/>
<text text-anchor="middle" x="180" y="-127.12" font-family="Helvetica,sans-Serif" font-size="10.00">llzk&#45;c/Support.h</text>
</a>
</g>
</g>
<!-- Node1&#45;&gt;Node8 -->
<g id="edge31_Node000001_Node000008" class="edge">
<title>Node1&#45;&gt;Node8</title>
<g id="a_edge31_Node000001_Node000008"><a xlink:title=" ">
<path fill="none" stroke="#63b8ff" d="M1362.45,-248.28C1179.16,-245.32 610.48,-233.88 429,-203.75 351.9,-190.95 264.88,-162.17 216.83,-144.97"/>
<polygon fill="#63b8ff" stroke="#63b8ff" points="218.07,-141.7 207.48,-141.59 215.69,-148.28 218.07,-141.7"/>
</a>
</g>
</g>
<!-- Node13 -->
<g id="Node000013" class="node">
<title>Node13</title>
<g id="a_Node000013"><a xlink:title=" ">
<polygon fill="#e0e0e0" stroke="#999999" points="801.38,-140.62 718.62,-140.62 718.62,-119.88 801.38,-119.88 801.38,-140.62"/>
<text text-anchor="middle" x="760" y="-127.12" font-family="Helvetica,sans-Serif" font-size="10.00">mlir/CAPI/IR.h</text>
</a>
</g>
</g>
<!-- Node1&#45;&gt;Node13 -->
<g id="edge32_Node000001_Node000013" class="edge">
<title>Node1&#45;&gt;Node13</title>
<g id="a_edge32_Node000001_Node000013"><a xlink:title=" ">
<path fill="none" stroke="#63b8ff" d="M1362.53,-246.96C1245.77,-242.1 984.64,-228.73 899,-203.75 855.87,-191.17 810.56,-164.66 783.82,-147.43"/>
<polygon fill="#63b8ff" stroke="#63b8ff" points="785.75,-144.5 775.47,-141.94 781.9,-150.35 785.75,-144.5"/>
</a>
</g>
</g>
<!-- Node16 -->
<g id="Node000016" class="node">
<title>Node16</title>
<g id="a_Node000016"><a xlink:href="Compare_8h.html" target="_top" xlink:title=" ">
<polygon fill="white" stroke="#666666" points="1017.88,-203.75 908.12,-203.75 908.12,-183 1017.88,-183 1017.88,-203.75"/>
<text text-anchor="middle" x="963" y="-190.25" font-family="Helvetica,sans-Serif" font-size="10.00">llzk/Util/Compare.h</text>
</a>
</g>
</g>
<!-- Node1&#45;&gt;Node16 -->
<g id="edge18_Node000001_Node000016" class="edge">
<title>Node1&#45;&gt;Node16</title>
<g id="a_edge18_Node000001_Node000016"><a xlink:title=" ">
<path fill="none" stroke="#63b8ff" d="M1362.58,-242.25C1277.72,-232.08 1119.2,-213.09 1029.44,-202.33"/>
<polygon fill="#63b8ff" stroke="#63b8ff" points="1029.89,-198.86 1019.55,-201.15 1029.06,-205.81 1029.89,-198.86"/>
</a>
</g>
</g>
<!-- Node20 -->
<g id="Node000020" class="node">
<title>Node20</title>
<g id="a_Node000020"><a xlink:href="SymbolLookup_8h.html" target="_top" xlink:title="This file defines methods symbol lookup across LLZK operations and included files.">
<polygon fill="white" stroke="#666666" points="1285.38,-203.75 1148.62,-203.75 1148.62,-183 1285.38,-183 1285.38,-203.75"/>
<text text-anchor="middle" x="1217" y="-190.25" font-family="Helvetica,sans-Serif" font-size="10.00">llzk/Util/SymbolLookup.h</text>
</a>
</g>
</g>
<!-- Node1&#45;&gt;Node20 -->
<g id="edge22_Node000001_Node000020" class="edge">
<title>Node1&#45;&gt;Node20</title>
<g id="a_edge22_Node000001_Node000020"><a xlink:title=" ">
<path fill="none" stroke="#63b8ff" d="M1383.71,-239.34C1350.33,-230.33 1300.62,-216.93 1264.17,-207.1"/>
<polygon fill="#63b8ff" stroke="#63b8ff" points="1265.35,-203.79 1254.78,-204.56 1263.52,-210.55 1265.35,-203.79"/>
</a>
</g>
</g>
<!-- Node28 -->
<g id="Node000028" class="node">
<title>Node28</title>
<g id="a_Node000028"><a xlink:title=" ">
<polygon fill="#e0e0e0" stroke="#999999" points="1414.25,-203.75 1303.75,-203.75 1303.75,-183 1414.25,-183 1414.25,-203.75"/>
<text text-anchor="middle" x="1359" y="-190.25" font-family="Helvetica,sans-Serif" font-size="10.00">mlir/CAPI/Support.h</text>
</a>
</g>
</g>
<!-- Node1&#45;&gt;Node28 -->
<g id="edge33_Node000001_Node000028" class="edge">
<title>Node1&#45;&gt;Node28</title>
<g id="a_edge33_Node000001_Node000028"><a xlink:title=" ">
<path fill="none" stroke="#63b8ff" d="M1409.09,-239.34C1400.51,-231.63 1388.33,-220.7 1378.12,-211.54"/>
<polygon fill="#63b8ff" stroke="#63b8ff" points="1380.72,-209.16 1370.94,-205.09 1376.04,-214.37 1380.72,-209.16"/>
</a>
</g>
</g>
<!-- Node29 -->
<g id="Node000029" class="node">
<title>Node29</title>
<g id="a_Node000029"><a xlink:title=" ">
<polygon fill="#e0e0e0" stroke="#999999" points="1531.25,-203.75 1432.75,-203.75 1432.75,-183 1531.25,-183 1531.25,-203.75"/>
<text text-anchor="middle" x="1482" y="-190.25" font-family="Helvetica,sans-Serif" font-size="10.00">mlir/CAPI/Wrap.h</text>
</a>
</g>
</g>
<!-- Node1&#45;&gt;Node29 -->
<g id="edge34_Node000001_Node000029" class="edge">
<title>Node1&#45;&gt;Node29</title>
<g id="a_edge34_Node000001_Node000029"><a xlink:title=" ">
<path fill="none" stroke="#63b8ff" d="M1431.08,-239.34C1439.81,-231.63 1452.19,-220.7 1462.56,-211.54"/>
<polygon fill="#63b8ff" stroke="#63b8ff" points="1464.7,-214.32 1469.88,-205.08 1460.06,-209.08 1464.7,-214.32"/>
</a>
</g>
</g>
<!-- Node30 -->
<g id="Node000030" class="node">
<title>Node30</title>
<g id="a_Node000030"><a xlink:title=" ">
<polygon fill="#e0e0e0" stroke="#999999" points="1688.88,-203.75 1549.12,-203.75 1549.12,-183 1688.88,-183 1688.88,-203.75"/>
<text text-anchor="middle" x="1619" y="-190.25" font-family="Helvetica,sans-Serif" font-size="10.00">mlir/IR/BuiltinAttributes.h</text>
</a>
</g>
</g>
<!-- Node1&#45;&gt;Node30 -->
<g id="edge35_Node000001_Node000030" class="edge">
<title>Node1&#45;&gt;Node30</title>
<g id="a_edge35_Node000001_Node000030"><a xlink:title=" ">
<path fill="none" stroke="#63b8ff" d="M1455.58,-239.34C1488.3,-230.33 1537.02,-216.93 1572.76,-207.1"/>
<polygon fill="#63b8ff" stroke="#63b8ff" points="1573.22,-210.6 1581.94,-204.57 1571.37,-203.85 1573.22,-210.6"/>
</a>
</g>
</g>
<!-- Node31 -->
<g id="Node000031" class="node">
<title>Node31</title>
<g id="a_Node000031"><a xlink:title=" ">
<polygon fill="#e0e0e0" stroke="#999999" points="1808.75,-203.75 1707.25,-203.75 1707.25,-183 1808.75,-183 1808.75,-203.75"/>
<text text-anchor="middle" x="1758" y="-190.25" font-family="Helvetica,sans-Serif" font-size="10.00">mlir/IR/Iterators.h</text>
</a>
</g>
</g>
<!-- Node1&#45;&gt;Node31 -->
<g id="edge36_Node000001_Node000031" class="edge">
<title>Node1&#45;&gt;Node31</title>
<g id="a_edge36_Node000001_Node000031"><a xlink:title=" ">
<path fill="none" stroke="#63b8ff" d="M1477.34,-239.84C1537.89,-230.03 1633.06,-214.61 1695.49,-204.5"/>
<polygon fill="#63b8ff" stroke="#63b8ff" points="1695.95,-207.97 1705.26,-202.92 1694.83,-201.06 1695.95,-207.97"/>
</a>
</g>
</g>
<!-- Node32 -->
<g id="Node000032" class="node">
<title>Node32</title>
<g id="a_Node000032"><a xlink:title=" ">
<polygon fill="#e0e0e0" stroke="#999999" points="1963,-203.75 1827,-203.75 1827,-183 1963,-183 1963,-203.75"/>
<text text-anchor="middle" x="1895" y="-190.25" font-family="Helvetica,sans-Serif" font-size="10.00">mlir&#45;c/BuiltinAttributes.h</text>
</a>
</g>
</g>
<!-- Node1&#45;&gt;Node32 -->
<g id="edge37_Node000001_Node000032" class="edge">
<title>Node1&#45;&gt;Node32</title>
<g id="a_edge37_Node000001_Node000032"><a xlink:title=" ">
<path fill="none" stroke="#63b8ff" d="M1477.36,-242.73C1552.53,-234.31 1688.79,-218.94 1815.52,-204.04"/>
<polygon fill="#63b8ff" stroke="#63b8ff" points="1815.54,-207.56 1825.07,-202.91 1814.73,-200.6 1815.54,-207.56"/>
</a>
</g>
</g>
<!-- Node33 -->
<g id="Node000033" class="node">
<title>Node33</title>
<g id="a_Node000033"><a xlink:title=" ">
<polygon fill="#e0e0e0" stroke="#999999" points="2030.5,-203.75 1981.5,-203.75 1981.5,-183 2030.5,-183 2030.5,-203.75"/>
<text text-anchor="middle" x="2006" y="-190.25" font-family="Helvetica,sans-Serif" font-size="10.00">cstdint</text>
</a>
</g>
</g>
<!-- Node1&#45;&gt;Node33 -->
<g id="edge38_Node000001_Node000033" class="edge">
<title>Node1&#45;&gt;Node33</title>
<g id="a_edge38_Node000001_Node000033"><a xlink:title=" ">
<path fill="none" stroke="#63b8ff" d="M1477.27,-247.94C1576.01,-245.13 1784.72,-235.83 1969.92,-203.77"/>
<polygon fill="#63b8ff" stroke="#63b8ff" points="1970.51,-207.22 1979.75,-202.04 1969.29,-200.33 1970.51,-207.22"/>
</a>
</g>
</g>
<!-- Node34 -->
<g id="Node000034" class="node">
<title>Node34</title>
<g id="a_Node000034"><a xlink:title=" ">
<polygon fill="#e0e0e0" stroke="#999999" points="2097.5,-203.75 2048.5,-203.75 2048.5,-183 2097.5,-183 2097.5,-203.75"/>
<text text-anchor="middle" x="2073" y="-190.25" font-family="Helvetica,sans-Serif" font-size="10.00">cstring</text>
</a>
</g>
</g>
<!-- Node1&#45;&gt;Node34 -->
<g id="edge39_Node000001_Node000034" class="edge">
<title>Node1&#45;&gt;Node34</title>
<g id="a_edge39_Node000001_Node000034"><a xlink:title=" ">
<path fill="none" stroke="#63b8ff" d="M1477.32,-248.81C1585.36,-247.39 1826.47,-240.21 2036.99,-203.96"/>
<polygon fill="#63b8ff" stroke="#63b8ff" points="2037.52,-207.42 2046.77,-202.25 2036.32,-200.53 2037.52,-207.42"/>
</a>
</g>
</g>
<!-- Node3 -->
<g id="Node000003" class="node">
<title>Node3</title>
<g id="a_Node000003"><a xlink:href="AttributeHelper_8h.html" target="_top" xlink:title=" ">
<polygon fill="white" stroke="#666666" points="401.25,-147 290.75,-147 290.75,-113.5 401.25,-113.5 401.25,-147"/>
<text text-anchor="start" x="298.75" y="-133.5" font-family="Helvetica,sans-Serif" font-size="10.00">llzk/Dialect/LLZK/IR</text>
<text text-anchor="middle" x="346" y="-120.75" font-family="Helvetica,sans-Serif" font-size="10.00">/AttributeHelper.h</text>
</a>
</g>
</g>
<!-- Node2&#45;&gt;Node3 -->
<g id="edge2_Node000002_Node000003" class="edge">
<title>Node2&#45;&gt;Node3</title>
<g id="a_edge2_Node000002_Node000003"><a xlink:title=" ">
<path fill="none" stroke="#63b8ff" d="M468.54,-182.55C448.79,-174.29 419.89,-162.18 395.11,-151.81"/>
<polygon fill="#63b8ff" stroke="#63b8ff" points="396.75,-148.7 386.17,-148.07 394.05,-155.16 396.75,-148.7"/>
</a>
</g>
</g>
<!-- Node2&#45;&gt;Node8 -->
<g id="edge7_Node000002_Node000008" class="edge">
<title>Node2&#45;&gt;Node8</title>
<g id="a_edge7_Node000002_Node000008"><a xlink:title=" ">
<path fill="none" stroke="#63b8ff" d="M437.83,-182.9C388.51,-174.12 313.71,-160.42 249,-147 243.79,-145.92 238.36,-144.75 232.94,-143.56"/>
<polygon fill="#63b8ff" stroke="#63b8ff" points="233.9,-140.19 223.38,-141.43 232.38,-147.02 233.9,-140.19"/>
</a>
</g>
</g>
<!-- Node10 -->
<g id="Node000010" class="node">
<title>Node10</title>
<g id="a_Node000010"><a xlink:title=" ">
<polygon fill="#e0e0e0" stroke="#999999" points="258.12,-20.75 191.88,-20.75 191.88,0 258.12,0 258.12,-20.75"/>
<text text-anchor="middle" x="225" y="-7.25" font-family="Helvetica,sans-Serif" font-size="10.00">mlir&#45;c/IR.h</text>
</a>
</g>
</g>
<!-- Node2&#45;&gt;Node10 -->
<g id="edge17_Node000002_Node000010" class="edge">
<title>Node2&#45;&gt;Node10</title>
<g id="a_edge17_Node000002_Node000010"><a xlink:title=" ">
<path fill="none" stroke="#63b8ff" d="M437.75,-186.38C383.65,-179.42 305.32,-166.36 282,-147 246.58,-117.59 232.78,-62.36 227.71,-32.25"/>
<polygon fill="#63b8ff" stroke="#63b8ff" points="231.2,-31.9 226.26,-22.53 224.28,-32.93 231.2,-31.9"/>
</a>
</g>
</g>
<!-- Node2&#45;&gt;Node13 -->
<g id="edge14_Node000002_Node000013" class="edge">
<title>Node2&#45;&gt;Node13</title>
<g id="a_edge14_Node000002_Node000013"><a xlink:title=" ">
<path fill="none" stroke="#63b8ff" d="M546.55,-182.59C590.86,-174.26 654.83,-161.39 710,-147 713.14,-146.18 716.37,-145.29 719.61,-144.35"/>
<polygon fill="#63b8ff" stroke="#63b8ff" points="720.51,-147.73 729.08,-141.51 718.5,-141.03 720.51,-147.73"/>
</a>
</g>
</g>
<!-- Node14 -->
<g id="Node000014" class="node">
<title>Node14</title>
<g id="a_Node000014"><a xlink:title=" ">
<polygon fill="#e0e0e0" stroke="#999999" points="564.88,-140.62 419.12,-140.62 419.12,-119.88 564.88,-119.88 564.88,-140.62"/>
<text text-anchor="middle" x="492" y="-127.12" font-family="Helvetica,sans-Serif" font-size="10.00">mlir/IR/OperationSupport.h</text>
</a>
</g>
</g>
<!-- Node2&#45;&gt;Node14 -->
<g id="edge15_Node000002_Node000014" class="edge">
<title>Node2&#45;&gt;Node14</title>
<g id="a_edge15_Node000002_Node000014"><a xlink:title=" ">
<path fill="none" stroke="#63b8ff" d="M492,-182.55C492,-174.4 492,-162.51 492,-152.23"/>
<polygon fill="#63b8ff" stroke="#63b8ff" points="495.5,-152.36 492,-142.36 488.5,-152.36 495.5,-152.36"/>
</a>
</g>
</g>
<!-- Node15 -->
<g id="Node000015" class="node">
<title>Node15</title>
<g id="a_Node000015"><a xlink:title=" ">
<polygon fill="#e0e0e0" stroke="#999999" points="701,-140.62 583,-140.62 583,-119.88 701,-119.88 701,-140.62"/>
<text text-anchor="middle" x="642" y="-127.12" font-family="Helvetica,sans-Serif" font-size="10.00">mlir/IR/ValueRange.h</text>
</a>
</g>
</g>
<!-- Node2&#45;&gt;Node15 -->
<g id="edge16_Node000002_Node000015" class="edge">
<title>Node2&#45;&gt;Node15</title>
<g id="a_edge16_Node000002_Node000015"><a xlink:title=" ">
<path fill="none" stroke="#63b8ff" d="M516.1,-182.55C540.81,-172.48 579.48,-156.73 607.45,-145.33"/>
<polygon fill="#63b8ff" stroke="#63b8ff" points="608.62,-148.63 616.56,-141.62 605.98,-142.15 608.62,-148.63"/>
</a>
</g>
</g>
<!-- Node4 -->
<g id="Node000004" class="node">
<title>Node4</title>
<g id="a_Node000004"><a xlink:href="StreamHelper_8h.html" target="_top" xlink:title=" ">
<polygon fill="white" stroke="#666666" points="731.12,-77.5 598.88,-77.5 598.88,-56.75 731.12,-56.75 731.12,-77.5"/>
<text text-anchor="middle" x="665" y="-64" font-family="Helvetica,sans-Serif" font-size="10.00">llzk/Util/StreamHelper.h</text>
</a>
</g>
</g>
<!-- Node3&#45;&gt;Node4 -->
<g id="edge3_Node000003_Node000004" class="edge">
<title>Node3&#45;&gt;Node4</title>
<g id="a_edge3_Node000003_Node000004"><a xlink:title=" ">
<path fill="none" stroke="#63b8ff" d="M401.45,-115.37C404.34,-114.72 407.2,-114.09 410,-113.5 471.04,-100.57 540.82,-88.33 591.94,-79.83"/>
<polygon fill="#63b8ff" stroke="#63b8ff" points="592.42,-83.29 601.71,-78.21 591.28,-76.39 592.42,-83.29"/>
</a>
</g>
</g>
<!-- Node6 -->
<g id="Node000006" class="node">
<title>Node6</title>
<g id="a_Node000006"><a xlink:title=" ">
<polygon fill="#e0e0e0" stroke="#999999" points="580.38,-77.5 407.62,-77.5 407.62,-56.75 580.38,-56.75 580.38,-77.5"/>
<text text-anchor="middle" x="494" y="-64" font-family="Helvetica,sans-Serif" font-size="10.00">mlir/IR/DialectImplementation.h</text>
</a>
</g>
</g>
<!-- Node3&#45;&gt;Node6 -->
<g id="edge5_Node000003_Node000006" class="edge">
<title>Node3&#45;&gt;Node6</title>
<g id="a_edge5_Node000003_Node000006"><a xlink:title=" ">
<path fill="none" stroke="#63b8ff" d="M385.27,-113.03C408.42,-103.47 437.44,-91.49 459.67,-82.3"/>
<polygon fill="#63b8ff" stroke="#63b8ff" points="460.99,-85.55 468.9,-78.49 458.32,-79.08 460.99,-85.55"/>
</a>
</g>
</g>
<!-- Node7 -->
<g id="Node000007" class="node">
<title>Node7</title>
<g id="a_Node000007"><a xlink:title=" ">
<polygon fill="#e0e0e0" stroke="#999999" points="389.25,-77.5 290.75,-77.5 290.75,-56.75 389.25,-56.75 389.25,-77.5"/>
<text text-anchor="middle" x="340" y="-64" font-family="Helvetica,sans-Serif" font-size="10.00">llvm/ADT/APInt.h</text>
</a>
</g>
</g>
<!-- Node3&#45;&gt;Node7 -->
<g id="edge6_Node000003_Node000007" class="edge">
<title>Node3&#45;&gt;Node7</title>
<g id="a_edge6_Node000003_Node000007"><a xlink:title=" ">
<path fill="none" stroke="#63b8ff" d="M344.42,-113.19C343.7,-105.85 342.84,-97.07 342.07,-89.21"/>
<polygon fill="#63b8ff" stroke="#63b8ff" points="345.57,-89.08 341.11,-79.47 338.61,-89.77 345.57,-89.08"/>
</a>
</g>
</g>
<!-- Node5 -->
<g id="Node000005" class="node">
<title>Node5</title>
<g id="a_Node000005"><a xlink:title=" ">
<polygon fill="#e0e0e0" stroke="#999999" points="742,-20.75 588,-20.75 588,0 742,0 742,-20.75"/>
<text text-anchor="middle" x="665" y="-7.25" font-family="Helvetica,sans-Serif" font-size="10.00">llvm/Support/raw_ostream.h</text>
</a>
</g>
</g>
<!-- Node4&#45;&gt;Node5 -->
<g id="edge4_Node000004_Node000005" class="edge">
<title>Node4&#45;&gt;Node5</title>
<g id="a_edge4_Node000004_Node000005"><a xlink:title=" ">
<path fill="none" stroke="#63b8ff" d="M665,-56.34C665,-49.72 665,-40.72 665,-32.52"/>
<polygon fill="#63b8ff" stroke="#63b8ff" points="668.5,-32.59 665,-22.59 661.5,-32.59 668.5,-32.59"/>
</a>
</g>
</g>
<!-- Node9 -->
<g id="Node000009" class="node">
<title>Node9</title>
<g id="a_Node000009"><a xlink:href="llzk-c_2Builder_8h.html" target="_top" xlink:title=" ">
<polygon fill="white" stroke="#666666" points="127,-77.5 39,-77.5 39,-56.75 127,-56.75 127,-77.5"/>
<text text-anchor="middle" x="83" y="-64" font-family="Helvetica,sans-Serif" font-size="10.00">llzk&#45;c/Builder.h</text>
</a>
</g>
</g>
<!-- Node8&#45;&gt;Node9 -->
<g id="edge8_Node000008_Node000009" class="edge">
<title>Node8&#45;&gt;Node9</title>
<g id="a_edge8_Node000008_Node000009"><a xlink:title=" ">
<path fill="none" stroke="#63b8ff" d="M164.42,-119.43C149.28,-109.89 126.06,-95.26 108.28,-84.06"/>
<polygon fill="#63b8ff" stroke="#63b8ff" points="110.15,-81.1 99.83,-78.73 106.42,-87.02 110.15,-81.1"/>
</a>
</g>
</g>
<!-- Node8&#45;&gt;Node10 -->
<g id="edge11_Node000008_Node000010" class="edge">
<title>Node8&#45;&gt;Node10</title>
<g id="a_edge11_Node000008_Node000010"><a xlink:title=" ">
<path fill="none" stroke="#63b8ff" d="M185.54,-119.58C191.23,-109.36 200.07,-92.67 206,-77.5 211.8,-62.66 216.71,-45.34 220.09,-32.14"/>
<polygon fill="#63b8ff" stroke="#63b8ff" points="223.49,-32.99 222.47,-22.45 216.69,-31.32 223.49,-32.99"/>
</a>
</g>
</g>
<!-- Node11 -->
<g id="Node000011" class="node">
<title>Node11</title>
<g id="a_Node000011"><a xlink:title=" ">
<polygon fill="#e0e0e0" stroke="#999999" points="94,-20.75 0,-20.75 0,0 94,0 94,-20.75"/>
<text text-anchor="middle" x="47" y="-7.25" font-family="Helvetica,sans-Serif" font-size="10.00">mlir&#45;c/Support.h</text>
</a>
</g>
</g>
<!-- Node8&#45;&gt;Node11 -->
<g id="edge12_Node000008_Node000011" class="edge">
<title>Node8&#45;&gt;Node11</title>
<g id="a_edge12_Node000008_Node000011"><a xlink:title=" ">
<path fill="none" stroke="#63b8ff" d="M133.65,-126.94C98.85,-122.48 53.35,-110.25 30,-77.5 20.13,-63.66 26.66,-44.57 34.31,-30.46"/>
<polygon fill="#63b8ff" stroke="#63b8ff" points="37.18,-32.47 39.34,-22.1 31.18,-28.86 37.18,-32.47"/>
</a>
</g>
</g>
<!-- Node12 -->
<g id="Node000012" class="node">
<title>Node12</title>
<g id="a_Node000012"><a xlink:title=" ">
<polygon fill="#e0e0e0" stroke="#999999" points="197.38,-77.5 144.62,-77.5 144.62,-56.75 197.38,-56.75 197.38,-77.5"/>
<text text-anchor="middle" x="171" y="-64" font-family="Helvetica,sans-Serif" font-size="10.00">stdint.h</text>
</a>
</g>
</g>
<!-- Node8&#45;&gt;Node12 -->
<g id="edge13_Node000008_Node000012" class="edge">
<title>Node8&#45;&gt;Node12</title>
<g id="a_edge13_Node000008_Node000012"><a xlink:title=" ">
<path fill="none" stroke="#63b8ff" d="M178.55,-119.43C177.35,-111.27 175.6,-99.38 174.09,-89.1"/>
<polygon fill="#63b8ff" stroke="#63b8ff" points="177.55,-88.6 172.63,-79.22 170.63,-89.62 177.55,-88.6"/>
</a>
</g>
</g>
<!-- Node9&#45;&gt;Node10 -->
<g id="edge9_Node000009_Node000010" class="edge">
<title>Node9&#45;&gt;Node10</title>
<g id="a_edge9_Node000009_Node000010"><a xlink:title=" ">
<path fill="none" stroke="#63b8ff" d="M108.39,-56.34C130.9,-47.66 164.03,-34.88 189.23,-25.17"/>
<polygon fill="#63b8ff" stroke="#63b8ff" points="190.35,-28.49 198.42,-21.62 187.83,-21.95 190.35,-28.49"/>
</a>
</g>
</g>
<!-- Node9&#45;&gt;Node11 -->
<g id="edge10_Node000009_Node000011" class="edge">
<title>Node9&#45;&gt;Node11</title>
<g id="a_edge10_Node000009_Node000011"><a xlink:title=" ">
<path fill="none" stroke="#63b8ff" d="M76.56,-56.34C71.85,-49.17 65.31,-39.23 59.58,-30.51"/>
<polygon fill="#63b8ff" stroke="#63b8ff" points="62.63,-28.78 54.21,-22.34 56.78,-32.62 62.63,-28.78"/>
</a>
</g>
</g>
<!-- Node17 -->
<g id="Node000017" class="node">
<title>Node17</title>
<g id="a_Node000017"><a xlink:title=" ">
<polygon fill="#e0e0e0" stroke="#999999" points="1067.12,-140.62 958.88,-140.62 958.88,-119.88 1067.12,-119.88 1067.12,-140.62"/>
<text text-anchor="middle" x="1013" y="-127.12" font-family="Helvetica,sans-Serif" font-size="10.00">mlir/IR/Operation.h</text>
</a>
</g>
</g>
<!-- Node16&#45;&gt;Node17 -->
<g id="edge19_Node000016_Node000017" class="edge">
<title>Node16&#45;&gt;Node17</title>
<g id="a_edge19_Node000016_Node000017"><a xlink:title=" ">
<path fill="none" stroke="#63b8ff" d="M971.03,-182.55C978.29,-173.68 989.17,-160.39 998.03,-149.56"/>
<polygon fill="#63b8ff" stroke="#63b8ff" points="1000.57,-151.97 1004.19,-142.02 995.15,-147.54 1000.57,-151.97"/>
</a>
</g>
</g>
<!-- Node18 -->
<g id="Node000018" class="node">
<title>Node18</title>
<g id="a_Node000018"><a xlink:title=" ">
<polygon fill="#e0e0e0" stroke="#999999" points="878.75,-140.62 819.25,-140.62 819.25,-119.88 878.75,-119.88 878.75,-140.62"/>
<text text-anchor="middle" x="849" y="-127.12" font-family="Helvetica,sans-Serif" font-size="10.00">concepts</text>
</a>
</g>
</g>
<!-- Node16&#45;&gt;Node18 -->
<g id="edge20_Node000016_Node000018" class="edge">
<title>Node16&#45;&gt;Node18</title>
<g id="a_edge20_Node000016_Node000018"><a xlink:title=" ">
<path fill="none" stroke="#63b8ff" d="M944.68,-182.55C926.48,-172.8 898.32,-157.7 877.26,-146.4"/>
<polygon fill="#63b8ff" stroke="#63b8ff" points="879.07,-143.4 868.6,-141.76 875.76,-149.57 879.07,-143.4"/>
</a>
</g>
</g>
<!-- Node19 -->
<g id="Node000019" class="node">
<title>Node19</title>
<g id="a_Node000019"><a xlink:title=" ">
<polygon fill="#e0e0e0" stroke="#999999" points="941.25,-140.62 896.75,-140.62 896.75,-119.88 941.25,-119.88 941.25,-140.62"/>
<text text-anchor="middle" x="919" y="-127.12" font-family="Helvetica,sans-Serif" font-size="10.00">utility</text>
</a>
</g>
</g>
<!-- Node16&#45;&gt;Node19 -->
<g id="edge21_Node000016_Node000019" class="edge">
<title>Node16&#45;&gt;Node19</title>
<g id="a_edge21_Node000016_Node000019"><a xlink:title=" ">
<path fill="none" stroke="#63b8ff" d="M955.93,-182.55C949.61,-173.77 940.17,-160.66 932.41,-149.89"/>
<polygon fill="#63b8ff" stroke="#63b8ff" points="935.47,-148.14 926.79,-142.07 929.79,-152.23 935.47,-148.14"/>
</a>
</g>
</g>
<!-- Node20&#45;&gt;Node17 -->
<g id="edge25_Node000020_Node000017" class="edge">
<title>Node20&#45;&gt;Node17</title>
<g id="a_edge25_Node000020_Node000017"><a xlink:title=" ">
<path fill="none" stroke="#63b8ff" d="M1184.22,-182.55C1149.58,-172.17 1094.75,-155.74 1056.5,-144.28"/>
<polygon fill="#63b8ff" stroke="#63b8ff" points="1057.73,-141 1047.14,-141.48 1055.72,-147.7 1057.73,-141"/>
</a>
</g>
</g>
<!-- Node21 -->
<g id="Node000021" class="node">
<title>Node21</title>
<g id="a_Node000021"><a xlink:href="llzk_2Util_2Constants_8h.html" target="_top" xlink:title=" ">
<polygon fill="white" stroke="#666666" points="1746.12,-140.62 1631.88,-140.62 1631.88,-119.88 1746.12,-119.88 1746.12,-140.62"/>
<text text-anchor="middle" x="1689" y="-127.12" font-family="Helvetica,sans-Serif" font-size="10.00">llzk/Util/Constants.h</text>
</a>
</g>
</g>
<!-- Node20&#45;&gt;Node21 -->
<g id="edge23_Node000020_Node000021" class="edge">
<title>Node20&#45;&gt;Node21</title>
<g id="a_edge23_Node000020_Node000021"><a xlink:title=" ">
<path fill="none" stroke="#63b8ff" d="M1285.48,-184.11C1288.7,-183.73 1291.88,-183.36 1295,-183 1440.25,-166.28 1477.9,-171.77 1622,-147 1627.89,-145.99 1634.03,-144.77 1640.11,-143.47"/>
<polygon fill="#63b8ff" stroke="#63b8ff" points="1640.43,-146.98 1649.42,-141.38 1638.9,-140.15 1640.43,-146.98"/>
</a>
</g>
</g>
<!-- Node22 -->
<g id="Node000022" class="node">
<title>Node22</title>
<g id="a_Node000022"><a xlink:title=" ">
<polygon fill="#e0e0e0" stroke="#999999" points="1874.25,-140.62 1763.75,-140.62 1763.75,-119.88 1874.25,-119.88 1874.25,-140.62"/>
<text text-anchor="middle" x="1819" y="-127.12" font-family="Helvetica,sans-Serif" font-size="10.00">mlir/IR/BuiltinOps.h</text>
</a>
</g>
</g>
<!-- Node20&#45;&gt;Node22 -->
<g id="edge24_Node000020_Node000022" class="edge">
<title>Node20&#45;&gt;Node22</title>
<g id="a_edge24_Node000020_Node000022"><a xlink:title=" ">
<path fill="none" stroke="#63b8ff" d="M1285.47,-183.98C1288.69,-183.64 1291.88,-183.31 1295,-183 1499.07,-162.76 1552.54,-179.61 1755,-147 1760.64,-146.09 1766.52,-144.94 1772.33,-143.67"/>
<polygon fill="#63b8ff" stroke="#63b8ff" points="1772.9,-147.13 1781.86,-141.46 1771.32,-140.31 1772.9,-147.13"/>
</a>
</g>
</g>
<!-- Node23 -->
<g id="Node000023" class="node">
<title>Node23</title>
<g id="a_Node000023"><a xlink:title=" ">
<polygon fill="#e0e0e0" stroke="#999999" points="1211.12,-140.62 1084.88,-140.62 1084.88,-119.88 1211.12,-119.88 1211.12,-140.62"/>
<text text-anchor="middle" x="1148" y="-127.12" font-family="Helvetica,sans-Serif" font-size="10.00">mlir/IR/OwningOpRef.h</text>
</a>
</g>
</g>
<!-- Node20&#45;&gt;Node23 -->
<g id="edge26_Node000020_Node000023" class="edge">
<title>Node20&#45;&gt;Node23</title>
<g id="a_edge26_Node000020_Node000023"><a xlink:title=" ">
<path fill="none" stroke="#63b8ff" d="M1205.91,-182.55C1195.49,-173.32 1179.67,-159.31 1167.2,-148.26"/>
<polygon fill="#63b8ff" stroke="#63b8ff" points="1169.77,-145.86 1159.96,-141.85 1165.13,-151.1 1169.77,-145.86"/>
</a>
</g>
</g>
<!-- Node24 -->
<g id="Node000024" class="node">
<title>Node24</title>
<g id="a_Node000024"><a xlink:title=" ">
<polygon fill="#e0e0e0" stroke="#999999" points="1344.5,-140.62 1229.5,-140.62 1229.5,-119.88 1344.5,-119.88 1344.5,-140.62"/>
<text text-anchor="middle" x="1287" y="-127.12" font-family="Helvetica,sans-Serif" font-size="10.00">llvm/ADT/ArrayRef.h</text>
</a>
</g>
</g>
<!-- Node20&#45;&gt;Node24 -->
<g id="edge27_Node000020_Node000024" class="edge">
<title>Node20&#45;&gt;Node24</title>
<g id="a_edge27_Node000020_Node000024"><a xlink:title=" ">
<path fill="none" stroke="#63b8ff" d="M1228.25,-182.55C1238.82,-173.32 1254.87,-159.31 1267.52,-148.26"/>
<polygon fill="#63b8ff" stroke="#63b8ff" points="1269.64,-151.05 1274.87,-141.84 1265.04,-145.78 1269.64,-151.05"/>
</a>
</g>
</g>
<!-- Node25 -->
<g id="Node000025" class="node">
<title>Node25</title>
<g id="a_Node000025"><a xlink:title=" ">
<polygon fill="#e0e0e0" stroke="#999999" points="1479.62,-140.62 1362.38,-140.62 1362.38,-119.88 1479.62,-119.88 1479.62,-140.62"/>
<text text-anchor="middle" x="1421" y="-127.12" font-family="Helvetica,sans-Serif" font-size="10.00">llvm/ADT/StringRef.h</text>
</a>
</g>
</g>
<!-- Node20&#45;&gt;Node25 -->
<g id="edge28_Node000020_Node000025" class="edge">
<title>Node20&#45;&gt;Node25</title>
<g id="a_edge28_Node000020_Node000025"><a xlink:title=" ">
<path fill="none" stroke="#63b8ff" d="M1249.78,-182.55C1284.42,-172.17 1339.25,-155.74 1377.5,-144.28"/>
<polygon fill="#63b8ff" stroke="#63b8ff" points="1378.28,-147.7 1386.86,-141.48 1376.27,-141 1378.28,-147.7"/>
</a>
</g>
</g>
<!-- Node26 -->
<g id="Node000026" class="node">
<title>Node26</title>
<g id="a_Node000026"><a xlink:title=" ">
<polygon fill="#e0e0e0" stroke="#999999" points="1548.25,-140.62 1497.75,-140.62 1497.75,-119.88 1548.25,-119.88 1548.25,-140.62"/>
<text text-anchor="middle" x="1523" y="-127.12" font-family="Helvetica,sans-Serif" font-size="10.00">variant</text>
</a>
</g>
</g>
<!-- Node20&#45;&gt;Node26 -->
<g id="edge29_Node000020_Node000026" class="edge">
<title>Node20&#45;&gt;Node26</title>
<g id="a_edge29_Node000020_Node000026"><a xlink:title=" ">
<path fill="none" stroke="#63b8ff" d="M1285.73,-183.05C1353.48,-173.48 1452.06,-158.41 1489,-147 1490.59,-146.51 1492.21,-145.96 1493.82,-145.36"/>
<polygon fill="#63b8ff" stroke="#63b8ff" points="1495.01,-148.66 1502.9,-141.59 1492.32,-142.2 1495.01,-148.66"/>
</a>
</g>
</g>
<!-- Node27 -->
<g id="Node000027" class="node">
<title>Node27</title>
<g id="a_Node000027"><a xlink:title=" ">
<polygon fill="#e0e0e0" stroke="#999999" points="1613.38,-140.62 1566.62,-140.62 1566.62,-119.88 1613.38,-119.88 1613.38,-140.62"/>
<text text-anchor="middle" x="1590" y="-127.12" font-family="Helvetica,sans-Serif" font-size="10.00">vector</text>
</a>
</g>
</g>
<!-- Node20&#45;&gt;Node27 -->
<g id="edge30_Node000020_Node000027" class="edge">
<title>Node20&#45;&gt;Node27</title>
<g id="a_edge30_Node000020_Node000027"><a xlink:title=" ">
<path fill="none" stroke="#63b8ff" d="M1285.71,-183.76C1381.28,-171.7 1544.16,-150.82 1557,-147 1558.6,-146.53 1560.21,-145.98 1561.83,-145.39"/>
<polygon fill="#63b8ff" stroke="#63b8ff" points="1563.02,-148.69 1570.86,-141.56 1560.28,-142.24 1563.02,-148.69"/>
</a>
</g>
</g>
</g>
</svg>
