<?xml version="1.0" encoding="UTF-8" standalone="no"?>
<!DOCTYPE svg PUBLIC "-//W3C//DTD SVG 1.1//EN"
 "http://www.w3.org/Graphics/SVG/1.1/DTD/svg11.dtd">
<!-- Generated by graphviz version 12.2.1 (0)
 -->
<!-- Title: lib/CAPI/Support.cpp Pages: 1 -->
<svg width="2273pt" height="269pt"
 viewBox="0.00 0.00 2272.50 268.50" xmlns="http://www.w3.org/2000/svg" xmlns:xlink="http://www.w3.org/1999/xlink">
<g id="graph0" class="graph" transform="scale(1 1) rotate(0) translate(4 264.5)">
<title>lib/CAPI/Support.cpp</title>
<!-- Node1 -->
<g id="Node000001" class="node">
<title>Node1</title>
<g id="a_Node000001"><a xlink:title=" ">
<polygon fill="#999999" stroke="#666666" points="1597.12,-260.5 1482.88,-260.5 1482.88,-239.75 1597.12,-239.75 1597.12,-260.5"/>
<text text-anchor="middle" x="1540" y="-247" font-family="Helvetica,sans-Serif" font-size="10.00">lib/CAPI/Support.cpp</text>
</a>
</g>
</g>
<!-- Node2 -->
<g id="Node000002" class="node">
<title>Node2</title>
<g id="a_Node000002"><a xlink:href="llzk_2CAPI_2Support_8h.html" target="_top" xlink:title=" ">
<polygon fill="white" stroke="#666666" points="598.12,-203.75 489.88,-203.75 489.88,-183 598.12,-183 598.12,-203.75"/>
<text text-anchor="middle" x="544" y="-190.25" font-family="Helvetica,sans-Serif" font-size="10.00">llzk/CAPI/Support.h</text>
</a>
</g>
</g>
<!-- Node1&#45;&gt;Node2 -->
<g id="edge1_Node000001_Node000002" class="edge">
<title>Node1&#45;&gt;Node2</title>
<g id="a_edge1_Node000001_Node000002"><a xlink:title=" ">
<path fill="none" stroke="#63b8ff" d="M1482.51,-245.96C1309.33,-236.45 793.31,-208.08 609.73,-197.99"/>
<polygon fill="#63b8ff" stroke="#63b8ff" points="610.07,-194.5 599.9,-197.45 609.69,-201.49 610.07,-194.5"/>
</a>
</g>
</g>
<!-- Node3 -->
<g id="Node000003" class="node">
<title>Node3</title>
<g id="a_Node000003"><a xlink:href="llzk-c_2Support_8h.html" target="_top" xlink:title=" ">
<polygon fill="white" stroke="#666666" points="194.88,-140.62 103.12,-140.62 103.12,-119.88 194.88,-119.88 194.88,-140.62"/>
<text text-anchor="middle" x="149" y="-127.12" font-family="Helvetica,sans-Serif" font-size="10.00">llzk&#45;c/Support.h</text>
</a>
</g>
</g>
<!-- Node1&#45;&gt;Node3 -->
<g id="edge20_Node000001_Node000003" class="edge">
<title>Node1&#45;&gt;Node3</title>
<g id="a_edge20_Node000001_Node000003"><a xlink:title=" ">
<path fill="none" stroke="#63b8ff" d="M1482.64,-247.97C1291.51,-243.92 677.3,-229.2 481,-203.75 377.79,-190.37 259.17,-161 195.39,-144.04"/>
<polygon fill="#63b8ff" stroke="#63b8ff" points="196.54,-140.72 185.97,-141.51 194.73,-147.48 196.54,-140.72"/>
</a>
</g>
</g>
<!-- Node15 -->
<g id="Node000015" class="node">
<title>Node15</title>
<g id="a_Node000015"><a xlink:title=" ">
<polygon fill="#e0e0e0" stroke="#999999" points="853.38,-140.62 770.62,-140.62 770.62,-119.88 853.38,-119.88 853.38,-140.62"/>
<text text-anchor="middle" x="812" y="-127.12" font-family="Helvetica,sans-Serif" font-size="10.00">mlir/CAPI/IR.h</text>
</a>
</g>
</g>
<!-- Node1&#45;&gt;Node15 -->
<g id="edge35_Node000001_Node000015" class="edge">
<title>Node1&#45;&gt;Node15</title>
<g id="a_edge35_Node000001_Node000015"><a xlink:title=" ">
<path fill="none" stroke="#63b8ff" d="M1482.45,-248.55C1349.71,-246.64 1025.64,-238.45 923,-203.75 887.45,-191.73 852.16,-165.62 831.22,-148.24"/>
<polygon fill="#63b8ff" stroke="#63b8ff" points="833.69,-145.74 823.81,-141.93 829.16,-151.07 833.69,-145.74"/>
</a>
</g>
</g>
<!-- Node18 -->
<g id="Node000018" class="node">
<title>Node18</title>
<g id="a_Node000018"><a xlink:href="Compare_8h.html" target="_top" xlink:title=" ">
<polygon fill="white" stroke="#666666" points="1041.88,-203.75 932.12,-203.75 932.12,-183 1041.88,-183 1041.88,-203.75"/>
<text text-anchor="middle" x="987" y="-190.25" font-family="Helvetica,sans-Serif" font-size="10.00">llzk/Util/Compare.h</text>
</a>
</g>
</g>
<!-- Node1&#45;&gt;Node18 -->
<g id="edge21_Node000001_Node000018" class="edge">
<title>Node1&#45;&gt;Node18</title>
<g id="a_edge21_Node000001_Node000018"><a xlink:title=" ">
<path fill="none" stroke="#63b8ff" d="M1482.38,-243.42C1378.99,-233.18 1162.55,-211.76 1053.22,-200.93"/>
<polygon fill="#63b8ff" stroke="#63b8ff" points="1053.82,-197.47 1043.53,-199.97 1053.13,-204.44 1053.82,-197.47"/>
</a>
</g>
</g>
<!-- Node21 -->
<g id="Node000021" class="node">
<title>Node21</title>
<g id="a_Node000021"><a xlink:href="SymbolLookup_8h.html" target="_top" xlink:title="This file defines methods symbol lookup across LLZK operations and included files.">
<polygon fill="white" stroke="#666666" points="1313.38,-203.75 1176.62,-203.75 1176.62,-183 1313.38,-183 1313.38,-203.75"/>
<text text-anchor="middle" x="1245" y="-190.25" font-family="Helvetica,sans-Serif" font-size="10.00">llzk/Util/SymbolLookup.h</text>
</a>
</g>
</g>
<!-- Node1&#45;&gt;Node21 -->
<g id="edge25_Node000001_Node000021" class="edge">
<title>Node1&#45;&gt;Node21</title>
<g id="a_edge25_Node000001_Node000021"><a xlink:title=" ">
<path fill="none" stroke="#63b8ff" d="M1486.92,-239.27C1437.05,-230.02 1362.34,-216.15 1309.16,-206.28"/>
<polygon fill="#63b8ff" stroke="#63b8ff" points="1310.11,-202.9 1299.64,-204.52 1308.83,-209.78 1310.11,-202.9"/>
</a>
</g>
</g>
<!-- Node29 -->
<g id="Node000029" class="node">
<title>Node29</title>
<g id="a_Node000029"><a xlink:title=" ">
<polygon fill="#e0e0e0" stroke="#999999" points="1467,-203.75 1331,-203.75 1331,-183 1467,-183 1467,-203.75"/>
<text text-anchor="middle" x="1399" y="-190.25" font-family="Helvetica,sans-Serif" font-size="10.00">mlir&#45;c/BuiltinAttributes.h</text>
</a>
</g>
</g>
<!-- Node1&#45;&gt;Node29 -->
<g id="edge34_Node000001_Node000029" class="edge">
<title>Node1&#45;&gt;Node29</title>
<g id="a_edge34_Node000001_Node000029"><a xlink:title=" ">
<path fill="none" stroke="#63b8ff" d="M1514.79,-239.34C1492.44,-230.66 1459.54,-217.88 1434.52,-208.17"/>
<polygon fill="#63b8ff" stroke="#63b8ff" points="1435.99,-204.98 1425.4,-204.63 1433.46,-211.51 1435.99,-204.98"/>
</a>
</g>
</g>
<!-- Node30 -->
<g id="Node000030" class="node">
<title>Node30</title>
<g id="a_Node000030"><a xlink:title=" ">
<polygon fill="#e0e0e0" stroke="#999999" points="1595.25,-203.75 1484.75,-203.75 1484.75,-183 1595.25,-183 1595.25,-203.75"/>
<text text-anchor="middle" x="1540" y="-190.25" font-family="Helvetica,sans-Serif" font-size="10.00">mlir/CAPI/Support.h</text>
</a>
</g>
</g>
<!-- Node1&#45;&gt;Node30 -->
<g id="edge36_Node000001_Node000030" class="edge">
<title>Node1&#45;&gt;Node30</title>
<g id="a_edge36_Node000001_Node000030"><a xlink:title=" ">
<path fill="none" stroke="#63b8ff" d="M1540,-239.34C1540,-232.72 1540,-223.72 1540,-215.52"/>
<polygon fill="#63b8ff" stroke="#63b8ff" points="1543.5,-215.59 1540,-205.59 1536.5,-215.59 1543.5,-215.59"/>
</a>
</g>
</g>
<!-- Node31 -->
<g id="Node000031" class="node">
<title>Node31</title>
<g id="a_Node000031"><a xlink:title=" ">
<polygon fill="#e0e0e0" stroke="#999999" points="1712.25,-203.75 1613.75,-203.75 1613.75,-183 1712.25,-183 1712.25,-203.75"/>
<text text-anchor="middle" x="1663" y="-190.25" font-family="Helvetica,sans-Serif" font-size="10.00">mlir/CAPI/Wrap.h</text>
</a>
</g>
</g>
<!-- Node1&#45;&gt;Node31 -->
<g id="edge37_Node000001_Node000031" class="edge">
<title>Node1&#45;&gt;Node31</title>
<g id="a_edge37_Node000001_Node000031"><a xlink:title=" ">
<path fill="none" stroke="#63b8ff" d="M1561.99,-239.34C1581.14,-230.81 1609.16,-218.34 1630.83,-208.69"/>
<polygon fill="#63b8ff" stroke="#63b8ff" points="1632.11,-211.96 1639.82,-204.69 1629.26,-205.56 1632.11,-211.96"/>
</a>
</g>
</g>
<!-- Node32 -->
<g id="Node000032" class="node">
<title>Node32</title>
<g id="a_Node000032"><a xlink:title=" ">
<polygon fill="#e0e0e0" stroke="#999999" points="1869.88,-203.75 1730.12,-203.75 1730.12,-183 1869.88,-183 1869.88,-203.75"/>
<text text-anchor="middle" x="1800" y="-190.25" font-family="Helvetica,sans-Serif" font-size="10.00">mlir/IR/BuiltinAttributes.h</text>
</a>
</g>
</g>
<!-- Node1&#45;&gt;Node32 -->
<g id="edge38_Node000001_Node000032" class="edge">
<title>Node1&#45;&gt;Node32</title>
<g id="a_edge38_Node000001_Node000032"><a xlink:title=" ">
<path fill="none" stroke="#63b8ff" d="M1586.78,-239.27C1630.27,-230.12 1695.2,-216.44 1741.98,-206.59"/>
<polygon fill="#63b8ff" stroke="#63b8ff" points="1742.61,-210.04 1751.67,-204.55 1741.17,-203.19 1742.61,-210.04"/>
</a>
</g>
</g>
<!-- Node33 -->
<g id="Node000033" class="node">
<title>Node33</title>
<g id="a_Node000033"><a xlink:title=" ">
<polygon fill="#e0e0e0" stroke="#999999" points="1989.75,-203.75 1888.25,-203.75 1888.25,-183 1989.75,-183 1989.75,-203.75"/>
<text text-anchor="middle" x="1939" y="-190.25" font-family="Helvetica,sans-Serif" font-size="10.00">mlir/IR/Iterators.h</text>
</a>
</g>
</g>
<!-- Node1&#45;&gt;Node33 -->
<g id="edge39_Node000001_Node000033" class="edge">
<title>Node1&#45;&gt;Node33</title>
<g id="a_edge39_Node000001_Node000033"><a xlink:title=" ">
<path fill="none" stroke="#63b8ff" d="M1597.34,-241.84C1662.48,-233.48 1772.3,-219.11 1876.87,-204.03"/>
<polygon fill="#63b8ff" stroke="#63b8ff" points="1877.05,-207.54 1886.45,-202.65 1876.05,-200.62 1877.05,-207.54"/>
</a>
</g>
</g>
<!-- Node34 -->
<g id="Node000034" class="node">
<title>Node34</title>
<g id="a_Node000034"><a xlink:title=" ">
<polygon fill="#e0e0e0" stroke="#999999" points="2130.25,-203.75 2007.75,-203.75 2007.75,-183 2130.25,-183 2130.25,-203.75"/>
<text text-anchor="middle" x="2069" y="-190.25" font-family="Helvetica,sans-Serif" font-size="10.00">mlir/IR/SymbolTable.h</text>
</a>
</g>
</g>
<!-- Node1&#45;&gt;Node34 -->
<g id="edge40_Node000001_Node000034" class="edge">
<title>Node1&#45;&gt;Node34</title>
<g id="a_edge40_Node000001_Node000034"><a xlink:title=" ">
<path fill="none" stroke="#63b8ff" d="M1597.31,-244.1C1682.13,-236.52 1846.37,-221.31 1996.33,-204.03"/>
<polygon fill="#63b8ff" stroke="#63b8ff" points="1996.52,-207.53 2006.05,-202.9 1995.72,-200.58 1996.52,-207.53"/>
</a>
</g>
</g>
<!-- Node35 -->
<g id="Node000035" class="node">
<title>Node35</title>
<g id="a_Node000035"><a xlink:title=" ">
<polygon fill="#e0e0e0" stroke="#999999" points="2197.5,-203.75 2148.5,-203.75 2148.5,-183 2197.5,-183 2197.5,-203.75"/>
<text text-anchor="middle" x="2173" y="-190.25" font-family="Helvetica,sans-Serif" font-size="10.00">cstdint</text>
</a>
</g>
</g>
<!-- Node1&#45;&gt;Node35 -->
<g id="edge41_Node000001_Node000035" class="edge">
<title>Node1&#45;&gt;Node35</title>
<g id="a_edge41_Node000001_Node000035"><a xlink:title=" ">
<path fill="none" stroke="#63b8ff" d="M1597.44,-248.46C1702.73,-246.44 1933.7,-238.3 2137.05,-203.73"/>
<polygon fill="#63b8ff" stroke="#63b8ff" points="2137.49,-207.21 2146.75,-202.05 2136.3,-200.31 2137.49,-207.21"/>
</a>
</g>
</g>
<!-- Node36 -->
<g id="Node000036" class="node">
<title>Node36</title>
<g id="a_Node000036"><a xlink:title=" ">
<polygon fill="#e0e0e0" stroke="#999999" points="2264.5,-203.75 2215.5,-203.75 2215.5,-183 2264.5,-183 2264.5,-203.75"/>
<text text-anchor="middle" x="2240" y="-190.25" font-family="Helvetica,sans-Serif" font-size="10.00">cstring</text>
</a>
</g>
</g>
<!-- Node1&#45;&gt;Node36 -->
<g id="edge42_Node000001_Node000036" class="edge">
<title>Node1&#45;&gt;Node36</title>
<g id="a_edge42_Node000001_Node000036"><a xlink:title=" ">
<path fill="none" stroke="#63b8ff" d="M1597.58,-249.24C1711.86,-248.59 1975.35,-242.76 2204.05,-203.94"/>
<polygon fill="#63b8ff" stroke="#63b8ff" points="2204.51,-207.41 2213.77,-202.26 2203.32,-200.51 2204.51,-207.41"/>
</a>
</g>
</g>
<!-- Node2&#45;&gt;Node3 -->
<g id="edge2_Node000002_Node000003" class="edge">
<title>Node2&#45;&gt;Node3</title>
<g id="a_edge2_Node000002_Node000003"><a xlink:title=" ">
<path fill="none" stroke="#63b8ff" d="M489.44,-185.53C426.16,-177.36 318.77,-162.82 227,-147 220.29,-145.84 213.27,-144.55 206.32,-143.21"/>
<polygon fill="#63b8ff" stroke="#63b8ff" points="207.08,-139.8 196.6,-141.31 205.74,-146.66 207.08,-139.8"/>
</a>
</g>
</g>
<!-- Node5 -->
<g id="Node000005" class="node">
<title>Node5</title>
<g id="a_Node000005"><a xlink:title=" ">
<polygon fill="#e0e0e0" stroke="#999999" points="236.12,-20.75 169.88,-20.75 169.88,0 236.12,0 236.12,-20.75"/>
<text text-anchor="middle" x="203" y="-7.25" font-family="Helvetica,sans-Serif" font-size="10.00">mlir&#45;c/IR.h</text>
</a>
</g>
</g>
<!-- Node2&#45;&gt;Node5 -->
<g id="edge16_Node000002_Node000005" class="edge">
<title>Node2&#45;&gt;Node5</title>
<g id="a_edge16_Node000002_Node000005"><a xlink:title=" ">
<path fill="none" stroke="#63b8ff" d="M489.51,-188.66C445.43,-183.82 382.88,-172.66 334,-147 280.33,-118.82 235.76,-60.45 215.21,-30.31"/>
<polygon fill="#63b8ff" stroke="#63b8ff" points="218.26,-28.57 209.8,-22.18 212.43,-32.44 218.26,-28.57"/>
</a>
</g>
</g>
<!-- Node8 -->
<g id="Node000008" class="node">
<title>Node8</title>
<g id="a_Node000008"><a xlink:href="AttributeHelper_8h.html" target="_top" xlink:title=" ">
<polygon fill="white" stroke="#666666" points="453.25,-147 342.75,-147 342.75,-113.5 453.25,-113.5 453.25,-147"/>
<text text-anchor="start" x="350.75" y="-133.5" font-family="Helvetica,sans-Serif" font-size="10.00">llzk/Dialect/LLZK/IR</text>
<text text-anchor="middle" x="398" y="-120.75" font-family="Helvetica,sans-Serif" font-size="10.00">/AttributeHelper.h</text>
</a>
</g>
</g>
<!-- Node2&#45;&gt;Node8 -->
<g id="edge9_Node000002_Node000008" class="edge">
<title>Node2&#45;&gt;Node8</title>
<g id="a_edge9_Node000002_Node000008"><a xlink:title=" ">
<path fill="none" stroke="#63b8ff" d="M520.54,-182.55C500.79,-174.29 471.89,-162.18 447.11,-151.81"/>
<polygon fill="#63b8ff" stroke="#63b8ff" points="448.75,-148.7 438.17,-148.07 446.05,-155.16 448.75,-148.7"/>
</a>
</g>
</g>
<!-- Node2&#45;&gt;Node15 -->
<g id="edge17_Node000002_Node000015" class="edge">
<title>Node2&#45;&gt;Node15</title>
<g id="a_edge17_Node000002_Node000015"><a xlink:title=" ">
<path fill="none" stroke="#63b8ff" d="M598.55,-182.59C642.86,-174.26 706.83,-161.39 762,-147 765.14,-146.18 768.37,-145.29 771.61,-144.35"/>
<polygon fill="#63b8ff" stroke="#63b8ff" points="772.51,-147.73 781.08,-141.51 770.5,-141.03 772.51,-147.73"/>
</a>
</g>
</g>
<!-- Node16 -->
<g id="Node000016" class="node">
<title>Node16</title>
<g id="a_Node000016"><a xlink:title=" ">
<polygon fill="#e0e0e0" stroke="#999999" points="616.88,-140.62 471.12,-140.62 471.12,-119.88 616.88,-119.88 616.88,-140.62"/>
<text text-anchor="middle" x="544" y="-127.12" font-family="Helvetica,sans-Serif" font-size="10.00">mlir/IR/OperationSupport.h</text>
</a>
</g>
</g>
<!-- Node2&#45;&gt;Node16 -->
<g id="edge18_Node000002_Node000016" class="edge">
<title>Node2&#45;&gt;Node16</title>
<g id="a_edge18_Node000002_Node000016"><a xlink:title=" ">
<path fill="none" stroke="#63b8ff" d="M544,-182.55C544,-174.4 544,-162.51 544,-152.23"/>
<polygon fill="#63b8ff" stroke="#63b8ff" points="547.5,-152.36 544,-142.36 540.5,-152.36 547.5,-152.36"/>
</a>
</g>
</g>
<!-- Node17 -->
<g id="Node000017" class="node">
<title>Node17</title>
<g id="a_Node000017"><a xlink:title=" ">
<polygon fill="#e0e0e0" stroke="#999999" points="753,-140.62 635,-140.62 635,-119.88 753,-119.88 753,-140.62"/>
<text text-anchor="middle" x="694" y="-127.12" font-family="Helvetica,sans-Serif" font-size="10.00">mlir/IR/ValueRange.h</text>
</a>
</g>
</g>
<!-- Node2&#45;&gt;Node17 -->
<g id="edge19_Node000002_Node000017" class="edge">
<title>Node2&#45;&gt;Node17</title>
<g id="a_edge19_Node000002_Node000017"><a xlink:title=" ">
<path fill="none" stroke="#63b8ff" d="M568.1,-182.55C592.81,-172.48 631.48,-156.73 659.45,-145.33"/>
<polygon fill="#63b8ff" stroke="#63b8ff" points="660.62,-148.63 668.56,-141.62 657.98,-142.15 660.62,-148.63"/>
</a>
</g>
</g>
<!-- Node4 -->
<g id="Node000004" class="node">
<title>Node4</title>
<g id="a_Node000004"><a xlink:href="llzk-c_2Builder_8h.html" target="_top" xlink:title=" ">
<polygon fill="white" stroke="#666666" points="175,-77.5 87,-77.5 87,-56.75 175,-56.75 175,-77.5"/>
<text text-anchor="middle" x="131" y="-64" font-family="Helvetica,sans-Serif" font-size="10.00">llzk&#45;c/Builder.h</text>
</a>
</g>
</g>
<!-- Node3&#45;&gt;Node4 -->
<g id="edge3_Node000003_Node000004" class="edge">
<title>Node3&#45;&gt;Node4</title>
<g id="a_edge3_Node000003_Node000004"><a xlink:title=" ">
<path fill="none" stroke="#63b8ff" d="M146.11,-119.43C143.68,-111.18 140.13,-99.12 137.08,-88.76"/>
<polygon fill="#63b8ff" stroke="#63b8ff" points="140.44,-87.78 134.25,-79.17 133.72,-89.75 140.44,-87.78"/>
</a>
</g>
</g>
<!-- Node3&#45;&gt;Node5 -->
<g id="edge6_Node000003_Node000005" class="edge">
<title>Node3&#45;&gt;Node5</title>
<g id="a_edge6_Node000003_Node000005"><a xlink:title=" ">
<path fill="none" stroke="#63b8ff" d="M156.97,-119.51C164.82,-109.51 176.65,-93.22 184,-77.5 190.82,-62.92 195.72,-45.37 198.84,-32.01"/>
<polygon fill="#63b8ff" stroke="#63b8ff" points="202.18,-33.13 200.88,-22.61 195.34,-31.64 202.18,-33.13"/>
</a>
</g>
</g>
<!-- Node6 -->
<g id="Node000006" class="node">
<title>Node6</title>
<g id="a_Node000006"><a xlink:title=" ">
<polygon fill="#e0e0e0" stroke="#999999" points="94,-20.75 0,-20.75 0,0 94,0 94,-20.75"/>
<text text-anchor="middle" x="47" y="-7.25" font-family="Helvetica,sans-Serif" font-size="10.00">mlir&#45;c/Support.h</text>
</a>
</g>
</g>
<!-- Node3&#45;&gt;Node6 -->
<g id="edge7_Node000003_Node000006" class="edge">
<title>Node3&#45;&gt;Node6</title>
<g id="a_edge7_Node000003_Node000006"><a xlink:title=" ">
<path fill="none" stroke="#63b8ff" d="M102.63,-125.66C70.26,-120.46 29.2,-107.86 8,-77.5 -3.23,-61.42 11.33,-41.98 25.75,-28.36"/>
<polygon fill="#63b8ff" stroke="#63b8ff" points="27.69,-31.31 32.88,-22.08 23.07,-26.06 27.69,-31.31"/>
</a>
</g>
</g>
<!-- Node7 -->
<g id="Node000007" class="node">
<title>Node7</title>
<g id="a_Node000007"><a xlink:title=" ">
<polygon fill="#e0e0e0" stroke="#999999" points="69.38,-77.5 16.62,-77.5 16.62,-56.75 69.38,-56.75 69.38,-77.5"/>
<text text-anchor="middle" x="43" y="-64" font-family="Helvetica,sans-Serif" font-size="10.00">stdint.h</text>
</a>
</g>
</g>
<!-- Node3&#45;&gt;Node7 -->
<g id="edge8_Node000003_Node000007" class="edge">
<title>Node3&#45;&gt;Node7</title>
<g id="a_edge8_Node000003_Node000007"><a xlink:title=" ">
<path fill="none" stroke="#63b8ff" d="M131.97,-119.43C115.2,-109.76 89.34,-94.85 69.81,-83.59"/>
<polygon fill="#63b8ff" stroke="#63b8ff" points="71.71,-80.64 61.3,-78.68 68.21,-86.71 71.71,-80.64"/>
</a>
</g>
</g>
<!-- Node4&#45;&gt;Node5 -->
<g id="edge4_Node000004_Node000005" class="edge">
<title>Node4&#45;&gt;Node5</title>
<g id="a_edge4_Node000004_Node000005"><a xlink:title=" ">
<path fill="none" stroke="#63b8ff" d="M143.87,-56.34C154.21,-48.47 168.97,-37.25 181.15,-27.99"/>
<polygon fill="#63b8ff" stroke="#63b8ff" points="183.19,-30.83 189.03,-21.99 178.96,-25.26 183.19,-30.83"/>
</a>
</g>
</g>
<!-- Node4&#45;&gt;Node6 -->
<g id="edge5_Node000004_Node000006" class="edge">
<title>Node4&#45;&gt;Node6</title>
<g id="a_edge5_Node000004_Node000006"><a xlink:title=" ">
<path fill="none" stroke="#63b8ff" d="M115.98,-56.34C103.56,-48.24 85.68,-36.58 71.23,-27.17"/>
<polygon fill="#63b8ff" stroke="#63b8ff" points="73.44,-24.43 63.16,-21.9 69.62,-30.3 73.44,-24.43"/>
</a>
</g>
</g>
<!-- Node9 -->
<g id="Node000009" class="node">
<title>Node9</title>
<g id="a_Node000009"><a xlink:href="StreamHelper_8h.html" target="_top" xlink:title=" ">
<polygon fill="white" stroke="#666666" points="649.12,-77.5 516.88,-77.5 516.88,-56.75 649.12,-56.75 649.12,-77.5"/>
<text text-anchor="middle" x="583" y="-64" font-family="Helvetica,sans-Serif" font-size="10.00">llzk/Util/StreamHelper.h</text>
</a>
</g>
</g>
<!-- Node8&#45;&gt;Node9 -->
<g id="edge10_Node000008_Node000009" class="edge">
<title>Node8&#45;&gt;Node9</title>
<g id="a_edge10_Node000008_Node000009"><a xlink:title=" ">
<path fill="none" stroke="#63b8ff" d="M447.09,-113.03C476.95,-103.16 514.62,-90.72 542.72,-81.43"/>
<polygon fill="#63b8ff" stroke="#63b8ff" points="543.54,-84.85 551.93,-78.39 541.34,-78.2 543.54,-84.85"/>
</a>
</g>
</g>
<!-- Node11 -->
<g id="Node000011" class="node">
<title>Node11</title>
<g id="a_Node000011"><a xlink:title=" ">
<polygon fill="#e0e0e0" stroke="#999999" points="840.38,-77.5 667.62,-77.5 667.62,-56.75 840.38,-56.75 840.38,-77.5"/>
<text text-anchor="middle" x="754" y="-64" font-family="Helvetica,sans-Serif" font-size="10.00">mlir/IR/DialectImplementation.h</text>
</a>
</g>
</g>
<!-- Node8&#45;&gt;Node11 -->
<g id="edge12_Node000008_Node000011" class="edge">
<title>Node8&#45;&gt;Node11</title>
<g id="a_edge12_Node000008_Node000011"><a xlink:title=" ">
<path fill="none" stroke="#63b8ff" d="M453.44,-115.29C456.33,-114.66 459.2,-114.06 462,-113.5 530.62,-99.75 609.01,-87.77 667.29,-79.58"/>
<polygon fill="#63b8ff" stroke="#63b8ff" points="667.75,-83.05 677.17,-78.2 666.78,-76.12 667.75,-83.05"/>
</a>
</g>
</g>
<!-- Node12 -->
<g id="Node000012" class="node">
<title>Node12</title>
<g id="a_Node000012"><a xlink:title=" ">
<polygon fill="#e0e0e0" stroke="#999999" points="367.25,-77.5 268.75,-77.5 268.75,-56.75 367.25,-56.75 367.25,-77.5"/>
<text text-anchor="middle" x="318" y="-64" font-family="Helvetica,sans-Serif" font-size="10.00">llvm/ADT/APInt.h</text>
</a>
</g>
</g>
<!-- Node8&#45;&gt;Node12 -->
<g id="edge13_Node000008_Node000012" class="edge">
<title>Node8&#45;&gt;Node12</title>
<g id="a_edge13_Node000008_Node000012"><a xlink:title=" ">
<path fill="none" stroke="#63b8ff" d="M376.98,-113.19C365.55,-104.46 351.43,-93.67 339.87,-84.84"/>
<polygon fill="#63b8ff" stroke="#63b8ff" points="342.15,-82.18 332.08,-78.89 337.9,-87.74 342.15,-82.18"/>
</a>
</g>
</g>
<!-- Node13 -->
<g id="Node000013" class="node">
<title>Node13</title>
<g id="a_Node000013"><a xlink:title=" ">
<polygon fill="#e0e0e0" stroke="#999999" points="498.38,-77.5 385.62,-77.5 385.62,-56.75 498.38,-56.75 498.38,-77.5"/>
<text text-anchor="middle" x="442" y="-64" font-family="Helvetica,sans-Serif" font-size="10.00">llvm/ADT/Hashing.h</text>
</a>
</g>
</g>
<!-- Node8&#45;&gt;Node13 -->
<g id="edge14_Node000008_Node000013" class="edge">
<title>Node8&#45;&gt;Node13</title>
<g id="a_edge14_Node000008_Node000013"><a xlink:title=" ">
<path fill="none" stroke="#63b8ff" d="M409.56,-113.19C415.28,-105.24 422.23,-95.59 428.22,-87.27"/>
<polygon fill="#63b8ff" stroke="#63b8ff" points="431.03,-89.36 434.03,-79.2 425.35,-85.27 431.03,-89.36"/>
</a>
</g>
</g>
<!-- Node14 -->
<g id="Node000014" class="node">
<title>Node14</title>
<g id="a_Node000014"><a xlink:title=" ">
<polygon fill="#e0e0e0" stroke="#999999" points="903.25,-77.5 858.75,-77.5 858.75,-56.75 903.25,-56.75 903.25,-77.5"/>
<text text-anchor="middle" x="881" y="-64" font-family="Helvetica,sans-Serif" font-size="10.00">utility</text>
</a>
</g>
</g>
<!-- Node8&#45;&gt;Node14 -->
<g id="edge15_Node000008_Node000014" class="edge">
<title>Node8&#45;&gt;Node14</title>
<g id="a_edge15_Node000008_Node000014"><a xlink:title=" ">
<path fill="none" stroke="#63b8ff" d="M453.75,-115.01C456.53,-114.47 459.29,-113.96 462,-113.5 628.76,-85.38 677.3,-108.9 847.3,-77.43"/>
<polygon fill="#63b8ff" stroke="#63b8ff" points="847.74,-80.91 856.92,-75.61 846.44,-74.03 847.74,-80.91"/>
</a>
</g>
</g>
<!-- Node10 -->
<g id="Node000010" class="node">
<title>Node10</title>
<g id="a_Node000010"><a xlink:title=" ">
<polygon fill="#e0e0e0" stroke="#999999" points="660,-20.75 506,-20.75 506,0 660,0 660,-20.75"/>
<text text-anchor="middle" x="583" y="-7.25" font-family="Helvetica,sans-Serif" font-size="10.00">llvm/Support/raw_ostream.h</text>
</a>
</g>
</g>
<!-- Node9&#45;&gt;Node10 -->
<g id="edge11_Node000009_Node000010" class="edge">
<title>Node9&#45;&gt;Node10</title>
<g id="a_edge11_Node000009_Node000010"><a xlink:title=" ">
<path fill="none" stroke="#63b8ff" d="M583,-56.34C583,-49.72 583,-40.72 583,-32.52"/>
<polygon fill="#63b8ff" stroke="#63b8ff" points="586.5,-32.59 583,-22.59 579.5,-32.59 586.5,-32.59"/>
</a>
</g>
</g>
<!-- Node18&#45;&gt;Node14 -->
<g id="edge24_Node000018_Node000014" class="edge">
<title>Node18&#45;&gt;Node14</title>
<g id="a_edge24_Node000018_Node000014"><a xlink:title=" ">
<path fill="none" stroke="#63b8ff" d="M953.57,-182.57C935.17,-175.53 913.42,-164.18 900,-147 887.08,-130.47 882.77,-106.47 881.41,-89.3"/>
<polygon fill="#63b8ff" stroke="#63b8ff" points="884.92,-89.29 880.94,-79.47 877.92,-89.63 884.92,-89.29"/>
</a>
</g>
</g>
<!-- Node19 -->
<g id="Node000019" class="node">
<title>Node19</title>
<g id="a_Node000019"><a xlink:title=" ">
<polygon fill="#e0e0e0" stroke="#999999" points="1095.12,-140.62 986.88,-140.62 986.88,-119.88 1095.12,-119.88 1095.12,-140.62"/>
<text text-anchor="middle" x="1041" y="-127.12" font-family="Helvetica,sans-Serif" font-size="10.00">mlir/IR/Operation.h</text>
</a>
</g>
</g>
<!-- Node18&#45;&gt;Node19 -->
<g id="edge22_Node000018_Node000019" class="edge">
<title>Node18&#45;&gt;Node19</title>
<g id="a_edge22_Node000018_Node000019"><a xlink:title=" ">
<path fill="none" stroke="#63b8ff" d="M995.68,-182.55C1003.6,-173.59 1015.5,-160.12 1025.12,-149.23"/>
<polygon fill="#63b8ff" stroke="#63b8ff" points="1027.52,-151.79 1031.52,-141.98 1022.28,-147.16 1027.52,-151.79"/>
</a>
</g>
</g>
<!-- Node20 -->
<g id="Node000020" class="node">
<title>Node20</title>
<g id="a_Node000020"><a xlink:title=" ">
<polygon fill="#e0e0e0" stroke="#999999" points="968.75,-140.62 909.25,-140.62 909.25,-119.88 968.75,-119.88 968.75,-140.62"/>
<text text-anchor="middle" x="939" y="-127.12" font-family="Helvetica,sans-Serif" font-size="10.00">concepts</text>
</a>
</g>
</g>
<!-- Node18&#45;&gt;Node20 -->
<g id="edge23_Node000018_Node000020" class="edge">
<title>Node18&#45;&gt;Node20</title>
<g id="a_edge23_Node000018_Node000020"><a xlink:title=" ">
<path fill="none" stroke="#63b8ff" d="M979.29,-182.55C972.39,-173.77 962.09,-160.66 953.63,-149.89"/>
<polygon fill="#63b8ff" stroke="#63b8ff" points="956.4,-147.74 947.47,-142.04 950.89,-152.06 956.4,-147.74"/>
</a>
</g>
</g>
<!-- Node21&#45;&gt;Node19 -->
<g id="edge28_Node000021_Node000019" class="edge">
<title>Node21&#45;&gt;Node19</title>
<g id="a_edge28_Node000021_Node000019"><a xlink:title=" ">
<path fill="none" stroke="#63b8ff" d="M1212.22,-182.55C1177.58,-172.17 1122.75,-155.74 1084.5,-144.28"/>
<polygon fill="#63b8ff" stroke="#63b8ff" points="1085.73,-141 1075.14,-141.48 1083.72,-147.7 1085.73,-141"/>
</a>
</g>
</g>
<!-- Node22 -->
<g id="Node000022" class="node">
<title>Node22</title>
<g id="a_Node000022"><a xlink:href="llzk_2Util_2Constants_8h.html" target="_top" xlink:title=" ">
<polygon fill="white" stroke="#666666" points="1774.12,-140.62 1659.88,-140.62 1659.88,-119.88 1774.12,-119.88 1774.12,-140.62"/>
<text text-anchor="middle" x="1717" y="-127.12" font-family="Helvetica,sans-Serif" font-size="10.00">llzk/Util/Constants.h</text>
</a>
</g>
</g>
<!-- Node21&#45;&gt;Node22 -->
<g id="edge26_Node000021_Node000022" class="edge">
<title>Node21&#45;&gt;Node22</title>
<g id="a_edge26_Node000021_Node000022"><a xlink:title=" ">
<path fill="none" stroke="#63b8ff" d="M1313.84,-183.95C1316.6,-183.63 1319.32,-183.31 1322,-183 1467.68,-166.14 1505.46,-171.83 1650,-147 1655.89,-145.99 1662.03,-144.77 1668.11,-143.47"/>
<polygon fill="#63b8ff" stroke="#63b8ff" points="1668.43,-146.98 1677.42,-141.38 1666.9,-140.15 1668.43,-146.98"/>
</a>
</g>
</g>
<!-- Node23 -->
<g id="Node000023" class="node">
<title>Node23</title>
<g id="a_Node000023"><a xlink:title=" ">
<polygon fill="#e0e0e0" stroke="#999999" points="1902.25,-140.62 1791.75,-140.62 1791.75,-119.88 1902.25,-119.88 1902.25,-140.62"/>
<text text-anchor="middle" x="1847" y="-127.12" font-family="Helvetica,sans-Serif" font-size="10.00">mlir/IR/BuiltinOps.h</text>
</a>
</g>
</g>
<!-- Node21&#45;&gt;Node23 -->
<g id="edge27_Node000021_Node000023" class="edge">
<title>Node21&#45;&gt;Node23</title>
<g id="a_edge27_Node000021_Node000023"><a xlink:title=" ">
<path fill="none" stroke="#63b8ff" d="M1313.83,-183.85C1316.59,-183.55 1319.32,-183.27 1322,-183 1526.5,-162.58 1580.1,-179.66 1783,-147 1788.65,-146.09 1794.52,-144.94 1800.33,-143.67"/>
<polygon fill="#63b8ff" stroke="#63b8ff" points="1800.9,-147.13 1809.86,-141.46 1799.32,-140.31 1800.9,-147.13"/>
</a>
</g>
</g>
<!-- Node24 -->
<g id="Node000024" class="node">
<title>Node24</title>
<g id="a_Node000024"><a xlink:title=" ">
<polygon fill="#e0e0e0" stroke="#999999" points="1239.12,-140.62 1112.88,-140.62 1112.88,-119.88 1239.12,-119.88 1239.12,-140.62"/>
<text text-anchor="middle" x="1176" y="-127.12" font-family="Helvetica,sans-Serif" font-size="10.00">mlir/IR/OwningOpRef.h</text>
</a>
</g>
</g>
<!-- Node21&#45;&gt;Node24 -->
<g id="edge29_Node000021_Node000024" class="edge">
<title>Node21&#45;&gt;Node24</title>
<g id="a_edge29_Node000021_Node000024"><a xlink:title=" ">
<path fill="none" stroke="#63b8ff" d="M1233.91,-182.55C1223.49,-173.32 1207.67,-159.31 1195.2,-148.26"/>
<polygon fill="#63b8ff" stroke="#63b8ff" points="1197.77,-145.86 1187.96,-141.85 1193.13,-151.1 1197.77,-145.86"/>
</a>
</g>
</g>
<!-- Node25 -->
<g id="Node000025" class="node">
<title>Node25</title>
<g id="a_Node000025"><a xlink:title=" ">
<polygon fill="#e0e0e0" stroke="#999999" points="1372.5,-140.62 1257.5,-140.62 1257.5,-119.88 1372.5,-119.88 1372.5,-140.62"/>
<text text-anchor="middle" x="1315" y="-127.12" font-family="Helvetica,sans-Serif" font-size="10.00">llvm/ADT/ArrayRef.h</text>
</a>
</g>
</g>
<!-- Node21&#45;&gt;Node25 -->
<g id="edge30_Node000021_Node000025" class="edge">
<title>Node21&#45;&gt;Node25</title>
<g id="a_edge30_Node000021_Node000025"><a xlink:title=" ">
<path fill="none" stroke="#63b8ff" d="M1256.25,-182.55C1266.82,-173.32 1282.87,-159.31 1295.52,-148.26"/>
<polygon fill="#63b8ff" stroke="#63b8ff" points="1297.64,-151.05 1302.87,-141.84 1293.04,-145.78 1297.64,-151.05"/>
</a>
</g>
</g>
<!-- Node26 -->
<g id="Node000026" class="node">
<title>Node26</title>
<g id="a_Node000026"><a xlink:title=" ">
<polygon fill="#e0e0e0" stroke="#999999" points="1507.62,-140.62 1390.38,-140.62 1390.38,-119.88 1507.62,-119.88 1507.62,-140.62"/>
<text text-anchor="middle" x="1449" y="-127.12" font-family="Helvetica,sans-Serif" font-size="10.00">llvm/ADT/StringRef.h</text>
</a>
</g>
</g>
<!-- Node21&#45;&gt;Node26 -->
<g id="edge31_Node000021_Node000026" class="edge">
<title>Node21&#45;&gt;Node26</title>
<g id="a_edge31_Node000021_Node000026"><a xlink:title=" ">
<path fill="none" stroke="#63b8ff" d="M1277.78,-182.55C1312.42,-172.17 1367.25,-155.74 1405.5,-144.28"/>
<polygon fill="#63b8ff" stroke="#63b8ff" points="1406.28,-147.7 1414.86,-141.48 1404.27,-141 1406.28,-147.7"/>
</a>
</g>
</g>
<!-- Node27 -->
<g id="Node000027" class="node">
<title>Node27</title>
<g id="a_Node000027"><a xlink:title=" ">
<polygon fill="#e0e0e0" stroke="#999999" points="1576.25,-140.62 1525.75,-140.62 1525.75,-119.88 1576.25,-119.88 1576.25,-140.62"/>
<text text-anchor="middle" x="1551" y="-127.12" font-family="Helvetica,sans-Serif" font-size="10.00">variant</text>
</a>
</g>
</g>
<!-- Node21&#45;&gt;Node27 -->
<g id="edge32_Node000021_Node000027" class="edge">
<title>Node21&#45;&gt;Node27</title>
<g id="a_edge32_Node000021_Node000027"><a xlink:title=" ">
<path fill="none" stroke="#63b8ff" d="M1313.73,-183.05C1381.48,-173.48 1480.06,-158.41 1517,-147 1518.59,-146.51 1520.21,-145.96 1521.82,-145.36"/>
<polygon fill="#63b8ff" stroke="#63b8ff" points="1523.01,-148.66 1530.9,-141.59 1520.32,-142.2 1523.01,-148.66"/>
</a>
</g>
</g>
<!-- Node28 -->
<g id="Node000028" class="node">
<title>Node28</title>
<g id="a_Node000028"><a xlink:title=" ">
<polygon fill="#e0e0e0" stroke="#999999" points="1641.38,-140.62 1594.62,-140.62 1594.62,-119.88 1641.38,-119.88 1641.38,-140.62"/>
<text text-anchor="middle" x="1618" y="-127.12" font-family="Helvetica,sans-Serif" font-size="10.00">vector</text>
</a>
</g>
</g>
<!-- Node21&#45;&gt;Node28 -->
<g id="edge33_Node000021_Node000028" class="edge">
<title>Node21&#45;&gt;Node28</title>
<g id="a_edge33_Node000021_Node000028"><a xlink:title=" ">
<path fill="none" stroke="#63b8ff" d="M1313.71,-183.76C1409.28,-171.7 1572.16,-150.82 1585,-147 1586.6,-146.53 1588.21,-145.98 1589.83,-145.39"/>
<polygon fill="#63b8ff" stroke="#63b8ff" points="1591.02,-148.69 1598.86,-141.56 1588.28,-142.24 1591.02,-148.69"/>
</a>
</g>
</g>
</g>
</svg>
