<?xml version="1.0" encoding="UTF-8" standalone="no"?>
<!DOCTYPE svg PUBLIC "-//W3C//DTD SVG 1.1//EN"
 "http://www.w3.org/Graphics/SVG/1.1/DTD/svg11.dtd">
<!-- Generated by graphviz version 12.2.1 (0)
 -->
<!-- Title: include/llzk/Util/SymbolTableLLZK.h Pages: 1 -->
<svg width="1293pt" height="111pt"
 viewBox="0.00 0.00 1292.75 111.00" xmlns="http://www.w3.org/2000/svg" xmlns:xlink="http://www.w3.org/1999/xlink">
<g id="graph0" class="graph" transform="scale(1 1) rotate(0) translate(4 107)">
<title>include/llzk/Util/SymbolTableLLZK.h</title>
<!-- Node1 -->
<g id="Node000001" class="node">
<title>Node1</title>
<g id="a_Node000001"><a xlink:title=" ">
<polygon fill="#999999" stroke="#666666" points="727.62,-103 596.12,-103 596.12,-69.5 727.62,-69.5 727.62,-103"/>
<text text-anchor="start" x="604.12" y="-89.5" font-family="Helvetica,sans-Serif" font-size="10.00">include/llzk/Util/Symbol</text>
<text text-anchor="middle" x="661.88" y="-76.75" font-family="Helvetica,sans-Serif" font-size="10.00">TableLLZK.h</text>
</a>
</g>
</g>
<!-- Node2 -->
<g id="Node000002" class="node">
<title>Node2</title>
<g id="a_Node000002"><a xlink:href="SymbolDefTree_8cpp.html" target="_top" xlink:title=" ">
<polygon fill="white" stroke="#666666" points="169.75,-27.12 0,-27.12 0,-6.38 169.75,-6.38 169.75,-27.12"/>
<text text-anchor="middle" x="84.88" y="-13.62" font-family="Helvetica,sans-Serif" font-size="10.00">lib/Analysis/SymbolDefTree.cpp</text>
</a>
</g>
</g>
<!-- Node1&#45;&gt;Node2 -->
<g id="edge1_Node000001_Node000002" class="edge">
<title>Node1&#45;&gt;Node2</title>
<g id="a_edge1_Node000001_Node000002"><a xlink:title=" ">
<path fill="none" stroke="#63b8ff" d="M584.42,-78.38C488.88,-69.57 321.59,-53.08 178.88,-33.5 166.42,-31.79 153.07,-29.71 140.46,-27.62"/>
<polygon fill="#63b8ff" stroke="#63b8ff" points="583.92,-81.85 594.2,-79.27 584.56,-74.88 583.92,-81.85"/>
</a>
</g>
</g>
<!-- Node3 -->
<g id="Node000003" class="node">
<title>Node3</title>
<g id="a_Node000003"><a xlink:href="SymbolUseGraph_8cpp.html" target="_top" xlink:title=" ">
<polygon fill="white" stroke="#666666" points="368,-27.12 187.75,-27.12 187.75,-6.38 368,-6.38 368,-27.12"/>
<text text-anchor="middle" x="277.88" y="-13.62" font-family="Helvetica,sans-Serif" font-size="10.00">lib/Analysis/SymbolUseGraph.cpp</text>
</a>
</g>
</g>
<!-- Node1&#45;&gt;Node3 -->
<g id="edge2_Node000001_Node000003" class="edge">
<title>Node1&#45;&gt;Node3</title>
<g id="a_edge2_Node000001_Node000003"><a xlink:title=" ">
<path fill="none" stroke="#63b8ff" d="M584.73,-71.69C510.54,-58.65 400.17,-39.25 333.99,-27.61"/>
<polygon fill="#63b8ff" stroke="#63b8ff" points="583.92,-75.1 594.37,-73.38 585.13,-68.21 583.92,-75.1"/>
</a>
</g>
</g>
<!-- Node4 -->
<g id="Node000004" class="node">
<title>Node4</title>
<g id="a_Node000004"><a xlink:href="Function_2IR_2Ops_8cpp.html" target="_top" xlink:title=" ">
<polygon fill="white" stroke="#666666" points="495.75,-33.5 386,-33.5 386,0 495.75,0 495.75,-33.5"/>
<text text-anchor="start" x="394" y="-20" font-family="Helvetica,sans-Serif" font-size="10.00">lib/Dialect/Function</text>
<text text-anchor="middle" x="440.88" y="-7.25" font-family="Helvetica,sans-Serif" font-size="10.00">/IR/Ops.cpp</text>
</a>
</g>
</g>
<!-- Node1&#45;&gt;Node4 -->
<g id="edge3_Node000001_Node000004" class="edge">
<title>Node1&#45;&gt;Node4</title>
<g id="a_edge3_Node000001_Node000004"><a xlink:title=" ">
<path fill="none" stroke="#63b8ff" d="M598.01,-65.74C564.95,-55.65 525.07,-43.47 493.76,-33.9"/>
<polygon fill="#63b8ff" stroke="#63b8ff" points="596.91,-69.07 607.49,-68.64 598.95,-62.37 596.91,-69.07"/>
</a>
</g>
</g>
<!-- Node5 -->
<g id="Node000005" class="node">
<title>Node5</title>
<g id="a_Node000005"><a xlink:href="Polymorphic_2IR_2Ops_8cpp.html" target="_top" xlink:title=" ">
<polygon fill="white" stroke="#666666" points="643.5,-33.5 514.25,-33.5 514.25,0 643.5,0 643.5,-33.5"/>
<text text-anchor="start" x="522.25" y="-20" font-family="Helvetica,sans-Serif" font-size="10.00">lib/Dialect/Polymorphic</text>
<text text-anchor="middle" x="578.88" y="-7.25" font-family="Helvetica,sans-Serif" font-size="10.00">/IR/Ops.cpp</text>
</a>
</g>
</g>
<!-- Node1&#45;&gt;Node5 -->
<g id="edge4_Node000001_Node000005" class="edge">
<title>Node1&#45;&gt;Node5</title>
<g id="a_edge4_Node000001_Node000005"><a xlink:title=" ">
<path fill="none" stroke="#63b8ff" d="M633.43,-62.11C621.99,-52.81 609.08,-42.31 598.69,-33.87"/>
<polygon fill="#63b8ff" stroke="#63b8ff" points="631.06,-64.7 641.03,-68.3 635.48,-59.27 631.06,-64.7"/>
</a>
</g>
</g>
<!-- Node6 -->
<g id="Node000006" class="node">
<title>Node6</title>
<g id="a_Node000006"><a xlink:href="FlatteningPass_8cpp.html" target="_top" xlink:title="This file implements the &#45;llzk&#45;flatten pass.">
<polygon fill="white" stroke="#666666" points="828.62,-33.5 661.12,-33.5 661.12,0 828.62,0 828.62,-33.5"/>
<text text-anchor="start" x="669.12" y="-20" font-family="Helvetica,sans-Serif" font-size="10.00">lib/Dialect/Polymorphic</text>
<text text-anchor="middle" x="744.88" y="-7.25" font-family="Helvetica,sans-Serif" font-size="10.00">/Transforms/FlatteningPass.cpp</text>
</a>
</g>
</g>
<!-- Node1&#45;&gt;Node6 -->
<g id="edge5_Node000001_Node000006" class="edge">
<title>Node1&#45;&gt;Node6</title>
<g id="a_edge5_Node000001_Node000006"><a xlink:title=" ">
<path fill="none" stroke="#63b8ff" d="M690.32,-62.11C701.76,-52.81 714.67,-42.31 725.06,-33.87"/>
<polygon fill="#63b8ff" stroke="#63b8ff" points="688.27,-59.27 682.72,-68.3 692.69,-64.7 688.27,-59.27"/>
</a>
</g>
</g>
<!-- Node7 -->
<g id="Node000007" class="node">
<title>Node7</title>
<g id="a_Node000007"><a xlink:href="Verif_2IR_2Ops_8cpp.html" target="_top" xlink:title=" ">
<polygon fill="white" stroke="#666666" points="950.75,-33.5 847,-33.5 847,0 950.75,0 950.75,-33.5"/>
<text text-anchor="start" x="855" y="-20" font-family="Helvetica,sans-Serif" font-size="10.00">lib/Dialect/Verif/IR</text>
<text text-anchor="middle" x="898.88" y="-7.25" font-family="Helvetica,sans-Serif" font-size="10.00">/Ops.cpp</text>
</a>
</g>
</g>
<!-- Node1&#45;&gt;Node7 -->
<g id="edge6_Node000001_Node000007" class="edge">
<title>Node1&#45;&gt;Node7</title>
<g id="a_edge6_Node000001_Node000007"><a xlink:title=" ">
<path fill="none" stroke="#63b8ff" d="M729.4,-66.02C766.63,-55.42 812.14,-42.45 846.62,-32.63"/>
<polygon fill="#63b8ff" stroke="#63b8ff" points="728.76,-62.56 720.1,-68.67 730.67,-69.29 728.76,-62.56"/>
</a>
</g>
</g>
<!-- Node8 -->
<g id="Node000008" class="node">
<title>Node8</title>
<g id="a_Node000008"><a xlink:href="SymbolHelper_8cpp.html" target="_top" xlink:title="This file contains the implementations for symbol helper functions.">
<polygon fill="white" stroke="#666666" points="1108.75,-27.12 969,-27.12 969,-6.38 1108.75,-6.38 1108.75,-27.12"/>
<text text-anchor="middle" x="1038.88" y="-13.62" font-family="Helvetica,sans-Serif" font-size="10.00">lib/Util/SymbolHelper.cpp</text>
</a>
</g>
</g>
<!-- Node1&#45;&gt;Node8 -->
<g id="edge7_Node000001_Node000008" class="edge">
<title>Node1&#45;&gt;Node8</title>
<g id="a_edge7_Node000001_Node000008"><a xlink:title=" ">
<path fill="none" stroke="#63b8ff" d="M739.26,-72.35C799.47,-62.19 885.07,-47.45 959.88,-33.5 969.77,-31.65 980.35,-29.6 990.45,-27.6"/>
<polygon fill="#63b8ff" stroke="#63b8ff" points="738.72,-68.9 729.44,-74.01 739.88,-75.8 738.72,-68.9"/>
</a>
</g>
</g>
<!-- Node9 -->
<g id="Node000009" class="node">
<title>Node9</title>
<g id="a_Node000009"><a xlink:href="SymbolTableLLZK_8cpp.html" target="_top" xlink:title="This is a selection of code from mlir/lib/IR/SymbolTable.cpp to support a modified version of walkSym...">
<polygon fill="white" stroke="#666666" points="1284.75,-27.12 1127,-27.12 1127,-6.38 1284.75,-6.38 1284.75,-27.12"/>
<text text-anchor="middle" x="1205.88" y="-13.62" font-family="Helvetica,sans-Serif" font-size="10.00">lib/Util/SymbolTableLLZK.cpp</text>
</a>
</g>
</g>
<!-- Node1&#45;&gt;Node9 -->
<g id="edge8_Node000001_Node000009" class="edge">
<title>Node1&#45;&gt;Node9</title>
<g id="a_edge8_Node000001_Node000009"><a xlink:title=" ">
<path fill="none" stroke="#63b8ff" d="M739.43,-77.98C830.32,-69.1 985.38,-52.85 1117.88,-33.5 1129.7,-31.77 1142.37,-29.66 1154.31,-27.55"/>
<polygon fill="#63b8ff" stroke="#63b8ff" points="739.24,-74.48 729.63,-78.93 739.92,-81.45 739.24,-74.48"/>
</a>
</g>
</g>
</g>
</svg>
