<?xml version="1.0" encoding="UTF-8" standalone="no"?>
<!DOCTYPE svg PUBLIC "-//W3C//DTD SVG 1.1//EN"
 "http://www.w3.org/Graphics/SVG/1.1/DTD/svg11.dtd">
<!-- Generated by graphviz version 12.2.1 (0)
 -->
<!-- Title: lib/Util/SymbolTableLLZK.cpp Pages: 1 -->
<svg width="362pt" height="142pt"
 viewBox="0.00 0.00 362.25 142.25" xmlns="http://www.w3.org/2000/svg" xmlns:xlink="http://www.w3.org/1999/xlink">
<g id="graph0" class="graph" transform="scale(1 1) rotate(0) translate(4 138.25)">
<title>lib/Util/SymbolTableLLZK.cpp</title>
<!-- Node1 -->
<g id="Node000001" class="node">
<title>Node1</title>
<g id="a_Node000001"><a xlink:title="This is a selection of code from mlir/lib/IR/SymbolTable.cpp to support a modified version of walkSym...">
<polygon fill="#999999" stroke="#666666" points="288.12,-134.25 130.38,-134.25 130.38,-113.5 288.12,-113.5 288.12,-134.25"/>
<text text-anchor="middle" x="209.25" y="-120.75" font-family="Helvetica,sans-Serif" font-size="10.00">lib/Util/SymbolTableLLZK.cpp</text>
</a>
</g>
</g>
<!-- Node2 -->
<g id="Node000002" class="node">
<title>Node2</title>
<g id="a_Node000002"><a xlink:href="SymbolTableLLZK_8h.html" target="_top" xlink:title=" ">
<polygon fill="white" stroke="#666666" points="206.12,-77.5 54.38,-77.5 54.38,-56.75 206.12,-56.75 206.12,-77.5"/>
<text text-anchor="middle" x="130.25" y="-64" font-family="Helvetica,sans-Serif" font-size="10.00">llzk/Util/SymbolTableLLZK.h</text>
</a>
</g>
</g>
<!-- Node1&#45;&gt;Node2 -->
<g id="edge1_Node000001_Node000002" class="edge">
<title>Node1&#45;&gt;Node2</title>
<g id="a_edge1_Node000001_Node000002"><a xlink:title=" ">
<path fill="none" stroke="#63b8ff" d="M195.13,-113.09C183.56,-105.07 166.95,-93.56 153.43,-84.19"/>
<polygon fill="#63b8ff" stroke="#63b8ff" points="155.71,-81.51 145.5,-78.69 151.72,-87.26 155.71,-81.51"/>
</a>
</g>
</g>
<!-- Node5 -->
<g id="Node000005" class="node">
<title>Node5</title>
<g id="a_Node000005"><a xlink:title=" ">
<polygon fill="#e0e0e0" stroke="#999999" points="354.25,-77.5 224.25,-77.5 224.25,-56.75 354.25,-56.75 354.25,-77.5"/>
<text text-anchor="middle" x="289.25" y="-64" font-family="Helvetica,sans-Serif" font-size="10.00">llvm/ADT/SmallPtrSet.h</text>
</a>
</g>
</g>
<!-- Node1&#45;&gt;Node5 -->
<g id="edge4_Node000001_Node000005" class="edge">
<title>Node1&#45;&gt;Node5</title>
<g id="a_edge4_Node000001_Node000005"><a xlink:title=" ">
<path fill="none" stroke="#63b8ff" d="M223.55,-113.09C235.27,-105.07 252.09,-93.56 265.78,-84.19"/>
<polygon fill="#63b8ff" stroke="#63b8ff" points="267.55,-87.22 273.82,-78.68 263.59,-81.44 267.55,-87.22"/>
</a>
</g>
</g>
<!-- Node3 -->
<g id="Node000003" class="node">
<title>Node3</title>
<g id="a_Node000003"><a xlink:title=" ">
<polygon fill="#e0e0e0" stroke="#999999" points="122.5,-20.75 0,-20.75 0,0 122.5,0 122.5,-20.75"/>
<text text-anchor="middle" x="61.25" y="-7.25" font-family="Helvetica,sans-Serif" font-size="10.00">mlir/IR/SymbolTable.h</text>
</a>
</g>
</g>
<!-- Node2&#45;&gt;Node3 -->
<g id="edge2_Node000002_Node000003" class="edge">
<title>Node2&#45;&gt;Node3</title>
<g id="a_edge2_Node000002_Node000003"><a xlink:title=" ">
<path fill="none" stroke="#63b8ff" d="M117.91,-56.34C108,-48.47 93.86,-37.25 82.19,-27.99"/>
<polygon fill="#63b8ff" stroke="#63b8ff" points="84.67,-25.49 74.66,-22.02 80.32,-30.98 84.67,-25.49"/>
</a>
</g>
</g>
<!-- Node4 -->
<g id="Node000004" class="node">
<title>Node4</title>
<g id="a_Node000004"><a xlink:title=" ">
<polygon fill="#e0e0e0" stroke="#999999" points="260,-20.75 140.5,-20.75 140.5,0 260,0 260,-20.75"/>
<text text-anchor="middle" x="200.25" y="-7.25" font-family="Helvetica,sans-Serif" font-size="10.00">llvm/ADT/DenseSet.h</text>
</a>
</g>
</g>
<!-- Node2&#45;&gt;Node4 -->
<g id="edge3_Node000002_Node000004" class="edge">
<title>Node2&#45;&gt;Node4</title>
<g id="a_edge3_Node000002_Node000004"><a xlink:title=" ">
<path fill="none" stroke="#63b8ff" d="M142.76,-56.34C152.82,-48.47 167.16,-37.25 179.01,-27.99"/>
<polygon fill="#63b8ff" stroke="#63b8ff" points="180.93,-30.93 186.65,-22.01 176.62,-25.41 180.93,-30.93"/>
</a>
</g>
</g>
</g>
</svg>
