<?xml version="1.0" encoding="UTF-8" standalone="no"?>
<!DOCTYPE svg PUBLIC "-//W3C//DTD SVG 1.1//EN"
 "http://www.w3.org/Graphics/SVG/1.1/DTD/svg11.dtd">
<!-- Generated by graphviz version 12.2.1 (0)
 -->
<!-- Title: lib/Util/SymbolTableLLZK.cpp Pages: 1 -->
<svg width="2791pt" height="364pt"
 viewBox="0.00 0.00 2790.75 363.50" xmlns="http://www.w3.org/2000/svg" xmlns:xlink="http://www.w3.org/1999/xlink">
<g id="graph0" class="graph" transform="scale(1 1) rotate(0) translate(4 359.5)">
<title>lib/Util/SymbolTableLLZK.cpp</title>
<!-- Node1 -->
<g id="Node000001" class="node">
<title>Node1</title>
<g id="a_Node000001"><a xlink:title="This is a selection of code from mlir/lib/IR/SymbolTable.cpp to support a modified version of walkSym...">
<polygon fill="#999999" stroke="#666666" points="2027.5,-355.5 1869.75,-355.5 1869.75,-334.75 2027.5,-334.75 2027.5,-355.5"/>
<text text-anchor="middle" x="1948.62" y="-342" font-family="Helvetica,sans-Serif" font-size="10.00">lib/Util/SymbolTableLLZK.cpp</text>
</a>
</g>
</g>
<!-- Node2 -->
<g id="Node000002" class="node">
<title>Node2</title>
<g id="a_Node000002"><a xlink:href="SymbolTableLLZK_8h.html" target="_top" xlink:title=" ">
<polygon fill="white" stroke="#666666" points="324.5,-292.38 172.75,-292.38 172.75,-271.62 324.5,-271.62 324.5,-292.38"/>
<text text-anchor="middle" x="248.62" y="-278.88" font-family="Helvetica,sans-Serif" font-size="10.00">llzk/Util/SymbolTableLLZK.h</text>
</a>
</g>
</g>
<!-- Node1&#45;&gt;Node2 -->
<g id="edge1_Node000001_Node000002" class="edge">
<title>Node1&#45;&gt;Node2</title>
<g id="a_edge1_Node000001_Node000002"><a xlink:title=" ">
<path fill="none" stroke="#63b8ff" d="M1869.48,-341.28C1587.3,-331.13 631.66,-296.77 336.32,-286.15"/>
<polygon fill="#63b8ff" stroke="#63b8ff" points="336.47,-282.66 326.35,-285.79 336.22,-289.65 336.47,-282.66"/>
</a>
</g>
</g>
<!-- Node5 -->
<g id="Node000005" class="node">
<title>Node5</title>
<g id="a_Node000005"><a xlink:href="POD_2IR_2Ops_8h.html" target="_top" xlink:title=" ">
<polygon fill="white" stroke="#666666" points="2002.38,-298.75 1894.88,-298.75 1894.88,-265.25 2002.38,-265.25 2002.38,-298.75"/>
<text text-anchor="start" x="1902.88" y="-285.25" font-family="Helvetica,sans-Serif" font-size="10.00">llzk/Dialect/POD/IR</text>
<text text-anchor="middle" x="1948.62" y="-272.5" font-family="Helvetica,sans-Serif" font-size="10.00">/Ops.h</text>
</a>
</g>
</g>
<!-- Node1&#45;&gt;Node5 -->
<g id="edge4_Node000001_Node000005" class="edge">
<title>Node1&#45;&gt;Node5</title>
<g id="a_edge4_Node000001_Node000005"><a xlink:title=" ">
<path fill="none" stroke="#63b8ff" d="M1948.62,-334.3C1948.62,-327.88 1948.62,-319.15 1948.62,-310.7"/>
<polygon fill="#63b8ff" stroke="#63b8ff" points="1952.13,-310.75 1948.63,-300.75 1945.13,-310.75 1952.13,-310.75"/>
</a>
</g>
</g>
<!-- Node48 -->
<g id="Node000048" class="node">
<title>Node48</title>
<g id="a_Node000048"><a xlink:title=" ">
<polygon fill="#e0e0e0" stroke="#999999" points="2150.62,-292.38 2020.62,-292.38 2020.62,-271.62 2150.62,-271.62 2150.62,-292.38"/>
<text text-anchor="middle" x="2085.62" y="-278.88" font-family="Helvetica,sans-Serif" font-size="10.00">llvm/ADT/SmallPtrSet.h</text>
</a>
</g>
</g>
<!-- Node1&#45;&gt;Node48 -->
<g id="edge61_Node000001_Node000048" class="edge">
<title>Node1&#45;&gt;Node48</title>
<g id="a_edge61_Node000001_Node000048"><a xlink:title=" ">
<path fill="none" stroke="#63b8ff" d="M1970.64,-334.3C1993.01,-324.32 2027.9,-308.75 2053.39,-297.38"/>
<polygon fill="#63b8ff" stroke="#63b8ff" points="2054.58,-300.68 2062.29,-293.41 2051.73,-294.29 2054.58,-300.68"/>
</a>
</g>
</g>
<!-- Node3 -->
<g id="Node000003" class="node">
<title>Node3</title>
<g id="a_Node000003"><a xlink:title=" ">
<polygon fill="#e0e0e0" stroke="#999999" points="296.88,-83.88 174.38,-83.88 174.38,-63.12 296.88,-63.12 296.88,-83.88"/>
<text text-anchor="middle" x="235.62" y="-70.38" font-family="Helvetica,sans-Serif" font-size="10.00">mlir/IR/SymbolTable.h</text>
</a>
</g>
</g>
<!-- Node2&#45;&gt;Node3 -->
<g id="edge2_Node000002_Node000003" class="edge">
<title>Node2&#45;&gt;Node3</title>
<g id="a_edge2_Node000002_Node000003"><a xlink:title=" ">
<path fill="none" stroke="#63b8ff" d="M248.02,-271.32C246.03,-239.74 239.7,-139.28 236.94,-95.38"/>
<polygon fill="#63b8ff" stroke="#63b8ff" points="240.43,-95.2 236.31,-85.43 233.45,-95.64 240.43,-95.2"/>
</a>
</g>
</g>
<!-- Node4 -->
<g id="Node000004" class="node">
<title>Node4</title>
<g id="a_Node000004"><a xlink:title=" ">
<polygon fill="#e0e0e0" stroke="#999999" points="220.38,-222.88 100.88,-222.88 100.88,-202.12 220.38,-202.12 220.38,-222.88"/>
<text text-anchor="middle" x="160.62" y="-209.38" font-family="Helvetica,sans-Serif" font-size="10.00">llvm/ADT/DenseSet.h</text>
</a>
</g>
</g>
<!-- Node2&#45;&gt;Node4 -->
<g id="edge3_Node000002_Node000004" class="edge">
<title>Node2&#45;&gt;Node4</title>
<g id="a_edge3_Node000002_Node000004"><a xlink:title=" ">
<path fill="none" stroke="#63b8ff" d="M236.02,-271.33C221.98,-260.56 199.06,-242.98 182.16,-230.02"/>
<polygon fill="#63b8ff" stroke="#63b8ff" points="184.76,-227.6 174.7,-224.29 180.5,-233.16 184.76,-227.6"/>
</a>
</g>
</g>
<!-- Node6 -->
<g id="Node000006" class="node">
<title>Node6</title>
<g id="a_Node000006"><a xlink:href="POD_2IR_2Dialect_8h.html" target="_top" xlink:title=" ">
<polygon fill="white" stroke="#666666" points="2402.38,-159.75 2294.88,-159.75 2294.88,-126.25 2402.38,-126.25 2402.38,-159.75"/>
<text text-anchor="start" x="2302.88" y="-146.25" font-family="Helvetica,sans-Serif" font-size="10.00">llzk/Dialect/POD/IR</text>
<text text-anchor="middle" x="2348.62" y="-133.5" font-family="Helvetica,sans-Serif" font-size="10.00">/Dialect.h</text>
</a>
</g>
</g>
<!-- Node5&#45;&gt;Node6 -->
<g id="edge5_Node000005_Node000006" class="edge">
<title>Node5&#45;&gt;Node6</title>
<g id="a_edge5_Node000005_Node000006"><a xlink:title=" ">
<path fill="none" stroke="#63b8ff" d="M2002.83,-267.02C2005.8,-266.39 2008.74,-265.8 2011.62,-265.25 2133.6,-242.16 2182.36,-293.44 2288.62,-229.25 2311.24,-215.59 2327.57,-189.79 2337.43,-170.14"/>
<polygon fill="#63b8ff" stroke="#63b8ff" points="2340.48,-171.87 2341.6,-161.34 2334.16,-168.88 2340.48,-171.87"/>
</a>
</g>
</g>
<!-- Node9 -->
<g id="Node000009" class="node">
<title>Node9</title>
<g id="a_Node000009"><a xlink:href="POD_2IR_2Types_8h.html" target="_top" xlink:title=" ">
<polygon fill="white" stroke="#666666" points="2443.38,-229.25 2335.88,-229.25 2335.88,-195.75 2443.38,-195.75 2443.38,-229.25"/>
<text text-anchor="start" x="2343.88" y="-215.75" font-family="Helvetica,sans-Serif" font-size="10.00">llzk/Dialect/POD/IR</text>
<text text-anchor="middle" x="2389.62" y="-203" font-family="Helvetica,sans-Serif" font-size="10.00">/Types.h</text>
</a>
</g>
</g>
<!-- Node5&#45;&gt;Node9 -->
<g id="edge8_Node000005_Node000009" class="edge">
<title>Node5&#45;&gt;Node9</title>
<g id="a_edge8_Node000005_Node000009"><a xlink:title=" ">
<path fill="none" stroke="#63b8ff" d="M2002.82,-266.98C2005.79,-266.36 2008.74,-265.78 2011.62,-265.25 2148.08,-240.38 2184.96,-252.94 2321.62,-229.25 2322.62,-229.08 2323.62,-228.9 2324.62,-228.72"/>
<polygon fill="#63b8ff" stroke="#63b8ff" points="2324.91,-232.23 2334.06,-226.89 2323.58,-225.36 2324.91,-232.23"/>
</a>
</g>
</g>
<!-- Node12 -->
<g id="Node000012" class="node">
<title>Node12</title>
<g id="a_Node000012"><a xlink:title=" ">
<polygon fill="#e0e0e0" stroke="#999999" points="2276.5,-83.88 2136.75,-83.88 2136.75,-63.12 2276.5,-63.12 2276.5,-83.88"/>
<text text-anchor="middle" x="2206.62" y="-70.38" font-family="Helvetica,sans-Serif" font-size="10.00">mlir/IR/BuiltinAttributes.h</text>
</a>
</g>
</g>
<!-- Node5&#45;&gt;Node12 -->
<g id="edge55_Node000005_Node000012" class="edge">
<title>Node5&#45;&gt;Node12</title>
<g id="a_edge55_Node000005_Node000012"><a xlink:title=" ">
<path fill="none" stroke="#63b8ff" d="M1935.9,-264.92C1923.57,-247.24 1908.41,-218.37 1920.62,-195.75 1947.4,-146.18 1975.42,-149.74 2026.62,-126.25 2065.19,-108.56 2111.21,-95.45 2147.07,-86.86"/>
<polygon fill="#63b8ff" stroke="#63b8ff" points="2147.44,-90.37 2156.38,-84.68 2145.84,-83.55 2147.44,-90.37"/>
</a>
</g>
</g>
<!-- Node14 -->
<g id="Node000014" class="node">
<title>Node14</title>
<g id="a_Node000014"><a xlink:title=" ">
<polygon fill="#e0e0e0" stroke="#999999" points="2185.38,-159.75 2035.88,-159.75 2035.88,-126.25 2185.38,-126.25 2185.38,-159.75"/>
<text text-anchor="start" x="2043.88" y="-146.25" font-family="Helvetica,sans-Serif" font-size="10.00">mlir/Interfaces/MemorySlot</text>
<text text-anchor="middle" x="2110.62" y="-133.5" font-family="Helvetica,sans-Serif" font-size="10.00">Interfaces.h</text>
</a>
</g>
</g>
<!-- Node5&#45;&gt;Node14 -->
<g id="edge58_Node000005_Node000014" class="edge">
<title>Node5&#45;&gt;Node14</title>
<g id="a_edge58_Node000005_Node000014"><a xlink:title=" ">
<path fill="none" stroke="#63b8ff" d="M1938.58,-264.89C1928.47,-246.4 1916.39,-216.02 1931.62,-195.75 1943.49,-179.97 1984.71,-167.48 2024.61,-158.72"/>
<polygon fill="#63b8ff" stroke="#63b8ff" points="2025.27,-162.16 2034.32,-156.67 2023.81,-155.31 2025.27,-162.16"/>
</a>
</g>
</g>
<!-- Node16 -->
<g id="Node000016" class="node">
<title>Node16</title>
<g id="a_Node000016"><a xlink:href="OpHelpers_8h.html" target="_top" xlink:title=" ">
<polygon fill="white" stroke="#666666" points="1030.38,-229.25 922.88,-229.25 922.88,-195.75 1030.38,-195.75 1030.38,-229.25"/>
<text text-anchor="start" x="930.88" y="-215.75" font-family="Helvetica,sans-Serif" font-size="10.00">llzk/Dialect/Shared</text>
<text text-anchor="middle" x="976.62" y="-203" font-family="Helvetica,sans-Serif" font-size="10.00">/OpHelpers.h</text>
</a>
</g>
</g>
<!-- Node5&#45;&gt;Node16 -->
<g id="edge16_Node000005_Node000016" class="edge">
<title>Node5&#45;&gt;Node16</title>
<g id="a_edge16_Node000005_Node000016"><a xlink:title=" ">
<path fill="none" stroke="#63b8ff" d="M1894.63,-277.25C1728.16,-265.69 1223.14,-230.62 1042.09,-218.05"/>
<polygon fill="#63b8ff" stroke="#63b8ff" points="1042.37,-214.56 1032.15,-217.36 1041.89,-221.54 1042.37,-214.56"/>
</a>
</g>
</g>
<!-- Node28 -->
<g id="Node000028" class="node">
<title>Node28</title>
<g id="a_Node000028"><a xlink:title=" ">
<polygon fill="#e0e0e0" stroke="#999999" points="1054.5,-83.88 902.75,-83.88 902.75,-63.12 1054.5,-63.12 1054.5,-83.88"/>
<text text-anchor="middle" x="978.62" y="-70.38" font-family="Helvetica,sans-Serif" font-size="10.00">mlir/IR/OpImplementation.h</text>
</a>
</g>
</g>
<!-- Node5&#45;&gt;Node28 -->
<g id="edge56_Node000005_Node000028" class="edge">
<title>Node5&#45;&gt;Node28</title>
<g id="a_edge56_Node000005_Node000028"><a xlink:title=" ">
<path fill="none" stroke="#63b8ff" d="M1894.63,-280.61C1709.8,-278.93 1103.54,-270.33 913.62,-229.25 831.43,-211.47 784.93,-229.29 737.62,-159.75 729.25,-147.44 728.27,-137.83 737.62,-126.25 740.51,-122.69 847.48,-100.71 917.92,-86.57"/>
<polygon fill="#63b8ff" stroke="#63b8ff" points="918.29,-90.06 927.41,-84.67 916.92,-83.2 918.29,-90.06"/>
</a>
</g>
</g>
<!-- Node45 -->
<g id="Node000045" class="node">
<title>Node45</title>
<g id="a_Node000045"><a xlink:title=" ">
<polygon fill="#e0e0e0" stroke="#999999" points="2028.25,-222.88 1941,-222.88 1941,-202.12 2028.25,-202.12 2028.25,-222.88"/>
<text text-anchor="middle" x="1984.62" y="-209.38" font-family="Helvetica,sans-Serif" font-size="10.00">mlir/IR/Value.h</text>
</a>
</g>
</g>
<!-- Node5&#45;&gt;Node45 -->
<g id="edge57_Node000005_Node000045" class="edge">
<title>Node5&#45;&gt;Node45</title>
<g id="a_edge57_Node000005_Node000045"><a xlink:title=" ">
<path fill="none" stroke="#63b8ff" d="M1957.16,-265C1962.23,-255.5 1968.7,-243.37 1974.08,-233.27"/>
<polygon fill="#63b8ff" stroke="#63b8ff" points="1977.06,-235.13 1978.67,-224.66 1970.88,-231.83 1977.06,-235.13"/>
</a>
</g>
</g>
<!-- Node46 -->
<g id="Node000046" class="node">
<title>Node46</title>
<g id="a_Node000046"><a xlink:href="POD_2IR_2OpInterfaces_8h_8inc.html" target="_top" xlink:title=" ">
<polygon fill="white" stroke="#666666" points="2153.38,-229.25 2045.88,-229.25 2045.88,-195.75 2153.38,-195.75 2153.38,-229.25"/>
<text text-anchor="start" x="2053.88" y="-215.75" font-family="Helvetica,sans-Serif" font-size="10.00">llzk/Dialect/POD/IR</text>
<text text-anchor="middle" x="2099.62" y="-203" font-family="Helvetica,sans-Serif" font-size="10.00">/OpInterfaces.h.inc</text>
</a>
</g>
</g>
<!-- Node5&#45;&gt;Node46 -->
<g id="edge59_Node000005_Node000046" class="edge">
<title>Node5&#45;&gt;Node46</title>
<g id="a_edge59_Node000005_Node000046"><a xlink:title=" ">
<path fill="none" stroke="#63b8ff" d="M1984.79,-264.83C2005.26,-255.68 2031.08,-244.14 2053.05,-234.32"/>
<polygon fill="#63b8ff" stroke="#63b8ff" points="2054.41,-237.55 2062.11,-230.27 2051.55,-231.16 2054.41,-237.55"/>
</a>
</g>
</g>
<!-- Node47 -->
<g id="Node000047" class="node">
<title>Node47</title>
<g id="a_Node000047"><a xlink:href="POD_2IR_2Ops_8h_8inc.html" target="_top" xlink:title=" ">
<polygon fill="white" stroke="#666666" points="2279.38,-229.25 2171.88,-229.25 2171.88,-195.75 2279.38,-195.75 2279.38,-229.25"/>
<text text-anchor="start" x="2179.88" y="-215.75" font-family="Helvetica,sans-Serif" font-size="10.00">llzk/Dialect/POD/IR</text>
<text text-anchor="middle" x="2225.62" y="-203" font-family="Helvetica,sans-Serif" font-size="10.00">/Ops.h.inc</text>
</a>
</g>
</g>
<!-- Node5&#45;&gt;Node47 -->
<g id="edge60_Node000005_Node000047" class="edge">
<title>Node5&#45;&gt;Node47</title>
<g id="a_edge60_Node000005_Node000047"><a xlink:title=" ">
<path fill="none" stroke="#63b8ff" d="M2002.57,-267.47C2005.63,-266.72 2008.67,-265.97 2011.62,-265.25 2075.24,-249.71 2093.75,-245.98 2160.53,-229.74"/>
<polygon fill="#63b8ff" stroke="#63b8ff" points="2161.32,-233.16 2170.21,-227.39 2159.66,-226.35 2161.32,-233.16"/>
</a>
</g>
</g>
<!-- Node7 -->
<g id="Node000007" class="node">
<title>Node7</title>
<g id="a_Node000007"><a xlink:title=" ">
<polygon fill="#e0e0e0" stroke="#999999" points="2530.88,-83.88 2420.38,-83.88 2420.38,-63.12 2530.88,-63.12 2530.88,-83.88"/>
<text text-anchor="middle" x="2475.62" y="-70.38" font-family="Helvetica,sans-Serif" font-size="10.00">mlir/IR/BuiltinOps.h</text>
</a>
</g>
</g>
<!-- Node6&#45;&gt;Node7 -->
<g id="edge6_Node000006_Node000007" class="edge">
<title>Node6&#45;&gt;Node7</title>
<g id="a_edge6_Node000006_Node000007"><a xlink:title=" ">
<path fill="none" stroke="#63b8ff" d="M2379.04,-125.83C2399.79,-114.81 2427.07,-100.3 2447.35,-89.53"/>
<polygon fill="#63b8ff" stroke="#63b8ff" points="2448.72,-92.77 2455.9,-84.98 2445.43,-86.58 2448.72,-92.77"/>
</a>
</g>
</g>
<!-- Node8 -->
<g id="Node000008" class="node">
<title>Node8</title>
<g id="a_Node000008"><a xlink:href="POD_2IR_2Dialect_8h_8inc.html" target="_top" xlink:title=" ">
<polygon fill="white" stroke="#666666" points="2402.38,-90.25 2294.88,-90.25 2294.88,-56.75 2402.38,-56.75 2402.38,-90.25"/>
<text text-anchor="start" x="2302.88" y="-76.75" font-family="Helvetica,sans-Serif" font-size="10.00">llzk/Dialect/POD/IR</text>
<text text-anchor="middle" x="2348.62" y="-64" font-family="Helvetica,sans-Serif" font-size="10.00">/Dialect.h.inc</text>
</a>
</g>
</g>
<!-- Node6&#45;&gt;Node8 -->
<g id="edge7_Node000006_Node000008" class="edge">
<title>Node6&#45;&gt;Node8</title>
<g id="a_edge7_Node000006_Node000008"><a xlink:title=" ">
<path fill="none" stroke="#63b8ff" d="M2348.62,-126C2348.62,-118.77 2348.62,-110.03 2348.62,-101.81"/>
<polygon fill="#63b8ff" stroke="#63b8ff" points="2352.13,-101.9 2348.63,-91.9 2345.13,-101.9 2352.13,-101.9"/>
</a>
</g>
</g>
<!-- Node9&#45;&gt;Node6 -->
<g id="edge13_Node000009_Node000006" class="edge">
<title>Node9&#45;&gt;Node6</title>
<g id="a_edge13_Node000009_Node000006"><a xlink:title=" ">
<path fill="none" stroke="#63b8ff" d="M2379.91,-195.5C2375.21,-187.77 2369.46,-178.3 2364.17,-169.59"/>
<polygon fill="#63b8ff" stroke="#63b8ff" points="2367.24,-167.91 2359.06,-161.18 2361.26,-171.54 2367.24,-167.91"/>
</a>
</g>
</g>
<!-- Node10 -->
<g id="Node000010" class="node">
<title>Node10</title>
<g id="a_Node000010"><a xlink:href="POD_2IR_2Attrs_8h.html" target="_top" xlink:title=" ">
<polygon fill="white" stroke="#666666" points="2655.38,-159.75 2547.88,-159.75 2547.88,-126.25 2655.38,-126.25 2655.38,-159.75"/>
<text text-anchor="start" x="2555.88" y="-146.25" font-family="Helvetica,sans-Serif" font-size="10.00">llzk/Dialect/POD/IR</text>
<text text-anchor="middle" x="2601.62" y="-133.5" font-family="Helvetica,sans-Serif" font-size="10.00">/Attrs.h</text>
</a>
</g>
</g>
<!-- Node9&#45;&gt;Node10 -->
<g id="edge9_Node000009_Node000010" class="edge">
<title>Node9&#45;&gt;Node10</title>
<g id="a_edge9_Node000009_Node000010"><a xlink:title=" ">
<path fill="none" stroke="#63b8ff" d="M2440.4,-195.33C2470.32,-185.81 2508.37,-173.69 2540,-163.62"/>
<polygon fill="#63b8ff" stroke="#63b8ff" points="2540.98,-166.98 2549.45,-160.61 2538.86,-160.31 2540.98,-166.98"/>
</a>
</g>
</g>
<!-- Node9&#45;&gt;Node14 -->
<g id="edge14_Node000009_Node000014" class="edge">
<title>Node9&#45;&gt;Node14</title>
<g id="a_edge14_Node000009_Node000014"><a xlink:title=" ">
<path fill="none" stroke="#63b8ff" d="M2335.5,-198.41C2293.76,-188.31 2235.46,-174.2 2188.68,-162.88"/>
<polygon fill="#63b8ff" stroke="#63b8ff" points="2189.67,-159.52 2179.13,-160.57 2188.03,-166.33 2189.67,-159.52"/>
</a>
</g>
</g>
<!-- Node15 -->
<g id="Node000015" class="node">
<title>Node15</title>
<g id="a_Node000015"><a xlink:href="POD_2IR_2Types_8h_8inc.html" target="_top" xlink:title=" ">
<polygon fill="white" stroke="#666666" points="2528.38,-159.75 2420.88,-159.75 2420.88,-126.25 2528.38,-126.25 2528.38,-159.75"/>
<text text-anchor="start" x="2428.88" y="-146.25" font-family="Helvetica,sans-Serif" font-size="10.00">llzk/Dialect/POD/IR</text>
<text text-anchor="middle" x="2474.62" y="-133.5" font-family="Helvetica,sans-Serif" font-size="10.00">/Types.h.inc</text>
</a>
</g>
</g>
<!-- Node9&#45;&gt;Node15 -->
<g id="edge15_Node000009_Node000015" class="edge">
<title>Node9&#45;&gt;Node15</title>
<g id="a_edge15_Node000009_Node000015"><a xlink:title=" ">
<path fill="none" stroke="#63b8ff" d="M2409.77,-195.5C2420.38,-187.07 2433.6,-176.58 2445.32,-167.27"/>
<polygon fill="#63b8ff" stroke="#63b8ff" points="2447.49,-170.02 2453.15,-161.06 2443.14,-164.53 2447.49,-170.02"/>
</a>
</g>
</g>
<!-- Node11 -->
<g id="Node000011" class="node">
<title>Node11</title>
<g id="a_Node000011"><a xlink:title=" ">
<polygon fill="#e0e0e0" stroke="#999999" points="2782.75,-83.88 2674.5,-83.88 2674.5,-63.12 2782.75,-63.12 2782.75,-83.88"/>
<text text-anchor="middle" x="2728.62" y="-70.38" font-family="Helvetica,sans-Serif" font-size="10.00">mlir/IR/Attributes.h</text>
</a>
</g>
</g>
<!-- Node10&#45;&gt;Node11 -->
<g id="edge10_Node000010_Node000011" class="edge">
<title>Node10&#45;&gt;Node11</title>
<g id="a_edge10_Node000010_Node000011"><a xlink:title=" ">
<path fill="none" stroke="#63b8ff" d="M2632.04,-125.83C2652.79,-114.81 2680.07,-100.3 2700.35,-89.53"/>
<polygon fill="#63b8ff" stroke="#63b8ff" points="2701.72,-92.77 2708.9,-84.98 2698.43,-86.58 2701.72,-92.77"/>
</a>
</g>
</g>
<!-- Node10&#45;&gt;Node12 -->
<g id="edge11_Node000010_Node000012" class="edge">
<title>Node10&#45;&gt;Node12</title>
<g id="a_edge11_Node000010_Node000012"><a xlink:title=" ">
<path fill="none" stroke="#63b8ff" d="M2547.59,-128.3C2544.22,-127.57 2540.88,-126.88 2537.62,-126.25 2426.56,-104.71 2397.14,-109.32 2285.62,-90.25 2278.92,-89.1 2271.91,-87.82 2264.96,-86.5"/>
<polygon fill="#63b8ff" stroke="#63b8ff" points="2265.72,-83.09 2255.24,-84.62 2264.39,-89.96 2265.72,-83.09"/>
</a>
</g>
</g>
<!-- Node13 -->
<g id="Node000013" class="node">
<title>Node13</title>
<g id="a_Node000013"><a xlink:href="POD_2IR_2Attrs_8h_8inc.html" target="_top" xlink:title=" ">
<polygon fill="white" stroke="#666666" points="2656.38,-90.25 2548.88,-90.25 2548.88,-56.75 2656.38,-56.75 2656.38,-90.25"/>
<text text-anchor="start" x="2556.88" y="-76.75" font-family="Helvetica,sans-Serif" font-size="10.00">llzk/Dialect/POD/IR</text>
<text text-anchor="middle" x="2602.62" y="-64" font-family="Helvetica,sans-Serif" font-size="10.00">/Attrs.h.inc</text>
</a>
</g>
</g>
<!-- Node10&#45;&gt;Node13 -->
<g id="edge12_Node000010_Node000013" class="edge">
<title>Node10&#45;&gt;Node13</title>
<g id="a_edge12_Node000010_Node000013"><a xlink:title=" ">
<path fill="none" stroke="#63b8ff" d="M2601.86,-126C2601.97,-118.77 2602.1,-110.03 2602.22,-101.81"/>
<polygon fill="#63b8ff" stroke="#63b8ff" points="2605.72,-101.95 2602.37,-91.9 2598.72,-101.84 2605.72,-101.95"/>
</a>
</g>
</g>
<!-- Node16&#45;&gt;Node3 -->
<g id="edge51_Node000016_Node000003" class="edge">
<title>Node16&#45;&gt;Node3</title>
<g id="a_edge51_Node000016_Node000003"><a xlink:title=" ">
<path fill="none" stroke="#63b8ff" d="M922.47,-211.25C825.74,-209.69 617.48,-201.3 447.62,-159.75 379.68,-143.13 304.75,-108.96 264.7,-89.3"/>
<polygon fill="#63b8ff" stroke="#63b8ff" points="266.46,-86.27 255.95,-84.96 263.35,-92.54 266.46,-86.27"/>
</a>
</g>
</g>
<!-- Node17 -->
<g id="Node000017" class="node">
<title>Node17</title>
<g id="a_Node000017"><a xlink:href="AttributeHelper_8h.html" target="_top" xlink:title=" ">
<polygon fill="white" stroke="#666666" points="1520.88,-159.75 1410.38,-159.75 1410.38,-126.25 1520.88,-126.25 1520.88,-159.75"/>
<text text-anchor="start" x="1418.38" y="-146.25" font-family="Helvetica,sans-Serif" font-size="10.00">llzk/Dialect/LLZK/IR</text>
<text text-anchor="middle" x="1465.62" y="-133.5" font-family="Helvetica,sans-Serif" font-size="10.00">/AttributeHelper.h</text>
</a>
</g>
</g>
<!-- Node16&#45;&gt;Node17 -->
<g id="edge17_Node000016_Node000017" class="edge">
<title>Node16&#45;&gt;Node17</title>
<g id="a_edge17_Node000016_Node000017"><a xlink:title=" ">
<path fill="none" stroke="#63b8ff" d="M1030.59,-206.63C1110.78,-198.98 1266.01,-182.64 1396.62,-159.75 1397.44,-159.61 1398.26,-159.46 1399.09,-159.31"/>
<polygon fill="#63b8ff" stroke="#63b8ff" points="1399.34,-162.83 1408.5,-157.5 1398.02,-155.95 1399.34,-162.83"/>
</a>
</g>
</g>
<!-- Node22 -->
<g id="Node000022" class="node">
<title>Node22</title>
<g id="a_Node000022"><a xlink:href="AffineHelper_8h.html" target="_top" xlink:title=" ">
<polygon fill="white" stroke="#666666" points="1719.38,-153.38 1593.88,-153.38 1593.88,-132.62 1719.38,-132.62 1719.38,-153.38"/>
<text text-anchor="middle" x="1656.62" y="-139.88" font-family="Helvetica,sans-Serif" font-size="10.00">llzk/Util/AffineHelper.h</text>
</a>
</g>
</g>
<!-- Node16&#45;&gt;Node22 -->
<g id="edge22_Node000016_Node000022" class="edge">
<title>Node16&#45;&gt;Node22</title>
<g id="a_edge22_Node000016_Node000022"><a xlink:title=" ">
<path fill="none" stroke="#63b8ff" d="M1030.84,-206.97C1129.96,-198.57 1347.01,-179.61 1529.62,-159.75 1546.75,-157.89 1565.14,-155.71 1582.48,-153.58"/>
<polygon fill="#63b8ff" stroke="#63b8ff" points="1582.69,-157.08 1592.18,-152.37 1581.83,-150.13 1582.69,-157.08"/>
</a>
</g>
</g>
<!-- Node24 -->
<g id="Node000024" class="node">
<title>Node24</title>
<g id="a_Node000024"><a xlink:title=" ">
<polygon fill="#e0e0e0" stroke="#999999" points="1136.75,-20.75 1028.5,-20.75 1028.5,0 1136.75,0 1136.75,-20.75"/>
<text text-anchor="middle" x="1082.62" y="-7.25" font-family="Helvetica,sans-Serif" font-size="10.00">mlir/IR/Operation.h</text>
</a>
</g>
</g>
<!-- Node16&#45;&gt;Node24 -->
<g id="edge50_Node000016_Node000024" class="edge">
<title>Node16&#45;&gt;Node24</title>
<g id="a_edge50_Node000016_Node000024"><a xlink:title=" ">
<path fill="none" stroke="#63b8ff" d="M1030.7,-208.16C1131.98,-201.36 1342.03,-184.43 1363.62,-159.75 1373.43,-148.55 1373.41,-137.47 1363.62,-126.25 1286.38,-37.66 1188.78,-169.11 1101.62,-90.25 1085.66,-75.81 1081.99,-50.5 1081.62,-32.45"/>
<polygon fill="#63b8ff" stroke="#63b8ff" points="1085.12,-32.65 1081.77,-22.6 1078.12,-32.54 1085.12,-32.65"/>
</a>
</g>
</g>
<!-- Node16&#45;&gt;Node28 -->
<g id="edge49_Node000016_Node000028" class="edge">
<title>Node16&#45;&gt;Node28</title>
<g id="a_edge49_Node000016_Node000028"><a xlink:title=" ">
<path fill="none" stroke="#63b8ff" d="M943.17,-195.26C929.52,-186.74 915.19,-174.88 907.62,-159.75 900.97,-146.43 900.88,-139.52 907.62,-126.25 915.71,-110.34 931.24,-98.17 945.72,-89.63"/>
<polygon fill="#63b8ff" stroke="#63b8ff" points="947.04,-92.9 954.14,-85.03 943.68,-86.76 947.04,-92.9"/>
</a>
</g>
</g>
<!-- Node31 -->
<g id="Node000031" class="node">
<title>Node31</title>
<g id="a_Node000031"><a xlink:href="llzk_2Util_2Constants_8h.html" target="_top" xlink:title=" ">
<polygon fill="white" stroke="#666666" points="860.75,-153.38 746.5,-153.38 746.5,-132.62 860.75,-132.62 860.75,-153.38"/>
<text text-anchor="middle" x="803.62" y="-139.88" font-family="Helvetica,sans-Serif" font-size="10.00">llzk/Util/Constants.h</text>
</a>
</g>
</g>
<!-- Node16&#45;&gt;Node31 -->
<g id="edge32_Node000016_Node000031" class="edge">
<title>Node16&#45;&gt;Node31</title>
<g id="a_edge32_Node000016_Node000031"><a xlink:title=" ">
<path fill="none" stroke="#63b8ff" d="M935.19,-195.33C905.98,-183.94 867.26,-168.83 839.39,-157.96"/>
<polygon fill="#63b8ff" stroke="#63b8ff" points="840.92,-154.79 830.33,-154.42 838.37,-161.32 840.92,-154.79"/>
</a>
</g>
</g>
<!-- Node32 -->
<g id="Node000032" class="node">
<title>Node32</title>
<g id="a_Node000032"><a xlink:href="ErrorHelper_8h.html" target="_top" xlink:title=" ">
<polygon fill="white" stroke="#666666" points="434.75,-83.88 314.5,-83.88 314.5,-63.12 434.75,-63.12 434.75,-83.88"/>
<text text-anchor="middle" x="374.62" y="-70.38" font-family="Helvetica,sans-Serif" font-size="10.00">llzk/Util/ErrorHelper.h</text>
</a>
</g>
</g>
<!-- Node16&#45;&gt;Node32 -->
<g id="edge33_Node000016_Node000032" class="edge">
<title>Node16&#45;&gt;Node32</title>
<g id="a_edge33_Node000016_Node000032"><a xlink:title=" ">
<path fill="none" stroke="#63b8ff" d="M922.48,-212.29C835.97,-212.02 662.22,-205.17 523.62,-159.75 474.94,-143.8 424.46,-110.83 396.54,-90.89"/>
<polygon fill="#63b8ff" stroke="#63b8ff" points="398.7,-88.13 388.55,-85.08 394.58,-93.79 398.7,-88.13"/>
</a>
</g>
</g>
<!-- Node38 -->
<g id="Node000038" class="node">
<title>Node38</title>
<g id="a_Node000038"><a xlink:href="TypeHelper_8h.html" target="_top" xlink:title=" ">
<polygon fill="white" stroke="#666666" points="652.38,-153.38 532.88,-153.38 532.88,-132.62 652.38,-132.62 652.38,-153.38"/>
<text text-anchor="middle" x="592.62" y="-139.88" font-family="Helvetica,sans-Serif" font-size="10.00">llzk/Util/TypeHelper.h</text>
</a>
</g>
</g>
<!-- Node16&#45;&gt;Node38 -->
<g id="edge40_Node000016_Node000038" class="edge">
<title>Node16&#45;&gt;Node38</title>
<g id="a_edge40_Node000016_Node000038"><a xlink:title=" ">
<path fill="none" stroke="#63b8ff" d="M922.42,-201.97C853.5,-189.86 734.5,-168.94 659.87,-155.82"/>
<polygon fill="#63b8ff" stroke="#63b8ff" points="660.68,-152.41 650.23,-154.13 659.47,-159.3 660.68,-152.41"/>
</a>
</g>
</g>
<!-- Node41 -->
<g id="Node000041" class="node">
<title>Node41</title>
<g id="a_Node000041"><a xlink:title=" ">
<polygon fill="#e0e0e0" stroke="#999999" points="884.25,-83.88 767,-83.88 767,-63.12 884.25,-63.12 884.25,-83.88"/>
<text text-anchor="middle" x="825.62" y="-70.38" font-family="Helvetica,sans-Serif" font-size="10.00">llvm/ADT/StringRef.h</text>
</a>
</g>
</g>
<!-- Node16&#45;&gt;Node41 -->
<g id="edge54_Node000016_Node000041" class="edge">
<title>Node16&#45;&gt;Node41</title>
<g id="a_edge54_Node000016_Node000041"><a xlink:title=" ">
<path fill="none" stroke="#63b8ff" d="M922.61,-207.52C859.4,-201.6 760.41,-188 737.62,-159.75 728.28,-148.16 730.23,-139.17 737.62,-126.25 747.46,-109.05 765.49,-97 782.68,-88.89"/>
<polygon fill="#63b8ff" stroke="#63b8ff" points="784.02,-92.12 791.8,-84.94 781.24,-85.7 784.02,-92.12"/>
</a>
</g>
</g>
<!-- Node42 -->
<g id="Node000042" class="node">
<title>Node42</title>
<g id="a_Node000042"><a xlink:title=" ">
<polygon fill="#e0e0e0" stroke="#999999" points="1036.38,-153.38 916.88,-153.38 916.88,-132.62 1036.38,-132.62 1036.38,-153.38"/>
<text text-anchor="middle" x="976.62" y="-139.88" font-family="Helvetica,sans-Serif" font-size="10.00">mlir/IR/BuiltinTypes.h</text>
</a>
</g>
</g>
<!-- Node16&#45;&gt;Node42 -->
<g id="edge48_Node000016_Node000042" class="edge">
<title>Node16&#45;&gt;Node42</title>
<g id="a_edge48_Node000016_Node000042"><a xlink:title=" ">
<path fill="none" stroke="#63b8ff" d="M976.62,-195.5C976.62,-186.4 976.62,-174.89 976.62,-165.07"/>
<polygon fill="#63b8ff" stroke="#63b8ff" points="980.13,-165.34 976.63,-155.34 973.13,-165.34 980.13,-165.34"/>
</a>
</g>
</g>
<!-- Node43 -->
<g id="Node000043" class="node">
<title>Node43</title>
<g id="a_Node000043"><a xlink:title=" ">
<polygon fill="#e0e0e0" stroke="#999999" points="1207.25,-153.38 1054,-153.38 1054,-132.62 1207.25,-132.62 1207.25,-153.38"/>
<text text-anchor="middle" x="1130.62" y="-139.88" font-family="Helvetica,sans-Serif" font-size="10.00">mlir/Support/LogicalResult.h</text>
</a>
</g>
</g>
<!-- Node16&#45;&gt;Node43 -->
<g id="edge52_Node000016_Node000043" class="edge">
<title>Node16&#45;&gt;Node43</title>
<g id="a_edge52_Node000016_Node000043"><a xlink:title=" ">
<path fill="none" stroke="#63b8ff" d="M1013.51,-195.33C1039.25,-184.05 1073.27,-169.14 1098.02,-158.29"/>
<polygon fill="#63b8ff" stroke="#63b8ff" points="1099.19,-161.6 1106.95,-154.38 1096.38,-155.19 1099.19,-161.6"/>
</a>
</g>
</g>
<!-- Node44 -->
<g id="Node000044" class="node">
<title>Node44</title>
<g id="a_Node000044"><a xlink:title=" ">
<polygon fill="#e0e0e0" stroke="#999999" points="1354.25,-153.38 1225,-153.38 1225,-132.62 1354.25,-132.62 1354.25,-153.38"/>
<text text-anchor="middle" x="1289.62" y="-139.88" font-family="Helvetica,sans-Serif" font-size="10.00">llvm/ADT/SmallString.h</text>
</a>
</g>
</g>
<!-- Node16&#45;&gt;Node44 -->
<g id="edge53_Node000016_Node000044" class="edge">
<title>Node16&#45;&gt;Node44</title>
<g id="a_edge53_Node000016_Node000044"><a xlink:title=" ">
<path fill="none" stroke="#63b8ff" d="M1030.48,-199.89C1079.12,-189.4 1152.67,-173.54 1216.62,-159.75 1221.89,-158.61 1227.37,-157.43 1232.86,-156.25"/>
<polygon fill="#63b8ff" stroke="#63b8ff" points="1233.55,-159.68 1242.58,-154.15 1232.07,-152.84 1233.55,-159.68"/>
</a>
</g>
</g>
<!-- Node18 -->
<g id="Node000018" class="node">
<title>Node18</title>
<g id="a_Node000018"><a xlink:href="StreamHelper_8h.html" target="_top" xlink:title=" ">
<polygon fill="white" stroke="#666666" points="1550.75,-83.88 1418.5,-83.88 1418.5,-63.12 1550.75,-63.12 1550.75,-83.88"/>
<text text-anchor="middle" x="1484.62" y="-70.38" font-family="Helvetica,sans-Serif" font-size="10.00">llzk/Util/StreamHelper.h</text>
</a>
</g>
</g>
<!-- Node17&#45;&gt;Node18 -->
<g id="edge18_Node000017_Node000018" class="edge">
<title>Node17&#45;&gt;Node18</title>
<g id="a_edge18_Node000017_Node000018"><a xlink:title=" ">
<path fill="none" stroke="#63b8ff" d="M1470.13,-126C1472.72,-116.8 1476,-105.14 1478.79,-95.24"/>
<polygon fill="#63b8ff" stroke="#63b8ff" points="1482.11,-96.35 1481.45,-85.78 1475.37,-94.46 1482.11,-96.35"/>
</a>
</g>
</g>
<!-- Node20 -->
<g id="Node000020" class="node">
<title>Node20</title>
<g id="a_Node000020"><a xlink:title=" ">
<polygon fill="#e0e0e0" stroke="#999999" points="1400,-83.88 1227.25,-83.88 1227.25,-63.12 1400,-63.12 1400,-83.88"/>
<text text-anchor="middle" x="1313.62" y="-70.38" font-family="Helvetica,sans-Serif" font-size="10.00">mlir/IR/DialectImplementation.h</text>
</a>
</g>
</g>
<!-- Node17&#45;&gt;Node20 -->
<g id="edge20_Node000017_Node000020" class="edge">
<title>Node17&#45;&gt;Node20</title>
<g id="a_edge20_Node000017_Node000020"><a xlink:title=" ">
<path fill="none" stroke="#63b8ff" d="M1429.22,-125.83C1403.93,-114.6 1370.53,-99.77 1346.14,-88.94"/>
<polygon fill="#63b8ff" stroke="#63b8ff" points="1347.57,-85.75 1337.01,-84.89 1344.73,-92.14 1347.57,-85.75"/>
</a>
</g>
</g>
<!-- Node21 -->
<g id="Node000021" class="node">
<title>Node21</title>
<g id="a_Node000021"><a xlink:title=" ">
<polygon fill="#e0e0e0" stroke="#999999" points="1208.88,-83.88 1110.38,-83.88 1110.38,-63.12 1208.88,-63.12 1208.88,-83.88"/>
<text text-anchor="middle" x="1159.62" y="-70.38" font-family="Helvetica,sans-Serif" font-size="10.00">llvm/ADT/APInt.h</text>
</a>
</g>
</g>
<!-- Node17&#45;&gt;Node21 -->
<g id="edge21_Node000017_Node000021" class="edge">
<title>Node17&#45;&gt;Node21</title>
<g id="a_edge21_Node000017_Node000021"><a xlink:title=" ">
<path fill="none" stroke="#63b8ff" d="M1409.92,-129.16C1405.42,-128.16 1400.95,-127.18 1396.62,-126.25 1317.72,-109.27 1297.21,-108.67 1218.62,-90.25 1214.57,-89.3 1210.36,-88.27 1206.16,-87.21"/>
<polygon fill="#63b8ff" stroke="#63b8ff" points="1207.13,-83.84 1196.57,-84.73 1205.37,-90.62 1207.13,-83.84"/>
</a>
</g>
</g>
<!-- Node19 -->
<g id="Node000019" class="node">
<title>Node19</title>
<g id="a_Node000019"><a xlink:title=" ">
<polygon fill="#e0e0e0" stroke="#999999" points="1561.62,-20.75 1407.62,-20.75 1407.62,0 1561.62,0 1561.62,-20.75"/>
<text text-anchor="middle" x="1484.62" y="-7.25" font-family="Helvetica,sans-Serif" font-size="10.00">llvm/Support/raw_ostream.h</text>
</a>
</g>
</g>
<!-- Node18&#45;&gt;Node19 -->
<g id="edge19_Node000018_Node000019" class="edge">
<title>Node18&#45;&gt;Node19</title>
<g id="a_edge19_Node000018_Node000019"><a xlink:title=" ">
<path fill="none" stroke="#63b8ff" d="M1484.62,-62.68C1484.62,-54.52 1484.62,-42.63 1484.62,-32.35"/>
<polygon fill="#63b8ff" stroke="#63b8ff" points="1488.13,-32.48 1484.63,-22.48 1481.13,-32.48 1488.13,-32.48"/>
</a>
</g>
</g>
<!-- Node23 -->
<g id="Node000023" class="node">
<title>Node23</title>
<g id="a_Node000023"><a xlink:href="Compare_8h.html" target="_top" xlink:title=" ">
<polygon fill="white" stroke="#666666" points="2118.5,-83.88 2008.75,-83.88 2008.75,-63.12 2118.5,-63.12 2118.5,-83.88"/>
<text text-anchor="middle" x="2063.62" y="-70.38" font-family="Helvetica,sans-Serif" font-size="10.00">llzk/Util/Compare.h</text>
</a>
</g>
</g>
<!-- Node22&#45;&gt;Node23 -->
<g id="edge23_Node000022_Node000023" class="edge">
<title>Node22&#45;&gt;Node23</title>
<g id="a_edge23_Node000022_Node000023"><a xlink:title=" ">
<path fill="none" stroke="#63b8ff" d="M1719.83,-134.23C1788.88,-125.33 1902.59,-109.47 1999.62,-90.25 2004.62,-89.26 2009.82,-88.14 2014.99,-86.96"/>
<polygon fill="#63b8ff" stroke="#63b8ff" points="2015.78,-90.37 2024.72,-84.67 2014.18,-83.56 2015.78,-90.37"/>
</a>
</g>
</g>
<!-- Node22&#45;&gt;Node24 -->
<g id="edge29_Node000022_Node000024" class="edge">
<title>Node22&#45;&gt;Node24</title>
<g id="a_edge29_Node000022_Node000024"><a xlink:title=" ">
<path fill="none" stroke="#63b8ff" d="M1645.74,-132.47C1633.9,-122.09 1614.41,-105.01 1597.62,-90.25 1580.72,-75.38 1580.29,-65.7 1559.62,-56.75 1487.39,-25.47 1261.27,-15.64 1148.27,-12.64"/>
<polygon fill="#63b8ff" stroke="#63b8ff" points="1148.64,-9.15 1138.55,-12.39 1148.46,-16.15 1148.64,-9.15"/>
</a>
</g>
</g>
<!-- Node27 -->
<g id="Node000027" class="node">
<title>Node27</title>
<g id="a_Node000027"><a xlink:title=" ">
<polygon fill="#e0e0e0" stroke="#999999" points="1706.62,-83.88 1606.62,-83.88 1606.62,-63.12 1706.62,-63.12 1706.62,-83.88"/>
<text text-anchor="middle" x="1656.62" y="-70.38" font-family="Helvetica,sans-Serif" font-size="10.00">mlir/IR/Builders.h</text>
</a>
</g>
</g>
<!-- Node22&#45;&gt;Node27 -->
<g id="edge27_Node000022_Node000027" class="edge">
<title>Node22&#45;&gt;Node27</title>
<g id="a_edge27_Node000022_Node000027"><a xlink:title=" ">
<path fill="none" stroke="#63b8ff" d="M1656.62,-132.33C1656.62,-122.71 1656.62,-107.63 1656.62,-95.29"/>
<polygon fill="#63b8ff" stroke="#63b8ff" points="1660.13,-95.67 1656.63,-85.67 1653.13,-95.67 1660.13,-95.67"/>
</a>
</g>
</g>
<!-- Node22&#45;&gt;Node28 -->
<g id="edge28_Node000022_Node000028" class="edge">
<title>Node22&#45;&gt;Node28</title>
<g id="a_edge28_Node000022_Node000028"><a xlink:title=" ">
<path fill="none" stroke="#63b8ff" d="M1593.7,-133.7C1573.28,-131.14 1550.51,-128.42 1529.62,-126.25 1339.76,-106.5 1291.45,-110.38 1101.62,-90.25 1089.04,-88.92 1075.75,-87.36 1062.74,-85.76"/>
<polygon fill="#63b8ff" stroke="#63b8ff" points="1063.27,-82.3 1052.91,-84.54 1062.4,-89.25 1063.27,-82.3"/>
</a>
</g>
</g>
<!-- Node29 -->
<g id="Node000029" class="node">
<title>Node29</title>
<g id="a_Node000029"><a xlink:title=" ">
<polygon fill="#e0e0e0" stroke="#999999" points="1842.62,-83.88 1724.62,-83.88 1724.62,-63.12 1842.62,-63.12 1842.62,-83.88"/>
<text text-anchor="middle" x="1783.62" y="-70.38" font-family="Helvetica,sans-Serif" font-size="10.00">mlir/IR/ValueRange.h</text>
</a>
</g>
</g>
<!-- Node22&#45;&gt;Node29 -->
<g id="edge30_Node000022_Node000029" class="edge">
<title>Node22&#45;&gt;Node29</title>
<g id="a_edge30_Node000022_Node000029"><a xlink:title=" ">
<path fill="none" stroke="#63b8ff" d="M1675.09,-132.18C1696.07,-121.04 1730.55,-102.71 1755.01,-89.71"/>
<polygon fill="#63b8ff" stroke="#63b8ff" points="1756.61,-92.82 1763.8,-85.04 1753.33,-86.64 1756.61,-92.82"/>
</a>
</g>
</g>
<!-- Node30 -->
<g id="Node000030" class="node">
<title>Node30</title>
<g id="a_Node000030"><a xlink:title=" ">
<polygon fill="#e0e0e0" stroke="#999999" points="1991,-83.88 1860.25,-83.88 1860.25,-63.12 1991,-63.12 1991,-83.88"/>
<text text-anchor="middle" x="1925.62" y="-70.38" font-family="Helvetica,sans-Serif" font-size="10.00">llvm/ADT/SmallVector.h</text>
</a>
</g>
</g>
<!-- Node22&#45;&gt;Node30 -->
<g id="edge31_Node000022_Node000030" class="edge">
<title>Node22&#45;&gt;Node30</title>
<g id="a_edge31_Node000022_Node000030"><a xlink:title=" ">
<path fill="none" stroke="#63b8ff" d="M1695.74,-132.18C1743.25,-120.26 1823.49,-100.13 1875.49,-87.08"/>
<polygon fill="#63b8ff" stroke="#63b8ff" points="1876.15,-90.52 1884.99,-84.7 1874.44,-83.73 1876.15,-90.52"/>
</a>
</g>
</g>
<!-- Node23&#45;&gt;Node24 -->
<g id="edge24_Node000023_Node000024" class="edge">
<title>Node23&#45;&gt;Node24</title>
<g id="a_edge24_Node000023_Node000024"><a xlink:title=" ">
<path fill="none" stroke="#63b8ff" d="M2028.99,-62.69C2019.54,-60.37 2009.25,-58.16 1999.62,-56.75 1916.22,-44.54 1344.53,-21.53 1148.46,-13.9"/>
<polygon fill="#63b8ff" stroke="#63b8ff" points="1148.83,-10.41 1138.71,-13.52 1148.56,-17.41 1148.83,-10.41"/>
</a>
</g>
</g>
<!-- Node25 -->
<g id="Node000025" class="node">
<title>Node25</title>
<g id="a_Node000025"><a xlink:title=" ">
<polygon fill="#e0e0e0" stroke="#999999" points="2128.38,-20.75 2068.88,-20.75 2068.88,0 2128.38,0 2128.38,-20.75"/>
<text text-anchor="middle" x="2098.62" y="-7.25" font-family="Helvetica,sans-Serif" font-size="10.00">concepts</text>
</a>
</g>
</g>
<!-- Node23&#45;&gt;Node25 -->
<g id="edge25_Node000023_Node000025" class="edge">
<title>Node23&#45;&gt;Node25</title>
<g id="a_edge25_Node000023_Node000025"><a xlink:title=" ">
<path fill="none" stroke="#63b8ff" d="M2069.25,-62.68C2074.18,-54.07 2081.48,-41.31 2087.58,-30.67"/>
<polygon fill="#63b8ff" stroke="#63b8ff" points="2090.45,-32.7 2092.38,-22.28 2084.37,-29.22 2090.45,-32.7"/>
</a>
</g>
</g>
<!-- Node26 -->
<g id="Node000026" class="node">
<title>Node26</title>
<g id="a_Node000026"><a xlink:title=" ">
<polygon fill="#e0e0e0" stroke="#999999" points="2050.88,-20.75 2006.38,-20.75 2006.38,0 2050.88,0 2050.88,-20.75"/>
<text text-anchor="middle" x="2028.62" y="-7.25" font-family="Helvetica,sans-Serif" font-size="10.00">utility</text>
</a>
</g>
</g>
<!-- Node23&#45;&gt;Node26 -->
<g id="edge26_Node000023_Node000026" class="edge">
<title>Node23&#45;&gt;Node26</title>
<g id="a_edge26_Node000023_Node000026"><a xlink:title=" ">
<path fill="none" stroke="#63b8ff" d="M2058,-62.68C2053.07,-54.07 2045.77,-41.31 2039.67,-30.67"/>
<polygon fill="#63b8ff" stroke="#63b8ff" points="2042.88,-29.22 2034.87,-22.28 2036.8,-32.7 2042.88,-29.22"/>
</a>
</g>
</g>
<!-- Node32&#45;&gt;Node24 -->
<g id="edge35_Node000032_Node000024" class="edge">
<title>Node32&#45;&gt;Node24</title>
<g id="a_edge35_Node000032_Node000024"><a xlink:title=" ">
<path fill="none" stroke="#63b8ff" d="M413.31,-62.71C423.44,-60.44 434.4,-58.26 444.62,-56.75 652,-26.22 900.44,-16.04 1016.63,-12.8"/>
<polygon fill="#63b8ff" stroke="#63b8ff" points="1016.72,-16.3 1026.62,-12.53 1016.53,-9.31 1016.72,-16.3"/>
</a>
</g>
</g>
<!-- Node33 -->
<g id="Node000033" class="node">
<title>Node33</title>
<g id="a_Node000033"><a xlink:title=" ">
<polygon fill="#e0e0e0" stroke="#999999" points="117.25,-20.75 0,-20.75 0,0 117.25,0 117.25,-20.75"/>
<text text-anchor="middle" x="58.62" y="-7.25" font-family="Helvetica,sans-Serif" font-size="10.00">mlir/IR/Diagnostics.h</text>
</a>
</g>
</g>
<!-- Node32&#45;&gt;Node33 -->
<g id="edge34_Node000032_Node000033" class="edge">
<title>Node32&#45;&gt;Node33</title>
<g id="a_edge34_Node000032_Node000033"><a xlink:title=" ">
<path fill="none" stroke="#63b8ff" d="M332.73,-62.63C323.8,-60.62 314.41,-58.56 305.62,-56.75 245.6,-44.39 177.04,-31.93 127.4,-23.2"/>
<polygon fill="#63b8ff" stroke="#63b8ff" points="128.1,-19.77 117.65,-21.49 126.89,-26.66 128.1,-19.77"/>
</a>
</g>
</g>
<!-- Node34 -->
<g id="Node000034" class="node">
<title>Node34</title>
<g id="a_Node000034"><a xlink:title=" ">
<polygon fill="#e0e0e0" stroke="#999999" points="306.25,-20.75 135,-20.75 135,0 306.25,0 306.25,-20.75"/>
<text text-anchor="middle" x="220.62" y="-7.25" font-family="Helvetica,sans-Serif" font-size="10.00">llvm/ADT/STLFunctionalExtras.h</text>
</a>
</g>
</g>
<!-- Node32&#45;&gt;Node34 -->
<g id="edge36_Node000032_Node000034" class="edge">
<title>Node32&#45;&gt;Node34</title>
<g id="a_edge36_Node000032_Node000034"><a xlink:title=" ">
<path fill="none" stroke="#63b8ff" d="M349.88,-62.68C324.4,-52.56 284.46,-36.71 255.72,-25.3"/>
<polygon fill="#63b8ff" stroke="#63b8ff" points="257.3,-22.17 246.71,-21.73 254.72,-28.67 257.3,-22.17"/>
</a>
</g>
</g>
<!-- Node35 -->
<g id="Node000035" class="node">
<title>Node35</title>
<g id="a_Node000035"><a xlink:title=" ">
<polygon fill="#e0e0e0" stroke="#999999" points="425,-20.75 324.25,-20.75 324.25,0 425,0 425,-20.75"/>
<text text-anchor="middle" x="374.62" y="-7.25" font-family="Helvetica,sans-Serif" font-size="10.00">llvm/ADT/Twine.h</text>
</a>
</g>
</g>
<!-- Node32&#45;&gt;Node35 -->
<g id="edge37_Node000032_Node000035" class="edge">
<title>Node32&#45;&gt;Node35</title>
<g id="a_edge37_Node000032_Node000035"><a xlink:title=" ">
<path fill="none" stroke="#63b8ff" d="M374.62,-62.68C374.62,-54.52 374.62,-42.63 374.62,-32.35"/>
<polygon fill="#63b8ff" stroke="#63b8ff" points="378.13,-32.48 374.63,-22.48 371.13,-32.48 378.13,-32.48"/>
</a>
</g>
</g>
<!-- Node36 -->
<g id="Node000036" class="node">
<title>Node36</title>
<g id="a_Node000036"><a xlink:title=" ">
<polygon fill="#e0e0e0" stroke="#999999" points="600.12,-20.75 443.12,-20.75 443.12,0 600.12,0 600.12,-20.75"/>
<text text-anchor="middle" x="521.62" y="-7.25" font-family="Helvetica,sans-Serif" font-size="10.00">llvm/Support/ErrorHandling.h</text>
</a>
</g>
</g>
<!-- Node32&#45;&gt;Node36 -->
<g id="edge38_Node000032_Node000036" class="edge">
<title>Node32&#45;&gt;Node36</title>
<g id="a_edge38_Node000032_Node000036"><a xlink:title=" ">
<path fill="none" stroke="#63b8ff" d="M398.24,-62.68C422.46,-52.61 460.36,-36.85 487.76,-25.46"/>
<polygon fill="#63b8ff" stroke="#63b8ff" points="488.78,-28.82 496.67,-21.75 486.09,-22.36 488.78,-28.82"/>
</a>
</g>
</g>
<!-- Node37 -->
<g id="Node000037" class="node">
<title>Node37</title>
<g id="a_Node000037"><a xlink:title=" ">
<polygon fill="#e0e0e0" stroke="#999999" points="668.88,-20.75 618.38,-20.75 618.38,0 668.88,0 668.88,-20.75"/>
<text text-anchor="middle" x="643.62" y="-7.25" font-family="Helvetica,sans-Serif" font-size="10.00">variant</text>
</a>
</g>
</g>
<!-- Node32&#45;&gt;Node37 -->
<g id="edge39_Node000032_Node000037" class="edge">
<title>Node32&#45;&gt;Node37</title>
<g id="a_edge39_Node000032_Node000037"><a xlink:title=" ">
<path fill="none" stroke="#63b8ff" d="M418.3,-62.63C427.02,-60.67 436.11,-58.64 444.62,-56.75 514.47,-41.27 534.87,-38.93 607.01,-21.3"/>
<polygon fill="#63b8ff" stroke="#63b8ff" points="607.7,-24.74 616.57,-18.95 606.03,-17.94 607.7,-24.74"/>
</a>
</g>
</g>
<!-- Node38&#45;&gt;Node3 -->
<g id="edge44_Node000038_Node000003" class="edge">
<title>Node38&#45;&gt;Node3</title>
<g id="a_edge44_Node000038_Node000003"><a xlink:title=" ">
<path fill="none" stroke="#63b8ff" d="M533.67,-132.13C475.55,-122.22 384.28,-106.18 305.62,-90.25 300.33,-89.18 294.83,-88.02 289.33,-86.83"/>
<polygon fill="#63b8ff" stroke="#63b8ff" points="290.13,-83.42 279.61,-84.7 288.63,-90.26 290.13,-83.42"/>
</a>
</g>
</g>
<!-- Node38&#45;&gt;Node24 -->
<g id="edge43_Node000038_Node000024" class="edge">
<title>Node38&#45;&gt;Node24</title>
<g id="a_edge43_Node000038_Node000024"><a xlink:title=" ">
<path fill="none" stroke="#63b8ff" d="M593.23,-132.14C594.94,-113.93 601.37,-75.2 625.62,-56.75 656.06,-33.6 897.57,-19.66 1016.67,-14.13"/>
<polygon fill="#63b8ff" stroke="#63b8ff" points="1016.81,-17.63 1026.64,-13.68 1016.49,-10.64 1016.81,-17.63"/>
</a>
</g>
</g>
<!-- Node38&#45;&gt;Node28 -->
<g id="edge42_Node000038_Node000028" class="edge">
<title>Node38&#45;&gt;Node28</title>
<g id="a_edge42_Node000038_Node000028"><a xlink:title=" ">
<path fill="none" stroke="#63b8ff" d="M637.16,-132.13C646.85,-130.09 657.07,-128.02 666.62,-126.25 767.06,-107.61 792.95,-107.56 893.62,-90.25 900.8,-89.02 908.3,-87.69 915.75,-86.34"/>
<polygon fill="#63b8ff" stroke="#63b8ff" points="916.27,-89.8 925.48,-84.56 915.02,-82.92 916.27,-89.8"/>
</a>
</g>
</g>
<!-- Node38&#45;&gt;Node32 -->
<g id="edge41_Node000038_Node000032" class="edge">
<title>Node38&#45;&gt;Node32</title>
<g id="a_edge41_Node000038_Node000032"><a xlink:title=" ">
<path fill="none" stroke="#63b8ff" d="M560.93,-132.18C522.99,-120.44 459.3,-100.72 417.12,-87.66"/>
<polygon fill="#63b8ff" stroke="#63b8ff" points="418.4,-84.39 407.81,-84.77 416.33,-91.08 418.4,-84.39"/>
</a>
</g>
</g>
<!-- Node39 -->
<g id="Node000039" class="node">
<title>Node39</title>
<g id="a_Node000039"><a xlink:title=" ">
<polygon fill="#e0e0e0" stroke="#999999" points="749.12,-83.88 634.12,-83.88 634.12,-63.12 749.12,-63.12 749.12,-83.88"/>
<text text-anchor="middle" x="691.62" y="-70.38" font-family="Helvetica,sans-Serif" font-size="10.00">llvm/ADT/ArrayRef.h</text>
</a>
</g>
</g>
<!-- Node38&#45;&gt;Node39 -->
<g id="edge45_Node000038_Node000039" class="edge">
<title>Node38&#45;&gt;Node39</title>
<g id="a_edge45_Node000038_Node000039"><a xlink:title=" ">
<path fill="none" stroke="#63b8ff" d="M606.81,-132.33C622.67,-121.51 648.63,-103.82 667.66,-90.84"/>
<polygon fill="#63b8ff" stroke="#63b8ff" points="669.6,-93.75 675.89,-85.23 665.66,-87.97 669.6,-93.75"/>
</a>
</g>
</g>
<!-- Node40 -->
<g id="Node000040" class="node">
<title>Node40</title>
<g id="a_Node000040"><a xlink:title=" ">
<polygon fill="#e0e0e0" stroke="#999999" points="578,-83.88 453.25,-83.88 453.25,-63.12 578,-63.12 578,-83.88"/>
<text text-anchor="middle" x="515.62" y="-70.38" font-family="Helvetica,sans-Serif" font-size="10.00">llvm/ADT/DenseMap.h</text>
</a>
</g>
</g>
<!-- Node38&#45;&gt;Node40 -->
<g id="edge46_Node000038_Node000040" class="edge">
<title>Node38&#45;&gt;Node40</title>
<g id="a_edge46_Node000038_Node000040"><a xlink:title=" ">
<path fill="none" stroke="#63b8ff" d="M581.59,-132.33C569.54,-121.76 549.99,-104.63 535.3,-91.75"/>
<polygon fill="#63b8ff" stroke="#63b8ff" points="537.85,-89.33 528.03,-85.37 533.24,-94.59 537.85,-89.33"/>
</a>
</g>
</g>
<!-- Node38&#45;&gt;Node41 -->
<g id="edge47_Node000038_Node000041" class="edge">
<title>Node38&#45;&gt;Node41</title>
<g id="a_edge47_Node000038_Node000041"><a xlink:title=" ">
<path fill="none" stroke="#63b8ff" d="M626.51,-132.18C667.23,-120.39 735.7,-100.55 780.78,-87.49"/>
<polygon fill="#63b8ff" stroke="#63b8ff" points="781.62,-90.89 790.25,-84.75 779.67,-84.17 781.62,-90.89"/>
</a>
</g>
</g>
</g>
</svg>
