<?xml version="1.0" encoding="UTF-8" standalone="no"?>
<!DOCTYPE svg PUBLIC "-//W3C//DTD SVG 1.1//EN"
 "http://www.w3.org/Graphics/SVG/1.1/DTD/svg11.dtd">
<!-- Generated by graphviz version 12.2.1 (0)
 -->
<!-- Title: include/llzk/Analysis/SymbolUseGraph.h Pages: 1 -->
<svg width="1487pt" height="155pt"
 viewBox="0.00 0.00 1486.50 155.00" xmlns="http://www.w3.org/2000/svg" xmlns:xlink="http://www.w3.org/1999/xlink">
<g id="graph0" class="graph" transform="scale(1 1) rotate(0) translate(4 151)">
<title>include/llzk/Analysis/SymbolUseGraph.h</title>
<!-- Node1 -->
<g id="Node000001" class="node">
<title>Node1</title>
<g id="a_Node000001"><a xlink:title=" ">
<polygon fill="#999999" stroke="#666666" points="943.12,-147 827.38,-147 827.38,-113.5 943.12,-113.5 943.12,-147"/>
<text text-anchor="start" x="835.38" y="-133.5" font-family="Helvetica,sans-Serif" font-size="10.00">include/llzk/Analysis</text>
<text text-anchor="middle" x="885.25" y="-120.75" font-family="Helvetica,sans-Serif" font-size="10.00">/SymbolUseGraph.h</text>
</a>
</g>
</g>
<!-- Node2 -->
<g id="Node000002" class="node">
<title>Node2</title>
<g id="a_Node000002"><a xlink:href="SymbolLookup_8h.html" target="_top" xlink:title="This file defines methods symbol lookup across LLZK operations and included files.">
<polygon fill="white" stroke="#666666" points="517.62,-77.5 380.88,-77.5 380.88,-56.75 517.62,-56.75 517.62,-77.5"/>
<text text-anchor="middle" x="449.25" y="-64" font-family="Helvetica,sans-Serif" font-size="10.00">llzk/Util/SymbolLookup.h</text>
</a>
</g>
</g>
<!-- Node1&#45;&gt;Node2 -->
<g id="edge1_Node000001_Node000002" class="edge">
<title>Node1&#45;&gt;Node2</title>
<g id="a_edge1_Node000001_Node000002"><a xlink:title=" ">
<path fill="none" stroke="#63b8ff" d="M826.9,-121.07C750.29,-110.33 615.43,-91.42 529.32,-79.35"/>
<polygon fill="#63b8ff" stroke="#63b8ff" points="529.91,-75.9 519.52,-77.98 528.94,-82.83 529.91,-75.9"/>
</a>
</g>
</g>
<!-- Node4 -->
<g id="Node000004" class="node">
<title>Node4</title>
<g id="a_Node000004"><a xlink:title=" ">
<polygon fill="#e0e0e0" stroke="#999999" points="110.5,-20.75 0,-20.75 0,0 110.5,0 110.5,-20.75"/>
<text text-anchor="middle" x="55.25" y="-7.25" font-family="Helvetica,sans-Serif" font-size="10.00">mlir/IR/BuiltinOps.h</text>
</a>
</g>
</g>
<!-- Node1&#45;&gt;Node4 -->
<g id="edge10_Node000001_Node000004" class="edge">
<title>Node1&#45;&gt;Node4</title>
<g id="a_edge10_Node000001_Node000004"><a xlink:title=" ">
<path fill="none" stroke="#63b8ff" d="M826.91,-125.37C731.47,-118.58 536.14,-102.79 372.25,-77.5 277.84,-62.93 169.1,-38.57 106.64,-23.83"/>
<polygon fill="#63b8ff" stroke="#63b8ff" points="107.55,-20.45 97.01,-21.55 105.93,-27.26 107.55,-20.45"/>
</a>
</g>
</g>
<!-- Node11 -->
<g id="Node000011" class="node">
<title>Node11</title>
<g id="a_Node000011"><a xlink:title=" ">
<polygon fill="#e0e0e0" stroke="#999999" points="658.5,-77.5 536,-77.5 536,-56.75 658.5,-56.75 658.5,-77.5"/>
<text text-anchor="middle" x="597.25" y="-64" font-family="Helvetica,sans-Serif" font-size="10.00">mlir/IR/SymbolTable.h</text>
</a>
</g>
</g>
<!-- Node1&#45;&gt;Node11 -->
<g id="edge11_Node000001_Node000011" class="edge">
<title>Node1&#45;&gt;Node11</title>
<g id="a_edge11_Node000001_Node000011"><a xlink:title=" ">
<path fill="none" stroke="#63b8ff" d="M826.97,-116.88C776.8,-106.23 704.81,-90.95 654.84,-80.35"/>
<polygon fill="#63b8ff" stroke="#63b8ff" points="655.58,-76.93 645.07,-78.27 654.12,-83.77 655.58,-76.93"/>
</a>
</g>
</g>
<!-- Node12 -->
<g id="Node000012" class="node">
<title>Node12</title>
<g id="a_Node000012"><a xlink:title=" ">
<polygon fill="#e0e0e0" stroke="#999999" points="805.5,-77.5 677,-77.5 677,-56.75 805.5,-56.75 805.5,-77.5"/>
<text text-anchor="middle" x="741.25" y="-64" font-family="Helvetica,sans-Serif" font-size="10.00">llvm/ADT/GraphTraits.h</text>
</a>
</g>
</g>
<!-- Node1&#45;&gt;Node12 -->
<g id="edge12_Node000001_Node000012" class="edge">
<title>Node1&#45;&gt;Node12</title>
<g id="a_edge12_Node000001_Node000012"><a xlink:title=" ">
<path fill="none" stroke="#63b8ff" d="M847.04,-113.03C824.51,-103.47 796.28,-91.49 774.65,-82.3"/>
<polygon fill="#63b8ff" stroke="#63b8ff" points="776.28,-79.19 765.71,-78.51 773.54,-85.64 776.28,-79.19"/>
</a>
</g>
</g>
<!-- Node13 -->
<g id="Node000013" class="node">
<title>Node13</title>
<g id="a_Node000013"><a xlink:title=" ">
<polygon fill="#e0e0e0" stroke="#999999" points="947.25,-77.5 823.25,-77.5 823.25,-56.75 947.25,-56.75 947.25,-77.5"/>
<text text-anchor="middle" x="885.25" y="-64" font-family="Helvetica,sans-Serif" font-size="10.00">llvm/ADT/MapVector.h</text>
</a>
</g>
</g>
<!-- Node1&#45;&gt;Node13 -->
<g id="edge13_Node000001_Node000013" class="edge">
<title>Node1&#45;&gt;Node13</title>
<g id="a_edge13_Node000001_Node000013"><a xlink:title=" ">
<path fill="none" stroke="#63b8ff" d="M885.25,-113.19C885.25,-105.85 885.25,-97.07 885.25,-89.21"/>
<polygon fill="#63b8ff" stroke="#63b8ff" points="888.75,-89.48 885.25,-79.48 881.75,-89.48 888.75,-89.48"/>
</a>
</g>
</g>
<!-- Node14 -->
<g id="Node000014" class="node">
<title>Node14</title>
<g id="a_Node000014"><a xlink:title=" ">
<polygon fill="#e0e0e0" stroke="#999999" points="1083.62,-77.5 964.88,-77.5 964.88,-56.75 1083.62,-56.75 1083.62,-77.5"/>
<text text-anchor="middle" x="1024.25" y="-64" font-family="Helvetica,sans-Serif" font-size="10.00">llvm/ADT/SetVector.h</text>
</a>
</g>
</g>
<!-- Node1&#45;&gt;Node14 -->
<g id="edge14_Node000001_Node000014" class="edge">
<title>Node1&#45;&gt;Node14</title>
<g id="a_edge14_Node000001_Node000014"><a xlink:title=" ">
<path fill="none" stroke="#63b8ff" d="M922.13,-113.03C943.78,-103.51 970.88,-91.6 991.72,-82.43"/>
<polygon fill="#63b8ff" stroke="#63b8ff" points="992.86,-85.75 1000.6,-78.52 990.04,-79.35 992.86,-85.75"/>
</a>
</g>
</g>
<!-- Node15 -->
<g id="Node000015" class="node">
<title>Node15</title>
<g id="a_Node000015"><a xlink:title=" ">
<polygon fill="#e0e0e0" stroke="#999999" points="1231.25,-77.5 1101.25,-77.5 1101.25,-56.75 1231.25,-56.75 1231.25,-77.5"/>
<text text-anchor="middle" x="1166.25" y="-64" font-family="Helvetica,sans-Serif" font-size="10.00">llvm/ADT/SmallPtrSet.h</text>
</a>
</g>
</g>
<!-- Node1&#45;&gt;Node15 -->
<g id="edge15_Node000001_Node000015" class="edge">
<title>Node1&#45;&gt;Node15</title>
<g id="a_edge15_Node000001_Node000015"><a xlink:title=" ">
<path fill="none" stroke="#63b8ff" d="M943.47,-116.58C992.29,-105.97 1061.56,-90.9 1109.85,-80.39"/>
<polygon fill="#63b8ff" stroke="#63b8ff" points="1110.54,-83.83 1119.57,-78.28 1109.05,-76.99 1110.54,-83.83"/>
</a>
</g>
</g>
<!-- Node16 -->
<g id="Node000016" class="node">
<title>Node16</title>
<g id="a_Node000016"><a xlink:title=" ">
<polygon fill="#e0e0e0" stroke="#999999" points="1415.62,-77.5 1248.88,-77.5 1248.88,-56.75 1415.62,-56.75 1415.62,-77.5"/>
<text text-anchor="middle" x="1332.25" y="-64" font-family="Helvetica,sans-Serif" font-size="10.00">llvm/Support/DOTGraphTraits.h</text>
</a>
</g>
</g>
<!-- Node1&#45;&gt;Node16 -->
<g id="edge16_Node000001_Node000016" class="edge">
<title>Node1&#45;&gt;Node16</title>
<g id="a_edge16_Node000001_Node000016"><a xlink:title=" ">
<path fill="none" stroke="#63b8ff" d="M943.23,-121.32C1021.16,-110.67 1160.16,-91.66 1249.19,-79.48"/>
<polygon fill="#63b8ff" stroke="#63b8ff" points="1249.4,-82.99 1258.83,-78.16 1248.45,-76.05 1249.4,-82.99"/>
</a>
</g>
</g>
<!-- Node17 -->
<g id="Node000017" class="node">
<title>Node17</title>
<g id="a_Node000017"><a xlink:title=" ">
<polygon fill="#e0e0e0" stroke="#999999" points="1478.5,-77.5 1434,-77.5 1434,-56.75 1478.5,-56.75 1478.5,-77.5"/>
<text text-anchor="middle" x="1456.25" y="-64" font-family="Helvetica,sans-Serif" font-size="10.00">utility</text>
</a>
</g>
</g>
<!-- Node1&#45;&gt;Node17 -->
<g id="edge17_Node000001_Node000017" class="edge">
<title>Node1&#45;&gt;Node17</title>
<g id="a_edge17_Node000001_Node000017"><a xlink:title=" ">
<path fill="none" stroke="#63b8ff" d="M943.59,-127.26C1041,-123.16 1242.9,-111.31 1422.41,-77.47"/>
<polygon fill="#63b8ff" stroke="#63b8ff" points="1423.01,-80.92 1432.17,-75.6 1421.69,-74.05 1423.01,-80.92"/>
</a>
</g>
</g>
<!-- Node3 -->
<g id="Node000003" class="node">
<title>Node3</title>
<g id="a_Node000003"><a xlink:href="llzk_2Util_2Constants_8h.html" target="_top" xlink:title=" ">
<polygon fill="white" stroke="#666666" points="242.38,-20.75 128.12,-20.75 128.12,0 242.38,0 242.38,-20.75"/>
<text text-anchor="middle" x="185.25" y="-7.25" font-family="Helvetica,sans-Serif" font-size="10.00">llzk/Util/Constants.h</text>
</a>
</g>
</g>
<!-- Node2&#45;&gt;Node3 -->
<g id="edge2_Node000002_Node000003" class="edge">
<title>Node2&#45;&gt;Node3</title>
<g id="a_edge2_Node000002_Node000003"><a xlink:title=" ">
<path fill="none" stroke="#63b8ff" d="M401.75,-56.27C357.49,-47.1 291.38,-33.39 243.86,-23.53"/>
<polygon fill="#63b8ff" stroke="#63b8ff" points="244.8,-20.15 234.3,-21.55 243.38,-27 244.8,-20.15"/>
</a>
</g>
</g>
<!-- Node2&#45;&gt;Node4 -->
<g id="edge3_Node000002_Node000004" class="edge">
<title>Node2&#45;&gt;Node4</title>
<g id="a_edge3_Node000002_Node000004"><a xlink:title=" ">
<path fill="none" stroke="#63b8ff" d="M380.65,-56.87C316.43,-48.17 217.46,-34.65 122.06,-21.14"/>
<polygon fill="#63b8ff" stroke="#63b8ff" points="122.64,-17.69 112.25,-19.75 121.66,-24.62 122.64,-17.69"/>
</a>
</g>
</g>
<!-- Node5 -->
<g id="Node000005" class="node">
<title>Node5</title>
<g id="a_Node000005"><a xlink:title=" ">
<polygon fill="#e0e0e0" stroke="#999999" points="368.38,-20.75 260.12,-20.75 260.12,0 368.38,0 368.38,-20.75"/>
<text text-anchor="middle" x="314.25" y="-7.25" font-family="Helvetica,sans-Serif" font-size="10.00">mlir/IR/Operation.h</text>
</a>
</g>
</g>
<!-- Node2&#45;&gt;Node5 -->
<g id="edge4_Node000002_Node000005" class="edge">
<title>Node2&#45;&gt;Node5</title>
<g id="a_edge4_Node000002_Node000005"><a xlink:title=" ">
<path fill="none" stroke="#63b8ff" d="M425.11,-56.34C403.81,-47.69 372.5,-35 348.58,-25.3"/>
<polygon fill="#63b8ff" stroke="#63b8ff" points="350.16,-22.16 339.58,-21.65 347.53,-28.65 350.16,-22.16"/>
</a>
</g>
</g>
<!-- Node6 -->
<g id="Node000006" class="node">
<title>Node6</title>
<g id="a_Node000006"><a xlink:title=" ">
<polygon fill="#e0e0e0" stroke="#999999" points="512.38,-20.75 386.12,-20.75 386.12,0 512.38,0 512.38,-20.75"/>
<text text-anchor="middle" x="449.25" y="-7.25" font-family="Helvetica,sans-Serif" font-size="10.00">mlir/IR/OwningOpRef.h</text>
</a>
</g>
</g>
<!-- Node2&#45;&gt;Node6 -->
<g id="edge5_Node000002_Node000006" class="edge">
<title>Node2&#45;&gt;Node6</title>
<g id="a_edge5_Node000002_Node000006"><a xlink:title=" ">
<path fill="none" stroke="#63b8ff" d="M449.25,-56.34C449.25,-49.72 449.25,-40.72 449.25,-32.52"/>
<polygon fill="#63b8ff" stroke="#63b8ff" points="452.75,-32.59 449.25,-22.59 445.75,-32.59 452.75,-32.59"/>
</a>
</g>
</g>
<!-- Node7 -->
<g id="Node000007" class="node">
<title>Node7</title>
<g id="a_Node000007"><a xlink:title=" ">
<polygon fill="#e0e0e0" stroke="#999999" points="645.75,-20.75 530.75,-20.75 530.75,0 645.75,0 645.75,-20.75"/>
<text text-anchor="middle" x="588.25" y="-7.25" font-family="Helvetica,sans-Serif" font-size="10.00">llvm/ADT/ArrayRef.h</text>
</a>
</g>
</g>
<!-- Node2&#45;&gt;Node7 -->
<g id="edge6_Node000002_Node000007" class="edge">
<title>Node2&#45;&gt;Node7</title>
<g id="a_edge6_Node000002_Node000007"><a xlink:title=" ">
<path fill="none" stroke="#63b8ff" d="M474.1,-56.34C496.14,-47.66 528.57,-34.88 553.23,-25.17"/>
<polygon fill="#63b8ff" stroke="#63b8ff" points="554.18,-28.55 562.21,-21.63 551.62,-22.04 554.18,-28.55"/>
</a>
</g>
</g>
<!-- Node8 -->
<g id="Node000008" class="node">
<title>Node8</title>
<g id="a_Node000008"><a xlink:title=" ">
<polygon fill="#e0e0e0" stroke="#999999" points="780.88,-20.75 663.62,-20.75 663.62,0 780.88,0 780.88,-20.75"/>
<text text-anchor="middle" x="722.25" y="-7.25" font-family="Helvetica,sans-Serif" font-size="10.00">llvm/ADT/StringRef.h</text>
</a>
</g>
</g>
<!-- Node2&#45;&gt;Node8 -->
<g id="edge7_Node000002_Node000008" class="edge">
<title>Node2&#45;&gt;Node8</title>
<g id="a_edge7_Node000002_Node000008"><a xlink:title=" ">
<path fill="none" stroke="#63b8ff" d="M498.37,-56.27C544.23,-47.08 612.79,-33.33 661.95,-23.47"/>
<polygon fill="#63b8ff" stroke="#63b8ff" points="662.46,-26.94 671.58,-21.54 661.09,-20.07 662.46,-26.94"/>
</a>
</g>
</g>
<!-- Node9 -->
<g id="Node000009" class="node">
<title>Node9</title>
<g id="a_Node000009"><a xlink:title=" ">
<polygon fill="#e0e0e0" stroke="#999999" points="849.5,-20.75 799,-20.75 799,0 849.5,0 849.5,-20.75"/>
<text text-anchor="middle" x="824.25" y="-7.25" font-family="Helvetica,sans-Serif" font-size="10.00">variant</text>
</a>
</g>
</g>
<!-- Node2&#45;&gt;Node9 -->
<g id="edge8_Node000002_Node000009" class="edge">
<title>Node2&#45;&gt;Node9</title>
<g id="a_edge8_Node000002_Node000009"><a xlink:title=" ">
<path fill="none" stroke="#63b8ff" d="M518.06,-57.48C602.24,-46.84 738.77,-29.31 787.61,-20.89"/>
<polygon fill="#63b8ff" stroke="#63b8ff" points="788.04,-24.37 797.23,-19.09 786.76,-17.49 788.04,-24.37"/>
</a>
</g>
</g>
<!-- Node10 -->
<g id="Node000010" class="node">
<title>Node10</title>
<g id="a_Node000010"><a xlink:title=" ">
<polygon fill="#e0e0e0" stroke="#999999" points="914.62,-20.75 867.88,-20.75 867.88,0 914.62,0 914.62,-20.75"/>
<text text-anchor="middle" x="891.25" y="-7.25" font-family="Helvetica,sans-Serif" font-size="10.00">vector</text>
</a>
</g>
</g>
<!-- Node2&#45;&gt;Node10 -->
<g id="edge9_Node000002_Node000010" class="edge">
<title>Node2&#45;&gt;Node10</title>
<g id="a_edge9_Node000002_Node000010"><a xlink:title=" ">
<path fill="none" stroke="#63b8ff" d="M517.73,-57.85C520.95,-57.48 524.13,-57.11 527.25,-56.75 670.68,-40.33 711.05,-48.64 856.46,-20.78"/>
<polygon fill="#63b8ff" stroke="#63b8ff" points="856.94,-24.25 866.09,-18.91 855.6,-17.38 856.94,-24.25"/>
</a>
</g>
</g>
</g>
</svg>
