<?xml version="1.0" encoding="UTF-8" standalone="no"?>
<!DOCTYPE svg PUBLIC "-//W3C//DTD SVG 1.1//EN"
 "http://www.w3.org/Graphics/SVG/1.1/DTD/svg11.dtd">
<!-- Generated by graphviz version 12.2.1 (0)
 -->
<!-- Title: lib/Util/SymbolLookup.cpp Pages: 1 -->
<svg width="1054pt" height="237pt"
 viewBox="0.00 0.00 1054.38 237.25" xmlns="http://www.w3.org/2000/svg" xmlns:xlink="http://www.w3.org/1999/xlink">
<g id="graph0" class="graph" transform="scale(1 1) rotate(0) translate(4 233.25)">
<title>lib/Util/SymbolLookup.cpp</title>
<!-- Node1 -->
<g id="Node000001" class="node">
<title>Node1</title>
<g id="a_Node000001"><a xlink:title="This file contains the implementations for symbol lookup helper functions.">
<polygon fill="#999999" stroke="#666666" points="623.88,-229.25 481.12,-229.25 481.12,-208.5 623.88,-208.5 623.88,-229.25"/>
<text text-anchor="middle" x="552.5" y="-215.75" font-family="Helvetica,sans-Serif" font-size="10.00">lib/Util/SymbolLookup.cpp</text>
</a>
</g>
</g>
<!-- Node2 -->
<g id="Node000002" class="node">
<title>Node2</title>
<g id="a_Node000002"><a xlink:href="SymbolLookup_8h.html" target="_top" xlink:title="This file defines methods symbol lookup across LLZK operations and included files.">
<polygon fill="white" stroke="#666666" points="620.88,-96.62 484.12,-96.62 484.12,-75.88 620.88,-75.88 620.88,-96.62"/>
<text text-anchor="middle" x="552.5" y="-83.12" font-family="Helvetica,sans-Serif" font-size="10.00">llzk/Util/SymbolLookup.h</text>
</a>
</g>
</g>
<!-- Node1&#45;&gt;Node2 -->
<g id="edge1_Node000001_Node000002" class="edge">
<title>Node1&#45;&gt;Node2</title>
<g id="a_edge1_Node000001_Node000002"><a xlink:title=" ">
<path fill="none" stroke="#63b8ff" d="M552.5,-208.06C552.5,-186.96 552.5,-136.91 552.5,-108.29"/>
<polygon fill="#63b8ff" stroke="#63b8ff" points="556,-108.34 552.5,-98.34 549,-108.34 556,-108.34"/>
</a>
</g>
</g>
<!-- Node4 -->
<g id="Node000004" class="node">
<title>Node4</title>
<g id="a_Node000004"><a xlink:title=" ">
<polygon fill="#e0e0e0" stroke="#999999" points="237.75,-27.12 127.25,-27.12 127.25,-6.38 237.75,-6.38 237.75,-27.12"/>
<text text-anchor="middle" x="182.5" y="-13.62" font-family="Helvetica,sans-Serif" font-size="10.00">mlir/IR/BuiltinOps.h</text>
</a>
</g>
</g>
<!-- Node1&#45;&gt;Node4 -->
<g id="edge19_Node000001_Node000004" class="edge">
<title>Node1&#45;&gt;Node4</title>
<g id="a_edge19_Node000001_Node000004"><a xlink:title=" ">
<path fill="none" stroke="#63b8ff" d="M524.92,-208.08C504.86,-200.22 477.64,-187.94 456.5,-172.5 443.87,-163.27 373.82,-77.7 360.5,-69.5 349.31,-62.61 279.98,-43.46 231.23,-30.49"/>
<polygon fill="#63b8ff" stroke="#63b8ff" points="232.28,-27.14 221.71,-27.97 230.48,-33.91 232.28,-27.14"/>
</a>
</g>
</g>
<!-- Node5 -->
<g id="Node000005" class="node">
<title>Node5</title>
<g id="a_Node000005"><a xlink:title=" ">
<polygon fill="#e0e0e0" stroke="#999999" points="363.62,-27.12 255.38,-27.12 255.38,-6.38 363.62,-6.38 363.62,-27.12"/>
<text text-anchor="middle" x="309.5" y="-13.62" font-family="Helvetica,sans-Serif" font-size="10.00">mlir/IR/Operation.h</text>
</a>
</g>
</g>
<!-- Node1&#45;&gt;Node5 -->
<g id="edge20_Node000001_Node000005" class="edge">
<title>Node1&#45;&gt;Node5</title>
<g id="a_edge20_Node000001_Node000005"><a xlink:title=" ">
<path fill="none" stroke="#63b8ff" d="M538.92,-208.33C526.66,-199.5 508.32,-185.78 493.5,-172.5 446.2,-130.14 444.03,-109.23 394.5,-69.5 377.09,-55.53 355.6,-42.49 338.59,-32.98"/>
<polygon fill="#63b8ff" stroke="#63b8ff" points="340.43,-30 329.98,-28.28 337.08,-36.14 340.43,-30"/>
</a>
</g>
</g>
<!-- Node6 -->
<g id="Node000006" class="node">
<title>Node6</title>
<g id="a_Node000006"><a xlink:title=" ">
<polygon fill="#e0e0e0" stroke="#999999" points="507.62,-27.12 381.38,-27.12 381.38,-6.38 507.62,-6.38 507.62,-27.12"/>
<text text-anchor="middle" x="444.5" y="-13.62" font-family="Helvetica,sans-Serif" font-size="10.00">mlir/IR/OwningOpRef.h</text>
</a>
</g>
</g>
<!-- Node1&#45;&gt;Node6 -->
<g id="edge21_Node000001_Node000006" class="edge">
<title>Node1&#45;&gt;Node6</title>
<g id="a_edge21_Node000001_Node000006"><a xlink:title=" ">
<path fill="none" stroke="#63b8ff" d="M544.85,-208.23C529.93,-189.09 496.58,-144.54 475.5,-103 464.78,-81.88 455.96,-56.15 450.5,-38.52"/>
<polygon fill="#63b8ff" stroke="#63b8ff" points="453.87,-37.55 447.65,-28.98 447.16,-39.56 453.87,-37.55"/>
</a>
</g>
</g>
<!-- Node8 -->
<g id="Node000008" class="node">
<title>Node8</title>
<g id="a_Node000008"><a xlink:title=" ">
<polygon fill="#e0e0e0" stroke="#999999" points="1043.12,-27.12 925.88,-27.12 925.88,-6.38 1043.12,-6.38 1043.12,-27.12"/>
<text text-anchor="middle" x="984.5" y="-13.62" font-family="Helvetica,sans-Serif" font-size="10.00">llvm/ADT/StringRef.h</text>
</a>
</g>
</g>
<!-- Node1&#45;&gt;Node8 -->
<g id="edge23_Node000001_Node000008" class="edge">
<title>Node1&#45;&gt;Node8</title>
<g id="a_edge23_Node000001_Node000008"><a xlink:title=" ">
<path fill="none" stroke="#63b8ff" d="M558.67,-208.2C578.08,-178.09 638.38,-86.97 668.5,-69.5 764.84,-13.61 807.04,-54.08 916.5,-33.5 922.09,-32.45 927.91,-31.25 933.7,-30"/>
<polygon fill="#63b8ff" stroke="#63b8ff" points="934.23,-33.47 943.23,-27.88 932.71,-26.64 934.23,-33.47"/>
</a>
</g>
</g>
<!-- Node11 -->
<g id="Node000011" class="node">
<title>Node11</title>
<g id="a_Node000011"><a xlink:href="Include_2IR_2Ops_8h.html" target="_top" xlink:title=" ">
<polygon fill="white" stroke="#666666" points="352,-172.5 243,-172.5 243,-139 352,-139 352,-172.5"/>
<text text-anchor="start" x="251" y="-159" font-family="Helvetica,sans-Serif" font-size="10.00">llzk/Dialect/Include</text>
<text text-anchor="middle" x="297.5" y="-146.25" font-family="Helvetica,sans-Serif" font-size="10.00">/IR/Ops.h</text>
</a>
</g>
</g>
<!-- Node1&#45;&gt;Node11 -->
<g id="edge10_Node000001_Node000011" class="edge">
<title>Node1&#45;&gt;Node11</title>
<g id="a_edge10_Node000001_Node000011"><a xlink:title=" ">
<path fill="none" stroke="#63b8ff" d="M511.53,-208.05C471.52,-198.46 409.97,-183.71 363.14,-172.48"/>
<polygon fill="#63b8ff" stroke="#63b8ff" points="364.18,-169.14 353.64,-170.21 362.55,-175.94 364.18,-169.14"/>
</a>
</g>
</g>
<!-- Node15 -->
<g id="Node000015" class="node">
<title>Node15</title>
<g id="a_Node000015"><a xlink:href="SymbolHelper_8h.html" target="_top" xlink:title=" ">
<polygon fill="white" stroke="#666666" points="768.38,-166.12 634.62,-166.12 634.62,-145.38 768.38,-145.38 768.38,-166.12"/>
<text text-anchor="middle" x="701.5" y="-152.62" font-family="Helvetica,sans-Serif" font-size="10.00">llzk/Util/SymbolHelper.h</text>
</a>
</g>
</g>
<!-- Node1&#45;&gt;Node15 -->
<g id="edge15_Node000001_Node000015" class="edge">
<title>Node1&#45;&gt;Node15</title>
<g id="a_edge15_Node000001_Node000015"><a xlink:title=" ">
<path fill="none" stroke="#63b8ff" d="M576.44,-208.05C600.99,-197.98 639.4,-182.23 667.18,-170.83"/>
<polygon fill="#63b8ff" stroke="#63b8ff" points="668.3,-174.15 676.22,-167.12 665.64,-167.68 668.3,-174.15"/>
</a>
</g>
</g>
<!-- Node18 -->
<g id="Node000018" class="node">
<title>Node18</title>
<g id="a_Node000018"><a xlink:title=" ">
<polygon fill="#e0e0e0" stroke="#999999" points="907,-166.12 786,-166.12 786,-145.38 907,-145.38 907,-166.12"/>
<text text-anchor="middle" x="846.5" y="-152.62" font-family="Helvetica,sans-Serif" font-size="10.00">llvm/ADT/STLExtras.h</text>
</a>
</g>
</g>
<!-- Node1&#45;&gt;Node18 -->
<g id="edge22_Node000001_Node000018" class="edge">
<title>Node1&#45;&gt;Node18</title>
<g id="a_edge22_Node000001_Node000018"><a xlink:title=" ">
<path fill="none" stroke="#63b8ff" d="M603.07,-208.06C648.72,-199.11 717.7,-185.35 777.5,-172.5 782.64,-171.4 787.98,-170.22 793.32,-169.03"/>
<polygon fill="#63b8ff" stroke="#63b8ff" points="793.74,-172.52 802.73,-166.91 792.21,-165.69 793.74,-172.52"/>
</a>
</g>
</g>
<!-- Node19 -->
<g id="Node000019" class="node">
<title>Node19</title>
<g id="a_Node000019"><a xlink:title=" ">
<polygon fill="#e0e0e0" stroke="#999999" points="1046.38,-166.12 924.62,-166.12 924.62,-145.38 1046.38,-145.38 1046.38,-166.12"/>
<text text-anchor="middle" x="985.5" y="-152.62" font-family="Helvetica,sans-Serif" font-size="10.00">llvm/Support/Debug.h</text>
</a>
</g>
</g>
<!-- Node1&#45;&gt;Node19 -->
<g id="edge24_Node000001_Node000019" class="edge">
<title>Node1&#45;&gt;Node19</title>
<g id="a_edge24_Node000001_Node000019"><a xlink:title=" ">
<path fill="none" stroke="#63b8ff" d="M624.3,-211.07C697.95,-203.6 815.68,-190.24 916.5,-172.5 922.4,-171.46 928.55,-170.25 934.65,-168.96"/>
<polygon fill="#63b8ff" stroke="#63b8ff" points="935,-172.47 944.02,-166.92 933.51,-165.63 935,-172.47"/>
</a>
</g>
</g>
<!-- Node3 -->
<g id="Node000003" class="node">
<title>Node3</title>
<g id="a_Node000003"><a xlink:href="llzk_2Util_2Constants_8h.html" target="_top" xlink:title=" ">
<polygon fill="white" stroke="#666666" points="907.62,-27.12 793.38,-27.12 793.38,-6.38 907.62,-6.38 907.62,-27.12"/>
<text text-anchor="middle" x="850.5" y="-13.62" font-family="Helvetica,sans-Serif" font-size="10.00">llzk/Util/Constants.h</text>
</a>
</g>
</g>
<!-- Node2&#45;&gt;Node3 -->
<g id="edge2_Node000002_Node000003" class="edge">
<title>Node2&#45;&gt;Node3</title>
<g id="a_edge2_Node000002_Node000003"><a xlink:title=" ">
<path fill="none" stroke="#63b8ff" d="M596.82,-75.47C643.34,-65.16 718.61,-48.4 783.5,-33.5 788.28,-32.4 793.25,-31.25 798.23,-30.09"/>
<polygon fill="#63b8ff" stroke="#63b8ff" points="798.64,-33.59 807.58,-27.91 797.05,-26.78 798.64,-33.59"/>
</a>
</g>
</g>
<!-- Node2&#45;&gt;Node4 -->
<g id="edge3_Node000002_Node000004" class="edge">
<title>Node2&#45;&gt;Node4</title>
<g id="a_edge3_Node000002_Node000004"><a xlink:title=" ">
<path fill="none" stroke="#63b8ff" d="M485.68,-75.4C423.51,-65.9 328.41,-50.48 246.5,-33.5 241.64,-32.49 236.59,-31.38 231.56,-30.21"/>
<polygon fill="#63b8ff" stroke="#63b8ff" points="232.65,-26.87 222.11,-27.97 231.03,-33.69 232.65,-26.87"/>
</a>
</g>
</g>
<!-- Node2&#45;&gt;Node5 -->
<g id="edge4_Node000002_Node000005" class="edge">
<title>Node2&#45;&gt;Node5</title>
<g id="a_edge4_Node000002_Node000005"><a xlink:title=" ">
<path fill="none" stroke="#63b8ff" d="M517.17,-75.43C474.51,-63.59 402.68,-43.63 355.67,-30.58"/>
<polygon fill="#63b8ff" stroke="#63b8ff" points="356.91,-27.29 346.34,-27.98 355.03,-34.03 356.91,-27.29"/>
</a>
</g>
</g>
<!-- Node2&#45;&gt;Node6 -->
<g id="edge5_Node000002_Node000006" class="edge">
<title>Node2&#45;&gt;Node6</title>
<g id="a_edge5_Node000002_Node000006"><a xlink:title=" ">
<path fill="none" stroke="#63b8ff" d="M537.03,-75.58C519.48,-64.61 490.62,-46.57 469.79,-33.56"/>
<polygon fill="#63b8ff" stroke="#63b8ff" points="471.91,-30.76 461.58,-28.42 468.2,-36.69 471.91,-30.76"/>
</a>
</g>
</g>
<!-- Node7 -->
<g id="Node000007" class="node">
<title>Node7</title>
<g id="a_Node000007"><a xlink:title=" ">
<polygon fill="#e0e0e0" stroke="#999999" points="641,-27.12 526,-27.12 526,-6.38 641,-6.38 641,-27.12"/>
<text text-anchor="middle" x="583.5" y="-13.62" font-family="Helvetica,sans-Serif" font-size="10.00">llvm/ADT/ArrayRef.h</text>
</a>
</g>
</g>
<!-- Node2&#45;&gt;Node7 -->
<g id="edge6_Node000002_Node000007" class="edge">
<title>Node2&#45;&gt;Node7</title>
<g id="a_edge6_Node000002_Node000007"><a xlink:title=" ">
<path fill="none" stroke="#63b8ff" d="M556.94,-75.58C561.45,-65.75 568.57,-50.25 574.31,-37.77"/>
<polygon fill="#63b8ff" stroke="#63b8ff" points="577.44,-39.33 578.44,-28.78 571.08,-36.41 577.44,-39.33"/>
</a>
</g>
</g>
<!-- Node2&#45;&gt;Node8 -->
<g id="edge7_Node000002_Node000008" class="edge">
<title>Node2&#45;&gt;Node8</title>
<g id="a_edge7_Node000002_Node000008"><a xlink:title=" ">
<path fill="none" stroke="#63b8ff" d="M600.97,-75.42C611.97,-73.33 623.62,-71.24 634.5,-69.5 759.27,-49.57 792.13,-55.78 916.5,-33.5 922.17,-32.48 928.08,-31.3 933.94,-30.05"/>
<polygon fill="#63b8ff" stroke="#63b8ff" points="934.6,-33.49 943.61,-27.91 933.09,-26.66 934.6,-33.49"/>
</a>
</g>
</g>
<!-- Node9 -->
<g id="Node000009" class="node">
<title>Node9</title>
<g id="a_Node000009"><a xlink:title=" ">
<polygon fill="#e0e0e0" stroke="#999999" points="709.75,-27.12 659.25,-27.12 659.25,-6.38 709.75,-6.38 709.75,-27.12"/>
<text text-anchor="middle" x="684.5" y="-13.62" font-family="Helvetica,sans-Serif" font-size="10.00">variant</text>
</a>
</g>
</g>
<!-- Node2&#45;&gt;Node9 -->
<g id="edge8_Node000002_Node000009" class="edge">
<title>Node2&#45;&gt;Node9</title>
<g id="a_edge8_Node000002_Node000009"><a xlink:title=" ">
<path fill="none" stroke="#63b8ff" d="M571.69,-75.43C593.59,-64.24 629.65,-45.8 655.1,-32.78"/>
<polygon fill="#63b8ff" stroke="#63b8ff" points="656.63,-35.94 663.94,-28.27 653.44,-29.7 656.63,-35.94"/>
</a>
</g>
</g>
<!-- Node10 -->
<g id="Node000010" class="node">
<title>Node10</title>
<g id="a_Node000010"><a xlink:title=" ">
<polygon fill="#e0e0e0" stroke="#999999" points="774.88,-27.12 728.12,-27.12 728.12,-6.38 774.88,-6.38 774.88,-27.12"/>
<text text-anchor="middle" x="751.5" y="-13.62" font-family="Helvetica,sans-Serif" font-size="10.00">vector</text>
</a>
</g>
</g>
<!-- Node2&#45;&gt;Node10 -->
<g id="edge9_Node000002_Node000010" class="edge">
<title>Node2&#45;&gt;Node10</title>
<g id="a_edge9_Node000002_Node000010"><a xlink:title=" ">
<path fill="none" stroke="#63b8ff" d="M589.29,-75.42C623.27,-65.95 674.94,-50.58 718.5,-33.5 719.62,-33.06 720.76,-32.6 721.91,-32.12"/>
<polygon fill="#63b8ff" stroke="#63b8ff" points="723.07,-35.43 730.78,-28.16 720.22,-29.04 723.07,-35.43"/>
</a>
</g>
</g>
<!-- Node12 -->
<g id="Node000012" class="node">
<title>Node12</title>
<g id="a_Node000012"><a xlink:href="Include_2IR_2Dialect_8h.html" target="_top" xlink:title=" ">
<polygon fill="white" stroke="#666666" points="225,-103 116,-103 116,-69.5 225,-69.5 225,-103"/>
<text text-anchor="start" x="124" y="-89.5" font-family="Helvetica,sans-Serif" font-size="10.00">llzk/Dialect/Include</text>
<text text-anchor="middle" x="170.5" y="-76.75" font-family="Helvetica,sans-Serif" font-size="10.00">/IR/Dialect.h</text>
</a>
</g>
</g>
<!-- Node11&#45;&gt;Node12 -->
<g id="edge11_Node000011_Node000012" class="edge">
<title>Node11&#45;&gt;Node12</title>
<g id="a_edge11_Node000011_Node000012"><a xlink:title=" ">
<path fill="none" stroke="#63b8ff" d="M267.08,-138.58C250.19,-129.61 228.98,-118.33 210.73,-108.63"/>
<polygon fill="#63b8ff" stroke="#63b8ff" points="212.48,-105.6 202.01,-104 209.2,-111.78 212.48,-105.6"/>
</a>
</g>
</g>
<!-- Node14 -->
<g id="Node000014" class="node">
<title>Node14</title>
<g id="a_Node000014"><a xlink:href="Include_2IR_2Ops_8h_8inc.html" target="_top" xlink:title=" ">
<polygon fill="white" stroke="#666666" points="352,-103 243,-103 243,-69.5 352,-69.5 352,-103"/>
<text text-anchor="start" x="251" y="-89.5" font-family="Helvetica,sans-Serif" font-size="10.00">llzk/Dialect/Include</text>
<text text-anchor="middle" x="297.5" y="-76.75" font-family="Helvetica,sans-Serif" font-size="10.00">/IR/Ops.h.inc</text>
</a>
</g>
</g>
<!-- Node11&#45;&gt;Node14 -->
<g id="edge14_Node000011_Node000014" class="edge">
<title>Node11&#45;&gt;Node14</title>
<g id="a_edge14_Node000011_Node000014"><a xlink:title=" ">
<path fill="none" stroke="#63b8ff" d="M297.5,-138.75C297.5,-131.52 297.5,-122.78 297.5,-114.56"/>
<polygon fill="#63b8ff" stroke="#63b8ff" points="301,-114.65 297.5,-104.65 294,-114.65 301,-114.65"/>
</a>
</g>
</g>
<!-- Node12&#45;&gt;Node4 -->
<g id="edge12_Node000012_Node000004" class="edge">
<title>Node12&#45;&gt;Node4</title>
<g id="a_edge12_Node000012_Node000004"><a xlink:title=" ">
<path fill="none" stroke="#63b8ff" d="M173.34,-69.25C174.96,-60.15 177.01,-48.64 178.75,-38.82"/>
<polygon fill="#63b8ff" stroke="#63b8ff" points="182.18,-39.52 180.49,-29.06 175.29,-38.3 182.18,-39.52"/>
</a>
</g>
</g>
<!-- Node13 -->
<g id="Node000013" class="node">
<title>Node13</title>
<g id="a_Node000013"><a xlink:href="Include_2IR_2Dialect_8h_8inc.html" target="_top" xlink:title=" ">
<polygon fill="white" stroke="#666666" points="109,-33.5 0,-33.5 0,0 109,0 109,-33.5"/>
<text text-anchor="start" x="8" y="-20" font-family="Helvetica,sans-Serif" font-size="10.00">llzk/Dialect/Include</text>
<text text-anchor="middle" x="54.5" y="-7.25" font-family="Helvetica,sans-Serif" font-size="10.00">/IR/Dialect.h.inc</text>
</a>
</g>
</g>
<!-- Node12&#45;&gt;Node13 -->
<g id="edge13_Node000012_Node000013" class="edge">
<title>Node12&#45;&gt;Node13</title>
<g id="a_edge13_Node000012_Node000013"><a xlink:title=" ">
<path fill="none" stroke="#63b8ff" d="M142.72,-69.08C127.51,-60.23 108.45,-49.14 91.95,-39.54"/>
<polygon fill="#63b8ff" stroke="#63b8ff" points="93.77,-36.55 83.37,-34.55 90.25,-42.6 93.77,-36.55"/>
</a>
</g>
</g>
<!-- Node15&#45;&gt;Node2 -->
<g id="edge16_Node000015_Node000002" class="edge">
<title>Node15&#45;&gt;Node2</title>
<g id="a_edge16_Node000015_Node000002"><a xlink:title=" ">
<path fill="none" stroke="#63b8ff" d="M679.83,-144.93C654.78,-133.59 613.32,-114.8 584.54,-101.76"/>
<polygon fill="#63b8ff" stroke="#63b8ff" points="586.12,-98.64 575.57,-97.7 583.24,-105.02 586.12,-98.64"/>
</a>
</g>
</g>
<!-- Node16 -->
<g id="Node000016" class="node">
<title>Node16</title>
<g id="a_Node000016"><a xlink:title=" ">
<polygon fill="#e0e0e0" stroke="#999999" points="910.88,-96.62 744.12,-96.62 744.12,-75.88 910.88,-75.88 910.88,-96.62"/>
<text text-anchor="middle" x="827.5" y="-83.12" font-family="Helvetica,sans-Serif" font-size="10.00">mlir/Interfaces/CallInterfaces.h</text>
</a>
</g>
</g>
<!-- Node15&#45;&gt;Node16 -->
<g id="edge17_Node000015_Node000016" class="edge">
<title>Node15&#45;&gt;Node16</title>
<g id="a_edge17_Node000015_Node000016"><a xlink:title=" ">
<path fill="none" stroke="#63b8ff" d="M719.82,-144.93C740.63,-133.79 774.84,-115.46 799.11,-102.46"/>
<polygon fill="#63b8ff" stroke="#63b8ff" points="800.66,-105.6 807.82,-97.79 797.35,-99.43 800.66,-105.6"/>
</a>
</g>
</g>
<!-- Node17 -->
<g id="Node000017" class="node">
<title>Node17</title>
<g id="a_Node000017"><a xlink:title=" ">
<polygon fill="#e0e0e0" stroke="#999999" points="726,-96.62 677,-96.62 677,-75.88 726,-75.88 726,-96.62"/>
<text text-anchor="middle" x="701.5" y="-83.12" font-family="Helvetica,sans-Serif" font-size="10.00">ranges</text>
</a>
</g>
</g>
<!-- Node15&#45;&gt;Node17 -->
<g id="edge18_Node000015_Node000017" class="edge">
<title>Node15&#45;&gt;Node17</title>
<g id="a_edge18_Node000015_Node000017"><a xlink:title=" ">
<path fill="none" stroke="#63b8ff" d="M701.5,-145.08C701.5,-135.46 701.5,-120.38 701.5,-108.04"/>
<polygon fill="#63b8ff" stroke="#63b8ff" points="705,-108.42 701.5,-98.42 698,-108.42 705,-108.42"/>
</a>
</g>
</g>
</g>
</svg>
