<?xml version="1.0" encoding="UTF-8" standalone="no"?>
<!DOCTYPE svg PUBLIC "-//W3C//DTD SVG 1.1//EN"
 "http://www.w3.org/Graphics/SVG/1.1/DTD/svg11.dtd">
<!-- Generated by graphviz version 12.2.1 (0)
 -->
<!-- Title: lib/Analysis/SymbolDefTreePass.cpp Pages: 1 -->
<svg width="2994pt" height="307pt"
 viewBox="0.00 0.00 2993.88 306.75" xmlns="http://www.w3.org/2000/svg" xmlns:xlink="http://www.w3.org/1999/xlink">
<g id="graph0" class="graph" transform="scale(1 1) rotate(0) translate(4 302.75)">
<title>lib/Analysis/SymbolDefTreePass.cpp</title>
<!-- Node1 -->
<g id="Node000001" class="node">
<title>Node1</title>
<g id="a_Node000001"><a xlink:title="This file implements the &#45;llzk&#45;print&#45;symbol&#45;def&#45;tree pass.">
<polygon fill="#999999" stroke="#666666" points="2219.25,-298.75 2069.75,-298.75 2069.75,-265.25 2219.25,-265.25 2219.25,-298.75"/>
<text text-anchor="start" x="2077.75" y="-285.25" font-family="Helvetica,sans-Serif" font-size="10.00">lib/Analysis/SymbolDefTree</text>
<text text-anchor="middle" x="2144.5" y="-272.5" font-family="Helvetica,sans-Serif" font-size="10.00">Pass.cpp</text>
</a>
</g>
</g>
<!-- Node2 -->
<g id="Node000002" class="node">
<title>Node2</title>
<g id="a_Node000002"><a xlink:href="AnalysisPasses_8h.html" target="_top" xlink:title=" ">
<polygon fill="white" stroke="#666666" points="2081.38,-229.25 1917.62,-229.25 1917.62,-208.5 2081.38,-208.5 2081.38,-229.25"/>
<text text-anchor="middle" x="1999.5" y="-215.75" font-family="Helvetica,sans-Serif" font-size="10.00">llzk/Analysis/AnalysisPasses.h</text>
</a>
</g>
</g>
<!-- Node1&#45;&gt;Node2 -->
<g id="edge1_Node000001_Node000002" class="edge">
<title>Node1&#45;&gt;Node2</title>
<g id="a_edge1_Node000001_Node000002"><a xlink:title=" ">
<path fill="none" stroke="#63b8ff" d="M2106.02,-264.78C2083.34,-255.22 2054.92,-243.24 2033.14,-234.05"/>
<polygon fill="#63b8ff" stroke="#63b8ff" points="2034.69,-230.91 2024.12,-230.25 2031.97,-237.36 2034.69,-230.91"/>
</a>
</g>
</g>
<!-- Node36 -->
<g id="Node000036" class="node">
<title>Node36</title>
<g id="a_Node000036"><a xlink:href="AnalysisPasses_8h_8inc.html" target="_top" xlink:title=" ">
<polygon fill="white" stroke="#666666" points="2235,-166.12 2054,-166.12 2054,-145.38 2235,-145.38 2235,-166.12"/>
<text text-anchor="middle" x="2144.5" y="-152.62" font-family="Helvetica,sans-Serif" font-size="10.00">llzk/Analysis/AnalysisPasses.h.inc</text>
</a>
</g>
</g>
<!-- Node1&#45;&gt;Node36 -->
<g id="edge53_Node000001_Node000036" class="edge">
<title>Node1&#45;&gt;Node36</title>
<g id="a_edge53_Node000001_Node000036"><a xlink:title=" ">
<path fill="none" stroke="#63b8ff" d="M2144.5,-264.76C2144.5,-242.46 2144.5,-202.36 2144.5,-177.79"/>
<polygon fill="#63b8ff" stroke="#63b8ff" points="2148,-178.05 2144.5,-168.05 2141,-178.05 2148,-178.05"/>
</a>
</g>
</g>
<!-- Node37 -->
<g id="Node000037" class="node">
<title>Node37</title>
<g id="a_Node000037"><a xlink:href="SymbolDefTree_8h.html" target="_top" xlink:title=" ">
<polygon fill="white" stroke="#666666" points="2653.38,-229.25 2489.62,-229.25 2489.62,-208.5 2653.38,-208.5 2653.38,-229.25"/>
<text text-anchor="middle" x="2571.5" y="-215.75" font-family="Helvetica,sans-Serif" font-size="10.00">llzk/Analysis/SymbolDefTree.h</text>
</a>
</g>
</g>
<!-- Node1&#45;&gt;Node37 -->
<g id="edge47_Node000001_Node000037" class="edge">
<title>Node1&#45;&gt;Node37</title>
<g id="a_edge47_Node000001_Node000037"><a xlink:title=" ">
<path fill="none" stroke="#63b8ff" d="M2219.37,-270.28C2295.62,-259.37 2413.45,-242.5 2491.51,-231.33"/>
<polygon fill="#63b8ff" stroke="#63b8ff" points="2491.82,-234.82 2501.23,-229.93 2490.83,-227.89 2491.82,-234.82"/>
</a>
</g>
</g>
<!-- Node3 -->
<g id="Node000003" class="node">
<title>Node3</title>
<g id="a_Node000003"><a xlink:href="AnalysisPassEnums_8h.html" target="_top" xlink:title=" ">
<polygon fill="white" stroke="#666666" points="2036.25,-172.5 1892.75,-172.5 1892.75,-139 2036.25,-139 2036.25,-172.5"/>
<text text-anchor="start" x="1900.75" y="-159" font-family="Helvetica,sans-Serif" font-size="10.00">llzk/Analysis/AnalysisPass</text>
<text text-anchor="middle" x="1964.5" y="-146.25" font-family="Helvetica,sans-Serif" font-size="10.00">Enums.h</text>
</a>
</g>
</g>
<!-- Node2&#45;&gt;Node3 -->
<g id="edge2_Node000002_Node000003" class="edge">
<title>Node2&#45;&gt;Node3</title>
<g id="a_edge2_Node000002_Node000003"><a xlink:title=" ">
<path fill="none" stroke="#63b8ff" d="M1993.88,-208.05C1989.95,-201.19 1984.5,-191.68 1979.37,-182.71"/>
<polygon fill="#63b8ff" stroke="#63b8ff" points="1982.55,-181.24 1974.55,-174.3 1976.48,-184.72 1982.55,-181.24"/>
</a>
</g>
</g>
<!-- Node10 -->
<g id="Node000010" class="node">
<title>Node10</title>
<g id="a_Node000010"><a xlink:href="PassBase_8h.html" target="_top" xlink:title=" ">
<polygon fill="white" stroke="#666666" points="995.38,-166.12 879.62,-166.12 879.62,-145.38 995.38,-145.38 995.38,-166.12"/>
<text text-anchor="middle" x="937.5" y="-152.62" font-family="Helvetica,sans-Serif" font-size="10.00">llzk/Pass/PassBase.h</text>
</a>
</g>
</g>
<!-- Node2&#45;&gt;Node10 -->
<g id="edge9_Node000002_Node000010" class="edge">
<title>Node2&#45;&gt;Node10</title>
<g id="a_edge9_Node000002_Node000010"><a xlink:title=" ">
<path fill="none" stroke="#63b8ff" d="M1917.49,-213.15C1715.31,-201.52 1195.77,-171.62 1007.2,-160.76"/>
<polygon fill="#63b8ff" stroke="#63b8ff" points="1007.5,-157.27 997.31,-160.19 1007.09,-164.26 1007.5,-157.27"/>
</a>
</g>
</g>
<!-- Node2&#45;&gt;Node36 -->
<g id="edge46_Node000002_Node000036" class="edge">
<title>Node2&#45;&gt;Node36</title>
<g id="a_edge46_Node000002_Node000036"><a xlink:title=" ">
<path fill="none" stroke="#63b8ff" d="M2022.8,-208.05C2046.58,-198.03 2083.73,-182.37 2110.74,-170.98"/>
<polygon fill="#63b8ff" stroke="#63b8ff" points="2112.01,-174.24 2119.87,-167.13 2109.29,-167.79 2112.01,-174.24"/>
</a>
</g>
</g>
<!-- Node4 -->
<g id="Node000004" class="node">
<title>Node4</title>
<g id="a_Node000004"><a xlink:title=" ">
<polygon fill="#e0e0e0" stroke="#999999" points="1746.5,-96.62 1652.5,-96.62 1652.5,-75.88 1746.5,-75.88 1746.5,-96.62"/>
<text text-anchor="middle" x="1699.5" y="-83.12" font-family="Helvetica,sans-Serif" font-size="10.00">mlir/Pass/Pass.h</text>
</a>
</g>
</g>
<!-- Node3&#45;&gt;Node4 -->
<g id="edge3_Node000003_Node000004" class="edge">
<title>Node3&#45;&gt;Node4</title>
<g id="a_edge3_Node000003_Node000004"><a xlink:title=" ">
<path fill="none" stroke="#63b8ff" d="M1896.59,-138.51C1855.64,-128.57 1802.48,-115.42 1755.5,-103 1751.98,-102.07 1748.35,-101.09 1744.7,-100.09"/>
<polygon fill="#63b8ff" stroke="#63b8ff" points="1745.84,-96.78 1735.27,-97.49 1743.97,-103.52 1745.84,-96.78"/>
</a>
</g>
</g>
<!-- Node5 -->
<g id="Node000005" class="node">
<title>Node5</title>
<g id="a_Node000005"><a xlink:title=" ">
<polygon fill="#e0e0e0" stroke="#999999" points="2325.12,-96.62 2171.88,-96.62 2171.88,-75.88 2325.12,-75.88 2325.12,-96.62"/>
<text text-anchor="middle" x="2248.5" y="-83.12" font-family="Helvetica,sans-Serif" font-size="10.00">mlir/Support/LogicalResult.h</text>
</a>
</g>
</g>
<!-- Node3&#45;&gt;Node5 -->
<g id="edge4_Node000003_Node000005" class="edge">
<title>Node3&#45;&gt;Node5</title>
<g id="a_edge4_Node000003_Node000005"><a xlink:title=" ">
<path fill="none" stroke="#63b8ff" d="M2032.53,-138.58C2082.7,-126.66 2149.98,-110.67 2196.04,-99.72"/>
<polygon fill="#63b8ff" stroke="#63b8ff" points="2196.58,-103.19 2205.5,-97.47 2194.96,-96.38 2196.58,-103.19"/>
</a>
</g>
</g>
<!-- Node6 -->
<g id="Node000006" class="node">
<title>Node6</title>
<g id="a_Node000006"><a xlink:title=" ">
<polygon fill="#e0e0e0" stroke="#999999" points="2460.12,-96.62 2342.88,-96.62 2342.88,-75.88 2460.12,-75.88 2460.12,-96.62"/>
<text text-anchor="middle" x="2401.5" y="-83.12" font-family="Helvetica,sans-Serif" font-size="10.00">llvm/ADT/StringRef.h</text>
</a>
</g>
</g>
<!-- Node3&#45;&gt;Node6 -->
<g id="edge5_Node000003_Node000006" class="edge">
<title>Node3&#45;&gt;Node6</title>
<g id="a_edge5_Node000003_Node000006"><a xlink:title=" ">
<path fill="none" stroke="#63b8ff" d="M2036.42,-140.34C2039.14,-139.87 2041.84,-139.43 2044.5,-139 2172.74,-118.44 2206.66,-125.89 2334.5,-103 2340.09,-102 2345.91,-100.83 2351.69,-99.58"/>
<polygon fill="#63b8ff" stroke="#63b8ff" points="2352.21,-103.05 2361.2,-97.45 2350.68,-96.22 2352.21,-103.05"/>
</a>
</g>
</g>
<!-- Node7 -->
<g id="Node000007" class="node">
<title>Node7</title>
<g id="a_Node000007"><a xlink:title=" ">
<polygon fill="#e0e0e0" stroke="#999999" points="1918.5,-96.62 1764.5,-96.62 1764.5,-75.88 1918.5,-75.88 1918.5,-96.62"/>
<text text-anchor="middle" x="1841.5" y="-83.12" font-family="Helvetica,sans-Serif" font-size="10.00">llvm/Support/raw_ostream.h</text>
</a>
</g>
</g>
<!-- Node3&#45;&gt;Node7 -->
<g id="edge6_Node000003_Node000007" class="edge">
<title>Node3&#45;&gt;Node7</title>
<g id="a_edge6_Node000003_Node000007"><a xlink:title=" ">
<path fill="none" stroke="#63b8ff" d="M1935.04,-138.58C1915.04,-127.61 1888.76,-113.19 1869.16,-102.43"/>
<polygon fill="#63b8ff" stroke="#63b8ff" points="1871.08,-99.49 1860.63,-97.75 1867.71,-105.63 1871.08,-99.49"/>
</a>
</g>
</g>
<!-- Node8 -->
<g id="Node000008" class="node">
<title>Node8</title>
<g id="a_Node000008"><a xlink:title=" ">
<polygon fill="#e0e0e0" stroke="#999999" points="1992.38,-96.62 1936.62,-96.62 1936.62,-75.88 1992.38,-75.88 1992.38,-96.62"/>
<text text-anchor="middle" x="1964.5" y="-83.12" font-family="Helvetica,sans-Serif" font-size="10.00">optional</text>
</a>
</g>
</g>
<!-- Node3&#45;&gt;Node8 -->
<g id="edge7_Node000003_Node000008" class="edge">
<title>Node3&#45;&gt;Node8</title>
<g id="a_edge7_Node000003_Node000008"><a xlink:title=" ">
<path fill="none" stroke="#63b8ff" d="M1964.5,-138.75C1964.5,-129.65 1964.5,-118.14 1964.5,-108.32"/>
<polygon fill="#63b8ff" stroke="#63b8ff" points="1968,-108.59 1964.5,-98.59 1961,-108.59 1968,-108.59"/>
</a>
</g>
</g>
<!-- Node9 -->
<g id="Node000009" class="node">
<title>Node9</title>
<g id="a_Node000009"><a xlink:href="AnalysisPassEnums_8h_8inc.html" target="_top" xlink:title=" ">
<polygon fill="white" stroke="#666666" points="2154.25,-103 2010.75,-103 2010.75,-69.5 2154.25,-69.5 2154.25,-103"/>
<text text-anchor="start" x="2018.75" y="-89.5" font-family="Helvetica,sans-Serif" font-size="10.00">llzk/Analysis/AnalysisPass</text>
<text text-anchor="middle" x="2082.5" y="-76.75" font-family="Helvetica,sans-Serif" font-size="10.00">Enums.h.inc</text>
</a>
</g>
</g>
<!-- Node3&#45;&gt;Node9 -->
<g id="edge8_Node000003_Node000009" class="edge">
<title>Node3&#45;&gt;Node9</title>
<g id="a_edge8_Node000003_Node000009"><a xlink:title=" ">
<path fill="none" stroke="#63b8ff" d="M1992.76,-138.58C2008.38,-129.65 2027.98,-118.44 2044.88,-108.77"/>
<polygon fill="#63b8ff" stroke="#63b8ff" points="2046.21,-112.04 2053.15,-104.04 2042.73,-105.96 2046.21,-112.04"/>
</a>
</g>
</g>
<!-- Node10&#45;&gt;Node4 -->
<g id="edge45_Node000010_Node000004" class="edge">
<title>Node10&#45;&gt;Node4</title>
<g id="a_edge45_Node000010_Node000004"><a xlink:title=" ">
<path fill="none" stroke="#63b8ff" d="M995.64,-154.43C1116.97,-152.89 1405.64,-144.73 1643.5,-103 1648.14,-102.19 1652.96,-101.14 1657.72,-99.99"/>
<polygon fill="#63b8ff" stroke="#63b8ff" points="1658.4,-103.43 1667.19,-97.51 1656.63,-96.65 1658.4,-103.43"/>
</a>
</g>
</g>
<!-- Node11 -->
<g id="Node000011" class="node">
<title>Node11</title>
<g id="a_Node000011"><a xlink:href="Array_2IR_2Dialect_8h.html" target="_top" xlink:title=" ">
<polygon fill="white" stroke="#666666" points="628.5,-103 528.5,-103 528.5,-69.5 628.5,-69.5 628.5,-103"/>
<text text-anchor="start" x="536.5" y="-89.5" font-family="Helvetica,sans-Serif" font-size="10.00">llzk/Dialect/Array</text>
<text text-anchor="middle" x="578.5" y="-76.75" font-family="Helvetica,sans-Serif" font-size="10.00">/IR/Dialect.h</text>
</a>
</g>
</g>
<!-- Node10&#45;&gt;Node11 -->
<g id="edge10_Node000010_Node000011" class="edge">
<title>Node10&#45;&gt;Node11</title>
<g id="a_edge10_Node000010_Node000011"><a xlink:title=" ">
<path fill="none" stroke="#63b8ff" d="M879.13,-146.27C820.88,-137.46 728.63,-122.54 640.02,-103.45"/>
<polygon fill="#63b8ff" stroke="#63b8ff" points="640.95,-100.07 630.44,-101.36 639.46,-106.91 640.95,-100.07"/>
</a>
</g>
</g>
<!-- Node14 -->
<g id="Node000014" class="node">
<title>Node14</title>
<g id="a_Node000014"><a xlink:href="Bool_2IR_2Dialect_8h.html" target="_top" xlink:title=" ">
<polygon fill="white" stroke="#666666" points="1117.62,-103 1009.38,-103 1009.38,-69.5 1117.62,-69.5 1117.62,-103"/>
<text text-anchor="start" x="1017.38" y="-89.5" font-family="Helvetica,sans-Serif" font-size="10.00">llzk/Dialect/Bool/IR</text>
<text text-anchor="middle" x="1063.5" y="-76.75" font-family="Helvetica,sans-Serif" font-size="10.00">/Dialect.h</text>
</a>
</g>
</g>
<!-- Node10&#45;&gt;Node14 -->
<g id="edge13_Node000010_Node000014" class="edge">
<title>Node10&#45;&gt;Node14</title>
<g id="a_edge13_Node000010_Node000014"><a xlink:title=" ">
<path fill="none" stroke="#63b8ff" d="M955.82,-144.93C973.46,-135.49 1000.72,-120.88 1023.4,-108.73"/>
<polygon fill="#63b8ff" stroke="#63b8ff" points="1024.96,-111.87 1032.12,-104.06 1021.65,-105.7 1024.96,-111.87"/>
</a>
</g>
</g>
<!-- Node16 -->
<g id="Node000016" class="node">
<title>Node16</title>
<g id="a_Node000016"><a xlink:href="Constrain_2IR_2Dialect_8h.html" target="_top" xlink:title=" ">
<polygon fill="white" stroke="#666666" points="1255.62,-103 1135.38,-103 1135.38,-69.5 1255.62,-69.5 1255.62,-103"/>
<text text-anchor="start" x="1143.38" y="-89.5" font-family="Helvetica,sans-Serif" font-size="10.00">llzk/Dialect/Constrain</text>
<text text-anchor="middle" x="1195.5" y="-76.75" font-family="Helvetica,sans-Serif" font-size="10.00">/IR/Dialect.h</text>
</a>
</g>
</g>
<!-- Node10&#45;&gt;Node16 -->
<g id="edge16_Node000010_Node000016" class="edge">
<title>Node10&#45;&gt;Node16</title>
<g id="a_edge16_Node000010_Node000016"><a xlink:title=" ">
<path fill="none" stroke="#63b8ff" d="M975.02,-144.93C1013.91,-134.76 1075.67,-118.6 1123.95,-105.97"/>
<polygon fill="#63b8ff" stroke="#63b8ff" points="1124.71,-109.39 1133.5,-103.47 1122.94,-102.62 1124.71,-109.39"/>
</a>
</g>
</g>
<!-- Node18 -->
<g id="Node000018" class="node">
<title>Node18</title>
<g id="a_Node000018"><a xlink:href="Felt_2IR_2Dialect_8h.html" target="_top" xlink:title=" ">
<polygon fill="white" stroke="#666666" points="1377.75,-103 1273.25,-103 1273.25,-69.5 1377.75,-69.5 1377.75,-103"/>
<text text-anchor="start" x="1281.25" y="-89.5" font-family="Helvetica,sans-Serif" font-size="10.00">llzk/Dialect/Felt/IR</text>
<text text-anchor="middle" x="1325.5" y="-76.75" font-family="Helvetica,sans-Serif" font-size="10.00">/Dialect.h</text>
</a>
</g>
</g>
<!-- Node10&#45;&gt;Node18 -->
<g id="edge19_Node000010_Node000018" class="edge">
<title>Node10&#45;&gt;Node18</title>
<g id="a_edge19_Node000010_Node000018"><a xlink:title=" ">
<path fill="none" stroke="#63b8ff" d="M995.69,-147.25C1058.95,-138.72 1163.21,-123.55 1261.93,-103.43"/>
<polygon fill="#63b8ff" stroke="#63b8ff" points="1262.43,-106.9 1271.52,-101.45 1261.02,-100.04 1262.43,-106.9"/>
</a>
</g>
</g>
<!-- Node20 -->
<g id="Node000020" class="node">
<title>Node20</title>
<g id="a_Node000020"><a xlink:href="Function_2IR_2Dialect_8h.html" target="_top" xlink:title=" ">
<polygon fill="white" stroke="#666666" points="1511,-103 1396,-103 1396,-69.5 1511,-69.5 1511,-103"/>
<text text-anchor="start" x="1404" y="-89.5" font-family="Helvetica,sans-Serif" font-size="10.00">llzk/Dialect/Function</text>
<text text-anchor="middle" x="1453.5" y="-76.75" font-family="Helvetica,sans-Serif" font-size="10.00">/IR/Dialect.h</text>
</a>
</g>
</g>
<!-- Node10&#45;&gt;Node20 -->
<g id="edge22_Node000010_Node000020" class="edge">
<title>Node10&#45;&gt;Node20</title>
<g id="a_edge22_Node000010_Node000020"><a xlink:title=" ">
<path fill="none" stroke="#63b8ff" d="M995.58,-150.23C1079.35,-143.22 1239.13,-128.08 1384.93,-103.14"/>
<polygon fill="#63b8ff" stroke="#63b8ff" points="1385.1,-106.67 1394.35,-101.51 1383.9,-99.77 1385.1,-106.67"/>
</a>
</g>
</g>
<!-- Node22 -->
<g id="Node000022" class="node">
<title>Node22</title>
<g id="a_Node000022"><a xlink:href="Global_2IR_2Dialect_8h.html" target="_top" xlink:title=" ">
<polygon fill="white" stroke="#666666" points="1634.12,-103 1528.88,-103 1528.88,-69.5 1634.12,-69.5 1634.12,-103"/>
<text text-anchor="start" x="1536.88" y="-89.5" font-family="Helvetica,sans-Serif" font-size="10.00">llzk/Dialect/Global</text>
<text text-anchor="middle" x="1581.5" y="-76.75" font-family="Helvetica,sans-Serif" font-size="10.00">/IR/Dialect.h</text>
</a>
</g>
</g>
<!-- Node10&#45;&gt;Node22 -->
<g id="edge25_Node000010_Node000022" class="edge">
<title>Node10&#45;&gt;Node22</title>
<g id="a_edge25_Node000010_Node000022"><a xlink:title=" ">
<path fill="none" stroke="#63b8ff" d="M995.72,-152.66C1098.99,-148.28 1321.06,-135.84 1517.41,-103.18"/>
<polygon fill="#63b8ff" stroke="#63b8ff" points="1517.75,-106.67 1527.03,-101.55 1516.58,-99.77 1517.75,-106.67"/>
</a>
</g>
</g>
<!-- Node24 -->
<g id="Node000024" class="node">
<title>Node24</title>
<g id="a_Node000024"><a xlink:href="Include_2IR_2Dialect_8h.html" target="_top" xlink:title=" ">
<polygon fill="white" stroke="#666666" points="109,-103 0,-103 0,-69.5 109,-69.5 109,-103"/>
<text text-anchor="start" x="8" y="-89.5" font-family="Helvetica,sans-Serif" font-size="10.00">llzk/Dialect/Include</text>
<text text-anchor="middle" x="54.5" y="-76.75" font-family="Helvetica,sans-Serif" font-size="10.00">/IR/Dialect.h</text>
</a>
</g>
</g>
<!-- Node10&#45;&gt;Node24 -->
<g id="edge28_Node000010_Node000024" class="edge">
<title>Node10&#45;&gt;Node24</title>
<g id="a_edge28_Node000010_Node000024"><a xlink:title=" ">
<path fill="none" stroke="#63b8ff" d="M879.28,-154.62C746.3,-153.56 410.06,-146.57 120.34,-103.08"/>
<polygon fill="#63b8ff" stroke="#63b8ff" points="121.09,-99.66 110.68,-101.61 120.04,-106.58 121.09,-99.66"/>
</a>
</g>
</g>
<!-- Node26 -->
<g id="Node000026" class="node">
<title>Node26</title>
<g id="a_Node000026"><a xlink:href="LLZK_2IR_2Dialect_8h.html" target="_top" xlink:title=" ">
<polygon fill="white" stroke="#666666" points="237.75,-103 127.25,-103 127.25,-69.5 237.75,-69.5 237.75,-103"/>
<text text-anchor="start" x="135.25" y="-89.5" font-family="Helvetica,sans-Serif" font-size="10.00">llzk/Dialect/LLZK/IR</text>
<text text-anchor="middle" x="182.5" y="-76.75" font-family="Helvetica,sans-Serif" font-size="10.00">/Dialect.h</text>
</a>
</g>
</g>
<!-- Node10&#45;&gt;Node26 -->
<g id="edge31_Node000010_Node000026" class="edge">
<title>Node10&#45;&gt;Node26</title>
<g id="a_edge31_Node000010_Node000026"><a xlink:title=" ">
<path fill="none" stroke="#63b8ff" d="M879.43,-153.58C762.13,-150.54 488.51,-139.94 249.41,-103.11"/>
<polygon fill="#63b8ff" stroke="#63b8ff" points="249.96,-99.66 239.54,-101.57 248.89,-106.57 249.96,-99.66"/>
</a>
</g>
</g>
<!-- Node28 -->
<g id="Node000028" class="node">
<title>Node28</title>
<g id="a_Node000028"><a xlink:href="Polymorphic_2IR_2Dialect_8h.html" target="_top" xlink:title=" ">
<polygon fill="white" stroke="#666666" points="390.75,-103 256.25,-103 256.25,-69.5 390.75,-69.5 390.75,-103"/>
<text text-anchor="start" x="264.25" y="-89.5" font-family="Helvetica,sans-Serif" font-size="10.00">llzk/Dialect/Polymorphic</text>
<text text-anchor="middle" x="323.5" y="-76.75" font-family="Helvetica,sans-Serif" font-size="10.00">/IR/Dialect.h</text>
</a>
</g>
</g>
<!-- Node10&#45;&gt;Node28 -->
<g id="edge34_Node000010_Node000028" class="edge">
<title>Node10&#45;&gt;Node28</title>
<g id="a_edge34_Node000010_Node000028"><a xlink:title=" ">
<path fill="none" stroke="#63b8ff" d="M879.13,-151.22C782.12,-144.89 581.44,-129.88 402.21,-103.31"/>
<polygon fill="#63b8ff" stroke="#63b8ff" points="402.88,-99.88 392.47,-101.85 401.84,-106.8 402.88,-99.88"/>
</a>
</g>
</g>
<!-- Node30 -->
<g id="Node000030" class="node">
<title>Node30</title>
<g id="a_Node000030"><a xlink:href="String_2IR_2Dialect_8h.html" target="_top" xlink:title=" ">
<polygon fill="white" stroke="#666666" points="510.62,-103 408.38,-103 408.38,-69.5 510.62,-69.5 510.62,-103"/>
<text text-anchor="start" x="416.38" y="-89.5" font-family="Helvetica,sans-Serif" font-size="10.00">llzk/Dialect/String</text>
<text text-anchor="middle" x="459.5" y="-76.75" font-family="Helvetica,sans-Serif" font-size="10.00">/IR/Dialect.h</text>
</a>
</g>
</g>
<!-- Node10&#45;&gt;Node30 -->
<g id="edge37_Node000010_Node000030" class="edge">
<title>Node10&#45;&gt;Node30</title>
<g id="a_edge37_Node000010_Node000030"><a xlink:title=" ">
<path fill="none" stroke="#63b8ff" d="M879.3,-150.02C800.41,-143.06 655.01,-128.31 522.27,-103.39"/>
<polygon fill="#63b8ff" stroke="#63b8ff" points="523.08,-99.98 512.6,-101.55 521.77,-106.86 523.08,-99.98"/>
</a>
</g>
</g>
<!-- Node32 -->
<g id="Node000032" class="node">
<title>Node32</title>
<g id="a_Node000032"><a xlink:href="Struct_2IR_2Dialect_8h.html" target="_top" xlink:title=" ">
<polygon fill="white" stroke="#666666" points="748.62,-103 646.38,-103 646.38,-69.5 748.62,-69.5 748.62,-103"/>
<text text-anchor="start" x="654.38" y="-89.5" font-family="Helvetica,sans-Serif" font-size="10.00">llzk/Dialect/Struct</text>
<text text-anchor="middle" x="697.5" y="-76.75" font-family="Helvetica,sans-Serif" font-size="10.00">/IR/Dialect.h</text>
</a>
</g>
</g>
<!-- Node10&#45;&gt;Node32 -->
<g id="edge40_Node000010_Node000032" class="edge">
<title>Node10&#45;&gt;Node32</title>
<g id="a_edge40_Node000010_Node000032"><a xlink:title=" ">
<path fill="none" stroke="#63b8ff" d="M902.6,-144.93C865.25,-134.43 805.23,-117.55 759.75,-104.76"/>
<polygon fill="#63b8ff" stroke="#63b8ff" points="760.85,-101.43 750.27,-102.09 758.95,-108.17 760.85,-101.43"/>
</a>
</g>
</g>
<!-- Node34 -->
<g id="Node000034" class="node">
<title>Node34</title>
<g id="a_Node000034"><a xlink:title=" ">
<polygon fill="#e0e0e0" stroke="#999999" points="866.12,-103 766.88,-103 766.88,-69.5 866.12,-69.5 866.12,-103"/>
<text text-anchor="start" x="774.88" y="-89.5" font-family="Helvetica,sans-Serif" font-size="10.00">mlir/Dialect/Arith</text>
<text text-anchor="middle" x="816.5" y="-76.75" font-family="Helvetica,sans-Serif" font-size="10.00">/IR/Arith.h</text>
</a>
</g>
</g>
<!-- Node10&#45;&gt;Node34 -->
<g id="edge43_Node000010_Node000034" class="edge">
<title>Node10&#45;&gt;Node34</title>
<g id="a_edge43_Node000010_Node000034"><a xlink:title=" ">
<path fill="none" stroke="#63b8ff" d="M919.91,-144.93C903.04,-135.53 877.02,-121.01 855.3,-108.89"/>
<polygon fill="#63b8ff" stroke="#63b8ff" points="857.12,-105.9 846.68,-104.08 853.71,-112.01 857.12,-105.9"/>
</a>
</g>
</g>
<!-- Node35 -->
<g id="Node000035" class="node">
<title>Node35</title>
<g id="a_Node000035"><a xlink:title=" ">
<polygon fill="#e0e0e0" stroke="#999999" points="991.25,-103 883.75,-103 883.75,-69.5 991.25,-69.5 991.25,-103"/>
<text text-anchor="start" x="891.75" y="-89.5" font-family="Helvetica,sans-Serif" font-size="10.00">mlir/Dialect/SCF/IR</text>
<text text-anchor="middle" x="937.5" y="-76.75" font-family="Helvetica,sans-Serif" font-size="10.00">/SCF.h</text>
</a>
</g>
</g>
<!-- Node10&#45;&gt;Node35 -->
<g id="edge44_Node000010_Node000035" class="edge">
<title>Node10&#45;&gt;Node35</title>
<g id="a_edge44_Node000010_Node000035"><a xlink:title=" ">
<path fill="none" stroke="#63b8ff" d="M937.5,-145.08C937.5,-137.19 937.5,-125.63 937.5,-114.91"/>
<polygon fill="#63b8ff" stroke="#63b8ff" points="941,-114.93 937.5,-104.93 934,-114.93 941,-114.93"/>
</a>
</g>
</g>
<!-- Node12 -->
<g id="Node000012" class="node">
<title>Node12</title>
<g id="a_Node000012"><a xlink:title=" ">
<polygon fill="#e0e0e0" stroke="#999999" points="876.75,-27.12 766.25,-27.12 766.25,-6.38 876.75,-6.38 876.75,-27.12"/>
<text text-anchor="middle" x="821.5" y="-13.62" font-family="Helvetica,sans-Serif" font-size="10.00">mlir/IR/BuiltinOps.h</text>
</a>
</g>
</g>
<!-- Node11&#45;&gt;Node12 -->
<g id="edge11_Node000011_Node000012" class="edge">
<title>Node11&#45;&gt;Node12</title>
<g id="a_edge11_Node000011_Node000012"><a xlink:title=" ">
<path fill="none" stroke="#63b8ff" d="M628.85,-71.26C671.89,-59.31 733.32,-42.24 775.17,-30.62"/>
<polygon fill="#63b8ff" stroke="#63b8ff" points="776,-34.02 784.7,-27.97 774.12,-27.28 776,-34.02"/>
</a>
</g>
</g>
<!-- Node13 -->
<g id="Node000013" class="node">
<title>Node13</title>
<g id="a_Node000013"><a xlink:href="Array_2IR_2Dialect_8h_8inc.html" target="_top" xlink:title=" ">
<polygon fill="white" stroke="#666666" points="628.5,-33.5 528.5,-33.5 528.5,0 628.5,0 628.5,-33.5"/>
<text text-anchor="start" x="536.5" y="-20" font-family="Helvetica,sans-Serif" font-size="10.00">llzk/Dialect/Array</text>
<text text-anchor="middle" x="578.5" y="-7.25" font-family="Helvetica,sans-Serif" font-size="10.00">/IR/Dialect.h.inc</text>
</a>
</g>
</g>
<!-- Node11&#45;&gt;Node13 -->
<g id="edge12_Node000011_Node000013" class="edge">
<title>Node11&#45;&gt;Node13</title>
<g id="a_edge12_Node000011_Node000013"><a xlink:title=" ">
<path fill="none" stroke="#63b8ff" d="M578.5,-69.25C578.5,-62.02 578.5,-53.28 578.5,-45.06"/>
<polygon fill="#63b8ff" stroke="#63b8ff" points="582,-45.15 578.5,-35.15 575,-45.15 582,-45.15"/>
</a>
</g>
</g>
<!-- Node14&#45;&gt;Node12 -->
<g id="edge14_Node000014_Node000012" class="edge">
<title>Node14&#45;&gt;Node12</title>
<g id="a_edge14_Node000014_Node000012"><a xlink:title=" ">
<path fill="none" stroke="#63b8ff" d="M1008.89,-70.02C966.33,-58.15 907.9,-41.85 867.66,-30.62"/>
<polygon fill="#63b8ff" stroke="#63b8ff" points="868.85,-27.32 858.27,-28.01 866.97,-34.07 868.85,-27.32"/>
</a>
</g>
</g>
<!-- Node15 -->
<g id="Node000015" class="node">
<title>Node15</title>
<g id="a_Node000015"><a xlink:href="Bool_2IR_2Dialect_8h_8inc.html" target="_top" xlink:title=" ">
<polygon fill="white" stroke="#666666" points="1117.62,-33.5 1009.38,-33.5 1009.38,0 1117.62,0 1117.62,-33.5"/>
<text text-anchor="start" x="1017.38" y="-20" font-family="Helvetica,sans-Serif" font-size="10.00">llzk/Dialect/Bool/IR</text>
<text text-anchor="middle" x="1063.5" y="-7.25" font-family="Helvetica,sans-Serif" font-size="10.00">/Dialect.h.inc</text>
</a>
</g>
</g>
<!-- Node14&#45;&gt;Node15 -->
<g id="edge15_Node000014_Node000015" class="edge">
<title>Node14&#45;&gt;Node15</title>
<g id="a_edge15_Node000014_Node000015"><a xlink:title=" ">
<path fill="none" stroke="#63b8ff" d="M1063.5,-69.25C1063.5,-62.02 1063.5,-53.28 1063.5,-45.06"/>
<polygon fill="#63b8ff" stroke="#63b8ff" points="1067,-45.15 1063.5,-35.15 1060,-45.15 1067,-45.15"/>
</a>
</g>
</g>
<!-- Node16&#45;&gt;Node12 -->
<g id="edge17_Node000016_Node000012" class="edge">
<title>Node16&#45;&gt;Node12</title>
<g id="a_edge17_Node000016_Node000012"><a xlink:title=" ">
<path fill="none" stroke="#63b8ff" d="M1134.96,-71.23C1132.1,-70.63 1129.27,-70.05 1126.5,-69.5 1044.8,-53.26 950.14,-37.7 888.22,-27.96"/>
<polygon fill="#63b8ff" stroke="#63b8ff" points="888.97,-24.54 878.54,-26.45 887.88,-31.45 888.97,-24.54"/>
</a>
</g>
</g>
<!-- Node17 -->
<g id="Node000017" class="node">
<title>Node17</title>
<g id="a_Node000017"><a xlink:href="Constrain_2IR_2Dialect_8h_8inc.html" target="_top" xlink:title=" ">
<polygon fill="white" stroke="#666666" points="1255.62,-33.5 1135.38,-33.5 1135.38,0 1255.62,0 1255.62,-33.5"/>
<text text-anchor="start" x="1143.38" y="-20" font-family="Helvetica,sans-Serif" font-size="10.00">llzk/Dialect/Constrain</text>
<text text-anchor="middle" x="1195.5" y="-7.25" font-family="Helvetica,sans-Serif" font-size="10.00">/IR/Dialect.h.inc</text>
</a>
</g>
</g>
<!-- Node16&#45;&gt;Node17 -->
<g id="edge18_Node000016_Node000017" class="edge">
<title>Node16&#45;&gt;Node17</title>
<g id="a_edge18_Node000016_Node000017"><a xlink:title=" ">
<path fill="none" stroke="#63b8ff" d="M1195.5,-69.25C1195.5,-62.02 1195.5,-53.28 1195.5,-45.06"/>
<polygon fill="#63b8ff" stroke="#63b8ff" points="1199,-45.15 1195.5,-35.15 1192,-45.15 1199,-45.15"/>
</a>
</g>
</g>
<!-- Node18&#45;&gt;Node12 -->
<g id="edge20_Node000018_Node000012" class="edge">
<title>Node18&#45;&gt;Node12</title>
<g id="a_edge20_Node000018_Node000012"><a xlink:title=" ">
<path fill="none" stroke="#63b8ff" d="M1273.03,-71.22C1270.15,-70.6 1267.3,-70.02 1264.5,-69.5 1194.07,-56.36 993.96,-35.17 888.47,-24.44"/>
<polygon fill="#63b8ff" stroke="#63b8ff" points="888.83,-20.96 878.52,-23.43 888.12,-27.92 888.83,-20.96"/>
</a>
</g>
</g>
<!-- Node19 -->
<g id="Node000019" class="node">
<title>Node19</title>
<g id="a_Node000019"><a xlink:href="Felt_2IR_2Dialect_8h_8inc.html" target="_top" xlink:title=" ">
<polygon fill="white" stroke="#666666" points="1377.75,-33.5 1273.25,-33.5 1273.25,0 1377.75,0 1377.75,-33.5"/>
<text text-anchor="start" x="1281.25" y="-20" font-family="Helvetica,sans-Serif" font-size="10.00">llzk/Dialect/Felt/IR</text>
<text text-anchor="middle" x="1325.5" y="-7.25" font-family="Helvetica,sans-Serif" font-size="10.00">/Dialect.h.inc</text>
</a>
</g>
</g>
<!-- Node18&#45;&gt;Node19 -->
<g id="edge21_Node000018_Node000019" class="edge">
<title>Node18&#45;&gt;Node19</title>
<g id="a_edge21_Node000018_Node000019"><a xlink:title=" ">
<path fill="none" stroke="#63b8ff" d="M1325.5,-69.25C1325.5,-62.02 1325.5,-53.28 1325.5,-45.06"/>
<polygon fill="#63b8ff" stroke="#63b8ff" points="1329,-45.15 1325.5,-35.15 1322,-45.15 1329,-45.15"/>
</a>
</g>
</g>
<!-- Node20&#45;&gt;Node12 -->
<g id="edge23_Node000020_Node000012" class="edge">
<title>Node20&#45;&gt;Node12</title>
<g id="a_edge23_Node000020_Node000012"><a xlink:title=" ">
<path fill="none" stroke="#63b8ff" d="M1395.86,-71.16C1392.7,-70.56 1389.57,-70 1386.5,-69.5 1362.26,-65.56 1032.76,-36.34 888.43,-23.63"/>
<polygon fill="#63b8ff" stroke="#63b8ff" points="888.9,-20.16 878.63,-22.77 888.28,-27.13 888.9,-20.16"/>
</a>
</g>
</g>
<!-- Node21 -->
<g id="Node000021" class="node">
<title>Node21</title>
<g id="a_Node000021"><a xlink:href="Function_2IR_2Dialect_8h_8inc.html" target="_top" xlink:title=" ">
<polygon fill="white" stroke="#666666" points="1511,-33.5 1396,-33.5 1396,0 1511,0 1511,-33.5"/>
<text text-anchor="start" x="1404" y="-20" font-family="Helvetica,sans-Serif" font-size="10.00">llzk/Dialect/Function</text>
<text text-anchor="middle" x="1453.5" y="-7.25" font-family="Helvetica,sans-Serif" font-size="10.00">/IR/Dialect.h.inc</text>
</a>
</g>
</g>
<!-- Node20&#45;&gt;Node21 -->
<g id="edge24_Node000020_Node000021" class="edge">
<title>Node20&#45;&gt;Node21</title>
<g id="a_edge24_Node000020_Node000021"><a xlink:title=" ">
<path fill="none" stroke="#63b8ff" d="M1453.5,-69.25C1453.5,-62.02 1453.5,-53.28 1453.5,-45.06"/>
<polygon fill="#63b8ff" stroke="#63b8ff" points="1457,-45.15 1453.5,-35.15 1450,-45.15 1457,-45.15"/>
</a>
</g>
</g>
<!-- Node22&#45;&gt;Node12 -->
<g id="edge26_Node000022_Node000012" class="edge">
<title>Node22&#45;&gt;Node12</title>
<g id="a_edge26_Node000022_Node000012"><a xlink:title=" ">
<path fill="none" stroke="#63b8ff" d="M1528.53,-71.13C1525.49,-70.52 1522.46,-69.97 1519.5,-69.5 1291.2,-32.89 1231.01,-51.63 1000.5,-33.5 963.34,-30.58 921.87,-26.95 888.21,-23.92"/>
<polygon fill="#63b8ff" stroke="#63b8ff" points="888.89,-20.46 878.62,-23.05 888.26,-27.43 888.89,-20.46"/>
</a>
</g>
</g>
<!-- Node23 -->
<g id="Node000023" class="node">
<title>Node23</title>
<g id="a_Node000023"><a xlink:href="Global_2IR_2Dialect_8h_8inc.html" target="_top" xlink:title=" ">
<polygon fill="white" stroke="#666666" points="1634.12,-33.5 1528.88,-33.5 1528.88,0 1634.12,0 1634.12,-33.5"/>
<text text-anchor="start" x="1536.88" y="-20" font-family="Helvetica,sans-Serif" font-size="10.00">llzk/Dialect/Global</text>
<text text-anchor="middle" x="1581.5" y="-7.25" font-family="Helvetica,sans-Serif" font-size="10.00">/IR/Dialect.h.inc</text>
</a>
</g>
</g>
<!-- Node22&#45;&gt;Node23 -->
<g id="edge27_Node000022_Node000023" class="edge">
<title>Node22&#45;&gt;Node23</title>
<g id="a_edge27_Node000022_Node000023"><a xlink:title=" ">
<path fill="none" stroke="#63b8ff" d="M1581.5,-69.25C1581.5,-62.02 1581.5,-53.28 1581.5,-45.06"/>
<polygon fill="#63b8ff" stroke="#63b8ff" points="1585,-45.15 1581.5,-35.15 1578,-45.15 1585,-45.15"/>
</a>
</g>
</g>
<!-- Node24&#45;&gt;Node12 -->
<g id="edge29_Node000024_Node000012" class="edge">
<title>Node24&#45;&gt;Node12</title>
<g id="a_edge29_Node000024_Node000012"><a xlink:title=" ">
<path fill="none" stroke="#63b8ff" d="M109.18,-71.09C112.32,-70.49 115.44,-69.96 118.5,-69.5 399.81,-27.33 476.19,-75.67 757.5,-33.5 763.44,-32.61 769.64,-31.42 775.73,-30.1"/>
<polygon fill="#63b8ff" stroke="#63b8ff" points="776.1,-33.6 785.05,-27.94 774.52,-26.79 776.1,-33.6"/>
</a>
</g>
</g>
<!-- Node25 -->
<g id="Node000025" class="node">
<title>Node25</title>
<g id="a_Node000025"><a xlink:href="Include_2IR_2Dialect_8h_8inc.html" target="_top" xlink:title=" ">
<polygon fill="white" stroke="#666666" points="109,-33.5 0,-33.5 0,0 109,0 109,-33.5"/>
<text text-anchor="start" x="8" y="-20" font-family="Helvetica,sans-Serif" font-size="10.00">llzk/Dialect/Include</text>
<text text-anchor="middle" x="54.5" y="-7.25" font-family="Helvetica,sans-Serif" font-size="10.00">/IR/Dialect.h.inc</text>
</a>
</g>
</g>
<!-- Node24&#45;&gt;Node25 -->
<g id="edge30_Node000024_Node000025" class="edge">
<title>Node24&#45;&gt;Node25</title>
<g id="a_edge30_Node000024_Node000025"><a xlink:title=" ">
<path fill="none" stroke="#63b8ff" d="M54.5,-69.25C54.5,-62.02 54.5,-53.28 54.5,-45.06"/>
<polygon fill="#63b8ff" stroke="#63b8ff" points="58,-45.15 54.5,-35.15 51,-45.15 58,-45.15"/>
</a>
</g>
</g>
<!-- Node26&#45;&gt;Node12 -->
<g id="edge32_Node000026_Node000012" class="edge">
<title>Node26&#45;&gt;Node12</title>
<g id="a_edge32_Node000026_Node000012"><a xlink:title=" ">
<path fill="none" stroke="#63b8ff" d="M238.05,-71.14C241.23,-70.54 244.4,-69.98 247.5,-69.5 472.04,-34.62 533.02,-68.78 757.5,-33.5 763.22,-32.6 769.17,-31.44 775.05,-30.16"/>
<polygon fill="#63b8ff" stroke="#63b8ff" points="775.75,-33.59 784.7,-27.93 774.17,-26.77 775.75,-33.59"/>
</a>
</g>
</g>
<!-- Node27 -->
<g id="Node000027" class="node">
<title>Node27</title>
<g id="a_Node000027"><a xlink:href="LLZK_2IR_2Dialect_8h_8inc.html" target="_top" xlink:title=" ">
<polygon fill="white" stroke="#666666" points="237.75,-33.5 127.25,-33.5 127.25,0 237.75,0 237.75,-33.5"/>
<text text-anchor="start" x="135.25" y="-20" font-family="Helvetica,sans-Serif" font-size="10.00">llzk/Dialect/LLZK/IR</text>
<text text-anchor="middle" x="182.5" y="-7.25" font-family="Helvetica,sans-Serif" font-size="10.00">/Dialect.h.inc</text>
</a>
</g>
</g>
<!-- Node26&#45;&gt;Node27 -->
<g id="edge33_Node000026_Node000027" class="edge">
<title>Node26&#45;&gt;Node27</title>
<g id="a_edge33_Node000026_Node000027"><a xlink:title=" ">
<path fill="none" stroke="#63b8ff" d="M182.5,-69.25C182.5,-62.02 182.5,-53.28 182.5,-45.06"/>
<polygon fill="#63b8ff" stroke="#63b8ff" points="186,-45.15 182.5,-35.15 179,-45.15 186,-45.15"/>
</a>
</g>
</g>
<!-- Node28&#45;&gt;Node12 -->
<g id="edge35_Node000028_Node000012" class="edge">
<title>Node28&#45;&gt;Node12</title>
<g id="a_edge35_Node000028_Node000012"><a xlink:title=" ">
<path fill="none" stroke="#63b8ff" d="M390.98,-70.89C393.85,-70.39 396.7,-69.93 399.5,-69.5 557.56,-45.24 599.91,-60.67 757.5,-33.5 763.07,-32.54 768.86,-31.37 774.6,-30.09"/>
<polygon fill="#63b8ff" stroke="#63b8ff" points="775.05,-33.58 784,-27.9 773.46,-26.76 775.05,-33.58"/>
</a>
</g>
</g>
<!-- Node29 -->
<g id="Node000029" class="node">
<title>Node29</title>
<g id="a_Node000029"><a xlink:href="Polymorphic_2IR_2Dialect_8h_8inc.html" target="_top" xlink:title=" ">
<polygon fill="white" stroke="#666666" points="390.75,-33.5 256.25,-33.5 256.25,0 390.75,0 390.75,-33.5"/>
<text text-anchor="start" x="264.25" y="-20" font-family="Helvetica,sans-Serif" font-size="10.00">llzk/Dialect/Polymorphic</text>
<text text-anchor="middle" x="323.5" y="-7.25" font-family="Helvetica,sans-Serif" font-size="10.00">/IR/Dialect.h.inc</text>
</a>
</g>
</g>
<!-- Node28&#45;&gt;Node29 -->
<g id="edge36_Node000028_Node000029" class="edge">
<title>Node28&#45;&gt;Node29</title>
<g id="a_edge36_Node000028_Node000029"><a xlink:title=" ">
<path fill="none" stroke="#63b8ff" d="M323.5,-69.25C323.5,-62.02 323.5,-53.28 323.5,-45.06"/>
<polygon fill="#63b8ff" stroke="#63b8ff" points="327,-45.15 323.5,-35.15 320,-45.15 327,-45.15"/>
</a>
</g>
</g>
<!-- Node30&#45;&gt;Node12 -->
<g id="edge38_Node000030_Node000012" class="edge">
<title>Node30&#45;&gt;Node12</title>
<g id="a_edge38_Node000030_Node000012"><a xlink:title=" ">
<path fill="none" stroke="#63b8ff" d="M510.8,-71.4C513.74,-70.73 516.65,-70.09 519.5,-69.5 624.28,-47.89 652.56,-54.3 757.5,-33.5 762.5,-32.51 767.69,-31.39 772.86,-30.21"/>
<polygon fill="#63b8ff" stroke="#63b8ff" points="773.66,-33.62 782.59,-27.92 772.05,-26.8 773.66,-33.62"/>
</a>
</g>
</g>
<!-- Node31 -->
<g id="Node000031" class="node">
<title>Node31</title>
<g id="a_Node000031"><a xlink:href="String_2IR_2Dialect_8h_8inc.html" target="_top" xlink:title=" ">
<polygon fill="white" stroke="#666666" points="510.62,-33.5 408.38,-33.5 408.38,0 510.62,0 510.62,-33.5"/>
<text text-anchor="start" x="416.38" y="-20" font-family="Helvetica,sans-Serif" font-size="10.00">llzk/Dialect/String</text>
<text text-anchor="middle" x="459.5" y="-7.25" font-family="Helvetica,sans-Serif" font-size="10.00">/IR/Dialect.h.inc</text>
</a>
</g>
</g>
<!-- Node30&#45;&gt;Node31 -->
<g id="edge39_Node000030_Node000031" class="edge">
<title>Node30&#45;&gt;Node31</title>
<g id="a_edge39_Node000030_Node000031"><a xlink:title=" ">
<path fill="none" stroke="#63b8ff" d="M459.5,-69.25C459.5,-62.02 459.5,-53.28 459.5,-45.06"/>
<polygon fill="#63b8ff" stroke="#63b8ff" points="463,-45.15 459.5,-35.15 456,-45.15 463,-45.15"/>
</a>
</g>
</g>
<!-- Node32&#45;&gt;Node12 -->
<g id="edge41_Node000032_Node000012" class="edge">
<title>Node32&#45;&gt;Node12</title>
<g id="a_edge41_Node000032_Node000012"><a xlink:title=" ">
<path fill="none" stroke="#63b8ff" d="M727.2,-69.08C747.36,-58.11 773.85,-43.69 793.62,-32.93"/>
<polygon fill="#63b8ff" stroke="#63b8ff" points="795.11,-36.1 802.22,-28.24 791.76,-29.95 795.11,-36.1"/>
</a>
</g>
</g>
<!-- Node33 -->
<g id="Node000033" class="node">
<title>Node33</title>
<g id="a_Node000033"><a xlink:href="Struct_2IR_2Dialect_8h_8inc.html" target="_top" xlink:title=" ">
<polygon fill="white" stroke="#666666" points="748.62,-33.5 646.38,-33.5 646.38,0 748.62,0 748.62,-33.5"/>
<text text-anchor="start" x="654.38" y="-20" font-family="Helvetica,sans-Serif" font-size="10.00">llzk/Dialect/Struct</text>
<text text-anchor="middle" x="697.5" y="-7.25" font-family="Helvetica,sans-Serif" font-size="10.00">/IR/Dialect.h.inc</text>
</a>
</g>
</g>
<!-- Node32&#45;&gt;Node33 -->
<g id="edge42_Node000032_Node000033" class="edge">
<title>Node32&#45;&gt;Node33</title>
<g id="a_edge42_Node000032_Node000033"><a xlink:title=" ">
<path fill="none" stroke="#63b8ff" d="M697.5,-69.25C697.5,-62.02 697.5,-53.28 697.5,-45.06"/>
<polygon fill="#63b8ff" stroke="#63b8ff" points="701,-45.15 697.5,-35.15 694,-45.15 701,-45.15"/>
</a>
</g>
</g>
<!-- Node38 -->
<g id="Node000038" class="node">
<title>Node38</title>
<g id="a_Node000038"><a xlink:title=" ">
<polygon fill="#e0e0e0" stroke="#999999" points="2560.75,-166.12 2438.25,-166.12 2438.25,-145.38 2560.75,-145.38 2560.75,-166.12"/>
<text text-anchor="middle" x="2499.5" y="-152.62" font-family="Helvetica,sans-Serif" font-size="10.00">mlir/IR/SymbolTable.h</text>
</a>
</g>
</g>
<!-- Node37&#45;&gt;Node38 -->
<g id="edge48_Node000037_Node000038" class="edge">
<title>Node37&#45;&gt;Node38</title>
<g id="a_edge48_Node000037_Node000038"><a xlink:title=" ">
<path fill="none" stroke="#63b8ff" d="M2559.93,-208.05C2549.06,-198.82 2532.55,-184.81 2519.53,-173.76"/>
<polygon fill="#63b8ff" stroke="#63b8ff" points="2521.84,-171.13 2511.96,-167.32 2517.31,-176.46 2521.84,-171.13"/>
</a>
</g>
</g>
<!-- Node39 -->
<g id="Node000039" class="node">
<title>Node39</title>
<g id="a_Node000039"><a xlink:title=" ">
<polygon fill="#e0e0e0" stroke="#999999" points="2707.75,-166.12 2579.25,-166.12 2579.25,-145.38 2707.75,-145.38 2707.75,-166.12"/>
<text text-anchor="middle" x="2643.5" y="-152.62" font-family="Helvetica,sans-Serif" font-size="10.00">llvm/ADT/GraphTraits.h</text>
</a>
</g>
</g>
<!-- Node37&#45;&gt;Node39 -->
<g id="edge49_Node000037_Node000039" class="edge">
<title>Node37&#45;&gt;Node39</title>
<g id="a_edge49_Node000037_Node000039"><a xlink:title=" ">
<path fill="none" stroke="#63b8ff" d="M2583.07,-208.05C2593.94,-198.82 2610.45,-184.81 2623.47,-173.76"/>
<polygon fill="#63b8ff" stroke="#63b8ff" points="2625.69,-176.46 2631.04,-167.32 2621.16,-171.13 2625.69,-176.46"/>
</a>
</g>
</g>
<!-- Node40 -->
<g id="Node000040" class="node">
<title>Node40</title>
<g id="a_Node000040"><a xlink:title=" ">
<polygon fill="#e0e0e0" stroke="#999999" points="2849.5,-166.12 2725.5,-166.12 2725.5,-145.38 2849.5,-145.38 2849.5,-166.12"/>
<text text-anchor="middle" x="2787.5" y="-152.62" font-family="Helvetica,sans-Serif" font-size="10.00">llvm/ADT/MapVector.h</text>
</a>
</g>
</g>
<!-- Node37&#45;&gt;Node40 -->
<g id="edge50_Node000037_Node000040" class="edge">
<title>Node37&#45;&gt;Node40</title>
<g id="a_edge50_Node000037_Node000040"><a xlink:title=" ">
<path fill="none" stroke="#63b8ff" d="M2606.2,-208.05C2643.05,-197.63 2701.44,-181.1 2741.96,-169.64"/>
<polygon fill="#63b8ff" stroke="#63b8ff" points="2742.76,-173.05 2751.43,-166.96 2740.85,-166.31 2742.76,-173.05"/>
</a>
</g>
</g>
<!-- Node41 -->
<g id="Node000041" class="node">
<title>Node41</title>
<g id="a_Node000041"><a xlink:title=" ">
<polygon fill="#e0e0e0" stroke="#999999" points="2985.88,-166.12 2867.12,-166.12 2867.12,-145.38 2985.88,-145.38 2985.88,-166.12"/>
<text text-anchor="middle" x="2926.5" y="-152.62" font-family="Helvetica,sans-Serif" font-size="10.00">llvm/ADT/SetVector.h</text>
</a>
</g>
</g>
<!-- Node37&#45;&gt;Node41 -->
<g id="edge51_Node000037_Node000041" class="edge">
<title>Node37&#45;&gt;Node41</title>
<g id="a_edge51_Node000037_Node000041"><a xlink:title=" ">
<path fill="none" stroke="#63b8ff" d="M2642.81,-208.03C2701.03,-199.66 2785.34,-186.74 2858.5,-172.5 2864.01,-171.43 2869.75,-170.23 2875.46,-168.98"/>
<polygon fill="#63b8ff" stroke="#63b8ff" points="2875.86,-172.48 2884.85,-166.88 2874.33,-165.65 2875.86,-172.48"/>
</a>
</g>
</g>
<!-- Node42 -->
<g id="Node000042" class="node">
<title>Node42</title>
<g id="a_Node000042"><a xlink:title=" ">
<polygon fill="#e0e0e0" stroke="#999999" points="2419.88,-166.12 2253.12,-166.12 2253.12,-145.38 2419.88,-145.38 2419.88,-166.12"/>
<text text-anchor="middle" x="2336.5" y="-152.62" font-family="Helvetica,sans-Serif" font-size="10.00">llvm/Support/DOTGraphTraits.h</text>
</a>
</g>
</g>
<!-- Node37&#45;&gt;Node42 -->
<g id="edge52_Node000037_Node000042" class="edge">
<title>Node37&#45;&gt;Node42</title>
<g id="a_edge52_Node000037_Node000042"><a xlink:title=" ">
<path fill="none" stroke="#63b8ff" d="M2533.74,-208.05C2493.4,-197.56 2429.31,-180.89 2385.2,-169.42"/>
<polygon fill="#63b8ff" stroke="#63b8ff" points="2386.19,-166.06 2375.63,-166.93 2384.42,-172.83 2386.19,-166.06"/>
</a>
</g>
</g>
</g>
</svg>
