<?xml version="1.0" encoding="UTF-8" standalone="no"?>
<!DOCTYPE svg PUBLIC "-//W3C//DTD SVG 1.1//EN"
 "http://www.w3.org/Graphics/SVG/1.1/DTD/svg11.dtd">
<!-- Generated by graphviz version 12.2.1 (0)
 -->
<!-- Title: include/llzk/Util/SymbolLookup.h Pages: 1 -->
<svg width="923pt" height="98pt"
 viewBox="0.00 0.00 922.50 98.25" xmlns="http://www.w3.org/2000/svg" xmlns:xlink="http://www.w3.org/1999/xlink">
<g id="graph0" class="graph" transform="scale(1 1) rotate(0) translate(4 94.25)">
<title>include/llzk/Util/SymbolLookup.h</title>
<!-- Node1 -->
<g id="Node000001" class="node">
<title>Node1</title>
<g id="a_Node000001"><a xlink:title="This file defines methods symbol lookup across LLZK operations and included files.">
<polygon fill="#999999" stroke="#666666" points="583.88,-90.25 452.38,-90.25 452.38,-56.75 583.88,-56.75 583.88,-90.25"/>
<text text-anchor="start" x="460.38" y="-76.75" font-family="Helvetica,sans-Serif" font-size="10.00">include/llzk/Util/Symbol</text>
<text text-anchor="middle" x="518.12" y="-64" font-family="Helvetica,sans-Serif" font-size="10.00">Lookup.h</text>
</a>
</g>
</g>
<!-- Node2 -->
<g id="Node000002" class="node">
<title>Node2</title>
<g id="a_Node000002"><a xlink:href="llzk_2Util_2Constants_8h.html" target="_top" xlink:title=" ">
<polygon fill="white" stroke="#666666" points="114.25,-20.75 0,-20.75 0,0 114.25,0 114.25,-20.75"/>
<text text-anchor="middle" x="57.12" y="-7.25" font-family="Helvetica,sans-Serif" font-size="10.00">llzk/Util/Constants.h</text>
</a>
</g>
</g>
<!-- Node1&#45;&gt;Node2 -->
<g id="edge1_Node000001_Node000002" class="edge">
<title>Node1&#45;&gt;Node2</title>
<g id="a_edge1_Node000001_Node000002"><a xlink:title=" ">
<path fill="none" stroke="#63b8ff" d="M452.05,-64.07C375.96,-54.3 246.88,-37.59 126.01,-21.13"/>
<polygon fill="#63b8ff" stroke="#63b8ff" points="126.59,-17.68 116.21,-19.8 125.65,-24.62 126.59,-17.68"/>
</a>
</g>
</g>
<!-- Node3 -->
<g id="Node000003" class="node">
<title>Node3</title>
<g id="a_Node000003"><a xlink:title=" ">
<polygon fill="#e0e0e0" stroke="#999999" points="242.38,-20.75 131.88,-20.75 131.88,0 242.38,0 242.38,-20.75"/>
<text text-anchor="middle" x="187.12" y="-7.25" font-family="Helvetica,sans-Serif" font-size="10.00">mlir/IR/BuiltinOps.h</text>
</a>
</g>
</g>
<!-- Node1&#45;&gt;Node3 -->
<g id="edge2_Node000001_Node000003" class="edge">
<title>Node1&#45;&gt;Node3</title>
<g id="a_edge2_Node000001_Node000003"><a xlink:title=" ">
<path fill="none" stroke="#63b8ff" d="M451.94,-60.28C393.66,-49.52 309.31,-33.94 251.56,-23.27"/>
<polygon fill="#63b8ff" stroke="#63b8ff" points="252.34,-19.86 241.87,-21.48 251.07,-26.74 252.34,-19.86"/>
</a>
</g>
</g>
<!-- Node4 -->
<g id="Node000004" class="node">
<title>Node4</title>
<g id="a_Node000004"><a xlink:title=" ">
<polygon fill="#e0e0e0" stroke="#999999" points="368.25,-20.75 260,-20.75 260,0 368.25,0 368.25,-20.75"/>
<text text-anchor="middle" x="314.12" y="-7.25" font-family="Helvetica,sans-Serif" font-size="10.00">mlir/IR/Operation.h</text>
</a>
</g>
</g>
<!-- Node1&#45;&gt;Node4 -->
<g id="edge3_Node000001_Node000004" class="edge">
<title>Node1&#45;&gt;Node4</title>
<g id="a_edge3_Node000001_Node000004"><a xlink:title=" ">
<path fill="none" stroke="#63b8ff" d="M463.99,-56.28C430.77,-46.33 388.79,-33.75 357.72,-24.44"/>
<polygon fill="#63b8ff" stroke="#63b8ff" points="358.83,-21.12 348.25,-21.6 356.82,-27.82 358.83,-21.12"/>
</a>
</g>
</g>
<!-- Node5 -->
<g id="Node000005" class="node">
<title>Node5</title>
<g id="a_Node000005"><a xlink:title=" ">
<polygon fill="#e0e0e0" stroke="#999999" points="512.25,-20.75 386,-20.75 386,0 512.25,0 512.25,-20.75"/>
<text text-anchor="middle" x="449.12" y="-7.25" font-family="Helvetica,sans-Serif" font-size="10.00">mlir/IR/OwningOpRef.h</text>
</a>
</g>
</g>
<!-- Node1&#45;&gt;Node5 -->
<g id="edge4_Node000001_Node000005" class="edge">
<title>Node1&#45;&gt;Node5</title>
<g id="a_edge4_Node000001_Node000005"><a xlink:title=" ">
<path fill="none" stroke="#63b8ff" d="M500,-56.44C490.34,-47.88 478.45,-37.35 468.59,-28.62"/>
<polygon fill="#63b8ff" stroke="#63b8ff" points="471.17,-26.23 461.37,-22.22 466.53,-31.47 471.17,-26.23"/>
</a>
</g>
</g>
<!-- Node6 -->
<g id="Node000006" class="node">
<title>Node6</title>
<g id="a_Node000006"><a xlink:title=" ">
<polygon fill="#e0e0e0" stroke="#999999" points="645.62,-20.75 530.62,-20.75 530.62,0 645.62,0 645.62,-20.75"/>
<text text-anchor="middle" x="588.12" y="-7.25" font-family="Helvetica,sans-Serif" font-size="10.00">llvm/ADT/ArrayRef.h</text>
</a>
</g>
</g>
<!-- Node1&#45;&gt;Node6 -->
<g id="edge5_Node000001_Node000006" class="edge">
<title>Node1&#45;&gt;Node6</title>
<g id="a_edge5_Node000001_Node000006"><a xlink:title=" ">
<path fill="none" stroke="#63b8ff" d="M536.52,-56.44C546.32,-47.88 558.38,-37.35 568.38,-28.62"/>
<polygon fill="#63b8ff" stroke="#63b8ff" points="570.48,-31.43 575.71,-22.21 565.88,-26.15 570.48,-31.43"/>
</a>
</g>
</g>
<!-- Node7 -->
<g id="Node000007" class="node">
<title>Node7</title>
<g id="a_Node000007"><a xlink:title=" ">
<polygon fill="#e0e0e0" stroke="#999999" points="780.75,-20.75 663.5,-20.75 663.5,0 780.75,0 780.75,-20.75"/>
<text text-anchor="middle" x="722.12" y="-7.25" font-family="Helvetica,sans-Serif" font-size="10.00">llvm/ADT/StringRef.h</text>
</a>
</g>
</g>
<!-- Node1&#45;&gt;Node7 -->
<g id="edge6_Node000001_Node000007" class="edge">
<title>Node1&#45;&gt;Node7</title>
<g id="a_edge6_Node000001_Node000007"><a xlink:title=" ">
<path fill="none" stroke="#63b8ff" d="M572.26,-56.28C605.48,-46.33 647.46,-33.75 678.53,-24.44"/>
<polygon fill="#63b8ff" stroke="#63b8ff" points="679.43,-27.82 688,-21.6 677.42,-21.12 679.43,-27.82"/>
</a>
</g>
</g>
<!-- Node8 -->
<g id="Node000008" class="node">
<title>Node8</title>
<g id="a_Node000008"><a xlink:title=" ">
<polygon fill="#e0e0e0" stroke="#999999" points="849.38,-20.75 798.88,-20.75 798.88,0 849.38,0 849.38,-20.75"/>
<text text-anchor="middle" x="824.12" y="-7.25" font-family="Helvetica,sans-Serif" font-size="10.00">variant</text>
</a>
</g>
</g>
<!-- Node1&#45;&gt;Node8 -->
<g id="edge7_Node000001_Node000008" class="edge">
<title>Node1&#45;&gt;Node8</title>
<g id="a_edge7_Node000001_Node000008"><a xlink:title=" ">
<path fill="none" stroke="#63b8ff" d="M584.12,-61.49C636.8,-52.34 712.72,-38.39 787.54,-21.22"/>
<polygon fill="#63b8ff" stroke="#63b8ff" points="788.14,-24.67 797.09,-19 786.56,-17.85 788.14,-24.67"/>
</a>
</g>
</g>
<!-- Node9 -->
<g id="Node000009" class="node">
<title>Node9</title>
<g id="a_Node000009"><a xlink:title=" ">
<polygon fill="#e0e0e0" stroke="#999999" points="914.5,-20.75 867.75,-20.75 867.75,0 914.5,0 914.5,-20.75"/>
<text text-anchor="middle" x="891.12" y="-7.25" font-family="Helvetica,sans-Serif" font-size="10.00">vector</text>
</a>
</g>
</g>
<!-- Node1&#45;&gt;Node9 -->
<g id="edge8_Node000001_Node000009" class="edge">
<title>Node1&#45;&gt;Node9</title>
<g id="a_edge8_Node000001_Node000009"><a xlink:title=" ">
<path fill="none" stroke="#63b8ff" d="M584.07,-64.96C650.48,-56.8 756.01,-42.32 856.46,-20.87"/>
<polygon fill="#63b8ff" stroke="#63b8ff" points="856.91,-24.35 865.94,-18.81 855.43,-17.51 856.91,-24.35"/>
</a>
</g>
</g>
</g>
</svg>
