<?xml version="1.0" encoding="UTF-8" standalone="no"?>
<!DOCTYPE svg PUBLIC "-//W3C//DTD SVG 1.1//EN"
 "http://www.w3.org/Graphics/SVG/1.1/DTD/svg11.dtd">
<!-- Generated by graphviz version 12.2.1 (0)
 -->
<!-- Title: include/llzk/Analysis/SymbolDefTree.h Pages: 1 -->
<svg width="741pt" height="98pt"
 viewBox="0.00 0.00 740.62 98.25" xmlns="http://www.w3.org/2000/svg" xmlns:xlink="http://www.w3.org/1999/xlink">
<g id="graph0" class="graph" transform="scale(1 1) rotate(0) translate(4 94.25)">
<title>include/llzk/Analysis/SymbolDefTree.h</title>
<!-- Node1 -->
<g id="Node000001" class="node">
<title>Node1</title>
<g id="a_Node000001"><a xlink:title=" ">
<polygon fill="#999999" stroke="#666666" points="407.12,-90.25 291.38,-90.25 291.38,-56.75 407.12,-56.75 407.12,-90.25"/>
<text text-anchor="start" x="299.38" y="-76.75" font-family="Helvetica,sans-Serif" font-size="10.00">include/llzk/Analysis</text>
<text text-anchor="middle" x="349.25" y="-64" font-family="Helvetica,sans-Serif" font-size="10.00">/SymbolDefTree.h</text>
</a>
</g>
</g>
<!-- Node2 -->
<g id="Node000002" class="node">
<title>Node2</title>
<g id="a_Node000002"><a xlink:title=" ">
<polygon fill="#e0e0e0" stroke="#999999" points="122.5,-20.75 0,-20.75 0,0 122.5,0 122.5,-20.75"/>
<text text-anchor="middle" x="61.25" y="-7.25" font-family="Helvetica,sans-Serif" font-size="10.00">mlir/IR/SymbolTable.h</text>
</a>
</g>
</g>
<!-- Node1&#45;&gt;Node2 -->
<g id="edge1_Node000001_Node000002" class="edge">
<title>Node1&#45;&gt;Node2</title>
<g id="a_edge1_Node000001_Node000002"><a xlink:title=" ">
<path fill="none" stroke="#63b8ff" d="M290.97,-60.13C240.8,-49.48 168.81,-34.2 118.84,-23.6"/>
<polygon fill="#63b8ff" stroke="#63b8ff" points="119.58,-20.18 109.07,-21.52 118.12,-27.02 119.58,-20.18"/>
</a>
</g>
</g>
<!-- Node3 -->
<g id="Node000003" class="node">
<title>Node3</title>
<g id="a_Node000003"><a xlink:title=" ">
<polygon fill="#e0e0e0" stroke="#999999" points="269.5,-20.75 141,-20.75 141,0 269.5,0 269.5,-20.75"/>
<text text-anchor="middle" x="205.25" y="-7.25" font-family="Helvetica,sans-Serif" font-size="10.00">llvm/ADT/GraphTraits.h</text>
</a>
</g>
</g>
<!-- Node1&#45;&gt;Node3 -->
<g id="edge2_Node000001_Node000003" class="edge">
<title>Node1&#45;&gt;Node3</title>
<g id="a_edge2_Node000001_Node000003"><a xlink:title=" ">
<path fill="none" stroke="#63b8ff" d="M311.04,-56.28C288.51,-46.72 260.28,-34.74 238.65,-25.55"/>
<polygon fill="#63b8ff" stroke="#63b8ff" points="240.28,-22.44 229.71,-21.76 237.54,-28.89 240.28,-22.44"/>
</a>
</g>
</g>
<!-- Node4 -->
<g id="Node000004" class="node">
<title>Node4</title>
<g id="a_Node000004"><a xlink:title=" ">
<polygon fill="#e0e0e0" stroke="#999999" points="411.25,-20.75 287.25,-20.75 287.25,0 411.25,0 411.25,-20.75"/>
<text text-anchor="middle" x="349.25" y="-7.25" font-family="Helvetica,sans-Serif" font-size="10.00">llvm/ADT/MapVector.h</text>
</a>
</g>
</g>
<!-- Node1&#45;&gt;Node4 -->
<g id="edge3_Node000001_Node000004" class="edge">
<title>Node1&#45;&gt;Node4</title>
<g id="a_edge3_Node000001_Node000004"><a xlink:title=" ">
<path fill="none" stroke="#63b8ff" d="M349.25,-56.44C349.25,-49.1 349.25,-40.32 349.25,-32.46"/>
<polygon fill="#63b8ff" stroke="#63b8ff" points="352.75,-32.73 349.25,-22.73 345.75,-32.73 352.75,-32.73"/>
</a>
</g>
</g>
<!-- Node5 -->
<g id="Node000005" class="node">
<title>Node5</title>
<g id="a_Node000005"><a xlink:title=" ">
<polygon fill="#e0e0e0" stroke="#999999" points="547.62,-20.75 428.88,-20.75 428.88,0 547.62,0 547.62,-20.75"/>
<text text-anchor="middle" x="488.25" y="-7.25" font-family="Helvetica,sans-Serif" font-size="10.00">llvm/ADT/SetVector.h</text>
</a>
</g>
</g>
<!-- Node1&#45;&gt;Node5 -->
<g id="edge4_Node000001_Node000005" class="edge">
<title>Node1&#45;&gt;Node5</title>
<g id="a_edge4_Node000001_Node000005"><a xlink:title=" ">
<path fill="none" stroke="#63b8ff" d="M386.13,-56.28C407.78,-46.76 434.88,-34.85 455.72,-25.68"/>
<polygon fill="#63b8ff" stroke="#63b8ff" points="456.86,-29 464.6,-21.77 454.04,-22.6 456.86,-29"/>
</a>
</g>
</g>
<!-- Node6 -->
<g id="Node000006" class="node">
<title>Node6</title>
<g id="a_Node000006"><a xlink:title=" ">
<polygon fill="#e0e0e0" stroke="#999999" points="732.62,-20.75 565.88,-20.75 565.88,0 732.62,0 732.62,-20.75"/>
<text text-anchor="middle" x="649.25" y="-7.25" font-family="Helvetica,sans-Serif" font-size="10.00">llvm/Support/DOTGraphTraits.h</text>
</a>
</g>
</g>
<!-- Node1&#45;&gt;Node6 -->
<g id="edge5_Node000001_Node000006" class="edge">
<title>Node1&#45;&gt;Node6</title>
<g id="a_edge5_Node000001_Node000006"><a xlink:title=" ">
<path fill="none" stroke="#63b8ff" d="M407.45,-60.64C459.99,-49.94 536.96,-34.25 589.87,-23.47"/>
<polygon fill="#63b8ff" stroke="#63b8ff" points="590.52,-26.91 599.62,-21.49 589.12,-20.05 590.52,-26.91"/>
</a>
</g>
</g>
</g>
</svg>
