<?xml version="1.0" encoding="UTF-8" standalone="no"?>
<!DOCTYPE svg PUBLIC "-//W3C//DTD SVG 1.1//EN"
 "http://www.w3.org/Graphics/SVG/1.1/DTD/svg11.dtd">
<!-- Generated by graphviz version 12.2.1 (0)
 -->
<!-- Title: include/llzk/Dialect/Polymorphic/Transforms/TransformationPassEnums.h Pages: 1 -->
<svg width="660pt" height="219pt"
 viewBox="0.00 0.00 659.88 218.75" xmlns="http://www.w3.org/2000/svg" xmlns:xlink="http://www.w3.org/1999/xlink">
<g id="graph0" class="graph" transform="scale(1 1) rotate(0) translate(4 214.75)">
<title>include/llzk/Dialect/Polymorphic/Transforms/TransformationPassEnums.h</title>
<!-- Node1 -->
<g id="Node000001" class="node">
<title>Node1</title>
<g id="a_Node000001"><a xlink:title=" ">
<polygon fill="#999999" stroke="#666666" points="514,-210.75 357.75,-210.75 357.75,-164.5 514,-164.5 514,-210.75"/>
<text text-anchor="start" x="365.75" y="-197.25" font-family="Helvetica,sans-Serif" font-size="10.00">include/llzk/Dialect</text>
<text text-anchor="start" x="365.75" y="-184.5" font-family="Helvetica,sans-Serif" font-size="10.00">/Polymorphic/Transforms</text>
<text text-anchor="middle" x="435.88" y="-171.75" font-family="Helvetica,sans-Serif" font-size="10.00">/TransformationPassEnums.h</text>
</a>
</g>
</g>
<!-- Node2 -->
<g id="Node000002" class="node">
<title>Node2</title>
<g id="a_Node000002"><a xlink:href="Polymorphic_2Transforms_2TransformationPasses_8h.html" target="_top" xlink:title=" ">
<polygon fill="white" stroke="#666666" points="418.25,-128.5 281.5,-128.5 281.5,-82.25 418.25,-82.25 418.25,-128.5"/>
<text text-anchor="start" x="289.5" y="-115" font-family="Helvetica,sans-Serif" font-size="10.00">include/llzk/Dialect</text>
<text text-anchor="start" x="289.5" y="-102.25" font-family="Helvetica,sans-Serif" font-size="10.00">/Polymorphic/Transforms</text>
<text text-anchor="middle" x="349.88" y="-89.5" font-family="Helvetica,sans-Serif" font-size="10.00">/TransformationPasses.h</text>
</a>
</g>
</g>
<!-- Node1&#45;&gt;Node2 -->
<g id="edge1_Node000001_Node000002" class="edge">
<title>Node1&#45;&gt;Node2</title>
<g id="a_edge1_Node000001_Node000002"><a xlink:title=" ">
<path fill="none" stroke="#63b8ff" d="M403.56,-156.47C393.76,-147.33 383.17,-137.44 374,-128.89"/>
<polygon fill="#63b8ff" stroke="#63b8ff" points="401.11,-158.97 410.81,-163.24 405.89,-153.86 401.11,-158.97"/>
</a>
</g>
</g>
<!-- Node7 -->
<g id="Node000007" class="node">
<title>Node7</title>
<g id="a_Node000007"><a xlink:href="TransformationPassEnums_8cpp.html" target="_top" xlink:title=" ">
<polygon fill="white" stroke="#666666" points="607.5,-128.5 436.25,-128.5 436.25,-82.25 607.5,-82.25 607.5,-128.5"/>
<text text-anchor="start" x="444.25" y="-115" font-family="Helvetica,sans-Serif" font-size="10.00">lib/Dialect/Polymorphic</text>
<text text-anchor="start" x="444.25" y="-102.25" font-family="Helvetica,sans-Serif" font-size="10.00">/Transforms/TransformationPass</text>
<text text-anchor="middle" x="521.88" y="-89.5" font-family="Helvetica,sans-Serif" font-size="10.00">Enums.cpp</text>
</a>
</g>
</g>
<!-- Node1&#45;&gt;Node7 -->
<g id="edge6_Node000001_Node000007" class="edge">
<title>Node1&#45;&gt;Node7</title>
<g id="a_edge6_Node000001_Node000007"><a xlink:title=" ">
<path fill="none" stroke="#63b8ff" d="M468.19,-156.47C477.99,-147.33 488.58,-137.44 497.75,-128.89"/>
<polygon fill="#63b8ff" stroke="#63b8ff" points="465.86,-153.86 460.94,-163.24 470.64,-158.97 465.86,-153.86"/>
</a>
</g>
</g>
<!-- Node3 -->
<g id="Node000003" class="node">
<title>Node3</title>
<g id="a_Node000003"><a xlink:href="Poly_8cpp.html" target="_top" xlink:title=" ">
<polygon fill="white" stroke="#666666" points="133.75,-33.5 0,-33.5 0,-12.75 133.75,-12.75 133.75,-33.5"/>
<text text-anchor="middle" x="66.88" y="-20" font-family="Helvetica,sans-Serif" font-size="10.00">lib/CAPI/Dialect/Poly.cpp</text>
</a>
</g>
</g>
<!-- Node2&#45;&gt;Node3 -->
<g id="edge2_Node000002_Node000003" class="edge">
<title>Node2&#45;&gt;Node3</title>
<g id="a_edge2_Node000002_Node000003"><a xlink:title=" ">
<path fill="none" stroke="#63b8ff" d="M270.65,-82.32C232.08,-71.53 185.03,-58.3 142.88,-46.25 129,-42.28 113.72,-37.85 100.53,-34"/>
<polygon fill="#63b8ff" stroke="#63b8ff" points="269.27,-85.57 279.84,-84.89 271.15,-78.83 269.27,-85.57"/>
</a>
</g>
</g>
<!-- Node4 -->
<g id="Node000004" class="node">
<title>Node4</title>
<g id="a_Node000004"><a xlink:href="EmptyTemplateRemovalPass_8cpp.html" target="_top" xlink:title="This file implements the &#45;llzk&#45;drop&#45;empty&#45;templates pass.">
<polygon fill="white" stroke="#666666" points="347.88,-46.25 151.88,-46.25 151.88,0 347.88,0 347.88,-46.25"/>
<text text-anchor="start" x="159.88" y="-32.75" font-family="Helvetica,sans-Serif" font-size="10.00">lib/Dialect/Polymorphic</text>
<text text-anchor="start" x="159.88" y="-20" font-family="Helvetica,sans-Serif" font-size="10.00">/Transforms/EmptyTemplateRemoval</text>
<text text-anchor="middle" x="249.88" y="-7.25" font-family="Helvetica,sans-Serif" font-size="10.00">Pass.cpp</text>
</a>
</g>
</g>
<!-- Node2&#45;&gt;Node4 -->
<g id="edge3_Node000002_Node000004" class="edge">
<title>Node2&#45;&gt;Node4</title>
<g id="a_edge3_Node000002_Node000004"><a xlink:title=" ">
<path fill="none" stroke="#63b8ff" d="M313.08,-74.85C301.42,-65.49 288.72,-55.3 277.79,-46.52"/>
<polygon fill="#63b8ff" stroke="#63b8ff" points="310.58,-77.33 320.57,-80.86 314.96,-71.87 310.58,-77.33"/>
</a>
</g>
</g>
<!-- Node5 -->
<g id="Node000005" class="node">
<title>Node5</title>
<g id="a_Node000005"><a xlink:href="FlatteningPass_8cpp.html" target="_top" xlink:title="This file implements the &#45;llzk&#45;flatten pass.">
<polygon fill="white" stroke="#666666" points="533.62,-39.88 366.12,-39.88 366.12,-6.38 533.62,-6.38 533.62,-39.88"/>
<text text-anchor="start" x="374.12" y="-26.38" font-family="Helvetica,sans-Serif" font-size="10.00">lib/Dialect/Polymorphic</text>
<text text-anchor="middle" x="449.88" y="-13.62" font-family="Helvetica,sans-Serif" font-size="10.00">/Transforms/FlatteningPass.cpp</text>
</a>
</g>
</g>
<!-- Node2&#45;&gt;Node5 -->
<g id="edge4_Node000002_Node000005" class="edge">
<title>Node2&#45;&gt;Node5</title>
<g id="a_edge4_Node000002_Node000005"><a xlink:title=" ">
<path fill="none" stroke="#63b8ff" d="M386.82,-74.73C401.4,-63.03 417.57,-50.05 429.88,-40.17"/>
<polygon fill="#63b8ff" stroke="#63b8ff" points="384.79,-71.87 379.18,-80.86 389.17,-77.33 384.79,-71.87"/>
</a>
</g>
</g>
<!-- Node6 -->
<g id="Node000006" class="node">
<title>Node6</title>
<g id="a_Node000006"><a xlink:href="llzk-opt_8cpp.html" target="_top" xlink:title="This file implements a version of the mlir&#45;opt tool configured for use on LLZK files.">
<polygon fill="white" stroke="#666666" points="651.88,-39.88 551.88,-39.88 551.88,-6.38 651.88,-6.38 651.88,-39.88"/>
<text text-anchor="start" x="559.88" y="-26.38" font-family="Helvetica,sans-Serif" font-size="10.00">tools/llzk&#45;opt/llzk</text>
<text text-anchor="middle" x="601.88" y="-13.62" font-family="Helvetica,sans-Serif" font-size="10.00">&#45;opt.cpp</text>
</a>
</g>
</g>
<!-- Node2&#45;&gt;Node6 -->
<g id="edge5_Node000002_Node000006" class="edge">
<title>Node2&#45;&gt;Node6</title>
<g id="a_edge5_Node000002_Node000006"><a xlink:title=" ">
<path fill="none" stroke="#63b8ff" d="M429.39,-81C472.6,-68.19 521.48,-53.47 542.88,-46.25 548.37,-44.4 554.12,-42.36 559.78,-40.3"/>
<polygon fill="#63b8ff" stroke="#63b8ff" points="428.59,-77.59 420,-83.78 430.58,-84.3 428.59,-77.59"/>
</a>
</g>
</g>
</g>
</svg>
