<?xml version="1.0" encoding="UTF-8" standalone="no"?>
<!DOCTYPE svg PUBLIC "-//W3C//DTD SVG 1.1//EN"
 "http://www.w3.org/Graphics/SVG/1.1/DTD/svg11.dtd">
<!-- Generated by graphviz version 12.2.1 (0)
 -->
<!-- Title: include/llzk/Dialect/Polymorphic/Transforms/TransformationPassEnums.h Pages: 1 -->
<svg width="662pt" height="219pt"
 viewBox="0.00 0.00 661.88 218.75" xmlns="http://www.w3.org/2000/svg" xmlns:xlink="http://www.w3.org/1999/xlink">
<g id="graph0" class="graph" transform="scale(1 1) rotate(0) translate(4 214.75)">
<title>include/llzk/Dialect/Polymorphic/Transforms/TransformationPassEnums.h</title>
<!-- Node1 -->
<g id="Node000001" class="node">
<title>Node1</title>
<g id="a_Node000001"><a xlink:title=" ">
<polygon fill="#999999" stroke="#666666" points="515,-210.75 358.75,-210.75 358.75,-164.5 515,-164.5 515,-210.75"/>
<text text-anchor="start" x="366.75" y="-197.25" font-family="Helvetica,sans-Serif" font-size="10.00">include/llzk/Dialect</text>
<text text-anchor="start" x="366.75" y="-184.5" font-family="Helvetica,sans-Serif" font-size="10.00">/Polymorphic/Transforms</text>
<text text-anchor="middle" x="436.88" y="-171.75" font-family="Helvetica,sans-Serif" font-size="10.00">/TransformationPassEnums.h</text>
</a>
</g>
</g>
<!-- Node2 -->
<g id="Node000002" class="node">
<title>Node2</title>
<g id="a_Node000002"><a xlink:href="Polymorphic_2Transforms_2TransformationPasses_8h.html" target="_top" xlink:title=" ">
<polygon fill="white" stroke="#666666" points="419.25,-128.5 282.5,-128.5 282.5,-82.25 419.25,-82.25 419.25,-128.5"/>
<text text-anchor="start" x="290.5" y="-115" font-family="Helvetica,sans-Serif" font-size="10.00">include/llzk/Dialect</text>
<text text-anchor="start" x="290.5" y="-102.25" font-family="Helvetica,sans-Serif" font-size="10.00">/Polymorphic/Transforms</text>
<text text-anchor="middle" x="350.88" y="-89.5" font-family="Helvetica,sans-Serif" font-size="10.00">/TransformationPasses.h</text>
</a>
</g>
</g>
<!-- Node1&#45;&gt;Node2 -->
<g id="edge1_Node000001_Node000002" class="edge">
<title>Node1&#45;&gt;Node2</title>
<g id="a_edge1_Node000001_Node000002"><a xlink:title=" ">
<path fill="none" stroke="#63b8ff" d="M404.56,-156.47C394.76,-147.33 384.17,-137.44 375,-128.89"/>
<polygon fill="#63b8ff" stroke="#63b8ff" points="402.11,-158.97 411.81,-163.24 406.89,-153.86 402.11,-158.97"/>
</a>
</g>
</g>
<!-- Node7 -->
<g id="Node000007" class="node">
<title>Node7</title>
<g id="a_Node000007"><a xlink:href="TransformationPassEnums_8cpp.html" target="_top" xlink:title=" ">
<polygon fill="white" stroke="#666666" points="608.5,-128.5 437.25,-128.5 437.25,-82.25 608.5,-82.25 608.5,-128.5"/>
<text text-anchor="start" x="445.25" y="-115" font-family="Helvetica,sans-Serif" font-size="10.00">lib/Dialect/Polymorphic</text>
<text text-anchor="start" x="445.25" y="-102.25" font-family="Helvetica,sans-Serif" font-size="10.00">/Transforms/TransformationPass</text>
<text text-anchor="middle" x="522.88" y="-89.5" font-family="Helvetica,sans-Serif" font-size="10.00">Enums.cpp</text>
</a>
</g>
</g>
<!-- Node1&#45;&gt;Node7 -->
<g id="edge6_Node000001_Node000007" class="edge">
<title>Node1&#45;&gt;Node7</title>
<g id="a_edge6_Node000001_Node000007"><a xlink:title=" ">
<path fill="none" stroke="#63b8ff" d="M469.19,-156.47C478.99,-147.33 489.58,-137.44 498.75,-128.89"/>
<polygon fill="#63b8ff" stroke="#63b8ff" points="466.86,-153.86 461.94,-163.24 471.64,-158.97 466.86,-153.86"/>
</a>
</g>
</g>
<!-- Node3 -->
<g id="Node000003" class="node">
<title>Node3</title>
<g id="a_Node000003"><a xlink:href="Poly_8cpp.html" target="_top" xlink:title=" ">
<polygon fill="white" stroke="#666666" points="133.75,-33.5 0,-33.5 0,-12.75 133.75,-12.75 133.75,-33.5"/>
<text text-anchor="middle" x="66.88" y="-20" font-family="Helvetica,sans-Serif" font-size="10.00">lib/CAPI/Dialect/Poly.cpp</text>
</a>
</g>
</g>
<!-- Node2&#45;&gt;Node3 -->
<g id="edge2_Node000002_Node000003" class="edge">
<title>Node2&#45;&gt;Node3</title>
<g id="a_edge2_Node000002_Node000003"><a xlink:title=" ">
<path fill="none" stroke="#63b8ff" d="M271.06,-82.49C232.07,-71.72 184.47,-58.46 141.88,-46.25 128.04,-42.29 112.81,-37.81 99.7,-33.93"/>
<polygon fill="#63b8ff" stroke="#63b8ff" points="270.05,-85.84 280.62,-85.13 271.91,-79.1 270.05,-85.84"/>
</a>
</g>
</g>
<!-- Node4 -->
<g id="Node000004" class="node">
<title>Node4</title>
<g id="a_Node000004"><a xlink:href="EmptyParamListRemovalPass_8cpp.html" target="_top" xlink:title="This file implements the &#45;llzk&#45;drop&#45;empty&#45;params pass.">
<polygon fill="white" stroke="#666666" points="350.38,-46.25 151.38,-46.25 151.38,0 350.38,0 350.38,-46.25"/>
<text text-anchor="start" x="159.38" y="-32.75" font-family="Helvetica,sans-Serif" font-size="10.00">lib/Dialect/Polymorphic</text>
<text text-anchor="start" x="159.38" y="-20" font-family="Helvetica,sans-Serif" font-size="10.00">/Transforms/EmptyParamListRemoval</text>
<text text-anchor="middle" x="250.88" y="-7.25" font-family="Helvetica,sans-Serif" font-size="10.00">Pass.cpp</text>
</a>
</g>
</g>
<!-- Node2&#45;&gt;Node4 -->
<g id="edge3_Node000002_Node000004" class="edge">
<title>Node2&#45;&gt;Node4</title>
<g id="a_edge3_Node000002_Node000004"><a xlink:title=" ">
<path fill="none" stroke="#63b8ff" d="M314.08,-74.85C302.42,-65.49 289.72,-55.3 278.79,-46.52"/>
<polygon fill="#63b8ff" stroke="#63b8ff" points="311.58,-77.33 321.57,-80.86 315.96,-71.87 311.58,-77.33"/>
</a>
</g>
</g>
<!-- Node5 -->
<g id="Node000005" class="node">
<title>Node5</title>
<g id="a_Node000005"><a xlink:href="FlatteningPass_8cpp.html" target="_top" xlink:title="This file implements the &#45;llzk&#45;flatten pass.">
<polygon fill="white" stroke="#666666" points="535.62,-39.88 368.12,-39.88 368.12,-6.38 535.62,-6.38 535.62,-39.88"/>
<text text-anchor="start" x="376.12" y="-26.38" font-family="Helvetica,sans-Serif" font-size="10.00">lib/Dialect/Polymorphic</text>
<text text-anchor="middle" x="451.88" y="-13.62" font-family="Helvetica,sans-Serif" font-size="10.00">/Transforms/FlatteningPass.cpp</text>
</a>
</g>
</g>
<!-- Node2&#45;&gt;Node5 -->
<g id="edge4_Node000002_Node000005" class="edge">
<title>Node2&#45;&gt;Node5</title>
<g id="a_edge4_Node000002_Node000005"><a xlink:title=" ">
<path fill="none" stroke="#63b8ff" d="M388.19,-74.73C402.91,-63.03 419.24,-50.05 431.68,-40.17"/>
<polygon fill="#63b8ff" stroke="#63b8ff" points="386.12,-71.9 380.46,-80.87 390.47,-77.39 386.12,-71.9"/>
</a>
</g>
</g>
<!-- Node6 -->
<g id="Node000006" class="node">
<title>Node6</title>
<g id="a_Node000006"><a xlink:href="llzk-opt_8cpp.html" target="_top" xlink:title="This file implements a version of the mlir&#45;opt tool configured for use on LLZK files.">
<polygon fill="white" stroke="#666666" points="653.88,-39.88 553.88,-39.88 553.88,-6.38 653.88,-6.38 653.88,-39.88"/>
<text text-anchor="start" x="561.88" y="-26.38" font-family="Helvetica,sans-Serif" font-size="10.00">tools/llzk&#45;opt/llzk</text>
<text text-anchor="middle" x="603.88" y="-13.62" font-family="Helvetica,sans-Serif" font-size="10.00">&#45;opt.cpp</text>
</a>
</g>
</g>
<!-- Node2&#45;&gt;Node6 -->
<g id="edge5_Node000002_Node000006" class="edge">
<title>Node2&#45;&gt;Node6</title>
<g id="a_edge5_Node000002_Node000006"><a xlink:title=" ">
<path fill="none" stroke="#63b8ff" d="M430.34,-81.15C473.89,-68.31 523.3,-53.52 544.88,-46.25 550.37,-44.4 556.12,-42.37 561.78,-40.31"/>
<polygon fill="#63b8ff" stroke="#63b8ff" points="429.47,-77.76 420.87,-83.94 431.45,-84.48 429.47,-77.76"/>
</a>
</g>
</g>
</g>
</svg>
