<?xml version="1.0" encoding="UTF-8" standalone="no"?>
<!DOCTYPE svg PUBLIC "-//W3C//DTD SVG 1.1//EN"
 "http://www.w3.org/Graphics/SVG/1.1/DTD/svg11.dtd">
<!-- Generated by graphviz version 12.2.1 (0)
 -->
<!-- Title: tools/llzk&#45;tblgen/TypeCAPITestGen.cpp Pages: 1 -->
<svg width="1273pt" height="237pt"
 viewBox="0.00 0.00 1273.00 237.25" xmlns="http://www.w3.org/2000/svg" xmlns:xlink="http://www.w3.org/1999/xlink">
<g id="graph0" class="graph" transform="scale(1 1) rotate(0) translate(4 233.25)">
<title>tools/llzk&#45;tblgen/TypeCAPITestGen.cpp</title>
<!-- Node1 -->
<g id="Node000001" class="node">
<title>Node1</title>
<g id="a_Node000001"><a xlink:title=" ">
<polygon fill="#999999" stroke="#666666" points="763.12,-229.25 600.88,-229.25 600.88,-195.75 763.12,-195.75 763.12,-229.25"/>
<text text-anchor="start" x="608.88" y="-215.75" font-family="Helvetica,sans-Serif" font-size="10.00">tools/llzk&#45;tblgen/TypeCAPITest</text>
<text text-anchor="middle" x="682" y="-203" font-family="Helvetica,sans-Serif" font-size="10.00">Gen.cpp</text>
</a>
</g>
</g>
<!-- Node2 -->
<g id="Node000002" class="node">
<title>Node2</title>
<g id="a_Node000002"><a xlink:title=" ">
<polygon fill="#e0e0e0" stroke="#999999" points="269.12,-90.25 130.88,-90.25 130.88,-56.75 269.12,-56.75 269.12,-90.25"/>
<text text-anchor="start" x="138.88" y="-76.75" font-family="Helvetica,sans-Serif" font-size="10.00">mlir/TableGen/AttrOrType</text>
<text text-anchor="middle" x="200" y="-64" font-family="Helvetica,sans-Serif" font-size="10.00">Def.h</text>
</a>
</g>
</g>
<!-- Node1&#45;&gt;Node2 -->
<g id="edge1_Node000001_Node000002" class="edge">
<title>Node1&#45;&gt;Node2</title>
<g id="a_edge1_Node000001_Node000002"><a xlink:title=" ">
<path fill="none" stroke="#63b8ff" d="M600.57,-206.57C533.02,-200.62 435.23,-187.67 354,-159.75 309.47,-144.45 262.76,-116.68 232.62,-97"/>
<polygon fill="#63b8ff" stroke="#63b8ff" points="234.59,-94.11 224.32,-91.5 230.72,-99.94 234.59,-94.11"/>
</a>
</g>
</g>
<!-- Node3 -->
<g id="Node000003" class="node">
<title>Node3</title>
<g id="a_Node000003"><a xlink:title=" ">
<polygon fill="#e0e0e0" stroke="#999999" points="130,-20.75 0,-20.75 0,0 130,0 130,-20.75"/>
<text text-anchor="middle" x="65" y="-7.25" font-family="Helvetica,sans-Serif" font-size="10.00">mlir/TableGen/Dialect.h</text>
</a>
</g>
</g>
<!-- Node1&#45;&gt;Node3 -->
<g id="edge2_Node000001_Node000003" class="edge">
<title>Node1&#45;&gt;Node3</title>
<g id="a_edge2_Node000001_Node000003"><a xlink:title=" ">
<path fill="none" stroke="#63b8ff" d="M600.6,-211.24C473.93,-209.54 236.65,-200.77 164,-159.75 113.57,-131.27 83.98,-65.21 71.7,-31.68"/>
<polygon fill="#63b8ff" stroke="#63b8ff" points="75.05,-30.65 68.45,-22.36 68.44,-32.95 75.05,-30.65"/>
</a>
</g>
</g>
<!-- Node4 -->
<g id="Node000004" class="node">
<title>Node4</title>
<g id="a_Node000004"><a xlink:title=" ">
<polygon fill="#e0e0e0" stroke="#999999" points="912.88,-153.38 779.12,-153.38 779.12,-132.62 912.88,-132.62 912.88,-153.38"/>
<text text-anchor="middle" x="846" y="-139.88" font-family="Helvetica,sans-Serif" font-size="10.00">mlir/TableGen/GenInfo.h</text>
</a>
</g>
</g>
<!-- Node1&#45;&gt;Node4 -->
<g id="edge3_Node000001_Node000004" class="edge">
<title>Node1&#45;&gt;Node4</title>
<g id="a_edge3_Node000001_Node000004"><a xlink:title=" ">
<path fill="none" stroke="#63b8ff" d="M721.28,-195.33C748.81,-184 785.25,-169 811.63,-158.15"/>
<polygon fill="#63b8ff" stroke="#63b8ff" points="812.94,-161.39 820.86,-154.35 810.28,-154.92 812.94,-161.39"/>
</a>
</g>
</g>
<!-- Node5 -->
<g id="Node000005" class="node">
<title>Node5</title>
<g id="a_Node000005"><a xlink:title=" ">
<polygon fill="#e0e0e0" stroke="#999999" points="280.12,-20.75 147.88,-20.75 147.88,0 280.12,0 280.12,-20.75"/>
<text text-anchor="middle" x="214" y="-7.25" font-family="Helvetica,sans-Serif" font-size="10.00">llvm/ADT/StringExtras.h</text>
</a>
</g>
</g>
<!-- Node1&#45;&gt;Node5 -->
<g id="edge4_Node000001_Node000005" class="edge">
<title>Node1&#45;&gt;Node5</title>
<g id="a_edge4_Node000001_Node000005"><a xlink:title=" ">
<path fill="none" stroke="#63b8ff" d="M600.39,-207.3C457.85,-197.92 173.71,-169.49 122,-90.25 113.86,-77.78 114.14,-69.39 122,-56.75 131.02,-42.25 146.18,-32.25 161.63,-25.41"/>
<polygon fill="#63b8ff" stroke="#63b8ff" points="162.89,-28.67 170.89,-21.72 160.3,-22.17 162.89,-28.67"/>
</a>
</g>
</g>
<!-- Node6 -->
<g id="Node000006" class="node">
<title>Node6</title>
<g id="a_Node000006"><a xlink:title=" ">
<polygon fill="#e0e0e0" stroke="#999999" points="1066.38,-20.75 905.62,-20.75 905.62,0 1066.38,0 1066.38,-20.75"/>
<text text-anchor="middle" x="986" y="-7.25" font-family="Helvetica,sans-Serif" font-size="10.00">llvm/Support/CommandLine.h</text>
</a>
</g>
</g>
<!-- Node1&#45;&gt;Node6 -->
<g id="edge5_Node000001_Node000006" class="edge">
<title>Node1&#45;&gt;Node6</title>
<g id="a_edge5_Node000001_Node000006"><a xlink:title=" ">
<path fill="none" stroke="#63b8ff" d="M696.1,-195.33C712.58,-177.06 741.28,-147.15 770,-126.25 829.83,-82.7 908.28,-45.22 952.28,-25.72"/>
<polygon fill="#63b8ff" stroke="#63b8ff" points="953.55,-28.98 961.31,-21.76 950.75,-22.57 953.55,-28.98"/>
</a>
</g>
</g>
<!-- Node7 -->
<g id="Node000007" class="node">
<title>Node7</title>
<g id="a_Node000007"><a xlink:title=" ">
<polygon fill="#e0e0e0" stroke="#999999" points="887.88,-20.75 724.12,-20.75 724.12,0 887.88,0 887.88,-20.75"/>
<text text-anchor="middle" x="806" y="-7.25" font-family="Helvetica,sans-Serif" font-size="10.00">llvm/Support/FormatVariadic.h</text>
</a>
</g>
</g>
<!-- Node1&#45;&gt;Node7 -->
<g id="edge6_Node000001_Node000007" class="edge">
<title>Node1&#45;&gt;Node7</title>
<g id="a_edge6_Node000001_Node000007"><a xlink:title=" ">
<path fill="none" stroke="#63b8ff" d="M684.26,-195.4C689.17,-165.33 703.21,-99.82 737,-56.75 746.78,-44.29 760.96,-34.13 773.94,-26.61"/>
<polygon fill="#63b8ff" stroke="#63b8ff" points="775.53,-29.73 782.64,-21.88 772.18,-23.58 775.53,-29.73"/>
</a>
</g>
</g>
<!-- Node8 -->
<g id="Node000008" class="node">
<title>Node8</title>
<g id="a_Node000008"><a xlink:title=" ">
<polygon fill="#e0e0e0" stroke="#999999" points="1062.75,-153.38 931.25,-153.38 931.25,-132.62 1062.75,-132.62 1062.75,-153.38"/>
<text text-anchor="middle" x="997" y="-139.88" font-family="Helvetica,sans-Serif" font-size="10.00">llvm/TableGen/Record.h</text>
</a>
</g>
</g>
<!-- Node1&#45;&gt;Node8 -->
<g id="edge7_Node000001_Node000008" class="edge">
<title>Node1&#45;&gt;Node8</title>
<g id="a_edge7_Node000001_Node000008"><a xlink:title=" ">
<path fill="none" stroke="#63b8ff" d="M757.45,-195.33C813.46,-183.33 888.68,-167.21 939.78,-156.26"/>
<polygon fill="#63b8ff" stroke="#63b8ff" points="940.42,-159.7 949.46,-154.19 938.95,-152.86 940.42,-159.7"/>
</a>
</g>
</g>
<!-- Node9 -->
<g id="Node000009" class="node">
<title>Node9</title>
<g id="a_Node000009"><a xlink:title=" ">
<polygon fill="#e0e0e0" stroke="#999999" points="1265,-153.38 1081,-153.38 1081,-132.62 1265,-132.62 1265,-153.38"/>
<text text-anchor="middle" x="1173" y="-139.88" font-family="Helvetica,sans-Serif" font-size="10.00">llvm/TableGen/TableGenBackend.h</text>
</a>
</g>
</g>
<!-- Node1&#45;&gt;Node9 -->
<g id="edge8_Node000001_Node000009" class="edge">
<title>Node1&#45;&gt;Node9</title>
<g id="a_edge8_Node000001_Node000009"><a xlink:title=" ">
<path fill="none" stroke="#63b8ff" d="M763.49,-201.24C842.45,-191.16 965.53,-175.11 1072,-159.75 1081.15,-158.43 1090.76,-156.99 1100.27,-155.54"/>
<polygon fill="#63b8ff" stroke="#63b8ff" points="1100.49,-159.05 1109.85,-154.07 1099.43,-152.13 1100.49,-159.05"/>
</a>
</g>
</g>
<!-- Node10 -->
<g id="Node000010" class="node">
<title>Node10</title>
<g id="a_Node000010"><a xlink:href="CommonAttrOrTypeCAPITestGen_8h.html" target="_top" xlink:title="This file provides common utilities for generating C API link tests for attributes and types.">
<polygon fill="white" stroke="#666666" points="517,-159.75 363,-159.75 363,-126.25 517,-126.25 517,-159.75"/>
<text text-anchor="start" x="371" y="-146.25" font-family="Helvetica,sans-Serif" font-size="10.00">CommonAttrOrTypeCAPITest</text>
<text text-anchor="middle" x="440" y="-133.5" font-family="Helvetica,sans-Serif" font-size="10.00">Gen.h</text>
</a>
</g>
</g>
<!-- Node1&#45;&gt;Node10 -->
<g id="edge9_Node000001_Node000010" class="edge">
<title>Node1&#45;&gt;Node10</title>
<g id="a_edge9_Node000001_Node000010"><a xlink:title=" ">
<path fill="none" stroke="#63b8ff" d="M624.03,-195.33C589.44,-185.68 545.31,-173.37 508.93,-163.23"/>
<polygon fill="#63b8ff" stroke="#63b8ff" points="509.94,-159.87 499.37,-160.56 508.06,-166.62 509.94,-159.87"/>
</a>
</g>
</g>
<!-- Node12 -->
<g id="Node000012" class="node">
<title>Node12</title>
<g id="a_Node000012"><a xlink:href="CommonCAPIGen_8h.html" target="_top" xlink:title=" ">
<polygon fill="white" stroke="#666666" points="646.62,-83.88 535.38,-83.88 535.38,-63.12 646.62,-63.12 646.62,-83.88"/>
<text text-anchor="middle" x="591" y="-70.38" font-family="Helvetica,sans-Serif" font-size="10.00">CommonCAPIGen.h</text>
</a>
</g>
</g>
<!-- Node1&#45;&gt;Node12 -->
<g id="edge24_Node000001_Node000012" class="edge">
<title>Node1&#45;&gt;Node12</title>
<g id="a_edge24_Node000001_Node000012"><a xlink:title=" ">
<path fill="none" stroke="#63b8ff" d="M671.38,-195.52C654.58,-170.22 621.91,-121.03 603.82,-93.8"/>
<polygon fill="#63b8ff" stroke="#63b8ff" points="606.75,-91.88 598.3,-85.49 600.92,-95.76 606.75,-91.88"/>
</a>
</g>
</g>
<!-- Node10&#45;&gt;Node2 -->
<g id="edge10_Node000010_Node000002" class="edge">
<title>Node10&#45;&gt;Node2</title>
<g id="a_edge10_Node000010_Node000002"><a xlink:title=" ">
<path fill="none" stroke="#63b8ff" d="M382.51,-125.83C348.2,-116.18 304.44,-103.87 268.36,-93.73"/>
<polygon fill="#63b8ff" stroke="#63b8ff" points="269.46,-90.4 258.89,-91.06 267.57,-97.14 269.46,-90.4"/>
</a>
</g>
</g>
<!-- Node10&#45;&gt;Node3 -->
<g id="edge11_Node000010_Node000003" class="edge">
<title>Node10&#45;&gt;Node3</title>
<g id="a_edge11_Node000010_Node000003"><a xlink:title=" ">
<path fill="none" stroke="#63b8ff" d="M385.78,-125.85C361.74,-117.32 333.8,-105.42 311,-90.25 293.6,-78.67 296.33,-66.8 278,-56.75 254.68,-43.97 192.67,-31.53 141.53,-22.92"/>
<polygon fill="#63b8ff" stroke="#63b8ff" points="142.4,-19.52 131.96,-21.34 141.26,-26.42 142.4,-19.52"/>
</a>
</g>
</g>
<!-- Node10&#45;&gt;Node5 -->
<g id="edge12_Node000010_Node000005" class="edge">
<title>Node10&#45;&gt;Node5</title>
<g id="a_edge12_Node000010_Node000005"><a xlink:title=" ">
<path fill="none" stroke="#63b8ff" d="M411.18,-125.82C394.22,-116.02 372.53,-102.98 354,-90.25 334.03,-76.54 331.66,-69.41 311,-56.75 291.39,-44.73 268.08,-33.73 249.22,-25.57"/>
<polygon fill="#63b8ff" stroke="#63b8ff" points="250.66,-22.38 240.09,-21.7 247.93,-28.83 250.66,-22.38"/>
</a>
</g>
</g>
<!-- Node10&#45;&gt;Node7 -->
<g id="edge13_Node000010_Node000007" class="edge">
<title>Node10&#45;&gt;Node7</title>
<g id="a_edge13_Node000010_Node000007"><a xlink:title=" ">
<path fill="none" stroke="#63b8ff" d="M517.42,-131.68C559.84,-124.03 612.48,-111.19 656,-90.25 677.83,-79.75 678.12,-69.03 699,-56.75 720.38,-44.18 745.89,-33.22 766.65,-25.22"/>
<polygon fill="#63b8ff" stroke="#63b8ff" points="767.78,-28.54 775.9,-21.74 765.31,-21.99 767.78,-28.54"/>
</a>
</g>
</g>
<!-- Node11 -->
<g id="Node000011" class="node">
<title>Node11</title>
<g id="a_Node000011"><a xlink:title=" ">
<polygon fill="#e0e0e0" stroke="#999999" points="517,-83.88 363,-83.88 363,-63.12 517,-63.12 517,-83.88"/>
<text text-anchor="middle" x="440" y="-70.38" font-family="Helvetica,sans-Serif" font-size="10.00">llvm/Support/raw_ostream.h</text>
</a>
</g>
</g>
<!-- Node10&#45;&gt;Node11 -->
<g id="edge14_Node000010_Node000011" class="edge">
<title>Node10&#45;&gt;Node11</title>
<g id="a_edge14_Node000010_Node000011"><a xlink:title=" ">
<path fill="none" stroke="#63b8ff" d="M440,-126C440,-116.9 440,-105.39 440,-95.57"/>
<polygon fill="#63b8ff" stroke="#63b8ff" points="443.5,-95.84 440,-85.84 436.5,-95.84 443.5,-95.84"/>
</a>
</g>
</g>
<!-- Node10&#45;&gt;Node12 -->
<g id="edge15_Node000010_Node000012" class="edge">
<title>Node10&#45;&gt;Node12</title>
<g id="a_edge15_Node000010_Node000012"><a xlink:title=" ">
<path fill="none" stroke="#63b8ff" d="M476.17,-125.83C501.29,-114.6 534.47,-99.77 558.7,-88.94"/>
<polygon fill="#63b8ff" stroke="#63b8ff" points="560.06,-92.17 567.76,-84.89 557.2,-85.77 560.06,-92.17"/>
</a>
</g>
</g>
<!-- Node12&#45;&gt;Node3 -->
<g id="edge16_Node000012_Node000003" class="edge">
<title>Node12&#45;&gt;Node3</title>
<g id="a_edge16_Node000012_Node000003"><a xlink:title=" ">
<path fill="none" stroke="#63b8ff" d="M554.41,-62.65C545.19,-60.44 535.28,-58.3 526,-56.75 359.27,-28.95 312.7,-39.14 141.8,-21.01"/>
<polygon fill="#63b8ff" stroke="#63b8ff" points="142.18,-17.53 131.86,-19.94 141.43,-24.49 142.18,-17.53"/>
</a>
</g>
</g>
<!-- Node12&#45;&gt;Node5 -->
<g id="edge17_Node000012_Node000005" class="edge">
<title>Node12&#45;&gt;Node5</title>
<g id="a_edge17_Node000012_Node000005"><a xlink:title=" ">
<path fill="none" stroke="#63b8ff" d="M552.98,-62.66C544.16,-60.55 534.78,-58.45 526,-56.75 482.46,-48.33 369.05,-32.39 291.65,-21.82"/>
<polygon fill="#63b8ff" stroke="#63b8ff" points="292.39,-18.39 282.01,-20.51 291.44,-25.33 292.39,-18.39"/>
</a>
</g>
</g>
<!-- Node12&#45;&gt;Node6 -->
<g id="edge20_Node000012_Node000006" class="edge">
<title>Node12&#45;&gt;Node6</title>
<g id="a_edge20_Node000012_Node000006"><a xlink:title=" ">
<path fill="none" stroke="#63b8ff" d="M646.76,-63.87C715.98,-53.16 834.29,-34.85 911.3,-22.93"/>
<polygon fill="#63b8ff" stroke="#63b8ff" points="911.51,-26.44 920.86,-21.46 910.44,-19.53 911.51,-26.44"/>
</a>
</g>
</g>
<!-- Node12&#45;&gt;Node7 -->
<g id="edge21_Node000012_Node000007" class="edge">
<title>Node12&#45;&gt;Node7</title>
<g id="a_edge21_Node000012_Node000007"><a xlink:title=" ">
<path fill="none" stroke="#63b8ff" d="M625.54,-62.68C662.22,-52.25 720.34,-35.73 760.67,-24.26"/>
<polygon fill="#63b8ff" stroke="#63b8ff" points="761.42,-27.69 770.09,-21.59 759.51,-20.95 761.42,-27.69"/>
</a>
</g>
</g>
<!-- Node13 -->
<g id="Node000013" class="node">
<title>Node13</title>
<g id="a_Node000013"><a xlink:title=" ">
<polygon fill="#e0e0e0" stroke="#999999" points="477.62,-20.75 360.38,-20.75 360.38,0 477.62,0 477.62,-20.75"/>
<text text-anchor="middle" x="419" y="-7.25" font-family="Helvetica,sans-Serif" font-size="10.00">llvm/ADT/StringRef.h</text>
</a>
</g>
</g>
<!-- Node12&#45;&gt;Node13 -->
<g id="edge18_Node000012_Node000013" class="edge">
<title>Node12&#45;&gt;Node13</title>
<g id="a_edge18_Node000012_Node000013"><a xlink:title=" ">
<path fill="none" stroke="#63b8ff" d="M563.37,-62.68C534.65,-52.48 489.51,-36.43 457.35,-25"/>
<polygon fill="#63b8ff" stroke="#63b8ff" points="458.59,-21.73 447.99,-21.68 456.24,-28.32 458.59,-21.73"/>
</a>
</g>
</g>
<!-- Node14 -->
<g id="Node000014" class="node">
<title>Node14</title>
<g id="a_Node000014"><a xlink:title=" ">
<polygon fill="#e0e0e0" stroke="#999999" points="629.88,-20.75 496.12,-20.75 496.12,0 629.88,0 629.88,-20.75"/>
<text text-anchor="middle" x="563" y="-7.25" font-family="Helvetica,sans-Serif" font-size="10.00">llvm/ADT/StringSwitch.h</text>
</a>
</g>
</g>
<!-- Node12&#45;&gt;Node14 -->
<g id="edge19_Node000012_Node000014" class="edge">
<title>Node12&#45;&gt;Node14</title>
<g id="a_edge19_Node000012_Node000014"><a xlink:title=" ">
<path fill="none" stroke="#63b8ff" d="M586.5,-62.68C582.64,-54.25 576.96,-41.84 572.15,-31.34"/>
<polygon fill="#63b8ff" stroke="#63b8ff" points="575.37,-29.98 568.03,-22.35 569.01,-32.9 575.37,-29.98"/>
</a>
</g>
</g>
<!-- Node15 -->
<g id="Node000015" class="node">
<title>Node15</title>
<g id="a_Node000015"><a xlink:title=" ">
<polygon fill="#e0e0e0" stroke="#999999" points="705.62,-20.75 648.38,-20.75 648.38,0 705.62,0 705.62,-20.75"/>
<text text-anchor="middle" x="677" y="-7.25" font-family="Helvetica,sans-Serif" font-size="10.00">memory</text>
</a>
</g>
</g>
<!-- Node12&#45;&gt;Node15 -->
<g id="edge22_Node000012_Node000015" class="edge">
<title>Node12&#45;&gt;Node15</title>
<g id="a_edge22_Node000012_Node000015"><a xlink:title=" ">
<path fill="none" stroke="#63b8ff" d="M604.82,-62.68C618.11,-53.23 638.44,-38.78 654.14,-27.62"/>
<polygon fill="#63b8ff" stroke="#63b8ff" points="655.86,-30.69 661.98,-22.05 651.8,-24.99 655.86,-30.69"/>
</a>
</g>
</g>
<!-- Node16 -->
<g id="Node000016" class="node">
<title>Node16</title>
<g id="a_Node000016"><a xlink:title=" ">
<polygon fill="#e0e0e0" stroke="#999999" points="341.88,-20.75 298.12,-20.75 298.12,0 341.88,0 341.88,-20.75"/>
<text text-anchor="middle" x="320" y="-7.25" font-family="Helvetica,sans-Serif" font-size="10.00">string</text>
</a>
</g>
</g>
<!-- Node12&#45;&gt;Node16 -->
<g id="edge23_Node000012_Node000016" class="edge">
<title>Node12&#45;&gt;Node16</title>
<g id="a_edge23_Node000012_Node000016"><a xlink:title=" ">
<path fill="none" stroke="#63b8ff" d="M551.52,-62.7C543.11,-60.68 534.27,-58.6 526,-56.75 451.84,-40.14 429.84,-40.22 352.98,-21.08"/>
<polygon fill="#63b8ff" stroke="#63b8ff" points="354.3,-17.8 343.75,-18.75 352.59,-24.59 354.3,-17.8"/>
</a>
</g>
</g>
</g>
</svg>
