<?xml version="1.0" encoding="UTF-8" standalone="no"?>
<!DOCTYPE svg PUBLIC "-//W3C//DTD SVG 1.1//EN"
 "http://www.w3.org/Graphics/SVG/1.1/DTD/svg11.dtd">
<!-- Generated by graphviz version 12.2.1 (0)
 -->
<!-- Title: lib/CAPI/Typing.cpp Pages: 1 -->
<svg width="1137pt" height="199pt"
 viewBox="0.00 0.00 1136.75 199.00" xmlns="http://www.w3.org/2000/svg" xmlns:xlink="http://www.w3.org/1999/xlink">
<g id="graph0" class="graph" transform="scale(1 1) rotate(0) translate(4 195)">
<title>lib/CAPI/Typing.cpp</title>
<!-- Node1 -->
<g id="Node000001" class="node">
<title>Node1</title>
<g id="a_Node000001"><a xlink:title=" ">
<polygon fill="#999999" stroke="#666666" points="751.25,-191 643,-191 643,-170.25 751.25,-170.25 751.25,-191"/>
<text text-anchor="middle" x="697.12" y="-177.5" font-family="Helvetica,sans-Serif" font-size="10.00">lib/CAPI/Typing.cpp</text>
</a>
</g>
</g>
<!-- Node2 -->
<g id="Node000002" class="node">
<title>Node2</title>
<g id="a_Node000002"><a xlink:href="Typing_8h.html" target="_top" xlink:title=" ">
<polygon fill="white" stroke="#666666" points="227,-134.25 141.25,-134.25 141.25,-113.5 227,-113.5 227,-134.25"/>
<text text-anchor="middle" x="184.12" y="-120.75" font-family="Helvetica,sans-Serif" font-size="10.00">llzk&#45;c/Typing.h</text>
</a>
</g>
</g>
<!-- Node1&#45;&gt;Node2 -->
<g id="edge1_Node000001_Node000002" class="edge">
<title>Node1&#45;&gt;Node2</title>
<g id="a_edge1_Node000001_Node000002"><a xlink:title=" ">
<path fill="none" stroke="#63b8ff" d="M642.71,-173.82C544.11,-163.29 337.02,-141.19 238.47,-130.68"/>
<polygon fill="#63b8ff" stroke="#63b8ff" points="239.11,-127.22 228.8,-129.64 238.37,-134.18 239.11,-127.22"/>
</a>
</g>
</g>
<!-- Node5 -->
<g id="Node000005" class="node">
<title>Node5</title>
<g id="a_Node000005"><a xlink:href="TypeHelper_8h.html" target="_top" xlink:title=" ">
<polygon fill="white" stroke="#666666" points="637.88,-134.25 518.38,-134.25 518.38,-113.5 637.88,-113.5 637.88,-134.25"/>
<text text-anchor="middle" x="578.12" y="-120.75" font-family="Helvetica,sans-Serif" font-size="10.00">llzk/Util/TypeHelper.h</text>
</a>
</g>
</g>
<!-- Node1&#45;&gt;Node5 -->
<g id="edge4_Node000001_Node000005" class="edge">
<title>Node1&#45;&gt;Node5</title>
<g id="a_edge4_Node000001_Node000005"><a xlink:title=" ">
<path fill="none" stroke="#63b8ff" d="M675.85,-169.84C657.41,-161.35 630.46,-148.95 609.53,-139.33"/>
<polygon fill="#63b8ff" stroke="#63b8ff" points="611.14,-136.21 600.59,-135.21 608.21,-142.57 611.14,-136.21"/>
</a>
</g>
</g>
<!-- Node18 -->
<g id="Node000018" class="node">
<title>Node18</title>
<g id="a_Node000018"><a xlink:title=" ">
<polygon fill="#e0e0e0" stroke="#999999" points="738.5,-134.25 655.75,-134.25 655.75,-113.5 738.5,-113.5 738.5,-134.25"/>
<text text-anchor="middle" x="697.12" y="-120.75" font-family="Helvetica,sans-Serif" font-size="10.00">mlir/CAPI/IR.h</text>
</a>
</g>
</g>
<!-- Node1&#45;&gt;Node18 -->
<g id="edge18_Node000001_Node000018" class="edge">
<title>Node1&#45;&gt;Node18</title>
<g id="a_edge18_Node000001_Node000018"><a xlink:title=" ">
<path fill="none" stroke="#63b8ff" d="M697.12,-169.84C697.12,-163.22 697.12,-154.22 697.12,-146.02"/>
<polygon fill="#63b8ff" stroke="#63b8ff" points="700.63,-146.09 697.13,-136.09 693.63,-146.09 700.63,-146.09"/>
</a>
</g>
</g>
<!-- Node19 -->
<g id="Node000019" class="node">
<title>Node19</title>
<g id="a_Node000019"><a xlink:title=" ">
<polygon fill="#e0e0e0" stroke="#999999" points="867.38,-134.25 756.88,-134.25 756.88,-113.5 867.38,-113.5 867.38,-134.25"/>
<text text-anchor="middle" x="812.12" y="-120.75" font-family="Helvetica,sans-Serif" font-size="10.00">mlir/CAPI/Support.h</text>
</a>
</g>
</g>
<!-- Node1&#45;&gt;Node19 -->
<g id="edge19_Node000001_Node000019" class="edge">
<title>Node1&#45;&gt;Node19</title>
<g id="a_edge19_Node000001_Node000019"><a xlink:title=" ">
<path fill="none" stroke="#63b8ff" d="M717.68,-169.84C735.43,-161.39 761.31,-149.07 781.49,-139.46"/>
<polygon fill="#63b8ff" stroke="#63b8ff" points="782.85,-142.69 790.38,-135.23 779.84,-136.37 782.85,-142.69"/>
</a>
</g>
</g>
<!-- Node20 -->
<g id="Node000020" class="node">
<title>Node20</title>
<g id="a_Node000020"><a xlink:title=" ">
<polygon fill="#e0e0e0" stroke="#999999" points="984.38,-134.25 885.88,-134.25 885.88,-113.5 984.38,-113.5 984.38,-134.25"/>
<text text-anchor="middle" x="935.12" y="-120.75" font-family="Helvetica,sans-Serif" font-size="10.00">mlir/CAPI/Wrap.h</text>
</a>
</g>
</g>
<!-- Node1&#45;&gt;Node20 -->
<g id="edge20_Node000001_Node000020" class="edge">
<title>Node1&#45;&gt;Node20</title>
<g id="a_edge20_Node000001_Node000020"><a xlink:title=" ">
<path fill="none" stroke="#63b8ff" d="M739.95,-169.77C779.51,-160.67 838.44,-147.12 881.2,-137.28"/>
<polygon fill="#63b8ff" stroke="#63b8ff" points="881.81,-140.73 890.77,-135.08 880.24,-133.91 881.81,-140.73"/>
</a>
</g>
</g>
<!-- Node3 -->
<g id="Node000003" class="node">
<title>Node3</title>
<g id="a_Node000003"><a xlink:title=" ">
<polygon fill="#e0e0e0" stroke="#999999" points="119.25,-77.5 53,-77.5 53,-56.75 119.25,-56.75 119.25,-77.5"/>
<text text-anchor="middle" x="86.12" y="-64" font-family="Helvetica,sans-Serif" font-size="10.00">mlir&#45;c/IR.h</text>
</a>
</g>
</g>
<!-- Node2&#45;&gt;Node3 -->
<g id="edge2_Node000002_Node000003" class="edge">
<title>Node2&#45;&gt;Node3</title>
<g id="a_edge2_Node000002_Node000003"><a xlink:title=" ">
<path fill="none" stroke="#63b8ff" d="M166.6,-113.09C151.83,-104.83 130.44,-92.88 113.43,-83.38"/>
<polygon fill="#63b8ff" stroke="#63b8ff" points="115.25,-80.39 104.82,-78.57 111.84,-86.5 115.25,-80.39"/>
</a>
</g>
</g>
<!-- Node4 -->
<g id="Node000004" class="node">
<title>Node4</title>
<g id="a_Node000004"><a xlink:title=" ">
<polygon fill="#e0e0e0" stroke="#999999" points="231.12,-77.5 137.12,-77.5 137.12,-56.75 231.12,-56.75 231.12,-77.5"/>
<text text-anchor="middle" x="184.12" y="-64" font-family="Helvetica,sans-Serif" font-size="10.00">mlir&#45;c/Support.h</text>
</a>
</g>
</g>
<!-- Node2&#45;&gt;Node4 -->
<g id="edge3_Node000002_Node000004" class="edge">
<title>Node2&#45;&gt;Node4</title>
<g id="a_edge3_Node000002_Node000004"><a xlink:title=" ">
<path fill="none" stroke="#63b8ff" d="M184.12,-113.09C184.12,-106.47 184.12,-97.47 184.12,-89.27"/>
<polygon fill="#63b8ff" stroke="#63b8ff" points="187.63,-89.34 184.13,-79.34 180.63,-89.34 187.63,-89.34"/>
</a>
</g>
</g>
<!-- Node6 -->
<g id="Node000006" class="node">
<title>Node6</title>
<g id="a_Node000006"><a xlink:href="ErrorHelper_8h.html" target="_top" xlink:title=" ">
<polygon fill="white" stroke="#666666" points="407.25,-77.5 287,-77.5 287,-56.75 407.25,-56.75 407.25,-77.5"/>
<text text-anchor="middle" x="347.12" y="-64" font-family="Helvetica,sans-Serif" font-size="10.00">llzk/Util/ErrorHelper.h</text>
</a>
</g>
</g>
<!-- Node5&#45;&gt;Node6 -->
<g id="edge5_Node000005_Node000006" class="edge">
<title>Node5&#45;&gt;Node6</title>
<g id="a_edge5_Node000005_Node000006"><a xlink:title=" ">
<path fill="none" stroke="#63b8ff" d="M536.56,-113.02C498.25,-103.94 441.21,-90.42 399.73,-80.59"/>
<polygon fill="#63b8ff" stroke="#63b8ff" points="400.76,-77.24 390.22,-78.34 399.14,-84.05 400.76,-77.24"/>
</a>
</g>
</g>
<!-- Node8 -->
<g id="Node000008" class="node">
<title>Node8</title>
<g id="a_Node000008"><a xlink:title=" ">
<polygon fill="#e0e0e0" stroke="#999999" points="108.25,-20.75 0,-20.75 0,0 108.25,0 108.25,-20.75"/>
<text text-anchor="middle" x="54.12" y="-7.25" font-family="Helvetica,sans-Serif" font-size="10.00">mlir/IR/Operation.h</text>
</a>
</g>
</g>
<!-- Node5&#45;&gt;Node8 -->
<g id="edge13_Node000005_Node000008" class="edge">
<title>Node5&#45;&gt;Node8</title>
<g id="a_edge13_Node000005_Node000008"><a xlink:title=" ">
<path fill="none" stroke="#63b8ff" d="M518.05,-119.95C456.43,-115.54 358.49,-104.58 278.12,-77.5 259.89,-71.36 258.07,-63.7 240.12,-56.75 201.22,-41.68 155.75,-30.48 119.51,-22.98"/>
<polygon fill="#63b8ff" stroke="#63b8ff" points="120.56,-19.62 110.06,-21.07 119.17,-26.48 120.56,-19.62"/>
</a>
</g>
</g>
<!-- Node13 -->
<g id="Node000013" class="node">
<title>Node13</title>
<g id="a_Node000013"><a xlink:title=" ">
<polygon fill="#e0e0e0" stroke="#999999" points="577,-77.5 425.25,-77.5 425.25,-56.75 577,-56.75 577,-77.5"/>
<text text-anchor="middle" x="501.12" y="-64" font-family="Helvetica,sans-Serif" font-size="10.00">mlir/IR/OpImplementation.h</text>
</a>
</g>
</g>
<!-- Node5&#45;&gt;Node13 -->
<g id="edge12_Node000005_Node000013" class="edge">
<title>Node5&#45;&gt;Node13</title>
<g id="a_edge12_Node000005_Node000013"><a xlink:title=" ">
<path fill="none" stroke="#63b8ff" d="M564.36,-113.09C553.19,-105.15 537.21,-93.78 524.1,-84.46"/>
<polygon fill="#63b8ff" stroke="#63b8ff" points="526.18,-81.65 516.01,-78.71 522.13,-87.35 526.18,-81.65"/>
</a>
</g>
</g>
<!-- Node14 -->
<g id="Node000014" class="node">
<title>Node14</title>
<g id="a_Node000014"><a xlink:title=" ">
<polygon fill="#e0e0e0" stroke="#999999" points="717.38,-77.5 594.88,-77.5 594.88,-56.75 717.38,-56.75 717.38,-77.5"/>
<text text-anchor="middle" x="656.12" y="-64" font-family="Helvetica,sans-Serif" font-size="10.00">mlir/IR/SymbolTable.h</text>
</a>
</g>
</g>
<!-- Node5&#45;&gt;Node14 -->
<g id="edge14_Node000005_Node000014" class="edge">
<title>Node5&#45;&gt;Node14</title>
<g id="a_edge14_Node000005_Node000014"><a xlink:title=" ">
<path fill="none" stroke="#63b8ff" d="M592.07,-113.09C603.49,-105.07 619.89,-93.56 633.24,-84.19"/>
<polygon fill="#63b8ff" stroke="#63b8ff" points="634.89,-87.31 641.06,-78.7 630.87,-81.58 634.89,-87.31"/>
</a>
</g>
</g>
<!-- Node15 -->
<g id="Node000015" class="node">
<title>Node15</title>
<g id="a_Node000015"><a xlink:title=" ">
<polygon fill="#e0e0e0" stroke="#999999" points="850.62,-77.5 735.62,-77.5 735.62,-56.75 850.62,-56.75 850.62,-77.5"/>
<text text-anchor="middle" x="793.12" y="-64" font-family="Helvetica,sans-Serif" font-size="10.00">llvm/ADT/ArrayRef.h</text>
</a>
</g>
</g>
<!-- Node5&#45;&gt;Node15 -->
<g id="edge15_Node000005_Node000015" class="edge">
<title>Node5&#45;&gt;Node15</title>
<g id="a_edge15_Node000005_Node000015"><a xlink:title=" ">
<path fill="none" stroke="#63b8ff" d="M616.56,-113.09C652.07,-104.04 705.01,-90.56 743.66,-80.72"/>
<polygon fill="#63b8ff" stroke="#63b8ff" points="744.36,-84.15 753.19,-78.29 742.64,-77.37 744.36,-84.15"/>
</a>
</g>
</g>
<!-- Node16 -->
<g id="Node000016" class="node">
<title>Node16</title>
<g id="a_Node000016"><a xlink:title=" ">
<polygon fill="#e0e0e0" stroke="#999999" points="993.5,-77.5 868.75,-77.5 868.75,-56.75 993.5,-56.75 993.5,-77.5"/>
<text text-anchor="middle" x="931.12" y="-64" font-family="Helvetica,sans-Serif" font-size="10.00">llvm/ADT/DenseMap.h</text>
</a>
</g>
</g>
<!-- Node5&#45;&gt;Node16 -->
<g id="edge16_Node000005_Node000016" class="edge">
<title>Node5&#45;&gt;Node16</title>
<g id="a_edge16_Node000005_Node000016"><a xlink:title=" ">
<path fill="none" stroke="#63b8ff" d="M638.01,-113.59C698.53,-104.2 792.17,-89.68 857.27,-79.58"/>
<polygon fill="#63b8ff" stroke="#63b8ff" points="857.43,-83.1 866.77,-78.11 856.35,-76.18 857.43,-83.1"/>
</a>
</g>
</g>
<!-- Node17 -->
<g id="Node000017" class="node">
<title>Node17</title>
<g id="a_Node000017"><a xlink:title=" ">
<polygon fill="#e0e0e0" stroke="#999999" points="1128.75,-77.5 1011.5,-77.5 1011.5,-56.75 1128.75,-56.75 1128.75,-77.5"/>
<text text-anchor="middle" x="1070.12" y="-64" font-family="Helvetica,sans-Serif" font-size="10.00">llvm/ADT/StringRef.h</text>
</a>
</g>
</g>
<!-- Node5&#45;&gt;Node17 -->
<g id="edge17_Node000005_Node000017" class="edge">
<title>Node5&#45;&gt;Node17</title>
<g id="a_edge17_Node000005_Node000017"><a xlink:title=" ">
<path fill="none" stroke="#63b8ff" d="M638.32,-114.57C641.3,-114.2 644.24,-113.84 647.12,-113.5 801.07,-95.24 842.8,-96.27 1000.14,-77.7"/>
<polygon fill="#63b8ff" stroke="#63b8ff" points="1000.15,-81.22 1009.67,-76.56 999.32,-74.27 1000.15,-81.22"/>
</a>
</g>
</g>
<!-- Node7 -->
<g id="Node000007" class="node">
<title>Node7</title>
<g id="a_Node000007"><a xlink:title=" ">
<polygon fill="#e0e0e0" stroke="#999999" points="243.75,-20.75 126.5,-20.75 126.5,0 243.75,0 243.75,-20.75"/>
<text text-anchor="middle" x="185.12" y="-7.25" font-family="Helvetica,sans-Serif" font-size="10.00">mlir/IR/Diagnostics.h</text>
</a>
</g>
</g>
<!-- Node6&#45;&gt;Node7 -->
<g id="edge6_Node000006_Node000007" class="edge">
<title>Node6&#45;&gt;Node7</title>
<g id="a_edge6_Node000006_Node000007"><a xlink:title=" ">
<path fill="none" stroke="#63b8ff" d="M318.16,-56.34C292.1,-47.53 253.56,-34.5 224.67,-24.74"/>
<polygon fill="#63b8ff" stroke="#63b8ff" points="226.14,-21.54 215.54,-21.66 223.9,-28.17 226.14,-21.54"/>
</a>
</g>
</g>
<!-- Node6&#45;&gt;Node8 -->
<g id="edge7_Node000006_Node000008" class="edge">
<title>Node6&#45;&gt;Node8</title>
<g id="a_edge7_Node000006_Node000008"><a xlink:title=" ">
<path fill="none" stroke="#63b8ff" d="M294.4,-56.27C244.98,-47.04 170.98,-33.21 118.18,-23.34"/>
<polygon fill="#63b8ff" stroke="#63b8ff" points="118.88,-19.91 108.4,-21.52 117.59,-26.79 118.88,-19.91"/>
</a>
</g>
</g>
<!-- Node9 -->
<g id="Node000009" class="node">
<title>Node9</title>
<g id="a_Node000009"><a xlink:title=" ">
<polygon fill="#e0e0e0" stroke="#999999" points="432.75,-20.75 261.5,-20.75 261.5,0 432.75,0 432.75,-20.75"/>
<text text-anchor="middle" x="347.12" y="-7.25" font-family="Helvetica,sans-Serif" font-size="10.00">llvm/ADT/STLFunctionalExtras.h</text>
</a>
</g>
</g>
<!-- Node6&#45;&gt;Node9 -->
<g id="edge8_Node000006_Node000009" class="edge">
<title>Node6&#45;&gt;Node9</title>
<g id="a_edge8_Node000006_Node000009"><a xlink:title=" ">
<path fill="none" stroke="#63b8ff" d="M347.12,-56.34C347.12,-49.72 347.12,-40.72 347.12,-32.52"/>
<polygon fill="#63b8ff" stroke="#63b8ff" points="350.63,-32.59 347.13,-22.59 343.63,-32.59 350.63,-32.59"/>
</a>
</g>
</g>
<!-- Node10 -->
<g id="Node000010" class="node">
<title>Node10</title>
<g id="a_Node000010"><a xlink:title=" ">
<polygon fill="#e0e0e0" stroke="#999999" points="551.5,-20.75 450.75,-20.75 450.75,0 551.5,0 551.5,-20.75"/>
<text text-anchor="middle" x="501.12" y="-7.25" font-family="Helvetica,sans-Serif" font-size="10.00">llvm/ADT/Twine.h</text>
</a>
</g>
</g>
<!-- Node6&#45;&gt;Node10 -->
<g id="edge9_Node000006_Node000010" class="edge">
<title>Node6&#45;&gt;Node10</title>
<g id="a_edge9_Node000006_Node000010"><a xlink:title=" ">
<path fill="none" stroke="#63b8ff" d="M374.66,-56.34C399.22,-47.61 435.42,-34.73 462.81,-25"/>
<polygon fill="#63b8ff" stroke="#63b8ff" points="463.9,-28.33 472.15,-21.68 461.55,-21.73 463.9,-28.33"/>
</a>
</g>
</g>
<!-- Node11 -->
<g id="Node000011" class="node">
<title>Node11</title>
<g id="a_Node000011"><a xlink:title=" ">
<polygon fill="#e0e0e0" stroke="#999999" points="726.62,-20.75 569.62,-20.75 569.62,0 726.62,0 726.62,-20.75"/>
<text text-anchor="middle" x="648.12" y="-7.25" font-family="Helvetica,sans-Serif" font-size="10.00">llvm/Support/ErrorHandling.h</text>
</a>
</g>
</g>
<!-- Node6&#45;&gt;Node11 -->
<g id="edge10_Node000006_Node000011" class="edge">
<title>Node6&#45;&gt;Node11</title>
<g id="a_edge10_Node000006_Node000011"><a xlink:title=" ">
<path fill="none" stroke="#63b8ff" d="M401.29,-56.27C452.17,-47.02 528.39,-33.15 582.66,-23.28"/>
<polygon fill="#63b8ff" stroke="#63b8ff" points="583.19,-26.74 592.4,-21.51 581.94,-19.86 583.19,-26.74"/>
</a>
</g>
</g>
<!-- Node12 -->
<g id="Node000012" class="node">
<title>Node12</title>
<g id="a_Node000012"><a xlink:title=" ">
<polygon fill="#e0e0e0" stroke="#999999" points="795.38,-20.75 744.88,-20.75 744.88,0 795.38,0 795.38,-20.75"/>
<text text-anchor="middle" x="770.12" y="-7.25" font-family="Helvetica,sans-Serif" font-size="10.00">variant</text>
</a>
</g>
</g>
<!-- Node6&#45;&gt;Node12 -->
<g id="edge11_Node000006_Node000012" class="edge">
<title>Node6&#45;&gt;Node12</title>
<g id="a_edge11_Node000006_Node000012"><a xlink:title=" ">
<path fill="none" stroke="#63b8ff" d="M407.7,-57.81C410.55,-57.45 413.37,-57.09 416.12,-56.75 554.55,-39.56 593.63,-47.43 733.47,-21.01"/>
<polygon fill="#63b8ff" stroke="#63b8ff" points="733.96,-24.48 743.12,-19.16 732.64,-17.6 733.96,-24.48"/>
</a>
</g>
</g>
</g>
</svg>
