<?xml version="1.0" encoding="UTF-8" standalone="no"?>
<!DOCTYPE svg PUBLIC "-//W3C//DTD SVG 1.1//EN"
 "http://www.w3.org/Graphics/SVG/1.1/DTD/svg11.dtd">
<!-- Generated by graphviz version 12.2.1 (0)
 -->
<!-- Title: include/llzk/Dialect/Bool/IR/Utils.h Pages: 1 -->
<svg width="266pt" height="111pt"
 viewBox="0.00 0.00 265.50 111.00" xmlns="http://www.w3.org/2000/svg" xmlns:xlink="http://www.w3.org/1999/xlink">
<g id="graph0" class="graph" transform="scale(1 1) rotate(0) translate(4 107)">
<title>include/llzk/Dialect/Bool/IR/Utils.h</title>
<!-- Node1 -->
<g id="Node000001" class="node">
<title>Node1</title>
<g id="a_Node000001"><a xlink:title=" ">
<polygon fill="#999999" stroke="#666666" points="191.5,-103 82.5,-103 82.5,-69.5 191.5,-69.5 191.5,-103"/>
<text text-anchor="start" x="90.5" y="-89.5" font-family="Helvetica,sans-Serif" font-size="10.00">include/llzk/Dialect</text>
<text text-anchor="middle" x="137" y="-76.75" font-family="Helvetica,sans-Serif" font-size="10.00">/Bool/IR/Utils.h</text>
</a>
</g>
</g>
<!-- Node2 -->
<g id="Node000002" class="node">
<title>Node2</title>
<g id="a_Node000002"><a xlink:href="Bool_8cpp.html" target="_top" xlink:title=" ">
<polygon fill="white" stroke="#666666" points="136,-27.12 0,-27.12 0,-6.38 136,-6.38 136,-27.12"/>
<text text-anchor="middle" x="68" y="-13.62" font-family="Helvetica,sans-Serif" font-size="10.00">lib/CAPI/Dialect/Bool.cpp</text>
</a>
</g>
</g>
<!-- Node1&#45;&gt;Node2 -->
<g id="edge1_Node000001_Node000002" class="edge">
<title>Node1&#45;&gt;Node2</title>
<g id="a_edge1_Node000001_Node000002"><a xlink:title=" ">
<path fill="none" stroke="#63b8ff" d="M112.76,-61.54C100.84,-49.87 87.11,-36.45 78.04,-27.57"/>
<polygon fill="#63b8ff" stroke="#63b8ff" points="109.97,-63.7 119.57,-68.2 114.87,-58.7 109.97,-63.7"/>
</a>
</g>
</g>
<!-- Node3 -->
<g id="Node000003" class="node">
<title>Node3</title>
<g id="a_Node000003"><a xlink:href="Bool_2IR_2Ops_8cpp.html" target="_top" xlink:title=" ">
<polygon fill="white" stroke="#666666" points="257.5,-33.5 154.5,-33.5 154.5,0 257.5,0 257.5,-33.5"/>
<text text-anchor="start" x="162.5" y="-20" font-family="Helvetica,sans-Serif" font-size="10.00">lib/Dialect/Bool/IR</text>
<text text-anchor="middle" x="206" y="-7.25" font-family="Helvetica,sans-Serif" font-size="10.00">/Ops.cpp</text>
</a>
</g>
</g>
<!-- Node1&#45;&gt;Node3 -->
<g id="edge2_Node000001_Node000003" class="edge">
<title>Node1&#45;&gt;Node3</title>
<g id="a_edge2_Node000001_Node000003"><a xlink:title=" ">
<path fill="none" stroke="#63b8ff" d="M161.56,-61.22C170.93,-52.06 181.36,-41.85 189.77,-33.63"/>
<polygon fill="#63b8ff" stroke="#63b8ff" points="159.13,-58.7 154.43,-68.2 164.03,-63.7 159.13,-58.7"/>
</a>
</g>
</g>
</g>
</svg>
