<?xml version="1.0" encoding="UTF-8" standalone="no"?>
<!DOCTYPE svg PUBLIC "-//W3C//DTD SVG 1.1//EN"
 "http://www.w3.org/Graphics/SVG/1.1/DTD/svg11.dtd">
<!-- Generated by graphviz version 12.2.1 (0)
 -->
<!-- Title: build/include/llzk/Dialect/Verif/IR/OpInterfaces.h.inc Pages: 1 -->
<svg width="808pt" height="181pt"
 viewBox="0.00 0.00 807.88 180.50" xmlns="http://www.w3.org/2000/svg" xmlns:xlink="http://www.w3.org/1999/xlink">
<g id="graph0" class="graph" transform="scale(1 1) rotate(0) translate(4 176.5)">
<title>build/include/llzk/Dialect/Verif/IR/OpInterfaces.h.inc</title>
<!-- Node1 -->
<g id="Node000001" class="node">
<title>Node1</title>
<g id="a_Node000001"><a xlink:title=" ">
<polygon fill="#999999" stroke="#666666" points="500.62,-172.5 317.38,-172.5 317.38,-139 500.62,-139 500.62,-172.5"/>
<text text-anchor="start" x="325.38" y="-159" font-family="Helvetica,sans-Serif" font-size="10.00">build/include/llzk</text>
<text text-anchor="middle" x="409" y="-146.25" font-family="Helvetica,sans-Serif" font-size="10.00">/Dialect/Verif/IR/OpInterfaces.h.inc</text>
</a>
</g>
</g>
<!-- Node2 -->
<g id="Node000002" class="node">
<title>Node2</title>
<g id="a_Node000002"><a xlink:href="Verif_2IR_2Ops_8h.html" target="_top" xlink:title=" ">
<polygon fill="white" stroke="#666666" points="463.5,-103 354.5,-103 354.5,-69.5 463.5,-69.5 463.5,-103"/>
<text text-anchor="start" x="362.5" y="-89.5" font-family="Helvetica,sans-Serif" font-size="10.00">include/llzk/Dialect</text>
<text text-anchor="middle" x="409" y="-76.75" font-family="Helvetica,sans-Serif" font-size="10.00">/Verif/IR/Ops.h</text>
</a>
</g>
</g>
<!-- Node1&#45;&gt;Node2 -->
<g id="edge1_Node000001_Node000002" class="edge">
<title>Node1&#45;&gt;Node2</title>
<g id="a_edge1_Node000001_Node000002"><a xlink:title=" ">
<path fill="none" stroke="#63b8ff" d="M409,-127.31C409,-119.09 409,-110.34 409,-103.13"/>
<polygon fill="#63b8ff" stroke="#63b8ff" points="405.5,-127.24 409,-137.24 412.5,-127.24 405.5,-127.24"/>
</a>
</g>
</g>
<!-- Node3 -->
<g id="Node000003" class="node">
<title>Node3</title>
<g id="a_Node000003"><a xlink:href="Verif_8cpp.html" target="_top" xlink:title=" ">
<polygon fill="white" stroke="#666666" points="136,-27.12 0,-27.12 0,-6.38 136,-6.38 136,-27.12"/>
<text text-anchor="middle" x="68" y="-13.62" font-family="Helvetica,sans-Serif" font-size="10.00">lib/CAPI/Dialect/Verif.cpp</text>
</a>
</g>
</g>
<!-- Node2&#45;&gt;Node3 -->
<g id="edge2_Node000002_Node000003" class="edge">
<title>Node2&#45;&gt;Node3</title>
<g id="a_edge2_Node000002_Node000003"><a xlink:title=" ">
<path fill="none" stroke="#63b8ff" d="M343.09,-72.48C289.66,-62.1 212.45,-47.01 145,-33.5 135.5,-31.6 125.35,-29.54 115.63,-27.56"/>
<polygon fill="#63b8ff" stroke="#63b8ff" points="342.14,-75.87 352.63,-74.34 343.48,-69 342.14,-75.87"/>
</a>
</g>
</g>
<!-- Node4 -->
<g id="Node000004" class="node">
<title>Node4</title>
<g id="a_Node000004"><a xlink:href="Polymorphic_2IR_2Ops_8cpp.html" target="_top" xlink:title=" ">
<polygon fill="white" stroke="#666666" points="283.62,-33.5 154.38,-33.5 154.38,0 283.62,0 283.62,-33.5"/>
<text text-anchor="start" x="162.38" y="-20" font-family="Helvetica,sans-Serif" font-size="10.00">lib/Dialect/Polymorphic</text>
<text text-anchor="middle" x="219" y="-7.25" font-family="Helvetica,sans-Serif" font-size="10.00">/IR/Ops.cpp</text>
</a>
</g>
</g>
<!-- Node2&#45;&gt;Node4 -->
<g id="edge3_Node000002_Node000004" class="edge">
<title>Node2&#45;&gt;Node4</title>
<g id="a_edge3_Node000002_Node000004"><a xlink:title=" ">
<path fill="none" stroke="#63b8ff" d="M352.98,-65.35C324.78,-55.33 291.04,-43.34 264.47,-33.9"/>
<polygon fill="#63b8ff" stroke="#63b8ff" points="351.47,-68.53 362.06,-68.58 353.81,-61.93 351.47,-68.53"/>
</a>
</g>
</g>
<!-- Node5 -->
<g id="Node000005" class="node">
<title>Node5</title>
<g id="a_Node000005"><a xlink:href="Struct_2IR_2Ops_8cpp.html" target="_top" xlink:title=" ">
<polygon fill="white" stroke="#666666" points="398.5,-33.5 301.5,-33.5 301.5,0 398.5,0 398.5,-33.5"/>
<text text-anchor="start" x="309.5" y="-20" font-family="Helvetica,sans-Serif" font-size="10.00">lib/Dialect/Struct</text>
<text text-anchor="middle" x="350" y="-7.25" font-family="Helvetica,sans-Serif" font-size="10.00">/IR/Ops.cpp</text>
</a>
</g>
</g>
<!-- Node2&#45;&gt;Node5 -->
<g id="edge4_Node000002_Node000005" class="edge">
<title>Node2&#45;&gt;Node5</title>
<g id="a_edge4_Node000002_Node000005"><a xlink:title=" ">
<path fill="none" stroke="#63b8ff" d="M387.5,-60.66C379.62,-51.64 370.92,-41.68 363.88,-33.63"/>
<polygon fill="#63b8ff" stroke="#63b8ff" points="384.81,-62.89 394.02,-68.11 390.08,-58.28 384.81,-62.89"/>
</a>
</g>
</g>
<!-- Node6 -->
<g id="Node000006" class="node">
<title>Node6</title>
<g id="a_Node000006"><a xlink:href="Verif_2IR_2Dialect_8cpp.html" target="_top" xlink:title=" ">
<polygon fill="white" stroke="#666666" points="519.88,-33.5 416.12,-33.5 416.12,0 519.88,0 519.88,-33.5"/>
<text text-anchor="start" x="424.12" y="-20" font-family="Helvetica,sans-Serif" font-size="10.00">lib/Dialect/Verif/IR</text>
<text text-anchor="middle" x="468" y="-7.25" font-family="Helvetica,sans-Serif" font-size="10.00">/Dialect.cpp</text>
</a>
</g>
</g>
<!-- Node2&#45;&gt;Node6 -->
<g id="edge5_Node000002_Node000006" class="edge">
<title>Node2&#45;&gt;Node6</title>
<g id="a_edge5_Node000002_Node000006"><a xlink:title=" ">
<path fill="none" stroke="#63b8ff" d="M430.5,-60.66C438.38,-51.64 447.08,-41.68 454.12,-33.63"/>
<polygon fill="#63b8ff" stroke="#63b8ff" points="427.92,-58.28 423.98,-68.11 433.19,-62.89 427.92,-58.28"/>
</a>
</g>
</g>
<!-- Node7 -->
<g id="Node000007" class="node">
<title>Node7</title>
<g id="a_Node000007"><a xlink:href="Verif_2IR_2Ops_8cpp.html" target="_top" xlink:title=" ">
<polygon fill="white" stroke="#666666" points="641.88,-33.5 538.12,-33.5 538.12,0 641.88,0 641.88,-33.5"/>
<text text-anchor="start" x="546.12" y="-20" font-family="Helvetica,sans-Serif" font-size="10.00">lib/Dialect/Verif/IR</text>
<text text-anchor="middle" x="590" y="-7.25" font-family="Helvetica,sans-Serif" font-size="10.00">/Ops.cpp</text>
</a>
</g>
</g>
<!-- Node2&#45;&gt;Node7 -->
<g id="edge6_Node000002_Node000007" class="edge">
<title>Node2&#45;&gt;Node7</title>
<g id="a_edge6_Node000002_Node000007"><a xlink:title=" ">
<path fill="none" stroke="#63b8ff" d="M463.08,-65.08C489.8,-55.12 521.6,-43.26 546.69,-33.9"/>
<polygon fill="#63b8ff" stroke="#63b8ff" points="461.92,-61.78 453.77,-68.55 464.36,-68.34 461.92,-61.78"/>
</a>
</g>
</g>
<!-- Node8 -->
<g id="Node000008" class="node">
<title>Node8</title>
<g id="a_Node000008"><a xlink:href="SymbolHelper_8cpp.html" target="_top" xlink:title="This file contains the implementations for symbol helper functions.">
<polygon fill="white" stroke="#666666" points="799.88,-27.12 660.12,-27.12 660.12,-6.38 799.88,-6.38 799.88,-27.12"/>
<text text-anchor="middle" x="730" y="-13.62" font-family="Helvetica,sans-Serif" font-size="10.00">lib/Util/SymbolHelper.cpp</text>
</a>
</g>
</g>
<!-- Node2&#45;&gt;Node8 -->
<g id="edge7_Node000002_Node000008" class="edge">
<title>Node2&#45;&gt;Node8</title>
<g id="a_edge7_Node000002_Node000008"><a xlink:title=" ">
<path fill="none" stroke="#63b8ff" d="M475.05,-71.36C537.1,-58.31 628.39,-39.12 683.23,-27.58"/>
<polygon fill="#63b8ff" stroke="#63b8ff" points="474.36,-67.93 465.3,-73.41 475.8,-74.78 474.36,-67.93"/>
</a>
</g>
</g>
</g>
</svg>
