<?xml version="1.0" encoding="UTF-8" standalone="no"?>
<!DOCTYPE svg PUBLIC "-//W3C//DTD SVG 1.1//EN"
 "http://www.w3.org/Graphics/SVG/1.1/DTD/svg11.dtd">
<!-- Generated by graphviz version 12.2.1 (0)
 -->
<!-- Title: include/llzk/Dialect/Verif/IR/Dialect.h Pages: 1 -->
<svg width="373pt" height="111pt"
 viewBox="0.00 0.00 373.38 111.00" xmlns="http://www.w3.org/2000/svg" xmlns:xlink="http://www.w3.org/1999/xlink">
<g id="graph0" class="graph" transform="scale(1 1) rotate(0) translate(4 107)">
<title>include/llzk/Dialect/Verif/IR/Dialect.h</title>
<!-- Node1 -->
<g id="Node000001" class="node">
<title>Node1</title>
<g id="a_Node000001"><a xlink:title=" ">
<polygon fill="#999999" stroke="#666666" points="244.75,-103 135.75,-103 135.75,-69.5 244.75,-69.5 244.75,-103"/>
<text text-anchor="start" x="143.75" y="-89.5" font-family="Helvetica,sans-Serif" font-size="10.00">include/llzk/Dialect</text>
<text text-anchor="middle" x="190.25" y="-76.75" font-family="Helvetica,sans-Serif" font-size="10.00">/Verif/IR/Dialect.h</text>
</a>
</g>
</g>
<!-- Node2 -->
<g id="Node000002" class="node">
<title>Node2</title>
<g id="a_Node000002"><a xlink:title=" ">
<polygon fill="#e0e0e0" stroke="#999999" points="110.5,-27.12 0,-27.12 0,-6.38 110.5,-6.38 110.5,-27.12"/>
<text text-anchor="middle" x="55.25" y="-13.62" font-family="Helvetica,sans-Serif" font-size="10.00">mlir/IR/BuiltinOps.h</text>
</a>
</g>
</g>
<!-- Node1&#45;&gt;Node2 -->
<g id="edge1_Node000001_Node000002" class="edge">
<title>Node1&#45;&gt;Node2</title>
<g id="a_edge1_Node000001_Node000002"><a xlink:title=" ">
<path fill="none" stroke="#63b8ff" d="M157.91,-69.08C135.76,-58 106.59,-43.42 85.01,-32.63"/>
<polygon fill="#63b8ff" stroke="#63b8ff" points="86.66,-29.54 76.15,-28.2 83.53,-35.8 86.66,-29.54"/>
</a>
</g>
</g>
<!-- Node3 -->
<g id="Node000003" class="node">
<title>Node3</title>
<g id="a_Node000003"><a xlink:title=" ">
<polygon fill="#e0e0e0" stroke="#999999" points="251.5,-27.12 129,-27.12 129,-6.38 251.5,-6.38 251.5,-27.12"/>
<text text-anchor="middle" x="190.25" y="-13.62" font-family="Helvetica,sans-Serif" font-size="10.00">mlir/IR/MLIRContext.h</text>
</a>
</g>
</g>
<!-- Node1&#45;&gt;Node3 -->
<g id="edge2_Node000001_Node000003" class="edge">
<title>Node1&#45;&gt;Node3</title>
<g id="a_edge2_Node000001_Node000003"><a xlink:title=" ">
<path fill="none" stroke="#63b8ff" d="M190.25,-69.25C190.25,-60.15 190.25,-48.64 190.25,-38.82"/>
<polygon fill="#63b8ff" stroke="#63b8ff" points="193.75,-39.09 190.25,-29.09 186.75,-39.09 193.75,-39.09"/>
</a>
</g>
</g>
<!-- Node4 -->
<g id="Node000004" class="node">
<title>Node4</title>
<g id="a_Node000004"><a xlink:href="Verif_2IR_2Dialect_8h_8inc.html" target="_top" xlink:title=" ">
<polygon fill="white" stroke="#666666" points="365.38,-33.5 269.12,-33.5 269.12,0 365.38,0 365.38,-33.5"/>
<text text-anchor="start" x="277.12" y="-20" font-family="Helvetica,sans-Serif" font-size="10.00">llzk/Dialect/Verif</text>
<text text-anchor="middle" x="317.25" y="-7.25" font-family="Helvetica,sans-Serif" font-size="10.00">/IR/Dialect.h.inc</text>
</a>
</g>
</g>
<!-- Node1&#45;&gt;Node4 -->
<g id="edge3_Node000001_Node000004" class="edge">
<title>Node1&#45;&gt;Node4</title>
<g id="a_edge3_Node000001_Node000004"><a xlink:title=" ">
<path fill="none" stroke="#63b8ff" d="M220.67,-69.08C237.56,-60.11 258.77,-48.83 277.02,-39.13"/>
<polygon fill="#63b8ff" stroke="#63b8ff" points="278.55,-42.28 285.74,-34.5 275.27,-36.1 278.55,-42.28"/>
</a>
</g>
</g>
</g>
</svg>
