<?xml version="1.0" encoding="UTF-8" standalone="no"?>
<!DOCTYPE svg PUBLIC "-//W3C//DTD SVG 1.1//EN"
 "http://www.w3.org/Graphics/SVG/1.1/DTD/svg11.dtd">
<!-- Generated by graphviz version 12.2.1 (0)
 -->
<!-- Title: build/include/llzk/Dialect/Verif/IR/Ops.h.inc Pages: 1 -->
<svg width="1265pt" height="263pt"
 viewBox="0.00 0.00 1264.75 262.75" xmlns="http://www.w3.org/2000/svg" xmlns:xlink="http://www.w3.org/1999/xlink">
<g id="graph0" class="graph" transform="scale(1 1) rotate(0) translate(4 258.75)">
<title>build/include/llzk/Dialect/Verif/IR/Ops.h.inc</title>
<!-- Node1 -->
<g id="Node000001" class="node">
<title>Node1</title>
<g id="a_Node000001"><a xlink:title=" ">
<polygon fill="#999999" stroke="#666666" points="688.75,-254.75 549,-254.75 549,-221.25 688.75,-221.25 688.75,-254.75"/>
<text text-anchor="start" x="557" y="-241.25" font-family="Helvetica,sans-Serif" font-size="10.00">build/include/llzk</text>
<text text-anchor="middle" x="618.88" y="-228.5" font-family="Helvetica,sans-Serif" font-size="10.00">/Dialect/Verif/IR/Ops.h.inc</text>
</a>
</g>
</g>
<!-- Node2 -->
<g id="Node000002" class="node">
<title>Node2</title>
<g id="a_Node000002"><a xlink:href="Verif_2IR_2Ops_8h.html" target="_top" xlink:title=" ">
<polygon fill="white" stroke="#666666" points="673.38,-185.25 564.38,-185.25 564.38,-151.75 673.38,-151.75 673.38,-185.25"/>
<text text-anchor="start" x="572.38" y="-171.75" font-family="Helvetica,sans-Serif" font-size="10.00">include/llzk/Dialect</text>
<text text-anchor="middle" x="618.88" y="-159" font-family="Helvetica,sans-Serif" font-size="10.00">/Verif/IR/Ops.h</text>
</a>
</g>
</g>
<!-- Node1&#45;&gt;Node2 -->
<g id="edge1_Node000001_Node000002" class="edge">
<title>Node1&#45;&gt;Node2</title>
<g id="a_edge1_Node000001_Node000002"><a xlink:title=" ">
<path fill="none" stroke="#63b8ff" d="M618.88,-209.56C618.88,-201.34 618.88,-192.59 618.88,-185.38"/>
<polygon fill="#63b8ff" stroke="#63b8ff" points="615.38,-209.49 618.88,-219.49 622.38,-209.49 615.38,-209.49"/>
</a>
</g>
</g>
<!-- Node3 -->
<g id="Node000003" class="node">
<title>Node3</title>
<g id="a_Node000003"><a xlink:href="ForbiddenPreconditionInfluence_8h.html" target="_top" xlink:title="This file contains an analysis and utilities for determining if a verif precondition is dependent,...">
<polygon fill="white" stroke="#666666" points="253.62,-115.75 80.12,-115.75 80.12,-69.5 253.62,-69.5 253.62,-115.75"/>
<text text-anchor="start" x="88.12" y="-102.25" font-family="Helvetica,sans-Serif" font-size="10.00">include/llzk/Dialect</text>
<text text-anchor="start" x="88.12" y="-89.5" font-family="Helvetica,sans-Serif" font-size="10.00">/Verif/Util/ForbiddenPrecondition</text>
<text text-anchor="middle" x="166.88" y="-76.75" font-family="Helvetica,sans-Serif" font-size="10.00">Influence.h</text>
</a>
</g>
</g>
<!-- Node2&#45;&gt;Node3 -->
<g id="edge2_Node000002_Node000003" class="edge">
<title>Node2&#45;&gt;Node3</title>
<g id="a_edge2_Node000002_Node000003"><a xlink:title=" ">
<path fill="none" stroke="#63b8ff" d="M552.96,-159.57C481.3,-150.56 363.53,-134.63 262.88,-115.75 259.93,-115.2 256.94,-114.62 253.93,-114.02"/>
<polygon fill="#63b8ff" stroke="#63b8ff" points="552.2,-163 562.56,-160.76 553.07,-156.05 552.2,-163"/>
</a>
</g>
</g>
<!-- Node4 -->
<g id="Node000004" class="node">
<title>Node4</title>
<g id="a_Node000004"><a xlink:href="Verif_2IR_2Ops_8cpp.html" target="_top" xlink:title=" ">
<polygon fill="white" stroke="#666666" points="103.75,-33.5 0,-33.5 0,0 103.75,0 103.75,-33.5"/>
<text text-anchor="start" x="8" y="-20" font-family="Helvetica,sans-Serif" font-size="10.00">lib/Dialect/Verif/IR</text>
<text text-anchor="middle" x="51.88" y="-7.25" font-family="Helvetica,sans-Serif" font-size="10.00">/Ops.cpp</text>
</a>
</g>
</g>
<!-- Node2&#45;&gt;Node4 -->
<g id="edge11_Node000002_Node000004" class="edge">
<title>Node2&#45;&gt;Node4</title>
<g id="a_edge11_Node000002_Node000004"><a xlink:title=" ">
<path fill="none" stroke="#63b8ff" d="M553,-165.64C415.12,-161.13 105.94,-147.56 70.88,-115.75 48.03,-95.02 47.77,-55.74 49.73,-33.73"/>
<polygon fill="#63b8ff" stroke="#63b8ff" points="552.59,-169.13 562.7,-165.95 552.82,-162.13 552.59,-169.13"/>
</a>
</g>
</g>
<!-- Node6 -->
<g id="Node000006" class="node">
<title>Node6</title>
<g id="a_Node000006"><a xlink:href="Verif_8cpp.html" target="_top" xlink:title=" ">
<polygon fill="white" stroke="#666666" points="407.88,-103 271.88,-103 271.88,-82.25 407.88,-82.25 407.88,-103"/>
<text text-anchor="middle" x="339.88" y="-89.5" font-family="Helvetica,sans-Serif" font-size="10.00">lib/CAPI/Dialect/Verif.cpp</text>
</a>
</g>
</g>
<!-- Node2&#45;&gt;Node6 -->
<g id="edge5_Node000002_Node000006" class="edge">
<title>Node2&#45;&gt;Node6</title>
<g id="a_edge5_Node000002_Node000006"><a xlink:title=" ">
<path fill="none" stroke="#63b8ff" d="M552.81,-151.09C513.29,-141.14 462.12,-128.04 416.88,-115.75 402.51,-111.85 386.71,-107.34 373.17,-103.42"/>
<polygon fill="#63b8ff" stroke="#63b8ff" points="551.87,-154.46 562.42,-153.5 553.58,-147.67 551.87,-154.46"/>
</a>
</g>
</g>
<!-- Node7 -->
<g id="Node000007" class="node">
<title>Node7</title>
<g id="a_Node000007"><a xlink:href="OpTraits_8cpp.html" target="_top" xlink:title=" ">
<polygon fill="white" stroke="#666666" points="535.75,-109.38 426,-109.38 426,-75.88 535.75,-75.88 535.75,-109.38"/>
<text text-anchor="start" x="434" y="-95.88" font-family="Helvetica,sans-Serif" font-size="10.00">lib/Dialect/Function</text>
<text text-anchor="middle" x="480.88" y="-83.12" font-family="Helvetica,sans-Serif" font-size="10.00">/IR/OpTraits.cpp</text>
</a>
</g>
</g>
<!-- Node2&#45;&gt;Node7 -->
<g id="edge6_Node000002_Node000007" class="edge">
<title>Node2&#45;&gt;Node7</title>
<g id="a_edge6_Node000002_Node000007"><a xlink:title=" ">
<path fill="none" stroke="#63b8ff" d="M578.72,-146C557.13,-134.44 530.94,-120.42 511.09,-109.8"/>
<polygon fill="#63b8ff" stroke="#63b8ff" points="576.79,-148.94 587.26,-150.57 580.09,-142.77 576.79,-148.94"/>
</a>
</g>
</g>
<!-- Node8 -->
<g id="Node000008" class="node">
<title>Node8</title>
<g id="a_Node000008"><a xlink:href="Polymorphic_2IR_2Ops_8cpp.html" target="_top" xlink:title=" ">
<polygon fill="white" stroke="#666666" points="683.5,-109.38 554.25,-109.38 554.25,-75.88 683.5,-75.88 683.5,-109.38"/>
<text text-anchor="start" x="562.25" y="-95.88" font-family="Helvetica,sans-Serif" font-size="10.00">lib/Dialect/Polymorphic</text>
<text text-anchor="middle" x="618.88" y="-83.12" font-family="Helvetica,sans-Serif" font-size="10.00">/IR/Ops.cpp</text>
</a>
</g>
</g>
<!-- Node2&#45;&gt;Node8 -->
<g id="edge7_Node000002_Node000008" class="edge">
<title>Node2&#45;&gt;Node8</title>
<g id="a_edge7_Node000002_Node000008"><a xlink:title=" ">
<path fill="none" stroke="#63b8ff" d="M618.88,-140.11C618.88,-129.85 618.88,-118.52 618.88,-109.62"/>
<polygon fill="#63b8ff" stroke="#63b8ff" points="615.38,-139.96 618.88,-149.96 622.38,-139.96 615.38,-139.96"/>
</a>
</g>
</g>
<!-- Node9 -->
<g id="Node000009" class="node">
<title>Node9</title>
<g id="a_Node000009"><a xlink:href="TypeVarInferencePass_8cpp.html" target="_top" xlink:title="This file implements the &#45;llzk&#45;infer&#45;tvar pass.">
<polygon fill="white" stroke="#666666" points="861.88,-115.75 701.88,-115.75 701.88,-69.5 861.88,-69.5 861.88,-115.75"/>
<text text-anchor="start" x="709.88" y="-102.25" font-family="Helvetica,sans-Serif" font-size="10.00">lib/Dialect/Polymorphic</text>
<text text-anchor="start" x="709.88" y="-89.5" font-family="Helvetica,sans-Serif" font-size="10.00">/Transforms/TypeVarInference</text>
<text text-anchor="middle" x="781.88" y="-76.75" font-family="Helvetica,sans-Serif" font-size="10.00">Pass.cpp</text>
</a>
</g>
</g>
<!-- Node2&#45;&gt;Node9 -->
<g id="edge8_Node000002_Node000009" class="edge">
<title>Node2&#45;&gt;Node9</title>
<g id="a_edge8_Node000002_Node000009"><a xlink:title=" ">
<path fill="none" stroke="#63b8ff" d="M664.88,-146.65C685.8,-137.17 710.6,-125.93 731.97,-116.24"/>
<polygon fill="#63b8ff" stroke="#63b8ff" points="663.69,-143.35 656.02,-150.66 666.58,-149.72 663.69,-143.35"/>
</a>
</g>
</g>
<!-- Node10 -->
<g id="Node000010" class="node">
<title>Node10</title>
<g id="a_Node000010"><a xlink:href="Struct_2IR_2Ops_8cpp.html" target="_top" xlink:title=" ">
<polygon fill="white" stroke="#666666" points="977.38,-109.38 880.38,-109.38 880.38,-75.88 977.38,-75.88 977.38,-109.38"/>
<text text-anchor="start" x="888.38" y="-95.88" font-family="Helvetica,sans-Serif" font-size="10.00">lib/Dialect/Struct</text>
<text text-anchor="middle" x="928.88" y="-83.12" font-family="Helvetica,sans-Serif" font-size="10.00">/IR/Ops.cpp</text>
</a>
</g>
</g>
<!-- Node2&#45;&gt;Node10 -->
<g id="edge9_Node000002_Node000010" class="edge">
<title>Node2&#45;&gt;Node10</title>
<g id="a_edge9_Node000002_Node000010"><a xlink:title=" ">
<path fill="none" stroke="#63b8ff" d="M684.82,-156.97C736.08,-148.07 808.69,-133.87 870.88,-115.75 876.77,-114.03 882.92,-111.98 888.91,-109.83"/>
<polygon fill="#63b8ff" stroke="#63b8ff" points="684.33,-153.51 675.06,-158.64 685.51,-160.4 684.33,-153.51"/>
</a>
</g>
</g>
<!-- Node11 -->
<g id="Node000011" class="node">
<title>Node11</title>
<g id="a_Node000011"><a xlink:href="Verif_2IR_2Dialect_8cpp.html" target="_top" xlink:title=" ">
<polygon fill="white" stroke="#666666" points="1098.75,-109.38 995,-109.38 995,-75.88 1098.75,-75.88 1098.75,-109.38"/>
<text text-anchor="start" x="1003" y="-95.88" font-family="Helvetica,sans-Serif" font-size="10.00">lib/Dialect/Verif/IR</text>
<text text-anchor="middle" x="1046.88" y="-83.12" font-family="Helvetica,sans-Serif" font-size="10.00">/Dialect.cpp</text>
</a>
</g>
</g>
<!-- Node2&#45;&gt;Node11 -->
<g id="edge10_Node000002_Node000011" class="edge">
<title>Node2&#45;&gt;Node11</title>
<g id="a_edge10_Node000002_Node000011"><a xlink:title=" ">
<path fill="none" stroke="#63b8ff" d="M684.86,-162.5C759.14,-155.88 883.03,-141.88 986.88,-115.75 993.34,-114.12 1000.06,-112.05 1006.58,-109.82"/>
<polygon fill="#63b8ff" stroke="#63b8ff" points="684.99,-158.97 675.33,-163.33 685.6,-165.95 684.99,-158.97"/>
</a>
</g>
</g>
<!-- Node12 -->
<g id="Node000012" class="node">
<title>Node12</title>
<g id="a_Node000012"><a xlink:href="SymbolHelper_8cpp.html" target="_top" xlink:title="This file contains the implementations for symbol helper functions.">
<polygon fill="white" stroke="#666666" points="1256.75,-103 1117,-103 1117,-82.25 1256.75,-82.25 1256.75,-103"/>
<text text-anchor="middle" x="1186.88" y="-89.5" font-family="Helvetica,sans-Serif" font-size="10.00">lib/Util/SymbolHelper.cpp</text>
</a>
</g>
</g>
<!-- Node2&#45;&gt;Node12 -->
<g id="edge12_Node000002_Node000012" class="edge">
<title>Node2&#45;&gt;Node12</title>
<g id="a_edge12_Node000002_Node000012"><a xlink:title=" ">
<path fill="none" stroke="#63b8ff" d="M684.96,-164.03C779.41,-158.28 958.17,-144.43 1107.88,-115.75 1124.1,-112.64 1141.84,-107.81 1156.4,-103.45"/>
<polygon fill="#63b8ff" stroke="#63b8ff" points="684.87,-160.53 675.1,-164.62 685.29,-167.52 684.87,-160.53"/>
</a>
</g>
</g>
<!-- Node3&#45;&gt;Node4 -->
<g id="edge3_Node000003_Node000004" class="edge">
<title>Node3&#45;&gt;Node4</title>
<g id="a_edge3_Node000003_Node000004"><a xlink:title=" ">
<path fill="none" stroke="#63b8ff" d="M122.36,-63.03C106.95,-53.13 90.23,-42.39 76.94,-33.85"/>
<polygon fill="#63b8ff" stroke="#63b8ff" points="120.17,-65.78 130.47,-68.24 123.95,-59.89 120.17,-65.78"/>
</a>
</g>
</g>
<!-- Node5 -->
<g id="Node000005" class="node">
<title>Node5</title>
<g id="a_Node000005"><a xlink:href="ForbiddenPreconditionInfluence_8cpp.html" target="_top" xlink:title=" ">
<polygon fill="white" stroke="#666666" points="314,-33.5 121.75,-33.5 121.75,0 314,0 314,-33.5"/>
<text text-anchor="start" x="129.75" y="-20" font-family="Helvetica,sans-Serif" font-size="10.00">lib/Dialect/Verif/Util</text>
<text text-anchor="middle" x="217.88" y="-7.25" font-family="Helvetica,sans-Serif" font-size="10.00">/ForbiddenPreconditionInfluence.cpp</text>
</a>
</g>
</g>
<!-- Node3&#45;&gt;Node5 -->
<g id="edge4_Node000003_Node000005" class="edge">
<title>Node3&#45;&gt;Node5</title>
<g id="a_edge4_Node000003_Node000005"><a xlink:title=" ">
<path fill="none" stroke="#63b8ff" d="M188.95,-59.64C195.11,-50.73 201.53,-41.42 206.76,-33.85"/>
<polygon fill="#63b8ff" stroke="#63b8ff" points="186.11,-57.6 183.31,-67.81 191.88,-61.57 186.11,-57.6"/>
</a>
</g>
</g>
</g>
</svg>
