<?xml version="1.0" encoding="UTF-8" standalone="no"?>
<!DOCTYPE svg PUBLIC "-//W3C//DTD SVG 1.1//EN"
 "http://www.w3.org/Graphics/SVG/1.1/DTD/svg11.dtd">
<!-- Generated by graphviz version 12.2.1 (0)
 -->
<!-- Title: include/llzk/Dialect/Verif/IR/Dialect.h Pages: 1 -->
<svg width="1044pt" height="263pt"
 viewBox="0.00 0.00 1043.88 262.75" xmlns="http://www.w3.org/2000/svg" xmlns:xlink="http://www.w3.org/1999/xlink">
<g id="graph0" class="graph" transform="scale(1 1) rotate(0) translate(4 258.75)">
<title>include/llzk/Dialect/Verif/IR/Dialect.h</title>
<!-- Node1 -->
<g id="Node000001" class="node">
<title>Node1</title>
<g id="a_Node000001"><a xlink:title=" ">
<polygon fill="#999999" stroke="#666666" points="603.5,-254.75 494.5,-254.75 494.5,-221.25 603.5,-221.25 603.5,-254.75"/>
<text text-anchor="start" x="502.5" y="-241.25" font-family="Helvetica,sans-Serif" font-size="10.00">include/llzk/Dialect</text>
<text text-anchor="middle" x="549" y="-228.5" font-family="Helvetica,sans-Serif" font-size="10.00">/Verif/IR/Dialect.h</text>
</a>
</g>
</g>
<!-- Node2 -->
<g id="Node000002" class="node">
<title>Node2</title>
<g id="a_Node000002"><a xlink:href="Verif_2IR_2Ops_8h.html" target="_top" xlink:title=" ">
<polygon fill="white" stroke="#666666" points="562.5,-185.25 453.5,-185.25 453.5,-151.75 562.5,-151.75 562.5,-185.25"/>
<text text-anchor="start" x="461.5" y="-171.75" font-family="Helvetica,sans-Serif" font-size="10.00">include/llzk/Dialect</text>
<text text-anchor="middle" x="508" y="-159" font-family="Helvetica,sans-Serif" font-size="10.00">/Verif/IR/Ops.h</text>
</a>
</g>
</g>
<!-- Node1&#45;&gt;Node2 -->
<g id="edge1_Node000001_Node000002" class="edge">
<title>Node1&#45;&gt;Node2</title>
<g id="a_edge1_Node000001_Node000002"><a xlink:title=" ">
<path fill="none" stroke="#63b8ff" d="M533.38,-211.28C528.08,-202.57 522.33,-193.1 517.65,-185.38"/>
<polygon fill="#63b8ff" stroke="#63b8ff" points="530.31,-212.98 538.5,-219.71 536.3,-209.35 530.31,-212.98"/>
</a>
</g>
</g>
<!-- Node6 -->
<g id="Node000006" class="node">
<title>Node6</title>
<g id="a_Node000006"><a xlink:href="Verif_8cpp.html" target="_top" xlink:title=" ">
<polygon fill="white" stroke="#666666" points="136,-103 0,-103 0,-82.25 136,-82.25 136,-103"/>
<text text-anchor="middle" x="68" y="-89.5" font-family="Helvetica,sans-Serif" font-size="10.00">lib/CAPI/Dialect/Verif.cpp</text>
</a>
</g>
</g>
<!-- Node1&#45;&gt;Node6 -->
<g id="edge12_Node000001_Node000006" class="edge">
<title>Node1&#45;&gt;Node6</title>
<g id="a_edge12_Node000001_Node000006"><a xlink:title=" ">
<path fill="none" stroke="#63b8ff" d="M483.77,-217.56C379.66,-186.52 179.65,-126.91 100.96,-103.45"/>
<polygon fill="#63b8ff" stroke="#63b8ff" points="482.72,-220.9 493.31,-220.4 484.72,-214.19 482.72,-220.9"/>
</a>
</g>
</g>
<!-- Node10 -->
<g id="Node000010" class="node">
<title>Node10</title>
<g id="a_Node000010"><a xlink:href="Verif_2IR_2Dialect_8cpp.html" target="_top" xlink:title=" ">
<polygon fill="white" stroke="#666666" points="1035.88,-109.38 932.12,-109.38 932.12,-75.88 1035.88,-75.88 1035.88,-109.38"/>
<text text-anchor="start" x="940.12" y="-95.88" font-family="Helvetica,sans-Serif" font-size="10.00">lib/Dialect/Verif/IR</text>
<text text-anchor="middle" x="984" y="-83.12" font-family="Helvetica,sans-Serif" font-size="10.00">/Dialect.cpp</text>
</a>
</g>
</g>
<!-- Node1&#45;&gt;Node10 -->
<g id="edge14_Node000001_Node000010" class="edge">
<title>Node1&#45;&gt;Node10</title>
<g id="a_edge14_Node000001_Node000010"><a xlink:title=" ">
<path fill="none" stroke="#63b8ff" d="M560.43,-210.76C570.49,-191.05 587.11,-165.23 610,-151.75 730.67,-80.71 786.7,-147.84 923,-115.75 929.69,-114.18 936.65,-112.09 943.38,-109.84"/>
<polygon fill="#63b8ff" stroke="#63b8ff" points="557.36,-209.07 556.18,-219.6 563.67,-212.11 557.36,-209.07"/>
</a>
</g>
</g>
<!-- Node12 -->
<g id="Node000012" class="node">
<title>Node12</title>
<g id="a_Node000012"><a xlink:href="Dialect_2InitDialects_8cpp.html" target="_top" xlink:title=" ">
<polygon fill="white" stroke="#666666" points="763.12,-178.88 618.88,-178.88 618.88,-158.12 763.12,-158.12 763.12,-178.88"/>
<text text-anchor="middle" x="691" y="-165.38" font-family="Helvetica,sans-Serif" font-size="10.00">lib/Dialect/InitDialects.cpp</text>
</a>
</g>
</g>
<!-- Node1&#45;&gt;Node12 -->
<g id="edge13_Node000001_Node000012" class="edge">
<title>Node1&#45;&gt;Node12</title>
<g id="a_edge13_Node000001_Node000012"><a xlink:title=" ">
<path fill="none" stroke="#63b8ff" d="M593.31,-215.94C619.08,-203.69 650.34,-188.83 670.44,-179.27"/>
<polygon fill="#63b8ff" stroke="#63b8ff" points="591.91,-212.73 584.38,-220.18 594.91,-219.05 591.91,-212.73"/>
</a>
</g>
</g>
<!-- Node3 -->
<g id="Node000003" class="node">
<title>Node3</title>
<g id="a_Node000003"><a xlink:href="ForbiddenPreconditionInfluence_8h.html" target="_top" xlink:title="This file contains an analysis and utilities for determining if a verif precondition is dependent,...">
<polygon fill="white" stroke="#666666" points="365.75,-115.75 192.25,-115.75 192.25,-69.5 365.75,-69.5 365.75,-115.75"/>
<text text-anchor="start" x="200.25" y="-102.25" font-family="Helvetica,sans-Serif" font-size="10.00">include/llzk/Dialect</text>
<text text-anchor="start" x="200.25" y="-89.5" font-family="Helvetica,sans-Serif" font-size="10.00">/Verif/Util/ForbiddenPrecondition</text>
<text text-anchor="middle" x="279" y="-76.75" font-family="Helvetica,sans-Serif" font-size="10.00">Influence.h</text>
</a>
</g>
</g>
<!-- Node2&#45;&gt;Node3 -->
<g id="edge2_Node000002_Node000003" class="edge">
<title>Node2&#45;&gt;Node3</title>
<g id="a_edge2_Node000002_Node000003"><a xlink:title=" ">
<path fill="none" stroke="#63b8ff" d="M446.96,-147.81C416.85,-138.09 380.37,-126.33 349.12,-116.24"/>
<polygon fill="#63b8ff" stroke="#63b8ff" points="445.71,-151.08 456.3,-150.82 447.86,-144.42 445.71,-151.08"/>
</a>
</g>
</g>
<!-- Node4 -->
<g id="Node000004" class="node">
<title>Node4</title>
<g id="a_Node000004"><a xlink:href="Verif_2IR_2Ops_8cpp.html" target="_top" xlink:title=" ">
<polygon fill="white" stroke="#666666" points="215.88,-33.5 112.12,-33.5 112.12,0 215.88,0 215.88,-33.5"/>
<text text-anchor="start" x="120.12" y="-20" font-family="Helvetica,sans-Serif" font-size="10.00">lib/Dialect/Verif/IR</text>
<text text-anchor="middle" x="164" y="-7.25" font-family="Helvetica,sans-Serif" font-size="10.00">/Ops.cpp</text>
</a>
</g>
</g>
<!-- Node2&#45;&gt;Node4 -->
<g id="edge10_Node000002_Node000004" class="edge">
<title>Node2&#45;&gt;Node4</title>
<g id="a_edge10_Node000002_Node000004"><a xlink:title=" ">
<path fill="none" stroke="#63b8ff" d="M441.61,-161C351.99,-151.63 201.32,-133.47 183,-115.75 160.95,-94.43 160.31,-55.74 162.01,-33.9"/>
<polygon fill="#63b8ff" stroke="#63b8ff" points="441.21,-164.48 451.52,-162.03 441.94,-157.52 441.21,-164.48"/>
</a>
</g>
</g>
<!-- Node2&#45;&gt;Node6 -->
<g id="edge5_Node000002_Node000006" class="edge">
<title>Node2&#45;&gt;Node6</title>
<g id="a_edge5_Node000002_Node000006"><a xlink:title=" ">
<path fill="none" stroke="#63b8ff" d="M441.89,-160.35C369.73,-151.99 251,-136.6 150,-115.75 133.68,-112.38 115.79,-107.68 100.9,-103.47"/>
<polygon fill="#63b8ff" stroke="#63b8ff" points="441.22,-163.8 451.56,-161.46 442.02,-156.84 441.22,-163.8"/>
</a>
</g>
</g>
<!-- Node7 -->
<g id="Node000007" class="node">
<title>Node7</title>
<g id="a_Node000007"><a xlink:href="OpTraits_8cpp.html" target="_top" xlink:title=" ">
<polygon fill="white" stroke="#666666" points="493.88,-109.38 384.12,-109.38 384.12,-75.88 493.88,-75.88 493.88,-109.38"/>
<text text-anchor="start" x="392.12" y="-95.88" font-family="Helvetica,sans-Serif" font-size="10.00">lib/Dialect/Function</text>
<text text-anchor="middle" x="439" y="-83.12" font-family="Helvetica,sans-Serif" font-size="10.00">/IR/OpTraits.cpp</text>
</a>
</g>
</g>
<!-- Node2&#45;&gt;Node7 -->
<g id="edge6_Node000002_Node000007" class="edge">
<title>Node2&#45;&gt;Node7</title>
<g id="a_edge6_Node000002_Node000007"><a xlink:title=" ">
<path fill="none" stroke="#63b8ff" d="M485.2,-143.09C474.92,-132.09 463.07,-119.39 453.94,-109.62"/>
<polygon fill="#63b8ff" stroke="#63b8ff" points="482.61,-145.45 491.99,-150.36 487.73,-140.67 482.61,-145.45"/>
</a>
</g>
</g>
<!-- Node8 -->
<g id="Node000008" class="node">
<title>Node8</title>
<g id="a_Node000008"><a xlink:href="Polymorphic_2IR_2Ops_8cpp.html" target="_top" xlink:title=" ">
<polygon fill="white" stroke="#666666" points="641.62,-109.38 512.38,-109.38 512.38,-75.88 641.62,-75.88 641.62,-109.38"/>
<text text-anchor="start" x="520.38" y="-95.88" font-family="Helvetica,sans-Serif" font-size="10.00">lib/Dialect/Polymorphic</text>
<text text-anchor="middle" x="577" y="-83.12" font-family="Helvetica,sans-Serif" font-size="10.00">/IR/Ops.cpp</text>
</a>
</g>
</g>
<!-- Node2&#45;&gt;Node8 -->
<g id="edge7_Node000002_Node000008" class="edge">
<title>Node2&#45;&gt;Node8</title>
<g id="a_edge7_Node000002_Node000008"><a xlink:title=" ">
<path fill="none" stroke="#63b8ff" d="M530.8,-143.09C541.08,-132.09 552.93,-119.39 562.06,-109.62"/>
<polygon fill="#63b8ff" stroke="#63b8ff" points="528.27,-140.67 524.01,-150.36 533.39,-145.45 528.27,-140.67"/>
</a>
</g>
</g>
<!-- Node9 -->
<g id="Node000009" class="node">
<title>Node9</title>
<g id="a_Node000009"><a xlink:href="Struct_2IR_2Ops_8cpp.html" target="_top" xlink:title=" ">
<polygon fill="white" stroke="#666666" points="756.5,-109.38 659.5,-109.38 659.5,-75.88 756.5,-75.88 756.5,-109.38"/>
<text text-anchor="start" x="667.5" y="-95.88" font-family="Helvetica,sans-Serif" font-size="10.00">lib/Dialect/Struct</text>
<text text-anchor="middle" x="708" y="-83.12" font-family="Helvetica,sans-Serif" font-size="10.00">/IR/Ops.cpp</text>
</a>
</g>
</g>
<!-- Node2&#45;&gt;Node9 -->
<g id="edge8_Node000002_Node000009" class="edge">
<title>Node2&#45;&gt;Node9</title>
<g id="a_edge8_Node000002_Node000009"><a xlink:title=" ">
<path fill="none" stroke="#63b8ff" d="M564.09,-147.54C590.51,-138.05 622.43,-126.46 651,-115.75 656.07,-113.85 661.38,-111.83 666.64,-109.81"/>
<polygon fill="#63b8ff" stroke="#63b8ff" points="563.16,-144.15 554.93,-150.82 565.52,-150.74 563.16,-144.15"/>
</a>
</g>
</g>
<!-- Node2&#45;&gt;Node10 -->
<g id="edge9_Node000002_Node000010" class="edge">
<title>Node2&#45;&gt;Node10</title>
<g id="a_edge9_Node000002_Node000010"><a xlink:title=" ">
<path fill="none" stroke="#63b8ff" d="M573.96,-152.27C574.98,-152.09 575.99,-151.92 577,-151.75 729.53,-126.5 772.32,-150.37 923,-115.75 929.81,-114.19 936.9,-112.08 943.73,-109.79"/>
<polygon fill="#63b8ff" stroke="#63b8ff" points="573.54,-148.78 564.36,-154.07 574.83,-155.66 573.54,-148.78"/>
</a>
</g>
</g>
<!-- Node11 -->
<g id="Node000011" class="node">
<title>Node11</title>
<g id="a_Node000011"><a xlink:href="SymbolHelper_8cpp.html" target="_top" xlink:title="This file contains the implementations for symbol helper functions.">
<polygon fill="white" stroke="#666666" points="913.88,-103 774.12,-103 774.12,-82.25 913.88,-82.25 913.88,-103"/>
<text text-anchor="middle" x="844" y="-89.5" font-family="Helvetica,sans-Serif" font-size="10.00">lib/Util/SymbolHelper.cpp</text>
</a>
</g>
</g>
<!-- Node2&#45;&gt;Node11 -->
<g id="edge11_Node000002_Node000011" class="edge">
<title>Node2&#45;&gt;Node11</title>
<g id="a_edge11_Node000002_Node000011"><a xlink:title=" ">
<path fill="none" stroke="#63b8ff" d="M573.98,-152.39C574.99,-152.17 576,-151.96 577,-151.75 660.7,-134.23 682.79,-135.44 766,-115.75 781.2,-112.15 797.89,-107.52 811.91,-103.42"/>
<polygon fill="#63b8ff" stroke="#63b8ff" points="573.46,-148.92 564.43,-154.45 574.94,-155.76 573.46,-148.92"/>
</a>
</g>
</g>
<!-- Node3&#45;&gt;Node4 -->
<g id="edge3_Node000003_Node000004" class="edge">
<title>Node3&#45;&gt;Node4</title>
<g id="a_edge3_Node000003_Node000004"><a xlink:title=" ">
<path fill="none" stroke="#63b8ff" d="M234.49,-63.03C219.08,-53.13 202.36,-42.39 189.07,-33.85"/>
<polygon fill="#63b8ff" stroke="#63b8ff" points="232.29,-65.78 242.6,-68.24 236.08,-59.89 232.29,-65.78"/>
</a>
</g>
</g>
<!-- Node5 -->
<g id="Node000005" class="node">
<title>Node5</title>
<g id="a_Node000005"><a xlink:href="ForbiddenPreconditionInfluence_8cpp.html" target="_top" xlink:title=" ">
<polygon fill="white" stroke="#666666" points="426.12,-33.5 233.88,-33.5 233.88,0 426.12,0 426.12,-33.5"/>
<text text-anchor="start" x="241.88" y="-20" font-family="Helvetica,sans-Serif" font-size="10.00">lib/Dialect/Verif/Util</text>
<text text-anchor="middle" x="330" y="-7.25" font-family="Helvetica,sans-Serif" font-size="10.00">/ForbiddenPreconditionInfluence.cpp</text>
</a>
</g>
</g>
<!-- Node3&#45;&gt;Node5 -->
<g id="edge4_Node000003_Node000005" class="edge">
<title>Node3&#45;&gt;Node5</title>
<g id="a_edge4_Node000003_Node000005"><a xlink:title=" ">
<path fill="none" stroke="#63b8ff" d="M301.08,-59.64C307.23,-50.73 313.66,-41.42 318.88,-33.85"/>
<polygon fill="#63b8ff" stroke="#63b8ff" points="298.24,-57.6 295.44,-67.81 304,-61.57 298.24,-57.6"/>
</a>
</g>
</g>
</g>
</svg>
