<?xml version="1.0" encoding="UTF-8" standalone="no"?>
<!DOCTYPE svg PUBLIC "-//W3C//DTD SVG 1.1//EN"
 "http://www.w3.org/Graphics/SVG/1.1/DTD/svg11.dtd">
<!-- Generated by graphviz version 12.2.1 (0)
 -->
<!-- Title: include/llzk/Dialect/LLZK/IR/Versioning.h Pages: 1 -->
<svg width="2085pt" height="111pt"
 viewBox="0.00 0.00 2085.25 111.00" xmlns="http://www.w3.org/2000/svg" xmlns:xlink="http://www.w3.org/1999/xlink">
<g id="graph0" class="graph" transform="scale(1 1) rotate(0) translate(4 107)">
<title>include/llzk/Dialect/LLZK/IR/Versioning.h</title>
<!-- Node1 -->
<g id="Node000001" class="node">
<title>Node1</title>
<g id="a_Node000001"><a xlink:title=" ">
<polygon fill="#999999" stroke="#666666" points="1103.12,-103 984.38,-103 984.38,-69.5 1103.12,-69.5 1103.12,-103"/>
<text text-anchor="start" x="992.38" y="-89.5" font-family="Helvetica,sans-Serif" font-size="10.00">include/llzk/Dialect</text>
<text text-anchor="middle" x="1043.75" y="-76.75" font-family="Helvetica,sans-Serif" font-size="10.00">/LLZK/IR/Versioning.h</text>
</a>
</g>
</g>
<!-- Node2 -->
<g id="Node000002" class="node">
<title>Node2</title>
<g id="a_Node000002"><a xlink:href="Array_2IR_2Dialect_8cpp.html" target="_top" xlink:title=" ">
<polygon fill="white" stroke="#666666" points="107.5,-33.5 0,-33.5 0,0 107.5,0 107.5,-33.5"/>
<text text-anchor="start" x="8" y="-20" font-family="Helvetica,sans-Serif" font-size="10.00">lib/Dialect/Array/IR</text>
<text text-anchor="middle" x="53.75" y="-7.25" font-family="Helvetica,sans-Serif" font-size="10.00">/Dialect.cpp</text>
</a>
</g>
</g>
<!-- Node1&#45;&gt;Node2 -->
<g id="edge1_Node000001_Node000002" class="edge">
<title>Node1&#45;&gt;Node2</title>
<g id="a_edge1_Node000001_Node000002"><a xlink:title=" ">
<path fill="none" stroke="#63b8ff" d="M972.61,-85.94C816.51,-86.44 432.59,-82.11 115.75,-33.5 113.12,-33.1 110.43,-32.63 107.73,-32.11"/>
<polygon fill="#63b8ff" stroke="#63b8ff" points="972.4,-89.44 982.38,-85.9 972.37,-82.44 972.4,-89.44"/>
</a>
</g>
</g>
<!-- Node3 -->
<g id="Node000003" class="node">
<title>Node3</title>
<g id="a_Node000003"><a xlink:href="Bool_2IR_2Dialect_8cpp.html" target="_top" xlink:title=" ">
<polygon fill="white" stroke="#666666" points="228.25,-33.5 125.25,-33.5 125.25,0 228.25,0 228.25,-33.5"/>
<text text-anchor="start" x="133.25" y="-20" font-family="Helvetica,sans-Serif" font-size="10.00">lib/Dialect/Bool/IR</text>
<text text-anchor="middle" x="176.75" y="-7.25" font-family="Helvetica,sans-Serif" font-size="10.00">/Dialect.cpp</text>
</a>
</g>
</g>
<!-- Node1&#45;&gt;Node3 -->
<g id="edge2_Node000001_Node000003" class="edge">
<title>Node1&#45;&gt;Node3</title>
<g id="a_edge2_Node000001_Node000003"><a xlink:title=" ">
<path fill="none" stroke="#63b8ff" d="M972.61,-85.27C831.39,-84.31 506.01,-77.06 236.75,-33.5 234.09,-33.07 231.38,-32.57 228.65,-32.03"/>
<polygon fill="#63b8ff" stroke="#63b8ff" points="972.55,-88.77 982.57,-85.33 972.59,-81.77 972.55,-88.77"/>
</a>
</g>
</g>
<!-- Node4 -->
<g id="Node000004" class="node">
<title>Node4</title>
<g id="a_Node000004"><a xlink:href="Cast_2IR_2Dialect_8cpp.html" target="_top" xlink:title=" ">
<polygon fill="white" stroke="#666666" points="349.25,-33.5 246.25,-33.5 246.25,0 349.25,0 349.25,-33.5"/>
<text text-anchor="start" x="254.25" y="-20" font-family="Helvetica,sans-Serif" font-size="10.00">lib/Dialect/Cast/IR</text>
<text text-anchor="middle" x="297.75" y="-7.25" font-family="Helvetica,sans-Serif" font-size="10.00">/Dialect.cpp</text>
</a>
</g>
</g>
<!-- Node1&#45;&gt;Node4 -->
<g id="edge3_Node000001_Node000004" class="edge">
<title>Node1&#45;&gt;Node4</title>
<g id="a_edge3_Node000001_Node000004"><a xlink:title=" ">
<path fill="none" stroke="#63b8ff" d="M972.84,-84.13C847.78,-81.22 580.21,-70.77 357.75,-33.5 355.09,-33.06 352.39,-32.55 349.66,-31.99"/>
<polygon fill="#63b8ff" stroke="#63b8ff" points="972.54,-87.62 982.62,-84.35 972.7,-80.63 972.54,-87.62"/>
</a>
</g>
</g>
<!-- Node5 -->
<g id="Node000005" class="node">
<title>Node5</title>
<g id="a_Node000005"><a xlink:href="Constrain_2IR_2Dialect_8cpp.html" target="_top" xlink:title=" ">
<polygon fill="white" stroke="#666666" points="482.25,-33.5 367.25,-33.5 367.25,0 482.25,0 482.25,-33.5"/>
<text text-anchor="start" x="375.25" y="-20" font-family="Helvetica,sans-Serif" font-size="10.00">lib/Dialect/Constrain</text>
<text text-anchor="middle" x="424.75" y="-7.25" font-family="Helvetica,sans-Serif" font-size="10.00">/IR/Dialect.cpp</text>
</a>
</g>
</g>
<!-- Node1&#45;&gt;Node5 -->
<g id="edge4_Node000001_Node000005" class="edge">
<title>Node1&#45;&gt;Node5</title>
<g id="a_edge4_Node000001_Node000005"><a xlink:title=" ">
<path fill="none" stroke="#63b8ff" d="M972.6,-81.81C866.92,-75.96 662.46,-61.88 490.75,-33.5 488.08,-33.06 485.35,-32.57 482.6,-32.04"/>
<polygon fill="#63b8ff" stroke="#63b8ff" points="972.38,-85.3 982.55,-82.35 972.76,-78.31 972.38,-85.3"/>
</a>
</g>
</g>
<!-- Node6 -->
<g id="Node000006" class="node">
<title>Node6</title>
<g id="a_Node000006"><a xlink:href="Felt_2IR_2Dialect_8cpp.html" target="_top" xlink:title=" ">
<polygon fill="white" stroke="#666666" points="599.38,-33.5 500.12,-33.5 500.12,0 599.38,0 599.38,-33.5"/>
<text text-anchor="start" x="508.12" y="-20" font-family="Helvetica,sans-Serif" font-size="10.00">lib/Dialect/Felt/IR</text>
<text text-anchor="middle" x="549.75" y="-7.25" font-family="Helvetica,sans-Serif" font-size="10.00">/Dialect.cpp</text>
</a>
</g>
</g>
<!-- Node1&#45;&gt;Node6 -->
<g id="edge5_Node000001_Node000006" class="edge">
<title>Node1&#45;&gt;Node6</title>
<g id="a_edge5_Node000001_Node000006"><a xlink:title=" ">
<path fill="none" stroke="#63b8ff" d="M972.62,-79.92C886.08,-72.71 735.81,-57.89 608.75,-33.5 605.83,-32.94 602.85,-32.31 599.85,-31.64"/>
<polygon fill="#63b8ff" stroke="#63b8ff" points="972.12,-83.39 982.37,-80.72 972.69,-76.41 972.12,-83.39"/>
</a>
</g>
</g>
<!-- Node7 -->
<g id="Node000007" class="node">
<title>Node7</title>
<g id="a_Node000007"><a xlink:href="Function_2IR_2Dialect_8cpp.html" target="_top" xlink:title=" ">
<polygon fill="white" stroke="#666666" points="727.62,-33.5 617.88,-33.5 617.88,0 727.62,0 727.62,-33.5"/>
<text text-anchor="start" x="625.88" y="-20" font-family="Helvetica,sans-Serif" font-size="10.00">lib/Dialect/Function</text>
<text text-anchor="middle" x="672.75" y="-7.25" font-family="Helvetica,sans-Serif" font-size="10.00">/IR/Dialect.cpp</text>
</a>
</g>
</g>
<!-- Node1&#45;&gt;Node7 -->
<g id="edge6_Node000001_Node000007" class="edge">
<title>Node1&#45;&gt;Node7</title>
<g id="a_edge6_Node000001_Node000007"><a xlink:title=" ">
<path fill="none" stroke="#63b8ff" d="M972.79,-74.82C910.39,-65.28 817.22,-50.16 736.75,-33.5 733.84,-32.9 730.86,-32.25 727.85,-31.59"/>
<polygon fill="#63b8ff" stroke="#63b8ff" points="972.17,-78.27 982.58,-76.31 973.22,-71.35 972.17,-78.27"/>
</a>
</g>
</g>
<!-- Node8 -->
<g id="Node000008" class="node">
<title>Node8</title>
<g id="a_Node000008"><a xlink:href="Function_2IR_2Ops_8cpp.html" target="_top" xlink:title=" ">
<polygon fill="white" stroke="#666666" points="855.62,-33.5 745.88,-33.5 745.88,0 855.62,0 855.62,-33.5"/>
<text text-anchor="start" x="753.88" y="-20" font-family="Helvetica,sans-Serif" font-size="10.00">lib/Dialect/Function</text>
<text text-anchor="middle" x="800.75" y="-7.25" font-family="Helvetica,sans-Serif" font-size="10.00">/IR/Ops.cpp</text>
</a>
</g>
</g>
<!-- Node1&#45;&gt;Node8 -->
<g id="edge7_Node000001_Node000008" class="edge">
<title>Node1&#45;&gt;Node8</title>
<g id="a_edge7_Node000001_Node000008"><a xlink:title=" ">
<path fill="none" stroke="#63b8ff" d="M974.67,-66.06C937.07,-55.62 891.17,-42.87 855.98,-33.09"/>
<polygon fill="#63b8ff" stroke="#63b8ff" points="973.52,-69.37 984.09,-68.68 975.39,-62.63 973.52,-69.37"/>
</a>
</g>
</g>
<!-- Node9 -->
<g id="Node000009" class="node">
<title>Node9</title>
<g id="a_Node000009"><a xlink:href="Global_2IR_2Dialect_8cpp.html" target="_top" xlink:title=" ">
<polygon fill="white" stroke="#666666" points="973.75,-33.5 873.75,-33.5 873.75,0 973.75,0 973.75,-33.5"/>
<text text-anchor="start" x="881.75" y="-20" font-family="Helvetica,sans-Serif" font-size="10.00">lib/Dialect/Global</text>
<text text-anchor="middle" x="923.75" y="-7.25" font-family="Helvetica,sans-Serif" font-size="10.00">/IR/Dialect.cpp</text>
</a>
</g>
</g>
<!-- Node1&#45;&gt;Node9 -->
<g id="edge8_Node000001_Node000009" class="edge">
<title>Node1&#45;&gt;Node9</title>
<g id="a_edge8_Node000001_Node000009"><a xlink:title=" ">
<path fill="none" stroke="#63b8ff" d="M1005.24,-63.59C988.03,-53.91 968.1,-42.7 952.26,-33.79"/>
<polygon fill="#63b8ff" stroke="#63b8ff" points="1003.26,-66.49 1013.69,-68.34 1006.69,-60.39 1003.26,-66.49"/>
</a>
</g>
</g>
<!-- Node10 -->
<g id="Node000010" class="node">
<title>Node10</title>
<g id="a_Node000010"><a xlink:href="Include_2IR_2Dialect_8cpp.html" target="_top" xlink:title=" ">
<polygon fill="white" stroke="#666666" points="1095.62,-33.5 991.88,-33.5 991.88,0 1095.62,0 1095.62,-33.5"/>
<text text-anchor="start" x="999.88" y="-20" font-family="Helvetica,sans-Serif" font-size="10.00">lib/Dialect/Include</text>
<text text-anchor="middle" x="1043.75" y="-7.25" font-family="Helvetica,sans-Serif" font-size="10.00">/IR/Dialect.cpp</text>
</a>
</g>
</g>
<!-- Node1&#45;&gt;Node10 -->
<g id="edge9_Node000001_Node000010" class="edge">
<title>Node1&#45;&gt;Node10</title>
<g id="a_edge9_Node000001_Node000010"><a xlink:title=" ">
<path fill="none" stroke="#63b8ff" d="M1043.75,-57.81C1043.75,-49.59 1043.75,-40.84 1043.75,-33.63"/>
<polygon fill="#63b8ff" stroke="#63b8ff" points="1040.25,-57.74 1043.75,-67.74 1047.25,-57.74 1040.25,-57.74"/>
</a>
</g>
</g>
<!-- Node11 -->
<g id="Node000011" class="node">
<title>Node11</title>
<g id="a_Node000011"><a xlink:href="LLZK_2IR_2Dialect_8cpp.html" target="_top" xlink:title=" ">
<polygon fill="white" stroke="#666666" points="1219.38,-33.5 1114.12,-33.5 1114.12,0 1219.38,0 1219.38,-33.5"/>
<text text-anchor="start" x="1122.12" y="-20" font-family="Helvetica,sans-Serif" font-size="10.00">lib/Dialect/LLZK/IR</text>
<text text-anchor="middle" x="1166.75" y="-7.25" font-family="Helvetica,sans-Serif" font-size="10.00">/Dialect.cpp</text>
</a>
</g>
</g>
<!-- Node1&#45;&gt;Node11 -->
<g id="edge10_Node000001_Node000011" class="edge">
<title>Node1&#45;&gt;Node11</title>
<g id="a_edge10_Node000001_Node000011"><a xlink:title=" ">
<path fill="none" stroke="#63b8ff" d="M1083.22,-63.59C1100.86,-53.91 1121.29,-42.7 1137.53,-33.79"/>
<polygon fill="#63b8ff" stroke="#63b8ff" points="1081.62,-60.47 1074.54,-68.35 1084.99,-66.61 1081.62,-60.47"/>
</a>
</g>
</g>
<!-- Node12 -->
<g id="Node000012" class="node">
<title>Node12</title>
<g id="a_Node000012"><a xlink:href="Versioning_8cpp.html" target="_top" xlink:title=" ">
<polygon fill="white" stroke="#666666" points="1342.38,-33.5 1237.12,-33.5 1237.12,0 1342.38,0 1342.38,-33.5"/>
<text text-anchor="start" x="1245.12" y="-20" font-family="Helvetica,sans-Serif" font-size="10.00">lib/Dialect/LLZK/IR</text>
<text text-anchor="middle" x="1289.75" y="-7.25" font-family="Helvetica,sans-Serif" font-size="10.00">/Versioning.cpp</text>
</a>
</g>
</g>
<!-- Node1&#45;&gt;Node12 -->
<g id="edge11_Node000001_Node000012" class="edge">
<title>Node1&#45;&gt;Node12</title>
<g id="a_edge11_Node000001_Node000012"><a xlink:title=" ">
<path fill="none" stroke="#63b8ff" d="M1113.71,-66.05C1152.82,-55.32 1200.78,-42.16 1236.75,-32.29"/>
<polygon fill="#63b8ff" stroke="#63b8ff" points="1112.85,-62.66 1104.13,-68.68 1114.7,-69.41 1112.85,-62.66"/>
</a>
</g>
</g>
<!-- Node13 -->
<g id="Node000013" class="node">
<title>Node13</title>
<g id="a_Node000013"><a xlink:href="POD_2IR_2Dialect_8cpp.html" target="_top" xlink:title=" ">
<polygon fill="white" stroke="#666666" points="1462.88,-33.5 1360.62,-33.5 1360.62,0 1462.88,0 1462.88,-33.5"/>
<text text-anchor="start" x="1368.62" y="-20" font-family="Helvetica,sans-Serif" font-size="10.00">lib/Dialect/POD/IR</text>
<text text-anchor="middle" x="1411.75" y="-7.25" font-family="Helvetica,sans-Serif" font-size="10.00">/Dialect.cpp</text>
</a>
</g>
</g>
<!-- Node1&#45;&gt;Node13 -->
<g id="edge12_Node000001_Node000013" class="edge">
<title>Node1&#45;&gt;Node13</title>
<g id="a_edge12_Node000001_Node000013"><a xlink:title=" ">
<path fill="none" stroke="#63b8ff" d="M1114.71,-75.19C1177.36,-65.86 1271.03,-50.84 1351.75,-33.5 1354.59,-32.89 1357.5,-32.23 1360.44,-31.55"/>
<polygon fill="#63b8ff" stroke="#63b8ff" points="1114.26,-71.72 1104.88,-76.64 1115.29,-78.64 1114.26,-71.72"/>
</a>
</g>
</g>
<!-- Node14 -->
<g id="Node000014" class="node">
<title>Node14</title>
<g id="a_Node000014"><a xlink:href="Polymorphic_2IR_2Dialect_8cpp.html" target="_top" xlink:title=" ">
<polygon fill="white" stroke="#666666" points="1610.38,-33.5 1481.12,-33.5 1481.12,0 1610.38,0 1610.38,-33.5"/>
<text text-anchor="start" x="1489.12" y="-20" font-family="Helvetica,sans-Serif" font-size="10.00">lib/Dialect/Polymorphic</text>
<text text-anchor="middle" x="1545.75" y="-7.25" font-family="Helvetica,sans-Serif" font-size="10.00">/IR/Dialect.cpp</text>
</a>
</g>
</g>
<!-- Node1&#45;&gt;Node14 -->
<g id="edge13_Node000001_Node000014" class="edge">
<title>Node1&#45;&gt;Node14</title>
<g id="a_edge13_Node000001_Node000014"><a xlink:title=" ">
<path fill="none" stroke="#63b8ff" d="M1114.88,-78.61C1200.03,-70.22 1346.81,-54.31 1471.75,-33.5 1474.73,-33 1477.77,-32.47 1480.84,-31.91"/>
<polygon fill="#63b8ff" stroke="#63b8ff" points="1114.65,-75.12 1105.04,-79.58 1115.34,-82.09 1114.65,-75.12"/>
</a>
</g>
</g>
<!-- Node15 -->
<g id="Node000015" class="node">
<title>Node15</title>
<g id="a_Node000015"><a xlink:href="RAM_2IR_2Dialect_8cpp.html" target="_top" xlink:title=" ">
<polygon fill="white" stroke="#666666" points="1732.62,-33.5 1628.88,-33.5 1628.88,0 1732.62,0 1732.62,-33.5"/>
<text text-anchor="start" x="1636.88" y="-20" font-family="Helvetica,sans-Serif" font-size="10.00">lib/Dialect/RAM/IR</text>
<text text-anchor="middle" x="1680.75" y="-7.25" font-family="Helvetica,sans-Serif" font-size="10.00">/Dialect.cpp</text>
</a>
</g>
</g>
<!-- Node1&#45;&gt;Node15 -->
<g id="edge14_Node000001_Node000015" class="edge">
<title>Node1&#45;&gt;Node15</title>
<g id="a_edge14_Node000001_Node000015"><a xlink:title=" ">
<path fill="none" stroke="#63b8ff" d="M1114.64,-82.6C1223.82,-77.69 1439.39,-64.67 1619.75,-33.5 1622.66,-33 1625.63,-32.43 1628.63,-31.8"/>
<polygon fill="#63b8ff" stroke="#63b8ff" points="1114.8,-79.09 1104.97,-83.03 1115.11,-86.09 1114.8,-79.09"/>
</a>
</g>
</g>
<!-- Node16 -->
<g id="Node000016" class="node">
<title>Node16</title>
<g id="a_Node000016"><a xlink:href="String_2IR_2Dialect_8cpp.html" target="_top" xlink:title=" ">
<polygon fill="white" stroke="#666666" points="1847.25,-33.5 1750.25,-33.5 1750.25,0 1847.25,0 1847.25,-33.5"/>
<text text-anchor="start" x="1758.25" y="-20" font-family="Helvetica,sans-Serif" font-size="10.00">lib/Dialect/String</text>
<text text-anchor="middle" x="1798.75" y="-7.25" font-family="Helvetica,sans-Serif" font-size="10.00">/IR/Dialect.cpp</text>
</a>
</g>
</g>
<!-- Node1&#45;&gt;Node16 -->
<g id="edge15_Node000001_Node000016" class="edge">
<title>Node1&#45;&gt;Node16</title>
<g id="a_edge15_Node000001_Node000016"><a xlink:title=" ">
<path fill="none" stroke="#63b8ff" d="M1114.97,-84.55C1241.88,-82.29 1515.06,-72.83 1741.75,-33.5 1744.38,-33.04 1747.06,-32.52 1749.76,-31.94"/>
<polygon fill="#63b8ff" stroke="#63b8ff" points="1114.98,-81.05 1105.04,-84.72 1115.09,-88.05 1114.98,-81.05"/>
</a>
</g>
</g>
<!-- Node17 -->
<g id="Node000017" class="node">
<title>Node17</title>
<g id="a_Node000017"><a xlink:href="Struct_2IR_2Dialect_8cpp.html" target="_top" xlink:title=" ">
<polygon fill="white" stroke="#666666" points="1962.25,-33.5 1865.25,-33.5 1865.25,0 1962.25,0 1962.25,-33.5"/>
<text text-anchor="start" x="1873.25" y="-20" font-family="Helvetica,sans-Serif" font-size="10.00">lib/Dialect/Struct</text>
<text text-anchor="middle" x="1913.75" y="-7.25" font-family="Helvetica,sans-Serif" font-size="10.00">/IR/Dialect.cpp</text>
</a>
</g>
</g>
<!-- Node1&#45;&gt;Node17 -->
<g id="edge16_Node000001_Node000017" class="edge">
<title>Node1&#45;&gt;Node17</title>
<g id="a_edge16_Node000001_Node000017"><a xlink:title=" ">
<path fill="none" stroke="#63b8ff" d="M1114.5,-85.62C1256.35,-85.3 1585.16,-79.16 1856.75,-33.5 1859.38,-33.06 1862.07,-32.54 1864.77,-31.97"/>
<polygon fill="#63b8ff" stroke="#63b8ff" points="1114.9,-82.12 1104.91,-85.64 1114.91,-89.12 1114.9,-82.12"/>
</a>
</g>
</g>
<!-- Node18 -->
<g id="Node000018" class="node">
<title>Node18</title>
<g id="a_Node000018"><a xlink:href="Struct_2IR_2Ops_8cpp.html" target="_top" xlink:title=" ">
<polygon fill="white" stroke="#666666" points="2077.25,-33.5 1980.25,-33.5 1980.25,0 2077.25,0 2077.25,-33.5"/>
<text text-anchor="start" x="1988.25" y="-20" font-family="Helvetica,sans-Serif" font-size="10.00">lib/Dialect/Struct</text>
<text text-anchor="middle" x="2028.75" y="-7.25" font-family="Helvetica,sans-Serif" font-size="10.00">/IR/Ops.cpp</text>
</a>
</g>
</g>
<!-- Node1&#45;&gt;Node18 -->
<g id="edge17_Node000001_Node000018" class="edge">
<title>Node1&#45;&gt;Node18</title>
<g id="a_edge17_Node000001_Node000018"><a xlink:title=" ">
<path fill="none" stroke="#63b8ff" d="M1114.84,-83.25C1302.31,-77.67 1807.01,-60.53 1971.75,-33.5 1974.38,-33.07 1977.07,-32.56 1979.77,-32"/>
<polygon fill="#63b8ff" stroke="#63b8ff" points="1114.89,-79.75 1105,-83.54 1115.1,-86.75 1114.89,-79.75"/>
</a>
</g>
</g>
</g>
</svg>
