<?xml version="1.0" encoding="UTF-8" standalone="no"?>
<!DOCTYPE svg PUBLIC "-//W3C//DTD SVG 1.1//EN"
 "http://www.w3.org/Graphics/SVG/1.1/DTD/svg11.dtd">
<!-- Generated by graphviz version 12.2.1 (0)
 -->
<!-- Title: tools/llzk&#45;witgen/WitgenDriver.h Pages: 1 -->
<svg width="1387pt" height="250pt"
 viewBox="0.00 0.00 1387.12 250.00" xmlns="http://www.w3.org/2000/svg" xmlns:xlink="http://www.w3.org/1999/xlink">
<g id="graph0" class="graph" transform="scale(1 1) rotate(0) translate(4 246)">
<title>tools/llzk&#45;witgen/WitgenDriver.h</title>
<!-- Node1 -->
<g id="Node000001" class="node">
<title>Node1</title>
<g id="a_Node000001"><a xlink:title=" ">
<polygon fill="#999999" stroke="#666666" points="846.75,-242 712.25,-242 712.25,-208.5 846.75,-208.5 846.75,-242"/>
<text text-anchor="start" x="720.25" y="-228.5" font-family="Helvetica,sans-Serif" font-size="10.00">tools/llzk&#45;witgen/Witgen</text>
<text text-anchor="middle" x="779.5" y="-215.75" font-family="Helvetica,sans-Serif" font-size="10.00">Driver.h</text>
</a>
</g>
</g>
<!-- Node2 -->
<g id="Node000002" class="node">
<title>Node2</title>
<g id="a_Node000002"><a xlink:href="ExecutionEngineBackend_8h.html" target="_top" xlink:title=" ">
<polygon fill="white" stroke="#666666" points="174.12,-103 26.87,-103 26.87,-69.5 174.12,-69.5 174.12,-103"/>
<text text-anchor="start" x="34.87" y="-89.5" font-family="Helvetica,sans-Serif" font-size="10.00">tools/llzk&#45;witgen/Execution</text>
<text text-anchor="middle" x="100.5" y="-76.75" font-family="Helvetica,sans-Serif" font-size="10.00">EngineBackend.h</text>
</a>
</g>
</g>
<!-- Node1&#45;&gt;Node2 -->
<g id="edge1_Node000001_Node000002" class="edge">
<title>Node1&#45;&gt;Node2</title>
<g id="a_edge1_Node000001_Node000002"><a xlink:title=" ">
<path fill="none" stroke="#63b8ff" d="M700.69,-208.35C568.38,-181.65 303.46,-128.2 174.47,-102.18"/>
<polygon fill="#63b8ff" stroke="#63b8ff" points="699.93,-211.77 710.43,-210.31 701.32,-204.9 699.93,-211.77"/>
</a>
</g>
</g>
<!-- Node4 -->
<g id="Node000004" class="node">
<title>Node4</title>
<g id="a_Node000004"><a xlink:href="WitgenDriver_8cpp.html" target="_top" xlink:title=" ">
<polygon fill="white" stroke="#666666" points="167.75,-33.5 33.25,-33.5 33.25,0 167.75,0 167.75,-33.5"/>
<text text-anchor="start" x="41.25" y="-20" font-family="Helvetica,sans-Serif" font-size="10.00">tools/llzk&#45;witgen/Witgen</text>
<text text-anchor="middle" x="100.5" y="-7.25" font-family="Helvetica,sans-Serif" font-size="10.00">Driver.cpp</text>
</a>
</g>
</g>
<!-- Node1&#45;&gt;Node4 -->
<g id="edge4_Node000001_Node000004" class="edge">
<title>Node1&#45;&gt;Node4</title>
<g id="a_edge4_Node000001_Node000004"><a xlink:title=" ">
<path fill="none" stroke="#63b8ff" d="M700.34,-224.48C521.12,-223.13 93.19,-208.65 6.5,-103 -2.95,-91.49 -1.08,-82.32 6.5,-69.5 16.07,-53.3 32.72,-41.83 49.38,-33.88"/>
<polygon fill="#63b8ff" stroke="#63b8ff" points="700.24,-227.98 710.26,-224.55 700.28,-220.98 700.24,-227.98"/>
</a>
</g>
</g>
<!-- Node5 -->
<g id="Node000005" class="node">
<title>Node5</title>
<g id="a_Node000005"><a xlink:href="WitgenLowering_8cpp.html" target="_top" xlink:title=" ">
<polygon fill="white" stroke="#666666" points="939.75,-103 805.25,-103 805.25,-69.5 939.75,-69.5 939.75,-103"/>
<text text-anchor="start" x="813.25" y="-89.5" font-family="Helvetica,sans-Serif" font-size="10.00">tools/llzk&#45;witgen/Witgen</text>
<text text-anchor="middle" x="872.5" y="-76.75" font-family="Helvetica,sans-Serif" font-size="10.00">Lowering.cpp</text>
</a>
</g>
</g>
<!-- Node1&#45;&gt;Node5 -->
<g id="edge5_Node000001_Node000005" class="edge">
<title>Node1&#45;&gt;Node5</title>
<g id="a_edge5_Node000001_Node000005"><a xlink:title=" ">
<path fill="none" stroke="#63b8ff" d="M796.57,-199.11C815.58,-171.1 845.73,-126.69 861.72,-103.13"/>
<polygon fill="#63b8ff" stroke="#63b8ff" points="793.92,-196.77 791.2,-207.01 799.71,-200.71 793.92,-196.77"/>
</a>
</g>
</g>
<!-- Node6 -->
<g id="Node000006" class="node">
<title>Node6</title>
<g id="a_Node000006"><a xlink:href="WitgenUtils_8h.html" target="_top" xlink:title=" ">
<polygon fill="white" stroke="#666666" points="723.75,-172.5 589.25,-172.5 589.25,-139 723.75,-139 723.75,-172.5"/>
<text text-anchor="start" x="597.25" y="-159" font-family="Helvetica,sans-Serif" font-size="10.00">tools/llzk&#45;witgen/Witgen</text>
<text text-anchor="middle" x="656.5" y="-146.25" font-family="Helvetica,sans-Serif" font-size="10.00">Utils.h</text>
</a>
</g>
</g>
<!-- Node1&#45;&gt;Node6 -->
<g id="edge6_Node000001_Node000006" class="edge">
<title>Node1&#45;&gt;Node6</title>
<g id="a_edge6_Node000001_Node000006"><a xlink:title=" ">
<path fill="none" stroke="#63b8ff" d="M740.03,-202.59C722.38,-192.91 701.96,-181.7 685.72,-172.79"/>
<polygon fill="#63b8ff" stroke="#63b8ff" points="738.26,-205.61 748.71,-207.35 741.63,-199.47 738.26,-205.61"/>
</a>
</g>
</g>
<!-- Node11 -->
<g id="Node000011" class="node">
<title>Node11</title>
<g id="a_Node000011"><a xlink:href="WitnessSelection_8h.html" target="_top" xlink:title=" ">
<polygon fill="white" stroke="#666666" points="1075,-172.5 936,-172.5 936,-139 1075,-139 1075,-172.5"/>
<text text-anchor="start" x="944" y="-159" font-family="Helvetica,sans-Serif" font-size="10.00">tools/llzk&#45;witgen/Witness</text>
<text text-anchor="middle" x="1005.5" y="-146.25" font-family="Helvetica,sans-Serif" font-size="10.00">Selection.h</text>
</a>
</g>
</g>
<!-- Node1&#45;&gt;Node11 -->
<g id="edge14_Node000001_Node000011" class="edge">
<title>Node1&#45;&gt;Node11</title>
<g id="a_edge14_Node000001_Node000011"><a xlink:title=" ">
<path fill="none" stroke="#63b8ff" d="M844.37,-204.88C878.26,-194.75 919.26,-182.51 951.42,-172.9"/>
<polygon fill="#63b8ff" stroke="#63b8ff" points="843.66,-201.43 835.08,-207.65 845.67,-208.14 843.66,-201.43"/>
</a>
</g>
</g>
<!-- Node13 -->
<g id="Node000013" class="node">
<title>Node13</title>
<g id="a_Node000013"><a xlink:href="llzk-witgen_8cpp.html" target="_top" xlink:title=" ">
<polygon fill="white" stroke="#666666" points="1379.12,-33.5 1261.87,-33.5 1261.87,0 1379.12,0 1379.12,-33.5"/>
<text text-anchor="start" x="1269.87" y="-20" font-family="Helvetica,sans-Serif" font-size="10.00">tools/llzk&#45;witgen/llzk</text>
<text text-anchor="middle" x="1320.5" y="-7.25" font-family="Helvetica,sans-Serif" font-size="10.00">&#45;witgen.cpp</text>
</a>
</g>
</g>
<!-- Node1&#45;&gt;Node13 -->
<g id="edge25_Node000001_Node000013" class="edge">
<title>Node1&#45;&gt;Node13</title>
<g id="a_edge25_Node000001_Node000013"><a xlink:title=" ">
<path fill="none" stroke="#63b8ff" d="M858.23,-220.31C1004.66,-211.12 1309.78,-182.66 1372.5,-103 1390.2,-80.53 1363.48,-51.61 1342.25,-33.89"/>
<polygon fill="#63b8ff" stroke="#63b8ff" points="858.39,-216.79 848.62,-220.89 858.82,-223.78 858.39,-216.79"/>
</a>
</g>
</g>
<!-- Node3 -->
<g id="Node000003" class="node">
<title>Node3</title>
<g id="a_Node000003"><a xlink:href="ExecutionEngineBackend_8cpp.html" target="_top" xlink:title=" ">
<polygon fill="white" stroke="#666666" points="911.12,-33.5 763.87,-33.5 763.87,0 911.12,0 911.12,-33.5"/>
<text text-anchor="start" x="771.87" y="-20" font-family="Helvetica,sans-Serif" font-size="10.00">tools/llzk&#45;witgen/Execution</text>
<text text-anchor="middle" x="837.5" y="-7.25" font-family="Helvetica,sans-Serif" font-size="10.00">EngineBackend.cpp</text>
</a>
</g>
</g>
<!-- Node2&#45;&gt;Node3 -->
<g id="edge2_Node000002_Node000003" class="edge">
<title>Node2&#45;&gt;Node3</title>
<g id="a_edge2_Node000002_Node000003"><a xlink:title=" ">
<path fill="none" stroke="#63b8ff" d="M185.4,-69.19C400.69,-40.68 643.99,-26.62 763.54,-20.92"/>
<polygon fill="#63b8ff" stroke="#63b8ff" points="185.14,-65.7 175.69,-70.49 186.07,-72.64 185.14,-65.7"/>
</a>
</g>
</g>
<!-- Node2&#45;&gt;Node4 -->
<g id="edge3_Node000002_Node000004" class="edge">
<title>Node2&#45;&gt;Node4</title>
<g id="a_edge3_Node000002_Node000004"><a xlink:title=" ">
<path fill="none" stroke="#63b8ff" d="M100.5,-57.81C100.5,-49.59 100.5,-40.84 100.5,-33.63"/>
<polygon fill="#63b8ff" stroke="#63b8ff" points="97,-57.74 100.5,-67.74 104,-57.74 97,-57.74"/>
</a>
</g>
</g>
<!-- Node6&#45;&gt;Node3 -->
<g id="edge7_Node000006_Node000003" class="edge">
<title>Node6&#45;&gt;Node3</title>
<g id="a_edge7_Node000006_Node000003"><a xlink:title=" ">
<path fill="none" stroke="#63b8ff" d="M685.21,-131.55C711.5,-110.36 748.52,-80.69 763.5,-69.5 779.95,-57.21 798.94,-43.95 813.57,-33.93"/>
<polygon fill="#63b8ff" stroke="#63b8ff" points="683.17,-128.69 677.59,-137.69 687.57,-134.14 683.17,-128.69"/>
</a>
</g>
</g>
<!-- Node6&#45;&gt;Node4 -->
<g id="edge11_Node000006_Node000004" class="edge">
<title>Node6&#45;&gt;Node4</title>
<g id="a_edge11_Node000006_Node000004"><a xlink:title=" ">
<path fill="none" stroke="#63b8ff" d="M577.51,-154.21C414.89,-152.26 54.76,-143.4 17.5,-103 7.4,-92.06 10.27,-82.52 17.5,-69.5 26.32,-53.61 42.26,-41.97 57.84,-33.79"/>
<polygon fill="#63b8ff" stroke="#63b8ff" points="577.31,-157.7 587.35,-154.32 577.39,-150.71 577.31,-157.7"/>
</a>
</g>
</g>
<!-- Node6&#45;&gt;Node5 -->
<g id="edge12_Node000006_Node000005" class="edge">
<title>Node6&#45;&gt;Node5</title>
<g id="a_edge12_Node000006_Node000005"><a xlink:title=" ">
<path fill="none" stroke="#63b8ff" d="M718.92,-135.24C751.23,-125.15 790.21,-112.97 820.81,-103.4"/>
<polygon fill="#63b8ff" stroke="#63b8ff" points="718.18,-131.81 709.68,-138.13 720.27,-138.49 718.18,-131.81"/>
</a>
</g>
</g>
<!-- Node7 -->
<g id="Node000007" class="node">
<title>Node7</title>
<g id="a_Node000007"><a xlink:href="Interpreter_8cpp.html" target="_top" xlink:title=" ">
<polygon fill="white" stroke="#666666" points="711.12,-96.62 539.87,-96.62 539.87,-75.88 711.12,-75.88 711.12,-96.62"/>
<text text-anchor="middle" x="625.5" y="-83.12" font-family="Helvetica,sans-Serif" font-size="10.00">tools/llzk&#45;witgen/Interpreter.cpp</text>
</a>
</g>
</g>
<!-- Node6&#45;&gt;Node7 -->
<g id="edge8_Node000006_Node000007" class="edge">
<title>Node6&#45;&gt;Node7</title>
<g id="a_edge8_Node000006_Node000007"><a xlink:title=" ">
<path fill="none" stroke="#63b8ff" d="M644.36,-128.32C639.32,-117.33 633.77,-105.27 630.01,-97.07"/>
<polygon fill="#63b8ff" stroke="#63b8ff" points="641.17,-129.75 648.52,-137.38 647.53,-126.83 641.17,-129.75"/>
</a>
</g>
</g>
<!-- Node8 -->
<g id="Node000008" class="node">
<title>Node8</title>
<g id="a_Node000008"><a xlink:href="JSON_8cpp.html" target="_top" xlink:title=" ">
<polygon fill="white" stroke="#666666" points="1172.62,-27.12 1028.37,-27.12 1028.37,-6.38 1172.62,-6.38 1172.62,-27.12"/>
<text text-anchor="middle" x="1100.5" y="-13.62" font-family="Helvetica,sans-Serif" font-size="10.00">tools/llzk&#45;witgen/JSON.cpp</text>
</a>
</g>
</g>
<!-- Node6&#45;&gt;Node8 -->
<g id="edge9_Node000006_Node000008" class="edge">
<title>Node6&#45;&gt;Node8</title>
<g id="a_edge9_Node000006_Node000008"><a xlink:title=" ">
<path fill="none" stroke="#63b8ff" d="M702.25,-133.72C719.71,-125.02 739.5,-114.32 756.5,-103 775.8,-90.15 775.45,-79.23 796.5,-69.5 836.65,-50.94 951.64,-34.78 1028.12,-25.65"/>
<polygon fill="#63b8ff" stroke="#63b8ff" points="701.08,-130.4 693.64,-137.94 704.16,-136.69 701.08,-130.4"/>
</a>
</g>
</g>
<!-- Node9 -->
<g id="Node000009" class="node">
<title>Node9</title>
<g id="a_Node000009"><a xlink:href="ValueModel_8cpp.html" target="_top" xlink:title=" ">
<polygon fill="white" stroke="#666666" points="369.12,-96.62 191.87,-96.62 191.87,-75.88 369.12,-75.88 369.12,-96.62"/>
<text text-anchor="middle" x="280.5" y="-83.12" font-family="Helvetica,sans-Serif" font-size="10.00">tools/llzk&#45;witgen/ValueModel.cpp</text>
</a>
</g>
</g>
<!-- Node6&#45;&gt;Node9 -->
<g id="edge10_Node000006_Node000009" class="edge">
<title>Node6&#45;&gt;Node9</title>
<g id="a_edge10_Node000006_Node000009"><a xlink:title=" ">
<path fill="none" stroke="#63b8ff" d="M577.94,-140.65C505.33,-127.61 399.3,-108.58 335.4,-97.11"/>
<polygon fill="#63b8ff" stroke="#63b8ff" points="576.89,-144.01 587.35,-142.34 578.13,-137.12 576.89,-144.01"/>
</a>
</g>
</g>
<!-- Node10 -->
<g id="Node000010" class="node">
<title>Node10</title>
<g id="a_Node000010"><a xlink:href="WitgenUtils_8cpp.html" target="_top" xlink:title=" ">
<polygon fill="white" stroke="#666666" points="521.75,-103 387.25,-103 387.25,-69.5 521.75,-69.5 521.75,-103"/>
<text text-anchor="start" x="395.25" y="-89.5" font-family="Helvetica,sans-Serif" font-size="10.00">tools/llzk&#45;witgen/Witgen</text>
<text text-anchor="middle" x="454.5" y="-76.75" font-family="Helvetica,sans-Serif" font-size="10.00">Utils.cpp</text>
</a>
</g>
</g>
<!-- Node6&#45;&gt;Node10 -->
<g id="edge13_Node000006_Node000010" class="edge">
<title>Node6&#45;&gt;Node10</title>
<g id="a_edge13_Node000006_Node000010"><a xlink:title=" ">
<path fill="none" stroke="#63b8ff" d="M597.34,-134.98C567.28,-124.94 531.21,-112.88 502.84,-103.4"/>
<polygon fill="#63b8ff" stroke="#63b8ff" points="596.09,-138.25 606.68,-138.1 598.3,-131.61 596.09,-138.25"/>
</a>
</g>
</g>
<!-- Node11&#45;&gt;Node3 -->
<g id="edge15_Node000011_Node000003" class="edge">
<title>Node11&#45;&gt;Node3</title>
<g id="a_edge15_Node000011_Node000003"><a xlink:title=" ">
<path fill="none" stroke="#63b8ff" d="M1004.19,-127.58C1001.93,-109.08 996.12,-85.19 981.5,-69.5 963.12,-49.77 936.67,-37.55 911.45,-29.99"/>
<polygon fill="#63b8ff" stroke="#63b8ff" points="1000.69,-127.68 1005.09,-137.32 1007.66,-127.04 1000.69,-127.68"/>
</a>
</g>
</g>
<!-- Node11&#45;&gt;Node4 -->
<g id="edge22_Node000011_Node000004" class="edge">
<title>Node11&#45;&gt;Node4</title>
<g id="a_edge22_Node000011_Node000004"><a xlink:title=" ">
<path fill="none" stroke="#63b8ff" d="M991.57,-128.79C978.93,-106.32 960.5,-76.39 948.5,-69.5 881.55,-31.06 356.87,-20.88 167.98,-18.45"/>
<polygon fill="#63b8ff" stroke="#63b8ff" points="988.45,-130.39 996.35,-137.46 994.58,-127.01 988.45,-130.39"/>
</a>
</g>
</g>
<!-- Node11&#45;&gt;Node5 -->
<g id="edge23_Node000011_Node000005" class="edge">
<title>Node11&#45;&gt;Node5</title>
<g id="a_edge23_Node000011_Node000005"><a xlink:title=" ">
<path fill="none" stroke="#63b8ff" d="M963.62,-133.49C944.36,-123.72 921.9,-112.32 904.1,-103.29"/>
<polygon fill="#63b8ff" stroke="#63b8ff" points="961.79,-136.49 972.29,-137.9 964.96,-130.25 961.79,-136.49"/>
</a>
</g>
</g>
<!-- Node11&#45;&gt;Node8 -->
<g id="edge16_Node000011_Node000008" class="edge">
<title>Node11&#45;&gt;Node8</title>
<g id="a_edge16_Node000011_Node000008"><a xlink:title=" ">
<path fill="none" stroke="#63b8ff" d="M1086.63,-150.65C1120,-144.47 1155.66,-131.08 1176.5,-103 1185.37,-91.04 1183.46,-82.66 1176.5,-69.5 1165.9,-49.46 1143.68,-35.73 1125.98,-27.48"/>
<polygon fill="#63b8ff" stroke="#63b8ff" points="1086.22,-147.17 1076.91,-152.24 1087.35,-154.08 1086.22,-147.17"/>
</a>
</g>
</g>
<!-- Node12 -->
<g id="Node000012" class="node">
<title>Node12</title>
<g id="a_Node000012"><a xlink:href="JSON_8h.html" target="_top" xlink:title=" ">
<polygon fill="white" stroke="#666666" points="1167,-96.62 1034,-96.62 1034,-75.88 1167,-75.88 1167,-96.62"/>
<text text-anchor="middle" x="1100.5" y="-83.12" font-family="Helvetica,sans-Serif" font-size="10.00">tools/llzk&#45;witgen/JSON.h</text>
</a>
</g>
</g>
<!-- Node11&#45;&gt;Node12 -->
<g id="edge17_Node000011_Node000012" class="edge">
<title>Node11&#45;&gt;Node12</title>
<g id="a_edge17_Node000011_Node000012"><a xlink:title=" ">
<path fill="none" stroke="#63b8ff" d="M1036.99,-132.37C1053.83,-120.41 1073.7,-106.29 1086.68,-97.07"/>
<polygon fill="#63b8ff" stroke="#63b8ff" points="1035.37,-129.23 1029.25,-137.88 1039.43,-134.94 1035.37,-129.23"/>
</a>
</g>
</g>
<!-- Node14 -->
<g id="Node000014" class="node">
<title>Node14</title>
<g id="a_Node000014"><a xlink:href="WitnessSelection_8cpp.html" target="_top" xlink:title=" ">
<polygon fill="white" stroke="#666666" points="1363,-103 1224,-103 1224,-69.5 1363,-69.5 1363,-103"/>
<text text-anchor="start" x="1232" y="-89.5" font-family="Helvetica,sans-Serif" font-size="10.00">tools/llzk&#45;witgen/Witness</text>
<text text-anchor="middle" x="1293.5" y="-76.75" font-family="Helvetica,sans-Serif" font-size="10.00">Selection.cpp</text>
</a>
</g>
</g>
<!-- Node11&#45;&gt;Node14 -->
<g id="edge24_Node000011_Node000014" class="edge">
<title>Node11&#45;&gt;Node14</title>
<g id="a_edge24_Node000011_Node000014"><a xlink:title=" ">
<path fill="none" stroke="#63b8ff" d="M1085.65,-135.97C1129.31,-125.73 1182.8,-113.2 1224.58,-103.4"/>
<polygon fill="#63b8ff" stroke="#63b8ff" points="1084.89,-132.55 1075.96,-138.24 1086.49,-139.36 1084.89,-132.55"/>
</a>
</g>
</g>
<!-- Node12&#45;&gt;Node3 -->
<g id="edge18_Node000012_Node000003" class="edge">
<title>Node12&#45;&gt;Node3</title>
<g id="a_edge18_Node000012_Node000003"><a xlink:title=" ">
<path fill="none" stroke="#63b8ff" d="M1051.33,-72.63C1008.77,-61.71 946.96,-45.84 900.73,-33.98"/>
<polygon fill="#63b8ff" stroke="#63b8ff" points="1050.23,-75.96 1060.79,-75.06 1051.97,-69.18 1050.23,-75.96"/>
</a>
</g>
</g>
<!-- Node12&#45;&gt;Node4 -->
<g id="edge20_Node000012_Node000004" class="edge">
<title>Node12&#45;&gt;Node4</title>
<g id="a_edge20_Node000012_Node000004"><a xlink:title=" ">
<path fill="none" stroke="#63b8ff" d="M1022.29,-74.07C1008.71,-72.37 994.71,-70.76 981.5,-69.5 678.74,-40.61 315.81,-25.41 168.05,-20.04"/>
<polygon fill="#63b8ff" stroke="#63b8ff" points="1021.7,-77.53 1032.07,-75.33 1022.6,-70.58 1021.7,-77.53"/>
</a>
</g>
</g>
<!-- Node12&#45;&gt;Node8 -->
<g id="edge19_Node000012_Node000008" class="edge">
<title>Node12&#45;&gt;Node8</title>
<g id="a_edge19_Node000012_Node000008"><a xlink:title=" ">
<path fill="none" stroke="#63b8ff" d="M1100.5,-64.44C1100.5,-52.09 1100.5,-37.02 1100.5,-27.4"/>
<polygon fill="#63b8ff" stroke="#63b8ff" points="1097,-64.07 1100.5,-74.07 1104,-64.07 1097,-64.07"/>
</a>
</g>
</g>
<!-- Node12&#45;&gt;Node13 -->
<g id="edge21_Node000012_Node000013" class="edge">
<title>Node12&#45;&gt;Node13</title>
<g id="a_edge21_Node000012_Node000013"><a xlink:title=" ">
<path fill="none" stroke="#63b8ff" d="M1143.46,-72.07C1178.98,-61.17 1229.59,-45.64 1267.61,-33.98"/>
<polygon fill="#63b8ff" stroke="#63b8ff" points="1142.47,-68.71 1133.94,-74.99 1144.52,-75.4 1142.47,-68.71"/>
</a>
</g>
</g>
</g>
</svg>
