<?xml version="1.0" encoding="UTF-8" standalone="no"?>
<!DOCTYPE svg PUBLIC "-//W3C//DTD SVG 1.1//EN"
 "http://www.w3.org/Graphics/SVG/1.1/DTD/svg11.dtd">
<!-- Generated by graphviz version 12.2.1 (0)
 -->
<!-- Title: tools/llzk&#45;witgen/WitgenLowering.h Pages: 1 -->
<svg width="461pt" height="111pt"
 viewBox="0.00 0.00 460.88 111.00" xmlns="http://www.w3.org/2000/svg" xmlns:xlink="http://www.w3.org/1999/xlink">
<g id="graph0" class="graph" transform="scale(1 1) rotate(0) translate(4 107)">
<title>tools/llzk&#45;witgen/WitgenLowering.h</title>
<!-- Node1 -->
<g id="Node000001" class="node">
<title>Node1</title>
<g id="a_Node000001"><a xlink:title=" ">
<polygon fill="#999999" stroke="#666666" points="299.88,-103 165.38,-103 165.38,-69.5 299.88,-69.5 299.88,-103"/>
<text text-anchor="start" x="173.38" y="-89.5" font-family="Helvetica,sans-Serif" font-size="10.00">tools/llzk&#45;witgen/Witgen</text>
<text text-anchor="middle" x="232.62" y="-76.75" font-family="Helvetica,sans-Serif" font-size="10.00">Lowering.h</text>
</a>
</g>
</g>
<!-- Node2 -->
<g id="Node000002" class="node">
<title>Node2</title>
<g id="a_Node000002"><a xlink:href="ExecutionEngineBackend_8cpp.html" target="_top" xlink:title=" ">
<polygon fill="white" stroke="#666666" points="147.25,-33.5 0,-33.5 0,0 147.25,0 147.25,-33.5"/>
<text text-anchor="start" x="8" y="-20" font-family="Helvetica,sans-Serif" font-size="10.00">tools/llzk&#45;witgen/Execution</text>
<text text-anchor="middle" x="73.62" y="-7.25" font-family="Helvetica,sans-Serif" font-size="10.00">EngineBackend.cpp</text>
</a>
</g>
</g>
<!-- Node1&#45;&gt;Node2 -->
<g id="edge1_Node000001_Node000002" class="edge">
<title>Node1&#45;&gt;Node2</title>
<g id="a_edge1_Node000001_Node000002"><a xlink:title=" ">
<path fill="none" stroke="#63b8ff" d="M184.18,-64.68C160.91,-54.8 133.42,-43.13 111.67,-33.9"/>
<polygon fill="#63b8ff" stroke="#63b8ff" points="182.57,-67.8 193.15,-68.49 185.31,-61.36 182.57,-67.8"/>
</a>
</g>
</g>
<!-- Node3 -->
<g id="Node000003" class="node">
<title>Node3</title>
<g id="a_Node000003"><a xlink:href="WitgenDriver_8cpp.html" target="_top" xlink:title=" ">
<polygon fill="white" stroke="#666666" points="299.88,-33.5 165.38,-33.5 165.38,0 299.88,0 299.88,-33.5"/>
<text text-anchor="start" x="173.38" y="-20" font-family="Helvetica,sans-Serif" font-size="10.00">tools/llzk&#45;witgen/Witgen</text>
<text text-anchor="middle" x="232.62" y="-7.25" font-family="Helvetica,sans-Serif" font-size="10.00">Driver.cpp</text>
</a>
</g>
</g>
<!-- Node1&#45;&gt;Node3 -->
<g id="edge2_Node000001_Node000003" class="edge">
<title>Node1&#45;&gt;Node3</title>
<g id="a_edge2_Node000001_Node000003"><a xlink:title=" ">
<path fill="none" stroke="#63b8ff" d="M232.62,-57.81C232.62,-49.59 232.62,-40.84 232.62,-33.63"/>
<polygon fill="#63b8ff" stroke="#63b8ff" points="229.13,-57.74 232.63,-67.74 236.13,-57.74 229.13,-57.74"/>
</a>
</g>
</g>
<!-- Node4 -->
<g id="Node000004" class="node">
<title>Node4</title>
<g id="a_Node000004"><a xlink:href="WitgenLowering_8cpp.html" target="_top" xlink:title=" ">
<polygon fill="white" stroke="#666666" points="452.88,-33.5 318.38,-33.5 318.38,0 452.88,0 452.88,-33.5"/>
<text text-anchor="start" x="326.38" y="-20" font-family="Helvetica,sans-Serif" font-size="10.00">tools/llzk&#45;witgen/Witgen</text>
<text text-anchor="middle" x="385.62" y="-7.25" font-family="Helvetica,sans-Serif" font-size="10.00">Lowering.cpp</text>
</a>
</g>
</g>
<!-- Node1&#45;&gt;Node4 -->
<g id="edge3_Node000001_Node000004" class="edge">
<title>Node1&#45;&gt;Node4</title>
<g id="a_edge3_Node000001_Node000004"><a xlink:title=" ">
<path fill="none" stroke="#63b8ff" d="M279.55,-64.55C301.88,-54.7 328.18,-43.09 349.01,-33.9"/>
<polygon fill="#63b8ff" stroke="#63b8ff" points="278.39,-61.23 270.66,-68.47 281.22,-67.64 278.39,-61.23"/>
</a>
</g>
</g>
</g>
</svg>
