<?xml version="1.0" encoding="UTF-8" standalone="no"?>
<!DOCTYPE svg PUBLIC "-//W3C//DTD SVG 1.1//EN"
 "http://www.w3.org/Graphics/SVG/1.1/DTD/svg11.dtd">
<!-- Generated by graphviz version 12.2.1 (0)
 -->
<!-- Title: tools/llzk&#45;witgen/WitnessSelection.h Pages: 1 -->
<svg width="680pt" height="181pt"
 viewBox="0.00 0.00 680.12 180.50" xmlns="http://www.w3.org/2000/svg" xmlns:xlink="http://www.w3.org/1999/xlink">
<g id="graph0" class="graph" transform="scale(1 1) rotate(0) translate(4 176.5)">
<title>tools/llzk&#45;witgen/WitnessSelection.h</title>
<!-- Node1 -->
<g id="Node000001" class="node">
<title>Node1</title>
<g id="a_Node000001"><a xlink:title=" ">
<polygon fill="#999999" stroke="#666666" points="403.12,-172.5 264.12,-172.5 264.12,-139 403.12,-139 403.12,-172.5"/>
<text text-anchor="start" x="272.12" y="-159" font-family="Helvetica,sans-Serif" font-size="10.00">tools/llzk&#45;witgen/Witness</text>
<text text-anchor="middle" x="333.62" y="-146.25" font-family="Helvetica,sans-Serif" font-size="10.00">Selection.h</text>
</a>
</g>
</g>
<!-- Node2 -->
<g id="Node000002" class="node">
<title>Node2</title>
<g id="a_Node000002"><a xlink:href="ExecutionEngineBackend_8cpp.html" target="_top" xlink:title=" ">
<polygon fill="white" stroke="#666666" points="147.25,-33.5 0,-33.5 0,0 147.25,0 147.25,-33.5"/>
<text text-anchor="start" x="8" y="-20" font-family="Helvetica,sans-Serif" font-size="10.00">tools/llzk&#45;witgen/Execution</text>
<text text-anchor="middle" x="73.62" y="-7.25" font-family="Helvetica,sans-Serif" font-size="10.00">EngineBackend.cpp</text>
</a>
</g>
</g>
<!-- Node1&#45;&gt;Node2 -->
<g id="edge1_Node000001_Node000002" class="edge">
<title>Node1&#45;&gt;Node2</title>
<g id="a_edge1_Node000001_Node000002"><a xlink:title=" ">
<path fill="none" stroke="#63b8ff" d="M252.66,-143.78C217.42,-136.28 176.89,-123.77 144.62,-103 116.93,-85.18 94.55,-53.13 82.75,-33.81"/>
<polygon fill="#63b8ff" stroke="#63b8ff" points="251.92,-147.2 262.41,-145.74 253.3,-140.34 251.92,-147.2"/>
</a>
</g>
</g>
<!-- Node3 -->
<g id="Node000003" class="node">
<title>Node3</title>
<g id="a_Node000003"><a xlink:href="JSON_8cpp.html" target="_top" xlink:title=" ">
<polygon fill="white" stroke="#666666" points="309.75,-27.12 165.5,-27.12 165.5,-6.38 309.75,-6.38 309.75,-27.12"/>
<text text-anchor="middle" x="237.62" y="-13.62" font-family="Helvetica,sans-Serif" font-size="10.00">tools/llzk&#45;witgen/JSON.cpp</text>
</a>
</g>
</g>
<!-- Node1&#45;&gt;Node3 -->
<g id="edge2_Node000001_Node000003" class="edge">
<title>Node1&#45;&gt;Node3</title>
<g id="a_edge2_Node000001_Node000003"><a xlink:title=" ">
<path fill="none" stroke="#63b8ff" d="M325,-127.91C318.56,-110.3 308.64,-87.32 295.62,-69.5 283.21,-52.5 264.39,-37 251.58,-27.49"/>
<polygon fill="#63b8ff" stroke="#63b8ff" points="321.63,-128.88 328.22,-137.17 328.24,-126.58 321.63,-128.88"/>
</a>
</g>
</g>
<!-- Node4 -->
<g id="Node000004" class="node">
<title>Node4</title>
<g id="a_Node000004"><a xlink:href="JSON_8h.html" target="_top" xlink:title=" ">
<polygon fill="white" stroke="#666666" points="286.12,-96.62 153.12,-96.62 153.12,-75.88 286.12,-75.88 286.12,-96.62"/>
<text text-anchor="middle" x="219.62" y="-83.12" font-family="Helvetica,sans-Serif" font-size="10.00">tools/llzk&#45;witgen/JSON.h</text>
</a>
</g>
</g>
<!-- Node1&#45;&gt;Node4 -->
<g id="edge3_Node000001_Node000004" class="edge">
<title>Node1&#45;&gt;Node4</title>
<g id="a_edge3_Node000001_Node000004"><a xlink:title=" ">
<path fill="none" stroke="#63b8ff" d="M296.67,-132.87C276.25,-120.78 251.91,-106.36 236.13,-97.02"/>
<polygon fill="#63b8ff" stroke="#63b8ff" points="294.63,-135.73 305.02,-137.81 298.2,-129.7 294.63,-135.73"/>
</a>
</g>
</g>
<!-- Node5 -->
<g id="Node000005" class="node">
<title>Node5</title>
<g id="a_Node000005"><a xlink:href="WitgenDriver_8cpp.html" target="_top" xlink:title=" ">
<polygon fill="white" stroke="#666666" points="461.88,-33.5 327.38,-33.5 327.38,0 461.88,0 461.88,-33.5"/>
<text text-anchor="start" x="335.38" y="-20" font-family="Helvetica,sans-Serif" font-size="10.00">tools/llzk&#45;witgen/Witgen</text>
<text text-anchor="middle" x="394.62" y="-7.25" font-family="Helvetica,sans-Serif" font-size="10.00">Driver.cpp</text>
</a>
</g>
</g>
<!-- Node1&#45;&gt;Node5 -->
<g id="edge7_Node000001_Node000005" class="edge">
<title>Node1&#45;&gt;Node5</title>
<g id="a_edge7_Node000001_Node000005"><a xlink:title=" ">
<path fill="none" stroke="#63b8ff" d="M345.31,-128.5C357.81,-100.44 377.2,-56.88 387.55,-33.63"/>
<polygon fill="#63b8ff" stroke="#63b8ff" points="342.23,-126.82 341.36,-137.38 348.62,-129.67 342.23,-126.82"/>
</a>
</g>
</g>
<!-- Node6 -->
<g id="Node000006" class="node">
<title>Node6</title>
<g id="a_Node000006"><a xlink:href="WitgenLowering_8cpp.html" target="_top" xlink:title=" ">
<polygon fill="white" stroke="#666666" points="514.88,-103 380.38,-103 380.38,-69.5 514.88,-69.5 514.88,-103"/>
<text text-anchor="start" x="388.38" y="-89.5" font-family="Helvetica,sans-Serif" font-size="10.00">tools/llzk&#45;witgen/Witgen</text>
<text text-anchor="middle" x="447.62" y="-76.75" font-family="Helvetica,sans-Serif" font-size="10.00">Lowering.cpp</text>
</a>
</g>
</g>
<!-- Node1&#45;&gt;Node6 -->
<g id="edge8_Node000001_Node000006" class="edge">
<title>Node1&#45;&gt;Node6</title>
<g id="a_edge8_Node000001_Node000006"><a xlink:title=" ">
<path fill="none" stroke="#63b8ff" d="M370.67,-132.82C386.91,-123.2 405.63,-112.11 420.54,-103.29"/>
<polygon fill="#63b8ff" stroke="#63b8ff" points="369.05,-129.7 362.23,-137.81 372.62,-135.73 369.05,-129.7"/>
</a>
</g>
</g>
<!-- Node7 -->
<g id="Node000007" class="node">
<title>Node7</title>
<g id="a_Node000007"><a xlink:href="WitnessSelection_8cpp.html" target="_top" xlink:title=" ">
<polygon fill="white" stroke="#666666" points="672.12,-103 533.12,-103 533.12,-69.5 672.12,-69.5 672.12,-103"/>
<text text-anchor="start" x="541.12" y="-89.5" font-family="Helvetica,sans-Serif" font-size="10.00">tools/llzk&#45;witgen/Witness</text>
<text text-anchor="middle" x="602.62" y="-76.75" font-family="Helvetica,sans-Serif" font-size="10.00">Selection.cpp</text>
</a>
</g>
</g>
<!-- Node1&#45;&gt;Node7 -->
<g id="edge9_Node000001_Node000007" class="edge">
<title>Node1&#45;&gt;Node7</title>
<g id="a_edge9_Node000001_Node000007"><a xlink:title=" ">
<path fill="none" stroke="#63b8ff" d="M409.01,-135.83C449.69,-125.62 499.39,-113.15 538.25,-103.4"/>
<polygon fill="#63b8ff" stroke="#63b8ff" points="408.37,-132.39 399.53,-138.21 410.08,-139.17 408.37,-132.39"/>
</a>
</g>
</g>
<!-- Node4&#45;&gt;Node2 -->
<g id="edge4_Node000004_Node000002" class="edge">
<title>Node4&#45;&gt;Node2</title>
<g id="a_edge4_Node000004_Node000002"><a xlink:title=" ">
<path fill="none" stroke="#63b8ff" d="M188,-70.63C164.65,-59.83 132.86,-45.14 108.73,-33.98"/>
<polygon fill="#63b8ff" stroke="#63b8ff" points="186.48,-73.78 197.02,-74.8 189.41,-67.43 186.48,-73.78"/>
</a>
</g>
</g>
<!-- Node4&#45;&gt;Node3 -->
<g id="edge5_Node000004_Node000003" class="edge">
<title>Node4&#45;&gt;Node3</title>
<g id="a_edge5_Node000004_Node000003"><a xlink:title=" ">
<path fill="none" stroke="#63b8ff" d="M225.07,-64.83C228.38,-52.41 232.46,-37.12 235.05,-27.4"/>
<polygon fill="#63b8ff" stroke="#63b8ff" points="221.79,-63.55 222.59,-74.12 228.55,-65.36 221.79,-63.55"/>
</a>
</g>
</g>
<!-- Node4&#45;&gt;Node5 -->
<g id="edge6_Node000004_Node000005" class="edge">
<title>Node4&#45;&gt;Node5</title>
<g id="a_edge6_Node000004_Node000005"><a xlink:title=" ">
<path fill="none" stroke="#63b8ff" d="M255.65,-71.36C283.79,-60.5 322.97,-45.39 352.55,-33.98"/>
<polygon fill="#63b8ff" stroke="#63b8ff" points="254.55,-68.03 246.48,-74.89 257.07,-74.56 254.55,-68.03"/>
</a>
</g>
</g>
</g>
</svg>
